<?xml version="1.0" encoding="utf-8"?><!DOCTYPE svg PUBLIC "-//W3C//DTD SVG 1.1//EN" "http://www.w3.org/Graphics/SVG/1.1/DTD/svg11.dtd"><svg version="1.1" baseProfile="full" xmlns="http://www.w3.org/2000/svg" xmlns:xlink="http://www.w3.org/1999/xlink" xmlns:ev="http://www.w3.org/2001/xml-events"   height="250px"   width="250px" ><path stroke="rgb( 14, 5, 10 )" stroke-width="0px" stroke-linecap="butt" stroke-linejoin="miter" fill="rgb( 255, 255, 255 )" d="M250,122 C250,122 250,128 250,128 C250,128 242.924,128 242.924,128 C242.801,132.922 242.405,137.776 241.696,142.53 C241.696,142.53 248.622,143.752 248.622,143.752 C248.622,143.752 247.58,149.66 247.58,149.66 C247.58,149.66 240.663,148.441 240.663,148.441 C239.694,153.252 238.407,157.945 236.871,162.525 C236.871,162.525 243.488,164.933 243.488,164.933 C243.488,164.933 241.436,170.572 241.436,170.572 C241.436,170.572 234.818,168.163 234.818,168.163 C233.028,172.713 230.992,177.139 228.674,181.392 C228.674,181.392 234.753,184.902 234.753,184.902 C234.753,184.902 231.753,190.098 231.753,190.098 C231.753,190.098 225.664,186.582 225.664,186.582 C223.115,190.74 220.301,194.713 217.272,198.509 C217.272,198.509 222.684,203.05 222.684,203.05 C222.684,203.05 218.827,207.647 218.827,207.647 C218.827,207.647 213.415,203.106 213.415,203.106 C210.193,206.751 206.751,210.193 203.106,213.415 C203.106,213.415 207.647,218.827 207.647,218.827 C207.647,218.827 203.05,222.684 203.05,222.684 C203.05,222.684 198.509,217.272 198.509,217.272 C194.713,220.301 190.74,223.115 186.582,225.664 C186.582,225.664 190.098,231.753 190.098,231.753 C190.098,231.753 184.902,234.753 184.902,234.753 C184.902,234.753 181.392,228.674 181.392,228.674 C177.139,230.992 172.713,233.028 168.163,234.818 C168.163,234.818 170.572,241.436 170.572,241.436 C170.572,241.436 164.933,243.488 164.933,243.488 C164.933,243.488 162.525,236.871 162.525,236.871 C157.945,238.407 153.252,239.694 148.441,240.663 C148.441,240.663 149.66,247.58 149.66,247.58 C149.66,247.58 143.752,248.622 143.752,248.622 C143.752,248.622 142.53,241.696 142.53,241.696 C137.776,242.405 132.922,242.801 128,242.924 C128,242.924 128,250 128,250 C128,250 122,250 122,250 C122,250 122,242.924 122,242.924 C117.078,242.801 112.224,242.405 107.47,241.696 C107.47,241.696 106.248,248.622 106.248,248.622 C106.248,248.622 100.34,247.58 100.34,247.58 C100.34,247.58 101.559,240.663 101.559,240.663 C96.748,239.694 92.0549999999999,238.407 87.475,236.871 C87.475,236.871 85.067,243.488 85.067,243.488 C85.067,243.488 79.428,241.436 79.428,241.436 C79.428,241.436 81.837,234.818 81.837,234.818 C77.287,233.028 72.861,230.992 68.6079999999999,228.674 C68.6079999999999,228.674 65.098,234.753 65.098,234.753 C65.098,234.753 59.902,231.753 59.902,231.753 C59.902,231.753 63.418,225.664 63.418,225.664 C59.26,223.115 55.287,220.301 51.491,217.272 C51.491,217.272 46.95,222.684 46.95,222.684 C46.95,222.684 42.353,218.827 42.353,218.827 C42.353,218.827 46.894,213.415 46.894,213.415 C43.249,210.193 39.807,206.751 36.585,203.106 C36.585,203.106 31.173,207.647 31.173,207.647 C31.173,207.647 27.316,203.05 27.316,203.05 C27.316,203.05 32.728,198.509 32.728,198.509 C29.699,194.713 26.885,190.74 24.336,186.582 C24.336,186.582 18.247,190.098 18.247,190.098 C18.247,190.098 15.247,184.902 15.247,184.902 C15.247,184.902 21.326,181.392 21.326,181.392 C19.008,177.139 16.972,172.713 15.182,168.163 C15.182,168.163 8.56399999999996,170.572 8.56399999999996,170.572 C8.56399999999996,170.572 6.51199999999994,164.933 6.51199999999994,164.933 C6.51199999999994,164.933 13.129,162.525 13.129,162.525 C11.593,157.945 10.306,153.252 9.33699999999999,148.441 C9.33699999999999,148.441 2.41999999999996,149.66 2.41999999999996,149.66 C2.41999999999996,149.66 1.37800000000004,143.752 1.37800000000004,143.752 C1.37800000000004,143.752 8.30399999999997,142.53 8.30399999999997,142.53 C7.59500000000003,137.776 7.19899999999996,132.922 7.07600000000002,128 C7.07600000000002,128 0,128 0,128 C0,128 0,122 0,122 C0,122 7.07600000000002,122 7.07600000000002,122 C7.19899999999996,117.078 7.59500000000003,112.224 8.30399999999997,107.47 C8.30399999999997,107.47 1.37800000000004,106.248 1.37800000000004,106.248 C1.37800000000004,106.248 2.41999999999996,100.34 2.41999999999996,100.34 C2.41999999999996,100.34 9.33699999999999,101.559 9.33699999999999,101.559 C10.306,96.748 11.593,92.055 13.129,87.475 C13.129,87.475 6.51199999999994,85.067 6.51199999999994,85.067 C6.51199999999994,85.067 8.56399999999996,79.428 8.56399999999996,79.428 C8.56399999999996,79.428 15.182,81.837 15.182,81.837 C16.972,77.287 19.008,72.861 21.326,68.608 C21.326,68.608 15.247,65.098 15.247,65.098 C15.247,65.098 18.247,59.902 18.247,59.902 C18.247,59.902 24.336,63.418 24.336,63.418 C26.885,59.26 29.699,55.287 32.728,51.491 C32.728,51.491 27.316,46.95 27.316,46.95 C27.316,46.95 31.173,42.353 31.173,42.353 C31.173,42.353 36.585,46.894 36.585,46.894 C39.807,43.249 43.249,39.807 46.894,36.585 C46.894,36.585 42.353,31.173 42.353,31.173 C42.353,31.173 46.95,27.316 46.95,27.316 C46.95,27.316 51.491,32.728 51.491,32.728 C55.287,29.699 59.26,26.885 63.418,24.336 C63.418,24.336 59.902,18.247 59.902,18.247 C59.902,18.247 65.098,15.247 65.098,15.247 C65.098,15.247 68.6079999999999,21.326 68.6079999999999,21.326 C72.861,19.008 77.287,16.972 81.837,15.182 C81.837,15.182 79.428,8.564 79.428,8.564 C79.428,8.564 85.067,6.512 85.067,6.512 C85.067,6.512 87.475,13.129 87.475,13.129 C92.0549999999999,11.593 96.748,10.306 101.559,9.337 C101.559,9.337 100.34,2.42 100.34,2.42 C100.34,2.42 106.248,1.378 106.248,1.378 C106.248,1.378 107.47,8.304 107.47,8.304 C112.224,7.595 117.078,7.199 122,7.076 C122,7.076 122,0 122,0 C122,0 128,0 128,0 C128,0 128,7.076 128,7.076 C132.922,7.199 137.776,7.595 142.53,8.304 C142.53,8.304 143.752,1.378 143.752,1.378 C143.752,1.378 149.66,2.42 149.66,2.42 C149.66,2.42 148.441,9.337 148.441,9.337 C153.252,10.306 157.945,11.593 162.525,13.129 C162.525,13.129 164.933,6.512 164.933,6.512 C164.933,6.512 170.572,8.564 170.572,8.564 C170.572,8.564 168.163,15.182 168.163,15.182 C172.713,16.972 177.139,19.008 181.392,21.326 C181.392,21.326 184.902,15.247 184.902,15.247 C184.902,15.247 190.098,18.247 190.098,18.247 C190.098,18.247 186.582,24.336 186.582,24.336 C190.74,26.885 194.713,29.699 198.509,32.728 C198.509,32.728 203.05,27.316 203.05,27.316 C203.05,27.316 207.647,31.173 207.647,31.173 C207.647,31.173 203.106,36.585 203.106,36.585 C206.751,39.807 210.193,43.249 213.415,46.894 C213.415,46.894 218.827,42.353 218.827,42.353 C218.827,42.353 222.684,46.95 222.684,46.95 C222.684,46.95 217.272,51.491 217.272,51.491 C220.301,55.287 223.115,59.26 225.664,63.418 C225.664,63.418 231.753,59.902 231.753,59.902 C231.753,59.902 234.753,65.098 234.753,65.098 C234.753,65.098 228.674,68.608 228.674,68.608 C230.992,72.861 233.028,77.287 234.818,81.837 C234.818,81.837 241.436,79.428 241.436,79.428 C241.436,79.428 243.488,85.067 243.488,85.067 C243.488,85.067 236.871,87.475 236.871,87.475 C238.407,92.055 239.694,96.748 240.663,101.559 C240.663,101.559 247.58,100.34 247.58,100.34 C247.58,100.34 248.622,106.248 248.622,106.248 C248.622,106.248 241.696,107.47 241.696,107.47 C242.405,112.224 242.801,117.078 242.924,122 C242.924,122 250,122 250,122 ZM125,13 C63.144,13 13,63.144 13,125 C13,186.856 63.144,237 125,237 C186.856,237 237,186.856 237,125 C237,63.144 186.856,13 125,13 Z "/></svg>