<?xml version="1.0" encoding="utf-8"?><!DOCTYPE svg PUBLIC "-//W3C//DTD SVG 1.1//EN" "http://www.w3.org/Graphics/SVG/1.1/DTD/svg11.dtd"><svg version="1.1" baseProfile="full" xmlns="http://www.w3.org/2000/svg" xmlns:xlink="http://www.w3.org/1999/xlink" xmlns:ev="http://www.w3.org/2001/xml-events"   height="280px"   width="280px" ><path stroke="rgb( 14, 5, 10 )" stroke-width="0px" stroke-linecap="butt" stroke-linejoin="miter" fill="rgb( 255, 255, 255 )" d="M140,280 C62.6799999999999,280 0,217.32 0,140 C0,62.68 62.6799999999999,0 140,0 C217.32,0 280,62.68 280,140 C280,217.32 217.32,280 140,280 ZM140.5,7 C66.77,7 7,66.77 7,140.5 C7,214.23 66.77,274 140.5,274 C214.23,274 274,214.23 274,140.5 C274,66.77 214.23,7 140.5,7 ZM265,145 C262.239,145 260,142.761 260,140 C260,137.239 262.239,135 265,135 C267.761,135 270,137.239 270,140 C270,142.761 267.761,145 265,145 ZM263.969,123.218 C261.25,123.698 258.656,121.882 258.177,119.162 C257.697,116.443 259.513,113.849 262.233,113.37 C264.952,112.89 267.545,114.706 268.025,117.426 C268.505,120.145 266.689,122.739 263.969,123.218 ZM259.172,101.946 C256.577,102.89 253.708,101.552 252.763,98.958 C251.819,96.363 253.157,93.493 255.751,92.549 C258.346,91.605 261.216,92.942 262.16,95.537 C263.105,98.132 261.767,101.001 259.172,101.946 ZM250.753,81.83 C248.362,83.211 245.304,82.391 243.923,80 C242.542,77.609 243.362,74.551 245.753,73.17 C248.145,71.789 251.203,72.609 252.583,75 C253.964,77.391 253.145,80.449 250.753,81.83 ZM231.925,62.865 C230.15,60.75 230.426,57.596 232.542,55.821 C234.657,54.046 237.811,54.322 239.586,56.438 C241.361,58.553 241.085,61.707 238.969,63.482 C236.854,65.257 233.7,64.981 231.925,62.865 ZM217.135,48.075 C215.019,46.3 214.743,43.146 216.518,41.031 C218.293,38.915 221.447,38.639 223.562,40.414 C225.678,42.189 225.954,45.343 224.179,47.458 C222.404,49.574 219.25,49.85 217.135,48.075 ZM200,36.077 C197.609,34.696 196.789,31.638 198.17,29.247 C199.551,26.855 202.609,26.036 205,27.417 C207.391,28.797 208.211,31.855 206.83,34.247 C205.449,36.638 202.391,37.458 200,36.077 ZM181.042,27.237 C178.448,26.292 177.11,23.423 178.054,20.828 C178.999,18.233 181.868,16.895 184.463,17.84 C187.058,18.784 188.395,21.654 187.451,24.249 C186.507,26.843 183.637,28.181 181.042,27.237 ZM160.838,21.823 C158.118,21.344 156.302,18.75 156.782,16.031 C157.261,13.311 159.855,11.495 162.574,11.975 C165.294,12.455 167.11,15.048 166.63,17.767 C166.151,20.487 163.557,22.303 160.838,21.823 ZM140,20 C137.239,20 135,17.761 135,15 C135,12.239 137.239,10 140,10 C142.761,10 145,12.239 145,15 C145,17.761 142.761,20 140,20 ZM119.162,21.823 C116.443,22.303 113.849,20.487 113.37,17.767 C112.89,15.048 114.706,12.455 117.426,11.975 C120.145,11.495 122.739,13.311 123.218,16.031 C123.698,18.75 121.882,21.344 119.162,21.823 ZM98.958,27.237 C96.3630000000001,28.181 93.4930000000001,26.843 92.549,24.249 C91.605,21.654 92.942,18.784 95.537,17.84 C98.1319999999999,16.895 101.001,18.233 101.946,20.828 C102.89,23.423 101.552,26.292 98.958,27.237 ZM80,36.077 C77.609,37.458 74.551,36.638 73.17,34.247 C71.789,31.855 72.609,28.797 75,27.417 C77.391,26.036 80.449,26.855 81.83,29.247 C83.211,31.638 82.391,34.696 80,36.077 ZM55.821,47.458 C54.046,45.343 54.322,42.189 56.438,40.414 C58.553,38.639 61.707,38.915 63.482,41.031 C65.2569999999999,43.146 64.981,46.3 62.865,48.075 C60.75,49.85 57.596,49.574 55.821,47.458 ZM41.0309999999999,63.482 C38.915,61.707 38.639,58.553 40.414,56.438 C42.189,54.322 45.343,54.046 47.458,55.821 C49.574,57.596 49.85,60.75 48.075,62.865 C46.3,64.981 43.146,65.257 41.0309999999999,63.482 ZM29.247,81.83 C26.855,80.449 26.036,77.391 27.417,75 C28.797,72.609 31.855,71.789 34.247,73.17 C36.638,74.551 37.458,77.609 36.077,80 C34.696,82.391 31.638,83.211 29.247,81.83 ZM27.237,98.958 C26.292,101.552 23.423,102.89 20.828,101.946 C18.233,101.001 16.895,98.132 17.84,95.537 C18.784,92.942 21.654,91.605 24.249,92.549 C26.843,93.493 28.181,96.363 27.237,98.958 ZM21.823,119.162 C21.344,121.882 18.75,123.698 16.031,123.218 C13.311,122.739 11.495,120.145 11.975,117.426 C12.455,114.706 15.048,112.89 17.767,113.37 C20.487,113.849 22.303,116.443 21.823,119.162 ZM20,140 C20,142.761 17.761,145 15,145 C12.239,145 10,142.761 10,140 C10,137.239 12.239,135 15,135 C17.761,135 20,137.239 20,140 ZM16.031,156.782 C18.75,156.302 21.344,158.118 21.823,160.838 C22.303,163.557 20.487,166.151 17.767,166.63 C15.048,167.11 12.455,165.294 11.975,162.574 C11.495,159.855 13.311,157.261 16.031,156.782 ZM20.828,178.054 C23.423,177.11 26.292,178.448 27.237,181.042 C28.181,183.637 26.843,186.507 24.249,187.451 C21.654,188.395 18.784,187.058 17.84,184.463 C16.895,181.868 18.233,178.999 20.828,178.054 ZM29.247,198.17 C31.638,196.789 34.696,197.609 36.077,200 C37.458,202.391 36.638,205.449 34.247,206.83 C31.855,208.211 28.797,207.391 27.417,205 C26.036,202.609 26.855,199.551 29.247,198.17 ZM48.075,217.135 C49.85,219.25 49.574,222.404 47.458,224.179 C45.343,225.954 42.189,225.678 40.414,223.562 C38.639,221.447 38.915,218.293 41.0309999999999,216.518 C43.146,214.743 46.3,215.019 48.075,217.135 ZM62.865,231.925 C64.981,233.7 65.2569999999999,236.854 63.482,238.969 C61.707,241.085 58.553,241.361 56.438,239.586 C54.322,237.811 54.046,234.657 55.821,232.542 C57.596,230.426 60.75,230.15 62.865,231.925 ZM80,243.923 C82.391,245.304 83.211,248.362 81.83,250.753 C80.449,253.145 77.391,253.964 75,252.583 C72.609,251.203 71.789,248.145 73.17,245.753 C74.551,243.362 77.609,242.542 80,243.923 ZM98.958,252.763 C101.552,253.708 102.89,256.577 101.946,259.172 C101.001,261.767 98.1319999999999,263.105 95.537,262.16 C92.942,261.216 91.605,258.346 92.549,255.751 C93.4930000000001,253.157 96.3630000000001,251.819 98.958,252.763 ZM119.162,258.177 C121.882,258.656 123.698,261.25 123.218,263.969 C122.739,266.689 120.145,268.505 117.426,268.025 C114.706,267.545 112.89,264.952 113.37,262.233 C113.849,259.513 116.443,257.697 119.162,258.177 ZM140,260 C142.761,260 145,262.239 145,265 C145,267.761 142.761,270 140,270 C137.239,270 135,267.761 135,265 C135,262.239 137.239,260 140,260 ZM160.838,258.177 C163.557,257.697 166.151,259.513 166.63,262.233 C167.11,264.952 165.294,267.545 162.574,268.025 C159.855,268.505 157.261,266.689 156.782,263.969 C156.302,261.25 158.118,258.656 160.838,258.177 ZM181.042,252.763 C183.637,251.819 186.507,253.157 187.451,255.751 C188.395,258.346 187.058,261.216 184.463,262.16 C181.868,263.105 178.999,261.767 178.054,259.172 C177.11,256.577 178.448,253.708 181.042,252.763 ZM200,243.923 C202.391,242.542 205.449,243.362 206.83,245.753 C208.211,248.145 207.391,251.203 205,252.583 C202.609,253.964 199.551,253.145 198.17,250.753 C196.789,248.362 197.609,245.304 200,243.923 ZM224.179,232.542 C225.954,234.657 225.678,237.811 223.562,239.586 C221.447,241.361 218.293,241.085 216.518,238.969 C214.743,236.854 215.019,233.7 217.135,231.925 C219.25,230.15 222.404,230.426 224.179,232.542 ZM238.969,216.518 C241.085,218.293 241.361,221.447 239.586,223.562 C237.811,225.678 234.657,225.954 232.542,224.179 C230.426,222.404 230.15,219.25 231.925,217.135 C233.7,215.019 236.854,214.743 238.969,216.518 ZM250.753,198.17 C253.145,199.551 253.964,202.609 252.583,205 C251.203,207.391 248.145,208.211 245.753,206.83 C243.362,205.449 242.542,202.391 243.923,200 C245.304,197.609 248.362,196.789 250.753,198.17 ZM140,257 C75.383,257 23,204.617 23,140 C23,75.383 75.383,23 140,23 C204.617,23 257,75.383 257,140 C257,204.617 204.617,257 140,257 ZM140,28.932 C78.659,28.932 28.932,78.659 28.932,140 C28.932,201.341 78.659,251.068 140,251.068 C201.341,251.068 251.068,201.341 251.068,140 C251.068,78.659 201.341,28.932 140,28.932 ZM252.763,181.042 C253.708,178.448 256.577,177.11 259.172,178.054 C261.767,178.999 263.105,181.868 262.16,184.463 C261.216,187.058 258.346,188.395 255.751,187.451 C253.157,186.507 251.819,183.637 252.763,181.042 ZM258.177,160.838 C258.656,158.118 261.25,156.302 263.969,156.782 C266.689,157.261 268.505,159.855 268.025,162.574 C267.545,165.294 264.952,167.11 262.233,166.63 C259.513,166.151 257.697,163.557 258.177,160.838 Z "/></svg>