<?xml version="1.0" encoding="iso-8859-1"?>
<!-- Generator: Adobe Illustrator 17.0.0, SVG Export Plug-In . SVG Version: 6.00 Build 0)  -->
<!DOCTYPE svg PUBLIC "-//W3C//DTD SVG 1.1//EN" "http://www.w3.org/Graphics/SVG/1.1/DTD/svg11.dtd">
<svg version="1.1" id="&#x56FE;&#x5C42;_1" xmlns="http://www.w3.org/2000/svg" xmlns:xlink="http://www.w3.org/1999/xlink" x="0px"
	 y="0px" width="584.938px" height="776.692px" viewBox="0 0 584.938 776.692" style="enable-background:new 0 0 584.938 776.692;"
	 xml:space="preserve">
<g>
	<g>
		<path style="fill-rule:evenodd;clip-rule:evenodd;fill:#E5A723;" d="M488.005,772.644h1.087l-0.021,4.049H292.469v-1.207h195.536
			V772.644L488.005,772.644z M494.974,772.644h1.124v2.553h5.548l-0.03-2.553h1.094v3.764h-7.735V772.644L494.974,772.644z
			 M508.531,772.644h1.135v2.842h46.372v-2.842h1.064v4.049h-48.571V772.644L508.531,772.644z M577.199,772.644h1.133v2.842h5.542
			v-2.842h1.029l-0.036,3.908h-7.668V772.644z M584.903,772.644h-1.029V769.8h-5.542v2.844h-1.133v-3.832h7.738L584.903,772.644
			L584.903,772.644z M557.102,772.644v-9.946h27.835v-10.431h-1.087l0.023,9.301h-27.836v11.076H557.102L557.102,772.644z
			 M509.666,772.644h-1.135v-20.377h1.135V772.644L509.666,772.644z M502.709,772.644h-1.094l-0.038-2.983h-5.48v2.983h-1.124
			v-4.188h7.735V772.644L502.709,772.644z M489.092,772.644l0.053-9.865h13.775l-0.056-10.512h-1.082v9.367H292.469v1.145h195.536
			v9.865H489.092L489.092,772.644z M481.191,752.267h1.135v2.771h5.613v-2.771h1.243l-0.038,2.771h5.957l0.043-2.771h1.176v3.904
			l-15.129,0.073V752.267L481.191,752.267z M515.562,752.267v17.607h35.005v-13.703h27.337v-3.904h-1.491v2.2h-27.265v13.848
			h-32.377l-0.042-16.048H515.562L515.562,752.267z M521.742,752.267h1.492v9.587h19.238v-9.587h1.492v11.146l-22.223,0.073V752.267
			L521.742,752.267z M528.91,752.267h1.138v2.695h5.539v-2.695h1.137v3.832l-7.813,0.072V752.267z M584.938,752.267h-1.087
			l-0.048-20.597h1.135V752.267L584.938,752.267z M577.904,752.267h-1.491v-16.191h-4.753v14.064h-27.695v2.128h-1.492v-3.766
			h27.555V731.67h1.133v2.772h6.744V752.267L577.904,752.267z M536.724,752.267v-9.798l27.338,0.073l0.034-10.872h-1.099v2.838
			l-12.57-0.066v-2.772h-1.133v3.979l13.703,0.07v5.614h-27.41v10.933H536.724L536.724,752.267z M530.048,752.267h-1.138V731.67
			h1.138V752.267L530.048,752.267z M523.234,752.267h-1.492v-16.265h-18.892v4.69h13.849l0.03,11.575h-1.167v-10.159h-33.236v10.159
			h-1.135v-11.364l13.991,0.076v-9.309h0.992v9.232h5.471v-6.526h21.589V752.267L523.234,752.267z M509.666,752.267v-4.051H487.94
			v4.051h1.243l0.034-2.773h5.966l-0.038,2.773h1.176v-2.844h5.462v2.844h1.082l-0.014-2.844h5.681v2.844H509.666L509.666,752.267z
			 M535.873,731.67v3.9l7.878-0.065v-3.836h-1.129v2.706h-5.688v-2.706H535.873z M584.938,731.67h-1.135l-0.004-2.701H571.16v2.701
			h-1.133v-6.706h1.133v2.876l13.777,0.069V731.67L584.938,731.67z M564.096,731.67h-1.099v-2.554h-6.817v-4.152h0.993v2.876h5.824
			v-2.876h1.12L564.096,731.67L564.096,731.67z M550.427,731.67h-1.133v-6.706h1.133V731.67L550.427,731.67z M543.751,731.67h-1.129
			v-2.701h-5.688v2.701h-1.06v-3.901h7.878V731.67L543.751,731.67z M530.048,731.67h-1.138v-3.188h-32.735v3.188h-0.992v-4.406
			h34.865V731.67z M571.16,724.964h-1.133v-6.574h1.133V724.964L571.16,724.964z M564.117,724.964h-1.12v-2.877h-5.824v2.877h-0.993
			v-6.574h0.923v2.352h7.026L564.117,724.964L564.117,724.964z M550.427,724.964h-1.133v-3.022h-13.566v-3.553h1.061v2.352h12.506
			v-2.352h1.133V724.964L550.427,724.964z M577.199,718.39h0.992v2.771l5.607,0.07v-2.842h1.104l-0.036,3.914h-7.668V718.39z
			 M535.727,714.276v0.424h1.061v-0.424v4.113h-1.061V714.276L535.727,714.276L535.727,714.276z M584.903,718.39h-1.104v-2.84
			h-5.607v2.84h-0.992v-3.834h7.738L584.903,718.39L584.903,718.39z M571.16,718.39h-1.133v-3.268h-12.925v3.268h-0.923v-4.113
			v0.279h0.923v-0.279h14.058V718.39L571.16,718.39z M550.427,718.39h-1.133v-3.334h-6.963v-0.779v0.279h1.138v-0.279h5.825v0.279
			h1.133v-0.279V718.39z M549.508,677.348v3.905l13.416,0.071v5.75h-27.265l0.068,27.202l0,0v-0.208h1.061v0.208v-25.99h27.204
			v-10.938h-1.068v2.845l-12.497-0.072v-2.773H549.508L549.508,677.348z M571.16,714.276v-0.008H556.18v0.008v-6.822h27.694
			l-0.071-30.106h0.924v31.243h-27.624v5.686H571.16L571.16,714.276z M549.294,714.276h-5.825v-19.106h27.91v-13.847h5.607v19.317
			h-27.692V714.276L549.294,714.276z M535.873,677.348h1.201v2.845l5.548-0.072v-2.773h1.129v3.905l-7.878,0.071V677.348
			L535.873,677.348z M570.174,677.348h1.205v2.913l6.525-0.068v21.662h-27.477v12.422v-0.426h-8.096v0.426v-20.312h27.843V677.348z
			 M549.508,670.708v6.64h0.919v-6.64H549.508L549.508,670.708z M563.992,677.348v-6.64h-1.068v3.023h-5.676v-3.023h-1.068v4.156
			h6.744v2.483H563.992L563.992,677.348z M584.727,677.348h-0.924l-0.004-2.557h-12.42v2.557h-1.205v-6.64h1.128v3.092h13.425
			V677.348L584.727,677.348z M543.751,677.348h-1.129v-2.767h-5.548v2.767h-1.201v-3.976h7.878V677.348z M535.873,660.806v6.953
			h13.635v2.949h0.919v-11.041h-14.554V660.806h13.635v5.674h-12.72v-5.674H535.873L535.873,660.806z M563.992,670.708v-4.015
			h-6.744V548.709h-1.068v121.999h1.068v-2.949l5.676-0.069v3.019H563.992L563.992,670.708z M571.302,670.708h-1.128V548.709h1.128
			V670.708z M557.248,548.709v-165.83h-1.068v165.83H557.248L557.248,548.709z M571.302,548.709h-1.128v-165.83h1.128V548.709z"/>
		<path style="fill-rule:evenodd;clip-rule:evenodd;fill:#E5A723;" d="M0.037,772.644h1.03v2.842h5.539v-2.842h1.137v3.908H0.07
			L0.037,772.644L0.037,772.644z M27.838,772.644h1.063v2.842h46.373v-2.842h1.133v4.049H27.838V772.644L27.838,772.644z
			 M82.229,772.644h1.096l-0.032,2.553h5.548v-2.553h1.124v3.764h-7.735V772.644L82.229,772.644z M95.846,772.644h1.09v2.842
			h195.533v1.207H95.867L95.846,772.644z M96.936,772.644h-1.09l-0.051-9.865H82.02l0.055-10.512h1.081v9.367h209.314v1.145H96.936
			V772.644L96.936,772.644z M89.964,772.644v-4.188h-7.735v4.188h1.096l0.037-2.983h5.479v2.983H89.964L89.964,772.644z
			 M76.407,772.644h-1.133v-20.377h1.133V772.644L76.407,772.644z M28.901,772.644h-1.063v-9.946H0v-10.431h1.088l-0.021,9.301
			h27.834V772.644L28.901,772.644z M7.743,772.644v-3.832H0l0.037,3.832h1.03V769.8h5.539v2.844H7.743L7.743,772.644z
			 M7.035,752.267v3.904H34.37v13.703h35.01v-17.607h-1.169l-0.043,16.048H35.789v-13.848H8.524v-2.2H7.035L7.035,752.267z
			 M40.974,752.267h1.492v9.587h19.24v-9.587h1.489v11.22l-22.222-0.073V752.267L40.974,752.267z M48.215,752.267h1.137v2.695h5.54
			v-2.695h1.136v3.904l-7.812-0.072V752.267L48.215,752.267z M88.618,752.267v3.904l15.128,0.073v-3.978h-1.135v2.771H97v-2.771
			h-1.24l0.035,2.771h-5.959l-0.043-2.771H88.618z M103.746,752.267h-1.135v-10.159H69.38v10.159h-1.169l0.032-11.575h13.844v-4.69
			H63.195v16.265h-1.489v-17.891h21.586v6.526h5.476v-9.232h0.987v9.309l13.991-0.076V752.267L103.746,752.267z M97,752.267v-4.051
			H75.274v4.051h1.133v-2.844h5.68l-0.013,2.844h1.081v-2.844h5.463v2.844h1.175l-0.038-2.773h5.967l0.038,2.773H97L97,752.267z
			 M56.027,752.267h-1.136V731.67h1.136V752.267L56.027,752.267z M49.352,752.267h-1.137v-9.798l-27.338,0.073l-0.034-10.872h1.099
			v2.838l12.572-0.066v-2.772h1.135v3.979l-13.707,0.07v5.614h27.41V752.267L49.352,752.267z M42.466,752.267v-3.766H14.91V731.67
			h-1.133v2.772H7.035v17.825h1.489v-16.191h4.753v14.064h27.696v2.128H42.466L42.466,752.267z M1.088,752.267H0V731.67h1.135
			L1.088,752.267L1.088,752.267z M41.188,731.67v3.836l7.88,0.065v-3.9h-1.062v2.706h-5.687v-2.706H41.188z M89.755,731.67h-0.987
			v-3.188h-32.74v3.188h-1.136v-4.406h34.863V731.67L89.755,731.67z M49.067,731.67h-1.062v-2.701h-5.687v2.701h-1.131v-3.901h7.88
			V731.67L49.067,731.67z M35.648,731.67h-1.135v-6.706h1.135V731.67L35.648,731.67z M21.941,731.67h-1.099l-0.021-6.706h1.12v2.876
			h5.823v-2.876h0.997v4.152h-6.82V731.67L21.941,731.67z M14.91,731.67h-1.133v-2.701H1.14l-0.005,2.701H0v-3.761l13.777-0.069
			v-2.876h1.133V731.67z M35.648,724.964h-1.135v-6.574h1.135v2.352H48.15v-2.352h1.062v3.553H35.648V724.964L35.648,724.964z
			 M28.762,724.964h-0.997v-2.877h-5.823v2.877h-1.12l-0.013-4.223h7.029v-2.352h0.924V724.964L28.762,724.964z M14.91,724.964
			h-1.133v-6.574h1.133V724.964L14.91,724.964z M0.037,718.39H1.14v2.842l5.606-0.07v-2.771h0.997v3.914H0.07L0.037,718.39z
			 M49.213,714.276v0.424H48.15v-0.424v4.113h1.062V714.276L49.213,714.276L49.213,714.276z M35.648,718.39h-1.135v-4.113v0.279
			h1.135v-0.279h5.825v0.279h1.133v-0.279v0.779h-6.958V718.39L35.648,718.39z M28.762,718.39h-0.924v-3.268H14.91v3.268h-1.133
			v-4.113h14.061v0.279h0.924v-0.279V718.39L28.762,718.39z M7.743,718.39H6.746v-2.84H1.14v2.84H0.037L0,714.556h7.743V718.39z
			 M35.435,677.348v3.905l-13.421,0.071v5.75h27.266l-0.066,27.202l0,0v-0.208H48.15v0.208v-25.99H20.945v-10.938h1.068v2.845
			l12.5-0.072v-2.773H35.435L35.435,677.348z M41.474,714.276v-19.106H13.56v-13.847H7.952v19.317h27.696v13.635H41.474
			L41.474,714.276z M27.838,714.276H13.777v-0.008h14.984v0.008v-6.822H1.067l0.067-30.106H0.214v31.243h27.624V714.276
			L27.838,714.276z M13.56,677.348v2.913l-6.524-0.068v21.662h27.478v12.422v-0.426h8.093v0.426v-20.312H14.769v-16.616H13.56
			L13.56,677.348z M41.188,677.348v3.905l7.88,0.071v-3.977h-1.201v2.845l-5.548-0.072v-2.773H41.188z M35.435,670.708v6.64h-0.921
			v-6.64H35.435L35.435,670.708z M20.945,677.348v-6.64h1.068v3.023h5.679v-3.023h1.069v4.156h-6.748v2.483H20.945L20.945,677.348z
			 M49.067,677.348h-1.201v-2.767h-5.548v2.767h-1.131v-3.976h7.88V677.348L49.067,677.348z M14.769,677.348H13.56v-2.557H1.14
			l-0.005,2.557H0.214V673.8h13.423v-3.092h1.132V677.348z M49.067,660.806v6.953H35.435v2.949h-0.921v-11.041h14.554V660.806
			H35.435v5.674H48.15v-5.674H49.067L49.067,660.806z M20.945,670.708v-4.015h6.747V548.709h1.069v121.999h-1.069v-2.949
			l-5.679-0.069v3.019H20.945L20.945,670.708z M14.769,670.708h-1.132V548.709h1.132V670.708z M27.692,548.709v-165.83h1.069v165.83
			H27.692L27.692,548.709z M14.769,548.709h-1.132v-165.83h1.132V548.709z"/>
		<path style="fill-rule:evenodd;clip-rule:evenodd;fill:#E5A723;" d="M557.248,227.985v165.848h-1.068V227.985H557.248
			L557.248,227.985z M570.174,227.985h1.128v165.848h-1.128V227.985z M535.873,115.89v-6.952h13.635v-2.951h0.919v11.038h-14.554
			V115.89h13.635v-5.674h-12.72v5.674H535.873L535.873,115.89z M563.992,105.986v4.011h-6.744v117.988h-1.068V105.986h1.068v2.951
			l5.676,0.069v-3.02H563.992L563.992,105.986z M571.302,227.985h-1.128V105.986h1.128V227.985z M549.508,105.986v-6.64h0.919v6.64
			H549.508L549.508,105.986z M563.992,99.347v6.64h-1.068v-3.022h-5.676v3.022h-1.068v-4.154h6.744v-2.485H563.992L563.992,99.347z
			 M571.302,105.986h-1.128v-6.64h1.205v2.558h12.42l0.004-2.558h0.924v3.545h-13.425V105.986L571.302,105.986z M535.873,99.347
			h1.201v2.768h5.548v-2.768h1.129v3.979h-7.878V99.347z M549.508,99.347V95.44l13.416-0.073v-5.747h-27.265l0.068-27.201l0,0v0.207
			h1.061V62.42v25.991h27.204v10.936h-1.068v-2.842l-12.497,0.073v2.77H549.508L549.508,99.347z M584.727,99.347V68.103h-27.624
			V62.42h14.058v0.002H556.18V62.42v6.822h27.694l-0.071,30.105H584.727L584.727,99.347z M571.379,99.347v-2.913l6.525,0.07V74.84
			h-27.477V62.42v0.423h-8.096V62.42v20.313h27.843v16.614H571.379L571.379,99.347z M543.751,99.347V95.44l-7.878-0.073v3.979h1.201
			v-2.842l5.548,0.073v2.77H543.751L543.751,99.347z M543.469,62.42v19.105h27.91v13.842h5.607V76.055h-27.692V62.42H543.469z
			 M535.727,62.42v-0.425h1.061v0.425v-4.114h-1.061V62.42L535.727,62.42L535.727,62.42z M571.16,62.42h-14.058v-0.28h-0.923v0.28
			v-4.114h0.923v3.267h12.925v-3.267h1.133V62.42L571.16,62.42z M549.294,62.42h-5.825v-0.28h-1.138v0.28v-0.78h6.963v-3.334h1.133
			v4.114v-0.28h-1.133V62.42L549.294,62.42z M577.199,58.306h0.992v2.84h5.607v-2.84h1.104l0.034,3.833h-7.738V58.306z
			 M584.903,58.306h-1.104v-2.84l-5.607,0.069v2.771h-0.992v-3.915h7.668L584.903,58.306L584.903,58.306z M571.16,58.306h-1.133
			v-6.574h1.133V58.306L571.16,58.306z M557.102,58.306h-0.923v-6.574h0.993v2.876h5.824v-2.876h1.12l0.012,4.219h-7.026V58.306
			L557.102,58.306z M550.427,58.306h-1.133v-2.355h-12.506v2.355h-1.061v-3.552h13.566v-3.022h1.133V58.306z M571.16,51.732h-1.133
			v-6.708h1.133v2.704h12.639l0.004-2.704h1.135v3.763l-13.777,0.069V51.732L571.16,51.732z M564.117,51.732h-1.12v-2.876h-5.824
			v2.876h-0.993V47.58h6.817v-2.556h1.099L564.117,51.732L564.117,51.732z M550.427,51.732h-1.133v-6.708h1.133V51.732
			L550.427,51.732z M495.183,45.024h0.992v3.193h32.735v-3.193h1.138v4.408h-34.865V45.024L495.183,45.024z M535.873,45.024h1.06
			v2.704h5.688v-2.704h1.129v3.904h-7.878V45.024z M584.938,45.024h-1.135l0.048-20.595h1.087V45.024L584.938,45.024z
			 M571.16,45.024h-1.133V28.195h-27.555V24.43h1.492v2.128h27.695v14.064h4.753V24.43h1.491v17.825h-6.744V45.024L571.16,45.024z
			 M564.096,45.024l-0.034-10.87l-27.338,0.075v-9.8h-1.137v10.933h27.41v5.614l-13.703,0.07v3.978h1.133v-2.77l12.57-0.066v2.835
			H564.096L564.096,45.024z M543.751,45.024V41.19l-7.878-0.068v3.902h1.06v-2.703h5.688v2.703H543.751L543.751,45.024z
			 M530.048,45.024h-1.138V24.43h1.138V45.024L530.048,45.024z M496.175,45.024h-0.992v-9.307l-13.991,0.077V24.43h1.135v10.159
			h33.236V24.43h1.167l-0.03,11.574h-13.849v4.691h18.892V24.43h1.492v17.892h-21.589v-6.527h-5.471V45.024L496.175,45.024z
			 M487.94,24.43v4.051h21.726V24.43h-1.135v2.842h-5.681l0.014-2.842h-1.082v2.842h-5.462V24.43h-1.176l0.038,2.77h-5.966
			l-0.034-2.77H487.94z M584.938,24.43h-1.087l0.023-9.304h-27.836V4.053h1.064v9.95h27.835V24.43L584.938,24.43z M577.904,24.43
			v-3.904h-27.337V6.82h-35.005v17.61h1.167l0.042-16.05h32.377v13.846h27.265v2.204H577.904L577.904,24.43z M543.965,24.43h-1.492
			v-9.587h-19.238v9.587h-1.492V13.206l22.223,0.076V24.43L543.965,24.43z M536.724,24.43h-1.137v-2.697h-5.539v2.697h-1.138v-3.904
			l7.813,0.072V24.43L536.724,24.43z M509.666,24.43h-1.135V4.053h1.135V24.43L509.666,24.43z M502.864,24.43h-1.082v-9.367H292.469
			v-1.146h195.536V4.053h1.087l0.053,9.864h13.775L502.864,24.43L502.864,24.43z M496.32,24.43v-3.904l-15.129-0.073v3.977h1.135
			v-2.772h5.613v2.772h1.243l-0.038-2.772h5.957l0.043,2.772H496.32L496.32,24.43z M494.974,4.053v4.186h7.735V4.053h-1.094
			l-0.038,2.985h-5.48V4.053H494.974L494.974,4.053z M577.199,4.053v3.831h7.738l-0.034-3.831h-1.029v2.839h-5.542V4.053H577.199z
			 M584.903,4.053h-1.029V1.21h-5.542v2.843h-1.133V0.144h7.668L584.903,4.053L584.903,4.053z M557.102,4.053h-1.064V1.21h-46.372
			v2.843h-1.135V0h48.571V4.053L557.102,4.053z M502.709,4.053h-1.094l0.03-2.554h-5.548v2.554h-1.124V0.287h7.735V4.053
			L502.709,4.053z M489.092,4.053h-1.087V1.21H292.469V0h196.602L489.092,4.053z"/>
		<path style="fill-rule:evenodd;clip-rule:evenodd;fill:#E5A723;" d="M27.692,227.985v165.848h1.069V227.985H27.692L27.692,227.985
			z M13.637,227.985h1.132v165.848h-1.132V227.985z M49.067,115.89v-6.952H35.435v-2.951h-0.921v11.038h14.554V115.89H35.435v-5.674
			H48.15v5.674H49.067L49.067,115.89z M20.945,105.986v4.011h6.747v117.988h1.069V105.986h-1.069v2.951l-5.679,0.069v-3.02H20.945
			L20.945,105.986z M14.769,227.985h-1.132V105.986h1.132V227.985z M35.435,105.986v-6.64h-0.921v6.64H35.435L35.435,105.986z
			 M20.945,99.347v6.64h1.068v-3.022h5.679v3.022h1.069v-4.154h-6.748v-2.485H20.945L20.945,99.347z M14.769,105.986h-1.132v-3.094
			H0.214v-3.545h0.921l0.005,2.558h12.42v-2.558h1.209V105.986L14.769,105.986z M41.188,99.347h1.131v2.768h5.548v-2.768h1.201
			v3.979h-7.88V99.347z M35.435,99.347V95.44l-13.421-0.073v-5.747h27.266L49.213,62.42l0,0v0.207H48.15V62.42v25.991H20.945v10.936
			h1.068v-2.842l12.5,0.073v2.77H35.435L35.435,99.347z M49.067,99.347h-1.201v-2.842l-5.548,0.073v2.77h-1.131V95.44l7.88-0.073
			V99.347L49.067,99.347z M14.769,99.347H13.56v-2.913l-6.524,0.07V74.84h27.478V62.42v0.423h8.093V62.42v20.313H14.769V99.347
			L14.769,99.347z M1.135,99.347H0.214V68.103h27.624V62.42H13.777v0.002h14.984V62.42v6.822H1.067L1.135,99.347L1.135,99.347z
			 M35.648,62.42h5.825v19.105H13.56v13.842H7.952V76.055h27.696V62.42z M49.213,62.42v-0.425H48.15v0.425v-4.114h1.062V62.42
			L49.213,62.42L49.213,62.42z M41.474,62.42h-5.825v-0.28h-1.135v0.28v-4.114h1.135v3.334h6.958v0.78v-0.28h-1.133V62.42
			L41.474,62.42z M27.838,62.42H13.777v-4.114h1.133v3.267h12.928v-3.267h0.924v4.114v-0.28h-0.924V62.42L27.838,62.42z
			 M0.037,58.306H1.14v2.84h5.606v-2.84h0.997v3.833H0L0.037,58.306z M49.213,58.306H48.15v-2.355H35.648v2.355h-1.135v-6.574h1.135
			v3.022h13.564V58.306L49.213,58.306z M28.762,58.306h-0.924v-2.355h-7.029l0.013-4.219h1.12v2.876h5.823v-2.876h0.997V58.306
			L28.762,58.306z M14.91,58.306h-1.133v-6.574h1.133V58.306L14.91,58.306z M7.743,58.306H6.746v-2.771L1.14,55.466v2.84H0.037
			l0.033-3.915h7.673V58.306z M35.648,51.732h-1.135v-6.708h1.135V51.732L35.648,51.732z M28.762,51.732h-0.997v-2.876h-5.823v2.876
			h-1.12l0.021-6.708h1.099v2.556h6.82V51.732L28.762,51.732z M14.91,51.732h-1.133v-2.876L0,48.788v-3.763h1.135l0.005,2.704
			h12.638v-2.704h1.133V51.732L14.91,51.732z M41.188,45.024h1.131v2.704h5.687v-2.704h1.062v3.904h-7.88V45.024L41.188,45.024z
			 M54.892,45.024h1.136v3.193h32.74v-3.193h0.987v4.408H54.892V45.024z M89.755,45.024h-0.987v-9.23h-5.476v6.527H61.706V24.43
			h1.489v16.265h18.892v-4.691H68.243L68.211,24.43h1.169v10.159h33.231V24.43h1.135v11.364l-13.991-0.077V45.024L89.755,45.024z
			 M56.027,45.024h-1.136V24.43h1.136V45.024L56.027,45.024z M49.067,45.024h-1.062v-2.703h-5.687v2.703h-1.131V41.19l7.88-0.068
			V45.024L49.067,45.024z M35.648,45.024v-3.978l-13.707-0.07v-5.614h27.41V24.43h-1.137v9.8l-27.338-0.075l-0.034,10.87h1.099
			v-2.835l12.572,0.066v2.77H35.648L35.648,45.024z M14.91,45.024V28.195h27.556V24.43h-1.492v2.128H13.277v14.064H8.524V24.43
			H7.035v17.825h6.742v2.77H14.91L14.91,45.024z M1.135,45.024H0V24.43h1.088L1.135,45.024L1.135,45.024z M75.274,24.43v4.051H97
			V24.43h-1.24l-0.038,2.77h-5.967l0.038-2.77h-1.175v2.842h-5.463V24.43h-1.081l0.013,2.842h-5.68V24.43H75.274z M103.746,24.43
			h-1.135v-2.772H97v2.772h-1.24l0.035-2.772h-5.959l-0.043,2.772h-1.175v-3.904l15.128-0.073V24.43L103.746,24.43z M83.155,24.43
			v-9.367h209.314v-1.146H96.936V4.053h-1.09l-0.051,9.864H82.02l0.055,10.513H83.155L83.155,24.43z M76.407,24.43h-1.133V4.053
			h1.133V24.43L76.407,24.43z M69.38,24.43h-1.169L68.168,8.38H35.789v13.846H8.524v2.204H7.035v-3.904H34.37V6.82h35.01V24.43
			L69.38,24.43z M63.195,24.43V13.206l-22.222,0.076V24.43h1.492v-9.587h19.24v9.587H63.195L63.195,24.43z M56.027,24.43v-3.904
			l-7.812,0.072v3.832h1.137v-2.697h5.54v2.697H56.027L56.027,24.43z M1.088,24.43l-0.021-9.304h27.834V4.053h-1.063v9.95H0V24.43
			H1.088L1.088,24.43z M0.037,4.053L0,7.884h7.743V4.053H6.606v2.839H1.067V4.053H0.037L0.037,4.053z M82.229,4.053h1.096
			l0.037,2.985h5.479V4.053h1.124v4.186h-7.735V4.053z M96.936,4.053h-1.09L95.867,0h196.602v1.21H96.936V4.053L96.936,4.053z
			 M89.964,4.053H88.84V1.499h-5.548l0.032,2.554h-1.096V0.287h7.735V4.053L89.964,4.053z M76.407,4.053h-1.133V1.21H28.901v2.843
			h-1.063V0h48.569V4.053L76.407,4.053z M7.743,4.053H6.606V1.21H1.067v2.843h-1.03L0.07,0.144h7.673V4.053z"/>
	</g>
</g>
</svg>
