<?xml version="1.0" encoding="utf-8"?>
<!-- Generator: Adobe Illustrator 17.0.0, SVG Export Plug-In . SVG Version: 6.00 Build 0)  -->
<!DOCTYPE svg PUBLIC "-//W3C//DTD SVG 1.1//EN" "http://www.w3.org/Graphics/SVG/1.1/DTD/svg11.dtd">
<svg version="1.1" id="图层_1" xmlns="http://www.w3.org/2000/svg" xmlns:xlink="http://www.w3.org/1999/xlink" x="0px" y="0px"
	 width="989.476px" height="532.3px" viewBox="0 0 989.476 532.3" enable-background="new 0 0 989.476 532.3" xml:space="preserve">
<path fill="#FF6161" d="M60.354,203.017c0,0-7.676-9.695-15.535,2.549c-7.858,12.246-16.139,23.303-18.852,36.05
	c-3.732-7.433-3.052-16.414-6.316-23.159c-6.745,0.27-14.952-0.917-19.652,1.401c33.948-49.125,47.746-46.914,47.746-46.914
	c5.939-0.091,15.9,1.005,17.916,5.971c0,0,20.291,35.662,33.993,36.731c3.997,0.023,7.607-0.346,10.948-0.976
	c10.218-6.132,23.576-14.394,43.357-25.316c-11.779-6.164-28.056-15.422-48.805-27.767c-1.13-0.554-1.969-1.119-2.524-1.682h53.853
	c2.801,1.682,7.01,3.928,12.624,6.73c5.598,2.813,9.806,5.048,12.622,6.731c8.824-5.044,16.311-9.415,22.457-13.119
	c0.242-0.251,0.508-0.479,0.736-0.742c0.28-0.055,0.544-0.136,0.817-0.2c9.361-5.676,15.398-9.695,18.062-12.025
	c2.802-2.233,3.922-3.918,3.368-5.048c-0.566-1.117-2.525-1.682-5.892-1.682H98.421v-8.415h155.677
	c13.461,0,20.194,3.932,20.194,11.782c0,3.929-1.684,7.296-5.048,10.098c-8.981,7.295-28.059,19.352-57.221,36.183
	c19.11,10.32,37.414,19.301,54.965,27.011c0.548,2.299,2.19,5.068,1.488,7.548c-1.349,4.751-9.984,5.482-19.853,6.943
	c-5.762,0.854-3.535,3.959,0.468,7.99c-0.191,1.034-0.2,2.14,0.043,3.326c-8.153-1.436-13.144-6.036-18.248-10.525
	c-13.607-5.563-26.269-15.206-39.684-23.376c-2.29-1.213-4.603-2.464-6.951-3.773c-0.565,0.566-1.407,1.131-2.524,1.683
	c-9.548,5.048-17.395,8.98-23.564,11.781c-3.923,1.571-7.704,2.859-11.422,4.019c-8.087,5.229-15.911,10.381-26.035,12.474
	C87.402,242.18,60.354,203.017,60.354,203.017z M282.339,228.045c-1.348,4.752-9.984,5.482-19.852,6.945
	c-9.869,1.462,3.655,9.503,9.503,17.545c5.848,8.041,21.931,4.752,21.931,4.752c4.02-4.386,5.482-2.924,7.311-10.599
	c1.827-7.678,6.579-22.664,3.655-30.705c-2.924-8.042-11.696-1.462-20.103,0C276.377,217.445,283.687,223.293,282.339,228.045z
	 M986.014,81.605c-20.029,62.839-99.654,54.742-99.654,54.742c-25.18-7.574-48.19-21.049-54.736-44.916
	c0,0,45.221,68.862,120.004,16.842c7.653-5.32,19.681-19.429,22.456-28.773c0,0,12.514-60.53-54.736-65.966
	c0,0-97.256-13.534-193.695,111.581c-38.688,56.436-53.508,90.198-53.508,90.198l-12.183,27.516h15.974
	c1.183,0,3.403-2.359,6.697-7.104c3.272-4.728,5.935-7.39,7.975-7.987c13.81,3.55,22.165,10.072,25.072,19.529
	c-0.257,0.595-1.974,1.777-5.12,3.55c-7.159,4.143-11.785,8.581-13.884,13.312l-17.296,39.052
	c9.518-9.458,15.166-14.198,16.942-14.198c4.535,1.772,8.347,6.512,11.466,14.198c0.011,0.199,0.103,0.981,0.174,1.649h59.608
	l5.325-14.098c-11.629,4.927-16.34,4.473-14.138-1.345l2.539-6.714c-4.781,8.961-10.32,12.532-16.614,10.745
	c-2.164-0.442-2.641-2.238-1.456-5.37c1.017-2.685,1.536-4.701,1.585-6.04c-5.969,2.242-13.188,5.366-21.683,9.395
	c-6.311,3.134-9.835,4.477-10.594,4.029c-2.793-4.923-3.319-10.288-1.577-16.112c0.166-0.44,1.577-1.111,4.249-2.015
	c4.858-1.783,8.556-3.579,11.094-5.369c6.894-7.156,14.353-15.209,22.391-24.17c-6.258,1.797-11.841,4.264-16.739,7.39
	c-2.204,0.902-3.538,1.337-3.992,1.337c-3.094-0.435-4.275-4.694-3.546-12.749c0.163-0.443,1.034-0.893,2.599-1.343
	c5.028-2.234,9.143-5.138,12.364-8.73c7.605-10.285,12.153-16.782,13.639-19.464c1.638-3.124,3.255-4.924,4.82-5.37
	c7.642,3.136,12.508,6.269,14.581,9.399c-0.811,0.903-2.713,2.244-5.708,4.025c-8.548,5.37-17.423,11.641-26.635,18.801h13.947
	c3.034-3.131,6.257-6.718,9.641-10.747c1.945-2.684,3.698-4.245,5.266-4.693c1.093-0.444,4.898,1.793,11.408,6.708l3.047-8.057
	c1.016-2.685,4.037-2.685,9.069,0c3.5,1.796,6.039,2.47,7.604,2.016c4.18-9.833,6.79-16.109,7.804-18.797
	c1.183-3.123,2.319-4.914,3.427-5.367c9.126,0.454,15.651,2.244,19.589,5.367c-0.811,0.904-2.071,1.792-3.804,2.688
	c-6.307,3.136-12.367,8.725-18.201,16.781h6.277l3.107-2.688c2.868-2.684,4.769-4.023,5.706-4.023
	c6.076,3.586,10.291,7.83,12.616,12.749c-0.509,1.344-1.872,2.467-4.061,3.362c-1.736,0.902-2.687,1.57-2.856,2.013l-1.268,3.355
	c5.151-1.343,9.252-3.578,12.301-6.714c6.174-8.946,10.933-17.222,14.273-24.836c0.85-2.235,1.815-3.577,2.918-4.028
	c6.002,1.341,11.873,4.261,17.63,8.727c-0.817,0.905-2.074,1.793-3.81,2.687c-3.009,1.79-5.54,3.587-7.607,5.371
	c-6.556,6.268-13.267,12.311-20.109,18.125h8.372c4.01-4.472,6.591-7.606,7.739-9.401c1.771-2.232,3.204-3.58,4.312-4.029
	c8.579,3.138,13.816,6.493,15.718,10.069c-0.336,0.901-1.782,2.246-4.312,4.029c-2.838,1.34-10.845,7.159-24.033,17.447
	c7.596,4.483,11.32,9.4,11.155,14.771c-2.211,10.741-7.283,16.783-15.224,18.125c3.886,4.48,7.085,8.286,9.632,11.41
	c0.714,1.791,0.749,2.914,0.126,3.358c-0.343,0.898-1.365,1.123-3.044,0.669H794.45c8.646,15.219,25.489,24.167,50.521,26.854
	c1.981,0.899,0.693,2.461-3.87,4.696c-6.012,3.59-9.809,6.263-11.414,8.054c-0.634,0.446-1.036,0.894-1.205,1.348
	c-4.363,5.368-7.448,7.382-9.258,6.039c-19.783-6.716-29.44-22.373-28.961-46.991h-3.341c-0.138,0.237-0.28,0.472-0.411,0.711
	l-14.655,38.754c-4.672,17.614-21.866,53.334-6.785,59.687c13.158,4.386,29.406-27.678,42.691-42.234
	c-1.496,12.433-0.84,10.615-7.053,24.993c-2.074,3.78-3.114,5.599-4.792,8.341c-9.253,11.421-11.794,18.657-26.055,22.108
	c-28.425,2.21-26.969-29.236-25.019-52.925c1.129-4.573,0.975-5.345,2.163-7.746l15.737-41.619
	c-30.403,20.137-57.144,32.44-80.217,36.922c-5.631,1.343-8.96,1.564-10.017,0.672c-0.3-0.454,2.298-1.794,7.798-4.029
	c27.777-10.743,49.769-25.277,66.016-43.634h-38.536c-0.526,0.154-1.039,0.303-1.508,0.454c-1.125,0.939-2.701,1.425-4.792,1.425
	h-64.799c-3.837,31.372,8.194,52.965,36.099,64.793c2.424,1.191,0.593,2.662-5.515,4.435c-5.792,2.361-9.826,4.135-12.125,5.325
	c-2.301,1.177-5.428,3.55-9.36,7.1c-5.323,5.325-9.355,7.101-12.119,5.325c-17.643-13.616-19.008-42.6-4.079-86.979
	c-13.569,26.629-31.748,47.638-54.536,63.018c-10.91,5.911-23.923,11.235-39.027,15.973c-22.408,6.51-27.859,6.798-16.368,0.89
	c37.566-15.378,65.642-42.006,84.194-79.88h-36.388c-1.771,0-2.577-0.886-2.371-2.662c-0.673-1.175-0.102-1.773,1.674-1.773h39.047
	l22.736-51.329c0.84-2.184,1.747-4.305,2.724-6.359h-20.323c-3.357-1.774-3.594-3.247-0.693-4.438h23.079l18.476-41.714
	C742.512,48.445,832.327,14.232,832.327,14.232c27.459-13.021,76.392-18.963,112.984-9.823
	C945.311,4.409,1004.12,24.818,986.014,81.605z M846.319,292.074c-4.78,0.446-5.537-3.07-2.296-10.534
	c-0.445,0.111-0.891,0.248-1.336,0.38c-7.014,2.879-12.707,5.38-16.974,7.468c-5.666,2.686-8.57,3.588-8.684,2.686
	c-1.396,0-2.435-4.025-3.104-12.085c-1.919,6.276-5.648,9.398-11.228,9.398c-3.597,0.903-6.245,1.122-7.924,0.674
	c2.568,1.797,2.048,3.81-1.585,6.039c-2.079,1.796-3.198,2.915-3.364,3.358l-2.033,5.372h41.149c0.926,0,4.335-2.238,10.212-6.717
	C842.019,295.432,844.415,293.419,846.319,292.074z M847.975,261.864c-7.493,6.273-13.216,10.975-17.185,14.101l15.598-0.675
	C848.287,269.032,848.814,264.553,847.975,261.864z M814.937,277.305c4.523-0.892,9.257-3.579,14.209-8.053
	c7.853-8.498,13.966-15.442,18.33-20.813c-3.299,1.348-7.005,3.136-11.1,5.371c-3.939,1.796-6.054,2.468-6.34,2.016
	c-2.164-0.447-3.044-4.251-2.66-11.41L814.937,277.305z M789.455,252.472h17.438l8.633-22.822h-11.859
	c-3.728,0-6.259,1.79-7.607,5.366L789.455,252.472z M779.561,278.649h17.436l8.884-23.494h-17.436L779.561,278.649z
	 M778.545,281.333l-2.542,6.715c4.016,0.447,9.652,0.901,16.931,1.339l3.047-8.054H778.545z M749.195,261.196
	c-1.279,0.899-2.538,1.791-3.804,2.684c-8.121,6.714-13.995,11.193-17.629,13.424h18.826
	C748.19,270.593,749.069,265.222,749.195,261.196z M777.542,239.716c-5.369,3.135-14.101,9.627-26.189,19.461
	c6.505,4.932,10.329,11.417,11.468,19.473L777.542,239.716z M657.993,247.266l-25.158,56.802h18.641l25.158-56.802v0H657.993z
	 M565.642,266.876c-24.267,80.086-80.705,157.904-80.705,157.904C384.935,548.967,299.665,531.449,299.665,531.449
	c-15.02-1.373-31.673-7.143-40-14.736c-9.241-8.416-13.445-15.446-14.741-32.982c-1.108-12.992,1.04-19.355,4.912-27.371
	c10.16-21.008,27.796-39.732,61.058-35.791c7.067,0.837,10.166,3.528,15.437,6.315c14.33,7.574,27.357,19.791,35.792,33.689
	c0,0-28.877-35.696-64.564-32.986c0,0-48.232,3.071-42.109,56.844c2.77,24.331,25.086,31.459,40.706,33.688
	c0,0,70.433,14.953,148.077-72.985c7.393-8.373,18.835-21.421,25.64-33.051h-46.446c-22.701,0-41.623-7.57-56.757-22.703
	c-3.161,18.285-22.391,26.797-57.7,25.544c8.186-5.062,14.498-12.299,18.918-21.76c-5.674,6.297-13.242,9.461-22.705,9.461
	c-13.878-0.636-20.809-9.787-20.809-27.432v-54.489l-196.891-0.077v-8.415h80.78v-42.075h-69v-9.255h69v-33.659h37.025v33.659
	h63.006v-0.151h27.431c16.391-0.623,24.27,6.315,23.65,20.815v84.188c-0.636,13.242,1.565,18.918,6.619,17.025
	c3.151,0,5.986-0.948,8.513-2.836c3.149-8.826,5.677-17.029,7.57-24.598c-7.57-18.282-12.296-36.892-14.189-55.809
	c6.296,15.134,12.296,29.012,17.976,41.62c6.293-20.81,9.457-37.201,9.457-49.189c0-6.293-3.475-9.459-10.406-9.459h-5.677
	c-10.094-0.622-11.679-7.569-4.732-20.811c16.394-27.107,24.906-43.187,25.543-48.241c0.623-5.677-2.838-8.19-10.406-7.568h-20.811
	v-8.516h47.3c14.495-0.623,21.429,4.109,20.809,14.19c1.257,4.417-9.153,25.229-31.218,62.432
	c18.284-1.256,26.797,4.732,25.54,17.973c-1.271,16.408-8.201,44.784-20.809,85.137c17.026,16.392,35.621,24.593,55.81,24.593
	h49.967c3.139-5.524,7.708-12.557,10.492-17.97h-57.621c-22.701,0.636-33.747-7.243-33.107-23.651V242.757h32.16v114.466
	c-0.634,11.986,3.787,17.661,13.244,17.024V216.271h-42.565v-8.511h23.647c15.135,0.637,23.958-4.726,26.486-16.083h46.352
	c-4.421,11.991-11.351,19.556-20.811,22.705v67.164h19.866l4.378-0.209c2.245-0.193,2.847-1.119,4.791-1.57
	c7.768-5.84,10.925-12.324,16.82-20.037c3.147-5.222,5.826-10.038,7.365-12.674c3.411-5.847,13.155-7.186,14.863-2.741
	c0,0,8.55,6.661-11.074,36.866c-0.057,0.047-0.103,0.102-0.154,0.151c-10.742,9.297-28.63,23.863-56.854,18.09v74.825h16.776
	c15.052-27.431,93.307-183.161,93.307-183.161s10.623-30.97,51.931-45.622c6.334-2.245,12.862-1.491,14.741,4.212
	c1.708,11.065-2.427,15.497-7.019,21.054c-2.382,2.767-4.363,3.398-9.481,7.968c-14.712,9.387-26.288,19.893-38.944,31.332
	C584.135,227.355,575.539,247.764,565.642,266.876z M273.968,270.193h-5.674v-0.055h-63.006v42.075l79.086,0.142v-28.922
	C284.995,273.975,281.539,269.568,273.968,270.193z M575.425,272.024c-1.47,3.655,0.281,6.382,5.266,8.184
	c5.26,1.539,9.852,0.72,13.784-2.467c4.951-5.058,6.508-11.094,4.672-18.093c-5.4-12.882-10.723-19.887-15.929-21.007
	c4.286,10.701,2.362,20.97-5.771,30.815C576.056,270.748,575.382,271.602,575.425,272.024z"/>
</svg>
