<?xml version="1.0" encoding="utf-8"?>
<!-- Generator: Adobe Illustrator 17.0.0, SVG Export Plug-In . SVG Version: 6.00 Build 0)  -->
<!DOCTYPE svg PUBLIC "-//W3C//DTD SVG 1.1//EN" "http://www.w3.org/Graphics/SVG/1.1/DTD/svg11.dtd">
<svg version="1.1" id="_x37C_" xmlns="http://www.w3.org/2000/svg" xmlns:xlink="http://www.w3.org/1999/xlink" x="0px" y="0px"
	 width="204.306px" height="87.13px" viewBox="0 0 204.306 87.13" enable-background="new 0 0 204.306 87.13" xml:space="preserve">
<path fill="#FF3333" d="M46.862,76.993l-2.464,1.088l-0.885-0.128c-0.274,1.03-2.113,3.227-3.489,3.259l0.175,0.177l-5.609,5.742
	l-0.902-0.853l0.983-0.878l0.156-0.994l5.893-5.289l-0.034-1.705l3.068-1.333l0.923,0.479c0.329-0.165,0.387-0.233,0.932-0.233
	C46.364,76.325,45.785,76.525,46.862,76.993z M29.785,12.567c0.827-0.192,1.397-0.699,2.327-0.699c0.957,0,0.291,0.932,2.094,0.932
	c0.912,0,4.432-4.094,5.06-4.883L38.86,3.026c-1.075-0.286-1.359-0.737-2.002-1.489C35.58,0.036,36.3,0.885,34.905,0h-0.466
	l-0.252,0.453c-0.594-0.293,0.212-0.22-0.677-0.22c-0.509,0-0.699,0.171-0.699-0.233h-1.395c-0.53,0.459-1.628,0.897-1.628,1.628
	v0.233c0,0.998,1.231,2.793,2.094,2.793h0.93c0.265,0.987,0.466,0.408,0.466,1.165v0.699C33.276,7.282,29.83,10.564,29.785,12.567z
	 M58.873,5.12c0.844-0.197,2.094-0.669,2.094-1.63V3.256c0-0.853-1.071-1.72-1.628-2.094c-1.265,1.1-2.84,0.763-3.259,2.327
	C57.828,4.327,57.865,3.212,58.873,5.12z M23.736,23.27c2.015-0.045,4.083-2.182,6.312-2.996c2.026-0.739,4.844-2.727,6.442-2.63
	l1.017-1.081l0.036,0.233l5.039-1.671c-0.19-0.818-0.194-1.861-1.165-1.861h-0.229c-3.78,0-6.825,2.327-9.774,2.327
	c-0.509,0.761-6.143,2.846-7.601,3.568c-2.6,1.291-5.25,2.363-7.761,3.641c-2.259,1.147-13.419,7.295-14.889,6.985v0.466
	l-0.923,0.002L0,31.415c1.509,0.402,1.759,1.165,3.955,1.165c1.056,0,1.921-0.269,2.56-0.699c0.284,0.16,0.25,0.233,0.699,0.233
	c0.468,0,4.398-2.049,4.917-2.297c1.65-0.791,2.985-2.547,4.857-2.59c0.278-1.036,1.248-1.165,2.56-1.165
	C20.65,24.415,23.349,24.723,23.736,23.27z M109.368,35.603c-0.675,0.451-0.718,0.481-0.932,1.395
	C109.073,36.571,109.287,36.565,109.368,35.603z M133.104,36.065c0-2.598-3.722-0.479-3.722-1.861c0-2.547,1.173-5.075-0.878-6.336
	c-3.239-1.992-1.912,2.889-1.912,4.938c0,1.752-0.588,6.981-2.793,6.981c-0.859,0-1.331-1.35-2.094-1.861
	c-0.718,0.526-3.026,5.93-3.026,7.447c0,0.284,0.483,0.699,0.932,0.699h0.233c1.571,0,3.438-4.383,4.887-5.353
	c0.395,0.267,0.93,0.506,0.93,1.165v0.233c0,1.118-0.699,1.677-0.699,3.492c0,0.066-0.622,1.513-0.699,1.628l-0.806,9.066
	c1.062,1.434,1.703,1.94,3.13,1.635l1.329-12.782c-0.077-0.955,0.047-5.449,0.438-6.393
	C129.033,37.125,133.104,38.082,133.104,36.065z M153.876,51.367c1.59,1.59,1.803,2.511,1.767,4.906l-0.889,0.65l-4.66-0.145
	c-0.372-0.026-0.699-0.113-0.699-0.466c0-0.547,0.466-0.957,0.466-1.162c0-3.286-5.032-4.188-7.678-4.188
	c-0.891,0-0.085,0.073-0.699-0.233c-2.289,1.987-4.558,9.056-10.24,6.049c0.675-1.009,2.592-1.566,3.883-2.169
	c0.827-0.387,3.098-2.335,3.098-2.951c0-1.436-3.395-1.271-4.887-1.395v-0.466c1.607,0,2.925-0.6,3.823-1.06
	c1.43-0.731,2.925,0.256,2.925-2.432c0-0.139-0.321-0.483-0.466-0.699c-0.419,0.282-0.408,0.466-0.93,0.466h-0.233
	c-0.942,0-2.094-0.252-2.094-1.165v-0.233c0-1.575,4.654-3.252,4.654-4.887v-2.094c0-0.536-0.261-1.395-0.699-1.395
	c-1.996,0-2.37,1.628-4.654,1.628c-0.63,0-0.643-0.111-1.165-0.233c0.13-1.575,5.246-3.885,6.515-6.282
	c-0.316-1.35-0.47-2.729-0.699-4.188c-0.073-0.457-0.218-1.556-0.378-1.949c-0.387-0.947-1.252-0.818-1.252-1.308
	c0-1,1.378-1.716,2.094-2.094l0.188-0.16l1.906,2.487c0,1.427-0.278,5.586,0.932,5.586h0.466c0.752,0,1.628-0.994,1.628-1.861v-0.93
	c0.575,0.047,4.421,2.412,4.421,3.256h0.006v0.699c0,2.021-3.259,4.041-3.259,5.12c0,0.981,1.235,0.855,1.767,1.256
	c0.451,0.34,0.656,1.878,0.793,2.466c-3.739,2.504-7.68,1.562-7.701,8.34l3.308,0.235l0.669,0.5
	c1.051-0.915,1.378,0.299,2.821-0.034l0.669,0.5C150.384,48.875,153.126,50.617,153.876,51.367z M142.878,34.905L142.878,34.905
	l0.002,0.462c0,0.63,0.111,0.643,0.233,1.165c0.991-0.021,2.094-0.487,2.094-1.395V34.67c0-0.543-0.387-0.93-0.932-0.93h-0.233
	C143.499,33.74,142.878,34.362,142.878,34.905z M204.306,48.862c0,1.889-1.581,3.139-2.868,3.88
	c-0.652,0.376-4.141,1.936-4.812,1.936c-0.534,0-0.271-0.079-0.932-0.233c-1.637,1.096-3.838,1.509-4.962,2.053
	c-0.821,0.397-1.331,3.532-3.88,3.532c-0.524,0-0.513-0.184-0.932-0.466c0.156-0.295,0.466-0.769,0.466-1.165
	c0-0.568-3.551-2.1-4.321-2.425c-0.904-0.38-1.654-0.654-2.425-1.066c-0.989-0.53-1.915-0.511-2.624-0.868
	c-1.248-0.63-0.56-2.432-3.936-0.571c-1.671,0.921-3.378,1.207-5.31,1.207c-1.12-1.671-2.492-0.22-2.06-2.122l-0.372-0.658
	l0.105-3.036c0.265-0.504,0.404-1.165,1.162-1.165l0.239,0.105l3.485-0.105c0.35-0.021,2.761-1.165,2.793-1.165
	c0.613,0,2.126,0.098,2.981-0.032c0.821-0.126,1.543-0.936,2.633-1.336c0.801-0.295,5.291-1.344,6.254-1.425v-1.395
	c0-0.727-0.425-1.346-0.697-1.861l0.479-0.002l-0.261-2.041l-0.889-0.1l-8.639,1.184l-3.955,0.263
	c-2.242-1.5-6.534,0.788-5.222-6.152c0.229-1.207,1.201-3.962,1.675-4.609c0.459-0.626,2.618-3.244,2.618-3.9V24.43
	c1.071-0.023,2.021-1.224,2.094-2.094c1.083-0.092,3.31-2.724,4.133-3.547c0.87-0.872,3.795-3.081,4.013-3.9
	c-2.752,0.641-1.746,0.699-4.654,0.699c-0.051,0-4.291-1.361-5.09-1.658c-2.453-0.915-3.259-0.637-4.682-2.763
	c0.203-0.235,0.637-0.932,0.932-0.932c1.985,0,2.455,0.464,4.188-0.697c0.917,0,6.814-1.496,7.584-1.72
	c2.534-0.737,5.301-1.073,7.774-1.073c1.141,0,4.421,1.675,4.421,2.327c0,2.754-2.887,3.472-4.793,4.748
	c-1.703,1.141-4.004,2.774-5.385,4.156c-0.833,0.835-1.912,1.092-2.665,1.989c-0.662,0.793-1.603,1.814-2.338,2.549
	c-0.722,0.72-4.368,4.594-4.368,5.406h0.002v0.927c-1.002,0.361-2.248,4.242-2.56,5.583c1.667,0.139,5.039,1.397,6.981,0.466
	l0.011,0.528l8.366-1.227c0.126-0.526,0.256-0.579,0.15-0.925l-0.382-5.59c-0.034-0.47,0.635-1.18,0.93-1.395
	c-0.261-1.118,0.015-1.468,1.333-1.306c1.068,0.13,1.028,0.923,1.88,1.583c0.927,0.718,3.101,2.722,4.233,2.748
	c0.69,2.588,6.049,3.799,6.049,6.515v0.699c-2.771,0.645-1.603-0.062-4.094-0.564c-1.113-0.224-2.925,0.246-4.239,0.579
	l-0.122,0.677l0.019,3.727l0.064,1.133l5.579,0.731c0.754,0.506,4.421,1.425,5.594,1.853
	C202.174,45.072,204.306,47.277,204.306,48.862z M186.156,47.005c-1.406,0.115-5.714,2.242-5.816,3.489
	c0.829-0.192,5.819-0.524,5.752-1.628L186.156,47.005z M195.697,46.305c0-0.553-2.103-1.709-3.118-1.509
	c-1.966,0.389-2.359,0.547-3.398,1.742l0.466,6.981C190.334,53.057,195.697,47.108,195.697,46.305z M110.533,34.439h0.466v-0.466
	h-0.466V34.439z M59.76,35.879c1.024,1.186,2.752,3.859,2.695,6.013l-0.791,11.163c-0.043,0.628-0.419,0.979-0.699,1.395
	c1.543,3.214-4.979,10.851-6.282,12.799l-0.096-0.239l-2.921,1.368l1.389,0.267l-0.006,0.97l-1.842-0.265l-0.513,0.953l0.5,0.671
	c-0.12,0.139-1.581,2.045-1.618,2.107c-0.434,0.727,0,0.795-0.526,1.336c-0.692,0.712-0.395-0.233-1.141,0.534l-4.598,0.667
	l-0.261-0.923c1.344-0.111,2.56-0.365,2.56-1.861v-0.699c1.889-0.156,2.19-1.998,3.628-3.007l-0.128-1.442l0.921,0.261
	c0.314-0.594,0.44-1.389,0.748-1.812c0.447-0.611,1.006-0.712,1.301-1.491c0.423-1.12,1.286-2.594,1.9-3.451
	c1.609-2.248,2.38-4.964,3.622-6.985l0.573-8.135c0.192-2.113-0.081-6.97-1.662-7.515l-0.665-2.024
	c-1.303,0.603-0.41-0.233-1.165-0.233c-1.338,0-0.449,1.628-3.026,1.628c-0.263-0.987-0.466-0.406-0.466-1.165v-0.233
	c0-0.887,1.395-3.325,1.395-3.955c0-0.536-0.162-0.699-0.699-0.699c-0.84,0-3.133,1.987-4.421,2.094
	c-0.4,1.716-2.859,2.058-4.289,3.624c-0.859,0.942-3.669,2.246-4.791,3.122c-1.586,1.235-1.066,3.964-1.485,6.428
	c-0.353,2.075-0.84,4.957-0.84,6.607c0,0.628,0.111,0.641,0.233,1.162c-0.419,0.626-1.462,2.327-2.327,2.327
	c-1.34,0-3.103-1.915-5.902-2.474c-1.85-0.372-1.848,0.165-3.667-0.528c-2.445-0.93-0.778,1.229-2.301-1.65
	c0.538-2.308,0.72-2.378,1.626-4.192c0.532-1.066,2.173-2.323,3.494-2.323c0.603,0,0.239,0.156,1.113,0.22l0.316-0.947l-0.626-0.801
	l1.897-1.823l-0.006,0.295l1.259,0.496v-1.628c0-0.771,0.466-0.485,0.466-0.932c0-2.026-4.654,1.895-4.654-2.56v-1.395
	c0-2.541,2.496-2.752,2.289-4.554l0.974-2.237l-3.03-0.248l-1.165,0.058c-0.707-1.058-2.793-1.568-2.793-2.793
	c0-0.645,1.192-0.466,1.861-0.466c0.959-1.814,5.718-1.38,6.282-3.492c3.254,0,3.844,0.594,5.353,2.327
	c-0.491,1.024-0.397,1.917-1.344,2.611c-1.605,1.177-0.788,0.361-1.957,2.058l0.276,0.682c-1.549,0.821-1.207,1.194-1.876,2.594
	l1.41,0.429c0.444-1.91,0.754-0.246,0.699-2.793c0.457-0.241,1.274-0.466,1.861-0.466c0.81,0,0.327,0.412,1.395,0.697l0.115,0.972
	l2.91,1.821c1.068-0.716,1.248-1.141,2.65-1.769c1.451-0.65,2.051-1.656,3.167-1.953v0.466l0.528,0.011l0.286-1.06l0.581-0.814
	h0.714c0.964,0,2.938-2.165,3.923-2.592c2.229-0.968,1.771-2.348,2.825-3.923v-1.861c0.468-0.701,1.729-5.927,2.186-7.586
	c0.355-1.28,1.021-7.772,2.235-7.772c0.38,0,0.699,0.141,0.699,0.466c-0.002,0.6-0.058,0.566-0.235,0.936l0.733,1.889l-0.5,0.671
	c0,4.451-1.628,6.462-1.628,8.146c0,1.036-1.034,4.737-1.165,6.282h0.932c0.947,0,1.325-0.594,2.641-0.647l-0.382,0.769l1.93,2.904
	c-0.857,1.62-1.827,1.694-3.515,2.301c-1.658,0.598-3.026,0.927-3.466,2.816C58.119,33.328,57.89,33.712,59.76,35.879z
	 M31.881,31.646c-0.038-0.451,0.011-0.93-0.466-0.932c-0.271,0-0.641,0.167-0.697,0.233C31.123,31.552,30.954,31.569,31.881,31.646z
	 M33.276,45.375c-1.972,0.162-5.12,3.539-5.12,6.282c-0.417,0.152-0.699,0.169-0.697,0.93c0,0.327,0.318,0.466,0.699,0.466
	l0.936,0.053l2.553-0.284c0.513-0.765,0.966-2.195,1.041-2.782c0.053-0.434,0.588-3.654,0.588-3.733V45.375z M33.742,40.025
	c-0.746,0.015-1.165-0.077-1.162,0.697v0.233c0,0.944,0.571,0.603,1.162,0.466V40.025z M108.436,36.999l-0.35,0.9l1.049,3.985
	c-1.383,1.013-0.233,1.949-0.833,3.355c-0.162,0.38-1.72,1.436-2.244,1.945c-1.462,1.412-3.248,2.34-4.368,4.011
	c0,2.374-0.295,5.748-0.179,7.167c0.267,3.269-0.515,3.539-1.949,5.492l-2.492,0.682l-4.222-1.009
	c0.938-1.282,2.509-1.346,3.37-2.214c1.075-1.079,0.97-2.673,1.635-3.829l-0.359-4.22l-7.904,2.583
	c-0.893-0.598-2.793-1.885-2.793-3.256v-1.165c0-1.714,1.481-4.804,2.233-5.91c1.201-1.767,1.959-3.329,2.887-5.259l-0.152-0.222
	l-3.105,2.083c-0.714-0.62-1.686-0.9-2.115-1.842c-0.496-1.085,0.085-2.406-0.376-3.453l5.284-6.573
	c-1.613,0.135-7.103,4.9-8.319,6.109c-0.474,0.472-3.485,3.289-3.78,3.434c-2.327,1.145-1.085,1.959-4.656,2.791v0.699
	c0,0.658-0.534,0.897-1,1.241l-0.947-1.015l-0.15-1.622c1.532-2.895,2.107-4.271,4.442-6.494c1.712-1.628,3.671-3.878,5.705-5.231
	c1.139-0.759,1.724-1.763,2.955-2.398c1.316-0.679,2.248-1.306,3.511-2.075c1.84-1.122,5.182-3.077,7.353-3.583v-5.816
	c0-0.521-0.184-0.511-0.466-0.932c-1.237,0.288-2.1,0.887-3.259,1.395c-0.761,0.333-0.972,0.346-1.355,0.972
	c-0.756,1.235-0.111,0.254-1.427,0.885l-1.013-1.186l-1.509-0.673l-0.28-3.252c-0.1-0.793-0.466-0.705-0.466-1.63
	c0-1.65,1.188-1.284,1.863-3.024c0.391-1.009,1.628-2.541,1.628-3.492V4.19h0.932c0.103,1.22,0.727,1.526,1.034,2.921
	c0.229,1.036,0.361,2.684,0.372,3.81l0.688,0.483c1.692-0.812,5.786,0.036,6.898,0.782c1.66,1.113,1.481,4.464,1.481,6.432v1.395
	c0,0.912,1.408,1.553,2.327,1.63c0.081,0.981,0.466,1.233,0.466,2.094c0,0.628-2.56,3.895-2.56,4.421v0.466
	c0,1.72,4.421,0.389,4.421,2.56v2.094c0,0.759-1.331,2.583-2.231,2.889c-1.838,0.62-1.712,1.291-2.643,2.697l0.222,4.654
	c1.511-0.034,3.015-1.789,3.573-2.94C106.338,38.356,105.74,37.719,108.436,36.999z M97.158,43.749l-0.252-0.126l-2.043,2.132
	c-0.194,1.652-2.833,2.455-2.947,3.808c1.938-0.043,3.859-1.716,5.165-2.558L97.158,43.749z"/>
</svg>
