<?xml version="1.0" encoding="utf-8"?>
<!-- Generator: Adobe Illustrator 17.0.0, SVG Export Plug-In . SVG Version: 6.00 Build 0)  -->
<!DOCTYPE svg PUBLIC "-//W3C//DTD SVG 1.1//EN" "http://www.w3.org/Graphics/SVG/1.1/DTD/svg11.dtd">
<svg version="1.1" xmlns="http://www.w3.org/2000/svg" xmlns:xlink="http://www.w3.org/1999/xlink" x="0px" y="0px"
	 width="562.647px" height="672.415px" viewBox="0 0 562.647 672.415" enable-background="new 0 0 562.647 672.415"
	 xml:space="preserve">
<g id="background">
</g>
<g id="object">
	<g>
		<polygon fill="#90BD2F" points="0,409.222 44.88,448.414 105.194,461.465 251.128,477.244 361.424,471.556 413.16,454.311 
			493.047,441.248 547.047,410.248 524.047,382.248 409.582,359.049 309.797,365.748 193.297,380.748 47.047,386.248 		"/>
		<g>
			<polygon fill="#616161" points="283.822,0 283.802,0.062 283.811,0.11 			"/>
			<g>
				<path fill="#F7F4F2" d="M112.841,161.056c-0.258-0.773-6.964-21.409-6.964-21.409l-20.119,19.346L112.841,161.056z"/>
				<polygon fill="#FFFCF9" points="112.841,161.056 129.866,163.119 131.155,152.028 105.877,139.647 				"/>
				<polygon fill="#DED7D1" points="131.155,152.028 138.635,151.383 147.921,156.929 129.866,163.119 				"/>
				<polygon fill="#BBB8B3" points="147.921,156.929 160.044,171.116 143.278,182.465 				"/>
				<polygon fill="#F7F4F2" points="129.866,163.119 143.278,182.465 147.921,156.929 				"/>
				<polygon fill="#FFFCF9" points="144.579,181.584 125.739,192.009 129.866,163.119 				"/>
				<polygon fill="#FFFCF9" points="85.758,158.993 70.798,156.929 68.476,172.663 				"/>
				<polygon fill="#E6E3DE" points="70.798,156.929 59.964,153.203 46.035,168.278 				"/>
				<polygon fill="#F7F4F2" points="68.476,172.663 46.035,168.278 70.798,156.929 				"/>
				<polygon fill="#FFFCF9" points="68.476,172.663 53.257,182.465 46.035,168.278 				"/>
				<polygon fill="#FFFCF9" points="129.866,163.119 68.476,172.663 85.758,158.993 112.841,161.056 				"/>
				<polygon fill="#F7F4F2" points="100.449,167.692 125.739,192.009 129.866,163.119 				"/>
				<polygon fill="#DED7D1" points="115.157,181.835 68.476,172.663 100.449,167.692 				"/>
				<polygon fill="#FFFCF9" points="125.739,192.009 89.885,192.009 101.486,179.149 115.157,181.835 				"/>
				<polygon fill="#BBB8B3" points="84.557,175.823 89.885,192.009 101.486,179.149 				"/>
				<polygon fill="#E6E3DE" points="68.476,172.663 53.257,182.465 87.768,185.578 84.557,175.823 				"/>
			</g>
			<g>
				<path fill="#F7F4F2" d="M475.379,148.188c0.336,1.011,9.098,23.35,9.098,23.35l26.281-20.654L475.379,148.188z"/>
				<polygon fill="#FFFCF9" points="475.379,148.188 453.14,145.493 451.456,159.982 484.477,171.538 				"/>
				<polygon fill="#DED7D1" points="451.456,159.982 441.685,160.824 429.554,153.58 453.14,145.493 				"/>
				<polygon fill="#BBB8B3" points="429.554,153.58 413.719,135.048 435.619,120.223 				"/>
				<polygon fill="#F7F4F2" points="453.14,145.493 435.619,120.223 429.554,153.58 				"/>
				<polygon fill="#FFFCF9" points="433.92,121.372 458.531,107.755 453.14,145.493 				"/>
				<polygon fill="#FFFCF9" points="510.758,150.884 530.301,153.58 533.333,133.026 				"/>
				<polygon fill="#E6E3DE" points="530.301,153.58 544.452,158.447 562.647,138.754 				"/>
				<polygon fill="#F7F4F2" points="533.333,133.026 562.647,138.754 530.301,153.58 				"/>
				<polygon fill="#FFFCF9" points="533.333,133.026 553.213,120.223 562.647,138.754 				"/>
				<polygon fill="#FFFCF9" points="453.14,145.493 533.333,133.026 510.758,150.884 475.379,148.188 				"/>
				<polygon fill="#F7F4F2" points="491.566,139.52 458.531,107.755 453.14,145.493 				"/>
				<polygon fill="#DED7D1" points="472.353,121.046 533.333,133.026 491.566,139.52 				"/>
				<polygon fill="#FFFCF9" points="458.531,107.755 505.367,107.755 490.214,124.555 472.353,121.046 				"/>
				<polygon fill="#BBB8B3" points="512.326,128.899 505.367,107.755 490.214,124.555 				"/>
				<polygon fill="#E6E3DE" points="533.333,133.026 553.213,120.223 508.132,116.155 512.326,128.899 				"/>
			</g>
			<g>
				<path fill="#F7F4F2" d="M195.637,82.964c0.297,0.894,8.046,20.651,8.046,20.651l23.243-18.267L195.637,82.964z"/>
				<polygon fill="#FFFCF9" points="195.637,82.964 175.969,80.58 174.48,93.395 203.683,103.615 				"/>
				<polygon fill="#DED7D1" points="174.48,93.395 165.838,94.139 155.109,87.732 175.969,80.58 				"/>
				<polygon fill="#BBB8B3" points="155.109,87.732 141.105,71.343 160.474,58.231 				"/>
				<polygon fill="#F7F4F2" points="175.969,80.58 160.474,58.231 155.109,87.732 				"/>
				<polygon fill="#FFFCF9" points="158.971,59.249 180.737,47.206 175.969,80.58 				"/>
				<polygon fill="#FFFCF9" points="226.926,85.349 244.21,87.732 246.892,69.554 				"/>
				<polygon fill="#E6E3DE" points="244.21,87.732 256.726,92.038 272.818,74.621 				"/>
				<polygon fill="#F7F4F2" points="246.892,69.554 272.818,74.621 244.21,87.732 				"/>
				<polygon fill="#FFFCF9" points="246.892,69.554 264.475,58.231 272.818,74.621 				"/>
				<polygon fill="#FFFCF9" points="175.969,80.58 246.892,69.554 226.926,85.349 195.637,82.964 				"/>
				<polygon fill="#F7F4F2" points="209.954,75.298 180.737,47.206 175.969,80.58 				"/>
				<polygon fill="#DED7D1" points="192.962,58.959 246.892,69.554 209.954,75.298 				"/>
				<polygon fill="#FFFCF9" points="180.737,47.206 222.159,47.206 208.757,62.062 192.962,58.959 				"/>
				<polygon fill="#BBB8B3" points="228.313,65.905 222.159,47.206 208.757,62.062 				"/>
				<polygon fill="#E6E3DE" points="246.892,69.554 264.475,58.231 224.604,54.634 228.313,65.905 				"/>
			</g>
			<g>
				<g>
					<g>
						<g>
							<polygon fill="#2F2F2D" points="375.817,390.556 427.04,390.556 455.444,208.3 							"/>
							<polygon fill="#484848" points="427.04,390.556 481.454,390.556 455.22,209.737 							"/>
							<polygon fill="#5E5E5E" points="455.473,208.233 455.444,208.3 455.22,209.737 481.454,390.556 514.084,389.676 							"/>
						</g>
						<polygon opacity="0.8" fill="#FFFFFF" points="455.473,208.233 455.444,208.3 432.551,260.699 443.515,292.233 
							462.194,259.133 484.376,297.708 						"/>
					</g>
					<g>
						<g>
							<polygon fill="#5E5E5E" points="217.409,174.828 216.965,175.854 243.395,412.024 310.589,412.024 							"/>
							<polygon fill="#484848" points="216.377,177.212 165.74,412.024 243.395,412.024 216.965,175.854 							"/>
							<polygon fill="#2F2F2D" points="165.74,412.024 216.377,177.212 114.742,412.024 							"/>
						</g>
						<polygon opacity="0.8" fill="#FFFFFF" points="217.409,174.828 216.965,175.854 216.377,177.212 183.342,253.535 
							191.315,293.426 225.866,255.391 261.839,287.926 						"/>
					</g>
					<g>
						<g>
							<polygon fill="#484846" points="327.85,65.635 218.5,401.932 291.831,395.866 327.854,65.664 							"/>
							<polygon fill="#616161" points="291.831,395.866 382.888,395.866 327.854,65.664 							"/>
							<polygon fill="#777777" points="328.395,63.968 327.861,65.599 327.854,65.664 382.888,395.866 449.04,395.866 							"/>
						</g>
						<polygon opacity="0.8" fill="#FFFFFF" points="328.395,63.968 327.861,65.599 327.854,65.664 327.85,65.635 301.345,146.648 
							313.468,197.547 340.35,150.265 375.895,194.643 						"/>
					</g>
					<g>
						<g>
							<polygon fill="#484846" points="65.134,404.271 95.372,224.472 27.083,404.271 							"/>
							<polygon fill="#616161" points="96.473,221.949 95.372,224.472 65.134,404.271 113.433,404.271 96.937,223.239 							"/>
							<polygon fill="#777777" points="96.937,223.239 113.998,413.219 166.051,412.024 							"/>
						</g>
						<polygon opacity="0.8" fill="#FFFFFF" points="96.937,223.239 96.473,221.949 95.372,224.472 64.325,306.215 85.592,281.858 
							105.169,314.914 119.171,283.974 						"/>
					</g>
				</g>
				<polygon fill="#547800" points="374.547,394.748 305.289,390.603 149.59,415.376 368.312,415.808 				"/>
				<g>
					<g>
						<g>
							<g>
								<polygon fill="#3C8600" points="128.921,416.9 107.198,396.586 100.131,396.586 117.827,417.562 								"/>
								<polygon fill="#307F00" points="100.131,396.586 93.292,396.586 88.468,419.279 88.724,419.297 117.827,417.562 								"/>
								<polygon fill="#296A00" points="93.292,396.586 86.255,396.586 67.962,418.086 88.468,419.279 								"/>
								<polygon fill="#0B4100" points="82.224,396.586 56.396,417.414 67.962,418.086 86.255,396.586 								"/>
							</g>
							<g>
								<defs>
									<polygon id="SVGID_1_" points="107.198,396.586 93.292,396.586 82.224,396.586 56.396,417.414 88.468,419.279 
										88.724,419.297 128.921,416.9 									"/>
								</defs>
								<clipPath id="SVGID_2_">
									<use xlink:href="#SVGID_1_"  overflow="visible"/>
								</clipPath>
								<polygon clip-path="url(#SVGID_2_)" fill="#A3A5A6" points="109.593,379.65 95.688,379.65 87.492,379.65 84.618,379.65 
									58.791,406.508 68.086,407.047 90.864,408.373 91.119,408.387 131.316,405.994 								"/>
							</g>
						</g>
						<g>
							<g>
								<polygon fill="#307F00" points="93.187,381.201 89.168,405.133 89.38,405.146 114.677,403.639 101.837,381.201 								"/>
								<polygon fill="#3C8600" points="104.772,381.201 101.837,381.201 114.677,403.639 122.874,403.15 								"/>
								<polygon fill="#296A00" points="93.187,381.201 86.357,381.201 70.188,404.029 89.168,405.133 								"/>
								<polygon fill="#0B4100" points="83.964,381.201 62.443,403.578 70.188,404.029 86.357,381.201 								"/>
							</g>
							<g>
								<defs>
									<polygon id="SVGID_3_" points="104.772,381.195 93.187,381.195 83.964,381.195 62.443,403.572 89.168,405.127 
										89.38,405.139 122.874,403.145 									"/>
								</defs>
								<clipPath id="SVGID_4_">
									<use xlink:href="#SVGID_3_"  overflow="visible"/>
								</clipPath>
								<polygon clip-path="url(#SVGID_4_)" fill="#A3A5A6" points="106.769,367.085 95.182,367.085 88.352,367.085 85.96,367.085 
									64.438,389.461 72.184,389.914 91.164,391.016 91.375,391.029 124.87,389.035 								"/>
							</g>
						</g>
						<g>
							<g>
								<polygon fill="#3C8600" points="102.355,367.104 99.791,367.104 111.439,387.359 119.85,386.857 								"/>
								<polygon fill="#307F00" points="93.134,367.104 89.516,388.642 89.708,388.654 111.439,387.359 99.791,367.104 								"/>
								<polygon fill="#296A00" points="93.134,367.104 88.193,367.104 72.437,387.648 89.516,388.642 								"/>
								<polygon fill="#0B4100" points="86.041,367.104 65.467,387.242 72.437,387.648 88.193,367.104 								"/>
							</g>
							<g>
								<defs>
									<polygon id="SVGID_5_" points="102.355,367.1 93.135,367.1 86.041,367.1 65.467,387.236 89.518,388.637 89.708,388.648 
										119.85,386.852 									"/>
								</defs>
								<clipPath id="SVGID_6_">
									<use xlink:href="#SVGID_5_"  overflow="visible"/>
								</clipPath>
								<polygon clip-path="url(#SVGID_6_)" fill="#A3A5A6" points="105.356,354.4 94.93,354.4 88.784,354.4 86.63,354.4 
									67.263,374.539 74.233,374.943 91.313,375.938 91.504,375.949 121.646,374.152 								"/>
							</g>
						</g>
						<g>
							<g>
								<polygon fill="#307F00" points="93.096,353.067 89.771,372.865 89.947,372.877 111.101,371.617 98.965,353.067 								"/>
								<polygon fill="#3C8600" points="101.573,353.067 98.965,353.067 111.101,371.617 117.656,371.227 								"/>
								<polygon fill="#296A00" points="93.096,353.067 88.555,353.067 74.07,371.951 89.771,372.865 								"/>
								<polygon fill="#0B4100" points="86.576,353.067 67.661,371.58 74.07,371.951 88.555,353.067 								"/>
							</g>
							<g>
								<defs>
									<polygon id="SVGID_7_" points="101.574,353.062 93.098,353.062 86.576,353.062 67.661,371.574 89.771,372.859 
										89.947,372.871 117.656,371.221 									"/>
								</defs>
								<clipPath id="SVGID_8_">
									<use xlink:href="#SVGID_7_"  overflow="visible"/>
								</clipPath>
								<polygon clip-path="url(#SVGID_8_)" fill="#A3A5A6" points="104.332,341.389 94.748,341.389 89.099,341.389 87.118,341.389 
									69.314,359.9 75.721,360.273 91.422,361.188 91.599,361.196 119.307,359.546 								"/>
							</g>
						</g>
						<g>
							<polygon fill="#0B4100" points="71.16,356.706 71.164,356.706 71.16,356.712 76.671,357.034 78.345,357.131 92.987,326.901 
								82.786,343.751 							"/>
							<polygon fill="#296A00" points="78.345,357.131 87.996,357.691 93.149,326.678 92.987,326.901 							"/>
							<polygon fill="#307F00" points="93.149,326.678 87.996,357.691 90.174,357.818 90.326,357.828 104.158,357.004 
								93.344,326.409 							"/>
							<polygon fill="#3C8600" points="114.155,356.403 114.158,356.403 102.5,342.505 93.4,326.333 93.344,326.409 
								104.158,357.004 114.158,356.407 							"/>
						</g>
					</g>
					<g>
						<g>
							<g>
								<polygon fill="#3C8600" points="227.572,414.203 205.849,393.889 198.782,393.889 216.478,414.863 								"/>
								<polygon fill="#307F00" points="198.782,393.889 191.943,393.889 187.119,416.58 187.374,416.598 216.478,414.863 								
									"/>
								<polygon fill="#296A00" points="191.943,393.889 184.907,393.889 166.613,415.389 187.119,416.58 								"/>
								<polygon fill="#0B4100" points="180.875,393.889 155.046,414.717 166.613,415.389 184.907,393.889 								"/>
							</g>
							<g>
								<defs>
									<polygon id="SVGID_9_" points="205.849,393.889 191.943,393.889 180.875,393.889 155.046,414.717 187.119,416.58 
										187.374,416.598 227.572,414.203 									"/>
								</defs>
								<clipPath id="SVGID_10_">
									<use xlink:href="#SVGID_9_"  overflow="visible"/>
								</clipPath>
								<polygon clip-path="url(#SVGID_10_)" fill="#A3A5A6" points="208.244,376.955 194.339,376.955 186.142,376.955 
									183.269,376.955 157.442,403.81 166.736,404.352 189.515,405.676 189.77,405.691 229.968,403.297 								"/>
							</g>
						</g>
						<g>
							<g>
								<polygon fill="#307F00" points="191.837,378.504 187.819,402.435 188.03,402.449 213.327,400.941 200.489,378.504 								
									"/>
								<polygon fill="#3C8600" points="203.424,378.504 200.489,378.504 213.327,400.941 221.525,400.453 								"/>
								<polygon fill="#296A00" points="191.837,378.504 185.008,378.504 168.839,401.332 187.819,402.435 								"/>
								<polygon fill="#0B4100" points="182.615,378.504 161.093,400.881 168.839,401.332 185.008,378.504 								"/>
							</g>
							<g>
								<defs>
									<polygon id="SVGID_11_" points="203.424,378.498 191.837,378.498 182.615,378.498 161.093,400.873 187.819,402.43 
										188.03,402.441 221.525,400.447 									"/>
								</defs>
								<clipPath id="SVGID_12_">
									<use xlink:href="#SVGID_11_"  overflow="visible"/>
								</clipPath>
								<polygon clip-path="url(#SVGID_12_)" fill="#A3A5A6" points="205.419,364.387 193.833,364.387 187.003,364.387 
									184.611,364.387 163.089,386.764 170.835,387.215 189.814,388.318 190.026,388.332 223.52,386.336 								"/>
							</g>
						</g>
						<g>
							<g>
								<polygon fill="#3C8600" points="201.006,364.406 198.442,364.406 210.09,384.66 218.5,384.16 								"/>
								<polygon fill="#307F00" points="191.785,364.406 188.167,385.945 188.359,385.957 210.09,384.66 198.442,364.406 								
									"/>
								<polygon fill="#296A00" points="191.785,364.406 186.844,364.406 171.088,384.951 188.167,385.945 								"/>
								<polygon fill="#0B4100" points="184.691,364.406 164.118,384.545 171.088,384.951 186.844,364.406 								"/>
							</g>
							<g>
								<defs>
									<polygon id="SVGID_13_" points="201.006,364.401 191.786,364.401 184.691,364.401 164.118,384.539 188.169,385.939 
										188.359,385.951 218.5,384.154 									"/>
								</defs>
								<clipPath id="SVGID_14_">
									<use xlink:href="#SVGID_13_"  overflow="visible"/>
								</clipPath>
								<polygon clip-path="url(#SVGID_14_)" fill="#A3A5A6" points="204.007,351.703 193.581,351.703 187.436,351.703 
									185.281,351.703 165.914,371.842 172.884,372.246 189.964,373.24 190.155,373.252 220.297,371.455 								"/>
							</g>
						</g>
						<g>
							<g>
								<polygon fill="#307F00" points="191.747,350.369 188.421,370.167 188.598,370.179 209.752,368.918 197.615,350.369 								
									"/>
								<polygon fill="#3C8600" points="200.224,350.369 197.615,350.369 209.752,368.918 216.307,368.528 								"/>
								<polygon fill="#296A00" points="191.747,350.369 187.206,350.369 172.722,369.254 188.421,370.167 								"/>
								<polygon fill="#0B4100" points="185.227,350.369 166.312,368.882 172.722,369.254 187.206,350.369 								"/>
							</g>
							<g>
								<defs>
									<polygon id="SVGID_15_" points="200.225,350.365 191.749,350.365 185.227,350.365 166.312,368.877 188.423,370.163 
										188.598,370.174 216.307,368.521 									"/>
								</defs>
								<clipPath id="SVGID_16_">
									<use xlink:href="#SVGID_15_"  overflow="visible"/>
								</clipPath>
								<polygon clip-path="url(#SVGID_16_)" fill="#A3A5A6" points="202.982,338.69 193.399,338.69 187.749,338.69 185.769,338.69 
									167.965,357.204 174.372,357.575 190.074,358.49 190.25,358.5 217.958,356.849 								"/>
							</g>
						</g>
						<g>
							<polygon fill="#0B4100" points="169.811,354.01 169.814,354.01 169.811,354.015 175.322,354.336 176.996,354.433 
								191.638,324.203 181.436,341.054 							"/>
							<polygon fill="#296A00" points="176.996,354.433 186.646,354.994 191.8,323.979 191.638,324.203 							"/>
							<polygon fill="#307F00" points="191.8,323.979 186.646,354.994 188.825,355.121 188.977,355.13 202.809,354.308 
								191.996,323.713 							"/>
							<polygon fill="#3C8600" points="212.806,353.705 212.81,353.705 201.151,339.808 192.05,323.636 191.996,323.713 
								202.809,354.308 212.81,353.711 							"/>
						</g>
					</g>
					<g>
						<g>
							<g>
								<polygon fill="#3C8600" points="455.243,377.732 433.52,357.416 426.452,357.416 444.149,378.392 								"/>
								<polygon fill="#307F00" points="426.452,357.416 419.614,357.416 414.79,380.109 415.046,380.127 444.149,378.392 								
									"/>
								<polygon fill="#296A00" points="419.614,357.416 412.577,357.416 394.284,378.918 414.79,380.109 								"/>
								<polygon fill="#0B4100" points="408.546,357.416 382.718,378.244 394.284,378.918 412.577,357.416 								"/>
							</g>
							<g>
								<defs>
									<polygon id="SVGID_17_" points="433.52,357.416 419.614,357.416 408.546,357.416 382.718,378.244 414.79,380.109 
										415.046,380.127 455.243,377.732 									"/>
								</defs>
								<clipPath id="SVGID_18_">
									<use xlink:href="#SVGID_17_"  overflow="visible"/>
								</clipPath>
								<polygon clip-path="url(#SVGID_18_)" fill="#A3A5A6" points="435.915,340.482 422.011,340.482 413.813,340.482 
									410.94,340.482 385.113,367.337 394.407,367.878 417.186,369.204 417.44,369.219 457.639,366.824 								"/>
							</g>
						</g>
						<g>
							<g>
								<polygon fill="#307F00" points="419.509,342.032 415.49,365.963 415.701,365.977 440.999,364.47 428.159,342.032 								
									"/>
								<polygon fill="#3C8600" points="431.095,342.032 428.159,342.032 440.999,364.47 449.196,363.98 								"/>
								<polygon fill="#296A00" points="419.509,342.032 412.679,342.032 396.51,364.86 415.49,365.963 								"/>
								<polygon fill="#0B4100" points="410.286,342.032 388.765,364.408 396.51,364.86 412.679,342.032 								"/>
							</g>
							<g>
								<defs>
									<polygon id="SVGID_19_" points="431.095,342.025 419.509,342.025 410.286,342.025 388.765,364.401 415.49,365.957 
										415.701,365.969 449.196,363.975 									"/>
								</defs>
								<clipPath id="SVGID_20_">
									<use xlink:href="#SVGID_19_"  overflow="visible"/>
								</clipPath>
								<polygon clip-path="url(#SVGID_20_)" fill="#A3A5A6" points="433.09,327.915 421.504,327.915 414.674,327.915 
									412.282,327.915 390.76,350.291 398.506,350.743 417.485,351.846 417.697,351.859 451.191,349.865 								"/>
							</g>
						</g>
						<g>
							<g>
								<polygon fill="#3C8600" points="428.677,327.935 426.112,327.935 437.761,348.189 446.171,347.688 								"/>
								<polygon fill="#307F00" points="419.456,327.935 415.838,349.473 416.03,349.484 437.761,348.189 426.112,327.935 								
									"/>
								<polygon fill="#296A00" points="419.456,327.935 414.515,327.935 398.759,348.478 415.838,349.473 								"/>
								<polygon fill="#0B4100" points="412.362,327.935 391.788,348.074 398.759,348.478 414.515,327.935 								"/>
							</g>
							<g>
								<defs>
									<polygon id="SVGID_21_" points="428.677,327.93 419.457,327.93 412.362,327.93 391.788,348.067 415.84,349.467 
										416.03,349.478 446.171,347.684 									"/>
								</defs>
								<clipPath id="SVGID_22_">
									<use xlink:href="#SVGID_21_"  overflow="visible"/>
								</clipPath>
								<polygon clip-path="url(#SVGID_22_)" fill="#A3A5A6" points="431.678,315.231 421.252,315.231 415.106,315.231 
									412.952,315.231 393.585,335.369 400.555,335.773 417.634,336.768 417.826,336.779 447.969,334.982 								"/>
							</g>
						</g>
						<g>
							<g>
								<polygon fill="#307F00" points="419.419,313.898 416.093,333.695 416.269,333.707 437.423,332.446 425.287,313.898 								
									"/>
								<polygon fill="#3C8600" points="427.895,313.898 425.287,313.898 437.423,332.446 443.978,332.056 								"/>
								<polygon fill="#296A00" points="419.419,313.898 414.876,313.898 400.394,332.782 416.093,333.695 								"/>
								<polygon fill="#0B4100" points="412.897,313.898 393.983,332.41 400.394,332.782 414.876,313.898 								"/>
							</g>
							<g>
								<defs>
									<polygon id="SVGID_23_" points="427.895,313.893 419.419,313.893 412.897,313.893 393.983,332.404 416.093,333.69 
										416.269,333.702 443.978,332.051 									"/>
								</defs>
								<clipPath id="SVGID_24_">
									<use xlink:href="#SVGID_23_"  overflow="visible"/>
								</clipPath>
								<polygon clip-path="url(#SVGID_24_)" fill="#A3A5A6" points="430.653,302.219 421.069,302.219 415.421,302.219 
									413.439,302.219 395.636,320.732 402.043,321.104 417.744,322.018 417.921,322.028 445.63,320.378 								"/>
							</g>
						</g>
						<g>
							<polygon fill="#0B4100" points="397.481,317.538 397.486,317.538 397.481,317.542 402.993,317.864 404.667,317.962 
								419.31,287.732 409.107,304.582 							"/>
							<polygon fill="#296A00" points="404.667,317.962 414.317,318.522 419.471,287.508 419.31,287.732 							"/>
							<polygon fill="#307F00" points="419.471,287.508 414.317,318.522 416.497,318.649 416.648,318.658 430.479,317.835 
								419.666,287.241 							"/>
							<polygon fill="#3C8600" points="440.478,317.234 440.48,317.234 428.179,303.979 419.722,287.164 419.666,287.241 
								430.479,317.835 440.48,317.239 							"/>
						</g>
					</g>
					<g>
						<g>
							<g>
								<polygon fill="#3C8600" points="484.476,387.037 462.752,366.722 455.686,366.722 473.382,387.697 								"/>
								<polygon fill="#307F00" points="455.686,366.722 448.847,366.722 444.023,389.414 444.278,389.432 473.382,387.697 								
									"/>
								<polygon fill="#296A00" points="448.847,366.722 441.811,366.722 423.517,388.223 444.023,389.414 								"/>
								<polygon fill="#0B4100" points="437.779,366.722 411.95,387.549 423.517,388.223 441.811,366.722 								"/>
							</g>
							<g>
								<defs>
									<polygon id="SVGID_25_" points="462.752,366.722 448.847,366.722 437.779,366.722 411.95,387.549 444.023,389.414 
										444.278,389.432 484.476,387.037 									"/>
								</defs>
								<clipPath id="SVGID_26_">
									<use xlink:href="#SVGID_25_"  overflow="visible"/>
								</clipPath>
								<polygon clip-path="url(#SVGID_26_)" fill="#A3A5A6" points="465.147,349.787 451.243,349.787 443.046,349.787 
									440.173,349.787 414.347,376.642 423.64,377.184 446.419,378.51 446.674,378.523 486.871,376.129 								"/>
							</g>
						</g>
						<g>
							<g>
								<polygon fill="#307F00" points="448.741,351.337 444.724,375.267 444.935,375.281 470.231,373.775 457.393,351.337 								
									"/>
								<polygon fill="#3C8600" points="460.328,351.337 457.393,351.337 470.231,373.775 478.429,373.285 								"/>
								<polygon fill="#296A00" points="448.741,351.337 441.912,351.337 425.743,374.166 444.724,375.267 								"/>
								<polygon fill="#0B4100" points="439.519,351.337 417.997,373.713 425.743,374.166 441.912,351.337 								"/>
							</g>
							<g>
								<defs>
									<polygon id="SVGID_27_" points="460.328,351.33 448.741,351.33 439.519,351.33 417.997,373.707 444.724,375.262 
										444.935,375.273 478.429,373.281 									"/>
								</defs>
								<clipPath id="SVGID_28_">
									<use xlink:href="#SVGID_27_"  overflow="visible"/>
								</clipPath>
								<polygon clip-path="url(#SVGID_28_)" fill="#A3A5A6" points="462.323,337.22 450.737,337.22 443.907,337.22 441.515,337.22 
									419.992,359.596 427.738,360.049 446.719,361.151 446.931,361.164 480.424,359.169 								"/>
							</g>
						</g>
						<g>
							<g>
								<polygon fill="#3C8600" points="457.91,337.239 455.346,337.239 466.993,357.494 475.403,356.991 								"/>
								<polygon fill="#307F00" points="448.688,337.239 445.071,358.777 445.263,358.789 466.993,357.494 455.346,337.239 								
									"/>
								<polygon fill="#296A00" points="448.688,337.239 443.747,337.239 427.991,357.783 445.071,358.777 								"/>
								<polygon fill="#0B4100" points="441.596,337.239 421.021,357.378 427.991,357.783 443.747,337.239 								"/>
							</g>
							<g>
								<defs>
									<polygon id="SVGID_29_" points="457.91,337.235 448.69,337.235 441.596,337.235 421.021,357.372 445.072,358.771 
										445.263,358.783 475.403,356.987 									"/>
								</defs>
								<clipPath id="SVGID_30_">
									<use xlink:href="#SVGID_29_"  overflow="visible"/>
								</clipPath>
								<polygon clip-path="url(#SVGID_30_)" fill="#A3A5A6" points="460.911,324.536 450.485,324.536 444.339,324.536 
									442.185,324.536 422.817,344.675 429.788,345.079 446.868,346.073 447.06,346.084 477.202,344.288 								"/>
							</g>
						</g>
						<g>
							<g>
								<polygon fill="#307F00" points="448.651,323.202 445.325,343.001 445.502,343.012 466.657,341.752 454.52,323.202 								
									"/>
								<polygon fill="#3C8600" points="457.128,323.202 454.52,323.202 466.657,341.752 473.211,341.361 								"/>
								<polygon fill="#296A00" points="448.651,323.202 444.11,323.202 429.626,342.087 445.325,343.001 								"/>
								<polygon fill="#0B4100" points="442.13,323.202 423.216,341.715 429.626,342.087 444.11,323.202 								"/>
							</g>
							<g>
								<defs>
									<polygon id="SVGID_31_" points="457.128,323.198 448.652,323.198 442.13,323.198 423.216,341.709 445.326,342.996 
										445.502,343.006 473.211,341.354 									"/>
								</defs>
								<clipPath id="SVGID_32_">
									<use xlink:href="#SVGID_31_"  overflow="visible"/>
								</clipPath>
								<polygon clip-path="url(#SVGID_32_)" fill="#A3A5A6" points="459.887,311.524 450.304,311.524 444.653,311.524 
									442.673,311.524 424.868,330.037 431.275,330.409 446.978,331.323 447.153,331.332 474.862,329.682 								"/>
							</g>
						</g>
						<g>
							<polygon fill="#0B4100" points="426.714,326.843 426.719,326.843 426.714,326.848 432.226,327.169 433.899,327.267 
								448.542,297.037 438.34,313.887 							"/>
							<polygon fill="#296A00" points="433.899,327.267 443.551,327.827 448.704,296.812 448.542,297.037 							"/>
							<polygon fill="#307F00" points="448.704,296.812 443.551,327.827 445.729,327.954 445.882,327.964 459.712,327.141 
								448.899,296.545 							"/>
							<polygon fill="#3C8600" points="469.71,326.538 469.714,326.538 457.411,313.283 448.954,296.468 448.899,296.545 
								459.712,327.141 469.714,326.544 							"/>
						</g>
					</g>
					<g>
						<g>
							<g>
								<polygon fill="#499300" points="432.476,403.477 408.094,380.676 400.163,380.676 420.022,404.219 								"/>
								<polygon fill="#3D8C00" points="400.163,380.676 392.487,380.676 387.073,406.146 387.359,406.166 420.022,404.219 								
									"/>
								<polygon fill="#367700" points="392.487,380.676 384.589,380.676 364.058,404.809 387.073,406.146 								"/>
								<polygon fill="#184E00" points="380.065,380.676 351.075,404.053 364.058,404.809 384.589,380.676 								"/>
							</g>
							<g>
								<defs>
									<polygon id="SVGID_33_" points="408.094,380.676 392.487,380.676 380.065,380.676 351.075,404.053 387.073,406.146 
										387.359,406.166 432.476,403.477 									"/>
								</defs>
								<clipPath id="SVGID_34_">
									<use xlink:href="#SVGID_33_"  overflow="visible"/>
								</clipPath>
								<polygon clip-path="url(#SVGID_34_)" fill="#B0B2B3" points="410.782,361.671 395.177,361.671 385.976,361.671 
									382.751,361.671 353.765,391.812 364.196,392.42 389.762,393.906 390.048,393.924 435.163,391.236 								"/>
							</g>
						</g>
						<g>
							<g>
								<polygon fill="#3D8C00" points="392.368,363.41 387.858,390.27 388.095,390.283 416.487,388.594 402.078,363.41 								"/>
								<polygon fill="#499300" points="405.372,363.41 402.078,363.41 416.487,388.594 425.688,388.045 								"/>
								<polygon fill="#367700" points="392.368,363.41 384.703,363.41 366.556,389.031 387.858,390.27 								"/>
								<polygon fill="#184E00" points="382.017,363.41 357.862,388.525 366.556,389.031 384.703,363.41 								"/>
							</g>
							<g>
								<defs>
									<polygon id="SVGID_35_" points="405.372,363.402 392.368,363.402 382.017,363.402 357.862,388.517 387.858,390.264 
										388.095,390.275 425.688,388.037 									"/>
								</defs>
								<clipPath id="SVGID_36_">
									<use xlink:href="#SVGID_35_"  overflow="visible"/>
								</clipPath>
								<polygon clip-path="url(#SVGID_36_)" fill="#B0B2B3" points="407.612,347.566 394.607,347.566 386.942,347.566 
									384.257,347.566 360.103,372.682 368.796,373.188 390.098,374.426 390.335,374.441 427.929,372.201 								"/>
							</g>
						</g>
						<g>
							<g>
								<polygon fill="#499300" points="402.658,347.588 399.78,347.588 412.854,370.321 422.294,369.758 								"/>
								<polygon fill="#3D8C00" points="392.31,347.588 388.249,371.762 388.464,371.775 412.854,370.321 399.78,347.588 								
									"/>
								<polygon fill="#367700" points="392.31,347.588 386.764,347.588 369.079,370.646 388.249,371.762 								"/>
								<polygon fill="#184E00" points="384.348,347.588 361.257,370.19 369.079,370.646 386.764,347.588 								"/>
							</g>
							<g>
								<defs>
									<polygon id="SVGID_37_" points="402.659,347.582 392.311,347.582 384.348,347.582 361.257,370.183 388.251,371.754 
										388.464,371.767 422.294,369.752 									"/>
								</defs>
								<clipPath id="SVGID_38_">
									<use xlink:href="#SVGID_37_"  overflow="visible"/>
								</clipPath>
								<polygon clip-path="url(#SVGID_38_)" fill="#B0B2B3" points="406.026,333.33 394.325,333.33 387.427,333.33 385.009,333.33 
									363.272,355.933 371.096,356.387 390.266,357.502 390.48,357.516 424.31,355.5 								"/>
							</g>
						</g>
						<g>
							<g>
								<polygon fill="#3D8C00" points="392.267,331.834 388.534,354.054 388.732,354.066 412.475,352.652 398.853,331.834 								
									"/>
								<polygon fill="#499300" points="401.78,331.834 398.853,331.834 412.475,352.652 419.831,352.213 								"/>
								<polygon fill="#367700" points="392.267,331.834 387.17,331.834 370.913,353.028 388.534,354.054 								"/>
								<polygon fill="#184E00" points="384.948,331.834 363.72,352.61 370.913,353.028 387.17,331.834 								"/>
							</g>
							<g>
								<defs>
									<polygon id="SVGID_39_" points="401.782,331.829 392.269,331.829 384.948,331.829 363.72,352.603 388.536,354.049 
										388.732,354.06 419.831,352.207 									"/>
								</defs>
								<clipPath id="SVGID_40_">
									<use xlink:href="#SVGID_39_"  overflow="visible"/>
								</clipPath>
								<polygon clip-path="url(#SVGID_40_)" fill="#B0B2B3" points="404.877,318.727 394.12,318.727 387.78,318.727 
									385.557,318.727 365.575,339.504 372.766,339.922 390.389,340.947 390.587,340.958 421.685,339.105 								"/>
							</g>
						</g>
						<g>
							<polygon fill="#184E00" points="367.646,335.919 367.651,335.919 367.646,335.924 373.833,336.285 375.711,336.393 
								392.144,302.466 380.694,321.378 							"/>
							<polygon fill="#367700" points="375.711,336.393 386.542,337.023 392.326,302.214 392.144,302.466 							"/>
							<polygon fill="#3D8C00" points="392.326,302.214 386.542,337.023 388.987,337.166 389.158,337.176 404.682,336.252 
								392.546,301.915 							"/>
							<polygon fill="#499300" points="415.902,335.577 415.906,335.577 402.099,320.701 392.607,301.828 392.546,301.915 
								404.682,336.252 415.906,335.583 							"/>
						</g>
					</g>
					<g>
						<g>
							<g>
								<polygon fill="#499300" points="175.778,422 149.984,397.879 141.594,397.879 162.605,422.785 								"/>
								<polygon fill="#3D8C00" points="141.594,397.879 133.474,397.879 127.746,424.824 128.049,424.844 162.605,422.785 								
									"/>
								<polygon fill="#367700" points="133.474,397.879 125.118,397.879 103.396,423.408 127.746,424.824 								"/>
								<polygon fill="#184E00" points="120.332,397.879 89.663,422.609 103.396,423.408 125.118,397.879 								"/>
							</g>
							<g>
								<defs>
									<polygon id="SVGID_41_" points="149.984,397.879 133.474,397.879 120.332,397.879 89.663,422.609 127.746,424.824 
										128.049,424.844 175.778,422 									"/>
								</defs>
								<clipPath id="SVGID_42_">
									<use xlink:href="#SVGID_41_"  overflow="visible"/>
								</clipPath>
								<polygon clip-path="url(#SVGID_42_)" fill="#B0B2B3" points="152.829,377.771 136.318,377.771 126.585,377.771 
									123.174,377.771 92.507,409.658 103.544,410.301 130.59,411.875 130.894,411.892 178.623,409.049 								"/>
							</g>
						</g>
						<g>
							<g>
								<polygon fill="#3D8C00" points="133.348,379.611 128.576,408.027 128.827,408.043 158.865,406.254 143.62,379.611 								
									"/>
								<polygon fill="#499300" points="147.105,379.611 143.62,379.611 158.865,406.254 168.598,405.672 								"/>
								<polygon fill="#367700" points="133.348,379.611 125.239,379.611 106.04,406.717 128.576,408.027 								"/>
								<polygon fill="#184E00" points="122.397,379.611 96.843,406.182 106.04,406.717 125.239,379.611 								"/>
							</g>
							<g>
								<defs>
									<polygon id="SVGID_43_" points="147.105,379.603 133.348,379.603 122.397,379.603 96.843,406.174 128.576,408.02 
										128.827,408.033 168.598,405.666 									"/>
								</defs>
								<clipPath id="SVGID_44_">
									<use xlink:href="#SVGID_43_"  overflow="visible"/>
								</clipPath>
								<polygon clip-path="url(#SVGID_44_)" fill="#B0B2B3" points="149.475,362.85 135.717,362.85 127.607,362.85 124.767,362.85 
									99.212,389.42 108.41,389.955 130.946,391.266 131.197,391.281 170.968,388.912 								"/>
							</g>
						</g>
						<g>
							<g>
								<polygon fill="#499300" points="144.234,362.873 141.189,362.873 155.02,386.922 165.007,386.328 								"/>
								<polygon fill="#3D8C00" points="133.285,362.873 128.989,388.447 129.218,388.461 155.02,386.922 141.189,362.873 								
									"/>
								<polygon fill="#367700" points="133.285,362.873 127.419,362.873 108.71,387.266 128.989,388.447 								"/>
								<polygon fill="#184E00" points="124.863,362.873 100.434,386.785 108.71,387.266 127.419,362.873 								"/>
							</g>
							<g>
								<defs>
									<polygon id="SVGID_45_" points="144.234,362.867 133.287,362.867 124.863,362.867 100.434,386.777 128.992,388.439 
										129.218,388.453 165.007,386.32 									"/>
								</defs>
								<clipPath id="SVGID_46_">
									<use xlink:href="#SVGID_45_"  overflow="visible"/>
								</clipPath>
								<polygon clip-path="url(#SVGID_46_)" fill="#B0B2B3" points="147.798,347.789 135.419,347.789 128.12,347.789 
									125.562,347.789 102.566,371.701 110.843,372.182 131.123,373.361 131.351,373.375 167.141,371.242 								"/>
							</g>
						</g>
						<g>
							<g>
								<polygon fill="#3D8C00" points="133.24,346.206 129.292,369.713 129.501,369.727 154.62,368.23 140.208,346.206 								"/>
								<polygon fill="#499300" points="143.306,346.206 140.208,346.206 154.62,368.23 162.402,367.766 								"/>
								<polygon fill="#367700" points="133.24,346.206 127.848,346.206 110.65,368.629 129.292,369.713 								"/>
								<polygon fill="#184E00" points="125.499,346.206 103.04,368.185 110.65,368.629 127.848,346.206 								"/>
							</g>
							<g>
								<defs>
									<polygon id="SVGID_47_" points="143.307,346.2 133.242,346.2 125.499,346.2 103.04,368.18 129.293,369.707 129.501,369.72 
										162.402,367.76 									"/>
								</defs>
								<clipPath id="SVGID_48_">
									<use xlink:href="#SVGID_47_"  overflow="visible"/>
								</clipPath>
								<polygon clip-path="url(#SVGID_48_)" fill="#B0B2B3" points="146.582,332.339 135.202,332.339 128.494,332.339 
									126.142,332.339 105.002,354.32 112.609,354.763 131.253,355.847 131.462,355.858 164.363,353.898 								"/>
							</g>
						</g>
						<g>
							<polygon fill="#184E00" points="107.193,350.527 107.199,350.527 107.193,350.533 113.738,350.914 115.725,351.03 
								133.11,315.137 120.998,335.143 							"/>
							<polygon fill="#367700" points="115.725,351.03 127.184,351.696 133.303,314.871 133.11,315.137 							"/>
							<polygon fill="#3D8C00" points="133.303,314.871 127.184,351.696 129.771,351.847 129.951,351.858 146.375,350.881 
								133.535,314.553 							"/>
							<polygon fill="#499300" points="158.245,350.166 158.249,350.166 143.643,334.429 133.601,314.462 133.535,314.553 
								146.375,350.881 158.249,350.172 							"/>
						</g>
					</g>
					<g>
						<g>
							<g>
								<polygon fill="#499300" points="521.806,400.818 497.424,378.017 489.493,378.017 509.353,401.56 								"/>
								<polygon fill="#3D8C00" points="489.493,378.017 481.817,378.017 476.403,403.486 476.689,403.506 509.353,401.56 								
									"/>
								<polygon fill="#367700" points="481.817,378.017 473.919,378.017 453.388,402.148 476.403,403.486 								"/>
								<polygon fill="#184E00" points="469.395,378.017 440.405,401.392 453.388,402.148 473.919,378.017 								"/>
							</g>
							<g>
								<defs>
									<polygon id="SVGID_49_" points="497.424,378.017 481.817,378.017 469.395,378.017 440.405,401.392 476.403,403.486 
										476.689,403.506 521.806,400.818 									"/>
								</defs>
								<clipPath id="SVGID_50_">
									<use xlink:href="#SVGID_49_"  overflow="visible"/>
								</clipPath>
								<polygon clip-path="url(#SVGID_50_)" fill="#B0B2B3" points="500.112,359.011 484.507,359.011 475.307,359.011 
									472.081,359.011 443.095,389.152 453.526,389.76 479.092,391.246 479.378,391.264 524.493,388.576 								"/>
							</g>
						</g>
						<g>
							<g>
								<polygon fill="#3D8C00" points="481.698,360.75 477.188,387.609 477.425,387.623 505.817,385.934 491.408,360.75 								
									"/>
								<polygon fill="#499300" points="494.702,360.75 491.408,360.75 505.817,385.934 515.019,385.385 								"/>
								<polygon fill="#367700" points="481.698,360.75 474.033,360.75 455.886,386.371 477.188,387.609 								"/>
								<polygon fill="#184E00" points="471.347,360.75 447.193,385.865 455.886,386.371 474.033,360.75 								"/>
							</g>
							<g>
								<defs>
									<polygon id="SVGID_51_" points="494.702,360.742 481.698,360.742 471.347,360.742 447.193,385.857 477.188,387.603 
										477.425,387.617 515.019,385.377 									"/>
								</defs>
								<clipPath id="SVGID_52_">
									<use xlink:href="#SVGID_51_"  overflow="visible"/>
								</clipPath>
								<polygon clip-path="url(#SVGID_52_)" fill="#B0B2B3" points="496.942,344.906 483.938,344.906 476.272,344.906 
									473.587,344.906 449.433,370.021 458.126,370.527 479.428,371.766 479.665,371.781 517.259,369.541 								"/>
							</g>
						</g>
						<g>
							<g>
								<polygon fill="#499300" points="491.988,344.929 489.11,344.929 502.185,367.661 511.624,367.098 								"/>
								<polygon fill="#3D8C00" points="481.64,344.929 477.579,369.1 477.794,369.114 502.185,367.661 489.11,344.929 								"/>
								<polygon fill="#367700" points="481.64,344.929 476.094,344.929 458.409,367.985 477.579,369.1 								"/>
								<polygon fill="#184E00" points="473.678,344.929 450.587,367.531 458.409,367.985 476.094,344.929 								"/>
							</g>
							<g>
								<defs>
									<polygon id="SVGID_53_" points="491.989,344.923 481.641,344.923 473.678,344.923 450.587,367.522 477.581,369.094 
										477.794,369.106 511.624,367.092 									"/>
								</defs>
								<clipPath id="SVGID_54_">
									<use xlink:href="#SVGID_53_"  overflow="visible"/>
								</clipPath>
								<polygon clip-path="url(#SVGID_54_)" fill="#B0B2B3" points="495.357,330.67 483.655,330.67 476.757,330.67 474.339,330.67 
									452.603,353.272 460.426,353.727 479.596,354.843 479.811,354.855 513.64,352.84 								"/>
							</g>
						</g>
						<g>
							<g>
								<polygon fill="#3D8C00" points="481.597,329.174 477.864,351.393 478.062,351.406 501.805,349.992 488.184,329.174 								
									"/>
								<polygon fill="#499300" points="491.11,329.174 488.184,329.174 501.805,349.992 509.161,349.554 								"/>
								<polygon fill="#367700" points="481.597,329.174 476.5,329.174 460.243,350.368 477.864,351.393 								"/>
								<polygon fill="#184E00" points="474.279,329.174 453.05,349.95 460.243,350.368 476.5,329.174 								"/>
							</g>
							<g>
								<defs>
									<polygon id="SVGID_55_" points="491.112,329.169 481.599,329.169 474.279,329.169 453.05,349.945 477.866,351.389 
										478.062,351.4 509.161,349.547 									"/>
								</defs>
								<clipPath id="SVGID_56_">
									<use xlink:href="#SVGID_55_"  overflow="visible"/>
								</clipPath>
								<polygon clip-path="url(#SVGID_56_)" fill="#B0B2B3" points="494.208,316.066 483.45,316.066 477.11,316.066 
									474.887,316.066 454.905,336.844 462.096,337.262 479.719,338.287 479.917,338.298 511.015,336.445 								"/>
							</g>
						</g>
						<g>
							<polygon fill="#184E00" points="456.977,333.259 456.981,333.259 456.977,333.265 463.163,333.625 465.041,333.733 
								481.474,299.806 470.024,318.718 							"/>
							<polygon fill="#367700" points="465.041,333.733 475.872,334.363 481.656,299.555 481.474,299.806 							"/>
							<polygon fill="#3D8C00" points="481.656,299.555 475.872,334.363 478.317,334.506 478.488,334.517 494.013,333.592 
								481.876,299.255 							"/>
							<polygon fill="#499300" points="505.232,332.917 505.236,332.917 491.429,318.042 481.938,299.168 481.876,299.255 
								494.013,333.592 505.236,332.924 							"/>
						</g>
					</g>
				</g>
				<path fill="#5E5E5E" d="M331.131,321.223"/>
				<polygon fill="#89C400" points="510.917,381.581 549.547,410.248 491.408,422.858 				"/>
				<polygon fill="#99D100" points="491.408,422.858 491.714,434.581 359.994,471.629 324.5,435.748 				"/>
				<polygon fill="#9BD700" points="336.463,416.239 324.5,435.748 491.408,422.858 423.217,422.858 393.983,419.669 				"/>
				<polygon fill="#A3DF01" points="324.5,435.748 251.128,477.244 361.258,471.564 				"/>
				<polygon fill="#A8E700" points="143.721,430.081 268.75,405.243 237.894,441.488 206.961,473.263 166.613,447.244 				"/>
				<polygon fill="#99D100" points="173.051,439.748 206.961,473.263 105.194,461.465 67.995,441.488 				"/>
				<polygon fill="#99D100" points="251.128,477.244 206.961,473.263 268.75,405.243 324.5,435.748 283.853,475.557 				"/>
				<polygon fill="#89C400" points="51.165,423.407 112.355,412.879 173.051,439.748 67.995,441.488 				"/>
				<polygon fill="#88B704" points="268.75,405.243 347,395.498 358.849,404.505 336.463,416.239 324.5,435.748 				"/>
				<g>
					<polygon fill="#A8E700" points="509.162,385.725 491.408,422.858 424.382,423.08 397.738,378.802 448.596,386.219 					"/>
					<polygon fill="#547800" points="397.738,378.802 387.673,389.396 387.673,423.08 424.382,423.08 					"/>
					<polygon fill="#89C400" points="387.673,389.396 336.463,416.239 387.673,423.08 402.196,415.23 					"/>
				</g>
				<g>
					<g>
						<polygon fill="#47422C" points="267.626,419.121 263.85,438.322 278.352,438.322 281.096,419.121 						"/>
						<polygon fill="#6D604D" points="300.268,419.121 281.096,419.121 278.352,438.322 302.132,438.322 						"/>
						<g>
							<g>
								<g>
									<polygon fill="#68B208" points="349.113,420.388 310.744,384.506 298.263,384.506 329.518,421.556 									"/>
									<polygon fill="#5CAB00" points="298.263,384.506 286.185,384.506 277.663,424.589 278.115,424.618 329.518,421.556 
																			"/>
									<polygon fill="#559602" points="286.185,384.506 273.755,384.506 241.444,422.481 277.663,424.589 									"/>
									<polygon fill="#376D00" points="266.636,384.506 221.014,421.294 241.444,422.481 273.755,384.506 									"/>
								</g>
								<g>
									<defs>
										<polygon id="SVGID_57_" points="310.744,384.506 286.185,384.506 266.636,384.506 221.014,421.294 277.663,424.589 
											278.115,424.618 349.113,420.388 										"/>
									</defs>
									<clipPath id="SVGID_58_">
										<use xlink:href="#SVGID_57_"  overflow="visible"/>
									</clipPath>
									<polygon clip-path="url(#SVGID_58_)" fill="#CFD1D2" points="314.975,354.597 290.417,354.597 275.938,354.597 
										270.861,354.597 225.245,402.029 241.663,402.985 281.895,405.327 282.345,405.352 353.344,401.123 									"/>
								</g>
							</g>
							<g>
								<g>
									<polygon fill="#5CAB00" points="285.998,357.334 278.898,399.603 279.273,399.626 323.953,396.965 301.277,357.334 
																			"/>
									<polygon fill="#68B208" points="306.46,357.334 301.277,357.334 323.953,396.965 338.432,396.102 									"/>
									<polygon fill="#559602" points="285.998,357.334 273.933,357.334 245.376,397.655 278.898,399.603 									"/>
									<polygon fill="#376D00" points="269.707,357.334 231.695,396.856 245.376,397.655 273.933,357.334 									"/>
								</g>
								<g>
									<defs>
										<polygon id="SVGID_59_" points="306.46,357.322 285.998,357.322 269.707,357.322 231.695,396.844 278.898,399.593 
											279.273,399.614 338.432,396.091 										"/>
									</defs>
									<clipPath id="SVGID_60_">
										<use xlink:href="#SVGID_59_"  overflow="visible"/>
									</clipPath>
									<polygon clip-path="url(#SVGID_60_)" fill="#CFD1D2" points="309.984,332.4 289.521,332.4 277.458,332.4 273.233,332.4 
										235.219,371.923 248.9,372.721 282.423,374.669 282.798,374.691 341.957,371.169 									"/>
								</g>
							</g>
							<g>
								<g>
									<polygon fill="#68B208" points="302.19,332.436 297.661,332.436 318.236,368.21 333.09,367.324 									"/>
									<polygon fill="#5CAB00" points="285.904,332.436 279.513,370.477 279.853,370.497 318.236,368.21 297.661,332.436 
																			"/>
									<polygon fill="#559602" points="285.904,332.436 277.178,332.436 249.347,368.721 279.513,370.477 									"/>
									<polygon fill="#376D00" points="273.374,332.436 237.037,368.005 249.347,368.721 277.178,332.436 									"/>
								</g>
								<g>
									<defs>
										<polygon id="SVGID_61_" points="302.191,332.426 285.906,332.426 273.374,332.426 237.037,367.993 279.517,370.465 
											279.853,370.486 333.09,367.315 										"/>
									</defs>
									<clipPath id="SVGID_62_">
										<use xlink:href="#SVGID_61_"  overflow="visible"/>
									</clipPath>
									<polygon clip-path="url(#SVGID_62_)" fill="#CFD1D2" points="307.492,309.999 289.075,309.999 278.222,309.999 
										274.415,309.999 240.209,345.566 252.52,346.282 282.688,348.038 283.024,348.057 336.265,344.884 									"/>
								</g>
							</g>
							<g>
								<g>
									<polygon fill="#5CAB00" points="285.837,307.643 279.964,342.611 280.274,342.63 317.638,340.405 296.202,307.643 
																			"/>
									<polygon fill="#68B208" points="300.81,307.643 296.202,307.643 317.638,340.405 329.216,339.715 									"/>
									<polygon fill="#559602" points="285.837,307.643 277.815,307.643 252.233,340.996 279.964,342.611 									"/>
									<polygon fill="#376D00" points="274.321,307.643 240.914,340.339 252.233,340.996 277.815,307.643 									"/>
								</g>
								<g>
									<defs>
										<polygon id="SVGID_63_" points="300.811,307.635 285.839,307.635 274.321,307.635 240.914,340.329 279.966,342.602 
											280.274,342.621 329.216,339.703 										"/>
									</defs>
									<clipPath id="SVGID_64_">
										<use xlink:href="#SVGID_63_"  overflow="visible"/>
									</clipPath>
									<polygon clip-path="url(#SVGID_64_)" fill="#CFD1D2" points="305.683,287.016 288.754,287.016 278.776,287.016 
										275.277,287.016 243.831,319.714 255.148,320.37 282.881,321.984 283.191,322.002 332.133,319.086 									"/>
								</g>
							</g>
							<g>
								<polygon fill="#376D00" points="247.092,314.071 247.1,314.071 247.092,314.079 256.826,314.647 259.782,314.82 
									285.644,261.427 267.626,291.188 								"/>
								<polygon fill="#559602" points="259.782,314.82 276.828,315.81 285.93,261.031 285.644,261.427 								"/>
								<polygon fill="#5CAB00" points="285.93,261.031 276.828,315.81 280.677,316.034 280.944,316.05 305.375,314.596 
									286.275,260.559 								"/>
								<polygon fill="#68B208" points="323.032,313.535 323.039,313.535 302.479,287.786 286.373,260.424 286.275,260.559 
									305.375,314.596 323.039,313.543 								"/>
							</g>
						</g>
					</g>
					<polygon fill="#5E8703" points="287.055,439.597 280.924,434.914 286.156,433.288 285.295,427.241 292.886,434.914 
						299.121,428.258 301.805,434.914 306.81,426.248 306.81,434.915 311.482,432.201 309.059,439.457 					"/>
				</g>
				<g>
					<g>
						<g>
							<polygon fill="#393833" points="117.002,444.987 110.123,446.114 104.7,434.853 112.521,426.6 120.03,418.151 
								126.773,425.615 							"/>
							<path fill="#616556" d="M117.947,446.114c0,0-3.668-4.307-3.668-4.785c0-0.479,13.078-16.426,13.078-16.426l22.327,6.857
								v14.353H117.947z"/>
							<polygon fill="#8B8C7E" points="148.408,440.055 153.75,438.363 148.886,423.992 132.649,411.268 120.03,418.151 
								126.312,426.18 							"/>
							<polygon fill="#79776B" points="140.274,437.565 147.771,434.212 156.009,435.509 157.498,445.38 152.713,446.114 							"/>
							<polygon fill="#373737" points="142.765,446.114 140.274,437.565 150.065,439.322 152.713,446.114 							"/>
						</g>
					</g>
					<g>
						<polygon fill="#5E8703" points="205.787,436.463 201.936,433.522 205.222,432.502 204.681,428.704 209.449,433.522 
							213.364,429.344 215.05,433.522 218.193,428.08 218.193,433.522 221.125,431.818 219.604,436.376 						"/>
						<polygon fill="#5E8703" points="171.996,417.07 168.145,414.13 171.431,413.109 170.89,409.311 175.658,414.13 
							179.573,409.951 181.259,414.13 184.402,408.688 184.402,414.13 187.334,412.426 185.813,416.983 						"/>
						<polygon fill="#5E8703" points="105.595,446.114 101.745,443.174 105.031,442.153 104.489,438.355 109.257,443.174 
							113.172,438.995 114.858,443.174 118.001,437.731 118.001,443.174 120.935,441.47 119.413,446.028 						"/>
						<polygon fill="#5E8703" points="94.942,447.224 91.093,444.283 94.378,443.263 93.837,439.466 98.604,444.283 102.52,440.103 
							104.205,444.283 107.348,438.842 107.348,444.283 110.282,442.579 108.76,447.137 						"/>
					</g>
				</g>
			</g>
		</g>
		<g>
			<polygon fill="#2B2636" points="222.894,663.913 280.101,672.415 313.814,661.052 			"/>
			<g>
				<polygon fill="#4F433B" points="313.814,661.052 368.807,653.898 290.312,639.814 				"/>
				<polygon fill="#3D3333" points="0,409.222 19.131,446.889 71.88,441.415 34.213,428.415 				"/>
				<polygon fill="#4F433B" points="19.131,446.889 133.214,458.081 71.88,441.415 				"/>
				<polygon fill="#635031" points="19.131,446.889 75.113,527.84 133.214,458.081 				"/>
				<polygon fill="#4F433B" points="75.113,527.84 129.804,557.398 168.504,529.424 				"/>
				<polygon fill="#775F36" points="133.214,458.081 168.504,529.424 75.113,527.84 				"/>
				<polygon fill="#4F433B" points="205.219,458.779 185.672,498.663 168.504,529.424 133.214,458.081 				"/>
				<polygon fill="#635031" points="129.804,557.398 147.604,608.998 201.433,613.838 168.504,529.424 				"/>
				<polygon fill="#4F433B" points="147.604,608.998 222.894,663.913 264.362,613.838 				"/>
				<polygon fill="#635031" points="205.172,458.779 185.213,499.748 300.88,459.914 				"/>
				<polygon fill="#635031" points="237.179,517.263 185.672,498.663 205.188,458.764 				"/>
				<polygon fill="#3D3333" points="237.179,517.263 168.504,529.424 185.672,498.663 				"/>
				<polygon fill="#4F433B" points="237.179,517.263 200.252,611.757 168.504,529.424 				"/>
				<polygon fill="#635031" points="218.88,561.081 283.853,550.886 283.888,550.675 236.951,518.163 				"/>
				<polygon fill="#775F36" points="219.88,487.081 237.047,517.748 236.951,518.163 283.888,550.675 298.547,459.748 				"/>
				<polygon fill="#3D3333" points="367.645,461.496 282.853,550.886 274.797,480.748 299.38,459.914 				"/>
				<polygon fill="#4F433B" points="314.266,513.529 454.297,445.748 359.797,462.498 				"/>
				<polygon fill="#2B2636" points="283.853,550.886 200.252,611.757 218.88,561.081 				"/>
				<polygon fill="#3D3333" points="264.362,613.838 313.814,661.052 222.894,663.913 				"/>
				<polygon fill="#2B2636" points="547.963,410.214 538.047,446.248 496.857,477.244 				"/>
				<polygon fill="#635031" points="521.297,456.998 514.38,530.332 434.62,526.938 				"/>
				<polygon fill="#2D3035" points="491.881,434.415 496.908,477.244 547.963,410.214 				"/>
				<polygon fill="#4F433B" points="454.297,445.748 496.908,477.244 491.881,434.415 				"/>
				<polygon fill="#3D3333" points="399.674,470.975 496.908,477.244 454.297,445.748 				"/>
				<polygon fill="#635031" points="314.078,513.56 399.674,470.975 501.908,477.244 				"/>
				<polygon fill="#775F36" points="434.62,526.938 314.203,513.498 497.213,476.749 				"/>
				<polygon fill="#635031" points="282.755,551.04 388.297,521.499 314.131,513.498 				"/>
				<polygon fill="#635031" points="282.755,551.04 264.362,613.838 196.425,611.757 				"/>
				<polygon fill="#635031" points="434.62,526.938 374.529,554.217 333.859,536.685 384.217,520.84 				"/>
				<polygon fill="#2B2636" points="498.672,529.029 468.242,589.515 387.534,612.521 441.059,564.51 				"/>
				<polygon fill="#635031" points="452.585,593.977 368.807,653.898 290.312,639.814 315.833,631.896 				"/>
				<polygon fill="#775F36" points="282.755,551.04 316.262,631.896 290.312,639.814 264.362,613.838 				"/>
				<polygon fill="#4F433B" points="333.922,536.623 316.262,631.896 282.755,551.04 				"/>
				<polygon fill="#3D3333" points="374.529,554.217 316.262,631.896 333.859,536.81 				"/>
				<polygon fill="#4F433B" points="374.529,554.217 406.584,595.433 388.359,612.521 316.262,631.896 				"/>
				<polygon fill="#3D3333" points="434.62,526.938 406.584,595.433 374.529,554.217 				"/>
				<polygon fill="#3D3333" points="498.672,529.029 438.423,566.875 434.62,526.938 				"/>
				<polygon fill="#4F433B" points="406.584,595.433 434.62,526.938 438.423,566.875 				"/>
			</g>
		</g>
	</g>
</g>
</svg>
