<?xml version="1.0" encoding="utf-8"?><!DOCTYPE svg PUBLIC "-//W3C//DTD SVG 1.1//EN" "http://www.w3.org/Graphics/SVG/1.1/DTD/svg11.dtd"><svg version="1.1" baseProfile="full" xmlns="http://www.w3.org/2000/svg" xmlns:xlink="http://www.w3.org/1999/xlink" xmlns:ev="http://www.w3.org/2001/xml-events"   height="172px"   width="302px" ><path stroke="rgb( 14, 5, 10 )" stroke-width="0px" stroke-linecap="butt" stroke-linejoin="miter" fill="rgb( 89, 158, 167 )" d="M302,96.347 C302,96.347 203.005,132 151,117.996 C98.995,132 0,96.347 0,96.347 C0,96.347 28.637,93.097 40.201,84.538 C28.879,72.664 21.571,56 21.571,56 C21.571,56 76.066,74.934 151,68.793 C225.934,74.934 280.429,56 280.429,56 C280.429,56 273.121,72.664 261.799,84.538 C273.363,93.097 302,96.347 302,96.347 Z "/><path stroke="rgb( 14, 5, 10 )" stroke-width="0px" stroke-linecap="butt" stroke-linejoin="miter" fill="rgb( 216, 85, 63 )" d="M55,73 C55,73 243,73 243,73 C243,73 243,110 243,110 C243,110 55,110 55,110 C55,110 55,73 55,73 Z "/><path stroke="rgb( 14, 5, 10 )" stroke-width="0px" stroke-linecap="butt" stroke-linejoin="miter" fill="rgb( 54, 111, 124 )" d="M86,17 C86,17 104.287,0 147.926,0 C192.281,0 212,17 212,17 C212,17 212.185,38.075 237,38.333 C237,66.39 237,104.341 237,132.637 C211.582,132.637 212,155 212,155 C212,155 192.057,172 147.592,172 C104.067,172 87,155 87,155 C87,155 85.889,132.958 61,132.958 C61,104.38 61,65.824 61,37.591 C85.783,37.591 86,17 86,17 Z "/><path stroke="rgb( 14, 5, 10 )" stroke-width="0px" stroke-linecap="butt" stroke-linejoin="miter" fill="rgb( 255, 255, 255 )" d="M204.841,147.779 C204.841,147.779 187.164,163 147.752,163 C109.173,163 94.045,147.779 94.045,147.779 C94.045,147.779 93.061,128.044 71,128.044 C71,102.456 71,67.935 71,42.657 C92.966,42.657 93.159,24.221 93.159,24.221 C93.159,24.221 109.368,9 148.048,9 C187.363,9 204.841,24.221 204.841,24.221 C204.841,24.221 205.005,43.09 227,43.322 C227,68.443 227,102.422 227,127.756 C204.47,127.756 204.841,147.779 204.841,147.779 ZM224,45.984 C202.851,43.515 202.693,26.628 202.693,26.628 C202.693,26.628 185.887,12 148.084,12 C110.892,12 95.307,26.628 95.307,26.628 C95.307,26.628 95.95,43.11 74,45.346 C74,69.639 74,100.815 74,125.406 C93.223,125.396 96.159,145.372 96.159,145.372 C96.159,145.372 110.704,160 147.8,160 C185.696,160 202.693,145.372 202.693,145.372 C202.693,145.372 203.337,127.043 224,125.129 C224,100.782 224,70.127 224,45.984 Z "/><path stroke="rgb( 14, 5, 10 )" stroke-width="0px" stroke-linecap="butt" stroke-linejoin="miter" fill="rgb( 107, 181, 191 )" d="M53.921,73 C151.196,116.749 244.079,73 244.079,73 C244.079,73 262,117.816 262,117.816 C262,117.816 147.44,164 36,117.816 C47.871,87.53 50.625,80.742 53.921,73 Z "/></svg>