<?xml version="1.0" encoding="iso-8859-1"?>
<!-- Generator: Adobe Illustrator 17.0.0, SVG Export Plug-In . SVG Version: 6.00 Build 0)  -->
<!DOCTYPE svg PUBLIC "-//W3C//DTD SVG 1.1//EN" "http://www.w3.org/Graphics/SVG/1.1/DTD/svg11.dtd">
<svg version="1.1" id="Items" xmlns="http://www.w3.org/2000/svg" xmlns:xlink="http://www.w3.org/1999/xlink" x="0px" y="0px"
	 width="204.233px" height="25.646px" viewBox="0 0 204.233 25.646" style="enable-background:new 0 0 204.233 25.646;"
	 xml:space="preserve">
<g id="Mechanical_pencil_1_">
	<path style="opacity:0.1;" d="M124.742,24.972l0.839-0.015c0.001-0.001,0.001-0.002,0.001-0.003l64.372-1.156
		c0.391,0,0.711-0.32,0.711-0.71v0.119h0.904v-0.444h1.57v-1.653l0.785,0.592l0.785-0.592l0.785,0.592l0.785-0.592l0.785,0.592
		l0.785-0.592l0.785,0.592l0.785-0.592v0.056h0.785v-5.393h0.02v4.558h0.7h2.597c0.391,0,0.711-0.32,0.711-0.711v-5.288v-0.319
		v-0.853c0-0.391-0.32-0.711-0.711-0.711h-2.597h-0.7v1.564h-0.02v-2.597h-0.785v-0.014l-0.785-0.592l-0.785,0.592l-0.785-0.592
		l-0.785,0.592l-0.785-0.592l-0.785,0.592l-0.785-0.592l-0.785,0.592v-1.316h-1.57V9.646h-0.904c0-0.391-0.319-0.71-0.711-0.71
		L125.584,7.78c-0.001-0.001-0.001-0.002-0.002-0.003l-0.839-0.015c-0.251-0.403-0.698-0.674-1.206-0.674l-6.585,0
		c-0.782,0-1.422,0.64-1.422,1.422v0.556h-0.657H31.668v0.004c0,0-1.272,0.145-2.361,0.929c-0.072,0.052-0.144,0.108-0.215,0.166v0
		c0,0-5.688-0.201-7.937,0.313c-1.763,0.405-7.866,1.747-10.219,3.61c-0.251,0.196-0.396,0.52-0.479,0.867H7.808l-2.903,0.711v0.356
		H4.737H2.423v0.124v0.074v0.495h2.314h0.168v0.356l2.903,0.711c0,0,0.002,0,0.005,0h2.645c0.084,0.347,0.229,0.672,0.479,0.87
		c2.353,1.86,8.456,3.202,10.219,3.607c2.249,0.514,7.937,0.313,7.937,0.313V22.57c1.128,0.931,2.576,1.095,2.576,1.095v0.004
		h83.203h0.657v0.555c0,0.782,0.64,1.422,1.422,1.422l6.585,0C124.044,25.646,124.491,25.375,124.742,24.972z"/>
	<g>
		<g>
			<g>
				<path style="fill:#DEDEDE;" d="M201.87,8.716h-3.297v7.881h3.297c0.391,0,0.711-0.32,0.711-0.711v-6.46
					C202.58,9.035,202.261,8.716,201.87,8.716z"/>
				<path style="fill:#213B6B;" d="M30.016,5.329v0.004c0,0-1.448,0.165-2.576,1.095V6.427c0,0-5.688-0.201-7.937,0.313
					c-1.763,0.405-7.866,1.747-10.219,3.61c-0.382,0.299-0.519,0.891-0.567,1.412v0.003c-0.01,0.092-0.014,0.182-0.019,0.268
					c-0.012,0.254-0.007,0.469-0.007,0.597c0,0.412-0.055,1.773,0.592,2.285c2.353,1.86,8.456,3.202,10.219,3.607
					c2.249,0.514,7.937,0.313,7.937,0.313v-0.001c1.128,0.93,2.576,1.095,2.576,1.095v0.004h83.86V5.329H30.016z"/>
				<path style="opacity:0.1;fill:#FFFFFF;" d="M27.44,8.589v2.747c0,0-5.638-0.327-7.937-0.514
					c-2.286-0.187-10.805,1.211-10.805,1.211c0.005-0.085,0.009-0.175,0.019-0.268v-0.003c0.459-0.94,8.679-2.531,10.786-2.86
					C21.782,8.545,27.44,8.589,27.44,8.589z"/>
				<path style="opacity:0.1;" d="M124.135,4.773v15.715c0,0.268-0.073,0.519-0.206,0.732l-1.453,0.026V4.015l1.453,0.026
					C124.062,4.254,124.135,4.505,124.135,4.773z"/>
				<path style="fill:#213B6B;" d="M115.298,21.91c-0.782,0-1.422-0.64-1.422-1.422V4.773c0-0.782,0.64-1.422,1.422-1.422l6.586,0
					c0.782,0,1.422,0.64,1.422,1.422v15.715c0,0.782-0.64,1.422-1.422,1.422L115.298,21.91z"/>
				<rect x="189.014" y="5.91" style="fill:#F2F2F2;" width="0.905" height="13.561"/>
				<rect x="189.014" y="5.91" style="fill:#0F0F0F;" width="0.905" height="13.561"/>
				<path style="fill:#213B6B;" d="M122.358,21.246l65.945-1.184c0.391,0,0.71-0.32,0.71-0.71V5.91c0,0-0.001-0.004-0.001-0.006
					v-3.19c0-0.002,0.001-0.004,0.001-0.004V1.783c0-0.383-0.313-0.696-0.695-0.696l-51.297-0.465
					c-0.03-0.004-0.06-0.009-0.091-0.009h-0.925h0h-0.001c-0.382,0-0.695,0.313-0.695,0.696v0.926c0,0.003,0.001,0.006,0.001,0.009
					v0.661c0,0.382,0.313,0.695,0.696,0.695h0.925c0.369,0,0.671-0.292,0.692-0.655l49.073,0.445V5.17l-64.338-1.155V21.246z"/>
				<rect x="113.876" y="6.288" style="opacity:0.1;fill:#FFFFFF;" width="9.429" height="3.181"/>
				<polygon style="opacity:0.1;fill:#FFFFFF;" points="189.014,10.83 124.134,9.882 124.134,6.701 189.014,7.649 				"/>
				<rect x="30.016" y="7.641" style="opacity:0.1;fill:#FFFFFF;" width="83.86" height="3.181"/>
				<rect x="198.553" y="10.279" style="opacity:0.7;fill:#FFFFFF;" width="4.028" height="1.759"/>
				<rect x="198.573" y="8.716" style="opacity:0.1;" width="0.7" height="7.881"/>
			</g>
			<rect x="113.219" y="5.27" style="opacity:0.1;" width="0.657" height="14.604"/>
			<path style="opacity:0.03;" d="M30.016,12.575v-0.007V5.274c0,0-1.448,0.164-2.576,1.095v6.199v0.007v6.199
				c1.128,0.931,2.576,1.095,2.576,1.095V12.575z"/>
			<polygon style="opacity:0.1;fill:#FFFFFF;" points="30.016,10.763 27.44,11.237 27.44,8.53 30.016,7.582 			"/>
			<rect x="189.918" y="6.294" style="fill:#4D4D4D;" width="1.57" height="12.674"/>
			<rect x="197.768" y="7.623" style="fill:#4D4D4D;" width="0.785" height="9.748"/>
			<polygon style="fill:#4D4D4D;" points="193.058,17.315 192.273,17.907 191.488,17.315 191.488,7.609 192.273,7.018 
				193.058,7.609 			"/>
			<polygon style="fill:#4D4D4D;" points="194.628,17.315 193.843,17.907 193.058,17.315 193.058,7.609 193.843,7.018 
				194.628,7.609 			"/>
			<polygon style="fill:#4D4D4D;" points="196.198,17.315 195.413,17.907 194.628,17.315 194.628,7.609 195.413,7.018 
				196.198,7.609 			"/>
			<polygon style="fill:#4D4D4D;" points="197.768,17.315 196.983,17.907 196.198,17.315 196.198,7.609 196.983,7.018 
				197.768,7.609 			"/>
			<g>
				<path style="fill:#B3B3B3;" d="M8.812,13.985H6.16c-0.002,0-0.005,0-0.005,0l-2.903-0.711v-1.405l2.903-0.711h2.657
					c-0.04,0.164-0.066,0.334-0.083,0.498c-0.002,0.017-0.002,0.031-0.005,0.048v0.002c-0.009,0.092-0.014,0.182-0.019,0.268
					c-0.007,0.13-0.007,0.253-0.007,0.358v0.239C8.699,12.824,8.677,13.433,8.812,13.985z"/>
				<path style="opacity:0.5;fill:#FFFFFF;" d="M8.729,11.656c-0.002,0.017-0.002,0.031-0.005,0.048v0.002
					c-0.009,0.092-0.026,0.267-0.026,0.267l-2.543,0l-2.903,0.45v-0.074l2.903-0.694H8.729z"/>
				<rect x="0.77" y="12.225" style="fill:#B3B3B3;" width="2.482" height="0.693"/>
			</g>
			<rect x="0.77" y="12.35" style="opacity:0.5;fill:#FFFFFF;" width="2.482" height="0.074"/>
			<rect x="3.084" y="12.225" style="opacity:0.1;" width="0.168" height="0.693"/>
		</g>
	</g>
	<polygon style="opacity:0.2;" points="191.488,7.609 191.488,17.315 192.273,17.907 192.273,7.018 	"/>
	<polygon style="opacity:0.2;" points="193.058,7.609 193.058,17.315 193.843,17.907 193.843,7.018 	"/>
	<polygon style="opacity:0.2;" points="194.628,7.609 194.628,17.315 195.413,17.907 195.413,7.018 	"/>
	<polygon style="opacity:0.2;" points="196.198,7.609 196.198,17.315 196.983,17.907 196.983,7.018 	"/>
</g>
</svg>
