<?xml version="1.0" encoding="iso-8859-1"?>
<!-- Generator: Adobe Illustrator 17.0.0, SVG Export Plug-In . SVG Version: 6.00 Build 0)  -->
<!DOCTYPE svg PUBLIC "-//W3C//DTD SVG 1.1//EN" "http://www.w3.org/Graphics/SVG/1.1/DTD/svg11.dtd">
<svg version="1.1" id="Objects" xmlns="http://www.w3.org/2000/svg" xmlns:xlink="http://www.w3.org/1999/xlink" x="0px" y="0px"
	 width="100.055px" height="305.278px" viewBox="0 0 100.055 305.278" style="enable-background:new 0 0 100.055 305.278;"
	 xml:space="preserve">
<g>
	<g>
		<g>
			<path style="fill:#F15A24;" d="M66.15,143.005c4.206-11.285-5.185-20.426-5.185-20.426H46.375H30.732
				c0,0-9.204,12.069-4.134,20.426c2.185,3.598,4.976,8.743,5.27,13.58c0.294,4.838-4.143,36.973-4.239,40.467h18.746h16.704
				c-0.096-3.494-3.815-35.794-3.521-40.631C59.854,151.583,64.7,146.897,66.15,143.005z"/>
			<path style="fill:#F15A24;" d="M45.474,185.383"/>
			<path style="fill:#DBA41B;" d="M30.392,12.859c0,0,2.095-10.84,16.867-12.48c14.771-1.64,29.396,1.641,37.055,17.779
				c6.75,14.224,4.432,22.372,4.432,22.372s-9.377,42.457,0.035,59.415c1.242,2.234,7.443,13.332,11.273,13.332
				c0,0-28.056,3.356-36.535-11.415"/>
			<path style="fill:#EAB51F;" d="M90.691,54.664c0,23.376-20.303,42.324-45.347,42.324l0,0C20.301,96.988,0,78.04,0,54.664v-1.843
				C0,29.45,20.301,10.5,45.345,10.5l0,0c25.044,0,45.347,18.95,45.347,42.321V54.664z"/>
			<g>
				<path style="fill:#F6C9A5;" d="M15.986,75.936c0,4.229-3.431,7.658-7.659,7.658l0,0c-4.23,0-7.659-3.43-7.659-7.658v-0.731
					c0-4.229,3.429-7.658,7.659-7.658l0,0c4.228,0,7.659,3.43,7.659,7.658V75.936z"/>
				<path style="fill:#F6C9A5;" d="M90.022,75.936c0,4.229-3.43,7.658-7.659,7.658l0,0c-4.229,0-7.658-3.43-7.658-7.658v-0.731
					c0-4.229,3.429-7.658,7.658-7.658l0,0c4.229,0,7.659,3.43,7.659,7.658V75.936z"/>
			</g>
			<path style="fill:#83451D;" d="M33.309,35.817"/>
			<g>
				<path style="fill:#E0AE8C;" d="M6.08,73.565c0,0-0.005,0.403-0.012,1.006c0.006,0.541,0.049,1.045,0.135,1.462
					c0.009,0.111,0.058,0.216,0.062,0.334c0.047,0.11,0.059,0.233,0.093,0.358c0.046,0.121,0.079,0.25,0.109,0.384
					c0.049,0.125,0.089,0.259,0.125,0.389c0.068,0.263,0.167,0.488,0.208,0.679c0.048,0.186,0.069,0.312,0.069,0.312
					s-0.118,0.013-0.315,0c-0.19-0.024-0.487-0.031-0.774-0.18c-0.149-0.066-0.315-0.141-0.475-0.244
					c-0.15-0.119-0.306-0.255-0.456-0.409c-0.142-0.163-0.268-0.363-0.384-0.567c-0.094-0.221-0.185-0.454-0.229-0.699
					c-0.033-0.249-0.063-0.498-0.024-0.74c0.012-0.245,0.091-0.469,0.163-0.68c0.176-0.409,0.416-0.735,0.686-0.942
					C5.57,73.59,6.08,73.565,6.08,73.565z"/>
			</g>
			<g>
				<path style="fill:#F6C9A5;" d="M82.363,80.603c-5.472,21.172-25.38,31.431-36.505,31.107l0,0
					c-13.677,0.323-32.427-7.97-37.531-31.107V63.649c0-19.804,7.659-37.976,32.915-34.973l4.103-0.885
					c20.446,0,37.018,16.054,37.018,35.857V80.603z"/>
				<polygon style="fill:#F6C9A5;" points="53.502,121.929 45.892,122.579 38.285,121.934 38.285,109.186 53.502,109.186 				"/>
			</g>
			<polyline style="fill:#F6C9A5;" points="38.285,121.934 45.892,126.328 53.502,121.929 			"/>
			<g>
				<path style="fill:#FFFFFF;" d="M36.594,131.203c0,0,9.116,7.682,18.529-0.178l-9.247-4.838L36.594,131.203z"/>
				<polygon style="fill:#F2F2F2;" points="34.059,119.5 34.059,132.874 45.892,126.32 				"/>
				<polygon style="fill:#F2F2F2;" points="57.833,119.43 57.833,132.943 45.878,126.32 				"/>
				<polygon style="fill:#CECCCA;" points="34.059,119.5 38.285,119.5 38.285,121.934 				"/>
				<polygon style="fill:#CECCCA;" points="57.655,119.5 53.502,119.5 53.502,121.929 				"/>
			</g>
			<g>
				<path style="fill:#29252A;" d="M32.033,71.833c0,0.643-0.734,1.161-1.641,1.161l0,0c-0.908,0-1.642-0.519-1.642-1.161v-3.617
					c0-0.641,0.733-1.161,1.642-1.161l0,0c0.906,0,1.641,0.521,1.641,1.161V71.833z"/>
				<path style="fill:#29252A;" d="M61.208,71.833c0,0.643-0.733,1.161-1.638,1.161l0,0c-0.909,0-1.645-0.519-1.645-1.161v-3.617
					c0-0.641,0.735-1.161,1.645-1.161l0,0c0.904,0,1.638,0.521,1.638,1.161V71.833z"/>
				<g>
					<path style="fill:#E0AE8C;" d="M41.242,82.485c0,0,0.578,0.209,1.445,0.524c0.415,0.127,0.863,0.289,1.328,0.396
						c0.231,0.06,0.466,0.095,0.695,0.14c0.232,0.014,0.461,0.072,0.688,0.053c0.229,0.031,0.45-0.01,0.675-0.02
						c0.227-0.001,0.441-0.088,0.67-0.107c0.222-0.048,0.435-0.136,0.656-0.186c0.221-0.053,0.416-0.163,0.62-0.227
						c0.409-0.132,0.735-0.321,1-0.416c0.261-0.103,0.43-0.156,0.43-0.156s-0.038,0.16-0.141,0.43
						c-0.114,0.26-0.246,0.673-0.579,1.045c-0.161,0.19-0.313,0.432-0.548,0.611c-0.235,0.178-0.478,0.39-0.774,0.544
						c-0.308,0.128-0.619,0.314-0.978,0.369c-0.354,0.08-0.721,0.136-1.089,0.112c-0.372,0.004-0.725-0.079-1.07-0.165
						c-0.334-0.104-0.656-0.233-0.936-0.394c-0.571-0.313-1.003-0.721-1.319-1.103C41.379,83.17,41.242,82.485,41.242,82.485z"/>
				</g>
				<g>
					<g>
						<path style="fill:#CC2232;" d="M34.951,94.3c0,0,0.352,0.17,0.968,0.467c0.295,0.154,0.685,0.297,1.09,0.5
							c0.43,0.168,0.891,0.384,1.412,0.569c0.511,0.204,1.064,0.404,1.654,0.583c0.572,0.223,1.213,0.325,1.834,0.521
							c0.65,0.087,1.29,0.298,1.965,0.329c0.334,0.038,0.67,0.068,1.005,0.117l1.014,0.005c0.679,0.073,1.345-0.091,2.015-0.107
							c0.665-0.069,1.306-0.254,1.952-0.344c0.629-0.159,1.229-0.375,1.825-0.53c0.599-0.151,1.113-0.441,1.637-0.618
							c0.513-0.2,1.016-0.351,1.413-0.575c0.405-0.208,0.782-0.367,1.091-0.506c0.621-0.274,1.008-0.412,1.008-0.412
							s-0.21,0.331-0.634,0.876c-0.214,0.271-0.471,0.609-0.794,0.972c-0.3,0.392-0.715,0.745-1.18,1.129
							c-0.476,0.365-0.953,0.838-1.568,1.172c-0.614,0.332-1.257,0.721-1.972,1.02c-0.365,0.132-0.744,0.251-1.127,0.374
							c-0.386,0.112-0.767,0.278-1.181,0.313c-0.817,0.109-1.65,0.292-2.494,0.235l-1.26-0.043
							c-0.414-0.057-0.822-0.141-1.228-0.212c-0.408-0.061-0.804-0.155-1.182-0.295c-0.382-0.123-0.757-0.245-1.121-0.377
							c-0.698-0.333-1.39-0.611-1.971-1.007c-0.294-0.19-0.584-0.365-0.851-0.552c-0.256-0.202-0.504-0.398-0.741-0.586
							c-0.474-0.369-0.848-0.787-1.19-1.127c-0.328-0.361-0.599-0.684-0.801-0.97C35.121,94.666,34.951,94.3,34.951,94.3z"/>
					</g>
					<path style="fill:#CC2232;" d="M34.951,94.3c0,0,9.402,1.28,10.907,2.308c0,0,1.494-1.341,10.976-2.308
						C56.834,94.3,46.678,102.861,34.951,94.3z"/>
				</g>
			</g>
			<path style="fill:#EAB51F;" d="M2.127,67.546c0,0,3.557,0.699,7.66,0c4.101-0.696,9.026-24.495,9.026-24.495
				s-1.094,12.583-1.367,17.231l15.862-1.368l0.751-19.146l1.268,18.872l22.599-0.475L59.57,40.04l1.638,18.328
				c0,0,11.765,1.095,13.405,1.367l0.092-15.864c0,0,2.551,21.021,7.658,23.675l1.951-7.537l-8.332-28.722l-26.533-7.11H21.82
				l-9.068,8.753l-6.731,9.573L2.127,67.546z"/>
			<path style="fill:#F15A24;" d="M30.732,122.579c0,0-18.302,10.295-22.405,50.674v20.151h5.745c0,0-0.912-38.934,14.679-60.53"/>
			<path style="fill:#F15A24;" d="M61.027,122.579c0,0,18.302,10.295,22.404,50.674l0.016,20.151h-5.745
				c0,0,0.896-38.934-14.693-60.53"/>
			<g>
				<path style="fill:#F6C9A5;" d="M8.327,193.404c0,0-1.731,6.563-1.002,10.574c0,0,1.094,3.468,3.829,1.645v-7.113
					c0,0,0.91-0.748,1.276,1.267c0.365,2.016-0.183,2.562,1.275,2.473c1.46-0.092,0.366-8.845,0.366-8.845"/>
				<path style="fill:#F6C9A5;" d="M83.584,193.404c0,0,1.729,6.563,1.002,10.574c0,0-1.095,3.468-3.83,1.645v-7.113
					c0,0-0.912-0.748-1.277,1.267c-0.362,2.016,0.184,2.562-1.276,2.473c-1.458-0.092-0.363-8.845-0.363-8.845"/>
			</g>
			<path style="fill:#4C413D;" d="M60.526,236.986H30.165c0,0-2.19-16.168-2.536-20.927c-0.346-4.746,0-19.008,0-19.008h35.497
				c0,0,0.479,14.255,0,19.008C62.646,220.813,60.526,236.986,60.526,236.986z"/>
			<g>
				<polyline style="fill:#F6C9A5;" points="30.165,236.986 35.408,295.841 41.791,295.841 43.222,236.986 				"/>
				<polyline style="fill:#F6C9A5;" points="60.029,236.986 54.787,295.841 48.403,295.841 46.973,236.986 				"/>
			</g>
			<g>
				<path style="fill:#4C413D;" d="M43.222,295.841h-9.162l-11.871,10.353c0,0,17.874,0.299,18.968-3.554l-0.187,3.554h2.252
					V295.841z"/>
				<path style="fill:#4C413D;" d="M46.973,295.841h9.161l11.873,10.353c0,0-17.876,0.299-18.97-3.554l0.188,3.554h-2.252V295.841z"
					/>
			</g>
			<g>
				<path style="fill:none;stroke:#161514;stroke-width:2;stroke-miterlimit:10;" d="M6.12,70.774l1.025-13.97
					c0-20.38,16.519-36.898,36.896-36.898h0.565c22.19-0.926,40.557,16.518,40.557,36.898l0.119,5.939
					c0,13.202-6.976,34.245-15.196,38.297"/>
				<path style="fill:#161514;" d="M7.385,81.514L7.385,81.514c-2.394,0-4.334-1.94-4.334-4.334v-3.443
					c0-2.396,1.94-4.336,4.334-4.336l0,0"/>
				<path style="fill:#161514;" d="M81.924,81.973l0.734-0.092c2.344,0.488,4.639-1.02,5.125-3.364l0.699-3.372
					c0.485-2.342-1.02-4.638-3.364-5.124l0,0"/>
				<path style="fill:#161514;" d="M65.531,109.117c-1.172,0.941-2.886,0.756-3.828-0.419l0,0c-0.943-1.17-0.756-2.882,0.417-3.825
					l5.941-4.776c1.172-0.942,2.887-0.756,3.828,0.417l0,0c0.94,1.171,0.756,2.886-0.416,3.829L65.531,109.117z"/>
			</g>
		</g>
	</g>
</g>
</svg>
