<?xml version="1.0" encoding="utf-8"?>
<!-- Generator: Adobe Illustrator 17.0.0, SVG Export Plug-In . SVG Version: 6.00 Build 0)  -->
<!DOCTYPE svg PUBLIC "-//W3C//DTD SVG 1.1//EN" "http://www.w3.org/Graphics/SVG/1.1/DTD/svg11.dtd">
<svg version="1.1" id="object" xmlns="http://www.w3.org/2000/svg" xmlns:xlink="http://www.w3.org/1999/xlink" x="0px" y="0px"
	 width="341.304px" height="320.598px" viewBox="0 0 341.304 320.598" enable-background="new 0 0 341.304 320.598"
	 xml:space="preserve">
<g>
	<g>
		<path fill="#102F41" d="M336.273,243.951c0,9.562-7.614,17.31-17.005,17.31H92.51c-9.389,0-17.005-7.748-17.005-17.31V70.82
			c0-9.553,7.616-17.31,17.005-17.31h226.757c9.392,0,17.005,7.758,17.005,17.31V243.951z"/>
		<path fill="#058486" d="M316.562,227.235c0,6.229-4.993,11.271-11.147,11.271H104.749c-6.157,0-11.143-5.042-11.143-11.271V80.619
			c0-6.228,4.986-11.276,11.143-11.276h200.666c6.154,0,11.147,5.049,11.147,11.276V227.235z"/>
	</g>
	<g>
		<rect x="139.373" y="170.517" fill="#E4D8B9" width="29.159" height="27.639"/>
		<path fill="#E4D8B9" d="M196.742,220.097c0,16.678-19.703,30.198-44.01,30.198c-24.305,0-44.009-13.521-44.009-30.198
			c0-16.677,4.409-28.132,43.659-28.132S196.742,203.42,196.742,220.097z"/>
		<g>
			<path fill="#F1E4C4" d="M304.624,132.653c0,0-0.135-12.499-0.135-17.333s15.072-22.177,22.301-30
				c6.65-7.198-5.181-12.37-10.332-6.334c-5.152,6.037-18.834,22.875-19.668,21.5c-0.833-1.374,3.834-9.666-3.249-10.166
				s-11.087,16-11.087,25s0,17.333,0,17.333H304.624z"/>
		</g>
		<g>
			<path fill="#F1E4C4" d="M24.144,202.765c0,0,0.134-12.499,0.134-17.333s-15.072-22.177-22.301-30
				c-6.65-7.198,5.181-12.37,10.333-6.334c5.152,6.037,18.833,22.875,19.667,21.5c0.833-1.374-3.834-9.666,3.25-10.166
				s11.087,16,11.087,25s0,17.333,0,17.333H24.144z"/>
		</g>
		<path fill="#FAAF3D" d="M277.959,128.326c-8.43,35.764-57.739,65.333-79.333,65.333c-21.594,0-24.102,0.19-24.102,0.19
			s-1.524,17.525-21.792,17.525c-20.267,0-21.788-17.763-21.788-17.763s-26.301-4.765-43.011,10.985
			c-19.436,18.318-36.29,33.25-36.29,33.25v-35.051l-32.75-0.083c0,0,0,41.634,0,74.634s24.583,21.83,38.25,8
			c13.667-13.83,42-42.5,42-42.5v77.75h53.177h0.823l53.177-1.478c0,0,0-77.46,0-88.46c27.972-2.667,103.638-45.501,103.638-102.333
			C300.347,128.326,289.292,128.326,277.959,128.326z"/>
		<g>
			<path fill="#955018" d="M214.102,113.854c0,11.155,9.772,0.136-61.66,0.136c-0.753,0-60.586,3.342-60.589,4.245
				c0-46.151,22.528-76.085,64.213-76.085C197.75,42.15,214.102,67.703,214.102,113.854z"/>
			<path fill="#F1E4C4" d="M207.405,110.903c0,39.493,8.844,71.51-52.286,71.51c-61.129,0-53.823-32.017-53.823-71.51
				s18.153-59.185,53.823-59.185C190.791,51.719,207.405,71.41,207.405,110.903z"/>
			<path fill="#F1E4C4" d="M108.499,119.787c0,7.344-1.951,13.296-7.204,13.296c-5.252,0-9.51-5.952-9.51-13.296
				c0-7.342,4.258-13.295,9.51-13.295C106.548,106.492,108.499,112.445,108.499,119.787z"/>
			<ellipse fill="#F1E4C4" cx="206.386" cy="121.621" rx="9.511" ry="13.297"/>
			<g>
				<ellipse fill="#545454" cx="130.21" cy="123.504" rx="7.177" ry="6.392"/>
				<ellipse fill="#545454" cx="177.628" cy="123.504" rx="7.177" ry="6.392"/>
				<path fill="#545454" d="M133.04,152.452h41.268c0,0-2.656,9.868-20.634,9.868C135.697,162.32,133.04,152.452,133.04,152.452z"/>
			</g>
			<path fill="#955018" d="M100.142,106.594c0,0,49.559,3.566,60.133-24.116c26.336,18.968,47.106,25.923,47.106,25.923
				s8.516-43.865-36.93-58.475c-31.606-10.161-45.163,5.639-58.491,17.941C98.631,80.171,100.142,106.594,100.142,106.594z"/>
		</g>
		<rect x="99.144" y="261.299" fill="#102F41" width="107.177" height="22.667"/>
		<rect x="99.144" y="292.049" fill="#102F41" width="107.177" height="9.416"/>
		<rect x="99.144" y="244.212" fill="#102F41" width="107.177" height="9.416"/>
	</g>
	<g>
		<g>
			<g opacity="0.2">
				
					<rect x="9.82" y="73.055" transform="matrix(0.0088 -1 1 0.0088 -55.8197 153.4492)" fill="#414042" width="79.353" height="63.654"/>
			</g>
			<g>
				
					<rect x="17.669" y="65.206" transform="matrix(1 0.0088 -0.0088 1 0.9271 -0.4325)" fill="#F0F1F2" width="63.654" height="79.353"/>
				
					<rect x="24.495" y="85.371" transform="matrix(1 0.0089 -0.0089 1 0.7718 -0.4482)" fill="#39383A" width="51.96" height="1.334"/>
				
					<rect x="24.361" y="89.482" transform="matrix(1 0.0089 -0.0089 1 0.865 -0.2799)" fill="#102F41" width="15.029" height="15.082"/>
				
					<rect x="23.796" y="130.201" transform="matrix(1 0.0089 -0.0089 1 1.1783 -0.4472)" fill="#DE991B" width="53.641" height="2.772"/>
				<g>
					
						<rect x="23.761" y="135.019" transform="matrix(1 0.0089 -0.0089 1 1.2142 -0.2815)" fill="#DF3C1C" width="16.593" height="1.037"/>
					
						<rect x="23.736" y="137.74" transform="matrix(1 0.0088 -0.0088 1 1.2218 -0.2774)" fill="#DF3C1C" width="16.595" height="1.038"/>
				</g>
				<g>
					
						<rect x="42.389" y="135.183" transform="matrix(1 0.0089 -0.0089 1 1.2163 -0.4481)" fill="#DF3C1C" width="16.596" height="1.04"/>
					
						<rect x="42.364" y="137.906" transform="matrix(1 0.0089 -0.0089 1 1.2315 -0.4445)" fill="#DF3C1C" width="16.596" height="1.039"/>
				</g>
				<g>
					
						<rect x="60.735" y="135.349" transform="matrix(1 0.009 -0.009 1 1.2259 -0.616)" fill="#DF3C1C" width="16.595" height="1.037"/>
					
						<rect x="60.711" y="138.071" transform="matrix(1 0.0089 -0.0089 1 1.242 -0.6115)" fill="#DF3C1C" width="16.597" height="1.037"/>
				</g>
				
					<rect x="42.599" y="102.721" transform="matrix(1 0.0089 -0.0089 1 0.9866 -0.4418)" fill="#102F41" width="15.029" height="15.766"/>
				<g>
					<g>
						
							<rect x="24.282" y="113.141" transform="matrix(1 0.009 -0.009 1 1.0258 -0.2526)" fill="#39383A" width="8.573" height="1.291"/>
						
							<rect x="34.415" y="113.215" transform="matrix(1 0.0089 -0.0089 1 1.0139 -0.323)" fill="#39383A" width="4.824" height="1.291"/>
					</g>
					<g>
						
							<rect x="24.273" y="106.13" transform="matrix(1 0.009 -0.009 1 0.9582 -0.2426)" fill="#39383A" width="6.537" height="1.29"/>
						
							<rect x="32.418" y="106.205" transform="matrix(1 0.0089 -0.0089 1 0.9558 -0.316)" fill="#39383A" width="6.885" height="1.289"/>
					</g>
					<g>
						
							<rect x="24.354" y="110.734" transform="matrix(1 0.0089 -0.0089 1 0.9928 -0.2373)" fill="#39383A" width="5.593" height="1.29"/>
						
							<rect x="31.747" y="110.808" transform="matrix(1 0.009 -0.009 1 1.0024 -0.3138)" fill="#39383A" width="7.393" height="1.291"/>
					</g>
					<g>
						
							<rect x="24.19" y="115.488" transform="matrix(1 0.0091 -0.0091 1 1.059 -0.238)" fill="#39383A" width="4.929" height="1.289"/>
						
							<rect x="30.94" y="115.541" transform="matrix(1 0.0088 -0.0088 1 1.024 -0.282)" fill="#39383A" width="3.215" height="1.289"/>
						
							<rect x="35.869" y="115.583" transform="matrix(1 0.0088 -0.0088 1 1.0249 -0.3255)" fill="#39383A" width="3.214" height="1.29"/>
					</g>
					<g>
						
							<rect x="24.255" y="108.296" transform="matrix(1 0.0091 -0.0091 1 0.9939 -0.2312)" fill="#39383A" width="3.215" height="1.29"/>
						
							<rect x="29.183" y="108.34" transform="matrix(1 0.0088 -0.0088 1 0.9601 -0.2667)" fill="#39383A" width="3.216" height="1.289"/>
						
							<rect x="34.04" y="108.392" transform="matrix(1 0.009 -0.009 1 0.9784 -0.3236)" fill="#39383A" width="5.123" height="1.289"/>
					</g>
				</g>
				<g>
					<g>
						
							<rect x="42.832" y="91.982" transform="matrix(1 0.009 -0.009 1 0.8361 -0.4206)" fill="#39383A" width="8.572" height="1.29"/>
						
							<rect x="52.964" y="92.055" transform="matrix(1 0.0087 -0.0087 1 0.8089 -0.4785)" fill="#39383A" width="4.825" height="1.288"/>
					</g>
					<g>
						
							<rect x="42.697" y="98.974" transform="matrix(1 0.0087 -0.0087 1 0.8644 -0.3943)" fill="#39383A" width="6.536" height="1.29"/>
						
							<rect x="50.84" y="99.049" transform="matrix(1 0.0091 -0.0091 1 0.907 -0.4886)" fill="#39383A" width="6.887" height="1.29"/>
					</g>
					<g>
						
							<rect x="42.86" y="94.364" transform="matrix(1 0.0089 -0.0089 1 0.8477 -0.4027)" fill="#39383A" width="5.593" height="1.291"/>
						
							<rect x="50.254" y="94.438" transform="matrix(1 0.0088 -0.0088 1 0.8432 -0.4735)" fill="#39383A" width="7.393" height="1.29"/>
					</g>
					<g>
						
							<rect x="42.781" y="89.603" transform="matrix(1 0.0089 -0.0089 1 0.8071 -0.4002)" fill="#39383A" width="4.931" height="1.289"/>
						
							<rect x="49.532" y="89.655" transform="matrix(1 0.0091 -0.0091 1 0.8252 -0.4624)" fill="#39383A" width="3.215" height="1.29"/>
						
							<rect x="54.46" y="89.699" transform="matrix(1 0.0085 -0.0085 1 0.7719 -0.4745)" fill="#39383A" width="3.215" height="1.289"/>
					</g>
					<g>
						
							<rect x="42.717" y="96.779" transform="matrix(1 0.0088 -0.0088 1 0.8624 -0.3878)" fill="#39383A" width="3.215" height="1.29"/>
						
							<rect x="47.646" y="96.823" transform="matrix(1 0.0088 -0.0088 1 0.8602 -0.4299)" fill="#39383A" width="3.214" height="1.29"/>
						
							<rect x="52.504" y="96.875" transform="matrix(1 0.0091 -0.0091 1 0.8936 -0.4992)" fill="#39383A" width="5.12" height="1.29"/>
					</g>
				</g>
				<g>
					<g>
						
							<rect x="42.558" y="122.572" transform="matrix(1 0.009 -0.009 1 1.1099 -0.4163)" fill="#39383A" width="8.574" height="1.291"/>
						
							<rect x="52.69" y="122.645" transform="matrix(1 0.0093 -0.0093 1 1.1495 -0.5073)" fill="#39383A" width="4.826" height="1.291"/>
					</g>
					<g>
						
							<rect x="42.586" y="124.954" transform="matrix(1 0.0085 -0.0085 1 1.075 -0.3832)" fill="#39383A" width="5.594" height="1.289"/>
						
							<rect x="49.98" y="125.028" transform="matrix(1 0.0087 -0.0087 1 1.0967 -0.4628)" fill="#39383A" width="7.393" height="1.289"/>
					</g>
					<g>
						
							<rect x="42.508" y="120.192" transform="matrix(1 0.0089 -0.0089 1 1.0804 -0.3966)" fill="#39383A" width="4.929" height="1.289"/>
						
							<rect x="49.258" y="120.244" transform="matrix(1 0.0085 -0.0085 1 1.0285 -0.4276)" fill="#39383A" width="3.214" height="1.289"/>
						
							<rect x="54.187" y="120.29" transform="matrix(1 0.0085 -0.0085 1 1.0288 -0.4694)" fill="#39383A" width="3.215" height="1.287"/>
					</g>
					<g>
						
							<rect x="42.444" y="127.369" transform="matrix(1 0.0088 -0.0088 1 1.1292 -0.383)" fill="#39383A" width="3.213" height="1.29"/>
						
							<rect x="47.373" y="127.413" transform="matrix(1 0.0094 -0.0094 1 1.2051 -0.4544)" fill="#39383A" width="3.215" height="1.29"/>
						
							<rect x="52.231" y="127.464" transform="matrix(1 0.0094 -0.0094 1 1.2007 -0.5069)" fill="#39383A" width="5.121" height="1.291"/>
					</g>
				</g>
				<g>
					<g>
						
							<rect x="61.153" y="120.373" transform="matrix(1 0.0087 -0.0087 1 1.05 -0.5619)" fill="#39383A" width="8.572" height="1.292"/>
						
							<rect x="71.285" y="120.448" transform="matrix(1 0.0087 -0.0087 1 1.057 -0.637)" fill="#39383A" width="4.824" height="1.29"/>
					</g>
					<g>
						
							<rect x="61.144" y="113.363" transform="matrix(1 0.009 -0.009 1 1.0248 -0.5729)" fill="#39383A" width="6.536" height="1.289"/>
						
							<rect x="69.287" y="113.436" transform="matrix(1 0.0088 -0.0088 1 1.0053 -0.6347)" fill="#39383A" width="6.885" height="1.291"/>
					</g>
					<g>
						
							<rect x="61.223" y="117.966" transform="matrix(1 0.0089 -0.0089 1 1.0584 -0.5652)" fill="#39383A" width="5.595" height="1.291"/>
						
							<rect x="68.617" y="118.042" transform="matrix(1 0.0091 -0.0091 1 1.0832 -0.6533)" fill="#39383A" width="7.394" height="1.288"/>
					</g>
					<g>
						
							<rect x="61.06" y="122.72" transform="matrix(1 0.0089 -0.0089 1 1.1012 -0.5608)" fill="#39383A" width="4.929" height="1.29"/>
						
							<rect x="67.81" y="122.773" transform="matrix(1 0.0088 -0.0088 1 1.0931 -0.6085)" fill="#39383A" width="3.215" height="1.289"/>
						
							<rect x="72.74" y="122.817" transform="matrix(1 0.0088 -0.0088 1 1.0938 -0.6521)" fill="#39383A" width="3.214" height="1.291"/>
					</g>
					<g>
						
							<rect x="61.124" y="115.53" transform="matrix(1 0.0091 -0.0091 1 1.0617 -0.567)" fill="#39383A" width="3.214" height="1.288"/>
						
							<rect x="66.053" y="115.573" transform="matrix(1 0.0088 -0.0088 1 1.026 -0.5913)" fill="#39383A" width="3.214" height="1.29"/>
						
							<rect x="70.911" y="115.624" transform="matrix(1 0.009 -0.009 1 1.0449 -0.6538)" fill="#39383A" width="5.122" height="1.29"/>
					</g>
				</g>
				<g>
					<g>
						
							<rect x="24.178" y="124.727" transform="matrix(1 0.0089 -0.0089 1 1.1153 -0.248)" fill="#39383A" width="8.574" height="1.291"/>
						
							<rect x="34.312" y="124.802" transform="matrix(1 0.0091 -0.0091 1 1.1455 -0.3297)" fill="#39383A" width="4.825" height="1.289"/>
					</g>
					<g>
						
							<rect x="24.17" y="117.716" transform="matrix(1 0.0088 -0.0088 1 1.044 -0.2372)" fill="#39383A" width="6.537" height="1.289"/>
						
							<rect x="32.314" y="117.791" transform="matrix(1 0.0089 -0.0089 1 1.0596 -0.3147)" fill="#39383A" width="6.884" height="1.289"/>
					</g>
					<g>
						
							<rect x="24.25" y="122.319" transform="matrix(1 0.0091 -0.0091 1 1.118 -0.2406)" fill="#39383A" width="5.593" height="1.289"/>
						
							<rect x="31.643" y="122.395" transform="matrix(1 0.0091 -0.0091 1 1.1231 -0.317)" fill="#39383A" width="7.393" height="1.288"/>
					</g>
					<g>
						
							<rect x="24.087" y="127.072" transform="matrix(1 0.0089 -0.0089 1 1.1412 -0.2319)" fill="#39383A" width="4.929" height="1.291"/>
						
							<rect x="30.837" y="127.125" transform="matrix(1 0.0091 -0.0091 1 1.166 -0.2904)" fill="#39383A" width="3.214" height="1.291"/>
						
							<rect x="35.766" y="127.169" transform="matrix(1 0.0085 -0.0085 1 1.0867 -0.3128)" fill="#39383A" width="3.215" height="1.29"/>
					</g>
					<g>
						
							<rect x="24.152" y="119.88" transform="matrix(1 0.0088 -0.0088 1 1.0626 -0.2222)" fill="#39383A" width="3.213" height="1.291"/>
						
							<rect x="29.08" y="119.924" transform="matrix(1 0.0088 -0.0088 1 1.0625 -0.2655)" fill="#39383A" width="3.215" height="1.291"/>
						
							<rect x="33.937" y="119.977" transform="matrix(1 0.009 -0.009 1 1.0823 -0.3222)" fill="#39383A" width="5.122" height="1.289"/>
					</g>
				</g>
				<g>
					<g>
						
							<rect x="61.363" y="96.787" transform="matrix(1 0.0088 -0.0088 1 0.8572 -0.5721)" fill="#39383A" width="8.573" height="1.291"/>
						
							<rect x="71.496" y="96.86" transform="matrix(1 0.0083 -0.0083 1 0.8128 -0.6108)" fill="#39383A" width="4.826" height="1.292"/>
					</g>
					<g>
						
							<rect x="61.354" y="89.776" transform="matrix(1 0.009 -0.009 1 0.8132 -0.5757)" fill="#39383A" width="6.537" height="1.289"/>
						
							<rect x="69.497" y="89.848" transform="matrix(1 0.0086 -0.0086 1 0.7847 -0.6269)" fill="#39383A" width="6.886" height="1.291"/>
					</g>
					<g>
						
							<rect x="61.435" y="94.38" transform="matrix(1 0.0091 -0.0091 1 0.8657 -0.5795)" fill="#39383A" width="5.593" height="1.289"/>
						
							<rect x="68.828" y="94.454" transform="matrix(1 0.009 -0.009 1 0.857 -0.6475)" fill="#39383A" width="7.393" height="1.289"/>
					</g>
					<g>
						
							<rect x="61.271" y="99.133" transform="matrix(1 0.0087 -0.0087 1 0.871 -0.5511)" fill="#39383A" width="4.928" height="1.29"/>
						
							<rect x="68.022" y="99.187" transform="matrix(1 0.0094 -0.0094 1 0.9445 -0.6522)" fill="#39383A" width="3.213" height="1.289"/>
						
							<rect x="72.95" y="99.229" transform="matrix(1 0.0091 -0.0091 1 0.9133 -0.6753)" fill="#39383A" width="3.215" height="1.291"/>
					</g>
					<g>
						
							<rect x="61.335" y="91.942" transform="matrix(1 0.0091 -0.0091 1 0.8467 -0.5699)" fill="#39383A" width="3.214" height="1.289"/>
						
							<rect x="66.264" y="91.986" transform="matrix(1 0.0091 -0.0091 1 0.847 -0.6147)" fill="#39383A" width="3.215" height="1.289"/>
						
							<rect x="71.121" y="92.038" transform="matrix(1 0.009 -0.009 1 0.8336 -0.6566)" fill="#39383A" width="5.122" height="1.29"/>
					</g>
				</g>
				<g>
					<g>
						
							<rect x="61.259" y="108.374" transform="matrix(1 0.009 -0.009 1 0.983 -0.585)" fill="#39383A" width="8.574" height="1.29"/>
						
							<rect x="71.392" y="108.446" transform="matrix(1 0.0089 -0.0089 1 0.975 -0.6533)" fill="#39383A" width="4.826" height="1.291"/>
					</g>
					<g>
						
							<rect x="61.25" y="101.36" transform="matrix(1 0.0087 -0.0087 1 0.8855 -0.5547)" fill="#39383A" width="6.538" height="1.29"/>
						
							<rect x="69.394" y="101.436" transform="matrix(1 0.0092 -0.0092 1 0.9444 -0.6673)" fill="#39383A" width="6.886" height="1.289"/>
					</g>
					<g>
						
							<rect x="61.33" y="105.965" transform="matrix(1 0.0091 -0.0091 1 0.9707 -0.5779)" fill="#39383A" width="5.595" height="1.289"/>
						
							<rect x="68.725" y="106.038" transform="matrix(1 0.009 -0.009 1 0.9612 -0.6462)" fill="#39383A" width="7.392" height="1.29"/>
					</g>
					<g>
						
							<rect x="61.167" y="110.718" transform="matrix(1 0.0093 -0.0093 1 1.0395 -0.5876)" fill="#39383A" width="4.93" height="1.29"/>
						
							<rect x="67.918" y="110.77" transform="matrix(1 0.0088 -0.0088 1 0.9836 -0.6078)" fill="#39383A" width="3.215" height="1.291"/>
						
							<rect x="72.847" y="110.814" transform="matrix(1 0.0088 -0.0088 1 0.9843 -0.6513)" fill="#39383A" width="3.214" height="1.291"/>
					</g>
					<g>
						
							<rect x="61.232" y="103.527" transform="matrix(1 0.0088 -0.0088 1 0.9227 -0.551)" fill="#39383A" width="3.215" height="1.289"/>
						
							<rect x="66.161" y="103.571" transform="matrix(1 0.0091 -0.0091 1 0.9529 -0.6135)" fill="#39383A" width="3.214" height="1.289"/>
						
							<rect x="71.017" y="103.623" transform="matrix(1 0.009 -0.009 1 0.9375 -0.6553)" fill="#39383A" width="5.121" height="1.289"/>
					</g>
				</g>
			</g>
		</g>
		<rect x="24.441" y="75.045" transform="matrix(1 0.0088 -0.0088 1 0.7031 -0.4446)" fill="#DF3C1C" width="52.3" height="8.368"/>
	</g>
	<g>
		<g>
			<g opacity="0.2">
				
					<rect x="18.12" y="25.892" transform="matrix(0.0088 -1 1 0.0088 -0.432 115.0026)" fill="#414042" width="79.353" height="63.654"/>
			</g>
			<g>
				
					<rect x="25.969" y="18.043" transform="matrix(1 0.0088 -0.0088 1 0.5114 -0.5076)" fill="#F0F1F2" width="63.654" height="79.353"/>
				
					<rect x="32.795" y="38.208" transform="matrix(1 0.0089 -0.0089 1 0.3501 -0.5242)" fill="#39383A" width="51.96" height="1.334"/>
				
					<rect x="32.66" y="42.319" transform="matrix(1 0.0089 -0.0089 1 0.4455 -0.3557)" fill="#102F41" width="15.029" height="15.082"/>
				
					<rect x="32.096" y="83.038" transform="matrix(1 0.0089 -0.0089 1 0.757 -0.5233)" fill="#DE991B" width="53.641" height="2.772"/>
				<g>
					
						<rect x="32.061" y="87.855" transform="matrix(1 0.0089 -0.0089 1 0.7925 -0.3576)" fill="#DF3C1C" width="16.593" height="1.037"/>
					
						<rect x="32.036" y="90.577" transform="matrix(1 0.0088 -0.0088 1 0.8057 -0.3525)" fill="#DF3C1C" width="16.595" height="1.038"/>
				</g>
				<g>
					
						<rect x="50.689" y="88.02" transform="matrix(1 0.0089 -0.0089 1 0.7946 -0.5243)" fill="#DF3C1C" width="16.596" height="1.04"/>
					
						<rect x="50.664" y="90.743" transform="matrix(1 0.0089 -0.0089 1 0.8134 -0.5204)" fill="#DF3C1C" width="16.596" height="1.039"/>
				</g>
				<g>
					
						<rect x="69.034" y="88.186" transform="matrix(1 0.009 -0.009 1 0.8017 -0.6926)" fill="#DF3C1C" width="16.595" height="1.037"/>
					
						<rect x="69.011" y="90.908" transform="matrix(1 0.0089 -0.0089 1 0.8206 -0.6876)" fill="#DF3C1C" width="16.597" height="1.037"/>
				</g>
				
					<rect x="50.898" y="55.558" transform="matrix(1 0.0089 -0.0089 1 0.5671 -0.5175)" fill="#102F41" width="15.029" height="15.766"/>
				<g>
					<g>
						
							<rect x="32.582" y="65.978" transform="matrix(1 0.009 -0.009 1 0.6007 -0.3289)" fill="#39383A" width="8.573" height="1.291"/>
						
							<rect x="42.715" y="66.052" transform="matrix(1 0.0089 -0.0089 1 0.5949 -0.3986)" fill="#39383A" width="4.824" height="1.291"/>
					</g>
					<g>
						
							<rect x="32.573" y="58.967" transform="matrix(1 0.009 -0.009 1 0.5358 -0.3189)" fill="#39383A" width="6.537" height="1.29"/>
						
							<rect x="40.717" y="59.041" transform="matrix(1 0.0089 -0.0089 1 0.5349 -0.3921)" fill="#39383A" width="6.885" height="1.289"/>
					</g>
					<g>
						
							<rect x="32.654" y="63.571" transform="matrix(1 0.0089 -0.0089 1 0.5732 -0.3131)" fill="#39383A" width="5.593" height="1.29"/>
						
							<rect x="40.047" y="63.644" transform="matrix(1 0.009 -0.009 1 0.5792 -0.3903)" fill="#39383A" width="7.393" height="1.291"/>
					</g>
					<g>
						
							<rect x="32.489" y="68.325" transform="matrix(1 0.0091 -0.0091 1 0.6297 -0.3156)" fill="#39383A" width="4.929" height="1.289"/>
						
							<rect x="39.24" y="68.378" transform="matrix(1 0.0088 -0.0088 1 0.6092 -0.3569)" fill="#39383A" width="3.215" height="1.289"/>
						
							<rect x="44.169" y="68.42" transform="matrix(1 0.0088 -0.0088 1 0.6099 -0.4004)" fill="#39383A" width="3.214" height="1.29"/>
					</g>
					<g>
						
							<rect x="32.555" y="61.133" transform="matrix(1 0.0091 -0.0091 1 0.5644 -0.3088)" fill="#39383A" width="3.215" height="1.29"/>
						
							<rect x="37.483" y="61.177" transform="matrix(1 0.0088 -0.0088 1 0.5474 -0.3428)" fill="#39383A" width="3.216" height="1.289"/>
						
							<rect x="42.34" y="61.229" transform="matrix(1 0.009 -0.009 1 0.5562 -0.3998)" fill="#39383A" width="5.123" height="1.289"/>
					</g>
				</g>
				<g>
					<g>
						
							<rect x="51.132" y="44.819" transform="matrix(1 0.009 -0.009 1 0.4112 -0.4966)" fill="#39383A" width="8.572" height="1.29"/>
						
							<rect x="61.264" y="44.892" transform="matrix(1 0.0087 -0.0087 1 0.3988 -0.5525)" fill="#39383A" width="4.825" height="1.288"/>
					</g>
					<g>
						
							<rect x="50.997" y="51.811" transform="matrix(1 0.0087 -0.0087 1 0.4571 -0.4688)" fill="#39383A" width="6.536" height="1.29"/>
						
							<rect x="59.14" y="51.886" transform="matrix(1 0.0091 -0.0091 1 0.4793 -0.5658)" fill="#39383A" width="6.887" height="1.29"/>
					</g>
					<g>
						
							<rect x="51.16" y="47.201" transform="matrix(1 0.0089 -0.0089 1 0.4281 -0.4785)" fill="#39383A" width="5.593" height="1.291"/>
						
							<rect x="58.553" y="47.275" transform="matrix(1 0.0088 -0.0088 1 0.4263 -0.5488)" fill="#39383A" width="7.393" height="1.29"/>
					</g>
					<g>
						
							<rect x="51.08" y="42.44" transform="matrix(1 0.0089 -0.0089 1 0.3857 -0.475)" fill="#39383A" width="4.931" height="1.289"/>
						
							<rect x="57.832" y="42.492" transform="matrix(1 0.0091 -0.0091 1 0.3957 -0.54)" fill="#39383A" width="3.215" height="1.29"/>
						
							<rect x="62.76" y="42.536" transform="matrix(1 0.0085 -0.0085 1 0.3689 -0.5449)" fill="#39383A" width="3.215" height="1.289"/>
					</g>
					<g>
						
							<rect x="51.017" y="49.616" transform="matrix(1 0.0088 -0.0088 1 0.4445 -0.4613)" fill="#39383A" width="3.215" height="1.29"/>
						
							<rect x="55.946" y="49.66" transform="matrix(1 0.0088 -0.0088 1 0.4452 -0.5048)" fill="#39383A" width="3.214" height="1.29"/>
						
							<rect x="60.804" y="49.712" transform="matrix(1 0.0091 -0.0091 1 0.4629 -0.5771)" fill="#39383A" width="5.12" height="1.29"/>
					</g>
				</g>
				<g>
					<g>
						
							<rect x="50.858" y="75.409" transform="matrix(1 0.009 -0.009 1 0.6871 -0.4935)" fill="#39383A" width="8.574" height="1.291"/>
						
							<rect x="60.99" y="75.481" transform="matrix(1 0.0093 -0.0093 1 0.711 -0.5866)" fill="#39383A" width="4.826" height="1.291"/>
					</g>
					<g>
						
							<rect x="50.886" y="77.79" transform="matrix(1 0.0085 -0.0085 1 0.6722 -0.4559)" fill="#39383A" width="5.594" height="1.289"/>
						
							<rect x="58.28" y="77.865" transform="matrix(1 0.0087 -0.0087 1 0.6873 -0.5377)" fill="#39383A" width="7.393" height="1.289"/>
					</g>
					<g>
						
							<rect x="50.808" y="73.029" transform="matrix(1 0.0089 -0.0089 1 0.6597 -0.4726)" fill="#39383A" width="4.929" height="1.289"/>
						
							<rect x="57.558" y="73.081" transform="matrix(1 0.0085 -0.0085 1 0.6283 -0.4998)" fill="#39383A" width="3.214" height="1.289"/>
						
							<rect x="62.487" y="73.127" transform="matrix(1 0.0085 -0.0085 1 0.6286 -0.5415)" fill="#39383A" width="3.215" height="1.287"/>
					</g>
					<g>
						
							<rect x="50.744" y="80.206" transform="matrix(1 0.0088 -0.0088 1 0.7142 -0.458)" fill="#39383A" width="3.213" height="1.29"/>
						
							<rect x="55.672" y="80.249" transform="matrix(1 0.0094 -0.0094 1 0.7624 -0.5345)" fill="#39383A" width="3.215" height="1.29"/>
						
							<rect x="60.531" y="80.301" transform="matrix(1 0.0094 -0.0094 1 0.7599 -0.5866)" fill="#39383A" width="5.121" height="1.291"/>
					</g>
				</g>
				<g>
					<g>
						
							<rect x="69.452" y="73.21" transform="matrix(1 0.0087 -0.0087 1 0.643 -0.6364)" fill="#39383A" width="8.572" height="1.292"/>
						
							<rect x="79.585" y="73.285" transform="matrix(1 0.0087 -0.0087 1 0.6467 -0.711)" fill="#39383A" width="4.824" height="1.29"/>
					</g>
					<g>
						
							<rect x="69.444" y="66.2" transform="matrix(1 0.009 -0.009 1 0.6012 -0.6481)" fill="#39383A" width="6.536" height="1.289"/>
						
							<rect x="77.587" y="66.272" transform="matrix(1 0.0088 -0.0088 1 0.5911 -0.7094)" fill="#39383A" width="6.885" height="1.291"/>
					</g>
					<g>
						
							<rect x="69.523" y="70.803" transform="matrix(1 0.0089 -0.0089 1 0.6389 -0.6409)" fill="#39383A" width="5.595" height="1.291"/>
						
							<rect x="76.916" y="70.879" transform="matrix(1 0.0091 -0.0091 1 0.6553 -0.7318)" fill="#39383A" width="7.394" height="1.288"/>
					</g>
					<g>
						
							<rect x="69.359" y="75.557" transform="matrix(1 0.0089 -0.0089 1 0.6815 -0.6366)" fill="#39383A" width="4.929" height="1.29"/>
						
							<rect x="76.11" y="75.61" transform="matrix(1 0.0088 -0.0088 1 0.6743 -0.6813)" fill="#39383A" width="3.215" height="1.289"/>
						
							<rect x="81.04" y="75.654" transform="matrix(1 0.0088 -0.0088 1 0.675 -0.7248)" fill="#39383A" width="3.214" height="1.291"/>
					</g>
					<g>
						
							<rect x="69.423" y="68.367" transform="matrix(1 0.0091 -0.0091 1 0.6321 -0.6447)" fill="#39383A" width="3.214" height="1.288"/>
						
							<rect x="74.353" y="68.41" transform="matrix(1 0.0088 -0.0088 1 0.6132 -0.6685)" fill="#39383A" width="3.214" height="1.29"/>
						<rect x="79.211" y="68.461" transform="matrix(1 0.009 -0.009 1 0.6226 -0.73)" fill="#39383A" width="5.122" height="1.29"/>
					</g>
				</g>
				<g>
					<g>
						
							<rect x="32.478" y="77.563" transform="matrix(1 0.0089 -0.0089 1 0.6965 -0.3237)" fill="#39383A" width="8.574" height="1.291"/>
						
							<rect x="42.612" y="77.639" transform="matrix(1 0.0091 -0.0091 1 0.7158 -0.4073)" fill="#39383A" width="4.825" height="1.289"/>
					</g>
					<g>
						
							<rect x="32.47" y="70.553" transform="matrix(1 0.0088 -0.0088 1 0.6288 -0.3121)" fill="#39383A" width="6.537" height="1.289"/>
						
							<rect x="40.614" y="70.627" transform="matrix(1 0.0089 -0.0089 1 0.6396 -0.3914)" fill="#39383A" width="6.884" height="1.289"/>
					</g>
					<g>
						
							<rect x="32.55" y="75.156" transform="matrix(1 0.0091 -0.0091 1 0.6899 -0.3179)" fill="#39383A" width="5.593" height="1.289"/>
						
							<rect x="39.942" y="75.232" transform="matrix(1 0.0091 -0.0091 1 0.6935 -0.3947)" fill="#39383A" width="7.393" height="1.288"/>
					</g>
					<g>
						
							<rect x="32.386" y="79.909" transform="matrix(1 0.0089 -0.0089 1 0.7205 -0.3079)" fill="#39383A" width="4.929" height="1.291"/>
						
							<rect x="39.137" y="79.962" transform="matrix(1 0.0091 -0.0091 1 0.7364 -0.368)" fill="#39383A" width="3.214" height="1.291"/>
						
							<rect x="44.066" y="80.006" transform="matrix(1 0.0085 -0.0085 1 0.689 -0.3863)" fill="#39383A" width="3.215" height="1.29"/>
					</g>
					<g>
						
							<rect x="32.451" y="72.717" transform="matrix(1 0.0088 -0.0088 1 0.6498 -0.2982)" fill="#39383A" width="3.213" height="1.291"/>
						
							<rect x="37.379" y="72.761" transform="matrix(1 0.0088 -0.0088 1 0.6477 -0.3403)" fill="#39383A" width="3.215" height="1.291"/>
						
							<rect x="42.237" y="72.814" transform="matrix(1 0.009 -0.009 1 0.66 -0.3985)" fill="#39383A" width="5.122" height="1.289"/>
					</g>
				</g>
				<g>
					<g>
						
							<rect x="69.663" y="49.623" transform="matrix(1 0.0088 -0.0088 1 0.4438 -0.6467)" fill="#39383A" width="8.573" height="1.291"/>
						
							<rect x="79.795" y="49.697" transform="matrix(1 0.0083 -0.0083 1 0.4212 -0.6814)" fill="#39383A" width="4.826" height="1.292"/>
					</g>
					<g>
						
							<rect x="69.654" y="42.613" transform="matrix(1 0.009 -0.009 1 0.3907 -0.652)" fill="#39383A" width="6.537" height="1.289"/>
						
							<rect x="77.797" y="42.685" transform="matrix(1 0.0086 -0.0086 1 0.3775 -0.7004)" fill="#39383A" width="6.886" height="1.291"/>
					</g>
					<g>
						
							<rect x="69.735" y="47.217" transform="matrix(1 0.0091 -0.0091 1 0.4368 -0.6555)" fill="#39383A" width="5.593" height="1.289"/>
						
							<rect x="77.127" y="47.291" transform="matrix(1 0.009 -0.009 1 0.4338 -0.7239)" fill="#39383A" width="7.393" height="1.289"/>
					</g>
					<g>
						
							<rect x="69.571" y="51.97" transform="matrix(1 0.0087 -0.0087 1 0.4608 -0.6251)" fill="#39383A" width="4.928" height="1.29"/>
						
							<rect x="76.322" y="52.024" transform="matrix(1 0.0094 -0.0094 1 0.5001 -0.7325)" fill="#39383A" width="3.213" height="1.289"/>
						
							<rect x="81.25" y="52.066" transform="matrix(1 0.0091 -0.0091 1 0.4838 -0.7529)" fill="#39383A" width="3.215" height="1.291"/>
					</g>
					<g>
						
							<rect x="69.635" y="44.779" transform="matrix(1 0.0091 -0.0091 1 0.4171 -0.6476)" fill="#39383A" width="3.214" height="1.289"/>
						
							<rect x="74.563" y="44.823" transform="matrix(1 0.0091 -0.0091 1 0.4175 -0.6923)" fill="#39383A" width="3.215" height="1.289"/>
						
							<rect x="79.42" y="44.875" transform="matrix(1 0.009 -0.009 1 0.4112 -0.7329)" fill="#39383A" width="5.122" height="1.29"/>
					</g>
				</g>
				<g>
					<g>
						<rect x="69.558" y="61.21" transform="matrix(1 0.009 -0.009 1 0.56 -0.6624)" fill="#39383A" width="8.574" height="1.29"/>
						
							<rect x="79.691" y="61.283" transform="matrix(1 0.0089 -0.0089 1 0.5551 -0.7291)" fill="#39383A" width="4.826" height="1.291"/>
					</g>
					<g>
						
							<rect x="69.55" y="54.197" transform="matrix(1 0.0087 -0.0087 1 0.4775 -0.6284)" fill="#39383A" width="6.538" height="1.29"/>
						
							<rect x="77.694" y="54.273" transform="matrix(1 0.0092 -0.0092 1 0.5091 -0.7447)" fill="#39383A" width="6.886" height="1.289"/>
					</g>
					<g>
						
							<rect x="69.63" y="58.802" transform="matrix(1 0.0091 -0.0091 1 0.5428 -0.6552)" fill="#39383A" width="5.595" height="1.289"/>
						
							<rect x="77.025" y="58.875" transform="matrix(1 0.009 -0.009 1 0.5379 -0.7227)" fill="#39383A" width="7.392" height="1.29"/>
					</g>
					<g>
						
							<rect x="69.467" y="63.555" transform="matrix(1 0.0093 -0.0093 1 0.6008 -0.6669)" fill="#39383A" width="4.93" height="1.29"/>
						
							<rect x="76.217" y="63.607" transform="matrix(1 0.0088 -0.0088 1 0.5687 -0.6827)" fill="#39383A" width="3.215" height="1.291"/>
						
							<rect x="81.147" y="63.651" transform="matrix(1 0.0088 -0.0088 1 0.5693 -0.7262)" fill="#39383A" width="3.214" height="1.291"/>
					</g>
					<g>
						
							<rect x="69.532" y="56.364" transform="matrix(1 0.0088 -0.0088 1 0.5046 -0.624)" fill="#39383A" width="3.215" height="1.289"/>
						
							<rect x="74.46" y="56.408" transform="matrix(1 0.0091 -0.0091 1 0.5233 -0.6911)" fill="#39383A" width="3.214" height="1.289"/>
						
							<rect x="79.317" y="56.459" transform="matrix(1 0.009 -0.009 1 0.5151 -0.7316)" fill="#39383A" width="5.121" height="1.289"/>
					</g>
				</g>
			</g>
		</g>
		<rect x="32.741" y="27.882" transform="matrix(1 0.0089 -0.0089 1 0.2861 -0.52)" fill="#DF3C1C" width="52.3" height="8.368"/>
	</g>
	<g>
		<path fill-rule="evenodd" clip-rule="evenodd" fill="#F7F1E6" d="M341.304,305.716c0,3.199-2.593,5.791-5.795,5.791h-62.052
			c-3.201,0-5.795-2.592-5.795-5.791V222.47c0-3.199,2.595-5.794,5.795-5.794h62.052c3.202,0,5.795,2.595,5.795,5.794V305.716z"/>
		<path fill-rule="evenodd" clip-rule="evenodd" fill="#FAAF3D" d="M333.102,296.444c0,2.486-2.018,4.502-4.503,4.502h-48.23
			c-2.489,0-4.506-2.016-4.506-4.502v-64.703c0-2.488,2.017-4.504,4.506-4.504h48.23c2.485,0,4.503,2.016,4.503,4.504V296.444z"/>
		<path fill-rule="evenodd" clip-rule="evenodd" fill="#102F41" d="M326.904,245.236c0,0.744-0.602,1.347-1.346,1.347h-30.904
			c-0.744,0-1.347-0.602-1.347-1.347v-1.382c0-0.741,0.603-1.346,1.347-1.346h30.904c0.745,0,1.346,0.604,1.346,1.346V245.236z"/>
		<path fill-rule="evenodd" clip-rule="evenodd" fill="#102F41" d="M290.56,246.94c0,0.776-0.629,1.404-1.406,1.404h-4.792
			c-0.775,0-1.405-0.628-1.405-1.404v-4.79c0-0.777,0.629-1.407,1.405-1.407h4.792c0.776,0,1.406,0.63,1.406,1.407V246.94z"/>
		<path fill-rule="evenodd" clip-rule="evenodd" fill="#102F41" d="M326.904,255.706c0,0.744-0.602,1.349-1.346,1.349h-30.904
			c-0.744,0-1.347-0.604-1.347-1.349v-1.381c0-0.743,0.603-1.345,1.347-1.345h30.904c0.745,0,1.346,0.602,1.346,1.345V255.706z"/>
		<path fill-rule="evenodd" clip-rule="evenodd" fill="#102F41" d="M290.56,257.41c0,0.777-0.629,1.407-1.406,1.407h-4.792
			c-0.775,0-1.405-0.63-1.405-1.407v-4.788c0-0.776,0.629-1.405,1.405-1.405h4.792c0.776,0,1.406,0.629,1.406,1.405V257.41z"/>
		<path fill-rule="evenodd" clip-rule="evenodd" fill="#102F41" d="M326.904,266.179c0,0.745-0.602,1.346-1.346,1.346h-30.904
			c-0.744,0-1.347-0.601-1.347-1.346v-1.382c0-0.744,0.603-1.346,1.347-1.346h30.904c0.745,0,1.346,0.602,1.346,1.346V266.179z"/>
		<path fill-rule="evenodd" clip-rule="evenodd" fill="#102F41" d="M290.56,267.881c0,0.777-0.629,1.408-1.406,1.408h-4.792
			c-0.775,0-1.405-0.631-1.405-1.408v-4.787c0-0.776,0.629-1.407,1.405-1.407h4.792c0.776,0,1.406,0.631,1.406,1.407V267.881z"/>
		<path fill-rule="evenodd" clip-rule="evenodd" fill="#102F41" d="M326.904,276.65c0,0.743-0.602,1.346-1.346,1.346h-30.904
			c-0.744,0-1.347-0.603-1.347-1.346v-1.381c0-0.743,0.603-1.348,1.347-1.348h30.904c0.745,0,1.346,0.604,1.346,1.348V276.65z"/>
		<path fill-rule="evenodd" clip-rule="evenodd" fill="#102F41" d="M290.56,278.353c0,0.777-0.629,1.405-1.406,1.405h-4.792
			c-0.775,0-1.405-0.628-1.405-1.405v-4.789c0-0.775,0.629-1.405,1.405-1.405h4.792c0.776,0,1.406,0.63,1.406,1.405V278.353z"/>
		<path fill-rule="evenodd" clip-rule="evenodd" fill="#102F41" d="M326.904,287.121c0,0.741-0.602,1.345-1.346,1.345h-30.904
			c-0.744,0-1.347-0.603-1.347-1.345v-1.381c0-0.744,0.603-1.348,1.347-1.348h30.904c0.745,0,1.346,0.603,1.346,1.348V287.121z"/>
		<path fill-rule="evenodd" clip-rule="evenodd" fill="#102F41" d="M290.56,288.826c0,0.775-0.629,1.407-1.406,1.407h-4.792
			c-0.775,0-1.405-0.632-1.405-1.407v-4.791c0-0.777,0.629-1.404,1.405-1.404h4.792c0.776,0,1.406,0.627,1.406,1.404V288.826z"/>
		<path fill-rule="evenodd" clip-rule="evenodd" fill="#058486" d="M317.101,229.751c0,2.659-2.155,4.812-4.812,4.812h-16.916
			c-2.659,0-4.813-2.153-4.813-4.812V225.8c0-2.658,2.154-4.814,4.813-4.814h16.916c2.656,0,4.812,2.155,4.812,4.814V229.751z"/>
	</g>
	<g>
		<circle fill="#F6B344" cx="299.335" cy="46.083" r="28.992"/>
		<path fill="#102F41" d="M317.41,40.426h-9.564l-6.413-11.959c-0.243-0.453-0.708-0.742-1.222-0.757
			c-0.514-0.02-0.997,0.242-1.268,0.679l-7.465,12.037h-9.282c-0.634,0-1.148,0.516-1.148,1.149v3.609
			c0,0.635,0.515,1.147,1.148,1.147h1.154c0.01,0.041,0.017,0.079,0.029,0.119l3.03,13.516c0.416,1.44,1.983,2.62,3.482,2.62h9.913
			h9.914c1.499,0,3.064-1.18,3.48-2.62l3.031-13.516c0.011-0.04,0.018-0.078,0.028-0.119h1.153c0.634,0,1.149-0.513,1.149-1.147
			v-3.609C318.559,40.941,318.043,40.426,317.41,40.426z M300.076,32.022l4.505,8.403h-4.778h-4.94L300.076,32.022z"/>
	</g>
	<g>
		<path fill="#F6B344" d="M266.017,96.434c0,8.716-7.879,19.222-14.08,23.409c-7.227,4.879-17.496-14.693-17.496-23.409
			c0-8.724,7.069-15.791,15.788-15.791C258.949,80.643,266.017,87.71,266.017,96.434z"/>
		<g>
			<g>
				<g>
					<path fill="#ED6245" d="M274.048,79.508c0.072-0.47-0.061-0.946-0.359-1.321c-0.177-0.221-0.355-0.438-0.535-0.655
						c-0.307-0.361-0.747-0.583-1.227-0.608c-0.467-0.025-0.936,0.143-1.279,0.47l-3.077,2.926
						c-0.647,0.623-0.708,1.643-0.137,2.337c0.038,0.04,0.066,0.081,0.104,0.126c0.565,0.698,1.577,0.841,2.316,0.32l3.474-2.436
						C273.717,80.394,273.977,79.977,274.048,79.508z"/>
				</g>
				<g>
					<path fill="#ED6245" d="M249.805,74.507c0.052-0.004,0.105-0.004,0.155-0.004c0.901-0.007,1.644-0.704,1.701-1.607l0.273-4.233
						c0.029-0.473-0.135-0.936-0.462-1.282c-0.319-0.349-0.775-0.543-1.246-0.546c-0.286,0-0.567,0.003-0.853,0.007
						c-0.473,0.012-0.921,0.22-1.237,0.572c-0.315,0.354-0.473,0.824-0.43,1.295l0.364,4.229
						C248.15,73.832,248.903,74.519,249.805,74.507z"/>
				</g>
				<g>
					<path fill="#ED6245" d="M228.365,102.037c-0.207-0.877-1.055-1.437-1.944-1.298l-4.193,0.686
						c-0.468,0.075-0.882,0.341-1.148,0.736c-0.263,0.389-0.356,0.873-0.255,1.335c0.061,0.276,0.13,0.552,0.202,0.824
						c0.115,0.462,0.413,0.852,0.831,1.071c0.415,0.227,0.906,0.288,1.357,0.129l4.044-1.299c0.855-0.278,1.358-1.167,1.145-2.038
						C228.39,102.143,228.376,102.088,228.365,102.037z"/>
				</g>
				<g>
					<path fill="#ED6245" d="M232.438,83.203c0.036-0.042,0.065-0.086,0.099-0.126c0.557-0.712,0.469-1.728-0.198-2.331l-3.14-2.855
						c-0.353-0.315-0.819-0.476-1.291-0.441c-0.47,0.041-0.909,0.269-1.204,0.638c-0.18,0.223-0.354,0.449-0.525,0.676
						c-0.286,0.378-0.404,0.854-0.324,1.324c0.08,0.463,0.348,0.875,0.74,1.142l3.534,2.354
						C230.877,84.08,231.888,83.914,232.438,83.203z"/>
				</g>
				<g>
					<path fill="#ED6245" d="M279.327,101.561c-0.275-0.381-0.695-0.644-1.164-0.707l-4.198-0.596
						c-0.891-0.122-1.729,0.46-1.917,1.339c-0.022,0.046-0.033,0.111-0.046,0.16c-0.207,0.878,0.316,1.746,1.183,2.009l4.065,1.206
						c0.463,0.132,0.946,0.076,1.353-0.153c0.408-0.238,0.703-0.639,0.811-1.095c0.064-0.288,0.125-0.56,0.18-0.83
						C279.701,102.428,279.598,101.951,279.327,101.561z"/>
				</g>
			</g>
		</g>
		<path fill="#F1E4C4" d="M251.148,77.334h-2.333c-9.92,0.628-17.829,8.922-17.829,19.061c0,6.968,3.076,12.533,8.386,15.825
			c0,0-0.045,12.663-0.045,12.845c0,3.606,4.756,6.531,10.622,6.531c5.866,0,10.621-2.925,10.621-6.531
			c0-0.055,0.021-12.845,0.021-12.845c5.311-3.292,8.385-8.857,8.385-15.825C268.977,86.256,261.07,77.962,251.148,77.334z
			 M256.606,108.069l-1.069,0.557v5.089c0,0.869-0.471,3.535-5.555,3.535c-5.084,0-5.555-2.666-5.555-3.535v-5.094l-1.07-0.552
			c-5.367-2.759-6.493-7.69-6.493-11.33c0-7.301,5.879-13.242,13.117-13.262c7.239,0.02,13.118,5.961,13.118,13.262
			C263.1,100.381,261.973,105.312,256.606,108.069z"/>
	</g>
	<g>
		<polygon fill="#FFFFFF" points="234.67,25.541 234.75,25.568 234.67,25.429 		"/>
		<path fill="#0C5054" d="M234.731,6.312c-0.02,0-0.04,0.002-0.061,0.002c-8.376,0.026-15.457,5.553-17.823,13.156l17.823,6.071
			v-0.112l0.08,0.14l17.543,5.977c0.752-2.026,1.164-4.219,1.164-6.507C253.457,14.696,245.073,6.312,234.731,6.312z"/>
		<path fill="#F6B344" d="M234.75,25.568l-0.08-0.027l-17.823-6.071c-0.547,1.759-0.842,3.629-0.842,5.568
			c0,10.321,8.351,18.69,18.665,18.724c0.02,0,0.041,0.002,0.061,0.002c3.293,0,6.389-0.852,9.076-2.345L234.75,25.568z"/>
		<path fill="#F1E4C4" d="M252.293,31.545l-17.543-5.977l9.057,15.851C247.693,39.261,250.73,35.761,252.293,31.545z"/>
	</g>
	<g>
		
			<rect x="158.253" y="4.542" transform="matrix(0.9694 0.2456 -0.2456 0.9694 10.2497 -43.2631)" fill="#FFFFFF" width="40.711" height="29.855"/>
		
			<rect x="166.748" y="12.055" transform="matrix(0.9694 0.2456 -0.2456 0.9694 8.7999 -43.8308)" fill="#102F41" width="26.811" height="2.632"/>
		
			<rect x="165.001" y="18.951" transform="matrix(0.9694 0.2456 -0.2456 0.9694 10.4387 -43.1876)" fill="#102F41" width="26.813" height="2.631"/>
		
			<rect x="163.254" y="25.847" transform="matrix(0.9694 0.2456 -0.2456 0.9694 12.0815 -42.5543)" fill="#102F41" width="26.812" height="2.632"/>
	</g>
</g>
</svg>
