<?xml version="1.0" encoding="iso-8859-1"?>
<!-- Generator: Adobe Illustrator 17.0.0, SVG Export Plug-In . SVG Version: 6.00 Build 0)  -->
<!DOCTYPE svg PUBLIC "-//W3C//DTD SVG 1.1//EN" "http://www.w3.org/Graphics/SVG/1.1/DTD/svg11.dtd">
<svg version="1.1" xmlns="http://www.w3.org/2000/svg" xmlns:xlink="http://www.w3.org/1999/xlink" x="0px" y="0px" width="128px"
	 height="128px" viewBox="0 0 128 128" style="enable-background:new 0 0 128 128;" xml:space="preserve">
<g id="icons">
	<g>
		<circle style="fill:#F2CF61;" cx="64" cy="64" r="64"/>
		<g>
			<g>
				<path style="fill:#F5F5F5;" d="M47,15h44c1.1,0,2.073,0.9,2.073,2v82c0,1.1-0.974,2-2.073,2H29c-1.1,0-1.927-0.9-1.927-2V36
					L47,15z"/>
				<path style="fill:#E6E6E6;" d="M45,36c1.1,0,2.073-0.9,2.073-2V15L27,36H45z"/>
			</g>
			<circle style="fill:#2179A6;" cx="87" cy="95" r="13"/>
			<path style="fill:#F5F5F5;" d="M87.073,103c-0.552,0-1-0.447-1-1V88c0-0.553,0.448-1,1-1c0.552,0,1,0.447,1,1v14
				C88.073,102.553,87.625,103,87.073,103z"/>
			<path style="fill:#F5F5F5;" d="M92,94c-0.256,0-0.512-0.098-0.707-0.293L87,89.414l-4.293,4.293
				c-0.391,0.391-1.023,0.391-1.414,0c-0.391-0.391-0.391-1.023,0-1.414l5-5c0.391-0.391,1.023-0.391,1.414,0l5,5
				c0.391,0.391,0.391,1.023,0,1.414C92.512,93.902,92.256,94,92,94z"/>
		</g>
	</g>
</g>
<g id="header">
</g>
</svg>
