<?xml version="1.0" encoding="iso-8859-1"?>
<!-- Generator: Adobe Illustrator 17.0.0, SVG Export Plug-In . SVG Version: 6.00 Build 0)  -->
<!DOCTYPE svg PUBLIC "-//W3C//DTD SVG 1.1//EN" "http://www.w3.org/Graphics/SVG/1.1/DTD/svg11.dtd">
<svg version="1.1" id="&#x56FE;&#x5C42;_1" xmlns="http://www.w3.org/2000/svg" xmlns:xlink="http://www.w3.org/1999/xlink" x="0px"
	 y="0px" width="499.304px" height="776.693px" viewBox="0 0 499.304 776.693" style="enable-background:new 0 0 499.304 776.693;"
	 xml:space="preserve">
<path style="fill:#E5A723;" d="M4.595,100.573h7.397h0.93v0.909v573.731h-0.001v0.91h-0.93H4.595H3.666v-0.91V101.482v-0.909H4.595z
	 M400.798,762.974H98.505H97.58v0.916l0.001,0.001h-0.002v7.398l0.001,0.001v0.915h0.924h302.294h0.925v-0.916l-0.001-0.001h0.001
	v-7.398v-0.916H400.798L400.798,762.974z M98.505,4.489L98.505,4.489H97.58v0.916l-0.001,0.001v7.397h0.001v0.918h0.924h302.294
	h0.001h0.924v-0.918V5.406V4.489h-0.925H98.505z M36.206,740.533c0.559-0.725,0.965-1.137,0.965-1.137s-0.675,0.512-1.704,1.137
	c-1.603,0.973-4.07,2.219-6.213,2.219c-3.52,0-9.459-1.119-15.178,1.789c-5.717,2.908-4.619,7.385-4.619,7.385
	s0.66-0.895,1.98-2.461c1.319-1.566,4.619-0.896,5.499,0.893c0.88,1.791,3.959,1.791,5.939,1.119
	c1.979-0.67,3.738-0.445,3.738-0.445c-1.797,3.656-1.918,5.295-1.436,6.359h0.002c0.52,1.152,1.745,1.633,2.315,3.259
	c1.1,3.133-3.079,6.488-3.079,6.488c4.397,0.67,6.817-2.908,7.917-7.383c0.22-0.894,0.378-1.664,0.489-2.365H32.82
	c0.452-2.798,0.171-4.479,0.171-8.597C32.991,745.252,34.97,742.133,36.206,740.533L36.206,740.533z M60.411,767.062
	c0,0,2.136-3.162,2.759-9.672h-2.583c0.033,0.93-0.018,1.92-0.176,2.961c-1.319,8.725-9.018,8.95-12.536,8.725
	c-3.52-0.225-4.18-4.027-2.64-4.25c1.539-0.225,2.199-2.463,2.199-2.463h-6.158c-1.502-1.328-2.346-3.09-2.776-4.973
	c-1.021-4.449,0.267-9.562,0.576-11.135c0.441-2.236-0.219-4.027-0.219-4.027c-3.18,5.236-4.068,10.047-2.949,15.162
	c0.508,2.319,1.426,4.7,2.728,7.211c1.002,1.93,2.057,3.505,3.227,4.772c-1.826-0.875-4.912,0.004-4.912,0.004l-0.219-1.344
	c0-2.236-1.541-3.356-4.18-2.461c-2.64,0.895-1.98,3.805-1.98,3.805s1.321-0.225,2.64-1.568c1.319-1.342,1.101,1.791,1.101,1.791
	c-0.88,4.922-7.919,2.684-10.339-0.447c-1.521-1.971-1.738-7.746-1.69-11.762h0.001c0.027-2.367,0.15-4.123,0.15-4.123
	c-16.716,4.252-18.696-3.803-18.696-7.383s3.079-4.475,5.28-4.252c2.199,0.224-1.321,5.371-1.321,5.371
	c1.98-0.672,3.74-2.686,3.52-5.147c-0.052-0.576-0.322-1.006-0.702-1.324c-1.246-1.047-3.698-0.912-3.698-0.912
	c0.116-1.885-0.135-3.397-0.686-4.504c-0.495-0.998-1.235-1.666-2.173-1.984c-1.312-0.446-2.624,0.974-3.36,1.984
	C0.224,735.633,0,736.041,0,736.041s0,1.119,2.859-0.448c2.86-1.566,1.76,2.684,1.76,2.684c-0.399,0.768-0.761,1.52-1.082,2.256
	c-2.871,6.576-2.61,11.887,1.741,14.301c4.839,2.686,15.397,2.014,15.397,2.014c-0.031,0.184-0.06,0.363-0.088,0.543v-0.001
	c-1.943,12.539,3.862,16.25,6.247,17.131c2.42,0.896,9.017,0,10.337-1.566c1.321-1.565,2.419-1.565,3.739-1.119
	c1.32,0.447,0,4.252,0,4.252s2.86-2.016,2.201-5.146c-0.039-0.187-0.098-0.355-0.17-0.51c3.579,3.106,8.288,3.68,15.71,2.446
	c10.778-1.789,10.339,3.803,10.339,3.803s1.1,0.449,0-4.25C67.89,767.734,60.411,767.062,60.411,767.062z M40.492,737.551
	c0.524,1.037,0.859,2.042,1.072,2.982h-0.001c0.455,2.022,0.325,3.727,0.191,4.74c0,0,2.916,0.793,3.596-2.078
	c0.184-0.777-0.004-1.699-0.415-2.662h0.001c-0.818-1.916-2.528-3.992-3.995-5.416c-0.523-0.506-1.013-0.928-1.421-1.233
	c-2.139-1.584-4.765-2.278-6.318-1.682c-1.555,0.592-3.207,2.772-3.207,2.772s2.661-0.209,5.338,0.143
	C37.533,735.406,39.745,736.074,40.492,737.551z M8.289,735.117c1.074,0.881,2.34,1.701,3.808,2.488
	c2.738,1.471,5.315,2.457,7.828,2.928h6.597c2.478-0.481,4.971-1.518,7.57-3.15c0,0-1.76-0.67-3.958-0.223
	c-2.171,0.44-11.199,2.842-15.664-2.043h0c-0.059-0.065-0.117-0.129-0.174-0.195v-6.264c0,0-2.199,0.67-2.419,2.236
	c-0.22,1.566-3.959,0.895-4.179-2.684c-0.219-3.58,0-11.41,8.579-12.754c8.578-1.342,13.417,4.699,12.318,9.174
	c-1.101,4.475-3.52,5.369-5.28,4.25s-4.398-4.473-1.981-4.473c2.42,0,1.542,0.894,2.86,2.012c1.321,1.119,1.539-3.131,1.539-3.131
	l-3.079-0.896l-1.76-3.131c0,0-0.88,2.236-1.979,2.236c-1.101,0-3.299,0-3.52-1.789l-1.1,1.789c0,0-4.4-0.225-4.4,2.236
	c0,2.463,0.88,2.238,0.88,2.238s1.762-3.58,2.86-1.342c1.099,2.236,5.059,10.291,8.798,10.291c3.738,0,7.919-7.383,9.678-8.725
	c1.76-1.344,3.959-2.908,3.959-2.908l-4.619-0.672c0,0-3.739-10.516-10.997-10.068c-7.26,0.449-10.778,2.908-10.778,2.908
	s-0.335-3.838-2.184-6.463h0.001c-0.753-1.068-1.757-1.936-3.093-2.26c-4.62-1.119-4.181,0-4.181,0s2.084-0.17,3.276,2.26
	c0.743,1.516,1.141,4.045,0.464,8.256C2.525,726.178,3.573,731.246,8.289,735.117z M51.393,747.822
	c3.874-0.984,8.941,2.713,9.194,9.568h2.583c0.039-0.414,0.075-0.846,0.101-1.291c0.439-7.383-9.898-11.186-9.898-11.186
	l-0.615-4.38h0.001l-0.045-0.318l-0.221,0.317h-0.001v0.001c-0.472,0.68-1.619,2.328-2.637,3.709
	c-1.321,1.789-8.579,6.041-8.579,9.844c0,1.109,0.673,2.236,1.682,3.305h0.001c2.449,2.6,6.877,4.851,8.433,5.644
	c2.201,1.117-1.319,2.908-1.319,2.908s-0.218,0.896,2.199,0.896c2.42,0,2.201-4.477,2.201-4.477l1.758-1.119
	c-1.758-0.223-1.758-2.459-1.758-3.578c0-0.093,0.014-0.182,0.042-0.274h0c0.306-0.986,2.157-1.738,2.157-1.738l-3.079-1.789
	l-0.88-3.133c0,0-4.179,0.225-3.079,1.566c1.099,1.342,1.979,0.447,1.979,2.908s-3.299-0.223-4.399-2.014
	C46.115,751.4,46.995,748.939,51.393,747.822z M16.664,757.39L16.664,757.39c-1.836-0.353-4.569-0.633-7.319,0H9.344
	c-2.424,0.561-4.861,1.829-6.704,4.379l5.498,0.67c0,0-3.299,2.685-4.399,5.818c-0.66,2.461-0.66,4.697-0.66,4.697
	s5.498,1.789,10.117-6.488l0.661,6.266c0,0,5.498-0.225,5.059-14.768C18.916,757.964,18.04,757.656,16.664,757.39z M26.522,740.533
	h-6.597C22.156,740.951,24.334,740.959,26.522,740.533z M78.227,745.809c0,0-2.419-1.567-4.398-1.344
	c-1.981,0.224-3.079,0.224-5.28-0.223c-2.199-0.447-5.059,2.238-4.398,6.041c0.247,2.898,0.354,5.439,0.402,7.107
	c0.036,1.297,0.038,2.065,0.038,2.065s0.799-0.869,2.038-2.065h-0.001c2.258-2.175,5.976-5.423,8.961-6.435
	c0,0-0.22-2.238-1.98-2.238C73.609,748.717,74.489,747.373,78.227,745.809z M32.112,707.179c-0.232-1.183-0.343-2.052-0.362-2.907
	h0.001c-0.017-0.762,0.039-1.512,0.143-2.461c0.219-2.014-1.321-4.475-1.321-4.475c-1.54,3.802-2.859,4.697-2.859,4.697
	c0-1.789-2.199-2.012-2.199-2.012c-0.44,1.336-1.304,2.814-2.319,4.25c-1.241,1.76-2.707,3.449-3.883,4.72h12.548
	C32.131,708.392,32.227,707.763,32.112,707.179z M19.312,708.991L19.312,708.991c-1.239,1.341-2.156,2.216-2.156,2.216
	s3.959,0,9.017,0.447c2.764,0.496,4.926-0.963,5.688-2.662L19.312,708.991C19.312,708.992,19.313,708.991,19.312,708.991
	L19.312,708.991z M86.772,758.71c-0.855-0.596-1.552-0.986-2.298-1.32c-0.596-0.265-1.225-0.498-1.995-0.777
	c-2.924-0.982-4.076-1.226-5.629-1.285c-1.224,0-2.777,0.085-5.103,2.062c-0.182,0.156-0.366,0.32-0.557,0.5
	c-2.64,2.461-6.599,5.145-6.599,5.145s1.98,0,3.52-1.119c2.199-1.342,4.839-3.354,7.038-3.803c2.2-0.447,6.819-0.895,11.219,2.685
	c3.588,2.481,3.298,5.592,3.298,5.592c-0.219,5.816-3.739,7.607-7.259,6.936c-3.518-0.67-1.76-6.711-1.76-6.711l1.541-0.225
	c2.418,0,2.859,3.133,2.859,3.133s0-2.014-0.441-3.355c-0.439-1.342-4.178-4.697-5.058-4.475c-0.88,0.223-3.081,3.133-3.081,3.133
	s-1.319-1.344-3.518-1.791c-2.199-0.447-5.059,2.463-5.059,2.463s3.738-1.344,4.618,1.117s0.661,4.252,3.081,6.488
	c2.419,2.238,7.258,4.697,12.316,1.566c2.828-1.31,4.175-3.428,4.001-8.891C91.577,762.338,89.212,760.417,86.772,758.71z
	 M51.669,724.872c-1.653,0.892-7.639,3.42-7.679,3.367l-0.972-1.287c0,0-0.528-1.967-0.621-3.533
	c-0.081-1.361-0.777-1.212-1.128-1.021c-0.192,0.101-2.236,2.377-2.722,5.148c-0.486,2.774-0.388,3.268-0.388,3.268
	s2.785,1.477,5.152,4.303c0.757,0.904,1.473,1.949,2.039,3.125c0,0,5.636-2.178,9.33-1.287c0,0-0.702-0.971-1.935-1.838
	c-1.066-0.75-2.528-1.424-4.285-1.333l-0.681-1.188l5.541-7.824C53.32,724.772,53.32,723.981,51.669,724.872z M16.803,704.271
	c-0.683,1.155-1.447,2.307-2.065,3.358c-0.309,0.437-0.531,0.91-0.691,1.363h-0.001c-0.411,1.17-0.41,2.215-0.41,2.215
	s0.615-0.942,1.524-2.215h0.001c0.974-1.363,2.284-3.109,3.535-4.498l0.197-0.223c2.246-2.56,2.662-4.289,2.663-5.593
	c0-0.756-0.638-2.336-1.434-4.604c-0.618-1.766-1.687-4.57-2.744-6.135c-1.004-1.793-1.837-2.72-3.574-3.779
	c-3.117-1.746-6.725-1.053-8.232-0.17c-1.156,0.656-2.315,1.736-3.372,3.502c-3.079,5.146-0.659,10.066,1.54,12.529
	c2.198,2.461,3.959,2.237,6.378,3.131c0.609,0.224,0.981,0.633,1.195,1.119h-0.001c0.644,1.448-0.095,3.58-0.095,3.58
	s1.72-1.75,2.286-3.58h0.001c0.164-0.529,0.233-1.064,0.133-1.566c-0.441-2.238-1.76-3.578-1.76-3.578s2.86-2.238,3.079-3.133
	c0.22-0.896-3.08-4.699-4.399-5.146c-1.32-0.447-3.299-0.447-3.299-0.447s3.079,0.447,3.079,2.908l-0.22,1.566
	c0,0-5.937,1.791-6.597-1.789c-0.662-3.582,1.098-7.16,6.817-7.385c0,0,3.008-0.09,5.499,3.357c3.52,4.472,3.081,9.172,2.64,11.408
	C18.243,701.654,17.576,702.966,16.803,704.271z M23.974,7.541c2.42-3.132,9.459-5.368,10.339-0.446c0,0,0.218,3.133-1.101,1.789
	c-1.319-1.342-2.64-1.566-2.64-1.566s-0.66,2.91,1.98,3.804c2.639,0.896,4.18-0.224,4.18-2.461l0.219-1.343
	c0,0,3.086,0.879,4.912,0.004c-1.17,1.267-2.225,2.842-3.227,4.772c-1.304,2.512-2.223,4.892-2.729,7.209h0.001
	c-1.117,5.116-0.231,9.928,2.948,15.164c0,0,0.66-1.79,0.219-4.027c-0.309-1.572-1.597-6.685-0.577-11.137h-0.001
	c0.431-1.881,1.275-3.643,2.778-4.973h6.158c0,0-0.66-2.236-2.199-2.46c-1.54-0.225-0.88-4.026,2.64-4.25
	c3.518-0.226,11.217,0,12.536,8.725c0.158,1.043,0.209,2.028,0.176,2.958h2.584c-0.622-6.509-2.759-9.67-2.759-9.67
	s7.479-0.672,8.579-5.37c1.1-4.699,0-4.251,0-4.251s0.439,5.594-10.339,3.805c-7.422-1.233-12.131-0.661-15.71,2.445
	c0.072-0.155,0.13-0.323,0.17-0.509c0.659-3.132-2.201-5.147-2.201-5.147s1.32,3.804,0,4.253c-1.32,0.446-2.418,0.446-3.739-1.119
	c-1.32-1.566-7.917-2.462-10.337-1.566c-2.385,0.881-8.191,4.59-6.246,17.129h1.696C22.236,15.288,22.453,9.514,23.974,7.541z
	 M9.355,19.302h7.305v0.001c1.378-0.266,2.256-0.572,2.256-0.572c0.439-14.543-5.059-14.768-5.059-14.768l-0.661,6.266
	C8.578,1.951,3.079,3.74,3.079,3.74s0,2.236,0.66,4.697c1.1,3.132,4.399,5.818,4.399,5.818l-5.498,0.67
	C4.487,17.48,6.926,18.746,9.355,19.302z M20.588,19.304L20.588,19.304v-0.001V19.304z M63.272,20.597
	c-0.026-0.444-0.06-0.876-0.101-1.293h-2.583c-0.255,6.854-5.32,10.555-9.194,9.57c-4.398-1.119-5.278-3.58-4.179-5.369
	c1.1-1.79,4.399-4.475,4.399-2.014c0,2.46-0.88,1.566-1.979,2.908c-1.1,1.342,3.079,1.566,3.079,1.566l0.88-3.132l3.079-1.791
	c0,0-1.849-0.753-2.157-1.739c-0.028-0.09-0.042-0.18-0.041-0.273c0-1.119,0-3.355,1.758-3.58l-1.758-1.119
	c0,0,0.218-4.475-2.201-4.475c-2.418,0-2.199,0.896-2.199,0.896s3.52,1.789,1.319,2.908c-1.559,0.793-5.988,3.045-8.438,5.643
	c-1.008,1.069-1.68,2.197-1.679,3.307c0,3.803,7.258,8.053,8.579,9.843c1.017,1.383,2.166,3.03,2.638,3.71h0.001l0.219,0.315
	l0.045-0.315h0l0.615-4.381C53.374,31.782,63.711,27.979,63.272,20.597z M26.173,65.04c-5.058,0.448-9.017,0.448-9.017,0.448
	s0.917,0.873,2.156,2.212h12.549C31.099,66.003,28.937,64.544,26.173,65.04z M16.66,19.303H9.355
	C12.097,19.932,14.824,19.656,16.66,19.303z M73.609,27.977c1.76,0,1.98-2.236,1.98-2.236c-2.982-1.012-6.701-4.262-8.959-6.439
	h-0.001c-1.239-1.192-2.038-2.063-2.038-2.063s-0.002,0.77-0.038,2.063v0.001c-0.048,1.67-0.155,4.212-0.402,7.109
	c-0.661,3.804,2.199,6.488,4.398,6.04c2.201-0.447,3.299-0.447,5.28-0.224c1.979,0.224,4.398-1.341,4.398-1.341
	C74.489,29.32,73.609,27.977,73.609,27.977z M10.116,73.543c-2.419,0.895-4.179,0.671-6.378,3.132
	c-2.2,2.46-4.619,7.382-1.54,12.528c1.057,1.765,2.216,2.846,3.372,3.503c1.508,0.88,5.116,1.575,8.232-0.171
	c1.737-1.058,2.57-1.987,3.574-3.78c1.057-1.565,2.126-4.368,2.744-6.133c0.796-2.267,1.434-3.85,1.434-4.604
	c0-1.305-0.416-3.032-2.66-5.594l-0.199-0.225c-1.25-1.387-2.56-3.135-3.535-4.499h0.001c-0.909-1.274-1.524-2.212-1.524-2.212
	s-0.001,1.043,0.41,2.212h-0.001c0.16,0.455,0.384,0.93,0.691,1.368c0.619,1.05,1.384,2.201,2.067,3.356
	c0.771,1.305,1.438,2.617,1.671,3.803c0.44,2.238,0.879,6.937-2.64,11.411c-2.491,3.446-5.499,3.355-5.499,3.355
	c-5.718-0.224-7.478-3.804-6.817-7.383c0.659-3.58,6.597-1.791,6.597-1.791l0.22,1.566c0,2.463-3.079,2.908-3.079,2.908
	s1.979,0,3.299-0.445c1.32-0.448,4.619-4.252,4.399-5.146c-0.219-0.896-3.079-3.134-3.079-3.134s1.32-1.342,1.76-3.578
	c0.1-0.501,0.032-1.038-0.133-1.566c-0.564-1.831-2.286-3.58-2.286-3.58s0.741,2.133,0.095,3.58
	C11.096,72.908,10.726,73.318,10.116,73.543z M72.948,13.659c2.199-0.447,3.518-1.79,3.518-1.79s2.201,2.909,3.081,3.132
	c0.88,0.223,4.619-3.132,5.058-4.474c0.441-1.342,0.441-3.357,0.441-3.357s-0.441,3.132-2.859,3.132l-1.541-0.223
	c0,0-1.758-6.041,1.76-6.713c3.52-0.67,7.04,1.12,7.259,6.936c0,0,0.29,3.111-3.298,5.594c-4.4,3.581-9.019,3.133-11.219,2.686
	c-2.199-0.449-4.839-2.461-7.038-3.803c-1.54-1.119-3.52-1.119-3.52-1.119s3.959,2.685,6.599,5.146
	c0.193,0.179,0.377,0.343,0.559,0.497c2.325,1.975,3.878,2.063,5.101,2.063c1.553-0.057,2.705-0.301,5.629-1.284
	c0.768-0.278,1.397-0.512,1.993-0.779c0.748-0.334,1.445-0.721,2.3-1.32c2.44-1.706,4.805-3.627,5.134-7.069
	c0.174-5.463-1.173-7.58-4.001-8.889c-5.058-3.132-9.897-0.671-12.316,1.567c-2.42,2.236-2.201,4.027-3.081,6.487
	c-0.88,2.461-4.618,1.118-4.618,1.118S70.749,14.105,72.948,13.659z M41.563,36.162c-0.213,0.938-0.549,1.946-1.072,2.983
	c-0.746,1.478-2.964,2.145-5.168,2.432c-2.674,0.351-5.329,0.143-5.329,0.143s1.652,2.179,3.207,2.773
	c1.553,0.595,4.179-0.098,6.318-1.683c0.408-0.303,0.897-0.727,1.418-1.233h0.001c1.468-1.422,3.178-3.499,3.998-5.415h0
	c0.41-0.963,0.599-1.885,0.415-2.661c-0.68-2.872-3.596-2.081-3.596-2.081c0.133,1.015,0.264,2.721-0.191,4.742H41.563z
	 M45.35,38.453c-0.566,1.178-1.282,2.219-2.041,3.124c-2.365,2.824-5.15,4.302-5.15,4.302s-0.098,0.495,0.388,3.267
	c0.486,2.773,2.53,5.046,2.722,5.15c0.351,0.192,1.047,0.337,1.128-1.022c0.093-1.566,0.621-3.532,0.621-3.532l0.972-1.288
	c0.04-0.055,6.026,2.475,7.679,3.366c1.651,0.893,1.651,0.1,1.651,0.1l-5.541-7.823l0.681-1.189
	c1.756,0.092,3.218-0.582,4.282-1.331c1.237-0.868,1.938-1.838,1.938-1.838C50.986,40.632,45.35,38.453,45.35,38.453z M14.47,41.577
	c4.463-4.887,13.492-2.483,15.664-2.041c2.199,0.447,3.958-0.225,3.958-0.225c-2.595-1.628-5.083-2.667-7.558-3.149h0.001
	c-2.196-0.428-4.381-0.42-6.621,0c-2.509,0.471-5.084,1.459-7.817,2.926c-1.47,0.79-2.734,1.607-3.81,2.489H14.47z M19.312,67.701
	L19.312,67.701C19.313,67.701,19.312,67.7,19.312,67.701L19.312,67.701z M0.219,69.963c0,0-0.439,1.119,4.181,0
	c1.336-0.325,2.339-1.194,3.093-2.263c1.848-2.624,2.183-6.459,2.183-6.459s3.518,2.46,10.778,2.908
	c7.258,0.448,10.997-10.068,10.997-10.068l4.619-0.671c0,0-2.199-1.565-3.959-2.908c-1.759-1.343-5.94-8.727-9.678-8.727
	c-3.739,0-7.699,8.055-8.798,10.292c-1.098,2.236-2.86-1.342-2.86-1.342s-0.88-0.224-0.88,2.236c0,2.461,4.4,2.237,4.4,2.237
	l1.1,1.79c0.221-1.79,2.419-1.79,3.52-1.79c1.099,0,1.979,2.238,1.979,2.238l1.76-3.132l3.079-0.896c0,0-0.218-4.251-1.539-3.132
	c-1.318,1.117-0.44,2.013-2.86,2.013c-2.417,0,0.221-3.355,1.981-4.474s4.179-0.224,5.28,4.25c1.099,4.475-3.74,10.515-12.318,9.174
	c-8.579-1.343-8.798-9.174-8.579-12.754c0.22-3.579,3.959-4.25,4.179-2.685c0.22,1.565,2.419,2.237,2.419,2.237v-6.265
	c0.057-0.065,0.115-0.129,0.174-0.195H8.287c-4.716,3.87-5.762,8.942-4.328,17.87c0.677,4.212,0.279,6.736-0.464,8.253
	C2.303,70.131,0.219,69.963,0.219,69.963z M3.959,43.563c0.938-0.318,1.676-0.988,2.173-1.986H0.601
	C1.337,42.588,2.649,44.008,3.959,43.563z M22.876,25.217c-1.98-0.67-5.06-0.67-5.939,1.119c-0.88,1.791-4.179,2.461-5.499,0.896
	c-1.32-1.566-1.98-2.462-1.98-2.462s-1.099,4.475,4.619,7.383c5.719,2.908,11.658,1.791,15.178,1.791
	c2.145,0,4.613,1.244,6.218,2.219h0.001c1.025,0.622,1.697,1.136,1.697,1.136s-0.404-0.413-0.962-1.136h0
	c-1.235-1.6-3.216-4.718-3.216-8.261c0-4.115,0.279-5.8-0.171-8.599h-0.001c-0.111-0.701-0.268-1.469-0.49-2.363
	c-1.1-4.475-3.519-8.055-7.917-7.383c0,0,4.18,3.355,3.079,6.488c-0.571,1.627-1.796,2.107-2.317,3.258h0.001
	c-0.481,1.066-0.36,2.706,1.437,6.362C26.614,25.665,24.854,25.889,22.876,25.217z M6.132,41.577
	c0.551-1.106,0.802-2.618,0.686-4.502c0,0,2.447,0.129,3.694-0.912h0.001c0.382-0.319,0.653-0.748,0.705-1.325
	c0.22-2.46-1.54-4.474-3.52-5.144c0,0,3.52,5.144,1.321,5.368c-2.201,0.224-5.28-0.67-5.28-4.251c0-3.578,1.98-11.633,18.696-7.382
	c0,0-0.123-1.757-0.15-4.125h-1.697l0.087,0.544c0,0-10.558-0.671-15.397,2.014c-4.351,2.415-4.612,7.723-1.741,14.301h0
	c0.321,0.736,0.683,1.487,1.082,2.254c0,0,1.1,4.25-1.76,2.685C0,39.536,0,40.653,0,40.653s0.225,0.408,0.601,0.924H6.132z
	 M31.862,67.701H19.313c1.178,1.272,2.644,2.962,3.887,4.723c1.012,1.435,1.878,2.915,2.316,4.251c0,0,2.199-0.224,2.199-2.015
	c0,0,1.319,0.896,2.859,4.698c0,0,1.54-2.46,1.321-4.475c-0.104-0.948-0.16-1.699-0.143-2.46h-0.001
	c0.019-0.856,0.13-1.724,0.362-2.907C32.228,68.931,32.132,68.301,31.862,67.701z M499.083,706.732c0,0,0.44-1.119-4.179,0
	c-1.338,0.324-2.344,1.192-3.098,2.26c-1.848,2.625-2.181,6.463-2.181,6.463s-3.518-2.459-10.776-2.908
	c-7.258-0.448-10.998,10.068-10.998,10.068l-4.619,0.672c0,0,2.199,1.564,3.959,2.908c1.76,1.342,5.939,8.725,9.678,8.725
	s7.699-8.055,8.798-10.291c1.1-2.238,2.86,1.342,2.86,1.342s0.88,0.225,0.88-2.238c0-2.461-4.399-2.236-4.399-2.236l-1.101-1.789
	c-0.221,1.789-2.419,1.789-3.52,1.789c-1.099,0-1.979-2.236-1.979-2.236l-1.76,3.131l-3.079,0.896c0,0,0.221,4.25,1.54,3.131
	c1.319-1.118,0.441-2.012,2.86-2.012c2.418,0-0.22,3.354-1.98,4.473s-4.179,0.225-5.28-4.25c-1.099-4.475,3.74-10.516,12.319-9.174
	c8.577,1.344,8.798,9.174,8.577,12.754c-0.22,3.579-3.959,4.25-4.179,2.684c-0.22-1.566-2.419-2.236-2.419-2.236v6.264
	c-0.058,0.066-0.115,0.13-0.174,0.195h-0.001c-4.465,4.885-13.492,2.482-15.662,2.043c-2.199-0.447-3.96,0.223-3.96,0.223
	c2.599,1.632,5.09,2.669,7.567,3.15h6.597c2.514-0.471,5.095-1.457,7.831-2.928c1.47-0.787,2.731-1.607,3.805-2.488h0.001
	c4.718-3.871,5.767-8.939,4.333-17.869c-0.676-4.211-0.281-6.74,0.462-8.256C496.998,706.562,499.083,706.732,499.083,706.732z
	 M498.7,735.116c-0.737-1.01-2.047-2.429-3.357-1.983c-0.938,0.318-1.678,0.986-2.173,1.983h0v0.001
	c-0.551,1.107-0.801,2.619-0.685,4.504c0,0-2.454-0.135-3.7,0.912h0.001c-0.382,0.318-0.649,0.748-0.7,1.324
	c-0.219,2.461,1.539,4.475,3.52,5.147c0,0-3.52-5.147-1.319-5.371c2.199-0.223,5.278,0.672,5.278,4.252s-1.98,11.635-18.696,7.383
	c0,0,0.12,1.756,0.149,4.123c0.047,4.016-0.166,9.79-1.69,11.762c-2.419,3.131-9.458,5.369-10.337,0.447c0,0-0.22-3.133,1.099-1.791
	c1.319,1.343,2.64,1.568,2.64,1.568s0.66-2.91-1.978-3.805c-2.64-0.895-4.181,0.225-4.181,2.461l-0.219,1.344
	c0,0-3.086-0.88-4.913-0.004c1.17-1.267,2.225-2.842,3.228-4.772c1.304-2.512,2.219-4.893,2.727-7.211h-2.592
	c-0.432,1.883-1.272,3.645-2.775,4.973h-6.158c0,0,0.659,2.238,2.199,2.463c1.54,0.223,0.88,4.025-2.638,4.25
	c-3.52,0.225-11.219,0-12.538-8.725c-0.158-1.041-0.211-2.031-0.177-2.961h-2.582c0.622,6.51,2.759,9.672,2.759,9.672
	s-7.479,0.672-8.579,5.369c-1.099,4.699,0,4.25,0,4.25s-0.439-5.592,10.339-3.803c7.423,1.234,12.132,0.66,15.71-2.447
	c-0.072,0.155-0.131,0.323-0.17,0.511c-0.659,3.13,2.201,5.146,2.201,5.146s-1.321-3.805,0-4.252c1.32-0.446,2.42-0.446,3.739,1.119
	c1.32,1.566,7.919,2.462,10.337,1.566c2.387-0.881,8.192-4.592,6.247-17.131h0c-0.028-0.18-0.056-0.358-0.087-0.542
	c0,0,10.558,0.672,15.396-2.014c4.352-2.414,4.611-7.725,1.74-14.301h-0.001c-0.321-0.736-0.681-1.488-1.08-2.256
	c0,0-1.101-4.25,1.76-2.684c2.86,1.566,2.86,0.447,2.86,0.447S499.075,735.632,498.7,735.116L498.7,735.116z M447.909,763.035
	c1.558-0.793,5.982-3.044,8.432-5.644h0.002c1.009-1.069,1.684-2.196,1.684-3.305c0-3.803-7.259-8.055-8.578-9.844
	c-1.018-1.381-2.168-3.029-2.64-3.709l-0.22-0.318l-0.044,0.318l-0.614,4.38c0,0-10.337,3.803-9.898,11.186
	c0.026,0.445,0.06,0.877,0.101,1.291h2.582c0.253-6.855,5.321-10.552,9.195-9.568c4.399,1.117,5.278,3.578,4.179,5.369
	c-1.1,1.791-4.4,4.475-4.4,2.014s0.879-1.566,1.98-2.908c1.098-1.341-3.081-1.566-3.081-1.566l-0.878,3.133l-3.079,1.789
	c0,0,1.847,0.752,2.153,1.737h0c0.028,0.092,0.044,0.182,0.043,0.275c0,1.119,0,3.355-1.758,3.578l1.758,1.119
	c0,0-0.219,4.477,2.201,4.477c2.419,0,2.199-0.896,2.199-0.896S445.71,764.152,447.909,763.035z M463.393,757.39
	c1.119-5.115,0.232-9.926-2.946-15.162c0,0-0.661,1.791-0.22,4.027c0.309,1.572,1.595,6.686,0.574,11.135H463.393z M476.427,751.477
	c1.98,0.672,5.059,0.672,5.939-1.119c0.88-1.789,4.179-2.459,5.5-0.893c1.319,1.566,1.979,2.461,1.979,2.461s1.1-4.477-4.619-7.385
	c-5.718-2.908-11.657-1.789-15.176-1.789c-2.144,0-4.615-1.246-6.218-2.219c-1.029-0.625-1.701-1.137-1.701-1.137
	s0.405,0.412,0.964,1.137c1.235,1.6,3.215,4.719,3.215,8.26c0,4.118-0.282,5.799,0.168,8.598h0c0.113,0.702,0.271,1.47,0.493,2.364
	c1.1,4.475,3.52,8.053,7.919,7.383c0,0-4.18-3.355-3.079-6.488c0.569-1.626,1.789-2.108,2.312-3.259h0
	c0.483-1.064,0.364-2.703-1.434-6.359C472.689,751.032,474.449,750.807,476.427,751.477z M484.14,708.992
	c0.908,1.273,1.526,2.215,1.526,2.215s0-1.045-0.412-2.215H484.14z M476.103,704.272L476.103,704.272
	c-1.014-1.437-1.876-2.915-2.314-4.251c0,0-2.201,0.223-2.201,2.012c0,0-1.319-0.895-2.858-4.697c0,0-1.539,2.461-1.321,4.475
	c0.105,0.949,0.158,1.698,0.141,2.46h-0.001c-0.018,0.855-0.127,1.725-0.36,2.908c-0.115,0.584-0.02,1.213,0.25,1.812h12.548
	C478.812,707.72,477.345,706.031,476.103,704.272L476.103,704.272z M473.129,711.654c5.06-0.447,9.018-0.447,9.018-0.447
	s-0.92-0.875-2.159-2.215v-0.001h-0.001c0,0,0,0.001,0.001,0.001H467.44C468.203,710.691,470.365,712.15,473.129,711.654z
	 M487.989,704.271c0.215-0.486,0.588-0.894,1.196-1.12c2.419-0.895,4.179-0.67,6.378-3.131c2.2-2.463,4.619-7.383,1.54-12.529
	c-1.058-1.766-2.217-2.846-3.373-3.502c-1.507-0.883-5.115-1.576-8.231,0.17c-1.736,1.058-2.571,1.986-3.573,3.779
	c-1.059,1.565-2.126,4.369-2.745,6.135c-0.795,2.268-1.434,3.848-1.434,4.604c0,1.305,0.416,3.033,2.66,5.594h0l0.2,0.222
	c1.25,1.389,2.56,3.135,3.533,4.498h1.114c-0.16-0.453-0.38-0.925-0.689-1.363c-0.619-1.05-1.384-2.203-2.067-3.357h0
	c-0.771-1.305-1.437-2.617-1.671-3.805c-0.441-2.236-0.88-6.935,2.64-11.408c2.491-3.447,5.499-3.357,5.499-3.357
	c5.719,0.225,7.479,3.803,6.819,7.385c-0.66,3.58-6.599,1.789-6.599,1.789l-0.22-1.566c0-2.461,3.079-2.908,3.079-2.908
	s-1.979,0-3.3,0.447c-1.319,0.447-4.618,4.25-4.398,5.146c0.219,0.895,3.079,3.133,3.079,3.133s-1.32,1.34-1.76,3.578
	c-0.098,0.501-0.031,1.037,0.132,1.566h-0.001c0.567,1.83,2.287,3.58,2.287,3.58S487.344,705.718,487.989,704.271L487.989,704.271z
	 M434.711,759.455c0,0,0-0.768,0.036-2.065c0.048-1.668,0.157-4.209,0.405-7.107c0.66-3.803-2.201-6.488-4.399-6.041
	c-2.199,0.447-3.3,0.447-5.28,0.223c-1.979-0.223-4.398,1.344-4.398,1.344c3.738,1.564,4.618,2.908,4.618,2.908
	c-1.76,0-1.98,2.238-1.98,2.238c2.984,1.012,6.701,4.26,8.96,6.435h-0.001C433.91,758.585,434.711,759.455,434.711,759.455z
	 M426.356,763.035c-2.201,0.447-3.52,1.791-3.52,1.791s-2.201-2.91-3.079-3.133c-0.882-0.222-4.62,3.133-5.06,4.475
	c-0.44,1.341-0.44,3.355-0.44,3.355s0.44-3.133,2.86-3.133l1.539,0.225c0,0,1.76,6.041-1.76,6.711
	c-3.519,0.671-7.037-1.12-7.258-6.936c0,0-0.289-3.111,3.299-5.592c4.398-3.58,9.016-3.132,11.217-2.685
	c2.201,0.449,4.839,2.461,7.038,3.803c1.54,1.119,3.52,1.119,3.52,1.119s-3.959-2.684-6.599-5.145
	c-0.191-0.18-0.377-0.344-0.559-0.5c-2.325-1.976-3.878-2.062-5.101-2.062c-1.554,0.058-2.706,0.303-5.628,1.285
	c-0.772,0.279-1.402,0.511-2,0.777c-0.746,0.334-1.438,0.725-2.291,1.32c-2.44,1.707-4.806,3.628-5.135,7.068
	c-0.174,5.463,1.173,7.581,4.001,8.891c5.059,3.131,9.898,0.672,12.315-1.566c2.42-2.236,2.201-4.027,3.081-6.488
	s4.618-1.117,4.618-1.117S428.555,762.588,426.356,763.035z M479.374,740.533h-6.597
	C474.967,740.959,477.144,740.951,479.374,740.533z M489.955,757.39L489.955,757.39c-2.749-0.633-5.481-0.353-7.319,0h0v0
	c-1.376,0.266-2.25,0.574-2.25,0.574c-0.439,14.543,5.059,14.768,5.059,14.768l0.661-6.266c4.619,8.277,10.117,6.488,10.117,6.488
	s0-2.236-0.66-4.697c-1.101-3.133-4.398-5.818-4.398-5.818l5.499-0.67C494.82,759.218,492.38,757.951,489.955,757.39z
	 M453.952,738.242c0.567-1.176,1.281-2.221,2.038-3.125c2.367-2.826,5.157-4.302,5.157-4.302s0.095-0.495-0.39-3.268
	c-0.486-2.771-2.53-5.046-2.721-5.148c-0.353-0.192-1.049-0.34-1.13,1.021c-0.093,1.566-0.621,3.533-0.621,3.533l-0.972,1.287
	c-0.04,0.053-6.026-2.474-7.679-3.367c-1.651-0.891-1.651-0.1-1.651-0.1l5.541,7.824l-0.681,1.188
	c-1.756-0.092-3.221,0.582-4.287,1.332c-1.234,0.867-1.934,1.838-1.934,1.838C448.315,736.064,453.952,738.242,453.952,738.242z
	 M463.968,735.117h-5.607c-1.468,1.424-3.18,3.5-3.998,5.416c-0.41,0.963-0.594,1.885-0.411,2.662
	c0.681,2.871,3.596,2.078,3.596,2.078c-0.132-1.014-0.266-2.719,0.189-4.74c0.211-0.94,0.551-1.945,1.074-2.982
	C459.557,736.074,461.766,735.406,463.968,735.117z M469.308,734.974c0,0-1.653-2.18-3.208-2.772
	c-1.554-0.596-4.18,0.098-6.316,1.682c-0.41,0.305-0.901,0.727-1.423,1.232h5.607v0.001
	C466.643,734.765,469.308,734.974,469.308,734.974z M484.832,41.58h0.003c-0.001-0.001-0.002-0.002-0.003-0.003V41.58z
	 M438.891,9.633c0,0-2.137,3.161-2.759,9.67c-0.041,0.417-0.075,0.848-0.102,1.293c-0.439,7.381,9.898,11.185,9.898,11.185
	l0.616,4.381h0.001l0.043,0.316l0.219-0.316h-0.001c0.472-0.68,1.621-2.327,2.641-3.71c1.32-1.79,8.578-6.04,8.578-9.843
	c0-1.11-0.673-2.237-1.681-3.306h0c-2.449-2.598-6.877-4.85-8.435-5.643c-2.199-1.119,1.319-2.908,1.319-2.908
	s0.22-0.896-2.199-0.896c-2.42,0-2.201,4.475-2.201,4.475l-1.758,1.119c1.758,0.224,1.758,2.461,1.758,3.58
	c0,0.093-0.015,0.182-0.043,0.272h-0.001c-0.309,0.986-2.154,1.739-2.154,1.739l3.079,1.791l0.878,3.132c0,0,4.18-0.223,3.081-1.566
	c-1.1-1.342-1.98-0.448-1.98-2.908c0-2.461,3.3,0.224,4.4,2.014c1.099,1.789,0.22,4.25-4.179,5.369
	c-3.874,0.986-8.94-2.716-9.195-9.57c-0.034-0.93,0.019-1.915,0.177-2.958c1.319-8.725,9.018-8.951,12.538-8.725
	c3.518,0.224,4.178,4.025,2.638,4.25c-1.54,0.224-2.199,2.46-2.199,2.46h6.158c1.504,1.33,2.343,3.092,2.775,4.973
	c1.019,4.452-0.266,9.564-0.574,11.137c-0.441,2.237,0.22,4.027,0.22,4.027c3.178-5.235,4.063-10.048,2.946-15.164
	c-0.508-2.318-1.424-4.698-2.727-7.209c-1.002-1.93-2.057-3.505-3.227-4.772c1.826,0.875,4.911-0.004,4.911-0.004l0.219,1.343
	c0,2.237,1.541,3.357,4.181,2.461c2.638-0.894,1.978-3.804,1.978-3.804s-1.321,0.224-2.64,1.566
	c-1.319,1.344-1.099-1.789-1.099-1.789c0.879-4.922,7.918-2.686,10.337,0.446c1.522,1.972,1.738,7.746,1.688,11.761h1.7v0.001
	c1.945-12.538-3.86-16.247-6.247-17.129c-2.418-0.896-9.017,0-10.337,1.566c-1.319,1.565-2.419,1.565-3.739,1.119
	c-1.321-0.449,0-4.253,0-4.253s-2.86,2.015-2.201,5.147c0.039,0.186,0.098,0.354,0.17,0.508c-3.578-3.105-8.287-3.677-15.709-2.444
	c-10.778,1.789-10.339-3.805-10.339-3.805s-1.099-0.448,0,4.251C431.412,8.961,438.891,9.633,438.891,9.633z M463.095,36.162
	c-0.559,0.724-0.964,1.137-0.964,1.137s0.668-0.513,1.694-1.136h0.002c1.603-0.975,4.077-2.219,6.223-2.219
	c3.519,0,9.458,1.117,15.176-1.791c5.719-2.908,4.619-7.383,4.619-7.383s-0.66,0.896-1.979,2.462c-1.321,1.565-4.62,0.895-5.5-0.896
	c-0.88-1.789-3.959-1.789-5.939-1.119c-1.978,0.672-3.738,0.448-3.738,0.448c1.797-3.656,1.917-5.296,1.435-6.362h0
	c-0.521-1.152-1.745-1.631-2.314-3.258c-1.1-3.132,3.079-6.488,3.079-6.488c-4.399-0.672-6.819,2.908-7.919,7.383
	c-0.221,0.894-0.38,1.663-0.492,2.363c-0.45,2.799-0.168,4.483-0.168,8.599C466.31,31.444,464.328,34.562,463.095,36.162
	L463.095,36.162z M453.952,33.501c-0.183,0.776,0.001,1.698,0.413,2.661c0.818,1.916,2.528,3.993,3.997,5.415h-0.001
	c0.521,0.506,1.013,0.93,1.423,1.233c2.137,1.586,4.763,2.278,6.316,1.683c1.555-0.595,3.208-2.773,3.208-2.773
	s-2.657,0.208-5.331-0.143h0.001c-2.204-0.287-4.419-0.954-5.167-2.432c-0.523-1.037-0.863-2.045-1.074-2.983
	c-0.455-2.021-0.321-3.728-0.189-4.742C457.548,31.42,454.633,30.629,453.952,33.501z M482.64,19.303L482.64,19.303
	c1.837,0.353,4.562,0.629,7.306,0h-0.001c2.428-0.556,4.872-1.823,6.718-4.377l-5.499-0.67c0,0,3.297-2.686,4.398-5.818
	c0.66-2.461,0.66-4.697,0.66-4.697s-5.498-1.789-10.117,6.488l-0.661-6.266c0,0-5.498,0.225-5.059,14.768
	C480.385,18.731,481.261,19.037,482.64,19.303z M476.868,23.429c16.716-4.251,18.696,3.804,18.696,7.382
	c0,3.581-3.079,4.475-5.278,4.251c-2.201-0.224,1.319-5.368,1.319-5.368c-1.981,0.67-3.739,2.684-3.52,5.144
	c0.051,0.577,0.319,1.006,0.703,1.325h0.001c1.246,1.041,3.695,0.912,3.695,0.912c-0.116,1.884,0.134,3.396,0.685,4.502h5.529
	c0.377-0.516,0.605-0.924,0.605-0.924s0-1.117-2.86,0.449c-2.86,1.565-1.76-2.685-1.76-2.685c0.399-0.767,0.756-1.519,1.078-2.254
	h0.001c2.871-6.578,2.614-11.886-1.738-14.301c-4.838-2.685-15.396-2.014-15.396-2.014c0.031-0.184,0.059-0.365,0.087-0.545h-0.001
	h-1.697C476.987,21.671,476.868,23.428,476.868,23.429z M467.19,69.516c0.233,1.182,0.342,2.051,0.36,2.907
	c0.017,0.761-0.037,1.512-0.141,2.46c-0.218,2.015,1.321,4.475,1.321,4.475c1.539-3.802,2.858-4.698,2.858-4.698
	c0,1.791,2.201,2.015,2.201,2.015c0.437-1.336,1.3-2.816,2.312-4.251c1.242-1.761,2.708-3.451,3.886-4.723H467.44
	C467.17,68.301,467.075,68.931,467.19,69.516z M491.012,41.58h-6.177c0.058,0.065,0.116,0.128,0.171,0.192v6.265
	c0,0,2.199-0.672,2.419-2.237c0.22-1.565,3.959-0.894,4.179,2.685c0.221,3.58,0,11.411-8.577,12.754
	c-8.579,1.341-13.418-4.699-12.319-9.174c1.101-4.474,3.52-5.369,5.28-4.25s4.398,4.474,1.98,4.474c-2.419,0-1.541-0.896-2.86-2.013
	c-1.319-1.119-1.54,3.132-1.54,3.132l3.079,0.896l1.76,3.132c0,0,0.88-2.238,1.979-2.238c1.101,0,3.299,0,3.52,1.79l1.101-1.79
	c0,0,4.399,0.224,4.399-2.237c0-2.46-0.88-2.236-0.88-2.236s-1.76,3.578-2.86,1.342c-1.099-2.237-5.059-10.292-8.798-10.292
	s-7.918,7.384-9.678,8.727c-1.76,1.343-3.959,2.908-3.959,2.908l4.619,0.671c0,0,3.74,10.516,10.998,10.068
	s10.776-2.908,10.776-2.908s0.334,3.838,2.184,6.462h0.002c0.753,1.068,1.759,1.936,3.094,2.26c4.618,1.119,4.179,0,4.179,0
	s-2.085,0.168-3.277-2.263h-0.001c-0.742-1.517-1.136-4.041-0.461-8.25C496.778,50.522,495.729,45.45,491.012,41.58z
	 M479.385,36.162c-2.238-0.42-4.424-0.428-6.619,0c-2.475,0.482-4.961,1.521-7.556,3.149c0,0,1.761,0.672,3.96,0.225
	c2.17-0.442,11.199-2.846,15.662,2.041h6.18c-1.075-0.882-2.337-1.699-3.807-2.489C484.472,37.621,481.895,36.633,479.385,36.162z
	 M434.711,17.239c0,0-0.802,0.871-2.041,2.064h0.001h2.076C434.711,18.008,434.711,17.239,434.711,17.239z M435.152,26.413
	c-0.248-2.897-0.357-5.439-0.405-7.109h-2.076v-0.001c-2.26,2.177-5.975,5.427-8.958,6.439c0,0,0.221,2.236,1.98,2.236
	c0,0-0.88,1.343-4.618,2.91c0,0,2.419,1.564,4.398,1.341c1.98-0.224,3.081-0.224,5.28,0.224S435.812,30.217,435.152,26.413z
	 M480.606,72.198l-0.199,0.225h2.089c0.683-1.155,1.45-2.305,2.069-3.356c0.309-0.437,0.529-0.912,0.689-1.367
	c0.412-1.169,0.412-2.212,0.412-2.212s-0.618,0.938-1.526,2.212C483.167,69.064,481.857,70.812,480.606,72.198z M412.534,17.983
	c0.856,0.599,1.55,0.985,2.298,1.319h12.721v0.001c0.182-0.154,0.369-0.318,0.56-0.497c2.64-2.461,6.599-5.146,6.599-5.146
	s-1.98,0-3.52,1.119c-2.199,1.342-4.837,3.354-7.038,3.803c-2.201,0.447-6.819,0.895-11.217-2.686
	c-3.588-2.483-3.299-5.594-3.299-5.594c0.221-5.816,3.739-7.606,7.258-6.936c3.52,0.672,1.76,6.713,1.76,6.713l-1.539,0.223
	c-2.42,0-2.86-3.132-2.86-3.132s0,2.015,0.44,3.357c0.44,1.342,4.178,4.697,5.06,4.474c0.878-0.223,3.079-3.132,3.079-3.132
	s1.319,1.343,3.52,1.79c2.199,0.446,5.058-2.462,5.058-2.462s-3.738,1.343-4.618-1.118c-0.88-2.46-0.661-4.251-3.081-6.487
	c-2.417-2.238-7.256-4.699-12.315-1.567c-2.828,1.309-4.175,3.426-4.001,8.889C407.728,14.356,410.094,16.277,412.534,17.983z
	 M427.553,19.303H414.83c0.596,0.266,1.226,0.501,1.995,0.78c2.923,0.983,4.074,1.226,5.628,1.284
	C423.676,21.367,425.228,21.279,427.553,19.303z M444.622,39.739c0,0,0.701,0.97,1.936,1.838h0.001
	c1.065,0.749,2.528,1.423,4.283,1.333l0.681,1.189l-5.541,7.823c0,0,0,0.793,1.651-0.1c1.653-0.891,7.639-3.421,7.679-3.366
	l0.972,1.288c0,0,0.528,1.966,0.621,3.532c0.081,1.359,0.777,1.213,1.13,1.022c0.191-0.103,2.235-2.376,2.721-5.15
	c0.486-2.773,0.39-3.267,0.39-3.267s-2.789-1.48-5.154-4.304h-0.001c-0.759-0.905-1.473-1.946-2.039-3.124
	C453.952,38.453,448.315,40.632,444.622,39.739z M479.988,67.701L479.988,67.701C479.988,67.7,479.987,67.701,479.988,67.701
	L479.988,67.701z M482.147,65.488c0,0-3.958,0-9.018-0.448c-2.764-0.496-4.926,0.963-5.689,2.66h12.548
	C481.227,66.361,482.147,65.488,482.147,65.488z M485.798,72.424c-0.165,0.528-0.23,1.065-0.132,1.566
	c0.441,2.236,1.76,3.578,1.76,3.578s-2.86,2.238-3.079,3.134c-0.22,0.893,3.079,4.698,4.398,5.146c1.321,0.445,3.3,0.445,3.3,0.445
	s-3.079-0.445-3.079-2.908l0.22-1.566c0,0,5.939-1.789,6.599,1.791c0.659,3.579-1.1,7.159-6.819,7.383c0,0-3.008,0.091-5.499-3.355
	c-3.52-4.473-3.081-9.173-2.64-11.411c0.233-1.186,0.898-2.498,1.669-3.803h-2.089c-2.243,2.561-2.659,4.289-2.66,5.594
	c0,0.753,0.639,2.336,1.434,4.604c0.619,1.765,1.686,4.569,2.745,6.133c1.003,1.793,1.838,2.721,3.573,3.78
	c3.116,1.746,6.724,1.051,8.231,0.171c1.157-0.657,2.316-1.738,3.373-3.503c3.078-5.145,0.659-10.068-1.54-12.528
	c-2.199-2.461-3.959-2.237-6.378-3.132c-0.608-0.224-0.981-0.635-1.196-1.119c-0.644-1.448,0.097-3.58,0.097-3.58
	S486.364,70.593,485.798,72.424z M498.698,41.577h-5.529c0.497,0.998,1.237,1.668,2.174,1.986
	C496.654,44.008,497.963,42.588,498.698,41.577z M495.637,101.481v-0.908h-0.928h-0.001h-7.397l-0.928,0.909v573.73l-0.001,0.001
	l0.001,0.001v0.909h0.927h0.001h7.397l0.929-0.91v-573.73V101.481L495.637,101.481z M486.382,100.573v0.909l0.928-0.909H486.382z
	 M495.638,676.123v-0.91l-0.929,0.91H495.638z"/>
</svg>
