<?xml version="1.0" encoding="utf-8"?>
<!-- Generator: Adobe Illustrator 17.0.0, SVG Export Plug-In . SVG Version: 6.00 Build 0)  -->
<!DOCTYPE svg PUBLIC "-//W3C//DTD SVG 1.1//EN" "http://www.w3.org/Graphics/SVG/1.1/DTD/svg11.dtd">
<svg version="1.1" id="Capa_2" xmlns="http://www.w3.org/2000/svg" xmlns:xlink="http://www.w3.org/1999/xlink" x="0px" y="0px"
	 width="226.107px" height="226.107px" viewBox="0 0 226.107 226.107" enable-background="new 0 0 226.107 226.107"
	 xml:space="preserve">
<path fill="#E4A64C" d="M113.053,202.344c-49.235,0-89.291-40.056-89.291-89.291s40.056-89.291,89.291-89.291
	s89.291,40.056,89.291,89.291S162.289,202.344,113.053,202.344z M113.053,26.098c-47.947,0-86.955,39.008-86.955,86.955
	s39.008,86.955,86.955,86.955s86.955-39.008,86.955-86.955S161.001,26.098,113.053,26.098z M113.053,214.663
	c-56.028,0-101.61-45.582-101.61-101.61s45.582-101.61,101.61-101.61s101.61,45.582,101.61,101.61S169.081,214.663,113.053,214.663z
	 M113.053,13.779c-54.74,0-99.274,44.534-99.274,99.274s44.534,99.274,99.274,99.274c54.74,0,99.274-44.534,99.274-99.274
	S167.793,13.779,113.053,13.779z M114.221,25.075h-2.336v87.979h2.336V25.075z M114.203,112.85L98.926,26.209l-2.299,0.405
	l15.277,86.642L114.203,112.85z M114.151,112.654L84.06,29.981l-2.194,0.799l30.09,82.672L114.151,112.654z M114.065,112.469
	L70.076,36.278l-2.023,1.168l43.989,76.191L114.065,112.469z M113.948,112.302L57.396,44.907l-1.789,1.501l56.552,67.396
	L113.948,112.302z M113.804,112.159L46.408,55.608l-1.501,1.789l67.396,56.551L113.804,112.159z M113.637,112.042L37.445,68.053
	l-1.168,2.023l76.192,43.989L113.637,112.042z M113.453,111.956L30.78,81.866l-0.799,2.195l82.673,30.09L113.453,111.956z
	 M113.256,111.904L26.614,96.626l-0.405,2.299l86.642,15.277L113.256,111.904z M113.053,111.885H25.075v2.336h87.979V111.885z
	 M113.256,114.203l-0.405-2.299l-86.642,15.277l0.405,2.299L113.256,114.203z M113.453,114.151l-0.799-2.195l-82.673,30.091
	l0.799,2.195L113.453,114.151z M113.637,114.065l-1.168-2.023l-76.192,43.99l1.168,2.023L113.637,114.065z M113.804,113.948
	l-1.501-1.789l-67.396,56.552l1.501,1.789L113.804,113.948z M113.948,113.804l-1.789-1.502l-56.552,67.396l1.789,1.502
	L113.948,113.804z M114.065,113.637l-2.023-1.168l-43.989,76.192l2.023,1.168L114.065,113.637z M114.151,113.452l-2.194-0.798
	l-30.09,82.674l2.194,0.798L114.151,113.452z M114.203,113.256l-2.299-0.406l-15.277,86.642l2.299,0.406L114.203,113.256z
	 M114.221,113.053h-2.336v87.979h2.336V113.053z M129.48,199.492l-15.277-86.642l-2.299,0.406l15.277,86.642L129.48,199.492z
	 M144.242,195.328l-30.091-82.674l-2.194,0.798l30.09,82.674L144.242,195.328z M158.055,188.661l-43.99-76.192l-2.023,1.168
	l43.99,76.192L158.055,188.661z M170.5,179.699l-56.552-67.396l-1.789,1.502l56.552,67.396L170.5,179.699z M181.199,168.711
	l-67.396-56.552l-1.501,1.789l67.395,56.552L181.199,168.711z M189.829,156.032l-76.192-43.99l-1.168,2.023l76.192,43.99
	L189.829,156.032z M196.125,142.047l-82.672-30.091l-0.799,2.195l82.672,30.091L196.125,142.047z M199.898,127.181l-86.642-15.277
	l-0.405,2.299l86.641,15.277L199.898,127.181z M201.032,111.885h-87.979v2.336h87.979V111.885z M199.898,98.926l-0.406-2.299
	l-86.641,15.277l0.405,2.299L199.898,98.926z M196.125,84.061l-0.798-2.195l-82.673,30.09l0.799,2.195L196.125,84.061z
	 M189.829,70.076l-1.168-2.023l-76.192,43.989l1.168,2.023L189.829,70.076z M181.199,57.396l-1.502-1.789l-67.395,56.551
	l1.501,1.789L181.199,57.396z M170.5,46.408l-1.789-1.501l-56.552,67.395l1.789,1.502L170.5,46.408z M158.055,37.446l-2.023-1.168
	l-43.99,76.191l2.023,1.168L158.055,37.446z M144.242,30.78l-2.195-0.799l-30.09,82.674l2.194,0.798L144.242,30.78z M129.48,26.614
	l-2.299-0.405l-15.277,86.641l2.299,0.406L129.48,26.614z M119.354,24.973l-6.3-12.988l-6.3,12.988l1.051,0.509l5.249-10.822
	l5.249,10.822L119.354,24.973z M95.967,16.154l7.049,9.746l0.947-0.684l-8.46-11.697l-3.949,13.885l1.123,0.319L95.967,16.154z
	 M79.401,20.594l8.635,8.374l0.813-0.838l-10.362-10.05l-1.478,14.36l1.161,0.119L79.401,20.594z M64.721,39.839l-0.865-11.997
	l9.957,6.747l0.655-0.967l-11.95-8.097l1.038,14.397L64.721,39.839z M52.742,49.344L49.807,37.68l10.977,4.916l0.478-1.066
	l-13.175-5.9l3.522,13.999L52.742,49.344z M42.595,60.786L37.68,49.807l11.664,2.935l0.285-1.133L35.63,48.087l5.899,13.175
	L42.595,60.786z M34.59,73.813l-6.747-9.956l11.997,0.865l0.084-1.166l-14.398-1.037l8.098,11.949L34.59,73.813z M28.967,88.036
	L20.594,79.4l11.964-1.232l-0.119-1.161L18.08,78.486l10.05,10.363L28.967,88.036z M25.901,103.016l-9.746-7.049l11.569-3.29
	l-0.319-1.123L13.52,95.503l11.697,8.46L25.901,103.016z M25.482,118.303l-10.822-5.25l10.822-5.249l-0.509-1.051l-12.987,6.3
	l12.987,6.301L25.482,118.303z M27.724,133.429l-11.569-3.29l9.746-7.049l-0.684-0.947l-11.697,8.46l13.885,3.949L27.724,133.429z
	 M32.558,147.938l-11.964-1.232l8.374-8.634l-0.838-0.813l-10.05,10.361l14.359,1.478L32.558,147.938z M39.923,162.55l-0.084-1.166
	l-11.997,0.866l6.747-9.957l-0.967-0.655l-8.098,11.95L39.923,162.55z M49.629,174.497l-0.285-1.132L37.68,176.3l4.915-10.978
	l-1.066-0.476l-5.899,13.174L49.629,174.497z M61.262,184.577l-0.478-1.066l-10.977,4.916l2.935-11.664l-1.133-0.285l-3.522,13.998
	L61.262,184.577z M74.469,192.484l-0.655-0.966l-9.957,6.746l0.865-11.997l-1.165-0.083l-1.038,14.397L74.469,192.484z
	 M88.848,197.977l-0.813-0.838l-8.635,8.374l-1.231-11.964l-1.161,0.119l1.478,14.359L88.848,197.977z M103.963,200.891
	l-0.947-0.685l-7.049,9.746l-3.29-11.568l-1.123,0.319l3.949,13.884L103.963,200.891z M119.354,201.135l-1.051-0.511l-5.249,10.822
	l-5.249-10.822l-1.051,0.511l6.3,12.987L119.354,201.135z M134.553,198.703l-1.123-0.319l-3.29,11.568l-7.049-9.746l-0.947,0.685
	l8.46,11.696L134.553,198.703z M149.099,193.668l-1.161-0.119l-1.232,11.964l-8.635-8.374l-0.813,0.838l10.362,10.05
	L149.099,193.668z M162.551,186.184l-1.166,0.083l0.865,11.997l-9.956-6.746l-0.655,0.966l11.949,8.097L162.551,186.184z
	 M174.497,176.478l-1.132,0.285l2.934,11.664l-10.978-4.916l-0.476,1.066l13.174,5.899L174.497,176.478z M184.577,164.846
	l-1.066,0.476l4.916,10.977l-11.664-2.934l-0.285,1.132l13.998,3.524L184.577,164.846z M192.483,151.638l-0.966,0.655l6.747,9.957
	l-11.997-0.866l-0.083,1.166l14.397,1.038L192.483,151.638z M208.027,147.621l-10.05-10.361l-0.838,0.813l8.374,8.634l-11.964,1.232
	l0.119,1.161L208.027,147.621z M212.587,130.604l-11.696-8.46l-0.685,0.947l9.746,7.049l-11.569,3.29l0.319,1.123L212.587,130.604z
	 M214.123,113.053l-12.987-6.3l-0.511,1.051l10.822,5.249l-10.822,5.25l0.511,1.051L214.123,113.053z M212.587,95.503l-13.885-3.949
	l-0.319,1.123l11.569,3.29l-9.746,7.049l0.685,0.947L212.587,95.503z M208.027,78.486l-14.359-1.478l-0.119,1.161l11.964,1.232
	l-8.374,8.635l0.838,0.813L208.027,78.486z M200.581,62.519l-14.397,1.037l0.083,1.166l11.997-0.865l-6.747,9.956l0.966,0.655
	L200.581,62.519z M190.476,48.087l-13.998,3.522l0.285,1.133l11.664-2.935l-4.916,10.978l1.066,0.476L190.476,48.087z
	 M178.018,35.63l-13.174,5.9l0.476,1.066l10.978-4.916l-2.934,11.664l1.132,0.285L178.018,35.63z M163.588,25.526l-11.949,8.097
	l0.655,0.967l9.956-6.747l-0.865,11.997l1.166,0.084L163.588,25.526z M149.099,32.439l-1.478-14.36l-10.362,10.05l0.813,0.838
	l8.635-8.374l1.232,11.965L149.099,32.439z M134.553,27.404l-3.949-13.885l-8.46,11.697l0.947,0.684l7.049-9.746l3.29,11.569
	L134.553,27.404z M103.656,5.638l5.455,7.625l1.9-1.359l-7.755-10.84l-5.755,12.022l2.107,1.008L103.656,5.638z M103.164,0.014
	c-2.036,0.178-3.543,1.973-3.365,4.01c0.178,2.036,1.973,3.543,4.01,3.365c2.036-0.178,3.543-1.973,3.365-4.01
	C106.996,1.343,105.2-0.164,103.164,0.014z M85.146,8.902l6.696,6.562l1.635-1.668l-9.519-9.329l-3.579,12.838l2.249,0.628
	L85.146,8.902z M83.685,3.449c-1.975,0.529-3.146,2.559-2.617,4.533c0.529,1.975,2.559,3.146,4.533,2.617s3.146-2.559,2.617-4.533
	S85.66,2.92,83.685,3.449z M67.484,15.331l7.734,5.299l1.32-1.926L65.544,11.17l-1.295,13.264l2.324,0.227L67.484,15.331z
	 M65.099,10.214c-1.853,0.864-2.654,3.066-1.79,4.919c0.864,1.853,3.066,2.654,4.919,1.79c1.853-0.864,2.654-3.066,1.79-4.919
	S66.951,9.35,65.099,10.214z M51.93,34.075l-0.722-9.348l8.536,3.876l0.966-2.126l-12.136-5.51l1.027,13.287L51.93,34.075z
	 M47.969,20.104c-1.675,1.173-2.082,3.481-0.909,5.155c1.173,1.675,3.481,2.082,5.155,0.909c1.675-1.173,2.082-3.481,0.909-5.155
	C51.952,19.338,49.644,18.931,47.969,20.104z M39.144,45.889l-2.335-9.08l9.08,2.335l0.582-2.262l-12.908-3.319l3.319,12.908
	L39.144,45.889z M32.817,32.817c-1.446,1.446-1.446,3.789,0,5.235c1.445,1.446,3.789,1.446,5.235,0c1.445-1.446,1.445-3.789,0-5.235
	C36.606,31.372,34.263,31.372,32.817,32.817z M28.604,59.743l-3.876-8.536l9.347,0.722l0.18-2.328l-13.288-1.027l5.51,12.135
	L28.604,59.743z M20.103,47.969c-1.173,1.675-0.766,3.983,0.909,5.155c1.675,1.173,3.983,0.766,5.155-0.909
	c1.173-1.675,0.766-3.983-0.909-5.155C23.584,45.888,21.276,46.295,20.103,47.969z M20.63,75.217l-5.299-7.733l9.331-0.91
	l-0.227-2.325l-13.265,1.295l7.534,10.994L20.63,75.217z M10.214,65.099c-0.864,1.853-0.062,4.055,1.79,4.919
	s4.055,0.062,4.919-1.79c0.864-1.853,0.062-4.055-1.79-4.919S11.078,63.246,10.214,65.099z M15.464,91.842l-6.562-6.696l9.031-2.518
	l-0.628-2.251L4.468,83.959l9.328,9.517L15.464,91.842z M3.449,83.685c-0.529,1.975,0.643,4.004,2.617,4.533
	s4.004-0.643,4.533-2.617c0.529-1.975-0.643-4.004-2.617-4.533S3.978,81.71,3.449,83.685z M13.264,109.111l-7.625-5.455l8.457-4.048
	l-1.008-2.106l-12.022,5.754l10.84,7.755L13.264,109.111z M0.014,103.164c-0.178,2.036,1.328,3.832,3.365,4.01
	s3.832-1.328,4.01-3.365c0.178-2.036-1.328-3.832-3.365-4.01S0.192,101.127,0.014,103.164z M14.095,126.499l-8.457-4.048
	l7.625-5.455l-1.359-1.9l-10.84,7.755l12.022,5.754L14.095,126.499z M0.014,122.943c0.178,2.036,1.973,3.543,4.01,3.365
	c2.036-0.178,3.543-1.973,3.365-4.01c-0.178-2.036-1.973-3.543-4.01-3.365C1.343,119.111-0.164,120.907,0.014,122.943z
	 M17.933,143.478l-9.031-2.518l6.562-6.696l-1.668-1.634l-9.328,9.519l12.837,3.579L17.933,143.478z M3.449,142.422
	c0.529,1.975,2.559,3.146,4.533,2.617c1.975-0.529,3.146-2.559,2.617-4.533c-0.529-1.975-2.559-3.146-4.533-2.617
	C4.092,138.418,2.92,140.447,3.449,142.422z M24.662,159.534l-9.331-0.911l5.299-7.733l-1.926-1.321l-7.534,10.994l13.264,1.297
	L24.662,159.534z M10.214,161.008c0.864,1.853,3.066,2.654,4.919,1.79s2.654-3.066,1.79-4.919s-3.066-2.654-4.919-1.79
	S9.35,159.156,10.214,161.008z M34.255,176.506l-0.18-2.329l-9.347,0.723l3.876-8.536l-2.126-0.966l-5.51,12.135L34.255,176.506z
	 M20.103,178.138c1.173,1.675,3.481,2.082,5.155,0.909c1.675-1.173,2.082-3.481,0.909-5.155c-1.173-1.675-3.481-2.082-5.155-0.909
	S18.931,176.463,20.103,178.138z M46.471,189.224l-0.582-2.261l-9.08,2.335l2.335-9.08l-2.262-0.581l-3.319,12.907L46.471,189.224z
	 M32.817,193.289c1.445,1.446,3.789,1.446,5.235,0c1.445-1.445,1.445-3.789,0-5.235c-1.446-1.445-3.789-1.445-5.235,0
	C31.372,189.5,31.372,191.844,32.817,193.289z M60.71,199.629l-0.966-2.127l-8.536,3.877l0.722-9.347l-2.328-0.181l-1.027,13.288
	L60.71,199.629z M47.969,206.003c1.675,1.173,3.983,0.766,5.155-0.909c1.173-1.675,0.766-3.983-0.909-5.155
	c-1.675-1.173-3.983-0.766-5.155,0.909C45.888,202.523,46.295,204.831,47.969,206.003z M76.538,207.404l-1.32-1.927l-7.734,5.3
	l-0.911-9.331l-2.324,0.228l1.295,13.264L76.538,207.404z M65.099,215.893c1.853,0.864,4.055,0.062,4.919-1.79
	c0.864-1.853,0.062-4.055-1.79-4.919c-1.853-0.864-4.055-0.062-4.919,1.79C62.444,212.827,63.246,215.029,65.099,215.893z
	 M93.477,212.31l-1.635-1.668l-6.696,6.562l-2.518-9.031l-2.249,0.628l3.579,12.839L93.477,212.31z M83.685,222.658
	c1.975,0.529,4.004-0.643,4.533-2.617s-0.643-4.004-2.617-4.533c-1.975-0.529-4.004,0.643-4.533,2.617
	C80.539,220.099,81.71,222.129,83.685,222.658z M111.01,214.202l-1.9-1.359l-5.455,7.626l-4.047-8.457l-2.107,1.008l5.755,12.022
	L111.01,214.202z M103.164,226.093c2.036,0.178,3.832-1.328,4.01-3.365c0.178-2.036-1.328-3.832-3.365-4.01
	c-2.036-0.178-3.832,1.328-4.01,3.365C99.621,224.119,101.127,225.914,103.164,226.093z M128.606,213.021l-2.107-1.008l-4.047,8.457
	l-5.455-7.626l-1.9,1.359l7.755,10.84L128.606,213.021z M122.943,226.093c2.036-0.178,3.543-1.973,3.365-4.01
	s-1.973-3.543-4.01-3.365c-2.036,0.178-3.543,1.973-3.365,4.01S120.907,226.271,122.943,226.093z M145.729,208.801l-2.251-0.628
	l-2.518,9.031l-6.696-6.562l-1.635,1.668l9.517,9.33L145.729,208.801z M142.422,222.658c1.975-0.529,3.146-2.559,2.617-4.533
	c-0.529-1.975-2.559-3.146-4.533-2.617c-1.975,0.529-3.146,2.559-2.617,4.533C138.418,222.015,140.447,223.187,142.422,222.658z
	 M161.858,201.673l-2.325-0.228l-0.91,9.331l-7.733-5.3l-1.321,1.927l10.994,7.533L161.858,201.673z M161.008,215.893
	c1.853-0.864,2.654-3.066,1.79-4.919s-3.066-2.654-4.919-1.79s-2.654,3.066-1.79,4.919
	C156.953,215.955,159.156,216.757,161.008,215.893z M176.506,191.851l-2.329,0.181l0.723,9.347l-8.536-3.877l-0.966,2.127
	l12.135,5.51L176.506,191.851z M178.138,206.003c1.675-1.173,2.082-3.481,0.909-5.155c-1.173-1.675-3.481-2.082-5.155-0.909
	c-1.675,1.173-2.082,3.481-0.909,5.155S176.463,207.176,178.138,206.003z M189.224,179.637l-2.261,0.581l2.335,9.08l-9.08-2.335
	l-0.581,2.261l12.907,3.319L189.224,179.637z M193.289,193.289c1.445-1.445,1.445-3.789,0-5.235c-1.446-1.445-3.789-1.445-5.235,0
	c-1.445,1.445-1.445,3.789,0,5.235C189.5,194.735,191.844,194.735,193.289,193.289z M199.629,165.398l-2.127,0.966l3.877,8.536
	l-9.347-0.723l-0.181,2.329l13.288,1.027L199.629,165.398z M206.003,178.138c1.173-1.675,0.766-3.983-0.909-5.155
	c-1.675-1.173-3.983-0.766-5.155,0.909c-1.173,1.675-0.766,3.983,0.909,5.155C202.523,180.219,204.831,179.812,206.003,178.138z
	 M214.937,160.563l-7.533-10.994l-1.927,1.321l5.3,7.733l-9.331,0.911l0.228,2.325L214.937,160.563z M215.893,161.008
	c0.864-1.853,0.062-4.055-1.79-4.919s-4.055-0.062-4.919,1.79s-0.062,4.055,1.79,4.919
	C212.827,163.663,215.029,162.861,215.893,161.008z M221.64,142.15l-9.33-9.519l-1.668,1.634l6.562,6.696l-9.031,2.518l0.628,2.251
	L221.64,142.15z M222.658,142.422c0.529-1.975-0.643-4.004-2.617-4.533c-1.975-0.529-4.004,0.643-4.533,2.617
	c-0.529,1.975,0.643,4.004,2.617,4.533C220.099,145.568,222.129,144.396,222.658,142.422z M225.043,122.851l-10.84-7.755l-1.359,1.9
	l7.626,5.455l-8.457,4.048l1.008,2.106L225.043,122.851z M226.093,122.943c0.178-2.036-1.328-3.832-3.365-4.01
	c-2.036-0.178-3.832,1.328-4.01,3.365c-0.178,2.036,1.328,3.832,3.365,4.01C224.119,126.486,225.914,124.98,226.093,122.943z
	 M225.043,103.256l-12.022-5.754l-1.008,2.106l8.457,4.048l-7.626,5.455l1.359,1.9L225.043,103.256z M226.093,103.164
	c-0.178-2.036-1.973-3.543-4.01-3.365s-3.543,1.973-3.365,4.01c0.178,2.036,1.973,3.543,4.01,3.365S226.271,105.2,226.093,103.164z
	 M221.64,83.959l-12.839-3.581l-0.628,2.251l9.031,2.518l-6.562,6.695l1.668,1.636L221.64,83.959z M222.658,83.685
	c-0.529-1.975-2.559-3.146-4.533-2.617s-3.146,2.559-2.617,4.533c0.529,1.975,2.559,3.146,4.533,2.617S223.187,85.66,222.658,83.685
	z M214.937,65.544l-13.264-1.295l-0.228,2.325l9.331,0.91l-5.3,7.733l1.927,1.321L214.937,65.544z M215.893,65.099
	c-0.864-1.853-3.066-2.654-4.919-1.79c-1.853,0.864-2.654,3.066-1.79,4.919c0.864,1.853,3.066,2.654,4.919,1.79
	S216.757,66.951,215.893,65.099z M205.14,48.574l-13.288,1.027l0.181,2.328l9.347-0.722l-3.877,8.536l2.127,0.966L205.14,48.574z
	 M206.003,47.969c-1.173-1.675-3.481-2.082-5.155-0.909c-1.675,1.173-2.082,3.481-0.909,5.155c1.173,1.675,3.481,2.082,5.155,0.909
	C206.769,51.952,207.176,49.644,206.003,47.969z M192.544,33.563l-12.907,3.319l0.581,2.262l9.08-2.335l-2.335,9.08l2.261,0.582
	L192.544,33.563z M193.289,32.817c-1.446-1.446-3.789-1.446-5.235,0c-1.445,1.446-1.445,3.789,0,5.235
	c1.446,1.446,3.789,1.446,5.235,0C194.735,36.607,194.735,34.263,193.289,32.817z M177.533,20.967l-12.135,5.51l0.966,2.126
	l8.536-3.876l-0.723,9.347l2.329,0.18L177.533,20.967z M178.138,20.104c-1.675-1.173-3.983-0.766-5.155,0.909
	c-1.173,1.675-0.766,3.983,0.909,5.155s3.983,0.766,5.155-0.909S179.812,21.276,178.138,20.104z M161.858,24.434l-1.295-13.264
	l-10.994,7.534l1.321,1.926l7.733-5.299l0.91,9.33L161.858,24.434z M161.008,10.214c-1.853-0.864-4.055-0.062-4.919,1.79
	s-0.062,4.055,1.79,4.919s4.055,0.062,4.919-1.79S162.861,11.078,161.008,10.214z M145.729,17.306l-3.581-12.838l-9.517,9.329
	l1.635,1.668l6.696-6.562l2.518,9.031L145.729,17.306z M142.422,3.449c-1.975-0.529-4.004,0.643-4.533,2.617
	c-0.529,1.975,0.643,4.004,2.617,4.533s4.004-0.643,4.533-2.617C145.568,6.008,144.396,3.978,142.422,3.449z M128.606,13.086
	l-5.755-12.022l-7.755,10.84l1.9,1.359l5.455-7.625l4.047,8.457L128.606,13.086z M122.943,0.014
	c-2.036-0.178-3.832,1.328-4.01,3.365s1.328,3.832,3.365,4.01c2.036,0.178,3.832-1.328,4.01-3.365S124.98,0.192,122.943,0.014z"/>
</svg>
