<?xml version="1.0" encoding="utf-8"?>
<!-- Generator: Adobe Illustrator 16.0.0, SVG Export Plug-In . SVG Version: 6.00 Build 0)  -->
<!DOCTYPE svg PUBLIC "-//W3C//DTD SVG 1.1//EN" "http://www.w3.org/Graphics/SVG/1.1/DTD/svg11.dtd">
<svg version="1.1" xmlns="http://www.w3.org/2000/svg" xmlns:xlink="http://www.w3.org/1999/xlink" x="0px" y="0px"
	 width="622.875px" height="205.307px" viewBox="0 0 622.875 205.307" enable-background="new 0 0 622.875 205.307"
	 xml:space="preserve">
<g id="background">
</g>
<g id="objekt">
	<path fill="#B5A888" d="M1.293-59.198"/>
	<path fill="#B7A99F" d="M414.494-70.507c0,1.412-34.915,2.557-77.983,2.557s-77.982-1.145-77.982-2.557s34.914-2.557,77.982-2.557
		S414.494-71.919,414.494-70.507z"/>
	<path fill="none" d="M427.03-105.386l3.846,9.342l-13.737-0.551L427.03-105.386z M377.022-80.197l8.242,10.441l6.046-14.289
		L377.022-80.197z"/>
	<path opacity="0.7" fill="#F7F2E8" d="M384.716-228.391c26.927,4.946,34.62,42.863,34.62,42.863
		c-35.169,23.629-84.626,8.242-84.626,8.242c-2.198-54.952,31.322-54.402,31.322-54.402L384.716-228.391z"/>
	<path fill="#EABB98" d="M430.474-171.501l-49.604-8.532h-19.234l-35.169,18.685l36.837-27.249
		c-5.848-1.759-10.47-5.02-12.748-9.059c-0.1,0.031-0.201,0.058-0.306,0.073c-1.841,0.271-3.72-2.148-4.199-5.403
		c-0.481-3.254,0.622-6.112,2.462-6.383c0.632-0.094,1.268,0.137,1.852,0.604c3.31-6.31,12.27-10.834,22.811-10.834
		c11.805,0,21.627,5.671,23.75,13.171c0.455-0.082,0.89-0.047,1.277,0.136c1.684,0.787,1.878,3.924,0.434,7.005
		c-1.213,2.585-3.193,4.302-4.795,4.322c-2.646,2.911-6.623,5.219-11.363,6.545L430.474-171.501z"/>
	<path fill="#FFFFFF" d="M342.718-169.982l-16.251,8.634l14.757-10.916C341.693-171.49,342.194-170.731,342.718-169.982z"/>
	<path fill="#FFFFFF" d="M406.487-175.627c0.414-1.297,0.829-2.594,1.238-3.893l22.748,8.019L406.487-175.627z"/>
	<path fill="#FFFFFF" d="M368.229-155.352l-6.594-24.682c0,0,6.656-3.254,9.066-3.297c2.674-0.047,10.168,3.297,10.168,3.297
		l-1.101,21.569L368.229-155.352z"/>
	<path fill="#351F10" d="M397.492-202.976c-19.233-1.099-24.317-16.624-24.317-16.624c-8.242,14.289-24.178,12.915-24.178,12.915
		s-4.589-23.196,16.889-25.49c-0.921-3.202-5.256-21.082,13.884-17.647c19.091,3.426,8.097,17.753,5.466,20.843
		C400.364-221.243,397.492-202.976,397.492-202.976z"/>
	<path fill="#351F10" d="M365.748-205.758c0,1.28-0.958,2.318-2.138,2.318s-2.139-1.038-2.139-2.318s0.959-2.317,2.139-2.317
		S365.748-207.038,365.748-205.758z"/>
	<path fill="#351F10" d="M383.892-204.727c0,1.279-0.957,2.318-2.138,2.318s-2.139-1.039-2.139-2.318
		c0-1.28,0.958-2.318,2.139-2.318S383.892-206.007,383.892-204.727z"/>
	<path fill="#FFFFFF" d="M391.775-227.244c-0.394,1.817-3.023,1.991-4.431,0.706c1.062,1.263,2.088,6.691-0.782,7.019
		c-1.409,0.161-2.12-1.623-2.31-3.177c-0.244,0.938-0.824,1.938-1.471,2.283c-0.25,0.134-2.26,0.12-2.456-0.019
		c-1.999-1.422,0.078-4.12,1.46-5.751c-2.053,1.192-7.26,1.061-6.611-2.323c0.375-1.943,4.944-2.146,6.104-0.272
		c-1.033-1.315-1.77-5.736-0.159-6.65c2.288-1.299,2.866,2.544,2.839,4.222c-0.213-1.297,3.716-4.598,5.223-3.419
		c1.919,1.5-1.605,4.379-2.748,5.114C388.38-230.848,392.45-230.35,391.775-227.244z"/>
	<path fill="#FFF7E9" d="M358.339-76.171c0,0-23.08-69.242,13.188-80.781c36.269-11.541,67.044,29.673,67.044,29.673
		S428.679-78.371,358.339-76.171z"/>
	<path fill="#351F10" d="M287.208-127.085l-11.299,47.611l12.776,6.594l-21.019,1.236c0,0,0-50.693,0-51.93
		s-33.796,33.795-33.796,33.795v8.656l-21.845-5.771l16.486-5.357l20.536-36.555l-2.814-0.127l1.237-36.68l-41.357,13.288
		l41.769-28.538l39.154-5.77l41.627,25.142l-41.215-10.304l4.534,44.924L287.208-127.085z"/>
	<path fill="#E2D4BF" d="M276.705-190.953l-7.523,47.149l-17.205-46.325L276.705-190.953z"/>
	<path fill="#EABB98" d="M291.006-210.204c-0.388,0.057-0.772,0.052-1.15-0.004c-1.825,7.442-9.58,14.724-20.266,18.084
		c-10.548,3.317-20.951,1.867-26.751-3.041c-0.256,0.365-0.561,0.691-0.931,0.956c-2.403,1.728-6.29,0.43-8.681-2.899
		c-2.391-3.326-2.379-7.424,0.025-9.15c1.369-0.985,3.224-0.982,5.008-0.182c0.93-8.034,9.052-16.231,20.581-19.858
		c10.747-3.378,21.334-1.808,27.066,3.32c0.748-1.031,1.755-1.731,2.934-1.905c2.926-0.432,5.785,2.504,6.382,6.559
		C295.82-214.272,293.933-210.638,291.006-210.204z"/>
	<path fill="#351F10" d="M256.976-210.331c0,1.279-0.957,2.318-2.137,2.318c-1.181,0-2.139-1.039-2.139-2.318
		c0-1.28,0.958-2.318,2.139-2.318C256.019-212.649,256.976-211.611,256.976-210.331z"/>
	<path fill="#351F10" d="M274.673-215.07c0,1.279-0.958,2.317-2.139,2.317c-1.18,0-2.138-1.038-2.138-2.317
		c0-1.28,0.958-2.318,2.138-2.318C273.715-217.389,274.673-216.351,274.673-215.07z"/>
	<path fill="#351F10" d="M254.48-247.566c33.665,3.835,36.266,31.26,36.266,31.26s-15.661-14.838-32.972-8.244
		c-17.311,6.595-19.37,21.433-19.37,21.433C222.33-224.138,254.48-247.566,254.48-247.566z"/>
	<path fill="#665E5A" d="M268.756-144.229c-15.661-8.243-24.212-37.87-24.212-37.87l8.285-8.243L268.756-144.229z"/>
	<path fill="#665E5A" d="M287.037-186.633c-4.122,19.371-17.855,42.829-17.855,42.829l4.839-50.021L287.037-186.633z"/>
	<path fill="#FFFFFF" d="M278.382-199.905l2.473,17.395l-14.013-5.771l-11.54,9.067l-3.709-17.311l14.61,4.946L278.382-199.905z"/>
	<path fill="#351F10" d="M211.245-182.775l3.913,65.849l-5.617,0.335l-3.913-65.849L211.245-182.775z"/>
	<path fill="#351F10" d="M182.763-164.063l2.021,33.992l24.715-1.47l-2.021-33.992L182.763-164.063z"/>
	<path fill="#FFFFFF" d="M371.527-156.952c0,0,12.718,43.177-16.282,65.177C355.245-91.775,335.81-142.129,371.527-156.952z
		 M371.527-156.952c32.282,37.823,58.718,18.177,58.718,18.177C406.245-171.775,371.527-156.952,371.527-156.952z"/>
	<path fill="#FFFFFF" d="M437.042-162.842c0.562,3.183,9.768,13.015,9.768,13.015l-2.678,1.509
		c-5.053-3.707-8.012-13.061-8.012-13.061L437.042-162.842z M434.321-162.932l-1.633-1.396c-0.48,0.013-5.016,16.274,4.01,25.312
		l4.559-2.995C441.257-142.011,432.497-153.135,434.321-162.932z M450.61-179.471c3.574-2.998-3.486-3.594-5.379-3.304
		c1.053-0.162,0.406-3.104-0.152-3.525c-1.26-0.944-3.49,0.059-4.584,0.775c0.611-1.622,0.648-3.515-1.541-3.513
		c-2.217,0.002-3.75,2.388-4.672,4.083c0.02-1.525-0.422-3.741-2.436-3.332c-2.225,0.455-2.211,3.408-1.822,5.08
		c-0.486-1.426-1.465-3.492-3.195-2.212c-1.773,1.313-0.809,4.046,0,5.578c-1.143-0.493-3.432-1.503-4.473-0.323
		c-1.035,1.173,0.273,3.044,1.061,3.966c-2.043,1.639-3.025,4.307-0.01,5.395c-1.041,0.958-1.85,2.504-0.633,3.672
		c1.389,1.331,3.758,0.322,5.33-0.049c-1.664,1.252-2.744,4.066-0.154,4.953c1.771,0.606,4.037-0.314,5.295-1.548
		c-0.709,1.308-1.377,4.362,0.771,4.353c1.492-0.008,2.781-1.715,3.699-2.682c-0.346,1.388-0.365,4.057,1.623,4.165
		c1.85,0.101,2.908-2.698,3.406-4.069c3.203,3.082,4.457-1.053,4.953-3.928c0.793,2.338,3.467,1.302,4.357-0.439
		c1.182-2.309-0.689-5.383-1.811-7.363c1.533,0.649,2.762,0.306,2.984-1.464C453.464-177.086,452.087-178.563,450.61-179.471z"/>
	<path fill="#FE0000" d="M320.378-214.33c0,0-0.065,0.073-0.098,0.055c-0.031,0.018-0.098-0.055-0.098-0.055
		c-5.676-3.167-16.289-9.473-11.851-17.22c3.385-5.912,9.96-2.179,11.948,0.782c1.989-2.961,8.563-6.693,11.949-0.782
		C336.667-223.802,326.054-217.496,320.378-214.33z"/>
	<path fill="#FE0000" d="M302.327-244.748c0,0-0.056,0.061-0.082,0.046c-0.026,0.015-0.082-0.046-0.082-0.046
		c-4.76-2.656-13.661-7.944-9.938-14.441c2.837-4.958,8.353-1.827,10.02,0.656c1.668-2.483,7.181-5.613,10.021-0.656
		C315.986-252.691,307.086-247.403,302.327-244.748z"/>
	<path fill="#FE0000" d="M327.798-262.736c0,0-0.043,0.046-0.063,0.035c-0.02,0.011-0.062-0.035-0.062-0.035
		c-3.664-2.044-10.518-6.116-7.65-11.118c2.184-3.817,6.43-1.407,7.713,0.505c1.284-1.912,5.528-4.322,7.715-0.505
		C338.313-268.852,331.462-264.781,327.798-262.736z"/>
	<path fill="#B7A99F" d="M-325.617,105.166c43.068,0,77.984,1.145,77.984,2.557s-34.916,2.557-77.984,2.557
		c-43.068,0-77.981-1.145-77.981-2.557"/>
	<path opacity="0.7" fill="#F7F2E8" d="M-278.883-54.602c27.152,3.516,35.328,44.576,35.328,44.576
		c-33.872,25.456-83.459,12.43-83.459,12.43c1.21-52.805,29.247-60.31,29.247-60.31L-278.883-54.602z"/>
	<path fill="#EABB98" d="M-253.824,34.887l-26.434-40.69l-17.234,2l-31.666,42.69l31.334-53.255
		c-5.848-1.759-10.469-5.02-12.748-9.059c-0.1,0.031-0.201,0.058-0.305,0.073c-1.842,0.271-3.721-2.148-4.199-5.403
		c-0.482-3.254,0.621-6.112,2.461-6.383c0.633-0.094,1.268,0.137,1.852,0.604c3.311-6.31,12.27-10.834,22.811-10.834
		c11.805,0,21.627,5.671,23.75,13.171c0.455-0.082,0.891-0.047,1.277,0.136c1.684,0.787,1.879,3.924,0.434,7.005
		c-1.213,2.585-3.193,4.302-4.795,4.322c-2.646,2.911-6.623,5.219-11.363,6.545L-253.824,34.887z"/>
	<path fill="#FFFFFF" d="M-294.898,18.878l-3.594-24.682c0,0,6.656-4.254,9.066-4.297c2.674-0.047,10.168,4.297,10.168,4.297
		l-4.1,24.569L-294.898,18.878z"/>
	<path fill="#351F10" d="M-264.635-28.746c-19.234-1.099-24.318-16.624-24.318-16.624c-8.242,14.289-24.178,12.915-24.178,12.915
		s-4.588-23.196,16.889-25.49c-0.92-3.202-5.256-21.082,13.885-17.647c19.09,3.426,8.096,17.753,5.465,20.843
		C-261.764-47.013-264.635-28.746-264.635-28.746z"/>
	<path fill="#351F10" d="M-296.379-31.528c0,1.28-0.959,2.318-2.139,2.318s-2.139-1.038-2.139-2.318s0.959-2.317,2.139-2.317
		S-296.379-32.808-296.379-31.528z"/>
	<path fill="#351F10" d="M-278.236-30.497c0,1.279-0.957,2.318-2.137,2.318c-1.182,0-2.139-1.039-2.139-2.318
		c0-1.28,0.957-2.318,2.139-2.318C-279.193-32.815-278.236-31.777-278.236-30.497z"/>
	<path fill="#FFFFFF" d="M-270.352-53.014c-0.395,1.817-3.023,1.991-4.432,0.706c1.062,1.263,2.088,6.691-0.781,7.019
		c-1.41,0.161-2.121-1.623-2.311-3.177c-0.244,0.938-0.824,1.938-1.471,2.283c-0.25,0.134-2.26,0.12-2.455-0.019
		c-2-1.422,0.078-4.12,1.459-5.751c-2.053,1.192-7.26,1.061-6.611-2.323c0.375-1.943,4.945-2.146,6.104-0.272
		c-1.033-1.315-1.77-5.736-0.158-6.65c2.287-1.299,2.865,2.544,2.838,4.222c-0.213-1.297,3.717-4.598,5.223-3.419
		c1.92,1.5-1.605,4.379-2.748,5.114C-273.748-56.618-269.678-56.12-270.352-53.014z"/>
	<path fill="#FFF7E9" d="M-335.158,97.554c0,0,12.33-86.118,49.771-79.277c37.441,6.839,49.562,74.61,49.562,74.61
		S-273.824,118.887-335.158,97.554z"/>
	<path fill="#FFFFFF" d="M-288.365,19.594c-1.146,8.308-8.189,45.936-42.803,58.361c0,0,3-60.5,43-60c0,0-0.01,0.118-0.034,0.335
		c39.357-4.121,48.512,55.289,48.512,55.289C-275.939,64.656-286.606,26.975-288.365,19.594z"/>
	<path fill="#351F10" d="M-358.92,47.144l-10.904,50.743l12.382,7.462l-21.019,0.237c0,0,0-53.694,0-54.931
		s-6.03,45.576-6.03,45.576v9.655l-18.667,1l12.309-9.127l-7.23-51.336l-6.814-0.127l6.237-35.681l-32.501,34.271l32.667-56
		l39.4-1.29l30.6,49.957l-31.188-26.119l5.534,35.924L-358.92,47.144z"/>
	<path fill="#E2D4BF" d="M-367.422-16.723l-9.523,47.149l-15.205-46.325L-367.422-16.723z"/>
	<path fill="#EABB98" d="M-353.277-29.202c-0.389-0.045-0.759-0.148-1.111-0.299c-3.667,6.729-13.026,11.784-24.216,12.3
		c-11.045,0.51-20.731-3.553-25.083-9.78c-0.341,0.287-0.719,0.525-1.144,0.687c-2.765,1.055-6.19-1.194-7.65-5.023
		c-1.461-3.827-0.401-7.785,2.364-8.839c1.576-0.603,3.368-0.126,4.889,1.104c2.953-7.528,12.901-13.376,24.975-13.934
		c11.253-0.518,21.087,3.708,25.317,10.132c0.986-0.807,2.138-1.225,3.323-1.092c2.939,0.33,4.953,3.899,4.494,7.972
		C-347.582-31.904-350.336-28.873-353.277-29.202z"/>
	<path fill="#351F10" d="M-386.142-38.027c-0.328,1.236-1.519,1.996-2.659,1.694c-1.141-0.302-1.802-1.551-1.475-2.788
		c0.327-1.237,1.52-1.997,2.661-1.695C-386.476-40.514-385.815-39.265-386.142-38.027z"/>
	<path fill="#351F10" d="M-367.822-38.083c-0.327,1.236-1.519,1.995-2.66,1.693c-1.14-0.302-1.801-1.551-1.474-2.787
		c0.327-1.237,1.52-1.996,2.66-1.694S-367.495-39.322-367.822-38.083z"/>
	<path fill="#351F10" d="M-384.242-51.211c-16.436,2.867-21.699,15.407-21.699,15.407c-2.371-5.699-2.17-10.853-0.471-15.407
		H-384.242z"/>
	<path fill="#351F10" d="M-353.997-51.211c3.225,8.744,2.029,16.042,2.029,16.042S-360.192-48.457-374-51.211H-353.997z"/>
	<path fill="#665E5A" d="M-377.372,30.001c-15.662-8.243-24.212-40.87-24.212-40.87l10.285-5.243L-377.372,30.001z"/>
	<path fill="#665E5A" d="M-357.09-12.403c-4.122,19.371-19.855,42.829-19.855,42.829l6.838-50.021L-357.09-12.403z"/>
	<path fill="#FFFFFF" d="M-366.515-24.026l0.214,17.568l-13.154-7.524l-12.611,7.507l-1.451-17.644l13.853,6.784L-366.515-24.026z"
		/>
	<path fill="#351F10" d="M-343.667-50.544h-71.834v-6.667h71.834V-50.544z M-362.168-85.544h-37.083v29.333h37.083V-85.544z"/>
	<path fill="#665E5A" d="M-362.168-65.337v8.148h-37.083v-8.148H-362.168z"/>
	<path fill="#FFF7E9" d="M-250.838,43.24c0.48,3.196,9.428,13.263,9.428,13.263l-2.715,1.439
		c-4.955-3.836-7.672-13.264-7.672-13.264L-250.838,43.24z M-253.555,43.08l-1.598-1.438c-0.479,0-5.434,16.14,3.355,25.408
		l4.635-2.877C-247.162,64.173-255.631,52.828-253.555,43.08z M-236.844,26.966c3.648-2.904-3.395-3.682-5.291-3.44
		c1.055-0.135,0.484-3.094-0.064-3.528c-1.234-0.977-3.49-0.031-4.602,0.656c0.652-1.604,0.74-3.497-1.449-3.552
		c-2.215-0.054-3.811,2.291-4.775,3.962c0.057-1.523-0.324-3.75-2.35-3.394c-2.236,0.396-2.299,3.35-1.951,5.031
		c-0.449-1.438-1.375-3.529-3.139-2.294c-1.807,1.267-0.912,4.023-0.143,5.575c-1.131-0.521-3.393-1.591-4.465-0.438
		c-1.064,1.146,0.197,3.05,0.957,3.992c-2.082,1.585-3.135,4.227-0.146,5.392c-1.066,0.932-1.914,2.456-0.727,3.655
		c1.352,1.366,3.746,0.419,5.328,0.089c-1.695,1.209-2.85,3.994-0.281,4.948c1.754,0.651,4.043-0.212,5.332-1.411
		c-0.742,1.289-1.49,4.325,0.658,4.37c1.492,0.031,2.826-1.642,3.77-2.585c-0.383,1.379-0.473,4.047,1.512,4.205
		c1.848,0.148,2.979-2.622,3.512-3.979c3.121,3.163,4.482-0.938,5.053-3.8c0.732,2.358,3.434,1.392,4.367-0.325
		c1.242-2.277-0.551-5.399-1.619-7.408c1.516,0.689,2.754,0.378,3.02-1.386C-234.055,29.424-235.391,27.914-236.844,26.966z"/>
	<path fill="#FFF7E9" d="M-310.772,14.1l-18.386,24.787l15.293-25.992C-312.83,13.279-311.798,13.682-310.772,14.1z"/>
	<path fill="#FFF7E9" d="M-265.724,11.364l11.9,23.523l-14.189-21.841C-267.268,12.462-266.504,11.902-265.724,11.364z"/>
	<path fill="#FE0000" d="M-327.831-62.133c0,0-0.105,0.115-0.155,0.087c-0.05,0.028-0.155-0.087-0.155-0.087
		c-9.013-5.028-25.865-15.042-18.818-27.344c5.376-9.387,15.816-3.46,18.974,1.242c3.158-4.702,13.597-10.628,18.974-1.242
		C-301.967-77.174-318.819-67.161-327.831-62.133z"/>
	<path fill="#351F10" d="M-31.433-105.176l-10.904,50.743l7.156,16.568l-15.793-8.869c0,0,0-53.694,0-54.931
		s-6.029,45.576-6.029,45.576v9.655l-14.178,7.568l7.819-15.695l-7.229-51.336l-6.814-0.127l6.236-35.681l-32.501,34.271l32.667-56
		l39.4-1.29l38.422-37.142l-39.01,60.979l5.533,35.924L-31.433-105.176z"/>
	<path fill="#E2D4BF" d="M-39.935-169.043l-9.523,47.149l-15.205-46.325L-39.935-169.043z"/>
	<path fill="#EABB98" d="M-26.582-187.814c-0.389,0.041-0.773,0.021-1.15-0.048c-2.105,7.368-10.132,14.349-20.938,17.3
		c-10.666,2.914-21.006,1.069-26.615-4.055c-0.271,0.355-0.587,0.67-0.967,0.92c-2.468,1.634-6.302,0.189-8.564-3.228
		c-2.263-3.415-2.095-7.509,0.372-9.142c1.406-0.933,3.26-0.86,5.012,0.007c1.234-7.992,9.663-15.875,21.322-19.06
		c10.867-2.967,21.388-0.996,26.921,4.347c0.786-1.003,1.819-1.663,3.003-1.792c2.94-0.321,5.687,2.721,6.129,6.795
		C-21.616-191.697-23.64-188.136-26.582-187.814z"/>
	<path fill="#351F10" d="M-60.582-189.235c-0.049,1.278-1.045,2.28-2.223,2.235c-1.18-0.044-2.098-1.119-2.05-2.397
		s1.046-2.281,2.226-2.236C-61.451-191.589-60.532-190.515-60.582-189.235z"/>
	<path fill="#351F10" d="M-42.718-193.298c-0.048,1.278-1.045,2.279-2.225,2.234c-1.178-0.045-2.096-1.119-2.048-2.397
		c0.049-1.279,1.046-2.28,2.225-2.235C-43.586-195.651-42.669-194.578-42.718-193.298z"/>
	<path fill="#351F10" d="M-61.612-202.515c-15.41,6.393-17.803,19.781-17.803,19.781c-3.561-5.042-4.492-10.115-3.83-14.931
		L-61.612-202.515z"/>
	<path fill="#351F10" d="M-32.099-209.133c5.06,7.826,5.49,15.21,5.49,15.21s-10.934-11.167-25.009-10.833L-32.099-209.133z"/>
	<path fill="#665E5A" d="M-49.884-122.318c-15.662-8.243-24.213-40.87-24.213-40.87l10.285-5.243L-49.884-122.318z"/>
	<path fill="#665E5A" d="M-29.603-164.723c-4.122,19.371-19.855,42.829-19.855,42.829l6.838-50.021L-29.603-164.723z"/>
	<path fill="#FFFFFF" d="M-39.029-176.346l0.215,17.568l-13.154-7.524l-12.611,7.507l-1.451-17.644l13.854,6.784L-39.029-176.346z"
		/>
	<path fill="#351F10" d="M-21.875-210.742l-70.093,15.717l-1.459-6.505l70.094-15.717L-21.875-210.742z"/>
	<path fill="#351F10" d="M-41.167-212.224l-36.184,8.113l-6.418-28.623l36.184-8.113L-41.167-212.224z"/>
	<path fill="#665E5A" d="M-43.163-221.128l1.783,7.951l-36.184,8.113l-1.783-7.951L-43.163-221.128z"/>
	<path opacity="0.7" fill="#F7F2E8" d="M69.075-213.48c26.928,4.946,32.922,46.382,32.922,46.382c-35.17,23.629-84,8-84,8
		c4-52.667,32.395-58.679,32.395-58.679L69.075-213.48z"/>
	<path fill="#EABB98" d="M116.819-140.864l-53.111-22.421l-17.311-1.183l-47.578-38.396l49.183,29.949
		c-5.428-2.797-9.376-8.848-10.879-13.235c-0.104,0.013-0.208,0.02-0.312,0.017c-1.86-0.071-3.266-2.792-3.142-6.08
		c0.12-3.288,1.728-5.896,3.586-5.826c0.64,0.023,1.222,0.366,1.71,0.933c4.408-5.599,14.043-8.41,24.406-6.484
		c11.606,2.157,20.227,9.527,20.943,17.289c0.463,0.002,0.885,0.117,1.231,0.367c1.512,1.082,1.13,4.201-0.854,6.966
		c-1.665,2.32-3.926,3.646-5.504,3.374c-3.134,2.378-7.466,3.921-12.368,4.358L116.819-140.864z"/>
	<path fill="#FFFFFF" d="M51.588-140.441l-3.594-24.682c0,0,6.656-4.254,9.066-4.297c2.674-0.047,10.168,4.297,10.168,4.297
		l-4.1,24.569L51.588-140.441z"/>
	<path fill="#351F10" d="M83.259-182.987c-18.71-4.595-20.872-20.788-20.872-20.788c-10.714,12.542-26.13,8.28-26.13,8.28
		s-0.272-23.644,21.262-21.975c-0.319-3.316-1.315-21.688,16.875-14.813c18.143,6.856,4.716,18.933,1.564,21.49
		C89.419-200.422,83.259-182.987,83.259-182.987z"/>
	<path fill="#351F10" d="M52.558-191.522c-0.234,1.259-1.367,2.104-2.526,1.889c-1.16-0.216-1.913-1.412-1.68-2.67
		c0.234-1.259,1.366-2.103,2.526-1.888C52.039-193.976,52.792-192.781,52.558-191.522z"/>
	<path fill="#351F10" d="M70.207-187.194c-0.233,1.258-1.364,2.104-2.524,1.889c-1.162-0.216-1.913-1.413-1.679-2.67
		c0.233-1.259,1.364-2.104,2.525-1.888C69.689-189.648,70.44-188.453,70.207-187.194z"/>
	<path fill="#FFFFFF" d="M82.073-207.892c-0.72,1.715-3.336,1.405-4.486-0.116c0.814,1.436,0.83,6.96-2.05,6.758
		c-1.416-0.099-1.789-1.983-1.691-3.545c-0.411,0.877-1.165,1.755-1.863,1.976c-0.271,0.086-2.244-0.295-2.41-0.467
		c-1.707-1.764,0.829-4.037,2.485-5.388c-2.236,0.797-7.332-0.284-6.076-3.492c0.724-1.842,5.255-1.207,6.051,0.848
		c-0.775-1.482-0.691-5.963,1.06-6.567c2.486-0.859,2.353,3.024,2.019,4.669c0.028-1.314,4.494-3.841,5.76-2.407
		c1.613,1.826-2.379,4.012-3.637,4.526C79.392-212.055,83.302-210.822,82.073-207.892z"/>
	<path fill="#FFF7E9" d="M22.153-57.864c0,0,1.506-90.02,38.947-83.179c37.441,6.839,64.386,78.512,64.386,78.512
		S74.153-29.864,22.153-57.864z"/>
	<path fill="#FFFFFF" d="M58.122-139.726c-1.146,8.308,0.811,46.936-33.803,59.361c0,0-5.5-58.5,34-61c0,0-0.01,0.118-0.034,0.335
		c39.357-4.121,55.513,51.289,55.513,51.289C77.547-98.664,59.88-132.345,58.122-139.726z"/>
	<path fill="#FFFFFF" d="M20.445-185.412l-21.626-17.453l23.339,14.212C21.563-187.586,20.996-186.503,20.445-185.412z"/>
	<path fill="#FFFFFF" d="M88.212-158.242l28.606,17.378l-30.338-12.808C87.176-155.171,87.766-156.7,88.212-158.242z"/>
	<path fill="#665E5A" d="M6.112-191.75c12.609,55.843-8.444,72.973-9.347,73.675l-1.107-1.424
		c0.21-0.165,21.021-17.262,8.694-71.854C0.138-210.016-1.331-223.07-1.4-232.198h1.779C0.457-223.314,1.895-210.422,6.112-191.75z"
		/>
	<path fill="#FE0000" d="M0.243-235.503c0,0-0.163,0.179-0.242,0.135c-0.079,0.044-0.242-0.135-0.242-0.135
		c-14.031-7.829-40.268-23.417-29.297-42.571c8.37-14.614,24.622-5.387,29.539,1.933c4.917-7.32,21.17-16.547,29.539-1.933
		C40.509-258.921,14.274-243.332,0.243-235.503z"/>
	<path fill="#FE0000" d="M7.819-225.864l-14-1l5.939-8.639L7.819-225.864z"/>
	<path fill="#B7A99F" d="M461.736,438.459c0,1.412-34.914,2.557-77.984,2.557c-43.068,0-77.98-1.145-77.98-2.557
		s34.912-2.557,77.98-2.557C426.822,435.902,461.736,437.047,461.736,438.459z"/>
	<path fill="#FFF7E9" d="M371.477,432.531c0,0,12.468-87.09,50.332-80.172c37.863,6.916,50.123,75.451,50.123,75.451
		S433.501,454.105,371.477,432.531z"/>
	<path fill="#EABB98" d="M443.798,303.389c0,11.543-11.471,20.9-25.619,20.9c-14.15,0-25.619-9.357-25.619-20.9
		s11.469-20.898,25.619-20.898C432.328,282.49,443.798,291.846,443.798,303.389z"/>
	<path fill="#351F10" d="M446.494,302.041c2.023,16.854-18.877,20.225-18.877,20.225c-16.854-6.74-26.293-35.732-26.293-35.732
		c5.902-3.229,11.082-4.961,15.625-5.615c0.574-6.316,3.297-17.219,15.387-15.283c15.332,2.453,20.059,16.059,9.123,26.109
		C445.123,296.959,446.494,302.041,446.494,302.041z"/>
	<path fill="#FFFFFF" d="M429.65,294.221c-0.398,1.838-3.059,2.014-4.48,0.715c1.074,1.275,2.111,6.766-0.791,7.098
		c-1.426,0.162-2.145-1.643-2.336-3.213c-0.248,0.947-0.834,1.961-1.486,2.309c-0.254,0.137-2.287,0.121-2.484-0.018
		c-2.021-1.438,0.078-4.168,1.477-5.816c-2.076,1.207-7.342,1.072-6.686-2.35c0.379-1.965,4.998-2.17,6.172-0.275
		c-1.045-1.33-1.789-5.801-0.162-6.727c2.314-1.312,2.898,2.574,2.871,4.27c-0.215-1.311,3.758-4.648,5.281-3.457
		c1.941,1.518-1.623,4.428-2.779,5.172C426.216,290.578,430.332,291.08,429.65,294.221z"/>
	<path opacity="0.7" fill="#F7F2E8" d="M495.035,337.407l-47.191,20.898l-23.598-66.744l17.213-0.184
		C468.783,291.87,495.035,337.407,495.035,337.407z"/>
	<path fill="#EABB98" d="M408.74,335.75c0,0-1.348-12.135,9.439-11.461s10.111,16.854,10.111,16.854L408.74,335.75z"/>
	<path fill="#FFFFFF" d="M429.185,336.762l-2.965,19.777l-14.703,0.113l-3.486-25.959L429.185,336.762z"/>
	<path fill="#EABB98" d="M424.921,333.727l-41.127,33.037l34.383-37.08L424.921,333.727z"/>
	<path fill="#EABB98" d="M420.875,309.119c0,3.91-2.414,7.08-5.393,7.08s-5.395-3.17-5.395-7.08c0-3.908,2.416-7.078,5.395-7.078
		S420.875,305.211,420.875,309.119z"/>
	<path fill="#351F10" d="M348.062,305.244c18.211-0.479,14.832,73.957,14.832,73.957h-31.73
		C331.164,379.201,322.443,305.918,348.062,305.244z"/>
	<path fill="#665E5A" d="M362.221,307.939l0.674,49.43l-28.988-49.43c0,0,7.416-4.719,11.459-4.719L362.221,307.939z"/>
	<path fill="#351F10" d="M339.299,316.031l45.507,51.742l-42.474-20.596L339.299,316.031z"/>
	<path fill="#EABB98" d="M373.031,288.236c-1.713,11.414-14.445,18.965-28.438,16.865c-13.992-2.102-23.947-13.057-22.232-24.471
		c1.713-11.414,14.443-18.965,28.436-16.865C364.791,265.865,374.744,276.822,373.031,288.236z"/>
	<path fill="#351F10" d="M322.229,272.43c10.174-31.314,53.472-11.062,53.472-11.062l-7.902,11.768l-23.605,20.998l-9.4,8.133
		C334.793,302.266,314.625,295.832,322.229,272.43z"/>
	<path fill="#EABB98" d="M356.529,289.168c-0.58,3.865-4.186,6.529-8.051,5.949s-6.529-4.186-5.949-8.051
		c0.58-3.867,4.186-6.529,8.051-5.949S357.109,285.303,356.529,289.168z"/>
	<path fill="#FFFFFF" d="M368.354,294.203l6.212,16.646l-15.093-2.662l-9.434,11.457l-7.414-16.295l15.504,1.719L368.354,294.203z"
		/>
	<path fill="#351F10" d="M361.885,376.201l-6.383,53.936l11.461,6.404l-21.574,0.674c-3.371-27.641-10.191-61.014-10.191-61.014
		H361.885z"/>
	<path fill="#351F10" d="M371.666,248.76l-61.564,37.014l-3.435-5.711l61.564-37.016L371.666,248.76z M337.776,228.297
		l-31.78,19.107l15.115,25.141l31.78-19.107L337.776,228.297z M316.408,264.723l4.199,6.984l31.78-19.107l-4.199-6.984
		L316.408,264.723z"/>
	<path fill="#FFFFFF" d="M426.22,353.539c43.785,15.998,42.215,58.002,42.215,58.002c-83,9.666-56.918-54.889-56.918-54.889
		L426.22,353.539z"/>
	<path fill="#FFFFFF" d="M407.529,347.697l-23.734,19.066l20.236-21.824C405.205,345.85,406.371,346.768,407.529,347.697z"/>
	<path fill="#FE0000" d="M396.517,275.234c0,0-0.055,0.061-0.082,0.047c-0.025,0.014-0.082-0.047-0.082-0.047
		c-4.76-2.656-13.66-7.943-9.938-14.441c2.838-4.957,8.354-1.826,10.02,0.656c1.668-2.482,7.182-5.613,10.021-0.656
		C410.177,267.291,401.277,272.578,396.517,275.234z"/>
	<path fill="#B7A99F" d="M289.471,438.475c0,1.412-19.917,2.557-44.484,2.557c-24.566,0-44.481-1.145-44.481-2.557
		s19.915-2.557,44.481-2.557C269.554,435.918,289.471,437.062,289.471,438.475z"/>
	<path fill="#351F10" d="M273.436,265.006c3.471,6.212-9,27-9,27l-46.562,0.492c0,0-11.765-21.838-7.438-27.492
		C220.008,252.5,265.753,251.258,273.436,265.006z"/>
	<path fill="#351F10" d="M264.184,378.695l-10.904,50.742l12.383,7.463l-21.02,0.236c0,0,0-53.693,0-54.93
		s-6.029,45.576-6.029,45.576v9.654l-18.667,1l12.309-9.127l-7.229-51.336l-6.814-0.127l6.236-35.68l-20.012,31.039l20.178-52.769
		l39.4-1.29l20.422,55.059l-21.01-31.221l5.533,35.924L264.184,378.695z"/>
	<path fill="#E2D4BF" d="M255.682,314.828l-9.523,47.148l-15.205-46.324L255.682,314.828z"/>
	<path fill="#EABB98" d="M269.826,302.35c-0.389-0.045-0.759-0.148-1.111-0.299c-3.666,6.729-13.025,11.784-24.216,12.3
		c-11.045,0.51-20.731-3.553-25.083-9.78c-0.342,0.287-0.72,0.525-1.145,0.687c-2.766,1.055-6.19-1.194-7.65-5.023
		c-1.461-3.827-0.401-7.785,2.363-8.839c1.576-0.603,3.369-0.126,4.889,1.104c2.953-7.528,2.596-18.951,24.976-20.934
		c17.587-1.559,21.087,10.708,25.317,17.132c0.986-0.807,2.139-1.225,3.322-1.092c2.939,0.33,4.953,3.899,4.494,7.972
		C275.521,299.647,272.768,302.679,269.826,302.35z"/>
	<path fill="#351F10" d="M241.591,293.162c-0.327,1.236-1.627,1.969-2.899,1.631c-1.274-0.338-2.043-1.615-1.716-2.852
		c0.327-1.238,1.627-1.969,2.901-1.632C241.15,290.646,241.92,291.924,241.591,293.162z"/>
	<path fill="#351F10" d="M260.359,293.488c-0.327,1.236-1.626,1.967-2.901,1.63c-1.273-0.337-2.042-1.614-1.714-2.851
		c0.327-1.238,1.627-1.967,2.901-1.631C259.918,290.974,260.687,292.25,260.359,293.488z"/>
	<path fill="#665E5A" d="M245.732,361.553c-15.662-8.244-24.213-40.87-24.213-40.87l10.285-5.243L245.732,361.553z M252.996,311.957
		l-6.838,50.02c0,0,15.733-23.457,19.855-42.828L252.996,311.957z"/>
	<path fill="#FE0000" d="M256.588,307.525l0.215,17.568l-13.154-7.524l-12.611,7.507l-1.451-17.644l13.854,6.784L256.588,307.525z"
		/>
	<path fill="#B7A99F" d="M111.471,438.475c0,1.412-19.917,2.557-44.484,2.557s-44.482-1.145-44.482-2.557s19.915-2.557,44.482-2.557
		S111.471,437.062,111.471,438.475z"/>
	<path fill="#351F10" d="M89.184,379.695l-10.904,50.742l12.383,7.463l-21.02,0.236c0,0,0-53.693,0-54.93
		s-6.029,45.576-6.029,45.576v9.654l-18.667,1l12.309-9.127l-7.229-51.336l-6.814-0.127l6.236-35.68l-24.012,37.039l24.178-58.769
		l39.4-1.29l20.422,55.059l-21.01-31.221l5.533,35.924L89.184,379.695z"/>
	<path fill="#E2D4BF" d="M80.682,315.828l-9.523,47.148l-15.205-46.324L80.682,315.828z"/>
	<path fill="#EABB98" d="M94.826,303.35c-0.389-0.045-0.759-0.148-1.111-0.299c-3.666,6.729-13.025,11.784-24.216,12.3
		c-11.045,0.51-20.731-3.553-25.083-9.78c-0.342,0.287-0.72,0.525-1.145,0.687c-2.766,1.055-6.19-1.194-7.65-5.023
		c-1.461-3.827-0.401-7.785,2.363-8.839c1.576-0.603,3.369-0.126,4.889,1.104c2.953-7.528,2.512-20.562,24.976-20.934
		c21.587-0.357,21.087,10.708,25.317,17.132c0.986-0.807,2.139-1.225,3.322-1.092c2.939,0.33,4.953,3.899,4.494,7.972
		C100.521,300.647,97.768,303.679,94.826,303.35z"/>
	<path fill="#351F10" d="M66.591,291.162c-0.327,1.236-1.627,1.969-2.899,1.631c-1.274-0.338-2.043-1.615-1.716-2.852
		c0.327-1.238,1.627-1.969,2.901-1.632C66.15,288.646,66.92,289.924,66.591,291.162z"/>
	<path fill="#351F10" d="M85.359,291.488c-0.327,1.236-1.626,1.967-2.901,1.63c-1.273-0.337-2.042-1.614-1.714-2.851
		c0.327-1.238,1.627-1.967,2.901-1.631C84.918,288.974,85.687,290.25,85.359,291.488z"/>
	<path fill="#351F10" d="M73.093,304.529c-10.38,10.121-19.08-1.75-16.996-0.15c2.104,1.619,5.5,1.781,7.28-3.719
		c1.78-5.504,9.709-1.457,9.709-1.457l0.007,0.104l0.006-0.104c0,0,7.929-4.047,9.709,1.457c1.78,5.5,5.178,5.338,7.281,3.719
		C92.172,302.779,83.472,314.65,73.093,304.529z"/>
	<path fill="#FE0000" d="M70.732,362.553c-15.662-8.244-24.213-40.87-24.213-40.87l10.285-5.243L70.732,362.553z M77.996,312.957
		l-6.838,50.02c0,0,15.733-23.457,19.855-42.828L77.996,312.957z"/>
	<path fill="#665E5A" d="M81.588,308.525l0.215,17.568l-13.154-7.524l-12.611,7.507l-1.451-17.644l13.854,6.784L81.588,308.525z"/>
	<path fill="#351F10" d="M130.666,292.498c0,0-13.23-36.291,41.77-40.291l8.523,36.489L130.666,292.498z"/>
	<path fill="#351F10" d="M174.977,378.695l-10.904,50.742l12.383,7.463l-21.02,0.236c0,0,0-53.693,0-54.93
		s-6.029,45.576-6.029,45.576v9.654l-18.667,1l12.309-9.127l-7.229-51.336l-6.814-0.127l4.236-35.68l-21.012,31.838l23.178-53.567
		l39.4-1.29l18.629,53.059l-18.217-29.221l4.533,35.924L174.977,378.695z"/>
	<path fill="#E2D4BF" d="M168.475,314.828l-9.523,47.148l-15.205-46.324L168.475,314.828z"/>
	<path fill="#EABB98" d="M182.619,302.35c-0.389-0.045-0.759-0.148-1.111-0.299c-3.666,6.729-13.025,11.784-24.216,12.3
		c-11.045,0.51-20.731-3.553-25.083-9.78c-0.342,0.287-0.72,0.525-1.145,0.687c-2.766,1.055-6.19-1.194-7.65-5.023
		c-1.461-3.827-0.401-7.785,2.363-8.839c1.576-0.603,3.369-0.126,4.889,1.104c2.953-7.528,2.596-15.951,24.976-17.934
		c17.587-1.559,21.087,7.708,25.317,14.132c0.986-0.807,2.139-1.225,3.322-1.092c2.939,0.33,4.953,3.899,4.494,7.972
		C188.314,299.647,185.561,302.679,182.619,302.35z"/>
	<path fill="#351F10" d="M154.384,293.162c-0.327,1.236-1.627,1.969-2.899,1.631c-1.274-0.338-2.043-1.615-1.716-2.852
		c0.327-1.238,1.627-1.969,2.901-1.632C153.943,290.646,154.713,291.924,154.384,293.162z"/>
	<path fill="#351F10" d="M173.152,293.488c-0.327,1.236-1.626,1.967-2.901,1.63c-1.273-0.337-2.042-1.614-1.714-2.851
		c0.327-1.238,1.627-1.967,2.901-1.631C172.711,290.974,173.479,292.25,173.152,293.488z"/>
	<path fill="#665E5A" d="M158.525,361.553c-15.662-8.244-24.213-40.87-24.213-40.87l10.285-5.243L158.525,361.553z"/>
	<path fill="#B7A99F" d="M201.471,438.475c0,1.412-19.917,2.557-44.484,2.557s-44.482-1.145-44.482-2.557s19.915-2.557,44.482-2.557
		S201.471,437.062,201.471,438.475z"/>
	<path fill="#665E5A" d="M178.807,319.148c-4.122,19.371-19.855,42.828-19.855,42.828l6.838-50.02L178.807,319.148z"/>
	<path fill="#351F10" d="M169.381,307.525l0.215,17.568l-13.154-7.524l-12.611,7.507l-1.451-17.644l13.854,6.784L169.381,307.525z"
		/>
	<path fill="#FE0000" d="M149.906,427.707l1,10.207l-24.91,1.113l17.077-9.654L149.906,427.707z M165.902,429.328l-10.966-1.621
		v9.936l25.407-0.262L165.902,429.328z"/>
	<path fill="#B7A99F" d="M588.47,438.475c0,1.412-19.916,2.557-44.484,2.557c-24.566,0-44.48-1.145-44.48-2.557
		s19.914-2.557,44.48-2.557C568.554,435.918,588.47,437.062,588.47,438.475z"/>
	<path fill="#EABB98" d="M554.103,349.936l-4,84.203h-3l-2.5-70.416l-2,70.908h-3.5l-3-84.695H554.103z"/>
	<path fill="#FE0000" d="M543.603,434.631l-8.5,5.91l5-12.803l2.5,0.984L543.603,434.631z"/>
	<path fill="#FE0000" d="M547.103,428.723l2.5-0.984l7,12.803l-10.5-5.91L547.103,428.723z"/>
	<path fill="#351F10" d="M561.644,280.859c10.885,7.59,25.43,26.807,13.797,39.073c-16.738,17.652-57.764,15.522-63.018-8.912
		c-4.32-20.101,12.092-31.37,26-34.945C545.673,274.211,553.732,275.344,561.644,280.859z"/>
	<path fill="#EABB98" d="M570.603,363.307l-17.09-32.232l-17.234,1.97l-15.676,29.769l15.344-42.173
		c-5.848-1.731-10.469-4.943-12.748-8.921c-0.1,0.03-0.201,0.057-0.305,0.072c-1.842,0.266-3.721-2.117-4.199-5.322
		c-0.482-3.205,0.621-6.02,2.461-6.285c0.633-0.094,1.268,0.134,1.852,0.595c3.311-6.214,9.27-10.67,19.811-10.67
		c11.805,0,21.627,5.585,23.75,12.972c0.455-0.081,3.891-0.047,4.277,0.133c1.684,0.775,1.879,3.865,0.434,6.899
		c-1.213,2.546-3.193,4.236-4.795,4.257c-2.646,2.867-6.623,5.14-11.363,6.445L570.603,363.307z"/>
	<path fill="#FE0000" d="M538.873,353.383l-3.594-24.309c0,0,6.656-4.189,9.066-4.232c2.674-0.045,10.168,4.232,10.168,4.232
		l-4.1,24.197L538.873,353.383z"/>
	<path fill="#351F10" d="M535.392,303.74c0,1.26-0.959,2.283-2.139,2.283s-2.139-1.023-2.139-2.283c0-1.262,0.959-2.283,2.139-2.283
		S535.392,302.479,535.392,303.74z"/>
	<path fill="#351F10" d="M550.535,304.756c0,1.26-0.957,2.283-2.137,2.283c-1.182,0-2.139-1.023-2.139-2.283
		c0-1.262,0.957-2.284,2.139-2.284C549.578,302.472,550.535,303.494,550.535,304.756z"/>
	<path fill="#FE0000" d="M515.103,397.283c0,0,3-45.303,31.281-44.494c24.736,0.709,32.719,41.539,32.719,41.539
		S559.103,408.117,515.103,397.283z"/>
	<path fill="#665E5A" d="M554.103,354.936h-18v-6.895h18V354.936z"/>
	<path fill="#FE0000" d="M571.007,296.133c-0.398,1.81-3.059,1.982-4.48,0.703c1.074,1.256,2.111,6.664-0.791,6.99
		c-1.426,0.16-2.145-1.617-2.336-3.164c-0.248,0.934-0.834,1.931-1.486,2.273c-0.254,0.135-2.287,0.119-2.484-0.018
		c-2.021-1.416,0.078-4.104,1.477-5.728c-2.076,1.188-7.342,1.056-6.686-2.313c0.379-1.936,4.998-2.139,6.172-0.271
		c-1.045-1.311-1.789-5.715-0.162-6.625c2.314-1.293,2.898,2.535,2.871,4.205c-0.215-1.291,3.758-4.578,5.281-3.404
		c1.941,1.494-1.623,4.359-2.779,5.093C567.574,292.544,571.689,293.039,571.007,296.133z"/>
	<path fill="#B7A99F" d="M752.47,438.475c0,1.412-19.916,2.557-44.484,2.557c-24.566,0-44.48-1.145-44.48-2.557
		s19.914-2.557,44.48-2.557C732.554,435.918,752.47,437.062,752.47,438.475z"/>
	<path fill="#EABB98" d="M713.39,353.389l-3.787,79.75h-3l-2.5-70.416l-2,70.908h-3.5l-2.844-80.242H713.39z"/>
	<path fill="#FE0000" d="M703.103,433.631l-8.5,5.91l5-12.803l2.5,0.984L703.103,433.631z"/>
	<path fill="#FE0000" d="M706.603,427.723l2.5-0.984l7,12.803l-10.5-5.91L706.603,427.723z"/>
	<path fill="#351F10" d="M678.462,304.835c-3.504-18.941,3.432-28.966,16.973-32.446c7.25-1.864,20.09-0.183,28,5.333
		c8.279,5.771,9.332,17.778,5.348,27.569C712.281,302.572,695.195,303.459,678.462,304.835z"/>
	<path fill="#EABB98" d="M736.103,359.307l-22.09-29.232l-18.234-0.03l-17.676,31.769l15.344-42.173
		c-3.848-1.731-8.469-4.943-10.748-8.921c-0.1,0.03-0.201,0.057-0.305,0.072c-1.842,0.266-3.721-2.117-4.199-5.322
		c-0.482-3.205,0.621-6.02,2.461-6.285c0.633-0.094,1.268,0.134,1.852,0.595c3.311-6.214,9.27-10.67,19.811-10.67
		c11.805,0,21.627,5.585,23.75,12.972c0.455-0.081,3.891-0.047,4.277,0.133c1.684,0.775,1.879,3.865,0.434,6.899
		c-1.213,2.546-3.193,4.236-4.795,4.257c-2.646,2.867-6.623,5.14-11.363,6.445L736.103,359.307z"/>
	<path fill="#FE0000" d="M698.373,352.383l-3.594-24.309c0,0,6.656-4.189,9.066-4.232c2.674-0.045,10.168,4.232,10.168,4.232
		l-4.1,24.197L698.373,352.383z"/>
	<path fill="#351F10" d="M694.892,302.74c0,1.26-0.959,2.283-2.139,2.283s-2.139-1.023-2.139-2.283c0-1.262,0.959-2.283,2.139-2.283
		S694.892,301.479,694.892,302.74z"/>
	<path fill="#351F10" d="M710.035,303.756c0,1.26-0.957,2.283-2.137,2.283c-1.182,0-2.139-1.023-2.139-2.283
		c0-1.262,0.957-2.284,2.139-2.284C709.078,301.472,710.035,302.494,710.035,303.756z"/>
	<path fill="#FE0000" d="M694.769,386.723c0,0-17.166-35.742,11.115-34.934c24.736,0.709,9.551,35.266,9.551,35.266
		S706.103,390.723,694.769,386.723z"/>
	<path fill="#FE0000" d="M730.507,295.133c-0.398,1.81-3.059,1.982-4.48,0.703c1.074,1.256,2.111,6.664-0.791,6.99
		c-1.426,0.16-2.145-1.617-2.336-3.164c-0.248,0.934-0.834,1.931-1.486,2.273c-0.254,0.135-2.287,0.119-2.484-0.018
		c-2.021-1.416,0.078-4.104,1.477-5.728c-2.076,1.188-7.342,1.056-6.686-2.313c0.379-1.936,4.998-2.139,6.172-0.271
		c-1.045-1.311-1.789-5.715-0.162-6.625c2.314-1.293,2.898,2.535,2.871,4.205c-0.215-1.291,3.758-4.578,5.281-3.404
		c1.941,1.494-1.623,4.359-2.779,5.093C727.074,291.544,731.189,292.039,730.507,295.133z"/>
	<path fill="#665E5A" d="M710.103,327.541l-5.219,25.068l-6.781-24.734C703.437,318.541,710.103,327.541,710.103,327.541z"/>
	<path fill="#B7A99F" d="M668.47,438.475c0,1.412-19.916,2.557-44.484,2.557c-24.566,0-44.48-1.145-44.48-2.557
		s19.914-2.557,44.48-2.557C648.554,435.918,668.47,437.062,668.47,438.475z"/>
	<path fill="#EABB98" d="M633.171,354.207l-3.797,79.932h-3l-2.5-70.416l-2,70.908h-3.5l-2.85-80.424H633.171z"/>
	<path fill="#665E5A" d="M622.875,434.631l-8.5,5.91l5-12.803l2.5,0.984L622.875,434.631z"/>
	<path fill="#665E5A" d="M626.375,428.723l2.5-0.984l7,12.803l-10.5-5.91L626.375,428.723z"/>
	<path fill="#351F10" d="M641.916,277.859c10.885,7.59,16.424,22.748,4.791,35.016c-16.738,17.652-32.666,65.332-47.332-4.668
		c-4.217-20.123,5.412-31.557,19.32-35.132C625.945,271.211,634.003,272.344,641.916,277.859z"/>
	<path fill="#EABB98" d="M646.755,311.369c-2.646,2.867-6.623,5.14-11.363,6.445l15.482,42.492l-17.09-29.232l-17.234,0.97
		l-15.676,27.769l15.344-42.173c-5.848-1.731-10.469-4.943-12.748-8.921c-0.1,0.03-0.201,0.057-0.305,0.072
		c-1.842,0.266-3.721-2.117-4.199-5.322c-0.482-3.205,0.621-6.02,2.461-6.285c0.633-0.094,1.268,0.134,1.852,0.595
		c0.332-0.625,0.693-1.231,1.084-1.817c0.367,0.051,0.76,0.053,1.184-0.04c5.27-1.146,10.311-3.657,13.963-7.532
		c7.982,5.623,17.725,10.422,26.77,10.181c0.219,0.495,0.412,0.997,0.561,1.511c0.455-0.081,3.891-0.047,4.277,0.133
		c1.684,0.775,1.879,3.865,0.434,6.899C650.337,309.658,648.357,311.349,646.755,311.369z"/>
	<path fill="#665E5A" d="M618.144,352.383l-2.594-26.309c0,0,6.656-4.189,9.066-4.232c2.674-0.045,10.168,4.232,10.168,4.232
		l-3.1,26.197L618.144,352.383z"/>
	<path fill="#351F10" d="M615.664,300.74c0,1.26-0.959,2.283-2.139,2.283s-2.139-1.023-2.139-2.283c0-1.262,0.959-2.283,2.139-2.283
		S615.664,299.479,615.664,300.74z"/>
	<path fill="#351F10" d="M630.806,301.756c0,1.26-0.957,2.283-2.137,2.283c-1.182,0-2.139-1.023-2.139-2.283
		c0-1.262,0.957-2.284,2.139-2.284C629.849,299.472,630.806,300.494,630.806,301.756z"/>
	<path fill="#FE0000" d="M615.794,418.578c-2.1-8.406-16.477-69.543,9.861-68.789c21.893,0.627,10.557,55.299,7.662,67.857
		C627.484,418.131,621.646,418.5,615.794,418.578z"/>
	<path fill="#FE0000" d="M640.111,326.466c-0.398,1.81-3.059,1.983-4.48,0.703c1.074,1.257,2.111,6.664-0.791,6.991
		c-1.426,0.16-2.145-1.617-2.336-3.164c-0.248,0.933-0.834,1.93-1.486,2.273c-0.254,0.134-2.287,0.119-2.484-0.018
		c-2.021-1.416,0.078-4.104,1.477-5.729c-2.076,1.188-7.342,1.057-6.686-2.313c0.379-1.935,4.998-2.138,6.172-0.271
		c-1.045-1.31-1.789-5.714-0.162-6.624c2.314-1.293,2.898,2.535,2.871,4.205c-0.215-1.291,3.758-4.578,5.281-3.405
		c1.941,1.495-1.623,4.36-2.779,5.093C636.677,322.877,640.792,323.373,640.111,326.466z"/>
	<path fill="#351F10" d="M153.064,48.822c-2.009,6.831,16.811,22.99,16.811,22.99l43.283-17.174c0,0,4.177-23.88-1.292-28.432
		C199.76,16.133,157.51,33.713,153.064,48.822z"/>
	<path fill="#351F10" d="M244.042,135.641l-5.604,59.027l13.797,7.651l-20.439-0.151c0,0-6.288-55.082-6.732-56.235
		c-0.444-1.153,2.015,56.517,2.015,56.517l-20.975,0.256l12.123-6.559l-9.992-47.122l-7.405,2.327l-12.906-39.824l-37.401,22.244
		l35.674-38.301l32.339-14.875l56.987-3.824L229.73,89.458l18.846,44.669L244.042,135.641z"/>
	<path fill="#E2D4BF" d="M213.18,79.082l8.036,47.425l-30.821-37.778L213.18,79.082z"/>
	<path fill="#EABB98" d="M222.835,61.999c-0.378,0.099-0.761,0.134-1.145,0.119c-1.005,7.597-7.927,15.675-18.186,20.173
		c-10.126,4.439-20.625,4.125-26.921-0.123c-0.216,0.391-0.483,0.748-0.822,1.05c-2.203,1.977-6.207,1.108-8.944-1.942
		c-2.737-3.047-3.169-7.122-0.967-9.097c1.255-1.129,3.099-1.328,4.959-0.725c0.053-8.088-4.38-18.62,15.796-28.505
		c15.855-7.768,23.525,2.425,29.78,6.901c0.631-1.106,1.556-1.911,2.709-2.212c2.862-0.747,6.023,1.863,7.056,5.828
		C227.181,57.432,225.699,61.249,222.835,61.999z"/>
	<path fill="#351F10" d="M187.584,65.714c0.138,1.271-0.812,2.42-2.12,2.562c-1.311,0.142-2.487-0.774-2.625-2.047
		c-0.139-1.271,0.812-2.421,2.123-2.563C186.269,63.523,187.447,64.439,187.584,65.714z"/>
	<path fill="#351F10" d="M205.219,59.281c0.138,1.271-0.812,2.419-2.124,2.561c-1.309,0.144-2.485-0.774-2.623-2.045
		c-0.139-1.272,0.812-2.419,2.123-2.562C203.904,57.091,205.08,58.007,205.219,59.281z"/>
	<path fill="#665E5A" d="M220.667,126.264c-17.578-2.072-38.348-32.255-38.348-32.255l8.794-5.785L220.667,126.264z"/>
	<path fill="#665E5A" d="M224.374,79.406c3.106,19.559-3.158,47.101-3.158,47.101l-11.573-49.141L224.374,79.406z"/>
	<path fill="#FE0000" d="M211.404,71.941l6.507,16.319l-14.979-2.302l-9.075,11.534l-7.688-15.946l15.366,1.359L211.404,71.941z"/>
	<path fill="#B7A99F" d="M553.522,202.354c0,1.412-113.943,2.557-254.504,2.557c-140.555,0-254.496-1.145-254.496-2.557
		s113.94-2.557,254.496-2.557C439.579,199.797,553.522,200.941,553.522,202.354z"/>
	<path fill="#351F10" d="M315.769,135.221l-11.363,51.884l13.547,13.052l-20.615,0.107c0,0,0.102-54.773-0.127-55.988
		c-0.229-1.217-4.523,43.906-4.523,43.906l-1.221,11.49l-18.162,0.424l10.414-9.24l-6.569-49.123l-6.721,1.131l-0.448-36.219
		l0.543,11.127l6,22l-19.378-23.264l8.992-31.25l38.487-8.532l39.285,43.46l-35.469-19.922l12.061,34.287L315.769,135.221z"/>
	<path fill="#E2D4BF" d="M295.638,74.016l-0.668,48.098l-23.484-42.729L295.638,74.016z"/>
	<path fill="#EABB98" d="M307.239,59.143c-0.389,0.028-0.773-0.005-1.146-0.088c-2.363,7.289-10.631,13.983-21.533,16.553
		c-10.762,2.537-21.031,0.33-26.457-4.988c-0.281,0.346-0.609,0.648-0.998,0.885c-2.523,1.547-6.305-0.031-8.445-3.525
		c-2.141-3.492-1.829-7.578,0.694-9.124c1.438-0.883,3.287-0.745,5.009,0.185c1.514-7.945,10.214-15.526,21.978-18.301
		c10.966-2.582,21.409-0.242,26.751,5.291c0.82-0.974,1.875-1.598,3.064-1.686c2.949-0.217,5.588,2.92,5.887,7.008
		C312.339,55.438,310.19,58.925,307.239,59.143z"/>
	<path fill="#351F10" d="M273.312,56.527c-0.094,1.276-1.125,2.242-2.301,2.156c-1.178-0.086-2.057-1.192-1.965-2.469
		c0.094-1.276,1.126-2.242,2.303-2.156S273.405,55.251,273.312,56.527z"/>
	<path fill="#351F10" d="M291.308,53.095c-0.094,1.275-1.125,2.241-2.303,2.155c-1.176-0.087-2.057-1.192-1.963-2.468
		c0.094-1.276,1.126-2.242,2.303-2.155C290.521,50.713,291.4,51.818,291.308,53.095z"/>
	<path fill="#351F10" d="M273.546,19.21c33.293,6.286,33.881,33.827,33.881,33.827s-14.533-15.943-32.279-10.633
		s-20.886,19.959-20.886,19.959C239.768,40.225,273.546,19.21,273.546,19.21z"/>
	<path fill="#665E5A" d="M294.474,121.773c-16.914-5.215-31.332-35.707-31.332-35.707l9.143-7.049L294.474,121.773z"/>
	<path fill="#665E5A" d="M306.589,76.357c-0.48,19.799-11.619,45.756-11.619,45.756l-2.5-50.425L306.589,76.357z"/>
	<path fill="#FFFFFF" d="M295.183,66.671l3.449,17.228l-14.314-4.971l-11.012,9.703l-4.679-17.073l14.866,4.114L295.183,66.671z"/>
	<path fill="#351F10" d="M309.023,31.958l-68.081,10.383l-0.965-6.596l68.081-10.383L309.023,31.958z M288.657,0l-36.692,5.36
		l4.24,29.025l36.692-5.36L288.657,0z"/>
	<path fill="#665E5A" d="M291.577,19.995l1.179,8.063l-36.692,5.359l-1.178-8.062L291.577,19.995z"/>
	<path opacity="0.7" fill="#F7F2E8" d="M332.296,41.968c27.195,3.143,35.936,44.087,35.936,44.087
		c-33.518,25.918-83.28,13.574-83.28,13.574c0.485-52.816,28.417-60.705,28.417-60.705L332.296,41.968z"/>
	<path fill="#EABB98" d="M353.522,129.771l-20.846-37.363l-17.062,5.143l-15.092,37.221l14.055-51.74
		c-5.949-1.365-10.779-4.311-13.322-8.189c-0.098,0.038-0.197,0.07-0.299,0.094c-1.818,0.393-3.855-1.896-4.551-5.111
		c-0.695-3.216,0.213-6.141,2.031-6.533c0.625-0.137,1.275,0.053,1.889,0.48c2.881-6.517,11.52-11.627,22.037-12.329
		c11.779-0.786,21.957,4.218,24.576,11.56c0.447-0.111,0.885-0.105,1.283,0.051c1.73,0.674,2.135,3.791,0.898,6.961
		c-1.039,2.66-2.9,4.505-4.496,4.631c-2.447,3.082-6.262,5.648-10.902,7.287L353.522,129.771z"/>
	<path fill="#FFFFFF" d="M319.712,116.01l-5.229-24.389c0,0,6.424-3.689,8.826-3.893c2.664-0.225,10.363,2.612,10.363,2.612
		l-2.455,24.788L319.712,116.01z"/>
	<path fill="#351F10" d="M346.735,66.477c-19.264,0.184-25.369-14.969-25.369-14.969c-7.273,14.806-23.266,14.496-23.266,14.496
		s-6.122-22.84,15.154-26.559c-1.131-3.134-6.646-20.686,12.68-18.532c19.275,2.147,9.26,17.175,6.84,20.433
		C348.386,48.058,346.735,66.477,346.735,66.477z"/>
	<path fill="#351F10" d="M314.876,65.813c0.086,1.276-0.801,2.377-1.979,2.456c-1.176,0.078-2.203-0.895-2.287-2.172
		c-0.086-1.277,0.801-2.376,1.979-2.455C313.767,63.564,314.792,64.536,314.876,65.813z"/>
	<path fill="#351F10" d="M333.05,65.634c0.084,1.276-0.803,2.377-1.98,2.456c-1.178,0.078-2.201-0.895-2.287-2.172
		s0.801-2.377,1.979-2.455S332.964,64.356,333.05,65.634z"/>
	<path fill="#FFFFFF" d="M339.417,42.643c-0.273,1.839-2.885,2.188-4.375,0.998c1.145,1.189,2.529,6.537-0.312,7.056
		c-1.396,0.255-2.225-1.479-2.518-3.017c-0.18,0.952-0.691,1.989-1.314,2.377c-0.24,0.15-2.246,0.27-2.451,0.145
		c-2.09-1.285-0.197-4.116,1.074-5.835c-1.969,1.326-7.174,1.542-6.752-1.878c0.244-1.964,4.791-2.471,6.072-0.678
		c-1.119-1.244-2.148-5.607-0.602-6.626c2.195-1.448,3.029,2.349,3.113,4.024c-0.299-1.28,3.4-4.836,4.982-3.76
		c2.016,1.369-1.311,4.476-2.4,5.285C335.788,39.272,339.882,39.498,339.417,42.643z"/>
	<path fill="#FFF7E9" d="M284.779,197.19c0,0,6.569-86.747,44.382-82.415c37.814,4.33,54.42,71.146,54.42,71.146
		S347.397,214.393,284.779,197.19z"/>
	<path fill="#FFFFFF" d="M378.522,164.771c-30,3-49-32-49-32c-3,41-42,46-42,46c-1-46,32.189-63.762,32.189-63.762l11.506-0.881
		C360.913,114.486,378.522,164.771,378.522,164.771z"/>
	<path fill="#351F10" d="M37.753,56.062c0,0-13.23-36.291,41.77-40.291l8.523,36.488L37.753,56.062z"/>
	<path fill="#351F10" d="M82.063,142.26l-10.904,50.742l12.383,7.463l-21.02,0.236c0,0,0-53.693,0-54.93s-6.029,45.576-6.029,45.576
		v9.654l-18.667,1l12.309-9.127l-7.229-51.336l-6.814-0.127l4.236-37.68L9.522,130.771l32.971-46.77l39.4-1.289l18.629,45.059
		l-16.217-23.221l2.533,37.924L82.063,142.26z"/>
	<path fill="#E2D4BF" d="M75.562,78.393l-9.523,47.148L50.833,79.217L75.562,78.393z"/>
	<path fill="#EABB98" d="M89.706,65.914c-0.389-0.045-0.759-0.148-1.111-0.299c-3.666,6.729-13.025,11.783-24.216,12.299
		c-11.045,0.51-20.731-3.553-25.083-9.779c-0.342,0.287-0.72,0.525-1.145,0.686c-2.766,1.055-6.19-1.193-7.65-5.023
		c-1.461-3.826-0.401-7.785,2.363-8.838c1.576-0.604,3.369-0.127,4.889,1.104c2.953-7.529,2.596-15.951,24.976-17.934
		c17.587-1.559,21.087,7.707,25.317,14.131c0.986-0.807,2.139-1.225,3.322-1.092c2.939,0.33,4.953,3.9,4.494,7.973
		C95.401,63.211,92.647,66.242,89.706,65.914z"/>
	<path fill="#351F10" d="M61.471,56.727c-0.327,1.236-1.627,1.968-2.899,1.631c-1.274-0.338-2.043-1.615-1.716-2.853
		s1.627-1.969,2.901-1.632C61.03,54.211,61.8,55.488,61.471,56.727z"/>
	<path fill="#351F10" d="M80.239,57.053c-0.327,1.236-1.626,1.967-2.901,1.629c-1.273-0.336-2.042-1.614-1.714-2.851
		c0.327-1.237,1.627-1.967,2.901-1.63C79.798,54.537,80.566,55.814,80.239,57.053z"/>
	<path fill="#665E5A" d="M65.612,125.117c-15.662-8.244-24.213-40.871-24.213-40.871l10.285-5.242L65.612,125.117z"/>
	<path fill="#665E5A" d="M85.894,82.713c-4.122,19.371-19.855,42.828-19.855,42.828l6.838-50.02L85.894,82.713z"/>
	<path fill="#351F10" d="M76.468,71.09l0.215,17.568l-13.154-7.525l-12.611,7.508l-1.451-17.645l13.854,6.785L76.468,71.09z"/>
	<path fill="#FE0000" d="M56.993,191.271l1,10.206l-24.91,1.113l17.077-9.653L56.993,191.271z"/>
	<path fill="#FE0000" d="M87.429,200.944l-25.407,0.263v-9.936l10.966,1.621L87.429,200.944z"/>
	<path fill="#EABB98" d="M559.478,117.952l-3.788,79.751h-3l-2.5-70.417l-2,70.909h-3.5l-2.843-80.243H559.478z"/>
	<path fill="#FE0000" d="M549.189,198.195l-8.5,4.909l5-11.803l2.5,0.984L549.189,198.195z"/>
	<path fill="#FE0000" d="M552.689,192.286l2.5-0.984l7,11.803l-10.5-4.909L552.689,192.286z"/>
	<path fill="#351F10" d="M524.549,69.398c-3.504-18.941,3.432-28.965,16.974-32.446c7.25-1.864,20.089-0.183,28,5.333
		c8.278,5.771,9.332,17.779,5.348,27.57C558.367,67.136,541.281,68.022,524.549,69.398z"/>
	<path fill="#EABB98" d="M603.522,69.771L560.1,94.639l-18.234-0.031l-42.343,12.164l41.011-21.568
		c-3.848-1.731-9.469-5.943-11.748-9.921c-0.1,0.03-0.201,0.057-0.305,0.072c-1.842,0.267-3.721-2.116-4.199-5.321
		c-0.482-3.205,0.621-6.02,2.461-6.286c0.633-0.093,1.268,0.134,1.852,0.595c3.311-6.213,9.27-10.67,19.811-10.67
		c11.805,0,21.627,5.586,23.75,12.972c0.455-0.081,3.891-0.046,4.277,0.134c1.684,0.775,1.879,3.864,0.434,6.898
		c-1.213,2.546-3.193,4.236-4.795,4.257c-2.646,2.867-6.623,5.14-11.363,6.446L603.522,69.771z"/>
	<path fill="#FE0000" d="M544.459,116.946l-3.594-24.308c0,0,6.656-4.189,9.066-4.232c2.674-0.046,10.168,4.232,10.168,4.232
		l-4.1,24.196L544.459,116.946z"/>
	<path fill="#351F10" d="M540.979,67.304c0,1.261-0.959,2.283-2.139,2.283s-2.139-1.022-2.139-2.283s0.959-2.282,2.139-2.282
		S540.979,66.043,540.979,67.304z"/>
	<path fill="#351F10" d="M556.121,68.319c0,1.26-0.957,2.283-2.137,2.283c-1.182,0-2.139-1.023-2.139-2.283
		c0-1.261,0.957-2.284,2.139-2.284C555.164,66.035,556.121,67.059,556.121,68.319z"/>
	<path fill="#FE0000" d="M540.855,151.286c0,0-17.166-35.742,11.115-34.933c24.736,0.708,9.552,35.266,9.552,35.266
		S552.189,155.286,540.855,151.286z"/>
	<path fill="#FE0000" d="M576.594,59.696c-0.398,1.81-3.059,1.983-4.48,0.703c1.074,1.257,2.111,6.664-0.791,6.991
		c-1.426,0.16-2.145-1.617-2.336-3.164c-0.248,0.933-0.834,1.93-1.486,2.273c-0.254,0.134-2.287,0.119-2.484-0.018
		c-2.021-1.416,0.078-4.104,1.477-5.729c-2.076,1.188-7.342,1.057-6.686-2.313c0.379-1.935,4.998-2.138,6.172-0.271
		c-1.045-1.31-1.789-5.714-0.162-6.624c2.314-1.293,2.898,2.535,2.871,4.205c-0.215-1.291,3.758-4.578,5.281-3.405
		c1.941,1.495-1.623,4.36-2.779,5.093C573.16,56.107,577.275,56.604,576.594,59.696z"/>
	<path fill="#665E5A" d="M556.189,92.105l-5.219,25.067l-6.781-24.734C549.523,83.105,556.189,92.105,556.189,92.105z"/>
	<path fill="#EABB98" d="M141.472,112.759l-4.121,86.751h-3.091l-2.576-72.547l-2.061,73.054h-3.606l-3.09-87.258H141.472z"/>
	<path fill="#FE0000" d="M130.654,200.017l-9.757,4.088l6.151-11.19l2.576,1.015L130.654,200.017z"/>
	<path fill="#FE0000" d="M134.26,193.929l2.576-1.015l7.211,10.19l-10.817-3.088L134.26,193.929z"/>
	<path fill="#351F10" d="M149.241,41.594c11.215,7.818,26.199,27.617,14.215,40.254c-17.246,18.187-59.512,15.993-64.924-9.182
		c-4.452-20.708,12.458-32.318,26.785-36.002C132.787,34.744,141.09,35.911,149.241,41.594z"/>
	<path fill="#EABB98" d="M161.522,121.771l-20.659-29.444l-17.756,3.028l-21.585,32.416l21.244-45.195
		c-6.024-1.783-10.786-5.093-13.134-9.19c-0.103,0.031-0.207,0.059-0.314,0.074c-1.897,0.274-3.833-2.181-4.326-5.482
		c-0.497-3.302,0.64-6.201,2.536-6.476c0.652-0.096,1.306,0.138,1.907,0.612c3.411-6.401,9.55-10.993,20.41-10.993
		c12.162,0,22.281,5.755,24.469,13.364c0.469-0.083,4.008-0.047,4.407,0.138c1.734,0.799,1.936,3.981,0.447,7.107
		c-1.25,2.623-3.29,4.364-4.94,4.386c-2.727,2.954-6.824,5.295-11.707,6.642L161.522,121.771z"/>
	<path fill="#FE0000" d="M125.78,116.31l-3.703-25.043c0,0,6.858-4.315,9.341-4.36c2.755-0.047,10.476,4.36,10.476,4.36
		l-4.224,24.929L125.78,116.31z"/>
	<path fill="#351F10" d="M125.285,65.166c0,1.299-0.988,2.352-2.203,2.352s-2.204-1.053-2.204-2.352s0.988-2.352,2.204-2.352
		S125.285,63.867,125.285,65.166z"/>
	<path fill="#351F10" d="M143.977,66.212c0,1.298-0.986,2.353-2.201,2.353c-1.217,0-2.204-1.055-2.204-2.353
		c0-1.299,0.986-2.354,2.204-2.354C142.991,63.858,143.977,64.913,143.977,66.212z"/>
	<path fill="#FE0000" d="M101.292,161.538c0,0,3.09-46.673,32.227-45.839c25.485,0.729,33.708,42.796,33.708,42.796
		S146.623,172.7,101.292,161.538z"/>
	<path fill="#665E5A" d="M141.472,117.909h-18.544v-7.103h18.544V117.909z"/>
	<path fill="#FE0000" d="M158.887,57.328c-0.411,1.864-3.151,2.043-4.616,0.725c1.107,1.295,2.175,6.865-0.815,7.202
		c-1.469,0.165-2.209-1.666-2.406-3.26c-0.256,0.961-0.859,1.988-1.531,2.343c-0.262,0.138-2.356,0.122-2.56-0.019
		c-2.083-1.459,0.08-4.229,1.521-5.901c-2.139,1.224-7.564,1.088-6.888-2.384c0.39-1.993,5.149-2.202,6.358-0.279
		c-1.077-1.35-1.843-5.887-0.167-6.824c2.384-1.333,2.986,2.611,2.958,4.332c-0.221-1.33,3.872-4.717,5.441-3.509
		c2,1.541-1.672,4.492-2.863,5.247C155.35,53.631,159.589,54.142,158.887,57.328z"/>
	<path fill="#351F10" d="M491.271,143.26l-10.904,50.742l12.383,7.463l-21.02,0.236c0,0,0-53.693,0-54.93
		s-6.029,45.576-6.029,45.576v9.654l-18.667,1l12.309-9.127l-7.229-51.336l-6.814-0.127l2.225-40.641l-24-50l28.178,33.23
		l39.4-1.289l28.422-33.941l-27.01,55.779l3.533,37.924L491.271,143.26z"/>
	<path fill="#E2D4BF" d="M482.769,79.393l-9.523,47.148L458.04,80.217L482.769,79.393z"/>
	<path fill="#EABB98" d="M496.913,66.914c-0.389-0.045-0.759-0.148-1.111-0.299c-3.666,6.729-13.025,11.783-24.216,12.299
		c-11.045,0.51-20.731-3.553-25.083-9.779c-0.342,0.287-0.72,0.525-1.145,0.686c-2.766,1.055-6.19-1.193-7.65-5.023
		c-1.461-3.826-0.401-7.785,2.363-8.838c1.576-0.604,3.369-0.127,4.889,1.104c2.953-7.529,2.512-20.562,24.976-20.934
		c21.587-0.357,21.087,10.707,25.317,17.131c0.986-0.807,2.139-1.225,3.322-1.092c2.939,0.33,4.953,3.9,4.494,7.973
		C502.608,64.211,499.854,67.242,496.913,66.914z"/>
	<path fill="#351F10" d="M462.679,54.727c-0.328,1.236-1.627,1.968-2.899,1.631c-1.274-0.338-2.043-1.615-1.716-2.853
		s1.627-1.969,2.901-1.632C462.237,52.211,463.007,53.488,462.679,54.727z"/>
	<path fill="#351F10" d="M481.446,55.053c-0.327,1.236-1.627,1.967-2.9,1.629c-1.273-0.336-2.042-1.614-1.715-2.851
		c0.327-1.237,1.627-1.967,2.901-1.63C481.005,52.537,481.773,53.814,481.446,55.053z"/>
	<path fill="#351F10" d="M470.18,68.093c-10.38,10.121-19.08-1.75-16.996-0.149c2.104,1.618,5.5,1.781,7.28-3.72
		c1.78-5.503,9.709-1.457,9.709-1.457l0.007,0.104l0.006-0.104c0,0,7.929-4.046,9.709,1.457c1.78,5.501,5.178,5.338,7.281,3.72
		C489.259,66.343,480.559,78.214,470.18,68.093z"/>
	<path fill="#FE0000" d="M472.819,126.117c-15.662-8.244-24.213-40.871-24.213-40.871l10.285-5.242L472.819,126.117z"/>
	<path fill="#FE0000" d="M493.101,83.713c-4.122,19.371-19.855,42.828-19.855,42.828l6.838-50.02L493.101,83.713z"/>
	<path fill="#665E5A" d="M483.675,72.09l0.215,17.568l-13.154-7.525l-12.611,7.508l-1.451-17.645l13.854,6.785L483.675,72.09z"/>
	<polygon fill="#EABB98" points="395.295,119.543 402.434,201.708 405.86,200.996 405.403,127.161 410.166,199.6 413.104,198.99 
		412.572,115.955 	"/>
	<path fill="#665E5A" d="M406.84,200.793l-9.122,4.514l4.293-10.552l2.648,0.456L406.84,200.793z M409.287,200.285l11.482,3.651
		l-9.457-11.112l-2.247,1.472L409.287,200.285z"/>
	<path fill="#351F10" d="M405.613,39.425c12.201,5.217,20.705,18.934,11.81,33.309c-12.801,20.687-18.703,70.61-47.293,5.053
		c-8.219-18.846-1.115-31.999,11.774-38.326C388.624,36.161,396.746,35.632,405.613,39.425z"/>
	<path fill="#EABB98" d="M417.164,71.25c-2.009,3.345-5.44,6.378-9.815,8.621l19.174,44.9L408.47,93.181l-16.678-0.548
		l-27.27,27.139l24.017-36.175c-6.077-0.506-11.255-2.712-14.296-6.143c-0.091,0.05-0.185,0.097-0.283,0.133
		c-1.749,0.635-4.073-1.315-5.193-4.356c-1.124-3.04-0.615-6.021,1.132-6.655c0.601-0.22,1.269-0.127,1.934,0.206
		c0.199-0.68,0.43-1.347,0.692-2c0.371-0.024,0.754-0.103,1.151-0.28c4.927-2.192,9.351-5.677,12.14-10.214
		c8.959,3.885,19.474,6.602,28.279,4.527c0.316,0.439,0.607,0.893,0.856,1.365c0.429-0.172,3.8-0.836,4.215-0.739
		c1.807,0.417,2.626,3.401,1.827,6.667C420.323,68.847,418.728,70.904,417.164,71.25z"/>
	<path fill="#665E5A" d="M397.487,117.224L389.6,91.992c0,0,5.666-5.455,8.017-5.987c2.609-0.588,10.816,2.077,10.816,2.077
		l2.29,26.279L397.487,117.224z"/>
	<path fill="#351F10" d="M384.561,67.163c0.256,1.234-0.475,2.431-1.63,2.671c-1.155,0.239-2.302-0.566-2.559-1.801
		c-0.256-1.234,0.476-2.43,1.631-2.67C383.157,65.124,384.304,65.929,384.561,67.163z"/>
	<path fill="#351F10" d="M399.594,65.079c0.256,1.233-0.474,2.431-1.628,2.67c-1.157,0.24-2.303-0.567-2.559-1.801
		c-0.256-1.234,0.473-2.431,1.63-2.671C398.192,63.037,399.337,63.845,399.594,65.079z"/>
	<path fill="#FE0000" d="M399.645,183.514c-3.766-7.803-22.271-64.74,3.671-69.356c21.563-3.837,10.578,54.998,10.298,67.883
		C407.998,183.7,405.357,182.249,399.645,183.514z"/>
	<path fill="#FE0000" d="M407.978,86.27c0.983-0.952,3.891-4.483,1.686-5.553c-1.729-0.838-4.951,3.188-4.479,4.408
		c-0.312-1.641-1.662-5.27-3.666-3.533c-1.408,1.223,0.216,5.384,1.505,6.452c-1.528-1.589-6.01-0.45-5.987,1.521
		c0.043,3.435,5.225,2.492,7.017,0.907c-1.04,1.873-2.549,4.933-0.281,5.909c0.221,0.094,2.214-0.307,2.436-0.488
		c0.569-0.469,0.94-1.565,0.993-2.528c0.502,1.476,1.567,3.069,2.931,2.624c2.775-0.912,0.66-5.994-0.647-7.008
		c1.653,0.966,4.223,0.255,4.244-1.599C413.767,84.216,409.637,84.566,407.978,86.27z"/>
	<path fill="none" d="M26.13,102.061c8.099,35.87-5.425,46.873-6.004,47.324l-0.711-0.915c0.135-0.106,13.502-11.088,5.584-46.153
		c-2.707-11.988-3.65-20.374-3.694-26.236h1.143C22.497,81.786,23.421,90.067,26.13,102.061z"/>
	<path fill="#FE0000" d="M22.359,73.957c0,0-0.104,0.114-0.155,0.087c-0.051,0.027-0.155-0.087-0.155-0.087
		C13.036,68.928-3.816,58.916,3.23,46.612c5.376-9.387,15.815-3.46,18.974,1.242c3.158-4.702,13.598-10.629,18.974-1.242
		C48.224,58.916,31.372,68.928,22.359,73.957z M22.049,73.957l-3.815,5.55l8.992,0.642L22.049,73.957z"/>
	<path fill="#FFFFFF" d="M601.605,83.93c0.65,3.68,11.291,15.045,11.291,15.045l-3.095,1.744
		c-5.842-4.285-9.262-15.098-9.262-15.098L601.605,83.93z M598.461,83.826l-1.888-1.614c-0.556,0.015-5.798,18.812,4.635,29.261
		l5.27-3.463C606.478,108.01,596.352,95.151,598.461,83.826z M617.29,64.707c4.132-3.465-4.029-4.154-6.218-3.818
		c1.217-0.188,0.47-3.589-0.176-4.075c-1.456-1.092-4.035,0.067-5.299,0.896c0.706-1.875,0.749-4.063-1.781-4.062
		c-2.563,0.004-4.335,2.762-5.401,4.722c0.023-1.764-0.487-4.325-2.815-3.853c-2.571,0.526-2.556,3.94-2.106,5.873
		c-0.562-1.648-1.693-4.037-3.693-2.559c-2.05,1.519-0.935,4.679,0,6.448c-1.321-0.568-3.967-1.737-5.17-0.372
		c-1.197,1.354,0.315,3.518,1.226,4.584c-2.361,1.895-3.497,4.979-0.012,6.236c-1.203,1.107-2.138,2.895-0.731,4.244
		c1.605,1.539,4.344,0.373,6.162-0.056c-1.924,1.446-3.173,4.7-0.179,5.726c2.048,0.7,4.667-0.364,6.121-1.79
		c-0.819,1.512-1.592,5.043,0.892,5.032c1.725-0.01,3.215-1.982,4.276-3.101c-0.399,1.604-0.423,4.689,1.876,4.814
		c2.138,0.117,3.361-3.118,3.938-4.703c3.703,3.562,5.152-1.218,5.726-4.541c0.917,2.703,4.008,1.505,5.037-0.508
		c1.366-2.669-0.797-6.224-2.093-8.511c1.772,0.75,3.192,0.354,3.45-1.693C620.589,67.464,618.997,65.757,617.29,64.707z"/>
</g>
</svg>
