<?xml version="1.0" encoding="utf-8"?>
<!-- Generator: Adobe Illustrator 17.0.0, SVG Export Plug-In . SVG Version: 6.00 Build 0)  -->
<!DOCTYPE svg PUBLIC "-//W3C//DTD SVG 1.1//EN" "http://www.w3.org/Graphics/SVG/1.1/DTD/svg11.dtd">
<svg version="1.1" id="图层_1" xmlns="http://www.w3.org/2000/svg" xmlns:xlink="http://www.w3.org/1999/xlink" x="0px" y="0px"
	 width="29px" height="29px" viewBox="0 0 29 29" enable-background="new 0 0 29 29" xml:space="preserve">
<path fill="#2678DB" d="M27,22h-9v-8l1.986,1.177c0.258,0.187,0.569,0,0.569,0c-0.31,0.187,8.459-5.57,8.459-5.57v10.425
	C29.014,21.167,28.423,22.043,27,22z M20.161,13.066L18,12V6h10c0.363,0,1.013,0.634,1.013,1.315l-8.631,5.751
	C20.329,13.083,20.214,13.081,20.161,13.066z M-0.004,3.266l17.08-3.267v28.996l-17.08-3.539V3.266z M5.835,18.157
	c0.713,0.909,1.634,1.364,2.766,1.364c1.161,0,2.102-0.47,2.824-1.409c0.722-0.939,1.083-2.176,1.082-3.711
	c0-1.493-0.348-2.695-1.044-3.607c-0.696-0.913-1.608-1.368-2.735-1.368c-1.194,0-2.153,0.476-2.877,1.43
	c-0.724,0.952-1.085,2.201-1.085,3.744C4.766,16.061,5.123,17.246,5.835,18.157z M8.679,11.319c0.606,0,1.083,0.281,1.432,0.843
	c0.35,0.563,0.524,1.351,0.524,2.362c0,0.971-0.181,1.73-0.54,2.277c-0.359,0.546-0.846,0.82-1.46,0.82
	c-0.595,0-1.077-0.28-1.444-0.843c-0.367-0.562-0.551-1.327-0.551-2.294c0-0.953,0.184-1.718,0.551-2.297
	C7.558,11.609,8.055,11.319,8.679,11.319z"/>
</svg>
