<?xml version="1.0" encoding="utf-8"?>
<!-- Generator: Adobe Illustrator 17.0.0, SVG Export Plug-In . SVG Version: 6.00 Build 0)  -->
<!DOCTYPE svg PUBLIC "-//W3C//DTD SVG 1.1//EN" "http://www.w3.org/Graphics/SVG/1.1/DTD/svg11.dtd">
<svg version="1.1" id="图层_2" xmlns="http://www.w3.org/2000/svg" xmlns:xlink="http://www.w3.org/1999/xlink" x="0px" y="0px"
	 width="291.066px" height="240.978px" viewBox="0 0 291.066 240.978" enable-background="new 0 0 291.066 240.978"
	 xml:space="preserve">
<g id="Notebook">
	<path fill="#1C1C1C" d="M280.865,0H10.2C4.59,0,0,4.59,0,10.2v198.671c0,5.61,4.59,10.2,10.2,10.2h270.666
		c5.61,0,10.2-4.59,10.2-10.2V10.2C291.065,4.59,286.475,0,280.865,0z"/>
	<path opacity="0.2" enable-background="new    " d="M269.445,10.205H145.534H21.623c-6.517,0-11.848,5.332-11.848,11.848v181.126
		c0,6.517,5.332,11.848,11.848,11.848h123.911h123.911c6.517,0,11.848-5.332,11.848-11.848V22.053
		C281.293,15.537,275.961,10.205,269.445,10.205z"/>
	<path fill="#E4E4E4" d="M145.534,7.124v204.822H21.623c-6.517,0-11.848-5.332-11.848-11.848V18.973
		c0-6.517,5.332-11.848,11.848-11.848L145.534,7.124L145.534,7.124z"/>
	<path fill="#E4E4E4" d="M281.293,18.973v181.126c0,6.517-5.332,11.848-11.848,11.848H145.534V7.124h123.911
		C275.961,7.124,281.293,12.456,281.293,18.973z"/>
	<path fill="#FFFFFF" d="M278.449,18.973v181.126c0,6.517-5.332,11.848-11.848,11.848H145.534V7.124h121.067
		C273.117,7.124,278.449,12.456,278.449,18.973z"/>
	<path fill="#F0F0F0" d="M12.618,200.098V18.973c0-6.517,5.332-11.848,11.848-11.848h121.067v204.822H24.466
		C17.95,211.947,12.618,206.615,12.618,200.098z"/>
	<g>
		<rect x="156.132" y="8.124" opacity="0.1" enable-background="new    " width="6.954" height="232.854"/>
		<rect x="154.421" y="6.413" fill="#F35F58" width="6.954" height="232.854"/>
	</g>
</g>
</svg>
