<?xml version="1.0" encoding="utf-8"?>
<!-- Generator: Adobe Illustrator 17.0.0, SVG Export Plug-In . SVG Version: 6.00 Build 0)  -->
<!DOCTYPE svg PUBLIC "-//W3C//DTD SVG 1.1//EN" "http://www.w3.org/Graphics/SVG/1.1/DTD/svg11.dtd">
<svg version="1.1" id="Capa_1" xmlns="http://www.w3.org/2000/svg" xmlns:xlink="http://www.w3.org/1999/xlink" x="0px" y="0px"
	 width="411.908px" height="178.428px" viewBox="0 0 411.908 178.428" enable-background="new 0 0 411.908 178.428"
	 xml:space="preserve">
<path fill="#FBCB72" d="M124.902,9.156c-3.027-1.415-6.402-2.209-9.964-2.209c-13.018,0-23.569,10.552-23.569,23.569
	c0,8.024,4.014,15.108,10.141,19.365C103.757,33.397,112.419,18.956,124.902,9.156z M236.421,32.599
	c0-13.017-10.552-23.569-23.568-23.569c-3.11,0-6.078,0.608-8.795,1.703c12.029,10.236,20.137,24.942,21.753,41.55
	C232.201,48.068,236.421,40.828,236.421,32.599z M146.854,54.55c-0.062-2.52-2.121-4.545-4.655-4.545
	c-2.535,0-4.592,2.025-4.654,4.545C137.545,54.55,146.854,54.55,146.854,54.55z M185.825,54.913
	c-0.061-2.52-2.119-4.545-4.653-4.545c-2.536,0-4.593,2.026-4.654,4.545C176.518,54.913,185.825,54.913,185.825,54.913z
	 M221.706,58.187C221.706,26.052,195.655,0,163.518,0c-32.136,0-58.187,26.052-58.187,58.187c0,17.489,7.718,33.175,19.931,43.841
	c-0.247-1.741-0.385-3.518-0.385-5.324c0-8.407,2.776-16.182,7.477-22.525c-8.152-3.774-13.785-11.843-13.785-21.188
	c0-12.962,10.835-23.469,24.199-23.469c7.976,0,15.048,3.743,19.456,9.516c4.409-5.772,11.482-9.516,19.458-9.516
	c13.362,0,24.196,10.507,24.196,23.469c0,7.953-4.083,14.977-10.323,19.222c5.638,6.668,9.024,15.194,9.024,24.491
	c0,0.951-0.047,1.892-0.117,2.824C215.109,88.984,221.706,74.357,221.706,58.187z M56.506,38.1c0-9.12-6.839-14.982-16.772-14.982
	c-9.12,0-15.144,4.722-15.144,9.119v5.048H5.374V25.887c0-15.307,20.191-22.31,35.173-22.31C60.74,3.577,78,16.279,78,37.773
	c0,39.082-55.853,41.362-55.853,62.368c0,2.118,1.302,2.931,4.396,2.931h33.871c2.28,0,3.582-1.302,3.582-3.581v-7.003H83.21v17.587
	c0,7.815-3.256,11.072-11.072,11.072h-60.25C1.791,121.147,0,116.751,0,105.841C0,63.991,56.506,66.271,56.506,38.1z
	 M249.297,103.072h24.913V38.915c0-3.909,0.163-7.817,0.163-7.817h-0.324c0,0-1.305,2.769-5.05,6.513l-9.28,8.793l-12.377-13.027
	l28.987-27.846h19.214v97.541h24.915v18.075h-71.161L249.297,103.072L249.297,103.072z M326.152,69.365
	c0-30.776,17.423-65.788,53.248-65.788c14.655,0,23.774,4.886,23.774,4.886l-6.189,18.075c0,0-7.489-3.583-16.282-3.583
	c-18.076,0-27.848,15.145-30.615,31.429h0.327c3.907-5.047,13.189-8.468,21.494-8.468c22.796,0,36.964,17.75,36.964,38.43
	c0,21.495-15.144,38.756-37.941,38.756C346.833,123.103,326.152,103.561,326.152,69.365z M370.77,103.887
	c10.91,0,17.424-8.631,17.424-19.541c0-11.562-7.328-21.169-21.17-21.169c-10.258,0-18.891,5.537-18.891,12.538
	C348.134,90.208,358.721,103.887,370.77,103.887z M164.767,63.602c-19.685,0-35.642,15.475-35.642,34.566
	s15.958,34.566,35.642,34.566c19.683,0,35.641-15.475,35.641-34.566S184.45,63.602,164.767,63.602z M168.605,77.626
	c1.712,0,3.099,1.388,3.099,3.1s-1.387,3.1-3.099,3.1c-1.711,0-3.099-1.389-3.099-3.1S166.894,77.626,168.605,77.626z
	 M157.32,77.626c1.71,0,3.099,1.388,3.099,3.1s-1.389,3.1-3.099,3.1c-1.712,0-3.101-1.389-3.101-3.1S155.608,77.626,157.32,77.626z
	 M141.5,107.411c0,0,7.392,3.957,23.208,3.957c7.616,0,16.01-0.855,23.384-4.617C162.883,126.154,142.56,108.117,141.5,107.411z
	 M12.905,153.515H6.267c-0.534,0-0.84,0.229-0.84,0.84v1.792H2.986v-2.824c0-1.64,0.534-2.175,2.174-2.175h18.161
	c1.641,0,2.175,0.535,2.175,2.175v2.824h-2.479v-1.792c0-0.611-0.267-0.84-0.84-0.84h-6.601v24.455h-2.67L12.905,153.515
	L12.905,153.515z M30.146,154.355c0-0.574-0.305-0.84-0.839-0.84h-1.64v-2.366h2.823c1.64,0,2.328,0.688,2.328,2.328v9.881H48.23
	v-9.881c0-1.64,0.688-2.328,2.291-2.328h2.861v2.366h-1.64c-0.535,0-0.84,0.267-0.84,0.84v23.615h-2.671v-12.246H32.817v12.246
	h-2.671C30.146,177.97,30.146,154.355,30.146,154.355z M59.022,153.515h-2.48v-2.366h15.337c1.641,0,2.327,0.688,2.327,2.328v2.671
	h-2.518v-1.792c0-0.574-0.305-0.84-0.839-0.84h-9.157v9.768h10.072v2.365H61.692v9.118c0,0.572,0.305,0.839,0.84,0.839h9.423
	c0.534,0,0.839-0.267,0.839-0.839v-1.793h2.479v2.67c0,1.641-0.686,2.327-2.328,2.327H61.35c-1.641,0-2.328-0.686-2.328-2.327
	V153.515z M94.232,166.143l-6.411-10.11c-0.495-0.763-0.725-0.915-1.563-0.915H85.38v-4.234h2.558c1.754,0,2.517,0.266,3.547,1.984
	l3.586,5.951c0.954,1.564,1.641,3.052,1.641,3.052h0.077c0,0,0.686-1.45,1.641-3.052l3.548-5.951
	c0.992-1.718,1.792-1.984,3.547-1.984h2.556v4.234h-0.877c-0.84,0-1.069,0.152-1.564,0.915l-6.41,10.11v11.827h-4.997
	L94.232,166.143L94.232,166.143z M112.235,155.118h-2.479v-4.234h16.366c1.793,0,2.595,0.801,2.595,2.594v4.121h-4.539v-1.64
	c0-0.534-0.306-0.84-0.84-0.84h-6.104v7.096h8.775v4.234h-8.775v6.448c0,0.534,0.305,0.839,0.839,0.839h6.256
	c0.534,0,0.839-0.305,0.839-0.839v-1.642h4.54v4.121c0,1.832-0.802,2.595-2.595,2.595H114.83c-1.832,0-2.595-0.763-2.595-2.595
	V155.118z M130.925,173.736h0.611c0.648,0,0.954-0.153,1.183-0.839l8.05-22.013h5.226l8.012,22.013
	c0.229,0.686,0.534,0.839,1.183,0.839h0.609v4.234h-2.975c-1.908,0-2.595-0.496-3.205-2.214l-1.68-4.729h-9.157l-1.677,4.729
	c-0.611,1.718-1.26,2.214-3.167,2.214h-3.015v-4.234H130.925z M146.796,166.906l-2.327-6.791c-0.497-1.488-1.067-4.044-1.067-4.044
	h-0.077c0,0-0.573,2.556-1.069,4.044l-2.327,6.791H146.796z M159.992,155.118h-2.48v-4.234h12.132c4.96,0,8.432,3.051,8.432,8.164
	c0,4.883-3.358,6.905-4.502,7.133v0.078c0,0,0.839,0.381,1.335,1.373l2.632,5.228c0.421,0.8,1.069,0.877,1.908,0.877h0.497v4.234
	h-2.632c-2.023,0-2.9-0.305-3.778-2.022l-3.472-6.829c-0.573-1.068-1.145-1.259-2.556-1.259h-2.519v10.11h-4.998L159.992,155.118
	L159.992,155.118z M168.958,163.588c2.518,0,4.006-1.565,4.006-4.274c0-2.67-1.488-4.196-3.93-4.196h-4.044v8.47H168.958z
	 M205.54,150.692c7.592,0,13.658,5.989,13.658,13.695c0,7.86-6.066,14.04-13.658,14.04c-7.631,0-13.659-6.18-13.659-14.04
	C191.881,156.682,197.91,150.692,205.54,150.692z M205.54,175.91c5.99,0,10.873-5.036,10.873-11.522
	c0-6.333-4.883-11.178-10.873-11.178c-6.028,0-10.873,4.845-10.873,11.178C194.667,170.874,199.513,175.91,205.54,175.91z
	 M224.687,153.515h-2.479v-2.366h14.268c1.641,0,2.289,0.688,2.289,2.328v2.671h-2.479v-1.792c0-0.574-0.306-0.84-0.839-0.84h-8.088
	v10.073h9.73v2.365h-9.73v12.018h-2.671L224.687,153.515L224.687,153.515z M250.435,173.736h1.183c0.534,0,0.8-0.305,0.839-0.839
	l1.756-22.013h5.189l5.569,12.895c0.65,1.565,1.334,3.624,1.334,3.624h0.077c0,0,0.688-2.059,1.335-3.624l5.572-12.895h5.188
	l1.755,22.013c0.038,0.534,0.307,0.839,0.84,0.839h1.182v4.234h-4.311c-1.792,0-2.402-0.763-2.557-2.595l-0.915-12.055
	c-0.151-1.794-0.037-4.197-0.037-4.197h-0.078c0,0-0.801,2.671-1.486,4.197l-4.502,9.995h-4.045l-4.502-9.995
	c-0.687-1.526-1.488-4.235-1.488-4.235h-0.074c0,0,0.113,2.441-0.039,4.235l-0.878,12.055c-0.151,1.832-0.801,2.595-2.593,2.595
	h-4.312v-4.234H250.435z M298.08,150.425c7.974,0,14.002,6.066,14.002,13.811c0,7.974-6.028,14.191-14.002,14.191
	c-7.975,0-14.002-6.218-14.002-14.191C284.078,156.491,290.105,150.425,298.08,150.425z M298.08,173.774
	c4.885,0,8.812-4.121,8.812-9.538c0-5.189-3.928-9.157-8.812-9.157s-8.814,3.968-8.814,9.157
	C289.266,169.653,293.196,173.774,298.08,173.774z M314.518,173.736h1.641c0.535,0,0.84-0.305,0.84-0.839v-22.013h4.502
	l10.264,14.992c1.067,1.565,2.249,3.816,2.249,3.816h0.077c0,0-0.267-2.251-0.267-3.816v-12.398c0-1.793,0.762-2.594,2.594-2.594
	h4.885v4.234h-1.642c-0.534,0-0.84,0.306-0.84,0.84v22.013h-4.463l-10.301-14.955c-1.069-1.526-2.251-3.816-2.251-3.816h-0.075
	c0,0,0.265,2.251,0.265,3.816v12.36c0,1.832-0.762,2.595-2.594,2.595h-4.884V173.736z M346.371,155.958
	c0-0.534-0.306-0.84-0.84-0.84h-1.641v-4.234h4.884c1.831,0,2.594,0.801,2.594,2.594v8.431h1.908c0.992,0,1.716-0.076,2.175-0.877
	l5.456-10.148h5.492l-6.103,11.139c-0.84,1.526-1.718,1.984-1.718,1.984v0.077c0,0,0.916,0.23,1.755,1.87l3.432,6.906
	c0.384,0.8,1.032,0.877,1.909,0.877h0.725v4.234h-2.861c-2.022,0-2.899-0.267-3.776-2.022l-4.425-8.889
	c-0.458-0.878-1.297-0.916-2.365-0.916h-1.604v11.827h-4.997L346.371,155.958L346.371,155.958z M370.554,155.118h-2.479v-4.234
	h16.366c1.794,0,2.596,0.801,2.596,2.594v4.121h-4.541v-1.64c0-0.534-0.305-0.84-0.839-0.84h-6.104v7.096h8.774v4.234h-8.774v6.448
	c0,0.534,0.307,0.839,0.84,0.839h6.257c0.534,0,0.839-0.305,0.839-0.839v-1.642h4.539v4.121c0,1.832-0.801,2.595-2.594,2.595H373.15
	c-1.832,0-2.595-0.763-2.595-2.595v-20.258H370.554z M398.057,166.143l-6.407-10.11c-0.497-0.763-0.728-0.915-1.566-0.915h-0.877
	v-4.234h2.557c1.755,0,2.519,0.266,3.548,1.984l3.587,5.951c0.953,1.564,1.642,3.052,1.642,3.052h0.074c0,0,0.686-1.45,1.642-3.052
	l3.548-5.951c0.991-1.718,1.793-1.984,3.547-1.984h2.559v4.234h-0.879c-0.839,0-1.067,0.152-1.565,0.915l-6.409,10.11v11.827h-4.998
	v-11.827H398.057z"/>
</svg>
