<?xml version="1.0" encoding="iso-8859-1"?>
<!-- Generator: Adobe Illustrator 17.0.0, SVG Export Plug-In . SVG Version: 6.00 Build 0)  -->
<!DOCTYPE svg PUBLIC "-//W3C//DTD SVG 1.1//EN" "http://www.w3.org/Graphics/SVG/1.1/DTD/svg11.dtd">
<svg version="1.1" id="Objects1" xmlns="http://www.w3.org/2000/svg" xmlns:xlink="http://www.w3.org/1999/xlink" x="0px" y="0px"
	 width="57.487px" height="139.962px" viewBox="0 0 57.487 139.962" style="enable-background:new 0 0 57.487 139.962;"
	 xml:space="preserve">
<g>
	<path style="fill:#F26E25;" d="M23.482,85.856c-0.164,0.139-0.283,0.357-0.337,0.614l-2.958-0.45
		c0.011-0.363-0.116-0.685-0.323-0.851l-1.458-0.218c-0.237,0.097-0.438,0.368-0.51,0.72l-3.003-0.458
		c0.01-0.263-0.053-0.515-0.179-0.694c-0.043-0.062-0.092-0.105-0.143-0.145l-1.471-0.222c-0.058,0.024-0.112,0.049-0.165,0.093
		c-0.163,0.141-0.283,0.358-0.336,0.616l-2.009-0.304c0.011-0.35-0.111-0.661-0.307-0.829l-1.495-0.225
		c-0.228,0.104-0.418,0.365-0.491,0.706l-1.351-0.209c0.012-0.346-0.107-0.65-0.299-0.819l-1.515-0.227
		c-0.222,0.107-0.409,0.363-0.48,0.699l-0.186-0.028c-0.404-0.062-0.776,0.256-0.829,0.703c-0.055,0.446,0.228,0.866,0.634,0.925
		l0.264,0.045l-0.335,2.804l0.022,0.043c0.191,0.325,0.308,0.749,0.344,1.207c-0.341,0.004-0.653,0.376-0.712,0.88l-0.019,0.139
		l0.579,0.088c0.011,0.143,0.062,0.265,0.144,0.334l-0.839,6.926l0.789,0.123l0.837-6.927c0.094-0.045,0.171-0.147,0.217-0.28
		l0.578,0.086l0.017-0.138c0.066-0.547-0.179-1.021-0.558-1.08l-0.094-0.015c0.307-0.917,0.906-1.508,1.513-1.415l0.052,0.011
		c0.606,0.092,1.045,0.842,1.117,1.827c-0.331,0.017-0.63,0.385-0.689,0.878l-0.017,0.139l0.576,0.085
		c0.011,0.143,0.065,0.268,0.144,0.337l-0.837,6.939l0.789,0.124l0.838-6.947c0.091-0.039,0.173-0.143,0.215-0.277l0.576,0.088
		l0.019-0.139c0.037-0.307-0.024-0.601-0.168-0.814C9.528,90.173,9.4,90.081,9.25,90.06l-0.022-0.005
		c0.354-0.912,1.083-1.48,1.836-1.364l0.068,0.007c0.752,0.116,1.318,0.884,1.442,1.867c-0.372-0.045-0.712,0.335-0.776,0.876
		l-0.017,0.139l0.577,0.089c0.013,0.144,0.061,0.267,0.144,0.334l-0.84,6.96l0.786,0.123l0.841-6.964
		c0.095-0.039,0.174-0.141,0.218-0.277l0.577,0.088l0.017-0.138c0.037-0.309-0.024-0.605-0.169-0.815
		c-0.083-0.126-0.19-0.207-0.311-0.244c0.413-0.91,1.306-1.458,2.245-1.311l0.084,0.01c0.942,0.143,1.67,0.936,1.851,1.935
		c-0.344,0.006-0.647,0.373-0.708,0.878l-0.017,0.14l0.578,0.089c0.011,0.142,0.065,0.266,0.143,0.332l-0.842,6.981l0.786,0.124
		l0.843-6.986c0.094-0.041,0.177-0.144,0.219-0.277l0.577,0.086l0.017-0.139c0.063-0.505-0.155-0.96-0.485-1.063
		c0.411-0.911,1.299-1.454,2.242-1.307l0.082,0.011c0.941,0.143,1.667,0.938,1.851,1.933c-0.135-0.007-0.268,0.037-0.386,0.14
		c-0.188,0.162-0.317,0.43-0.355,0.737l-0.017,0.137l0.574,0.091c0.011,0.141,0.063,0.265,0.147,0.331l-0.847,7.004l0.788,0.124
		l0.844-7.004c0.094-0.045,0.173-0.147,0.218-0.281l0.578,0.086l0.017-0.14c0.061-0.492-0.146-0.939-0.469-1.054
		c0.411-0.904,1.295-1.449,2.234-1.312l0.503-3.985l-1.482-0.225c0.009-0.262-0.051-0.512-0.175-0.695
		c-0.05-0.071-0.104-0.126-0.166-0.168l-1.421-0.215C23.608,85.768,23.542,85.803,23.482,85.856z"/>
	<path style="fill:#F9BB14;" d="M25.829,70.599l-0.091-0.011c-0.357-0.054-0.698,0.313-0.779,0.824l-2.95-0.448
		c0.044-0.525-0.194-0.975-0.559-1.03l-0.087-0.012l0.012-0.113l-0.786-0.121l-0.015,0.115l-0.086-0.018
		c-0.359-0.051-0.698,0.313-0.78,0.826l-2.997-0.455c0.045-0.521-0.199-0.975-0.558-1.03l-0.087-0.014l0.014-0.112l-0.784-0.12
		l-0.015,0.113l-0.088-0.011c-0.149-0.026-0.302,0.023-0.433,0.138c-0.178,0.15-0.305,0.4-0.349,0.684l-2.001-0.304
		c0.026-0.29-0.036-0.565-0.172-0.765c-0.104-0.151-0.234-0.242-0.387-0.261l-0.085-0.017l0.014-0.113l-0.784-0.118l-0.013,0.11
		l-0.089-0.011c-0.152-0.02-0.302,0.023-0.432,0.138c-0.183,0.152-0.306,0.402-0.354,0.688l-1.344-0.205
		c0.046-0.518-0.197-0.975-0.559-1.03L8.122,67.9l0.016-0.112l-0.789-0.12l-0.015,0.118L7.25,67.772
		c-0.149-0.026-0.302,0.021-0.435,0.137c-0.179,0.149-0.303,0.398-0.348,0.688l-0.184-0.03c-0.195-0.026-0.389,0.027-0.546,0.163
		c-0.157,0.131-0.258,0.325-0.281,0.541c-0.029,0.215,0.024,0.434,0.142,0.606c0.12,0.177,0.295,0.289,0.488,0.32l0.269,0.039
		l-0.339,2.809l0.024,0.043c0.189,0.327,0.304,0.752,0.344,1.21c-0.341,0.002-0.651,0.377-0.713,0.877l-0.019,0.139l0.578,0.091
		c0.011,0.138,0.064,0.262,0.143,0.33l-0.864,7.18l-0.089-0.014c-0.1-0.015-0.196,0.011-0.288,0.056l1.515,0.227
		c-0.079-0.067-0.165-0.119-0.265-0.134l-0.086-0.016l0.864-7.179c0.095-0.042,0.175-0.143,0.219-0.279l0.575,0.089l0.02-0.141
		c0.061-0.537-0.184-1.023-0.555-1.079l-0.096-0.013c0.307-0.92,0.906-1.509,1.51-1.415l0.053,0.009
		c0.606,0.091,1.045,0.84,1.121,1.825c-0.332,0.02-0.634,0.389-0.691,0.881l-0.02,0.136l0.581,0.087
		c0.008,0.145,0.062,0.267,0.14,0.335l-0.866,7.176l-0.085-0.011c-0.095-0.014-0.19,0.009-0.278,0.05l1.495,0.225
		c-0.075-0.066-0.158-0.115-0.254-0.129l-0.089-0.015l0.869-7.176c0.092-0.041,0.171-0.144,0.217-0.277l0.575,0.086l0.02-0.137
		c0.033-0.308-0.026-0.607-0.171-0.817c-0.103-0.149-0.238-0.238-0.386-0.264l-0.019-0.001c0.353-0.912,1.079-1.482,1.832-1.366
		l0.069,0.009c0.755,0.115,1.317,0.881,1.442,1.867c-0.366-0.044-0.708,0.344-0.774,0.878l-0.016,0.136l0.574,0.089
		c0.014,0.142,0.064,0.263,0.144,0.332l-0.864,7.179l-0.086-0.012c-0.091-0.014-0.181,0.006-0.268,0.042l1.471,0.222
		c-0.076-0.061-0.154-0.105-0.245-0.119l-0.087-0.014l0.87-7.178c0.092-0.043,0.172-0.146,0.217-0.281l0.573,0.089l0.02-0.141
		c0.061-0.495-0.149-0.952-0.477-1.058c0.413-0.91,1.302-1.454,2.246-1.312l0.078,0.014c0.945,0.143,1.672,0.935,1.853,1.937
		c-0.342,0.003-0.647,0.371-0.71,0.877l-0.015,0.141l0.578,0.086c0.012,0.142,0.059,0.267,0.143,0.335l-0.867,7.179l-0.084-0.013
		c-0.089-0.014-0.176,0.001-0.26,0.035l1.458,0.218c-0.071-0.057-0.152-0.097-0.241-0.11l-0.085-0.01l0.865-7.177
		c0.095-0.043,0.176-0.145,0.222-0.28l0.575,0.086l0.016-0.138c0.061-0.514-0.149-0.964-0.485-1.064
		c0.41-0.907,1.301-1.45,2.244-1.307l0.076,0.012c0.944,0.147,1.672,0.936,1.854,1.935c-0.133-0.007-0.263,0.038-0.385,0.137
		c-0.19,0.163-0.32,0.429-0.355,0.741l-0.018,0.136l0.576,0.088c0.011,0.144,0.064,0.266,0.146,0.33l-0.866,7.18l-0.09-0.012
		c-0.08-0.014-0.16-0.002-0.239,0.027l1.421,0.215c-0.067-0.05-0.142-0.083-0.223-0.096l-0.083-0.016l0.865-7.176
		c0.096-0.042,0.176-0.146,0.217-0.28l0.579,0.09l0.018-0.14c0.035-0.309-0.025-0.605-0.172-0.815
		c-0.079-0.121-0.18-0.202-0.297-0.245c0.412-0.906,1.303-1.455,2.247-1.307l0.065,0.009l0.501-3.983l-1.552-0.236
		c0.024-0.292-0.038-0.566-0.174-0.766c-0.103-0.151-0.235-0.242-0.386-0.264l-0.088-0.015l0.013-0.111l-0.784-0.119L25.829,70.599z
		"/>
	<path style="fill:#F9BB14;" d="M28.607,41.231l-2.963-0.453c0.008-0.302-0.091-0.564-0.242-0.739l-1.649-0.245
		c-0.02,0.013-0.042,0.019-0.062,0.034c-0.162,0.136-0.278,0.352-0.337,0.601l-3.004-0.458c0.005-0.289-0.084-0.541-0.226-0.715
		l-1.697-0.253c-0.011,0.008-0.022,0.011-0.033,0.02c-0.161,0.136-0.278,0.35-0.332,0.597l-2.012-0.304
		c0.006-0.277-0.076-0.52-0.208-0.694l-1.727-0.258c-0.163,0.132-0.295,0.339-0.354,0.603l-1.358-0.205
		c0.008-0.255-0.054-0.497-0.174-0.677l-1.787-0.264c-0.157,0.137-0.272,0.348-0.325,0.593l-0.188-0.028
		c-0.402-0.061-0.776,0.252-0.831,0.703c-0.023,0.216,0.025,0.432,0.148,0.605c0.121,0.177,0.291,0.287,0.486,0.317L10,40.053
		l-0.342,2.808l0.026,0.044c0.186,0.326,0.305,0.75,0.342,1.209c-0.123,0-0.245,0.045-0.357,0.14
		c-0.188,0.157-0.316,0.429-0.354,0.739l-0.019,0.135l0.58,0.089c0.011,0.144,0.062,0.266,0.143,0.334l-0.864,7.178l-0.088-0.012
		c-0.141-0.02-0.278,0.025-0.404,0.121l1.698,0.238c-0.093-0.114-0.204-0.193-0.333-0.211L9.94,52.849l0.868-7.179
		c0.093-0.036,0.171-0.143,0.215-0.28l0.576,0.091l0.018-0.138c0.067-0.54-0.182-1.024-0.553-1.079l-0.093-0.014
		c0.31-0.91,0.916-1.509,1.508-1.418l0.052,0.009c0.608,0.093,1.044,0.841,1.119,1.83c-0.33,0.016-0.632,0.385-0.688,0.875
		l-0.019,0.141l0.576,0.087c0.012,0.14,0.065,0.265,0.145,0.332l-0.869,7.179l-0.083-0.013c-0.119-0.019-0.232,0.022-0.338,0.084
		l1.579,0.22c-0.083-0.079-0.175-0.141-0.282-0.157l-0.086-0.014l0.866-7.178c0.097-0.042,0.173-0.145,0.219-0.281l0.576,0.088
		l0.016-0.138c0.036-0.309-0.024-0.606-0.168-0.819c-0.104-0.146-0.236-0.238-0.386-0.261l-0.019-0.003
		c0.356-0.915,1.082-1.48,1.837-1.365l0.065,0.009c0.752,0.117,1.318,0.881,1.444,1.868c-0.143-0.018-0.288,0.031-0.419,0.136
		c-0.189,0.161-0.32,0.432-0.354,0.738l-0.02,0.137l0.578,0.09c0.011,0.143,0.063,0.267,0.144,0.333l-0.868,7.18l-0.086-0.014
		c-0.09-0.014-0.18,0.004-0.266,0.042l1.449,0.203c-0.068-0.048-0.143-0.083-0.225-0.095l-0.085-0.016l0.866-7.178
		c0.095-0.042,0.175-0.143,0.216-0.278l0.58,0.089l0.017-0.14c0.058-0.499-0.149-0.952-0.476-1.062
		c0.411-0.908,1.302-1.454,2.245-1.309l0.077,0.01c0.948,0.147,1.677,0.937,1.855,1.939c-0.345,0.003-0.648,0.367-0.708,0.879
		l-0.018,0.136l0.581,0.087c0.008,0.143,0.063,0.266,0.142,0.335l-0.867,7.178l-0.089-0.015c-0.017-0.001-0.03,0.007-0.047,0.006
		l0.924,0.129l0.865-7.177c0.096-0.041,0.172-0.145,0.22-0.277l0.575,0.083l0.018-0.139c0.062-0.506-0.154-0.962-0.487-1.062
		c0.415-0.907,1.302-1.45,2.242-1.311l0.081,0.016c0.942,0.143,1.67,0.932,1.852,1.929c-0.352-0.017-0.679,0.365-0.743,0.881
		l-0.015,0.137l0.577,0.088c0.01,0.142,0.064,0.267,0.144,0.332l-0.86,7.126l0.79,0.109l0.858-7.114
		c0.091-0.039,0.175-0.142,0.218-0.279l0.577,0.088l0.016-0.139c0.061-0.493-0.143-0.942-0.466-1.056
		c0.412-0.912,1.302-1.455,2.245-1.311l0.083,0.01c0.027,0.006,0.055,0.025,0.083,0.029c0.019,0.003,0.034,0.011,0.053,0.015
		l0.504-4.005l-0.075-0.012l-1.639-0.25c0.005-0.316-0.102-0.59-0.266-0.762l-1.596-0.236
		C28.838,40.697,28.675,40.928,28.607,41.231z"/>
	<path style="fill:#F26E25;" d="M37.22,2.68L19.614,0c-0.083,0.156-0.138,0.332-0.163,0.525c-0.096,0.789,0.402,1.518,1.11,1.624
		l0.575,0.087l-0.441,3.638l-0.417-0.061c-0.427-0.067-0.831,0.387-0.911,1.012l-0.014,0.138l0.527,0.08
		c0.002,0.201,0.064,0.376,0.163,0.495l-1.901,15.771c-0.35-0.04-0.675,0.282-0.816,0.747l3.082,0.48l1.066-8.847
		c0.34-2.814,2.665-4.781,5.188-4.396c2.525,0.385,4.296,2.976,3.957,5.791l-1.07,8.876l4.962,0.774l3.023-24.005L37.22,2.68z"/>
	<path style="fill:#F26E25;" d="M29.538,26.05l-9.145-1.39l0.016-0.124l-3.082-0.48c-0.014,0.044-0.036,0.083-0.045,0.13
		l-5.54-0.846c-0.403-0.059-0.772,0.255-0.829,0.707c-0.023,0.217,0.027,0.433,0.147,0.606c0.119,0.177,0.289,0.288,0.486,0.316
		l0.393,0.063l-0.333,2.757c0.202,0.347,0.329,0.794,0.368,1.294l-0.054-0.007c-0.369-0.057-0.724,0.334-0.789,0.877l-0.016,0.135
		l0.576,0.088c0.009,0.141,0.062,0.265,0.143,0.334l-0.864,7.178l-0.085-0.015c-0.153-0.021-0.302,0.026-0.435,0.138
		c-0.003,0.003-0.004,0.007-0.008,0.009l1.787,0.264c0,0,0.001-0.001,0-0.002c-0.103-0.15-0.238-0.24-0.389-0.262l-0.085-0.013
		l0.869-7.179c0.092-0.041,0.172-0.145,0.214-0.279l0.579,0.086l0.017-0.138c0.035-0.307-0.024-0.606-0.169-0.814
		c-0.104-0.151-0.238-0.241-0.385-0.264l-0.222-0.034c0.323-0.987,0.979-1.635,1.653-1.534l0.055,0.007
		c0.668,0.104,1.148,0.924,1.225,1.974l-0.026-0.002c-0.371-0.055-0.724,0.333-0.789,0.874l-0.016,0.137l0.575,0.089
		c0.009,0.143,0.062,0.266,0.147,0.336l-0.87,7.177l-0.083-0.017c-0.148-0.021-0.29,0.038-0.415,0.137l1.727,0.258
		c-0.096-0.128-0.214-0.223-0.358-0.245L15.4,38.365l0.869-7.179c0.093-0.042,0.171-0.146,0.215-0.28l0.577,0.091l0.018-0.142
		c0.065-0.545-0.181-1.022-0.557-1.077l-0.145-0.025c0.367-0.979,1.154-1.608,1.979-1.482l0.066,0.01
		c0.824,0.125,1.433,0.966,1.555,2.021l-0.116-0.017c-0.366-0.057-0.723,0.333-0.786,0.875l-0.018,0.138l0.575,0.087
		c0.013,0.144,0.064,0.265,0.147,0.335l-0.869,7.178l-0.088-0.013c-0.137-0.021-0.272,0.027-0.396,0.119l1.697,0.253
		c-0.093-0.117-0.205-0.205-0.338-0.228l-0.085-0.009l0.864-7.179c0.096-0.043,0.175-0.146,0.217-0.281l0.579,0.091l0.015-0.138
		c0.064-0.543-0.182-1.026-0.553-1.081l-0.051-0.005c0.426-0.972,1.375-1.581,2.391-1.424l0.079,0.014
		c1.015,0.154,1.787,1.021,1.968,2.084l-0.049-0.007c-0.376-0.059-0.725,0.328-0.791,0.875l-0.016,0.14l0.576,0.084
		c0.01,0.147,0.062,0.266,0.143,0.333l-0.866,7.178l-0.084-0.011c-0.129-0.021-0.254,0.022-0.371,0.102l1.649,0.245
		c-0.09-0.104-0.194-0.183-0.318-0.203l-0.088-0.013l0.868-7.176c0.091-0.042,0.171-0.145,0.218-0.28l0.574,0.089l0.017-0.14
		c0.04-0.305-0.023-0.603-0.166-0.814c-0.103-0.151-0.235-0.24-0.387-0.263l-0.061-0.008c0.423-0.976,1.371-1.579,2.385-1.421
		l0.084,0.009c1.016,0.155,1.784,1.021,1.967,2.085l-0.087-0.011c-0.146-0.025-0.297,0.023-0.433,0.136
		c-0.188,0.161-0.317,0.43-0.355,0.736l-0.015,0.138l0.577,0.09c0.01,0.14,0.062,0.267,0.146,0.333l-0.867,7.177l-0.088-0.014
		c-0.119-0.018-0.23,0.024-0.338,0.089l1.596,0.236c-0.086-0.09-0.182-0.16-0.298-0.177l-0.088-0.014l0.864-7.18
		c0.099-0.041,0.176-0.143,0.219-0.279l0.581,0.088l0.016-0.139c0.063-0.536-0.187-1.021-0.554-1.077l-0.041-0.005
		c0.428-0.971,1.376-1.577,2.39-1.422l0.081,0.01c0.025,0.003,0.046,0.023,0.072,0.026c0.049,0.009,0.093,0.027,0.141,0.04
		l0.498-3.952L29.55,25.96L29.538,26.05z"/>
	<polygon style="fill:#EC2726;" points="23.241,54.875 23.266,54.879 23.265,54.878 	"/>
	<path style="fill:#F26E25;" d="M27.644,55.546l-0.087-0.013c-0.343-0.052-0.667,0.277-0.767,0.75l-2.957-0.451
		c0.012-0.486-0.225-0.9-0.567-0.954l-0.024-0.003l-0.06-0.009l0,0l-0.924-0.129c-0.322-0.015-0.625,0.299-0.72,0.747l-3.003-0.458
		c0.01-0.263-0.054-0.509-0.177-0.688c-0.049-0.071-0.104-0.126-0.164-0.169l-1.449-0.203c-0.233,0.101-0.43,0.365-0.503,0.71
		l-2.008-0.307c0.011-0.332-0.101-0.621-0.28-0.794l-1.579-0.22c-0.2,0.119-0.366,0.353-0.431,0.666l-1.353-0.205
		c0.01-0.262-0.056-0.51-0.18-0.691c-0.015-0.02-0.033-0.032-0.05-0.05l-1.698-0.238c-0.009,0.007-0.02,0.008-0.029,0.017
		c-0.163,0.14-0.279,0.358-0.336,0.613l-0.187-0.028c-0.402-0.063-0.774,0.254-0.831,0.702c-0.052,0.448,0.233,0.864,0.633,0.926
		l0.273,0.043l-0.341,2.808l0.024,0.042c0.187,0.323,0.307,0.748,0.343,1.206c-0.124,0.002-0.246,0.046-0.358,0.141
		c-0.187,0.162-0.316,0.429-0.354,0.738l-0.017,0.139l0.578,0.086c0.011,0.144,0.06,0.266,0.14,0.334l-0.851,7.062l0.789,0.12
		l0.852-7.065c0.093-0.042,0.173-0.144,0.216-0.278l0.577,0.09l0.016-0.137c0.066-0.55-0.176-1.024-0.549-1.081l-0.096-0.018
		c0.306-0.918,0.902-1.504,1.507-1.414l0.055,0.011c0.594,0.09,1.037,0.852,1.117,1.826c-0.332,0.023-0.63,0.39-0.689,0.878
		l-0.018,0.138l0.58,0.088c0.005,0.145,0.061,0.264,0.141,0.335l-0.85,7.065l0.784,0.118l0.85-7.063
		c0.098-0.043,0.178-0.144,0.224-0.279l0.576,0.091l0.016-0.14c0.065-0.54-0.188-1.024-0.553-1.079l-0.023-0.004
		c0.355-0.913,1.082-1.479,1.835-1.366l0.067,0.011c0.752,0.113,1.318,0.877,1.444,1.866c-0.365-0.045-0.713,0.343-0.776,0.873
		l-0.017,0.141l0.579,0.086c0.009,0.145,0.065,0.266,0.142,0.335l-0.85,7.064l0.784,0.12l0.853-7.066
		c0.096-0.042,0.174-0.14,0.218-0.28l0.58,0.089l0.014-0.136c0.04-0.309-0.021-0.605-0.165-0.818
		c-0.086-0.123-0.192-0.205-0.31-0.243c0.41-0.909,1.301-1.456,2.245-1.312l0.082,0.013c0.944,0.144,1.672,0.937,1.852,1.934
		c-0.345,0.006-0.645,0.372-0.709,0.882l-0.017,0.134l0.579,0.088c0.006,0.144,0.062,0.27,0.141,0.334l-0.853,7.068l0.786,0.121
		l0.857-7.065c0.091-0.043,0.17-0.144,0.215-0.28l0.579,0.088l0.018-0.137c0.061-0.509-0.155-0.966-0.49-1.068
		c0.41-0.908,1.304-1.449,2.246-1.305l0.078,0.012c0.944,0.143,1.671,0.935,1.852,1.933c-0.133-0.008-0.264,0.037-0.385,0.14
		c-0.188,0.16-0.317,0.427-0.354,0.733l-0.017,0.143l0.574,0.084c0.012,0.143,0.066,0.267,0.145,0.337l-0.851,7.066l0.784,0.119
		l0.854-7.066c0.096-0.043,0.175-0.144,0.221-0.28l0.575,0.088l0.02-0.138c0.057-0.504-0.145-0.944-0.467-1.058
		c0.412-0.912,1.3-1.453,2.245-1.314l0.081,0.017c0.023,0.005,0.041,0.012,0.059,0.02l0.503-3.993l-1.634-0.251
		c0.016-0.493-0.218-0.899-0.565-0.955l-0.084-0.012l0.008-0.064l-0.79-0.109L27.644,55.546z"/>
	<path style="fill:#F9BB14;" d="M22.185,100.785l-0.087-0.009c-0.339-0.053-0.662,0.266-0.765,0.737l-2.962-0.453
		c0.009-0.478-0.227-0.89-0.563-0.94l-0.088-0.013l0.024-0.192l-0.786-0.124l-0.024,0.196l-0.085-0.013
		c-0.34-0.055-0.663,0.268-0.768,0.738l-3.005-0.461c0.008-0.479-0.227-0.886-0.564-0.937l-0.087-0.014l0.026-0.216l-0.786-0.123
		l-0.026,0.219l-0.087-0.015c-0.15-0.021-0.301,0.027-0.433,0.142c-0.162,0.132-0.279,0.346-0.332,0.593l-2.01-0.304
		c0.004-0.254-0.058-0.497-0.182-0.676c-0.102-0.152-0.231-0.24-0.385-0.264l-0.083-0.01l0.027-0.235l-0.789-0.124l-0.028,0.239
		l-0.085-0.016c-0.339-0.053-0.662,0.271-0.77,0.739L5.127,99.04c0.013-0.476-0.224-0.885-0.558-0.937l-0.091-0.009l0.031-0.252
		l-0.789-0.123l-0.03,0.251l-0.084-0.011c-0.147-0.023-0.3,0.022-0.433,0.138c-0.162,0.134-0.277,0.348-0.332,0.601l-0.191-0.034
		c-0.402-0.057-0.773,0.259-0.829,0.704c-0.051,0.451,0.231,0.864,0.634,0.93l0.269,0.041l-0.338,2.809l0.023,0.041
		c0.189,0.323,0.307,0.747,0.343,1.204c-0.343,0.003-0.654,0.382-0.716,0.881l-0.013,0.14l0.577,0.088
		c0.01,0.142,0.062,0.267,0.143,0.332l-0.865,7.177l-0.087-0.011c-0.343-0.05-0.67,0.281-0.768,0.751l-0.188-0.028
		c-0.402-0.063-0.774,0.252-0.828,0.701c-0.027,0.221,0.025,0.435,0.144,0.611c0.121,0.172,0.294,0.285,0.484,0.314l22.289,3.397
		l0.206-1.628l-1.326-0.202c0.014-0.485-0.222-0.903-0.564-0.956l-0.086-0.008l0.867-7.181c0.094-0.041,0.177-0.144,0.216-0.279
		l0.579,0.089l0.016-0.138c0.06-0.493-0.146-0.941-0.467-1.055c0.398-0.882,1.248-1.416,2.156-1.321l0.502-3.992l-1.403-0.213
		c0.007-0.257-0.056-0.497-0.181-0.68c-0.101-0.145-0.233-0.238-0.384-0.26l-0.084-0.013l0.021-0.172l-0.788-0.124L22.185,100.785z
		 M4.665,114.304l-1.35-0.206c0.008-0.262-0.056-0.506-0.181-0.69c-0.103-0.146-0.234-0.237-0.383-0.264l-0.087-0.011l0.866-7.178
		c0.093-0.042,0.174-0.146,0.218-0.279l0.576,0.086l0.017-0.139c0.037-0.31-0.024-0.606-0.168-0.818
		c-0.101-0.147-0.235-0.238-0.386-0.262l-0.096-0.012c0.309-0.91,0.918-1.505,1.512-1.418l0.051,0.008
		c0.606,0.096,1.046,0.844,1.12,1.828c-0.117,0.005-0.229,0.055-0.335,0.143c-0.189,0.158-0.32,0.429-0.354,0.735l-0.018,0.14
		l0.579,0.084c0.008,0.143,0.06,0.269,0.14,0.335l-0.866,7.184l-0.082-0.018C5.089,113.498,4.77,113.825,4.665,114.304z
		 M8.967,114.957l-2.01-0.306c0.012-0.261-0.052-0.507-0.176-0.692c-0.103-0.147-0.236-0.238-0.385-0.26l-0.087-0.013l0.867-7.18
		c0.096-0.042,0.174-0.143,0.219-0.278l0.574,0.086l0.019-0.136c0.035-0.31-0.024-0.607-0.17-0.819
		c-0.104-0.149-0.236-0.238-0.386-0.261l-0.019-0.003c0.355-0.915,1.081-1.481,1.834-1.365l0.067,0.009
		c0.751,0.115,1.321,0.88,1.446,1.867c-0.366-0.045-0.714,0.344-0.777,0.877l-0.016,0.137l0.576,0.09
		c0.009,0.14,0.064,0.262,0.143,0.329l-0.866,7.179l-0.088-0.013C9.394,114.154,9.069,114.486,8.967,114.957z M14.263,115.766
		l-3.005-0.457c0.011-0.262-0.052-0.508-0.175-0.691c-0.103-0.15-0.24-0.24-0.39-0.262l-0.084-0.013l0.868-7.18
		c0.091-0.043,0.171-0.144,0.215-0.277l0.577,0.088l0.017-0.141c0.038-0.309-0.023-0.604-0.169-0.816
		c-0.083-0.121-0.19-0.202-0.31-0.243c0.413-0.908,1.302-1.453,2.248-1.309l0.079,0.012c0.946,0.143,1.672,0.934,1.852,1.935
		c-0.339,0.006-0.644,0.379-0.708,0.878l-0.018,0.138l0.579,0.088c0.012,0.14,0.062,0.263,0.143,0.335l-0.865,7.179l-0.088-0.015
		c-0.148-0.023-0.302,0.023-0.433,0.141C14.434,115.291,14.314,115.511,14.263,115.766z M21.274,107.212
		c-0.137-0.005-0.271,0.036-0.385,0.14c-0.192,0.158-0.321,0.429-0.358,0.739l-0.017,0.136l0.578,0.088
		c0.009,0.144,0.063,0.267,0.141,0.336l-0.863,7.177l-0.086-0.013c-0.152-0.021-0.302,0.026-0.433,0.139
		c-0.167,0.136-0.284,0.356-0.336,0.611l-2.958-0.45c0.006-0.262-0.054-0.506-0.181-0.691c-0.103-0.146-0.234-0.239-0.385-0.263
		l-0.085-0.011l0.864-7.181c0.094-0.041,0.173-0.142,0.222-0.28l0.574,0.09l0.017-0.14c0.038-0.307-0.025-0.606-0.169-0.814
		c-0.088-0.129-0.198-0.212-0.319-0.246c0.41-0.911,1.299-1.454,2.242-1.311l0.083,0.018
		C20.364,105.422,21.089,106.219,21.274,107.212z"/>
	<path style="fill:#DA6426;" d="M47.095,90.119l-1.381-0.211c0.009-0.265-0.054-0.509-0.18-0.695
		c-0.078-0.114-0.179-0.182-0.286-0.224l-1.167-0.175c-0.112,0.009-0.225,0.043-0.325,0.134c-0.163,0.135-0.281,0.356-0.335,0.609
		l-2.095-0.316c0.018-0.432-0.174-0.794-0.456-0.91l-1.208-0.182c-0.101,0.015-0.199,0.048-0.29,0.126
		c-0.164,0.137-0.282,0.359-0.337,0.615l-2.973-0.452c0.007-0.26-0.055-0.511-0.18-0.695c-0.061-0.09-0.136-0.15-0.218-0.194
		l-1.294-0.196c-0.274,0.058-0.52,0.339-0.602,0.735l-3.038-0.462c0.016-0.398-0.136-0.732-0.376-0.877l-1.346-0.203
		c-0.264,0.071-0.488,0.346-0.568,0.732l-1.32-0.202l-0.202-0.031l-0.503,3.985c0.006,0.001,0.009,0,0.015,0.001l0.08,0.009
		c0.047,0.008,0.085,0.038,0.131,0.048c0.873,0.196,1.548,0.938,1.721,1.885c-0.347-0.003-0.655,0.368-0.718,0.882l-0.02,0.138
		l0.578,0.089c0.01,0.14,0.063,0.263,0.143,0.331l-0.848,7.027l0.785,0.123l0.851-7.026c0.094-0.044,0.175-0.146,0.215-0.279
		l0.58,0.086l0.017-0.138c0.058-0.486-0.139-0.932-0.45-1.049c0.409-0.913,1.301-1.462,2.245-1.318l0.083,0.014
		c0.942,0.144,1.674,0.937,1.854,1.934c-0.341,0.011-0.646,0.381-0.71,0.882l-0.015,0.139l0.577,0.088
		c0.013,0.141,0.062,0.265,0.145,0.33l-0.852,7.049l0.789,0.125l0.852-7.05c0.091-0.042,0.17-0.143,0.216-0.281l0.575,0.085
		l0.021-0.135c0.037-0.307-0.027-0.604-0.172-0.816c-0.085-0.128-0.197-0.207-0.321-0.244c0.412-0.91,1.3-1.457,2.244-1.311
		l0.083,0.011c0.942,0.142,1.665,0.936,1.851,1.936c-0.345-0.007-0.661,0.373-0.721,0.876l-0.018,0.14l0.575,0.086
		c0.012,0.146,0.065,0.266,0.145,0.334l-0.853,7.07l0.785,0.123l0.856-7.072c0.092-0.041,0.171-0.145,0.217-0.277l0.577,0.086
		l0.017-0.139c0.037-0.307-0.023-0.604-0.17-0.815c-0.099-0.139-0.22-0.228-0.358-0.257c0.352-0.913,1.079-1.481,1.835-1.365
		l0.065,0.007c0.757,0.113,1.323,0.882,1.449,1.872c-0.134-0.007-0.266,0.038-0.386,0.14c-0.186,0.161-0.318,0.428-0.353,0.735
		l-0.019,0.143l0.578,0.084c0.009,0.141,0.063,0.27,0.142,0.337l-0.853,7.086l0.786,0.123l0.854-7.091
		c0.098-0.042,0.176-0.145,0.219-0.28l0.579,0.09l0.015-0.142c0.062-0.53-0.165-0.995-0.525-1.07
		c0.309-0.91,0.914-1.507,1.507-1.418l0.053,0.006c0.601,0.094,1.043,0.838,1.119,1.816c-0.146-0.021-0.299,0.027-0.426,0.139
		c-0.19,0.162-0.319,0.428-0.356,0.736l-0.017,0.138l0.576,0.087C46.863,97.07,46.92,97.19,47,97.256l-0.857,7.104l0.787,0.122
		l0.857-7.107c0.091-0.04,0.172-0.141,0.216-0.279l0.578,0.087l0.018-0.137c0.036-0.306-0.021-0.604-0.169-0.817
		c-0.104-0.147-0.234-0.239-0.385-0.261l-0.024-0.004c0.135-0.405,0.331-0.755,0.57-1.01l0.031-0.036l0.347-2.857l0.409,0.064
		c0.194,0.029,0.39-0.028,0.544-0.161c0.155-0.131,0.258-0.326,0.285-0.544c0.005-0.038,0.006-0.084,0.005-0.121
		c0-0.178-0.055-0.346-0.149-0.485c-0.121-0.176-0.296-0.287-0.489-0.317l-0.186-0.027c0.01-0.265-0.053-0.516-0.175-0.699
		c-0.088-0.121-0.197-0.194-0.317-0.232l-1.102-0.168C47.478,89.373,47.187,89.678,47.095,90.119z"/>
	<path style="fill:#E2AA15;" d="M52.889,44.278c-0.16,0.133-0.279,0.351-0.333,0.601l-1.385-0.214
		c0.008-0.384-0.146-0.715-0.381-0.859l-1.371-0.203c-0.07,0.023-0.139,0.062-0.201,0.117c-0.163,0.134-0.281,0.348-0.336,0.599
		l-2.094-0.317c0.005-0.259-0.056-0.501-0.179-0.681c-0.046-0.066-0.099-0.117-0.158-0.159l-1.445-0.214
		c-0.234,0.094-0.434,0.359-0.509,0.703l-2.976-0.452c0.003-0.259-0.057-0.5-0.182-0.681c-0.038-0.054-0.083-0.094-0.13-0.133
		l-1.495-0.222c-0.052,0.023-0.103,0.047-0.15,0.085c-0.161,0.138-0.278,0.348-0.333,0.599l-3.041-0.461
		c0.008-0.26-0.056-0.5-0.177-0.68c-0.031-0.045-0.069-0.074-0.106-0.108l-1.549-0.229c-0.211,0.112-0.386,0.353-0.456,0.669
		l-1.292-0.197l-0.504,4.005c0.874,0.198,1.543,0.942,1.716,1.888c-0.344,0.001-0.66,0.375-0.721,0.881l-0.019,0.139l0.58,0.087
		c0.009,0.145,0.061,0.266,0.14,0.335l-0.85,7.059l0.792,0.11l0.85-7.047c0.094-0.043,0.175-0.145,0.217-0.28l0.577,0.084
		l0.014-0.136c0.042-0.308-0.022-0.607-0.169-0.816c-0.074-0.116-0.169-0.193-0.275-0.234c0.409-0.911,1.301-1.462,2.244-1.314
		l0.081,0.01c0.942,0.142,1.672,0.938,1.852,1.934c-0.337,0.011-0.644,0.383-0.708,0.879l-0.016,0.142l0.581,0.086
		c0.01,0.143,0.06,0.268,0.14,0.333l-0.84,6.994l0.788,0.111l0.844-6.983c0.091-0.042,0.172-0.144,0.218-0.277l0.574,0.085
		l0.017-0.135c0.04-0.31-0.024-0.604-0.168-0.817c-0.086-0.129-0.195-0.212-0.323-0.245c0.413-0.911,1.303-1.457,2.246-1.312
		l0.078,0.012c0.945,0.143,1.673,0.935,1.856,1.932c-0.128,0-0.253,0.048-0.368,0.141c-0.188,0.161-0.318,0.428-0.357,0.74
		l-0.015,0.139l0.577,0.085c0.009,0.144,0.062,0.267,0.144,0.337l-0.838,6.925l0.791,0.111l0.835-6.918
		c0.094-0.042,0.173-0.145,0.22-0.278l0.576,0.091L46,50.581c0.065-0.525-0.171-1-0.527-1.076c0.352-0.914,1.081-1.482,1.835-1.366
		l0.063,0.008c0.757,0.117,1.324,0.882,1.448,1.871c-0.35-0.015-0.679,0.368-0.738,0.881l-0.016,0.136l0.578,0.089
		c0.009,0.145,0.059,0.266,0.142,0.333l-0.83,6.873l0.79,0.111l0.83-6.865c0.091-0.04,0.173-0.141,0.214-0.275l0.578,0.087
		l0.018-0.137c0.035-0.312-0.023-0.61-0.169-0.822c-0.097-0.137-0.22-0.228-0.36-0.255c0.305-0.92,0.905-1.508,1.51-1.418
		l0.051,0.005c0.596,0.091,1.035,0.852,1.122,1.82c-0.375-0.052-0.718,0.33-0.785,0.875l-0.017,0.138l0.578,0.089
		c0.01,0.145,0.062,0.266,0.145,0.333l-0.824,6.829l0.789,0.11l0.824-6.819c0.091-0.043,0.171-0.144,0.214-0.278l0.58,0.09
		l0.017-0.138c0.064-0.54-0.186-1.026-0.556-1.081l-0.024-0.005c0.136-0.407,0.332-0.754,0.571-1.009l0.032-0.034l0.344-2.859
		l0.412,0.061c0.192,0.033,0.389-0.024,0.546-0.157c0.154-0.135,0.254-0.329,0.281-0.544c0.004-0.042,0.008-0.082,0.007-0.12
		c-0.003-0.176-0.053-0.348-0.149-0.491c-0.122-0.172-0.299-0.286-0.491-0.315l-0.188-0.028c0.008-0.257-0.057-0.496-0.176-0.673
		c-0.067-0.1-0.151-0.163-0.239-0.209l-1.283-0.19C53.057,44.175,52.971,44.21,52.889,44.278z"/>
	<path style="fill:#D62423;" d="M56.848,30.211l-1.02-0.155l1.037,0.163C56.86,30.217,56.855,30.213,56.848,30.211z"/>
	<path style="fill:#DA6426;" d="M46.938,28.702l-6.678-1.015l0.006-0.057l-5.754-0.896l-0.498,3.952
		c0.906,0.236,1.587,1.038,1.753,2.021l-0.061-0.008c-0.368-0.058-0.725,0.333-0.788,0.873l-0.019,0.14l0.577,0.087
		c0.011,0.143,0.065,0.264,0.146,0.335l-0.87,7.179l-0.083-0.014c-0.108-0.017-0.214,0.017-0.312,0.069l1.549,0.229
		c-0.083-0.078-0.174-0.137-0.281-0.155l-0.081-0.012l0.865-7.177c0.093-0.044,0.172-0.147,0.216-0.28l0.576,0.089l0.018-0.139
		c0.066-0.534-0.183-1.024-0.553-1.081h-0.023c0.426-0.975,1.375-1.577,2.391-1.422l0.081,0.011
		c1.015,0.153,1.784,1.019,1.968,2.082l-0.046-0.002c-0.371-0.059-0.727,0.333-0.794,0.873l-0.016,0.139l0.578,0.088
		c0.011,0.144,0.062,0.264,0.146,0.335l-0.87,7.175l-0.084-0.014c-0.098-0.014-0.191,0.012-0.282,0.055l1.495,0.222
		c-0.077-0.064-0.16-0.115-0.253-0.128l-0.088-0.013l0.868-7.177c0.092-0.045,0.174-0.146,0.216-0.281l0.578,0.087l0.017-0.137
		c0.065-0.547-0.178-1.021-0.555-1.079l-0.065-0.01c0.426-0.971,1.377-1.576,2.391-1.422l0.081,0.013
		c1.015,0.155,1.782,1.021,1.964,2.085l-0.061-0.008c-0.37-0.058-0.724,0.335-0.79,0.874l-0.018,0.139l0.576,0.087
		c0.011,0.144,0.063,0.264,0.147,0.333l-0.867,7.178l-0.089-0.012c-0.088-0.013-0.175,0.001-0.257,0.034l1.445,0.214
		c-0.07-0.052-0.146-0.09-0.231-0.104l-0.083-0.012l0.867-7.177c0.094-0.044,0.174-0.145,0.218-0.281l0.577,0.087l0.017-0.137
		c0.038-0.309-0.021-0.608-0.169-0.82c-0.101-0.149-0.233-0.236-0.386-0.259l-0.103-0.017c0.369-0.978,1.157-1.611,1.979-1.479
		l0.067,0.01c0.825,0.127,1.435,0.964,1.556,2.021l-0.075-0.012c-0.15-0.023-0.299,0.025-0.432,0.135
		c-0.191,0.166-0.323,0.433-0.357,0.741l-0.015,0.138l0.575,0.088c0.009,0.143,0.063,0.264,0.143,0.332l-0.866,7.178l-0.083-0.012
		c-0.079-0.013-0.157-0.005-0.231,0.021l1.371,0.203c-0.058-0.036-0.116-0.07-0.182-0.08l-0.085-0.011l0.864-7.179
		c0.094-0.042,0.175-0.145,0.22-0.278l0.574,0.084l0.02-0.139c0.063-0.546-0.178-1.022-0.554-1.077l-0.102-0.014
		c0.324-0.989,0.979-1.637,1.651-1.534l0.055,0.007c0.668,0.102,1.153,0.927,1.228,1.973l-0.119-0.02
		c-0.379-0.057-0.724,0.329-0.789,0.876l-0.021,0.14l0.579,0.086c0.012,0.142,0.063,0.268,0.144,0.335l-0.865,7.178l-0.087-0.014
		c-0.059-0.01-0.117,0.002-0.175,0.014l1.283,0.19c-0.048-0.024-0.094-0.05-0.146-0.059l-0.087-0.013l0.866-7.177
		c0.095-0.041,0.173-0.146,0.218-0.278l0.579,0.087l0.014-0.137c0.037-0.309-0.022-0.605-0.167-0.815
		c-0.1-0.15-0.236-0.242-0.387-0.266l-0.153-0.022c0.146-0.446,0.36-0.823,0.612-1.092l0.343-2.811l0.531,0.081
		c0.197,0.032,0.386-0.024,0.545-0.159c0.156-0.132,0.258-0.324,0.284-0.544c0.006-0.038,0.005-0.078,0.006-0.119
		c-0.004-0.394-0.263-0.732-0.622-0.8l-1.037-0.163l-4.452-0.676c0-0.006,0-0.011,0-0.018l-4.436-0.69L46.938,28.702z"/>
	<path style="fill:#DA6426;" d="M37.535,2.729l-3.023,24.005l5.754,0.896l1.065-8.831c0.25-2.053,1.947-3.493,3.789-3.213
		c0.893,0.138,1.681,0.651,2.229,1.451c0.548,0.8,0.783,1.784,0.662,2.779l-1.07,8.855l4.436,0.69
		c0.013-0.546-0.245-1.012-0.623-1.085l1.906-15.791c0.024-0.011,0.046-0.017,0.046-0.017c0.106-0.09,0.186-0.229,0.23-0.391
		l0.525,0.081l0.018-0.139c0.045-0.357-0.027-0.703-0.192-0.95c-0.117-0.168-0.271-0.273-0.438-0.298l-0.494-0.075l0.441-3.639
		l0.579,0.087c0.707,0.11,1.36-0.441,1.455-1.232c0.021-0.191,0.008-0.379-0.031-0.558L37.535,2.729z"/>
	<path style="fill:#DA6426;" d="M51.636,58.844l-0.043,0.351l-0.087-0.016c-0.341-0.053-0.667,0.277-0.767,0.753l-1.382-0.21
		c0.009-0.259-0.053-0.507-0.179-0.689c-0.101-0.149-0.233-0.239-0.388-0.264l-0.082-0.014l0.037-0.314l-0.79-0.111l-0.037,0.305
		l-0.082-0.011c-0.345-0.05-0.671,0.276-0.773,0.75l-2.093-0.318c0.015-0.488-0.22-0.902-0.562-0.954l-0.085-0.014l0.031-0.26
		l-0.791-0.111l-0.03,0.253l-0.085-0.012c-0.149-0.024-0.299,0.022-0.433,0.138c-0.163,0.135-0.28,0.355-0.335,0.61l-2.976-0.455
		c0.012-0.484-0.222-0.897-0.564-0.952l-0.085-0.011l0.023-0.197l-0.788-0.111l-0.023,0.188l-0.087-0.012
		c-0.346-0.057-0.669,0.268-0.768,0.748l-3.037-0.462c0.014-0.484-0.22-0.901-0.563-0.955l-0.084-0.01l0.016-0.13l-0.792-0.11
		l-0.013,0.121l-0.087-0.015c-0.338-0.053-0.666,0.277-0.77,0.75l-1.349-0.203l-0.019-0.002l-0.503,3.993
		c0.014,0.005,0.026,0.011,0.042,0.014c0.889,0.182,1.578,0.938,1.754,1.897c-0.351-0.003-0.662,0.368-0.726,0.88l-0.016,0.137
		l0.579,0.089c0.012,0.143,0.061,0.267,0.145,0.336l-0.854,7.067l0.784,0.12l0.854-7.066c0.096-0.046,0.177-0.145,0.22-0.284
		l0.576,0.089l0.018-0.136c0.059-0.496-0.137-0.929-0.45-1.053c0.41-0.911,1.303-1.459,2.246-1.312l0.08,0.011
		c0.943,0.143,1.672,0.934,1.854,1.934c-0.339,0.012-0.647,0.384-0.707,0.88l-0.016,0.139l0.578,0.09
		c0.011,0.138,0.061,0.266,0.141,0.332l-0.85,7.07l0.785,0.119l0.854-7.072c0.094-0.038,0.176-0.141,0.218-0.278l0.579,0.09
		l0.014-0.141c0.04-0.303-0.021-0.602-0.166-0.812c-0.089-0.129-0.2-0.211-0.324-0.248c0.412-0.908,1.303-1.453,2.244-1.31
		l0.08,0.013c0.944,0.144,1.672,0.937,1.855,1.932c-0.349-0.005-0.661,0.365-0.724,0.881l-0.015,0.139l0.578,0.088
		c0.008,0.143,0.061,0.265,0.141,0.332l-0.853,7.071l0.79,0.121l0.852-7.074c0.095-0.037,0.173-0.144,0.219-0.277l0.576,0.088
		l0.016-0.141c0.04-0.305-0.024-0.599-0.169-0.812c-0.098-0.14-0.221-0.228-0.361-0.258c0.355-0.914,1.084-1.48,1.84-1.367
		l0.066,0.009c0.752,0.118,1.322,0.886,1.445,1.874c-0.136-0.007-0.266,0.037-0.384,0.139c-0.186,0.159-0.316,0.427-0.353,0.736
		l-0.018,0.137l0.574,0.09c0.013,0.14,0.064,0.263,0.145,0.335l-0.854,7.07l0.79,0.121l0.853-7.073
		c0.091-0.041,0.174-0.144,0.216-0.279l0.575,0.09l0.021-0.14c0.037-0.306-0.024-0.604-0.167-0.814
		c-0.097-0.142-0.221-0.228-0.362-0.259c0.308-0.921,0.906-1.511,1.506-1.419l0.057,0.007c0.594,0.091,1.039,0.849,1.117,1.82
		c-0.148-0.021-0.295,0.026-0.427,0.137c-0.187,0.159-0.317,0.428-0.355,0.735l-0.016,0.137l0.579,0.088
		c0.009,0.146,0.06,0.271,0.142,0.337l-0.855,7.07l0.789,0.122l0.854-7.074c0.095-0.041,0.173-0.144,0.218-0.281l0.577,0.091
		l0.017-0.139c0.036-0.307-0.024-0.604-0.167-0.817c-0.104-0.148-0.237-0.239-0.388-0.264l-0.025-0.004
		c0.14-0.406,0.332-0.754,0.572-1.008l0.033-0.033l0.343-2.859l0.409,0.061c0.198,0.032,0.391-0.024,0.546-0.157
		c0.159-0.133,0.257-0.326,0.282-0.545c0.055-0.448-0.228-0.864-0.627-0.923l-0.19-0.029c0.016-0.487-0.222-0.904-0.562-0.954
		l-0.086-0.012l0.043-0.362L51.636,58.844z"/>
	<path style="fill:#E2AA15;" d="M49.787,74.142l-0.014,0.106l-0.086-0.014c-0.356-0.053-0.697,0.313-0.778,0.824l-1.376-0.208
		c0.024-0.29-0.037-0.568-0.171-0.764c-0.104-0.148-0.235-0.242-0.387-0.262l-0.084-0.017l0.013-0.105l-0.79-0.121l-0.014,0.106
		l-0.084-0.012c-0.357-0.054-0.699,0.312-0.781,0.824l-2.086-0.316c0.045-0.52-0.201-0.976-0.559-1.031l-0.083-0.014l0.013-0.106
		l-0.79-0.121l-0.015,0.109l-0.086-0.015c-0.146-0.022-0.296,0.024-0.43,0.136c-0.179,0.156-0.305,0.404-0.35,0.688l-2.968-0.448
		c0.042-0.521-0.2-0.977-0.561-1.034l-0.086-0.012l0.014-0.109l-0.785-0.119l-0.014,0.109l-0.087-0.013
		c-0.36-0.053-0.701,0.312-0.784,0.824l-3.026-0.463c0.047-0.518-0.196-0.973-0.557-1.027l-0.088-0.015l0.012-0.107l-0.784-0.12
		l-0.014,0.11l-0.087-0.012c-0.357-0.051-0.701,0.312-0.781,0.824l-1.334-0.202l-0.109-0.016l-0.501,3.983l0.015,0.002
		c0.042,0.006,0.077,0.029,0.117,0.037c0.884,0.189,1.562,0.938,1.738,1.894c-0.346,0-0.662,0.377-0.724,0.879l-0.015,0.142
		l0.576,0.087c0.013,0.142,0.062,0.265,0.142,0.332l-0.863,7.18l-0.085-0.011c-0.068-0.011-0.137,0.004-0.203,0.021l1.346,0.203
		c-0.059-0.037-0.116-0.07-0.185-0.08l-0.083-0.014l0.866-7.176c0.09-0.044,0.172-0.148,0.218-0.281l0.575,0.087l0.016-0.138
		c0.061-0.485-0.137-0.929-0.447-1.051c0.409-0.911,1.3-1.457,2.245-1.313l0.083,0.012c0.939,0.143,1.67,0.934,1.852,1.935
		c-0.339,0.007-0.646,0.381-0.706,0.876l-0.02,0.141l0.579,0.087c0.013,0.144,0.064,0.271,0.146,0.334l-0.867,7.18l-0.085-0.014
		c-0.057-0.008-0.111,0.009-0.168,0.02l1.294,0.196c-0.054-0.031-0.109-0.059-0.169-0.069l-0.084-0.011l0.864-7.18
		c0.097-0.043,0.175-0.144,0.22-0.28l0.577,0.089l0.018-0.139c0.036-0.306-0.026-0.604-0.172-0.815
		c-0.088-0.126-0.196-0.209-0.319-0.246c0.41-0.91,1.302-1.457,2.245-1.312l0.081,0.013c0.94,0.144,1.669,0.936,1.851,1.932
		c-0.345-0.005-0.659,0.374-0.721,0.883l-0.019,0.137l0.575,0.087c0.011,0.142,0.065,0.266,0.147,0.334l-0.871,7.177l-0.081-0.01
		c-0.049-0.008-0.098,0.004-0.146,0.01l1.208,0.182c-0.036-0.015-0.067-0.04-0.106-0.046l-0.086-0.016l0.868-7.179
		c0.094-0.04,0.174-0.144,0.217-0.278l0.578,0.087l0.017-0.138c0.034-0.307-0.023-0.603-0.168-0.815
		c-0.099-0.141-0.221-0.23-0.359-0.257c0.353-0.914,1.079-1.483,1.833-1.368l0.065,0.011c0.759,0.114,1.328,0.886,1.447,1.87
		c-0.13-0.002-0.263,0.042-0.381,0.142c-0.188,0.163-0.317,0.431-0.355,0.738l-0.017,0.138L45,81.307
		c0.008,0.139,0.063,0.264,0.145,0.33l-0.867,7.183l-0.086-0.015c-0.036-0.005-0.073,0.007-0.11,0.01l1.167,0.175
		c-0.033-0.012-0.063-0.033-0.098-0.039l-0.085-0.011l0.864-7.181c0.095-0.041,0.173-0.145,0.219-0.28l0.576,0.089l0.018-0.14
		c0.039-0.306-0.023-0.604-0.169-0.815c-0.094-0.142-0.222-0.229-0.359-0.255c0.308-0.921,0.905-1.51,1.51-1.421l0.052,0.011
		c0.593,0.091,1.039,0.845,1.118,1.816c-0.146-0.022-0.294,0.028-0.426,0.136c-0.188,0.159-0.322,0.428-0.355,0.739l-0.018,0.137
		l0.577,0.086c0.009,0.147,0.064,0.27,0.145,0.336l-0.867,7.179l-0.086-0.013c-0.023-0.003-0.046,0.008-0.069,0.007l1.102,0.168
		c-0.024-0.008-0.046-0.026-0.073-0.03l-0.083-0.014l0.863-7.179c0.095-0.039,0.174-0.142,0.219-0.278l0.576,0.088l0.019-0.136
		c0.036-0.308-0.025-0.605-0.17-0.815c-0.102-0.153-0.235-0.245-0.386-0.265l-0.025-0.005c0.139-0.405,0.334-0.755,0.573-1.01
		l0.032-0.034l0.343-2.859l0.411,0.064c0.195,0.029,0.39-0.028,0.544-0.162c0.158-0.13,0.259-0.326,0.285-0.541
		c0.003-0.042,0.007-0.082,0.007-0.123c0-0.172-0.054-0.342-0.151-0.484c-0.119-0.174-0.294-0.288-0.487-0.321l-0.183-0.024
		c0.043-0.52-0.201-0.974-0.561-1.029l-0.085-0.012l0.013-0.107L49.787,74.142z"/>
	<path style="fill:#E2AA15;" d="M46.133,104.435l-0.087-0.013c-0.338-0.05-0.662,0.272-0.767,0.739l-1.383-0.213
		c0.006-0.256-0.055-0.497-0.178-0.675c-0.103-0.15-0.233-0.242-0.388-0.263l-0.084-0.014l0.011-0.087l-0.786-0.123l-0.01,0.09
		l-0.089-0.013c-0.149-0.024-0.302,0.024-0.433,0.138c-0.162,0.137-0.28,0.349-0.333,0.597l-2.096-0.318
		c0.011-0.479-0.226-0.888-0.564-0.939l-0.087-0.015l0.013-0.104l-0.785-0.123l-0.012,0.106l-0.088-0.01
		c-0.335-0.051-0.661,0.269-0.766,0.736l-2.976-0.454c0.003-0.255-0.059-0.497-0.182-0.678c-0.1-0.149-0.235-0.238-0.384-0.262
		l-0.086-0.013l0.016-0.127l-0.789-0.125l-0.014,0.132l-0.086-0.013c-0.341-0.05-0.665,0.269-0.767,0.738l-3.04-0.464
		c0.006-0.257-0.055-0.5-0.179-0.681c-0.101-0.146-0.234-0.237-0.387-0.259l-0.084-0.013l0.017-0.152l-0.785-0.123l-0.019,0.154
		l-0.086-0.012c-0.343-0.057-0.662,0.263-0.767,0.734l-1.306-0.2l-0.297-0.045l-0.502,3.992c0.029,0.003,0.059,0.001,0.09,0.006
		l0.082,0.013c0.05,0.007,0.097,0.037,0.144,0.05c0.869,0.203,1.536,0.944,1.708,1.883c-0.128,0-0.252,0.045-0.365,0.143
		c-0.189,0.16-0.321,0.428-0.355,0.736l-0.019,0.138l0.578,0.088c0.011,0.143,0.065,0.266,0.144,0.334l-0.865,7.178l-0.086-0.013
		c-0.341-0.053-0.669,0.279-0.769,0.749l-1.289-0.194l-0.389-0.06l-0.206,1.628l0.397,0.061l22.422,3.415
		c0.193,0.029,0.39-0.028,0.544-0.16c0.157-0.134,0.261-0.326,0.286-0.543c0.053-0.45-0.229-0.865-0.634-0.926l-0.184-0.027
		c0.014-0.486-0.225-0.901-0.566-0.955l-0.085-0.013l0.868-7.176c0.093-0.045,0.173-0.145,0.217-0.284l0.576,0.09l0.019-0.144
		c0.065-0.535-0.183-1.019-0.555-1.074l-0.022-0.003c0.133-0.407,0.331-0.756,0.566-1.012l0.032-0.036l0.346-2.855l0.412,0.065
		c0.192,0.029,0.389-0.027,0.543-0.162c0.157-0.135,0.258-0.327,0.286-0.544c0.002-0.039,0.002-0.08,0.002-0.121
		c-0.002-0.176-0.053-0.346-0.149-0.486c-0.12-0.176-0.292-0.29-0.486-0.315l-0.19-0.03c0.012-0.479-0.226-0.887-0.562-0.941
		l-0.086-0.013l0.009-0.072l-0.787-0.122L46.133,104.435z M30.138,118.184l-3.039-0.462c0.009-0.26-0.053-0.507-0.177-0.692
		c-0.102-0.149-0.235-0.237-0.387-0.262l-0.08-0.012l0.865-7.18c0.092-0.04,0.169-0.142,0.215-0.278l0.576,0.089l0.018-0.142
		c0.058-0.485-0.138-0.927-0.448-1.051c0.41-0.909,1.302-1.458,2.244-1.315l0.083,0.014c0.943,0.143,1.671,0.937,1.856,1.938
		c-0.124,0.002-0.243,0.048-0.35,0.14c-0.191,0.16-0.322,0.427-0.359,0.738l-0.018,0.137l0.58,0.084
		c0.011,0.147,0.061,0.268,0.141,0.335l-0.866,7.18l-0.086-0.013C30.566,117.382,30.238,117.711,30.138,118.184z M35.404,118.985
		l-2.976-0.452c0.015-0.484-0.222-0.902-0.564-0.953l-0.086-0.014l0.869-7.178c0.092-0.041,0.173-0.146,0.215-0.278l0.577,0.084
		l0.017-0.136c0.062-0.507-0.153-0.965-0.489-1.063c0.412-0.909,1.299-1.45,2.244-1.309l0.085,0.012
		c0.939,0.142,1.667,0.934,1.849,1.932c-0.346-0.001-0.659,0.375-0.723,0.882l-0.017,0.14l0.576,0.085
		c0.012,0.141,0.064,0.268,0.144,0.332l-0.866,7.181l-0.086-0.013C35.834,118.183,35.507,118.515,35.404,118.985z M39.791,119.654
		l-2.097-0.319c0.017-0.484-0.222-0.901-0.562-0.953l-0.085-0.013l0.865-7.181c0.095-0.04,0.175-0.145,0.216-0.278l0.578,0.09
		l0.021-0.14c0.059-0.525-0.173-1-0.529-1.073c0.352-0.914,1.082-1.482,1.837-1.369l0.062,0.012
		c0.757,0.117,1.326,0.881,1.447,1.869c-0.351-0.016-0.674,0.368-0.738,0.879l-0.014,0.139l0.575,0.087
		c0.01,0.146,0.064,0.267,0.145,0.333l-0.867,7.181l-0.085-0.014C40.216,118.851,39.89,119.181,39.791,119.654z M45.262,110.862
		c-0.365-0.048-0.719,0.341-0.779,0.877l-0.02,0.138l0.577,0.087c0.014,0.141,0.063,0.265,0.142,0.33l-0.863,7.18l-0.087-0.012
		c-0.152-0.02-0.301,0.024-0.432,0.142c-0.166,0.136-0.283,0.354-0.339,0.609l-1.382-0.21c0.018-0.484-0.223-0.9-0.564-0.954
		l-0.08-0.015l0.864-7.177c0.093-0.042,0.176-0.145,0.219-0.28l0.574,0.089l0.018-0.139c0.066-0.525-0.172-1-0.529-1.071
		c0.306-0.922,0.906-1.509,1.511-1.419l0.052,0.009C44.745,109.14,45.187,109.881,45.262,110.862z"/>
	<path style="fill:#DA6426;" d="M42.471,126.661l-0.101,0.87l-1.011-0.153l0.104-0.872c0.242-1.986-0.948-3.819-2.648-4.077
		c-1.707-0.259-3.288,1.149-3.528,3.139l-0.103,0.87l-1.082-0.167l0.103-0.863c0.239-1.994-1.161-3.857-3.118-4.156
		c-1.961-0.299-3.755,1.075-3.993,3.068l-0.103,0.871l-1.06-0.165l0.104-0.868c0.233-1.946-1.104-3.754-2.987-4.118l-0.001,0.009
		c-0.003,0.002-0.004-0.002-0.006-0.001c-0.093-0.014-0.185-0.006-0.278-0.012l-2.486,19.749c0.181-0.003,0.358-0.004,0.539-0.006
		l0.003-0.013c1.037-0.007,2.079-0.02,3.106-0.031l1.547-11.828c0.03,0.01,0.06,0.021,0.09,0.024l1.073,0.165
		c0.034,0.006,0.063,0.005,0.093,0.005l-1.285,11.617c2.427-0.026,4.765-0.048,6.9-0.07l1.367-10.488
		c0.03,0.01,0.06,0.019,0.093,0.023l1.07,0.165c0.031,0.004,0.062,0.003,0.093,0.003l-1.139,10.282
		c2.305-0.023,4.298-0.045,5.797-0.061l1.219-9.326c0.029,0.012,0.062,0.018,0.095,0.028l1.069,0.161
		c0.031,0.004,0.064,0.004,0.095,0.003l-1.012,9.119c0.913-0.009,1.431-0.014,1.453-0.013c0.022-0.196,1.475-12.203,1.928-15.925
		C43.434,124.05,42.642,125.245,42.471,126.661z"/>
	<path style="fill:#F26E25;" d="M20.276,120.829c-0.682,0.57-1.112,1.384-1.222,2.283l-0.104,0.866l-0.973-0.149l0.106-0.87
		c0.104-0.897-0.119-1.808-0.636-2.563c-0.581-0.849-1.484-1.426-2.481-1.577c-1.959-0.298-3.745,1.077-3.984,3.063l-0.108,0.864
		l-1.077-0.164l0.103-0.868c0.118-0.993-0.107-1.973-0.642-2.754c-0.499-0.729-1.21-1.196-2.008-1.315
		c-0.796-0.127-1.596,0.113-2.25,0.667c-0.699,0.593-1.151,1.469-1.271,2.466l-0.103,0.862L2.62,121.49l0.105-0.866
		c0.179-1.47-0.33-2.885-1.274-3.587c-0.34,2.812-0.441,11.012-0.479,16.967l1.257-9.628c0.031,0.013,0.058,0.025,0.092,0.027
		l1.071,0.163c0.032,0.002,0.062,0.007,0.094,0.002l-1.597,14.388l0.17,0.03c0.391,0.057,0.693,0.448,0.815,0.977
		c1.279-0.014,2.802-0.029,4.49-0.045l1.952-14.459c0.029,0.01,0.062,0.014,0.094,0.024l1.068,0.163
		c0.033,0.006,0.062,0.005,0.098,0.003L8.988,139.9c2.094-0.021,4.382-0.045,6.75-0.068l1.717-13.133
		c0.027,0.01,0.058,0.02,0.09,0.023l1.07,0.163c0.029,0.004,0.066,0.006,0.098,0.003l-1.437,12.926
		c0.993-0.01,1.996-0.02,2.999-0.029l2.486-19.749C21.859,119.971,20.964,120.24,20.276,120.829z"/>
	<polygon style="fill:none;" points="21.903,136.72 21.343,135.512 18.878,135.387 19.284,136.544 	"/>
	<polygon style="fill:none;" points="15.257,125.901 14.885,125.363 12.688,125.196 13.101,125.759 	"/>
	<polygon style="fill:none;" points="18.502,130.09 18.083,129.402 15.932,129.386 16.156,130.026 	"/>
</g>
</svg>
