<?xml version="1.0" encoding="utf-8"?>
<!-- Generator: Adobe Illustrator 17.0.0, SVG Export Plug-In . SVG Version: 6.00 Build 0)  -->
<!DOCTYPE svg PUBLIC "-//W3C//DTD SVG 1.1//EN" "http://www.w3.org/Graphics/SVG/1.1/DTD/svg11.dtd">
<svg version="1.1" id="图层_1" xmlns="http://www.w3.org/2000/svg" xmlns:xlink="http://www.w3.org/1999/xlink" x="0px" y="0px"
	 width="103.253px" height="115.815px" viewBox="0 0 103.253 115.815" enable-background="new 0 0 103.253 115.815"
	 xml:space="preserve">
<path fill="#FFFFFF" d="M87.144,81.056c0,19.197-15.562,34.759-34.759,34.759c-19.198,0-34.761-15.561-34.761-34.759
	c0-12.036,6.118-22.641,15.413-28.88c-3.666-4.38-5.876-10.02-5.876-16.179c0-13.93,11.293-25.223,25.224-25.223
	c13.93,0,25.223,11.293,25.223,25.223c0,6.159-2.21,11.799-5.876,16.179C81.026,58.416,87.144,69.021,87.144,81.056z"/>
<path fill="#5DD18B" d="M37.252,74.482c0-1.322,1.071-2.393,2.395-2.393c1.322,0,2.393,1.071,2.393,2.393
	c0,1.323-1.071,2.396-2.393,2.396C38.323,76.878,37.252,75.805,37.252,74.482 M36.373,85.049c0,1.323,1.072,2.395,2.395,2.395
	c1.322,0,2.395-1.071,2.395-2.395c0-1.322-1.072-2.395-2.395-2.395C37.446,82.654,36.373,83.726,36.373,85.049 M38.768,94.602
	c0,1.322,1.072,2.394,2.395,2.394s2.395-1.071,2.395-2.394c0-1.321-1.072-2.394-2.395-2.394S38.768,93.281,38.768,94.602
	 M28.407,49.009c-1.506,1.296-0.907,5.555,3.257,9.846c4.019,4.228,11.602,8.487,20.721,8.344c4.146,0.066,7.971-0.785,11.292-2.125
	c-1.095,8.179-1.971,20.416-0.645,22.37c1.931,2.847,10.139,3.267,14.081-1.076c3.121-3.441-2.586-19.799-5.097-26.457
	c0.384-0.352,0.753-0.703,1.089-1.056c4.164-4.291,4.762-8.55,3.256-9.846c-3.423-2.553-13.109,3.018-23.977,2.561
	C41.517,52.026,31.83,46.456,28.407,49.009"/>
<path fill="#5E1D23" d="M26.588,68.58c-5.85,3.577-12.823,4.638-19.521,5.456c-1.92,1.295-3.507,3.033-5.342,4.442
	c-1.235,0.947-2.436-1.15-1.219-2.084c1.177-0.902,2.241-1.935,3.359-2.901c-1.099-0.26-2.153-0.681-3.118-1.291
	c-1.31-0.829-0.101-2.919,1.219-2.083c0.817,0.516,1.694,0.864,2.612,1.066C3.92,69.48,3.557,67.721,3.529,65.85
	c-0.023-1.559,2.39-1.556,2.413,0c0.028,1.915,0.45,3.699,1.283,5.425c0.053,0.106,0.083,0.212,0.104,0.315
	c6.185-0.763,12.646-1.797,18.039-5.093C26.701,65.682,27.914,67.77,26.588,68.58z M102.746,76.393
	c-1.178-0.902-2.241-1.935-3.359-2.901c1.098-0.26,2.154-0.681,3.117-1.291c1.312-0.829,0.102-2.919-1.218-2.083
	c-0.817,0.516-1.694,0.864-2.614,1.066c0.659-1.705,1.023-3.464,1.051-5.335c0.023-1.559-2.391-1.556-2.413,0
	c-0.029,1.915-0.45,3.699-1.285,5.425c-0.05,0.106-0.082,0.212-0.103,0.315c-6.185-0.763-12.646-1.797-18.039-5.093
	c-1.331-0.814-2.544,1.273-1.218,2.083c5.85,3.577,12.823,4.638,19.52,5.456c1.92,1.295,3.507,3.033,5.343,4.442
	C102.763,79.425,103.963,77.327,102.746,76.393z M54.825,26.664c-0.89,0-1.61,1.513-1.61,3.379s0.721,3.38,1.61,3.38
	s1.608-1.514,1.608-3.38C56.434,28.177,55.714,26.664,54.825,26.664z M37.252,26.02c-0.889,0-1.609,1.513-1.609,3.38
	c0,1.865,0.721,3.379,1.609,3.379c0.889,0,1.609-1.514,1.609-3.379C38.862,27.533,38.141,26.02,37.252,26.02z"/>
<path fill="#DF4F44" d="M44.44,33.976c-4.285-2.059-23.382,3.245-23.288,5.4c0.095,2.156,19.363,7.331,23.288,5.401
	C48.365,42.848,48.727,36.034,44.44,33.976"/>
<path fill="#49ABE2" d="M45.457,8.751c-0.176,0.86-0.248,1.722-0.216,2.569l25.873,7.984c0.504-0.682,0.93-1.434,1.27-2.244
	c3.843,1.838,6.105,3.476,5.81,4.43c-0.555,1.796-9.965,0.487-21.02-2.926c-11.055-3.411-19.566-7.633-19.013-9.43
	C38.455,8.181,41.248,8.103,45.457,8.751 M72.436,16.943c0.12-0.293,0.229-0.591,0.324-0.898c1.777-5.761-1.451-11.871-7.212-13.649
	l-6.179-1.907C53.609-1.289,47.497,1.94,45.72,7.7c-0.095,0.309-0.173,0.616-0.239,0.925L72.436,16.943z M71.114,19.304
	c0.504-0.682,0.93-1.435,1.27-2.244c0.017-0.039,0.036-0.077,0.052-0.117L45.481,8.625c-0.01,0.041-0.015,0.084-0.024,0.126
	c-0.176,0.86-0.248,1.722-0.216,2.569L71.114,19.304z"/>
</svg>
