<?xml version="1.0" encoding="utf-8"?>
<!-- Generator: Adobe Illustrator 16.0.0, SVG Export Plug-In . SVG Version: 6.00 Build 0)  -->
<!DOCTYPE svg PUBLIC "-//W3C//DTD SVG 1.1//EN" "http://www.w3.org/Graphics/SVG/1.1/DTD/svg11.dtd">
<svg version="1.1" xmlns="http://www.w3.org/2000/svg" xmlns:xlink="http://www.w3.org/1999/xlink" x="0px" y="0px" width="80px"
	 height="184.102px" viewBox="0 0 80 184.102" enable-background="new 0 0 80 184.102" xml:space="preserve">
<g id="background">
</g>
<g id="objekt">
	<path fill="#B7A99F" d="M85.035,183.549c0,1.412-19.917,2.557-44.484,2.557c-24.566,0-44.481-1.145-44.481-2.557
		s19.915-2.557,44.481-2.557C65.118,180.992,85.035,182.137,85.035,183.549z"/>
	<path fill="#351F10" d="M69,10.08c3.471,6.212-9,27-9,27l-46.562,0.492c0,0-11.765-21.838-7.438-27.492
		C15.573-2.426,61.317-3.668,69,10.08z"/>
	<path fill="#351F10" d="M59.748,123.77l-10.904,50.742l12.383,7.463l-21.02,0.236c0,0,0-53.693,0-54.93s-6.029,45.576-6.029,45.576
		v9.654l-18.667,1l12.309-9.127l-7.229-51.336l-6.814-0.127l6.236-35.68L0,118.281l20.178-52.769l39.4-1.29L80,119.281L58.99,88.061
		l5.533,35.924L59.748,123.77z"/>
	<path fill="#E2D4BF" d="M51.246,59.902l-9.523,47.148L26.518,60.727L51.246,59.902z"/>
	<path fill="#EABB98" d="M65.391,47.424c-0.389-0.045-0.759-0.148-1.111-0.299c-3.666,6.729-13.025,11.784-24.216,12.3
		c-11.045,0.51-20.731-3.553-25.083-9.78c-0.342,0.287-0.72,0.525-1.145,0.687c-2.766,1.055-6.19-1.194-7.65-5.023
		c-1.461-3.827-0.401-7.785,2.363-8.839c1.576-0.603,3.369-0.126,4.889,1.104c2.953-7.528,2.596-18.951,24.976-20.934
		C56,15.08,59.5,27.347,63.73,33.771c0.986-0.807,2.139-1.225,3.322-1.092c2.939,0.33,4.953,3.899,4.494,7.972
		C71.086,44.722,68.332,47.753,65.391,47.424z"/>
	<path fill="#351F10" d="M37.156,38.236c-0.327,1.236-1.627,1.969-2.899,1.631c-1.274-0.338-2.043-1.615-1.716-2.852
		c0.327-1.238,1.627-1.969,2.901-1.632C36.714,35.721,37.484,36.998,37.156,38.236z"/>
	<path fill="#351F10" d="M55.924,38.562c-0.327,1.236-1.626,1.967-2.901,1.63c-1.273-0.337-2.042-1.614-1.714-2.851
		c0.327-1.238,1.627-1.967,2.901-1.631C55.483,36.048,56.251,37.324,55.924,38.562z"/>
	<path fill="#665E5A" d="M41.297,106.627c-15.662-8.244-24.213-40.87-24.213-40.87l10.285-5.243L41.297,106.627z M48.561,57.031
		l-6.838,50.02c0,0,15.733-23.457,19.855-42.828L48.561,57.031z"/>
	<path fill="#FE0000" d="M52.152,52.6l0.215,17.568l-13.154-7.524L26.602,70.15L25.15,52.507l13.854,6.784L52.152,52.6z"/>
</g>
</svg>
