<?xml version="1.0" encoding="utf-8"?>
<!-- Generator: Adobe Illustrator 17.0.0, SVG Export Plug-In . SVG Version: 6.00 Build 0)  -->
<!DOCTYPE svg PUBLIC "-//W3C//DTD SVG 1.1//EN" "http://www.w3.org/Graphics/SVG/1.1/DTD/svg11.dtd">
<svg version="1.1" id="图层_1" xmlns="http://www.w3.org/2000/svg" xmlns:xlink="http://www.w3.org/1999/xlink" x="0px" y="0px"
	 width="498.332px" height="157.876px" viewBox="0 0 498.332 157.876" enable-background="new 0 0 498.332 157.876"
	 xml:space="preserve">
<path id="eqxiu" transform="scale(1,1)" fill="#FF485E" d="M301.988,139.581c-5.307,6.899-15.922,6.899-23.352,0.531l-19.637-16.452
	l11.145-9.553l13.268-11.145l15.391,13.268C306.234,122.597,307.826,132.681,301.988,139.581L301.988,139.581z M220.256,140.111
	c-7.43,6.369-18.045,5.838-23.352-1.061c-5.838-6.899-4.246-16.983,3.184-23.352l15.391-12.737l19.637,16.452l4.777,4.246
	L220.256,140.111L220.256,140.111z M223.441,37.151l26.006-22.29l25.475,22.29l-25.475,22.29l0,0h-0.531l0,0L223.441,37.151
	L223.441,37.151z M225.033,95l24.413-20.698L273.86,95l-24.413,20.698L225.033,95L225.033,95z M482.434,65.279
	c0,0-14.86-3.715-24.944,5.307c0,0-6.369,1.061-7.961-2.123c-2.123-3.184-3.715-21.229-27.598-20.698
	c-0.531,0-10.615,3.184-16.452-6.899c-3.715-10.614-10.084-14.86-19.106-8.492c0,0-7.961,6.369,0.531,14.33
	c0,0,7.43,5.838,11.145,6.369c0,0,5.838,0,3.715,4.777c-1.592,4.777-6.899,11.676,3.184,16.452
	c4.777,0.531,10.615-4.246,10.615-4.246s6.369-7.43,13.799-2.654c7.43,4.777,10.084,10.084,9.553,18.045
	c-1.061,9.022-5.838,15.391-24.944,16.983c-1.592,0-16.452-1.061-24.944-14.33c-4.246-5.838-9.553-18.045-19.106-26.536
	c-6.899-5.838-16.452-10.084-27.067-7.961c0,0-4.246,0.531-3.184-5.307c1.061-5.838,4.246-24.413-11.145-31.843
	c-20.168-5.307-19.637,12.207-19.637,12.207s1.061,5.838,9.022,6.369c7.961,0.531,8.492,10.614,4.777,15.391
	c-2.123,2.654-21.76,20.698-39.804,37.151l-24.413-20.698l33.436-29.721L249.446,0l-42.989,37.151l33.436,29.19L215.48,87.039
	c-18.575-16.452-38.212-34.497-39.804-37.151c-3.715-5.307-3.184-14.86,4.777-15.391c7.961-0.531,9.022-6.369,9.022-6.369
	s0.531-17.514-20.168-12.207c-15.391,6.899-12.207,26.006-11.145,31.843s-2.654,5.307-2.654,5.307
	c-10.615-1.592-20.168,2.123-27.067,7.961c-9.022,7.961-14.33,20.168-18.575,26.536c-9.022,13.268-23.352,14.33-24.944,14.33
	c-18.575-1.061-23.883-7.43-24.413-16.983c-0.531-7.43,2.123-13.268,9.553-18.045c7.43-4.777,13.799,2.654,13.799,2.654
	s5.838,4.777,10.614,4.246c10.084-4.777,5.307-11.676,3.184-16.452c-2.654-4.246,2.654-4.777,2.654-4.777
	c3.715-0.531,11.145-6.369,11.145-6.369c8.492-7.961,0.531-14.33,0.531-14.33c-8.492-5.838-15.391-2.123-19.106,8.492
	c-5.838,10.084-15.922,7.43-16.452,6.899c-23.883-0.531-25.475,16.983-27.598,20.698c-1.592,3.184-7.961,2.123-7.961,2.123
	c-10.084-8.492-24.944-5.307-24.944-5.307s-20.698,5.838-15.922,21.76c6.369,14.86,17.514,5.307,17.514,5.307
	s4.246-7.961,9.022-9.553c8.492-2.123,14.86,7.961,14.86,7.961s13.268,19.637,27.067,26.006
	c31.843,7.961,46.704-16.452,46.704-16.452c7.43,13.799,20.698,16.983,20.698,16.983c19.106,6.899,30.251-10.084,26.536-18.575
	s-14.33-2.654-14.33-2.654c-7.43,7.961-15.922,0.531-15.922,0.531s-14.86-14.86,6.899-28.659
	c24.413-9.553,39.274,4.246,39.274,4.246l27.598,23.883l-15.391,12.737c-11.676,10.084-13.268,27.598-3.715,39.274
	c9.553,11.676,27.598,13.268,39.274,3.715l22.821-19.106l22.821,19.106c11.676,10.084,29.19,8.492,39.274-3.715
	c10.084-11.676,8.492-29.721-3.184-39.274L291.904,95l27.598-23.883c0,0,14.86-13.799,39.274-4.246
	c21.76,13.799,6.899,28.659,6.899,28.659s-8.492,7.43-15.922-0.531c0,0-10.614-5.838-14.86,2.654
	c-3.715,8.492,7.43,25.475,26.536,18.575c0,0,13.268-3.184,20.698-16.983c0,0,14.86,24.413,46.704,16.452
	c14.33-6.369,27.598-26.006,27.598-26.006s5.838-10.084,14.33-6.899c4.777,1.592,9.022,9.553,9.022,9.553s11.676,9.022,17.514-5.307
	C503.133,71.117,482.434,65.279,482.434,65.279L482.434,65.279z"/>
</svg>
