<?xml version="1.0" encoding="utf-8"?>
<!-- Generator: Adobe Illustrator 16.0.0, SVG Export Plug-In . SVG Version: 6.00 Build 0)  -->
<!DOCTYPE svg PUBLIC "-//W3C//DTD SVG 1.1//EN" "http://www.w3.org/Graphics/SVG/1.1/DTD/svg11.dtd">
<svg version="1.1" xmlns="http://www.w3.org/2000/svg" xmlns:xlink="http://www.w3.org/1999/xlink" x="0px" y="0px"
	 width="149.246px" height="115.341px" viewBox="0 0 149.246 115.341" enable-background="new 0 0 149.246 115.341"
	 xml:space="preserve">
<g id="background">
</g>
<g id="objects">
	<path fill="#C52A4F" d="M147.762,48.819c-2.165,10.757-12.05,19.652-14.66,31.252c-0.007,12.104,10.289,35.27,10.289,35.27
		c-17.3-6.167-29.619-19.092-34.487-24.871c-7.846-1.473-17.171-2.478-27.244-0.615c-21.099,3.902-46.445-2.6-62.625-5.009
		C2.855,82.436,0,55.85,0,45.75c0-10.099,17.131-26.477,17.131-26.477S50.107,4.455,63.765,1.396
		c17.895-4.009,23.692,1.589,58.054,4.63C153.182,8.8,150.37,35.863,147.762,48.819z"/>
	<path fill="#FFFFFF" d="M134.854,106.268l-1.317-0.937c-0.885-0.63-1.729-1.236-2.534-1.823l0.562-0.77
		c0.61,0.446,1.244,0.903,1.902,1.374l0.468-0.177c0.201,0.534,0.318,0.828,0.319,0.831L134.854,106.268z M127.779,101.109
		c-1.147-0.873-2.199-1.696-3.168-2.476l0.597-0.742c0.963,0.776,2.008,1.594,3.147,2.461L127.779,101.109z M131.682,100.474
		c-0.386-1.133-0.811-2.429-1.241-3.836l0.908-0.278c0.43,1.396,0.851,2.683,1.234,3.808L131.682,100.474z M121.524,96.054
		c-1.076-0.937-2.05-1.825-2.977-2.72l0.662-0.684c0.914,0.882,1.875,1.76,2.938,2.684L121.524,96.054z M129.323,92.765
		c-0.364-1.348-0.691-2.666-0.973-3.917l0.93-0.208c0.277,1.238,0.602,2.542,0.961,3.877L129.323,92.765z M115.735,90.441
		c-1.024-1.124-1.902-2.174-2.628-3.052l0.734-0.606c0.718,0.869,1.587,1.907,2.598,3.018L115.735,90.441z M127.568,84.884
		c-0.237-1.417-0.413-2.77-0.522-4.018l0.948-0.084c0.106,1.225,0.279,2.552,0.513,3.943L127.568,84.884z M110.654,84.78
		c-1.162-0.212-2.493-0.437-3.942-0.653l0.141-0.941c1.375,0.207,2.711,0.428,3.973,0.657L110.654,84.78z M67.873,84.478
		c-0.343,0-0.687-0.002-1.031-0.006l0.012-0.951c1.335,0.014,2.664,0.001,3.987-0.044l0.032,0.952
		C69.878,84.462,68.877,84.478,67.873,84.478z M62.814,84.351c-1.309-0.063-2.66-0.151-4.019-0.264l0.078-0.947
		c1.347,0.109,2.688,0.197,3.986,0.261L62.814,84.351z M74.9,84.189l-0.082-0.948c1.349-0.115,2.68-0.27,3.954-0.458l0.14,0.942
		C77.617,83.916,76.268,84.072,74.9,84.189z M54.791,83.705c-1.339-0.145-2.671-0.308-3.992-0.481l0.125-0.943
		c1.313,0.174,2.638,0.334,3.969,0.479L54.791,83.705z M102.749,83.589c-1.283-0.156-2.616-0.301-3.976-0.426l0.087-0.947
		c1.369,0.126,2.712,0.271,4.004,0.429L102.749,83.589z M82.863,83.09l-0.121-0.944c1.234-0.156,2.592-0.269,4.035-0.33l0.041,0.951
		C85.401,82.827,84.07,82.936,82.863,83.09z M94.79,82.863c-1.392-0.079-2.733-0.128-3.99-0.146l0.016-0.952
		c1.27,0.019,2.624,0.069,4.028,0.148L94.79,82.863z M46.821,82.659c-1.34-0.201-2.663-0.411-3.97-0.628l0.156-0.938
		c1.301,0.215,2.621,0.425,3.954,0.626L46.821,82.659z M38.894,81.357c-1.344-0.234-2.663-0.471-3.952-0.702l0.169-0.937
		c1.287,0.231,2.604,0.467,3.946,0.702L38.894,81.357z M30.994,79.948c-1.362-0.241-2.681-0.47-3.948-0.679l0.154-0.938
		c1.271,0.209,2.594,0.438,3.96,0.68L30.994,79.948z M23.062,78.598c-1.354-0.317-2.648-0.806-3.85-1.454l0.452-0.838
		c1.127,0.608,2.343,1.067,3.614,1.366L23.062,78.598z M128.098,76.97l-0.918-0.247c0.339-1.262,0.774-2.521,1.33-3.847l0.877,0.368
		C128.848,74.53,128.427,75.75,128.098,76.97z M15.877,74.735c-0.958-0.893-1.86-1.936-2.683-3.102l0.779-0.549
		c0.782,1.112,1.641,2.106,2.552,2.953L15.877,74.735z M131.098,69.667l-0.84-0.446c0.552-1.04,1.185-2.154,1.991-3.509l0.817,0.487
		C132.269,67.539,131.643,68.642,131.098,69.667z M11.129,68.111c-0.568-1.163-1.092-2.428-1.555-3.759l0.899-0.312
		c0.45,1.295,0.959,2.524,1.511,3.653L11.129,68.111z M135.146,62.774l-0.812-0.494c0.662-1.087,1.366-2.255,2.035-3.439
		l0.829,0.469C136.521,60.506,135.812,61.683,135.146,62.774z M8.432,60.46c-0.312-1.271-0.585-2.605-0.811-3.967l0.938-0.156
		c0.222,1.338,0.49,2.648,0.796,3.896L8.432,60.46z M139.062,55.717l-0.864-0.399c0.6-1.295,1.066-2.498,1.425-3.676l0.911,0.277
		C140.16,53.14,139.679,54.382,139.062,55.717z M7.097,52.479c-0.13-1.362-0.216-2.721-0.254-4.04l0.952-0.028
		c0.037,1.298,0.121,2.636,0.25,3.978L7.097,52.479z M141.424,47.955l-0.938-0.167c0.241-1.343,0.44-2.669,0.593-3.939l0.944,0.114
		C141.869,45.251,141.667,46.595,141.424,47.955z M8.084,44.554L7.16,44.327c0.29-1.183,0.772-2.478,1.432-3.848l0.857,0.412
		C8.818,42.204,8.358,43.436,8.084,44.554z M142.367,39.935l-0.95-0.047c0.036-0.765,0.057-1.54,0.057-2.324
		c0-0.545-0.01-1.095-0.03-1.646l0.951-0.036c0.021,0.564,0.031,1.125,0.031,1.682C142.426,38.363,142.405,39.155,142.367,39.935z
		 M11.384,37.435l-0.807-0.506c0.668-1.062,1.437-2.187,2.288-3.343l0.767,0.563C12.795,35.287,12.038,36.393,11.384,37.435z
		 M141.087,31.976c-0.197-1.346-0.473-2.644-0.82-3.856l0.914-0.262c0.36,1.253,0.646,2.593,0.849,3.981L141.087,31.976z
		 M16.086,31.002l-0.736-0.604c0.821-1.001,1.707-2.033,2.632-3.065l0.709,0.636C17.775,28.99,16.899,30.012,16.086,31.002z
		 M21.418,25.04l-0.685-0.662c1.038-1.07,1.69-1.694,1.69-1.694l0.134-0.09c0,0,0.546-0.245,1.521-0.677l0.386,0.87
		c-0.763,0.337-1.262,0.561-1.442,0.642C22.844,23.603,22.259,24.172,21.418,25.04z M138.896,24.438
		c-0.565-1.199-1.232-2.334-1.983-3.373l0.771-0.558c0.785,1.086,1.483,2.271,2.072,3.525L138.896,24.438z M28.146,21.175
		l-0.379-0.874c1.103-0.479,2.345-1.014,3.694-1.59l0.373,0.875C30.488,20.16,29.247,20.696,28.146,21.175z M134.323,18.144
		c-0.939-0.869-1.986-1.667-3.11-2.369l0.504-0.808c1.175,0.734,2.269,1.568,3.253,2.479L134.323,18.144z M35.532,18.022
		l-0.368-0.878c1.194-0.502,2.438-1.019,3.714-1.543l0.361,0.882C37.967,17.005,36.725,17.522,35.532,18.022z M42.958,14.972
		l-0.354-0.883c1.238-0.497,2.488-0.992,3.739-1.48l0.346,0.887C45.44,13.981,44.192,14.477,42.958,14.972z M127.723,13.979
		c-1.166-0.486-2.421-0.911-3.732-1.263l0.247-0.92c1.352,0.362,2.647,0.801,3.852,1.305L127.723,13.979z M50.433,12.06
		l-0.334-0.891c1.279-0.48,2.543-0.946,3.777-1.388l0.32,0.896C52.967,11.116,51.707,11.58,50.433,12.06z M120.121,11.906
		c-0.96-0.149-1.956-0.27-2.96-0.357c-1.382-0.122-2.713-0.248-3.996-0.38l0.097-0.946c1.279,0.13,2.605,0.257,3.983,0.378
		c1.024,0.091,2.041,0.213,3.022,0.365L120.121,11.906z M109.174,10.734c-1.387-0.161-2.714-0.326-3.984-0.49l0.122-0.944
		c1.268,0.164,2.589,0.329,3.972,0.488L109.174,10.734z M101.21,9.692c-1.393-0.204-2.713-0.407-3.968-0.608l0.15-0.94
		c1.252,0.201,2.567,0.404,3.955,0.606L101.21,9.692z M57.983,9.369l-0.3-0.903c1.402-0.465,2.699-0.869,3.854-1.202l0.264,0.914
		C60.659,8.508,59.374,8.909,57.983,9.369z M93.283,8.426l-3.948-0.685l0.162-0.938l3.948,0.684L93.283,8.426z M65.661,7.203
		l-0.197-0.932c1.395-0.294,2.696-0.523,3.982-0.698l0.128,0.942C68.312,6.688,67.032,6.913,65.661,7.203z M85.39,7.075
		C83.865,6.829,82.61,6.65,81.442,6.51l0.113-0.944c1.181,0.142,2.448,0.322,3.985,0.568L85.39,7.075z M77.485,6.166
		c-0.706-0.034-1.423-0.068-2.122-0.052c-0.608,0-1.22,0.014-1.839,0.04l-0.043-0.949c0.652-0.029,1.271-0.042,1.933-0.042
		c0.708,0,1.413,0.019,2.118,0.053L77.485,6.166z"/>
</g>
</svg>
