<?xml version="1.0" encoding="iso-8859-1"?>
<!-- Generator: Adobe Illustrator 17.0.0, SVG Export Plug-In . SVG Version: 6.00 Build 0)  -->
<!DOCTYPE svg PUBLIC "-//W3C//DTD SVG 1.1//EN" "http://www.w3.org/Graphics/SVG/1.1/DTD/svg11.dtd">
<svg version="1.1" xmlns="http://www.w3.org/2000/svg" xmlns:xlink="http://www.w3.org/1999/xlink" x="0px" y="0px" width="128px"
	 height="128px" viewBox="0 0 128 128" style="enable-background:new 0 0 128 128;" xml:space="preserve">
<g id="icons">
	<g>
		<circle style="fill:#88C5CC;" cx="64" cy="64" r="64"/>
		<g>
			<path style="fill:#F5F5F5;" d="M58,16h40c1.1,0,2.073,0.9,2.073,2v78c0,1.1-0.973,2-2.073,2H40c-1.1,0-1.927-0.9-1.927-2V37
				L58,16z"/>
			<path style="fill:#E6E6E6;" d="M83,22H52.286L38.073,37v59c0,1.1,0.827,2,1.927,2h47.073V26C87.073,23.794,85.206,22,83,22z"/>
			<path style="fill:#E6E6E6;" d="M56,37c1.1,0,2.073-0.9,2.073-2V16L38,37H56z"/>
			<g>
				<path style="fill:#F5F5F5;" d="M43,24h40c1.1,0,2.073,0.9,2.073,2v78c0,1.1-0.973,2-2.073,2H25c-1.1,0-1.927-0.9-1.927-2V45
					L43,24z"/>
				<path style="fill:#E6E6E6;" d="M41,45c1.1,0,2.073-0.9,2.073-2V24L23,45H41z"/>
				<g>
					<rect x="56.073" y="35" style="fill:#E6E6E6;" width="23" height="4"/>
					<rect x="48.073" y="43" style="fill:#E6E6E6;" width="31" height="4"/>
					<rect x="28.073" y="51" style="fill:#E6E6E6;" width="51" height="4"/>
					<rect x="28.073" y="60" style="fill:#E6E6E6;" width="51" height="4"/>
					<rect x="28.073" y="69" style="fill:#E6E6E6;" width="51" height="4"/>
					<rect x="28.073" y="78" style="fill:#E6E6E6;" width="51" height="4"/>
					<rect x="28.073" y="87" style="fill:#E6E6E6;" width="43" height="4"/>
				</g>
			</g>
		</g>
	</g>
</g>
<g id="header">
</g>
</svg>
