<?xml version="1.0" encoding="utf-8"?>
<!-- Generator: Adobe Illustrator 17.0.0, SVG Export Plug-In . SVG Version: 6.00 Build 0)  -->
<!DOCTYPE svg PUBLIC "-//W3C//DTD SVG 1.1//EN" "http://www.w3.org/Graphics/SVG/1.1/DTD/svg11.dtd">
<svg version="1.1" id="图层_1" xmlns="http://www.w3.org/2000/svg" xmlns:xlink="http://www.w3.org/1999/xlink" x="0px" y="0px"
	 width="64px" height="64px" viewBox="0 0 64 64" enable-background="new 0 0 64 64" xml:space="preserve">
<path fill="#E0995E" d="M32,0c17.673,0,32,14.327,32,32S49.673,64,32,64S0,49.673,0,32S14.327,0,32,0z"/>
<path opacity="0.2" fill="#231F20" d="M36,23v-9H19c-1.657,0-3,1.343-3,3v34c0,1.657,1.343,3,3,3h26c1.657,0,3-1.343,3-3V26h-9
	C37.343,26,36,24.657,36,23z"/>
<path fill="#E0E0D1" d="M36,21v-9H19c-1.657,0-3,1.343-3,3v34c0,1.657,1.343,3,3,3h26c1.657,0,3-1.343,3-3V24h-9
	C37.343,24,36,22.657,36,21z"/>
<path fill="#FFFFFF" d="M36,12v9c0,1.657,1.343,3,3,3h9L36,12z"/>
<path opacity="0.2" fill="#231F20" d="M37.016,23.294L48,33v-9L37.016,23.294z M22,22h9.625v2H22V22z M22,32h20v2H22V32z M22,27h20
	v2H22V27z M22,37h20v2H22V37z M22,42h20v2H22V42z"/>
</svg>
