<?xml version="1.0" encoding="utf-8"?>
<!-- Generator: Adobe Illustrator 17.0.0, SVG Export Plug-In . SVG Version: 6.00 Build 0)  -->
<!DOCTYPE svg PUBLIC "-//W3C//DTD SVG 1.1//EN" "http://www.w3.org/Graphics/SVG/1.1/DTD/svg11.dtd">
<svg version="1.1"
	 id="svg2" xmlns:svg="http://www.w3.org/2000/svg" inkscape:export-xdpi="521" inkscape:export-filename="C:\Dokumente und Einstellungen\jischa\Desktop\symbole verkehr v4 2.png" xmlns:inkscape="http://www.inkscape.org/namespaces/inkscape" xmlns:rdf="http://www.w3.org/1999/02/22-rdf-syntax-ns#" xmlns:cc="http://creativecommons.org/ns#" xmlns:dc="http://purl.org/dc/elements/1.1/" xmlns:sodipodi="http://sodipodi.sourceforge.net/DTD/sodipodi-0.dtd" inkscape:export-ydpi="521" sodipodi:docname="symbole verkehr v 5 1.svg" inkscape:version="0.48.0 r9654"
	 xmlns="http://www.w3.org/2000/svg" xmlns:xlink="http://www.w3.org/1999/xlink" x="0px" y="0px" width="150.647px"
	 height="37.689px" viewBox="0 0 150.647 37.689" enable-background="new 0 0 150.647 37.689" xml:space="preserve">
<path id="path6540" inkscape:connector-curvature="0" sodipodi:nodetypes="ssssssssssscssscccsssscsscsssssscssssssssssssssscssssscccccccsscsscscscccccccssssccccccssccccsccsccccsscccccccsccscsssccccccccccsscccsscscssssscssccscscscssccccccccc" fill="#08A1EF" d="
	M98.248,37.529c-3.537-0.896-5.323-4.854-3.693-8.184c0.393-0.802,1.639-2.04,2.448-2.432c2.334-1.129,4.882-0.719,6.68,1.073
	c2.939,2.932,1.753,8.02-2.191,9.387C100.63,37.672,99.104,37.746,98.248,37.529z M100.737,36.222
	c1.662-0.433,2.902-1.785,3.224-3.514c0.465-2.497-1.479-4.946-4.044-5.095c-2.673-0.154-4.77,1.907-4.652,4.574
	C95.387,34.983,98.026,36.928,100.737,36.222z M136.797,37.583c-2.882-0.577-4.941-3.449-4.53-6.316
	c0.484-3.371,3.573-5.55,6.888-4.859c1.379,0.288,2.762,1.266,3.583,2.534c1.164,1.797,1.164,4.3,0,6.099
	C141.47,37.001,139.053,38.035,136.797,37.583L136.797,37.583L136.797,37.583z M139.789,35.996c2.546-1.194,3.354-4.379,1.685-6.645
	c-0.977-1.327-2.602-1.995-4.243-1.743c-2.239,0.344-3.909,2.451-3.72,4.694c0.15,1.771,1.149,3.105,2.868,3.829
	c0.552,0.231,0.768,0.262,1.666,0.232C138.929,36.334,139.181,36.281,139.789,35.996L139.789,35.996z M59.671,37.459
	c-0.299-0.057-0.959-0.302-1.467-0.546c-2.807-1.349-4.229-4.69-3.246-7.626c0.723-2.155,2.535-3.785,4.727-4.25
	c3.904-0.827,7.635,2.2,7.643,6.203c0,0.922-0.315,2.238-0.727,3.013c-0.459,0.865-1.897,2.253-2.758,2.661
	C62.539,37.533,61.079,37.724,59.671,37.459z M62.52,35.84c1.314-0.444,2.484-1.538,2.972-2.78c0.341-0.869,0.412-2.405,0.149-3.21
	c-0.958-2.93-4.196-4.286-6.919-2.897c-0.626,0.319-1.62,1.294-1.963,1.924c-1.472,2.703-0.221,5.882,2.749,6.989
	C60.231,36.135,61.683,36.123,62.52,35.84L62.52,35.84z M14.047,37.264c-1.933-0.418-3.61-1.709-4.438-3.415
	c-0.486-1.004-0.655-1.755-0.651-2.89c0.014-3.279,2.55-5.988,5.853-6.252c3.017-0.241,5.883,1.85,6.635,4.839
	c0.238,0.948,0.163,2.627-0.158,3.523c-0.672,1.875-2.225,3.412-4.028,3.985C16.466,37.308,14.763,37.418,14.047,37.264z
	 M16.728,35.642c0.881-0.303,1.192-0.487,1.867-1.104c1.331-1.216,1.844-3.229,1.285-5.048c-0.31-1.009-1.257-2.148-2.236-2.691
	c-2.851-1.58-6.403,0.041-7.098,3.237c-0.532,2.453,0.919,4.874,3.393,5.659C14.614,35.91,16.03,35.882,16.728,35.642L16.728,35.642
	z M83.297,31.013v-2.444h-2.715h-2.716v0.416V29.4l-2.092,0.722c-2.905,1.002-2.72,0.965-5.148,1.025l-2.188,0.054l-0.076-0.474
	c-0.314-1.978-0.928-3.388-2.028-4.661l-0.747-0.864h5.97c4.268,0,5.991,0.034,6.045,0.121c0.041,0.066,0.105,0.494,0.142,0.95
	l0.067,0.83l2.743,0.028l2.743,0.029v-0.979v-0.98l7.251,0.004l7.251,0.005l-0.591,0.213c-0.92,0.33-1.727,0.856-2.501,1.631
	c-0.82,0.82-1.313,1.603-1.72,2.729c-0.255,0.708-0.287,0.959-0.291,2.236l-0.011,1.439h-4.698h-4.698v-2.444L83.297,31.013z
	 M106.57,32.833c0.177-1.093-0.041-2.492-0.574-3.687c-0.758-1.694-2.07-2.959-3.797-3.653l-0.706-0.285h17.273h17.271l-0.614,0.253
	c-1.023,0.421-1.63,0.828-2.436,1.635c-1.377,1.376-2.005,2.91-2.009,4.903c0,0.601,0.031,1.176,0.068,1.276
	c0.065,0.172-0.727,0.184-12.254,0.184h-12.324L106.57,32.833L106.57,32.833z M144.866,32.384c0.15-3.118-1.613-5.837-4.524-6.976
	c-0.496-0.194-0.43-0.197,4.901-0.202l5.404-0.005v4.128v4.128h-2.916h-2.917L144.866,32.384L144.866,32.384z M2.967,31.045
	c-1.613-0.177-2.947-0.336-2.966-0.354c-0.037-0.037,1.62-11.171,1.672-11.233c0.018-0.022,1.821-0.269,4.006-0.549
	c2.184-0.28,4.013-0.556,4.064-0.612c0.052-0.056,0.956-2.351,2.009-5.099c2.081-5.43,2.268-5.861,2.675-6.158
	c0.564-0.411,2.203-0.588,10.32-1.116c1.403-0.092,2.883-0.195,3.286-0.232l0.732-0.066V2.814V0h24.551h24.55v11.732v11.732H53.71
	H29.554l-0.068,0.339c-0.037,0.186-0.068,0.578-0.068,0.869v0.529h13.266h13.265l-0.656,0.702c-1.069,1.143-1.747,2.526-2.076,4.24
	l-0.188,0.978l-12.701,0.031c-14.704,0.037-16.704-0.032-17.34-0.598c-0.103-0.091-0.219-0.392-0.259-0.669
	c-0.1-0.69-0.609-2.064-1.074-2.895c-1.452-2.598-5.183-4.052-8.259-3.221c-1.823,0.492-3.476,1.664-4.391,3.113
	c-0.561,0.888-0.793,1.477-1.141,2.894c-0.34,1.389-0.544,1.622-1.399,1.602C6.154,31.372,4.579,31.222,2.967,31.045L2.967,31.045z
	 M17.367,17.716c1.997-0.233,4.256-0.486,5.02-0.562c0.955-0.095,1.429-0.188,1.52-0.299c0.099-0.118,0.143-1.195,0.168-4.125
	l0.034-3.966l-1.881,0.075c-3.166,0.127-6.858,0.492-7.066,0.699c-0.268,0.27-2.506,6.07-2.871,7.444l-0.197,0.744l0.255,0.206
	C12.71,18.226,13.179,18.206,17.367,17.716L17.367,17.716z M83.297,11.787V0.109h33.675h33.675v11.678v11.677h-33.675H83.297V11.787
	z"/>
</svg>
