<?xml version="1.0" encoding="utf-8"?>
<!-- Generator: Adobe Illustrator 17.0.0, SVG Export Plug-In . SVG Version: 6.00 Build 0)  -->
<!DOCTYPE svg PUBLIC "-//W3C//DTD SVG 1.1//EN" "http://www.w3.org/Graphics/SVG/1.1/DTD/svg11.dtd">
<svg version="1.1" id="图层_1" xmlns="http://www.w3.org/2000/svg" xmlns:xlink="http://www.w3.org/1999/xlink" x="0px" y="0px"
	 width="64px" height="64px" viewBox="0 0 64 64" enable-background="new 0 0 64 64" xml:space="preserve">
<path fill="#76C2AF" d="M32,0c17.673,0,32,14.327,32,32S49.673,64,32,64S0,49.673,0,32S14.327,0,32,0z"/>
<path opacity="0.2" fill="#231F20" d="M49.899,46.243L35.757,32.1c-1.031-1.031-2.481-1.367-3.799-1.037l-8.093-7.993l-3.037-5.898
	l-5.911-3.044l-2.867,2.867l3.044,5.911l5.911,3.044l0.008-0.008l8.066,7.966c-0.351,1.331-0.021,2.805,1.022,3.849l14.142,14.142
	c1.562,1.562,4.095,1.562,5.657,0C51.462,50.337,51.462,47.805,49.899,46.243z M53.304,18.353l-6.476,6.476
	c-1.562,1.562-4.095,1.562-5.657,0s-1.562-4.095,0-5.657l6.476-6.476C46.516,12.252,45.289,12,44,12c-5.523,0-10,4.477-10,10
	c0,1.289,0.252,2.516,0.696,3.647L23.647,36.696C22.516,36.252,21.289,36,20,36c-5.523,0-10,4.477-10,10
	c0,1.289,0.252,2.516,0.696,3.647l6.476-6.476c1.562-1.562,4.095-1.562,5.657,0s1.562,4.095,0,5.657l-6.476,6.476
	C17.484,55.748,18.711,56,20,56c5.523,0,10-4.477,10-10c0-1.289-0.252-2.516-0.696-3.647l11.049-11.049
	C41.484,31.748,42.711,32,44,32c5.523,0,10-4.477,10-10C54,20.711,53.748,19.484,53.304,18.353z"/>
<path fill="#4F5D73" d="M34.499,37.263L18.397,21.359l2.934-2.792l16.102,15.904L34.499,37.263z M21.005,23.95l-5.911-3.044
	l-3.044-5.911l2.867-2.867l5.911,3.044l3.044,5.911L21.005,23.95z"/>
<path fill="#F5CF87" d="M49.899,49.899c-1.562,1.562-4.095,1.562-5.657,0L30.101,35.757c-1.562-1.562-1.562-4.095,0-5.657l0,0
	c1.562-1.562,4.095-1.562,5.657,0L49.9,44.242C51.462,45.805,51.462,48.337,49.899,49.899L49.899,49.899z"/>
<path fill="#FFFFFF" d="M54,20c0,5.523-4.477,10-10,10c-1.289,0-2.516-0.252-3.647-0.696L29.304,40.353
	C29.748,41.484,30,42.711,30,44c0,5.523-4.477,10-10,10c-1.289,0-2.516-0.252-3.647-0.695l6.476-6.476
	c1.562-1.562,1.562-4.095,0-5.657c-1.562-1.562-4.095-1.562-5.657,0l-6.476,6.475C10.252,46.516,10,45.289,10,44
	c0-5.523,4.477-10,10-10c1.288,0,2.516,0.252,3.647,0.696l11.049-11.049C34.252,22.516,34,21.288,34,20c0-5.523,4.477-10,10-10
	c1.289,0,2.516,0.252,3.647,0.695l-6.476,6.476c-1.562,1.562-1.562,4.095,0,5.657c1.562,1.562,4.095,1.562,5.657,0l6.476-6.475
	C53.748,17.484,54,18.711,54,20z"/>
</svg>
