<?xml version="1.0" encoding="iso-8859-1"?>
<!-- Generator: Adobe Illustrator 17.0.0, SVG Export Plug-In . SVG Version: 6.00 Build 0)  -->
<!DOCTYPE svg PUBLIC "-//W3C//DTD SVG 1.1//EN" "http://www.w3.org/Graphics/SVG/1.1/DTD/svg11.dtd">
<svg version="1.1" id="Items" xmlns="http://www.w3.org/2000/svg" xmlns:xlink="http://www.w3.org/1999/xlink" x="0px" y="0px"
	 width="81.649px" height="166.441px" viewBox="0 0 81.649 166.441" style="enable-background:new 0 0 81.649 166.441;"
	 xml:space="preserve">
<g id="iPhone_x5F_Black">
	<path style="opacity:0.1;" d="M81.646,154.884V25.749v-0.472v-2.174c0-2.993-1.305-5.423-2.769-7.965l-4.172-6.732l-4.127-0.251
		c-1.135-0.382-2.346-0.597-3.608-0.597h-0.224c-0.015-0.017-0.032-0.031-0.051-0.044c-0.018-0.026-0.039-0.048-0.065-0.065
		c-0.018-0.026-0.039-0.048-0.065-0.065c-0.018-0.026-0.039-0.048-0.065-0.065c-0.017-0.026-0.039-0.048-0.065-0.065
		c-0.018-0.026-0.039-0.048-0.065-0.065c-0.017-0.026-0.039-0.048-0.065-0.065c-0.018-0.026-0.039-0.048-0.065-0.065
		c-0.017-0.026-0.039-0.048-0.065-0.065c-0.017-0.026-0.039-0.048-0.065-0.065c-0.017-0.026-0.039-0.048-0.065-0.065
		c-0.018-0.026-0.039-0.048-0.065-0.065c-0.017-0.026-0.039-0.048-0.065-0.065c-0.043-0.064-0.112-0.109-0.194-0.109H53.986
		c-0.13,0-0.237,0.107-0.237,0.237v0.459v0.237H15.256c-6.263,0-11.357,5.095-11.357,11.358v9.269H3.662H3.203
		c-0.13,0-0.237,0.107-0.237,0.237v6.69c0,0.082,0.045,0.151,0.108,0.194c0.018,0.026,0.039,0.047,0.065,0.065
		c0.017,0.026,0.039,0.048,0.065,0.065C3.222,35.46,3.243,35.482,3.27,35.5c0.017,0.026,0.039,0.048,0.065,0.065
		c0.017,0.026,0.039,0.047,0.065,0.065c0.017,0.026,0.039,0.048,0.065,0.065c0.017,0.026,0.039,0.048,0.065,0.065
		c0.017,0.026,0.039,0.048,0.065,0.065c0.017,0.026,0.039,0.048,0.065,0.065c0.017,0.026,0.039,0.048,0.065,0.065
		c0.017,0.026,0.039,0.048,0.065,0.065c0.017,0.026,0.039,0.048,0.065,0.065c0.013,0.019,0.026,0.036,0.044,0.051v6.774H3.662H3.203
		c-0.13,0-0.237,0.107-0.237,0.237v4.863c0,0.082,0.045,0.151,0.108,0.194c0.018,0.026,0.039,0.048,0.065,0.065
		c0.017,0.026,0.039,0.048,0.065,0.065c0.017,0.026,0.039,0.048,0.065,0.065c0.017,0.026,0.039,0.047,0.065,0.065
		c0.017,0.026,0.039,0.048,0.065,0.065c0.017,0.026,0.039,0.048,0.065,0.065c0.017,0.026,0.039,0.048,0.065,0.065
		c0.017,0.026,0.039,0.048,0.065,0.065c0.017,0.026,0.039,0.048,0.065,0.065c0.017,0.026,0.039,0.048,0.065,0.065
		c0.017,0.026,0.039,0.048,0.065,0.065c0.017,0.026,0.039,0.048,0.065,0.065c0.013,0.019,0.026,0.036,0.044,0.051v6.92H3.662H3.203
		c-0.13,0-0.237,0.106-0.237,0.237v4.863c0,0.082,0.045,0.151,0.109,0.194c0.017,0.026,0.039,0.048,0.065,0.065
		c0.017,0.026,0.039,0.047,0.065,0.065c0.017,0.026,0.039,0.048,0.065,0.065c0.017,0.026,0.039,0.048,0.065,0.065
		c0.017,0.026,0.039,0.048,0.065,0.065c0.017,0.026,0.039,0.048,0.065,0.065c0.018,0.026,0.039,0.048,0.065,0.065
		c0.017,0.026,0.039,0.048,0.065,0.065c0.017,0.026,0.039,0.048,0.065,0.065c0.017,0.026,0.039,0.048,0.065,0.065
		c0.017,0.026,0.039,0.048,0.065,0.065c0.017,0.026,0.039,0.048,0.065,0.065c0.013,0.019,0.026,0.036,0.044,0.051v90.672
		l-0.25,0.996c0,0,7.718,10.74,8.961,11.982c1.518,1.518,3.648,2.018,5.964,2.018h49.892c6.667,0,13.175-5.712,13.175-12.392h0.008
		v-0.472H81.646z"/>
	<path style="fill:#5C5C5C;" d="M12.29,157.827c-6.263,0-11.357-5.095-11.357-11.358V12.311c0-6.263,5.095-11.358,11.357-11.358
		h51.713c6.263,0,11.358,5.095,11.358,11.358v134.158c0,6.263-5.095,11.358-11.358,11.358H12.29z"/>
	<path style="fill:#171717;" d="M12.29,157.118c-5.872,0-10.649-4.777-10.649-10.649V12.311c0-5.872,4.777-10.649,10.649-10.649
		h51.713c5.872,0,10.649,4.777,10.649,10.649v134.158c0,5.872-4.777,10.649-10.649,10.649H12.29z"/>
	<g>
		<circle style="fill:#2F2E30;" cx="38.147" cy="9.047" r="2.06"/>
		<circle style="fill:#4D4D4D;" cx="38.147" cy="9.047" r="1.177"/>
	</g>
	<g>
		<path style="fill:#2F2E30;" d="M43.424,13.583H32.84c-0.883,0-1.599,0.716-1.599,1.599c0,0.883,0.716,1.599,1.599,1.599h10.584
			c0.883,0,1.599-0.716,1.599-1.599C45.022,14.299,44.307,13.583,43.424,13.583z"/>
		<path style="fill:#4D4D4D;" d="M32.84,16.095c-0.504,0-0.914-0.41-0.914-0.913c0-0.504,0.41-0.913,0.914-0.913h10.584
			c0.504,0,0.913,0.41,0.913,0.913c0,0.504-0.41,0.913-0.913,0.913H32.84z"/>
		<g>
			<path style="fill:#2F2E30;" d="M27.273,13.583h0.009c-0.883,0-1.599,0.716-1.599,1.599c0,0.883,0.716,1.599,1.599,1.599h-0.009
				c0.883,0,1.599-0.716,1.599-1.599C28.871,14.299,28.156,13.583,27.273,13.583z"/>
			<path style="fill:#4D4D4D;" d="M27.282,16.095c-0.504,0-0.913-0.41-0.913-0.913c0-0.504,0.41-0.913,0.913-0.913h-0.009
				c0.504,0,0.913,0.41,0.913,0.913c0,0.504-0.41,0.913-0.913,0.913H27.282z"/>
		</g>
	</g>
	<path style="fill:#3C3B3D;" d="M38.146,139.293c-3.915,0-7.091,3.176-7.091,7.091c0,3.917,3.176,7.093,7.091,7.093
		c3.917,0,7.093-3.176,7.093-7.093C45.24,142.469,42.064,139.293,38.146,139.293z M38.146,153.003c-3.65,0-6.617-2.97-6.617-6.619
		c0-3.648,2.967-6.617,6.617-6.617c3.65,0,6.619,2.969,6.619,6.617C44.766,150.033,41.796,153.003,38.146,153.003z"/>
	<rect x="6.349" y="23.348" style="fill:#F56547;" width="63.167" height="112.505"/>
	<g>
		<rect x="74.657" y="146.177" style="fill:#1C1C1C;" width="0.708" height="0.472"/>
		<rect x="0.933" y="146.149" style="fill:#1C1C1C;" width="0.708" height="0.472"/>
		<rect x="74.653" y="14.485" style="fill:#1C1C1C;" width="0.709" height="0.472"/>
	</g>
	<path style="fill:#5C5C5C;" d="M62.991,0.258c0-0.13-0.107-0.237-0.237-0.237H51.02c-0.13,0-0.237,0.107-0.237,0.237v0.696h12.209
		V0.258z"/>
	<rect x="50.783" y="0.717" style="opacity:0.1;" width="12.209" height="0.237"/>
	<path style="fill:#5C5C5C;" d="M0.237,36.306C0.107,36.306,0,36.412,0,36.543v4.863c0,0.13,0.107,0.237,0.237,0.237h0.696v-5.337
		H0.237z"/>
	<rect x="0.696" y="36.306" style="opacity:0.1;" width="0.237" height="5.337"/>
	<path style="fill:#5C5C5C;" d="M0.237,21.58C0.107,21.58,0,21.687,0,21.817v6.69c0,0.13,0.107,0.237,0.237,0.237h0.696V21.58H0.237
		z"/>
	<rect x="0.696" y="21.58" style="opacity:0.1;" width="0.237" height="7.164"/>
	<path style="fill:#5C5C5C;" d="M0.237,49.351C0.107,49.351,0,49.458,0,49.588v4.863c0,0.13,0.107,0.237,0.237,0.237h0.696v-5.337
		H0.237z"/>
	<rect x="0.696" y="49.351" style="opacity:0.1;" width="0.237" height="5.337"/>
	<path style="opacity:0.05;fill:#FFFFFF;" d="M12.29,1.662c-5.872,0-10.649,4.777-10.649,10.649v134.158
		c0,4.132,2.37,7.713,5.818,9.478L42.375,1.662H12.29z"/>
</g>
</svg>
