<?xml version="1.0" encoding="utf-8"?>
<!-- Generator: Adobe Illustrator 17.0.0, SVG Export Plug-In . SVG Version: 6.00 Build 0)  -->
<!DOCTYPE svg PUBLIC "-//W3C//DTD SVG 1.1//EN" "http://www.w3.org/Graphics/SVG/1.1/DTD/svg11.dtd">
<svg version="1.1" id="图层_1" xmlns="http://www.w3.org/2000/svg" xmlns:xlink="http://www.w3.org/1999/xlink" x="0px" y="0px"
	 width="191.839px" height="51.771px" viewBox="0 0 191.839 51.771" enable-background="new 0 0 191.839 51.771"
	 xml:space="preserve">
<path fill="#050505" d="M95.882,0.33l43.082-0.013c7.839-0.263,12.847,4.389,15.087,10.427l7.18,16.16l12.776-26.1h6.01
	c0,0-16.813,38.454-18.993,37.604c-2.707-1.056-12.938-25.415-12.938-25.415c-1.606-3.532-4.45-6.606-8.456-6.957L95.882,5.743
	C93.863,4.963,94.069,1.201,95.882,0.33z M95.377,16.737h12.569l0.001,31.538c1.468,2.667,5.32,2.77,7.155,0.27V11.11H95.377
	C93.542,12.254,93.725,15.729,95.377,16.737z M135.809,16.755c1.07,0.091,1.881,1.26,2.324,2.124l13.521,28.227
	c4.73,7.127,15.749,6.026,19.419-2.882l20.767-43.421h-6.117l-20.033,41.87c-1.59,3.732-6.851,4.099-8.899,1.499
	c-0.662-0.841-10.044-21.207-13.488-28.23c-1.483-3.026-2.998-5.047-5.628-4.847l-14.404,0.016c-1.101,0-2.305,0.697-2.318,2.478
	l-0.022,36.203c1.075,1.329,5.646,1.205,6.835-0.022l0.031-33.031L135.809,16.755z M42.221,44.967c0,0-17.741,0.12-18.992-0.214
	c-7.095-1.897-10.639-5.752-12.904-8.946c-2.001-2.845-3.183-6.122-3.183-10.347s1.283-8.324,3.303-11.107
	c2.267-3.112,7.441-8.123,11.989-8.441c5.018-0.351,19.592-0.307,19.592-0.307c1.93-0.459,1.969-4.588-0.019-5.537
	c0,0-15.134-0.483-20.146,0.009C15.292,0.722,9.272,5.254,5.52,9.83C1.997,14.076,0,19.485,0,25.79
	c0,6.308,2.193,11.252,5.427,15.633c4.039,5.47,10.888,8.773,17.791,9.41c4.734,0.437,19.017,0.001,19.017,0.001
	C43.587,49.769,43.833,45.9,42.221,44.967z M42.651,34.336c0,0-11.709,0.188-15.604-0.016c-5.175-0.27-7.365-5.775-7.365-8.967
	c0-2.681,2.19-9.165,7.919-9.097c3.899,0.046,15.052,0.001,15.052,0.001c1.925-1.292,1.195-4.228,0-5.372
	c0,0-14.318,0.016-16.057,0.012c-4.11-0.01-8.264,3.237-10.19,5.899c-1.907,2.634-3.027,5.818-3.027,9.175
	c0,4.313,2.942,12.116,11.288,13.664c4.392,0.815,17.866,0.129,17.866,0.129C44.577,38.759,43.934,34.691,42.651,34.336z"/>
<path fill="#ED1B23" d="M88.478,50.854c0,0-14.282,0.436-19.017-0.001c-6.903-0.639-13.753-3.942-17.791-9.41
	c-3.236-4.381-5.427-9.326-5.427-15.633s1.997-11.715,5.52-15.962c3.752-4.576,9.773-9.108,16.341-9.754
	c5.012-0.492,20.146-0.009,20.146-0.009c1.988,0.951,1.95,5.079,0.019,5.539c0,0-14.575-0.046-19.594,0.305
	c-4.546,0.319-9.721,5.329-11.989,8.441c-2.02,2.783-3.303,6.882-3.303,11.106c0,4.225,1.182,7.503,3.183,10.347
	c2.265,3.194,5.809,7.049,12.904,8.946c1.252,0.336,18.992,0.214,18.992,0.214C90.076,45.916,89.83,49.787,88.478,50.854z
	 M89.383,34.336c0,0-11.709,0.188-15.604-0.016c-5.175-0.27-7.365-5.775-7.365-8.967c0-2.681,2.19-9.165,7.919-9.097
	c3.899,0.046,15.052,0.001,15.052,0.001c1.926-1.292,1.195-4.228,0-5.372c0,0-14.318,0.016-16.057,0.012
	c-4.11-0.01-8.264,3.237-10.19,5.899c-1.907,2.634-3.027,5.818-3.027,9.175c0,4.313,2.942,12.116,11.289,13.664
	c4.392,0.815,17.866,0.129,17.866,0.129C91.309,38.759,90.667,34.691,89.383,34.336z"/>
</svg>
