<?xml version="1.0" encoding="utf-8"?>
<!-- Generator: Adobe Illustrator 16.0.0, SVG Export Plug-In . SVG Version: 6.00 Build 0)  -->
<!DOCTYPE svg PUBLIC "-//W3C//DTD SVG 1.1//EN" "http://www.w3.org/Graphics/SVG/1.1/DTD/svg11.dtd">
<svg version="1.1" id="图层_1" xmlns="http://www.w3.org/2000/svg" xmlns:xlink="http://www.w3.org/1999/xlink" x="0px" y="0px"
	 width="612px" height="610.572px" viewBox="0 0 612 610.572" enable-background="new 0 0 612 610.572" xml:space="preserve">
<path fill="#08A1EF" d="M440.921,0H173.862L0,173.464v264.347l172.473,172.761h265.665L612,437.112V172.07L440.921,0L440.921,0
	L440.921,0z M559.146,413.526L414.492,557.839H197.508L52.857,414.222V197.05L197.512,53.433h219.764l141.872,142.232v217.861
	H559.146L559.146,413.526z M176.061,235.903L176.061,235.903l55.636-148.476h61.896v434.33h-58.418V236.594l-52.158,135.987
	l-45.901-101.989v179.003l-52.853-53.424V212.312l54.94-51.345L176.061,235.903L176.061,235.903z M334.444,87.427L334.444,87.427
	h68.156l125.184,126.97v48.566h-52.856v-20.816l-82.063-85.337v295.563l0,0c0,0,70.241-68.683,77.196-77.011
	s6.257-19.427-3.481-18.041l0,0h-36.163v-52.734h97.365v91.586l-126.576,125.58h-66.76L334.444,87.427L334.444,87.427z"/>
</svg>
