<?xml version="1.0" encoding="iso-8859-1"?>
<!-- Generator: Adobe Illustrator 17.0.0, SVG Export Plug-In . SVG Version: 6.00 Build 0)  -->
<!DOCTYPE svg PUBLIC "-//W3C//DTD SVG 1.1//EN" "http://www.w3.org/Graphics/SVG/1.1/DTD/svg11.dtd">
<svg version="1.1" xmlns="http://www.w3.org/2000/svg" xmlns:xlink="http://www.w3.org/1999/xlink" x="0px" y="0px" width="128px"
	 height="128px" viewBox="0 0 128 128" style="enable-background:new 0 0 128 128;" xml:space="preserve">
<g id="Layer_1">
</g>
<g id="Layer_2">
	<g>
		<circle style="fill:#88C5CC;" cx="64" cy="64" r="64"/>
		<path style="fill:#80B9BF;" d="M120.363,94.334c-0.019-0.046-0.036-0.094-0.056-0.14c-0.069-0.184-0.143-0.367-0.222-0.548
			c-0.06-0.16-0.124-0.318-0.192-0.477c-0.068-0.185-0.142-0.367-0.222-0.549c-0.06-0.16-0.123-0.318-0.192-0.476
			c-0.068-0.183-0.141-0.364-0.22-0.545c-0.06-0.16-0.124-0.318-0.192-0.477c-0.069-0.187-0.144-0.372-0.225-0.556
			c-0.059-0.158-0.122-0.314-0.189-0.47c-0.069-0.187-0.144-0.371-0.225-0.555c-0.059-0.158-0.122-0.314-0.189-0.47
			c-0.069-0.187-0.144-0.371-0.225-0.556c-0.059-0.155-0.121-0.311-0.188-0.464c-0.07-0.188-0.145-0.375-0.227-0.561
			c-0.059-0.157-0.122-0.313-0.189-0.469c-0.069-0.186-0.144-0.37-0.224-0.553c-0.06-0.16-0.124-0.318-0.192-0.477
			c-0.068-0.184-0.142-0.366-0.222-0.548c-0.06-0.16-0.124-0.319-0.192-0.476c-0.068-0.183-0.141-0.364-0.22-0.544
			c-0.06-0.161-0.124-0.321-0.194-0.48c-0.068-0.185-0.142-0.367-0.222-0.549c-0.06-0.16-0.124-0.318-0.192-0.476
			c-0.068-0.185-0.142-0.367-0.222-0.549c-0.059-0.159-0.123-0.316-0.191-0.473c-0.069-0.188-0.144-0.372-0.225-0.556
			c-0.059-0.156-0.121-0.312-0.188-0.465c-0.069-0.188-0.145-0.375-0.226-0.56c-0.059-0.158-0.123-0.314-0.19-0.47
			c-0.069-0.187-0.144-0.371-0.225-0.555c-0.059-0.158-0.122-0.314-0.189-0.47c-0.069-0.188-0.144-0.372-0.225-0.555
			c-0.059-0.158-0.123-0.314-0.189-0.471c-0.069-0.187-0.144-0.371-0.225-0.555c-0.059-0.156-0.121-0.312-0.188-0.465
			c-0.069-0.188-0.144-0.373-0.225-0.557c-0.06-0.16-0.124-0.318-0.192-0.477c-0.261-0.703-0.593-1.388-1.019-2.035
			c-0.17-0.259-0.353-0.505-0.542-0.741c-0.062-0.078-0.128-0.151-0.193-0.227c-0.131-0.154-0.265-0.306-0.403-0.449
			c-0.08-0.083-0.161-0.162-0.243-0.241c-0.132-0.128-0.268-0.251-0.406-0.37c-0.088-0.076-0.175-0.151-0.266-0.224
			c-0.143-0.114-0.29-0.221-0.438-0.325c-0.07-0.05-0.14-0.101-0.21-0.149c-0.043-0.108-0.083-0.217-0.132-0.325
			c-0.061-0.169-0.129-0.338-0.205-0.508c-0.062-0.172-0.131-0.344-0.209-0.517c-0.061-0.169-0.128-0.338-0.205-0.508
			c-0.062-0.172-0.131-0.344-0.209-0.517c-0.061-0.167-0.126-0.335-0.203-0.503c-0.062-0.172-0.13-0.345-0.209-0.518
			c-0.062-0.172-0.13-0.344-0.209-0.517c-0.19-0.527-0.453-1.053-0.812-1.602c-0.216-0.328-0.455-0.629-0.704-0.917
			c-0.063-0.073-0.127-0.144-0.192-0.214c-0.238-0.259-0.487-0.503-0.749-0.725c-0.019-0.017-0.037-0.035-0.056-0.051
			c-0.289-0.24-0.594-0.453-0.906-0.65c-0.062-0.038-0.123-0.074-0.185-0.11c-0.303-0.18-0.613-0.342-0.933-0.479
			c-0.014-0.006-0.027-0.014-0.04-0.02c-0.352-0.149-0.712-0.27-1.078-0.368c-0.035-0.009-0.069,0.149-0.104,0.141
			c-0.747-0.19-1.515-0.082-2.287-0.082c-0.004,0-0.008,0-0.013,0c-0.393,0-0.784,0-1.174,0C98.317,62,98,62,98,62v-0.1
			c-1,0.215-2.115,0.625-3.138,1.363c-0.391,0.282-0.709,0.524-1.104,0.794c-0.051,0.009-0.062-0.01-0.113,0.007
			c-0.637,0.212-1.031,0.548-1.32,0.951c-2.656,1.677-5.414,3.089-8.273,4.229c-0.913-0.332-1.965-0.48-3.253-0.223
			c-1.491,0.298-2.302,1.157-2.768,2.2c-2.277,0.598-4.595,1.036-6.945,1.331C70.311,71.659,69.338,71,67.999,71
			c-1.55,0-2.6,0.855-3.425,1.99C64.383,72.991,64.192,73,64,73c-0.506,0-1.009-0.014-1.513-0.027
			c-0.624-0.016-1.246-0.043-1.866-0.08c-0.05-0.002-0.099-0.005-0.148-0.008c-0.593-0.036-1.185-0.083-1.775-0.138
			c-0.077-0.007-0.155-0.014-0.232-0.021c-0.565-0.056-1.128-0.12-1.69-0.191c-0.055-0.008-0.11-0.015-0.165-0.021
			c-0.697-1.181-1.72-2.155-3.414-2.494c-1.788-0.358-3.166,0.146-4.305,0.902c-0.104-0.03-0.209-0.061-0.314-0.091
			c-0.439-0.128-0.877-0.26-1.312-0.399c-0.208-0.067-0.414-0.137-0.622-0.206c-0.415-0.14-0.829-0.281-1.241-0.431
			c-0.227-0.082-0.452-0.17-0.678-0.255c-0.39-0.148-0.78-0.298-1.167-0.455c-0.245-0.101-0.488-0.206-0.732-0.311
			c-0.365-0.155-0.731-0.311-1.093-0.476c-0.265-0.12-0.526-0.248-0.789-0.372c-0.339-0.161-0.678-0.32-1.014-0.489
			c-0.178-0.09-0.354-0.186-0.531-0.277c-0.403-0.447-0.987-0.799-1.824-0.993c-0.115-0.065-0.23-0.132-0.345-0.198
			c-0.278-0.162-0.559-0.319-0.835-0.487c-0.356-0.216-0.708-0.444-1.06-0.67c-0.221-0.143-0.446-0.278-0.666-0.424
			c-0.571-0.379-1.136-0.77-1.695-1.174c-0.239-0.173-0.483-0.331-0.731-0.474c-0.179-0.104-0.362-0.19-0.545-0.278
			c-0.072-0.034-0.142-0.076-0.214-0.108c-0.25-0.112-0.505-0.209-0.761-0.293c-0.006-0.003-0.012-0.006-0.018-0.008
			c-1.028-0.336-2.097-0.452-3.146-0.368c-0.024,0.002-0.049,0.001-0.074,0.004c-0.2,0.018-0.397,0.05-0.595,0.083
			c-0.068,0.011-0.137,0.016-0.204,0.028h0c-2.127,0.407-4.108,1.665-5.434,3.675C20.25,67.005,20,68.265,20,70l0.215,0.118
			c-0.001,0.045-0.002,0.091-0.002,0.136c-1.58,0.711-2.998,1.868-4.044,3.46c-1.791,2.723-2.093,6.064-1.108,8.966
			c0.168,0.642,0.393,1.267,0.676,1.864c0.122,0.347,0.258,0.687,0.415,1.018c0.121,0.345,0.257,0.684,0.413,1.013
			c0.121,0.344,0.256,0.683,0.412,1.011c0.121,0.345,0.256,0.685,0.413,1.015c0.122,0.345,0.257,0.685,0.413,1.015
			c0.122,0.345,0.256,0.684,0.413,1.013c0.121,0.345,0.256,0.684,0.413,1.014c0.121,0.344,0.256,0.684,0.412,1.013
			c0.122,0.345,0.257,0.685,0.414,1.015c0.121,0.344,0.255,0.682,0.412,1.011c0.122,0.345,0.256,0.684,0.413,1.014
			c0.122,0.345,0.256,0.686,0.414,1.016c0.121,0.343,0.255,0.681,0.412,1.009c0.121,0.344,0.255,0.683,0.413,1.012
			c0.121,0.343,0.254,0.681,0.411,1.009c0.122,0.346,0.256,0.686,0.414,1.016c0.117,0.332,0.248,0.659,0.398,0.978
			c0.165,0.616,0.384,1.216,0.655,1.79c0.121,0.346,0.257,0.686,0.414,1.016c0.121,0.344,0.256,0.683,0.412,1.012
			c0.122,0.345,0.257,0.684,0.413,1.014c0.121,0.345,0.256,0.684,0.413,1.013c0.121,0.345,0.257,0.685,0.414,1.015
			c0.121,0.344,0.256,0.683,0.412,1.011c0.121,0.345,0.256,0.685,0.413,1.015c0.122,0.346,0.257,0.685,0.414,1.016
			c0.122,0.344,0.256,0.683,0.413,1.012c0.122,0.345,0.256,0.685,0.413,1.014c0.121,0.344,0.255,0.684,0.412,1.013
			c0.122,0.345,0.257,0.685,0.414,1.015c0.121,0.344,0.255,0.682,0.412,1.01c0.118,0.335,0.25,0.665,0.402,0.986
			C39.193,124.198,51.149,128,64,128C88.369,128,109.554,114.377,120.363,94.334z"/>
		<path style="opacity:0.4;fill:#F5F5F5;" d="M67.701,0.114C66.475,0.044,65.243,0,64,0c-3.325,0-6.59,0.254-9.779,0.743
			c-0.105,1.615-0.02,3.249,0.267,4.784c0.398,2.181,1.132,4.141,1.96,5.858c1.683,3.437,3.659,6.045,5.338,8.508
			c1.695,2.446,3.145,4.716,4.042,7.001c0.449,1.142,0.765,2.284,0.927,3.453l0.054,0.439c0.007,0.056,0.014,0.188,0.022,0.18
			l0.017,0.289l0.053,1.014c0.024,0.67,0.02,1.333-0.011,1.99c-0.115,2.644-0.721,5.115-1.862,7.74
			c-0.559,1.318-1.247,2.694-1.917,4.209c-0.668,1.509-1.299,3.183-1.661,4.946c-0.372,1.76-0.464,3.574-0.327,5.299
			c0.135,1.729,0.476,3.383,0.92,4.965c0.266,0.952,1.202,1.584,2.208,1.442c1.096-0.153,1.859-1.167,1.706-2.263l-0.002-0.017
			c-0.403-2.87-0.309-5.641,0.585-8.049c0.847-2.426,2.571-4.671,4.302-7.522c1.743-2.818,3.18-6.269,3.804-9.755
			c0.165-0.871,0.293-1.745,0.384-2.615l0.114-1.296l0.023-0.289l0.017-0.399l0.017-0.716c0.017-1.911-0.227-3.822-0.656-5.634
			c-0.862-3.64-2.397-6.829-3.829-9.681c-1.439-2.846-2.816-5.445-3.518-7.707c-0.354-1.125-0.532-2.138-0.54-3.015
			c-0.009-0.882,0.132-1.638,0.408-2.415C67.226,1.042,67.441,0.583,67.701,0.114z"/>
		<g>
			<path style="fill:#992B1F;" d="M20,70c0-1.735,0.25-2.995,1.252-4.525c2.645-4.01,7.897-5.029,11.722-2.261
				C42.141,69.843,52.873,73,64,73s21.852-3.157,31.019-9.786c3.833-2.769,9.086-1.749,11.722,2.261
				c0.985,1.503,1.251,2.823,1.259,4.525L64.29,94.417L20,70z"/>
			<g>
				<path style="fill:#8C271C;" d="M29.975,63.214C39.141,69.843,49.873,73,61,73c0.501,0,1-0.014,1.5-0.026
					c-10.59-0.272-20.772-3.43-29.525-9.76c-1.908-1.381-4.171-1.818-6.289-1.414C27.832,62.015,28.955,62.476,29.975,63.214z"/>
				<path style="fill:#8C271C;" d="M106.741,65.475c-1.933-2.94-5.272-4.265-8.428-3.675c2.128,0.407,4.107,1.665,5.428,3.675
					c0.985,1.503,1.251,2.823,1.259,4.525L62.78,93.585l1.51,0.832L108,70C107.991,68.298,107.726,66.978,106.741,65.475z"/>
			</g>
			<path style="fill:#F2CB91;" d="M64,103c-16.292,0-32.002-5.84-45.427-15.544c-4.286-3.094-5.36-9.249-2.405-13.742
				c2.955-4.494,8.829-5.639,13.115-2.531C39.541,78.599,51.55,83,64,83s24.461-4.401,34.719-11.817
				c4.286-3.107,10.16-1.963,13.115,2.531c2.955,4.493,1.872,10.648-2.414,13.742C95.995,97.16,80.292,103,64,103z"/>
			<g>
				<path style="fill:#E6C18A;" d="M23.283,71.183C33.541,78.599,45.55,83,58,83c1.003,0,2.003-0.039,3-0.096
					c-11.373-0.644-22.286-4.903-31.717-11.722c-2.537-1.839-5.627-2.178-8.341-1.226C21.753,70.245,22.543,70.646,23.283,71.183z"
					/>
				<path style="fill:#E6C18A;" d="M111.834,73.714c-2.445-3.718-6.886-5.135-10.774-3.757c1.872,0.657,3.568,1.923,4.774,3.757
					c2.955,4.493,1.872,10.648-2.414,13.742c-12.6,9.107-27.205,14.81-42.421,15.478c0.998,0.043,1.998,0.066,3,0.066
					c16.292,0,31.995-5.84,45.421-15.544C113.706,84.362,114.789,78.207,111.834,73.714z"/>
			</g>
			<path style="fill:#FFD464;" d="M60,81c-2.668,0-3.38-2.437-4.009-4.586c-0.712-2.436-1.319-4.06-3.188-4.434
				c-1.893-0.38-3.077,0.705-4.442,1.961c-1.58,1.452-3.544,3.262-6.733,1.987c-2.953-1.182-3.114-3.582-3.232-5.335
				C38.269,68.706,38.222,68,36,68c-0.552,0-1-0.447-1-1s0.448-1,1-1c4.092,0,4.265,2.577,4.392,4.46
				c0.121,1.797,0.281,2.932,1.98,3.611c1.922,0.771,2.964-0.063,4.636-1.602c1.467-1.35,3.292-3.031,6.188-2.45
				c3.195,0.639,4.038,3.52,4.714,5.834C58.55,78.041,58.941,79,60,79c1.289,0,2.033-1.303,3.105-3.447
				C64.172,73.419,65.382,71,68,71c2.538,0,3.786,2.345,4.789,4.229c1.157,2.174,1.786,3.091,2.968,2.801
				c1.144-0.286,1.371-1.346,1.588-3.529c0.206-2.062,0.487-4.888,3.458-5.481c2.943-0.589,4.731,0.875,6.169,2.052
				c1.448,1.184,2.205,1.722,3.58,1.034c1.47-0.735,1.45-1.908,1.296-3.762c-0.126-1.512-0.298-3.581,1.834-4.292
				c0.525-0.177,1.091,0.108,1.265,0.632c0.175,0.524-0.108,1.091-0.632,1.265c-0.534,0.179-0.614,0.554-0.474,2.231
				c0.144,1.727,0.361,4.338-2.395,5.716c-2.597,1.301-4.34-0.128-5.742-1.275c-1.339-1.095-2.5-2.04-4.509-1.639
				c-1.377,0.275-1.624,1.345-1.86,3.719c-0.205,2.055-0.459,4.612-3.093,5.271c-2.822,0.711-4.15-1.793-5.219-3.801
				C70.005,74.255,69.244,73,68,73c-1.289,0-2.033,1.303-3.106,3.447C63.828,78.581,62.618,81,60,81z"/>
			<circle style="fill:#F5F5F5;" cx="24" cy="77" r="1"/>
			<circle style="fill:#F5F5F5;" cx="22" cy="82" r="1"/>
			<circle style="fill:#F5F5F5;" cx="30" cy="81" r="1"/>
			<circle style="fill:#F5F5F5;" cx="30" cy="87" r="1"/>
			<circle style="fill:#F5F5F5;" cx="41" cy="93" r="1"/>
			<circle style="fill:#F5F5F5;" cx="54" cy="90" r="1"/>
			<circle style="fill:#F5F5F5;" cx="58" cy="94" r="1"/>
			<circle style="fill:#F5F5F5;" cx="68" cy="93" r="1"/>
			<circle style="fill:#F5F5F5;" cx="79" cy="86" r="1"/>
			<circle style="fill:#F5F5F5;" cx="63" cy="87" r="1"/>
			<circle style="fill:#F5F5F5;" cx="76" cy="93" r="1"/>
			<circle style="fill:#F5F5F5;" cx="90" cy="83" r="1"/>
			<circle style="fill:#F5F5F5;" cx="85" cy="88" r="1"/>
			<circle style="fill:#F5F5F5;" cx="95" cy="84" r="1"/>
			<circle style="fill:#F5F5F5;" cx="97" cy="77" r="1"/>
			<circle style="fill:#F5F5F5;" cx="46" cy="86" r="1"/>
			<circle style="fill:#F5F5F5;" cx="38" cy="87" r="1"/>
		</g>
	</g>
</g>
</svg>
