<?xml version="1.0" encoding="iso-8859-1"?>
<!-- Generator: Adobe Illustrator 17.0.0, SVG Export Plug-In . SVG Version: 6.00 Build 0)  -->
<!DOCTYPE svg PUBLIC "-//W3C//DTD SVG 1.1//EN" "http://www.w3.org/Graphics/SVG/1.1/DTD/svg11.dtd">
<svg version="1.1" id="Objects" xmlns="http://www.w3.org/2000/svg" xmlns:xlink="http://www.w3.org/1999/xlink" x="0px" y="0px"
	 width="181.434px" height="176.901px" viewBox="0 0 181.434 176.901" style="enable-background:new 0 0 181.434 176.901;"
	 xml:space="preserve">
<g>
	<g>
		<g>
			<path style="fill:#C5D0D9;" d="M46.596,85.332c-0.052,0.729-0.084,1.464-0.096,2.202c-0.016,0.739-0.012,1.481,0.012,2.225
				c0.046,1.487,0.172,2.988,0.373,4.496c0.201,1.508,0.473,2.987,0.818,4.438c0.172,0.725,0.363,1.441,0.573,2.148
				c0.204,0.709,0.427,1.409,0.67,2.1c0.24,0.693,0.497,1.375,0.769,2.048c0.545,1.348,1.155,2.66,1.823,3.934
				c0.335,0.636,0.683,1.262,1.048,1.88c0.362,0.615,0.741,1.222,1.133,1.818c0.194,0.297,0.396,0.592,0.595,0.886
				c0.407,0.584,0.826,1.158,1.258,1.722c1.297,1.689,2.709,3.277,4.227,4.756c0.759,0.739,1.544,1.449,2.353,2.13
				c0.538,0.455,1.09,0.895,1.648,1.324c0.562,0.428,1.132,0.842,1.71,1.246c2.609,1.804,5.414,3.33,8.371,4.541
				c0.658,0.27,1.321,0.524,1.991,0.763c1.341,0.475,2.712,0.886,4.103,1.233c0.696,0.172,1.397,0.328,2.105,0.466
				c4.598,0.901,9.417,1.081,14.315,0.427c3.344-0.446,6.547-1.256,9.576-2.385c1.418-0.524,2.797-1.12,4.132-1.779
				c0.644-0.32,1.281-0.654,1.909-1.004c1.253-0.697,2.467-1.454,3.636-2.265c0.585-0.405,1.16-0.824,1.722-1.256
				c2.535-1.944,4.84-4.152,6.887-6.58c0.456-0.54,0.898-1.09,1.324-1.648c0.427-0.561,0.844-1.131,1.245-1.711
				c0.601-0.871,1.17-1.761,1.709-2.673c0.853-1.445,1.622-2.935,2.305-4.472c0.182-0.406,0.358-0.815,0.53-1.226
				c0.27-0.658,0.524-1.321,0.758-1.991c0.121-0.337,0.236-0.673,0.349-1.012c0.22-0.677,0.426-1.361,0.616-2.052
				c0.188-0.69,0.361-1.385,0.517-2.088c0.31-1.405,0.554-2.831,0.725-4.274c0.088-0.721,0.157-1.447,0.206-2.177
				c0.052-0.732,0.083-1.466,0.1-2.204c0.011-0.737,0.007-1.478-0.014-2.222c-0.049-1.488-0.171-2.99-0.372-4.498
				c-0.202-1.507-0.477-2.987-0.82-4.437c-0.173-0.723-0.363-1.441-0.569-2.15c-0.21-0.708-0.432-1.408-0.673-2.099
				c-0.24-0.69-0.497-1.374-0.771-2.047c-0.544-1.348-1.153-2.662-1.821-3.934c-0.167-0.317-0.337-0.634-0.514-0.947
				c-0.523-0.939-1.078-1.857-1.668-2.75c-0.194-0.297-0.397-0.593-0.598-0.885c-0.407-0.585-0.825-1.159-1.255-1.721
				c-1.295-1.691-2.711-3.279-4.229-4.756c-0.758-0.739-1.543-1.45-2.351-2.132c-0.54-0.454-1.089-0.895-1.649-1.324
				c-0.56-0.428-1.131-0.843-1.709-1.244c-1.124-0.776-2.284-1.501-3.476-2.172c-1.577-0.888-3.212-1.68-4.895-2.373
				c-0.656-0.268-1.32-0.522-1.991-0.76c-0.307-0.107-0.612-0.213-0.921-0.313c-0.369-0.121-0.739-0.239-1.112-0.351
				c-0.156-0.047-0.312-0.091-0.468-0.138c-0.53-0.152-1.062-0.297-1.601-0.431c-0.008-0.001-0.014-0.003-0.023-0.007
				c-0.573-0.14-1.151-0.266-1.73-0.386c-0.118-0.025-0.233-0.051-0.355-0.073c-1.351-0.266-2.721-0.466-4.11-0.604
				c-0.433-0.044-0.865-0.08-1.303-0.111c-0.316-0.022-0.63-0.039-0.947-0.054c-2.351-0.112-4.744-0.032-7.159,0.245
				c-0.265,0.032-0.531,0.062-0.798,0.097c-0.453,0.061-0.9,0.129-1.35,0.205c-4.396,0.724-8.542,2.077-12.355,3.961
				c-0.646,0.319-1.284,0.653-1.908,1.002c-0.192,0.107-0.385,0.219-0.578,0.331c-0.427,0.246-0.854,0.498-1.272,0.76
				c-0.607,0.377-1.201,0.769-1.788,1.175c-0.585,0.405-1.158,0.824-1.722,1.255c-2.264,1.739-4.35,3.689-6.226,5.815
				c-0.223,0.253-0.443,0.507-0.659,0.762c-0.455,0.542-0.895,1.091-1.325,1.65c-0.428,0.561-0.844,1.131-1.242,1.71
				c-0.601,0.87-1.173,1.763-1.711,2.673c-1.077,1.824-2.023,3.728-2.834,5.698c-0.269,0.657-0.521,1.322-0.759,1.991
				c-0.121,0.335-0.234,0.673-0.346,1.011c-0.332,1.017-0.626,2.048-0.886,3.093c-0.087,0.347-0.171,0.698-0.246,1.047
				c-0.313,1.405-0.557,2.83-0.728,4.275C46.715,83.875,46.647,84.602,46.596,85.332z"/>
			<path style="fill-rule:evenodd;clip-rule:evenodd;fill:#3F73A1;" d="M110.755,101.583v-22.78c0.432,0.029,0.676,0.274,0.676,0.97
				c0,1.699,2.16,1.751,3.363,2.271c1.203,0.519,2.88,1.201,3.191,0.139c0.312-1.061,1.804-0.92,3.06-0.861
				c1.254,0.06,3.429,0.223,4.528-0.038c1.099-0.26,2.078-1.411,2.056-2.427c-0.022-1.017-1.612-1.031-3.503-0.779
				c-1.895,0.253-2.718,0.022-2.533-1.135c0.187-1.158,0.608-2.235,1.552-2.813c0.942-0.58,1.804-0.921,2.806-1.054
				c1.002-0.134,2.443,0.467,3.653,0.192c1.209-0.274,0.616-1.329-0.698-1.833c-1.314-0.506-1.67-1.478-1.188-2.109
				c0.483-0.63,0.075-1.142-0.853-0.453c-0.929,0.691-2.183,2.331-2.636,1.485c-0.453-0.846-2.798,0.259-2.62,1.597
				c0.178,1.336,0.542,1.514,0.215,2.464c-0.326,0.95-1.239,1.753-2.144,1.76c-0.906,0.007,0.319,1.544-0.511,2.107
				c-0.832,0.566-1.426-0.489-2.131-1.528c-0.705-1.039-1.24-1.647-1.886-2.242c-0.646-0.594-1.024-0.883-1.893-1.448
				c-0.868-0.563-1.477-0.029-0.593,0.646c0.883,0.675,1.15,0.979,2.041,0.86c0.89-0.119,0.653,1.5,0.519,2.197
				c-0.133,0.698-1.076,2.978-1.283,1.419c-0.209-1.559-0.469-2.658-1.752-2.94c-0.594-0.13-0.996-0.456-1.433-0.746V64.218
				c0.659-0.254,1.042-0.588,1.906-0.703c1.225-0.164,2.249,0.72,3.037-0.179c0.786-0.898-0.95-2.026,0.386-2.206
				c1.336-0.178,2.464-0.214,1.329-1.083c-1.136-0.869,0.274-0.49,1.313-1.195c1.04-0.705,0.809-1.58-0.498-1.18
				c-1.306,0.4-2.316,1.329-3.05,0.067c-0.735-1.262,0.727-3.043,1.484-4.165c0.167-0.248,0.18-0.448,0.097-0.594
				c0.193,0.143,0.386,0.288,0.577,0.434c0.56,0.43,1.109,0.87,1.649,1.324c0.807,0.683,1.592,1.393,2.351,2.132
				c1.518,1.477,2.934,3.065,4.229,4.756c0.43,0.562,0.848,1.137,1.255,1.721c0.201,0.292,0.403,0.588,0.598,0.885
				c0.59,0.893,1.145,1.811,1.668,2.75c0.176,0.313,0.347,0.63,0.514,0.947c0.668,1.272,1.277,2.586,1.821,3.934
				c0.274,0.673,0.531,1.357,0.771,2.047c0.241,0.691,0.463,1.391,0.673,2.099c0.206,0.708,0.396,1.427,0.569,2.15
				c0.343,1.449,0.619,2.929,0.82,4.437c0.201,1.508,0.323,3.01,0.372,4.498c0.022,0.744,0.025,1.485,0.014,2.222
				c-0.017,0.738-0.048,1.472-0.1,2.204c-0.02,0.305-0.044,0.609-0.071,0.912l-0.054-0.088c-1.314-2.204-3.882-4.469-4.944-6.48
				c-1.062-2.012-2.02-3.244-2.785-3.028c-0.764,0.215,1.552,3.986,2.525,5.329c0.973,1.344,2.175,3.564,3.69,4.721
				c0.479,0.367,0.958,0.654,1.427,0.855c-0.17,1.429-0.413,2.84-0.72,4.23c-0.156,0.703-0.329,1.398-0.517,2.088
				c-0.19,0.691-0.396,1.375-0.616,2.052c-0.112,0.339-0.228,0.675-0.349,1.012c-0.234,0.67-0.489,1.333-0.758,1.991
				c-0.171,0.411-0.348,0.82-0.53,1.226c-0.683,1.537-1.452,3.027-2.305,4.472c-0.539,0.912-1.108,1.802-1.709,2.673
				c-0.401,0.58-0.818,1.15-1.245,1.711c-0.426,0.558-0.868,1.108-1.324,1.648c-1.395,1.654-2.91,3.207-4.537,4.643
				c-0.539-1.049-0.425-2.105-1.321-3.092c-1.196-1.313-2.54-3.741-1.716-5.21c0.824-1.47,1.136-2.532,0.2-2.748
				c-0.936-0.214,0.193-1.951-1.135-2.566c-1.329-0.618-2.391-2.627-2.08-3.69c0.312-1.061,0.201-2.747-1.248-2.554
				C111.95,101.689,111.37,101.647,110.755,101.583L110.755,101.583z M110.755,63.359c0.379,0.042,0.784-1.055,1.394-1.136
				c0.78-0.104,0.98-1.15,1.752-2.161c0.773-1.01-1.047-1.9-0.764-3.184c0.281-1.285,1.543-2.02,1.713-3.289
				c0.105-0.776,1.042-1.028,1.58-0.85c-0.266-0.194-0.534-0.383-0.803-0.57c-1.124-0.776-2.284-1.501-3.476-2.172
				c-0.275-0.155-0.552-0.308-0.831-0.457c-0.19,0.197-0.38,0.417-0.565,0.65V63.359z M110.755,50.191v13.168
				c-0.105-0.011-0.208-0.11-0.313-0.341c-0.482-1.07-1.314-2.206-2.019-1.544c-0.705,0.66-0.341,2.539-1.551,1.113
				c-1.212-1.425-2.4-3.533-1.448-4.906c0.949-1.374,2.374-2.584,3.101-3.928C108.978,52.917,109.82,51.371,110.755,50.191
				L110.755,50.191z M110.755,64.218c-0.275,0.106-0.599,0.198-1.025,0.255c-1.448,0.193-1.025-0.883-1.916-0.765
				c-0.891,0.119-0.446,1.759-1.121,2.643c-0.625,0.817-1.702,1.891-2.884,2.452V78.3c0.139-0.41,0.709-0.553,1.222-0.621
				c0.668-0.089,0.743-1.233,0.246-2.413c-0.499-1.179,1.677-1.017,3.459-1.255c0.957-0.128,1.511,0.158,2.019,0.494V64.218
				L110.755,64.218z M110.755,78.803v22.78c-1.281-0.132-2.72-0.357-3.657,0.074c-1.327,0.61-2.363,1.079-3.288,1.527V80.88
				c1.599-0.363,2.121-1.28,4.05-1.539C109.111,79.175,110.13,78.762,110.755,78.803L110.755,78.803z M103.809,79.391
				c0.086-0.135,0.099-0.31,0.005-0.643l-0.005-0.02V79.391L103.809,79.391z M103.809,67.797v-0.947
				c0.26-0.098,0.469,0.042,0.45,0.344C104.239,67.493,104.067,67.859,103.809,67.797z M103.809,66.851v0.947
				c-0.057-0.014-0.118-0.049-0.183-0.109c-0.357-0.337-0.365-0.576,0.021-0.749C103.702,66.899,103.757,66.87,103.809,66.851
				L103.809,66.851z M103.809,68.803V78.3c-0.04,0.119-0.044,0.259,0,0.428v0.663c-0.111,0.175-0.345,0.281-0.627,0.575
				c-0.167,0.174-0.37,0.367-0.603,0.528V69.206c0.251-0.054,0.557-0.124,0.944-0.278C103.62,68.89,103.715,68.849,103.809,68.803
				L103.809,68.803z M103.809,80.88v22.303l-0.126,0.062c-0.285,0.139-0.666,0.081-1.104-0.103V81.109
				c0.214-0.056,0.457-0.104,0.737-0.141C103.492,80.945,103.655,80.915,103.809,80.88L103.809,80.88z M102.58,68.553v-0.727
				C102.655,68.111,102.671,68.364,102.58,68.553L102.58,68.553z M102.58,64.165v-0.946c0.261-0.099,0.469,0.041,0.449,0.343
				C103.01,63.861,102.838,64.228,102.58,64.165z M102.58,63.219v0.946c-0.057-0.014-0.118-0.049-0.183-0.11
				c-0.357-0.336-0.365-0.576,0.021-0.747C102.473,63.268,102.527,63.239,102.58,63.219L102.58,63.219z M102.58,67.826
				c-0.229-0.872-1.002-2.045-0.92-2.607c0.135-0.914-0.294-3.163-2.022-2.676c-1.15,0.025,1.528,3.767,0.101,4.597
				c-1.427,0.831-1.318,0.688-0.847,2.291c0.469,1.602,1.493-0.328,3.129-0.546c0.301-0.04,0.474-0.159,0.558-0.332V67.826
				L102.58,67.826z M102.58,69.206v11.288c-0.46,0.319-1.035,0.52-1.676,0.229c-0.964-0.438-2.627,0.69-2.776-0.423
				c-0.149-1.114-0.987-1.456-0.565-2.532c0.423-1.076-0.267-2.004,0.846-2.153c1.114-0.148,1.366,0.045,2.591-0.119
				c1.225-0.163,2.064-1.521,0.942-2.279c-1.121-0.756-0.95-2.027-0.527-3.103C101.712,69.361,101.993,69.332,102.58,69.206
				L102.58,69.206z M102.58,81.109c-1.318,0.343-1.537,0.987-2.469,1.306c-1.084,0.371-1.746,1.367-1.611,2.369
				c0.115,0.859-0.322,1.958-1.141,2.418v12.244c0.584,0.447,1.189,0.874,1.676,1.247c1.154,0.881,2.508,2.016,3.544,2.45V81.109
				L102.58,81.109z M97.36,69.302v-3.767c0.981-0.242,1.245,1.759,0.895,2.956C98.096,69.031,97.718,69.289,97.36,69.302z
				 M97.36,65.536v3.767c-0.438,0.017-0.847-0.33-0.791-0.971c0.1-1.167-1.016-2.81,0.779-2.793L97.36,65.536L97.36,65.536z
				 M97.36,87.202v12.244c-1.38-1.056-2.643-2.22-1.954-3.029c0.979-1.15,0.281-1.284-0.379-1.99
				c-0.064-0.068-0.116-0.146-0.159-0.231v-1.658c0.133-0.499,0.337-0.983,0.523-1.332c0.452-0.855,0.43-3.572,1.528-3.831
				C97.075,87.337,97.223,87.278,97.36,87.202L97.36,87.202z M94.867,84.609v-0.78c0.095,0.056,0.15,0.172,0.14,0.335
				C94.998,84.317,94.948,84.487,94.867,84.609L94.867,84.609z M94.867,49.981v-1.137c0.103-0.031,0.226-0.052,0.373-0.059
				c0.881-0.118,1.712,1.308,0.578,1.459C95.461,50.291,95.119,50.17,94.867,49.981z M94.867,48.844v1.137
				C94.399,49.627,94.24,49.036,94.867,48.844L94.867,48.844z M94.867,83.829v0.78c-0.112,0.169-0.284,0.245-0.492,0.049
				c-0.359-0.337-0.366-0.577,0.02-0.748C94.577,83.78,94.752,83.76,94.867,83.829L94.867,83.829z M94.867,92.538v1.658
				C94.654,93.764,94.707,93.14,94.867,92.538L94.867,92.538z M86.353,114.384v-1.852C86.784,113.011,86.768,113.555,86.353,114.384
				L86.353,114.384z M86.353,57.293v-0.38c0.08-0.728,0.614-1.275,1.245-1.09c1.2,0.353,1.561,0.177,2.459,0.185
				c1.568-0.722,2.617,0.419,1.87,1.543c-0.746,1.124-2.483,2.508-4.429,1.359C86.749,58.469,86.414,57.858,86.353,57.293
				L86.353,57.293z M86.353,44.918v-0.322C86.366,44.698,86.369,44.805,86.353,44.918L86.353,44.918z M94.015,86.745
				c0.329-0.236,0.635-0.108,0.612,0.255c-0.024,0.364-0.274,0.83-0.632,0.494C93.637,87.156,93.628,86.917,94.015,86.745
				L94.015,86.745z M92.472,84.673c0.33-0.237,0.636-0.108,0.612,0.255c-0.024,0.364-0.274,0.831-0.632,0.494
				C92.094,85.084,92.086,84.844,92.472,84.673z M66.27,73.376c0.155-0.031,0.32-0.058,0.494-0.081
				c1.294-0.173,0.158-0.972-0.494-1.696V73.376L66.27,73.376z M86.353,44.596v0.322c-0.027,0.2-0.109,0.417-0.289,0.652
				c-0.915,1.196-0.499,1.894-1.977,2.09c-1.479,0.198,2.105,2.084,0.415,2.31c-1.69,0.225-1.936,2.408-0.275,1.972
				c1.662-0.438,1.655,0.315-0.027,1.4c-1.683,1.084-4.534,1.464-5.196,2.95c-0.661,1.487-3.843,1.802-3.674,3.07
				c0.169,1.268,0.261,5.983-2.28,5.462c-2.541-0.52-3.393-2.879-4.54-4.23c-1.148-1.351,0.119-3.133-0.901-3.534
				c-1.021-0.401,1.716-3.238,0.759-2.358c-0.957,0.88-2.787,0.05-1.351-0.465c1.435-0.514,0.71-1.921-0.304-1.464
				c-0.145,0.066-0.295,0.115-0.442,0.146v-1.276c0.331-0.219,0.666-0.434,1.004-0.644c0.418-0.262,0.845-0.513,1.272-0.76
				c0.192-0.111,0.386-0.223,0.578-0.331c0.625-0.349,1.263-0.683,1.908-1.002c3.813-1.885,7.96-3.238,12.355-3.961
				c0.45-0.076,0.897-0.144,1.35-0.205c0.267-0.036,0.533-0.065,0.798-0.097c0.271-0.031,0.542-0.06,0.812-0.086L86.353,44.596
				L86.353,44.596z M86.353,56.913c-0.013,0.122-0.014,0.25,0,0.38V56.913L86.353,56.913z M86.353,112.532v1.852l-0.021,0.042
				c-0.768,1.499-2.492,3.879-2.33,5.9c0.163,2.02-0.851,4.089-2.197,4.484c-1.344,0.394-2.47,1.62-2.343,2.57
				c0.127,0.95-1.197,0.696-1.063,2.506c0.022,0.293,0.005,0.596-0.04,0.899c-0.839-0.243-1.669-0.509-2.487-0.799
				c-0.67-0.238-1.333-0.493-1.991-0.763c-2.672-1.094-5.219-2.445-7.61-4.026v-21.25c0.816-0.093,1.781-0.073,2.918,0.406
				c1.937,0.817,3.612,2.098,4.985,1.915c1.373-0.183,1.345,1.217,1.527,2.591c0.185,1.372,1.979,1.132,3.964,1.512
				c1.985,0.38,2.815,0.162,4.872,1.07C85.423,111.834,86.021,112.164,86.353,112.532L86.353,112.532z M66.27,76.54v-1.888
				c0.041-0.331,0.013-0.528,0-0.648v-0.127c0.026-0.076,0.15-0.06,0.568-0.083c1.649-0.301,2.056,0.934,2.668,1.899
				c0.611,0.964,0.432,2.035-1.245,1.533C67.303,76.941,66.609,76.856,66.27,76.54z M63.674,75.293
				c0.067-0.06,0.131-0.162,0.197-0.324c0.292-0.717,0.952-1.31,2.399-1.594v-1.777c-0.253-0.281-0.433-0.55-0.372-0.768
				c0.208-0.744-1.258-0.876-2.224-1.518V75.293L63.674,75.293z M66.27,51.643v1.276c-0.622,0.133-1.183-0.045-1.072-0.542
				l0.288-0.202C65.746,51.995,66.008,51.817,66.27,51.643L66.27,51.643z M66.27,73.878v0.127
				C66.263,73.945,66.26,73.906,66.27,73.878L66.27,73.878z M66.27,74.652v1.888c-0.254-0.237-0.308-0.604-0.123-1.284
				C66.212,75.017,66.25,74.818,66.27,74.652L66.27,74.652z M66.27,103.947v21.25c-0.255-0.168-0.509-0.34-0.761-0.514
				c-0.491-0.343-0.976-0.693-1.455-1.053c-0.123-0.113-0.25-0.233-0.38-0.356v-18.872c0.385-0.077,0.763-0.168,1.087-0.21
				C65.197,104.134,65.697,104.013,66.27,103.947L66.27,103.947z M63.674,99.612v-0.608c0.055-0.005,0.112-0.01,0.175-0.014
				c0.875-0.117,1.852,0.531,0.586,0.645C64.157,99.66,63.896,99.648,63.674,99.612L63.674,99.612z M63.674,79.969v-1.364
				c0.777-0.053,1.065,1.266,0.286,1.37C63.861,79.988,63.765,79.985,63.674,79.969z M62.937,75.044
				c0.335,0.238,0.549,0.414,0.737,0.249v-5.981c-0.049-0.032-0.096-0.066-0.141-0.101c-0.24-0.183-0.428-0.481-0.596-0.824V75.044
				L62.937,75.044z M63.674,78.606v1.364c-0.387-0.067-0.683-0.37-0.737-0.671v-0.195c0.035-0.177,0.173-0.335,0.448-0.42
				C63.487,78.636,63.584,78.612,63.674,78.606L63.674,78.606z M63.674,99.004v0.608C62.926,99.493,62.631,99.111,63.674,99.004
				L63.674,99.004z M63.674,104.403v18.872c-0.235-0.221-0.482-0.449-0.737-0.648v-18.111
				C63.176,104.495,63.426,104.452,63.674,104.403L63.674,104.403z M62.937,80.359v-0.208
				C62.949,80.222,62.949,80.293,62.937,80.359z M62.393,78.605c0.252-0.501,0.209-0.969,0-1.37V78.605L62.393,78.605z
				 M62.393,74.709c0.017,0.007,0.033,0.014,0.049,0.022c0.191,0.101,0.354,0.212,0.495,0.313v-6.656
				c-0.19-0.386-0.356-0.83-0.544-1.23V74.709L62.393,74.709z M62.937,79.103v0.195C62.925,79.232,62.924,79.167,62.937,79.103
				L62.937,79.103z M62.937,80.152v0.208c-0.03,0.16-0.135,0.29-0.333,0.317c-0.073,0.01-0.144,0.008-0.211-0.004v-1.011
				C62.691,79.641,62.892,79.893,62.937,80.152L62.937,80.152z M62.937,104.516v18.111c-0.179-0.139-0.36-0.264-0.544-0.363v-17.749
				C62.564,104.535,62.747,104.532,62.937,104.516z M61.12,80.091c0.413-0.318,0.834-0.732,1.21-1.369
				c0.023-0.039,0.044-0.078,0.063-0.117v-1.37c-0.255-0.489-0.758-0.879-1.273-1.106V80.091L61.12,80.091z M61.12,74.919
				c0.481-0.205,0.976-0.327,1.273-0.21v-7.55c-0.302-0.64-0.661-1.167-1.273-1.166V74.919L61.12,74.919z M62.393,79.662v1.011
				c-0.525-0.091-0.825-0.766-0.214-0.953C62.254,79.685,62.326,79.667,62.393,79.662L62.393,79.662z M62.393,104.515v17.749
				c-0.051-0.028-0.102-0.053-0.152-0.076l-0.089-0.075c-0.349-0.293-0.692-0.593-1.032-0.897v-17.608
				c0.136,0.039,0.266,0.154,0.389,0.373C61.7,104.323,62.017,104.472,62.393,104.515L62.393,104.515z M61.12,99.872v-1.456
				c0.079-0.016,0.163-0.029,0.254-0.042c0.922-0.179,1.018,1.366,0.033,1.498C61.313,99.884,61.216,99.883,61.12,99.872
				L61.12,99.872z M61.12,60.216V59.12C61.429,59.592,61.483,60.064,61.12,60.216z M57.324,83.806c0.119-0.091,0.25-0.15,0.395-0.17
				c1.162-0.155,1.098-1.435,1.739-2.274c0.391-0.511,1.016-0.773,1.662-1.271v-3.962c-0.394-0.175-0.795-0.255-1.099-0.214
				c-0.68,0.09,0.183-0.603,1.099-0.995v-8.927l-0.059,0.002c-1.386,0.079-0.295,1.007-1.309,1.464c-1.013,0.458-1.612,0-1.739-0.95
				c-0.035-0.261-0.295-0.565-0.689-0.861V83.806L57.324,83.806z M61.12,59.12v1.096c-0.12,0.05-0.286,0.065-0.503,0.034
				c-1.534-0.225-2.521,0.444-0.978,1.528c1.542,1.083,0.803,2.794-0.309,2.513c-0.414-0.104-1.151-0.285-2.006-0.464V59.49
				l0.215-0.245c0.46-0.522,0.935-1.033,1.42-1.533c0.167,0.15,0.366,0.262,0.609,0.314C60.236,58.168,60.808,58.644,61.12,59.12
				L61.12,59.12z M61.12,98.416v1.456C60.249,99.763,59.425,98.743,61.12,98.416L61.12,98.416z M61.12,103.609v17.608
				c-0.292-0.261-0.58-0.526-0.864-0.795c-0.014-0.122-0.025-0.243-0.042-0.36c-0.104-0.779-1.827-1.842-2.891-2.851v-6.007
				c0.103-0.572,0.162-1.137,0.771-1.393c1.12-0.473,0.211-1.64-0.324-2.429c-0.094-0.139-0.251-0.216-0.447-0.253v-1.916
				c0.759-0.045,1.626,0.006,2.142-0.421C60.072,104.291,60.634,103.467,61.12,103.609L61.12,103.609z M57.324,98.462v-0.839
				c0.852,0.076,1.422,0.712,0.5,0.835C57.653,98.481,57.483,98.481,57.324,98.462L57.324,98.462z M57.324,95.838v-0.905
				c0.783,0.482,1.245,1.306,0.555,1.015C57.672,95.86,57.489,95.831,57.324,95.838z M54.483,94.308
				c0.078-0.16,0.085-0.456,0.027-0.892c-0.009-0.063-0.018-0.126-0.027-0.186V94.308L54.483,94.308z M54.483,89.807
				c0.674-0.77,2.027-1.538,1.921-2.34c-0.112-0.832,0.09-3.021,0.92-3.66V65.648c-0.699-0.524-1.817-1.018-2.841-1.188V89.807
				L54.483,89.807z M57.324,59.49v4.337c-0.896-0.187-1.92-0.372-2.841-0.466v-0.24c0.346-0.495,0.704-0.983,1.072-1.463
				c0.431-0.56,0.87-1.109,1.325-1.65C57.026,59.835,57.175,59.662,57.324,59.49L57.324,59.49z M57.324,94.933v0.905
				c-0.635,0.027-1.011,0.583-1.522,0.386c-0.646-0.248-0.619-1.307,0.342-1.604C56.551,94.566,56.97,94.714,57.324,94.933
				L57.324,94.933z M57.324,97.624v0.839c-0.855-0.097-1.421-0.694-0.499-0.816C56.996,97.614,57.165,97.609,57.324,97.624
				L57.324,97.624z M57.324,105.213v1.916c-0.749-0.142-2.085,0.295-2.841,0.119v-2.131c0.627,0.427,1.313,0.594,1.844,0.309
				C56.594,105.282,56.945,105.235,57.324,105.213L57.324,105.213z M57.324,111.204v6.007c-0.237-0.225-0.441-0.447-0.587-0.663
				c-0.803-1.181-1.204-3.386-0.113-4.069C57.121,112.168,57.238,111.683,57.324,111.204L57.324,111.204z M54.483,97.747
				c0.149,0.03,0.307,0.045,0.469,0.038c1.071-0.046,0.472-0.987-0.469-1.109V97.747z M46.596,85.332
				c-0.052,0.729-0.084,1.464-0.096,2.202c-0.016,0.739-0.012,1.481,0.012,2.225c0.038,1.201,0.126,2.412,0.265,3.628
				c0.513-0.039,1.027-0.074,1.454-0.315c1-0.563,2.936-1.359,4.428,0.161c1.051,1.071,1.638,1.457,1.825,1.075V93.23
				c-0.214-1.361-0.688-2.121-0.29-2.996c0.065-0.143,0.166-0.285,0.29-0.427V64.46c-0.3-0.05-0.593-0.072-0.864-0.059
				c-0.352,0.54-0.69,1.086-1.018,1.64c-0.27,0.456-0.53,0.917-0.784,1.382c0.094,0.365,0.215,0.724,0.331,1.049
				c0.514,1.437,1.394,2.394,0.549,2.507c-0.844,0.113-0.676,1.38-0.514,3.4c0.162,2.021-1.443-0.345-1.57-1.295
				c-0.053-0.397-0.445-0.656-1.045-0.855c-0.197,0.496-0.382,0.998-0.562,1.501c-0.121,0.335-0.234,0.673-0.346,1.011
				c-0.332,1.017-0.626,2.048-0.886,3.093c-0.087,0.347-0.171,0.698-0.246,1.047c-0.313,1.405-0.557,2.83-0.728,4.275
				C46.715,83.875,46.647,84.602,46.596,85.332L46.596,85.332z M54.483,63.121v0.24l-0.157-0.015L54.483,63.121L54.483,63.121z
				 M54.483,96.675v1.071c-0.97-0.197-1.559-1.061-0.402-1.071C54.219,96.657,54.354,96.659,54.483,96.675L54.483,96.675z
				 M54.483,105.116c-0.32-0.217-0.625-0.503-0.887-0.832c-0.774-0.972,0.126-2.273-1.458-2.062
				c-1.583,0.212-0.944-3.477-1.085-4.533c-0.134-1.002-2.035,1.089-3.01,2.328c0.076,0.276,0.153,0.549,0.234,0.822
				c0.204,0.709,0.427,1.409,0.67,2.1c0.089,0.255,0.179,0.509,0.272,0.761c0.624,0.262,1.253,0.463,1.983,0.366
				c1.795-0.24,2.224,2.175,2.866,2.949c0.098,0.119,0.241,0.191,0.415,0.231V105.116z"/>
		</g>
		<path style="fill:#C5D0D9;" d="M144.252,18.204c1.248,0.953,1.488,2.738,0.534,3.987c-0.953,1.248-2.738,1.488-3.987,0.535
			C127.203,12.314,111.949,6.952,96.76,5.891c-1.705-0.119-3.409-0.184-5.11-0.196V0.002c1.827,0.012,3.657,0.082,5.488,0.209
			C113.403,1.348,129.722,7.079,144.252,18.204L144.252,18.204z M91.65,176.893v-5.685c9.131-0.133,18.501-1.816,27.824-5.278
			c18.152-6.741,31.973-18.711,41.047-33.235c9.733-15.579,14.018-34.093,12.345-52.251c-0.141-1.562,1.01-2.943,2.572-3.085
			c1.562-0.141,2.943,1.011,3.085,2.572c1.786,19.389-2.785,39.15-13.168,55.771c-9.708,15.54-24.49,28.344-43.898,35.551
			C111.468,174.961,101.431,176.759,91.65,176.893z M91.65,5.695c-12.132-0.086-24.107,2.522-35.042,7.441
			c-12.471,5.61-23.585,14.221-32.039,25.261C15.327,50.466,9.256,65.451,8.057,82.608L8.056,82.62h0.001
			c-0.164,2.315-0.235,4.552-0.215,6.709c0.02,2.251,0.132,4.479,0.33,6.677c0.135,1.562-1.021,2.938-2.583,3.073
			c-1.562,0.136-2.938-1.021-3.073-2.583c-0.211-2.347-0.331-4.723-0.353-7.123c-0.022-2.418,0.048-4.805,0.215-7.155h0.001
			c1.283-18.335,7.78-34.36,17.669-47.273c9.042-11.81,20.914-21.011,34.222-26.999c11.665-5.247,24.437-8.032,37.38-7.944V5.695
			L91.65,5.695z M91.65,171.209v5.685c-5.076,0.07-10.083-0.309-14.979-1.1c-15.303-2.474-25.868-6.863-37.681-16.343
			c-1.224-0.984-1.418-2.774-0.434-3.998c0.984-1.223,2.774-1.417,3.998-0.434c11.062,8.877,20.709,12.851,35.008,15.163
			C82.166,170.925,86.875,171.279,91.65,171.209z"/>
		<polygon style="fill-rule:evenodd;clip-rule:evenodd;fill:#C5D0D9;" points="148.113,23.829 128.447,24.636 140.79,5.56 		"/>
		<polygon style="fill-rule:evenodd;clip-rule:evenodd;fill:#C5D0D9;" points="34.955,153.736 54.62,152.929 42.278,172.005 		"/>
		<g>
			<path style="fill-rule:evenodd;clip-rule:evenodd;fill:#27557D;" d="M28.429,121.085c4.266-1.018,10.21-3.434,10.985,0.018
				c0.922,4.104,2.059,13.831,3.251,23.28c0.258,2.038-2.354,3.094-3.004,3.29c-2.906,0.88-5.402,1.154-8.619,1.588l-2.626-28.158
				C28.417,121.095,28.425,121.086,28.429,121.085z"/>
			<path style="fill-rule:evenodd;clip-rule:evenodd;fill:#27557D;" d="M15.471,121.085c-5.39-1.286-9.672-4.284-10.613-0.051
				c-0.984,4.43-2.063,14.138-3.201,23.205c-0.292,2.323,2.127,3.32,2.91,3.525c2.79,0.723,5.195,1.079,8.291,1.497l2.625-28.158
				C15.484,121.095,15.475,121.085,15.471,121.085z"/>
			<path style="fill-rule:evenodd;clip-rule:evenodd;fill:#27557D;" d="M11.271,148.71l-0.14,0.331
				c6.639,0.84,14.805,0.854,21.464,0.044c-0.062-0.135-0.121-0.26-0.18-0.375H11.271z"/>
			<path style="fill-rule:evenodd;clip-rule:evenodd;fill:#3F73A1;" d="M8.604,148.643c1.472-4.247-1.888-24.125-3.746-27.782
				c1.057-3.752,10.888-4.581,13.505-6.715c1.241,1.092,2.126,1.341,3.534,1.341c1.407,0,2.338-0.284,3.578-1.377
				c1.937,1.578,12.085,2.808,13.821,6.562c-1.975,4.188-5.599,24.132-4.031,27.952C28.655,149.923,15.405,150.014,8.604,148.643z"
				/>
			<polygon style="fill-rule:evenodd;clip-rule:evenodd;fill:#FFFFFF;" points="15.266,115.949 14.952,124.305 21.947,142.06 
				28.841,124.305 28.412,115.719 25.475,114.109 18.364,114.146 			"/>
			<rect x="18.364" y="111.227" style="fill-rule:evenodd;clip-rule:evenodd;fill:#D1A886;" width="6.986" height="7.236"/>
			<path style="fill-rule:evenodd;clip-rule:evenodd;fill:#FCB024;" d="M23.055,122.938l0.487-1.029l-1.645-3.988l-1.619,3.924
				l0.517,1.093C21.548,122.938,22.301,122.938,23.055,122.938z"/>
			<polygon style="fill-rule:evenodd;clip-rule:evenodd;fill:#CCCCCC;" points="18.363,114.146 21.897,117.92 19.381,124.648 
				16.272,115.533 			"/>
			<polygon style="fill-rule:evenodd;clip-rule:evenodd;fill:#27557D;" points="16.295,115.351 21.897,142.154 12.675,127.449 
				13.886,124.883 11.255,122.785 14.827,116.159 			"/>
			<polygon style="fill-rule:evenodd;clip-rule:evenodd;fill:#CCCCCC;" points="25.475,114.11 21.897,117.92 24.411,124.648 
				27.565,115.497 			"/>
			<polygon style="fill-rule:evenodd;clip-rule:evenodd;fill:#FCB024;" points="20.795,125.439 23.055,125.439 24.23,136.768 
				21.897,142.154 19.651,136.768 			"/>
			<polygon style="fill-rule:evenodd;clip-rule:evenodd;fill:#FFFFFF;" points="18.364,114.146 21.897,117.92 19.327,122.985 
				16.273,115.532 			"/>
			<polygon style="fill-rule:evenodd;clip-rule:evenodd;fill:#3F73A1;" points="16.295,115.351 21.897,142.154 13.571,126.277 
				14.952,124.305 12.289,122.233 14.827,116.159 			"/>
			<polygon style="fill-rule:evenodd;clip-rule:evenodd;fill:#27557D;" points="27.634,115.293 21.897,142.154 31.118,127.449 
				29.906,124.883 32.538,122.785 29.713,116.254 			"/>
			<polygon style="fill-rule:evenodd;clip-rule:evenodd;fill:#3F73A1;" points="27.634,115.293 21.897,142.154 30.222,126.277 
				28.841,124.305 31.504,122.233 29.713,116.254 			"/>
			<polygon style="fill-rule:evenodd;clip-rule:evenodd;fill:#FFFFFF;" points="25.475,114.109 21.897,117.92 24.466,122.985 
				27.565,115.496 			"/>
			<path style="fill-rule:evenodd;clip-rule:evenodd;fill:#FCB024;" d="M20.795,122.75h2.26c0.505,1.047,0.466,1.963,0,2.858h-2.26
				C20.329,124.713,20.29,123.797,20.795,122.75z"/>
			<path style="fill-rule:evenodd;clip-rule:evenodd;fill:#27557D;" d="M21.578,149.68c0.06-1.967,0.208-4.305,0.448-7.812
				c0.241,3.507,0.4,5.846,0.473,7.813C22.193,149.682,21.885,149.682,21.578,149.68z"/>
			<polygon style="fill-rule:evenodd;clip-rule:evenodd;fill:#FFFFFF;" points="14.208,116.164 15.076,124.173 22.035,141.838 
				28.894,124.173 29.762,116.164 26.443,114.029 17.528,114.029 			"/>
			<rect x="17.528" y="111.162" style="fill-rule:evenodd;clip-rule:evenodd;fill:#D1A886;" width="8.837" height="7.2"/>
			<path style="fill-rule:evenodd;clip-rule:evenodd;fill:#F2CAA9;" d="M21.986,115.401c3.483,0,6.707-3.983,8.407-8.862
				c0.1,0.103,0.211,0.167,0.335,0.187c0.693,0.116,1.488-1.186,1.773-2.907c0.286-1.722-0.044-3.21-0.736-3.325
				c-0.049-0.008-0.099-0.01-0.148-0.004c0.339-6.045-2.167-11.63-9.631-11.63c-7.471,0-9.975,5.594-9.63,11.645
				c-0.076-0.019-0.151-0.023-0.226-0.01c-0.693,0.114-1.023,1.603-0.738,3.325c0.286,1.721,1.08,3.023,1.773,2.907
				c0.148-0.024,0.279-0.111,0.391-0.249C15.25,111.384,18.488,115.401,21.986,115.401z"/>
			<path style="fill-rule:evenodd;clip-rule:evenodd;fill:#57291E;" d="M31.617,100.491c0.34-6.045-2.167-11.63-9.631-11.63
				c-7.471,0-9.976,5.594-9.632,11.645c0.604,0.15,1.234,1.257,1.512,2.697c0.487,0.328,0.84,0.137,0.84-1.082
				c0-3.599,0.444-6.787,2.807-7.547c2.249-0.724,2.743,0.864,4.459,0.864c1.716,0,2.257-1.496,4.459-0.864
				c2.286,0.656,2.808,3.949,2.808,7.547c0,1.17,0.325,1.393,0.781,1.119C30.305,101.719,30.985,100.562,31.617,100.491z"/>
			<path style="fill-rule:evenodd;clip-rule:evenodd;fill:#FC8D25;" d="M23.138,122.814l0.484-1.023l-1.637-3.969l-1.611,3.905
				l0.515,1.088C21.639,122.814,22.389,122.814,23.138,122.814z"/>
			<polygon style="fill-rule:evenodd;clip-rule:evenodd;fill:#CCCCCC;" points="17.528,114.029 21.986,117.821 19.484,124.514 
				15.448,115.409 			"/>
			<polygon style="fill-rule:evenodd;clip-rule:evenodd;fill:#27557D;" points="15.448,115.409 21.986,141.933 12.81,127.302 
				14.015,124.749 11.397,122.661 14.208,116.164 			"/>
			<polygon style="fill-rule:evenodd;clip-rule:evenodd;fill:#CCCCCC;" points="26.443,114.029 21.986,117.821 24.488,124.514 
				28.522,115.409 			"/>
			<polygon style="fill-rule:evenodd;clip-rule:evenodd;fill:#FC8D25;" points="20.89,125.302 23.138,125.302 24.307,136.575 
				21.986,141.933 19.751,136.575 			"/>
			<path style="fill-rule:evenodd;clip-rule:evenodd;fill:#57291E;" d="M28.705,92.795c-0.963,1.927-10.671,7.449-13.887,7.702
				C11.602,100.749,14.647,87.803,28.705,92.795z"/>
			<path style="fill-rule:evenodd;clip-rule:evenodd;fill:#57291E;" d="M24.084,92.795c0.415,1.927,4.6,7.449,5.986,7.702
				C31.455,100.749,30.143,87.803,24.084,92.795z"/>
			<polygon style="fill-rule:evenodd;clip-rule:evenodd;fill:#FFFFFF;" points="17.528,114.029 21.986,117.821 19.429,122.86 
				15.448,115.409 			"/>
			<polygon style="fill-rule:evenodd;clip-rule:evenodd;fill:#3F73A1;" points="15.448,115.409 21.986,141.933 13.702,126.135 
				15.076,124.173 12.426,122.113 14.208,116.164 			"/>
			<polygon style="fill-rule:evenodd;clip-rule:evenodd;fill:#27557D;" points="28.522,115.409 21.986,141.933 31.16,127.302 
				29.956,124.749 32.573,122.661 29.762,116.164 			"/>
			<polygon style="fill-rule:evenodd;clip-rule:evenodd;fill:#3F73A1;" points="28.522,115.409 21.986,141.933 30.268,126.135 
				28.894,124.173 31.544,122.113 29.762,116.164 			"/>
			<polygon style="fill-rule:evenodd;clip-rule:evenodd;fill:#FFFFFF;" points="26.443,114.029 21.986,117.821 24.541,122.86 
				28.522,115.409 			"/>
			<path style="fill-rule:evenodd;clip-rule:evenodd;fill:#FC8D25;" d="M20.89,122.627h2.249c0.502,1.042,0.463,1.953,0,2.843H20.89
				C20.426,124.58,20.386,123.668,20.89,122.627z"/>
			<path style="fill-rule:evenodd;clip-rule:evenodd;fill:#27557D;" d="M21.42,149.679c0.369,0.002,0.737,0.003,1.105,0.002
				c0.136-1.902-0.271-6.973-0.552-7.811C21.692,142.541,21.286,147.677,21.42,149.679z"/>
		</g>
		<g>
			<path style="fill-rule:evenodd;clip-rule:evenodd;fill:#4C6173;" d="M166.963,45.241c4.331-1.034,10.365-3.486,11.152,0.018
				c0.936,4.166,2.09,14.041,3.301,23.633c0.261,2.068-2.39,3.14-3.05,3.34c-2.951,0.892-5.484,1.17-8.75,1.611l-2.665-28.584
				C166.95,45.251,166.958,45.243,166.963,45.241z"/>
			<path style="fill-rule:evenodd;clip-rule:evenodd;fill:#4C6173;" d="M153.808,45.241c-5.472-1.305-9.819-4.349-10.774-0.053
				c-1,4.498-2.094,14.353-3.25,23.558c-0.296,2.358,2.159,3.371,2.955,3.578c2.832,0.735,5.274,1.096,8.416,1.52l2.665-28.584
				C153.82,45.251,153.811,45.242,153.808,45.241z"/>
			<path style="fill-rule:evenodd;clip-rule:evenodd;fill:#27557D;" d="M149.544,73.285l-0.142,0.336
				c6.74,0.853,15.029,0.867,21.79,0.045c-0.062-0.137-0.123-0.264-0.182-0.38H149.544z"/>
			<path style="fill-rule:evenodd;clip-rule:evenodd;fill:#688096;" d="M146.836,73.216c1.495-4.31-1.917-24.491-3.802-28.203
				c1.072-3.81,11.052-4.652,13.709-6.817c1.26,1.108,2.158,1.361,3.587,1.361c1.429,0,2.373-0.289,3.633-1.398
				c1.966,1.602,12.268,2.851,14.03,6.662c-2.006,4.251-5.685,24.498-4.092,28.375C167.191,74.516,153.74,74.61,146.836,73.216z"/>
			<polygon style="fill-rule:evenodd;clip-rule:evenodd;fill:#FFFFFF;" points="153.6,40.027 153.281,48.51 160.381,66.534 
				167.38,48.51 166.945,39.794 163.963,38.159 156.744,38.197 			"/>
			<rect x="156.745" y="35.233" style="fill-rule:evenodd;clip-rule:evenodd;fill:#D1A886;" width="7.092" height="7.347"/>
			<path style="fill-rule:evenodd;clip-rule:evenodd;fill:#FCB024;" d="M161.507,47.121l0.494-1.044l-1.67-4.049l-1.643,3.983
				l0.524,1.109C159.977,47.121,160.742,47.121,161.507,47.121z"/>
			<polygon style="fill-rule:evenodd;clip-rule:evenodd;fill:#CCCCCC;" points="156.742,38.197 160.33,42.028 157.778,48.857 
				154.621,39.605 			"/>
			<polygon style="fill-rule:evenodd;clip-rule:evenodd;fill:#27557D;" points="154.644,39.419 160.33,66.629 150.969,51.702 
				152.199,49.096 149.527,46.966 153.154,40.24 			"/>
			<polygon style="fill-rule:evenodd;clip-rule:evenodd;fill:#CCCCCC;" points="163.963,38.16 160.33,42.028 162.883,48.857 
				166.085,39.568 			"/>
			<polygon style="fill-rule:evenodd;clip-rule:evenodd;fill:#FCB024;" points="159.212,49.66 161.507,49.66 162.699,61.163 
				160.33,66.629 158.051,61.163 			"/>
			<polygon style="fill-rule:evenodd;clip-rule:evenodd;fill:#FFFFFF;" points="156.744,38.196 160.33,42.028 157.722,47.17 
				154.622,39.604 			"/>
			<polygon style="fill-rule:evenodd;clip-rule:evenodd;fill:#3F73A1;" points="154.644,39.419 160.33,66.629 151.879,50.512 
				153.281,48.51 150.577,46.407 153.154,40.24 			"/>
			<polygon style="fill-rule:evenodd;clip-rule:evenodd;fill:#27557D;" points="166.155,39.361 160.33,66.629 169.692,51.702 
				168.462,49.096 171.134,46.966 168.265,40.337 			"/>
			<polygon style="fill-rule:evenodd;clip-rule:evenodd;fill:#3F73A1;" points="166.155,39.361 160.33,66.629 168.782,50.512 
				167.38,48.51 170.083,46.407 168.265,40.337 			"/>
			<polygon style="fill-rule:evenodd;clip-rule:evenodd;fill:#FFFFFF;" points="163.963,38.159 160.33,42.028 162.939,47.17 
				166.085,39.567 			"/>
			<path style="fill-rule:evenodd;clip-rule:evenodd;fill:#FCB024;" d="M159.212,46.932h2.294c0.513,1.063,0.473,1.993,0,2.901
				h-2.294C158.739,48.924,158.699,47.995,159.212,46.932z"/>
			<path style="fill-rule:evenodd;clip-rule:evenodd;fill:#27557D;" d="M160.008,74.27c0.06-1.997,0.211-4.371,0.455-7.931
				c0.244,3.56,0.406,5.934,0.479,7.931C160.631,74.272,160.32,74.271,160.008,74.27z"/>
			<polygon style="fill-rule:evenodd;clip-rule:evenodd;fill:#FFFFFF;" points="152.526,40.245 153.406,48.376 160.471,66.309 
				167.435,48.376 168.316,40.245 164.946,38.078 155.896,38.078 			"/>
			<rect x="155.895" y="35.167" style="fill-rule:evenodd;clip-rule:evenodd;fill:#D1A886;" width="8.972" height="7.309"/>
			<path style="fill-rule:evenodd;clip-rule:evenodd;fill:#F2CAA9;" d="M160.421,39.47c3.536,0,6.809-4.043,8.535-8.996
				c0.101,0.104,0.214,0.17,0.341,0.19c0.704,0.117,1.51-1.204,1.8-2.952c0.29-1.747-0.045-3.258-0.748-3.375
				c-0.05-0.008-0.1-0.009-0.151-0.003c0.345-6.137-2.199-11.807-9.777-11.807c-7.583,0-10.126,5.679-9.776,11.821
				c-0.077-0.019-0.153-0.023-0.229-0.011c-0.704,0.117-1.039,1.628-0.749,3.375c0.291,1.747,1.096,3.069,1.799,2.952
				c0.15-0.025,0.283-0.113,0.398-0.253C153.583,35.393,156.87,39.47,160.421,39.47z"/>
			<path style="fill-rule:evenodd;clip-rule:evenodd;fill:#B55C46;" d="M170.199,24.335c0.345-6.137-2.201-11.807-9.778-11.807
				c-7.583,0-10.127,5.679-9.777,11.821c0.613,0.153,1.253,1.276,1.535,2.738c0.495,0.333,0.852,0.139,0.852-1.099
				c0-3.652,0.452-6.889,2.85-7.661c2.283-0.735,2.785,0.877,4.527,0.877c1.742,0,2.29-1.519,4.526-0.877
				c2.32,0.665,2.85,4.009,2.85,7.661c0,1.188,0.33,1.414,0.793,1.137C168.867,25.581,169.556,24.406,170.199,24.335z"/>
			<path style="fill-rule:evenodd;clip-rule:evenodd;fill:#93B9DB;" d="M161.591,46.995l0.492-1.039l-1.662-4.029l-1.634,3.964
				l0.521,1.104C160.069,46.995,160.83,46.995,161.591,46.995z"/>
			<polygon style="fill-rule:evenodd;clip-rule:evenodd;fill:#CCCCCC;" points="155.896,38.078 160.421,41.927 157.881,48.722 
				153.784,39.479 			"/>
			<polygon style="fill-rule:evenodd;clip-rule:evenodd;fill:#4C6173;" points="153.784,39.479 160.421,66.405 151.106,51.552 
				152.33,48.96 149.672,46.841 152.526,40.245 			"/>
			<polygon style="fill-rule:evenodd;clip-rule:evenodd;fill:#CCCCCC;" points="164.946,38.078 160.421,41.927 162.961,48.722 
				167.057,39.479 			"/>
			<polygon style="fill-rule:evenodd;clip-rule:evenodd;fill:#93B9DB;" points="159.308,49.522 161.591,49.522 162.778,60.965 
				160.421,66.405 158.153,60.965 			"/>
			<path style="fill-rule:evenodd;clip-rule:evenodd;fill:#B55C46;" d="M168.567,18.288c-0.979,1.957-9.067,6.679-12.331,6.935
				c1.464-1.362,4.906-5.397,4.467-5.608c-0.488-0.234-5.698,3.833-8.479,4.769C151.657,12.602,160.189,12.979,168.567,18.288z"/>
			<path style="fill-rule:evenodd;clip-rule:evenodd;fill:#B55C46;" d="M163.966,16.333c0.422,1.957,3.254,7.751,4.662,8.007
				C170.034,24.596,170.117,11.266,163.966,16.333z"/>
			<polygon style="fill-rule:evenodd;clip-rule:evenodd;fill:#FFFFFF;" points="155.896,38.078 160.421,41.927 157.825,47.043 
				153.784,39.479 			"/>
			<polygon style="fill-rule:evenodd;clip-rule:evenodd;fill:#688096;" points="153.784,39.479 160.421,66.405 152.011,50.368 
				153.406,48.376 150.717,46.284 152.526,40.245 			"/>
			<polygon style="fill-rule:evenodd;clip-rule:evenodd;fill:#4C6173;" points="167.057,39.479 160.421,66.405 169.735,51.552 
				168.511,48.96 171.169,46.841 168.316,40.245 			"/>
			<polygon style="fill-rule:evenodd;clip-rule:evenodd;fill:#688096;" points="167.057,39.479 160.421,66.405 168.829,50.368 
				167.435,48.376 170.124,46.284 168.316,40.245 			"/>
			<polygon style="fill-rule:evenodd;clip-rule:evenodd;fill:#FFFFFF;" points="164.946,38.078 160.421,41.927 163.016,47.043 
				167.057,39.479 			"/>
			<path style="fill-rule:evenodd;clip-rule:evenodd;fill:#93B9DB;" d="M159.308,46.806h2.283c0.51,1.058,0.47,1.983,0,2.886h-2.283
				C158.838,48.789,158.798,47.864,159.308,46.806z"/>
			<path style="fill-rule:evenodd;clip-rule:evenodd;fill:#27557D;" d="M159.847,74.269c0.374,0.002,0.748,0.003,1.122,0.001
				c0.137-1.931-0.277-7.079-0.562-7.93C160.123,67.022,159.711,72.236,159.847,74.269z"/>
		</g>
	</g>
</g>
</svg>
