<?xml version="1.0" encoding="utf-8"?>
<!-- Generator: Adobe Illustrator 17.0.0, SVG Export Plug-In . SVG Version: 6.00 Build 0)  -->
<!DOCTYPE svg PUBLIC "-//W3C//DTD SVG 1.1//EN" "http://www.w3.org/Graphics/SVG/1.1/DTD/svg11.dtd">
<svg version="1.1" id="Livello_1" xmlns="http://www.w3.org/2000/svg" xmlns:xlink="http://www.w3.org/1999/xlink" x="0px" y="0px"
	 width="91.924px" height="26.026px" viewBox="0 0 91.924 26.026" enable-background="new 0 0 91.924 26.026" xml:space="preserve">
<path fill="#B13B23" d="M91.919,15.223c-0.31-2.574-4.091-2.219-6.358-0.355l0.667-1.019c1.201-1.776-2.134-1.332-2.533-0.711
	l-3.602,4.66c-2.802,2.086-6.003,5.191-9.025,6.525c-0.179,0.086-0.311,0.131-0.489,0.176c-2.934,1.109-4.001-0.311-4.045-1.065
	c-0.133-0.889,0-1.863,0.711-2.621c1.2,0.09,2.534-0.131,3.823-0.576c1.689-0.574,3.29-1.553,4.446-2.928
	c2.313-2.574,0.444-4.127-1.689-4.305c-0.801-0.09-1.734,0.221-2.757,0.754c-2.356,1.242-4.935,3.861-6.491,5.904l-4.846,4.305
	c-1.6,1.506-2.934,0.754-2.399-0.312l5.779-11.006c-0.935,0-1.778,0-2.668,0l-3.156,5.77c-2.09,1.643-5.068,4.838-7.736,6.035
	c-1.999,0.844-1.601-1.02-0.977-1.996l5.381-8.922H56.4l0.754-1.02h-2.801l2.711-4.793c0.312-0.578-1.6-0.978-2.267,0.088
	l-3.513,5.459c-1.287,0.932-3.244,3.195-3.91,2.309c0.354-1.109-0.225-2.043-0.891-2.219c-0.4-0.178-0.844-0.268-1.244-0.268
	c-0.846-0.045-1.602,0.178-2.268,0.621c-0.801-0.887-1.468-1.109-2.001-0.977c-0.489,0.133-0.845,0.533-1.111,0.977l-4.224,6.658
	c-1.467,1.73-3.379,2.885-4.89,3.727c-1.2,0.713-3.69,0.756-2.712-0.887l6.046-10.029h-2.445l-1.245,1.73
	c-0.267-1.953-1.511-2.441-2.801-2.397c-1.245,0.088-2.357,0.354-3.29,0.754c-3.29,1.42-5.157,4.57-7.292,7.543
	c-3.867,2.621-7.735,4.795-11.069,3.998c-2.534-0.623-3.957-3.686-2.534-8.213c1.823-5.281,5.291-9.764,10.136-13.713
	c4.402-3.55,9.425-1.996,10.759,0.71c0.267,0.577,0.4,1.198,0.311,1.819l3.112-4.305c-1.2,0.088-2.312,0.178-3.423,0.266
	c-0.045,0-0.045,0-0.045,0C23.187,0.844,20.297,0,19.007,0C12.427,0.177,6.781,6.302,4.025,9.809
	c-4.712,6.125-6.18,14.158,0.533,16.02c3.112,0.844,8.581-1.107,12.137-3.904c-0.355,2.264,0.223,3.549,2.312,3.904
	c1.822,0.133,3.601-0.355,5.29-1.463c0.445-0.311,0.889-0.666,1.334-1.064c-0.134,1.73,1.156,2.484,2.223,2.396
	c2.445-0.225,4.846-1.6,6.802-3.24l-1.778,3.24h2.401l5.424-9.1c0.089-0.133,0.178-0.266,0.267-0.399
	c1.155-1.598,3.157-2.486,4.269-2.351c0.4,0.043,0.666,0.221,0.8,0.486c-0.311,0.09-0.622,0.223-0.8,0.4
	c-0.534,0.488-0.623,1.242-0.223,1.998c0.044,0.133,0.133,0.221,0.223,0.311c0.934,0.887,3.6-0.488,5.111-2.043l-4.4,7.768
	c-0.4,1.287-0.134,2.883,1.557,2.93c3.512,0.131,6.268-3.375,8.979-5.504l-1.599,3.328c-0.534,1.289,0.666,2.307,2.044,2.176
	c2.623-0.178,4.402-1.955,6.714-3.906c0,1.73,0.4,3.373,2.223,3.859c1.778,0.445,3.513,0.047,5.201-0.754
	c1.067-0.488,2.046-1.064,3.112-1.773c1.513-1.242,3.335-2.531,4.935-3.729l-3.422,6.303h2.934l4.045-6.969
	c1.378-2.264,4.758-4.926,6.669-4.527c-0.444,1.021-1.334,2.353,1.022,2.531C91.073,16.775,92.006,15.666,91.919,15.223
	L91.919,15.223z M71.067,15.09c0.356-0.268,0.623-0.533,0.979-0.799c1.688-1.199,3.334,0.443,2.133,2.041
	c-0.933,1.33-1.956,2.264-3.112,2.84c-0.978,0.443-2.133,0.666-3.467,0.621C68.578,18.062,69.689,16.42,71.067,15.09L71.067,15.09z
	 M24.298,23.301c-1.778,1.42-3.512,2.219-4.49,1.33c-1.912-1.732,1.2-6.746,4.49-9.275c1.734-1.375,3.513-2.041,4.579-1.064
	C30.567,15.754,27.454,20.635,24.298,23.301L24.298,23.301z M62.977,7.678c0.934,0,1.688,0.754,1.688,1.687
	s-0.755,1.686-1.688,1.686c-0.89,0-1.646-0.754-1.646-1.686S62.088,7.678,62.977,7.678L62.977,7.678z"/>
</svg>
