<?xml version="1.0" encoding="utf-8"?>
<!-- Generator: Adobe Illustrator 17.0.0, SVG Export Plug-In . SVG Version: 6.00 Build 0)  -->
<!DOCTYPE svg PUBLIC "-//W3C//DTD SVG 1.1//EN" "http://www.w3.org/Graphics/SVG/1.1/DTD/svg11.dtd">
<svg version="1.1" id="图层_3" xmlns="http://www.w3.org/2000/svg" xmlns:xlink="http://www.w3.org/1999/xlink" x="0px" y="0px"
	 width="75.376px" height="157.829px" viewBox="0 0 75.376 157.829" enable-background="new 0 0 75.376 157.829"
	 xml:space="preserve">
<g id="iPhone">
	<g>
		<path fill="#CACACA" d="M63.084,157.829c6.264,0,11.359-5.096,11.359-11.359V12.293c0-6.264-5.095-11.36-11.359-11.36H11.363
			c-6.264,0-11.36,5.096-11.36,11.36V146.47c0,6.263,5.096,11.359,11.36,11.359H63.084L63.084,157.829z"/>
		<path fill="#F0F0F0" d="M63.084,157.12c5.873,0,10.651-4.778,10.651-10.65V12.293c0-5.874-4.778-10.651-10.651-10.651H11.363
			C5.49,1.642,0.712,6.42,0.712,12.293V146.47c0,5.873,4.778,10.65,10.651,10.65H63.084z"/>
		<g>
			<path fill="#CACACA" d="M26.295,5.45c-1.461,0-2.646,1.184-2.646,2.647v3.005c0,1.462,1.185,2.647,2.646,2.647
				c1.462,0,2.646-1.185,2.646-2.647V8.097C28.942,6.634,27.758,5.45,26.295,5.45z"/>
			<path fill="#B1B1B1" d="M26.295,6.248c-1.018,0-1.848,0.83-1.848,1.848v3.005c0,1.02,0.83,1.848,1.848,1.848
				c1.019,0,1.848-0.828,1.848-1.848V8.096C28.144,7.078,27.315,6.248,26.295,6.248z"/>
		</g>
		<g>
			<rect x="0" y="146.177" fill="#888A9A" width="0.709" height="0.472"/>
			<rect x="73.735" y="146.149" fill="#888A9A" width="0.708" height="0.472"/>
			<rect x="0.004" y="14.467" fill="#888A9A" width="0.709" height="0.473"/>
		</g>
		<path fill="#CACACA" d="M12.376,0.237c0-0.13,0.107-0.237,0.237-0.237h11.736c0.13,0,0.237,0.107,0.237,0.237v0.696H12.375V0.237
			H12.376z"/>
		<rect x="12.376" y="0.696" opacity="0.1" enable-background="new    " width="12.21" height="0.237"/>
		<path fill="#CACACA" d="M75.139,36.29c0.13,0,0.237,0.106,0.237,0.237v4.864c0,0.13-0.106,0.237-0.237,0.237h-0.696V36.29H75.139z
			"/>
		<rect x="74.443" y="36.29" opacity="0.1" enable-background="new    " width="0.237" height="5.338"/>
		<path fill="#CACACA" d="M75.139,21.562c0.13,0,0.237,0.107,0.237,0.237v6.69c0,0.13-0.106,0.237-0.237,0.237h-0.696v-7.165
			L75.139,21.562L75.139,21.562z"/>
		<rect x="74.443" y="21.562" opacity="0.1" enable-background="new    " width="0.237" height="7.165"/>
		<path fill="#CACACA" d="M75.139,49.337c0.13,0,0.237,0.107,0.237,0.237v4.864c0,0.13-0.106,0.237-0.237,0.237h-0.696v-5.338
			C74.443,49.337,75.139,49.337,75.139,49.337z"/>
		<rect x="74.443" y="49.337" opacity="0.1" enable-background="new    " width="0.237" height="5.338"/>
	</g>
	<rect x="0.718" y="15.9" fill="#B1B1B1" width="73.012" height="127.008"/>
	<g>
		<g>
			<path fill="#CACACA" d="M37.106,34.178c-0.117-0.689,0.015-1.367,0.219-1.865c0.212-0.513,0.517-0.94,0.858-1.315
				c0.592-0.652,1.326-1.208,2.382-1.42c0.075-0.015,0.155-0.03,0.234-0.04c0.085-0.01,0.185-0.037,0.259-0.035
				c0.035,0.001,0.019,0.009,0.025,0.045c0.023,0.134,0.02,0.31,0.02,0.458c0,1.231-0.464,2.109-1.052,2.761
				c-0.352,0.392-0.741,0.733-1.201,0.978C38.359,34.005,37.866,34.171,37.106,34.178z"/>
			<path fill="#CACACA" d="M44.991,35.838c-0.614,0.428-1.15,0.93-1.56,1.575c-0.404,0.634-0.683,1.45-0.598,2.507
				c0.076,0.954,0.428,1.663,0.901,2.233c0.478,0.575,1.078,1.016,1.77,1.366c0,0.003,0,0.007,0,0.01
				c-0.469,1.337-1.111,2.48-1.943,3.458c-0.404,0.476-0.854,0.956-1.396,1.307c-0.269,0.173-0.59,0.335-0.957,0.393
				c-0.405,0.066-0.804-0.023-1.167-0.129c-0.358-0.105-0.672-0.231-0.997-0.354c-0.327-0.124-0.65-0.246-1.066-0.284
				c-0.435-0.04-0.863-0.003-1.231,0.08c-0.369,0.081-0.704,0.192-1.022,0.323c-0.465,0.192-0.958,0.422-1.635,0.384
				c-0.617-0.035-1.071-0.278-1.456-0.568c-0.765-0.576-1.325-1.355-1.839-2.208c-0.681-1.131-1.247-2.357-1.579-3.823
				c-0.167-0.732-0.275-1.531-0.275-2.422c0-1.776,0.53-3.092,1.345-4.052c0.771-0.909,1.843-1.561,3.38-1.685
				c0.705-0.057,1.403,0.028,1.929,0.204c0.45,0.151,0.846,0.372,1.305,0.508c0.256,0.077,0.53,0.094,0.797,0.05
				c0.257-0.042,0.484-0.128,0.698-0.209c0.46-0.175,0.874-0.344,1.366-0.449c0.487-0.103,1.097-0.154,1.674-0.109
				c1.61,0.125,2.655,0.813,3.459,1.759C44.93,35.743,45.005,35.813,44.991,35.838z"/>
		</g>
	</g>
	<g>
		<circle fill="#CACACA" cx="10.287" cy="9.531" r="4.081"/>
		<path fill="#B1B1B1" d="M10.288,12.586c-1.684,0-3.055-1.369-3.055-3.055c0-1.684,1.371-3.055,3.055-3.055
			s3.055,1.371,3.055,3.055C13.342,11.217,11.972,12.586,10.288,12.586z"/>
	</g>
	<g>
		<path fill="#CACACA" d="M19.775,8.429h-1.782c-0.608,0-1.102,0.494-1.102,1.102c0,0.609,0.494,1.102,1.102,1.102h1.782
			c0.608,0,1.102-0.493,1.102-1.102C20.878,8.923,20.384,8.429,19.775,8.429z"/>
		<path fill="#B1B1B1" d="M17.994,10.161c-0.347,0-0.629-0.282-0.629-0.63c0-0.347,0.282-0.629,0.629-0.629h1.782
			c0.347,0,0.63,0.282,0.63,0.629c0,0.348-0.283,0.63-0.63,0.63H17.994z"/>
	</g>
</g>
</svg>
