<?xml version="1.0" encoding="utf-8"?>
<!-- Generator: Adobe Illustrator 17.0.0, SVG Export Plug-In . SVG Version: 6.00 Build 0)  -->
<!DOCTYPE svg PUBLIC "-//W3C//DTD SVG 1.1//EN" "http://www.w3.org/Graphics/SVG/1.1/DTD/svg11.dtd">
<svg version="1.1" id="图层_1" xmlns="http://www.w3.org/2000/svg" xmlns:xlink="http://www.w3.org/1999/xlink" x="0px" y="0px"
	 width="21.593px" height="30.875px" viewBox="0 0 21.593 30.875" enable-background="new 0 0 21.593 30.875" xml:space="preserve">
<path fill="#009EFF" d="M0.002,11.811c0.052-0.107,0.093-0.195,0.137-0.281C1.81,8.275,3.487,5.023,5.147,1.763
	c0.41-0.806,1.071-1.17,1.957-1.173c2.57-0.008,5.14-0.003,7.709-0.003c1.027,0,2.053-0.012,3.079,0.004
	c1.079,0.017,2.115-0.174,3.123-0.536c0.087-0.031,0.182-0.067,0.27-0.061c0.268,0.02,0.403,0.281,0.275,0.526
	c-0.506,0.965-1.002,1.935-1.525,2.891c-0.38,0.693-1.008,1.039-1.806,1.042c-2.843,0.009-5.687,0.004-8.531,0.003
	c-0.94,0-1.605,0.413-2.018,1.239c-0.394,0.788-0.81,1.567-1.216,2.35c-0.041,0.08-0.079,0.162-0.129,0.266
	C6.918,8.427,7.476,8.534,8.032,8.65c1.704,0.354,3.406,0.718,5.009,1.416c2.362,1.028,4.319,2.52,5.665,4.707
	c0.805,1.308,1.292,2.724,1.419,4.248c0.291,3.523-1.038,6.392-3.742,8.679c-1.842,1.557-4.009,2.464-6.393,2.896
	c-1.399,0.254-2.811,0.342-4.231,0.226c-1.597-0.131-3.121-0.533-4.559-1.233c-0.026-0.013-0.05-0.031-0.134-0.083
	c0.276,0.025,0.488,0.045,0.7,0.062c2.178,0.171,4.312-0.041,6.383-0.742c1.801-0.61,3.422-1.507,4.702-2.917
	c1.057-1.164,1.676-2.524,1.885-4.067c0.288-2.132-0.509-3.893-1.957-5.422c-1.459-1.54-3.264-2.544-5.29-3.201
	c-1.561-0.506-3.161-0.856-4.787-1.088c-0.842-0.12-1.692-0.195-2.539-0.29C0.119,11.836,0.076,11.825,0.002,11.811z"/>
</svg>
