<?xml version="1.0" encoding="utf-8"?>
<!-- Generator: Adobe Illustrator 17.0.0, SVG Export Plug-In . SVG Version: 6.00 Build 0)  -->
<!DOCTYPE svg PUBLIC "-//W3C//DTD SVG 1.1//EN" "http://www.w3.org/Graphics/SVG/1.1/DTD/svg11.dtd">
<svg version="1.1" id="图层_1" xmlns="http://www.w3.org/2000/svg" xmlns:xlink="http://www.w3.org/1999/xlink" x="0px" y="0px"
	 width="64px" height="64px" viewBox="0 0 64 64" enable-background="new 0 0 64 64" xml:space="preserve">
<path fill="#C75C5C" d="M32,0c17.673,0,32,14.327,32,32S49.673,64,32,64S0,49.673,0,32S14.327,0,32,0z"/>
<path opacity="0.2" fill="#231F20" d="M16.954,50c-4.4,0-6.2-3.118-4-6.928L28,17.012c2.2-3.811,5.8-3.811,8,0l15.046,26.06
	c2.2,3.811,0.4,6.928-4,6.928H16.954z"/>
<path fill="#F5CF87" d="M16.954,48c-4.4,0-6.2-3.118-4-6.928L28,15.012c2.2-3.811,5.8-3.811,8,0l15.046,26.06
	c2.2,3.811,0.4,6.928-4,6.928H16.954z"/>
<path fill="#4F5D73" d="M34,32c0,1.105-0.895,2-2,2l0,0c-1.105,0-2-0.895-2-2v-8c0-1.105,0.895-2,2-2l0,0c1.105,0,2,0.895,2,2V32z
	 M34,40c0,1.105-0.895,2-2,2l0,0c-1.105,0-2-0.895-2-2l0,0c0-1.105,0.895-2,2-2l0,0C33.105,38,34,38.895,34,40L34,40z"/>
</svg>
