<?xml version="1.0" encoding="utf-8"?>
<!-- Generator: Adobe Illustrator 16.0.0, SVG Export Plug-In . SVG Version: 6.00 Build 0)  -->
<!DOCTYPE svg PUBLIC "-//W3C//DTD SVG 1.1//EN" "http://www.w3.org/Graphics/SVG/1.1/DTD/svg11.dtd">
<svg version="1.1" id="Layer_1" xmlns="http://www.w3.org/2000/svg" xmlns:xlink="http://www.w3.org/1999/xlink" x="0px" y="0px"
	 width="246.647px" height="199.784px" viewBox="0 0 246.647 199.784" enable-background="new 0 0 246.647 199.784"
	 xml:space="preserve">
<path fill="#903A17" d="M129.445,124.297c-2.153-4.318-5.562-11.818-2.889-15.499c2.976-4.101,12.325-0.017,16.509,1.68
	c10.097,4.089,22.557,30.599,8.94,32.858C143.368,144.764,134.175,133.793,129.445,124.297z"/>
<path fill="#B9BE00" d="M229.943,145.591c-3.689-2.574-7.885-4.87-12.075-6.906c-4.222-2.041-8.571-3.835-13.003-5.389
	c-8.868-3.106-18.074-5.255-27.402-6.4c-18.67-2.322-37.775-0.482-55.824,4.911c-18.082,5.365-35.087,14.138-50.638,24.925
	c-15.571,10.803-29.756,23.59-42.773,37.443c-0.97,1.033-2.594,1.083-3.626,0.114c-0.986-0.928-1.076-2.453-0.234-3.487l0.117-0.142
	c1.531-1.873,3.084-3.732,4.658-5.574c1.597-1.822,3.229-3.612,4.876-5.394c3.299-3.558,6.688-7.044,10.171-10.447
	c7.036-6.726,14.48-13.09,22.412-18.86c7.887-5.837,16.303-11.005,25.073-15.563c8.787-4.528,18.032-8.244,27.551-11.144
	c9.545-2.817,19.396-4.691,29.343-5.52c9.951-0.704,19.996-0.506,29.842,1.022c4.922,0.747,9.805,1.72,14.599,3.017
	c4.789,1.31,9.503,2.865,14.105,4.681c4.582,1.879,9.052,3.999,13.38,6.372c2.165,1.189,4.294,2.438,6.377,3.77
	c2.073,1.378,4.067,2.772,6.077,4.403l0.083,0.068c1.101,0.893,1.27,2.511,0.375,3.612
	C232.555,146.154,231.037,146.35,229.943,145.591z"/>
<path fill="#57A02E" d="M56.856,199.784c-21.978-14.252-7.294-23.881-7.294-23.881C67.152,178.164,56.856,199.784,56.856,199.784z"
	/>
<path fill="#57A02E" d="M177.03,143.948c-24.161-6.546-13.614-19.6-13.614-19.6C180.081,121.265,177.03,143.948,177.03,143.948z"/>
<path fill="#92B018" d="M36.121,177.067c0,0-12.074,22.936-36.121-7.339C0,169.728,30.311,151.542,36.121,177.067z"/>
<path fill="#57A02E" d="M65.112,155.677c0,0-13.855,15.615-26.839-12.691C38.273,142.986,65.477,134.594,65.112,155.677z"/>
<path fill="#92B018" d="M246.647,111.348c-8.558,37.704-29.375,22.265-29.375,22.265
	C211.452,108.091,246.647,111.348,246.647,111.348z"/>
<path fill="#57A02E" d="M207.005,102.587c0.483,26.868-16.131,19.904-16.131,19.904C182.708,106.23,207.005,102.587,207.005,102.587
	z"/>
<path fill="#97471E" d="M44.624,125.918c-7.224-6.992,3.164-25.247,13.424-20.722c5.071-2.531,10.923-6.472,15.702-2.913
	C87.843,112.791,55.452,136.406,44.624,125.918z"/>
<path fill="#9F5529" d="M46.508,42.659c5.827-10.144,20.828-18.221,32.339-10.281C89,39.381,92.453,60.459,77.533,59.545
	c-8.043-0.485-2.024-7.747-1.896-12.013c0.477-16.076-17.579-8.067-22.112,0.471c-8.043,15.144,2.273,28.341,13.814,38.258
	c3.562-4.812,9.535-7.517,17.759-6.604c9.898,1.095,19.907,5.428,29.899,4.031c7.831-1.094,12.75-6.357,20.678-2.526
	c14.031,6.775,33.473,29.762,10.235,47.512c-3.596,2.747-7.826,4.421-12.431,5.43c-0.539,3.494-0.994,7.1-0.931,10.713
	c15.119-5.827,11.068,20.785-7.146,17.432c-11.21-2.064-11.487-15.856-10.837-26.839c-3.643-0.093-14.275-3.742-17.904-3.914
	c-2.83,4.796-3.828,7.41-7.114,11.455c12.95,16.403-12.474,24.773-24.336,9.537c-4.977-6.392,2.168-18.229,9.36-26.721
	c-8.654-4.672-11.872-8.838-14.073-19.886c-0.656-3.293,2.799-6.474,3.109-9.418c-9.583-5.847-18.143-13.931-20.898-24.795
	C40.17,61.654,41.127,52.025,46.508,42.659z"/>
<path fill="#AD672E" d="M128.217,87.164c14.27,1.769,31.757,12.637,24.953,30.079c-5.659,14.507-23.35,14.938-35.553,13.051
	c-13.641-2.112-31.147-3.572-40.887-13.169c-8.115-7.998-9.922-26.012,3.396-34.566c6.775-4.351,13.7,0.342,20.3,1.847
	C109.401,86.449,119.032,86.025,128.217,87.164z"/>
<path fill="#9F5529" d="M221.98,63.192c-1.104,7.832-8.463,13.264-16.433,12.141c-7.971-1.128-13.535-8.387-12.429-16.218
	c1.106-7.828,8.464-13.261,16.434-12.134C217.521,48.104,223.085,55.362,221.98,63.192z"/>
<path fill="#F9C385" d="M216.12,63.01c-0.798,5.646-6.531,9.5-12.804,8.616c-6.274-0.887-10.716-6.182-9.918-11.826
	c0.795-5.643,6.529-9.5,12.804-8.615C212.476,52.073,216.918,57.365,216.12,63.01z"/>
<path fill="#9F5529" d="M207.405,64.364c-4.344,30.759-33.482,52.074-65.078,47.609c-22.505-3.177-40.178-18.58-46.923-38.292
	c-2.512,1.04-5.331,1.46-8.236,1.05c-8.527-1.206-14.481-8.973-13.297-17.353c1.183-8.378,9.055-14.193,17.584-12.99
	c0.729,0.103,1.429,0.269,2.115,0.465c5.912-28.937,34.053-48.562,64.49-44.263C189.655,5.051,211.748,33.605,207.405,64.364z"/>
<path fill="#AD672E" d="M143.169,106.017c-19.666-2.777-35.788-15.914-42.071-34.285c-0.537-1.57-1.701-2.853-3.215-3.535
	c-0.654-0.297-1.353-0.47-2.057-0.52c-0.92-0.063-1.854,0.083-2.724,0.445c-1.416,0.585-2.897,0.827-4.406,0.724
	c-0.227-0.017-0.456-0.04-0.685-0.072c-2.554-0.359-4.813-1.669-6.359-3.688c-1.521-1.986-2.17-4.424-1.823-6.866
	c0.677-4.807,5.104-8.296,10.078-7.948c0.235,0.017,0.471,0.041,0.713,0.075c0.365,0.051,0.783,0.147,1.311,0.296
	c0.401,0.114,0.811,0.183,1.22,0.211c1.233,0.088,2.475-0.21,3.548-0.861c1.431-0.87,2.433-2.294,2.767-3.938
	c5.016-24.553,28.214-41.711,53.961-39.907c1.26,0.087,2.536,0.222,3.793,0.399c28.261,3.995,48.101,29.551,44.229,56.976
	c-3.664,25.936-27.598,44.779-54.487,42.896C145.702,106.331,144.426,106.196,143.169,106.017z"/>
<path fill="#F9C385" d="M94.038,60.229c-0.814,5.768-0.329,10.607-6.203,9.777c-5.871-0.831-9.973-6.18-9.156-11.951
	c0.816-5.767,6.236-9.771,12.108-8.943C96.658,49.943,94.854,54.46,94.038,60.229z"/>
<path fill="#F9C385" d="M206.56,68.865c-6.414,28.302-34.205,47.353-64.232,43.108c-17.799-2.512-32.581-12.669-41.323-26.561
	c-0.186-11.34,3.687-22.52,14.202-27.848c-5.767-18.273,6.827-38.594,27.87-29.731c4.544,1.915,8.149,5.494,11.277,9.218
	c6.571-8.078,18.919-14.577,29.3-9.233c0,0,14.773,6.877,8.655,24.601C192.309,52.418,207.566,54.78,206.56,68.865z"/>
<path fill="#FFFFFF" d="M137.463,76.946c0,0,21.644-8.818,41.467-2.921c0,0,0.475,25.888-19.808,26.895
	C159.122,100.919,137.574,101.751,137.463,76.946z"/>
<path fill="#7F4F21" d="M138.098,54.777c-0.195,3.948-2.186,7.061-4.44,6.948c-2.256-0.113-3.926-3.405-3.729-7.354
	c0.194-3.947,2.185-7.058,4.441-6.945C136.625,47.537,138.294,50.829,138.098,54.777z M165.763,60.953
	c0.144,2.341-2.94,4.433-6.892,4.673c-3.947,0.243-7.267-1.462-7.407-3.801c-0.143-2.339,2.944-4.432,6.894-4.672
	C162.305,56.911,165.62,58.614,165.763,60.953z M172.213,55.211l-0.901-0.562c2.256-3.606,4.712-5.396,7.258-5.327
	c4.16,0.116,6.965,5.122,7.083,5.336l-0.93,0.512c-0.024-0.047-2.634-4.69-6.186-4.786C176.373,50.298,174.253,51.95,172.213,55.211
	z"/>
</svg>
