<?xml version="1.0" encoding="utf-8"?>
<!-- Generator: Adobe Illustrator 17.0.0, SVG Export Plug-In . SVG Version: 6.00 Build 0)  -->
<!DOCTYPE svg PUBLIC "-//W3C//DTD SVG 1.1//EN" "http://www.w3.org/Graphics/SVG/1.1/DTD/svg11.dtd">
<svg version="1.1" id="图层_1" xmlns="http://www.w3.org/2000/svg" xmlns:xlink="http://www.w3.org/1999/xlink" x="0px" y="0px"
	 width="39px" height="23.16px" viewBox="0 0 39 23.16" enable-background="new 0 0 39 23.16" xml:space="preserve">
<path fill="#C60000" d="M33.099,9.714c-2.998-0.979-5.143-1.34-5.143-3.727c0-1.684,1.304-2.948,3.13-2.948
	c1.312,0,2.346,0.517,3.282,1.822l2.487-1.266c-1.268-2.238-3.097-3.36-5.631-3.36c-3.889,0-6.282,2.336-6.282,5.84
	c0,3.592,2.348,5.091,6.896,6.583c2.53,0.838,4.028,1.354,4.028,3.497c0,2.195-1.964,3.931-4.829,3.832
	c-2.915-0.098-3.813-1.685-4.867-4.079c-1.701-3.866-3.652-8.41-3.803-8.764c-1.987-4.566-5.899-7.142-10.744-7.142
	C5.204,0.002,0,5.186,0,11.581c0,6.396,5.204,11.575,11.623,11.575c3.622,0,6.86-1.647,8.989-4.234l-1.5-3.447
	c-1.411,2.685-4.238,4.516-7.489,4.516c-4.661,0-8.443-3.767-8.443-8.41c0-4.646,3.782-8.412,8.443-8.412
	c3.444,0,6.497,2.013,7.727,4.996l3.711,8.424l0.43,0.951c1.505,3.488,3.671,5.467,7.733,5.483c4.412,0.005,7.79-2.849,7.79-6.769
	C39.014,12.518,37.137,11.023,33.099,9.714z"/>
</svg>
