<?xml version="1.0" encoding="iso-8859-1"?>
<!-- Generator: Adobe Illustrator 17.0.0, SVG Export Plug-In . SVG Version: 6.00 Build 0)  -->
<!DOCTYPE svg PUBLIC "-//W3C//DTD SVG 1.1//EN" "http://www.w3.org/Graphics/SVG/1.1/DTD/svg11.dtd">
<svg version="1.1" id="Layer_1" xmlns="http://www.w3.org/2000/svg" xmlns:xlink="http://www.w3.org/1999/xlink" x="0px" y="0px"
	 width="32.998px" height="66.549px" viewBox="0 0 32.998 66.549" style="enable-background:new 0 0 32.998 66.549;"
	 xml:space="preserve">
<g>
	<g>
		<path style="fill:#97ABB0;" d="M26.649,6.549c0,0.618-0.501,1.119-1.119,1.119H7.469c-0.618,0-1.119-0.501-1.119-1.119l0,0
			c0-0.618,0.501-1.119,1.119-1.119h18.06C26.148,5.43,26.649,5.932,26.649,6.549L26.649,6.549z"/>
		<path style="fill:#97ABB0;" d="M28.243,46.352c-0.464-0.841-4.731-8.389-5.917-8.832c-1.325-0.808-1.35-0.075-4.053-1.056
			c-0.97-0.353-1.574-0.496-1.969-0.449c-0.393-0.047-0.998,0.096-1.968,0.449c-2.702,0.981-2.728,0.248-4.053,1.056
			c-1.187,0.443-5.453,7.99-5.916,8.832c-1.326,2.405-3.043,5.027,0.227,7.333C9.909,57.43,9.01,66.876,16.305,66.541
			c7.296,0.335,6.396-9.11,11.71-12.856C31.285,51.38,29.568,48.757,28.243,46.352z"/>
		<path style="fill:#2E4061;" d="M23.802,46.578c0,0-1.537-8.247,8.156-20.987c0,0,4.157-5.959-4.157-12.333
			c0,0-8.036-4.332-0.617-11.439c0,0,1.101-2.878-1.392-1.393c0,0-7.356,7.137-0.994,12.434c0,0,10.001,6.506,1.989,15.218
			c0,0-5.715,6.225-6.366,11.438c0,0-0.796,2.885,1.691,5.371L23.802,46.578z"/>
		<path style="fill:#2E4061;" d="M9.196,46.578c0,0,1.537-8.247-8.156-20.987c0,0-4.157-5.959,4.157-12.333
			c0,0,8.036-4.332,0.617-11.439c0,0-1.101-2.878,1.393-1.393c0,0,7.356,7.137,0.995,12.434c0,0-10.001,6.506-1.989,15.218
			c0,0,5.714,6.225,6.365,11.438c0,0,0.796,2.885-1.69,5.371L9.196,46.578z"/>
		<path style="fill:#2E4061;" d="M21.105,63.555c-0.53,0.929-0.711,1.193-1.369,1.193h-6.577c-0.659,0-1.056-0.414-1.398-0.989
			l-1.299-2.127c0.498-0.569,2.038-0.563,2.697-0.563h6.577c0.658,0,2.297,0.182,2.546,0.696L21.105,63.555z"/>
		<g>
			<rect x="12.76" y="5.426" style="fill:#D1D3D4;" width="0.1" height="56.324"/>
		</g>
		<g>
			<rect x="14.1" y="5.428" style="fill:#D1D3D4;" width="0.1" height="56.321"/>
		</g>
		<g>
			<rect x="15.276" y="5.431" style="fill:#D1D3D4;" width="0.1" height="56.319"/>
		</g>
		<g>
			<rect x="16.439" y="5.43" style="fill:#D1D3D4;" width="0.1" height="56.32"/>
		</g>
		<g>
			<rect x="17.641" y="5.432" style="fill:#D1D3D4;" width="0.1" height="56.316"/>
		</g>
		<g>
			<rect x="18.853" y="5.433" style="fill:#D1D3D4;" width="0.1" height="56.351"/>
		</g>
		<g>
			<rect x="20.17" y="5.433" style="fill:#D1D3D4;" width="0.1" height="56.315"/>
		</g>
		<path style="fill:#231F20;" d="M12.55,61.746c0,0.12-0.097,0.219-0.218,0.219l0,0c-0.12,0-0.219-0.099-0.219-0.219l0,0
			c0-0.121,0.099-0.218,0.219-0.218l0,0C12.453,61.528,12.55,61.626,12.55,61.746L12.55,61.746z"/>
		<path style="fill:#231F20;" d="M13.948,61.746c0,0.12-0.098,0.219-0.219,0.219l0,0c-0.12,0-0.218-0.099-0.218-0.219l0,0
			c0-0.121,0.098-0.218,0.218-0.218l0,0C13.851,61.528,13.948,61.626,13.948,61.746L13.948,61.746z"/>
		<path style="fill:#231F20;" d="M15.13,61.746c0,0.12-0.098,0.219-0.219,0.219l0,0c-0.12,0-0.218-0.099-0.218-0.219l0,0
			c0-0.121,0.098-0.218,0.218-0.218l0,0C15.032,61.528,15.13,61.626,15.13,61.746L15.13,61.746z"/>
		<path style="fill:#231F20;" d="M16.251,61.746c0,0.12-0.097,0.219-0.218,0.219l0,0c-0.121,0-0.219-0.099-0.219-0.219l0,0
			c0-0.121,0.098-0.218,0.219-0.218l0,0C16.154,61.528,16.251,61.626,16.251,61.746L16.251,61.746z"/>
		<path style="fill:#231F20;" d="M17.597,61.746c0,0.12-0.098,0.219-0.219,0.219l0,0c-0.12,0-0.218-0.099-0.218-0.219l0,0
			c0-0.121,0.098-0.218,0.218-0.218l0,0C17.499,61.528,17.597,61.626,17.597,61.746L17.597,61.746z"/>
		<path style="fill:#231F20;" d="M20.198,61.746c0,0.12-0.098,0.219-0.219,0.219l0,0c-0.12,0-0.218-0.099-0.218-0.219l0,0
			c0-0.121,0.098-0.218,0.218-0.218l0,0C20.101,61.528,20.198,61.626,20.198,61.746L20.198,61.746z"/>
		<path style="fill:#231F20;" d="M18.887,61.746c0,0.12-0.098,0.219-0.219,0.219l0,0c-0.12,0-0.218-0.099-0.218-0.219l0,0
			c0-0.121,0.098-0.218,0.218-0.218l0,0C18.789,61.528,18.887,61.626,18.887,61.746L18.887,61.746z"/>
		<circle style="fill:#231F20;" cx="13.018" cy="6.23" r="0.32"/>
		<circle style="fill:#231F20;" cx="14.268" cy="6.23" r="0.32"/>
		<circle style="fill:#231F20;" cx="15.421" cy="6.23" r="0.32"/>
		<circle style="fill:#231F20;" cx="16.624" cy="6.27" r="0.32"/>
		<circle style="fill:#231F20;" cx="17.688" cy="6.27" r="0.32"/>
		<circle style="fill:#231F20;" cx="18.817" cy="6.23" r="0.32"/>
		<circle style="fill:#231F20;" cx="20.139" cy="6.23" r="0.32"/>
	</g>
</g>
</svg>
