<?xml version="1.0" encoding="utf-8"?>
<!-- Generator: Adobe Illustrator 17.0.0, SVG Export Plug-In . SVG Version: 6.00 Build 0)  -->
<!DOCTYPE svg PUBLIC "-//W3C//DTD SVG 1.1//EN" "http://www.w3.org/Graphics/SVG/1.1/DTD/svg11.dtd">
<svg version="1.1" id="图层_1" xmlns:ev="http://www.w3.org/2001/xml-events"
	 xmlns="http://www.w3.org/2000/svg" xmlns:xlink="http://www.w3.org/1999/xlink" x="0px" y="0px" width="90px" height="90px"
	 viewBox="0 0 90 90" enable-background="new 0 0 90 90" xml:space="preserve">
<path fill="#08A1EF" d="M3,0h42v90H3c-1.657,0-3-1.343-3-3V3C0,1.343,1.343,0,3,0z"/>
<path fill="#24D8FF" d="M45,0h42c1.657,0,3,1.343,3,3v84c0,1.657-1.343,3-3,3H45V0z"/>
<path fill="#F6F5FB" d="M45,13c17.673,0,32,14.327,32,32S62.673,77,45,77S13,62.673,13,45S27.327,13,45,13z"/>
<path fill="#424145" d="M58.796,42.431C59.564,42.87,60,43.62,60,44.5s-0.436,1.63-1.204,2.069L39.612,57.56
	c-0.768,0.44-1.64,0.44-2.408,0C36.436,57.12,36,56.37,36,55.491V33.509c0-0.88,0.436-1.629,1.204-2.069
	c0.768-0.44,1.64-0.44,2.408,0L58.796,42.431z"/>
</svg>
