<?xml version="1.0" encoding="utf-8"?>
<!-- Generator: Adobe Illustrator 17.0.0, SVG Export Plug-In . SVG Version: 6.00 Build 0)  -->
<!DOCTYPE svg PUBLIC "-//W3C//DTD SVG 1.1//EN" "http://www.w3.org/Graphics/SVG/1.1/DTD/svg11.dtd">
<svg version="1.1" id="图层_1" xmlns:ev="http://www.w3.org/2001/xml-events"
	 xmlns="http://www.w3.org/2000/svg" xmlns:xlink="http://www.w3.org/1999/xlink" x="0px" y="0px" width="300px" height="46px"
	 viewBox="0 0 300 46" enable-background="new 0 0 300 46" xml:space="preserve">
<path fill="#DB0000" d="M74.093,6.133H57.4L66.625,0H82L74.093,6.133z M63.55,14.311H45.1l9.225-6.133h17.132L63.55,14.311z
	 M13.325,6.133L15.375,0H43.05L41,6.133H13.325z M38.267,14.311H10.592l2.05-6.133h27.675L38.267,14.311z M63.55,16.356l0.424,6.133
	H7.858l2.05-6.133h27.675H63.55z M64.54,30.667H5.125l2.05-6.134h56.941L64.54,30.667z M30.408,37.822H2.733l1.709-5.111h27.675
	L30.408,37.822z M29.725,39.867L27.675,46H0l2.05-6.133H29.725z M65.176,39.867L65.6,46H37.925l-2.121-6.133H65.176z M65.034,37.822
	H35.097l-1.767-5.111h31.351L65.034,37.822z"/>
<path fill="#1F3D8D" d="M297.026,9.86h-21.807l-11.894,35.495h-26.764L248.456,9.86h-18.833l2.973-8.874H300L297.026,9.86z
	 M190.818,9.86c-6.552,0-9.329,2.096-11.536,5.542c-1.105,3.032,4.873,3.332,4.873,3.332h35.556l-2.974,8.873H179.07
	c0,0-3.205-0.258-4.698,3.77c-1.405,3.79,2.946,4.992,2.946,4.992l36.445,0.112l-2.974,8.874h-37.666c0,0-25.466,0.645-25.266-8.986
	c0.158-7.588,4.669-17.547,11.784-26.958c7.116-9.411,22.176-8.38,22.176-8.38l8.157-0.045h37.666l-2.973,8.874H190.818z
	 M107.702,45.355l-8.426-25.142l-8.425,25.142H74L88.868,0.986h30.728l9.417,28.1l9.417-28.1h16.851l-14.869,44.369H107.702z"/>
</svg>
