<?xml version="1.0" encoding="iso-8859-1"?>
<!-- Generator: Adobe Illustrator 17.0.0, SVG Export Plug-In . SVG Version: 6.00 Build 0)  -->
<!DOCTYPE svg PUBLIC "-//W3C//DTD SVG 1.1//EN" "http://www.w3.org/Graphics/SVG/1.1/DTD/svg11.dtd">
<svg version="1.1" id="Object" xmlns="http://www.w3.org/2000/svg" xmlns:xlink="http://www.w3.org/1999/xlink" x="0px" y="0px"
	 width="335.352px" height="326.031px" viewBox="0 0 335.352 326.031" style="enable-background:new 0 0 335.352 326.031;"
	 xml:space="preserve">
<g>
	<rect x="2.87" y="169.482" style="fill:#1C3F4F;" width="5.044" height="59.728"/>
	<rect x="36.77" y="169.482" style="fill:#1C3F4F;" width="5.044" height="59.728"/>
	<circle style="fill:#009BDE;" cx="18.982" cy="319.118" r="6.913"/>
	<circle style="fill:#1C3F4F;" cx="18.982" cy="319.118" r="3.54"/>
	<circle style="fill:#009BDE;" cx="57.16" cy="319.118" r="6.913"/>
	<circle style="fill:#1C3F4F;" cx="57.16" cy="319.118" r="3.54"/>
	<path style="fill:#009BDE;" d="M51.691,215.87h-22.28c-10.664,0-19.309,8.645-19.309,19.309v72.64c0,5.443,4.413,9.856,9.856,9.856
		h41.186c5.443,0,9.856-4.413,9.856-9.856v-72.64C71,224.515,62.355,215.87,51.691,215.87z"/>
	<path style="fill:#ACFF82;" d="M51.691,219.333h-22.28c-8.738,0-15.846,7.108-15.846,15.846v29.348h53.972v-29.348
		C67.537,226.441,60.429,219.333,51.691,219.333z"/>
	<path style="fill:#009BDE;" d="M51.691,222.796h-22.28c-6.828,0-12.383,5.555-12.383,12.382v25.884h47.045v-25.884
		C64.073,228.351,58.519,222.796,51.691,222.796z"/>
	<path style="fill:#ACFF82;" d="M52.202,269.302H28.9c-10.382,0-18.798,8.417-18.798,18.798v-52.921
		c0-10.664,8.645-19.309,19.309-19.309H19.309C8.645,215.87,0,224.515,0,235.179v72.64c0,5.443,4.413,9.856,9.856,9.856H71V288.1
		C71,277.718,62.584,269.302,52.202,269.302z"/>
	<path style="fill:#009BDE;" d="M52.202,272.766H28.9c-8.456,0-15.335,6.879-15.335,15.335v26.111h53.972V288.1
		C67.537,279.645,60.657,272.766,52.202,272.766z"/>
	<path style="fill:#ACFF82;" d="M41.838,169.482H2.846c-1.244,0-2.253,1.009-2.253,2.253c0,1.245,1.009,2.253,2.253,2.253h38.992
		c1.244,0,2.253-1.009,2.253-2.253C44.091,170.491,43.083,169.482,41.838,169.482z"/>
</g>
<g>
	<circle style="fill:#5A3C3D;" cx="133.059" cy="90.973" r="8.116"/>
	<g>
		<path style="fill:#1C3F4F;" d="M93.47,223.525h-5c0-7.12-5.793-12.913-12.913-12.913c-7.121,0-12.913,5.793-12.913,12.913h-5
			c0-9.877,8.036-17.913,17.913-17.913C85.434,205.612,93.47,213.648,93.47,223.525z"/>
	</g>
	<path style="fill:#FFBE85;" d="M83.43,209.085c0.209-3.526-0.221-6.719-1.302-9.141l1.819-30.736l21.35-42.066
		c1.373-2.702,0.292-6.001-2.409-7.376c-2.703-1.371-6.004-0.293-7.376,2.41l-21.496,42.35c-0.587,1.157-0.93,2.423-1.005,3.719
		l-1.812,30.88c-1.36,2.276-1.573,5.599-1.782,9.126c-0.429,7.208,0.825,7.969,4.695,8.199
		C77.982,216.682,83.001,216.292,83.43,209.085z"/>
	<path style="fill:#FFBE85;" d="M157.332,209.085c-0.209-3.526,0.221-6.719,1.302-9.141l-1.819-30.736l-21.35-42.066
		c-1.372-2.702-0.292-6.001,2.41-7.376c2.702-1.371,6.004-0.293,7.375,2.41l21.496,42.35c0.587,1.157,0.93,2.423,1.006,3.719
		l1.811,30.88C174.399,214.025,157.761,216.292,157.332,209.085z"/>
	<g>
		<path style="fill:#5A3C3D;" d="M144.046,57.908c-5.461-0.102-9.857-4.558-9.857-10.043c0-0.328,0.017-0.652,0.048-0.973
			C139.311,48.333,143.191,52.613,144.046,57.908z"/>
		<path style="fill:none;" d="M104.089,83.816c-1.938,0-3.509-1.571-3.509-3.509V56.17c0-2.727,1.021-5.213,2.698-7.104
			c1.891-1.678,4.378-2.698,7.104-2.698h20.093c1.304,0,2.565,0.186,3.76,0.525c-0.031,0.32-0.048,0.645-0.048,0.973
			c0,5.485,4.396,9.941,9.857,10.043c0.116,0.719,0.179,1.457,0.179,2.208v13.845c0,2.741-1.026,5.241-2.713,7.141
			c-1.9,1.687-4.4,2.713-7.141,2.713H104.089z"/>
		<path style="fill:#6E4C4B;" d="M110.383,46.368h20.093c7.593,0,13.749,6.156,13.749,13.749v13.845
			c0,5.943-4.818,10.762-10.762,10.762h-30.282c-1.938,0-3.509-1.571-3.509-3.509V57.078
			C99.672,51.163,104.468,46.368,110.383,46.368z"/>
		<ellipse style="fill:#FFBE85;" cx="115.991" cy="76.383" rx="16.772" ry="24.682"/>
		<path style="fill:#6E4C4B;" d="M110.071,46.39h18.22v7.717c0,8.461-6.858,15.32-15.319,15.32h-20.04v-5.898
			C92.932,54.063,100.605,46.39,110.071,46.39z"/>
		<path style="fill:#FFBE85;" d="M131.704,67.664c3.155,0,5.712,2.718,5.712,6.071c0,3.353-2.557,6.071-5.712,6.071V67.664z"/>
		<path style="fill:#6E4C4B;" d="M133.217,51.701v25.419h-0.892c-2.47,0-4.473-2.002-4.473-4.472V51.701H133.217z"/>
		<path style="fill:#FFBE85;" d="M115.991,113.434V93.142h8.991v20.292h8.077c0,7.015-5.686,12.701-12.7,12.701
			s-12.7-5.686-12.7-12.701H115.991z"/>
		<path style="fill:#FF8D6A;" d="M124.982,97.214v1.816c-2.599,2.435-5.682,3.851-8.991,3.851v-1.816
			C119.3,101.064,122.383,99.649,124.982,97.214z"/>
	</g>
	<path style="fill:#1C3F4F;" d="M122.476,158.941h-5.063c-14.152,0-25.625,11.473-25.625,25.625l1.325,10.813l12.081,113.666h12.043
		V195.38h5.417v113.666h12.043l12.081-113.666l1.325-10.813C148.101,170.414,136.628,158.941,122.476,158.941z"/>
	<g>
		<path style="fill:#ACFF82;" d="M132.452,150.703h-25.016c-2.922,0-5.636-0.885-7.893-2.399l1.053,10.409
			c0,7.602,9.808,13.766,15.945,13.766h6.805c6.137,0,15.945-6.163,15.945-13.766l1.053-10.409
			C138.088,149.818,135.373,150.703,132.452,150.703z"/>
	</g>
	<g>
		<path style="fill:#92D66D;" d="M132.452,153.447c2.797,0,5.399-0.818,7.597-2.215l0.296-2.927
			c-2.257,1.514-4.971,2.399-7.893,2.399h-25.016c-2.922,0-5.636-0.885-7.893-2.399l0.296,2.927
			c2.197,1.398,4.799,2.215,7.597,2.215H132.452z"/>
	</g>
	<path style="fill:#ACFF82;" d="M132.92,113.434c-0.001,6.927-5.612,12.208-12.539,12.208c-6.927,0-12.537-5.282-12.538-12.208
		c-7.819,0.02-14.157,6.029-14.157,13.852v9.23c0,7.836,6.352,14.188,14.188,14.188h25.016c7.835,0,14.187-6.352,14.187-14.188
		v-9.23C147.077,119.462,140.739,113.453,132.92,113.434z"/>
	<path style="fill:#0F3040;" d="M139.292,158.713c0,7.602-9.808,13.766-15.945,13.766h-6.805c-6.137,0-15.945-6.163-15.945-13.766
		v4.572c0,7.602,9.808,13.766,15.945,13.766h6.805c6.137,0,15.945-6.163,15.945-13.766V158.713z"/>
	<path style="fill:#ACFF82;" d="M118.493,316.031c0-5.743,4.656-10.399,10.399-10.399c5.743,0,10.399,4.656,10.399,10.399"/>
	<path style="fill:#ACFF82;" d="M121.395,316.031c0-5.743-4.656-10.399-10.399-10.399c-5.743,0-10.399,4.656-10.399,10.399"/>
	<g>
		<path style="fill:#5A3C3D;" d="M119.676,89.152c0,1.108-0.322,2.139-0.871,3.013c0.139-0.222,0.264-0.453,0.372-0.693
			c-0.871-0.547-1.897-0.869-3.002-0.869c-2.312,0-4.297,1.389-5.175,3.376c-1.615-1.003-2.694-2.787-2.694-4.828H119.676z"/>
		<path style="fill:#5A3C3D;" d="M111,93.98"/>
	</g>
	<path style="fill:#FF5959;" d="M113.991,94.837c-1.099,0-2.121-0.317-2.991-0.857c0.878-1.987,2.863-3.376,5.175-3.376
		c1.104,0,2.131,0.322,3.002,0.869C118.289,93.454,116.303,94.837,113.991,94.837z"/>
	<path style="fill:#FF865B;" d="M98.195,271.273H49.829c-5.226,0-9.463-4.237-9.463-9.463v-24.415c0-7.66,6.21-13.87,13.87-13.87
		h39.552c7.66,0,13.87,6.21,13.87,13.87v24.415C107.658,267.036,103.421,271.273,98.195,271.273z"/>
	<path style="fill:#1C3F4F;" d="M45.366,261.81v-24.415c0-7.66,6.21-13.87,13.87-13.87h-5c-7.66,0-13.87,6.21-13.87,13.87v24.415
		c0,5.227,4.237,9.463,9.463,9.463h5C49.603,271.273,45.366,267.036,45.366,261.81z"/>
	<path style="fill:#1C3F4F;" d="M52.186,261.81v-24.415c0-7.66,6.21-13.87,13.87-13.87h-5c-7.66,0-13.87,6.21-13.87,13.87v24.415
		c0,5.227,4.237,9.463,9.464,9.463h5C56.423,271.273,52.186,267.036,52.186,261.81z"/>
</g>
<g>
	<path style="fill:#0073DA;" d="M266.393,184.574H225.68v-69.835h20.007c11.435,0,20.706,9.27,20.706,20.705V184.574z"/>
	<g>
		<path style="fill:#009BDE;" d="M263.892,184.573h-1v-49.13c0-9.487-7.718-17.206-17.205-17.206v-1
			c10.038,0,18.205,8.167,18.205,18.206V184.573z"/>
	</g>
	<path style="fill:#1C3F4F;" d="M181.243,189.976v13.831c0,4.958,2.218,9.39,5.706,12.383v99.84h20.507v-95.9h8.712v95.9h20.507
		v-99.84c3.488-2.994,5.706-7.426,5.706-12.383v-13.831H181.243z"/>
	<path style="fill:#FF865B;" d="M241.302,199.976h-58.979c-2.282,0-4.161-1.796-4.264-4.076l-3.217-71.338
		c0-5.404,4.331-9.784,9.673-9.784h54.594c5.343,0,9.673,4.38,9.673,9.784l-3.217,71.338
		C245.462,198.18,243.584,199.976,241.302,199.976z"/>
	<ellipse style="fill:#FFBE85;" cx="211.812" cy="68.664" rx="21.827" ry="28.393"/>
	<path style="fill:#FFBE85;" d="M211.812,89.741c-2.146,0-4.217-0.41-6.175-1.16v14.786h12.351V88.581
		C216.029,89.331,213.958,89.741,211.812,89.741z"/>
	<path style="fill:#FF8D6A;" d="M205.637,95.897v1.829c1.958,0.751,4.03,1.16,6.175,1.16c2.145,0,4.216-0.41,6.175-1.16v-1.829
		c-1.959,0.75-4.03,1.16-6.175,1.16C209.667,97.057,207.596,96.647,205.637,95.897z"/>
	<ellipse style="fill:#FFBE85;" cx="189.986" cy="70.009" rx="4.825" ry="7.018"/>
	<ellipse style="fill:#FFBE85;" cx="233.639" cy="70.009" rx="4.825" ry="7.018"/>
	<path style="fill:#6E4C4B;" d="M190.949,77.027c2.745,11.599,11.046,20.03,20.863,20.03c9.817,0,18.119-8.431,20.863-20.03H190.949
		z"/>
	<path style="fill:#FFBE85;" d="M220.423,81.768c0,4.755-3.855,8.611-8.611,8.611c-4.756,0-8.611-3.855-8.611-8.611H220.423z"/>
	<g>
		<path style="fill:#5A3C3D;" d="M217.497,82.919c0,1.108-0.322,2.139-0.871,3.013c0.139-0.222,0.264-0.452,0.372-0.693
			c-0.871-0.547-1.898-0.868-3.002-0.868c-2.312,0-4.297,1.389-5.174,3.376c-1.615-1.003-2.694-2.787-2.694-4.828H217.497z"/>
		<path style="fill:#5A3C3D;" d="M208.822,87.747"/>
	</g>
	<path style="fill:#FF5959;" d="M211.812,88.604c-1.099,0-2.121-0.317-2.991-0.857c0.877-1.987,2.862-3.376,5.174-3.376
		c1.104,0,2.131,0.321,3.002,0.868C216.11,87.221,214.124,88.604,211.812,88.604z"/>
	<path style="fill:#6E4C4B;" d="M212.995,33.156h-2.366c-11.401,0-20.644,9.243-20.644,20.644v14.864c3.602,0,6.52-2.92,6.52-6.521
		V53.8h30.613v8.343c0,3.601,2.919,6.521,6.521,6.521V53.8C233.639,42.399,224.396,33.156,212.995,33.156z"/>
	<g>
		<path style="fill:#FFBE85;" d="M160.605,216.828c4.075,1.003,8.168-1.582,9.143-5.775l2.329-10.012l-14.756-3.633l-2.329,10.012
			C154.018,211.613,156.531,215.825,160.605,216.828z"/>
	</g>
	<path style="fill:#FF865B;" d="M221.466,110.524c2.328,0,4.214-1.887,4.214-4.214c0-2.327-1.886-4.214-4.214-4.214h-19.308
		c-2.327,0-4.214,1.887-4.214,4.214c0,2.327,1.887,4.214,4.214,4.214c-2.327,0-4.214,1.886-4.214,4.213v0
		c0,2.327,1.887,4.213,4.214,4.213h19.308c2.328,0,4.214-1.886,4.214-4.213v0C225.68,112.411,223.794,110.524,221.466,110.524z"/>
	<path style="fill:#E36D45;" d="M198.331,112.995h26.962c-0.664-1.455-2.123-2.47-3.827-2.47h-19.308
		C200.455,110.524,198.996,111.54,198.331,112.995z"/>
	<circle style="fill:#E36D45;" cx="204.515" cy="117.685" r="1.504"/>
	<circle style="fill:#E36D45;" cx="219.11" cy="117.685" r="1.504"/>
	<path style="fill:#E36D45;" d="M193.715,172.027h36.195l3.79,20.044c0,1.656-2.564,2.998-5.727,2.998h-32.321
		c-3.163,0-5.727-1.342-5.727-2.998L193.715,172.027z"/>
	<path style="fill:#FF865B;" d="M184.186,115.438c-4.075-1.003-8.218,1.794-9.253,6.247l-17.611,75.723l14.756,3.633l17.611-75.723
		C190.725,120.865,188.261,116.442,184.186,115.438z"/>
	
		<line style="fill:none;stroke:#FFFFFF;stroke-linecap:round;stroke-miterlimit:10;" x1="204.515" y1="117.685" x2="201.44" y2="129.017"/>
	
		<line style="fill:none;stroke:#FFFFFF;stroke-linecap:round;stroke-miterlimit:10;" x1="219.11" y1="117.685" x2="222.184" y2="129.017"/>
	<path style="fill:#FFFFFF;" d="M211.363,316.031c0-7.82-6.34-14.16-14.16-14.16c-7.821,0-14.161,6.34-14.161,14.16H211.363z"/>
	<path style="fill:#224B5E;" d="M183.042,316.031h28.321c0-1.018-0.112-2.009-0.316-2.966h-27.688
		C183.155,314.022,183.042,315.013,183.042,316.031z"/>
	<path style="fill:#FFFFFF;" d="M212.262,316.031c0-7.82,6.339-14.16,14.16-14.16c7.82,0,14.16,6.34,14.16,14.16H212.262z"/>
	<path style="fill:#224B5E;" d="M240.582,316.031h-28.32c0-1.018,0.112-2.009,0.316-2.966h27.688
		C240.47,314.022,240.582,315.013,240.582,316.031z"/>
	<path style="fill:#009BDE;" d="M246.137,183.237c-14.11-17.638,1.098-52.471,2.507-55.588l0.013-0.287l-5.331-2.511
		c-0.198,0.421-4.892,10.462-7.488,23.138c-3.536,17.266-1.346,31.065,6.337,39.905c1.09,1.255,2.297,2.398,3.596,3.454
		L246.137,183.237z"/>
	<g>
		<path style="fill:#FF865B;" d="M244.381,117.27c-3.994,0.564-6.775,4.259-6.211,8.253l6.761,47.878
			c0.564,3.994,4.259,6.775,8.253,6.211c3.994-0.564,6.774-4.259,6.21-8.253l-6.761-47.878
			C252.07,119.486,248.375,116.706,244.381,117.27z"/>
		<path style="fill:#FFBE85;" d="M244.381,117.27c-3.994,0.564-6.775,4.259-6.211,8.253l1.347,9.539l14.464-2.042l-1.347-9.539
			C252.07,119.486,248.375,116.706,244.381,117.27z"/>
	</g>
</g>
<g>
	<path style="fill:#1C3F4F;" d="M320.529,297.676h-55.69v-62.92h-8.74v69.292h8.74H326.9
		C326.9,300.528,324.048,297.676,320.529,297.676z"/>
	<path style="fill:#4D3534;" d="M278.922,163.496v6.249c0,4.728,3.832,8.56,8.56,8.56h27.809c4.728,0,8.56-3.833,8.56-8.56v-6.249
		H278.922z"/>
	<ellipse style="fill:#FFBE85;" cx="301.386" cy="169.356" rx="17.626" ry="22.928"/>
	<path style="fill:#FFBE85;" d="M306.373,197.38v-11.94c-1.582,0.606-3.254,0.937-4.986,0.937c-1.733,0-3.405-0.331-4.987-0.937
		v11.94h-0.21c0,2.87,2.327,5.196,5.197,5.196c2.87,0,5.196-2.327,5.196-5.196H306.373z"/>
	<path style="fill:#FF8D6A;" d="M296.4,191.348v1.477c1.582,0.606,3.254,0.936,4.987,0.936c1.732,0,3.405-0.331,4.986-0.936v-1.477
		c-1.582,0.606-3.254,0.936-4.986,0.936C299.654,192.284,297.982,191.954,296.4,191.348z"/>
	<path style="fill:#FF865B;" d="M244.163,236.81h-9.207c-1.119,0-2.027-0.908-2.027-2.027l0,0c0-1.12,0.908-2.027,2.027-2.027h9.207
		c1.12,0,2.027,0.907,2.027,2.027l0,0C246.19,235.902,245.282,236.81,244.163,236.81z"/>
	<path style="fill:#009BDE;" d="M314.285,197.38h-7.702c0,2.477-2.327,4.484-5.196,4.484c-2.87,0-5.197-2.007-5.197-4.484h-7.997
		c-5.202,0-9.418,3.639-9.418,8.127v38.009h44.929v-38.009C323.703,201.019,319.486,197.38,314.285,197.38z"/>
	<path style="fill:#B07C57;" d="M278.774,243.516v2.927c0,4.306,1.806,8.183,4.69,10.94v31.763h12.43v-27.559h10.689v27.559h12.429
		v-31.763c2.885-2.757,4.691-6.634,4.691-10.94v-2.927H278.774z"/>
	<path style="fill:#6E7FFF;" d="M306.583,289.146h12.429v8.53h-17.774C301.238,292.965,301.872,289.146,306.583,289.146z"/>
	<path style="fill:#6E7FFF;" d="M283.464,289.146h12.43v8.53H278.12C278.12,292.965,278.753,289.146,283.464,289.146z"/>
	<path style="fill:#FFFFFF;" d="M278.12,297.676h17.774V295.7h-17.721C278.136,296.335,278.12,296.995,278.12,297.676z"/>
	<path style="fill:#FFFFFF;" d="M301.238,297.676h17.774V295.7h-17.721C301.254,296.335,301.238,296.995,301.238,297.676z"/>
	<line style="fill:#4D3534;" x1="323.851" y1="163.496" x2="278.922" y2="163.496"/>
	<g>
		<path style="fill:#5A3C3D;" d="M303.713,181.448c0,0.909-0.264,1.754-0.714,2.472c0.113-0.182,0.216-0.371,0.305-0.568
			c-0.714-0.449-1.557-0.712-2.462-0.712c-1.897,0-3.524,1.139-4.244,2.769c-1.325-0.822-2.209-2.286-2.209-3.96H303.713z"/>
		<path style="fill:#5A3C3D;" d="M296.598,185.408"/>
	</g>
	<path style="fill:#FF5959;" d="M299.051,186.111c-0.901,0-1.74-0.26-2.453-0.703c0.72-1.63,2.348-2.769,4.244-2.769
		c0.906,0,1.748,0.263,2.462,0.712C302.576,184.977,300.947,186.111,299.051,186.111z"/>
	<path style="fill:#009BDE;" d="M323.797,163.496c0-12.407-10.058-22.464-22.464-22.464c-12.407,0-22.464,10.058-22.464,22.464
		H323.797z"/>
	<path style="fill:#0073DA;" d="M279.27,159.27h53.969c1.167,0,2.113,0.946,2.113,2.113c0,1.167-0.946,2.113-2.113,2.113h-54.372
		C278.868,162.051,279.01,160.64,279.27,159.27z"/>
	<g>
		<path style="fill:#009BDE;" d="M287.909,204.289c-1.635-2.367-5.15-2.772-7.851-0.906l-7.397,5.111l5.921,8.569l7.396-5.111
			C288.681,210.086,289.544,206.655,287.909,204.289z"/>
		<path style="fill:#FFBE85;" d="M272.662,208.495l-31.505,21.771c-2.083,1.439-2.136,4.271-0.124,5.335
			c3.586,1.895,8.414,1.598,12.369-1.135l0.096-0.066l25.085-17.335L272.662,208.495z"/>
	</g>
	<path style="fill:#FF865B;" d="M276.777,232.755H246.19c-1.12,0-2.027,0.907-2.027,2.027l0,0c0,1.12,0.908,2.027,2.027,2.027
		h30.587V232.755z"/>
	<g>
		<path style="fill:#009BDE;" d="M311.766,214.451c-1.293-2.569-4.425-3.604-6.994-2.311l-7.037,3.542l4.684,9.304l7.037-3.542
			C312.025,220.151,313.059,217.02,311.766,214.451z"/>
		<path style="fill:#FFBE85;" d="M297.735,215.683l-29.973,15.087c-1.981,0.997-2.242,3.703-0.512,5.092
			c3.083,2.476,7.449,3.078,11.211,1.184l0.091-0.046l23.866-12.014L297.735,215.683z"/>
	</g>
	<path style="fill:#FF865B;" d="M285.375,236.81h-9.207c-1.119,0-2.027-0.908-2.027-2.027l0,0c0-1.12,0.908-2.027,2.027-2.027h9.207
		c1.12,0,2.027,0.907,2.027,2.027l0,0C287.402,235.902,286.495,236.81,285.375,236.81z"/>
	<circle style="fill:#1C3F4F;" cx="285.229" cy="234.782" r="2.174"/>
	<circle style="fill:#FF865B;" cx="256.1" cy="308.047" r="7.984"/>
	<circle style="fill:#1C3F4F;" cx="256.1" cy="308.047" r="4.088"/>
	<circle style="fill:#FF865B;" cx="314.1" cy="308.047" r="7.984"/>
	<circle style="fill:#1C3F4F;" cx="314.1" cy="308.047" r="4.088"/>
</g>
<g>
	<path style="fill:#FF865B;" d="M174.305,13.233h-19.921c-3.621,0-6.557,2.935-6.557,6.557v11.247c0,2.63,2.132,4.762,4.761,4.762
		h28.273V19.791C180.862,16.169,177.926,13.233,174.305,13.233z"/>
	<path style="fill:#ACFF82;" d="M174.305,13.233h-2.278c3.621,0,6.557,2.935,6.557,6.557v16.008h2.278V19.791
		C180.862,16.169,177.926,13.233,174.305,13.233z"/>
	<path style="fill:#ACFF82;" d="M160.397,17.917h-7.531v13.734h7.531c3.793,0,6.867-3.074,6.867-6.867l0,0
		C167.265,20.992,164.19,17.917,160.397,17.917z"/>
	<circle style="fill:#009BDE;" cx="152.866" cy="24.784" r="6.867"/>
	<circle style="fill:#ACFF82;" cx="152.866" cy="24.784" r="5.665"/>
	<circle style="fill:#009BDE;" cx="152.866" cy="24.784" r="4.281"/>
	<rect x="171.763" y="32.974" style="fill:#ACFF82;" width="4.682" height="1.038"/>
	<rect x="171.763" y="31.132" style="fill:#ACFF82;" width="4.682" height="1.038"/>
	<path style="fill:#009BDE;" d="M157.668,15.162h-3.296c-0.382,0-0.692,0.31-0.692,0.692c0,0.383,0.31,0.693,0.692,0.693h3.296
		c0.383,0,0.693-0.31,0.693-0.693C158.361,15.472,158.051,15.162,157.668,15.162z"/>
	<circle style="fill:#ACFF82;" cx="174.103" cy="17.917" r="1.055"/>
	<path style="fill:#009BDE;" d="M160.06,11.357h-2.819c-0.674,0-1.22,0.546-1.22,1.221v0.656h5.26v-0.656
		C161.28,11.903,160.733,11.357,160.06,11.357z"/>
</g>
<g>
	<g>
		<path style="fill:#ACFF82;" d="M33.343,43.801l-8.081,4.959l10.303,16.79l-1.054,0.647l1.485,0.056l8.361-5.131
			c1.462-0.897,1.92-2.81,1.023-4.271l-7.314-11.919C37.075,43.316,34.96,42.81,33.343,43.801z"/>
		<path style="fill:#009BDE;" d="M31.858,43.746l-8.082,4.959l10.735,17.493l8.361-5.131c1.462-0.897,1.92-2.81,1.022-4.272
			l-7.314-11.918C35.589,43.26,33.475,42.753,31.858,43.746z"/>
		<g>
			<path style="fill:#ACFF82;" d="M34.388,53.649c-1.364,0.837-3.155,0.408-3.992-0.956c-0.837-1.364-0.409-3.155,0.956-3.992
				c1.364-0.837,3.155-0.409,3.992,0.956C36.181,51.021,35.751,52.812,34.388,53.649z M31.567,49.053
				c-1.17,0.718-1.538,2.255-0.82,3.425c0.718,1.17,2.255,1.538,3.425,0.82c1.17-0.718,1.538-2.255,0.82-3.425
				C34.274,48.703,32.738,48.334,31.567,49.053z"/>
		</g>
		<g>
			
				<rect x="32.806" y="55.595" transform="matrix(0.8523 -0.523 0.523 0.8523 -23.9117 26.9168)" style="fill:#ACFF82;" width="5.805" height="0.412"/>
		</g>
		<g>
			
				<rect x="33.371" y="56.517" transform="matrix(0.8523 -0.523 0.523 0.8523 -24.3098 27.3481)" style="fill:#ACFF82;" width="5.805" height="0.412"/>
		</g>
	</g>
	<g>
		<path style="fill:#ACFF82;" d="M47.613,35.045l-8.082,4.959l10.303,16.79l-1.054,0.647l1.485,0.056l8.361-5.13
			c1.462-0.897,1.92-2.81,1.023-4.272l-7.314-11.918C51.344,34.56,49.229,34.053,47.613,35.045z"/>
		<path style="fill:#1C3F4F;" d="M46.127,34.989l-8.081,4.959L48.78,57.441l8.361-5.131c1.462-0.897,1.92-2.81,1.022-4.272
			L50.851,36.12C49.858,34.503,47.744,33.997,46.127,34.989z"/>
		<g>
			<path style="fill:#ACFF82;" d="M48.657,44.893c-1.364,0.837-3.155,0.408-3.992-0.956c-0.837-1.364-0.408-3.155,0.956-3.992
				c1.364-0.837,3.155-0.408,3.992,0.956C50.45,42.265,50.021,44.056,48.657,44.893z M45.836,40.297
				c-1.17,0.718-1.538,2.254-0.82,3.425c0.718,1.17,2.254,1.538,3.425,0.82c1.17-0.718,1.538-2.254,0.82-3.425
				C48.543,39.946,47.007,39.579,45.836,40.297z"/>
		</g>
		<g>
			
				<rect x="47.075" y="46.839" transform="matrix(0.8523 -0.5231 0.5231 0.8523 -17.2254 33.0901)" style="fill:#ACFF82;" width="5.805" height="0.413"/>
		</g>
		<g>
			
				<rect x="47.64" y="47.76" transform="matrix(0.8523 -0.523 0.523 0.8523 -17.6233 33.5194)" style="fill:#ACFF82;" width="5.805" height="0.412"/>
		</g>
	</g>
	<g>
		<path style="fill:#ACFF82;" d="M27.188,18.768l-8.081,4.959l10.303,16.79l-1.054,0.647l1.485,0.056l8.361-5.131
			c1.462-0.898,1.92-2.81,1.023-4.272l-7.314-11.919C30.919,18.282,28.804,17.775,27.188,18.768z"/>
		<path style="fill:#FF865B;" d="M25.702,18.711l-8.081,4.96l10.734,17.493l8.361-5.131c1.462-0.897,1.92-2.81,1.022-4.271
			l-7.313-11.919C29.433,18.226,27.318,17.72,25.702,18.711z"/>
		<g>
			<path style="fill:#ACFF82;" d="M28.232,28.615c-1.364,0.837-3.155,0.408-3.992-0.956c-0.837-1.364-0.409-3.155,0.955-3.992
				c1.364-0.837,3.155-0.408,3.992,0.956C30.024,25.987,29.596,27.778,28.232,28.615z M25.411,24.019
				c-1.17,0.718-1.538,2.254-0.82,3.425c0.718,1.17,2.254,1.538,3.424,0.82c1.17-0.718,1.539-2.254,0.82-3.425
				C28.118,23.669,26.581,23.301,25.411,24.019z"/>
		</g>
		<g>
			
				<rect x="26.65" y="30.561" transform="matrix(0.8523 -0.523 0.523 0.8523 -11.7275 19.9996)" style="fill:#ACFF82;" width="5.805" height="0.412"/>
		</g>
		<g>
			
				<rect x="27.215" y="31.483" transform="matrix(0.8523 -0.523 0.523 0.8523 -12.1261 20.4318)" style="fill:#ACFF82;" width="5.805" height="0.412"/>
		</g>
	</g>
</g>
<g>
	<path style="fill:#FF865B;" d="M60.903,90.053H19.829c-8.019,0-14.542,6.524-14.542,14.542c0,8.019,6.523,14.542,14.542,14.542
		h41.075c8.019,0,14.542-6.523,14.542-14.542C75.445,96.576,68.922,90.053,60.903,90.053z M60.903,114.133H19.829
		c-5.26,0-9.539-4.279-9.539-9.539c0-5.26,4.279-9.539,9.539-9.539h41.075c5.26,0,9.539,4.279,9.539,9.539
		C70.442,109.854,66.163,114.133,60.903,114.133z"/>
	<path style="fill:#ACFF82;" d="M43.17,109.035H14.158c-3.518,0-6.37,2.852-6.37,6.37v6.891c0,4.623,3.747,8.371,8.371,8.371h26.28
		c4.623,0,8.371-3.748,8.371-8.371v-5.623C50.809,112.454,47.389,109.035,43.17,109.035z"/>
	<path style="fill:#009BDE;" d="M43.17,109.035h-3.574c4.219,0,7.639,3.419,7.639,7.638v5.623c0,4.623-3.748,8.371-8.371,8.371
		h3.574c4.623,0,8.371-3.748,8.371-8.371v-5.623C50.809,112.454,47.389,109.035,43.17,109.035z"/>
	<rect x="13.37" y="113.447" style="fill:#009BDE;" width="27.043" height="1.491"/>
	<path style="fill:#FF865B;" d="M15.885,117.274l-0.492-2.336H13.37l-0.492,2.336c-0.115,0.545,0.301,1.058,0.858,1.058h1.29
		C15.584,118.332,16,117.82,15.885,117.274z"/>
	<circle style="fill:#ACFF82;" cx="14.381" cy="117.264" r="0.473"/>
	<rect x="39.41" y="90.053" style="fill:#ACFF82;" width="7.79" height="5.003"/>
	<polygon style="fill:#009BDE;" points="45.545,91.422 43.609,91.422 42.895,90.053 46.259,90.053 	"/>
	<polygon style="fill:#009BDE;" points="45.545,93.686 43.609,93.686 42.895,95.056 46.259,95.056 	"/>
</g>
<g>
	<path style="fill:#FFB202;" d="M296.25,0h-24.761c-8.615,0-15.599,6.983-15.599,15.599v24.761c0,1.663,0.266,3.263,0.748,4.766
		h-0.312c-4.77,0-8.637,3.867-8.637,8.637c0,1.213,0.983,2.196,2.196,2.196h46.364c8.615,0,15.599-6.984,15.599-15.599V15.599
		C311.849,6.983,304.865,0,296.25,0z"/>
	<g>
		<rect x="269.121" y="18.25" style="fill:#55565A;" width="30.169" height="2.441"/>
		<rect x="269.121" y="26.758" style="fill:#55565A;" width="30.169" height="2.441"/>
		<rect x="274.729" y="35.266" style="fill:#55565A;" width="18.953" height="2.441"/>
	</g>
</g>
<g>
	<circle style="fill:#FF865B;" cx="299.05" cy="100.047" r="17.931"/>
	<path style="fill:#ACFF82;" d="M316.505,104.148c0.309-1.317,0.477-2.689,0.477-4.101c0-1.48-0.183-2.917-0.521-4.293
		c-4.13,3.041-10.458,5.03-17.41,5.03c-6.952,0-13.28-1.989-17.41-5.03c-0.338,1.376-0.522,2.813-0.522,4.293
		c0,1.412,0.169,2.784,0.477,4.101c4.859,2.419,10.872,3.836,17.455,3.836S311.646,106.567,316.505,104.148z"/>
	<path style="fill:#009BDE;" d="M297.68,82.173l-1.27,2.224l-5.436,0.657l3.308,3.216l-2.034,4.534l6.443-2.131l6.412,2.157
		l-1.968-4.546l3.356-3.214l-5.426-0.668l-1.259-2.266c-0.251-0.01-0.502-0.019-0.755-0.019
		C298.589,82.116,298.133,82.139,297.68,82.173z"/>
</g>
</svg>
