<?xml version="1.0" encoding="utf-8"?>
<!-- Generator: Adobe Illustrator 16.0.0, SVG Export Plug-In . SVG Version: 6.00 Build 0)  -->
<!DOCTYPE svg PUBLIC "-//W3C//DTD SVG 1.1//EN" "http://www.w3.org/Graphics/SVG/1.1/DTD/svg11.dtd">
<svg version="1.1" xmlns="http://www.w3.org/2000/svg" xmlns:xlink="http://www.w3.org/1999/xlink" x="0px" y="0px"
	 width="270.493px" height="207.927px" viewBox="0 0 270.493 207.927" enable-background="new 0 0 270.493 207.927"
	 xml:space="preserve">
<g id="background">
</g>
<g id="objekt">
	<path fill="#B7A99F" d="M231.731,205.37c0,1.412-34.915,2.557-77.983,2.557s-77.982-1.145-77.982-2.557s34.914-2.557,77.982-2.557
		S231.731,203.958,231.731,205.37z"/>
	<path fill="none" d="M244.268,170.491l3.846,9.342l-13.737-0.551L244.268,170.491z M194.26,195.681l8.242,10.441l6.046-14.289
		L194.26,195.681z"/>
	<path opacity="0.7" fill="#F7F2E8" d="M201.953,47.487c26.927,4.946,34.62,42.863,34.62,42.863
		c-35.169,23.629-84.626,8.242-84.626,8.242C149.749,43.64,183.27,44.19,183.27,44.19L201.953,47.487z"/>
	<path fill="#EABB98" d="M247.711,104.376l-49.604-8.532h-19.234l-35.169,18.685l36.837-27.249
		c-5.848-1.759-10.47-5.02-12.748-9.059c-0.1,0.031-0.201,0.058-0.306,0.073c-1.841,0.271-3.72-2.148-4.199-5.403
		c-0.481-3.254,0.622-6.112,2.462-6.383c0.632-0.094,1.268,0.137,1.852,0.604c3.31-6.31,12.27-10.834,22.811-10.834
		c11.805,0,21.627,5.671,23.75,13.171c0.455-0.082,0.89-0.047,1.277,0.136c1.684,0.787,1.878,3.924,0.434,7.005
		c-1.213,2.585-3.193,4.302-4.795,4.322c-2.646,2.911-6.623,5.219-11.363,6.545L247.711,104.376z"/>
	<path fill="#FFFFFF" d="M159.955,105.895l-16.251,8.634l14.757-10.916C158.931,104.387,159.432,105.146,159.955,105.895z"/>
	<path fill="#FFFFFF" d="M223.725,100.25c0.414-1.297,0.829-2.594,1.238-3.893l22.748,8.019L223.725,100.25z"/>
	<path fill="#FFFFFF" d="M185.467,120.526l-6.594-24.682c0,0,6.656-3.254,9.066-3.297c2.674-0.047,10.168,3.297,10.168,3.297
		l-1.101,21.569L185.467,120.526z"/>
	<path fill="#351F10" d="M214.729,72.902c-19.233-1.099-24.317-16.624-24.317-16.624c-8.242,14.289-24.178,12.915-24.178,12.915
		s-4.589-23.196,16.889-25.49c-0.921-3.202-5.256-21.082,13.884-17.647c19.091,3.426,8.097,17.753,5.466,20.843
		C217.602,54.634,214.729,72.902,214.729,72.902z"/>
	<path fill="#351F10" d="M182.985,70.12c0,1.28-0.958,2.318-2.138,2.318s-2.139-1.038-2.139-2.318s0.959-2.317,2.139-2.317
		S182.985,68.839,182.985,70.12z"/>
	<path fill="#351F10" d="M201.129,71.151c0,1.279-0.957,2.318-2.138,2.318s-2.139-1.039-2.139-2.318c0-1.28,0.958-2.318,2.139-2.318
		S201.129,69.871,201.129,71.151z"/>
	<path fill="#FFFFFF" d="M209.013,48.633c-0.394,1.817-3.023,1.991-4.431,0.706c1.062,1.263,2.088,6.691-0.782,7.019
		c-1.409,0.161-2.12-1.623-2.31-3.177c-0.244,0.938-0.824,1.938-1.471,2.283c-0.25,0.134-2.26,0.12-2.456-0.019
		c-1.999-1.422,0.078-4.12,1.46-5.751c-2.053,1.192-7.26,1.061-6.611-2.323c0.375-1.943,4.944-2.146,6.104-0.272
		c-1.033-1.315-1.77-5.736-0.159-6.65c2.288-1.299,2.866,2.544,2.839,4.222c-0.213-1.297,3.716-4.598,5.223-3.419
		c1.919,1.5-1.605,4.379-2.748,5.114C205.617,45.03,209.688,45.528,209.013,48.633z"/>
	<path fill="#FFF7E9" d="M175.576,199.706c0,0-23.08-69.242,13.188-80.781c36.269-11.541,67.044,29.673,67.044,29.673
		S245.916,197.507,175.576,199.706z"/>
	<path fill="#351F10" d="M104.445,148.792l-11.299,47.611l12.776,6.594l-21.019,1.236c0,0,0-50.693,0-51.93
		s-33.796,33.795-33.796,33.795v8.656l-21.845-5.771l16.486-5.357l20.536-36.555l-2.814-0.127l1.237-36.68l-41.357,13.288
		L65.12,95.014l39.154-5.77l41.627,25.142l-41.215-10.304l4.534,44.924L104.445,148.792z"/>
	<path fill="#E2D4BF" d="M93.942,84.924l-7.523,47.149L69.214,85.749L93.942,84.924z"/>
	<path fill="#EABB98" d="M108.243,65.673c-0.388,0.057-0.772,0.052-1.15-0.004c-1.825,7.442-9.58,14.724-20.266,18.084
		c-10.548,3.317-20.951,1.867-26.751-3.041c-0.256,0.365-0.561,0.691-0.931,0.956c-2.403,1.728-6.29,0.43-8.681-2.899
		c-2.391-3.326-2.379-7.424,0.025-9.15c1.369-0.985,3.224-0.982,5.008-0.182c0.93-8.034,9.052-16.231,20.581-19.858
		c10.747-3.378,21.334-1.808,27.066,3.32c0.748-1.031,1.755-1.731,2.934-1.905c2.926-0.432,5.785,2.504,6.382,6.559
		C113.058,61.605,111.17,65.24,108.243,65.673z"/>
	<path fill="#351F10" d="M74.213,65.546c0,1.279-0.957,2.318-2.137,2.318c-1.181,0-2.139-1.039-2.139-2.318
		c0-1.28,0.958-2.318,2.139-2.318C73.256,63.228,74.213,64.266,74.213,65.546z"/>
	<path fill="#351F10" d="M91.91,60.807c0,1.279-0.958,2.317-2.139,2.317c-1.18,0-2.138-1.038-2.138-2.317
		c0-1.28,0.958-2.318,2.138-2.318C90.952,58.489,91.91,59.527,91.91,60.807z"/>
	<path fill="#351F10" d="M71.718,28.311c33.665,3.835,36.266,31.26,36.266,31.26s-15.661-14.838-32.972-8.244
		c-17.311,6.595-19.37,21.433-19.37,21.433C39.567,51.74,71.718,28.311,71.718,28.311z"/>
	<path fill="#665E5A" d="M85.993,131.649c-15.661-8.243-24.212-37.87-24.212-37.87l8.285-8.243L85.993,131.649z"/>
	<path fill="#665E5A" d="M104.274,89.245c-4.122,19.371-17.855,42.829-17.855,42.829l4.839-50.021L104.274,89.245z"/>
	<path fill="#FFFFFF" d="M95.619,75.972l2.473,17.395l-14.013-5.771l-11.54,9.067L68.83,79.353l14.61,4.946L95.619,75.972z"/>
	<path fill="#351F10" d="M28.482,93.103l3.913,65.849l-5.617,0.335l-3.913-65.849L28.482,93.103z"/>
	<path fill="#351F10" d="M0,111.814l2.021,33.992l24.715-1.47l-2.021-33.992L0,111.814z"/>
	<path fill="#FFFFFF" d="M188.765,118.925c0,0,12.718,43.177-16.282,65.177C172.482,184.103,153.047,133.748,188.765,118.925z
		 M188.765,118.925c32.282,37.823,58.718,18.177,58.718,18.177C223.482,104.103,188.765,118.925,188.765,118.925z"/>
	<path fill="#FFFFFF" d="M254.279,113.035c0.562,3.183,9.768,13.015,9.768,13.015l-2.678,1.509
		c-5.053-3.707-8.012-13.061-8.012-13.061L254.279,113.035z M251.559,112.945l-1.633-1.396c-0.48,0.013-5.016,16.274,4.01,25.312
		l4.559-2.995C258.494,133.866,249.734,122.742,251.559,112.945z M267.848,96.406c3.574-2.998-3.486-3.594-5.379-3.304
		c1.053-0.162,0.406-3.104-0.152-3.525c-1.26-0.944-3.49,0.059-4.584,0.775c0.611-1.622,0.648-3.515-1.541-3.513
		c-2.217,0.002-3.75,2.388-4.672,4.083c0.02-1.525-0.422-3.741-2.436-3.332c-2.225,0.455-2.211,3.408-1.822,5.08
		c-0.486-1.426-1.465-3.492-3.195-2.212c-1.773,1.313-0.809,4.046,0,5.578c-1.143-0.493-3.432-1.503-4.473-0.323
		c-1.035,1.173,0.273,3.044,1.061,3.966c-2.043,1.639-3.025,4.307-0.01,5.395c-1.041,0.958-1.85,2.504-0.633,3.672
		c1.389,1.331,3.758,0.322,5.33-0.049c-1.664,1.252-2.744,4.066-0.154,4.953c1.771,0.606,4.037-0.314,5.295-1.548
		c-0.709,1.308-1.377,4.362,0.771,4.353c1.492-0.008,2.781-1.715,3.699-2.682c-0.346,1.388-0.365,4.057,1.623,4.165
		c1.85,0.101,2.908-2.698,3.406-4.069c3.203,3.082,4.457-1.053,4.953-3.928c0.793,2.338,3.467,1.302,4.357-0.439
		c1.182-2.309-0.689-5.383-1.811-7.363c1.533,0.649,2.762,0.306,2.984-1.464C270.701,98.791,269.324,97.314,267.848,96.406z"/>
	<path fill="#FE0000" d="M137.615,61.548c0,0-0.065,0.073-0.098,0.055c-0.031,0.018-0.098-0.055-0.098-0.055
		c-5.676-3.167-16.289-9.473-11.851-17.22c3.385-5.912,9.96-2.179,11.948,0.782c1.989-2.961,8.563-6.693,11.949-0.782
		C153.904,52.075,143.291,58.381,137.615,61.548z"/>
	<path fill="#FE0000" d="M119.564,31.13c0,0-0.056,0.061-0.082,0.046c-0.026,0.015-0.082-0.046-0.082-0.046
		c-4.76-2.656-13.661-7.944-9.938-14.441c2.837-4.958,8.353-1.827,10.02,0.656c1.668-2.483,7.181-5.613,10.021-0.656
		C133.224,23.186,124.323,28.474,119.564,31.13z"/>
	<path fill="#FE0000" d="M145.035,13.141c0,0-0.043,0.046-0.063,0.035c-0.02,0.011-0.062-0.035-0.062-0.035
		c-3.664-2.044-10.518-6.116-7.65-11.118c2.184-3.817,6.43-1.407,7.713,0.505c1.284-1.912,5.528-4.322,7.715-0.505
		C155.551,7.025,148.699,11.097,145.035,13.141z"/>
</g>
</svg>
