<?xml version="1.0" encoding="utf-8"?>
<!-- Generator: Adobe Illustrator 17.0.0, SVG Export Plug-In . SVG Version: 6.00 Build 0)  -->
<!DOCTYPE svg PUBLIC "-//W3C//DTD SVG 1.1//EN" "http://www.w3.org/Graphics/SVG/1.1/DTD/svg11.dtd">
<svg version="1.1" id="图层_1" xmlns="http://www.w3.org/2000/svg" xmlns:xlink="http://www.w3.org/1999/xlink" x="0px" y="0px"
	 width="101.434px" height="31.649px" viewBox="0 0 101.434 31.649" enable-background="new 0 0 101.434 31.649"
	 xml:space="preserve">
<path fill="#0079BA" d="M70.739,1.687H60.602v9.63l-13.798,8.786l-2.31-1.406L58.067,9.74l-5.912-3.945l-13.744,8.734l-2.196-1.466
	l13.628-8.787L43.48,0L25.963,11.261l-0.338-0.956l-0.393-0.957l-0.509-0.901l-0.506-0.903L23.597,6.7l-0.673-0.789l-0.793-0.733
	l-0.785-0.675l-0.902-0.617L19.486,3.32l-1.014-0.448l-1.067-0.453L16.221,2.14l-1.239-0.282l-1.293-0.114l-1.355-0.056H0v28.214
	h12.45l1.408-0.055l1.295-0.169l1.239-0.227l1.183-0.336l1.125-0.454l1.014-0.506l1.014-0.564l0.845-0.673l0.842-0.672l0.734-0.79
	l0.676-0.848l0.618-0.844l0.51-0.958l0.503-0.956l0.341-0.958l0.336-1.016l17.404,11.773L60.601,20.67v9.232h19.15v-9.01h-9.012
	V1.687z M17.18,16.67l-0.227,0.958l-0.394,0.845l-0.563,0.788l-0.675,0.672l-0.846,0.509l-1.012,0.338l-1.129,0.112H9.689v-10.36
	h2.645l1.184,0.111l0.957,0.338l0.846,0.508l0.732,0.672l0.506,0.786l0.394,0.849l0.227,0.957l0.056,0.96L17.18,16.67z
	 M101.433,20.893v9.01h-19.15V1.688h10.192v19.205H101.433z"/>
</svg>
