<?xml version="1.0" encoding="utf-8"?>
<!-- Generator: Adobe Illustrator 17.0.0, SVG Export Plug-In . SVG Version: 6.00 Build 0)  -->
<!DOCTYPE svg PUBLIC "-//W3C//DTD SVG 1.1//EN" "http://www.w3.org/Graphics/SVG/1.1/DTD/svg11.dtd">
<svg version="1.1" id="图层_1" xmlns="http://www.w3.org/2000/svg" xmlns:xlink="http://www.w3.org/1999/xlink" x="0px" y="0px"
	 width="370.331px" height="419.988px" viewBox="0 0 370.331 419.988" enable-background="new 0 0 370.331 419.988"
	 xml:space="preserve">
<path fill="#E71F19" d="M94.414,128.594c-5.107,2.431-16.119,6.565-12.521,15.556c0,0.253,0,0.506,0,0.759c0.126,0,0.253,0,0.379,0
	c1.134-1.571,1.52-2.98,3.035-4.174c1.366,1.424,2.418,17.791,3.035,20.489c4.644,0.862,8.167,2.476,13.659,1.897
	c6.879-8.987,7.063-24.386,0.379-33.768C99.726,129.1,97.069,128.847,94.414,128.594z M105.796,144.909
	c-0.126,1.265-0.253,2.53-0.379,3.794c-0.506,0.253-1.012,0.506-1.518,0.759c-1.138,0.127-2.277,0.253-3.415,0.379
	c-1.182-1.602-1.855-1.952-1.897-4.932c0.759-0.758,1.518-1.518,2.277-2.277c1.012,0,2.024,0,3.035,0
	C104.531,143.392,105.164,144.151,105.796,144.909z M109.97,200.684c10.706,0.047,20.228,3.065,30.354,0.759
	c0,0.126,0,0.253,0,0.379c-3.441,4.34-10.909,8.104-18.212,8.347C118.963,206.552,112.237,204.938,109.97,200.684z M158.915,174.504
	c16.58-0.53,17.515-36.18-0.379-36.045c-2.277,1.012-4.553,2.023-6.83,3.035c-1.112,2.602-0.603,26.519,1.138,29.215
	C154.073,172.614,156.676,173.574,158.915,174.504z M161.571,152.498c0.721-1.22,1.17-1.145,2.277-1.897
	c0.758,0.126,1.518,0.253,2.277,0.379c0.946,1.392,1.421,1.695,1.518,4.174c-0.759,0.632-1.518,1.265-2.277,1.897
	c-1.883,0.846-3.104,0.049-3.794-1.518C161.571,154.521,161.571,153.51,161.571,152.498z M205.583,123.282
	c-0.087-11.999,6.929-9.652,15.556-12.9c2.15,0.127,4.3,0.253,6.45,0.379C223.198,115.124,214.764,125.815,205.583,123.282z
	 M222.657,132.768c-0.168,4.393,0.328,7.065,1.897,9.485c0.379-0.253,0.759-0.506,1.138-0.759c0.722-1.609,1.561-2.205,3.035-3.035
	c0.506,0.127,1.012,0.253,1.518,0.379c0.538,10.552-0.211,23.655-10.624,24.283c-17.026-6.179-10.579-30.997,1.518-37.562
	c6.062,0.046,9.219,4.161,10.624,8.727c-3.081-0.574-4.567-3.256-7.588-2.277C223.669,132.262,223.163,132.515,222.657,132.768z
	 M296.264,119.868c1.138,1.518,2.277,3.036,3.415,4.553c-0.379,0.379-0.759,0.759-1.138,1.138c-2.694-1.098-5.874-4.279-8.727-3.415
	c-1.387,0.626-1.635,0.906-2.277,2.277c-0.79,1.363-0.929,2.647,0,3.794c0.126,0.253,0.253,0.506,0.379,0.759
	c1.265-1.265,2.53-2.53,3.794-3.794c1.012,0.127,2.023,0.253,3.035,0.379c2.558,11.532,0.863,21.599-5.691,28.077
	c-11.144-0.271-11.821-8.313-13.28-18.592c0-3.794,0-7.589,0-11.383c2.816-3.957,8.691-4.067,10.624-9.106
	c0.661-5.502-12.067-3.844-14.418-8.347c-0.447-1.599-0.239-2.55,0.379-3.794c2.656-0.379,5.312-0.759,7.968-1.138
	c8.044-0.186,12.826,0.985,17.833,3.035C297.529,109.497,296.897,114.683,296.264,119.868z M287.538,186.645
	c0.379,0,0.759,0,1.138,0c-1.168,11.153-34.819,21.274-45.53,12.521c0.126-0.253,0.253-0.506,0.379-0.759
	C257.125,197.303,280.535,195.105,287.538,186.645z M209.757,301.989c0-0.633,0-1.265,0-1.897
	c3.827-1.987,10.575-0.328,15.556-1.138c0.783-1.249,1.091-1.522,1.138-3.794c-3.659-3.743-10.56-1.954-15.177-4.932
	c-0.995-0.663-1.012-0.716-1.518-1.897c0-0.633,0-1.265,0-1.897c2.656-0.885,5.312-1.771,7.968-2.656
	c0.253-0.379,0.506-0.759,0.759-1.138c-2.023-1.012-4.047-2.023-6.071-3.035c-6.531-4.665-8.148-10.864-20.109-10.624
	c-3.365,5.265-12.168,9.81-18.212,12.141c-0.632,1.012-1.265,2.023-1.897,3.035c4.075,0.381,9.592-0.722,13.659,0.379
	c0.253,0.253,0.506,0.506,0.759,0.759c0,0.379,0,0.759,0,1.138c-8.595,5.25-22.924,4.444-32.63,1.138
	c-0.664-1.061-0.855-0.966-1.138-2.656c3.806-1.789,10.046,0.731,13.659-1.138c1.182-0.768,0.812-0.18,1.138-1.897
	c-3.847-2.858-7.519-4.029-14.797-3.794c0-1.391,0-2.783,0-4.174c-1.265-1.644-2.53-3.288-3.794-4.932
	c-12.607-0.15-26.828,8.311-29.595,17.074c4.467-0.06,8.801,0.097,11.762,1.138c0.253,0.633,0.506,1.265,0.759,1.897
	c-2.272,2.248-11.563,1.81-14.797,2.656c-0.759,1.391-1.518,2.783-2.277,4.174c0,0.632,0,1.265,0,1.897
	c4.081,2.695,10.891,0.595,15.936,1.518c0.784,1.25,1.091,1.522,1.138,3.794c-4.258,2.824-11.872,1.67-18.592,1.518
	c-3.39,6.622-1.228,17.058-0.379,24.662c7.499,1.906,14.095,0.07,18.592,4.553c0.126,0.379,0.253,0.759,0.379,1.138
	c-0.253,0.506-0.506,1.012-0.759,1.518c-4.948,1.071-11.535-0.694-15.936,1.138c-0.126,1.391-0.253,2.783-0.379,4.174
	c4.111,4.421,13.583,3.759,18.592,7.209c0.126,0.379,0.253,0.759,0.379,1.138c-0.126,0.379-0.253,0.759-0.379,1.138
	c-2.755,1.308-7.06,0.53-10.624,0.379c-0.126,0.253-0.253,0.506-0.379,0.759c7.875,23.776,23.308,32.899,46.669,40.977
	c3.25-4.573,0.171-33.549,0.759-40.977c-3.534-0.885-9.15,0.186-11.762-1.518c-1.413-0.935-1.754-1.961-1.897-4.174
	c9.038-2.141,25.828-1.199,33.768,1.138c0,0.126,0,0.253,0,0.379c-2.329,2.705-8.044,3.36-12.521,3.794
	c-0.126,13.658-0.253,27.32-0.379,40.977c0.126,0.126,0.253,0.253,0.379,0.379c23.178-3.318,38.445-19.045,43.254-40.977
	c-0.126-0.253-0.253-0.506-0.379-0.759c-3.035-0.379-6.071-0.759-9.106-1.138c-0.506-1.012-1.012-2.023-1.518-3.035
	c0-0.379,0-0.759,0-1.138c4.806,0,9.613,0,14.418,0c0.937-2.601,3.302-6.067,2.277-8.727c-5.969-4.861-16.71,3.959-15.177-7.968
	c5.564-0.126,11.13-0.253,16.694-0.379c0.126-7.588,0.253-15.178,0.379-22.765c-3.874-2.115-12.55-1.194-17.453-2.276
	C210.516,303.506,210.136,302.748,209.757,301.989z M128.561,316.407c-0.126-0.253-0.253-0.506-0.379-0.759
	c1.724-2.272,2.988-2.431,5.691-3.794c7.302,0.009,12.689,0.997,18.212,1.897c0.126,0.506,0.253,1.012,0.379,1.518
	C148.132,320.88,134.935,318.407,128.561,316.407z M135.77,359.66c5.564,0,11.13,0,16.694,0c0.126,4.173,0.253,8.348,0.379,12.521
	C144.292,374.549,136.631,366.891,135.77,359.66z M153.223,333.481c-0.126-1.265-0.253-2.53-0.379-3.794
	c3.372-2.397,8.57-2.465,14.797-2.277c0.652-3.338,2.227-21.151-0.759-23.903c-2.715-1.981-9.765-0.215-13.28-0.759
	c-0.253-0.759-0.506-1.518-0.759-2.276c2.941-2.039,5.942-2.251,9.865-3.794c9.792,0.03,17.591,1.131,25.421,2.276
	c0.544,1.26,0.389,0.969,0.379,3.035c-3.132,1.749-8.194,0.887-12.9,0.759c0,7.841,0,15.683,0,23.524
	c4.74,1.603,14.133,0.752,14.797,6.83C180.067,336.641,163.996,335.307,153.223,333.481z M192.683,372.94
	c-1.29-4.463-0.137-10.533,1.518-13.28c5.429,0.356,9.938,1.587,14.797,0c0.126,0,0.253,0,0.379,0
	C208.502,370.407,202.289,370.731,192.683,372.94z M213.172,314.51c-3.429,6.856-17.811,3.769-24.283,1.897c0-0.379,0-0.759,0-1.138
	c0.759-0.632,1.518-1.265,2.277-1.897c1.138-0.506,2.277-1.012,3.415-1.518c7.571-0.016,13.178,0.719,18.592,2.277
	C213.172,314.257,213.172,314.383,213.172,314.51z M369.872,243.558c-2.688-14.469-12.93-16.678-29.974-16.315
	c-1.567-7.369-3.74-14.682-9.106-18.212c-12.117-7.971-33.869,9.476-37.183,17.074c-2.336,0.992-11.092-2.504-12.141-5.691
	c2.277-0.885,4.553-1.771,6.83-2.656c3.288-2.909,6.577-5.818,9.865-8.727c8.966-11.499,13.779-26.302,22.006-38.701
	c5.697-8.585,15.781-13.774,18.212-25.421c2.835-13.586-6.71-23.127-11.762-29.974c1.69-6.677,5.79-11.84,7.209-20.489
	c1.433-8.734-0.89-18.009-2.277-24.662c-6.756-32.423-16.247-59.014-47.427-66.778c-15.94-3.969-27.663,6.13-44.013,3.415
	c-13.772-2.287-23.568-7.118-39.839-6.071c-0.903,1.241-1.475,1.532-1.897,3.415c1.506,2.656,3.969,3.341,4.553,6.83
	c-0.528,0.713-0.359,0.624-1.138,1.138c-4.173,0-8.348,0-12.521,0c-15.211-2.606-36.181-13.847-51.601-11.383
	c-20.814,3.326-34.145,9.582-50.842,15.556c-5.058,1.138-10.118,2.277-15.177,3.415c-2.909,3.161-5.818,6.324-8.727,9.485
	c-3.234,0.562-10.371-6.625-18.592-1.897c-1.43,1.07-5.615,25.366-6.83,28.836C32.694,69.485,28.273,82.275,25.359,99
	c-1.885,10.819-1.603,26.078,0,36.804c0.253,5.438,0.506,10.878,0.759,16.315c2.827,17.554,3.752,36.762,3.794,56.154
	c-42.337-0.646-31.702,37.527-16.694,57.672c3.734,5.013,8.692,8.309,13.659,12.141c0.253,0,0.506,0,0.759,0
	c-7.216,8.005-16.047,10.286-18.592,23.524c-2.211,11.502,4.617,20.026,8.727,25.8c12.695,17.84,51.659,44.319,85.749,32.251
	c14.512,21.153,45.297,52.522,72.09,60.328c21.18-14.464,53.424-35.701,61.845-61.845c4.553,2.277,9.106,4.553,13.659,6.83
	c6.829,1.771,13.66,3.542,20.489,5.312c36.01,7.011,84.123-10.568,75.125-48.566c-2.995-12.645-11.636-20.488-16.315-31.871
	c13.954-8.196,30.375-13.934,37.562-28.836C370.023,256.765,370.964,249.435,369.872,243.558z M294.367,234.832
	c0,4.426,0,8.854,0,13.28c-7.995-3.505-10.809-10.403-22.386-9.485c0.553-4.94,3.544-5.418,7.209-7.209
	C286.137,231.368,290.046,232.589,294.367,234.832z M243.146,233.693c4.323,0.437,7.613,1.614,11.003,2.656
	c0.126,0.506,0.253,1.012,0.379,1.518c-6.146,10.244-11.063,9.817-25.8,8.727c-0.126-0.253-0.253-0.506-0.379-0.759
	C231.607,237.511,234.918,237.149,243.146,233.693z M204.066,246.214c0.693-12.461,3.266-24.748,6.83-33.768
	c11.488,0.401,16.47,7.531,26.559,9.106c0,0.126,0,0.253,0,0.379C229.956,233.139,222.846,246.322,204.066,246.214z
	 M249.217,226.484c0-0.379,0-0.759,0-1.138c4.004-1.598,9.232-2.569,13.659-4.553c3.288,0.126,6.577,0.253,9.865,0.379
	c0.253,0.379,0.506,0.759,0.759,1.138C278.047,234.078,254.037,239.718,249.217,226.484z M270.085,218.137
	c-39.273,9.707-65.862-27.996-72.848-55.775c-7.803-31.027,2.236-58.33,22.765-67.916c1.644-1.644,3.288-3.288,4.932-4.932
	c2.97,2.032,4.246,4.495,6.45,7.209c0.379,0,0.759,0,1.138,0c9.912-7.376,19.654-15.311,30.354-22.006
	c7.967-4.553,15.936-9.106,23.903-13.659c10.85,1.095,18.411,30.569,21.627,41.357C323.491,153.019,317.327,206.46,270.085,218.137z
	 M182.818,242.799c-2.636,6.393-7.09,11.667-9.865,17.453c-1.644,1.518-3.288,3.035-4.932,4.553
	c-2.646-6.715-0.725-19.964,0.379-26.559c3.466-20.704,6.758-38.107,21.627-47.048c3.288-1.138,6.577-2.277,9.865-3.415
	c0.506,0,1.012,0,1.518,0c-2.15,4.932-4.3,9.866-6.45,14.797C190.913,215.986,186.865,229.395,182.818,242.799z M189.268,250.388
	c-0.126,0.379-0.253,0.759-0.379,1.138c-0.379,0-0.759,0-1.138,0c-2.693-4.766,0.728-8.619,1.138-14.418
	C191.652,239.483,191.255,247.35,189.268,250.388z M107.693,240.902c-3.313-10.261,1.202-16.41,7.588-19.73
	c2.909,0.253,5.818,0.506,8.727,0.759c5.904,3.827,8.298,14.211,7.968,24.283C122.255,249.409,115.677,242.067,107.693,240.902z
	 M116.799,250.767c-0.759,0.885-1.518,1.771-2.277,2.656c-1.77,0.126-3.542,0.253-5.312,0.379c0-1.77,0-3.541,0-5.312
	c2.814-0.761,4.619,0.368,6.83,1.138C116.293,250.008,116.547,250.388,116.799,250.767z M77.34,208.652
	c10.934,4.834,26.303,4.014,26.18,20.109C96.351,223.407,79.854,217.599,77.34,208.652z M92.137,225.346c0,4.426,0,8.854,0,13.28
	c-4.932,0-9.865,0-14.797,0c0-6.196,0-12.395,0-18.592C84.68,220.102,87.521,222.839,92.137,225.346z M93.275,212.066
	c-30.148-16.483-28.524-51.101-22.006-89.922c0.253-0.126,0.506-0.253,0.759-0.379c0.632,1.771,1.265,3.541,1.897,5.312
	c26.011-0.539,62.959-31.766,76.643-46.669c16.515,5.021,11.343,45.603,31.871,52.36c-9.374,3.339-17.365-12.592-31.492-7.588
	c0,0.127,0,0.253,0,0.379c4.477,6.898,19.17,7.122,25.8,11.762c0.126,4.806,0.253,9.613,0.379,14.418
	c1.489,9.404,3.576,20.948,0.759,30.354c-7.109,23.73-32.515,38.516-65.26,35.286C105.598,216.685,98.547,214.949,93.275,212.066z
	 M56.092,157.43c-8.858-3.754-9.509-19.232-1.518-24.283c0.506,0,1.012,0,1.518,0C52.506,141.189,53.346,149.41,56.092,157.43z
	 M57.61,169.192c0.126,0,0.253,0,0.379,0c5.154,5.925,2.07,21.948,0.759,29.215c-1.715,0.828-4.798,0.862-7.588,0.759
	c-0.126-0.253-0.253-0.506-0.379-0.759C54.388,188.489,52.414,176.604,57.61,169.192z M60.266,123.282
	c-5.789,2.004-9.559,3.358-13.28,7.209c-6.628-14.328,7.361-43.737,7.588-59.948c7.139,0.314,9.404,3.938,14.797,5.691
	C66.399,91.424,59.927,103.777,60.266,123.282z M44.71,186.266c-0.127,0-0.253,0-0.379,0c-1.594-8.821-2.626-22.417,0.759-30.354
	C52.738,159.975,44.895,178.083,44.71,186.266z M65.957,189.681c0.632,0.126,1.265,0.253,1.897,0.379
	c2.355,3.88,1.743,8.878,0.759,13.659c-0.379,0.253-0.759,0.506-1.138,0.759c-0.506-0.506-1.012-1.012-1.518-1.518
	C65.957,198.535,65.957,194.107,65.957,189.681z M190.407,174.504c0.212,6.77-3.013,11.524-7.968,12.9c0-0.253,0-0.506,0-0.759
	C178.138,181.636,184.959,174.431,190.407,174.504z M131.976,223.07c0-0.253,0-0.506,0-0.759c3.702,1.134,4.867,0.081,9.106-0.379
	c-0.031,5.401-1.281,8.994-3.415,12.141c-1.265,0.253-2.53,0.506-3.794,0.759C133.174,231.562,130.483,226.673,131.976,223.07z
	 M155.5,220.034c0.758,0.126,1.518,0.253,2.277,0.379c2.802,4.342,2.872,13.936,0.379,19.73c-3.361,3.779-13.57,6.262-20.489,6.071
	C140.692,232.738,145.329,226.342,155.5,220.034z M149.05,246.214c2.277-0.632,4.553-1.265,6.83-1.897c2.023,0,4.047,0,6.071,0
	c1.106,3.966,0.047,9.278-0.759,12.521c-5.644,2.337-10.662-5.469-12.141-10.244C149.05,246.467,149.05,246.341,149.05,246.214z
	 M165.744,214.343c0.885,0.253,1.771,0.506,2.656,0.759c0.253,0.379,0.506,0.759,0.759,1.138c0.851,6.553-4.766,9.551-5.312,16.315
	C159.231,227.93,163.588,218.16,165.744,214.343z M199.892,215.102c5.948,9.858,0.284,26.911-4.174,32.63
	c-0.379,0.126-0.759,0.253-1.138,0.379C190.809,235.823,198.868,225.93,199.892,215.102z M328.515,131.25
	c7.331,4.171,4.276,19.443-1.897,22.386C324.244,152.564,326.989,134.481,328.515,131.25z M209.377,18.942
	c2.976-2.09,1.373-8.433,2.277-12.521c4.831-0.019,9.858,0.157,13.659,0.759c0.636,1.891-0.09,1.455-0.759,3.794
	c2.926,5.094,10.118,7.698,15.177,10.624c3.469-1.891,0.343-3.912-0.379-7.209c13.501-7.695,35.442-6.701,49.704-0.759
	c12.485,5.201,28.427,16.252,31.871,29.974c-0.253,1.265-0.506,2.53-0.759,3.794c0.506,4.3,1.012,8.601,1.518,12.9
	c4.172,16.413,7.068,30.516,1.518,47.427c-0.126,0-0.253,0-0.379,0c-5.395-5.972-5.008-21.299-7.588-29.595
	c-0.759-0.126-1.518-0.253-2.276-0.379c-0.126,0-0.253,0-0.379,0c-1.094,1.78-1.273,4.348-1.138,7.588
	c-7.24-5.322-12.101-17.716-14.797-27.318c-5.061-2.028-14.603,1.392-18.971,3.035c-14.363,5.404-26.261,12.033-39.46,18.971
	c0.872-5.645,3.985-11.123,6.45-15.556c0-0.379,0-0.759,0-1.138c-14.947,3.537-17.687,24.45-33.389,27.698
	c-0.56-4.006-2.354-6.152-1.897-10.244c-0.126,0-0.253,0-0.379,0c-8.556,6.379-18.9,30.353-20.109,44.013c-0.253,0-0.506,0-0.759,0
	c-1.191-6.716-5.566-16.667-14.418-14.418c-4.286-15.937,6.852-31.757-1.897-43.633c1.55-15.564,23.016-23.328,20.109-37.942
	c-1.012-2.529-2.023-5.059-3.035-7.588C193.312,20.522,205.07,21.226,209.377,18.942z M92.137,32.601
	C92.052-1.48,152,9.056,172.574,17.045c4.6,8.372-2.658,13.554,9.865,15.936c-3.698,8.249-12.014,14.459-17.453,21.247
	c-9.053,11.299-20.212,20.716-29.215,31.871c-3.667,4.046-7.336,8.095-11.003,12.141c2.83-13.787,18.4-23.306,23.903-37.562
	c0-0.126,0-0.253,0-0.379c-5.612,2.771-10.225,10.755-14.038,15.556c-14.067,17.709-32.273,38.777-64.881,36.424
	c2.962-26.154,13.189-52.705,26.18-69.813c4.925-6.486,11.598-10.772,17.453-16.315c0-0.126,0-0.253,0-0.379
	C105.367,27.077,101.54,32.591,92.137,32.601z M48.504,32.981c5.661-2.362,10.837-0.515,15.556,1.897
	c3.725-2.192,5.156-6.685,8.347-9.485c25.612-0.176,3.956,34.175,3.035,44.771c-0.126,0.126-0.253,0.253-0.379,0.379
	C58.462,63.979,41.066,55.656,48.504,32.981z M37.121,84.582c2.07-8.147,5.549-15.703,7.588-23.145
	c1.897,1.138,3.794,2.277,5.691,3.415c-2.909,17.199-5.818,34.402-8.727,51.601c-2.284,13.223-0.501,26.312-2.656,40.598
	c-1.266,8.392-1.142,20.755,0.379,28.836c-0.127,0-0.253,0-0.379,0C29.735,166.799,31.448,106.912,37.121,84.582z M9.424,217.758
	c9.953-2.635,16.94,1.351,24.283,3.794c7.429-6.375,8.912-10.241,18.971-15.177c13.066,0.057,20.549,10.494,17.833,25.8
	c-3.413,19.232-11.545,33.156-21.247,45.91C26.049,276.125-3.999,245.998,9.424,217.758z M24.6,323.995
	c-3.755-5.905-10.868-21.903-5.691-32.251c4.148-6.614,33.645-10.315,42.874-12.9c1.457-4.246-0.092-9.489,0.759-14.418
	c2.124-12.308,9.568-13.41,19.73-17.833c10.81-0.33,20.922,2.08,21.247,12.141c-5.857,6.539-15.228,13.501-18.592,22.006
	c-9.119,23.058,12.116,50.126,14.797,69.434C65.133,350.585,38.225,345.424,24.6,323.995z M201.03,394.947
	c-6.082,4.724-20.315,17.676-31.871,15.556c-32.136-5.893-62.118-55.012-69.813-87.266c-7.978-33.441,10.13-71.445,44.771-64.122
	c10.823,2.288,17.228,8.158,25.801,11.383c5.761-4.472,10.431-9.459,18.212-12.141c3.288-0.632,6.577-1.265,9.865-1.897
	c36.655-0.388,53.355,26.391,44.771,65.26C235.767,353.412,222.803,378.035,201.03,394.947z M331.93,348.657
	c-14.037,18.711-50.079,14.568-72.848,7.209c-4.888-1.58-11.279-2.592-14.797-5.691c-0.634-0.966,2.659-7.144,3.794-9.485
	c4.012-8.275,7.276-17.868,9.865-27.698c3.567-13.546,4.011-34.392-1.138-46.289c-2.224-5.139-7.122-8.516-9.106-13.28
	c4.331-4.864,9.656-5.542,16.315-8.347c23.638-0.434,34.518,14.589,37.942,34.527c0,3.667,0,7.336,0,11.003c0,0.126,0,0.253,0,0.379
	c1.77,0.126,3.541,0.253,5.312,0.379c6.996,2.175,8.637,8.617,17.453,4.174C338.576,305.728,344.048,332.504,331.93,348.657z
	 M318.65,291.365c-17.545-12.843-33.127-84.237,11.383-73.607c2.613,4.51,5.783,8.55,6.071,15.177
	C396.768,231.833,342.693,290.453,318.65,291.365z M251.114,22.736c2.842-5.544,6.427-4.786,12.521-7.209
	c8.268-0.259,17.167,1.226,20.868,5.691c-0.253,0.253-0.506,0.506-0.759,0.759C280.247,22.803,253.475,24.336,251.114,22.736z
	 M97.449,54.987c6.619-5,12.064-11.765,18.971-16.694c7.967-5.438,15.936-10.877,23.903-16.315
	c3.035,3.515-3.888,10.327-5.691,12.141c-5.699,5.735-28.92,20.255-37.562,22.006C97.196,55.746,97.322,55.366,97.449,54.987z
	 M234.419,38.672c0.253,0,0.506,0,0.759,0c-1.892,7.855-18.384,22.267-24.662,26.939c-0.126,0-0.253,0-0.379,0
	c0-0.632,0-1.265,0-1.897C216.849,48.27,219.876,46.209,234.419,38.672z M196.098,65.611c6.847-21.306,11.26-25.642,28.836-36.045
	c0.506,0,1.012,0,1.518,0c0,0.379,0,0.759,0,1.138c-9.593,4.644-17.509,18.079-23.524,26.559
	C200.938,60.068,199.577,64.364,196.098,65.611z"/>
</svg>
