<?xml version="1.0" encoding="utf-8"?>
<!-- Generator: Adobe Illustrator 17.0.0, SVG Export Plug-In . SVG Version: 6.00 Build 0)  -->
<!DOCTYPE svg PUBLIC "-//W3C//DTD SVG 1.1//EN" "http://www.w3.org/Graphics/SVG/1.1/DTD/svg11.dtd">
<svg version="1.1" id="图层_1" xmlns:ev="http://www.w3.org/2001/xml-events"
	 xmlns="http://www.w3.org/2000/svg" xmlns:xlink="http://www.w3.org/1999/xlink" x="0px" y="0px" width="181.667px"
	 height="248.833px" viewBox="-1 -0.833 181.667 248.833" enable-background="new -1 -0.833 181.667 248.833" xml:space="preserve">
<path fill="#FFFFFF" stroke="#E6E6ED" d="M13,0h154c7.18,0,13,5.82,13,13v222c0,7.18-5.82,13-13,13H13c-7.18,0-13-5.82-13-13V13
	C0,5.82,5.82,0,13,0z"/>
<path fill="#FFFFFF" stroke="#E6E6ED" d="M90,229c3.866,0,7,3.134,7,7s-3.134,7-7,7s-7-3.134-7-7S86.134,229,90,229z"/>
<path fill="#00000D" d="M90,12c1.104,0,2,0.895,2,2s-0.896,2-2,2c-1.105,0-2-0.895-2-2S88.895,12,90,12z"/>
<path fill="#EFAD45" d="M8,24h164v200H8V24z"/>
</svg>
