<?xml version="1.0" encoding="utf-8"?>
<!-- Generator: Adobe Illustrator 17.0.0, SVG Export Plug-In . SVG Version: 6.00 Build 0)  -->
<!DOCTYPE svg PUBLIC "-//W3C//DTD SVG 1.1//EN" "http://www.w3.org/Graphics/SVG/1.1/DTD/svg11.dtd">
<svg version="1.1" id="图层_1" xmlns="http://www.w3.org/2000/svg" xmlns:xlink="http://www.w3.org/1999/xlink" x="0px" y="0px"
	 width="320.42px" height="42.351px" viewBox="0 0 320.42 42.351" enable-background="new 0 0 320.42 42.351" xml:space="preserve">
<path fill="#004098" d="M298.276,8.814c-1.374-5.134-2.127-7.804-2.239-8.007c-1.312,0.445-3.38,1.295-6.213,2.521
	c0.887,2.642,1.555,5.278,2.002,7.917C292.833,10.853,294.976,10.042,298.276,8.814z M275.332,18.031h6.885l0.848-4.176h-12.426
	c0.335-0.502,0.629-1.085,0.856-1.737h10.242l0.849-4.176h-3.695c1.604-1.624,3.046-2.965,4.334-4.009l-4.3-2.778
	c-1.382,1.823-2.89,3.596-4.521,5.299l2.596,1.649h-3.687l0.522-1.731l0.691-1.76c0.565-1.482,1.013-2.578,1.333-3.288
	c0.032-0.288-0.153-0.453-0.73-0.52c-1.081-0.179-2.799-0.291-5.137-0.351c-0.709,3.045-1.357,5.441-2.016,7.487H264.7l1.048-0.721
	c1.834-1.235,2.751-1.887,2.77-1.985c-0.974-2.281-1.834-3.824-2.59-4.609c-0.022-0.15-1.381,0.693-4.078,2.504l-0.919,0.628
	c0.017,0.049,0.126,0.213,0.337,0.502c0.945,1.275,1.725,2.498,2.346,3.68h-2.686l-0.854,4.176h6.051l-0.433,0.866l-0.424,0.871
	h-6.55l-0.848,4.176h4.534c-1.699,2.152-3.669,3.923-5.922,5.33l-0.004,0.007c-0.327,0.196-0.653,0.391-0.984,0.582l0.123-0.589
	l4.146-20.466h-11.752l-4.15,20.466l-0.263,1.284c-1.001,4.888-2.667,9.22-4.988,13.007c1.246,1.134,2.289,2.351,3.128,3.655
	c2.46-3.637,4.416-8.324,5.87-14.057h2.515l-1.442,7.141c-0.114,0.969-1.038,1.373-2.766,1.214c0.36,1.745,0.473,3.524,0.343,5.351
	c4.191-0.03,6.328-1.044,6.406-3.044l2.518-12.401c0.93,0.964,1.595,1.918,2.016,2.875c0.642-0.329,1.396-0.883,2.265-1.647
	l-1.558,5.217h14.103l-0.282,1.388c-0.557,2.818-1.327,4.139-2.31,3.958l0.802-3.958h-15.112l-0.84,4.139h12.261
	c0.704,1.563,0.987,3.19,0.859,4.868c3.914-0.135,6.337-0.772,7.271-1.915c0.292-0.335,0.572-0.926,0.894-1.918
	c0.638-1.988,1.422-4.895,2.351-8.71l0.527-2.204h-5.199l0.665-3.311c1.622,1.465,2.911,2.428,3.865,2.875
	c1.116-1.439,2.178-2.717,3.185-3.807c0.444-0.479,0.876-0.914,1.301-1.327C279.093,21.106,276.791,19.774,275.332,18.031z
	 M251.006,22.9h-2.518l1.131-5.566h2.512L251.006,22.9z M252.985,13.163h-2.521l1.196-5.918h2.525L252.985,13.163z M268.15,27.786
	h-4.191c0.323-1.147,0.623-2.088,0.905-2.792c-0.21-0.119-0.365-0.173-0.473-0.173h-2.527l1.054-1.043h6.046L268.15,27.786z
	 M266.751,19.774l0.684-0.865l0.676-0.877h1.514c0.202,0.588,0.473,1.177,0.822,1.742H266.751z M297.107,26.425l-0.959-2.131
	l-0.955,0.874c-1.691,1.554-2.913,2.625-3.645,3.218l1.018-5.024l1.977-9.761h-9.988l-0.992,4.872h4.785l-0.996,4.889l-1.646,8.153
	c-0.222,1.093-1.058,2.25-2.506,3.484c-0.436,0.361-0.66,0.594-0.695,0.695c0.536,1.721,1.459,3.363,2.789,4.92
	c0.1,0.023,0.645-0.47,1.617-1.485c1.46-1.596,5.178-5.122,11.147-10.567C298.035,28.484,297.718,27.786,297.107,26.425z
	 M316.045,30.122c-0.878,2.81-1.425,3.704-1.647,2.706c-0.45-1.87-0.201-5.007,0.736-9.446h0.006
	c0.009-0.049,0.016-0.089,0.027-0.132l4.091-20.175h-18.474l-0.983,4.869h3.865l-1.837,9.048h-4.872l-0.986,4.877h4.868l-0.3,1.494
	l-3.532,17.432h5.373l3.53-17.432l0.302-1.494h3.862l-0.304,1.494l-0.438,2.149c-1.193,5.757-0.753,10.213,1.327,13.362
	c1.205,1.777,2.674,2.533,4.41,2.261c1.796,0.095,3.582-2.901,5.35-9.008C318.81,31.368,317.352,30.717,316.045,30.122z
	 M311.229,16.991h-4.026l1.832-9.048h4.028L311.229,16.991z M37.021,0H1.419L0,5.872h13.42l-4.219,17.49L4.854,41.385h8.805
	l4.346-18.023l4.22-17.49h13.383L37.021,0z M88.51,10.434c-3.73,0-7.37,1.195-10.922,3.611l-7.871-2.78l-2.919,12.096l-4.35,18.023
	h8.543l3.51-14.533c0.306-1.293,0.654-2.451,1.038-3.476h0.003c0.729-1.953,1.598-3.426,2.596-4.415
	c1.551-1.523,3.738-2.285,6.561-2.285c2.597,0,4.246,0.58,4.951,1.73c0.631,0.975,0.723,2.63,0.279,4.955
	c-0.066,0.38-0.153,0.784-0.254,1.205l-4.061,16.818h8.552l4.338-18.023l0.109-0.439c1.024-4.245,0.73-7.302-0.882-9.183
	C95.867,11.531,92.796,10.434,88.51,10.434z M125.205,9.564c-5.644,0-10.775,1.546-15.399,4.634
	c-3.854,2.575-6.475,5.633-7.871,9.163l6.81,0.005l-6.81,0.014c-0.283,0.718-0.513,1.445-0.698,2.201
	c-1.087,4.497-0.078,8.255,3.02,11.289c3.112,3.005,7.505,4.514,13.201,4.514c3.453,0,7.077-0.735,10.879-2.195l2.22-9.189
	c-2.532,2.025-4.632,3.39-6.316,4.09c-1.736,0.716-3.625,1.079-5.67,1.079c-3.193,0-5.607-0.906-7.239-2.723
	c-1.602-1.814-2.066-4.135-1.381-6.955c0.181-0.74,0.426-1.453,0.737-2.125h0.006c0.862-1.837,2.226-3.429,4.099-4.771
	c2.555-1.84,5.436-2.751,8.634-2.751c2.039,0,3.73,0.369,5.06,1.107c1.361,0.726,2.783,2.047,4.25,3.989l2.236-9.247
	C132.095,10.273,128.839,9.564,125.205,9.564z M197.701,10.434c-3.732,0-7.372,1.195-10.925,3.611l-7.871-2.78l-2.924,12.096
	l-4.347,18.023h8.548l3.499-14.533c0.317-1.293,0.66-2.451,1.047-3.476h0.006c0.732-1.953,1.591-3.426,2.59-4.415
	c1.56-1.523,3.744-2.285,6.567-2.285c2.59,0,4.239,0.58,4.943,1.73c0.635,0.975,0.727,2.63,0.285,4.955
	c-0.066,0.38-0.153,0.784-0.253,1.205l-4.061,16.818h8.54l4.347-18.023l0.106-0.439c1.027-4.245,0.73-7.302-0.88-9.183
	C205.056,11.531,201.979,10.434,197.701,10.434z M215.751,23.362l-4.35,18.023h8.497l4.354-18.023l1.224-5.053h-8.508
	L215.751,23.362z M220.516,3.585l-1.852,7.681h-7.035l-1.381,5.742h25.842L220.516,3.585z M157.04,9.564
	c-5.37,0-10.034,1.447-13.985,4.363c-3.332,2.501-5.667,5.65-7,9.434l0.004,0.02h-0.004c-0.242,0.684-0.447,1.382-0.62,2.111
	c-1.162,4.8-0.43,8.656,2.192,11.566c2.631,2.887,6.698,4.327,12.187,4.327c9.35,0,16.489-5.898,17.215-6.544l-4.038-0.98
	c-0.952,0.225-6.17,1.799-11.378,1.309c-6.562-0.611-8.061-5.602-7.686-8.076h26.379l0.432-1.638
	c0.174-0.722,0.312-1.433,0.413-2.094h-0.241l0.241-0.017c0.569-3.972-0.198-7.146-2.287-9.541
	C166.395,10.983,162.451,9.564,157.04,9.564z M145.864,21.412c0.485-0.876,1.079-1.643,1.768-2.327
	c0.695-0.679,1.459-1.255,2.306-1.728c0.877-0.49,1.794-0.866,2.761-1.113c0.974-0.271,1.975-0.398,3.01-0.398
	c4.537,0,6.942,1.857,7.237,5.566H145.864z M47.111,9.564c-5.371,0-10.034,1.447-13.985,4.363c-3.332,2.501-5.667,5.65-7,9.434
	l0.004,0.02h-0.004c-0.243,0.684-0.448,1.382-0.621,2.111c-1.162,4.8-0.43,8.656,2.191,11.566c2.631,2.887,6.698,4.327,12.187,4.327
	c9.35,0,16.489-5.898,17.216-6.544l-4.038-0.98c-0.952,0.225-6.17,1.799-11.379,1.309c-6.561-0.611-8.061-5.602-7.686-8.076h26.379
	l0.432-1.638c0.173-0.722,0.312-1.433,0.413-2.094h-0.241l0.241-0.017c0.569-3.972-0.198-7.146-2.287-9.541
	C56.467,10.983,52.521,9.564,47.111,9.564z M35.935,21.412c0.484-0.876,1.078-1.643,1.768-2.327
	c0.695-0.679,1.458-1.255,2.306-1.728c0.877-0.49,1.795-0.866,2.761-1.113c0.974-0.271,1.975-0.398,3.011-0.398
	c4.537,0,6.942,1.857,7.236,5.566H35.935z"/>
</svg>
