<?xml version="1.0" encoding="utf-8"?>
<!-- Generator: Adobe Illustrator 17.0.0, SVG Export Plug-In . SVG Version: 6.00 Build 0)  -->
<!DOCTYPE svg PUBLIC "-//W3C//DTD SVG 1.1//EN" "http://www.w3.org/Graphics/SVG/1.1/DTD/svg11.dtd">
<svg version="1.1" id="OBJECTS" xmlns="http://www.w3.org/2000/svg" xmlns:xlink="http://www.w3.org/1999/xlink" x="0px" y="0px"
	 width="272.366px" height="221.685px" viewBox="0 0 272.366 221.685" enable-background="new 0 0 272.366 221.685"
	 xml:space="preserve">
<g>
	<g>
		<path fill="#CCCCCC" d="M84.452,202.217c0.321,2.738,0.354,5.389-1.411,7.616c-1.941,2.449-6.966,6.024-2.855,9.174
			c1.454,1.114,3.376,1.351,5.197,1.549c2.231,0.243,4.512,0.483,6.697-0.024c2.186-0.507,4.782-1.8,5.033-4.03
			c1.845-16.373-0.13-28.26-1.368-42.086c-1.287-14.371-1.233-28.861,0.16-43.222c0.104-1.072,0.202-2.215-0.3-3.167
			c-0.546-1.036-1.676-1.606-2.753-2.067c-8.517-3.645-18.211-4.473-27.223-2.326c-0.748,0.178-1.67,0.619-1.577,1.383
			C64.144,125.782,81.39,176.115,84.452,202.217z"/>
		<path fill="#CCCCCC" d="M205.024,117.444c-2.673,17.349,3.753,35.846,16.608,47.8c1.551,1.443,3.233,2.853,4.135,4.77
			c2.818,5.989-2.728,14.418-5.05,19.838c-2.593,6.053-5.186,12.105-7.78,18.158c-0.798,1.863-4.313,11.803-7.039,12.133
			c-5.704,0.691-13.778,2.01-13.737-5.676c0.014-2.606,4.85-4.443,5.966-4.795c3.861-1.223,4.501-8.455,5.159-11.719
			c0.779-3.863,1.613-7.714,2.503-11.553c0.592-2.554,2.503-6.829,0.94-9.373c-0.651-1.057-2.048-1.315-3.28-1.471
			c-4.876-0.618-9.751-1.235-14.627-1.853c-3.371-0.427-6.825-0.879-9.833-2.46c-4.777-2.51-7.723-7.479-9.873-12.429
			c-4.734-10.898-6.799-22.943-5.965-34.795c6.081-5.495,13.25-10.867,21.108-13.195c3.756-1.113,7.754-1.823,11.585-1.002
			C199.673,110.639,205.621,113.572,205.024,117.444z"/>
	</g>
	<g>
		<path fill="#FFFFFF" d="M50.977,55.834c-8.148-2.965-16.206-6.179-24.158-9.635c-5.395-2.345-10.793-4.832-15.464-8.407
			c-4.671-3.574-8.614-8.361-10.189-14.027c-1.537-5.53-2.585-18.94,3.792-22.38c6.6-3.56,22.551,0.08,37.884,7.127
			c7.748,3.561,12.311-0.556,25.339,7.852c1.929,1.245,4.771,3.275,5.557,5.433c2.778,7.624-1.201,17.184-7.059,22.799
			c-2.196,2.104-4.824,3.692-7.429,5.262C56.595,51.457,53.632,54.234,50.977,55.834z"/>
		<g>
			<defs>
				<path id="SVGID_17_" d="M50.977,55.834c-8.148-2.965-16.206-6.179-24.158-9.635c-5.395-2.345-10.793-4.832-15.464-8.407
					c-4.671-3.574-8.614-8.361-10.189-14.027c-1.537-5.53-2.585-18.94,3.792-22.38c6.6-3.56,23.843,2.004,38.838,9.744
					c4.803,2.479,13.724-1.51,24.385,5.235c1.941,1.228,2.822,3.638,3.608,5.796c2.778,7.624,0.747,16.821-5.111,22.435
					c-2.196,2.104-4.824,3.692-7.429,5.262C56.595,51.457,53.632,54.234,50.977,55.834z"/>
			</defs>
			<clipPath id="SVGID_2_">
				<use xlink:href="#SVGID_17_"  overflow="visible"/>
			</clipPath>
			<path clip-path="url(#SVGID_2_)" fill="#333333" d="M-0.871,1.555c0.493,1.746,0.986,3.492,1.479,5.238
				c5.698-0.559,11.183-3.106,15.285-7.101c1.087-1.058,2.151-2.554,1.615-3.973C14.146-5.455,10.477-6.068,7.014-5.24
				S0.345-1.934-0.647,1.487"/>
		</g>
	</g>
	<g>
		<path fill="#FFFFFF" d="M271.124,59.329c-3.246-2.062-10.256,10.943-11.788,12.944c-4.98,6.504-11.308,12.827-18.67,16.576
			c-8.01,4.078-17.075,5.766-25.935,6.747c-2.876,0.319-6.965,0.691-10.296,1.667c-10.743-6.752-28.945-4.252-40.409-6.143
			c-12.887-2.125-25.246-6.588-37.329-11.426c-13.868-5.553-30.666-9.338-39.747-22.342c-7.619-10.911-8.64-25.781-17.67-35.556
			c1.22,4.253-2.597,8.144-6.032,10.932c-5.654,4.589-9.801,9.761-15.455,14.35c6.598,9.404,7.816,21.527,7.632,33.013
			c-0.184,11.486-1.543,23.111,0.727,34.373c1.297,6.437,6.631,18.753,17.24,27.315c5.363,17.212,13.105,43.767,15.06,60.439
			c0.321,2.738,0.354,5.389-1.411,7.616c-1.941,2.449-6.966,6.024-2.855,9.174c1.454,1.114,3.376,1.351,5.197,1.549
			c2.231,0.243,4.512,0.482,6.697-0.024c2.186-0.507,4.782-1.8,5.033-4.03c1.845-16.373-0.13-28.26-1.368-42.086
			c-0.696-7.771-0.986-15.576-0.898-23.377c2.49,0.062,5.089-0.051,7.827-0.406c10.964-1.425,21.526-4.798,32.174-7.774
			c10.601-2.963,21.475-4.938,32.439-5.922c0.72,7.869,2.68,15.626,5.828,22.875c2.15,4.95,5.095,9.919,9.873,12.429
			c3.008,1.581,6.462,2.033,9.833,2.46c4.876,0.618,9.751,1.235,14.627,1.853c1.232,0.156,2.629,0.414,3.28,1.471
			c1.563,2.545-0.348,6.819-0.94,9.373c-0.889,3.839-1.724,7.69-2.503,11.553c-0.658,3.263-1.298,10.496-5.159,11.719
			c-1.115,0.353-5.952,2.189-5.966,4.795c-0.041,7.686,8.033,6.366,13.737,5.676c2.726-0.33,6.241-10.27,7.039-12.133
			c2.593-6.053,5.187-12.105,7.78-18.158c2.322-5.42,7.868-13.849,5.05-19.838c-0.902-1.917-2.583-3.327-4.135-4.769
			c-12.855-11.954-19.282-30.45-16.608-47.8c0.062-0.401,0.038-0.789-0.031-1.168c0.111-1.745,0.099-3.475-0.101-5.382
			c-0.107-1.024-0.278-2.048-0.508-3.058c5.823-0.318,12.299-1.835,16.674-3.713c0.97-0.416,1.947-0.847,2.927-1.292
			c9.593-4.35,19.284-9.685,27.03-17.081c3.935-3.758,7.361-8.076,9.825-12.943C270.124,71.272,274.476,61.458,271.124,59.329z"/>
		<g>
			<defs>
				<path id="SVGID_19_" d="M271.124,59.329c-3.246-2.062-10.256,10.943-11.788,12.944c-4.98,6.504-11.308,12.827-18.67,16.576
					c-8.01,4.078-17.075,5.766-25.935,6.747c-2.876,0.319-6.965,0.691-10.296,1.667c-10.743-6.752-28.945-4.252-40.409-6.143
					c-12.887-2.125-25.246-6.588-37.329-11.426c-13.868-5.553-30.666-9.338-39.747-22.342c-7.619-10.911-8.64-25.781-17.67-35.556
					c1.22,4.253-2.597,8.144-6.032,10.932c-5.654,4.589-9.801,9.761-15.455,14.35c6.598,9.404,7.816,21.527,7.632,33.013
					c-0.184,11.486-1.543,23.111,0.727,34.373c1.297,6.437,6.631,18.753,17.24,27.315c5.363,17.212,13.105,43.767,15.06,60.439
					c0.321,2.738,0.354,5.389-1.411,7.616c-1.941,2.449-6.966,6.024-2.855,9.174c1.454,1.114,3.376,1.351,5.197,1.549
					c2.231,0.243,4.512,0.482,6.697-0.024c2.186-0.507,4.782-1.8,5.033-4.03c1.845-16.373-0.13-28.26-1.368-42.086
					c-0.696-7.771-0.986-15.576-0.898-23.377c2.49,0.062,5.089-0.051,7.827-0.406c10.964-1.425,21.526-4.798,32.174-7.774
					c10.601-2.963,21.475-4.938,32.439-5.922c0.72,7.869,2.68,15.626,5.828,22.875c2.15,4.95,5.095,9.919,9.873,12.429
					c3.008,1.581,6.462,2.033,9.833,2.46c4.876,0.618,9.751,1.235,14.627,1.853c1.232,0.156,2.629,0.414,3.28,1.471
					c1.563,2.545-0.348,6.819-0.94,9.373c-0.889,3.839-1.724,7.69-2.503,11.553c-0.658,3.263-1.298,10.496-5.159,11.719
					c-1.115,0.353-5.952,2.189-5.966,4.795c-0.041,7.686,8.033,6.366,13.737,5.676c2.726-0.33,6.241-10.27,7.039-12.133
					c2.593-6.053,5.187-12.105,7.78-18.158c2.322-5.42,7.868-13.849,5.05-19.838c-0.902-1.917-2.583-3.327-4.135-4.769
					c-12.855-11.954-19.282-30.45-16.608-47.8c0.062-0.401,0.038-0.789-0.031-1.168c0.111-1.745,0.099-3.475-0.101-5.382
					c-0.107-1.024-0.278-2.048-0.508-3.058c5.823-0.318,12.299-1.835,16.674-3.713c0.97-0.416,1.947-0.847,2.927-1.292
					c9.593-4.35,19.284-9.685,27.03-17.081c3.935-3.758,7.361-8.076,9.825-12.943C270.124,71.272,274.476,61.458,271.124,59.329z"/>
			</defs>
			<clipPath id="SVGID_4_">
				<use xlink:href="#SVGID_19_"  overflow="visible"/>
			</clipPath>
			<path clip-path="url(#SVGID_4_)" fill="#333333" d="M103.475,87.655c-1.138-1.821-3.173-2.695-4.362-4.406
				c-1.332-1.917-0.438-4.096-0.609-6.23c-0.239-2.98-3.759-3.324-5.524-1.558c-1.081,1.082-1.603,2.47-1.728,3.95
				c-1.344,3.271-1.453,6.62-0.333,10.263c1.183,3.848,4.516,7.817,8.984,6.823C104.039,95.579,105.686,91.193,103.475,87.655z"/>
			<path clip-path="url(#SVGID_4_)" fill="#333333" d="M126.218,90.334c-0.29,0.223-0.536,0.472-0.742,0.74
				c-3.382,0.653-2.763,5.8,0.227,7.388c3.837,2.038,11.736,1.127,11.797-4.428C137.559,88.741,129.621,87.722,126.218,90.334z"/>
			<path clip-path="url(#SVGID_4_)" fill="#333333" d="M118.481,112.866c-0.711-0.706-1.435-1.284-2.3-1.79
				c-0.418-0.245-0.895-0.598-1.362-0.734c-0.434-0.127-0.901,0.058-1.318-0.084c-0.239-0.081-0.472,0.014-0.625,0.176
				c-0.409,0.084-0.808,0.25-1.175,0.516c-1.224,0.887-0.61,2.699,0.754,2.98c0.585,0.12,0.783,2.035,0.969,2.489
				c0.446,1.086,1.244,1.982,2.35,2.409c1.797,0.693,3.574-0.448,3.877-2.158C120.568,115.356,119.443,113.823,118.481,112.866z"/>
			<path clip-path="url(#SVGID_4_)" fill="#333333" d="M126.79,76.276c-1.809-2.045-4.617-2.864-7.26-3.008
				c-1.256-0.068-2.382,0.817-2.241,2.167c0.157,1.507,0.84,2.846,1.839,3.867c0.122,0.251,0.257,0.496,0.384,0.728
				c0.513,0.932,1.177,1.683,2.118,2.201c1.675,0.922,3.826,0.648,5.229-0.659C128.493,80.05,128.181,77.848,126.79,76.276z"/>
			<path clip-path="url(#SVGID_4_)" fill="#333333" d="M83.783,61.55c-0.573-2.236-2.119-3.987-4.351-4.642
				c-1.751-0.514-3.837,1.368-2.422,3.085c0.716,0.868,1.299,1.792,1.821,2.786c-0.011,0.045-0.024,0.091-0.034,0.135
				c-0.165,0.781-0.152,1.616,0.116,2.375c0.568,1.608,2.314,2.667,3.829,1.474C84.193,65.62,84.199,63.171,83.783,61.55z"/>
			<path clip-path="url(#SVGID_4_)" fill="#333333" d="M163.539,104.99c-1.766-2.861-4.61-4.642-7.924-5.115
				c-1.116-0.159-2.176,0.734-2.203,1.848c-0.136,0.095-0.229,0.253-0.208,0.468c0.432,4.593,5.413,7.256,9.56,5.503
				C163.894,107.217,164.148,105.976,163.539,104.99z"/>
			<path clip-path="url(#SVGID_4_)" fill="#333333" d="M184.513,95.903c1.102-1.609,0.659-4.005-0.736-5.329
				c-1.832-1.738-4.584-1.661-6.926-1.435c-1.168,0.113-1.825,0.958-1.941,1.923c-0.363-0.222-0.828,0.167-0.565,0.589
				c1.559,2.5,5.781,7.273,8.924,5.448C183.904,96.927,184.33,96.458,184.513,95.903z"/>
			<path clip-path="url(#SVGID_4_)" fill="#333333" d="M183.047,108.4c-3.944-0.886-8.588,2.576-6.827,6.924
				c0.741,1.829,2.729,2.807,4.638,2.595c1.092-0.122,2.262-0.962,3.384-1.444c0.078,0.035,0.148,0.08,0.229,0.111
				c1.387,0.538,3.246,0.521,4.394-0.531C192.69,112.551,185.713,108.999,183.047,108.4z"/>
			<path clip-path="url(#SVGID_4_)" fill="#333333" d="M206.343,130.813c-0.523-1.781-1.988-2.962-3.477-3.941
				c-1.626-1.069-4.091,0.377-3.236,2.412c0.35,0.834,0.745,1.625,1.166,2.421c-0.243,0.974-0.217,1.957,0.456,2.857
				c0.625,0.836,1.606,1.121,2.529,0.921c1.299,0.276,2.614-0.789,2.493-2.306C206.548,132.46,206.592,131.661,206.343,130.813z"/>
			<path clip-path="url(#SVGID_4_)" fill="#333333" d="M191.296,143.38c-1.021-1.051-3.058-1.254-3.658,0.44
				c-0.521,1.473-0.679,3.147-0.4,4.718c-0.233,0.653-0.207,1.392,0.138,2.08c0.718,1.43,2.449,1.992,3.934,1.519
				c1.699-0.541,2.607-2.212,2.552-3.935C193.799,146.249,192.6,144.722,191.296,143.38z"/>
			<path clip-path="url(#SVGID_4_)" fill="#333333" d="M87.08,112.997c-1.703,0.514-2.583,2.402-2.096,4.083
				c0.159,0.549,0.449,0.983,0.786,1.374c0.614,1.252,1.512,2.345,2.631,3.188c0.214,0.278,0.481,0.45,0.769,0.521
				c0.013,0.007,0.024,0.016,0.036,0.024c0.862,0.511,1.94,0.212,2.143-0.862C91.831,118.763,91.373,111.701,87.08,112.997z"/>
			<path clip-path="url(#SVGID_4_)" fill="#333333" d="M88.389,145.233c-0.996-1.738-2.405-3.123-4.279-3.872
				c-2.401-0.959-4.237,1.734-2.963,3.773c0.82,1.313,1.869,2.457,2.906,3.605c0.984,1.089,1.974,2.267,3.173,3.123
				c0.767,0.547,2.021,0.183,2.118-0.852c0.048-0.515,0.041-1.068-0.012-1.632C89.726,148.052,89.077,146.434,88.389,145.233z"/>
			<path clip-path="url(#SVGID_4_)" fill="#333333" d="M225.1,92.583c-1.286-0.224-2.603-0.146-3.904-0.144
				c-1.092,0.002-2.242-0.11-3.324,0.021c-2.198,0.267-3.618,2.606-2.179,4.518c1.239,1.647,3.683,1.855,5.572,1.632
				c1.837-0.217,4.622-0.954,4.911-3.097c0.031-0.229,0.002-0.439-0.066-0.63c0.043-0.091,0.093-0.177,0.132-0.271
				C226.614,93.72,226.035,92.745,225.1,92.583z"/>
			<path clip-path="url(#SVGID_4_)" fill="#333333" d="M141.794,108.865c-0.826-0.131-1.905,0.523-1.926,1.436
				c-0.045,1.947,0.624,3.805,1.792,5.239c-0.091,0.107-0.121,0.266-0.02,0.424c1.107,1.721,2.21,3.247,4.415,3.564
				c1.732,0.248,3.719-0.539,4.341-2.269C152.057,112.641,145.29,109.418,141.794,108.865z"/>
			<path clip-path="url(#SVGID_4_)" fill="#333333" d="M249.736,88.767c-0.087-0.149-0.245-0.239-0.418-0.297
				c-0.16-0.256-0.399-0.482-0.745-0.65c-1.484-0.721-2.807,0.784-3.698,1.724c-1.138,1.201-3.225,2.727-3.31,4.506
				c-0.017,0.347,0.217,0.624,0.581,0.6c0.14-0.009,0.275-0.031,0.405-0.062c0.121,0.55,0.568,0.998,1.308,0.929
				c1.793-0.166,3.408-0.974,4.64-2.287C249.581,92.076,250.623,90.293,249.736,88.767z"/>
			<path clip-path="url(#SVGID_4_)" fill="#333333" d="M265.711,78.797c-1.882,0.243-3.573,1.389-4.492,3.026
				c-0.031,0.05-0.058,0.102-0.087,0.153c-0.04,0.077-0.087,0.149-0.124,0.229c-0.411,0.808-0.588,1.7-0.142,2.561
				c0.142,0.274,0.444,0.397,0.718,0.23c0.796,0.338,1.843,0.055,2.148-1.158c0.231-0.92,0.991-1.672,1.88-1.974
				c0.143-0.041,0.284-0.087,0.43-0.111C267.921,81.441,267.62,78.551,265.711,78.797z"/>
			<path clip-path="url(#SVGID_4_)" fill="#333333" d="M264.503,65.661c-0.481-0.736-1.601-0.66-2.109-0.022
				c-1.451,1.819-2.35,3.947-2.596,6.263c-0.042,0.392,0.067,0.739,0.254,1.027c-0.14,0.212-0.105,0.461,0.085,0.631
				c1.562,1.399,3.704-0.329,4.599-1.749C265.948,69.888,265.713,67.512,264.503,65.661z"/>
			<path clip-path="url(#SVGID_4_)" fill="#333333" d="M218.962,151.427c-0.884-1.994-2.611-3.671-3.786-5.501
				c-1.024-1.595-3.328-0.676-3.662,0.927c-0.433,2.078,0.26,4.24,1.404,5.983c0.124,0.189,0.277,0.391,0.45,0.597
				c0.21,0.465,0.5,0.892,0.933,1.244c0.406,0.33,0.899,0.536,1.414,0.629c0.802,0.376,1.642,0.5,2.376,0.102
				c0.579-0.314,1.062-0.862,0.953-1.577c-0.005-0.036-0.02-0.068-0.027-0.103C219.318,153.029,219.307,152.206,218.962,151.427z"/>
			<path clip-path="url(#SVGID_4_)" fill="#333333" d="M98.587,158.863c-1.377-1.699-4.391-0.708-4.089,1.615
				c0.149,1.146,0.368,2.265,0.688,3.354c0.152,0.686,0.458,1.43,0.835,2.165c0.077,0.161,0.137,0.326,0.222,0.484
				c0.201,0.376,0.472,0.826,0.799,1.257c0.702,1.067,1.417,1.959,1.818,2.386c0.779,0.829,2.624,0.768,2.69-0.681
				C101.724,165.618,101.045,161.894,98.587,158.863z"/>
		</g>
	</g>
	<g>
		<defs>
			<path id="SVGID_21_" d="M212.047,124.359c-1.408,5.171-5.421,9.561-10.446,11.426c-2.413,0.896-4.996,1.23-7.562,1.441
				c-4.436,0.365-8.777-1.064-13.225-0.902c-14.181,0.517-28.3,2.716-41.967,6.536c-10.648,2.976-21.21,6.349-32.174,7.774
				c-33.655,4.375-48.252-24.908-50.522-36.169s-0.911-22.886-0.727-34.373s-1.034-23.609-7.632-33.013
				c5.654-4.589,9.801-9.761,15.455-14.35c3.435-2.788,7.252-6.679,6.032-10.932c9.03,9.774,10.051,24.645,17.67,35.556
				c9.081,13.004,25.879,16.79,39.747,22.342c12.083,4.838,24.442,9.301,37.329,11.426c12.836,2.117,34.127-1.282,43.928,8.98
				c2.998,3.139,4.487,7.477,4.94,11.794C213.345,116.211,212.877,119.619,212.047,124.359z"/>
		</defs>
		<clipPath id="SVGID_6_">
			<use xlink:href="#SVGID_21_"  overflow="visible"/>
		</clipPath>
		<path clip-path="url(#SVGID_6_)" fill="#CCCCCC" d="M48.763,22.971c-3.139,3.852-3.13,9.316-2.743,14.27
			c0.595,7.629,1.722,15.217,3.368,22.69c0.287,1.303,0.63,2.677,1.581,3.612c1.917,1.884,5.138,1.042,7.514-0.213
			c7.661-4.048,13.375-10.975,18.254-18.135c2.42-3.552,4.784-7.601,4.238-11.864c-0.547-4.273-3.992-7.707-7.882-9.56
			C66.635,20.694,54.2,16.3,48.763,22.971z"/>
	</g>
	<g>
		<path fill="#FFFFFF" d="M46.763,20.971c-3.139,3.852-3.13,9.316-2.743,14.27c0.595,7.629,1.722,15.217,3.368,22.69
			c0.287,1.303,0.63,2.677,1.581,3.612c1.917,1.884,5.138,1.042,7.514-0.213c7.661-4.048,13.375-10.975,18.254-18.135
			c2.42-3.552,4.784-7.601,4.238-11.864c-0.547-4.273-3.992-7.707-7.882-9.56C64.635,18.694,52.2,14.3,46.763,20.971z"/>
		<g>
			<defs>
				<path id="SVGID_23_" d="M46.763,20.971c-3.139,3.852-3.13,9.316-2.743,14.27c0.595,7.629,1.722,15.217,3.368,22.69
					c0.287,1.303,0.63,2.677,1.581,3.612c1.917,1.884,5.138,1.042,7.514-0.213c7.661-4.048,13.375-10.975,18.254-18.135
					c2.42-3.552,4.784-7.601,4.238-11.864c-0.547-4.273-3.992-7.707-7.882-9.56C64.635,18.694,52.2,14.3,46.763,20.971z"/>
			</defs>
			<clipPath id="SVGID_8_">
				<use xlink:href="#SVGID_23_"  overflow="visible"/>
			</clipPath>
			<path clip-path="url(#SVGID_8_)" fill="#333333" d="M78.489,36.038c-2.265-5.554-9.76-1.984-12.128,1.433
				C64,40.88,64.05,45.312,66.64,48.016c0.409,1.902,1.593,3.124,4.136,2.725c2.959-0.465,4.187-4.011,5.336-6.33
				C77.3,42.014,79.627,38.829,78.489,36.038z"/>
			<path clip-path="url(#SVGID_8_)" fill="#333333" d="M60.144,47.084c-0.066-0.126-0.154-0.229-0.227-0.347
				c0.079-0.744,0.091-1.504-0.015-2.222c-0.312-2.122-1.658-4.541-4.153-4.205c-2.161,0.291-3.332,2.744-2.868,4.719
				c0.273,1.161,1.012,2.044,1.866,2.843c0.828,0.776,1.254,1.004,1.414,2.11c0.245,1.682,2.872,2.867,3.909,1.102
				C60.865,49.732,60.876,48.47,60.144,47.084z"/>
			<path clip-path="url(#SVGID_8_)" fill="#333333" d="M58.914,58.905c-3.048,0.14-6.94,1.152-8.038,4.338
				c-0.136,0.394,0.063,0.94,0.546,0.97c2.701,0.172,5.256-0.917,7.977-0.978C62.19,63.174,61.718,58.776,58.914,58.905z"/>
			<path clip-path="url(#SVGID_8_)" fill="#333333" d="M61.568,21.331c-0.386-0.952-1.246-1.638-2.296-1.644
				c-1.24-0.007-2.121,0.913-2.887,1.776c-1.906,2.147-3.081,4.807-3.62,7.609c-0.234,1.218,1.215,2.528,2.397,1.907
				c1.783-0.937,3.543-2.024,4.798-3.635c0.91-1.168,1.854-2.594,1.844-4.027C61.878,22.631,61.821,21.955,61.568,21.331z"/>
		</g>
	</g>
	<path fill="#333333" d="M42.538,17.601c-0.696,0.28-1.542,0.872-2.041,1.286c-0.84,0.698-3.46,5.761-0.86,4.783
		c0.343-0.129,0.579-0.439,0.795-0.734c0.804-1.094,2.529-2.625,2.995-3.848C44.072,17.396,43.428,17.243,42.538,17.601z"/>
</g>
</svg>
