<?xml version="1.0" encoding="utf-8"?>
<!-- Generator: Adobe Illustrator 17.0.0, SVG Export Plug-In . SVG Version: 6.00 Build 0)  -->
<!DOCTYPE svg PUBLIC "-//W3C//DTD SVG 1.1//EN" "http://www.w3.org/Graphics/SVG/1.1/DTD/svg11.dtd">
<svg version="1.1" id="objects" xmlns="http://www.w3.org/2000/svg" xmlns:xlink="http://www.w3.org/1999/xlink" x="0px" y="0px"
	 width="184.236px" height="195.38px" viewBox="0 0 184.236 195.38" enable-background="new 0 0 184.236 195.38"
	 xml:space="preserve">
<g>
	<g>
		<path fill-rule="evenodd" clip-rule="evenodd" fill="#BF9741" d="M78.525,6.428c3.945-7.265,35.394-13.672,48.223,12.158
			c12.833,25.829,6.369,34.877,13.444,43.994c7.081,9.118-9.613,79.693-49.139,79.463c-42.249-0.246-51.465-67.746-43.059-81.423
			C56.403,46.949,49.056,6.409,78.525,6.428z"/>
		<path fill-rule="evenodd" clip-rule="evenodd" fill="#7491A0" d="M109.528,126.557c-0.358,0.561-35.554,1.123-35.944,1.679
			c-11.052,15.767-34.935,18.675-53.926,22.922C0.761,155.383,0.031,179.389,0,195.378h184.236
			c-0.028-15.988-0.381-39.906-19.662-44.22C145.295,146.847,120.014,143.042,109.528,126.557z"/>
		<path fill-rule="evenodd" clip-rule="evenodd" fill="#FFFFFF" d="M110.599,128.12v8.68l-8.99,58.58h-19.16l-8.91-57.949v-9.12
			c0.019-0.02,0.03-0.051,0.05-0.07c0.39-0.559,35.58-1.12,35.94-1.68C109.869,127.09,110.219,127.61,110.599,128.12z"/>
		<path fill-rule="evenodd" clip-rule="evenodd" fill="#F6DBC2" d="M73.66,88.88v30.279v14.943c9.248,18.921,25.851,19.412,36.916,0
			v-14.943V88.88C110.576,64.463,73.66,64.463,73.66,88.88z"/>
		<path fill-rule="evenodd" clip-rule="evenodd" fill="#F6DBC2" d="M140.81,67.764c-3.689-1.66-8.896,2.415-11.634,9.097
			c-2.74,6.688-1.973,13.453,1.716,15.112c3.688,1.66,8.899-2.411,11.637-9.097C145.266,76.191,144.497,69.427,140.81,67.764z"/>
		<path fill-rule="evenodd" clip-rule="evenodd" fill="#F6DBC2" d="M43.461,67.764c3.688-1.66,8.896,2.411,11.637,9.097
			c2.736,6.688,1.969,13.453-1.72,15.112c-3.688,1.66-8.896-2.411-11.636-9.097C39.005,76.191,39.776,69.427,43.461,67.764z"/>
		<path opacity="0.2" fill-rule="evenodd" clip-rule="evenodd" d="M73.66,111.374v1.259c0,0,11.582,11.566,18.286,11.566
			c6.702,0,18.63-11.695,18.63-11.695v-1.13H73.66z"/>
		<path fill-rule="evenodd" clip-rule="evenodd" fill="#F6DBC2" d="M92.155,120.161c-11.463,0-35.68-18.895-43.164-45.953
			C41.432,46.882,55.667,7.689,92.155,7.689c36.485,0,50.724,39.192,43.161,66.519C127.828,101.266,103.615,120.161,92.155,120.161z
			"/>
		<path fill-rule="evenodd" clip-rule="evenodd" fill="#BF9741" d="M99.572,41.575c8.953,18.771,12.586,24.312,24.49,19.356
			c11.902-4.954,9.644,8.934,7.479,18.843c10.542-13.383,9.304-26.093,6.026-39.014c-3.594-14.161-21.718-35.704-38.718-35.308
			c-9.237-0.971-23.217,0.175-38.088,10.894C34.792,35.062,43.465,77.112,50.459,82.071c-6.775-38.946,9.815-31.018,21.263-51.391
			C75.483,21.722,89.841,21.169,99.572,41.575z"/>
		<polygon fill-rule="evenodd" clip-rule="evenodd" fill="#EDEDED" points="82.599,195.36 67.029,195.36 65.959,195.38 
			49.899,180.73 66.249,169.83 46.269,160.48 59.499,139.94 64.639,131.97 73.539,127.98 73.539,137.43 82.449,195.38 		"/>
		<polygon fill-rule="evenodd" clip-rule="evenodd" fill="#EDEDED" points="117.809,169.2 134.149,180.1 118.059,195.38 
			117.029,195.36 101.459,195.36 101.609,195.38 110.599,136.8 110.599,127.41 121.459,132.23 126.249,140.35 137.779,159.86 		"/>
	</g>
</g>
</svg>
