<?xml version="1.0" encoding="utf-8"?>
<!-- Generator: Adobe Illustrator 17.0.0, SVG Export Plug-In . SVG Version: 6.00 Build 0)  -->
<!DOCTYPE svg PUBLIC "-//W3C//DTD SVG 1.1//EN" "http://www.w3.org/Graphics/SVG/1.1/DTD/svg11.dtd">
<svg version="1.1" id="objects" xmlns="http://www.w3.org/2000/svg" xmlns:xlink="http://www.w3.org/1999/xlink" x="0px" y="0px"
	 width="194.24px" height="217.951px" viewBox="0 0 194.24 217.951" enable-background="new 0 0 194.24 217.951"
	 xml:space="preserve">
<g>
	<g>
		<path fill-rule="evenodd" clip-rule="evenodd" fill="#FFDECC" d="M77.705,129.812c-42.928,18.818-55.806,28.85-60.896,33.355
			C8.965,170.108,4.626,195.983,0,217.951h97.12h97.12c-4.626-21.968-8.966-47.843-16.81-54.783
			c-5.088-4.506-17.493-14.279-60.423-33.101L77.705,129.812z"/>
		<path fill-rule="evenodd" clip-rule="evenodd" fill="#333333" d="M77.704,129.812c-42.927,18.818-55.804,28.85-60.895,33.355
			C8.965,170.108,4.626,195.983,0,217.951h97.12h97.12c-4.626-21.968-8.966-47.843-16.81-54.783
			c-5.088-4.506-17.493-14.279-60.423-33.101L77.704,129.812z"/>
		<path fill-rule="evenodd" clip-rule="evenodd" fill="#F6C5A0" d="M76.278,92.296v31.858v15.727
			c11.463,13.554,30.221,14.041,41.686,0v-15.727V92.296C117.964,66.603,76.278,66.603,76.278,92.296z"/>
		
			<ellipse transform="matrix(-0.3127 -0.9498 0.9498 -0.3127 5.2299 151.5402)" fill-rule="evenodd" clip-rule="evenodd" fill="#F6C5A0" cx="57.441" cy="73.878" rx="12.102" ry="6.999"/>
		
			<ellipse transform="matrix(0.3129 -0.9498 0.9498 0.3129 23.7042 180.5215)" fill-rule="evenodd" clip-rule="evenodd" fill="#F6C5A0" cx="136.617" cy="73.878" rx="12.103" ry="7"/>
		<path fill-rule="evenodd" clip-rule="evenodd" fill="#9FBAC4" d="M97.23,150.229c0,0-29.088,6.942-29.088,8.703
			c0,1.761,11.068,59.018,11.068,59.018h39.491l4.526-58.767L97.23,150.229z"/>
		<polygon fill-rule="evenodd" clip-rule="evenodd" fill="#1A1A1A" points="76.278,130.437 76.278,139.881 85.333,217.951 
			69.764,217.951 52.636,183.18 68.986,172.279 49.005,162.938 67.378,134.428 		"/>
		<polygon fill-rule="evenodd" clip-rule="evenodd" fill="#1B1B1B" points="117.964,130.486 117.964,139.881 108.821,217.951 
			124.391,217.951 141.517,183.18 125.17,172.279 145.147,162.938 128.819,135.307 		"/>
		<path fill-rule="evenodd" clip-rule="evenodd" fill="#28A8E3" d="M88.158,159.883l5.048,7.821c2.608,0,5.219,0,7.829,0l5.05-7.821
			l-8.855-9.653L88.158,159.883z"/>
		<polygon fill-rule="evenodd" clip-rule="evenodd" fill="#28A8E3" points="93.206,167.704 86.019,217.951 108.224,217.951 
			101.035,167.704 		"/>
		<path fill-rule="evenodd" clip-rule="evenodd" fill="#FFFFFF" d="M76.278,124.154l-1.822,7.089l5.1,36.91l17.674-17.924
			L76.278,124.154z"/>
		<path opacity="0.2" d="M76.278,115.339v1.504c0,0,10.649,12.639,20.805,13.095c10.157,0.456,20.881-12.236,20.881-12.236v-2.311"
			/>
		<g>
			<path fill-rule="evenodd" clip-rule="evenodd" fill="#F6C5A0" d="M97.156,6.866c-64.125,0-39.547,87.837-35.359,94.566
				c4.618,7.421,25,23.778,35.359,23.778c10.361,0,30.739-16.357,35.36-23.778C136.706,94.703,161.282,6.866,97.156,6.866z"/>
			<path fill="#605343" d="M125.921,8.918c-21.657-17.042-55.098-6.881-65.195,7.32C48.088,34.011,52.558,60.994,55.55,81.27
				c-0.001-0.03,0-0.058-0.001-0.088c0.034,0.204,0.075,0.412,0.131,0.63c0.042,0.165,0.403,0.632,0.473,0.76
				c0.105,0.191,0.89-0.017,1.15-0.143c0.095-0.044,0.137-0.168,0.142-0.271c0.121-1.789,0.012-5.336,0.008-5.376
				c-0.237-2.789-0.844-5.477-1.252-8.203c2.027-12.782,8.026-15.469,11.17-30.886c0.665-1.03,1.377-2.029,2.123-3.001
				c0.859-1.119,1.748-2.195,2.786-3.152c0.546-0.332,1.072-0.693,1.579-1.086c11.655-4.27,23.673,0.852,34.676,5.342
				c4.206,1.717,8.926,3.747,13.565,3.386c1.981-0.154,3.504-1.461,3.65-3.134c5.267,15.774,9.607,23.089,12.167,34.657
				c-0.351,2.009-0.729,4.016-0.903,6.078c-0.005,0.04-0.112,3.587,0.007,5.376c0.006,0.104,0.048,0.228,0.143,0.271
				c0.26,0.126,1.045,0.334,1.15,0.143c0.07-0.128,0.431-0.595,0.474-0.76c0.197-0.772,0.237-1.423,0.275-2.198
				c0.134-1.011,0.312-2.095,0.445-3.185C142.85,63.91,148.991,14.293,125.921,8.918z M93.096,25.667
				c-0.36-0.113-0.72-0.217-1.08-0.322c0.535,0.13,1.071,0.269,1.608,0.42C93.448,25.729,93.272,25.699,93.096,25.667z"/>
		</g>
		<path fill-rule="evenodd" clip-rule="evenodd" fill="#FFFFFF" d="M117.964,124.154l1.438,6.972l-4.792,37.396l-17.38-18.293
			L117.964,124.154z"/>
		<polyline opacity="0.05" points="76.278,124.154 97.23,150.229 117.964,124.154 117.964,123.533 97.23,149.492 76.278,123.533 
			76.278,124.154 		"/>
		<polygon opacity="0.1" fill-rule="evenodd" clip-rule="evenodd" points="93.206,167.704 101.035,167.704 101.072,167.96 
			93.169,167.96 		"/>
	</g>
</g>
</svg>
