<?xml version="1.0" encoding="utf-8"?>
<!-- Generator: Adobe Illustrator 17.0.0, SVG Export Plug-In . SVG Version: 6.00 Build 0)  -->
<!DOCTYPE svg PUBLIC "-//W3C//DTD SVG 1.1//EN" "http://www.w3.org/Graphics/SVG/1.1/DTD/svg11.dtd">
<svg version="1.1" id="图层_1" xmlns="http://www.w3.org/2000/svg" xmlns:xlink="http://www.w3.org/1999/xlink" x="0px" y="0px"
	 width="25.91px" height="32.31px" viewBox="0 0 25.91 32.31" enable-background="new 0 0 25.91 32.31" xml:space="preserve">
<path fill="#F76A00" d="M16.727,20.745c3.357,1.631,6.882,4.621,8.318,8.08c-1.842,1.489-2.082,1.676-4.246,3.491
	c-2.084-4.005-4.608-6.212-8.061-7.096c-2.026,2.606-5.325,5.65-10.484,7.056c-1.15-2.429-1.463-3.115-2.241-4.948
	c4.128-0.955,5.632-2.256,7.651-6.118c-0.145-4.686,1.062-9.294,4.074-11.138c1.565,0.512,4.243,1.79,4.98,2.023
	c-0.105,0.476-0.202,1.631,1.062,1.908c0.96,0.209,3.568,0.188,5.745-1.782c1.335,2.048,2.391,4.028,2.391,4.028
	s-4.168,4.129-9.099,2.833C16.782,19.723,16.758,19.928,16.727,20.745z M17.312,9.196c-2.521,0-4.628-2.057-4.628-4.595
	c0-2.539,2.107-4.596,4.628-4.596c2.52,0,4.66,2.057,4.66,4.596C21.972,7.139,19.832,9.196,17.312,9.196z"/>
</svg>
