<?xml version="1.0" encoding="utf-8"?>
<!-- Generator: Adobe Illustrator 17.0.0, SVG Export Plug-In . SVG Version: 6.00 Build 0)  -->
<!DOCTYPE svg PUBLIC "-//W3C//DTD SVG 1.1//EN" "http://www.w3.org/Graphics/SVG/1.1/DTD/svg11.dtd">
<svg version="1.1" id="图层_1" xmlns="http://www.w3.org/2000/svg" xmlns:xlink="http://www.w3.org/1999/xlink" x="0px" y="0px"
	 width="32.41px" height="28.313px" viewBox="0 0 32.41 28.313" enable-background="new 0 0 32.41 28.313" xml:space="preserve">
<path fill="#DB3131" d="M32.392,1.067c-0.274,2.013-0.516,3.796-0.821,6.044c-3.579-0.552-7.14-1.062-10.72-0.766
	c-3.277,0.271-6.453,0.89-8.772,3.402c-4.258,4.611-1.941,10.967,4.491,12.101c4.004,0.707,8.057,0.326,12.073-0.224
	c-0.155,3.11-0.163,2.636-0.303,5.677c-0.03,0.665,0.122,0.404-4.587,0.882c-4.995,0.25-9.986,0.31-14.773-1.463
	c-4.536-1.679-8.108-4.35-8.832-9.284c-0.745-5.078,1.385-9.178,5.464-12.34C11.733,0.349,22.443-1.321,32.392,1.067z"/>
</svg>
