<?xml version="1.0" encoding="utf-8"?>
<!-- Generator: Adobe Illustrator 17.0.0, SVG Export Plug-In . SVG Version: 6.00 Build 0)  -->
<!DOCTYPE svg PUBLIC "-//W3C//DTD SVG 1.1//EN" "http://www.w3.org/Graphics/SVG/1.1/DTD/svg11.dtd">
<svg version="1.1" id="Livello_1" xmlns="http://www.w3.org/2000/svg" xmlns:xlink="http://www.w3.org/1999/xlink" x="0px" y="0px"
	 width="145.105px" height="48.154px" viewBox="0 0 145.105 48.154" enable-background="new 0 0 145.105 48.154"
	 xml:space="preserve">
<path fill="#23211E" d="M31.636,41.118l0.471-3.202V16.336l-0.471-3.283c-0.392-0.547-0.939-0.857-1.644-0.937l-0.235-0.078v-0.703
	h10.024v0.703l-0.312,0.078c-0.549,0.081-1.254,0.39-1.567,1.018c-0.392,0.857-0.469,2.189-0.469,3.126v21.655
	c0,0.937,0.078,2.342,0.469,3.126l0,0h0.079c0.235,0.703,0.861,1.015,1.489,1.093l0.312,0.081v0.703H29.759v-0.703l0.235-0.081
	C30.698,41.977,31.323,41.743,31.636,41.118L31.636,41.118z M126.938,2.03h-2.663l-4.072,0.783
	c-1.175,0.625-2.114,1.486-2.975,2.504l-2.036,3.202h-0.783L116.992,0h25.685l2.428,8.52h-0.706l-1.722-2.736l-2.35-2.423
	c-1.331-0.861-2.897-1.174-4.385-1.25h-3.368v37.833c0,1.25,0,4.456,0.626,5.628c0.626,1.25,2.271,1.64,3.524,1.798h0.312v0.783
	h-14.562v-0.783h0.312c1.41-0.159,2.82-0.547,3.524-1.798c0.626-1.174,0.626-4.379,0.626-5.628V2.03H126.938z M89.741,11.88
	l0.314-0.39l0.078-0.078l0.392-0.312l2.663,7.349h-0.783l-0.078-0.159c-1.018-2.033-2.506-3.908-4.542-4.924
	c-1.332-0.706-2.742-1.096-4.229-1.096c-3.289,0.078-5.013,2.423-6.108,5.237c-1.017,2.813-1.331,6.253-1.331,9.225
	c0,3.048,0.314,6.255,1.017,9.225l1.097,3.519l1.644,1.798l1.332,0.625l1.331,0.312l2.428-0.39c1.017-0.393,1.722-1.174,2.114-2.192
	l0.469-2.265v-4.065c0-1.25-0.078-3.595-0.626-4.691c-0.549-1.093-2.036-1.408-3.133-1.562l-0.314-0.078v-0.706h9.632v16.652
	l-2.976-0.235l-3.836,0.706l-3.681,0.78l-3.21-0.469l0,0c-1.565-0.471-2.897-1.331-4.15-2.346c-4.072-3.595-5.089-9.46-5.089-14.619
	s1.096-10.787,5.482-13.994c2.271-1.798,5.011-2.423,7.908-2.423c1.8,0,3.601,0.312,5.168,1.174L89.741,11.88z M100.625,41.118
	l0.392-3.202V16.259c0-0.703,0-2.346-0.314-3.048c-0.312-0.706-0.782-1.015-1.486-1.096l-0.235-0.078v-0.701h17.777l2.271,6.252
	h-0.235v0.94l-0.547-1.096c-0.706-1.25-1.801-2.89-3.211-3.519l-5.717-0.625h-2.897v12.508h2.271c0.939,0,2.271-0.078,3.054-0.625
	c0.94-0.625,0.861-2.111,0.704-3.048V21.73h0.783l2.428,8.286h-0.704l-0.078-0.154c-0.626-0.94-1.489-1.643-2.585-1.878
	l-3.601-0.078h-2.271v13.052h1.565c2.428,0,5.403-0.232,7.596-1.327c1.801-0.937,3.054-2.423,3.995-4.298l0.079-0.159h0.704
	l-2.975,7.739H98.98v-0.703l0.235-0.081C99.843,42.055,100.39,41.743,100.625,41.118L100.625,41.118z M10.181,25.406v14.616
	c0,1.331,0,4.456,0.626,5.709c0.704,1.17,2.192,1.562,3.446,1.718h0.314v0.706H0v-0.706h0.314c1.253-0.154,2.82-0.547,3.524-1.718
	c0.626-1.253,0.626-4.379,0.626-5.709V8.129c0-1.331,0-4.456-0.626-5.706C3.132,1.25,1.567,0.937,0.314,0.783H0V0h13.156
	c3.524,0,7.751,0.547,10.493,2.97c2.74,2.423,3.446,6.255,3.446,9.769c0,3.988-1.175,7.508-4.464,9.85
	c-2.975,2.192-6.733,2.816-10.336,2.816H10.181z M51.213,27.907l-3.132,9.379l-0.94,3.598c0.079,0.857,0.783,1.17,1.567,1.247
	l0.235,0.081v0.703h-6.578l-0.469-0.783h0.549c0.626,0,1.017-0.232,1.41-0.625l1.644-3.361L56.07,7.427l10.022,31.031
	c0.314,0.861,0.783,2.033,1.489,2.658c0.626,0.547,1.567,0.86,2.35,1.015l0.235,0.081v0.703H57.323V42.29l2.663-1.331
	c0.704-0.857,0.626-1.795,0.235-2.736l-3.367-10.316H51.213z M10.181,2.111v21.181h1.487c2.35,0,4.699-0.544,6.5-2.189
	c2.271-2.111,2.897-5.394,2.897-8.364c0-2.423-0.236-6.019-1.722-8.129c-1.567-2.033-4.307-2.501-6.735-2.501h-2.428V2.111z
	 M51.996,25.796h4.152l-2.036-6.412L51.996,25.796z"/>
</svg>
