<?xml version="1.0" encoding="utf-8"?><!DOCTYPE svg PUBLIC "-//W3C//DTD SVG 1.1//EN" "http://www.w3.org/Graphics/SVG/1.1/DTD/svg11.dtd"><svg version="1.1" baseProfile="full" xmlns="http://www.w3.org/2000/svg" xmlns:xlink="http://www.w3.org/1999/xlink" xmlns:ev="http://www.w3.org/2001/xml-events"   height="480px"   width="300px" ><path stroke="rgb( 14, 5, 10 )" stroke-width="0px" stroke-linecap="butt" stroke-linejoin="miter" fill="rgb( 255, 255, 255 )" d="M0,480 C0,480 0,0 0,0 C0,0 300,0 300,0 C300,0 300,480 300,480 C300,480 0,480 0,480 ZM275,25 C275,25 89.828,25 89.828,25 C89.828,25 25,88.855 25,88.855 C25,88.855 25,185 25,185 C25,185 275,185 275,185 C275,185 275,25 275,25 Z "/><path stroke="rgb( 14, 5, 10 )" stroke-width="0px" stroke-linecap="butt" stroke-linejoin="miter" fill="rgb( 67, 219, 246 )" d="M25,462 C25,462 25,460 25,460 C25,460 275,460 275,460 C275,460 275,462 275,462 C275,462 25,462 25,462 ZM0,41 C0,41 40,0 40,0 C40,0 93,0 93,0 C93,0 0,94 0,94 C0,94 0,41 0,41 Z "/></svg>