<?xml version="1.0" encoding="iso-8859-1"?>
<!-- Generator: Adobe Illustrator 17.0.0, SVG Export Plug-In . SVG Version: 6.00 Build 0)  -->
<!DOCTYPE svg PUBLIC "-//W3C//DTD SVG 1.1//EN" "http://www.w3.org/Graphics/SVG/1.1/DTD/svg11.dtd">
<svg version="1.1" id="Capa_1" xmlns="http://www.w3.org/2000/svg" xmlns:xlink="http://www.w3.org/1999/xlink" x="0px" y="0px"
	 width="104.499px" height="89.387px" viewBox="0 0 104.499 89.387" style="enable-background:new 0 0 104.499 89.387;"
	 xml:space="preserve">
<g>
	<g>
		<g>
			<g>
				<rect x="36.435" y="69.555" style="fill:#D76C79;" width="10.863" height="14.978"/>
			</g>
		</g>
		<g>
			<g>
				<rect x="57.201" y="69.555" style="fill:#F29E9F;" width="10.863" height="14.978"/>
			</g>
		</g>
		<g>
			<g>
				<g>
					<path style="fill:#3C3C3B;" d="M41.751,86.476c0.46,0,0.834,0.372,0.834,0.832v2.08h8.736c0-5.222-4.236-9.454-9.455-9.454
						c-5.22,0-9.456,4.232-9.456,9.454h8.509v-2.08C40.919,86.847,41.29,86.476,41.751,86.476z"/>
				</g>
			</g>
		</g>
		<g>
			<g>
				<g>
					<path style="fill:#3C3C3B;" d="M62.519,86.476c0.459,0,0.833,0.372,0.833,0.832v2.08h8.737c0-5.222-4.231-9.454-9.457-9.454
						c-5.217,0-9.452,4.232-9.452,9.454h8.507v-2.08C61.687,86.847,62.058,86.476,62.519,86.476z"/>
				</g>
			</g>
		</g>
	</g>
	<g>
		<g>
			<g>
				<path style="fill:#D76C79;" d="M19.487,49.559c-0.084,0.82-0.145,1.647-0.145,2.488c0,15.718,14.73,28.461,32.906,28.461V66.723
					C37.568,66.723,24.97,59.655,19.487,49.559z"/>
			</g>
		</g>
		<g>
			<g>
				<path style="fill:#D76C79;" d="M52.248,66.723V23.586c-17.2,0-31.304,11.42-32.761,25.973
					C24.97,59.655,37.568,66.723,52.248,66.723z"/>
			</g>
		</g>
		<g>
			<g>
				<path style="fill:#D76C79;" d="M52.248,23.586v43.136c14.681,0,27.278-7.068,32.763-17.164
					C83.553,35.006,69.45,23.586,52.248,23.586z"/>
			</g>
		</g>
		<g>
			<g>
				<path style="fill:#F29E9F;" d="M85.156,52.047c0-0.841,0-3.69-1.394-8.164c-4.664,16.134-16.834,22.839-31.515,22.839v13.786
					C70.425,80.509,85.156,67.765,85.156,52.047z"/>
			</g>
		</g>
		<g>
			<g>
				<g>
					<path style="fill:#F29E9F;" d="M80.522,55.98c2.64,2.227,7.016,2.66,10.128,1.221c1.837-0.848,6.316-4.588,2.274-5.744
						c-2.192-0.626-4.28,0.819-4.038,3.087c0.34,3.189,3.625,4.762,6.478,4.614c1.017-0.052,3.278-1.678,1.232-1.572
						c-2.491,0.129-4.967-2.036-4.664-4.674c0.02-0.093,0.047-0.185,0.072-0.279c-1.426-0.002-1.587,0.333-0.483,1.01
						c0.362,0.858-1.425,2.065-1.911,2.384c-1.748,1.148-4.79,0.027-6.233-1.193C82.614,54.191,79.795,55.368,80.522,55.98
						L80.522,55.98z"/>
				</g>
			</g>
		</g>
	</g>
	<g>
		<g>
			<g>
				<g>
					<g>
						<path style="fill:#F29E9F;" d="M0,32.66c0,0,3.189-21.912,15.532-21.912c12.343,0,16.486,0,16.486,0
							S26.351,32.66,14.008,32.66C1.664,32.66,0,32.66,0,32.66z"/>
					</g>
				</g>
				<g>
					<g>
						<path style="fill:#D76C79;" d="M5.675,28.778c0,0,2.058-14.147,10.026-14.147c7.969,0,10.644,0,10.644,0
							s-3.661,14.147-11.63,14.147C6.749,28.778,5.675,28.778,5.675,28.778z"/>
					</g>
				</g>
			</g>
			<g>
				<g>
					<g>
						<path style="fill:#F29E9F;" d="M104.499,32.66c0,0-3.188-21.912-15.531-21.912c-12.347,0-16.489,0-16.489,0
							S78.149,32.66,90.492,32.66C102.833,32.66,104.499,32.66,104.499,32.66z"/>
					</g>
				</g>
				<g>
					<g>
						<path style="fill:#D76C79;" d="M98.825,28.778c0,0-2.059-14.147-10.028-14.147c-7.967,0-10.644,0-10.644,0
							s3.661,14.147,11.63,14.147C97.751,28.778,98.825,28.778,98.825,28.778z"/>
					</g>
				</g>
			</g>
		</g>
		<g>
			<g>
				<g>
					<path style="fill:#D76C79;" d="M24.167,20.596c0,0.878,0.098,1.737,0.244,2.586c-3.3,3.82-5.237,8.349-5.237,13.223
						c0,13.557,14.809,24.547,33.074,24.547V0C36.739,0,24.167,9.22,24.167,20.596z"/>
				</g>
			</g>
			<g>
				<g>
					<path style="fill:#F29E9F;" d="M85.326,36.405c0-4.874-1.938-9.403-5.238-13.223c0.145-0.85,0.245-1.708,0.245-2.586
						C80.333,9.22,67.76,0,52.248,0v60.952C70.516,60.952,85.326,49.961,85.326,36.405z"/>
				</g>
			</g>
		</g>
		<g>
			<g>
				<g>
					<g>
						<path style="fill:#3C3C3B;" d="M36.023,27.044c0,1.896-1.534,3.433-3.434,3.433c-1.895,0-3.431-1.536-3.431-3.433
							c0-1.896,1.536-3.432,3.431-3.432C34.489,23.611,36.023,25.148,36.023,27.044z"/>
					</g>
				</g>
			</g>
			<g>
				<g>
					<g>
						<path style="fill:#3C3C3B;" d="M75.34,27.044c0,1.896-1.535,3.433-3.431,3.433c-1.899,0-3.433-1.536-3.433-3.433
							c0-1.896,1.533-3.432,3.433-3.432C73.805,23.611,75.34,25.148,75.34,27.044z"/>
					</g>
				</g>
			</g>
			<g>
				<g>
					<circle style="fill:#FFFFFF;" cx="33.663" cy="26.148" r="1.296"/>
				</g>
			</g>
			<g>
				<g>
					<circle style="fill:#FFFFFF;" cx="73.204" cy="26.148" r="1.296"/>
				</g>
			</g>
		</g>
		<g>
			<g>
				<g>
					<g>
						<path style="fill:#D76C79;" d="M52.248,56.169c-10.702,0-19.088-5.529-19.088-12.587s8.386-12.587,19.088-12.587
							c10.706,0,19.09,5.529,19.09,12.587S62.954,56.169,52.248,56.169z"/>
					</g>
				</g>
				<g>
					<g>
						<path style="fill:#F29E9F;" d="M52.248,32.66c9.626,0,17.425,4.89,17.425,10.922c0,6.032-7.799,10.921-17.425,10.921
							c-9.622,0-17.422-4.89-17.422-10.921C34.826,37.55,42.626,32.66,52.248,32.66 M52.248,29.329
							c-11.638,0-20.754,6.261-20.754,14.253s9.116,14.252,20.754,14.252c11.64,0,20.756-6.26,20.756-14.252
							S63.888,29.329,52.248,29.329L52.248,29.329z"/>
					</g>
				</g>
			</g>
			<g>
				<g>
					<g>
						<circle style="fill:#3C3C3B;" cx="43.149" cy="41.917" r="2.705"/>
					</g>
				</g>
				<g>
					<g>
						<circle style="fill:#3C3C3B;" cx="61.767" cy="41.917" r="2.705"/>
					</g>
				</g>
			</g>
		</g>
	</g>
</g>
</svg>
