<?xml version="1.0" encoding="utf-8"?>
<!-- Generator: Adobe Illustrator 17.0.0, SVG Export Plug-In . SVG Version: 6.00 Build 0)  -->
<!DOCTYPE svg PUBLIC "-//W3C//DTD SVG 1.1//EN" "http://www.w3.org/Graphics/SVG/1.1/DTD/svg11.dtd">
<svg version="1.1" id="图层_1" xmlns:ev="http://www.w3.org/2001/xml-events"
	 xmlns="http://www.w3.org/2000/svg" xmlns:xlink="http://www.w3.org/1999/xlink" x="0px" y="0px" width="49px" height="36px"
	 viewBox="0 0 49 36" enable-background="new 0 0 49 36" xml:space="preserve">
<path fill="#FF3E3E" d="M48.127,14.764C40,12.037,36.886,15.81,36.886,18.199c0,5.17,4.865,5.254,10.204,4.145
	c-0.334,2.272-0.614,4.744-0.944,6.975c-0.701,0.152-1.67,0.341-2.493,0.442c-5.215,0.641-9.013-0.249-12.005-3.109
	c0.6-4.282,2.143-15.573,2.51-17.828c3.332-1.636,4.367-2.016,8.076-2.131C43.906,6.641,47.071,7.091,49,7.729
	C48.869,8.644,48.452,11.755,48.127,14.764z M18.103,7.088L19.082,0l12.676,0.027l-2.235,16.062L18.103,7.088z M8.185,18.418
	c0,5.169,6.447,4.384,7.748,4.308c-0.334,2.272-0.614,4.634-0.944,6.865c-0.829,0.112-1.664,0.17-2.493,0.17
	C2.544,29.761,0,24.335,0,18.118c0-6.34,4.998-11.48,14.405-11.48c1.673,0,3.06,0.224,3.656,0.436
	c-0.131,0.916-0.548,3.808-0.873,6.817C10.586,12.67,8.185,16.028,8.185,18.418z M31.694,26.705L30.385,36L17.66,35.96l2.519-18.255
	L31.694,26.705z"/>
</svg>
