<?xml version="1.0" encoding="utf-8"?>
<!-- Generator: Adobe Illustrator 17.0.0, SVG Export Plug-In . SVG Version: 6.00 Build 0)  -->
<!DOCTYPE svg PUBLIC "-//W3C//DTD SVG 1.1//EN" "http://www.w3.org/Graphics/SVG/1.1/DTD/svg11.dtd">
<svg version="1.1"
	 id="svg2" xmlns:svg="http://www.w3.org/2000/svg" inkscape:export-xdpi="521" inkscape:export-filename="C:\Dokumente und Einstellungen\jischa\Desktop\symbole verkehr v4 2.png" xmlns:inkscape="http://www.inkscape.org/namespaces/inkscape" xmlns:rdf="http://www.w3.org/1999/02/22-rdf-syntax-ns#" xmlns:cc="http://creativecommons.org/ns#" xmlns:dc="http://purl.org/dc/elements/1.1/" xmlns:sodipodi="http://sodipodi.sourceforge.net/DTD/sodipodi-0.dtd" inkscape:export-ydpi="521" sodipodi:docname="symbole verkehr v 5 1.svg" inkscape:version="0.48.0 r9654"
	 xmlns="http://www.w3.org/2000/svg" xmlns:xlink="http://www.w3.org/1999/xlink" x="0px" y="0px" width="108.149px"
	 height="59.745px" viewBox="0 0 108.149 59.745" enable-background="new 0 0 108.149 59.745" xml:space="preserve">
<path id="path6552" inkscape:connector-curvature="0" fill="#08A1EF" d="M24.283,59.695c-0.214-0.03-0.942-0.118-1.619-0.196
	c-1.38-0.158-4.147-0.835-5.47-1.337C9.63,55.289,3.775,49.22,1.312,41.696c-2.707-8.265-1.179-17.152,4.156-24.182
	c1.771-2.333,4.677-4.909,7.373-6.537c7.181-4.334,16.413-4.863,24.101-1.381c7.151,3.239,12.626,9.635,14.594,17.052
	c0.564,2.129,0.787,3.658,0.871,5.992c0.12,3.347-0.28,6.125-1.332,9.244c-3.116,9.24-11.224,16.075-20.835,17.564
	C28.983,59.644,25.068,59.806,24.283,59.695L24.283,59.695z M29.527,57.07c0.563-0.082,0.585-0.102,0.648-0.594
	c0.063-0.497,0.081-0.513,0.777-0.674c0.993-0.231,0.997-0.23,1.093,0.277c0.102,0.544,0.121,0.542,2.08-0.215
	c1.732-0.668,1.697-0.642,1.492-1.138c-0.093-0.223-0.145-0.422-0.118-0.442c0.028-0.021,0.384-0.223,0.792-0.449l0.742-0.41
	l0.223,0.355c0.122,0.195,0.237,0.377,0.256,0.403c0.102,0.147,3.152-1.966,3.152-2.183c0-0.054-0.113-0.24-0.252-0.417l-0.252-0.32
	l0.638-0.629l0.639-0.628l0.302,0.284c0.166,0.156,0.365,0.283,0.442,0.283c0.142,0,1.3-1.271,2.108-2.316l0.439-0.568l-0.349-0.278
	c-0.191-0.152-0.349-0.318-0.349-0.368c0-0.071,0.695-1.287,0.86-1.504c0.02-0.027,0.184,0.045,0.361,0.162
	c0.178,0.116,0.387,0.212,0.465,0.212c0.132,0,1.427-2.57,1.608-3.193c0.069-0.235,0.012-0.305-0.385-0.435
	c-0.354-0.116-0.447-0.206-0.384-0.367c0.046-0.118,0.179-0.52,0.295-0.895c0.181-0.582,0.248-0.669,0.475-0.604
	c0.146,0.041,0.357,0.101,0.469,0.132c0.154,0.042,0.244-0.111,0.366-0.626c0.141-0.592,0.523-2.835,0.528-3.109
	c0-0.053-0.237-0.097-0.531-0.097c-0.529,0-0.533-0.012-0.453-0.405c0.044-0.223,0.081-0.747,0.081-1.165v-0.761h0.453h0.453v-0.874
	c0-0.769-0.145-2.037-0.318-2.817c-0.046-0.202-0.163-0.259-0.539-0.259c-0.47,0-0.486-0.017-0.651-0.647
	c-0.247-0.946-0.226-1.058,0.215-1.146c0.499-0.101,0.494-0.25-0.051-1.714c-0.627-1.685-0.827-2.037-1.091-1.926
	c-0.63,0.266-0.726,0.218-1.151-0.58l-0.415-0.777l0.383-0.227c0.211-0.124,0.383-0.267,0.383-0.316
	c0-0.149-1.238-1.949-1.754-2.548l-0.479-0.558l-0.284,0.266c-0.155,0.147-0.336,0.267-0.4,0.267s-0.395-0.274-0.735-0.609
	l-0.619-0.609l0.355-0.374l0.354-0.374l-0.582-0.517c-0.32-0.284-1.011-0.844-1.535-1.243c-0.757-0.578-0.974-0.689-1.059-0.54
	c-0.379,0.658-0.397,0.66-1.253,0.141l-0.803-0.487l0.245-0.403c0.296-0.487,0.345-0.443-1.358-1.229
	c-1.813-0.838-1.93-0.857-2.133-0.367c-0.192,0.465-0.169,0.461-1.173,0.182c-0.685-0.19-0.768-0.248-0.7-0.485
	c0.042-0.148,0.103-0.365,0.135-0.481c0.04-0.146-0.052-0.239-0.302-0.303c-0.681-0.172-2.562-0.452-3.047-0.455
	c-0.47,0-0.485,0.013-0.485,0.457v0.459l-0.939-0.038l-0.939-0.037l-0.041-0.5l-0.041-0.501l-1.124,0.088
	c-0.619,0.048-1.495,0.149-1.948,0.225l-0.823,0.137l0.077,0.482l0.076,0.481l-0.743,0.167c-0.408,0.091-0.815,0.193-0.905,0.228
	c-0.101,0.038-0.193-0.095-0.245-0.351c-0.045-0.228-0.151-0.441-0.236-0.473c-0.226-0.087-3.195,1.017-3.542,1.315
	c-0.023,0.02,0.058,0.229,0.18,0.464c0.157,0.305,0.177,0.441,0.068,0.478c-0.084,0.027-0.469,0.22-0.855,0.427l-0.704,0.375
	l-0.206-0.398c-0.138-0.267-0.272-0.373-0.404-0.323c-0.261,0.101-1.933,1.261-2.498,1.733l-0.446,0.375l4.198,4.584
	c2.31,2.522,5.062,5.528,6.116,6.682l1.917,2.098l0.499-0.177c1.337-0.472,3.161-0.303,4.379,0.405
	c1.941,1.13,3.014,3.38,2.651,5.566c-0.724,4.366-6.17,6.042-9.206,2.832c-1.485-1.57-1.911-3.911-1.062-5.833
	c0.149-0.337,0.271-0.667,0.271-0.735c0-0.113-8.966-14.134-9.213-14.406c-0.068-0.075-0.329,0.09-0.667,0.421
	c-0.306,0.3-0.607,0.545-0.671,0.545s-0.257-0.132-0.43-0.292l-0.313-0.291l-0.516,0.583c-0.283,0.32-0.839,1.005-1.233,1.522
	l-0.718,0.94l0.34,0.268c0.188,0.146,0.341,0.317,0.341,0.379c0,0.188-0.809,1.424-0.931,1.424c-0.063,0-0.261-0.096-0.438-0.212
	c-0.178-0.116-0.344-0.189-0.368-0.162c-0.268,0.293-1.5,3.117-1.501,3.437c0,0.082,0.175,0.21,0.389,0.285
	c0.214,0.074,0.388,0.182,0.387,0.239c-0.012,0.289-0.511,1.654-0.605,1.635c-0.06-0.012-0.265-0.061-0.455-0.108
	c-0.316-0.08-0.356-0.046-0.477,0.41c-0.143,0.538-0.533,2.896-0.533,3.216c0,0.141,0.141,0.195,0.503,0.195h0.504l-0.069,0.874
	c-0.07,0.913-0.162,1.064-0.645,1.066c-0.273,0-0.292,0.058-0.292,0.876c0,0.481,0.067,1.359,0.15,1.951l0.15,1.076l0.479-0.081
	l0.479-0.082l0.212,0.845c0.116,0.465,0.212,0.873,0.212,0.909s-0.204,0.103-0.453,0.149s-0.453,0.138-0.453,0.203
	c0,0.23,1.077,3.146,1.278,3.459c0.093,0.143,0.186,0.136,0.529-0.042c0.229-0.119,0.432-0.197,0.449-0.174
	c0.019,0.022,0.217,0.389,0.443,0.813c0.309,0.579,0.37,0.794,0.247,0.865c-0.708,0.408-0.707,0.393-0.042,1.395
	c0.34,0.512,0.852,1.225,1.136,1.585l0.517,0.653l0.35-0.335l0.349-0.335l0.635,0.645l0.636,0.645l-0.308,0.416l-0.307,0.415
	l0.637,0.569c0.351,0.314,1.017,0.86,1.479,1.215l0.841,0.644l0.306-0.355l0.306-0.355l0.545,0.298
	c1.02,0.557,1.031,0.572,0.788,1.042c-0.266,0.514-0.245,0.531,1.569,1.339c1.711,0.763,1.753,0.767,1.908,0.238
	c0.104-0.356,0.174-0.416,0.397-0.348c0.148,0.047,0.532,0.157,0.852,0.247c0.576,0.162,0.582,0.169,0.544,0.68L20.58,56.62
	l0.652,0.151c0.359,0.083,1.182,0.221,1.829,0.307c1.28,0.171,1.409,0.124,1.413-0.514c0-0.284,0.04-0.295,0.876-0.259l0.875,0.038
	l0.041,0.502l0.041,0.503l1.318-0.094C28.352,57.196,29.207,57.116,29.527,57.07L29.527,57.07z M15.347,50.271
	c-2.029-0.945-2.446-3.536-0.819-5.096c0.589-0.565,1.253-0.816,2.144-0.814c0.942,0.011,1.64,0.314,2.266,1.008
	c1.122,1.245,1.071,3.201-0.113,4.324C17.893,50.575,16.497,50.807,15.347,50.271L15.347,50.271z M24.542,50.26
	c-1.176-0.556-1.785-1.512-1.785-2.799c0-1.772,1.305-3.099,3.052-3.105c0.891-0.011,1.556,0.249,2.145,0.814
	c0.897,0.86,1.206,1.971,0.869,3.128C28.285,50.145,26.262,51.073,24.542,50.26L24.542,50.26z M33.732,50.26
	c-2.008-0.935-2.419-3.669-0.771-5.116c0.674-0.592,1.21-0.793,2.099-0.79c1.787,0.011,3.073,1.307,3.071,3.105
	C38.119,49.751,35.809,51.228,33.732,50.26L33.732,50.26z M79.254,59.613c-8.052-0.825-15.434-5.5-19.701-12.479
	c-6.293-10.29-4.705-23.563,3.843-32.11c5.011-5.011,11.507-7.709,18.556-7.709c3.012,0,5.496,0.394,8.245,1.307
	c9.591,3.186,16.557,11.694,17.8,21.74c0.329,2.662,0.109,6.512-0.526,9.236c-1.525,6.529-5.901,12.593-11.676,16.179
	C90.89,58.823,84.959,60.198,79.254,59.613L79.254,59.613z M84.24,57.17c1.748-0.192,1.716-0.178,1.698-0.729
	c-0.016-0.472-0.012-0.477,0.697-0.643c0.997-0.236,1.014-0.232,1.108,0.272c0.103,0.539,0.087,0.541,2.129-0.216
	c1.81-0.67,1.755-0.629,1.492-1.138c-0.119-0.229-0.197-0.433-0.175-0.45c0.023-0.017,0.389-0.217,0.813-0.442
	c0.579-0.309,0.795-0.37,0.866-0.248c0.396,0.688,0.401,0.689,1.224,0.163c0.6-0.383,1.611-1.11,2.375-1.707
	c0.03-0.024-0.101-0.206-0.291-0.404l-0.347-0.362l0.421-0.386c1.017-0.931,0.967-0.909,1.33-0.568l0.324,0.305l0.525-0.51
	c0.289-0.28,0.854-0.94,1.257-1.463l0.732-0.953l-0.361-0.311l-0.361-0.312l0.474-0.779l0.473-0.779l0.42,0.26l0.42,0.26l0.27-0.482
	c0.33-0.59,1.328-2.847,1.328-3.004c0-0.063-0.196-0.179-0.437-0.258l-0.435-0.144l0.273-0.899c0.223-0.729,0.317-0.888,0.501-0.837
	c0.125,0.034,0.334,0.092,0.465,0.129c0.291,0.081,0.439-0.354,0.728-2.14c0.277-1.715,0.282-1.683-0.254-1.683h-0.453v-1.158
	v-1.157l0.486-0.04l0.485-0.04l-0.045-1.036c-0.024-0.57-0.112-1.444-0.194-1.942l-0.148-0.907l-0.478,0.041
	c-0.457,0.04-0.484,0.021-0.613-0.46c-0.342-1.271-0.34-1.287,0.172-1.383c0.257-0.049,0.466-0.109,0.466-0.137
	c0-0.17-0.861-2.443-1.117-2.95c-0.342-0.676-0.359-0.685-0.821-0.429c-0.311,0.172-0.33,0.156-0.744-0.59
	c-0.233-0.422-0.425-0.814-0.425-0.873c0-0.058,0.146-0.173,0.323-0.254c0.179-0.081,0.324-0.229,0.324-0.33
	c0-0.169-1.025-1.664-1.84-2.682l-0.351-0.438l-0.377,0.361l-0.378,0.362l-0.618-0.725l-0.618-0.724l0.3-0.32l0.301-0.32
	l-0.314-0.34c-0.173-0.186-0.837-0.746-1.476-1.242c-1.157-0.898-1.162-0.9-1.382-0.629c-0.121,0.149-0.241,0.335-0.267,0.412
	c-0.059,0.173-1.659-0.764-1.653-0.968c0-0.08,0.09-0.26,0.194-0.398s0.19-0.291,0.19-0.34c0-0.105-2.76-1.362-3.256-1.483
	c-0.304-0.073-0.359-0.033-0.489,0.362L88.959,14.4l-0.728-0.24c-0.4-0.133-0.802-0.24-0.892-0.24c-0.126,0-0.134-0.109-0.036-0.466
	c0.07-0.256,0.104-0.49,0.073-0.521c-0.114-0.115-1.879-0.436-2.845-0.52l-1.004-0.086v0.477v0.478l-0.938-0.037l-0.939-0.038
	l-0.04-0.485c-0.046-0.565-0.034-0.563-1.902-0.353c-2.077,0.234-2.018,0.21-1.929,0.765l0.076,0.48l-0.757,0.17
	c-0.417,0.093-0.827,0.196-0.912,0.228c-0.094,0.036-0.188-0.124-0.24-0.405c-0.049-0.255-0.161-0.464-0.252-0.464
	c-0.206,0-2.429,0.802-3.063,1.104l-0.472,0.226l0.188,0.449c0.104,0.248,0.17,0.464,0.148,0.48
	c-0.366,0.273-1.603,0.822-1.635,0.725c-0.024-0.072-0.146-0.257-0.27-0.409l-0.225-0.277l-0.574,0.362
	c-1.028,0.648-2.452,1.771-2.452,1.933c0,0.087,0.118,0.266,0.263,0.395c0.144,0.131,0.246,0.273,0.226,0.316
	c-0.019,0.044-0.314,0.334-0.655,0.646l-0.619,0.566l-0.39-0.288l-0.39-0.287l-0.605,0.674c-0.333,0.37-0.884,1.04-1.223,1.488
	l-0.617,0.815l0.383,0.3l0.382,0.3l-0.475,0.804l-0.474,0.805l-0.43-0.267l-0.431-0.266l-0.702,1.469
	c-0.963,2.012-0.982,2.117-0.422,2.302l0.446,0.147l-0.273,0.884l-0.273,0.884l-0.389-0.111c-0.213-0.061-0.426-0.111-0.473-0.111
	c-0.176,0-0.81,3.567-0.674,3.788c0.033,0.053,0.268,0.097,0.524,0.097h0.464l-0.081,0.865c-0.083,0.892-0.201,1.072-0.701,1.075
	c-0.266,0-0.291,0.064-0.291,0.705c0,0.689,0.208,2.513,0.338,2.951c0.048,0.163,0.186,0.214,0.53,0.193
	c0.463-0.026,0.467-0.023,0.635,0.685c0.236,0.993,0.232,1.016-0.24,1.141c-0.314,0.083-0.411,0.175-0.38,0.36
	c0.06,0.37,0.8,2.379,1.08,2.936c0.243,0.483,0.248,0.485,0.624,0.291c0.208-0.107,0.406-0.195,0.44-0.195s0.241,0.359,0.461,0.8
	c0.417,0.834,0.418,0.824-0.159,1.154c-0.22,0.126-0.218,0.157,0.054,0.61c0.158,0.263,0.664,0.991,1.125,1.618l0.839,1.14
	l0.362-0.348l0.363-0.348l0.645,0.697l0.645,0.697l-0.342,0.36l-0.342,0.36l0.579,0.518c0.318,0.284,0.999,0.842,1.513,1.238
	l0.935,0.721l0.308-0.357l0.308-0.357l0.732,0.419c0.787,0.45,0.848,0.568,0.525,1.027c-0.114,0.163-0.186,0.314-0.161,0.338
	c0.132,0.119,2.26,1.138,2.832,1.355l0.665,0.253l0.19-0.457c0.131-0.311,0.251-0.433,0.383-0.382
	c0.106,0.04,0.509,0.166,0.895,0.278c0.67,0.194,0.695,0.218,0.578,0.528c-0.182,0.477-0.157,0.561,0.198,0.695
	c0.399,0.152,2.643,0.518,3.173,0.518c0.359,0,0.39-0.036,0.39-0.453v-0.453h0.745c0.892,0,1.008,0.066,1.127,0.613
	c0.083,0.382,0.135,0.421,0.566,0.42C82.86,57.298,83.599,57.238,84.24,57.17L84.24,57.17z M80.714,39.57
	c-0.771-0.196-1.855-0.831-2.363-1.383c-2.727-2.958-1.093-7.643,2.857-8.195c1.425-0.199,2.916,0.248,3.954,1.186l0.502,0.454
	l6.993-2.811c8.596-3.455,8.178-3.29,8.064-3.175c-0.053,0.052-3.199,2.004-6.993,4.338l-6.897,4.242l-0.097,0.95
	c-0.252,2.492-2.204,4.376-4.628,4.465C81.57,39.662,80.943,39.63,80.714,39.57L80.714,39.57z M51.241,47.751
	c-0.77-0.023-1.383-0.084-1.359-0.135c0.023-0.051,0.459-0.916,0.969-1.922c4.694-9.267,3.604-20.489-2.811-28.937
	c-1.055-1.389-3.631-3.968-5.006-5.012c-7.259-5.513-16.422-7.152-25.031-4.479C10.88,9.478,4.613,14.92,1.432,21.657
	c-0.31,0.658-0.589,1.174-0.617,1.147c-0.027-0.028,0.013-0.403,0.091-0.833c0.502-2.768,1.989-5.362,4.538-7.917
	c7.399-7.415,22.411-12.543,40.66-13.888c3.015-0.223,12.792-0.221,15.928,0.005C77.855,1.3,91.388,5.351,99.747,11.46
	c1.774,1.297,4.379,3.904,5.303,5.309c1.272,1.935,2.043,3.771,2.23,5.31l0.087,0.712l-0.887-1.684
	c-1.615-3.067-2.75-4.613-5.138-7.002c-2.419-2.419-4.347-3.806-7.472-5.373c-1.567-0.787-4.625-1.818-6.458-2.179
	c-4.273-0.841-8.83-0.666-12.967,0.496c-6.536,1.836-12.303,6.226-15.968,12.155c-4.224,6.832-5.183,15.305-2.605,23.01
	c0.527,1.578,1.587,3.941,2.241,4.998l0.288,0.466l-2.155,0.085c-1.186,0.047-2.481,0.072-2.88,0.057
	C52.968,47.806,52.012,47.774,51.241,47.751L51.241,47.751z"/>
</svg>
