<?xml version="1.0" encoding="utf-8"?>
<!-- Generator: Adobe Illustrator 17.0.0, SVG Export Plug-In . SVG Version: 6.00 Build 0)  -->
<!DOCTYPE svg PUBLIC "-//W3C//DTD SVG 1.1//EN" "http://www.w3.org/Graphics/SVG/1.1/DTD/svg11.dtd">
<svg version="1.1" id="图层_1" xmlns="http://www.w3.org/2000/svg" xmlns:xlink="http://www.w3.org/1999/xlink" x="0px" y="0px"
	 width="64px" height="64px" viewBox="0 0 64 64" enable-background="new 0 0 64 64" xml:space="preserve">
<g>
	<path fill="#08A1EF" d="M32,0C14.36,0,0,14.356,0,32h8c0-1.652,1.352-3,3-3c1.656,0,3,1.348,3,3h8c0-1.652,1.352-3,3-3
		c1.656,0,3,1.348,3,3v20c0,2.204-1.79,4-4,4c-2.204,0-4-1.796-4-4h-8c0,6.618,5.39,12,12,12c6.624,0,12-5.382,12-12V32
		c0-1.652,1.352-3,3-3c1.656,0,2.996,1.348,2.996,3h8c0-1.652,1.36-3,3-3c1.656,0,3,1.348,3,3h8C63.996,14.356,49.652,0,32,0z"/>
</g>
</svg>
