<?xml version="1.0" encoding="iso-8859-1"?>
<!-- Generator: Adobe Illustrator 15.0.0, SVG Export Plug-In . SVG Version: 6.00 Build 0)  -->
<!DOCTYPE svg PUBLIC "-//W3C//DTD SVG 1.1//EN" "http://www.w3.org/Graphics/SVG/1.1/DTD/svg11.dtd">
<svg version="1.1" id="Layer_1" xmlns="http://www.w3.org/2000/svg" xmlns:xlink="http://www.w3.org/1999/xlink" x="0px" y="0px"
	 width="128px" height="128px" viewBox="0 0 128 128" style="enable-background:new 0 0 128 128;" xml:space="preserve">
<g>
	<ellipse style="fill:#2D4452;" cx="64" cy="68" rx="64" ry="60"/>
	<path style="fill:#FFF1CC;" d="M1.77,82c6.729,26.381,32.028,46,62.23,46s55.5-19.619,62.23-46H1.77z"/>
	<rect x="48" y="23" style="fill:#FFF7E6;" width="32" height="67"/>
	<path style="fill:#FFF1CC;" d="M80,65.486C75.859,61.474,70.221,59,64,59c-6.22,0-11.86,2.474-16,6.486V90h32V65.486z"/>
	<path style="fill:#FFE399;" d="M80,73.777C77.012,67.977,70.977,64,64,64c-6.976,0-13.012,3.977-16,9.777V90h32V73.777z"/>
	<circle style="fill:#FFD464;" cx="64" cy="82" r="13"/>
	<circle style="fill:#E78244;" cx="64" cy="82" r="8"/>
	<circle style="fill:#FFFFFF;" cx="43" cy="91" r="5"/>
	<path style="fill:#FAFAFA;" d="M39,91c0-2.591,1.977-4.695,4.5-4.949C43.333,86.033,43.171,86,43,86c-2.761,0-5,2.238-5,5
		s2.239,5,5,5c0.171,0,0.333-0.033,0.5-0.051C40.977,95.695,39,93.591,39,91z"/>
	<circle style="fill:#FFFFFF;" cx="49" cy="92" r="5"/>
	<path style="fill:#FAFAFA;" d="M45,92c0-2.591,1.977-4.695,4.5-4.949C49.333,87.033,49.171,87,49,87c-2.761,0-5,2.238-5,5
		s2.239,5,5,5c0.171,0,0.333-0.033,0.5-0.051C46.977,96.695,45,94.591,45,92z"/>
	<circle style="fill:#FFFFFF;" cx="58" cy="93" r="5"/>
	<circle style="fill:#FFFFFF;" cx="55" cy="91" r="5"/>
	<circle style="fill:#FFFFFF;" cx="63" cy="95" r="5"/>
	<path style="fill:#FAFAFA;" d="M59,95c0-2.591,1.977-4.695,4.5-4.949C63.333,90.033,63.171,90,63,90c-2.761,0-5,2.238-5,5
		s2.239,5,5,5c0.171,0,0.333-0.033,0.5-0.051C60.977,99.695,59,97.591,59,95z"/>
	<circle style="fill:#FFFFFF;" cx="72" cy="92" r="5"/>
	<circle style="fill:#FFFFFF;" cx="87" cy="90" r="5"/>
	<path style="fill:#FAFAFA;" d="M87,85c-0.171,0-0.333,0.033-0.5,0.051C89.023,85.305,91,87.409,91,90s-1.977,4.695-4.5,4.949
		C86.667,94.967,86.829,95,87,95c2.762,0,5-2.238,5-5S89.762,85,87,85z"/>
	<circle style="fill:#FFFFFF;" cx="83" cy="91" r="5"/>
	<circle style="fill:#FFFFFF;" cx="76" cy="21" r="13"/>
	<circle style="fill:#FFFFFF;" cx="78" cy="93" r="5"/>
	<path style="fill:#FAFAFA;" d="M78,88c-0.171,0-0.333,0.033-0.5,0.051C80.023,88.305,82,90.409,82,93s-1.977,4.695-4.5,4.949
		C77.667,97.967,77.829,98,78,98c2.762,0,5-2.238,5-5S80.762,88,78,88z"/>
	<path style="fill:#F5F5F5;" d="M76,8c-0.337,0-0.669,0.025-1,0.051C81.71,8.563,87,14.157,87,21s-5.29,12.438-12,12.949
		C75.331,33.974,75.663,34,76,34c7.18,0,13-5.819,13-13S83.18,8,76,8z"/>
	<circle style="fill:#FFFFFF;" cx="80" cy="31" r="13"/>
	<path style="fill:#F5F5F5;" d="M80,18c-0.337,0-0.669,0.025-1,0.051C85.71,18.563,91,24.157,91,31s-5.29,12.438-12,12.949
		C79.331,43.974,79.663,44,80,44c7.18,0,13-5.819,13-13S87.18,18,80,18z"/>
	<circle style="fill:#FFFFFF;" cx="64" cy="27" r="13"/>
	<circle style="fill:#FFFFFF;" cx="64" cy="16" r="16"/>
	<path style="fill:#F5F5F5;" d="M64,0c-0.506,0-1.006,0.029-1.5,0.076C70.632,0.833,77,7.669,77,16s-6.368,15.167-14.5,15.924
		C62.994,31.971,63.494,32,64,32c8.836,0,16-7.162,16-16S72.836,0,64,0z"/>
	<circle style="fill:#FFFFFF;" cx="49" cy="87" r="5"/>
	<path style="fill:#FAFAFA;" d="M45,87c0-2.591,1.977-4.695,4.5-4.949C49.333,82.033,49.171,82,49,82c-2.761,0-5,2.238-5,5
		s2.239,5,5,5c0.171,0,0.333-0.033,0.5-0.051C46.977,91.695,45,89.591,45,87z"/>
	<circle style="fill:#FFFFFF;" cx="80" cy="86" r="5"/>
	<path style="fill:#FAFAFA;" d="M80,81c-0.171,0-0.333,0.033-0.5,0.051C82.023,81.305,84,83.409,84,86s-1.977,4.695-4.5,4.949
		C79.667,90.967,79.829,91,80,91c2.762,0,5-2.238,5-5S82.762,81,80,81z"/>
	<circle style="fill:#FFFFFF;" cx="71.5" cy="85.5" r="7.5"/>
	<path style="fill:#FAFAFA;" d="M71.5,78c-0.169,0-0.334,0.016-0.5,0.025c3.907,0.258,7,3.5,7,7.475s-3.093,7.217-7,7.475
		C71.166,92.986,71.331,93,71.5,93c4.143,0,7.5-3.357,7.5-7.5S75.643,78,71.5,78z"/>
	<circle style="fill:#FFFFFF;" cx="65.5" cy="88.5" r="7.5"/>
	<circle style="fill:#FFFFFF;" cx="59.5" cy="84.5" r="7.5"/>
	<path style="fill:#FAFAFA;" d="M53,84.5c0-3.975,3.093-7.217,7-7.475C59.834,77.014,59.669,77,59.5,77c-4.142,0-7.5,3.357-7.5,7.5
		s3.358,7.5,7.5,7.5c0.169,0,0.334-0.016,0.5-0.025C56.093,91.717,53,88.475,53,84.5z"/>
	<circle style="fill:#FFFFFF;" cx="54" cy="21" r="13"/>
	<path style="fill:#F5F5F5;" d="M43,21c0-6.843,5.29-12.438,12-12.949C54.669,8.026,54.337,8,54,8c-7.179,0-13,5.819-13,13
		s5.821,13,13,13c0.337,0,0.669-0.025,1-0.051C48.29,33.437,43,27.843,43,21z"/>
	<circle style="fill:#FFFFFF;" cx="49" cy="31" r="13"/>
	<path style="fill:#F5F5F5;" d="M38,31c0-6.843,5.29-12.438,12-12.949C49.669,18.026,49.337,18,49,18c-7.179,0-13,5.819-13,13
		s5.821,13,13,13c0.337,0,0.669-0.025,1-0.051C43.29,43.437,38,37.843,38,31z"/>
	<rect x="51" y="43" style="fill:#FFFFFF;" width="1" height="40"/>
	<rect x="61" y="36" style="fill:#FFFFFF;" width="1" height="47"/>
	<rect x="58" y="36" style="fill:#FFFFFF;" width="1" height="47"/>
	<rect x="70" y="36" style="fill:#FFFFFF;" width="1" height="47"/>
	<rect x="73" y="36" style="fill:#FFFFFF;" width="1" height="47"/>
	<rect x="77" y="43" style="fill:#FFFFFF;" width="1" height="40"/>
	<path style="fill:#FAFAFA;" d="M63,90c-0.171,0-0.333,0.033-0.5,0.051C65.023,90.305,67,92.409,67,95s-1.977,4.695-4.5,4.949
		C62.667,99.967,62.829,100,63,100c2.762,0,5-2.238,5-5S65.762,90,63,90z"/>
	<path style="fill:#FFFFFF;" d="M80,49.626v4.052c3.346,0.668,5.641,1.457,6.626,2.104C84.57,56.991,77.02,58.763,64,58.763
		c-13.019,0-20.571-1.771-22.626-2.982c0.987-0.646,3.281-1.435,6.626-2.104v-4.052c-5.821,1.048-11,2.903-11,6.188
		c0,6.447,20.666,6.948,27,6.948s27-0.501,27-6.948C91,52.529,85.82,50.674,80,49.626z"/>
</g>
</svg>
