<?xml version="1.0" encoding="utf-8"?><!DOCTYPE svg PUBLIC "-//W3C//DTD SVG 1.1//EN" "http://www.w3.org/Graphics/SVG/1.1/DTD/svg11.dtd"><svg version="1.1" baseProfile="full" xmlns="http://www.w3.org/2000/svg" xmlns:xlink="http://www.w3.org/1999/xlink" xmlns:ev="http://www.w3.org/2001/xml-events"   height="71px"   width="75px" ><path fill="rgb( 176, 206, 216 )" d="M30,50 C30,50 34,68 34,68 C34,69.657 32.657,71 31,71 C31,71 27,71 27,71 C25.343,71 24,69.657 24,68 C24,68 17,50 17,50 C8.16300000000001,50 0,43 0,32 C0,21 8.16300000000001,14 17,14 C17,14 41,14 41,14 C41,14 41,50 41,50 C41,50 30,50 30,50 Z "/><path fill="rgb( 25, 131, 205 )" d="M64,64 C64,64 41,50.75 41,50.75 C41,50.75 41,13.25 41,13.25 C41,13.25 64,0 64,0 C65.657,0 67,1.34299999999996 67,3 C67,3 67,61 67,61 C67,62.657 65.657,64 64,64 Z "/><path fill="rgb( 176, 206, 216 )" d="M67,40 C67,40 67,24 67,24 C71.418,24 75,27.582 75,32 C75,36.418 71.418,40 67,40 Z "/></svg>