<?xml version="1.0" encoding="utf-8"?>
<!-- Generator: Adobe Illustrator 17.0.0, SVG Export Plug-In . SVG Version: 6.00 Build 0)  -->
<!DOCTYPE svg PUBLIC "-//W3C//DTD SVG 1.1//EN" "http://www.w3.org/Graphics/SVG/1.1/DTD/svg11.dtd">
<svg version="1.1" id="图层_1" xmlns="http://www.w3.org/2000/svg" xmlns:xlink="http://www.w3.org/1999/xlink" x="0px" y="0px"
	 width="123.795px" height="17.022px" viewBox="0 0 123.795 17.022" enable-background="new 0 0 123.795 17.022"
	 xml:space="preserve">
<path fill="#CB1F26" d="M18.714,3.173c-1.503-1.315-3.724-1.984-6.592-1.984H8.889v15.825h3.233c2.871,0,5.089-0.665,6.592-1.981
	c1.482-1.298,2.268-3.385,2.268-5.947C20.983,6.517,20.197,4.471,18.714,3.173z M17.227,13.609
	c-1.069,0.979-2.688,1.477-4.806,1.477h-1.408V3.127h1.408c2.118,0,3.735,0.496,4.806,1.471c1.056,0.96,1.612,2.513,1.612,4.489
	C18.839,11.057,18.283,12.65,17.227,13.609z M4.535,10.794c0,1.09-0.076,1.864-0.225,2.303c-0.146,0.437-0.398,0.803-0.753,1.08
	c-0.408,0.314-0.905,0.543-1.476,0.691c-0.547,0.137-1.228,0.209-2.022,0.215L0,15.086v1.932c0,0,0.155,0.004,0.173,0.004
	c2.198,0,3.915-0.473,4.967-1.376c1.069-0.914,1.609-2.312,1.609-4.157v-10.3H4.535V10.794z M23.386,13.809
	c-0.74,0-1.342,0.602-1.342,1.343c0,0.738,0.603,1.339,1.342,1.339c0.739,0,1.344-0.602,1.344-1.339
	C24.73,14.411,24.125,13.809,23.386,13.809z M47.227,1.189c-4.365,0-7.914,3.55-7.914,7.912c0,4.363,3.549,7.914,7.914,7.914
	c4.361,0,7.909-3.55,7.909-7.914C55.135,4.739,51.588,1.189,47.227,1.189z M47.227,15.002c-3.254,0-5.902-2.649-5.902-5.901
	s2.647-5.897,5.902-5.897c3.25,0,5.898,2.645,5.898,5.897C53.125,12.352,50.477,15.002,47.227,15.002z M73.355,1.189h-2.151h-0.002
	h-0.021l0,0l-6.114,11.663l-6.11-11.663l0,0h-0.022h-2.152l0,0v0.07v15.759h2.174V5.389l6.095,11.602v0.031l0,0l6.129-11.633v11.629
	h2.174V1.259V1.189z M37.608,13.518c-1.08,0.956-2.466,1.484-3.905,1.484c-3.256,0-5.901-2.649-5.901-5.901s2.645-5.897,5.901-5.897
	c1.439,0,2.825,0.524,3.905,1.478l0.04,0.036l1.427-1.426l-0.045-0.04c-1.46-1.329-3.352-2.063-5.327-2.063
	c-4.363,0-7.914,3.55-7.914,7.912c0,4.363,3.55,7.914,7.914,7.914c1.975,0,3.867-0.734,5.327-2.064l0.045-0.04l-1.427-1.426
	L37.608,13.518z M81.036,8.383v0.012h8.015v5.316c0,0.893-0.157,1.335-0.462,1.604c-0.308,0.269-0.777,0.411-1.401,0.421v1.285
	c1.618-0.053,2.815-0.401,3.568-1.058c0.751-0.655,1.128-1.656,1.128-3V8.396h8.014V8.383V3.634H81.036V8.383z M97.179,7.112H83.756
	V4.918h13.423V7.112z M91.883,0H89.05v1.189h-8.701v1.283h20.237V1.189h-8.703V0z M80.349,17.022h1.388
	c3.429-2.988,4.541-7.538,4.541-7.538h-3.094C82.821,12.364,82.071,14.604,80.349,17.022z M94.655,9.484c0,0,1.11,4.55,4.541,7.538
	h1.391c-1.726-2.417-2.473-4.658-2.835-7.538C97.752,9.484,94.655,9.484,94.655,9.484z M103.555,17.022h1.391
	c3.43-2.988,4.539-7.538,4.539-7.538h-3.095C106.027,12.364,105.274,14.604,103.555,17.022z M117.86,9.484
	c0,0,1.113,4.55,4.543,7.538h1.393c-1.725-2.417-2.475-4.658-2.838-7.538C120.958,9.484,117.86,9.484,117.86,9.484z M113.936,15.964
	c0.749-0.655,1.127-1.656,1.127-3V8.396h8.041V7.112h-8.041V3.634h-2.82v3.478h-4.519l2.316-4.64h13.755V1.189h-13.111l0.539-1.088
	h-2.832l-0.542,1.088h-4.294v1.283h3.65l-2.959,5.924h7.996v5.316c0,0.934-0.154,1.335-0.463,1.604s-0.778,0.411-1.402,0.421v1.285
	C111.997,16.969,113.182,16.621,113.936,15.964z"/>
</svg>
