<?xml version="1.0" encoding="utf-8"?>
<!-- Generator: Adobe Illustrator 17.0.0, SVG Export Plug-In . SVG Version: 6.00 Build 0)  -->
<!DOCTYPE svg PUBLIC "-//W3C//DTD SVG 1.1//EN" "http://www.w3.org/Graphics/SVG/1.1/DTD/svg11.dtd">
<svg version="1.1" id="Objects" xmlns="http://www.w3.org/2000/svg" xmlns:xlink="http://www.w3.org/1999/xlink" x="0px" y="0px"
	 width="323.042px" height="93.258px" viewBox="0 0 323.042 93.258" enable-background="new 0 0 323.042 93.258"
	 xml:space="preserve">
<path fill="#E6A95E" d="M323.042,93.258h-84.112V46.629h84.112L307.34,69.943L323.042,93.258z M0,46.629h84.112V0H0l15.701,23.315
	L0,46.629z"/>
<polygon fill="#4EA4CF" points="292.342,75.918 292.342,75.917 292.341,75.918 "/>
<path fill="#FFBA68" d="M292.591,17.339v25.246v33.332h-22.695v0.001h-0.002H30.7V17.339H292.591z"/>
<path fill="#1E8594" d="M292.341,75.918l-53.412,16.738V75.918H292.341z M84.112,17.339V0.601L30.7,17.339H84.112z"/>
<rect x="269.647" y="75.917" fill="#4EA4CF" width="22.695" height="0.001"/>
<path fill="#176570" d="M292.341,75.918l-53.412,3.41v-3.41H292.341z"/>
<path fill="#B8864B" d="M238.929,92.656l53.412-16.738l-47.753,17.34L238.929,92.656z"/>
</svg>
