<?xml version="1.0" encoding="utf-8"?>
<!-- Generator: Adobe Illustrator 17.0.0, SVG Export Plug-In . SVG Version: 6.00 Build 0)  -->
<!DOCTYPE svg PUBLIC "-//W3C//DTD SVG 1.1//EN" "http://www.w3.org/Graphics/SVG/1.1/DTD/svg11.dtd">
<svg version="1.1" id="_x37C_" xmlns="http://www.w3.org/2000/svg" xmlns:xlink="http://www.w3.org/1999/xlink" x="0px" y="0px"
	 width="256.092px" height="187.797px" viewBox="0 0 256.092 187.797" enable-background="new 0 0 256.092 187.797"
	 xml:space="preserve">
<path fill="#E60012" d="M163.505,55.59v3.746h-6.153c0.072-1.124-0.97-3.238,1.098-3.587
	C160.088,55.477,161.828,55.611,163.505,55.59z M152.919,54.102c1.401-0.487,2.176-2.099,1.668-3.515
	c-1.17-0.041-2.448-1.067-3.684-0.37c-0.672,0.38-1.514,0.6-1.832,1.38C147.983,54.21,151.329,54.651,152.919,54.102z
	 M151.308,55.585c-0.375,0.154-1.447,1.288-1.565,1.719c-0.216,0.913,0.431,1.842,1.021,2.709c0.534-0.128,2.289-0.544,2.843-0.739
	c1.124-0.375,1.38-1.786,0.806-2.581C153.848,55.929,152.519,55.072,151.308,55.585z M159.128,53.984
	c1.375-0.015,6.173,1.971,4.372-1.755c-0.898-1.852-2.92-1.981-4.793-1.524c-0.185,0.046-1.232,1.124-1.498,1.601
	C156.491,53.635,158.513,53.994,159.128,53.984z M159.883,43.86c0.77-0.072-0.446-2.335-1.38-2.54
	c-1.74-0.39-3.807-0.344-5.716-0.041c-2.073,0.323-1.037,2.448-1.093,3.428L159.883,43.86z M14.509,114.058
	c-0.292,0.482-0.38,2.335,0.123,1.873c1.796-1.678,4.203-4.033,4.526-5.665C16.736,110.836,15.463,112.529,14.509,114.058z
	 M256.092,28.122c-3.228-1.714-7.24-1.904-9.976,0.226c-3.284,2.55-5.121,6.83-6.748,10.74
	c-5.496,13.208-7.005,29.675-10.827,44.859c1.283,0.133,2.643-0.405,4.044-0.641c3.849-0.641,7.523,1.688,8.272,4.413
	c0.544,2.012,1.668,4.526,1.632,6.645c-0.062,3.176-0.37,6.281-0.99,9.206c-0.523,2.478-2.555,4.418-3.669,7.056
	c1.247,1.437,3.833,1.97,4.331,4.695c0.636,3.474-2.14,6.337-5.09,6.558c-0.128,3.633,0.975,7.415-0.903,9.765
	c-1.657,4.834-5.511,9.267-8.949,12.546c3.92,2.853,5.701,9.575,3.402,14.707c-1.288,2.894-3.669,5.172-6.096,7.076l-7.959,4.762
	c-9.308,2.473-18.884-0.046-27.982-1.473c0.749,6.707,1.498,12.721,3.202,18.535l-13.157-0.041
	c-6.281-1.565-11.361-3.602-16.277-6.763c-3.741-2.407-7.425-5.47-9.237-10.422c-3.469,1.309-7.81,1.94-12.854,3.366h-14.671
	c-2.463-1.026-5.47-1.309-8.924-1.734c1.457,3.028,1.17,6.861-0.693,9.673c-0.934,1.401-1.693,3.915-2.863,5.891l-8.164,0.015
	h-0.631h-1.257v0.015l-0.739-1.473c-1.97-0.118-4.038-1.144-5.239-3.202c1.093,0.287,3.125-0.303,2.14-0.498
	c-3.582-0.698-6.235-3.151-9.662-3.987c-4.896-1.185-9.242-0.718-13.978-0.436c-3.407,0.205-5.547-2.884-8.39-2.976
	c-7.492-0.236-14.188,0.513-20.536-0.01c-2.047-0.164-3.572-2.735-4.741-4.552c-1.273,1.36-3.002,2.92-4.48,2.555
	c-3.325-0.806-5.752-4.136-4.711-8.082c-0.739,0-2.925,0.477-3.335,0l-7.687-9.18c-1.252-1.329,0.729-6.558-1.575-7.938
	c0.744,2.037,0.339,4.126-1.555,3.9c0.159-3.387,1.432-6.532,2.278-9.57c-1.462,0.2-2.525,0.939-3.638,1.385
	c-2.663,1.078-3.9-1.852-6.23-2.094c-0.534,1.591-1.745,2.484-3.166,3.418c-1.632,1.057-2.34-2.114-4.726-1.591
	c-0.867,0.195-3.541-1.232-0.005-2.386c0.965-0.308,5.465,1.309,5.285-1.714c-3.377,1.103-5.229-2.309-7.666-1.709
	c1.811-2.078,4.285-0.939,6.065-2.047c1.401-0.862-0.806-1.657-1.462-1.899c-1.827-0.657-5.829,1.406-5.244-1.57
	c2.838-0.759,5.398-2.545,8.195-0.97c0.734-2.36,3.079-5.722,5.783-7.015l-6.502-4.849c1.657-1.58,2.484,1.478,4.511,0.446
	c-1.303-1.781-2.36-2.848-3.448-4.983c-0.334-0.641-0.18-3.864-0.026-4.854c0.303-2.017,2.35-3.279,2.761-5.26
	c-1.698-0.416-3.484-0.241-4.957-1.545c-0.369-0.323-2.33-1.437-0.929-2.335c2.258,1.201,6.455,2.91,8.385,0.308
	c2.427-3.253,5.28-7.831,10.119-9.298c0.744-0.231-0.523-1.709-1.504-2.083c-0.698-0.272-3.772,0.2-4.644-0.133
	c-0.934-0.349-1.888-1.38-2.263-2.309c-0.58-1.437,0.98-3.725,0.174-4.572c-2.325-2.422-3.217-5.958-3.695-10.14
	c-0.98-8.631,4.639-14.943,11.679-16.729c-1.114-3.633-0.652-8.98,0.6-13.054c-1.96-0.99-4.074-2.319-5.373-4.203
	c-1.616-2.381-2.155-5.958,0.144-8.154c2.319-2.201,5.285-2.812,6.953-5.121c0.621-3.725,0.031-6.548-1.17-8.682
	c0.883-0.077,1.724-0.2,2.33,0.539c1.991,2.448,2.812,5.937,2.699,10.36c1.775-0.954,3.351-1.955,5.68-2.443
	c0.482-0.092,2.489-0.754,1.642-2.227c-2.586-4.505-5.48-9.139-8.965-13.239h16.539c0.816,0,3.443,2.607,4.675,1.103
	c2.263-2.776,11.972-4.803,17.283-0.795c1.57-3.854,4.88-6.558,9.355-6.732c1.165-0.046,1.981-1.852,3.022-2.735
	c1.852-1.555,0.944,1.514,1.124,1.745l6.029,8.113c1.457,2.006,4.172,2.319,5.255,2.689c4.049,1.37,7.343,2.396,9.683,4.726
	c0.364,0.37,1.58-0.554,2.401-0.544l16.308,0.077c-3.341,7.056-8.246,12.608-14.589,16.205c-0.872,0.493-2.073,1.37-1.514,1.468
	c3.356,0.57,5.357,4.485,6.466,7.42c0.344,0.903,1.473,0.621,2.145,0.575c-0.077-2.535,1.745-5.183,4.403-6.142
	c1.083-0.395,1.406-1.652,1.586-2.591c0.4-1.97,2.489-2.135,4.146-1.786c0.149-0.795,0.205-3.017,0.719-3.823
	c0.857-1.355,3.967-1.565,4.659-3.289c0.626-1.565,2.258-3.192,4.675-2.212c0.046-2.263,2.207-4.552,4.444-5.019
	c1.221-0.241,1.468-1.329,1.196-2.212c4.203-4.387,8.015-7.307,14.076-10.694c-0.323,0.185,1.442-0.103,1.74,0.051
	c2.14,1.067,3.423,3.412,3.176,5.521c1.103-0.205,4.115,1.124,3.695,0.272c-1.268-2.607-2.335-4.706-1.652-7.656
	c4.069,3.192,10.504,5.629,16.995,5.224c3.171-0.205,4.967,3.402,6.789,5.434c0.893,1.006,2.407,1.319,3.438,1.355
	c3.587,0.133,6.137,3.125,6.733,5.999c0.231,1.108,0.965,2.284,1.996,2.591c3.11,0.934,6.471,3.176,6.486,6.974
	c0,1.76,4.131,1.078,6.266,3.341c0.688,0.739,2.191-0.38,3.674-0.087c1.175-1.709,2.248-3.92,4.808-4.28
	c0.934-0.133,3.72,0.903,3.72-1.457c-0.005-2.145,2.145-4.054,5.06-4.931c1.396-0.416,5.034,0.816,5.798-0.744
	c2.371-4.911,6.82-8.518,13.66-7.251C250.714,16.627,255.63,20.953,256.092,28.122z M221.876,60.563
	c0.842-4.546,2.632-8.918,2.74-13.778c-2.073-1.011-1.062,1.56-1.257,2.171l-2.391,8.841
	C220.742,58.808,221.594,62.056,221.876,60.563z M227.228,99.115c-2.627,3.335-5.455,7.138-7.056,12.536
	c2.591-2.017,6.132-1.221,6.686,1.319c0.154,0.718,0.672,1.601,1.524,0.944c1.945-1.504,3.715-3.9,3.951-5.978
	c0.482-4.239,2.155-8.118,1.042-12.274c-1.524,0.939-3.669,1.165-5.121-0.58c-0.518-0.611-1.709-0.37-1.981,0.657
	c-0.092,0.39-0.862,0.97-0.975,1.262C224.811,98.263,225.478,99.659,227.228,99.115z M232.606,115.972
	c-1.406,0.672-3.151,0.775-4.572,0.652c-1.088,1.688,0.739,2.432,1.678,0.98C230.989,117.891,233.955,118.533,232.606,115.972z
	 M225.416,135.379c1.719-1.642,2.458-4.331,1.35-5.126c-2.001-1.442-3.91-4.346-3.997-7.79c-1.96-0.241-3.859-1.591-5.08-2.951
	c-0.944-1.047-1.252,0.344-1.406,1.283c-0.431,2.612-4.459,5.881-3.079,6.886c2.366,1.698,5.178,1.709,8.395,1.786
	C224.195,129.54,225.832,133.234,225.416,135.379z M220.085,140.203l-1.601,5.398c2.971-2.006,4.3-5.219,5.316-9.052
	c0.267-0.99,0.057-2.124-0.405-2.904c-1.478-2.525-5.06-3.115-7.769-1.786c-0.185,0.087-0.662,0.395-0.723,0.6
	c-0.421,1.396-2.258,2.078-1.699,3.92C214.071,139.223,217.601,140.408,220.085,140.203z M160.719,169.042
	c1.226,0.308,1.416,0.149,1.037-0.744c-0.585-1.37-2.032,0.072-1.057,0.57C160.77,168.908,160.94,169.088,160.719,169.042z
	 M166.169,145.016c0.626-1.95,1.129-6.722-0.611-6.676c-0.662,0.021-1.463,1.35-1.96,1.811c0.523,1.488,2.068,3.284,1.103,5.085
	c-0.339,0.631-1.57,0.939-2.391,1.806c-1.216-0.564-2.838,0.503-1.463,1.329C162.695,149.491,165.455,147.228,166.169,145.016z
	 M164.024,134.866c-0.549,2.089-2.54,1.088-3.613,1.149c0.021,1.437-0.323,3.813,0.241,3.725c2.776-0.467,4.788-2.55,5.439-4.824
	c0.595-2.012,1.74-6.825-0.816-6.922c-0.739-0.031-1.57,0.872-1.606,0.98c-0.375,1.447-0.046,2.827,0.857,3.833
	C165.209,133.573,164.173,134.291,164.024,134.866z M138.484,158.204c-0.883,1.124-2.817,1.185-4.274,0.59
	c-1.483-0.59-1.196,1.971,0.123,2.176c0.452,0.056,3.11-0.349,2.992-0.292c3.402-1.504,5.034-5.511,3.761-8.898l-3.115,1.565
	C138.095,154.109,139.773,156.588,138.484,158.204z M141.035,142.989l-2.248,1.242c1.031,1.883,0.944,4.541-1.006,5.588
	c-0.739,0.4-3.802,0.426-4.68,0.205c-1.406-0.359-1.093-2.027-1.001-2.889c-1.021-0.467-2.242-0.39-1.863,1.114
	c0.677,2.704,4.213,4.3,8.041,3.202c0.985-0.287,2.627-1.678,3.13-3.058C141.995,146.802,141.779,143.949,141.035,142.989z
	 M119.432,137.56v2.376c0.544,0,2.309,0.251,2.756,0c1.139-0.631,1.822-2.027,3.074-2.997c0.246-0.195,1.734-0.575,0.313-1.165
	c0.036-1.945,0.611-6.255-0.924-5.809c-0.385,0.108-0.842,0.806-0.847,1.155c0.005,1.704,1.355,3.915-0.246,5.752
	c-1.067,1.232-2.52,0.056-4.223-0.359c-1.242-0.308-0.323-2.591-1.827-3.695c-2.545,1.18,0.005,3.772-0.544,5.024
	c-0.765,1.775-2.689,2.006-4.603,1.416c-0.995-0.308-0.359,2.119-0.38,3.341c2.458,0.205,4.665-1.77,6.255-3.931
	C117.943,137.996,118.262,136.949,119.432,137.56z M116.763,152.595c-0.621-0.051-1.729-0.303-1.929,0.688
	c-0.246,1.185,0.103,3.212,0.641,3.813C117.851,156.357,116.635,153.991,116.763,152.595z M117.81,141.742
	c-0.559-0.154-1.355,0.421-2.232,0.79c-0.067,0.031-0.431,0.431-0.611,0.611c2.191,1.175,1.493,4.038,0.631,5.752
	c-0.559,1.108-2.617,0.185-4.505-0.236c-1.011-0.221-0.344,2.165-0.359,3.125c1.334-0.087,3.022,0.056,4.423-0.523
	C118.123,150.05,118.739,145.878,117.81,141.742z M108.327,169c-3.705-2.504-6.25-3.823-9.514-4.054
	c-1.103-0.067-3.582,2.176-4.562,2.776c-1.714-1.129-1.396,1.427-0.231,1.591C97.453,169.816,104.833,169.729,108.327,169z
	 M101.04,174.194c0.108,0.303,0.852,0,1.242-0.046C102.046,174.06,100.06,171.294,101.04,174.194z M99.193,171.653
	c-1.688-0.097-4.675-1.001-4.582,1.037c1.057,0,3.469-0.103,4.249,0c0.164,0.021,0.585,0.508,0.672,0.575
	C99.66,172.603,99.686,171.684,99.193,171.653z M80.427,160.616c0.221,0.251,1.483,0.38,2.232,0.077
	c1.529-0.631,1.267-2.997,1.462-4.5c-1.678-0.744-2.535-2.827-4.336-3.202c-0.108,1.042,0.216,1.863,0.257,2.699
	C80.125,157.316,81.243,158.927,80.427,160.616z M79.129,131.936c0.375-0.693,0-3.659,0-4.408c-0.79-0.195-2.412-0.611-1.817,1.047
	c0.313,0.877,0.724,1.893,0.426,2.673c-0.38,1.001-1.257,2.135-2.201,2.417c-1.319,0.39-2.904-0.929-4.09-2.191
	c-1.303,1.888,1.55,2.596,2.92,3.258C75.84,135.441,78.159,133.681,79.129,131.936z M76.974,135.42
	c-0.616,0.375-0.97,1.001-0.995,1.165c-0.195,1.35-0.616,2.653-0.713,4.028c1.201,0.108,2.094-0.939,2.304-1.873
	C77.749,137.96,78.636,134.389,76.974,135.42z M70.052,163.52c1.683,0.883,6.404,0.893,6.507-1.114
	c-4.095-1.652-8.893-2.525-12.947-3.397c-1.139-0.241-4.126,1.396-3.423,3.731C64.084,162.427,67.393,162.114,70.052,163.52z
	 M68.656,165.249c-2.607-1.144-5.147,0.37-7.79-0.021v1.806c2.545-1.001,5.598-0.641,8.385-0.303
	C70.37,166.866,69.128,165.45,68.656,165.249z M73.418,159.584c-2.099-2.858-4.546-4.931-6.984-5.891l-2.35,2.124
	c-0.698-0.436-2.068,0.246-0.934,0.965C65.608,158.342,70.144,158.276,73.418,159.584z M41.993,142.651
	c0.4-0.149,0.831-2.915-0.559-1.457c-2.027,2.124-2.012,4.649-2.956,7.189c-0.236,0.631-1.062,3.253,1.021,2.222
	C38.986,147.674,41.495,145.734,41.993,142.651z M35.476,118.728c-0.467,0.554-2.094-1.965-1.242,0.39
	c0.436,1.201,1.806,1.657,3.197,2.14C39.673,122.037,36.548,119.087,35.476,118.728z M37.713,137.914
	c-0.015,0,0.349-0.359,0.349-0.339C38.093,135.703,35.84,137.945,37.713,137.914z M38.319,44.25
	c0.431,2.058,2.525,1.026,3.551,1.088l1.488-6.086c-2.027,0.021-4.803-0.369-5.922,0.39C38.673,41.115,38.016,42.813,38.319,44.25z
	 M42.562,130.971c-0.816-1.16-1.442,0.108-1.103,0.867c-0.364,0.426-1.247,1.293-1.309,1.678c-0.097,0.657-0.631,2.889,1.134,1.976
	C40.351,133.332,43.455,132.275,42.562,130.971z M47.54,131.438c0.924-1.688,3.941-2.863,2.94-3.71
	c-2.827-2.386-5.219-5.896-7.877-8.662c0,1.652-0.549,4.865,0,5.542C44.015,126.363,46.693,128.801,47.54,131.438z M53.6,43.572
	c-1.124-0.041-2.017,0.087-2.843-0.154c-1.627-0.487-1.129-1.96-1.344-2.961c-0.452-2.058-3.187-1.468-3.807-0.508
	c-1.037,1.591-2.294,3.448-1.699,5.542c1.011,0,4.192,0.174,5.214-0.015C50.639,45.163,53.544,45.599,53.6,43.572z M49.659,56.606
	c-1.19,1.242,1.273,0.58,1.791,0.698c0.369,0.087,0.765,0.652,0.908,0.775C53.133,56.216,50.485,55.755,49.659,56.606z
	 M51.332,75.603c0.765,0.339,1.817,0.021,1.211-1.155c-0.539,0-2.566-0.021-2.612,0c-2.391,1.108-4.808,2.602-4.623,5.055
	c0.113,1.468,0.272,3.828,2.33,3.874c0-0.903-0.349-3.484,0-4.136C48.402,77.835,50.008,76.896,51.332,75.603z M61.415,48.021
	c2.253-1.114,5.532-1.899,6.799-3.618c0.713-0.98-1.119-0.826-1.622-0.405c-1.657,1.339-3.52,2.299-5.101,2.376
	c-2.16,0.108-7.246-0.205-8.826,1.385C56.027,48.925,59.168,49.13,61.415,48.021z M64.253,34.208
	c-0.59-0.267-4.218-2.632-2.899-1.575c3.428,2.766,7.415,5.639,10.263,8.364c1.385-1.211,4.305-2.638,3.366-2.745
	C70.898,37.815,67.83,35.798,64.253,34.208z M71.714,25.192c-0.015,0,0.349-0.359,0.349-0.339
	C72.099,22.98,69.841,25.233,71.714,25.192z M104.807,82.038c-0.939-0.123-2.032,0.139-3.022,0.544
	c-1.288,0.534-0.067,1.642,0.426,1.817c1.488,0.503,3.269-0.508,3.613-1.427c0.826-2.191,0.154-4.239-1.067-5.988
	c-0.723-1.031-2.35-0.108-1.355,0.59C104.925,78.63,105.151,80.35,104.807,82.038z M108.163,66.377
	c1.103-0.939,4.357-1.493,3.289-3.438c-1.498,1.216-3.151,0.708-4.449,0.739C107.096,64.473,105.772,68.424,108.163,66.377z
	 M139.937,43.285c-3.258,3.956-7.133,7.389-12.002,8.759c-0.913,0.251-1.534,0.98-2.171,1.622c0.693,1.688,2.443,2.181,4.11,1.786
	c2.986-0.698,4.757-3.725,7.82-4.475V61.24c0,1.601,3.176,1.642,3.412,0.164c0.487-3.028-0.672-6.994-0.308-10.935
	c1.319-0.015,3.438,0.359,3.977-0.436c-0.785-1.257-2.438-1.996-2.638-2.997c-0.277-1.483,0.308-3.484,2.073-4.593
	c-0.308-1.329-2.171-2.484-3.484-2.745c-1.221,2.36-3.967,1.555-5.655,0.811c-2.289-0.995-4.526,1.242-4.916,3.31
	C132.696,43.208,136.93,42.536,139.937,43.285z M180.65,50.356c-1.575,2.371-4.593,5.203-7.287,7.112
	c-3.951,2.807-8.164,7.328-10.735,11.12c2.874-1.765,5.034-4.608,7.615-6.645c4.311-3.407,8.99-7.415,12.105-11.91
	c-4.854-5.445-8.426-10.899-12.541-16.236c-0.611-0.795-1.56,0.241-1.108,0.826L180.65,50.356z M168.873,27.203
	c0.226,0.128,0.734,0.785,0.759,0.795c2.566,0.831,0.149-0.785,0.185-0.523C169.535,25.151,167.944,26.654,168.873,27.203z
	 M174.046,33.479c-0.036,0.544,1.026,2.124,1.324,0.657C175.621,32.894,173.425,33.192,174.046,33.479z M178.761,39.052
	c-0.021,0,0.354-0.359,0.354-0.339C179.151,36.835,176.883,39.077,178.761,39.052z M181.686,57.33
	c-0.718,0.59-1.406,0.795-1.929,1.565c0.59,1.114,2.602-0.067,3.253-1.339C183.918,55.739,181.43,56.098,181.686,57.33z
	 M182.061,44.814c0.144,0.349,0.487,0.739,0.4,0.826C183.965,44.014,181.24,42.823,182.061,44.814z M174.861,61.84
	c0.18-0.062-0.467,2.371,2.479,1.288C177.16,63.2,177.807,60.768,174.861,61.84z M171.09,65.376
	c-0.682,0.641-1.796,1.283-1.709,2.181c0.118,1.252,1.683-0.164,2.463-0.775C172.47,66.289,172.142,64.406,171.09,65.376z
	 M165.076,72.073c-0.051,0.041,0,0.872,0,0.939C165.917,72.627,167.164,70.672,165.076,72.073z M169.781,92.665
	c0.159,1.196,0.713,2.484,1.067,3.869c0.282,1.129,0.395,5.147,1.714,3.253c1.991-2.843,1.698-8.636,1.462-13.137
	c-0.046-0.847-0.77-2.571-1.416-2.109c-0.631,0.446-1.437,1.36-1.55,1.852C170.649,88.267,171.983,91.064,169.781,92.665z
	 M210.181,138.607c-0.749,1.411,0.821,1.519,1.811,1.129v-6.558c-1.206-0.031-2.879-1.709-3.654,0.513
	c-0.221,0.611-1.119,1.031-1.432,1.919C208.185,136.262,209.114,137.432,210.181,138.607z M200.093,133.871
	c2.894-0.457,5.008-3.566,5.46-6.84c0.128-0.934-1.16-2.381-1.114-4.418c-0.729,0.575-3.022,0.195-1.278-0.729
	c-0.298-1.021-1.278-0.765-1.427-0.097c-0.38,1.688-2.494,1.678-3.13,3.002c1.509,0.359,2.699-0.431,3.618-0.641
	c1.191,2.222,1.293,5.337-1.473,6.132c-0.785,0.236-2.145,1.524-2.699-0.021c-0.349-0.929-2.032-2.643-2.54-0.657
	c-0.313,1.221,1.355,2.966,0.513,4.829c-0.246,0.544-2.638,1.601-2.858,2.135c-0.344,0.816-0.267,2.92,0.303,2.668
	c1.935-0.883,3.89-2.443,4.126-4.541C197.753,133.286,199.159,132.475,200.093,133.871z M198.271,137.35l-2.027,1.134
	c0.308,1.555,0.267,3.92,1.098,4.757C199.339,141.696,198.918,138.453,198.271,137.35z M189.23,129.801
	c1.047,0.01,1.996,0.903,2.673,0.564c1.509-0.765,2.925-2.017,3.695-3.423c0.523-0.939,1.026-2.407,0.467-3.048
	c-1.103-1.267-1.19,0.754-1.298,1.565c-0.446,3.074-3.731,0.806-5.024,3.125c0.251-1.375-2.248-3.741-4.31-3.91
	c-1.483-0.128-1.093,1.021-1.006,1.534c0.272,1.478,1.986,1.155,3.012,1.011c0,0.806,0.169,2.868,0,3.464
	c-0.41,1.396-2.032,1.093-3.433,0.929c0.765,1.565-0.19,2.525-1.463,1.893c0.457-0.98-0.149-2.417-0.436-3.89
	c-0.108-0.523-0.58-2.745-1.509-0.903c-0.652,1.283-2.314,3.392-0.354,4.967c0.872,0.708-0.159,2.109-1.031,3.438
	c-0.652,0.985-2.448-0.087-3.736-0.498v3.387c3.479,0.523,6.461-2.781,6.481-5.84c1.488,0.97,3.879,1.088,5.434-0.277
	C188.568,132.86,189.907,131.669,189.23,129.801z M168.057,100.27c-0.031,2.047-0.688,6.276,1.252,6.199
	c0.836-2.591,0.395-5.598,0.446-8.313c-1.755-0.939-0.657-2.899-1.868-4.095c-1.298-1.283-2.761-2.484-4.808-1.96
	c-1.919,0.482-3.607,2.006-3.982,4.013c-0.354,1.945,1.601,3.305,3.079,4.156C162.946,100.727,166.733,100.27,168.057,100.27z
	 M166.307,103.2c-1.103-1.221-1.96,0.421-1.473,1.606c0.097,0.221,0.38,0.754,1.001,1.201
	C167.508,107.202,166.528,103.441,166.307,103.2z M159.503,91.382c-1.796-0.611-2.869-1.74-3.556-2.93c-0.318-0.554,0-3.125,0-3.746
	c-0.939,0.144-4.28-1.329-3.125,1.58c-1.786,1.991-5.173,3.182-5.917,6.65c1.088-0.098,3.12-0.852,3.289,0.467
	c0.488,3.628,3.633,6.137,7.677,4.588C157.204,95.739,158.651,93.471,159.503,91.382z M149.25,115.931
	c0.077,0.262,0.672,0.6,0.857,0.631c1.837,0.195,3.782,2.155,5.398,1.586c-0.729-2.047-2.792-1.437-4.192-2.463
	C150.703,116.347,148.383,113.119,149.25,115.931z M152.037,105.956c-0.139-0.842-1.042-0.554-1.406-0.01
	c-0.082,0.128-0.313,0.503-0.303,0.59C150.636,108.013,152.15,106.592,152.037,105.956z M153.761,108.295
	c1.124,1.067,1.103-1.093,0.6-1.565C153.237,105.663,153.258,107.818,153.761,108.295z M134.641,124.829c0.821,0,3.72,0.323,4.516,0
	c0.795-0.313,2.637-3.151,3.428-3.212c1.935-0.154,4.423-0.195,5.424-2.222c0.924-1.894-1.776,0.272-1.863,0.292
	c-3.572,0.739-4.146-3.695-5.686-3.607c-0.462,0.026-1.011,1.006-1.432,1.421c0.406,1.411,1.981,3.13,0.724,4.788
	c-0.883,1.155-2.843,1.232-4.259,0.621C133.779,122.171,134.749,124.285,134.641,124.829z M130.5,68.917
	c1.221,0.308,1.406,0.144,1.021-0.749c-0.575-1.355-2.022,0.087-1.052,0.575C130.541,68.778,130.716,68.973,130.5,68.917z
	 M128.278,77.148c1.108,1.037,2.371,3.464,4.049,2.484C130.608,78.938,130.002,76.824,128.278,77.148z M131.957,90.813
	c-0.96-0.257-0.462,1.267-0.482,1.842C131.993,92.665,133.471,91.213,131.957,90.813z M128.283,87.015
	c0.441,0.174,1.114-0.672,1.19-0.934C128.714,85.502,126.374,86.287,128.283,87.015z M127.611,73.786v2.566h1.119
	C128.591,75.623,129.864,72.75,127.611,73.786z M127.447,64.339c-0.026,0.534,1.036,2.13,1.329,0.657
	C129.022,63.754,126.826,64.047,127.447,64.339z M126.985,107.772v2.591c1.134,0.154,2.186-0.436,3.115-1.057
	c0.518-0.349,2.063-1.914,0.698-1.776C129.607,107.639,128.268,107.839,126.985,107.772z M126.651,136.611
	c2.232,0.611,4.392-0.251,5.291-1.457C130.367,135.251,126.056,133.568,126.651,136.611z M127.067,127.841
	c1.211,0.046,3.572,0.698,3.418-1.242c-0.067-0.903-1.812,0.174-3.428-0.59C126.61,125.783,127.088,127.343,127.067,127.841z
	 M133.194,133.224c0.139-1.031,0.082-4.198,0.082-5.178c-0.765-0.056-1.873-0.318-2.227,0.98c-0.334,1.257,1.031,2.899,0.657,4.772
	C131.49,134.943,133.122,133.778,133.194,133.224z M131.46,121.386c0.457,1.134-0.205,3.982,1.822,3.648v-5.029
	C132.188,119.544,130.844,119.826,131.46,121.386z M133.184,112.57c-0.179-0.703,0.99-4.136-1.237-2.566
	c-2.104,1.493,0.641,4.115-0.18,5.357c-1.391,2.099-3.33,1.909-4.777,1.072v3.289c1.226-0.087,2.715,0.385,3.89-0.38
	C133.235,117.809,133.825,115.064,133.184,112.57z M142.554,84.08c1.534-0.78,0.292-2.135-0.175-2.653L131.87,70.513
	C135.334,75.136,138.274,80.303,142.554,84.08z M136.535,96.283c0.631,0.57,1.796,0.698,2.083,0.852
	c1.673,0.862,0.847-1.534,0.57-1.57C139.095,95.4,134.513,94.471,136.535,96.283z M138.223,90.079
	c0.816-0.164,3.684,1.108,2.709-1.016C140.116,89.217,137.243,87.944,138.223,90.079z M134.544,114.684v1.96
	c0.672,0,2.735,0.123,3.335-0.118c0.677-0.272,2.453-1.611,1.165-2.484C137.658,115.156,136.006,114.653,134.544,114.684z
	 M140.327,110.456c1.324-0.995-1.021-1.591-1.334-2.181c-0.585-1.062-2.078,0.39-0.795,0.693
	C138.762,109.101,139.819,110.112,140.327,110.456z M141.953,98.843c1.175-0.724,0.375-2.268-0.436-1.355
	c-0.349,0.395-0.908,0.59-1.544,1.155C138.685,99.798,141.363,99.203,141.953,98.843z M142.641,112.457
	c1.37,0.903,1.098-0.641,0.816-1.057C142.764,110.399,141.486,111.703,142.641,112.457z M144.581,99.844
	c-1.385-0.688-2.34,0.272-1.657,1.647L144.581,99.844z M146.649,102.651c-0.021,0,0.349-0.359,0.349-0.339
	C147.034,100.434,144.776,102.677,146.649,102.651z M156.522,84.121c1.473-2.437,4.187-1.688,5.67-2.679
	c-0.221-1.175,0.924-4.654-1.083-2.899c-1.18,1.042-2.35,1.96-3.823,1.514C158.2,81.853,155.141,82.684,156.522,84.121z
	 M146.079,49.043c0.816,4.475-0.082,9.965,0.97,14.07c4.947-2.781,13.521-2.289,17.447-0.21c1.119-0.883,2.058-1.601,1.996-1.919
	c-0.616-3.551,0.087-7.297,0.39-9.591c0.513-3.766-3.638-1.96-4.849-2.145C157.353,48.514,150.405,48.15,146.079,49.043z
	 M148.393,45.697c0.062,0.477,0.821,1.124,1.144,1.021c3.505-1.134,7.477-0.611,11.458-0.021c0.908,0.139,2.191,0.067,2.283-1.057
	c0.169-2.094,0.795-4.875-0.457-6.425c-4.69,0.806-9.853,0.688-14.435-0.216C148.393,40.494,148.219,44.424,148.393,45.697z
	 M163.023,76.193c-0.021,0,0.349-0.359,0.349-0.339C163.403,73.981,161.15,76.234,163.023,76.193z M162.089,84.881
	c-0.318-0.58-1.473-1.144-2.304-1.657c-0.585,0.96-1.724,0.929-2.576,1.262c0,0.713-0.205,2.827,0,3.248
	c0.606,1.252,1.883,2.376,3.33,1.755C162.402,88.683,162.895,86.415,162.089,84.881z M160.509,71.159
	c-0.026,0,0.344-0.359,0.344-0.339C160.878,68.947,158.631,71.195,160.509,71.159z M159.108,101.861
	c0.154,0.282,1.904,2.017,2.438,2.299c0.765,0.395,1.842,0.236,1.95-0.98c-0.801-0.087-2.499-1.134-3.961-2.376
	C159.108,100.444,158.354,100.388,159.108,101.861z M158.431,111.518c1.001,0.251,2.089,0.036,2.514-1.031
	c0.313-0.795-0.18-2.037-1.19-1.067C159.134,109.999,158.328,110.661,158.431,111.518z M162.597,107.762
	c0.703-1.663-1.693-2.432-2.771-2.037C160.498,106.597,161.566,107.202,162.597,107.762z M162.572,112.082
	c1.134,1.057,1.108-1.098,0.605-1.575C162.048,109.44,162.074,111.605,162.572,112.082z M167.837,114.089
	c1.139,0.18,2.463-0.313,3.048-1.226c0.523-0.785-0.154-3.074-1.262-1.19C169.099,112.549,168.344,113.324,167.837,114.089z
	 M171.382,125.64c-1.668-1.252-1.632,0.97-1.416,1.765c0.354,1.329,2.304,1.94,1.709,2.909c-0.877,1.416-1.924,3.387-3.761,2.756
	v2.699c3.382,0.216,6.071-4.192,4.536-8.452C172.357,127.066,171.916,126.045,171.382,125.64z M172.547,114.643
	c0.149-0.359,0.123-1.775-0.447-0.41C171.947,114.602,171.972,116.018,172.547,114.643z M167.913,144.349
	c0.549,0,2.283,0.195,2.653,0c2.063-1.026,2.961-3.258,3.197-4.803c0.267-1.719,1.734-7.194-1.406-4.865
	c-0.411,0.303-1.037,1.232-1.375,1.57c1.56,1.042,1.534,2.91,1.083,4.747c-0.108,0.446-0.724,1.252-1.504,1.534
	c-0.729,0.262-1.688-0.754-2.648-0.765V144.349z M174.364,131.146c1.647,0.395,3.392-0.718,4.567-2.017
	c0.549-0.611,1.401-2.904-0.118-2.166c-1.237,0.59-1.827,2.709-3.269,1.832C173.286,127.431,174.42,130.468,174.364,131.146z
	 M176.016,115.751c0.087-0.159,0.441-2.781-0.99-1.119C174.348,115.423,175.616,116.46,176.016,115.751z M203.033,103.349
	c0.985,0.523,1.868-0.369,1.165-1.216c-1.365-1.616-3.361-3.217-5.834-2.422c-0.426,0.144-1.698,0.677-2.094,0.893
	c-0.862,0.457-0.636,1.427-0.554,2.427c1.524-0.97,3.176-2.012,5.25-1.319C201.314,101.835,202.53,103.087,203.033,103.349z
	 M202.063,111.462c-0.021,0,0.349-0.359,0.349-0.344C202.448,109.245,200.18,111.497,202.063,111.462z M198.918,112.088
	c-0.021,0,0.344-0.349,0.344-0.339C199.303,109.876,197.04,112.129,198.918,112.088z M189.312,103.415
	c-1.416,0.59,0.195,1.678,0.631,2.155c0.867,0.96,1.396-0.698,2.083-0.836c1.155-0.221,2.34,0.051,3.341,1.437
	c0.96,1.329,0.595-1.462,0.416-1.709C193.95,102.066,191.128,102.651,189.312,103.415z M193.247,121.54
	c-0.015,0,0.354-0.369,0.354-0.349C193.632,119.318,191.369,121.57,193.247,121.54z M190.959,121.309
	c-0.631-0.564-1.96-0.226-2.853,0.416c-0.144,0.108-0.631,0.436-0.724,0.749c-0.251,0.831,1.339,0.349,2.017,0.113
	C190.097,122.366,192.139,122.356,190.959,121.309z M186.679,105.191c-0.96-0.708-1.088-1.601-1.344-2.253
	c-0.693-1.791-2.489-3.597-4.28-2.376c-1.011,0.688-3.033,0.96-2.776,2.207c0.441,2.181,2.55-1.765,4.08-0.621
	c0.852,0.636,1.385,1.545,1.811,2.181c0.693,1.052-0.457,1.575-1.129,1.904c-0.99,0.498-1.283,1.827-0.636,2.438
	c1.601,1.498,1.098-0.913,1.437-1.406c0.811-1.165,2.217-0.729,3.151-0.457c0.652,0.195,1.498,0.79,1.765,1.991
	c0.113,0.523,1.724,0.575,1.452-0.436C189.563,105.976,188.054,106.222,186.679,105.191z M185.063,114.612
	c-0.021,0,0.344-0.359,0.344-0.339C185.443,112.401,183.185,114.643,185.063,114.612z M182.543,115.233
	c-0.015,0,0.354-0.349,0.354-0.328C182.923,113.032,180.67,115.274,182.543,115.233z M177.181,105.725
	c0.308,0.939,0.985,1.755,0.795,2.525c1.011,0.385,2.545,0.292,1.698-1.252C179.31,106.335,176.36,103.2,177.181,105.725z
	 M178.258,114.838c-0.482,0.523-0.026,2.627,1.355,1.098C180.085,115.408,179.639,113.304,178.258,114.838z M176.432,123.428
	c1.811-0.031,4.911,0.842,4.998-0.97C179.618,122.484,176.529,121.617,176.432,123.428z M205.214,116.495
	c-0.026,0,0.349-0.349,0.344-0.328C205.594,114.284,203.336,116.537,205.214,116.495z M205.214,110.209
	c-0.026,0,0.349-0.37,0.344-0.339C205.594,107.988,203.336,110.235,205.214,110.209z M206.312,142.994
	c0.903,0.662,2.504-0.919,1.863-2.237c-0.534-1.078-1.103-3.33-2.591-2.807c-0.523,0.185-1.58,1.396-1.76,1.95
	C203.361,141.301,205.178,142.163,206.312,142.994z M210.14,119.379c-0.759-1.196-3.017-2.242-4.208-0.682
	c-1.463,1.904,2.027,0.852,2.689,0.893c-0.164,1.57,1.657,5.86-1.452,4.87c0.067,0.97-1.211,4.485,0.498,3.71
	c2.72-1.242,3.484-3.484,4.305-5.46C212.624,121.139,210.807,120.426,210.14,119.379z M207.728,107.685
	c-0.015,0,0.354-0.359,0.354-0.344C208.113,105.473,205.855,107.726,207.728,107.685z M210.125,97.406
	c-1.488-0.893-3.202-1.134-4.824-0.708c-0.959,0.251-3.341,0.59-2.376,2.278c0.79,1.375,2.314,0.133,3.233-0.477
	c2.258-1.478,2.448,2.514,4.526,1.986C210.587,99.331,211.197,98.068,210.125,97.406z M207.02,91.526
	c-1.601-2.581-4.808-2.997-7.087-2.222c-0.924,0.313-3.094,1.719-1.837,2.684c0.934,0.718,2.468,1.098,3.079,0.216
	c0.985-1.437,2.822-1.242,3.92-0.513c1.191,0.806,0,2.176,0.113,2.833c0.231,1.483,1.77,0,2.155-0.544
	C207.872,93.271,207.436,92.172,207.02,91.526z M196.696,82.171c-1.283,1.745-3.341,1.098-4.829,2.735
	c-0.431,0.482-0.677,1.991,0.446,2.114c1.545,0.174,2.437-1.817,3.885-2.376c1.262-0.498,2.417,1.273,3.135,2.463
	c0.703,1.165,2.212-0.041,2.381-0.831C202.299,83.444,198.738,82.679,196.696,82.171z M195.208,92.732
	c-1.165,0.477-2.289,1.088-3.556,1.303c-1.129,0.19-1.129,2.181,0.005,2.473c1.391,0.339,2.104-1.267,2.74-1.591
	c1.822-0.883,3.289,0.272,3.577,1.883c0.144,0.78,0.39,3.474,1.714,1.011c0.452-0.847,0.862-2.807-0.421-3.387
	C197.932,93.809,197.029,91.993,195.208,92.732z M184.739,97.206c-0.097,0.026-0.354,0.185-0.451,0.241
	c-1.093,0.58-0.677,2.376,0.441,2.792c1.529,0.585,1.647-0.908,1.221-1.852h4.895c-0.149,1.108-1.108,4.464,1.601,3.038
	c-0.021-0.949,0.323-2.237-0.339-2.997C190.394,96.447,187.233,96.149,184.739,97.206z M186.536,93.963
	c-0.523-0.785-2.407-1.991-3.125-0.6c-0.6,1.144,0.57,1.873,1.406,2.34C186.207,96.483,187.408,95.267,186.536,93.963z
	 M181.856,83.577c-0.995-0.144-3.325-1.211-3.597,0.924c-0.021,0.164-0.452,0.534-0.554,0.688c-0.857,1.283-1.509,3.377-0.359,4.346
	c2.186,1.837,5.121-0.364,6.091-2.386C184.062,85.845,183.441,83.808,181.856,83.577z M176.273,90.782
	c-0.097,0.523-0.323,2.078-0.498,2.638c-0.169,0.544-0.375,1.165-0.277,1.893c1.704,0.174,2.058-1.786,2.561-3.443
	C178.146,91.608,176.904,91.403,176.273,90.782z M171.321,105.037c3.992-2.407,6.963-6.024,8.975-10.391
	c0.344-0.749,0.467-3.376-0.144-2.273C177.74,96.719,173.189,100.691,171.321,105.037z M169.822,86.441
	c-1.914,0.031-4.028-0.375-5.624,0.38c-1.211,0.564-0.565,2.222-0.616,3.279c1.976-0.318,3.659,1.319,5.537,1.514
	C169.412,89.781,170.002,88.129,169.822,86.441z M168.185,36.604c-2.15-2.448-4.962-2.602-6.563-2.535
	c-4.47,0.19-8.924,0.37-13.28-0.221c-1.078-0.149-3.536,2.037-3.238,4.115c1.103,0.098,1.806-1.288,2.391-1.288L168.185,36.604z
	 M145.002,83.972c4.618-3.125,10.283-7.933,14.111-12.988c-1.524,0.77-2.36,1.057-2.658,1.319c-2.36,2.232-4.372,5.311-7.235,7.174
	C147.598,80.534,144.75,81.232,145.002,83.972z M143.354,89.637v1.678c1.534,0.585,3.028-0.287,2.797-2.047
	C146.043,88.483,144.453,89.637,143.354,89.637z M124.645,60.265c0.795,0.493,1.298,2.889,2.381,1.832
	C126.539,60.983,125.692,59.778,124.645,60.265z M124.625,84.203c0.472,0.503,2.632,0.523,1.57-0.605
	C125.723,83.095,123.562,83.074,124.625,84.203z M119.596,119.985c-0.564,1.95,3.459,2.268,4.772,0.611
	c1.683-2.135,1.298-4.741,1.165-7.045c-0.57-0.041-1.698-0.313-1.996,0.595c-0.21,0.652-0.015,1.406,0.2,2.104
	C124.594,119.046,121.725,120.293,119.596,119.985z M119.488,130.494c0.488,0,2.196,0.149,2.484,0
	c1.637-0.842,2.961-2.094,3.417-3.695c0.457-1.622,0.76-6.404-0.57-5.229c-1.544,1.37-0.559,2.843-0.215,4.146
	c0.38,1.457-1.036,2.263-2.294,2.971C121.776,128.98,118.005,127.544,119.488,130.494z M124.481,103.251
	c-2.576,0.339-1.031,2.812-0.375,3.638c1.468,1.873-0.908,3.156-2.309,3.967c-0.477,0.292-1.416-0.57-2.366-0.58v3.217
	c2.453,0.221,5.511-1.165,5.87-3.69C125.61,107.654,126.831,102.954,124.481,103.251z M120.709,104.416
	c1.483-0.149,2.248-2.027,2.473-3.274c-1.026-0.272-3.279-0.765-2.591,1.488C120.75,103.143,119.457,104.534,120.709,104.416z
	 M123.075,77.62c-0.144-0.842-1.047-0.559-1.411-0.01c-0.082,0.128-0.318,0.508-0.303,0.595
	C121.674,79.677,123.182,78.261,123.075,77.62z M121.33,92.326c-0.287-2.309-1.878-0.806-0.944-0.272
	c0.231,0.133,0.739,0.795,0.76,0.806C123.716,93.696,121.294,92.075,121.33,92.326z M124.327,81.525
	c0.041-1.873-2.222,0.375-0.349,0.339C123.963,81.863,124.327,81.509,124.327,81.525z M124.223,95.029
	c-0.021-1.439-1.908-0.469-0.179,0.099C123.997,95.113,124.164,95.045,124.223,95.029c0,0.004,0.001,0.007,0.001,0.011
	C124.256,95.023,124.247,95.023,124.223,95.029z M124.137,67.187c-0.164-0.133-3.613-1.072-1.909,0.98
	c0.128,0.154,0.641,0.457,0.821,0.564C124.455,69.538,124.748,67.721,124.137,67.187z M124.301,58.51
	c-0.287-1.539-2.93-4.126-2.981-3.094C121.238,56.93,122.793,58.7,124.301,58.51z M120.745,63.493
	c0.303,0.718,1.155,0.59,1.775,0.513C122.213,63.287,121.361,63.416,120.745,63.493z M118.374,73.817
	c-0.77,0.421-2.586,3.084-0.498,2.458c1.344-0.411,3.546-0.477,3.541-2.458C120.642,73.817,118.575,73.72,118.374,73.817z
	 M116.358,130.474l1.647-0.005c0.092-1.919,0.554-6.84-0.795-5.696C115.239,126.451,117.851,128.642,116.358,130.474z
	 M117.128,116.08c-0.436,0.18-0.867,0.862-0.836,1.103c0.287,1.76,1.427,4.485-0.811,5.573c-0.929,0.462-3.72-0.216-3.705,2.073
	c0.765,0,2.904,0.236,3.335,0c1.519-0.842,2.73-2.289,2.863-4.023C118.087,119.272,118.693,115.408,117.128,116.08z
	 M101.446,136.406c2.525-0.898,1.396-3.346,1.37-4.813c-0.021-1.329-1.837-1.093-1.863,0.139
	C100.917,133.286,101.795,134.969,101.446,136.406z M101.805,128.365c-0.79-0.893-2.027,0.488-3.182,0.534
	c-0.713,0.026-1.493,0.041-2.181-0.313c-1.514-0.754-1.021,1.601-0.395,2.022C98.136,131.992,100.933,130.432,101.805,128.365z
	 M99.599,137.401c-0.724,1.165-2.155,0.641-2.92-0.231c-0.924-1.047-1.468,0.236-1.129,1.037c0.21,0.482,0.621,0.806,1.098,0.97
	C97.69,139.556,100.353,139.413,99.599,137.401z M94.99,126.374c0.349-1.55-1.18-2.006-2.602-0.308
	c-0.364,0.436,1.165,3.397-1.391,4.495c-0.719,0.323-4.475-1.124-2.997,1.827c0.739,0,3.238,0.236,3.782,0
	C94.18,131.331,94.467,128.672,94.99,126.374z M93.944,133.352c-0.529-0.621-2.319-0.344-1.509,1.067
	c0.103,0.174,0.4,0.677,0.554,0.806C95.047,136.934,94.082,133.506,93.944,133.352z M96.053,117.727
	c-0.128-1.129-0.175-2.124-1.288-1.622c-2.068,0.929-0.59,3.638-1.308,5.178c-0.852,1.847-3.607,0.836-5.511,0.934v-4.249
	c-1.206-0.426-2.099,0.395-3.002,1.57c1.021,1.016,1.201,3.772-1.083,4.695c-0.703,0.282-2.145-0.431-3.5-0.682
	c0.159-1.406,0.308-3.9-1.863-3.833v3.864l1.863-0.031c-0.01,1.031-0.293,2.694,1.308,2.771c1.868,0.067,4.418-0.534,5.085-2.735
	c0.441-1.442,1.663,0.303,1.924,0.38C93.051,125.275,96.437,121.165,96.053,117.727z M84.794,132.049
	c-0.503,1.94-2.838,0.585-4.1,0.251c-1.591-0.436-0.765,1.776-0.811,2.602c0.672,0,3.223,0.328,3.9,0
	c1.17-0.57,2.422-1.786,2.74-2.786c0.544-1.693,0.626-5.891-0.908-5.306c-0.4,0.154-0.749,0.806-0.77,0.97
	C84.743,128.601,85.015,131.187,84.794,132.049z M86.97,91.557c1.924-0.344,3.536-1.575,4.757-3.274
	c0.477-0.667,1.601-2.314-0.133-2.822c-0.144-0.775,1.078-4.177-1.134-2.54c-1.268,0.949-0.077,2.617-0.139,3.69
	c-0.103,2.027-2.417,2.766-4.146,2.201C86.231,89.771,85.374,91.839,86.97,91.557z M92.384,69.845
	c0.77-0.426,1.088-1.452,0.883-2.212c-0.57,1.006-2.032,0.236-2.35,0.575C89.623,69.594,91.275,70.466,92.384,69.845z
	 M92.84,104.596c-0.534,0.205-1.422-0.611-2.376-0.621v2.525c1.283,0.077,2.612,0.174,3.787-0.534
	c2.874-1.699,1.678-5.055,1.652-7.538c-0.534-0.041-1.545-0.272-1.904,0.611c-0.359,0.903,0.287,1.637,0.611,2.171
	C95.504,102.712,94.287,104.047,92.84,104.596z M93.446,90.864c-1.078-1.247-2.52-0.067-1.088,0.529
	c0.149,0.062,0.529,0.272,0.883,0.575c0.821,0.677,0.549,2.309,0.313,3.592c-0.108,0.595-1.052,1.016-1.729,1.663
	c-1.432-0.759-1.54,0.801-1.073,2.012c2.058-0.169,3.674-2.566,4.588-4.495C96.248,92.809,94.092,91.613,93.446,90.864z
	 M88.273,101.465c-0.575,0.323-0.877,0.97-0.877,1.078c0.026,1.134,0.457,2.766,1.606,2.863
	C89.017,104.144,89.885,100.562,88.273,101.465z M83.409,107.577c-0.18,2.468,1.745,2.33,2.612,1.657
	c0.621-0.472,3.412-3.238,1.811-2.027C86.046,108.578,83.481,106.469,83.409,107.577z M82.429,114.664
	c-1.319-0.231-0.652,2.165-0.667,3.233c3.14,0.677,5.67-1.914,6.204-4.572c2.36-0.662,0.328,2.34,2.171,2.725
	c2.52,0.534,4.387-1.473,5.804-3.192c0.749-0.903,2.16,0.113,3.346-0.174c3.063-0.765,4.531-4.423,3.202-8.549
	c-0.257-0.806-1.811,0.38-1.073,1.493c0.334,0.487,0.272,1.591,0.39,1.873c0.606,1.406-1.021,2.089-1.765,2.776
	c-1.242-0.426-3.474,0.051-3.72-1.734c-0.133-0.934-0.539-1.673-1.596-1.273c-0.6,0.221-1.755,1.298-0.513,1.95
	c1.422,0.759,0.169,2.525-0.339,3.582c-0.508,1.042-2.253,1.026-2.72,0.021c-0.662-1.406-1.745,0.349-2.874,0.098
	c0.482-1.303,0.477-3.489-1.601-2.391c0,0.626,0.216,3.069,0,3.895C86.169,116.362,83.85,114.925,82.429,114.664z M101.646,99.3
	c0.026,1.108-1.288,2.679-2.078,2.602c-2.622-0.241-2.802,2.35-1.072,2.176c2.417-0.241,5.434-3.125,4.449-6.774
	c-0.18-0.662-1.129-3.264-1.924-1.575C100.373,97.099,101.615,98.207,101.646,99.3z M101.846,117.429
	c-0.067,0.503-1.478,1.832-1.94,2.047c-0.416,0.19-2.042-0.097-2.366,0c-1.139,0.349-1.134,2.145-0.118,2.448
	c2.535,0.744,4.198-1.555,5.629-3.536c0.113-0.154,0.072-1.914,0.333-2.453c0.626-1.324-0.046-2.771-0.97-3.69l-1.894,1.893
	C100.984,115.233,102,116.372,101.846,117.429z M82.075,105.022c-0.303-0.344-2.068-0.688-1.863-0.056
	c0.205,0.621,0.641,1.375,0.811,1.601C82.737,108.788,82.249,105.217,82.075,105.022z M77.846,110.066
	c-0.498-0.298-2.478-0.241-1.462,0.903c1.088,1.221,3.171,0.472,4.7-0.303c1.031-0.513,0.087-2.186-0.708-1.252
	C79.796,110.091,78.939,110.723,77.846,110.066z M79.155,102.533c-1.734,1.842-3.967,3.192-4.464,5.562
	C76.42,106.238,78.657,104.893,79.155,102.533z M74.09,117.096v2.699c0.672,0,2.838,0.292,3.397,0
	c1.165-0.616,2.268-1.77,2.92-2.971c0.498-0.913,0.154-2.278,0.559-3.377c0.339-0.913-0.308-1.575-1.221-0.99
	c-1.847,1.18-0.2,3.515-1.468,4.844C77.097,118.543,75.373,117.506,74.09,117.096z M70.508,121.766l-0.862,0.99
	c0.924,2.273,2.91,4.095,5.696,4.31c1.38,0.108,2.663-1.309,3.89-2.771c-1.781,0.097-2.909,1.929-4.803,0.97
	C72.935,124.511,71.709,122.161,70.508,121.766z M102.554,154.427c0.539,0,2.684,0.221,3.084,0c1.473-0.862,3.125-1.842,3.335-3.484
	c0.221-1.709,1.647-6.065-1.514-5.675c0,1.524,0.472,5.321,0,6.132c-0.713,1.252-2.674,1.242-4.254,0.503
	C101.831,151.271,102.6,153.591,102.554,154.427z M110.267,140.654c0.359-1.314,0.867-5.126-0.349-4.357
	c-1.201,0.77-2.879,1.406-2.479,1.775c2.237,2.068,0.477,4.726-1.057,5.527c-0.857,0.441-1.457-0.436-2.304-1.016
	c-1.873-1.298-0.785,2.135-0.831,3.017c0.354,0,1.996,0.021,2.032,0C107.778,144.513,109.682,142.815,110.267,140.654z
	 M104.725,136.559c0.708,0.759,2.14-0.262,3.756-0.862c0.621-0.221,1.247-2.648-0.103-1.996c-0.58,0.287-1.114,1.201-1.58,1.232
	C105.849,135,103.006,134.738,104.725,136.559z M109.661,127.939c-0.549,0.287-0.662,0.939-0.662,0.6
	c0.036,1.411-0.883,7.133,1.057,3.7C110.8,130.915,111.257,127.087,109.661,127.939z M110.626,120.56
	c-0.123-0.426-0.246-2.345-1.616-0.318c-0.595,0.893,1.473,5.024-2.386,5.583c-0.77,0.113-2.386-0.328-3.623,0.426
	c-0.021-1.637,0.359-3.987-0.462-4.757c-3.192,1.057-0.703,3.931-1.196,5.927c0.713-0.231,2.124-0.775,2.479,0.01
	c0.585,1.329,1.996,1.047,3.017,0.862C109.728,127.759,111.683,124.306,110.626,120.56z M108.676,96.914
	c-0.221,1.35-1.375,2.694-3.11,2.484c-1.083-0.139-1.586,0.929-1.036,2.135c0.323,0,2.073,0.231,2.617,0
	c1.852-0.816,2.304-3.166,3.551-4.464c0.867-0.903-1.493-3.736-2.797-3.33C108.563,94.866,108.845,95.882,108.676,96.914z
	 M104.478,109.712c0.513,0,2.674,0.221,3.007,0c1.976-1.303,3.967-3.115,3.546-5.696c-0.159-0.934,0.236-4.249-1.596-2.874
	c-1.478,1.119,0.37,3.104,0.051,4.274c-0.303,1.083-1.652,1.657-2.663,2.617C105.843,107.741,103.262,107.428,104.478,109.712z
	 M110.585,112.016c-0.015-0.662-0.097-3.885-1.314-1.37c-0.534,1.103,0.411,2.781-0.051,4.095c-0.59,1.688-2.248,2.078-3.566,2.047
	c-1.401-0.026-1.416,2.181-0.277,2.284c1.986,0.174,3.92-1.252,5.27-2.766C111.806,114.987,110.621,113.386,110.585,112.016z
	 M111.734,90.597c1.078-0.426,2.222-1.565,2.068-3.135c-0.996,0.564-2.042,1.232-3.182,1.457
	C110.477,89.75,111.129,90.833,111.734,90.597z M115.357,91.423c0.072,0.026,0.241,0.221,0.021,0.164
	c1.226,0.313,1.416,0.149,1.031-0.734C115.834,89.468,114.387,90.925,115.357,91.423z M116.85,86.677
	c-0.308-0.718-1.155-0.595-1.776-0.513C115.378,86.877,116.235,86.754,116.85,86.677z M115.018,95.857
	c-0.939,0.611-2.181,0.277-2.75,0.036c-0.57,1.139-0.888,4.48,1.683,2.899c1.416-0.878,3.679-2.278,2.899-4.254
	C116.035,94.42,115.639,95.446,115.018,95.857z M112.745,105.309c-1.519-0.539-0.698,1.688-0.739,2.355
	c1.298,0.303,3.777,0.446,3.72-1.724C114.7,105.755,113.736,105.658,112.745,105.309z M112.088,133.219
	c0.883,1.073,3.392,0.144,3.623-1.262C114.572,132.177,109.918,130.545,112.088,133.219z M117.102,107.29
	c-0.39,0.092-0.847,0.821-0.836,1.144c0.051,1.545,1.303,3.7-0.513,4.931c-0.39,0.272-2.386-0.118-2.843,0.133
	c-0.677,0.38-0.852,1.416-1.124,2.273c-0.462,1.442,1.996,0.872,2.663,0.59c1.462-0.626,3.022-1.622,3.33-2.894
	C118.287,111.364,118.636,106.889,117.102,107.29z M118.61,100.845c0.462-1.078,0.144-3.613-1.709-2.766
	c-0.144,0.067-0.564,0.554-0.688,0.913C115.763,100.26,117.805,100.691,118.61,100.845z M117.687,66.751
	c-0.026,0,0.344-0.359,0.344-0.339C118.072,64.54,115.809,66.782,117.687,66.751z M119.565,63.765
	c-0.58-1.37-2.027,0.087-1.057,0.575c0.072,0.036,0.246,0.231,0.026,0.174C119.76,64.822,119.945,64.658,119.565,63.765z
	 M119.262,60.932c-0.467-0.508-2.627-0.523-1.57,0.6C118.169,62.03,120.324,62.056,119.262,60.932z M116.963,56.247
	c-0.19-0.026-0.015,1.19-0.026,1.832c0.097,0,0.482,0.01,0.59-0.015C118.8,57.74,117.759,56.345,116.963,56.247z M113.13,71.364
	v1.724c1.627,0.57,3.084-0.39,3.844-2.027C115.988,70.287,114.51,71.811,113.13,71.364z M113.197,66.895h-3.843v3.233
	C111.231,70.451,112.807,68.47,113.197,66.895z M103.062,91.87c-0.729,1.504,0.97,1.504,1.519,1.427
	c3.366-0.493,5.665-4.336,4.644-7.908c-0.231-0.816-0.816-2.566-1.514-2.089c-0.457,0.308-0.888,0.903-0.852,1.124
	c0.349,2.001,1.437,4.208,0.544,6.522C106.003,91.054,103.929,90.074,103.062,91.87z M100.476,73.171
	c-0.97-0.216-0.467,1.267-0.488,1.919h1.801C101.923,74.274,101.359,73.361,100.476,73.171z M99.25,87.898
	c0.903,1.329,1.893,3.618,0.416,5.496c-0.775,1.001-2.191,0.282-2.479,0.611c-1.237,1.462,0.298,2.222,1.529,1.688
	c1.298-0.554,2.268-1.745,2.889-2.92c0.38-0.708,0.303-3.72,0.169-4.659C101.625,86.995,100.163,87.267,99.25,87.898z
	 M99.675,82.002c-0.174-0.954,0.369-4.136-1.622-2.925c-0.908,0.554-0.739,1.622-0.292,2.258c1.211,1.709,0.421,4.398-1.832,5.126
	c-0.472,0.154-1.365-0.729-2.001-0.734c-0.816,1.734-0.01,3.105,1.729,2.709C98.859,87.708,100.148,84.583,99.675,82.002z
	 M97.505,70.81c-0.493-0.493-1.514-3.423-2.951-1.56c-0.2,0.262-0.113,1.267,0.113,1.529c1.037,1.206,3.033,2.658,1.842,4.172
	c-0.98,1.237-2.268,2.679-4.228,1.96c0.026,1.001,0.585,2.078,1.396,2.458c2.099,0.98,3.669-1.97,4.531-3.7
	C98.772,74.556,99.183,72.488,97.505,70.81z M97.053,62.174c-1.001-1.437-2.838-3.299-5.383-2.884
	c-0.385-0.657-2.478-0.385-1.447,0.477c1.668,1.375,3.448,2.571,5.285,3.725C96.181,63.919,98.305,63.97,97.053,62.174z
	 M89.525,73.817c-0.585,0.4-1.078,1.078-1.498,1.493c0.826,1.483,1.509,3.366,1.088,5.444h-2.797
	c-0.318,0.98-0.806,3.007,1.37,2.453c2.412-0.611,4.5-3.638,3.253-7.225C90.654,75.156,90.157,73.391,89.525,73.817z M84.856,74.074
	c-0.149,0.482,2.165,0.78,2.756-0.395c0.251-0.503,1.709-2.032-0.251-1.324C86.452,72.683,85.194,72.94,84.856,74.074z
	 M86.765,68.45c0.062,0.292,1.18,1.262,1.493,1.601c0.262-0.847,1.057-3.418-1.021-3.813C86.328,66.074,86.6,67.685,86.765,68.45z
	 M85.436,94.543c0.811,0.308,1.196,1.37,2.181,1.611c2.489,0.6-0.744-2.196-1.232-2.525C85.312,92.906,83.978,94.004,85.436,94.543z
	 M82.783,100.701c0.585,1.026,1.57,1.242,2.309,1.262c1.031,0.026,2.15-0.585,2.643-1.904c1.052,0,0.652-2.422-0.231-1.175
	C86.241,100.66,83.64,99.941,82.783,100.701z M82.875,75.08c-0.328-1.293-1.755-0.38-1.663-0.118
	c1.796,5.321,2.248,11.751,1.139,16.898c-0.133,0.611,0.169,3.31,0.482,2.191C84.702,87.313,84.532,81.591,82.875,75.08z
	 M83.922,38.267c0.015-0.529-0.97-0.262-1.226,0.349C81.787,40.755,83.896,39,83.922,38.267z M76.132,44.748
	c-0.334-1.632-2.432,0.754-3.941,0.852c-0.072,0.339,0.513,0.657,0.641,1.165c1.211,4.582,5.306,8.97,10.504,8.995
	C79.986,52.783,77.128,49.52,76.132,44.748z M70.226,47.375c-0.503,0-2.309-0.144-2.827,0c-0.883,0.251-1.96,0.565-2.566,1.575
	c-1.098,1.868,2.514,0.221,3.407-0.021C69.2,48.673,71.042,48.899,70.226,47.375z M70.334,50.479
	c0.718,0.903,3.017,1.873,2.976,1.057c-0.072-1.514-1.647-2.571-2.653-1.688C70.508,49.961,70.37,50.397,70.334,50.479z
	 M63.914,101.337c-0.118,0.051-1.873,1.755-0.816,1.601c2.786-0.385,5.054-2.576,6.537-5.054c0.513-0.857-0.585-2.201-1.124-0.729
	C67.83,99.028,66.265,100.326,63.914,101.337z M63.447,114.176c2.514-1.124,5.373-2.371,7.677-3.443
	c0.682-0.323,3.176-3.787,1.688-2.545c-2.715,2.294-6.189,3.289-9.827,4.095C62.257,112.437,61.759,114.93,63.447,114.176z
	 M73.289,84.096c-0.313-1.914,0.626-5.66-2.648-5.901c0.426,0.503,0.811,0.939,0.816,0.954c0.292,5.034,0.154,10.217-1.031,14.527
	c-0.108,0.39,0.216,2.617,0.621,1.55C72.289,91.988,73.998,88.462,73.289,84.096z M77.379,40.93c-0.015,0,0.354-0.349,0.349-0.339
	C77.769,38.718,75.506,40.971,77.379,40.93z M80.894,36.599l-4.916,0.672c0,0.159-0.164,0.647,0,0.888
	c0.549,0.852,2.017-0.164,3.197-0.067C79.935,38.159,81.746,38.19,80.894,36.599z M76.902,28.85
	c0.375-0.272,3.628-2.632,1.616-2.037C77.076,27.239,76.697,28.209,76.902,28.85z M78.38,13.076
	c-0.097-0.118-1.103-0.092-1.801,0.21c-1.262,0.57-0.021,1.657,0.436,1.914C78.128,15.822,79.416,14.354,78.38,13.076z
	 M75.347,16.976v3.325h1.088C76.358,19.29,77.538,16.427,75.347,16.976z M73.746,25.325c-0.821,1.37-1.278,3.772-0.339,4.639
	c1.257-1.396,2.853-2.812,2.74-4.331C76.06,24.381,74.285,24.432,73.746,25.325z M65.418,39.052c-0.021,0,0.349-0.359,0.349-0.339
	C65.803,36.835,63.545,39.077,65.418,39.052z M60.605,36.039c0.411,1.303,1.827,1.683,2.843,2.602
	c1.339-0.857-0.482-2.089-1.432-2.35C61.733,36.214,59.758,33.392,60.605,36.039z M52.969,83.29c0.118,0.144,0.631,0.457,0.836,0.58
	c0.842,0.518,2.063-0.426,0.754-1.365C53.852,81.997,52.112,82.192,52.969,83.29z M54.544,91.3c3.053,0.287,4.936,0.2,6.378-0.749
	c2.14-1.406,4.115-4.018,2.735-6.948c-0.298-0.631-0.59-1.863-1.616-2.35c-0.806-0.38-0.411,1.406-0.231,1.852
	c0.144,0.359-0.026,1.175-0.015,1.432C61.836,87.877,57.839,89.863,54.544,91.3z M55.114,106.135
	c2.576-0.282,5.255-1.534,7.405-2.514c-1.149-1.303-2.478,0.056-3.869,0.185C57.526,103.913,55.099,103.846,55.114,106.135z
	 M57.69,121.401c2.987,2.053,6.307-0.487,7.24-2.827c0.318-0.806,1.216-3.838-0.919-3.377c0,0.739,0.19,2.52,0,2.776
	c-0.939,1.221-2.047,3.366-4.003,2.448c-1.729-0.816-1.714-3.084-3.7-3.946C55.607,117.383,56.089,120.293,57.69,121.401z
	 M49.911,154.391c1.088-0.031,2.094,0.37,2.899-0.149c4.454-2.863,7.651-8.482,9.016-15.246
	C56.135,143.384,54.319,150.158,49.911,154.391z M59.46,152.005c3.92-1.652,6.173-5.552,7.477-10.473
	c-0.072,0.298,0.975-3.89-0.688-2.222c-0.775,0.806-1.19,2.145-1.473,2.658c-1.026-0.513-1.293,0.498-1.539,0.934
	C61.764,145.591,59.907,148.87,59.46,152.005z M64.043,123.377c-1.026,0.38-2.525,0.79-2.668,2.027
	c2.52,0.621,5.126,1.165,6.984,2.761C69.307,125.393,66.029,122.648,64.043,123.377z M73.582,113.181
	c-0.082-1.637-1.519-0.744-2.006-0.852c0,0.708,0.18,3.187,0,3.582c-0.775,1.642-2.268,2.786-4.521,2.063
	c-0.836-0.282-1.211,3.551-0.328,3.453C70.683,120.991,73.797,117.558,73.582,113.181z M68.964,149.593
	c0.903,0.544,2.75,0.062,3.31-0.739c0.821-1.175-0.421-2.027-1.19-2.463c-1.232-0.688-1.416,0.477-1.303,1.303
	C69.841,148.177,69.179,149.101,68.964,149.593z M79.596,142.291c3.212,1.493,6.614-1.427,6.773-3.864
	c0.087-1.273,0.349-4.418-2.094-1.37c-0.118,0.149,1.267,2.884-1.196,3.412c-1.519,0.328-3.058-0.436-4.459-0.621
	C78.339,140.849,78.647,141.855,79.596,142.291z M86.021,146.345c0.267-1.021-0.411-1.786-0.657-2.92
	c-0.123-0.564-1.832-0.611-1.257,0.523C84.589,144.919,84.892,146.284,86.021,146.345z M86.021,149.886
	c1.714-0.123,4.244,1.031,5.337-1.339c-1.231,0-3.669-1.842-4.295-1.232C86.231,148.115,85.82,149.096,86.021,149.886z
	 M93.697,139.171c0.292-0.493,0.4-1.226-0.18-0.744c-2.201,1.822-5.121-0.523-5.953,0.765c-1.19,1.847,0.067,2.894,0.929,2.951
	C90.182,142.271,92.45,141.311,93.697,139.171z M91.983,148.752c0.549-0.729,1.339-0.99,2.237-0.883
	c3.274,0.395,6.502-1.268,7.204-4.085c0.313-1.283,1.796-5.578-1.519-4.706c0,1.155,0.308,4.044,0,4.849
	c-0.303,0.806-1.298,1.57-2.191,1.786c-1.406-1.57-2.376,0.349-3.479,0.759v-4.572c-0.759-0.062-2.027-0.272-2.001,0.795
	C92.281,144.436,92.579,146.802,91.983,148.752z M100.373,153.144c2.34-1.201,1.406-4.654,0.929-5.701
	c-0.877,0.457-1.899,0.611-2.586,1.468c-0.493,0.6,1.422,1.581,1.144,2.407c-0.236,0.693-2.217,1.904-2.417,2.756
	C96.853,156.603,99.747,153.462,100.373,153.144z M112.545,159.81c2.196-1.524-1.56-0.534-1.976-0.806
	c-1.114-0.688-1.719-1.699-2.602-2.617c0.436-0.708-0.108-1.981-1.088-0.99c-0.144,0.149-0.662,0.59-0.626,0.754
	C106.685,158.199,110.569,161.165,112.545,159.81z M121.674,148.629c1.052-0.303,3.541-1.083,2.35-2.545
	c-1.478,1.19-3.135,0.688-4.362,0.708C118.646,148.721,120.417,148.998,121.674,148.629z M125.015,145.144
	c0.857-0.857,1.57-0.58,1.565,0.431c-0.015,1.303,1.724,1.74,2.504,1.088c2.289-1.904,4.305-4.346,4.162-8.18
	c-0.041-1.262-1.781-0.785-2.463-0.38c-0.431,0.257-0.872,0.739-0.267,1.139c1.652,1.124,0.59,3.135-0.062,4.434
	c-1.114,2.217-2.935-0.005-4.193-0.154c-1.503-0.174-1.17-1.929-1.072-2.648c-1.447-0.852-2.514,0.185-1.647,1.611
	C124.019,143.282,123.265,146.91,125.015,145.144z M142.143,138.509c0.6-0.785,2.827,1.873,4.485,0.677
	c2.119-1.504,3.879-4.126,3.597-7.656c-0.123-1.437-2.566-0.749-2.376-1.586c0.257-1.124,1.688-1.698,2.063-2.94
	c0.729-2.432-2.114,0.795-2.478,1.031c-1.632,1.037-2.14-0.944-3.654-0.806c0.241,0.903,0.559,2.745-1.139,1.852
	c-0.041-1.283,0.411-2.935-0.441-4.321c-0.79-1.262-1.555,0.133-1.657,0.718c-0.498,2.591,1.165,6.076-2.699,7.415
	c-0.918,0.323-1.791-0.185-2.879-0.554c-0.795-0.262-0.323,1.298-0.339,1.929c0.636,0,2.792,0.087,3.474-0.087
	c1.201-0.298,2.561-0.99,3.376-2.735c1.124-2.458,2.904,1.873,5.208-0.236c0.626,0.554,1.206,1.416,1.555,2.109
	c0.78,1.524,0.046,3.607-1.863,4.151c-1.144,0.308-2.745-0.446-4.28-0.698v-2.602l-3.366,0.739
	c-0.395,1.888,2.756,2.992,1.124,5.055c-1.088,1.38-2.889,2.504-4.829,1.288c-0.77-0.467-0.375,1.196-0.395,1.822
	c0.713,0,3.243,0.293,3.818,0C140.168,142.225,140.83,140.208,142.143,138.509z M152.796,125.978
	c1.329,0.416,2.114-1.083,2.822-1.74c1.231-1.144-0.682-1.652-1.519-1.021c-2.699,2.022-3.915-1.842-4.085-2.997
	c-0.739,0.41-2.083,0.913-2.294,1.283c-0.677,1.155,1.211,1.801,1.427,2.581C149.687,126.076,151.621,125.609,152.796,125.978z
	 M156.722,109.578c-0.021,0,0.349-0.359,0.349-0.349C157.107,107.356,154.849,109.604,156.722,109.578z M157.245,119.077
	c1.863,0.216,2.971,2.089,5.126,2.222c0.175,0.641,2.812-0.108,1.011-0.759c-1.94-0.698-3.638-1.56-5.655-2.817
	C157.261,117.429,155.762,118.912,157.245,119.077z M164.286,152.652c0.339,1.832,1.955,0.128,2.242-0.554
	c0.523-1.262,1.021-3.402-0.472-3.987c-0.282-0.108-1.57,0.724-1.94,0.98C162.782,149.994,164.08,151.564,164.286,152.652z
	 M166.708,110.748c-0.801,0.739-2.068,1.457-2.017,2.622c1.103,0.395,2.001-0.097,2.222-1.35
	C168.129,112.021,167.842,109.681,166.708,110.748z M167.498,154.14c0.729,2.089,3.299,0.313,5.147-0.113
	c0.995-0.231,2.135-1.401,2.668-2.396c1.35-2.504,1.078-5.593,0.118-8.123c-0.467-1.226-1.827-1.016-2.042,0.097
	c-0.057,0.282-0.626,0.616-0.975,0.96c0.523,1.473,1.734,3.079,0.965,5.065c-0.38,0.96-1.714,1.329-2.361,2.222
	c-0.949,1.309-1.94-0.021-2.376-0.672C167.677,151.897,167.144,153.129,167.498,154.14z M175.493,152.893
	c-0.215,0.139-0.857,0.662-1.37,1.447c-1.036,1.601,2.463,0.667,3.063,0.318C177.956,154.222,176.878,152.01,175.493,152.893z
	 M171.777,163.648c0.98-0.477-1.18-2.92-0.241-0.246C171.521,163.356,171.885,163.741,171.777,163.648z M170.7,166.06
	c0.313,0.652,0.103,2.263,0.452,2.54c3.638,2.822,8.462,4.7,12.88,7.138c0.549-0.872-0.611-2.745-1.514-3.443
	c-2.894-2.232-6.384-4.418-10.186-6.512C172.198,165.701,169.289,163.151,170.7,166.06z M173.589,164.813
	c0.493,0.97,1.976-0.482,0.605-1.078c-0.898-0.38-0.985-0.216-0.672,1.016C173.461,164.531,173.548,164.731,173.589,164.813z
	 M183.872,169.083c-2.165-4.803-5.095-8.405-9.637-10.006c-0.436-0.154-3.956-1.149-2.309,1.026
	c0.395,0.523,1.796,1.924,2.396,2.089c1.591,0.436,1.114,2.078,0.985,3.31c2.309,1.493,5.044,2.833,7.343,4.629
	C183.759,171.002,183.872,169.072,183.872,169.083z M185.217,154.278c1.067-1.904,1.719-4.813-0.472-6.009
	c1.072-1.447-0.965-1.75-1.734-0.847c-0.693,0.795-1.637,1.873-1.047,2.314c2.663,1.981,1.406,4.68-0.498,5.814
	C182.579,157.342,184.724,155.161,185.217,154.278z M191.087,135.354c-0.277-0.893-1.001-3.484-2.248-1.729
	c-1.775,2.499,1.601,3.879,0.554,6.568c-1.114,2.863-4.3,0.744-5.824,2.94c0.19-1.56,0.19-3.351-1.119-4.357
	c-0.898-0.677-1.657,0.57-2.176,1.35c-0.6,0.903,0.826,1.514,1.144,2.212c0.482,1.026-0.118,2.232-0.308,3.269
	c-0.528,0-2.206-0.144-2.678,0c-1.391,0.436-1.098,2.042-0.975,3.156c0.441,0,2.237,0.174,2.438,0
	c1.473-1.288,4.269-2.53,3.099-5.142c1.047,0.041,1.914,0.954,2.951,0.708C189.296,143.523,192.411,139.525,191.087,135.354z
	 M189.091,146.576c0.292,0.482-0.38,3.253,1.652,2.078c1.18-0.672,2.222-1.95,1.627-3.459c-0.323-0.8-0.616-2.812-1.437-2.268
	C189.584,143.831,187.988,144.76,189.091,146.576z M195.639,153.021c3.171-2.012,5.86-4.464,8.8-7.194
	c0.672-0.616-2.052-2.258-2.956-2.53c-2.802,3.135-6.137,5.07-8.98,7.949C191.651,152.118,194.674,153.632,195.639,153.021z
	 M193.776,160.467c0.103,1.473,0.174,4.228,0.99,4.085c4.049-0.708,6.635-2.874,9.103-4.767c0.503-0.38-0.595-2.207-0.765-3.474
	c0.795-0.339,0.698-2.484-0.539-1.534c-0.216,0.174-0.842,0.883-1.067,0.903c-1.283,0.164-5.203,0-6.655,0
	C194.854,157.311,195.68,159.523,193.776,160.467z M214.25,141.86c0.862-1.083-0.426-1.657-0.995-1.083
	c-3.182,3.171-6.435,6.224-10.366,9.011c-0.405,0.287-2.371,1.339-1.001,2.222C206.61,149.224,210.961,146.032,214.25,141.86z
	 M209.822,149.799c1.919-1.678,4.618-2.33,6.112-5.27c0.077-0.154,2.325-3.638,1.124-2.33
	C214.887,144.549,210.576,147.315,209.822,149.799z M213.301,103.826c0.133,0.436,0.847,0.754,1.073,0.754
	c0.688,0.031,3.11,0.426,1.822-0.744C215.6,103.282,212.732,101.979,213.301,103.826z M225.617,115.726
	c0.036-1.688-1.416-3.813-2.961-3.638c-0.503,0.062-1.355,1.242-1.524,1.221c-1.683-0.108-2.201,1.981-2.104,3.084
	c0.164,2.078,2.16,3.474,3.807,3.022C224.329,119,225.586,117.414,225.617,115.726z M222.692,91.5V88.94
	c-0.585,0-2.366-0.108-2.93,0c-0.436,0.087-1.734,0.698-2.089,1.031c-0.652,0.631-0.39,2.124,1.134,2.386
	C219.361,92.455,220.993,90.92,222.692,91.5z M224.103,79.339c-0.662-0.662-3.171-0.775-4.254,0.108
	c-0.888,0.713,0.493,1.355,0.929,1.57C222.317,81.766,222.958,79.995,224.103,79.339z M216.134,60.942
	c1.211-0.677,2.263-1.36,3.469-1.591c0.01-3.725,0.508-7.035,1.165-10.171c0.133-0.662-0.852-3.084-1.416-1.273L216.134,60.942z
	 M212.121,75.398c-0.657,0.046,0.451,1.175,1.262,0.806c1.139,0.98,1.483,2.473,2.053,4.003c0.169,0.462,0.77,2.756-0.924,1.755
	c-1.078,0.847-2.468,1.75-1.765,3.387c1.062-0.508,4.449-2.699,5.296-2.561c2.494,0.395,0.631,3.423,2.453,4.239
	c1.852,0.831,1.678-1.144,1.35-1.95c-0.78-1.924-2.412-3.941-5.065-3.602C218.222,77.953,214.989,75.182,212.121,75.398z
	 M214.846,50.998c1.124,1.062,1.103-1.098,0.595-1.575C214.322,48.365,214.338,50.526,214.846,50.998z M211.813,60.896
	c1.134-0.631,2.181-1.314,3.197-1.504c-0.113-2.047,0.847-7.825-0.985-7.466c-0.318,0.067-0.662,0.765-0.662,0.811
	C213.547,55.524,212.054,57.987,211.813,60.896z M208.744,85.358c-1.124,0.718-2.325,1.278-3.561,0.99
	c-0.785,1.586,0.831,2.089,1.965,2.504c0.349-1.786,2.699-2.145,4.192-1.493c2.207,0.96,1.016,3.366,1.139,5.101
	c-1.124,0.446-3.007,1.657-2.207,3.92c1.575-1.021,3.474-3.356,6.399-2.171c0.082,1.427-1.606,5.737,1.622,5.106
	c0-1.221,0.354-4.177,0-4.854c-0.626-1.175-1.904-2.34-3.813-2.709c-1.847-0.354,0.708-3.022-0.349-3.951
	C212.855,86.677,211.074,83.859,208.744,85.358z M208.344,55.575c0.062,1.765-0.118,4.967,1.693,5.424
	c0.19-1.242,0.554-3.756,0.523-4.783c-0.031-1.047,0.872-7.512-1.18-4.541C208.601,52.799,208.324,54.933,208.344,55.575z
	 M207.913,78.682c1.298,1.078,2.663-1.16,3.448-2.668c0.303-0.564-1.442-0.313-1.991-0.041
	C208.447,76.419,206.738,77.712,207.913,78.682z M204.203,58.197c1.078-0.39,1.709-1.175,1.812-1.734
	c0.344-2.012,0.924-8.698-1.139-7.369c0.118-0.077-0.359,0.718-0.359,1.021C204.465,52.491,203.326,56.375,204.203,58.197z
	 M200.067,57.515c-0.139,0.99,1.206,0.462,1.852,0.482c0.118-1.391,0.652-5.804,0.616-7.271c-0.062-2.022,0.641-5.609-1.355-6.291
	L200.067,57.515z M196.804,60.044c1.801-3.151,1.919-7.405,1.601-11.428c-0.133-1.734,0.169-6.358-1.56-4.936
	c-0.154,0.133-0.559,1.098-0.549,1.36C196.326,49.761,196.136,55.611,196.804,60.044z M194.279,74.428
	c-1.298,0.944,0.913,1.847,2.432,1.652c0.811-0.108,1.853-2.473,3.705-2.376c3.222,0.154,1.478,3.243,2.653,4.639
	c0.667,0.795-0.862,2.006-1.991,1.996c-0.544-0.01-1.704,1.19-0.852,1.668c2.484,1.38,3.469-1.657,4.408-1.309
	c1.976,0.708,2.725,2.263,2.207,3.9c1.052-0.031,1.822-0.729,2.684-1.175l-0.657-3.156l-4.459-1.55
	c-0.015-1.545,0.359-3.443-0.323-4.726c-1.237-2.325-4.3-1.842-6.332-1.319C196.516,72.996,195.341,73.674,194.279,74.428z
	 M192.031,59.967c0.067,1.119-0.359,3.813,1.637,3.33c0.405-3.92,0.954-7.831,0.564-11.925c-0.226-2.376,0.195-7.364-1.647-9.201
	C192.139,48.488,191.693,54.107,192.031,59.967z M190.584,79.498h3.146v1.919c1.308-0.2,3.33-0.349,3.843-1.016
	c-1.237-2.879-4.198-4.115-6.989-3.156V79.498z M189.358,88.083c-1.396,0.913-3.782,1.252-3.992,3.187
	c1.56,0.775,2.75-0.554,2.981-1.699h3.495v2.561c0.929-0.077,2.155-0.493,2.227-1.232C194.32,88.365,190.959,87.046,189.358,88.083z
	 M186.243,54.051c-1.565,1.663-1.709,3.823-2.607,5.439c-0.795,1.437-2.196,1.067-3.346,0.97c-2.273,4.29-6.158,5.814-9.093,9.483
	c-1.57-0.431-2.489,0.57-1.745,2.171c1.293-0.144,4.177-0.842,4.264,1.698c-1.221,0-4.557-0.231-5.583,0.021
	c-3.156,0.77-5.398,4.31-4.208,8.764c0.2,0.749,1.303,2.165,2.679,2.709c2.956,1.165,5.275-3.007,8.272-4.018
	c-1.144,1.745-0.21,3.725,1.252,2.93c2.171-1.17,1.227-3.802,0.821-5.521c-0.436-1.873-2.391-3.926-2.504-5.84
	c2.371,1.775,4.234,4.316,4.275,7.666c1.919,0.898,4.403,1.539,5.901,2.745c2.34-7.512,3.807-15.461,3.207-25.473
	C187.772,56.668,188.183,51.983,186.243,54.051z M184.899,50.967c0,0.611-0.113,2.058,1.273,1.329c0-0.426,0.031-2.068-0.082-2.612
	c-0.103-0.539-1.58-1.776-1.775-0.349C184.288,49.551,184.904,50.438,184.899,50.967z M185.242,47.221
	c1.129,1.067,1.108-1.098,0.605-1.57C184.719,44.578,184.745,46.744,185.242,47.221z M167.908,23.96
	c0.924,1.206,3.536,1.155,4.413,3.171c0.215,0.472,0,2.576,0,3.13c2.135-0.416,3.053,1.96,4.577,3.387
	c-0.416,1.078-0.303,3.377,1.801,2.258c0.965,0.826,1.945,1.524,2.437,2.458c0.272,0.523,0,2.679,0,3.356
	c1.349-0.313,2.535,0.462,3.746,0.744c1.016-2.833-1.052-4.557-2.427-6.209c-4.521-5.414-8.811-11.766-14.548-16.754
	C167.908,20.974,167.441,23.349,167.908,23.96z M162.777,18.731c0.78,1.288,1.303,2.91,2.561,3.602
	c-0.051-1.201,0.426-2.679-0.539-3.479C164.152,19.203,161.355,16.355,162.777,18.731z M158.841,13.964
	c0.108,0.39,0.139,1.637,0.308,1.755c1.709,1.144,1.262-1.262,0.913-1.883C159.867,13.507,158.235,11.886,158.841,13.964z
	 M152.976,14.888c4.7,6.599,8.99,12.418,13.793,17.601c0.944,1.021,1.529-0.272,1.021-0.939c-3.941-5.131-8.38-9.775-12.449-15.158
	C155.034,15.986,152.083,13.625,152.976,14.888z M152.134,8.489c0.852,0.026,2.822-0.046,1.668-1.283
	c-0.498-0.518-1.427,0.313-2.494,0.539C150.107,7.996,151.703,9.638,152.134,8.489z M145.818,12.732
	c1.529-0.01,1.606-2.581,0.41-2.278C145.13,10.736,144.878,12.732,145.818,12.732z M140.301,17.654
	c0.821-0.513,2.997-1.827,2.186-2.94C140.614,15.026,139.767,16.258,140.301,17.654z M133.22,30.58
	c5.342-4.223,9.852-9.18,15.076-13.362c0.862-0.698,4.156-4.403,2.145-2.997c-5.809,4.064-10.843,8.749-15.728,13.516
	C134.005,28.424,131.978,29.415,133.22,30.58z M133.384,36.332c2.807-0.262,4.947,2.165,7.076,1.611
	c1.406-0.369,2.412-1.355,2.33-2.525c-0.985-0.133-4.239-0.077-4.752-0.652c-1.36-1.503-3.402-1.355-4.783-0.58
	C132.327,34.71,131.614,36.486,133.384,36.332z M129.556,25.936c0.308,1.478,1.817,0.062,1.709-0.58
	c-0.149-0.842-1.052-0.559-1.422-0.01C129.766,25.474,129.535,25.848,129.556,25.936z M124.383,31.201
	c0.831,0.795,2.186-0.554,2.95-1.098c0.919-0.662-0.308-1.221-1.088-0.847C125.517,29.61,124.753,30.21,124.383,31.201z
	 M120.206,35.896c-0.021,0,0.349-0.359,0.344-0.344C120.586,33.684,118.323,35.937,120.206,35.896z M117.189,46.056
	c5.142-4.259,9.575-9.047,14.435-13.255c1.052-0.924-0.272-1.534-0.929-1.011c-4.413,3.464-8.375,7.174-12.002,11.371
	C118.036,43.911,116.219,45.086,117.189,46.056z M116.265,48.473c1.319,2.253,2.396,5.26,5.311,5.829
	c-1.637-1.355-2.027-3.151-3.135-4.849C118.226,49.125,117.061,47.241,116.265,48.473z M115.439,40.94
	c0.457,0.477,1.806-0.872,1.334-1.329C115.665,38.528,114.357,39.837,115.439,40.94z M113.422,53.245
	c0.57,0.852,2.032,0.077,1.298-1.026C114.156,51.352,112.694,52.142,113.422,53.245z M112.206,47.041
	c0.144-0.154,1.083-3.602-0.98-1.899c-0.154,0.128-0.462,0.641-0.564,0.816C109.851,47.365,111.678,47.652,112.206,47.041z
	 M108.681,47.046c-1.278-1.447-4.51,0.241-6.891,0.621c-0.749,0.128-3.017,0.282-3.741,0.344c0.395,1.447,1.529,3.166,1.586,4.259
	c0.138,2.514-0.457,8.185,0.595,8.929c5.388-1.95,9.365-3.105,13.075-5.388C111.637,52.445,111.001,49.658,108.681,47.046z
	 M100.717,36.943c0.015-0.01-0.339,0.806-0.534,0.913c-1.986,1.144,0.359,2.212,0.544,3.464c-1.765-0.195-4.649-0.893-4.736,1.806
	c1.139,0.087,4.002-1.088,3.423,1.211c-0.862,0.174-4.095,0.436-2.489,0.816c4.136,0.98,9.001-0.236,12.48-1.329
	c-1.067-1.067-1.437-2.427-2.125-3.725C106.136,37.933,103.283,35.711,100.717,36.943z M98.013,33.33
	c1.001,0.708,3.033-0.277,2.14-1.627c-0.4,0.775-1.37,0.554-2.14,0.493C98.013,32.519,97.982,33.315,98.013,33.33z M99.496,21.112
	c-1.067,0.616-2.761,1.406-1.976,2.355c1.221,1.483,3.351,3.489,5.722,1.909c-0.949,1.257-2.222,1.678-3.094,2.72
	c-1.493,1.796,2.017,0.785,3.089,0.847c-0.123,1.622-2.417,1.637-2.16,3.607c5.609-0.99,9.231-4.3,12.254-7.928
	c1.155-1.401,2.258-3.048,2.396-4.895c-3.418,0.159-6.481-0.539-9.011-0.919C104.217,18.428,101.564,19.896,99.496,21.112z
	 M88.13,21.564h1.632c-0.072-0.934,0.57-2.263-0.59-2.951C87.016,17.33,88.181,20.671,88.13,21.564z M87.755,26.952
	c3.741-2.468,8.421-5.157,11.14-8.744c-1.976-2.022-3.941-2.263-6.101-3.479c-0.2-0.113-2.304-0.087-1.349,1.149
	c0.164,0.216,0.965,0.765,1.283,1.611C94.123,21.194,88.725,25.269,87.755,26.952z M84.373,51.506
	c-0.544,1.76,0.098,3.197,1.627,3.885c3.967,1.796,8.693,2.566,12.644,4.351c0-1.452,0.154-4.68,0-4.952
	c-1.781-3.269-2.961-7.625-6.999-9.18c0.831,0.97,1.504,1.385,1.54,1.801c0.18,1.883-3.079,3.474-2.171,4.464
	c-1.709-0.411-0.703,1.632-0.046,2.874L84.373,51.506z M84.876,16.663c0.108,0.185,0.405,0.688,0.559,0.811
	c2.058,1.698,1.093-1.724,0.954-1.878C85.862,14.985,84.071,15.267,84.876,16.663z M83.691,22.195h1.668
	c0.062-0.77,0.262-1.709-0.539-2.273C82.649,18.433,83.747,21.528,83.691,22.195z M82.131,26.233
	c-1.288,0.985-3.895,2.576-3.248,4.351c1.437-1.55,3.628-1.616,4.526-3.269C83.932,26.356,83.085,25.494,82.131,26.233z
	 M79.755,18.244v3.32h1.088C80.766,20.542,81.946,17.689,79.755,18.244z M82.588,14.21c-0.257-0.323-1.355-0.39-1.827,0.472
	c-0.205,0.369-0.477,0.826-0.39,0.867C81.608,16.14,83.989,15.945,82.588,14.21z M71.555,8.55c3.176-0.523,6.866-0.99,9.375,0.806
	c0.472,0.339,2.253,0.544,2.001-0.098c-1.016-2.571-3.007-5.126-4.803-5.783c-1.073,1.088-2.437,1.288-3.248,2.396
	C73.202,5.01,71.663,6.929,71.555,8.55z M71.524,13.574c0.221,0.498,0.708,0.78,1.067,0.939c1.35,0.631,2.761-1.124,2.094-2.222
	C73.782,12.43,70.37,10.993,71.524,13.574z M70.944,19.039h1.616c0.462-1.252,0.457-3.438-1.616-2.34V19.039z M69.03,24.288
	c-0.724-0.303-2.463-0.544-1.827,1.211c0.436,1.206,1.586,3.089,3.156,2.689C69.559,26.982,68.666,25.597,69.03,24.288z M66.603,14
	c0.436,0,2.109,0.154,2.263,0c0.831-0.862-0.267-2.997-1.693-2.181C66.341,12.301,66.542,13.235,66.603,14z M66.531,19.039h1.622
	c0.457-1.252,0.452-3.438-1.622-2.34V19.039z M65.161,23.375c-0.975-1.309-2.273-0.098-1.529,1.011
	c0.328,0.482,0.308,1.504,0.508,1.745c0.688,0.831,1.878,2.966,3.305,1.811C65.603,26.634,65.905,24.36,65.161,23.375z
	 M62.755,16.827c1.267,0.631,2.838-0.929,2.176-2.181c-0.426-0.816-1.55-0.749-2.191-0.359
	C61.841,14.831,61.826,16.36,62.755,16.827z M52.22,13.435c2.566,2.027,4.192,6.029,8.416,8.4c-2.181-2.658-2.453-4.541-2.232-6.337
	c0.282-2.402,2.643-3.453,3.982-5.347c-1.811-0.893-5.219-0.6-7.589,0.128c-0.441,0.123-1.699,0.698-2.104,0.903
	C51.712,11.67,51.845,13.133,52.22,13.435z M39.966,22.01c1.668,1.873,4.777,4.685,8.908,5.357
	c-2.294-1.483-3.156-2.448-4.541-3.202c-1.606-0.888,2.222-1.729,0.39-3.679c-0.954-1.011,0.518-3.299,1.565-0.924
	c2.54,0.216,0.01-1.627,0.149-2.658c1.201,0.436,3.387,0.436,2.232-1.745c1.524-0.236,2.371,2.135,3.607,0.765
	c-3.566-3.279-9.216-4.531-14.999-4.88c-1.35-0.082-3.561,0.739-4.259,1.514C34.798,16.355,37.467,19.203,39.966,22.01z
	 M27.25,33.33c4.244,2.545,9.16,5.178,14.794,3.664c1.37-0.369,4.495,0.328,4.187-2.448c-0.765,1.35-2.068,0.729-3.14,0.811
	c-0.267-1.601,2.586-1.981,1.652-2.915c-0.98-0.975-1.078-2.484-0.221-3.289c0.508,0.58,2.083,1.878,2.294,0.708
	c0.257-1.457-1.581-1.155-2.294-0.708c-1.745-1.339-3.495-3.9-5.049-3.536C34.013,26.916,28.887,29.225,27.25,33.33z M32.577,55.441
	c-0.108,1.765-0.282,4.783-0.364,5.788c-0.046,0.631-0.277,2.525-0.195,3.202c0.103,0.96-1.047,3.823,1.108,3.269
	c0.159-0.806,0.647-2.699,0.626-3.33C33.675,62.061,34.388,57.022,32.577,55.441z M29.154,73.273
	c0.077-1.483,1.078-4.387-0.934-4.09c-0.508,2.094-0.908,3.987-0.693,6.014C28.61,75.136,29.118,73.884,29.154,73.273z
	 M27.014,76.003c-0.144,0.667-0.647,1.519-0.724,1.868c-0.174,0.78-0.01,2.396,1.062,1.324c0.477-0.482,0.267-1.698,0.698-2.566
	C28.666,75.387,27.117,75.495,27.014,76.003z M29.903,68.578c0.354-0.272,0.693-2.309,0.693-2.94
	c-0.005-4.259,0.334-10.966-0.718-14.517L29.38,61.435c0,1.042-0.529,4.115-0.529,5.229C28.856,67.316,28.199,69.881,29.903,68.578z
	 M31.833,73.555c0.282-0.251,0.477-2.273,0.79-3.366c0.144-0.482-0.595-1.309-1.385-0.611c-0.287,0.251-0.426,2.366-0.744,3.464
	C30.36,73.53,31.047,74.253,31.833,73.555z M36.81,46.359c0.128-1.339,0.098-2.545-0.487-3.525c-1.001-1.668-2.899-1.929-4.48-2.396
	c-0.893-0.262-1.539,0.395-1.124,1.175C32.104,44.152,34.768,45.456,36.81,46.359z M27.101,37.974
	c0.934-0.457,3.977,0.775,3.777-1.35c-2.586-0.354-5.414,0.01-7.317-1.38c0.339-1.806,1.991-2.571,2.658-3.91
	c0.626-1.262-1.001-1.057-1.257-0.739c-1.324,1.601-3.715,0.467-4.244,3.12c-1.16,0.308-1.047,2.335-0.518,2.792
	C22.108,38.128,24.766,39.108,27.101,37.974z M18.742,65.335c1.047-1.678,3.582-2.694,5.085-3.792
	c2.104-1.524-1.57-0.821-2.032-0.667c-2.925,0.98-4.069,3.977-5.988,6.23c-0.836,0.99-0.631,3.72,0.277,5.48
	C16.782,70.112,17.367,67.547,18.742,65.335z M24.202,65.201c0.046-1.119-0.354-1.981-1.062-1.108
	c-0.513,0.631-1.478,0.698-2.068,1.35c-2.417,2.653-3.741,7.841-2.242,12.315c0.246,0.739,1.504,1.642,1.868,0.954
	C22.616,75.059,24.007,70.276,24.202,65.201z M18.835,102.456c3.094,4.639,6.183,8.713,12.69,9.55
	c1.827,0.221,6.168,0.585,5.511-0.39c-3.248-4.844-5.162-9.657-7.969-13.875c-1.037-1.565-2.345-2.863-4.48-2.484
	C20.979,95.888,19.907,100.059,18.835,102.456z M28.117,128.57v2.55h1.119C29.103,130.412,30.37,127.538,28.117,128.57z
	 M27.502,136.139c-0.174,0.811,0.395,1.55,1.057,1.873c1.909,0.939,2.771-1.324,3.874-2.253
	C30.863,136.016,29.205,136.293,27.502,136.139z M28.359,123.028c-0.323-1.052-1.929-0.867-2.55-0.195
	c-0.672,0.718,0.436,1.842,1.17,1.175C27.573,123.474,28.887,124.69,28.359,123.028z M23.643,116.973
	c-2.53,1.078-4.649,3.366-3.541,6.137c1.401-0.493,2.55-2.042,4.444-1.396c0.436-0.893,1.504-1.493,1.852-2.484
	C26.763,118.184,24.469,116.624,23.643,116.973z M25.023,144.713c0.118,0.534,1.021,1.026,1.221,1.196
	c1.698,1.411,3.915,1.011,5.973,0.739c0.308-0.041,1.529-1.273,1.586-1.37c0.688-1.462-0.015-1.406-0.452-0.98
	c-1.642,1.601-3.638,1.355-5.788,1.201C27.399,145.006,24.489,142.337,25.023,144.713z M24.618,146.91
	c1.262,1.442,2.345,3.879,4.798,3.489c2.201-0.354,4.531-0.59,5.409-3.182C32.869,149.198,26.403,148.577,24.618,146.91z
	 M33.29,141.085c-0.908,0.467-1.888,1.001-2.904,1.252c-1.493,0.38-3.089,0.041-4.049-1.221c-1.55,0.652,0.072,1.806,0.518,2.222
	c2.037,1.899,5.116,0.893,6.522-0.98C33.741,141.87,35.091,140.151,33.29,141.085z M32.818,137.904
	c-1.601,1.775-4.136,1.616-5.604,0.816c0.031,0.493-0.246,1.18,0.241,1.581c1.637,1.293,3.53,0.021,5.28-0.765
	C33.505,139.192,33.906,136.688,32.818,137.904z M12.995,133.306c-0.154,0.128-0.462,0.631-0.564,0.811
	c-0.811,1.396,1.016,1.699,1.545,1.088C14.108,135.051,15.058,131.592,12.995,133.306z M16.741,127.056
	c-2.027-1.663-1.006,1.519-1.057,2.181c-0.031,0,0.344-0.067,0.462-0.067C17.377,129.15,17.321,127.538,16.741,127.056z
	 M17.89,121.191c0.405-3.936,5.126-5.003,6.163-8.241c-1.432-1.257-4.008-1.822-3.648-3.936c-3.189-1.404-5.968,1.48-7.928,3.831
	c-0.078-0.063-0.166-0.124-0.272-0.183c0.32-4.019,4.199-5.098,8.728-5.732c-2.581-0.898-5.126-1.878-6.291-1.119
	c-2.453,1.565-3.956,3.53-4.382,6.26c-0.236,1.483,1.35,1.796,1.945,0.59c0,0,0,0,0,0c-0.014,0.18-0.031,0.357-0.031,0.549
	c0.098-0.12,0.201-0.243,0.303-0.366c1.014,0.814-0.25,1.912-0.221,2.732c1.868,0.893,3.038,3.192,5.347,3.182
	C17.701,119.251,17.788,122.258,17.89,121.191z M19.64,132.064c0.144-0.169,1.083-3.613-0.98-1.914
	c-0.154,0.123-0.462,0.641-0.564,0.816C17.29,132.372,19.112,132.665,19.64,132.064z M21.113,135.615
	c-0.616-0.051-1.652-0.282-2.083,0.611c-0.462,0.949,0.529,1.929,1.473,1.473C21.395,137.273,21.169,136.236,21.113,135.615z
	 M22.129,146.407c-1.134-1.072-1.103,1.093-0.605,1.56C22.652,149.034,22.627,146.884,22.129,146.407z M22.95,124.352
	c0.036-1.878-2.227,0.364-0.354,0.334C22.581,124.685,22.95,124.326,22.95,124.352z M24.551,133.758
	c0.811-1.037-0.708-2.514-0.282-3.802c-1.309-0.698-1.324,0.754-1.088,1.514C23.432,132.275,23.571,133.183,24.551,133.758z
	 M24.418,151.051c0.585,1.026,2.786,2.843,3.551,3.269c0.39,0.205,1.965,0.133,2.453,0.041c1.909-0.349,4.526-2.268,4.3-3.669
	c-1.591,0.38-2.966,0.688-3.885,1.935l-4.464-1.478C26.296,150.332,23.638,149.655,24.418,151.051z M30.509,161.498
	c0.031-1.878-2.232,0.375-0.349,0.344C30.139,161.842,30.509,161.483,30.509,161.498z M31.976,157.321
	c1.196-0.703,3.53-2.155,2.484-3.997c-2.089,2.396-5.865,3.464-8.795,1.303c-0.888-0.662-1.652,0.154-1.201,1.16
	C25.623,158.368,29.539,158.748,31.976,157.321z M35.122,158.378c-0.975-0.205-1.201,0.96-1.319,1.698
	c-0.426,0.241-2.032,0.708-0.616,1.211l0.616-1.211C34.716,160.364,36.518,158.686,35.122,158.378z M35.501,125.527
	c-0.708,0.544-2.504,1.95-1.216,2.196C35.573,127.975,35.984,126.035,35.501,125.527z M36.405,123.059
	c-0.816,0.159-3.69-1.108-2.709,1.026C34.511,123.916,37.385,125.193,36.405,123.059z M39.986,165.321
	c-0.144-0.682-1.273-3.012-1.852-1.606c-0.144,0.339,0.616,1.416,0.621,1.678c0.01,1.719-1.904,2.278-2.391,3.453
	c-0.4,0.96,1.37,0.698,1.955,0.493C39.997,168.775,40.325,166.953,39.986,165.321z M38.863,159.553
	c-0.364,0.272-0.872,0.6-0.652,1.155c1.806-0.041,3.294,1.221,5.157,1.447C43.686,159.928,40.494,158.358,38.863,159.553z
	 M43.471,151.04c3.366-4.059,6.076-8.636,8.77-13.788c0.103-0.195-1.442,0.267-1.96,0.262c-0.226-2.248,2.366-3.464,2.325-6.122
	c-4.552,4.249-7.03,9.586-9.119,16.805C43.435,148.382,42.265,152.487,43.471,151.04z M45.918,154.242
	c2.319-2.504,6.081-4.859,7.687-8.067c1.257-2.514,2.094-5.07,4.049-7.148c-1.201,0.021-3.284-0.58-3.797,0.421
	c-2.776,5.414-5.722,10.273-10.006,14.445C43.337,154.391,45.564,154.632,45.918,154.242z M57.885,162.201
	c0.585-1.709,2.181-2.484,3.284-3.561c1.606-1.57-2.047-1.493-2.545-1.047c-1.642,1.524-3.782,1.616-5.845,2.227
	c-0.78,0.221-1.77-0.949-3.069-1.103c-1.355-0.164-2.833,1.432-4.598,1.385l-0.703,3.895
	C47.442,161.668,53.066,161.657,57.885,162.201z M59.902,163.982c-3.099-0.693-6.147-0.888-9.683-0.667
	c-0.534,0.031-2.602,1.119-3.12,1.632c-0.801,0.785-2.658,1.637-1.95,3.443c1.001,2.571,3.761,1.94,5.347,1.514
	C54.17,168.924,57.305,166.137,59.902,163.982z M76.399,174.445c-3.453-3.941-8.21-7.79-14.563-5.988
	c-0.867,0.246-1.791,1.293-2.653,1.252c-0.96-0.036-2.073,1.699-1.298,1.457c3.433-1.062,6.902,0.21,9.909,0.328
	C69.759,172.736,73.726,174.63,76.399,174.445z M77.497,166.419c-0.431-1.375-2.13-1.114-3.284-0.436
	c-0.411-0.493-4.1-1.704-2.258,0.216c0.944,0.99,1.986,2.047,2.874,2.745C76.004,169.868,77.959,167.882,77.497,166.419z
	 M79.889,161.391c-0.585-2.925-1.006-5.516-2.047-7.872c-0.508-1.134-1.714-2.386-2.966-2.92c-0.831-0.354-4.367,0.354-5.347,0.667
	c-0.544,0.18-1.144,0.806-0.919,1.242c0.939,1.827,2.976,2.75,4.485,4.182C74.639,158.147,76.938,162.324,79.889,161.391z
	 M82.275,166.142v-2.74c-1.016-0.2-2.468-0.395-2.915,1.062C78.77,166.414,81.238,166.696,82.275,166.142z M81.264,169.498
	c-0.616-0.251-0.216,1.262-0.647,1.929c-1.437,2.253,2.119,1.011,2.956,1.067C84.178,171.176,82.68,170.088,81.264,169.498z
	 M83.968,162.827c1.888,0.164,4.28-0.652,6.666-0.893c0.467-2.047-2.104-2.53-3.351-3.377c-1.124-0.734-3.418-0.534-2.325,1.698
	C84.101,160.883,83.614,161.668,83.968,162.827z M86.123,168.559c-0.718-1.185-2.627-1.098-2.104,0.154
	c0.544,1.298,0.739,2.201,1.221,2.437c1.257,0.57,2.863,0.375,3.587-1.011C89.715,168.446,87.35,167.938,86.123,168.559z
	 M90.505,167.061c1.945-1.309,4.659-1.201,5.829-2.432c-1.083-1.273-2.484-2.699-3.874-2.437c-0.364,0.077-0.934,0.883-1.124,0.98
	c-2.289,1.134-5.455,0.949-6.897,3.151C86.749,166.625,89.238,167.902,90.505,167.061z M103.858,179.705
	c-1.442-2.802-4.29-4.521-7.389-5.511c-1.293-0.416-5.932,0.185-4.013,0.718c3.602,0.99,6.63,2.848,9.385,5.229
	C102.636,179.269,105.212,182.342,103.858,179.705z M113.34,175.948c-0.975-2.232-0.652-4.464-2.94-5.434
	c-1.088-0.446-2.258,0.549-3.566,0.662c-1.288,0.108-3.382-0.087-3.977,0.795c2.191,2.504,4.552,4.793,7.538,6.655
	C111.401,179.258,113.736,176.841,113.34,175.948z M115.516,158.235c-0.139-0.867-1.042-0.575-1.406-0.021
	c-0.082,0.128-0.318,0.493-0.303,0.595C114.12,160.282,115.629,158.866,115.516,158.235z M116.111,163.869
	c-0.082-1.011,1.098-3.874-1.088-3.31v3.31H116.111z M121.407,164.269c-0.903,1.437-2.422,0.503-3.428,0.308
	c-0.996-0.195-1.853,0.867-1.729,1.709c1.94,0.067,3.951,0.308,5.927-0.852C123.039,164.926,122.059,163.222,121.407,164.269z
	 M123.834,158.927c-0.477,0.108-2.704-0.872-1.883,0.888c0.39,0.831,0.729,2.212,1.883,2.278V158.927z M124.424,154.535
	c-0.267-0.934-1.139-0.652-1.498-0.097c-0.082,0.128-0.272,0.503-0.359,0.611c-1.119,1.385-2.951,1.262-4.392,0.426v2.745
	c1.37,0.174,2.73-0.251,4.146-0.883C123.285,156.921,123.552,155.371,124.424,154.535z M125.723,153.088
	c-0.19,1.078,0.098,2.273,1.267,2.478c1.847,0.328,3.797-1.108,4.962-2.915c0.544-0.836-0.544-2.171-1.134-0.688
	C129.992,154.078,127.401,152.903,125.723,153.088c-1.114-0.929-0.272-2.627-0.759-3.212c-1.016-1.221-2.068-0.01-1.637,1.462
	C123.696,152.616,124.312,153.632,125.723,153.088z M131.254,166.537c0.041-1.883-2.227,0.369-0.349,0.339
	C130.885,166.876,131.254,166.507,131.254,166.537z M130.279,155.828c-0.333,0.231-0.78,0.775-0.754,1.006
	c0.144,1.498,1.206,3.53,0.585,4.115c-1.924,1.765-3.556,1.622-5.013,0.847v3.341c0.549,0,2.299,0.195,2.648,0
	c2.201-1.278,3.556-3.536,3.879-5.265C131.922,158.224,133.056,153.893,130.279,155.828z M150.015,156.023
	c-1.38,0.826-2.309,1.719-2.679,2.766c-0.339,0.903,0.503,2.058,0.765,3.202c0.385,1.678-0.975,3.171-2.879,4.326
	c-0.934,0.559-1.406-2.047-3.115-1.216c-1.052-1.298-1.237-3.674-1.77-4.675c-1.042,1.35-2.858,1.524-3.438,2.001
	c0.636,0.98,1.781,0.98,1.878,1.714c0.154,1.144,0.677,2.602-0.19,2.961c-2.027,0.806-4.11,1.698-5.727,0.564
	c-0.462,1.088-0.2,2.299,0.867,1.97c1.765-0.544,5.788-1.103,7.225-1.375c-0.2-1.149-0.308-2.714,1.155-3.161l-0.01,3.079
	c2.709,0.8,6.173-0.364,7.333-2.92C150.369,163.222,150.405,158.953,150.015,156.023z M149.409,147.002
	c-1.067,0.585-1.478,1.457-2.284,1.76c-1.427,0.554,0.251,1.729,0.359,2.001c0.872,2.089-0.262,3.623-1.95,4.541
	c-0.559,0.313-1.622-0.513-2.16-0.303c-1.19,0.498-1.509,3.022-0.077,3.166c3.7,0.39,6.691-3.284,6.789-6.938
	C150.128,149.865,150.882,146.196,149.409,147.002z M150.261,139.346c-0.831,0.021-1.852-0.277-2.319,0.082
	c-0.364,0.282-0.785,0.806-0.759,1.001c0.118,1.298,0.831,2.756,0.472,3.869c-0.641,1.991-2.612,2.165-3.961,1.883
	c-0.698,1.488-0.195,3.474,1.627,2.396c1.714-1.006,3.115-2.53,4.11-4.141C150.333,142.984,150.436,141.096,150.261,139.346z
	 M152.822,141.999c-1.165-0.38-1.888,1.365-1.878,2.212c2.725,1.026,5.347-0.883,6.625-2.961c1.375-2.222,1.847-4.916,1.401-7.61
	l-1.811-0.026l0.682-3.746c0.508-0.067,2.011-0.318,2.525-0.328c1.888-0.041,3.648-1.842,3.351-3.705
	c-0.169-1.067-1.57,1.185-2.335,1.524c-0.713,0.308-2.869,0-3.607,0c0-0.872,0.349-2.638-0.267-2.545
	c-1.155,0.185-1.853,1.067-1.981,1.852c-0.231,1.385,0.821,3.058,0.282,4.577c-0.37,1.042-1.832,1.924-2.976,1.283
	c-2.273-1.262-1.042,2.176-1.098,3.043c2.212,0.831,3.587-1.344,5.424-1.955c-1.36,1.493-1.175,3.571-0.949,4.998
	C156.537,140.736,154.731,142.599,152.822,141.999z M158.769,147.879c0.108-0.611,0.118-3.279-0.724-4.259
	c-0.585,0.287-2.042,0.636-2.427,1.221c-1.021,1.488,2.278,3.864,0.103,5.891c-1.216,1.139-2.884,0.149-4.059-0.221
	c0.046,1.396-0.816,3.582,0.739,3.766C155.901,154.699,158.123,151.43,158.769,147.879z M159.852,156.67
	c1.622-1.611-2.207-0.313-3.151,0.036c-0.21,0.077-0.657,0.159-0.708,0.262c-0.621,1.262-2.694,1.96-1.837,4.115
	C155.475,159.143,158.277,158.23,159.852,156.67z M179.659,181.265c-7.287-2.032-13.003-6.384-17.467-11.541l-0.431,3.028
	c-1.237-0.99-3.294-1.991-2.745-3.766c-1.468-0.903-1.221,1.047-0.934,1.514c0.318,0.482,0.405,1.437,0.215,1.083
	c1.842,3.443,4.433,5.368,7.01,7.184c2.899,2.017,7.174,2.52,11.305,3.171C177.478,182.07,181.194,181.691,179.659,181.265z
	 M185.017,181.167c0.036-1.647-0.96-3.269-2.042-3.736c-5.527-2.366-11.628-5.008-15.646-9.663
	c-0.626-0.739-1.791,0.339-0.636,0.934c-0.431,1.637-1.853,0.231-1.94-0.411c-0.185-1.462-1.771-0.036-0.913,0.585
	c0.924,0.677,3.217,3.356,4.12,4.044C172.953,176.754,178.797,178.391,185.017,181.167z M188.506,162.119
	c0.041-1.047-1.442-2.037-2.448-3.161c0.877-1.473-0.939-1.688-1.724-1.047c-0.159,0.144-0.621,0.544-0.713,0.852
	c-0.37,1.262,1.416,1.94,1.919,3.182c0.523,1.273,0.375,3.849,2.53,3.92C188.249,164.603,188.46,163.397,188.506,162.119z
	 M192.811,155.725c-0.062-0.816-1.226-2.725-2.848-2.258c-1.093,0.318-1.899,1.155-2.422,2.073c-0.883,1.58,0.806,2.792,2.124,3.443
	C191.174,159.723,192.965,157.773,192.811,155.725z M193.119,168.421c5.537-0.795,9.806-3.223,13.008-6.425
	c0.734-0.739-0.231-1.698-1.119-1.108c-2.863,1.914-5.424,4.162-9.334,5.378C194.931,166.486,192.837,166.625,193.119,168.421z
	 M204.085,167.004c3.623-1.216,6.85-4.854,8.451-8.056c1.211-2.407,0.339-5.337-1.863-6.199c-0.677-0.262-1.878,0.108-2.838,0.534
	c-1.37,0.631-2.802,2.155-2.088,3.864c0.765,1.852,3.289,1.155,3.407,2.756c0.18,2.561-3.007,4.793-5.609,5.881
	C202.977,166.014,202.823,167.43,204.085,167.004z M220.28,156.916c-2.407-1.021-3.243-2.904-3.725-4.634
	c-0.272-0.949-0.251-2.176,0.723-2.971l-3.977,0.718c-0.436,1.226,0.662,2.053,0.985,2.899c0.446,1.165,0.405,4.957,0.226,5.542
	c-1.062,3.423-5.101,7.02-8.026,10.011C213.311,165.639,217.971,161.94,220.28,156.916z M222.553,159.584
	c0.616-1.252-0.713-1.935-1.324-0.724c-1.585,3.146-4.705,5.891-6.922,7.435c-0.949,0.657-2.263,2.058-1.278,1.76
	C217.529,166.696,220.665,163.443,222.553,159.584z M224.416,145.673c-1.18-0.318-2.632,0.903-3.407,1.344
	c-2.176,1.226-2.473,3.602-1.75,5.942c0.21,0.672,1.047,1.642,1.986,2.099c0.636,0.308,3.176,0,3.972,0
	c0,0.58,0.128,2.376-0.021,2.93c-0.754,2.945-4.67,6.794-5.46,8.646c5.486-2.171,9.468-6.271,10.027-12.567
	C230.122,150.03,227.361,146.499,224.416,145.673z M229.937,132.957c0.236-0.898,1.191-4.408-0.585-3.187
	c-0.59,0.395-0.908,1.011-0.888,1.067c0.836,2.776-2.042,5.265-1.601,7.687C228.695,136.816,229.46,134.656,229.937,132.957z
	 M232.036,119.841c-0.349-0.205-2.704-0.015-3.453,0.031c-2.874,0.216-3.997,3.341-3.146,5.706c0.493,1.391,2.078,2.165,3.602,1.786
	c1.108-0.277,3.777-1.473,3.648,0.729c-0.303,5.147-2.822,9.462-5.126,12.957c3.31-2.622,5.722-6.394,7.148-10.432
	C237.537,126.625,235.094,121.658,232.036,119.841z M236.423,113.689c-1.457,0.59-2.15,2.268-1.683,3.777
	c0.544,1.74,2.663,1.196,3.864,0.523c0.965-0.544,0.472-2.237,0.272-3.453C238.707,113.509,237.337,113.335,236.423,113.689z
	 M237.486,107.664c0.246-0.564-0.872-0.385-1.232,0.174c-0.718,1.155-0.99,2.658-2.478,3.638
	C236.187,111.61,236.844,109.142,237.486,107.664z M228.044,87.677c-1.488,2.258-0.205,5.332,2.889,6.286
	c1.124,0.339,3.002-1.483,4.408-2.961c0.816-0.857,1.698,0.913,2.155,1.396c1.375,1.457,1.026,4.126,0.482,4.813
	c-1.627-0.508-1.514-2.058-1.329-3.146c-0.636,0.128-2.709-0.862-2.048,0.883c1.483,3.91,0.811,8.026-0.693,11.869
	c1.888,1.103,2.396-2.047,2.401-2.176c0.062-2.653,0.467-4.803,2.124-5.126c0.924,2.658-1.709,5.65-0.626,7.723
	c3.202-5.886,4.069-14.168,0.411-19.628c-1.632-2.448-5.568-3.187-8.744-1.729C228.695,86.24,228.459,87.046,228.044,87.677z
	 M228.454,41.32l-4.623,20.059c1.129-0.359,2.637-0.436,2.781-0.708c1.935-3.956,1.704-10.094,3.341-14.224
	C230.558,44.927,230.794,40.863,228.454,41.32z M20.235,112.883c-2.273,1.088-3.299,3.094-3.474,5.403
	c1.483-1.196,2.894-3.782,4.936-3.756C22.375,113.401,21.313,112.354,20.235,112.883z"/>
</svg>
