<?xml version="1.0" encoding="iso-8859-1"?>
<!-- Generator: Adobe Illustrator 17.0.0, SVG Export Plug-In . SVG Version: 6.00 Build 0)  -->
<!DOCTYPE svg PUBLIC "-//W3C//DTD SVG 1.1//EN" "http://www.w3.org/Graphics/SVG/1.1/DTD/svg11.dtd">
<svg version="1.1" id="&#x56FE;&#x5C42;_1" xmlns="http://www.w3.org/2000/svg" xmlns:xlink="http://www.w3.org/1999/xlink" x="0px"
	 y="0px" width="553.371px" height="776.693px" viewBox="0 0 553.371 776.693" style="enable-background:new 0 0 553.371 776.693;"
	 xml:space="preserve">
<path style="fill:#E5A723;" d="M497.539,760.165C497.539,760.165,497.539,760.165,497.539,760.165L497.539,760.165L497.539,760.165z
	 M484.204,747.262l0.295,0.627h2.434c-0.075-0.349-0.129-0.697-0.168-1.042h-6.179c-0.257,0.341-0.54,0.689-0.855,1.042
	c-0.743,0.848-1.632,1.736-2.666,2.654h4.456c1.001-1.196,1.724-2.072,2.185-2.654C483.93,747.616,484.092,747.408,484.204,747.262z
	 M514.728,720.065c-0.079,0.498-0.125,1.017-0.125,1.541c0,0.623,0.123,1.578,0.27,2.644h1.449c-0.124-0.727-0.191-1.42-0.191-2.087
	c0-0.736,0.07-1.434,0.203-2.098h0c0.241-1.23,0.702-2.347,1.333-3.348c1.255-1.81,2.791-2.782,4.88-2.782
	c0.282,0,0.984,0.275,2.238,0.972c-0.286,2.122-0.527,3.838-0.714,5.158h0.001c-0.261,1.897-0.411,2.964-0.411,3.209
	c0,0.225,0.033,0.57,0.07,0.976h2.758c-0.112-0.627-0.175-1.324-0.175-2.088c0-0.45,0.121-1.139,0.365-2.098h-0.001
	c0.208-0.823,0.503-1.835,0.885-3.064c2.376,0.108,4.585,1.129,6.558,3.065c0.581,0.573,1.142,1.225,1.683,1.956
	c0.556,0.75,1.059,1.491,1.503,2.229c1.379,2.305,2.214,4.572,2.38,6.906h3.139c-0.324-2.474-0.86-4.779-1.609-6.906
	c-0.525-1.474-1.153-2.873-1.88-4.185h0c-1.797-3.215-4.222-5.915-7.283-8.086h-1.973c2.177,1.408,4.313,3.588,6.412,6.554
	c-3.763-3.763-8.359-5.71-13.663-5.71C518.727,712.823,515.4,715.924,514.728,720.065z M552.569,771.249
	c-0.129-1.001-0.374-1.807-0.726-2.438h-0.002c-0.386-0.694-0.905-1.175-1.54-1.465c-2.227-0.42-4.456-0.694-6.827-1.113
	l0.278,2.579h0.001l0.266,2.437h3.16c-0.168-0.291-0.336-0.611-0.502-0.972l0.423-0.844c0,0,0.693,0.138,1.948,0.424
	c0.61,0.1,0.997,0.561,1.163,1.392h-0.001c0.063,0.319,0.091,0.693,0.091,1.117c-0.142,0.423-0.552,0.702-0.976,0.702
	c-0.781,0-1.474-0.635-2.147-1.819h-3.16c0.19,1.757,0.286,2.596,0.285,2.512v0.424c2.513,0.834,4.332,1.25,5.304,1.25h2.795
	c0.129-0.557,0.27-1.392,0.27-2.367c0-0.665-0.034-1.271-0.104-1.819H552.569z M491.031,755.077l-0.004-0.004
	c-1.403-1.545-2.454-3.057-3.168-4.53c-0.428-0.897-0.735-1.782-0.926-2.654h-2.434c0.44,0.918,0.914,1.802,1.403,2.654
	c0.955,1.64,2.011,3.147,3.161,4.53h0c1.636,1.96,3.472,3.659,5.498,5.092h2.978C495.284,759.072,493.11,757.378,491.031,755.077z
	 M544.359,746.847L544.359,746.847c-0.109,0.356-0.218,0.706-0.329,1.042h1.225c0.113-0.345,0.217-0.694,0.324-1.042h0.001
	c1.42-4.801,2.317-10.022,2.698-15.69h-1.939c0.038,0.603,0.055,1.184,0.055,1.749c0,3.202-0.407,6.823-1.255,10.872
	C544.903,744.869,544.641,745.887,544.359,746.847z M549.185,650.897v7.675c0,1.113-0.689,4.045-0.689,5.158v21.607
	c0,2.242,0.689,8.094,0.689,10.32c0,1.117,0.565,3.629,0.565,4.742v0.349h2.736c-0.062-3.169-0.216-7.189-0.507-12.059
	c-0.423-6.977-0.564-12.135-0.564-15.619c0,0,0.282-10.324,0.988-31.102c-2.795,0-5.727,2.932-6.84,5.852
	c-0.976,3.219-2.649,9.211-4.884,17.999c-2.646,9.618-3.904,15.341-3.904,17.006c0,2.384,0.283,4.892,0.973,7.264
	c-3.202,0.976-5.3,3.343-5.988,7.392c-1.259,0.138-2.372,0.973-3.489,2.367c-0.266,0.304-0.515,0.602-0.764,0.901h-0.001v0
	c-0.673,0.818-1.317,1.632-2.025,2.446c-1.539,1.532-3.628,3.073-6.141,4.605c-2.365,1.387-4.185,2.721-5.5,4.178h4.038
	c1.687-1.229,3.759-1.947,6.063-1.947c2.076,0,4.128,0.643,6.138,1.947h1.973c-1.935-1.375-4.126-2.537-6.571-3.484
	c4.877-5.162,7.39-7.674,7.248-7.674c3.148,0,6.189,3.75,9.004,11.158h0.839c-0.536-1.138-1.121-2.346-1.748-3.625
	c-1.504-3.182-2.695-5.715-3.571-7.604h0.001c-1.246-2.662-1.873-4.032-1.873-4.115c0-1.807,0.701-2.782,1.955-2.782
	c1.624,0,3.244,2.279,4.867,6.897c0.609,1.736,1.213,3.809,1.824,6.209c0.448,1.765,0.85,3.431,1.204,5.021h0
	c0.664,2.986,1.158,5.673,1.499,8.086h0.001c0.153,1.075,0.269,2.097,0.369,3.068c-0.183-0.756-0.515-1.781-1-3.068h-0.001
	c-0.781-2.047-1.957-4.755-3.526-8.086h-0.839c0.303,0.793,0.598,1.633,0.898,2.509c0.643,1.96,1.2,3.82,1.678,5.577
	c0.398,1.465,0.739,2.861,1.025,4.185h0c0.544,2.558,0.88,4.863,1.005,6.906h1.939c0.147-2.142,0.216-4.347,0.216-6.627v-0.279h0
	c-0.013-1.266-0.102-2.657-0.28-4.185h-0.001c-0.28-2.393-0.765-5.092-1.464-8.086c-0.669-2.853-1.528-5.968-2.586-9.34
	c-0.199-0.64-0.39-1.271-0.582-1.89c-2.533-8.331-3.732-14.115-3.732-17.355c0-2.089,0.693-5.166,1.947-9.07
	c1.818-5.432,2.932-8.364,3.073-9.065c0.552-3.489,1.117-6.832,1.807-10.175c0.976-4.751,1.96-7.811,3.073-9.207v3.484
	C549.75,649.78,549.185,650.478,549.185,650.897z M539.251,747.889h2.487c0.099-0.349,0.191-0.698,0.283-1.042
	c0.797-3.14,1.171-6.371,1.172-9.762c0-2.077-0.12-4.054-0.366-5.927h-3.139l0.022,0.35c-0.168-0.117-0.352-0.238-0.567-0.35H528.52
	c1.521,0.279,3.348,0.723,5.468,1.325c4.465,1.255,6.692,2.653,6.692,3.908v1.254c-1.532,0.141-2.509-0.142-2.787-0.561
	c-3.625-0.694-5.856-0.976-6.557-0.976c-5.433,0-10.046,2.371-13.668,6.969c-0.976,1.212-1.811,2.466-2.503,3.77h-0.001
	c-0.186,0.345-0.357,0.693-0.523,1.042h1.093c0.186-0.349,0.39-0.697,0.6-1.041h0.001c0.752-1.222,1.662-2.43,2.729-3.63
	c3.626-3.908,7.529-5.855,11.579-5.855c4.738,0,8.081,0.972,10.037,2.791v2.924c-5.158-1.388-8.231-2.085-9.207-2.085
	c-4.995,0-9.335,2.242-11.756,5.854h-0.002c-0.229,0.332-0.437,0.685-0.627,1.042h2.596l0.033-0.066l0.091,0.066h5.166
	c-0.282-0.362-0.538-0.709-0.763-1.041h0c-0.436-0.649-0.777-1.25-1.014-1.811c1.681-1.118,2.936-1.683,3.908-1.683
	c0.295,0,1.481,1.163,3.553,3.493h0l0.924,1.042h2.837c-0.279-0.329-0.557-0.686-0.819-1.042c-0.681-0.935-1.246-1.894-1.475-2.517
	h1.956c0.618,0,2.895,1.662,3.394,2.517c0.058,0.103,0.093,0.199,0.093,0.278C539.568,747.042,539.471,747.295,539.251,747.889z
	 M477.738,755.073c0.49-0.677,1.333-1.682,2.561-3.069l1.223-1.461h-4.457l-0.395,0.344c-1.882,1.744-3.23,3.095-4.078,4.186h0v0
	l-0.112,0.146c-3.625,0.689-5.432,1.943-5.432,3.904c0,0.39-0.017,0.738-0.055,1.042h0.001c-0.104,0.884-0.369,1.433-0.782,1.739
	c-1.807-0.693-3.772-0.976-5.858-0.976c-2.932,0-6.274,0.702-10.178,1.956c-3.211,1.117-6.562,2.23-9.764,3.488
	c-5.44,1.113-9.489,1.803-12.271,1.948c-0.457,0.091-0.956,0.253-1.5,0.49h12.201c0.905-0.245,1.844-0.499,2.824-0.765
	c10.324-2.649,16.316-4.045,17.988-4.045c2.093,0,7.946,1.113,17.568,3.484c2.1,0.49,4.129,0.931,6.089,1.325h9.718
	c-3.991-0.89-7.887-1.679-11.898-2.579c-6.549-1.682-9.9-3.484-9.9-5.304c0-0.274,0.042-0.531,0.125-0.764h0
	c0.12-0.352,0.318-0.65,0.571-0.898l2.081,0.901h6.192c-1.975-1.403-2.979-2.778-2.979-4.116c0-0.178,0.171-0.498,0.516-0.976
	H477.738z M552.897,750.543L552.897,750.543L552.897,750.543c-0.07-0.686-0.145-1.404-0.225-2.168l-0.05-0.486h0.001l-0.1-1.042
	c-0.295-3.152-0.402-5.577-0.402-7.396c0-2.164,0-4.93,0.027-8.294h-2.395c-0.125,2.887-0.221,4.673-0.287,5.37
	c-0.373,3.488-1.059,6.932-2.018,10.32h0.001c-0.1,0.345-0.199,0.693-0.308,1.042h-0.001c-0.266,0.889-0.553,1.773-0.856,2.654
	h0.001c-0.527,1.523-1.108,3.035-1.744,4.53h-0.001l-0.237,0.553l-1.445-0.553h0.001l-0.366-0.141
	c0.674-1.42,1.293-2.886,1.854-4.389h-0.001c0.326-0.873,0.627-1.753,0.91-2.654h-1.225c-0.316,0.959-0.652,1.843-1.005,2.654h0.001
	c-0.561,1.274-1.167,2.367-1.79,3.276c-0.693-0.141-1.117-0.702-1.117-1.395c0.27-0.627,0.523-1.254,0.752-1.881h-0.001
	c0.323-0.881,0.614-1.766,0.866-2.654h-2.487c-0.157,0.416-0.374,1.001-0.66,1.744c-0.553-0.062-1.375-0.801-2.172-1.744h-2.837
	c0.671,0.765,1.405,1.628,2.223,2.588l0.054,0.066h0.001c1.565,1.884,2.944,3.392,4.148,4.53h-0.001
	c1.882,1.777,3.339,2.653,4.439,2.653c1.055,0,2.01-0.889,2.782-2.653h0.001c0.149-0.341,0.287-0.706,0.423-1.112
	c0.441-1.139,0.823-2.28,1.184-3.418h-0.001c0.22-0.678,0.424-1.346,0.631-2.027c0.154,0.711,0.295,1.383,0.42,2.027h0.001
	c0.349,1.768,0.579,3.284,0.66,4.53h0.001c0.025,0.345,0.037,0.673,0.037,0.976c0,2.144,0,3.514-0.118,4.116h2.768v0
	c0.095-0.814,0.137-1.72,0.137-2.721c0-0.693-0.025-1.482-0.083-2.371C553.205,753.786,553.072,752.287,552.897,750.543z
	 M526.974,747.889h-5.166c1.275,0.897,2.486,1.777,3.621,2.654h0c2.014,1.545,3.812,3.052,5.403,4.53h0.001
	c1.879,1.744,3.46,3.443,4.751,5.092h5.789c-1.798-1.093-3.842-2.554-6.133-4.394c-0.295-0.232-0.574-0.469-0.852-0.698h-0.001
	c-1.993-1.628-3.675-3.143-5.046-4.53C528.412,749.6,527.623,748.711,526.974,747.889z M550.442,760.236
	c-0.422,1.536-1.259,2.371-2.65,2.371c-1.59,0-3.728-0.806-6.42-2.441h-5.789c2.375,3.044,3.754,5.926,4.148,8.647h0.001
	c0.079,0.539,0.117,1.074,0.117,1.601c0,0.308-0.104,0.577-0.32,0.835c-0.469,0.573-1.453,1.055-2.895,1.54
	c-1.537,0.407-3.064,0.549-4.454,0.549c-3.216,0-5.588-0.411-6.983-1.392c0.1-0.091,1.014-0.327,2.633-0.697
	c0.711-0.162,1.553-0.345,2.53-0.561c1.961-0.433,3.156-1.038,3.584-1.877h-0.001c0.125-0.238,0.182-0.49,0.182-0.764
	c0-1.997-1.68-4.635-5.008-7.882h0.001c-1.599-1.558-3.58-3.256-5.934-5.093h-0.002c-0.98-0.763-2.03-1.551-3.14-2.367
	c0.068-0.636,0.247-1.349,0.538-2.162h0c0.269-0.777,0.638-1.653,1.104-2.654h-2.596c-0.44,0.831-0.789,1.713-1.026,2.653h0
	c-0.257,0.989-0.395,2.043-0.395,3.135c0,0.35,0.051,0.815,0.133,1.396h0.001c0.195,1.217,0.582,2.936,1.209,5.091h2.725
	c-0.57-0.676-0.852-1.349-0.852-2.026c0-0.27,0-0.552,0.141-0.694c2.101,0.777,3.505,1.728,4.273,2.721h-0.001
	c0.195,0.253,0.35,0.511,0.466,0.764c-1.257,0.703-1.96,0.976-1.96,0.976c-0.897-0.581-1.587-1.162-2.068-1.739h-2.725
	c0.148,0.511,0.303,1.046,0.474,1.607c-0.141,0.694-0.56,1.113-1.113,1.113h-2.791c-0.053-0.586-0.327-1.599-0.651-2.72h-2.106
	c0.187,1.038,0.391,2.059,0.391,2.441l-1.541,0.278c-0.295-0.951-0.573-1.861-0.835-2.72h-0.001
	c-0.589-1.948-1.071-3.65-1.449-5.092c-0.54-2.026-0.868-3.542-0.997-4.53c-0.041-0.308-0.062-0.566-0.062-0.768v-1.886h-15.474
	c-0.568,0.188-1.178,0.395-1.823,0.627c-0.096-0.211-0.178-0.419-0.249-0.627h-2.03c0.19,0.872,0.505,1.753,0.942,2.654
	c0.726,1.47,1.773,2.981,3.156,4.53c1.475,1.658,3.327,3.352,5.561,5.092c0.324,0.253,0.652,0.511,0.993,0.764
	c-0.625-0.208-1.25-0.465-1.865-0.764h-2.978c5.448,3.845,12.31,5.784,20.595,5.784c1.394,0,3.628-0.552,6.561-1.54
	c2.931-0.971,5.161-1.524,6.694-1.524c0.553,0,1.113,0.27,1.528,0.693c-1.117,1.259-3.347,2.371-6.69,3.348
	c-2.424,0.677-4.847,1.213-7.272,1.885h-0.004l-0.253,0.07h-8.647c-0.486,0-1.005-0.024-1.553-0.07h-0.007
	c-3.693-0.317-8.784-1.671-15.458-3.974c-4.419-1.595-7.711-3.152-9.854-4.672h-6.192c9.111,3.97,15.646,6.919,19.485,8.647h0.001
	l0.468,0.211l-0.935-0.212h-9.718c7.861,1.582,14.589,2.395,20.112,2.438h0.001l0.436,0.004l0.528-0.004
	c5.75-0.042,11.559-0.848,17.426-2.437h0.004c3.064-0.831,6.145-1.873,9.246-3.143c-1.206,1.204-2.656,2.261-4.402,3.142h-0.001
	c-1.686,0.856-3.65,1.537-5.918,2.019c-0.556,0.148-1.175,0.286-1.85,0.419c-2.552,0.507-5.933,0.922-10.007,1.259
	c-4.602,0.419-6.69,0.561-6.42,0.561l-36.537-0.279c-1.523,0-5.574-0.705-7.252-0.565c-17.857,0.142-29.419,0.702-34.863,1.396
	c0.839-0.531,3.007-1.316,6.478-2.371c2.289-0.693,5.144-1.503,8.551-2.438H426.64c-1.113,0.485-2.4,1.267-3.804,2.3l-0.186,0.138
	c-1.973,1.482-3.028,2.832-3.028,4.049c0,0.552,0.141,0.97,0.282,1.394h2.513c1.537,0,3.908-0.282,7.11-0.843
	c3.21-0.415,5.581-0.694,6.977-0.694l59.416,0.835c3.895,0.142,11.989-0.278,24.398-1.112c1.536-0.146,3.625,0.141,6.561,0.697
	c2.929,0.557,5.021,0.835,6.271,0.835c5.955,0,9.019-1.761,9.319-5.162v0c0.013-0.179,0.023-0.37,0.023-0.561
	c0-0.461-0.105-1.13-0.26-1.877h0c-0.41-1.956-1.166-4.464-1.267-5.373c4.032,1.399,6.827,2.097,8.082,2.097
	c2.392,0,3.763-1.765,4.186-5.369h-2.769L550.442,760.236z M552.532,704.586c0-1.096-0.013-2.375-0.046-3.837h-2.736v10.947
	c0,0.083,0.004,0.175,0.012,0.282h2.687v0.001C552.499,708.993,552.532,706.518,552.532,704.586z M511.111,719.368l0.008,0.697
	c0.025,1.304,0.116,2.699,0.282,4.185h2.339c-0.164-1.079-0.25-2.192-0.25-3.343c0-0.282,0.013-0.563,0.033-0.842h0
	c0.232-3.344,1.869-6.271,4.356-8.086h-4.038C511.974,714.04,511.111,716.344,511.111,719.368z M508.328,746.572
	c0-8.175,5.484-13.964,13.151-15.415h0.005c1.234-0.232,2.521-0.353,3.854-0.353c0.831,0,1.901,0.116,3.181,0.353h10.623
	c-1.582-0.863-4.484-1.723-8.783-2.582c-2.109-0.445-3.422-1.865-3.87-4.324h-2.758c0.083,0.868,0.212,1.985,0.212,2.65
	c0,1.532-0.553,2.367-1.807,2.367c-1.818,0-3.073,0.141-4.043,0.564c-0.882-2.052-1.488-3.892-1.772-5.582h-1.449
	c0.287,2.06,0.706,4.527,0.706,5.723c-0.913-1.735-1.526-3.662-1.839-5.723h-2.338c0.228,2.002,0.586,4.183,1.104,6.554
	c-0.239,0.112-0.468,0.231-0.695,0.352h-0.002c-1.977,1.076-3.306,2.484-4.182,4.12c-0.411-0.142-2.371-0.424-5.855-1.121
	c-2.367-0.419-4.328-0.702-5.719-0.702c-3.488,0-6.412,1.399-8.921,4.049c-0.702,0.694-2.65,3.489-5.864,8.364
	c-0.203,0.324-0.428,0.644-0.681,0.98h6.178c-0.033-0.328-0.052-0.656-0.052-0.98c0-2.919,1.254-5.299,3.621-6.969
	c2.089-1.536,4.742-2.371,7.815-2.371c3.904,0,6.689,0.698,8.364,2.23c-4.319-1.113-7.109-1.674-8.647-1.674
	c-4.88,0-9.348,4.186-9.348,8.783c0,0.324,0.021,0.647,0.054,0.98h1.89c-0.079-0.361-0.129-0.728-0.129-1.117
	c0-3.908,3.484-7.114,7.393-7.114c0.976,0,2.649,0.282,5.021,0.977c2.649,0.705,4.045,1.399,4.045,1.955c0,0-0.258,1.807-0.768,5.3
	h2.305V746.572z M488.752,747.889h2.03c-0.137-0.353-0.242-0.698-0.319-1.042h-1.89C488.615,747.192,488.673,747.54,488.752,747.889
	z M508.328,747.889v-1.042h-2.305l-0.062,0.415c-1.133,0-3.549-0.254-5.506-0.415c-0.933-0.079-1.77-0.138-2.306-0.138
	c-0.356,0-0.802,0.042-1.333,0.138h0c-1.005,0.17-2.321,0.515-3.962,1.042H508.328z M513.764,755.073
	c0.017-1.511,0.288-3.027,0.802-4.53c0.303-0.889,0.693-1.774,1.167-2.654h-1.093c-0.402,0.864-0.747,1.748-1.038,2.654
	c-0.461,1.453-0.78,2.965-0.946,4.53h-0.001c-0.099,0.909-0.15,1.84-0.15,2.795c0,0.511,0.154,1.408,0.316,2.297h2.106
	c-0.519-1.819-1.163-3.921-1.164-4.946L513.764,755.073L513.764,755.073z M552.294,720.065L552.294,720.065
	c0.059-3.007,0.112-5.706,0.154-8.086h-2.688c0.079,1.117,0.54,3.293,0.54,4.186l-0.129,3.9h0.001l-0.151,4.185h0
	c-0.102,2.762-0.19,5.059-0.268,6.906h2.395c0.014-2.072,0.035-4.377,0.072-6.906h0l0.037-2.371L552.294,720.065z M0.145,760.165
	h2.774c-0.125-0.602-0.125-1.972-0.125-4.116c0-0.303,0.013-0.631,0.038-0.976c0.083-1.246,0.311-2.762,0.66-4.53h0.001
	c0.124-0.644,0.262-1.316,0.415-2.027c0.208,0.681,0.415,1.349,0.631,2.027H4.538c0.362,1.138,0.744,2.279,1.184,3.418
	c0.133,0.406,0.282,0.771,0.428,1.112c0.777,1.765,1.724,2.653,2.778,2.653c1.101,0,2.562-0.876,4.444-2.653h0.001
	c1.204-1.138,2.578-2.645,4.149-4.531h0l0.049-0.065c0.818-0.96,1.565-1.823,2.23-2.588H16.96c-0.797,0.943-1.624,1.682-2.18,1.744
	c-0.283-0.743-0.499-1.328-0.652-1.744H11.64c0.254,0.888,0.54,1.773,0.864,2.654h0.001c0.233,0.627,0.482,1.253,0.748,1.88
	c0,0.693-0.42,1.253-1.113,1.395c-0.623-0.909-1.221-2.002-1.782-3.276h-0.001c-0.357-0.811-0.693-1.694-1.009-2.653H8.123
	c0.283,0.901,0.586,1.781,0.91,2.654h0c0.564,1.503,1.175,2.968,1.852,4.388l-0.37,0.142h-0.001l-1.445,0.553l-0.237-0.553h0.001
	c-0.631-1.495-1.212-3.007-1.741-4.53h0.001c-0.303-0.881-0.589-1.765-0.855-2.654c-0.105-0.349-0.212-0.697-0.312-1.042h0.001
	c-0.96-3.388-1.645-6.832-2.019-10.32c-0.066-0.697-0.157-2.483-0.278-5.37H1.238c0.021,3.364,0.017,6.13,0.017,8.294
	c0,1.819-0.101,4.244-0.395,7.396l-0.108,1.042l-0.05,0.486l-0.216,2.168v0H0.485c-0.178,1.744-0.315,3.243-0.394,4.53
	C0.033,755.962,0,756.751,0,757.444C0,758.445,0.05,759.351,0.145,760.165L0.145,760.165z M1.113,721.879l0.041,2.371
	c0.042,2.529,0.067,4.834,0.084,6.906H3.63c-0.079-1.847-0.167-4.144-0.27-6.906l-0.15-4.185l-0.137-3.9
	c0-0.893,0.465-3.069,0.544-4.186H0.93c0.042,2.38,0.1,5.079,0.154,8.086L1.113,721.879z M130.727,771.25h0.002l-0.195-0.138
	c-1.403-1.033-2.683-1.815-3.796-2.3h-12.206c3.418,0.935,6.267,1.745,8.555,2.438h-0.002c3.473,1.055,5.636,1.84,6.475,2.371
	c-5.444-0.694-17.006-1.254-34.863-1.396c-1.678-0.14-5.726,0.565-7.247,0.565l-36.541,0.279c0.269,0-1.82-0.142-6.417-0.561
	c-4.078-0.337-7.458-0.752-10.004-1.259h0.002c-0.677-0.133-1.296-0.271-1.856-0.419c-2.263-0.482-4.228-1.163-5.922-2.019H26.71
	c-1.735-0.88-3.192-1.938-4.396-3.142c3.098,1.27,6.183,2.312,9.252,3.143h0.004c5.867,1.589,11.671,2.395,17.422,2.437l0.523,0.004
	l0.44-0.004c5.524-0.042,12.252-0.855,20.113-2.438H60.35l-0.935,0.212l0.463-0.211h0.002c3.85-1.728,10.379-4.677,19.485-8.647
	h-6.191c-2.144,1.52-5.437,3.077-9.854,4.672c-6.674,2.303-11.762,3.657-15.453,3.974h-0.01c-0.548,0.046-1.071,0.07-1.557,0.07
	h-8.646l-0.249-0.07h-0.004c-2.428-0.673-4.853-1.209-7.277-1.885c-3.343-0.977-5.573-2.089-6.69-3.348
	c0.415-0.423,0.976-0.693,1.528-0.693c1.537,0,3.767,0.552,6.699,1.524c2.932,0.988,5.162,1.54,6.553,1.54
	c8.285,0,15.154-1.938,20.603-5.784h0.001c2.03-1.433,3.861-3.132,5.498-5.092h0c1.15-1.383,2.205-2.89,3.156-4.53h0
	c0.498-0.852,0.964-1.736,1.404-2.654h-2.429c-0.188,0.872-0.494,1.756-0.931,2.654c-0.71,1.473-1.765,2.985-3.169,4.53h0v0.004
	c-2.08,2.301-4.248,3.995-6.503,5.088h-0.001c-0.619,0.299-1.246,0.556-1.873,0.764c0.34-0.253,0.673-0.511,1.001-0.764h0.001
	c2.226-1.74,4.078-3.434,5.557-5.092c1.379-1.549,2.438-3.06,3.156-4.53h0c0.436-0.901,0.751-1.781,0.942-2.654h0
	c0.079-0.349,0.137-0.698,0.175-1.042h-1.886c-0.075,0.345-0.182,0.688-0.315,1.041h0c-0.079,0.208-0.162,0.416-0.254,0.627
	c-0.647-0.232-1.254-0.439-1.827-0.627h-0.003c-1.631-0.528-2.95-0.871-3.955-1.041c-0.535-0.096-0.979-0.138-1.337-0.138
	c-0.536,0-1.366,0.059-2.301,0.138c-1.956,0.161-4.377,0.415-5.511,0.415l-0.058-0.415h-2.309v1.041v0.001v1.885
	c0,0.203-0.02,0.461-0.058,0.769h0.001c-0.129,0.988-0.461,2.504-0.993,4.53c-0.386,1.442-0.868,3.144-1.458,5.092h-0.001
	c-0.257,0.86-0.539,1.769-0.834,2.72l-1.541-0.278c0-0.381,0.208-1.403,0.394-2.441h-2.105c-0.323,1.121-0.602,2.134-0.656,2.72
	h-2.79c-0.552,0-0.976-0.419-1.117-1.113c0.174-0.561,0.337-1.096,0.486-1.607H31.65c-0.486,0.577-1.18,1.158-2.077,1.739
	c0,0-0.706-0.274-1.96-0.976c0.116-0.253,0.27-0.51,0.464-0.763h0.001c0.772-0.993,2.172-1.945,4.277-2.721
	c0.142,0.141,0.142,0.424,0.142,0.694c0,0.676-0.282,1.349-0.847,2.026h2.724c0.623-2.155,1.013-3.875,1.2-5.091h-5.382
	c-2.35,1.836-4.33,3.533-5.929,5.091h-0.001c-3.331,3.247-5.013,5.885-5.013,7.882c0,0.275,0.067,0.528,0.183,0.765h0.001
	c0.428,0.838,1.624,1.443,3.583,1.876c0.972,0.216,1.819,0.398,2.529,0.561h-0.002c1.628,0.37,2.533,0.606,2.629,0.697
	c-1.392,0.981-3.763,1.392-6.977,1.392c-1.395,0-2.923-0.142-4.456-0.549c-1.441-0.485-2.421-0.967-2.89-1.54h0.001
	c-0.212-0.258-0.324-0.527-0.324-0.835c0-0.528,0.042-1.063,0.121-1.603h-0.003c0.39-2.72,1.773-5.602,4.153-8.645h-5.793
	c-2.691,1.635-4.834,2.441-6.424,2.441c-1.395,0-2.23-0.835-2.649-2.371l-0.013-0.07H0.144c0.424,3.604,1.79,5.369,4.182,5.369
	c1.255,0,4.045-0.698,8.082-2.097c-0.099,0.909-0.851,3.418-1.258,5.374v0.001h0.001c-0.158,0.746-0.266,1.415-0.266,1.875
	c0,0.191,0.008,0.382,0.025,0.561v0h-0.001c0.299,3.401,3.359,5.162,9.315,5.162c1.25,0,3.343-0.278,6.275-0.835
	c2.932-0.556,5.021-0.843,6.553-0.697c12.418,0.834,20.507,1.254,24.403,1.112l59.415-0.835c1.396,0,3.763,0.279,6.978,0.694
	c3.206,0.561,5.573,0.843,7.109,0.843h2.513c0.137-0.424,0.279-0.842,0.277-1.394C133.747,774.082,132.7,772.732,130.727,771.25z
	 M38.51,724.25c0.149-1.066,0.261-2.021,0.263-2.645c0-0.524-0.042-1.043-0.125-1.541h-0.001c-0.669-4.14-3.995-7.241-8.103-7.241
	c-5.303,0-9.896,1.947-13.663,5.71c2.102-2.966,4.24-5.146,6.412-6.554h-1.968c-3.061,2.172-5.486,4.871-7.28,8.086
	c-0.735,1.312-1.362,2.711-1.881,4.185c-0.752,2.127-1.287,4.432-1.611,6.906h3.135c0.17-2.334,1.001-4.601,2.388-6.906
	c0.444-0.738,0.943-1.479,1.495-2.229c0.54-0.731,1.104-1.383,1.69-1.956c1.968-1.936,4.17-2.957,6.549-3.065
	c0.382,1.229,0.681,2.242,0.889,3.065h0c0.241,0.958,0.361,1.648,0.361,2.097c0,0.764-0.054,1.461-0.166,2.088h2.753
	c0.042-0.406,0.067-0.751,0.067-0.976c0-0.245-0.149-1.313-0.411-3.21h0c-0.183-1.32-0.428-3.035-0.714-5.157
	c1.254-0.697,1.956-0.972,2.238-0.972c2.089,0,3.626,0.972,4.88,2.782c0.631,1.001,1.097,2.118,1.337,3.348h0.001
	c0.137,0.664,0.199,1.362,0.199,2.097c0,0.668-0.062,1.361-0.183,2.088H38.51z M38.452,760.165h2.105
	c0.162-0.889,0.312-1.786,0.312-2.297c0-0.955-0.046-1.886-0.146-2.795c-0.166-1.565-0.481-3.077-0.947-4.53
	c-0.286-0.906-0.631-1.79-1.033-2.654h-1.097c0.474,0.88,0.864,1.765,1.167,2.654c0.515,1.503,0.785,3.018,0.802,4.53v0.146
	C39.615,756.244,38.975,758.346,38.452,760.165z M11.645,711.979h-0.839c-1.57,3.331-2.745,6.039-3.522,8.086
	c-0.49,1.287-0.83,2.312-1.009,3.068c0.096-0.97,0.22-1.993,0.374-3.068c0.345-2.413,0.834-5.1,1.499-8.086v0
	c0.353-1.59,0.752-3.256,1.2-5.021c0.61-2.4,1.221-4.473,1.832-6.209c1.62-4.618,3.235-6.897,4.855-6.897
	c1.258,0,1.96,0.975,1.96,2.782c0,0.083-0.623,1.453-1.865,4.115h0.001c-0.881,1.889-2.077,4.422-3.58,7.604
	c-0.628,1.279-1.205,2.487-1.745,3.625h0.839c2.816-7.408,5.852-11.158,9.004-11.158c-0.145,0,2.367,2.512,7.247,7.674
	c-2.446,0.947-4.635,2.109-6.57,3.484h1.968c2.014-1.304,4.061-1.947,6.138-1.947c2.304,0,4.385,0.718,6.067,1.947h4.041
	c-1.317-1.457-3.14-2.791-5.511-4.178c-2.509-1.532-4.597-3.073-6.134-4.605c-0.71-0.814-1.349-1.628-2.022-2.446h0.001
	c-0.249-0.299-0.507-0.597-0.769-0.901c-1.117-1.394-2.23-2.229-3.484-2.367c-0.694-4.049-2.791-6.416-5.993-7.392
	c0.69-2.372,0.972-4.88,0.972-7.264c0-1.665-1.258-7.388-3.904-17.006c-2.235-8.788-3.908-14.78-4.884-17.999
	c-1.113-2.92-4.045-5.852-6.84-5.852C1.678,662.746,1.96,673.07,1.96,673.07c0,3.484-0.141,8.642-0.565,15.619
	c-0.286,4.871-0.435,8.89-0.506,12.059h2.739v-0.349c0-1.113,0.557-3.625,0.557-4.742c0-2.226,0.693-8.078,0.693-10.32V663.73
	c0-1.113-0.693-4.045-0.693-5.158v-7.675c0-0.419-0.557-1.117-0.557-1.536v-3.484c1.113,1.396,2.093,4.456,3.069,9.207
	c0.69,3.343,1.254,6.686,1.807,10.175c0.141,0.701,1.258,3.633,3.073,9.065c1.255,3.904,1.948,6.981,1.948,9.07
	c0,3.24-1.2,9.024-3.733,17.355c-0.183,0.619-0.382,1.25-0.585,1.89c-1.059,3.372-1.911,6.487-2.575,9.34
	c-0.702,2.994-1.188,5.693-1.466,8.086c-0.179,1.528-0.274,2.919-0.287,4.185H4.88v0.279c0,2.279,0.071,4.484,0.22,6.627h1.935
	c0.129-2.043,0.461-4.347,1.009-6.906c0.287-1.324,0.627-2.72,1.022-4.185c0.477-1.757,1.034-3.618,1.678-5.577
	C11.043,713.612,11.342,712.772,11.645,711.979z M3.618,711.978c0.008-0.107,0.012-0.199,0.012-0.282v-10.947H0.889
	c-0.029,1.462-0.042,2.741-0.042,3.837c0,1.932,0.033,4.407,0.083,7.393v-0.001H3.618z M63.036,738.897
	c2.371,1.67,3.63,4.05,3.63,6.969c0,0.324-0.017,0.652-0.054,0.98h6.18c-0.254-0.336-0.483-0.656-0.69-0.98
	c-3.211-4.875-5.158-7.67-5.86-8.364c-2.513-2.65-5.432-4.049-8.92-4.049c-1.392,0-3.352,0.283-5.719,0.702
	c-3.484,0.697-5.444,0.979-5.855,1.121c-0.872-1.636-2.205-3.044-4.182-4.12h-0.001c-0.223-0.121-0.456-0.24-0.696-0.352
	c0.515-2.371,0.88-4.552,1.104-6.554h-2.339c-0.307,2.061-0.926,3.988-1.84,5.723c0-1.196,0.423-3.663,0.714-5.723h-1.449
	c-0.29,1.69-0.897,3.53-1.777,5.582c-0.972-0.423-2.23-0.564-4.045-0.564c-1.258,0-1.806-0.835-1.806-2.367
	c0-0.665,0.133-1.782,0.216-2.65h-2.753c-0.453,2.459-1.769,3.879-3.879,4.324c-4.297,0.859-7.196,1.719-8.779,2.582h0
	c-0.211,0.112-0.402,0.233-0.569,0.35l0.021-0.35h-3.136c-0.245,1.873-0.369,3.85-0.369,5.927c0,3.393,0.378,6.623,1.175,9.763
	h-0.001c0.088,0.345,0.183,0.693,0.283,1.042h2.488c-0.22-0.594-0.32-0.847-0.321-0.764c0-0.079,0.034-0.174,0.096-0.277h0.001
	c0.494-0.855,2.77-2.517,3.389-2.517h1.956c-0.224,0.623-0.793,1.581-1.469,2.516h-0.002c-0.261,0.356-0.54,0.714-0.818,1.042h2.841
	l0.92-1.041h0.002c2.072-2.33,3.251-3.493,3.546-3.493c0.972,0,2.23,0.565,3.904,1.683c-0.232,0.56-0.568,1.161-1.004,1.809h-0.001
	c-0.228,0.332-0.482,0.681-0.76,1.042h5.158l0.096-0.066l0.029,0.066h2.6c-0.191-0.358-0.403-0.71-0.624-1.042h-0.001
	c-2.425-3.612-6.773-5.853-11.764-5.853c-0.976,0-4.049,0.697-9.207,2.085v-2.924c1.956-1.819,5.299-2.791,10.038-2.791
	c4.049,0,7.953,1.947,11.578,5.855c1.067,1.2,1.985,2.408,2.733,3.63h0.001c0.216,0.344,0.418,0.692,0.601,1.04h1.097
	c-0.167-0.349-0.341-0.698-0.528-1.042c-0.693-1.304-1.532-2.559-2.508-3.771c-3.625-4.598-8.231-6.969-13.667-6.969
	c-0.702,0-2.932,0.282-6.558,0.976c-0.278,0.419-1.254,0.702-2.787,0.561v-1.254c0-1.255,2.226-2.653,6.695-3.908
	c2.118-0.602,3.948-1.046,5.468-1.325h0.002c1.283-0.237,2.343-0.353,3.177-0.353c1.333,0,2.624,0.121,3.862,0.353h0.002
	c7.665,1.451,13.143,7.24,13.143,15.415v0.274h2.309l-0.772-5.3c0-0.556,1.395-1.25,4.049-1.955
	c2.368-0.695,4.041-0.977,5.017-0.977c3.909,0,7.388,3.206,7.388,7.114c0,0.389-0.041,0.756-0.12,1.117h1.886
	c0.037-0.333,0.054-0.656,0.054-0.98c0-4.597-4.469-8.783-9.348-8.783c-1.536,0-4.327,0.561-8.646,1.674
	c1.678-1.532,4.461-2.23,8.364-2.23C58.298,736.526,60.947,737.361,63.036,738.897z M69.175,747.262
	c0.103,0.146,0.269,0.354,0.494,0.627h0.001c0.468,0.582,1.191,1.458,2.188,2.654h4.456c-1.038-0.918-1.923-1.806-2.666-2.654
	c-0.311-0.353-0.598-0.701-0.855-1.042h-6.181c-0.033,0.345-0.092,0.693-0.166,1.042h2.429L69.175,747.262z M72.247,766.23
	c-4.015,0.9-7.906,1.689-11.897,2.579h9.719c1.96-0.394,3.986-0.835,6.084-1.325C85.771,765.113,91.626,764,93.728,764
	c1.665,0,7.662,1.396,17.981,4.045c0.984,0.266,1.928,0.52,2.824,0.765h12.205c-0.544-0.237-1.046-0.399-1.503-0.49
	c-2.782-0.145-6.827-0.835-12.271-1.948c-3.202-1.258-6.554-2.371-9.76-3.488c-3.908-1.254-7.251-1.956-10.183-1.956
	c-2.089,0-4.049,0.283-5.856,0.976c-0.416-0.306-0.677-0.855-0.785-1.739h0.002c-0.037-0.304-0.054-0.652-0.054-1.042
	c0-1.961-1.807-3.215-5.437-3.904l-0.104-0.146v0h0c-0.852-1.091-2.205-2.442-4.082-4.186l-0.391-0.344h-4.456l1.221,1.461
	c1.225,1.387,2.072,2.392,2.562,3.069h0.003c0.345,0.478,0.511,0.798,0.511,0.976c0,1.338-0.993,2.713-2.978,4.116h6.191
	l2.081-0.901c0.252,0.248,0.459,0.546,0.576,0.898h-0.002c0.079,0.233,0.12,0.49,0.12,0.764
	C82.143,762.746,78.792,764.548,72.247,766.23z M41.973,724.25c0.171-1.486,0.258-2.881,0.287-4.185h0.001l0.004-0.697
	c0-3.024-0.86-5.328-2.725-7.389h-4.039c2.491,1.815,4.119,4.741,4.356,8.085h-0.002c0.017,0.279,0.025,0.561,0.025,0.843
	c0,1.151-0.079,2.264-0.245,3.343H41.973z M35.707,753.678c0-1.092-0.136-2.147-0.386-3.135H35.32
	c-0.24-0.939-0.589-1.823-1.029-2.654h-2.6c0.464,1.001,0.834,1.877,1.108,2.654H32.8c0.287,0.813,0.465,1.527,0.536,2.163
	c-1.113,0.814-2.16,1.603-3.144,2.367h5.382C35.665,754.492,35.707,754.027,35.707,753.678z M27.949,750.543L27.949,750.543
	c1.142-0.877,2.343-1.757,3.617-2.654h-5.158c-0.648,0.822-1.437,1.711-2.367,2.654h0c-1.374,1.387-3.056,2.902-5.045,4.53h3.55
	C24.137,753.595,25.935,752.088,27.949,750.543z M1.538,768.811H1.536c-0.353,0.631-0.598,1.437-0.726,2.438
	c-0.071,0.548-0.108,1.154-0.108,1.82c0,0.975,0.145,1.81,0.27,2.367h2.795c0.976,0,2.795-0.416,5.303-1.25v-0.424
	c0,0.083,0.1-0.756,0.291-2.513H6.2c-0.677,1.183-1.374,1.819-2.155,1.819c-0.416,0-0.831-0.279-0.972-0.702
	c0-0.424,0.033-0.798,0.095-1.117H3.167c0.166-0.831,0.549-1.292,1.159-1.392c1.255-0.286,1.948-0.424,1.948-0.424l0.424,0.844
	c-0.166,0.362-0.328,0.681-0.498,0.972h3.161l0.265-2.437h0.001l0.274-2.579c-2.371,0.419-4.601,0.693-6.827,1.113
	C2.434,767.636,1.92,768.117,1.538,768.811z M8.123,747.889h1.225c-0.112-0.336-0.22-0.686-0.324-1.042
	c-0.286-0.96-0.552-1.978-0.793-3.069c-0.843-4.049-1.25-7.67-1.25-10.872c0-0.565,0.017-1.146,0.054-1.749H5.1
	c0.382,5.669,1.279,10.89,2.704,15.69H7.803C7.907,747.196,8.011,747.544,8.123,747.889z M18.136,755.772
	c-2.293,1.839-4.332,3.3-6.13,4.393h5.793c1.287-1.649,2.87-3.348,4.747-5.091h-3.55L18.136,755.772z M529.333,26.152h-3.912
	c-1.134,0.872-2.338,1.756-3.613,2.649l-0.091,0.07l-0.033-0.07c-0.466-1.001-0.831-1.873-1.104-2.649h-2.518
	c0.243,0.938,0.586,1.823,1.03,2.649c0.191,0.361,0.399,0.71,0.629,1.047h0.002c2.415,3.607,6.759,5.854,11.75,5.854
	c0.976,0,4.049-0.697,9.207-2.089v2.923c-1.956,1.819-5.299,2.791-10.037,2.791c-4.05,0-7.953-1.947-11.579-5.851
	c-1.067-1.195-1.973-2.408-2.724-3.629h-0.002c-0.216-0.35-0.416-0.698-0.601-1.046c-0.474-0.876-0.864-1.765-1.167-2.649h-0.968
	c0.291,0.905,0.636,1.79,1.042,2.649c0.167,0.354,0.337,0.702,0.525,1.047h0.002c0.691,1.3,1.523,2.557,2.497,3.766
	c3.622,4.602,8.235,6.968,13.668,6.968c0.701,0,2.932-0.277,6.557-0.971c0.278-0.42,1.255-0.702,2.787-0.561v1.254
	c0,1.254-2.227,2.653-6.692,3.907c-2.133,0.607-3.964,1.047-5.488,1.325h10.636c0.216-0.116,0.407-0.232,0.575-0.354l-0.022,0.354
	h3.137v0.001c0.246-1.877,0.366-3.85,0.366-5.926c0-3.397-0.378-6.629-1.171-9.764h0c-0.092-0.35-0.184-0.698-0.283-1.045h-2.487
	c0.219,0.593,0.317,0.851,0.317,0.768c0,0.079-0.035,0.169-0.093,0.277h0c-0.499,0.855-2.776,2.517-3.394,2.517h-1.956
	c0.225-0.619,0.794-1.582,1.474-2.516h0.001c0.262-0.362,0.536-0.715,0.819-1.047h0c0.793-0.938,1.619-1.678,2.172-1.74
	c0.29,0.744,0.507,1.325,0.66,1.74h2.487c-0.253-0.889-0.539-1.77-0.863-2.649h0c-0.233-0.632-0.487-1.254-0.756-1.882
	c0-0.694,0.424-1.254,1.117-1.395c0.623,0.909,1.229,1.997,1.79,3.276h1.32c-0.556-1.507-1.179-2.969-1.854-4.388l0.367-0.142
	h-2.857c-1.204,1.134-2.579,2.649-4.144,4.531h0l-0.054,0.066c-0.818,0.959-1.557,1.819-2.23,2.583h0
	c-0.324,0.374-0.63,0.722-0.921,1.046h-0.001c-2.066,2.325-3.256,3.488-3.547,3.488c-0.972,0-2.227-0.564-3.908-1.678
	c0.237-0.56,0.573-1.167,1.01-1.81h0c0.229-0.337,0.482-0.685,0.763-1.046C527.619,27.979,528.408,27.094,529.333,26.152z
	 M542.232,7.883C542.232,7.883,542.232,7.884,542.232,7.883L542.232,7.883L542.232,7.883z M549.047,11.156
	c-1.255,0-4.05,0.702-8.082,2.101c0.101-0.91,0.857-3.422,1.267-5.373h-2.504c-0.391,2.72-1.774,5.601-4.146,8.642h-0.001
	c-1.289,1.652-2.875,3.35-4.752,5.094h-0.001c-1.591,1.474-3.393,2.986-5.407,4.531h3.912c1.375-1.387,3.058-2.898,5.049-4.53h0.001
	V21.62l0.855-0.693c2.287-1.844,4.33-3.305,6.125-4.4h0.001c2.696-1.637,4.834-2.439,6.428-2.439c1.391,0,2.228,0.835,2.65,2.367
	l0.022,0.071h0.002c0.118,0.605,0.118,1.977,0.118,4.118c0,0.303-0.012,0.631-0.037,0.976h-0.001
	c-0.081,1.246-0.315,2.761-0.66,4.531h-0.001c-0.125,0.639-0.266,1.316-0.42,2.026c-0.207-0.676-0.411-1.349-0.627-2.026h0.001
	c-0.361-1.137-0.747-2.276-1.187-3.418c-0.137-0.403-0.275-0.776-0.424-1.113c-0.772-1.768-1.728-2.653-2.783-2.653
	c-1.1,0-2.562,0.872-4.443,2.653h2.857l1.445-0.552l0.237,0.552c0.636,1.495,1.217,3.007,1.744,4.531h-0.001
	c0.303,0.879,0.59,1.76,0.856,2.649h5.482l0.05-0.486c0.08-0.76,0.155-1.479,0.225-2.163h0c0.17-1.744,0.314-3.243,0.391-4.531
	c0.058-0.892,0.083-1.678,0.083-2.371c0-1.001-0.042-1.911-0.137-2.724h-0.001C552.81,12.921,551.439,11.156,549.047,11.156z
	 M481.131,10.464c4.008-0.901,7.9-1.694,11.886-2.579h-9.726c-1.952,0.394-3.978,0.834-6.068,1.324
	c-9.622,2.372-15.475,3.484-17.568,3.484c-1.672,0-7.664-1.395-17.988-4.045l-2.803-0.764h-12.206
	c0.538,0.232,1.034,0.398,1.483,0.494c2.782,0.136,6.831,0.83,12.271,1.943c3.202,1.258,6.553,2.371,9.764,3.488
	c3.904,1.254,7.246,1.952,10.178,1.952c2.086,0,4.051-0.279,5.858-0.972c0.413,0.306,0.679,0.851,0.787,1.736h-0.001
	c0.033,0.307,0.05,0.655,0.05,1.046c0,1.956,1.807,3.214,5.432,3.903l0.112,0.146h0.002c0.851,1.093,2.201,2.443,4.077,4.186
	l0.398,0.345V26.15h4.457l-1.227-1.462c-1.228-1.382-2.063-2.392-2.557-3.069h-0.002c-0.349-0.485-0.519-0.801-0.519-0.975
	c0-1.342,0.997-2.716,2.975-4.119h0.001c2.143-1.517,5.435-3.074,9.858-4.668c6.648-2.299,11.732-3.657,15.42-3.974h0.007
	c0.565-0.05,1.093-0.07,1.591-0.07h8.647l0.262,0.07h0.009c2.422,0.672,4.841,1.207,7.26,1.883c3.342,0.977,5.573,2.09,6.69,3.348
	c-0.415,0.42-0.975,0.693-1.528,0.693c-1.533,0-3.762-0.552-6.694-1.528c-2.932-0.983-5.167-1.536-6.561-1.536
	c-8.285,0-15.155,1.935-20.599,5.781h2.974c0.618-0.295,1.241-0.553,1.873-0.765c-0.341,0.262-0.673,0.511-1.001,0.765h5.581
	c1.375-0.644,2.637-0.947,3.783-0.901l-0.228,0.901h3.298c0.262-0.856,0.54-1.766,0.835-2.717l1.541,0.278
	c0,0.378-0.204,1.404-0.391,2.439h2.106c0.324-1.122,0.597-2.131,0.651-2.717h2.791c0.553,0,0.971,0.42,1.113,1.113
	c-0.171,0.561-0.333,1.092-0.478,1.604h2.725c0.481-0.578,1.174-1.155,2.072-1.736c0,0,0.703,0.274,1.96,0.972
	c-0.116,0.262-0.271,0.51-0.465,0.764h-0.002c-0.767,0.993-2.171,1.948-4.273,2.724c-0.141-0.141-0.141-0.422-0.141-0.693
	c0-0.673,0.283-1.349,0.848-2.03h-2.725c-0.623,2.154-1.014,3.877-1.205,5.094h0c-0.087,0.578-0.133,1.047-0.133,1.396
	c0,1.097,0.142,2.143,0.395,3.136h2.518c-0.291-0.818-0.47-1.524-0.539-2.165c1.111-0.813,2.157-1.601,3.141-2.366h0.001
	c2.353-1.835,4.33-3.537,5.928-5.095h0.002c3.333-3.244,5.012-5.884,5.012-7.88c0-0.273-0.058-0.53-0.178-0.762h0
	c0,0,0-0.001-0.001-0.001c0,0,0-0.001,0-0.001h0c-0.429-0.843-1.623-1.443-3.586-1.875c-0.967-0.216-1.807-0.403-2.512-0.565h-8.934
	c0.669,0.134,1.279,0.278,1.827,0.42c2.268,0.485,4.233,1.166,5.927,2.022h0.003c1.737,0.876,3.187,1.939,4.392,3.142
	c-3.095-1.267-6.172-2.318-9.229-3.144h-0.009c-5.837-1.586-11.615-2.387-17.335-2.44h-1.18c-5.507,0.054-12.201,0.864-20.021,2.442
	h9.726l0.947-0.212l-0.472,0.211h0c-3.85,1.731-10.378,4.676-19.483,8.643h-0.001l-2.079,0.904
	c-0.253-0.244-0.448-0.552-0.571-0.903c-0.078-0.233-0.125-0.486-0.125-0.763C471.231,13.947,474.582,12.142,481.131,10.464z
	 M548.495,52.165c0-2.276-0.068-4.485-0.212-6.628c-0.386-5.673-1.283-10.893-2.703-15.689c-0.104-0.35-0.212-0.699-0.321-1.047
	c-0.286-0.897-0.587-1.778-0.913-2.649h-1.32c0.353,0.809,0.693,1.694,1.005,2.649c0.111,0.341,0.22,0.689,0.328,1.047
	c0.282,0.959,0.544,1.98,0.78,3.068c0.848,4.045,1.255,7.666,1.255,10.873c0,0.561-0.017,1.146-0.055,1.748h0.001
	c-0.125,2.043-0.461,4.343-1.005,6.902h3.16V52.165z M552.449,64.715L552.449,64.715L552.449,64.715
	c-0.043-2.379-0.096-5.083-0.155-8.086v0.001h-2.123l0.129,3.9c0,0.892-0.461,3.068-0.54,4.185h0.002
	c-0.008,0.104-0.012,0.199-0.012,0.283v10.947v0.345c0,1.117-0.565,3.63-0.565,4.743c0,2.225-0.689,8.081-0.689,10.319v21.607
	c0,1.117,0.689,4.05,0.689,5.162v7.675c0,0.42,0.565,1.113,0.565,1.537v3.483c-1.113-1.394-2.097-4.46-3.073-9.207
	c-0.69-3.343-1.255-6.686-1.807-10.174c-0.141-0.702-1.255-3.633-3.073-9.07c-1.254-3.903-1.947-6.976-1.947-9.065
	c0-3.243,1.199-9.028,3.732-17.355h-1.383c-1.623,4.614-3.239,6.898-4.863,6.898c-1.254,0-1.955-0.975-1.955-2.782
	c0-0.084,0.623-1.462,1.868-4.116h-9.738c0.249,0.299,0.498,0.602,0.76,0.901c1.117,1.395,2.23,2.226,3.489,2.367
	c0.688,4.045,2.786,6.416,5.988,7.393c-0.69,2.368-0.973,4.879-0.973,7.264c0,1.665,1.258,7.383,3.904,17.006
	c2.235,8.787,3.908,14.779,4.884,17.994c1.113,2.919,4.045,5.855,6.84,5.855c-0.706-20.778-0.988-31.101-0.988-31.101
	c0-3.484,0.141-8.643,0.564-15.624c0.291-4.867,0.445-8.886,0.507-12.055c0.033-1.462,0.046-2.741,0.046-3.837
	C552.532,70.176,552.499,67.701,552.449,64.715z M547.141,28.801c0.109,0.349,0.208,0.697,0.308,1.047h-0.001
	c0.959,3.384,1.645,6.836,2.018,10.315c0.066,0.702,0.162,2.487,0.287,5.374h0c0.078,1.843,0.166,4.144,0.268,6.902h0l0.151,4.189
	h2.122l-0.037-1.814l-0.037-2.375h0c-0.037-2.529-0.058-4.83-0.072-6.902c-0.027-3.368-0.027-6.13-0.027-8.293
	c0-1.815,0.107-4.244,0.402-7.396l0.1-1.047H547.141z M542.825,45.537h-3.139c-0.166,2.334-1.001,4.598-2.385,6.902h3.916
	C541.966,50.312,542.502,48.007,542.825,45.537z M513.765,21.474c0-1.029,0.642-3.131,1.163-4.949h-2.106
	c-0.162,0.889-0.316,1.789-0.316,2.301c0,0.95,0.05,1.881,0.15,2.794c0.17,1.565,0.485,3.077,0.946,4.531h0.968
	c-0.518-1.507-0.789-3.019-0.806-4.531h0.001V21.474z M422.655,5.44L422.655,5.44l0.182,0.142c1.412,1.038,2.699,1.819,3.82,2.301
	V7.882h12.206c-3.414-0.934-6.268-1.748-8.556-2.442h0.001c-3.479-1.054-5.656-1.835-6.495-2.367
	c5.444,0.69,17.006,1.255,34.863,1.396c1.678,0.136,5.729-0.565,7.252-0.565l36.537-0.278c-0.27,0,1.818,0.136,6.42,0.564
	c4.091,0.333,7.479,0.743,10.029,1.25h8.934c-1.632-0.369-2.55-0.601-2.65-0.693c1.395-0.985,3.767-1.392,6.983-1.392
	c1.39,0,2.917,0.138,4.454,0.549c1.445,0.486,2.429,0.968,2.898,1.536h0c0.212,0.258,0.316,0.532,0.316,0.835
	c0,0.531-0.038,1.063-0.121,1.607h2.504c0.155-0.752,0.26-1.416,0.26-1.877c0-0.191-0.006-0.382-0.023-0.565
	c-0.295-3.396-3.36-5.161-9.319-5.161c-1.25,0-3.342,0.281-6.271,0.838c-2.936,0.556-5.025,0.84-6.561,0.698
	c-12.409-0.831-20.503-1.255-24.398-1.113l-59.416,0.835c-1.396,0-3.767-0.282-6.977-0.693C426.325,0.279,423.954,0,422.417,0
	h-2.513c-0.141,0.42-0.282,0.844-0.281,1.395C419.623,2.612,420.678,3.962,422.655,5.44z M550.301,9.349
	c0.636-0.291,1.15-0.776,1.541-1.466c0.353-0.636,0.598-1.442,0.722-2.441h-2.354c-0.166,0.831-0.553,1.292-1.163,1.395
	c-1.255,0.287-1.948,0.424-1.948,0.424l-0.423-0.848c0.166-0.353,0.334-0.681,0.498-0.972h-3.156l-0.266,2.442h0l-0.278,2.579
	C545.845,10.042,548.074,9.768,550.301,9.349z M549.326,3.626c0.424,0,0.834,0.278,0.976,0.702c0,0.424-0.029,0.797-0.091,1.112
	h2.354c0.07-0.543,0.107-1.15,0.109-1.814c0-0.976-0.141-1.81-0.27-2.371h-2.795c-0.972,0-2.791,0.419-5.304,1.254v0.423
	c0-0.083-0.096,0.751-0.286,2.508h3.156C547.851,4.257,548.545,3.626,549.326,3.626z M489.063,21.62
	c-1.15,1.384-2.206,2.891-3.165,4.531h1.961c0.709-1.479,1.76-2.986,3.168-4.531l0.004-0.004c2.079-2.301,4.244-3.995,6.5-5.091
	h-2.974C492.526,17.957,490.699,19.656,489.063,21.62z M544.163,74.05c1.059-3.368,1.918-6.485,2.587-9.335h0
	c0.699-2.998,1.184-5.697,1.464-8.086c0.179-1.527,0.268-2.919,0.28-4.189h-3.16c-0.286,1.324-0.627,2.724-1.025,4.189v0
	c-0.478,1.758-1.034,3.613-1.678,5.574c-0.3,0.88-0.595,1.715-0.901,2.512h0.001c-2.811,7.405-5.852,11.155-9,11.155
	c0.142,0-2.371-2.509-7.248-7.671c2.439-0.946,4.632-2.113,6.567-3.484h-0.001c3.061-2.172,5.486-4.871,7.284-8.086
	c0.731-1.312,1.359-2.711,1.884-4.189h-3.915c-0.443,0.739-0.946,1.482-1.498,2.234c-0.541,0.73-1.106,1.383-1.687,1.955h0
	c-1.973,1.932-4.178,2.957-6.554,3.065c-0.382-1.226-0.677-2.247-0.885-3.065h0.001c-0.244-0.959-0.365-1.649-0.365-2.097
	c0-0.765,0.059-1.462,0.175-2.093h-2.758c-0.037,0.407-0.07,0.756-0.07,0.976c0,0.245,0.149,1.313,0.411,3.214h-0.001
	c0.187,1.317,0.428,3.041,0.714,5.154c-1.254,0.702-1.956,0.976-2.238,0.976c-2.089,0-3.625-0.976-4.88-2.782
	c-0.631-1.001-1.088-2.118-1.333-3.348c-0.132-0.668-0.203-1.361-0.202-2.097c0-0.673,0.066-1.366,0.19-2.093h-1.453
	c-0.15,1.068-0.266,2.031-0.266,2.645c0,0.528,0.046,1.043,0.125,1.545c0.672,4.141,3.999,7.243,8.102,7.243
	c5.304,0,9.9-1.948,13.663-5.714c-2.105,2.969-4.239,5.149-6.416,6.557h0c-2.01,1.301-4.058,1.948-6.134,1.948
	c-2.305,0-4.377-0.722-6.059-1.948h-0.001c-2.492-1.815-4.128-4.741-4.361-8.085h0.001c-0.02-0.277-0.033-0.556-0.033-0.843
	c0-1.146,0.086-2.267,0.25-3.347h-2.339c-0.166,1.49-0.257,2.881-0.282,4.189h-0.001l-0.008,0.694c0,3.028,0.87,5.329,2.733,7.392
	c1.32,1.454,3.135,2.795,5.498,4.178c2.513,1.533,4.602,3.073,6.141,4.61c0.712,0.813,1.355,1.624,2.028,2.441h9.74
	c0.881-1.889,2.068-4.422,3.576-7.608c0.627-1.274,1.208-2.487,1.739-3.621h-0.001c1.576-3.33,2.75-6.042,3.53-8.086h0
	c0.49-1.291,0.822-2.312,1.005-3.068c-0.099,0.971-0.22,1.989-0.369,3.068h0c-0.341,2.413-0.839,5.1-1.499,8.085h0
	c-0.354,1.587-0.756,3.26-1.204,5.021c-0.611,2.4-1.215,4.469-1.828,6.208h1.382v0.001C543.773,75.326,543.964,74.699,544.163,74.05
	z M480.591,29.848L480.591,29.848c0.249,0.332,0.474,0.66,0.677,0.979c3.214,4.876,5.162,7.671,5.864,8.364
	c2.509,2.649,5.433,4.045,8.921,4.045c1.391,0,3.352-0.278,5.719-0.702c3.484-0.693,5.444-0.975,5.855-1.112
	c0.876,1.632,2.209,3.039,4.194,4.115v-0.001h9.686c-7.684-1.441-13.178-7.234-13.178-15.416v-0.273h-0.001v-1.046v-1.88
	c0-0.205,0.022-0.461,0.059-0.769h-4.963c-1.03,0.424-2.368,0.631-4.02,0.631c-1.803,0-3.34-0.199-4.535-0.631h-5.175
	c-0.44,0.901-0.752,1.781-0.942,2.649h-0.001c-0.083,0.354-0.142,0.697-0.179,1.047c-0.033,0.328-0.054,0.651-0.054,0.979
	c0,4.597,4.468,8.784,9.348,8.784c1.538,0,4.328-0.561,8.647-1.674c-1.675,1.533-4.46,2.226-8.364,2.226
	c-3.073,0-5.726-0.835-7.815-2.367c-2.367-1.669-3.621-4.049-3.621-6.969c0-0.328,0.019-0.651,0.052-0.979h-0.001
	c0.035-0.35,0.093-0.693,0.168-1.047c0.187-0.872,0.494-1.752,0.927-2.649h-1.961c-0.491,0.846-0.96,1.731-1.4,2.649l-0.295,0.627
	c-0.112-0.141-0.274-0.349-0.494-0.627h0.001c-0.465-0.577-1.188-1.453-2.185-2.649h-4.456c1.034,0.921,1.927,1.801,2.671,2.649
	h-0.001C480.046,29.155,480.333,29.507,480.591,29.848z M512.505,45.89c-0.518,2.371-0.879,4.55-1.104,6.548h2.338
	c0.313-2.061,0.922-3.979,1.839-5.719c0,1.2-0.419,3.658-0.71,5.719h1.453c0.284-1.686,0.89-3.53,1.772-5.578
	c0.97,0.424,2.225,0.561,4.043,0.561c1.254,0,1.807,0.835,1.807,2.372c0,0.665-0.129,1.778-0.212,2.646h2.758
	c0.448-2.459,1.757-3.875,3.87-4.323c4.295-0.86,7.189-1.716,8.775-2.579h-10.636c-1.27,0.232-2.329,0.353-3.16,0.353
	c-1.325,0-2.604-0.121-3.833-0.353h-9.684h-0.001C512.04,45.657,512.265,45.777,512.505,45.89z M492.846,21.62
	c-1.382,1.55-2.429,3.056-3.152,4.531h5.175c-0.57-0.199-1.055-0.452-1.463-0.768c1.284-1.404,2.509-2.659,3.68-3.763
	c2.567-2.429,4.859-4.136,6.898-5.095h-5.581C496.176,18.265,494.325,19.963,492.846,21.62z M509.382,21.62
	c0.379-1.444,0.865-3.143,1.454-5.095h-3.298c-0.419,1.682-0.797,3.405-1.199,5.095c-0.167,0.702-0.341,1.396-0.52,2.085
	c-0.382,1.137-1.171,1.943-2.396,2.446h4.963C508.515,25.163,508.847,23.643,509.382,21.62z M0.091,21.62
	c0.079,1.288,0.216,2.787,0.394,4.531h0.001l0.216,2.163L0.756,28.8h5.477c0.27-0.889,0.557-1.77,0.86-2.649
	c0.528-1.524,1.109-3.036,1.74-4.531l0.237-0.552l1.445,0.552h0.005l0.365,0.14c-0.677,1.42-1.291,2.882-1.852,4.39h1.32
	c0.56-1.279,1.163-2.367,1.786-3.276c0.694,0.141,1.113,0.702,1.113,1.395c-0.267,0.628-0.516,1.25-0.748,1.882h5.017
	c-1.57-1.881-2.94-3.397-4.145-4.533h-0.001c-1.88-1.78-3.345-2.651-4.446-2.651c-1.055,0-2.001,0.885-2.783,2.653
	c-0.145,0.337-0.29,0.71-0.423,1.113c-0.44,1.142-0.822,2.28-1.188,3.418c-0.211,0.677-0.419,1.35-0.627,2.026
	c-0.153-0.71-0.291-1.387-0.415-2.026H3.492c-0.345-1.77-0.577-3.285-0.66-4.531c-0.025-0.345-0.038-0.673-0.038-0.976
	c0-2.142,0-3.514,0.121-4.119H2.914l0.017-0.07c0.419-1.532,1.254-2.367,2.649-2.367c1.595,0,3.737,0.802,6.433,2.439h0.002
	c1.794,1.095,3.833,2.557,6.12,4.4c0.291,0.232,0.582,0.465,0.86,0.693c1.993,1.632,3.675,3.143,5.05,4.531h3.908
	c-2.01-1.545-3.812-3.056-5.403-4.531c-1.877-1.744-3.459-3.442-4.752-5.094h-0.001c-2.375-3.041-3.757-5.922-4.152-8.642H11.15
	c0.407,1.951,1.159,4.463,1.258,5.373c-4.037-1.399-6.827-2.101-8.082-2.101c-2.392,0-3.758,1.765-4.182,5.37h0.001
	C0.05,17.34,0,18.248,0,19.249C0,19.942,0.033,20.728,0.091,21.62z M34.029,68.893c2.367-1.383,4.186-2.724,5.507-4.178
	c1.865-2.063,2.729-4.364,2.729-7.392l-0.004-0.694H42.26c-0.029-1.308-0.116-2.699-0.282-4.189H39.64
	c0.162,1.08,0.241,2.201,0.241,3.347c0,0.287-0.004,0.566-0.025,0.843h0.001c-0.237,3.344-1.869,6.27-4.365,8.085h-0.001
	c-1.682,1.226-3.758,1.948-6.059,1.948c-2.077,0-4.124-0.647-6.13-1.948c-2.18-1.407-4.319-3.588-6.421-6.557
	c3.767,3.766,8.36,5.714,13.663,5.714c4.103,0,7.434-3.102,8.103-7.243h0c0.083-0.502,0.124-1.017,0.124-1.545
	c0-0.615-0.113-1.578-0.262-2.645H37.06c0.125,0.727,0.183,1.42,0.183,2.093c0,0.736-0.066,1.429-0.199,2.097
	c-0.24,1.23-0.706,2.347-1.337,3.348c-1.254,1.806-2.791,2.782-4.88,2.782c-0.282,0-0.984-0.274-2.238-0.976
	c0.286-2.113,0.531-3.837,0.714-5.154c0.266-1.901,0.411-2.969,0.41-3.214c0-0.22-0.024-0.57-0.066-0.976h-2.753
	c0.112,0.631,0.166,1.328,0.166,2.093c0,0.449-0.12,1.138-0.361,2.097c-0.208,0.818-0.507,1.839-0.889,3.065
	c-2.375-0.108-4.576-1.133-6.549-3.065h0c-0.586-0.572-1.15-1.225-1.69-1.955c-0.552-0.752-1.051-1.495-1.495-2.234h-3.912
	c0.523,1.478,1.15,2.878,1.881,4.189h0c1.799,3.215,4.224,5.914,7.289,8.086c1.931,1.371,4.115,2.538,6.562,3.484
	c-4.88,5.162-7.392,7.671-7.247,7.671c-3.152,0-6.188-3.75-9.004-11.155h-0.001c-0.303-0.797-0.602-1.632-0.9-2.512
	c-0.644-1.961-1.2-3.816-1.678-5.574c-0.395-1.465-0.735-2.865-1.023-4.189H4.879c0.017,1.27,0.109,2.662,0.287,4.189
	c0.278,2.389,0.764,5.088,1.466,8.086h0c0.664,2.85,1.516,5.967,2.575,9.335c0.203,0.649,0.402,1.276,0.585,1.894h1.388
	c-0.611-1.739-1.222-3.807-1.832-6.209c-0.448-1.761-0.847-3.434-1.2-5.021h0c-0.665-2.985-1.154-5.672-1.499-8.085
	c-0.154-1.079-0.278-2.096-0.374-3.068c0.178,0.756,0.519,1.777,1.009,3.068c0.781,2.044,1.956,4.756,3.526,8.086
	c0.536,1.134,1.113,2.347,1.74,3.621c1.507,3.186,2.703,5.719,3.58,7.608h9.739c0.672-0.817,1.316-1.628,2.026-2.441
	C29.432,71.966,31.52,70.426,34.029,68.893z M24.266,16.525L24.266,16.525c1.598,1.557,3.575,3.26,5.93,5.095h-0.001
	c0.98,0.764,2.027,1.553,3.14,2.367c-0.071,0.64-0.249,1.346-0.536,2.164h2.517c0.254-0.993,0.391-2.039,0.39-3.135
	c0-0.349-0.042-0.819-0.133-1.396h0.001c-0.187-1.217-0.577-2.94-1.2-5.094H31.65c0.564,0.68,0.847,1.357,0.847,2.03
	c0,0.27,0,0.551-0.142,0.693c-2.106-0.777-3.505-1.732-4.273-2.724h0.001c-0.2-0.254-0.353-0.503-0.469-0.765
	c1.254-0.698,1.96-0.972,1.96-0.972c0.897,0.581,1.591,1.158,2.077,1.736h2.724c-0.149-0.512-0.312-1.043-0.486-1.604
	c0.141-0.693,0.565-1.113,1.117-1.113h2.79c0.054,0.586,0.336,1.595,0.656,2.717h2.11c-0.191-1.035-0.399-2.061-0.399-2.439
	l1.541-0.278c0.295,0.951,0.577,1.861,0.834,2.717h3.302l-0.233-0.901c1.15-0.046,2.409,0.257,3.788,0.901h5.578
	c-0.324-0.254-0.661-0.503-1.001-0.765c0.631,0.212,1.258,0.47,1.877,0.765h2.971c-5.449-3.845-12.316-5.78-20.605-5.78
	c-1.391,0-3.621,0.553-6.553,1.536c-2.932,0.976-5.162,1.528-6.699,1.528c-0.552,0-1.113-0.273-1.528-0.693
	c1.117-1.258,3.347-2.371,6.69-3.348c2.42-0.677,4.844-1.212,7.264-1.884h0.004l0.262-0.07h8.646c0.498,0,1.029,0.02,1.59,0.07
	h0.008c3.691,0.317,8.772,1.675,15.421,3.974c4.422,1.594,7.719,3.151,9.862,4.668h0.002c1.978,1.403,2.97,2.777,2.97,4.119
	c0,0.174-0.166,0.49-0.514,0.975h-0.003c-0.49,0.677-1.338,1.687-2.559,3.069l-1.226,1.462h4.458v0.001l0.395-0.345
	c1.876-1.743,3.226-3.093,4.077-4.186h0.001l0.107-0.146c3.63-0.689,5.437-1.947,5.437-3.903c0-0.391,0.017-0.739,0.054-1.046H86.38
	c0.108-0.885,0.369-1.43,0.785-1.736c1.807,0.693,3.767,0.972,5.856,0.972c2.932,0,6.275-0.698,10.183-1.952
	c3.206-1.117,6.558-2.23,9.76-3.488c5.444-1.113,9.489-1.807,12.271-1.943c0.453-0.096,0.951-0.262,1.491-0.494h-12.21l-2.808,0.764
	c-10.319,2.65-16.316,4.045-17.981,4.045c-2.102,0-7.957-1.112-17.575-3.484c-2.089-0.49-4.107-0.93-6.063-1.324h-9.722
	c3.982,0.885,7.869,1.678,11.881,2.579c6.545,1.678,9.896,3.483,9.896,5.299c0,0.277-0.041,0.53-0.12,0.763
	c-0.12,0.351-0.328,0.659-0.576,0.903l-2.072-0.904h-0.002c-9.107-3.966-15.635-6.911-19.485-8.643h-0.002l-0.472-0.211l0.951,0.212
	h9.722C62.273,6.305,55.57,5.494,50.064,5.441h-1.175C43.167,5.494,37.388,6.296,31.55,7.882h-0.004
	c-3.061,0.826-6.138,1.877-9.232,3.144c1.205-1.204,2.661-2.267,4.396-3.143h0.001c1.691-0.856,3.654-1.537,5.922-2.022
	c0.548-0.142,1.163-0.286,1.832-0.42h-8.933c-0.71,0.162-1.549,0.349-2.517,0.565c-1.964,0.432-3.156,1.033-3.584,1.877h0.001
	c-0.12,0.232-0.183,0.489-0.183,0.763C19.249,10.64,20.931,13.281,24.266,16.525z M62.347,21.616v0.004
	c1.408,1.545,2.459,3.052,3.173,4.531h1.956c-0.955-1.64-2.006-3.147-3.16-4.531c-1.632-1.964-3.464-3.663-5.494-5.095h-2.974
	C58.103,17.621,60.267,19.315,62.347,21.616z M0.86,29.848C1.154,33,1.254,35.429,1.254,37.244c0,2.163,0.004,4.925-0.017,8.293
	h0.001c-0.017,2.072-0.042,4.373-0.084,6.902l-0.041,2.375l-0.029,1.814H3.21l0.15-4.189c0.1-2.758,0.191-5.059,0.27-6.902H3.629
	c0.125-2.887,0.212-4.672,0.278-5.374c0.374-3.479,1.059-6.931,2.019-10.315c0.1-0.35,0.203-0.698,0.307-1.047H0.756L0.86,29.848z
	 M58.822,16.524H58.82c0.001,0,0.001,0.001,0.002,0.001V16.524z M1.537,7.883c0.386,0.689,0.897,1.175,1.536,1.466
	c2.226,0.419,4.456,0.693,6.827,1.113L9.627,7.883L9.361,5.44C9.169,3.684,9.07,2.85,9.07,2.933V2.509
	C6.562,1.674,4.743,1.255,3.767,1.255H0.972c-0.124,0.56-0.27,1.395-0.27,2.371c0,0.664,0.037,1.271,0.108,1.814
	C0.943,6.441,1.184,7.247,1.537,7.883z M21.621,79.213c1.254-0.141,2.367-0.972,3.484-2.367c0.262-0.299,0.515-0.602,0.765-0.901
	h-9.74c1.246,2.654,1.865,4.032,1.865,4.116c0,1.807-0.702,2.782-1.96,2.782c-1.615,0-3.235-2.284-4.855-6.898H9.792
	c2.533,8.327,3.733,14.112,3.733,17.355c0,2.089-0.693,5.162-1.948,9.065c-1.815,5.437-2.932,8.368-3.073,9.07
	c-0.553,3.488-1.117,6.831-1.807,10.174c-0.976,4.747-1.956,7.813-3.069,9.207v-3.483c0-0.424,0.557-1.117,0.557-1.537v-7.675
	c0-1.112,0.693-4.045,0.693-5.162V91.352c0-2.238-0.693-8.094-0.693-10.319c0-1.113-0.557-3.626-0.557-4.743v-0.345H3.63V64.998
	c0-0.084-0.004-0.179-0.012-0.283H3.617c-0.079-1.117-0.544-3.293-0.544-4.185l0.137-3.9H1.084v-0.001
	c-0.054,3.003-0.112,5.707-0.154,8.086v0c-0.05,2.986-0.083,5.461-0.083,7.393c0,1.096,0.013,2.375,0.042,3.837v-0.001
	C0.96,79.113,1.109,83.133,1.395,88c0.424,6.981,0.565,12.14,0.565,15.624c0,0-0.282,10.323-0.988,31.101
	c2.795,0,5.727-2.936,6.84-5.855c0.976-3.215,2.649-9.207,4.884-17.994c2.646-9.623,3.904-15.341,3.904-17.006
	c0-2.385-0.282-4.896-0.972-7.264C18.83,85.629,20.927,83.258,21.621,79.213z M11.15,7.884L11.15,7.884
	C11.15,7.884,11.15,7.883,11.15,7.884L11.15,7.884z M130.957,0c-1.536,0-3.903,0.279-7.109,0.844
	c-3.215,0.411-5.582,0.693-6.978,0.693L57.456,0.702C53.56,0.561,45.47,0.984,33.053,1.815c-1.532,0.142-3.621-0.142-6.553-0.698
	c-2.932-0.557-5.025-0.838-6.275-0.838c-5.96,0-9.02,1.765-9.315,5.161c-0.017,0.183-0.025,0.374-0.025,0.565
	c0,0.461,0.108,1.125,0.266,1.877h2.496c-0.079-0.544-0.121-1.076-0.121-1.607c0-0.303,0.112-0.577,0.32-0.835
	c0.469-0.568,1.449-1.05,2.894-1.536c1.533-0.411,3.061-0.549,4.456-0.549c3.214,0,5.585,0.407,6.977,1.392
	c-0.096,0.092-1.009,0.324-2.642,0.693h8.933c2.55-0.507,5.939-0.917,10.029-1.25c4.597-0.428,6.686-0.564,6.417-0.564l36.541,0.278
	c1.521,0,5.569,0.701,7.247,0.565c17.857-0.141,29.419-0.706,34.863-1.396c-0.839,0.532-3.007,1.313-6.49,2.367h0.001
	c-2.284,0.694-5.146,1.508-8.556,2.442h12.21v0.001c1.113-0.482,2.4-1.263,3.808-2.301l0.191-0.142h-0.001
	c1.977-1.478,3.023-2.828,3.023-4.045c0.002-0.551-0.14-0.975-0.277-1.395H130.957z M5.099,45.537
	c-0.149,2.143-0.22,4.353-0.22,6.628v0.274h3.165c-0.548-2.558-0.88-4.859-1.01-6.902h0.001c-0.037-0.602-0.054-1.187-0.054-1.748
	c0-3.207,0.407-6.828,1.25-10.873c0.237-1.088,0.507-2.109,0.789-3.068c0.104-0.358,0.216-0.706,0.328-1.047
	c0.316-0.955,0.652-1.84,1.005-2.649h-1.32c-0.325,0.872-0.628,1.753-0.91,2.649c-0.112,0.349-0.216,0.697-0.32,1.047h0.001
	C6.379,34.644,5.478,39.864,5.099,45.537L5.099,45.537z M10.557,45.537c0.32,2.47,0.86,4.775,1.607,6.902h3.912
	c-1.387-2.304-2.218-4.568-2.388-6.902l-0.021-0.354c0.166,0.122,0.361,0.238,0.573,0.354c1.587,0.863,4.481,1.719,8.775,2.579
	c2.114,0.448,3.431,1.864,3.879,4.323h2.753c-0.083-0.868-0.216-1.981-0.216-2.646c0-1.537,0.548-2.372,1.806-2.372
	c1.815,0,3.073-0.137,4.045-0.561c0.88,2.048,1.491,3.892,1.777,5.578h1.449c-0.291-2.061-0.714-4.519-0.714-5.719
	c0.918,1.74,1.533,3.658,1.844,5.719h2.34c-0.229-1.998-0.594-4.177-1.109-6.548c0.237-0.113,0.474-0.233,0.693-0.353h-9.688
	c-1.225,0.232-2.513,0.353-3.837,0.353c-0.826,0-1.881-0.121-3.156-0.353H24.88c-1.524-0.278-3.36-0.719-5.49-1.326
	c-4.469-1.254-6.695-2.653-6.695-3.907V39.05c1.533-0.141,2.509,0.141,2.787,0.561c3.626,0.694,5.856,0.971,6.558,0.971
	c5.436,0,10.042-2.366,13.667-6.968c0.976-1.209,1.809-2.466,2.507-3.766h0.001c0.183-0.345,0.361-0.694,0.523-1.047
	c0.403-0.86,0.752-1.744,1.038-2.649h-0.963c-0.307,0.884-0.698,1.773-1.171,2.649c-0.183,0.349-0.386,0.696-0.597,1.046h-0.001
	c-0.752,1.221-1.666,2.434-2.733,3.629c-3.625,3.904-7.529,5.851-11.578,5.851c-4.739,0-8.082-0.972-10.038-2.791v-2.923
	c5.158,1.392,8.231,2.089,9.207,2.089c4.991,0,9.334-2.247,11.76-5.854h0.002c0.224-0.337,0.436-0.686,0.628-1.047h-0.001
	c0.44-0.826,0.785-1.711,1.025-2.649h-2.517c-0.274,0.776-0.643,1.648-1.108,2.649h0.001l-0.029,0.07l-0.096-0.07h-0.001
	c-1.271-0.893-2.475-1.778-3.613-2.649h-3.908c0.93,0.942,1.72,1.827,2.363,2.649h0.001c0.283,0.361,0.535,0.709,0.763,1.046h0
	c0.432,0.643,0.769,1.25,1.001,1.81c-1.674,1.114-2.932,1.678-3.904,1.678c-0.295,0-1.474-1.163-3.542-3.488h-0.001l-0.92-1.046
	h-0.001c-0.669-0.764-1.416-1.624-2.234-2.583l-0.05-0.066h-5.017c-0.324,0.879-0.611,1.76-0.864,2.649h0.001
	c-0.1,0.349-0.196,0.697-0.283,1.047h0.001c-0.793,3.135-1.175,6.366-1.175,9.763C10.184,41.687,10.308,43.66,10.557,45.537z
	 M45.749,41.422c0.411,0.137,2.371,0.419,5.855,1.112c2.367,0.424,4.327,0.702,5.719,0.702c3.488,0,6.407-1.396,8.92-4.045
	c0.702-0.693,2.649-3.488,5.86-8.364c0.207-0.319,0.432-0.647,0.685-0.979c0.262-0.341,0.544-0.693,0.855-1.047
	c0.739-0.848,1.628-1.728,2.667-2.649h-4.457c-0.996,1.196-1.719,2.072-2.184,2.649c-0.225,0.278-0.391,0.486-0.494,0.627
	l-0.295-0.627c-0.444-0.918-0.91-1.803-1.405-2.649h-1.956c0.433,0.897,0.743,1.777,0.927,2.649
	c0.078,0.354,0.133,0.697,0.166,1.047h0.001c0.037,0.328,0.054,0.651,0.054,0.979c0,2.92-1.259,5.3-3.63,6.969
	c-2.089,1.532-4.738,2.367-7.811,2.367c-3.903,0-6.686-0.693-8.364-2.226c4.319,1.113,7.11,1.674,8.646,1.674
	c4.879,0,9.348-4.187,9.348-8.784c0-0.328-0.017-0.651-0.054-0.979c-0.038-0.35-0.096-0.694-0.171-1.047
	c-0.195-0.868-0.51-1.748-0.946-2.65c-0.719-1.475-1.774-2.981-3.152-4.531c-1.475-1.657-3.326-3.355-5.561-5.095h-5.578
	c2.039,0.959,4.332,2.666,6.898,5.095h0.001c1.167,1.104,2.393,2.359,3.671,3.763c-0.401,0.316-0.883,0.568-1.447,0.768h-0.003
	c-1.196,0.432-2.741,0.631-4.543,0.631c-1.657,0-2.99-0.207-4.016-0.631c-1.225-0.503-2.018-1.308-2.401-2.446
	c-0.179-0.689-0.349-1.383-0.515-2.085h0.001c-0.403-1.69-0.781-3.413-1.2-5.095h-3.302c0.59,1.952,1.076,3.651,1.458,5.095h-0.001
	c0.536,2.022,0.865,3.543,0.993,4.531c0.038,0.308,0.058,0.565,0.058,0.769v1.881h0.001v1.046h-0.002v0.273
	c0,8.182-5.494,13.975-13.173,15.416h9.69v0.001C43.539,44.461,44.872,43.054,45.749,41.422z M38.813,26.151h0.963
	c0.466-1.454,0.781-2.966,0.947-4.531c0.1-0.913,0.146-1.844,0.146-2.794c0-0.512-0.149-1.412-0.307-2.301h-2.11
	c0.523,1.818,1.163,3.92,1.163,4.949v0.146C39.598,23.131,39.328,24.643,38.813,26.151z M41.978,52.438L41.978,52.438
	c0,0,0,0.001,0,0.001V52.438z"/>
</svg>
