<?xml version="1.0" encoding="utf-8"?><!DOCTYPE svg PUBLIC "-//W3C//DTD SVG 1.1//EN" "http://www.w3.org/Graphics/SVG/1.1/DTD/svg11.dtd"><svg version="1.1" baseProfile="full" xmlns="http://www.w3.org/2000/svg" xmlns:xlink="http://www.w3.org/1999/xlink" xmlns:ev="http://www.w3.org/2001/xml-events"   height="74px"   width="234px" ><path stroke="rgb( 14, 5, 10 )" stroke-width="0px" stroke-linecap="butt" stroke-linejoin="miter" fill="rgb( 219, 0, 0 )" d="M224.526,67.214 C224.526,67.214 224.526,37.56 224.526,37.56 C224.526,37.56 208.421,64.345 208.421,64.345 C208.421,64.345 191.368,37.56 191.368,37.56 C191.368,37.56 191.368,67.214 191.368,67.214 C191.368,67.214 182.842,67.214 182.842,67.214 C182.842,67.214 182.842,16.516 182.842,16.516 C182.842,16.516 191.368,16.516 191.368,16.516 C191.368,16.516 208.421,45.213 208.421,45.213 C208.421,45.213 224.526,16.516 224.526,16.516 C224.526,16.516 234,16.516 234,16.516 C234,16.516 234,67.214 234,67.214 C234,67.214 224.526,67.214 224.526,67.214 ZM152.855,71.154 C138.264,71.154 126.435,58.411 126.435,42.692 C126.435,26.973 138.264,14.231 152.855,14.231 C167.446,14.231 179.274,26.973 179.274,42.692 C179.274,58.411 167.446,71.154 152.855,71.154 ZM152.855,23.718 C142.954,23.718 134.927,32.213 134.927,42.692 C134.927,53.172 142.954,61.667 152.855,61.667 C162.756,61.667 170.782,53.172 170.782,42.692 C170.782,32.213 162.756,23.718 152.855,23.718 ZM90.9469999999999,39.474 C90.9469999999999,64.511 112.278,59.141 119.368,53.822 C119.368,53.822 125.053,59.562 125.053,59.562 C125.053,59.562 121.517,69.421 105.158,69.127 C105.158,69.127 77.0050000000001,65.213 81.4739999999999,37.56 C81.4739999999999,37.56 88.4770000000001,0 126,21.299 C126,21.299 121.263,27.995 121.263,27.995 C121.263,27.995 90.9469999999999,14.436 90.9469999999999,39.474 ZM76.4269999999999,67.359 C73.3009999999999,67.359 70.7660000000001,64.81 70.7660000000001,61.667 C70.7660000000001,58.523 73.3009999999999,55.974 76.4269999999999,55.974 C79.5540000000001,55.974 82.0889999999999,58.523 82.0889999999999,61.667 C82.0889999999999,64.81 79.5540000000001,67.359 76.4269999999999,67.359 ZM36.947,67.214 C36.947,67.214 28.421,67.214 28.421,67.214 C28.421,67.214 28.421,13.646 28.421,13.646 C28.421,13.646 37.895,13.646 37.895,13.646 C70.751,13.646 67.2629999999999,41.387 67.2629999999999,41.387 C67.2629999999999,74 36.947,67.214 36.947,67.214 ZM37.895,23.212 C37.895,23.212 37.895,57.649 37.895,57.649 C37.895,57.649 59.684,59.281 59.684,40.43 C59.684,40.43 59.4939999999999,23.212 37.895,23.212 ZM0,68.171 C0,68.171 0,59.562 0,59.562 C0,59.562 13.263,58.824 13.263,44.257 C13.263,29.689 12.316,13.646 12.316,13.646 C12.316,13.646 22.737,13.646 22.737,13.646 C22.737,13.646 22.737,54.779 22.737,54.779 C22.737,54.779 20.885,68.171 0,68.171 Z "/></svg>