<?xml version="1.0" encoding="iso-8859-1"?>
<!-- Generator: Adobe Illustrator 17.0.0, SVG Export Plug-In . SVG Version: 6.00 Build 0)  -->
<!DOCTYPE svg PUBLIC "-//W3C//DTD SVG 1.1//EN" "http://www.w3.org/Graphics/SVG/1.1/DTD/svg11.dtd">
<svg version="1.1" id="Objects" xmlns="http://www.w3.org/2000/svg" xmlns:xlink="http://www.w3.org/1999/xlink" x="0px" y="0px"
	 width="121.281px" height="293.316px" viewBox="0 0 121.281 293.316" style="enable-background:new 0 0 121.281 293.316;"
	 xml:space="preserve">
<g>
	<g>
		<path style="fill:#D94828;" d="M77.852,145.635c0,9.506-17.211,147.681-17.211,147.681S43.428,155.141,43.428,145.635
			c-10.21-7.359,7.706-17.388,17.212-17.388C70.147,128.247,85.721,141.696,77.852,145.635z"/>
		<path style="fill:#F7AB33;" d="M72.395,133.88c0,6.492-11.754,96.113-11.754,96.113s-11.755-89.622-11.755-96.113
			c0-6.492,5.263-11.755,11.755-11.755C67.132,122.126,72.395,127.388,72.395,133.88z"/>
		<g>
			<g>
				<path style="fill:#2B3C66;" d="M17.266,167.165c0-22.43,18.183-60.958,40.613-60.958c8.528,0,16.441,2.631,22.975,7.122
					c-2.683-19.83-19.675-35.117-40.241-35.117C18.183,78.212,0,105.422,0,127.852c0,13.901,8.906,34.116,17.638,44.809
					C17.394,170.863,17.266,169.029,17.266,167.165z"/>
				<path style="opacity:0.1;" d="M40.612,78.212c-10.687,0-20.407,6.179-27.659,15.073c1.222,15.392,4.609,33.079,9.81,48.235
					c7.037-18.109,20.127-35.313,35.115-35.313c8.528,0,16.441,2.631,22.975,7.122C78.171,93.499,61.179,78.212,40.612,78.212z"/>
				<path style="fill:#2B3C66;" d="M104.015,167.165c0-22.43-18.183-60.958-40.613-60.958c-8.528,0-16.441,2.631-22.975,7.122
					c2.683-19.83,19.675-35.117,40.241-35.117c22.429,0,40.613,27.209,40.613,49.639c0,13.901-8.906,34.116-17.638,44.809
					C103.887,170.863,104.015,169.029,104.015,167.165z"/>
				<path style="opacity:0.1;" d="M104.015,167.165c0-22.43-18.183-60.958-40.613-60.958c-8.528,0-16.441,2.631-22.975,7.122
					c2.683-19.83,19.675-35.117,40.241-35.117c22.429,0,40.613,27.209,40.613,49.639c0,13.901-8.906,34.116-17.638,44.809
					C103.887,170.863,104.015,169.029,104.015,167.165z"/>
			</g>
			<path style="fill:#FFFFFF;" d="M60.641,133.88c7.361,0,14.214,2.151,19.985,5.848c9.856-14.522,15.623-42.634,15.623-61.508
				c0-29.384-13.962-61.624-35.609-78.22C38.994,16.596,25.031,48.835,25.031,78.22c0,18.874,5.767,46.986,15.623,61.508
				C46.426,136.032,53.279,133.88,60.641,133.88z"/>
			<circle style="opacity:0.2;" cx="60.64" cy="45.094" r="17.482"/>
			<circle style="fill:#3D548F;" cx="60.64" cy="42.918" r="17.482"/>
			<circle style="fill:#5EB3DB;" cx="60.64" cy="42.918" r="12.222"/>
			<circle style="opacity:0.2;fill:#FFFFFF;" cx="56.809" cy="39.087" r="6.007"/>
			<path style="fill:#C7C7C7;" d="M60.641,108.604c-10.891,0-21.113,2.856-29.964,7.856c2.554,8.997,5.918,17.286,9.978,23.268
				c5.771-3.696,12.625-5.848,19.986-5.848c7.361,0,14.214,2.151,19.985,5.848c4.06-5.982,7.424-14.271,9.978-23.268
				C81.753,111.46,71.531,108.604,60.641,108.604z"/>
			<path style="opacity:0.1;" d="M60.641,133.88c7.361,0,14.214,2.151,19.985,5.848c9.856-14.522,15.623-42.634,15.623-61.508
				c0-29.384-13.962-61.624-35.609-78.22V133.88z"/>
			<path style="fill:#1A243D;" d="M60.641,129.102c-13.391,0-24.247,4.345-24.247,9.704c0,2.664,2.684,5.076,7.027,6.83
				c-0.499-0.66-0.77-1.36-0.77-2.087c0-3.976,8.054-7.199,17.99-7.199c9.936,0,17.99,3.223,17.99,7.199
				c0,0.727-0.272,1.427-0.77,2.087c4.343-1.754,7.027-4.166,7.027-6.83C84.887,133.446,74.031,129.102,60.641,129.102z"/>
			<path style="fill:#2B3C66;" d="M66.605,88.974c0,3.294-5.964,83.51-5.964,83.51s-5.965-80.216-5.965-83.51
				c0-3.294,2.67-5.964,5.965-5.964C63.935,83.01,66.605,85.68,66.605,88.974z"/>
		</g>
	</g>
</g>
<g>
</g>
</svg>
