<?xml version="1.0" encoding="utf-8"?>
<!-- Generator: Adobe Illustrator 17.0.0, SVG Export Plug-In . SVG Version: 6.00 Build 0)  -->
<!DOCTYPE svg PUBLIC "-//W3C//DTD SVG 1.1//EN" "http://www.w3.org/Graphics/SVG/1.1/DTD/svg11.dtd">
<svg version="1.1" id="_x31_200_x__x_800_px" xmlns="http://www.w3.org/2000/svg" xmlns:xlink="http://www.w3.org/1999/xlink"
	 x="0px" y="0px" width="190.299px" height="190.299px" viewBox="0 0 190.299 190.299" enable-background="new 0 0 190.299 190.299"
	 xml:space="preserve">
<g>
	<rect x="0.04" y="95.15" fill="#FFAC33" width="6" height="4"/>
</g>
<g>
	<rect x="93.04" y="184.15" fill="#FFAC33" width="4" height="6"/>
</g>
<path fill="#FFAC33" d="M182.822,58.113c-4.792-11.33-11.653-21.506-20.391-30.244c-8.738-8.738-18.914-15.599-30.244-20.391
	C120.456,2.516,107.995,0,95.149,0C82.305,0,69.844,2.516,58.113,7.477C46.783,12.27,36.607,19.13,27.869,27.869
	C19.131,36.607,12.27,46.783,7.478,58.113C2.516,69.844,0,82.305,0,95.149c0,12.845,2.516,25.306,7.478,37.037
	c4.792,11.33,11.653,21.506,20.391,30.244c8.738,8.738,18.914,15.599,30.244,20.391c11.73,4.962,24.191,7.477,37.036,7.477
	c12.845,0,25.306-2.516,37.037-7.477c11.33-4.792,21.506-11.653,30.244-20.391c8.738-8.738,15.599-18.914,20.391-30.244
	c4.961-11.731,7.477-24.192,7.477-37.037C190.299,82.305,187.783,69.844,182.822,58.113z M178.314,49.755l-4.45,2.308
	c-4.052-7.378-9.161-14.232-15.279-20.35c-3.212-3.212-6.626-6.148-10.211-8.801l2.884-4.092c3.832,2.824,7.467,5.935,10.876,9.344
	C168.583,34.612,173.998,41.85,178.314,49.755z M158.29,158.29c-16.865,16.865-39.289,26.154-63.141,26.154
	c-23.851,0-46.275-9.288-63.14-26.154c-16.865-16.865-26.154-39.289-26.154-63.14c0-23.851,9.288-46.275,26.154-63.141
	C48.875,15.144,71.298,5.855,95.149,5.855c23.852,0,46.275,9.288,63.141,26.154c16.866,16.866,26.154,39.289,26.154,63.141
	C184.444,119.001,175.156,141.424,158.29,158.29z M58.276,7.863C69.312,3.195,80.997,0.705,93.04,0.444V5.15h4V0.442
	c12.121,0.235,23.881,2.725,34.983,7.421c5.651,2.39,11.013,5.298,16.051,8.698l-2.891,4.103
	c-14.671-9.899-31.942-15.226-50.035-15.226c-17.917,0-35.031,5.221-49.61,14.936l-2.883-4.091
	C47.571,13.005,52.784,10.185,58.276,7.863z M28.165,28.164c3.532-3.532,7.311-6.739,11.296-9.641l2.885,4.094
	c-3.737,2.732-7.296,5.761-10.631,9.097c-7.44,7.44-13.41,15.957-17.769,25.199l-4.401-2.359
	C14.189,44.76,20.434,35.895,28.165,28.164z M0.418,95.149c0-12.789,2.504-25.195,7.444-36.873c0.047-0.111,0.102-0.219,0.149-0.33
	l4.423,2.371c-4.583,10.881-6.998,22.67-6.998,34.832c0,13.645,3.035,26.82,8.769,38.768l-4.445,2.305
	c-0.665-1.382-1.298-2.782-1.898-4.2C2.923,120.344,0.418,107.938,0.418,95.149z M11.399,139.431l4.427-2.296
	c4.142,7.801,9.464,15.028,15.887,21.45c4.533,4.532,9.475,8.501,14.728,11.911l-2.886,4.095
	c-5.517-3.589-10.671-7.737-15.391-12.457C21.417,155.387,15.809,147.769,11.399,139.431z M132.023,182.436
	c-11.679,4.94-24.085,7.444-36.874,7.444c-12.789,0-25.194-2.505-36.873-7.444c-3.949-1.67-7.748-3.608-11.404-5.775l2.89-4.102
	c13.617,8.015,29.17,12.302,45.387,12.302c16.182,0,31.702-4.27,45.297-12.251l2.89,4.103
	C139.709,178.858,135.94,180.78,132.023,182.436z M162.135,162.135c-4.744,4.744-9.928,8.911-15.477,12.512l-2.886-4.095
	c5.285-3.423,10.257-7.409,14.814-11.966c6.048-6.047,11.106-12.816,15.135-20.098l4.449,2.307
	C173.876,148.601,168.514,155.756,162.135,162.135z M182.437,132.023c-0.763,1.803-1.597,3.566-2.464,5.309l-4.439-2.302
	c6.088-12.242,9.329-25.808,9.329-39.88c0-13.972-3.194-27.447-9.199-39.622l4.441-2.303c0.819,1.66,1.608,3.337,2.333,5.051
	c4.682,11.069,7.172,22.792,7.42,34.874h-4.816v4h4.816C189.608,109.232,187.118,120.954,182.437,132.023z M87.586,29.888
	c-0.345-0.017-0.604-0.027-0.775-0.027c0.305-0.035,0.547-0.282,0.726-0.742c0.179-0.459,0.692-1.917,1.541-4.373
	c0.901-2.58,1.352-3.923,1.352-4.029c0-0.247-0.63-2.438-1.888-6.573c-0.159-0.618-0.325-1.237-0.497-1.855
	c-0.199-0.724-0.451-1.263-0.755-1.617c0.702-0.141,1.246-0.212,1.63-0.212c-0.053,0,0.378,0.097,1.292,0.292
	c-0.225,0.159-0.338,0.38-0.338,0.663c0,0.283,0.252,1.281,0.756,2.995c0.477,1.626,0.808,2.642,0.994,3.048
	c0.146-0.247,0.338-0.654,0.576-1.219c0.159-0.406,0.458-1.228,0.895-2.465c0.49-1.413,0.736-2.2,0.736-2.359
	c0-0.141-0.159-0.371-0.477-0.689c0.463-0.176,0.861-0.265,1.192-0.265c0.132,0,0.464,0.071,0.994,0.212
	c-0.199,0.177-0.471,0.486-0.815,0.928c-0.186,0.407-0.669,1.688-1.451,3.843c-0.808,2.226-1.212,3.437-1.212,3.631
	c0,0.195,0.397,1.749,1.192,4.665c0.768,2.827,1.239,4.497,1.412,5.009c0.106,0.283,0.268,0.548,0.487,0.795
	c0.219,0.248,0.348,0.424,0.388,0.53c-0.159-0.018-0.378-0.018-0.656,0c-0.318,0-0.53,0-0.636,0c-0.809,0-1.398-0.062-1.769-0.185
	c0.172-0.406,0.258-0.676,0.258-0.808c0-0.133-0.278-1.153-0.835-3.061c-0.53-1.838-0.881-2.942-1.054-3.313h-0.04
	c-0.04,0-0.073,0.026-0.1,0.079c-0.212,0.46-0.623,1.529-1.232,3.207c-0.649,1.785-0.974,2.801-0.974,3.048
	c0,0.124,0.073,0.407,0.219,0.848c-0.093,0.018-0.212,0.026-0.358,0.026C88.189,29.915,87.931,29.906,87.586,29.888z M96.85,28.987
	c0-0.124,0-0.265,0-0.424c0-0.229-0.01-0.579-0.03-1.047c-0.02-0.468-0.03-0.817-0.03-1.047c0-0.229,0.023-0.565,0.07-1.007
	c0.046-0.442,0.07-0.777,0.07-1.007v-11.98c0-0.318-0.06-0.689-0.179-1.113c-0.146-0.512-0.312-0.777-0.497-0.795
	c1.139-0.159,1.882-0.239,2.227-0.239c0.185,0,0.463,0.071,0.835,0.212c-0.027,0.089-0.146,0.292-0.358,0.61
	c-0.159,0.23-0.238,0.451-0.238,0.663v15.876c0,0.654,0.046,1.122,0.139,1.405c0.159,0.159,0.358,0.442,0.596,0.848
	c-0.172,0.035-0.371,0.053-0.596,0.053c-0.186,0-1.054-0.079-2.604-0.238C96.385,29.597,96.584,29.341,96.85,28.987z
	 M100.885,28.987c0-0.124,0-0.265,0-0.424c0-0.229-0.01-0.579-0.03-1.047c-0.02-0.468-0.03-0.817-0.03-1.047
	c0-0.229,0.023-0.565,0.07-1.007c0.046-0.442,0.07-0.777,0.07-1.007v-11.98c0-0.318-0.06-0.689-0.179-1.113
	c-0.146-0.512-0.312-0.777-0.497-0.795c1.139-0.159,1.882-0.239,2.227-0.239c0.185,0,0.463,0.071,0.834,0.212
	c-0.026,0.089-0.146,0.292-0.358,0.61c-0.159,0.23-0.239,0.451-0.239,0.663v15.876c0,0.654,0.046,1.122,0.139,1.405
	c0.159,0.159,0.358,0.442,0.596,0.848c-0.172,0.035-0.371,0.053-0.596,0.053c-0.186,0-1.053-0.079-2.604-0.238
	C100.42,29.597,100.619,29.341,100.885,28.987z M166.358,90.349h11.98c0.318,0,0.689-0.06,1.113-0.179
	c0.512-0.146,0.777-0.312,0.795-0.497c0.159,1.14,0.239,1.882,0.239,2.226c0,0.185-0.071,0.464-0.212,0.835
	c-0.089-0.027-0.292-0.146-0.61-0.358c-0.23-0.159-0.45-0.238-0.663-0.238h-15.876c-0.654,0-1.123,0.046-1.405,0.139
	c-0.159,0.159-0.442,0.358-0.848,0.596c-0.035-0.172-0.053-0.371-0.053-0.596c0-0.186,0.08-1.053,0.239-2.604
	c0.159,0.132,0.415,0.331,0.769,0.596c0.124,0,0.265,0,0.424,0c0.229,0,0.579-0.01,1.047-0.03c0.468-0.02,0.817-0.03,1.047-0.03
	c0.229,0,0.565,0.023,1.007,0.07C165.792,90.326,166.128,90.349,166.358,90.349z M180.246,93.708
	c0.159,1.14,0.239,1.882,0.239,2.226c0,0.186-0.071,0.464-0.212,0.835c-0.089-0.026-0.292-0.146-0.61-0.358
	c-0.23-0.159-0.45-0.238-0.663-0.238h-15.876c-0.654,0-1.123,0.046-1.405,0.139c-0.159,0.159-0.442,0.358-0.848,0.596
	c-0.035-0.172-0.053-0.371-0.053-0.596c0-0.186,0.08-1.053,0.239-2.604c0.159,0.132,0.415,0.331,0.769,0.596
	c0.124,0,0.265,0,0.424,0c0.229,0,0.579-0.01,1.047-0.03c0.468-0.02,0.817-0.03,1.047-0.03c0.229,0,0.565,0.023,1.007,0.07
	c0.441,0.046,0.777,0.07,1.007,0.07h11.98c0.318,0,0.689-0.06,1.113-0.179C179.963,94.059,180.229,93.893,180.246,93.708z
	 M180.246,97.743c0.159,1.14,0.239,1.881,0.239,2.226c0,0.185-0.071,0.464-0.212,0.835c-0.089-0.026-0.292-0.146-0.61-0.358
	c-0.23-0.159-0.45-0.239-0.663-0.239h-15.876c-0.654,0-1.123,0.046-1.405,0.139c-0.159,0.159-0.442,0.358-0.848,0.596
	c-0.035-0.172-0.053-0.371-0.053-0.596c0-0.186,0.08-1.054,0.239-2.604c0.159,0.133,0.415,0.331,0.769,0.597
	c0.124,0,0.265,0,0.424,0c0.229,0,0.579-0.01,1.047-0.03c0.468-0.02,0.817-0.03,1.047-0.03c0.229,0,0.565,0.023,1.007,0.07
	c0.441,0.047,0.777,0.07,1.007,0.07h11.98c0.318,0,0.689-0.06,1.113-0.179C179.963,98.094,180.229,97.928,180.246,97.743z
	 M24.779,98.246h-11.98c-0.318,0-0.689,0.06-1.113,0.179c-0.512,0.146-0.778,0.312-0.795,0.497c-0.159-1.14-0.239-1.882-0.239-2.227
	c0-0.186,0.071-0.464,0.212-0.835c0.089,0.026,0.292,0.146,0.609,0.358c0.23,0.159,0.451,0.239,0.663,0.239h15.876
	c0.654,0,1.122-0.046,1.405-0.139c0.159-0.159,0.441-0.358,0.848-0.596c0.035,0.172,0.053,0.371,0.053,0.596
	c0,0.186-0.079,1.053-0.239,2.604c-0.159-0.133-0.415-0.331-0.769-0.597c-0.123,0-0.265,0-0.424,0c-0.229,0-0.578,0.01-1.047,0.029
	c-0.468,0.02-0.817,0.03-1.047,0.03c-0.229,0-0.565-0.023-1.007-0.07C25.345,98.269,25.009,98.246,24.779,98.246z M14.734,91.388
	c1.626-0.477,2.642-0.808,3.048-0.994c-0.247-0.146-0.653-0.338-1.219-0.576c-0.406-0.159-1.228-0.457-2.465-0.895
	c-1.413-0.49-2.2-0.735-2.359-0.735c-0.141,0-0.371,0.159-0.689,0.477c-0.177-0.464-0.265-0.861-0.265-1.193
	c0-0.132,0.071-0.464,0.212-0.994c0.177,0.199,0.486,0.471,0.927,0.815c0.407,0.186,1.688,0.669,3.843,1.451
	c2.226,0.808,3.437,1.213,3.631,1.213c0.195,0,1.75-0.398,4.665-1.193c2.827-0.768,4.497-1.239,5.009-1.411
	c0.283-0.106,0.548-0.268,0.795-0.487c0.248-0.219,0.424-0.348,0.53-0.388c-0.018,0.159-0.018,0.378,0,0.656c0,0.318,0,0.53,0,0.636
	c0,0.809-0.062,1.398-0.185,1.769c-0.406-0.172-0.676-0.258-0.809-0.258c-0.133,0-1.153,0.278-3.061,0.835
	c-1.838,0.53-2.942,0.882-3.313,1.053v0.04c0,0.04,0.026,0.073,0.079,0.099c0.46,0.212,1.529,0.623,3.207,1.232
	c1.785,0.649,2.801,0.974,3.048,0.974c0.124,0,0.406-0.073,0.848-0.219c0.018,0.093,0.027,0.212,0.027,0.358
	c0,0.172-0.009,0.431-0.027,0.775c-0.018,0.345-0.027,0.603-0.027,0.775c-0.035-0.305-0.282-0.547-0.742-0.726
	c-0.459-0.179-1.917-0.692-4.373-1.541c-2.579-0.901-3.922-1.352-4.028-1.352c-0.247,0-2.439,0.629-6.573,1.888
	c-0.618,0.159-1.237,0.325-1.855,0.497c-0.724,0.199-1.263,0.451-1.617,0.755c-0.141-0.702-0.212-1.246-0.212-1.63
	c0,0.053,0.097-0.378,0.292-1.292c0.159,0.225,0.38,0.338,0.663,0.338C12.022,92.143,13.021,91.892,14.734,91.388z M18.602,59.083
	c0.196-0.689,0.382-1.204,0.558-1.546c-0.024,0.047,0.26-0.291,0.851-1.015c0.038,0.273,0.183,0.475,0.434,0.604
	c0.252,0.13,1.254,0.364,3.008,0.701c1.664,0.321,2.719,0.492,3.165,0.513c-0.153-0.243-0.426-0.6-0.82-1.071
	c-0.288-0.328-0.882-0.969-1.781-1.925c-1.032-1.083-1.618-1.662-1.76-1.735c-0.126-0.065-0.403-0.029-0.831,0.108
	c0.056-0.493,0.159-0.887,0.311-1.181c0.06-0.117,0.275-0.38,0.644-0.786c0.066,0.258,0.216,0.641,0.451,1.149
	c0.276,0.352,1.193,1.368,2.751,3.051c1.609,1.739,2.499,2.653,2.672,2.742c0.173,0.089,1.737,0.448,4.693,1.077
	c2.865,0.613,4.565,0.96,5.099,1.041c0.3,0.035,0.61,0.013,0.93-0.068c0.321-0.081,0.537-0.115,0.649-0.102
	c-0.089,0.133-0.189,0.328-0.301,0.583c-0.146,0.282-0.243,0.471-0.292,0.565c-0.371,0.719-0.696,1.214-0.976,1.488
	c-0.282-0.339-0.482-0.54-0.6-0.6c-0.118-0.061-1.153-0.281-3.104-0.661c-1.876-0.371-3.019-0.565-3.428-0.582L30.91,61.47
	c-0.018,0.035-0.01,0.077,0.025,0.125c0.312,0.399,1.073,1.254,2.286,2.565c1.289,1.395,2.043,2.149,2.263,2.263
	c0.11,0.057,0.395,0.122,0.854,0.194c-0.027,0.091-0.073,0.201-0.14,0.33c-0.079,0.153-0.205,0.379-0.379,0.677
	c-0.174,0.299-0.3,0.524-0.379,0.677c0.108-0.287,0-0.615-0.327-0.985c-0.326-0.37-1.387-1.494-3.181-3.373
	c-1.88-1.983-2.867-2.999-2.961-3.048c-0.22-0.113-2.456-0.558-6.708-1.334c-0.622-0.142-1.248-0.278-1.877-0.408
	C19.65,58.997,19.056,58.974,18.602,59.083z M43.608,29.962c-0.581-0.476-1.098-0.771-1.551-0.883
	c0.491-0.521,0.894-0.893,1.208-1.115c-0.043,0.031,0.365-0.139,1.223-0.509c-0.092,0.26-0.056,0.506,0.107,0.736
	c0.164,0.231,0.946,0.9,2.348,2.008c1.329,1.051,2.186,1.689,2.572,1.913c-0.024-0.286-0.102-0.728-0.234-1.328
	c-0.105-0.423-0.337-1.266-0.695-2.528c-0.417-1.437-0.671-2.22-0.763-2.35c-0.081-0.115-0.344-0.211-0.787-0.287
	c0.276-0.412,0.55-0.714,0.82-0.905c0.108-0.076,0.419-0.211,0.934-0.401c-0.06,0.259-0.103,0.669-0.129,1.228
	c0.083,0.439,0.429,1.764,1.037,3.975c0.627,2.284,0.997,3.505,1.109,3.664c0.113,0.159,1.335,1.198,3.669,3.118
	c2.261,1.863,3.61,2.954,4.046,3.273c0.25,0.17,0.536,0.292,0.857,0.368c0.322,0.076,0.529,0.145,0.623,0.208
	c-0.14,0.078-0.319,0.204-0.535,0.379c-0.26,0.184-0.433,0.306-0.519,0.367c-0.66,0.467-1.177,0.757-1.551,0.871
	c-0.094-0.431-0.18-0.701-0.256-0.809c-0.077-0.108-0.894-0.78-2.45-2.016c-1.495-1.193-2.42-1.891-2.774-2.095l-0.032,0.023
	c-0.032,0.023-0.044,0.064-0.035,0.122c0.093,0.498,0.375,1.607,0.847,3.329c0.501,1.832,0.824,2.849,0.967,3.05
	c0.072,0.101,0.294,0.29,0.669,0.566c-0.066,0.068-0.158,0.144-0.277,0.228c-0.141,0.1-0.357,0.242-0.648,0.426
	c-0.292,0.185-0.508,0.327-0.648,0.426c0.228-0.205,0.283-0.546,0.163-1.025s-0.543-1.965-1.27-4.459
	c-0.755-2.626-1.163-3.982-1.225-4.069c-0.143-0.202-1.923-1.626-5.34-4.273C44.599,30.776,44.106,30.367,43.608,29.962z
	 M49.312,23.811c0.838-0.788,1.398-1.282,1.679-1.481c0.151-0.107,0.419-0.21,0.804-0.309c0.03,0.088,0.05,0.322,0.061,0.704
	c0.003,0.279,0.066,0.505,0.188,0.678l9.175,12.957c0.378,0.534,0.686,0.889,0.925,1.066c0.222,0.038,0.547,0.154,0.977,0.347
	c-0.12,0.128-0.272,0.258-0.456,0.388c-0.152,0.107-0.906,0.544-2.263,1.31c0.016-0.206,0.03-0.53,0.043-0.972
	c-0.071-0.101-0.154-0.216-0.245-0.346c-0.133-0.187-0.342-0.466-0.629-0.837c-0.287-0.371-0.497-0.65-0.63-0.837
	c-0.133-0.187-0.308-0.475-0.525-0.862c-0.217-0.387-0.392-0.675-0.525-0.862l-6.923-9.777c-0.184-0.26-0.447-0.528-0.789-0.805
	C49.763,23.839,49.474,23.719,49.312,23.811z M173.502,128.819c-0.41,1.075-0.698,1.764-0.864,2.066
	c-0.09,0.162-0.285,0.372-0.589,0.629c-0.065-0.066-0.185-0.268-0.361-0.607c-0.125-0.25-0.28-0.426-0.466-0.529l-13.91-7.653
	c-0.573-0.315-1.005-0.5-1.297-0.555c-0.216,0.062-0.56,0.101-1.031,0.114c0.052-0.168,0.133-0.351,0.241-0.548
	c0.089-0.163,0.577-0.885,1.464-2.167c0.076,0.193,0.204,0.49,0.386,0.893c0.108,0.059,0.232,0.128,0.372,0.204
	c0.201,0.111,0.512,0.27,0.931,0.478c0.42,0.208,0.731,0.368,0.932,0.479c0.201,0.11,0.485,0.293,0.849,0.547
	c0.365,0.254,0.648,0.436,0.849,0.546l10.496,5.775c0.279,0.153,0.632,0.28,1.061,0.38
	C173.086,128.99,173.398,128.973,173.502,128.819z M171.984,132.294l0.004,0.048c-0.051,0.093-0.144,0.208-0.28,0.344
	c-0.136,0.138-0.226,0.246-0.271,0.328c-0.089,0.162-0.194,0.407-0.313,0.735c-0.12,0.327-0.221,0.566-0.305,0.717
	c-0.051,0.093-0.183,0.187-0.396,0.281c-0.338-0.338-0.524-0.515-0.554-0.532c-0.062-0.034-0.288-0.083-0.677-0.145
	c-0.479-0.083-0.745-0.13-0.798-0.144c-1.645-0.421-3.759-0.994-6.344-1.721c-3.47-0.987-5.591-1.587-6.361-1.798
	c-0.476-0.125-1.01-0.2-1.602-0.224c-0.024,0.228,0.566,0.841,1.772,1.837c0.713,0.574,1.61,1.362,2.691,2.366
	c1.384,1.26,2.271,2.067,2.663,2.418c0.111,0.091,0.935,0.847,2.473,2.268c1.377,1.272,2.104,1.929,2.182,1.972
	c0.247,0.136,0.588,0.142,1.02,0.016c-0.09,0.419-0.256,0.85-0.498,1.291c-0.045,0.081-0.094,0.152-0.148,0.214
	c-0.031-0.017-0.115-0.011-0.253,0.02c-0.166-0.394-0.354-0.694-0.563-0.9c-0.21-0.206-0.698-0.656-1.465-1.351
	c-0.768-0.695-1.931-1.714-3.491-3.056c-0.404-0.329-0.983-0.836-1.734-1.521c-0.092-0.127-0.263-0.319-0.514-0.578
	c-0.251-0.259-0.594-0.561-1.029-0.907c-0.809-0.657-1.78-1.493-2.914-2.511c-0.937-0.864-1.877-1.721-2.82-2.573
	c0.023-0.336,0.108-0.637,0.255-0.904c0.121-0.221,0.337-0.465,0.646-0.734c0.728,0.143,1.603,0.367,2.625,0.673
	c0.869,0.252,1.736,0.509,2.6,0.772c0.427,0.068,1.053,0.194,1.88,0.377c1.874,0.517,4.695,1.29,8.464,2.32
	c0.037,0.006,0.508,0.158,1.411,0.459c0.593,0.205,1.048,0.312,1.367,0.321c0.134,0.013,0.292-0.036,0.474-0.147
	c0.255-0.132,0.406-0.208,0.457-0.225L171.984,132.294z M145.045,164.633l0.213,0.336l-0.02,0.044
	c-0.09,0.057-0.227,0.113-0.412,0.167c-0.185,0.055-0.317,0.107-0.395,0.156c-0.156,0.099-0.366,0.263-0.629,0.493
	c-0.263,0.23-0.467,0.39-0.613,0.482c-0.089,0.057-0.25,0.075-0.483,0.055c-0.134-0.459-0.21-0.703-0.229-0.733
	c-0.038-0.06-0.212-0.211-0.523-0.453c-0.38-0.303-0.59-0.473-0.63-0.511c-1.238-1.161-2.814-2.683-4.729-4.566
	c-2.565-2.537-4.134-4.085-4.707-4.642c-0.356-0.339-0.788-0.662-1.296-0.968c-0.132,0.188,0.091,1.01,0.667,2.464
	c0.348,0.846,0.754,1.97,1.218,3.37c0.604,1.771,0.994,2.905,1.168,3.402c0.053,0.133,0.411,1.193,1.073,3.179
	c0.594,1.778,0.914,2.705,0.961,2.779c0.151,0.239,0.447,0.408,0.885,0.506c-0.281,0.324-0.633,0.621-1.059,0.891
	c-0.078,0.05-0.156,0.088-0.232,0.116c-0.019-0.03-0.096-0.065-0.231-0.104c0.044-0.426,0.024-0.779-0.06-1.06
	c-0.085-0.281-0.295-0.911-0.633-1.89c-0.338-0.978-0.866-2.432-1.586-4.36c-0.196-0.482-0.458-1.205-0.786-2.169
	c-0.019-0.155-0.077-0.406-0.171-0.754c-0.095-0.348-0.25-0.778-0.465-1.29c-0.392-0.965-0.839-2.167-1.343-3.605
	c-0.405-1.208-0.814-2.413-1.231-3.613c0.182-0.283,0.401-0.506,0.659-0.668c0.213-0.135,0.519-0.246,0.919-0.332
	c0.569,0.476,1.227,1.094,1.976,1.855c0.641,0.64,1.276,1.283,1.905,1.93c0.341,0.265,0.829,0.677,1.466,1.236
	c1.393,1.356,3.492,3.393,6.298,6.113c0.03,0.023,0.368,0.383,1.015,1.082c0.421,0.466,0.768,0.779,1.042,0.94
	c0.111,0.076,0.273,0.109,0.487,0.099C144.824,164.617,144.993,164.625,145.045,164.633z M16.923,126.52
	c-0.176,0.339-0.296,0.541-0.361,0.607c-0.303-0.257-0.499-0.467-0.588-0.629c-0.166-0.302-0.455-0.991-0.864-2.066
	c0.105,0.154,0.417,0.171,0.936,0.052c0.429-0.1,0.783-0.226,1.062-0.38l10.496-5.775c0.201-0.111,0.485-0.293,0.849-0.547
	c0.365-0.254,0.648-0.435,0.849-0.546c0.202-0.111,0.512-0.27,0.932-0.479c0.42-0.208,0.731-0.368,0.932-0.478
	c0.139-0.077,0.263-0.145,0.371-0.204c0.182-0.403,0.311-0.701,0.386-0.893c0.887,1.282,1.375,2.004,1.464,2.167
	c0.108,0.197,0.188,0.38,0.241,0.548c-0.471-0.013-0.814-0.051-1.03-0.114c-0.292,0.054-0.725,0.24-1.298,0.555l-13.909,7.653
	C17.203,126.094,17.048,126.27,16.923,126.52z M18.868,130.055c-0.177,0.338-0.297,0.541-0.362,0.607
	c-0.303-0.257-0.499-0.467-0.588-0.629c-0.166-0.302-0.454-0.991-0.864-2.066c0.105,0.154,0.417,0.171,0.936,0.052
	c0.429-0.1,0.783-0.226,1.061-0.38l10.496-5.775c0.201-0.111,0.484-0.293,0.849-0.547c0.365-0.254,0.648-0.436,0.849-0.546
	c0.201-0.111,0.512-0.271,0.932-0.479c0.42-0.208,0.73-0.368,0.932-0.479c0.139-0.076,0.263-0.145,0.372-0.204
	c0.182-0.403,0.31-0.7,0.386-0.893c0.887,1.282,1.375,2.004,1.464,2.167c0.108,0.197,0.189,0.38,0.241,0.548
	c-0.471-0.013-0.814-0.051-1.031-0.113c-0.292,0.055-0.725,0.24-1.298,0.555l-13.91,7.653
	C19.148,129.629,18.993,129.805,18.868,130.055z M20.813,133.591c-0.176,0.339-0.296,0.541-0.361,0.607
	c-0.303-0.257-0.499-0.467-0.588-0.629c-0.166-0.302-0.454-0.991-0.864-2.066c0.105,0.154,0.417,0.171,0.936,0.052
	c0.429-0.1,0.783-0.226,1.062-0.38l10.496-5.775c0.201-0.111,0.484-0.293,0.849-0.547c0.365-0.254,0.648-0.436,0.849-0.546
	c0.202-0.111,0.512-0.27,0.932-0.479c0.42-0.208,0.731-0.368,0.932-0.478c0.139-0.077,0.263-0.145,0.371-0.205
	c0.182-0.403,0.311-0.7,0.386-0.893c0.887,1.282,1.375,2.004,1.464,2.167c0.108,0.197,0.188,0.38,0.241,0.548
	c-0.471-0.013-0.814-0.051-1.03-0.114c-0.292,0.055-0.725,0.24-1.298,0.555l-13.909,7.653
	C21.093,133.164,20.938,133.34,20.813,133.591z M40.79,130.971c0.147,0.267,0.232,0.568,0.255,0.903
	c-0.943,0.851-1.883,1.709-2.819,2.573c-1.135,1.017-2.106,1.854-2.914,2.511c-0.435,0.345-0.779,0.647-1.029,0.907
	c-0.251,0.259-0.422,0.451-0.514,0.578c-0.751,0.686-1.33,1.193-1.734,1.521c-1.56,1.343-2.724,2.362-3.492,3.056
	c-0.767,0.694-1.255,1.145-1.465,1.351c-0.209,0.206-0.397,0.506-0.564,0.9c-0.138-0.03-0.222-0.037-0.253-0.02
	c-0.053-0.061-0.103-0.133-0.148-0.214c-0.243-0.442-0.409-0.872-0.499-1.291c0.432,0.125,0.772,0.12,1.02-0.016
	c0.078-0.043,0.805-0.701,2.182-1.972c1.538-1.421,2.362-2.177,2.473-2.268c0.392-0.352,1.279-1.158,2.663-2.418
	c1.081-1.004,1.979-1.792,2.692-2.366c1.206-0.997,1.797-1.609,1.772-1.838c-0.592,0.023-1.126,0.098-1.601,0.223
	c-0.771,0.212-2.891,0.811-6.362,1.798c-2.584,0.727-4.7,1.301-6.344,1.721c-0.053,0.014-0.318,0.062-0.798,0.144
	c-0.389,0.063-0.615,0.111-0.676,0.145c-0.031,0.017-0.216,0.194-0.554,0.532c-0.214-0.095-0.345-0.188-0.397-0.281
	c-0.083-0.151-0.184-0.39-0.304-0.718c-0.12-0.327-0.224-0.572-0.313-0.735c-0.045-0.082-0.135-0.191-0.271-0.328
	c-0.136-0.137-0.229-0.252-0.28-0.345l0.004-0.047l0.348-0.191c0.05,0.017,0.202,0.093,0.456,0.225
	c0.183,0.111,0.341,0.16,0.474,0.147c0.318-0.008,0.773-0.115,1.366-0.321c0.904-0.3,1.374-0.453,1.411-0.458
	c3.769-1.03,6.591-1.804,8.464-2.32c0.827-0.183,1.454-0.308,1.88-0.376c0.864-0.264,1.73-0.521,2.6-0.773
	c1.022-0.305,1.897-0.53,2.625-0.673C40.454,130.505,40.669,130.75,40.79,130.971z M45.637,162.944
	c-0.114,0.179-0.165,0.408-0.154,0.687c0.009,0.382,0.001,0.617-0.024,0.706c-0.389-0.079-0.662-0.169-0.819-0.268
	c-0.291-0.185-0.875-0.649-1.753-1.393c0.166,0.084,0.448-0.051,0.845-0.405c0.328-0.294,0.577-0.576,0.747-0.845l6.412-10.119
	c0.123-0.194,0.283-0.491,0.481-0.888c0.197-0.398,0.357-0.694,0.48-0.888c0.123-0.194,0.318-0.484,0.585-0.868
	c0.268-0.385,0.463-0.674,0.586-0.868c0.085-0.134,0.161-0.254,0.227-0.358c-0.035-0.441-0.066-0.763-0.093-0.969
	c1.395,0.696,2.17,1.093,2.327,1.193c0.19,0.12,0.349,0.242,0.475,0.364c-0.419,0.216-0.738,0.349-0.958,0.397
	c-0.23,0.189-0.52,0.56-0.87,1.112L45.637,162.944z M49.045,165.104c-0.113,0.179-0.165,0.408-0.153,0.687
	c0.009,0.382,0.001,0.617-0.024,0.707c-0.389-0.079-0.662-0.169-0.819-0.268c-0.291-0.184-0.875-0.649-1.753-1.393
	c0.167,0.085,0.448-0.051,0.846-0.405c0.328-0.294,0.577-0.576,0.747-0.844l6.412-10.12c0.123-0.194,0.283-0.49,0.48-0.888
	c0.197-0.398,0.357-0.694,0.48-0.888c0.123-0.194,0.318-0.484,0.585-0.868c0.268-0.385,0.463-0.675,0.586-0.869
	c0.085-0.134,0.161-0.254,0.227-0.358c-0.035-0.441-0.066-0.763-0.093-0.969c1.395,0.696,2.17,1.093,2.328,1.192
	c0.19,0.121,0.348,0.242,0.475,0.364c-0.419,0.215-0.738,0.348-0.958,0.397c-0.23,0.189-0.52,0.56-0.87,1.112L49.045,165.104z
	 M65.791,154.535c-0.416,1.201-0.826,2.405-1.23,3.613c-0.503,1.438-0.951,2.639-1.343,3.605c-0.215,0.512-0.37,0.942-0.465,1.29
	c-0.095,0.348-0.152,0.599-0.172,0.754c-0.328,0.963-0.59,1.686-0.786,2.169c-0.72,1.928-1.249,3.382-1.586,4.36
	c-0.337,0.979-0.548,1.609-0.633,1.89c-0.084,0.281-0.104,0.634-0.06,1.06c-0.135,0.04-0.212,0.075-0.231,0.105
	c-0.076-0.028-0.154-0.066-0.232-0.116c-0.426-0.27-0.779-0.567-1.059-0.891c0.439-0.099,0.734-0.267,0.885-0.506
	c0.047-0.075,0.367-1.002,0.961-2.78c0.662-1.986,1.02-3.046,1.073-3.179c0.174-0.497,0.563-1.631,1.167-3.402
	c0.464-1.4,0.87-2.524,1.218-3.37c0.576-1.454,0.799-2.276,0.667-2.464c-0.508,0.305-0.939,0.628-1.296,0.967
	c-0.573,0.557-2.142,2.105-4.707,4.643c-1.914,1.882-3.491,3.404-4.729,4.565c-0.04,0.038-0.249,0.208-0.629,0.511
	c-0.311,0.242-0.485,0.393-0.523,0.453c-0.019,0.029-0.095,0.274-0.229,0.733c-0.232,0.02-0.394,0.002-0.483-0.055
	c-0.146-0.092-0.35-0.253-0.612-0.482c-0.263-0.229-0.472-0.393-0.629-0.493c-0.079-0.05-0.211-0.102-0.396-0.156
	c-0.185-0.055-0.322-0.11-0.412-0.167l-0.019-0.044l0.213-0.336c0.052-0.009,0.222-0.016,0.509-0.023
	c0.213,0.01,0.376-0.024,0.487-0.1c0.275-0.161,0.622-0.474,1.042-0.94c0.647-0.699,0.985-1.06,1.015-1.082
	c2.806-2.72,4.905-4.757,6.298-6.113c0.636-0.559,1.125-0.971,1.466-1.236c0.629-0.647,1.265-1.291,1.906-1.93
	c0.748-0.76,1.406-1.378,1.975-1.855c0.401,0.086,0.707,0.197,0.92,0.331C65.389,154.03,65.609,154.253,65.791,154.535z
	 M170.653,57.415c0.177-0.339,0.297-0.541,0.362-0.607c0.302,0.257,0.499,0.467,0.588,0.629c0.166,0.302,0.455,0.991,0.865,2.066
	c-0.105-0.154-0.417-0.171-0.936-0.052c-0.429,0.1-0.782,0.226-1.061,0.38l-10.496,5.775c-0.201,0.111-0.484,0.293-0.849,0.547
	c-0.365,0.253-0.648,0.436-0.849,0.547c-0.201,0.111-0.512,0.27-0.932,0.478c-0.42,0.208-0.73,0.368-0.931,0.479
	c-0.139,0.077-0.264,0.145-0.372,0.204c-0.182,0.403-0.31,0.7-0.386,0.893c-0.886-1.282-1.374-2.004-1.464-2.167
	c-0.109-0.197-0.189-0.38-0.241-0.548c0.471,0.013,0.815,0.051,1.031,0.114c0.292-0.055,0.725-0.24,1.298-0.555l13.91-7.653
	C170.373,57.841,170.528,57.665,170.653,57.415z M152.245,63.05c-0.109-0.197-0.188-0.38-0.24-0.548
	c0.471,0.013,0.814,0.051,1.03,0.114c0.292-0.055,0.725-0.24,1.298-0.555l13.91-7.653c0.186-0.102,0.341-0.278,0.466-0.528
	c0.176-0.339,0.296-0.541,0.362-0.607c0.303,0.257,0.499,0.466,0.588,0.629c0.166,0.302,0.454,0.991,0.864,2.066
	c-0.105-0.154-0.417-0.171-0.936-0.052c-0.429,0.1-0.783,0.227-1.062,0.38l-10.496,5.775c-0.201,0.111-0.484,0.294-0.849,0.547
	c-0.364,0.253-0.648,0.436-0.849,0.547c-0.202,0.111-0.512,0.27-0.932,0.478c-0.42,0.208-0.73,0.368-0.931,0.479
	c-0.139,0.077-0.263,0.145-0.371,0.204c-0.182,0.403-0.311,0.7-0.386,0.893C152.822,63.935,152.335,63.213,152.245,63.05z
	 M132.409,41.512c-0.185-0.128-0.338-0.256-0.46-0.383c0.427-0.199,0.752-0.318,0.973-0.359c0.237-0.18,0.541-0.539,0.913-1.076
	l9.027-13.06c0.121-0.174,0.181-0.401,0.181-0.681c0.007-0.382,0.024-0.617,0.052-0.705c0.385,0.095,0.655,0.195,0.807,0.3
	c0.283,0.196,0.849,0.683,1.696,1.462c-0.163-0.091-0.449,0.033-0.861,0.372c-0.339,0.281-0.599,0.552-0.78,0.814l-6.812,9.855
	c-0.131,0.189-0.302,0.479-0.515,0.868c-0.213,0.39-0.385,0.679-0.515,0.868c-0.131,0.189-0.338,0.47-0.62,0.844
	c-0.282,0.374-0.49,0.655-0.62,0.844c-0.09,0.131-0.171,0.247-0.241,0.349c0.017,0.442,0.035,0.765,0.054,0.972
	C133.321,42.046,132.562,41.618,132.409,41.512z M102.902,179.339c0.239,0.159,0.378,0.256,0.417,0.292v0.397l-0.04,0.027
	c-0.106,0-0.252-0.027-0.437-0.079c-0.186-0.053-0.325-0.079-0.418-0.079c-0.185,0-0.45,0.026-0.795,0.079
	c-0.344,0.053-0.603,0.079-0.775,0.079c-0.106,0-0.251-0.071-0.437-0.212c0.133-0.46,0.199-0.707,0.199-0.742
	c0-0.071-0.066-0.292-0.199-0.662c-0.159-0.46-0.245-0.716-0.259-0.769c-0.424-1.643-0.941-3.773-1.551-6.387
	c-0.808-3.516-1.305-5.663-1.491-6.441c-0.119-0.477-0.311-0.981-0.576-1.511c-0.211,0.088-0.464,0.901-0.756,2.438
	c-0.159,0.901-0.417,2.067-0.775,3.499c-0.437,1.82-0.716,2.986-0.835,3.498c-0.026,0.141-0.291,1.228-0.795,3.26
	c-0.45,1.82-0.676,2.774-0.676,2.862c0,0.282,0.159,0.583,0.477,0.901c-0.411,0.124-0.868,0.186-1.372,0.186
	c-0.093,0-0.179-0.009-0.258-0.027c0-0.036-0.046-0.106-0.139-0.212c0.265-0.336,0.437-0.645,0.517-0.928
	c0.08-0.283,0.239-0.928,0.477-1.935c0.239-1.007,0.57-2.518,0.994-4.532c0.093-0.513,0.258-1.264,0.497-2.253
	c0.066-0.142,0.153-0.384,0.258-0.729c0.106-0.344,0.206-0.791,0.298-1.338c0.186-1.025,0.451-2.279,0.795-3.764
	c0.305-1.237,0.603-2.474,0.895-3.711c0.305-0.142,0.61-0.212,0.914-0.212c0.252,0,0.57,0.07,0.954,0.212
	c0.225,0.707,0.451,1.581,0.676,2.624c0.199,0.883,0.391,1.767,0.577,2.65c0.146,0.406,0.338,1.016,0.577,1.829
	c0.45,1.89,1.133,4.735,2.047,8.535c0.013,0.035,0.106,0.521,0.278,1.458c0.106,0.618,0.232,1.069,0.378,1.352
	C102.597,179.117,102.717,179.232,102.902,179.339z M89.524,161.263c0,0.123,0,0.265,0,0.424c0,0.229,0.01,0.578,0.03,1.047
	c0.02,0.468,0.03,0.817,0.03,1.047c0,0.23-0.023,0.565-0.07,1.007c-0.046,0.442-0.07,0.778-0.07,1.008v11.98
	c0,0.318,0.059,0.689,0.179,1.113c0.146,0.513,0.312,0.777,0.497,0.795c-1.139,0.159-1.882,0.239-2.227,0.239
	c-0.186,0-0.464-0.071-0.834-0.212c0.026-0.088,0.146-0.291,0.357-0.609c0.159-0.23,0.239-0.451,0.239-0.662v-15.877
	c0-0.654-0.046-1.122-0.139-1.404c-0.159-0.159-0.358-0.442-0.596-0.848c0.173-0.035,0.371-0.052,0.596-0.052
	c0.186,0,1.053,0.079,2.604,0.238C89.988,160.653,89.79,160.909,89.524,161.263z M95.04,33.15v0.312
	c-16.437,0.028-31.886,6.44-43.512,18.066C39.876,63.18,33.459,78.672,33.459,95.149c0,16.478,6.417,31.97,18.069,43.622
	c11.652,11.652,27.144,18.068,43.622,18.068c16.478,0,31.97-6.417,43.622-18.068c11.652-11.651,18.069-27.143,18.069-43.621h0.2v-1
	h-0.224c-0.255-16.103-6.629-31.207-18.044-42.622c-11.441-11.441-26.587-17.82-42.731-18.047V33.15H95.04z M134.999,54.864
	c-0.572-0.566-1.151-1.121-1.742-1.659l3.08-3.419c0.651,0.592,1.288,1.203,1.917,1.825L134.999,54.864z M132.838,52.835
	c-0.6-0.535-1.204-1.064-1.823-1.571l2.896-3.575c0.68,0.558,1.346,1.138,2.005,1.727L132.838,52.835z M130.576,50.921
	c-0.626-0.504-1.258-0.999-1.902-1.473l2.706-3.722c0.709,0.522,1.404,1.066,2.093,1.62L130.576,50.921z M128.217,49.126
	c-0.651-0.47-1.309-0.93-1.977-1.371l2.507-3.859c0.736,0.484,1.459,0.99,2.176,1.507L128.217,49.126z M125.769,47.457
	c-0.675-0.435-1.356-0.859-2.047-1.264l2.302-3.985c0.76,0.445,1.51,0.911,2.252,1.39L125.769,47.457z M123.236,45.918
	c-0.697-0.399-1.4-0.785-2.112-1.153l2.09-4.1c0.784,0.405,1.557,0.829,2.324,1.268L123.236,45.918z M120.626,44.514
	c-0.717-0.361-1.439-0.708-2.17-1.038l1.873-4.203c0.804,0.363,1.599,0.744,2.387,1.142L120.626,44.514z M117.946,43.25
	c-0.734-0.323-1.475-0.63-2.223-0.921l1.65-4.296c0.823,0.32,1.638,0.657,2.446,1.013L117.946,43.25z M115.203,42.129
	c-0.75-0.283-1.507-0.549-2.269-0.8l1.423-4.376c0.839,0.276,1.671,0.569,2.496,0.881L115.203,42.129z M112.404,41.154
	c-0.764-0.243-1.534-0.467-2.309-0.678l1.192-4.444c0.853,0.231,1.699,0.478,2.54,0.746L112.404,41.154z M109.558,40.327
	c-0.775-0.202-1.556-0.384-2.341-0.554l0.958-4.5c0.864,0.186,1.723,0.387,2.575,0.61L109.558,40.327z M106.672,39.651
	c-0.784-0.161-1.574-0.301-2.367-0.429l0.721-4.544c0.873,0.141,1.741,0.295,2.604,0.472L106.672,39.651z M103.756,39.128
	c-0.791-0.12-1.587-0.216-2.386-0.303l0.482-4.575c0.879,0.095,1.754,0.202,2.625,0.334L103.756,39.128z M100.816,38.757
	c-0.796-0.078-1.597-0.132-2.399-0.178l0.243-4.594c0.883,0.05,1.763,0.11,2.639,0.197L100.816,38.757z M134.927,55.372
	c10.625,10.625,16.476,24.751,16.476,39.777c0,15.026-5.851,29.152-16.476,39.777c-10.414,10.414-24.195,16.228-38.886,16.455
	v-0.231h-1v0.25c-0.847-0.002-1.69-0.023-2.531-0.062l0.002-0.036l-0.557-0.029l-0.002,0.033c-0.798-0.044-1.594-0.097-2.386-0.175
	l0.005-0.044l-0.555-0.058l-0.003,0.034c-0.794-0.086-1.587-0.181-2.374-0.3l0.007-0.045l-0.551-0.088l-0.006,0.037
	c-0.789-0.127-1.574-0.265-2.354-0.425l0.01-0.046l-0.546-0.116l-0.009,0.04c-0.781-0.168-1.557-0.349-2.328-0.55l0.012-0.047
	l-0.539-0.144l-0.011,0.042c-0.77-0.209-1.536-0.432-2.295-0.673l0.015-0.046l-0.53-0.172l-0.014,0.044
	c-0.758-0.25-1.51-0.514-2.256-0.796l0.017-0.044l-0.521-0.2l-0.017,0.044c-0.743-0.289-1.48-0.594-2.21-0.916l0.018-0.041
	l-0.509-0.227l-0.019,0.042c-0.727-0.328-1.445-0.673-2.158-1.033l0.018-0.036l-0.497-0.254l-0.02,0.038
	c-0.708-0.366-1.406-0.75-2.099-1.147l0.017-0.03l-0.483-0.279l-0.02,0.034c-0.687-0.403-1.364-0.824-2.034-1.257l0.016-0.024
	l-0.468-0.304l-0.019,0.029c-0.664-0.438-1.317-0.896-1.965-1.364l0.013-0.017l-0.451-0.327l-0.017,0.023
	c-0.64-0.472-1.267-0.965-1.889-1.465l0.01-0.012l-0.433-0.351l-0.016,0.019c-0.614-0.505-1.214-1.03-1.81-1.563l0.007-0.007
	l-0.414-0.373l-0.009,0.01c-0.587-0.535-1.163-1.086-1.731-1.649l0.005-0.005l-0.394-0.394l-0.004,0.004
	c-0.562-0.568-1.114-1.143-1.649-1.731l0.007-0.006l-0.373-0.414l-0.002,0.002c-0.532-0.596-1.056-1.197-1.56-1.811l0.009-0.007
	l-0.351-0.433l-0.001,0.001c-0.5-0.622-0.992-1.25-1.463-1.89l0.008-0.006l-0.328-0.451l-0.002,0.001
	c-0.467-0.647-0.923-1.3-1.361-1.965l0.008-0.005l-0.304-0.468l-0.003,0.002c-0.432-0.671-0.852-1.348-1.254-2.034l0.007-0.004
	L46.269,123l-0.003,0.002c-0.396-0.692-0.779-1.391-1.144-2.099l0.005-0.002l-0.253-0.497l-0.003,0.001
	c-0.359-0.712-0.702-1.431-1.03-2.157l0.002-0.001l-0.227-0.51l-0.001,0.001c-3.084-7.03-4.719-14.681-4.719-22.588h0.144v-1h-0.12
	c0.254-14.651,6.063-28.389,16.452-38.777C65.971,44.773,80.055,38.927,95.04,38.899v0.251h1v-0.232
	C110.732,39.145,124.512,44.958,134.927,55.372z M139.076,130.961l3.576,2.895c-0.558,0.683-1.139,1.351-1.729,2.013l-3.419-3.079
	C138.04,132.189,138.569,131.582,139.076,130.961z M139.42,130.522c0.504-0.629,0.999-1.263,1.474-1.91l3.723,2.705
	c-0.522,0.711-1.066,1.409-1.621,2.1L139.42,130.522z M141.215,128.157c0.47-0.654,0.93-1.314,1.371-1.985l3.859,2.506
	c-0.485,0.738-0.99,1.464-1.508,2.183L141.215,128.157z M142.885,125.701c0.435-0.677,0.859-1.361,1.263-2.055l3.986,2.301
	c-0.445,0.763-0.91,1.515-1.389,2.26L142.885,125.701z M144.424,123.161c0.399-0.699,0.784-1.405,1.152-2.119l4.101,2.089
	c-0.405,0.786-0.828,1.562-1.267,2.331L144.424,123.161z M145.826,120.543c0.361-0.719,0.707-1.445,1.037-2.178l4.205,1.872
	c-0.362,0.807-0.743,1.605-1.14,2.395L145.826,120.543z M147.089,117.856c0.322-0.737,0.628-1.48,0.918-2.23l4.297,1.649
	c-0.319,0.825-0.656,1.643-1.01,2.453L147.089,117.856z M148.208,115.105c0.282-0.752,0.547-1.511,0.797-2.276l4.377,1.422
	c-0.275,0.841-0.566,1.676-0.878,2.504L148.208,115.105z M149.18,112.299c0.242-0.766,0.465-1.539,0.674-2.316l4.446,1.191
	c-0.23,0.855-0.476,1.704-0.742,2.546L149.18,112.299z M150.002,109.446c0.201-0.777,0.381-1.561,0.55-2.348l4.501,0.957
	c-0.185,0.866-0.384,1.727-0.605,2.582L150.002,109.446z M150.673,106.555c0.16-0.786,0.297-1.579,0.424-2.374l4.545,0.72
	c-0.139,0.875-0.291,1.746-0.467,2.611L150.673,106.555z M151.192,103.631c0.118-0.793,0.212-1.591,0.297-2.392l4.576,0.481
	c-0.093,0.88-0.198,1.758-0.329,2.63L151.192,103.631z M151.553,100.686c0.077-0.798,0.133-1.599,0.176-2.404l4.595,0.241
	c-0.048,0.885-0.109,1.767-0.194,2.644L151.553,100.686z M151.538,89.45l4.576-0.481c0.087,0.877,0.148,1.759,0.198,2.643
	l-4.595,0.241C151.672,91.049,151.617,90.247,151.538,89.45z M151.47,88.897c-0.087-0.8-0.185-1.598-0.305-2.39l4.545-0.72
	c0.133,0.871,0.241,1.749,0.337,2.629L151.47,88.897z M151.07,85.958c-0.129-0.794-0.269-1.585-0.431-2.37l4.502-0.957
	c0.178,0.864,0.333,1.733,0.475,2.607L151.07,85.958z M150.516,83.043c-0.17-0.786-0.353-1.568-0.556-2.344l4.445-1.191
	c0.224,0.853,0.426,1.713,0.613,2.578L150.516,83.043z M149.812,80.162c-0.211-0.776-0.437-1.546-0.681-2.31l4.377-1.422
	c0.269,0.841,0.517,1.688,0.749,2.542L149.812,80.162z M148.956,77.322c-0.252-0.763-0.519-1.52-0.803-2.271l4.297-1.649
	c0.313,0.826,0.607,1.658,0.884,2.498L148.956,77.322z M147.952,74.53c-0.292-0.748-0.6-1.489-0.924-2.224l4.205-1.871
	c0.356,0.808,0.695,1.624,1.016,2.447L147.952,74.53z M146.802,71.796c-0.331-0.731-0.679-1.454-1.042-2.171l4.101-2.089
	c0.399,0.789,0.781,1.584,1.145,2.389L146.802,71.796z M145.509,69.127c-0.369-0.712-0.756-1.416-1.156-2.113l3.986-2.3
	c0.44,0.766,0.866,1.54,1.271,2.324L145.509,69.127z M144.078,66.529c-0.406-0.691-0.831-1.372-1.267-2.047l3.86-2.506
	c0.48,0.742,0.947,1.492,1.393,2.253L144.078,66.529z M142.512,64.011c-0.441-0.669-0.903-1.326-1.374-1.977l3.723-2.704
	c0.519,0.716,1.025,1.44,1.51,2.175L142.512,64.011z M140.817,61.578c-0.476-0.644-0.972-1.275-1.476-1.901l3.576-2.895
	c0.555,0.689,1.1,1.384,1.623,2.092L140.817,61.578z M138.997,59.238c-0.508-0.618-1.037-1.223-1.573-1.822l3.42-3.078
	c0.59,0.659,1.171,1.324,1.73,2.004L138.997,59.238z M100.831,151.54l0.481,4.576c-0.878,0.087-1.761,0.148-2.647,0.198
	l-0.241-4.594C99.229,151.674,100.032,151.619,100.831,151.54z M101.385,151.472c0.802-0.087,1.601-0.185,2.394-0.305l0.719,4.544
	c-0.873,0.133-1.751,0.241-2.633,0.336L101.385,151.472z M104.329,151.072c0.796-0.129,1.588-0.269,2.375-0.432l0.956,4.501
	c-0.865,0.179-1.736,0.334-2.612,0.475L104.329,151.072z M107.248,150.518c0.788-0.17,1.571-0.354,2.349-0.557l1.191,4.445
	c-0.855,0.224-1.717,0.426-2.584,0.614L107.248,150.518z M110.134,149.812c0.777-0.212,1.55-0.438,2.316-0.682l1.422,4.377
	c-0.843,0.269-1.692,0.518-2.547,0.751L110.134,149.812z M112.98,148.955c0.765-0.253,1.523-0.52,2.276-0.805l1.649,4.296
	c-0.827,0.314-1.662,0.608-2.503,0.886L112.98,148.955z M115.776,147.949c0.75-0.293,1.493-0.602,2.229-0.927l1.872,4.204
	c-0.81,0.357-1.627,0.697-2.452,1.019L115.776,147.949z M118.516,146.796c0.733-0.332,1.457-0.681,2.176-1.045l2.089,4.1
	c-0.79,0.4-1.587,0.784-2.394,1.149L118.516,146.796z M121.19,145.501c0.714-0.37,1.418-0.759,2.117-1.16l2.301,3.985
	c-0.768,0.442-1.543,0.868-2.328,1.275L121.19,145.501z M123.792,144.066c0.693-0.407,1.375-0.834,2.052-1.272l2.506,3.859
	c-0.744,0.482-1.495,0.95-2.257,1.397L123.792,144.066z M126.314,142.496c0.67-0.443,1.329-0.906,1.981-1.379l2.705,3.722
	c-0.718,0.52-1.443,1.029-2.18,1.515L126.314,142.496z M128.751,140.796c0.646-0.477,1.278-0.975,1.905-1.481l2.896,3.576
	c-0.69,0.557-1.386,1.104-2.096,1.628L128.751,140.796z M131.094,138.969c0.619-0.51,1.226-1.039,1.826-1.577l3.079,3.419
	c-0.66,0.592-1.327,1.174-2.009,1.734L131.094,138.969z M133.336,137.019c0.592-0.541,1.174-1.095,1.747-1.664l3.253,3.253
	c-0.629,0.625-1.27,1.235-1.921,1.83L133.336,137.019z M38.75,100.744l-4.576,0.481c-0.086-0.877-0.145-1.759-0.194-2.643
	l4.594-0.241C38.618,99.145,38.672,99.947,38.75,100.744z M38.816,101.298c0.086,0.8,0.181,1.599,0.301,2.391l-4.544,0.72
	c-0.132-0.872-0.238-1.75-0.332-2.63L38.816,101.298z M39.211,104.239c0.127,0.795,0.266,1.587,0.427,2.373l-4.5,0.956
	c-0.177-0.864-0.33-1.735-0.47-2.61L39.211,104.239z M39.76,107.156c0.169,0.787,0.35,1.57,0.552,2.347l-4.444,1.191
	c-0.222-0.854-0.422-1.715-0.608-2.581L39.76,107.156z M40.46,110.04c0.21,0.777,0.434,1.549,0.677,2.314l-4.376,1.422
	c-0.268-0.842-0.514-1.691-0.745-2.545L40.46,110.04z M41.312,112.884c0.251,0.764,0.516,1.523,0.8,2.275l-4.296,1.649
	c-0.312-0.827-0.604-1.661-0.88-2.502L41.312,112.884z M51.338,59.195l-3.576-2.896c0.559-0.68,1.139-1.345,1.73-2.004l3.419,3.078
	C52.374,57.972,51.847,58.578,51.338,59.195z M50.992,59.633c-0.505,0.625-1.002,1.256-1.478,1.899l-3.722-2.704
	c0.523-0.708,1.069-1.402,1.625-2.09L50.992,59.633z M49.192,61.988c-0.472,0.651-0.934,1.307-1.376,1.975l-3.859-2.506
	c0.486-0.735,0.993-1.458,1.513-2.174L49.192,61.988z M47.518,64.434c-0.437,0.675-0.863,1.355-1.27,2.046l-3.984-2.301
	c0.447-0.76,0.915-1.509,1.395-2.251L47.518,64.434z M45.973,66.965c-0.4,0.696-0.789,1.399-1.158,2.111l-4.1-2.089
	c0.406-0.783,0.833-1.556,1.274-2.323L45.973,66.965z M44.564,69.574c-0.363,0.716-0.712,1.439-1.044,2.17l-4.204-1.872
	c0.364-0.804,0.748-1.599,1.148-2.387L44.564,69.574z M43.294,72.254c-0.324,0.735-0.634,1.475-0.926,2.223l-4.296-1.649
	c0.321-0.823,0.661-1.638,1.019-2.446L43.294,72.254z M42.167,74.997c-0.285,0.75-0.553,1.507-0.806,2.27l-4.376-1.422
	c0.278-0.839,0.573-1.671,0.886-2.497L42.167,74.997z M41.186,77.796c-0.245,0.764-0.471,1.534-0.684,2.31l-4.444-1.191
	c0.233-0.853,0.482-1.7,0.752-2.541L41.186,77.796z M40.354,80.643c-0.204,0.776-0.388,1.557-0.559,2.343l-4.5-0.957
	c0.188-0.864,0.391-1.724,0.615-2.577L40.354,80.643z M39.673,83.531c-0.163,0.785-0.304,1.575-0.434,2.369l-4.544-0.72
	c0.142-0.873,0.299-1.743,0.478-2.606L39.673,83.531z M39.144,86.45c-0.121,0.792-0.22,1.589-0.308,2.389l-4.575-0.481
	c0.096-0.88,0.206-1.757,0.339-2.628L39.144,86.45z M38.768,89.392c-0.08,0.797-0.136,1.598-0.182,2.402l-4.594-0.241
	c0.051-0.884,0.113-1.766,0.201-2.642L38.768,89.392z M89.537,38.751l-0.481-4.576c0.875-0.086,1.756-0.145,2.639-0.194l0.241,4.594
	C91.133,38.62,90.333,38.673,89.537,38.751z M88.983,38.818c-0.799,0.086-1.596,0.181-2.387,0.301l-0.72-4.544
	c0.87-0.131,1.746-0.237,2.625-0.332L88.983,38.818z M86.047,39.214c-0.793,0.127-1.583,0.266-2.368,0.426l-0.956-4.501
	c0.863-0.177,1.732-0.33,2.604-0.47L86.047,39.214z M83.135,39.762c-0.785,0.169-1.566,0.35-2.341,0.551l-1.191-4.445
	c0.853-0.222,1.712-0.422,2.576-0.607L83.135,39.762z M80.256,40.461c-0.775,0.21-1.545,0.433-2.309,0.675l-1.422-4.376
	c0.84-0.267,1.688-0.513,2.54-0.743L80.256,40.461z M77.417,41.311c-0.762,0.25-1.519,0.515-2.27,0.798l-1.649-4.296
	c0.825-0.311,1.658-0.603,2.497-0.878L77.417,41.311z M74.627,42.309c-0.748,0.29-1.489,0.596-2.224,0.918l-1.872-4.204
	c0.808-0.355,1.624-0.691,2.447-1.01L74.627,42.309z M71.894,43.454c-0.731,0.329-1.455,0.675-2.172,1.036l-2.089-4.1
	c0.789-0.397,1.584-0.778,2.389-1.14L71.894,43.454z M69.224,44.74c-0.713,0.367-1.417,0.752-2.114,1.151l-2.301-3.985
	c0.767-0.439,1.541-0.862,2.325-1.266L69.224,44.74z M66.625,46.166c-0.692,0.404-1.374,0.827-2.049,1.261l-2.506-3.859
	c0.743-0.478,1.493-0.943,2.254-1.388L66.625,46.166z M64.105,47.726c-0.669,0.44-1.327,0.899-1.979,1.368l-2.704-3.722
	c0.717-0.517,1.441-1.021,2.177-1.505L64.105,47.726z M61.67,49.416c-0.645,0.474-1.277,0.968-1.904,1.471l-2.895-3.575
	c0.689-0.554,1.385-1.096,2.094-1.618L61.67,49.416z M59.327,51.23c-0.619,0.507-1.224,1.034-1.824,1.569l-3.078-3.419
	c0.66-0.589,1.327-1.168,2.008-1.725L59.327,51.23z M57.083,53.166c-0.592,0.538-1.17,1.094-1.742,1.659l-3.253-3.253
	c0.629-0.622,1.266-1.234,1.917-1.826L57.083,53.166z M95.04,38.481c-0.853,0.002-1.702,0.023-2.548,0.062l-0.241-4.595
	c0.926-0.043,1.856-0.066,2.789-0.068V38.481z M51.69,51.963l3.253,3.253c-0.567,0.571-1.12,1.152-1.66,1.742l-3.419-3.079
	C50.458,53.23,51.066,52.591,51.69,51.963z M33.951,92.109l4.594,0.241c-0.029,0.597-0.033,1.199-0.044,1.799H34.04v1h4.438
	c0,0.882,0.024,1.759,0.064,2.634l-4.594,0.241c-0.044-0.955-0.07-1.913-0.07-2.875C33.877,94.132,33.902,93.119,33.951,92.109z
	 M51.824,138.475c-6.12-6.12-10.769-13.313-13.807-21.147l4.296-1.649c0.291,0.75,0.598,1.493,0.921,2.229l-4.202,1.871l0.227,0.509
	l4.202-1.87c0.33,0.733,0.677,1.458,1.039,2.177l-4.097,2.087l0.253,0.497l4.095-2.086c0.369,0.714,0.755,1.419,1.154,2.118
	l-3.982,2.299l0.279,0.483l3.978-2.296c0.406,0.693,0.83,1.376,1.266,2.053l-3.856,2.504l0.304,0.468l3.851-2.501
	c0.441,0.67,0.902,1.329,1.373,1.983l-3.72,2.703l0.328,0.451l3.714-2.698c0.476,0.646,0.972,1.28,1.476,1.908l-3.574,2.894
	l0.351,0.433l3.567-2.888c0.509,0.62,1.038,1.226,1.574,1.828l-3.417,3.076l0.373,0.415l3.412-3.072
	c0.54,0.593,1.096,1.173,1.664,1.747l-3.249,3.249l0.394,0.395l3.248-3.248c0.573,0.568,1.155,1.123,1.747,1.664l-3.069,3.409
	l0.414,0.373l3.072-3.411c0.601,0.537,1.207,1.068,1.826,1.577l-2.88,3.556l0.434,0.351l2.886-3.563
	c0.628,0.505,1.26,1.002,1.906,1.479l-2.687,3.698l0.451,0.328l2.691-3.705c0.653,0.472,1.312,0.934,1.983,1.376l-2.487,3.829
	l0.468,0.304l2.49-3.834c0.677,0.437,1.36,0.862,2.053,1.269l-2.281,3.95l0.483,0.279l2.282-3.954
	c0.699,0.401,1.404,0.788,2.118,1.157l-2.069,4.061l0.497,0.253l2.07-4.063c0.719,0.363,1.444,0.711,2.177,1.042l-1.853,4.161
	l0.51,0.226l1.853-4.162c0.737,0.324,1.48,0.632,2.23,0.924l-1.632,4.252l0.521,0.2l1.632-4.251
	c0.753,0.284,1.512,0.551,2.277,0.803l-1.408,4.332l0.531,0.172l1.407-4.33c0.766,0.244,1.539,0.469,2.316,0.68l-1.179,4.402
	l0.539,0.144l1.178-4.398c0.778,0.203,1.562,0.385,2.349,0.555l-0.948,4.461l0.545,0.116l0.947-4.455
	c0.787,0.161,1.58,0.301,2.376,0.429l-0.714,4.507l0.551,0.087l0.713-4.5c0.794,0.12,1.594,0.216,2.395,0.303l-0.477,4.541
	l0.555,0.058l0.476-4.532c0.798,0.078,1.602,0.132,2.407,0.177l-0.239,4.562l0.557,0.029l0.239-4.558
	c0.848,0.039,1.699,0.06,2.553,0.062v4.332h1v-4.351c0.61-0.009,1.22-0.016,1.827-0.044l0.241,4.595
	c-0.982,0.046-1.968,0.072-2.958,0.072C78.783,156.422,63.396,150.048,51.824,138.475z M138.728,138.211l-3.254-3.253
	c0.567-0.574,1.125-1.154,1.664-1.747l3.419,3.079C139.965,136.943,139.351,137.581,138.728,138.211z M156.422,95.15
	c0,0.942-0.027,1.881-0.069,2.816l-4.596-0.241c0.038-0.856,0.063-1.714,0.063-2.576c0-0.917-0.024-1.83-0.067-2.74l4.596-0.241
	c0.031,0.658,0.038,1.32,0.048,1.982h-4.358v1H156.422z M140.474,53.921l-3.42,3.078c-0.539-0.591-1.093-1.171-1.659-1.742
	l3.254-3.253C139.271,52.633,139.881,53.271,140.474,53.921z M98.104,33.949l-0.243,4.595c-0.605-0.028-1.213-0.035-1.821-0.044
	v-4.601C96.729,33.909,97.418,33.917,98.104,33.949z"/>
</svg>
