<?xml version="1.0" encoding="iso-8859-1"?>
<!-- Generator: Adobe Illustrator 17.0.0, SVG Export Plug-In . SVG Version: 6.00 Build 0)  -->
<!DOCTYPE svg PUBLIC "-//W3C//DTD SVG 1.1//EN" "http://www.w3.org/Graphics/SVG/1.1/DTD/svg11.dtd">
<svg version="1.1" id="Objects1" xmlns="http://www.w3.org/2000/svg" xmlns:xlink="http://www.w3.org/1999/xlink" x="0px" y="0px"
	 width="68.403px" height="102.579px" viewBox="0 0 68.403 102.579" style="enable-background:new 0 0 68.403 102.579;"
	 xml:space="preserve">
<g>
	<path style="fill:#774939;" d="M33.997,43.496c-0.494,0.1-0.873,0.544-0.873,1.06c0,0.53,0.379,0.965,0.873,1.063
		c0.046,0.007,0.091,0.009,0.137,0.013v-2.149C34.088,43.487,34.043,43.489,33.997,43.496z"/>
	<path style="fill:#694031;" d="M34.206,43.476c-0.024,0-0.048,0.006-0.072,0.007v2.149c0.024,0.001,0.049,0.007,0.072,0.007
		c0.601,0,1.078-0.482,1.078-1.083C35.284,43.962,34.807,43.476,34.206,43.476z"/>
	<path style="fill:#FDBB16;" d="M33.997,48.793c-2.249-0.11-4.042-1.964-4.042-4.237c0-2.282,1.793-4.135,4.042-4.245
		c0.046-0.002,0.091-0.006,0.137-0.008v-4.009h-7.053l-4.785,2.381l0.78,1.7v13.06h11.058v-4.636
		C34.088,48.797,34.043,48.795,33.997,48.793z"/>
	<path style="fill:#E2AA15;" d="M40.912,36.294h-6.778v4.009c0.024-0.002,0.049-0.004,0.072-0.004c2.343,0,4.258,1.905,4.258,4.257
		c-0.005,2.344-1.915,4.247-4.258,4.247c-0.024,0-0.048-0.002-0.072-0.004v4.636h10.785v-13.06l0.77-1.7L40.912,36.294z"/>
	<polygon style="fill:#F26E25;" points="32,8.439 29.795,18.809 28.784,18.809 28.715,19 34.134,19 34.134,8.439 	"/>
	<polygon style="fill:#DA6426;" points="39.201,18.809 38.202,18.809 35.994,8.439 34.134,8.439 34.134,19 39.271,19 	"/>
	<path style="fill:#69462C;" d="M36.655,6.679l-1.472-0.841h-0.701V5.427c0.346-0.18,0.582-0.535,0.582-0.956
		c0-0.495-0.331-0.891-0.771-1.02V0h-0.159v8.439h1.86l-0.029-0.133l0.69-0.379V6.679z"/>
	<path style="fill:#785033;" d="M33.997,0H33.86v3.404c-0.545,0.05-0.96,0.511-0.96,1.061c0,0.431,0.243,0.792,0.606,0.971v0.388
		h-0.708l-1.462,0.855v1.243l0.691,0.385L32,8.439h2.134V0H33.997z"/>
	<polygon style="fill:#F26E25;" points="27.065,26.958 27.092,27 27.092,36.29 27.081,36.294 34.134,36.294 34.134,26.958 	"/>
	<polygon style="fill:#DA6426;" points="40.901,36.29 40.901,27.012 40.935,26.958 34.134,26.958 34.134,36.294 40.912,36.294 	"/>
	<polygon style="fill:#F9BB14;" points="28.715,19 27.012,23.69 27.012,25.002 26.669,25.275 34.134,25.275 34.134,19 	"/>
	<polygon style="fill:#E2AA15;" points="40.989,25.006 40.989,23.69 39.271,19 34.134,19 34.134,25.275 41.324,25.275 	"/>
	<polygon style="fill:#785033;" points="26.669,25.275 26.241,25.614 27.065,26.958 34.134,26.958 34.134,25.275 	"/>
	<polygon style="fill:#69462C;" points="41.755,25.619 41.324,25.275 34.134,25.275 34.134,26.958 40.935,26.958 	"/>
	<path style="fill:#DA6426;" d="M54.733,73.596l-2.082-1.081V60.776l0.771-1.557l-7.182-2.468v-3.011h-1.321v-0.306H34.134v7.856
		c0.024,0,0.048-0.004,0.072-0.004c1.979,0,2.401,1.803,2.401,1.803v5.116h-2.474v6.197h20.6V73.596z"/>
	<path style="fill:#F26E25;" d="M33.997,68.206h-2.19V63.09c0,0,0.401-1.667,2.19-1.79c0.046-0.004,0.091-0.006,0.137-0.009v-7.856
		H23.076v0.306h-1.318v3.011l-7.185,2.474l0.77,1.551v11.739l-2.088,1.081v0.808h20.879v-6.197H33.997z"/>
	<polygon style="fill:#785033;" points="13.255,74.404 13.255,74.764 0,74.764 0,77.011 0.828,77.011 0.828,77.159 34.134,77.159 
		34.134,74.404 	"/>
	<polygon style="fill:#69462C;" points="54.733,74.764 54.733,74.756 54.733,74.404 34.134,74.404 34.134,77.159 67.592,77.159 
		67.592,77.022 68.403,77.022 68.403,74.764 	"/>
	<path style="fill:#E2AA15;" d="M34.134,77.159v6.454c0.024,0,0.049-0.002,0.072-0.002c6.601,0,7.632,7.21,7.632,7.21v11.759h25.754
		V77.159H34.134z"/>
	<path style="fill:#F9BB14;" d="M0.828,77.159v25.421h25.753V90.821c0,0,1.012-7.048,7.416-7.202
		c0.046-0.002,0.091-0.004,0.137-0.006v-6.454H0.828z"/>
</g>
</svg>
