<?xml version="1.0" encoding="utf-8"?>
<!-- Generator: Adobe Illustrator 17.0.0, SVG Export Plug-In . SVG Version: 6.00 Build 0)  -->
<!DOCTYPE svg PUBLIC "-//W3C//DTD SVG 1.1//EN" "http://www.w3.org/Graphics/SVG/1.1/DTD/svg11.dtd">
<svg version="1.1" id="图层_1" xmlns="http://www.w3.org/2000/svg" xmlns:xlink="http://www.w3.org/1999/xlink" x="0px" y="0px"
	 width="163.794px" height="37.445px" viewBox="0 0 163.794 37.445" enable-background="new 0 0 163.794 37.445"
	 xml:space="preserve">
<path fill="#111111" d="M131.899,10.524c-0.43,2.172-0.643,4.609-0.643,7.31c-0.073,2.501,1,3.587,3.214,3.259
	c1.501-0.395,2.924-0.922,4.283-1.581l0.537,0.691c-2.287,1.446-4.179,2.337-5.676,2.666c-3.787,0.858-5.678-0.724-5.678-4.738
	c0-1.319,0.107-3.655,0.318-7.011c0-0.66,0.109-1.121,0.325-1.383l-0.43,0.098c-1.283,4.147-2.712,8.065-4.283,11.752
	c-1.286-0.067-2.502,0-3.642,0.195c0,0.133,0,0.297,0,0.493c-0.787,0-1.893,0.069-3.32,0.201c0.213-3.754,0.356-7.241,0.429-10.469
	c-0.073,0.066-0.144,0.165-0.216,0.297c-0.142,0.262-0.25,0.427-0.322,0.493c-1.785,0-3.035,0.098-3.749,0.296
	c2.213-3.423,4.034-6.584,5.463-9.482c0.643-1.185,1.501-1.58,2.57-1.185c0.998,0.397,1.215,1.089,0.643,2.075
	c-0.858,1.578-1.749,3.094-2.677,4.543c1.285,0.326,1.819,0.856,1.606,1.58c0,3.028-0.143,6.616-0.428,10.763
	c1.498-2.434,2.928-5.925,4.285-10.467c-0.073,0.066-0.25,0.133-0.535,0.199c-0.216,0.13-0.396,0.227-0.539,0.294
	c-0.998,0.462-1.749,0.297-2.25-0.493c-0.357-0.789,0-1.382,1.075-1.778c0.497-0.132,1.461-0.328,2.893-0.593
	c0.213-0.724,0.534-1.81,0.962-3.256c0.215-0.922,0.393-1.614,0.534-2.075c0.216-0.988,0.857-1.383,1.93-1.188
	c0.929,0.266,1.355,0.758,1.286,1.484c-0.143,0.79-0.465,1.975-0.964,3.553c-0.071,0.461-0.144,0.79-0.215,0.988
	c4.714-0.395,7.783-0.56,9.214-0.492l0.426,0.786c-2.641,0.269-5.106,0.562-7.391,0.891C131.505,9.439,131.828,9.866,131.899,10.524
	z M134.577,4.004c0.142,0.133,0.355,0.465,0.643,0.988c0.429,0.724,0.712,1.154,0.857,1.286c-1,0.066-2.107,0.265-3.322,0.594
	c-0.285-0.263-0.749-0.957-1.391-2.075c-0.357-0.66-0.216-1.152,0.426-1.481C132.861,2.788,133.792,3.019,134.577,4.004z
	 M141.302,8.056c0.501,0,0.82,0.165,0.964,0.493c0.57-0.133,1.145-0.294,1.713-0.493c0.071-0.856,0.213-1.777,0.429-2.763
	c-0.501,0.129-1.287,0.392-2.356,0.786c-0.431,0.133-0.751,0.23-0.965,0.3c-1.285,0.392-2.071,0.13-2.357-0.792
	c-0.286-0.724,0.5-1.349,2.357-1.876c3.785-0.855,7.569-1.087,11.354-0.692l0.213,0.985c-0.284,0-0.748,0.035-1.392,0.101
	c-0.64,0-1.105,0.032-1.392,0.099c-0.07,0.133-0.143,0.363-0.213,0.691c-0.287,1.121-0.464,1.978-0.536,2.571
	c2.285,0.062,3.567,1.219,3.854,3.454c0.357-0.198,0.784-0.362,1.286-0.495c0.858-0.129,1.749-0.227,2.678-0.294
	c0.142-0.922,0.251-1.715,0.323-2.371c-0.572,0.065-1.287,0.23-2.143,0.495c-0.357,0.064-0.645,0.13-0.858,0.196
	c-1.356,0.461-1.999,0.196-1.929-0.79c0-0.195,0.037-0.331,0.108-0.397c0.287-1.185,0.645-2.272,1.07-3.26
	c0.358-1.181,1.074-1.74,2.145-1.677c0.927,0.132,1.25,0.691,0.962,1.677c-0.142,0.398-0.318,0.957-0.536,1.681
	c-0.07,0.331-0.139,0.562-0.213,0.694c0.143,0,0.358,0,0.644,0c0.354-0.069,0.64-0.101,0.858-0.101
	c0.141-0.922,0.247-1.907,0.32-2.963c0-1.117,0.463-1.68,1.392-1.68c1.07,0,1.608,0.594,1.608,1.778c0,0.265-0.037,0.69-0.112,1.285
	c0,0.594-0.034,1.054-0.104,1.38c0.856,0,1.679-0.031,2.464-0.098l0.322,0.891c-0.932,0.066-1.895,0.164-2.895,0.294
	c-0.07,0.464-0.178,1.089-0.321,1.878c-0.069,0.396-0.104,0.657-0.104,0.79c1.426,0,2.641,0.032,3.64,0.098l0.214,0.79
	c-4.211,0.462-7.495,1.153-9.852,2.075c-0.358,0.133-0.645,0.098-0.857-0.102c-0.072,0.266-0.109,0.562-0.109,0.891
	c-0.287,3.884-0.606,6.749-0.963,8.59c-1.142-0.195-2.177-0.129-3.106,0.199c0-0.066,0.034-0.132,0.105-0.199
	c0.073-0.195,0.109-0.489,0.109-0.887c-2.784,0.066-6,0.758-9.641,2.074c0.07-4.74,0.215-9.184,0.428-13.331
	C139.837,8.648,140.303,7.99,141.302,8.056z M142.371,11.019c0,0.726-0.036,1.844-0.105,3.357c0,1.516-0.036,2.637-0.107,3.356
	c0.071,0,0.143-0.031,0.212-0.098h0.107c0.357-1.513,0.751-3.982,1.181-7.405C143.229,10.425,142.801,10.689,142.371,11.019z
	 M142.159,20.796c2.427-0.328,4.854-0.559,7.284-0.691c0.143-0.527,0.214-1.055,0.214-1.582c-3.072,0.265-5.57,0.628-7.499,1.09
	L142.159,20.796L142.159,20.796z M146.55,9.142c-0.072,0-0.143,0.032-0.213,0.099c-0.144,0.066-0.36,0.099-0.644,0.099
	c-0.144,0.988-0.356,2.536-0.643,4.642c-0.215,1.58-0.357,2.764-0.428,3.557c0.857-0.067,2.033-0.13,3.534-0.199
	c0.784-0.063,1.356-0.098,1.713-0.098c0.074-0.395,0.108-0.821,0.108-1.283c-0.355,0.264-1.071,0.493-2.144,0.689
	c-1.356,0.199-1.962-0.92-1.819-3.357c0.072-0.457,0.179-1.25,0.323-2.369C146.407,10.131,146.478,9.538,146.55,9.142z
	 M147.299,4.602c-0.286,0.132-0.643,0.195-1.069,0.195c0,0.328-0.073,0.888-0.215,1.681c-0.073,0.524-0.106,0.921-0.106,1.183
	c0.285,0,0.57-0.031,0.855-0.098c0.071-0.331,0.18-0.891,0.323-1.681C147.156,5.357,147.227,4.93,147.299,4.602z M149.978,10.524
	c-0.072-1.252-0.465-1.839-1.179-1.775c0,0.13-0.035,0.328-0.108,0.591c-0.142,1.185-0.248,2.405-0.321,3.656
	c-0.213,1.513,0.073,2.138,0.857,1.876c0.286-0.133,0.574-0.198,0.858-0.198C150.227,13.289,150.191,11.906,149.978,10.524z
	 M154.908,13.19c0.426,0,0.818,0.099,1.174,0.298c0.932-0.328,1.93-0.527,3.002-0.594c2.141,0.067,3.285,0.956,3.428,2.666
	c-0.143,1.648-0.394,3.161-0.753,4.544c0.289,0,0.538,0,0.753,0l0.32,0.888c-0.359,0.069-0.855,0.133-1.5,0.198
	c-1.927,0.196-3.393,0.458-4.392,0.79c0,0.263,0,0.461,0,0.594c-1.214-0.067-2.143,0.098-2.784,0.492
	c-0.145-0.988-0.25-3.193-0.322-6.616c-0.073-0.724-0.105-1.25-0.105-1.579C153.728,13.685,154.121,13.125,154.908,13.19z
	 M156.512,15.561c0.07,0.593,0.14,1.547,0.215,2.863c0.069,0.926,0.106,1.582,0.106,1.978c0.215,0,0.537-0.034,0.964-0.098
	c0.499,0,0.856-0.034,1.069-0.101c0.43-1.449,0.645-2.993,0.645-4.642c0-0.592-0.07-0.951-0.215-1.086
	c-0.143-0.197-0.465-0.197-0.963,0C157.974,14.54,157.371,14.903,156.512,15.561z"/>
<path fill="#F2333D" d="M24.085,6.595L11.862,34.04c-0.755,1.657-1.92,3.48-4.636,2.276C4.696,35.195,5.595,33.1,6.01,32.19
	l3.329-7.063L1.153,6.603C0.994,6.06-0.401,2.927,2.214,1.944C4.766,0.984,6.24,2.563,7.066,4.72c0,0,5.151,12.719,5.23,12.933
	c0.08,0.214,0.392,0.219,0.472,0.012c0.081-0.208,5.505-13.25,5.505-13.25c0.662-1.553,1.498-3.62,4.625-2.516
	C26.128,3.039,24.085,6.595,24.085,6.595z M33.803,0.763c-6.427,0-11.64,5.108-11.64,11.414s4.468,11.417,11.64,11.417
	c7.716,0,11.638-5.111,11.638-11.417S40.23,0.763,33.803,0.763z M33.803,18.447c-2.867,0-5.191-2.727-5.191-6.086
	c0-3.362,2.324-6.086,5.191-6.086c2.865,0,5.189,2.724,5.189,6.086C38.992,15.721,36.668,18.447,33.803,18.447z M66.106,8.143
	c0.422-2.092-0.347-3.363-2.328-3.904c-1.961-0.355-3.227,0.529-3.882,2.588L57.32,17.104c-0.654,2.161-2.496,3.297-4.957,2.746
	c-3.65-0.815-3.493-3.526-3.259-4.449L51.692,5.09c0.433-2.081-0.253-3.354-2.099-3.901c-2.038-0.355-3.384,0.532-4.038,2.587
	l-2.576,10.245c-0.28,1.294-2.131,7.858,8.246,10.302C57.06,25.7,61.914,23.62,63.501,18.45L66.106,8.143z"/>
<path fill="#1ABCE8" d="M105.319,1.806c-1.991,0.072-3.075,1.219-3.154,3.349V15.73c-0.115,2.237-1.873,3.692-4.176,3.692
	c-2.416,0-4.063-1.458-4.18-3.692L93.792,5.154C93.68,3.024,92.7,1.869,90.745,1.8c-2.164,0-3.153,1.233-3.268,3.363v10.581
	c0.228,5.32,3.714,8.115,10.497,8.222c6.821-0.106,10.245-2.896,10.542-8.236V5.154C108.398,3.024,107.313,1.878,105.319,1.806z
	 M85.991,2.893c-1.792-1.709-4.073-0.73-4.897,0.028l-8.217,7.763l-0.044-5.622c-0.052-1.893-1.121-3.097-3.327-3.097
	c-2.27,0-3.202,1.138-3.32,3.092v16.128c0.118,1.882,1.251,2.796,3.33,2.796c2.171,0.009,3.256-0.985,3.342-2.784l0.009-5.999
	c0,0,8.669,7.33,9.14,7.731c1.396,1.144,3.685,1.023,4.824-0.072c1.206-1.158,0.921-3.533-0.53-4.764l-6.284-5.328l5.629-4.904
	C85.647,7.86,88.431,5.215,85.991,2.893z"/>
</svg>
