<?xml version="1.0" encoding="utf-8"?>
<!-- Generator: Adobe Illustrator 17.0.0, SVG Export Plug-In . SVG Version: 6.00 Build 0)  -->
<!DOCTYPE svg PUBLIC "-//W3C//DTD SVG 1.1//EN" "http://www.w3.org/Graphics/SVG/1.1/DTD/svg11.dtd">
<svg version="1.1" id="_x31_200_x__x_800_px" xmlns="http://www.w3.org/2000/svg" xmlns:xlink="http://www.w3.org/1999/xlink"
	 x="0px" y="0px" width="15.739px" height="129.56px" viewBox="0 0 15.739 129.56" enable-background="new 0 0 15.739 129.56"
	 xml:space="preserve">
<path fill="#FFAC33" d="M15.104,61.731c-0.904-2.11-2.658-3.665-4.76-4.362l-0.228-21.397c0.989-0.326,1.905-0.917,2.623-1.774
	c1.891-2.263,1.751-5.545-0.214-7.644c-0.627-0.917-2.757-4.405-2.845-9.641C9.577,10.771,9.11-0.071,8.437,0
	c-0.672,0.07-1.328,16.071-1.328,16.071s-0.061,5.554-2.683,9.865c0,0-0.291,0.544-0.548,0.851c-2.046,2.448-1.72,6.089,0.727,8.135
	c0.662,0.553,1.41,0.927,2.192,1.138L5.728,57.263c-0.323,0.092-0.643,0.197-0.956,0.331c-3.988,1.708-5.844,6.343-4.137,10.332
	c1.242,2.9,4.083,4.774,7.238,4.774c1.066,0,2.107-0.214,3.094-0.637C14.956,70.355,16.811,65.72,15.104,61.731z M10.405,70.751
	c-0.809,0.346-1.661,0.521-2.532,0.521c-2.583,0-4.909-1.534-5.926-3.908c-1.398-3.266,0.122-7.06,3.387-8.458
	c0.809-0.346,1.661-0.522,2.532-0.522c2.583,0,4.909,1.534,5.926,3.908C15.19,65.559,13.671,69.353,10.405,70.751z M10.056,63.893
	c0.517,1.207-0.042,2.606-1.251,3.123c-1.207,0.517-2.607-0.043-3.123-1.25c-0.517-1.208,0.043-2.606,1.25-3.123
	C8.141,62.125,9.539,62.684,10.056,63.893z"/>
</svg>
