<?xml version="1.0" encoding="utf-8"?>
<!-- Generator: Adobe Illustrator 17.0.0, SVG Export Plug-In . SVG Version: 6.00 Build 0)  -->
<!DOCTYPE svg PUBLIC "-//W3C//DTD SVG 1.1//EN" "http://www.w3.org/Graphics/SVG/1.1/DTD/svg11.dtd">
<svg version="1.1" id="图层_1" xmlns="http://www.w3.org/2000/svg" xmlns:xlink="http://www.w3.org/1999/xlink" x="0px" y="0px"
	 width="32px" height="34px" viewBox="0 0 32 34" enable-background="new 0 0 32 34" xml:space="preserve">
<path fill="#FF83A1" d="M30.828,30.422c-0.264,0.001-0.531,0.024-0.792-0.004c-0.958-0.104-1.656,0.984-1.988,2.131
	c-0.299,1.033-1.434,1.561-2.456,1.455c-1.18-0.121-1.961-0.796-2.262-1.863C23.149,31.496,22.602,30.996,22,31
	c-4.153,0.024-7.847,0.012-12,0c-0.478-0.001-0.988,0.457-1.128,1.02c-0.299,1.208-1.326,1.975-2.463,1.994
	c-1.177,0.02-2.2-0.727-2.543-1.981c-0.144-0.525-0.387-1.648-0.889-1.62c-0.646,0.036-1.296,0.018-1.944,0.007
	c-0.708-0.013-1.021-0.297-1.021-0.969c0.005-6.833,0.015-13.665,0.033-20.498C0.047,8.247,0.34,8.009,1.154,8.008
	c3.337-0.004,6.674-0.002,10.011-0.002c0.233,0,0.466,0,0.698,0c0.021-0.057,0.043-0.115,0.064-0.173
	c-0.775-0.407-1.55-0.814-2.324-1.222C8.318,5.933,7.031,5.257,5.748,4.576C5.228,4.3,5.012,3.879,5.306,3.357
	c0.297-0.528,0.788-0.56,1.301-0.29c3.013,1.589,6.027,3.176,9.029,4.782c0.769,0.412,2.153,0.165,2.648-0.531
	c1.535-2.164,3.069-4.328,4.604-6.493c0.054-0.076,0.106-0.155,0.162-0.23c0.438-0.588,0.935-0.747,1.387-0.4
	c0.523,0.401,0.433,0.877,0.097,1.354c-0.623,0.883-1.246,1.765-1.868,2.648c-0.862,1.224-1.723,2.449-2.68,3.809
	c0.392,0,0.643,0,0.894,0c3.314,0,6.627-0.001,9.94,0.001c1.012,0.001,1.168,0.154,1.169,1.138
	c0.01,6.716,0.019,13.432,0.025,20.148C32.015,30.253,31.838,30.416,30.828,30.422z M25.848,32.431
	c0.53-0.035,0.782-1.439,0.943-1.97c-0.689,0-1.299,0-2.004,0C24.984,31.045,25.257,32.471,25.848,32.431z M6.318,32.432
	c0.587,0.036,0.864-1.383,1.039-1.966c-0.694,0-1.301,0-1.974,0C5.517,31.015,5.793,32.4,6.318,32.432z M30,10
	c-9.588,0-18.468,0-28,0c0,6.462,0,12.576,0,19c9.579,0,18.42,0,28,0C30,22.528,30,16.432,30,10z M4,13.882
	c0.002-0.926,0.449-1.831,1.381-1.832c7.113-0.001,13.66-0.052,20.773-0.05c0.946,0,1.843,0.966,1.846,1.882
	c0.012,4.418-0.007,7.818,0,12.236c0.002,0.944-0.854,1.881-1.846,1.882c-3.546,0.002-6.609,0-10.154,0s-6.608,0.002-10.154,0
	C4.814,27.999,3.999,27.135,4,26.118C4.005,21.722,3.992,18.278,4,13.882z M26.297,25.981c0-4.177-0.143-8.01-0.143-12.099
	c-6.864,0-13.505,0-20.308,0c0,4.153-0.024,7.984-0.024,12.099C12.673,25.981,19.463,25.981,26.297,25.981z M11.608,16.318
	c0.058-0.026,0.13-0.021,0.372-0.056c0.141,0.138,0.497,0.328,0.535,0.566c0.043,0.278-0.106,0.763-0.321,0.872
	c-1.314,0.667-2.664,1.268-4.017,1.857c-0.412,0.179-0.865,0.044-0.97-0.396c-0.069-0.288,0.055-0.835,0.262-0.939
	C8.823,17.537,10.222,16.94,11.608,16.318z M12.021,20.776c0.256-0.009,0.587,0.345,0.772,0.615c0.148,0.215,0.086,0.559,0.19,0.819
	c0.197,0.495,0.568,0.966,1.116,0.85c0.405-0.085,0.775-0.49,1.079-0.826c0.15-0.166,0.125-0.494,0.161-0.751
	c0.068-0.484,0.354-0.782,0.832-0.77c0.437,0.011,0.721,0.275,0.777,0.748c0.036,0.299,0.044,0.67,0.223,0.869
	c0.286,0.318,0.698,0.702,1.067,0.714c0.334,0.011,0.74-0.393,1.003-0.705c0.175-0.207,0.165-0.573,0.22-0.872
	c0.089-0.477,0.365-0.767,0.859-0.729c0.491,0.038,0.749,0.354,0.73,0.847c-0.047,1.251-0.544,2.268-1.716,2.826
	c-1.092,0.521-2.112,0.297-3.006-0.504c-0.048-0.043-0.106-0.074-0.166-0.115c-0.272,0.189-0.524,0.408-0.813,0.559
	c-0.945,0.493-1.891,0.452-2.763-0.154c-0.962-0.67-1.391-1.646-1.305-2.781C11.299,21.17,11.755,20.785,12.021,20.776z
	 M18.997,16.26c0.232-0.406,0.644-0.517,1.029-0.298c1.529,0.871,3.041,1.772,4.543,2.686c0.18,0.109,0.264,0.371,0.327,0.465
	c0.017,0.743-0.598,1.147-1.164,0.828c-1.513-0.853-3.001-1.751-4.487-2.652C18.853,17.051,18.77,16.656,18.997,16.26z"/>
</svg>
