<?xml version="1.0" encoding="iso-8859-1"?>
<!-- Generator: Adobe Illustrator 17.0.0, SVG Export Plug-In . SVG Version: 6.00 Build 0)  -->
<!DOCTYPE svg PUBLIC "-//W3C//DTD SVG 1.1//EN" "http://www.w3.org/Graphics/SVG/1.1/DTD/svg11.dtd">
<svg version="1.1" id="&#x56FE;&#x5C42;_1" xmlns="http://www.w3.org/2000/svg" xmlns:xlink="http://www.w3.org/1999/xlink" x="0px"
	 y="0px" width="532.705px" height="776.693px" viewBox="0 0 532.705 776.693" style="enable-background:new 0 0 532.705 776.693;"
	 xml:space="preserve">
<path style="fill:#E5A723;" d="M11.054,720.349v3.886h6.925v-11.618H7.625v-19.293h13.784v11.632h-6.79v-4.058h3.36v-3.749h-6.925
	v11.634h10.355v19.284H7.625v-11.623h7.213v3.905H11.054z M14.842,682.422c0-1.302,0-2.603,0-3.902c-2.406,0-4.812,0-7.218,0
	c0,3.875,0,7.75,0,11.627c4.599-0.002,9.195-0.002,13.794,0c0-6.43,0-12.859,0-19.287c-3.453-0.001-6.907-0.001-10.359,0
	c0-3.878,0-7.758,0-11.635c2.306,0,4.612,0,6.92,0c0,1.249,0,2.498,0,3.747c-1.121,0-2.24,0-3.36,0c0,1.354,0,2.706,0,4.061
	c2.268-0.002,4.534-0.002,6.8,0c0-3.881,0-7.757,0-11.634C16.82,655.4,12.224,655.4,7.625,655.4c0,6.429,0,12.862,0,19.291
	c3.45,0,6.902,0,10.354,0c0,3.874,0,7.747,0,11.62c-2.308,0-4.614,0-6.92,0c0-1.297,0-2.594,0-3.889
	C12.321,682.422,13.582,682.422,14.842,682.422z M14.84,644.501c0-1.303,0-2.604,0-3.904c-2.404,0-4.81,0-7.216,0
	c0,3.875,0,7.75,0,11.627c4.597,0,9.195,0,13.792,0c0-6.43,0-12.859,0-19.287c-3.451-0.001-6.905-0.001-10.358,0
	c0-3.878,0-7.758,0-11.635c2.307,0,4.613,0,6.921,0c0,1.249,0,2.498,0,3.749c-1.121,0-2.24,0-3.36,0c0,1.353,0,2.704,0,4.06
	c2.267,0,4.532,0,6.798,0c0-3.881,0-7.757,0-11.634c-4.597,0-9.195,0-13.792,0c0,6.431,0,12.862,0,19.291c3.45,0,6.902,0,10.354,0
	c0,3.874,0,7.747,0,11.62c-2.308,0-4.614,0-6.921,0c0-1.297,0-2.592,0-3.887C12.319,644.501,13.58,644.501,14.84,644.501z
	 M14.84,606.577c0-1.303,0-2.604,0-3.904c-2.405,0-4.81,0-7.216,0c0,3.877,0,7.75,0,11.627c4.597,0,9.195,0,13.792,0
	c0-6.43,0-12.859,0-19.287c-3.453,0-6.905,0-10.358,0c0-3.878,0-7.758,0-11.635c2.307,0,4.613,0,6.921,0c0,1.249,0,2.498,0,3.751
	c-1.121,0-2.24,0-3.36,0c0,1.351,0,2.702,0,4.058c2.267,0,4.532,0,6.798,0c0-3.877,0-7.757,0-11.634c-4.597,0-9.195,0-13.792,0
	c0,6.431,0,12.862,0,19.293c3.45-0.002,6.902-0.002,10.354,0c0,3.871,0,7.745,0,11.618c-2.308,0-4.614,0-6.921,0
	c0-1.297,0-2.59,0-3.887C12.319,606.577,13.58,606.577,14.84,606.577z M14.84,568.653c0-1.301,0-2.604,0-3.904
	c-2.405,0-4.81,0-7.216,0c0,3.877,0,7.75,0,11.627c4.597,0,9.194,0,13.792,0c0-6.43,0-12.857,0-19.287c-3.453,0-6.906,0-10.358,0
	c0-3.878,0-7.756,0-11.635c2.307,0,4.613,0,6.921,0c0,1.249,0,2.5,0,3.751c-1.121,0-2.24,0-3.36,0c0,1.351,0,2.704,0,4.058
	c2.267,0,4.532,0,6.798,0c0-3.877,0-7.756,0-11.634c-4.598,0-9.195,0-13.792,0c0,6.433,0,12.862,0,19.295
	c3.45-0.002,6.902-0.002,10.354,0c0,3.869,0,7.743,0,11.616c-2.308,0-4.614,0-6.921,0c0-1.297,0-2.59,0-3.887
	C12.319,568.653,13.58,568.653,14.84,568.653z M14.84,530.729c0-1.301,0-2.602,0-3.904c-2.405,0-4.81,0-7.216,0
	c0,3.877,0,7.75,0,11.627c4.597,0,9.194,0,13.79,0c0-6.43,0-12.857,0-19.285c-3.451,0-6.904,0-10.356,0c0-3.88,0-7.756,0-11.637
	c2.307,0,4.613,0,6.921,0c0,1.249,0,2.502,0,3.751c-1.119,0-2.239,0-3.36,0c0,1.35,0,2.706,0,4.058c2.267,0,4.532,0,6.796,0
	c0-3.877,0-7.756,0-11.632c-4.596-0.002-9.193-0.002-13.79,0c0,6.431,0,12.86,0,19.293c3.45,0,6.902,0,10.354,0
	c0,3.871,0,7.743,0,11.616c-2.308,0-4.614,0-6.921,0c0-1.295,0-2.59,0-3.887C12.319,530.729,13.58,530.729,14.84,530.729z
	 M14.84,492.805c0-1.301,0-2.601,0-3.902c-2.405-0.002-4.81-0.002-7.216,0c0,3.875,0,7.75,0,11.625c4.597,0,9.194,0,13.79,0
	c0-6.43,0-12.855,0-19.285c-3.451,0-6.904,0-10.358,0c0-3.88,0-7.756,0-11.637c2.309,0,4.615,0,6.923,0c0,1.251,0,2.502,0,3.751
	c-1.119,0-2.239,0-3.36,0c0,1.353,0,2.706,0,4.058c2.267,0,4.53,0,6.796,0c0-3.877,0-7.754,0-11.632c-4.596,0-9.193,0-13.79,0
	c0,6.431,0,12.861,0,19.293c3.45,0,6.902,0,10.354,0c0,3.873,0,7.744,0,11.616c-2.308,0-4.614,0-6.923,0c0-1.295,0-2.59,0-3.887
	C12.319,492.805,13.58,492.805,14.84,492.805z M14.84,454.881c0-1.301,0-2.6,0-3.902c-2.405-0.002-4.811-0.002-7.216,0
	c0,3.875,0,7.751,0,11.625c4.597,0,9.192,0,13.789,0c0-6.428,0-12.855,0-19.285c-3.452,0-6.903,0-10.357,0c0-3.878,0-7.756,0-11.635
	c2.307,0,4.614,0,6.923,0c0,1.251,0,2.5,0,3.749c-1.119,0-2.239,0-3.36,0c0,1.353,0,2.706,0,4.059c2.267,0,4.53,0,6.795,0
	c0-3.878,0-7.755,0-11.632c-4.597,0-9.192,0-13.789,0c0,6.43,0,12.86,0,19.292c3.452,0,6.902,0,10.354,0c0,3.873,0,7.746,0,11.618
	c-2.309,0-4.616,0-6.923,0c0-1.295,0-2.592,0-3.889C12.317,454.881,13.58,454.881,14.84,454.881z M14.84,416.958
	c0-1.302,0-2.602,0-3.902c-2.405,0-4.811,0-7.216,0c0,3.874,0,7.75,0,11.624c4.597,0,9.192,0,13.789,0c0-6.428,0-12.855,0-19.285
	c-3.452,0-6.903,0-10.357,0c0-3.878,0-7.757,0-11.633c2.307,0,4.614,0,6.923,0c0,1.249,0,2.498,0,3.747c-1.119,0-2.239,0-3.36,0
	c0,1.354,0,2.706,0,4.059c2.267,0,4.53,0,6.795,0c0-3.878,0-7.755,0-11.632c-4.597,0-9.192,0-13.789,0c0,6.43,0,12.862,0,19.292
	c3.452,0,6.902,0,10.354,0c0,3.873,0,7.746,0,11.619c-2.309,0-4.616,0-6.923,0c0-1.297,0-2.593,0-3.889
	C12.317,416.958,13.58,416.958,14.84,416.958z M14.84,379.037c0-1.304,0-2.604,0-3.904c-2.405,0-4.811,0-7.216,0
	c0,3.874,0,7.75,0,11.625c4.596,0,9.192,0,13.789,0c0-6.429,0-12.856,0-19.286c-3.454,0-6.905,0-10.357,0c0-3.876,0-7.757,0-11.633
	c2.307,0,4.614,0,6.923,0c0,1.249,0,2.498,0,3.747c-1.119,0-2.239,0-3.36,0c0,1.354,0,2.706,0,4.061c2.267,0,4.53,0,6.795,0
	c0-3.88,0-7.757,0-11.634c-4.597,0-9.193,0-13.789,0c0,6.432,0,12.862,0,19.292c3.452,0,6.902,0,10.354,0c0,3.873,0,7.746,0,11.619
	c-2.309,0-4.616,0-6.923,0c0-1.297,0-2.593,0-3.887C12.317,379.035,13.579,379.035,14.84,379.037z M14.839,341.113
	c0-1.302,0-2.604,0-3.904c-2.404,0-4.81,0-7.215,0c0,3.874,0,7.75,0,11.625c4.596,0,9.192,0,13.787,0c0-6.427,0-12.857,0-19.286
	c-3.452,0-6.903,0-10.356,0c0-3.876,0-7.757,0-11.633c2.307,0,4.614,0,6.923,0c0,1.249,0,2.498,0,3.75c-1.119,0-2.239,0-3.36,0
	c0,1.352,0,2.703,0,4.058c2.267,0,4.528,0,6.793,0c0-3.878,0-7.757,0-11.634c-4.594,0-9.19,0-13.786,0c0,6.432,0,12.862,0,19.292
	c3.452,0,6.902,0,10.354,0c0,3.873,0,7.746,0,11.619c-2.309,0-4.616,0-6.923,0c0-1.297,0-2.592,0-3.887
	C12.317,341.113,13.579,341.113,14.839,341.113z M14.839,303.189c0-1.3,0-2.604,0-3.904c-2.404,0-4.81,0-7.215,0
	c0,3.875,0,7.75,0,11.627c4.596,0,9.192,0,13.787,0c0-6.429,0-12.858,0-19.286c-3.452,0-6.903,0-10.356,0c0-3.878,0-7.757,0-11.635
	c2.307,0,4.614,0,6.923,0c0,1.249,0,2.499,0,3.75c-1.119,0-2.239,0-3.36,0c0,1.352,0,2.705,0,4.058c2.265,0,4.528,0,6.793,0
	c0-3.878,0-7.757,0-11.634c-4.594,0-9.19,0-13.786,0c0,6.434,0,12.862,0,19.295c3.452,0,6.902,0,10.354,0c0,3.87,0,7.743,0,11.616
	c-2.309,0-4.616,0-6.923,0c0-1.297,0-2.592,0-3.887C12.317,303.189,13.579,303.189,14.839,303.189z M14.839,265.265
	c0-1.3,0-2.603,0-3.904c-2.404,0-4.81,0-7.215,0c0,3.877,0,7.75,0,11.627c4.596,0,9.19,0,13.785,0c0-6.429,0-12.858,0-19.286
	c-3.45,0-6.903,0-10.355,0c0-3.878,0-7.755,0-11.635c2.309,0,4.616,0,6.925,0c0,1.249,0,2.501,0,3.75c-1.119,0-2.239,0-3.36,0
	c0,1.352,0,2.706,0,4.058c2.265,0,4.528,0,6.791,0c0-3.877,0-7.755,0-11.634c-4.595,0-9.189,0-13.785,0c0,6.434,0,12.862,0,19.295
	c3.452,0,6.902,0,10.354,0c0,3.872,0,7.743,0,11.616c-2.309,0-4.616,0-6.925,0c0-1.297,0-2.59,0-3.887
	C12.315,265.265,13.578,265.265,14.839,265.265z M0,0v388.346h4.067V4.068h524.571v384.279v384.278H4.067V388.347H0v388.346v0.001
	h532.705V388.347V0H0z M25.417,388.347v362.93H507.29v-362.93h-4.068V747.21H29.483V388.347V29.481h473.738v358.865h4.069V25.417
	H25.417V388.347z M14.413,38.369v-3.677H7.625V45.23h13.782V27.68H11.054v-8.912l3.14,2.984v2.532h7.213L7.625,10.36v20.859h10.354
	v10.476h-6.925v-3.326H14.413z M14.839,227.341c0-1.3,0-2.602,0-3.904c-2.404,0-4.81,0-7.215,0c0,3.877,0,7.75,0,11.627
	c4.596,0,9.19,0,13.785,0c0-6.429,0-12.858,0-19.284c-3.452-0.002-6.903-0.002-10.355,0c0-3.88,0-7.757,0-11.637
	c2.309,0,4.616,0,6.925,0c0,1.25,0,2.501,0,3.75c-1.119,0-2.239,0-3.36,0c0,1.352,0,2.706,0,4.058c2.265,0,4.528,0,6.791,0
	c0-3.877,0-7.753,0-11.632c-4.595-0.002-9.189-0.002-13.785,0c0,6.432,0,12.862,0,19.293c3.452,0,6.902,0,10.354,0
	c0,3.873,0,7.745,0,11.616c-2.309,0-4.616,0-6.925,0c0-1.295,0-2.59,0-3.887C12.315,227.341,13.578,227.341,14.839,227.341z
	 M14.839,189.417c0-1.3,0-2.601,0-3.904c-2.404,0-4.81,0-7.215,0c0,3.877,0,7.75,0,11.627c4.596,0,9.19,0,13.785,0
	c0-6.429,0-12.858,0-19.284c-3.452,0-6.903,0-10.355,0c0-3.88,0-7.757,0-11.637c2.309,0,4.616,0,6.925,0c0,1.252,0,2.501,0,3.75
	c-1.119,0-2.239,0-3.36,0c0,1.354,0,2.706,0,4.058c2.265,0,4.527,0,6.791,0c0-3.877,0-7.753,0-11.632c-4.595,0-9.189,0-13.785,0
	c0,6.432,0,12.862,0,19.293c3.452,0,6.902,0,10.354,0c0,3.873,0,7.745,0,11.616c-2.309,0-4.616,0-6.925,0c0-1.293,0-2.59,0-3.887
	C12.315,189.417,13.578,189.417,14.839,189.417z M14.839,151.496c0-1.302,0-2.602,0-3.904c-2.404,0-4.81,0-7.215,0
	c0,3.875,0,7.748,0,11.625c4.596,0,9.188,0,13.784,0c0-6.429,0-12.856,0-19.284c-3.452,0-6.902,0-10.354,0c0-3.879,0-7.757,0-11.634
	c2.309,0,4.616,0,6.925,0c0,1.249,0,2.498,0,3.747c-1.119,0-2.239,0-3.36,0c0,1.354,0,2.706,0,4.058c2.265,0,4.527,0,6.79,0
	c0-3.877,0-7.753,0-11.63c-4.596,0-9.188,0-13.784,0c0,6.43,0,12.861,0,19.291c3.452,0,6.902,0,10.354,0c0,3.873,0,7.746,0,11.618
	c-2.309,0-4.616,0-6.925,0c0-1.295,0-2.592,0-3.887C12.315,151.496,13.578,151.496,14.839,151.496z M14.839,113.572
	c0-1.302,0-2.603,0-3.902c-2.404,0-4.81,0-7.215,0c0,3.873,0,7.748,0,11.623c4.596,0,9.188,0,13.784,0c0-6.429,0-12.855,0-19.284
	c-3.452,0-6.904,0-10.354,0c0-3.879,0-7.757,0-11.634c2.309,0,4.616,0,6.925,0c0,1.249,0,2.498,0,3.747c-1.119,0-2.239,0-3.36,0
	c0,1.354,0,2.706,0,4.06c2.265,0,4.527,0,6.79,0c0-3.879,0-7.755,0-11.632c-4.596,0-9.188,0-13.784,0c0,6.43,0,12.861,0,19.291
	c3.452,0,6.902,0,10.354,0c0,3.873,0,7.746,0,11.618c-2.309,0-4.616,0-6.925,0c0-1.295,0-2.592,0-3.887
	C12.315,113.572,13.576,113.572,14.839,113.572z M14.838,75.649v-3.903H7.625v11.623h13.784V64.085H11.054V52.451h6.925V56.2h-3.36
	v4.059h6.79V48.626H7.625v19.293h10.354v11.618h-6.925v-3.888H14.838z M7.625,745.476v20.858l13.782-13.925h-7.213v2.532
	l-3.14,2.987v-8.914h10.353v-17.551H7.625v10.54h6.788v-3.679h-3.359V735h6.925v10.476H7.625z M35.088,762.28v6.787h11.047v-13.781
	H27.741v10.354h-9.342l3.129-3.141h2.654v-7.213L9.588,769.067h21.86v-10.355h10.979v6.928h-3.485v-3.36H35.088z M82.767,769.067
	v-13.781H71.599v7.213h3.751v-3.787h3.735v6.928H67.922v-10.354H49.385v13.781h11.177v-6.787h-3.9v3.36H53.06v-6.928h11.178v10.355
	H82.767z M518.292,738.324v3.679h6.787v-10.54h-13.781v17.551h10.353v8.914l-3.14-2.987v-2.532h-7.213l13.781,13.925v-20.858
	h-10.353V735h6.925v3.324H518.292z M523.117,769.067l-14.594-13.781v7.213h2.654l3.129,3.141h-9.342v-10.354h-18.392v13.781h11.044
	v-6.787h-3.853v3.36h-3.485v-6.928h10.979v10.355H523.117z M119.181,769.069c0-4.596,0-9.189,0-13.783
	c-3.724-0.002-7.446-0.002-11.17,0c0,2.402,0,4.809,0,7.213c1.253,0,2.505,0,3.758,0c0-1.262,0-2.524,0-3.787
	c1.245,0,2.491,0,3.734,0c0,2.311,0,4.617,0,6.928c-3.721,0-7.445,0-11.169,0c0-3.454,0-6.904,0-10.354
	c-6.182-0.002-12.364-0.002-18.546,0c0,4.594,0,9.187,0.002,13.784c3.73-0.002,7.458-0.002,11.186,0c0-2.264,0-4.528,0-6.791
	c-1.302,0-2.606,0-3.911,0c0,1.119,0,2.24,0,3.361c-1.2,0-2.399,0-3.598,0c0-2.311,0-4.617,0-6.928c3.729,0,7.461,0,11.191,0
	c0,3.454,0,6.904,0,10.357C106.832,769.067,113.007,769.067,119.181,769.069z M155.596,769.069c0-4.596,0-9.189,0-13.783
	c-3.725-0.002-7.449-0.002-11.173,0c0,2.402,0,4.809,0,7.213c1.253,0,2.505,0,3.758,0c0-1.262,0-2.524,0-3.787
	c1.245,0,2.491,0,3.736,0c0,2.311,0,4.617,0,6.928c-3.723,0-7.447,0-11.171,0c0-3.454,0-6.904,0-10.354
	c-6.182-0.002-12.365-0.002-18.548,0c0,4.594,0,9.187,0.002,13.784c3.73-0.002,7.459-0.002,11.188,0c0-2.264,0-4.528,0-6.791
	c-1.304,0-2.606,0-3.911,0c0,1.119,0,2.24,0,3.361c-1.201,0-2.401,0-3.6,0c0-2.311,0-4.617,0-6.928c3.729,0,7.461,0,11.193,0
	c0,3.454,0,6.904,0,10.357C143.244,769.067,149.419,769.067,155.596,769.069z M192.01,769.067c0-4.594,0-9.187,0-13.781
	c-3.725-0.002-7.45-0.002-11.175,0c0,2.402,0,4.809,0,7.213c1.253-0.002,2.505-0.002,3.758,0c0-1.262,0-2.524,0-3.787
	c1.245,0,2.49,0,3.736,0c0,2.311,0,4.617,0,6.928c-3.723,0-7.447,0-11.171,0c0-3.454,0-6.904,0-10.354
	c-6.184-0.002-12.367-0.002-18.549,0c0,4.594,0,9.187,0.002,13.782c3.727,0,7.458,0,11.188,0c0-2.262,0-4.526,0-6.789
	c-1.305,0-2.607,0-3.91,0c-0.001,1.119-0.001,2.242,0,3.361c-1.202,0-2.403,0-3.602,0c0-2.311,0-4.617,0-6.928
	c3.73,0,7.461,0,11.193,0c0,3.454,0,6.904,0,10.355C179.655,769.067,185.833,769.067,192.01,769.067z M228.424,769.067
	c0-4.594,0-9.187,0-13.781c-3.727-0.002-7.451-0.002-11.176,0c0,2.402,0,4.809,0,7.213c1.253-0.002,2.505-0.002,3.759,0
	c-0.001-1.262-0.001-2.524,0-3.787c1.246,0,2.491,0,3.735,0c0,2.311,0,4.617,0,6.928c-3.723,0-7.448,0-11.173,0
	c0-3.454,0-6.904,0-10.354c-6.184-0.002-12.367-0.002-18.551,0c0,4.594,0,9.187,0.002,13.782c3.73,0,7.46,0,11.19,0
	c0-2.262,0-4.526,0-6.789c-1.304,0-2.607,0-3.909,0c0,1.119,0,2.242,0,3.361c-1.202,0-2.404,0-3.603,0
	c-0.002-2.311-0.002-4.617,0-6.928c3.73,0,7.462,0,11.193,0c0,3.454,0,6.904,0,10.355
	C216.068,769.067,222.246,769.067,228.424,769.067z M264.838,769.067c-0.002-4.594-0.002-9.187,0-13.781
	c-3.727-0.002-7.452-0.002-11.178,0c0,2.402,0,4.809,0,7.213c1.252-0.002,2.505-0.002,3.758,0c0-1.262,0-2.524,0-3.787
	c1.245,0,2.492,0,3.738,0c0,2.311,0,4.617,0,6.928c-3.725,0-7.45,0-11.175,0c0-3.454,0-6.904,0-10.354
	c-6.184-0.002-12.367-0.002-18.552,0c0,4.594,0,9.187,0.002,13.782c3.729,0,7.459,0,11.189,0c0-2.262,0-4.526,0-6.789
	c-1.302,0-2.605,0-3.909,0c0,1.119,0,2.242,0,3.361c-1.202,0-2.402,0-3.603,0c0-2.311,0-4.617,0-6.928c3.73,0,7.462,0,11.193,0
	c0,3.454,0,6.904,0,10.355C252.48,769.067,258.658,769.067,264.838,769.067z M301.25,769.067c0-4.594,0-9.187,0-13.781
	c-3.725-0.002-7.451-0.002-11.176,0c-0.002,2.402-0.002,4.809,0,7.213c1.25-0.002,2.505-0.002,3.756,0c0-1.262,0-2.524,0-3.787
	c1.247,0,2.492,0,3.738,0c0,2.311,0,4.617,0,6.928c-3.725,0-7.45,0-11.175,0c0-3.454,0-6.904,0-10.354
	c-6.186-0.002-12.37-0.002-18.554,0c0,4.594,0,9.187,0.002,13.782c3.729,0,7.459,0,11.189,0c0-2.264,0-4.526,0-6.789
	c-1.302,0-2.605,0-3.907,0c0,1.119,0,2.242,0,3.361c-1.202,0-2.403,0-3.604,0c0-2.311,0-4.617,0-6.928c3.729,0,7.461,0,11.192,0
	c0,3.452,0,6.904,0,10.355C288.892,769.067,295.072,769.067,301.25,769.067z M337.666,769.067c-0.002-4.594-0.002-9.187,0-13.781
	c-3.729-0.002-7.455-0.002-11.182,0c0,2.402,0,4.809,0,7.213c1.252-0.002,2.505-0.002,3.758,0c0-1.262,0-2.524,0-3.787
	c1.245,0,2.492,0,3.74,0c-0.002,2.311-0.002,4.617,0,6.928c-3.727,0-7.452,0-11.177,0c0-3.454,0-6.904,0-10.354
	c-6.186-0.002-12.37-0.002-18.558,0c0,4.594,0,9.187,0.001,13.782c3.73,0,7.462,0,11.191,0c0-2.264,0-4.526,0-6.789
	c-1.302,0-2.605,0-3.907,0c0,1.119,0,2.242,0,3.361c-1.201,0-2.402,0-3.605,0c0-2.311,0-4.617,0-6.928c3.731,0,7.463,0,11.195,0
	c0,3.452,0,6.904,0,10.355C325.302,769.067,331.484,769.067,337.666,769.067z M374.08,769.067c0-4.594,0-9.187,0-13.781
	c-3.729-0.002-7.455-0.002-11.182,0c0,2.402,0,4.809,0,7.213c1.252-0.002,2.503-0.002,3.756,0c0-1.262,0-2.524,0-3.787
	c1.247,0,2.492,0,3.739,0c0,2.311,0,4.617,0,6.928c-3.726,0-7.451,0-11.176,0c0-3.454,0-6.904,0-10.354
	c-6.187-0.002-12.372-0.002-18.56,0c0,4.594,0,9.187,0.001,13.782c3.732,0,7.461,0,11.191,0c0-2.264,0-4.526,0-6.789
	c-1.302,0-2.603,0-3.905,0c0,1.119,0,2.242,0,3.361c-1.203,0-2.404,0-3.605,0c0-2.311,0-4.617,0-6.928c3.729,0,7.462,0,11.193,0
	c0,3.452,0,6.904,0,10.355C361.714,769.067,367.896,769.067,374.08,769.067z M410.493,769.067c-0.002-4.594-0.002-9.187,0-13.781
	c-3.728-0.002-7.456-0.002-11.183,0c0,2.402,0,4.809,0,7.211c1.25,0,2.503,0,3.756,0c0-1.26,0-2.522,0-3.785
	c1.246,0,2.492,0,3.739,0c0,2.311,0,4.617,0,6.928c-3.727,0-7.451,0-11.176,0c-0.002-3.454-0.002-6.904,0-10.354
	c-6.187-0.002-12.374-0.002-18.562,0c0,4.594,0,9.187,0.001,13.782c3.73-0.001,7.462-0.001,11.192,0c0-2.264,0-4.526,0-6.789
	c-1.302,0-2.604,0-3.906,0c0,1.121,0,2.242,0,3.361c-1.201,0-2.404,0-3.605,0c0-2.311,0-4.617,0-6.928c3.73,0,7.461,0,11.193,0
	c0,3.452,0,6.904,0,10.355C398.126,769.066,404.309,769.066,410.493,769.067z M446.907,769.067c0-4.594,0-9.187,0-13.781
	c-3.729-0.002-7.456-0.002-11.185,0c0,2.402,0,4.809,0,7.211c1.252,0,2.504,0,3.755,0c0-1.26,0-2.522,0-3.785
	c1.247,0,2.495,0,3.74,0c0,2.311,0,4.617,0,6.928c-3.725,0-7.451,0-11.176,0c0-3.454,0-6.904,0-10.354
	c-6.188-0.002-12.376-0.002-18.562,0c0,4.594,0,9.187,0,13.782c3.729-0.001,7.462-0.001,11.191,0c0-2.264,0-4.526,0-6.789
	c-1.301,0-2.604,0-3.904,0c0,1.121,0,2.242,0,3.361c-1.203,0-2.405,0-3.606,0c0-2.311,0-4.617,0-6.928c3.729,0,7.461,0,11.192,0
	c0,3.452,0,6.904,0,10.355C434.538,769.066,440.722,769.066,446.907,769.067z M483.319,769.067v-13.781h-11.185v7.213h3.757v-3.787
	h3.74v6.928h-11.178v-10.354h-18.564v13.781h11.191v-6.787h-3.903v3.36h-3.608v-6.928h11.195v10.355H483.319z M525.079,712.617
	v-19.293h-13.783v11.632h6.789v-4.058h-3.359v-3.749h6.925v11.634h-10.355v19.284h13.783v-11.623h-7.214v3.905h3.786v3.886h-6.925
	v-11.618H525.079z M518.511,24.284v-2.532l3.14-2.984v8.912h-10.353v17.55h13.781V34.692h-6.787v3.677h3.359v3.326h-6.925V31.219
	h10.353V10.36l-13.781,13.924H518.511z M388.26,14.414c0-2.263,0-4.525,0-6.788c-3.73,0-7.462,0-11.192,0
	c-0.001,4.595-0.001,9.187-0.001,13.783c6.188,0,12.375,0,18.562,0c-0.002-3.452-0.002-6.902,0-10.356c3.725,0,7.449,0,11.176,0
	c0,2.311,0,4.617,0,6.928c-1.247,0-2.493,0-3.739,0c0-1.263,0-2.525,0-3.785c-1.253,0-2.506,0-3.756,0c0,2.402,0,4.809,0,7.213
	c3.727,0,7.455,0,11.183,0c-0.002-4.596-0.002-9.189,0-13.782c-6.184,0-12.367,0-18.551,0c0,3.45,0,6.902,0,10.354
	c-3.732,0-7.463,0-11.193,0c0-2.31,0-4.617,0-6.928c1.201,0,2.404,0,3.605,0c0,1.121,0,2.24,0,3.361
	C385.656,14.414,386.958,14.414,388.26,14.414z M315.439,14.414c0-2.263,0-4.525,0-6.788c-3.729,0-7.461,0-11.191,0
	c-0.001,4.595-0.001,9.187-0.001,13.783c6.188,0,12.372,0,18.558,0c0-3.452,0-6.902,0-10.356c3.725,0.002,7.45,0.002,11.177,0
	c-0.002,2.311-0.002,4.617,0,6.928c-1.248,0-2.495,0-3.74,0c0-1.263,0-2.525,0-3.787c-1.253,0.002-2.506,0.002-3.758,0
	c0,2.404,0,4.811,0,7.215c3.727,0,7.453,0,11.182,0c-0.002-4.596-0.002-9.189,0-13.782c-6.182,0-12.364,0-18.544,0
	c0,3.45,0,6.902,0,10.354c-3.732,0-7.464,0-11.195,0c0-2.31,0-4.617,0-6.928c1.203,0.002,2.404,0.002,3.605,0
	c0,1.121,0,2.242,0,3.361C312.834,14.414,314.137,14.414,315.439,14.414z M242.62,14.414c0-2.263,0-4.525,0-6.788
	c-3.73,0-7.46,0-11.189,0c-0.002,4.595-0.002,9.187-0.002,13.783c6.185,0,12.368,0,18.552,0c0-3.452,0-6.902,0-10.356
	c3.725,0.002,7.45,0.002,11.175,0c0,2.311,0,4.617,0,6.928c-1.246,0-2.493,0-3.738,0c0-1.263,0-2.525,0-3.787
	c-1.253,0.002-2.506,0.002-3.758,0c0,2.404,0,4.811,0,7.215c3.726,0,7.451,0,11.178,0c-0.002-4.596-0.002-9.189,0-13.782
	c-6.18,0-12.358,0-18.537,0c0,3.45,0,6.9,0,10.354c-3.731,0-7.463,0-11.193,0c0-2.31,0-4.617,0-6.928
	c1.201,0.002,2.401,0.002,3.603,0c0,1.121,0,2.242,0,3.361C240.015,14.414,241.318,14.414,242.62,14.414z M351.849,14.414
	c0-2.263,0-4.525,0-6.788c-3.73,0-7.459,0-11.191,0c-0.001,4.595-0.001,9.187-0.001,13.783c6.188,0,12.373,0,18.56,0
	c0-3.452,0-6.902,0-10.356c3.725,0.002,7.45,0.002,11.176,0c0,2.311,0,4.617,0,6.928c-1.247,0-2.492,0-3.739,0
	c0-1.263,0-2.525,0-3.787c-1.253,0.002-2.504,0.002-3.756,0c0,2.404,0,4.811,0,7.215c3.727,0,7.453,0,11.182,0
	c0-4.596,0-9.189,0-13.782c-6.184,0-12.366,0-18.548,0c0,3.45,0,6.902,0,10.354c-3.731,0-7.464,0-11.193,0c0-2.31,0-4.617,0-6.928
	c1.201,0.002,2.402,0.002,3.605,0c0,1.121,0,2.242,0,3.361C349.246,14.414,350.547,14.414,351.849,14.414z M497.616,14.413V7.627
	h-11.044v13.782h18.392V11.054h9.342l-3.129,3.14h-2.654v7.215l14.594-13.782h-21.86v10.354h-10.979v-6.927h3.485v3.359H497.616z
	 M424.67,14.414c0-2.263,0-4.525,0-6.788c-3.729,0-7.462,0-11.191,0c0,4.595,0,9.187,0,13.783c6.186,0,12.374,0,18.562,0
	c0-3.452,0-6.902,0-10.356c3.725,0,7.451,0,11.176,0c0,2.311,0,4.617,0,6.928c-1.245,0-2.493,0-3.74,0c0-1.263,0-2.525,0-3.785
	c-1.251,0-2.503,0-3.755,0c0,2.402,0,4.809,0,7.213c3.729,0,7.456,0,11.185,0c0-4.596,0-9.189,0-13.782c-6.185,0-12.369,0-18.555,0
	c0,3.45,0,6.902,0,10.354c-3.731,0-7.463,0-11.192,0c0-2.31,0-4.617,0-6.928c1.201,0,2.403,0,3.606,0c0,1.121,0,2.24,0,3.361
	C422.066,14.414,423.369,14.414,424.67,14.414z M461.08,14.413V7.627h-11.191v13.782h18.564V11.054h11.178v6.927h-3.74v-3.787
	h-3.757v7.215h11.185V7.627h-18.555v10.354h-11.195v-6.927h3.608v3.359H461.08z M206.21,14.414c0-2.263,0-4.525,0-6.788
	c-3.73,0-7.46,0-11.19,0c-0.002,4.595-0.002,9.187-0.002,13.783c6.184,0,12.367,0,18.551,0c0-3.452,0-6.902,0-10.356
	c3.725,0.002,7.45,0.002,11.173,0c0,2.311,0,4.617,0,6.928c-1.244,0-2.489,0-3.735,0c-0.001-1.263-0.001-2.525,0-3.787
	c-1.254,0.002-2.506,0.002-3.759,0c0,2.404,0,4.811,0,7.215c3.725,0,7.449,0,11.176,0c0-4.596,0-9.189,0-13.782
	c-6.178,0-12.356,0-18.533,0c0,3.45,0,6.9,0,10.354c-3.731,0-7.463,0-11.193,0c-0.002-2.31-0.002-4.617,0-6.928
	c1.199,0.002,2.401,0.002,3.603,0c0,1.121,0,2.242,0,3.361C203.603,14.414,204.906,14.414,206.21,14.414z M9.588,7.627
	l14.594,13.782v-7.215h-2.654l-3.129-3.14h9.342v10.355h18.394V7.627H35.088v6.786h3.854v-3.359h3.485v6.927H31.448V7.627H9.588z
	 M169.799,14.414c0-2.263,0-4.525,0-6.788c-3.73,0-7.461,0-11.188,0c-0.002,4.595-0.002,9.187-0.002,13.783
	c6.182,0,12.365,0,18.549,0c0-3.452,0-6.902,0-10.356c3.724,0.002,7.448,0.002,11.171,0c0,2.311,0,4.617,0,6.928
	c-1.246,0-2.491,0-3.736,0c0-1.263,0-2.525,0-3.787c-1.253,0.002-2.505,0.002-3.758,0c0,2.404,0,4.811,0,7.215
	c3.725,0,7.45,0,11.175,0c0-4.596,0-9.189,0-13.782c-6.177,0-12.355,0-18.53,0c0,3.45,0,6.9,0,10.354c-3.732,0-7.463,0-11.193,0
	c0-2.31,0-4.617,0-6.928c1.199,0.002,2.4,0.002,3.602,0c-0.001,1.121-0.001,2.242,0,3.361
	C167.192,14.414,168.494,14.414,169.799,14.414z M60.562,14.413V7.627H49.385v13.782h18.537V11.054h11.163v6.927H75.35v-3.787
	h-3.751v7.215h11.168V7.627H64.238v10.354H53.06v-6.927h3.602v3.359H60.562z M133.388,14.414c0-2.263,0-4.525,0-6.789
	c-3.729,0.001-7.458,0.001-11.188,0c-0.002,4.596-0.002,9.188-0.002,13.784c6.183,0,12.366,0,18.548,0c0-3.452,0-6.902,0-10.354
	c3.724,0,7.448,0,11.171,0c0,2.309,0,4.615,0,6.926c-1.245,0-2.491,0-3.736,0c0-1.263,0-2.525,0-3.787c-1.253,0-2.505,0-3.758,0
	c0,2.404,0,4.811,0,7.215c3.724,0,7.448,0,11.173,0c0-4.596,0-9.189,0-13.783c-6.177,0.001-12.352,0.001-18.526,0
	c0,3.451,0,6.901,0,10.355c-3.732,0-7.464,0-11.193,0c0-2.31,0-4.617,0-6.926c1.199,0,2.399,0,3.6,0c0,1.119,0,2.24,0,3.359
	C130.782,14.414,132.084,14.414,133.388,14.414z M96.976,14.414c0-2.263,0-4.525,0-6.789c-3.728,0.001-7.456,0.001-11.186,0
	c-0.002,4.596-0.002,9.188-0.002,13.784c6.182,0,12.364,0,18.546,0c0-3.452,0-6.902,0-10.354c3.724,0,7.448,0,11.169,0
	c0,2.309,0,4.615,0,6.926c-1.243,0-2.489,0-3.734,0c0-1.263,0-2.525,0-3.787c-1.253,0-2.505,0-3.758,0c0,2.404,0,4.811,0,7.215
	c3.724,0,7.446,0,11.17,0c0-4.596,0-9.189,0-13.783c-6.174,0.001-12.349,0.001-18.523,0c0,3.451,0,6.901,0,10.355
	c-3.73,0-7.462,0-11.191,0c0-2.31,0-4.617,0-6.926c1.199,0,2.398,0,3.598,0c0,1.119,0,2.24,0,3.359
	C94.37,14.414,95.674,14.414,96.976,14.414z M279.03,14.414c0-2.263,0-4.525,0-6.788c-3.73,0-7.46,0-11.189,0
	c-0.002,4.595-0.002,9.187-0.002,13.783c6.184,0,12.368,0,18.554,0c0-3.452,0-6.902,0-10.356c3.725,0.002,7.45,0.002,11.175,0
	c0,2.311,0,4.617,0,6.928c-1.246,0-2.491,0-3.738,0c0-1.263,0-2.525,0-3.787c-1.251,0.002-2.506,0.002-3.756,0
	c-0.002,2.404-0.002,4.811,0,7.215c3.725,0,7.451,0,11.176,0c0-4.596,0-9.189,0-13.782c-6.178,0-12.358,0-18.539,0
	c0,3.45,0,6.902,0,10.354c-3.731,0-7.463,0-11.192,0c0-2.31,0-4.617,0-6.928c1.201,0.002,2.402,0.002,3.604,0
	c0,1.121,0,2.242,0,3.361C276.425,14.414,277.728,14.414,279.03,14.414z M525.08,678.52c-2.404,0-4.81,0-7.214,0
	c0,1.299,0,2.6,0,3.902c1.263,0,2.523,0,3.786,0c0,1.295,0,2.592,0,3.889c-2.311,0-4.617,0-6.926,0c0-3.873,0-7.746,0-11.62
	c3.45,0,6.902,0,10.353,0c0-6.429,0-12.862,0-19.291c-4.595,0-9.187,0-13.783-0.001c0,3.877,0,7.753,0,11.634
	c2.263-0.002,4.525-0.002,6.789,0c-0.002-1.355-0.002-2.707,0-4.061c-1.121,0-2.24,0-3.359,0c0-1.249,0-2.498,0-3.747
	c2.309,0,4.616,0,6.926,0c0,3.877,0,7.757,0,11.635c-3.451-0.001-6.903-0.001-10.355,0c0,6.428,0,12.857,0,19.287
	c4.595-0.002,9.188-0.002,13.783,0C525.08,686.27,525.08,682.395,525.08,678.52z M525.08,640.597c-2.404,0-4.81,0-7.214,0
	c0,1.3,0,2.601,0,3.904c1.263,0,2.523,0,3.786,0c0,1.295,0,2.59,0,3.887c-2.311,0-4.617,0-6.926,0c0-3.873,0-7.746,0-11.62
	c3.45,0,6.902,0,10.353,0c0-6.429,0-12.86,0-19.291c-4.595,0-9.187,0-13.783,0c0,3.877,0,7.753,0,11.634c2.263,0,4.525,0,6.789,0
	c-0.002-1.356-0.002-2.707,0-4.06c-1.121,0-2.24,0-3.359,0c0-1.251,0-2.5,0-3.749c2.309,0,4.616,0,6.926,0c0,3.877,0,7.757,0,11.635
	c-3.451-0.001-6.903-0.001-10.355,0c0,6.428,0,12.857,0,19.287c4.595,0,9.188,0,13.783,0
	C525.08,648.347,525.08,644.472,525.08,640.597z M525.08,602.673c-2.404,0-4.81,0-7.214,0c0,1.3,0,2.601,0,3.904
	c1.263,0,2.523,0,3.786,0c0,1.297,0,2.59,0,3.887c-2.311,0-4.617,0-6.926,0c0-3.873,0-7.747,0-11.618
	c3.45-0.002,6.902-0.002,10.353,0c0-6.431,0-12.862,0-19.293c-4.595,0-9.187,0-13.783,0c0,3.877,0,7.757,0,11.634
	c2.263,0,4.525,0,6.789,0c-0.002-1.356-0.002-2.707,0-4.058c-1.121,0-2.24,0-3.359,0c0-1.253,0-2.502,0-3.751
	c2.309,0,4.616,0,6.926,0c0,3.877,0,7.757,0,11.635c-3.451,0-6.903,0-10.355,0c0,6.428,0,12.857,0,19.287c4.595,0,9.188,0,13.783,0
	C525.08,610.423,525.08,606.55,525.08,602.673z M525.08,564.749c-2.404,0-4.81,0-7.214,0c0,1.3,0,2.603,0,3.904
	c1.263,0,2.523,0,3.786,0c0,1.297,0,2.59,0,3.887c-2.311,0-4.617,0-6.926,0c0-3.873,0-7.747,0-11.616
	c3.45-0.002,6.902-0.002,10.353,0c0-6.433,0-12.862,0-19.295c-4.595,0-9.187,0-13.783,0c0,3.878,0,7.757,0,11.634
	c2.263,0,4.525,0,6.789,0c-0.002-1.354-0.002-2.707,0-4.058c-1.121,0-2.24,0-3.359,0c0-1.251,0-2.502,0-3.751
	c2.309,0,4.616,0,6.926,0c0,3.879,0,7.757,0,11.635c-3.451,0-6.903,0-10.355,0c0,6.43,0,12.857,0,19.287c4.595,0,9.188,0,13.783,0
	C525.08,572.499,525.08,568.626,525.08,564.749z M525.08,526.825c-2.404,0-4.81,0-7.214,0c0,1.302,0,2.603,0,3.904
	c1.263,0,2.523,0,3.786,0c0,1.297,0,2.592,0,3.887c-2.311,0-4.617,0-6.926,0c0-3.873,0-7.745,0-11.616c3.45,0,6.902,0,10.353,0
	c0-6.433,0-12.862,0-19.293c-4.595-0.002-9.187-0.002-13.783,0c0,3.876,0,7.755,0,11.632c2.263,0,4.525,0,6.789,0
	c-0.002-1.352-0.002-2.708,0-4.058c-1.121,0-2.24,0-3.359,0c0-1.249,0-2.502,0-3.751c2.309,0,4.616,0,6.926,0
	c0,3.881,0,7.757,0,11.637c-3.451,0-6.903,0-10.355,0c0,6.428,0,12.855,0,19.285c4.595,0,9.188,0,13.783,0
	C525.08,534.575,525.08,530.702,525.08,526.825z M525.08,488.903c-2.404-0.002-4.81-0.002-7.214,0c0,1.301,0,2.601,0,3.902
	c1.263,0,2.523,0,3.786,0c0,1.297,0,2.592,0,3.887c-2.311,0-4.617,0-6.926,0c0-3.872,0-7.743,0-11.616c3.45,0,6.902,0,10.353,0
	c0-6.432,0-12.862,0-19.293c-4.595,0-9.187,0-13.783,0c0,3.878,0,7.755,0,11.632c2.263,0,4.525,0,6.789,0
	c-0.002-1.352-0.002-2.705,0-4.058c-1.121,0-2.24,0-3.359,0c0-1.249,0-2.5,0-3.751c2.309,0,4.616,0,6.926,0
	c0,3.881,0,7.757,0,11.637c-3.451,0-6.903,0-10.355,0c0,6.43,0,12.855,0,19.285c4.595,0,9.188,0,13.783,0
	C525.08,496.653,525.08,492.778,525.08,488.903z M525.08,450.979c-2.404-0.002-4.81-0.002-7.214,0c0,1.302,0,2.601,0,3.902
	c1.263,0,2.523,0,3.786,0c0,1.297,0,2.594,0,3.889c-2.311,0-4.617,0-6.926,0c0-3.872,0-7.745,0-11.618c3.45,0,6.902,0,10.353,0
	c0-6.432,0-12.862,0-19.292c-4.595,0-9.187,0-13.783,0c0,3.877,0,7.754,0,11.632c2.263,0,4.525,0,6.789,0
	c-0.002-1.353-0.002-2.706,0-4.059c-1.121,0-2.24,0-3.359,0c0-1.249,0-2.498,0-3.749c2.309,0,4.616,0,6.926,0
	c0,3.879,0,7.757,0,11.635c-3.451,0-6.903,0-10.355,0c0,6.43,0,12.857,0,19.285c4.595,0,9.188,0,13.783,0
	C525.08,458.73,525.08,454.854,525.08,450.979z M525.08,413.056c-2.404,0-4.81,0-7.214,0c0,1.3,0,2.6,0,3.902
	c1.263,0,2.523,0,3.786,0c0,1.296,0,2.592,0,3.889c-2.311,0-4.617,0-6.926,0c0-3.873,0-7.746,0-11.619c3.45,0,6.902,0,10.353,0
	c0-6.43,0-12.862,0-19.292c-4.595,0-9.187,0-13.783,0c0,3.877,0,7.754,0,11.632c2.263,0,4.525,0,6.789,0
	c-0.002-1.353-0.002-2.705,0-4.059c-1.121,0-2.24,0-3.359,0c0-1.249,0-2.498,0-3.747c2.309,0,4.616,0,6.926,0
	c0,3.876,0,7.755,0,11.633c-3.451,0-6.903,0-10.355,0c0,6.43,0,12.857,0,19.285c4.595,0,9.188,0,13.783,0
	C525.08,420.806,525.08,416.93,525.08,413.056z M525.08,375.133c-2.404,0-4.81,0-7.214,0c0,1.3,0,2.6,0,3.904
	c1.263-0.002,2.523-0.002,3.786,0c0,1.294,0,2.59,0,3.887c-2.311,0-4.617,0-6.926,0c0-3.873,0-7.746,0-11.619
	c3.45,0,6.902,0,10.353,0c0-6.43,0-12.86,0-19.292c-4.595,0-9.187,0-13.783,0c0,3.877,0,7.754,0,11.634c2.263,0,4.525,0,6.789,0
	c-0.002-1.355-0.002-2.707,0-4.061c-1.121,0-2.24,0-3.359,0c0-1.249,0-2.498,0-3.747c2.309,0,4.616,0,6.926,0
	c0,3.876,0,7.757,0,11.633c-3.451,0-6.903,0-10.355,0c0,6.43,0,12.857,0,19.286c4.595,0,9.188,0,13.783,0
	C525.08,382.883,525.08,379.007,525.08,375.133z M525.08,337.209c-2.404,0-4.81,0-7.214,0c0,1.3,0,2.602,0,3.904
	c1.263,0,2.523,0,3.786,0c0,1.295,0,2.59,0,3.887c-2.311,0-4.617,0-6.926,0c0-3.873,0-7.746,0-11.619c3.45,0,6.902,0,10.353,0
	c0-6.43,0-12.86,0-19.292c-4.595,0-9.187,0-13.783,0c0,3.877,0,7.756,0,11.634c2.263,0,4.525,0,6.789,0
	c-0.002-1.355-0.002-2.706,0-4.058c-1.121,0-2.24,0-3.359,0c0-1.252,0-2.501,0-3.75c2.309,0,4.616,0,6.926,0
	c0,3.876,0,7.757,0,11.633c-3.451,0-6.903,0-10.355,0c0,6.429,0,12.859,0,19.286c4.595,0,9.188,0,13.783,0
	C525.08,344.959,525.08,341.083,525.08,337.209z M525.08,299.285c-2.404,0-4.81,0-7.214,0c0,1.3,0,2.604,0,3.904
	c1.263,0,2.523,0,3.786,0c0,1.295,0,2.59,0,3.887c-2.311,0-4.617,0-6.926,0c0-3.873,0-7.746,0-11.616c3.45,0,6.902,0,10.353,0
	c0-6.433,0-12.861,0-19.295c-4.595,0-9.187,0-13.783,0c0,3.877,0,7.756,0,11.634c2.263,0,4.525,0,6.789,0
	c-0.002-1.353-0.002-2.706,0-4.058c-1.121,0-2.24,0-3.359,0c0-1.251,0-2.501,0-3.75c2.309,0,4.616,0,6.926,0
	c0,3.878,0,7.757,0,11.635c-3.451,0-6.903,0-10.355,0c0,6.428,0,12.857,0,19.286c4.595,0,9.188,0,13.783,0
	C525.08,307.035,525.08,303.16,525.08,299.285z M525.08,261.361c-2.404,0-4.81,0-7.214,0c0,1.301,0,2.604,0,3.904
	c1.263,0,2.523,0,3.786,0c0,1.297,0,2.59,0,3.887c-2.311,0-4.617,0-6.926,0c0-3.873,0-7.744,0-11.616c3.45,0,6.902,0,10.353,0
	c0-6.433,0-12.861,0-19.295c-4.595,0-9.187,0-13.783,0c0,3.879,0,7.757,0,11.634c2.263,0,4.525,0,6.789,0
	c-0.002-1.352-0.002-2.706,0-4.058c-1.121,0-2.24,0-3.359,0c0-1.249,0-2.501,0-3.75c2.309,0,4.616,0,6.926,0
	c0,3.88,0,7.757,0,11.635c-3.451,0-6.903,0-10.355,0c0,6.428,0,12.857,0,19.286c4.595,0,9.188,0,13.783,0
	C525.08,269.111,525.08,265.238,525.08,261.361z M525.08,223.437c-2.404,0-4.81,0-7.214,0c0,1.302,0,2.604,0,3.904
	c1.263,0,2.523,0,3.786,0c0,1.297,0,2.592,0,3.887c-2.311,0-4.617,0-6.926,0c0-3.871,0-7.743,0-11.616c3.45,0,6.902,0,10.353,0
	c0-6.431,0-12.861,0-19.293c-4.595-0.002-9.187-0.002-13.783,0c0,3.879,0,7.755,0,11.632c2.263,0,4.525,0,6.789,0
	c-0.002-1.352-0.002-2.706,0-4.058c-1.121,0-2.24,0-3.359,0c0-1.249,0-2.5,0-3.75c2.309,0,4.616,0,6.926,0c0,3.88,0,7.757,0,11.637
	c-3.451-0.002-6.903-0.002-10.355,0c0,6.426,0,12.855,0,19.284c4.595,0,9.188,0,13.783,0
	C525.08,231.187,525.08,227.314,525.08,223.437z M525.08,185.513c-2.404,0-4.81,0-7.214,0c0,1.303,0,2.604,0,3.904
	c1.263,0,2.523,0,3.786,0c0,1.297,0,2.594,0,3.887c-2.311,0-4.617,0-6.926,0c0-3.871,0-7.743,0-11.616c3.45,0,6.902,0,10.353,0
	c0-6.431,0-12.861,0-19.293c-4.595,0-9.187,0-13.783,0c0,3.879,0,7.755,0,11.632c2.263,0,4.525,0,6.789,0
	c-0.002-1.352-0.002-2.704,0-4.058c-1.121,0-2.24,0-3.359,0c0-1.249,0-2.498,0-3.75c2.309,0,4.616,0,6.926,0
	c0,3.88,0,7.757,0,11.637c-3.451,0-6.903,0-10.355,0c0,6.426,0,12.855,0,19.284c4.595,0,9.188,0,13.783,0
	C525.08,193.263,525.08,189.39,525.08,185.513z M525.08,147.592c-2.404,0-4.81,0-7.214,0c0,1.302,0,2.602,0,3.904
	c1.263,0,2.523,0,3.786,0c0,1.295,0,2.592,0,3.887c-2.311,0-4.617,0-6.926,0c0-3.872,0-7.745,0-11.618c3.45,0,6.902,0,10.353,0
	c0-6.43,0-12.861,0-19.291c-4.595,0-9.187,0-13.783,0c0,3.877,0,7.753,0,11.63c2.263,0,4.525,0,6.789,0
	c-0.002-1.352-0.002-2.704,0-4.058c-1.121,0-2.24,0-3.359,0c0-1.249,0-2.498,0-3.747c2.309,0,4.616,0,6.926,0
	c0,3.877,0,7.755,0,11.634c-3.451,0-6.903,0-10.355,0c0,6.428,0,12.855,0,19.284c4.595,0,9.188,0,13.783,0
	C525.08,155.34,525.08,151.467,525.08,147.592z M525.08,109.67c-2.404,0-4.81,0-7.214,0c0,1.299,0,2.6,0,3.902
	c1.263,0,2.523,0,3.786,0c0,1.295,0,2.592,0,3.887c-2.311,0-4.617,0-6.926,0c0-3.872,0-7.745,0-11.618c3.45,0,6.902,0,10.353,0
	c0-6.43,0-12.861,0-19.291c-4.595,0-9.187,0-13.783,0c0,3.877,0,7.753,0,11.632c2.263,0,4.525,0,6.789,0
	c-0.002-1.354-0.002-2.706,0-4.06c-1.121,0-2.24,0-3.359,0c0-1.249,0-2.498,0-3.747c2.309,0,4.616,0,6.926,0
	c0,3.877,0,7.755,0,11.634c-3.451,0-6.903,0-10.355,0c0,6.429,0,12.855,0,19.284c4.595,0,9.188,0,13.783,0
	C525.08,117.418,525.08,113.543,525.08,109.67z M511.296,64.085v19.284h13.783V71.746h-7.214v3.903h3.786v3.888h-6.925V67.919
	h10.353V48.626h-13.783v11.633h6.789V56.2h-3.359v-3.749h6.925v11.634H511.296z"/>
</svg>
