<?xml version="1.0" encoding="utf-8"?>
<!-- Generator: Adobe Illustrator 17.0.0, SVG Export Plug-In . SVG Version: 6.00 Build 0)  -->
<!DOCTYPE svg PUBLIC "-//W3C//DTD SVG 1.1//EN" "http://www.w3.org/Graphics/SVG/1.1/DTD/svg11.dtd">
<svg version="1.1" id="图层_1" xmlns="http://www.w3.org/2000/svg" xmlns:xlink="http://www.w3.org/1999/xlink" x="0px" y="0px"
	 width="15px" height="31px" viewBox="0 0 15 31" enable-background="new 0 0 15 31" xml:space="preserve">
<path fill="#262525" d="M4,4C3.982,3.147,3.413,2.465,2.587,2.216c-0.402-0.12-0.823-0.187-1.239-0.251
	C0.907,1.897,0.46,1.862,0.015,1.812c0-0.602,0-1.203,0-1.805c4.993,0,9.985,0,14.978,0c0,0.602,0,1.203,0,1.805
	c-0.108,0.016-0.216,0.033-0.324,0.048c-0.701,0.102-1.41,0.169-2.103,0.313C11.804,2.33,11.089,3.195,11,4c-0.042,0.38,0,0.619,0,1
	c-0.005,6.862-0.003,13.138,0,20c0,0.608-0.027,1.392,0,2c0.037,0.852,0.588,1.479,1.414,1.745c0.176,0.056,0.357,0.108,0.54,0.133
	c0.679,0.091,1.359,0.169,2.039,0.253c0,0.618,0,1.236,0,1.854c-4.993,0-9.985,0-14.978,0c0-0.618,0-1.236,0-1.854
	c0.16-0.017,0.321-0.028,0.48-0.052c0.668-0.098,1.342-0.169,2.001-0.309C3.234,28.613,3.909,27.768,4,27c0.043-0.363,0-0.635,0-1
	C4.005,20.056,4.032,5.543,4,4z"/>
</svg>
