<?xml version="1.0" encoding="utf-8"?><!DOCTYPE svg PUBLIC "-//W3C//DTD SVG 1.1//EN" "http://www.w3.org/Graphics/SVG/1.1/DTD/svg11.dtd"><svg version="1.1" baseProfile="full" xmlns="http://www.w3.org/2000/svg" xmlns:xlink="http://www.w3.org/1999/xlink" xmlns:ev="http://www.w3.org/2001/xml-events"   height="66px"   width="70px" ><path fill="rgb( 156, 69, 136 )" d="M55,60 C55,63.314 52.314,66 49,66 C49,66 6,66 6,66 C2.68599999999998,66 0,63.314 0,60 C0,60 0,6 0,6 C0,2.68599999999998 2.68599999999998,0 6,0 C6,0 15,0 15,0 C28,0 24,8 39,8 C45,8 55,8 55,8 C55,8 55,60 55,60 Z "/><path fill="rgb( 217, 217, 217 )" d="M2,12 C2,12 60,12 60,12 C60,12 60,64 60,64 C60,64 2,64 2,64 C2,64 2,12 2,12 Z "/><path fill="rgb( 255, 255, 255 )" d="M6,18 C6,18 65,18 65,18 C65,18 65,65 65,65 C65,65 6,65 6,65 C6,65 6,18 6,18 Z "/><path fill="rgb( 191, 103, 171 )" d="M64,66 C64,66 7,66 7,66 C4.41899999999998,66 2.238,64.362 1.39100000000002,62.076 C1.96899999999999,63.213 4.637,64 6,64 C8,64 10,62 10,58 C10,58 10,24 10,24 C10,24 70,24 70,24 C70,24 70,60 70,60 C70,63.314 67.314,66 64,66 Z "/></svg>