<?xml version="1.0" encoding="utf-8"?>
<!-- Generator: Adobe Illustrator 16.0.0, SVG Export Plug-In . SVG Version: 6.00 Build 0)  -->
<!DOCTYPE svg PUBLIC "-//W3C//DTD SVG 1.1//EN" "http://www.w3.org/Graphics/SVG/1.1/DTD/svg11.dtd">
<svg version="1.1" id="Layer_1" xmlns="http://www.w3.org/2000/svg" xmlns:xlink="http://www.w3.org/1999/xlink" x="0px" y="0px"
	 width="253.451px" height="170.082px" viewBox="0 0 253.451 170.082" enable-background="new 0 0 253.451 170.082"
	 xml:space="preserve">
<path fill="#B9BE00" d="M23.893,119.022c3.025,3.33,6.607,6.5,10.24,9.418c3.663,2.926,7.504,5.642,11.481,8.142
	c7.955,5,16.455,9.14,25.296,12.328c17.686,6.414,36.724,8.864,55.517,7.615c18.825-1.215,37.354-5.99,54.912-13.053
	c17.584-7.072,34.255-16.387,50.023-27.003c1.175-0.793,2.771-0.481,3.561,0.693c0.756,1.125,0.506,2.631-0.545,3.453l-0.146,0.113
	c-1.908,1.485-3.836,2.952-5.781,4.399c-1.959,1.423-3.95,2.806-5.953,4.175c-4.005,2.736-8.084,5.383-12.236,7.927
	c-8.354,4.994-17.026,9.547-26.042,13.412c-8.987,3.937-18.342,7.106-27.903,9.603c-9.575,2.463-19.415,4.032-29.339,4.745
	c-9.932,0.625-19.953,0.266-29.837-1.139c-9.858-1.525-19.606-3.949-28.867-7.626c-4.634-1.822-9.179-3.855-13.564-6.187
	c-4.379-2.339-8.629-4.904-12.715-7.698c-4.049-2.847-7.937-5.909-11.629-9.185c-1.845-1.64-3.645-3.33-5.38-5.092
	c-1.716-1.804-3.347-3.607-4.945-5.645l-0.065-0.084c-0.877-1.117-0.68-2.73,0.436-3.605
	C21.474,117.894,22.995,118.041,23.893,119.022z"/>
<path fill="#57A02E" d="M220.741,97.903c18.263,18.778,1.807,24.906,1.807,24.906C205.898,116.695,220.741,97.903,220.741,97.903z"
	/>
<path fill="#57A02E" d="M36.071,112.615c26.896,14.298,10.855,26.935,10.855,26.935C26.316,138.701,36.071,112.615,36.071,112.615z"
	/>
<path fill="#92B018" d="M219.865,131.395c0,0,16.869-19.679,33.586,15.182C253.451,146.577,219.86,157.573,219.865,131.395z"/>
<path fill="#57A02E" d="M186.847,145.811c0,0,16.979-12.147,23.349,18.336C210.195,164.147,181.807,166.286,186.847,145.811z"/>
<path fill="#92B018" d="M0,148.7c16.719-34.861,33.586-15.182,33.586-15.182C33.592,159.696,0,148.7,0,148.7z"/>
<path fill="#57A02E" d="M36.706,166.048c5.498-26.304,20.149-15.822,20.149-15.822C61.203,167.894,36.706,166.048,36.706,166.048z"
	/>
<path fill="#903A17" d="M198.972,117.777c13.023-16.662-0.832-43.234,16.112-57.116c4.382-3.589,15.199-7.124,15.176,1.598
	c-0.016,6.823-9.992,13.974-12.983,19.887c-4.294,8.485-2.735,18.821-4.268,27.9c-1.662,9.831-7.9,17.799-15.312,24.458
	c-13.763,12.362-38.476,16.619-50.703-0.301c-1.215-1.683-2.422-3.364-3.508-5.133c8.629-7.018,17.744,5.288,28.906,4.923
	C183.401,133.637,192.5,126.062,198.972,117.777z"/>
<path fill="#853A14" d="M142.591,164.583c0,0-7.958,1.062-7.958-16.98l2.122-7.429l17.512,2.654l-1.593,20.694L142.591,164.583z
	 M98.021,165.115c0,0,7.959,1.06,7.959-16.98l-2.124-7.429l-17.509,2.653l1.593,20.693L98.021,165.115z"/>
<path fill="#9F5529" d="M176.623,110.421c-4.077,3.662-7.841,6.458-12.353,9.675c-1.436,21.518-20.835,38.562-44.567,38.562
	c-23.146,0-42.18-16.215-44.437-36.979c-4.825-1.97-8.653-5.87-12.88-9.667c-3.935-3.531-30.638-18.441-11.565-26.868
	c7.315-3.234,21.287,6.959,27.091,10.562c0.93,0.578,1.832,1.239,2.679,1.972c7.609-12.677,22.27-21.266,39.112-21.266
	c16.283,0,30.526,8.026,38.331,20.014c0.958-0.868,1.994-1.646,3.066-2.311c5.802-3.603,19.775-13.797,27.088-10.563
	C207.265,91.98,180.561,106.89,176.623,110.421z"/>
<path fill="#AD672E" d="M119.703,152.642c-19.963,0-36.496-13.59-38.454-31.612c-0.24-2.196-1.662-4.084-3.708-4.919
	c-3.149-1.285-6.005-3.896-9.315-6.922c-0.599-0.549-1.206-1.101-1.817-1.651c-0.869-0.779-2.081-1.639-3.76-2.831
	c-10.71-7.596-12.522-10.74-12.606-11.963c0.144-0.208,0.833-1.045,3.212-2.097c0.06-0.024,0.293-0.11,0.824-0.11
	c4.771,0,13.738,5.815,18.046,8.608c0.983,0.638,1.865,1.208,2.614,1.674c0.67,0.417,1.318,0.893,1.923,1.416
	c1.1,0.949,2.498,1.46,3.93,1.46c0.319,0,0.637-0.024,0.954-0.076c1.752-0.281,3.292-1.322,4.206-2.844
	c6.791-11.316,19.801-18.344,33.952-18.344c13.595,0,26.352,6.621,33.289,17.28c0.962,1.477,2.523,2.457,4.271,2.683
	c0.258,0.034,0.516,0.051,0.771,0.051c1.484,0,2.93-0.551,4.043-1.561c0.679-0.614,1.415-1.17,2.197-1.655
	c0.749-0.466,1.63-1.036,2.613-1.673c4.309-2.795,13.273-8.61,18.046-8.61c0.532,0,0.764,0.085,0.823,0.112
	c2.38,1.05,3.068,1.888,3.211,2.096c-0.08,1.224-1.894,4.368-12.604,11.964c-1.679,1.189-2.891,2.05-3.758,2.827
	c-3.71,3.332-7.145,5.916-11.826,9.254c-1.47,1.047-2.392,2.698-2.512,4.498C157.036,138.17,140.096,152.642,119.703,152.642z"/>
<path fill="#F9C385" d="M119.703,158.659c-9.623,0-18.531-2.81-25.822-7.579c-0.56-2.588-0.868-5.303-0.868-8.102
	c0-17.735,11.947-32.111,26.688-32.111s26.69,14.375,26.69,32.111c0,2.805-0.312,5.522-0.874,8.115
	C138.23,155.857,129.322,158.659,119.703,158.659z"/>
<path fill="#FFF3BF" d="M122.697,141.083c0.049,1.402-1.047,2.581-2.449,2.632c-1.403,0.053-2.583-1.045-2.633-2.447
	c-0.051-1.402,1.046-2.58,2.448-2.632C121.466,138.585,122.644,139.681,122.697,141.083z"/>
<path fill="#9F5529" d="M65.631,137.031c1.705-3.642,6.3-4.084,8.738-0.453c-3.205-8.59,5.551-11.23,8.579-2.964
	c0.099,0.266,0.576,0.745-0.029-0.011c-0.216-7.157,5.548-10.039,9.899-5.408c4.927,5.244,4.478,14.536,6.388,21.086
	c2.008,6.888,4.987,13.562-2.239,18.516c-6.024,4.131-12.223,2.226-17.141-2.263C74.191,160.39,61.435,145.978,65.631,137.031z
	 M174.301,136.322c-1.707-3.642-6.301-4.084-8.739-0.452c3.206-8.59-5.55-11.23-8.579-2.963c-0.099,0.266-0.577,0.744,0.028-0.012
	c0.217-7.157-5.548-10.038-9.899-5.407c-4.926,5.243-4.478,14.534-6.387,21.085c-2.007,6.888-4.987,13.563,2.238,18.516
	c6.026,4.131,12.224,2.226,17.143-2.263C165.74,159.683,178.494,145.27,174.301,136.322z"/>
<path fill="#AD672E" d="M90.024,164.065c-2.383,0-4.656-1.618-6.144-2.975c-6.606-6.031-12.845-14.928-13.092-19.706
	c1.044,0.758,2.305,1.166,3.583,1.166c0.921,0,1.852-0.212,2.718-0.657c1.266-0.65,2.218-1.687,2.765-2.897
	c0.987,0.667,2.139,1.03,3.365,1.03c2.309,0,4.416-1.323,5.419-3.401c0.356-0.737,0.737-1.902,0.562-3.304
	c1.514,2.416,2.122,6.291,2.711,10.054c0.397,2.529,0.806,5.145,1.521,7.59c0.2,0.692,0.413,1.383,0.623,2.071
	c2.187,7.148,1.885,8.171-0.489,9.799C92.356,163.663,91.2,164.065,90.024,164.065z M156.049,160.383
	c6.593-6.018,12.818-14.887,13.091-19.674c-1.04,0.769-2.301,1.179-3.582,1.179c-0.928,0-1.867-0.215-2.743-0.666
	c-1.27-0.651-2.217-1.699-2.757-2.922c-0.979,0.657-2.123,1.016-3.336,1.019h-0.011c-2.307,0-4.414-1.321-5.417-3.399
	c-0.355-0.736-0.738-1.902-0.563-3.306c-1.514,2.417-2.122,6.29-2.712,10.054c-0.395,2.529-0.806,5.144-1.518,7.59
	c-0.202,0.691-0.413,1.382-0.624,2.069c-2.188,7.15-1.885,8.173,0.489,9.8c1.206,0.828,2.364,1.23,3.541,1.23
	C152.289,163.357,154.562,161.739,156.049,160.383z"/>
<path fill="#9F5529" d="M194.527,33.174c1.523,8.063-3.895,15.856-12.104,17.407c-1.317,0.249-2.627,0.304-3.904,0.217
	c1.688,28.155-19.932,53.74-50.329,58.343c-30.269,4.584-58.39-13.288-65.26-40.489c-0.484,0.104-0.98,0.188-1.482,0.246
	c-8.299,0.947-15.78-4.892-16.712-13.045c-0.931-8.152,5.04-15.53,13.337-16.478c2.034-0.233,4.017-0.053,5.866,0.463
	c6.489-19.817,24.599-35.604,47.837-39.123c23.669-3.583,46.018,6.569,57.932,24.167c1.978-1.724,4.423-2.976,7.201-3.5
	C185.115,19.832,193.005,25.111,194.527,33.174z"/>
<path fill="#AD672E" d="M118.723,103.842c-23.963,0-44.507-15.076-49.959-36.664c-0.688-2.717-3.129-4.543-5.827-4.543
	c-0.419,0-0.842,0.044-1.267,0.134c-0.313,0.067-0.615,0.118-0.899,0.15c-0.365,0.041-0.729,0.062-1.09,0.062
	c-4.603,0-8.458-3.358-8.966-7.811c-0.268-2.328,0.41-4.626,1.907-6.474c1.52-1.878,3.697-3.067,6.136-3.344
	c0.354-0.041,0.713-0.062,1.066-0.062c0.844,0,1.685,0.115,2.499,0.343c0.539,0.15,1.083,0.221,1.618,0.221
	c2.54,0,4.888-1.618,5.716-4.146c5.972-18.236,22.856-31.992,43.02-35.046c2.839-0.429,5.721-0.647,8.562-0.647
	c17.803,0,34.061,8.313,43.485,22.239c0.968,1.427,2.499,2.371,4.207,2.593c0.258,0.035,0.519,0.051,0.776,0.051
	c1.445,0,2.852-0.521,3.953-1.482c1.245-1.086,2.754-1.819,4.364-2.123c0.582-0.111,1.174-0.166,1.758-0.166
	c4.333,0,8.047,3.012,8.832,7.161c0.434,2.302-0.073,4.643-1.43,6.596c-1.38,1.984-3.469,3.329-5.878,3.783
	c-0.529,0.102-1.09,0.152-1.665,0.152c-0.24,0-0.477-0.009-0.715-0.025c-0.136-0.009-0.273-0.014-0.408-0.014
	c-1.582,0-3.105,0.624-4.236,1.745c-1.229,1.217-1.873,2.905-1.769,4.631c1.507,25.11-18.358,47.967-45.223,52.034
	C124.449,103.623,121.566,103.842,118.723,103.842z"/>
<path fill="#F9C385" d="M128.19,109.142c-20.218,3.06-39.475-3.9-52.087-16.962c-1.282-2.971-2.052-6.315-2.179-10.079
	c-0.203-6.156,2.5-11.617,5.591-16.639c-14.814-21.209,7.218-45.83,29.56-32.969c4.941,2.846,7.336,7.56,10.464,12.395
	c2.771-24.549,33.826-30.721,43.353-6.538c2.081,5.28,1.857,10.871,0.845,16.345c6.625,1.491,10.877,6.757,12.979,13.083
	C170.895,88.639,152.301,105.49,128.19,109.142z"/>
<path fill="#F9C385" d="M189.446,34.526c1.132,5.805-3.185,11.531-9.636,12.79c-6.455,1.258-1.622-3.149-2.756-8.955
	c-1.13-5.806-7.798-10.811-1.346-12.07C182.165,25.033,188.314,28.719,189.446,34.526z M48.563,55.095
	c0.672,5.877,6.513,10.036,13.046,9.29c6.53-0.748,2.062-5.882,1.389-11.759c-0.67-5.877,2.712-10.27-3.822-9.523
	C52.643,43.849,47.89,49.217,48.563,55.095z"/>
<path fill="#6A3906" d="M87.884,58.951l-1.001-0.353c1.413-4.011,3.405-6.292,5.917-6.783c4.082-0.795,7.914,3.478,8.076,3.658
	l-0.795,0.704c-0.034-0.041-3.592-3.996-7.081-3.32C90.885,53.271,89.163,55.321,87.884,58.951z M144.828,43.639
	c-2.237,0.338-3.621,3.433-3.096,6.908c0.526,3.477,2.766,6.021,5.002,5.684c2.235-0.339,3.62-3.433,3.092-6.909
	C149.302,45.845,147.063,43.301,144.828,43.639z M119.197,57.551c-3.894,0.694-6.719,3.127-6.309,5.434
	c0.409,2.308,3.902,3.62,7.797,2.925c3.895-0.693,6.72-3.125,6.31-5.433C126.584,58.169,123.094,56.858,119.197,57.551z"/>
<path fill="#FFFFFF" d="M101.507,77.757c0,0,21.026-10.2,41.188-5.597c0,0,2.147,25.802-18.025,28.118
	C124.67,100.279,103.22,102.501,101.507,77.757z"/>
</svg>
