<?xml version="1.0" encoding="utf-8"?>
<!-- Generator: Adobe Illustrator 17.0.0, SVG Export Plug-In . SVG Version: 6.00 Build 0)  -->
<!DOCTYPE svg PUBLIC "-//W3C//DTD SVG 1.1//EN" "http://www.w3.org/Graphics/SVG/1.1/DTD/svg11.dtd">
<svg version="1.1" id="图层_1" xmlns="http://www.w3.org/2000/svg" xmlns:xlink="http://www.w3.org/1999/xlink" x="0px" y="0px"
	 width="27px" height="31px" viewBox="0 0 27 31" enable-background="new 0 0 27 31" xml:space="preserve">
<path fill="#D63434" d="M24.533,0.012c-0.067,0.106-0.114,0.2-0.19,0.3c-3.002,3.984-6.005,7.967-9.013,11.946
	c-0.107,0.141-0.12,0.233-0.025,0.38c1.355,2.11,2.704,4.223,4.055,6.335c1.131,1.768,2.262,3.537,3.393,5.305
	c1.023,1.599,2.043,3.198,3.07,4.794c0.384,0.597,0.783,1.184,1.175,1.776c0.034,0.167-0.097,0.106-0.168,0.107
	c-1.124,0.002-2.248,0.001-3.372,0.001c-0.419,0-0.837,0-1.255,0c-0.125-0.024-0.25-0.046-0.374-0.074
	c-2.107-0.472-3.796-1.539-4.936-3.358c-1.988-3.174-3.964-6.355-5.946-9.533c-0.055-0.088-0.12-0.171-0.185-0.265
	c-0.051,0.046-0.079,0.069-0.104,0.095c-1.2,1.238-2.401,2.474-3.592,3.72c-0.088,0.092-0.139,0.253-0.14,0.384
	c-0.029,2.365-0.045,4.731-0.069,7.097c-0.007,0.612-0.034,1.225-0.052,1.846c-0.075,0.007-0.12,0.014-0.165,0.014
	c-2.136,0.001-4.272,0.001-6.409-0.001c-0.072,0-0.144-0.022-0.217-0.033c0-5.17,0-10.34,0-15.509
	c0.012-0.098,0.035-0.196,0.035-0.294c0.005-1.388,0.009-2.775,0.011-4.163C0.064,7.373,0.067,3.863,0.072,0.353
	c0-0.095,0.01-0.19,0.015-0.281c0.062-0.007,0.09-0.014,0.117-0.014C2.453,0.057,4.701,0.059,6.95,0.053
	C7.151,0.052,7.205,0.129,7.2,0.311C7.179,1.045,7.164,1.78,7.155,2.514C7.118,5.543,7.084,8.571,7.049,11.6
	c-0.002,0.121,0,0.242,0,0.446c0.114-0.13,0.172-0.193,0.227-0.259c0.51-0.61,1.024-1.218,1.529-1.832
	C9.36,9.279,9.906,8.596,10.46,7.918c0.61-0.748,1.225-1.493,1.837-2.241c0.485-0.594,0.964-1.192,1.452-1.784
	c0.431-0.523,0.842-1.065,1.312-1.553c0.7-0.727,1.565-1.237,2.496-1.64c0.983-0.425,2.001-0.685,3.09-0.648
	c0.724,0.024,1.459-0.009,2.183-0.014L24.533,0.012z"/>
</svg>
