<?xml version="1.0" encoding="utf-8"?>
<!-- Generator: Adobe Illustrator 17.0.0, SVG Export Plug-In . SVG Version: 6.00 Build 0)  -->
<!DOCTYPE svg PUBLIC "-//W3C//DTD SVG 1.1//EN" "http://www.w3.org/Graphics/SVG/1.1/DTD/svg11.dtd">
<svg version="1.1" id="图层_1" xmlns="http://www.w3.org/2000/svg" xmlns:xlink="http://www.w3.org/1999/xlink" x="0px" y="0px"
	 width="241.864px" height="156.996px" viewBox="0 0 241.864 156.996" enable-background="new 0 0 241.864 156.996"
	 xml:space="preserve">
<path fill="#8B1C2C" d="M0,0.019c0.326,0,0.609,0,0.893,0c9.091,0,18.184,0.009,27.275-0.019c0.707-0.002,0.923,0.213,1.049,0.884
	c2.226,11.878,4.482,23.752,6.727,35.627c1.463,7.735,2.919,15.471,4.38,23.206c0.018,0.093,0.043,0.184,0.202,0.3
	c0.128-0.615,0.265-1.228,0.382-1.845c2.16-11.426,4.318-22.852,6.477-34.278c1.461-7.736,2.925-15.471,4.373-23.209
	c0.083-0.442,0.187-0.678,0.707-0.677c9.355,0.015,18.712,0.012,28.07,0.014c0.119,0,0.237,0.025,0.404,0.043
	c0,32.237,0,64.464,0,96.734c-6.425,0-12.829,0-19.313,0c0-22.879,0-45.749,0-68.619c-0.063-0.009-0.127-0.018-0.19-0.026
	c-0.118,0.572-0.244,1.143-0.353,1.718c-2.388,12.707-4.771,25.415-7.162,38.122c-1.768,9.394-3.551,18.784-5.306,28.18
	c-0.092,0.497-0.289,0.617-0.751,0.616c-4.92-0.012-9.839-0.012-14.759,0.001c-0.437,0.001-0.639-0.125-0.724-0.576
	c-1.58-8.399-3.173-16.796-4.765-25.193c-1.771-9.343-3.546-18.685-5.316-28.028c-0.887-4.683-1.767-9.368-2.652-14.051
	c-0.044-0.233-0.109-0.463-0.266-0.688c0,22.802,0,45.604,0,68.467c-6.495,0-12.915,0-19.382,0C0,64.523,0,32.339,0,0.019z
	 M128.792,0.94c-0.008,20.692-0.018,41.385-0.026,62.077c-0.002,3.015,0.001,6.029-0.001,9.044
	c-0.002,4.252-3.328,7.609-7.538,7.609c-4.207,0-7.53-3.358-7.535-7.611c-0.008-7.814-0.022-15.627-0.024-23.441
	c-0.004-15.869-0.002-31.738-0.002-47.607c0-0.306,0-0.611,0-0.936c-7.657,0-15.214,0-22.835,0c0,0.365,0,0.674,0,0.982
	c0.007,12.131,0.016,24.262,0.02,36.392c0.003,11.6-0.012,23.201,0.015,34.801c0.003,1.561,0.091,3.141,0.339,4.679
	c1.417,8.805,6.341,15.061,14.34,18.746c9.387,4.324,19.079,4.476,28.787,1.1c5.917-2.058,10.685-5.697,13.911-11.17
	c2.441-4.141,3.363-8.672,3.365-13.431c0.004-12.661,0.015-25.323,0.019-37.984c0.003-11.07,0.001-22.14,0.001-33.209
	c0-0.303,0-0.607,0-0.924c-7.655,0-15.196,0-22.836,0C128.792,0.417,128.792,0.678,128.792,0.94z M186.444,0.942
	c-0.019,24.381-0.038,48.763-0.057,73.144c-0.001,0.555,0.011,1.11-0.007,1.664c-0.011,0.335-0.031,0.678-0.112,1.001
	c-0.626,2.507-2.938,4.088-5.491,3.771c-2.418-0.3-4.257-2.445-4.259-4.979c-0.003-4.389-0.001-8.779-0.001-13.168
	c0-0.281,0-0.561,0-0.863c-6.81,0-13.524,0-20.318,0c0,0.334-0.001,0.618,0,0.903c0.02,4.533-0.016,9.067,0.072,13.599
	c0.166,8.525,3.863,15.125,11.316,19.281c8.497,4.739,17.489,5.039,26.537,1.773c9.63-3.476,15.075-11.525,15.077-21.752
	c0.001-4.003,0.016-8.007,0.019-12.01c0.015-20.789,0.027-41.577,0.041-62.366c0-0.28,0-0.56,0-0.881c-7.642,0-15.178,0-22.818,0
	C186.444,0.416,186.444,0.679,186.444,0.942z M241.864,0.059c-7.596,0-15.156,0-22.757,0c0,32.238,0,64.44,0,96.683
	c7.596,0,15.155,0,22.757,0C241.864,64.504,241.864,32.302,241.864,0.059z M36.832,114.104c0.493-0.765,0.919-1.424,1.385-2.146
	c-2.297-1.071-4.533-2.115-6.661-3.107c-1.756,2.135-3.37,4.271-5.17,6.235c-1.818,1.983-3.823,3.796-5.768,5.706
	c1.9,1.307,3.879,2.669,5.875,4.042c0.657-0.532,1.28-1.037,1.971-1.596c0,0.884,0,1.643,0,2.503c-2.194,0-4.345,0-6.514,0
	c0,2.142,0,4.182,0,6.32c2.193,0,4.347,0,6.498,0c0,1.603,0,3.106,0,4.685c-1.543,0-3.026,0-4.522,0c0,2.14,0,4.201,0,6.353
	c1.479,0,2.911,0,4.487,0c-1.768,3.301-3.797,6.222-6.374,8.814c1.96,1.492,3.868,2.946,5.808,4.423
	c3.27-3.155,5.662-6.836,7.536-10.935c-1.417-0.74-2.776-1.449-4.304-2.246c9.656,0,19.082,0,28.73,0
	c-1.63,0.96-3.067,1.807-4.403,2.594c2.207,3.398,4.368,6.724,6.544,10.073c1.991-1.008,4.09-2.072,6.239-3.16
	c-1.699-3.456-3.803-6.563-6.385-9.603c1.587,0,2.967,0,4.343,0c0-2.165,0-4.224,0-6.36c-1.682,0-3.31,0-4.953,0
	c0-1.58,0-3.081,0-4.671c2.233,0,4.411,0,6.572,0c0-2.149,0-4.208,0-6.352c-2.233,0-4.413,0-6.569,0c0-1.688,0-3.289,0-4.956
	c1.494,0,2.929,0,4.394,0c0-2.203,0-4.339,0-6.615C55.977,114.104,46.451,114.104,36.832,114.104z M35.631,125.681
	c0-1.628,0-3.24,0-4.894c0.58,0,1.143,0,1.754,0c0,1.616,0,3.211,0,4.894C36.783,125.681,36.238,125.681,35.631,125.681z
	 M45.737,120.772c0,1.629,0,3.231,0,4.887c-0.585,0-1.147,0-1.752,0c0-1.614,0-3.216,0-4.887
	C44.592,120.772,45.14,120.772,45.737,120.772z M35.61,136.665c0-1.525,0-3.004,0-4.548c0.568,0,1.128,0,1.757,0
	c0,1.473,0,2.968,0,4.548C36.775,136.665,36.212,136.665,35.61,136.665z M45.731,132.085c0,1.535,0,3.039,0,4.585
	c-0.578,0-1.125,0-1.73,0c0-1.495,0-2.999,0-4.585C44.586,132.085,45.131,132.085,45.731,132.085z M54.026,120.776
	c0,1.629,0,3.227,0,4.881c-0.552,0-1.088,0-1.671,0c0-1.613,0-3.213,0-4.881C52.936,120.776,53.457,120.776,54.026,120.776z
	 M54.006,132.078c0,1.512,0,3.01,0,4.571c-0.52,0-1.056,0-1.645,0c0-1.496,0-2.997,0-4.571
	C52.936,132.078,53.436,132.078,54.006,132.078z M128.888,115.26c0,10.9,0,21.698,0,32.57c-1.589,0.337-3.151,0.669-4.732,1.005
	c0.535,2.635,1.05,5.173,1.579,7.777c1.805-0.441,3.514-0.843,5.215-1.277c5.136-1.309,10.192-2.874,15.124-4.821
	c0.244-0.097,0.549-0.429,0.559-0.663c0.045-1.057-0.008-2.119-0.022-3.178c-0.004-0.335-0.001-0.67-0.001-1.153
	c0.257,0.237,0.366,0.329,0.466,0.43c4.966,4.982,10.813,8.557,17.411,10.948c0.573,0.208,0.834,0.097,1.131-0.421
	c1.054-1.838,2.164-3.644,3.25-5.464c0.117-0.196,0.216-0.403,0.344-0.642c-3.978-1.358-7.772-2.895-11.306-5.167
	c2.66-2.437,5.031-4.988,7.084-7.888c-0.512-0.498-0.967-0.997-1.481-1.427c-0.489-0.409-0.628-0.882-0.626-1.507
	c0.021-6.077,0.012-12.153,0.012-18.23c0-0.281,0-0.562,0-0.933c-4.291,0-8.494,0-12.766,0c0-2.008,0-3.926,0-5.843
	c-2.762,0-5.452,0-8.222,0c0,1.954,0,3.87,0,5.885C137.529,115.26,133.232,115.26,128.888,115.26z M140.458,136.795
	c0.132,0.002,0.315,0.125,0.385,0.245c1.252,2.154,2.49,4.316,3.764,6.533c-2.437,0.744-5.029,1.536-7.704,2.353
	c0-3.085,0-6.054,0-9.142C138.107,136.784,139.282,136.776,140.458,136.795z M154.634,130.117c-5.903,0-11.809,0-17.751,0
	c0-0.514,0-1.011,0-1.576c5.908,0,11.812,0,17.751,0C154.634,129.062,154.634,129.561,154.634,130.117z M136.884,121.627
	c5.926,0,11.815,0,17.745,0c0,0.528,0,1.023,0,1.573c-5.899,0-11.788,0-17.745,0C136.884,122.657,136.884,122.162,136.884,121.627z
	 M155.888,136.826c-1.205,1.383-2.301,2.641-3.522,4.041c-0.989-1.365-1.903-2.628-2.927-4.041
	C151.689,136.826,153.686,136.826,155.888,136.826z M96.839,118.054c0,12.856,0,25.552,0,38.248c2.578,0,5.077,0,7.689,0
	c0-11.425,0-22.809,0-34.171c2.102,0,4.089,0,6.074,0c0,7.307,0,14.551,0,21.899c-1.648,0-3.244,0-4.843,0
	c0,0.176-0.018,0.253,0.003,0.317c0.77,2.381,1.536,4.763,2.336,7.134c0.059,0.175,0.365,0.375,0.56,0.379
	c1.301,0.027,2.606,0.054,3.905-0.014c3.265-0.17,5.759-2.828,5.76-6.079c0.001-9.984,0-19.967,0-29.951c0-0.259,0-0.518,0-0.817
	c-7.194,0-14.318,0-21.464,0c-0.038,0.305-0.071,0.575-0.118,0.954c-1.405-1.291-2.737-2.5-4.049-3.732
	c-0.271-0.254-0.469-0.3-0.807-0.113c-4.56,2.522-9.527,3.722-14.635,4.433c-0.606,0.084-0.8,0.254-0.799,0.878
	c0.018,11.889,0.013,23.777,0.015,35.666c0,0.253,0.028,0.506,0.043,0.746c2.554,0,5.024,0,7.574,0c0-0.81,0-1.569,0-2.417
	c3.898,0,7.717,0,11.514,0c0-2.513,0-4.934,0-7.431c-3.867,0-7.668,0-11.499,0c0-2.906,0-5.735,0-8.644c3.87,0,7.692,0,11.512,0
	c0-2.383,0-4.685,0-7.072c-3.872,0-7.689,0-11.528,0c0-2.055,0-4.024,0-6.04C88.462,121.33,92.716,120.097,96.839,118.054z
	 M182.576,131.699c8.898,0,17.756,0,26.63,0c0-6.321,0-12.597,0-18.91c-8.892,0-17.727,0-26.63,0
	C182.576,119.141,182.576,125.401,182.576,131.699z M189.963,119.05c3.951,0,7.868,0,11.847,0c0,2.025,0,4.054,0,6.133
	c-3.926,0-7.841,0-11.847,0C189.963,123.119,189.963,121.106,189.963,119.05z M196.98,156.301c2.505,0,4.954,0,7.494,0
	c0-0.531,0-1.021,0-1.489c1.98,0,3.869,0,5.821,0c0,0.533,0,1.005,0,1.47c2.53,0,4.995,0,7.435,0c0-7.445,0-14.829,0-22.222
	c-6.955,0-13.84,0-20.75,0C196.98,141.504,196.98,148.908,196.98,156.301z M210.224,148.375c-1.895,0-3.782,0-5.724,0
	c0-2.564,0-5.125,0-7.735c1.893,0,3.76,0,5.724,0C210.224,143.228,210.224,145.772,210.224,148.375z M194.594,156.301
	c0-7.428,0-14.811,0-22.231c-6.857,0-13.662,0-20.495,0c0,7.436,0,14.822,0,22.224c2.458,0,4.876,0,7.359,0c0-0.522,0-0.995,0-1.499
	c1.954,0,3.844,0,5.798,0c0,0.513,0,0.986,0,1.506C189.77,156.301,192.171,156.301,194.594,156.301z M181.493,148.399
	c0-2.584,0-5.145,0-7.757c1.907,0,3.793,0,5.72,0c0,2.582,0,5.127,0,7.757C185.289,148.399,183.419,148.399,181.493,148.399z
	 M56.561,153.813c-0.786-3.618-2.105-6.939-4.016-10.069c-2.266,0.635-4.499,1.261-6.774,1.899c1.628,3.226,2.969,6.456,3.762,9.942
	C51.871,154.996,54.192,154.411,56.561,153.813z M45.99,154.014c-0.542-3.229-1.181-6.307-2.582-9.171
	c-0.605-1.237-0.607-1.246-1.923-0.911c-1.672,0.425-3.341,0.865-4.834,1.253c0.883,3.452,1.749,6.841,2.634,10.303
	C41.416,155.02,43.697,154.518,45.99,154.014z"/>
</svg>
