<?xml version="1.0" encoding="utf-8"?>
<!-- Generator: Adobe Illustrator 16.0.0, SVG Export Plug-In . SVG Version: 6.00 Build 0)  -->
<!DOCTYPE svg PUBLIC "-//W3C//DTD SVG 1.1//EN" "http://www.w3.org/Graphics/SVG/1.1/DTD/svg11.dtd">
<svg version="1.1" id="Layer_1" xmlns="http://www.w3.org/2000/svg" xmlns:xlink="http://www.w3.org/1999/xlink" x="0px" y="0px"
	 width="77.812px" height="8.151px" viewBox="0 0 77.812 8.151" enable-background="new 0 0 77.812 8.151" xml:space="preserve">
<path fill="#F2F2F2" d="M4.111,0v6.875H2.322V3.986H1.789v2.889H0V0h1.789v2.459h0.532V0H4.111z M6.311,3.422H4.701V3.045
	c0-0.436,0.049-0.771,0.149-1.008C4.951,1.801,5.154,1.592,5.456,1.41c0.302-0.182,0.694-0.271,1.18-0.271
	c0.58,0,1.018,0.102,1.312,0.307C8.242,1.65,8.42,1.902,8.479,2.201C8.54,2.5,8.569,3.115,8.569,4.047v2.828H6.9V6.373
	C6.795,6.574,6.66,6.726,6.494,6.826c-0.166,0.1-0.363,0.149-0.593,0.149c-0.301,0-0.575-0.084-0.825-0.252
	c-0.25-0.17-0.375-0.537-0.375-1.106V5.153c0-0.422,0.065-0.709,0.198-0.86c0.134-0.152,0.463-0.332,0.988-0.535
	c0.564-0.221,0.865-0.369,0.904-0.445C6.834,3.236,6.854,3.08,6.854,2.846c0-0.295-0.021-0.486-0.065-0.576
	C6.744,2.18,6.67,2.137,6.568,2.137c-0.114,0-0.188,0.037-0.217,0.111C6.324,2.324,6.31,2.518,6.31,2.832L6.311,3.422L6.311,3.422z
	 M6.854,4.195C6.578,4.396,6.42,4.563,6.375,4.701c-0.043,0.135-0.064,0.33-0.064,0.586c0,0.291,0.019,0.479,0.058,0.563
	C6.404,5.937,6.48,5.979,6.594,5.979c0.107,0,0.178-0.033,0.211-0.101c0.031-0.065,0.049-0.241,0.049-0.524V4.195z M10.904,1.24
	l-0.028,0.498c0.151-0.201,0.319-0.352,0.504-0.451c0.184-0.099,0.385-0.148,0.604-0.148c0.267,0,0.496,0.07,0.689,0.215
	c0.193,0.143,0.313,0.307,0.363,0.494c0.049,0.186,0.071,0.504,0.071,0.951v2.373c0,0.513-0.03,0.877-0.092,1.095
	c-0.061,0.217-0.186,0.389-0.373,0.518c-0.187,0.129-0.416,0.193-0.682,0.193c-0.213,0-0.408-0.05-0.59-0.148
	c-0.183-0.1-0.349-0.248-0.496-0.443v1.293H9.158V1.24H10.904z M11.393,2.879c0-0.348-0.014-0.559-0.039-0.633
	c-0.024-0.072-0.096-0.109-0.213-0.109c-0.111,0-0.186,0.041-0.217,0.127c-0.033,0.084-0.049,0.289-0.049,0.615v2.336
	c0,0.341,0.016,0.552,0.051,0.638c0.033,0.084,0.107,0.127,0.221,0.127c0.109,0,0.179-0.039,0.205-0.117
	c0.027-0.078,0.041-0.266,0.041-0.566V2.879z M15.418,1.24l-0.029,0.498c0.152-0.201,0.32-0.352,0.504-0.451
	c0.185-0.099,0.385-0.148,0.604-0.148c0.266,0,0.496,0.07,0.688,0.215c0.193,0.143,0.314,0.307,0.363,0.494
	c0.049,0.186,0.072,0.504,0.072,0.951v2.373c0,0.513-0.031,0.877-0.093,1.095c-0.061,0.217-0.186,0.389-0.373,0.518
	c-0.187,0.129-0.415,0.193-0.682,0.193c-0.213,0-0.408-0.05-0.59-0.148c-0.182-0.1-0.348-0.248-0.496-0.443v1.293h-1.717V1.24
	H15.418z M15.906,2.879c0-0.348-0.014-0.559-0.038-0.633c-0.025-0.072-0.097-0.109-0.214-0.109c-0.11,0-0.186,0.041-0.217,0.127
	c-0.033,0.084-0.049,0.289-0.049,0.615v2.336c0,0.341,0.016,0.552,0.051,0.638c0.033,0.084,0.107,0.127,0.222,0.127
	c0.108,0,0.178-0.039,0.205-0.117c0.026-0.078,0.04-0.266,0.04-0.566V2.879z M21.777,1.24l-0.489,4.075
	c-0.078,0.646-0.144,1.086-0.195,1.32s-0.139,0.43-0.262,0.582c-0.121,0.152-0.289,0.266-0.506,0.338
	c-0.218,0.072-0.562,0.107-1.039,0.107h-1.039v-0.9c0.266,0,0.438-0.014,0.514-0.039c0.076-0.026,0.115-0.088,0.115-0.182
	c0-0.045-0.035-0.242-0.105-0.59L17.83,1.24h1.557l0.564,3.805l0.272-3.805H21.777z M27.918,0l-0.91,6.875h-2.715L23.26,0h1.885
	c0.222,1.895,0.377,3.496,0.472,4.808c0.092-1.325,0.188-2.5,0.293-3.527L26.033,0H27.918z M29.701,3.422h-1.609V3.045
	c0-0.436,0.051-0.771,0.15-1.008c0.102-0.236,0.303-0.445,0.604-0.627c0.302-0.182,0.697-0.271,1.18-0.271
	c0.582,0,1.019,0.102,1.312,0.307c0.294,0.205,0.471,0.457,0.531,0.756c0.059,0.299,0.09,0.914,0.09,1.846v2.828h-1.67V6.373
	c-0.104,0.201-0.24,0.353-0.404,0.453c-0.166,0.1-0.363,0.149-0.594,0.149c-0.299,0-0.574-0.084-0.824-0.252
	c-0.252-0.17-0.377-0.537-0.377-1.106V5.153c0-0.422,0.066-0.709,0.199-0.86c0.133-0.152,0.463-0.332,0.989-0.535
	c0.562-0.221,0.865-0.369,0.904-0.445s0.06-0.232,0.06-0.467c0-0.295-0.021-0.486-0.064-0.576c-0.045-0.09-0.117-0.133-0.219-0.133
	c-0.117,0-0.189,0.037-0.217,0.111C29.714,2.324,29.7,2.518,29.7,2.832L29.701,3.422L29.701,3.422z M30.244,4.195
	c-0.273,0.201-0.435,0.369-0.478,0.506c-0.045,0.135-0.065,0.33-0.065,0.586c0,0.291,0.02,0.479,0.057,0.563
	c0.039,0.084,0.115,0.127,0.229,0.127c0.107,0,0.179-0.033,0.209-0.1c0.033-0.066,0.05-0.242,0.05-0.525L30.244,4.195L30.244,4.195z
	 M34.316,0v6.875H32.55V0H34.316z M38.816,4.156h-2.221v1.219c0,0.256,0.021,0.42,0.057,0.494c0.037,0.071,0.107,0.108,0.211,0.108
	c0.132,0,0.22-0.049,0.263-0.146c0.045-0.099,0.065-0.287,0.065-0.565V4.521h1.625v0.416c0,0.351-0.021,0.617-0.063,0.804
	c-0.045,0.188-0.146,0.387-0.31,0.6s-0.364,0.371-0.612,0.478s-0.56,0.16-0.933,0.16c-0.362,0-0.682-0.054-0.961-0.158
	c-0.276-0.104-0.492-0.248-0.646-0.43c-0.154-0.185-0.263-0.386-0.32-0.604c-0.061-0.22-0.09-0.539-0.09-0.957V3.186
	c0-0.494,0.065-0.881,0.199-1.166c0.133-0.285,0.352-0.502,0.653-0.654c0.304-0.15,0.65-0.227,1.045-0.227
	c0.48,0,0.88,0.092,1.191,0.273c0.312,0.181,0.531,0.424,0.658,0.727c0.125,0.301,0.188,0.725,0.188,1.271V4.156z M37.098,3.24
	V2.828c0-0.291-0.016-0.48-0.047-0.564c-0.031-0.086-0.096-0.127-0.191-0.127c-0.118,0-0.19,0.035-0.221,0.107
	c-0.027,0.072-0.043,0.268-0.043,0.584V3.24H37.098z M41.123,1.24l-0.029,0.52c0.123-0.207,0.275-0.363,0.455-0.467
	s0.387-0.154,0.623-0.154c0.293,0,0.535,0.068,0.721,0.207c0.188,0.139,0.31,0.314,0.361,0.525c0.055,0.211,0.08,0.562,0.08,1.055
	v3.949h-1.715V2.973c0-0.389-0.013-0.625-0.037-0.709c-0.027-0.086-0.099-0.127-0.213-0.127c-0.121,0-0.199,0.049-0.23,0.146
	c-0.031,0.097-0.045,0.357-0.045,0.783v3.809h-1.717V1.24H41.123z M45.732,0.488v0.889h0.463v0.891h-0.463v3.016
	c0,0.369,0.021,0.576,0.06,0.619c0.037,0.043,0.196,0.063,0.477,0.063v0.908h-0.69c-0.392,0-0.67-0.019-0.836-0.049
	c-0.168-0.033-0.314-0.107-0.441-0.226c-0.129-0.119-0.207-0.252-0.238-0.403c-0.031-0.152-0.047-0.509-0.047-1.068V2.268h-0.369
	V1.377h0.369V0.488H45.732z M48.34,0v0.896h-1.766V0H48.34z M48.34,1.24v5.635h-1.766V1.24H48.34z M50.701,1.24l-0.029,0.52
	c0.125-0.207,0.277-0.363,0.457-0.467s0.387-0.154,0.621-0.154c0.295,0,0.535,0.068,0.723,0.207
	c0.187,0.139,0.307,0.314,0.361,0.525c0.053,0.211,0.08,0.562,0.08,1.055v3.949h-1.715V2.973c0-0.389-0.015-0.625-0.039-0.709
	c-0.025-0.086-0.097-0.127-0.214-0.127c-0.12,0-0.196,0.049-0.229,0.146c-0.032,0.097-0.047,0.357-0.047,0.783v3.809h-1.715V1.24
	H50.701z M57.389,4.156h-2.221v1.219c0,0.256,0.018,0.42,0.055,0.494c0.037,0.071,0.107,0.108,0.213,0.108
	c0.131,0,0.217-0.049,0.263-0.146c0.043-0.099,0.063-0.287,0.063-0.565V4.521h1.627v0.416c0,0.351-0.021,0.617-0.065,0.804
	c-0.044,0.188-0.146,0.387-0.308,0.6c-0.162,0.213-0.367,0.371-0.615,0.478c-0.246,0.106-0.557,0.16-0.932,0.16
	c-0.361,0-0.682-0.054-0.959-0.158s-0.494-0.248-0.648-0.43c-0.153-0.185-0.26-0.386-0.319-0.604
	c-0.06-0.22-0.088-0.539-0.088-0.957V3.186c0-0.494,0.065-0.881,0.198-1.166c0.134-0.285,0.353-0.502,0.654-0.654
	c0.303-0.15,0.65-0.227,1.043-0.227c0.482,0,0.879,0.092,1.191,0.273c0.312,0.181,0.533,0.424,0.658,0.727
	c0.127,0.301,0.188,0.725,0.188,1.271L57.389,4.156L57.389,4.156z M55.668,3.24V2.828c0-0.291-0.017-0.48-0.045-0.564
	c-0.031-0.086-0.097-0.127-0.191-0.127c-0.119,0-0.193,0.035-0.221,0.107c-0.029,0.072-0.043,0.268-0.043,0.584V3.24H55.668z
	 M58.947,0v0.615c0,0.32-0.038,0.584-0.114,0.793c-0.076,0.207-0.209,0.383-0.396,0.525c-0.188,0.145-0.401,0.24-0.639,0.291V1.729
	c0.168-0.094,0.266-0.221,0.287-0.383h-0.287V0H58.947z M62.912,3.041h-1.521V2.734c0-0.26-0.016-0.426-0.045-0.494
	c-0.029-0.07-0.104-0.104-0.223-0.104c-0.097,0-0.168,0.031-0.217,0.096c-0.048,0.062-0.072,0.158-0.072,0.285
	c0,0.174,0.012,0.301,0.037,0.381c0.022,0.08,0.096,0.168,0.217,0.266c0.119,0.096,0.367,0.236,0.74,0.42
	c0.498,0.244,0.823,0.473,0.979,0.688c0.156,0.215,0.234,0.527,0.234,0.939c0,0.457-0.062,0.806-0.181,1.037
	c-0.118,0.233-0.315,0.414-0.596,0.539c-0.279,0.127-0.615,0.188-1.008,0.188c-0.438,0-0.811-0.067-1.119-0.203
	c-0.311-0.137-0.522-0.319-0.639-0.553c-0.117-0.232-0.176-0.584-0.176-1.053V4.896h1.521v0.355c0,0.303,0.021,0.5,0.057,0.59
	c0.039,0.092,0.113,0.137,0.228,0.137c0.123,0,0.207-0.03,0.256-0.092c0.047-0.061,0.072-0.188,0.072-0.383
	c0-0.27-0.031-0.438-0.095-0.506s-0.397-0.27-0.997-0.604c-0.505-0.284-0.812-0.54-0.923-0.771c-0.108-0.23-0.164-0.506-0.164-0.822
	c0-0.449,0.06-0.781,0.179-0.996c0.119-0.213,0.319-0.379,0.604-0.494c0.283-0.115,0.613-0.174,0.99-0.174
	c0.375,0,0.691,0.047,0.953,0.143c0.262,0.094,0.463,0.219,0.604,0.375c0.142,0.156,0.226,0.301,0.254,0.434
	c0.031,0.133,0.046,0.34,0.046,0.623v0.329H62.912z M65.086,0h1.338c0.863,0,1.447,0.039,1.752,0.119s0.535,0.209,0.693,0.391
	c0.157,0.182,0.258,0.383,0.297,0.605c0.041,0.223,0.061,0.658,0.061,1.309v2.408c0,0.617-0.029,1.028-0.088,1.237
	c-0.057,0.207-0.158,0.371-0.303,0.488c-0.146,0.117-0.322,0.199-0.535,0.246s-0.531,0.07-0.959,0.07h-2.256V0z M66.875,1.176v4.523
	c0.256,0,0.416-0.054,0.475-0.156c0.06-0.103,0.09-0.385,0.09-0.842V2.029c0-0.311-0.01-0.51-0.03-0.598
	c-0.021-0.088-0.064-0.152-0.136-0.193C67.203,1.197,67.07,1.176,66.875,1.176z M71.375,3.422h-1.609V3.045
	c0-0.436,0.051-0.771,0.15-1.008c0.102-0.236,0.303-0.445,0.604-0.627c0.303-0.182,0.697-0.271,1.181-0.271
	c0.582,0,1.018,0.102,1.312,0.307c0.294,0.205,0.471,0.457,0.531,0.756c0.059,0.299,0.09,0.914,0.09,1.846v2.828h-1.67V6.373
	c-0.104,0.201-0.24,0.353-0.404,0.453c-0.166,0.1-0.363,0.149-0.594,0.149c-0.299,0-0.574-0.084-0.824-0.252
	c-0.252-0.17-0.377-0.537-0.377-1.106V5.153c0-0.422,0.066-0.709,0.199-0.86c0.133-0.152,0.463-0.332,0.99-0.535
	c0.562-0.221,0.864-0.369,0.903-0.445s0.06-0.232,0.06-0.467c0-0.295-0.021-0.486-0.064-0.576c-0.045-0.09-0.117-0.133-0.219-0.133
	c-0.117,0-0.189,0.037-0.217,0.111c-0.029,0.076-0.043,0.27-0.043,0.584L71.375,3.422L71.375,3.422z M71.918,4.195
	c-0.273,0.201-0.435,0.369-0.478,0.506c-0.045,0.135-0.065,0.33-0.065,0.586c0,0.291,0.02,0.479,0.057,0.563
	c0.039,0.084,0.115,0.127,0.229,0.127c0.106,0,0.178-0.033,0.209-0.1c0.032-0.066,0.049-0.242,0.049-0.525L71.918,4.195
	L71.918,4.195z M77.814,1.24l-0.489,4.075c-0.078,0.646-0.144,1.086-0.195,1.32s-0.139,0.43-0.262,0.582
	c-0.121,0.152-0.289,0.266-0.507,0.338c-0.217,0.072-0.562,0.107-1.039,0.107h-1.038v-0.9c0.266,0,0.438-0.014,0.514-0.039
	c0.076-0.026,0.115-0.088,0.115-0.182c0-0.045-0.035-0.242-0.105-0.59L73.867,1.24h1.557l0.563,3.805l0.273-3.805H77.814z"/>
</svg>
