<?xml version="1.0" encoding="iso-8859-1"?>
<!-- Generator: Adobe Illustrator 17.0.0, SVG Export Plug-In . SVG Version: 6.00 Build 0)  -->
<!DOCTYPE svg PUBLIC "-//W3C//DTD SVG 1.1//EN" "http://www.w3.org/Graphics/SVG/1.1/DTD/svg11.dtd">
<svg version="1.1" xmlns="http://www.w3.org/2000/svg" xmlns:xlink="http://www.w3.org/1999/xlink" x="0px" y="0px"
	 width="262.848px" height="194.003px" viewBox="0 0 262.848 194.003" style="enable-background:new 0 0 262.848 194.003;"
	 xml:space="preserve">
<g id="&#x56FE;&#x5C42;_9">
</g>
<g id="&#x56FE;&#x5C42;_8">
</g>
<g id="&#x56FE;&#x5C42;_7">
</g>
<g id="&#x56FE;&#x5C42;_6">
</g>
<g id="&#x56FE;&#x5C42;_5">
	<g>
		<ellipse style="opacity:0.5;fill:#CA9337;" cx="79.08" cy="188.053" rx="79.08" ry="5.95"/>
		<ellipse style="opacity:0.5;fill:#CA9337;" cx="172.385" cy="174.882" rx="79.08" ry="5.95"/>
		<g>
			<g>
				<path style="fill:#231F20;" d="M262.848,122.168c0,2.758-2.234,4.992-4.991,4.992H84.071c-2.757,0-4.992-2.234-4.992-4.992
					V14.537c0-2.757,2.235-4.992,4.992-4.992h173.785c2.757,0,4.991,2.235,4.991,4.992V122.168z"/>
				<path style="fill:#FFFFFF;" d="M254.635,105.158c0,2.512-2.035,4.549-4.548,4.549H91.841c-2.512,0-4.548-2.037-4.548-4.549
					V20.753c0-2.513,2.036-4.548,4.548-4.548h158.246c2.513,0,4.548,2.035,4.548,4.548V105.158z"/>
				<g>
					<polygon style="fill:#1A1517;" points="149.484,137.577 145.167,169.576 196.761,169.576 191.833,137.577 					"/>
					<rect x="133.106" y="166.621" style="fill:#231F20;" width="75.714" height="9.319"/>
				</g>
				<path style="fill:#808081;" d="M79.079,116.83v19.239c0,2.756,2.235,4.993,4.992,4.993h173.785c2.757,0,4.991-2.237,4.991-4.993
					V116.83H79.079z"/>
				<circle style="fill:#231F20;" cx="170.964" cy="128.697" r="5.991"/>
				<g>
					<rect x="101.349" y="70.812" style="fill:#F5B244;" width="21.715" height="35.786"/>
					<rect x="130.45" y="60.919" style="fill:#EF5A35;" width="21.715" height="45.679"/>
					<rect x="159.979" y="48.439" style="fill:#0295A5;" width="21.715" height="58.158"/>
					<rect x="189.612" y="35.959" style="fill:#F5B244;" width="21.715" height="70.639"/>
					<rect x="218.864" y="28.147" style="fill:#EF5A35;" width="21.715" height="78.451"/>
				</g>
			</g>
			<g>
				<g>
					<g>
						<g>
							
								<ellipse transform="matrix(0.8623 -0.5064 0.5064 0.8623 -27.9519 94.1076)" style="fill:#F0E3C3;" cx="159.08" cy="98.455" rx="7.525" ry="6.367"/>
						</g>
						<polygon style="fill:#FFFFFF;" points="153.492,94.134 155.768,92.744 162.532,103.807 160.222,105.141 						"/>
						<circle style="fill:#B8BABC;" cx="155.363" cy="94.316" r="0.531"/>
					</g>
					<path style="fill:#37302B;" d="M129.524,113.124c-9.017,0-23.14-3.414-31.814-17.573c0,0,14.645-3.541,14.747-3.413
						c4.069,5.039,11.905,7.324,18.617,6.858c6.416-0.439,22.333-5.515,22.385-5.546l7.319,12.02
						c-0.778,0.478-18.612,6.7-28.092,7.517C131.675,113.075,130.617,113.124,129.524,113.124z"/>
				</g>
				<g>
					<g>
						<path style="fill:#37302B;" d="M110.978,144.225c0,7.835-14.493,12.776-32.35,12.776c-17.855,0-31.813-4.997-31.813-12.832
							c0-7.835,13.958-15.538,31.813-15.538C96.484,128.631,110.978,136.39,110.978,144.225z"/>
						<g>
							<defs>
								<path id="SVGID_33_" d="M110.812,144.225c0,7.835-14.455,12.776-32.264,12.776c-17.808,0-31.729-4.997-31.729-12.832
									c0-7.835,13.921-15.538,31.729-15.538C96.357,128.631,110.812,136.39,110.812,144.225z"/>
							</defs>
							<clipPath id="SVGID_2_">
								<use xlink:href="#SVGID_33_"  style="overflow:visible;"/>
							</clipPath>
							<path style="opacity:0.15;clip-path:url(#SVGID_2_);fill:#231F20;" d="M50.705,91.324c0,0-7.838,0.507-7.838,7.373
								c0,5.345,2.376,33.241,3.428,45.333c0.299,3.439,0.613,5.6,3.661,5.6c3.048,0,54.665,0,57.713,0
								c3.049,0,3.165-2.452,3.238-6.268c0.223-11.632,0.755-35.93,1.41-41.986c0.871-8.043-4.789-10.053-4.789-10.053H50.705z"/>
						</g>
						<g>
							<g>
								<path style="fill:#231F20;" d="M58.967,178.435c0,0.252,0.167,2.514,0.167,2.514s-14.031,2.388-14.744,3.099
									c-0.712,0.712-1.089,4.86,0,4.86c1.09,0,16.169,0,16.169,0s7.769,0,8.88,0c1.109,0,1.173-1.572,1.173-2.599
									c0-1.024,0-7.455,0-7.455L58.967,178.435z"/>
								<path style="fill:#37302B;" d="M71.593,179.566c-2.011,0-11.814,0-13.938,0c-1.844,0-1.711-2.458-1.711-3.297
									c0-0.837,0.008-26.639,0.008-26.639h16.963c0,0,0,25.131,0,26.5C72.914,177.498,73.027,179.566,71.593,179.566z"/>
							</g>
							<g>
								<path style="fill:#231F20;" d="M99.597,178.435c0,0.252-0.167,2.514-0.167,2.514s14.032,2.388,14.744,3.099
									c0.712,0.712,1.089,4.86,0,4.86c-1.089,0-16.168,0-16.168,0s-7.77,0-8.88,0c-1.11,0-1.174-1.572-1.174-2.599
									c0-1.024,0-7.455,0-7.455L99.597,178.435z"/>
								<path style="fill:#37302B;" d="M100.578,179.566c-2.011,0-11.813,0-13.938,0c-1.844,0-1.712-2.458-1.712-3.297
									c0-0.837,0.008-26.639,0.008-26.639h16.963c0,0,0,25.131,0,26.5C101.899,177.498,102.014,179.566,100.578,179.566z"/>
							</g>
						</g>
					</g>
					<g>
						<g>
							<path style="fill:#403833;" d="M106.696,89.76c0,0-13.76,0-27.837,0c-14.078,0-27.838,0-27.838,0s-8.042,0.507-8.042,7.372
								c0,5.345,2.438,33.243,3.517,45.335c0.307,3.439,0.629,5.601,3.757,5.601c1.526,0,14.925,0,28.606,0
								c13.682,0,27.08,0,28.606,0c3.128,0,3.45-2.161,3.757-5.601c1.079-12.092,3.518-39.99,3.518-45.335
								C114.739,90.267,106.696,89.76,106.696,89.76z"/>
							<polygon style="fill:#FFFFFF;" points="65.878,89.76 79.606,118.243 94.351,89.76 							"/>
							<g>
								<ellipse style="fill:#0295A5;" cx="79.778" cy="90.096" rx="7.325" ry="4.523"/>
								<polygon style="fill:#0295A5;" points="78.659,90.096 75.153,109 79.608,118.243 84.403,108.986 81.964,90.096 								"/>
							</g>
							<path style="fill:#342E29;" d="M94.351,89.76l6.635,0.617c0,0-8.775,18.871-10.786,22.306
								c-2.011,3.435-10.594,5.561-10.594,5.561L94.351,89.76z"/>
							<path style="fill:#342E29;" d="M65.878,89.76l-6.772,0.431c0,0,7.898,19.058,9.909,22.492
								c2.011,3.435,10.594,5.561,10.594,5.561L65.878,89.76z"/>
						</g>
						<polygon style="fill:#342E29;" points="80.278,148.067 78.938,148.067 78.938,116.939 79.606,118.243 80.278,116.948 						
							"/>
					</g>
					<g>
						<defs>
							<path id="SVGID_35_" d="M50.971,89.76c0,0-8.042,0.507-8.042,7.372c0,5.345,2.438,33.243,3.517,45.335
								c0.308,3.439,0.63,5.601,3.757,5.601c3.127,0,54.459,0,57.587,0c3.128,0,3.248-2.452,3.323-6.268
								c0.229-11.632,2.578-35.954,3.534-41.971c1.353-8.505-6.051-10.069-7.95-10.069C104.797,89.76,50.971,89.76,50.971,89.76z"/>
						</defs>
						<clipPath id="SVGID_4_">
							<use xlink:href="#SVGID_35_"  style="overflow:visible;"/>
						</clipPath>
						<path style="opacity:0.15;clip-path:url(#SVGID_4_);fill:#231F20;" d="M44.213,29.172c-4.021,12.901-2.459,27.678-2.01,39.877
							c0.781,21.264,9.019,24.518,21.082,24.518c12.065,0,8.545,0,29.489,0c20.943,0,22.145-12.956,22.145-25.355
							s2.681-32.337-2.011-42.222C108.217,16.104,48.234,16.271,44.213,29.172z"/>
					</g>
					<g>
						<path style="fill:#F0E3C3;" d="M44.221,26.929C40.2,39.83,41.762,54.606,42.21,66.806c0.782,21.265,9.02,24.519,21.083,24.519
							c12.063,0,8.545,0,29.488,0c20.943,0,22.145-12.957,22.145-25.356c0-12.398,2.682-32.337-2.01-42.222
							C108.225,13.86,48.242,14.027,44.221,26.929z"/>
						<path style="fill:#56341D;" d="M42.009,61.044c-2.508,0.671-5.137-22.554-3.291-32.607C40.259,20.039,36.777,2.912,43.463,0
							c5.026,10.389,18.873,8.499,18.873,8.499S57.889,4.477,59.36,0c10.299,5.501,23.085,4.646,44.196,9.672
							c21.111,5.026,15.073,52.096,12.132,52.766c-2.94,0.67,0.267-26.963-4.593-32.744c-4.858-5.78-19.603,0.009-30.828,0.007
							c-11.227-0.002-25.6-5.732-31.499-0.007C42.868,35.42,44.518,60.374,42.009,61.044z"/>
						<g>
							<g>
								<path style="fill:#56341D;" d="M74.368,47.895c-0.229,0-0.462-0.061-0.675-0.185c-6.832-3.985-13.296-0.06-13.36-0.02
									c-0.627,0.392-1.454,0.199-1.846-0.43c-0.392-0.629-0.199-1.455,0.43-1.847c0.319-0.198,7.916-4.81,16.128-0.02
									c0.639,0.373,0.855,1.194,0.482,1.835C75.278,47.655,74.829,47.895,74.368,47.895z"/>
								<path style="fill:#56341D;" d="M97.598,47.895c-0.229,0-0.462-0.061-0.675-0.185c-6.833-3.985-13.296-0.06-13.36-0.02
									c-0.627,0.392-1.454,0.199-1.847-0.43c-0.391-0.629-0.198-1.455,0.431-1.847c0.319-0.198,7.914-4.81,16.128-0.02
									c0.639,0.373,0.855,1.194,0.481,1.835C98.508,47.655,98.059,47.895,97.598,47.895z"/>
							</g>
						</g>
						<path style="fill:#EF5A35;" d="M63.482,75.031c-0.39-1.421,0.497-2.585,1.972-2.585h26.082c1.474,0,2.493,1.192,2.265,2.649
							c0,0-1.116,7.125-14.732,7.125S63.482,75.031,63.482,75.031z"/>
						<g>
							<circle style="fill:#E3D7B8;" cx="90.532" cy="56.198" r="6.159"/>
							<circle style="fill:#E3D7B8;" cx="66.691" cy="56.278" r="6.159"/>
							<g>
								<g>
									<circle style="fill:#FFFFFF;" cx="66.691" cy="57.539" r="6.159"/>
									<circle style="fill:#6D5237;" cx="66.691" cy="57.539" r="3.507"/>
									<circle style="fill:#FFFFFF;" cx="68.08" cy="54.961" r="1.988"/>
								</g>
								<g>
									<circle style="fill:#FFFFFF;" cx="90.532" cy="57.539" r="6.159"/>
									<circle style="fill:#6D5237;" cx="90.532" cy="57.539" r="3.506"/>
									<circle style="fill:#FFFFFF;" cx="91.921" cy="54.961" r="1.987"/>
								</g>
							</g>
						</g>
						<g>
							<defs>
								<path id="SVGID_37_" d="M63.482,75.031c-0.39-1.421,0.497-2.585,1.972-2.585h26.082c1.474,0,2.493,1.192,2.265,2.649
									c0,0-1.116,7.125-14.732,7.125S63.482,75.031,63.482,75.031z"/>
							</defs>
							<clipPath id="SVGID_6_">
								<use xlink:href="#SVGID_37_"  style="overflow:visible;"/>
							</clipPath>
							<ellipse style="opacity:0.7;clip-path:url(#SVGID_6_);fill:#C54A29;" cx="78.963" cy="82.121" rx="13.434" ry="6.591"/>
						</g>
						<g>
							<defs>
								<path id="SVGID_39_" d="M44.221,26.929C40.2,39.83,41.762,54.606,42.21,66.806c0.782,21.265,9.02,24.519,21.083,24.519
									c12.063,0,8.545,0,29.488,0c20.943,0,22.145-12.957,22.145-25.356c0-12.398,2.682-32.337-2.01-42.222
									C108.225,13.86,48.242,14.027,44.221,26.929z"/>
							</defs>
							<clipPath id="SVGID_8_">
								<use xlink:href="#SVGID_39_"  style="overflow:visible;"/>
							</clipPath>
							<path style="opacity:0.1;clip-path:url(#SVGID_8_);fill:#231F20;" d="M41.535,61.507c-2.508,0.67-5.189-20.106-3.344-30.158
								c1.542-8.399-1.94-25.525,4.745-28.438c5.026,10.389,18.873,8.5,18.873,8.5s-4.447-4.021-2.975-8.5
								c10.299,5.502,23.085,4.647,44.196,9.673c21.111,5.026,15.6,51.103,12.658,51.772c-2.94,0.67-0.26-25.971-5.119-31.75
								c-4.858-5.781-19.602,0.008-30.828,0.006c-11.226-0.003-25.6-5.733-31.499-0.006C42.343,38.331,44.043,60.837,41.535,61.507z
								"/>
						</g>
					</g>
				</g>
				<g>
					<g>
						
							<ellipse transform="matrix(0.9913 -0.1315 0.1315 0.9913 -15.4853 10.4642)" style="fill:#F0E3C3;" cx="71.458" cy="122.437" rx="7.379" ry="6.243"/>
					</g>
					<polygon style="fill:#FFFFFF;" points="68.055,116.404 70.642,116.017 72.538,128.588 69.942,128.914 					"/>
					<circle style="fill:#B8BABC;" cx="69.676" cy="117.283" r="0.52"/>
				</g>
				<path style="fill:#37302B;" d="M70.438,129.86l-1.88-13.947c-4.698,0.104-16.943,0.398-24.618-2.012
					c-1.575-0.494-2.966-1.1-4.071-1.839c-0.555-0.372-0.834-0.669-0.938-0.812c0.122-1.25,2.248-3.438,4.557-4.932
					c-0.309-4.302-0.507-7.663-0.507-9.188c0-3.702,2.339-5.554,4.494-6.476c-8.058,0.053-19.128,7.026-21.962,16.349
					c-1.959,6.439,0.479,12.7,6.522,16.749c3.62,2.426,8.17,3.934,12.91,4.845v0.002c0.022,0.004,0.043,0.006,0.065,0.01
					c0.094,0.019,0.185,0.039,0.279,0.058c-0.001-0.004-0.001-0.006-0.001-0.008c4.819,0.895,9.815,1.188,14.225,1.188
					C66.27,129.848,71.646,129.179,70.438,129.86z"/>
			</g>
		</g>
	</g>
</g>
<g id="&#x56FE;&#x5C42;_4">
</g>
<g id="&#x56FE;&#x5C42;_3">
</g>
<g id="&#x56FE;&#x5C42;_2">
</g>
</svg>
