<?xml version="1.0" encoding="utf-8"?>
<!-- Generator: Adobe Illustrator 17.0.0, SVG Export Plug-In . SVG Version: 6.00 Build 0)  -->
<!DOCTYPE svg PUBLIC "-//W3C//DTD SVG 1.1//EN" "http://www.w3.org/Graphics/SVG/1.1/DTD/svg11.dtd">
<svg version="1.1" xmlns="http://www.w3.org/2000/svg" xmlns:xlink="http://www.w3.org/1999/xlink" x="0px" y="0px"
	 width="67.587px" height="65.137px" viewBox="0 0 67.587 65.137" enable-background="new 0 0 67.587 65.137" xml:space="preserve">
<g id="圖層_1">
</g>
<g id="CMYK">
	<ellipse fill="#F4B4D0" cx="37.44" cy="56.967" rx="30.147" ry="8.17"/>
	<g>
		<path fill="#FCD475" d="M39.287,47.792c7.433,0.001,15.608-0.657,23.747-2.477c0.093-1.062,0.176-2.136,0.231-3.223
			c0.026-0.535,0.047-1.07,0.062-1.604c-0.547,0.153-1.126,0.238-1.726,0.238c-2.754,0-5.077-1.731-5.822-4.102
			c-0.745,2.371-3.069,4.102-5.824,4.102c-2.755,0-5.078-1.73-5.824-4.102c-0.745,2.371-3.069,4.102-5.824,4.102
			c-2.754,0-5.077-1.73-5.823-4.102c-0.745,2.371-3.068,4.102-5.823,4.102s-5.078-1.731-5.824-4.102
			c-0.745,2.371-3.069,4.102-5.824,4.102c-1.283,0-2.471-0.377-3.452-1.017c0.034,1.011,0.084,2.053,0.155,3.118
			c0.049,0.742,0.11,1.488,0.175,2.233c1.464,0.302,3.507,0.688,6.024,1.075C23.295,46.964,30.806,47.792,39.287,47.792z"/>
		<path fill="#FFF799" d="M39.287,51.061c-11.918-0.002-21.911-1.592-27.045-2.598c0.05,0.418,0.1,0.836,0.153,1.241
			c0.281,2.127,0.61,4.052,0.957,5.507c20.721,6.879,44.451,1.861,48.178,0c0.293-1.23,0.573-2.674,0.823-4.257
			c0.111-0.708,0.216-1.445,0.314-2.201C54.598,50.459,46.58,51.06,39.287,51.061z"/>
		<path fill="#FDEFF5" d="M62.91,31.34c-0.132-0.897-0.289-1.756-0.488-2.55c-0.807-3.219-2.184-6.091-4.364-8.234
			c-4.57-4.494-10.565-5.61-16.472-5.669c-1.393-0.015-7.562-0.035-9.289,0.02c-5.579,0.175-11.159,1.408-15.473,5.649
			c-2.635,2.59-4.099,6.244-4.793,10.291c-0.276,1.61-0.434,3.281-0.491,4.974c-0.039,1.169-0.026,2.495,0.021,3.888
			c0.981,0.64,2.169,1.017,3.452,1.017c2.755,0,5.079-1.731,5.824-4.102c0.746,2.371,3.069,4.102,5.824,4.102
			s5.078-1.73,5.823-4.102c0.746,2.371,3.069,4.102,5.823,4.102c2.755,0,5.079-1.73,5.824-4.102
			c0.746,2.371,3.069,4.102,5.824,4.102c2.755,0,5.079-1.731,5.824-4.102c0.745,2.371,3.068,4.102,5.822,4.102
			c0.6,0,1.179-0.085,1.726-0.238C63.427,37.277,63.316,34.1,62.91,31.34z"/>
		<path fill="#F8B62D" d="M62.667,48.754c0.142-1.106,0.263-2.263,0.367-3.438c-8.139,1.819-16.314,2.478-23.747,2.477
			c-8.481,0-15.992-0.829-21.371-1.657c-2.518-0.388-4.56-0.774-6.024-1.075c0.101,1.153,0.218,2.296,0.35,3.403
			c5.134,1.006,15.127,2.596,27.045,2.598C46.58,51.06,54.598,50.459,62.667,48.754z"/>
	</g>
	<path fill="#E83836" d="M46.624,9.609c-1.398-0.364-2.873-0.193-4.136,0.517c-0.704,0.397-2.957,2.164-2.868,3.108
		c-0.002-0.023-0.006-0.046-0.01-0.068l0.01-0.06c-0.005,0.01-0.009,0.019-0.014,0.028c-0.002-0.011-0.005-0.021-0.005-0.032
		l-0.012,0.06c-0.011,0.02-0.022,0.04-0.031,0.061c0.403-0.858-1.119-3.284-1.648-3.896c-0.948-1.095-2.279-1.754-3.717-1.885
		c-6.846-0.622-8.497,6.949-5.612,11.753c1.206,2.009,2.795,3.727,4.218,5.576c1.219,1.583,2.621,2.977,3.894,4.505
		c0.005,0.006,0.015,0.006,0.02,0.011l-0.005,0.026c0.017,0.003,0.03-0.005,0.045-0.006c0.007,0.003,0.013,0.007,0.02,0.011
		l-0.001,0.006c0.003,0.001,0.007-0.001,0.011-0.001c0.003,0.001,0.005,0.004,0.009,0.004l0.001-0.006
		c0.007-0.002,0.014-0.002,0.021-0.003c0.015,0.006,0.023,0.018,0.04,0.021l0.005-0.026c0.006-0.003,0.016,0,0.022-0.003
		c1.716-1.006,3.505-1.843,5.189-2.921c1.965-1.258,4.041-2.337,5.856-3.819C52.268,19.023,53.276,11.341,46.624,9.609z"/>
	<path fill="#EE87B4" d="M28.919,21.61c0.562-0.146,1.156-0.078,1.664,0.208c0.284,0.159,1.19,0.871,1.155,1.251
		c0.001-0.009,0.002-0.019,0.004-0.028l-0.004-0.024c0.002,0.004,0.004,0.007,0.006,0.011c0.001-0.004,0.001-0.008,0.002-0.013
		l0.004,0.024c0.005,0.008,0.009,0.017,0.013,0.025c-0.162-0.346,0.451-1.321,0.663-1.568c0.381-0.441,0.917-0.706,1.496-0.758
		c2.755-0.25,3.42,2.796,2.258,4.729c-0.485,0.809-1.125,1.5-1.697,2.245c-0.491,0.637-1.055,1.198-1.567,1.812
		c-0.002,0.002-0.006,0.002-0.008,0.004l0.002,0.01c-0.006,0.001-0.012-0.002-0.018-0.002c-0.002,0.002-0.005,0.003-0.008,0.004
		l0,0.003c-0.002,0.001-0.003,0-0.004,0c-0.001,0-0.001,0.002-0.003,0.002l0-0.003c-0.003,0-0.006-0.001-0.009-0.001
		c-0.006,0.002-0.009,0.007-0.016,0.008l-0.002-0.011c-0.002,0-0.006,0.001-0.009-0.001c-0.69-0.405-1.41-0.742-2.088-1.176
		c-0.791-0.506-1.626-0.94-2.357-1.537C26.648,25.399,26.242,22.306,28.919,21.61z"/>
	<path fill="#E83836" d="M35.118,53.632c-0.221-0.019-0.439,0.046-0.611,0.187c-0.096,0.079-0.39,0.405-0.351,0.545
		c-0.001-0.003-0.003-0.006-0.004-0.01v-0.009c0,0.001-0.001,0.003-0.001,0.005c-0.001-0.002-0.001-0.003-0.001-0.005v0.009
		c-0.001,0.004-0.002,0.006-0.003,0.01c0.039-0.14-0.255-0.466-0.352-0.545c-0.172-0.141-0.39-0.205-0.611-0.187
		c-1.05,0.086-1.1,1.273-0.538,1.923c0.235,0.272,0.521,0.49,0.784,0.731c0.227,0.207,0.475,0.38,0.708,0.578
		c0.001,0,0.002,0,0.003,0.001v0.004c0.003,0,0.004-0.001,0.007-0.002c0.001,0,0.002,0,0.003,0.001v0.001c0,0,0,0,0.001,0l0.001,0
		v-0.001c0.001,0,0.002-0.001,0.004-0.001c0.002,0,0.003,0.002,0.006,0.002v-0.004c0.001-0.001,0.002,0,0.003-0.001
		c0.233-0.198,0.481-0.371,0.707-0.578c0.263-0.242,0.548-0.459,0.784-0.731C36.218,54.905,36.168,53.718,35.118,53.632z"/>
	<path fill="#E83836" d="M22.43,41.058c-0.33-0.028-0.657,0.068-0.914,0.279c-0.144,0.118-0.584,0.605-0.526,0.815
		c-0.002-0.004-0.004-0.01-0.005-0.015v-0.014c-0.001,0.003-0.001,0.005-0.002,0.007c-0.001-0.002-0.001-0.004-0.003-0.007v0.014
		c-0.001,0.005-0.003,0.011-0.005,0.015c0.058-0.209-0.382-0.697-0.525-0.815c-0.257-0.211-0.584-0.308-0.915-0.279
		c-1.571,0.128-1.646,1.905-0.805,2.877c0.353,0.406,0.779,0.732,1.172,1.093c0.338,0.31,0.711,0.57,1.058,0.865
		c0.001,0.002,0.003,0,0.005,0.002v0.006c0.004,0,0.006-0.002,0.009-0.003c0.001,0,0.004,0.001,0.005,0.002v0.001
		c0.001,0,0.001,0,0.003-0.001c0.001,0,0.001,0.001,0.002,0.001V45.9c0.001,0,0.003-0.002,0.005-0.002
		c0.003,0.001,0.005,0.003,0.009,0.003v-0.006c0.002-0.001,0.004,0,0.005-0.002c0.348-0.295,0.72-0.555,1.058-0.865
		c0.393-0.361,0.82-0.688,1.172-1.093C24.076,42.963,24.001,41.187,22.43,41.058z"/>
	<path fill="#E83836" d="M57.294,51.589c-0.222-0.019-0.439,0.046-0.61,0.187c-0.097,0.079-0.392,0.405-0.353,0.545
		c-0.001-0.003-0.002-0.006-0.004-0.01v-0.009c0,0.001,0,0.003-0.001,0.005c0-0.002,0-0.003-0.001-0.005v0.009
		c-0.001,0.003-0.003,0.006-0.004,0.01c0.039-0.14-0.256-0.466-0.352-0.545c-0.172-0.141-0.39-0.205-0.611-0.187
		c-1.05,0.086-1.1,1.273-0.537,1.923c0.234,0.272,0.519,0.49,0.783,0.731c0.226,0.207,0.475,0.38,0.707,0.578
		c0.001,0,0.003,0,0.003,0v0.004c0.003,0,0.005-0.001,0.007-0.002c0.001,0,0.003,0,0.004,0.001v0.001l0.001,0l0.001,0v-0.001
		c0.002,0,0.003-0.001,0.004-0.001c0.003,0,0.004,0.002,0.007,0.002v-0.004c0.001-0.001,0.002-0.001,0.003-0.001
		c0.233-0.198,0.481-0.371,0.708-0.578c0.263-0.242,0.548-0.459,0.783-0.731C58.393,52.862,58.345,51.675,57.294,51.589z"/>
	<path fill="#EE87B4" d="M24.03,52.138c-0.221-0.019-0.439,0.046-0.611,0.187c-0.096,0.079-0.39,0.405-0.351,0.545
		c-0.002-0.003-0.003-0.006-0.004-0.01V52.85c0,0.001,0,0.003-0.001,0.005c-0.001-0.002-0.002-0.003-0.002-0.005v0.009
		c-0.001,0.003-0.002,0.007-0.004,0.01c0.039-0.14-0.255-0.466-0.352-0.545c-0.172-0.14-0.39-0.205-0.611-0.187
		c-1.05,0.086-1.1,1.273-0.538,1.923c0.235,0.272,0.52,0.49,0.784,0.731c0.226,0.207,0.475,0.38,0.708,0.578
		c0,0,0.002,0,0.003,0.001v0.004c0.003,0,0.004-0.001,0.006-0.002c0.002,0,0.003,0.001,0.004,0.001v0.001c0,0,0,0,0.002-0.001
		c0,0,0,0.001,0.001,0.001v-0.001c0.001,0,0.002-0.001,0.004-0.001c0.002,0.001,0.003,0.002,0.006,0.002v-0.004
		c0,0,0.002,0,0.003-0.001c0.233-0.198,0.481-0.371,0.708-0.578c0.263-0.242,0.548-0.46,0.784-0.731
		C25.13,53.411,25.08,52.224,24.03,52.138z"/>
	<path fill="#EE87B4" d="M46.206,53.019c-0.221-0.019-0.439,0.046-0.611,0.187c-0.096,0.079-0.391,0.405-0.351,0.545
		c-0.002-0.003-0.004-0.006-0.005-0.01v-0.009c0,0.001,0,0.003,0,0.005c-0.002-0.002-0.002-0.003-0.002-0.005v0.009
		c-0.002,0.003-0.003,0.007-0.004,0.01c0.039-0.14-0.256-0.466-0.352-0.545c-0.172-0.141-0.39-0.205-0.611-0.187
		c-1.05,0.086-1.1,1.273-0.538,1.923c0.235,0.272,0.521,0.49,0.783,0.731c0.227,0.207,0.476,0.38,0.708,0.578
		c0.001,0,0.003,0,0.003,0v0.004c0.003,0,0.004-0.001,0.007-0.002c0.001,0,0.002,0,0.004,0.001v0.001c0,0,0,0,0.002,0v0v-0.001
		c0.001,0,0.003-0.001,0.005-0.001c0.001,0,0.003,0.002,0.006,0.002v-0.004c0,0,0.002,0,0.003-0.001
		c0.233-0.198,0.48-0.371,0.707-0.578c0.264-0.242,0.549-0.459,0.783-0.731C47.306,54.292,47.256,53.105,46.206,53.019z"/>
	<circle fill="#E60012" cx="22.735" cy="22.019" r="0.864"/>
	<circle fill="#E60012" cx="38.461" cy="34.431" r="0.864"/>
	<circle fill="#8FC31F" cx="26.615" cy="36.269" r="0.864"/>
	<circle fill="#8FC31F" cx="59.09" cy="31.367" r="0.864"/>
	<circle fill="#65AADD" cx="15.382" cy="32.75" r="0.864"/>
	<circle fill="#65AADD" cx="50.968" cy="37.495" r="0.864"/>
	<circle fill="#EC7AAC" cx="54.598" cy="22.428" r="0.864"/>
	<circle fill="#F8B62D" cx="25.594" cy="29.372" r="0.864"/>
	<circle fill="#F8B62D" cx="46.428" cy="30.095" r="0.864"/>
	<text transform="matrix(0.9993 0.0386 -0.0386 0.9993 29.7118 19.3732)"><tspan x="0" y="0" fill="#FFFFFF" font-family="'UdamojiAL'" font-size="5.9349">Swe</tspan><tspan x="10.089" y="1.576" fill="#FFFFFF" font-family="'UdamojiAL'" font-size="5.9349">e</tspan><tspan x="13.003" y="0" fill="#FFFFFF" font-family="'UdamojiAL'" font-size="5.9349">t</tspan></text>
	<g>
		<g>
			<path fill="#EB6133" d="M17.052,45.152c0.036-0.065,0.103-0.111,0.177-0.122l2.509-0.321c0.102-0.014,0.202,0.04,0.249,0.137
				c0.041,0.09,0.021,0.203-0.051,0.275l-1.879,1.768c-0.056,0.053-0.137,0.073-0.214,0.059c-0.073-0.016-0.135-0.067-0.168-0.139
				l-0.634-1.444C17.012,45.296,17.016,45.216,17.052,45.152z"/>
			<path fill="#9FD9F6" d="M15.423,53.403c-1.311,0.934-2.906,1.545-4.47,1.902c-1.011,0.231-2.053,0.356-3.093,0.307
				c-0.792-0.034-1.557-0.284-2.326-0.458c-0.819-0.186-1.56-0.192-2.388-0.108c-0.404,0.039-1.137,0.323-1.517,0.167
				c-0.354-0.136-0.416-0.76-0.472-1.079c-0.169-1.031,1.264-0.402,1.806-0.375c0.769,0.042,1.241-0.081,1.848-0.549
				c1.052-0.821,1.429-2.129,1.735-3.367c0.473-1.921,0.961-3.988,2.277-5.529c0.382-0.45,0.859-0.805,1.342-1.145
				c0.543-0.38,1.147-0.642,1.795-0.765c2.044-0.389,4.382,0.437,5.528,2.222c0.756,1.167,1.122,2.592,0.942,3.976
				C18.185,50.524,16.98,52.291,15.423,53.403z"/>
			<path fill="#65AADD" d="M13.393,52.751c0.029-0.31,0.016-0.624-0.05-0.936c-0.251-1.174-1.15-2.18-2.362-2.419
				c-1.095-0.22-2.177,0.451-2.757,1.346c-0.546,0.844-0.693,1.86-0.866,2.832c-0.196,1.118-0.496,2.309-1.128,3.268
				c-0.14,0.211-0.577,0.608-0.458,0.886c0.18,0.424,0.894,0.17,1.164,0.073c0.488-0.171,0.986-0.27,1.486-0.397
				c1.098-0.281,2.214-0.643,3.119-1.346c0.512-0.397,0.935-0.894,1.244-1.464C13.094,54.025,13.334,53.396,13.393,52.751z"/>
			<path d="M15.088,46.553c0.13,0.412,0.57,0.643,0.98,0.515c0.416-0.131,0.647-0.569,0.514-0.983
				c-0.128-0.414-0.566-0.646-0.982-0.514C15.188,45.699,14.957,46.139,15.088,46.553z"/>
		</g>
	</g>
	<g>
		<g>
			<path fill="#EB6133" d="M42.943,3.586c-0.047-0.058-0.12-0.092-0.195-0.089l-2.526,0.118C40.12,3.619,40.029,3.689,40,3.793
				c-0.024,0.096,0.015,0.204,0.1,0.263l2.157,1.415c0.063,0.043,0.146,0.048,0.22,0.021c0.069-0.028,0.121-0.09,0.143-0.166
				l0.375-1.532C43.008,3.721,42.99,3.642,42.943,3.586z"/>
			<path fill="#FFF462" d="M45.976,11.43c1.452,0.693,3.13,1.018,4.732,1.099c1.035,0.052,2.083-0.004,3.1-0.233
				c0.774-0.171,1.484-0.549,2.212-0.854c0.774-0.325,1.503-0.459,2.333-0.52c0.403-0.031,1.175,0.121,1.523-0.099
				c0.323-0.195,0.278-0.821,0.277-1.144c-0.012-1.044-1.315-0.177-1.843-0.056c-0.75,0.174-1.237,0.135-1.916-0.221
				c-1.179-0.627-1.776-1.85-2.292-3.015c-0.798-1.81-1.638-3.762-3.199-5.052c-0.455-0.376-0.986-0.643-1.521-0.895
				c-0.6-0.28-1.24-0.433-1.9-0.442c-2.08-0.029-4.239,1.189-5.06,3.145c-0.543,1.28-0.656,2.747-0.239,4.079
				C42.758,9.073,44.25,10.604,45.976,11.43z"/>
			<path fill="#F08437" d="M47.864,10.437c-0.083-0.301-0.125-0.612-0.113-0.93c0.044-1.2,0.754-2.346,1.908-2.793
				c1.039-0.406,2.221,0.067,2.947,0.848c0.685,0.736,1.005,1.712,1.344,2.639c0.387,1.067,0.888,2.188,1.677,3.023
				c0.174,0.185,0.673,0.5,0.604,0.793c-0.104,0.449-0.852,0.322-1.135,0.274c-0.511-0.085-1.018-0.095-1.531-0.133
				c-1.13-0.087-2.292-0.25-3.305-0.786c-0.573-0.302-1.076-0.718-1.479-1.227C48.378,11.639,48.033,11.062,47.864,10.437z"/>
			<path d="M45.121,4.626c-0.056,0.429-0.45,0.732-0.876,0.677c-0.433-0.057-0.736-0.449-0.677-0.879
				c0.054-0.43,0.446-0.733,0.878-0.676C44.875,3.802,45.179,4.195,45.121,4.626z"/>
		</g>
	</g>
</g>
</svg>
