<?xml version="1.0" encoding="iso-8859-1"?>
<!-- Generator: Adobe Illustrator 17.0.0, SVG Export Plug-In . SVG Version: 6.00 Build 0)  -->
<!DOCTYPE svg PUBLIC "-//W3C//DTD SVG 1.1//EN" "http://www.w3.org/Graphics/SVG/1.1/DTD/svg11.dtd">
<svg version="1.1" id="Objects" xmlns="http://www.w3.org/2000/svg" xmlns:xlink="http://www.w3.org/1999/xlink" x="0px" y="0px"
	 width="162.261px" height="131.603px" viewBox="0 0 162.261 131.603" style="enable-background:new 0 0 162.261 131.603;"
	 xml:space="preserve">
<g>
	<g>
		<path style="fill-rule:evenodd;clip-rule:evenodd;fill:#FFE1D9;" d="M87.583,18.61c12.946,0,23.441,7.799,23.441,17.419
			c0,7.453-6.299,13.811-15.156,16.299l2.683,9.723l-7.878-8.753c-1.011,0.099-2.042,0.151-3.09,0.151
			c-12.945,0-23.44-7.798-23.44-17.419C64.143,26.409,74.638,18.61,87.583,18.61z"/>
		<path style="fill:#CF7761;" d="M87.583,19.411c6.299,0,11.99,1.889,16.1,4.943c4.041,3.002,6.54,7.132,6.54,11.675
			c0,3.462-1.45,6.683-3.926,9.345c-2.589,2.785-6.294,4.963-10.645,6.185c-0.425,0.119-0.673,0.561-0.554,0.985l0.01,0.032
			L96.881,59l-5.613-6.237c-0.189-0.208-0.461-0.295-0.72-0.254c-0.475,0.046-0.962,0.081-1.455,0.104
			c-0.468,0.023-0.971,0.035-1.51,0.035v1.602c0.502,0,1.03-0.013,1.585-0.04c0.393-0.019,0.785-0.045,1.178-0.079l7.61,8.456
			l0.001-0.001c0.196,0.218,0.505,0.319,0.807,0.236c0.425-0.118,0.675-0.558,0.557-0.983l-2.474-8.966
			c4.307-1.336,7.988-3.578,10.62-6.409c2.748-2.955,4.358-6.55,4.358-10.434c0-5.077-2.748-9.657-7.191-12.959
			c-4.375-3.25-10.404-5.262-17.051-5.262V19.411z M87.583,52.647c-6.299,0-11.99-1.888-16.1-4.942
			c-4.041-3.003-6.54-7.132-6.54-11.676c0-4.543,2.499-8.673,6.54-11.675c4.109-3.054,9.801-4.943,16.1-4.943v-1.602
			c-6.646,0-12.676,2.011-17.051,5.262c-4.443,3.302-7.19,7.882-7.19,12.959c0,5.077,2.747,9.658,7.19,12.959
			c4.375,3.251,10.404,5.261,17.051,5.261V52.647z"/>
		<path style="fill:#2C3945;" d="M100.51,29.726c0.442,0,0.801-0.359,0.801-0.801s-0.358-0.801-0.801-0.801H75.304
			c-0.441,0-0.801,0.358-0.801,0.801s0.359,0.801,0.801,0.801H100.51z"/>
		<path style="fill:#2C3945;" d="M100.51,34.504c0.442,0,0.801-0.359,0.801-0.801c0-0.442-0.358-0.801-0.801-0.801H75.304
			c-0.441,0-0.801,0.359-0.801,0.801c0,0.442,0.359,0.801,0.801,0.801H100.51z"/>
		<path style="fill:#2C3945;" d="M100.51,39.282c0.442,0,0.801-0.358,0.801-0.801c0-0.443-0.358-0.801-0.801-0.801H75.304
			c-0.441,0-0.801,0.358-0.801,0.801c0,0.442,0.359,0.801,0.801,0.801H100.51z"/>
		<path style="fill:#2C3945;" d="M100.51,44.06c0.442,0,0.801-0.358,0.801-0.801c0-0.443-0.358-0.801-0.801-0.801H75.304
			c-0.441,0-0.801,0.358-0.801,0.801c0,0.442,0.359,0.801,0.801,0.801H100.51z"/>
	</g>
	<g>
		<path style="fill-rule:evenodd;clip-rule:evenodd;fill:#FFE1D9;" d="M70.8,0.801c-12.946,0-23.441,7.799-23.441,17.42
			c0,7.452,6.299,13.811,15.156,16.298l-2.683,9.723l7.878-8.753c1.011,0.099,2.042,0.151,3.09,0.151
			c12.945,0,23.44-7.799,23.44-17.419C94.24,8.6,83.745,0.801,70.8,0.801z"/>
		<path style="fill:#CF7761;" d="M70.8,34.838c6.299,0,11.99-1.889,16.1-4.942c4.04-3.003,6.54-7.132,6.54-11.676
			c0-4.544-2.5-8.673-6.54-11.676c-4.109-3.054-9.801-4.942-16.1-4.942V0c6.647,0,12.676,2.011,17.051,5.262
			c4.443,3.302,7.19,7.882,7.19,12.959c0,5.076-2.747,9.657-7.19,12.958C83.476,34.43,77.446,36.44,70.8,36.44V34.838z M70.8,1.602
			c-6.299,0-11.99,1.889-16.1,4.942c-4.041,3.004-6.54,7.132-6.54,11.676c0,3.461,1.45,6.682,3.926,9.344
			c2.59,2.785,6.294,4.963,10.644,6.184c0.426,0.12,0.674,0.561,0.555,0.986l-0.01,0.032l-1.772,6.423l5.613-6.237
			c0.188-0.208,0.461-0.295,0.72-0.255c0.477,0.047,0.961,0.082,1.455,0.106c0.468,0.022,0.971,0.034,1.51,0.034l0,0v1.602l0,0
			c-0.502,0-1.03-0.014-1.585-0.041c-0.392-0.019-0.785-0.045-1.178-0.079l-7.61,8.456h-0.001c-0.196,0.217-0.505,0.318-0.807,0.235
			c-0.425-0.118-0.674-0.558-0.557-0.982l2.473-8.966c-4.306-1.336-7.987-3.578-10.619-6.409c-2.749-2.955-4.358-6.549-4.358-10.433
			c0-5.077,2.748-9.657,7.191-12.959C58.123,2.011,64.152,0,70.8,0l0,0V1.602L70.8,1.602z"/>
		<path style="fill:#2C3945;" d="M57.873,11.917c-0.442,0-0.801-0.359-0.801-0.801c0-0.442,0.358-0.801,0.801-0.801h25.205
			c0.442,0,0.802,0.359,0.802,0.801c0,0.442-0.359,0.801-0.802,0.801H57.873z"/>
		<path style="fill:#2C3945;" d="M57.873,16.695c-0.442,0-0.801-0.358-0.801-0.801c0-0.442,0.358-0.801,0.801-0.801h25.205
			c0.442,0,0.802,0.358,0.802,0.801c0,0.443-0.359,0.801-0.802,0.801H57.873z"/>
		<path style="fill:#2C3945;" d="M57.873,21.473c-0.442,0-0.801-0.358-0.801-0.801c0-0.442,0.358-0.801,0.801-0.801h25.205
			c0.442,0,0.802,0.359,0.802,0.801c0,0.443-0.359,0.801-0.802,0.801H57.873z"/>
		<path style="fill:#2C3945;" d="M57.873,26.25c-0.442,0-0.801-0.358-0.801-0.801s0.358-0.801,0.801-0.801h25.205
			c0.442,0,0.802,0.359,0.802,0.801s-0.359,0.801-0.802,0.801H57.873z"/>
	</g>
	<g>
		<path style="fill-rule:evenodd;clip-rule:evenodd;fill:#27557D;" d="M43.249,83.831c7.233-1.726,12.239-6.499,13.555-0.646
			c1.564,6.959,5.069,24.861,7.095,40.882c0.436,3.457-0.502,4.511-1.604,4.844c-4.928,1.492-9.16,1.955-14.614,2.691l-4.45-47.741
			C43.227,83.848,43.241,83.833,43.249,83.831z"/>
		<path style="fill-rule:evenodd;clip-rule:evenodd;fill:#B55C46;" d="M52.227,58.833c-4.462,21.122-13.351,58.758-20.074,58.758
			c-6.722,0-19.903-40.457-22.491-56.047c-2.233-13.438,2.01-39.687,30.217-31.113C49.336,29.909,56.1,40.499,52.227,58.833z"/>
		<path style="fill-rule:evenodd;clip-rule:evenodd;fill:#27557D;" d="M21.277,83.831c-9.138-2.18-12.179-6.951-13.774,0.226
			c-1.67,7.513-4.961,24.76-6.892,40.134c-0.496,3.94,0.851,4.528,2.18,4.873c4.729,1.228,8.808,1.831,14.056,2.539l4.45-47.741
			C21.299,83.848,21.284,83.833,21.277,83.831z"/>
		<path style="fill-rule:evenodd;clip-rule:evenodd;fill:#27557D;" d="M14.157,130.669l-0.238,0.56
			c11.256,1.424,25.102,1.449,36.392,0.075c-0.104-0.228-0.205-0.44-0.304-0.635H14.157z"/>
		<path style="fill-rule:evenodd;clip-rule:evenodd;fill:#3F73A1;" d="M13.549,131.18c3.194-9.213,1.35-11.924-2.838-21.967
			c-4.268-10.239,4.394-15.718-2.044-28.392c5.705-3.658,13.076-5.139,17.514-8.755c2.105,1.852,3.605,2.273,5.991,2.273
			s3.964-0.482,6.066-2.335c3.283,2.675,11.693,4.927,17.661,8.817c-6.137,13.008,2.178,15.15-2.045,28.392
			c-3.225,10.11-8.248,10.67-3.56,22.092C38.884,132.692,24.866,132.651,13.549,131.18z"/>
		<polygon style="fill-rule:evenodd;clip-rule:evenodd;fill:#FFFFFF;" points="20.93,75.124 20.397,89.29 32.256,119.393 
			43.945,89.29 43.219,74.734 38.239,72.004 26.181,72.067 		"/>
		<rect x="26.183" y="67.117" style="fill-rule:evenodd;clip-rule:evenodd;fill:#D1A886;" width="11.846" height="12.269"/>
		<path style="fill-rule:evenodd;clip-rule:evenodd;fill:#F2CAA9;" d="M32.172,74.341c5.935,0,11.43-6.787,14.327-15.101
			c0.169,0.174,0.36,0.285,0.571,0.32c1.182,0.196,2.534-2.022,3.021-4.955c0.487-2.933-0.074-5.47-1.256-5.667
			c-0.083-0.013-0.168-0.015-0.253-0.004c0.579-10.303-3.692-19.821-16.411-19.821c-12.729,0-16.997,9.533-16.411,19.845
			c-0.129-0.034-0.258-0.04-0.385-0.02c-1.181,0.196-1.743,2.733-1.257,5.667c0.487,2.932,1.839,5.15,3.02,4.955
			c0.253-0.042,0.476-0.19,0.667-0.426C20.693,67.497,26.21,74.341,32.172,74.341z"/>
		<path style="fill-rule:evenodd;clip-rule:evenodd;fill:#93B9DB;" d="M34.136,86.971l0.825-1.744l-2.789-6.762l-2.744,6.653
			l0.876,1.853C31.581,86.971,32.859,86.971,34.136,86.971z"/>
		<polygon style="fill-rule:evenodd;clip-rule:evenodd;fill:#CCCCCC;" points="26.18,72.067 32.172,78.466 27.907,89.871 
			22.636,74.418 		"/>
		<polygon style="fill-rule:evenodd;clip-rule:evenodd;fill:#27557D;" points="22.675,74.108 32.172,119.553 16.536,94.622 
			18.59,90.27 14.129,86.714 20.185,75.478 		"/>
		<polygon style="fill-rule:evenodd;clip-rule:evenodd;fill:#CCCCCC;" points="38.239,72.005 32.172,78.466 36.435,89.871 
			41.783,74.356 		"/>
		<polygon style="fill-rule:evenodd;clip-rule:evenodd;fill:#93B9DB;" points="30.304,91.212 34.136,91.212 36.128,110.423 
			32.172,119.553 28.364,110.423 		"/>
		<polygon style="fill-rule:evenodd;clip-rule:evenodd;fill:#FFFFFF;" points="26.181,72.065 32.172,78.466 27.815,87.053 
			22.638,74.416 		"/>
		<polygon style="fill-rule:evenodd;clip-rule:evenodd;fill:#3F73A1;" points="22.675,74.108 32.172,119.553 18.056,92.634 
			20.397,89.29 15.883,85.778 20.185,75.478 		"/>
		<polygon style="fill-rule:evenodd;clip-rule:evenodd;fill:#27557D;" points="41.899,74.011 32.172,119.553 47.807,94.622 
			45.753,90.27 50.215,86.714 45.424,75.641 		"/>
		<polygon style="fill-rule:evenodd;clip-rule:evenodd;fill:#3F73A1;" points="41.899,74.011 32.172,119.553 46.287,92.634 
			43.945,89.29 48.459,85.778 45.424,75.641 		"/>
		<polygon style="fill-rule:evenodd;clip-rule:evenodd;fill:#FFFFFF;" points="38.239,72.003 32.172,78.466 36.527,87.053 
			41.783,74.354 		"/>
		<path style="fill-rule:evenodd;clip-rule:evenodd;fill:#93B9DB;" d="M30.304,86.655h3.832c0.857,1.776,0.79,3.329,0,4.845h-3.832
			C29.514,89.983,29.447,88.431,30.304,86.655z"/>
		<path style="fill-rule:evenodd;clip-rule:evenodd;fill:#27557D;" d="M31.633,132.313c0.101-3.335,0.352-7.301,0.76-13.246
			c0.407,5.946,0.679,9.912,0.801,13.246C32.673,132.317,32.153,132.315,31.633,132.313z"/>
		
			<ellipse transform="matrix(0.217 -0.9762 0.9762 0.217 -16.3216 89.9534)" style="fill-rule:evenodd;clip-rule:evenodd;fill:#F2CAA9;" cx="47.911" cy="55.151" rx="4.483" ry="2.126"/>
		<path style="fill-rule:evenodd;clip-rule:evenodd;fill:#B55C46;" d="M48.816,48.934c0.591-10.303-3.761-19.821-16.711-19.821
			c-12.961,0-17.308,9.533-16.711,19.843c1.049,0.257,2.141,2.142,2.622,4.597c0.846,0.558,1.458,0.231,1.458-1.845
			c0-6.131,0.772-11.565,4.872-12.861c3.9-1.233,4.759,1.473,7.736,1.473c2.977,0,3.916-2.549,7.736-1.473
			c3.966,1.119,4.871,6.73,4.871,12.861c0,1.993,0.563,2.374,1.355,1.909C46.541,51.025,47.719,49.054,48.816,48.934z"/>
		<path style="fill-rule:evenodd;clip-rule:evenodd;fill:#B55C46;" d="M43.919,32.602c0.825,5.773-8.25,18.354-14.85,21.243
			c4.214-2.339,6.98-11.034,5.963-17.322C34.794,35.046,44.606,33.7,43.919,32.602z"/>
		<path style="fill-rule:evenodd;clip-rule:evenodd;fill:#B55C46;" d="M39.521,33.369c-0.779,5.78-20.319,23.752-27.457,24.732
			C9.849,28.386,28.117,40.724,29.903,34.72C30.329,33.288,39.884,34.612,39.521,33.369z"/>
		<path style="fill-rule:evenodd;clip-rule:evenodd;fill:#B55C46;" d="M34.828,29.677c-0.464,5.814,9.088,26.65,15.854,29.121
			c2.553-21.269-2.97-24.035-6.742-25.761C42.584,32.416,34.21,30.816,34.828,29.677z"/>
	</g>
	<g>
		<path style="fill-rule:evenodd;clip-rule:evenodd;fill:#27557D;" d="M138.931,83.831c7.234-1.726,17.312-5.822,18.625,0.031
			c1.563,6.957,3.492,23.45,5.515,39.471c0.436,3.454-3.992,5.245-5.094,5.578c-4.928,1.491-9.16,1.955-14.614,2.691l-4.45-47.741
			C138.91,83.848,138.923,83.833,138.931,83.831z"/>
		<path style="fill-rule:evenodd;clip-rule:evenodd;fill:#27557D;" d="M116.96,83.831c-9.137-2.18-16.398-7.263-17.993-0.088
			c-1.669,7.513-3.498,23.972-5.428,39.344c-0.495,3.939,3.606,5.631,4.934,5.976c4.73,1.227,8.808,1.831,14.056,2.539l4.45-47.741
			C116.981,83.848,116.967,83.832,116.96,83.831z"/>
		<path style="fill-rule:evenodd;clip-rule:evenodd;fill:#27557D;" d="M109.84,130.669l-0.238,0.56
			c11.256,1.424,25.101,1.449,36.392,0.075c-0.104-0.228-0.205-0.44-0.304-0.635H109.84z"/>
		<path style="fill-rule:evenodd;clip-rule:evenodd;fill:#3F73A1;" d="M105.317,130.554c2.496-7.199-3.202-40.904-6.351-47.103
			c1.79-6.362,18.46-7.769,22.897-11.385c2.104,1.852,3.604,2.273,5.991,2.273c2.387,0,3.964-0.482,6.066-2.335
			c3.283,2.675,20.49,4.762,23.433,11.126c-3.35,7.101-9.493,40.914-6.834,47.392C139.312,132.725,116.849,132.881,105.317,130.554z
			"/>
		<polygon style="fill-rule:evenodd;clip-rule:evenodd;fill:#FFFFFF;" points="116.613,75.124 116.08,89.29 127.938,119.393 
			139.628,89.29 138.901,74.734 133.922,72.004 121.864,72.067 		"/>
		<rect x="121.866" y="67.117" style="fill-rule:evenodd;clip-rule:evenodd;fill:#D1A886;" width="11.845" height="12.269"/>
		<path style="fill-rule:evenodd;clip-rule:evenodd;fill:#FCB024;" d="M129.818,86.971l0.825-1.744l-2.789-6.762l-2.744,6.653
			l0.876,1.853C127.264,86.971,128.542,86.971,129.818,86.971z"/>
		<polygon style="fill-rule:evenodd;clip-rule:evenodd;fill:#CCCCCC;" points="121.862,72.067 127.854,78.466 123.59,89.871 
			118.319,74.418 		"/>
		<polygon style="fill-rule:evenodd;clip-rule:evenodd;fill:#27557D;" points="118.357,74.108 127.854,119.553 112.219,94.622 
			114.273,90.27 109.812,86.714 115.868,75.478 		"/>
		<polygon style="fill-rule:evenodd;clip-rule:evenodd;fill:#CCCCCC;" points="133.922,72.005 127.854,78.466 132.117,89.871 
			137.466,74.356 		"/>
		<polygon style="fill-rule:evenodd;clip-rule:evenodd;fill:#FCB024;" points="125.986,91.212 129.818,91.212 131.811,110.423 
			127.854,119.553 124.047,110.423 		"/>
		<polygon style="fill-rule:evenodd;clip-rule:evenodd;fill:#FFFFFF;" points="121.864,72.065 127.854,78.466 123.498,87.053 
			118.32,74.416 		"/>
		<polygon style="fill-rule:evenodd;clip-rule:evenodd;fill:#3F73A1;" points="118.357,74.108 127.854,119.553 113.738,92.634 
			116.08,89.29 111.565,85.778 115.868,75.478 		"/>
		<polygon style="fill-rule:evenodd;clip-rule:evenodd;fill:#27557D;" points="137.583,74.011 127.854,119.553 143.49,94.622 
			141.436,90.27 145.897,86.714 141.107,75.641 		"/>
		<polygon style="fill-rule:evenodd;clip-rule:evenodd;fill:#3F73A1;" points="137.583,74.011 127.854,119.553 141.97,92.634 
			139.628,89.29 144.143,85.778 141.107,75.641 		"/>
		<polygon style="fill-rule:evenodd;clip-rule:evenodd;fill:#FFFFFF;" points="133.922,72.003 127.854,78.466 132.211,87.053 
			137.466,74.354 		"/>
		<path style="fill-rule:evenodd;clip-rule:evenodd;fill:#FCB024;" d="M125.986,86.655h3.832c0.856,1.776,0.79,3.329,0,4.845h-3.832
			C125.197,89.983,125.13,88.431,125.986,86.655z"/>
		<path style="fill-rule:evenodd;clip-rule:evenodd;fill:#27557D;" d="M127.315,132.313c0.101-3.335,0.352-7.301,0.76-13.246
			c0.408,5.946,0.678,9.912,0.801,13.246C128.355,132.317,127.836,132.315,127.315,132.313z"/>
		<polygon style="fill-rule:evenodd;clip-rule:evenodd;fill:#FFFFFF;" points="114.819,75.487 116.291,89.067 128.089,119.018 
			139.72,89.067 141.19,75.487 135.562,71.868 120.447,71.868 		"/>
		<rect x="120.447" y="67.006" style="fill-rule:evenodd;clip-rule:evenodd;fill:#D1A886;" width="14.983" height="12.207"/>
		<path style="fill-rule:evenodd;clip-rule:evenodd;fill:#F2CAA9;" d="M128.005,74.193c5.905,0,11.372-6.753,14.255-15.024
			c0.169,0.173,0.359,0.283,0.569,0.318c1.175,0.195,2.521-2.012,3.006-4.93c0.484-2.918-0.074-5.442-1.25-5.637
			c-0.082-0.013-0.166-0.015-0.251-0.005c0.576-10.25-3.674-19.72-16.329-19.72c-12.665,0-16.912,9.484-16.327,19.744
			c-0.129-0.033-0.257-0.039-0.384-0.019c-1.175,0.195-1.734,2.719-1.25,5.637c0.484,2.918,1.83,5.125,3.005,4.93
			c0.251-0.042,0.474-0.189,0.663-0.424C116.585,67.384,122.074,74.193,128.005,74.193z"/>
		<path style="fill-rule:evenodd;clip-rule:evenodd;fill:#57291E;" d="M144.335,48.915c0.577-10.25-3.675-19.72-16.33-19.72
			c-12.665,0-16.913,9.484-16.33,19.743c1.025,0.255,2.092,2.131,2.564,4.573c0.826,0.556,1.424,0.231,1.424-1.835
			c0-6.101,0.755-11.506,4.761-12.796c3.813-1.228,4.65,1.466,7.561,1.466c2.909,0,3.826-2.537,7.56-1.466
			c3.876,1.112,4.761,6.695,4.761,12.796c0,1.983,0.551,2.362,1.324,1.899C142.111,50.996,143.264,49.035,144.335,48.915z"/>
		<path style="fill-rule:evenodd;clip-rule:evenodd;fill:#FC8D25;" d="M129.96,86.761l0.821-1.735l-2.776-6.729l-2.73,6.62
			l0.873,1.844C127.417,86.761,128.689,86.761,129.96,86.761z"/>
		<polygon style="fill-rule:evenodd;clip-rule:evenodd;fill:#CCCCCC;" points="120.447,71.868 128.005,78.297 123.763,89.646 
			116.921,74.207 		"/>
		<polygon style="fill-rule:evenodd;clip-rule:evenodd;fill:#27557D;" points="116.921,74.207 128.005,119.178 112.449,94.373 
			114.492,90.043 110.054,86.504 114.819,75.487 		"/>
		<polygon style="fill-rule:evenodd;clip-rule:evenodd;fill:#CCCCCC;" points="135.562,71.868 128.005,78.297 132.247,89.646 
			139.088,74.207 		"/>
		<polygon style="fill-rule:evenodd;clip-rule:evenodd;fill:#FC8D25;" points="126.147,90.98 129.96,90.98 131.941,110.093 
			128.005,119.178 124.217,110.093 		"/>
		<path style="fill-rule:evenodd;clip-rule:evenodd;fill:#57291E;" d="M139.398,35.866c-1.634,3.268-18.094,12.63-23.546,13.058
			C110.4,49.351,115.563,27.403,139.398,35.866z"/>
		<path style="fill-rule:evenodd;clip-rule:evenodd;fill:#57291E;" d="M131.563,35.866c0.704,3.268,7.798,12.63,10.148,13.058
			C144.061,49.351,141.836,27.403,131.563,35.866z"/>
		<polygon style="fill-rule:evenodd;clip-rule:evenodd;fill:#FFFFFF;" points="120.447,71.868 128.005,78.297 123.671,86.842 
			116.921,74.207 		"/>
		<polygon style="fill-rule:evenodd;clip-rule:evenodd;fill:#3F73A1;" points="116.921,74.207 128.005,119.178 113.961,92.394 
			116.291,89.067 111.799,85.573 114.819,75.487 		"/>
		<polygon style="fill-rule:evenodd;clip-rule:evenodd;fill:#27557D;" points="139.088,74.207 128.005,119.178 143.561,94.373 
			141.518,90.043 145.957,86.504 141.19,75.487 		"/>
		<polygon style="fill-rule:evenodd;clip-rule:evenodd;fill:#3F73A1;" points="139.088,74.207 128.005,119.178 142.049,92.394 
			139.72,89.067 144.212,85.573 141.19,75.487 		"/>
		<polygon style="fill-rule:evenodd;clip-rule:evenodd;fill:#FFFFFF;" points="135.562,71.868 128.005,78.297 132.339,86.842 
			139.088,74.207 		"/>
		<path style="fill-rule:evenodd;clip-rule:evenodd;fill:#FC8D25;" d="M126.147,86.446h3.812c0.853,1.766,0.785,3.311,0,4.82h-3.812
			C125.361,89.757,125.294,88.212,126.147,86.446z"/>
		<path style="fill-rule:evenodd;clip-rule:evenodd;fill:#27557D;" d="M127.047,132.312c0.626,0.005,1.25,0.006,1.874,0.003
			c0.229-3.225-0.461-11.824-0.937-13.244C127.509,120.209,126.819,128.917,127.047,132.312z"/>
	</g>
</g>
</svg>
