<?xml version="1.0" encoding="iso-8859-1"?>
<!-- Generator: Adobe Illustrator 17.0.0, SVG Export Plug-In . SVG Version: 6.00 Build 0)  -->
<!DOCTYPE svg PUBLIC "-//W3C//DTD SVG 1.1//EN" "http://www.w3.org/Graphics/SVG/1.1/DTD/svg11.dtd">
<svg version="1.1" id="Objects" xmlns="http://www.w3.org/2000/svg" xmlns:xlink="http://www.w3.org/1999/xlink" x="0px" y="0px"
	 width="800px" height="439px" viewBox="0 0 800 439" style="enable-background:new 0 0 800 439;" xml:space="preserve">
<g>
	<g>
		<g>
			<g>
				<g>
					<g>
						<polygon style="fill:#735E57;" points="263.804,233.607 272.519,228.705 275.461,233.934 266.745,238.837 284.177,229.031 
							281.235,223.802 						"/>
						
							<rect x="264.632" y="230.771" transform="matrix(0.8716 -0.4903 0.4903 0.8716 -79.9811 162.2102)" style="fill:#564741;" width="9.999" height="6"/>
						
							<rect x="359.377" y="170.35" transform="matrix(-0.4903 -0.8716 0.8716 -0.4903 389.695 586.6022)" style="fill:#FFFFFF;" width="13.999" height="17.999"/>
						<polygon style="fill:#FFFFFF;" points="298.448,209.529 279.274,220.315 281.235,223.802 284.177,229.031 286.138,232.518 
							305.312,221.731 						"/>
						<polygon style="fill:#735E57;" points="399.822,149.062 374.547,163.28 384.352,180.711 379.123,183.653 406.142,168.454 
							396.337,151.024 						"/>
						<polygon style="fill:#FFFFFF;" points="409.628,166.493 399.822,149.062 396.337,151.024 406.142,168.454 406.143,168.455 
													"/>
						<polygon style="fill:#564741;" points="374.547,163.28 374.547,163.28 369.317,166.223 370.788,168.838 377.652,181.038 
							379.123,183.653 384.352,180.711 						"/>
						<polygon style="fill:#564741;" points="299.701,207.678 309.594,202.112 297.958,208.658 298.448,209.529 305.312,221.731 
							305.803,222.602 307.545,221.622 						"/>
						<polygon style="fill:#564741;" points="355.101,177.662 354.61,176.79 351.995,178.261 359.841,192.206 362.455,190.735 
							361.964,189.863 						"/>
						<polygon style="fill:#735E57;" points="351.995,178.261 351.995,178.261 309.594,202.112 299.701,207.678 307.545,221.622 
							307.546,221.623 359.841,192.206 359.841,192.206 						"/>
					</g>
					<g>
						<g>
							<polyline style="fill:#735E57;" points="319.375,231.561 313.775,261 344,261 338.497,230 319,230 							"/>
							<polyline style="fill:#564741;" points="319.375,231.561 313.775,261 344,261 338.497,230 319,230 							"/>
							<path style="fill:#735E57;" d="M339.258,240.815c-1.48,1.016-3.272,1.57-5,2.093c-1.883,0.57-3.351,0.63-5.779,0.82
								c-3.873,0.305-7.503-1.301-10.839-2.972c-0.004-0.002-0.008-0.005-0.012-0.007L313.775,261H344l-3.723-20.972
								C339.938,240.291,339.598,240.553,339.258,240.815z"/>
						</g>
						<g>
							<circle style="fill:#E7EBE2;" cx="328.666" cy="221.665" r="15.582"/>
							<circle style="fill:#ADB0AA;" cx="328.666" cy="221.665" r="8.543"/>
						</g>
					</g>
				</g>
				<rect x="353" y="235" style="fill:#E7EBE2;" width="46" height="24"/>
			</g>
			<g>
				<g>
					<circle style="fill:#FFFFFF;" cx="150.075" cy="105.643" r="105.643"/>
					<ellipse style="fill:#E7EBE2;" cx="150.075" cy="105.643" rx="86.758" ry="105.643"/>
					<ellipse style="fill:#FFFFFF;" cx="150.075" cy="105.643" rx="58.594" ry="105.643"/>
					<ellipse style="fill:#E7EBE2;" cx="150.075" cy="105.643" rx="26.285" ry="105.643"/>
				</g>
				<rect x="44" y="121" style="fill:#FFFFFF;" width="212" height="143"/>
				<rect x="66" y="121" style="fill:#E7EBE2;" width="168" height="143"/>
				<rect x="92" y="121" style="fill:#FFFFFF;" width="115" height="143"/>
				<rect x="123" y="121" style="fill:#E7EBE2;" width="53" height="143"/>
				<rect x="44" y="119" style="opacity:0.5;fill:#ADB0AA;" width="212" height="14"/>
				<g>
					<path style="fill:#FFFFFF;" d="M262.385,119c0,3.867-4.286,7-9.572,7H47.003c-5.286,0-9.572-3.133-9.572-7l0,0
						c0-3.867,4.286-7,9.572-7h205.81C258.099,112,262.385,115.133,262.385,119L262.385,119z"/>
					<path style="fill:#E7EBE2;" d="M262.385,108c0,3.867-4.286,7-9.572,7H47.003c-5.286,0-9.572-3.133-9.572-7l0,0
						c0-3.867,4.286-7,9.572-7h205.81C258.099,101,262.385,104.133,262.385,108L262.385,108z"/>
					<path style="fill:#FFFFFF;" d="M262.385,107c0,3.867-4.286,7-9.572,7H47.003c-5.286,0-9.572-3.133-9.572-7l0,0
						c0-3.867,4.286-7,9.572-7h205.81C258.099,100,262.385,103.133,262.385,107L262.385,107z"/>
				</g>
			</g>
			<g>
				<line style="fill:none;stroke:#735E57;stroke-width:3;stroke-miterlimit:10;" x1="68.5" y1="261" x2="68.5" y2="127"/>
				<line style="fill:none;stroke:#735E57;stroke-width:3;stroke-miterlimit:10;" x1="90.5" y1="261" x2="90.5" y2="127"/>
				<line style="fill:none;stroke:#735E57;stroke-width:3;stroke-miterlimit:10;" x1="68" y1="142.5" x2="90" y2="142.5"/>
				<line style="fill:none;stroke:#735E57;stroke-width:3;stroke-miterlimit:10;" x1="68" y1="153.5" x2="90" y2="153.5"/>
				<line style="fill:none;stroke:#735E57;stroke-width:3;stroke-miterlimit:10;" x1="68" y1="164.5" x2="90" y2="164.5"/>
				<line style="fill:none;stroke:#735E57;stroke-width:3;stroke-miterlimit:10;" x1="68" y1="175.5" x2="90" y2="175.5"/>
				<line style="fill:none;stroke:#735E57;stroke-width:3;stroke-miterlimit:10;" x1="68" y1="186.5" x2="90" y2="186.5"/>
				<line style="fill:none;stroke:#735E57;stroke-width:3;stroke-miterlimit:10;" x1="68" y1="197.5" x2="90" y2="197.5"/>
				<line style="fill:none;stroke:#735E57;stroke-width:3;stroke-miterlimit:10;" x1="68" y1="208.5" x2="90" y2="208.5"/>
				<line style="fill:none;stroke:#735E57;stroke-width:3;stroke-miterlimit:10;" x1="68" y1="219.5" x2="90" y2="219.5"/>
				<line style="fill:none;stroke:#735E57;stroke-width:3;stroke-miterlimit:10;" x1="68" y1="230.5" x2="90" y2="230.5"/>
				<line style="fill:none;stroke:#735E57;stroke-width:3;stroke-miterlimit:10;" x1="68" y1="241.5" x2="90" y2="241.5"/>
				<line style="fill:none;stroke:#735E57;stroke-width:3;stroke-miterlimit:10;" x1="68" y1="252.5" x2="90" y2="252.5"/>
			</g>
			<g>
				<g>
					<g>
						<line style="fill:none;stroke:#735E57;stroke-width:3;stroke-miterlimit:10;" x1="423" y1="326.5" x2="608" y2="326.5"/>
						<line style="fill:none;stroke:#735E57;stroke-width:3;stroke-miterlimit:10;" x1="600.5" y1="327" x2="600.5" y2="345"/>
						<line style="fill:none;stroke:#735E57;stroke-width:3;stroke-miterlimit:10;" x1="588.5" y1="327" x2="588.5" y2="345"/>
						<line style="fill:none;stroke:#735E57;stroke-width:3;stroke-miterlimit:10;" x1="576.5" y1="327" x2="576.5" y2="345"/>
						<line style="fill:none;stroke:#735E57;stroke-width:3;stroke-miterlimit:10;" x1="564.5" y1="327" x2="564.5" y2="345"/>
						<line style="fill:none;stroke:#735E57;stroke-width:3;stroke-miterlimit:10;" x1="552.5" y1="327" x2="552.5" y2="345"/>
						<line style="fill:none;stroke:#735E57;stroke-width:3;stroke-miterlimit:10;" x1="540.5" y1="327" x2="540.5" y2="345"/>
						<line style="fill:none;stroke:#735E57;stroke-width:3;stroke-miterlimit:10;" x1="528.5" y1="327" x2="528.5" y2="345"/>
						<line style="fill:none;stroke:#735E57;stroke-width:3;stroke-miterlimit:10;" x1="516.5" y1="327" x2="516.5" y2="345"/>
						<line style="fill:none;stroke:#735E57;stroke-width:3;stroke-miterlimit:10;" x1="504.5" y1="327" x2="504.5" y2="345"/>
						<line style="fill:none;stroke:#735E57;stroke-width:3;stroke-miterlimit:10;" x1="492.5" y1="327" x2="492.5" y2="345"/>
						<line style="fill:none;stroke:#735E57;stroke-width:3;stroke-miterlimit:10;" x1="480.5" y1="327" x2="480.5" y2="345"/>
						<line style="fill:none;stroke:#735E57;stroke-width:3;stroke-miterlimit:10;" x1="468.5" y1="327" x2="468.5" y2="345"/>
						<line style="fill:none;stroke:#735E57;stroke-width:3;stroke-miterlimit:10;" x1="456.5" y1="327" x2="456.5" y2="345"/>
						<line style="fill:none;stroke:#735E57;stroke-width:3;stroke-miterlimit:10;" x1="444.5" y1="327" x2="444.5" y2="345"/>
						<line style="fill:none;stroke:#735E57;stroke-width:3;stroke-miterlimit:10;" x1="432.5" y1="327" x2="432.5" y2="345"/>
					</g>
					<g>
						<rect x="419" y="344" style="fill:#ADB0AA;" width="189" height="54"/>
						<rect x="419" y="352" style="opacity:0.3;fill:#E7EBE2;" width="189" height="10"/>
						<rect x="419" y="376" style="opacity:0.3;fill:#E7EBE2;" width="189" height="10"/>
					</g>
				</g>
				<rect x="419" y="344" style="opacity:0.2;fill:#564741;" width="14" height="54"/>
			</g>
			<g>
				<rect x="25" y="258" style="fill:#FFFFFF;" width="399" height="141"/>
				<rect x="25" y="285" style="fill:#E7EBE2;" width="399" height="87"/>
				<rect x="25" y="313" style="fill:#FFFFFF;" width="399" height="31"/>
			</g>
			<g>
				<g>
					<g>
						<rect x="65" y="295" style="fill:#735E57;" width="31" height="9"/>
						<rect x="80" y="295" style="fill:#564741;" width="16" height="9"/>
					</g>
					<g>
						<rect x="137" y="295" style="fill:#735E57;" width="31" height="9"/>
						<rect x="152" y="295" style="fill:#564741;" width="16" height="9"/>
					</g>
					<g>
						<rect x="209" y="295" style="fill:#735E57;" width="31" height="9"/>
						<rect x="224" y="295" style="fill:#564741;" width="16" height="9"/>
					</g>
					<g>
						<rect x="281" y="295" style="fill:#735E57;" width="31" height="9"/>
						<rect x="296" y="295" style="fill:#564741;" width="16" height="9"/>
					</g>
					<g>
						<rect x="353" y="295" style="fill:#735E57;" width="31" height="9"/>
						<rect x="368" y="295" style="fill:#564741;" width="16" height="9"/>
					</g>
				</g>
				<g>
					<g>
						<rect x="65" y="352" style="fill:#735E57;" width="31" height="9"/>
						<rect x="80" y="352" style="fill:#564741;" width="16" height="9"/>
					</g>
					<g>
						<rect x="137" y="352" style="fill:#735E57;" width="31" height="9"/>
						<rect x="152" y="352" style="fill:#564741;" width="16" height="9"/>
					</g>
					<g>
						<rect x="209" y="352" style="fill:#735E57;" width="31" height="9"/>
						<rect x="224" y="352" style="fill:#564741;" width="16" height="9"/>
					</g>
					<g>
						<rect x="281" y="352" style="fill:#735E57;" width="31" height="9"/>
						<rect x="296" y="352" style="fill:#564741;" width="16" height="9"/>
					</g>
					<g>
						<rect x="353" y="352" style="fill:#735E57;" width="31" height="9"/>
						<rect x="368" y="352" style="fill:#564741;" width="16" height="9"/>
					</g>
				</g>
			</g>
		</g>
		<g>
			<g>
				<rect y="398" style="fill:#329668;" width="759" height="20"/>
			</g>
			<g>
				<rect y="398" style="fill:#26714E;" width="608" height="5"/>
			</g>
			<rect y="418" style="fill:#4CBB8F;" width="800" height="21"/>
		</g>
	</g>
	<g>
		<g>
			<g>
			</g>
		</g>
	</g>
</g>
</svg>
