<?xml version="1.0" encoding="utf-8"?>
<!-- Generator: Adobe Illustrator 17.0.0, SVG Export Plug-In . SVG Version: 6.00 Build 0)  -->
<!DOCTYPE svg PUBLIC "-//W3C//DTD SVG 1.1//EN" "http://www.w3.org/Graphics/SVG/1.1/DTD/svg11.dtd">
<svg version="1.1" id="Слой_2" xmlns="http://www.w3.org/2000/svg" xmlns:xlink="http://www.w3.org/1999/xlink" x="0px" y="0px"
	 width="201.619px" height="201.618px" viewBox="0 0 201.619 201.618" enable-background="new 0 0 201.619 201.618"
	 xml:space="preserve">
<g>
	<path fill="#FBD6A0" d="M100.811,0C156.475,0,201.62,45.143,201.62,100.809s-45.145,100.809-100.809,100.809
		C45.144,201.618,0,156.475,0,100.809S45.144,0,100.811,0L100.811,0z"/>
	<path fill="#842529" d="M100.811,22.613c43.179,0,78.195,35.017,78.195,78.196c0,43.181-35.017,78.196-78.195,78.196
		c-43.18,0-78.196-35.015-78.196-78.196C22.614,57.629,57.631,22.613,100.811,22.613L100.811,22.613z M32.983,152.906
		c-0.24,0.068-0.479,0.136-0.533,0.153c-1.201,0.377-2.409,0.745-3.623,1.093c-1.399,0.401-2.817,0.77-4.241,1.129
		c-3.706-5.105-7.06-11.087-9.545-16.76c-0.375-0.851-0.771-1.74-1.115-2.604l6.521-0.267c0.693,1.594,1.837,4.032,2.685,5.656
		c0.848,1.624,2.333,4.189,3.333,5.835l2.125-0.535c-2.192-3.432-4.085-6.907-5.717-10.595c-0.336-0.758-0.685-1.517-1.002-2.283
		l-0.064-0.162c-0.181,0.008-0.346,0.015-0.539,0.023c-1.231,0.048-2.627,0.094-3.794,0.113c-1.455,0.024-2.92,0.015-4.39-0.006
		c-2.472-6.451-4.264-13.804-5.127-20.386l0,0c-0.023-0.178-0.147-0.908-0.168-1.085l2.78,0.655l0,0l3.598,0.785
		c0.257,1.718,0.731,4.369,1.131,6.157c0.398,1.79,1.169,4.65,1.709,6.499l2.19,0.034c-1.229-3.881-2.158-7.729-2.78-11.714
		c-0.127-0.818-0.27-1.641-0.376-2.464l-0.021-0.166c-0.24-0.058-0.53-0.13-0.619-0.151c-1.201-0.269-2.401-0.548-3.602-0.847
		c-1.411-0.353-2.823-0.742-4.236-1.143c-0.656-6.276-0.57-13.132,0.112-19.288c0.103-0.922,0.204-1.89,0.338-2.811l2.36,1.266l0,0
		l3.418,1.765c-0.195,1.727-0.424,4.408-0.501,6.239c-0.079,1.83-0.075,4.793-0.032,6.721l2.107,0.598
		c-0.182-4.067-0.085-8.023,0.349-12.034c0.088-0.823,0.164-1.655,0.273-2.476l0.022-0.174c-0.158-0.084-0.306-0.16-0.477-0.251
		c-1.092-0.573-2.322-1.232-3.343-1.799c-1.273-0.705-2.537-1.446-3.796-2.2c0.998-6.287,2.88-12.947,5.158-18.752
		c0.33-0.836,0.661-1.648,1.016-2.469l1.973,1.86h-0.002l2.808,2.553c-0.636,1.619-1.551,4.15-2.101,5.897
		c-0.549,1.749-1.312,4.613-1.77,6.484l1.882,1.125c0.876-3.978,1.995-7.773,3.449-11.535c0.299-0.772,0.588-1.556,0.906-2.321
		l0.064-0.155c0.004,0.001-0.337-0.326-0.504-0.479c-0.89-0.821-1.778-1.649-2.652-2.495c-1.048-1.012-2.076-2.055-3.1-3.108
		c2.57-5.763,6.072-11.657,9.741-16.648c0.553-0.749,1.123-1.535,1.699-2.265l3.49,5.512c-1.032,1.399-2.573,3.607-3.556,5.154
		c-0.983,1.545-2.46,4.114-3.387,5.804l1.525,1.573c1.876-3.615,3.94-6.991,6.317-10.249c0.488-0.669,0.971-1.351,1.476-2.009
		l0.107-0.137c-0.097-0.152-0.186-0.294-0.288-0.456c-0.658-1.042-1.396-2.228-1.995-3.23c-0.75-1.248-1.474-2.521-2.19-3.802
		c4.35-5.367,9.82-10.596,15.09-14.634l0,0c0.143-0.109,0.714-0.581,0.856-0.688l0.824,2.735l0,0l1.119,3.509
		c-1.36,1.083-3.419,2.816-4.767,4.055c-1.351,1.242-3.442,3.339-4.775,4.733l1.067,1.912c2.748-3.005,5.613-5.733,8.753-8.263
		c0.646-0.521,1.29-1.054,1.947-1.559l0.133-0.1c-0.068-0.238-0.151-0.525-0.179-0.611c-0.367-1.176-0.727-2.356-1.067-3.544
		c-0.4-1.4-0.771-2.817-1.13-4.241c5.106-3.706,11.089-7.059,16.76-9.546c0.852-0.373,1.74-0.769,2.605-1.114L65.78,16.6l0,0
		l0.18,3.843c-1.593,0.694-4.03,1.836-5.653,2.684c-1.626,0.848-4.191,2.333-5.838,3.333l0.536,2.125
		c3.433-2.192,6.907-4.085,10.596-5.717c0.757-0.335,1.517-0.684,2.284-1.002l0.158-0.064c-0.007-0.182-0.014-0.349-0.021-0.539
		c-0.048-1.233-0.093-2.628-0.113-3.796c-0.023-1.455-0.013-2.92,0.006-4.388c6.075-2.327,12.944-4.053,19.222-4.967
		c0.77-0.112,1.497-0.221,2.267-0.319l-1.455,6.369c-1.72,0.258-4.369,0.731-6.157,1.129c-1.788,0.399-4.65,1.17-6.5,1.71
		l-0.032,2.19c3.883-1.229,7.727-2.157,11.713-2.779c0.819-0.128,1.643-0.268,2.465-0.376l0.164-0.021l0.005,0.016
		c0.052-0.217,0.12-0.513,0.141-0.605c0.271-1.21,0.552-2.423,0.854-3.633c0.354-1.412,0.743-2.823,1.142-4.237
		c6.275-0.656,13.133-0.57,19.289,0.113c0.923,0.102,1.89,0.205,2.811,0.338l-3.029,5.779c-1.728-0.195-4.41-0.424-6.239-0.502
		c-1.831-0.077-4.796-0.074-6.723-0.031l-0.599,2.107c4.068-0.182,8.024-0.085,12.034,0.347c0.883,0.094,1.769,0.175,2.651,0.299
		c0.083-0.162,0.16-0.31,0.249-0.478c0.574-1.092,1.232-2.323,1.8-3.343c0.707-1.273,1.447-2.537,2.198-3.797
		c6.824,1.084,14.088,3.207,20.221,5.752l0,0c0.164,0.07,0.859,0.326,1.022,0.397l-1.957,2.08l0,0l-2.478,2.724
		c-4.046-1.59-8.161-2.84-12.383-3.87l-1.123,1.879c4.783,1.054,9.494,2.525,14.01,4.422l6.083-6.255
		c5.764,2.569,11.659,6.072,16.648,9.741c0.749,0.551,1.535,1.123,2.265,1.699l-2.276,1.411l0,0l-3.237,2.079
		c-1.398-1.033-3.605-2.573-5.152-3.556c-1.547-0.982-4.116-2.46-5.805-3.388l-1.571,1.527c3.614,1.875,6.989,3.938,10.248,6.317
		c0.669,0.489,1.352,0.971,2.007,1.477l0.138,0.107c0.153-0.099,0.295-0.186,0.456-0.289c1.044-0.658,2.228-1.396,3.23-1.997
		c1.248-0.748,2.521-1.473,3.802-2.188c4.946,4.008,9.773,8.969,13.661,13.845c0.561,0.703,1.098,1.396,1.631,2.113l-2.596,0.778
		l0,0l-3.617,1.154c-1.082-1.36-2.816-3.419-4.057-4.768c-1.24-1.349-3.338-3.442-4.732-4.774l-1.912,1.066
		c3.007,2.748,5.733,5.615,8.264,8.754c0.52,0.646,1.056,1.289,1.558,1.947l0.102,0.132c-0.004,0.004,0.449-0.128,0.666-0.195
		c1.157-0.361,2.318-0.716,3.488-1.05c1.399-0.401,2.816-0.77,4.239-1.131c3.706,5.108,7.061,11.089,9.547,16.762
		c0.373,0.851,0.77,1.738,1.112,2.603l-6.52,0.267c-0.693-1.593-1.836-4.031-2.684-5.655c-0.848-1.623-2.333-4.188-3.335-5.836
		l-2.123,0.536c2.193,3.432,4.085,6.906,5.717,10.595c0.334,0.758,0.686,1.516,1,2.283l0.066,0.161
		c0.182-0.007,0.348-0.014,0.538-0.022c1.233-0.048,2.629-0.093,3.796-0.113c1.455-0.026,2.919-0.015,4.388,0.007
		c2.473,6.451,4.266,13.803,5.129,20.385l0,0c0.021,0.177,0.146,0.907,0.167,1.085l-2.78-0.654h0.001l-3.599-0.784
		c-0.258-1.719-0.73-4.369-1.13-6.157c-0.4-1.789-1.17-4.65-1.71-6.5l-2.19-0.032c1.229,3.882,2.157,7.727,2.778,11.714
		c0.127,0.818,0.271,1.641,0.377,2.464l0.021,0.164c0.238,0.061,0.53,0.132,0.617,0.151c1.201,0.271,2.403,0.548,3.604,0.848
		c1.412,0.354,2.824,0.741,4.237,1.142c0.657,6.277,0.57,13.133-0.113,19.287c-0.102,0.925-0.205,1.891-0.337,2.813l-2.361-1.266
		l0,0l-3.419-1.765c0.195-1.726,0.425-4.41,0.503-6.239c0.078-1.83,0.072-4.795,0.03-6.722l-2.106-0.598
		c0.183,4.067,0.083,8.022-0.348,12.033c-0.089,0.824-0.166,1.656-0.274,2.478l-0.023,0.174c0.16,0.083,0.308,0.162,0.479,0.25
		c1.09,0.572,2.321,1.232,3.343,1.799c1.272,0.707,2.534,1.447,3.796,2.199c-1.003,6.317-2.879,13.022-5.193,18.839
		c-0.306,0.766-0.612,1.524-0.927,2.352l-1.768-1.605l-0.021-0.008l-3.043-2.771c0.635-1.617,1.551-4.149,2.101-5.898
		c0.548-1.748,1.312-4.611,1.77-6.484l-1.883-1.123c-0.875,3.977-1.995,7.771-3.448,11.533c-0.299,0.774-0.588,1.558-0.907,2.323
		l-0.059,0.144c0.125,0.132,0.258,0.267,0.281,0.29c0.965,0.886,1.925,1.782,2.871,2.694c1.046,1.011,2.074,2.055,3.1,3.107
		c-2.572,5.764-6.074,11.657-9.743,16.648c-0.551,0.748-1.123,1.534-1.697,2.265l-3.491-5.514c1.033-1.397,2.574-3.605,3.554-5.152
		c0.983-1.547,2.462-4.115,3.39-5.806l-1.527-1.571c-1.875,3.614-3.939,6.992-6.317,10.247c-0.488,0.67-0.971,1.352-1.476,2.009
		l-0.107,0.137c0.097,0.153,0.188,0.294,0.288,0.455c0.659,1.045,1.396,2.229,1.995,3.231c0.749,1.247,1.473,2.521,2.189,3.802
		c-4.351,5.367-9.822,10.596-15.092,14.634h0.003c-0.146,0.109-0.716,0.581-0.856,0.688l-0.824-2.735l0,0l-1.119-3.508
		c1.358-1.083,3.419-2.817,4.767-4.057c1.351-1.24,3.442-3.337,4.775-4.731l-1.067-1.912c-2.748,3.005-5.613,5.733-8.756,8.263
		c-0.643,0.52-1.287,1.055-1.945,1.558l-0.132,0.101c0.068,0.237,0.149,0.523,0.178,0.611c0.367,1.174,0.729,2.354,1.067,3.544
		c0.401,1.399,0.771,2.817,1.13,4.24c-5.107,3.707-11.088,7.06-16.759,9.548c-0.853,0.371-1.74,0.767-2.604,1.112l-0.085-2.677l0,0
		l-0.182-3.842c1.595-0.695,4.033-1.838,5.655-2.685c1.624-0.85,4.188-2.333,5.838-3.335l-0.538-2.123
		c-3.431,2.192-6.904,4.085-10.594,5.717c-0.758,0.335-1.517,0.684-2.284,1l-0.161,0.065c0.008,0.183,0.015,0.349,0.021,0.54
		c0.051,1.233,0.096,2.627,0.114,3.796c0.024,1.456,0.015,2.919-0.005,4.387c-5.944,2.278-12.654,3.98-18.822,4.908
		c-0.889,0.134-1.757,0.251-2.644,0.356l0.624-2.639l0,0l0.809-3.708c1.718-0.257,4.37-0.73,6.158-1.128
		c1.787-0.398,4.649-1.171,6.5-1.71l0.031-2.189c-3.882,1.228-7.729,2.157-11.712,2.778c-0.819,0.128-1.643,0.269-2.466,0.377
		l-0.165,0.021c0-0.004-0.113,0.454-0.163,0.676c-0.267,1.181-0.54,2.364-0.835,3.544c-0.354,1.414-0.742,2.825-1.142,4.237
		c-6.275,0.657-13.132,0.571-19.289-0.112c-0.922-0.103-1.889-0.205-2.81-0.338l3.029-5.78c1.726,0.195,4.411,0.425,6.239,0.504
		c1.831,0.077,4.795,0.073,6.723,0.03l0.597-2.107c-4.069,0.183-8.023,0.085-12.034-0.346c-0.822-0.087-1.655-0.165-2.478-0.275
		l-0.171-0.024c-0.085,0.162-0.162,0.308-0.251,0.477c-0.575,1.093-1.232,2.322-1.799,3.344c-0.707,1.272-1.447,2.536-2.2,3.797
		c-6.823-1.085-14.087-3.208-20.219-5.752l0,0c-0.164-0.07-0.859-0.327-1.021-0.397l1.954-2.08l0,0l2.478-2.724
		c1.62,0.636,4.151,1.551,5.897,2.099c1.749,0.549,4.614,1.313,6.485,1.77l1.122-1.878c-3.976-0.879-7.771-1.996-11.533-3.451
		c-0.771-0.299-1.556-0.588-2.321-0.906l-0.153-0.065c-0.171,0.178-0.38,0.394-0.44,0.461c-0.834,0.905-1.677,1.807-2.535,2.697
		c-1.013,1.046-2.055,2.073-3.107,3.097c-5.763-2.569-11.659-6.071-16.647-9.741c-0.749-0.549-1.536-1.122-2.267-1.697l2.276-1.412
		l0,0l3.236-2.078c1.399,1.033,3.608,2.572,5.152,3.553c1.548,0.983,4.116,2.461,5.808,3.389l1.571-1.527
		c-3.615-1.876-6.991-3.938-10.248-6.317c-0.669-0.489-1.352-0.972-2.01-1.477l-0.138-0.106c-0.152,0.097-0.293,0.186-0.453,0.288
		c-1.044,0.66-2.23,1.395-3.23,1.995c-1.249,0.749-2.522,1.473-3.804,2.188c-5.186-4.202-10.242-9.453-14.221-14.555
		c-0.37-0.474-0.664-0.913-0.985-1.388l6.126-1.945c1.084,1.358,2.819,3.419,4.058,4.768c1.24,1.349,3.338,3.441,4.731,4.774
		l1.914-1.066c-3.007-2.749-5.733-5.615-8.265-8.756c-0.521-0.645-1.055-1.287-1.56-1.945l-0.1-0.133h0.003V152.906z
		 M177.938,132.646l0.052-0.124c0.298-0.725,0.588-1.451,0.86-2.188c1.775-4.763,3.032-9.502,4.038-14.533l5.569,3.282
		c-0.864,4.236-2.332,9.118-3.788,13.097l1.642,1.531c0.149-0.39,0.335-0.86,0.483-1.266c1.643-4.479,3.152-9.806,4.056-14.711
		c-2.345-1.453-5.128-3.075-7.547-4.391c0.102-0.684,0.156-1.084,0.246-1.745l0,0l0.018-0.135c0.1-0.777,0.191-1.554,0.265-2.335
		c0.483-5.06,0.471-9.962,0.14-15.083l6.229,1.729c0.26,4.315,0.107,9.409-0.27,13.631l1.983,1.069
		c0.069-0.665,0.148-1.447,0.205-2.146c0.367-4.569,0.417-9.775,0.044-14.475c-2.642-0.798-5.749-1.646-8.429-2.29
		c-0.161-1.423-0.342-2.818-0.577-4.206c-0.849-5.011-2.125-9.745-3.77-14.604l6.464,0.058c1.368,4.101,2.539,9.061,3.268,13.235
		l2.209,0.501c-0.784-4.981-2.259-10.977-4.079-16.1c-2.758-0.088-5.977-0.103-8.732-0.031c-0.521-1.317-1.059-2.624-1.648-3.913
		c-2.112-4.622-4.575-8.863-7.42-13.132l6.258-1.617c2.384,3.607,4.799,8.095,6.583,11.938l2.25-0.082
		c-2.049-4.609-5.01-10.025-8.095-14.502c-2.685,0.629-5.801,1.449-8.442,2.231c-0.843-1.138-1.7-2.262-2.603-3.354
		c-3.237-3.918-6.713-7.377-10.566-10.763l5.626-3.182c3.235,2.866,6.729,6.577,9.448,9.827l2.147-0.654
		c-0.263-0.326-0.578-0.722-0.854-1.053c-3.059-3.662-6.917-7.633-10.714-10.867c-2.431,1.302-5.227,2.9-7.576,4.34
		c-0.086-0.067-1.389-1.081-1.386-1.087l-0.109-0.082c-0.622-0.474-1.249-0.942-1.889-1.397c-4.142-2.946-8.395-5.387-12.994-7.661
		l4.613-4.529c3.868,1.932,8.203,4.611,11.67,7.047l1.918-1.181c-0.542-0.395-1.179-0.852-1.758-1.252
		c-3.773-2.603-8.257-5.25-12.514-7.275c-2.011,1.888-4.299,4.155-6.195,6.155c-5.932-2.58-12.125-4.375-18.465-5.642l3.281-5.569
		c4.235,0.866,9.117,2.332,13.098,3.788l1.537-1.663c-4.707-1.812-10.637-3.532-15.984-4.517c-1.453,2.344-3.075,5.126-4.392,7.548
		c-1.4-0.208-2.802-0.399-4.213-0.532c-5.059-0.48-9.962-0.468-15.083-0.139l1.729-6.228c4.315-0.26,9.41-0.108,13.632,0.268
		l1.053-1.987c-5.016-0.532-11.185-0.675-16.605-0.242c-0.799,2.64-1.646,5.748-2.289,8.427c-1.407,0.162-2.812,0.342-4.206,0.577
		c-5.013,0.845-9.745,2.126-14.605,3.771l0.059-6.464c4.1-1.368,9.062-2.54,13.235-3.269l0.505-2.186
		c-0.412,0.065-0.913,0.14-1.337,0.213c-4.701,0.818-10.069,2.174-14.769,3.844c-0.088,2.756-0.102,5.978-0.029,8.732
		c-0.642,0.254-1.017,0.406-1.635,0.657l0,0l-0.125,0.053c-0.723,0.303-1.441,0.611-2.154,0.937
		c-4.624,2.114-8.864,4.575-13.132,7.423l-1.617-6.26c3.607-2.382,8.095-4.797,11.938-6.584l-0.063-2.249
		c-0.613,0.272-1.327,0.594-1.963,0.895c-4.142,1.967-8.675,4.527-12.558,7.201c0.63,2.686,1.448,5.8,2.23,8.442
		c-1.152,0.854-2.27,1.706-3.354,2.604c-3.916,3.24-7.377,6.713-10.764,10.567l-3.182-5.626c2.868-3.236,6.579-6.728,9.829-9.448
		l-0.671-2.164c-3.923,3.171-8.378,7.446-11.904,11.583c1.303,2.432,2.9,5.227,4.339,7.578c-0.88,1.109-1.743,2.228-2.564,3.383
		c-2.947,4.142-5.389,8.394-7.662,12.993l-4.529-4.612c1.932-3.867,4.612-8.204,7.048-11.67l-1.195-1.907
		c-2.968,4.078-6.178,9.351-8.514,14.26c1.888,2.012,4.155,4.299,6.154,6.198c-0.274,0.631-0.445,1.038-0.704,1.652l0,0
		l-0.039,0.092c-0.296,0.726-0.587,1.451-0.861,2.187c-1.774,4.764-3.032,9.503-4.038,14.535l-5.567-3.283
		c0.866-4.236,2.332-9.117,3.787-13.098l-1.64-1.531c-0.149,0.391-0.337,0.862-0.484,1.267c-1.642,4.479-3.152,9.806-4.056,14.711
		c2.344,1.454,5.126,3.077,7.547,4.391c-0.102,0.683-0.157,1.084-0.247,1.744l0,0l-0.017,0.135c-0.1,0.777-0.193,1.555-0.267,2.334
		c-0.482,5.06-0.469,9.962-0.139,15.084l-6.228-1.729c-0.261-4.315-0.107-9.41,0.268-13.632l-1.982-1.069
		c-0.071,0.667-0.149,1.447-0.206,2.147c-0.366,4.571-0.419,9.776-0.043,14.477c2.64,0.797,5.748,1.644,8.427,2.289
		c0.163,1.423,0.344,2.818,0.579,4.206c0.847,5.01,2.123,9.744,3.768,14.604l-6.464-0.058c-1.366-4.102-2.539-9.062-3.268-13.237
		l-2.21-0.501c0.785,4.983,2.261,10.979,4.08,16.102c2.756,0.088,5.977,0.101,8.732,0.031c0.52,1.317,1.057,2.624,1.646,3.913
		c2.113,4.623,4.574,8.862,7.422,13.132l-6.26,1.617c-2.382-3.607-4.797-8.096-6.581-11.94l-2.25,0.084
		c2.047,4.609,5.01,10.025,8.094,14.502c2.686-0.63,5.799-1.449,8.443-2.231c0.367,0.498,0.533,0.717,0.855,1.143
		c0.029,0.039,0.158,0.206,0.224,0.292l0.004,0.004l0.003,0.005l0.008,0.008l0.003,0.004l0.003,0.004l0.002,0.004l0.003,0.003
		l0.003,0.003v0.004h0.003l0.001,0.001v0.001l0.029,0.036c0.479,0.622,0.965,1.236,1.463,1.842
		c3.238,3.918,6.713,7.376,10.567,10.762l-5.628,3.183c-3.233-2.869-6.729-6.579-9.447-9.83l-2.144,0.654
		c0.262,0.326,0.576,0.723,0.853,1.053c3.059,3.662,6.916,7.633,10.71,10.868c2.432-1.303,5.229-2.902,7.579-4.341
		c0.54,0.429,0.859,0.678,1.386,1.086l0,0l0.106,0.082c0.625,0.476,1.251,0.944,1.891,1.397c4.14,2.948,8.394,5.39,12.992,7.663
		l-4.611,4.529c-3.867-1.932-8.202-4.611-11.671-7.048l-1.917,1.182c0.541,0.395,1.178,0.852,1.757,1.251
		c3.775,2.602,8.258,5.249,12.514,7.274c2.012-1.888,4.3-4.154,6.198-6.153c1.313,0.572,2.611,1.112,3.931,1.604
		c4.764,1.772,9.502,3.032,14.533,4.038l-3.282,5.569c-4.234-0.866-9.116-2.332-13.097-3.786l-1.537,1.662
		c4.705,1.812,10.635,3.532,15.983,4.517c1.452-2.344,3.076-5.124,4.392-7.546c1.4,0.207,2.802,0.396,4.213,0.53
		c5.06,0.481,9.964,0.469,15.083,0.137l-1.729,6.23c-4.315,0.26-9.41,0.108-13.631-0.269l-1.053,1.988
		c5.016,0.531,11.186,0.673,16.606,0.243c0.797-2.641,1.645-5.747,2.289-8.427c0.683-0.08,1.121-0.133,1.784-0.217l0,0l0.098-0.014
		c0.777-0.105,1.552-0.217,2.324-0.347c5.012-0.844,9.745-2.124,14.606-3.77l-0.06,6.463c-4.102,1.369-9.062,2.539-13.236,3.269
		l-0.505,2.185c0.411-0.064,0.914-0.137,1.338-0.213c4.7-0.819,10.07-2.173,14.768-3.843c0.088-2.757,0.103-5.977,0.029-8.731
		c0.643-0.253,1.016-0.407,1.635-0.659l0,0l0.125-0.051c0.724-0.303,1.442-0.612,2.156-0.938c4.622-2.113,8.861-4.575,13.13-7.422
		l1.617,6.26c-3.607,2.383-8.097,4.797-11.94,6.583l0.066,2.251c0.612-0.272,1.327-0.595,1.963-0.897
		c4.142-1.966,8.675-4.525,12.558-7.199c-0.631-2.686-1.45-5.8-2.232-8.443c1.153-0.854,2.27-1.706,3.354-2.604
		c3.917-3.238,7.377-6.713,10.763-10.567l3.184,5.627c-2.868,3.235-6.579,6.73-9.83,9.448l0.672,2.165
		c3.922-3.171,8.377-7.446,11.904-11.585c-1.303-2.432-2.901-5.227-4.342-7.576c0.882-1.11,1.746-2.23,2.566-3.384
		c2.948-4.142,5.387-8.393,7.663-12.993l4.528,4.611c-1.934,3.867-4.611,8.204-7.048,11.671l1.195,1.905
		c2.969-4.075,6.177-9.349,8.514-14.26c-1.888-2.01-4.155-4.298-6.153-6.195c0.239-0.553,0.349-0.809,0.546-1.275
		C177.822,132.926,177.906,132.724,177.938,132.646L177.938,132.646z"/>
	<path fill="#FBD6A0" d="M100.81,175.023c0.244,0,0.474-0.054,0.669-0.208c0.719-0.571,0.686-2.137,0.576-2.946
		c-0.097-0.711-0.308-1.507-0.65-2.143c-0.07-0.13-0.416-0.689-0.595-0.689h-0.002l0,0c-0.179,0-0.526,0.559-0.597,0.689
		c-0.34,0.636-0.552,1.432-0.648,2.143c-0.109,0.809-0.143,2.375,0.576,2.946c0.195,0.155,0.426,0.208,0.669,0.208l0,0H100.81
		L100.81,175.023z M66.45,46.86c1.095,0,1.981,0.887,1.981,1.982c0,1.094-0.887,1.982-1.981,1.982c-1.095,0-1.983-0.888-1.983-1.982
		C64.467,47.748,65.355,46.86,66.45,46.86L66.45,46.86z M92.333,32.854c0.906,0,1.642,0.734,1.642,1.641
		c0,0.905-0.735,1.64-1.642,1.64c-0.905,0-1.641-0.735-1.641-1.64C90.692,33.586,91.428,32.854,92.333,32.854L92.333,32.854z
		 M135.167,46.86c-1.094,0-1.983,0.887-1.983,1.982c0,1.094,0.89,1.982,1.983,1.982c1.095,0,1.982-0.888,1.982-1.982
		C137.148,47.748,136.262,46.86,135.167,46.86L135.167,46.86z M109.283,32.854c-0.906,0-1.641,0.734-1.641,1.641
		c0,0.905,0.734,1.64,1.641,1.64s1.642-0.735,1.642-1.64C110.925,33.586,110.19,32.854,109.283,32.854L109.283,32.854z
		 M154.76,66.451c0,1.095-0.889,1.982-1.984,1.982c-1.094,0-1.98-0.887-1.98-1.982c0-1.094,0.887-1.982,1.98-1.982
		C153.871,64.47,154.76,65.357,154.76,66.451L154.76,66.451z M168.766,92.334c0,0.906-0.734,1.641-1.642,1.641
		c-0.906,0-1.64-0.735-1.64-1.641c0-0.905,0.733-1.64,1.64-1.64S168.766,91.429,168.766,92.334L168.766,92.334z M154.76,135.169
		c0-1.095-0.889-1.983-1.984-1.983c-1.094,0-1.98,0.889-1.98,1.983c0,1.095,0.887,1.982,1.98,1.982
		C153.871,137.15,154.76,136.264,154.76,135.169L154.76,135.169z M135.167,154.76c-1.094,0-1.983-0.889-1.983-1.983
		c0-1.093,0.89-1.98,1.983-1.98c1.095,0,1.982,0.887,1.982,1.98C137.148,153.872,136.262,154.76,135.167,154.76L135.167,154.76z
		 M66.45,154.76c1.095,0,1.981-0.889,1.981-1.983c0-1.093-0.887-1.98-1.981-1.98c-1.095,0-1.983,0.887-1.983,1.98
		C64.467,153.872,65.355,154.76,66.45,154.76L66.45,154.76z M46.858,135.169c0-1.095,0.887-1.983,1.981-1.983
		c1.097,0,1.983,0.889,1.983,1.983c0,1.095-0.887,1.982-1.983,1.982C47.745,137.15,46.858,136.264,46.858,135.169L46.858,135.169z
		 M46.858,66.451c0,1.095,0.887,1.982,1.981,1.982c1.097,0,1.983-0.887,1.983-1.982c0-1.094-0.887-1.982-1.983-1.982
		C47.745,64.47,46.858,65.357,46.858,66.451L46.858,66.451z M168.766,109.285c0-0.906-0.734-1.641-1.642-1.641
		c-0.906,0-1.64,0.735-1.64,1.641s0.733,1.642,1.64,1.642C168.031,110.927,168.766,110.191,168.766,109.285L168.766,109.285z
		 M175.022,100.81c0-0.245-0.053-0.475-0.208-0.67c-0.57-0.718-2.138-0.684-2.947-0.575c-0.711,0.095-1.507,0.307-2.141,0.649
		c-0.132,0.071-0.689,0.416-0.689,0.596l0,0l0,0c0,0.181,0.558,0.526,0.689,0.598c0.634,0.342,1.43,0.552,2.141,0.649
		c0.81,0.109,2.377,0.143,2.947-0.577C174.97,101.286,175.022,101.056,175.022,100.81L175.022,100.81L175.022,100.81L175.022,100.81
		z M100.808,26.595c-0.245,0-0.474,0.054-0.669,0.21c-0.719,0.571-0.686,2.136-0.576,2.945c0.097,0.711,0.309,1.506,0.648,2.142
		c0.07,0.132,0.418,0.689,0.597,0.689l0,0l0,0c0.181,0,0.526-0.558,0.597-0.689c0.343-0.636,0.554-1.431,0.65-2.142
		c0.109-0.809,0.143-2.374-0.576-2.945C101.283,26.649,101.054,26.595,100.808,26.595L100.808,26.595L100.808,26.595L100.808,26.595
		z M32.852,109.285c0-0.906,0.735-1.641,1.642-1.641c0.907,0,1.641,0.735,1.641,1.641s-0.733,1.642-1.641,1.642
		C33.587,110.927,32.852,110.191,32.852,109.285L32.852,109.285z M32.852,92.334c0,0.906,0.735,1.641,1.642,1.641
		c0.907,0,1.641-0.735,1.641-1.641c0-0.905-0.733-1.64-1.641-1.64C33.587,90.694,32.852,91.429,32.852,92.334L32.852,92.334z
		 M26.594,100.81c0,0.247,0.055,0.477,0.21,0.67c0.57,0.719,2.137,0.686,2.944,0.577c0.712-0.097,1.508-0.307,2.143-0.649
		c0.133-0.072,0.69-0.417,0.69-0.598l0,0l0,0c0-0.18-0.558-0.525-0.69-0.596c-0.635-0.342-1.431-0.554-2.143-0.649
		c-0.808-0.109-2.374-0.143-2.944,0.575C26.648,100.335,26.594,100.564,26.594,100.81L26.594,100.81L26.594,100.81L26.594,100.81z
		 M92.333,168.767c0.906,0,1.642-0.733,1.642-1.641c0-0.906-0.735-1.641-1.642-1.641c-0.905,0-1.641,0.735-1.641,1.641
		C90.692,168.034,91.428,168.767,92.333,168.767L92.333,168.767z M109.283,168.767c-0.906,0-1.64-0.733-1.64-1.641
		c0-0.906,0.733-1.641,1.64-1.641s1.642,0.735,1.642,1.641C110.925,168.034,110.19,168.767,109.283,168.767L109.283,168.767z
		 M111.01,39.149c0.035-0.013,0.068-0.025,0.102-0.039c0.662-0.253,1.259-0.648,1.751-1.157c0.592-0.611,1.012-1.361,1.22-2.185
		c0.109-0.417,0.166-0.846,0.166-1.275c0-0.999-0.296-1.967-0.859-2.793l-0.05-0.07l-0.001-0.003c-0.932-1.316-2.438-2.1-4.056-2.1
		c-1.653,0-3.19,0.818-4.116,2.189c-1.9,2.811-0.367,6.676,1.752,8.898c1.896,1.983,4.481,3.334,7.159,3.879
		c2.396,0.487,5.837-0.147,8.16-0.819c1.463-0.423,2.769-1.081,4.046-1.901c1.118-0.716,2.17-1.524,3.279-2.248
		c0.984-0.644,1.992-1.194,3.115-1.552c1.45-0.462,2.997-0.583,4.508-0.447c4.565,0.409,8.046,3.13,9.883,7.284
		c1.104,2.495,1.603,5.353,1.613,8.123c2.768,0.009,5.626,0.509,8.124,1.613c4.152,1.836,6.872,5.315,7.282,9.882
		c0.137,1.512,0.016,3.057-0.448,4.508c-0.357,1.123-0.908,2.131-1.551,3.116c-0.725,1.109-1.531,2.161-2.247,3.278
		c-0.82,1.278-1.478,2.583-1.902,4.047c-0.67,2.323-1.307,5.763-0.817,8.159c0.545,2.678,1.896,5.265,3.88,7.158
		c2.222,2.119,6.085,3.653,8.897,1.753c1.369-0.926,2.19-2.461,2.19-4.117c0-1.616-0.782-3.123-2.101-4.054l-0.001-0.003
		l-0.071-0.048c-0.826-0.562-1.795-0.859-2.793-0.859c-0.43,0-0.86,0.055-1.275,0.167c-0.823,0.208-1.575,0.628-2.184,1.219
		c-0.51,0.494-0.904,1.089-1.158,1.751c-0.013,0.034-0.026,0.069-0.039,0.103c-0.226-1.093-0.071-2.257,0.503-3.263
		c0.811-1.428,2.077-2.361,3.716-2.555l0.771-0.092l-0.16-0.758c-0.672-3.19,0.694-6.292,2.966-8.475
		c-0.167,1.349-0.192,2.769-0.111,4.018c0.106,1.601,0.42,3.374,1.18,4.801c1.01,1.899,2.222,3.937,2.749,6.029
		c0.305,1.206,0.366,2.388,0.177,3.618c-0.23,1.497-1.066,2.946-2.153,3.989c-1.371,1.316-3.125,2.076-5.023,2.17
		c-2.303,0.114-4.531-0.682-6.412-1.974c-0.615-0.42-1.193-0.896-1.732-1.408c-2.399-2.291-4.036-5.384-4.695-8.624
		c-0.598-2.937-0.036-6.755,0.775-9.605c0.241-0.842,0.521-1.672,0.846-2.484l0.397-0.988l-1.065,0.018
		c-4.086,0.066-8.151-2.226-9.479-6.21l-0.082-0.284c-0.196-0.676-0.295-1.376-0.295-2.081c0-2.295,1.011-4.805,3.083-5.975
		c1.209-0.681,2.555-0.757,3.872-0.372c1.116,0.326,2.036,1.056,2.634,1.997c-0.657-0.323-1.39-0.502-2.151-0.502
		c-2.678,0-4.85,2.174-4.85,4.852c0,1.365,0.544,2.687,1.446,3.702c3.41,3.833,10.339,2.665,11.869-2.374
		c1.398-4.588-1.263-8.994-5.489-10.857c-2.625-1.158-5.804-1.54-8.653-1.335l-1.149,0.082l0.083-1.15
		c0.205-2.848-0.178-6.028-1.335-8.652c-1.864-4.227-6.269-6.887-10.859-5.491c-5.035,1.534-6.204,8.461-2.374,11.871
		c1.016,0.904,2.338,1.446,3.703,1.446c2.68,0,4.852-2.173,4.852-4.851c0-0.761-0.177-1.495-0.503-2.15
		c0.942,0.598,1.673,1.518,1.998,2.632c0.386,1.318,0.309,2.665-0.371,3.872c-1.169,2.075-3.682,3.085-5.976,3.085
		c-0.704,0-1.403-0.099-2.079-0.295l-0.285-0.082c-3.984-1.328-6.275-5.393-6.21-9.48l0.018-1.063l-0.988,0.395
		c-0.813,0.326-1.644,0.606-2.485,0.845c-2.849,0.813-6.667,1.375-9.603,0.777c-3.242-0.659-6.335-2.296-8.624-4.695
		c-0.516-0.539-0.988-1.117-1.409-1.731c-1.292-1.883-2.089-4.11-1.976-6.413c0.095-1.899,0.854-3.653,2.171-5.023
		c1.044-1.088,2.492-1.922,3.989-2.153c1.229-0.19,2.411-0.128,3.616,0.176c2.092,0.527,4.132,1.74,6.029,2.748
		c1.429,0.76,3.201,1.073,4.804,1.18c1.248,0.082,2.667,0.057,4.017-0.11c-2.183,2.272-5.285,3.639-8.475,2.966l-0.759-0.159
		l-0.091,0.769c-0.193,1.64-1.127,2.905-2.554,3.717C113.265,39.222,112.103,39.375,111.01,39.149L111.01,39.149z M162.468,111.011
		c0.013,0.034,0.026,0.067,0.039,0.103c0.254,0.663,0.649,1.259,1.158,1.752c0.608,0.591,1.36,1.011,2.184,1.22
		c0.416,0.109,0.846,0.166,1.275,0.166c0.998,0,1.967-0.297,2.793-0.859l0.071-0.047l0.001-0.005
		c1.315-0.93,2.101-2.437,2.101-4.054c0-1.653-0.82-3.191-2.189-4.116c-2.814-1.901-6.677-0.368-8.898,1.753
		c-1.984,1.895-3.335,4.479-3.88,7.156c-0.489,2.398,0.148,5.838,0.817,8.159c0.423,1.465,1.082,2.77,1.902,4.049
		c0.716,1.118,1.524,2.168,2.247,3.278c0.643,0.984,1.194,1.992,1.551,3.116c0.464,1.45,0.585,2.997,0.447,4.508
		c-0.409,4.566-3.129,8.046-7.281,9.883c-2.498,1.101-5.357,1.602-8.124,1.613c-0.01,2.768-0.51,5.627-1.613,8.122
		c-1.837,4.154-5.317,6.876-9.883,7.286c-1.511,0.136-3.058,0.015-4.508-0.448c-1.123-0.357-2.131-0.909-3.115-1.551
		c-1.109-0.725-2.161-1.531-3.279-2.247c-1.277-0.82-2.582-1.48-4.046-1.903c-2.323-0.67-5.764-1.306-8.16-0.817
		c-2.678,0.544-5.264,1.895-7.156,3.879c-2.122,2.222-3.655,6.086-1.755,8.898c0.926,1.369,2.463,2.189,4.116,2.189
		c1.618,0,3.124-0.785,4.056-2.101l0.003-0.003l0.048-0.07c0.563-0.825,0.859-1.795,0.859-2.792c0-0.431-0.057-0.86-0.166-1.275
		c-0.208-0.824-0.628-1.575-1.22-2.186c-0.492-0.509-1.089-0.903-1.751-1.156c-0.034-0.014-0.067-0.027-0.102-0.039
		c1.093-0.227,2.255-0.071,3.264,0.501c1.427,0.812,2.36,2.079,2.554,3.719l0.091,0.769l0.759-0.16
		c3.189-0.672,6.292,0.695,8.475,2.966c-1.35-0.165-2.769-0.191-4.017-0.11c-1.603,0.106-3.375,0.42-4.804,1.181
		c-1.897,1.008-3.938,2.22-6.029,2.748c-1.205,0.304-2.387,0.365-3.616,0.176c-1.497-0.231-2.945-1.066-3.989-2.153
		c-1.316-1.371-2.076-3.125-2.171-5.023c-0.113-2.304,0.684-4.531,1.976-6.413c0.421-0.614,0.894-1.193,1.409-1.733
		c2.289-2.398,5.382-4.035,8.624-4.693c2.936-0.598,6.754-0.038,9.603,0.775c0.842,0.241,1.674,0.521,2.485,0.846l0.988,0.396
		l-0.018-1.065c-0.065-4.086,2.226-8.151,6.21-9.479l0.285-0.082c0.676-0.197,1.375-0.296,2.079-0.296
		c2.296,0,4.807,1.011,5.976,3.084c0.68,1.209,0.757,2.554,0.371,3.873c-0.325,1.115-1.056,2.034-1.998,2.633
		c0.326-0.657,0.503-1.391,0.503-2.151c0-2.678-2.172-4.85-4.852-4.85c-1.364,0-2.684,0.544-3.703,1.446
		c-3.83,3.409-2.661,10.339,2.374,11.87c4.59,1.396,8.995-1.263,10.859-5.491c1.157-2.624,1.54-5.803,1.335-8.652l-0.083-1.149
		l1.149,0.083c2.85,0.204,6.028-0.179,8.652-1.337c4.228-1.863,6.889-6.268,5.49-10.857c-1.53-5.037-8.459-6.207-11.869-2.374
		c-0.902,1.017-1.446,2.337-1.446,3.703c0,2.679,2.172,4.851,4.85,4.851c0.761,0,1.494-0.178,2.151-0.502
		c-0.598,0.943-1.518,1.672-2.634,1.998c-1.317,0.385-2.663,0.309-3.872-0.372c-2.072-1.169-3.083-3.68-3.083-5.974
		c-0.001-0.704,0.099-1.404,0.295-2.079l0.082-0.287c1.327-3.983,5.393-6.274,9.479-6.209l1.065,0.017l-0.397-0.987
		c-0.324-0.813-0.604-1.644-0.846-2.485c-0.812-2.849-1.373-6.669-0.775-9.603c0.659-3.242,2.296-6.335,4.695-8.624
		c0.539-0.516,1.117-0.99,1.732-1.411c1.881-1.291,4.109-2.087,6.412-1.974c1.899,0.094,3.652,0.855,5.023,2.169
		c1.088,1.045,1.923,2.494,2.153,3.991c0.188,1.231,0.128,2.412-0.177,3.617c-0.527,2.092-1.739,4.132-2.749,6.029
		c-0.76,1.428-1.073,3.202-1.18,4.803c-0.081,1.25-0.056,2.668,0.11,4.016c-2.27-2.181-3.637-5.283-2.965-8.474l0.16-0.758
		l-0.771-0.09c-1.639-0.194-2.905-1.127-3.716-2.554C162.396,113.267,162.243,112.104,162.468,111.011L162.468,111.011z
		 M90.608,162.469c-0.035,0.012-0.069,0.025-0.104,0.039c-0.662,0.253-1.258,0.647-1.752,1.156c-0.592,0.61-1.01,1.361-1.218,2.186
		c-0.11,0.415-0.166,0.844-0.166,1.275c0,0.997,0.296,1.967,0.859,2.792l0.047,0.07l0.003,0.003
		c0.933,1.315,2.438,2.101,4.055,2.101c1.655,0,3.191-0.82,4.116-2.189c1.901-2.812,0.369-6.677-1.753-8.898
		c-1.892-1.983-4.479-3.335-7.157-3.879c-2.396-0.489-5.836,0.146-8.159,0.817c-1.465,0.423-2.77,1.083-4.048,1.903
		c-1.117,0.716-2.169,1.522-3.278,2.247c-0.984,0.642-1.992,1.194-3.114,1.551c-1.451,0.463-2.997,0.584-4.509,0.448
		c-4.566-0.41-8.048-3.132-9.882-7.286c-1.104-2.495-1.604-5.353-1.614-8.122c-2.77-0.011-5.627-0.51-8.123-1.613
		c-4.153-1.836-6.873-5.317-7.284-9.883c-0.136-1.512-0.015-3.058,0.447-4.508c0.359-1.124,0.911-2.133,1.553-3.116
		c0.723-1.111,1.532-2.162,2.247-3.278c0.818-1.279,1.479-2.584,1.901-4.049c0.672-2.321,1.306-5.763,0.818-8.159
		c-0.546-2.677-1.896-5.262-3.879-7.156c-2.224-2.121-6.087-3.654-8.898-1.753c-1.371,0.925-2.188,2.462-2.188,4.116
		c0,1.617,0.782,3.124,2.098,4.054l0.004,0.005l0.07,0.047c0.825,0.561,1.794,0.859,2.793,0.859c0.429,0,0.858-0.057,1.276-0.166
		c0.823-0.209,1.573-0.629,2.184-1.22c0.509-0.493,0.902-1.089,1.155-1.752c0.016-0.035,0.027-0.069,0.039-0.104
		c0.227,1.095,0.072,2.256-0.5,3.264c-0.812,1.428-2.078,2.361-3.719,2.555l-0.769,0.09l0.16,0.758
		c0.672,3.191-0.694,6.293-2.968,8.474c0.167-1.348,0.194-2.767,0.111-4.016c-0.106-1.603-0.421-3.375-1.18-4.803
		c-1.009-1.897-2.222-3.937-2.748-6.029c-0.303-1.205-0.366-2.386-0.177-3.618c0.23-1.496,1.065-2.946,2.154-3.99
		c1.369-1.315,3.122-2.075,5.022-2.169c2.302-0.113,4.53,0.683,6.413,1.974c0.613,0.421,1.192,0.896,1.732,1.411
		c2.398,2.289,4.034,5.382,4.695,8.624c0.598,2.934,0.036,6.753-0.778,9.603c-0.238,0.841-0.52,1.673-0.846,2.485l-0.394,0.987
		l1.062-0.017c4.088-0.065,8.154,2.227,9.48,6.209l0.082,0.286c0.196,0.676,0.296,1.376,0.296,2.08c0,2.294-1.011,4.805-3.086,5.974
		c-1.208,0.681-2.553,0.756-3.872,0.371c-1.113-0.325-2.033-1.054-2.632-1.997c0.655,0.325,1.389,0.502,2.149,0.502
		c2.68,0,4.853-2.173,4.853-4.851c0-1.365-0.544-2.688-1.448-3.703c-3.408-3.833-10.337-2.663-11.87,2.374
		c-1.396,4.59,1.265,8.994,5.49,10.857c2.625,1.158,5.806,1.54,8.652,1.337l1.151-0.083l-0.082,1.149
		c-0.206,2.849,0.178,6.028,1.334,8.652c1.863,4.228,6.267,6.887,10.859,5.491c5.035-1.531,6.205-8.461,2.373-11.87
		c-1.017-0.903-2.337-1.446-3.702-1.446c-2.679,0-4.852,2.172-4.852,4.85c0,0.761,0.178,1.495,0.502,2.151
		c-0.942-0.599-1.671-1.517-1.998-2.633c-0.383-1.318-0.31-2.664,0.372-3.873c1.17-2.073,3.68-3.084,5.976-3.084
		c0.704,0,1.404,0.1,2.08,0.296l0.285,0.082c3.982,1.328,6.274,5.392,6.209,9.479l-0.017,1.065l0.987-0.396
		c0.812-0.325,1.643-0.604,2.483-0.846c2.851-0.813,6.669-1.374,9.605-0.775c3.241,0.658,6.334,2.295,8.624,4.693
		c0.513,0.539,0.988,1.119,1.408,1.733c1.293,1.882,2.088,4.109,1.974,6.413c-0.093,1.898-0.854,3.653-2.169,5.023
		c-1.043,1.086-2.49,1.921-3.989,2.153c-1.229,0.189-2.41,0.128-3.616-0.176c-2.093-0.528-4.133-1.74-6.029-2.748
		c-1.429-0.761-3.202-1.075-4.803-1.181c-1.248-0.081-2.667-0.055-4.017,0.11c2.182-2.271,5.283-3.638,8.475-2.966l0.757,0.16
		l0.091-0.769c0.194-1.64,1.127-2.907,2.556-3.719C88.353,162.398,89.516,162.243,90.608,162.469L90.608,162.469z M39.147,90.608
		c-0.012-0.034-0.023-0.067-0.039-0.101c-0.251-0.663-0.646-1.259-1.156-1.753c-0.61-0.591-1.359-1.01-2.183-1.217
		c-0.418-0.112-0.846-0.167-1.278-0.167c-0.997,0-1.966,0.298-2.791,0.859l-0.07,0.048l-0.004,0.003
		c-1.315,0.932-2.098,2.438-2.098,4.054c0,1.655,0.817,3.191,2.188,4.117c2.812,1.9,6.675,0.368,8.898-1.753
		c1.983-1.893,3.333-4.479,3.88-7.158c0.486-2.396-0.147-5.836-0.819-8.159c-0.423-1.465-1.083-2.77-1.901-4.047
		c-0.715-1.117-1.525-2.169-2.247-3.278c-0.643-0.984-1.194-1.993-1.553-3.116c-0.462-1.451-0.583-2.997-0.447-4.508
		c0.411-4.567,3.131-8.047,7.284-9.882c2.496-1.103,5.354-1.603,8.123-1.613c0.01-2.768,0.511-5.628,1.613-8.123
		c1.835-4.153,5.316-6.875,9.881-7.284c1.514-0.136,3.059-0.015,4.51,0.447c1.123,0.358,2.131,0.91,3.115,1.551
		c1.109,0.724,2.161,1.532,3.277,2.249c1.279,0.818,2.584,1.478,4.049,1.901c2.321,0.672,5.763,1.308,8.159,0.819
		c2.678-0.545,5.265-1.896,7.157-3.879c2.122-2.223,3.653-6.087,1.753-8.898c-0.926-1.371-2.461-2.188-4.116-2.189
		c-1.616,0-3.122,0.784-4.055,2.1l-0.003,0.003l-0.047,0.07c-0.563,0.826-0.859,1.794-0.859,2.793c0,0.43,0.056,0.859,0.166,1.275
		c0.208,0.824,0.626,1.574,1.218,2.185c0.494,0.509,1.09,0.903,1.752,1.157c0.034,0.013,0.068,0.025,0.104,0.039
		c-1.093,0.225-2.256,0.072-3.264-0.502c-1.429-0.812-2.361-2.079-2.556-3.717l-0.091-0.769l-0.757,0.159
		c-3.191,0.673-6.293-0.693-8.476-2.966c1.351,0.167,2.77,0.192,4.018,0.11c1.601-0.106,3.374-0.42,4.803-1.18
		c1.896-1.008,3.937-2.221,6.029-2.748c1.206-0.304,2.387-0.366,3.616-0.176c1.497,0.23,2.946,1.065,3.989,2.153
		c1.315,1.371,2.076,3.124,2.169,5.023c0.114,2.303-0.681,4.53-1.974,6.413c-0.42,0.614-0.896,1.193-1.408,1.731
		c-2.29,2.399-5.383,4.037-8.624,4.695c-2.937,0.598-6.755,0.036-9.605-0.777c-0.841-0.239-1.672-0.52-2.483-0.844l-0.987-0.396
		l0.017,1.063c0.065,4.088-2.227,8.153-6.209,9.48l-0.285,0.082c-0.678,0.196-1.376,0.295-2.08,0.295
		c-2.296,0-4.806-1.01-5.976-3.085c-0.682-1.208-0.755-2.554-0.372-3.872c0.327-1.115,1.056-2.035,1.998-2.632
		c-0.324,0.656-0.502,1.39-0.502,2.15c0,2.678,2.173,4.851,4.852,4.851c1.365,0,2.686-0.544,3.701-1.446
		c3.833-3.41,2.663-10.337-2.372-11.871c-4.592-1.397-8.996,1.264-10.859,5.491c-1.158,2.624-1.54,5.804-1.334,8.652l0.082,1.15
		l-1.151-0.082c-2.847-0.205-6.027,0.178-8.652,1.335c-4.226,1.863-6.887,6.269-5.49,10.857c1.533,5.039,8.462,6.207,11.87,2.374
		c0.904-1.015,1.448-2.336,1.448-3.702c0-2.679-2.173-4.852-4.851-4.852c-0.763,0-1.496,0.179-2.151,0.502
		c0.599-0.941,1.518-1.671,2.632-1.997c1.319-0.385,2.664-0.31,3.872,0.372c2.075,1.17,3.086,3.68,3.086,5.974
		c0,0.704-0.1,1.405-0.296,2.08l-0.082,0.286c-1.326,3.984-5.393,6.275-9.48,6.21l-1.062-0.018l0.394,0.988
		c0.326,0.812,0.607,1.643,0.846,2.484c0.814,2.85,1.376,6.668,0.778,9.604c-0.66,3.241-2.297,6.335-4.696,8.625
		c-0.539,0.513-1.118,0.988-1.733,1.408c-1.881,1.292-4.109,2.088-6.411,1.974c-1.9-0.093-3.653-0.854-5.024-2.17
		c-1.088-1.043-1.923-2.492-2.153-3.989c-0.189-1.23-0.129-2.412,0.177-3.618c0.526-2.092,1.739-4.131,2.748-6.029
		c0.761-1.429,1.073-3.201,1.18-4.801c0.083-1.249,0.056-2.67-0.111-4.018c2.271,2.183,3.64,5.285,2.968,8.475l-0.16,0.758
		l0.769,0.092c1.641,0.194,2.906,1.127,3.719,2.554C39.22,88.353,39.374,89.516,39.147,90.608L39.147,90.608z M147.751,120.842
		h-13.237H122.26v-5.848h27.582c1.335-4.614,2.002-9.391,2.002-14.198c0-0.928-0.025-1.857-0.078-2.783h-48.175v-5.849h47.524
		c-0.32-1.877-0.747-3.736-1.277-5.566h-27.583v-5.847h25.496c-7.597-17.771-24.653-29.807-44.018-30.904c0,6.496,0,12.993,0,19.489
		c7.053,0,14.106,0,21.16,0c-4.419-3.386-9.506-5.812-14.941-7.096l-0.652-0.155v-5.976l1.025,0.218
		c10.869,2.316,20.502,8.575,27.092,17.503l0.997,1.353h-34.681v5.566h12.955v5.847H84.93v-5.845h12.955v-5.566H63.204l0.997-1.353
		c6.588-8.928,16.224-15.188,27.092-17.503l1.025-0.218v5.976l-0.654,0.155c-5.434,1.283-10.521,3.709-14.939,7.096
		c7.054,0,14.107,0,21.16,0c0-6.496,0-12.993,0-19.489C78.52,50.944,61.464,62.979,53.868,80.751h25.494v5.847H51.78
		c-0.53,1.83-0.957,3.69-1.277,5.566h47.523v5.849H49.852c-0.053,0.926-0.077,1.855-0.077,2.783c0,4.807,0.667,9.583,2.001,14.198
		h27.587v5.848H67.105H53.869c4.19,9.715,11.572,17.522,20.257,23.46c6.051,4.137,16.222,7.249,23.759,7.473v-19.519
		c-7.053,0-14.106,0-21.16,0c4.419,3.385,9.506,5.812,14.939,7.095l0.654,0.155v5.975l-1.025-0.219
		c-10.818-2.305-20.527-8.605-27.09-17.503l-0.997-1.352h34.679v-5.564H84.93v-0.848c0-3.524,0-7.045,0-10.567H56.154l-0.124-0.702
		c-0.247-1.399-0.427-2.811-0.541-4.229l-0.076-0.915h0.921c29.649,0,59.299,0,88.95,0h0.919l-0.075,0.915
		c-0.114,1.418-0.293,2.83-0.54,4.229l-0.124,0.702h-28.775c0,3.522,0,7.043,0,10.567v0.848h-12.955v5.564h34.679l-0.997,1.352
		c-6.561,8.898-16.271,15.198-27.09,17.503l-1.025,0.219v-5.975l0.652-0.155c5.436-1.283,10.522-3.711,14.941-7.095
		c-7.054,0-14.107,0-21.16,0v19.489c2.871-0.163,5.728-0.565,8.529-1.209c2.424-0.556,4.767-1.349,7.094-2.186
		c1.23-0.48,2.492-1.08,3.688-1.636c0.771-0.358,1.545-0.723,2.303-1.107c0.238-0.121,0.677-0.333,0.981-0.52v-0.092l0.417-0.246
		C136.066,139.239,143.492,130.788,147.751,120.842L147.751,120.842z M90.793,109.459v5.567h20.033l-0.001-5.567H90.793
		L90.793,109.459z"/>
</g>
</svg>
