<?xml version="1.0" encoding="utf-8"?>
<!-- Generator: Adobe Illustrator 17.0.0, SVG Export Plug-In . SVG Version: 6.00 Build 0)  -->
<!DOCTYPE svg PUBLIC "-//W3C//DTD SVG 1.1//EN" "http://www.w3.org/Graphics/SVG/1.1/DTD/svg11.dtd">
<svg version="1.1" id="图层_1" xmlns="http://www.w3.org/2000/svg" xmlns:xlink="http://www.w3.org/1999/xlink" x="0px" y="0px"
	 width="148.858px" height="92.215px" viewBox="0 0 148.858 92.215" enable-background="new 0 0 148.858 92.215"
	 xml:space="preserve">
<path fill="#E40077" d="M67.102,48.073L53.441,29.957c-2.762-3.177-4.435-7.321-4.435-11.86C49.007,8.101,57.108,0,67.102,0
	c9.995,0,18.099,8.101,18.099,18.097c0,4.539-1.676,8.683-4.437,11.86L67.102,48.073z M67.102,64.411
	c-4.572,0-8.279,3.703-8.279,8.276c0,4.575,3.707,8.278,8.279,8.278c4.571,0,8.281-3.703,8.281-8.278
	C75.383,68.114,71.673,64.411,67.102,64.411z"/>
<path fill="#8FC31F" d="M44.027,70.095v21.332h-10.28c0-3.119,0-18.135,0-20.941c0-5.274-4.273-9.549-9.549-9.549
	c-5.272,0-9.545,4.275-9.545,9.549c0,3.731,0,14.315,0,14.315v6.626H4.371V53.904h10.282v2.456
	c3.109-2.598,7.105-4.166,11.473-4.166C36.014,52.194,44.027,60.209,44.027,70.095z M89.967,45.494V91.12H79.864v-1.938
	c-3.526,2.733-7.954,4.363-12.762,4.363c-6.019,0-11.438-2.552-15.243-6.632c-3.646-3.637-5.9-8.669-5.9-14.225
	c0-5.552,2.255-10.585,5.9-14.224c3.804-4.08,9.224-6.629,15.243-6.629c4.809,0,9.236,1.629,12.762,4.364V45.494H89.967z
	 M78.615,72.687c0-6.353-5.155-11.509-11.513-11.509c-6.353,0-11.512,5.156-11.512,11.509c0,6.359,5.159,11.514,11.512,11.514
	C73.46,84.201,78.615,79.046,78.615,72.687z M44.027,5.607v39.289h-10.1V40.32c-3.574,2.873-8.115,4.592-13.059,4.592
	C9.339,44.913,0,35.574,0,24.049C0,12.523,9.339,3.182,20.868,3.182c4.944,0,9.485,1.721,13.059,4.594V5.607H44.027z M32.393,24.036
	c0-6.356-5.156-11.509-11.516-11.509c-6.357,0-11.511,5.153-11.511,11.509c0,6.357,5.155,11.509,11.511,11.509
	C27.237,35.545,32.393,30.392,32.393,24.036z M118.119,87.048c0,4.21,3.012,4.21,3.012,4.21h3.017V69.339h-6.029
	C118.119,69.339,118.119,84.321,118.119,87.048z M100.821,69.339l0.002,14.412h-0.002c0,1.881-3.415,3.809-3.415,3.809l2.823,3.823
	c3.826-1.202,6.614-3.612,6.614-9V69.339H100.821z M124.857,57.242h-24.459v6.028h24.459V57.242z M115.606,46.774l-6.029-1.267
	v45.751h6.029V46.774z M148.858,57.755V81.95c0,3.215-2.607,5.821-5.82,5.821h-9.149c-3.217,0-5.826-2.606-5.826-5.821V57.755
	c0-3.217,2.609-5.826,5.826-5.826h9.149C146.251,51.929,148.858,54.538,148.858,57.755z M142.977,61.429
	c0-1.882-1.525-3.4-3.404-3.4h-2.221c-1.881,0-3.402,1.518-3.402,3.4v16.849c0,1.878,1.521,3.403,3.402,3.403h2.221
	c1.879,0,3.404-1.525,3.404-3.403V61.429z M117.729,51.518c5.861,0,7.352-2.713,8.586-7.852l-4.581-1.635
	c0,0-1.35,3.449-5.795,3.449v0.007L100.4,45.48l-0.002,2.433c0,0-0.083,3.606,3.766,3.606L117.729,51.518L117.729,51.518z"/>
</svg>
