<?xml version="1.0" encoding="utf-8"?>
<!-- Generator: Adobe Illustrator 17.0.0, SVG Export Plug-In . SVG Version: 6.00 Build 0)  -->
<!DOCTYPE svg PUBLIC "-//W3C//DTD SVG 1.1//EN" "http://www.w3.org/Graphics/SVG/1.1/DTD/svg11.dtd">
<svg version="1.1" id="background" xmlns="http://www.w3.org/2000/svg" xmlns:xlink="http://www.w3.org/1999/xlink" x="0px" y="0px"
	 width="181.284px" height="183.324px" viewBox="0 0 181.284 183.324" enable-background="new 0 0 181.284 183.324"
	 xml:space="preserve">
<path fill="#FFBBBB" d="M177.833,12.818c-2.602,2.551-2.602,6.725,0,9.275s2.602,6.725,0,9.276s-2.602,6.725,0,9.274
	c2.602,2.55,2.602,6.724,0,9.276s-2.602,6.727,0,9.277s2.602,6.724,0,9.274s-2.602,6.725,0,9.276s2.602,6.726,0,9.276
	s-2.602,6.724,0,9.274s2.602,6.724,0,9.275s-2.602,6.725,0,9.275s2.602,6.724,0,9.275s-2.602,6.726,0,9.276s2.602,6.725,0,9.276
	s-2.602,6.726,0,9.277s2.602,6.725,0,9.275s-2.602,6.724,0,9.275s2.602,6.767,0,9.367c-2.602,2.601-6.792,2.601-9.313,0
	c-2.52-2.601-6.643-2.601-9.162,0s-6.641,2.601-9.161,0c-2.52-2.601-6.643-2.601-9.162,0c-2.52,2.601-6.643,2.601-9.163,0
	c-2.52-2.601-6.643-2.601-9.163,0c-2.52,2.601-6.643,2.601-9.163,0c-2.52-2.601-6.643-2.601-9.162,0
	c-2.519,2.601-6.642,2.601-9.163,0s-6.644-2.601-9.163,0c-2.518,2.601-6.641,2.601-9.161,0c-2.52-2.601-6.643-2.601-9.162,0
	c-2.519,2.601-6.642,2.601-9.162,0s-6.644-2.601-9.164,0c-2.52,2.601-6.644,2.601-9.164,0s-6.643-2.601-9.163,0
	c-2.519,2.601-6.643,2.601-9.163,0s-6.643-2.601-9.161,0c-2.519,2.601-6.708,2.601-9.309,0s-2.601-6.816,0-9.367
	c2.601-2.551,2.601-6.725,0-9.275s-2.601-6.725,0-9.277s2.601-6.727,0-9.277s-2.601-6.724,0-9.275s2.601-6.726,0-9.276
	s-2.601-6.724,0-9.274s2.601-6.724,0-9.275s-2.601-6.726,0-9.277s2.601-6.725,0-9.274c-2.601-2.55-2.601-6.724,0-9.276
	s2.601-6.727,0-9.276c-2.601-2.55-2.601-6.724,0-9.275s2.601-6.727,0-9.277c-2.601-2.551-2.601-6.724,0-9.274s2.601-6.724,0-9.274
	s-2.601-6.725,0-9.276s2.601-6.725,0-9.275s-2.601-6.765,0-9.366s6.791-2.601,9.311,0s6.643,2.601,9.161,0s6.642-2.601,9.162,0
	s6.644,2.601,9.163,0s6.642-2.601,9.163,0s6.644,2.601,9.164,0s6.642-2.601,9.162,0s6.643,2.601,9.162,0s6.642-2.601,9.162,0
	s6.643,2.601,9.163,0s6.643-2.601,9.163,0s6.643,2.601,9.162,0s6.642-2.601,9.162,0c2.52,2.601,6.643,2.601,9.163,0
	s6.644-2.601,9.165,0s6.644,2.601,9.162,0s6.641-2.601,9.162,0s6.643,2.601,9.162,0s6.708-2.601,9.31,0
	S180.435,10.267,177.833,12.818z M177.833,12.818c-2.602,2.551-2.602,6.725,0,9.275s2.602,6.725,0,9.276s-2.602,6.725,0,9.274
	c2.602,2.55,2.602,6.724,0,9.276s-2.602,6.727,0,9.277s2.602,6.724,0,9.274s-2.602,6.725,0,9.276s2.602,6.726,0,9.276
	s-2.602,6.724,0,9.274s2.602,6.724,0,9.275s-2.602,6.725,0,9.275s2.602,6.724,0,9.275s-2.602,6.726,0,9.276s2.602,6.725,0,9.276
	s-2.602,6.726,0,9.277s2.602,6.725,0,9.275s-2.602,6.724,0,9.275s2.602,6.767,0,9.367c-2.602,2.601-6.792,2.601-9.313,0
	c-2.52-2.601-6.643-2.601-9.162,0s-6.641,2.601-9.161,0c-2.52-2.601-6.643-2.601-9.162,0c-2.52,2.601-6.643,2.601-9.163,0
	c-2.52-2.601-6.643-2.601-9.163,0c-2.52,2.601-6.643,2.601-9.163,0c-2.52-2.601-6.643-2.601-9.162,0
	c-2.519,2.601-6.642,2.601-9.163,0s-6.644-2.601-9.163,0c-2.518,2.601-6.641,2.601-9.161,0c-2.52-2.601-6.643-2.601-9.162,0
	c-2.519,2.601-6.642,2.601-9.162,0s-6.644-2.601-9.164,0c-2.52,2.601-6.644,2.601-9.164,0s-6.643-2.601-9.163,0
	c-2.519,2.601-6.643,2.601-9.163,0s-6.643-2.601-9.161,0c-2.519,2.601-6.708,2.601-9.309,0s-2.601-6.816,0-9.367
	c2.601-2.551,2.601-6.725,0-9.275s-2.601-6.725,0-9.277s2.601-6.727,0-9.277s-2.601-6.724,0-9.275s2.601-6.726,0-9.276
	s-2.601-6.724,0-9.274s2.601-6.724,0-9.275s-2.601-6.726,0-9.277s2.601-6.725,0-9.274c-2.601-2.55-2.601-6.724,0-9.276
	s2.601-6.727,0-9.276c-2.601-2.55-2.601-6.724,0-9.275s2.601-6.727,0-9.277c-2.601-2.551-2.601-6.724,0-9.274s2.601-6.724,0-9.274
	s-2.601-6.725,0-9.276s2.601-6.725,0-9.275s-2.601-6.765,0-9.366s6.791-2.601,9.311,0s6.643,2.601,9.161,0s6.642-2.601,9.162,0
	s6.644,2.601,9.163,0s6.642-2.601,9.163,0s6.644,2.601,9.164,0s6.642-2.601,9.162,0s6.643,2.601,9.162,0s6.642-2.601,9.162,0
	s6.643,2.601,9.163,0s6.643-2.601,9.163,0s6.643,2.601,9.162,0s6.642-2.601,9.162,0c2.52,2.601,6.643,2.601,9.163,0
	s6.644-2.601,9.165,0s6.644,2.601,9.162,0s6.641-2.601,9.162,0s6.643,2.601,9.162,0s6.708-2.601,9.31,0
	S180.435,10.267,177.833,12.818z"/>
<path fill="#FFF0F0" d="M166.626,147.995c0,10.43-7.507,18.848-17.585,18.848H33.667c-10.078,0-19.041-8.418-19.041-18.848V32.921
	c0-10.432,8.963-18.078,19.041-18.078h115.374c10.078,0,17.585,7.647,17.585,18.078V147.995z"/>
</svg>
