<?xml version="1.0" encoding="iso-8859-1"?>
<!-- Generator: Adobe Illustrator 17.0.0, SVG Export Plug-In . SVG Version: 6.00 Build 0)  -->
<!DOCTYPE svg PUBLIC "-//W3C//DTD SVG 1.1//EN" "http://www.w3.org/Graphics/SVG/1.1/DTD/svg11.dtd">
<svg version="1.1" id="Layer_1" xmlns="http://www.w3.org/2000/svg" xmlns:xlink="http://www.w3.org/1999/xlink" x="0px" y="0px"
	 width="154.89px" height="150.12px" viewBox="0 0 154.89 150.12" style="enable-background:new 0 0 154.89 150.12;"
	 xml:space="preserve">
<g>
	<circle style="fill:#97D7DE;" cx="79.829" cy="75.06" r="75.061"/>
	<g>
		<defs>
			<circle id="SVGID_17_" cx="79.829" cy="75.06" r="75.061"/>
		</defs>
		<clipPath id="SVGID_1_">
			<use xlink:href="#SVGID_17_"  style="overflow:visible;"/>
		</clipPath>
		<path style="clip-path:url(#SVGID_1_);fill:#4E4236;" d="M131.89,110.28c3.586-6.939,10.303-16.141,10.876-24.43
			c2.528-36.617-12.876-54.912-29.456-56.056C77.227,1.913,33.668,29.227,24.351,53.08c-2.751,7.044-8.475,29.649,0.79,46.05
			l0.18,0.311c2.313,8.181,11.362,29.841,47.089,34.669C101.004,137.975,121.444,127.689,131.89,110.28z"/>
		<path style="clip-path:url(#SVGID_1_);fill:#33A1BA;" d="M37.174,131.287c3.055,1.006,9.125,4.984,16.955-0.934
			c5.177-3.913,7.434-3.554,11.051-0.174c5.219,4.865-7.866,24.212-26.271,14.538C37.682,140.21,35.441,130.717,37.174,131.287z"/>
		<ellipse style="clip-path:url(#SVGID_1_);fill:#EDC6AD;" cx="72.593" cy="133.11" rx="12.023" ry="10.395"/>
		<path style="clip-path:url(#SVGID_1_);fill:#33A1BA;" d="M88.665,137.681c-0.924-5.375-5.242-10.913-10.724-12.931
			c2.728,1.667,4.054,4.188,3.667,6.195c-0.807,4.168-5.177,8.764-11.619,7.843c-5.361-0.764-9.419-5.872-7.979-10.926
			c0.191-0.674,0.478-1.328,0.898-1.95c-6.041,2.655-7.527,8.116-9.131,13.542c-2.127,7.184-1.92,23.37-3.771,32.258
			c4.542,2.592,3.665,4.537,17.053,5.556c11.909,0.907,19.53-0.571,27.084-3.785C93.86,164.189,90.821,150.245,88.665,137.681z"/>
		<path style="clip-path:url(#SVGID_1_);fill:#33A1BA;" d="M108.835,166.062c0.271-3.663-8.804-21.436-13.56-30.039
			c-3.142-5.675-6.791-7.303-11.28-5.217c-6.468,3.008,10.239,39.906,11.768,41.158c0.787,1.695,0.944,3.041,1.573,3.568
			c0.627,0.524,12.698-2.422,13.302-4.509S108.701,167.883,108.835,166.062z"/>
		<path style="clip-path:url(#SVGID_1_);fill:#4E4236;" d="M142.832,84.88l-19.688,18.209c1.446,2.767,6.894,14.933,11.632,13.759
			c2.651-0.657,2.52-4.222,2.645-8.83c2.457,0.33,6.726,0.993,8.258-0.854C147.975,104.395,143.425,93.632,142.832,84.88z"/>
		<path style="clip-path:url(#SVGID_1_);fill:#EDC6AD;" d="M117.597,106.443l-5.338,15.556
			C127.868,128.239,132.144,108.067,117.597,106.443z"/>
		<path style="clip-path:url(#SVGID_1_);fill:#EDC6AD;" d="M117.286,112.248c-1.265,18.318-23.898,25.028-46.446,23.473
			c-19.209-1.326-47.454-11.181-43.312-38.101c0,0-13.35-76.69,55.198-66.469C160.648,42.771,117.286,112.248,117.286,112.248z"/>
		<path style="clip-path:url(#SVGID_1_);fill:#76634E;" d="M101.192,111.801c-0.29,4.203-3.117,7.425-6.305,7.204
			c-3.191-0.22-5.549-3.799-5.259-8.004c0.29-4.202,3.118-7.428,6.309-7.208C99.126,104.014,101.483,107.598,101.192,111.801z"/>
		<path style="clip-path:url(#SVGID_1_);fill:#FFFFFF;" d="M99.996,112.982c-0.291,4.205-2.988,7.436-6.021,7.226
			c-3.035-0.21-5.263-3.779-4.973-7.984c0.291-4.202,2.988-7.438,6.023-7.228C98.058,105.206,100.286,108.779,99.996,112.982z"/>
		<path style="clip-path:url(#SVGID_1_);fill:#030000;" d="M98.464,112.894c-0.207,3.029-2.145,5.354-4.327,5.203
			c-2.181-0.15-3.782-2.72-3.572-5.749c0.208-3.02,2.147-5.348,4.327-5.197C97.076,107.301,98.674,109.874,98.464,112.894z"/>
		<path style="clip-path:url(#SVGID_1_);fill:#4E4236;" d="M17.017,85.789c6.07,4.209,20.849-5.773,27.614-17.764
			c3.561,7.479,9.088,15.201,15.294,15.63c6.206,0.428,20.03-10.372,28.118-19.635c2.71,12.682,5.789,23.566,10.077,25.301
			c4.997,2.02,9.566,2.923,18.222-3.153c-0.854,9.378-3.403,21.961,2.24,23.834c9.523,3.155,42.278-64.578-31.205-80.222
			C24.125,16.314,11.061,81.658,17.017,85.789z"/>
		<path style="clip-path:url(#SVGID_1_);fill:#76634E;" d="M48.18,89.73c-0.31,0-0.609-0.171-0.758-0.467
			c-0.697-1.383-2.146-1.427-2.562-1.402c-0.84,0.04-1.418,0.396-1.512,0.638c-0.17,0.437-0.663,0.65-1.099,0.482
			c-0.437-0.171-0.653-0.663-0.482-1.1c0.379-0.973,1.562-1.646,3.012-1.716c1.817-0.091,3.378,0.785,4.159,2.334
			c0.211,0.418,0.043,0.929-0.375,1.14C48.439,89.701,48.308,89.73,48.18,89.73L48.18,89.73z"/>
		<path style="clip-path:url(#SVGID_1_);fill:#76634E;" d="M98.793,96.432c-0.351,0-0.679-0.219-0.801-0.568
			c-0.512-1.459-1.934-1.686-2.358-1.721c-0.832-0.07-1.458,0.21-1.582,0.437c-0.225,0.41-0.739,0.562-1.152,0.336
			c-0.41-0.226-0.562-0.741-0.336-1.152c0.502-0.916,1.764-1.43,3.21-1.312c1.818,0.149,3.246,1.216,3.819,2.851
			c0.155,0.442-0.078,0.926-0.521,1.081C98.98,96.416,98.886,96.432,98.793,96.432L98.793,96.432z"/>
		<path style="clip-path:url(#SVGID_1_);fill:#76634E;" d="M48.322,104.559c-0.83,4.134-4.037,6.97-7.151,6.343
			c-3.114-0.628-4.973-4.479-4.14-8.614c0.83-4.131,4.035-6.967,7.149-6.34C47.296,96.574,49.155,100.43,48.322,104.559z"/>
		
			<ellipse transform="matrix(0.9803 0.1974 -0.1974 0.9803 21.4669 -6.4895)" style="clip-path:url(#SVGID_1_);fill:#FFFFFF;" cx="43.277" cy="104.408" rx="5.51" ry="7.625"/>
		<path style="clip-path:url(#SVGID_1_);fill:#030000;" d="M47.172,105.21c-0.6,2.975-2.82,5.029-4.964,4.598
			c-2.143-0.431-3.398-3.186-2.8-6.16c0.598-2.968,2.821-5.022,4.963-4.594C46.516,99.485,47.769,102.241,47.172,105.21z"/>
		<path style="clip-path:url(#SVGID_1_);fill:#D76D6A;" d="M74.14,121.318c-0.306,13.957-18.848,15.454-17.651-1.866
			C60.397,117.703,69.684,119.066,74.14,121.318z"/>
	</g>
	<g>
		<path style="fill:#EDC6AD;" d="M33.401,127.294c4.369,3.15-3.035,9.117-8.224,6.043c-5.057-2.999-5.613-4.895-10.825-7.316
			c-4.013-3.753-0.723-10.635,5.086-8.37C23.936,120.979,28,123.387,33.401,127.294z"/>
	</g>
	<path style="fill:#33A1BA;" d="M52.279,142.893c4.961-1.764,5.976-7.826-0.342-11.001c-11.114-0.607-23.369-9.451-24.204-9.931
		c-2.157,2.155-5.365,5.524-6.999,9.496C21.482,133.05,39.918,147.28,52.279,142.893z"/>
	<g>
		<path style="fill:#EDC6AD;" d="M14.904,127.724c-3.828,0.681-7.453-0.249-9.804-3.866c-2.912-4.495,3.958-12.458,10.437-15.499
			c8.813-4.134,17.216,5.165,9.461,13.374C22.16,124.738,18.73,127.046,14.904,127.724z"/>
		<path style="fill:#EDC6AD;" d="M8.021,118.882c1.111,1.404,1.153,3.116-0.241,4.233l0,0c-2.447,2.806-6.516-2.996-6.516-2.996
			c-1.11-1.409-1.92-4.435-0.521-5.547l0,0c1.394-1.116,2.75-1.357,3.849,0.045L8.021,118.882z"/>
		
			<linearGradient id="SVGID_2_" gradientUnits="userSpaceOnUse" x1="2229.6492" y1="-933.3239" x2="2227.4119" y2="-943.8499" gradientTransform="matrix(0.9999 0.0168 -0.0168 0.9999 -2239.6663 1019.8408)">
			<stop  offset="0" style="stop-color:#F37E80"/>
			<stop  offset="0.6909" style="stop-color:#FFFFFF"/>
		</linearGradient>
		<path style="opacity:0.5;fill:url(#SVGID_2_);" d="M8.021,118.882c1.111,1.404,1.153,3.116-0.241,4.233l0,0
			c-2.447,2.806-6.516-2.996-6.516-2.996c-1.11-1.409-1.92-4.435-0.521-5.547l0,0c1.394-1.116,2.75-1.357,3.849,0.045L8.021,118.882
			z"/>
		<path style="fill:#EDC6AD;" d="M12.399,114.277c1.074,1.436,2.046,4.356,0.617,5.437l0,0c-1.858,1.425-4.827-0.462-5.895-1.894
			l-3.381-4.473c-1.078-1.437-0.784-3.468,0.638-4.554l0.025-0.012c1.426-1.082,3.447-0.784,4.525,0.645L12.399,114.277z"/>
		
			<linearGradient id="SVGID_3_" gradientUnits="userSpaceOnUse" x1="2233.7324" y1="-936.8198" x2="2231.0378" y2="-949.4965" gradientTransform="matrix(0.9999 0.0168 -0.0168 0.9999 -2239.6663 1019.8408)">
			<stop  offset="0" style="stop-color:#F37E80"/>
			<stop  offset="0.6909" style="stop-color:#FFFFFF"/>
		</linearGradient>
		<path style="opacity:0.5;fill:url(#SVGID_3_);" d="M12.399,114.277c1.074,1.436,2.046,4.356,0.617,5.437l0,0
			c-1.858,1.425-4.827-0.462-5.895-1.894l-3.381-4.473c-1.078-1.437-0.784-3.468,0.638-4.554l0.025-0.012
			c1.426-1.082,3.447-0.784,4.525,0.645L12.399,114.277z"/>
		<path style="fill:#EDC6AD;" d="M16.054,108.74c1.057,1.56,1.506,4.933-0.054,5.983l-0.03,0.02c-1.549,1.06-4.109,0.021-5.162-1.54
			l-3.433-5.051c-1.062-1.556-0.656-3.673,0.901-4.734l0.031-0.015c1.552-1.056,3.668-0.654,4.729,0.9L16.054,108.74z"/>
		
			<linearGradient id="SVGID_5_" gradientUnits="userSpaceOnUse" x1="2237.2166" y1="-942.0306" x2="2234.5" y2="-954.8114" gradientTransform="matrix(0.9999 0.0168 -0.0168 0.9999 -2239.6663 1019.8408)">
			<stop  offset="0" style="stop-color:#F37E80"/>
			<stop  offset="0.6909" style="stop-color:#FFFFFF"/>
		</linearGradient>
		<path style="opacity:0.5;fill:url(#SVGID_5_);" d="M16.054,108.74c1.057,1.56,1.506,4.933-0.054,5.983l-0.03,0.02
			c-1.549,1.06-4.109,0.021-5.162-1.54l-3.433-5.051c-1.062-1.556-0.656-3.673,0.901-4.734l0.031-0.015
			c1.552-1.056,3.668-0.654,4.729,0.9L16.054,108.74z"/>
		<path style="fill:#EDC6AD;" d="M13.429,100.189c-1.841,1.506,0.512,7.279,2.375,10.05c1.615,2.394,5.816,1.339,5.695-1.777
			C21.364,104.946,18.898,95.721,13.429,100.189z"/>
		
			<linearGradient id="SVGID_7_" gradientUnits="userSpaceOnUse" x1="2242.3806" y1="-945.9978" x2="2239.7078" y2="-958.5723" gradientTransform="matrix(0.9999 0.0168 -0.0168 0.9999 -2239.6663 1019.8408)">
			<stop  offset="0" style="stop-color:#F37E80"/>
			<stop  offset="0.6909" style="stop-color:#FFFFFF"/>
		</linearGradient>
		<path style="opacity:0.5;fill:url(#SVGID_7_);" d="M13.429,100.189c-1.841,1.506,0.512,7.279,2.375,10.05
			c1.615,2.394,5.816,1.339,5.695-1.777C21.364,104.946,18.898,95.721,13.429,100.189z"/>
		<path style="fill:#EDC6AD;" d="M19.811,105.939c-1.566-0.134-7.477-1.229-7.455,2.535c0.015,2.708,3.867,2.424,6.669,4.063
			c0.004,1.65,1.262,3.522,2.473,3.511l6.236-2.2C27.774,108.31,22.954,106.205,19.811,105.939z"/>
		
			<linearGradient id="SVGID_8_" gradientUnits="userSpaceOnUse" x1="1567.8356" y1="428.3126" x2="1582.8348" y2="423.4391" gradientTransform="matrix(0.51 0.8602 -0.8602 0.51 -416.6613 -1462.0779)">
			<stop  offset="0" style="stop-color:#F37E80"/>
			<stop  offset="0.6909" style="stop-color:#FFFFFF"/>
		</linearGradient>
		<path style="opacity:0.5;fill:url(#SVGID_8_);" d="M19.811,105.939c-1.566-0.134-7.477-1.229-7.455,2.535
			c0.015,2.708,3.867,2.424,6.669,4.063c0.004,1.65,1.262,3.522,2.473,3.511l6.236-2.2C27.774,108.31,22.954,106.205,19.811,105.939
			z"/>
	</g>
</g>
</svg>
