<?xml version="1.0" encoding="iso-8859-1"?>
<!-- Generator: Adobe Illustrator 17.0.0, SVG Export Plug-In . SVG Version: 6.00 Build 0)  -->
<!DOCTYPE svg PUBLIC "-//W3C//DTD SVG 1.1//EN" "http://www.w3.org/Graphics/SVG/1.1/DTD/svg11.dtd">
<svg version="1.1" id="Objects" xmlns="http://www.w3.org/2000/svg" xmlns:xlink="http://www.w3.org/1999/xlink" x="0px" y="0px"
	 width="163.991px" height="152.75px" viewBox="0 0 163.991 152.75" style="enable-background:new 0 0 163.991 152.75;"
	 xml:space="preserve">
<g>
	<g>
		<rect x="53.545" y="2.201" style="fill-rule:evenodd;clip-rule:evenodd;fill:#FFFFFF;" width="108.246" height="112.448"/>
		<path style="fill:#CF7761;" d="M107.668,0h54.123h2.2v2.201v112.448v2.201h-2.2h-54.123v-4.401h51.923V4.401h-51.923V0z M53.545,0
			h54.123v4.401H55.746v108.047h51.922v4.401H53.545h-2.199v-2.201V2.201V0H53.545z"/>
	</g>
	<g>
		<path style="fill-rule:evenodd;clip-rule:evenodd;fill:#27557D;" d="M61.029,88.741c9.55-2.278,22.854-7.686,24.588,0.041
			c2.065,9.184,4.609,30.957,7.28,52.108c0.574,4.561-5.271,6.924-6.725,7.364c-6.506,1.969-12.093,2.581-19.294,3.553
			l-5.875-63.025C61.002,88.763,61.018,88.744,61.029,88.741z"/>
		<path style="fill-rule:evenodd;clip-rule:evenodd;fill:#27557D;" d="M32.023,88.741c-12.062-2.878-21.648-9.588-23.755-0.116
			c-2.203,9.918-4.617,31.648-7.165,51.942c-0.653,5.2,4.762,7.434,6.515,7.888c6.245,1.621,11.628,2.417,18.556,3.353l5.875-63.025
			C32.051,88.763,32.032,88.742,32.023,88.741z"/>
		<path style="fill-rule:evenodd;clip-rule:evenodd;fill:#27557D;" d="M22.623,150.575l-0.314,0.74
			c14.86,1.881,33.139,1.913,48.042,0.099c-0.137-0.3-0.271-0.582-0.4-0.839H22.623z"/>
		<path style="fill-rule:evenodd;clip-rule:evenodd;fill:#3F73A1;" d="M16.652,150.423c3.296-9.504-4.227-53.999-8.384-62.183
			c2.364-8.399,24.37-10.256,30.229-15.03c2.778,2.444,4.758,3.001,7.909,3.001c3.15,0,5.232-0.637,8.009-3.083
			c4.335,3.532,27.05,6.287,30.935,14.689c-4.422,9.374-12.532,54.013-9.023,62.564C61.532,153.29,31.876,153.496,16.652,150.423z"
			/>
		<polygon style="fill-rule:evenodd;clip-rule:evenodd;fill:#FFFFFF;" points="31.565,77.246 30.862,95.948 46.516,135.688 
			61.949,95.948 60.99,76.731 54.416,73.127 38.498,73.21 		"/>
		<rect x="38.5" y="66.675" style="fill-rule:evenodd;clip-rule:evenodd;fill:#D1A886;" width="15.638" height="16.198"/>
		<path style="fill-rule:evenodd;clip-rule:evenodd;fill:#FCB024;" d="M49,92.887l1.089-2.302l-3.683-8.927l-3.622,8.783
			l1.156,2.446C45.626,92.887,47.313,92.887,49,92.887z"/>
		<polygon style="fill-rule:evenodd;clip-rule:evenodd;fill:#CCCCCC;" points="38.496,73.21 46.406,81.657 40.776,96.715 
			33.817,76.314 		"/>
		<polygon style="fill-rule:evenodd;clip-rule:evenodd;fill:#27557D;" points="33.868,75.906 46.406,135.9 25.764,102.987 
			28.476,97.242 22.586,92.546 30.582,77.714 		"/>
		<polygon style="fill-rule:evenodd;clip-rule:evenodd;fill:#CCCCCC;" points="54.416,73.128 46.406,81.657 52.034,96.715 
			59.094,76.231 		"/>
		<polygon style="fill-rule:evenodd;clip-rule:evenodd;fill:#FCB024;" points="43.94,98.485 49,98.485 51.629,123.846 46.406,135.9 
			41.38,123.846 		"/>
		<polygon style="fill-rule:evenodd;clip-rule:evenodd;fill:#FFFFFF;" points="38.498,73.208 46.406,81.657 40.655,92.994 
			33.819,76.312 		"/>
		<polygon style="fill-rule:evenodd;clip-rule:evenodd;fill:#3F73A1;" points="33.868,75.906 46.406,135.9 27.77,100.362 
			30.862,95.948 24.902,91.311 30.582,77.714 		"/>
		<polygon style="fill-rule:evenodd;clip-rule:evenodd;fill:#27557D;" points="59.249,75.777 46.406,135.9 67.048,102.987 
			64.336,97.242 70.226,92.546 63.902,77.929 		"/>
		<polygon style="fill-rule:evenodd;clip-rule:evenodd;fill:#3F73A1;" points="59.249,75.777 46.406,135.9 65.041,100.362 
			61.949,95.948 67.909,91.311 63.902,77.929 		"/>
		<polygon style="fill-rule:evenodd;clip-rule:evenodd;fill:#FFFFFF;" points="54.416,73.126 46.406,81.657 52.156,92.994 
			59.094,76.23 		"/>
		<path style="fill-rule:evenodd;clip-rule:evenodd;fill:#FCB024;" d="M43.94,92.468H49c1.13,2.345,1.042,4.395,0,6.396h-5.06
			C42.897,96.863,42.809,94.813,43.94,92.468z"/>
		<path style="fill-rule:evenodd;clip-rule:evenodd;fill:#27557D;" d="M45.694,152.745c0.133-4.402,0.465-9.637,1.003-17.486
			c0.539,7.85,0.896,13.085,1.058,17.487C47.067,152.75,46.381,152.748,45.694,152.745z"/>
		<polygon style="fill-rule:evenodd;clip-rule:evenodd;fill:#FFFFFF;" points="29.197,77.726 31.14,95.653 46.715,135.193 
			62.069,95.653 64.012,77.726 56.582,72.947 36.628,72.947 		"/>
		<rect x="36.628" y="66.53" style="fill-rule:evenodd;clip-rule:evenodd;fill:#D1A886;" width="19.78" height="16.116"/>
		<path style="fill-rule:evenodd;clip-rule:evenodd;fill:#F2CAA9;" d="M46.605,76.018c7.796,0,15.013-8.915,18.818-19.835
			c0.223,0.229,0.474,0.375,0.751,0.42c1.551,0.257,3.329-2.657,3.97-6.509c0.639-3.853-0.1-7.185-1.65-7.442
			c-0.109-0.017-0.221-0.02-0.332-0.007c0.761-13.532-4.85-26.034-21.557-26.034c-16.721,0-22.327,12.521-21.556,26.065
			c-0.17-0.043-0.339-0.052-0.506-0.024c-1.552,0.257-2.291,3.589-1.651,7.442c0.641,3.852,2.417,6.766,3.968,6.509
			c0.331-0.056,0.624-0.251,0.875-0.56C31.528,67.028,38.775,76.018,46.605,76.018z"/>
		<path style="fill-rule:evenodd;clip-rule:evenodd;fill:#57291E;" d="M68.164,42.645c0.761-13.532-4.851-26.034-21.559-26.034
			c-16.721,0-22.329,12.521-21.559,26.065c1.353,0.337,2.762,2.813,3.384,6.037c1.091,0.734,1.88,0.305,1.88-2.423
			c0-8.054,0.995-15.19,6.284-16.892c5.033-1.621,6.141,1.935,9.981,1.935c3.84,0,5.052-3.348,9.981-1.935
			c5.117,1.468,6.285,8.839,6.285,16.892c0,2.619,0.725,3.119,1.748,2.507C65.228,45.393,66.749,42.803,68.164,42.645z"/>
		<path style="fill-rule:evenodd;clip-rule:evenodd;fill:#FC8D25;" d="M49.185,92.609l1.084-2.291l-3.664-8.883L43,90.175
			l1.152,2.434C45.829,92.609,47.508,92.609,49.185,92.609z"/>
		<polygon style="fill-rule:evenodd;clip-rule:evenodd;fill:#CCCCCC;" points="36.628,72.947 46.605,81.435 41.004,96.417 
			31.972,76.036 		"/>
		<polygon style="fill-rule:evenodd;clip-rule:evenodd;fill:#27557D;" points="31.972,76.036 46.605,135.404 26.068,102.657 
			28.765,96.941 22.905,92.269 29.197,77.726 		"/>
		<polygon style="fill-rule:evenodd;clip-rule:evenodd;fill:#CCCCCC;" points="56.582,72.947 46.605,81.435 52.206,96.417 
			61.237,76.036 		"/>
		<polygon style="fill-rule:evenodd;clip-rule:evenodd;fill:#FC8D25;" points="44.152,98.179 49.185,98.179 51.801,123.411 
			46.605,135.404 41.604,123.411 		"/>
		<path style="fill-rule:evenodd;clip-rule:evenodd;fill:#57291E;" d="M61.646,25.418c-2.157,4.313-23.887,16.674-31.085,17.239
			C23.363,43.221,30.179,14.246,61.646,25.418z"/>
		<path style="fill-rule:evenodd;clip-rule:evenodd;fill:#57291E;" d="M51.302,25.418c0.93,4.313,10.295,16.674,13.396,17.239
			C67.801,43.221,64.864,14.246,51.302,25.418z"/>
		<polygon style="fill-rule:evenodd;clip-rule:evenodd;fill:#FFFFFF;" points="36.628,72.947 46.605,81.435 40.883,92.715 
			31.972,76.036 		"/>
		<polygon style="fill-rule:evenodd;clip-rule:evenodd;fill:#3F73A1;" points="31.972,76.036 46.605,135.404 28.064,100.046 
			31.14,95.653 25.21,91.041 29.197,77.726 		"/>
		<polygon style="fill-rule:evenodd;clip-rule:evenodd;fill:#27557D;" points="61.237,76.036 46.605,135.404 67.141,102.657 
			64.444,96.941 70.304,92.269 64.012,77.726 		"/>
		<polygon style="fill-rule:evenodd;clip-rule:evenodd;fill:#3F73A1;" points="61.237,76.036 46.605,135.404 65.145,100.046 
			62.069,95.653 68,91.041 64.012,77.726 		"/>
		<polygon style="fill-rule:evenodd;clip-rule:evenodd;fill:#FFFFFF;" points="56.582,72.947 46.605,81.435 52.327,92.715 
			61.237,76.036 		"/>
		<path style="fill-rule:evenodd;clip-rule:evenodd;fill:#FC8D25;" d="M44.152,92.193h5.033c1.125,2.332,1.037,4.371,0,6.363h-5.033
			C43.115,96.564,43.026,94.525,44.152,92.193z"/>
		<path style="fill-rule:evenodd;clip-rule:evenodd;fill:#27557D;" d="M45.34,152.744c0.826,0.006,1.649,0.007,2.475,0.004
			c0.303-4.257-0.609-15.609-1.237-17.485C45.95,136.766,45.039,148.261,45.34,152.744z"/>
	</g>
	<g>
		<circle style="fill-rule:evenodd;clip-rule:evenodd;fill:#B7D5F0;" cx="107.668" cy="58.424" r="30.938"/>
		<path style="fill-rule:evenodd;clip-rule:evenodd;fill:#3F73A1;" d="M134.589,73.675c2.617-4.633,4.019-9.893,4.024-15.246
			l-30.945-0.005L134.589,73.675z"/>
		<path style="fill-rule:evenodd;clip-rule:evenodd;fill:#FFFFFF;" d="M138.613,58.43c0.004-4.749-1.088-9.57-3.398-14.089
			c-4.504-8.809-12.647-14.536-21.659-16.289l-5.887,30.374L138.613,58.43z"/>
		<path style="fill-rule:evenodd;clip-rule:evenodd;fill:#7BA4C9;" d="M113.554,28.051c-6.553-1.275-13.565-0.448-19.971,2.828
			l14.084,27.546L113.554,28.051z"/>
		<path style="fill-rule:evenodd;clip-rule:evenodd;fill:#99BDDC;" d="M93.584,30.878l14.084,27.546l-29.511-9.284
			C80.559,41.51,85.898,34.808,93.584,30.878z"/>
		<path style="fill-rule:evenodd;clip-rule:evenodd;fill:#5D8CB5;" d="M152.498,47.429c0.004-4.749-1.088-9.57-3.398-14.089
			c-4.504-8.809-12.647-14.537-21.659-16.29l-5.888,30.373L152.498,47.429z"/>
	</g>
</g>
</svg>
