<?xml version="1.0" encoding="utf-8"?>
<!-- Generator: Adobe Illustrator 17.0.0, SVG Export Plug-In . SVG Version: 6.00 Build 0)  -->
<!DOCTYPE svg PUBLIC "-//W3C//DTD SVG 1.1//EN" "http://www.w3.org/Graphics/SVG/1.1/DTD/svg11.dtd">
<svg version="1.1" id="图层_1" xmlns:ev="http://www.w3.org/2001/xml-events"
	 xmlns="http://www.w3.org/2000/svg" xmlns:xlink="http://www.w3.org/1999/xlink" x="0px" y="0px" width="160px" height="26px"
	 viewBox="0 0 160 26" enable-background="new 0 0 160 26" xml:space="preserve">
<path fill="#173ACC" d="M4.894,4.945c1.275,0,2.574-1.178,2.574-2.426S6.231,0,4.956,0S2.413,1.301,2.413,2.548
	C2.413,3.796,3.619,4.945,4.894,4.945z M9.917,12.171c0-1.217,0-2.506,0-3.744c0-1.223,0.083-1.106,0-1.871
	C9.598,5.62,8.961,5.308,8.323,5.308c-1.364,0-1.815,0-2.869,0c-1.281,0-1.902-0.004-3.178-0.004c-0.637,0-1.052-0.041-1.525,0.379
	C0.106,6.399,0.17,6.461,0.17,8.458c0,0.987,0,2.708,0,3.809c0,0.986-0.17,2.519,0.839,2.519c0.957,0,0.948-0.668,0.948-1.663
	c0-1.407-0.003-1.772-0.003-2.602c0-0.908-0.053-1.063,0.133-1.063c0.188,0,0.186,0.013,0.186,0.978
	c0,0.894-0.006,13.485-0.006,14.213c0,0.624,0.34,1.292,1.3,1.292c0.957,0,1.357-0.548,1.357-1.172c0-1.124,0-6.018,0-6.55
	c0-0.624,0.021-0.927,0.179-0.927c0.161,0,0.14,0.303,0.14,0.927c0,0.562,0,5.397,0,6.55C5.243,25.157,5.663,26,6.62,26
	c0.638,0,1.224-0.802,1.224-1.218c0-2.495,0.014-13.599,0.014-14.384c0-0.425-0.037-0.966,0.126-0.966
	c0.162,0,0.16,0.147,0.16,0.761c0,0.703,0,1.415,0,2.402c0,1.641,0.26,2.071,0.898,2.071C9.998,14.666,9.917,13.064,9.917,12.171z"
	/>
<path fill="#3754CC" d="M21.894,4.945c1.275,0,2.574-1.178,2.574-2.426S23.231,0,21.956,0c-1.275,0-2.543,1.301-2.543,2.548
	C19.413,3.796,20.619,4.945,21.894,4.945z M26.917,12.171c0-1.217,0-2.506,0-3.744c0-1.223,0.083-1.106,0-1.871
	c-0.319-0.936-0.956-1.248-1.594-1.248c-1.364,0-1.815,0-2.869,0c-1.281,0-1.902-0.004-3.178-0.004
	c-0.637,0-1.052-0.041-1.525,0.379c-0.645,0.716-0.581,0.778-0.581,2.775c0,0.987,0,2.708,0,3.809c0,0.986-0.17,2.519,0.839,2.519
	c0.957,0,0.948-0.668,0.948-1.663c0-1.407-0.003-1.772-0.003-2.602c0-0.908-0.053-1.063,0.133-1.063
	c0.188,0,0.186,0.013,0.186,0.978c0,0.894-0.006,13.485-0.006,14.213c0,0.624,0.34,1.292,1.3,1.292c0.957,0,1.357-0.548,1.357-1.172
	c0-1.124,0-6.018,0-6.55c0-0.624,0.021-0.927,0.179-0.927c0.161,0,0.14,0.303,0.14,0.927c0,0.562,0,5.397,0,6.55
	c0,0.388,0.42,1.231,1.377,1.231c0.638,0,1.224-0.802,1.224-1.218c0-2.495,0.014-13.599,0.014-14.384
	c0-0.425-0.037-0.966,0.126-0.966c0.162,0,0.16,0.147,0.16,0.761c0,0.703,0,1.415,0,2.402c0,1.641,0.26,2.071,0.898,2.071
	C26.998,14.666,26.917,13.064,26.917,12.171z"/>
<path fill="#465BD4" d="M37.894,4.945c1.275,0,2.574-1.178,2.574-2.426S39.231,0,37.956,0c-1.275,0-2.543,1.301-2.543,2.548
	C35.413,3.796,36.619,4.945,37.894,4.945z M42.917,12.171c0-1.217,0-2.506,0-3.744c0-1.223,0.083-1.106,0-1.871
	c-0.319-0.936-0.956-1.248-1.594-1.248c-1.364,0-1.815,0-2.869,0c-1.281,0-1.902-0.004-3.178-0.004
	c-0.637,0-1.052-0.041-1.525,0.379c-0.645,0.716-0.581,0.778-0.581,2.775c0,0.987,0,2.708,0,3.809c0,0.986-0.17,2.519,0.839,2.519
	c0.957,0,0.948-0.668,0.948-1.663c0-1.407-0.003-1.772-0.003-2.602c0-0.908-0.053-1.063,0.133-1.063
	c0.188,0,0.186,0.013,0.186,0.978c0,0.894-0.006,13.485-0.006,14.213c0,0.624,0.34,1.292,1.3,1.292c0.957,0,1.357-0.548,1.357-1.172
	c0-1.124,0-6.018,0-6.55c0-0.624,0.021-0.927,0.179-0.927c0.161,0,0.14,0.303,0.14,0.927c0,0.562,0,5.397,0,6.55
	c0,0.388,0.42,1.231,1.377,1.231c0.638,0,1.224-0.802,1.224-1.218c0-2.495,0.014-13.599,0.014-14.384
	c0-0.425-0.037-0.966,0.126-0.966c0.162,0,0.16,0.147,0.16,0.761c0,0.703,0,1.415,0,2.402c0,1.641,0.26,2.071,0.898,2.071
	C42.998,14.666,42.917,13.064,42.917,12.171z"/>
<path fill="#5166D6" d="M54.894,4.945c1.275,0,2.574-1.178,2.574-2.426S56.231,0,54.956,0c-1.275,0-2.543,1.301-2.543,2.548
	C52.413,3.796,53.619,4.945,54.894,4.945z M59.917,12.171c0-1.217,0-2.506,0-3.744c0-1.223,0.083-1.106,0-1.871
	c-0.319-0.936-0.956-1.248-1.594-1.248c-1.364,0-1.815,0-2.869,0c-1.281,0-1.902-0.004-3.178-0.004
	c-0.637,0-1.052-0.041-1.525,0.379c-0.645,0.716-0.581,0.778-0.581,2.775c0,0.987,0,2.708,0,3.809c0,0.986-0.17,2.519,0.839,2.519
	c0.957,0,0.948-0.668,0.948-1.663c0-1.407-0.003-1.772-0.003-2.602c0-0.908-0.053-1.063,0.133-1.063
	c0.188,0,0.186,0.013,0.186,0.978c0,0.894-0.006,13.485-0.006,14.213c0,0.624,0.34,1.292,1.3,1.292c0.957,0,1.357-0.548,1.357-1.172
	c0-1.124,0-6.018,0-6.55c0-0.624,0.021-0.927,0.179-0.927c0.161,0,0.14,0.303,0.14,0.927c0,0.562,0,5.397,0,6.55
	c0,0.388,0.42,1.231,1.377,1.231c0.638,0,1.224-0.802,1.224-1.218c0-2.495,0.014-13.599,0.014-14.384
	c0-0.425-0.037-0.966,0.126-0.966c0.162,0,0.16,0.147,0.16,0.761c0,0.703,0,1.415,0,2.402c0,1.641,0.26,2.071,0.898,2.071
	C59.998,14.666,59.917,13.064,59.917,12.171z"/>
<path fill="#677AE4" d="M71.894,4.945c1.275,0,2.574-1.178,2.574-2.426S73.231,0,71.956,0s-2.543,1.301-2.543,2.548
	C69.413,3.796,70.619,4.945,71.894,4.945z M76.917,12.171c0-1.217,0-2.506,0-3.744c0-1.223,0.083-1.106,0-1.871
	c-0.319-0.936-0.956-1.248-1.594-1.248c-1.364,0-1.815,0-2.869,0c-1.281,0-1.902-0.004-3.178-0.004
	c-0.637,0-1.052-0.041-1.525,0.379c-0.645,0.716-0.581,0.778-0.581,2.775c0,0.987,0,2.708,0,3.809c0,0.986-0.17,2.519,0.839,2.519
	c0.957,0,0.948-0.668,0.948-1.663c0-1.407-0.003-1.772-0.003-2.602c0-0.908-0.053-1.063,0.133-1.063
	c0.188,0,0.186,0.013,0.186,0.978c0,0.894-0.006,13.485-0.006,14.213c0,0.624,0.34,1.292,1.3,1.292c0.957,0,1.357-0.548,1.357-1.172
	c0-1.124,0-6.018,0-6.55c0-0.624,0.021-0.927,0.179-0.927c0.161,0,0.14,0.303,0.14,0.927c0,0.562,0,5.397,0,6.55
	c0,0.388,0.42,1.231,1.377,1.231c0.638,0,1.224-0.802,1.224-1.218c0-2.495,0.014-13.599,0.014-14.384
	c0-0.425-0.037-0.966,0.126-0.966c0.162,0,0.16,0.147,0.16,0.761c0,0.703,0,1.415,0,2.402c0,1.641,0.26,2.071,0.898,2.071
	C76.998,14.666,76.917,13.064,76.917,12.171z"/>
<path fill="#8897EC" d="M87.894,4.945c1.275,0,2.574-1.178,2.574-2.426S89.231,0,87.956,0s-2.543,1.301-2.543,2.548
	C85.413,3.796,86.619,4.945,87.894,4.945z M92.917,12.171c0-1.217,0-2.506,0-3.744c0-1.223,0.083-1.106,0-1.871
	c-0.319-0.936-0.956-1.248-1.594-1.248c-1.364,0-1.815,0-2.869,0c-1.281,0-1.902-0.004-3.178-0.004
	c-0.637,0-1.052-0.041-1.525,0.379c-0.645,0.716-0.581,0.778-0.581,2.775c0,0.987,0,2.708,0,3.809c0,0.986-0.17,2.519,0.839,2.519
	c0.957,0,0.948-0.668,0.948-1.663c0-1.407-0.003-1.772-0.003-2.602c0-0.908-0.053-1.063,0.133-1.063
	c0.188,0,0.186,0.013,0.186,0.978c0,0.894-0.006,13.485-0.006,14.213c0,0.624,0.34,1.292,1.3,1.292c0.957,0,1.357-0.548,1.357-1.172
	c0-1.124,0-6.018,0-6.55c0-0.624,0.021-0.927,0.179-0.927c0.161,0,0.14,0.303,0.14,0.927c0,0.562,0,5.397,0,6.55
	c0,0.388,0.42,1.231,1.377,1.231c0.638,0,1.224-0.802,1.224-1.218c0-2.495,0.014-13.599,0.014-14.384
	c0-0.425-0.037-0.966,0.126-0.966c0.162,0,0.16,0.147,0.16,0.761c0,0.703,0,1.415,0,2.402c0,1.641,0.26,2.071,0.898,2.071
	C92.998,14.666,92.917,13.064,92.917,12.171z"/>
<path fill="#9DAAF3" d="M104.894,4.945c1.275,0,2.574-1.178,2.574-2.426S106.231,0,104.956,0s-2.543,1.301-2.543,2.548
	C102.413,3.796,103.619,4.945,104.894,4.945z M109.917,12.171c0-1.217,0-2.506,0-3.744c0-1.223,0.083-1.106,0-1.871
	c-0.319-0.936-0.956-1.248-1.594-1.248c-1.364,0-1.815,0-2.869,0c-1.281,0-1.902-0.004-3.178-0.004
	c-0.637,0-1.052-0.041-1.525,0.379c-0.645,0.716-0.581,0.778-0.581,2.775c0,0.987,0,2.708,0,3.809c0,0.986-0.17,2.519,0.839,2.519
	c0.957,0,0.948-0.668,0.948-1.663c0-1.407-0.003-1.772-0.003-2.602c0-0.908-0.053-1.063,0.133-1.063
	c0.188,0,0.186,0.013,0.186,0.978c0,0.894-0.006,13.485-0.006,14.213c0,0.624,0.34,1.292,1.3,1.292c0.957,0,1.357-0.548,1.357-1.172
	c0-1.124,0-6.018,0-6.55c0-0.624,0.021-0.927,0.179-0.927c0.161,0,0.14,0.303,0.14,0.927c0,0.562,0,5.397,0,6.55
	c0,0.388,0.42,1.231,1.377,1.231c0.638,0,1.224-0.802,1.224-1.218c0-2.495,0.014-13.599,0.014-14.384
	c0-0.425-0.037-0.966,0.126-0.966c0.162,0,0.16,0.147,0.16,0.761c0,0.703,0,1.415,0,2.402c0,1.641,0.26,2.071,0.898,2.071
	C109.998,14.666,109.917,13.064,109.917,12.171z"/>
<path fill="#BCC5F4" d="M121.894,4.945c1.275,0,2.574-1.178,2.574-2.426S123.231,0,121.956,0s-2.543,1.301-2.543,2.548
	C119.413,3.796,120.619,4.945,121.894,4.945z M126.917,12.171c0-1.217,0-2.506,0-3.744c0-1.223,0.083-1.106,0-1.871
	c-0.319-0.936-0.956-1.248-1.594-1.248c-1.364,0-1.815,0-2.869,0c-1.281,0-1.902-0.004-3.178-0.004
	c-0.637,0-1.052-0.041-1.525,0.379c-0.645,0.716-0.581,0.778-0.581,2.775c0,0.987,0,2.708,0,3.809c0,0.986-0.17,2.519,0.839,2.519
	c0.957,0,0.948-0.668,0.948-1.663c0-1.407-0.003-1.772-0.003-2.602c0-0.908-0.053-1.063,0.133-1.063
	c0.188,0,0.186,0.013,0.186,0.978c0,0.894-0.006,13.485-0.006,14.213c0,0.624,0.34,1.292,1.3,1.292c0.957,0,1.357-0.548,1.357-1.172
	c0-1.124,0-6.018,0-6.55c0-0.624,0.021-0.927,0.179-0.927c0.161,0,0.14,0.303,0.14,0.927c0,0.562,0,5.397,0,6.55
	c0,0.388,0.42,1.231,1.377,1.231c0.638,0,1.224-0.802,1.224-1.218c0-2.495,0.014-13.599,0.014-14.384
	c0-0.425-0.037-0.966,0.126-0.966c0.162,0,0.16,0.147,0.16,0.761c0,0.703,0,1.415,0,2.402c0,1.641,0.26,2.071,0.898,2.071
	C126.998,14.666,126.917,13.064,126.917,12.171z"/>
<path fill="#DADEF5" d="M137.894,4.945c1.275,0,2.574-1.178,2.574-2.426S139.231,0,137.956,0c-1.275,0-2.543,1.301-2.543,2.548
	C135.413,3.796,136.619,4.945,137.894,4.945z M142.917,12.171c0-1.217,0-2.506,0-3.744c0-1.223,0.083-1.106,0-1.871
	c-0.319-0.936-0.956-1.248-1.594-1.248c-1.364,0-1.815,0-2.869,0c-1.281,0-1.902-0.004-3.178-0.004
	c-0.637,0-1.052-0.041-1.525,0.379c-0.645,0.716-0.581,0.778-0.581,2.775c0,0.987,0,2.708,0,3.809c0,0.986-0.17,2.519,0.839,2.519
	c0.957,0,0.948-0.668,0.948-1.663c0-1.407-0.003-1.772-0.003-2.602c0-0.908-0.053-1.063,0.133-1.063
	c0.188,0,0.186,0.013,0.186,0.978c0,0.894-0.006,13.485-0.006,14.213c0,0.624,0.34,1.292,1.3,1.292c0.957,0,1.357-0.548,1.357-1.172
	c0-1.124,0-6.018,0-6.55c0-0.624,0.021-0.927,0.179-0.927c0.161,0,0.14,0.303,0.14,0.927c0,0.562,0,5.397,0,6.55
	c0,0.388,0.42,1.231,1.377,1.231c0.638,0,1.224-0.802,1.224-1.218c0-2.495,0.014-13.599,0.014-14.384
	c0-0.425-0.037-0.966,0.126-0.966c0.162,0,0.16,0.147,0.16,0.761c0,0.703,0,1.415,0,2.402c0,1.641,0.26,2.071,0.898,2.071
	C142.998,14.666,142.917,13.064,142.917,12.171z"/>
<path fill="#EDEFF9" d="M154.894,4.945c1.275,0,2.574-1.178,2.574-2.426S156.231,0,154.956,0c-1.275,0-2.543,1.301-2.543,2.548
	C152.413,3.796,153.619,4.945,154.894,4.945z M159.917,12.171c0-1.217,0-2.506,0-3.744c0-1.223,0.083-1.106,0-1.871
	c-0.319-0.936-0.956-1.248-1.594-1.248c-1.364,0-1.815,0-2.869,0c-1.281,0-1.902-0.004-3.178-0.004
	c-0.637,0-1.052-0.041-1.525,0.379c-0.645,0.716-0.581,0.778-0.581,2.775c0,0.987,0,2.708,0,3.809c0,0.986-0.17,2.519,0.839,2.519
	c0.957,0,0.948-0.668,0.948-1.663c0-1.407-0.003-1.772-0.003-2.602c0-0.908-0.053-1.063,0.133-1.063
	c0.188,0,0.186,0.013,0.186,0.978c0,0.894-0.006,13.485-0.006,14.213c0,0.624,0.34,1.292,1.3,1.292c0.957,0,1.357-0.548,1.357-1.172
	c0-1.124,0-6.018,0-6.55c0-0.624,0.021-0.927,0.179-0.927c0.161,0,0.14,0.303,0.14,0.927c0,0.562,0,5.397,0,6.55
	c0,0.388,0.42,1.231,1.377,1.231c0.638,0,1.224-0.802,1.224-1.218c0-2.495,0.014-13.599,0.014-14.384
	c0-0.425-0.037-0.966,0.126-0.966c0.162,0,0.16,0.147,0.16,0.761c0,0.703,0,1.415,0,2.402c0,1.641,0.26,2.071,0.898,2.071
	C159.998,14.666,159.917,13.064,159.917,12.171z"/>
</svg>
