<?xml version="1.0" encoding="utf-8"?>
<!-- Generator: Adobe Illustrator 17.0.0, SVG Export Plug-In . SVG Version: 6.00 Build 0)  -->
<!DOCTYPE svg PUBLIC "-//W3C//DTD SVG 1.1//EN" "http://www.w3.org/Graphics/SVG/1.1/DTD/svg11.dtd">
<svg version="1.1" id="图层_1" xmlns:ev="http://www.w3.org/2001/xml-events"
	 xmlns="http://www.w3.org/2000/svg" xmlns:xlink="http://www.w3.org/1999/xlink" x="0px" y="0px" width="160px" height="160px"
	 viewBox="0 0 160 160" enable-background="new 0 0 160 160" xml:space="preserve">
<path fill="#70B4F3" d="M80,0c44.183,0,80,35.817,80,80s-35.817,80-80,80S0,124.183,0,80S35.817,0,80,0z"/>
<path fill="#EEEEEE" d="M44,77h72v49H44V77z"/>
<path opacity="0.2" enable-background="new    " d="M44,77h72v4H44V77z"/>
<path fill="#A3C3E1" d="M66,104V86h11v18H66z M52,86h11v18H52V86z"/>
<path fill="#BE772B" d="M50,42h9v19h-9V42z"/>
<path fill="#FEC24F" d="M78.875,35L130,77H30L78.875,35z"/>
</svg>
