<?xml version="1.0" encoding="utf-8"?>
<!-- Generator: Adobe Illustrator 16.0.0, SVG Export Plug-In . SVG Version: 6.00 Build 0)  -->
<!DOCTYPE svg PUBLIC "-//W3C//DTD SVG 1.1//EN" "http://www.w3.org/Graphics/SVG/1.1/DTD/svg11.dtd">
<svg version="1.1" id="Layer_1" xmlns="http://www.w3.org/2000/svg" xmlns:xlink="http://www.w3.org/1999/xlink" x="0px" y="0px"
	 width="41.992px" height="38.535px" viewBox="0 0 41.992 38.535" enable-background="new 0 0 41.992 38.535" xml:space="preserve">
<path fill="#A60512" d="M15.45,19.747c7.352-6.425,11.118-15.919,5.141-19.045c-5.295-2.77-9.225,3.551-9.225,3.551
	S4.913,0.543,1.558,5.49C-2.229,11.073,5.479,17.745,15.45,19.747z"/>
<path fill="#A60512" d="M15.343,19.725l-0.57,0.91c0.762,0.258,1.498-0.382,1.498-0.382l-0.713-0.599l-0.107,0.094L15.343,19.725z"
	/>
<path fill="#414042" d="M31.471,22c-0.119,0.217-0.301,0.332-0.521,0.34c-0.389,0.011-0.854-0.334-1.059-0.664
	c-0.223-0.353-0.285-0.764-0.346-1.162c-0.049-0.311-0.092-0.604-0.209-0.852l0.105-0.052c0.021,0.042,0.036,0.085,0.055,0.13
	l0.047-0.064c0.102,0.074,0.24,0.162,0.4,0.265c0.215,0.136,0.459,0.291,0.69,0.46C31.258,20.854,31.797,21.414,31.471,22z
	 M29.663,20.498c0.06,0.387,0.119,0.782,0.33,1.116c0.188,0.3,0.617,0.617,0.951,0.607c0.183-0.005,0.322-0.099,0.422-0.278
	c0.396-0.712-0.735-1.429-1.485-1.902c-0.14-0.09-0.263-0.168-0.361-0.236C29.592,20.02,29.627,20.254,29.663,20.498z
	 M18.616,20.943c-0.02,0.27-0.146,0.471-0.361,0.577c-0.385,0.19-1.006,0.058-1.361-0.173c-0.385-0.25-0.635-0.633-0.881-1
	c-0.189-0.288-0.367-0.561-0.602-0.754l0.082-0.1c0.041,0.031,0.078,0.066,0.115,0.104l0.018-0.086
	c0.137,0.027,0.314,0.051,0.521,0.078c0.275,0.037,0.592,0.08,0.898,0.143C17.875,19.898,18.672,20.207,18.616,20.943z
	 M16.123,20.276c0.236,0.356,0.479,0.726,0.842,0.96c0.326,0.213,0.898,0.332,1.23,0.168c0.174-0.088,0.273-0.247,0.289-0.471
	c0.066-0.893-1.391-1.085-2.355-1.214c-0.18-0.025-0.34-0.046-0.471-0.069C15.828,19.832,15.971,20.049,16.123,20.276z
	 M14.205,20.191c0.27-0.167,0.551-0.316,0.795-0.447c0.186-0.099,0.344-0.183,0.463-0.256l0.045,0.074
	c0.021-0.046,0.045-0.092,0.072-0.136l0.111,0.063c-0.15,0.264-0.223,0.581-0.301,0.917c-0.1,0.431-0.203,0.875-0.477,1.244
	c-0.252,0.343-0.787,0.683-1.213,0.64c-0.24-0.026-0.43-0.168-0.539-0.416C12.852,21.203,13.489,20.635,14.205,20.191z
	 M15.479,19.631c-0.115,0.068-0.254,0.143-0.416,0.229c-0.861,0.457-2.158,1.148-1.783,1.961c0.092,0.205,0.242,0.319,0.434,0.34
	c0.367,0.038,0.865-0.272,1.098-0.586c0.258-0.348,0.355-0.777,0.453-1.195C15.326,20.113,15.383,19.859,15.479,19.631z
	 M28.114,19.696c0.285-0.034,0.576-0.052,0.828-0.065c0.188-0.01,0.354-0.021,0.477-0.036l0.012,0.079
	c0.035-0.029,0.072-0.059,0.111-0.086l0.066,0.097c-0.224,0.159-0.404,0.396-0.599,0.644c-0.246,0.316-0.504,0.646-0.867,0.846
	c-0.34,0.187-0.914,0.264-1.248,0.063c-0.188-0.112-0.288-0.302-0.286-0.548C26.608,20.016,27.352,19.789,28.114,19.696z
	 M29.379,19.72c-0.121,0.012-0.265,0.021-0.433,0.03c-0.885,0.049-2.221,0.125-2.223,0.938c0,0.205,0.078,0.356,0.23,0.448
	c0.289,0.171,0.817,0.104,1.129-0.066c0.348-0.189,0.592-0.507,0.832-0.814C29.069,20.06,29.213,19.873,29.379,19.72z"/>
<path fill="#F21D2F" d="M29.415,19.895c8.528-2.503,15.265-8.915,11.519-13.778C37.609,1.805,31.95,5.53,31.95,5.53
	s-3.916-5.529-8.576-2.721C18.112,5.978,21.938,14.434,29.415,19.895z"/>
<path fill="#414042" d="M20.724,37.386c-0.637-0.044-1.428-0.644-1.498-1.35c-0.057-0.567,0.369-0.943,0.748-1.274
	c0.059-0.05,0.113-0.1,0.166-0.147l0.115-0.104c0.344-0.31,0.812-0.733,0.785-1.091c-0.012-0.137-0.094-0.254-0.256-0.357
	c-0.418-0.272-1.186-0.311-1.924-0.346c-0.467-0.023-0.908-0.044-1.238-0.125c-0.732-0.18-1.293-0.453-1.82-0.891
	c-0.764-0.629-1.232-1.244-1.037-2.196c0.166-0.804,0.898-1.188,1.605-1.56c0.305-0.162,0.594-0.313,0.842-0.498
	c0.271-0.205,0.422-0.445,0.457-0.732c0.1-0.777-0.678-1.74-1.305-2.514c-0.252-0.316-0.494-0.615-0.639-0.856
	c-0.42-0.7-0.336-0.987-0.131-1.684l0.01-0.04c0.172-0.598,0.018-0.987-0.199-1.523c-0.037-0.093-0.074-0.188-0.113-0.287
	l0.105-0.041c0.039,0.101,0.076,0.194,0.113,0.285c0.217,0.538,0.387,0.965,0.203,1.6l-0.012,0.039
	c-0.203,0.701-0.273,0.938,0.119,1.593c0.143,0.235,0.381,0.53,0.633,0.844c0.639,0.791,1.432,1.776,1.33,2.599
	c-0.041,0.315-0.209,0.588-0.504,0.809c-0.254,0.189-0.561,0.352-0.857,0.508c-0.686,0.359-1.391,0.73-1.545,1.482
	c-0.186,0.896,0.264,1.481,0.996,2.084c0.514,0.425,1.061,0.693,1.775,0.869c0.32,0.078,0.754,0.099,1.217,0.121
	c0.754,0.037,1.535,0.074,1.982,0.363c0.188,0.123,0.291,0.273,0.305,0.445c0.035,0.413-0.461,0.857-0.822,1.183l-0.113,0.103
	c-0.053,0.051-0.111,0.101-0.17,0.152c-0.375,0.327-0.76,0.668-0.711,1.176c0.064,0.652,0.803,1.207,1.395,1.25L20.724,37.386z
	 M27.04,36.484c-0.511-0.278-0.937-1.077-0.724-1.688c0.17-0.49,0.666-0.637,1.104-0.767c0.067-0.02,0.134-0.04,0.197-0.061
	l0.133-0.042c0.399-0.125,0.953-0.295,1.063-0.601c0.043-0.118,0.021-0.245-0.071-0.394c-0.242-0.386-0.861-0.707-1.461-1.021
	c-0.378-0.197-0.734-0.382-0.976-0.575c-0.537-0.429-0.896-0.87-1.166-1.432c-0.391-0.812-0.541-1.498-0.018-2.209
	c0.443-0.603,1.193-0.641,1.92-0.678c0.314-0.017,0.613-0.031,0.887-0.09c0.303-0.065,0.521-0.207,0.66-0.431
	c0.375-0.604,0.102-1.697-0.121-2.576c-0.09-0.356-0.174-0.696-0.203-0.95c-0.08-0.74,0.103-0.945,0.533-1.442l0.025-0.029
	c0.371-0.427,0.391-0.81,0.418-1.336c0.004-0.09,0.008-0.183,0.016-0.279l0.104,0.007c-0.008,0.097-0.012,0.188-0.016,0.277
	c-0.027,0.527-0.049,0.944-0.443,1.398L28.88,21.6c-0.438,0.502-0.584,0.67-0.51,1.362c0.026,0.248,0.108,0.583,0.2,0.938
	c0.226,0.896,0.507,2.014,0.105,2.654c-0.152,0.245-0.396,0.405-0.725,0.477c-0.281,0.06-0.598,0.076-0.902,0.093
	c-0.703,0.036-1.428,0.074-1.842,0.636c-0.496,0.67-0.348,1.325,0.027,2.104c0.262,0.546,0.611,0.977,1.137,1.395
	c0.232,0.187,0.586,0.37,0.959,0.564c0.609,0.317,1.24,0.647,1.498,1.057c0.111,0.175,0.139,0.337,0.084,0.484
	c-0.131,0.354-0.709,0.532-1.131,0.665l-0.135,0.041c-0.062,0.021-0.127,0.041-0.195,0.061c-0.436,0.128-0.885,0.262-1.039,0.701
	c-0.193,0.564,0.203,1.304,0.678,1.562L27.04,36.484z"/>
<path fill="#F21D2F" d="M29.333,19.835l-0.817,0.534c0.53,0.504,1.385,0.256,1.385,0.256l-0.361-0.768l-0.123,0.037L29.333,19.835z"
	/>
</svg>
