<?xml version="1.0" encoding="utf-8"?>
<!-- Generator: Adobe Illustrator 17.0.0, SVG Export Plug-In . SVG Version: 6.00 Build 0)  -->
<!DOCTYPE svg PUBLIC "-//W3C//DTD SVG 1.1//EN" "http://www.w3.org/Graphics/SVG/1.1/DTD/svg11.dtd">
<svg version="1.1" id="图层_1" xmlns:ev="http://www.w3.org/2001/xml-events"
	 xmlns="http://www.w3.org/2000/svg" xmlns:xlink="http://www.w3.org/1999/xlink" x="0px" y="0px" width="401px" height="94px"
	 viewBox="0 0 401 94" enable-background="new 0 0 401 94" xml:space="preserve">
<path fill="#FF5246" d="M372,77v15l-33-3V78h13l1-3l-29-1v-8h29l5-6l-27,1V51h61l-16,14h25v15L372,77z M384,47l-9-18h-3v19h-19
	l-2-20l-2,1l-8,19l-17-1l8-18l-1-1l-8,3V20l29,1v-5l-24,1v-7l68-10v17l-24-1l-1,4h29l-1,10l-7-1l9,19L384,47z M296,75l-2,12h-16
	l11-30V36h1l16,1l1,18l15,34l-20-3L296,75z M316,36l-13-1l-1-14h-6l-2,14l-17,1l4-27l17-1l-1,6l22-4L316,36z M262,87
	c-0.25-0.125-3-9-3-9l-3,9h-14l9-31l-8-31l12,1l3,7l3-13l-18,1v-7l31-6l1,17l-10,31l10,31C275,87,262.25,87.125,262,87z M239,76
	l-1,10h-44V75h12l1-20h-12l-1-11h13V21h-12v-9h42l1,10h-12v22l12,1v11l-12-1v20L239,76z M187,27l3,3v57h-24l1-11l6-1V63l-11,11
	l-1-15l12-10V37l-12,11V34l8-7l-8-20l18,2l5,7l8-5l-1,14L187,27z M140,86l-8-37l-3-1l2,39l-24,3l3-42h-4L96,86
	c0,0-17.375,2.375-17,2s9-39,9-39h-6V37h27v-6H81l-1-15l30,1l-1-9l20,3v9l28,2v10l-28-1l-1,6l28,1v11l-6-1l7,36L140,86z M52,87
	l-36,7V77l18-1l2-2H22l-9-13H0l15-24H4L3,8l20,3v13h5V7l20,4v13h7V11l19,2l-2,21l-38,3l-2,4l45-4L52,87z M26,50l-6,9h11l7,11l14-20
	H26z"/>
</svg>
