<?xml version="1.0" encoding="utf-8"?>
<!-- Generator: Adobe Illustrator 16.0.0, SVG Export Plug-In . SVG Version: 6.00 Build 0)  -->
<!DOCTYPE svg PUBLIC "-//W3C//DTD SVG 1.1//EN" "http://www.w3.org/Graphics/SVG/1.1/DTD/svg11.dtd">
<svg version="1.1" id="Layer_1" xmlns="http://www.w3.org/2000/svg" xmlns:xlink="http://www.w3.org/1999/xlink" x="0px" y="0px"
	 width="160.084px" height="172.449px" viewBox="0 0 160.084 172.449" enable-background="new 0 0 160.084 172.449"
	 xml:space="preserve">
<path fill="#95441C" d="M105.832,159.581c3.977,6.944-11.122,12.686-15.786,12.858c-7.862,0.293-22.95-6.525-23.782-16.394
	c-0.643-7.625,3.646-15.872,13.456-20.323c5.667-2.572,22.513-1.366,22.77,5.404c0.164,4.373-6.476,5.152-2.713,9.72
	C102.304,153.911,103.411,155.357,105.832,159.581z"/>
<path fill="#903A17" d="M36.229,143.553c-0.049-4.825,0.159-13.059,4.172-15.205c4.47-2.388,11.095,5.37,14.117,8.722
	c7.295,8.087,6.924,37.38-6.311,33.461C39.813,168.047,36.338,154.158,36.229,143.553z M39.896,119.601
	c12.144,5.49,13.5-5.487,19.674-13.746c-3.468-3.88-7.629-6.574-11.879-9.511c-5.742-3.968-16.705-18.76-24.328-15.585
	c-6.575,2.742-7.446,11.814-1.226,15.051c-1.927,2.497-2.81,3.665-2.177,6.743C21.669,110.881,33.046,116.505,39.896,119.601z
	 M136.336,97.52c-3.268,2.745-5.232,11.967-10.604,5.96c-9.962-11.139,8.712-21.501,20.504-17.876
	c13.369,4.107,16.33,20.884,11.987,31.745c-4.012,10.031-10.973,16.752-20.404,20.968c-13.115,5.864-28.569,1.435-40.988-4.731
	c0.673-2.804,1.464-5.646,2.202-8.461c16.646,4.606,41.787,10.209,50.645-9.964C153.565,106.309,148.654,87.176,136.336,97.52z
	 M115.074,118.367c0.389,3.607-0.07,18.854-8.779,18.58c10.664,0.952,6.975,8.926-0.735,12.225
	c-6.232,2.663-14.666,0.64-16.56-6.998c-1.777-7.171,5.011-12.554,4.958-19.588c-0.053-7.153-4.83-19.237,5.31-21.067
	C106.627,100.189,114.27,110.881,115.074,118.367z"/>
<path fill="#9F5529" d="M17.874,21.382c2.778,0.524,5.224,1.776,7.202,3.5C36.988,7.282,59.338-2.868,83.007,0.716
	c23.238,3.519,41.347,19.304,47.837,39.123c1.85-0.517,3.832-0.696,5.866-0.465c8.296,0.949,14.269,8.324,13.336,16.479
	c-0.93,8.153-8.413,13.993-16.71,13.043c-0.503-0.058-0.998-0.14-1.482-0.245c-6.872,27.203-34.993,45.072-65.262,40.49
	c-30.396-4.603-52.016-30.189-50.328-58.343c-1.278,0.086-2.587,0.031-3.906-0.217C4.15,49.031-1.269,41.237,0.257,33.173
	C1.78,25.111,9.667,19.832,17.874,21.382z"/>
<path fill="#AD672E" d="M69.493,151.833c-13.449-0.849-25.667-9.7-30.404-22.024c-2.071-5.384-1.684-11.642,1.061-17.167
	c2.803-5.639,7.64-9.81,13.271-11.44c4.799-1.388,9.576-2.092,14.197-2.092c10.912,0,20.837,3.811,29.504,11.325
	c7.79,6.758,6.812,19.151,4.598,31.539c-1.326,7.398-15.381,10.024-27.016,10.024C72.949,151.997,71.196,151.941,69.493,151.833z
	 M76.06,103.84c23.964,0,44.507-15.076,49.96-36.661c0.688-2.718,3.13-4.545,5.828-4.545c0.418,0,0.84,0.043,1.264,0.136
	c0.311,0.066,0.616,0.116,0.907,0.15c0.358,0.042,0.724,0.062,1.083,0.062c4.604,0,8.459-3.357,8.967-7.812
	c0.266-2.327-0.411-4.626-1.906-6.474c-1.52-1.878-3.699-3.065-6.136-3.344c-0.356-0.04-0.715-0.061-1.068-0.061
	c-0.843,0-1.682,0.115-2.498,0.343c-0.54,0.15-1.083,0.223-1.618,0.223c-2.54,0-4.889-1.621-5.716-4.147
	c-5.972-18.235-22.857-31.994-43.019-35.045c-2.84-0.431-5.722-0.649-8.563-0.649c-17.803,0-34.059,8.314-43.486,22.238
	c-0.965,1.428-2.497,2.372-4.206,2.595c-0.258,0.032-0.519,0.049-0.775,0.049c-1.445,0-2.852-0.521-3.955-1.48
	c-1.244-1.086-2.753-1.82-4.362-2.125c-0.583-0.109-1.174-0.166-1.757-0.166c-4.335,0-8.049,3.011-8.833,7.162
	c-0.435,2.3,0.074,4.643,1.431,6.594c1.379,1.985,3.467,3.329,5.876,3.784c0.531,0.1,1.094,0.151,1.668,0.151
	c0.24,0,0.477-0.008,0.712-0.024c0.136-0.009,0.274-0.013,0.41-0.013c1.581,0,3.106,0.623,4.236,1.745
	c1.228,1.218,1.872,2.905,1.768,4.631c-1.506,25.11,18.358,47.967,45.224,52.035C70.334,103.622,73.215,103.84,76.06,103.84z"/>
<path fill="#F9C385" d="M18.067,67.776c2.102-6.325,6.354-11.591,12.979-13.082c-1.012-5.475-1.235-11.065,0.846-16.346
	c9.526-24.183,40.581-18.01,43.353,6.539c3.127-4.834,5.522-9.548,10.463-12.395c22.341-12.863,44.373,11.76,29.56,32.967
	c3.091,5.022,5.793,10.482,5.589,16.641c-0.126,3.762-0.896,7.106-2.178,10.079c-12.612,13.062-31.869,20.021-52.088,16.961
	C42.482,105.489,23.889,88.64,18.067,67.776z M38.164,107.074c-0.685,0.095-1.34,0.222-1.98,0.36
	c-4.477,7.151-5.901,16.233-2.71,24.535c5.458,14.19,19.038,24.136,34.003,25.706c1.594-5.524,1.549-12.585,1.727-16.919
	c0.354-8.521-1.951-17.333-7.276-24.193C56.201,109.178,47.482,105.773,38.164,107.074z M5.336,34.524
	c-1.132,5.806,3.184,11.533,9.638,12.792c6.454,1.257,1.621-3.151,2.754-8.954c1.13-5.807,7.798-10.812,1.345-12.071
	C12.619,25.032,6.468,28.717,5.336,34.524z M135.605,43.1c-6.532-0.746-1.637,4.166-2.309,10.042
	c-0.671,5.877-6.654,10.494-0.122,11.241c6.532,0.746,12.375-3.413,13.045-9.29C146.893,49.216,142.141,43.847,135.605,43.1z"/>
<path fill="#EF8BA7" d="M69.069,78.567c0.489,13.312-7.587,9.943-7.587,9.943c-12.305-6.156-0.382-14.011-0.382-14.011
	C61.046,74.849,69.069,78.567,69.069,78.567z"/>
<path fill="#6A3906" d="M98.597,53.919c-3.49-0.689-7.047,3.279-7.083,3.319l-0.795-0.703c0.162-0.182,3.992-4.453,8.079-3.658
	c2.512,0.489,4.502,2.771,5.917,6.782l-1.002,0.353C102.434,56.383,100.712,54.332,98.597,53.919z M46.018,49.321
	c-0.528,3.476,0.857,6.569,3.095,6.908c2.234,0.338,4.473-2.207,5-5.683c0.525-3.477-0.86-6.57-3.096-6.909
	C48.783,43.3,46.543,45.844,46.018,49.321z M67.788,60.476c-0.411,2.309,2.415,4.74,6.311,5.434
	c3.894,0.692,7.387-0.618,7.796-2.926c0.411-2.308-2.415-4.741-6.31-5.434C71.69,56.858,68.199,58.168,67.788,60.476z M79.95,80.831
	c2.384,0,4.679-0.385,6.783-1.279l-0.415-0.978c-9.664,4.106-24.854-3.499-32.705-9.612l-0.652,0.837
	C58.547,74.149,70.018,80.831,79.95,80.831z M62.422,83.568l1.061-0.051c-0.093-1.984,1.357-5.905,2.056-6.843l-0.851-0.634
	C63.876,77.129,62.316,81.301,62.422,83.568z"/>
</svg>
