<?xml version="1.0" encoding="utf-8"?>
<!-- Generator: Adobe Illustrator 17.0.0, SVG Export Plug-In . SVG Version: 6.00 Build 0)  -->
<!DOCTYPE svg PUBLIC "-//W3C//DTD SVG 1.1//EN" "http://www.w3.org/Graphics/SVG/1.1/DTD/svg11.dtd">
<svg version="1.1" id="OBJECTS" xmlns="http://www.w3.org/2000/svg" xmlns:xlink="http://www.w3.org/1999/xlink" x="0px" y="0px"
	 width="204.79px" height="114.805px" viewBox="0 0 204.79 114.805" enable-background="new 0 0 204.79 114.805"
	 xml:space="preserve">
<g>
	<path fill="#2E1B12" d="M65.5,77.685c2.975,5.603,3.543,12.177,5.458,18.225c1.683,5.315,1.614,11.003,1.529,16.577
		c0.176,2.317,4.869,2.043,7.475,2.274c2.605,0.231,5.428-0.458,7.171-2.408c2.13-2.383,2.157-5.919,2.066-9.114
		c-0.106-3.747-0.213-7.493-0.319-11.24c-0.046-1.627-0.134-3.377-1.134-4.662c-0.573-0.736-1.387-1.237-2.183-1.722
		c-5.789-3.526-3.883-11.609-9.705-15.081C70.847,67.546,61.392,70.1,65.5,77.685z"/>
	<path fill="#2E1B12" d="M164.75,79.513c-0.239,1.627,0.302,3.28,1.103,4.716c1.876,3.365,5.129,5.781,8.618,7.414
		c0.979,0.458,2.029,0.898,2.687,1.755c1.269,1.652,0.564,4.017-0.191,5.958c-0.931,2.392-1.861,4.784-2.792,7.177
		c-0.964,2.477,2.204,4.52,4.693,5.451s5.233,0.817,7.885,0.643c1.12-0.074,2.313-0.182,3.2-0.871
		c1.114-0.865,1.433-2.384,1.676-3.773c0.924-5.273,1.849-10.546,2.773-15.819c0.146-0.834,0.291-1.702,0.059-2.516
		c-0.261-0.919-0.961-1.633-1.542-2.391c-2.828-3.687-3.012-8.69-3.079-13.336C181.627,74.804,172.956,78.567,164.75,79.513z"/>
	<path fill="#6D482B" d="M202.544,38.58c-3.731-6.143-12.327-5.617-12.539-2.696c0.475,1.903,8.632,1.64,8.098,11.913
		c-0.246,4.734-2.576,9.185-5.993,12.48c-2.776-0.886-4.92-1.274-7.833-1.022c-33.637,2.905-67.791-0.282-100.309-9.361
		c-2.955-0.825-7.802-2.701-9.671-0.269c-1.682,2.19-3.365,4.379-5.047,6.569c-5.016,6.529-7.614,13.545-3.75,21.49
		c1.099,2.26,2.587,4.389,4.346,6.303c2.348,3.842,4.759,7.648,6.112,11.922c1.683,5.315,1.614,11.003,1.529,16.578
		c0.176,2.317,4.869,2.043,7.475,2.274c2.605,0.231,5.428-0.458,7.171-2.409c2.13-2.383,2.157-5.919,2.066-9.114
		c-0.102-3.609-0.205-7.218-0.307-10.826c25.993-1.482,51.569-8.153,77.555-7.239c1.925,2.874,4.873,4.995,8.024,6.47
		c0.979,0.458,2.029,0.898,2.687,1.755c1.269,1.652,0.564,4.017-0.191,5.958c-0.93,2.392-1.861,4.784-2.792,7.177
		c-0.964,2.477,2.204,4.52,4.693,5.451s5.233,0.817,7.885,0.643c1.12-0.074,2.313-0.182,3.2-0.871
		c1.114-0.865,1.433-2.384,1.676-3.773c0.924-5.273,1.849-10.546,2.773-15.819c0.146-0.834,0.291-1.702,0.059-2.516
		c-0.261-0.919-0.961-1.633-1.542-2.391c-1.316-1.715-2.055-3.717-2.481-5.834c0.808-0.862,1.471-1.848,1.916-2.968
		c1.634-4.111,3.047-8.574,1.353-12.661c-0.174-0.419-0.393-0.81-0.632-1.189c3.148-3.196,5.134-7.623,6.119-12.069
		C205.236,47.831,205.046,42.699,202.544,38.58z"/>
	<g>
		<path fill="#6D482B" d="M83.984,25.09c-1.057-5.835-5.921-10.419-11.404-12.677S61.029,9.851,55.1,9.769
			C42.229,9.591,22.192,7.558,10.459,3.39C9.39,3.011,8.176,3.284,7.073,3.547c-2.44,0.581-4.295,2.637-5.381,4.898
			c-2.352,4.896-1.655,10.864,0.81,15.705s6.506,8.699,10.817,12.003c12.933,9.911,29.303,15.634,45.562,14.568
			c6.122-0.401,11.668-3.96,15.571-8.694c1.586-1.923,2.82-4.107,3.976-6.315C80.285,32.163,84.698,29.032,83.984,25.09z"/>
		<g>
			<defs>
				<path id="SVGID_5_" d="M83.984,25.09c-1.057-5.835-5.921-10.419-11.404-12.677S61.029,9.851,55.1,9.769
					C42.229,9.591,22.192,7.558,10.459,3.39C9.39,3.011,8.176,3.284,7.073,3.547c-2.44,0.581-4.295,2.637-5.381,4.898
					c-2.352,4.896-1.655,10.864,0.81,15.705s6.506,8.699,10.817,12.003c12.933,9.911,29.303,15.634,45.562,14.568
					c6.122-0.401,11.668-3.96,15.571-8.694c1.586-1.923,2.82-4.107,3.976-6.315C80.285,32.163,84.698,29.032,83.984,25.09z"/>
			</defs>
			<clipPath id="SVGID_2_">
				<use xlink:href="#SVGID_5_"  overflow="visible"/>
			</clipPath>
			<path clip-path="url(#SVGID_2_)" fill="#1A1A1A" d="M0.172,5.187C-0.505,6.79,0.925,8.66,2.616,9.069
				c1.691,0.409,3.449-0.212,5.043-0.909c2.806-1.227,5.495-2.723,8.018-4.46c0.512-0.352,1.071-0.817,1.058-1.438
				c-0.013-0.598-0.557-1.037-1.083-1.321c-2.458-1.325-5.508-1.137-8.121-0.151S2.649,3.479,0.419,5.159"/>
		</g>
		<path fill="#1A1A1A" d="M57.62,17.533c-1.863,0.146-2.737,0.445-4.034,1.255c-0.379,0.237-0.306,1.588,1.49,1.552
			c1.459-0.03,5.305-1.506,4.982-2.331C59.912,17.506,59.379,17.395,57.62,17.533z"/>
		<path fill="#2E1B12" d="M52.334,48.218c-1.065,1.88-2.181,3.793-2.547,5.922c-0.641,3.724,1.189,7.562,3.972,10.119
			c2.783,2.557,6.4,4.012,10.031,5.057c6.944,1.999,15.236,2.394,20.583-2.467c3.027-2.752,4.605-6.813,5.122-10.87
			s0.074-8.169-0.37-12.236c-0.271-2.488-0.543-4.976-0.814-7.465c-0.441-4.044-0.94-8.257-3.166-11.663
			c-4.712-7.212-15.969-7.848-21.298-0.944C58.795,30.218,56.513,40.842,52.334,48.218z"/>
	</g>
</g>
</svg>
