<?xml version="1.0" encoding="utf-8"?>
<!-- Generator: Adobe Illustrator 17.0.0, SVG Export Plug-In . SVG Version: 6.00 Build 0)  -->
<!DOCTYPE svg PUBLIC "-//W3C//DTD SVG 1.1//EN" "http://www.w3.org/Graphics/SVG/1.1/DTD/svg11.dtd">
<svg version="1.1" id="图层_1" xmlns="http://www.w3.org/2000/svg" xmlns:xlink="http://www.w3.org/1999/xlink" x="0px" y="0px"
	 width="32.031px" height="33.406px" viewBox="0 0 32.031 33.406" enable-background="new 0 0 32.031 33.406" xml:space="preserve">
<path fill="#45A7FF" d="M30.185,1.421c-2.86,1.539-5.738,3.044-8.612,4.558c-1.617,0.851-3.242,1.687-4.855,2.544
	c-0.98,0.522-1.96,1.048-2.909,1.622c-0.379,0.229-0.744,0.546-0.984,0.907c-0.191,0.286-0.253,0.7-0.247,1.055
	c0.013,0.776,0.162,1.551,0.155,2.326c-0.026,2.547-1.524,4.047-4.045,4.406c-1.159,0.164-2.308,0.159-3.467,0.009
	c-0.196-0.026-0.475,0.069-0.618,0.205c-0.844,0.806-1.663,1.636-2.483,2.466c-0.416,0.421-0.806,0.867-1.223,1.286
	C0.628,23.076,0.418,23,0.217,22.684c-0.328-0.515-0.184-1.046-0.094-1.567c0.231-1.344,0.409-2.704,0.757-4.02
	c0.509-1.928,1.406-3.684,2.712-5.247c1.211-1.449,2.761-2.444,4.42-3.279c2.399-1.205,4.823-2.37,7.274-3.471
	c3.492-1.568,7.074-2.926,10.751-4.029c1.762-0.528,3.533-1.03,5.396-1.079c0.181-0.005,0.363,0.044,0.61,0.077
	C31.568,0.869,30.819,1.08,30.185,1.421z M5.074,22.02c1.465-1.074,3.055-1.927,4.815-2.453c1.778-0.531,3.534-0.372,5.276,0.184
	c2.659,0.85,5.282,1.792,7.8,2.986c1.582,0.75,3.164,1.507,4.687,2.36c0.879,0.492,1.641,1.182,2.453,1.787
	c0.029,0.021,0.027,0.083,0.083,0.283c-0.634-0.165-1.195-0.291-1.742-0.458c-3.69-1.124-7.374-2.264-11.067-3.376
	c-0.403-0.121-0.853-0.152-1.276-0.129c-0.262,0.014-0.556,0.158-0.765,0.328c-0.626,0.508-1.17,1.12-1.83,1.576
	c-1.338,0.926-2.701,0.777-3.851-0.359c-0.419-0.415-0.779-0.886-1.169-1.328c-0.075-0.084-0.165-0.213-0.255-0.218
	c-0.501-0.031-1.004-0.038-1.507-0.037c-0.78,0.001-1.561,0.019-2.342,0.021c-0.082,0-0.164-0.057-0.262-0.093
	C4.178,22.496,4.693,22.299,5.074,22.02z M8.827,26.464c1.934,1.872,3.71,3.869,5.213,6.089c0.151,0.223,0.283,0.458,0.42,0.689
	c0.02,0.034,0.018,0.08,0.027,0.12c-0.028,0.017-0.055,0.034-0.083,0.05c-1.525-1.499-3.05-2.998-4.576-4.496
	c-0.555-0.546-0.73-0.594-1.41-0.267c-1.016,0.489-1.612,0.057-2-0.681c-0.104-0.199-0.226-0.399-0.273-0.613
	c-0.128-0.582-0.507-0.919-1.042-1.145c-0.307-0.129-0.599-0.294-0.953-0.47c0.113-0.086,0.18-0.171,0.266-0.196
	C6.058,25.059,7.548,25.227,8.827,26.464z"/>
</svg>
