<?xml version="1.0" encoding="utf-8"?>
<!-- Generator: Adobe Illustrator 17.0.0, SVG Export Plug-In . SVG Version: 6.00 Build 0)  -->
<!DOCTYPE svg PUBLIC "-//W3C//DTD SVG 1.1//EN" "http://www.w3.org/Graphics/SVG/1.1/DTD/svg11.dtd">
<svg version="1.1" id="图层_2" xmlns="http://www.w3.org/2000/svg" xmlns:xlink="http://www.w3.org/1999/xlink" x="0px" y="0px"
	 width="175.869px" height="83.95px" viewBox="0 0 175.869 83.95" enable-background="new 0 0 175.869 83.95" xml:space="preserve">
<g id="Scissors">
	<g>
		<g>
			<path fill="#D0D0D0" d="M108.286,37.086c0,0,58.835,1.98,62.752,1.98c4.831,0,4.831,6.017,4.831,6.017l-67.583,7.292"/>
			<path opacity="0.2" fill="#FFFFFF" enable-background="new    " d="M175.866,45.08l-0.08,0.01c-0.24-1.7-1.16-5.02-4.75-5.02
				c-2.74,0-32.3-0.971-49.85-1.551h-0.01c-1.6-0.06-3.11-0.1-4.48-0.149c-0.99-0.03-1.91-0.061-2.75-0.09
				c-3.51-0.12-5.66-0.191-5.66-0.191v-1c0,0,1.65,0.05,4.41,0.141h0.01c0.83,0.029,1.76,0.069,2.78,0.1
				c15.82,0.53,52.48,1.74,55.55,1.74C175.866,39.07,175.866,45.08,175.866,45.08z"/>
		</g>
		<g>
			<path fill="#D0D0D0" d="M175.506,44.38c0,0,0,0.29-0.05,0.75c-0.03,0.28-0.09,0.63-0.17,1.01c-0.4,1.771-1.51,4.25-4.61,4.25
				c-2.69,0-31.16,0.931-48.82,1.521c-1.89,0.059-3.66,0.12-5.26,0.18c-0.99,0.03-1.91,0.061-2.75,0.09
				c-2.66,0.09-4.57,0.16-5.43,0.19c-0.33,0-0.5,0.01-0.5,0.01v-15.29l0.37,0.04l4.98,0.54l3.04,0.32l4.87,0.529L175.506,44.38z"/>
			<path opacity="0.1" enable-background="new    " d="M175.456,45.13c-0.03,0.28-0.09,0.63-0.17,1.01l-53.43,5.771
				c-6.72,0.229-11.87,0.399-13.44,0.46L175.456,45.13z"/>
		</g>
		<path fill="#E95E57" d="M109.346,35.63c-0.01,0-0.01,0-0.01,0c-2.03-0.96-4.65-1.95-8.04-2.95c-0.49-0.14-0.99-0.29-1.51-0.43
			C72.156,24.62,60.536,0,40.156,0c-17.24,0-25.74,13.12-25.74,19c0,12,15.24,18.12,23.37,18.12s16.75-0.5,19.63-0.12
			c0.8,0.11,1.97,0.38,3.75,0.94c1.84,0.56,4.33,1.43,7.74,2.699c0,0,0,0,0.01,0c5.23,1.94,12.62,4.851,23.12,9.11
			c24,9.75,24-3.29,24-5.29C116.036,42.9,117.466,39.49,109.346,35.63z M40.726,30.45c-9.2,0.84-17.13-3.82-17.73-10.391
			c-0.59-6.569,6.38-12.569,15.58-13.399c9.19-0.84,17.13,3.809,17.73,10.38C56.896,23.62,49.926,29.62,40.726,30.45z"/>
		<path fill="#F35F58" d="M105.286,35.12c-6.25,0.38-15.37,3.5-27,4.76c-11.63,1.24-28.5,1.12-34.75,1.37s-41.19,3.073-43.5,21.63
			c-0.81,6.505,11.986,22.249,38,21c26.001-1.248,36-10.38,44.62-20.26c6.81-7.79,16.76-8.884,23.88-8.87
			c8.034,0.016,10.749-6.249,10.25-11C116.316,39.274,111.536,34.75,105.286,35.12z M10.966,68.91c-0.78-0.63-1.45-1.391-1.97-2.26
			c-0.01-0.011-0.01-0.021-0.02-0.04c-0.06-0.101-0.13-0.19-0.18-0.29c-0.2-0.351-0.36-0.69-0.45-1c-0.36-0.94-0.56-1.95-0.56-3.011
			c0-4.579,3.65-8.3,8.2-8.42c0.14-0.01,0.28-0.01,0.43-0.01c0.1,0,0.2,0,0.29,0.01c0.48,0.03,0.95,0.11,1.41,0.21
			c3.3,0.36,10.36,1.08,16.8,1.24c0.91,0.03,1.81,0.04,2.69,0.04c0.51,0,1.03-0.01,1.56-0.02c8.36-0.221,17.6-1.841,21.89-2.011
			c0.31-0.01,0.6-0.02,0.86-0.02c0.08,0,0.16,0,0.24,0.01c4.46,0.23,8,3.92,8,8.43c0,2.851-1.41,5.36-3.58,6.891
			c-0.23,0.18-11.92,9.25-26.84,9.809c-0.42,0.021-0.84,0.03-1.26,0.03c-0.38,0-0.76-0.01-1.13-0.01
			C25.616,78.23,15.606,73.23,10.966,68.91z"/>
		<path opacity="0.1" enable-background="new    " d="M57.826,16.91c-0.71-8-10.18-13.66-21.14-12.641
			c-10.97,1.02-19.28,8.32-18.58,16.32c0.72,8,10.17,13.68,21.14,12.66C50.226,32.23,58.536,24.929,57.826,16.91z M40.726,30.45
			c-9.2,0.84-17.13-3.82-17.73-10.391c-0.59-6.569,6.38-12.569,15.58-13.399c9.19-0.84,17.13,3.809,17.73,10.38
			C56.896,23.62,49.926,29.62,40.726,30.45z"/>
		<path opacity="0.1" enable-background="new    " d="M62.846,50.65c-1.91,0-4.81,0.35-8.48,0.779c-5.14,0.61-11.54,1.37-17.26,1.37
			c-6.56,0-14.53-0.71-20.09-1.319c-0.79-0.171-1.58-0.25-2.35-0.25c-6.1,0-11.06,4.89-11.06,10.909c0,1.311,0.24,2.591,0.71,3.83
			c0.13,0.42,0.34,0.87,0.62,1.37c0.05,0.09,0.1,0.17,0.16,0.271l0.08,0.199l0.13,0.141c0.64,1.01,1.45,1.91,2.4,2.68
			c5.74,5.26,17.32,10.55,30.32,10.55c16.73,0,30.25-9.98,31.21-10.71c2.92-2.05,4.65-5.37,4.65-8.89
			C73.886,55.55,68.936,50.65,62.846,50.65z M38.476,78.5c-0.38,0-0.76-0.01-1.13-0.01c-11.65-0.311-21.58-5.28-26.19-9.58
			c-0.78-0.63-1.45-1.391-1.97-2.26c-0.01-0.011-0.01-0.021-0.02-0.04c-0.06-0.101-0.13-0.19-0.18-0.29c-0.2-0.351-0.36-0.69-0.45-1
			c-0.36-0.94-0.56-1.95-0.56-3.011c0-4.51,3.55-8.189,8.01-8.42c0.14-0.01,0.28-0.01,0.43-0.01c0.1,0,0.2,0,0.29,0.01
			c0.48,0.03,0.95,0.11,1.41,0.21c3.3,0.36,10.36,1.08,16.8,1.24c0.91,0.03,1.81,0.04,2.69,0.04c0.51,0,1.03-0.01,1.56-0.02
			c8.28-0.19,17.48-1.801,21.89-2.011c0.31-0.01,0.6-0.02,0.86-0.02c0.08,0,0.16,0,0.24,0.01c4.46,0.23,8,3.92,8,8.43
			c0,2.851-1.41,5.36-3.58,6.891c-0.23,0.18-11.92,9.25-26.84,9.809C39.316,78.49,38.896,78.5,38.476,78.5z"/>
		<path fill="#FF794D" d="M18.306,54.099c3.26,0.36,10.22,1.07,16.61,1.24c-6.44-0.16-13.5-0.88-16.8-1.24
			c-0.46-0.1-0.93-0.18-1.41-0.21C17.256,53.91,17.786,53.98,18.306,54.099z"/>
		<path fill="#FF794D" d="M70.346,61.769c0,2.851-1.41,5.36-3.58,6.891c-0.23,0.18-12.02,9.32-27.03,9.809
			c14.92-0.559,26.61-9.63,26.84-9.809c2.17-1.53,3.58-4.04,3.58-6.891c0-4.51-3.54-8.199-8-8.43
			C66.706,53.46,70.346,57.19,70.346,61.769z"/>
		<path opacity="0.1" enable-background="new    " d="M101.296,32.679c-5.91,1.03-13.65,3.25-23.01,4.261
			c-5.14,0.55-11.31,0.829-17.12,1c1.84,0.56,4.33,1.43,7.74,2.699c0,0,0,0,0.01,0c3.28-0.17,6.49-0.39,9.37-0.699
			c11.63-1.261,20.75-4.381,27-4.761c1.42-0.08,2.78,0.08,4.05,0.45C107.306,34.67,104.686,33.679,101.296,32.679z"/>
		<g>
			<path fill="#FF7262" d="M18.065,20.765c0.405,2.242,1.431,4.29,2.886,5.945c1.459,1.653,3.265,2.98,5.241,3.969
				c1.969,1.012,4.107,1.684,6.292,2.14c1.094,0.23,2.208,0.378,3.329,0.465c1.122,0.122,2.252,0.13,3.392,0.142
				c-1.12,0.215-2.261,0.305-3.407,0.349c-1.146,0.012-2.296-0.052-3.439-0.196c-2.288-0.289-4.538-0.964-6.618-2.007
				c-2.064-1.06-3.98-2.502-5.385-4.378c-0.701-0.934-1.278-1.96-1.687-3.046C18.291,23.052,18.057,21.907,18.065,20.765z"/>
		</g>
		<g>
			<path fill="#FF7262" d="M7.647,70.536c2.158,1.682,4.484,3.092,6.901,4.311c2.424,1.203,4.922,2.252,7.489,3.101
				c2.561,0.87,5.186,1.538,7.842,2.076c1.328,0.273,2.67,0.479,4.02,0.642c1.347,0.196,2.705,0.305,4.069,0.421
				c-2.732,0.2-5.49,0.07-8.215-0.304c-2.729-0.366-5.417-1.021-8.033-1.888c-2.608-0.889-5.152-1.985-7.535-3.374
				c-1.189-0.695-2.348-1.441-3.456-2.257C9.639,72.424,8.582,71.535,7.647,70.536z"/>
		</g>
		<g>
			<circle opacity="0.1" enable-background="new    " cx="107.916" cy="45.556" r="4.476"/>
			<circle fill="#FF7D6A" cx="107.916" cy="44.616" r="4.476"/>
			<path opacity="0.1" fill="#FFFFFF" enable-background="new    " d="M111.621,44.34c0,0.11,0,0.21-0.02,0.32
				c-0.15-1.891-1.74-3.391-3.68-3.391c-1.95,0-3.54,1.5-3.69,3.391c-0.02-0.11-0.02-0.21-0.02-0.32c0-2.05,1.66-3.7,3.71-3.7
				C109.961,40.639,111.621,42.29,111.621,44.34z"/>
		</g>
		<path opacity="0.1" enable-background="new    " d="M116.596,52.09c-0.99,0.03-1.91,0.061-2.75,0.09
			c2.4-2.26,3.24-5.609,2.94-8.43c-0.21-1.95-1.23-3.91-2.84-5.47c-0.21-0.21-0.44-0.41-0.68-0.61c-0.18-0.15-0.36-0.29-0.56-0.439
			c0.83,0.029,1.76,0.069,2.78,0.1c0.28,0.2,0.56,0.43,0.82,0.66c0.14,0.12,0.27,0.25,0.39,0.38c1.56,1.54,2.55,3.46,2.75,5.38
			C119.736,46.53,118.926,49.83,116.596,52.09z"/>
		<path fill="#FF7262" d="M114.676,39.066c-2.057-2.443-5.425-4.181-9.39-3.946c-6.25,0.38-15.37,3.5-27,4.76
			c-11.63,1.24-28.5,1.12-34.75,1.37c-1.895,0.076-6.432,0.392-11.892,1.307c14.475,0.019,27.012,3.889,39.17,2.005
			c17.13-2.654,26.037-5.842,30.454-6.842C104.136,37.071,110.966,35.9,114.676,39.066z"/>
	</g>
</g>
</svg>
