<?xml version="1.0" encoding="utf-8"?>
<!-- Generator: Adobe Illustrator 17.0.0, SVG Export Plug-In . SVG Version: 6.00 Build 0)  -->
<!DOCTYPE svg PUBLIC "-//W3C//DTD SVG 1.1//EN" "http://www.w3.org/Graphics/SVG/1.1/DTD/svg11.dtd">
<svg version="1.1" id="图层_1" xmlns="http://www.w3.org/2000/svg" xmlns:xlink="http://www.w3.org/1999/xlink" x="0px" y="0px"
	 width="124.395px" height="269.82px" viewBox="0 0 124.395 269.82" enable-background="new 0 0 124.395 269.82"
	 xml:space="preserve">
<path opacity="0.69" fill="#414751" enable-background="new    " d="M80.471,224.794l-0.401-1.07
	c-10.972-31.579-22.814-63.291-35.325-94.267l-0.134-0.335c-2.275-5.687-4.616-11.507-5.754-17.596l0.602-0.134
	c1.137,6.021,3.479,11.842,5.687,17.462l0.134,0.335c12.31,30.642,24.085,62.02,34.924,93.197
	c0.937-6.021,1.004-11.374,1.004-16.994c0-1.806,0-3.68,0.067-5.62c0.134-5.085,0-10.303-0.134-15.321v-0.067
	c-0.468-18.398-1.004-37.466-3.479-55.998c-0.736-5.62-1.673-11.307-2.609-16.793l-4.148-25.156l0.602-0.067l4.148,25.156
	c0.937,5.486,1.873,11.173,2.609,16.793c2.475,18.599,2.944,37.667,3.479,56.065v0.067c0.134,5.018,0.268,10.236,0.134,15.388
	c-0.067,1.94-0.067,3.814-0.067,5.62c0,6.021-0.067,11.708-1.204,18.265L80.471,224.794z M80.94,225.329l-10.571-95.873l0.602-0.067
	l10.169,92.193c8.898-42.417,13.715-78.344,15.053-112.933h0.602c-1.405,35.124-6.289,71.587-15.455,114.807L80.94,225.329z
	 M72.443,228.34v-0.335c-0.201-2.475,0.401-5.62,2.81-7.226c1.271-0.803,3.078-0.87,4.549-0.134c0.535,0.268,1.004,0.669,1.338,1.07
	c1.271-1.204,2.676-2.208,4.349-2.743c1.004-0.335,1.806-0.268,2.475,0.201c0.803,0.602,1.338,1.806,1.338,3.412
	c0,1.004-0.335,1.873-1.07,2.475c-1.271,1.137-3.479,1.405-5.018,1.07c-1.405-0.268-2.676-0.937-3.68-1.94
	c-1.94,1.94-3.947,3.747-6.69,4.081L72.443,228.34z M77.594,220.78c-0.736,0-1.472,0.201-2.007,0.535
	c-2.074,1.338-2.743,4.081-2.609,6.356c2.409-0.401,4.215-2.074,6.021-3.947c-0.468-0.602-0.87-1.204-1.137-1.94l0.535-0.201
	c0.201,0.602,0.535,1.204,1.004,1.74c0.401-0.401,0.803-0.803,1.204-1.204c-0.268-0.401-0.669-0.669-1.204-0.937
	C78.866,220.913,78.197,220.78,77.594,220.78z M79.802,223.79c0.87,0.937,2.074,1.606,3.345,1.806
	c1.405,0.268,3.412,0.067,4.549-0.937c0.602-0.535,0.87-1.204,0.87-2.007c-0.067-1.405-0.468-2.475-1.137-2.944
	c-0.468-0.335-1.137-0.401-1.94-0.134c-1.539,0.535-2.944,1.539-4.148,2.743c0.201,0.335,0.268,0.736,0.335,1.137l-0.602,0.067
	c0-0.268-0.067-0.535-0.201-0.803C80.605,223.054,80.204,223.389,79.802,223.79C79.869,223.79,79.802,223.79,79.802,223.79z
	 M86.76,269.82l-0.602-0.134c1.806-8.095,1.806-16.793,0-25.089c-0.87-4.014-2.141-7.962-3.88-11.708
	c-0.335-0.736-0.736-1.539-1.137-2.275c-0.134-0.201-0.201-0.401-0.335-0.602c0.201,1.204,0.401,2.409,0.602,3.613
	c0.335,2.141,0.669,4.416,1.137,6.557c0.401,1.806,0.803,3.613,0.736,5.486c-0.067,2.141-0.803,4.014-2.074,5.218l-0.401-0.401
	c1.137-1.07,1.806-2.81,1.873-4.817c0.067-1.806-0.335-3.613-0.736-5.352c-0.468-2.141-0.803-4.416-1.137-6.557
	c-0.268-1.873-0.602-3.747-0.937-5.62c-0.535-1.204-0.937-2.475-0.937-3.814v-2.074l0.602,2.007c0.335,1.204,0.669,2.475,0.87,3.68
	c0.335,0.803,0.803,1.606,1.204,2.409c0.401,0.736,0.803,1.539,1.204,2.275c1.673,3.747,3.011,7.761,3.88,11.842
	C88.633,252.893,88.633,261.658,86.76,269.82z"/>
<path fill="#CE616D" d="M94.655,32.312c3.078,19.001-5.085,47.903-28.367,47.502c-2.074-0.067-4.148-0.401-6.222-0.937
	c-2.074-0.535-4.148-1.338-6.155-2.342c-25.49-12.912-34.455-54.593-8.095-71.788c11.106-8.095,27.297-5.219,37.533,3.947
	C90.172,14.783,93.25,23.548,94.655,32.312z"/>
<path fill="#61CE68" d="M124.36,66.366c-0.602,16.994-12.645,40.611-32.716,36.262c-1.806-0.401-3.546-1.07-5.219-1.873
	c-1.673-0.803-3.345-1.873-4.884-3.078c-19.87-15.522-20.539-53.188,5.285-63.558c11.039-5.085,24.554,0.134,31.846,9.835
	C123.423,50.443,124.628,58.471,124.36,66.366z M95.658,102.828c0,0-2.409,5.419-2.342,6.222l6.824-0.134
	c0,0-1.204-4.616-2.609-6.088L95.658,102.828L95.658,102.828z"/>
<path fill="#CECE61" d="M57.189,65.295c2.676,16.793-4.483,42.283-25.022,41.882c-1.806-0.067-3.68-0.335-5.486-0.803
	s-3.68-1.204-5.419-2.074C-1.285,92.993-9.246,56.129,14.036,41.009c9.835-7.159,24.152-4.616,33.184,3.479
	C53.175,49.841,55.918,57.535,57.189,65.295z M36.114,106.709c0,0-1.271,5.754-1.137,6.557l6.623-1.472c0,0-2.074-4.282-3.747-5.486
	L36.114,106.709z"/>
<path fill="#61C9CE" d="M92.246,88.511c1.004,15.655-7.761,38.536-26.695,36.396c-1.673-0.201-3.345-0.602-5.018-1.271
	c-1.673-0.602-3.278-1.405-4.817-2.342c-19.737-12.444-23.885-47.033-1.137-58.942c9.634-5.754,22.613-2.208,30.24,6.088
	C89.905,73.926,91.711,81.219,92.246,88.511z M69.298,125.308c0,0-1.806,4.215-1.606,5.754l6.222-0.803c0,0-1.606-4.549-3.011-5.152
	L69.298,125.308z"/>
</svg>
