<?xml version="1.0" encoding="iso-8859-1"?>
<!-- Generator: Adobe Illustrator 15.1.0, SVG Export Plug-In . SVG Version: 6.00 Build 0)  -->
<!DOCTYPE svg PUBLIC "-//W3C//DTD SVG 1.1//EN" "http://www.w3.org/Graphics/SVG/1.1/DTD/svg11.dtd">
<svg version="1.1" id="Layer_1" xmlns="http://www.w3.org/2000/svg" xmlns:xlink="http://www.w3.org/1999/xlink" x="0px" y="0px"
	 width="128px" height="128px" viewBox="0 0 128 128" style="enable-background:new 0 0 128 128;" xml:space="preserve">
<g>
	<circle style="fill:#B2E3FF;" cx="64" cy="64" r="64"/>
	<circle style="fill:#FFFFFF;" cx="111" cy="17" r="17"/>
	<circle style="fill:#CC584C;" cx="111" cy="17" r="14.167"/>
	<g>
		<g>
			<defs>
				<circle id="SVGID_1_" cx="64" cy="64" r="64"/>
			</defs>
			<clipPath id="SVGID_2_">
				<use xlink:href="#SVGID_1_"  style="overflow:visible;"/>
			</clipPath>
			<g style="clip-path:url(#SVGID_2_);">
				<g>
					<path style="fill:#45998B;" d="M109.877,118c-4.578-23-38.912-21-46.924-21s-42.346-2-46.924,21s18.313,31,18.313,31h28.611
						h28.611C91.564,149,114.455,141,109.877,118z"/>
					<path style="fill:#3F8C7F;" d="M109.877,118c-4.256-21.384-34.223-21.158-44.854-21.021
						c13.05,0.231,35.668,2.654,39.324,21.021c4.577,23-18.313,31-18.313,31h5.527C91.564,149,114.455,141,109.877,118z"/>
					<ellipse style="fill:#F5F5F5;" cx="62.953" cy="98.5" rx="14" ry="5.5"/>
					<path style="fill:#E6CBC3;" d="M75.371,95.563h0.005l-3.423-10.646l-9-0.666l-9,0.666l-3.424,10.646h0.006
						c-0.051,0.146-0.082,0.295-0.082,0.443c0,2.206,5.597,3.993,12.5,3.993c6.902,0,12.5-1.787,12.5-3.993
						C75.453,95.857,75.422,95.709,75.371,95.563z"/>
					<path style="fill:#D9BFB8;" d="M75.371,95.563h0.005l-3.423-10.646l-9-0.666l-1.75,0.129l7.25,0.537l3.423,10.646h-0.005
						c0.051,0.146,0.082,0.295,0.082,0.443c0,2.016-4.678,3.678-10.75,3.95c0.572,0.024,1.154,0.043,1.75,0.043
						c6.902,0,12.5-1.787,12.5-3.993C75.453,95.857,75.422,95.709,75.371,95.563z"/>
					<path style="fill:#FFE1D9;" d="M88.953,42V31.597c0-8.113-5.771-14.597-26-14.597s-26,6.484-26,14.597V42c0,0-4,0.295-4,3
						v11.069c0,2.704,1,4.931,4,4.931c0,13.521,12.023,29,26,29s26-15.479,26-29c3,0,4-2.227,4-4.931V45
						C92.953,42.295,88.953,42,88.953,42z"/>
					<path style="fill:#F2D6CE;" d="M62.953,17c-0.512,0-1.008,0.007-1.5,0.015c19.012,0.316,24.5,6.674,24.5,14.582V42v19
						c0,13.035-11.176,27.883-24.5,28.936C61.951,89.975,62.45,90,62.953,90c13.977,0,26-15.479,26-29V42V31.597
						C88.953,23.484,83.184,17,62.953,17z"/>
					<path style="fill:#99602E;" d="M62.953,17c-20.229,0-26,6.484-26,14.597V42v11c0.926-4.63,3.57-17.831,9.516-22.14
						C51.199,32.212,56.863,33,62.953,33c6.089,0,11.754-0.789,16.484-2.14c5.944,4.31,8.59,17.51,9.516,22.14V42V31.597
						C88.953,23.484,83.184,17,62.953,17z"/>
					<path style="fill:#8C582A;" d="M62.953,17c-0.51,0-1.005,0.007-1.497,0.015c19.009,0.317,24.497,6.674,24.497,14.582v9.87
						c1.593,4.528,2.525,9.158,3,11.533V42V31.597C88.953,23.484,83.184,17,62.953,17z"/>
				</g>
			</g>
		</g>
	</g>
	<path style="fill:#F5F5F5;" d="M114.777,19h-8.5c-1.104,0-2-0.896-2-2s0.896-2,2-2h8.5c1.104,0,2,0.896,2,2S115.882,19,114.777,19z
		"/>
	<g>
		<g>
			<ellipse style="fill:#F5F5F5;" cx="55" cy="50" rx="4" ry="3"/>
			<circle style="fill:#734822;" cx="55" cy="50" r="2"/>
		</g>
		<g>
			<ellipse style="fill:#F5F5F5;" cx="73" cy="50" rx="4" ry="3"/>
			<circle style="fill:#734822;" cx="73" cy="50" r="2"/>
		</g>
	</g>
</g>
</svg>
