<?xml version="1.0" encoding="utf-8"?>
<!-- Generator: Adobe Illustrator 17.0.0, SVG Export Plug-In . SVG Version: 6.00 Build 0)  -->
<!DOCTYPE svg PUBLIC "-//W3C//DTD SVG 1.1//EN" "http://www.w3.org/Graphics/SVG/1.1/DTD/svg11.dtd">
<svg version="1.1" id="图层_1" xmlns="http://www.w3.org/2000/svg" xmlns:xlink="http://www.w3.org/1999/xlink" x="0px" y="0px"
	 width="36.063px" height="23px" viewBox="0 0 36.063 23" enable-background="new 0 0 36.063 23" xml:space="preserve">
<path fill="#E23B3B" d="M14.396,10.257c0,0,3.424-0.492,3.424-4.571C17.82,1.606,15.495,0,12,0H0v23h12c0,0,6.666-0.125,6.666-7.083
	C18.666,15.917,18.84,10.257,14.396,10.257z M5.084,4.005h6.431c0,0,1.616,0.103,1.616,2.475s-0.972,2.508-2.015,2.508H5.084V4.005z
	 M11.19,18.932H5.084v-6.637h6.431c0,0,2.488,0.176,2.488,3.338C14.003,18.299,12.104,18.911,11.19,18.932z M28.29,5.649
	c-8.497,0-8.495,8.708-8.495,8.708S19.655,23.073,28,23c0,0,8.062-0.378,8-6h-4c0,0,0.091,2.511-3.581,2.511
	c0,0-4.419-0.276-4.419-4.511h12C36,15,37.233,5.649,28.29,5.649z M31.671,12.306h-7.21c0,0,0.395-3.318,3.808-3.318
	S31.671,12.306,31.671,12.306z M33,1H23v3h10V1z"/>
</svg>
