<?xml version="1.0" encoding="utf-8"?>
<!-- Generator: Adobe Illustrator 17.0.0, SVG Export Plug-In . SVG Version: 6.00 Build 0)  -->
<!DOCTYPE svg PUBLIC "-//W3C//DTD SVG 1.1//EN" "http://www.w3.org/Graphics/SVG/1.1/DTD/svg11.dtd">
<svg version="1.1" id="Layer_1" xmlns="http://www.w3.org/2000/svg" xmlns:xlink="http://www.w3.org/1999/xlink" x="0px" y="0px"
	 width="446.546px" height="433.402px" viewBox="0 0 446.546 433.402" enable-background="new 0 0 446.546 433.402"
	 xml:space="preserve">
<path fill="#FF4D5E" d="M112.609,317.362c-0.142-0.708-0.565-1.483-1.203-2.333c-0.636-0.848-1.413-1.696-2.332-2.541
	c-0.919-0.85-1.979-1.629-3.039-2.404c-1.132-0.706-2.263-1.344-3.323-1.978c-1.061-0.496-2.121-0.92-3.039-1.129
	c-0.99-0.285-1.768-0.285-2.404-0.072c-5.16,1.482-10.249,4.311-15.27,8.409c-5.018,4.026-9.825,8.975-14.49,14.77
	c0-0.283-0.071-0.637-0.071-0.85c-0.07-0.282-0.141-0.566-0.141-0.778c-0.354-1.341-0.778-2.4-1.202-3.038
	c-0.707-0.988-1.768-1.979-3.181-2.967c-1.202-0.778-2.758-1.626-4.736-2.476c-1.908-0.917-4.383-1.694-7.423-2.329
	c1.061,4.663,1.768,9.891,2.12,15.758c0.354,5.865,0.425,11.941,0.283,18.375c-3.676,6.499-6.927,13.211-9.756,20.139
	c-2.896,6.926-5.159,13.641-6.926,20.211c-1.697,6.574-2.829,12.722-3.323,18.586c-0.494,5.794-0.282,10.814,0.777,15.124
	c0.071,0.212,0.283,0.636,0.707,1.132c0.354,0.564,0.849,1.057,1.484,1.692c0.565,0.567,1.272,1.202,1.979,1.77
	c0.707,0.636,1.484,1.2,2.263,1.696c0.777,0.422,1.555,0.777,2.262,1.058c0.776,0.212,1.484,0.283,2.05,0.145
	c1.484-0.354,2.898-1.063,4.171-2.192c1.343-1.131,2.545-2.543,3.747-4.239c1.13-1.767,2.262-3.746,3.321-6.08
	c0.99-2.328,1.979-4.875,2.828-7.56c0.212,0.141,0.777,0.496,1.696,1.131c0.848,0.564,1.91,1.271,3.181,2.051
	c1.272,0.776,2.758,1.625,4.312,2.473c1.556,0.848,3.11,1.695,4.736,2.401c2.897-1.202,5.655-2.757,8.342-4.662
	c2.615-1.911,5.09-4.029,7.352-6.29c2.191-2.263,4.24-4.594,6.008-7.141c1.696-2.473,3.181-4.945,4.242-7.348
	c1.13-2.473,1.909-4.875,2.333-7.137c0.424-2.261,0.424-4.311-0.071-6.148c0-0.213-0.425-0.848-1.272-1.838
	c-0.777-1.06-1.768-2.118-2.897-3.32c-1.202-1.203-2.404-2.334-3.747-3.395c-1.344-1.059-2.616-1.838-3.746-2.189
	c-1.485-0.354-3.465-0.423-5.867-0.283c-2.404,0.213-5.09,0.425-8.13,0.779c0.919-1.415,2.05-2.827,3.393-4.239
	c1.343-1.486,2.828-3.114,4.454-4.735c1.625-1.699,3.464-3.463,5.302-5.371c1.908-1.909,3.888-3.959,5.866-6.149
	c2.476-2.686,4.878-5.654,7.211-8.833c2.403-3.181,4.524-6.359,6.292-9.471c1.838-3.179,3.181-6.148,4.17-8.974
	C112.82,321.673,113.104,319.271,112.609,317.362z M49.906,389.021c-0.564,3.672-1.06,7.066-1.625,10.316
	c-0.566,3.182-1.132,6.148-1.697,8.834c-0.565,2.685-1.13,5.016-1.695,6.928c-0.565,1.977-1.061,3.53-1.556,4.591
	c-0.494,1.129-0.919,1.767-1.273,1.909c-0.211,0.07-0.494,0-0.706-0.213c-0.283-0.21-0.354-0.635-0.424-1.273
	c-0.142-2.967,0-6.219,0.494-9.61c0.425-3.392,1.132-6.925,2.051-10.53c0.919-3.604,2.05-7.279,3.392-11.022
	c1.343-3.746,2.828-7.492,4.454-11.31C50.896,381.602,50.402,385.345,49.906,389.021z M79.031,381.812
	c1.06-0.142,2.121-0.21,3.251-0.283c1.131-0.143,2.263-0.143,3.395-0.21c1.131,0,2.191,0,3.251,0.139
	c1.06,0.071,1.979,0.213,2.898,0.423c-0.707,3.604-2.05,6.928-3.889,9.965c-1.767,3.04-4.1,5.867-6.927,8.34
	c-2.828,2.547-6.08,4.875-9.826,7.067c-3.676,2.121-7.847,4.029-12.3,5.796c1.626-4.948,3.04-10.461,4.17-16.397
	c1.203-5.935,2.191-11.941,2.899-18.163c1.061,1.202,2.121,2.263,3.111,3.253c1.06,0.848,1.837,1.27,2.475,1.202
	C74.082,382.447,76.557,382.093,79.031,381.812z M103.914,315.029c-1.626,4.736-3.959,9.26-6.857,13.427
	c-2.898,4.242-6.079,8.341-9.543,12.298c-3.463,4.029-6.928,7.913-10.462,11.801c-3.535,3.887-6.786,7.916-9.685,11.945
	c0.283-3.252,0.494-6.361,0.636-9.33c0.142-3.037,0.213-5.865,0.283-8.623c2.898-4.309,5.868-8.406,8.836-12.154
	c2.969-3.814,5.938-7.208,8.837-10.104c2.898-2.969,5.654-5.441,8.27-7.352c2.687-1.977,5.161-3.252,7.423-3.957
	c0.354-0.07,0.707-0.07,0.989,0c0.354,0.14,0.565,0.283,0.849,0.496c0.213,0.209,0.353,0.496,0.425,0.775
	C104.055,314.538,104.055,314.748,103.914,315.029z M78.041,248.389c0.071,1.483,0.142,2.333,0.213,2.542
	c0.211,0.852,0.636,1.697,1.343,2.404c0.636,0.707,1.414,1.344,2.191,1.77c0.849,0.492,1.625,0.845,2.403,1.057
	c0.777,0.213,1.343,0.284,1.768,0.141c0.07,0,0.212-0.069,0.353-0.069c0.142-0.071,0.283-0.14,0.425-0.283
	c1.556-1.058,3.251-2.474,4.948-4.167c1.696-1.77,3.393-3.605,5.09-5.584c1.625-1.979,3.109-3.957,4.523-6.077
	c1.484-2.12,2.616-4.026,3.605-5.864c-0.071,1.766-0.071,3.179-0.071,4.379c0,1.133,0.071,2.051,0.213,2.829
	c0.07,0.847,0.212,1.413,0.353,1.905c0.072,0.496,0.213,0.85,0.283,1.203c0.213,0.847,0.638,1.555,1.343,2.118
	c0.638,0.565,1.414,0.991,2.263,1.273c0.849,0.284,1.697,0.424,2.686,0.424c0.92,0.072,1.768,0,2.475-0.212
	c1.062-0.354,2.191-1.061,3.464-2.119c1.201-1.131,2.546-2.402,3.816-3.959c1.345-1.555,2.688-3.179,3.96-5.086
	c1.343-1.838,2.614-3.676,3.816-5.512c0.241-0.383,0.468-0.737,0.703-1.109c-0.486,4.543-0.959,9.092-1.481,13.615
	c-0.847,7.422-1.767,14.771-2.686,22.189c-0.849,7.422-1.625,14.842-2.332,22.263l14.491-8.268
	c0.424-6.076,0.919-12.227,1.485-18.377c0.494-6.145,1.06-12.293,1.625-18.301c0.919-6.359,2.12-12.154,3.605-17.384
	c1.484-5.158,3.039-9.683,4.524-13.427c1.625-3.746,3.04-6.715,4.311-8.904c1.343-2.191,2.264-3.395,2.758-3.747
	c0.142-0.069,0.282-0.14,0.424-0.14c0.142,0.07,0.213,0.14,0.355,0.28c0.14,0.143,0.282,0.355,0.352,0.709
	c0.07,0.352,0.142,1.128,0.07,2.188c-0.07,1.132-0.212,2.404-0.423,3.958c-0.142,1.484-0.424,3.182-0.707,4.946
	c-0.283,1.77-0.638,3.534-1.062,5.231c-0.777,3.038-1.555,5.44-2.333,7.207c-0.777,1.697-1.483,3.04-2.12,3.958
	s-1.131,1.627-1.484,1.98c-0.354,0.422-0.495,0.775-0.424,1.058c0.142,0.565,0.636,1.132,1.554,1.625
	c0.921,0.496,1.98,0.919,3.183,1.204c1.2,0.352,2.332,0.493,3.533,0.633c1.203,0.072,2.193,0.072,2.898-0.14
	c1.061-0.353,2.263-0.988,3.535-1.978c1.343-0.992,2.758-2.264,4.171-3.746c1.484-1.484,2.97-3.109,4.523-4.946
	c1.485-1.768,2.97-3.675,4.454-5.585c0.804-1.082,1.558-2.168,2.329-3.252c-0.508,4.766-1.005,9.532-1.552,14.277
	c-0.849,7.419-1.768,14.767-2.686,22.189c-0.849,7.421-1.626,14.77-2.333,22.261l14.49-8.269c0.425-6.078,0.92-12.227,1.485-18.373
	c0.495-6.148,1.061-12.297,1.626-18.303c0.919-6.361,2.12-12.154,3.605-17.387c1.484-5.158,3.039-9.679,4.594-13.425
	c1.557-3.747,2.97-6.784,4.242-8.905c1.343-2.191,2.262-3.39,2.828-3.746c0.069-0.068,0.212-0.143,0.353-0.143
	c0.142,0.074,0.213,0.143,0.354,0.286c0.141,0.141,0.282,0.354,0.354,0.705c0.07,0.353,0.142,1.132,0.07,2.19
	c-0.07,1.132-0.212,2.403-0.354,3.961c-0.211,1.48-0.424,3.107-0.776,4.945c-0.283,1.764-0.637,3.533-1.062,5.227
	c-0.777,3.038-1.554,5.442-2.333,7.14c-0.776,1.764-1.484,3.107-2.119,4.026c-0.638,0.919-1.132,1.625-1.484,1.978
	c-0.355,0.426-0.496,0.779-0.425,1.061c0.142,0.566,0.636,1.132,1.555,1.627c0.919,0.493,1.979,0.919,3.181,1.199
	c1.202,0.285,2.404,0.496,3.605,0.639c1.132,0.07,2.12,0.07,2.827-0.143c1.062-0.353,2.263-0.989,3.535-1.98
	c1.344-1.058,2.757-2.26,4.17-3.744c1.484-1.483,2.97-3.108,4.525-4.947c1.484-1.838,2.969-3.676,4.453-5.582
	c0.86-1.16,1.671-2.32,2.493-3.48c-0.006,0.142-0.016,0.301-0.02,0.441c-0.14,2.119-0.07,3.605,0.143,4.523
	c0.213,0.775,0.706,1.554,1.414,2.26c0.776,0.707,1.624,1.273,2.615,1.77c0.919,0.422,1.908,0.775,2.97,0.988
	c1.061,0.21,1.979,0.21,2.755-0.069c0.355-0.072,0.779-0.213,1.131-0.497c0.497-0.212,0.778-0.494,1.062-0.775
	c0.423-0.565,1.061-1.344,1.909-2.335c0.846-0.985,1.838-2.26,2.895-3.886c1.062-1.553,2.264-3.39,3.464-5.583
	c1.202-2.12,2.406-4.593,3.607-7.349c-0.283,3.675-0.495,7.349-0.778,11.094c-0.283,3.746-0.636,7.35-0.989,10.883
	c-3.11,3.747-6.01,7.421-8.625,10.955c-2.615,3.533-4.878,6.926-6.645,10.105c-1.768,3.182-3.039,6.22-3.817,9.118
	c-0.778,2.896-0.849,5.581-0.213,8.197c0.143,0.706,0.639,1.414,1.414,2.119c0.849,0.707,1.768,1.272,2.759,1.838
	c1.059,0.492,2.119,0.847,3.181,1.06c0.989,0.212,1.838,0.212,2.543,0c1.345-0.353,2.688-1.2,4.1-2.403
	c1.415-1.271,2.829-2.826,4.173-4.664c1.414-1.906,2.756-4.029,4.029-6.432c1.342-2.4,2.543-5.016,3.675-7.772
	c1.131-2.755,2.122-5.653,2.968-8.692c0.922-2.966,1.557-6.007,2.123-9.045c0.423-2.756,0.776-5.229,1.059-7.35
	c0.213-2.192,0.426-4.17,0.565-6.078c3.182-3.886,6.362-7.844,9.474-11.87c3.111-4.101,6.08-8.34,8.906-12.723l-1.129-0.775
	c-1.132-0.072-2.193-0.143-3.324-0.213c-1.979,2.895-4.03,5.794-6.149,8.553c-2.403,3.178-4.879,6.287-7.352,9.397
	c0-1.626,0.07-3.32,0.07-5.018c0.069-1.767,0.069-3.676,0.213-5.797c0.069-2.047,0.14-4.307,0.283-6.854
	c0-0.707,0.069-1.414,0.069-2.119c-3.96-0.849-7.917-1.91-11.734-3.321l-0.072,0.845c-1.059,4.029-2.26,7.564-3.392,10.604
	c-1.2,2.967-2.262,5.512-3.323,7.488c-0.989,2.05-1.907,3.534-2.686,4.525c-0.778,1.059-1.271,1.625-1.555,1.694
	c-0.213,0-0.283,0-0.353-0.21c-0.143-0.565-0.143-1.626-0.072-3.041c0.072-1.412,0.282-2.969,0.495-4.733
	c0.213-1.767,0.495-3.674,0.849-5.654c0.283-1.98,0.636-3.743,0.918-5.44c0.283-1.697,0.565-3.109,0.849-4.38
	c0.213-1.205,0.354-1.981,0.423-2.263c-0.069-0.213-0.636-0.494-1.694-0.707c-1.061-0.285-2.263-0.565-3.676-0.777
	c-1.485-0.283-2.899-0.426-4.383-0.566c-1.415-0.069-2.546-0.141-3.395,0c-0.14,0.072-0.283,0.072-0.354,0.072
	c0,0-0.069,0.068-0.14,0.281c-0.495,4.451-1.062,8.622-1.557,12.51c-0.385,3.592-0.764,6.814-1.044,9.707
	c-1.468,2.392-3.035,4.736-4.68,6.969c-0.849,1.132-1.697,2.334-2.688,3.604c-0.919,1.202-1.907,2.403-2.969,3.605
	c-0.989,1.131-2.05,2.263-3.11,3.322c-1.06,1.131-2.121,2.05-3.109,2.895c0.988-1.764,1.908-3.886,2.757-6.289
	c0.847-2.4,1.555-4.873,2.05-7.418c0.494-2.546,0.777-5.017,0.918-7.492c0.072-2.474-0.141-4.662-0.565-6.57
	c-0.141-0.496-0.353-0.99-0.564-1.484c-0.213-0.496-0.637-0.918-1.202-1.203c-0.494-0.354-1.202-0.775-2.05-1.342
	c-0.849-0.496-1.697-1.062-2.616-1.482c-0.918-0.498-1.838-0.85-2.687-1.131c-0.918-0.285-1.695-0.285-2.332-0.072
	c-0.494,0.143-1.131,0.495-2.051,1.203c-0.847,0.707-1.837,1.765-2.968,3.249c-1.132,1.485-2.403,3.322-3.817,5.655
	c-1.343,2.332-2.828,5.158-4.312,8.549l0.565-6.713c0-0.423,0.072-0.775,0.072-1.132c0-0.352,0-0.564-0.143-0.636
	c-0.424-0.492-1.061-0.988-1.979-1.484c-0.919-0.492-1.909-0.988-2.97-1.41c-1.131-0.496-2.191-0.852-3.252-1.132
	c-1.061-0.284-1.909-0.425-2.615-0.425c-0.354,0.072-0.566,0.213-0.566,0.494c-0.07,0.211-0.141,0.496-0.141,1.062
	c-0.472,7.017-1.144,14.033-1.88,21.052c-1.51,2.476-3.132,4.901-4.836,7.214c-0.849,1.131-1.767,2.332-2.686,3.604
	c-0.99,1.201-1.98,2.401-2.969,3.603c-0.989,1.131-2.051,2.261-3.11,3.393c-1.061,1.059-2.121,1.978-3.182,2.828
	c1.061-1.77,1.98-3.887,2.828-6.29c0.849-2.403,1.554-4.878,2.05-7.421c0.494-2.473,0.777-5.018,0.849-7.488
	c0.142-2.403-0.071-4.596-0.565-6.576c-0.071-0.494-0.283-0.988-0.496-1.482c-0.211-0.494-0.636-0.92-1.201-1.2
	c-0.494-0.352-1.201-0.778-2.05-1.345c-0.849-0.493-1.697-0.988-2.615-1.484c-0.919-0.492-1.839-0.846-2.686-1.131
	c-0.92-0.279-1.697-0.279-2.333-0.066c-0.496,0.139-1.132,0.492-2.05,1.197c-0.849,0.707-1.839,1.769-2.97,3.252
	c-1.202,1.484-2.403,3.322-3.817,5.654c-1.343,2.33-2.828,5.158-4.312,8.55l0.496-6.712c0.07-0.426,0.07-0.779,0.141-1.132
	c0-0.352,0-0.565-0.141-0.637c-0.425-0.495-1.061-0.917-1.98-1.483c-0.919-0.496-1.908-0.989-2.968-1.414
	c-1.132-0.492-2.191-0.848-3.253-1.132c-1.06-0.28-1.908-0.423-2.615-0.423c-0.354,0.143-0.566,0.282-0.566,0.494
	c-0.069,0.213-0.14,0.568-0.14,1.061c-0.534,6.937-1.142,13.873-1.859,20.811c-0.261,0.418-0.553,0.899-0.898,1.45
	c-0.706,1.062-1.555,2.26-2.403,3.605c-0.919,1.271-1.839,2.615-2.827,4.027c-0.99,1.414-1.909,2.688-2.828,3.817
	c-0.849,1.13-1.696,2.049-2.403,2.898c-0.707,0.775-1.272,1.198-1.625,1.341c-0.213,0-0.354-0.07-0.425-0.283
	c-0.141-0.492-0.283-1.131-0.424-1.977c-0.142-0.85-0.213-1.91-0.213-3.182c-0.07-1.271,0-2.755,0.071-4.452
	c0.142-1.766,0.425-3.745,0.919-5.864c-0.142-0.494-0.425-1.132-0.99-1.838c-0.565-0.706-1.201-1.484-1.908-2.189
	c-0.708-0.778-1.414-1.484-2.191-2.051c-0.707-0.565-1.343-0.99-1.908-1.201c-0.072,0-0.143,0-0.143,0.07
	c-0.069,0.072-0.069,0.072-0.069,0.141c-0.425,1.557-1.062,3.11-1.839,4.664c-0.777,1.625-1.556,3.039-2.332,4.311
	c-0.849,1.555-1.839,3.039-2.827,4.383c-1.131,1.625-2.193,3.182-3.253,4.664s-1.979,2.758-2.898,3.887
	c-0.919,1.131-1.768,2.05-2.474,2.756c-0.777,0.707-1.413,1.201-1.979,1.342c-0.565,0.142-0.919-0.068-1.131-0.777
	c-0.213-0.988-0.071-2.686,0.565-5.158c0.636-2.473,2.051-5.653,4.241-9.469c0.99-1.557,2.05-3.252,3.182-4.878
	c0.989-1.484,2.12-3.036,3.464-4.733c1.343-1.625,2.756-3.25,4.312-4.805l0.142-0.141c0-0.073,0-0.073-0.07-0.213
	c-0.213-0.143-0.637-0.352-1.202-0.638c-0.637-0.212-1.272-0.424-2.051-0.634c-0.777-0.213-1.554-0.354-2.262-0.496
	c-0.778-0.213-1.413-0.282-1.908-0.282c-0.141-0.072-0.282-0.072-0.282,0c-0.071,0.069-0.142,0.14-0.213,0.14
	c-2.05,1.345-3.887,2.829-5.584,4.453c-1.768,1.697-3.251,3.322-4.523,4.879c-1.485,1.764-2.899,3.674-4.101,5.512
	c-2.403,3.744-4.1,7.208-5.231,10.386c-1.131,3.253-1.908,6.077-2.263,8.48C78.041,244.998,77.899,246.905,78.041,248.389z
	 M247.343,230.371c-0.849,3.179-1.697,6.077-2.686,8.691c-0.991,2.685-1.91,4.873-2.828,6.711c-0.988,1.77-1.837,2.756-2.546,2.968
	c-0.423,0.144-0.706-0.139-0.849-0.704c-0.564-2.404-0.564-4.806,0.072-7.209c0.637-2.473,1.485-4.877,2.756-7.209
	c1.202-2.33,2.546-4.52,4.03-6.643c1.555-2.117,2.898-4.027,4.17-5.793C248.896,224.15,248.191,227.189,247.343,230.371z
	 M44.534,274.89c1.626,0.848,3.323,1.627,5.09,2.403c1.839-5.724,3.747-12.651,5.726-20.778c1.979-8.126,3.96-17.172,6.079-27.064
	c1.767-0.851,3.323-1.628,4.737-2.263c1.343-0.636,2.544-1.201,3.464-1.625c1.061-0.495,2.05-0.991,2.827-1.414
	c0.425-0.143,0.919-0.635,1.414-1.484c0.494-0.848,0.919-1.838,1.413-3.039c0.495-1.2,0.919-2.473,1.344-3.886
	c0.494-1.413,0.848-2.686,1.202-3.958c0.282-1.201,0.565-2.332,0.776-3.251c0.213-0.988,0.283-1.625,0.354-1.978
	c0-0.426-0.142-0.495-0.425-0.354c-0.282,0.141-0.919,0.634-1.908,1.412c-0.989,0.707-2.474,1.768-4.454,3.182
	c-1.908,1.411-4.596,3.039-7.987,5.019c1.343-6.29,2.615-12.792,3.888-19.436c1.273-6.573,2.616-13.358,3.959-20.282
	c-0.425-0.281-1.202-0.777-2.403-1.413c-1.131-0.709-2.474-1.484-4.101-2.403c-1.555-0.919-3.18-1.838-4.877-2.826
	c-1.768-0.99-3.323-1.91-4.807-2.755c-0.919,9.892-1.98,19.575-3.04,29.044c-1.06,9.541-2.333,18.939-3.676,28.266
	c-0.637,0.352-1.839,0.918-3.676,1.77c-1.909,0.846-4.171,1.905-6.717,3.109c-2.615,1.197-5.372,2.473-8.411,3.957
	c-3.04,1.414-6.009,2.755-8.908,4.097c0.849-4.452,1.697-9.045,2.475-13.638c0.778-4.666,1.485-9.328,2.191-14.133
	c0.707-4.738,1.414-9.684,2.121-14.701c0.707-5.016,1.414-10.176,2.05-15.547c-0.99-0.705-2.19-1.413-3.464-2.119
	c-1.271-0.779-2.615-1.484-4.1-2.191c-1.484-0.777-2.969-1.484-4.453-2.262c-1.485-0.776-2.97-1.555-4.454-2.33
	c-0.211,7.065-0.635,14.204-1.201,21.412c-0.495,7.209-1.131,14.344-1.838,21.34s-1.484,13.782-2.333,20.426
	c-0.849,6.643-1.767,12.932-2.686,18.938c-0.92,6.005-1.908,11.589-2.898,16.749c-0.99,5.23-1.908,9.822-2.828,13.92
	c1.273,0.495,2.898,1.061,4.737,1.697c1.837,0.566,3.816,1.342,5.938,2.261c1.767-7.349,3.463-14.485,4.948-21.413
	c1.484-6.924,2.969-13.852,4.312-20.848c4.453,4.666,8.342,9.541,11.876,14.63c3.464,5.019,6.22,9.825,8.13,14.417
	C41.354,273.689,42.908,274.115,44.534,274.89z M35.841,253.476c-1.345-1.553-2.688-3.178-4.172-4.735
	c-1.414-1.624-2.898-3.108-4.383-4.452c7.634-3.179,14.279-6.005,20.077-8.547c-1.486,8.902-3.112,17.666-4.808,26.359
	c-0.92-1.205-1.91-2.547-3.04-4.029C38.385,256.59,37.184,255.105,35.841,253.476z M128.725,337.431
	c0.849,0.426,1.273,0.778,1.345,0.99c0,0.141-0.071,0.637-0.142,1.342c-0.142,0.707-0.282,1.556-0.425,2.475
	c-0.141,0.918-0.354,1.907-0.566,3.037c-0.282,0.99-0.494,2.051-0.776,2.899c-0.213,0.917-0.496,1.694-0.779,2.333
	c-0.282,0.635-0.565,0.988-0.776,1.058c-0.777,0.14-1.697,0.214-2.828,0.071c-1.13-0.071-2.191-0.211-3.321-0.494
	c-1.062-0.213-1.98-0.494-2.757-0.778c-0.779-0.282-1.203-0.565-1.274-0.706c-0.212-0.918-0.212-2.049-0.071-3.604
	c0.142-1.484,0.354-3.039,0.707-4.453c0.354-1.484,0.707-2.826,1.132-3.957c0.424-1.132,0.848-1.768,1.201-1.836
	c0.778-0.215,1.696-0.284,2.828-0.144c1.201,0.212,2.333,0.425,3.464,0.778C126.816,336.725,127.807,337.078,128.725,337.431z
	 M446.546,220.828c-0.849,5.867-1.697,11.732-2.616,17.669c-0.918,5.864-1.907,11.659-2.898,17.313
	c-1.058,5.584-2.049,10.953-3.11,16.111c-0.989,5.16-1.978,9.824-2.896,13.994c-1.909,0-3.676-0.285-5.514-0.848
	c-1.767-0.566-3.254-1.275-4.455-2.193c0.495-3.532,0.919-7.419,1.273-11.729c0.354-4.239,0.706-9.257,0.919-14.843
	c0.283-5.58,0.496-11.941,0.636-19.148c0.141-7.209,0.353-15.477,0.566-24.876c1.697,0.213,3.604,0.706,5.515,1.413
	c1.979,0.705,3.887,1.557,5.583,2.402c1.768,0.918,3.252,1.768,4.526,2.686C445.344,219.627,446.192,220.334,446.546,220.828z
	 M435.588,298.139c0.073,0.354,0,1.132-0.283,2.475c-0.28,1.343-0.636,2.755-1.059,4.312c-0.425,1.484-0.919,2.826-1.414,4.098
	c-0.495,1.273-0.919,1.907-1.201,2.049c-0.213,0-0.709,0-1.344,0c-0.636-0.069-1.414-0.142-2.263-0.281
	c-0.847-0.072-1.768-0.283-2.686-0.494c-0.989-0.142-1.838-0.355-2.616-0.566c-0.848-0.213-1.484-0.426-2.05-0.638
	c-0.493-0.141-0.775-0.353-0.849-0.494c-0.21-0.705-0.21-1.908,0-3.393c0.283-1.553,0.565-3.036,0.991-4.593
	c0.354-1.556,0.776-2.897,1.201-4.028c0.423-1.201,0.779-1.836,1.062-1.91c0.354-0.139,0.988-0.139,1.694-0.066
	c0.778,0.066,1.697,0.21,2.546,0.422c0.918,0.211,1.909,0.424,2.828,0.707c0.988,0.353,1.837,0.635,2.615,0.918
	c0.849,0.283,1.484,0.566,1.98,0.849C435.305,297.787,435.588,297.998,435.588,298.139z M404.486,303.935
	c-2.405,3.25-4.878,6.361-7.353,9.471c0-1.627,0.072-3.322,0.072-5.089c0.07-1.697,0.07-3.604,0.141-5.724
	c0.07-2.051,0.213-4.383,0.283-6.927c0.143-2.474,0.282-5.299,0.565-8.409c0-0.283,0-0.495,0-0.636c0-0.212,0-0.353-0.07-0.566
	c-0.07-0.494-0.708-0.988-1.768-1.555c-1.061-0.565-2.332-1.131-3.676-1.627c-1.342-0.494-2.546-0.919-3.747-1.199
	c-1.132-0.353-1.838-0.425-2.12-0.353c-0.141,0-0.283,0.919-0.423,2.683c-0.143,1.768-0.213,4.17-0.426,7.068
	c-1.131,4.098-2.263,7.631-3.395,10.601c-1.2,3.038-2.332,5.511-3.321,7.491c-1.061,2.05-1.909,3.534-2.686,4.592
	c-0.778,0.99-1.344,1.556-1.557,1.625c-0.21,0.071-0.283,0-0.353-0.141c-0.14-0.635-0.14-1.623-0.07-3.041
	c0.07-1.41,0.213-3.035,0.495-4.805c0.211-1.765,0.493-3.674,0.849-5.582c0.283-1.98,0.636-3.816,0.919-5.511
	c0.283-1.628,0.565-3.11,0.775-4.31c0.283-1.204,0.426-1.979,0.496-2.333c-0.07-0.212-0.636-0.424-1.697-0.709
	c-1.059-0.279-2.333-0.562-3.746-0.775c-1.412-0.209-2.826-0.422-4.311-0.565c-1.484-0.069-2.615-0.069-3.393,0
	c-0.141,0.069-0.283,0.069-0.354,0.069c-0.072,0-0.072,0.143-0.142,0.354c-0.565,4.453-1.059,8.623-1.555,12.51
	c-0.439,3.442-0.763,6.588-1.027,9.428c-0.225,0.367-0.455,0.748-0.739,1.173c-0.708,1.058-1.555,2.263-2.402,3.604
	c-0.922,1.271-1.84,2.614-2.829,4.027c-0.988,1.414-1.909,2.685-2.828,3.816c-0.849,1.131-1.697,2.119-2.403,2.898
	c-0.708,0.777-1.27,1.202-1.626,1.341c-0.211,0.071-0.353-0.069-0.423-0.282c-0.142-0.422-0.283-1.131-0.426-1.978
	c-0.141-0.849-0.211-1.909-0.211-3.181c-0.072-1.272,0-2.756,0.07-4.453c0.141-1.768,0.424-3.674,0.919-5.865
	c-0.141-0.494-0.423-1.061-0.989-1.836c-0.565-0.709-1.201-1.484-1.909-2.193c-0.706-0.775-1.414-1.483-2.19-2.047
	c-0.708-0.565-1.413-0.988-1.909-1.133c-0.07-0.068-0.141,0-0.141,0c-0.072,0.072-0.072,0.072-0.072,0.145
	c-0.423,1.552-1.059,3.109-1.837,4.732c-0.778,1.557-1.555,2.969-2.333,4.24c-0.849,1.558-1.837,3.038-2.828,4.382
	c-1.132,1.625-2.19,3.179-3.251,4.663c-1.059,1.484-1.98,2.757-2.898,3.887c-0.919,1.132-1.768,2.051-2.473,2.757
	c-0.778,0.709-1.415,1.2-1.98,1.345c-0.566,0.14-0.919-0.072-1.132-0.779c-0.212-0.988-0.069-2.686,0.566-5.158
	c0.636-2.473,2.05-5.584,4.242-9.469c0.989-1.555,2.05-3.182,3.179-4.876c0.991-1.483,2.123-3.04,3.464-4.735
	c1.345-1.627,2.759-3.252,4.312-4.807l0.143-0.142c0,0,0-0.069-0.072-0.139c-0.21-0.213-0.636-0.426-1.201-0.707
	c-0.636-0.212-1.342-0.425-2.05-0.637c-0.776-0.211-1.555-0.353-2.263-0.494c-0.776-0.141-1.412-0.213-1.907-0.283
	c-0.143-0.07-0.283,0-0.283,0c-0.07,0.07-0.143,0.143-0.213,0.143c-2.05,1.342-3.887,2.823-5.583,4.521
	c-1.768,1.697-3.252,3.251-4.526,4.806c-1.483,1.768-2.896,3.675-4.1,5.513c-2.402,3.746-4.1,7.207-5.23,10.458
	c-0.101,0.283-0.183,0.55-0.278,0.828c-0.35,0.623-0.814,1.419-1.416,2.425c-0.639,1.058-1.415,2.261-2.264,3.462
	c-0.778,1.272-1.697,2.615-2.686,3.959c-0.99,1.342-1.909,2.543-2.897,3.674c-0.992,1.201-1.98,2.12-2.9,2.969
	c-0.991,0.776-1.84,1.271-2.615,1.555c-0.636,0.141-1.061-0.213-1.344-1.274c-0.778-3.038-1.202-6.571-1.415-10.601
	c-0.282-3.955-0.282-8.266-0.069-12.789c2.12-3.815,4.242-7.844,6.292-11.874c2.051-4.098,3.958-8.127,5.725-12.154
	c1.839-4.028,3.464-7.915,4.948-11.73c1.484-3.816,2.689-7.42,3.607-10.814c0.919-3.321,1.555-6.431,1.837-9.186
	c0.354-2.757,0.283-5.086-0.212-6.996c-0.283-0.566-0.849-1.203-1.697-1.907c-0.846-0.709-1.837-1.343-2.969-1.907
	c-1.059-0.566-2.189-1.062-3.321-1.344c-1.132-0.283-2.12-0.283-3.041-0.071c-1.907,0.988-3.817,2.613-5.654,4.946
	c-1.837,2.26-3.604,5.088-5.232,8.41c-1.696,3.321-3.251,7.067-4.734,11.165c-1.415,4.03-2.759,8.409-3.961,12.933
	c-1.131,4.523-2.119,9.186-2.968,13.922c-0.849,4.806-1.484,9.539-1.91,14.203c-0.846-0.212-1.837-0.422-2.825-0.635
	c-0.992-0.143-1.768-0.213-2.333-0.143c-2.759,1.838-5.304,3.96-7.493,6.289c-2.264,2.404-4.243,4.877-5.938,7.422
	c-1.77,2.615-3.182,5.229-4.385,7.914c-0.851,2.023-1.543,3.992-2.154,5.935c-0.175,0.255-0.333,0.482-0.531,0.778
	c-0.776,1.131-1.625,2.264-2.543,3.605c-0.991,1.344-1.98,2.686-3.042,4.029c-1.061,1.413-2.05,2.685-3.11,3.886
	c-1.06,1.132-1.978,2.192-2.898,3.04c-0.847,0.777-1.625,1.273-2.19,1.483c-0.282,0.07-0.423,0-0.496-0.283
	c-0.07-0.352-0.14-1.129-0.07-2.261c0-1.132,0.07-2.474,0.214-3.956c0.07-1.484,0.21-3.182,0.423-4.947
	c0.143-1.84,0.282-3.604,0.495-5.443c0.213-1.764,0.354-3.461,0.566-5.017c0.141-1.626,0.213-3.038,0.283-4.239
	c0.07-0.213,0.07-0.566,0.07-0.92c0-0.353-0.07-0.635-0.213-0.848c-0.282-0.353-0.989-0.777-1.978-1.202
	c-0.99-0.495-2.122-0.848-3.324-1.2c-1.131-0.354-2.262-0.636-3.251-0.849c-1.062-0.212-1.767-0.283-2.12-0.14
	c-0.565,0.14-1.273,0.564-2.192,1.271c-0.849,0.705-1.907,1.697-3.11,3.038c-1.202,1.342-2.474,3.038-3.958,5.159
	c-1.414,2.05-2.97,4.592-4.595,7.49c0.212-2.264,0.355-4.665,0.637-7.065c2.403-4.03,4.736-8.2,6.856-12.367
	c2.12-4.17,4.03-8.269,5.725-12.227c1.77-4.028,3.323-7.845,4.596-11.589c1.344-3.675,2.404-7.069,3.181-10.25
	c0.778-3.109,1.345-5.864,1.627-8.268c0.283-2.402,0.213-4.38-0.143-5.793c-0.069-0.211-0.14-0.566-0.353-0.99
	c-0.214-0.426-0.424-0.777-0.778-0.991c-0.494-0.423-1.13-0.845-1.978-1.341c-0.849-0.495-1.768-0.988-2.829-1.484
	c-0.988-0.495-2.049-0.918-3.181-1.201c-1.062-0.354-2.12-0.566-3.111-0.566c-1.907,0.707-3.747,2.404-5.514,5.09
	c-1.766,2.686-3.534,6.079-5.159,10.176c-1.696,4.028-3.252,8.623-4.736,13.781c-1.556,5.087-2.898,10.389-4.1,15.969
	c-0.441,2.151-0.856,4.318-1.268,6.484c-0.073-0.016-0.114-0.068-0.218-0.051l-14.421,4.876c0.496-3.322,0.99-6.431,1.485-9.399
	c0.564-2.969,0.989-5.654,1.484-7.986c0.424-2.33,0.777-4.31,1.131-5.865c0.282-1.554,0.495-2.614,0.636-3.107
	c0.07-0.144,0.07-0.287,0.07-0.354v-0.072c-0.07-0.141-0.282-0.213-0.706-0.07s-1.131,0.496-2.051,1.128
	c-0.918,0.565-1.979,1.274-3.11,2.122c-1.131,0.779-2.262,1.625-3.393,2.545c-1.131,0.918-2.121,1.766-2.897,2.475
	c-1.061,0.918-1.909,1.765-2.475,2.471c-0.566,0.778-0.99,1.484-1.273,2.123c-0.283,0.632-0.495,1.27-0.636,1.837
	c-0.071,0.564-0.142,1.129-0.283,1.624c-0.354,1.906-0.778,4.24-1.273,6.855c-0.424,2.686-0.848,5.582-1.343,8.693l-7.776,2.682
	c-0.281,0.213-0.564,0.566-0.776,1.132c-0.283,0.497-0.425,1.061-0.566,1.626c-0.141,0.637-0.282,1.203-0.352,1.696
	c-0.071,0.495-0.071,0.917,0,1.201c0,0.069,0.07,0.069,0.07,0.069h0.071l8.554-2.543c-0.496,4.1-0.99,8.341-1.414,12.65
	c-0.425,4.311-0.778,8.338-1.061,12.084c-0.071,1.248-0.133,2.438-0.189,3.599c-0.188,0.278-0.355,0.534-0.589,0.853
	c-0.707,1.06-1.556,2.261-2.475,3.676c-0.848,1.342-1.837,2.686-2.826,4.098c-0.99,1.344-1.98,2.686-2.898,3.889
	c-0.99,1.199-1.839,2.191-2.546,2.966c-0.776,0.78-1.412,1.272-1.837,1.345c-0.213,0.07-0.424,0.07-0.424-0.213
	c-0.213-0.704-0.213-1.906-0.142-3.673c0.142-1.698,0.353-3.675,0.565-5.867c0.283-2.19,0.494-4.452,0.777-6.712
	c0.283-2.261,0.496-4.311,0.707-6.01c0-0.422-0.142-0.848-0.354-1.271c-0.282-0.496-0.706-0.776-1.344-0.989
	c-1.696-0.636-3.534-1.273-5.372-1.835c-1.626-0.567-3.393-1.132-5.301-1.628c-1.909-0.566-3.747-1.061-5.515-1.414
	c-0.283-0.919-0.565-1.695-0.707-2.331c-0.212-0.636-0.353-1.061-0.494-1.272c-0.142-0.142-0.496-0.353-1.061-0.564
	c-0.495-0.213-1.061-0.355-1.627-0.496c-0.635-0.069-1.13-0.213-1.695-0.281c-0.496,0-0.778-0.071-0.849,0
	c-0.142,0-0.353,0.353-0.636,0.988c-0.282,0.635-0.637,1.413-0.989,2.401c-0.355,0.992-0.778,2.121-1.132,3.253
	c-0.353,1.2-0.636,2.332-0.99,3.463c-0.282,1.129-0.494,2.121-0.635,3.107c-0.143,0.92-0.143,1.625,0,2.051
	c0.069,0.423,0.282,0.635,0.565,0.707c0.565,0.212,1.343,0.496,2.12,0.779c0.706,0.352,1.484,0.635,2.403,0.918
	c0.99,0.281,2.05,0.636,3.182,0.916c-1.062,1.909-2.121,3.817-3.253,5.727c-1.131,1.837-2.12,3.462-2.898,4.807l0.155,0.087
	c-0.126,0.189-0.231,0.343-0.366,0.548c-0.708,1.129-1.556,2.331-2.475,3.672c-0.919,1.345-1.838,2.69-2.828,4.099
	c-1.061,1.415-1.979,2.686-2.969,3.888c-0.918,1.202-1.767,2.191-2.544,2.969c-0.707,0.848-1.344,1.271-1.769,1.415
	c-0.281,0.068-0.423,0-0.494-0.283c-0.07-0.425-0.141-1.202-0.07-2.263c0-1.059,0.142-2.261,0.283-3.744
	c0.07-1.414,0.211-2.969,0.424-4.664c0.212-1.628,0.423-3.321,0.636-4.949c0.212-1.693,0.354-3.25,0.495-4.804
	c0.213-1.557,0.354-2.898,0.354-4.029c0.07-0.28,0.07-0.565,0.07-0.706c0-0.21-0.07-0.354-0.07-0.494
	c-0.141-0.635-0.707-1.202-1.768-1.766c-1.061-0.639-2.262-1.133-3.464-1.625c-1.272-0.426-2.474-0.78-3.534-0.993
	c-1.131-0.21-1.838-0.352-2.051-0.28c-0.142,0.07-0.353,0.705-0.636,1.979c-0.211,1.271-0.494,2.898-0.777,4.875
	c-0.282,2.051-0.565,4.31-0.849,6.926c-0.282,2.546-0.565,5.158-0.778,7.775c-0.211,2.686-0.353,5.228-0.422,7.773
	c-0.143,2.543-0.143,4.803-0.143,6.712c0.143,0.706,0.637,1.412,1.485,1.979c0.776,0.635,1.695,1.131,2.685,1.482
	c0.99,0.352,1.979,0.636,3.04,0.78c1.061,0.213,1.839,0.14,2.475,0c0.989-0.284,2.05-0.989,3.252-2.05
	c1.271-1.061,2.474-2.334,3.817-3.889c1.343-1.554,2.615-3.179,3.958-5.016c1.415-1.841,2.686-3.746,3.889-5.514
	c1.271-1.767,2.402-3.533,3.393-5.229c0.989-1.696,1.838-3.108,2.544-4.311c-0.029-0.02-0.067-0.041-0.098-0.06
	c0.173-0.264,0.339-0.523,0.523-0.787c0.637-0.99,1.202-1.98,1.838-3.041c0.636-0.986,1.273-2.05,1.839-3.037
	c0.564-0.989,1.13-1.91,1.626-2.83c0.494,0.145,0.988,0.216,1.483,0.357c0.494,0.139,1.06,0.21,1.556,0.21
	c-0.071,0.564-0.213,1.345-0.354,2.334c-0.212,1.061-0.425,2.331-0.566,3.956c-0.142,1.627-0.352,3.533-0.424,5.726
	c-0.07,2.261-0.142,4.804-0.07,7.702c0.212,0.777,0.707,1.412,1.484,2.047c0.776,0.567,1.697,1.061,2.687,1.416
	c0.989,0.422,2.051,0.705,3.11,0.848c0.989,0.142,1.838,0.142,2.402-0.071c0.92-0.28,2.051-0.916,3.253-1.979
	c1.201-1.058,2.474-2.331,3.816-3.885c1.343-1.557,2.686-3.253,4.03-5.09c1.343-1.838,2.616-3.676,3.816-5.442
	c0.411-0.592,0.783-1.167,1.165-1.745c0.059,1.772,0.201,3.125,0.461,4.008c0.142,0.707,0.707,1.415,1.697,2.192
	c1.06,0.776,2.191,1.412,3.463,2.048c1.273,0.566,2.545,1.061,3.818,1.344c1.27,0.352,2.261,0.352,2.897,0.142
	c0.989-0.212,2.051-0.919,3.252-1.979c1.201-1.061,2.474-2.331,3.817-3.888c1.343-1.554,2.686-3.25,4.029-5.087
	c1.343-1.838,2.615-3.676,3.888-5.442c0.515-0.785,1.007-1.538,1.489-2.282c0.187,2.713,0.527,5.039,0.984,7.018
	c0.142,0.494,0.282,0.777,0.495,0.987c0.212,0.213,0.495,0.425,0.777,0.638c0.637,0.281,1.414,0.639,2.333,0.919
	c0.989,0.354,1.908,0.636,2.897,0.919c0.991,0.283,1.909,0.494,2.758,0.635c0.849,0.071,1.484,0.143,1.838,0
	c0.495-0.141,0.848-0.352,1.061-0.635c0.142-0.213,0.282-0.635,0.282-1.131c0.142-3.393,0.565-6.713,1.202-10.033
	c0.706-3.182,1.484-6.291,2.403-9.189c0.919-2.896,1.909-5.583,2.97-7.985c1.129-2.473,2.12-4.592,3.109-6.36
	c0.919-1.837,1.767-3.251,2.545-4.383c0.706-1.058,1.201-1.694,1.555-1.907c-0.354,2.12-0.706,4.523-1.059,7.209
	c-0.426,2.686-0.709,5.371-0.922,8.055c-0.21,2.686-0.352,5.301-0.422,7.845c0,2.475,0.143,4.595,0.565,6.36
	c0.14,0.707,0.635,1.342,1.483,1.838c0.849,0.494,1.837,0.919,2.969,1.273c1.062,0.281,2.192,0.49,3.324,0.565
	c1.131,0.07,2.05,0,2.826-0.213c0.921-0.283,1.979-0.919,3.181-1.906c1.274-1.062,2.545-2.262,3.89-3.748
	c1.342-1.555,2.616-3.18,4.027-4.875c1.194-1.57,2.311-3.141,3.394-4.712c-0.015,1.675,0.092,3.226,0.426,4.499
	c0.21,0.777,0.565,1.483,1.201,2.119c0.706,0.709,1.342,1.275,2.12,1.698c0.778,0.423,1.555,0.776,2.263,0.987
	c0.775,0.215,1.342,0.283,1.697,0.145c0.493-0.145,0.988-0.426,1.554-0.78c1.768-1.409,3.464-2.896,5.019-4.522
	c1.558-1.623,2.969-3.32,4.383-5.089c1.414-1.837,2.828-3.674,4.173-5.65c1.27-1.981,2.685-4.101,4.1-6.22
	c0.282,2.119,0.636,4.099,1.059,5.936c0.212,0.92,0.778,1.767,1.767,2.613c0.921,0.92,1.979,1.697,3.182,2.404
	c1.201,0.707,2.405,1.201,3.677,1.626c1.201,0.353,2.12,0.423,2.898,0.21c1.342-0.423,2.756-1.129,4.1-2.26
	c1.414-1.06,2.756-2.333,4.17-3.817c1.344-1.483,2.685-3.108,4.029-4.875c1.247-1.64,2.369-3.285,3.485-4.982
	c0.002,0.394,0.017,0.763,0.05,1.095c0.069,1.484,0.143,2.332,0.212,2.547c0.213,0.845,0.636,1.692,1.345,2.401
	c0.635,0.706,1.411,1.341,2.189,1.838c0.849,0.423,1.627,0.775,2.403,0.988c0.778,0.212,1.344,0.282,1.767,0.14
	c0.073,0,0.213-0.07,0.355-0.07c0.141-0.069,0.283-0.139,0.423-0.282c1.555-1.06,3.252-2.473,4.948-4.17
	c1.697-1.765,3.395-3.602,5.019-5.512c1.697-2.05,3.182-4.026,4.596-6.147c1.414-2.05,2.615-4.03,3.604-5.867
	c-0.07,1.767-0.07,3.182-0.07,4.383c0,1.132,0.07,2.049,0.213,2.897c0.069,0.776,0.212,1.413,0.282,1.838
	c0.141,0.492,0.283,0.846,0.354,1.201c0.212,0.847,0.636,1.555,1.344,2.12c0.636,0.562,1.414,0.988,2.263,1.271
	c0.846,0.282,1.694,0.423,2.686,0.493c0.918,0,1.767-0.07,2.473-0.28c1.061-0.356,2.192-0.991,3.465-2.122
	c1.2-1.129,2.545-2.401,3.816-3.958c1.344-1.484,2.685-3.179,3.96-5.015c1.341-1.91,2.615-3.748,3.816-5.586
	c0.299-0.456,0.554-0.869,0.844-1.316c-0.056,1.992,0.013,3.474,0.218,4.355c0.211,0.778,0.636,1.484,1.411,2.193
	c0.778,0.706,1.627,1.27,2.616,1.764c0.921,0.496,1.909,0.85,2.971,0.991c1.059,0.212,1.978,0.212,2.756,0
	c0.352-0.142,0.708-0.282,1.131-0.495c0.424-0.283,0.778-0.565,1.061-0.849c0.423-0.492,1.059-1.273,1.907-2.261
	c0.849-1.061,1.838-2.332,2.898-3.887c1.061-1.554,2.263-3.463,3.464-5.583c1.201-2.19,2.403-4.663,3.534-7.42
	c-0.212,3.675-0.423,7.349-0.706,11.097c-0.282,3.744-0.636,7.418-1.061,10.883c-3.11,3.813-5.936,7.488-8.552,11.021
	c-2.686,3.465-4.878,6.857-6.646,10.035c-1.837,3.252-3.11,6.289-3.887,9.188c-0.709,2.827-0.778,5.584-0.143,8.127
	c0.143,0.777,0.636,1.486,1.414,2.192c0.778,0.636,1.696,1.271,2.756,1.767c1.062,0.494,2.05,0.848,3.11,1.059
	c1.061,0.212,1.91,0.212,2.546,0.072c1.342-0.425,2.756-1.201,4.17-2.475c1.414-1.203,2.758-2.757,4.17-4.665
	c1.414-1.835,2.689-4.026,4.029-6.358c1.344-2.473,2.546-5.02,3.678-7.844c1.131-2.757,2.119-5.655,2.968-8.624
	c0.849-3.038,1.555-6.077,2.05-9.116c0.495-2.755,0.849-5.228,1.062-7.349c0.282-2.12,0.493-4.169,0.636-6.007
	c3.181-3.887,6.292-7.917,9.401-11.943c3.181-4.098,6.149-8.341,8.908-12.721l-3.465-2.33
	C409.292,297.432,406.89,300.753,404.486,303.935z M296.33,291.921c0.565-3.745,1.201-7.276,1.909-10.598
	c0.706-3.393,1.415-6.503,2.19-9.401c0.779-2.898,1.558-5.441,2.333-7.632c0.778-2.188,1.557-3.957,2.263-5.299
	c0.778-1.272,1.484-2.049,2.192-2.261c0.21-0.074,0.353,0.139,0.423,0.492c0.143,0.353,0.213,0.637,0.283,0.85
	c0.425,1.906,0.425,4.381-0.141,7.562c-0.495,3.179-1.344,6.783-2.615,10.81c-1.204,3.96-2.759,8.269-4.525,12.863
	c-1.837,4.593-3.747,9.186-5.867,13.849C295.199,299.412,295.694,295.667,296.33,291.921z M221.329,314.538
	c0.424-2.337,0.849-4.739,1.272-7.069c0.918-4.312,1.767-8.34,2.615-12.084c0.778-3.744,1.627-6.925,2.403-9.682
	c0.848-2.756,1.557-4.945,2.262-6.502c0.637-1.625,1.202-2.544,1.697-2.684c0.353-0.073,0.637,0.279,0.849,1.199
	c0.423,1.909,0.423,4.451-0.07,7.633c-0.565,3.249-1.414,6.784-2.615,10.67c-1.204,3.958-2.615,8.128-4.242,12.439
	c-1.697,4.383-3.395,8.763-5.231,13.074C220.551,319.2,220.904,316.867,221.329,314.538z M205.354,331.85
	c-0.849,5.651-1.484,10.952-1.908,16.041c-0.277,3.267-0.451,6.362-0.528,9.294c-0.194,0.28-0.377,0.545-0.604,0.883
	c-0.707,1.058-1.556,2.26-2.404,3.531c-0.918,1.344-1.908,2.617-2.897,4.031c-0.989,1.342-1.979,2.541-2.898,3.744
	c-0.919,1.131-1.696,2.118-2.473,2.824c-0.778,0.851-1.415,1.275-1.839,1.415c-0.213,0.071-0.355-0.071-0.425-0.283
	c-0.424-1.767-0.706-4.099-0.706-6.996c-0.07-2.966,0-6.22,0.282-9.75c0.212-3.604,0.565-7.422,1.061-11.448
	c0.424-4.029,0.919-8.059,1.484-12.016l12.018-3.604c0.354-0.069,0.706-0.212,0.918-0.352c0.213-0.143,0.355-0.284,0.425-0.425
	c0.282-0.494,0.637-1.131,1.061-1.979c0.172-0.372,0.324-0.713,0.474-1.051C206.03,327.756,205.666,329.801,205.354,331.85z
	 M279.788,331.85c-2.543,4.17-4.876,7.632-6.998,10.317c-2.19,2.685-3.957,4.17-5.301,4.592c-0.494,0.142-0.776-0.141-0.919-0.848
	c-0.283-0.919-0.07-2.403,0.565-4.451c0.706-2.05,1.627-4.312,2.898-6.855c1.201-2.473,2.686-5.089,4.453-7.844
	c1.767-2.685,3.606-5.158,5.583-7.422c-0.21,2.12-0.282,4.312-0.352,6.359C279.719,327.82,279.719,329.869,279.788,331.85z
	 M380.027,348.385c-0.849,3.181-1.767,6.079-2.688,8.765c-0.988,2.614-1.907,4.878-2.898,6.645
	c-0.919,1.764-1.767,2.824-2.473,3.037c-0.424,0.071-0.706-0.142-0.849-0.776c-0.566-2.334-0.566-4.736,0.07-7.209
	c0.565-2.473,1.484-4.807,2.758-7.141c1.201-2.329,2.545-4.592,4.03-6.712c1.554-2.05,2.897-4.026,4.1-5.795
	C381.582,342.168,380.876,345.275,380.027,348.385z M224.229,145.354l79.029-104.378c-5.019-2.615-10.675-0.988-15.976,0.919
	c-0.636,0.213-1.624-1.132-2.686-4.593c-0.778-2.615-2.263-1.978,3.394-2.615c3.887-0.494,8.409-0.141,12.157,1.697
	c-5.585-4.946-13.925-7.137-22.054-8.906c-1.131-0.354-1.484-2.613-0.072-7.275c1.061-3.607-1.694-4.101,7.28-0.355
	c7.142,3.038,14.775,8.057,18.239,14.204c-0.423-3.179-1.272-6.643-3.111-10.105c-3.392-6.432-8.057-16.044-13.713-20.563
	c0.353-0.92,5.019-2.898,6.079-3.181c0.709-2.331,10.745,16.04,12.512,28.479c0.214-0.99,0.496-1.979,0.778-2.967
	c-0.918-6.787-2.545-14.348-5.584-20.566c0.353-0.281,5.725-3.11,6.36-1.838c0.921,1.91,1.132,9.397,1.061,16.959
	c2.898-6.852,7.423-13.072,14.278-19.01c2.121-1.836,2.829-1.271,3.395,0.355c0.636,0.988,7.352,7.772,4.806,7.419
	c-9.471-1.341-19.793,20.001-20.642,23.675h0.073c4.169-7.986,12.935-15.475,19.793-19.857c0.07-0.07,2.049,6.713,2.755,7.277
	c-1.271-0.352-10.602,4.523-15.268,8.621c8.13-3.744,18.59-6.924,25.447-6.076c-1.484,2.969-2.828,6.289-3.747,8.905
	c-7.634,0.14-19.58-2.263-30.538,7.278l-0.069,0.422c10.674-4.239,22.338-3.248,33.153-1.197c-0.07,0.564-6.503,9.75-6.716,9.537
	c-5.584-5.441-18.096-7.986-25.942-4.732c4.453,28.196,11.451,112.08,10.462,124.73C318.528,176.236,247.13,186.978,224.229,145.354
	z"/>
</svg>
