<?xml version="1.0" encoding="utf-8"?>
<!-- Generator: Adobe Illustrator 17.0.0, SVG Export Plug-In . SVG Version: 6.00 Build 0)  -->
<!DOCTYPE svg PUBLIC "-//W3C//DTD SVG 1.1//EN" "http://www.w3.org/Graphics/SVG/1.1/DTD/svg11.dtd">
<svg version="1.1" id="图层_1" xmlns="http://www.w3.org/2000/svg" xmlns:xlink="http://www.w3.org/1999/xlink" x="0px" y="0px"
	 width="177.687px" height="230.688px" viewBox="1.92 0 177.687 230.688" enable-background="new 1.92 0 177.687 230.688"
	 xml:space="preserve">
<path fill="#FFA0A0" d="M138.713,41.859c-4.744,3.811-10.108,4.685-15.217,3.965c-1.006-0.142-2.002-0.347-2.981-0.604v-4.234
	c1.154,0.354,2.34,0.629,3.539,0.799c4.096,0.576,8.37-0.104,12.104-3.104c3.818-3.065,5.975-9.903,5.975-16.774
	c0-2.654-0.326-5.288-1.008-7.688c-0.662-2.337-1.658-4.449-3.008-6.132c-1.963-2.443-4.74-4-8.428-4h-9.174V0h9.174
	c5.063,0,8.891,2.152,11.604,5.532c1.6,1.99,2.789,4.399,3.596,7.027h3.469V23.55h-2.176
	C145.84,30.987,143.182,38.271,138.713,41.859z M120.515,45.221c-5.65-1.484-10.726-4.71-13.855-7.591
	c-4.75-4.373-8.789-10.944-10.676-17.275c-0.572-1.927-0.953-3.844-1.098-5.688h-4.123v-4.088h4.217
	c0.023-0.167,0.049-0.333,0.078-0.498c0.395-2.296,1.283-4.344,2.754-5.994h-7.049V0h17.898h7.383h4.471v4.087h-4.471h-7.383
	c-2.742,0-4.809,0.531-6.303,1.455c-1.859,1.151-2.895,2.998-3.277,5.226c-0.428,2.469-0.086,5.397,0.814,8.422
	c1.689,5.669,5.293,11.542,9.525,15.439c2.559,2.355,6.586,4.971,11.094,6.358L120.515,45.221L120.515,45.221z M90.763,14.667
	h-4.122c-0.146,1.844-0.525,3.761-1.1,5.688c-1.885,6.331-5.924,12.902-10.674,17.275c-3.13,2.881-8.206,6.106-13.856,7.591v-4.234
	c4.508-1.388,8.535-4.003,11.093-6.358c4.234-3.897,7.837-9.77,9.525-15.439c0.901-3.024,1.243-5.953,0.816-8.422
	c-0.385-2.228-1.42-4.074-3.278-5.226c-1.493-0.924-3.562-1.455-6.302-1.455h-7.384H61.01V0h4.471h7.384h17.897v4.087h-7.049
	c1.471,1.65,2.359,3.698,2.755,5.994c0.029,0.165,0.055,0.331,0.078,0.498h4.216L90.763,14.667L90.763,14.667z M61.011,45.221
	c-0.979,0.257-1.975,0.462-2.98,0.604c-5.108,0.72-10.472-0.154-15.217-3.965c-4.469-3.589-7.126-10.872-7.469-18.309H33.17V12.56
	h3.469c0.808-2.628,1.996-5.037,3.595-7.027C42.948,2.152,46.775,0,51.838,0h9.174v4.087h-9.174c-3.687,0-6.465,1.557-8.427,4
	c-1.351,1.683-2.346,3.795-3.009,6.132c-0.681,2.4-1.007,5.034-1.007,7.688c0,6.871,2.155,13.709,5.975,16.774
	c3.734,2.999,8.008,3.68,12.103,3.104c1.2-0.17,2.385-0.444,3.539-0.799v4.235H61.011z"/>
<path fill="#FFFFFF" d="M166.097,46.33c10.939,15.303,5.254,28.729-5.545,28.967c-15.474,0.34-25.433-19.734-39.83-23.162
	c-13.486-3.211-25.65,3.187-29.959,9.477c-4.309-6.29-16.474-12.688-29.959-9.477c-14.396,3.428-24.355,23.502-39.829,23.162
	C10.175,75.059,4.49,61.633,15.43,46.33C-0.542,54.957,0.001,69.992,5.115,78.054c3.897,6.141,11.75,10.683,21.238,13.321
	c-17.664,56.316,2.455,112.328,82.851,139.314c-24.162-35.949,33.899-46.603,51.151-87.183c7.756-18.243,5.978-37.456-3.599-52.599
	c8.773-2.692,15.977-7.058,19.655-12.853C181.527,69.992,182.07,54.957,166.097,46.33z M90.763,103.026
	c-9.562,0-18.005-4.767-23.101-12.049c0.977-0.303,1.944-0.621,2.89-0.971c10.692-3.96,17.149-9.097,20.211-14.253
	c3.063,5.156,9.52,10.292,20.21,14.253c0.946,0.351,1.915,0.669,2.893,0.972C108.77,98.26,100.326,103.026,90.763,103.026z"/>
</svg>
