<?xml version="1.0" encoding="utf-8"?>
<!-- Generator: Adobe Illustrator 16.0.0, SVG Export Plug-In . SVG Version: 6.00 Build 0)  -->
<!DOCTYPE svg PUBLIC "-//W3C//DTD SVG 1.1//EN" "http://www.w3.org/Graphics/SVG/1.1/DTD/svg11.dtd">
<svg version="1.1" id="eqxiu_1_" xmlns="http://www.w3.org/2000/svg" xmlns:xlink="http://www.w3.org/1999/xlink" x="0px" y="0px"
	 width="21.48px" height="20.439px" viewBox="0 0 21.48 20.439" enable-background="new 0 0 21.48 20.439" xml:space="preserve">
<path id="eqxiu" fill="#D4145A" d="M9.065,14.044c1.135-0.359,3.596-1.728,4.661-3.596c1.069-1.869,0.777-3.8,0.839-4.099
	c0.062-0.299,0.368-0.58,0.673-0.549c0.307,0.031,0.525,0.637,0.602,1.026s0.39,1.449,0.279,1.833
	c-0.108,0.383-0.479,1.118-0.491,1.489c-0.015,0.369-0.08,0.388-0.291,0.656c-0.21,0.271-0.707,0.26-0.854,0.668
	c-0.146,0.406-1.312,1.539-1.714,1.674c-0.4,0.138-0.805,0.584-1.201,0.847c-0.396,0.262-1.155,0.168-1.373,0.312
	c-0.215,0.144-0.746,0.75-1.014,0.695C8.972,14.96,7.933,14.406,9.065,14.044z M10.389,15.343c0,0,4.529-0.506,4.775-0.643
	c0.246-0.138,0.691-0.949,0.971-1.703s0.023-2.396-0.177-3.246c-0.108,0.227-0.165,0.807-0.19,0.928
	c-0.022,0.119-0.176,0.555-0.434,0.596c-0.257,0.041-0.701,0.388-0.812,0.771c-0.109,0.383-1.131,1.108-1.389,1.147
	c-0.258,0.041-1.111,0.709-1.279,0.925c-0.169,0.215-0.912,0.342-1.134,0.358c-0.222,0.018-0.714,0.291-0.876,0.476L10.389,15.343z
	 M14.216,8.366c0.054,0.186,0.233-1.293,0.167-1.432c-0.064-0.138-1.386-2.06-1.937-2.266c-0.55-0.206-1.429-0.635-1.543-0.377
	c-0.114,0.257-0.274,0.13-0.641-0.069C9.899,4.023,8.84,3.715,8.709,3.75C8.577,3.785,7.914,3.524,7.806,3.596
	C7.697,3.668,7.54,3.979,7.461,4.211C7.383,4.445,7.047,4.719,6.83,4.861C6.613,5.003,6.06,5.577,5.867,5.911
	S5.088,7.433,5.027,7.733C4.966,8.032,4.77,8.99,4.805,9.278c0.035,0.287,0.164,0.873,0.164,0.873S4.875,9.542,5.177,9.136
	C5.478,8.73,5.699,8.868,5.694,8.741C5.688,8.616,5.605,7.813,5.711,7.593c2.012-4.2,5.532-1.455,6.109-0.775
	C12.438,7.005,14.051,7.804,14.216,8.366z M5.439,11.962c0.379,0.74,1.431,1.695,2.399,1.832s1.959-0.285,2.224-0.512
	c0.265-0.228,0.164-0.341-0.195-0.259c-0.358,0.082-1.777-0.293-2.686-1.049C6.09,11.067,5.914,10.253,5.75,9.378
	C5.055,8.362,4.906,10.919,5.439,11.962z M9.606,10.79c0.415-0.353,0.447-0.97,0.489-1.179c0.044-0.209,0.342,0.009,0.674-0.549
	c0.332-0.555-0.078-1.448-0.078-1.448c0.131,0.274-0.412,1.256-0.714,1.815c-0.301,0.563-2.068,2.04-2.068,2.04
	C8.418,11.419,9.191,11.142,9.606,10.79z M11.82,7.128c0,0,0.507,1.137,0.546,1.297c0.17,0.689,0.713,2.451,0.7,2.666
	c0.59-0.752,1.226-2.18,1.125-2.449S12.286,7.286,11.82,7.128z M12.809,11.132c0.14-0.377-0.375-1.977-0.797-2.812
	c-0.421-0.836-2.032-2.1-2.84-2.108c0.733,0.214,1.719,1.193,2.229,2.047c0.512,0.852,0.36,3.145,0.75,3.488
	C12.338,11.909,12.67,11.509,12.809,11.132z M8.62,11.804c-0.856-0.082-1.529-0.75-1.529-0.75c-0.192,0.178,0.118,0.336,0.368,0.48
	c0.252,0.145,1.285,0.573,1.404,0.6c0.12,0.023,0.402-0.293,0.57-0.35c0.168-0.062,2.318-0.214,2.373-0.482
	s-0.171-0.535-0.313-0.594C11.493,10.708,9.077,11.847,8.62,11.804z M11.555,7.354c0,0-0.044-0.85-0.964-1.225
	C9.67,5.754,9.27,5.578,9.077,5.757c-0.192,0.18-0.175,0.09-0.442,0.034c-0.27-0.056-1.062,0.468-1.147,0.73
	C7.403,6.785,7.364,7.276,7.717,7.536C8.068,7.794,8.686,7.827,8.932,7.69C9.178,7.553,9.574,7.292,9.915,7.3
	s0.664,0.105,0.664,0.105S9.171,6.368,8.765,6.067C9.635,5.777,11.455,7.085,11.555,7.354z M7.596,9.194
	c0,0,0.123,0.462-0.033,0.771c-0.157,0.311-0.434,0.596-0.458,0.717c-0.024,0.12,0.715,0.614,0.715,0.614l1.222-1.09
	C8.465,10.274,7.596,9.194,7.596,9.194z M8.143,8.495c0.068-0.33-0.188-0.289-0.387-0.234C7.557,8.313,7.287,8.413,7.454,8.665
	c0.167,0.254,0.784,0.985,0.564,0.74C7.918,9.29,8.076,8.825,8.143,8.495z M10.66,9.446c-0.259,0.197-0.464,0.437-0.445,0.656
	c0.017,0.224-0.652,0.967-1.019,1.164c-0.42,0.226-0.45,0.375-0.45,0.375s1.192-0.504,1.794-0.692
	c0.6-0.188,1.198-0.378,1.198-0.378s-0.054-1.413-0.257-1.485s-0.494-0.787-0.494-0.787C11.076,8.784,10.919,9.249,10.66,9.446z
	 M9.604,12.782c0.252-0.011,0.789,0.256,0.987,0.202c0.198-0.053,0.756-0.344,1.14-0.547c0.386-0.201,0.429-0.41,0.394-0.543
	s-0.281-0.307-0.377-0.295c-0.097,0.012-2.15,0.31-2.234,0.416c-0.084,0.107-0.337,0.273-0.654,0.301
	c-0.316,0.031-1.773-0.922-1.773-0.922C7.646,12.601,9.352,12.794,9.604,12.782z M8.747,8.743c0,0,0.504-0.263,0.714-0.136
	c0.304,0.188,0.235,0.673,0.235,0.673s0.495-0.896,0.076-0.982C9.354,8.214,9,8.421,8.747,8.743z M8.846,8.265
	c0,0,1.512-0.844,1.26,0.539c0,0,0.497-1.08,0.066-1.234C9.562,7.353,8.941,8.097,8.846,8.265z M6.854,10.694
	c-0.258-0.271-0.465-0.78-0.336-1.254c0.127-0.473,0.867-1.506,0.887-1.75C7.425,7.444,7.11,6.694,7.286,6.294
	c0.175-0.4-0.076-0.389-0.312-0.156C6.739,6.37,6.004,7.528,5.967,8.019c-0.039,0.49-0.088,2.103,0.74,3.082
	C6.91,11.329,6.854,10.694,6.854,10.694z M2.908,12.911c-0.187,0.146,0.299,2.957,0.651,3.061c0.354,0.104,2.301,0.939,2.582,1.09
	c0.28,0.15,0.404,0.611,0.697,0.703s3.281-0.045,4.156-0.055c0.874-0.008,3.69,0.539,4.229,0.647
	c0.537,0.109,1.418,0.041,1.477-0.385c0.035-0.272-0.102-1.049-0.198-1.598c-0.086-0.484-0.204-1.287-0.76-1.465
	c-0.558-0.177-5.255,0.702-5.927,0.782c-0.67,0.08-3.043-0.965-3.707-1.069c-0.664-0.105-2.09-1.519-2.353-1.604
	C3.759,13.021,3.096,12.761,2.908,12.911z M6.158,5.098c0.301-0.214-1.926,0.729-2.327,1.021C3.428,6.41,2.859,6.605,2.701,6.915
	c-0.156,0.311-0.384,1.262-0.3,1.465C2.484,8.585,3.01,9.065,3.374,9.265c0.363,0.2,0.507,0.416,0.318,0.721
	c-0.187,0.306-0.34,1.363,0.06,1.695c0.399,0.33,1.67,1.742,2.021,2.002c0.354,0.258,1.894,1.26,2.162,1.314
	c0.271,0.057,0.605-0.064,0.51-0.207c-0.096-0.146-0.423-0.523-1.073-0.845c-0.65-0.317-2.55-1.704-2.853-3.729
	S5.648,5.46,6.158,5.098z M6.891,4.413c0.188-0.149,0.381-0.887,0.723-1.099C7.854,3.167,8.142,3.291,8.5,3.363
	c0.358,0.074,1.903,0.511,2.105,0.58c0.341,0.121,0.095-0.295,0.971-0.115c0.812,0.167,1.823,1.101,2.108,1.377
	c0.286,0.276,0.683,1.125,0.683,0.971c0-0.156,0.055-0.45,0.271-0.594c0.216-0.143,0.656-0.317,1.009-0.06
	c0.353,0.26,0.876,2.474,0.881,2.754c0.005,0.281-0.272,0.877-0.243,1.195c0.026,0.316,0.492,2.375,0.379,2.85
	c0.173,0.054,0.953,0.052,1.468-0.03c0.516-0.082,0.7-0.074,0.813-0.33c0.115-0.26,0.606-1.189,0.914-1.625
	c0.309-0.437,0.196-0.842,0.132-1.135c-0.065-0.293-0.622-1.65-0.927-1.992c-0.305-0.344-2.461-5.334-2.698-5.694
	c-0.238-0.36-0.512-0.853-0.686-0.764c-0.174,0.09-0.642,0.242-0.91,0.188c-0.27-0.055-1.04-0.868-1.68-0.936
	c-0.64-0.068-2.85,1.132-3.077,1.334C9.785,1.539,7.774,2.529,7.545,2.889C7.316,3.246,6.719,3.807,6.701,4.273
	C6.693,4.459,6.705,4.562,6.891,4.413z M7.258,2.768c0,0-2.539,1.443-3.126,1.572C3.545,4.47,2.168,4.344,1.959,4.301
	c-0.21-0.043-0.351,0.335-0.477,0.495c-0.127,0.162-0.041,5.227,0.024,5.365c0.063,0.139,1.102,1.473,1.256,1.627
	c0.155,0.157,2.638,2.192,3.068,2.375c0.106,0.084,0.132-0.193-0.202-0.386c-0.335-0.192-1.825-1.899-2.177-2.159
	c-0.351-0.259-0.12-0.929-0.071-1.168c0.049-0.238,0.465-0.746-0.025-0.939C2.866,9.318,2.358,8.745,2.21,8.403
	C2.062,8.061,2.475,6.805,2.68,6.567c0.203-0.237,3.234-1.799,3.516-1.805C6.477,4.758,6.675,3.334,7.258,2.768z M19.493,7.347
	c0.763,0.945,0.915,2.639,0.729,2.935c-0.186,0.295-0.942,1.967-1.318,2.182s-2.332,0.229-2.438,0.334
	c-0.104,0.102-0.58,1.209-0.692,1.561c-0.112,0.351,0.438,0.713,0.651,0.882c0.215,0.17,0.643,2.541,0.321,3.1
	c-0.321,0.557-3.417-0.158-3.704-0.176c-0.287-0.019-2.33-0.187-2.697-0.22c-0.367-0.034-0.711,0.228-0.408,0.373
	c0.302,0.146,1.338,0.771,1.617,0.621c0.281-0.149,0.649-0.53,1.406-0.168c0.757,0.361,4.133,0.513,5.42,0.111
	c1.287-0.402,1.841-2.908,1.771-3.172c-0.07-0.265-0.054-0.549,0.26-0.652c0.312-0.104,0.854,0.092,1.059-2.94
	c0.205-3.033-2.129-6.527-2.663-6.486C18.51,5.649,18.73,6.401,19.493,7.347z M1.033,9.638c-0.425-0.188-1.018,4.672-0.361,5.828
	c0.358,0.631,0.562,0.125,0.706,0.238c0.144,0.11-0.046,0.395-0.071,0.723c-0.023,0.326,2.672,4.41,5.668,3.982
	c2.995-0.427,4.673-0.705,4.69-0.994c0.017-0.285-1.156-0.443-1.723-0.726c-0.565-0.281-1.084-0.596-1.459-0.59
	c-0.375,0.008-1.548-0.149-1.922-0.143C6.186,17.963,5.917,17.242,5.136,17s-1.586-0.574-1.959-0.982
	c-0.375-0.408-0.667-2.838-0.57-3.106c0.099-0.271,0.285-0.802,0.062-0.902C1.831,11.63,1.375,9.792,1.033,9.638z"/>
</svg>
