<?xml version="1.0" encoding="iso-8859-1"?>
<!-- Generator: Adobe Illustrator 17.0.0, SVG Export Plug-In . SVG Version: 6.00 Build 0)  -->
<!DOCTYPE svg PUBLIC "-//W3C//DTD SVG 1.1//EN" "http://www.w3.org/Graphics/SVG/1.1/DTD/svg11.dtd">
<svg version="1.1" id="Capa_1" xmlns="http://www.w3.org/2000/svg" xmlns:xlink="http://www.w3.org/1999/xlink" x="0px" y="0px"
	 width="123.525px" height="123.499px" viewBox="0 0 123.525 123.499" style="enable-background:new 0 0 123.525 123.499;"
	 xml:space="preserve">
<g>
	<polyline style="fill:#B32A00;" points="104.266,11.343 113.304,10.229 112.436,21 106.865,20.627 97.827,14.562 	"/>
	<path style="fill:#FD0000;" d="M95.97,12.951c0,0,4.334-7.801,3.343-10.772c0,0,7.056,6.315,7.058,13.991l-2.228,2.725"/>
	<path style="fill:#FD0000;" d="M109.713,26.695c0,0,7.801-4.335,10.772-3.345c0,0-6.315-7.056-13.991-7.057l-2.723,2.228"/>
	<circle style="fill:#FEF6B8;stroke:#B32A00;stroke-miterlimit:10;" cx="62.049" cy="61.476" r="60.977"/>
	<g>
		<g>
			<defs>
				<path id="SVGID_7_" d="M99.473,21.484L57.186,63.771L7.92,49.808c0,0-0.132-14.359,19.496-28.718
					C47.044,6.73,77.868-1.173,99.473,21.484z"/>
			</defs>
			<clipPath id="SVGID_2_">
				<use xlink:href="#SVGID_7_"  style="overflow:visible;"/>
			</clipPath>
			<g style="clip-path:url(#SVGID_2_);">
				<circle style="fill:#FF3308;stroke:#B32A00;stroke-miterlimit:10;" cx="97.305" cy="17.109" r="4.75"/>
				<circle style="fill:#FF3308;stroke:#B32A00;stroke-miterlimit:10;" cx="82.748" cy="31.665" r="4.751"/>
				<circle style="fill:#FF3308;stroke:#B32A00;stroke-miterlimit:10;" cx="76.03" cy="38.383" r="4.75"/>
				<circle style="fill:#FF3308;stroke:#B32A00;stroke-miterlimit:10;" cx="69.312" cy="45.102" r="4.75"/>
				<circle style="fill:#FF3308;stroke:#B32A00;stroke-miterlimit:10;" cx="62.594" cy="51.82" r="4.75"/>
				<circle style="fill:#FF3308;stroke:#B32A00;stroke-miterlimit:10;" cx="55.876" cy="58.538" r="4.75"/>
				<circle style="fill:#FF3308;stroke:#B32A00;stroke-miterlimit:10;" cx="49.157" cy="65.256" r="4.75"/>
				<circle style="fill:#FF3308;stroke:#B32A00;stroke-miterlimit:10;" cx="42.44" cy="71.975" r="4.751"/>
				<circle style="fill:#FF3308;stroke:#B32A00;stroke-miterlimit:10;" cx="35.721" cy="78.693" r="4.751"/>
				<circle style="fill:#FF3308;stroke:#B32A00;stroke-miterlimit:10;" cx="89.797" cy="24.617" r="4.751"/>
				<circle style="fill:#FF3308;stroke:#B32A00;stroke-miterlimit:10;" cx="88.875" cy="12.103" r="4.75"/>
				<circle style="fill:#FF3308;stroke:#B32A00;stroke-miterlimit:10;" cx="74.319" cy="26.66" r="4.75"/>
				<circle style="fill:#FF3308;stroke:#B32A00;stroke-miterlimit:10;" cx="67.6" cy="33.378" r="4.75"/>
				<circle style="fill:#FF3308;stroke:#B32A00;stroke-miterlimit:10;" cx="60.882" cy="40.096" r="4.75"/>
				<circle style="fill:#FF3308;stroke:#B32A00;stroke-miterlimit:10;" cx="54.164" cy="46.814" r="4.75"/>
				<circle style="fill:#FF3308;stroke:#B32A00;stroke-miterlimit:10;" cx="47.446" cy="53.533" r="4.75"/>
				<circle style="fill:#FF3308;stroke:#B32A00;stroke-miterlimit:10;" cx="40.727" cy="60.251" r="4.75"/>
				<circle style="fill:#FF3308;stroke:#B32A00;stroke-miterlimit:10;" cx="34.009" cy="66.969" r="4.75"/>
				<circle style="fill:#FF3308;stroke:#B32A00;stroke-miterlimit:10;" cx="27.291" cy="73.688" r="4.75"/>
				<circle style="fill:#FF3308;stroke:#B32A00;stroke-miterlimit:10;" cx="81.365" cy="19.612" r="4.751"/>
				<circle style="fill:#FF3308;stroke:#B32A00;stroke-miterlimit:10;" cx="78.468" cy="9.206" r="4.75"/>
				<circle style="fill:#FF3308;stroke:#B32A00;stroke-miterlimit:10;" cx="63.912" cy="23.762" r="4.751"/>
				<circle style="fill:#FF3308;stroke:#B32A00;stroke-miterlimit:10;" cx="57.194" cy="30.48" r="4.75"/>
				<circle style="fill:#FF3308;stroke:#B32A00;stroke-miterlimit:10;" cx="50.476" cy="37.198" r="4.751"/>
				<circle style="fill:#FF3308;stroke:#B32A00;stroke-miterlimit:10;" cx="43.758" cy="43.917" r="4.75"/>
				<circle style="fill:#FF3308;stroke:#B32A00;stroke-miterlimit:10;" cx="37.039" cy="50.635" r="4.751"/>
				<circle style="fill:#FF3308;stroke:#B32A00;stroke-miterlimit:10;" cx="30.321" cy="57.353" r="4.75"/>
				<circle style="fill:#FF3308;stroke:#B32A00;stroke-miterlimit:10;" cx="23.603" cy="64.071" r="4.751"/>
				<circle style="fill:#FF3308;stroke:#B32A00;stroke-miterlimit:10;" cx="16.884" cy="70.79" r="4.75"/>
				<circle style="fill:#FF3308;stroke:#B32A00;stroke-miterlimit:10;" cx="70.959" cy="16.714" r="4.75"/>
				<circle style="fill:#FF3308;stroke:#B32A00;stroke-miterlimit:10;" cx="67.139" cy="7.098" r="4.751"/>
				<circle style="fill:#FF3308;stroke:#B32A00;stroke-miterlimit:10;" cx="52.583" cy="21.654" r="4.751"/>
				<circle style="fill:#FF3308;stroke:#B32A00;stroke-miterlimit:10;" cx="45.865" cy="28.373" r="4.75"/>
				<circle style="fill:#FF3308;stroke:#B32A00;stroke-miterlimit:10;" cx="39.147" cy="35.091" r="4.751"/>
				<circle style="fill:#FF3308;stroke:#B32A00;stroke-miterlimit:10;" cx="32.428" cy="41.809" r="4.75"/>
				<circle style="fill:#FF3308;stroke:#B32A00;stroke-miterlimit:10;" cx="25.71" cy="48.527" r="4.751"/>
				<circle style="fill:#FF3308;stroke:#B32A00;stroke-miterlimit:10;" cx="18.992" cy="55.246" r="4.75"/>
				<circle style="fill:#FF3308;stroke:#B32A00;stroke-miterlimit:10;" cx="12.274" cy="61.964" r="4.751"/>
				<circle style="fill:#FF3308;stroke:#B32A00;stroke-miterlimit:10;" cx="5.555" cy="68.682" r="4.75"/>
				<circle style="fill:#FF3308;stroke:#B32A00;stroke-miterlimit:10;" cx="59.63" cy="14.607" r="4.75"/>
				<circle style="fill:#FF3308;stroke:#B32A00;stroke-miterlimit:10;" cx="49.488" cy="11.313" r="4.75"/>
				<circle style="fill:#FF3308;stroke:#B32A00;stroke-miterlimit:10;" cx="34.932" cy="25.87" r="4.751"/>
				<circle style="fill:#FF3308;stroke:#B32A00;stroke-miterlimit:10;" cx="28.213" cy="32.588" r="4.751"/>
				<circle style="fill:#FF3308;stroke:#B32A00;stroke-miterlimit:10;" cx="21.495" cy="39.306" r="4.75"/>
				<circle style="fill:#FF3308;stroke:#B32A00;stroke-miterlimit:10;" cx="14.777" cy="46.024" r="4.751"/>
				<circle style="fill:#FF3308;stroke:#B32A00;stroke-miterlimit:10;" cx="8.058" cy="52.743" r="4.75"/>
				<circle style="fill:#FF3308;stroke:#B32A00;stroke-miterlimit:10;" cx="1.34" cy="59.461" r="4.751"/>
				<circle style="fill:#FF3308;stroke:#B32A00;stroke-miterlimit:10;" cx="41.979" cy="18.822" r="4.75"/>
				<circle style="fill:#FF3308;stroke:#B32A00;stroke-miterlimit:10;" cx="32.626" cy="15.661" r="4.75"/>
				<circle style="fill:#FF3308;stroke:#B32A00;stroke-miterlimit:10;" cx="18.07" cy="30.216" r="4.75"/>
				<circle style="fill:#FF3308;stroke:#B32A00;stroke-miterlimit:10;" cx="11.351" cy="36.935" r="4.751"/>
				<circle style="fill:#FF3308;stroke:#B32A00;stroke-miterlimit:10;" cx="4.633" cy="43.653" r="4.75"/>
				<circle style="fill:#FF3308;stroke:#B32A00;stroke-miterlimit:10;" cx="-2.085" cy="50.371" r="4.751"/>
				<circle style="fill:#FF3308;stroke:#B32A00;stroke-miterlimit:10;" cx="25.117" cy="23.169" r="4.751"/>
			</g>
		</g>
		<g>
			<defs>
				<path id="SVGID_9_" d="M56.336,67.596l14.095,49.926c0,0-26.214,3.557-47.95-18.179C0.746,77.607,4.435,54.159,4.435,54.159
					L56.336,67.596z"/>
			</defs>
			<clipPath id="SVGID_3_">
				<use xlink:href="#SVGID_9_"  style="overflow:visible;"/>
			</clipPath>
			<g style="clip-path:url(#SVGID_3_);">
				<circle style="fill:#FF3308;stroke:#B32A00;stroke-miterlimit:10;" cx="13.572" cy="30.922" r="4.75"/>
				<circle style="fill:#FF3308;stroke:#B32A00;stroke-miterlimit:10;" cx="28.128" cy="45.478" r="4.75"/>
				<circle style="fill:#FF3308;stroke:#B32A00;stroke-miterlimit:10;" cx="34.846" cy="52.196" r="4.751"/>
				<circle style="fill:#FF3308;stroke:#B32A00;stroke-miterlimit:10;" cx="41.565" cy="58.915" r="4.75"/>
				<circle style="fill:#FF3308;stroke:#B32A00;stroke-miterlimit:10;" cx="48.283" cy="65.633" r="4.751"/>
				<circle style="fill:#FF3308;stroke:#B32A00;stroke-miterlimit:10;" cx="55.001" cy="72.351" r="4.75"/>
				<circle style="fill:#FF3308;stroke:#B32A00;stroke-miterlimit:10;" cx="61.719" cy="79.069" r="4.751"/>
				<circle style="fill:#FF3308;stroke:#B32A00;stroke-miterlimit:10;" cx="68.437" cy="85.788" r="4.75"/>
				<circle style="fill:#FF3308;stroke:#B32A00;stroke-miterlimit:10;" cx="75.155" cy="92.506" r="4.751"/>
				<circle style="fill:#FF3308;stroke:#B32A00;stroke-miterlimit:10;" cx="21.08" cy="38.431" r="4.751"/>
				<circle style="fill:#FF3308;stroke:#B32A00;stroke-miterlimit:10;" cx="8.567" cy="39.353" r="4.75"/>
				<circle style="fill:#FF3308;stroke:#B32A00;stroke-miterlimit:10;" cx="23.122" cy="53.909" r="4.751"/>
				<circle style="fill:#FF3308;stroke:#B32A00;stroke-miterlimit:10;" cx="29.841" cy="60.627" r="4.75"/>
				<circle style="fill:#FF3308;stroke:#B32A00;stroke-miterlimit:10;" cx="36.559" cy="67.346" r="4.751"/>
				<circle style="fill:#FF3308;stroke:#B32A00;stroke-miterlimit:10;" cx="43.277" cy="74.064" r="4.75"/>
				<circle style="fill:#FF3308;stroke:#B32A00;stroke-miterlimit:10;" cx="49.995" cy="80.782" r="4.751"/>
				<circle style="fill:#FF3308;stroke:#B32A00;stroke-miterlimit:10;" cx="56.714" cy="87.501" r="4.75"/>
				<circle style="fill:#FF3308;stroke:#B32A00;stroke-miterlimit:10;" cx="63.432" cy="94.219" r="4.751"/>
				<circle style="fill:#FF3308;stroke:#B32A00;stroke-miterlimit:10;" cx="70.15" cy="100.937" r="4.75"/>
				<circle style="fill:#FF3308;stroke:#B32A00;stroke-miterlimit:10;" cx="16.075" cy="46.861" r="4.751"/>
				<circle style="fill:#FF3308;stroke:#B32A00;stroke-miterlimit:10;" cx="5.668" cy="49.759" r="4.75"/>
				<circle style="fill:#FF3308;stroke:#B32A00;stroke-miterlimit:10;" cx="20.224" cy="64.315" r="4.751"/>
				<circle style="fill:#FF3308;stroke:#B32A00;stroke-miterlimit:10;" cx="26.943" cy="71.034" r="4.75"/>
				<circle style="fill:#FF3308;stroke:#B32A00;stroke-miterlimit:10;" cx="33.661" cy="77.752" r="4.751"/>
				<circle style="fill:#FF3308;stroke:#B32A00;stroke-miterlimit:10;" cx="40.379" cy="84.471" r="4.751"/>
				<circle style="fill:#FF3308;stroke:#B32A00;stroke-miterlimit:10;" cx="47.097" cy="91.189" r="4.75"/>
				<circle style="fill:#FF3308;stroke:#B32A00;stroke-miterlimit:10;" cx="53.816" cy="97.907" r="4.75"/>
				<circle style="fill:#FF3308;stroke:#B32A00;stroke-miterlimit:10;" cx="60.534" cy="104.625" r="4.751"/>
				<circle style="fill:#FF3308;stroke:#B32A00;stroke-miterlimit:10;" cx="67.252" cy="111.344" r="4.751"/>
				<circle style="fill:#FF3308;stroke:#B32A00;stroke-miterlimit:10;" cx="13.176" cy="57.269" r="4.751"/>
				<circle style="fill:#FF3308;stroke:#B32A00;stroke-miterlimit:10;" cx="3.561" cy="61.088" r="4.75"/>
				<circle style="fill:#FF3308;stroke:#B32A00;stroke-miterlimit:10;" cx="18.117" cy="75.645" r="4.751"/>
				<circle style="fill:#FF3308;stroke:#B32A00;stroke-miterlimit:10;" cx="24.835" cy="82.363" r="4.75"/>
				<circle style="fill:#FF3308;stroke:#B32A00;stroke-miterlimit:10;" cx="31.553" cy="89.081" r="4.751"/>
				<circle style="fill:#FF3308;stroke:#B32A00;stroke-miterlimit:10;" cx="38.272" cy="95.799" r="4.75"/>
				<circle style="fill:#FF3308;stroke:#B32A00;stroke-miterlimit:10;" cx="44.99" cy="102.518" r="4.751"/>
				<circle style="fill:#FF3308;stroke:#B32A00;stroke-miterlimit:10;" cx="51.708" cy="109.236" r="4.751"/>
				<circle style="fill:#FF3308;stroke:#B32A00;stroke-miterlimit:10;" cx="58.426" cy="115.955" r="4.751"/>
				<circle style="fill:#FF3308;stroke:#B32A00;stroke-miterlimit:10;" cx="65.145" cy="122.673" r="4.75"/>
				<circle style="fill:#FF3308;stroke:#B32A00;stroke-miterlimit:10;" cx="11.069" cy="68.597" r="4.751"/>
				<circle style="fill:#FF3308;stroke:#B32A00;stroke-miterlimit:10;" cx="7.776" cy="78.74" r="4.751"/>
				<circle style="fill:#FF3308;stroke:#B32A00;stroke-miterlimit:10;" cx="22.332" cy="93.296" r="4.75"/>
				<circle style="fill:#FF3308;stroke:#B32A00;stroke-miterlimit:10;" cx="29.05" cy="100.014" r="4.75"/>
				<circle style="fill:#FF3308;stroke:#B32A00;stroke-miterlimit:10;" cx="35.768" cy="106.732" r="4.751"/>
				<circle style="fill:#FF3308;stroke:#B32A00;stroke-miterlimit:10;" cx="42.487" cy="113.451" r="4.751"/>
				<circle style="fill:#FF3308;stroke:#B32A00;stroke-miterlimit:10;" cx="49.205" cy="120.17" r="4.751"/>
				<circle style="fill:#FF3308;stroke:#B32A00;stroke-miterlimit:10;" cx="55.923" cy="126.888" r="4.75"/>
				<circle style="fill:#FF3308;stroke:#B32A00;stroke-miterlimit:10;" cx="15.285" cy="86.249" r="4.751"/>
				<circle style="fill:#FF3308;stroke:#B32A00;stroke-miterlimit:10;" cx="12.123" cy="95.602" r="4.751"/>
				<circle style="fill:#FF3308;stroke:#B32A00;stroke-miterlimit:10;" cx="26.679" cy="110.158" r="4.751"/>
				<circle style="fill:#FF3308;stroke:#B32A00;stroke-miterlimit:10;" cx="33.398" cy="116.876" r="4.75"/>
				<circle style="fill:#FF3308;stroke:#B32A00;stroke-miterlimit:10;" cx="40.116" cy="123.595" r="4.751"/>
				<circle style="fill:#FF3308;stroke:#B32A00;stroke-miterlimit:10;" cx="19.632" cy="103.11" r="4.75"/>
			</g>
		</g>
		<g>
			<defs>
				<path id="SVGID_11_" d="M101.695,24.399L59.411,66.686l13.963,49.267c0,0,14.358,0.131,28.717-19.496
					C116.449,76.828,124.353,46.004,101.695,24.399z"/>
			</defs>
			<clipPath id="SVGID_4_">
				<use xlink:href="#SVGID_11_"  style="overflow:visible;"/>
			</clipPath>
			<g style="clip-path:url(#SVGID_4_);">
				<circle style="fill:#FF3308;stroke:#B32A00;stroke-miterlimit:10;" cx="104.573" cy="28.987" r="4.751"/>
				<circle style="fill:#FF3308;stroke:#B32A00;stroke-miterlimit:10;" cx="90.017" cy="43.544" r="4.751"/>
				<circle style="fill:#FF3308;stroke:#B32A00;stroke-miterlimit:10;" cx="83.299" cy="50.262" r="4.75"/>
				<circle style="fill:#FF3308;stroke:#B32A00;stroke-miterlimit:10;" cx="76.58" cy="56.981" r="4.751"/>
				<circle style="fill:#FF3308;stroke:#B32A00;stroke-miterlimit:10;" cx="69.862" cy="63.699" r="4.75"/>
				<circle style="fill:#FF3308;stroke:#B32A00;stroke-miterlimit:10;" cx="63.144" cy="70.417" r="4.751"/>
				<circle style="fill:#FF3308;stroke:#B32A00;stroke-miterlimit:10;" cx="56.425" cy="77.135" r="4.75"/>
				<circle style="fill:#FF3308;stroke:#B32A00;stroke-miterlimit:10;" cx="49.707" cy="83.854" r="4.751"/>
				<circle style="fill:#FF3308;stroke:#B32A00;stroke-miterlimit:10;" cx="42.989" cy="90.572" r="4.75"/>
				<circle style="fill:#FF3308;stroke:#B32A00;stroke-miterlimit:10;" cx="97.064" cy="36.496" r="4.75"/>
				<circle style="fill:#FF3308;stroke:#B32A00;stroke-miterlimit:10;" cx="109.579" cy="37.418" r="4.751"/>
				<circle style="fill:#FF3308;stroke:#B32A00;stroke-miterlimit:10;" cx="95.022" cy="51.974" r="4.75"/>
				<circle style="fill:#FF3308;stroke:#B32A00;stroke-miterlimit:10;" cx="88.304" cy="58.692" r="4.751"/>
				<circle style="fill:#FF3308;stroke:#B32A00;stroke-miterlimit:10;" cx="81.586" cy="65.411" r="4.75"/>
				<circle style="fill:#FF3308;stroke:#B32A00;stroke-miterlimit:10;" cx="74.868" cy="72.129" r="4.75"/>
				<circle style="fill:#FF3308;stroke:#B32A00;stroke-miterlimit:10;" cx="68.15" cy="78.847" r="4.75"/>
				<circle style="fill:#FF3308;stroke:#B32A00;stroke-miterlimit:10;" cx="61.431" cy="85.565" r="4.75"/>
				<circle style="fill:#FF3308;stroke:#B32A00;stroke-miterlimit:10;" cx="54.713" cy="92.284" r="4.75"/>
				<circle style="fill:#FF3308;stroke:#B32A00;stroke-miterlimit:10;" cx="47.995" cy="99.002" r="4.751"/>
				<circle style="fill:#FF3308;stroke:#B32A00;stroke-miterlimit:10;" cx="102.071" cy="44.926" r="4.75"/>
				<circle style="fill:#FF3308;stroke:#B32A00;stroke-miterlimit:10;" cx="112.477" cy="47.825" r="4.75"/>
				<circle style="fill:#FF3308;stroke:#B32A00;stroke-miterlimit:10;" cx="97.921" cy="62.381" r="4.751"/>
				<circle style="fill:#FF3308;stroke:#B32A00;stroke-miterlimit:10;" cx="91.203" cy="69.099" r="4.75"/>
				<circle style="fill:#FF3308;stroke:#B32A00;stroke-miterlimit:10;" cx="84.485" cy="75.817" r="4.751"/>
				<circle style="fill:#FF3308;stroke:#B32A00;stroke-miterlimit:10;" cx="77.766" cy="82.536" r="4.75"/>
				<circle style="fill:#FF3308;stroke:#B32A00;stroke-miterlimit:10;" cx="71.048" cy="89.254" r="4.751"/>
				<circle style="fill:#FF3308;stroke:#B32A00;stroke-miterlimit:10;" cx="64.33" cy="95.972" r="4.75"/>
				<circle style="fill:#FF3308;stroke:#B32A00;stroke-miterlimit:10;" cx="57.612" cy="102.69" r="4.751"/>
				<circle style="fill:#FF3308;stroke:#B32A00;stroke-miterlimit:10;" cx="50.893" cy="109.409" r="4.75"/>
				<circle style="fill:#FF3308;stroke:#B32A00;stroke-miterlimit:10;" cx="104.968" cy="55.334" r="4.75"/>
				<circle style="fill:#FF3308;stroke:#B32A00;stroke-miterlimit:10;" cx="114.584" cy="59.154" r="4.75"/>
				<circle style="fill:#FF3308;stroke:#B32A00;stroke-miterlimit:10;" cx="100.029" cy="73.71" r="4.751"/>
				<circle style="fill:#FF3308;stroke:#B32A00;stroke-miterlimit:10;" cx="93.31" cy="80.428" r="4.75"/>
				<circle style="fill:#FF3308;stroke:#B32A00;stroke-miterlimit:10;" cx="86.592" cy="87.147" r="4.751"/>
				<circle style="fill:#FF3308;stroke:#B32A00;stroke-miterlimit:10;" cx="79.874" cy="93.865" r="4.75"/>
				<circle style="fill:#FF3308;stroke:#B32A00;stroke-miterlimit:10;" cx="73.155" cy="100.583" r="4.75"/>
				<circle style="fill:#FF3308;stroke:#B32A00;stroke-miterlimit:10;" cx="66.437" cy="107.301" r="4.751"/>
				<circle style="fill:#FF3308;stroke:#B32A00;stroke-miterlimit:10;" cx="59.719" cy="114.02" r="4.751"/>
				<circle style="fill:#FF3308;stroke:#B32A00;stroke-miterlimit:10;" cx="53.001" cy="120.738" r="4.75"/>
				<circle style="fill:#FF3308;stroke:#B32A00;stroke-miterlimit:10;" cx="107.076" cy="66.663" r="4.75"/>
				<circle style="fill:#FF3308;stroke:#B32A00;stroke-miterlimit:10;" cx="110.369" cy="76.805" r="4.75"/>
				<circle style="fill:#FF3308;stroke:#B32A00;stroke-miterlimit:10;" cx="95.812" cy="91.362" r="4.75"/>
				<circle style="fill:#FF3308;stroke:#B32A00;stroke-miterlimit:10;" cx="89.095" cy="98.08" r="4.751"/>
				<circle style="fill:#FF3308;stroke:#B32A00;stroke-miterlimit:10;" cx="82.377" cy="104.798" r="4.75"/>
				<circle style="fill:#FF3308;stroke:#B32A00;stroke-miterlimit:10;" cx="75.659" cy="111.516" r="4.75"/>
				<circle style="fill:#FF3308;stroke:#B32A00;stroke-miterlimit:10;" cx="68.941" cy="118.234" r="4.751"/>
				<circle style="fill:#FF3308;stroke:#B32A00;stroke-miterlimit:10;" cx="62.222" cy="124.953" r="4.75"/>
				<circle style="fill:#FF3308;stroke:#B32A00;stroke-miterlimit:10;" cx="102.861" cy="84.314" r="4.75"/>
				<circle style="fill:#FF3308;stroke:#B32A00;stroke-miterlimit:10;" cx="106.022" cy="93.667" r="4.75"/>
				<circle style="fill:#FF3308;stroke:#B32A00;stroke-miterlimit:10;" cx="91.467" cy="108.223" r="4.75"/>
				<circle style="fill:#FF3308;stroke:#B32A00;stroke-miterlimit:10;" cx="84.748" cy="114.941" r="4.751"/>
				<circle style="fill:#FF3308;stroke:#B32A00;stroke-miterlimit:10;" cx="78.03" cy="121.66" r="4.751"/>
				<circle style="fill:#FF3308;stroke:#B32A00;stroke-miterlimit:10;" cx="71.312" cy="128.378" r="4.75"/>
				<circle style="fill:#FF3308;stroke:#B32A00;stroke-miterlimit:10;" cx="98.513" cy="101.176" r="4.751"/>
			</g>
		</g>
	</g>
</g>
</svg>
