<?xml version="1.0" encoding="utf-8"?>
<!-- Generator: Adobe Illustrator 17.0.0, SVG Export Plug-In . SVG Version: 6.00 Build 0)  -->
<!DOCTYPE svg PUBLIC "-//W3C//DTD SVG 1.1//EN" "http://www.w3.org/Graphics/SVG/1.1/DTD/svg11.dtd">
<svg version="1.1" id="图层_1" xmlns="http://www.w3.org/2000/svg" xmlns:xlink="http://www.w3.org/1999/xlink" x="0px" y="0px"
	 width="64px" height="64px" viewBox="0 0 64 64" enable-background="new 0 0 64 64" xml:space="preserve">
<path fill="#E0995E" d="M32,0c17.673,0,32,14.327,32,32S49.673,64,32,64S0,49.673,0,32S14.327,0,32,0z"/>
<path opacity="0.2" fill="#231F20" d="M54.083,21.25c-0.882-1.528-2.937-3.35-7.717-3.35c-1.643,0-3.471,0.225-5.414,0.646
	C38.966,12.364,35.757,8.5,32,8.5s-6.966,3.864-8.953,10.047c-1.943-0.421-3.771-0.646-5.414-0.646c-4.78,0-6.835,1.821-7.717,3.35
	C8.041,24.498,9.775,29.198,14.117,34c-4.343,4.802-6.076,9.502-4.201,12.75c0.882,1.528,2.937,3.35,7.717,3.35
	c1.643,0,3.471-0.225,5.414-0.646C25.034,55.636,28.243,59.5,32,59.5s6.966-3.864,8.953-10.047c1.943,0.421,3.771,0.646,5.414,0.646
	c4.78,0,6.835-1.821,7.717-3.35c1.875-3.248,0.142-7.948-4.201-12.75C54.225,29.198,55.959,24.498,54.083,21.25z M46.367,20.9
	c2.612,0,4.43,0.656,5.119,1.85c1.072,1.857-0.297,5.281-3.722,9.097c-1.463-1.378-3.129-2.747-4.973-4.077
	c-0.229-2.253-0.58-4.373-1.039-6.322C43.409,21.101,44.972,20.9,46.367,20.9z M36.05,41.015c-1.345,0.777-2.7,1.471-4.05,2.114
	c-1.35-0.643-2.705-1.337-4.05-2.114c-1.374-0.793-2.662-1.612-3.872-2.442C23.964,37.111,23.9,35.586,23.9,34
	s0.065-3.111,0.179-4.573c1.209-0.83,2.498-1.648,3.872-2.442c1.345-0.777,2.7-1.471,4.05-2.114c1.35,0.643,2.705,1.337,4.05,2.114
	c1.374,0.793,2.662,1.612,3.872,2.442C40.036,30.889,40.1,32.414,40.1,34s-0.065,3.111-0.179,4.573
	C38.712,39.403,37.424,40.221,36.05,41.015z M39.468,42.457c-0.181,1.174-0.397,2.287-0.644,3.339
	c-1.057-0.318-2.133-0.677-3.235-1.104c0.656-0.347,1.31-0.704,1.96-1.079C38.206,43.234,38.843,42.847,39.468,42.457z
	 M28.411,44.691c-1.102,0.427-2.178,0.786-3.235,1.104c-0.247-1.052-0.463-2.165-0.644-3.339c0.625,0.39,1.263,0.777,1.919,1.155
	C27.101,43.988,27.755,44.344,28.411,44.691z M20.941,36.239c-0.931-0.748-1.79-1.496-2.581-2.239
	c0.791-0.743,1.65-1.491,2.581-2.239C20.916,32.498,20.9,33.243,20.9,34S20.916,35.502,20.941,36.239z M24.532,25.543
	c0.181-1.174,0.397-2.287,0.644-3.339c1.057,0.318,2.133,0.677,3.235,1.104c-0.656,0.347-1.31,0.704-1.96,1.079
	C25.794,24.766,25.157,25.153,24.532,25.543z M35.589,23.309c1.102-0.427,2.178-0.786,3.235-1.104
	c0.247,1.052,0.463,2.165,0.644,3.339c-0.625-0.39-1.263-0.777-1.919-1.155C36.899,24.012,36.245,23.656,35.589,23.309z
	 M43.059,31.761C43.99,32.509,44.85,33.256,45.64,34c-0.791,0.743-1.65,1.491-2.581,2.239C43.084,35.502,43.1,34.757,43.1,34
	S43.084,32.498,43.059,31.761z M32,11.5c2.149,0,4.436,2.91,6.03,7.805c-1.953,0.585-3.981,1.342-6.03,2.254
	c-2.048-0.912-4.077-1.669-6.03-2.254C27.564,14.41,29.851,11.5,32,11.5z M12.514,22.75c0.689-1.193,2.507-1.85,5.119-1.85
	c1.395,0,2.958,0.201,4.614,0.548c-0.459,1.95-0.81,4.069-1.039,6.322c-1.845,1.33-3.51,2.699-4.973,4.077
	C12.811,28.031,11.442,24.607,12.514,22.75z M17.633,47.1c-2.612,0-4.43-0.656-5.119-1.85c-1.072-1.857,0.297-5.281,3.722-9.097
	c1.463,1.378,3.129,2.747,4.973,4.077c0.229,2.253,0.58,4.373,1.039,6.322C20.591,46.899,19.028,47.1,17.633,47.1z M32,56.5
	c-2.149,0-4.436-2.91-6.03-7.805c1.953-0.585,3.981-1.342,6.03-2.254c2.048,0.912,4.077,1.669,6.03,2.254
	C36.436,53.59,34.149,56.5,32,56.5z M51.486,45.25c-0.689,1.193-2.507,1.85-5.119,1.85c-1.395,0-2.958-0.201-4.614-0.548
	c0.459-1.95,0.81-4.069,1.039-6.322c1.845-1.33,3.51-2.699,4.973-4.077C51.189,39.969,52.558,43.393,51.486,45.25z M32,31
	c1.657,0,3,1.343,3,3s-1.343,3-3,3c-1.657,0-3-1.343-3-3S30.343,31,32,31z"/>
<path fill="#FFFFFF" d="M32,57.5c-6.328,0-11.1-10.963-11.1-25.5S25.672,6.5,32,6.5S43.1,17.463,43.1,32S38.328,57.5,32,57.5z
	 M32,9.5c-3.831,0-8.1,9.24-8.1,22.5s4.269,22.5,8.1,22.5s8.1-9.24,8.1-22.5S35.831,9.5,32,9.5z M17.633,48.1
	c-4.78,0-6.835-1.821-7.717-3.35C6.752,39.27,13.86,29.655,26.45,22.388c7.036-4.062,14.481-6.487,19.917-6.487
	c4.78,0,6.835,1.821,7.717,3.35c3.164,5.48-3.944,15.095-16.534,22.362C30.514,45.675,23.069,48.1,17.633,48.1z M46.367,18.9
	c-4.932,0-11.817,2.274-18.417,6.085c-11.483,6.63-17.352,14.946-15.436,18.265c0.689,1.193,2.507,1.85,5.119,1.85
	c4.932,0,11.817-2.274,18.417-6.085c11.483-6.63,17.352-14.946,15.436-18.265C50.797,19.557,48.979,18.9,46.367,18.9z M46.367,48.1
	c-5.436,0-12.881-2.425-19.917-6.487C13.86,34.345,6.752,24.73,9.917,19.25c0.882-1.528,2.937-3.35,7.717-3.35
	c5.436,0,12.881,2.425,19.917,6.487C50.14,29.655,57.248,39.27,54.083,44.75C53.202,46.278,51.146,48.1,46.367,48.1z M17.633,18.9
	c-2.612,0-4.43,0.656-5.119,1.85c-1.916,3.318,3.953,11.635,15.436,18.265c6.6,3.811,13.484,6.085,18.417,6.085
	c2.612,0,4.43-0.656,5.119-1.85c1.916-3.318-3.953-11.635-15.436-18.265C29.45,21.175,22.565,18.9,17.633,18.9z M32,29
	c1.657,0,3,1.343,3,3c0,1.657-1.343,3-3,3c-1.657,0-3-1.343-3-3C29,30.343,30.343,29,32,29z"/>
</svg>
