<?xml version="1.0" encoding="utf-8"?>
<!-- Generator: Adobe Illustrator 17.0.0, SVG Export Plug-In . SVG Version: 6.00 Build 0)  -->
<!DOCTYPE svg PUBLIC "-//W3C//DTD SVG 1.1//EN" "http://www.w3.org/Graphics/SVG/1.1/DTD/svg11.dtd">
<svg version="1.1" id="图层_2" xmlns="http://www.w3.org/2000/svg" xmlns:xlink="http://www.w3.org/1999/xlink" x="0px" y="0px"
	 width="24.389px" height="116.67px" viewBox="3.111 0 24.389 116.67" enable-background="new 3.111 0 24.389 116.67"
	 xml:space="preserve">
<g id="Spoon">
	<g>
		<path fill="#B7B7B7" d="M22.944,108.947c0-4.935-2.797-24.553-3.811-33.671c-1.015-9.118-2.61-35.517-2.61-35.517
			s0.486-2.784,3.642-5.465c3.155-2.681,7.578-7.599,7.325-16.084C27.24,9.726,21.428-0.198,15.345,0.003h-0.014
			C9.247-0.178,3.403,9.763,3.124,18.25c-0.28,8.485,4.124,13.389,7.271,16.06c3.147,2.671,3.625,5.453,3.625,5.453
			s-1.581,26.432-2.592,35.513c-1.012,9.118-3.81,28.736-3.81,33.671c0,4.934,4.507,7.723,7.663,7.723
			C18.436,116.67,22.944,113.881,22.944,108.947z"/>
		<path fill="#D0D0D0" d="M22.523,108.545c0-4.899-2.642-24.375-3.601-33.427c-0.959-9.051-2.467-35.259-2.467-35.259
			s0.46-2.763,3.442-5.425c2.981-2.661,7.16-7.543,6.923-15.966S21.091,0.193,15.343,0.393h-0.015
			c-5.747-0.18-11.271,9.69-11.535,18.114s3.897,13.292,6.871,15.944c2.974,2.651,3.426,5.413,3.426,5.413
			s-1.494,26.241-2.449,35.255c-0.957,9.052-3.601,28.528-3.601,33.427c0,4.898,4.26,7.667,7.241,7.667
			C18.264,116.212,22.523,113.443,22.523,108.545z"/>
	</g>
	<g opacity="0.5">
		<path fill="#FFFFFF" d="M14.456,2.538c-1.841-0.058-4.055,1.737-5.923,4.801c-2.011,3.298-3.281,7.498-3.398,11.232
			c-0.008,0.233-0.011,0.465-0.011,0.692c0,5.44,2.016,9.882,6.164,13.581c1.586,1.414,2.572,2.866,3.181,4.055l0.143-34.362
			L14.456,2.538L14.456,2.538z"/>
		<path fill="#FFFFFF" d="M21.22,108.348c0-3.244-1.209-13.233-2.275-22.046c-0.517-4.28-1.007-8.322-1.318-11.267
			c-0.907-8.569-1.922-33.16-2.061-35.549l-0.513,75.456C17.628,114.941,21.22,112.433,21.22,108.348z"/>
	</g>
</g>
</svg>
