<?xml version="1.0" encoding="utf-8"?>
<!-- Generator: Adobe Illustrator 17.0.0, SVG Export Plug-In . SVG Version: 6.00 Build 0)  -->
<!DOCTYPE svg PUBLIC "-//W3C//DTD SVG 1.1//EN" "http://www.w3.org/Graphics/SVG/1.1/DTD/svg11.dtd">
<svg version="1.1" id="图层_1" xmlns="http://www.w3.org/2000/svg" xmlns:xlink="http://www.w3.org/1999/xlink" x="0px" y="0px"
	 width="251.659px" height="209.585px" viewBox="0 0 251.659 209.585" enable-background="new 0 0 251.659 209.585"
	 xml:space="preserve">
<path fill="#E71F19" d="M222.057,44.742c2.993-0.467,6.449,0.31,8.764-0.531c2.213-0.044,4.427-0.089,6.64-0.133
	c4.926-0.767,10.164,0.93,13.81-0.93c0.854-0.853,0.038-8.7,0-11.155c-2.906-1.434-9.871-0.504-13.81,0.133
	c-5.421,0.876-11.172-0.332-16.865,0.664c-4.304,0.753-14.293,1.698-19.122,0.797c-1.216-2.337-0.644-7.361-0.531-10.092
	c2.283-1.378,6.003-0.15,9.295-0.797c6.949-0.354,13.9-0.708,20.848-1.062c3.078-0.192,11.366,0.086,12.084-1.062
	c1.018-1.628-0.255-7.648-0.531-9.694c-0.811-0.578-8.521,0.465-10.623,0.531c-10.357-0.044-20.717-0.089-31.073-0.133
	c-1.125-2.108-1.235-7.043-1.195-9.959c-1.565-0.574-3.829,0.059-5.71-0.531c-3.218-1.01-14.449-0.94-18.06-0.398
	c-2.358,0.354-5.133-0.263-6.905,0.531c-2.523,0.133-5.046,0.266-7.569,0.398c-1.385,1.222-0.394,8.45-1.062,10.756
	c-6.46,2.375-15.314-0.111-22.707,0.93c-3.895-0.044-7.791-0.089-11.686-0.133c-11.114,1.064-24.485,0.644-34.26,0.133
	C91.02,11.194,91.169,2.38,90.194,1.85c-2.611-0.044-5.224-0.089-7.835-0.133C77.469-0.032,66.236,1.03,61.644,1.85
	c-2.501,0.446-5.576-0.387-7.702,0.266c-0.91,0.126-0.845,0.42-1.461,0.797c-0.001,3.382-0.249,7.746-0.398,9.959
	c-8.904,0.855-20.036,0.266-29.878,0.266c-2.808,0-10.167-0.954-12.217,0.133c-2.345,1.357-0.32,8.644-0.133,9.959
	c4.205,0.089,8.411,0.177,12.615,0.266c8.876,1.43,20.653,0.93,29.48,0.93c0.934,2.124,0.487,7.033,0.266,9.959
	c-0.31,0.266-0.62,0.531-0.93,0.797c-3.098,0-6.197,0-9.295,0c-1.062-0.133-2.125-0.266-3.187-0.398
	c-2.258,0.571-7.428,0.068-10.225-0.266c-3.452-0.044-6.906-0.089-10.358-0.133c-5.032-0.787-10.904-0.675-16.732-0.664
	c-0.31,0.31-0.62,0.62-0.93,0.93c-1.038,1.067-0.327,9.152-0.266,10.756c0.416,0.416,0.75,0.501,1.062,1.062
	c8.188,0.044,16.378,0.089,24.567,0.133c4.264,0,9.619-0.521,12.881,0.531c3.871,1.249,9.632-0.319,13.146,1.062
	c0.268,1.33,1.032,10.116,0.133,11.022c-1.927,1.552-5.735,0.465-8.499,0.93c-4.022,0.676-9.846,0.728-13.81,1.594
	c-1.328,0.133-2.656,0.266-3.984,0.398c-0.927,0.678-0.724,1.187-1.328,2.257c-1.071,1.898-1.866,3.169-2.257,5.444
	c0,2.257,0,4.515,0,6.772c-0.044,2.567-0.089,5.135-0.133,7.702c-0.044,3.098-0.089,6.197-0.133,9.295
	c0.089,4.205,0.177,8.411,0.266,12.615c0.906,6.085-0.367,13.424,1.992,17.927c0.31,0.177,0.62,0.354,0.93,0.531
	c0.044,0.398,0.089,0.797,0.133,1.195c0.473,0.773,1.586,0.74,2.257,1.328c1.706,1.494,4.535,3.544,6.64,4.117
	c2.434-0.089,4.869-0.177,7.304-0.266c4.636-0.692,11.03-0.286,15.138,0.266c0.591,1.707,1.376,9.596,0.664,10.889
	c-1.226,1.849-11.328,1.348-14.607,1.859c-5.746,0.896-10.883,0.152-16.732,1.062c-3.01,0.044-6.02,0.089-9.03,0.133
	c-4.267,0.663-8.883-0.714-12.482,0.664c-1.905,1.554-1.932,8.602-0.93,11.022c5.951,0.86,15.292,0.688,21.911,0.133
	c2.833-0.044,5.666-0.088,8.499-0.133c3.983-0.044,7.968-0.088,11.951-0.133c2.401-1.097,8.141-0.659,11.022-0.398
	c1.58,2.122,1.813,7.843,1.461,10.889c-2.869,2.066-16.845,1.852-21.911,1.859c-2.442,0.003-8.504-0.237-9.694,0.797
	c-1.797,1.562-3.469,4.079-4.249,6.772c-1.338,4.616-0.771,22.956,0.93,26.426c0.903,1.842,3.73,3.798,5.577,5.046
	c3.556,2.402,17.064,0.93,22.707,0.93c16.227-0.001,30.066-0.532,47.008-0.531c9.238,0,15.789,1.434,20.317-3.453
	c0.609-0.657,1.484-0.475,1.992-1.195c1.856-2.629,1.858-8.512,1.859-12.748c0.002-9.868-0.055-18.244-5.577-22.043
	c-0.969-0.667-7.097-0.133-8.897-0.133c-4.293-0.044-8.588-0.089-12.881-0.133c-2.653-0.434-5.365-0.814-8.499-0.797
	c-1.482-2.285-0.811-8.372,0-11.686c9.649-0.044,19.3-0.088,28.949-0.133c9.162-0.044,18.326-0.088,27.488-0.133
	c7.307-1.327,16.971-1.167,24.965-0.664c0.704,3.117,0.882,8.208,0.531,11.686c-5.503,0.969-12.662,1.099-19.122,1.062
	c-0.512,0.423-9.329,0.823-12.084,0.797c-1.528,1.812-3.238,3.794-4.249,6.108c-0.089,1.903-0.177,3.807-0.266,5.71
	c-0.977,5.131-0.372,20.004,1.992,22.973c0.789,0.991,4.871,3.917,6.108,4.515c4.559,0,9.119,0,13.678,0
	c12.197-0.001,23.963-0.781,35.455-0.93c7.923-0.044,15.847-0.089,23.77-0.133c3.174,0.004,7.225,1.65,10.358,0
	c0.47-0.016,7.436-4.36,8.1-4.913c0.655-0.545,0.574-1.578,1.062-2.125c-0.752-0.088-1.505-0.177-2.257-0.266
	c0.797-0.044,1.594-0.089,2.39-0.133c1.396-9.793,2.43-27.842-4.249-32.401c-1.522-1.039-6.47-0.266-8.631-0.266
	c-7.153,0.001-15.389,0.743-21.247-0.93c-0.4-0.211-0.453-0.272-0.664-0.664c-0.635-0.872-0.282-10.026,0.266-10.358
	c16.553,0,33.111,0,49.664,0c0.261-0.525,0.217-0.57,0.797-0.797c0.825-2.658,0.08-8.332,0-11.022
	c-0.613-0.191-0.743-0.127-0.93-0.797c-16.681-0.01-35.397,1.128-49.664-1.195c-0.602-3.013-0.896-8.835,0.133-11.686
	c8.224-2.403,21.163,2.229,27.222-3.32c0.487-0.133,0.974-0.266,1.461-0.398c3.109-2.81,5.659-9.144,4.913-15.138
	c-0.044-2.301-0.089-4.604-0.133-6.905c0-3.187,0-6.374,0-9.561c-0.089-5.931-0.177-11.863-0.266-17.794
	c-0.635-3.889,0.459-8.347-0.797-11.022c-0.833-1.775-2.247-3.338-3.054-5.312c-2.656-0.31-5.312-0.62-7.968-0.93
	c-2.587-0.394-5.756,0.213-7.702-0.664c-1.682,0-3.364,0-5.046,0c-1.72-0.263-4.183-0.444-5.577-0.797
	c-1.424-2.454-1.184-9.613-0.133-11.951C208.755,44.975,215.987,45.689,222.057,44.742z M91.522,24.823
	c0.893-1.102,5.753-0.531,7.968-0.531c5.051,0,10.31,0.19,14.74-0.531c2.197-0.358,5.456,0.628,7.171-0.266c2.39,0,4.781,0,7.171,0
	c7.347,0.177,14.696,0.354,22.043,0.531c3.892,0.674,7.016-1.135,10.092,0.133c0.697,2.649,0.849,7.381,0.133,9.827
	c-0.31,0.398-0.62,0.797-0.93,1.195c-9.037-0.097-20.36-0.797-30.808-0.797c-3.674,0-7.348,0-11.022,0
	c-2.39,0.133-4.781,0.266-7.171,0.398c-2.633,1.064-16.174,0.8-19.255,0.398C91.253,33.217,90.352,26.813,91.522,24.823z
	 M98.295,182.978c1.07,3.738-0.056,6.138,0.398,9.827c-2.751,1.11-7.489,0.565-12.217,0.133c-8.896,0.044-17.795,0.089-26.691,0.133
	c-3.631,0-10.385,1.726-12.881,0.398c-1.026-0.757-0.577-8.842-0.266-9.959c0.266-0.221,0.531-0.443,0.797-0.664
	c4.557,0,7.966-0.291,12.084-0.93c3.683-0.571,7.199,0.284,9.959-0.797C80.277,181.145,88.582,181.872,98.295,182.978z
	 M84.219,109.279c-0.921,0.899-1.815,2.254-2.789,3.054c-0.398,0.133-0.797,0.266-1.195,0.398c-0.221,0.443-0.443,0.885-0.664,1.328
	c-1.627,1.003-6.465,5.212-6.64,6.772c-0.266,0.044-0.531,0.089-0.797,0.133c-2.569-0.239-8.712-8.736-10.756-10.092
	c-4.321-2.867-13.51-7.125-15.669-11.287c-3.607-6.95-2.76-16.564,2.789-21.247c1.942-1.639,4.428-1.387,7.038-2.523
	c3.473-0.01,8.998,0.937,10.756,2.523c1.132,1.021,3.178,2.531,5.046,2.656c2.128,0.142,2.768-0.864,3.851-1.726
	c1.434-1.142,5.868-2.546,7.968-2.921c9.675-1.73,13.17,2.766,15.669,8.499c1.06,2.431,1.891,9.331,0.531,11.951
	c-1.174,2.263-3.292,5.037-5.179,6.905c-0.575,0.177-1.151,0.354-1.726,0.531c-1.303,0.966-2.754,1.785-4.117,2.921
	C87.306,108.012,85.198,108.323,84.219,109.279z M167.878,142.078c-3.853,1.616-9.862,0.619-14.209,1.328
	c-1.682,0.044-3.364,0.089-5.046,0.133c-4.231,1.267-9.21-0.288-13.943,0.531c-4.019,0.695-10.422,0.805-14.607,0.133
	c-6.462-0.088-12.926-0.177-19.388-0.266c-3.053-0.878-10.348-1.093-13.545-1.328c-1.27-2.286-0.358-8.056-0.133-11.022
	c4.248-2.908,15.779,0.329,22.176-0.93c3.438-0.676,6.133-1.952,8.366-3.718c4.319-3.415,4.25-12.23,4.249-19.919
	c-0.001-9.187,0.651-19.719-0.531-27.754c-0.133-3.762-0.266-7.525-0.398-11.287c-0.595-2.093-2.438-4.615-2.789-5.71
	c-1.535-1.173-4.763-0.576-7.038-0.93c-2.966-0.461-6.111-0.637-8.897-1.062c-3.764-0.575-7.776,0.433-10.491-1.062
	c-1.45-0.947-0.446-9.57,0.133-11.287c1.596-0.959,4.432-0.178,6.772-0.531c7.214-0.354,14.431-0.708,21.645-1.062
	c9.206,0.089,18.415,0.177,27.621,0.266c4.211,0,10.367-0.681,13.279,0.797c0.522,1.303,1.321,9.825,0.531,10.756
	c-1.183,2.037-4.93,0.661-7.702,1.328c-5.442,1.31-13.841,0.407-18.591,2.523c-3.525,2.084-3.321,10.02-3.32,16.068
	c0.001,10.028,0.266,19.781,0.266,29.214c0,5.935,0.542,10.704,2.125,14.74c0.221,1.018,0.443,2.036,0.664,3.054
	c5.503,6.845,19.596,4.738,31.604,4.648C168.295,131.838,168.842,139.262,167.878,142.078z M201.739,180.986
	c2.788,0.044,5.578,0.089,8.366,0.133c1.729,0.766,2.489,7.81,1.461,9.959c-0.089,0.133-0.177,0.266-0.266,0.398
	c-4.338,0-8.676,0-13.014,0c-1.656,0-4.038-0.284-4.515,0.531c-0.97-0.092-0.727-0.474-1.328-0.664
	c-1.854-0.586-7.102,0.742-8.764,0.531c-0.332-0.31-5.084,0.133-6.64,0.133c-6.466,0-13.536,0.904-19.122,0.266
	c-1.363-2.048-1.199-7.555-0.133-10.225c5.457-1.24,12.68-1.002,18.325-1.859c1.726-0.044,3.453-0.089,5.179-0.133
	C188.38,180.061,195.64,180.069,201.739,180.986z M203.067,74.885c4.418,1.874,7.697,7.094,8.631,12.748
	c0.611,3.7-1.511,6.757-1.062,9.163c-1.967,1.061-3.631,4.49-5.444,6.108c-0.398,0.089-0.797,0.177-1.195,0.266
	c-0.819,0.529-2.134,1.902-2.656,2.257c-0.531,0.133-1.062,0.266-1.594,0.398c-4.538,4.303-11.994,9.059-15.669,15.005
	c-0.398,0.044-0.797,0.089-1.195,0.133c-5.067-4.768-8.413-9.389-14.474-13.412c-4.248-2.82-12.264-5.835-13.279-10.889
	c-0.398-1.107-0.797-2.213-1.195-3.32c0.044-2.478,0.089-4.958,0.133-7.436c1.061-4.002,3.572-6.861,6.374-9.163
	c0.756-0.621,2.403-0.556,3.453-0.797c4.38-1.004,11.341,0.638,13.943,2.39c1.277,0.86,2.794,2.347,4.913,2.39
	c0.784-1.724,8.064-4.701,10.491-5.71c1.018-0.089,2.036-0.177,3.054-0.266C198.552,74.797,200.81,74.841,203.067,74.885z"/>
</svg>
