<?xml version="1.0" encoding="utf-8"?>
<!-- Generator: Adobe Illustrator 17.0.0, SVG Export Plug-In . SVG Version: 6.00 Build 0)  -->
<!DOCTYPE svg PUBLIC "-//W3C//DTD SVG 1.1//EN" "http://www.w3.org/Graphics/SVG/1.1/DTD/svg11.dtd">
<svg version="1.1" id="图层_1" xmlns="http://www.w3.org/2000/svg" xmlns:xlink="http://www.w3.org/1999/xlink" x="0px" y="0px"
	 width="164.316px" height="164.26px" viewBox="0 0 164.316 164.26" enable-background="new 0 0 164.316 164.26"
	 xml:space="preserve">
<path fill="#FFFFFF" d="M79.808,90.194c0,13.821,0,27.505,0,41.391c8.103,0,16.039,0,24.265,0c0,3.44,0.042,6.689-0.078,9.932
	c-0.01,0.28-1.113,0.742-1.71,0.746c-8.338,0.048-16.677,0.033-25.014,0.033c-2.038,0-4.082-0.095-6.112,0.029
	c-1.582,0.097-1.954-0.503-1.949-2.005c0.053-13.094,0.03-26.188,0.029-39.282c0-3.571,0-7.143,0-10.846
	C72.776,90.194,76.14,90.194,79.808,90.194z M93.488,22.599c3.576,0,6.986,0,10.492,0c0,17.345,0,34.606,0,52.037
	c-3.327,0-6.532,0.062-9.73-0.065c-0.493-0.021-1.125-0.835-1.401-1.42c-4.008-8.482-7.966-16.987-11.938-25.485
	c-0.249-0.531-0.526-1.052-1.085-1.513c0,9.402,0,18.805,0,28.349c-3.529,0-6.891,0-10.419,0c0-17.226,0-34.477,0-52.022
	c3.263,0,6.567-0.053,9.866,0.066c0.425,0.016,0.939,0.872,1.206,1.437c3.992,8.488,7.948,16.993,11.919,25.492
	c0.247,0.531,0.533,1.044,1.091,1.502C93.488,41.569,93.488,32.161,93.488,22.599z M51.364,136.078
	c-0.757,0.864-0.86,1.588-0.49,2.642c1.37,3.901,2.651,7.833,3.955,11.757c0.209,0.629,0.37,1.275,0.649,2.254
	c-3.401,0-6.485,0.059-9.563-0.061c-0.492-0.02-1.189-0.764-1.391-1.317c-1.091-3.014-2.055-6.072-3.096-9.213
	c-1.811,0-3.6,0.156-5.353-0.026c-8.433-0.87-15.094-7.862-15.35-16.347c-0.193-6.42-0.209-12.856,0.009-19.275
	c0.316-9.243,8.126-16.459,17.448-16.429c9.199,0.031,16.942,7.28,17.245,16.447c0.211,6.42,0.102,12.852,0.016,19.276
	C55.393,129.691,53.925,133.144,51.364,136.078z M44.892,116.246c0-2.898,0.043-5.798-0.009-8.695
	c-0.072-3.912-3.025-6.865-6.777-6.863c-3.851,0.003-6.813,2.993-6.838,6.997c-0.034,5.611-0.029,11.223-0.002,16.834
	c0.02,4.159,2.94,7.146,6.882,7.115c3.869-0.029,6.693-2.966,6.74-7.063C44.921,121.796,44.894,119.021,44.892,116.246z
	 M143.836,116.253c0,3.704,0.404,7.461-0.08,11.1c-1.168,8.759-8.687,15.038-17.332,14.938c-8.728-0.101-16.287-6.389-17.027-15.208
	c-0.616-7.35-0.608-14.842,0.053-22.188c0.815-9.07,9.207-15.388,18.443-14.807c8.816,0.555,15.931,8.09,16.089,17.084
	c0.053,3.026,0.008,6.053,0.008,9.08C143.938,116.252,143.887,116.253,143.836,116.253z M133.412,107.729
	c-0.035-4.043-2.976-7.018-6.821-7.045c-3.825-0.026-6.763,2.966-6.819,7.002c-0.039,2.838-0.007,5.675-0.008,8.514
	c0,2.775-0.026,5.551,0.005,8.327c0.047,4.132,2.821,7.062,6.686,7.112c3.931,0.048,6.925-2.938,6.958-7.068
	C133.462,118.956,133.464,113.342,133.412,107.729z M20.962,60.517C22.8,69.6,30.853,75.481,40.121,74.552
	c8.638-0.865,15.322-8.373,15.356-17.36c0.041-10.937,0.012-21.875,0.007-32.811c-0.002-0.593-0.075-1.187-0.12-1.852
	c-3.494,0-6.812,0-10.468,0c0,0.907,0,1.632,0,2.358c0,10.566,0.055,21.133-0.059,31.698c-0.018,1.578-0.526,3.333-1.344,4.678
	c-1.537,2.526-4.717,3.391-7.524,2.47c-2.853-0.937-4.693-3.455-4.702-6.632c-0.026-10.752-0.01-21.503-0.011-32.254
	c0-0.723,0-1.447,0-2.248c-3.632,0-7.043,0-10.504,0c-0.041,0.575-0.099,0.999-0.099,1.422c-0.003,11.061-0.01,22.122,0.012,33.183
	C20.667,58.309,20.743,59.436,20.962,60.517z M131.702,22.568c-3.502,0-6.861,0-10.326,0c0,17.366,0,34.606,0,51.928
	c3.519,0,6.925,0,10.326,0C131.702,57.104,131.702,39.862,131.702,22.568z"/>
<path fill="#D61439" d="M0.056,0c54.753,0,109.507,0,164.26,0c0,54.753,0,109.507,0,164.26c-54.753,0-109.507,0-164.26,0
	c-0.02-0.617-0.053-1.233-0.053-1.849C0,108.89,0,55.371,0.003,1.85C0.003,1.233,0.036,0.616,0.056,0z M103.979,74.636
	c0-17.431,0-34.693,0-52.037c-3.506,0-6.915,0-10.492,0c0,9.563,0,18.97,0,28.378c-0.558-0.458-0.844-0.971-1.091-1.502
	c-3.97-8.499-7.927-17.004-11.919-25.492c-0.266-0.565-0.781-1.421-1.206-1.437c-3.299-0.12-6.603-0.066-9.866-0.066
	c0,17.544,0,34.796,0,52.022c3.528,0,6.89,0,10.419,0c0-9.544,0-18.947,0-28.349c0.559,0.461,0.836,0.982,1.085,1.513
	c3.972,8.498,7.929,17.003,11.938,25.485c0.277,0.585,0.908,1.4,1.401,1.42C97.448,74.698,100.652,74.636,103.979,74.636z
	 M55.477,152.73c-0.279-0.979-0.44-1.625-0.649-2.254c-1.304-3.924-2.585-7.855-3.955-11.757c-0.37-1.054-0.266-1.779,0.49-2.642
	c2.561-2.934,4.029-6.387,4.08-10.293c0.085-6.424,0.195-12.856-0.016-19.276c-0.303-9.167-8.047-16.416-17.245-16.447
	c-9.322-0.03-17.132,7.187-17.448,16.429c-0.219,6.419-0.203,12.855-0.009,19.275c0.256,8.485,6.918,15.478,15.35,16.347
	c1.754,0.182,3.542,0.026,5.353,0.026c1.041,3.141,2.005,6.2,3.096,9.213c0.202,0.553,0.899,1.297,1.391,1.317
	C48.992,152.79,52.077,152.73,55.477,152.73z M143.836,116.253c0.051,0,0.103-0.001,0.153-0.001c0-3.027,0.046-6.054-0.008-9.08
	c-0.158-8.995-7.273-16.529-16.089-17.084c-9.236-0.581-17.628,5.737-18.443,14.807c-0.66,7.346-0.669,14.838-0.053,22.188
	c0.739,8.819,8.298,15.107,17.027,15.208c8.646,0.1,16.165-6.179,17.332-14.938C144.24,123.714,143.836,119.957,143.836,116.253z
	 M44.896,22.529c0,0.907,0,1.632,0,2.358c0,10.566,0.055,21.133-0.059,31.698c-0.018,1.578-0.526,3.333-1.344,4.678
	c-1.537,2.526-4.717,3.391-7.524,2.47c-2.853-0.937-4.693-3.455-4.702-6.632c-0.026-10.752-0.01-21.503-0.011-32.254
	c0-0.723,0-1.447,0-2.248c-3.632,0-7.043,0-10.504,0c-0.041,0.575-0.099,0.999-0.099,1.422c-0.003,11.061-0.01,22.122,0.012,33.183
	c0.002,1.107,0.078,2.233,0.297,3.315c1.838,9.083,9.891,14.964,19.159,14.035c8.638-0.865,15.322-8.373,15.356-17.36
	c0.041-10.937,0.012-21.875,0.007-32.811c-0.002-0.593-0.075-1.187-0.12-1.852C51.871,22.529,48.553,22.529,44.896,22.529z
	 M79.808,90.194c-3.669,0-7.032,0-10.568,0c0,3.702,0,7.274,0,10.846c0.001,13.093,0.024,26.187-0.029,39.282
	c-0.005,1.501,0.366,2.102,1.949,2.005c2.03-0.124,4.074-0.029,6.112-0.029c8.337,0,16.676,0.016,25.014-0.033
	c0.597-0.004,1.699-0.466,1.71-0.746c0.121-3.243,0.078-6.492,0.078-9.932c-8.226,0-16.162,0-24.265,0
	C79.808,117.699,79.808,104.015,79.808,90.194z M121.376,22.568c0,17.366,0,34.606,0,51.928c3.519,0,6.925,0,10.326,0
	c0-17.391,0-34.633,0-51.928C128.2,22.568,124.842,22.568,121.376,22.568z M44.882,107.551c-0.072-3.912-3.025-6.865-6.777-6.863
	c-3.851,0.003-6.813,2.993-6.838,6.997c-0.034,5.611-0.029,11.223-0.002,16.834c0.02,4.159,2.94,7.146,6.882,7.115
	c3.869-0.029,6.693-2.966,6.74-7.063c0.034-2.775,0.007-5.55,0.005-8.325C44.892,113.348,44.935,110.448,44.882,107.551z
	 M119.77,124.526c0.047,4.132,2.821,7.062,6.686,7.112c3.931,0.048,6.925-2.938,6.958-7.068c0.048-5.614,0.05-11.227-0.002-16.84
	c-0.035-4.043-2.976-7.019-6.821-7.045c-3.825-0.026-6.763,2.966-6.819,7.002c-0.039,2.838-0.007,5.675-0.008,8.514
	C119.765,118.975,119.739,121.75,119.77,124.526z"/>
</svg>
