<?xml version="1.0" encoding="utf-8"?>
<!-- Generator: Adobe Illustrator 17.0.0, SVG Export Plug-In . SVG Version: 6.00 Build 0)  -->
<!DOCTYPE svg PUBLIC "-//W3C//DTD SVG 1.1//EN" "http://www.w3.org/Graphics/SVG/1.1/DTD/svg11.dtd">
<svg version="1.1"
	 id="svg2" xmlns:svg="http://www.w3.org/2000/svg" inkscape:export-xdpi="521" inkscape:export-filename="C:\Dokumente und Einstellungen\jischa\Desktop\symbole verkehr v4 2.png" xmlns:inkscape="http://www.inkscape.org/namespaces/inkscape" xmlns:rdf="http://www.w3.org/1999/02/22-rdf-syntax-ns#" xmlns:cc="http://creativecommons.org/ns#" xmlns:dc="http://purl.org/dc/elements/1.1/" xmlns:sodipodi="http://sodipodi.sourceforge.net/DTD/sodipodi-0.dtd" inkscape:export-ydpi="521" sodipodi:docname="symbole verkehr v 5 1.svg" inkscape:version="0.48.0 r9654"
	 xmlns="http://www.w3.org/2000/svg" xmlns:xlink="http://www.w3.org/1999/xlink" x="0px" y="0px" width="92.836px"
	 height="69.363px" viewBox="0 0 92.836 69.363" enable-background="new 0 0 92.836 69.363" xml:space="preserve">
<path id="path10002" inkscape:connector-curvature="0" fill="#08A1EF" d="M76.457,69.32c-1.9-0.172-3.51-0.974-4.992-2.488
	c-0.992-1.013-1.572-1.979-2.04-3.396c-0.247-0.749-0.267-0.918-0.27-2.373c-0.006-1.263,0.031-1.677,0.172-2.136
	c1.252-4.071,4.875-6.565,8.917-6.139c2.949,0.31,5.307,1.952,6.643,4.623c0.65,1.301,0.78,1.899,0.775,3.604
	c-0.006,2.094-0.275,3.037-1.338,4.662c-0.818,1.251-1.945,2.213-3.389,2.889C79.51,69.232,78.108,69.469,76.457,69.32L76.457,69.32
	z M15.554,68.6c-1.512-0.328-2.551-0.801-3.684-1.674c-1.304-1.004-2.406-2.688-2.87-4.38c-0.183-0.667-0.201-0.926-0.166-2.374
	c0.043-1.762,0.147-2.204,0.852-3.604c1.021-2.03,3.082-3.651,5.419-4.26c1.092-0.285,2.929-0.28,4.009,0.014
	c1.03,0.276,2.335,0.928,3.171,1.581c1.301,1.019,2.41,2.744,2.865,4.457c0.285,1.073,0.288,3.008,0.006,4.083
	c-0.271,1.038-1.044,2.542-1.711,3.332c-1.896,2.247-5.167,3.419-7.891,2.828L15.554,68.6L15.554,68.6z M4.731,60.725
	c-1.635-0.16-4.205-0.519-4.289-0.598c-0.089-0.084-0.241-1.31-0.373-3.001c-0.139-1.784-0.057-6.446,0.146-8.216
	c0.08-0.704,0.147-1.346,0.149-1.424c0-0.078,0.752-0.805,1.668-1.614c1.065-0.939,1.715-1.585,1.801-1.787
	c0.074-0.173,1.145-2.929,2.378-6.123c2.694-6.979,3.116-8.013,3.39-8.31c0.409-0.446,1.531-0.776,3.122-0.918l0.729-0.065
	l0.063-0.488c0.171-1.328,0.682-2.601,1.237-3.089c0.424-0.373,0.615-0.37,1.054,0.014c0.458,0.401,0.931,1.427,1.134,2.463
	l0.159,0.811l0.392-0.037c0.58-0.055,10.251-0.697,10.488-0.697h0.203v8.641v8.642l0.306,0.186c0.168,0.102,0.499,0.219,0.736,0.26
	c0.236,0.041,4.488,0.074,9.449,0.074c9.355,0,9.469,0,9.969-0.386c0.187-0.143,0.19-0.271,0.215-9.824
	c0.014-5.324,0.054-9.68,0.089-9.68s4.691,2.382,10.347,5.293l10.283,5.293v4.815v4.816l0.379,0.193
	c0.696,0.356,1.85,0.388,12.604,0.359l10.277-0.027v6.417c0,6.063-0.011,6.427-0.172,6.572c-0.29,0.264-1.361,0.349-3.593,0.285
	l-2.102-0.061l-0.06-0.389c-0.19-1.222-0.867-2.849-1.631-3.92c-2.681-3.76-6.925-5.164-11.254-3.724
	c-0.488,0.163-1.422,0.569-2.075,0.904c-1.134,0.581-1.225,0.65-2.03,1.545c-1.566,1.739-2.446,3.582-2.872,6.019l-0.164,0.935
	l-18.614-0.038c-16.359-0.034-18.708-0.059-19.396-0.188c-1.584-0.301-1.746-0.427-1.972-1.541c-0.269-1.33-0.943-2.975-1.73-4.225
	c-0.923-1.464-2.816-2.791-5.104-3.577l-1.045-0.358h-1.945c-1.891,0-1.97,0-2.754,0.268c-4.03,1.352-6.253,3.904-7.12,8.178
	c-0.106,0.522-0.271,1.057-0.367,1.188c-0.214,0.292-0.397,0.304-2.102,0.137v-0.003L4.731,60.725L4.731,60.725z M65.183,56.172
	l0.213-0.068v-6.772v-6.773l-0.356-0.075c-0.458-0.097-11.568-0.099-11.915,0l-0.261,0.073v6.786c0,3.732,0.011,6.791,0.023,6.798
	c0.317,0.155,11.814,0.188,12.295,0.034L65.183,56.172L65.183,56.172z M14.607,43.401c3.21-0.367,6.273-0.716,6.805-0.774
	c0.727-0.081,0.984-0.146,1.03-0.259c0.086-0.21,0.205-3.33,0.28-7.295l0.063-3.347h-1.171c-2.971,0-9.779,0.555-10.591,0.862
	c-0.271,0.102-0.51,0.585-1.393,2.806c-1.484,3.735-2.717,7.297-2.717,7.851c0,0.53,0.451,0.808,1.331,0.817
	C8.535,44.062,11.397,43.769,14.607,43.401z M86.988,42.651c-0.78-0.317-71.957-37.489-73.1-38.176
	c-1.275-0.768-1.263-0.544-0.155-2.673c1.098-2.109,0.951-2.01,2.18-1.479c0.787,0.341,70.699,36.84,72.363,37.78
	c0.549,0.31,1.143,0.683,1.323,0.83l0.325,0.268l-0.41,0.796c-1.228,2.383-1.545,2.932-1.696,2.929
	C87.73,42.926,87.357,42.8,86.988,42.651L86.988,42.651L86.988,42.651z M8.436,27.333c0.055-0.063,4.371-1.777,4.474-1.777
	c0.134,0-0.049,0.398-0.24,0.522c-0.11,0.07-1.056,0.373-2.1,0.671c-1.044,0.298-1.963,0.563-2.041,0.591
	c-0.078,0.027-0.12,0.025-0.093,0L8.436,27.333L8.436,27.333z M19.951,26.579c-2.117-0.553-2.205-0.585-2.315-0.85
	c-0.063-0.151-0.098-0.287-0.077-0.303c0.03-0.023,4.396,1.543,4.688,1.683C22.499,27.229,21.987,27.109,19.951,26.579
	L19.951,26.579z M10.837,23.767c-1.367-0.503-2.473-0.926-2.458-0.941c0.024-0.023,5.017,1.244,5.361,1.361
	c0.103,0.034,0.082,0.1-0.088,0.28c-0.121,0.129-0.245,0.229-0.275,0.225C13.347,24.686,12.205,24.269,10.837,23.767L10.837,23.767z
	 M16.881,24.463c-0.168-0.18-0.187-0.242-0.084-0.28c0.382-0.141,5.43-1.574,5.455-1.549c0.017,0.017-1.003,0.433-2.267,0.924
	c-1.263,0.491-2.429,0.948-2.592,1.015C17.124,24.683,17.081,24.674,16.881,24.463L16.881,24.463z M12.535,21.52
	c-0.9-1.331-1.619-2.42-1.598-2.42c0.049,0,3.706,4.44,3.741,4.543c0.021,0.058-0.37,0.299-0.485,0.299
	C14.181,23.942,13.434,22.852,12.535,21.52L12.535,21.52z M16.075,23.81c-0.21-0.154-0.425,0.165,1.886-2.811
	c1.567-2.02,1.835-2.342,1.526-1.839c-1.158,1.886-3.053,4.778-3.132,4.78C16.299,23.94,16.174,23.883,16.075,23.81L16.075,23.81z
	 M15.045,23.585c-0.024-0.041-0.006-1.034,0.038-2.208c0.046-1.174,0.09-2.519,0.098-2.989c0.01-0.47,0.032-0.79,0.054-0.712
	c0.063,0.231,0.393,5.832,0.349,5.91C15.532,23.68,15.104,23.678,15.045,23.585L15.045,23.585z"/>
</svg>
