<?xml version="1.0" encoding="utf-8"?>
<!-- Generator: Adobe Illustrator 17.0.0, SVG Export Plug-In . SVG Version: 6.00 Build 0)  -->
<!DOCTYPE svg PUBLIC "-//W3C//DTD SVG 1.1//EN" "http://www.w3.org/Graphics/SVG/1.1/DTD/svg11.dtd">
<svg version="1.1" id="图层_1" xmlns="http://www.w3.org/2000/svg" xmlns:xlink="http://www.w3.org/1999/xlink" x="0px" y="0px"
	 width="32px" height="32.031px" viewBox="0 0 32 32.031" enable-background="new 0 0 32 32.031" xml:space="preserve">
<path fill="#111111" d="M31.807,1.876c-0.257-0.842-0.618-1.419-1.185-1.685c-0.516-0.266-1.134-0.089-1.753,0.399L27.89,1.566
	c-1.032,1.02-1.959,1.73-2.784,2.174C23.92,4.361,22.495,5.031,21,5.031H11c-1.443,0-2.803-0.759-4.04-1.558
	C6.393,3.074,5.465,2.231,4.176,0.99C3.197,0.058,2.269-0.208,1.444,0.191C0.877,0.457,0.516,1.034,0.259,1.876
	C0.104,2.497,0.052,3.207,0.052,3.961v1.996H0.001v3.815c0,0.843,0.206,1.464,0.618,1.907c0.361,0.355,0.876,0.621,1.65,0.666
	l8.3,0.088c1.701,0.133,2.577,0.799,2.577,1.952v1.686L8.3,18.2c-0.154,0.044-0.206,0.177-0.103,0.31v0.044
	c0.103,0.133,0.206,0.178,0.361,0.133l4.588-0.707v13.792c0,0.178,0.103,0.266,0.258,0.266h0.051l0.207-0.088l0.103-0.133
	l1.598-4.569c0.051-0.089,0.154-0.133,0.309-0.133h0.722c0.154,0,0.257,0.044,0.309,0.133l1.65,4.702l0.257,0.088
	c0.207,0,0.31-0.088,0.31-0.266V17.981l4.536,0.706c0.206,0.045,0.309,0,0.413-0.133V18.51c0.103-0.133,0.051-0.266-0.104-0.31
	l-4.845-2.129v-1.686c0-1.153,0.876-1.819,2.577-1.952l8.3-0.088c0.773-0.045,1.289-0.311,1.65-0.666
	c0.412-0.443,0.567-1.064,0.567-1.907V3.961C32.014,3.207,31.962,2.497,31.807,1.876z M2.733,7.998c0-0.843,0.361-1.553,1.082-2.174
	C4.437,5.29,5.193,4.987,6.08,4.945C5.86,5.057,5.662,5.349,5.465,5.824C5.259,6.401,5.156,7.155,5.156,7.998
	c0,0.842,0.103,1.596,0.309,2.173c0.175,0.423,0.351,0.698,0.543,0.833c-0.856-0.048-1.588-0.317-2.193-0.877
	C3.094,9.55,2.733,8.84,2.733,7.998z M8.816,10.127c-0.652,0.56-1.388,0.829-2.245,0.877c0.192-0.135,0.368-0.41,0.544-0.833
	C7.321,9.594,7.424,8.84,7.424,7.998c0-0.843-0.103-1.597-0.309-2.174C6.917,5.349,6.72,5.057,6.499,4.945
	C7.387,4.987,8.146,5.29,8.816,5.824c0.67,0.621,1.031,1.331,1.031,2.174C9.847,8.84,9.486,9.55,8.816,10.127z M15.012,7.148
	l0.377-0.126h1.178l0.377,0.126c0.094,0.127,0.047,0.253-0.047,0.379L16.19,8.915c-0.047,0.063-0.094,0.126-0.188,0.126
	l-0.189-0.126l-0.754-1.388C14.964,7.401,14.964,7.275,15.012,7.148z M19.796,11.28c-0.258,0.31-0.825,0.488-1.65,0.488
	c-0.876,0-1.546-0.31-1.855-0.887l-0.052-0.044l-0.206-0.089h-0.052l-0.206,0.089l-0.051,0.044c-0.31,0.577-0.98,0.887-1.856,0.887
	c-0.825,0-1.392-0.178-1.65-0.488v-0.355c0.309,0.222,0.722,0.355,1.341,0.399c0.824,0.089,1.391-0.133,1.752-0.665
	c0.155-0.266,0.31-0.665,0.31-1.242h0.773l0.051,0.488c0.052,0.355,0.103,0.621,0.258,0.754c0.361,0.532,0.928,0.754,1.753,0.665
	c0.619-0.044,1.031-0.177,1.34-0.399C19.796,10.925,19.796,11.28,19.796,11.28z M22.219,7.998c0-0.843,0.309-1.553,1.031-2.174
	c0.609-0.524,1.388-0.825,2.26-0.876c-0.216,0.113-0.402,0.405-0.559,0.876c-0.258,0.577-0.361,1.331-0.361,2.174
	c0,0.842,0.103,1.596,0.361,2.173c0.14,0.421,0.304,0.696,0.491,0.831c-0.844-0.055-1.599-0.326-2.192-0.875
	C22.528,9.55,22.219,8.84,22.219,7.998z M28.25,10.127c-0.609,0.564-1.347,0.833-2.212,0.878c0.205-0.135,0.371-0.41,0.512-0.834
	c0.257-0.577,0.36-1.331,0.36-2.173c0-0.843-0.103-1.597-0.36-2.174c-0.159-0.477-0.349-0.769-0.592-0.88
	c0.899,0.037,1.665,0.34,2.292,0.88c0.722,0.621,1.031,1.331,1.031,2.174C29.281,8.84,28.972,9.55,28.25,10.127z"/>
</svg>
