<?xml version="1.0" encoding="utf-8"?>
<!-- Generator: Adobe Illustrator 16.0.0, SVG Export Plug-In . SVG Version: 6.00 Build 0)  -->
<!DOCTYPE svg PUBLIC "-//W3C//DTD SVG 1.1//EN" "http://www.w3.org/Graphics/SVG/1.1/DTD/svg11.dtd">
<svg version="1.1" xmlns="http://www.w3.org/2000/svg" xmlns:xlink="http://www.w3.org/1999/xlink" x="0px" y="0px"
	 width="135.797px" height="144.09px" viewBox="0 0 135.797 144.09" enable-background="new 0 0 135.797 144.09"
	 xml:space="preserve">
<g id="background">
</g>
<g id="objects">
	<path fill="#30B5D5" d="M100.771,133.931L79.52,119.472c-10.54,25.097-37.401,24.617-37.401,24.617
		c18.247-17.221,19.201-37,19.201-37l-44.477,17.282L30.18,78.557L0,41.597l47.693-1.474L73.518,0l16.139,44.904l46.141,12.162
		L98.078,86.291L100.771,133.931z"/>
	<path fill="#FFFFFF" d="M48.352,140.239l1.638-1.539c0.448-0.421,0.883-0.848,1.305-1.281l0.633,0.618
		c0.313-0.11,0.666-0.241,1.053-0.392l0.438,1.115c-1.757,0.69-2.834,0.949-2.88,0.959L48.352,140.239z M57.828,136.694
		l-0.571-1.053c1.369-0.745,2.723-1.581,4.021-2.487l0.686,0.983C60.629,135.069,59.237,135.929,57.828,136.694z M55.362,134.619
		l-0.937-0.747c0.969-1.216,1.9-2.508,2.77-3.841l1.004,0.654C57.31,132.051,56.354,133.375,55.362,134.619z M65.791,131.147
		l-0.787-0.903c1.182-1.03,2.322-2.138,3.393-3.293l0.88,0.815C68.178,128.952,67.005,130.089,65.791,131.147z M60.656,126.508
		l-1.059-0.562c0.727-1.372,1.415-2.813,2.043-4.282l1.103,0.471C62.102,123.635,61.399,125.106,60.656,126.508z M95.224,125.535
		l-3.964-2.697l0.674-0.992l3.965,2.697L95.224,125.535z M72.383,124.037l-0.96-0.719c0.936-1.248,1.825-2.568,2.644-3.924
		l1.025,0.619C74.254,121.403,73.342,122.757,72.383,124.037z M95.506,121.726l-0.271-4.786l1.196-0.068l0.271,4.786L95.506,121.726
		z M87.295,120.141l-3.963-2.697l0.674-0.991l3.964,2.697L87.295,120.141z M22.851,118.236l0.484-2.229l0.987,0.336v0.003
		l2.502-0.808l0.473,1.133L22.851,118.236z M64.47,117.611l-1.136-0.384c0.502-1.486,0.957-3.019,1.352-4.557l1.161,0.299
		C65.444,114.535,64.98,116.097,64.47,117.611z M77.393,115.747l-1.081-0.519c0.373-0.777,0.733-1.579,1.082-2.406l0.285-0.674
		l2.363,1.608l-0.675,0.991l-1.156-0.787C77.944,114.569,77.672,115.165,77.393,115.747z M31.91,115.106l-0.392-1.133l4.532-1.566
		l0.392,1.133L31.91,115.106z M94.966,112.153l-0.271-4.787l1.196-0.068l0.271,4.787L94.966,112.153z M40.973,111.975l-0.391-1.133
		l4.532-1.565l0.391,1.133L40.973,111.975z M25.991,111.74l-1.152-0.335l1.34-4.604l1.152,0.335L25.991,111.74z M50.036,108.844
		l-0.391-1.133l4.532-1.565l0.391,1.133L50.036,108.844z M66.876,108.236l-1.18-0.211c0.372-2.083,0.553-3.708,0.639-4.705
		l1.194,0.103C67.441,104.445,67.255,106.109,66.876,108.236z M59.1,105.713l-0.392-1.133l4.532-1.565l0.392,1.133L59.1,105.713z
		 M94.425,102.58l-0.271-4.787l1.196-0.068l0.271,4.787L94.425,102.58z M28.671,102.533l-1.151-0.335l1.34-4.604l1.152,0.335
		L28.671,102.533z M31.351,93.327l-1.152-0.334l1.341-4.604l1.151,0.335L31.351,93.327z M93.884,93.006l-0.271-4.787l1.196-0.068
		l0.271,4.787L93.884,93.006z M94.362,84.836l-0.735-0.947l3.791-2.936l0.734,0.947L94.362,84.836z M34.031,84.12l-1.152-0.335
		l1.341-4.603l1.151,0.334L34.031,84.12z M101.942,78.964l-0.734-0.947l3.788-2.936l0.735,0.947L101.942,78.964z M32.888,75.691
		l-3.032-3.714l0.93-0.758l3.031,3.714L32.888,75.691z M109.521,73.091l-0.735-0.948l3.79-2.937l0.735,0.948L109.521,73.091z
		 M26.823,68.264l-3.033-3.713l0.93-0.758l3.032,3.713L26.823,68.264z M117.102,67.218l-0.735-0.947l3.79-2.937l0.735,0.948
		L117.102,67.218z M124.682,61.345l-0.735-0.947l1.337-1.036l-0.65-0.172l0.304-1.159l3.001,0.79L124.682,61.345z M20.759,60.837
		l-3.033-3.713l0.93-0.759l3.033,3.714L20.759,60.837z M119.996,57.968l-4.636-1.222l0.304-1.159l4.637,1.222L119.996,57.968z
		 M110.725,55.524l-4.636-1.222l0.304-1.159l4.637,1.222L110.725,55.524z M14.694,53.41l-3.032-3.714l0.929-0.759l3.033,3.714
		L14.694,53.41z M101.452,53.08l-4.635-1.221l0.304-1.159l4.636,1.222L101.452,53.08z M92.181,50.637l-4.636-1.222l0.304-1.159
		l4.637,1.222L92.181,50.637z M9.35,46.311l-0.037-1.199l4.792-0.148l0.037,1.199L9.35,46.311z M18.936,46.015l-0.038-1.199
		l4.792-0.148l0.038,1.198L18.936,46.015z M28.519,45.719l-0.037-1.198l4.792-0.148l0.037,1.199L28.519,45.719z M38.103,45.423
		l-0.037-1.198l4.792-0.148l0.037,1.199L38.103,45.423z M84.871,45.224l-1.621-4.512l1.128-0.405l1.621,4.512L84.871,45.224z
		 M47.687,45.127l-0.037-1.198l2.444-0.076l0.929-1.445l1.01,0.648l-1.271,1.975L47.687,45.127z M54.627,39.025l-1.009-0.648
		l2.595-4.031l1.009,0.648L54.627,39.025z M81.629,36.2l-1.622-4.511l1.128-0.406l1.622,4.512L81.629,36.2z M59.816,30.962
		l-1.009-0.648l2.595-4.032l1.01,0.648L59.816,30.962z M78.386,27.177l-1.623-4.512l1.129-0.405l1.622,4.511L78.386,27.177z
		 M65.007,22.899l-1.009-0.648l2.594-4.032l1.009,0.648L65.007,22.899z M75.142,18.153l-1.621-4.512l1.129-0.405l1.621,4.512
		L75.142,18.153z M70.195,14.836l-1.009-0.648l2.595-4.032l1.009,0.648L70.195,14.836z"/>
</g>
</svg>
