<?xml version="1.0" encoding="iso-8859-1"?>
<!-- Generator: Adobe Illustrator 17.0.0, SVG Export Plug-In . SVG Version: 6.00 Build 0)  -->
<!DOCTYPE svg PUBLIC "-//W3C//DTD SVG 1.1//EN" "http://www.w3.org/Graphics/SVG/1.1/DTD/svg11.dtd">
<svg version="1.1" id="Layer_1" xmlns="http://www.w3.org/2000/svg" xmlns:xlink="http://www.w3.org/1999/xlink" x="0px" y="0px"
	 width="37.501px" height="80.107px" viewBox="0 0 37.501 80.107" style="enable-background:new 0 0 37.501 80.107;"
	 xml:space="preserve">
<g>
	<g>
		<path style="fill:#5B3720;" d="M23.52,64.57c0,0-2.608-5.482-1.061-7.03c0,0-3.862,0.912-4.584-4.585c0,0-0.942-6.293,2.992-5.364
			c0,0-0.884-2.653,0-4.51c0,0,3.582-8.092-6.633-9.949h-1.809H11.98h-1.811c-10.214,1.857-6.632,9.949-6.632,9.949
			c0.884,1.856,0,4.51,0,4.51c3.935-0.929,2.992,5.364,2.992,5.364c-0.722,5.497-4.585,4.585-4.585,4.585
			c1.548,1.548-1.06,7.03-1.06,7.03c-4.499,10.464,9.552,10.51,11.317,10.368C13.968,75.08,27.934,75.01,23.52,64.57z"/>
		<path style="fill:#231F20;" d="M19.069,58.739c-0.003,0.005-0.007,0.009-0.011,0.013c-0.048-0.243-0.263-0.427-0.519-0.427
			c-0.293,0-0.531,0.237-0.531,0.53c0,0.258,0.184,0.472,0.427,0.52c-1.535,1.18-1.325-2.135-1.325-2.135
			c0.392-3.78-0.36-4.938-0.36-4.938c-1.371-2.021-2.1,0.61-2.1,0.61c-0.026,0.208-0.032,0.375-0.025,0.509
			c-0.002,0.018-0.003,0.036-0.003,0.056c0,0.087,0.023,0.17,0.06,0.243c0.029,0.071,0.068,0.117,0.111,0.146
			c0.095,0.087,0.221,0.142,0.359,0.142c0.294,0,0.531-0.238,0.531-0.53c0-0.208-0.119-0.388-0.294-0.475
			c0.078-1.119,0.707-0.046,0.707-0.046c0.497,0.498,0.195,4.681,0.195,4.681c0.163,5.13,1.767,2.917,2.461,1.703
			c0.188-0.082,0.317-0.269,0.317-0.486c0-0.033-0.003-0.066-0.009-0.097C19.066,58.747,19.069,58.739,19.069,58.739z"/>
		<path style="fill:#231F20;" d="M5.397,59.184c0.003,0.004,0.006,0.008,0.01,0.013c0.048-0.243,0.263-0.427,0.521-0.427
			c0.293,0,0.53,0.237,0.53,0.53c0,0.258-0.183,0.472-0.427,0.521c1.536,1.18,1.326-2.135,1.326-2.135
			c-0.392-3.78,0.36-4.938,0.36-4.938c1.371-2.021,2.1,0.609,2.1,0.609c0.025,0.208,0.032,0.376,0.025,0.51
			c0.002,0.017,0.003,0.036,0.003,0.055c0,0.088-0.022,0.171-0.06,0.244c-0.028,0.07-0.067,0.116-0.11,0.146
			c-0.095,0.087-0.222,0.142-0.36,0.142c-0.293,0-0.53-0.238-0.53-0.531c0-0.208,0.119-0.387,0.293-0.474
			c-0.078-1.12-0.707-0.046-0.707-0.046c-0.498,0.497-0.193,4.681-0.193,4.681c-0.164,5.13-1.769,2.917-2.462,1.703
			c-0.188-0.082-0.317-0.27-0.317-0.486c0-0.033,0.003-0.065,0.008-0.097C5.399,59.192,5.397,59.184,5.397,59.184z"/>
		<g>
			<g>
				
					<rect x="11.632" y="74.736" transform="matrix(1 0.0033 -0.0033 1 0.2458 -0.0409)" style="fill:#231F20;" width="2.089" height="1.492"/>
				<path style="fill:#966851;" d="M15.505,62.161l-2.785-0.009l-2.786-0.01l-0.006,1.891c3.124,3.144,0.86,10.747,0.86,10.747
					c-0.002,0.597,1.889,0.703,1.889,0.703s1.891-0.094,1.892-0.69c0,0-2.213-7.618,0.931-10.741L15.505,62.161z"/>
			</g>
			
				<rect x="9.933" y="62.151" transform="matrix(1 0.0033 -0.0033 1 0.2077 -0.0419)" style="fill:#C49A6C;" width="5.571" height="0.737"/>
			<circle style="fill:#3C2415;" cx="10.799" cy="63.565" r="0.308"/>
			<circle style="fill:#3C2415;" cx="11.979" cy="63.569" r="0.308"/>
			<circle style="fill:#3C2415;" cx="13.173" cy="63.573" r="0.308"/>
			<circle style="fill:#3C2415;" cx="14.333" cy="63.577" r="0.308"/>
		</g>
		<path style="fill:#603913;" d="M14.654,5.086c-0.416,0-0.771,0.165-0.927,0.402h-0.99v0.543h0.999c0.16,0.23,0.51,0.39,0.918,0.39
			c0.557,0,1.008-0.299,1.008-0.668C15.662,5.385,15.211,5.086,14.654,5.086z"/>
		<path style="fill:#603913;" d="M9.79,3.751c0.415,0,0.771,0.166,0.927,0.403h0.99v0.543h-0.999c-0.16,0.23-0.511,0.39-0.918,0.39
			c-0.557,0-1.009-0.299-1.009-0.668C8.781,4.049,9.233,3.751,9.79,3.751z"/>
		<path style="fill:#603913;" d="M10.011,6.351c0.416,0,0.771,0.166,0.927,0.403h0.99v0.543h-1c-0.158,0.229-0.51,0.389-0.917,0.389
			c-0.557,0-1.008-0.299-1.008-0.668C9.003,6.65,9.454,6.351,10.011,6.351z"/>
		<path style="fill:#603913;" d="M14.654,7.686c-0.416,0-0.771,0.166-0.927,0.403h-0.99v0.543h0.999
			c0.16,0.229,0.51,0.389,0.918,0.389c0.557,0,1.008-0.299,1.008-0.668C15.662,7.985,15.211,7.686,14.654,7.686z"/>
		<g>
			<polygon style="fill:#28221B;" points="12.964,3.019 12.434,3.019 11.97,3.019 11.439,3.019 9.913,42.285 11.439,42.285 
				12.964,42.285 14.49,42.285 			"/>
			<path style="fill:#754C29;" d="M13.199,1.358c0,0-0.37-1.008-0.797-1.287C12.336,0.02,12.269-0.002,12.201,0
				c-0.066-0.002-0.134,0.02-0.2,0.071c-0.427,0.279-0.797,1.287-0.797,1.287c-1.061,1.061,0,1.661,0,1.661h0.75h0.495h0.75
				C13.199,3.019,14.26,2.419,13.199,1.358z"/>
		</g>
		<path style="fill:#E7BB95;" d="M15.69,60.391c0,0.092-0.1,0.166-0.225,0.166H9.813c-0.123,0-0.224-0.074-0.224-0.166l0,0
			c0-0.092,0.101-0.166,0.224-0.166h5.652C15.59,60.225,15.69,60.299,15.69,60.391L15.69,60.391z"/>
		<circle style="fill:#C49F7F;" cx="11.929" cy="4.818" r="0.243"/>
		<circle style="fill:#C49F7F;" cx="11.929" cy="7.175" r="0.243"/>
		<circle style="fill:#C49F7F;" cx="12.494" cy="5.91" r="0.244"/>
		<circle style="fill:#C49F7F;" cx="12.494" cy="8.354" r="0.244"/>
		<g>
			<rect x="11.33" y="6.927" style="fill:#D1D3D4;" width="0.066" height="56.952"/>
		</g>
		<g>
			
				<rect x="-17.577" y="34.314" transform="matrix(8.432427e-04 1 -1 8.432427e-04 46.2897 22.3653)" style="fill:#D1D3D4;" width="59.059" height="0.067"/>
		</g>
		<g>
			
				<rect x="-16.121" y="34.586" transform="matrix(0.0117 0.9999 -0.9999 0.0117 47.3003 21.381)" style="fill:#D1D3D4;" width="57.91" height="0.066"/>
		</g>
		<g>
			
				<rect x="-14.213" y="35.932" transform="matrix(0.0333 0.9994 -0.9994 0.0333 48.9125 21.362)" style="fill:#D1D3D4;" width="55.254" height="0.066"/>
		</g>
	</g>
	<g>
		
			<rect x="6.067" y="47.054" transform="matrix(-0.0011 -1 1 -0.0011 -9.95 84.341)" style="fill:#E6E6CA;" width="62.167" height="0.172"/>
		
			<rect x="3.526" y="46.933" transform="matrix(-0.0011 -1 1 -0.0011 -10.6144 83.6823)" style="fill:#5B3720;" width="65.928" height="0.42"/>
		<path style="fill:#5B3720;" d="M37.009,75.805c-0.27,0.001-0.488,0.432-0.487,0.963l0.003,2.376c0,0.531,0.219,0.962,0.489,0.961
			l0,0c0.27-0.001,0.487-0.433,0.487-0.964l-0.003-2.375C37.498,76.235,37.278,75.804,37.009,75.805L37.009,75.805z"/>
		<path style="fill:#5B3720;" d="M36.942,14.177c-0.269,0-0.487,0.432-0.486,0.963l0.002,2.376c0.001,0.53,0.22,0.96,0.489,0.96l0,0
			c0.27-0.001,0.488-0.432,0.488-0.963l-0.003-2.377C37.432,14.605,37.213,14.175,36.942,14.177L36.942,14.177z"/>
	</g>
</g>
</svg>
