<?xml version="1.0" encoding="utf-8"?>
<!-- Generator: Adobe Illustrator 17.0.0, SVG Export Plug-In . SVG Version: 6.00 Build 0)  -->
<!DOCTYPE svg PUBLIC "-//W3C//DTD SVG 1.1//EN" "http://www.w3.org/Graphics/SVG/1.1/DTD/svg11.dtd">
<svg version="1.1" id="图层_1" xmlns="http://www.w3.org/2000/svg" xmlns:xlink="http://www.w3.org/1999/xlink" x="0px" y="0px"
	 width="198.109px" height="53px" viewBox="0 -25.403 198.109 53" enable-background="new 0 -25.403 198.109 53"
	 xml:space="preserve">
<path fill="#F5DE3D" d="M97.061,1.097c0,0.252-0.204,0.455-0.457,0.455c-0.194,0-0.359-0.125-0.424-0.3
	c-2.065,0.329-1.504,0.942-2.007,0.942C93.551,2.194,8.152,1.413,0,1.116C-0.144,1.111,17.154,1.084,17.299,1.08
	C25.473,0.788,93.593,0,94.218,0c0.498,0-0.063,0.604,1.964,0.935c0.065-0.173,0.229-0.295,0.423-0.295
	C96.857,0.64,97.061,0.844,97.061,1.097z M101.048,1.097c0,0.252,0.203,0.455,0.456,0.455c0.195,0,0.36-0.125,0.425-0.3
	c2.065,0.329,1.504,0.942,2.007,0.942c0.622,0,86.021-0.781,94.173-1.078c0.145-0.005-17.153-0.032-17.298-0.036
	C172.637,0.788,104.515,0,103.891,0c-0.498,0,0.063,0.604-1.964,0.935c-0.065-0.173-0.23-0.295-0.424-0.295
	C101.251,0.64,101.048,0.844,101.048,1.097z M99.183,0.031c-0.589,0-1.066,0.478-1.066,1.065c0,0.589,0.478,1.066,1.066,1.066
	c0.589,0,1.066-0.477,1.066-1.066C100.25,0.509,99.772,0.031,99.183,0.031z"/>
</svg>
