<?xml version="1.0" encoding="utf-8"?>
<!-- Generator: Adobe Illustrator 17.0.0, SVG Export Plug-In . SVG Version: 6.00 Build 0)  -->
<!DOCTYPE svg PUBLIC "-//W3C//DTD SVG 1.1//EN" "http://www.w3.org/Graphics/SVG/1.1/DTD/svg11.dtd">
<svg version="1.1" id="图层_1" xmlns="http://www.w3.org/2000/svg" xmlns:xlink="http://www.w3.org/1999/xlink" x="0px" y="0px"
	 width="174.88px" height="120.003px" viewBox="0 0 174.88 120.003" enable-background="new 0 0 174.88 120.003"
	 xml:space="preserve">
<path fill="#FFA600" d="M70.672,55.186C73.351,35.491,82.133,0,98.904,0c19.513,0,42.495,65.672,42.434,120.003h-17.986
	c0-57.015-13.962-108.354-24.026-108.354c-10.486,0-19.633,34.94-19.633,101.461H61.708c0-66.521-9.149-101.461-19.696-101.461
	c-10.001,0-23.964,51.338-23.964,108.354H0C0.062,65.612,22.927,0,42.496,0C59.206,0,67.988,35.491,70.672,55.186L70.672,55.186z
	 M152.008,117.011c-2.926,0-5.237-2.319-5.237-5.237c0-2.932,2.313-5.249,5.237-5.249c2.869,0,5.243,2.317,5.243,5.249
	C157.252,114.694,154.877,117.011,152.008,117.011L152.008,117.011z M152.008,105.923c-3.292,0-5.912,2.553-5.912,5.85
	c0,3.226,2.619,5.85,5.912,5.85c3.231,0,5.856-2.624,5.856-5.85C157.865,108.476,155.241,105.923,152.008,105.923L152.008,105.923z
	 M150.609,111.528v-2.196h1.706c1.097,0,1.465,0.428,1.465,1.031c0,0.735-0.49,1.165-1.65,1.165H150.609L150.609,111.528z
	 M149.327,108.291v6.83h1.282v-2.492h1.22c1.461,0,1.889,0.726,1.889,2.492h1.465c0-1.459-0.245-2.492-1.77-3.043
	c0.975-0.123,1.827-0.797,1.827-1.838c0-1.093-1.093-1.949-2.681-1.949L149.327,108.291L149.327,108.291z"/>
<path fill="#FFFFFF" d="M133.537,96.039V78.845h5.243v17.194H133.537L133.537,96.039z M157.988,78.845l-0.245,4.696h2.564
	l1.214-4.696H157.988L157.988,78.845z M167.682,81.407c-4.936,0-6.34,2.624-6.34,4.451c0,2.194,1.28,3.226,2.685,3.716
	c2.012,0.613,5.482,0.613,5.482,2.44c0,0.909-0.547,1.399-1.827,1.399c-1.037,0-1.827-0.724-1.827-1.949h-5.004
	c0,3.237,1.895,5.004,6.83,5.004c4.696-0.06,7.198-1.767,7.198-5.004c0-2.072-1.527-3.348-3.661-3.961
	c-2.379-0.735-5.243-0.368-5.243-2.134c0-1.103,0.975-1.399,1.644-1.399c1.158,0,1.827,0.541,1.827,1.706h5.004
	C174.39,82.265,171.158,81.407,167.682,81.407L167.682,81.407z M60.731,90.852H55.85c-0.368,0.98-1.097,1.776-2.379,1.776
	c-2.191,0-2.741-2.257-2.741-4.095c0-1.767,0.551-4.084,2.741-4.084c1.28,0,2.012,0.858,2.379,1.827h4.881
	c-0.792-3.41-3.414-5.605-7.258-5.605c-4.63,0-7.5,3.237-7.5,7.862c0,4.698,3.231,7.933,7.5,7.933
	C57.011,96.467,59.819,94.272,60.731,90.852L60.731,90.852z M24.694,78.845l-2.741,17.622h5.12l1.342-10.301l2.864,10.301h4.693
	l2.807-10.301l1.405,10.301h5.12l-2.741-17.622h-6.223l-2.741,10.179l-2.685-10.179H24.694L24.694,78.845z M104.692,87.625
	c0.123-0.796,0.975-2.319,2.681-2.319c1.342,0,2.562,1.093,2.562,2.502v8.229h5.186V84.633c0-2.012-2.319-3.961-5.243-3.961
	c-2.685,0-3.844,0.49-5.186,1.521v-1.154h-5.12v14.999h5.12C104.692,96.039,104.692,88.237,104.692,87.625L104.692,87.625z
	 M145.366,89.024c0-2.379,1.097-3.838,2.866-3.838c1.28,0,2.257,0.735,2.558,1.706v4.513c-0.545,0.98-1.461,1.459-2.558,1.459
	C146.463,92.864,145.366,91.343,145.366,89.024L145.366,89.024z M150.788,82.501c-0.485-0.368-1.461-1.093-3.533-1.093
	c-2.869,0-6.893,1.584-6.893,7.617c0,6.035,4.023,7.443,6.585,7.443c2.257,0,3.109-0.613,3.838-1.286v0.858h5.186V78.845h-5.186
	v3.656H150.788z M93.109,88.533c-0.062,1.838-0.669,4.095-3.049,4.095c-2.319,0-2.992-2.257-2.992-4.095
	c0-1.767,0.673-4.084,2.992-4.084C92.44,84.45,93.109,86.769,93.109,88.533L93.109,88.533z M82.193,88.533
	c0,4.698,3.049,7.933,7.867,7.933c4.875,0,7.924-3.235,7.924-7.933c0-4.625-3.049-7.862-7.924-7.862
	C85.242,80.672,82.193,83.909,82.193,88.533L82.193,88.533z M68.476,92.323v-9.27h2.681c1.77,0,3.904,1.031,3.904,4.636
	c0,3.533-2.134,4.634-3.904,4.634H68.476L68.476,92.323z M62.499,78.845v17.622h9.025c5.607,0,9.389-3.482,9.389-8.78
	c0-5.371-3.782-8.842-9.389-8.842H62.499L62.499,78.845z M124.145,89.146c0.796,0,1.65,0.062,2.072-0.183v1.408
	c-0.241,1.399-1.521,2.134-2.679,2.134c-1.22,0-1.71-0.735-1.71-1.533C121.826,89.759,122.925,89.146,124.145,89.146L124.145,89.146
	z M124.45,80.672c-5.428,0-6.893,2.379-6.893,4.574h4.881c0-0.98,0.975-1.337,1.889-1.337c0.854,0,1.889,0.541,1.889,1.397
	c0,0.797-0.485,1.399-2.012,1.399c-6.095,0-7.622,2.747-7.622,5.186s2.134,4.574,4.819,4.574c2.257,0,3.539-0.796,4.815-1.889v1.459
	h5.243V84.997C131.22,82.01,128.166,80.672,124.45,80.672L124.45,80.672z"/>
</svg>
