<?xml version="1.0" encoding="iso-8859-1"?>
<!-- Generator: Adobe Illustrator 17.0.0, SVG Export Plug-In . SVG Version: 6.00 Build 0)  -->
<!DOCTYPE svg PUBLIC "-//W3C//DTD SVG 1.1//EN" "http://www.w3.org/Graphics/SVG/1.1/DTD/svg11.dtd">
<svg version="1.1" id="Items" xmlns="http://www.w3.org/2000/svg" xmlns:xlink="http://www.w3.org/1999/xlink" x="0px" y="0px"
	 width="268.237px" height="426.775px" viewBox="0 0 268.237 426.775" style="enable-background:new 0 0 268.237 426.775;"
	 xml:space="preserve">
<g id="Clipboard">
	<path style="opacity:0.1;" d="M268.237,406.377c0,11.219-9.18,20.398-20.399,20.398H23.983c-11.219,0-23.052-13.304-23.052-24.523
		L3.584,55.318c0-11.219,9.18-20.399,20.399-20.399h215.298l8.501-4.462c11.219,0,20.455,13.642,20.455,24.861V406.377z"/>
	<path style="fill:#C09673;" d="M264.653,400.023c0,11.219-9.18,20.398-20.399,20.398H20.399C9.179,420.421,0,411.242,0,400.023
		V48.964c0-11.219,9.179-20.399,20.399-20.399h223.855c11.219,0,20.399,9.179,20.399,20.399V400.023z"/>
	<rect x="8.841" y="56.607" style="opacity:0.1;" width="248.184" height="352.898"/>
	<rect x="10.274" y="55.392" style="fill:#FFFFFF;" width="244.105" height="350.858"/>
	<rect x="76.792" y="55.392" style="opacity:0.05;" width="115.161" height="1.438"/>
	<g>
		<path style="fill:#B8B8B8;" d="M182.947,36.126c-8.65-4.508-8.884-7.048-12.811-9.119c-3.917-2.081-11.076-1.958-16.156-8.313
			C148.912,12.351,148.443,0,134.367,0c-14.075,0-14.544,12.351-19.613,18.694c-5.08,6.355-12.24,6.232-16.156,8.313
			c-3.928,2.071-4.161,4.61-12.811,9.119c-8.659,4.497-8.995,6.262-8.995,7.731c0,1.458,0,11.535,0,11.535h115.161
			c0,0,0-10.077,0-11.535C191.953,42.388,191.605,40.623,182.947,36.126z M90.163,49.65c-1.499,0-2.723-1.214-2.723-2.713
			s1.224-2.723,2.723-2.723c1.5,0,2.713,1.224,2.713,2.723S91.663,49.65,90.163,49.65z M134.367,31.454
			c-5.67,0-10.27-4.6-10.27-10.271c0-5.67,4.6-10.26,10.27-10.26c5.672,0,10.261,4.59,10.261,10.26
			C144.628,26.854,140.038,31.454,134.367,31.454z M178.989,49.65c-1.499,0-2.723-1.214-2.723-2.713s1.224-2.713,2.723-2.713
			c1.5,0,2.714,1.214,2.714,2.713S180.489,49.65,178.989,49.65z"/>
		<path style="fill:#E6E6E6;" d="M90.163,42.952c-2.203,0-3.977,1.785-3.977,3.987c0,2.193,1.774,3.978,3.977,3.978
			c2.193,0,3.978-1.785,3.978-3.978C94.141,44.737,92.356,42.952,90.163,42.952z M90.163,49.652c-1.499,0-2.723-1.213-2.723-2.713
			c0-1.509,1.224-2.723,2.723-2.723c1.499,0,2.723,1.214,2.723,2.723C92.886,48.439,91.662,49.652,90.163,49.652z"/>
		<path style="fill:#E6E6E6;" d="M178.987,42.952c-2.203,0-3.977,1.785-3.977,3.987c0,2.193,1.774,3.978,3.977,3.978
			c2.193,0,3.978-1.785,3.978-3.978C182.965,44.737,181.18,42.952,178.987,42.952z M178.987,49.652
			c-1.499,0-2.723-1.213-2.723-2.713c0-1.509,1.224-2.723,2.723-2.723c1.499,0,2.723,1.214,2.723,2.723
			C181.71,48.439,180.486,49.652,178.987,49.652z"/>
		<g style="opacity:0.5;">
			<path style="fill:#FFFFFF;" d="M182.946,36.126c-8.649-4.508-8.884-7.058-12.811-9.129c-3.916-2.081-11.076-1.958-16.156-8.312
				C148.911,12.341,148.442,0,134.367,0c-14.076,0-14.545,12.341-19.614,18.686c-5.079,6.354-12.24,6.231-16.156,8.312
				c-3.927,2.071-4.162,4.62-12.811,9.129c-8.658,4.488-8.995,6.252-8.995,7.731v1.02c0-1.479,0.337-3.243,8.995-7.731
				c8.649-4.508,8.884-7.058,12.811-9.129c3.916-2.081,11.077-1.958,16.156-8.312c5.069-6.345,5.538-18.686,19.614-18.686
				c14.075,0,14.544,12.341,19.613,18.686c5.08,6.354,12.24,6.231,16.156,8.312c3.927,2.071,4.162,4.621,12.811,9.129
				c8.659,4.488,9.006,6.252,9.006,7.731v-1.02C191.952,42.378,191.605,40.614,182.946,36.126z"/>
		</g>
	</g>
	<path style="opacity:0.1;" d="M92.876,46.937c0,0.173-0.02,0.347-0.051,0.51c-0.235-1.265-1.336-2.213-2.662-2.213
		c-1.326,0-2.427,0.948-2.672,2.213c-0.03-0.163-0.051-0.337-0.051-0.51c0-1.499,1.224-2.723,2.723-2.723
		C91.663,44.214,92.876,45.438,92.876,46.937z"/>
	<path style="opacity:0.1;" d="M181.702,46.947c0,0.173-0.02,0.347-0.051,0.51c-0.235-1.265-1.336-2.213-2.663-2.213
		c-1.326,0-2.427,0.948-2.672,2.213c-0.03-0.163-0.051-0.337-0.051-0.51c0-1.499,1.224-2.723,2.723-2.723
		C180.489,44.224,181.702,45.448,181.702,46.947z"/>
	<g>
		<g>
			<path style="fill:#D4D4D4;" d="M201.866,86.806c-0.112-8.792-1.917-15.126-13.116-18.012l-18.196-3.376
				c0,0-4.681-1.693-4.681-5.253v-4.773c0-6.038,0-14.912,0-14.912s0.388-2.887-3.927-4.58c-4.314-1.682-10.893-8.169-10.893-13.983
				c0-9.22-7.466-16.697-16.686-16.697c-9.219,0-16.686,7.476-16.686,16.697c0,5.814-6.579,12.301-10.893,13.983
				c-4.315,1.693-3.927,4.58-3.927,4.58s0,8.874,0,14.912v4.773c0,3.56-4.682,5.253-4.682,5.253l-18.195,3.376
				c-11.199,2.887-12.994,9.22-13.117,18.012c0,0.01-0.01,0.021-0.01,0.041c0,0.01,0.01,0.021,0.01,0.031
				c0.01,0.52,0.438,0.948,0.969,0.948h133.061c0.53,0,0.959-0.428,0.969-0.948c0-0.01,0.01-0.021,0.01-0.031
				C201.877,86.827,201.866,86.816,201.866,86.806z M134.367,10.923c5.672,0,10.261,4.59,10.261,10.26
				c0,5.67-4.589,10.271-10.261,10.271c-5.67,0-10.27-4.6-10.27-10.271C124.097,15.513,128.696,10.923,134.367,10.923z"/>
			<path style="fill:#EBEBEB;" d="M201.875,86.844c0,0.01-0.009,0.02-0.009,0.03c-0.011,0.531-0.439,0.959-0.969,0.959H67.846
				c-0.531,0-0.959-0.428-0.979-0.959c0-0.01-0.009-0.02-0.009-0.03c0-0.011,0.009-0.021,0.009-0.031
				c0.031-2.071,0.153-4.008,0.469-5.793h134.06c0.317,1.785,0.439,3.722,0.47,5.793C201.866,86.823,201.875,86.833,201.875,86.844z
				"/>
		</g>
		<g>
			<path style="fill:#FFFFFF;" d="M98.179,65.418l-18.196,3.376c-11.199,2.887-12.994,9.22-13.117,18.012
				c0,0.01-0.009,0.021-0.009,0.041c0,0.01,0.009,0.021,0.009,0.031c0,0.061,0.01,0.122,0.021,0.183
				c0.215-8.394,2.224-14.442,13.096-17.247l18.196-3.375c0,0,4.681-1.694,4.681-5.253v-1.02
				C102.86,63.725,98.179,65.418,98.179,65.418z"/>
			<path style="fill:#FFFFFF;" d="M134.367,31.454c-5.498,0-9.985-4.315-10.261-9.741c-0.01,0.163-0.01,0.327-0.01,0.49
				c0,5.67,4.599,10.271,10.271,10.271c5.671,0,10.26-4.601,10.26-10.271c0-0.163,0-0.327-0.009-0.49
				C144.341,27.14,139.864,31.454,134.367,31.454z"/>
			<path style="fill:#FFFFFF;" d="M165.872,40.481c0,0,0.387-2.887-3.927-4.58c-4.314-1.682-10.893-8.169-10.893-13.983
				c0-9.22-7.465-16.697-16.686-16.697c-9.22,0-16.687,7.476-16.687,16.697c0,5.814-6.579,12.301-10.892,13.983
				c-4.315,1.693-3.927,4.58-3.927,4.58s0,0.255,0,0.693c0.041-0.806,0.49-2.907,3.927-4.253
				c4.313-1.682,10.892-8.169,10.892-13.983c0-9.22,7.467-16.696,16.687-16.696c9.22,0,16.686,7.476,16.686,16.696
				c0,5.814,6.579,12.301,10.893,13.983c3.436,1.347,3.885,3.447,3.927,4.253C165.872,40.736,165.872,40.481,165.872,40.481z"/>
			<path style="fill:#FFFFFF;" d="M201.866,86.806c-0.113-8.792-1.918-15.126-13.117-18.012l-18.196-3.376
				c0,0-4.681-1.693-4.681-5.253v1.02c0,3.56,4.681,5.253,4.681,5.253l18.196,3.375c10.832,2.795,12.882,8.813,13.107,17.166
				c0.01-0.03,0.01-0.071,0.01-0.102c0-0.01,0.009-0.021,0.009-0.031C201.875,86.827,201.866,86.816,201.866,86.806z"/>
			<path style="fill:#FFFFFF;" d="M165.872,41.174v0.327C165.872,41.501,165.892,41.378,165.872,41.174z"/>
			<path style="fill:#FFFFFF;" d="M102.86,41.501v-0.327C102.84,41.378,102.86,41.501,102.86,41.501z"/>
		</g>
	</g>
</g>
</svg>
