<?xml version="1.0" encoding="utf-8"?>
<!-- Generator: Adobe Illustrator 17.0.0, SVG Export Plug-In . SVG Version: 6.00 Build 0)  -->
<!DOCTYPE svg PUBLIC "-//W3C//DTD SVG 1.1//EN" "http://www.w3.org/Graphics/SVG/1.1/DTD/svg11.dtd">
<svg version="1.1" id="图层_1" xmlns="http://www.w3.org/2000/svg" xmlns:xlink="http://www.w3.org/1999/xlink" x="0px" y="0px"
	 width="31px" height="30px" viewBox="0 0 31 30" enable-background="new 0 0 31 30" xml:space="preserve">
<path fill="#FF9C43" d="M29.905,26.127c-1.07,3.599-5.934,3.41-5.934,3.41c-9.437,1.136-18.776-0.19-18.776-0.19
	c-3.016-0.379-4.086-3.315-4.086-3.315C-1.324,15.613,1.011,4.153,1.011,4.153c0.779-2.842,3.6-3.316,3.6-3.316
	c7.88-1.799,20.917-0.189,20.917-0.189c4.474,0.568,4.864,4.357,4.864,4.357C32.046,16.466,29.905,26.127,29.905,26.127z
	 M3.152,13.624c0,0-1.557,3.126,1.556,4.262c0,0,2.53,0.664,3.892-1.231c0,0,2.238-1.894,4.378-0.663c0,0,1.653,0.474-1.07,2.557
	c0,0-1.849,1.326-2.433,1.516c0,0-3.794,2.084-1.264,5.304c0,0,1.459,1.799,4.28,0.095l4.281-2.652c0,0,0.778-0.947,1.07,0.378
	c0,0,0,2.748,2.238,3.031c0,0,2.14,0.663,3.405-1.326c0,0,1.653-2.368-0.973-4.357c0,0-1.848-1.231-2.919-1.231
	c0,0-1.459-0.947-1.459,0.947c0,0,0.486,1.8-2.822,1.705c0,0-3.113,0.379-2.043-1.421c0,0,2.627-2.557,3.211-2.936
	c0,0,2.432-1.515,1.167-3.789c0,0-1.751-2.178-4.086-0.473c0,0-2.821,1.894-5.059-0.095C8.502,13.245,5.779,10.309,3.152,13.624z
	 M22.512,4.626c0,0-2.725-1.705-4.67,0.474c0,0-1.848,2.273-4.183,0.189c0,0-2.141-2.462-4.865-0.852c0,0-2.529,1.894-0.292,4.641
	c0,0,2.628,1.799,4.476-0.19c0,0,2.724-2.746,5.156,0c0,0,2.626,2.084,4.669,0C22.803,8.888,24.944,6.899,22.512,4.626z
	 M27.765,13.151c-1.848-1.895-4.28-0.474-4.28-0.474l-2.919,2.084c-0.195,0.757,2.724,2.652,2.724,2.652
	c2.53,1.231,3.891-0.095,3.891-0.095C29.516,15.613,27.765,13.151,27.765,13.151z"/>
</svg>
