<?xml version="1.0" encoding="iso-8859-1"?>
<!-- Generator: Adobe Illustrator 17.0.0, SVG Export Plug-In . SVG Version: 6.00 Build 0)  -->
<!DOCTYPE svg PUBLIC "-//W3C//DTD SVG 1.1//EN" "http://www.w3.org/Graphics/SVG/1.1/DTD/svg11.dtd">
<svg version="1.1" xmlns="http://www.w3.org/2000/svg" xmlns:xlink="http://www.w3.org/1999/xlink" x="0px" y="0px" width="128px"
	 height="128px" viewBox="0 0 128 128" style="enable-background:new 0 0 128 128;" xml:space="preserve">
<g id="Layer_1">
</g>
<g id="Layer_2">
	<g>
		<circle style="fill:#88C5CC;" cx="64" cy="64" r="64"/>
		<path style="fill:#66401E;" d="M12.507,101.706c11.657,16,30.378,26,51.493,26s39.836-10,51.493-26H12.507z"/>
		<path style="fill:#F5F5F5;" d="M71,67c-5.523,0-10,4.477-10,10s4.477,10,10,10c5.523,0,10-4.477,10-10S76.523,67,71,67z M71,82
			c-2.762,0-5-2.238-5-5s2.238-5,5-5c2.762,0,5,2.238,5,5S73.762,82,71,82z"/>
		<g>
			<path style="fill:#E6E6E6;" d="M70,72.101C69.677,72.035,69.343,72,69,72c-2.762,0-5,2.238-5,5s2.238,5,5,5
				c0.343,0,0.677-0.035,1-0.101c-2.282-0.463-4-2.48-4-4.899S67.718,72.564,70,72.101z"/>
			<path style="fill:#E6E6E6;" d="M71,67c-0.337,0-0.671,0.018-1,0.05c5.053,0.502,9,4.764,9,9.95s-3.947,9.448-9,9.95
				c0.329,0.033,0.663,0.05,1,0.05c5.523,0,10-4.477,10-10S76.523,67,71,67z"/>
		</g>
		<path style="fill:#F5F5F5;" d="M69,67.706c0,1.657-1.343,3-3,3H20c-1.657,0-3-1.343-3-3v-12c0-1.657,1.343-3,3-3h46
			c1.657,0,3,1.343,3,3V67.706z"/>
		<path style="fill:#E6E6E6;" d="M69,54.206c0-0.828-0.672-1.5-1.5-1.5l0,0c-0.828,0-1.5,0.672-1.5,1.5v15
			c0,0.828,0.672,1.5,1.5,1.5l0,0c0.828,0,1.5-0.672,1.5-1.5V54.206z"/>
		<polygon style="fill:#F5F5F5;" points="61,101.706 25,101.706 22,70.706 64,70.706 		"/>
		<polygon style="fill:#E6E6E6;" points="61,70.706 58,101.706 61,101.706 64,70.706 		"/>
		<polygon style="fill:#E6E6E6;" points="63.807,72.706 64,70.706 22,70.706 22.193,72.706 		"/>
		<path style="opacity:0.3;fill:#E6E6E6;" d="M44,13c-1,13,14,16,1,31C51,35,35,27,44,13z"/>
		<path style="opacity:0.2;fill:#E6E6E6;" d="M34,25c1,11,12,13,1,24C39,43,27,36,34,25z"/>
		<path style="fill:#F5F5F5;" d="M120.535,93.706H81c-1.1,0-2,1.194-2,2.294v4c0,1.1,0.9,1.706,2,1.706h34.493
			C117.363,99.706,119.048,96.706,120.535,93.706z"/>
		<path style="opacity:0.2;fill:#E6E6E6;" d="M55,25c1,11,12,13,1,24C60,43,48,36,55,25z"/>
		<path style="fill:#242424;" d="M119.991,94.706H78v6h38.204C117.571,98.706,118.84,96.706,119.991,94.706z"/>
		<circle style="fill:#F5F5F5;" cx="95" cy="98" r="2"/>
		<circle style="fill:#F5F5F5;" cx="101" cy="98" r="2"/>
		<path style="fill:#F5F5F5;" d="M88,98.706h-3c-0.552,0-1-0.448-1-1s0.448-1,1-1h3c0.552,0,1,0.448,1,1S88.552,98.706,88,98.706z"
			/>
	</g>
</g>
</svg>
