<?xml version="1.0" encoding="utf-8"?><!DOCTYPE svg PUBLIC "-//W3C//DTD SVG 1.1//EN" "http://www.w3.org/Graphics/SVG/1.1/DTD/svg11.dtd"><svg version="1.1" baseProfile="full" xmlns="http://www.w3.org/2000/svg" xmlns:xlink="http://www.w3.org/1999/xlink" xmlns:ev="http://www.w3.org/2001/xml-events"   height="160px"   width="160px" ><path stroke="rgb( 14, 5, 10 )" stroke-width="0px" stroke-linecap="butt" stroke-linejoin="miter" fill="rgb( 123, 144, 227 )" d="M0,160 C0,160 0,0 0,0 C0,0 160,0 160,0 C160,0 160,160 160,160 C160,160 0,160 0,160 ZM138.562,45.852 C138.562,45.852 79.652,11.84 79.652,11.84 C79.652,11.84 20.742,45.852 20.742,45.852 C20.742,45.852 20.742,113.875 20.742,113.875 C20.742,113.875 79.652,147.887 79.652,147.887 C79.652,147.887 138.562,113.875 138.562,113.875 C138.562,113.875 138.562,45.852 138.562,45.852 Z "/></svg>