<?xml version="1.0" encoding="utf-8"?>
<!-- Generator: Adobe Illustrator 17.0.0, SVG Export Plug-In . SVG Version: 6.00 Build 0)  -->
<!DOCTYPE svg PUBLIC "-//W3C//DTD SVG 1.1//EN" "http://www.w3.org/Graphics/SVG/1.1/DTD/svg11.dtd">
<svg version="1.1" id="图层_1" xmlns="http://www.w3.org/2000/svg" xmlns:xlink="http://www.w3.org/1999/xlink" x="0px" y="0px"
	 width="522.553px" height="77.961px" viewBox="0 0 522.553 77.961" enable-background="new 0 0 522.553 77.961"
	 xml:space="preserve">
<path id="eqxiu" transform="scale(1,1)" fill="#FF435A" d="M0,1.877c0,0,38.349-12.221,50.57,25.706c0,0-1.264-22.335,24.863-19.806
	c22.335,2.528,33.292,29.078,33.292,29.078s6.743,14.749,11.8,20.649c1.686,2.107,9.271,10.957,36.663,5.9
	c0,0-24.442,11.8-40.877-2.528c0,0-6.743-8.428-10.114-13.907c-2.528-4.636-9.271-24.863-26.97-30.763
	c-10.114-3.793-19.385,0-21.914,9.693c-3.371,10.957,7.585,17.699,7.585,17.699s9.693,4.636,13.485-3.371c0,0,1.686-5.057-1.264-5.9
	c0,0-3.793,6.321-8.428,2.528c-4.214-2.95-0.421-10.114,4.636-10.535c6.321,0,13.064,3.793,11.8,13.064
	c-1.264,8.85-8.428,12.221-13.907,11.8c-11.8-1.686-15.592-5.478-20.649-13.907C40.034,17.891,36.242,1.034,0,1.877L0,1.877z
	 M124.738,68.46c0,0,21.492,11.8,40.877-5.478c0,0-3.793,12.221,10.957,14.749c12.642,2.107,22.756-10.957,22.756-10.957
	s5.478-6.743,9.271-9.271c1.686-1.264,6.743-4.636,21.071,2.107c0,0-11.378-10.114-22.756-4.636c0,0-5.478,3.371-7.585,5.9
	c-1.686,2.107-8.85,12.221-19.385,13.064c-6.321,0.421-10.535-2.95-10.535-8.85c0-6.743,6.743-8.85,6.743-8.85
	s5.9-0.843,7.585,3.793c0,0,0,3.371-2.107,3.371c0,0-1.264-4.214-4.214-2.528c-2.528,1.264-1.686,5.478,1.264,6.321
	c3.371,1.264,7.585,0,8.428-5.478c0.421-5.478-2.95-8.007-5.9-8.85c-6.743-1.264-9.271,0.843-13.485,4.214
	C158.873,66.353,144.545,74.36,124.738,68.46L124.738,68.46z M522.553,1.877c0,0-37.927-12.221-50.148,25.706
	c0,0,1.264-22.335-24.863-19.806c-22.335,2.528-33.292,29.078-33.292,29.078s-6.743,14.749-11.8,20.649
	c-2.107,2.107-9.693,10.957-37.084,5.9c0,0,25.285,11.8,41.299-2.528c0,0,6.743-8.428,9.693-13.907
	c2.528-4.636,9.271-24.863,27.392-30.763c9.693-3.793,18.964,0,21.913,9.693c3.371,10.957-7.585,17.699-7.585,17.699
	s-9.693,4.636-13.907-3.371c0,0-1.686-5.057,1.264-5.9c0,0,3.371,6.321,8.007,2.528c4.636-2.95,0.843-10.114-4.214-10.535
	c-6.321,0-12.642,3.793-11.378,13.064c0.843,8.85,8.007,12.221,13.485,11.8c11.8-1.686,15.592-5.478,20.649-13.907
	C482.94,17.891,486.733,1.034,522.553,1.877L522.553,1.877z M397.815,68.46c0,0-21.071,11.8-40.877-5.478
	c0,0,4.214,12.221-10.114,14.749c-12.642,2.107-22.756-10.957-22.756-10.957s-5.478-6.743-9.693-9.271
	c-1.264-1.264-6.743-4.636-21.071,2.107c0,0,11.8-10.114,22.756-4.636c0,0,5.057,3.371,7.585,5.9
	c2.107,2.107,8.85,12.221,19.385,13.064c6.321,0.421,10.535-2.95,10.535-8.85c0-6.743-7.164-8.85-7.164-8.85s-5.9-0.843-6.743,3.793
	c0,0,0,3.371,1.686,3.371c0,0,0.843-4.214,4.214-2.528c2.528,1.264,1.686,5.478-0.843,6.321c-3.793,1.264-7.585,0-8.007-5.478
	c-0.843-5.478,2.528-8.007,5.9-8.85c6.321-1.264,9.271,0.843,13.064,4.214C364.102,66.353,378.008,74.36,397.815,68.46
	L397.815,68.46z M263.384,59.189c0,2.107-1.686,4.214-3.793,4.214c-2.528,0-4.214-1.686-4.214-4.214
	c0-2.107,1.686-4.214,4.214-4.214C261.277,54.975,263.384,57.082,263.384,59.189L263.384,59.189z"/>
</svg>
