<?xml version="1.0" encoding="utf-8"?>
<!-- Generator: Adobe Illustrator 17.0.0, SVG Export Plug-In . SVG Version: 6.00 Build 0)  -->
<!DOCTYPE svg PUBLIC "-//W3C//DTD SVG 1.1//EN" "http://www.w3.org/Graphics/SVG/1.1/DTD/svg11.dtd">
<svg version="1.1" id="图层_1" xmlns="http://www.w3.org/2000/svg" xmlns:xlink="http://www.w3.org/1999/xlink" x="0px" y="0px"
	 width="64px" height="64px" viewBox="0 0 64 64" enable-background="new 0 0 64 64" xml:space="preserve">
<path fill="#76C2AF" d="M32,0c17.673,0,32,14.327,32,32S49.673,64,32,64S0,49.673,0,32S14.327,0,32,0z"/>
<path opacity="0.2" fill="#231F20" d="M13.851,49.42c1.596,2.071,4.892,2.206,7.362,0.303C22.218,48.948,24,46.844,24,42.531V29.194
	l19-3.629v8.418c0,2.97-2.405,3.652-3.21,3.804c-0.07,0.009-0.139,0.026-0.209,0.038c-0.036,0.004-0.09,0.011-0.09,0.011
	l0.013,0.004c-0.951,0.173-1.909,0.572-2.769,1.233c-2.47,1.903-3.181,5.124-1.585,7.196c1.596,2.071,4.892,2.208,7.362,0.305
	C43.763,45.61,45,43.75,45,40.844v-22.33c0-1.178-0.956-1.843-2.133-1.483l-19.2,3.629C22.489,21.019,22,22.267,22,23.445v12.993
	c0,2.974-2.745,4.351-3.547,4.5c-0.041,0.006-0.081,0.019-0.124,0.026c-0.105,0.017-0.173,0.023-0.173,0.023l0.023,0.011
	c-0.943,0.177-1.892,0.572-2.743,1.227C12.966,44.127,12.258,47.348,13.851,49.42z"/>
<path fill="#FFFFFF" d="M13.851,47.42c1.596,2.071,4.892,2.206,7.362,0.303C22.218,46.948,24,44.844,24,40.531V27.194l19-3.629
	v8.418c0,2.97-2.405,3.652-3.21,3.804c-0.07,0.009-0.139,0.026-0.209,0.038c-0.036,0.004-0.09,0.011-0.09,0.011l0.013,0.004
	c-0.951,0.173-1.909,0.572-2.769,1.233c-2.47,1.903-3.181,5.124-1.585,7.196c1.596,2.071,4.892,2.208,7.362,0.305
	C43.763,43.61,45,41.75,45,38.844v-22.33c0-1.178-0.956-1.843-2.133-1.483l-19.2,3.629C22.489,19.019,22,20.267,22,21.445v12.993
	c0,2.974-2.745,4.351-3.547,4.5c-0.041,0.006-0.081,0.019-0.124,0.026c-0.105,0.017-0.173,0.023-0.173,0.023l0.023,0.011
	c-0.943,0.177-1.892,0.572-2.743,1.227C12.966,42.127,12.258,45.348,13.851,47.42z"/>
</svg>
