<?xml version="1.0" encoding="utf-8"?>
<!-- Generator: Adobe Illustrator 16.0.0, SVG Export Plug-In . SVG Version: 6.00 Build 0)  -->
<!DOCTYPE svg PUBLIC "-//W3C//DTD SVG 1.1//EN" "http://www.w3.org/Graphics/SVG/1.1/DTD/svg11.dtd">
<svg version="1.1" id="Layer_1" xmlns="http://www.w3.org/2000/svg" xmlns:xlink="http://www.w3.org/1999/xlink" x="0px" y="0px"
	 width="51.812px" height="45.504px" viewBox="0 0 51.812 45.504" enable-background="new 0 0 51.812 45.504" xml:space="preserve">
<path fill="#A60512" d="M9.375,35.195c-0.203-0.24-0.264-0.504-0.182-0.807c0.063-0.236,0.19-0.419,0.377-0.541
	c0.473-0.312,1.197-0.185,1.205-0.185l0.311,0.062l0.072-0.308c0-0.008,0.174-0.711,0.643-1.021c0.191-0.125,0.412-0.168,0.66-0.131
	c0.318,0.049,0.537,0.215,0.677,0.512c0.356,0.766-0.564,2.184-0.603,3.24C11.672,35.59,9.883,35.793,9.375,35.195z M16.264,36.471
	c-0.142-0.297-0.359-0.463-0.677-0.512c-0.25-0.037-0.471,0.006-0.659,0.131c-0.47,0.311-0.644,1.014-0.646,1.02l-0.072,0.312
	L13.9,37.359c-0.008-0.002-0.73-0.131-1.205,0.182c-0.184,0.123-0.312,0.305-0.375,0.541c-0.082,0.305-0.023,0.566,0.182,0.807
	c0.506,0.598,2.295,0.394,3.16,0.822C15.699,38.654,16.621,37.236,16.264,36.471z M19.453,42.557
	c-0.863-0.43-2.654-0.227-3.16-0.822c-0.205-0.239-0.264-0.504-0.182-0.807c0.063-0.238,0.19-0.418,0.377-0.541
	c0.473-0.313,1.197-0.186,1.203-0.184l0.312,0.061l0.072-0.309c0-0.008,0.174-0.709,0.643-1.02c0.189-0.125,0.412-0.17,0.66-0.134
	c0.316,0.05,0.537,0.218,0.677,0.513C20.412,40.08,19.49,41.5,19.453,42.557z M23.723,44.502c-0.863-0.428-2.652-0.225-3.16-0.82
	c-0.205-0.242-0.265-0.506-0.183-0.807c0.064-0.238,0.193-0.42,0.377-0.543c0.474-0.312,1.197-0.182,1.205-0.182l0.312,0.059
	l0.072-0.307c0.002-0.008,0.174-0.709,0.643-1.021c0.191-0.125,0.412-0.17,0.66-0.133c0.315,0.049,0.537,0.217,0.676,0.512
	C24.682,42.027,23.76,43.447,23.723,44.502z M28.283,45.504c-0.863-0.43-2.652-0.227-3.158-0.822
	c-0.205-0.24-0.264-0.504-0.182-0.807c0.063-0.238,0.19-0.418,0.375-0.541c0.475-0.312,1.199-0.184,1.205-0.182l0.311,0.059
	l0.072-0.309c0.002-0.008,0.174-0.709,0.645-1.021c0.189-0.125,0.412-0.17,0.66-0.133c0.316,0.049,0.537,0.217,0.674,0.515
	C29.244,43.027,28.32,44.447,28.283,45.504z M32.949,45.51c-0.863-0.43-2.65-0.227-3.158-0.822
	c-0.203-0.239-0.264-0.506-0.182-0.807c0.063-0.238,0.19-0.42,0.377-0.543c0.473-0.312,1.197-0.182,1.203-0.182l0.311,0.061
	l0.072-0.309c0.002-0.008,0.174-0.709,0.645-1.02c0.189-0.125,0.412-0.171,0.658-0.132c0.318,0.048,0.539,0.216,0.676,0.511
	C33.91,43.033,32.986,44.453,32.949,45.51z M37.533,44.471c-0.863-0.43-2.652-0.225-3.158-0.82
	c-0.205-0.239-0.266-0.504-0.182-0.809c0.063-0.236,0.188-0.418,0.375-0.539c0.475-0.313,1.197-0.186,1.205-0.184l0.311,0.061
	l0.072-0.309c0.002-0.008,0.174-0.709,0.643-1.02c0.191-0.127,0.412-0.17,0.66-0.134c0.318,0.05,0.537,0.218,0.676,0.513
	C38.494,41.996,37.57,43.414,37.533,44.471z M41.85,42.342c-0.863-0.43-2.654-0.227-3.16-0.822
	c-0.205-0.239-0.267-0.504-0.183-0.807c0.064-0.238,0.191-0.42,0.375-0.541c0.476-0.312,1.199-0.184,1.205-0.184l0.312,0.061
	l0.072-0.309c0.002-0.006,0.176-0.709,0.645-1.02c0.189-0.125,0.412-0.171,0.66-0.132c0.315,0.05,0.537,0.216,0.676,0.511
	C42.809,39.865,41.887,41.285,41.85,42.342z M45.596,39.215c-0.863-0.43-2.652-0.227-3.16-0.82
	c-0.203-0.242-0.265-0.506-0.183-0.809c0.064-0.236,0.191-0.418,0.377-0.541c0.476-0.312,1.197-0.184,1.203-0.182l0.312,0.059
	l0.069-0.307c0.005-0.008,0.177-0.711,0.646-1.021c0.19-0.127,0.412-0.17,0.66-0.133c0.317,0.049,0.539,0.218,0.676,0.513
	C46.555,36.74,45.633,38.158,45.596,39.215z M49.035,32.197c-0.137-0.295-0.356-0.463-0.674-0.512
	c-0.25-0.037-0.471,0.008-0.662,0.133c-0.469,0.309-0.641,1.012-0.643,1.02l-0.072,0.309l-0.312-0.061
	c-0.008-0.002-0.729-0.131-1.202,0.184c-0.187,0.121-0.312,0.304-0.378,0.541c-0.081,0.304-0.022,0.566,0.183,0.808
	c0.506,0.596,2.297,0.393,3.158,0.821C48.471,34.381,49.395,32.963,49.035,32.197z M50.328,31.191
	c-0.863-0.428-2.654-0.226-3.16-0.822c-0.205-0.24-0.266-0.504-0.182-0.807c0.065-0.236,0.19-0.418,0.375-0.541
	c0.475-0.312,1.197-0.185,1.205-0.183l0.311,0.06l0.072-0.308c0.002-0.008,0.176-0.711,0.646-1.021
	c0.188-0.125,0.411-0.168,0.659-0.131c0.316,0.049,0.537,0.215,0.677,0.512C51.287,28.717,50.365,30.135,50.328,31.191z
	 M51.236,26.654c-0.863-0.43-2.652-0.225-3.16-0.82c-0.203-0.242-0.264-0.506-0.18-0.809c0.063-0.234,0.188-0.418,0.375-0.541
	c0.475-0.312,1.199-0.185,1.203-0.183l0.312,0.062l0.072-0.309c0-0.009,0.174-0.71,0.645-1.021c0.189-0.127,0.41-0.17,0.658-0.133
	c0.318,0.049,0.537,0.217,0.676,0.512C52.197,24.18,51.273,25.6,51.236,26.654z M51.127,22.006c-0.86-0.428-2.649-0.225-3.157-0.82
	c-0.203-0.24-0.267-0.504-0.183-0.807c0.066-0.236,0.191-0.42,0.377-0.541c0.476-0.314,1.197-0.186,1.203-0.184l0.312,0.061
	l0.071-0.309c0.002-0.008,0.174-0.709,0.644-1.021c0.188-0.125,0.414-0.17,0.657-0.133c0.32,0.049,0.539,0.217,0.679,0.512
	C52.088,19.531,51.166,20.951,51.127,22.006z M49.967,17.428c-0.864-0.43-2.651-0.225-3.159-0.822
	c-0.205-0.24-0.267-0.504-0.183-0.807c0.064-0.236,0.191-0.418,0.377-0.541c0.474-0.314,1.197-0.186,1.203-0.184l0.312,0.061
	l0.071-0.309c0-0.006,0.175-0.709,0.644-1.02c0.188-0.125,0.41-0.17,0.66-0.133c0.315,0.049,0.537,0.217,0.674,0.512
	C50.926,14.951,50.004,16.371,49.967,17.428z M47.713,13.098c-0.86-0.43-2.649-0.225-3.157-0.82
	c-0.205-0.242-0.265-0.506-0.183-0.809c0.064-0.236,0.191-0.418,0.377-0.541c0.474-0.313,1.197-0.184,1.203-0.182l0.312,0.061
	l0.071-0.311c0.002-0.006,0.177-0.709,0.646-1.02c0.19-0.125,0.412-0.168,0.66-0.131c0.315,0.047,0.537,0.217,0.674,0.512
	C48.674,10.623,47.75,12.041,47.713,13.098z M45.162,6.191c-0.137-0.295-0.356-0.463-0.674-0.51
	c-0.248-0.039-0.469,0.006-0.66,0.131c-0.469,0.311-0.641,1.012-0.645,1.02l-0.07,0.307L42.801,7.08
	c-0.006-0.002-0.729-0.131-1.202,0.182c-0.187,0.123-0.312,0.305-0.377,0.543c-0.084,0.303-0.023,0.566,0.182,0.807
	c0.506,0.596,2.297,0.393,3.16,0.82C44.6,8.377,45.521,6.957,45.162,6.191z M40.75,6.617c-0.862-0.43-2.651-0.225-3.158-0.82
	c-0.204-0.24-0.266-0.504-0.184-0.809c0.066-0.236,0.193-0.418,0.377-0.541c0.475-0.312,1.199-0.182,1.205-0.182l0.311,0.061
	l0.072-0.309c0.002-0.006,0.174-0.709,0.646-1.02c0.188-0.125,0.412-0.17,0.657-0.133c0.318,0.049,0.539,0.217,0.677,0.512
	C41.711,4.143,40.787,5.562,40.75,6.617z M36.469,4.703c-0.863-0.43-2.654-0.227-3.16-0.822c-0.205-0.24-0.265-0.504-0.183-0.807
	c0.064-0.236,0.189-0.42,0.375-0.541c0.476-0.314,1.199-0.184,1.205-0.184l0.312,0.061l0.071-0.309
	c0.002-0.006,0.177-0.709,0.646-1.02c0.188-0.125,0.41-0.17,0.66-0.131C36.711,1,36.932,1.166,37.07,1.461
	C37.428,2.229,36.504,3.646,36.469,4.703z M31.898,3.736c-0.863-0.43-2.65-0.227-3.158-0.822c-0.205-0.242-0.264-0.506-0.182-0.809
	c0.063-0.234,0.19-0.418,0.375-0.541c0.475-0.312,1.198-0.182,1.205-0.182l0.312,0.061l0.072-0.309c0-0.008,0.174-0.709,0.643-1.02
	c0.189-0.127,0.412-0.17,0.658-0.131c0.318,0.047,0.539,0.215,0.676,0.51C32.859,1.26,31.938,2.68,31.898,3.736z M27.232,3.766
	c-0.863-0.43-2.65-0.227-3.158-0.822c-0.205-0.24-0.264-0.504-0.182-0.809c0.063-0.234,0.19-0.418,0.375-0.539
	c0.475-0.314,1.198-0.184,1.205-0.184l0.312,0.061l0.072-0.309c0-0.008,0.172-0.709,0.643-1.02c0.189-0.125,0.412-0.17,0.658-0.133
	c0.318,0.049,0.539,0.217,0.676,0.512C28.193,1.289,27.271,2.709,27.232,3.766z M22.656,4.84c-0.863-0.43-2.654-0.227-3.16-0.822
	c-0.205-0.24-0.264-0.504-0.182-0.807c0.063-0.238,0.19-0.42,0.377-0.541c0.473-0.314,1.197-0.184,1.203-0.184l0.312,0.061
	l0.072-0.309c0-0.008,0.174-0.709,0.643-1.02c0.191-0.125,0.412-0.17,0.66-0.133c0.318,0.049,0.537,0.217,0.676,0.512
	C23.615,2.363,22.693,3.783,22.656,4.84z M15.195,6.186c-0.205-0.24-0.266-0.504-0.182-0.807c0.063-0.236,0.19-0.418,0.375-0.541
	c0.475-0.312,1.196-0.184,1.202-0.184l0.312,0.061l0.072-0.309c0.002-0.006,0.174-0.709,0.645-1.021
	c0.189-0.125,0.41-0.17,0.658-0.133c0.318,0.051,0.539,0.217,0.676,0.512c0.359,0.766-0.563,2.186-0.602,3.242
	C17.49,6.578,15.701,6.781,15.195,6.186z"/>
<path fill="#F2F2F2" d="M8.713,10.172l2.396,0.094l3.758-0.021l-0.305,0.352c-0.486,0-0.972,0.043-1.457,0.129
	c-0.484,0.086-0.967,0.314-1.443,0.682c-0.479,0.367-0.883,0.824-1.211,1.373l-0.211,0.354c-0.109,0.25-0.367,0.869-0.775,1.855
	c-0.405,0.986-0.752,1.801-1.032,2.441c-0.281,0.643-0.675,1.387-1.175,2.232c-0.502,0.846-0.971,1.508-1.407,1.984
	c-0.439,0.479-0.961,0.861-1.562,1.15c-0.604,0.289-1.168,0.436-1.69,0.436c-0.525,0-0.998-0.141-1.423-0.424
	C0.391,22.277,0,21.424,0,20.248c0-0.201,0.031-0.312,0.095-0.328c0.108-0.014,0.163,0.047,0.163,0.188
	c0,0.721,0.177,1.273,0.529,1.656c0.353,0.385,0.816,0.576,1.396,0.576c1.235,0,2.498-0.861,3.78-2.584
	c0.252-0.312,0.463-0.584,0.636-0.811c0.172-0.227,0.379-0.551,0.623-0.975c0.241-0.424,0.409-0.713,0.506-0.869
	c0.092-0.156,0.27-0.496,0.526-1.021c0.258-0.525,0.406-0.826,0.447-0.904c0.039-0.078,0.203-0.432,0.492-1.057
	c0.289-0.627,0.44-0.955,0.459-0.986c0.5-1.049,1.125-1.824,1.877-2.326h-0.703c-2.443,0-3.664,0.564-3.664,1.691
	c0,0.266,0.094,0.604,0.283,1.01L7.21,13.696c-0.61-1.064-0.92-1.645-0.928-1.738c-0.01-0.094-0.012-0.17-0.012-0.234
	c0-0.453,0.117-0.791,0.352-1.01C7.031,10.354,7.729,10.172,8.713,10.172z"/>
<path fill="#F2F2F2" d="M12.496,23.162c-0.016,0.016-0.041,0.023-0.072,0.023c-0.03,0-0.047-0.086-0.047-0.258
	c0-0.174,0.078-0.299,0.234-0.377l0.166-0.047c0.609-0.031,1.188-0.305,1.738-0.822c0.547-0.516,0.938-1.057,1.174-1.621l2.16-5.4
	c0.485-1.238,1.043-2.248,1.668-3.031c0.752-0.971,1.793-1.457,3.125-1.457c0.703,0,1.282,0.121,1.737,0.365
	c0.453,0.242,0.683,0.559,0.683,0.951c0,0.094-0.019,0.207-0.049,0.342c-0.031,0.133-0.173,0.379-0.423,0.738
	c-0.252,0.361-0.411,0.643-0.481,0.846s-0.156,0.281-0.258,0.234c-0.103-0.047-0.123-0.117-0.06-0.211
	c0.283-0.408,0.424-0.838,0.424-1.293c0-0.453-0.1-0.852-0.295-1.195c-0.194-0.346-0.521-0.518-0.975-0.518
	c-1.002,0-1.785,0.525-2.348,1.572l-4.347,8.01c-0.674,1.221-1.323,1.959-1.951,2.207c2.101,0,3.74,0,4.923,0
	c1.182,0,1.85-0.002,2.008-0.01s0.342-0.02,0.553-0.035c0.211-0.015,0.387-0.033,0.527-0.049c0.141-0.014,0.28-0.039,0.424-0.068
	c0.484-0.111,0.729-0.424,0.729-0.939c0-0.393-0.213-0.689-0.635-0.893c-0.108-0.047-0.125-0.104-0.047-0.166
	c0.156-0.107,0.438,0.082,0.846,0.576c0.406,0.492,0.646,0.834,0.718,1.021c0.067,0.188,0.104,0.377,0.104,0.562
	c0,0.189-0.117,0.381-0.354,0.576c-0.234,0.197-0.773,0.295-1.619,0.295c-0.847,0-2.334-0.08-4.463-0.234
	c-2.429-0.158-3.769-0.236-4.019-0.236C13.387,22.621,12.885,22.801,12.496,23.162z M31.707,17.383c0,0.846-0.422,1.879-1.268,3.102
	c-0.328,0.438-0.627,0.783-0.892,1.033c1.033,0,1.986-0.578,2.863-1.738c0.078-0.078,0.117-0.051,0.117,0.082
	c0,0.133-0.031,0.238-0.094,0.318c-0.8,1.111-1.707,1.666-2.726,1.666c-0.141,0-0.28-0.008-0.422-0.023
	c-0.877,0.814-1.863,1.223-2.959,1.223c-0.643,0-0.963-0.275-0.963-0.824c0-0.893,0.43-1.932,1.291-3.123
	c0.547-0.783,1.213-1.4,1.996-1.855c0.83-0.516,1.535-0.773,2.113-0.773C31.395,16.469,31.707,16.773,31.707,17.383z M30.582,17.406
	c0-0.375-0.143-0.562-0.424-0.562c-0.094,0-0.275,0.051-0.541,0.152s-0.598,0.359-0.998,0.775c-0.397,0.414-0.779,0.943-1.139,1.584
	c-0.674,1.113-1.01,1.939-1.01,2.479c0,0.541,0.141,0.811,0.422,0.811c0.219,0,0.463-0.074,0.729-0.223
	c0.267-0.149,0.478-0.301,0.635-0.459c0.484-0.516,0.994-1.217,1.525-2.102C30.312,18.979,30.582,18.158,30.582,17.406z
	 M35.348,22.691c-0.783,0.486-1.369,0.57-1.761,0.26c-0.205-0.174-0.299-0.486-0.282-0.941c0-1.346,0.233-2.646,0.704-3.898
	c-0.219,0.314-0.557,0.764-1.01,1.35c-0.455,0.588-0.688,0.891-0.705,0.906c-0.108,0.156-0.164,0.141-0.164-0.047
	c0-0.125,0.039-0.234,0.117-0.33c0.877-1.174,1.605-2.215,2.185-3.123c0.563-0.078,0.948-0.213,1.151-0.398
	c0.062-0.062,0.113-0.096,0.152-0.096s0.059,0.033,0.059,0.096c0,0.062-0.022,0.125-0.069,0.187
	c-0.283,0.424-0.604,1.223-0.963,2.398c-0.359,1.174-0.541,2.039-0.541,2.594c0,0.557,0.135,0.834,0.399,0.834
	c0.625,0,1.439-0.799,2.441-2.395c0.721-1.176,1.098-2.1,1.127-2.773c0-0.359-0.062-0.578-0.187-0.658
	c-0.125-0.047-0.17-0.092-0.131-0.141c0.039-0.045,0.082-0.07,0.131-0.07c0.045,0,0.117,0.018,0.209,0.047
	c0.097,0.031,0.183,0.064,0.259,0.094c0.268,0.127,0.432,0.256,0.493,0.387c0.064,0.135,0.097,0.295,0.097,0.482
	c0,0.564-0.502,1.504-1.504,2.82C36.555,21.588,35.818,22.395,35.348,22.691z M40.258,20.201c-0.235,0.611-0.352,1.18-0.352,1.705
	c0,0.523,0.32,0.785,0.961,0.785c0.236,0,0.541-0.07,0.918-0.211c0.609-0.203,1.244-0.594,1.902-1.174
	c0.658-0.58,1.196-1.145,1.619-1.691c0.047,0.047,0.071,0.109,0.071,0.188c0,0.079-0.055,0.195-0.166,0.353
	c-0.578,0.799-1.299,1.504-2.16,2.115c-0.86,0.609-1.737,0.916-2.631,0.916c-1.157,0-1.737-0.424-1.737-1.268
	c0-0.674,0.36-1.605,1.08-2.797c0.407-0.641,0.987-1.24,1.737-1.797c0.752-0.555,1.474-0.834,2.162-0.834s1.033,0.33,1.033,0.986
	c0,0.689-0.271,1.211-0.812,1.562c-0.541,0.354-1.149,0.635-1.831,0.846C41.371,20.095,40.773,20.201,40.258,20.201z M40.445,19.732
	c0.094,0,0.27,0,0.529,0c0.258,0,0.565-0.055,0.926-0.164c0.895-0.266,1.473-0.768,1.74-1.504c0.077-0.219,0.114-0.426,0.114-0.623
	c0-0.195-0.061-0.336-0.188-0.422c-0.125-0.086-0.234-0.129-0.328-0.129C42.223,16.904,41.291,17.854,40.445,19.732z"/>
<path fill="#F2F2F2" d="M25.389,26.391c0.762,0.496,1.141,1.541,1.141,3.135c0,0.785-0.139,1.654-0.416,2.609
	c0.084-0.121,0.541-0.805,1.367-2.047c0.828-1.244,1.447-2.104,1.856-2.574c0.41-0.469,0.716-0.807,0.914-1.014
	c0.199-0.205,0.494-0.434,0.888-0.688c0.393-0.254,0.745-0.381,1.061-0.381c0.338,0,0.586,0.161,0.742,0.487
	c0.061,0.136,0.092,0.254,0.092,0.363c0,0.106-0.014,0.204-0.037,0.291c-0.047,0.202-0.127,0.416-0.233,0.633
	c-0.025,0.062-0.06,0.084-0.101,0.071c-0.043-0.012-0.055-0.057-0.037-0.135c0.019-0.08,0.027-0.188,0.027-0.326
	c0-0.141-0.037-0.286-0.109-0.444c-0.108-0.252-0.301-0.381-0.58-0.381c-0.577,0-1.334,0.539-2.264,1.612
	c-1.051,1.22-1.998,2.537-2.844,3.949c-0.254,0.422-0.656,1.113-1.203,2.074c-0.551,0.959-1.1,1.678-1.648,2.154
	c-0.551,0.479-1.198,0.717-1.946,0.717c-0.39,0-0.744-0.109-1.07-0.328c-0.604-0.385-0.904-1.049-0.904-1.99
	c0-0.182,0.029-0.266,0.09-0.254c0.062,0.012,0.093,0.066,0.093,0.162c0,0.543,0.137,0.967,0.416,1.27
	c0.276,0.302,0.639,0.453,1.086,0.453c1.229,0,2.5-0.938,3.803-2.809c-0.143,0.084-0.256,0.127-0.334,0.127s-0.135-0.006-0.172-0.02
	c-0.049-0.023-0.037-0.133,0.037-0.326c0.422-1.291,0.633-2.553,0.633-3.785s-0.223-2.102-0.67-2.609h-0.435
	c-1.885,0-2.825,0.437-2.825,1.307c0,0.203,0.071,0.466,0.217,0.777l-0.183,0.146c-0.471-0.822-0.709-1.27-0.715-1.342
	s-0.01-0.133-0.01-0.183c0-0.35,0.09-0.608,0.271-0.776c0.313-0.279,0.852-0.418,1.61-0.418l1.851,0.072
	c0.856-0.011,1.821-0.019,2.896-0.019l-0.379,0.471C26.939,26.428,26.281,26.416,25.389,26.391z M33.178,31.465
	c0,0.65-0.326,1.449-0.979,2.389c-0.254,0.34-0.482,0.605-0.688,0.799c0.797,0,1.532-0.446,2.209-1.342
	c0.062-0.059,0.092-0.039,0.092,0.064c0,0.102-0.025,0.184-0.074,0.244c-0.615,0.857-1.314,1.287-2.1,1.287
	c-0.109,0-0.22-0.006-0.326-0.021c-0.679,0.63-1.438,0.943-2.283,0.943c-0.496,0-0.742-0.213-0.742-0.636
	c0-0.688,0.332-1.491,0.996-2.409c0.424-0.604,0.937-1.08,1.539-1.431c0.641-0.397,1.184-0.6,1.629-0.6
	C32.936,30.756,33.178,30.992,33.178,31.465z M32.309,31.482c0-0.291-0.109-0.437-0.326-0.437c-0.072,0-0.211,0.039-0.416,0.117
	c-0.207,0.078-0.463,0.278-0.771,0.601c-0.307,0.317-0.6,0.727-0.877,1.221c-0.52,0.856-0.778,1.496-0.778,1.912
	s0.108,0.625,0.325,0.625c0.168,0,0.355-0.06,0.562-0.172c0.203-0.115,0.367-0.232,0.488-0.354c0.373-0.4,0.766-0.938,1.176-1.621
	C32.102,32.693,32.309,32.061,32.309,31.482z M39.988,31.029c-0.363,0.109-0.775,0.668-1.24,1.674
	c-0.467,1.01-0.697,1.699-0.697,2.066c0,0.369,0.091,0.553,0.271,0.553c0.219,0,0.574-0.193,1.07-0.58
	c0.53-0.41,1.008-0.893,1.432-1.449c0.096-0.107,0.15-0.168,0.162-0.182c0.037,0.074,0.049,0.147,0.037,0.227
	c-0.015,0.08-0.092,0.203-0.236,0.373c-1.062,1.424-2.059,2.137-2.988,2.137c-0.422,0-0.635-0.164-0.635-0.488
	c0-0.219,0.078-0.553,0.236-1.008c0.158-0.453,0.301-0.805,0.434-1.059c-1.184,1.703-2.274,2.555-3.276,2.555
	c-0.291,0-0.437-0.115-0.437-0.344c0-0.291,0.236-0.908,0.707-1.85c0.109-0.217,0.254-0.512,0.435-0.887
	c0.182-0.373,0.307-0.623,0.372-0.742c0.066-0.121,0.101-0.209,0.101-0.262c0-0.056-0.021-0.082-0.055-0.082
	c-0.087,0-0.32,0.174-0.707,0.524c-0.388,0.351-0.832,0.869-1.341,1.558c-0.086,0.12-0.127,0.108-0.127-0.035
	c0-0.099,0.029-0.183,0.093-0.254c0.493-0.664,0.895-1.168,1.202-1.515c0.31-0.344,0.478-0.533,0.509-0.569
	c0.028-0.035,0.096-0.101,0.198-0.189c0.103-0.09,0.185-0.154,0.244-0.191c0.24-0.143,0.498-0.217,0.771-0.217
	c0.271,0,0.408,0.104,0.408,0.309c0,0.156-0.104,0.388-0.31,0.688c-0.205,0.303-0.516,0.86-0.932,1.678
	c-0.418,0.814-0.627,1.326-0.627,1.539c0,0.211,0.086,0.316,0.254,0.316c0.229,0,0.592-0.236,1.088-0.707
	c0.76-0.726,1.545-1.859,2.354-3.404c0.109-0.192,0.183-0.291,0.22-0.291h0.254c0.387,0,0.688-0.053,0.903-0.164
	c0.013-0.01,0.031-0.018,0.056-0.018c0.023,0,0.037,0.024,0.037,0.073C40.225,30.908,40.145,30.98,39.988,31.029z"/>
</svg>
