<?xml version="1.0" encoding="utf-8"?>
<!-- Generator: Adobe Illustrator 17.0.0, SVG Export Plug-In . SVG Version: 6.00 Build 0)  -->
<!DOCTYPE svg PUBLIC "-//W3C//DTD SVG 1.1//EN" "http://www.w3.org/Graphics/SVG/1.1/DTD/svg11.dtd">
<svg version="1.1" id="图层_1" xmlns:ev="http://www.w3.org/2001/xml-events"
	 xmlns="http://www.w3.org/2000/svg" xmlns:xlink="http://www.w3.org/1999/xlink" x="0px" y="0px" width="83.571px"
	 height="77.123px" viewBox="0 0 83.571 77.123" enable-background="new 0 0 83.571 77.123" xml:space="preserve">
<path fill="#40C2E6" d="M52.699,65.908c-43.437,24.693-39.504,5.593-40-28c-0.477-32.256-0.48-51.801,41-26
	C75.447,25.435,105.794,35.725,52.699,65.908z"/>
<path fill="#F18A13" d="M32.447,60.003C-1.301,78.908,1.755,64.285,1.37,38.567C0.999,13.871,0.997-1.092,33.224,18.661
	C50.121,29.018,73.699,36.895,32.447,60.003z"/>
<path fill="#90C502" d="M42.699,56.908c-14.442,6.877-21.765,9.555-29,11c-1.051-6.979-3.018-46.587,1-58
	c5.473,1.291,11.31,1.765,28.605,10.506C59.75,30.641,82.979,37.728,42.699,56.908z"/>
<path fill="#FFFFFF" d="M43.398,34.826c0.83,0.655,1.301,1.772,1.301,3.082s-0.471,2.427-1.301,3.082L26.602,54.253
	c-0.83,0.655-1.772,0.655-2.602,0s-1.301-1.772-1.301-3.082V24.645c0-1.31,0.471-2.427,1.301-3.082s1.772-0.655,2.602,0
	L43.398,34.826z"/>
</svg>
