<?xml version="1.0" encoding="iso-8859-1"?>
<!-- Generator: Adobe Illustrator 15.1.0, SVG Export Plug-In . SVG Version: 6.00 Build 0)  -->
<!DOCTYPE svg PUBLIC "-//W3C//DTD SVG 1.1//EN" "http://www.w3.org/Graphics/SVG/1.1/DTD/svg11.dtd">
<svg version="1.1" id="Layer_1" xmlns="http://www.w3.org/2000/svg" xmlns:xlink="http://www.w3.org/1999/xlink" x="0px" y="0px"
	 width="128px" height="128px" viewBox="0 0 128 128" style="enable-background:new 0 0 128 128;" xml:space="preserve">
<g>
	<circle style="fill:#F2CF61;" cx="64" cy="64" r="64"/>
	<g>
		<g>
			<defs>
				<circle id="SVGID_1_" cx="64" cy="64" r="64"/>
			</defs>
			<clipPath id="SVGID_2_">
				<use xlink:href="#SVGID_1_"  style="overflow:visible;"/>
			</clipPath>
			<g style="clip-path:url(#SVGID_2_);">
				<path style="fill:#E78244;" d="M97.764,66.386c0.389-1.892,0.603-3.842,0.637-5.835c0.008-0.191,0.017-0.386,0.017-0.55h-0.002
					c0-18.226-15.407-28-34.414-28s-34.414,9.774-34.414,28c0,2.2,0.229,4.348,0.657,6.427c1.857,13.278,6.727,39.329,1.962,44.094
					c5.262,5.263,31.796,0,31.796,0s26.534,5.263,31.796,0C91.027,105.751,95.911,79.65,97.764,66.386z"/>
				<g>
					<path style="fill:#D97A40;" d="M98.414,60c0-18.226-15.407-28-34.414-28c-0.672,0-1.338,0.016-2,0.04
						C80.075,32.705,94.414,42.418,94.414,60h0.002c0,0.164-0.009,0.359-0.017,0.55c-0.034,1.993-0.248,3.943-0.637,5.835
						c-1.853,13.266-6.735,39.365-1.967,44.135c-1.512,1.513-4.783,2.152-8.674,2.301c5.551,0.182,10.664-0.291,12.674-2.301
						c-4.77-4.77,0.114-30.869,1.967-44.135c0.389-1.892,0.603-3.842,0.637-5.835c0.008-0.191,0.017-0.386,0.017-0.55H98.414z"/>
					<path style="fill:#D97A40;" d="M60.001,110.521c0,0-10.136,2.008-19.122,2.301c7.395,0.281,17.021-1.217,21.122-1.936
						C60.749,110.669,60.001,110.521,60.001,110.521z"/>
				</g>
				<path style="fill:#F2D6CE;" d="M72,90h-8h-8c-2,3-6,12-6,14c4,0,10.283,5,14,5s10-5,14-5C78,102,74,93,72,90z"/>
				<path style="fill:#E6CBC3;" d="M72,90h-3c2,3,6,12,6,14c-3.502,0-8.752,3.831-12.5,4.786C63.033,108.922,63.537,109,64,109
					c3.717,0,10-5,14-5C78,102,74,93,72,90z"/>
				<path style="fill:#91D2F2;" d="M97,113.5c0-4.988-9.737-9.209-23.154-10.621c-1.307-0.138-4.165,0.65-5.907,1.825
					c-1.994,1.679-2.97,3.047-3.938,4.297c-0.625-0.844-1.469-1.75-3.266-3.883c-1.636-1.209-4.528-2.438-5.787-2.318
					c-13.823,1.327-23.945,5.615-23.945,10.701v15.584H97V113.5z"/>
				<g>
					<path style="fill:#8AC7E6;" d="M56.656,105.719c2.219,2.094,4.531,5.094,5.156,5.938c0.451-0.584,1.565-2.001,2.125-2.656
						c-0.46-0.534-2.488-3.034-3.203-3.883c-1.636-1.209-4.528-2.438-5.787-2.318c-0.563,0.054-1.118,0.115-1.668,0.179
						C54.688,103.35,55.465,104.837,56.656,105.719z"/>
					<path style="fill:#8AC7E6;" d="M73.846,102.878c-0.425-0.045-1.021,0.017-1.684,0.149C84.895,104.57,94,108.676,94,113.5
						v15.584h3V113.5C97,108.511,87.263,104.29,73.846,102.878z"/>
				</g>
				<g>
					<path style="fill:#F5F5F5;" d="M64,109l-2.875-2.938c0,0-3.188,1.125-4.438,3.438c-2.813-0.188-7.813-3.5-9.438-5.5
						c1.375-1.813,2.721-2.783,3.642-3.268C52.374,100.938,61.313,104,61.313,104L64,109z"/>
					<path style="fill:#F5F5F5;" d="M64,109l2.875-2.938c0,0,3.188,1.125,4.438,3.438c2.813-0.188,7.813-3.5,9.438-5.5
						c-1.375-1.813-2.721-2.783-3.642-3.268C75.626,100.938,66.688,104,66.688,104L64,109z"/>
				</g>
				<path style="fill:#FFE1D9;" d="M67.25,46.5C66,64.167,35.316,59.875,35.316,71.579C38.716,85.645,50.267,96,64,96
					c16.24,0,29.428-14.48,29.691-32.453C78.441,61.669,69.404,49.133,67.25,46.5z"/>
				<g>
					<path style="fill:#F2D6CE;" d="M67.25,46.5C66,64.167,35.316,59.875,35.316,71.579c0.054,0.222,0.114,0.44,0.173,0.66
						C37.889,62.226,67.371,65.768,67.25,46.5z"/>
				</g>
				<path style="fill:#F2D6CE;" d="M67.25,46.5c2.154,2.633,8.134,16.753,23.384,18.63c-0.255,17.392-12.56,30.03-28.071,30.829
					C63.04,95.984,63.518,96,64.001,96c16.24,0,29.428-14.48,29.691-32.453C78.441,61.669,69.404,49.133,67.25,46.5z"/>
				<g>
					<path style="fill:#E6BAAD;" d="M76.948,82.65c0.567,0.865-4.886,5.746-12.948,5.746s-13.515-4.881-12.946-5.746
						c0.569-0.866,6.07,1.996,12.946,1.996S76.38,81.785,76.948,82.65z"/>
				</g>
			</g>
		</g>
	</g>
	<g>
		<g>
			<circle style="fill:#F5F5F5;" cx="54" cy="68" r="4"/>
			<circle style="fill:#734822;" cx="54" cy="68" r="2"/>
		</g>
		<g>
			<circle style="fill:#F5F5F5;" cx="76" cy="68" r="4"/>
			<circle style="fill:#734822;" cx="76" cy="68" r="2"/>
		</g>
	</g>
</g>
</svg>
