<?xml version="1.0" encoding="utf-8"?>
<!-- Generator: Adobe Illustrator 17.0.0, SVG Export Plug-In . SVG Version: 6.00 Build 0)  -->
<!DOCTYPE svg PUBLIC "-//W3C//DTD SVG 1.1//EN" "http://www.w3.org/Graphics/SVG/1.1/DTD/svg11.dtd">
<svg version="1.1" id="Слой_2" xmlns="http://www.w3.org/2000/svg" xmlns:xlink="http://www.w3.org/1999/xlink" x="0px" y="0px"
	 width="118.832px" height="224.998px" viewBox="0 0 118.832 224.998" enable-background="new 0 0 118.832 224.998"
	 xml:space="preserve">
<path fill="#CE736D" d="M34.697,142.259c2.205,0,4.407,0,6.607,0c-1.167,7.45-1.029,14.898,0,22.347c-2.201,0-4.403,0-6.607,0
	C35.727,157.157,35.866,149.708,34.697,142.259L34.697,142.259z M34.697,165.438c2.205,0,4.407,0,6.607,0
	c-1.167,7.448-1.029,14.895,0,22.345c-2.201,0-4.403,0-6.607,0C35.727,180.333,35.866,172.886,34.697,165.438L34.697,165.438z
	 M34.697,188.615c2.205,0,4.407,0,6.607,0c-1.167,7.449-1.029,14.897,0,22.347c-2.201,0-4.403,0-6.607,0
	C35.727,203.512,35.866,196.063,34.697,188.615L34.697,188.615z M34.697,72.787c2.205,0,4.407,0,6.607,0
	c-1.167,7.45-1.029,14.899,0,22.348c-2.201,0-4.403,0-6.607,0C35.727,87.687,35.866,80.237,34.697,72.787L34.697,72.787z
	 M34.697,95.966c2.205,0,4.407,0,6.607,0c-1.167,7.45-1.029,14.898,0,22.348c-2.201,0-4.403,0-6.607,0
	C35.727,110.864,35.866,103.415,34.697,95.966L34.697,95.966z M34.697,119.143c2.205,0,4.407,0,6.607,0
	c-1.167,7.449-1.029,14.899,0,22.348c-2.201,0-4.403,0-6.607,0C35.727,134.042,35.866,126.592,34.697,119.143L34.697,119.143z
	 M34.697,3.318c2.205,0,4.407,0,6.607,0c-1.167,7.449-1.029,14.897,0,22.347c-2.201,0-4.403,0-6.607,0
	C35.727,18.215,35.866,10.767,34.697,3.318L34.697,3.318z M34.697,26.496c2.205,0,4.407,0,6.607,0
	c-1.167,7.45-1.029,14.898,0,22.348c-2.201,0-4.403,0-6.607,0C35.727,41.393,35.866,33.945,34.697,26.496L34.697,26.496z
	 M34.697,49.674c2.205,0,4.407,0,6.607,0c-1.167,7.448-1.029,14.897,0,22.345c-2.201,0-4.403,0-6.607,0
	C35.727,64.571,35.866,57.122,34.697,49.674L34.697,49.674z M42.845,156.295c2.205,0,4.407,0,6.609,0
	c-1.167,7.45-1.028,14.898,0,22.348c-2.202,0-4.404,0-6.609,0C43.877,171.193,44.015,163.745,42.845,156.295L42.845,156.295z
	 M42.845,179.474c2.205,0,4.407,0,6.609,0c-1.167,7.45-1.028,14.897,0,22.347c-2.202,0-4.404,0-6.609,0
	C43.877,194.371,44.015,186.924,42.845,179.474L42.845,179.474z M42.845,202.651c2.205,0,4.407,0,6.609,0
	c-1.167,7.45-1.028,14.898,0,22.347c-2.202,0-4.404,0-6.609,0C43.877,217.55,44.015,210.101,42.845,202.651L42.845,202.651z
	 M42.845,86.826c2.205,0,4.407,0,6.609,0c-1.167,7.45-1.028,14.899,0,22.347c-2.202,0-4.404,0-6.609,0
	C43.877,101.725,44.015,94.276,42.845,86.826L42.845,86.826z M42.845,110.003c2.205,0,4.407,0,6.609,0
	c-1.167,7.449-1.028,14.897,0,22.348c-2.202,0-4.404,0-6.609,0C43.877,124.9,44.015,117.452,42.845,110.003L42.845,110.003z
	 M42.845,133.182c2.205,0,4.407,0,6.609,0c-1.167,7.447-1.028,14.897,0,22.347c-2.202,0-4.404,0-6.609,0
	C43.877,148.079,44.015,140.629,42.845,133.182L42.845,133.182z M42.845,17.356c2.205,0,4.407,0,6.609,0
	c-1.167,7.448-1.028,14.898,0,22.345c-2.202,0-4.404,0-6.609,0C43.877,32.254,44.015,24.804,42.845,17.356L42.845,17.356z
	 M42.845,40.533c2.205,0,4.407,0,6.609,0c-1.167,7.448-1.028,14.898,0,22.348c-2.202,0-4.404,0-6.609,0
	C43.877,55.432,44.015,47.981,42.845,40.533L42.845,40.533z M42.845,63.71c2.205,0,4.407,0,6.609,0
	c-1.167,7.449-1.028,14.9,0,22.348c-2.202,0-4.404,0-6.609,0C43.877,78.61,44.015,71.159,42.845,63.71L42.845,63.71z
	 M74.957,138.941c2.201,0,4.405,0,6.606,0c-1.166,7.448-1.028,14.899,0,22.348c-2.201,0-4.405,0-6.606,0
	C75.987,153.84,76.124,146.389,74.957,138.941L74.957,138.941z M74.957,162.12c2.201,0,4.405,0,6.606,0
	c-1.166,7.448-1.028,14.897,0,22.347c-2.201,0-4.405,0-6.606,0C75.987,177.017,76.124,169.568,74.957,162.12L74.957,162.12z
	 M74.957,185.297c2.201,0,4.405,0,6.606,0c-1.166,7.45-1.028,14.898,0,22.347c-2.201,0-4.405,0-6.606,0
	C75.987,200.195,76.124,192.747,74.957,185.297L74.957,185.297z M21.44,76.354c1.662-0.948,3.776-0.37,4.723,1.289
	c0.948,1.66,0.369,3.774-1.29,4.723c-1.66,0.947-3.774,0.369-4.723-1.29C19.203,79.416,19.781,77.299,21.44,76.354L21.44,76.354z
	 M64.546,58.071c-0.041-0.315-0.045-0.633-0.008-0.944l-2.52-0.38c-0.384-0.058-0.338-0.382,0.042-0.324l2.528,0.382
	c0.028-0.145,0.067-0.284,0.112-0.423l-2.5-0.816c-0.37-0.12-0.27-0.431,0.1-0.31l2.515,0.82c0.057-0.133,0.12-0.262,0.192-0.39
	l-2.313-1.206c-0.339-0.179-0.186-0.467,0.155-0.288l2.33,1.216c0.17-0.25,0.373-0.482,0.605-0.688
	c-0.695-0.681-1.527-1.401-2.282-1.708c-2.062-0.837-3.351,0.575-4.664,1.284c0.643,1.345,0.85,3.244,3.007,3.785
	C62.597,58.271,63.623,58.197,64.546,58.071L64.546,58.071z M67.643,61.324c-0.311-0.057-0.614-0.151-0.9-0.284l-1.142,2.278
	c-0.173,0.349-0.467,0.204-0.295-0.139l1.145-2.289c-0.128-0.069-0.25-0.149-0.368-0.236l-1.549,2.126
	c-0.23,0.314-0.493,0.123-0.265-0.191l1.557-2.139c-0.107-0.094-0.212-0.195-0.31-0.302l-1.863,1.825
	c-0.275,0.269-0.502,0.034-0.225-0.234l1.878-1.841c-0.106-0.138-0.205-0.283-0.293-0.438c-0.064-0.115-0.124-0.232-0.177-0.351
	c-0.862,0.452-1.803,1.021-2.328,1.641c-1.434,1.703-0.492,3.366-0.221,4.832c1.479-0.193,3.349,0.195,4.53-1.689
	C67.229,63.24,67.476,62.243,67.643,61.324L67.643,61.324z M71.693,59.387c-0.148,0.276-0.334,0.534-0.549,0.769l1.816,1.788
	c0.274,0.272,0.049,0.508-0.226,0.237l-1.821-1.794c-0.106,0.098-0.218,0.19-0.339,0.276l1.543,2.129
	c0.228,0.316-0.036,0.508-0.262,0.191l-1.553-2.141c-0.024,0.015-0.048,0.03-0.074,0.044c-0.102,0.058-0.205,0.111-0.308,0.159
	l1.158,2.336c0.172,0.344-0.121,0.486-0.294,0.139l-1.169-2.353c-0.292,0.107-0.592,0.171-0.894,0.202
	c0.164,0.958,0.412,2.029,0.841,2.722c1.175,1.889,3.049,1.505,4.527,1.704c0.273-1.468,1.22-3.126-0.207-4.831
	C73.387,60.372,72.515,59.828,71.693,59.387L71.693,59.387z M71.102,54.934c0.208,0.218,0.394,0.466,0.551,0.738l0.01,0.023
	l2.264-1.174c0.342-0.178,0.498,0.111,0.155,0.287l-2.27,1.178c0.06,0.133,0.114,0.271,0.159,0.409l2.503-0.809
	c0.37-0.12,0.469,0.189,0.099,0.308l-2.514,0.814c0.031,0.142,0.056,0.285,0.074,0.427l2.58-0.38
	c0.38-0.057,0.421,0.268,0.041,0.321l-2.601,0.386c0.009,0.309-0.02,0.616-0.084,0.915c0.962,0.141,2.058,0.235,2.85,0.04
	c2.158-0.535,2.375-2.434,3.02-3.778c-1.311-0.712-2.596-2.126-4.658-1.298C72.563,53.628,71.777,54.289,71.102,54.934
	L71.102,54.934z M66.683,54.121c0.29-0.139,0.594-0.24,0.896-0.3l-0.419-2.513c-0.063-0.382,0.259-0.44,0.321-0.059L67.9,53.77
	c0.146-0.017,0.293-0.024,0.438-0.024l0.003-2.631c0-0.39,0.326-0.388,0.324,0v2.645c0.143,0.014,0.286,0.033,0.428,0.063
	l0.434-2.572c0.065-0.38,0.386-0.321,0.32,0.058l-0.438,2.593c0.293,0.088,0.578,0.209,0.844,0.363
	c0.431-0.874,0.859-1.886,0.917-2.698c0.16-2.22-1.582-3.011-2.662-4.039c-1.083,1.025-2.823,1.812-2.67,4.03
	C65.891,52.329,66.278,53.282,66.683,54.121L66.683,54.121z M66.852,54.972c1.435-0.818,3.261-0.32,4.078,1.113
	c0.819,1.435,0.319,3.259-1.114,4.076c-1.433,0.819-3.26,0.32-4.078-1.114C64.92,57.614,65.418,55.79,66.852,54.972L66.852,54.972z"
	/>
<path fill="#FBD6A0" d="M26.195,144.936c2.203,0,4.404,0,6.606,0c-1.166,7.448-1.028,14.898,0,22.345c-2.202,0-4.403,0-6.606,0
	C27.226,159.833,27.362,152.384,26.195,144.936L26.195,144.936z M26.195,168.112c2.203,0,4.404,0,6.606,0
	c-1.166,7.45-1.028,14.899,0,22.347c-2.202,0-4.403,0-6.606,0C27.226,183.011,27.362,175.561,26.195,168.112L26.195,168.112z
	 M26.195,191.289c2.203,0,4.404,0,6.606,0c-1.166,7.45-1.028,14.899,0,22.349c-2.202,0-4.403,0-6.606,0
	C27.226,206.188,27.362,198.739,26.195,191.289L26.195,191.289z M26.195,121.82c2.203,0,4.404,0,6.606,0
	c-1.166,7.45-1.028,14.897,0,22.348c-2.202,0-4.403,0-6.606,0C27.226,136.717,27.362,129.27,26.195,121.82L26.195,121.82z
	 M54.94,138.941c2.203,0,4.405,0,6.608,0c-1.167,7.448-1.03,14.899,0,22.348c-2.202,0-4.404,0-6.608,0
	C55.969,153.84,56.107,146.389,54.94,138.941L54.94,138.941z M54.94,162.12c2.203,0,4.405,0,6.608,0
	c-1.167,7.448-1.03,14.897,0,22.347c-2.202,0-4.404,0-6.608,0C55.969,177.017,56.107,169.568,54.94,162.12L54.94,162.12z
	 M54.94,185.297c2.203,0,4.405,0,6.608,0c-1.167,7.45-1.03,14.898,0,22.347c-2.202,0-4.404,0-6.608,0
	C55.969,200.195,56.107,192.747,54.94,185.297L54.94,185.297z M51.635,178.788c-9.022-5.299-15.266-12.883-18.736-22.754
	C41.922,161.33,48.168,168.915,51.635,178.788L51.635,178.788z M51.108,179.234c-7.253,0.925-13.946-0.603-20.082-4.58
	C38.279,173.729,44.972,175.257,51.108,179.234L51.108,179.234z M52.177,178.354c2.299-6.941,2.084-13.803-0.641-20.587
	C49.237,164.708,49.45,171.57,52.177,178.354L52.177,178.354z M69.733,88.126c9.021-5.298,15.268-12.882,18.735-22.754
	C79.447,70.67,73.201,78.255,69.733,88.126L69.733,88.126z M70.261,88.577c7.253,0.922,13.945-0.604,20.082-4.58
	C83.09,83.07,76.395,84.596,70.261,88.577L70.261,88.577z M69.192,87.694c-2.3-6.94-2.087-13.803,0.641-20.588
	C72.133,74.047,71.919,80.91,69.192,87.694L69.192,87.694z M54.94,69.471c2.203,0,4.405,0,6.608,0c-1.167,7.45-1.03,14.898,0,22.347
	c-2.202,0-4.404,0-6.608,0C55.969,84.369,56.107,76.92,54.94,69.471L54.94,69.471z M54.94,92.649c2.203,0,4.405,0,6.608,0
	c-1.167,7.448-1.03,14.898,0,22.348c-2.202,0-4.404,0-6.608,0C55.969,107.547,56.107,100.098,54.94,92.649L54.94,92.649z
	 M54.94,115.828c2.203,0,4.405,0,6.608,0c-1.167,7.447-1.03,14.896,0,22.345c-2.202,0-4.404,0-6.608,0
	C55.969,130.724,56.107,123.275,54.94,115.828L54.94,115.828z M54.94,0c2.203,0,4.405,0,6.608,0c-1.167,7.451-1.03,14.899,0,22.348
	c-2.202,0-4.404,0-6.608,0C55.969,14.899,56.107,7.451,54.94,0L54.94,0z M54.94,23.178c2.203,0,4.405,0,6.608,0
	c-1.167,7.451-1.03,14.899,0,22.348c-2.202,0-4.404,0-6.608,0C55.969,38.077,56.107,30.628,54.94,23.178L54.94,23.178z
	 M54.94,46.357c2.203,0,4.405,0,6.608,0c-1.167,7.449-1.03,14.897,0,22.346c-2.202,0-4.404,0-6.608,0
	C55.969,61.254,56.107,53.806,54.94,46.357L54.94,46.357z M52.915,115.251c-13.798-4.248-24.593-12.449-32.384-24.603
	C34.33,94.896,45.124,103.098,52.915,115.251L52.915,115.251z M52.347,116.023c-9.446,3.545-18.919,3.62-28.419,0.226
	C33.374,112.704,42.845,112.629,52.347,116.023L52.347,116.023z M53.504,114.499c0.884-10.049-1.581-19.196-7.398-27.439
	C45.224,97.109,47.69,106.256,53.504,114.499L53.504,114.499z M66.602,138.941c2.203,0,4.404,0,6.606,0
	c-1.165,7.448-1.028,14.899,0,22.348c-2.202,0-4.403,0-6.606,0C67.632,153.84,67.769,146.389,66.602,138.941L66.602,138.941z
	 M66.602,162.12c2.203,0,4.404,0,6.606,0c-1.165,7.448-1.028,14.897,0,22.347c-2.202,0-4.403,0-6.606,0
	C67.632,177.017,67.769,169.568,66.602,162.12L66.602,162.12z M66.602,185.297c2.203,0,4.404,0,6.606,0
	c-1.165,7.45-1.028,14.898,0,22.347c-2.202,0-4.403,0-6.606,0C67.632,200.195,67.769,192.747,66.602,185.297L66.602,185.297z
	 M66.602,92.649c2.203,0,4.404,0,6.606,0c-1.165,7.448-1.028,14.898,0,22.348c-2.202,0-4.403,0-6.606,0
	C67.632,107.547,67.769,100.098,66.602,92.649L66.602,92.649z M66.602,115.828c2.203,0,4.404,0,6.606,0
	c-1.165,7.447-1.028,14.896,0,22.345c-2.202,0-4.403,0-6.606,0C67.632,130.724,67.769,123.275,66.602,115.828L66.602,115.828z
	 M91.309,158.987c-0.047-0.366-0.049-0.734-0.006-1.094l-2.92-0.441c-0.444-0.067-0.391-0.441,0.05-0.375l2.93,0.442
	c0.034-0.167,0.077-0.331,0.129-0.49l-2.896-0.947c-0.43-0.14-0.311-0.5,0.116-0.359l2.913,0.951
	c0.066-0.153,0.139-0.303,0.222-0.45l-2.68-1.399c-0.394-0.209-0.214-0.541,0.182-0.331l2.696,1.408
	c0.199-0.29,0.432-0.558,0.702-0.798c-0.808-0.787-1.769-1.623-2.644-1.976c-2.388-0.97-3.881,0.663-5.401,1.486
	c0.744,1.56,0.985,3.759,3.484,4.383C89.053,159.216,90.242,159.132,91.309,158.987L91.309,158.987z M94.897,162.754
	c-0.359-0.066-0.711-0.176-1.044-0.329l-1.319,2.639c-0.201,0.401-0.542,0.236-0.343-0.162l1.326-2.65
	c-0.147-0.082-0.29-0.173-0.427-0.275l-1.793,2.463c-0.267,0.365-0.571,0.141-0.306-0.222l1.805-2.474
	c-0.127-0.111-0.247-0.227-0.36-0.352l-2.158,2.114c-0.32,0.311-0.581,0.039-0.259-0.272l2.175-2.131
	c-0.124-0.159-0.237-0.329-0.338-0.507c-0.076-0.133-0.145-0.27-0.207-0.406c-0.998,0.523-2.087,1.18-2.696,1.901
	c-1.662,1.971-0.569,3.898-0.255,5.596c1.71-0.224,3.877,0.226,5.245-1.958C94.417,164.973,94.704,163.816,94.897,162.754
	L94.897,162.754z M99.588,160.508c-0.173,0.32-0.383,0.621-0.636,0.893l2.103,2.071c0.32,0.314,0.056,0.588-0.261,0.273l-2.109-2.08
	c-0.123,0.116-0.254,0.222-0.394,0.324l1.787,2.465c0.266,0.365-0.043,0.587-0.304,0.221l-1.797-2.479
	c-0.029,0.017-0.057,0.033-0.086,0.049c-0.118,0.068-0.238,0.129-0.359,0.185l1.343,2.705c0.2,0.4-0.142,0.564-0.34,0.163
	l-1.351-2.725c-0.341,0.122-0.689,0.199-1.039,0.233c0.19,1.111,0.478,2.351,0.974,3.152c1.362,2.188,3.532,1.745,5.244,1.974
	c0.316-1.699,1.414-3.62-0.239-5.595C101.55,161.65,100.539,161.02,99.588,160.508L99.588,160.508z M98.903,155.351
	c0.242,0.254,0.457,0.541,0.638,0.858l0.014,0.025l2.62-1.358c0.397-0.208,0.577,0.126,0.181,0.331l-2.63,1.363
	c0.072,0.155,0.132,0.314,0.184,0.472l2.898-0.935c0.431-0.139,0.545,0.221,0.116,0.357l-2.913,0.941
	c0.036,0.165,0.067,0.331,0.084,0.496l2.989-0.441c0.441-0.064,0.492,0.311,0.048,0.376l-3.01,0.442
	c0.011,0.359-0.023,0.713-0.099,1.059c1.116,0.164,2.385,0.273,3.301,0.048c2.501-0.618,2.751-2.819,3.497-4.377
	c-1.517-0.824-3.004-2.461-5.394-1.501C100.594,153.84,99.685,154.606,98.903,155.351L98.903,155.351z M93.784,154.412
	c0.338-0.161,0.688-0.277,1.038-0.348l-0.484-2.912c-0.075-0.442,0.301-0.508,0.373-0.068l0.484,2.921
	c0.17-0.02,0.338-0.029,0.508-0.027l0.001-3.045c0-0.452,0.379-0.452,0.377,0l-0.003,3.062c0.168,0.015,0.333,0.039,0.498,0.074
	l0.502-2.981c0.076-0.44,0.447-0.372,0.372,0.068l-0.507,3.003c0.341,0.099,0.668,0.241,0.977,0.419
	c0.498-1.013,0.996-2.186,1.064-3.124c0.185-2.571-1.832-3.487-3.084-4.678c-1.252,1.187-3.27,2.098-3.092,4.668
	C92.867,152.336,93.317,153.439,93.784,154.412L93.784,154.412z M93.981,155.396c1.661-0.947,3.775-0.37,4.722,1.29
	c0.948,1.66,0.37,3.774-1.292,4.723c-1.659,0.947-3.773,0.37-4.721-1.291C91.744,158.458,92.321,156.343,93.981,155.396
	L93.981,155.396z M32.383,48.021C18.586,43.772,7.791,35.572,0,23.416C13.796,27.667,24.593,35.867,32.383,48.021L32.383,48.021z
	 M31.816,48.793c-9.446,3.544-18.92,3.619-28.421,0.225C12.839,45.474,22.313,45.399,31.816,48.793L31.816,48.793z M32.973,47.27
	c0.883-10.05-1.583-19.198-7.398-27.442C24.692,29.878,27.157,39.025,32.973,47.27L32.973,47.27z M18.771,79.944
	c-0.049-0.365-0.053-0.734-0.009-1.094l-2.92-0.441c-0.442-0.065-0.391-0.442,0.049-0.375l2.932,0.441
	c0.034-0.165,0.076-0.329,0.128-0.489l-2.896-0.946c-0.43-0.139-0.312-0.499,0.116-0.358l2.913,0.951
	c0.066-0.155,0.138-0.304,0.222-0.452l-2.679-1.398c-0.394-0.208-0.215-0.54,0.181-0.331l2.697,1.406
	c0.198-0.289,0.432-0.557,0.702-0.797c-0.807-0.787-1.769-1.622-2.643-1.975c-2.388-0.971-3.881,0.665-5.401,1.485
	c0.743,1.559,0.985,3.759,3.484,4.385C16.513,80.175,17.7,80.088,18.771,79.944L18.771,79.944z M22.357,83.711
	c-0.361-0.066-0.713-0.177-1.045-0.329l-1.319,2.639c-0.202,0.401-0.542,0.236-0.341-0.162l1.324-2.649
	c-0.147-0.082-0.288-0.174-0.428-0.275l-1.792,2.461c-0.265,0.365-0.571,0.141-0.304-0.223l1.803-2.475
	c-0.125-0.108-0.245-0.226-0.36-0.349l-2.158,2.113c-0.319,0.312-0.579,0.038-0.259-0.273l2.175-2.13
	c-0.124-0.159-0.237-0.328-0.338-0.506c-0.078-0.134-0.145-0.27-0.205-0.407c-0.999,0.523-2.09,1.179-2.697,1.902
	c-1.659,1.97-0.569,3.896-0.255,5.596c1.711-0.226,3.879,0.223,5.245-1.957C21.876,85.93,22.164,84.774,22.357,83.711L22.357,83.711
	z M27.047,81.465c-0.17,0.321-0.384,0.621-0.635,0.893l2.102,2.071c0.32,0.314,0.056,0.589-0.261,0.274l-2.108-2.079
	c-0.122,0.115-0.255,0.22-0.396,0.321l1.788,2.465c0.266,0.366-0.041,0.587-0.304,0.222l-1.797-2.479
	c-0.029,0.017-0.057,0.033-0.087,0.05c-0.117,0.067-0.236,0.127-0.358,0.183l1.346,2.707c0.196,0.401-0.144,0.563-0.342,0.162
	l-1.353-2.725c-0.34,0.12-0.688,0.199-1.036,0.232c0.188,1.112,0.476,2.352,0.975,3.152c1.359,2.189,3.529,1.745,5.243,1.975
	c0.314-1.699,1.413-3.621-0.241-5.596C29.01,82.606,28.001,81.977,27.047,81.465L27.047,81.465z M26.365,76.309
	c0.238,0.253,0.454,0.539,0.635,0.858l0.014,0.023l2.62-1.36c0.4-0.206,0.577,0.128,0.181,0.334l-2.63,1.363
	c0.071,0.155,0.133,0.312,0.183,0.472l2.897-0.937c0.434-0.141,0.547,0.221,0.119,0.357L27.47,78.36
	c0.039,0.166,0.066,0.331,0.086,0.497l2.987-0.442c0.441-0.063,0.492,0.312,0.049,0.374l-3.011,0.445
	c0.008,0.357-0.023,0.713-0.099,1.059c1.116,0.163,2.384,0.273,3.301,0.045c2.501-0.616,2.751-2.817,3.497-4.374
	c-1.517-0.825-3.004-2.464-5.395-1.502C28.054,74.798,27.144,75.564,26.365,76.309L26.365,76.309z M21.244,75.37
	c0.337-0.164,0.687-0.277,1.039-0.348l-0.484-2.913c-0.073-0.442,0.299-0.508,0.372-0.068l0.486,2.922
	c0.168-0.019,0.338-0.03,0.506-0.028l0.005-3.045c0-0.454,0.378-0.451,0.377-0.001L23.54,74.95c0.167,0.016,0.332,0.04,0.495,0.074
	l0.504-2.98c0.075-0.441,0.446-0.372,0.369,0.067l-0.506,3.003c0.341,0.099,0.668,0.24,0.977,0.42
	c0.501-1.01,0.996-2.184,1.064-3.126c0.183-2.568-1.833-3.484-3.086-4.676c-1.251,1.189-3.269,2.099-3.091,4.669
	C20.329,73.293,20.777,74.397,21.244,75.37L21.244,75.37z M41.856,145.386c-0.042-0.33-0.044-0.662-0.006-0.989l-2.638-0.396
	c-0.398-0.06-0.352-0.399,0.045-0.338l2.647,0.399c0.029-0.15,0.068-0.297,0.116-0.444l-2.616-0.853
	c-0.389-0.127-0.281-0.452,0.105-0.325l2.632,0.859c0.058-0.139,0.124-0.273,0.199-0.406l-2.417-1.264
	c-0.358-0.187-0.198-0.489,0.161-0.298l2.437,1.271c0.178-0.261,0.389-0.504,0.632-0.72c-0.728-0.712-1.597-1.465-2.387-1.787
	c-2.155-0.874-3.506,0.601-4.877,1.343c0.671,1.407,0.889,3.396,3.145,3.961C39.817,145.593,40.889,145.517,41.856,145.386
	L41.856,145.386z M45.096,148.788c-0.326-0.059-0.644-0.16-0.944-0.296l-1.192,2.384c-0.182,0.362-0.489,0.213-0.308-0.147
	l1.197-2.392c-0.133-0.076-0.262-0.159-0.387-0.249l-1.619,2.223c-0.24,0.33-0.515,0.127-0.273-0.199l1.628-2.237
	c-0.113-0.098-0.223-0.204-0.325-0.316l-1.949,1.91c-0.289,0.281-0.525,0.032-0.233-0.249l1.962-1.923
	c-0.11-0.143-0.214-0.296-0.305-0.458c-0.068-0.12-0.131-0.244-0.184-0.368c-0.902,0.474-1.887,1.067-2.438,1.718
	c-1.498,1.78-0.513,3.521-0.228,5.055c1.544-0.204,3.502,0.204,4.737-1.768C44.663,150.792,44.922,149.75,45.096,148.788
	L45.096,148.788z M49.332,146.761c-0.156,0.289-0.347,0.56-0.573,0.805l1.898,1.872c0.288,0.285,0.05,0.529-0.235,0.247
	l-1.905-1.878c-0.112,0.102-0.231,0.199-0.356,0.29l1.614,2.228c0.241,0.33-0.038,0.529-0.274,0.199l-1.624-2.24
	c-0.025,0.016-0.051,0.031-0.077,0.046c-0.107,0.061-0.214,0.116-0.324,0.166l1.212,2.443c0.179,0.363-0.13,0.51-0.307,0.146
	l-1.222-2.46c-0.307,0.109-0.622,0.179-0.937,0.211c0.172,1.002,0.431,2.122,0.881,2.846c1.229,1.975,3.187,1.577,4.734,1.782
	c0.284-1.533,1.275-3.269-0.216-5.052C51.105,147.793,50.191,147.224,49.332,146.761L49.332,146.761z M48.713,142.102
	c0.219,0.231,0.414,0.488,0.577,0.775l0.012,0.022l2.366-1.228c0.36-0.187,0.522,0.115,0.164,0.299l-2.375,1.232
	c0.065,0.141,0.12,0.284,0.167,0.428l2.619-0.846c0.388-0.125,0.491,0.2,0.103,0.324l-2.633,0.852
	c0.036,0.147,0.062,0.296,0.079,0.445l2.697-0.397c0.4-0.058,0.445,0.28,0.045,0.338l-2.719,0.402
	c0.009,0.32-0.024,0.643-0.089,0.956c1.007,0.145,2.153,0.246,2.982,0.041c2.259-0.559,2.483-2.545,3.158-3.951
	c-1.371-0.746-2.715-2.227-4.872-1.357C50.242,140.738,49.418,141.431,48.713,142.102L48.713,142.102z M44.091,141.255
	c0.303-0.147,0.619-0.252,0.938-0.315l-0.436-2.63c-0.067-0.398,0.27-0.46,0.334-0.062l0.44,2.64
	c0.151-0.018,0.305-0.026,0.457-0.026l0.003-2.752c0-0.407,0.342-0.407,0.34,0l-0.002,2.767c0.152,0.013,0.3,0.035,0.448,0.065
	l0.455-2.691c0.067-0.397,0.404-0.334,0.334,0.062l-0.457,2.713c0.307,0.089,0.604,0.218,0.882,0.378
	c0.45-0.913,0.898-1.972,0.96-2.822c0.165-2.322-1.655-3.149-2.785-4.224c-1.131,1.072-2.954,1.895-2.793,4.214
	C43.264,139.379,43.667,140.376,44.091,141.255L44.091,141.255z M44.268,142.143c1.499-0.855,3.408-0.334,4.266,1.166
	c0.856,1.499,0.333,3.408-1.166,4.265c-1.499,0.856-3.411,0.333-4.265-1.165C42.248,144.91,42.768,142.998,44.268,142.143
	L44.268,142.143z M79.005,45.399c-0.032-0.25-0.035-0.501-0.006-0.747l-1.989-0.299c-0.301-0.046-0.266-0.302,0.036-0.257
	l1.994,0.302c0.024-0.113,0.053-0.224,0.089-0.334l-1.974-0.645c-0.293-0.095-0.213-0.339,0.078-0.243l1.986,0.645
	c0.046-0.103,0.094-0.205,0.151-0.306l-1.826-0.953c-0.27-0.141-0.146-0.369,0.124-0.227l1.836,0.962
	c0.137-0.199,0.295-0.382,0.479-0.544c-0.549-0.537-1.206-1.105-1.799-1.347c-1.628-0.661-2.645,0.453-3.68,1.013
	c0.505,1.062,0.67,2.561,2.375,2.986C77.467,45.554,78.277,45.496,79.005,45.399L79.005,45.399z M81.448,47.965
	c-0.245-0.045-0.484-0.121-0.711-0.226l-0.899,1.799c-0.138,0.273-0.369,0.16-0.233-0.111l0.903-1.805
	c-0.1-0.057-0.198-0.12-0.29-0.187l-1.222,1.677c-0.182,0.249-0.389,0.096-0.209-0.151l1.228-1.686
	c-0.085-0.075-0.166-0.153-0.244-0.238l-1.469,1.438c-0.218,0.213-0.397,0.027-0.177-0.184l1.48-1.453
	c-0.084-0.107-0.16-0.223-0.23-0.345c-0.052-0.091-0.098-0.183-0.139-0.277c-0.681,0.357-1.423,0.805-1.837,1.296
	c-1.133,1.342-0.389,2.655-0.176,3.812c1.167-0.155,2.644,0.152,3.575-1.333C81.121,49.476,81.318,48.688,81.448,47.965
	L81.448,47.965z M84.644,46.434c-0.116,0.219-0.262,0.423-0.431,0.608l1.431,1.411c0.218,0.214,0.039,0.4-0.177,0.188l-1.437-1.418
	c-0.084,0.079-0.173,0.151-0.268,0.219l1.218,1.681c0.179,0.248-0.029,0.4-0.208,0.149l-1.224-1.69
	c-0.02,0.013-0.04,0.023-0.06,0.035c-0.08,0.045-0.161,0.088-0.245,0.125l0.917,1.843c0.134,0.272-0.097,0.384-0.232,0.11
	l-0.922-1.857c-0.23,0.083-0.467,0.135-0.707,0.16c0.129,0.757,0.326,1.602,0.666,2.147c0.925,1.491,2.403,1.19,3.57,1.345
	c0.214-1.157,0.963-2.466-0.162-3.812C85.981,47.211,85.293,46.783,84.644,46.434L84.644,46.434z M84.178,42.921
	c0.165,0.173,0.311,0.368,0.435,0.584l0.009,0.017l1.785-0.926c0.271-0.14,0.394,0.088,0.123,0.226l-1.792,0.93
	c0.049,0.105,0.09,0.213,0.126,0.321l1.975-0.638c0.294-0.094,0.371,0.152,0.08,0.245l-1.985,0.642
	c0.026,0.111,0.044,0.225,0.057,0.335l2.037-0.3c0.299-0.042,0.335,0.213,0.031,0.256l-2.049,0.305
	c0.005,0.24-0.017,0.484-0.068,0.718c0.759,0.111,1.623,0.188,2.249,0.033c1.704-0.421,1.874-1.921,2.383-2.981
	c-1.033-0.561-2.046-1.678-3.674-1.023C85.331,41.892,84.71,42.413,84.178,42.921L84.178,42.921z M80.691,42.28
	c0.229-0.109,0.466-0.188,0.708-0.237l-0.33-1.984c-0.05-0.298,0.204-0.345,0.253-0.045l0.33,1.991
	c0.116-0.013,0.231-0.02,0.347-0.02L82,39.909c0-0.308,0.258-0.307,0.257,0l-0.002,2.087c0.113,0.009,0.227,0.027,0.338,0.049
	l0.343-2.03c0.051-0.299,0.304-0.253,0.253,0.045l-0.346,2.049c0.232,0.067,0.455,0.163,0.666,0.284
	c0.34-0.689,0.678-1.487,0.725-2.128c0.125-1.75-1.249-2.375-2.101-3.187c-0.854,0.81-2.229,1.43-2.109,3.18
	C80.068,40.867,80.371,41.618,80.691,42.28L80.691,42.28z M80.825,42.952c1.131-0.646,2.571-0.253,3.217,0.878
	c0.646,1.131,0.251,2.571-0.88,3.217c-1.131,0.645-2.571,0.25-3.217-0.881C79.3,45.037,79.694,43.597,80.825,42.952L80.825,42.952z
	 M21.768,143.733c-9.025-5.298-15.269-12.882-18.735-22.754C12.054,126.277,18.3,133.861,21.768,143.733L21.768,143.733z
	 M21.237,144.181c-7.251,0.925-13.945-0.601-20.08-4.579C8.41,138.678,15.105,140.204,21.237,144.181L21.237,144.181z M22.308,143.3
	c2.299-6.941,2.086-13.803-0.641-20.586C19.367,129.653,19.581,136.517,22.308,143.3L22.308,143.3z"/>
<path fill="#802B2C" d="M67.693,34.652c-0.031-0.25-0.035-0.501-0.006-0.747l-1.988-0.301c-0.302-0.045-0.266-0.3,0.034-0.254
	l1.997,0.3c0.022-0.112,0.051-0.224,0.085-0.334l-1.971-0.644c-0.292-0.096-0.211-0.341,0.079-0.245l1.985,0.647
	c0.045-0.103,0.094-0.207,0.15-0.306l-1.824-0.953c-0.27-0.142-0.147-0.369,0.124-0.225l1.837,0.958
	c0.137-0.197,0.294-0.381,0.479-0.543c-0.551-0.537-1.206-1.106-1.802-1.348c-1.625-0.661-2.645,0.454-3.679,1.013
	c0.505,1.062,0.67,2.562,2.374,2.987C66.155,34.807,66.965,34.75,67.693,34.652L67.693,34.652z M70.136,37.219
	c-0.244-0.046-0.485-0.121-0.711-0.226l-0.898,1.799c-0.138,0.272-0.37,0.16-0.235-0.112l0.904-1.803
	c-0.101-0.057-0.197-0.12-0.292-0.187l-1.222,1.677c-0.182,0.248-0.39,0.096-0.208-0.152l1.228-1.688
	c-0.085-0.074-0.168-0.152-0.244-0.237l-1.472,1.439c-0.215,0.214-0.396,0.026-0.177-0.186l1.481-1.451
	c-0.083-0.108-0.16-0.225-0.23-0.346c-0.052-0.09-0.098-0.184-0.139-0.276c-0.68,0.357-1.423,0.804-1.837,1.295
	c-1.131,1.343-0.387,2.653-0.176,3.813c1.165-0.153,2.645,0.152,3.575-1.333C69.811,38.73,70.006,37.941,70.136,37.219
	L70.136,37.219z M73.333,35.688c-0.116,0.219-0.263,0.423-0.432,0.609l1.433,1.411c0.216,0.213,0.039,0.399-0.179,0.184
	l-1.436-1.414c-0.085,0.076-0.174,0.15-0.269,0.217l1.218,1.681c0.182,0.249-0.029,0.4-0.208,0.151l-1.224-1.69
	c-0.02,0.013-0.039,0.023-0.058,0.034c-0.083,0.046-0.163,0.089-0.245,0.125l0.915,1.843c0.136,0.274-0.097,0.386-0.231,0.111
	l-0.922-1.856c-0.231,0.083-0.468,0.135-0.706,0.16c0.129,0.757,0.325,1.601,0.665,2.146c0.926,1.492,2.406,1.189,3.571,1.344
	c0.217-1.156,0.963-2.465-0.161-3.811C74.669,36.466,73.981,36.038,73.333,35.688L73.333,35.688z M72.867,32.175
	c0.164,0.173,0.31,0.368,0.433,0.584l0.009,0.016l1.785-0.926c0.271-0.14,0.392,0.087,0.124,0.227l-1.792,0.927
	c0.048,0.108,0.089,0.215,0.125,0.323l1.975-0.636c0.293-0.094,0.37,0.151,0.079,0.244l-1.985,0.642
	c0.025,0.11,0.045,0.222,0.058,0.335l2.036-0.299c0.301-0.045,0.335,0.211,0.034,0.254l-2.051,0.303
	c0.004,0.243-0.017,0.485-0.067,0.721c0.758,0.111,1.625,0.187,2.247,0.032c1.705-0.422,1.875-1.92,2.383-2.981
	c-1.033-0.561-2.046-1.678-3.673-1.024C74.019,31.146,73.398,31.668,72.867,32.175L72.867,32.175z M69.379,31.534
	c0.229-0.11,0.467-0.188,0.707-0.237l-0.329-1.983c-0.05-0.302,0.204-0.347,0.253-0.047l0.33,1.99
	c0.115-0.013,0.231-0.021,0.347-0.018v-2.076c0-0.307,0.259-0.307,0.258-0.001l-0.001,2.088c0.112,0.009,0.226,0.024,0.337,0.049
	l0.343-2.03c0.051-0.301,0.304-0.254,0.253,0.045l-0.345,2.047c0.231,0.068,0.454,0.164,0.665,0.285
	c0.339-0.689,0.678-1.487,0.725-2.127c0.125-1.751-1.249-2.376-2.102-3.188c-0.853,0.811-2.228,1.432-2.106,3.181
	C68.756,30.12,69.059,30.871,69.379,31.534L69.379,31.534z M69.513,32.205c1.131-0.645,2.573-0.251,3.217,0.88
	c0.644,1.131,0.251,2.571-0.88,3.216s-2.571,0.253-3.217-0.878C67.987,34.291,68.382,32.85,69.513,32.205L69.513,32.205z
	 M86.449,198.712c13.798-4.248,24.593-12.45,32.383-24.604C105.036,178.355,94.24,186.557,86.449,198.712L86.449,198.712z
	 M87.016,199.482c9.445,3.544,18.918,3.618,28.419,0.226C105.989,196.164,96.517,196.088,87.016,199.482L87.016,199.482z
	 M85.858,197.958c-0.883-10.05,1.583-19.197,7.399-27.44C94.141,180.568,91.674,189.715,85.858,197.958L85.858,197.958z"/>
</svg>
