<?xml version="1.0" encoding="utf-8"?>
<!-- Generator: Adobe Illustrator 17.0.0, SVG Export Plug-In . SVG Version: 6.00 Build 0)  -->
<!DOCTYPE svg PUBLIC "-//W3C//DTD SVG 1.1//EN" "http://www.w3.org/Graphics/SVG/1.1/DTD/svg11.dtd">
<svg version="1.1" id="Objects" xmlns="http://www.w3.org/2000/svg" xmlns:xlink="http://www.w3.org/1999/xlink" x="0px" y="0px"
	 width="164.303px" height="258.397px" viewBox="0 0 164.303 258.397" enable-background="new 0 0 164.303 258.397"
	 xml:space="preserve">
<g>
	<g>
		<g>
			<path fill="#F8BA86" d="M88.243,10.433c-1.121,1.135-2.213,2.37-2.372,7.9c-0.156,5.531-3.792,25.599,10.589,26.074l0.37,9.498
				l15.589-4.915c0,0-0.947-10.588,1.423-13.115c2.371-2.529,5.741-6.638,3.687-9.219c0,0-1.896-2.37-4.162,1.317
				c0,0-2.05-1.042-3.369-6.899C108.31,13.593,94.169,4.428,88.243,10.433z"/>
			<path fill="#705F55" d="M85.902,17.59c0,0-4.542-6.469,1.574-11.686c6.116-5.217,15.289-7.915,23.563-4.138
				c8.274,3.778,11.512,14.032,13.491,24.104c1.979,10.073,9.052,25.848-3.209,30.822c0,0-7.282-4.468-9.053-10.27
				c0,0-1.222-6.881,0.99-9.641c2.21-2.76,5.9-7.723,4.269-10.126c-1.631-2.403-4.162,1.317-4.162,1.317s-5.564-2.461-8.082-6.958
				C102.766,16.517,88.643,8.95,85.902,17.59z"/>
		</g>
		<g>
			<g>
				<g>
					<path fill="#F8BA86" d="M94.06,128.58c0,0-12.334,43.408-12.045,53.214c0.29,9.805-5.742,46.805-9.785,54.895l10.658,2.912
						c0,0,16.936-37.188,15.645-51.606c-1.089-12.152,4.188-12.828,6.585-18.757c2.395-5.93,10.259-14.304,10.137-41.283
						L94.06,128.58z"/>
					<path fill="#3DAD97" d="M73.066,234.692c0,0,4.235,3.185,10.696,2.944c0,0,2.164,8.306,0.729,15.966H74.437l0.22-3.642
						c0,0-6.204,3.642-19.612,3.642c-13.402,0-11.493-5.045-4.551-6.72C57.435,245.205,63.251,245.464,73.066,234.692z"/>
				</g>
				<g>
					<path fill="#F8BA86" d="M107.555,127.954c0,0,12.001,43.501,17.342,51.731c5.339,8.228,19.398,42.98,20.146,51.993
						l10.619-3.046c0,0-4.839-40.576-13.43-52.227c-7.241-9.819-3.082-13.137-4.112-19.449c-1.034-6.312,1.339-17.552-12.776-40.545
						L107.555,127.954z"/>
					<path fill="#3DAD97" d="M144.719,229.538c0,0,5.273,0.522,10.67-3.038c0,0,6.163,5.974,8.914,13.267l-8.591,5.221l-1.704-3.227
						c0,0-3.411,6.335-14.87,13.298c-11.452,6.96-12.441,1.657-7.377-3.381C136.82,246.64,141.925,243.841,144.719,229.538z"/>
				</g>
			</g>
			<g>
				<g>
					<path fill="#5FCEB9" d="M96.46,51.201c0,0,9.606,0.258,16.381-5.219c0,0,8.766,5.817,9.862,16.222
						c1.094,10.406-3.284,26.494-2.189,30.876c1.095,4.382,8.847,17.831,9.94,27.688c0,0-20.894,4.623-36.227,2.981
						c0,0-1.835-25.993-9.311-44.908C80.886,68.641,96.46,51.201,96.46,51.201z"/>
					<g>
						<path fill="#F8BA86" d="M107.362,69.802c0,0-3.697,15.248-5.605,20.914c-1.804,5.355-19.663,26.058-21.619,28.317
							c-1.299,0.442-2.884,1.116-4.138,2.071c-2.715,2.066-4.251,2.245-4.48,2.715c-0.233,0.471,0.86,1.382,3.925,0.239
							c0,0,1.237-0.367,0.012,0.702c-1.226,1.068-4.883,3.857-5.009,5.846c-0.08,1.295,4.04,5.022,6.364,3.297
							c2.089-1.551,6.54-6.756,8.118-10.324c4.981-4.168,23.031-23.463,25.149-26.66c4.108-6.204,6.018-25.18,6.018-25.18
							L107.362,69.802z"/>
						<path fill="#3DAD97" d="M118.235,72.819c0,0,5.104-17.246-3.572-18.798c-9.559-1.708-10.638,15.781-10.638,15.781
							L118.235,72.819z"/>
					</g>
				</g>
				<path fill="#3DAD97" d="M94.226,123.749c0,0-8.845,22.28-8.876,40.088c0,0,52.851,2.968,70.659-12.546
					c0,0-7.016-4.911-13.492-13.451c-6.475-8.539-7.943-19.056-13.149-22.395C129.369,115.445,103.522,123.918,94.226,123.749z"/>
			</g>
		</g>
	</g>
	<g>
		<path fill="#D5A984" d="M0.909,167.411c-0.697-2.008-1.833-3.492,0.437-4.366c2.27-0.874,8.295-2.183,9.778-4.016
			c1.484-1.833,1.659-3.841,5.677-5.238c4.016-1.397,10.476-2.706,11.96-1.572c1.484,1.135,7.945,6.898,17.636,17.985
			c9.692,11.088,11.612,11.263,21.914,13.533c10.304,2.27,38.939,7.159,52.035,2.968c0,0,5.239-12.834,3.929-18.946
			c-1.31-6.111-11.437-18.771-10.651-19.906c0.785-1.135,19.296,13.446,19.993,21.827c0.698,8.381-8.731,21.216-8.731,21.216
			s11.352,14.23,10.651,28.462c0,0,11.438,9.604,13.009,14.842c1.572,5.239,5.24,19.644,2.271,22.088h-8.904
			c0,0-1.572-2.969,3.054-5.238c0,0-2.531-10.739-5.15-12.398c-2.618-1.659-11.961-4.191-16.239-8.556c0,0-0.174,5.326-0.96,6.722
			c-0.785,1.398-12.048,20.081-13.358,20.255c-1.309,0.175-9.779,0-9.779,0s0.438-4.19,4.192-4.802
			c3.754-0.611,10.302-11.699,10.563-14.93c0.263-3.229-1.57-14.056-2.706-16.239c-1.135-2.183-4.19-1.659-11.961-1.31
			c0,0-29.685,2.532-45.749,1.135c0,0-4.366,34.904-7.684,36.223h-9.778c0,0,0.174-5.316,5.588-6.189c0,0,1.57-26.716,0-29.685
			c-1.572-2.968-16.239,34.031-19.033,35.874H11.388c0,0,0.173-6.015,8.556-6.713c0,0,11-18.509,9.953-36.843
			c-1.048-18.335-4.365-29.51-4.365-29.51s-3.056-9.517-9.429-10.127c0,0-11.875,0.175-12.574-1.222
			C2.831,171.34,0.909,167.411,0.909,167.411z"/>
		<path fill="#3F3D3C" d="M4.324,162.095c-1.19,0.362-2.269,0.677-2.978,0.95c-2.051,0.79-1.321,2.08-0.646,3.803
			C0.701,166.849,4.886,165.365,4.324,162.095z"/>
		<g>
			<g>
				<circle fill="#3F3D3C" cx="16.247" cy="158.796" r="2.067"/>
				<circle fill="#EAE4E1" cx="15.751" cy="158.359" r="0.756"/>
			</g>
			<path fill="#3F3D3C" d="M16.626,155.217c0.641,0,1.776-0.174,2.358,1.106c0,0,0.086-1.484-0.67-1.717
				C17.556,154.374,16.626,155.217,16.626,155.217z"/>
		</g>
		<path fill="#C18A61" d="M23.726,158.796c0,0-13.97,12.745-11.407,19.774c2.562,7.03,13.386,3.421,13.619-5.659
			c0.232-9.08,0-12.921,0-12.921S25.473,158.067,23.726,158.796z"/>
		<path fill="#E8422D" d="M24.81,182.268c0,0,13.206-8.833,15.793-18.489c0,0,2.713-1.246,2.813,3.07
			c0,0-3.068,10.465-17.375,19.177C26.042,186.026,23.217,185.337,24.81,182.268z"/>
		<path fill="#B58866" d="M96.831,195.611c9.081-1.164,11.643-7.244,11.643-7.244l-0.087-0.045
			c-14.097,0.329-32.303-2.872-40.076-4.585c-4.473-0.986-7.364-1.579-9.998-2.838h-0.003c0,0,3.834,11.22,12.447,11.686
			C79.37,193.05,87.752,196.775,96.831,195.611z"/>
		<path fill="#B58866" d="M85.425,220.747L85.425,220.747c-7.217-2.337-10.013-7.208-19.79-7.907
			c-9.778-0.699-11.816,8.09-11.816,8.09C62.639,221.698,75.56,221.279,85.425,220.747z"/>
	</g>
	<path fill="#E8422D" d="M42.884,164.472c0,0,21.344-22.876,29.664-39.88c0,0,1.021,0.122,2.896-0.534l-4.417,7.782
		c0,0-15.085,23.888-28.143,34.417V164.472z"/>
</g>
</svg>
