<?xml version="1.0" encoding="iso-8859-1"?>
<!-- Generator: Adobe Illustrator 17.0.0, SVG Export Plug-In . SVG Version: 6.00 Build 0)  -->
<!DOCTYPE svg PUBLIC "-//W3C//DTD SVG 1.1//EN" "http://www.w3.org/Graphics/SVG/1.1/DTD/svg11.dtd">
<svg version="1.1" id="Items" xmlns="http://www.w3.org/2000/svg" xmlns:xlink="http://www.w3.org/1999/xlink" x="0px" y="0px"
	 width="15.45px" height="23.349px" viewBox="0 0 15.45 23.349" style="enable-background:new 0 0 15.45 23.349;"
	 xml:space="preserve">
<g id="Pin">
	<path style="opacity:0.1;" d="M15.1,14.062c0,0.009-0.002,0.017-0.003,0.026c-0.136-1.672-1.815-3.093-4.198-3.757l-0.525-6.154
		c1.037-0.58,1.816-1.508,2.138-2.604H7.637H5.422H3.206C3.523,2.67,4.302,3.598,5.344,4.178l-0.525,6.154
		c-2.378,0.663-4.056,2.08-4.197,3.748c0-0.005-0.001-0.009-0.001-0.014c-0.005,0.06-0.007,0.121-0.009,0.181
		c0,0.02-0.004,0.041-0.004,0.061c0,0.112,0.008,0.224,0.022,0.333c0.002,0.014,0.002,0.028,0.004,0.043h0h3.44H6.86
		c0.272,1.926,1.295,8.408,1.314,8.666c0.021,0.297,0.129,0.307,0.157,0c0.025-0.267,1.209-6.741,1.483-8.666H10.2h0.312h4.572
		c0.019-0.123,0.029-0.249,0.029-0.374C15.112,14.226,15.108,14.145,15.1,14.062z"/>
	<g>
		<g>
			<g>
				<path style="fill:#2B2B2B;" d="M14.503,12.833c0-1.766-1.725-3.283-4.211-3.976L9.767,2.704c1.037-0.58,1.816-1.508,2.138-2.604
					H2.599c0.317,1.096,1.096,2.024,2.138,2.604L4.211,8.858C1.725,9.551,0,11.067,0,12.833c0,0.127,0.009,0.253,0.027,0.376h3.094
					h0.332h11.023C14.495,13.087,14.503,12.96,14.503,12.833z"/>
			</g>
			<path style="fill:#FFFFFF;" d="M7.174,23.123c-0.021-0.297-1.235-9.913-1.235-9.913h2.667c0,0-1.247,9.606-1.275,9.913
				C7.302,23.43,7.195,23.419,7.174,23.123z"/>
		</g>
		<path style="opacity:0.1;fill:#FFFFFF;" d="M7.03,0.1c0.013,1.096,0.05,2.024,0.102,2.604L7.107,8.858
			c-0.118,0.693-0.201,2.21-0.201,3.976c0,0.127,0.001,0.253,0.001,0.376h-3.44c-0.01-0.123-0.014-0.249-0.014-0.376
			c0-1.766,0.904-3.283,2.206-3.976l0.275-6.154C5.387,2.124,4.98,1.196,4.815,0.1H7.03z"/>
	</g>
</g>
</svg>
