<?xml version="1.0" encoding="utf-8"?>
<!-- Generator: Adobe Illustrator 17.0.0, SVG Export Plug-In . SVG Version: 6.00 Build 0)  -->
<!DOCTYPE svg PUBLIC "-//W3C//DTD SVG 1.1//EN" "http://www.w3.org/Graphics/SVG/1.1/DTD/svg11.dtd">
<svg version="1.1" id="background" xmlns="http://www.w3.org/2000/svg" xmlns:xlink="http://www.w3.org/1999/xlink" x="0px" y="0px"
	 width="194.063px" height="193.702px" viewBox="0 0 194.063 193.702" enable-background="new 0 0 194.063 193.702"
	 xml:space="preserve">
<path fill="#FFAEAE" d="M93.976,2.566c1.68,1.553,4.43,1.553,6.11,0s4.259-1.39,5.731,0.361s4.199,2.096,6.061,0.766
	s4.401-0.846,5.642,1.075c1.242,1.922,3.904,2.605,5.917,1.52c2.013-1.086,4.471-0.287,5.461,1.776
	c0.99,2.062,3.547,3.075,5.681,2.249s4.472,0.274,5.196,2.444s3.133,3.495,5.354,2.944c2.22-0.551,4.403,0.834,4.85,3.078
	s2.671,3.859,4.943,3.591c2.272-0.269,4.263,1.379,4.424,3.66c0.162,2.282,2.166,4.163,4.454,4.182
	c2.288,0.018,4.057,1.902,3.931,4.187s1.626,4.403,3.894,4.708c2.267,0.305,3.786,2.396,3.375,4.646s1.063,4.571,3.274,5.158
	c2.211,0.586,3.456,2.851,2.767,5.033c-0.69,2.182,0.481,4.669,2.601,5.528s3.071,3.262,2.114,5.339
	c-0.957,2.078-0.107,4.693,1.889,5.811s2.639,3.621,1.429,5.562c-1.21,1.941-0.695,4.642,1.146,6.001s2.165,3.924,0.721,5.698
	c-1.444,1.774-1.271,4.518,0.383,6.098c1.655,1.579,1.655,4.163,0,5.742c-1.655,1.579-1.827,4.323-0.383,6.097
	c1.444,1.775,1.119,4.339-0.721,5.698s-2.356,4.06-1.146,6.001s0.567,4.445-1.429,5.563c-1.996,1.118-2.846,3.733-1.889,5.811
	c0.957,2.078,0.006,4.48-2.114,5.339c-2.12,0.859-3.29,3.346-2.601,5.527c0.69,2.181-0.555,4.446-2.767,5.032
	c-2.211,0.587-3.685,2.908-3.274,5.159s-1.108,4.342-3.376,4.645c-2.267,0.304-4.019,2.422-3.894,4.707s-1.643,4.169-3.931,4.188
	s-4.292,1.9-4.454,4.181s-2.153,3.929-4.424,3.661c-2.272-0.268-4.496,1.349-4.943,3.592s-2.629,3.628-4.85,3.077
	c-2.22-0.551-4.629,0.774-5.354,2.944c-0.724,2.17-3.062,3.27-5.196,2.444s-4.69,0.186-5.681,2.248
	c-0.99,2.062-3.448,2.86-5.461,1.774s-4.676-0.402-5.917,1.52c-1.242,1.922-3.78,2.406-5.642,1.076s-4.589-0.985-6.061,0.767
	s-4.051,1.915-5.731,0.362c-1.68-1.552-4.43-1.552-6.11,0s-4.259,1.389-5.731-0.362c-1.472-1.752-4.199-2.097-6.061-0.767
	c-1.861,1.33-4.4,0.846-5.642-1.076s-3.905-2.606-5.918-1.52s-4.471,0.288-5.461-1.774c-0.991-2.062-3.547-3.074-5.681-2.248
	s-4.472-0.274-5.196-2.444s-3.134-3.495-5.354-2.944s-4.403-0.834-4.849-3.077s-2.67-3.859-4.942-3.592s-4.263-1.38-4.425-3.661
	c-0.162-2.281-2.166-4.162-4.454-4.181s-4.058-1.903-3.933-4.188s-1.627-4.403-3.894-4.707s-3.785-2.394-3.374-4.645
	s-1.062-4.573-3.273-5.159c-2.211-0.587-3.456-2.851-2.766-5.032c0.69-2.181-0.481-4.669-2.602-5.527
	c-2.12-0.859-3.072-3.261-2.114-5.339s0.108-4.692-1.888-5.811c-1.996-1.118-2.64-3.622-1.43-5.563s0.695-4.642-1.145-6.001
	s-2.163-3.924-0.718-5.698c1.444-1.775,1.272-4.518-0.383-6.097s-1.655-4.163,0-5.742c1.655-1.579,1.827-4.323,0.383-6.098
	c-1.444-1.774-1.121-4.339,0.718-5.698s2.354-4.06,1.145-6.001c-1.21-1.941-0.566-4.444,1.43-5.562
	c1.996-1.118,2.846-3.733,1.888-5.811c-0.958-2.078-0.007-4.481,2.114-5.339s3.291-3.347,2.602-5.528s0.555-4.446,2.766-5.033
	c2.211-0.586,3.684-2.907,3.273-5.158c-0.411-2.25,1.108-4.341,3.374-4.646s4.019-2.423,3.894-4.708s1.645-4.169,3.933-4.187
	s4.292-1.9,4.454-4.182c0.162-2.282,2.153-3.929,4.425-3.66c2.272,0.269,4.496-1.347,4.942-3.591s2.628-3.628,4.849-3.078
	s4.63-0.774,5.354-2.944s3.063-3.27,5.196-2.444c2.134,0.826,4.69-0.187,5.681-2.249s3.448-2.862,5.461-1.776
	s4.676,0.402,5.918-1.52s3.781-2.405,5.642-1.075s4.589,0.986,6.061-0.766C89.717,1.176,92.295,1.014,93.976,2.566z M93.976,2.566
	c1.68,1.553,4.43,1.553,6.11,0s4.259-1.39,5.731,0.361s4.199,2.096,6.061,0.766s4.401-0.846,5.642,1.075
	c1.242,1.922,3.904,2.605,5.917,1.52c2.013-1.086,4.471-0.287,5.461,1.776c0.99,2.062,3.547,3.075,5.681,2.249
	s4.472,0.274,5.196,2.444s3.133,3.495,5.354,2.944c2.22-0.551,4.403,0.834,4.85,3.078s2.671,3.859,4.943,3.591
	c2.272-0.269,4.263,1.379,4.424,3.66c0.162,2.282,2.166,4.163,4.454,4.182c2.288,0.018,4.057,1.902,3.931,4.187
	s1.626,4.403,3.894,4.708c2.267,0.305,3.786,2.396,3.375,4.646s1.063,4.571,3.274,5.158c2.211,0.586,3.456,2.851,2.767,5.033
	c-0.69,2.182,0.481,4.669,2.601,5.528s3.071,3.262,2.114,5.339c-0.957,2.078-0.107,4.693,1.889,5.811s2.639,3.621,1.429,5.562
	c-1.21,1.941-0.695,4.642,1.146,6.001s2.165,3.924,0.721,5.698c-1.444,1.774-1.271,4.518,0.383,6.098
	c1.655,1.579,1.655,4.163,0,5.742c-1.655,1.579-1.827,4.323-0.383,6.097c1.444,1.775,1.119,4.339-0.721,5.698
	s-2.356,4.06-1.146,6.001s0.567,4.445-1.429,5.563c-1.996,1.118-2.846,3.733-1.889,5.811c0.957,2.078,0.006,4.48-2.114,5.339
	c-2.12,0.859-3.29,3.346-2.601,5.527c0.69,2.181-0.555,4.446-2.767,5.032c-2.211,0.587-3.685,2.908-3.274,5.159
	s-1.108,4.342-3.376,4.645c-2.267,0.304-4.019,2.422-3.894,4.707s-1.643,4.169-3.931,4.188s-4.292,1.9-4.454,4.181
	s-2.153,3.929-4.424,3.661c-2.272-0.268-4.496,1.349-4.943,3.592s-2.629,3.628-4.85,3.077c-2.22-0.551-4.629,0.774-5.354,2.944
	c-0.724,2.17-3.062,3.27-5.196,2.444s-4.69,0.186-5.681,2.248c-0.99,2.062-3.448,2.86-5.461,1.774s-4.676-0.402-5.917,1.52
	c-1.242,1.922-3.78,2.406-5.642,1.076s-4.589-0.985-6.061,0.767s-4.051,1.915-5.731,0.362c-1.68-1.552-4.43-1.552-6.11,0
	s-4.259,1.389-5.731-0.362c-1.472-1.752-4.199-2.097-6.061-0.767c-1.861,1.33-4.4,0.846-5.642-1.076s-3.905-2.606-5.918-1.52
	s-4.471,0.288-5.461-1.774c-0.991-2.062-3.547-3.074-5.681-2.248s-4.472-0.274-5.196-2.444s-3.134-3.495-5.354-2.944
	s-4.403-0.834-4.849-3.077s-2.67-3.859-4.942-3.592s-4.263-1.38-4.425-3.661c-0.162-2.281-2.166-4.162-4.454-4.181
	s-4.058-1.903-3.933-4.188s-1.627-4.403-3.894-4.707s-3.785-2.394-3.374-4.645s-1.062-4.573-3.273-5.159
	c-2.211-0.587-3.456-2.851-2.766-5.032c0.69-2.181-0.481-4.669-2.602-5.527c-2.12-0.859-3.072-3.261-2.114-5.339
	s0.108-4.692-1.888-5.811c-1.996-1.118-2.64-3.622-1.43-5.563s0.695-4.642-1.145-6.001s-2.163-3.924-0.718-5.698
	c1.444-1.775,1.272-4.518-0.383-6.097s-1.655-4.163,0-5.742c1.655-1.579,1.827-4.323,0.383-6.098
	c-1.444-1.774-1.121-4.339,0.718-5.698s2.354-4.06,1.145-6.001c-1.21-1.941-0.566-4.444,1.43-5.562
	c1.996-1.118,2.846-3.733,1.888-5.811c-0.958-2.078-0.007-4.481,2.114-5.339s3.291-3.347,2.602-5.528s0.555-4.446,2.766-5.033
	c2.211-0.586,3.684-2.907,3.273-5.158c-0.411-2.25,1.108-4.341,3.374-4.646s4.019-2.423,3.894-4.708s1.645-4.169,3.933-4.187
	s4.292-1.9,4.454-4.182c0.162-2.282,2.153-3.929,4.425-3.66c2.272,0.269,4.496-1.347,4.942-3.591s2.628-3.628,4.849-3.078
	s4.63-0.774,5.354-2.944s3.063-3.27,5.196-2.444c2.134,0.826,4.69-0.187,5.681-2.249s3.448-2.862,5.461-1.776
	s4.676,0.402,5.918-1.52s3.781-2.405,5.642-1.075s4.589,0.986,6.061-0.766C89.717,1.176,92.295,1.014,93.976,2.566z"/>
<path fill="#FAF0EB" d="M171.646,96.505c0,41.383-33.548,74.932-74.931,74.932c-41.385,0-74.933-33.549-74.933-74.932
	c0-41.381,33.548-74.929,74.933-74.929C138.099,21.576,171.646,55.124,171.646,96.505z"/>
</svg>
