<?xml version="1.0" encoding="utf-8"?>
<!-- Generator: Adobe Illustrator 17.0.0, SVG Export Plug-In . SVG Version: 6.00 Build 0)  -->
<!DOCTYPE svg PUBLIC "-//W3C//DTD SVG 1.1//EN" "http://www.w3.org/Graphics/SVG/1.1/DTD/svg11.dtd">
<svg version="1.1" id="图层_1" xmlns="http://www.w3.org/2000/svg" xmlns:xlink="http://www.w3.org/1999/xlink" x="0px" y="0px"
	 width="300.8px" height="93.898px" viewBox="0 -0.479 300.8 93.898" enable-background="new 0 -0.479 300.8 93.898"
	 xml:space="preserve">
<path fill="#FF1A1A" d="M147.85,23.824h8.586l-5.164,7.73h-8.618L147.85,23.824L147.85,23.824z M86.812,76.229l-0.184,0.027
	l-0.513,0.024l-0.847,0.075l-1.147,0.123l-1.446,0.142l-1.711,0.214l-1.959,0.251l-2.192,0.339l-2.376,0.39l-2.625,0.489
	l-1.361,0.265l-1.395,0.291l-1.443,0.291l-1.478,0.347l-1.513,0.366l-1.529,0.382l-1.577,0.398l-1.612,0.438l-1.628,0.457
	l-1.628,0.497l-1.695,0.529l-1.676,0.532l-0.331,0.123l-0.981,0.299l-1.51,0.441l-2.01,0.505l-1.16,0.291l-1.246,0.265l-1.31,0.265
	l-1.411,0.273l-1.478,0.225l-1.494,0.217l-1.558,0.19l-1.628,0.134l-1.606,0.099l-1.628,0.048h-1.66l-1.628-0.099l-1.628-0.15
	l-1.612-0.217l-1.577-0.315l-1.529-0.414l-1.492-0.489l-1.427-0.604l-1.345-0.732l-1.278-0.829l-1.179-0.954l-1.096-1.096
	l-0.981-1.246l-0.898-1.363l-0.067-0.176l-0.182-0.489l-0.134-0.339l-0.115-0.465l-0.134-0.508l-0.166-0.615l-0.115-0.679
	l-0.134-0.756l-0.102-0.855l-0.099-0.922l-0.048-1.002l-0.016-1.096v-1.171l0.032-1.246l0.134-1.345l0.134-1.385l0.251-1.486
	l0.299-1.577l0.347-1.66l0.446-1.735l0.516-1.81l0.631-1.901l0.714-1.967l0.797-2.05l0.93-2.125l1.045-2.216l1.147-2.291
	l1.278-2.398l1.411-2.465l1.526-2.531l0.217-0.315l0.631-0.903l1.013-1.419l1.345-1.852l0.797-1.072l0.863-1.144l0.928-1.222
	l1.013-1.262l1.064-1.32l1.128-1.369l1.163-1.411l1.227-1.414l1.278-1.443l1.312-1.438l1.345-1.438l1.377-1.419l1.427-1.385
	l1.427-1.345l1.462-1.31l1.478-1.246l1.478-1.195l1.494-1.12l1.494-1.029l1.494-0.946l1.478-0.831l1.494-0.73l1.494-0.591
	l1.462-0.481l0.299-0.048l0.746-0.126l0.516-0.048h0.564h0.299l0.297,0.027l0.299,0.048l0.283,0.048l0.334,0.075l0.283,0.075
	l0.297,0.115l0.267,0.126l0.265,0.174l0.249,0.166l0.217,0.217l0.217,0.249l0.184,0.267l0.166,0.315l0.134,0.347l0.083,0.366
	l0.067,0.414l0.035,0.465l-0.035,0.481l-0.029,0.535l-0.251,0.027l-0.615,0.067l-0.414,0.102l-0.449,0.123l-0.516,0.19l-0.564,0.251
	l-0.283,0.147l-0.283,0.166l-0.297,0.198l-0.283,0.217l-0.299,0.217l-0.283,0.265l-0.283,0.275l-0.283,0.315l-0.267,0.315
	l-0.249,0.372l-0.251,0.382l-0.249,0.414l-0.217,0.441l-0.217,0.489l-0.166,0.516l-0.182,0.529l-0.067,0.267l-0.115,0.639
	l-0.035,0.414l-0.008,0.468l0.016,0.217l0.035,0.241l0.016,0.222l0.051,0.217l0.067,0.225l0.099,0.217l0.118,0.198l0.15,0.166
	l0.134,0.176l0.182,0.123l0.217,0.115l0.233,0.102l0.265,0.048l0.331,0.027h0.334l0.366-0.051l0.414-0.072l0.465-0.126l0.516-0.166
	l0.529-0.225l0.118-0.067l0.294-0.249l0.497-0.366l0.615-0.513l0.331-0.315l0.347-0.339l0.347-0.366l0.398-0.414l0.364-0.406
	l0.366-0.465l0.366-0.489l0.347-0.516l0.334-0.54l0.331-0.556l0.249-0.591l0.267-0.604l0.217-0.607l0.147-0.663l0.15-0.655
	l0.083-0.69v-0.7l-0.048-0.74l-0.096-0.73l-0.198-0.756L68.33,4.704l-0.334-0.781L67.55,3.143l-0.497-0.807L66.97,2.234
	l-0.251-0.262l-0.15-0.19l-0.265-0.198L66.04,1.368l-0.331-0.251L65.342,0.9l-0.449-0.249l-0.5-0.192l-0.564-0.214l-0.647-0.176
	l-0.682-0.15l-0.748-0.091l-0.829-0.075h-0.895L59.047-0.22l-1.08,0.126l-1.112,0.163l-1.23,0.241l-1.312,0.339L52.937,1.09
	l-1.462,0.513l-1.609,0.631l-1.644,0.732l-1.759,0.855l-1.876,0.981l-1.959,1.096l-2.058,1.246l-2.176,1.387l-2.291,1.534
	l-0.38,0.241l-1.064,0.764l-0.748,0.564l-0.914,0.655l-1.013,0.807l-1.163,0.895l-1.23,1.056l-1.345,1.139l-1.411,1.246
	l-1.462,1.393l-1.529,1.486l-1.609,1.585l-1.577,1.711l-1.628,1.826l-1.644,1.927l-1.628,2.026l-1.612,2.144l-1.577,2.24
	l-1.558,2.342l-1.494,2.465l-1.427,2.558L6.725,43.8L5.48,46.531l-1.179,2.847l-1.077,2.946l-0.93,3.055l-0.797,3.149l-0.668,3.237
	l-0.497,3.323L0,68.498v0.339v0.906l0.035,0.655l0.048,0.756l0.099,0.855l0.118,0.954l0.182,1.024l0.198,1.072l0.299,1.144
	l0.347,1.171l0.433,1.222l0.481,1.219l0.615,1.222l0.679,1.222l0.815,1.195l0.895,1.171l1.045,1.12l1.147,1.045l1.262,0.997
	l1.427,0.93l1.577,0.829l1.711,0.706l1.876,0.615l2.042,0.484l2.227,0.323l2.424,0.19l2.59,0.024l2.756-0.15l2.988-0.339
	l3.205-0.556l0.166-0.035l0.497-0.115l0.815-0.176l1.045-0.241l1.246-0.267l1.443-0.339l1.577-0.366l1.711-0.39l1.759-0.414
	l1.778-0.414l1.81-0.441l1.745-0.414l1.695-0.414l1.561-0.417l1.411-0.364l1.246-0.342l0.334-0.099l0.997-0.241l1.577-0.347
	l2.077-0.406l1.179-0.198l1.296-0.198l1.363-0.192l1.443-0.174l1.529-0.142l1.561-0.126l1.644-0.099l1.628-0.043l1.676,0.027
	l1.711,0.048l1.711,0.118l1.743,0.198l1.676,0.241l1.679,0.339l1.66,0.414l1.612,0.516l1.561,0.604l1.478,0.714l1.443,0.821
	l1.363,0.93l1.278,1.072l1.163,1.179l1.045,1.312l0.962,1.459l0.067-0.15l0.267-0.43l0.217-0.323l0.283-0.339l0.315-0.39
	l0.366-0.414l0.433-0.433l0.516-0.465l0.564-0.441l0.663-0.465l0.698-0.441l0.781-0.414l0.882-0.414l0.914-0.366l1.064-0.315
	l1.08-0.265l1.23-0.198l1.294-0.15l1.395-0.075l1.459,0.032l1.577,0.091l1.727,0.198l1.759,0.315l1.909,0.441l2.01,0.54l2.109,0.679
	l2.259,0.823l2.326,0.954l2.475,1.128l2.606,1.288l-0.182-0.217l-0.484-0.615l-0.366-0.457l-0.446-0.513l-0.532-0.591l-0.596-0.658
	l-0.714-0.706l-0.815-0.754l-0.847-0.789l-0.962-0.821l-1.045-0.831l-1.128-0.879l-1.23-0.855l-1.296-0.871l-1.395-0.855
	l-1.478-0.855l-1.577-0.829l-1.663-0.781l-1.727-0.754l-1.86-0.706l-1.927-0.666l-2.026-0.58l-2.125-0.54l-2.208-0.441l-2.291-0.366
	l-2.408-0.265l-2.475-0.166l-2.59-0.048l-2.689,0.048L86.812,76.229L86.812,76.229z M105.723,59.913l0.73-0.39l0.781-0.532
	l0.831-0.663l0.829-0.781l0.882-0.882l0.863-0.97l0.914-1.072l0.93-1.12l0.93-1.222l0.914-1.27l0.946-1.32l0.914-1.363l0.93-1.363
	l0.882-1.419l0.928-1.411l0.863-1.419l1.679-2.775l1.577-2.689l1.411-2.457l1.214-2.2l1.013-1.852l0.746-1.411l0.465-0.903
	l0.166-0.315l-0.583-0.39l-0.631-0.217l-0.714-0.035l-0.698,0.123l-0.781,0.275l-0.815,0.39l-0.847,0.532l-0.847,0.639l-0.847,0.732
	l-0.863,0.847l-0.895,0.903l-0.93,1.005l-0.895,1.045l-0.898,1.096l-0.863,1.12l-0.895,1.171l-0.847,1.171l-0.829,1.171
	l-0.797,1.171l-0.781,1.171l-1.446,2.192l-1.262,2.007l-1.064,1.727l-0.781,1.312l-0.497,0.882l-0.182,0.299l-0.449,1.021
	l-0.398,0.922l-0.366,0.882l-0.299,0.781l-0.265,0.754l-0.233,0.658l-0.166,0.615l-0.134,0.556l-0.099,0.516l-0.067,0.441
	l-0.035,0.414l-0.016,0.339l0.016,0.315l0.035,0.273l0.048,0.241l0.067,0.19l0.083,0.174l0.102,0.126l0.099,0.115l0.134,0.075
	l0.118,0.048l0.134,0.051l0.134,0.024l0.115,0.027l0.433-0.048L105.723,59.913L105.723,59.913z M63.613,40.138l0.233-0.489
	l0.615-1.27l0.382-0.871l0.398-0.981l0.184-0.529l0.217-0.54l0.166-0.559l0.166-0.564l0.15-0.564l0.134-0.556l0.115-0.564
	l0.102-0.556l0.067-0.564l0.032-0.516v-0.529l-0.067-0.489l-0.067-0.465l-0.134-0.441l-0.166-0.414l-0.233-0.366l-0.265-0.331
	l-0.334-0.299l-0.38-0.241l-0.465-0.176l-0.398,0.048l-1.045,0.217l-0.647,0.2l-0.764,0.249l-0.398,0.166l-0.38,0.198l-0.398,0.19
	l-0.347,0.217l-0.398,0.265l-0.366,0.275l-0.347,0.315l-0.334,0.339l-0.315,0.366l-0.265,0.39l-0.251,0.438L57.59,31.6l-0.166,0.516
	l-0.15,0.529l-0.067,0.564l-0.051,0.631l0.016,0.639l0.067,0.706l0.15,0.732l0.198,0.781l0.016,0.091l0.067,0.198l0.102,0.174
	l0.134,0.166l0.198,0.225l0.233,0.217l0.331,0.265l0.398,0.273l0.465,0.265l0.596,0.315l0.698,0.291l0.813,0.315l0.914,0.323
	L63.613,40.138L63.613,40.138z M50.694,58.188l0.417-0.366l1.112-1.08l0.732-0.732l0.847-0.855l0.895-0.97l0.946-1.053l0.997-1.112
	l0.962-1.171l0.465-0.588l0.484-0.607l0.414-0.639l0.446-0.604l0.417-0.615l0.38-0.631l0.366-0.615l0.347-0.604l0.283-0.607
	l0.283-0.591l0.217-0.58l0.184-0.591l-0.334-0.15l-0.914-0.441l-0.564-0.307L59.4,42.305l-0.714-0.414l-0.748-0.457l-0.781-0.489
	l-0.781-0.564l-0.347-0.265l-0.382-0.291l-0.334-0.291l-0.331-0.299l-0.299-0.315l-0.265-0.291l-0.283-0.315l-0.233-0.323
	l-0.182-0.315l-0.198-0.315l-0.134-0.315l-0.102-0.339l-0.115,0.174l-0.334,0.484l-0.497,0.73l-0.631,1.005l-0.781,1.195
	l-0.847,1.363l-0.914,1.513l-0.93,1.609l-0.465,0.829l-0.449,0.855l-0.449,0.847L46.46,48.17l-0.414,0.847l-0.398,0.882L45.3,50.755
	l-0.347,0.829l-0.299,0.821l-0.251,0.781l-0.233,0.781l-0.166,0.756l-0.115,0.714l-0.083,0.679l-0.016,0.631l0.048,0.591
	l0.051,0.217l0.182,0.513l0.15,0.342l0.233,0.339l0.115,0.174l0.115,0.142l0.166,0.176l0.166,0.142l0.198,0.123l0.198,0.123
	l0.233,0.102l0.265,0.102l0.249,0.04l0.299,0.027h0.299l0.331-0.027l0.366-0.04l0.382-0.102l0.433-0.15l0.414-0.198l0.449-0.217
	l0.513-0.265l0.516-0.323L50.694,58.188L50.694,58.188z M140.959,23.824L122.064,54.74l-0.315,0.564l-0.283,0.489l-0.217,0.484
	l-0.184,0.422l-0.166,0.406l-0.134,0.339l-0.099,0.347l-0.067,0.291l-0.051,0.291l-0.032,0.249v0.217l0.032,0.192l0.016,0.174
	l0.051,0.15l0.067,0.115l0.083,0.126l0.067,0.075l0.118,0.091l0.083,0.059l0.099,0.04l0.217,0.048l0.217,0.027h0.347l0.15-0.027
	l0.347-0.123l0.347-0.166l0.433-0.249l0.414-0.315l0.497-0.331l0.497-0.398l0.497-0.441l0.548-0.489l1.128-1.064l1.128-1.155
	l1.144-1.222l1.163-1.246l1.096-1.238l1.045-1.195l0.946-1.096l0.831-1.005l1.214-1.462l0.446-0.564h3.421l-0.797,1.198
	l-0.797,1.144l-0.831,1.128l-0.829,1.096l-0.829,1.045l-0.847,1.005l-0.815,0.97l-0.813,0.954l-0.815,0.903l-0.813,0.847
	l-0.764,0.829l-0.781,0.807l-0.764,0.754l-0.732,0.706l-0.746,0.682l-0.666,0.639l-1.328,1.195l-1.211,0.997l-1.064,0.879
	l-0.895,0.706l-0.748,0.559l-0.548,0.398l-0.331,0.241l-0.115,0.075l-1.115,0.754l-0.978,0.631l-0.962,0.516l-0.882,0.441
	l-0.829,0.315l-0.732,0.217l-0.698,0.15l-0.647,0.075h-0.564l-0.516-0.075l-0.481-0.15l-0.433-0.166l-0.366-0.241l-0.347-0.299
	l-0.283-0.315l-0.283-0.339l-0.217-0.366l-0.182-0.39l-0.184-0.414l-0.134-0.414l-0.115-0.417l-0.051-0.406l-0.067-0.39l-0.048-0.39
	l-0.051-0.679l-0.016-0.564l0.016-0.366V62.5l-0.564,0.615l-0.564,0.583l-0.548,0.54l-0.564,0.489l-0.564,0.465l-0.548,0.414
	l-0.532,0.39l-0.529,0.339l-0.532,0.315l-0.532,0.291l-0.484,0.241l-0.497,0.225l-0.465,0.219l-0.449,0.166l-0.481,0.142
	l-0.414,0.15l-0.414,0.099l-0.414,0.099l-0.366,0.075l-0.347,0.043l-0.647,0.099l-0.548,0.024h-0.748l-0.299-0.024l-0.679-0.027
	l-0.631-0.091l-0.564-0.158l-0.497-0.19l-0.465-0.267l-0.43-0.289l-0.334-0.35l-0.315-0.364l-0.267-0.409l-0.214-0.438l-0.217-0.465
	l-0.134-0.489l-0.099-0.489l-0.099-0.508l-0.048-0.516l-0.035-0.54v-0.508v-0.54l0.035-0.516l0.032-0.481l0.118-0.954l0.134-0.829
	l0.315-1.262l0.115-0.489l-1.959,1.901l-1.911,1.711l-1.759,1.534l-1.711,1.312l-1.641,1.171l-1.529,0.97l-1.459,0.863l-1.395,0.682
	l-1.296,0.529l-1.246,0.441l-1.144,0.291l-1.096,0.198l-0.997,0.099l-0.946,0.016l-0.879-0.067l-0.829-0.166l-0.764-0.2
	l-0.679-0.265l-0.631-0.323l-0.599-0.342l-0.497-0.364l-0.465-0.39l-0.414-0.39l-0.366-0.39l-0.331-0.39l-0.251-0.366l-0.217-0.315
	l-0.166-0.291l-0.233-0.422L65.35,64.2l-0.366-0.658l-0.331-0.706l-0.2-0.764L64.286,61.3l-0.118-0.815l-0.048-0.821l0.016-0.855
	l0.048-0.882l0.118-0.871l0.115-0.879l0.166-0.903l0.214-0.906l0.233-0.871l0.265-0.882l0.267-0.879l0.315-0.855l0.283-0.831
	l0.334-0.829l0.315-0.773l0.347-0.754l0.583-1.371l0.599-1.222l0.513-0.997l0.414-0.756l0.267-0.465l0.099-0.176l-0.315,0.15
	l-0.347,0.15l-0.283,0.099l-0.334,0.091l-0.564,0.176l-0.513,0.099l-0.781,0.091h-0.299l-0.965,1.585l-0.946,1.51l-0.997,1.462
	l-0.946,1.395l-0.946,1.32l-0.93,1.262l-0.93,1.198l-0.914,1.144l-0.914,1.096l-0.882,1.029l-0.847,0.973l-0.847,0.93l-0.815,0.879
	l-0.813,0.797l-0.748,0.764l-0.764,0.706l-0.711,0.671l-0.679,0.604l-0.631,0.564l-0.599,0.54l-1.096,0.879l-0.93,0.698l-0.748,0.54
	l-0.564,0.39l-0.347,0.225l-0.115,0.075l-1.262,0.583l-1.147,0.489l-1.112,0.39l-1.013,0.289l-0.965,0.192l-0.879,0.123
	l-0.829,0.051l-0.748-0.024l-0.714-0.102l-0.631-0.142l-0.596-0.225l-0.484-0.241l-0.5-0.286l-0.446-0.347l-0.347-0.366
	l-0.366-0.382l-0.299-0.414l-0.283-0.449l-0.217-0.406l-0.182-0.441l-0.166-0.441l-0.166-0.438l-0.099-0.414l-0.083-0.39
	L31.9,62.698l-0.067-0.564l-0.016-0.366v-0.142l-0.048-0.738l-0.035-0.748l0.048-0.764l0.067-0.781l0.134-0.773l0.134-0.807
	l0.198-0.813l0.198-0.797l0.251-0.781l0.249-0.815l0.283-0.772l0.315-0.781l0.315-0.781l0.315-0.754l0.347-0.732l0.331-0.714
	l0.682-1.361l0.663-1.246l0.666-1.12l0.564-0.946L37.96,43.8l0.382-0.591l0.233-0.366l0.099-0.123l1.676-2.315l1.628-2.144
	l1.577-1.975l1.513-1.802l1.494-1.66l1.443-1.486l1.395-1.371l1.328-1.222l1.278-1.072l1.262-0.944l1.179-0.855l1.128-0.732
	l1.112-0.639l1.013-0.54l1.01-0.441l0.914-0.358l0.882-0.273l0.813-0.217l0.797-0.176l0.714-0.091l0.647-0.051h0.615l0.548,0.027
	l0.497,0.04l0.43,0.051l0.401,0.099l0.299,0.075l0.297,0.102l0.347,0.142l0.134,0.075l0.663,0.339l0.615,0.414l0.513,0.465
	l0.465,0.489l0.366,0.556l0.315,0.588l0.251,0.607l0.182,0.655l0.15,0.69l0.115,0.679l0.016,0.732l0.016,0.714l-0.035,0.746
	l-0.083,0.74l-0.099,0.732l-0.115,0.73l-0.166,0.706l-0.166,0.706l-0.198,0.69l-0.182,0.655l-0.417,1.238l-0.414,1.096l-0.347,0.906
	l-0.299,0.714l-0.217,0.438l-0.083,0.142l0.596-0.174l0.564-0.241l0.631-0.291l0.647-0.339l0.631-0.366l0.682-0.414l0.663-0.441
	l0.682-0.465l0.679-0.489l0.679-0.508l0.682-0.54l0.698-0.556l1.312-1.131l1.278-1.12l1.198-1.12l1.128-1.072l0.997-0.97l0.879-0.89
	l1.246-1.262l0.465-0.489l1.278-0.922l1.179-0.805l1.147-0.714l1.112-0.607l1.064-0.516l0.997-0.438l0.93-0.334l0.914-0.297
	l0.847-0.2l0.797-0.142l0.748-0.075l0.73-0.024l0.666,0.024l0.647,0.051l0.583,0.123l0.529,0.142l0.532,0.176l0.446,0.19
	l0.414,0.225l0.382,0.241l0.382,0.251l0.297,0.241l0.283,0.267l0.267,0.241l0.398,0.465l0.265,0.364l0.166,0.251l0.035,0.102
	l0.233,0.73l0.15,0.682l0.115,0.706l0.067,0.655l0.032,0.666l-0.032,0.631l-0.035,0.607l-0.102,0.615l-0.115,0.564l-0.166,0.556
	l-0.166,0.564l-0.184,0.516l-0.217,0.481l-0.265,0.489l-0.233,0.457l-0.265,0.414l-0.249,0.414l-0.267,0.398l-0.297,0.366
	L100,36.382l-0.513,0.607l-0.484,0.516l-0.73,0.679l-0.299,0.249l-0.449,0.217l-0.465,0.166l-0.398,0.176l-0.38,0.099L95.9,39.165
	l-0.299,0.067l-0.331,0.027l-0.283-0.027l-0.249-0.024l-0.251-0.043l-0.217-0.048l-0.182-0.102l-0.198-0.099l-0.15-0.118
	l-0.15-0.134l-0.118-0.142l-0.134-0.15l-0.083-0.142l-0.118-0.15l-0.067-0.15l-0.099-0.307l-0.067-0.299l-0.067-0.441l-0.032-0.19
	l0.099-0.615l0.118-0.583l0.15-0.556l0.166-0.516l0.233-0.465l0.184-0.438l0.249-0.414l0.249-0.39l0.249-0.339l0.283-0.315
	l0.283-0.291l0.283-0.273l0.315-0.241l0.297-0.198l0.315-0.192l0.283-0.174l0.315-0.166l0.299-0.123l0.283-0.126l0.265-0.091
	l0.548-0.15l0.446-0.102l0.714-0.091l0.251-0.035l0.083-0.433l0.016-0.441v-0.364l-0.016-0.334l-0.083-0.297l-0.083-0.267
	l-0.083-0.217l-0.134-0.198l-0.134-0.174l-0.166-0.142l-0.166-0.102l-0.217-0.102l-0.184-0.067l-0.217-0.032l-0.233-0.016
	l-0.217-0.027l-0.449,0.027l-0.433,0.067l-0.414,0.126l-0.382,0.126l-0.564,0.217l-0.217,0.099l-0.962,0.658l-0.946,0.706
	l-0.895,0.74l-0.914,0.754L90.829,30.9l-0.847,0.797l-0.831,0.829l-0.797,0.863l-0.764,0.847l-0.764,0.855l-0.714,0.855
	l-0.698,0.847l-0.647,0.855l-0.647,0.855l-0.596,0.829l-0.599,0.805l-1.077,1.585l-0.914,1.438l-0.829,1.32l-0.663,1.147
	l-0.551,0.946l-0.366,0.706l-0.265,0.446l-0.067,0.142l-0.666,1.411l-0.564,1.32l-0.497,1.222l-0.364,1.12l-0.315,1.045
	l-0.217,0.978l-0.166,0.903L75.339,56.7l-0.016,0.73l0.048,0.682l0.083,0.631l0.166,0.564l0.184,0.481l0.217,0.465l0.283,0.398
	l0.283,0.331l0.315,0.299l0.334,0.265l0.331,0.217l0.366,0.176l0.331,0.142l0.347,0.123l0.334,0.102l0.364,0.072l0.583,0.102
	l0.449,0.016h0.331h0.118l0.738-0.214l0.781-0.315l0.831-0.414l0.813-0.516l0.895-0.58l0.882-0.666l0.895-0.732l0.914-0.781
	l0.946-0.847l0.914-0.879l0.93-0.93l0.93-0.946l0.93-0.997l0.895-0.978l0.914-1.029l0.882-0.997l1.676-2.002l1.545-1.901
	l1.427-1.778l1.214-1.585l0.997-1.345l0.764-1.021l0.465-0.666l0.166-0.241l0.666-0.954l0.647-0.895l0.663-0.906l0.666-0.855
	l0.679-0.829l0.666-0.797l0.679-0.781l0.647-0.73l0.666-0.714l0.666-0.682l0.663-0.655l0.631-0.615l1.214-1.147l1.163-1.021
	l1.112-0.93l0.962-0.781l0.879-0.658l0.748-0.54l1.096-0.732l0.366-0.241l0.781-0.465l0.764-0.39l0.748-0.339l0.679-0.291
	l0.679-0.249l0.647-0.166l0.615-0.174l0.58-0.102l0.564-0.075l0.548-0.04h0.497l0.497,0.027l0.43,0.048l0.433,0.067l0.398,0.102
	l0.366,0.123l0.364,0.115l0.315,0.15l0.299,0.15l0.283,0.142l0.465,0.315l0.382,0.323l0.516,0.508l0.182,0.225l0.182-0.15
	l0.134-0.142l0.166-0.102l0.15-0.099l0.299-0.166l0.233-0.102l0.38-0.099h0.166h8.602V23.824z M197.683,32.41l1.246-0.981
	l1.163-0.997l1.112-1.029l1.013-1.021l0.962-1.045l0.863-1.053l0.829-1.072l0.764-1.048l0.679-1.045l0.631-1.053l0.599-1.048
	l0.529-1.021l0.481-1.005l0.414-0.997l0.382-0.978l0.347-0.922l0.315-0.93l0.249-0.871l0.251-0.829l0.182-0.807l0.182-0.754
	l0.118-0.706l0.12-0.666l0.102-0.604l0.115-1.029l0.083-0.754l0.016-0.489V7.484l-1.246,0.591l-1.262,0.655l-1.16,0.679
	l-1.179,0.732l-1.096,0.754l-1.083,0.807l-1.013,0.829l-0.978,0.855l-0.962,0.871l-0.898,0.879l-0.863,0.906l-0.829,0.879
	l-0.797,0.895l-0.746,0.906l-0.679,0.879l-0.698,0.882l-0.596,0.847l-0.583,0.855l-0.569,0.805l-0.497,0.781l-0.895,1.438
	l-0.698,1.246l-0.564,1.053l-0.42,0.773l-0.249,0.516l-0.067,0.174l-0.217,0.847l-0.115,0.764l-0.102,0.658v0.604l0.016,0.516
	l0.099,0.441l0.118,0.39l0.166,0.315l0.217,0.251l0.265,0.214l0.283,0.15l0.315,0.091l0.315,0.075l0.364,0.027l0.366-0.027
	l0.366-0.048l0.398-0.075l0.38-0.099l0.398-0.115l0.382-0.126l0.732-0.291l0.679-0.315l1.029-0.564L197.683,32.41L197.683,32.41z
	 M177.058,46.157l0.166-0.067l0.43-0.147l0.714-0.2l0.882-0.217l0.481-0.099l0.516-0.051l0.564-0.04l0.564-0.027h0.564l0.548,0.067
	l0.564,0.102l0.551,0.15l0.548,0.217l0.516,0.265l0.465,0.347l0.433,0.414l0.414,0.508l0.347,0.591l0.283,0.679l0.233,0.781
	l0.166,0.882l0.102,0.997v1.096l-0.104,1.243l-0.166,1.363l-0.299,1.494l-0.382,1.628l-0.513,1.786l-0.102,0.291l-0.347,0.829
	l-0.529,1.296l-0.781,1.679l-0.484,0.978l-0.513,1.045l-0.599,1.128l-0.631,1.163l-0.714,1.246l-0.732,1.27l-0.797,1.296
	l-0.847,1.31l-0.93,1.345l-0.978,1.337l-1.013,1.345l-1.096,1.312l-1.112,1.328l-1.195,1.288l-1.246,1.238l-1.31,1.195l-1.345,1.152
	l-1.395,1.096l-1.513,1.021l-1.513,0.93l-1.577,0.855l-1.628,0.756l-1.695,0.655l-1.743,0.54l-0.198,0.067l-0.564,0.15l-0.414,0.096
	l-0.484,0.091l-0.564,0.102l-0.615,0.099l-0.647,0.075l-0.714,0.048l-0.746,0.027l-0.815-0.027l-0.797-0.048l-0.863-0.099
	l-0.863-0.142l-0.847-0.225l-0.863-0.267l-0.863-0.339l-0.863-0.441l-0.829-0.513l-0.797-0.583l-0.781-0.714l-0.746-0.807
	l-0.714-0.903l-0.647-1.021l-0.596-1.147l-0.532-1.262l-0.465-1.419l-0.414-1.561l-0.299-1.703l-0.251-1.852l-0.115-2.01
	l0.035-0.265l0.032-0.807l0.15-1.288l0.233-1.735l0.166-1.005l0.198-1.112l0.251-1.195l0.249-1.296l0.315-1.371l0.382-1.435
	l0.446-1.513l0.449-1.585l0.529-1.636l0.599-1.703l0.666-1.759l0.73-1.778l0.797-1.826l0.879-1.884l0.946-1.895l1.032-1.909
	l1.128-1.951l1.179-1.951l1.296-1.975l1.395-1.975l1.478-1.975l1.596-1.975l1.676-1.943l1.794-1.959l0.414-0.433l1.128-1.27
	l0.863-0.879l0.962-1.048l1.163-1.171l1.246-1.296l1.427-1.395l1.545-1.486l1.628-1.537l1.727-1.577l1.826-1.612l1.943-1.633
	l1.959-1.636l2.042-1.612l2.109-1.561l2.141-1.51l2.176-1.438l2.208-1.371l2.208-1.235l2.227-1.12l2.208-0.981l2.192-0.829
	l2.192-0.655l2.125-0.438l2.125-0.267h2.058l1.975,0.217l1.876,0.465l1.86,0.781l1.745,1.045l0.147-0.067l0.382-0.225l0.666-0.291
	l0.895-0.366l0.532-0.198l0.596-0.217l0.631-0.198l0.682-0.217l0.73-0.198l0.781-0.166l0.831-0.174l0.847-0.166l0.914-0.123
	l0.946-0.102l0.965-0.075l1.029-0.024h1.045l1.08,0.024l1.112,0.102l1.131,0.15l1.179,0.19l1.16,0.251l1.23,0.315l1.214,0.366
	l1.246,0.465l1.246,0.508l1.296,0.615l1.262,0.679l16.338,8.586l-7.744,7.76l-12.884-7.754l-0.15-0.102l-0.465-0.265l-0.698-0.39
	l-0.93-0.54l-1.128-0.604l-1.296-0.666l-1.443-0.698l-1.529-0.714l-0.781-0.315l-0.797-0.339l-0.829-0.315L222.89,6.53l-0.815-0.265
	l-0.813-0.241L220.433,5.8l-0.797-0.166l-0.781-0.147l-0.781-0.126l-0.746-0.048l-0.735-0.021l-0.714,0.016l-0.666,0.102
	l-0.631,0.15l-0.58,0.214l0.016,0.15l0.048,0.465l0.016,0.73v0.954v0.58l-0.016,0.607l-0.048,0.69l-0.051,0.706l-0.083,0.781
	l-0.099,0.783l-0.166,0.847l-0.166,0.879l-0.182,0.882l-0.217,0.954l-0.283,0.946l-0.315,0.954l-0.366,0.997l-0.38,0.994
	l-0.481,1.029l-0.484,1.029l-0.548,1.021l-0.615,1.021l-0.682,1.048l-0.73,1.029l-0.815,0.997l-0.863,1.029l-0.93,0.97l-0.994,0.97
	l-0.2,0.176l-0.414,0.414l-0.679,0.631l-0.946,0.789l-0.497,0.433l-0.564,0.438l-0.615,0.465l-0.634,0.489l-0.666,0.465
	l-0.679,0.433l-0.714,0.438l-0.732,0.414l-0.732,0.39l-0.73,0.366l-0.732,0.289l-0.732,0.275l-0.73,0.19l-0.698,0.123l-0.714,0.075
	l-0.666-0.027l-0.647-0.099l-0.647-0.217l-0.564-0.299l-0.529-0.39l-0.532-0.508l-0.465-0.631l-0.398-0.789l-0.347-0.898v-0.174
	l0.035-0.532l0.032-0.422l0.083-0.457l0.067-0.54l0.134-0.604l0.134-0.679l0.166-0.764l0.233-0.805l0.249-0.847l0.299-0.93
	l0.382-0.954l0.398-0.997l0.465-1.045l0.548-1.096l0.615-1.123l0.647-1.152l0.764-1.163l0.831-1.23l0.895-1.211l0.997-1.222
	l1.096-1.27l1.179-1.246l1.278-1.262l1.377-1.27l1.494-1.246l1.596-1.264l1.708-1.246l1.828-1.246l1.959-1.214l-0.102-0.048
	l-0.313-0.102l-0.251-0.075l-0.315-0.048l-0.366-0.043l-0.414-0.024h-0.497l-0.548,0.051l-0.628,0.064l-0.682,0.15l-0.781,0.174
	l-0.829,0.267l-0.917,0.315l-0.997,0.39l-1.08,0.489l-1.128,0.58l-1.23,0.69l-1.31,0.773l-1.395,0.903l-1.494,1.024l-1.561,1.155
	l-1.644,1.286l-1.759,1.446l-1.86,1.585l-1.943,1.727l-2.026,1.927l-2.16,2.077l-2.224,2.24l-2.358,2.465l-2.424,2.633l-0.297,0.39
	l-0.863,1.144l-1.296,1.81l-1.644,2.408l-0.946,1.385l-1.013,1.486l-1.045,1.636l-1.096,1.711l-1.147,1.786l-1.144,1.876
	l-1.163,1.927l-1.128,1.994l-1.147,2.026l-1.112,2.074l-1.08,2.101l-1.045,2.09l-0.978,2.125l-0.93,2.117l-0.831,2.101l-0.746,2.066
	l-0.666,2.026l-0.564,2.002l-0.446,1.925l-0.283,1.884l-0.171,1.78l-0.016,1.711l0.134,1.601l0.315,1.518l0.048,0.142l0.198,0.417
	l0.15,0.289l0.166,0.315l0.233,0.366l0.265,0.366l0.283,0.422l0.315,0.39l0.366,0.414l0.414,0.409l0.484,0.39l0.465,0.366
	l0.548,0.347l0.58,0.315l0.615,0.241l0.682,0.225l0.732,0.142l0.764,0.075h0.829l0.847-0.102l0.914-0.166l0.978-0.299l1.029-0.382
	l1.08-0.489l1.112-0.639l1.195-0.756l1.246-0.903l1.329-1.048l1.31-1.187l1.462-1.369l0.166-0.2l0.465-0.556l0.746-0.903
	l0.962-1.195l1.08-1.438l1.23-1.66l0.647-0.906l0.631-0.946l0.631-0.978l0.631-0.997l0.615-1.048l0.599-1.077l0.564-1.072
	l0.548-1.096l0.516-1.096l0.449-1.12l0.398-1.096l0.331-1.128l0.299-1.096l0.217-1.069l0.115-1.072l0.067-1.048l-0.032-1.002
	l-0.134-0.997l-0.233-0.954l-0.347-0.895l-0.102-0.035l-0.217-0.067l-0.364-0.099l-0.484-0.075h-0.283h-0.297l-0.347,0.024
	l-0.366,0.075l-0.366,0.102l-0.414,0.115l-0.414,0.176l-0.449,0.217l-0.433,0.265l-0.465,0.323l-0.484,0.39l-0.481,0.441
	l-0.497,0.505l-0.516,0.591l-0.481,0.658l-0.513,0.754l-0.551,0.831l-0.497,0.903l-0.513,1.021l-0.516,1.096l-0.516,1.222
	l-0.481,1.345l-0.516,1.411l-0.481,1.561l-0.433,0.265l-1.195,0.732l-1.778,1.077l-2.058,1.363l-1.096,0.74l-1.131,0.772
	l-1.064,0.781l-1.045,0.813l-0.946,0.772l-0.847,0.756l-0.398,0.339l-0.331,0.366l-0.315,0.347l-0.249,0.339v-0.241l0.083-0.666
	l0.115-1.045l0.233-1.395l0.134-0.805l0.166-0.855l0.214-0.922l0.283-0.978l0.283-1.021l0.348-1.045l0.38-1.096l0.449-1.104
	l0.497-1.147l0.516-1.147l0.615-1.171l0.666-1.147l0.73-1.171l0.797-1.144l0.895-1.123l0.946-1.096l0.997-1.072l1.112-1.029
	l1.195-0.997l1.246-0.954l1.363-0.871l1.443-0.829l1.561-0.764L177.058,46.157L177.058,46.157z M255.25,74.518l0.748-0.97
	l0.863-1.27l1.029-1.486l1.096-1.703l1.179-1.86l1.246-1.951l1.214-1.97l1.214-1.999l1.195-1.935l1.147-1.844l1.013-1.695
	l0.863-1.513l0.764-1.246l0.564-0.946l0.366-0.604l0.134-0.225l-0.198-0.556l-0.299-0.39l-0.334-0.265l-0.446-0.134l-0.497,0.032
	l-0.516,0.118l-0.615,0.249l-0.647,0.339l-0.682,0.441l-0.73,0.516l-0.732,0.604l-0.781,0.655l-0.783,0.738l-0.813,0.764
	l-0.797,0.797l-0.797,0.829l-0.813,0.855l-0.797,0.871l-0.748,0.863l-0.764,0.871l-1.411,1.66l-1.278,1.51l-1.08,1.32l-0.797,1.021
	l-0.497,0.69l-0.217,0.217l-0.914,1.486l-0.831,1.419l-0.764,1.31l-0.666,1.211l-0.596,1.155l-0.516,1.072l-0.446,0.994l-0.417,0.93
	l-0.331,0.855l-0.265,0.807l-0.251,0.706l-0.166,0.679l-0.134,0.607l-0.102,0.54l-0.048,0.516v0.441v0.39l0.048,0.366l0.083,0.315
	l0.083,0.265l0.083,0.225l0.134,0.217l0.099,0.174l0.118,0.115l0.115,0.126l0.115,0.099l0.118,0.051l0.099,0.048l0.134,0.067h0.067
	l0.417-0.091l0.398-0.123l0.398-0.19l0.382-0.198l0.414-0.241l0.382-0.251l0.382-0.289l0.398-0.315l0.347-0.315l0.38-0.339
	l0.347-0.366l0.382-0.364l0.631-0.764l0.647-0.754l0.583-0.756l0.513-0.732l0.484-0.655l0.366-0.615l0.548-0.871L255.25,74.518
	L255.25,74.518z M212.294,64.208l0.214-0.39l0.567-1.021l0.364-0.732l0.398-0.855l0.398-0.93l0.414-1.021l0.198-0.516l0.184-0.556
	l0.182-0.54l0.166-0.564l0.166-0.583l0.115-0.564l0.134-0.58l0.134-0.583l0.067-0.564l0.051-0.564l0.032-0.564v-0.556l-0.032-0.54
	l-0.064-0.529l-0.102-0.516l-0.15-0.481l-0.083-0.102l-0.265-0.249l-0.182-0.15l-0.267-0.142l-0.283-0.123l-0.315-0.091
	l-0.198-0.027l-0.184-0.024l-0.217-0.027h-0.233l-0.233,0.027l-0.251,0.048l-0.265,0.048l-0.294,0.07l-0.299,0.126l-0.315,0.118
	l-0.315,0.15l-0.331,0.174l-0.347,0.217l-0.366,0.251l-0.398,0.265l-0.382,0.291l-0.099,0.099l-0.267,0.251l-0.414,0.406
	l-0.516,0.54l-0.265,0.315l-0.265,0.339l-0.265,0.39l-0.251,0.39l-0.265,0.414l-0.217,0.441l-0.217,0.465l-0.182,0.465l-0.15,0.516
	l-0.083,0.481l-0.051,0.516v0.529l0.051,0.54l0.115,0.54l0.166,0.529l0.283,0.54l0.331,0.556l0.433,0.54l0.532,0.54l0.615,0.529
	l0.698,0.516l0.847,0.516l0.946,0.508L212.294,64.208L212.294,64.208z M197.683,82.256l0.564-0.273l0.548-0.339l0.599-0.366
	l0.548-0.433l0.596-0.465l0.567-0.513l0.564-0.54l0.564-0.58l0.548-0.591l0.564-0.631l0.529-0.631l0.532-0.666l0.516-0.658
	l0.497-0.679l0.465-0.666l0.497-0.679l0.882-1.296l0.813-1.235l0.732-1.155l0.596-1.021l0.863-1.486l0.283-0.556l-0.465-0.174
	l-0.449-0.192l-0.465-0.225l-0.449-0.214l-0.433-0.225l-0.449-0.241l-0.38-0.273l-0.414-0.265l-0.764-0.564l-0.698-0.556
	l-0.663-0.591l-0.583-0.583l-0.532-0.54l-0.465-0.532l-0.433-0.465l-0.315-0.414l-0.446-0.607l-0.166-0.225l-0.829,1.246
	l-1.112,1.711l-1.264,1.967l-1.31,2.058l-1.23,1.927l-1.029,1.601l-0.698,1.096l-0.267,0.422l-0.446,1.238l-0.347,1.147
	l-0.334,1.045l-0.217,0.954l-0.15,0.879l-0.115,0.807l-0.048,0.706l0.032,0.631l0.051,0.564l0.083,0.508l0.134,0.441l0.182,0.39
	l0.198,0.323l0.233,0.265l0.249,0.241l0.283,0.176l0.283,0.142l0.299,0.102l0.315,0.072l0.283,0.051l0.331,0.016h0.315l0.297-0.016
	l0.267-0.051l0.513-0.099l0.382-0.102l0.265-0.099L197.683,82.256L197.683,82.256z M282.766,46.157l-18.93,30.954l-0.166,0.315
	l-0.414,0.829l-0.249,0.564l-0.233,0.583l-0.249,0.631l-0.166,0.615l-0.083,0.291l-0.032,0.289l-0.051,0.275v0.265v0.217
	l0.051,0.225l0.067,0.166l0.099,0.176l0.134,0.091l0.184,0.099l0.217,0.035h0.249l0.315-0.059l0.331-0.091l0.414-0.15l0.481-0.217
	l0.398-0.315l1.128-0.879l0.764-0.639l0.863-0.756l0.946-0.847l1.048-0.978l1.045-1.045l1.096-1.128l0.532-0.583l0.529-0.631
	l0.532-0.615l0.516-0.658l0.513-0.658l0.484-0.663l0.497-0.682l0.446-0.679l0.433-0.706l0.382-0.706l0.366-0.706l0.348-0.74h3.438
	l-0.15,0.251l-0.465,0.706l-0.698,1.12l-0.978,1.438l-1.198,1.735l-1.395,1.927l-0.781,0.997l-0.781,1.08l-0.847,1.045l-0.863,1.096
	l-0.895,1.096l-0.93,1.08l-0.946,1.064l-0.962,1.053l-1.013,1.045l-0.997,1.005l-1.045,0.954l-1.013,0.898l-1.01,0.829l-1.029,0.781
	l-1.051,0.7l-1.029,0.631l-0.997,0.54l-1.029,0.438l-0.962,0.342l-0.978,0.214l-0.347,0.075l-0.847,0.176l-0.265,0.016l-0.299,0.024
	l-0.283,0.035h-0.331l-0.315-0.035l-0.35-0.04l-0.297-0.048l-0.334-0.102l-0.297-0.115l-0.315-0.158l-0.299-0.166l-0.297-0.217
	l-0.267-0.249l-0.249-0.291l-0.217-0.339l-0.198-0.39l-0.166-0.414l-0.15-0.489l-0.067-0.529l-0.083-0.615v-0.658l0.035-0.706
	l0.067-0.781l0.15-0.855l-0.334,0.366l-0.997,0.954l-0.679,0.604l-0.797,0.706l-0.446,0.347l-0.484,0.366l-0.481,0.366l-0.516,0.366
	l-0.529,0.366l-0.564,0.331l-0.564,0.347l-0.583,0.315l-0.596,0.315l-0.583,0.299l-0.647,0.241l-0.631,0.217l-0.631,0.19
	l-0.647,0.174l-0.666,0.134l-0.647,0.067l-0.647,0.024l-0.647-0.024l-0.666-0.067l-0.631-0.134l-0.182-0.115l-0.465-0.39
	l-0.299-0.267l-0.315-0.372l-0.347-0.417l-0.334-0.481l-0.15-0.273l-0.147-0.291l-0.15-0.315l-0.134-0.315l-0.102-0.347
	l-0.115-0.358l-0.102-0.374l-0.067-0.406l-0.048-0.414l-0.016-0.441l-0.016-0.441l0.016-0.489l0.048-0.489l0.075-0.516l0.115-0.532
	l0.15-0.564l-0.331,0.347l-0.829,0.871l-0.615,0.615l-0.663,0.658l-0.797,0.738l-0.847,0.756l-0.914,0.773l-0.965,0.754
	l-0.497,0.366l-0.497,0.339l-0.513,0.347l-0.497,0.339l-0.516,0.291l-0.516,0.291l-0.516,0.275l-0.516,0.217l-0.516,0.225
	l-0.516,0.166l-0.481,0.15l-0.481,0.091h-0.134l-0.297,0.051l-0.433,0.024h-0.583l-0.347-0.024l-0.331-0.027l-0.382-0.04
	l-0.347-0.075l-0.398-0.102l-0.382-0.123l-0.398-0.15l-0.382-0.19l-0.398-0.217l-0.347-0.251l-0.347-0.315l-0.334-0.339l-0.315-0.39
	l-0.283-0.441l-0.251-0.489l-0.217-0.529l-0.166-0.615l-0.15-0.655l-0.067-0.732l-0.048-0.789l0.016-0.871l0.083-0.922l0.134-1.029
	l0.217-1.072l0.035-0.315l0.134-0.879l0.233-1.387l0.364-1.826l0.2-1.053l0.265-1.12l0.265-1.222l0.315-1.27l0.347-1.31l0.38-1.371
	l0.433-1.419l0.481-1.427l-0.134,0.016l-0.315,0.099l-0.481,0.15l-0.599,0.142l-0.666,0.176l-0.714,0.115l-0.382,0.075l-0.347,0.027
	l-0.347,0.048h-0.334l-0.115,0.225l-0.382,0.631l-0.615,0.997l-0.829,1.296l-1.029,1.561l-1.227,1.786l-0.682,0.922l-0.73,0.978
	l-0.781,0.997l-0.797,1.021l-0.829,1.053l-0.898,1.021l-0.914,1.045l-0.946,1.029l-0.997,1.021l-0.981,1.005l-1.064,0.97
	l-1.045,0.93l-1.096,0.898l-1.096,0.863l-1.128,0.797l-1.128,0.764l-1.179,0.674l-1.181,0.615l-1.179,0.508l-1.195,0.465
	l-0.15,0.027l-0.414,0.048l-0.615,0.059l-0.781,0.04h-0.43l-0.465-0.024l-0.481-0.048l-0.465-0.048l-0.513-0.091l-0.516-0.15
	l-0.497-0.15l-0.481-0.19l-0.497-0.241l-0.433-0.291l-0.433-0.347l-0.398-0.39l-0.347-0.457l-0.334-0.513l-0.265-0.564l-0.198-0.658
	l-0.15-0.714l-0.102-0.807v-0.847l0.051-0.954l0.166-1.048l0.233-1.12l0.331-1.246l0.414-1.32l0.083-0.289l0.233-0.898l0.182-0.639
	l0.233-0.754l0.265-0.855l0.334-0.946l0.38-1.053l0.449-1.147l0.481-1.195l0.564-1.27l0.599-1.337l0.663-1.363l0.748-1.419
	l0.829-1.435l0.882-1.462l0.93-1.47l1.064-1.459l1.096-1.462l1.195-1.459l1.262-1.411l1.345-1.419l1.446-1.337l1.513-1.296
	l1.628-1.246l1.695-1.198l1.81-1.096l1.909-1.005l1.959-0.922l2.125-0.807l2.208-0.706l0.099-0.024l0.283-0.027l0.481-0.027
	l0.583-0.024l0.315,0.024l0.366,0.027l0.364,0.075l0.366,0.04l0.382,0.102l0.398,0.123l0.382,0.176l0.398,0.166l0.347,0.214
	l0.382,0.275l0.347,0.289l0.331,0.342l0.315,0.39l0.265,0.441l0.265,0.489l0.2,0.532l0.182,0.615l0.134,0.658l0.102,0.73
	l0.016,0.807l-0.016,0.855l-0.067,0.946l-0.166,1.002l-0.182,1.096l-0.134,0.315l-0.297,0.906l-0.465,1.27l-0.615,1.486
	l-0.315,0.754l-0.366,0.754l-0.347,0.74l-0.364,0.647l-0.184,0.323l-0.166,0.267l-0.182,0.265l-0.198,0.249l-0.166,0.192
	l-0.166,0.174l-0.184,0.142l-0.15,0.102l0.102,0.024l0.347,0.075l0.217,0.051l0.299,0.016l0.315,0.035l0.331,0.016l0.382-0.016
	l0.414-0.035l0.398-0.067l0.446-0.099l0.449-0.15l0.497-0.166l0.465-0.249l0.484-0.291l0.249-0.465l0.679-1.262l1.147-2.026
	l1.545-2.708l0.898-1.534l0.997-1.711l1.112-1.802l1.179-1.901l1.264-2.026l1.345-2.101l1.427-2.141l1.478-2.243l1.577-2.267
	l1.644-2.326l1.676-2.358l1.778-2.35l1.81-2.366l1.86-2.358l1.925-2.342l1.975-2.315l2.026-2.291l2.042-2.224l2.093-2.144
	l2.157-2.101l2.144-1.999l2.208-1.901l2.224-1.778l2.259-1.687l0.166-0.123l0.465-0.339l0.781-0.508l0.997-0.639l1.198-0.679
	l1.31-0.756l0.698-0.339l0.748-0.366l0.73-0.339l0.732-0.315l0.746-0.275l0.748-0.265l0.732-0.225l0.73-0.166l0.698-0.102
	l0.666-0.075h0.666l0.596,0.075l0.564,0.15l0.516,0.217l0.497,0.315l0.366,0.398l0.38,0.508l0.267,0.588l0.182,0.732l0.134,0.829
	l-0.016,0.217l-0.166,0.631l-0.198,0.954l-0.382,1.195l-0.198,0.658l-0.251,0.679l-0.283,0.74l-0.315,0.706l-0.334,0.732
	l-0.398,0.706l-0.217,0.364l-0.233,0.342l-0.217,0.339l-0.233,0.323l-3.438,0.847l0.267-0.433l0.596-1.152l0.398-0.781l0.417-0.855
	l0.414-0.898l0.38-0.928l0.184-0.465l0.15-0.433l0.134-0.465l0.134-0.414l0.083-0.417l0.083-0.39l0.016-0.366V6.024l-0.016-0.299
	l-0.083-0.265l-0.118-0.217l-0.166-0.176l-0.184-0.115l-0.283-0.075h-0.315l-0.366,0.048l-0.102,0.027l-0.265,0.115l-0.465,0.225
	l-0.631,0.366l-0.831,0.508l-1.01,0.69l-0.599,0.433l-0.615,0.465l-0.682,0.54l-0.698,0.604l-0.781,0.639l-0.797,0.732l-0.895,0.781
	l-0.895,0.882l-0.981,0.917l-0.994,1.021l-1.08,1.104l-1.096,1.171l-1.16,1.27l-1.195,1.363l-1.278,1.438l-1.296,1.561l-1.363,1.636
	l-1.377,1.751l-1.478,1.86l-1.51,1.951l-0.15,0.217l-0.404,0.609l-0.663,0.973l-0.863,1.294l-1.045,1.553l-1.163,1.786l-1.329,1.975
	l-1.363,2.117l-1.443,2.227l-1.427,2.267l-1.446,2.291l-1.395,2.267l-1.296,2.2l-1.23,2.066l-0.564,0.997l-0.513,0.93l-0.449,0.906
	l-0.449,0.829l0.217-0.176l0.666-0.465l1.045-0.748l1.379-1.029l1.66-1.288l1.994-1.561l2.176-1.759l2.376-2.002l1.246-1.072
	l1.262-1.12l1.328-1.171l1.328-1.222l1.345-1.246l1.363-1.294l1.377-1.337l1.363-1.363l1.363-1.419l1.395-1.438l1.345-1.459
	l1.345-1.521l1.312-1.526l1.294-1.545l1.264-1.585l1.227-1.601h3.438l-0.166,0.265l-0.564,0.73l-0.93,1.171l-1.246,1.561
	l-1.577,1.901l-1.909,2.227l-1.064,1.187l-1.133,1.275l-1.195,1.32l-1.278,1.363l-1.328,1.419l-1.411,1.438l-1.513,1.486
	l-1.529,1.513l-1.577,1.51l-1.663,1.561l-1.711,1.537l-1.778,1.566l-1.826,1.553l-1.876,1.537l-1.927,1.534l-1.975,1.521
	l-2.026,1.51l-2.074,1.462l-2.093,1.411l-2.176,1.411l-0.083,0.174l-0.233,0.564l-0.366,0.847l-0.481,1.123l-0.529,1.345
	l-0.615,1.51l-0.615,1.636l-0.615,1.711l-0.599,1.727l-0.516,1.735l-0.233,0.847l-0.217,0.815l-0.184,0.797l-0.15,0.764
	l-0.134,0.698l-0.083,0.69l-0.035,0.639l0.016,0.556l0.048,0.508l0.102,0.441l0.15,0.339l0.214,0.299l0.016,0.048l0.083,0.118
	l0.115,0.147l0.166,0.166l0.134,0.075l0.15,0.075l0.134,0.048l0.198,0.051l0.217,0.024l0.2-0.024l0.249-0.027l0.265-0.075
	l0.299-0.102l0.315-0.115l0.364-0.198l0.366-0.217l0.414-0.273l0.417-0.339l0.481-0.39l0.481-0.441l0.548-0.529l0.564-0.591
	l0.564-0.658l0.647-0.73l0.682-0.807l0.714-0.903l0.748-0.997l0.781-1.08l0.182-0.291l0.484-0.781l0.797-1.27l1.032-1.628
	l1.294-1.951l1.513-2.2l0.829-1.163l0.898-1.227l0.93-1.214l0.946-1.27l1.013-1.272l1.045-1.294l1.064-1.262l1.096-1.27l1.16-1.246
	l1.128-1.195l1.179-1.171l1.179-1.144l1.179-1.072l1.227-0.997l1.23-0.957l1.195-0.855l1.23-0.781l1.246-0.679l1.23-0.556
	l1.179-0.465l0.283-0.075l0.732-0.126l0.481-0.048l0.564-0.016h0.631l0.666,0.043l0.331,0.048l0.366,0.075l0.331,0.075l0.382,0.091
	l0.366,0.134l0.331,0.142l0.382,0.166l0.331,0.198l0.331,0.241l0.348,0.251l0.315,0.289l0.315,0.315l0.315,0.339l0.299,0.39
	l0.265,0.438l0.233,0.465l0.863-2.59L282.766,46.157L282.766,46.157z M266.425,16.094l-6.872,7.73l0.297,0.048l0.831,0.15
	l0.58,0.067l0.714,0.102l0.831,0.072l0.895,0.051l1.029,0.024l1.115-0.024l1.195-0.027l1.278-0.099l1.328-0.15l1.411-0.217
	l1.478-0.299l1.529-0.358l1.577-0.441l1.612-0.54l1.641-0.631l1.679-0.756l1.695-0.879l1.743-0.978l1.727-1.123l1.743-1.27
	l1.727-1.385l1.743-1.561l1.695-1.703l1.695-1.901l1.679-2.05l1.644-2.267l1.593-2.44l1.545-2.633l-0.184,0.195l-0.548,0.54
	l-0.898,0.855l-1.195,1.072l-0.732,0.631l-0.781,0.666l-0.847,0.679l-0.928,0.732l-0.981,0.73l-1.045,0.756l-1.112,0.754
	l-1.147,0.781l-1.23,0.756l-1.262,0.756l-1.329,0.73l-1.363,0.706l-1.377,0.69l-1.446,0.631l-1.459,0.588l-1.513,0.532l-1.561,0.489
	l-1.561,0.414l-1.577,0.366l-1.644,0.265l-1.628,0.176l-1.66,0.091h-1.689L266.425,16.094L266.425,16.094z M287.914,89.987h0.315
	l0.315-0.027l0.334-0.048l0.283-0.075l0.283-0.091l0.297-0.099l0.283-0.126l0.283-0.123l0.267-0.15l0.265-0.166l0.249-0.166
	l0.251-0.198l0.233-0.192l0.233-0.222l0.2-0.217l0.198-0.251l0.233-0.241l0.166-0.267l0.166-0.241l0.166-0.299l0.166-0.265
	l0.134-0.299l0.134-0.291l0.118-0.291l0.115-0.315l0.067-0.299l0.067-0.315l0.102-0.315l0.048-0.315l0.048-0.315l0.016-0.342v-0.321
	v-0.315l-0.016-0.315l-0.048-0.291l-0.048-0.315l-0.102-0.289l-0.067-0.299l-0.067-0.265l-0.115-0.299l-0.118-0.267l-0.134-0.241
	l-0.134-0.265l-0.166-0.251l-0.166-0.217l-0.166-0.249l-0.166-0.192l-0.233-0.217l-0.198-0.198l-0.2-0.198l-0.233-0.166
	l-0.233-0.166l-0.251-0.15l-0.249-0.15l-0.265-0.123l-0.267-0.118l-0.283-0.099l-0.283-0.102l-0.297-0.067l-0.283-0.075
	l-0.283-0.048l-0.334-0.027l-0.315-0.024h-0.315h-0.315l-0.334,0.024l-0.297,0.027l-0.334,0.048l-0.299,0.075l-0.315,0.067
	l-0.331,0.102l-0.283,0.099l-0.334,0.118l-0.283,0.123l-0.283,0.15l-0.283,0.15l-0.265,0.166l-0.283,0.166l-0.233,0.198
	l-0.249,0.198l-0.233,0.217l-0.249,0.192l-0.184,0.249l-0.233,0.217l-0.166,0.251l-0.198,0.265l-0.134,0.241l-0.166,0.267
	l-0.134,0.299l-0.134,0.265l-0.083,0.299l-0.083,0.289l-0.067,0.315l-0.048,0.291l-0.016,0.315l-0.035,0.315l0.035,0.323
	l0.016,0.342l0.048,0.315l0.067,0.315l0.083,0.315l0.083,0.315l0.134,0.299l0.134,0.315l0.166,0.291l0.134,0.291l0.198,0.299
	l0.166,0.265l0.233,0.299l0.184,0.241l0.249,0.267l0.233,0.241l0.249,0.251l0.233,0.217l0.283,0.222l0.265,0.192l0.283,0.198
	l0.283,0.166l0.283,0.166l0.334,0.15l0.283,0.123l0.331,0.126l0.315,0.099l0.299,0.091l0.334,0.075l0.297,0.048l0.334,0.027h0.315
	V89.987z M287.914,75.373l0.414,0.027l0.382,0.024l0.398,0.051l0.366,0.075l0.401,0.075l0.364,0.091l0.348,0.126l0.366,0.147
	l0.334,0.142l0.331,0.176l0.315,0.19l0.315,0.198l0.299,0.217l0.299,0.225l0.297,0.241l0.267,0.265l0.23,0.273l0.251,0.265
	l0.233,0.299l0.214,0.283l0.217,0.326l0.166,0.339l0.166,0.315l0.166,0.342l0.134,0.364l0.115,0.366l0.134,0.366l0.067,0.366
	l0.067,0.398l0.048,0.39l0.016,0.382v0.39v0.422l-0.016,0.382l-0.048,0.39l-0.067,0.366l-0.067,0.398l-0.134,0.366l-0.115,0.366
	l-0.134,0.339l-0.166,0.339l-0.166,0.342l-0.166,0.315l-0.217,0.315l-0.214,0.297l-0.233,0.291l-0.251,0.291l-0.23,0.267
	l-0.267,0.249l-0.297,0.241l-0.299,0.241l-0.299,0.225l-0.315,0.198l-0.315,0.166l-0.331,0.174l-0.334,0.166l-0.366,0.123
	l-0.348,0.126l-0.364,0.091l-0.401,0.102l-0.366,0.075l-0.398,0.04l-0.382,0.035h-0.414h-0.38l-0.398-0.035l-0.38-0.04l-0.398-0.075
	l-0.347-0.102l-0.38-0.091l-0.382-0.126l-0.347-0.123l-0.331-0.166l-0.334-0.174l-0.331-0.166l-0.331-0.198l-0.283-0.225
	l-0.299-0.241l-0.265-0.241l-0.267-0.249l-0.265-0.267l-0.249-0.291l-0.217-0.291l-0.217-0.297l-0.2-0.315l-0.182-0.315
	l-0.182-0.342l-0.15-0.339l-0.134-0.339l-0.134-0.366l-0.099-0.366l-0.083-0.398l-0.067-0.366l-0.048-0.39l-0.051-0.382v-0.425
	v-0.39l0.051-0.382l0.048-0.39l0.067-0.398l0.083-0.366l0.099-0.366l0.134-0.366l0.134-0.364l0.15-0.342l0.182-0.315l0.182-0.339
	l0.2-0.326l0.217-0.283l0.217-0.299l0.249-0.265l0.265-0.273l0.267-0.265l0.265-0.241l0.299-0.225l0.283-0.217l0.331-0.198
	l0.331-0.19l0.334-0.176l0.331-0.142l0.347-0.147l0.382-0.126l0.38-0.091l0.347-0.075l0.398-0.075l0.38-0.051l0.398-0.024
	L287.914,75.373L287.914,75.373z M288.777,83.104h0.048l0.083-0.027l0.15-0.04l0.15-0.15l0.067-0.075l0.102-0.115l0.067-0.15
	l0.048-0.15l0.083-0.217l0.032-0.225l0.016-0.265l0.016-0.291l-0.016-0.15l-0.102-0.291l-0.048-0.075l-0.048-0.075l-0.083-0.067
	l-0.067-0.075l-0.102-0.048l-0.115-0.048l-0.115-0.027h-0.166h-2.574v2.558L288.777,83.104L288.777,83.104z M291.351,81.401
	l-0.016,0.441l-0.048,0.414l-0.083,0.339l-0.118,0.291l-0.115,0.251l-0.15,0.214l-0.15,0.176l-0.166,0.115l-0.166,0.126
	l-0.166,0.067l-0.15,0.048l-0.115,0.048l-0.182,0.035h-0.083l1.711,3.427l-0.847,0.882l-2.59-4.309h-1.711v4.309h-1.727v-9.457
	h4.301h0.315l0.283,0.016l0.265,0.051l0.249,0.048l0.198,0.048l0.217,0.075l0.166,0.075l0.166,0.091l0.115,0.075l0.134,0.123
	l0.134,0.091l0.102,0.134l0.134,0.217l0.099,0.249l0.067,0.233l0.032,0.225v0.217v0.198l-0.083,0.291L291.351,81.401L291.351,81.401
	z"/>
</svg>
