<?xml version="1.0" encoding="iso-8859-1"?>
<!-- Generator: Adobe Illustrator 17.0.0, SVG Export Plug-In . SVG Version: 6.00 Build 0)  -->
<!DOCTYPE svg PUBLIC "-//W3C//DTD SVG 1.1//EN" "http://www.w3.org/Graphics/SVG/1.1/DTD/svg11.dtd">
<svg version="1.1" id="artwork" xmlns="http://www.w3.org/2000/svg" xmlns:xlink="http://www.w3.org/1999/xlink" x="0px" y="0px"
	 width="28.376px" height="77.271px" viewBox="0 0 28.376 77.271" style="enable-background:new 0 0 28.376 77.271;"
	 xml:space="preserve">
<g>
	<g>
		<rect x="12.544" y="10.179" style="fill:#C79F7E;" width="3.507" height="5.1"/>
		<g>
			<path style="fill:#E4B58F;" d="M18.095,6.33c-0.519-2.089-2.022-4.489-3.799-4.489c-1.768,0-3.28,2.4-3.798,4.489
				c-0.411,0.197-0.707,0.772-0.707,1.455c0,0.724,0.329,1.316,0.765,1.479c0.551,1.776,2.022,3.444,3.74,3.444
				c1.727,0,3.19-1.668,3.749-3.444C18.489,9.101,18.81,8.5,18.81,7.785C18.81,7.102,18.514,6.518,18.095,6.33z"/>
		</g>
		<g>
			<path style="fill:#340023;" d="M11.69,71.621H9.022c-0.556,0-1.006,0.45-1.006,1.006v2.902c0,0.961,0.779,1.741,1.74,1.741h1.199
				c0.961,0,1.74-0.78,1.74-1.741v-2.902C12.695,72.071,12.245,71.621,11.69,71.621z"/>
			<path style="fill:#FFFFFF;" d="M8.451,74.609c1.258-0.979,2.482-0.913,3.691,0v-3.462H8.451V74.609z"/>
		</g>
		<path style="fill:#231F20;" d="M8.451,71.49c0.238,0.091,0.501,0.132,0.773,0.132h2.54c0.132,0,0.255-0.008,0.379-0.033v-1.323
			H8.451V71.49z"/>
		<g>
			<path style="fill:#340023;" d="M19.897,71.621h-2.669c-0.556,0-1.006,0.45-1.006,1.006v2.902c0,0.961,0.779,1.741,1.741,1.741
				h1.198c0.962,0,1.741-0.78,1.741-1.741v-2.902C20.903,72.071,20.452,71.621,19.897,71.621z"/>
			<path style="fill:#FFFFFF;" d="M16.776,74.609c1.208-0.913,2.434-0.979,3.691,0v-3.462h-3.691V74.609z"/>
		</g>
		<path style="fill:#231F20;" d="M13.522,35.979h-6.66v32.029c0,1.305,1.058,2.362,2.362,2.362h2.538
			c1.305,0,2.361-1.058,2.361-2.362l0.336-8.438l0.335,8.438c0,1.305,1.058,2.362,2.362,2.362h2.538
			c1.305,0,2.361-1.058,2.361-2.362V35.979h-6.659H13.522z"/>
		<path style="fill:#0F090A;" d="M13.522,35.071h-6.66v9.744h0.826l-0.025,0.304c3.995,1.896,9.239,1.554,14.394,0.188V35.071
			h-6.659H13.522z"/>
		<path style="fill:#231F20;" d="M16.776,71.589c0.123,0.025,0.247,0.033,0.378,0.033h2.541c0.271,0,0.534-0.041,0.772-0.132v-1.225
			h-3.691V71.589z"/>
		<path style="fill:#231F20;" d="M18.075,1.929c0.195-0.371,0.25-0.646,0.25-0.646l-1.074-0.038C16.497,0.477,15.451,0,14.298,0
			c-2.283,0-4.152,1.868-4.152,4.152v2.971l0.49,0.386c0-1.141,0.343-2.073,0.89-2.756c0.729,0.357,2.263,0.745,4.79-0.279
			c0.132-0.031,0.255-0.067,0.374-0.105c0.769,0.709,1.271,1.832,1.271,3.318l0.49-0.387V4.152c0-0.275-0.03-0.544-0.082-0.804
			c0.642-0.684,0.777-1.382,0.777-1.382L18.075,1.929z"/>
	</g>
	<polygon style="fill:#B3171B;" points="14.228,14.838 14.138,14.768 13.538,14.308 6.668,14.308 6.668,44.298 13.238,44.298 
		14.208,41.487 15.038,44.298 22.298,44.298 22.298,14.308 14.848,14.308 	"/>
	<polygon style="fill:#B3171B;" points="14.326,14.741 17.545,14.476 16.779,12.741 	"/>
	<polygon style="fill:#B3171B;" points="10.936,14.476 14.154,14.741 11.701,12.741 	"/>
	<polygon style="fill:#FBB040;" points="15.094,14.31 16.854,12.899 16.764,12.619 14.134,14.769 14.064,14.819 14.064,41.31 
		14.914,44.3 15.174,44.3 14.314,41.289 14.314,14.939 	"/>
	<path style="opacity:0.5;fill:#A7A9AC;" d="M19.448,30.798h-0.471v0.09c-0.09,0-0.199,0-0.3,0.01v-0.1h-1v0.659h-0.33l-0.859-1.26
		l-1.601-0.67l-1.3,0.36l0.019,0.1l-0.92,0.38l-0.81,1.19h-0.24v-0.76h-1v0.109c-0.09,0-0.17,0-0.26-0.01v-0.1h-0.46v0.09
		c-1.38-0.101-2.44-0.351-3.25-0.66v4.17c0.93,0.25,2.01,0.43,3.25,0.5v0.07h0.46v-0.061c0.09,0,0.17,0.01,0.26,0.01v0.051h1v-1.351
		h0.18l1.12,0.45l1.32-0.13l1.97,0.189l1.19-0.47l0.26-0.01v1.32h1v-0.07c0.1,0,0.2,0,0.3-0.01v0.08h0.471v-0.11
		c1.06-0.08,2.01-0.24,2.85-0.46v-4.18c-0.73,0.279-1.68,0.51-2.85,0.62V30.798z"/>
	<polygon style="fill:#FBB040;" points="11.639,12.866 14.109,14.974 14.273,14.784 11.752,12.6 	"/>
	<g>
		<path style="fill:#FBB040;" d="M15.41,16.736c-0.151,0-0.278,0.096-0.329,0.229h-1.843c-0.051-0.133-0.178-0.229-0.328-0.229
			c-0.196,0-0.354,0.158-0.354,0.354c0,0.196,0.158,0.354,0.354,0.354c0.151,0,0.278-0.096,0.328-0.229h1.843
			c0.051,0.134,0.177,0.229,0.329,0.229c0.195,0,0.354-0.158,0.354-0.354C15.764,16.895,15.606,16.736,15.41,16.736z"/>
		<path style="fill:#FBB040;" d="M15.41,17.944c-0.151,0-0.278,0.096-0.329,0.229h-1.843c-0.051-0.133-0.178-0.229-0.328-0.229
			c-0.196,0-0.354,0.158-0.354,0.354c0,0.195,0.158,0.354,0.354,0.354c0.151,0,0.278-0.096,0.328-0.229h1.843
			c0.051,0.134,0.177,0.229,0.329,0.229c0.195,0,0.354-0.158,0.354-0.354C15.764,18.103,15.606,17.944,15.41,17.944z"/>
	</g>
	<g>
		<path style="fill:#FBB040;" d="M15.41,23.236c-0.151,0-0.278,0.096-0.329,0.229h-1.843c-0.051-0.133-0.178-0.229-0.328-0.229
			c-0.196,0-0.354,0.158-0.354,0.354c0,0.196,0.158,0.354,0.354,0.354c0.151,0,0.278-0.096,0.328-0.229h1.843
			c0.051,0.134,0.177,0.229,0.329,0.229c0.195,0,0.354-0.158,0.354-0.354C15.764,23.395,15.606,23.236,15.41,23.236z"/>
		<path style="fill:#FBB040;" d="M15.41,24.444c-0.151,0-0.278,0.096-0.329,0.229h-1.843c-0.051-0.133-0.178-0.229-0.328-0.229
			c-0.196,0-0.354,0.158-0.354,0.354c0,0.195,0.158,0.354,0.354,0.354c0.151,0,0.278-0.096,0.328-0.229h1.843
			c0.051,0.134,0.177,0.229,0.329,0.229c0.195,0,0.354-0.158,0.354-0.354C15.764,24.603,15.606,24.444,15.41,24.444z"/>
	</g>
	<g>
		<path style="fill:#FBB040;" d="M15.41,29.736c-0.151,0-0.278,0.096-0.329,0.229h-1.843c-0.051-0.133-0.178-0.229-0.328-0.229
			c-0.196,0-0.354,0.158-0.354,0.354c0,0.196,0.158,0.354,0.354,0.354c0.151,0,0.278-0.096,0.328-0.229h1.843
			c0.051,0.134,0.177,0.229,0.329,0.229c0.195,0,0.354-0.158,0.354-0.354C15.764,29.895,15.606,29.736,15.41,29.736z"/>
		<path style="fill:#FBB040;" d="M15.41,30.944c-0.151,0-0.278,0.096-0.329,0.229h-1.843c-0.051-0.133-0.178-0.229-0.328-0.229
			c-0.196,0-0.354,0.158-0.354,0.354c0,0.195,0.158,0.354,0.354,0.354c0.151,0,0.278-0.096,0.328-0.229h1.843
			c0.051,0.134,0.177,0.229,0.329,0.229c0.195,0,0.354-0.158,0.354-0.354C15.764,31.103,15.606,30.944,15.41,30.944z"/>
	</g>
	<g>
		<path style="fill:#FBB040;" d="M15.41,36.236c-0.151,0-0.278,0.096-0.329,0.229h-1.843c-0.051-0.133-0.178-0.229-0.328-0.229
			c-0.196,0-0.354,0.158-0.354,0.354c0,0.196,0.158,0.354,0.354,0.354c0.151,0,0.278-0.096,0.328-0.229h1.843
			c0.051,0.134,0.177,0.229,0.329,0.229c0.195,0,0.354-0.158,0.354-0.354C15.764,36.395,15.606,36.236,15.41,36.236z"/>
		<path style="fill:#FBB040;" d="M15.41,37.444c-0.151,0-0.278,0.096-0.329,0.228h-1.843c-0.051-0.133-0.178-0.228-0.328-0.228
			c-0.196,0-0.354,0.158-0.354,0.354c0,0.195,0.158,0.354,0.354,0.354c0.151,0,0.278-0.096,0.328-0.23h1.843
			c0.051,0.134,0.177,0.23,0.329,0.23c0.195,0,0.354-0.158,0.354-0.354C15.764,37.603,15.606,37.444,15.41,37.444z"/>
	</g>
	<polygon style="fill:#FBB040;" points="13.174,44.3 13.445,44.3 14.334,41.43 14.094,41.359 	"/>
	<polygon style="fill:#D4A986;" points="15.339,29.465 15.412,29.047 14.193,28.706 12.693,29.331 11.88,30.518 11.193,30.518 
		10.568,30.456 10.38,32.519 11.818,32.581 12.934,33.023 15.216,32.802 16.1,32.041 16.272,29.857 14.946,29.857 	"/>
	<polygon style="fill:#FDCFA5;" points="18.082,30.418 17.35,30.418 16.485,29.153 14.887,28.487 13.587,28.851 13.665,29.295 
		14.084,29.714 12.672,29.714 12.321,30.705 12.856,32.04 13.796,32.851 16.228,33.086 17.416,32.615 18.947,32.549 18.748,30.352 	
		"/>
	<path style="fill:#780A0B;" d="M25.034,17.149c0,0-0.88-2.84-2.74-2.84v7.609l1.86,6.181c-0.36,0.319-0.95,0.729-1.86,1.08
		c-1.055,0.407-2.54,0.713-4.584,0.71l0.16,3.996c1.736-0.009,3.202-0.204,4.424-0.526c4.24-1.08,5.66-3.51,5.85-3.88
		c0.24-0.46,0.301-1,0.15-1.5L25.034,17.149z"/>
	<path style="fill:#780A0B;" d="M6.646,29.18c-0.91-0.351-1.5-0.761-1.86-1.08l1.86-6.181V14.31c-1.86,0-2.74,2.84-2.74,2.84
		l-3.26,10.83c-0.15,0.5-0.09,1.04,0.15,1.5c0.189,0.37,1.609,2.8,5.85,3.88c1.25,0.33,2.75,0.53,4.54,0.53
		c0.116,0,0.209-0.001,0.304-0.002l-0.243-3.998C9.194,29.895,7.703,29.588,6.646,29.18z"/>
	<rect x="17.681" y="29.755" style="fill:#FBB040;" width="1" height="4.169"/>
	<rect x="10.639" y="29.755" style="fill:#FBB040;" width="1" height="4.169"/>
	<rect x="18.978" y="29.755" style="fill:#FBB040;" width="0.466" height="4.169"/>
	<rect x="9.915" y="29.755" style="fill:#FBB040;" width="0.466" height="4.169"/>
</g>
</svg>
