<?xml version="1.0" encoding="utf-8"?>
<!-- Generator: Adobe Illustrator 17.0.0, SVG Export Plug-In . SVG Version: 6.00 Build 0)  -->
<!DOCTYPE svg PUBLIC "-//W3C//DTD SVG 1.1//EN" "http://www.w3.org/Graphics/SVG/1.1/DTD/svg11.dtd">
<svg version="1.1" id="图层_1" xmlns:ev="http://www.w3.org/2001/xml-events"
	 xmlns="http://www.w3.org/2000/svg" xmlns:xlink="http://www.w3.org/1999/xlink" x="0px" y="0px" width="125.5px"
	 height="245.537px" viewBox="0 0 125.5 245.537" enable-background="new 0 0 125.5 245.537" xml:space="preserve">
<path fill="#D6DEE9" d="M0.806,29.013c0.445,0,0.806,0.361,0.806,0.806v6.985c0,0.445-0.361,0.806-0.806,0.806S0,37.249,0,36.804
	v-6.985C0,29.374,0.361,29.013,0.806,29.013z"/>
<path fill="#D6DEE9" d="M121.694,46.743c0.445,0,0.806,0.361,0.806,0.806v14.507c0,0.445-0.361,0.806-0.806,0.806
	c-0.445,0-0.806-0.361-0.806-0.806V47.549C120.888,47.104,121.249,46.743,121.694,46.743z"/>
<path fill="#D6DEE9" d="M0.806,46.743c0.445,0,0.806,0.361,0.806,0.806v14.507c0,0.445-0.361,0.806-0.806,0.806S0,62.501,0,62.056
	V47.549C0,47.104,0.361,46.743,0.806,46.743z"/>
<path fill="#D6DEE9" d="M0.806,66.623c0.445,0,0.806,0.361,0.806,0.806v14.507c0,0.445-0.361,0.806-0.806,0.806S0,82.38,0,81.935
	V67.429C0,66.984,0.361,66.623,0.806,66.623z"/>
<path fill="#D6DEE9" d="M19.611,0h83.279c10.386,0,18.805,8.419,18.805,18.805v207.928c0,10.386-8.419,18.805-18.805,18.805H19.611
	c-10.386,0-18.805-8.419-18.805-18.805V18.805C0.806,8.419,9.225,0,19.611,0z"/>
<path fill="#B9C4D4" fill-opacity="0.502" d="M117.396,228.882v-3.761h4.298v3.761H117.396z M117.396,16.118h4.298v3.761h-4.298
	V16.118z M0.806,225.121h4.298v3.761H0.806V225.121z M0.806,16.118h4.298v3.761H0.806V16.118z"/>
<path fill="#C9D3E2" d="M20.148,2.149h82.204c9.495,0,17.193,7.698,17.193,17.193v206.853c0,9.495-7.698,17.193-17.193,17.193
	H20.148c-9.495,0-17.193-7.698-17.193-17.193V19.342C2.955,9.847,10.653,2.149,20.148,2.149z"/>
<path fill="#B6C1D1" d="M61.25,221.091c5.341,0,9.671,4.33,9.671,9.671c0,5.341-4.33,9.671-9.671,9.671s-9.671-4.33-9.671-9.671
	C51.579,225.421,55.909,221.091,61.25,221.091z"/>
<path fill="#C9D3E2" d="M61.143,222.327c4.599,0,8.328,3.728,8.328,8.328c0,4.599-3.728,8.328-8.328,8.328s-8.328-3.728-8.328-8.328
	C52.815,226.055,56.543,222.327,61.143,222.327z"/>
<path fill="#363C45" d="M7.253,27.133h107.725v189.929H7.253V27.133z"/>
<path fill="#4C5562" d="M8.328,28.207h105.576v187.511H8.328V28.207z"/>
<path fill="#B9C4D4" d="M44.594,13.432c1.335,0,2.418,1.082,2.418,2.418s-1.082,2.418-2.418,2.418c-1.335,0-2.418-1.082-2.418-2.418
	S43.259,13.432,44.594,13.432z"/>
<path fill="#C9D3E2" d="M44.594,14.507c0.742,0,1.343,0.601,1.343,1.343s-0.601,1.343-1.343,1.343c-0.742,0-1.343-0.601-1.343-1.343
	S43.853,14.507,44.594,14.507z"/>
<path fill="#B9C4D4" d="M61.25,7.253c0.742,0,1.343,0.601,1.343,1.343c0,0.742-0.601,1.343-1.343,1.343s-1.343-0.601-1.343-1.343
	C59.907,7.855,60.508,7.253,61.25,7.253z"/>
<path fill="#B9C4D4" d="M53.594,13.969h15.312c0.964,0,1.746,0.782,1.746,1.746v0.269c0,0.964-0.782,1.746-1.746,1.746H53.594
	c-0.964,0-1.746-0.782-1.746-1.746v-0.269C51.848,14.751,52.629,13.969,53.594,13.969z"/>
<path fill="#C9D3E2" d="M53.594,15.044h15.312c0.371,0,0.672,0.301,0.672,0.672v0.269c0,0.371-0.301,0.672-0.672,0.672H53.594
	c-0.371,0-0.672-0.301-0.672-0.672v-0.269C52.922,15.344,53.223,15.044,53.594,15.044z"/>
</svg>
