<?xml version="1.0" encoding="utf-8"?>
<!-- Generator: Adobe Illustrator 17.0.0, SVG Export Plug-In . SVG Version: 6.00 Build 0)  -->
<!DOCTYPE svg PUBLIC "-//W3C//DTD SVG 1.1//EN" "http://www.w3.org/Graphics/SVG/1.1/DTD/svg11.dtd">
<svg version="1.1" id="图层_1" xmlns="http://www.w3.org/2000/svg" xmlns:xlink="http://www.w3.org/1999/xlink" x="0px" y="0px"
	 width="64px" height="64px" viewBox="0 0 64 64" enable-background="new 0 0 64 64" xml:space="preserve">
<path fill="#77B3D4" d="M32,0c17.673,0,32,14.327,32,32S49.673,64,32,64S0,49.673,0,32S14.327,0,32,0z"/>
<path opacity="0.2" fill="#231F20" d="M49.529,33.855L35.259,15.71c-1.793-2.28-4.726-2.28-6.519,0L14.471,33.855
	C12.679,36.135,13.439,38,16.161,38H24v12c0,2.209,1.791,4,4,4h8c2.209,0,4-1.791,4-4V38h7.839
	C50.561,38,51.321,36.135,49.529,33.855z"/>
<path fill="#FFFFFF" d="M40,48c0,2.209-1.791,4-4,4h-8c-2.209,0-4-1.791-4-4V24c0-2.209,1.791-4,4-4h8c2.209,0,4,1.791,4,4V48z
	 M16.161,36c-2.722,0-3.483-1.865-1.69-4.145l14.27-18.145c1.793-2.28,4.726-2.28,6.519,0l14.269,18.146
	c1.793,2.28,1.032,4.145-1.69,4.145L16.161,36L16.161,36z"/>
</svg>
