<?xml version="1.0" encoding="utf-8"?>
<!-- Generator: Adobe Illustrator 17.0.0, SVG Export Plug-In . SVG Version: 6.00 Build 0)  -->
<!DOCTYPE svg PUBLIC "-//W3C//DTD SVG 1.1//EN" "http://www.w3.org/Graphics/SVG/1.1/DTD/svg11.dtd">
<svg version="1.1" id="图层_1" xmlns="http://www.w3.org/2000/svg" xmlns:xlink="http://www.w3.org/1999/xlink" x="0px" y="0px"
	 width="54.856px" height="64px" viewBox="0 0 54.856 64" enable-background="new 0 0 54.856 64" xml:space="preserve">
<g>
	<path fill="#08A1EF" d="M53.517,24.196L30.66,1.339c-1.785-1.785-4.679-1.785-6.464,0L1.339,24.196
		c-1.785,1.785-1.785,4.679,0,6.464s4.679,1.785,6.464,0l15.054-15.054v43.822c0,2.526,2.046,4.571,4.571,4.571
		s4.571-2.046,4.571-4.571V15.607L47.053,30.66C47.945,31.552,49.115,32,50.285,32c1.17,0,2.341-0.446,3.232-1.339
		C55.302,28.875,55.302,25.981,53.517,24.196z"/>
</g>
</svg>
