<?xml version="1.0" encoding="utf-8"?><!DOCTYPE svg PUBLIC "-//W3C//DTD SVG 1.1//EN" "http://www.w3.org/Graphics/SVG/1.1/DTD/svg11.dtd"><svg version="1.1" baseProfile="full" xmlns="http://www.w3.org/2000/svg" xmlns:xlink="http://www.w3.org/1999/xlink" xmlns:ev="http://www.w3.org/2001/xml-events"   height="64px"   width="60px" ><path fill="rgb( 201, 168, 13 )" d="M6,22 C6,22 54,22 54,22 C57.314,22 60,24.686 60,28 C60,28 60,58 60,58 C60,61.314 57.314,64 54,64 C54,64 6,64 6,64 C2.686,64 0,61.314 0,58 C0,58 0,28 0,28 C0,24.686 2.686,22 6,22 Z "/><path fill="rgb( 217, 188, 54 )" d="M5.121,22 C13.689,22 30,22 30,22 C30,22 30,64 30,64 C30,64 14.726,64 5.975,64 C0.168,64 0,58.764 0,58.764 C0,58.764 0,26.728 0,26.728 C0,26.728 0.066,22 5.121,22 Z "/><path fill="rgb( 138, 114, 0 )" d="M33,46.317 C33,46.317 33,53 33,53 C33,53 27,53 27,53 C27,53 27,46.317 27,46.317 C24.637,45.193 23,42.791 23,40 C23,36.134 26.134,33 30,33 C33.866,33 37,36.134 37,40 C37,42.791 35.363,45.193 33,46.317 Z "/><path fill="rgb( 198, 198, 198 )" d="M30,8 C22.268,8 16,14.268 16,22 C16,22 8,22 8,22 C8,9.85 17.85,0 30,0 C42.15,0 52,9.85 52,22 C52,22 44,22 44,22 C44,14.268 37.732,8 30,8 Z "/></svg>