<?xml version="1.0" encoding="utf-8"?>
<!-- Generator: Adobe Illustrator 17.0.0, SVG Export Plug-In . SVG Version: 6.00 Build 0)  -->
<!DOCTYPE svg PUBLIC "-//W3C//DTD SVG 1.1//EN" "http://www.w3.org/Graphics/SVG/1.1/DTD/svg11.dtd">
<svg version="1.1" id="图层_1" xmlns="http://www.w3.org/2000/svg" xmlns:xlink="http://www.w3.org/1999/xlink" x="0px" y="0px"
	 width="64px" height="64px" viewBox="0 0 64 64" enable-background="new 0 0 64 64" xml:space="preserve">
<path fill="#4F5D73" d="M32,0c17.673,0,32,14.327,32,32S49.673,64,32,64S0,49.673,0,32S14.327,0,32,0z"/>
<path opacity="0.2" fill="#231F20" d="M55.949,32.5C55.204,20.441,45.559,10.796,33.5,10.051V10h-3v0.051
	C18.441,10.796,8.796,20.441,8.051,32.5H8v3h0.051C8.796,47.559,18.441,57.204,30.5,57.949V58h3v-0.051
	c12.059-0.744,21.704-10.39,22.449-22.449H56v-3H55.949z M45.471,32.5c-0.097-2.784-0.458-5.441-1.044-7.888
	c1.835-0.595,3.55-1.315,5.091-2.165c1.935,2.924,3.143,6.358,3.406,10.053H45.471z M38.931,18.5c0.688,1.222,1.27,2.583,1.767,4.03
	c-2.271,0.519-4.693,0.833-7.198,0.924V13.267C35.447,13.902,37.367,15.719,38.931,18.5z M30.5,13.267v10.187
	c-2.505-0.091-4.928-0.405-7.198-0.924c0.497-1.448,1.08-2.808,1.767-4.03C26.633,15.719,28.553,13.902,30.5,13.267z M30.5,26.453
	V32.5h-8.96c0.091-2.477,0.399-4.867,0.924-7.091C25.005,26.003,27.711,26.358,30.5,26.453z M30.5,35.5v6.196
	c-2.776,0.094-5.469,0.445-8,1.034c-0.544-2.263-0.867-4.7-0.96-7.23H30.5z M30.5,44.695v10.038
	c-1.947-0.635-3.867-2.452-5.431-5.233c-0.666-1.184-1.234-2.497-1.721-3.894C25.605,45.094,28.012,44.784,30.5,44.695z
	 M33.5,54.733V44.696c2.488,0.091,4.894,0.402,7.151,0.915c-0.487,1.394-1.055,2.706-1.72,3.889
	C37.367,52.281,35.447,54.098,33.5,54.733z M33.5,41.697V35.5h8.96c-0.093,2.531-0.417,4.969-0.961,7.234
	C38.969,42.145,36.276,41.792,33.5,41.697z M33.5,32.5v-6.047c2.789-0.095,5.495-0.45,8.036-1.044
	c0.524,2.224,0.832,4.614,0.924,7.091H33.5z M47.651,20.047c-1.239,0.651-2.596,1.215-4.046,1.691
	c-0.944-2.818-2.204-5.26-3.692-7.178C42.9,15.78,45.534,17.675,47.651,20.047z M24.087,14.56c-1.488,1.918-2.748,4.36-3.692,7.178
	c-1.45-0.476-2.807-1.04-4.046-1.691C18.466,17.675,21.1,15.78,24.087,14.56z M14.481,22.448c1.541,0.85,3.257,1.569,5.091,2.164
	c-0.586,2.447-0.947,5.104-1.044,7.888h-7.453C11.339,28.806,12.547,25.372,14.481,22.448z M18.529,35.5
	c0.099,2.836,0.473,5.539,1.078,8.024c-1.821,0.587-3.528,1.295-5.062,2.133c-1.974-2.946-3.203-6.419-3.469-10.157H18.529z
	 M16.44,48.053c1.227-0.637,2.567-1.191,3.998-1.658c0.939,2.762,2.184,5.156,3.649,7.044C21.142,52.237,18.542,50.378,16.44,48.053
	z M39.913,53.44c1.464-1.887,2.708-4.279,3.647-7.038c1.429,0.467,2.767,1.022,3.993,1.659
	C45.452,50.382,42.855,52.238,39.913,53.44z M49.449,45.666c-1.532-0.839-3.238-1.548-5.058-2.136
	c0.606-2.487,0.981-5.191,1.08-8.03h7.453C52.658,39.241,51.426,42.719,49.449,45.666z"/>
<path fill="#FFFFFF" d="M55.949,30.5C55.204,18.441,45.559,8.796,33.5,8.051V8h-3v0.051C18.441,8.796,8.796,18.441,8.051,30.5H8v3
	h0.051C8.796,45.559,18.441,55.204,30.5,55.949V56h3v-0.051c12.059-0.744,21.704-10.39,22.449-22.449H56v-3H55.949z M45.471,30.5
	c-0.097-2.784-0.458-5.44-1.043-7.887c1.835-0.595,3.55-1.315,5.091-2.164c1.934,2.923,3.142,6.357,3.405,10.052H45.471z
	 M38.931,16.5c0.688,1.222,1.271,2.583,1.767,4.031c-2.271,0.519-4.693,0.833-7.198,0.924V11.267
	C35.447,11.902,37.367,13.719,38.931,16.5z M30.5,11.267v10.187c-2.505-0.091-4.928-0.405-7.198-0.923
	c0.497-1.448,1.08-2.808,1.768-4.031C26.633,13.719,28.553,11.902,30.5,11.267z M30.5,24.453V30.5h-8.96
	c0.091-2.477,0.399-4.867,0.923-7.091C25.004,24.003,27.711,24.358,30.5,24.453z M30.5,33.5v6.195c-2.776,0.094-5.469,0.445-8,1.034
	c-0.544-2.263-0.867-4.7-0.96-7.229H30.5z M30.5,42.694v10.038c-1.947-0.635-3.867-2.452-5.431-5.233
	c-0.666-1.184-1.234-2.498-1.722-3.894C25.605,43.094,28.012,42.784,30.5,42.694z M33.5,52.733V42.695
	c2.488,0.091,4.894,0.402,7.151,0.915c-0.487,1.395-1.055,2.707-1.72,3.89C37.367,50.281,35.447,52.098,33.5,52.733z M33.5,39.696
	V33.5h8.96c-0.093,2.531-0.416,4.969-0.961,7.234C38.969,40.144,36.276,39.791,33.5,39.696z M33.5,30.5v-6.047
	c2.789-0.095,5.496-0.45,8.036-1.044c0.524,2.224,0.832,4.614,0.923,7.091H33.5z M47.651,18.047
	c-1.239,0.651-2.596,1.215-4.046,1.691c-0.944-2.818-2.204-5.26-3.692-7.178C42.9,13.781,45.534,15.676,47.651,18.047z
	 M24.087,12.56c-1.488,1.918-2.748,4.36-3.692,7.178c-1.45-0.476-2.807-1.04-4.046-1.69C18.466,15.676,21.1,13.781,24.087,12.56z
	 M14.481,20.449c1.541,0.85,3.257,1.569,5.091,2.164c-0.586,2.447-0.947,5.104-1.044,7.888h-7.453
	C11.339,26.806,12.547,23.372,14.481,20.449z M18.529,33.5c0.099,2.836,0.473,5.538,1.078,8.023
	c-1.821,0.587-3.528,1.295-5.062,2.133c-1.974-2.945-3.203-6.419-3.469-10.157H18.529z M16.441,46.053
	c1.227-0.637,2.567-1.191,3.998-1.658c0.939,2.762,2.184,5.156,3.649,7.044C21.142,50.237,18.542,48.377,16.441,46.053z
	 M39.913,51.44c1.464-1.887,2.708-4.279,3.647-7.039c1.429,0.467,2.767,1.022,3.993,1.659C45.453,48.381,42.855,50.238,39.913,51.44
	z M49.45,43.665c-1.532-0.839-3.238-1.548-5.058-2.136c0.606-2.487,0.981-5.191,1.079-8.029h7.453
	C52.658,37.241,51.426,40.718,49.45,43.665z"/>
</svg>
