<?xml version="1.0" encoding="utf-8"?>
<!-- Generator: Adobe Illustrator 17.0.0, SVG Export Plug-In . SVG Version: 6.00 Build 0)  -->
<!DOCTYPE svg PUBLIC "-//W3C//DTD SVG 1.1//EN" "http://www.w3.org/Graphics/SVG/1.1/DTD/svg11.dtd">
<svg version="1.1" id="Livello_1" xmlns="http://www.w3.org/2000/svg" xmlns:xlink="http://www.w3.org/1999/xlink" x="0px" y="0px"
	 width="49.694px" height="60.118px" viewBox="0 0 49.694 60.118" enable-background="new 0 0 49.694 60.118" xml:space="preserve">
<path fill="#0A0A0A" d="M48.497,54.486h0.656v5.538l-4.004-4.191v3.985h-0.675v-5.595l4.022,4.21v-3.947H48.497z M29.674,54.486
	v3.387c0,0.598-0.168,1.084-0.504,1.459c-0.356,0.412-0.842,0.599-1.46,0.599c-0.58,0-1.067-0.187-1.423-0.599
	c-0.355-0.375-0.523-0.861-0.523-1.459v-3.387h0.674v3.161c0,1.104,0.411,1.666,1.272,1.666c0.88,0,1.31-0.562,1.31-1.666v-3.161
	H29.674L29.674,54.486z M31.733,54.486h3.199v0.617H33.66v4.715h-0.637v-4.715h-1.29L31.733,54.486L31.733,54.486z M30.572,54.486
	h0.674v5.332h-0.674V54.486L30.572,54.486z M24.679,54.486h0.729l-2.32,5.632l-2.319-5.632h0.729l1.59,3.947L24.679,54.486
	L24.679,54.486z M43.24,57.161c0,0.6-0.206,1.104-0.636,1.535c-0.394,0.411-0.898,0.617-1.479,0.617
	c-0.58,0-1.085-0.206-1.517-0.617c-0.43-0.431-0.636-0.935-0.636-1.535c0-0.598,0.188-1.104,0.599-1.515
	c0.412-0.431,0.936-0.637,1.554-0.637c0.617,0,1.123,0.206,1.516,0.637C43.034,56.058,43.24,56.563,43.24,57.161L43.24,57.161z
	 M43.091,55.197c-0.562-0.543-1.217-0.823-1.965-0.823c-0.768,0-1.423,0.28-1.983,0.823c-0.543,0.542-0.823,1.197-0.823,1.964
	c0,0.786,0.28,1.44,0.823,1.983c0.543,0.524,1.197,0.786,1.983,0.786c0.768,0,1.44-0.262,1.965-0.786
	c0.542-0.543,0.823-1.197,0.823-1.983C43.914,56.395,43.633,55.739,43.091,55.197L43.091,55.197z M38.169,54.486v0.617h-1.253v4.715
	h-0.674v-4.715H34.97v-0.617H38.169L38.169,54.486z M7.221,55.646c0.394,0.411,0.58,0.917,0.58,1.515c0,0.6-0.206,1.104-0.617,1.535
	c-0.411,0.411-0.917,0.617-1.496,0.617c-0.58,0-1.086-0.206-1.516-0.617c-0.393-0.431-0.618-0.935-0.618-1.535
	c0-0.598,0.206-1.104,0.599-1.515c0.412-0.431,0.917-0.637,1.535-0.637C6.304,55.01,6.829,55.216,7.221,55.646L7.221,55.646z
	 M7.652,55.197c-0.562-0.543-1.217-0.823-1.964-0.823c-0.768,0-1.441,0.28-1.965,0.823c-0.561,0.542-0.842,1.197-0.842,1.964
	c0,0.786,0.281,1.44,0.842,1.983c0.524,0.524,1.179,0.786,1.965,0.786s1.44-0.262,1.964-0.786c0.561-0.543,0.823-1.197,0.823-1.983
	C8.475,56.395,8.213,55.739,7.652,55.197L7.652,55.197z M9.69,57.647c0,1.104,0.431,1.666,1.292,1.666
	c0.842,0,1.292-0.562,1.292-1.666v-3.161h0.655v3.387c0,0.598-0.168,1.084-0.524,1.459c-0.355,0.412-0.842,0.599-1.422,0.599
	c-0.598,0-1.067-0.187-1.421-0.599c-0.375-0.375-0.543-0.861-0.543-1.459v-3.387H9.69V57.647L9.69,57.647z M1.196,54.486v4.733
	h1.629v0.599H0.542v-5.332H1.196L1.196,54.486z M17.231,56.675c0.899,0.356,1.329,0.88,1.329,1.591c0,0.486-0.168,0.879-0.506,1.197
	c-0.317,0.318-0.711,0.468-1.179,0.468c-0.43,0-0.805-0.131-1.122-0.431c-0.3-0.28-0.487-0.635-0.543-1.066l0.674-0.149
	c0,0.3,0.094,0.542,0.299,0.749c0.206,0.187,0.43,0.28,0.729,0.28c0.281,0,0.506-0.112,0.712-0.317
	c0.168-0.188,0.262-0.432,0.262-0.73c0-0.412-0.3-0.749-0.917-1.011l-0.374-0.131c-0.749-0.355-1.142-0.805-1.142-1.366
	c0-0.412,0.169-0.767,0.468-1.01c0.317-0.262,0.674-0.374,1.104-0.374c0.618,0,1.067,0.28,1.367,0.823l-0.524,0.299
	c-0.206-0.318-0.486-0.486-0.861-0.486c-0.225,0-0.449,0.057-0.617,0.188c-0.187,0.148-0.28,0.336-0.28,0.56
	c0,0.318,0.243,0.562,0.767,0.749L17.231,56.675L17.231,56.675z M13.826,54.486H14.5v5.332h-0.674V54.486L13.826,54.486z
	 M40.102,6.28L27.195,36.739l-3.56-7.812l6.578-17.9C30.707,9.642,32.438,9,35.356,9l1.037-2.719H21.064L20.075,9
	c2.176,0,3.065,0.643,2.72,2.027l-3.264,9.098L13.104,6.28c-1.187-1.483-0.594-2.226,1.73-2.226V0.841H0v3.213
	c2.769,0,4.5,0.742,5.241,2.226L16.12,29.421L11.027,43.02c-0.099,1.83-2.967,2.72-8.505,2.72l-1.038,2.72H43.81l5.885-12.511H46.63
	c-2.869,6.478-6.181,9.792-9.89,9.792H17.307l2.867-7.665l2.473,4.945h5.539L43.81,6.28c0.742-2.226,2.671-3.412,5.687-3.412V0
	H36.739v2.869C40.596,2.869,41.684,4.055,40.102,6.28L40.102,6.28z"/>
</svg>
