<?xml version="1.0" encoding="iso-8859-1"?>
<!-- Generator: Adobe Illustrator 17.0.0, SVG Export Plug-In . SVG Version: 6.00 Build 0)  -->
<!DOCTYPE svg PUBLIC "-//W3C//DTD SVG 1.1//EN" "http://www.w3.org/Graphics/SVG/1.1/DTD/svg11.dtd">
<svg version="1.1" id="Objects1" xmlns="http://www.w3.org/2000/svg" xmlns:xlink="http://www.w3.org/1999/xlink" x="0px" y="0px"
	 width="144.323px" height="123.163px" viewBox="0 0 144.323 123.163" style="enable-background:new 0 0 144.323 123.163;"
	 xml:space="preserve">
<g>
	<path style="fill:#E2AA15;" d="M122.224,35.803l-8.987-0.312c0.072,0.079,0.139,0.162,0.215,0.237
		c-7.104,3.713-20.313,11.901-20.392,21.532c-0.042,5.014,1.517,9.682,4.21,13.546l40.515,0.382l0.001-0.002
		c2.776-3.826,4.419-8.483,4.461-13.516C142.327,48.041,129.265,39.636,122.224,35.803z"/>
	<path style="fill:#DA6426;" d="M97.27,70.805c0.01,0.013,0.018,0.027,0.028,0.04l-0.005,0.252l0.001,0.078l-0.058,6.913
		l40.49,0.298l0.06-6.872l-0.001-0.078v-0.249L97.27,70.805z M106.595,74.61c-0.015,1.801-1.486,3.247-3.284,3.232
		c-1.798-0.015-3.246-1.484-3.231-3.285c0.016-1.798,1.488-3.246,3.287-3.231C105.164,71.341,106.611,72.813,106.595,74.61z
		 M115.968,74.687c-0.015,1.802-1.483,3.248-3.282,3.231c-1.797-0.015-3.244-1.483-3.23-3.284c0.015-1.798,1.486-3.245,3.285-3.229
		C114.54,71.419,115.983,72.889,115.968,74.687z M125.342,74.766c-0.016,1.801-1.483,3.246-3.282,3.231
		c-1.799-0.016-3.245-1.484-3.229-3.287c0.015-1.796,1.483-3.244,3.282-3.229C123.91,71.499,125.357,72.969,125.342,74.766z
		 M134.716,74.845c-0.014,1.8-1.488,3.246-3.283,3.232c-1.798-0.017-3.246-1.484-3.232-3.287c0.015-1.797,1.486-3.244,3.286-3.227
		C133.283,71.576,134.73,73.048,134.716,74.845z"/>
	<polygon style="fill:#E2AA15;" points="97.104,93.777 137.594,94.114 137.726,78.387 97.236,78.089 	"/>
	<path style="fill:#DA6426;" d="M118.041,11.126c-1.476-0.013-2.688,1.219-2.699,2.747c-0.013,1.267,0.808,2.344,1.937,2.675
		c-1.877,0.338-3.313,2.019-3.33,4.055c-0.016,1.831,1.12,3.398,2.711,3.958c-2.905,0.582-5.114,3.217-5.14,6.397
		c-0.015,1.755,0.645,3.346,1.718,4.533l8.987,0.312c-0.001-0.001-0.003-0.001-0.004-0.002c1.224-1.187,1.996-2.865,2.013-4.737
		c0.025-3.178-2.134-5.849-5.03-6.481c1.597-0.536,2.759-2.081,2.775-3.913c0.016-2.034-1.389-3.74-3.256-4.11
		c1.127-0.312,1.962-1.375,1.973-2.642C120.707,12.39,119.522,11.138,118.041,11.126z"/>
	<path style="fill:#E2AA15;" d="M144.151,95.094l-0.226-0.003V94.99l-71.829-0.6l-0.045-0.001l-0.087,8.405
		c0.021,0.037,0.043,0.071,0.064,0.107c0.063,0.115,0.136,0.221,0.197,0.344c0.847-1.655,2.2-2.779,2.2-2.779
		s2.767,2.373,2.771,5.285l0.028,0l-0.193,17.41h9.592l0.193-17.331l0.031,0.001c0.048-2.912,2.857-5.238,2.857-5.238
		s2.768,2.371,2.769,5.285l0.027,0.001l-0.035,17.282h11.763l0.043-17.184l0.029,0.001c0.05-2.914,2.86-5.239,2.86-5.239
		s2.767,2.374,2.771,5.286l0.029-0.002l0.067,17.139h11.747l-0.043-17.039l0.024-0.001c0.053-2.911,2.86-5.236,2.86-5.236
		s2.767,2.372,2.773,5.286h0.023l-0.19,16.99h17.1L144.151,95.094z"/>
	<path style="fill:#F9BB14;" d="M67.188,105.668l0.026-0.001c0.051-2.91,2.858-5.236,2.858-5.236s0.873,0.759,1.641,1.928
		c0.088,0.138,0.17,0.288,0.252,0.436l0.087-8.405l-0.272-0.003L0.443,93.791L0.43,95.614L0,123.163h16.587l0.41-17.914l0.027,0
		c0.053-2.913,2.859-5.236,2.859-5.236s2.77,2.372,2.772,5.283l0.027,0.002l-0.68,17.865h12.077l0.374-17.768l0.025,0
		c0.053-2.912,2.861-5.238,2.861-5.238s2.771,2.373,2.775,5.285l0.028-0.002l-0.326,17.722h11.953l0.135-17.621l0.03-0.001
		c0.05-2.913,2.861-5.239,2.861-5.239s2.768,2.374,2.77,5.287l0.029-0.002l-0.151,17.575h9.617L67.188,105.668z"/>
	<path style="fill:#694031;" d="M96.543,74.552c0.022-2.661-3.71-4.989-5.721-6.043c0.348-0.33,0.569-0.791,0.574-1.312
		c0.007-0.876-0.609-1.616-1.435-1.794c0.454-0.145,0.783-0.573,0.788-1.08c0.003-0.56-0.396-1.035-0.926-1.137
		c0.319-0.087,0.557-0.377,0.56-0.728c0.004-0.425-0.336-0.769-0.758-0.772c-0.422-0.003-0.77,0.333-0.774,0.759
		c-0.002,0.349,0.235,0.642,0.553,0.738c-0.535,0.094-0.941,0.558-0.947,1.12c-0.001,0.506,0.318,0.941,0.771,1.093
		c-0.829,0.163-1.454,0.892-1.462,1.771c-0.005,0.521,0.206,0.985,0.548,1.322c-2.024,1.022-5.804,3.285-5.825,5.945
		c-0.011,1.393,0.439,2.691,1.211,3.76l-0.117,15.459l11.551,0.098l0.137-15.461C96.065,77.234,96.529,75.944,96.543,74.552z
		 M86.353,79.822c-0.004,0.514-0.423,0.933-0.941,0.927c-0.508-0.006-0.922-0.428-0.919-0.942c0.004-0.513,0.425-0.927,0.935-0.923
		C85.946,78.888,86.357,79.31,86.353,79.822z M89.034,79.845c-0.003,0.514-0.424,0.932-0.939,0.927
		c-0.512-0.004-0.926-0.428-0.923-0.942c0.004-0.513,0.426-0.927,0.939-0.924C88.627,78.912,89.038,79.332,89.034,79.845z
		 M91.71,79.867c-0.004,0.516-0.426,0.933-0.937,0.928c-0.516-0.005-0.927-0.427-0.921-0.943c0.004-0.512,0.421-0.926,0.937-0.921
		C91.298,78.934,91.714,79.354,91.71,79.867z M94.39,79.89c-0.004,0.515-0.425,0.931-0.939,0.926
		c-0.513-0.004-0.927-0.428-0.923-0.942c0.004-0.513,0.426-0.928,0.938-0.922C93.982,78.956,94.394,79.378,94.39,79.89z"/>
	<path style="fill:#F26E25;" d="M27.52,10.357c-1.479-0.014-2.684,1.216-2.696,2.745c-0.011,1.267,0.801,2.34,1.931,2.669
		c-1.878,0.337-3.313,2.021-3.329,4.052c-0.016,1.831,1.119,3.388,2.711,3.953c-2.912,0.583-5.115,3.214-5.14,6.387
		c-0.017,1.868,0.726,3.56,1.932,4.758l8.87,0.133c-0.033-0.018-0.066-0.037-0.099-0.054c1.224-1.179,1.996-2.86,2.012-4.73
		c0.027-3.173-2.132-5.839-5.029-6.473c1.597-0.539,2.759-2.076,2.775-3.908c0.018-2.03-1.393-3.738-3.257-4.106
		c1.128-0.311,1.963-1.371,1.974-2.637C30.185,11.621,29.002,10.368,27.52,10.357z"/>
	<path style="fill:#F9BB14;" d="M31.797,35.054l-8.87-0.133c0.002,0.002,0.004,0.004,0.005,0.006
		c-7.107,3.706-20.311,11.88-20.39,21.502c-0.04,4.765,1.38,9.205,3.837,12.951l41.015,0.755c2.694-3.785,4.291-8.354,4.332-13.296
		C51.808,47.261,38.86,38.902,31.797,35.054z"/>
	<path style="fill:#F26E25;" d="M6.379,69.38c0.134,0.204,0.257,0.414,0.398,0.613L6.773,70.54l-0.057,6.874l40.483,0.517
		l0.059-7.053l0.004-0.545c0.046-0.064,0.087-0.132,0.132-0.196L6.379,69.38z M16.073,73.84c-0.017,1.801-1.483,3.249-3.283,3.233
		c-1.796-0.017-3.243-1.487-3.228-3.287c0.016-1.743,1.413-3.132,3.139-3.197l0.288,0.002C14.717,70.685,16.087,72.1,16.073,73.84z
		 M25.445,73.92c-0.015,1.799-1.483,3.248-3.283,3.231c-1.799-0.014-3.245-1.485-3.229-3.284c0.015-1.744,1.414-3.135,3.14-3.199
		l0.288,0.001C24.088,70.765,25.459,72.177,25.445,73.92z M34.82,73.997c-0.017,1.801-1.485,3.248-3.284,3.233
		c-1.799-0.016-3.242-1.486-3.228-3.286c0.015-1.741,1.41-3.133,3.139-3.199l0.287,0.003C33.46,70.843,34.836,72.255,34.82,73.997z
		 M44.196,74.076c-0.016,1.8-1.488,3.246-3.288,3.232c-1.794-0.016-3.242-1.487-3.227-3.287c0.013-1.742,1.409-3.133,3.139-3.198
		l0.289,0.003C42.836,70.921,44.21,72.334,44.196,74.076z"/>
	<polygon style="fill:#F9BB14;" points="6.585,93.011 47.07,93.349 47.199,77.93 6.716,77.413 	"/>
	<path style="fill:#F26E25;" d="M72.886,0.002C72.878,0.001,72.871,0,72.864,0c-0.105,0-0.198,0.03-0.296,0.053
		c-0.548,0.131-0.968,0.602-0.972,1.19c-0.004,0.579,0.384,1.063,0.909,1.218c-0.881,0.152-1.556,0.911-1.563,1.837
		c-0.007,0.836,0.526,1.542,1.277,1.799c-1.365,0.268-2.401,1.459-2.413,2.905c-0.009,0.854,0.345,1.618,0.906,2.17
		c-0.009,0.005-0.02,0.01-0.029,0.015l2.22,0.057L73.016,0.03C72.971,0.025,72.932,0.003,72.886,0.002z"/>
	<path style="fill:#F9BB14;" d="M70.682,11.188c-3.338,1.69-9.5,5.396-9.537,9.761c-0.019,2.282,0.714,4.411,1.991,6.173
		l-0.521,66.358l9.171,0.075l0.273,0.003l0.843-82.312L70.682,11.188z M67.493,29.795c-0.006,0.842-0.698,1.522-1.54,1.516
		c-0.846-0.007-1.524-0.698-1.518-1.541c0.007-0.845,0.699-1.523,1.545-1.518C66.818,28.26,67.501,28.949,67.493,29.795z
		 M71.893,29.833c-0.006,0.841-0.699,1.522-1.545,1.513c-0.842-0.005-1.522-0.696-1.513-1.54c0.006-0.845,0.696-1.525,1.54-1.517
		C71.22,28.296,71.899,28.986,71.893,29.833z"/>
	<path style="fill:#DA6426;" d="M74.112,1.264c0.004-0.643-0.481-1.151-1.097-1.234l-0.114,11.214l2.101,0.054
		c-0.056-0.03-0.119-0.064-0.174-0.094c0.575-0.542,0.937-1.3,0.942-2.153c0.012-1.445-1.004-2.654-2.358-2.944
		c0.752-0.245,1.294-0.943,1.301-1.778c0.005-0.925-0.653-1.695-1.53-1.863C73.711,2.322,74.107,1.843,74.112,1.264z"/>
	<path style="fill:#E2AA15;" d="M84.232,21.14c0.037-4.303-5.889-8.063-9.228-9.841l-2.101-0.054l-0.843,82.312h0.047l9.444,0.079
		l0.591-66.356C83.44,25.54,84.211,23.425,84.232,21.14z M76.293,29.868c-0.009,0.844-0.696,1.524-1.542,1.517
		c-0.845-0.009-1.525-0.7-1.518-1.542c0.006-0.846,0.699-1.525,1.541-1.516C75.621,28.333,76.298,29.022,76.293,29.868z
		 M80.69,29.906c-0.007,0.843-0.695,1.522-1.54,1.516c-0.848-0.006-1.524-0.699-1.518-1.542c0.005-0.845,0.697-1.525,1.544-1.517
		C80.021,28.369,80.696,29.062,80.69,29.906z"/>
	<path style="fill:#774939;" d="M55.662,63.003c0.004-0.422-0.333-0.766-0.761-0.769c-0.42-0.004-0.766,0.332-0.771,0.758
		c-0.002,0.352,0.23,0.646,0.553,0.741c-0.535,0.088-0.944,0.555-0.949,1.119c-0.002,0.506,0.32,0.939,0.771,1.093
		c-0.83,0.168-1.459,0.892-1.466,1.767c-0.004,0.519,0.208,0.986,0.552,1.321c-2.024,1.022-5.801,3.289-5.822,5.953
		c-0.013,1.39,0.437,2.683,1.209,3.758l-0.114,14.621L60.42,93.46l0.128-14.618c0.795-1.063,1.26-2.348,1.272-3.74
		c0.022-2.664-3.71-4.992-5.72-6.047c0.349-0.329,0.569-0.792,0.575-1.313c0.004-0.875-0.611-1.609-1.443-1.792
		c0.459-0.145,0.791-0.572,0.794-1.082c0.005-0.562-0.395-1.034-0.928-1.132C55.419,63.649,55.659,63.357,55.662,63.003z
		 M51.631,80.374c-0.005,0.51-0.422,0.921-0.935,0.917c-0.518-0.006-0.927-0.422-0.924-0.934c0.004-0.517,0.421-0.928,0.938-0.923
		C51.224,79.438,51.635,79.856,51.631,80.374z M54.31,80.396c-0.003,0.51-0.423,0.921-0.94,0.917
		c-0.511-0.003-0.924-0.423-0.92-0.933c0.004-0.516,0.424-0.927,0.936-0.923C53.901,79.461,54.314,79.878,54.31,80.396z
		 M56.986,80.418c-0.003,0.512-0.423,0.922-0.935,0.919c-0.513-0.005-0.93-0.422-0.925-0.934c0.005-0.519,0.429-0.929,0.941-0.924
		C56.579,79.482,56.99,79.901,56.986,80.418z M59.667,80.44c-0.006,0.511-0.424,0.922-0.938,0.917
		c-0.512-0.004-0.926-0.422-0.923-0.932c0.004-0.517,0.425-0.929,0.94-0.925C59.259,79.505,59.671,79.923,59.667,80.44z"/>
</g>
</svg>
