<?xml version="1.0" encoding="utf-8"?>
<!-- Generator: Adobe Illustrator 17.0.0, SVG Export Plug-In . SVG Version: 6.00 Build 0)  -->
<!DOCTYPE svg PUBLIC "-//W3C//DTD SVG 1.1//EN" "http://www.w3.org/Graphics/SVG/1.1/DTD/svg11.dtd">
<svg version="1.1" id="图层_1" xmlns="http://www.w3.org/2000/svg" xmlns:xlink="http://www.w3.org/1999/xlink" x="0px" y="0px"
	 width="194.619px" height="318.701px" viewBox="0 0 194.619 318.701" enable-background="new 0 0 194.619 318.701"
	 xml:space="preserve">
<g id="画板的参考线">
</g>
<g id="图层_1_1_">
	<path fill="#EDA921" d="M191.772,0.235l0.397-0.1h0.397l0.696,0.267l0.563,0.434l0.463,0.634l0.264,0.668v0.4l-0.099,0.401
		l-0.132,0.4l-0.198,0.234l-0.297,0.301l-0.464,0.3l-1.753,0.987l-1.753,0.987l-0.707,0.453l-0.707,0.454l-1.478,1.209l-1.157,1.144
		l-1.053,1.241l-0.638,1.005l-0.515,0.993l-0.304,0.823l-0.36,1.012l-0.402,1.34l-0.828-0.834l-0.298-0.301l-0.43,0.267
		l-0.441,0.219l-0.518,0.049l-0.365-0.067l-0.099-0.368l0.099-0.6l0.165-0.367l0.298-0.434l-0.298-0.301l-0.828-0.801l1.589-0.434
		l1.477-0.586l1.157-0.562l1.092-0.691l1.157-0.992l0.985-1.102l1.349-1.49l0.504-0.713l0.461-0.713l0.478-0.916l0.435-0.916
		l0.871-1.833l0.298-0.434l0.331-0.333l0.231-0.167L191.772,0.235z M6.918,0.802L6.752,1.436L6.719,2.237l0.232,1.101l0.53,1.135
		l0.728,1.134l0.96,1.202L9.004,5.34l0.131-1.068L9.4,2.937l0.133-0.801L9.5,1.368L9.4,0.934L9.135,0.533L8.772,0.2L8.209,0
		L7.745,0.1l-0.43,0.201L6.918,0.802z M186.963,310.441l-1.157-1.144l-1.053-1.241l-0.638-1.005l-0.515-0.993l-0.304-0.823
		l-0.36-1.012l-0.402-1.341l-0.828,0.835l-0.298,0.301l-0.43-0.267l-0.441-0.219l-0.518-0.049l-0.365,0.067l-0.099,0.368
		l0.099,0.601l0.165,0.367l0.298,0.434l-0.298,0.3l-0.828,0.802l1.589,0.434l1.477,0.586l1.157,0.562l1.092,0.691l1.157,0.992
		l0.985,1.102l1.349,1.49l0.504,0.713l0.461,0.713l0.478,0.916l0.435,0.916l0.871,1.833l0.299,0.431l0.331,0.333l0.231,0.167
		l0.365,0.167l0.397,0.1h0.397l0.696-0.267l0.563-0.434l0.463-0.635l0.264-0.667v-0.4l-0.099-0.401l-0.132-0.4l-0.198-0.234
		l-0.297-0.301l-0.464-0.3l-1.753-0.987l-1.753-0.987l-0.707-0.454l-0.707-0.454L186.963,310.441z M187.699,317.9l0.166-0.634
		l0.033-0.801l-0.232-1.101l-0.529-1.135l-0.729-1.134l-0.96-1.202l0.165,1.469l-0.131,1.069l-0.265,1.335l-0.133,0.801l0.033,0.768
		l0.1,0.434l0.265,0.401l0.362,0.331l0.564,0.2l0.464-0.1l0.43-0.201L187.699,317.9z M190.447,309.458l-1.092,0.067l-1.424-0.134
		l1.225,1l1.092,0.702l1.093,0.534l1.125,0.234h0.828l0.596-0.234l0.497-0.367l0.231-0.435v-0.567l-0.132-0.501l-0.297-0.3
		l-0.431-0.267l-0.43-0.1l-0.762-0.034l-0.761,0.134L190.447,309.458z M185.482,0.534l-0.265,0.401l-0.1,0.434l-0.033,0.768
		l0.133,0.801l0.265,1.335l0.131,1.068l-0.165,1.469l0.96-1.202l0.729-1.134l0.529-1.135l0.232-1.101l-0.033-0.801l-0.166-0.634
		l-0.397-0.5l-0.43-0.201l-0.464-0.1l-0.563,0.2L185.482,0.534z M187.563,10.464l-0.758,0.35l-0.579,0.417l-0.548,0.507
		l-0.378,0.395l-0.392,0.663l-0.353,0.922l-0.076,0.654l-0.057,0.58l0.079,0.824l0.186,0.745l0.349,0.852l0.514,0.648l0.535,0.366
		l0.522,0.302l0.861,0.167l-0.066,0.535l-0.198,0.5h0.331l0.463,0.2l0.365,0.334l0.297,0.468l0.133,0.367v3.391v1.948v270.845
		l-0.133,0.367l-0.297,0.468l-0.365,0.333l-0.463,0.2h-0.331l0.198,0.5l0.066,0.535l-0.861,0.167l-0.522,0.301l-0.535,0.367
		l-0.514,0.648l-0.349,0.852l-0.186,0.745l-0.079,0.824l0.057,0.58l0.076,0.654l0.353,0.922l0.392,0.664l0.378,0.394l0.548,0.506
		l0.579,0.417l0.758,0.35l0.831,0.25l0.754,0.074l0.704-0.074l0.582-0.143l0.577-0.191l0.546-0.283l0.547-0.283l0.513-0.451
		l0.513-0.45l0.348-0.468l0.348-0.467l0.264-0.484l0.243-0.463l0.154-0.588l0.132-0.568V26.764v-2.282v-9.43l-0.132-0.568
		l-0.154-0.589l-0.243-0.463l-0.264-0.484l-0.348-0.467l-0.348-0.467l-0.513-0.45l-0.513-0.451l-0.547-0.283l-0.546-0.284
		l-0.577-0.191l-0.582-0.143l-0.704-0.074l-0.754,0.074L187.563,10.464z M190.248,7.61l-1.092,0.701l-1.225,1l1.424-0.134
		l1.092,0.067l1.357,0.267l0.761,0.134l0.762-0.034l0.43-0.1l0.431-0.267l0.297-0.3l0.132-0.5V7.877l-0.231-0.435l-0.497-0.367
		l-0.596-0.234h-0.828l-1.125,0.234L190.248,7.61z M9.136,318.168l0.265-0.401l0.1-0.434l0.033-0.768l-0.133-0.801l-0.265-1.335
		l-0.131-1.069l0.165-1.467l-0.96,1.202l-0.728,1.134l-0.53,1.135l-0.232,1.101l0.033,0.802l0.165,0.633l0.398,0.5l0.431,0.201
		l0.463,0.1l0.563-0.2L9.136,318.168z M7.655,8.262l1.157,1.144l1.053,1.241l0.638,1.005l0.515,0.993l0.304,0.823l0.36,1.012
		l0.402,1.34l0.828-0.834l0.299-0.301l0.43,0.267l0.441,0.219L14.6,15.22l0.365-0.067l0.099-0.368l-0.099-0.6L14.8,13.818
		l-0.298-0.434l0.298-0.301l0.828-0.801l-1.589-0.434l-1.477-0.586l-1.159-0.561L10.31,10.01L9.153,9.018L8.168,7.916l-1.349-1.49
		L6.316,5.713L5.855,5L5.377,4.084L4.942,3.168L4.071,1.335L3.773,0.901L3.442,0.568L3.211,0.401L2.846,0.234l-0.397-0.1H2.052
		L1.356,0.401L0.793,0.835L0.33,1.469L0.066,2.137v0.4l0.099,0.401l0.132,0.4l0.198,0.234l0.297,0.301l0.464,0.3L3.009,5.16
		l1.753,0.987L5.469,6.6l0.707,0.454L7.655,8.262z M176.403,8.694l0.437,0.485l0.655,0.53l0.801,0.404l0.784,0.243l0.792,0.043
		l0.557-0.043l0.648-0.11l0.573-0.193l0.52-0.241l0.487-0.321l0.493-0.345l0.471-0.561l0.429-0.647l0.322-0.777l0.183-0.819
		l0.052-0.693l-0.052-0.742l-0.098-0.575l-0.234-0.593l-0.217-0.573l-0.38-0.562l-0.391-0.518l-0.47-0.483l-0.451-0.38l-0.476-0.354
		l-0.48-0.251l-0.522-0.194l-0.57-0.172l-0.613-0.116H26.419h-2.762h-8.692l-0.613,0.116l-0.57,0.172l-0.523,0.194l-0.48,0.251
		l-0.476,0.354l-0.451,0.38l-0.47,0.483l-0.391,0.518l-0.38,0.562l-0.217,0.573L10.16,4.332l-0.097,0.575l-0.052,0.742l0.052,0.693
		l0.183,0.819l0.322,0.777l0.429,0.647l0.47,0.561l0.493,0.345l0.487,0.321l0.52,0.241l0.574,0.193l0.647,0.11l0.557,0.043
		l0.792-0.043l0.784-0.243l0.801-0.404l0.655-0.53l0.437-0.485l0.258-0.549l0.165-0.835L19.2,7.343l0.464,0.234l0.033-0.367
		l0.165-0.435l0.331-0.367l0.464-0.334l0.396-0.1h1.081h4.215h147.21l0.396,0.1l0.464,0.334l0.331,0.367l0.165,0.435l0.033,0.367
		l0.464-0.234l0.563-0.033l0.165,0.835L176.403,8.694z M18.215,310.009l-0.437-0.484l-0.655-0.53l-0.801-0.404l-0.784-0.243
		l-0.792-0.043l-0.557,0.043l-0.647,0.109l-0.574,0.193l-0.52,0.241l-0.488,0.32l-0.493,0.345l-0.47,0.562l-0.429,0.648
		l-0.322,0.777l-0.183,0.818l-0.052,0.693l0.052,0.742l0.098,0.575l0.234,0.593l0.217,0.572l0.38,0.562l0.391,0.518l0.47,0.483
		l0.451,0.38l0.476,0.354l0.48,0.25l0.523,0.195l0.57,0.172l0.613,0.117h10.427h1.027h153.235l0.613-0.117l0.57-0.172l0.522-0.195
		l0.48-0.25l0.476-0.354l0.451-0.38l0.47-0.483l0.391-0.518l0.38-0.562l0.217-0.572l0.234-0.593l0.098-0.576l0.052-0.742
		l-0.052-0.693l-0.183-0.819l-0.322-0.777l-0.429-0.648l-0.471-0.562l-0.493-0.345l-0.487-0.321l-0.52-0.241l-0.573-0.193
		l-0.648-0.109l-0.557-0.043l-0.792,0.043l-0.784,0.243l-0.801,0.404l-0.655,0.53l-0.437,0.484l-0.258,0.549l-0.165,0.834
		l-0.563-0.033l-0.464-0.234l-0.033,0.367l-0.165,0.434l-0.331,0.367l-0.464,0.333l-0.396,0.1H26.352h-2.48h-2.817l-0.396-0.1
		l-0.464-0.333l-0.331-0.367l-0.165-0.434l-0.033-0.367l-0.464,0.234l-0.563,0.033l-0.165-0.834L18.215,310.009z M4.171,9.245
		l1.092-0.067l1.424,0.134l-1.225-1L4.37,7.611L3.277,7.078L2.152,6.844H1.323L0.727,7.078L0.23,7.445L0,7.878v0.567l0.132,0.5
		l0.298,0.3l0.43,0.267l0.43,0.1l0.762,0.034l0.761-0.134L4.171,9.245z M3.211,318.301l0.231-0.167l0.331-0.333l0.298-0.434
		l0.871-1.833l0.435-0.916l0.478-0.916l0.461-0.713l0.503-0.713l1.349-1.49l0.985-1.102l1.157-0.992l1.093-0.691l1.157-0.562
		l1.477-0.586l1.589-0.434l-0.828-0.802l-0.298-0.3l0.298-0.434l0.165-0.367l0.099-0.601l-0.099-0.368l-0.365-0.067l-0.518,0.049
		l-0.44,0.222l-0.43,0.267l-0.299-0.301l-0.828-0.835l-0.402,1.341l-0.36,1.012l-0.304,0.823l-0.515,0.993l-0.638,1.005
		l-1.052,1.241l-1.157,1.144l-1.478,1.209l-0.707,0.453l-0.707,0.454l-1.753,0.987l-1.753,0.986l-0.464,0.3l-0.297,0.301
		l-0.199,0.234l-0.132,0.4l-0.099,0.401v0.4l0.264,0.667l0.463,0.634l0.563,0.434l0.696,0.267h0.397l0.397-0.1L3.211,318.301z
		 M7.055,308.239l0.758-0.35l0.579-0.417l0.549-0.506l0.378-0.394l0.392-0.663l0.353-0.922l0.076-0.654l0.057-0.58l-0.078-0.824
		l-0.186-0.745l-0.349-0.852l-0.514-0.648l-0.535-0.367l-0.522-0.301l-0.862-0.167l0.066-0.535l0.198-0.5H7.084l-0.463-0.2
		l-0.365-0.333l-0.297-0.468l-0.133-0.367V26.6v-0.788v-4.551l0.133-0.367l0.297-0.468l0.365-0.334l0.463-0.2h0.331l-0.198-0.5
		l-0.066-0.535l0.862-0.167l0.522-0.302l0.535-0.366l0.514-0.648l0.349-0.852l0.186-0.745l0.078-0.824l-0.057-0.58l-0.076-0.654
		l-0.353-0.922l-0.392-0.663l-0.378-0.395l-0.549-0.507l-0.579-0.417l-0.758-0.35l-0.831-0.25L5.47,10.141l-0.704,0.074
		l-0.582,0.143l-0.577,0.191l-0.546,0.284l-0.547,0.283l-0.513,0.451l-0.513,0.45l-0.347,0.467l-0.348,0.467l-0.265,0.484
		l-0.242,0.463l-0.154,0.589L0,15.053v10.591v1.121V303.65l0.132,0.568l0.154,0.588l0.242,0.463l0.265,0.484l0.348,0.467
		l0.347,0.468l0.513,0.45l0.513,0.451l0.547,0.283l0.546,0.283l0.577,0.191l0.582,0.143l0.704,0.075l0.754-0.074L7.055,308.239z
		 M4.37,311.093l1.092-0.702l1.225-1l-1.424,0.134l-1.092-0.067l-1.358-0.267l-0.761-0.134l-0.762,0.034l-0.43,0.1l-0.43,0.267
		l-0.298,0.3L0,310.258v0.567l0.231,0.434l0.497,0.367l0.595,0.234h0.828l1.125-0.234L4.37,311.093z"/>
</g>
</svg>
