<?xml version="1.0" encoding="utf-8"?>
<!-- Generator: Adobe Illustrator 17.0.0, SVG Export Plug-In . SVG Version: 6.00 Build 0)  -->
<!DOCTYPE svg PUBLIC "-//W3C//DTD SVG 1.1//EN" "http://www.w3.org/Graphics/SVG/1.1/DTD/svg11.dtd">
<svg version="1.1" id="图层_1" xmlns="http://www.w3.org/2000/svg" xmlns:xlink="http://www.w3.org/1999/xlink" x="0px" y="0px"
	 width="64px" height="64px" viewBox="0 0 64 64" enable-background="new 0 0 64 64" xml:space="preserve">
<path fill="#E0995E" d="M32,0c17.673,0,32,14.327,32,32S49.673,64,32,64S0,49.673,0,32S14.327,0,32,0z"/>
<path opacity="0.2" fill="#231F20" d="M45.5,33.167h-5v-7.334c0-4.687-3.813-8.5-8.5-8.5s-8.5,3.813-8.5,8.5v7.334h-5v-7.334
	c0-7.444,6.056-13.5,13.5-13.5s13.5,6.056,13.5,13.5V33.167z M47,27H17c-1.657,0-3,1.343-3,3v19c0,1.657,1.343,3,3,3h30
	c1.657,0,3-1.343,3-3V30C50,28.343,48.657,27,47,27z M34,41.445V44c0,1.105-0.895,2-2,2s-2-0.895-2-2v-2.555
	c-1.191-0.693-2-1.968-2-3.445c0-2.209,1.791-4,4-4s4,1.791,4,4C36,39.477,35.191,40.752,34,41.445z"/>
<path fill="#4F5D73" d="M45.5,31.167h-5v-7.334c0-4.687-3.813-8.5-8.5-8.5s-8.5,3.813-8.5,8.5v7.334h-5v-7.334
	c0-7.444,6.056-13.5,13.5-13.5s13.5,6.056,13.5,13.5V31.167z M32,32c-2.209,0-4,1.791-4,4c0,1.477,0.809,2.752,2,3.445V42
	c0,1.105,0.895,2,2,2s2-0.895,2-2v-2.555c1.191-0.693,2-1.968,2-3.445C36,33.791,34.209,32,32,32z"/>
<path fill="#FFFFFF" d="M47,25H17c-1.657,0-3,1.343-3,3v19c0,1.657,1.343,3,3,3h30c1.657,0,3-1.343,3-3V28
	C50,26.343,48.657,25,47,25z M34,39.445V42c0,1.105-0.895,2-2,2s-2-0.895-2-2v-2.555c-1.191-0.693-2-1.968-2-3.445
	c0-2.209,1.791-4,4-4s4,1.791,4,4C36,37.477,35.191,38.752,34,39.445z"/>
</svg>
