<?xml version="1.0" encoding="utf-8"?>
<!-- Generator: Adobe Illustrator 17.0.0, SVG Export Plug-In . SVG Version: 6.00 Build 0)  -->
<!DOCTYPE svg PUBLIC "-//W3C//DTD SVG 1.1//EN" "http://www.w3.org/Graphics/SVG/1.1/DTD/svg11.dtd">
<svg version="1.1" id="图层_1" xmlns="http://www.w3.org/2000/svg" xmlns:xlink="http://www.w3.org/1999/xlink" x="0px" y="0px"
	 width="33px" height="32px" viewBox="0 0 33 32" enable-background="new 0 0 33 32" xml:space="preserve">
<path fill="#FF9292" d="M24,32c-6.351,0-12.127-3.152-16-7c0.299,0,1.503,0.249,6.369,0.249C20.533,25.249,27.967,21.622,31,15
	c1.127,2.477,2,5.218,2,8v9H24z M18,2c2.246-1.202,4.392-2,7-2h7v7c0,2.529-0.055,4.936-1,7C28.677,8.682,24.12,4.121,18,2z M30,14
	c-2.946,6.425-10.014,10-16,10c-4.724,0-5.709,0-6,0c0.315-0.48,0.253-1.6,0-1c0-3.72-0.251,0.427-0.251-4.457
	C7.749,11.703,11.478,5.952,17,3C22.7,5.179,27.623,8.78,30,14z M7,17c-0.286,5.026,0,3.165,0,7c-4.434-4.446-7-9.553-7-15
	c0-7.368,0-9,0-9c5.089,0,1.476,0,8,0c3.055,0,6.273,0.957,9,2C10.61,5.778,7.446,9.156,7,17z M7.77,24.536c0-0.027,0-0.05,0-0.077
	c0.027,0.026,0.054,0.051,0.081,0.077C7.791,24.536,7.77,24.536,7.77,24.536z"/>
</svg>
