<?xml version="1.0" encoding="utf-8"?>
<!-- Generator: Adobe Illustrator 17.0.0, SVG Export Plug-In . SVG Version: 6.00 Build 0)  -->
<!DOCTYPE svg PUBLIC "-//W3C//DTD SVG 1.1//EN" "http://www.w3.org/Graphics/SVG/1.1/DTD/svg11.dtd">
<svg version="1.1" id="图层_1" xmlns="http://www.w3.org/2000/svg" xmlns:xlink="http://www.w3.org/1999/xlink" x="0px" y="0px"
	 width="64px" height="64px" viewBox="0 0 64 64" enable-background="new 0 0 64 64" xml:space="preserve">
<path fill="#76C2AF" d="M32,0c17.673,0,32,14.327,32,32S49.673,64,32,64S0,49.673,0,32S14.327,0,32,0z"/>
<path opacity="0.2" fill="#231F20" d="M26.38,49.795c-0.86,0-1.68-0.399-2.21-1.093l-8.516-11.134
	c-0.934-1.221-0.7-2.967,0.521-3.901c1.221-0.933,2.967-0.701,3.901,0.521l5.828,7.619c3.215-5.783,10.196-16.4,21.303-23.576
	c1.29-0.835,3.016-0.463,3.848,0.827c0.835,1.292,0.463,3.015-0.827,3.848c-14.208,9.18-21.224,25.057-21.293,25.215
	c-0.394,0.905-1.236,1.535-2.216,1.653C26.604,49.788,26.491,49.795,26.38,49.795z"/>
<path fill="#FFFFFF" d="M26.38,47.011c-0.86,0-1.68-0.399-2.212-1.093l-8.516-11.134c-0.934-1.221-0.701-2.969,0.521-3.903
	c1.221-0.933,2.97-0.7,3.903,0.521l5.829,7.62c3.214-5.783,10.195-16.4,21.302-23.576c1.293-0.834,3.015-0.463,3.85,0.827
	c0.835,1.292,0.465,3.015-0.827,3.85c-14.208,9.18-21.225,25.057-21.295,25.215c-0.392,0.905-1.236,1.535-2.216,1.653
	C26.604,47.004,26.491,47.011,26.38,47.011z"/>
</svg>
