<?xml version="1.0" encoding="utf-8"?><!DOCTYPE svg PUBLIC "-//W3C//DTD SVG 1.1//EN" "http://www.w3.org/Graphics/SVG/1.1/DTD/svg11.dtd"><svg version="1.1" baseProfile="full" xmlns="http://www.w3.org/2000/svg" xmlns:xlink="http://www.w3.org/1999/xlink" xmlns:ev="http://www.w3.org/2001/xml-events"   height="480px"   width="300px" ><path stroke="rgb( 14, 5, 10 )" stroke-width="0px" stroke-linecap="butt" stroke-linejoin="miter" fill="rgb( 255, 127, 127 )" d="M0,480 C0,480 0,0 0,0 C0,0 300,0 300,0 C300,0 300,480 300,480 C300,480 0,480 0,480 ZM285,15 C285,15 15,15 15,15 C15,15 15,465 15,465 C15,465 285,465 285,465 C285,465 285,15 285,15 Z "/><path stroke="rgb( 14, 5, 10 )" stroke-width="0px" stroke-linecap="butt" stroke-linejoin="miter" fill="rgb( 255, 255, 255 )" d="M285,450 C285,450 285,420 285,420 C285,420 300,420 300,420 C300,420 300,450 300,450 C300,450 285,450 285,450 ZM285,360 C285,360 300,360 300,360 C300,360 300,390 300,390 C300,390 285,390 285,390 C285,390 285,360 285,360 ZM285,300 C285,300 300,300 300,300 C300,300 300,330 300,330 C300,330 285,330 285,330 C285,330 285,300 285,300 ZM285,240 C285,240 300,240 300,240 C300,240 300,270 300,270 C300,270 285,270 285,270 C285,270 285,240 285,240 ZM285,180 C285,180 300,180 300,180 C300,180 300,210 300,210 C300,210 285,210 285,210 C285,210 285,180 285,180 ZM285,120 C285,120 300,120 300,120 C300,120 300,150 300,150 C300,150 285,150 285,150 C285,150 285,120 285,120 ZM285,60 C285,60 300,60 300,60 C300,60 300,90 300,90 C300,90 285,90 285,90 C285,90 285,60 285,60 ZM285,15 C285,15 270,15 270,15 C270,15 270,0 270,0 C270,0 285,0 285,0 C285,0 300,0 300,0 C300,0 300,15 300,15 C300,15 300,30 300,30 C300,30 285,30 285,30 C285,30 285,15 285,15 ZM270,480 C270,480 240,480 240,480 C240,480 240,465 240,465 C240,465 270,465 270,465 C270,465 270,480 270,480 ZM210,0 C210,0 240,0 240,0 C240,0 240,15 240,15 C240,15 210,15 210,15 C210,15 210,0 210,0 ZM210,480 C210,480 180,480 180,480 C180,480 180,465 180,465 C180,465 210,465 210,465 C210,465 210,480 210,480 ZM150,0 C150,0 180,0 180,0 C180,0 180,15 180,15 C180,15 150,15 150,15 C150,15 150,0 150,0 ZM150,480 C150,480 120,480 120,480 C120,480 120,465 120,465 C120,465 150,465 150,465 C150,465 150,480 150,480 ZM90,0 C90,0 120,0 120,0 C120,0 120,15 120,15 C120,15 90,15 90,15 C90,15 90,0 90,0 ZM90,480 C90,480 60,480 60,480 C60,480 60,465 60,465 C60,465 90,465 90,465 C90,465 90,480 90,480 ZM30,0 C30,0 60,0 60,0 C60,0 60,15 60,15 C60,15 30,15 30,15 C30,15 30,0 30,0 ZM0,420 C0,420 15,420 15,420 C15,420 15,450 15,450 C15,450 0,450 0,450 C0,450 0,420 0,420 ZM0,360 C0,360 15,360 15,360 C15,360 15,390 15,390 C15,390 0,390 0,390 C0,390 0,360 0,360 ZM0,300 C0,300 15,300 15,300 C15,300 15,330 15,330 C15,330 0,330 0,330 C0,330 0,300 0,300 ZM0,240 C0,240 15,240 15,240 C15,240 15,270 15,270 C15,270 0,270 0,270 C0,270 0,240 0,240 ZM0,180 C0,180 15,180 15,180 C15,180 15,210 15,210 C15,210 0,210 0,210 C0,210 0,180 0,180 ZM0,120 C0,120 15,120 15,120 C15,120 15,150 15,150 C15,150 0,150 0,150 C0,150 0,120 0,120 ZM0,60 C0,60 15,60 15,60 C15,60 15,90 15,90 C15,90 0,90 0,90 C0,90 0,60 0,60 ZM0,15 C0,15 15,15 15,15 C15,15 15,30 15,30 C15,30 0,30 0,30 C0,30 0,15 0,15 ZM30,480 C30,480 0,480 0,480 C0,480 0,465 0,465 C0,465 30,465 30,465 C30,465 30,480 30,480 Z "/></svg>