<?xml version="1.0" encoding="utf-8"?>
<!-- Generator: Adobe Illustrator 17.0.0, SVG Export Plug-In . SVG Version: 6.00 Build 0)  -->
<!DOCTYPE svg PUBLIC "-//W3C//DTD SVG 1.1//EN" "http://www.w3.org/Graphics/SVG/1.1/DTD/svg11.dtd">
<svg version="1.1" id="图层_1" xmlns="http://www.w3.org/2000/svg" xmlns:xlink="http://www.w3.org/1999/xlink" x="0px" y="0px"
	 width="36px" height="26.031px" viewBox="0 0 36 26.031" enable-background="new 0 0 36 26.031" xml:space="preserve">
<path fill="#878787" d="M31.054,12.118c-2.379,0-4.939,0-4.939,0L27,6.031c0,0,3.725,0.004,4.994,0.024
	c3.046,0.047,4.014,1.238,4.02,2.457C36.014,10.248,34.916,12.118,31.054,12.118z M34.175,18.523c0,1.736-1.099,3.603-4.958,3.603
	c-2.377,0-4.939,0-4.939,0L25,16.031c0,0,3.738,0,5,0C33.081,16.031,34.175,17.298,34.175,18.523z M19,6.031c-2.379,0-4,0-4,0
	l0.817-6.016c0,0,3.476,0,4.738,0c3.079,0,3.811,1.552,3.811,2.782C24.366,4.533,22.862,6.031,19,6.031z M22.654,12.41
	c0,1.732-1.1,3.603-4.961,3.603c-2.374,0-4.935,0-4.935,0L14,10.031c0,0,3.731,0,5,0C22.074,10.031,22.654,11.179,22.654,12.41z
	 M20.818,22.418c0,1.742-1.094,3.611-4.949,3.611c-2.381,0-4.945,0-4.945,0L12,20.031c0,0,3.732,0,5,0
	C20.076,20.031,20.818,21.193,20.818,22.418z M7,6.031c-2.376,0-5,0-5,0l1.042-6.016c0,0,3.478,0,4.745,0
	c3.076,0,3.813,1.552,3.813,2.782C11.6,4.533,10.862,6.031,7,6.031z M9.888,12.41c0,1.732-1.103,3.603-4.957,3.603
	c-2.382,0-4.945,0-4.945,0L1,10.031c0,0,3.74,0,5,0C9.081,10.031,9.888,11.179,9.888,12.41z"/>
</svg>
