<?xml version="1.0" encoding="utf-8"?>
<!-- Generator: Adobe Illustrator 17.0.0, SVG Export Plug-In . SVG Version: 6.00 Build 0)  -->
<!DOCTYPE svg PUBLIC "-//W3C//DTD SVG 1.1//EN" "http://www.w3.org/Graphics/SVG/1.1/DTD/svg11.dtd">
<svg version="1.1" xmlns="http://www.w3.org/2000/svg" xmlns:xlink="http://www.w3.org/1999/xlink" x="0px" y="0px"
	 width="149.355px" height="348.789px" viewBox="0 0 149.355 348.789" enable-background="new 0 0 149.355 348.789"
	 xml:space="preserve">
<g id="background">
</g>
<g id="object">
	<g>
		<g>
			<g>
				<polygon fill="#397C69" points="87.216,199.988 50.222,221.249 75.636,193.974 				"/>
				<polygon fill="#5AAF98" points="50.222,221.249 49.178,193.974 16.393,199.988 				"/>
				<polygon fill="#4F8E7C" points="49.178,193.974 16.393,199.988 40.55,178.436 				"/>
				<polygon fill="#397C69" points="40.55,178.436 75.636,193.974 49.178,193.974 				"/>
				<polygon fill="#4F8E7C" points="75.636,193.974 50.222,221.249 49.178,193.974 				"/>
				<polygon fill="#4F8E7C" points="75.636,193.974 75.636,186.205 40.55,178.436 				"/>
				<polygon fill="#4CD8B7" points="40.55,178.436 103.76,143.601 75.636,186.205 				"/>
				<polygon fill="#E9FCA4" points="57.879,29.322 40.232,39.032 69.845,37.884 				"/>
				<polygon fill="#E9FCA4" points="57.879,29.322 108.937,33.603 72.155,2.589 				"/>
				<polygon fill="#C6F4A8" points="108.937,33.603 69.845,37.884 57.879,29.322 				"/>
				<polygon fill="#D8F8A6" points="108.937,33.603 69.845,109.016 69.845,37.884 				"/>
				<polygon fill="#B5F0AA" points="108.937,33.603 108.937,120.294 69.845,109.016 				"/>
				<polygon fill="#92E8AF" points="108.937,120.294 103.76,143.601 69.845,109.016 				"/>
				<polygon fill="#397C69" points="108.937,120.294 103.76,143.601 108.937,160.074 				"/>
				<polygon fill="#4F8E7C" points="108.937,160.074 75.636,186.205 103.76,143.601 				"/>
				<polygon fill="#397C69" points="108.937,160.074 75.636,193.974 75.636,186.205 				"/>
				<polygon fill="#4F8E7C" points="75.636,193.974 87.216,199.988 108.937,160.074 				"/>
				<polygon fill="#80E4B1" points="103.76,143.601 38.393,160.074 40.55,178.436 				"/>
				<polygon fill="#B5F0AA" points="103.76,143.601 69.845,109.016 38.393,160.074 				"/>
				<polygon fill="#B5F0AA" points="69.845,37.884 22.863,109.016 69.845,109.016 				"/>
				<polygon fill="#D8F8A6" points="69.845,109.016 38.393,160.074 22.863,109.016 				"/>
				<polygon fill="#80E4B1" points="72.155,2.589 22.863,14.285 46.354,0 				"/>
				<polygon fill="#A3ECAC" points="72.155,2.589 57.879,29.322 22.863,14.285 				"/>
				<polygon fill="#C6F4A8" points="57.879,29.322 40.232,39.032 22.863,14.285 				"/>
				<polygon fill="#92E8AF" points="22.863,14.285 9.49,74.327 40.232,39.032 				"/>
				<polygon fill="#4CD8B7" points="69.845,37.884 9.49,74.327 40.232,39.032 				"/>
				<polygon fill="#6FE0B3" points="69.845,37.884 22.863,109.016 9.49,74.327 				"/>
				<polygon fill="#4CD8B7" points="9.49,74.327 22.863,109.016 0,129.566 				"/>
				<polygon fill="#6FE0B3" points="22.863,109.016 38.393,160.074 0,129.566 				"/>
				<polygon fill="#5DDCB5" points="0,129.566 40.55,178.436 38.393,160.074 				"/>
				<polygon fill="#4CD8B7" points="0,129.566 5.436,178.436 40.55,178.436 				"/>
				<polygon fill="#397C69" points="5.436,178.436 16.393,199.988 40.55,178.436 				"/>
			</g>
			<g>
				<polygon fill="#5C4631" points="51.702,260.961 64.055,260.961 64.055,348.789 				"/>
				<polygon fill="#614B34" points="51.702,260.961 40.232,347.64 64.055,348.789 				"/>
				<polygon fill="#775C42" points="64.055,260.961 77.29,258.008 64.055,348.789 				"/>
				<polygon fill="#826449" points="77.29,258.008 64.055,348.789 87.216,347.293 				"/>
				<polygon fill="#6C533B" points="64.055,260.961 75.636,203.645 77.29,258.008 				"/>
				<polygon fill="#513E2A" points="64.055,260.961 64.055,189.969 75.636,203.645 				"/>
				<polygon fill="#2F210B" points="64.055,260.961 64.055,189.969 49.055,189.969 				"/>
				<polygon fill="#513E2A" points="64.055,260.961 51.702,260.961 49.055,189.969 				"/>
				<polygon fill="#826449" points="77.29,258.008 103.76,227.137 76.565,243.35 				"/>
				<polygon fill="#513E2A" points="103.76,227.137 76.565,243.35 76.565,234.913 95.819,223.056 				"/>
				<polygon fill="#2F210B" points="95.819,223.056 106.076,196.696 103.76,227.137 				"/>
				<polygon fill="#513E2A" points="106.076,196.696 111.039,198.682 103.76,227.137 				"/>
			</g>
			<g>
				<polygon fill="#397C69" points="86.508,218.156 72.724,183.491 112.649,210.061 				"/>
				<polygon fill="#4CD8B7" points="72.724,183.491 115.214,183.012 112.649,210.061 				"/>
				<polygon fill="#80E4B1" points="72.724,183.491 84.853,162.738 115.214,183.012 				"/>
				<polygon fill="#A3ECAC" points="84.853,162.738 120.499,117.016 115.214,183.012 				"/>
				<polygon fill="#D8F8A6" points="120.499,117.016 146.546,117.492 137.396,137.161 				"/>
				<polygon fill="#C6F4A8" points="137.396,137.161 115.214,183.012 120.499,117.016 				"/>
				<polygon fill="#A3ECAC" points="146.546,117.492 149.355,151.769 137.396,137.161 				"/>
				<polygon fill="#D8F8A6" points="149.355,151.769 115.214,183.012 137.396,137.161 				"/>
				<polygon fill="#C6F4A8" points="149.355,151.769 135.221,191.025 115.214,183.012 				"/>
				<polygon fill="#A3ECAC" points="149.355,151.769 135.221,191.025 138.499,209.837 				"/>
				<polygon fill="#397C69" points="138.499,209.837 112.649,210.061 122.067,227.041 				"/>
				<polygon fill="#4F8E7C" points="138.499,209.837 115.214,183.012 135.221,191.025 				"/>
				<polygon fill="#80E4B1" points="115.214,183.012 112.649,210.061 138.499,209.837 				"/>
				<polygon fill="#4F8E7C" points="122.067,227.041 86.508,218.156 112.649,210.061 				"/>
			</g>
		</g>
	</g>
</g>
</svg>
