<?xml version="1.0" encoding="utf-8"?>
<!-- Generator: Adobe Illustrator 17.0.0, SVG Export Plug-In . SVG Version: 6.00 Build 0)  -->
<!DOCTYPE svg PUBLIC "-//W3C//DTD SVG 1.1//EN" "http://www.w3.org/Graphics/SVG/1.1/DTD/svg11.dtd">
<svg version="1.1" id="图层_1" xmlns="http://www.w3.org/2000/svg" xmlns:xlink="http://www.w3.org/1999/xlink" x="0px" y="0px"
	 width="177.7px" height="94.547px" viewBox="0 0 177.7 94.547" enable-background="new 0 0 177.7 94.547" xml:space="preserve">
<path fill="#C83C3C" d="M20.463,32.158c1.89-1.241-4.608-14.131-2.583-14.943c130.247-52.242,145.885,29.035,147.152,50.83
	c0.105,1.8-84.187,2.854-84.145,4.396C79.856,65.806,81.053,29.882,20.463,32.158z"/>
<path fill="#B01C1C" d="M164.106,63.008c0.852,4.359,0.764,2.235,0.926,5.037c0.104,1.8-87.695,6.363-87.653,7.905
	c-0.369-2.38,16.595-35.67-41.418-43.348C96.114,28.046,81.592,57.243,164.106,63.008z"/>
<path fill="#FFFFFF" d="M167.773,64.259c-31.278-3.201-62.556-3.371-93.834,0c-13.254,1.428-13.234,31.82,0,30.213
	c31.984-3.886,63.31-4.148,93.834,0C180.982,96.266,181.034,65.615,167.773,64.259z M19.197,5.488
	c10.602,0,19.197,8.595,19.197,19.197s-8.595,19.197-19.197,19.197S0,35.287,0,24.685S8.595,5.488,19.197,5.488z"/>
</svg>
