<?xml version="1.0" encoding="utf-8"?>
<!-- Generator: Adobe Illustrator 17.0.0, SVG Export Plug-In . SVG Version: 6.00 Build 0)  -->
<!DOCTYPE svg PUBLIC "-//W3C//DTD SVG 1.1//EN" "http://www.w3.org/Graphics/SVG/1.1/DTD/svg11.dtd">
<svg version="1.1" id="objects" xmlns="http://www.w3.org/2000/svg" xmlns:xlink="http://www.w3.org/1999/xlink" x="0px" y="0px"
	 width="96.886px" height="92.47px" viewBox="0 0 96.886 92.47" enable-background="new 0 0 96.886 92.47" xml:space="preserve">
<path fill="#7AB547" d="M96.379,26.573c-0.338-0.36-0.841-1.018-1.537-1.593c-0.69-0.59-1.59-1.452-2.639-2.049
	c-1.049-0.622-2.28-1.229-3.676-1.791c-1.378-0.503-2.862-0.843-4.48-1.134c-1.622-0.293-3.23-0.279-4.955-0.249
	c-1.706,0.068-3.368,0.367-5.065,0.746c-1.647,0.437-3.278,1.013-4.845,1.698c-1.512,0.752-3.036,1.538-4.375,2.51
	c-1.358,0.953-2.63,1.99-3.735,3.143c-2.261,2.246-3.951,4.856-5.138,7.323c-0.575,1.26-1.038,2.467-1.379,3.617
	c-0.354,1.129-0.541,2.24-0.7,3.132c-0.09,0.415-0.137,0.827-0.167,1.196c0.399-0.332,0.829-0.684,1.3-1.062
	c2.343-1.866,5.582-4.208,9.03-6.21c1.725-1.005,3.511-1.891,5.21-2.656c0.87-0.34,1.712-0.668,2.507-0.978
	c0.814-0.257,1.588-0.497,2.295-0.719c0.729-0.159,1.394-0.302,1.985-0.43c0.583-0.157,1.121-0.156,1.549-0.214
	c0.857-0.092,1.346-0.141,1.346-0.141s-0.485,0.09-1.334,0.243c-0.417,0.097-0.943,0.134-1.511,0.335
	c-0.571,0.172-1.215,0.365-1.92,0.576c-0.686,0.275-1.422,0.569-2.201,0.882c-0.756,0.366-1.551,0.754-2.373,1.156
	c-1.612,0.88-3.285,1.884-4.889,3.001c-3.214,2.215-6.192,4.751-8.325,6.746c-0.6,0.561-1.123,1.068-1.579,1.52
	c0.485,0.083,1.09,0.21,1.778,0.264c0.868,0.085,1.959,0.261,3.068,0.311c1.127,0.073,2.347,0.113,3.605,0.091
	c1.27-0.004,2.554-0.107,3.874-0.225c1.318-0.118,2.623-0.346,3.926-0.599c1.289-0.292,2.577-0.593,3.814-1.018
	c1.234-0.448,2.454-0.841,3.616-1.412c2.333-1.047,4.488-2.316,6.454-3.804c0.978-0.676,1.935-1.547,2.832-2.318
	c0.9-0.76,1.78-1.66,2.621-2.47c0.83-0.792,1.64-1.609,2.396-2.42c0.797-0.826,1.493-1.546,2.064-2.139
	c0.611-0.57,1.13-1.219,1.487-1.577c0.374-0.42,0.569-0.641,0.569-0.641S96.721,26.967,96.379,26.573z M10.271,90.783
	c0,0-0.065,1.687,1.583,1.687c2.053,0,19.039-0.022,19.039-0.022l0.03-15.602c0,0-0.27-2.571,2.227-2.571h7.901
	c2.951,0,2.768,2.571,2.768,2.571l-0.032,15.553c0,0,16.107,0,18.638,0c2.093,0,1.998-2.103,1.998-2.103V61.534L38.158,38.168
	L10.271,61.534V90.783z"/>
<path fill="#1F7223" d="M52.539,32.865c-1.006-1.721-1.891-3.51-2.654-5.21c-0.343-0.864-0.669-1.708-0.981-2.503
	c-0.256-0.816-0.495-1.587-0.719-2.297c-0.158-0.728-0.3-1.395-0.429-1.987c-0.157-0.583-0.154-1.116-0.214-1.545
	c-0.092-0.856-0.141-1.347-0.141-1.347s0.09,0.486,0.247,1.333c0.091,0.419,0.134,0.942,0.333,1.51
	c0.171,0.574,0.365,1.221,0.576,1.923c0.275,0.682,0.57,1.418,0.883,2.2c0.365,0.755,0.753,1.551,1.154,2.375
	c0.882,1.607,1.885,3.283,3.001,4.886c0.459,0.669,0.949,1.299,1.431,1.931c1.785-3.32,4.041-6.382,6.509-8.979
	c-0.243-1.056-0.502-2.104-0.852-3.114c-0.448-1.237-0.84-2.457-1.413-3.618c-1.048-2.33-2.317-4.488-3.801-6.454
	c-0.676-0.978-1.548-1.935-2.32-2.832c-0.759-0.899-1.656-1.781-2.467-2.617c-0.792-0.832-1.61-1.64-2.421-2.396
	c-0.827-0.8-1.544-1.493-2.138-2.067c-0.571-0.609-1.222-1.128-1.578-1.488C44.128,0.197,43.904,0,43.904,0s-0.25,0.169-0.645,0.506
	c-0.359,0.339-1.017,0.843-1.594,1.538c-0.586,0.687-1.451,1.588-2.044,2.64c-0.625,1.051-1.233,2.283-1.793,3.677
	c-0.506,1.378-0.845,2.856-1.135,4.481c-0.29,1.619-0.28,3.231-0.251,4.957c0.071,1.702,0.37,3.361,0.75,5.064
	c0.436,1.648,1.011,3.277,1.698,4.844c0.749,1.511,1.54,3.034,2.512,4.376c0.95,1.356,1.989,2.632,3.142,3.734
	c2.245,2.264,4.852,3.951,7.321,5.139c0.107,0.049,0.202,0.082,0.305,0.121c0.535-1.864,1.258-3.688,2.111-5.46
	C53.691,34.72,53.096,33.827,52.539,32.865z M0,59.358c0,0,2.37,4.366,7.532,0l30.857-26.104l28.93,25.943
	c5.979,4.312,8.217,0,8.217,0l-37.147-33.65L0,59.358z"/>
</svg>
