<?xml version="1.0" encoding="iso-8859-1"?>
<!-- Generator: Adobe Illustrator 17.0.0, SVG Export Plug-In . SVG Version: 6.00 Build 0)  -->
<!DOCTYPE svg PUBLIC "-//W3C//DTD SVG 1.1//EN" "http://www.w3.org/Graphics/SVG/1.1/DTD/svg11.dtd">
<svg version="1.1" id="Capa_1" xmlns="http://www.w3.org/2000/svg" xmlns:xlink="http://www.w3.org/1999/xlink" x="0px" y="0px"
	 width="125.493px" height="125.493px" viewBox="0 0 125.493 125.493" style="enable-background:new 0 0 125.493 125.493;"
	 xml:space="preserve">
<g>
	<circle style="fill:#7E404D;" cx="62.747" cy="62.747" r="62.747"/>
	<circle style="fill:#6C1C1E;" cx="62.747" cy="62.747" r="61.792"/>
	<circle style="fill:#CC5650;" cx="62.746" cy="62.747" r="59.883"/>
	<path style="fill:#F4F1EA;stroke:#7D2B26;stroke-miterlimit:10;" d="M62.746,62.748l1.466-38.34c0,0-0.54-8.362,6.958-8.983
		c4.861-0.403,7.031,0.24,12.773,3.17c5.746,2.93,12.903,10.923,8.711,15.412C88.462,38.492,62.746,62.748,62.746,62.748z"/>
	<path style="fill:#F4F1EA;stroke:#7D2B26;stroke-miterlimit:10;" d="M62.606,62.572l28.147-26.074c0,0,5.531-6.293,11.271-1.431
		c3.724,3.153,4.804,5.141,6.792,11.274c1.99,6.133,1.399,16.848-4.738,17.055C97.941,63.605,62.606,62.572,62.606,62.572z"/>
	<path style="fill:#F4F1EA;stroke:#7D2B26;stroke-miterlimit:10;" d="M62.63,62.348l38.34,1.467c0,0,8.362-0.538,8.983,6.958
		c0.401,4.861-0.238,7.031-3.17,12.773c-2.93,5.745-10.925,12.904-15.41,8.711C86.886,88.065,62.63,62.348,62.63,62.348z"/>
	<path style="fill:#F4F1EA;stroke:#7D2B26;stroke-miterlimit:10;" d="M62.806,62.208L88.88,90.356c0,0,6.292,5.531,1.431,11.271
		c-3.152,3.723-5.141,4.803-11.273,6.791c-6.134,1.991-16.849,1.4-17.055-4.737C61.773,97.543,62.806,62.208,62.806,62.208z"/>
	<path style="fill:#F4F1EA;stroke:#7D2B26;stroke-miterlimit:10;" d="M63.03,62.233l-1.468,38.34c0,0,0.539,8.36-6.958,8.983
		c-4.861,0.401-7.031-0.24-12.773-3.17c-5.745-2.93-12.904-10.925-8.711-15.41C37.313,86.487,63.03,62.233,63.03,62.233z"/>
	<path style="fill:#F4F1EA;stroke:#7D2B26;stroke-miterlimit:10;" d="M63.17,62.409L35.022,88.483c0,0-5.53,6.292-11.271,1.431
		c-3.724-3.152-4.804-5.141-6.791-11.274c-1.991-6.133-1.4-16.848,4.737-17.055C27.835,61.375,63.17,62.409,63.17,62.409z"/>
	<path style="fill:#F4F1EA;stroke:#7D2B26;stroke-miterlimit:10;" d="M63.145,62.633l-38.34-1.467c0,0-8.359,0.539-8.982-6.958
		c-0.402-4.861,0.238-7.031,3.171-12.774c2.929-5.743,10.923-12.902,15.409-8.709C38.891,36.916,63.145,62.633,63.145,62.633z"/>
	<path style="fill:#F4F1EA;stroke:#7D2B26;stroke-miterlimit:10;" d="M62.969,62.773L36.897,34.625c0,0-6.293-5.53-1.432-11.271
		c3.152-3.723,5.14-4.803,11.273-6.791c6.133-1.991,16.848-1.4,17.055,4.736C64.002,27.438,62.969,62.773,62.969,62.773z"/>
</g>
</svg>
