<?xml version="1.0" encoding="utf-8"?>
<!-- Generator: Adobe Illustrator 17.0.0, SVG Export Plug-In . SVG Version: 6.00 Build 0)  -->
<!DOCTYPE svg PUBLIC "-//W3C//DTD SVG 1.1//EN" "http://www.w3.org/Graphics/SVG/1.1/DTD/svg11.dtd">
<svg version="1.1" id="图层_1" xmlns="http://www.w3.org/2000/svg" xmlns:xlink="http://www.w3.org/1999/xlink" x="0px" y="0px"
	 width="831.046px" height="848.715px" viewBox="0 0 831.046 848.715" enable-background="new 0 0 831.046 848.715"
	 xml:space="preserve">
<path fill="#FF6464" d="M500.92,219.59c7.099,8.532,14.614,26.819,13.219,42.293c-3.782,41.864-52.764,41.543-72.694,70.048
	c-8.825,13.862,32.902,13.866,51.547,17.184c-2.55,18.361-5.301,39.699-6.609,56.833c-52.264-6.77-109.865-5.316-113.667-63.44
	c0.525-49.699,47.413-53.028,68.73-81.947c-0.68-14.121-18.119-6.15-35.688-3.961c-0.621-16.572,3.645-39.471,7.932-55.511
	C441.856,199.752,484.624,200.01,500.92,219.59z M687.631,194.484c0-12.692-10.286-22.984-22.988-22.984
	c-12.69,0-22.979,10.292-22.979,22.984c0,12.689,10.29,22.983,22.979,22.983C677.345,217.467,687.631,207.173,687.631,194.484z
	 M448.323,194.484c33.087,0,59.905-24.841,59.905-55.489c0-30.644-26.819-55.486-59.905-55.485
	c-33.079,0-59.897,24.842-59.897,55.485C388.426,169.642,415.245,194.484,448.323,194.484z M544.538,353.081
	c-10.726-2.473-18.986-4.88-29.075-10.574c-5.944,17.852-10.539,33.44-18.019,55.832c5.113,2.921,12.85,2.065,11.41,6.286
	c-9.61,16.825-25.848,27.023-37.01,42.3c17.642,8.35,35.217,16.767,56.834,21.147c8.131-7.018,16.768-17.591,24.41-27.286
	c5.564-7.058,7.361-14.235,17.879-15.015l121.593,42.302c22.503,9.102,40.667,15.849,58.161,21.145
	c5.636-19.036,12.208-34.717,17.183-56.837c-10.188-4.35-13.204-5.848-33.043-10.574c-18.397-7.196-54.427-16.127-44.938-23.792
	c72.429-10.231,87.874-11.711,131.628-18.839c-3.956-28.908-4.789-38.236-8.717-59.137c-12.612,1.983-16.374,4.71-29.071,6.605
	c-2.997-16.135-4.727-29.379-6.612-47.575c21.459-0.279,33.593,2.682,51.551,1.322c2.982-19.717,2.764-41.304,1.315-60.802
	c-20.897-2.45-37.204-1.836-59.746-2.123c-2.756-18.299-5.147-48.179-4.589-62.356c19.732,0,34.063-0.386,53.763-0.282
	c0.19-22.473-0.354-37.76,0-59.472c-63.4,1.933-121.832,1.19-178.423,5.286c2.366,21.173,1.327,34.424,2.638,58.153
	c22.914-0.854,36.309-1.418,59.475,0c4.524,65.166,11.445,120.083,15.869,175.785c-7.084,8.526-31.798,13.505-33.043-1.327
	c-2.314-31.959,5.46-71.599,11.89-103.091c-21.479-0.823-43.774-1.352-60.798,0c-6.941,19.266-10.31,45.071-11.889,66.085
	c-1.287,17.648-0.357,21.899,0,31.719c0.789,22.117,13.232,42.676,20.51,60.847c-16.01-2.054-45.088-10.324-40.34-19.868
	c3.054-11.801,7.25-15.203,9.256-23.793c8.534-36.663-25.215-47.321-22.469-70.052c1.963-16.289,31.179-36.217,35.684-55.511
	c8.424-36.113-16.474-63.668-52.866-62.116c0,0-39.751,4.178-59.137,19.952l12.876,61.987c10.066-10.417,26.82-24.643,29.079-10.573
	c-1.342,19.201-23.755,24.553-26.433,43.617C527.3,301.073,573.733,331.853,544.538,353.081z M700.496,709.938
	c45.611,9.019,85.53,23.722,129.52,34.364c-5.797,19.673-11.772,37.003-18.496,58.152c-40.32-8.148-75.148-21.774-112.35-33.041
	c-13.432,18.952-21.833,39.658-58.149,33.041c-17.909-3.267-48.729-17.718-63.442-26.433c-9.501-5.625-20.754-18.865-29.075-17.183
	c-4.96,0.999-16.048,18.537-17.181,22.469c-5.376,18.563-11.445,40.21-14.543,59.476c-17.935-6.293-32.586-15.875-48.9-23.791
	c10.103-53.773,24.069-103.694,70.048-121.596c56.118-12.3,52.921,34.31,92.521,38.328c15.225,1.69,8.432-38.732,0-47.579
	c-63.565,1.587-112.275,8.248-169.18,11.896c-1.112-21.831-2.557-35.133-4.9-55.905c-1.377-13.079-0.483-18.332-1.703-27.362
	c-2.744-20.22-1.379-44.328-2.646-66.085c-1.122-19.225-6.535-39.004-3.966-59.472c95.003-0.463,177.77-5.245,272.264-3.968
	c1.193,2.33,2.96,4.094,5.287,5.29c-0.145,23.126,1.893,38.218,2.647,55.513c-28.381,0.122-61.018-1.358-87.231,1.315
	c11.143,24.541,19.512,51.86,31.72,75.342c40.334,0.096,78.804-5.778,118.947-6.611c3.057,16.171,2.189,33.976,3.971,55.511
	c-30.94,5.223-73.816,3.021-103.099,9.25c-0.069,11.745,1.713,14.534,2.649,23.792C695.338,708.046,694.717,709.941,700.496,709.938
	z M606.655,625.348c-10.408-24.613-19.651-51.907-31.719-77.98c-20.129,0.808-35.915,2.806-63.444,3.968
	c3.264,33.358,1.233,54.787,7.934,83.271C551.336,630.485,579.011,631.161,606.655,625.348z M175.785,772.059
	c-18.401,7.868-34.941,15.279-55.511,19.823c-5.17-16.627-7.711-26.062-11.893-44.939c-0.849-2.667-0.334-3.357-2.645-1.321
	c-11.282,5.797-17.773,6.95-26.68,7.792c-3.276,0.305-9.629-0.023-13.344-0.102c-7.038-0.156-15.241-1.081-24.738-3.723
	c-20.025-5.569-37.425-27.99-39.651-48.898c-0.363-3.433-1.008-4.856-1.323-11.9c0.672-48.438,12.803-97.099,33.043-133.491
	c10.308-1.275,3.302-0.356,14.541-2.645c-4.204-13.42-8.99-26.25-10.574-42.293c18.024-6.782,33.667-13.252,55.508-18.506
	c16.717,47.664,31.318,106.115,47.583,154.638c3.523,0,7.05,0,10.573,0c5.566,9.986,15.435,27.193,24.383,40.504
	c0.621,0.922,8.296,11.363,7.683,11.929c-9.101,8.443-11.704,8.781-21.491,14.976C165.316,737.223,169.541,749.415,175.785,772.059z
	 M70.053,637.244c-0.882,0-1.764,0-2.645,0c-4.729,16.165-15.85,47.697,2.645,56.833C101.068,694.331,79.266,652.555,70.053,637.244
	z M408.402,662.353c-28.736,6.944-58.928,16.845-84.59,23.792c16.863,9.562,13.16,8.082,21.15,10.572
	c27.965,8.719,59.449,21.488,85.909,31.72c-4.13,20.545-10.972,38.374-19.824,54.193c-44.222-7.771-70.874-33.102-117.632-38.329
	c-22.828,33.564-42.487,70.295-64.762,104.414c-22.99-0.802-39.174-8.41-58.156-13.219c12.27-19.777,19.012-29.968,27.756-46.261
	c9.54-17.774,17.997-34.24,27.756-51.544c7.674-9.879,8.357-13.981,15.859-29.078c-14.005,3.812-29.96,5.08-43.615,10.573
	c-5.562-16.602-13.924-35.537-17.183-58.152c16.885-3.817,33.094-8.318,48.901-13.218c-12.821-32.632-27.865-63.793-47.578-92.519
	c-15.086,3.655-32.107,7.035-43.617,10.573c-5.531-19.314-11.318-38.719-11.895-59.476c12.461-1.58,15.047-2.227,25.91-6.751
	c-6.539-12.051-10.282-19.141-15.337-32.9c19.666-8.689,34.111-15.8,52.869-23.792c7.214,14.357,15.374,26.835,23.791,40.977
	c30.224-3.677,48.843-8.49,79.302-13.218c92.737-3.762,91.257,77.887,104.412,134.813c7.018-0.03,8.523-2.858,17.185-3.961
	c3.907,13.234,9.265,37.521,15.859,52.863C419.883,658.316,416.267,660.453,408.402,662.353z M333.067,593.628
	c-6.455-19.985-8.788-50.603-21.146-59.471c-15.456-11.103-15.026-9.155-53.054,1.58c-6.077,3.475-5.029,1.663-14.514,5.1
	c14.859,30.999,32.358,64.894,49.062,91.121c12.267-1.606,28.198-10.342,40.971-10.573
	C337.718,610.392,336.246,610.473,333.067,593.628z M47.584,296.249c17.384-9.199,38.266-22.197,58.861-31.683
	c3.212,11.355,5.737,15.829,8.542,26.399c-26.944,7.031-39.637,7.672-64.763,11.897c5.141,20.188,7.006,36.756,13.219,56.825
	c32.468-4.363,25.191-3.776,73.861-9.077c-0.559,7.006,5.695,14.787,5.438,24.941c-29.299,6.378-58.094,13.276-88.553,18.501
	c3.086,21.911,6.422,36.467,11.896,56.834L329.1,392.73c-6.733-22.845-7.942-34.317-11.892-54.189
	c-35.661,5.737-73.903,17.017-116.685,22.623c-7.576-19.963-3.949-12.929-7.803-21.569l165.457-23.523
	c-4.379-22.252-5.072-36.257-6.609-55.511c-55.952,4.041-119.935,14.897-178.124,21.212c-3.784-13.77-8.857-26.693-11.701-37.517
	l-48.413,15.262l54.526-30.678l220.723,13.22c2.332-21.247-0.536-36.268,2.641-59.473l-125.56-10.573
	c4.324-7.398,12.358-8.082,19.824-11.895C405.096,99.039,400.471,54.381,400.471,54.381c-1.947-31.185-28.178-56.879-60.799-54.187
	C264.967,6.355,58.156,78.175,58.156,78.175c-1.286,6.377,6.444,19.974,9.251,27.755c3.548,9.838,7.433,18.082,10.572,26.43
	c0,0,176.832-69.449,243.192-67.407c-38.193,30.383-82.23,54.645-122.918,80.625c-9.208,5.882-17.631,13.406-26.434,18.502
	l-158.602-1.323c-1.83,20.853,1.249,36.481,0,56.834l46.644,0.918L5.287,260.561C17.216,274.631,32.177,285.661,47.584,296.249z"/>
</svg>
