<?xml version="1.0" encoding="iso-8859-1"?>
<!-- Generator: Adobe Illustrator 17.0.0, SVG Export Plug-In . SVG Version: 6.00 Build 0)  -->
<!DOCTYPE svg PUBLIC "-//W3C//DTD SVG 1.1//EN" "http://www.w3.org/Graphics/SVG/1.1/DTD/svg11.dtd">
<svg version="1.1" id="Objects1" xmlns="http://www.w3.org/2000/svg" xmlns:xlink="http://www.w3.org/1999/xlink" x="0px" y="0px"
	 width="73.406px" height="36.677px" viewBox="0 0 73.406 36.677" style="enable-background:new 0 0 73.406 36.677;"
	 xml:space="preserve">
<g>
	<path style="fill:#0D99A1;" d="M37.168,30.727c-1.266,0.031-2.248,0.046-2.568,0.052c0.047-6.65,0.02-18.252-0.586-21.448
		l-5.972,0.007c-0.782,1.959-1.459,7.066-1.679,11.394c-0.151,2.962-0.474,7.24-0.542,10.503c-0.681,0.048-0.726,0.126-1.369,0.179
		c0.221-2.481-0.323-5.584-1.046-7.946c-1.269-4.099,0.185-9.557,0.183-9.928c-0.002-0.615-1.013-3.135-2.063-4.512
		c0.75-0.49,2.675-2.625,0.041-4.478c-0.733-0.515-9.332,0.847-10.542,0.852c-1.19,0.005-5.315,2.274-5.617,2.95
		C5.136,8.969,6.413,9.6,7.559,10.008c-0.046,0.03-0.088,0.065-0.122,0.109c-0.164,0.173-0.722,4.404-1.923,5.482
		C4.496,16.52,5.066,30.271,5.679,34.147c-3.442,0.96-5.008,1.96-5.679,2.53l37.167-0.016L37.168,30.727z M15.261,32.394
		c-0.289,0.038-2.564,0.083-2.826,0.122c-0.182-5.512,0.51-18.5,0.349-19.758c-0.194-1.457,0.774-2.358-0.61-2.916
		c1.125-0.062,2.35-0.134,3.548-0.223C15.303,13.362,15.382,26.277,15.261,32.394z"/>
	<path style="fill:#F9BB14;" d="M34.012,9.308c0.415,0.007,1.527,0.009,2.667,0.016l-0.128-8.909
		c-3.821,0.237-7.353,0.488-7.881,0.491c-1.049,0.005-2.54,4.026-1.959,5.493c0.596,1.464,0.143,2.655,1.389,2.794
		c-0.019,0.044-0.039,0.098-0.057,0.146l5.972-0.007C34.014,9.324,34.012,9.314,34.012,9.308z"/>
	<path style="fill:#E2AA15;" d="M47.479,9.455c0.812-0.451,1.793-3.312,1.883-5.038c0.122-1.875,0.215-4.28-3.18-4.409
		c-1.654-0.055-5.647,0.16-9.412,0.392c-0.074,0.004-0.148,0.008-0.22,0.013l0.128,8.909c0.046,0.001,0.09,0.001,0.135,0.001
		c1.166,0.004,2.329,0.013,2.776,0.017c0,0.018-0.001,0.046-0.002,0.068l7.907,0.109C47.49,9.498,47.485,9.474,47.479,9.455z"/>
	<path style="fill:#0B8C92;" d="M63.843,32.844c-0.715-3.621-2.546-11.811-1.91-13.664c0.794-2.277,0.541-4.106,0.309-6.533
		c-0.238-2.425,0.879-5.015-0.71-6.063c-1.606-1.053-4.363-0.677-5.827-0.531c-1.483,0.168-1.591,0.168-1.804,3.96
		c-0.205,3.791-1.238,8.61-0.996,9.224c0.161,0.416,0.744,7.53,1.069,11.751c-1.983-0.186-4.466-0.404-4.559-0.404
		c-0.411-5.707-1.108-15.277-1.402-17.853c-0.141-1.289-0.3-2.345-0.518-3.213l-7.907-0.109c-0.055,1.472-0.761,14.869-0.699,21.314
		c-0.511,0.002-1.21,0.011-1.9,0.018l0.085,5.937h36.333C73.004,36.224,71.009,34.404,63.843,32.844z"/>
</g>
</svg>
