<?xml version="1.0" encoding="utf-8"?>
<!-- Generator: Adobe Illustrator 17.0.0, SVG Export Plug-In . SVG Version: 6.00 Build 0)  -->
<!DOCTYPE svg PUBLIC "-//W3C//DTD SVG 1.1//EN" "http://www.w3.org/Graphics/SVG/1.1/DTD/svg11.dtd">
<svg version="1.1" id="图层_1" xmlns="http://www.w3.org/2000/svg" xmlns:xlink="http://www.w3.org/1999/xlink" x="0px" y="0px"
	 width="137.5px" height="120.312px" viewBox="0 0 137.5 120.312" enable-background="new 0 0 137.5 120.312" xml:space="preserve">
<path fill="#08A1EF" d="M131.055,94.531H83.093l13.318,18.84c0,0,2.417,3.523,0,6.942H76.454H62.066H41.155
	c-2.484-3.418,0-6.942,0-6.942l13.688-18.84H6.445C2.885,94.531,0,91.646,0,88.086V6.445C0,2.885,2.885,0,6.445,0h124.609
	c3.56,0,6.445,2.885,6.445,6.445v81.641C137.5,91.646,134.615,94.531,131.055,94.531z M68.75,90.234
	c2.374,0,4.297-1.923,4.297-4.297s-1.923-4.297-4.297-4.297s-4.297,1.923-4.297,4.297S66.376,90.234,68.75,90.234z M128.906,10.742
	H8.594v66.602h120.312V10.742z"/>
</svg>
