<?xml version="1.0" encoding="utf-8"?>
<!-- Generator: Adobe Illustrator 17.0.0, SVG Export Plug-In . SVG Version: 6.00 Build 0)  -->
<!DOCTYPE svg PUBLIC "-//W3C//DTD SVG 1.1//EN" "http://www.w3.org/Graphics/SVG/1.1/DTD/svg11.dtd">
<svg version="1.1" id="Layer_3" xmlns="http://www.w3.org/2000/svg" xmlns:xlink="http://www.w3.org/1999/xlink" x="0px" y="0px"
	 width="275.922px" height="65.63px" viewBox="0 0 275.922 65.63" enable-background="new 0 0 275.922 65.63" xml:space="preserve">
<path fill="#0A0A0A" d="M35.426,38.492c0,0,2.838,3.694-1.868,6.279C28.851,47.358,22.195,48.909,18.269,46
	c-3.927-2.908-0.564-6.734,1.461-7.495c0,0,0.299-5.925,4.728-6.813c4.429-0.891,5.975-0.057,9.824,1.612
	c0,0,6.199-3.931,9.593-2.111c3.394,1.82,4.284,5.743,3.499,6.429c0,0,5.245,4.325-0.395,10.178
	c-5.64,5.852-8.196,7.297-13.208,8.214C28.76,56.93,23.57,56.3,17.061,53.749c-6.509-2.552-10.737-2.319-17.06,5.027
	c0,0,2.526-5.825,8.17-8.134c5.644-2.31,10.581-0.667,15.975,1.075c5.394,1.741,10.101-0.338,13.238-3.076
	c3.137-2.734,5.868-6.941,4.344-11.242c-1.522-4.303-5.42-2.832-6.103-2.604c-0.684,0.23-4.938-0.375-7.492,1.07
	c0,0-4.2,2.84-2.653,5.951c1.546,3.112,3.774,2.453,5.849,1.59C33.404,42.544,35.478,40.669,35.426,38.492z M62.816,47.595
	c0,0,1.751,2.277-1.152,3.875c-2.903,1.594-7.01,2.549-9.432,0.756s-0.348-4.153,0.901-4.623c0,0,0.184-3.655,2.917-4.203
	c2.733-0.549,3.686-0.035,6.061,0.992c0,0,3.824-2.422,5.918-1.301c2.093,1.125,2.643,3.544,2.158,3.967
	c0,0,3.235,2.666-0.244,6.276c-3.479,3.612-5.056,4.503-8.147,5.067c-3.092,0.564-6.294,0.176-10.308-1.396
	c-4.016-1.574-6.623-1.432-10.523,3.103c0,0,1.559-3.595,5.04-5.018c3.481-1.426,6.527-0.414,9.854,0.66
	c3.328,1.074,6.232-0.208,8.166-1.896c1.935-1.688,3.62-4.283,2.68-6.938c-0.939-2.653-3.343-1.745-3.765-1.604
	c-0.421,0.141-3.045-0.23-4.622,0.66c0,0-2.59,1.75-1.636,3.672c0.955,1.92,2.328,1.514,3.608,0.98
	C61.569,50.095,62.848,48.936,62.816,47.595z M239.794,39.292c0,0,2.838,3.693-1.867,6.279c-4.709,2.586-11.363,4.137-15.289,1.229
	c-3.928-2.907-0.564-6.734,1.461-7.495c0,0,0.299-5.925,4.728-6.813c4.43-0.891,5.976-0.057,9.823,1.611c0,0,6.199-3.931,9.594-2.11
	c3.393,1.821,4.283,5.742,3.5,6.429c0,0,5.242,4.324-0.397,10.177c-5.641,5.853-8.194,7.298-13.207,8.214
	c-5.012,0.916-10.2,0.286-16.71-2.264c-6.51-2.551-10.736-2.321-17.06,5.027c0,0,2.528-5.824,8.17-8.135
	c5.646-2.31,10.581-0.666,15.975,1.076c5.396,1.74,10.103-0.338,13.239-3.074c3.137-2.737,5.866-6.941,4.344-11.245
	c-1.522-4.302-5.42-2.831-6.104-2.602c-0.684,0.228-4.938-0.375-7.492,1.068c0,0-4.199,2.841-2.653,5.952
	c1.548,3.111,3.774,2.453,5.85,1.589C237.772,43.343,239.847,41.468,239.794,39.292z M267.185,48.393c0,0,1.75,2.278-1.153,3.874
	c-2.901,1.596-7.009,2.551-9.431,0.758c-2.422-1.794-0.349-4.154,0.901-4.623c0,0,0.184-3.654,2.916-4.204
	c2.733-0.548,3.687-0.034,6.063,0.993c0,0,3.823-2.424,5.915-1.301c2.094,1.124,2.645,3.543,2.16,3.966c0,0,3.234,2.667-0.246,6.278
	c-3.479,3.609-5.054,4.501-8.145,5.066c-3.093,0.563-6.294,0.176-10.309-1.398c-4.017-1.571-6.625-1.428-10.524,3.105
	c0,0,1.559-3.596,5.041-5.019c3.48-1.425,6.527-0.413,9.854,0.661c3.328,1.074,6.232-0.207,8.167-1.897
	c1.935-1.688,3.62-4.283,2.68-6.935c-0.939-2.654-3.345-1.746-3.766-1.605s-3.044-0.23-4.622,0.66c0,0-2.591,1.75-1.637,3.671
	c0.954,1.92,2.329,1.515,3.608,0.982C265.938,50.893,267.216,49.735,267.185,48.393z M106.072,17.089h0.466l0.066,0.314h5.7
	l0.053-0.314h0.486l0.979,2.73l-0.6,0.213c-0.287-0.727-0.629-1.239-1.025-1.535c-0.395-0.295-0.9-0.443-1.518-0.443
	c-0.257,0-0.41,0.011-0.459,0.031c-0.05,0.02-0.084,0.055-0.103,0.102c-0.02,0.05-0.029,0.205-0.029,0.469v6.445
	c0,0.305,0.017,0.511,0.049,0.617c0.034,0.107,0.082,0.189,0.143,0.246c0.063,0.059,0.147,0.1,0.257,0.123
	c0.108,0.024,0.352,0.04,0.729,0.045v0.559h-3.582v-0.559c0.396-0.005,0.637-0.02,0.727-0.041c0.154-0.045,0.266-0.13,0.332-0.255
	s0.1-0.354,0.1-0.69v-6.578c0-0.205-0.01-0.327-0.029-0.373c-0.021-0.045-0.058-0.079-0.113-0.104
	c-0.056-0.023-0.17-0.037-0.343-0.037c-0.484,0-0.872,0.063-1.162,0.186c-0.29,0.125-0.565,0.335-0.822,0.634
	c-0.258,0.297-0.477,0.684-0.659,1.158l-0.6-0.213L106.072,17.089z M114.189,18.054v-0.571c0.43-0.059,0.765-0.126,1.004-0.202
	c0.24-0.078,0.49-0.197,0.754-0.358h0.519v4.4c0.502-0.421,0.977-0.73,1.426-0.926c0.449-0.195,0.879-0.293,1.287-0.293
	c0.596,0,1.086,0.178,1.474,0.533c0.382,0.355,0.573,0.787,0.573,1.298v3.272c0,0.323,0.025,0.534,0.077,0.636
	c0.051,0.098,0.136,0.172,0.255,0.218c0.12,0.047,0.389,0.071,0.807,0.071v0.559h-3.443v-0.559h0.254
	c0.324,0,0.537-0.025,0.639-0.076c0.103-0.051,0.177-0.137,0.225-0.253c0.045-0.118,0.068-0.362,0.068-0.729v-2.271
	c0-0.501-0.017-0.829-0.053-0.979c-0.066-0.258-0.203-0.465-0.413-0.619c-0.208-0.155-0.475-0.232-0.799-0.232
	c-0.363,0-0.745,0.089-1.142,0.268c-0.397,0.18-0.809,0.45-1.234,0.809v3.337c0,0.248,0.022,0.414,0.066,0.498
	c0.043,0.085,0.117,0.147,0.219,0.188c0.102,0.04,0.307,0.061,0.612,0.061h0.274v0.559h-3.449v-0.559h0.205
	c0.324,0,0.56-0.041,0.706-0.121c0.08-0.039,0.138-0.116,0.173-0.233c0.037-0.114,0.054-0.435,0.054-0.958v-6.766h-1.138
	L114.189,18.054L114.189,18.054z M128.891,24.974l0.426,0.346c-0.324,0.387-0.638,0.691-0.941,0.918
	c-0.305,0.227-0.592,0.385-0.863,0.477c-0.27,0.09-0.588,0.137-0.951,0.137c-0.652,0-1.209-0.133-1.665-0.4
	c-0.524-0.306-0.927-0.706-1.206-1.198c-0.279-0.493-0.418-1.074-0.418-1.743c0-0.702,0.135-1.301,0.404-1.798
	c0.272-0.499,0.65-0.89,1.137-1.177c0.486-0.285,1.048-0.43,1.688-0.43c0.475,0,0.889,0.076,1.238,0.223
	c0.351,0.15,0.648,0.373,0.892,0.672c0.245,0.299,0.423,0.641,0.532,1.025c0.064,0.227,0.099,0.52,0.107,0.877h-4.707
	c-0.014,0.219-0.021,0.381-0.021,0.488c0,0.561,0.099,1.059,0.293,1.498c0.196,0.438,0.454,0.76,0.776,0.967
	c0.322,0.206,0.685,0.311,1.096,0.311c0.346,0,0.682-0.08,1.004-0.244C128.035,25.759,128.428,25.444,128.891,24.974z
	 M128.038,22.282c-0.066-0.408-0.161-0.711-0.283-0.905c-0.122-0.195-0.296-0.351-0.52-0.466s-0.476-0.174-0.755-0.174
	s-0.543,0.059-0.786,0.174c-0.245,0.115-0.448,0.274-0.608,0.478c-0.162,0.205-0.305,0.502-0.424,0.893H128.038z M134.184,17.402
	h3.475v0.56h-0.392c-0.239,0-0.396,0.021-0.462,0.066c-0.07,0.045-0.105,0.119-0.105,0.223c0,0.089,0.043,0.21,0.128,0.36
	c0.021,0.037,0.051,0.089,0.086,0.155l1.811,3.355l2.004-3.482c0.08-0.143,0.127-0.236,0.142-0.278
	c0.016-0.042,0.023-0.085,0.023-0.13c0-0.063-0.016-0.116-0.05-0.158c-0.032-0.043-0.086-0.076-0.155-0.098
	c-0.045-0.011-0.17-0.014-0.373-0.014h-0.347v-0.56h2.872v0.56c-0.252-0.004-0.439,0.012-0.56,0.047
	c-0.123,0.035-0.223,0.092-0.301,0.165s-0.188,0.229-0.329,0.468l-2.52,4.194v2.337c0,0.342,0.027,0.564,0.084,0.666
	c0.054,0.101,0.143,0.176,0.262,0.222c0.12,0.047,0.4,0.071,0.84,0.071v0.559h-3.63v-0.559h0.28c0.297,0,0.496-0.027,0.596-0.08
	c0.1-0.053,0.179-0.141,0.236-0.259c0.04-0.085,0.059-0.292,0.059-0.62l0.001-2.091l-2.459-4.368
	c-0.194-0.354-0.357-0.565-0.488-0.635s-0.375-0.109-0.729-0.117L134.184,17.402L134.184,17.402z M149.07,24.974l0.426,0.346
	c-0.322,0.387-0.638,0.691-0.941,0.918c-0.305,0.227-0.592,0.385-0.862,0.477c-0.271,0.09-0.588,0.137-0.952,0.137
	c-0.652,0-1.207-0.133-1.664-0.4c-0.523-0.306-0.926-0.706-1.205-1.198c-0.279-0.493-0.42-1.074-0.42-1.743
	c0-0.702,0.136-1.301,0.406-1.798c0.271-0.499,0.649-0.89,1.136-1.177c0.485-0.285,1.049-0.43,1.688-0.43
	c0.475,0,0.888,0.076,1.237,0.223c0.352,0.15,0.649,0.373,0.893,0.672c0.244,0.299,0.422,0.641,0.534,1.025
	c0.06,0.227,0.097,0.52,0.105,0.877h-4.707c-0.014,0.219-0.02,0.381-0.02,0.488c0,0.561,0.097,1.059,0.293,1.498
	c0.194,0.438,0.454,0.76,0.775,0.967c0.321,0.206,0.687,0.311,1.095,0.311c0.347,0,0.682-0.08,1.005-0.244
	S148.608,25.444,149.07,24.974z M148.219,22.282c-0.068-0.408-0.162-0.711-0.283-0.905c-0.122-0.195-0.295-0.351-0.519-0.466
	c-0.226-0.115-0.476-0.174-0.757-0.174c-0.279,0-0.541,0.059-0.785,0.174c-0.243,0.115-0.447,0.274-0.609,0.478
	c-0.162,0.205-0.303,0.502-0.422,0.893H148.219z M155.255,22.836l0.001-0.726c0-0.494-0.138-0.846-0.414-1.057
	c-0.274-0.211-0.663-0.316-1.167-0.316c-0.249,0-0.466,0.031-0.653,0.09c-0.188,0.061-0.338,0.143-0.451,0.248
	c-0.113,0.103-0.195,0.223-0.249,0.355c-0.024,0.049-0.077,0.237-0.162,0.564c-0.101,0.399-0.309,0.602-0.617,0.602
	c-0.179,0-0.321-0.061-0.43-0.178c-0.11-0.116-0.165-0.275-0.165-0.477c0-0.293,0.109-0.58,0.328-0.861
	c0.217-0.283,0.55-0.516,0.994-0.699c0.447-0.184,0.974-0.277,1.581-0.277c0.57,0,1.055,0.088,1.459,0.264
	c0.403,0.176,0.7,0.427,0.892,0.756c0.135,0.225,0.2,0.639,0.2,1.236v2.56c0,0.364,0.012,0.601,0.032,0.712
	c0.05,0.191,0.135,0.334,0.258,0.429c0.121,0.096,0.28,0.143,0.476,0.143c0.204,0,0.448-0.046,0.732-0.14v0.58
	c-0.368,0.105-0.698,0.16-0.99,0.16c-0.316,0-0.582-0.045-0.795-0.133c-0.217-0.089-0.393-0.219-0.531-0.39
	c-0.136-0.171-0.227-0.374-0.266-0.61c-0.533,0.418-1.016,0.711-1.445,0.879c-0.43,0.169-0.865,0.254-1.304,0.254
	c-0.613,0-1.11-0.166-1.492-0.5c-0.383-0.332-0.573-0.723-0.573-1.172c0-0.271,0.07-0.527,0.209-0.772
	c0.141-0.245,0.355-0.459,0.641-0.645c0.287-0.187,0.736-0.351,1.352-0.493C153.314,23.079,154.166,22.95,155.255,22.836z
	 M155.251,23.415c-1.03,0.15-1.667,0.255-1.911,0.313c-0.484,0.111-0.831,0.233-1.039,0.366c-0.209,0.134-0.358,0.275-0.446,0.43
	c-0.089,0.153-0.134,0.315-0.134,0.489c0,0.173,0.051,0.34,0.15,0.502c0.1,0.163,0.241,0.289,0.424,0.384
	c0.181,0.092,0.375,0.14,0.577,0.14c0.291,0,0.616-0.069,0.979-0.207c0.365-0.137,0.832-0.406,1.399-0.805v-1.612H155.251
	L155.251,23.415z M158.365,21.218v-0.553c0.323-0.025,0.611-0.08,0.863-0.162c0.251-0.08,0.539-0.213,0.863-0.398h0.497v1.26
	c0.315-0.387,0.683-0.693,1.099-0.92c0.417-0.226,0.792-0.34,1.125-0.34c0.329,0,0.588,0.08,0.779,0.234s0.287,0.343,0.287,0.564
	c0,0.16-0.064,0.303-0.189,0.424c-0.127,0.123-0.28,0.184-0.456,0.184c-0.081,0-0.149-0.012-0.208-0.033
	c-0.056-0.023-0.142-0.071-0.252-0.148c-0.244-0.159-0.448-0.239-0.613-0.239c-0.222,0-0.465,0.095-0.732,0.282
	c-0.337,0.238-0.603,0.475-0.792,0.703v3.07c0,0.268,0.014,0.447,0.043,0.543c0.027,0.096,0.076,0.177,0.143,0.246
	c0.066,0.07,0.149,0.119,0.246,0.151c0.099,0.029,0.269,0.046,0.514,0.046h0.219v0.559h-3.442v-0.559h0.286
	c0.272,0,0.45-0.025,0.533-0.072c0.115-0.069,0.201-0.161,0.256-0.278c0.057-0.118,0.084-0.329,0.084-0.636v-3.928
	C159.518,21.218,158.365,21.218,158.365,21.218z M172.095,20.104c0.651,0,1.218,0.136,1.694,0.406
	c0.478,0.271,0.854,0.667,1.128,1.186c0.276,0.52,0.413,1.113,0.413,1.779c0,0.665-0.141,1.257-0.422,1.776
	c-0.283,0.521-0.666,0.916-1.152,1.189c-0.486,0.273-1.066,0.41-1.74,0.41c-1.074,0-1.882-0.336-2.421-1.006s-0.81-1.457-0.81-2.363
	c0-0.662,0.141-1.249,0.419-1.762c0.28-0.512,0.672-0.909,1.176-1.191C170.884,20.247,171.455,20.104,172.095,20.104z
	 M172.042,20.752c-0.507,0-0.934,0.198-1.284,0.599c-0.445,0.498-0.666,1.221-0.666,2.17c0,0.914,0.188,1.611,0.565,2.091
	c0.342,0.427,0.807,0.641,1.393,0.641c0.377,0,0.713-0.101,1.008-0.3c0.295-0.2,0.535-0.52,0.715-0.957
	c0.184-0.436,0.274-0.95,0.274-1.541c0-0.577-0.099-1.094-0.292-1.551c-0.152-0.363-0.379-0.646-0.683-0.85
	C172.767,20.852,172.425,20.752,172.042,20.752z M176.329,20.265h1.14v-0.998c0-0.689,0.228-1.252,0.682-1.689
	c0.454-0.438,1.05-0.655,1.781-0.655c0.488,0,0.869,0.102,1.143,0.307c0.272,0.203,0.409,0.426,0.409,0.665
	c0,0.159-0.055,0.294-0.162,0.403c-0.11,0.108-0.246,0.163-0.412,0.163c-0.147,0-0.272-0.026-0.379-0.079
	c-0.105-0.055-0.271-0.188-0.492-0.4c-0.235-0.221-0.459-0.333-0.673-0.333c-0.146,0-0.277,0.046-0.396,0.138
	c-0.118,0.091-0.208,0.223-0.273,0.398c-0.065,0.176-0.096,0.445-0.096,0.809v1.271h1.251v0.68h-1.251v4.321
	c0,0.298,0.02,0.497,0.066,0.595c0.043,0.101,0.109,0.171,0.2,0.211c0.087,0.04,0.295,0.061,0.617,0.061h0.274v0.559h-3.43v-0.559
	h0.208c0.35,0,0.572-0.022,0.668-0.067s0.163-0.116,0.207-0.216c0.042-0.1,0.06-0.328,0.057-0.684v-4.221h-1.14L176.329,20.265
	L176.329,20.265z M91.115,0.479h0.48l0.844,3.096L91.82,3.749c-0.333-0.715-0.586-1.193-0.759-1.439
	c-0.284-0.395-0.638-0.707-1.062-0.938c-0.425-0.231-0.893-0.346-1.402-0.346c-0.6,0-1.15,0.16-1.654,0.482
	c-0.504,0.323-0.912,0.794-1.226,1.415c-0.313,0.622-0.47,1.323-0.47,2.1c0,0.8,0.159,1.513,0.477,2.14s0.746,1.107,1.289,1.445
	c0.541,0.338,1.125,0.507,1.75,0.507c0.591,0,1.195-0.169,1.811-0.508c0.616-0.338,1.151-0.813,1.604-1.423l0.533,0.367
	c-0.275,0.408-0.572,0.754-0.892,1.038c-0.506,0.456-1.031,0.794-1.578,1.013c-0.546,0.217-1.145,0.325-1.797,0.325
	c-1.443,0-2.615-0.536-3.516-1.604c-0.746-0.889-1.119-1.943-1.119-3.17c0-0.901,0.207-1.718,0.619-2.446
	c0.413-0.731,0.983-1.31,1.708-1.742c0.726-0.431,1.508-0.646,2.347-0.646c0.449,0,0.865,0.061,1.249,0.184s0.772,0.318,1.168,0.588
	L91.115,0.479z M93.651,1.132V0.56c0.431-0.058,0.766-0.125,1.005-0.203c0.24-0.078,0.49-0.197,0.753-0.357h0.52v4.402
	c0.502-0.422,0.977-0.73,1.427-0.926c0.449-0.195,0.878-0.293,1.287-0.293c0.596,0,1.086,0.178,1.473,0.533
	c0.383,0.355,0.574,0.786,0.574,1.299v3.268c0,0.324,0.025,0.537,0.076,0.637s0.137,0.174,0.256,0.219
	c0.121,0.047,0.389,0.07,0.807,0.07v0.56h-3.443v-0.56h0.254c0.324,0,0.537-0.025,0.639-0.076c0.102-0.05,0.178-0.135,0.223-0.252
	c0.047-0.117,0.07-0.361,0.07-0.732V5.881c0-0.502-0.018-0.828-0.053-0.98c-0.066-0.256-0.204-0.464-0.413-0.618
	c-0.209-0.154-0.475-0.233-0.799-0.233c-0.364,0-0.745,0.09-1.142,0.27c-0.398,0.182-0.81,0.449-1.235,0.809v3.335
	c0,0.249,0.022,0.415,0.066,0.5c0.044,0.084,0.117,0.145,0.22,0.186c0.102,0.04,0.307,0.06,0.612,0.06h0.273v0.56h-3.449V9.21h0.206
	c0.324,0,0.56-0.039,0.706-0.119c0.08-0.041,0.138-0.117,0.173-0.232c0.036-0.116,0.054-0.437,0.054-0.959V1.134h-1.14L93.651,1.132
	L93.651,1.132z M102.599,4.294V3.743c0.369-0.045,0.678-0.105,0.93-0.186c0.25-0.077,0.535-0.202,0.855-0.374h0.486v5.34
	c0,0.186,0.025,0.326,0.079,0.42s0.128,0.16,0.224,0.202c0.096,0.044,0.27,0.064,0.522,0.064h0.314v0.56h-3.41v-0.56h0.273
	c0.297,0,0.497-0.026,0.6-0.08c0.102-0.053,0.174-0.127,0.217-0.227c0.041-0.098,0.063-0.326,0.063-0.684V4.294H102.599
	L102.599,4.294z M104.291,0.181c0.213,0,0.395,0.072,0.547,0.222c0.15,0.149,0.226,0.33,0.226,0.544
	c0,0.213-0.075,0.394-0.226,0.544c-0.151,0.151-0.334,0.228-0.547,0.228s-0.395-0.076-0.546-0.228
	c-0.15-0.15-0.226-0.331-0.226-0.544c0-0.214,0.075-0.395,0.226-0.544C103.896,0.253,104.078,0.181,104.291,0.181z M106.748,4.294
	V3.743c0.395-0.045,0.689-0.099,0.886-0.16c0.195-0.064,0.478-0.195,0.846-0.4h0.479v1.264c0.585-0.49,1.084-0.824,1.499-1
	c0.415-0.177,0.835-0.264,1.261-0.264c0.363,0,0.684,0.061,0.963,0.183c0.279,0.124,0.507,0.287,0.682,0.495
	c0.176,0.211,0.292,0.447,0.35,0.715c0.035,0.164,0.053,0.411,0.053,0.744v2.93c0,0.352,0.025,0.576,0.076,0.676
	c0.052,0.102,0.133,0.172,0.244,0.217c0.11,0.045,0.383,0.066,0.818,0.066v0.56h-3.422v-0.56h0.186c0.32,0,0.537-0.029,0.653-0.086
	c0.115-0.059,0.198-0.143,0.25-0.254c0.051-0.109,0.076-0.337,0.076-0.679V5.741c0-0.507-0.042-0.856-0.124-1.054
	c-0.081-0.195-0.221-0.353-0.418-0.476c-0.198-0.122-0.447-0.184-0.75-0.184c-0.359,0-0.743,0.093-1.152,0.276
	c-0.408,0.185-0.803,0.457-1.185,0.816v3.069c0,0.347,0.025,0.576,0.077,0.692c0.051,0.115,0.134,0.201,0.249,0.26
	c0.08,0.045,0.293,0.066,0.64,0.066h0.193v0.56h-3.436v-0.56h0.167c0.33,0,0.556-0.027,0.677-0.084
	c0.119-0.055,0.205-0.152,0.254-0.295c0.027-0.07,0.04-0.316,0.04-0.732V4.292h-1.132V4.294z M121.443,8.05l0.426,0.346
	c-0.324,0.387-0.639,0.693-0.942,0.919c-0.304,0.228-0.592,0.386-0.862,0.476c-0.27,0.092-0.588,0.138-0.952,0.138
	c-0.652,0-1.208-0.134-1.665-0.4c-0.523-0.306-0.925-0.704-1.205-1.198c-0.279-0.493-0.419-1.074-0.419-1.743
	c0-0.702,0.136-1.302,0.406-1.798c0.271-0.498,0.65-0.89,1.136-1.177c0.485-0.284,1.049-0.429,1.688-0.429
	c0.475,0,0.888,0.074,1.238,0.223c0.35,0.148,0.648,0.372,0.892,0.672c0.244,0.297,0.422,0.641,0.532,1.025
	c0.063,0.226,0.098,0.518,0.106,0.877h-4.707c-0.014,0.219-0.02,0.381-0.02,0.486c0,0.561,0.097,1.061,0.293,1.498
	c0.195,0.438,0.453,0.76,0.775,0.967c0.321,0.207,0.686,0.31,1.095,0.31c0.347,0,0.682-0.079,1.005-0.241
	C120.587,8.836,120.98,8.52,121.443,8.05z M120.59,5.36c-0.067-0.408-0.161-0.712-0.282-0.906c-0.123-0.195-0.296-0.352-0.52-0.465
	c-0.225-0.115-0.477-0.175-0.756-0.175c-0.28,0-0.543,0.06-0.786,0.175c-0.244,0.113-0.447,0.273-0.61,0.479
	c-0.161,0.205-0.302,0.501-0.422,0.892H120.59z M127.341,3.343h0.468l0.598,2.037l-0.599,0.201c-0.24-0.549-0.576-0.977-1.01-1.289
	c-0.432-0.313-0.871-0.469-1.314-0.469c-0.342,0-0.619,0.082-0.832,0.248s-0.32,0.359-0.32,0.576c0,0.203,0.078,0.379,0.233,0.525
	c0.151,0.152,0.49,0.322,1.018,0.514l1.299,0.459c0.732,0.261,1.231,0.541,1.498,0.84c0.262,0.301,0.393,0.643,0.393,1.025
	c0,0.324-0.098,0.634-0.293,0.936c-0.195,0.298-0.479,0.536-0.849,0.715c-0.371,0.178-0.796,0.267-1.275,0.267
	c-0.745,0-1.385-0.214-1.917-0.64l-0.141,0.48h-0.474l-0.831-2.179l0.6-0.239c0.404,0.64,0.787,1.092,1.146,1.357
	c0.502,0.378,1.045,0.566,1.627,0.566c0.387,0,0.705-0.102,0.954-0.31c0.249-0.206,0.374-0.435,0.374-0.689
	c0-0.209-0.078-0.399-0.233-0.573c-0.159-0.167-0.466-0.333-0.919-0.492l-1.538-0.56c-0.661-0.24-1.121-0.5-1.378-0.786
	c-0.258-0.283-0.387-0.608-0.387-0.978c0-0.449,0.211-0.845,0.629-1.189c0.42-0.344,0.953-0.516,1.602-0.516
	c0.338,0,0.64,0.043,0.906,0.131c0.266,0.086,0.528,0.229,0.785,0.43L127.341,3.343z M135.624,8.05l0.426,0.346
	c-0.324,0.387-0.638,0.693-0.942,0.919c-0.304,0.228-0.591,0.386-0.862,0.476c-0.27,0.092-0.588,0.138-0.951,0.138
	c-0.652,0-1.208-0.134-1.665-0.4c-0.523-0.306-0.925-0.704-1.205-1.198c-0.28-0.493-0.419-1.074-0.419-1.743
	c0-0.702,0.135-1.302,0.406-1.798c0.27-0.498,0.648-0.89,1.135-1.177c0.485-0.284,1.049-0.429,1.688-0.429
	c0.476,0,0.889,0.074,1.238,0.223c0.351,0.148,0.648,0.372,0.893,0.672c0.244,0.297,0.422,0.641,0.533,1.025
	c0.063,0.226,0.097,0.518,0.105,0.877h-4.707c-0.014,0.219-0.02,0.381-0.02,0.486c0,0.561,0.098,1.061,0.293,1.498
	c0.195,0.438,0.453,0.76,0.775,0.967s0.687,0.31,1.096,0.31c0.346,0,0.682-0.079,1.005-0.241
	C134.769,8.836,135.163,8.52,135.624,8.05z M134.772,5.36c-0.066-0.408-0.161-0.712-0.282-0.906
	c-0.123-0.195-0.296-0.352-0.52-0.465c-0.225-0.115-0.477-0.175-0.756-0.175s-0.542,0.06-0.786,0.175
	c-0.243,0.113-0.447,0.273-0.609,0.479c-0.161,0.205-0.303,0.501-0.423,0.892H134.772z M141.478,0.479h2.847l4.222,6.965v-5.3
	c0-0.317-0.03-0.546-0.093-0.684s-0.154-0.243-0.278-0.315c-0.125-0.07-0.309-0.107-0.554-0.107h-0.238V0.479h3.103v0.559h-0.166
	c-0.274,0-0.459,0.022-0.557,0.068c-0.137,0.061-0.24,0.176-0.309,0.342c-0.067,0.164-0.102,0.395-0.102,0.696v7.624h-0.807
	l-5.091-8.37V8.03c0,0.368,0.011,0.592,0.033,0.672c0.031,0.102,0.088,0.195,0.17,0.279c0.082,0.086,0.179,0.143,0.289,0.174
	c0.111,0.031,0.336,0.048,0.673,0.053v0.56h-3.143v-0.56h0.167c0.318,0,0.535-0.03,0.648-0.093s0.201-0.169,0.264-0.32
	c0.063-0.15,0.093-0.405,0.093-0.765V2.144c0-0.372-0.009-0.597-0.026-0.677c-0.04-0.153-0.117-0.261-0.23-0.328
	c-0.112-0.068-0.338-0.102-0.676-0.102h-0.239L141.478,0.479L141.478,0.479z M157.163,8.05l0.427,0.346
	c-0.323,0.387-0.639,0.693-0.941,0.919c-0.306,0.228-0.593,0.386-0.864,0.476c-0.27,0.092-0.589,0.138-0.951,0.138
	c-0.653,0-1.209-0.134-1.666-0.4c-0.523-0.306-0.925-0.704-1.205-1.198c-0.279-0.493-0.418-1.074-0.418-1.743
	c0-0.702,0.135-1.302,0.405-1.798c0.271-0.498,0.65-0.89,1.136-1.177c0.485-0.284,1.048-0.429,1.688-0.429
	c0.475,0,0.889,0.074,1.24,0.223c0.351,0.148,0.648,0.372,0.892,0.672c0.244,0.297,0.421,0.641,0.533,1.025
	c0.063,0.226,0.097,0.518,0.105,0.877h-4.708c-0.014,0.219-0.019,0.381-0.019,0.486c0,0.561,0.097,1.061,0.292,1.498
	c0.196,0.438,0.454,0.76,0.775,0.967c0.323,0.207,0.688,0.31,1.096,0.31c0.346,0,0.683-0.079,1.006-0.241
	C156.309,8.836,156.701,8.52,157.163,8.05z M156.312,5.36c-0.068-0.408-0.162-0.712-0.285-0.906
	c-0.121-0.195-0.295-0.352-0.52-0.465c-0.225-0.115-0.475-0.175-0.755-0.175c-0.279,0-0.543,0.06-0.785,0.175
	c-0.244,0.113-0.447,0.273-0.61,0.479c-0.162,0.205-0.304,0.501-0.423,0.892H156.312z M158.056,3.343h3.065v0.56h-0.213
	c-0.262,0-0.435,0.019-0.521,0.059c-0.133,0.063-0.2,0.161-0.2,0.294c0,0.125,0.053,0.324,0.154,0.6l1.379,3.641l1.344-3.379
	l-0.125-0.314c-0.137-0.36-0.297-0.61-0.479-0.747c-0.119-0.09-0.298-0.141-0.532-0.153v-0.56h3.055v0.56h-0.259
	c-0.245,0-0.402,0.019-0.474,0.059c-0.124,0.071-0.186,0.185-0.186,0.342c0,0.132,0.048,0.315,0.14,0.552l1.38,3.641l1.346-3.695
	c0.07-0.199,0.109-0.311,0.115-0.339c0.011-0.05,0.017-0.101,0.017-0.153c0-0.125-0.047-0.222-0.146-0.297
	c-0.097-0.072-0.276-0.108-0.54-0.108h-0.246v-0.56h2.583v0.56c-0.19,0.009-0.346,0.042-0.466,0.1
	c-0.119,0.058-0.214,0.134-0.287,0.226c-0.069,0.094-0.169,0.303-0.298,0.627l-1.948,4.914h-0.803l-1.536-3.83l-1.515,3.83h-0.793
	l-1.968-4.914c-0.124-0.314-0.226-0.523-0.305-0.627c-0.081-0.101-0.179-0.182-0.296-0.238c-0.119-0.059-0.267-0.087-0.444-0.087
	V3.343H158.056L158.056,3.343z M173.089,0.479h3.479v0.559h-0.393c-0.24,0-0.395,0.022-0.465,0.068
	c-0.067,0.045-0.101,0.119-0.101,0.221c0,0.091,0.04,0.211,0.125,0.362c0.022,0.036,0.051,0.088,0.088,0.154l1.81,3.355l2.004-3.48
	c0.08-0.143,0.128-0.236,0.145-0.279c0.014-0.041,0.021-0.086,0.021-0.131c0-0.063-0.017-0.115-0.049-0.158
	s-0.086-0.074-0.156-0.097c-0.043-0.009-0.17-0.015-0.374-0.015h-0.346V0.479h2.874v0.559c-0.254-0.004-0.441,0.012-0.563,0.048
	c-0.123,0.036-0.223,0.092-0.3,0.166c-0.078,0.073-0.188,0.23-0.329,0.467l-2.52,4.192v2.338c0,0.342,0.026,0.565,0.083,0.666
	c0.055,0.102,0.143,0.178,0.263,0.223c0.12,0.047,0.399,0.07,0.838,0.07v0.56h-3.629v-0.56h0.28c0.298,0,0.498-0.026,0.597-0.08
	c0.099-0.053,0.179-0.138,0.235-0.26c0.041-0.084,0.061-0.291,0.061-0.619l0.001-2.09l-2.46-4.367
	c-0.193-0.353-0.357-0.566-0.488-0.636c-0.131-0.07-0.372-0.108-0.73-0.118L173.089,0.479L173.089,0.479z M187.977,8.05l0.428,0.346
	c-0.324,0.387-0.638,0.693-0.943,0.919c-0.303,0.228-0.59,0.386-0.86,0.476c-0.272,0.092-0.589,0.138-0.953,0.138
	c-0.653,0-1.208-0.134-1.664-0.4c-0.524-0.306-0.925-0.704-1.206-1.198c-0.279-0.493-0.419-1.074-0.419-1.743
	c0-0.702,0.135-1.302,0.407-1.798c0.27-0.498,0.647-0.89,1.135-1.177c0.487-0.284,1.049-0.429,1.688-0.429
	c0.475,0,0.888,0.074,1.238,0.223c0.35,0.148,0.648,0.372,0.893,0.672c0.244,0.297,0.422,0.641,0.532,1.025
	c0.063,0.226,0.097,0.518,0.107,0.877h-4.708c-0.014,0.219-0.02,0.381-0.02,0.486c0,0.561,0.099,1.061,0.294,1.498
	c0.193,0.438,0.453,0.76,0.776,0.967c0.321,0.207,0.685,0.31,1.093,0.31c0.348,0,0.683-0.079,1.007-0.241
	C187.122,8.836,187.517,8.52,187.977,8.05z M187.125,5.36c-0.065-0.408-0.16-0.712-0.283-0.906
	c-0.121-0.195-0.295-0.352-0.517-0.465c-0.225-0.115-0.478-0.175-0.756-0.175c-0.28,0-0.543,0.06-0.787,0.175
	c-0.243,0.113-0.447,0.273-0.607,0.479c-0.163,0.205-0.306,0.501-0.425,0.892H187.125z M194.163,5.911V5.186
	c0-0.492-0.138-0.844-0.413-1.055c-0.277-0.212-0.666-0.317-1.168-0.317c-0.248,0-0.467,0.03-0.652,0.091
	c-0.189,0.06-0.338,0.142-0.45,0.246c-0.114,0.105-0.199,0.223-0.251,0.355c-0.025,0.049-0.077,0.237-0.161,0.568
	c-0.103,0.398-0.309,0.598-0.618,0.598c-0.18,0-0.322-0.059-0.432-0.176c-0.108-0.117-0.162-0.278-0.162-0.477
	c0-0.293,0.109-0.581,0.326-0.863c0.217-0.281,0.548-0.514,0.997-0.697c0.444-0.185,0.972-0.277,1.58-0.277
	c0.567,0,1.054,0.087,1.458,0.262c0.404,0.176,0.703,0.428,0.892,0.756c0.132,0.227,0.2,0.639,0.2,1.236v2.561
	c0,0.364,0.013,0.602,0.033,0.713c0.05,0.191,0.134,0.334,0.258,0.428c0.121,0.096,0.28,0.145,0.475,0.145
	c0.205,0,0.447-0.047,0.732-0.142V9.72c-0.367,0.107-0.698,0.16-0.992,0.16c-0.315,0-0.581-0.044-0.797-0.133
	c-0.215-0.088-0.389-0.219-0.527-0.389c-0.139-0.17-0.228-0.373-0.266-0.609c-0.532,0.418-1.016,0.711-1.445,0.879
	c-0.432,0.168-0.866,0.252-1.305,0.252c-0.613,0-1.109-0.166-1.492-0.498c-0.382-0.334-0.573-0.725-0.573-1.172
	c0-0.271,0.07-0.528,0.209-0.773c0.141-0.244,0.354-0.459,0.641-0.646c0.287-0.186,0.737-0.35,1.35-0.491
	C192.222,6.156,193.074,6.027,194.163,5.911z M194.158,6.491c-1.029,0.152-1.668,0.256-1.911,0.314
	c-0.484,0.109-0.831,0.232-1.04,0.365c-0.207,0.133-0.356,0.275-0.444,0.43c-0.091,0.152-0.134,0.316-0.134,0.489
	c0,0.173,0.049,0.341,0.15,0.503c0.1,0.162,0.238,0.289,0.422,0.383c0.183,0.094,0.375,0.14,0.579,0.14
	c0.288,0,0.616-0.069,0.979-0.206c0.366-0.139,0.83-0.407,1.399-0.807V6.491L194.158,6.491z M197.271,4.294V3.743
	c0.323-0.027,0.611-0.082,0.862-0.162c0.254-0.082,0.541-0.213,0.864-0.398h0.496v1.258c0.318-0.385,0.685-0.691,1.101-0.918
	c0.418-0.228,0.792-0.34,1.126-0.34c0.328,0,0.586,0.078,0.777,0.232c0.191,0.156,0.289,0.344,0.289,0.566
	c0,0.16-0.066,0.301-0.191,0.424c-0.126,0.121-0.278,0.182-0.455,0.182c-0.081,0-0.15-0.01-0.207-0.034
	c-0.059-0.022-0.142-0.069-0.254-0.143c-0.242-0.16-0.449-0.24-0.613-0.24c-0.221,0-0.466,0.092-0.731,0.277
	c-0.337,0.24-0.601,0.477-0.792,0.707v3.07c0,0.267,0.016,0.445,0.045,0.541c0.027,0.096,0.074,0.178,0.142,0.248
	c0.066,0.069,0.148,0.119,0.245,0.148c0.1,0.031,0.268,0.047,0.514,0.047h0.221v0.56h-3.443v-0.56h0.285
	c0.271,0,0.45-0.023,0.533-0.074c0.116-0.064,0.2-0.158,0.256-0.275c0.057-0.118,0.086-0.328,0.086-0.635v-3.93L197.271,4.294
	L197.271,4.294z M85.465,32.547h4.775l9.925,19.926l9.963-19.926h5.413v0.526c-3.496,0.338-3.834,0.714-3.684,4.474l0.263,13.348
	c0.112,3.871,0.263,4.36,3.797,4.662v0.525h-9.211v-0.525c3.308-0.265,3.421-0.752,3.384-4.662l-0.151-15.791h-0.15L99.6,55.669
	h-0.338l-9.249-19.287h-0.076l-0.488,10.149c-0.113,1.769-0.15,3.048-0.15,4.063c0,3.609,0.375,4.623,3.872,4.963v0.525h-9.06
	v-0.525c2.331-0.189,3.121-0.827,3.421-2.332c0.263-1.127,0.564-3.384,0.827-7.256l0.526-6.88c0.037-1.016,0.075-1.843,0.075-2.52
	c0-2.668-0.639-3.158-3.497-3.496v-0.526C85.463,32.547,85.465,32.547,85.465,32.547z M133.491,55.557
	c2.181-0.151,2.782-0.715,2.782-2.972v-7.556c0-2.519-0.263-2.67-2.368-3.084v-0.488c1.503-0.375,3.007-0.715,4.172-1.578v3.119
	c0.752-0.45,1.692-1.128,2.858-1.916c1.053-0.641,1.992-1.053,3.045-1.053c3.121,0,4.887,1.916,4.887,4.888v7.481
	c0,2.632,0.339,3.007,2.444,3.158v0.525h-7.255v-0.525c2.556-0.151,3.007-0.678,3.007-3.158v-6.166c0-2.144-0.602-4.55-4.06-4.55
	c-1.843,0-3.76,1.129-4.926,2.294v8.459c0,2.406,0.376,2.97,2.97,3.121v0.525h-7.557v-0.524H133.491z M152.625,55.557
	c2.595-0.151,2.971-0.678,2.971-3.121V35.029c0-2.519-0.264-2.895-2.782-3.158V31.42c1.917-0.226,3.947-0.978,4.586-1.278V47.55
	c1.579-0.415,2.105-0.678,2.633-1.128c1.578-1.392,3.607-4.136,3.607-4.625c0-0.376-0.487-0.527-1.578-0.677v-0.564l7.368-0.338
	v0.601c-2.781,0.451-3.796,0.752-8.571,6.166c0.827,1.053,5.076,5.641,6.277,6.579c1.692,1.468,2.482,2.106,3.609,1.994v0.525
	l-3.908,0.075c-2.182-2.029-4.775-5.112-6.918-7.181c-0.603-0.64-1.128-0.94-1.617-0.94c-0.188,0-0.564,0.076-0.902,0.226v4.174
	c0,2.443,0.376,2.97,2.933,3.121v0.525h-7.707L152.625,55.557C152.626,55.557,152.625,55.557,152.625,55.557z M182.937,53.225
	c-2.219,2.557-4.776,3.27-5.64,3.27c-4.435,0-7.181-3.534-7.181-7.519c0-5.527,4.511-8.947,7.558-8.947
	c3.232,0,5.563,2.631,5.563,5.3c0,0.753-0.038,0.865-0.64,0.978c-0.602,0.114-5.413,0.526-10.603,0.677
	c-0.037,5.716,3.384,7.746,5.978,7.746c1.278,0,2.632-0.264,4.55-2.069L182.937,53.225z M172.222,45.78
	c0.864,0,6.166-0.075,7.782-0.112c0.94,0,0.94-0.376,0.94-0.602c0-2.104-1.581-3.984-4.286-3.984
	C174.777,41.082,172.785,42.735,172.222,45.78z M184.176,40.441h6.88v0.526c-1.316,0.265-1.956,0.489-1.956,1.241
	c0,0.226,0.075,0.564,0.264,0.94l4.06,10c0.565-1.166,4.211-8.873,4.211-10.754c0-0.976-0.639-1.201-2.181-1.428V40.44h7.031v0.526
	c-2.105,0.265-2.256,0.715-3.422,2.707c-1.128,1.918-2.481,5.002-5.601,11.43c-2.744,5.639-3.761,7.783-4.287,9.774
	c-0.188,0.564-0.6,0.753-1.091,0.753c-0.902,0-1.69-0.753-1.69-1.54c0-0.527,0.413-0.791,0.939-1.167
	c2.744-1.881,4.624-6.843,4.624-7.256c0-0.452-2.218-6.655-4.36-11.843c-0.828-1.917-1.091-2.482-3.421-2.858V40.441L184.176,40.441
	z"/>
<path fill="#FF2929" d="M123.197,37.602c-3.545,0-9.283,2.826-9.283,9.663c0,4.598,3.797,8.817,9.367,8.817
	c4.051,0,9.283-3.207,9.283-9.578C132.564,41.609,128.513,37.601,123.197,37.602z M120.812,46.821
	c-0.184,0.291-0.307,0.517-0.371,0.679c-0.063,0.162-0.115,0.376-0.155,0.644c-0.041,0.268-0.066,0.536-0.076,0.805
	c-0.01,0.271,0.006,0.663,0.046,1.179c0.02,0.35,0.046,0.627,0.08,0.825l0.13,0.815c0.047,0.359,0.084,0.583,0.111,0.673l0.15,0.572
	c0.014,0.093,0.01,0.172-0.01,0.235c-0.019,0.065-0.078,0.126-0.171,0.184c-0.094,0.059-0.216,0.069-0.371,0.031
	c-0.12-0.023-0.208-0.072-0.266-0.145c-0.057-0.073-0.095-0.18-0.116-0.319l-0.11-0.547c-0.027-0.118-0.064-0.344-0.109-0.67
	c-0.048-0.327-0.083-0.582-0.106-0.762c-0.024-0.18-0.046-0.432-0.065-0.754c-0.021-0.323-0.027-0.655-0.021-0.996
	c0-0.498,0.037-0.923,0.11-1.274c0.073-0.349,0.207-0.716,0.4-1.099l0.452-0.83c0.133-0.249,0.188-0.443,0.161-0.581
	c-0.054-0.249-0.188-0.403-0.402-0.464l-0.369-0.124c-0.402,0.618-0.671,1.055-0.808,1.308c-0.137,0.254-0.241,0.477-0.311,0.671
	s-0.134,0.423-0.191,0.684c-0.057,0.264-0.09,0.448-0.1,0.556c-0.011,0.11-0.019,0.369-0.026,0.779c-0.013,0.458-0.013,0.75,0,0.876
	c0.014,0.128-0.012,0.241-0.075,0.345c-0.064,0.105-0.175,0.152-0.335,0.149c-0.134,0-0.24-0.049-0.321-0.146
	s-0.121-0.23-0.121-0.401l-0.03-0.658c-0.007-0.262,0.004-0.515,0.03-0.759c0.047-0.467,0.143-0.893,0.286-1.28
	c0.144-0.389,0.336-0.802,0.577-1.242c0.24-0.439,0.412-0.772,0.515-0.992c0.104-0.222,0.156-0.398,0.156-0.533l0.029-0.734
	c-0.307,0.082-0.598,0.179-0.872,0.299s-0.454,0.19-0.541,0.207c-0.086,0.02-0.188,0.01-0.3-0.028
	c-0.114-0.036-0.186-0.098-0.216-0.187c-0.031-0.087-0.017-0.176,0.04-0.268c0.059-0.09,0.635-0.3,1.732-0.633
	c-0.067-0.211-0.13-0.386-0.19-0.525c-0.06-0.138-0.157-0.302-0.287-0.49c-0.13-0.19-0.246-0.339-0.345-0.45l-0.321-0.333
	c-0.141-0.157-0.181-0.283-0.121-0.381c0.061-0.097,0.159-0.146,0.296-0.148c0.137-0.001,0.266,0.026,0.386,0.088
	c0.113,0.067,0.257,0.202,0.431,0.397c0.174,0.197,0.313,0.365,0.417,0.509c0.104,0.143,0.202,0.318,0.296,0.525l0.28,0.643
	l0.872-0.22c-0.027-0.116-0.04-0.203-0.04-0.265l0.01-0.346c0-0.193,0.012-0.34,0.035-0.44c0.023-0.103,0.1-0.177,0.23-0.224
	c0.13-0.046,0.252-0.039,0.366,0.017c0.113,0.059,0.184,0.153,0.211,0.288l-0.08,0.644c-0.027,0.192,0,0.389,0.08,0.588
	c0.113,0.303,0.294,0.58,0.541,0.826c0.248,0.247,0.371,0.403,0.371,0.474c-0.006,0.074-0.049,0.141-0.125,0.199
	c-0.077,0.06-0.175,0.093-0.296,0.096c-0.12,0.001-0.24-0.041-0.36-0.129c-0.074-0.046-0.195-0.178-0.362-0.395
	c-0.167-0.216-0.251-0.329-0.251-0.34l-0.18-0.365c-0.3,0.06-0.595,0.127-0.882,0.2l0.021,1.017
	c0.447,0.074,0.765,0.179,0.952,0.313c0.186,0.133,0.314,0.285,0.38,0.453c0.068,0.168,0.103,0.337,0.107,0.503
	c0.003,0.17-0.039,0.355-0.126,0.559C121.115,46.324,120.996,46.53,120.812,46.821z M128.529,47.886
	c-0.06,0-0.287-0.011-0.682-0.034c-0.048,0.157-0.077,0.281-0.091,0.377c-0.013,0.096-0.022,0.215-0.025,0.365
	c-0.003,0.146,0.005,0.323,0.025,0.532c0.014,0.188,0.047,0.53,0.1,1.029c0.054,0.497,0.107,0.862,0.161,1.09
	c0.054,0.228,0.117,0.439,0.19,0.633s0.147,0.377,0.221,0.549c0.074,0.175,0.115,0.294,0.126,0.36
	c0.009,0.066,0.016,0.129,0.019,0.184c0.004,0.056-0.015,0.113-0.055,0.177c-0.04,0.063-0.116,0.098-0.226,0.104
	c-0.109,0.007-0.219-0.034-0.325-0.12c-0.114-0.084-0.235-0.256-0.362-0.512c-0.126-0.259-0.224-0.519-0.296-0.78
	c-0.069-0.259-0.141-0.583-0.215-0.971c-0.074-0.39-0.114-0.782-0.12-1.183v-0.963c-0.007-0.263-0.004-0.412,0.01-0.449l0.08-0.436
	l-1.333,0.008c0.02,0.217,0.043,0.454,0.069,0.711c0.027,0.26,0.041,0.516,0.041,0.77c-0.006,0.544-0.065,1.055-0.175,1.528
	c-0.11,0.475-0.207,0.826-0.29,1.056c-0.084,0.229-0.191,0.488-0.321,0.781c-0.132,0.294-0.34,0.435-0.627,0.427
	c-0.087,0-0.157-0.02-0.211-0.057s-0.082-0.096-0.085-0.179c-0.004-0.085,0.038-0.232,0.125-0.442
	c0.034-0.079,0.091-0.251,0.17-0.513l0.251-0.796c0.12-0.424,0.216-0.892,0.285-1.405c0.071-0.512,0.099-0.814,0.086-0.912
	l-0.121-0.913c-0.248,0.017-0.46,0.036-0.638,0.055c-0.176,0.017-0.305,0.026-0.384,0.02c-0.148,0-0.251-0.018-0.312-0.058
	c-0.06-0.04-0.093-0.094-0.1-0.165c-0.007-0.073,0.053-0.147,0.18-0.227c0.12-0.073,0.314-0.127,0.582-0.158l0.943-0.055
	l0.682-0.049c-0.033-0.55-0.046-0.9-0.041-1.052l0.01-0.595c-0.508,0.208-0.838,0.355-0.992,0.447
	c-0.154,0.088-0.294,0.203-0.421,0.342l-0.412,0.456c-0.147,0.123-0.289,0.183-0.427,0.172c-0.136-0.009-0.219-0.062-0.246-0.158
	c-0.026-0.096,0.074-0.291,0.301-0.586c0.227-0.292,0.504-0.524,0.832-0.698c0.328-0.172,0.789-0.339,1.384-0.501
	c-0.02-0.12-0.028-0.266-0.024-0.435c0.003-0.171,0.133-0.259,0.391-0.26c0.257-0.004,0.389,0.108,0.396,0.334l0.01,0.264
	c0.923,0.241,1.51,0.466,1.759,0.679c0.252,0.211,0.455,0.412,0.612,0.602c0.157,0.188,0.219,0.341,0.185,0.453
	c-0.033,0.113-0.114,0.176-0.24,0.19c-0.128,0.014-0.271-0.047-0.432-0.181l-0.542-0.532c-0.3-0.286-0.556-0.452-0.762-0.498
	l-0.572-0.152c0.021,0.503,0.03,0.806,0.03,0.908l-0.03,0.814c1.4-0.024,2.199,0.014,2.4,0.114c0.2,0.098,0.301,0.185,0.301,0.259
	C129.345,47.813,129.07,47.891,128.529,47.886z M128.959,44.317c-0.134,0.011-0.404-0.005-0.807-0.044
	c-0.405-0.04-0.851-0.062-1.339-0.066c-0.943,0-1.718,0.047-2.327,0.139c-0.608,0.094-0.992,0.202-1.153,0.329
	c-0.161,0.128-0.263,0.331-0.311,0.612l0.089,2.379c0,0.277-0.026,0.681-0.079,1.212c-0.081,0.705-0.154,1.258-0.222,1.661
	c-0.066,0.398-0.151,0.791-0.254,1.174c-0.104,0.384-0.218,0.727-0.343,1.028c-0.123,0.301-0.24,0.49-0.35,0.566
	c-0.11,0.077-0.242,0.097-0.396,0.06c-0.155-0.037-0.249-0.104-0.286-0.205c-0.037-0.099-0.009-0.244,0.085-0.439
	c0.161-0.336,0.351-0.98,0.572-1.941c0.221-0.954,0.344-1.903,0.371-2.844c0-0.037-0.001-0.234-0.005-0.589
	c-0.003-0.355,0.001-0.879,0.015-1.571c0-0.326,0.025-0.622,0.075-0.884c0.049-0.264,0.253-0.503,0.611-0.72
	s0.808-0.343,1.349-0.374l1.293-0.103c0.01-0.239,0.028-0.43,0.058-0.578c0.03-0.147,0.11-0.303,0.241-0.467
	c0.13-0.163,0.354-0.264,0.672-0.301c0.317-0.038,0.627-0.065,0.931-0.087c0.306-0.02,0.5-0.059,0.588-0.114
	c0.086-0.056,0.14-0.138,0.161-0.245c0.019-0.108-0.055-0.22-0.226-0.333c-0.171-0.112-0.45-0.173-0.837-0.183
	c-0.135,0-0.719,0.032-1.755,0.097c-0.007,0.103-0.018,0.23-0.035,0.388c-0.018,0.157-0.114,0.323-0.291,0.502
	c-0.178,0.177-0.412,0.328-0.703,0.453c-0.29,0.124-0.6,0.225-0.927,0.301s-0.551,0.106-0.672,0.092
	c-0.101-0.003-0.176-0.023-0.225-0.059c-0.05-0.033-0.082-0.092-0.095-0.18c-0.015-0.084,0.072-0.175,0.259-0.273
	c0.074-0.035,0.333-0.112,0.778-0.228c0.445-0.114,0.73-0.237,0.858-0.369c0.126-0.132,0.193-0.243,0.2-0.337
	c0-0.023-0.006-0.075-0.02-0.158l-0.03-0.158c-0.803,0.008-1.33-0.103-1.579-0.332c-0.25-0.232-0.36-0.433-0.327-0.609
	c0.014-0.125,0.094-0.221,0.24-0.291c0.147-0.067,0.299-0.017,0.453,0.158l0.13,0.208c0.147,0.223,0.507,0.336,1.083,0.347
	c0.24,0.009,0.653-0.01,1.238-0.052c0.585-0.045,1.038-0.066,1.358-0.066c0.736,0.011,1.229,0.125,1.48,0.347
	c0.25,0.221,0.378,0.45,0.381,0.688c0.003,0.238-0.085,0.435-0.266,0.593c-0.161,0.143-0.332,0.234-0.516,0.273
	s-0.35,0.06-0.498,0.066l-0.752,0.041c-0.368,0.05-0.545,0.202-0.53,0.457l-0.011,0.347c1.464-0.011,2.34,0.034,2.627,0.134
	c0.288,0.098,0.428,0.203,0.421,0.315C129.389,44.227,129.239,44.304,128.959,44.317z"/>
</svg>
