<?xml version="1.0" encoding="utf-8"?>
<!-- Generator: Adobe Illustrator 17.0.0, SVG Export Plug-In . SVG Version: 6.00 Build 0)  -->
<!DOCTYPE svg PUBLIC "-//W3C//DTD SVG 1.1//EN" "http://www.w3.org/Graphics/SVG/1.1/DTD/svg11.dtd">
<svg version="1.1" id="Layer_1" xmlns="http://www.w3.org/2000/svg" xmlns:xlink="http://www.w3.org/1999/xlink" x="0px" y="0px"
	 width="171.952px" height="229.711px" viewBox="0 0 171.952 229.711" enable-background="new 0 0 171.952 229.711"
	 xml:space="preserve">
<path fill="#D9A652" d="M90.056,229.711L0,0h171.952L90.056,229.711L90.056,229.711z"/>
<path fill="#E0AB54" d="M69.015,176.047l-1.23-3.145h42.521l-1.119,3.145H69.015L69.015,176.047z M66.131,168.684h45.683
	l1.119-3.145H64.896L66.131,168.684L66.131,168.684z M63.133,161.045h51.403l1.123-3.145H61.901L63.133,161.045L63.133,161.045z
	 M60.247,153.682h56.912l1.123-3.145h-59.27L60.247,153.682L60.247,153.682z M57.367,146.333h62.411l1.119-3.145H56.132
	L57.367,146.333L57.367,146.333z M54.478,138.971h67.929l1.119-3.146h-70.28L54.478,138.971L54.478,138.971z M51.485,131.33h73.646
	l1.121-3.145h-76L51.485,131.33L51.485,131.33z M48.599,123.968h79.158l1.119-3.145H47.364L48.599,123.968L48.599,123.968z
	 M89.509,228.318h1.043l1.119-3.145h-3.393L89.509,228.318L89.509,228.318z M86.513,220.678h6.759l1.125-3.145h-9.119
	L86.513,220.678L86.513,220.678z M83.629,213.315h12.268l1.123-3.145H82.394L83.629,213.315L83.629,213.315z M80.745,205.971H98.52
	l1.119-3.149H79.512L80.745,205.971L80.745,205.971z M77.858,198.604h23.285l1.125-3.149H76.623L77.858,198.604L77.858,198.604z
	 M74.865,190.964h29.001l1.123-3.145H73.63L74.865,190.964L74.865,190.964z M71.976,183.602h34.517l1.125-3.145H70.744
	L71.976,183.602L71.976,183.602z M22.292,56.865h129.384l1.119-3.149H21.059L22.292,56.865L22.292,56.865z M19.406,49.498h134.898
	l1.125-3.144H18.171L19.406,49.498L19.406,49.498z M16.408,41.858H157.03l1.119-3.146H15.173L16.408,41.858L16.408,41.858z
	 M13.52,34.496h146.133l1.121-3.146H12.289L13.52,34.496L13.52,34.496z M10.64,27.15h151.628l1.129-3.145H9.407L10.64,27.15
	L10.64,27.15z M7.753,19.784h157.144l1.123-3.146H6.518L7.753,19.784L7.753,19.784z M4.76,12.143h162.864l1.119-3.144H3.525
	L4.76,12.143L4.76,12.143z M1.871,4.781h168.376l1.119-3.145H0.639L1.871,4.781L1.871,4.781z M45.672,116.499h84.747l1.119-3.146
	H44.437L45.672,116.499L45.672,116.499z M42.783,109.132h90.259l1.123-3.149H41.548L42.783,109.132L42.783,109.132z M39.786,101.492
	h95.982l1.119-3.146h-98.33L39.786,101.492L39.786,101.492z M36.902,94.13h101.49l1.123-3.146H35.669L36.902,94.13L36.902,94.13z
	 M34.019,86.784H141.01l1.125-3.145H32.785L34.019,86.784L34.019,86.784z M31.135,79.418h112.499l1.125-3.149H29.898L31.135,79.418
	L31.135,79.418z M28.138,71.782H146.36l1.119-3.149H26.905L28.138,71.782L28.138,71.782z M25.251,64.415h123.738l1.119-3.145H24.017
	L25.251,64.415L25.251,64.415z"/>
<path fill="#FFFFFF" d="M14.539,16.639h9.666v2.188h-9.666V16.639L14.539,16.639z M29.49,16.639v2.188h9.665v-2.188H29.49
	L29.49,16.639z M44.441,16.639v2.188h9.666v-2.188H44.441L44.441,16.639z M59.392,16.639v2.188h9.666v-2.188H59.392L59.392,16.639z
	 M74.344,16.639v2.188h9.665v-2.188H74.344L74.344,16.639z M89.296,16.639v2.188h9.664v-2.188H89.296L89.296,16.639z
	 M104.247,16.639v2.188h9.664v-2.188H104.247L104.247,16.639z M119.198,16.639v2.188h9.664v-2.188H119.198L119.198,16.639z
	 M134.149,16.639v2.188h9.664v-2.188H134.149L134.149,16.639z M149.1,16.639v2.188h9.664v-2.188H149.1L149.1,16.639z"/>
</svg>
