<?xml version="1.0" encoding="utf-8"?>
<!-- Generator: Adobe Illustrator 17.0.0, SVG Export Plug-In . SVG Version: 6.00 Build 0)  -->
<!DOCTYPE svg PUBLIC "-//W3C//DTD SVG 1.1//EN" "http://www.w3.org/Graphics/SVG/1.1/DTD/svg11.dtd">
<svg version="1.1" id="Layer_1" xmlns="http://www.w3.org/2000/svg" xmlns:xlink="http://www.w3.org/1999/xlink" x="0px" y="0px"
	 width="42px" height="95px" viewBox="63 16 42 95" enable-background="new 63 16 42 95" xml:space="preserve">
<g>
	<polygon fill="#E6E6E6" points="105,111 63,111 72,45 96,45 	"/>
	<rect x="72" y="28" fill="#FFD464" width="24" height="13"/>
	<polygon fill="#F5F5F5" points="100,28 68,28 84,16 	"/>
	<polygon fill="#E6E6E6" points="84,16 84,28 100,28 	"/>
	<path fill="#F5F5F5" d="M100,43c0,1.1-0.9,2-2,2H70c-1.1,0-2-0.9-2-2l0,0c0-1.1,0.9-2,2-2h28C99.1,41,100,41.9,100,43L100,43z"/>
	<g>
		<polygon fill="#CC584C" points="69.272,65 67.909,75 100.091,75 98.728,65 		"/>
		<polygon fill="#CC584C" points="102,89 100.637,79 67.363,79 66,89 		"/>
		<polygon fill="#CC584C" points="71.182,51 69.818,61 98.182,61 96.818,51 		"/>
	</g>
	<polygon fill="#CCCCCC" points="96.137,46 96,45 72,45 71.863,46 	"/>
	<rect x="72" y="28" fill="#E6BF5A" width="24" height="1"/>
	<circle fill="#FFE399" cx="84" cy="34.5" r="4"/>
	<circle fill="#F5F5F5" cx="84" cy="34.5" r="2"/>
	<rect x="82" y="28" fill="#CCA950" width="4" height="3"/>
	<rect x="82" y="38" fill="#CCA950" width="4" height="3"/>
</g>
</svg>
