<?xml version="1.0" encoding="utf-8"?>
<!-- Generator: Adobe Illustrator 17.0.0, SVG Export Plug-In . SVG Version: 6.00 Build 0)  -->
<!DOCTYPE svg PUBLIC "-//W3C//DTD SVG 1.1//EN" "http://www.w3.org/Graphics/SVG/1.1/DTD/svg11.dtd">
<svg version="1.1" id="图层_1" xmlns="http://www.w3.org/2000/svg" xmlns:xlink="http://www.w3.org/1999/xlink" x="0px" y="0px"
	 width="368.504px" height="368.504px" viewBox="0 0 368.504 368.504" enable-background="new 0 0 368.504 368.504"
	 xml:space="preserve">
<path fill="#E60012" d="M0,184.289C0,82.745,82.817,0,184.289,0c101.47,0,184.215,82.745,184.215,184.289
	c0,101.469-82.745,184.215-184.215,184.215C82.817,368.504,0,285.758,0,184.289z"/>
<path fill="#FFFFFF" d="M61.034,216.584c2.05-1.538,4.485-3.973,7.306-7.306c3.076-3.673,5.127-6.45,6.152-8.331
	c0.512-1.195,1.066-2.307,1.666-3.332c2.733,1.537,6.322,2.819,10.766,3.845c-1.281,1.538-2.479,3.076-3.588,4.614l-8.973,10.766
	c-2.562,3.076-4.742,5.896-6.536,8.459c-2.563-2.819-5.94-4.869-10.126-6.151C58.81,218.206,59.922,217.354,61.034,216.584z
	 M76.414,194.41c-4.018,0.173-8.587,0.385-13.714,0.642c0.341-2.392,0.513-4.102,0.513-5.127c0-1.109-0.129-2.948-0.385-5.511
	c4.785,0.428,9.228,0.641,13.33,0.641h12.816V174.16h-9.1c-4.614,0.172-9.869,0.385-15.766,0.641
	c0.342-3.332,0.514-5.168,0.514-5.512c-0.086-0.682-0.257-2.349-0.514-4.998c5.81,0.429,10.937,0.641,15.381,0.641h19.098
	c1.365-3.759,2.349-6.793,2.947-9.1l1.923-7.434c0.257-1.538,0.555-2.99,0.897-4.358c0.596,0.086,1.066,0.256,1.409,0.512
	c3.589,1.282,6.921,2.308,9.997,3.076l-4.102,8.973l-3.46,8.33c4.614-0.084,9.741-0.298,15.38-0.641
	c-0.342,2.48-0.513,4.146-0.513,4.998c0.085,1.112,0.257,2.992,0.513,5.641c-1.367-0.171-2.562-0.257-3.588-0.257
	c-4.358-0.341-11.151-0.513-20.379-0.513v10.895h10.637c4.101-0.084,8.63-0.299,13.586-0.641c-0.342,2.479-0.512,4.273-0.512,5.383
	c0.084,1.197,0.256,2.947,0.512,5.255c-4.699-0.427-9.1-0.642-13.201-0.642h-11.02v28.197c0,4.614-1.025,7.562-3.076,8.844
	c-1.368,0.854-3.717,1.795-7.05,2.82c-0.769,0.34-2.948,0.896-6.536,1.666c-1.025,0.34-1.923,0.641-2.691,0.896
	c-0.257-4.101-0.77-6.92-1.539-8.459c-0.854-1.623-2.819-3.973-5.895-7.049c5.126,0.77,9.1,1.153,11.919,1.153
	c2.478,0,3.888-0.384,4.229-1.153V194.41H76.414z M82.054,143.399c-4.018,0.173-8.972,0.385-14.868,0.642
	c0.257-2.308,0.385-4.101,0.385-5.384c0-1.109-0.128-2.819-0.385-5.126c5.811,0.428,10.767,0.641,14.868,0.641h10.382
	c-0.343-1.109-0.641-2.18-0.897-3.205c-1.111-3.672-2.735-7.219-4.87-10.638c-0.77-1.195-1.454-2.307-2.051-3.332
	c4.271-0.939,7.946-2.308,11.022-4.102l9.228,17.303c-3.418,0.854-5.383,1.409-5.896,1.666c-0.94,0.257-2.307,1.025-4.101,2.308
	h13.072c3.846-0.084,8.588-0.257,14.227-0.514c-0.342,2.82-0.512,4.531-0.512,5.127c0.084,1.197,0.256,2.948,0.512,5.256
	c-5.555-0.428-10.169-0.642-13.842-0.642L82.054,143.399L82.054,143.399z M74.619,148.783c3.846-0.854,7.307-2.18,10.383-3.974
	l7.434,16.405c-1.111,0.343-2.18,0.685-3.205,1.025c-1.025,0.343-1.838,0.557-2.435,0.641c-1.282,0.514-2.735,1.025-4.358,1.539
	c-0.428-1.025-0.812-1.965-1.152-2.82c-1.198-3.502-2.564-6.537-4.101-9.1L74.619,148.783z M101.022,202.998
	c3.16-1.452,6.065-3.332,8.716-5.64l13.072,16.919l2.308-6.408c0.853-3.76,1.667-8.844,2.436-15.253l0.513-9.741l0.256-30.375
	c0-5.896-0.256-14.611-0.769-26.146h5.383c4.954,0,10.767-0.77,17.431-2.307c6.665-1.453,12.049-3.076,16.149-4.871
	c1.282-0.597,2.605-1.153,3.974-1.666c2.307,2.819,4.23,4.998,5.768,6.537c1.537,1.623,3.332,3.203,5.383,4.742
	c-3.418,0.598-6.793,1.197-10.125,1.794l-15.766,2.819c-1.623,0.343-3.46,0.641-5.511,0.897c-3.761,0.599-7.434,1.197-11.022,1.794
	v22.559h29.992c3.758-0.085,7.945-0.299,12.559-0.642c-0.343,2.563-0.513,4.485-0.513,5.768c0.084,1.025,0.257,2.819,0.513,5.384
	c-4.7-0.428-8.888-0.642-12.559-0.642h-5v50.242c0.171,5.297,0.428,11.151,0.77,17.56c-3.332-0.343-5.299-0.514-5.896-0.514
	c-1.198,0.084-3.333,0.257-6.409,0.514c0.514-6.324,0.77-12.176,0.77-17.56V168.52h-14.227c-0.172,8.032-0.385,14.868-0.641,20.507
	c-0.256,4.957-0.641,9.356-1.154,13.201c-1.709,10.939-5.811,21.447-12.304,31.529c-1.111,1.539-2.179,3.119-3.204,4.742
	c-2.563-2.307-4.529-3.717-5.896-4.228c-1.537-0.686-4.485-1.539-8.843-2.564l4.999-4.229c4.271-3.676,7.562-7.479,9.868-11.407
	c-2.991,1.282-5.768,2.948-8.331,4.999c-0.512-1.198-1.025-2.308-1.537-3.333c-1.539-3.162-3.89-6.579-7.05-10.253L101.022,202.998z
	 M211.119,235.297c-2.735-0.343-4.613-0.514-5.639-0.514c-1.025,0.085-2.992,0.257-5.896,0.514c0.513-6.238,0.77-12.049,0.77-17.432
	v-27.684c-0.086-4.785-0.301-9.741-0.641-14.868c4.697,0.429,9.27,0.642,13.713,0.642h19.354c4.271-0.085,8.973-0.299,14.1-0.642
	c-0.43,5.213-0.641,10.169-0.641,14.868v26.658c0.17,5.811,0.426,11.535,0.768,17.175c-2.649-0.257-4.614-0.384-5.895-0.384
	c-1.539,0.17-3.59,0.298-6.152,0.384c0.256-2.137,0.385-5.511,0.385-10.125h-24.48C210.947,228.332,211.033,232.135,211.119,235.297
	z M235.344,214.021v-28.069h-24.48v28.069H235.344z M232.395,164.163c-4.7,0.172-9.741,0.384-15.124,0.641
	c0.427-4.954,0.641-9.356,0.641-13.201v-16.662c-0.086-4.698-0.301-9.526-0.641-14.483c5.467,0.43,10.51,0.641,15.124,0.641h40.757
	c4.699-0.084,9.655-0.298,14.868-0.641c-0.429,5.213-0.641,10.126-0.641,14.74v16.405c0.17,3.931,0.384,8.331,0.641,13.201
	c-5.299-0.427-10.253-0.641-14.868-0.641H232.395z M276.228,154.679V130.84H228.55v23.839H276.228z M269.052,235.168
	c-2.905-0.342-4.87-0.512-5.896-0.512c-1.368,0.084-3.248,0.256-5.64,0.512c0.513-5.981,0.768-11.791,0.768-17.431v-27.171
	c-0.086-5.211-0.301-10.424-0.641-15.637c5.211,0.428,9.869,0.641,13.971,0.641h21.532c4.271-0.084,8.843-0.299,13.714-0.641
	c-0.429,5.299-0.641,10.51-0.641,15.637v25.762c0.17,5.383,0.426,11.192,0.768,17.43c-2.649-0.342-4.614-0.512-5.896-0.512
	c-1.111,0.084-3.076,0.256-5.896,0.512c0.257-1.88,0.385-4.017,0.385-6.408v-3.332h-26.787
	C268.879,228.802,268.965,232.52,269.052,235.168z M295.582,213.764V185.44h-26.787v28.324H295.582z"/>
</svg>
