<?xml version="1.0" encoding="utf-8"?>
<!-- Generator: Adobe Illustrator 17.0.0, SVG Export Plug-In . SVG Version: 6.00 Build 0)  -->
<!DOCTYPE svg PUBLIC "-//W3C//DTD SVG 1.1//EN" "http://www.w3.org/Graphics/SVG/1.1/DTD/svg11.dtd">
<svg version="1.1" id="图层_1" xmlns="http://www.w3.org/2000/svg" xmlns:xlink="http://www.w3.org/1999/xlink" x="0px" y="0px"
	 width="164.195px" height="95.602px" viewBox="0 0 164.195 95.602" enable-background="new 0 0 164.195 95.602"
	 xml:space="preserve">
<path fill="#FFB30B" d="M98.058,68.607c0-6.336,0.105-9.879,0.308-10.637c0.137-0.439,0.291-0.709,0.464-0.807
	c0.169-0.092,0.425-0.111,0.771-0.045c0.615,0.189,2.496,0.314,5.645,0.379c2.055,0,3.404-0.051,4.055-0.141
	c0.65-0.096,1.182-0.305,1.592-0.619c0.547-0.439,1.061-1.115,1.54-2.027c0.477-0.918,0.718-1.658,0.718-2.225
	c0-1.133-1.744-2.211-5.234-3.217c-1.3-0.441-2.311-0.899-3.027-1.373c-0.721-0.473-1.9-1.434-3.543-2.881
	c-1.779-1.705-2.822-2.791-3.132-3.26c-0.308-0.479-0.462-1.246-0.462-2.322c0-1.385,0.206-2.68,0.615-3.877
	c0.412-1.199,0.721-2.301,0.928-3.312c0.135-0.691,0.355-1.166,0.666-1.416c0.309-0.252,1.11-0.627,2.41-1.135
	c1.916-0.754,2.875-1.277,2.875-1.559c0-0.285,0.086-0.726,0.258-1.326c0.168-0.6,0.084-0.894-0.258-0.894
	c-0.344,0-1.165-0.439-2.463-1.328c-1.78-1.133-3.729-1.451-5.854-0.941c-0.615,0.121-1.436-0.129-2.461-0.76
	c-1.371-0.885-1.714-1.516-1.028-1.889c0.412-0.252,0.686-0.381,0.821-0.381c0.137,0,1.012-0.678,2.619-2.035
	c1.606-1.353,3.01-2.488,4.207-3.4c1.197-0.916,1.986-1.721,2.363-2.418c0.373-0.691,0.77-1.037,1.18-1.037
	c0.411,0,1.041-0.52,1.896-1.559c0.858-1.041,1.284-1.783,1.284-2.223c0-0.502-0.461-1.195-1.386-2.08
	c-0.922-0.885-1.831-1.482-2.72-1.797c-0.89-0.316-1.884-0.471-2.975-0.471c-1.098,0-1.85,0.154-2.26,0.471
	c-0.411,0.314-0.736,0.41-0.975,0.281c-0.24-0.121-2.276,0.254-6.108,1.137c-3.423,0.815-5.542,1.264-6.364,1.326
	c-0.82,0.065-1.334-0.191-1.539-0.76c-0.139-0.627-0.617-1.322-1.436-2.08c-0.549-0.566-1.596-1.232-3.133-1.986
	c-1.539-0.756-2.584-1.133-3.131-1.133c-0.48,0-0.807-0.143-0.975-0.428C74.637,0.143,73.25,0,70.652,0
	c-1.713,0-2.809,0.045-3.287,0.142c-0.479,0.092-0.786,0.295-0.924,0.613c-0.139,0.506,0.086,1.389,0.668,2.648
	c0.58,1.262,0.771,2.523,0.563,3.779C67.469,8.446,67.4,9.25,67.469,9.596c0.066,0.35-0.104,0.6-0.514,0.756
	c-0.412,0.162-0.719,0.6-0.924,1.326c-0.205,0.725-1.3,2.943-3.283,6.668c-0.551,0.941-0.995,1.734-1.336,2.365
	c-1.506,2.899-1.949,4.348-1.334,4.348c0.477,0,1.728-0.537,3.746-1.607c2.017-1.07,3.404-1.957,4.156-2.65
	c0.754-0.566,2.364-1.699,4.825-3.402l3.696-2.648l3.285,0.285c2.189,0.129,4.586,0.375,7.185,0.754
	c3.9,0.506,6.707,0.129,8.416-1.137c-1.094,1.203-3.523,3.377-7.286,6.527c-1.85,1.514-3.989,3.012-6.415,4.494
	c-2.43,1.479-3.645,2.348-3.645,2.598c0,0.508-1.678,1.607-5.031,3.312c-3.353,1.701-6.74,3.186-10.162,4.447
	c-0.754,0.184-0.961,0.471-0.617,0.848c0.412,0.439,1.196,0.93,2.362,1.467c1.162,0.533,2.019,0.805,2.567,0.805
	c0.753,0,2.823-0.504,6.209-1.516c3.389-1.006,5.97-1.891,7.75-2.649c1.644-0.631,3.438-1.262,5.391-1.892
	c1.948-0.625,3.028-0.852,3.23-0.66c0.138,0.191-0.117,0.602-0.77,1.232c-0.65,0.631-1.283,1.07-1.898,1.32
	c-0.891,0.381-2.584,1.516-5.079,3.404c-2.501,1.895-3.868,2.838-4.107,2.838c-0.24,0-0.908,0.396-2.003,1.182
	c-1.095,0.791-1.796,1.184-2.104,1.184c-0.307,0-0.633,0.207-0.976,0.613c-0.343,0.41-0.906,0.695-1.692,0.85
	c-0.787,0.16-1.661,0.65-2.619,1.467c-0.614,0.57-1.011,0.996-1.18,1.277c-0.172,0.285-0.189,0.742-0.051,1.373
	c0.137,1.012,0.514,1.766,1.129,2.268l0.924,0.85l1.951-0.939c1.366-0.57,2.188-0.856,2.461-0.856c0.273,0-0.703,0.945-2.924,2.838
	c-2.226,1.891-4.056,3.543-5.492,4.963c-0.892,0.883-1.665,1.539-2.346,2.018c-1.625-0.23-3.519-0.885-5.699-1.988
	c-2.271-1.146-3.634-1.951-4.094-2.412c-0.346-0.342-0.488-0.574-0.43-0.691c0.057-0.113,0.4-0.373,1.033-0.773
	c0.805-0.457,1.465-0.775,1.982-0.951c0.805-0.168,1.221-0.918,1.249-2.238c0.027-1.32-0.331-2.211-1.077-2.668
	c-0.516-0.35-1.379-0.467-2.586-0.35c-1.206,0.117-2.27,0.402-3.188,0.865c-1.15,0.633-1.896,0.945-2.24,0.945
	c-0.059,0-0.146-0.029-0.259-0.088c-0.688-0.283-0.172-1.373,1.55-3.27c1.207-1.324,2.097-2.416,2.672-3.277
	c0.863-1.209,2.127-2.383,3.793-3.537c0.919-0.633,1.435-1.088,1.551-1.375c0.173-0.402,0.014-1.146-0.473-2.244
	c-0.49-1.088-0.938-1.748-1.336-1.979c-1.725-0.805-3.563-0.693-5.517,0.344c-1.437,0.748-2.212,1.047-2.327,0.908
	c-0.115-0.148,0.115-1.264,0.69-3.365c0.572-2.098,1.291-3.52,2.153-4.262c0.574-0.518,1.048-0.824,1.422-0.908
	c0.373-0.086,1.25-0.074,2.629,0.043l2.931,0.258l0.345-1.377c0.459-1.668,0.086-3.221-1.12-4.656
	c-1.553-1.896-3.821-2.812-6.81-2.754c-1.667,0-2.801,0.053-3.402,0.17c-0.605,0.115-2.085,0.662-4.439,1.639
	c-2.357,0.975-4.18,1.625-5.471,1.938c-1.295,0.318-2.371,0.734-3.232,1.252c-0.807,0.457-1.424,0.645-1.855,0.559
	c-0.43-0.086-0.859-0.502-1.292-1.25c-0.431-0.744-0.833-1.119-1.206-1.119c-0.376,0-0.963-0.229-1.768-0.691
	c-0.804-0.459-1.896-0.775-3.273-0.945c-0.978-0.117-1.667-0.117-2.068,0c-0.403,0.117-1.063,0.457-1.982,1.031
	c-1.323,0.865-2.844,1.738-4.567,2.633c-1.723,0.891-2.93,1.391-3.619,1.508c-2.069,0.514-3.708,1.549-4.914,3.098
	c-0.804,0.924-1.866,1.84-3.188,2.76c-1.204,0.8-1.895,1.33-2.067,1.589c-0.171,0.258,0,0.594,0.518,0.992
	c1.09,0.744,3.275,0.604,6.549-0.43c2.067-0.633,3.706-0.98,4.912-1.035c0.805,0,1.321,0.055,1.552,0.172
	c0.229,0.117,0.4,0.428,0.518,0.945c0.344,1.092,0.329,2.086-0.044,2.975c-0.373,0.895-1.278,2.145-2.716,3.748
	c-1.723,1.955-2.93,3.189-3.619,3.711c-2.469,1.947-4.365,3.27-5.687,3.963c-0.688,0.346-1.076,0.775-1.164,1.289
	c-0.085,0.518,0.158,1.035,0.734,1.551c0.803,0.807,3.733,0.664,8.789-0.428c2.299-0.516,3.476-0.748,3.533-0.691
	c0.174,0.176-0.301,0.879-1.422,2.113c-1.119,1.236-2.37,2.43-3.747,3.574c-2.128,1.842-3.062,2.801-2.802,2.891
	c0.259,0.086,1.58-0.608,3.965-2.07c2.383-1.465,3.619-2.152,3.705-2.07c0.087,0.088,0.072,0.445-0.043,1.08
	c-0.172,0.744-1.796,1.898-4.869,3.445C7.053,59.963,4.77,60.828,3.275,61c-1.322,0.115-2.198,0.389-2.628,0.82
	C0.217,62.248,0,63.098,0,64.361c0,1.092,0.287,1.938,0.862,2.543c0.573,0.604,1.321,0.904,2.24,0.904
	c0.69,0,1.767-0.346,3.232-1.033c1.465-0.693,2.915-1.52,4.352-2.5c0.344-0.23,0.689-0.43,1.033-0.607
	c0.346-0.17,0.617-0.299,0.819-0.383c0.2-0.086,0.302-0.074,0.302,0.043c0.057,0.17-0.158,0.846-0.645,2.023
	c-0.49,1.176-1.023,2.258-1.598,3.232c-1.033,1.842-1.693,3.445-1.981,4.824c-0.287,1.381-0.086,2.541,0.604,3.492
	c0.689,0.947,1.58,1.283,2.672,0.99c0.459-0.174,1.088-0.602,1.897-1.293c0.803-0.688,1.406-1.344,1.808-1.978
	c0.804-1.152,1.694-4.338,2.671-9.568c0.461-2.703,1.049-4.424,1.768-5.17c0.719-0.744,2.685-1.783,5.903-3.104
	c2.413-0.975,3.734-1.639,3.966-1.984c0.286-0.4,0.214-1.047-0.217-1.938c-0.43-0.887-0.963-1.535-1.594-1.938
	c-0.634-0.459-1.436-0.748-2.414-0.863c-0.633-0.055-1.062-0.16-1.291-0.301c-0.233-0.143-0.375-0.414-0.431-0.82
	c-0.232-0.744-0.175-1.395,0.172-1.938c0.344-0.547,1.063-1.25,2.154-2.113c1.091-0.746,1.751-1.422,1.981-2.025
	c0.229-0.602,0.115-1.275-0.346-2.025c-0.287-0.459-0.287-1.147,0-2.066c0.346-0.863,1.178-2.428,2.502-4.697
	c1.32-2.268,2.295-3.805,2.929-4.609l1.033-1.207l2.069,0.773c1.322,0.521,2.815,0.861,4.482,1.037
	c1.492,0.113,2.296,0.359,2.413,0.73c0.114,0.373-0.346,1.309-1.38,2.799c-1.323,1.957-2.888,3.824-4.696,5.607
	c-1.812,1.779-2.917,2.525-3.317,2.238c-0.232-0.113-0.59,0.1-1.078,0.645c-0.489,0.553-0.935,1.219-1.336,2.023
	c-0.518,1.033-0.533,2.102-0.043,3.193c0.487,1.09,1.191,1.635,2.11,1.635c0.632,0,1.695-0.271,3.189-0.818
	c1.494-0.545,2.814-1.133,3.965-1.768l1.982-1.119l-0.086,2.76l-0.173,2.842l-1.981,1.815c-1.379,1.144-2.988,2.207-4.826,3.188
	c-1.551,0.803-2.917,1.719-4.094,2.756c-1.178,1.035-1.768,1.842-1.768,2.412c0,0.463,0.188,0.891,0.561,1.295
	c0.373,0.4,0.761,0.598,1.164,0.598c0.346,0,1.207-0.457,2.586-1.377c3.274-2.18,5.602-3.471,6.979-3.877
	c0.402-0.117,0.647-0.117,0.734,0c0.085,0.117,0.129,0.486,0.129,1.121c-0.058,0.918-0.23,1.639-0.516,2.156
	c-0.348,0.574-1.496,1.75-3.449,3.535c-1.953,1.777-3.533,3.07-4.738,3.873c-2.531,1.725-3.793,3.652-3.793,5.775
	c0,0.578,0.056,0.949,0.173,1.119c0.114,0.172,0.372,0.318,0.776,0.434c0.629,0.17,1.851,0.1,3.662-0.217
	c1.809-0.312,3.518-0.758,5.127-1.336c1.78-0.574,2.758-0.861,2.932-0.861c0.113,0.287,0.154,1.381,0.129,3.273
	c-0.032,1.896-0.146,4.066-0.347,6.508c-0.202,2.441-0.388,3.893-0.56,4.352c-0.402,1.033-0.461,2.27-0.172,3.705
	c0.4,2.184,0.949,3.578,1.637,4.18c0.689,0.605,1.523,0.416,2.5-0.559c0.458-0.576,0.717-1.352,0.775-2.324
	c0.055-0.982-0.059-3.422-0.345-7.328c-0.23-2.531-0.245-5.23-0.044-8.1c0.201-2.873,0.502-4.512,0.906-4.916
	c0.346-0.34,2.412-0.975,6.203-1.895c3.272-0.791,5.811-1.326,7.628-1.607c0.394,0.326,0.78,0.508,1.161,0.508
	c0.642,0,1.875-0.416,3.658-1.221c1.494-0.332,2.434-0.74,2.82-1.221c2.172-0.904,5.199-2.102,9.126-3.611
	c6.363-2.52,10.844-4.035,13.446-4.541l1.025-0.285l-0.308,9.176c-0.272,7.754-0.377,12.498-0.307,14.234
	c0.066,1.734,0.342,2.914,0.821,3.547c0.477,0.502,1.13,0.848,1.95,1.035c0.821,0.191,1.332,0.098,1.538-0.281
	c0.138-0.188,0.497-0.107,1.078,0.238c0.58,0.346,1.111,0.252,1.591-0.285c0.479-0.533,0.58-2.035,0.308-4.49
	C98.162,79.186,98.058,74.945,98.058,68.607z M14.824,41.096l-1.033,0.598l0.689-0.773c0.113-0.053,0.199-0.143,0.258-0.258
	c0.746-0.689,1.119-0.836,1.119-0.43C15.857,40.35,15.514,40.633,14.824,41.096z M19.996,51.779
	c-0.117,0.344-0.231,0.459-0.347,0.344c-0.114-0.113-0.085-0.312,0.085-0.6c0.174-0.289,0.289-0.406,0.347-0.348
	C20.137,51.234,20.107,51.436,19.996,51.779z M31.241,30.322c-0.774,1.666-1.824,3.504-3.146,5.514
	c-1.092,1.783-1.668,2.688-1.724,2.711c-0.058,0.035-0.749-0.127-2.069-0.471s-2.326-0.457-3.016-0.344
	c-0.461,0.115-0.719,0.115-0.775,0c-0.058-0.113-0.03-0.518,0.086-1.205c0.174-0.922,0.459-1.785,0.863-2.588
	c0.457-0.863,1.65-2.109,3.575-3.748c1.924-1.637,3.374-2.631,4.352-2.973c1.149-0.404,1.865-0.607,2.154-0.607
	c0.286,0,0.519,0.203,0.688,0.607C32.346,27.619,32.017,28.652,31.241,30.322z M41.842,68.412c-0.316,0.287-1.137,0.66-2.456,1.121
	c-2.067,0.689-3.161,0.893-3.276,0.602c-0.115-0.285,0.719-1.119,2.501-2.498c2.067-1.666,3.202-2.428,3.404-2.285
	c0.2,0.145,0.301,0.59,0.301,1.336C42.315,67.549,42.156,68.125,41.842,68.412z M41.842,38.508
	c-0.834,0.803-1.797,1.465-2.889,1.982c-1.205,0.633-2.039,0.947-2.498,0.947c-0.461,0.057-0.402-0.172,0.172-0.688
	c0.287-0.291,1.379-1.123,3.274-2.502c1.898-1.379,2.901-2.096,3.019-2.154c0.113,0,0.172,0.17,0.172,0.518
	C43.092,37.072,42.674,37.703,41.842,38.508z M47.229,42.816c0.285-0.629,0.718-1.092,1.292-1.379
	c0.632-0.342,1.033-0.518,1.207-0.518c0.172,0,0.143,0.258-0.087,0.773c-0.289,0.518-0.748,1.268-1.378,2.242
	c-0.289,0.404-0.49,0.664-0.604,0.775c-0.231,0.346-0.431,0.289-0.604-0.17C46.883,44.023,46.937,43.449,47.229,42.816z
	 M51.967,65.309c-3.446,1.092-5.299,1.637-5.557,1.637c-0.259,0-0.389-0.863-0.389-2.584c0-1.727,0.115-2.846,0.344-3.361
	c0.347-0.629,0.963-1.377,1.854-2.24c0.889-0.861,1.509-1.289,1.854-1.289c0.344,0,1.607,1.002,3.791,3.01l3.191,3.105
	L51.967,65.309z M88.973,26.383c-1.266,0.443-3.182,1.09-5.748,1.939c-2.566,0.85-4.021,1.217-4.363,1.09
	c-0.066-0.191,0.855-0.82,2.773-1.896c2.119-1.07,4.141-2.139,6.055-3.215l2.875-1.514l0.309,0.945
	c0.272,0.633,0.341,1.123,0.206,1.469C90.938,25.551,90.24,25.943,88.973,26.383z M91.798,51.541
	c-0.139,0.566-0.345,0.979-0.617,1.229c-0.274,0.252-0.82,0.504-1.641,0.754c-7.53,2.525-11.943,3.945-13.243,4.26
	c-1.025,0.316-1.693,0.58-2.002,0.799c-0.308,0.225-1.114,0.521-2.412,0.9c-1.301,0.381-2.224,0.695-2.773,0.947
	c-0.409,0.129-0.633,0.174-0.665,0.145c-0.038-0.033,0.116-0.238,0.46-0.617c0.411-0.508,1.421-1.291,3.029-2.367
	c1.605-1.07,2.788-1.951,3.542-2.646c6.364-5.547,10.398-8.635,12.113-9.264c0.958-0.318,1.436-0.57,1.436-0.762
	c0-0.188,0.066-0.658,0.206-1.416c0.27-1.828-0.412-2.746-2.055-2.746c-1.026,0-1.609-0.092-1.747-0.283
	c-0.135-0.186,0.138-0.535,0.822-1.039c0.821-0.566,1.83-1.213,3.027-1.939c1.197-0.721,1.865-1.088,2.003-1.088
	c0.068,0,0.138,0.252,0.205,0.76c0.069,0.504,0.119,1.182,0.156,2.031c0.032,0.852,0.049,1.781,0.049,2.787
	c0.067,3.785,0.137,6.123,0.207,7.004C91.967,49.871,91.933,50.723,91.798,51.541z M97.956,47.189c0-1.639,0.034-2.711,0.102-3.215
	c0.071-0.25,0.136-0.314,0.206-0.191c0.205,0.566,0.719,1.83,1.539,3.785c0.686,1.574,0.959,2.588,0.822,3.027
	c-0.137,0.441-0.718,0.66-1.746,0.66c-0.41,0-0.667-0.207-0.77-0.615C98.009,50.232,97.956,49.078,97.956,47.189z M156.676,81.814
	c-1.213-1.018-2.205-1.619-2.975-1.809c-0.773-0.191-1.766-0.031-2.977,0.475c-0.441,0.172-0.863,0.287-1.266,0.35
	c-0.406,0.062-0.727,0.062-0.965,0c-0.24-0.062-0.359-0.178-0.359-0.35c0-0.168,0.238-0.707,0.717-1.617
	c0.477-0.914,0.779-2.141,0.908-3.689c0.129-1.545,0.139-2.527,0.027-2.953c-0.146-0.379-0.578-0.869-1.293-1.463
	c-0.717-0.592-1.479-1.08-2.287-1.457c-0.699-0.344-1.066-0.672-1.104-0.99c-0.035-0.314,0.221-0.961,0.773-1.938
	c0.551-0.932,0.826-1.557,0.826-1.875s0.42-0.898,1.268-1.744c0.586-0.596,0.955-1.02,1.102-1.273
	c0.147-0.256,0.221-0.594,0.221-1.018c0-0.508-0.047-0.814-0.139-0.922c-0.092-0.106-0.357-0.221-0.799-0.348
	c-1.176-0.213-1.672-1.164-1.488-2.861c0.074-0.592,0.057-1.027-0.055-1.303c-0.109-0.274-0.439-0.795-0.992-1.559
	c-1.357-1.82-2.828-2.834-4.408-3.049c-0.771-0.086-1.295-0.033-1.568,0.16c-0.277,0.189-0.414,0.601-0.414,1.238
	c0,0.551,0.432,1.291,1.295,2.225c0.863,0.934,1.295,1.547,1.295,1.842c0,0.381-0.992,1.252-2.975,2.607
	c-1.984,1.354-3.639,2.289-4.959,2.795c-0.81,0.299-1.342,0.629-1.599,0.986c-0.258,0.359-0.552,1.092-0.882,2.191
	c-0.221,0.848-0.395,1.377-0.522,1.588c-0.13,0.215-0.323,0.318-0.58,0.318c-0.403,0-0.9,0.234-1.486,0.701
	c-0.552,0.424-0.919,0.635-1.101,0.635c-0.185,0-0.314-0.234-0.387-0.701c-0.075-0.338-0.075-1.523,0-3.559
	c0.073-2.033,0.165-3.156,0.276-3.367c0.072-0.127,0.587-0.486,1.543-1.082c0.99-0.59,1.66-1.238,2.01-1.936
	c0.348-0.701,0.304-1.303-0.137-1.814c-0.332-0.338-0.992-0.506-1.984-0.506c-0.991,0-1.58-0.141-1.762-0.412
	c-0.187-0.275-0.203-1.068-0.057-2.385c0.184-1.525,0.294-3.441,0.33-5.75c0.037-2.312-0.018-3.742-0.165-4.291
	c-0.147-0.678-0.486-1.293-1.02-1.844c-0.532-0.551-1.056-0.826-1.569-0.826c-0.516,0-0.826,0.062-0.938,0.191
	c-0.294,0.34-0.166,0.934,0.387,1.777c0.219,0.424,0.358,0.883,0.412,1.369c0.057,0.488,0.083,1.684,0.083,3.59
	c0,6.143-0.276,9.531-0.825,10.168c-0.223,0.297-1.471,0.922-3.748,1.875s-3.545,1.58-3.801,1.875
	c-0.186,0.168-0.33,0.246-0.441,0.221c-0.11-0.018-0.33-0.156-0.661-0.412c-0.44-0.383-1.377-0.57-2.81-0.57h-2.149l-2.093,1.588
	c-1.361,1.104-2.545,2.107-3.555,3.017c-1.012,0.914-1.607,1.367-1.791,1.367c-0.367,0-0.937-1.355-1.707-4.068
	c-0.148-0.508-0.295-0.975-0.441-1.398c-0.441-1.182-0.807-1.607-1.102-1.268c-0.11,0.125-0.037,1.734,0.219,4.824l0.388,4.707
	l-0.937,2.162c-0.844,1.822-1.131,3.176-0.854,4.062c0.274,0.893,1.313,1.951,3.112,3.18l2.48,1.713l2.147-0.377
	c0.956-0.127,1.653-0.289,2.095-0.479c0.441-0.191,1.083-0.561,1.929-1.111c1.247-0.887,2.351-1.609,3.305-2.162
	c0.919-0.549,1.516-0.961,1.792-1.238c0.275-0.273,0.412-0.625,0.412-1.047c0-0.467,0.082-0.932,0.25-1.398
	c0.164-0.469,0.082-0.891-0.25-1.273c-0.22-0.252-0.35-0.498-0.385-0.727c-0.038-0.236-0.018-0.711,0.055-1.434
	c0.11-1.059,0.035-1.588-0.221-1.588c-0.11,0-0.174-0.148-0.193-0.441c-0.018-0.299,0.028-0.672,0.139-1.115
	c0.11-0.445,0.256-0.879,0.439-1.303c0.258-0.551,0.387-1.016,0.387-1.398c0-0.381,0.165-0.582,0.495-0.605
	c0.331-0.016,1.231,0.096,2.701,0.352c1.357,0.297,2.515,0.342,3.47,0.123c0.992-0.207,1.59-0.145,1.791,0.193
	c0.201,0.342,0.304,1.484,0.304,3.432c0,2.121-0.103,3.434-0.304,3.939c-0.201,0.512-0.817,1.145-1.846,1.91
	c-3.415,2.629-5.877,5.654-7.383,9.088c-0.44,1.057-0.606,1.895-0.496,2.51c0.11,0.615,0.606,1.43,1.488,2.449
	c0.918,1.098,1.809,2.412,2.672,3.938c0.863,1.523,1.717,2.719,2.562,3.588c0.845,0.871,1.487,1.518,1.93,1.941
	c0.477,0.506,0.899,0.709,1.267,0.602c0.365-0.104,0.845-0.537,1.432-1.303c0.662-0.932,0.955-1.631,0.883-2.096
	c-0.074-0.469-0.156-1.729-0.248-3.781c-0.093-2.055-0.147-3.146-0.166-3.273c-0.018-0.127,0.028-0.561,0.138-1.303
	c0.11-0.742,0.046-1.492-0.192-2.254c-0.239-0.768-0.294-1.295-0.164-1.59c0.127-0.299,0.283-1.484,0.467-3.559
	c0.184-2.078,0.312-3.307,0.387-3.688c0.072-0.381,1.045-1.355,2.92-2.922c1.873-1.568,3.158-2.5,3.857-2.799
	c0.66-0.256,1.643-0.293,2.947-0.125c1.303,0.168,1.992,0.309,2.066,0.41c0.072,0.107-0.074,0.629-0.441,1.559
	c-0.955,2.287-1.359,4.301-1.211,6.037c0.144,1.74,0.771,2.775,1.873,3.117c0.441,0.125,0.734,0.168,0.881,0.125
	c0.145-0.043,0.332-0.213,0.551-0.51c0.367-0.465,0.625-0.699,0.771-0.699s0.623-0.316,1.434-0.951
	c0.807-0.637,1.34-0.953,1.598-0.953c0.328,0.043,0.293,0.551-0.111,1.523c-0.219,0.508-0.965,1.377-2.232,2.607
	c-1.266,1.229-2.285,2.074-3.057,2.541c-0.516,0.338-1.441,0.723-2.783,1.145c-1.34,0.422-2.27,0.635-2.782,0.635
	c-0.551,0-1.167,0.117-1.846,0.35c-0.681,0.234-1.057,0.455-1.13,0.668c-0.11,0.381-0.073,0.891,0.111,1.523
	c0.182,0.635,0.457,1.209,0.825,1.717l0.771,1.016h2.205c1.468-0.039,2.948-0.359,4.435-0.953c1.488-0.592,2.699-0.932,3.639-1.016
	c0.936-0.086,1.77-0.297,2.504-0.637c0.662-0.338,1.855-0.529,3.582-0.572c1.727-0.039,3.178,0.064,4.354,0.322
	c3.305,0.717,4.959,0.086,4.959-1.912c0-0.463-0.074-0.812-0.221-1.047C157.629,82.697,157.262,82.326,156.676,81.814z
	 M110.477,65.99c-0.498,1.316-0.965,2.312-1.405,2.99c-0.882,1.396-1.931,2.18-3.14,2.35c-0.479,0.043-0.847-0.213-1.104-0.762
	c-0.367-0.762-0.543-1.314-0.523-1.654c0.018-0.338,0.266-0.764,0.744-1.268c0.55-0.639,1.385-1.451,2.508-2.449
	c1.119-0.994,1.9-1.641,2.34-1.937c0.882-0.506,1.322-0.484,1.322,0.064C111.219,63.791,110.972,64.68,110.477,65.99z
	 M124.306,81.754c-0.165,3.982-0.284,6.014-0.358,6.1c-0.295,0.338-1.047-0.074-2.26-1.238c-1.212-1.164-2.037-2.234-2.479-3.213
	l-0.552-1.268l0.44-1.145c0.258-0.635,0.854-1.535,1.791-2.699c0.937-1.166,1.717-1.98,2.342-2.449
	c0.698-0.465,1.102-0.572,1.213-0.316C124.516,75.693,124.471,77.771,124.306,81.754z M160.805,77.631l-1.031-1.988
	c-0.1-0.15-0.248-0.418-0.441-0.814c-0.199-0.391-0.348-0.637-0.445-0.732l-1.254-0.814c-0.195-0.145-0.318-0.232-0.367-0.256
	c-0.049-0.025-0.146-0.088-0.295-0.188c-0.492-0.342-0.908-0.609-1.252-0.807c-0.346-0.199-0.715-0.246-1.105-0.15l-0.738,0.15
	h-0.295c-0.051,0-0.088,0.01-0.111,0.035c-0.025,0.023-0.074,0.051-0.148,0.074c-0.074,0.027-0.186,0.088-0.33,0.182
	c-0.395,0.199-0.543,0.297-0.443,0.297s0.295,0.246,0.588,0.736c0.148,0.197,0.234,0.307,0.26,0.334
	c0.025,0.023,0.111,0.133,0.258,0.332c0,0.098,0.049,0.193,0.148,0.293l0.221,1.029v0.148l0.146,0.445
	c0.148,0.441,0.195,0.648,0.148,0.625c-0.051-0.021-0.051,0.109,0,0.406l0.297,0.738c0.193,0.393,0.318,0.652,0.365,0.773
	c0.051,0.123,0.086,0.195,0.111,0.221c0.025,0.025,0.051,0.035,0.074,0.035c0.023,0,0.086,0.074,0.186,0.223
	c0.08,0.062,0.123,0.092,0.158,0.115c-0.02,0.01-0.01,0.074,0.062,0.252c0.098,0.248,0.355,0.565,0.775,0.961
	c0.414,0.395,0.65,0.613,0.697,0.664c0.346,0.1,0.604,0.16,0.775,0.182c0.172,0.029,0.356,0.09,0.553,0.184
	c0.295,0.102,0.49,0.197,0.59,0.299c0.1,0.1,0.32,0.17,0.664,0.219c0.195,0,0.344-0.025,0.441-0.076l0.369-0.219
	c0.248-0.295,0.455-0.65,0.627-1.07c0.172-0.416,0.232-0.82,0.186-1.215v-0.588c0-0.248-0.025-0.383-0.076-0.406
	C161.123,78.232,161.002,78.027,160.805,77.631z M164.012,46.52c-0.123-0.346-0.233-0.617-0.33-0.812
	c-0.199-0.248-0.322-0.344-0.369-0.297c-0.051,0.049-0.174-0.021-0.369-0.221c-0.197-0.242-0.26-0.391-0.185-0.441
	c0.074-0.047-0.086-0.123-0.479-0.223c-0.395-0.145-0.641-0.289-0.738-0.441c-0.098-0.148-0.393-0.246-0.883-0.297
	c-0.295-0.043-0.701-0.035-1.217,0.041c-0.517,0.072-0.922,0.256-1.217,0.553c-0.051,0-0.074,0.024-0.074,0.072h-0.074l-0.516,0.445
	c0,0.049-0.049,0.119-0.148,0.219v0.072c-0.244,0.346-0.293,0.662-0.146,0.959c0.146,0.295,0.172,0.643,0.074,1.035
	c-0.1,0.291-0.172,0.564-0.221,0.809c-0.051,0.246-0.076,0.566-0.076,0.957c0.051,0.35,0.086,0.666,0.111,0.959
	c0.025,0.299,0.037,0.639,0.037,1.031c0,0.299-0.023,0.434-0.072,0.408c-0.051-0.025-0.025,0.109,0.072,0.406
	c0.098,0.145,0.135,0.219,0.111,0.219c-0.025,0-0.014,0.051,0.037,0.146l-0.074,1.846c-0.049,0.148-0.098,0.285-0.146,0.406
	c-0.051,0.121-0.102,0.234-0.148,0.33c0,0.1,0.025,0.186,0.072,0.256c0.051,0.078,0.025,0.238-0.072,0.482l-0.148,3.908l-0.81,5.75
	c-0.049,0.295-0.074,0.527-0.074,0.701s-0.025,0.305-0.072,0.406c-0.051,0.1-0.1,0.209-0.147,0.33
	c-0.051,0.125-0.148,0.283-0.295,0.481c-0.102,0.146-0.111,0.246-0.039,0.295c0.074,0.051,0.039,0.297-0.109,0.738
	c-0.049,0.193-0.037,0.465,0.037,0.807c0.072,0.346,0.135,0.568,0.184,0.666c0.1,0.146,0.158,0.26,0.184,0.332
	c0.025,0.072,0.111,0.158,0.258,0.258l0.295,0.299c0,0.049,0.062,0.158,0.186,0.328c0.121,0.172,0.43,0.258,0.922,0.258l0.959-0.297
	c0.392-0.195,0.685-0.266,0.883-0.219c0.197,0.049,0.492-0.098,0.885-0.445c0.098-0.094,0.16-0.182,0.186-0.254
	c0.023-0.078,0.061-0.16,0.111-0.26c0.096-0.295,0.17-0.564,0.221-0.811c0.049-0.246,0.023-0.492-0.076-0.74
	c-0.098-0.244-0.172-0.377-0.221-0.404c-0.049-0.021-0.072-0.082-0.072-0.182c0-0.543,0.072-0.996,0.221-1.365
	c0.148-0.369,0.32-0.75,0.516-1.141l0.297-4.059c0.047-0.146,0.072-0.258,0.072-0.332c0-0.07,0.025-0.182,0.074-0.332
	c0.049-0.195,0.062-0.305,0.035-0.33c-0.023-0.025-0.012-0.109,0.039-0.258l0.441-2.58c0-0.246-0.025-0.346-0.072-0.297
	c-0.051,0.051-0.025-0.098,0.072-0.441l0.072-1.844c0-0.246,0.039-0.404,0.111-0.479c0.074-0.074,0.135-0.232,0.186-0.48
	c0.049-0.193,0.061-0.393,0.039-0.586c-0.029-0.199-0.016-0.394,0.035-0.59c0-0.199,0.047-0.373,0.146-0.518
	c0.098-0.148,0.148-0.322,0.148-0.516c0-0.197-0.012-0.32-0.037-0.369c-0.025-0.051-0.025-0.1,0-0.148
	c0.025-0.047,0.086-0.197,0.184-0.443c0.098-0.146,0.209-0.477,0.332-0.992c0.123-0.52,0.232-0.824,0.332-0.922
	c0.146-0.15,0.305-0.246,0.479-0.297c0.172-0.049,0.258-0.271,0.258-0.662C164.195,47.158,164.133,46.863,164.012,46.52z"/>
</svg>
