<?xml version="1.0" encoding="utf-8"?><!DOCTYPE svg PUBLIC "-//W3C//DTD SVG 1.1//EN" "http://www.w3.org/Graphics/SVG/1.1/DTD/svg11.dtd"><svg version="1.1" baseProfile="full" xmlns="http://www.w3.org/2000/svg" xmlns:xlink="http://www.w3.org/1999/xlink" xmlns:ev="http://www.w3.org/2001/xml-events"   height="67px"   width="54px" ><path fill="rgb( 143, 99, 73 )" d="M1,14 C1,14 53,14 53,14 C53,14 43,67 43,67 C43,67 11,67 11,67 C11,67 1,14 1,14 Z "/><path fill="rgb( 156, 134, 121 )" d="M1,24 C1,24 53,24 53,24 C53,24 48,47 48,47 C48,47 6,47 6,47 C6,47 1,24 1,24 Z "/><path fill="rgb( 241, 241, 241 )" d="M0,14 C0,14 3,7 3,7 C3,7 8,7 8,7 C8,7 11,0 11,0 C11,0 43,0 43,0 C43,0 46,7 46,7 C46,7 51,7 51,7 C51,7 54,14 54,14 C54,14 0,14 0,14 Z "/></svg>