<?xml version="1.0" encoding="utf-8"?>
<!-- Generator: Adobe Illustrator 17.0.0, SVG Export Plug-In . SVG Version: 6.00 Build 0)  -->
<!DOCTYPE svg PUBLIC "-//W3C//DTD SVG 1.1//EN" "http://www.w3.org/Graphics/SVG/1.1/DTD/svg11.dtd">
<svg version="1.1" id="Capa_1" xmlns="http://www.w3.org/2000/svg" xmlns:xlink="http://www.w3.org/1999/xlink" x="0px" y="0px"
	 width="534.019px" height="654.286px" viewBox="0 0 534.019 654.286" enable-background="new 0 0 534.019 654.286"
	 xml:space="preserve">
<path fill="#B07839" d="M347.129,548.133l-28.468,12.608l2.484,93.545h-60.302l4.524-170.374l-109.362-114.76l15.677-15.68
	l94.749,90.322l2.328-87.68h44.467l3.201,120.525l81.647-77.806l15.679,15.679L317.46,515.526l0.414,15.597l15.139-9.524
	L347.129,548.133z"/>
<path fill="#7FA45F" d="M534.019,366.336c0,50.279-40.759,91.037-91.037,91.037s-91.038-40.759-91.038-91.037
	c0-4.073,0.271-8.081,0.79-12.012c-19.168,6.84-39.81,10.576-61.326,10.576c-22.694,0-44.414-4.156-64.457-11.727
	c-12.29,50.354-57.692,87.73-111.832,87.73C51.541,440.903,0,389.362,0,325.784c0-62.247,49.407-112.948,111.144-115.043
	c-1.436-9.221-2.186-18.667-2.186-28.291C108.958,81.685,190.644,0,291.408,0s182.45,81.685,182.45,182.45
	c0,33.976-9.298,65.775-25.471,93.012C496.148,278.259,534.019,317.872,534.019,366.336z"/>
<path fill="#C2DB7A" d="M413.359,165.374c0.056,79.15-64.119,143.326-143.27,143.27c-78.652-0.056-143.008-64.412-143.063-143.063
	C126.97,86.43,191.145,22.255,270.296,22.31C348.947,22.366,413.304,86.722,413.359,165.374z M97.298,233.754
	c-49.889,0-90.333,40.443-90.333,90.333s40.443,90.333,90.333,90.333s90.333-40.444,90.333-90.333S147.188,233.754,97.298,233.754z
	 M456.56,289.808c-39.453,0-71.436,31.983-71.436,71.436s31.983,71.436,71.436,71.436s71.436-31.983,71.436-71.436
	S496.013,289.808,456.56,289.808z"/>
</svg>
