<?xml version="1.0" encoding="utf-8"?><!DOCTYPE svg PUBLIC "-//W3C//DTD SVG 1.1//EN" "http://www.w3.org/Graphics/SVG/1.1/DTD/svg11.dtd"><svg version="1.1" baseProfile="full" xmlns="http://www.w3.org/2000/svg" xmlns:xlink="http://www.w3.org/1999/xlink" xmlns:ev="http://www.w3.org/2001/xml-events"   height="160px"   width="160px" ><path stroke="rgb( 14, 5, 10 )" stroke-width="0px" stroke-linecap="butt" stroke-linejoin="miter" fill="rgb( 255, 84, 72 )" d="M80,0 C124.183,0 160,35.817 160,80 C160,124.183 124.183,160 80,160 C35.817,160 0,124.183 0,80 C0,35.817 35.817,0 80,0 Z "/><path stroke="rgb( 14, 5, 10 )" stroke-width="0px" stroke-linecap="butt" stroke-linejoin="miter" fill="rgb( 255, 255, 255 )" d="M102.4,116 C102.4,116 57.6,116 57.6,116 C54.507,116 52,113.482 52,110.375 C52,110.375 52,67.625 52,67.625 C52,64.518 54.507,62 57.6,62 C57.6,62 102.4,62 102.4,62 C105.493,62 108,64.518 108,67.625 C108,67.625 108,110.375 108,110.375 C108,113.482 105.493,116 102.4,116 ZM68.8,73.25 C68.8,71.386 67.296,69.875 65.44,69.875 C65.44,69.875 63.2,69.875 63.2,69.875 C61.344,69.875 59.84,71.386 59.84,73.25 C59.84,73.25 59.84,104.75 59.84,104.75 C59.84,106.614 61.344,108.125 63.2,108.125 C63.2,108.125 65.44,108.125 65.44,108.125 C67.296,108.125 68.8,106.614 68.8,104.75 C68.8,104.75 68.8,73.25 68.8,73.25 ZM84.48,73.25 C84.48,71.386 82.976,69.875 81.12,69.875 C81.12,69.875 78.88,69.875 78.88,69.875 C77.024,69.875 75.52,71.386 75.52,73.25 C75.52,73.25 75.52,104.75 75.52,104.75 C75.52,106.614 77.024,108.125 78.88,108.125 C78.88,108.125 81.12,108.125 81.12,108.125 C82.976,108.125 84.48,106.614 84.48,104.75 C84.48,104.75 84.48,73.25 84.48,73.25 ZM100.16,73.25 C100.16,71.386 98.656,69.875 96.8,69.875 C96.8,69.875 94.56,69.875 94.56,69.875 C92.704,69.875 91.2,71.386 91.2,73.25 C91.2,73.25 91.2,104.75 91.2,104.75 C91.2,106.614 92.704,108.125 94.56,108.125 C94.56,108.125 96.8,108.125 96.8,108.125 C98.656,108.125 100.16,106.614 100.16,104.75 C100.16,104.75 100.16,73.25 100.16,73.25 ZM105.76,57.5 C105.76,57.5 54.24,57.5 54.24,57.5 C53.003,57.5 52,56.493 52,55.25 C52,55.25 52,53 52,53 C52,51.757 53.003,50.75 54.24,50.75 C54.24,50.75 71.04,50.75 71.04,50.75 C71.04,50.75 71.04,46.25 71.04,46.25 C71.04,45.007 72.043,44 73.28,44 C73.28,44 86.72,44 86.72,44 C87.957,44 88.96,45.007 88.96,46.25 C88.96,46.25 88.96,50.75 88.96,50.75 C88.96,50.75 105.76,50.75 105.76,50.75 C106.997,50.75 108,51.757 108,53 C108,53 108,55.25 108,55.25 C108,56.493 106.997,57.5 105.76,57.5 Z "/></svg>