<?xml version="1.0" encoding="iso-8859-1"?>
<!-- Generator: Adobe Illustrator 17.0.0, SVG Export Plug-In . SVG Version: 6.00 Build 0)  -->
<!DOCTYPE svg PUBLIC "-//W3C//DTD SVG 1.1//EN" "http://www.w3.org/Graphics/SVG/1.1/DTD/svg11.dtd">
<svg version="1.1" id="object" xmlns="http://www.w3.org/2000/svg" xmlns:xlink="http://www.w3.org/1999/xlink" x="0px" y="0px"
	 width="198.199px" height="198.199px" viewBox="0 0 198.199 198.199" style="enable-background:new 0 0 198.199 198.199;"
	 xml:space="preserve">
<g>
	<g>
		<circle style="fill:#0071B2;" cx="99.1" cy="99.1" r="99.1"/>
		<g>
			<defs>
				<circle id="SVGID_1_" cx="99.1" cy="99.1" r="99.1"/>
			</defs>
			<clipPath id="SVGID_2_">
				<use xlink:href="#SVGID_1_"  style="overflow:visible;"/>
			</clipPath>
			<g style="clip-path:url(#SVGID_2_);">
				<path style="fill:#332114;" d="M148.013,79.514c0,36.182,8.47,66.843-52.052,66.843c-59.208,0-48.204-30.661-48.204-66.843
					c0-36.181,18.053-53.828,50.729-53.828C131.167,25.685,148.013,43.333,148.013,79.514z"/>
				<path style="fill:#FFC78C;" d="M115.589,119.015c10.417-5.366,18.587-15.435,22.412-27.1c0.558,0.217,1.139,0.342,1.741,0.342
					c3.861,0,6.991-4.695,6.991-10.487c0-5.683-3.016-10.299-6.775-10.472c-2.852-20.665-20.14-36.562-41.054-36.562
					c-20.95,0-38.264,15.955-41.066,36.677c-0.34-0.077-0.687-0.13-1.041-0.13c-3.862,0-6.992,4.695-6.992,10.487
					s3.13,10.487,6.992,10.487c1.01,0,1.967-0.327,2.835-0.905c3.706,11.782,11.84,22,22.27,27.496v16.139
					c-19.695,2.746-9.48,6.42-9.48,6.42s2.423,13.467,24.033,13.467c21.61,0,40.608-16.465,19.134-19.761V119.015z"/>
				<g>
					<path style="fill:#FF6024;" d="M128.587,139.065c-13.451,0-8.298,10.991-28.441,10.991c-0.362,0-0.699-0.011-1.047-0.018
						c-0.346,0.007-0.683,0.018-1.046,0.018c-20.143,0-14.99-10.991-28.44-10.991c-19.34,0-39.482,62.05-25.898,62.05
						c6.699,0,30.375,0,54.339,0c0.349,0,0.698,0,1.046,0c0.35,0,0.698,0,1.047,0c23.964,0,47.64,0,54.339,0
						C168.068,201.115,147.927,139.065,128.587,139.065z"/>
					<path style="fill:#FEFBFD;" d="M118.559,136.466c-3.39,3.39-8.605,9.593-19.461,9.981c-10.854-0.389-16.069-6.592-19.46-9.981
						c-3.5-3.5-13.291,1.188-11.518,2.729c1.752,1.521,16.287,14.878,30.978,15.18c14.691-0.302,28.702-13.734,30.455-15.256
						C131.327,137.578,122.059,132.966,118.559,136.466z"/>
				</g>
				<path style="fill:#332114;" d="M50.985,71.149c0,0,8.857,1.81,26.765,2.713c0.739-8.564,2.215-12.148,2.215-12.148
					s6.856,12.651,11.382,12.651c31.951,0,53.074-3.216,53.074-3.216s-6.867-38.781-47.36-38.781
					C56.565,32.368,50.985,71.149,50.985,71.149z"/>
			</g>
		</g>
	</g>
</g>
</svg>
