<?xml version="1.0" encoding="utf-8"?>
<!-- Generator: Adobe Illustrator 17.0.0, SVG Export Plug-In . SVG Version: 6.00 Build 0)  -->
<!DOCTYPE svg PUBLIC "-//W3C//DTD SVG 1.1//EN" "http://www.w3.org/Graphics/SVG/1.1/DTD/svg11.dtd">
<svg version="1.1" id="_x37C_" xmlns="http://www.w3.org/2000/svg" xmlns:xlink="http://www.w3.org/1999/xlink" x="0px" y="0px"
	 width="69.05px" height="87.488px" viewBox="0 0 69.05 87.488" enable-background="new 0 0 69.05 87.488" xml:space="preserve">
<path fill="#C7000B" d="M11.086,32.892c0.375-1.77,1.498-3.546,2.117-5.319c0.494-2.28,2.114-4.169,2.114-6.705
	c-1.37-1.648-3.484-3.165-2.865-5.57c0.622-1.895,0.994-4.3,3.234-5.188c1.62-1.77,3.737,0.382,5.482-1.01
	c0.744,0.26,1.739,0.26,2.367,0.632l0.372-0.128c4.359,0.635,5.357,5.438,6.849,8.859c-0.619,2.405,0.751,5.066-1.245,6.964
	c-4.109,2.652-8.719,4.303-13.322,5.313c-1.37,1.267-3.112,1.642-4.606,2.658C11.333,33.267,10.961,33.267,11.086,32.892z
	 M68.855,61.24c-0.744,8.347-4.234,15.558-8.841,22.269c-0.122,0.757-0.497,1.267-0.994,1.895c-0.497,0-0.497-0.513-0.869-0.754
	l0.25-0.26c-0.622-1.01-1.37,0.26-1.87,0.632c-1.367,1.392-3.356,2.783-5.604,2.402c-1.245,0-1.992-1.517-3.487-1.141
	c-1.367-1.395-3.484-1.395-4.603-3.159c-2.614,0.256-3.737-2.536-5.854-3.671l-3.237-3.033c-0.872,0.122-1.495,0.372-2.239,0.122
	c0-0.763-0.622-1.26-1.251-1.392c-0.863,0.247-1.492-0.385-2.239-0.385c-0.622-0.504,0.5-0.885-0.247-1.382l-3.365-0.382
	c-0.125,0.632,0,1.392-0.622,1.764c-0.122-0.125-0.372,0.128-0.497,0.385c-0.25,2.151,0.253,4.938-1.742,6.198
	c-0.747,0.131-1.12-0.629-1.739-0.885c-0.872-0.507-2.621-0.882-2.496-2.273c-0.497-1.773,0-4.053-1.248-5.57
	c-1.867,1.385-2.614,3.665-4.353,4.932c-1.245-0.247-1.492-1.895-2.617-2.27c-0.869-1.526-3.731-1.526-2.986-3.928l1.12-3.29
	c2.492-5.823,6.223-11.008,7.596-17.206c-0.497-0.256-0.625,0.378-0.869,0.754c-1.87,3.168-4.481,5.829-5.235,9.491
	c-0.872,1.141-2.361,1.27-3.356,0.382C2.617,59.708,1.867,56.552,0,54.147c0.372-0.76,1.492-0.253,1.992-0.76
	c1.37-1.642,3.24-1.901,4.606-3.418c4.985-4.05,7.721-10.755,13.575-13.541c1.867,0.375,3.734-0.25,5.226,1.526
	c0.629,1.004,1.245,2.014,2.242,2.777c-0.125,0.125,0,0.382,0.125,0.382c0.872-0.507,1.242-1.517,1.62-2.405
	c1.116-2.151,1.989-4.425,3.105-6.836c0.5,0.26,0.375,1.019,0.375,1.648c-1.12,5.057-2.367,10.12-4.109,14.804l-0.372,0.256
	c-0.122,3.168-1.617,6.076-2.114,9.241c-0.247,1.517-1.248,2.912-0.876,4.425c2.492-0.122,4.853-0.76,7.221-1.263
	c0.872-1.135-0.622-2.28-0.622-3.54c0.622-1.392,0.125-3.165,1.992-3.803l0.25-0.885c1.37-2.023,3.362-3.665,4.106-6.07
	c-1.864-1.27,0.872-2.786,0.998-4.431c2.239-3.671,4.359-7.968,6.226-12.027v-0.625c-1.495-0.635-2.983-0.76-4.478-1.267
	c-0.375-1.26-2.364-1.773-1.748-3.29c0-0.382,0.497-0.885,0-1.141c-0.619,0.26-1.242,0.763-1.867,0.388
	c-0.744-0.635,0.5-1.398-0.247-2.026c-1.242-0.25-0.744-1.395-0.869-2.402c0.247-3.168,3.108-5.316,3.606-8.481
	c0.375-1.135,1.242-2.527,0.375-3.668c0-0.763-0.625-1.648,0.122-2.405c0.375-0.638,1.376,0,1.873-0.507
	c2.239-0.507,3.362-2.405,5.473-3.04c0.625-0.372,1.123-1.01,1.492-1.764c1.004,1.007,1.879,2.78,3.743,2.395
	c0.747,0.888,2.12,0.638,2.739,1.773c0.747,1.642,1.248,3.415,0,4.932c-1.12,3.29-3.484,5.82-4.356,9.11
	c-0.372,0.507-0.372,1.013-0.5,1.651l0.378,0.253c1.617,0,3.484-0.76,4.603,1.01l1.123,3.037c-0.125,1.773,0.872,3.412,0,5.185
	c-2.99,2.53-2.99,5.826-5.726,8.612c-1.129,2.27-2.37,4.675-2.746,7.333c0.375,0.372,0.998,0.125,1.37,0
	c3.243,0.507,5.476-2.783,8.844-1.648c1.742,0.885,3.734,1.773,4.979,3.165c1.617,0.382,3.108,1.395,3.609,3.033
	c0.128,1.145,1.251,1.908,1.123,2.912l0.253,0.256C68.733,55.542,69.355,58.579,68.855,61.24z M16.934,59.592
	c0-0.382-0.125-0.76-0.497-0.629c-2.617,3.287-4.853,6.83-4.109,11.261c1.992-0.635,1.867-2.908,3.606-4.053
	C17.434,64.399,16.809,61.872,16.934,59.592z M32.995,66.428c-2.242-1.016-3.859,1.52-5.976,1.138
	c-0.744,0.507-1.12,1.267-1.245,2.155c0.625,1.517,2.743,0.754,4.109,1.517C32.248,70.981,32.248,68.195,32.995,66.428z
	 M42.711,62.375c0.994,1.007,2.489,0.885,3.734,1.141c1.245-1.138,1.245-2.908,1.867-4.306c0.622-1.013,0.747-2.527,0.247-3.415
	l-0.375,0.504C46.567,58.704,43.956,59.714,42.711,62.375z M37.73,70.603c1.867-0.76,4.109-1.263,5.61-2.783
	c1.607-1.648-1.501-0.885-1.876-1.773c-0.872-0.131-1.623-0.382-2.117-1.013c-1.867,0.25-4.103-0.382-5.229,1.013
	c0.622,1.135,0,2.658,0.372,3.922C34.99,71.616,36.61,70.346,37.73,70.603z M53.663,73.64c-1.992-1.013-2.868-4.053-5.729-3.293
	c-0.622,0.125-1.242,1.267-1.864,0.763c-1.62,1.267-3.237,3.537-5.357,4.294c-0.876,0.382-1.989,0.382-2.865,0.885
	c0.744,0.885,0.994,1.905,2.117,2.28c0.494-0.372,0.994,0.26,1.242,0.638c0.872,0.382,1.87,0.247,2.746,0.125
	c0.244,0.256,0.619,0,0.869,0c0.998,0.885,2.739,1.392,3.859,0.763c1.12-1.395,2.617-0.888,3.862-0.385
	c1.242-0.122,1.867-1.392,2.489-2.155C56.649,75.919,53.663,75.159,53.663,73.64z M61.881,55.289
	c0.122-1.773-1.617-2.783-2.736-3.925h-0.372c-0.754-0.882-2.123-0.375-3.118-1.013c-0.869,0.513-2.117,0.76-2.486,1.773
	c1.367,4.685-0.375,9.491-2.871,13.288c0.372,0.382,0.751,0.638,1.123,0.885c1.495,2.411,4.109,4.05,5.851,6.329
	c1.745,1.26,1.498-2.023,3.365-2.023c-0.25-0.504-1.245-0.635-0.998-1.392c1.748-1.773,1.62-4.178,1.873-6.329
	c0.247-1.898-0.751-3.54-0.503-5.438c0.25-0.131,0.751,0,0.872,0.125C62.253,56.809,62.253,56.052,61.881,55.289z"/>
</svg>
