<?xml version="1.0" encoding="iso-8859-1"?>
<!-- Generator: Adobe Illustrator 17.0.0, SVG Export Plug-In . SVG Version: 6.00 Build 0)  -->
<!DOCTYPE svg PUBLIC "-//W3C//DTD SVG 1.1//EN" "http://www.w3.org/Graphics/SVG/1.1/DTD/svg11.dtd">
<svg version="1.1" id="Items" xmlns="http://www.w3.org/2000/svg" xmlns:xlink="http://www.w3.org/1999/xlink" x="0px" y="0px"
	 width="89.062px" height="32.603px" viewBox="0 0 89.062 32.603" style="enable-background:new 0 0 89.062 32.603;"
	 xml:space="preserve">
<g id="Eraser">
	<path style="opacity:0.1;" d="M87.472,7.332c-0.228-1.284-1.479-2.334-2.783-2.334H52.069v0h-1.738v0H7.373
		c-1.303,0-2.555,1.05-2.782,2.334c0,0-3.431,7.605-3.436,13.71c-0.005,4.958,2.277,8.232,2.979,9.604
		c0.702,1.373,1.936,1.957,3.239,1.957h42.958v0h1.738v0H84.69c1.303,0,2.555-1.05,2.783-2.334c0,0,1.59-5.363,1.59-11.468
		C89.062,12.695,87.472,7.332,87.472,7.332z"/>
	<g>
		<rect x="47.331" y="0" style="fill:#EDE9B0;" width="1.738" height="27.604"/>
		<path style="fill:#DE6C50;" d="M1.59,2.334C1.818,1.049,3.069,0,4.373,0h42.958v13.803v13.803H4.373
			c-1.304,0-2.555-1.05-2.782-2.334c0,0-1.59-5.363-1.59-11.468C0,7.697,1.59,2.334,1.59,2.334z"/>
		<path style="fill:#55A0C4;" d="M84.472,25.27c-0.228,1.285-1.479,2.334-2.782,2.334H49.069V13.802V0H81.69
			c1.303,0,2.555,1.05,2.782,2.334c0,0,1.59,5.363,1.59,11.468C86.062,19.907,84.472,25.27,84.472,25.27z"/>
		<path style="opacity:0.1;" d="M69.839,27.605h11.85c1.303,0,2.555-1.05,2.782-2.334c0,0,1.59-5.363,1.59-11.468
			c0-6.105-1.59-11.469-1.59-11.469C84.243,1.049,82.992,0,81.688,0h-11.85c1.303,0,2.555,1.05,2.782,2.334
			c0,0,1.59,5.363,1.59,11.469c0,6.105-1.59,11.468-1.59,11.468C72.394,26.555,71.142,27.605,69.839,27.605z"/>
	</g>
</g>
</svg>
