<?xml version="1.0" encoding="iso-8859-1"?>
<!-- Generator: Adobe Illustrator 17.0.0, SVG Export Plug-In . SVG Version: 6.00 Build 0)  -->
<!DOCTYPE svg PUBLIC "-//W3C//DTD SVG 1.1//EN" "http://www.w3.org/Graphics/SVG/1.1/DTD/svg11.dtd">
<svg version="1.1" id="Layer_1" xmlns="http://www.w3.org/2000/svg" xmlns:xlink="http://www.w3.org/1999/xlink" x="0px" y="0px"
	 width="150.132px" height="150.12px" viewBox="0 0 150.132 150.12" style="enable-background:new 0 0 150.132 150.12;"
	 xml:space="preserve">
<g>
	<circle style="fill:#EFA7B5;" cx="75.06" cy="75.062" r="75.06"/>
	<path style="fill:#EDC6AD;" d="M31.815,130.391c3.112-2.931-0.774-14.589-3.361-13.726c-1.578,0.527-1.234,2.832-1.1,4.547
		c-1.066-1.311-6.4-6.246-8.111-4.86c-1.731,1.405,1.724,4.33,3.303,6.021c-1.469-0.684-5.945-6.148-8.194-4.141
		c-1.509,1.348,3.033,6.118,4.442,7.94c-1.427-1.49-5.394-6.748-7.092-5.58c-2.877,1.98,2.932,7.532,3.757,9.282
		c-1.255-1.115-3.107-4.627-4.842-3.4c-2.452,1.73,4.117,11.274,8.873,11.742c3.585,0.355,4.849-0.841,4.849-0.841
		c2.016,0.7,5.407,3.184,6.938,4.229l5.285-6.689C34.934,133.517,32.529,131.743,31.815,130.391z"/>
	<defs>
		<filter id="Adobe_OpacityMaskFilter" filterUnits="userSpaceOnUse" x="10.086" y="116.109" width="26.475" height="25.497">
			<feFlood  style="flood-color:white;flood-opacity:1" result="back"/>
			<feBlend  in="SourceGraphic" in2="back" mode="normal"/>
		</filter>
	</defs>
	<mask maskUnits="userSpaceOnUse" x="10.086" y="116.109" width="26.475" height="25.497" id="SVGID_1_">
		<g style="filter:url(#Adobe_OpacityMaskFilter);">
			<defs>
				<filter id="Adobe_OpacityMaskFilter_1_" filterUnits="userSpaceOnUse" x="10.086" y="116.109" width="26.475" height="25.497">
					<feFlood  style="flood-color:white;flood-opacity:1" result="back"/>
					<feBlend  in="SourceGraphic" in2="back" mode="normal"/>
				</filter>
			</defs>
			<mask maskUnits="userSpaceOnUse" x="10.086" y="116.109" width="26.475" height="25.497" id="SVGID_1_">
			</mask>
			
				<linearGradient id="SVGID_2_" gradientUnits="userSpaceOnUse" x1="4328.083" y1="117.5204" x2="4345.8398" y2="140.2482" gradientTransform="matrix(1 0 0 1 -4312.8262 0)">
				<stop  offset="0" style="stop-color:#FFFFFF"/>
				<stop  offset="0.3636" style="stop-color:#000000"/>
			</linearGradient>
			<path style="mask:url(#SVGID_1_);fill:url(#SVGID_2_);" d="M31.815,130.391c3.112-2.931-0.774-14.589-3.361-13.726
				c-1.578,0.527-1.234,2.832-1.1,4.547c-1.066-1.311-6.4-6.246-8.111-4.86c-1.731,1.405,1.724,4.33,3.303,6.021
				c-1.469-0.684-5.945-6.148-8.194-4.141c-1.509,1.348,3.033,6.118,4.442,7.94c-1.427-1.49-5.394-6.748-7.092-5.58
				c-2.877,1.98,2.932,7.532,3.757,9.282c-1.255-1.115-3.107-4.627-4.842-3.4c-2.452,1.73,4.117,11.274,8.873,11.742
				c3.585,0.355,4.849-0.841,4.849-0.841c1.617,1.594,4.624,2.765,6.938,4.229l5.285-6.689
				C34.934,133.517,32.529,131.743,31.815,130.391z"/>
		</g>
	</mask>
	
		<linearGradient id="SVGID_3_" gradientUnits="userSpaceOnUse" x1="4328.083" y1="117.5204" x2="4345.8398" y2="140.2482" gradientTransform="matrix(1 0 0 1 -4312.8262 0)">
		<stop  offset="0" style="stop-color:#F48184"/>
		<stop  offset="0.3636" style="stop-color:#F48184"/>
	</linearGradient>
	<path style="opacity:0.5;fill:url(#SVGID_3_);" d="M31.815,130.391c3.112-2.931-0.774-14.589-3.361-13.726
		c-1.578,0.527-1.234,2.832-1.1,4.547c-1.066-1.311-6.4-6.246-8.111-4.86c-1.731,1.405,1.724,4.33,3.303,6.021
		c-1.469-0.684-5.945-6.148-8.194-4.141c-1.509,1.348,3.033,6.118,4.442,7.94c-1.427-1.49-5.394-6.748-7.092-5.58
		c-2.877,1.98,2.932,7.532,3.757,9.282c-1.255-1.115-3.107-4.627-4.842-3.4c-2.452,1.73,4.117,11.274,8.873,11.742
		c3.585,0.355,4.849-0.841,4.849-0.841c1.617,1.594,4.624,2.765,6.938,4.229l5.285-6.689
		C34.934,133.517,32.529,131.743,31.815,130.391z"/>
	<path style="fill:#E0936E;" d="M17.955,130.468c-0.1,0-0.201-0.021-0.297-0.066c-0.356-0.164-0.512-0.586-0.347-0.942
		c0.954-2.063,4.878-5.118,6.121-5.671c0.358-0.159,0.778,0.001,0.938,0.359c0.16,0.358-0.001,0.778-0.36,0.938
		c-1.067,0.476-4.644,3.314-5.409,4.97C18.48,130.314,18.224,130.468,17.955,130.468L17.955,130.468z"/>
	<path style="fill:#DE827D;" d="M33.229,130.881c4.272,1.953,9.54,5.194,17.658,0.975c5.128-2.665,5.308-3.663,10.009,2.356
		c2.059,2.638-11.828,22.468-34.207,5.966C26.689,137.48,30.375,131.882,33.229,130.881z"/>
	<g>
		<defs>
			<circle id="SVGID_4_" cx="74.948" cy="75.062" r="75.06"/>
		</defs>
		<clipPath id="SVGID_5_">
			<use xlink:href="#SVGID_4_"  style="overflow:visible;"/>
		</clipPath>
		<path style="clip-path:url(#SVGID_5_);fill:#675946;" d="M139.069,69.118c-10.79-53.061-60.726-61.03-74.426-51.391
			c-35.963-1.959-74.04,57.36-40.346,84.746c0,0,14.02,31.707,49.9,28.176c6.614-0.651,9.544-1.393,15.149-2.667
			c2.015,1.899,6.69,5.591,8.328,5.11c1.25-0.366,2.979-4.081,4.147-6.76c2.467,0.221,5.608,3.124,6.761,1.971
			c1.417-1.416,1.544-4.318,1.417-6.297c4.111-4.111,8.848-7.537,13.428-16.862C140.976,96.72,141.303,80.103,139.069,69.118z"/>
		<path style="clip-path:url(#SVGID_5_);fill:#DE827D;" d="M92.081,132.165c-4.013-5.325-8.319-5.22-13.021,0.801
			c-4.14,5.305,13.863,22.133,19.194,27.465c3.517,0,8.089-4.852,8.255-7.12C105.779,151.658,93.888,134.567,92.081,132.165z"/>
		<ellipse style="clip-path:url(#SVGID_5_);fill:#EDC6AD;" cx="69.615" cy="131.174" rx="9.525" ry="8.123"/>
		<path style="clip-path:url(#SVGID_5_);fill:#DE827D;" d="M88.623,140.896c0-5.729-3.292-13.329-8.882-14.606
			c0,4.476-8.12,12.61-10.833,12.61c-2.287,0-8.854-7.975-8.854-11.961c-4.268,3.119-6.134,8.762-6.855,14.111
			c-1.351,10.047-2.113,20.444-4.172,25.586c7.067,4.161,32.941,5.282,41.055,1.302C90.385,163.711,88.623,150.521,88.623,140.896z"
			/>
		<path style="clip-path:url(#SVGID_5_);fill:#EDC6AD;" d="M117.759,95.143l-4.351,16.25
			C129.772,116.654,132.712,95.774,117.759,95.143z"/>
		<path style="clip-path:url(#SVGID_5_);fill:#EDC6AD;" d="M117.849,104.673c-4.441,18.516-23.758,30.805-56.877,26.639
			c-23.57-2.965-38.058-16.984-35.727-35.238c0,0-19.024-77.304,51.631-71.704C157.194,30.736,117.849,104.673,117.849,104.673z"/>
		<path style="clip-path:url(#SVGID_5_);fill:#D67A6A;" d="M63.007,123.562c-1.096,0-2.186-0.103-3.191-0.287
			c-3.596-0.66-6.188-2.227-7.113-4.3c-0.208-0.466,0.001-1.012,0.467-1.22c0.466-0.205,1.011,0.001,1.22,0.468
			c0.653,1.463,2.86,2.703,5.76,3.234c3.596,0.662,7.159,0.065,8.662-1.446c0.358-0.362,0.944-0.363,1.306-0.004
			c0.361,0.36,0.363,0.944,0.003,1.307C68.523,122.92,65.745,123.562,63.007,123.562L63.007,123.562z"/>
		<path style="clip-path:url(#SVGID_5_);fill:#76634E;" d="M44.529,86.436c-0.283,0-0.561-0.139-0.727-0.393
			c-0.866-1.324-2.333-1.198-2.763-1.131c-0.85,0.137-1.396,0.564-1.464,0.821c-0.123,0.463-0.598,0.737-1.062,0.616
			c-0.463-0.123-0.739-0.599-0.616-1.062c0.274-1.032,1.399-1.853,2.865-2.09c1.843-0.298,3.521,0.41,4.492,1.894
			c0.263,0.401,0.15,0.939-0.251,1.202C44.856,86.39,44.691,86.436,44.529,86.436L44.529,86.436z"/>
		<path style="clip-path:url(#SVGID_5_);fill:#76634E;" d="M96.038,90.377c-0.32,0-0.629-0.179-0.78-0.486
			c-0.697-1.421-2.166-1.477-2.603-1.463c-0.859,0.032-1.453,0.39-1.552,0.637c-0.179,0.443-0.683,0.662-1.129,0.48
			c-0.445-0.179-0.66-0.684-0.481-1.129c0.399-0.991,1.615-1.668,3.099-1.723c1.859-0.052,3.444,0.841,4.226,2.434
			c0.211,0.43,0.033,0.95-0.397,1.161C96.296,90.349,96.166,90.377,96.038,90.377L96.038,90.377z"/>
		<path style="clip-path:url(#SVGID_5_);fill:#675946;" d="M30.437,101.014c-0.719-8.381,4.333-31.005,21.019-43.202
			c-0.925,11.427,8.083,24.615,12.551,22.22c3.462-1.854-1.823-8.749,1.973-23.239c1.643,12.301,9.537,17,14.524,20.199
			c9.01,5.779,28.844,23.804,30.613,32.583c7.907,4.897,59.246-70.952-28.854-91.579C30.149,5.793-3.517,71.224,30.437,101.014z"/>
		<g style="clip-path:url(#SVGID_5_);">
			<path style="fill:#ECB194;" d="M45.977,97.861c0,3.986-2.914,7.211-5.919,7.211c-3.002,0-5.443-3.225-5.443-7.211
				c0-3.982,2.711-8.763,5.68-8.324C44.532,90.162,45.977,93.879,45.977,97.861z"/>
			<path style="fill:#FFFFFF;" d="M46.008,98.661c0,3.986-2.334,7.21-5.208,7.21c-2.875,0-5.209-3.224-5.209-7.21
				c0-3.982,2.334-7.208,5.209-7.208C43.674,91.453,46.008,94.679,46.008,98.661z"/>
			<ellipse style="fill:#030000;" cx="40.801" cy="98.851" rx="3.944" ry="5.465"/>
			<path style="fill:#5B4E40;" d="M48.757,96.548c-1.307,0.06-2.01-0.487-2.605-1.48c-1.457-2.434-4.211-4.091-5.439-4.359
				c-3.623-0.794-4.336,0.844-4.462,1.396c-0.126,0.566-1.399,0.529-1.605,0.499c-0.655-0.115-1.271,0.305-1.39,0.949
				c-0.122,0.649,0.309,1.241,0.952,1.392c1.945,0.46,3.641-0.816,4.371-2.315c1.688-0.892,5.097,1.809,6.226,3.266
				C45.561,96.653,46.484,97.773,48.757,96.548z"/>
		</g>
		<g style="clip-path:url(#SVGID_5_);">
			<path style="fill:#ECB194;" d="M94.595,110.325c-2.972-2.732-5.883-4.626-9.504-3.516c0.194-1.438,0.927-4.387,4.589-3.579
				C93.004,103.965,94.242,107.375,94.595,110.325z"/>
			<path style="fill:#5B4E40;" d="M96.634,109.55c-1.288,0.726-2.046,0.634-2.524,0.369c-2.054-2.697-2.948-4.469-4.44-5.092
				c-3.421-1.431-4.532,0.91-4.757,1.433c-0.225,0.531-1.035,0.42-1.232,0.351c-0.624-0.232-1.306,0.073-1.539,0.688
				c-0.237,0.613,0.069,1.303,0.686,1.539c0.179,0.066,0.361,0.111,0.545,0.136c1.471,0.198,2.867-0.249,3.736-1.782
				c0.035-0.06,0.043,0.429-0.337,0.837c1.25,0.034,2.096-0.186,2.693-0.485c1.633,0.544,2.513,2.925,4.486,3.927
				C94.704,111.626,95.763,111.476,96.634,109.55z"/>
		</g>
	</g>
</g>
</svg>
