<?xml version="1.0" encoding="utf-8"?>
<!-- Generator: Adobe Illustrator 17.0.0, SVG Export Plug-In . SVG Version: 6.00 Build 0)  -->
<!DOCTYPE svg PUBLIC "-//W3C//DTD SVG 1.1//EN" "http://www.w3.org/Graphics/SVG/1.1/DTD/svg11.dtd">
<svg version="1.1" id="图层_1" xmlns="http://www.w3.org/2000/svg" xmlns:xlink="http://www.w3.org/1999/xlink" x="0px" y="0px"
	 width="538.32px" height="776.692px" viewBox="0 0 538.32 776.692" enable-background="new 0 0 538.32 776.692"
	 xml:space="preserve">
<path fill="#E5A723" d="M59.961,760.854h-2.2v-3.553v-15.573h2.174l0.022,15.573L59.961,760.854z M480.563,760.855h-2.203
	l-0.004,1.589h-4.305v-1.589h-2.285v1.489l-202.605,0.035l-202.606-0.035v-1.489h-2.282l0.002,1.589h-4.31l-0.004-1.589h-2.2v1.589
	H45.333l0.008-1.589h-3.485v5.184h206.472h41.665h206.472v-5.184h-3.484l0.008,1.589h-12.426V760.855z M528.124,326.529
	l-0.002,61.817l0.002,61.817h-0.004l-0.008,262.879v6.887v2.412v1.936v6.494v0.001v3.282l-10.965-0.026l-0.007,7.699H514
	l0.008-10.765l10.514-0.016l0.002-0.174h-0.001l0.021-6.495l0.004-1.936l0.012-2.412h-0.001l0.002-1.073l-24.224,0.015v1.058v0.001
	v2.411h0.001v1.936v5.429h-11.04v-5.429v-1.936v-1.226l-2.182-0.039l0.012,1.265h0.001l0.014,1.936h-0.001l0.012,1.081l-4.386-0.038
	v2.283h4.282l0.031,3.169h-0.001v0h-1.786v-1.248h-2.384v1.248v3.282l-6.633,0.013v-3.295h0.001v-3.235l4.245,0.027l0.04-2.206
	l-4.27-0.038l-0.012-1.043h0.001l-0.015-1.936l-0.012-1.329h-2.166l-0.004,1.329l-0.002,1.936l-0.006,6.495h0.001l-0.008,10.955
	h-2.304v-10.955v-6.495v-1.936v-2.411v-0.001v-1.304h4.076v-2.062l-4.103-0.024l0.015-3.497h1.64v1.763h3.309v-1.763h1.653v0.994
	h2.167l0.012-0.994h-0.001v-0.001l0.028-3.033l43.883,0.131l0.031-321.793l-0.031-321.79l-43.883,0.125l-0.028-3.029v-0.001h0.001
	l-0.012-0.994h-2.167v0.995v0.001v3.311l-6.59-0.038l-0.012-3.273l-0.015-3.495l4.103-0.027v-2.065h-4.076v-1.302v-2.412v-1.935
	v-6.494v-10.96V19.39v-3.552h2.285l0.004,3.552l0.011,15.573l0.012,10.96h-0.001l0.006,6.494l0.002,1.935l0.004,1.328h2.166
	l0.012-1.328h-0.001l0.015-1.935h0.001l0.012-1.045l4.27-0.041l-0.04-2.204l-4.245,0.026v-3.23h-0.002v-3.296l6.633,0.011v3.284
	h0.001v1.242h2.384v-1.241h-0.001V40.23h-6.9l-0.007-5.267h-0.001l-0.022-15.573l-0.005-3.552h2.203v3.552v15.573h0.001v3.085h6.592
	l-0.074,7.874h0.001l-0.03,3.167h-4.282v2.282l4.386-0.041l-0.013,1.087h-0.001l-0.014,1.935h0.001l-0.012,1.263l2.182-0.034v-1.229
	h-0.001v-1.935v-5.431h11.04v5.431v1.935h0.001v2.412h-0.001h-0.001v1.055l24.224,0.015l-0.002-1.071h0.001l-0.012-2.411
	l-0.004-1.935l-0.021-6.494h0.001l-0.002-0.18l-10.514-0.011L514,34.963h3.14l0.007,7.702l10.965-0.027v3.285v0.001v6.493v1.935
	v2.411v0.001v6.887l0.008,262.878H528.124z M524.453,713.042l-0.008-0.723h-41.677v0.723h0.001v1.544l4.63-0.022l0.012,4.462
	l8.399-0.013v0.917h-0.001v2.411h0.001v1.936v1.262l-4.27-0.012v2.01h6.426l-0.014-3.26l-0.005-1.936l-0.008-2.411l-0.012-3.212
	h26.555L524.453,713.042z M3.488,741.727H0v-10.955v-6.495v-1.936v-2.412v-6.888V450.088V326.603V63.653v-0.001v-6.888v-2.412
	v-1.935v-6.494v-10.96V19.39v-3.552v-1.591l7.003-0.038l0.012-3.616H0V5.43V0.244h10.633l0.019,5.186h-0.001l0.008,1.635h3.668V5.43
	h0.001V0.064L247.981,0.01V0l21.18,0.005L290.34,0v0.01l233.656,0.054V5.43v1.635h3.668l0.004-1.635l0.02-5.186h10.632V5.43v5.163
	h-7.014l0.011,3.616l7.003,0.038v1.591v3.552v15.573v10.96v6.494v1.935v2.412v6.888v0.001v262.95v123.485v262.953v6.888v2.412v1.936
	v6.495v10.955h-3.488v-10.955v-6.495v-1.936v-2.412v-6.888V450.072V326.617V63.653v-0.001v-6.888v-2.412v-1.935v-6.494v-10.96V19.39
	v-1.796h-3.656l-0.002,1.796h-0.001l-0.009,5.037h-6.949v3.643l7.102,0.013l0.01,6.88l0.006,3.853l-10.606,0.065l-0.007-3.918
	l-0.008-3.224h-3.575l0.004,3.223h-3.143l-0.006-6.61h7.104l-0.026-3.691h-6.936V19.39h0.001v-1.452h-3.589v1.452h0.002v12.388
	h-17.66l0.07-12.388l0.023-3.552h3.484v3.552h0.001v9.066h10.708l0.061-3.577h-7.347l0.034-5.489h-0.001l0.02-3.552l0.011-1.694
	h14.015V7.31h7.005V5.43h-0.001V3.822L290.34,3.853v0.006l-21.179-0.003l-21.18,0.003V3.853L17.353,3.822V5.43v1.88h7.001v6.834
	h14.015l0.012,1.694H38.38l0.022,3.552l0.031,5.489h-7.347l0.064,3.577h10.705V19.39h0.001v-3.552v-5.184h206.472h41.665h206.472
	v5.183h-3.484l0.008-1.591h-12.426v1.591h-2.203l-0.004-1.591h-4.305v1.591h-2.285V14.35l-202.325-0.034L66.555,14.351v1.487v3.552
	v15.573v10.96v6.494v1.935v2.412v1.302h-4.076v2.065l4.104,0.027l-0.014,3.495h-0.001l-0.014,3.273l-6.59,0.038v-3.312h0.001v-0.995
	h-2.166l-0.012,0.996l-0.026,3.028l-43.885-0.125l-0.032,321.79l0.032,321.793l43.885-0.131l0.026,3.033v0.001l0.012,0.994h2.166
	v-0.994h1.654v1.763h3.309v-1.763h1.641l0.014,3.497l-4.104,0.024v2.062h4.076v1.304v0.001v2.411v1.936v6.495v10.955h-2.302
	l-0.01-10.955h0.001l-0.004-6.495l-0.004-1.936l-0.001-1.329h-2.168l-0.012,1.329l-0.016,1.936l-0.012,1.043l-4.267,0.038
	l0.038,2.206l4.244-0.027v3.235h0.001v3.295l-6.632-0.013v-3.282h0.001v-1.248h-2.385v1.248h-0.001v5.691h6.9l0.009,5.264h-2.174
	v-3.083h-6.594l0.072-7.872h0.001l0.03-3.169h4.283v-2.283l-4.386,0.038l0.012-1.081l0.015-1.936l0.012-1.265l-2.178,0.039v1.226
	h-0.001v1.936v5.429H37.984v-5.429v-1.936v-2.412h0.001v-1.058l-24.223-0.015l0.004,1.073l0.007,2.412h-0.001l0.004,1.936h0.001
	l0.023,6.495v0.175l10.516,0.015l0.006,10.765h-3.141l-0.008-7.699l-10.964,0.026v-3.282v0v-6.495v-1.936v-2.412v-6.887
	l-0.008-262.879h-0.004l0.002-61.817l-0.002-61.817h0.004l0.008-262.878v-6.887v-0.001v-2.411v-1.935v-6.494v-3.285l10.964,0.027
	l0.008-7.702h3.141l-0.006,10.769L13.8,45.742v0.181l-0.023,6.494h-0.001l-0.004,1.935h0.001l-0.007,2.412l-0.004,1.07l24.223-0.015
	v-1.055v-0.002v-2.41h-0.001v-1.935v-5.431h11.043v5.431v1.935h0.001v1.229l2.178,0.034l-0.012-1.263l-0.015-1.935l-0.012-1.086
	l4.386,0.041V49.09H51.27l-0.03-3.167h-0.002l-0.072-7.875h6.594v-3.085h0.001V19.39v-3.552v-1.591H45.333l0.008,1.591H45.34
	l0.022,3.552l0.07,12.388H27.778V19.39v-1.452h-3.591v1.452h0.001v5.271H17.25l-0.026,3.691h7.106l-0.008,6.61h-3.141l0.004-3.223
	h-3.576l-0.008,3.224l-0.007,3.918L6.991,38.816l0.004-3.853l0.008-6.88l7.104-0.013v-3.643H7.156L7.148,19.39l-0.004-1.796H3.488
	v1.796v15.573v10.96v6.494v1.935v2.412v6.888v0.001v262.964v123.455v262.969v6.888v2.412v1.936v6.495V741.727z M13.871,713.042
	l-0.033,3.676h26.558l-0.01,3.212h-0.001l-0.009,2.411l-0.008,1.936l-0.012,3.26h6.424v-2.01l-4.269,0.012v-1.262v-1.936h0.001
	v-2.411h11.451v2.411v0.387h5.616v-0.387v-2.411v-0.001v-2.647h-5.616v2.647H42.512v-0.916l8.398,0.013l0.014-4.462l4.629,0.022
	v-1.544v-0.723H13.876L13.871,713.042z M485.294,730.772L485.294,730.772l-0.001,5.691h-6.9l-0.007,5.264h2.175v-3.083h6.592
	l-0.073-7.872L485.294,730.772L485.294,730.772z M17.353,771.264v-1.881h7.001v-6.833h14.015l0.012-1.696H38.38l0.022-3.553
	l0.031-5.486h-7.347l0.064-3.578h10.705v9.064h0.001v3.553h3.484l0.022-3.553l0.07-12.386H27.778v12.386v1.451h-3.591v-1.451h-4.184
	v3.553h0.001v4.247h-8.552v-4.247v-3.553H7.148l-0.004,1.797H3.488v-1.797v-15.573H0v15.573v3.553v1.589l7.003,0.042l0.012,3.614H0
	v5.165v5.185h10.633l0.019-5.185h-0.001l0.008-1.637h3.668v1.637H17.353z M24.322,741.728h-3.141l0.004,3.225h-3.576l-0.008-3.226
	l-0.007-3.916l-10.603,0.065l0.004,3.851l0.008,6.881l7.104,0.015v3.643H7.156l-0.008,5.035h4.304v-0.688h8.552v0.688h4.184v-5.268
	H17.25l-0.026-3.693h7.106L24.322,741.728z M66.568,713.041l-0.014-3.277l-6.59-0.038v3.315h1.654v-1.76h3.309v1.76H66.568z
	 M66.555,760.854v-3.553v-15.573h-2.302l0.014,15.573l0.006,3.553H66.555z M538.32,741.728v15.573v3.553v1.589l-7.003,0.042
	l-0.011,3.614h7.014v5.165v5.185h-10.632l-0.02-5.185l-0.004-1.637h-3.668v1.637h-3.024v-1.881h-7.005v-6.833h-14.015l-0.011-1.696
	l-0.02-3.553h0.001l-0.034-5.486h7.347l-0.061-3.578h-10.708v9.064h-0.001v3.553h-3.484l-0.023-3.553l-0.07-12.386h17.66v12.386
	h-0.002v1.451h3.589v-1.451h-0.001v-5.268h6.936l0.026-3.693h-7.104l0.006-6.612h3.143l-0.004,3.225h3.575l0.008-3.226l0.007-3.916
	l10.606,0.065l-0.006,3.851l-0.01,6.881l-7.102,0.015v3.643h6.949l0.009,5.035h0.001l0.002,1.797h3.656v-1.797h0v-15.573H538.32z
	 M526.869,757.301L526.869,757.301l-0.001-0.688h-8.552v0.688h0.001v3.553v4.247h8.552v-4.247V757.301z M520.971,772.873
	L290.34,772.84v-0.006l-21.179,0.003l-21.18-0.003v0.006l-230.628,0.033v-1.609h-3.025v5.363l233.653,0.055v0.01l21.18-0.005
	l21.179,0.005v-0.01l233.656-0.055v-5.363h-3.025V772.873z M474.055,757.301l0.015-15.573h-2.304v15.573l0,0v3.553h2.285
	L474.055,757.301z M480.562,757.301v-15.573h-2.176l-0.022,15.573l-0.005,3.553h2.203V757.301z M478.356,713.041v-3.315l-6.59,0.038
	l-0.012,3.277h1.64v-1.76h3.309v1.76H478.356z"/>
</svg>
