<?xml version="1.0" encoding="utf-8"?>
<!-- Generator: Adobe Illustrator 17.0.0, SVG Export Plug-In . SVG Version: 6.00 Build 0)  -->
<!DOCTYPE svg PUBLIC "-//W3C//DTD SVG 1.1//EN" "http://www.w3.org/Graphics/SVG/1.1/DTD/svg11.dtd">
<svg version="1.1" id="图层_1" xmlns:ev="http://www.w3.org/2001/xml-events"
	 xmlns="http://www.w3.org/2000/svg" xmlns:xlink="http://www.w3.org/1999/xlink" x="0px" y="0px" width="156px" height="37px"
	 viewBox="0 0 156 37" enable-background="new 0 0 156 37" xml:space="preserve">
<path fill="#08A1EF" d="M151.882,8.687H156v2.759h-5.778c0,0-1.124-0.042-1.596-1.237l-1.277-2.536h-0.607v4.66h8.971l-1.309,3.551
	h1.5v5.2c0,0-0.13,1.585-2.362,1.585h-10.95v-2.536h9.418c0,0,0.227-0.074,0.223-0.222v-1.363h-2.682l0.799-3.171h-9.577
	l-1.245,5.295c0,0-0.54,2.286-2.81,1.997h-3.001v-2.758h1.629c0,0,0.499-0.066,0.606-0.507l0.958-4.027h-3.193v-3.044h9.067v-4.66
	h-0.511l-1.277,2.536c0,0-0.769,1.34-2.905,1.3h-4.278V8.687h3.895c0,0,0.498-0.029,0.702-0.444l0.192-0.57h-4.885V5.041h9.067
	V4.027h-9.162V1.173h18.388c0,0,0.25-0.051,0.319-0.38V0.285h3.575v1.681c0,0-0.225,2.061-3.032,2.061h-6.13v0.982H156v2.664h-4.98
	l0.287,0.697C151.307,8.37,151.511,8.687,151.882,8.687z M132.249,30.564c-0.241-1.41-1.373-1.268-1.373-1.268
	c-1.647,0-1.628,2.251-1.628,2.251c0,2.795,1.66,2.536,1.66,2.536c1.203,0,1.341-1.427,1.341-1.427h2.618
	c-0.301,3.759-3.927,3.615-3.927,3.615c-4.576,0-4.31-4.693-4.31-4.693c0-4.574,4.214-4.47,4.214-4.47
	c3.995,0,3.959,3.456,3.959,3.456H132.249z M126.822,5.136l-1.82-2.283h-11.077l-1.852,2.6c0,0-0.321,0.349-0.766,0.349h-3.224
	V2.949h1.373c0,0,0.102-0.001,0.191-0.159L111.563,0h15.642l1.947,2.695c0,0,0.133,0.171,0.384,0.158h1.117v2.854h-3.033
	C127.62,5.707,127.166,5.707,126.822,5.136z M105.593,31.388l3.16,4.661h-3.256l-1.532-2.6l-1.532,2.6h-3.129l3.192-4.597
	l-2.873-4.122h3.161l1.309,2.41l1.308-2.41h3.033L105.593,31.388z M103.199,22.669h-4.853v-2.631h2.746
	c0.401,0,0.415-0.381,0.415-0.381v-4.47H87.46l-0.83,1.046c-0.488,0.59-1.308,0.507-1.308,0.507h-2.618v-3.012h0.734
	c0.41,0,0.543-0.253,0.543-0.253l1.309-2.156h-1.692V0.19h21.388v9.068c-0.051,2.191-2.17,2.156-2.17,2.156H89.472l-0.607,1.014
	h16.313v8.339C105.037,22.759,103.199,22.669,103.199,22.669z M100.932,3.044H87.269v1.49h13.663V3.044z M100.804,8.782
	c0,0,0.22-0.099,0.224-0.285v-1.3H87.269v1.585H100.804z M85.481,19.435l2.394-3.265h4.374l-4.437,5.77c0,0-0.742,0.637-1.66,0.539
	h-3.544v-2.632h2.362C84.97,19.847,85.257,19.782,85.481,19.435z M88.769,29.549h-4.437v1.078h4.022v2.093h-4.022v1.11h4.565v2.219
	h-7.183V27.33h7.055C88.769,27.33,88.769,29.549,88.769,29.549z M75.293,36.499C75.107,36.818,74.792,37,74.422,37h-2.57
	c-0.37,0-0.685-0.182-0.871-0.501l-1.283-2.216c-0.186-0.32-0.186-0.684,0-1.005l1.283-2.216c0.186-0.319,0.501-0.501,0.871-0.501
	h2.57c0.37,0,0.685,0.182,0.871,0.501l1.283,2.216c0.186,0.321,0.186,0.685,0,1.005L75.293,36.499z M21.957,21.72h-2.569
	c-0.371,0-0.686-0.182-0.871-0.502l-1.284-2.216c-0.186-0.32-0.186-0.684,0-1.004l1.284-2.216c0.185-0.32,0.5-0.501,0.871-0.501
	h2.569c0.37,0,0.686,0.181,0.871,0.501l1.284,2.216c0.185,0.32,0.185,0.684,0,1.004l-1.284,2.216
	C22.643,21.538,22.327,21.72,21.957,21.72z M67.898,34.119C66.844,35.957,65.049,37,62.942,37H48.324
	c-2.107,0-3.902-1.043-4.956-2.881l-3.462-6.036l3.683-6.325l4.037,7.014c0.692,1.202,1.871,1.885,3.254,1.885h9.601
	c1.384,0,2.562-0.683,3.255-1.885l4.797-8.335c0.693-1.205,0.693-2.573,0-3.777l-4.797-8.335c-0.693-1.203-1.871-1.886-3.255-1.886
	H50.88c-1.383,0-2.562,0.683-3.254,1.886L32.889,34.119C31.835,35.957,30.04,37,27.934,37H13.315c-2.106,0-3.901-1.043-4.955-2.881
	L1.055,21.385C0,19.546,0,17.454,1.055,15.615L8.36,2.881C9.414,1.044,11.209,0,13.315,0h14.619c2.106,0,3.901,1.044,4.955,2.881
	l3.493,6.089l-3.681,6.258l-3.974-6.903c-0.692-1.203-1.871-1.886-3.254-1.886h-9.601c-1.384,0-2.563,0.683-3.255,1.886L7.82,16.66
	c-0.693,1.204-0.693,2.572,0,3.777l4.797,8.335c0.692,1.202,1.871,1.885,3.255,1.885h9.601c1.383,0,2.562-0.683,3.254-1.885
	L43.368,2.881C44.422,1.044,46.217,0,48.324,0h14.618c2.107,0,3.902,1.044,4.956,2.881l7.304,12.734c1.055,1.839,1.055,3.931,0,5.77
	L67.898,34.119z M93.781,22.574h-3.607v-2.631h1.468c0.447,0.002,0.671-0.349,0.671-0.349l2.618-3.202H99.4l-4.406,5.707
	C94.555,22.531,93.781,22.574,93.781,22.574z M94.388,27.108c4.46,0,4.373,4.534,4.373,4.534c0,2.025-0.989,3.107-0.989,3.107
	l1.021,1.046L97.58,37l-1.149-1.205c-0.431,0.397-1.82,0.476-1.82,0.476c-4.684,0.019-4.501-4.598-4.501-4.598
	C90.247,26.936,94.388,27.108,94.388,27.108z M94.452,34.083c0,0,0.242-0.016,0.319-0.063l-0.734-0.729l1.213-1.174l0.702,0.73
	c0,0,0.192-0.298,0.192-1.11c0,0,0.185-2.441-1.724-2.441c0,0-1.692-0.182-1.692,2.473C92.728,31.769,92.683,34.083,94.452,34.083z
	 M111.946,36.049h-2.618V27.33h2.618V36.049z M113.191,27.33h2.617v5.453c0,1.417,1.373,1.3,1.373,1.3
	c1.291,0,1.341-1.331,1.341-1.331V27.33h2.618v5.643c0,3.553-3.863,3.298-3.863,3.298c-4.414,0-4.086-3.361-4.086-3.361V27.33z
	 M130.557,19.816v2.853h-22.282v-2.822h2.202V7.292h3.288v12.524h3.767V4.819h3.672v4.154h9.162v3.043h-9.162v7.8H130.557z
	 M125.322,36.049h-2.49v-2.41h2.49V36.049z M140.294,27.108c4.359,0,4.341,4.502,4.341,4.502c0,4.818-4.277,4.661-4.277,4.661
	c-4.636,0-4.374-4.788-4.374-4.788C136.223,26.918,140.294,27.108,140.294,27.108z M138.602,31.705c0,2.404,1.692,2.378,1.692,2.378
	c1.805,0,1.724-2.41,1.724-2.41c0.002-2.458-1.692-2.409-1.692-2.409C138.526,29.264,138.602,31.705,138.602,31.705z
	 M150.988,32.466l1.245-5.136h3.735v8.719h-2.49v-5.707l-1.5,5.707h-1.98l-1.5-5.612v5.612h-2.49V27.33h3.735L150.988,32.466z"/>
</svg>
