<?xml version="1.0" encoding="iso-8859-1"?>
<!-- Generator: Adobe Illustrator 17.0.0, SVG Export Plug-In . SVG Version: 6.00 Build 0)  -->
<!DOCTYPE svg PUBLIC "-//W3C//DTD SVG 1.1//EN" "http://www.w3.org/Graphics/SVG/1.1/DTD/svg11.dtd">
<svg version="1.1" xmlns="http://www.w3.org/2000/svg" xmlns:xlink="http://www.w3.org/1999/xlink" x="0px" y="0px" width="128px"
	 height="128px" viewBox="0 0 128 128" style="enable-background:new 0 0 128 128;" xml:space="preserve">
<g id="icons">
	<g>
		<circle style="fill:#88C5CC;" cx="64" cy="64" r="64"/>
		<g>
			<path style="fill:#F5F5F5;" d="M48,18h44c1.1,0,2.073,0.9,2.073,2v82c0,1.1-0.974,2-2.073,2H30c-1.1,0-1.927-0.9-1.927-2V39
				L48,18z"/>
			<path style="fill:#E6E6E6;" d="M46,39c1.1,0,2.073-0.9,2.073-2V18L28,39H46z"/>
		</g>
		<polygon style="fill:#70CCBD;" points="91.073,100 31.073,100 31.073,97 37.037,87 43.018,89 54.009,65 63.005,70 73.002,60 
			81.038,72 91.073,47 		"/>
		<circle style="fill:#F2CF61;" cx="43" cy="89" r="2"/>
		<circle style="fill:#F2CF61;" cx="37" cy="87" r="2"/>
		<circle style="fill:#F2CF61;" cx="54" cy="65" r="2"/>
		<circle style="fill:#F2CF61;" cx="63" cy="70" r="2"/>
		<circle style="fill:#F2CF61;" cx="73" cy="60" r="2"/>
		<circle style="fill:#F2CF61;" cx="81" cy="72" r="2"/>
		<circle style="fill:#F2CF61;" cx="91" cy="47" r="2"/>
		<rect x="31.073" y="42" style="fill:#70CCBD;" width="1" height="59"/>
		<rect x="30.073" y="99" style="fill:#70CCBD;" width="61" height="1"/>
	</g>
</g>
<g id="header">
</g>
</svg>
