<?xml version="1.0" encoding="utf-8"?>
<!-- Generator: Adobe Illustrator 17.0.0, SVG Export Plug-In . SVG Version: 6.00 Build 0)  -->
<!DOCTYPE svg PUBLIC "-//W3C//DTD SVG 1.1//EN" "http://www.w3.org/Graphics/SVG/1.1/DTD/svg11.dtd">
<svg version="1.1" id="图层_1" xmlns="http://www.w3.org/2000/svg" xmlns:xlink="http://www.w3.org/1999/xlink" x="0px" y="0px"
	 width="93.867px" height="49.642px" viewBox="0 0 93.867 49.642" enable-background="new 0 0 93.867 49.642" xml:space="preserve">
<path fill="#F08300" d="M2.677,40.96c0.119,1.941,2.163,3.238,3.972,2.507c0.964-0.39,1.172-1.386,2.126-1.406
	c1.201-0.021,2.024,0.505,2.793,1.453c1.354,1.682,2.428,3.456,4.281,4.665c1.944,1.27,4.328,1.685,6.608,1.356
	c2.27-0.332,4.138-1.432,5.888-2.866c1.934-1.59,3.913-3.298,6.58-3.204c1.518,0.056,2.983,0.565,4.5,0.637
	c2.359,0.115,4.483-0.709,6.079-2.445c0.276-0.302,0.902-1.017,0.671-1.471c-0.354-0.686-1.434,0.441-1.831,0.526
	c-2.584,0.563-4.656-0.065-7.085-0.934c-2.139-0.764-4.416-1.258-6.606-0.39c-1.707,0.676-2.893,2.143-4.68,2.701
	c-1.829,0.571-4.271,0.289-4.617-2.031c-0.074-0.493,0.013-1,0.26-1.437c0.567,0.172,1.172,0.19,1.749,0.058
	c0.43-0.101,0.836-0.299,1.197-0.558c0.541,0.427,1.232,0.651,1.923,0.613c1.994-0.106,3.275-2.213,2.503-4.036
	c1.661-1.321,1.676-3.922,0.024-5.256c-0.685-0.549-1.572-0.819-2.445-0.733c-0.504,0.05-0.954,0.222-1.361,0.517
	c-0.619,0.454-0.651,0.067-1.315-0.218c0.911-1.308,0.529-3.159-0.822-4c-0.64-0.398-1.611-0.159-1.663-0.854
	c-0.065-0.892-0.571-1.71-1.332-2.177c-0.633-0.391-1.407-0.513-2.134-0.344c-0.622,0.149-0.56,0.501-0.941-0.135
	c-0.243-0.399-0.536-0.765-0.875-1.086c-1.253-1.18-3.061-1.67-4.737-1.274c-1.523,0.361-2.815,1.43-3.479,2.847
	c-0.328,0.707-0.497,1.486-0.481,2.264c-0.859-0.036-1.701,0.326-2.265,0.987c-0.474,0.559-0.718,1.297-0.663,2.031
	c0.03,0.442,0.169,0.867,0.399,1.246c-0.405,0.174-0.764,0.442-1.048,0.779c-1.127,1.348-0.731,3.449,0.814,4.29
	c-0.462,0.555-0.313,0.914-1.07,0.787c-0.499-0.083-0.977-0.03-1.447,0.153c-0.82,0.315-1.494,0.958-1.854,1.757
	C-0.584,38.213,0.599,40.525,2.677,40.96 M23.185,28.761c-0.977-0.252-1.993-0.198-2.96,0.063c-0.021-1.652-1.667-2.879-3.257-2.497
	c-0.266,0.066-0.517,0.166-0.752,0.307c-0.225-0.398-0.538-0.744-0.911-1.013c-0.746-0.535-1.708-0.733-2.604-0.521
	c-0.745,0.18-1.409,0.632-1.851,1.255c-0.425,0.597-0.344,1.651-1.003,1.7c-1.806,0.133-2.956,2.114-2.187,3.753
	c-0.911,0.213-1.771,0.614-2.475,1.232c-0.889-0.375-1.415-1.333-1.255-2.287c0.11-0.677,0.565-1.273,1.19-1.562
	c0.758-0.354,0.738-0.344,0.318-1.157c-0.346-0.658-0.308-1.463,0.102-2.084c0.575-0.871,1.286-0.707,2.132-1.01
	c0.624-0.227,0.483-1.058,0.555-1.563c0.143-0.983,0.669-1.914,1.419-2.563c1.576-1.372,3.916-1.445,5.591-0.198
	c0.674,0.501,0.962,1.705,1.691,2.016c0.622,0.267,1.507-0.527,2.309-0.26c0.687,0.234,1.24,0.808,1.411,1.52
	c0.082,0.355-0.288,1.599,0.437,1.455C23.018,24.888,24.469,27.232,23.185,28.761 M15.081,34.584
	c-0.903-1.203-2.166-2.155-3.604-2.613c-0.741-0.234-1.52-0.349-2.297-0.337c-0.918,0.01-1.363,0.312-1.41-0.846
	c-0.058-1.628,1.151-2.126,2.49-2.35c0.519-0.082,0.496-1.222,0.699-1.589c0.383-0.694,1.055-1.218,1.826-1.403
	c1.457-0.347,2.316,0.431,3.125,1.456c0.335,0.425,0.863-0.109,1.214-0.215c0.843-0.247,1.776,0.169,2.289,0.848
	c0.477,0.632,0.716,1.27-0.065,1.599c-0.684,0.29-1.323,0.685-1.893,1.167C16.175,31.384,15.343,32.926,15.081,34.584
	 M23.729,37.798c-2.424,1.19-4.869-1.827-3.276-3.981c0.768-1.04,2.265-1.401,3.37-0.665c0.579,0.383,0.808,1.02,0.564,1.675
	c-0.159,0.432,0.512,0.682,0.667,0.247c1.134-3.068-3.452-3.735-5.044-1.842c-3.279,0.639-3.255,4.842-2.224,7.223
	c-2.491-2.247-2.79-6.354-0.576-8.9c0.953-1.101,2.239-1.896,3.674-2.147c0.788-0.141,1.612-0.113,2.379,0.13
	c0.467,0.147,1.353,0.963,1.849,0.695c1.299-0.688,2.438-1.326,3.703-0.003c0.515,0.533,0.786,1.285,0.73,2.025
	c-0.088,1.06-0.729,1.314-1.255,2.08c-0.274,0.409,0.288,1.31,0.209,1.82c-0.111,0.713-0.593,1.353-1.244,1.663
	c-0.668,0.314-1.484,0.26-2.101-0.144C24.374,37.171,24.474,37.434,23.729,37.798 M43.056,41.682
	c-3.55,0.97-6.613-1.484-10.142-1.157c-2.794,0.26-4.509,2.409-7.007,3.359c-2.865,1.09-5.66,0.108-7.242-2.516
	c-1.333-2.208-2.128-6.498,1.017-7.677c-0.605,1.029-0.617,2.337-0.025,3.377c0.304,0.532,0.763,0.975,1.3,1.273
	c-0.331,0.627-0.419,1.355-0.264,2.044c0.679,3.014,3.994,3.108,6.277,2c2.513-1.219,4.207-3.09,7.237-2.695
	C37.236,40.09,39.9,42.059,43.056,41.682 M10.394,41.62c0.566-0.328,1.026-0.822,1.322-1.405c0.149-0.292,0.251-0.601,0.31-0.925
	c0.46,0.083,0.899,0.252,1.3,0.499c1.398,0.857,2.175,2.434,3.098,3.73c2.44,3.45,6.479,4.07,10.152,2.192
	c1.42-0.726,2.568-1.854,3.929-2.668c1.704-1.012,3.416-1.005,5.305-0.588c2.691,0.593,5.674,1.109,8.207-0.33
	c-2.37,1.795-5.158,1.172-7.831,0.752c-3.904-0.615-6.277,1.738-9.152,3.917c-2.796,2.125-6.643,2.877-9.895,1.299
	c-1.383-0.671-2.507-1.727-3.46-2.917C12.672,43.918,11.899,42.369,10.394,41.62 M2.177,40.037
	c-2.176-1.081-1.786-4.397,0.569-4.956c0.437-0.105,0.855,0.076,1.289,0.091c0.668,0.019,0.872-0.627,1.193-1.076
	c0.728-1.014,1.974-1.537,3.179-1.698c2.492-0.341,4.929,0.843,6.319,2.913c0.599,0.893,0.435,2.34,0.907,3.387
	c0.47,1.039,1.197,1.955,2.103,2.648c1.612,1.235,2.76,3.096,4.987,3.33c2.213,0.236,4.12-0.711,5.906-1.904
	c2.11-1.406,4.024-2.24,6.627-1.768c3.011,0.544,5.535,1.983,8.631,0.785c-2.286,1.292-4.984,0.972-7.435,0.45
	c-1.73-0.4-3.465-0.714-5.162,0c-1.642,0.695-2.905,2.006-4.426,2.905c-3.061,1.814-7.055,1.862-9.507-0.989
	c-1.013-1.183-1.689-2.616-2.755-3.757c-0.559-0.599-1.231-1.088-2.022-1.335c-0.815-0.256-0.488-1.208-0.918-1.986
	c-1.303-2.374-5.866-2.346-6.002,0.855c-0.055,1.299,1.804,2.391,0.862,0.662c-0.923-1.693,1.674-2.829,2.959-2.439
	c1.351,0.415,2.172,1.871,1.784,3.236c-0.194,0.686-0.669,1.279-1.291,1.624c-0.695,0.39-1.65-0.032-2.21,0.306
	c-0.365,0.221-0.463,0.854-0.816,1.144c-0.587,0.486-1.429,0.645-2.14,0.362c-0.645-0.25-1.12-0.823-1.329-1.474
	C3.178,40.381,3.067,40.475,2.177,40.037 M29.068,18.399c-0.592,2.576,2.451,4.597,4.577,2.949c0.926-0.719,2.181,0.279,2.751,1.174
	c0.736,1.157,0.989,2.59,1.539,3.835c1.106,2.501,2.947,4.47,5.547,5.424c1.336,0.488,2.778,0.702,4.199,0.618
	c0.718-0.038,1.434-0.16,2.131-0.356c0.348-0.098,0.696-0.213,1.037-0.336c0.271,0.22,0.569,0.386,0.9,0.496
	c-0.358,0.629-0.147,0.958-0.917,0.97c-0.504,0.007-0.962,0.144-1.394,0.412c-0.745,0.458-1.291,1.21-1.507,2.064
	c-0.505,2.062,1.083,4.123,3.205,4.168c0.449,1.897,2.729,2.788,4.357,1.747c0.881-0.561,0.9-1.579,1.837-1.771
	c1.367-0.278,2.423,0.316,3.409,1.292c3.3,3.271,7.294,5.21,11.908,3.381c4.278-1.695,5.959-7.354,10.65-8.046
	c1.506-0.225,3.035,0.014,4.542-0.191c2.342-0.32,4.278-1.518,5.532-3.516c0.22-0.349,0.704-1.16,0.392-1.566
	c-0.472-0.609-1.329,0.695-1.704,0.851c-2.652,1.117-4.981,0.671-7.741,0.28c-2.216-0.316-4.513-0.181-6.374,1.188
	c-1.398,1.028-2.254,2.513-3.86,3.31c-1.771,0.88-4.558,0.794-4.856-1.724c-0.173-1.453,1.235-0.836,2.225-1.448
	c0.617-0.381,0.428-0.584,1.165-0.354c0.665,0.204,1.387,0.163,2.021-0.119c1.279-0.566,1.982-2.021,1.628-3.376
	c-0.076-0.313-0.213-0.608-0.4-0.877c0.211-0.241,0.383-0.511,0.521-0.802c0.332-0.718,0.402-1.55,0.191-2.314
	c-0.364-1.309-1.521-2.286-2.87-2.442c-0.592-0.066-1.197,0.025-1.738,0.267c-0.314,0.142-0.587,0.345-0.814,0.598
	c-0.526,0.56-0.631,0.188-1.332,0.025c0.865-1.942-0.703-4.15-2.811-3.97c-0.726,0.061-0.391-0.166-0.659-0.758
	c-0.184-0.412-0.46-0.778-0.812-1.061c-0.817-0.654-1.955-0.807-2.916-0.382c-0.614,0.275-0.443,0.597-0.974,0.011
	c-0.339-0.372-0.727-0.693-1.159-0.953c-0.421-0.254-0.882-0.448-1.359-0.575c-1.008-0.261-0.823-0.12-1.236-1.044
	c-0.377-0.834-1.091-1.497-1.951-1.807c-0.459-0.16-0.961-0.238-1.442-0.154c-1.091,0.191-0.801,0.277-1.681-0.458
	c1.245-0.994,1.417-2.873,0.365-4.067c-0.501-0.57-1.496-0.615-1.348-1.296c0.198-0.873-0.057-1.804-0.646-2.469
	c-0.496-0.56-1.203-0.902-1.95-0.945c-0.635-0.034-0.679,0.317-0.863-0.397c-0.113-0.455-0.287-0.891-0.526-1.294
	c-0.856-1.492-2.445-2.486-4.166-2.582c-1.562-0.092-3.107,0.555-4.151,1.721c-0.519,0.581-0.902,1.28-1.115,2.031
	c-0.81-0.285-1.724-0.177-2.448,0.29c-0.619,0.398-1.063,1.035-1.225,1.753c-0.095,0.435-0.086,0.879,0.022,1.311
	c-0.436,0.05-0.857,0.204-1.225,0.444c-1.473,0.968-1.691,3.091-0.454,4.346c-0.603,0.399-0.565,0.782-1.257,0.442
	c-0.449-0.221-0.923-0.307-1.426-0.269c-0.878,0.065-1.704,0.486-2.283,1.148C26.734,14.826,27.202,17.382,29.068,18.399
	 M52.22,12.615c-0.864-0.521-1.852-0.763-2.854-0.789c0.431-1.592-0.751-3.232-2.4-3.33c-0.271-0.017-0.542,0.012-0.805,0.083
	c-0.107-0.449-0.307-0.872-0.585-1.235c-0.56-0.727-1.423-1.196-2.34-1.247c-0.768-0.046-1.532,0.197-2.136,0.665
	c-0.362,0.28-0.66,0.633-0.871,1.033c-0.342,0.648-0.322,0.291-0.981,0.249c-1.63-0.092-3.023,1.388-2.772,3.022
	c-0.938-0.051-1.872,0.077-2.727,0.473c-0.739-0.619-0.97-1.689-0.544-2.553c0.307-0.617,0.91-1.058,1.592-1.157
	c0.827-0.121,0.807-0.116,0.636-1.013c-0.14-0.73,0.13-1.489,0.702-1.968c0.802-0.672,1.433-0.308,2.332-0.357
	c0.76-0.041,0.898-1.249,1.208-1.75c0.538-0.871,1.401-1.52,2.377-1.822c1.993-0.622,4.148,0.263,5.2,2.053
	c0.305,0.517,0.225,1.863,0.902,2.068c0.748,0.216,1.374-0.207,2.125,0.326c0.589,0.42,0.957,1.133,0.913,1.858
	c-0.019,0.302-0.733,1.52,0,1.52C53.171,8.86,53.892,11.527,52.22,12.615 M37.888,8.739c0.787-0.479,2.175,0.226,2.562-0.561
	c0.38-0.778,0.973-1.372,1.823-1.619c0.999-0.29,2.087,0.016,2.81,0.752c0.392,0.398,0.585,1.747,1.208,1.688
	c0.884-0.081,1.517-0.138,2.187,0.582c0.609,0.654,1.112,2.163-0.039,2.29c-2.449,0.269-4.588,1.765-5.656,3.991
	c-0.63-1.71-1.847-3.171-3.479-4c-0.768-0.393-1.604-0.653-2.459-0.755C36.687,10.184,37.082,9.233,37.888,8.739 M57.42,16.358
	c-3.011,0.222-5.215,3.112-4.666,6.073c-0.648-0.132-1.058-0.5-1.427-1.02c-0.376-0.517-1.128,0.052-1.634,0.052
	c-1.312-0.02-2.453-1.081-2.603-2.375c-0.432-3.8,5.644-3.349,4.779-0.773c-0.056,0.172-0.684,1.136,0.083,1.028
	c0.846-0.123,0.731-1.757,0.504-2.26c-0.609-1.322-2.258-1.906-3.608-1.535c-1.455,0.402-3.075,0.635-4.094,1.919
	c-1.036,1.304-1.262,3.191-1.075,4.795c-2.259-3.72-0.005-8.723,4.218-9.602c1.897-0.394,3.886,0.119,5.13,1.642
	c0.553,0.673,1.631-0.218,2.397-0.037C56.437,14.5,57.226,15.339,57.42,16.358 M50.336,27.87c-2.812,0.149-5.088-1.305-5.945-4.025
	c-0.832-2.541-0.474-7.282,3.054-7.512c-0.875,0.814-1.267,2.06-0.994,3.227c0.138,0.598,0.446,1.156,0.879,1.595
	c-0.497,0.504-0.793,1.176-0.846,1.881c-0.094,1.351,0.657,2.689,1.843,3.334c0.603,0.324,1.29,0.444,1.966,0.48
	C51.513,26.914,50.755,27.288,50.336,27.87 M50.488,26.169c-1.88-0.137-3.965-1.555-3.148-3.741
	c0.488-1.302,1.159-0.322,2.199-0.263c0.439,0.024,0.885-0.039,1.305-0.187c0.25,0.358,0.588,0.658,0.978,0.868
	C50.652,23.483,50.083,24.898,50.488,26.169 M67.191,29.891c0.529-1.596,4.054-2.844,4.201-0.446
	c0.077,1.318,0.913,0.646,0.661-0.401c-0.263-1.066-1.354-1.608-2.376-1.643c-1.055-0.037-2.052,0.469-2.675,1.315
	c-0.618,0.837-1.582,1.108-2.039,2.188c-0.556,1.315-0.51,4.777,0.94,5.671c-3.52-2.164-3.971-7.319-1.002-10.152
	c1.377-1.312,3.491-2.038,5.336-1.354c1.197,0.451,1.038-0.398,2.017-0.83c0.771-0.341,1.675-0.291,2.401,0.127
	c0.605,0.347,1.054,0.933,1.235,1.605c0.335,1.214-0.338,1.703-0.774,2.676c-0.228,0.521,0.626,1.473,0.504,2.179
	c-0.164,0.922-0.896,1.678-1.831,1.814c-0.89,0.135-1.633-0.771-2.287-0.011c-0.512,0.597-1.356,0.845-2.127,0.722
	C67.787,33.1,66.667,31.445,67.191,29.891 M56.66,24.763c0.271-1.891,2.502-2.798,4.116-1.928c0.431,0.237,0.832,1.105,1.381,0.755
	c0.749-0.479,1.286-0.818,2.214-0.483c0.779,0.282,1.336,0.948,1.482,1.764c-0.87,0.485-1.637,1.157-2.238,1.95
	c-0.412,0.544-2.239,3.746-1.441,4.476c-0.967-0.887-2.164-1.545-3.452-1.817c-0.496-0.107-4.111,0.208-4.106,0.219
	c-0.534-0.839-0.51-2.069,0.184-2.806c0.428-0.459,1.047-0.725,1.66-0.826C56.781,26.009,56.625,24.977,56.66,24.763 M90.975,33.186
	c-3.348,1.612-6.85-0.279-10.284,0.736c-2.806,0.832-4.154,3.529-6.668,4.823c-2.876,1.479-5.839,0.403-7.664-2.136
	c-1.396-1.946-2.355-5.495,0.178-7.026c-0.397,1.092-0.157,2.379,0.575,3.278c0.123,0.149,1.485,1.176,1.522,1.061
	c-0.655,2.093,1.201,4.132,3.272,4.177c2.356,0.053,4.217-1.945,5.759-3.457C81.465,30.914,86.552,34.538,90.975,33.186
	 M58.84,39.065c0.496-0.426,0.865-0.992,1.047-1.622c0.092-0.315,0.141-0.637,0.141-0.968c0.511,0,1.018,0.104,1.487,0.305
	c1.646,0.695,2.718,2.28,4.005,3.438c2.969,2.668,6.949,2.256,9.981-0.073c1.26-0.969,2.185-2.29,3.376-3.336
	c1.489-1.307,3.177-1.609,5.113-1.543c2.769,0.094,5.752,0.044,8.005-1.816c-1.834,2.016-4.507,2.144-7.035,2.154
	c-3.979,0.018-6.009,2.304-8.446,5.111c-2.231,2.568-5.401,4.19-8.875,3.693c-1.623-0.231-3.097-0.983-4.372-1.992
	C61.829,41.284,60.667,39.587,58.84,39.065 M52.073,33.403c1.653-4.36,7.486-4.174,10.217-0.964
	c0.392,1.969,1.561,3.745,3.293,4.783c0.672,0.403,1.248,0.57,1.833,1.073c0.781,0.667,1.71,1.19,2.718,1.421
	c3.902,0.891,5.98-2.534,8.661-4.497c3.938-2.878,8.909,0.448,13.015-2.08c-2.392,2.02-5.51,1.778-8.415,1.759
	c-4.789-0.036-6.201,4.426-10.127,6.183c-1.851,0.829-3.881,0.925-5.738,0.064c-1.797-0.833-2.901-2.502-4.381-3.742
	c-0.62-0.521-1.324-0.962-2.123-1.162c-0.718-0.18-0.899,0.151-1.114-0.615c-0.123-0.463-0.345-0.892-0.644-1.259
	c-1.039-1.269-2.979-1.64-4.369-0.732c-1.227,0.799-1.989,2.654-0.779,3.811c0.565,0.538,1.28,0.016,0.76-0.31
	c-0.764-0.486-0.812-1.366-0.366-2.103c2.171-3.583,7.215,1.577,3.46,3.767c-0.484,0.279-1.394,0.119-1.766,0.449
	c-0.626,0.553-0.391,1.432-1.384,1.866c-0.736,0.327-1.576,0.213-2.201-0.296c-0.704-0.572-0.661-1.62-1.661-1.735
	c-1.719-0.194-2.864-1.945-2.227-3.588c0.251-0.653,0.761-1.187,1.399-1.473C50.776,33.74,51.688,34.175,52.073,33.403
	 M50.669,28.742c0.235-0.582,1.324-0.864,1.18-1.604c-0.137-0.687-0.793-0.999-0.79-1.805c0.005-0.688,0.365-1.346,0.934-1.726
	c0.543-0.371,1.48-0.266,1.493-1.142c0.036-1.858,0.073-3.376,1.736-4.573c1.325-0.957,3.103-1.078,4.565-0.358
	c0.748,0.37,1.03,0.956,1.637,1.458c0.67,0.546,1.116-0.22,1.761-0.401c1.724-0.489,2.302,0.884,2.704,2.159
	c0.235,0.748,1.269,0.137,1.759,0.231c0.672,0.131,1.257,0.594,1.536,1.216c0.344,0.781,0.316,1.859-0.623,1.888
	c-0.833,0.023-1.631,0.254-2.378,0.612c-0.363-1.775-2.496-2.653-4.013-1.668c-0.557,0.361-1.125-0.53-1.826-0.75
	c-0.89-0.275-1.877-0.151-2.661,0.355c-0.666,0.427-1.148,1.11-1.351,1.872c-0.304,1.151,0.196,0.977-0.873,1.455
	c-1.483,0.655-2.039,2.634-1.089,3.954c-0.991,0.429-1.979,2.032-2.951,1.332C50.649,30.69,50.308,29.632,50.669,28.742
	 M36.265,21.249c0.798-0.188,1.51-0.673,1.983-1.339c0.513-0.725,1.202,0.179,1.635,0.779c1.085,1.514,1.258,3.479,2.007,5.154
	c0.686,1.538,1.953,2.874,3.518,3.534c0.844,0.354,1.754,0.547,2.669,0.595c0.585,0.035,1.174,0.011,1.759-0.057
	c0.064,0.45,0.212,0.843,0.473,1.219c-3.028,1.035-6.526,0.631-9.062-1.415c-1.286-1.038-2.169-2.449-2.793-3.963
	C37.814,24.22,37.531,22.436,36.265,21.249 M28.855,17.369c-1.009-0.945-1.113-2.563-0.232-3.626
	c1.019-1.227,2.124-0.925,3.41-0.498c0.639,0.209,1.017-0.349,1.457-0.689c0.688-0.529,1.555-0.753,2.413-0.782
	c1.869-0.066,3.735,0.782,4.95,2.191c0.49,0.563,0.884,1.202,1.165,1.894c0.414,1.002,0.14,1.581,0.066,2.606
	c-0.119,1.615,0.31,3.237,1.24,4.565c0.735,1.045,1.172,2.278,1.994,3.266c1.184,1.419,2.972,2.003,4.783,1.959
	c-0.203,0.401-0.301,0.855-0.297,1.307c-0.74,0.085-1.492,0.099-2.237,0.011c-1.218-0.144-2.399-0.565-3.369-1.326
	c-2.078-1.64-2.359-4.052-3.279-6.351c-0.395-0.979-0.963-1.899-1.856-2.489c-0.652-0.432-0.242-0.52-0.203-1.242
	c0.034-0.593-0.092-1.19-0.363-1.721c-1.025-2.022-4.206-2.612-5.504-0.497c-0.294,0.478-0.377,1.049-0.222,1.596
	c0.05,0.175,0.676,1.267,0.891,0.449c0.103-0.4-0.32-0.766-0.237-1.221c0.117-0.639,0.703-1.085,1.271-1.299
	c2.292-0.86,4.324,1.898,3.049,3.896c-0.545,0.852-1.564,1.349-2.571,1.233c-0.393-0.047-0.949-0.49-1.337-0.396
	c-0.411,0.105-0.691,0.689-1.108,0.864c-0.983,0.412-2.142,0.05-2.678-0.872c-0.285-0.488-0.378-1.072-0.295-1.629
	C29.859,17.899,29.258,17.745,28.855,17.369"/>
</svg>
