<?xml version="1.0" encoding="utf-8"?>
<!-- Generator: Adobe Illustrator 17.0.0, SVG Export Plug-In . SVG Version: 6.00 Build 0)  -->
<!DOCTYPE svg PUBLIC "-//W3C//DTD SVG 1.1//EN" "http://www.w3.org/Graphics/SVG/1.1/DTD/svg11.dtd">
<svg version="1.1" id="图层_1" xmlns="http://www.w3.org/2000/svg" xmlns:xlink="http://www.w3.org/1999/xlink" x="0px" y="0px"
	 width="164.677px" height="65.186px" viewBox="0 0 164.677 65.186" enable-background="new 0 0 164.677 65.186"
	 xml:space="preserve">
<path fill="#EF4722" d="M9.452,0.858c2.722,0,4.868,2.148,4.868,4.87c0,2.721-2.147,4.868-4.868,4.868
	c-2.72,0-4.87-2.147-4.87-4.868C4.582,3.006,6.732,0.858,9.452,0.858L9.452,0.858z M20.91,20.907l-3.438-1.862l6.732-9.164
	c-3.009,1.289-5.298,3.293-7.018,5.729c-0.143,0.716-0.432,1.289-0.716,1.862c-1.72-1.289-3.436-2.578-5.014-4.009
	C14.177,9.023,16.898,4.582,19.621,0c2.29,0.858,4.583,1.574,6.872,2.435c-0.572,1.289-1.002,2.578-1.574,4.01
	c10.884-5.298,27.782-5.871,28.641,6.014c0.573,7.59,0.287,14.032-0.573,20.479c-0.858,7.302-4.295,8.304-8.734,8.449
	c-3.294,0-6.587,0-9.737,0c-0.145-1.146-0.289-2.147-0.289-3.153c2.005,0,4.01,0,6.017,0c4.153-0.286,6.015-2.002,6.156-7.158
	l0.286-10.454c0.146-5.585,0.431-11.742-5.011-12.888c-4.009-0.861-8.163,0.285-12.314,0.428c-0.716,0.288-1.577,0.431-2.293,0.573
	l3.15,2.724l-2.577,2.575H43.68v3.439h-9.453v4.009h9.453v2.862h-9.453v6.877c1.433-0.29,3.01-0.721,4.441-1.005
	c-0.432-0.857-1.002-1.717-1.575-2.578c1.289-0.57,2.433-1.146,3.722-1.717c2.865,2.007,4.012,4.58,3.438,8.019
	c-1.146,1.001-2.292,2.147-3.438,3.153c-0.571-1.147-1.289-2.293-1.862-3.439c-17.613,6.872-24.916,4.58-21.907-6.872h6.299
	c0,4.725,0.861,5.441,3.15,5.58c0.146,0,0.146,0,0.288,0v-8.018h-9.595V21.48h9.595v-4.009h-1.862v-0.574L20.91,20.907z
	 M5.586,11.885c-1.147,1.432-2.292,2.866-3.436,4.297c5.872,3.293,10.885,7.303,6.3,12.46C6.017,31.361,2.866,33.368,0,35.8
	c2.577,2.007,5.156,4.009,7.733,6.016c1.576-3.583,2.723-7.162,5.014-11.888C16.04,23.055,15.038,17.901,5.586,11.885L5.586,11.885z
	 M61.435,4.582h7.733v2.29c3.438-0.716,6.873-1.144,10.453-1.574V1.001h8.736v3.582c4.009-0.286,8.161-0.431,12.316-0.286
	c11.312,0.286,12.745,5.153,4.151,14.891l-2.578-2.005H88.932v4.871h14.606v3.291H88.932v10.311h18.76v3.869H60.434v-3.869h19.189
	V25.344H66.306v-3.291h13.317v-4.871H69.169v1.72h-7.733L61.435,4.582L61.435,4.582z M97.381,26.206
	c-2.292,0-4.297,2.007-4.297,4.294c0,2.438,2.005,4.44,4.297,4.44c2.435,0,4.439-2.002,4.439-4.44
	C101.82,28.212,99.815,26.206,97.381,26.206L97.381,26.206z M98.812,14.032c5.013-3.579,3.436-7.015-4.726-6.872
	c-8.594,0.286-16.897,2.004-24.918,4.152v2.72H98.812z M115.567,2.863h9.45v3.008c16.182-5.728,37.95-6.014,39.239,4.009
	c1.146,8.879-0.431,17.326-0.285,26.496c0,3.864-1.577,5.581-4.155,5.44c-7.591-0.575-11.169-2.147-11.026-5.155
	c4.154,1.287,6.874,0.431,7.16-2.578c0.288-6.302,0-12.603,0-18.905c-1.574,2.004-3.006,3.866-4.582,5.729
	c1.576,1.003,3.008,2.004,4.582,3.151c-1.718,2.292-3.578,4.725-5.441,7.017c-0.858-1.862-2.006-3.579-3.294-5.441
	c-3.438,3.579-7.018,6.873-10.741,9.595l-3.151-4.154c4.013-2.433,7.592-5.731,10.454-9.738c-1.431-1.577-2.862-3.008-4.582-4.44
	c-0.858,1.003-1.717,2.005-2.721,3.008l4.01,3.579l-5.584,4.442l-2.577-3.439c-1.577,1.862-3.294,3.579-5.155,5.44
	c-0.716-0.861-1.432-1.716-2.15-2.578V40.24h-9.45L115.567,2.863L115.567,2.863z M146.069,17.471
	c1.574-2.866,2.863-5.872,3.866-9.31l5.872,3.867c-0.144-4.294-1.575-7.731-8.592-6.014c-9.88,0.858-17.328,2.866-22.198,6.014
	v13.031c1.577-1.287,3.008-2.863,4.297-4.58l-4.009-5.443l2.863-2.578l4.012,3.582c1.288-2.15,2.576-4.44,3.721-6.733
	c2.578,1.003,4.87,1.72,7.448,2.866c-0.715,0.716-1.289,1.432-2.005,2.147C142.918,15.324,144.495,16.467,146.069,17.471
	L146.069,17.471z M4.924,46.334H18.39v1.7c-0.426-0.141-0.709-0.141-1.135-0.141h-3.969v16.158c0,0.285,0,0.709,0.14,0.852h-3.399
	c0.139-0.143,0.139-0.567,0.139-0.852V47.893H6.059c-0.288,0-0.71,0-1.135,0.141V46.334z M27.179,63.06
	c-0.57,0.708-1.135,1.132-1.561,1.417c-0.853,0.568-1.844,0.709-2.979,0.709c-1.134,0-1.981-0.283-2.689-0.993
	c-0.853-0.709-1.279-1.84-1.279-3.117c0-1.561,0.565-2.836,1.844-3.544c0.427-0.426,0.991-0.567,1.417-0.849
	c0.57-0.142,1.561-0.426,3.261-0.994c0.708-0.142,1.134-0.425,1.416-0.708c0.287-0.284,0.427-0.709,0.427-1.276
	c0-0.568-0.14-1.135-0.709-1.558c-0.426-0.285-1.134-0.568-1.986-0.568c-0.565,0-1.273,0.141-1.7,0.283
	c-0.564,0.285-1.272,0.709-1.981,1.275l-0.426-1.842c0.848-0.424,1.843-0.851,2.552-0.991c0.708-0.142,1.556-0.285,2.408-0.285
	c1.56,0,2.694,0.285,3.542,0.994c0.708,0.567,1.134,1.417,1.134,2.41v8.645c0,0.85,0.288,1.275,0.853,1.275
	c0.282,0,0.565-0.141,0.991-0.426v1.561c-0.709,0.568-1.417,0.709-2.126,0.709c-0.708,0-1.273-0.141-1.56-0.426
	C27.604,64.477,27.317,63.769,27.179,63.06L27.179,63.06z M27.035,56.256c-0.282,0.284-0.565,0.426-0.709,0.426
	c-0.282,0.141-0.991,0.423-2.269,0.849c-0.991,0.426-1.699,0.85-1.982,1.417c-0.426,0.567-0.569,1.135-0.569,1.843
	s0.144,1.418,0.569,1.844c0.427,0.426,0.991,0.708,1.699,0.708c1.135,0,2.126-0.426,2.695-1.417
	c0.426-0.567,0.565-1.135,0.565-1.843v-3.827H27.035z M41.209,50.018c2.124,0,3.829,0.708,5.103,2.269
	c1.135,1.275,1.699,3.119,1.699,5.385c0,2.411-0.709,4.253-1.981,5.67c-1.278,1.276-2.834,1.843-4.82,1.843
	c-2.126,0-3.687-0.709-4.82-2.126c-1.273-1.417-1.844-3.259-1.844-5.67c0-2.127,0.57-3.828,1.704-5.243
	C37.522,50.727,39.083,50.162,41.209,50.018L41.209,50.018z M41.209,51.294c-0.426,0-0.991,0.144-1.417,0.425
	c-0.564,0.284-0.853,0.568-1.135,1.135c-0.709,1.135-1.135,2.692-1.135,4.677c0,2.126,0.426,3.827,1.135,4.961
	c0.282,0.424,0.708,0.85,1.135,1.135c0.426,0.282,0.991,0.423,1.417,0.423c0.569,0,0.99-0.142,1.561-0.423
	c0.426-0.285,0.709-0.711,0.99-1.135c0.853-1.134,1.135-2.836,1.135-4.821c0-2.125-0.282-3.683-1.135-4.958
	C43.195,51.861,42.344,51.294,41.209,51.294L41.209,51.294z M55.244,52.429c0.565-0.709,1.13-1.276,1.556-1.559
	c0.852-0.567,1.705-0.852,2.695-0.852c1.56,0,2.834,0.708,3.824,1.843c0.996,1.275,1.423,3.119,1.423,5.528
	c0,2.411-0.427,4.253-1.562,5.67c-0.99,1.417-2.413,2.126-4.25,2.126c-0.995,0-1.705-0.141-2.412-0.426
	c-0.565-0.283-1.274-0.851-1.845-1.559l-0.847,1.702h-1.561c0.14-0.143,0.14-0.426,0.14-0.852V45.767c0-0.285,0-0.567-0.14-0.852
	h3.117c-0.14,0.284-0.14,0.567-0.14,0.852v6.662H55.244z M58.643,51.861c-0.991,0-1.981,0.567-2.689,1.701
	c-0.569,0.709-0.709,1.844-0.709,3.543c0,2.27,0,3.685,0.14,4.253c0.143,0.567,0.569,1.134,1.135,1.702
	c0.568,0.423,1.276,0.567,1.986,0.567c1.134,0,1.981-0.426,2.551-1.561c0.565-0.991,0.848-2.552,0.848-4.536
	c0-1.985-0.426-3.542-0.991-4.536C60.347,52.287,59.639,51.861,58.643,51.861L58.643,51.861z M76.504,63.06
	c-0.566,0.708-1.136,1.132-1.561,1.417c-0.848,0.568-1.839,0.709-2.974,0.709c-0.995,0-1.986-0.283-2.694-0.993
	c-0.853-0.709-1.136-1.84-1.136-3.117c0-1.561,0.571-2.836,1.7-3.544c0.569-0.426,0.996-0.567,1.561-0.849
	c0.427-0.142,1.417-0.426,3.121-0.994c0.709-0.142,1.273-0.425,1.557-0.708c0.286-0.284,0.426-0.709,0.426-1.276
	c0-0.568-0.283-1.135-0.848-1.558c-0.426-0.285-1.135-0.568-1.843-0.568c-0.709,0-1.278,0.141-1.844,0.283
	c-0.569,0.285-1.134,0.709-1.986,1.275l-0.427-1.842c0.996-0.424,1.844-0.851,2.552-0.991c0.709-0.142,1.562-0.285,2.552-0.285
	c1.418,0,2.552,0.285,3.404,0.994c0.852,0.567,1.272,1.417,1.272,2.41v8.645c0,0.85,0.288,1.275,0.852,1.275
	c0.144,0,0.571-0.141,0.992-0.426v1.561c-0.849,0.568-1.556,0.709-2.265,0.709c-0.708,0-1.135-0.141-1.561-0.426
	C77.073,64.477,76.785,63.769,76.504,63.06L76.504,63.06z M76.504,56.256c-0.426,0.284-0.709,0.426-0.848,0.426
	c-0.144,0.141-0.853,0.423-2.132,0.849c-0.989,0.426-1.697,0.85-2.124,1.417c-0.426,0.567-0.564,1.135-0.564,1.843
	s0.281,1.418,0.708,1.844c0.426,0.426,0.991,0.708,1.7,0.708c1.133,0,1.986-0.426,2.551-1.417c0.426-0.567,0.709-1.135,0.709-1.843
	V56.256z M90.68,50.018c2.12,0,3.825,0.708,4.965,2.269c1.129,1.275,1.693,3.119,1.693,5.385c0,2.411-0.703,4.253-1.981,5.67
	c-1.129,1.276-2.694,1.843-4.677,1.843c-2.131,0-3.825-0.709-4.962-2.126c-1.278-1.417-1.843-3.259-1.843-5.67
	c0-2.127,0.564-3.828,1.843-5.243C86.854,50.727,88.549,50.162,90.68,50.018L90.68,50.018z M90.68,51.294
	c-0.564,0-0.99,0.144-1.556,0.425c-0.425,0.284-0.852,0.568-1.14,1.135c-0.702,1.135-1.13,2.692-1.13,4.677
	c0,2.126,0.428,3.827,1.13,4.961c0.288,0.424,0.715,0.85,1.14,1.135c0.565,0.282,0.991,0.423,1.556,0.423
	c0.426,0,0.991-0.142,1.417-0.423c0.426-0.285,0.853-0.711,1.13-1.135c0.714-1.134,1.14-2.836,1.14-4.821
	c0-2.125-0.426-3.683-1.14-4.958C92.662,51.861,91.81,51.294,90.68,51.294L90.68,51.294z M103.581,61.925
	c0.566,0,0.991,0.142,1.416,0.427c0.278,0.282,0.565,0.707,0.565,1.131c0,0.567-0.287,0.853-0.565,1.276
	c-0.425,0.285-0.851,0.426-1.416,0.426c-0.575,0-0.99-0.141-1.279-0.426c-0.426-0.424-0.563-0.709-0.563-1.276
	c0-0.423,0.138-0.849,0.563-1.131C102.591,62.067,103.006,61.925,103.581,61.925L103.581,61.925z M120.584,64.192
	c-0.99,0.426-1.844,0.71-2.27,0.853c-0.415,0.141-1.129,0.141-1.842,0.141c-2.121,0-3.677-0.567-4.816-1.843
	c-1.13-1.417-1.704-3.26-1.704-5.529c0-2.55,0.713-4.677,2.27-5.952c1.139-1.277,2.834-1.843,4.825-1.843
	c1.13,0,2.269,0.285,3.537,0.708v2.128c-0.703-0.567-1.269-0.993-1.694-1.135c-0.575-0.141-0.99-0.281-1.704-0.281
	c-1.278,0-2.269,0.565-2.973,1.557c-0.853,1.276-1.278,2.693-1.278,4.677c0,1.703,0.276,2.978,0.991,4.112
	c0.564,1.276,1.704,1.984,3.121,1.984c0.703,0,1.268-0.141,1.843-0.426c0.426-0.141,0.991-0.568,1.694-1.134
	C120.584,62.209,120.584,64.192,120.584,64.192z M130.65,50.018c2.132,0,3.825,0.708,5.104,2.269
	c1.13,1.275,1.704,3.119,1.704,5.385c0,2.411-0.713,4.253-1.992,5.67c-1.129,1.276-2.833,1.843-4.815,1.843
	c-2.13,0-3.686-0.709-4.814-2.126c-1.278-1.417-1.844-3.259-1.844-5.67c0-2.127,0.565-3.828,1.694-5.243
	C126.965,50.727,128.52,50.162,130.65,50.018L130.65,50.018z M130.65,51.294c-0.425,0-0.99,0.144-1.416,0.425
	c-0.426,0.284-0.852,0.568-1.14,1.135c-0.703,1.135-1.13,2.692-1.13,4.677c0,2.126,0.427,3.827,1.13,4.961
	c0.288,0.424,0.714,0.85,1.14,1.135c0.426,0.282,0.991,0.423,1.416,0.423c0.565,0,0.991-0.142,1.557-0.423
	c0.426-0.285,0.853-0.711,1.139-1.135c0.704-1.134,1.13-2.836,1.13-4.821c0-2.125-0.426-3.683-1.13-4.958
	C132.633,51.861,131.781,51.294,130.65,51.294L130.65,51.294z M144.683,52.146c0.99-1.42,2.407-2.128,4.111-2.128
	c0.99,0,1.843,0.144,2.407,0.566c0.714,0.286,1.141,0.854,1.566,1.562c0.703-0.853,1.416-1.276,2.119-1.562
	c0.565-0.423,1.417-0.566,2.269-0.566c2.835,0,4.251,1.42,4.251,4.112v9.92c0,0.285,0,0.568,0.148,0.852h-3.121
	c0.14-0.284,0.14-0.567,0.14-0.852v-9.354c0-0.851-0.14-1.419-0.427-1.702c-0.276-0.566-0.991-0.849-1.98-0.849
	c-0.992,0-1.845,0.141-2.27,0.708c-0.566,0.424-0.851,1.135-0.851,2.126v9.07c0,0.285,0,0.709,0.147,0.852h-3.122
	c0.14-0.143,0.14-0.567,0.14-0.852v-9.354c0-0.851-0.14-1.419-0.427-1.702c-0.426-0.566-1.129-0.849-1.981-0.849
	c-0.99,0-1.704,0.141-2.27,0.708c-0.565,0.424-0.851,1.135-0.851,1.842v9.354c0,0.285,0.148,0.568,0.148,0.852h-3.12
	c0.138-0.284,0.138-0.567,0.138-0.852V51.294c0-0.282,0-0.567-0.138-0.851h2.973L144.683,52.146L144.683,52.146z"/>
</svg>
