<?xml version="1.0" encoding="iso-8859-1"?>
<!-- Generator: Adobe Illustrator 17.0.0, SVG Export Plug-In . SVG Version: 6.00 Build 0)  -->
<!DOCTYPE svg PUBLIC "-//W3C//DTD SVG 1.1//EN" "http://www.w3.org/Graphics/SVG/1.1/DTD/svg11.dtd">
<svg version="1.1" id="Capa_1" xmlns="http://www.w3.org/2000/svg" xmlns:xlink="http://www.w3.org/1999/xlink" x="0px" y="0px"
	 width="89.311px" height="107.205px" viewBox="0 0 89.311 107.205" style="enable-background:new 0 0 89.311 107.205;"
	 xml:space="preserve">
<g>
	<g>
		<g>
			<g>
				<g>
					<path style="fill:#D3C5C1;" d="M74.898,0L58,5.529l5.086,9.641C63.086,15.17,70.104,10.68,74.898,0z"/>
				</g>
			</g>
		</g>
		<g>
			<g>
				<g>
					<path style="fill:#9C9B9B;" d="M14.943,0l16.899,5.529l-5.087,9.641C26.755,15.17,19.735,10.68,14.943,0z"/>
				</g>
			</g>
		</g>
	</g>
	<g>
		<g>
			<path style="fill:#6F6F6E;" d="M89.311,52.334c0,21.907-19.993,54.102-44.655,54.102C19.993,106.436,0,74.241,0,52.334
				c0-21.906,19.993-39.665,44.656-39.665C69.317,12.669,89.311,30.428,89.311,52.334z"/>
		</g>
	</g>
	<g>
		<g>
			<path style="fill:#D3C5C1;" d="M66.27,94.823c8.754-13.767,12.966-40.32,12.066-51.705C76.071,14.435,63.992,5.92,50.626,3.395
				c-2.006-0.378-4.001-0.542-5.971-0.543v104.353h0.904C57.371,106.92,59.445,105.558,66.27,94.823z"/>
		</g>
	</g>
	<g>
		<g>
			<path style="fill:#9C9B9B;" d="M23.039,94.823c-8.752-13.767-12.964-40.32-12.065-51.705C13.239,14.435,25.318,5.92,38.683,3.395
				c2.007-0.378,4.001-0.542,5.971-0.543v104.353H43.75C31.939,106.92,29.864,105.558,23.039,94.823z"/>
		</g>
	</g>
	<g>
		<g>
			<g>
				<path style="fill:#F9F4F0;" d="M58.28,14.435c-6.124,0-11.377,3.538-13.624,8.575c-2.25-5.037-7.502-8.575-13.627-8.575
					c-8.166,0-14.79,6.293-14.79,14.056c0,7.76,6.625,14.051,14.79,14.051c6.125,0,11.378,0.896,13.627-4.145
					c2.247,5.041,7.5,4.145,13.624,4.145c8.168,0,14.792-6.291,14.792-14.051C73.072,20.728,66.448,14.435,58.28,14.435z"/>
			</g>
		</g>
		<g>
			<g>
				<g>
					<path style="fill:#3C3C3B;" d="M42.033,39.124l-3.58,2.366c-1.441,0.95-1.898,2.944-1.013,4.429l5.609,9.417
						c0.44,0.741,1.023,1.112,1.607,1.112V38.411C43.706,38.411,42.756,38.648,42.033,39.124z"/>
				</g>
			</g>
			<g>
				<g>
					<path style="fill:#3C3C3B;" d="M46.261,55.335l5.608-9.417c0.885-1.485,0.428-3.479-1.013-4.429l-3.581-2.366
						c-0.72-0.476-1.67-0.713-2.62-0.713v18.037C45.237,56.448,45.82,56.076,46.261,55.335z"/>
				</g>
			</g>
		</g>
		<g>
			<g>
				<path style="fill:#EA8232;" d="M40.632,28.397c0,5.527-4.483,10.013-10.009,10.013c-5.531,0-10.014-4.486-10.014-10.013
					c0-5.531,4.483-10.013,10.014-10.013C36.149,18.385,40.632,22.867,40.632,28.397z"/>
			</g>
		</g>
		<g>
			<g>
				<path style="fill:#3C3C3B;" d="M36.299,28.397c0,3.136-2.542,5.678-5.676,5.678c-3.139,0-5.678-2.542-5.678-5.678
					c0-3.135,2.539-5.678,5.678-5.678C33.757,22.72,36.299,25.263,36.299,28.397z"/>
			</g>
		</g>
		<g>
			<g>
				<path style="fill:#EA8232;" d="M68.699,28.397c0,5.527-4.482,10.013-10.011,10.013s-10.013-4.486-10.013-10.013
					c0-5.531,4.484-10.012,10.013-10.012S68.699,22.867,68.699,28.397z"/>
			</g>
		</g>
		<g>
			<g>
				<circle style="fill:#3C3C3B;" cx="58.846" cy="28.398" r="5.678"/>
			</g>
		</g>
		<g>
			<g>
				<circle style="fill:#FFFFFF;" cx="32.948" cy="26.432" r="1.965"/>
			</g>
		</g>
		<g>
			<g>
				<circle style="fill:#FFFFFF;" cx="61.116" cy="26.432" r="1.965"/>
			</g>
		</g>
	</g>
	<g>
		<g>
			<g>
				<path style="fill:#6F6F6E;" d="M37.561,54.469c0.716,1.87,0.227,4.215-1.156,5.938c-1.387,1.742-3.603,2.839-5.982,2.821
					c-2.212,0.022-4.55-1.077-5.901-2.818c-1.384-1.723-1.875-4.071-1.152-5.941c0.703,1.851,1.746,3.194,3.004,4.091
					c1.268,0.902,2.622,1.335,4.133,1.34c1.343,0,2.82-0.435,4.054-1.337C35.821,57.667,36.862,56.319,37.561,54.469z"/>
			</g>
		</g>
		<g>
			<g>
				<path style="fill:#6F6F6E;" d="M51.752,54.469c0.715,1.87,0.226,4.215-1.156,5.938c-1.388,1.742-3.603,2.839-5.982,2.821
					c-2.212,0.022-4.55-1.077-5.901-2.818c-1.384-1.723-1.872-4.071-1.152-5.941c0.703,1.851,1.747,3.194,3.005,4.091
					c1.269,0.902,2.622,1.335,4.133,1.34c1.342,0,2.82-0.435,4.054-1.337C50.012,57.667,51.054,56.319,51.752,54.469z"/>
			</g>
		</g>
		<g>
			<g>
				<path style="fill:#6F6F6E;" d="M30.49,63.44c0.715,1.871,0.226,4.215-1.157,5.939c-1.386,1.741-3.602,2.839-5.981,2.82
					c-2.211,0.022-4.55-1.075-5.9-2.816c-1.384-1.724-1.875-4.072-1.153-5.943c0.703,1.853,1.745,3.195,3.003,4.091
					c1.271,0.9,2.625,1.337,4.135,1.341c1.343-0.001,2.82-0.435,4.053-1.337C28.749,66.639,29.79,65.293,30.49,63.44z"/>
			</g>
		</g>
		<g>
			<g>
				<path style="fill:#6F6F6E;" d="M44.68,63.44c0.716,1.872,0.227,4.215-1.156,5.939c-1.387,1.741-3.603,2.839-5.981,2.82
					c-2.211,0.022-4.55-1.075-5.901-2.816c-1.383-1.724-1.873-4.072-1.152-5.943c0.702,1.853,1.744,3.195,3.002,4.091
					c1.271,0.9,2.625,1.337,4.135,1.341c1.342-0.001,2.819-0.435,4.052-1.337C42.941,66.639,43.981,65.293,44.68,63.44z"/>
			</g>
		</g>
		<g>
			<g>
				<path style="fill:#6F6F6E;" d="M58.825,63.44c0.715,1.872,0.225,4.215-1.159,5.939c-1.386,1.741-3.601,2.839-5.981,2.82
					c-2.21,0.022-4.55-1.075-5.899-2.816c-1.384-1.723-1.874-4.071-1.154-5.943c0.703,1.853,1.747,3.195,3.004,4.091
					c1.271,0.9,2.625,1.337,4.134,1.341c1.343-0.001,2.82-0.435,4.052-1.337C57.082,66.639,58.124,65.293,58.825,63.44z"/>
			</g>
		</g>
		<g>
			<g>
				<path style="fill:#6F6F6E;" d="M73.015,63.44c0.716,1.872,0.226,4.215-1.155,5.939c-1.388,1.741-3.603,2.839-5.982,2.82
					c-2.212,0.022-4.55-1.075-5.902-2.816c-1.384-1.723-1.874-4.071-1.151-5.943c0.702,1.853,1.743,3.195,3.001,4.091
					c1.271,0.9,2.625,1.337,4.136,1.341c1.344-0.001,2.82-0.435,4.052-1.337C71.275,66.639,72.314,65.293,73.015,63.44z"/>
			</g>
		</g>
		<g>
			<g>
				<path style="fill:#6F6F6E;" d="M44.656,81.508c0.715,1.871,0.228,4.216-1.156,5.939c-1.386,1.742-3.603,2.839-5.982,2.821
					c-2.211,0.023-4.551-1.075-5.9-2.818c-1.383-1.722-1.873-4.071-1.153-5.942c0.702,1.851,1.745,3.195,3.003,4.093
					c1.271,0.899,2.625,1.333,4.134,1.338c1.343,0,2.82-0.436,4.054-1.336C42.917,84.707,43.957,83.359,44.656,81.508z"/>
			</g>
		</g>
		<g>
			<g>
				<path style="fill:#6F6F6E;" d="M51.752,90.329c0.716,1.871,0.227,4.215-1.157,5.938c-1.386,1.743-3.602,2.839-5.981,2.822
					c-2.211,0.023-4.55-1.076-5.901-2.818c-1.383-1.722-1.873-4.071-1.153-5.941c0.703,1.851,1.745,3.196,3.003,4.092
					c1.271,0.9,2.625,1.334,4.135,1.339c1.342,0,2.82-0.436,4.053-1.337C50.012,93.527,51.053,92.179,51.752,90.329z"/>
			</g>
		</g>
		<g>
			<g>
				<path style="fill:#6F6F6E;" d="M58.848,81.508c0.716,1.871,0.226,4.216-1.155,5.939c-1.388,1.742-3.603,2.839-5.983,2.821
					c-2.21,0.023-4.551-1.075-5.9-2.818c-1.383-1.722-1.874-4.071-1.153-5.942c0.702,1.851,1.746,3.195,3.003,4.093
					c1.271,0.899,2.625,1.333,4.135,1.338c1.344,0,2.82-0.436,4.052-1.336C57.108,84.707,58.147,83.359,58.848,81.508z"/>
			</g>
		</g>
		<g>
			<g>
				<path style="fill:#6F6F6E;" d="M65.942,54.469c0.716,1.87,0.226,4.215-1.156,5.938c-1.388,1.742-3.603,2.839-5.982,2.821
					c-2.21,0.022-4.551-1.077-5.9-2.818c-1.384-1.723-1.873-4.071-1.153-5.941c0.702,1.851,1.745,3.194,3.003,4.091
					c1.269,0.902,2.625,1.335,4.134,1.34c1.343,0,2.82-0.435,4.054-1.337C64.203,57.667,65.244,56.319,65.942,54.469z"/>
			</g>
		</g>
		<g>
			<g>
				<path style="fill:#6F6F6E;" d="M37.561,72.688c0.716,1.871,0.227,4.217-1.156,5.941c-1.387,1.741-3.603,2.837-5.982,2.817
					c-2.212,0.023-4.55-1.072-5.901-2.814c-1.384-1.723-1.875-4.073-1.152-5.944c0.703,1.852,1.746,3.196,3.004,4.094
					c1.268,0.9,2.622,1.333,4.133,1.34c1.343-0.001,2.82-0.435,4.054-1.337C35.821,75.887,36.862,74.54,37.561,72.688z"/>
			</g>
		</g>
		<g>
			<g>
				<path style="fill:#6F6F6E;" d="M51.752,72.688c0.715,1.871,0.226,4.217-1.156,5.941c-1.388,1.741-3.603,2.837-5.982,2.817
					c-2.212,0.023-4.55-1.072-5.901-2.814c-1.384-1.723-1.872-4.073-1.152-5.944c0.703,1.852,1.747,3.196,3.005,4.094
					c1.269,0.9,2.622,1.333,4.133,1.34c1.342-0.001,2.82-0.435,4.054-1.337C50.012,75.887,51.054,74.54,51.752,72.688z"/>
			</g>
		</g>
		<g>
			<g>
				<path style="fill:#6F6F6E;" d="M65.942,72.688c0.716,1.871,0.226,4.217-1.156,5.941c-1.388,1.741-3.603,2.837-5.982,2.817
					c-2.21,0.023-4.551-1.072-5.9-2.814c-1.384-1.723-1.873-4.073-1.153-5.944c0.702,1.852,1.745,3.196,3.003,4.094
					c1.269,0.9,2.625,1.333,4.134,1.34c1.343-0.001,2.82-0.435,4.054-1.337C64.203,75.887,65.244,74.54,65.942,72.688z"/>
			</g>
		</g>
	</g>
</g>
</svg>
