<?xml version="1.0" encoding="utf-8"?>
<!-- Generator: Adobe Illustrator 17.0.0, SVG Export Plug-In . SVG Version: 6.00 Build 0)  -->
<!DOCTYPE svg PUBLIC "-//W3C//DTD SVG 1.1//EN" "http://www.w3.org/Graphics/SVG/1.1/DTD/svg11.dtd">
<svg version="1.1" id="图层_1" xmlns:ev="http://www.w3.org/2001/xml-events"
	 xmlns="http://www.w3.org/2000/svg" xmlns:xlink="http://www.w3.org/1999/xlink" x="0px" y="0px" width="90px" height="90px"
	 viewBox="0 0 90 90" enable-background="new 0 0 90 90" xml:space="preserve">
<path fill="#C7AAF2" d="M3,0h84c1.657,0,3,1.343,3,3v84c0,1.657-1.343,3-3,3H3c-1.657,0-3-1.343-3-3V3C0,1.343,1.343,0,3,0z"/>
<path fill="#9E81CA" d="M26.5,27h37C73.165,27,81,34.835,81,44.5v1C81,55.165,73.165,63,63.5,63h-37C16.835,63,9,55.165,9,45.5v-1
	C9,34.835,16.835,27,26.5,27z"/>
<path fill="#FFFFFF" d="M63,30c8.284,0,15,6.716,15,15s-6.716,15-15,15s-15-6.716-15-15S54.716,30,63,30z"/>
</svg>
