<?xml version="1.0" encoding="utf-8"?>
<!-- Generator: Adobe Illustrator 17.0.0, SVG Export Plug-In . SVG Version: 6.00 Build 0)  -->
<!DOCTYPE svg PUBLIC "-//W3C//DTD SVG 1.1//EN" "http://www.w3.org/Graphics/SVG/1.1/DTD/svg11.dtd">
<svg version="1.1" id="图层_1" xmlns:ev="http://www.w3.org/2001/xml-events"
	 xmlns="http://www.w3.org/2000/svg" xmlns:xlink="http://www.w3.org/1999/xlink" x="0px" y="0px" width="100px" height="100px"
	 viewBox="0 0 100 100" enable-background="new 0 0 100 100" xml:space="preserve">
<path fill="#89AAF7" d="M50,0c27.614,0,50,22.386,50,50s-22.386,50-50,50S0,77.614,0,50S22.386,0,50,0z"/>
<path opacity="0.102" enable-background="new    " d="M36,18h34c1.657,0,3,1.343,3,3v64c0,1.657-1.343,3-3,3H36
	c-1.657,0-3-1.343-3-3V21C33,19.343,34.343,18,36,18z"/>
<path fill="#FFFFFF" d="M33,15h34c1.657,0,3,1.343,3,3v64c0,1.657-1.343,3-3,3H33c-1.657,0-3-1.343-3-3V18
	C30,16.343,31.343,15,33,15z"/>
<path fill="#64E3F2" d="M33,23h34v52H33V23z"/>
<path fill="#E2E2E2" d="M50,77c1.657,0,3,1.343,3,3s-1.343,3-3,3s-3-1.343-3-3S48.343,77,50,77z"/>
</svg>
