<?xml version="1.0" encoding="iso-8859-1"?>
<!-- Generator: Adobe Illustrator 17.0.0, SVG Export Plug-In . SVG Version: 6.00 Build 0)  -->
<!DOCTYPE svg PUBLIC "-//W3C//DTD SVG 1.1//EN" "http://www.w3.org/Graphics/SVG/1.1/DTD/svg11.dtd">
<svg version="1.1" id="Objects" xmlns="http://www.w3.org/2000/svg" xmlns:xlink="http://www.w3.org/1999/xlink" x="0px" y="0px"
	 width="152.299px" height="188.992px" viewBox="0 0 152.299 188.992" style="enable-background:new 0 0 152.299 188.992;"
	 xml:space="preserve">
<g>
	<g>
		<g>
			<path style="fill-rule:evenodd;clip-rule:evenodd;fill:#27557D;" d="M85.355,47.306c6.263-1.495,14.987-5.041,16.126,0.027
				c1.354,6.023,3.023,20.303,4.774,34.175c0.377,2.991-3.457,4.542-4.41,4.83c-4.267,1.291-7.932,1.692-12.654,2.33l-3.853-41.335
				C85.337,47.321,85.349,47.309,85.355,47.306z"/>
			<path style="fill-rule:evenodd;clip-rule:evenodd;fill:#27557D;" d="M66.332,47.306c-7.911-1.887-14.199-6.289-15.58-0.076
				c-1.444,6.504-3.028,20.756-4.699,34.066c-0.428,3.41,3.123,4.875,4.272,5.174c4.096,1.062,7.626,1.584,12.17,2.198l3.853-41.335
				C66.351,47.321,66.338,47.307,66.332,47.306z"/>
			<path style="fill-rule:evenodd;clip-rule:evenodd;fill:#27557D;" d="M60.167,87.86l-0.206,0.485
				c9.746,1.233,21.733,1.254,31.509,0.065c-0.09-0.197-0.178-0.381-0.263-0.55H60.167z"/>
			<path style="fill-rule:evenodd;clip-rule:evenodd;fill:#3F73A1;" d="M56.251,87.76c2.161-6.232-2.772-35.416-5.499-40.783
				c1.551-5.509,15.983-6.727,19.825-9.858c1.822,1.603,3.121,1.968,5.188,1.968c2.067,0,3.432-0.417,5.253-2.021
				c2.843,2.316,17.74,4.124,20.289,9.634c-2.9,6.147-8.221,35.425-5.918,41.033C85.686,89.64,66.234,89.775,56.251,87.76z"/>
			<polygon style="fill-rule:evenodd;clip-rule:evenodd;fill:#FFFFFF;" points="66.031,39.768 65.57,52.033 75.837,78.097 
				85.959,52.033 85.329,39.43 81.019,37.065 70.578,37.12 			"/>
			<rect x="70.579" y="32.835" style="fill-rule:evenodd;clip-rule:evenodd;fill:#D1A886;" width="10.256" height="10.623"/>
			<path style="fill-rule:evenodd;clip-rule:evenodd;fill:#FCB024;" d="M77.466,50.025l0.714-1.51l-2.415-5.855l-2.376,5.761
				l0.759,1.604C75.253,50.025,76.359,50.025,77.466,50.025z"/>
			<polygon style="fill-rule:evenodd;clip-rule:evenodd;fill:#CCCCCC;" points="70.577,37.12 75.765,42.66 72.072,52.536 
				67.508,39.156 			"/>
			<polygon style="fill-rule:evenodd;clip-rule:evenodd;fill:#27557D;" points="67.542,38.888 75.765,78.235 62.227,56.649 
				64.005,52.881 60.142,49.802 65.387,40.074 			"/>
			<polygon style="fill-rule:evenodd;clip-rule:evenodd;fill:#CCCCCC;" points="81.019,37.066 75.765,42.66 79.456,52.536 
				84.086,39.103 			"/>
			<polygon style="fill-rule:evenodd;clip-rule:evenodd;fill:#FCB024;" points="74.147,53.697 77.466,53.697 79.19,70.33 
				75.765,78.235 72.468,70.33 			"/>
			<polygon style="fill-rule:evenodd;clip-rule:evenodd;fill:#FFFFFF;" points="70.578,37.119 75.765,42.66 71.993,50.096 
				67.51,39.154 			"/>
			<polygon style="fill-rule:evenodd;clip-rule:evenodd;fill:#3F73A1;" points="67.542,38.888 75.765,78.235 63.543,54.928 
				65.57,52.033 61.661,48.992 65.386,40.074 			"/>
			<polygon style="fill-rule:evenodd;clip-rule:evenodd;fill:#27557D;" points="84.188,38.804 75.765,78.235 89.302,56.649 
				87.523,52.881 91.387,49.802 87.239,40.215 			"/>
			<polygon style="fill-rule:evenodd;clip-rule:evenodd;fill:#3F73A1;" points="84.188,38.804 75.765,78.235 87.986,54.928 
				85.959,52.033 89.867,48.992 87.239,40.215 			"/>
			<polygon style="fill-rule:evenodd;clip-rule:evenodd;fill:#FFFFFF;" points="81.019,37.065 75.765,42.66 79.536,50.096 
				84.086,39.101 			"/>
			<path style="fill-rule:evenodd;clip-rule:evenodd;fill:#FCB024;" d="M74.147,49.751h3.318c0.741,1.538,0.684,2.882,0,4.195
				h-3.318C73.464,52.633,73.406,51.289,74.147,49.751z"/>
			<path style="fill-rule:evenodd;clip-rule:evenodd;fill:#27557D;" d="M75.298,89.284c0.087-2.888,0.305-6.321,0.658-11.468
				c0.353,5.148,0.587,8.582,0.693,11.469C76.198,89.287,75.748,89.286,75.298,89.284z"/>
			<polygon style="fill-rule:evenodd;clip-rule:evenodd;fill:#FFFFFF;" points="64.479,40.081 65.752,51.839 75.968,77.772 
				86.038,51.839 87.312,40.081 82.438,36.948 69.352,36.948 			"/>
			<rect x="69.352" y="32.739" style="fill-rule:evenodd;clip-rule:evenodd;fill:#D1A886;" width="12.973" height="10.57"/>
			<path style="fill-rule:evenodd;clip-rule:evenodd;fill:#F2CAA9;" d="M75.895,38.961c5.113,0,9.847-5.846,12.343-13.009
				c0.147,0.15,0.311,0.246,0.492,0.275c1.018,0.169,2.184-1.742,2.604-4.268c0.419-2.527-0.064-4.712-1.082-4.881
				c-0.072-0.012-0.145-0.013-0.218-0.005C90.532,8.199,86.853,0,75.895,0C64.929,0,61.252,8.211,61.758,17.095
				c-0.111-0.029-0.223-0.034-0.332-0.016c-1.017,0.168-1.502,2.354-1.083,4.881c0.42,2.526,1.585,4.437,2.602,4.268
				c0.217-0.036,0.409-0.164,0.574-0.367C66.007,33.065,70.76,38.961,75.895,38.961z"/>
			<path style="fill-rule:evenodd;clip-rule:evenodd;fill:#57291E;" d="M90.034,17.074C90.533,8.199,86.853,0,75.895,0
				C64.929,0,61.251,8.211,61.756,17.094c0.888,0.221,1.812,1.845,2.22,3.959c0.715,0.481,1.232,0.2,1.232-1.589
				c0-5.282,0.653-9.963,4.122-11.079c3.301-1.063,4.026,1.269,6.546,1.269c2.519,0,3.313-2.196,6.546-1.269
				c3.355,0.962,4.121,5.796,4.121,11.079c0,1.718,0.477,2.045,1.147,1.644C88.109,18.876,89.106,17.178,90.034,17.074z"/>
			<path style="fill-rule:evenodd;clip-rule:evenodd;fill:#FC8D25;" d="M77.587,49.843l0.711-1.502l-2.403-5.826l-2.363,5.732
				l0.755,1.596C75.387,49.843,76.487,49.843,77.587,49.843z"/>
			<polygon style="fill-rule:evenodd;clip-rule:evenodd;fill:#CCCCCC;" points="69.352,36.948 75.895,42.515 72.222,52.34 
				66.299,38.973 			"/>
			<polygon style="fill-rule:evenodd;clip-rule:evenodd;fill:#27557D;" points="66.299,38.973 75.895,77.91 62.426,56.433 
				64.195,52.685 60.352,49.62 64.479,40.081 			"/>
			<polygon style="fill-rule:evenodd;clip-rule:evenodd;fill:#CCCCCC;" points="82.438,36.948 75.895,42.515 79.568,52.34 
				85.491,38.973 			"/>
			<polygon style="fill-rule:evenodd;clip-rule:evenodd;fill:#FC8D25;" points="74.286,53.496 77.587,53.496 79.303,70.045 
				75.895,77.91 72.615,70.045 			"/>
			<path style="fill-rule:evenodd;clip-rule:evenodd;fill:#57291E;" d="M85.76,5.776c-1.415,2.83-15.666,10.935-20.387,11.306
				C60.652,17.452,65.122-1.552,85.76,5.776z"/>
			<path style="fill-rule:evenodd;clip-rule:evenodd;fill:#57291E;" d="M78.976,5.776c0.61,2.83,6.752,10.935,8.787,11.306
				C89.797,17.452,87.87-1.552,78.976,5.776z"/>
			<polygon style="fill-rule:evenodd;clip-rule:evenodd;fill:#FFFFFF;" points="69.352,36.948 75.895,42.515 72.143,49.913 
				66.299,38.973 			"/>
			<polygon style="fill-rule:evenodd;clip-rule:evenodd;fill:#3F73A1;" points="66.299,38.973 75.895,77.91 63.735,54.72 
				65.752,51.839 61.862,48.814 64.479,40.081 			"/>
			<polygon style="fill-rule:evenodd;clip-rule:evenodd;fill:#27557D;" points="85.491,38.973 75.895,77.91 89.364,56.433 
				87.595,52.685 91.438,49.62 87.312,40.081 			"/>
			<polygon style="fill-rule:evenodd;clip-rule:evenodd;fill:#3F73A1;" points="85.491,38.973 75.895,77.91 88.055,54.72 
				86.038,51.839 89.927,48.814 87.312,40.081 			"/>
			<polygon style="fill-rule:evenodd;clip-rule:evenodd;fill:#FFFFFF;" points="82.438,36.948 75.895,42.515 79.647,49.913 
				85.491,38.973 			"/>
			<path style="fill-rule:evenodd;clip-rule:evenodd;fill:#FC8D25;" d="M74.286,49.57h3.301c0.738,1.529,0.681,2.866,0,4.173h-3.301
				C73.605,52.437,73.548,51.1,74.286,49.57z"/>
			<path style="fill-rule:evenodd;clip-rule:evenodd;fill:#27557D;" d="M75.065,89.283c0.541,0.003,1.082,0.004,1.623,0.002
				c0.198-2.792-0.4-10.237-0.812-11.467C75.465,78.803,74.868,86.343,75.065,89.283z"/>
		</g>
		<rect x="15.48" y="174.529" style="fill-rule:evenodd;clip-rule:evenodd;fill:#C5D0D9;" width="125.762" height="14.463"/>
		<rect x="37.771" y="90.798" style="fill-rule:evenodd;clip-rule:evenodd;fill:#C5D0D9;" width="76.758" height="98.194"/>
		<path style="fill:#FC8D25;" d="M21.474,79.575c0.054,1.057-0.759,1.957-1.815,2.01c-1.056,0.054-1.956-0.759-2.01-1.815
			l-1.307-24.506c-0.135-2.524,0.903-5.022,2.546-7.108c1.741-2.212,4.211-4.007,6.664-4.867l24.197-8.485
			c0.998-0.348,2.09,0.18,2.438,1.178c0.348,0.998-0.179,2.09-1.177,2.438l-24.197,8.485c-1.783,0.625-3.602,1.96-4.91,3.622
			c-1.11,1.411-1.817,3.02-1.736,4.543L21.474,79.575z"/>
		<path style="fill-rule:evenodd;clip-rule:evenodd;fill:#FC8D25;" d="M19.56,89.382c5.349,0,9.71-4.362,9.71-9.71
			c0-5.348-4.361-9.71-9.71-9.71c-5.348,0-9.709,4.362-9.709,9.71C9.852,85.021,14.213,89.382,19.56,89.382z"/>
		<polygon style="fill-rule:evenodd;clip-rule:evenodd;fill:#C5D0D9;" points="13.269,101.923 139.03,101.923 152.299,79.673 
			0,79.673 		"/>
		<path style="fill-rule:evenodd;clip-rule:evenodd;fill:#FC8D25;" d="M33.982,38.177l14.607-5.122
			c2.05-0.719,4.314,0.37,5.033,2.419v0c0.719,2.05-0.37,4.314-2.419,5.033L36.596,45.63c-2.049,0.719-4.313-0.37-5.032-2.419v0
			C30.845,41.16,31.933,38.896,33.982,38.177z"/>
	</g>
</g>
</svg>
