<?xml version="1.0" encoding="iso-8859-1"?>
<!-- Generator: Adobe Illustrator 17.0.0, SVG Export Plug-In . SVG Version: 6.00 Build 0)  -->
<!DOCTYPE svg PUBLIC "-//W3C//DTD SVG 1.1//EN" "http://www.w3.org/Graphics/SVG/1.1/DTD/svg11.dtd">
<svg version="1.1" xmlns="http://www.w3.org/2000/svg" xmlns:xlink="http://www.w3.org/1999/xlink" x="0px" y="0px" width="128px"
	 height="128px" viewBox="0 0 128 128" style="enable-background:new 0 0 128 128;" xml:space="preserve">
<g id="Layer_1">
</g>
<g id="Layer_2">
	<g>
		<circle style="fill:#E16B5A;" cx="64" cy="64" r="64"/>
		<rect x="31" y="91.706" style="fill:#242424;" width="12" height="12"/>
		<rect x="31" y="91.706" style="fill:#0D0D0D;" width="12" height="2"/>
		<rect x="85" y="91.706" style="fill:#242424;" width="12" height="12"/>
		<rect x="85" y="91.706" style="fill:#0D0D0D;" width="12" height="2"/>
		<rect x="19" y="83.706" style="fill:#1A1A1A;" width="90" height="8"/>
		<rect x="19" y="83.706" style="fill:#262626;" width="90" height="2"/>
		<g>
			<path style="fill:#F5F5F5;" d="M64,79.706c0,1.657-1.343,3-3,3H47c-1.657,0-3-1.343-3-3v-14c0-1.657,1.343-3,3-3h14
				c1.657,0,3,1.343,3,3V79.706z"/>
			<path style="fill:#1A1A1A;" d="M65,79.706c0,2.209-1.791,4-4,4H47c-2.209,0-4-1.791-4-4v-14c0-2.209,1.791-4,4-4h14
				c2.209,0,4,1.791,4,4V79.706z M63,65.706c0-1.105-0.895-2-2-2H47c-1.105,0-2,0.895-2,2v14c0,1.105,0.895,2,2,2h14
				c1.105,0,2-0.895,2-2V65.706z"/>
			<path style="fill:#CC584C;" d="M54,71.706c0,0.552-0.448,1-1,1h-2c-0.552,0-1-0.448-1-1v-2c0-0.552,0.448-1,1-1h2
				c0.552,0,1,0.448,1,1V71.706z"/>
			<path style="fill:#96E652;" d="M58,71.706c0,0.552-0.448,1-1,1h-2c-0.552,0-1-0.448-1-1v-2c0-0.552,0.448-1,1-1h2
				c0.552,0,1,0.448,1,1V71.706z"/>
			<path style="fill:#FFD464;" d="M54,75.706c0,0.552-0.448,1-1,1h-2c-0.552,0-1-0.448-1-1v-2c0-0.552,0.448-1,1-1h2
				c0.552,0,1,0.448,1,1V75.706z"/>
			<path style="fill:#C23527;" d="M58,75.706c0,0.552-0.448,1-1,1h-2c-0.552,0-1-0.448-1-1v-2c0-0.552,0.448-1,1-1h2
				c0.552,0,1,0.448,1,1V75.706z"/>
		</g>
		<g>
			<path style="fill:#F5F5F5;" d="M88,79.706c0,1.657-1.343,3-3,3H71c-1.657,0-3-1.343-3-3v-14c0-1.657,1.343-3,3-3h14
				c1.657,0,3,1.343,3,3V79.706z"/>
			<path style="fill:#1A1A1A;" d="M89,79.706c0,2.209-1.791,4-4,4H71c-2.209,0-4-1.791-4-4v-14c0-2.209,1.791-4,4-4h14
				c2.209,0,4,1.791,4,4V79.706z M87,65.706c0-1.105-0.895-2-2-2H71c-1.105,0-2,0.895-2,2v14c0,1.105,0.895,2,2,2h14
				c1.105,0,2-0.895,2-2V65.706z"/>
			<path style="fill:#CC584C;" d="M78,71.706c0,0.552-0.448,1-1,1h-2c-0.552,0-1-0.448-1-1v-2c0-0.552,0.448-1,1-1h2
				c0.552,0,1,0.448,1,1V71.706z"/>
			<path style="fill:#96E652;" d="M82,71.706c0,0.552-0.448,1-1,1h-2c-0.552,0-1-0.448-1-1v-2c0-0.552,0.448-1,1-1h2
				c0.552,0,1,0.448,1,1V71.706z"/>
			<path style="fill:#FFD464;" d="M78,75.706c0,0.552-0.448,1-1,1h-2c-0.552,0-1-0.448-1-1v-2c0-0.552,0.448-1,1-1h2
				c0.552,0,1,0.448,1,1V75.706z"/>
			<path style="fill:#C23527;" d="M82,75.706c0,0.552-0.448,1-1,1h-2c-0.552,0-1-0.448-1-1v-2c0-0.552,0.448-1,1-1h2
				c0.552,0,1,0.448,1,1V75.706z"/>
		</g>
		<path style="fill:#1A1A1A;" d="M14.057,103.706c11.729,15,29.737,24,49.943,24c20.206,0,38.214-9,49.943-24H14.057z"/>
		<path style="fill:#333333;" d="M112.248,105.706c0.574,0,1.148-1,1.695-2H14.057c0.547,1,1.121,2,1.695,2H112.248z"/>
		<g>
			<g>
				<path style="fill:#FFD464;" d="M86,55c-0.553,0-1-0.447-1-1v-5c0-0.553,0.447-1,1-1c0.553,0,1,0.447,1,1v5
					C87,54.553,86.553,55,86,55z"/>
				<path style="fill:#FFD464;" d="M90,55c-0.553,0-1-0.447-1-1v-5c0-0.553,0.447-1,1-1c0.553,0,1,0.447,1,1v5
					C91,54.553,90.553,55,90,55z"/>
				<path style="fill:#FFD464;" d="M94,55c-0.553,0-1-0.447-1-1v-5c0-0.553,0.447-1,1-1c0.553,0,1,0.447,1,1v5
					C95,54.553,94.553,55,94,55z"/>
				<path style="fill:#FFD464;" d="M96,18.706c0,1.105-0.895,2-2,2h-8c-1.105,0-2-0.895-2-2v-3c0-1.105,0.895-2,2-2h8
					c1.105,0,2,0.895,2,2V18.706z"/>
				<path style="fill:#F2C95F;" d="M96,14.706c0-0.552-0.448-1-1-1l0,0c-0.552,0-1,0.448-1,1v5c0,0.552,0.448,1,1,1l0,0
					c0.552,0,1-0.448,1-1V14.706z"/>
				<path style="fill:#FFD464;" d="M96,48.706c0,0.552-0.448,1-1,1H85c-0.552,0-1-0.448-1-1v-5c0-0.552,0.448-1,1-1h10
					c0.552,0,1,0.448,1,1V48.706z"/>
				<path style="fill:#F2C95F;" d="M96,43.706c0-0.552-0.448-1-1-1l0,0c-0.552,0-1,0.448-1,1v5c0,0.552,0.448,1,1,1l0,0
					c0.552,0,1-0.448,1-1V43.706z"/>
				<ellipse style="fill:#C23527;" cx="90" cy="32" rx="20" ry="14"/>
				<path style="fill:#B33124;" d="M90,18c-0.507,0-1.003,0.027-1.5,0.053C98.843,18.592,107,24.622,107,32
					s-8.157,13.408-18.5,13.947C88.997,45.973,89.493,46,90,46c11.046,0,20-6.268,20-14S101.046,18,90,18z"/>
				<path style="fill:#FFD464;" d="M90,16c-1.654,0-3-1.346-3-3s1.346-3,3-3c1.654,0,3,1.346,3,3S91.654,16,90,16z M90,12
					c-0.552,0-1,0.448-1,1s0.448,1,1,1c0.552,0,1-0.448,1-1S90.552,12,90,12z"/>
			</g>
			<g>
				<path style="fill:#FFD464;" d="M34,55c-0.553,0-1-0.447-1-1v-5c0-0.553,0.447-1,1-1c0.553,0,1,0.447,1,1v5
					C35,54.553,34.553,55,34,55z"/>
				<path style="fill:#FFD464;" d="M38,55c-0.553,0-1-0.447-1-1v-5c0-0.553,0.447-1,1-1c0.553,0,1,0.447,1,1v5
					C39,54.553,38.553,55,38,55z"/>
				<path style="fill:#FFD464;" d="M42,55c-0.553,0-1-0.447-1-1v-5c0-0.553,0.447-1,1-1c0.553,0,1,0.447,1,1v5
					C43,54.553,42.553,55,42,55z"/>
				<path style="fill:#FFD464;" d="M44,18.706c0,1.105-0.895,2-2,2h-8c-1.105,0-2-0.895-2-2v-3c0-1.105,0.895-2,2-2h8
					c1.105,0,2,0.895,2,2V18.706z"/>
				<path style="fill:#F2C95F;" d="M44,14.706c0-0.552-0.448-1-1-1l0,0c-0.552,0-1,0.448-1,1v5c0,0.552,0.448,1,1,1l0,0
					c0.552,0,1-0.448,1-1V14.706z"/>
				<path style="fill:#FFD464;" d="M44,48.706c0,0.552-0.448,1-1,1H33c-0.552,0-1-0.448-1-1v-5c0-0.552,0.448-1,1-1h10
					c0.552,0,1,0.448,1,1V48.706z"/>
				<path style="fill:#F2C95F;" d="M44,43.706c0-0.552-0.448-1-1-1l0,0c-0.552,0-1,0.448-1,1v5c0,0.552,0.448,1,1,1l0,0
					c0.552,0,1-0.448,1-1V43.706z"/>
				<ellipse style="fill:#C23527;" cx="38" cy="32" rx="20" ry="14"/>
				<path style="fill:#B33124;" d="M38,18c-0.507,0-1.003,0.027-1.5,0.053C46.843,18.592,55,24.622,55,32s-8.157,13.408-18.5,13.947
					C36.997,45.973,37.493,46,38,46c11.046,0,20-6.268,20-14S49.046,18,38,18z"/>
				<path style="fill:#FFD464;" d="M38,16c-1.654,0-3-1.346-3-3s1.346-3,3-3c1.654,0,3,1.346,3,3S39.654,16,38,16z M38,12
					c-0.552,0-1,0.448-1,1s0.448,1,1,1c0.552,0,1-0.448,1-1S38.552,12,38,12z"/>
			</g>
		</g>
	</g>
</g>
</svg>
