<?xml version="1.0" encoding="utf-8"?>
<!-- Generator: Adobe Illustrator 17.0.0, SVG Export Plug-In . SVG Version: 6.00 Build 0)  -->
<!DOCTYPE svg PUBLIC "-//W3C//DTD SVG 1.1//EN" "http://www.w3.org/Graphics/SVG/1.1/DTD/svg11.dtd">
<svg version="1.1" id="图层_1" xmlns="http://www.w3.org/2000/svg" xmlns:xlink="http://www.w3.org/1999/xlink" x="0px" y="0px"
	 width="127.815px" height="49.777px" viewBox="0 0 127.815 49.777" enable-background="new 0 0 127.815 49.777"
	 xml:space="preserve">
<path fill="#F08300" d="M97.134,37.876c-0.488,0,3.156-1.328,5.032-6.103c1.37-3.935-2.262-6.353-2.262-6.353
	c0.386,0.5,0,3.25-1.088,4.481c-1.172,1.279-6.101-0.151-4.627-4.971c2.179-4.528,11.22-3.001,11.22,3.493
	C105.41,34.872,97.731,37.876,97.134,37.876L97.134,37.876L97.134,37.876z M127.358,24.045c2.459-7.969-5.798-7.183-5.798-7.183
	c-4.05-7.382-10.537,0-12.503,2.212c-2.261,2.215-11.024,3.25-12.901-2.51c-1.86-5.708,2.855-10.186,6.594-8.609
	c3.753,1.622,4.537,6.64,0.595,7.872c-3.838,1.232-3.247-2.116-3.247-2.116c1.371,1.476,2.372,0.148,2.561-0.887
	c0.3-1.03-1.964-2.704-3.453-0.592c-1.172,2.955,0.893,5.122,0.893,5.122s8.258,3.595,10.328-4.032
	c1.385-9.847-5.908-8.959-5.908-8.959s-0.683-2.562-4.612-3.984c-7.78-2.167-9.852,5.61-9.852,6.249
	c-1.579-1.137-9.045-1.675-9.045,4.38c0,5.95,7.186,4.818,8.961,4.818c1.557,0,4.032,0.395,4.032,3.787
	c0,3.3-4.527,2.315-4.527,2.315c-2.366-3.885-10.042-4.97-10.042-4.97c0.296-2.064-0.79-5.217-0.79-5.217
	c-2.068-6.592-9.84-5.752-11.607-3.984c-1.979,1.722-2.753,6.742,1.473,8.807c4.226,2.167,6.202-4.081,6.202-4.081
	s1.07,4.475-1.276,6.839c-4.049,3.989-9.065,2.266-17.038-1.773c-7.963-3.982-15.832-2.704-15.832-2.704s9.451-0.25,17.517,6.104
	c4.411,4.622,12.879,4.179,12.879,4.179c-0.488,4.378,2.475,10.384,8.474,9.642c6.396-0.736,4.815-8.362,4.815-8.362
	s-0.589,2.854-3.154,3.099c-2.753,0.396-4.52-3.69-1.855-6.195c3.436-1.581,7.57,1.128,7.57,1.128s6.21,4.971,0.494,13.039
	c-8.064,7.975-19.284-3.246-19.284-3.246s-19.5-18.503-37.101-17.275c-12.415,0-31.396,19.389-30.908,18.798
	C10.634,27,18.316,21.731,28.064,19.666c19.88-2.463,32.868,15.555,32.868,15.555c11.119,12.15,20.865,13.723,20.865,13.723
	c15.444,4.579,24.705-11.22,24.705-11.22s4.907-9.839,7.954-13.085c1.774-1.875,8.872-2.807,9.453,2.064
	c0.593,4.826-4.522,5.807-5.018,2.803c-0.297-2.949,1.581-3.343,1.581-3.343s-3.249-1.627-4.242,0.981
	c-0.283,2.461-0.581,8.076,5.818,7.625c6.892-0.537,4.714-9.739,4.714-9.739L127.358,24.045L127.358,24.045z M126.763,25.032
	l0.595-0.987L126.763,25.032z"/>
</svg>
