<?xml version="1.0" encoding="utf-8"?>
<!-- Generator: Adobe Illustrator 17.0.0, SVG Export Plug-In . SVG Version: 6.00 Build 0)  -->
<!DOCTYPE svg PUBLIC "-//W3C//DTD SVG 1.1//EN" "http://www.w3.org/Graphics/SVG/1.1/DTD/svg11.dtd">
<svg version="1.1" id="图层_1" xmlns="http://www.w3.org/2000/svg" xmlns:xlink="http://www.w3.org/1999/xlink" x="0px" y="0px"
	 width="38.468px" height="33.563px" viewBox="0 0 38.468 33.563" enable-background="new 0 0 38.468 33.563" xml:space="preserve">
<path fill="#FFD41D" d="M38.343,19.417c-3.677-1.512-7.615-2.543-11.73-3.016c0.573-0.813,1.053-1.679,1.482-2.6
	c0.006-0.012,0.011-0.024,0.015-0.036c-0.81,0.377-1.519,0.898-1.585,0.903c0.037-0.089,0.962-0.866,1.704-1.567
	c0.002-0.006,0.004-0.012,0.007-0.019c0.491-1.125,1.016-2.307,1.559-3.587c-0.721,0.195-1.375,0.465-1.44,0.47
	c0.042-0.101,1.184-1.062,1.943-1.813c0.419-0.925,0.893-1.907,1.459-2.886c0.049-0.084,0.107-0.179-0.029-0.144
	c-0.551,0.164-0.661,0.249-0.773,0.288c0.033-0.079,0.761-0.652,1.419-1.215c0.719-1.2,1.559-2.447,2.583-3.73
	c0.563-0.649,0.027-0.453-0.245-0.34c-6.897,2.862-13.075,7.014-18.198,12.183c-0.016,0.017-0.033,0.035-0.049,0.052
	c-0.772-0.742-1.721-1.371-2.539-1.827c-0.988-0.552-2.134-0.867-3.357-0.867c-0.405,0-0.799,0.04-1.185,0.106
	C9.242,9.774,9.055,9.818,8.808,9.92c-2.239,0.929-7.823,0.799-8.631,0.845c-0.249,0.014-0.306,0.448,0.384,0.448
	c3.551,0,7.264,0.798,7.72,1.152c0.235,0.434,0.365,0.924,0.349,1.435c-0.054,1.723-0.181,1.919-0.181,3.515
	c0,3.373,2.488,5.576,3.203,6.043c2.815,1.896,5.84,3.481,9.069,4.699c1.706,0.607,3.546,3.727,5.643,5.433
	c0.139,0.113,0.312,0.073,0.275-0.145c-0.582-2.51-1.434-4.947-2.23-7.304c-0.316-0.936-0.669-1.855-1.053-2.758
	c1.878,0.097,3.462-0.257,4.819-0.706c0.07-0.023,0.101-0.047,0.101-0.072c0-0.024-0.017-0.048-0.077-0.072
	c-0.594-0.23-1.116-0.357-1.146-0.398c0.118-0.02,1.231,0.142,2.088,0.147c0.102,0.005,0.153-0.006,0.222-0.034
	c0.646-0.249,1.235-0.493,1.778-0.68c0.036-0.013,0.061-0.026,0.059-0.05c-0.002-0.025-0.02-0.031-0.054-0.051
	c-0.353-0.207-0.684-0.264-0.72-0.311c0.117-0.02,0.96,0.156,1.728,0.174c0.455-0.162,0.923-0.321,1.407-0.474
	c0.042-0.013,0.06-0.028,0.064-0.05c0.004-0.023-0.014-0.031-0.05-0.051c-0.325-0.179-0.564-0.294-0.586-0.323
	c0.094-0.016,0.563,0.11,1.149,0.189c0.082,0.015,0.157,0.009,0.22-0.008c1.225-0.358,2.547-0.677,3.993-0.927
	c0.094-0.017,0.106-0.044,0.104-0.069C38.453,19.493,38.44,19.457,38.343,19.417z"/>
</svg>
