<?xml version="1.0" encoding="iso-8859-1"?>
<!-- Generator: Adobe Illustrator 17.0.0, SVG Export Plug-In . SVG Version: 6.00 Build 0)  -->
<!DOCTYPE svg PUBLIC "-//W3C//DTD SVG 1.1//EN" "http://www.w3.org/Graphics/SVG/1.1/DTD/svg11.dtd">
<svg version="1.1" xmlns="http://www.w3.org/2000/svg" xmlns:xlink="http://www.w3.org/1999/xlink" x="0px" y="0px"
	 width="180.703px" height="185.948px" viewBox="0 0 180.703 185.948" style="enable-background:new 0 0 180.703 185.948;"
	 xml:space="preserve">
<g id="&#x56FE;&#x5C42;_9">
</g>
<g id="&#x56FE;&#x5C42;_8">
</g>
<g id="&#x56FE;&#x5C42;_7">
</g>
<g id="&#x56FE;&#x5C42;_6">
</g>
<g id="&#x56FE;&#x5C42;_5">
</g>
<g id="&#x56FE;&#x5C42;_4">
	<g>
		<ellipse style="opacity:0.5;fill:#CA9337;" cx="74.772" cy="180.322" rx="74.772" ry="5.626"/>
		<g>
			<path style="fill:#FFFFFF;" d="M144.547,60.811c-13.596,0-24.655-11.061-24.655-24.656c0-13.595,11.06-24.656,24.655-24.656
				s24.656,11.061,24.656,24.656C169.204,49.75,158.143,60.811,144.547,60.811z"/>
			<g>
				<g>
					<g>
						<g>
							<g>
								
									<ellipse transform="matrix(0.8623 -0.5064 0.5064 0.8623 -29.9206 85.8778)" style="fill:#F0E3C3;" cx="142.941" cy="97.953" rx="7.116" ry="6.02"/>
							</g>
							<polygon style="fill:#FFFFFF;" points="137.657,93.867 139.809,92.553 146.206,103.014 144.02,104.275 							"/>
							<circle style="fill:#B8BABC;" cx="139.426" cy="94.04" r="0.501"/>
						</g>
						<path style="fill:#37302B;" d="M119.432,110.557c-8.527,0-19.346-3.229-27.547-16.616c0,0,13.846-3.349,13.943-3.228
							c3.848,4.765,8.722,6.926,15.068,6.485c6.066-0.416,16.68-3.948,16.729-3.978l6.922,11.366
							c-0.736,0.451-13.163,5.067-22.126,5.84C121.464,110.51,120.464,110.557,119.432,110.557z"/>
					</g>
					<g>
						<g>
							<g>
								
									<ellipse transform="matrix(0.0178 -0.9998 0.9998 0.0178 -29.9586 62.2122)" style="fill:#F0E3C3;" cx="16.685" cy="46.354" rx="7.116" ry="6.02"/>
							</g>
							<polygon style="fill:#FFFFFF;" points="10.444,48.73 10.444,46.209 22.705,46.209 22.641,48.73 							"/>
							<circle style="fill:#B8BABC;" cx="11.512" cy="47.312" r="0.502"/>
						</g>
						<path style="fill:#37302B;" d="M46.501,102.888c-1.433,0-12.785-0.339-23.068-10.672C12.842,81.576,9.475,70.953,9.675,48.144
							l13.94,0.122c0,39.937,21.928,40.656,22.96,40.682h-0.097l0.057,13.94C46.524,102.888,46.512,102.888,46.501,102.888z"/>
					</g>
					<g>
						<path style="fill:#37302B;" d="M104.004,139.701c0,7.408-13.705,12.081-30.588,12.081s-30.08-4.727-30.08-12.135
							c0-7.407,13.197-14.691,30.08-14.691S104.004,132.294,104.004,139.701z"/>
						<g>
							<defs>
								<path id="SVGID_41_" d="M103.848,139.701c0,7.408-13.668,12.081-30.506,12.081s-30.001-4.727-30.001-12.135
									c0-7.407,13.163-14.691,30.001-14.691S103.848,132.294,103.848,139.701z"/>
							</defs>
							<clipPath id="SVGID_2_">
								<use xlink:href="#SVGID_41_"  style="overflow:visible;"/>
							</clipPath>
							<path style="opacity:0.15;clip-path:url(#SVGID_2_);fill:#231F20;" d="M47.014,89.682c0,0-7.41,0.479-7.41,6.971
								c0,5.054,2.246,31.432,3.24,42.865c0.283,3.252,0.58,5.295,3.462,5.295c2.882,0,51.687,0,54.569,0
								c2.883,0,2.992-2.318,3.062-5.926c0.211-10.997,0.714-33.974,1.334-39.7c0.823-7.604-4.528-9.505-4.528-9.505H47.014z"/>
						</g>
						<g>
							<g>
								<path style="fill:#231F20;" d="M54.827,172.047c0,0.237,0.158,2.376,0.158,2.376s-13.267,2.258-13.941,2.931
									c-0.674,0.674-1.029,4.595,0,4.595s15.287,0,15.287,0s7.347,0,8.396,0c1.05,0,1.109-1.485,1.109-2.456
									c0-0.97,0-7.049,0-7.049L54.827,172.047z"/>
								<path style="fill:#37302B;" d="M66.764,173.116c-1.901,0-11.17,0-13.18,0c-1.742,0-1.617-2.323-1.617-3.116
									c0-0.792,0.008-25.189,0.008-25.189h16.039c0,0,0,23.763,0,25.057C68.014,171.162,68.122,173.116,66.764,173.116z"/>
							</g>
							<g>
								<path style="fill:#231F20;" d="M93.243,172.047c0,0.237-0.158,2.376-0.158,2.376s13.267,2.258,13.941,2.931
									c0.674,0.674,1.029,4.595,0,4.595s-15.287,0-15.287,0s-7.347,0-8.396,0s-1.109-1.485-1.109-2.456c0-0.97,0-7.049,0-7.049
									L93.243,172.047z"/>
								<path style="fill:#37302B;" d="M94.17,173.116c-1.9,0-11.17,0-13.178,0c-1.743,0-1.619-2.323-1.619-3.116
									c0-0.792,0.008-25.189,0.008-25.189H95.42c0,0,0,23.763,0,25.057C95.42,171.162,95.528,173.116,94.17,173.116z"/>
							</g>
						</g>
					</g>
					<g>
						<g>
							<path style="fill:#403833;" d="M99.955,88.202c0,0-13.01,0-26.32,0c-13.31,0-26.321,0-26.321,0s-7.604,0.479-7.604,6.971
								c0,5.054,2.305,31.432,3.326,42.865c0.29,3.252,0.594,5.295,3.551,5.295c1.443,0,14.112,0,27.049,0
								c12.936,0,25.604,0,27.048,0c2.957,0,3.261-2.043,3.552-5.295c1.021-11.434,3.325-37.811,3.325-42.865
								C107.56,88.682,99.955,88.202,99.955,88.202z"/>
							<polygon style="fill:#FFFFFF;" points="61.361,88.202 74.342,115.134 88.284,88.202 							"/>
							<g>
								<ellipse style="fill:#0295A5;" cx="74.504" cy="88.52" rx="6.926" ry="4.277"/>
								<polygon style="fill:#0295A5;" points="73.446,88.52 70.131,106.395 74.343,115.134 78.877,106.381 76.571,88.52 								
									"/>
							</g>
							<path style="fill:#342E29;" d="M88.284,88.202l6.273,0.584c0,0-8.298,17.843-10.199,21.09
								c-1.9,3.248-10.016,5.258-10.016,5.258L88.284,88.202z"/>
							<path style="fill:#342E29;" d="M61.361,88.202l-6.403,0.407c0,0,7.469,18.02,9.369,21.267
								c1.901,3.248,10.017,5.258,10.017,5.258L61.361,88.202z"/>
						</g>
						<polygon style="fill:#342E29;" points="74.977,143.333 73.71,143.333 73.71,113.902 74.342,115.134 74.977,113.91 						"/>
					</g>
					<g>
						<defs>
							<path id="SVGID_43_" d="M47.266,88.202c0,0-7.604,0.479-7.604,6.971c0,5.054,2.305,31.432,3.324,42.865
								c0.291,3.252,0.596,5.295,3.553,5.295c2.957,0,51.492,0,54.449,0c2.958,0,3.07-2.318,3.143-5.925
								c0.216-10.998,2.438-33.996,3.342-39.686c1.278-8.041-5.722-9.521-7.518-9.521C98.161,88.202,47.266,88.202,47.266,88.202z"
								/>
						</defs>
						<clipPath id="SVGID_4_">
							<use xlink:href="#SVGID_43_"  style="overflow:visible;"/>
						</clipPath>
						<path style="opacity:0.15;clip-path:url(#SVGID_4_);fill:#231F20;" d="M40.876,30.915c-3.802,12.198-2.325,26.17-1.901,37.704
							c0.74,20.106,8.528,23.183,19.934,23.183c11.407,0,8.079,0,27.882,0s20.938-12.251,20.938-23.975s2.535-30.575-1.901-39.922
							C101.393,18.559,44.678,18.717,40.876,30.915z"/>
					</g>
					<g>
						<path style="fill:#F0E3C3;" d="M40.883,28.795c-3.802,12.198-2.325,26.169-1.9,37.703
							c0.739,20.106,8.527,23.184,19.934,23.184c11.406,0,8.08,0,27.883,0s20.938-12.252,20.938-23.975
							c0-11.724,2.535-30.576-1.9-39.923C101.401,16.438,44.686,16.596,40.883,28.795z"/>
						<path style="fill:#56341D;" d="M38.793,61.051c-2.372,0.634-4.857-21.325-3.112-30.83c1.457-7.941-1.834-24.135,4.486-26.889
							c4.753,9.822,17.846,8.036,17.846,8.036s-4.205-3.802-2.814-8.036c9.738,5.201,21.828,4.393,41.789,9.145
							c19.961,4.753,14.252,49.258,11.472,49.892s0.251-25.494-4.343-30.96c-4.594-5.465-18.535,0.008-29.149,0.006
							c-10.614-0.002-24.205-5.42-29.783-0.006C39.605,36.822,41.165,60.417,38.793,61.051z"/>
						<g>
							<g>
								<path style="fill:#56341D;" d="M69.389,48.617c-0.217,0-0.438-0.056-0.639-0.174c-6.46-3.768-12.571-0.057-12.633-0.018
									c-0.593,0.37-1.375,0.188-1.745-0.405c-0.37-0.596-0.188-1.377,0.407-1.747c0.302-0.188,7.484-4.548,15.248-0.019
									c0.605,0.354,0.81,1.129,0.457,1.734C70.249,48.392,69.825,48.617,69.389,48.617z"/>
								<path style="fill:#56341D;" d="M91.352,48.617c-0.217,0-0.435-0.056-0.637-0.174c-6.461-3.768-12.572-0.057-12.633-0.018
									c-0.594,0.37-1.375,0.188-1.746-0.405c-0.369-0.596-0.188-1.377,0.406-1.747c0.303-0.188,7.484-4.548,15.25-0.019
									c0.604,0.354,0.809,1.129,0.456,1.734C92.213,48.392,91.789,48.617,91.352,48.617z"/>
							</g>
						</g>
						<path style="fill:#EF5A35;" d="M59.096,74.276c-0.369-1.344,0.47-2.444,1.863-2.444h24.661c1.395,0,2.358,1.127,2.143,2.505
							c0,0-1.056,6.736-13.93,6.736S59.096,74.276,59.096,74.276z"/>
						<g>
							<circle style="fill:#E3D7B8;" cx="84.672" cy="56.469" r="5.824"/>
							<circle style="fill:#E3D7B8;" cx="62.13" cy="56.545" r="5.824"/>
							<g>
								<g>
									<circle style="fill:#FFFFFF;" cx="62.13" cy="57.736" r="5.824"/>
									<circle style="fill:#6D5237;" cx="62.13" cy="57.736" r="3.315"/>
									<circle style="fill:#FFFFFF;" cx="63.443" cy="55.299" r="1.879"/>
								</g>
								<g>
									<circle style="fill:#FFFFFF;" cx="84.672" cy="57.736" r="5.824"/>
									<circle style="fill:#6D5237;" cx="84.672" cy="57.736" r="3.316"/>
									<circle style="fill:#FFFFFF;" cx="85.985" cy="55.299" r="1.879"/>
								</g>
							</g>
						</g>
						<g>
							<defs>
								<path id="SVGID_45_" d="M59.096,74.276c-0.369-1.344,0.47-2.444,1.863-2.444h24.661c1.395,0,2.358,1.127,2.143,2.505
									c0,0-1.056,6.736-13.93,6.736S59.096,74.276,59.096,74.276z"/>
							</defs>
							<clipPath id="SVGID_6_">
								<use xlink:href="#SVGID_45_"  style="overflow:visible;"/>
							</clipPath>
							<ellipse style="opacity:0.7;clip-path:url(#SVGID_6_);fill:#C54A29;" cx="73.733" cy="80.979" rx="12.702" ry="6.232"/>
						</g>
						<g>
							<defs>
								<path id="SVGID_47_" d="M40.883,28.795c-3.802,12.198-2.325,26.169-1.9,37.703c0.739,20.106,8.527,23.184,19.934,23.184
									c11.406,0,8.08,0,27.883,0s20.938-12.252,20.938-23.975c0-11.724,2.535-30.576-1.9-39.923
									C101.401,16.438,44.686,16.596,40.883,28.795z"/>
							</defs>
							<clipPath id="SVGID_8_">
								<use xlink:href="#SVGID_47_"  style="overflow:visible;"/>
							</clipPath>
							<path style="opacity:0.1;clip-path:url(#SVGID_8_);fill:#231F20;" d="M38.344,61.488c-2.371,0.634-4.906-19.01-3.162-28.516
								c1.458-7.94-1.834-24.135,4.486-26.889c4.754,9.822,17.846,8.037,17.846,8.037s-4.205-3.803-2.813-8.037
								c9.737,5.202,21.827,4.393,41.788,9.146c19.962,4.753,14.75,48.318,11.97,48.952c-2.78,0.634-0.246-24.555-4.84-30.021
								c-4.595-5.466-18.536,0.008-29.149,0.006c-10.615-0.003-24.205-5.42-29.783-0.006C39.108,39.575,40.715,60.854,38.344,61.488
								z"/>
						</g>
					</g>
				</g>
				<g>
					<g>
						<path style="fill:#5EBB78;" d="M139.407,51.105l-2.096,0.01l-8.304-19.551c-0.432-1.036-0.792-1.701-1.082-1.995
							c-0.288-0.294-0.738-0.466-1.347-0.512l-0.007-1.603l10.017-0.046l0.007,1.603c-1.003,0.055-1.503,0.452-1.499,1.192
							c0,0.296,0.168,0.838,0.5,1.626l4.465,10.786l3.516-8.404l-0.574-1.428c-0.583-1.493-1.168-2.5-1.753-3.015
							c-0.587-0.515-1.332-0.771-2.237-0.768l-0.007-1.604l12.04-0.053l0.006,1.604c-0.92,0.037-1.564,0.164-1.934,0.379
							c-0.37,0.217-0.553,0.57-0.551,1.064c0.002,0.378,0.335,1.371,1,2.979l3.591,8.472l3.19-9.118
							c0.454-1.367,0.682-2.207,0.68-2.52c-0.004-0.855-0.754-1.281-2.25-1.273l-0.008-1.604l7.748-0.035l0.006,1.604
							c-0.855,0.119-1.561,0.545-2.116,1.279c-0.556,0.735-1.167,2.059-1.832,3.97l-5.944,16.899l-2.098,0.01l-5.561-13.345
							L139.407,51.105z"/>
					</g>
					<path style="fill:#EF5A35;" d="M180.703,36.154C180.703,16.219,164.483,0,144.547,0c-19.936,0-36.154,16.219-36.154,36.154
						c0,17.71,12.803,32.477,29.638,35.555c-0.001,0.043-0.007,0.086-0.007,0.129v37.111c0,3.602,2.921,6.522,6.523,6.522
						c3.604,0,6.523-2.92,6.523-6.522V71.838c0-0.043-0.006-0.086-0.006-0.129C167.899,68.631,180.703,53.864,180.703,36.154z
						 M144.547,60.811c-13.596,0-24.655-11.061-24.655-24.656c0-13.595,11.06-24.656,24.655-24.656s24.656,11.061,24.656,24.656
						C169.204,49.75,158.143,60.811,144.547,60.811z"/>
				</g>
			</g>
		</g>
	</g>
</g>
<g id="&#x56FE;&#x5C42;_3">
</g>
<g id="&#x56FE;&#x5C42;_2">
</g>
</svg>
