<?xml version="1.0" encoding="iso-8859-1"?>
<!-- Generator: Adobe Illustrator 17.0.0, SVG Export Plug-In . SVG Version: 6.00 Build 0)  -->
<!DOCTYPE svg PUBLIC "-//W3C//DTD SVG 1.1//EN" "http://www.w3.org/Graphics/SVG/1.1/DTD/svg11.dtd">
<svg version="1.1" xmlns="http://www.w3.org/2000/svg" xmlns:xlink="http://www.w3.org/1999/xlink" x="0px" y="0px" width="64px"
	 height="64px" viewBox="0 0 64 64" style="enable-background:new 0 0 64 64;" xml:space="preserve">
<g id="Layer_1">
	<g>
		<circle style="fill:#E0E0D1;" cx="32" cy="32" r="32"/>
	</g>
	<g style="opacity:0.2;">
		<path style="fill:#231F20;" d="M33.752,53.565c-0.968,0.581-2.537,0.581-3.504,0L12.726,43.051c-0.968-0.581-0.968-1.522,0-2.103
			l17.522-10.513c0.968-0.581,2.537-0.581,3.504,0l17.522,10.513c0.968,0.581,0.968,1.522,0,2.103L33.752,53.565z"/>
	</g>
	<g>
		<path style="fill:#C75C5C;" d="M33.752,51.565c-0.968,0.581-2.537,0.581-3.504,0L12.726,41.051c-0.968-0.581-0.968-1.522,0-2.103
			l17.522-10.513c0.968-0.581,2.537-0.581,3.504,0l17.522,10.513c0.968,0.581,0.968,1.522,0,2.103L33.752,51.565z"/>
	</g>
	<g style="opacity:0.2;">
		<path style="fill:#231F20;" d="M33.752,45.565c-0.968,0.581-2.537,0.581-3.504,0L12.726,35.051c-0.968-0.581-0.968-1.522,0-2.103
			l17.522-10.513c0.968-0.581,2.537-0.581,3.504,0l17.522,10.513c0.968,0.581,0.968,1.522,0,2.103L33.752,45.565z"/>
	</g>
	<g>
		<path style="fill:#76C2AF;" d="M33.752,43.565c-0.968,0.581-2.537,0.581-3.504,0L12.726,33.051c-0.968-0.581-0.968-1.522,0-2.103
			l17.522-10.513c0.968-0.581,2.537-0.581,3.504,0l17.522,10.513c0.968,0.581,0.968,1.522,0,2.103L33.752,43.565z"/>
	</g>
	<g style="opacity:0.2;">
		<path style="fill:#231F20;" d="M33.752,37.565c-0.968,0.581-2.537,0.581-3.504,0L12.726,27.051c-0.968-0.581-0.968-1.522,0-2.103
			l17.522-10.513c0.968-0.581,2.537-0.581,3.504,0l17.522,10.513c0.968,0.581,0.968,1.522,0,2.103L33.752,37.565z"/>
	</g>
	<g>
		<path style="fill:#4F5D73;" d="M33.752,35.565c-0.968,0.581-2.537,0.581-3.504,0L12.726,25.051c-0.968-0.581-0.968-1.522,0-2.103
			l17.522-10.513c0.968-0.581,2.537-0.581,3.504,0l17.522,10.513c0.968,0.581,0.968,1.522,0,2.103L33.752,35.565z"/>
	</g>
</g>
<g id="Layer_2">
</g>
</svg>
