<?xml version="1.0" encoding="utf-8"?>
<!-- Generator: Adobe Illustrator 16.0.0, SVG Export Plug-In . SVG Version: 6.00 Build 0)  -->
<!DOCTYPE svg PUBLIC "-//W3C//DTD SVG 1.1//EN" "http://www.w3.org/Graphics/SVG/1.1/DTD/svg11.dtd">
<svg version="1.1" xmlns="http://www.w3.org/2000/svg" xmlns:xlink="http://www.w3.org/1999/xlink" x="0px" y="0px" width="82.45px"
	 height="126.027px" viewBox="0 0 82.45 126.027" enable-background="new 0 0 82.45 126.027" xml:space="preserve">
<g id="background">
</g>
<g id="objects">
	<path fill="#30B5D5" d="M68.342,109.149c1.869,8.343,9.914,16.878,9.914,16.878c-14.662-4.326-19.124-10.302-20.268-14.619
		c-8.661,0.454-38.252,1.765-43.824-0.418c-6.583-2.579-9.1-12.017-10.357-15.162c-1.259-3.146-7.209-82.46-1.088-89.046
		c0,0,11.445-9.796,30.965-5.842C41.479,2.52,66.168,1.677,69.591,2.51s12.873,3.14,12.859,6.495
		c-0.007,1.888-2.517,85.984-7.684,94.373C73.035,106.188,70.663,107.983,68.342,109.149z"/>
	<path fill="#FFFFFF" d="M68.347,119.578c-1.638-1.228-3.007-2.312-4.183-3.312l0.816-0.959c1.156,0.985,2.504,2.054,4.121,3.264
		L68.347,119.578z M66.57,116.196c-0.9-1.611-1.691-3.239-2.349-4.839l1.163-0.479c0.64,1.555,1.408,3.138,2.284,4.704
		L66.57,116.196z M60.311,112.489c-1.413-1.691-2.06-3.059-2.744-4.507l-0.067-0.143l1.138-0.538l0.067,0.143
		c0.678,1.433,1.263,2.671,2.572,4.238L60.311,112.489z M32.075,108.785c-1.795,0-3.529-0.494-5.156-0.536l-0.353-1.495
		c1.666,0.043,4.903-0.152,4.903-0.176v2.207C31.47,108.785,32.129,108.785,32.075,108.785z M37.552,107.796l-0.02-1.258
		c1.779-0.027,3.562-0.066,5.299-0.111l0.031,1.259C41.121,107.729,39.336,107.77,37.552,107.796z M48.172,107.52l-0.044-1.258
		c1.937-0.069,3.732-0.142,5.295-0.211l0.057,1.256C51.911,107.378,50.114,107.451,48.172,107.52z M21.588,107.518
		c-2.373-0.191-3.975-0.46-4.9-0.822c-0.168-0.065-0.335-0.137-0.5-0.213l0.525-1.143c0.141,0.063,0.285,0.125,0.432,0.183
		c0.8,0.313,2.327,0.563,4.544,0.741L21.588,107.518z M63.35,106.274l-0.107-0.212l-0.701,0.168l-0.196-0.857l0.439-0.222
		c0.957-0.481,2.542-1.396,4.118-2.518l0.729,1.024C65.998,104.821,64.349,105.772,63.35,106.274z M11.919,102.939
		c-1.003-1.281-1.902-2.817-2.752-4.696l1.146-0.519c0.809,1.785,1.657,3.238,2.597,4.441L11.919,102.939z M71.672,99.932
		l-1.029-0.725c0.063-0.09,0.123-0.18,0.178-0.269c0.321-0.521,0.813-1.79,1.329-4.866l1.24,0.209
		c-0.447,2.667-0.938,4.407-1.5,5.321C71.819,99.713,71.748,99.822,71.672,99.932z M7.231,93.254
		c-0.072-0.193-0.139-0.372-0.202-0.53c-0.065-0.165-0.266-0.666-0.705-4.85l1.25-0.132c0.402,3.816,0.59,4.43,0.623,4.515
		c0.068,0.168,0.14,0.356,0.214,0.56L7.231,93.254z M74.095,88.975l-1.251-0.133c0.173-1.627,0.334-3.395,0.483-5.276l1.254,0.101
		C74.431,85.559,74.271,87.338,74.095,88.975z M5.825,82.576c-0.141-1.626-0.284-3.401-0.43-5.3l1.256-0.097
		c0.143,1.894,0.287,3.667,0.427,5.288L5.825,82.576z M74.952,78.354l-1.256-0.078c0.105-1.71,0.204-3.481,0.294-5.298l1.256,0.062
		C75.156,74.86,75.058,76.637,74.952,78.354z M5.018,71.976c-0.117-1.71-0.229-3.484-0.339-5.302l1.256-0.076
		c0.109,1.814,0.222,3.584,0.339,5.292L5.018,71.976z M75.487,67.725l-1.258-0.052c0.071-1.747,0.137-3.521,0.198-5.307l1.258,0.045
		C75.624,64.199,75.559,65.975,75.487,67.725z M4.377,61.37c-0.093-1.749-0.181-3.521-0.262-5.306l1.256-0.057
		c0.081,1.779,0.169,3.55,0.262,5.296L4.377,61.37z M75.849,57.098l-1.258-0.034c0.049-1.773,0.095-3.547,0.134-5.308l1.259,0.027
		C75.943,53.546,75.898,55.322,75.849,57.098z M3.896,50.756c-0.066-1.779-0.124-3.554-0.172-5.312l1.259-0.034
		c0.048,1.752,0.105,3.524,0.172,5.299L3.896,50.756z M76.096,46.469l-1.258-0.025c0.034-1.801,0.063-3.575,0.09-5.311l1.258,0.02
		C76.16,42.888,76.131,44.664,76.096,46.469z M3.609,39.617c-0.028-1.815-0.043-1.832-0.043-5.832h1.258
		c0,4,0.015,3.747,0.043,5.555L3.609,39.617z M76.256,35.835l-1.259-0.015c0.021-1.85,0.038-3.627,0.053-5.312l1.259,0.01
		C76.294,32.205,76.276,33.983,76.256,35.835z M4.874,29.525l-1.259-0.027c0.041-1.913,0.104-3.703,0.192-5.32l1.255,0.066
		C4.977,25.849,4.913,27.626,4.874,29.525z M76.346,25.201l-1.259-0.008c0.012-2.011,0.018-3.802,0.021-5.315l1.258,0.002
		C76.362,21.396,76.356,23.188,76.346,25.201z M5.492,18.999l-1.249-0.147c0.283-2.394,0.646-4.14,1.107-5.337l1.175,0.455
		C6.106,15.051,5.76,16.743,5.492,18.999z M74.47,14.564v-0.065c0-1.322-1.299-2.461-2.659-3.185l0.752-1.111
		c2.42,1.288,3.406,2.733,3.406,4.296L74.47,14.564z M10.18,10.945L9.58,9.84c1.542-0.838,3.208-1.564,4.953-2.16l0.405,1.191
		C13.262,9.442,11.66,10.141,10.18,10.945z M67.309,9.475c-0.268-0.073-0.522-0.139-0.758-0.197
		c-0.838-0.204-3.494-0.275-4.366-0.299l0.034-1.259c2.531,0.069,3.962,0.172,4.634,0.335c0.248,0.062,0.513,0.13,0.79,0.206
		L67.309,9.475z M56.882,8.894l-5.31-0.057l0.015-1.259l5.31,0.057L56.882,8.894z M46.254,8.742
		c-1.859-0.045-3.663-0.106-5.325-0.195l0.066-1.256c1.65,0.086,3.444,0.147,5.291,0.193L46.254,8.742z M35.583,8.085
		c-0.458-0.065-0.879-0.136-1.256-0.212c-1.322-0.269-2.654-0.475-3.96-0.614l0.132-1.251c1.346,0.143,2.718,0.355,4.078,0.632
		c0.354,0.071,0.749,0.139,1.181,0.199L35.583,8.085z M19.978,7.58l-0.219-1.239c1.748-0.307,3.552-0.49,5.362-0.543l0.037,1.259
		C23.408,7.106,21.665,7.283,19.978,7.58z"/>
</g>
</svg>
