<?xml version="1.0" encoding="utf-8"?>
<!-- Generator: Adobe Illustrator 17.0.0, SVG Export Plug-In . SVG Version: 6.00 Build 0)  -->
<!DOCTYPE svg PUBLIC "-//W3C//DTD SVG 1.1//EN" "http://www.w3.org/Graphics/SVG/1.1/DTD/svg11.dtd">
<svg version="1.1" id="图层_1" xmlns="http://www.w3.org/2000/svg" xmlns:xlink="http://www.w3.org/1999/xlink" x="0px" y="0px"
	 width="64px" height="64px" viewBox="0 0 64 64" enable-background="new 0 0 64 64" xml:space="preserve">
<path fill="#77B3D4" d="M32,0c17.673,0,32,14.327,32,32S49.673,64,32,64S0,49.673,0,32S14.327,0,32,0z"/>
<path opacity="0.2" fill="#231F20" d="M48,32c0-8.837-7.163-16-16-16c-7.498,0-13.773,5.165-15.508,12.126
	C11.687,28.854,8,32.991,8,38c0,5.523,4.477,10,10,10h30c4.418,0,8-3.582,8-8S52.418,32,48,32z"/>
<path fill="#FFFFFF" d="M48,30c0-8.837-7.163-16-16-16c-7.498,0-13.773,5.165-15.508,12.126C11.687,26.854,8,30.991,8,36
	c0,5.523,4.477,10,10,10h30c4.418,0,8-3.582,8-8S52.418,30,48,30z"/>
</svg>
