<?xml version="1.0" encoding="utf-8"?><!DOCTYPE svg PUBLIC "-//W3C//DTD SVG 1.1//EN" "http://www.w3.org/Graphics/SVG/1.1/DTD/svg11.dtd"><svg version="1.1" baseProfile="full" xmlns="http://www.w3.org/2000/svg" xmlns:xlink="http://www.w3.org/1999/xlink" xmlns:ev="http://www.w3.org/2001/xml-events"   height="68px"   width="70px" ><path fill="rgb( 183, 91, 36 )" d="M70,37 C70,37 70,62 70,62 C70,65.314 67.314,68 64,68 C64,68 6,68 6,68 C2.68599999999998,68 0,65.314 0,62 C0,62 0,37 0,37 C0,37 70,37 70,37 Z "/><path fill="rgb( 154, 76, 29 )" d="M0,37 C0,37 0,18 0,18 C0,14.686 2.68599999999998,12 6,12 C6,12 20,12 20,12 C20,12 20,6 20,6 C20,2.68600000000001 22.686,0 26,0 C26,0 44,0 44,0 C47.314,0 50,2.68600000000001 50,6 C50,6 50,12 50,12 C50,12 64,12 64,12 C67.314,12 70,14.686 70,18 C70,18 70,37 70,37 C70,37 0,37 0,37 ZM45,10 C45,10 45,8 45,8 C45,6.34299999999999 43.657,5 42,5 C42,5 28,5 28,5 C26.343,5 25,6.34299999999999 25,8 C25,8 25,10 25,10 C25,10 25,12 25,12 C25,12 45,12 45,12 C45,12 45,10 45,10 Z "/><path fill="rgb( 200, 146, 17 )" d="M53,41 C50.7910000000001,41 49,39.209 49,37 C49,34.791 50.7910000000001,33 53,33 C55.2089999999999,33 57,34.791 57,37 C57,39.209 55.2089999999999,41 53,41 ZM17,41 C14.791,41 13,39.209 13,37 C13,34.791 14.791,33 17,33 C19.209,33 21,34.791 21,37 C21,39.209 19.209,41 17,41 Z "/></svg>