<?xml version="1.0" encoding="utf-8"?>
<!-- Generator: Adobe Illustrator 17.0.0, SVG Export Plug-In . SVG Version: 6.00 Build 0)  -->
<!DOCTYPE svg PUBLIC "-//W3C//DTD SVG 1.1//EN" "http://www.w3.org/Graphics/SVG/1.1/DTD/svg11.dtd">
<svg version="1.1" id="图层_1" xmlns="http://www.w3.org/2000/svg" xmlns:xlink="http://www.w3.org/1999/xlink" x="0px" y="0px"
	 width="30px" height="30.84px" viewBox="0 0 30 30.84" enable-background="new 0 0 30 30.84" xml:space="preserve">
<path fill="#DB0303" d="M26,5.59v4h-1v-4h-4v-1h4v-4h1v4h4v1H26z M15.227,2.091c1.693,0.965,2.591,2.95,2.591,5.144
	c0,2.012-1.118,3.633-2.697,4.861c-1.543,1.203-1.834,1.703-1.834,2.725c0,0.87,1.841,2.167,2.689,2.8
	c2.948,2.204,3.504,3.591,3.546,6.346c0.055,3.663-3.72,6.858-9.768,6.858C4.447,30.825,0,28.419,0,24.978
	c0-5.194,3.683-6.871,8.99-6.871c0.578,0,1.108-0.015,1.657-0.015c-0.727-0.701-1.313-1.308-1.313-2.37
	c0-0.634,0.2-1.237,0.484-1.775c-0.287,0.018-0.582,0.037-0.885,0.037c-4.359,0-6.897-3.052-6.897-6.877
	c0-3.746,3.863-7.103,8.497-7.103c2.389,0,9.133,0,9.133,0l-2.041,2.087H15.227z M10,20.59c-3.378,0-6.288,1.198-6.288,3.578
	c0,2.426,2.841,4.422,6.288,4.422c4.847,0,6.185-1.871,6.185-4.3c0-0.293-0.008-0.588-0.11-0.856
	C14.905,20.523,11.256,20.59,10,20.59z M13.975,7.606c-0.402-3.041-1.923-5.329-4.259-5.4C7.381,2.138,5.333,4.259,5.739,7.3
	c0.402,3.045,2.623,5.084,4.96,5.156C13.034,12.523,14.377,10.651,13.975,7.606z"/>
</svg>
