<?xml version="1.0" encoding="utf-8"?>
<!-- Generator: Adobe Illustrator 16.0.0, SVG Export Plug-In . SVG Version: 6.00 Build 0)  -->
<!DOCTYPE svg PUBLIC "-//W3C//DTD SVG 1.1//EN" "http://www.w3.org/Graphics/SVG/1.1/DTD/svg11.dtd">
<svg version="1.1" id="Layer_1" xmlns="http://www.w3.org/2000/svg" xmlns:xlink="http://www.w3.org/1999/xlink" x="0px" y="0px"
	 width="60.592px" height="73.703px" viewBox="0 0 60.592 73.703" enable-background="new 0 0 60.592 73.703" xml:space="preserve">
<path fill="#A60512" d="M7.315,63.748l-3.663,9.955L0,63.748h0.872l2.78,7.578l2.796-7.578H7.315z M3.813,68.748l-0.162,0.453
	l-2.003-5.453h0.894L3.813,68.748z M8.414,63.748l-3.469,9.287H4.612l3.48-9.285L8.414,63.748z"/>
<path fill="#A60512" d="M13.132,73.035h-0.861l-0.344-0.947h-4.74l-0.345,0.947H5.969l3.587-9.75L13.132,73.035z M11.613,71.278
	l-2.057-5.612l-2.068,5.612H11.613z M8.026,72.83l-0.087,0.215H7.617l0.086-0.215H8.026z M9.943,68.833l-1.088,1.701H8.533
	l1.023-2.758L9.943,68.833z M14.242,73.044h-0.324l-3.49-9.285h0.334L14.242,73.044z"/>
<path fill="#A60512" d="M18.907,73.035h-3.889v-9.287h0.808v8.479h3.081V73.035z M17.215,63.748l-0.323,7.735h-0.334v-7.735H17.215z
	 M19.898,73.044h-0.334v-1.562h0.334V73.044z"/>
<path fill="#A60512" d="M24.724,73.035h-4.05v-9.287h3.728v0.81h-2.898v4.923h2.919v0.809h-2.919v1.938h3.221L24.724,73.035
	L24.724,73.035z M25.402,65.494h-2.003l-1.175,3.243v-3.459h2.855v-1.53h0.323V65.494z M25.402,71.031h-2.844v0.452h-0.334v-0.667
	h2.855v-2.079h0.323V71.031z M25.715,73.044h-0.333v-1.562h0.333V73.044z"/>
<path fill="#A60512" d="M33.756,73.595l-6.468-7.951v7.391H26.49v-9.621l6.468,7.951v-7.391h0.797L33.756,73.595L33.756,73.595z
	 M32.248,69.339l-4.422-5.365h0.313l4.109,4.977V69.339z M28.753,68.576l-0.431,4.459H28.01V67.66L28.753,68.576z M34.791,73.044
	h-0.323v-9.07h0.323V73.044z"/>
<path fill="#A60512" d="M41.728,64.556h-2.67v8.479h-0.81v-8.479h-2.683v-0.809h6.162V64.556L41.728,64.556z M37.483,65.632h-1.918
	V65.3h1.918V65.632z M41.836,65.3l-1.713,0.851v6.884h-0.334V65.3H41.836z M42.72,65.3h-0.334v-1.553h0.334V65.3z"/>
<path fill="#A60512" d="M44.304,73.035h-0.809v-9.298h0.809V73.035z M45.703,63.737l-0.323,9.298h-0.333v-9.298H45.703z"/>
<path fill="#A60512" d="M53.74,73.595l-6.466-7.951v7.391h-0.795v-9.621l6.463,7.951v-7.391h0.799L53.74,73.595L53.74,73.595z
	 M52.231,69.339l-4.416-5.365h0.312l4.104,4.977V69.339z M48.741,68.576l-0.432,4.459h-0.312V67.66L48.741,68.576z M54.772,73.044
	H54.45v-9.07h0.322V73.044z"/>
<path fill="#A60512" d="M59.601,73.035H55.55v-9.287h3.729v0.81H56.38v4.923h2.919v0.809H56.38v1.938h3.223v0.808H59.601z
	 M60.278,65.494h-2.004l-1.172,3.243v-3.459h2.854v-1.53h0.322V65.494z M60.278,71.031h-2.844v0.452h-0.332v-0.667h2.854v-2.079
	h0.322V71.031z M60.592,73.044h-0.334v-1.562h0.334V73.044z"/>
<path fill="#A60512" d="M28.521,14.447c0,0.874-0.312,1.624-0.936,2.251c-0.623,0.627-1.37,0.941-2.243,0.941h-6.343V0h1.78
	c2.019,0,3.748,0.72,5.187,2.159c1.441,1.439,2.164,3.168,2.164,5.188c0,1.555-0.459,2.967-1.375,4.235
	C27.931,12.182,28.521,13.138,28.521,14.447z M26.549,7.346c0-1.596-0.563-2.963-1.688-4.103c-1.125-1.139-2.487-1.708-4.083-1.708
	h-0.225l-0.042,11.582h0.267c1.596,0,2.957-0.566,4.083-1.699C25.986,10.286,26.549,8.929,26.549,7.346z M26.979,14.447
	c0-0.396-0.126-0.747-0.378-1.054c-0.253-0.307-0.577-0.494-0.972-0.562c-1.406,1.228-3.022,1.841-4.85,1.841
	c-0.109,0-0.198-0.007-0.267-0.02v1.452h4.83c0.437,0,0.819-0.164,1.146-0.491C26.815,15.286,26.979,14.897,26.979,14.447z
	 M23.091,3.438l-0.552,7.919c-0.014,0-0.219,0.075-0.615,0.225l0.042-8.472C22.279,3.192,22.654,3.301,23.091,3.438z M30.544,14.447
	c0,1.255-0.444,2.326-1.331,3.212h-0.611c0.884-0.886,1.327-1.958,1.327-3.212c0-1.242-0.443-2.319-1.327-3.233
	c0.598-1.2,0.898-2.489,0.898-3.867c0-1.515-0.368-2.933-1.104-4.256C27.684,1.808,26.713,0.777,25.485,0h0.635
	c1.228,0.777,2.201,1.808,2.911,3.09c0.736,1.323,1.104,2.741,1.104,4.256c0,1.35-0.307,2.64-0.921,3.867
	C30.1,12.128,30.544,13.205,30.544,14.447z"/>
<path fill="#A60512" d="M39.711,17.639h-7.694V0h7.08v1.535h-5.505v9.351h5.546v1.535h-5.546v3.684h6.12L39.711,17.639
	L39.711,17.639z M41,3.314h-3.806l-2.231,6.16V2.905h5.422V0H41V3.314z M41,13.833h-5.403v0.859h-0.634v-1.269h5.422V9.474H41
	V13.833z M41.593,17.659h-0.634v-2.967h0.634V17.659z"/>
<path fill="#F3FF7F" d="M28.401,27.628c2.125-8.849,20.372-11.65,22.25,1.719c1.832,13.018-17.756,29.417-17.756,29.417
	S9.252,48.449,7.461,35.72C5.486,21.686,23.729,19.686,28.401,27.628z"/>
<path fill="#EE2A7B" d="M30.829,27.365c4.042-8.153,22.453-6.822,21.311,6.63C51.026,47.093,28.278,58.72,28.278,58.72
	S7.524,43.399,8.613,30.591C9.812,16.47,28.042,18.581,30.829,27.365z"/>
<path fill="#FF886C" d="M31.918,27.271c4.042-8.153,22.453-6.822,21.31,6.63C52.116,47,29.367,58.626,29.367,58.626
	S8.614,43.306,9.702,30.498C10.901,16.376,29.132,18.487,31.918,27.271z"/>
<path fill="#F0E3DB" d="M24.844,42.983h-0.809v-6.966l-3.717,7.102l-3.716-7.102v6.966h-0.81V32.756l4.526,8.63l4.526-8.63V42.983z
	 M20.478,39.528l-0.16,0.31l-3.261-6.021h0.65L20.478,39.528z M18.003,40.235l-0.353,2.748h-0.32v-4.015L18.003,40.235z
	 M23.305,39.583l-1.767,3.41h-0.331l2.098-4.025V39.583z M25.881,42.983h-0.319v-9.167h0.319V42.983z"/>
<path fill="#F0E3DB" d="M27.565,42.983h-0.859v-9.84h0.859V42.983z M29.044,33.143l-0.342,9.84H28.35v-9.84H29.044z"/>
<path fill="#F0E3DB" d="M37.549,43.576l-6.841-8.415v7.822h-0.843V32.801l6.84,8.416v-7.822h0.844V43.576z M35.953,39.072
	l-4.675-5.679h0.33l4.345,5.269V39.072z M32.259,38.263l-0.455,4.72h-0.33v-5.689L32.259,38.263z M38.644,42.994h-0.343v-9.601
	h0.343V42.994z"/>
<path fill="#F0E3DB" d="M43.751,42.983h-4.287v-9.828h3.945v0.854h-3.067v5.211h3.091v0.855h-3.091v2.051h3.409V42.983z
	 M44.47,35.001h-2.119l-1.244,3.432v-3.66h3.021v-1.619h0.343V35.001z M44.47,40.862h-3.011v0.479h-0.354v-0.707h3.021v-2.201h0.344
	V40.862L44.47,40.862z M44.801,42.994h-0.354v-1.654h0.354V42.994z"/>
</svg>
