<?xml version="1.0" encoding="utf-8"?>
<!-- Generator: Adobe Illustrator 17.0.0, SVG Export Plug-In . SVG Version: 6.00 Build 0)  -->
<!DOCTYPE svg PUBLIC "-//W3C//DTD SVG 1.1//EN" "http://www.w3.org/Graphics/SVG/1.1/DTD/svg11.dtd">
<svg version="1.1" id="图层_1" xmlns="http://www.w3.org/2000/svg" xmlns:xlink="http://www.w3.org/1999/xlink" x="0px" y="0px"
	 width="37.094px" height="37.09px" viewBox="0 0 37.094 37.09" enable-background="new 0 0 37.094 37.09" xml:space="preserve">
<path fill="#29549B" d="M18.543,37.095C8.318,37.095,0,28.777,0,18.552C0,8.328,8.318,0.009,18.543,0.009
	s18.543,8.319,18.543,18.543C37.086,28.777,28.768,37.095,18.543,37.095z M18.543,0.879c-9.751,0-17.684,7.928-17.684,17.673
	c0,9.746,7.933,17.674,17.684,17.674s17.684-7.928,17.684-17.674C36.227,8.807,28.294,0.879,18.543,0.879z M34.682,18.304
	c0,5.909-3.214,11.07-7.993,13.845L31.6,18.003c0.917-2.284,1.224-4.112,1.224-5.736c0-0.591-0.04-1.138-0.112-1.649
	C33.968,12.901,34.682,15.519,34.682,18.304z M26.554,9.319c0,1.323,0.764,2.439,1.579,3.759c0.61,1.066,1.327,2.437,1.327,4.418
	c0,1.37-0.411,3.096-1.225,5.179l-1.604,5.336l-5.812-17.218c0.97-0.051,1.84-0.151,1.84-0.151c0.866-0.102,0.763-1.371-0.101-1.323
	c0,0-2.606,0.207-4.287,0.207c-1.581,0-4.234-0.207-4.234-0.207c-0.868-0.048-0.969,1.27-0.104,1.323c0,0,0.822,0.1,1.688,0.151
	l2.504,6.84l-3.517,10.511L8.75,10.793c0.971-0.051,1.842-0.151,1.842-0.151c0.866-0.102,0.762-1.371-0.102-1.323
	c0,0-2.604,0.207-4.287,0.207c-0.301,0-0.656-0.009-1.033-0.019c2.873-4.351,7.816-7.222,13.434-7.222
	c4.187,0,7.998,1.595,10.858,4.206c-0.068-0.004-0.137-0.014-0.207-0.014C27.672,6.477,26.554,7.848,26.554,9.319z M2.523,18.304
	c0-2.322,0.501-4.527,1.393-6.519l7.67,20.935C6.222,30.126,2.523,24.643,2.523,18.304z M23.829,33.197
	c0.032,0.078,0.071,0.151,0.114,0.218c-1.671,0.587-3.468,0.91-5.339,0.91c-1.579,0-3.104-0.229-4.544-0.654l4.827-13.964
	L23.829,33.197z"/>
</svg>
