<?xml version="1.0" encoding="utf-8"?>
<!-- Generator: Adobe Illustrator 17.0.0, SVG Export Plug-In . SVG Version: 6.00 Build 0)  -->
<!DOCTYPE svg PUBLIC "-//W3C//DTD SVG 1.1//EN" "http://www.w3.org/Graphics/SVG/1.1/DTD/svg11.dtd">
<svg version="1.1" id="图层_1" xmlns="http://www.w3.org/2000/svg" xmlns:xlink="http://www.w3.org/1999/xlink" x="0px" y="0px"
	 width="30.75px" height="37.093px" viewBox="0 0 30.75 37.093" enable-background="new 0 0 30.75 37.093" xml:space="preserve">
<path fill="#EAEAEA" d="M21.887,36.936c-1.924,0-3.9-1.419-6.025-1.419c-2.431,0-4.456,1.572-6.177,1.572
	c-2.379,0-4.506-2.078-6.227-5.271c-2.38-4.36-3.444-9.379-3.444-12.622c0-6.134,5.216-10.848,10.481-10.848
	c2.531,0,3.494,1.976,5.823,1.976c2.937,0,4.707-2.078,6.834-2.078c3.038,0,5.013,1.825,6.481,3.65l-0.101,0.051
	c-2.229,1.571-3.443,4.004-3.443,6.793c0,3.446,1.621,5.828,4.608,7.451v0.253c0,0.151,0.051,0.304,0.051,0.507
	C30.748,30.955,26.494,36.936,21.887,36.936z M16.212,9.667V9.464c-0.1-0.556-0.152-1.063-0.152-1.469
	c0-4.308,3.139-7.047,6.633-8.009l0.051,0.203c0.05,0.506,0.101,0.963,0.101,1.318C22.845,6.019,19.655,8.603,16.212,9.667z"/>
</svg>
