<?xml version="1.0" encoding="utf-8"?>
<!-- Generator: Adobe Illustrator 17.0.0, SVG Export Plug-In . SVG Version: 6.00 Build 0)  -->
<!DOCTYPE svg PUBLIC "-//W3C//DTD SVG 1.1//EN" "http://www.w3.org/Graphics/SVG/1.1/DTD/svg11.dtd">
<svg version="1.1" id="_x37C_" xmlns="http://www.w3.org/2000/svg" xmlns:xlink="http://www.w3.org/1999/xlink" x="0px" y="0px"
	 width="201.598px" height="189.464px" viewBox="0 0 201.598 189.464" enable-background="new 0 0 201.598 189.464"
	 xml:space="preserve">
<path fill="#E60012" d="M131.029,3.837c22.076,12.061,17.191,35.299,8.453,55.21c-2.562,5.838-10.393,19.378-13.848,25.258
	c-4.809,8.185-11.508,20.047-16.51,27.648c-0.55,0.836-1.254,2.535-2.652,2.165c-1.029-0.272-0.755-2.877-0.805-4.035
	c-0.068-1.564-0.138-3.163-0.198-4.64c-0.512-12.543-1.124-25.524-1.096-38.108c0.029-12.769-0.621-25.17,1.903-37.255
	c2.166-10.367,5.282-20.318,9.055-30.048C120.595-0.264,127.182,1.736,131.029,3.837z M95.594,113.961
	c1.061-3.822,1.697-57.117,1.671-61.545c-0.065-10.948-0.864-18.449-3.353-28.418c-2.061-8.258-4.565-16.47-7.652-23.964
	c-6.571-0.369-13.585,2.348-18.005,5.127c-18.825,11.838-14.583,33.253-7.55,50.647c3.838,9.493,14.907,27.896,20.609,37.66
	l8.758,14.627c0.698,1.172,1.497,2.505,2.231,3.619C93.18,113.04,93.596,114.6,95.594,113.961z M114.579,119.693
	c3.78,0.732,33.445-17.883,39.674-21.682c3.199-1.951,9.401-6.069,12.306-8.256c6.32-4.76,11.424-8.031,16.03-14.609
	c5.042-7.199,6.115-16.103,3.63-24.694c-2.243-7.754-6.686-13.516-11.593-19.046c-0.623-0.703-1.77-1.825-2.62-2.427
	c-0.858-0.608-1.074-0.633-1.862,0.036c-0.548,0.465-0.824,0.829-1.308,1.328c-1.756,1.809-3.122,3.792-4.652,5.621
	c-1.529,1.828-2.98,4.018-4.382,5.9c-5.853,7.857-11.011,16.053-16.541,24.594C139.521,72.236,114.808,114.42,114.579,119.693z
	 M86.995,119.685c-0.086-5.025-25.02-47.584-28.67-53.224c-5.358-8.28-10.542-16.658-16.438-24.489
	c-2.312-3.071-6.588-9.125-9.036-11.528c-1.52-1.493-1.991-3.506-5.803,0.843c-2.11,2.407-2.683,2.978-4.655,5.632
	c-5.746,7.733-10.901,19.032-6.932,31.271c3.069,9.464,12.348,16.608,19.566,21.565c9.178,6.303,15.306,10.195,24.921,16.009
	C63.104,107.671,84.249,120.274,86.995,119.685z M201.598,94.7v-7.556c-0.765-1.725-0.287-5.447-1.613-7.112
	c-2.022,0.274-26.861,14.563-31.033,16.756c-13.871,7.291-27.004,15.623-40.179,23.931c-1.642,1.036-8.844,5.54-9.551,6.456
	c2.189,0.997,24.012,0.94,28.143,0.94c17.704,0,32.723,0.897,45.673-12.689c2.097-2.199,4.191-5.28,5.69-8.826
	c0.728-1.72,1.316-3.534,1.766-5.498C200.826,99.66,201.231,95.531,201.598,94.7z M82.325,127.268
	c-0.285-0.544,0.018-0.116-0.406-0.526c-2.167-2.095-35.159-22.168-38.864-24.25c-6.803-3.822-13.76-7.483-20.554-11.295
	C19.778,89.669,3.378,80.214,1.604,80.042c-1.675,2.212-1.762,11.467-1.481,14.809c1.157,13.742,7.834,23.336,20.608,29.159
	c9.347,4.261,17.78,4.114,29.057,4.104C55.237,128.11,78.591,128.228,82.325,127.268z M183.119,134.203l-62.935-1.765
	c1.509,1.527,13.119,10.522,14.523,11.467c4.652,3.133,11.053,6.867,17.356,8.648c9.076,2.564,13.973,0.883,19.764-3.705
	c2.34-1.854,4.605-4.223,6.437-6.661C179.047,141.146,183.071,135.542,183.119,134.203z M18.461,134.192
	c0.128,1.356,3.954,6.835,4.772,7.879c6.539,8.351,13.958,14.154,26.133,10.524c6.551-1.953,12.349-5.24,17.398-8.609
	c2.095-1.398,12.824-9.836,14.642-11.479L18.461,134.192z"/>
<path fill="#040000" d="M85.695,162.695c-1.501,3.759-12.535,25.596-12.699,26.763l6.993,0.001c0.929-1.641,1.809-4.81,2.863-6.073
	l13.092,0.252c0.119,0.184,0.117,0.171,0.245,0.396l1.106,2.325c0.48,1.048,1.028,2.162,1.507,3.104l7.208-0.005l-13.136-26.722
	L85.695,162.695z M84.86,178.818c0.503-1.353,3.862-9.108,4.426-9.654l4.39,9.651L84.86,178.818z M36.582,162.696
	c0.003,6.2,0.271,21.588-0.077,26.766l-6.641-0.007c-0.123-3.494-0.032-8.081-0.031-11.689c-2.352,0.006-11.489-0.281-13.006,0.127
	l-0.084,11.571l-6.621-0.044l-0.001-26.716l6.703-0.008l-0.011,10.475l13.018,0.011l-0.001-10.486H36.582z M71.764,162.696
	c0,5.797,0.464,14.032-0.266,19.501c-0.249,1.864-0.643,2.291-1.726,3.107c-2.107,1.586-3.494,3.003-6.067,3.811
	c-1.091,0.343-3.503,0.522-4.187,0.797h-4.537c-1.591-0.594-9.831,0.026-10.92-8.175c-0.717-5.394-0.27-13.303-0.27-18.988
	l6.705-0.04c0,4.844-0.124,9.767,0.012,14.503c0.111,3.899-0.365,7.961,6.534,8.02c6.593,0.056,6.413-3.461,6.407-8.02
	c-0.006-4.838,0-9.677,0-14.516H71.764z M140.831,162.697l6.783,0.008l-8.073,26.746l-7.057,0.004l-6.497-19.719
	c-1.02,1.428-5.429,17.287-6.641,19.724l-7.208-0.011l-7.853-26.744l6.866-0.01c0.525,2.227,4.374,17.055,5.019,17.975l5.994-17.97
	l7.896,0.007l5.802,18.359L140.831,162.697z M191.468,162.745l-0.038,26.681l-6.617,0.039l-0.049-1.166v-25.604
	C186.586,162.692,189.801,162.613,191.468,162.745z M159.348,173.127l18.105,0.002l0.007,4.735l-18.357-0.004
	c0.059,1.683,0.833,3.377,1.636,4.524c0.83,1.187,1.997,2.024,4.157,2.04c4.18,0.031,8.376-0.009,12.557-0.004l-0.001,4.739
	c-3.24-0.025-6.485-0.002-9.725-0.006c-3.551-0.004-5.063,0.388-8.251-1.077c-10.147-4.664-9.453-19.836-0.188-23.942
	c3.963-1.757,13.208-1.18,18.165-1.129l0.009,4.739c-3.976-0.055-7.973,0.003-11.953-0.011
	C161.802,167.719,159.857,169.558,159.348,173.127z"/>
</svg>
