<?xml version="1.0" encoding="utf-8"?>
<!-- Generator: Adobe Illustrator 17.0.0, SVG Export Plug-In . SVG Version: 6.00 Build 0)  -->
<!DOCTYPE svg PUBLIC "-//W3C//DTD SVG 1.1//EN" "http://www.w3.org/Graphics/SVG/1.1/DTD/svg11.dtd">
<svg version="1.1" id="图层_1" xmlns="http://www.w3.org/2000/svg" xmlns:xlink="http://www.w3.org/1999/xlink" x="0px" y="0px"
	 width="35px" height="35px" viewBox="0 0 35 35" enable-background="new 0 0 35 35" xml:space="preserve">
<path fill="#263D3F" d="M34.876,19.843c-1.168,7.159-5.182,11.951-12.001,14.361c-1.101,0.389-2.285,0.542-3.43,0.805
	c-1.295,0-2.591,0-3.886,0c-0.128-0.042-0.253-0.104-0.384-0.122C7.63,33.81,1.748,28.193,0.353,20.724
	c-0.122-0.654-0.226-1.312-0.339-1.968c0-0.787,0-1.574,0-2.361c0.471,0.704,0.895,1.445,1.419,2.107
	c2.226,2.814,4.753,5.302,7.878,7.127c1.058,0.618,2.092,1.277,3.158,1.882c0.703,0.399,1.039,0.992,1.002,1.765
	c-0.051,1.084-0.135,2.169-0.269,3.245c-0.064,0.511,0.045,0.801,0.566,0.892c0.259,0.045,0.517,0.103,0.892,0.179
	c0-1.097-0.019-2.089,0.004-3.081c0.041-1.762-0.593-3.118-2.153-4.059c-1.484-0.895-2.937-1.852-4.336-2.873
	c-1.906-1.392-3.461-3.141-4.662-5.17c-0.247-0.417-0.158-1.034-0.223-1.559c0.481-0.045,0.999-0.228,1.438-0.112
	c3.749,0.991,7.392,2.171,9.634,5.732c0.362,0.576,0.932,1.022,1.421,1.514c0.172,0.173,0.387,0.304,0.639,0.497
	c0.539-0.918,0.376-1.849,0.34-2.754c-0.046-1.201-0.166-2.401-0.188-3.603c-0.024-1.289,0.341-2.441,1.254-3.426
	c0.864-0.931,1.589-1.991,2.453-2.923c1.852-2,3.728-3.979,5.651-5.91c0.543-0.545,1.256-0.946,1.943-1.316
	c0.851-0.458,1.251-0.284,1.589,0.637c0.19,0.517,0.33,1.066,0.394,1.611c0.566,4.786-0.506,9.281-2.752,13.456
	c-1.198,2.227-2.739,4.284-4.257,6.32c-1.604,2.15-2.442,4.575-3.049,7.136c1.219,0.125,1.541-0.115,1.69-1.22
	c0.047-0.344,0.096-0.687,0.138-1.032c0.166-1.365,0.672-2.567,1.547-3.65c1.045-1.295,2.022-2.648,2.996-3.999
	c2.169-3.009,4.177-6.116,5.461-9.627c0.528-1.444,1.001-2.908,1.553-4.519c0.306,0.729,0.623,1.32,0.802,1.949
	c0.373,1.306,0.673,2.633,1.003,3.951c0,1.296,0,2.593,0,3.889C34.951,19.582,34.898,19.71,34.876,19.843z M16.785,13.215
	c-0.816,0.985-1.335,2.088-1.518,3.366c-0.101,0.706-0.309,1.398-0.482,2.094c-0.15,0.6-0.548,0.701-1.061,0.464
	c-0.25-0.116-0.509-0.248-0.707-0.433c-2.083-1.946-4.723-2.759-7.338-3.607c-0.92-0.297-1.874-0.527-2.83-0.657
	c-0.786-0.108-1.598-0.022-2.491-0.022c0.084-0.397,0.161-0.861,0.281-1.314C2.485,6.119,8.313,1.057,15.517,0.173
	c0.294-0.036,0.583-0.112,0.875-0.169c0.786,0,1.573,0,2.359,0c0.747,0.132,1.496,0.251,2.24,0.397
	c1.897,0.373,3.681,1.047,5.399,2.056c-0.12,0.142-0.207,0.27-0.316,0.373C22.667,6.014,19.749,9.635,16.785,13.215z M11.362,13.867
	c0.65,0.352,1.585,0.177,2.163-0.415c0.363-0.371,0.626-0.85,0.327-1.304c-0.248-0.379-0.712-0.616-0.912-0.778
	c-0.982,0.037-1.534,0.333-1.942,0.886C10.528,12.891,10.668,13.489,11.362,13.867z M7.263,13.216
	c0.467,0.31,0.841,0.025,1.145-0.317c0.368-0.413,0.705-0.854,1.052-1.286c1.343-1.677,3.105-2.315,5.209-2.1
	c0.482,0.05,0.964,0.103,1.446,0.153c0.773,0.045,1.255-0.218,1.383-0.756c0.129-0.538-0.171-0.987-0.905-1.284
	c-0.318-0.128-0.656-0.232-0.994-0.283c-2.449-0.368-4.591,0.385-6.38,2.005c-0.837,0.757-1.465,1.758-2.122,2.694
	C6.844,12.402,6.8,12.91,7.263,13.216z M20.318,4.029c-0.435-0.368-0.91-0.768-1.436-0.933c-1.07-0.334-2.186-0.52-3.283-0.767
	c-2.111,0.165-4.077,0.642-5.889,1.649c-2.307,1.284-4.203,3.03-5.508,5.343c-0.317,0.562-0.489,1.259-0.521,1.905
	c-0.016,0.317,0.373,0.778,0.698,0.958c0.444,0.245,0.835-0.071,1.075-0.495c0.193-0.343,0.374-0.692,0.561-1.038
	c1.861-3.445,6.222-6.393,11.227-4.864c0.681,0.208,1.393,0.349,2.101,0.421c0.559,0.056,1.14-0.06,1.394-0.679
	C20.979,4.939,20.768,4.409,20.318,4.029z"/>
</svg>
