<?xml version="1.0" encoding="iso-8859-1"?>
<!-- Generator: Adobe Illustrator 17.0.0, SVG Export Plug-In . SVG Version: 6.00 Build 0)  -->
<!DOCTYPE svg PUBLIC "-//W3C//DTD SVG 1.1//EN" "http://www.w3.org/Graphics/SVG/1.1/DTD/svg11.dtd">
<svg version="1.1" id="Objects1" xmlns="http://www.w3.org/2000/svg" xmlns:xlink="http://www.w3.org/1999/xlink" x="0px" y="0px"
	 width="86.582px" height="58.797px" viewBox="0 0 86.582 58.797" style="enable-background:new 0 0 86.582 58.797;"
	 xml:space="preserve">
<g>
	<path style="fill:none;" d="M42.572,17.455c-1.003,0.07-1.768,1.142-1.71,2.42l0.167,3.824c0.015,0.303,0.071,0.591,0.168,0.853
		c0.555-0.052,1.124-0.088,1.685-0.136c0.046-0.004,0.095-0.007,0.143-0.012c0.547-0.044,1.087-0.094,1.641-0.132
		c0.052-0.232,0.072-0.482,0.063-0.737l-0.169-3.822c-0.057-1.261-0.887-2.244-1.873-2.254c-0.026,0-0.053-0.009-0.08-0.007
		C42.595,17.45,42.585,17.454,42.572,17.455z"/>
	<path style="fill:none;" d="M27.707,22.068c-0.056-1.293-0.933-2.304-1.952-2.259c-1.021,0.044-1.801,1.129-1.745,2.424
		l0.169,3.819c0.014,0.293,0.071,0.57,0.157,0.823c1.097-0.2,2.278-0.409,3.534-0.614c0.007-0.12,0.013-0.246,0.007-0.372
		L27.707,22.068z"/>
	<path style="fill:none;" d="M29.31,24.789c0.019,0.441,0.134,0.847,0.318,1.19c1.059-0.161,2.155-0.324,3.288-0.481
		c0.072-0.272,0.105-0.565,0.092-0.873l-0.167-3.818c-0.059-1.296-0.932-2.308-1.954-2.26c-1.019,0.043-1.804,1.128-1.746,2.425
		L29.31,24.789z"/>
	<path style="fill:none;" d="M35.036,20.134l0.169,3.821c0.02,0.444,0.137,0.856,0.322,1.204c1.058-0.132,2.138-0.256,3.242-0.372
		c0.098-0.303,0.149-0.641,0.133-0.994l-0.167-3.822c-0.057-1.295-0.934-2.309-1.953-2.261
		C35.758,17.753,34.98,18.837,35.036,20.134z"/>
	<path style="fill:none;" d="M46.766,19.34l0.21,4.713c0,0.026,0.003,0.053,0.004,0.076c1.28-0.068,2.575-0.121,3.879-0.154
		c0-0.035,0-0.061-0.001-0.093l-0.208-4.713c-0.06-1.333-0.977-2.375-2.051-2.328C47.529,16.89,46.705,18.01,46.766,19.34z"/>
	
		<rect x="65.576" y="3.681" transform="matrix(-0.0498 -0.9988 0.9988 -0.0498 64.737 71.5604)" style="fill:none;" width="1.667" height="2.609"/>
	<path style="fill:none;" d="M55.011,17.249c-1.021,0.048-1.804,1.129-1.748,2.423l0.17,3.82c0.007,0.152,0.026,0.301,0.055,0.438
		c1.2-0.005,2.4,0.009,3.601,0.037c0.037-0.205,0.053-0.42,0.044-0.639l-0.171-3.819C56.907,18.216,56.033,17.206,55.011,17.249z"/>
	<path style="fill:none;" d="M64.767,19.982l0.197,4.488c1.16,0.126,2.311,0.271,3.45,0.445l-0.227-5.082
		c-0.049-1.174-0.859-2.092-1.802-2.051C65.437,17.825,64.716,18.81,64.767,19.982z"/>
	<path style="fill:none;" d="M59.177,19.327l0.209,4.721c1.183,0.059,2.359,0.133,3.533,0.229l-0.226-5.107
		c-0.053-1.182-0.883-2.104-1.854-2.06C59.872,17.151,59.124,18.145,59.177,19.327z"/>
	<path style="fill:#0D99A1;" d="M43.024,24.404c-0.048,0.004-0.097,0.007-0.143,0.012c-0.56,0.048-1.13,0.083-1.685,0.136
		c-0.097-0.262-0.153-0.55-0.168-0.853l-0.167-3.824c-0.058-1.278,0.707-2.35,1.71-2.42c0.014-0.001,0.023-0.005,0.033-0.004
		c0.027-0.002,0.054,0.007,0.08,0.007L41.861,0.475c-0.013,0-0.026,0.001-0.038,0.002c-6.464,0.662-11.101,1.761-11.101,1.761
		l0.109,1.073l-0.414,0.4l-0.066,1.307l-1.469,0.298l-4.633,1.355l-1.81-1.838C-0.834,14.923,3.596,23.63,3.596,23.63l-0.357,3.775
		c-1.745,2.419-0.737,4.948-0.737,4.948l-0.391,3.742c-0.432,0.299-0.716,0.647-0.901,1.01c7.569-4.928,23.173-8.529,41.973-9.417
		L43.024,24.404z M24.336,26.876c-0.086-0.253-0.144-0.53-0.157-0.823l-0.169-3.819c-0.056-1.295,0.724-2.38,1.745-2.424
		c1.02-0.045,1.896,0.966,1.952,2.259l0.17,3.821c0.006,0.127,0,0.252-0.007,0.372C26.615,26.467,25.433,26.676,24.336,26.876z
		 M38.736,19.971l0.167,3.822c0.017,0.353-0.035,0.69-0.133,0.994c-1.105,0.116-2.185,0.24-3.242,0.372
		c-0.186-0.347-0.303-0.76-0.322-1.204l-0.169-3.821c-0.057-1.297,0.722-2.381,1.746-2.424
		C37.802,17.662,38.679,18.676,38.736,19.971z M37.373,7.394l0.115,2.605l-1.664,0.074l-0.116-2.605L37.373,7.394z M26.678,9.942
		l0.115,2.603L25.2,12.77l-0.115-2.604L26.678,9.942z M16.902,13.024l1.212-0.554l-0.192,2.618l-1.159,0.4L16.902,13.024z
		 M10.774,16.247l0.69-0.414l-0.078,2.345L10.744,18.4L10.774,16.247z M30.887,18.547c1.022-0.048,1.896,0.964,1.954,2.26
		l0.167,3.818c0.014,0.308-0.02,0.601-0.092,0.873c-1.133,0.156-2.229,0.319-3.288,0.481c-0.185-0.343-0.299-0.749-0.318-1.19
		l-0.169-3.817C29.083,19.674,29.868,18.59,30.887,18.547z M6.716,19.423l0.539-0.369L7.101,21.21l-0.564,0.409L6.716,19.423z
		 M19.066,26.528l0.105-3.816c0.034-1.292,0.896-2.285,1.915-2.218c1.024,0.065,1.824,1.169,1.79,2.46l-0.107,3.821
		c-0.001,0.142-0.02,0.272-0.039,0.405c-1.28,0.246-2.412,0.479-3.376,0.684C19.16,27.477,19.054,27.015,19.066,26.528z"/>
	<path style="fill:#0B8C92;" d="M41.861,0.475l0.824,16.983c0.986,0.01,1.816,0.994,1.873,2.254l0.169,3.822
		c0.01,0.255-0.011,0.505-0.063,0.737c-0.554,0.038-1.094,0.088-1.641,0.132l0.158,3.283c3.318-0.156,6.731-0.234,10.221-0.213
		c9.523,0.055,18.488,0.793,26.372,2.048c0.17-0.356,0.362-0.603,0.362-0.603l-1.381-0.552l-0.233-1.065l-2.559-0.654l-2.366-7.421
		l0.341-0.625l-0.283-0.834l0.434-1.399l-1.131-0.413l-0.257-1.598l-1.317-0.483c-0.399-2.053-3.551-9.053-3.551-9.053l-0.661-0.968
		l0.312-1.397C59.414-0.447,49.399-0.289,41.861,0.475z M72.951,20.704l0.228,5.104c-1.104-0.249-2.229-0.468-3.367-0.666
		l-0.19-4.29c-0.053-1.199,0.649-2.203,1.568-2.243C72.111,18.567,72.899,19.505,72.951,20.704z M68.187,19.833l0.227,5.082
		c-1.14-0.174-2.29-0.318-3.45-0.445l-0.197-4.488c-0.051-1.172,0.67-2.157,1.618-2.201C67.327,17.741,68.138,18.659,68.187,19.833z
		 M62.694,19.171l0.226,5.107c-1.174-0.096-2.351-0.17-3.533-0.229l-0.209-4.721c-0.053-1.182,0.695-2.176,1.663-2.217
		C61.811,17.067,62.641,17.989,62.694,19.171z M57.089,23.968c-1.201-0.028-2.401-0.042-3.601-0.037
		c-0.028-0.137-0.048-0.286-0.055-0.438l-0.17-3.82c-0.056-1.294,0.727-2.375,1.748-2.423c1.021-0.043,1.896,0.967,1.951,2.261
		l0.171,3.819C57.142,23.548,57.126,23.762,57.089,23.968z M50.65,19.169l0.208,4.713c0.001,0.032,0.001,0.058,0.001,0.093
		c-1.304,0.034-2.599,0.086-3.879,0.154c-0.001-0.022-0.004-0.05-0.004-0.076l-0.21-4.713c-0.061-1.331,0.763-2.451,1.833-2.499
		C49.673,16.794,50.59,17.836,50.65,19.169z M60.575,9.673l-1.665,0.074l-0.114-2.605l1.662-0.075L60.575,9.673z M48.947,9.266
		l-1.664,0.073l-0.115-2.605l1.662-0.072L48.947,9.266z"/>
	<path style="fill:#0D99A1;" d="M43.825,40.91c-17.892,0.719-33.371,3.048-43.694,6.351c0.104,0.225,0.236,0.382,0.236,0.382
		l0.113,2.549l0.382,8.604l43.867-1.343l-0.21-2.288L43.825,40.91z M43.241,46.457l0.243,5.5l-4.347,0.191l-0.246-5.501
		c-0.086-1.977,0.817-3.622,2.017-3.674C42.11,42.92,43.153,44.479,43.241,46.457z M34.257,43.386
		c1.198-0.054,2.242,1.505,2.331,3.479l0.237,5.386l-4.347,0.19l-0.239-5.385C32.154,45.083,33.058,43.439,34.257,43.386z
		 M29.947,47.557l0.219,4.978c0.002,0.006,0.001,0.009,0.001,0.009l-4.347,0.194c0,0,0-0.006,0-0.012l-0.219-4.978
		c-0.076-1.689,0.839-3.094,2.039-3.148C28.84,44.547,29.871,45.867,29.947,47.557z M19.71,47.678c0.07-1.76,1.098-3.13,2.298-3.061
		c1.199,0.068,2.118,1.55,2.047,3.312l-0.19,4.894l-4.361,0.192c0.001-0.045,0.001-0.09,0.005-0.138L19.71,47.678z"/>
	<path style="fill:#FFFFFF;" d="M50.864,36.617l-0.195-4.39c-0.066-1.488-1.091-2.648-2.289-2.595
		c-1.198,0.053-2.12,1.3-2.054,2.787l0.191,4.388c0.022,0.465,0.138,0.897,0.322,1.275c1.261-0.056,2.531-0.105,3.809-0.149
		C50.806,37.538,50.885,37.089,50.864,36.617z"/>
	<path style="fill:#785033;" d="M1.267,40.047l-0.816,5.98c-0.59,0.357-0.488,0.879-0.32,1.233
		c10.323-3.303,25.803-5.631,43.694-6.351l-0.13-2.681c-0.067,0.003-0.134,0.007-0.204,0.011c-0.98,0.048-1.958,0.096-2.92,0.152
		c-0.312-0.443-0.514-1.015-0.54-1.645l-0.194-4.386c-0.065-1.485,0.854-2.733,2.053-2.787c0.451-0.02,0.877,0.133,1.238,0.408
		c0.063,0.048,0.115,0.116,0.176,0.172l-0.121-2.467c-18.8,0.889-34.403,4.489-41.973,9.417C0.507,38.474,1.267,40.047,1.267,40.047
		z M35.602,29.852c1.199-0.054,2.227,1.109,2.294,2.595l0.191,4.387c0.029,0.65-0.131,1.254-0.416,1.733
		c-1.12,0.069-2.222,0.144-3.302,0.222c-0.362-0.464-0.596-1.075-0.627-1.763l-0.193-4.386
		C33.485,31.153,34.403,29.905,35.602,29.852z M31.811,33.061l0.191,4.389c0.026,0.561-0.095,1.09-0.31,1.53
		c-1.209,0.09-2.382,0.183-3.515,0.279c-0.304-0.442-0.494-1.001-0.524-1.618l-0.192-4.387c-0.065-1.487,0.854-2.734,2.054-2.788
		C30.715,30.413,31.743,31.574,31.811,33.061z M21.871,33.462c0.03-1.444,1.027-2.573,2.228-2.512
		c1.204,0.059,2.153,1.282,2.124,2.732l-0.087,4.276c-0.012,0.57-0.173,1.092-0.441,1.51c-1.114,0.095-2.186,0.191-3.202,0.284
		c-0.448-0.508-0.724-1.226-0.706-2.013L21.871,33.462z"/>
	<path style="fill:#69462C;" d="M43.182,27.687l0.121,2.467c0.498,0.473,0.843,1.184,0.88,2.015l0.194,4.386
		c0.028,0.618-0.115,1.19-0.376,1.657c-0.103,0.003-0.205,0.01-0.307,0.016l0.13,2.681c4.401-0.178,8.942-0.261,13.592-0.234
		c9.679,0.056,18.896,0.57,27.292,1.451c0.229-0.774-0.447-1.028-0.447-1.028l-0.312-1.524l-2.107-0.136
		c-1.068-1.794-2.336-8.035-2.336-8.035l0.027-0.845c-0.018-0.379,0.104-0.745,0.242-1.037c-7.884-1.254-16.849-1.993-26.372-2.048
		C49.913,27.454,46.5,27.531,43.182,27.687z M46.517,36.808l-0.191-4.388c-0.066-1.487,0.855-2.734,2.054-2.787
		c1.198-0.054,2.223,1.107,2.289,2.595l0.195,4.39c0.021,0.472-0.058,0.922-0.216,1.316c-1.277,0.044-2.548,0.093-3.809,0.149
		C46.655,37.705,46.539,37.273,46.517,36.808z M54.767,29.579c1.204-0.052,2.229,1.108,2.295,2.596l0.192,4.389
		c0.02,0.438-0.046,0.854-0.179,1.225c-1.307,0.014-2.615,0.04-3.92,0.073c-0.142-0.334-0.23-0.708-0.247-1.107l-0.194-4.388
		C52.65,30.88,53.571,29.633,54.767,29.579z M77.971,33.671l0.403,4.114c0.027,0.247,0.029,0.492,0.015,0.727
		c-0.906-0.092-1.822-0.173-2.758-0.246c-0.01-0.04-0.013-0.083-0.017-0.125l-0.405-4.113c-0.139-1.39,0.37-2.598,1.13-2.698
		C77.1,31.235,77.831,32.282,77.971,33.671z M74.098,32.661l0.432,4.367c0.04,0.405,0.017,0.796-0.058,1.151
		c-1.158-0.081-2.343-0.145-3.541-0.202c-0.035-0.151-0.061-0.311-0.077-0.475l-0.433-4.37c-0.148-1.479,0.559-2.781,1.574-2.913
		C73.01,30.09,73.951,31.182,74.098,32.661z M69.486,32.432l0.193,4.392c0.019,0.385-0.03,0.756-0.132,1.097
		c-1.312-0.05-2.644-0.09-3.988-0.117c-0.074-0.249-0.121-0.516-0.133-0.792l-0.193-4.392c-0.066-1.485,0.833-2.731,2.009-2.782
		C68.414,29.784,69.422,30.945,69.486,32.432z M63.549,32.235l0.194,4.388c0.017,0.407-0.038,0.801-0.151,1.151
		c-1.299-0.012-2.607-0.018-3.921-0.011c-0.104-0.294-0.166-0.614-0.181-0.954l-0.196-4.385c-0.064-1.487,0.835-2.738,2.009-2.787
		C62.479,29.584,63.482,30.75,63.549,32.235z"/>
	<path style="fill:#0B8C92;" d="M86.074,57.523c0.711-4.944,0.711-4.944-0.219-9.598c-0.93-4.657-1.175-5.694-1.175-5.694
		c0.016-0.038,0.018-0.068,0.028-0.104c-8.396-0.88-17.613-1.395-27.292-1.451c-4.649-0.027-9.19,0.056-13.592,0.234l0.904,16.543
		L86.074,57.523z M52.451,51.56l-0.203-4.571c-0.08-1.791,0.83-3.288,2.031-3.338c1.198-0.054,2.236,1.356,2.315,3.146l0.204,4.571
		L52.451,51.56z M71.243,50.728l-0.452-4.033c-0.213-1.878,0.376-3.509,1.309-3.65c0.936-0.141,1.861,1.267,2.073,3.146l0.492,4.386
		L71.243,50.728z M81.995,46.152l0.552,4.078l-2.784,0.123l-0.497-3.699c-0.248-1.834,0.164-3.436,0.918-3.574
		C80.94,42.943,81.748,44.318,81.995,46.152z M78.445,46.12l0.479,4.271l-2.774,0.121l-0.447-3.986c-0.201-1.84,0.243-3.424,1-3.54
		C77.457,42.876,78.238,44.276,78.445,46.12z M69.343,45.991l0.215,4.812l-4.344,0.193L65,46.181
		c-0.088-1.97,0.812-3.617,2.013-3.669C68.213,42.459,69.258,44.018,69.343,45.991z M63.159,46.495l0.201,4.584l-4.346,0.193
		l-0.201-4.587c-0.088-1.973,0.814-3.616,2.015-3.667C62.028,42.965,63.073,44.52,63.159,46.495z M45.393,46.933
		c-0.088-1.975,0.811-3.618,2.012-3.671c1.201-0.054,2.245,1.506,2.334,3.48l0.215,4.929l-4.343,0.192L45.393,46.933z"/>
</g>
</svg>
