<?xml version="1.0" encoding="utf-8"?>
<!-- Generator: Adobe Illustrator 17.0.0, SVG Export Plug-In . SVG Version: 6.00 Build 0)  -->
<!DOCTYPE svg PUBLIC "-//W3C//DTD SVG 1.1//EN" "http://www.w3.org/Graphics/SVG/1.1/DTD/svg11.dtd">
<svg version="1.1" id="图层_1" xmlns="http://www.w3.org/2000/svg" xmlns:xlink="http://www.w3.org/1999/xlink" x="0px" y="0px"
	 width="26px" height="35.38px" viewBox="0 0 26 35.38" enable-background="new 0 0 26 35.38" xml:space="preserve">
<path fill="#23ABF7" d="M13.432,9.862c-2.608,0-6.266,1.138-7.545,1.646V3.281c0-1.4-0.746-3.292-2.514-3.291
	c-2.71-0.038-3.354,1.891-3.354,3.291v17.276c-0.025,0.316-0.084,2.771,0,3.291c-0.125,6.315,6.453,11.517,12.575,11.517
	c6.709,0,13.413-4.509,13.413-13.163C26.007,15.536,20.141,9.862,13.432,9.862z M12.594,29.607c-3.864,0-6.649-3.426-6.649-7.266
	s3.132-6.952,6.996-6.952c3.865,0,7.198,2.974,7.198,6.813C20.139,27.151,16.458,29.607,12.594,29.607z"/>
</svg>
