<?xml version="1.0" encoding="utf-8"?>
<!-- Generator: Adobe Illustrator 17.0.0, SVG Export Plug-In . SVG Version: 6.00 Build 0)  -->
<!DOCTYPE svg PUBLIC "-//W3C//DTD SVG 1.1//EN" "http://www.w3.org/Graphics/SVG/1.1/DTD/svg11.dtd">
<svg version="1.1"
	 id="svg2" xmlns:svg="http://www.w3.org/2000/svg" inkscape:export-xdpi="521" inkscape:export-filename="C:\Dokumente und Einstellungen\jischa\Desktop\symbole verkehr v4 2.png" xmlns:inkscape="http://www.inkscape.org/namespaces/inkscape" xmlns:rdf="http://www.w3.org/1999/02/22-rdf-syntax-ns#" xmlns:cc="http://creativecommons.org/ns#" xmlns:dc="http://purl.org/dc/elements/1.1/" xmlns:sodipodi="http://sodipodi.sourceforge.net/DTD/sodipodi-0.dtd" inkscape:export-ydpi="521" sodipodi:docname="symbole verkehr v 5 1.svg" inkscape:version="0.48.0 r9654"
	 xmlns="http://www.w3.org/2000/svg" xmlns:xlink="http://www.w3.org/1999/xlink" x="0px" y="0px" width="67.46px"
	 height="66.205px" viewBox="0 0 67.46 66.205" enable-background="new 0 0 67.46 66.205" xml:space="preserve">
<path id="path14196" inkscape:connector-curvature="0" fill="#08A1EF" d="M13.643,66.133c-1.791-0.463-3.339-2.313-4.078-4.873
	c-0.296-1.025-0.614-2.906-0.614-3.634v-0.533H6.396H3.841L3.31,55.871c-0.88-2.024-0.824-3.294,0.208-4.716
	c0.393-0.542,0.458-0.58,0.983-0.58h0.564v-1.16v-1.159l-0.471-0.251l-0.469-0.251l-0.032-7.187l-0.032-7.188l0.69-4.698
	c0.38-2.584,0.69-4.721,0.69-4.749s-1.085-0.065-2.411-0.085l-2.411-0.034L0.41,22.122c-0.553-4.475-0.547-7.278,0.021-10.205
	c0.136-0.695,0.246-1.278,0.246-1.296c0-0.092,4.133-0.015,4.19,0.078c0.037,0.061,0.18,1.344,0.317,2.853
	c0.397,4.372,0.338,4.058,0.767,4.058c0.202,0,0.367-0.021,0.367-0.046s0.195-1.873,0.435-4.105L7.188,9.4l0.639-1.629
	c1.844-4.698,3.431-6.521,6.514-7.479L15.281,0l18.614,0.004l18.614,0.004l1.003,0.336c3.047,1.022,4.628,2.901,6.461,7.679
	c0.517,1.348,0.538,1.465,0.947,5.202c0.23,2.103,0.421,3.95,0.422,4.105c0,0.229,0.074,0.282,0.378,0.282
	c0.466,0,0.426,0.19,0.754-3.635c0.145-1.689,0.287-3.143,0.317-3.231c0.041-0.122,0.514-0.151,2.025-0.125l1.972,0.034l0.216,1.065
	c0.571,2.82,0.605,5.997,0.106,9.993c-0.136,1.088-0.247,2.02-0.248,2.072c0,0.052-1.043,0.094-2.317,0.094H62.23l0.063,0.345
	c0.034,0.189,0.343,2.277,0.686,4.64l0.624,4.295v7.3v7.3l-0.47,0.251l-0.47,0.25l-0.036,1.16l-0.037,1.159l0.601,0.003
	c0.574,0.003,0.617,0.028,1.001,0.596c0.613,0.906,0.79,1.437,0.788,2.374c0,0.71-0.089,1.067-0.537,2.166l-0.535,1.316
	l-2.597,0.034l-2.597,0.033v0.593c0,0.881-0.311,2.591-0.674,3.727c-1.089,3.395-3.57,5.119-6.031,4.191
	c-2.031-0.766-3.67-3.69-3.91-6.981l-0.076-1.034H33.899H19.775l-0.159,1.393c-0.395,3.452-1.633,5.862-3.499,6.808
	c-0.695,0.353-1.822,0.507-2.472,0.339h-0.002L13.643,66.133L13.643,66.133z M55.391,52.651c1.782-0.195,2.92-0.483,3.029-0.768
	c0.18-0.471-0.524-0.733-2.685-1.001C54.511,50.73,50.919,50.7,33.836,50.7c-13.233,0-20.835,0.046-21.564,0.13
	c-4.206,0.482-4.079,1.425,0.25,1.865c0.552,0.057,10.057,0.109,21.121,0.117C50.251,52.826,54.046,52.797,55.391,52.651
	L55.391,52.651z M20.795,47.082c1.3-0.623,1.967-1.62,2.049-3.063c0.103-1.822-1.074-3.36-2.838-3.707
	c-2.348-0.462-4.316,1.193-4.305,3.619C15.714,46.521,18.442,48.209,20.795,47.082z M49.647,46.922
	c1.573-0.478,2.645-2.384,2.292-4.081c-0.354-1.703-1.595-2.779-3.334-2.894c-0.763-0.05-0.994-0.013-1.566,0.251
	c-0.907,0.417-1.368,0.83-1.791,1.607c-0.722,1.327-0.544,2.935,0.451,4.064C46.704,47.012,48.113,47.388,49.647,46.922z
	 M12.188,46.325c1.874-0.956,2.033-3.597,0.29-4.808c-0.539-0.374-0.658-0.404-1.595-0.404c-0.892,0-1.073,0.04-1.528,0.342
	c-1.37,0.906-1.684,2.98-0.632,4.179C9.623,46.659,10.996,46.932,12.188,46.325L12.188,46.325z M58.318,45.902
	c1.107-0.733,1.569-2.16,1.098-3.395c-0.566-1.482-2.249-2.216-3.656-1.593c-1.048,0.463-1.612,1.203-1.765,2.313
	c-0.153,1.122,0.601,2.397,1.71,2.893C56.405,46.434,57.675,46.328,58.318,45.902L58.318,45.902z M31.888,21.495V11.467h-9.635
	h-9.635L12.29,12.2c-0.617,1.373-0.931,2.337-1.315,4.03c-0.532,2.347-0.689,3.415-1.333,9.049c-0.309,2.71-0.611,5.224-0.671,5.586
	l-0.109,0.657h11.514h11.513V21.495H31.888z M58.792,31.177c-0.184-0.959-0.372-2.455-0.771-6.11
	c-0.783-7.178-1.377-10.134-2.569-12.79l-0.363-0.811h-9.657h-9.657v10.028v10.027h11.542h11.542L58.792,31.177L58.792,31.177z
	 M45.865,8.456c2.395-0.198,4.082-0.767,4.998-1.682c0.565-0.566,0.673-1.065,0.36-1.672c-0.479-0.926-1.64-1.555-3.686-1.996
	C46.569,2.897,45.553,2.88,33.893,2.88c-13.337,0-13.389,0.003-15.094,0.592c-2.436,0.843-3.158,2.28-1.77,3.521
	c0.767,0.686,2.697,1.301,4.565,1.455c1.783,0.148,22.496,0.153,24.269,0.006v0.002H45.865z"/>
</svg>
