<?xml version="1.0" encoding="utf-8"?>
<!-- Generator: Adobe Illustrator 17.0.0, SVG Export Plug-In . SVG Version: 6.00 Build 0)  -->
<!DOCTYPE svg PUBLIC "-//W3C//DTD SVG 1.1//EN" "http://www.w3.org/Graphics/SVG/1.1/DTD/svg11.dtd">
<svg version="1.1" id="Layer_1" xmlns="http://www.w3.org/2000/svg" xmlns:xlink="http://www.w3.org/1999/xlink" x="0px" y="0px"
	 width="242.579px" height="85.256px" viewBox="0 0 242.579 85.256" enable-background="new 0 0 242.579 85.256"
	 xml:space="preserve">
<path fill="#1D2088" d="M77.681,3.72C82.99,1.319,88.875,0,95.063,0c6.155,0,12.073,1.319,17.383,3.72
	c2.672,1.217,5.208,2.705,7.575,4.396c-1.42,1.116-2.739,2.3-4.058,3.551c-1.251,1.285-2.401,2.604-3.517,3.957
	c-0.102,0.135-0.203,0.237-0.304,0.372c-3.382-2.131-6.763-3.517-10.686-4.396c-1.589-0.304-3.179-0.473-4.802-0.643l-1.589-0.034
	c-3.28,0.068-6.256,0.541-9.368,1.42c-2.908,0.981-5.445,2.198-8.015,3.821c-0.101,0.068-0.237,0.135-0.338,0.237
	c-3.416,2.333-6.189,5.14-8.556,8.522c-0.812,1.319-1.589,2.638-2.3,4.024c-1.556,3.416-2.503,6.696-2.942,10.484
	c-0.44,4.904,0.135,9.401,1.725,14.068c0.575,1.42,1.217,2.807,1.894,4.193c0.237,0.406,0.473,0.778,0.71,1.184
	c-0.676,0.947-1.319,1.894-2.029,2.841c-0.812,1.015-1.894,2.029-2.773,2.908c-0.913,0.845-1.894,1.657-2.942,2.401
	c-4.87-6.899-7.711-15.32-7.711-24.383C52.418,25.33,62.834,10.382,77.681,3.72z M77.681,66.859
	c4.802-6.899,7.575-15.252,7.575-24.214s-2.773-17.281-7.508-24.146c-0.034,0.034-0.034,0.034-0.068,0.068
	c-1.015,0.71-1.995,1.488-2.875,2.333c-0.913,0.913-1.961,1.928-2.773,2.942c-0.744,0.913-1.387,1.894-2.063,2.841
	c1.184,2.097,2.131,4.261,2.942,6.595c0.575,2.029,1.015,4.024,1.251,6.155c0.203,2.164,0.203,4.227,0,6.425
	c-0.169,1.556-0.473,3.111-0.812,4.667c-0.879,3.01-2.063,5.749-3.619,8.488c-0.812,1.285-1.657,2.536-2.638,3.72
	c-1.319,1.556-2.773,3.01-4.329,4.329c-2.029,1.623-4.126,2.942-6.425,4.126c-1.894,0.879-3.821,1.589-5.851,2.164
	c-2.57,0.575-5.174,0.947-7.88,0.981c-2.672-0.034-5.242-0.406-7.846-0.981c-3.044-0.879-5.783-2.063-8.522-3.619
	c-2.198-1.387-4.126-2.875-5.986-4.701c-2.198-2.266-3.957-4.633-5.512-7.339c-0.676-1.387-1.319-2.773-1.894-4.193
	c-1.589-4.667-2.164-9.165-1.725-14.068c0.44-3.788,1.387-7.068,2.942-10.484c0.71-1.387,1.488-2.705,2.3-4.024
	c2.367-3.382,5.14-6.189,8.556-8.522c2.672-1.759,5.309-3.01,8.353-4.058c3.111-0.879,6.087-1.353,9.334-1.42l1.623,0.034
	c1.623,0.169,3.213,0.338,4.768,0.643c4.058,0.913,7.541,2.367,11.025,4.599c1.251-1.589,2.604-3.077,3.957-4.532
	c1.251-1.184,2.536-2.333,3.855-3.382C60.738,3.077,52.046,0,42.611,0C19.141,0,0,19.141,0,42.645
	c0,23.47,19.141,42.611,42.611,42.611C57.119,85.256,69.97,77.951,77.681,66.859z M112.446,18.431
	c-4.768,6.899-7.575,15.218-7.575,24.214c0,8.962,2.807,17.315,7.575,24.18c0.034,0.068,0.068,0.101,0.101,0.169
	c0.981-0.744,1.962-1.522,2.807-2.333c0.88-0.913,1.961-1.928,2.773-2.942c0.744-0.947,1.42-1.961,2.131-2.976
	c-0.203-0.338-0.44-0.676-0.643-1.048c-0.676-1.387-1.319-2.773-1.893-4.193c-1.556-4.667-2.164-9.165-1.725-14.068
	c0.44-3.788,1.386-7.068,2.942-10.484c0.71-1.387,1.488-2.705,2.3-4.024c2.367-3.382,5.14-6.189,8.522-8.522
	c0.102-0.068,0.204-0.135,0.304-0.203c2.571-1.623,5.107-2.841,8.049-3.855c3.111-0.879,6.087-1.353,9.367-1.42l1.59,0.034
	c1.623,0.169,3.213,0.338,4.802,0.643c4.024,0.913,7.508,2.367,11.025,4.599c0.034-0.034,0.068-0.068,0.102-0.101
	c1.251-1.522,2.503-2.976,3.889-4.396c1.251-1.217,2.503-2.333,3.822-3.382c-2.402-1.759-4.971-3.28-7.711-4.532
	C159.656,1.353,153.704,0,147.482,0c-6.223,0-12.106,1.319-17.416,3.72C122.963,6.933,116.842,12.073,112.446,18.431z
	 M130.065,66.893c4.768-6.899,7.609-15.252,7.609-24.248s-2.84-17.315-7.609-24.214c-0.034-0.034-0.068-0.101-0.101-0.135
	c-1.15,0.778-2.266,1.657-3.213,2.604c-0.879,0.913-1.962,1.928-2.773,2.942c-0.643,0.812-1.217,1.657-1.826,2.503
	c1.319,2.198,2.333,4.464,3.179,6.933c0.575,2.029,1.015,4.024,1.251,6.155c0.203,2.164,0.203,4.227,0,6.425
	c-0.169,1.556-0.473,3.111-0.812,4.667c-0.879,3.01-2.062,5.749-3.618,8.488c-0.812,1.285-1.657,2.536-2.638,3.72
	c-1.319,1.556-2.773,3.01-4.329,4.329c-0.913,0.744-1.827,1.387-2.739,1.995c-1.184,0.778-2.401,1.488-3.686,2.131
	c-1.894,0.879-3.821,1.589-5.851,2.164c-2.57,0.575-5.174,0.947-7.846,0.981c-2.705-0.034-5.276-0.406-7.88-0.981
	c-3.044-0.879-5.783-2.063-8.522-3.619c-0.271-0.135-0.507-0.304-0.744-0.473c-0.068,0.101-0.169,0.203-0.237,0.271
	c-1.217,1.488-2.469,2.942-3.821,4.329c-1.217,1.184-2.469,2.266-3.754,3.314c2.367,1.725,4.904,3.179,7.575,4.396
	c5.309,2.367,11.194,3.686,17.383,3.686c6.189,0,12.073-1.319,17.383-3.72C119.581,78.357,125.669,73.251,130.065,66.893z
	 M199.934,0c-9.874,0-19.005,3.382-26.243,9.063c-3.315,2.604-6.256,5.715-8.691,9.165c-4.87,6.933-7.711,15.354-7.711,24.417
	s2.84,17.484,7.711,24.417c1.047-0.744,2.062-1.556,2.942-2.401c0.913-0.913,1.961-1.928,2.773-2.942
	c0.744-0.913,1.386-1.86,2.062-2.807c-0.237-0.406-0.507-0.812-0.744-1.217c-0.676-1.387-1.318-2.773-1.893-4.193
	c-1.556-4.667-2.164-9.165-1.725-14.068c0.44-3.788,1.386-7.068,2.942-10.484c0.71-1.387,1.488-2.705,2.3-4.024
	c0.034,0,0.034,0,0.034-0.034c2.367-3.382,5.14-6.155,8.522-8.488c2.672-1.759,5.31-3.01,8.354-4.058
	c3.111-0.879,6.087-1.353,9.367-1.42l1.59,0.034c1.623,0.169,3.213,0.338,4.802,0.643c4.16,0.947,7.711,2.435,11.296,4.768
	c3.449,2.401,6.154,5.107,8.557,8.556c1.725,2.672,3.009,5.343,4.023,8.353c0.575,2.029,1.015,4.024,1.251,6.155
	c0.204,2.164,0.204,4.227,0,6.425c-0.169,1.556-0.473,3.111-0.811,4.667c-0.88,3.01-2.063,5.749-3.619,8.488
	c-0.812,1.285-1.657,2.536-2.637,3.72c-1.319,1.556-2.773,3.01-4.329,4.329c-2.029,1.623-4.125,2.942-6.425,4.126
	c-1.893,0.879-3.822,1.589-5.817,2.164c-2.604,0.575-5.208,0.947-7.879,0.981c-2.705-0.034-5.276-0.406-7.879-0.981
	c-3.044-0.879-5.783-2.063-8.523-3.619c-0.237-0.135-0.507-0.304-0.744-0.473c-1.251,1.623-2.604,3.145-4.024,4.633
	c-1.217,1.184-2.469,2.266-3.754,3.314c7,5.073,15.625,8.049,24.924,8.049c23.47,0,42.645-19.141,42.645-42.611
	C242.579,19.141,223.404,0,199.934,0z M190.127,42.645c0-8.928-2.807-17.247-7.542-24.112c-1.015,0.744-1.995,1.556-2.908,2.401
	c-0.88,0.879-1.962,1.894-2.773,2.908c-0.71,0.947-1.387,1.928-2.063,2.908c1.149,2.063,2.13,4.193,2.908,6.527
	c0.575,2.029,1.015,4.024,1.251,6.155c0.203,2.164,0.203,4.227,0,6.425c-0.169,1.556-0.473,3.111-0.811,4.667
	c-0.88,3.01-2.063,5.749-3.619,8.488c-0.271,0.44-0.575,0.913-0.879,1.353c-0.541,0.812-1.116,1.589-1.759,2.367
	c-1.319,1.556-2.773,3.01-4.329,4.329c-0.845,0.71-1.725,1.319-2.604,1.894c-1.217,0.812-2.503,1.556-3.822,2.232
	c-1.893,0.879-3.822,1.589-5.817,2.164c-2.604,0.575-5.208,0.947-7.879,0.981c-2.705-0.034-5.276-0.406-7.879-0.981
	c-3.044-0.879-5.783-2.063-8.523-3.619c-0.271-0.169-0.575-0.338-0.846-0.541c-0.067,0.068-0.101,0.169-0.169,0.237
	c-1.251,1.522-2.571,3.044-3.923,4.464c-1.184,1.15-2.401,2.232-3.652,3.247c2.367,1.725,4.87,3.179,7.575,4.396
	c5.31,2.401,11.194,3.72,17.416,3.72c6.223,0,12.175-1.353,17.518-3.754c3.111-1.42,6.019-3.213,8.691-5.309
	C183.668,68.381,190.127,56.24,190.127,42.645z"/>
</svg>
