<?xml version="1.0" encoding="utf-8"?>
<!-- Generator: Adobe Illustrator 17.0.0, SVG Export Plug-In . SVG Version: 6.00 Build 0)  -->
<!DOCTYPE svg PUBLIC "-//W3C//DTD SVG 1.1//EN" "http://www.w3.org/Graphics/SVG/1.1/DTD/svg11.dtd">
<svg version="1.1" id="_x37C_" xmlns="http://www.w3.org/2000/svg" xmlns:xlink="http://www.w3.org/1999/xlink" x="0px" y="0px"
	 width="221.102px" height="228.085px" viewBox="0 0 221.102 228.085" enable-background="new 0 0 221.102 228.085"
	 xml:space="preserve">
<path fill="#FF3333" d="M161.086,203.377c1.847,2.566,2.281,5.768,1.19,8.777c-0.927,2.563-2.861,4.561-4.908,5.088
	c-1.689,0.49-3.029,0.5-4.018,0.344c-0.03,1.102-0.4,2.596-1.431,4.205c-2.038,3.137-6.712,5.439-11.607,5.725
	c-4.577,0.416-9.227-0.625-12.438-2.779c-1.051-0.707-1.702-1.475-2.136-2.15c-0.964,1.563-2.808,3.545-6.31,4.715
	c-3.698,1.238-8.211,1.002-12.396-0.654c-2.53-1.066-5.844-2.965-8.063-6.09c-0.845,1.441-2.923,2.684-5.168,2.492
	c-4.957,0.111-12.16-3.551-15.199-9.668c0.005,0.008,0.012,0.014,0.017,0.021l-0.05-0.084c0.01,0.021,0.023,0.041,0.033,0.063
	c-2.617-3.803-7.072-4.926-13.252-3.334l-3.484,0.914l-1.756,0.467c0.025-0.012,0.05-0.018,0.076-0.029l-0.12,0.041l0.044-0.012
	c-0.596,0.268-1.16,0.463-1.686,0.578c-3.16,0.883-6.482,0.773-9.363-0.314c-1.014-0.404-1.86-0.895-2.563-1.42v-0.869
	c0.721,0.609,1.643,1.186,2.816,1.654c2.417,0.91,5.593,1.223,8.925,0.291c0.585-0.131,1.135-0.33,1.663-0.572
	c1.191-0.297,3-0.828,5.283-1.395c4.057-1.043,10.317-1.744,13.997,3.635c2.993,6.101,10.053,9.451,14.604,9.35
	c2.435,0.205,4.653-1.436,4.89-2.881c0.045-0.174,0.079-0.336,0.104-0.488c1.964,3.533,5.456,5.73,8.518,7.021
	c4.268,1.684,8.608,1.74,11.914,0.635c3.967-1.324,5.77-3.736,6.531-5.547c0.311,0.896,1.035,2.07,2.512,3.063
	c2.722,1.826,7.147,3.104,11.996,2.666c4.836-0.283,9.235-2.553,11.094-5.418c1.403-2.191,1.435-3.982,1.261-4.701
	c0.951,0.303,2.499,0.473,4.57-0.131c3.812-0.982,7.102-7.596,3.352-12.809c-1.884-2.531-4.905-3.566-7.684-3.004
	c-0.647,0.168-1.204,0.436-1.687,0.773c1.025-6.158-2.698-11.965-7.229-14.336c-4.689-2.57-9.731-2.764-13.525-1.596
	c-2.954,0.99-4.886,2.486-6.136,3.963c0.089-1.232-0.695-3.758-4.115-4.439c-2.176-0.371-4.206,1.178-4.488,2.608
	c-0.015,0.09-0.02,0.174-0.027,0.264c-0.815-0.553-1.906-1.094-3.331-1.457c-4.084-1.041-10.029,0.453-14.801,4.303
	c-4.84,3.758-7.679,9.145-7.694,13.355c0,0.281,0.011,0.553,0.03,0.816c-1.071-0.859-2.781-1.939-5.184-2.881
	c-4.52-1.838-12.052-2.551-18.997,1.162c-3.695,2.029-5.414,4.924-8.206,5.533c-2.71,0.895-5.416,0.842-7.509,0.303
	c-1.525-0.408-2.634-1.064-3.449-1.729v-0.912c0.783,0.742,1.918,1.523,3.62,1.977c2.23,0.576,4.827,0.469,7.191-0.307
	c1.385-0.303,2.545-1.297,3.89-2.449c1.139-0.975,2.433-2.082,4.14-3.022c7.176-3.834,15.031-3.037,19.57-1.193
	c1.861,0.73,3.247,1.514,4.263,2.191c0.232-4.523,3.34-9.836,7.905-13.379c4.708-3.799,10.895-5.58,15.399-4.43
	c1.027,0.262,1.938,0.66,2.777,1.129c0.7-1.578,2.766-2.941,5.032-2.553c2.676,0.533,3.992,2.16,4.463,3.652
	c1.455-1.358,3.268-2.428,5.44-3.156l0.015-0.002c4.43-1.365,9.684-0.75,14.043,1.643c4.094,2.143,7.772,7.064,7.772,12.824
	c0,0.307-0.058,0.629-0.078,0.941c0.249-0.098,0.498-0.199,0.767-0.268C155.893,199.455,159.101,200.709,161.086,203.377z
	 M90.001,206.256c-1.175-0.5-3.183-1.449-5.964-2.193c-4.314-1.225-10.992-1.475-17.015,1.748c-0.821,0.404-1.615,0.994-2.42,1.643
	c0.004,0,0.007-0.002,0.012-0.004c2.117-0.719,4.777-1.531,7.991-1.308c3.252,0.154,6.71,2.246,8.814,5.109
	c3.12,6.133,8.481,8.414,12.459,9.1c3.227,0.502,3.974-1.557,4.348-2.496c-0.358-0.842-0.642-1.74-0.811-2.719
	c-1.023-6.037,4.534-11.055,9.456-10.781c5.692-0.242,8.418,6.158,6.405,9.533c-2.15,3.908-6.753,2.822-7.746,1.01
	c-1.061-1.783-0.776-2.904-0.646-2.912c0.225-0.076,0.431,1.037,1.512,2.215c0.753,1.051,4.215,1.27,5.047-1.15
	c1.069-2.354-0.872-6.455-4.502-6.07c-3.681-0.008-7.401,3.523-6.701,7.773c0.635,4.17,4.532,7.258,8.075,8.842
	c3.66,1.59,7.439,1.844,10.341,1.119c6.154-1.441,7.043-6.297,7.503-5.939c0.1-0.113,0.152,0.373-0.031,1.164
	c0.475,0.508,1.277,1.658,3.153,2.496c2.492,1.1,6.441,1.957,10.737,1.559c4.323-0.273,7.931-1.885,9.75-3.828
	c1.482-1.576,1.967-3.137,2.365-3.629c-0.443-0.203-0.66-0.41-0.623-0.477c0.039-0.512,2.274-0.047,4.849-1.316
	c2.551-1.066,4.357-5.871,1.882-9.269c-1.075-1.613-3.324-2.35-4.814-2.141c-1.507,0.236-2.431,1.73-2.571,3.018
	c-0.319,2.826,2.215,3.424,2.012,3.826c0.405,0.361-3.3,0.67-3.961-3.453c-2.856,3.519-7.749,5.018-11.594,4.256
	c-5.429-0.824-9.665-5.748-8.509-10.35c1.439-4.441,6.049-5.283,8.073-3.934c2.005,1.57,1.55,3.15,1.505,3.064
	c-0.268,0.135-0.458-1.287-2.023-2.08c-1.466-0.769-4.947,0.399-5.597,3.428c-0.652,2.867,2.686,6.875,6.943,7.275
	c4.252,0.662,9.663-1.889,10.568-6.846c1.029-5.027-1.777-9.807-5.67-12.061c-3.924-2.305-8.322-2.707-11.668-1.92
	c-7.023,1.721-8.316,7.281-8.849,6.773c-0.105,0.221,0.012-1.793,1.639-4.061c-0.818-0.074-1.899-2.16-3.957-2.307
	c-1.438-0.322-2.178,0.578-2.768,1.232c0.495,0.574,0.658,1.012,0.559,1.059c-0.142,0.174-0.586-0.086-1.346-0.453
	c-0.006,0-0.009,0.002-0.014,0.002c-0.094,0.01-0.189-0.043-0.276-0.143c-0.922-0.428-2.23-0.943-3.956-1.119
	c-3.445-0.396-8.406,1.107-12.694,4.549c-4.333,3.379-6.972,7.844-7.452,11.273c-0.51,3.473,0.833,5.588,0.388,5.813
	C92.079,210.367,90.541,209.109,90.001,206.256z M134.889,110.943c0.245-0.047,0.382,0.043,0.475,0.24
	c0.287,0.09,0.56,0.209,0.776,0.428c0.221,0.002,0.388,0.137,0.568,0.234c0.839,0.336,1.732,0.469,2.6,0.699
	c0.72,0.002,1.437,0.006,2.155,0.008c0.001,0,0.002,0,0.002,0c0.264-0.156,0.552-0.17,0.846-0.143
	c0.903-0.219,1.816-0.404,2.667-0.799c-0.689-1.82-1.379-3.639-2.064-5.459c-0.101-0.27-0.171-0.549-0.261-0.822
	c-0.078-0.232-0.089-0.453,0.155-0.582c0.208-0.111,0.364,0.043,0.501,0.174c0.622,0.598,1.232,1.209,1.861,1.801
	c0.418,0.395,0.858,0.764,1.29,1.145c0.001,0,0.001,0.002,0.002,0.002c-0.001-0.002-0.002-0.002-0.003-0.004
	c0.271-1.328-0.115-2.574-0.502-3.816c-0.112-0.361-0.26-0.713-0.392-1.068c-0.188-0.332-0.378-0.662-0.567-0.994
	c-0.229-0.238-0.412-0.506-0.53-0.814c-0.04-0.059-0.079-0.117-0.118-0.176c-0.152-0.082-0.245-0.215-0.314-0.369
	c-0.114-0.07-0.204-0.16-0.119-0.295c0.034-0.053,0.112-0.01,0.138,0.064c0.264,0.129,0.442,0.342,0.581,0.592
	c0.23,0.23,0.441,0.475,0.568,0.779c0.227,0.303,0.46,0.598,0.567,0.969c0.967,1.697,1.367,3.514,1.163,5.461
	c0.871,0.904,1.902,1.613,2.921,2.33c2.789,1.969,5.733,3.629,9.09,4.436c1.186,0.283,2.379,0.496,3.607,0.332
	c1.223-1.492,2.709-2.65,4.421-3.527c0.585-0.451,1.256-0.727,1.949-0.957c0.161-0.18,0.385-0.199,0.601-0.238l0,0
	c0.1-0.121,0.238-0.137,0.381-0.143h0.001c0.085-0.098,0.189-0.164,0.318-0.16c0.052,0.002,0.146,0.045,0.145,0.066
	c-0.008,0.121-0.107,0.127-0.202,0.127c-0.15,0.217-0.4,0.266-0.623,0.359c-0.134,0.059-0.268,0.117-0.4,0.178
	c-0.641,0.328-1.281,0.658-1.92,0.988c-1.164,0.77-2.323,1.547-3.332,2.521c-0.249,0.238-0.536,0.447-0.7,0.766
	c0.65,0.107,1.261-0.176,1.898-0.197c0.158-0.152,0.356-0.191,0.566-0.201c0.225-0.211,0.523-0.252,0.801-0.34
	c0.05-0.037,0.105-0.057,0.166-0.061c0.022-0.02,0.04-0.047,0.065-0.061c0.151-0.09,0.351-0.213,0.439,0.002
	c0.055,0.135-0.164,0.213-0.307,0.258c-0.113,0.039-0.225,0.076-0.338,0.115c-0.177,0.154-0.39,0.225-0.617,0.268
	c-0.191,0.068-0.384,0.137-0.576,0.207c-0.552,0.283-1.073,0.625-1.667,0.822c-0.48,0.313-0.958,0.629-1.438,0.943
	c0.038,1.113,0.561,1.98,1.366,2.707c0.193,0.127,0.387,0.252,0.579,0.379c0.151,0.057,0.369,0.176,0.281,0.301
	c-0.138,0.193-0.338,0.041-0.482-0.096c-0.216-0.1-0.445-0.18-0.592-0.387c-0.978-0.623-1.461-1.535-1.568-2.668H161.7l-0.062-0.025
	c-2.322,1.395-4.395,3.123-6.483,4.832c-0.954,0.781-2.039,1.039-3.252,0.777c-0.858-0.186-1.525-0.635-2.054-1.33
	c-1.054-1.391-1.909-2.898-2.605-4.492c-0.72-1.648-1.393-3.314-2.086-4.975c-1.012,0.387-2.028,0.756-3.135,0.74
	c-0.959,0.266-1.917,0.26-2.875,0c-0.165-0.014-0.329-0.027-0.492-0.043c-0.776-0.082-1.501-0.309-2.155-0.742
	c-0.218-0.008-0.374-0.143-0.539-0.26c-0.194-0.117-0.389-0.234-0.582-0.352C135.166,111.338,135.01,111.209,134.889,110.943z
	 M158.936,52.883c0.127,0.234,0.254,0.471,0.441,0.818c-0.379-0.041-0.55-0.16-0.662-0.389c-0.107-0.02-0.175-0.08-0.202-0.186
	c-0.106-0.025-0.17-0.092-0.19-0.199c-0.101-0.025-0.163-0.086-0.178-0.193c-1.107-1.146-2.025-2.43-2.719-3.869
	c-0.425-0.531-0.671-1.16-0.98-1.756c-0.579-1.121-1.294-2.145-2.194-3.029c-2.683-2.643-6.213-3.178-9.562-1.451
	c-0.343,0.176-0.673,0.375-1.016,0.549c-0.191,0.098-0.376,0.064-0.508-0.121c-0.107-0.148-0.083-0.311,0.006-0.449
	c0.085-0.135,0.196-0.252,0.309-0.363c1.742-1.723,3.604-3.293,5.759-4.484c1.2-0.664,2.474-1.066,3.864-0.986
	c2.319,0.135,3.964,1.334,5.122,3.281c0.786,1.32,1.126,2.781,1.355,4.283c0.224,1.465,0.104,2.953,0.358,4.412
	c0.093,0.537,0.152,1.08,0.226,1.619c0.025,0.055,0.045,0.107,0.057,0.156c0.238,0.621,0.382,1.271,0.543,1.916
	c0.098,0.064,0.143,0.156,0.127,0.275C158.936,52.766,158.949,52.82,158.936,52.883z M156.761,72.439
	c-1.181-0.322-2.348-0.313-3.493,0.156c-2.007,0.82-3.495,2.223-4.57,4.088c-0.041,0.045-0.067,0.086-0.08,0.125
	c-1.097,1.652-1.748,3.459-1.847,5.455c-0.105,0.643-0.111,1.285,0,1.926c0.004,0.066,0.006,0.131,0.009,0.197
	c-0.035,0.289-0.028,0.57,0.153,0.818c0.297,1.59,0.969,2.922,2.509,3.66c0.532,0.404,1.156,0.506,1.797,0.535
	c1.435,0.066,2.683-0.461,3.842-1.25c1.098-0.748,1.938-1.75,2.732-2.797c0.201-0.148,0.386-0.313,0.443-0.572
	c0.169-0.195,0.171-0.463,0.292-0.678c0.769-1.895,1.089-3.881,1.069-5.904c-0.016-1.674-0.296-3.316-1.277-4.75
	c-0.04-0.107-0.111-0.193-0.205-0.258l0.007,0.035C157.753,72.836,157.338,72.496,156.761,72.439z M154.137,78.785
	c-1.447,0.793-2.789,0.01-2.805-1.631c-0.014-1.543,0.699-2.732,2.008-3.512c1.498-0.891,2.896-0.055,2.898,1.967
	C156.144,76.852,155.481,78.047,154.137,78.785z M180.73,80.621c0.007-0.014,0.013-0.029,0.021-0.043
	c-0.027,0.008-0.054,0.012-0.082,0.021c-0.226-0.025-0.437,0.008-0.658,0.07c-1.639,0.463-3.049,1.328-4.305,2.453
	c-2.03,1.816-3.567,4.018-4.893,6.377c-0.905,1.611-0.806,3.039-0.479,4.852c0.723,4.006,4.964,3.5,7.47,1.689
	c2.549-1.842,4.319-4.938,5.248-7.898c0.4-1.271,0.531-2.582,0.394-3.9C183.265,82.502,182.511,81.16,180.73,80.621z
	 M178.062,87.738c-0.633,0.381-1.314,0.51-2.006,0.143c-0.617-0.328-0.924-0.986-0.909-2.15c0.13-1.232,0.785-2.428,2.137-3.146
	c1.466-0.777,2.863,0.088,2.796,1.752C180.021,85.805,179.337,86.969,178.062,87.738z M220.941,63.135
	c-0.068-0.527-0.091-1.065-0.362-1.543l0,0c-0.98-3.279-2.927-5.762-6.09-7.164c-4.514-2-9.219-2.358-14.046-1.492
	c-0.386,0.029-0.637-0.082-0.739-0.516c-0.137-0.574-0.289-1.152-0.595-1.672c-0.009-0.115-0.017-0.232-0.025-0.348
	c0.049-0.801-0.015-1.594-0.104-2.389c-0.16-1.4-0.461-2.773-0.674-4.162c0-0.002,0-0.002-0.001-0.002c0.001,0,0.001,0,0.001,0
	c0.024-0.416,0.074-0.834-0.146-1.221c-0.028-0.391,0.028-0.797-0.209-1.15c-0.02-0.223-0.02-0.449-0.065-0.666
	c-0.896-4.098-2.398-7.953-4.636-11.508c0,0,0,0-0.001,0c0,0,0.001,0,0.001-0.002c0.224-0.229,0.438-0.467,0.672-0.685
	c1.224-1.139,2.424-2.305,3.499-3.59c2.111-2.523,3.899-5.268,5.536-8.115c0.607-1.057,0.577-1.383-0.443-2.063
	c-2.208-1.475-3.958-3.367-5.335-5.621c-0.116-0.191-0.262-0.363-0.394-0.545c-0.006-0.16-0.077-0.283-0.216-0.365l-0.005-0.008
	c-0.006-0.113-0.063-0.189-0.162-0.238c0-0.055-0.021-0.098-0.062-0.131c-0.046-0.127-0.152-0.223-0.256-0.131
	c-0.142,0.123-0.104,0.32-0.071,0.494c-0.059,0.41-0.135,0.82-0.175,1.232c-0.451,4.805-2.195,9.111-4.981,13.018
	c-0.405,0.57-0.773,1.182-1.355,1.605c-0.001,0-0.001,0.002-0.001,0.002c0-0.002,0-0.002,0-0.002
	c-0.235-0.264-0.464-0.533-0.709-0.789c-3.748-3.914-8.083-7.055-12.784-9.713c-1.035-0.586-2.066-1.182-3.189-1.594
	c-0.153-0.129-0.228-0.309-0.279-0.494c-0.824-3.008-1.352-6.057-1.276-9.189c0.007-0.793,0.013-1.586,0.019-2.379
	c-0.063,0-0.128,0-0.193,0c-0.064,0-0.128,0-0.192,0c0.057,0.238-0.128,0.385-0.224,0.565c-0.096,0.037-0.15,0.103-0.158,0.207
	l-0.003,0.004c-0.101,0.035-0.162,0.1-0.167,0.209c-0.076,0.121-0.152,0.242-0.228,0.363c-1.173,1.068-2.51,1.723-4.132,1.803
	c-1.619,0.08-3.192-0.135-4.75-0.537c-1.243-0.32-2.438-0.779-3.632-1.25c-0.895-0.352-1.352,0.039-1.225,1.004
	c0.035,0.254,0.096,0.504,0.156,0.752c0.463,1.904,1.156,3.73,1.842,5.559c-0.094,0.18-0.283,0.186-0.445,0.244
	c0.001,0,0.002,0,0.002,0s-0.001,0-0.002,0c-0.288-0.031-0.578-0.047-0.863-0.094c-3.113-0.529-6.255-0.766-9.405-0.85
	c-4.35-0.119-8.674,0.205-12.975,0.867c-7.944,1.223-15.505,3.629-22.643,7.33c-9.325,4.836-17.227,11.43-23.935,19.482
	c-3.695,4.438-7.06,9.096-9.442,14.395c-0.156,0.348-0.4,0.551-0.711,0.742c-3.841,2.365-6.642,5.637-8.436,9.771
	c-1.112,2.568-1.652,5.256-1.817,8.043c-0.203,3.432,0.575,6.582,2.601,9.371c2.313,3.184,6.052,4.527,9.883,3.59
	c0.382-0.094,0.587-0.01,0.822,0.266c0.438,0.512,0.898,1.01,1.376,1.486c1.524,1.523,3.088,3.002,4.933,4.146
	c0.437,0.471,1.063,0.676,1.537,1.094c-0.472,0.092-0.948,0.162-1.414,0.277c-1.783,0.445-3.391,1.178-4.435,2.799
	c-2.791-0.197-5.577-0.234-8.345,0.275c-2.307,0.424-4.552,1.039-6.675,2.059h-0.001c-1.734,0.695-3.324,1.66-4.844,2.732
	c-2.129,1.498-3.836,3.395-5.051,5.709c-1.495,2.848-2.056,5.84-1.333,9.02c0.057,0.244,0.153,0.494-0.001,0.74
	c-0.216,0.135-0.44,0.258-0.647,0.404c-7.472,5.346-14.942,10.689-22.411,16.039c-2.166,1.553-4.322,3.119-6.482,4.68l0,0h-0.001
	c-0.134,0.084-0.274,0.162-0.403,0.252c-8.607,6.156-17.214,12.316-25.825,18.467C0.686,152.23,0.435,152.57,0,152.551
	c0,0.707,0,1.416,0,2.125c0,0.127,0,0.256,0,0.385s0,0.258,0,0.387c0.117,0.129,0.235,0.262,0.353,0.393
	c0.679,2.912,2.389,4.9,5.23,5.922c0.958,0.344,1.684,0.26,2.545-0.4c6.731-5.15,13.515-10.23,20.271-15.348
	c1.866-1.412,3.78-2.764,5.573-4.273c0.266-0.176,0.541-0.342,0.796-0.533c8.084-6.1,16.167-12.199,24.245-18.305
	c1.716-1.295,3.412-2.617,5.118-3.928c0.781-0.189,1.507,0.291,2.281,0.191c0.56,0.252,1.165,0.105,1.743,0.201
	c-0.001,0.057,0.003,0.113,0.013,0.17c-0.17-0.027-0.304,0.025-0.392,0.18c-0.291,0.135-0.579,0.275-0.872,0.402
	c-1.854,0.814-3.701,1.641-5.452,2.664c-0.382,0.223-0.818,0.381-1.064,0.793c-0.182,0.096-0.097,0.16,0.024,0.223
	c0.184,0.281,0.497,0.387,0.764,0.555c1.62,1.018,3.18,2.115,4.562,3.447c0.218,0.211,0.544,0.369,0.486,0.762
	c-0.274,0.121-0.587,0.164-0.797,0.406c-0.265,0.111-0.537,0.207-0.794,0.332c-2.747,1.342-5.359,2.914-7.866,4.66
	c-3.153,2.195-6.052,4.674-8.412,7.736c-0.767,0.996-1.432,2.055-1.94,3.205c-0.883,1.994-1.206,4.063-0.729,6.207
	c0.823,3.701,3.154,6.107,6.63,7.416c3.187,1.203,6.432,1.076,9.65,0.104c4.208-1.271,8.445-2.436,12.687-3.582
	c2.602-0.703,5.225-1.324,7.796-2.137c0.474-0.027,0.904-0.211,1.344-0.371c1.164,0.658,1.999,1.68,2.858,2.658
	c1.827,2.082,3.156,4.482,4.343,6.969c0.351,0.525,0.442,0.545,1.126,0.242c0.159-0.023,0.32-0.035,0.476-0.072
	c1.842-0.447,3.708-0.775,5.598-0.875c2.501-0.129,5.005-0.117,7.485,0.35c1.704,0.32,3.385,0.725,5.03,1.275
	c0.336,0.111,0.576,0.26,0.542,0.656c-0.448,2.553,0.408,4.682,2.142,6.51c0.417,0.441,0.883,0.846,1.358,1.225
	c2.213,1.766,4.731,2.949,7.393,3.861c2.228,0.764,4.53,1.184,6.846,1.555c0.003,0.061,0.004,0.121,0.002,0.182
	c0.192,0,0.386,0,0.579,0c0.129,0,0.258,0,0.387,0c0.128,0,0.257,0,0.387,0c0.128,0,0.257,0,0.386,0c0.322,0,0.644,0,0.965,0
	c0.966,0,1.932,0,2.897,0c0.258,0,0.516,0,0.773,0c0.128,0,0.257,0,0.386,0c0.193,0,0.387,0,0.58,0
	c0.005-0.057,0.007-0.111,0.005-0.168c0.378-0.072,0.756-0.143,1.133-0.217c2.959-0.592,5.708-1.682,8.138-3.5
	c1.834-1.371,3.235-3.076,4.095-5.229c0.429-1.07,0.69-2.189,1.083-3.268c1.744-0.146,2.854-1.115,3.487-2.697
	c0.685-1.311,0.694-2.717,0.498-4.119c-0.48-3.434-2.17-6.238-4.6-8.648c-0.775-0.768-1.689-1.359-2.501-2.078
	c0.327-0.133,0.652-0.27,0.982-0.393c2.744-1.035,5.335-2.363,7.744-4.045c3.05-2.129,5.57-4.734,7.25-8.088
	c0.487-0.973,0.957-1.959,1.101-3.061c0.252-0.328,0.157-0.74,0.271-1.104c1.341-0.135,2.693-0.057,4.032-0.291
	c3.114-0.549,5.818-1.873,7.895-4.273c1.298-1.502,2.22-3.227,2.288-5.289h0.001c0.308-0.365,0.615-0.73,0.923-1.094
	c0.109-0.018,0.171-0.076,0.172-0.191l0.015-0.016c0.1-0.016,0.152-0.072,0.154-0.174c0.054-0.027,0.083-0.07,0.091-0.129
	c0.485-0.379,0.832-0.871,1.124-1.404c0.819-0.953,1.144-2.121,1.409-3.309v-0.002c0.172-0.088,0.345-0.176,0.517-0.264
	c0.787-0.375,1.511-0.84,2.156-1.428c0.267-0.176,0.542-0.342,0.799-0.531c2.996-2.236,5.806-4.695,8.436-7.348
	c7.379-7.441,14.04-15.49,20.152-23.998c1.523-2.119,2.854-4.357,3.89-6.76c0.907-2.104,1.639-4.26,1.864-6.557
	c0.057,0.002,0.112-0.002,0.166-0.014c0-0.256,0-0.514,0-0.771c0-0.838,0-1.674,0-2.51c0-0.193,0-0.387,0-0.58
	c0-0.129,0-0.258,0-0.387C221.05,63.135,220.995,63.133,220.941,63.135z M32.056,141.711c-0.321-0.025-0.597-0.15-0.888-0.268
	c-1.862-0.752-3.089-2.127-3.831-3.967c-0.491-1.221-0.735-2.453-0.179-3.686c0.174,0.076,0.552,0.115,0.64,0.295
	c0.093,0.191-0.092,0.713-0.065,0.955c0.08,0.707,0.354,1.365,0.62,2.018c0.746,1.787,2.028,2.998,3.827,3.723
	c0.103,0.041,0.991,0.17,1.068,0.182c0.136,0.252,0.284,0.514,0.393,0.77C33.171,141.85,32.546,141.752,32.056,141.711z
	 M196.577,8.687c0.001,0,0.001,0,0.002,0c0,0.002,0,0.002,0,0.002c-0.001,0-0.001,0-0.002,0
	C196.577,8.689,196.577,8.689,196.577,8.687z M188.352,29.314c0.051-0.543,0.152-1.092,0.079-1.625
	c-0.07-0.506,0.087-0.822,0.434-1.168c2.878-2.893,4.968-6.283,6.272-10.146c0.625-1.855,1.1-3.752,1.071-5.736
	c0.18-0.449,0.035-0.918,0.087-1.375c0.018-0.158-0.058-0.404,0.262-0.334c1.07,2.666,2.811,4.807,5.151,6.449
	c0.769,0.541,0.632,0.596,0.273,1.215c-1.434,2.475-3.027,4.848-4.8,7.088c-2.541,3.217-5.482,6.025-8.864,8.355
	c-0.156,0.109-0.329,0.193-0.563,0.33C187.92,31.295,188.257,30.332,188.352,29.314z M188.272,32.582
	c0.538-0.164,1.029-0.514,1.509-0.826c0.264-0.174,0.409-0.162,0.662,0.027c0.543,0.404,1.047,0.844,1.501,1.342
	c1.925,2.107,3.275,4.566,4.33,7.197c0.98,2.441,1.602,4.982,2.138,7.549c0.061,0.283,0.191,0.555-0.088,0.793
	c-1.324-2.791-2.858-5.457-4.712-7.938c-1.776-2.379-3.754-4.561-6.061-6.436c-0.098-0.08-0.177-0.184-0.266-0.277
	C187.264,33.297,187.509,32.816,188.272,32.582z M181.587,21.187c1.796,0.641,3.32,1.65,4.512,3.16
	c0.634,0.801,1.061,1.676,1.224,2.682c0.255,0.223,0.174,0.514,0.16,0.789c-0.002,0.119-0.005,0.236-0.008,0.353
	c0.132,1.35-0.217,2.648-0.426,3.961c-0.044,0.281-0.13,0.555-0.131,0.844c0,0.268-0.14,0.408-0.397,0.445
	c-1.911-1.367-3.883-2.639-5.975-3.715c-0.107,0.004-0.174-0.049-0.201-0.15v0.002l-0.002-0.006
	c0.001,0.002,0.002,0.002,0.002,0.002c0.069-0.197,0.139-0.395,0.207-0.59c-0.025-0.957,0.272-1.896,0.035-2.873
	c-0.127-0.521-0.197-1.068-0.339-1.594c-0.144-0.533-0.395-0.947-0.88-1.305c-0.763-0.565-1.361-1.324-1.988-2.277
	C178.906,20.807,180.255,20.711,181.587,21.187z M157.774,3.797c-0.133-0.42-0.23-0.852-0.354-1.316
	c0.346-0.049,0.598,0.084,0.857,0.182c2.02,0.772,4.118,1.281,6.27,1.311c2.224,0.029,4.359-0.396,5.773-2.418
	c0.095-0.082,0.191-0.166,0.287-0.25c0.067-0.059,0.095-0.176,0.221-0.144c-0.249,2.459-0.111,4.9,0.226,7.348
	c0.406,2.949,1.254,5.75,2.512,8.439c1.335,2.854,3.15,5.363,5.475,7.484c0.554,0.506,0.769,1.037,0.736,1.767
	c-0.042,0.992-0.091,1.977-0.391,2.932c-0.322,0.188-0.628,0.049-0.911-0.08c-1.689-0.77-3.451-1.324-5.23-1.84
	c-0.313-0.092-0.726-0.082-0.828-0.527c-0.218-0.543-0.763-0.758-1.144-1.139c-3.717-3.711-6.987-7.76-9.549-12.369
	C160.063,10.189,158.797,7.047,157.774,3.797z M97.239,58.711c0.594-1.004,1-2.1,1.524-3.137c0.236-0.465,0.334-1.039,0.866-1.316
	c0.651-1.07,1.292-2.144,1.954-3.207c1.906-3.057,4.094-5.898,6.461-8.613c1.773-2.035,3.632-3.988,5.653-5.771
	c2.774-2.445,5.776-4.586,8.962-6.473c5.358-3.174,11.025-5.641,16.985-7.432c3.747-1.125,7.556-1.976,11.436-2.529
	c2.475-0.351,4.953-0.637,7.451-0.746c0.202-0.219,0.471-0.172,0.723-0.174c1.575-0.002,3.149,0.012,4.725-0.004
	c0.455-0.006,0.732,0.152,1.037,0.52c0.675,0.81,1.357,1.619,2.091,2.385c1.261,1.318,2.549,2.602,3.966,3.754
	c0.171,0.139,0.342,0.295,0.398,0.529c-1.901-0.26-3.801-0.518-5.702-0.775c-0.003,0-0.006,0-0.009,0
	c-0.03,0.002-0.063-0.01-0.095-0.016c-2.347-0.057-4.693-0.127-7.04-0.037c-8.239,0.316-16.309,1.488-24.01,4.617
	c-8.984,3.652-16.869,8.896-23.375,16.123c-3.453,3.836-6.454,8.006-8.888,12.572c-0.149,0.281-0.268,0.58-0.401,0.869
	c-0.236,0.99-0.693,1.893-1.109,2.811c-0.108,0.242-0.196,0.574-0.601,0.428c-0.618-1.164-1.473-2.15-2.342-3.127
	c-0.274-0.307-0.621-0.553-0.806-0.936C97.143,58.92,97.191,58.814,97.239,58.711z M151.973,27.607
	c-0.187-0.008-0.399-0.025-0.446-0.23c-0.033-0.146,0.144-0.139,0.258-0.143C151.847,27.359,151.909,27.482,151.973,27.607z
	 M115.877,43.271c-0.005-0.076-0.011-0.152-0.017-0.229c0.08-0.113,0.172-0.367,0.305-0.184
	C116.28,43.016,116.036,43.168,115.877,43.271z M87.091,67.391l0.006-0.004c-0.286-0.002-0.524-0.139-0.764-0.322
	c0.452-0.018,0.911-0.203,1.342,0.129c2.078,0.322,3.885,1.248,5.507,2.541c2.142,1.709,3.703,3.871,4.813,6.365
	c0.052,0.113,0.069,0.244,0.102,0.367c0.261,0.338,0.379,0.721,0.385,1.264c-0.356-0.27-0.433-0.598-0.574-0.881
	c-0.392-0.701-0.784-1.402-1.177-2.105c-0.753-1.064-1.479-2.148-2.391-3.094C92.32,69.553,89.9,68.141,87.091,67.391z
	 M86.962,89.75c1.698-0.41,3.397-0.383,5.136-0.219c2.309,0.219,4.515,0.824,6.731,1.424c1.348,2.289,2.658,4.598,4.134,6.809
	c0.193,0.291,0.362,0.598,0.542,0.898c1.264,1.693,2.492,3.412,3.795,5.076c3.112,3.975,6.548,7.645,10.448,10.865
	c0.096,0.078,0.167,0.189,0.25,0.283c-1.207,0.322-2.432,0.574-3.579,1.098c-0.367,0.166-0.747,0.059-1.128-0.043
	c-4.456-1.176-8.592-3.027-12.188-5.941c-3.244-2.627-5.912-5.77-8.013-9.383l0.001-0.002c-0.001,0-0.001,0-0.002,0.002
	c-0.851-1.326-1.484-2.764-2.149-4.188c-0.633-1.354-1.061-2.797-2.017-4.012c-0.749-0.953-1.665-1.66-2.669-2.326
	C86.377,89.719,86.716,89.809,86.962,89.75z M138.066,126.67c-0.001,0.059-0.006,0.119-0.015,0.18
	c-1.089,1.537-2.513,2.354-4.459,2.361c-1.952,0.006-3.809-0.42-5.653-0.941c-2.896-0.818-5.74-1.814-8.611-2.711
	c-2.283-0.715-4.617-1.197-7.018-1.455c-1.447-0.156-2.784,0.215-4.176,0.25c-0.87,0.305-1.803,0.471-2.519,1.123
	c-0.063,0.01-0.123,0.02-0.184,0.033c-0.062,0.063-0.114,0.148-0.19,0.186c-0.097,0.049-0.219,0.172-0.313,0.023
	c-0.028-0.045,0.033-0.17,0.083-0.236c0.053-0.07,0.14-0.111,0.213-0.166c2.537-4.168,6.02-7.189,10.67-8.787
	c1.063-0.365,2.156-0.592,3.273-0.715c1.675,1.131,3.282,2.365,5.039,3.377c1.228,0.705,2.461,1.391,3.758,1.961
	c0.234,0.104,0.478,0.199,0.691,0.338c2.42,1.578,5.066,2.631,7.816,3.457c0.151,0.047,0.294,0.127,0.439,0.189
	c0.598,0.051,1.155,0.26,1.719,0.441C138.405,125.922,138.433,126.396,138.066,126.67z M138.853,125.654
	c2.166,0.43,4.328,0.881,6.501,1.283c1.227,0.227,2.469,0.373,3.704,0.555c-0.247,0.969-0.446,1.953-0.96,2.832
	c-1.016,1.814-2.549,2.813-4.639,2.918c-2.837,0.145-5.311-0.967-7.727-2.262c-0.474-0.254-0.927-0.543-1.55-0.908
	c1.632-0.354,2.941-0.986,3.87-2.234C138.422,127.146,138.797,126.459,138.853,125.654z M96.558,138.996
	c0.307-0.088,0.629-0.125,0.943-0.188c1.106-0.111,1.979,0.328,2.855,0.992c1.933,1.469,4.046,2.67,6.188,3.809
	c0.316,0.168,0.578,0.379,0.811,0.641c0.015,0.057,0.034,0.113,0.063,0.164c0.106,0.039,0.146,0.115,0.127,0.225
	c0.262,0.555,0.449,1.139,0.551,1.742c0.448,2.646-1.293,4.797-4.056,5.02c-1.332,0.107-2.631-0.045-3.887-0.518
	c-2.423-0.912-4.399-2.383-5.757-4.617c-0.557-0.916-0.935-1.899-0.969-2.992C93.36,141.104,94.456,139.59,96.558,138.996z
	 M87.362,91.514c0.361,0.369,0.677,0.764,0.87,1.248c-1.573-0.488-3.181-0.826-4.806-1.086C85.007,89.9,85.751,89.871,87.362,91.514
	z M77.155,118.785c0.216-0.236,0.454-0.451,0.682-0.678c1.114-0.226,2.242-0.115,3.359-0.08c2.253,0.07,4.471,0.406,6.62,1.119
	c0.149,0.051,0.289,0.131,0.435,0.199c0.339,1.621,0.474,3.281,0.92,4.885c0.078,0.279,0.104,0.566,0.03,0.855
	c-0.13,0.41-0.482,0.588-0.828,0.754c-3.155,1.506-6.318,1.459-9.478,0.012c-0.346-0.16-0.695-0.348-0.831-0.754
	c-0.276-0.264-0.563-0.52-0.83-0.793C75.635,122.654,75.603,120.482,77.155,118.785z M63.054,117.334
	c-2.685-1.313-4.644-3.275-5.327-6.299c-0.128-0.113-0.17-0.26-0.183-0.426c-0.355-4.441,1.027-8.232,4.18-11.398
	c1.464-1.469,3.168-2.57,4.963-3.561c0.222-0.123,0.443-0.266,0.716-0.256c-0.517,1.225-1.033,2.451-1.549,3.676
	c-0.146,0.885-0.439,1.73-0.597,2.615c-0.222,1.244-0.156,2.492-0.188,3.74c-0.082,3.201,1.093,5.918,3.046,8.398
	c0.995,1.266,2.243,2.18,3.528,3.08c0.446,0.313,0.908,0.604,1.363,0.902c-0.911,0.469-1.935,0.43-2.898,0.512
	C67.7,118.523,65.285,118.426,63.054,117.334z M64.169,156.986c-1.269,0.342-2.527,0.73-3.808,1.02
	c-2.895,0.65-5.759,0.529-8.459-0.775c-2.882-1.393-4.854-3.605-5.31-6.863c-0.326-2.326,0.217-4.541,1.454-6.547
	c0.846-1.365,1.869-2.602,2.966-3.781c3.019-3.25,6.553-5.852,10.252-8.252c0.158-0.102,0.335-0.176,0.522-0.273
	c0.141,0.32-0.075,0.52-0.16,0.736c-0.749,1.889-1.188,3.836-1.43,5.861c-0.315,2.641,0.028,5.18,0.809,7.676
	c0.633,2.023,1.796,3.742,3.238,5.295c1.552,1.672,3.377,2.953,5.373,4.018c0.11,0.057,0.212,0.131,0.464,0.289
	C68.003,155.951,66.086,156.469,64.169,156.986z M129.969,175.938c-4.5-0.475-8.823-1.561-12.786-3.816
	c-1.819-1.037-3.486-2.27-4.644-4.076c-0.714-1.115-0.947-2.367-1.058-3.646c-0.025-0.295,0.065-0.639,0.299-0.891
	c2.342,0.791,4.502,1.955,6.609,3.225c0.901,0.541,1.792,1.102,2.685,1.652c0.29,0.318,0.51,0.113,0.722-0.102
	c0.474-0.475,0.934-0.967,1.416-1.434c0.919-0.887,1.822-1.793,2.9-2.496c0.406,0.664,0.312,1.436,0.384,2.15
	c0.356,3.516,1.755,6.475,4.455,8.791c0.164,0.141,0.36,0.279,0.363,0.619C130.879,176.076,130.426,176.037,129.969,175.938z
	 M134.614,176.906c0-0.002-0.003-0.004-0.004-0.006c0.002,0,0.004,0,0.005,0L134.614,176.906z M151.476,155.688
	c0.55,0.244,1.162,0.346,1.654,0.723c0.492,0.158,0.643,0.56,0.737,1.012c0.278,1.334,0.323,2.666-0.008,3.996
	c-0.4,0.117-0.664-0.168-0.962-0.34c-2.439-1.406-5.013-2.442-7.792-2.965c-4.666-0.881-9.141-0.311-13.434,1.693
	c-4.097,1.912-7.561,4.598-10.131,8.365c-0.051,0.074-0.146,0.119-0.221,0.18c-2.106-2.127-4.608-3.68-7.277-4.975
	c-2.672-1.299-5.479-2.201-8.42-2.621c-4.747-0.676-9.405-0.408-13.884,1.484c-0.47,0.197-0.351-0.328-0.558-0.453
	c-0.697-2.799-2.085-5.246-3.933-7.422c-3.343-3.932-7.576-6.365-12.659-7.314c-0.702-0.131-1.407-0.1-2.109-0.158
	c0.534-1.793,0.77-3.619,0.756-5.496c-0.032-4.16-1.335-7.855-3.88-11.129c-0.079-0.1-0.151-0.207-0.228-0.311
	c-2.159-2.531-4.636-4.652-7.737-5.961c-0.192-0.082-0.344-0.156-0.363-0.381c1.6-0.488,3.127-1.166,4.668-1.807
	c0.296-0.123,0.568-0.305,0.898-0.334c0.411,0.168,0.776,0.41,1.111,0.701c1.805,1.426,3.408,3.053,4.861,4.83
	c0.125,0.152,0.349,0.309,0.243,0.543c0.018,0.006,0.036,0.01,0.054,0.017c1.085,0.992,1.699,2.305,2.373,3.568
	c1.498,2.811,2.281,5.818,2.39,9c-0.049,0.547,0.119,1.107-0.142,1.633c-0.037,0.252-0.141,0.518,0.153,0.695
	c0.078-0.033,0.156-0.033,0.233-0.002c0.117,0.043,0.237,0.076,0.354,0.119c0.34,0.072,0.681,0.131,1.027,0.156
	c2.972,0.828,5.729,2.1,8.18,3.988c2.688,2.072,4.822,4.613,6.341,7.658c0.203,0.41,0.47,0.799,0.481,1.279
	c0.084,0.275,0.248,0.424,0.552,0.344c7.484-0.715,14.723,0.033,21.479,3.621c0.825,0.471,1.657,0.932,2.433,1.486
	c0.113,0.143,0.278,0.221,0.415,0.334c0.76-0.176,1.1-0.924,1.73-1.275c0.555-0.434,1.104-0.871,1.691-1.26
	c5.104-3.5,10.714-5.301,16.934-5.301C143.623,153.611,147.601,154.295,151.476,155.688z M132.557,146.273
	c0.378-0.352,0.808-0.633,1.265-0.873c0.082-0.145,0.193-0.232,0.371-0.201l0.003-0.002c1.132-0.318,2.292-0.229,3.427-0.129
	c2.432,0.213,4.794,0.762,7.043,1.734c0.765,0.332,1.496,0.727,2.209,1.16c0.294,0.178,0.514,0.371,0.496,0.742
	c-0.257,1.014-0.987,1.625-1.835,2.127c-1.209,0.715-2.542,1.07-3.921,1.236c-2.353,0.281-4.679,0.172-6.931-0.668
	c-0.758-0.283-1.467-0.656-2.075-1.193C131.287,149.035,131.269,147.471,132.557,146.273z M148.065,138.291
	c-3.234,1.789-6.707,2.924-10.308,3.697c-4.344,0.932-8.735,1.428-13.179,1.615c-2.345,0.1-4.692,0.238-7.027,0.121
	c-3.293-0.164-6.614-0.125-9.86-0.873c-0.291-0.152-0.639-0.15-0.917-0.338c-1.288-0.51-2.413-1.314-3.582-2.033
	c-2.271-1.395-4.342-3.057-6.269-4.896c-0.693-0.662-1.323-1.389-1.913-2.146c1.587,0.391,3.169,0.801,4.762,1.164
	c6.367,1.443,12.803,1.973,19.327,1.588c6.02-0.355,11.915-1.387,17.715-3.004c0.246-0.068,0.481-0.172,0.722-0.26
	c1.451,0.625,2.923,1.207,4.506,1.35c1.016,0.092,1.889,0.377,2.717,0.996c0.748,0.559,1.704,0.73,2.582,1.041
	c0.693,0.246,1.419,0.416,2.054,0.811C149.208,137.805,148.587,138.002,148.065,138.291z M156.22,139.086
	c-0.832,1.055-1.838,1.967-2.98,2.701c-0.121,0.078-0.22,0.23-0.42,0.168c0.029-0.479,0.349-0.889,0.326-1.377
	c-0.048-2.223-0.939-3.463-2.978-4.305c-1.335-0.553-2.717-0.932-4.102-1.314c-0.52-0.145-1.053-0.275-1.549-0.697
	c1.941-0.725,3.639-1.686,4.382-3.734c0.348-0.979,0.435-1.99,0.385-3.02c1.747,0.125,3.492,0.25,5.238,0.377
	c1.13,1.316,2.121,2.715,2.764,4.352C158.271,134.742,157.846,137.029,156.22,139.086z M174.724,126.699
	c-1.983,1.387-4.151,2.233-6.575,2.527c-3.732,0.451-7.354,0.002-10.93-1.049c-0.106-0.031-0.181-0.168-0.271-0.256
	c1.693-0.121,3.391-0.096,5.087-0.244c6.191-0.545,11.835-2.432,16.603-6.559c0.046-0.041,0.11-0.063,0.166-0.094
	C178.046,123.35,176.749,125.285,174.724,126.699z M184.756,94.633c-1.467,3.684-3.699,7.256-6.75,9.83
	c-0.457,0.387-0.937,0.744-1.438,1.07c-0.346,0.227-1.023,0.244-1.287,0.461c-2.127,0.02-4.147,0.561-6.141,1.24
	c-0.926-0.443-1.328-2.988-1.536-3.879c-0.335-1.438-0.453-3.121-0.315-4.438c0.573-5.465,2.76-10.258,6.24-14.469
	c1.752-2.125,3.866-3.764,6.591-4.471c2.308-0.6,4.579,0.527,5.516,2.734c0.431,1.014,0.644,2.082,0.71,3.18
	C186.531,88.936,185.871,91.834,184.756,94.633z M191.527,71.863c-1.216-0.303-2.438-0.561-3.696-0.596
	c-2.115-0.057-4.139,0.355-6.111,1.107c-2.957,1.127-5.725,2.572-8.13,4.654c-0.02,0-0.037,0.027-0.054,0.078
	c-0.011,0.031-0.002,0.061,0.016,0.09c-0.111,0.111-0.21,0.248-0.342,0.307c-0.023,0.006-0.044,0.018-0.068,0.022
	c-0.018,0.004-0.037,0.006-0.058,0.006c-0.02,0.002-0.043-0.008-0.063-0.008c-0.061-0.012-0.126-0.035-0.202-0.086
	c-0.019-0.418-0.126-0.805-0.372-1.148c-0.363-0.459-0.514-1.043-0.879-1.5c-0.231-0.385-0.444-0.777-0.696-1.148
	c-4.501-6.637-10.775-12.889-18.615-15.273c-2.934-0.893-5.939-1.195-8.956-0.514c-5.781,1.307-10,4.729-12.747,9.912
	c-2.564,4.84-2.987,9.998-1.71,15.277c1.537,6.359,5.042,11.26,10.935,14.32c1.17,0.607,2.352,1.191,3.561,1.713
	c3.066,1.324,6.147,2.617,8.961,4.451c1.249,1.035,2.55,2.008,3.69,3.17c0.982,0.998,1.964,1.996,2.945,2.994
	c0.594,0.844,1.247,1.645,1.776,2.563c0.204-0.113,0.347-0.178,0.472-0.266c0.151-0.107,0.288-0.234,0.433-0.352
	c0.195-0.109,0.396-0.205,0.582-0.326c5.599-3.674,11.76-5.285,18.431-5.027c0.008,0.045,0.034,0.074,0.078,0.09
	c0.107,0.121,0.181,0.266,0.281,0.395c1.119,2.414,1.982,4.533,1.667,7.271c-0.119,1.029-0.508,2.158-1.021,3.061
	c-0.919,1.611-2.693,3.172-4.129,4.305c-3.639,2.879-7.82,4.527-12.367,5.271c-4.953,0.811-9.926,0.715-14.908,0.248
	c-4.557-0.428-9.015-1.342-13.429-2.537c-8.001-2.162-13.704-7.078-17.434-14.4c-0.203-0.4-0.394-0.809-0.602-1.207
	c-0.959-1.818-1.538-3.736-1.531-5.811c-0.022-1.428,0.275-2.76,1.161-3.918c0.954-1.115,2.192-1.793,3.542-2.299
	c0.354-0.277,1.1,0.053,1.119-0.732c-0.194-0.314-0.305-0.666-0.44-1.006c-0.064-0.08-0.136-0.15-0.166-0.246
	c0.005-0.063-0.02-0.111-0.074-0.146c-0.03-0.076-0.077-0.145-0.14-0.197c-1.33-2.236-2.681-4.461-3.834-6.797
	c-2.705-5.484-4.651-11.217-5.532-17.275c-1.252-8.631-0.513-17.049,2.779-25.189c0.953-2.357,2.396-4.211,4.493-5.725
	c7.778-5.615,16.293-9.502,25.712-11.379c0.126-0.025,0.26-0.023,0.38-0.066c1.964-0.672,3.718-0.15,5.533,0.713
	c9.754,4.639,17.637,11.346,23.207,20.666c0.098,0.164,0.22,0.311,0.332,0.465c0.651,0.564,0.949,1.354,1.327,2.092
	c0.058,0.113,0.112,0.229,0.169,0.34c0.042,0.07,0.078,0.145,0.114,0.219c0.153,0.201,0.163,0.576,0.573,0.459
	c1.328-0.566,2.642-1.164,3.985-1.689c3.896-1.523,7.931-2.361,12.128-2.344c0.48,0.004,0.964-0.016,1.432,0.129
	c1.031-0.049,2.056,0.012,3.07,0.207c0.273,0.639,0.548,1.277,0.821,1.916c0.225,0.631,0.451,1.262,0.678,1.893
	c-1.169,0.223-2.295,0.59-3.4,1.025c-1.275,0.682-2.425,1.539-3.491,2.514c-1.385,0.408-2.51,1.256-3.532,2.223
	c-1.373,1.297-2.785,2.537-4.378,3.559c-0.628,0.314-1.32,0.52-1.939,1.035c0.527,0.121,0.938,0.035,1.349,0.018
	c1.864-0.078,3.71-0.359,5.567-0.52c0.068,3.033,0.829,5.906,2.019,8.682c0.076,0.086,0.152,0.172,0.229,0.26
	C191.866,72.137,191.697,72.041,191.527,71.863z M160.159,79.727c-0.561,5.256-2.931,9.648-6.344,13.564
	c-1.249,1.434-2.568,2.787-4.164,3.844c-0.975,0.881-2.133,1.465-3.309,2.02c-0.204,0.098-0.414,0.16-0.644,0.115
	c-0.052,0.047-0.102,0.092-0.152,0.139c-0.388,0.35-4.27-1.861-4.774-2.145c-1.498-0.838-1.988-1.877-2.316-3.598
	c-0.368-1.934-0.347-4.117-0.103-6.063c0.809-6.445,4.282-11.682,9.605-15.342c1.781-1.225,3.793-1.852,5.998-1.787
	c2.698,0.078,4.638,1.406,5.598,3.949C160.201,76.135,160.353,77.902,160.159,79.727z M219.914,63.492
	c-0.566,1.904-1.056,3.844-2.256,5.484c-1.233,1.686-2.855,2.934-4.6,4.035c-1.605,1.014-3.304,1.844-5.085,2.5
	c-1.688,0.676-3.408,1.166-5.233,1.398c-1.274,0.162-2.479,0.08-3.697-0.176c-2.691-0.566-4.554-2.219-5.867-4.563
	c-1.205-2.15-1.801-4.486-2.233-6.898c-0.33-1.846-0.115-3.562,0.648-5.234c0.522-1.144,1.289-2.129,2.155-3.035
	c0.14-0.145,0.306-0.229,0.509-0.238h0.002c0.074-0.053,0.131-0.125,0.19-0.193c0.811-0.984,1.965-1.451,3.092-1.875
	c1.683-0.633,3.459-0.924,5.258-1.018c0.895-0.049,1.775-0.242,2.682-0.188c3.06,0.182,6.052,0.65,8.838,2.01
	c3.118,1.521,4.805,4.135,5.585,7.42C219.945,63.103,219.966,63.318,219.914,63.492z"/>
</svg>
