<?xml version="1.0" encoding="utf-8"?>
<!-- Generator: Adobe Illustrator 17.0.0, SVG Export Plug-In . SVG Version: 6.00 Build 0)  -->
<!DOCTYPE svg PUBLIC "-//W3C//DTD SVG 1.1//EN" "http://www.w3.org/Graphics/SVG/1.1/DTD/svg11.dtd">
<svg version="1.1" id="Objects" xmlns="http://www.w3.org/2000/svg" xmlns:xlink="http://www.w3.org/1999/xlink" x="0px" y="0px"
	 width="186.054px" height="154.65px" viewBox="0 0 186.054 154.65" enable-background="new 0 0 186.054 154.65"
	 xml:space="preserve">
<circle fill="#FFD84E" cx="93.997" cy="77.325" r="77.325"/>
<path fill="#29BAD5" d="M0,84.831h32.99v32.323H0l9.493-16.159L0,84.831z M186.054,84.831h-31.83v32.323h31.83l-9.161-16.159
	L186.054,84.831z"/>
<polygon fill="#54C8DD" points="167.513,119.562 20.482,119.562 14.578,82.425 173.414,82.425 "/>
<path fill="#FFFFFF" d="M93.997,13.293c-35.364,0-64.031,28.668-64.031,64.032v6.376h128.062v-6.376
	C158.028,41.961,129.361,13.293,93.997,13.293z M95.333,127.272l2.516,5.096l5.624,0.818l-4.07,3.966l0.96,5.603l-5.03-2.646
	l-5.03,2.646l0.96-5.603l-4.07-3.966l5.625-0.818L95.333,127.272z"/>
</svg>
