<?xml version="1.0" encoding="utf-8"?>
<!-- Generator: Adobe Illustrator 17.0.0, SVG Export Plug-In . SVG Version: 6.00 Build 0)  -->
<!DOCTYPE svg PUBLIC "-//W3C//DTD SVG 1.1//EN" "http://www.w3.org/Graphics/SVG/1.1/DTD/svg11.dtd">
<svg version="1.1"
	 id="svg2" xmlns:svg="http://www.w3.org/2000/svg" inkscape:export-xdpi="521" inkscape:export-filename="C:\Dokumente und Einstellungen\jischa\Desktop\symbole verkehr v4 2.png" xmlns:inkscape="http://www.inkscape.org/namespaces/inkscape" xmlns:rdf="http://www.w3.org/1999/02/22-rdf-syntax-ns#" xmlns:cc="http://creativecommons.org/ns#" xmlns:dc="http://purl.org/dc/elements/1.1/" xmlns:sodipodi="http://sodipodi.sourceforge.net/DTD/sodipodi-0.dtd" inkscape:export-ydpi="521" sodipodi:docname="symbole verkehr v 5 1.svg" inkscape:version="0.48.0 r9654"
	 xmlns="http://www.w3.org/2000/svg" xmlns:xlink="http://www.w3.org/1999/xlink" x="0px" y="0px" width="87.773px"
	 height="50.198px" viewBox="0 0 87.773 50.198" enable-background="new 0 0 87.773 50.198" xml:space="preserve">
<path id="path5836" inkscape:connector-curvature="0" fill="#08A1EF" d="M16.037,50.162c-3.73-0.364-6.631-3.807-6.399-7.596
	c0.111-1.837,0.822-3.383,2.171-4.722c1.374-1.365,3.089-2.072,5.036-2.076c3.652-0.008,6.674,2.65,7.185,6.32
	c0.358,2.57-0.838,5.252-3.045,6.827C19.632,49.881,17.823,50.336,16.037,50.162z M18.256,47.361c0.287-0.081,0.8-0.331,1.138-0.558
	c2.402-1.604,2.749-5.013,0.716-7.046c-0.906-0.907-2.011-1.357-3.323-1.351c-3.598,0.014-5.758,4.096-3.76,7.105
	c0.492,0.741,1.066,1.238,1.874,1.622C15.942,47.629,17.038,47.703,18.256,47.361z M63.81,49.764
	c-0.911-0.123-1.431-0.277-2.257-0.671c-2.616-1.248-4.274-4.066-4.085-6.945c0.263-4,3.636-6.991,7.627-6.762
	c2.823,0.162,5.22,1.87,6.27,4.468c0.439,1.088,0.521,1.524,0.514,2.76c-0.014,2.102-0.647,3.603-2.17,5.112
	c-0.694,0.69-1.061,0.963-1.748,1.3C66.648,49.673,65.13,49.942,63.81,49.764L63.81,49.764z M65.446,47.113
	c1.901-0.312,3.434-1.867,3.77-3.825c0.317-1.853-0.687-3.865-2.361-4.737c-0.859-0.448-1.422-0.566-2.448-0.518
	c-0.772,0.036-1.015,0.096-1.669,0.406c-3.51,1.668-3.521,6.618-0.017,8.283C63.655,47.167,64.435,47.278,65.446,47.113
	L65.446,47.113z M1.576,42.611c-1.169-0.123-1.138-0.098-1.22-0.977c-0.04-0.422-0.051-2.041-0.023-3.598
	c0.054-3.171,0.152-3.834,0.752-5.098c0.941-1.985,2.979-3.272,8.128-5.136l1.19-0.431l1.507-2.267
	c2.135-3.21,4.687-6.935,5.374-7.846l0.586-0.774l1.414-0.23c0.777-0.127,2.678-0.458,4.224-0.736
	c3.282-0.591,3.265-0.582,3.3-1.577l0.022-0.607l-11.493-0.025L3.844,13.284l-1.609-1.617c-1.316-1.323-1.666-1.737-1.92-2.273
	c-0.321-0.68-0.402-1.372-0.218-1.857C0.352,6.866,2.531,5.236,8.58,1.191L10.361,0h22.941h22.941l2.933,1.584l2.934,1.584h7.35
	c8.542,0,9.267,0.049,11.532,0.781c4.066,1.315,6.195,4.329,6.703,9.491c0.162,1.637,0.06,5.669-0.208,8.211
	c-0.176,1.668-1.006,8.753-1.181,10.079c-0.163,1.232-0.458,5.389-0.46,6.489c0,0.703-0.037,1.332-0.079,1.397
	c-0.077,0.119-1.049,0.473-4.775,1.733c-3.299,1.116-4.54,1.36-6.924,1.364h-1.099V41.87c-0.014-1.966-1.483-4.576-3.243-5.719
	c-0.964-0.625-1.965-1.058-3.04-1.315c-0.793-0.189-1.123-0.212-2.401-0.168c-1.642,0.057-2.358,0.22-3.643,0.83
	c-2.528,1.2-3.966,3.181-4.588,6.319l-0.178,0.895H40.739H25.602l-0.335-1.405c-0.55-2.314-0.845-2.878-2.223-4.26
	c-3.644-3.653-9.717-3.354-12.933,0.636c-1.064,1.318-1.62,2.808-1.624,4.34v0.69l-3.092-0.014c-1.7-0.008-3.418-0.048-3.816-0.09
	H1.576L1.576,42.611L1.576,42.611z M52.996,40.259c0.186-0.115,0.433-0.405,0.549-0.646c0.211-0.435,0.212-0.493,0.209-13.665
	c0-12.678-0.014-13.244-0.192-13.646c-0.105-0.23-0.345-0.529-0.534-0.665l-0.344-0.245h-6.968c-6.877,0-6.971,0-7.249,0.211
	c-0.155,0.116-0.377,0.338-0.493,0.493c-0.21,0.281-0.211,0.327-0.236,13.738c-0.025,12.656-0.016,13.478,0.153,13.813
	c0.099,0.195,0.335,0.46,0.526,0.588l0.348,0.231h6.947C52.523,40.467,52.666,40.46,52.996,40.259L52.996,40.259z M77.032,28.017
	c0.726-0.518,0.688-0.068,0.688-8.193c0-7.148-0.014-7.315-0.207-7.664c-0.122-0.213-0.392-0.451-0.663-0.589l-0.457-0.232
	l-8.909,0.027c-8.818,0.028-8.913,0.029-9.192,0.238c-0.155,0.116-0.377,0.338-0.493,0.493c-0.207,0.277-0.211,0.394-0.24,7.454
	c-0.016,3.944-0.014,7.319,0.029,7.5c0.074,0.41,0.504,0.932,0.915,1.112c0.254,0.111,1.977,0.133,9.254,0.114l8.942-0.022
	L77.032,28.017L77.032,28.017z M21.872,27.34c2.836-0.434,4.154-1.413,4.769-3.543c0.119-0.408,0.172-1.247,0.211-3.282l0.052-2.733
	h-4.08h-4.081l-1.693,2.427c-3.244,4.65-4.618,6.857-4.349,6.987c0.015,0.008,0.738,0.068,1.609,0.138
	c2.335,0.185,6.374,0.189,7.563,0.008V27.34L21.872,27.34L21.872,27.34z M26.165,10.423c1.169-0.222,2.051-0.944,2.448-2.007
	c0.304-0.814,0.304-3.349,0-4.161c-0.403-1.077-1.286-1.792-2.489-2.014c-0.368-0.068-2.71-0.096-6.526-0.075l-5.952,0.03
	l-0.563,0.268c-0.715,0.34-1.283,0.908-1.623,1.623c-0.255,0.536-0.268,0.643-0.268,2.249s0.014,1.712,0.268,2.248
	c0.465,0.979,1.342,1.671,2.331,1.838C14.5,10.542,25.531,10.543,26.165,10.423L26.165,10.423z"/>
</svg>
