<?xml version="1.0" encoding="utf-8"?>
<!-- Generator: Adobe Illustrator 17.0.0, SVG Export Plug-In . SVG Version: 6.00 Build 0)  -->
<!DOCTYPE svg PUBLIC "-//W3C//DTD SVG 1.1//EN" "http://www.w3.org/Graphics/SVG/1.1/DTD/svg11.dtd">
<svg version="1.1" id="图层_1" xmlns="http://www.w3.org/2000/svg" xmlns:xlink="http://www.w3.org/1999/xlink" x="0px" y="0px"
	 width="33px" height="26px" viewBox="0 0 33 26" enable-background="new 0 0 33 26" xml:space="preserve">
<path fill="#ADADAD" d="M27.081,9.323c-0.321-0.604-0.264-0.67-1.169-0.688c-2.815-0.056-3.658-1.296-4.093-3.785
	c0.202-0.77,0.404-1.539,0.605-2.309c0.606,0.052,1.164-0.414,0.838,1.222c-0.608,3.051,0.284,3.231,3.776,3.282
	c0.382,0.006,0.668-0.081,0.737,0.358C28,8.831,28.673,8.542,29.909,8.608c0.887,0.048,0.251,0.721,0.175,1.131
	C29.052,9.807,28.004,9.976,27.081,9.323z M5.215,3.584c-1.168-0.268-1.508,0.049-1.172,1.08c1.931,5.939,1.839,11.94,0.396,18.232
	c7.659-1.771,15.166-2.132,22.711-1.982c1.285,0.026,1.724-0.172,1.272-1.531c-1.011-3.045-1.393-6.19-1.075-9.39
	c0.921,0.653,1.969,0.484,3.001,0.415c-0.449,4.76,0.588,9.282,2.642,13.873c-10.912-2.179-21.386-0.579-32.097,1.723
	c0.328-2.123,1.235-3.898,1.506-5.827C3.262,14.013,2.185,7.653,0.445,1.764C-0.11-0.113-0.476-0.272,1.274,0.26
	c6.341,1.93,13.9,2.49,20.526,2.199c-0.201,0.77-0.403,1.539-0.605,2.309C15.834,4.788,10.47,4.786,5.215,3.584z"/>
</svg>
