<?xml version="1.0" encoding="utf-8"?>
<!-- Generator: Adobe Illustrator 16.0.0, SVG Export Plug-In . SVG Version: 6.00 Build 0)  -->
<!DOCTYPE svg PUBLIC "-//W3C//DTD SVG 1.1//EN" "http://www.w3.org/Graphics/SVG/1.1/DTD/svg11.dtd">
<svg version="1.1" xmlns="http://www.w3.org/2000/svg" xmlns:xlink="http://www.w3.org/1999/xlink" x="0px" y="0px"
	 width="101.957px" height="129.035px" viewBox="0 0 101.957 129.035" enable-background="new 0 0 101.957 129.035"
	 xml:space="preserve">
<g id="background">
</g>
<g id="objects">
	<path fill="#6D9220" d="M100.732,62.073l0.013-0.01c0,0-4.392,48.809-42.212,66.972c0,0,10.916-14.514,14.789-32.229
		c-6.748,3.296-14.328,5.151-22.343,5.151C22.824,101.957,0,79.133,0,50.979C0,22.824,22.824,0,50.979,0
		s50.979,22.824,50.979,50.979C101.957,54.791,101.525,58.5,100.732,62.073z"/>
	<path fill="#FFFFFF" d="M69.738,117.896l-0.605-0.606l0.214-0.352c0.176-0.29,0.822-1.369,1.738-3.079l0.882,0.473
		c-0.764,1.425-1.345,2.421-1.626,2.894l0.075,0.086L69.738,117.896z M73.372,114.579l-0.701-0.713
		c0.933-0.917,1.857-1.88,2.748-2.864l0.741,0.671C75.256,112.671,74.318,113.649,73.372,114.579z M73.796,110.75l-0.899-0.438
		c0.577-1.185,1.142-2.4,1.68-3.614l0.914,0.405C74.948,108.328,74.378,109.555,73.796,110.75z M78.773,108.609l-0.779-0.627
		c0.821-1.02,1.63-2.084,2.403-3.162l0.812,0.583C80.425,106.496,79.605,107.575,78.773,108.609z M77.052,103.397l-0.929-0.371
		c0.497-1.243,0.97-2.497,1.407-3.726l0.942,0.335C78.032,100.876,77.554,102.142,77.052,103.397z M83.468,102.069l-0.842-0.539
		c0.708-1.105,1.399-2.25,2.057-3.401l0.868,0.495C84.886,99.791,84.185,100.95,83.468,102.069z M49.414,97.216
		c-1.348-0.046-2.704-0.151-4.029-0.314l0.122-0.992c1.296,0.159,2.622,0.262,3.941,0.307L49.414,97.216z M53.481,97.089
		l-0.107-0.994c1.148-0.125,2.466-0.326,3.918-0.6l0.186,0.982C56,96.756,54.656,96.962,53.481,97.089z M41.4,96.232
		c-1.309-0.279-2.625-0.623-3.911-1.021l0.296-0.955c1.257,0.389,2.544,0.725,3.824,0.999L41.4,96.232z M79.743,95.819l-0.955-0.296
		c0.398-1.286,0.765-2.573,1.091-3.826l0.968,0.252C80.517,93.217,80.146,94.519,79.743,95.819z M61.417,95.64l-0.228-0.974
		c1.268-0.297,2.567-0.625,3.868-0.973l0.259,0.966C64.004,95.01,62.695,95.341,61.417,95.64z M87.462,95.082l-0.892-0.453
		c0.595-1.169,1.174-2.376,1.722-3.587l0.911,0.412C88.649,92.679,88.063,93.899,87.462,95.082z M33.685,93.845
		c-1.239-0.508-2.472-1.081-3.666-1.7l0.461-0.888c1.167,0.605,2.374,1.165,3.585,1.663L33.685,93.845z M69.184,93.565l-0.285-0.958
		c1.307-0.389,2.586-0.79,3.81-1.191l0.312,0.95C71.788,92.771,70.499,93.174,69.184,93.565z M76.82,91.046l-0.347-0.938
		c1.439-0.531,2.678-1.031,3.682-1.484l0.412,0.911C79.542,89.998,78.281,90.506,76.82,91.046z M26.518,90.125
		c-1.13-0.721-2.244-1.502-3.308-2.322l0.61-0.792c1.041,0.801,2.13,1.565,3.236,2.271L26.518,90.125z M90.781,87.752l-0.928-0.372
		c0.488-1.217,0.96-2.47,1.404-3.726l0.942,0.333C91.751,85.256,91.274,86.522,90.781,87.752z M20.119,85.198
		c-0.988-0.911-1.947-1.875-2.849-2.867l0.74-0.673c0.882,0.97,1.82,1.914,2.787,2.805L20.119,85.198z M93.465,80.169l-0.955-0.296
		c0.389-1.255,0.761-2.543,1.106-3.829l0.966,0.26C94.234,77.602,93.858,78.902,93.465,80.169z M14.685,79.224
		c-0.814-1.071-1.588-2.19-2.301-3.324l0.847-0.532c0.697,1.109,1.455,2.203,2.25,3.251L14.685,79.224z M95.555,72.401l-0.975-0.224
		c0.296-1.287,0.573-2.6,0.823-3.901l0.982,0.189C96.133,69.778,95.853,71.103,95.555,72.401z M10.385,72.384
		c-0.611-1.195-1.175-2.433-1.677-3.679l0.928-0.374c0.491,1.219,1.042,2.429,1.64,3.598L10.385,72.384z M7.366,64.89
		c-0.388-1.284-0.723-2.602-0.996-3.917L7.35,60.77c0.266,1.287,0.594,2.575,0.973,3.831L7.366,64.89z M97.077,64.501l-0.988-0.154
		c0.206-1.316,0.389-2.645,0.544-3.95l0.993,0.118C97.469,61.833,97.284,63.173,97.077,64.501z M5.728,56.983
		c-0.154-1.333-0.251-2.688-0.288-4.031l1-0.027c0.036,1.313,0.13,2.64,0.281,3.943L5.728,56.983z M98.026,56.508l-0.997-0.079
		c0.144-1.808,0.2-3.163,0.222-3.98l1,0.026C98.229,53.305,98.172,54.678,98.026,56.508z M97.264,51.688
		c-0.004-1.312-0.071-2.638-0.198-3.944l0.995-0.097c0.13,1.336,0.198,2.695,0.203,4.038L97.264,51.688z M6.503,48.972l-0.998-0.061
		c0.081-1.346,0.223-2.699,0.42-4.02l0.989,0.148C6.722,46.332,6.583,47.654,6.503,48.972z M96.497,43.836
		c-0.25-1.286-0.564-2.578-0.934-3.838l0.96-0.281c0.378,1.291,0.7,2.612,0.956,3.929L96.497,43.836z M7.674,41.16l-0.972-0.235
		c0.316-1.305,0.695-2.61,1.125-3.882l0.947,0.321C8.354,38.607,7.983,39.884,7.674,41.16z M94.274,36.262
		c-0.481-1.213-1.028-2.425-1.625-3.603l0.893-0.452c0.61,1.205,1.169,2.445,1.662,3.686L94.274,36.262z M10.21,33.683l-0.915-0.404
		c0.542-1.225,1.146-2.442,1.797-3.619l0.875,0.484C11.331,31.294,10.739,32.485,10.21,33.683z M90.707,29.214
		c-0.692-1.11-1.445-2.207-2.238-3.261l0.799-0.601c0.81,1.077,1.58,2.198,2.288,3.332L90.707,29.214z M14.033,26.773l-0.828-0.56
		c0.751-1.112,1.562-2.204,2.408-3.246l0.776,0.631C15.561,24.618,14.769,25.686,14.033,26.773z M85.958,22.898
		c-0.877-0.979-1.806-1.933-2.761-2.833l0.686-0.728c0.976,0.919,1.924,1.893,2.82,2.893L85.958,22.898z M19.017,20.644L18.3,19.947
		c0.937-0.963,1.926-1.896,2.941-2.772l0.653,0.757C20.901,18.789,19.933,19.701,19.017,20.644z M80.208,17.472
		c-1.027-0.819-2.102-1.605-3.193-2.337l0.557-0.831c1.115,0.747,2.211,1.55,3.26,2.386L80.208,17.472z M25,15.484l-0.584-0.812
		c1.091-0.785,2.229-1.529,3.384-2.212l0.51,0.86C27.181,13.989,26.067,14.717,25,15.484z M73.64,13.07
		c-1.146-0.638-2.334-1.236-3.534-1.78l0.413-0.911c1.224,0.555,2.437,1.166,3.607,1.817L73.64,13.07z M31.798,11.459l-0.431-0.902
		c1.215-0.581,2.468-1.112,3.723-1.579l0.349,0.938C34.212,10.372,32.987,10.891,31.798,11.459z M66.438,9.812
		c-1.24-0.44-2.511-0.833-3.779-1.166l0.254-0.967c1.295,0.34,2.593,0.741,3.86,1.19L66.438,9.812z M39.202,8.704l-0.264-0.965
		c1.292-0.354,2.618-0.653,3.942-0.891l0.177,0.984C41.762,8.065,40.465,8.358,39.202,8.704z M58.796,7.805
		c-1.295-0.225-2.615-0.396-3.922-0.508l0.086-0.996c1.335,0.115,2.683,0.289,4.007,0.519L58.796,7.805z M46.975,7.308l-0.089-0.996
		c1.333-0.119,2.691-0.18,4.037-0.181l0.001,1C49.607,7.132,48.279,7.192,46.975,7.308z"/>
</g>
</svg>
