<?xml version="1.0" encoding="utf-8"?>
<!-- Generator: Adobe Illustrator 17.0.0, SVG Export Plug-In . SVG Version: 6.00 Build 0)  -->
<!DOCTYPE svg PUBLIC "-//W3C//DTD SVG 1.1//EN" "http://www.w3.org/Graphics/SVG/1.1/DTD/svg11.dtd">
<svg version="1.1" id="图层_1" xmlns="http://www.w3.org/2000/svg" xmlns:xlink="http://www.w3.org/1999/xlink" x="0px" y="0px"
	 width="17px" height="36.031px" viewBox="0 0 17 36.031" enable-background="new 0 0 17 36.031" xml:space="preserve">
<path fill="#50C61E" d="M0.011,29.013c0.048-0.287,0.092-0.576,0.146-0.862c0.247-1.308,0.85-2.451,1.731-3.454
	c1.458-1.66,3.327-2.645,5.509-3.064c1.469-0.282,2.938-0.233,4.383,0.188c0.075,0.021,0.152,0.034,0.274,0.061
	c-0.348-0.48-0.667-0.922-0.988-1.364c-3.027-4.175-6.055-8.35-9.084-12.524C1.766,7.697,1.688,7.396,1.786,7.027
	c0.246-0.926,0.84-1.6,1.596-2.155c1.203-0.881,2.58-1.405,4.023-1.764c0.81-0.201,1.647-0.298,2.459-0.493
	c0.691-0.166,1.379-0.365,2.04-0.62c1.085-0.42,2.075-0.991,2.784-1.99c0.115,0.565,0.259,1.127,0.334,1.697
	c0.061,0.46,0.075,0.931,0.049,1.394c-0.107,1.871-0.877,3.42-2.401,4.597c-1.02,0.787-2.203,1.161-3.469,1.31
	C8.445,9.092,7.682,9.12,6.903,9.177C6.914,9.205,6.93,9.264,6.96,9.315c1.459,2.513,2.92,5.027,4.381,7.54
	c1.436,2.469,2.872,4.937,4.306,7.407c0.304,0.522,0.653,1.029,0.882,1.581c0.689,1.655,0.615,3.32-0.11,4.946
	c-0.996,2.234-2.757,3.692-5.045,4.583c-1.33,0.518-2.721,0.74-4.147,0.64c-2.186-0.152-4.105-0.908-5.589-2.536
	C0.506,32.234,0.011,30.637,0.011,29.013C0.059,28.726,0.011,29.228,0.011,29.013z"/>
</svg>
