<?xml version="1.0" encoding="iso-8859-1"?>
<!-- Generator: Adobe Illustrator 17.0.0, SVG Export Plug-In . SVG Version: 6.00 Build 0)  -->
<!DOCTYPE svg PUBLIC "-//W3C//DTD SVG 1.1//EN" "http://www.w3.org/Graphics/SVG/1.1/DTD/svg11.dtd">
<svg version="1.1" id="Objects" xmlns="http://www.w3.org/2000/svg" xmlns:xlink="http://www.w3.org/1999/xlink" x="0px" y="0px"
	 width="176.881px" height="182.992px" viewBox="0 0 176.881 182.992" style="enable-background:new 0 0 176.881 182.992;"
	 xml:space="preserve">
<g>
	<g>
		<rect x="59.28" y="49.068" style="fill-rule:evenodd;clip-rule:evenodd;fill:#C5D0D9;" width="117.928" height="78.108"/>
		<rect x="63.075" y="52.354" style="fill-rule:evenodd;clip-rule:evenodd;fill:#FFFFFF;" width="110.338" height="71.537"/>
		<rect x="83.784" y="140.155" style="fill-rule:evenodd;clip-rule:evenodd;fill:#C5D0D9;" width="68.92" height="6.51"/>
		<g>
			<path style="fill-rule:evenodd;clip-rule:evenodd;fill:#4C6173;" d="M148.5,88.974c3.707-0.885,8.872-2.983,9.546,0.016
				c0.801,3.565,1.789,12.018,2.825,20.229c0.224,1.771-2.045,2.688-2.61,2.858c-2.525,0.764-4.694,1.002-7.489,1.379l-2.28-24.466
				C148.49,88.982,148.496,88.975,148.5,88.974z"/>
			<path style="fill-rule:evenodd;clip-rule:evenodd;fill:#4C6173;" d="M137.241,88.974c-4.683-1.117-8.404-3.723-9.222-0.045
				c-0.855,3.85-1.793,12.285-2.782,20.163c-0.253,2.019,1.849,2.886,2.529,3.062c2.425,0.629,4.514,0.938,7.203,1.301l2.281-24.466
				C137.252,88.982,137.244,88.974,137.241,88.974z"/>
			<path style="fill-rule:evenodd;clip-rule:evenodd;fill:#27557D;" d="M133.592,112.977l-0.122,0.287
				c5.769,0.73,12.864,0.743,18.649,0.039c-0.053-0.117-0.104-0.226-0.155-0.326H133.592z"/>
			<path style="fill-rule:evenodd;clip-rule:evenodd;fill:#688096;" d="M131.273,112.918c1.28-3.689-1.641-20.962-3.254-24.139
				c0.917-3.261,9.46-3.981,11.734-5.835c1.078,0.949,1.847,1.165,3.07,1.165c1.223,0,2.031-0.247,3.108-1.196
				c1.684,1.371,10.501,2.44,12.009,5.702c-1.716,3.639-4.865,20.967-3.502,24.287C148.696,114.03,137.184,114.11,131.273,112.918z"
				/>
			<polygon style="fill-rule:evenodd;clip-rule:evenodd;fill:#FFFFFF;" points="137.062,84.511 136.79,91.771 142.867,107.198 
				148.857,91.771 148.485,84.312 145.934,82.912 139.754,82.944 			"/>
			<rect x="139.755" y="80.408" style="fill-rule:evenodd;clip-rule:evenodd;fill:#D1A886;" width="6.07" height="6.287"/>
			<path style="fill-rule:evenodd;clip-rule:evenodd;fill:#FCB024;" d="M143.831,90.583l0.423-0.895l-1.43-3.465l-1.406,3.41
				l0.448,0.949C142.52,90.583,143.176,90.583,143.831,90.583z"/>
			<polygon style="fill-rule:evenodd;clip-rule:evenodd;fill:#CCCCCC;" points="139.753,82.944 142.824,86.224 140.639,92.069 
				137.938,84.149 			"/>
			<polygon style="fill-rule:evenodd;clip-rule:evenodd;fill:#CCCCCC;" points="145.934,82.913 142.824,86.224 145.009,92.069 
				147.749,84.118 			"/>
			<polygon style="fill-rule:evenodd;clip-rule:evenodd;fill:#FCB024;" points="141.866,92.757 143.831,92.757 144.852,102.601 
				142.824,107.28 140.873,102.601 			"/>
			<polygon style="fill-rule:evenodd;clip-rule:evenodd;fill:#FFFFFF;" points="139.754,82.944 142.824,86.224 140.591,90.624 
				137.938,84.148 			"/>
			<polygon style="fill-rule:evenodd;clip-rule:evenodd;fill:#3F73A1;" points="137.957,83.991 142.824,107.28 135.59,93.484 
				136.79,91.771 134.477,89.971 136.681,84.692 			"/>
			<polygon style="fill-rule:evenodd;clip-rule:evenodd;fill:#27557D;" points="147.81,83.941 142.824,107.28 150.837,94.504 
				149.783,92.273 152.071,90.45 149.616,84.776 			"/>
			<polygon style="fill-rule:evenodd;clip-rule:evenodd;fill:#3F73A1;" points="147.81,83.941 142.824,107.28 150.059,93.484 
				148.857,91.771 151.171,89.971 149.616,84.776 			"/>
			<polygon style="fill-rule:evenodd;clip-rule:evenodd;fill:#FFFFFF;" points="145.934,82.912 142.824,86.224 145.057,90.624 
				147.749,84.116 			"/>
			<path style="fill-rule:evenodd;clip-rule:evenodd;fill:#FCB024;" d="M141.866,90.421h1.965c0.439,0.909,0.404,1.705,0,2.482
				h-1.965C141.462,92.126,141.428,91.33,141.866,90.421z"/>
			<path style="fill-rule:evenodd;clip-rule:evenodd;fill:#27557D;" d="M142.548,113.819c0.052-1.709,0.181-3.741,0.389-6.788
				c0.209,3.048,0.348,5.08,0.411,6.788C143.081,113.821,142.814,113.821,142.548,113.819z"/>
			<polygon style="fill-rule:evenodd;clip-rule:evenodd;fill:#FFFFFF;" points="136.143,84.698 136.897,91.657 142.943,107.006 
				148.904,91.657 149.658,84.698 146.774,82.843 139.028,82.843 			"/>
			<rect x="139.028" y="80.352" style="fill-rule:evenodd;clip-rule:evenodd;fill:#D1A886;" width="7.679" height="6.256"/>
			<path style="fill-rule:evenodd;clip-rule:evenodd;fill:#F2CAA9;" d="M142.901,84.034c3.026,0,5.828-3.46,7.306-7.699
				c0.086,0.089,0.183,0.145,0.291,0.162c0.602,0.101,1.292-1.03,1.541-2.525c0.248-1.496-0.038-2.79-0.641-2.889
				c-0.043-0.008-0.086-0.009-0.129-0.004c0.295-5.253-1.883-10.105-8.368-10.105c-6.491,0-8.667,4.86-8.367,10.118
				c-0.066-0.017-0.132-0.02-0.197-0.009c-0.602,0.099-0.89,1.393-0.641,2.889c0.248,1.495,0.939,2.626,1.54,2.525
				c0.129-0.021,0.242-0.097,0.34-0.216C137.049,80.545,139.861,84.034,142.901,84.034z"/>
			<path style="fill-rule:evenodd;clip-rule:evenodd;fill:#6E4D28;" d="M151.27,71.079c0.295-5.253-1.884-10.105-8.369-10.105
				c-6.491,0-8.668,4.86-8.369,10.118c0.525,0.131,1.072,1.092,1.315,2.343c0.423,0.285,0.729,0.119,0.729-0.94
				c0-3.127,0.386-5.896,2.439-6.558c1.954-0.629,2.383,0.751,3.874,0.751c1.491,0,1.961-1.3,3.875-0.751
				c1.985,0.57,2.439,3.431,2.439,6.558c0,1.017,0.282,1.211,0.678,0.974C150.13,72.146,150.721,71.141,151.27,71.079z"/>
			<path style="fill-rule:evenodd;clip-rule:evenodd;fill:#93B9DB;" d="M143.903,90.476l0.42-0.89l-1.422-3.448l-1.4,3.393
				l0.447,0.945C142.6,90.476,143.252,90.476,143.903,90.476z"/>
			<polygon style="fill-rule:evenodd;clip-rule:evenodd;fill:#CCCCCC;" points="139.028,82.843 142.901,86.138 140.727,91.953 
				137.222,84.042 			"/>
			<polygon style="fill-rule:evenodd;clip-rule:evenodd;fill:#4C6173;" points="137.222,84.042 142.901,107.088 134.929,94.375 
				135.976,92.157 133.701,90.343 136.143,84.698 			"/>
			<polygon style="fill-rule:evenodd;clip-rule:evenodd;fill:#CCCCCC;" points="146.774,82.843 142.901,86.138 145.075,91.953 
				148.581,84.042 			"/>
			<polygon style="fill-rule:evenodd;clip-rule:evenodd;fill:#93B9DB;" points="141.949,92.638 143.903,92.638 144.918,102.432 
				142.901,107.088 140.96,102.432 			"/>
			<path style="fill-rule:evenodd;clip-rule:evenodd;fill:#6E4D28;" d="M148.74,64.393c-0.838,1.674-9.273,6.472-12.066,6.691
				C133.879,71.304,136.525,60.055,148.74,64.393z"/>
			<path style="fill-rule:evenodd;clip-rule:evenodd;fill:#6E4D28;" d="M144.725,64.393c0.361,1.674,3.997,6.472,5.201,6.691
				C151.13,71.304,149.989,60.055,144.725,64.393z"/>
			<polygon style="fill-rule:evenodd;clip-rule:evenodd;fill:#FFFFFF;" points="139.028,82.843 142.901,86.138 140.68,90.517 
				137.222,84.042 			"/>
			<polygon style="fill-rule:evenodd;clip-rule:evenodd;fill:#688096;" points="137.222,84.042 142.901,107.088 135.704,93.362 
				136.897,91.657 134.595,89.866 136.143,84.698 			"/>
			<polygon style="fill-rule:evenodd;clip-rule:evenodd;fill:#4C6173;" points="148.581,84.042 142.901,107.088 150.873,94.375 
				149.826,92.157 152.101,90.343 149.658,84.698 			"/>
			<polygon style="fill-rule:evenodd;clip-rule:evenodd;fill:#688096;" points="148.581,84.042 142.901,107.088 150.099,93.362 
				148.904,91.657 151.206,89.866 149.658,84.698 			"/>
			<polygon style="fill-rule:evenodd;clip-rule:evenodd;fill:#FFFFFF;" points="146.774,82.843 142.901,86.138 145.123,90.517 
				148.581,84.042 			"/>
			<path style="fill-rule:evenodd;clip-rule:evenodd;fill:#93B9DB;" d="M141.949,90.313h1.954c0.437,0.905,0.402,1.696,0,2.47
				h-1.954C141.546,92.01,141.512,91.219,141.949,90.313z"/>
			<path style="fill-rule:evenodd;clip-rule:evenodd;fill:#4C6173;" d="M142.41,113.819c0.32,0.002,0.641,0.002,0.961,0.001
				c0.117-1.652-0.237-6.059-0.48-6.787C142.646,107.616,142.294,112.079,142.41,113.819z"/>
		</g>
		<rect x="96.921" y="124.776" style="fill-rule:evenodd;clip-rule:evenodd;fill:#C5D0D9;" width="42.646" height="15.459"/>
		<path style="fill-rule:evenodd;clip-rule:evenodd;fill:#27557D;" d="M107.011,127.145c8.332-1.987,19.938-6.705,21.452,0.035
			c1.801,8.014,4.021,27.011,6.351,45.464c0.503,3.979-4.598,6.042-5.866,6.426c-5.676,1.718-10.551,2.252-16.834,3.101
			l-5.126-54.99C106.986,127.164,107.001,127.147,107.011,127.145z"/>
		<path style="fill-rule:evenodd;clip-rule:evenodd;fill:#27557D;" d="M81.703,127.145c-10.525-2.511-18.89-8.366-20.726-0.102
			c-1.922,8.653-4.028,27.612-6.251,45.319c-0.57,4.536,4.153,6.485,5.684,6.883c5.448,1.414,10.146,2.108,16.19,2.925l5.125-54.99
			C81.728,127.164,81.71,127.146,81.703,127.145z"/>
		<path style="fill-rule:evenodd;clip-rule:evenodd;fill:#27557D;" d="M73.501,181.095l-0.273,0.646
			c12.965,1.641,28.912,1.669,41.917,0.086c-0.12-0.263-0.237-0.507-0.351-0.731H73.501z"/>
		<rect x="87.353" y="107.893" style="fill-rule:evenodd;clip-rule:evenodd;fill:#D1A886;" width="13.644" height="14.132"/>
		<path style="fill-rule:evenodd;clip-rule:evenodd;fill:#3F73A1;" d="M68.291,180.962c2.876-8.292-3.687-47.115-7.314-54.255
			c2.062-7.328,20.847-6.586,25.957-10.751c1.103,0.971,12.768,0.916,13.889-0.07c3.782,3.081,24.018,3.122,27.407,10.452
			c-3.857,8.179-10.935,47.127-7.872,54.588C107.449,183.463,81.574,183.643,68.291,180.962z"/>
		<path style="fill-rule:evenodd;clip-rule:evenodd;fill:#D1A886;" d="M85.72,107.766h17.259v8.887
			c-5.679,2.521-14.484,1.513-17.259,0.126V107.766z"/>
		<g>
			<path style="fill-rule:evenodd;clip-rule:evenodd;fill:#93B9DB;" d="M110.642,77.487c3.358,0,6.363,1.512,8.373,3.892v14.134
				c-2.01,2.379-5.015,3.891-8.373,3.891c-6.053,0-10.958-4.906-10.958-10.958C99.684,82.394,104.589,77.487,110.642,77.487z"/>
			<path style="fill-rule:evenodd;clip-rule:evenodd;fill:#93B9DB;" d="M78.143,77.487c6.052,0,10.958,4.906,10.958,10.958
				c0,6.052-4.906,10.958-10.958,10.958c-3.358,0-6.363-1.512-8.373-3.891V81.379C71.779,78.999,74.784,77.487,78.143,77.487z"/>
		</g>
		<path style="fill:#93B9DB;" d="M74.602,81.96c0,0.915-0.741,1.656-1.656,1.656s-1.657-0.741-1.657-1.656
			c0-6.312,2.581-12.048,6.738-16.206c4.157-4.156,9.895-6.737,16.205-6.737c6.312,0,12.048,2.581,16.205,6.737
			c4.158,4.158,6.738,9.895,6.738,16.206c0,0.915-0.742,1.656-1.656,1.656c-0.915,0-1.657-0.741-1.657-1.656
			c0-5.397-2.209-10.304-5.768-13.863c-3.559-3.558-8.466-5.767-13.862-5.767c-5.396,0-10.304,2.209-13.861,5.767
			C76.812,71.656,74.602,76.563,74.602,81.96z"/>
		<path style="fill-rule:evenodd;clip-rule:evenodd;fill:#57291E;" d="M94.425,116.043c16.663,0,26.481-30.337,14.947-44.647
			c-5.57-6.911-19.354-8.464-23.768-3.325C65.903,74.368,75.517,116.043,94.425,116.043z"/>
		<path style="fill-rule:evenodd;clip-rule:evenodd;fill:#27557D;" d="M104.812,115.888c1.667,1.115,3.981,2.629,3.981,2.629
			c-6.844,7.092-24.051,4.876-29.049,0.337l4.083-3.079C87.902,118.343,96.823,121.393,104.812,115.888z"/>
		<path style="fill-rule:evenodd;clip-rule:evenodd;fill:#FFFFFF;" d="M85.565,114.464c2.699,3.224,15.468,3.202,17.62,0.303
			c0.168,0.138,0.821,0.583,1.626,1.121c-7.988,5.505-16.909,2.455-20.984-0.113L85.565,114.464z"/>
		<g>
			<path style="fill-rule:evenodd;clip-rule:evenodd;fill:#E6EAED;" d="M111.804,8.255c18.365,0,33.253,11.063,33.253,24.711
				c0,10.572-8.936,19.592-21.499,23.12l3.805,13.793l-11.176-12.417c-1.435,0.141-2.897,0.214-4.383,0.214
				c-18.365,0-33.253-11.062-33.253-24.71C78.551,19.318,93.438,8.255,111.804,8.255z"/>
			<g>
				<path style="fill:#2C3945;" d="M93.659,23.646c-0.628,0-1.137-0.509-1.137-1.137c0-0.627,0.509-1.136,1.137-1.136h35.755
					c0.628,0,1.137,0.509,1.137,1.136c0,0.628-0.509,1.137-1.137,1.137H93.659z"/>
				<path style="fill:#2C3945;" d="M93.659,30.423c-0.628,0-1.137-0.508-1.137-1.136c0-0.628,0.509-1.137,1.137-1.137h35.755
					c0.628,0,1.137,0.509,1.137,1.137c0,0.628-0.509,1.136-1.137,1.136H93.659z"/>
				<path style="fill:#2C3945;" d="M93.659,37.201c-0.628,0-1.137-0.509-1.137-1.136c0-0.628,0.509-1.137,1.137-1.137h35.755
					c0.628,0,1.137,0.509,1.137,1.137c0,0.627-0.509,1.136-1.137,1.136H93.659z"/>
				<path style="fill:#2C3945;" d="M93.659,43.979c-0.628,0-1.137-0.509-1.137-1.137c0-0.627,0.509-1.136,1.137-1.136h35.755
					c0.628,0,1.137,0.509,1.137,1.136c0,0.628-0.509,1.137-1.137,1.137H93.659z"/>
			</g>
			<path style="fill:#C5D0D9;" d="M111.804,7.118c9.429,0,17.982,2.852,24.187,7.464c6.303,4.684,10.201,11.182,10.201,18.384
				c0,5.509-2.283,10.608-6.182,14.801c-3.734,4.016-8.957,7.195-15.065,9.092l3.509,12.719c0.166,0.603-0.188,1.227-0.79,1.393
				c-0.428,0.118-0.866-0.025-1.144-0.334l-0.002,0.001l-10.796-11.996c-0.557,0.048-1.113,0.086-1.671,0.112
				c-0.787,0.039-1.537,0.058-2.248,0.058l0,0V56.54l0,0c0.764,0,1.477-0.017,2.142-0.05c0.7-0.033,1.389-0.083,2.064-0.149
				c0.366-0.058,0.754,0.066,1.021,0.361l7.963,8.848l-2.514-9.113l-0.015-0.045c-0.169-0.602,0.183-1.229,0.786-1.398
				c6.17-1.733,11.427-4.822,15.1-8.772c3.512-3.777,5.569-8.346,5.569-13.256c0-6.446-3.546-12.304-9.278-16.564
				c-5.829-4.332-13.902-7.012-22.838-7.012l0,0V7.118L111.804,7.118z M111.804,58.812c-9.43,0-17.982-2.852-24.189-7.464
				c-6.303-4.685-10.201-11.182-10.201-18.383c0-7.202,3.898-13.7,10.201-18.384c6.206-4.611,14.759-7.464,24.189-7.464v2.272
				c-8.937,0-17.01,2.68-22.839,7.012c-5.732,4.26-9.278,10.117-9.278,16.564c0,6.445,3.546,12.303,9.278,16.562
				c5.829,4.332,13.902,7.012,22.839,7.012V58.812z"/>
		</g>
		<g>
			<path style="fill-rule:evenodd;clip-rule:evenodd;fill:#E6EAED;" d="M45.158,1.492c24.116,0,43.667,14.527,43.667,32.449
				c0,13.883-11.734,25.728-28.232,30.361l4.996,18.111L50.914,66.109c-1.883,0.184-3.805,0.281-5.756,0.281
				c-24.116,0-43.666-14.528-43.666-32.449C1.492,16.02,21.042,1.492,45.158,1.492z"/>
			<g>
				<path style="fill:#2C3945;" d="M21.331,21.703c-0.824,0-1.492-0.668-1.492-1.492c0-0.824,0.668-1.493,1.492-1.493h46.953
					c0.824,0,1.492,0.669,1.492,1.493c0,0.824-0.668,1.492-1.492,1.492H21.331z"/>
				<path style="fill:#2C3945;" d="M21.331,30.604c-0.824,0-1.492-0.669-1.492-1.493c0-0.823,0.668-1.491,1.492-1.491h46.953
					c0.824,0,1.492,0.668,1.492,1.491c0,0.824-0.668,1.493-1.492,1.493H21.331z"/>
				<path style="fill:#2C3945;" d="M21.331,39.504c-0.824,0-1.492-0.669-1.492-1.492c0-0.824,0.668-1.492,1.492-1.492h46.953
					c0.824,0,1.492,0.668,1.492,1.492c0,0.823-0.668,1.492-1.492,1.492H21.331z"/>
				<path style="fill:#2C3945;" d="M21.331,48.404c-0.824,0-1.492-0.668-1.492-1.492c0-0.824,0.668-1.492,1.492-1.492h46.953
					c0.824,0,1.492,0.668,1.492,1.492c0,0.824-0.668,1.492-1.492,1.492H21.331z"/>
			</g>
			<path style="fill:#C5D0D9;" d="M45.158,0C57.54,0,68.771,3.745,76.921,9.801c8.276,6.15,13.396,14.683,13.396,24.141
				c0,7.234-3,13.931-8.118,19.436c-4.904,5.273-11.763,9.449-19.783,11.938l4.607,16.703c0.22,0.792-0.245,1.611-1.037,1.829
				c-0.562,0.156-1.137-0.033-1.502-0.438l-0.002,0.002L50.304,67.658c-0.731,0.062-1.462,0.112-2.192,0.147
				c-1.034,0.051-2.019,0.076-2.953,0.076v-2.984c1.004,0,1.94-0.021,2.813-0.063c0.919-0.045,1.823-0.111,2.711-0.196
				c0.481-0.076,0.99,0.086,1.34,0.475L62.477,76.73l-3.301-11.967l-0.019-0.059c-0.221-0.792,0.241-1.614,1.032-1.837
				c8.103-2.275,15.006-6.332,19.828-11.52c4.612-4.96,7.314-10.959,7.314-17.407c0-8.465-4.656-16.157-12.185-21.75
				c-7.654-5.688-18.256-9.207-29.99-9.207V0z M45.158,0L45.158,0v2.984l0,0c-11.734,0-22.336,3.519-29.99,9.207
				C7.641,17.784,2.984,25.477,2.984,33.941c0,8.464,4.656,16.155,12.184,21.75c7.654,5.688,18.256,9.206,29.99,9.206l0,0v2.984l0,0
				c-12.382,0-23.613-3.746-31.763-9.801C5.119,51.931,0,43.397,0,33.941c0-9.458,5.119-17.99,13.395-24.141
				C21.545,3.745,32.776,0,45.158,0z"/>
		</g>
	</g>
</g>
</svg>
