<?xml version="1.0" encoding="utf-8"?>
<!-- Generator: Adobe Illustrator 17.0.0, SVG Export Plug-In . SVG Version: 6.00 Build 0)  -->
<!DOCTYPE svg PUBLIC "-//W3C//DTD SVG 1.1//EN" "http://www.w3.org/Graphics/SVG/1.1/DTD/svg11.dtd">
<svg version="1.1" id="objects" xmlns="http://www.w3.org/2000/svg" xmlns:xlink="http://www.w3.org/1999/xlink" x="0px" y="0px"
	 width="84.03px" height="103.57px" viewBox="0 0 84.03 103.57" enable-background="new 0 0 84.03 103.57" xml:space="preserve">
<path id="XMLID_367_" fill="#1F7223" d="M70.16,11.118c-22.537,6.566-31.072,38.075-31.072,38.075
	C33.618,21.184,15.675,25.34,15.675,25.34c30.854,2.407,16.849,78.23,16.849,78.23h19.038C39.745,35.846,70.16,11.118,70.16,11.118z
	"/>
<path fill="#7AB547" d="M34.927,66.128c0,0-1.048-31.929-30.883-24.287c0,0,2.303-1.047,4.292,8.689
	C10.326,60.266,21.423,69.688,34.927,66.128z M50.057,64.217c0,0,2.775-28.987,29.481-20.332c0,0-2.037-1.085-4.401,7.659
	C72.771,60.287,62.139,68.226,50.057,64.217z M64.106,13.918c0,0,1.595-18.258,18.448-12.95c0,0-1.286-0.671-2.73,4.844
	C78.381,11.327,71.73,16.377,64.106,13.918z M58.63,31.099c0,0,8.585-19.767,25.4-7.563c0,0-1.185-1.229-4.85,4.386
	C75.515,33.533,66.215,36.686,58.63,31.099z M23.776,27.404c0,0-4.729-21.284-23.776-12.398c0,0,1.412-0.993,3.974,5.287
	C6.535,26.573,15.166,31.493,23.776,27.404z M46.26,30.656c0,0,12.048-18.173-7.567-25.724c0,0,1.696,0.327-1.051,6.53
	C34.897,17.664,37.342,27.292,46.26,30.656z"/>
</svg>
