<?xml version="1.0" encoding="utf-8"?>
<!-- Generator: Adobe Illustrator 17.0.0, SVG Export Plug-In . SVG Version: 6.00 Build 0)  -->
<!DOCTYPE svg PUBLIC "-//W3C//DTD SVG 1.1//EN" "http://www.w3.org/Graphics/SVG/1.1/DTD/svg11.dtd">
<svg version="1.1" id="图层_3" xmlns="http://www.w3.org/2000/svg" xmlns:xlink="http://www.w3.org/1999/xlink" x="0px" y="0px"
	 width="64.06px" height="126.471px" viewBox="0 0 64.06 126.471" enable-background="new 0 0 64.06 126.471" xml:space="preserve">
<path fill="#E4E4E4" d="M32.03,126.471c-8.33,0-14.011-0.992-18.418-3.216c-4.427-2.234-7.637-5.831-10.101-11.319
	c-4.427-9.86-3.87-45.532-2.61-82.612C1.227,19.733,3.506,12.346,7.49,7.962C14.727,0,26.355,0,31.944,0h0.173
	c5.885,0,16.839,0,24.425,7.932c3.996,4.177,6.284,11.575,6.618,21.393c1.26,37.08,1.817,72.752-2.61,82.612
	c-2.464,5.489-5.674,9.085-10.101,11.319C46.041,125.479,40.36,126.471,32.03,126.471z"/>
<path fill="#F5F6FA" d="M32.03,125.36c-15.707,0-22.906-3.632-27.506-13.88c-4.334-9.653-3.769-45.173-2.513-82.119
	c0.317-9.325,2.496-16.466,6.301-20.652C15.218,1.11,26.515,1.11,31.944,1.11h0.173c5.719,0,16.365,0,23.622,7.589
	c3.804,3.977,5.986,11.122,6.311,20.663c1.256,36.946,1.821,72.466-2.513,82.119C54.936,121.728,47.738,125.36,32.03,125.36z"/>
<path fill="#F0F0F0" d="M61.494,29.38c-0.315-9.273-2.394-16.364-6.157-20.298C48.225,1.646,37.584,1.665,32.03,1.665
	c-5.555,0-16.549-0.019-23.307,7.417C5.061,13.11,2.881,20.107,2.566,29.38c-1.082,31.809-2.053,71.812,2.464,81.873
	s11.495,13.552,27,13.552s22.483-3.491,27-13.552C63.547,101.191,62.576,61.188,61.494,29.38z"/>
<path fill="#DCD9E4" d="M32.525,89.149c-0.066-0.392,0.009-0.777,0.125-1.06c0.12-0.292,0.294-0.535,0.488-0.748
	c0.337-0.371,0.754-0.687,1.354-0.808c0.043-0.008,0.088-0.017,0.133-0.023c0.049-0.006,0.105-0.021,0.147-0.02
	c0.019,0.001,0.011,0.005,0.014,0.026c0.013,0.076,0.011,0.176,0.011,0.261c0,0.7-0.264,1.199-0.598,1.57
	c-0.2,0.222-0.421,0.416-0.683,0.555C33.238,89.051,32.957,89.145,32.525,89.149z M37.008,90.093
	c-0.349,0.244-0.653,0.529-0.887,0.896c-0.23,0.36-0.388,0.824-0.34,1.425c0.043,0.542,0.244,0.945,0.513,1.269
	c0.271,0.327,0.613,0.577,1.006,0.776c0,0.002,0,0.004,0,0.006c-0.267,0.76-0.632,1.41-1.105,1.967
	c-0.23,0.27-0.485,0.543-0.794,0.743c-0.153,0.099-0.336,0.19-0.544,0.224c-0.23,0.037-0.457-0.013-0.663-0.073
	c-0.203-0.059-0.382-0.132-0.567-0.201c-0.186-0.07-0.37-0.14-0.606-0.162c-0.247-0.023-0.491-0.001-0.7,0.045
	c-0.209,0.047-0.4,0.11-0.581,0.184c-0.264,0.109-0.544,0.24-0.929,0.218c-0.351-0.02-0.609-0.159-0.828-0.323
	c-0.435-0.328-0.754-0.77-1.046-1.255c-0.387-0.643-0.709-1.34-0.898-2.174c-0.095-0.416-0.156-0.87-0.156-1.377
	c0-1.01,0.302-1.758,0.765-2.304c0.439-0.517,1.048-0.887,1.922-0.958c0.401-0.032,0.798,0.016,1.097,0.116
	c0.256,0.086,0.481,0.212,0.742,0.289c0.145,0.043,0.301,0.053,0.453,0.028c0.146-0.024,0.275-0.073,0.397-0.119
	c0.261-0.099,0.497-0.195,0.776-0.255c0.277-0.059,0.624-0.088,0.952-0.062c0.915,0.071,1.51,0.462,1.967,1
	C36.973,90.039,37.016,90.079,37.008,90.093z"/>
</svg>
