<?xml version="1.0" encoding="utf-8"?>
<!-- Generator: Adobe Illustrator 17.0.0, SVG Export Plug-In . SVG Version: 6.00 Build 0)  -->
<!DOCTYPE svg PUBLIC "-//W3C//DTD SVG 1.1//EN" "http://www.w3.org/Graphics/SVG/1.1/DTD/svg11.dtd">
<svg version="1.1" id="央铋_1" xmlns="http://www.w3.org/2000/svg" xmlns:xlink="http://www.w3.org/1999/xlink" x="0px" y="0px"
	 width="235.788px" height="37.684px" viewBox="0 0 235.788 37.684" enable-background="new 0 0 235.788 37.684"
	 xml:space="preserve">
<path fill="#FF2C2C" d="M0,8.92h93.071V0h37.684v8.92h105.033v19.844H130.755v8.92H93.071v-8.92H0V8.92L0,8.92z"/>
<path fill="#FFFFFF" d="M109.615,13.523v19.121l-1.832,0.652c0.09-2.881,0.128-9.119,0.128-18.723
	c-0.608,1.133-1.351,2.228-2.222,3.271l-0.391-0.262c1.307-2.178,2.418-4.797,3.334-7.857c0.916-3.055,1.419-5.148,1.507-6.281
	l2.62,1.44l-1.05,0.787c-0.698,1.916-1.44,3.926-2.223,6.021l1.179,0.914L109.615,13.523L109.615,13.523z M120.477,11.703
	l0.396-5.109h-2.747c-1.139,0-2.184,0.129-3.144,0.391l-1.178-1.178h6.807l1.178-1.178l1.961,1.965l-1.18,0.654l-0.391,4.455h1.57
	l1.441-1.435l2.094,2.223h-11.649c-1.133,0-2.178,0.129-3.138,0.393l-1.178-1.18L120.477,11.703L120.477,11.703z M116.813,14.178
	l-0.915,0.787l-0.782,1.697h6.936l1.439-1.436l2.094,2.223h-6.281c-0.089,1.307-0.223,2.926-0.396,4.842h4.975l1.441-1.436
	l2.094,2.223h-7.857c1.747,4.631,4.321,7.293,7.724,7.992v0.396c-1.135,0-1.922,0.436-2.357,1.307
	c-2.875-1.742-4.842-4.971-5.886-9.684h-0.262c-1.223,4.971-4.015,8.377-8.376,10.207l-0.134-0.523
	c3.49-2.273,5.763-5.502,6.807-9.695h-2.619c-1.134,0-2.178,0.129-3.138,0.391l-1.179-1.178h7.07
	c0.173-1.742,0.302-3.356,0.391-4.842h-2.748c-0.96,1.57-1.921,2.838-2.881,3.797l-0.391-0.262c0.871-1.568,1.547-3.076,2.027-4.518
	c0.48-1.439,0.765-2.596,0.849-3.467L116.813,14.178L116.813,14.178z M97.441,5.148c2.094,1.223,3.752,2.529,4.976,3.926
	c0.871-1.307,1.787-3.01,2.748-5.106l2.094,1.703l-0.916,0.52c-1.223,1.658-2.267,3.055-3.138,4.195
	c1.307,3.227,1.982,6.979,2.027,11.258c0.045,4.277-0.218,7.092-0.787,8.447c-0.564,1.352-1.592,2.418-3.071,3.205
	c-0.263-1.049-1.223-1.92-2.882-2.617v-0.393c0.698,0.174,1.441,0.264,2.223,0.264c0.525,0,1.027-0.066,1.508-0.201
	c0.48-0.129,0.849-1.156,1.111-3.078c0.263-1.914,0.308-5.059,0.134-9.426c-1.748,3.145-3.97,5.719-6.679,7.729l-0.128-0.523
	c2.267-2.357,4.361-5.59,6.282-9.689c-0.263-1.574-0.569-2.881-0.916-3.932c-1.485,1.748-3.144,3.234-4.976,4.451l-0.263-0.391
	c1.659-1.658,3.228-3.445,4.713-5.367c-1.044-1.484-2.485-3.016-4.317-4.584L97.441,5.148L97.441,5.148z M12.792,18.988
	c-0.128-0.004-0.29-0.006-0.481-0.008c-0.192,0-0.401-0.004-0.628-0.008s-0.461-0.004-0.708-0.006
	c-0.245-0.002-0.485-0.004-0.72-0.006c-0.233-0.002-0.457,0-0.668,0.004c-0.212,0.002-0.396,0.006-0.554,0.014v1.43
	c0,0.271,0.005,0.51,0.011,0.715c0.008,0.205,0.018,0.379,0.03,0.527c0.011,0.146,0.026,0.269,0.043,0.371
	c0.018,0.098,0.036,0.182,0.056,0.25v0.02H8.018v-0.02c0.019-0.068,0.038-0.152,0.056-0.25c0.016-0.102,0.033-0.225,0.044-0.371
	c0.013-0.149,0.023-0.322,0.03-0.527c0.006-0.205,0.01-0.443,0.01-0.715v-3.135c0-0.271-0.003-0.51-0.01-0.715
	c-0.007-0.203-0.017-0.379-0.03-0.527c-0.011-0.15-0.028-0.275-0.044-0.373c-0.018-0.102-0.037-0.184-0.056-0.252v-0.018h1.155
	v0.018c-0.02,0.068-0.038,0.15-0.056,0.252c-0.017,0.098-0.031,0.223-0.043,0.373c-0.012,0.148-0.021,0.324-0.03,0.527
	c-0.006,0.205-0.011,0.443-0.011,0.715v1.233C9.2,18.514,9.39,18.518,9.601,18.52c0.212,0.002,0.434,0.002,0.663,0
	c0.232-0.002,0.467-0.006,0.705-0.008c0.24-0.004,0.47-0.008,0.693-0.012c0.224-0.006,0.432-0.01,0.626-0.018
	c0.194-0.006,0.361-0.012,0.503-0.019v-1.19c0-0.271-0.003-0.51-0.012-0.715c-0.008-0.203-0.018-0.379-0.029-0.527
	c-0.012-0.15-0.025-0.275-0.043-0.373c-0.018-0.102-0.036-0.184-0.056-0.252v-0.018h1.155v0.018
	c-0.018,0.068-0.038,0.15-0.054,0.252c-0.019,0.098-0.033,0.223-0.046,0.373c-0.013,0.148-0.023,0.324-0.029,0.527
	c-0.007,0.205-0.01,0.443-0.01,0.715v3.135c0,0.271,0.003,0.51,0.01,0.715c0.006,0.205,0.016,0.379,0.029,0.527
	c0.013,0.146,0.028,0.269,0.046,0.371c0.016,0.098,0.036,0.182,0.054,0.25v0.02h-1.155v-0.02c0.02-0.068,0.038-0.152,0.056-0.25
	c0.018-0.102,0.031-0.225,0.043-0.371c0.011-0.149,0.021-0.322,0.029-0.527s0.012-0.443,0.012-0.715L12.792,18.988L12.792,18.988z
	 M19.959,22.291v-0.02c0.007-0.016,0.011-0.041,0.015-0.072c0.003-0.031,0.005-0.063,0.005-0.086c0-0.102-0.013-0.211-0.041-0.33
	c-0.028-0.121-0.079-0.272-0.156-0.451l-0.583-1.309c-0.179-0.008-0.419-0.01-0.716-0.01c-0.299,0-0.621,0-0.968,0
	c-0.253,0-0.498,0-0.734,0c-0.235,0-0.449,0.002-0.638,0.01l-0.554,1.271c-0.048,0.117-0.099,0.248-0.154,0.389
	c-0.054,0.143-0.081,0.285-0.081,0.43c0,0.041,0.002,0.076,0.008,0.103c0.007,0.025,0.014,0.043,0.02,0.055v0.02h-0.983v-0.02
	c0.06-0.061,0.132-0.17,0.217-0.324c0.087-0.156,0.182-0.352,0.284-0.586l2.759-6.117h0.384l2.614,5.881
	c0.061,0.139,0.125,0.273,0.19,0.402c0.066,0.131,0.127,0.246,0.186,0.35c0.058,0.102,0.109,0.188,0.153,0.26
	c0.046,0.07,0.075,0.115,0.092,0.135v0.02h-1.319V22.291z M16.841,19.6c0.186,0,0.377,0,0.572-0.002
	c0.197-0.002,0.388-0.004,0.577-0.006c0.188-0.002,0.368-0.002,0.541-0.004c0.174-0.002,0.33-0.006,0.471-0.006l-1.352-3.059
	L16.32,19.6H16.841L16.841,19.6z M22.886,19.234c0.315,0.057,0.603,0.062,0.864,0.016c0.261-0.045,0.486-0.146,0.673-0.299
	c0.188-0.152,0.334-0.358,0.439-0.617c0.104-0.26,0.156-0.578,0.156-0.953c0-0.26-0.027-0.498-0.082-0.709
	c-0.055-0.215-0.135-0.396-0.243-0.547c-0.107-0.147-0.244-0.264-0.406-0.344c-0.164-0.082-0.355-0.123-0.573-0.123
	c-0.138,0-0.258,0.004-0.361,0.016c-0.102,0.012-0.189,0.024-0.26,0.035c-0.084,0.018-0.153,0.035-0.207,0.053L22.886,19.234
	L22.886,19.234z M21.871,15.389c0.064,0.006,0.131,0.012,0.202,0.018c0.061,0.006,0.13,0.012,0.205,0.014c0.074,0,0.153,0,0.233,0
	c0.125,0,0.294-0.014,0.508-0.045c0.213-0.029,0.484-0.045,0.815-0.045c0.309,0,0.593,0.045,0.855,0.135
	c0.263,0.09,0.489,0.221,0.682,0.395c0.192,0.172,0.342,0.385,0.45,0.633c0.107,0.25,0.161,0.531,0.161,0.85
	c0,0.428-0.085,0.797-0.254,1.107c-0.171,0.312-0.399,0.562-0.683,0.756c-0.286,0.191-0.615,0.324-0.988,0.393
	c-0.373,0.068-0.763,0.072-1.17,0.012v0.799c0,0.271,0.005,0.51,0.012,0.715c0.008,0.205,0.017,0.379,0.029,0.527
	c0.011,0.146,0.026,0.269,0.043,0.371c0.018,0.098,0.036,0.182,0.056,0.25v0.02h-1.155v-0.02c0.019-0.068,0.038-0.152,0.056-0.25
	c0.017-0.102,0.033-0.225,0.044-0.371c0.013-0.149,0.023-0.322,0.029-0.527c0.007-0.205,0.01-0.443,0.01-0.715v-3.135
	c0-0.271-0.003-0.51-0.01-0.715c-0.006-0.203-0.016-0.379-0.029-0.527c-0.012-0.15-0.028-0.275-0.044-0.373
	c-0.018-0.102-0.036-0.184-0.056-0.252L21.871,15.389L21.871,15.389z M27.935,19.234c0.315,0.057,0.603,0.062,0.864,0.016
	c0.261-0.045,0.486-0.146,0.673-0.299c0.188-0.152,0.333-0.358,0.439-0.617c0.103-0.26,0.156-0.578,0.156-0.953
	c0-0.26-0.028-0.498-0.083-0.709c-0.054-0.215-0.135-0.396-0.243-0.547c-0.107-0.147-0.243-0.264-0.406-0.344
	c-0.164-0.082-0.355-0.123-0.574-0.123c-0.138,0-0.257,0.004-0.361,0.016c-0.102,0.012-0.19,0.024-0.26,0.035
	c-0.084,0.018-0.153,0.035-0.207,0.053v3.472H27.935z M26.919,15.389c0.064,0.006,0.131,0.012,0.202,0.018
	c0.061,0.006,0.13,0.012,0.205,0.014c0.074,0,0.153,0,0.234,0c0.125,0,0.294-0.014,0.507-0.045c0.214-0.029,0.485-0.045,0.815-0.045
	c0.309,0,0.593,0.045,0.854,0.135c0.263,0.09,0.49,0.221,0.682,0.395c0.192,0.172,0.342,0.385,0.45,0.633
	c0.107,0.25,0.161,0.531,0.161,0.85c0,0.428-0.086,0.797-0.255,1.107c-0.171,0.312-0.399,0.562-0.684,0.756
	c-0.286,0.191-0.615,0.324-0.987,0.393c-0.373,0.068-0.763,0.072-1.17,0.012v0.799c0,0.271,0.005,0.51,0.011,0.715
	c0.008,0.205,0.019,0.379,0.03,0.527c0.012,0.146,0.026,0.269,0.042,0.371c0.018,0.098,0.037,0.182,0.056,0.25v0.02h-1.155v-0.02
	c0.02-0.068,0.038-0.152,0.056-0.25c0.017-0.102,0.033-0.225,0.045-0.371c0.013-0.149,0.023-0.322,0.029-0.527
	c0.006-0.205,0.01-0.443,0.01-0.715v-3.135c0-0.271-0.003-0.51-0.01-0.715c-0.006-0.203-0.017-0.379-0.029-0.527
	c-0.012-0.15-0.028-0.275-0.045-0.373c-0.018-0.102-0.036-0.184-0.056-0.252v-0.02H26.919z M34.78,18.979v1.43
	c0,0.271,0.003,0.51,0.01,0.715c0.006,0.205,0.016,0.379,0.028,0.527c0.013,0.146,0.028,0.269,0.046,0.371
	c0.018,0.098,0.036,0.182,0.056,0.25v0.02h-1.155v-0.02c0.018-0.068,0.038-0.152,0.054-0.25c0.018-0.102,0.033-0.225,0.045-0.371
	c0.011-0.149,0.019-0.322,0.028-0.527c0.008-0.205,0.013-0.443,0.013-0.715v-1.334l-2.152-2.926c-0.073-0.1-0.146-0.191-0.218-0.273
	c-0.072-0.084-0.141-0.158-0.205-0.221c-0.064-0.062-0.122-0.113-0.173-0.156c-0.051-0.041-0.092-0.072-0.12-0.092v-0.018h1.458
	c0,0.072,0.031,0.193,0.093,0.361c0.064,0.17,0.176,0.367,0.34,0.596l1.579,2.16l1.545-2.258c0.056-0.08,0.11-0.16,0.164-0.244
	s0.104-0.164,0.149-0.242c0.044-0.076,0.08-0.146,0.109-0.211c0.026-0.064,0.041-0.119,0.041-0.162h0.938v0.018
	c-0.071,0.062-0.166,0.152-0.284,0.271c-0.118,0.121-0.247,0.279-0.385,0.481L34.78,18.979L34.78,18.979z M41.318,15.389
	l4.958,5.275v-3.391c0-0.271-0.003-0.51-0.01-0.715c-0.006-0.203-0.017-0.379-0.03-0.527c-0.013-0.15-0.027-0.275-0.046-0.373
	c-0.016-0.102-0.036-0.184-0.054-0.252v-0.018h0.856v0.018c-0.02,0.068-0.037,0.15-0.053,0.252
	c-0.017,0.098-0.031,0.223-0.043,0.373c-0.013,0.148-0.023,0.324-0.029,0.527c-0.007,0.205-0.01,0.443-0.01,0.715v5.113H46.69
	l-4.959-5.269v3.291c0,0.271,0.004,0.51,0.01,0.715c0.006,0.205,0.016,0.379,0.028,0.527c0.013,0.146,0.028,0.269,0.044,0.371
	c0.016,0.098,0.033,0.182,0.053,0.25v0.02H41.01v-0.02c0.018-0.068,0.037-0.152,0.054-0.25c0.019-0.102,0.033-0.225,0.046-0.371
	c0.013-0.149,0.023-0.322,0.029-0.527c0.007-0.205,0.008-0.443,0.008-0.715v-3.135c0-0.271-0.001-0.51-0.008-0.715
	c-0.006-0.203-0.016-0.379-0.029-0.527c-0.013-0.15-0.028-0.275-0.046-0.373c-0.018-0.102-0.036-0.184-0.054-0.252v-0.018h0.308
	V15.389z M48.332,15.389c0.401,0,0.8-0.002,1.196-0.006s0.759-0.008,1.091-0.012c0.33-0.004,0.613-0.014,0.846-0.023
	c0.235-0.008,0.393-0.02,0.477-0.037l-0.235,0.641c-0.107-0.029-0.23-0.055-0.371-0.076c-0.122-0.022-0.27-0.039-0.445-0.057
	c-0.174-0.018-0.376-0.025-0.604-0.025c-0.076,0-0.169,0-0.276,0.006c-0.107,0.004-0.21,0.012-0.311,0.018
	c-0.115,0.006-0.233,0.012-0.351,0.018v2.629c0.33-0.002,0.629-0.012,0.896-0.029c0.266-0.014,0.493-0.031,0.679-0.047
	c0.218-0.019,0.411-0.041,0.578-0.068l-0.149,0.699c-0.222-0.029-0.449-0.057-0.679-0.082c-0.199-0.023-0.416-0.043-0.65-0.06
	c-0.233-0.018-0.459-0.027-0.674-0.027v3.02c0.379,0,0.728-0.018,1.045-0.049c0.317-0.033,0.595-0.068,0.833-0.109
	c0.276-0.047,0.528-0.1,0.756-0.16l-0.14,0.779c-0.04-0.004-0.097-0.004-0.174-0.008s-0.163-0.008-0.258-0.01
	c-0.094-0.004-0.194-0.008-0.298-0.008c-0.104-0.002-0.203-0.004-0.295-0.006c-0.094-0.002-0.176-0.004-0.248-0.006
	c-0.072,0-0.125,0-0.156,0h-2.081v-0.02c0.02-0.068,0.038-0.152,0.056-0.25c0.016-0.102,0.033-0.225,0.044-0.371
	c0.013-0.149,0.023-0.322,0.029-0.527s0.01-0.443,0.01-0.715v-3.135c0-0.271-0.003-0.51-0.01-0.715
	c-0.006-0.203-0.017-0.379-0.029-0.527c-0.012-0.15-0.028-0.275-0.044-0.373c-0.019-0.102-0.036-0.184-0.056-0.252v-0.02H48.332z
	 M57.67,16.299l1.925,4.672l1.873-4.588c0.074-0.188,0.128-0.35,0.163-0.48c0.036-0.131,0.052-0.244,0.052-0.338
	c0-0.027,0-0.057-0.003-0.088s-0.008-0.055-0.015-0.07v-0.018h0.953v0.018c-0.064,0.07-0.135,0.184-0.21,0.338
	c-0.074,0.152-0.163,0.346-0.261,0.572l-2.571,6.123h-0.365l-1.873-4.545l-1.709,4.545h-0.361l-2.358-5.887
	c-0.058-0.139-0.117-0.271-0.176-0.398c-0.059-0.131-0.117-0.246-0.169-0.348c-0.052-0.104-0.1-0.191-0.145-0.262
	c-0.043-0.068-0.074-0.115-0.094-0.139v-0.018h1.334v0.018c-0.006,0.035-0.01,0.064-0.01,0.082c0,0.019,0,0.043,0,0.066
	c0,0.111,0.011,0.227,0.036,0.348c0.023,0.123,0.07,0.27,0.141,0.443l1.811,4.572l1.729-4.602L57.67,16.299L57.67,16.299z
	 M68.93,18.979v1.43c0,0.271,0.003,0.51,0.01,0.715s0.017,0.379,0.028,0.527c0.014,0.146,0.028,0.269,0.046,0.371
	c0.018,0.098,0.036,0.182,0.056,0.25v0.02h-1.155v-0.02c0.018-0.068,0.038-0.152,0.054-0.25c0.018-0.102,0.033-0.225,0.044-0.371
	c0.011-0.149,0.02-0.322,0.028-0.527s0.013-0.443,0.013-0.715v-1.334l-2.152-2.926c-0.074-0.1-0.146-0.191-0.218-0.273
	c-0.072-0.084-0.141-0.158-0.206-0.221c-0.064-0.062-0.122-0.113-0.172-0.156c-0.051-0.041-0.092-0.072-0.12-0.092v-0.018h1.458
	c0,0.072,0.031,0.193,0.094,0.361c0.064,0.17,0.176,0.367,0.34,0.596l1.579,2.16l1.544-2.258c0.056-0.08,0.11-0.16,0.165-0.244
	c0.054-0.084,0.104-0.164,0.149-0.242c0.044-0.076,0.081-0.146,0.108-0.211c0.026-0.064,0.041-0.119,0.041-0.162h0.938v0.018
	c-0.071,0.062-0.166,0.152-0.285,0.271c-0.118,0.121-0.247,0.279-0.384,0.481L68.93,18.979L68.93,18.979z M72.242,15.389
	c0.401,0,0.8-0.002,1.196-0.006c0.396-0.004,0.759-0.008,1.091-0.012c0.33-0.004,0.613-0.014,0.846-0.023
	c0.235-0.008,0.393-0.02,0.477-0.037l-0.235,0.641c-0.107-0.029-0.23-0.055-0.372-0.076c-0.122-0.022-0.269-0.039-0.445-0.057
	c-0.174-0.018-0.376-0.025-0.604-0.025c-0.076,0-0.169,0-0.276,0.006c-0.106,0.004-0.21,0.012-0.31,0.018
	c-0.115,0.006-0.233,0.012-0.352,0.018v2.629c0.331-0.002,0.629-0.012,0.896-0.029c0.266-0.014,0.493-0.031,0.679-0.047
	c0.219-0.019,0.411-0.041,0.579-0.068l-0.15,0.699c-0.222-0.029-0.448-0.057-0.679-0.082c-0.198-0.023-0.415-0.043-0.65-0.06
	c-0.233-0.018-0.459-0.027-0.674-0.027v3.02c0.38,0,0.728-0.018,1.045-0.049c0.317-0.033,0.595-0.068,0.833-0.109
	c0.276-0.047,0.527-0.1,0.756-0.16l-0.14,0.779c-0.039-0.004-0.097-0.004-0.174-0.008s-0.163-0.008-0.258-0.01
	c-0.094-0.004-0.194-0.008-0.297-0.008c-0.105-0.002-0.204-0.004-0.296-0.006c-0.094-0.002-0.176-0.004-0.248-0.006
	c-0.072,0-0.125,0-0.156,0h-2.08v-0.02c0.02-0.068,0.038-0.152,0.056-0.25c0.017-0.102,0.033-0.225,0.044-0.371
	c0.013-0.149,0.023-0.322,0.03-0.527c0.006-0.205,0.01-0.443,0.01-0.715v-3.135c0-0.271-0.003-0.51-0.01-0.715
	c-0.007-0.203-0.017-0.379-0.03-0.527c-0.012-0.15-0.028-0.275-0.044-0.373c-0.018-0.102-0.036-0.184-0.056-0.252v-0.02H72.242z
	 M81.849,22.291v-0.02c0.007-0.016,0.012-0.041,0.015-0.072s0.005-0.063,0.005-0.086c0-0.102-0.013-0.211-0.041-0.33
	c-0.028-0.121-0.079-0.272-0.156-0.451l-0.583-1.309c-0.179-0.008-0.419-0.01-0.717-0.01c-0.298,0-0.621,0-0.967,0
	c-0.253,0-0.498,0-0.734,0c-0.235,0-0.449,0.002-0.638,0.01l-0.554,1.271c-0.047,0.117-0.099,0.248-0.154,0.389
	c-0.054,0.143-0.08,0.285-0.08,0.43c0,0.041,0.001,0.076,0.008,0.103c0.007,0.025,0.014,0.043,0.02,0.055v0.02H76.29v-0.02
	c0.06-0.061,0.132-0.17,0.217-0.324c0.087-0.156,0.182-0.352,0.284-0.586l2.759-6.117h0.384l2.614,5.881
	c0.061,0.139,0.125,0.273,0.19,0.402c0.066,0.131,0.127,0.246,0.186,0.35c0.058,0.102,0.109,0.188,0.153,0.26
	c0.045,0.07,0.075,0.115,0.092,0.135v0.02h-1.32V22.291z M78.73,19.6c0.186,0,0.376,0,0.572-0.002
	c0.197-0.002,0.388-0.004,0.577-0.006c0.187-0.002,0.368-0.002,0.541-0.004c0.174-0.002,0.33-0.006,0.471-0.006l-1.352-3.059
	L78.21,19.6H78.73L78.73,19.6z M84.775,20.408c0,0.271,0.005,0.51,0.012,0.715c0.008,0.205,0.018,0.379,0.029,0.527
	c0.011,0.146,0.026,0.269,0.043,0.371c0.018,0.098,0.036,0.182,0.056,0.25v0.02H83.76v-0.02c0.02-0.068,0.038-0.152,0.056-0.25
	c0.017-0.102,0.031-0.225,0.043-0.371c0.011-0.149,0.021-0.322,0.029-0.525c0.006-0.201,0.012-0.441,0.012-0.717v-3.135
	c0-0.271-0.005-0.51-0.012-0.715c-0.008-0.203-0.018-0.379-0.029-0.527c-0.012-0.146-0.026-0.27-0.043-0.373
	c-0.018-0.1-0.036-0.184-0.056-0.252v-0.018l0.202,0.018c0.061,0.006,0.13,0.012,0.206,0.014c0.074,0,0.153,0,0.233,0
	c0.125,0,0.294-0.014,0.508-0.045c0.213-0.029,0.484-0.045,0.814-0.045c0.309,0,0.594,0.041,0.855,0.125
	c0.263,0.084,0.489,0.205,0.682,0.365c0.192,0.16,0.342,0.357,0.45,0.59c0.107,0.232,0.161,0.498,0.161,0.791
	c0,0.232-0.03,0.445-0.089,0.642c-0.059,0.199-0.143,0.377-0.251,0.537c-0.107,0.162-0.237,0.303-0.387,0.426
	c-0.151,0.125-0.32,0.229-0.506,0.311l1.689,2.375c0.084,0.117,0.161,0.221,0.233,0.307c0.072,0.088,0.141,0.162,0.207,0.225
	s0.13,0.113,0.191,0.154c0.061,0.041,0.123,0.072,0.187,0.094v0.02h-1.39c-0.01-0.061-0.041-0.143-0.095-0.244
	c-0.053-0.102-0.113-0.201-0.184-0.301l-1.704-2.402c-0.074,0.008-0.148,0.012-0.221,0.018c-0.074,0.004-0.15,0.008-0.227,0.008
	c-0.09,0-0.181-0.004-0.271-0.01c-0.092-0.008-0.184-0.018-0.278-0.035L84.775,20.408L84.775,20.408z M84.775,18.949
	c0.087,0.019,0.176,0.033,0.265,0.041c0.09,0.01,0.177,0.012,0.259,0.012c0.242,0,0.462-0.035,0.661-0.107
	c0.199-0.072,0.368-0.184,0.508-0.33c0.14-0.146,0.248-0.33,0.325-0.551c0.077-0.221,0.115-0.478,0.115-0.773
	c0-0.24-0.027-0.459-0.082-0.654s-0.135-0.361-0.243-0.498c-0.107-0.137-0.244-0.242-0.406-0.316
	c-0.164-0.076-0.355-0.113-0.573-0.113c-0.222,0-0.397,0.01-0.529,0.031c-0.132,0.023-0.232,0.049-0.299,0.072v3.186H84.775z
	 M134.804,18.973v1.367c0,0.26,0.002,0.488,0.01,0.686c0.006,0.195,0.016,0.361,0.025,0.502c0.014,0.143,0.027,0.26,0.045,0.355
	c0.018,0.094,0.035,0.174,0.053,0.24v0.018h-1.105v-0.018c0.018-0.066,0.037-0.146,0.053-0.24c0.018-0.096,0.031-0.213,0.043-0.355
	c0.01-0.141,0.017-0.307,0.025-0.502c0.008-0.197,0.014-0.426,0.014-0.686v-1.275l-2.059-2.799c-0.07-0.096-0.141-0.184-0.209-0.262
	c-0.07-0.08-0.137-0.152-0.197-0.211c-0.061-0.061-0.117-0.109-0.166-0.15c-0.047-0.039-0.088-0.068-0.113-0.088v-0.018h1.395
	c0,0.072,0.029,0.186,0.088,0.348c0.062,0.162,0.17,0.351,0.326,0.57l1.51,2.066l1.479-2.16c0.053-0.076,0.105-0.154,0.156-0.234
	c0.053-0.08,0.1-0.156,0.145-0.23c0.041-0.074,0.076-0.141,0.104-0.203c0.025-0.061,0.039-0.113,0.039-0.156h0.896v0.018
	c-0.066,0.061-0.158,0.147-0.271,0.262s-0.236,0.268-0.367,0.459L134.804,18.973L134.804,18.973z M137.972,15.537
	c0.385,0,0.766,0,1.145-0.004s0.727-0.008,1.043-0.012s0.588-0.012,0.811-0.021c0.225-0.008,0.375-0.02,0.455-0.035l-0.225,0.611
	c-0.102-0.027-0.219-0.053-0.355-0.072c-0.115-0.02-0.258-0.037-0.426-0.055c-0.166-0.018-0.359-0.025-0.578-0.025
	c-0.072,0-0.162,0.002-0.264,0.008c-0.102,0.004-0.201,0.01-0.297,0.018c-0.111,0.004-0.225,0.01-0.338,0.016v2.516
	c0.316-0.004,0.604-0.014,0.857-0.029c0.254-0.014,0.473-0.029,0.65-0.045c0.207-0.02,0.393-0.039,0.553-0.064l-0.143,0.668
	c-0.213-0.027-0.43-0.053-0.65-0.078c-0.189-0.021-0.396-0.041-0.623-0.059c-0.223-0.016-0.438-0.025-0.645-0.025v2.889
	c0.365,0,0.697-0.018,1-0.047c0.305-0.031,0.57-0.066,0.797-0.105c0.266-0.043,0.506-0.094,0.725-0.152l-0.135,0.746
	c-0.037-0.004-0.092-0.006-0.166-0.008c-0.074-0.004-0.156-0.008-0.248-0.01c-0.088-0.004-0.184-0.006-0.283-0.008
	c-0.101-0.002-0.195-0.004-0.283-0.006c-0.09,0-0.168-0.002-0.238-0.004c-0.068-0.002-0.119-0.002-0.148-0.002h-1.99v-0.018
	c0.02-0.066,0.037-0.146,0.055-0.24c0.016-0.096,0.031-0.213,0.041-0.355c0.014-0.141,0.023-0.307,0.029-0.502
	c0.006-0.197,0.01-0.426,0.01-0.686v-2.998c0-0.26-0.004-0.488-0.01-0.684c-0.006-0.195-0.016-0.363-0.029-0.506
	c-0.01-0.142-0.025-0.262-0.041-0.357c-0.018-0.096-0.035-0.174-0.055-0.24L137.972,15.537L137.972,15.537z M147.161,22.141v-0.018
	c0.008-0.016,0.012-0.039,0.016-0.07c0.002-0.029,0.004-0.059,0.004-0.082c0-0.096-0.012-0.201-0.039-0.316
	c-0.027-0.113-0.076-0.258-0.148-0.43l-0.559-1.252c-0.172-0.008-0.4-0.01-0.686-0.01c-0.285,0-0.594,0-0.926,0
	c-0.242,0-0.477,0-0.703,0c-0.225,0-0.428,0.002-0.609,0.01l-0.529,1.215c-0.045,0.113-0.094,0.238-0.148,0.373
	c-0.051,0.135-0.076,0.271-0.076,0.41c0,0.039,0.002,0.072,0.008,0.1c0.006,0.025,0.012,0.043,0.018,0.053v0.018h-0.939v-0.018
	c0.057-0.059,0.127-0.162,0.209-0.31c0.082-0.148,0.174-0.336,0.271-0.561l2.639-5.852h0.367l2.502,5.627
	c0.057,0.131,0.119,0.26,0.182,0.385c0.062,0.123,0.121,0.234,0.178,0.332c0.055,0.098,0.104,0.182,0.146,0.248
	c0.043,0.068,0.072,0.113,0.088,0.131v0.018L147.161,22.141L147.161,22.141z M144.179,19.566c0.178,0,0.359,0,0.547-0.002
	c0.189-0.002,0.371-0.002,0.553-0.004c0.178-0.002,0.352-0.004,0.516-0.006c0.168,0,0.316-0.004,0.451-0.006l-1.293-2.924
	l-1.271,2.941h0.497V19.566z M149.962,20.34c0,0.26,0.004,0.488,0.01,0.686c0.008,0.195,0.018,0.361,0.029,0.502
	c0.01,0.143,0.025,0.26,0.041,0.355c0.018,0.094,0.035,0.174,0.053,0.24v0.018h-1.105v-0.018c0.019-0.066,0.037-0.146,0.055-0.24
	c0.016-0.096,0.029-0.213,0.041-0.355c0.01-0.141,0.02-0.307,0.027-0.5c0.006-0.193,0.012-0.424,0.012-0.688v-2.998
	c0-0.26-0.006-0.488-0.012-0.684c-0.008-0.195-0.018-0.363-0.027-0.504c-0.012-0.141-0.025-0.26-0.041-0.357
	c-0.018-0.096-0.035-0.176-0.055-0.242v-0.018l0.193,0.018c0.059,0.006,0.125,0.012,0.197,0.014c0.07,0,0.146,0,0.223,0
	c0.119,0,0.281-0.014,0.486-0.043c0.205-0.029,0.463-0.043,0.779-0.043c0.295,0,0.568,0.039,0.818,0.119
	c0.25,0.08,0.467,0.197,0.65,0.35c0.186,0.154,0.328,0.344,0.432,0.564c0.102,0.223,0.154,0.477,0.154,0.758
	c0,0.221-0.029,0.426-0.086,0.615c-0.057,0.189-0.135,0.359-0.24,0.514c-0.102,0.152-0.227,0.289-0.369,0.406
	c-0.145,0.119-0.307,0.219-0.484,0.297l1.617,2.271c0.08,0.113,0.152,0.211,0.223,0.295c0.068,0.082,0.135,0.152,0.197,0.213
	c0.064,0.06,0.125,0.109,0.184,0.148c0.057,0.039,0.117,0.068,0.178,0.09v0.018h-1.328c-0.01-0.059-0.041-0.135-0.092-0.232
	s-0.109-0.193-0.176-0.287l-1.631-2.299c-0.07,0.008-0.141,0.012-0.211,0.016c-0.072,0.006-0.145,0.008-0.217,0.008
	c-0.088,0-0.174-0.002-0.26-0.01c-0.088-0.006-0.176-0.016-0.266-0.031L149.962,20.34L149.962,20.34z M149.962,18.945
	c0.082,0.018,0.168,0.031,0.252,0.039c0.088,0.008,0.17,0.012,0.25,0.012c0.23,0,0.441-0.035,0.631-0.104
	c0.189-0.07,0.352-0.176,0.486-0.316c0.133-0.141,0.236-0.316,0.311-0.527c0.074-0.209,0.109-0.457,0.109-0.738
	c0-0.23-0.025-0.439-0.078-0.627c-0.051-0.188-0.129-0.346-0.232-0.477c-0.102-0.131-0.232-0.23-0.389-0.303
	c-0.156-0.072-0.34-0.109-0.549-0.109c-0.211,0-0.379,0.012-0.506,0.033c-0.125,0.022-0.221,0.045-0.285,0.068L149.962,18.945
	L149.962,18.945z M160.401,15.426c0.512,0,0.984,0.086,1.42,0.252c0.434,0.168,0.811,0.402,1.127,0.705
	c0.314,0.303,0.562,0.666,0.74,1.088c0.178,0.426,0.268,0.893,0.268,1.406c0,0.291-0.035,0.578-0.102,0.861
	c-0.068,0.281-0.166,0.547-0.297,0.799c-0.131,0.254-0.291,0.486-0.48,0.699c-0.191,0.213-0.408,0.396-0.652,0.553
	c-0.244,0.154-0.514,0.275-0.809,0.363s-0.611,0.131-0.953,0.131c-0.512,0-0.984-0.08-1.42-0.246
	c-0.434-0.164-0.811-0.396-1.125-0.697c-0.316-0.301-0.564-0.662-0.742-1.086c-0.178-0.42-0.268-0.891-0.268-1.406
	c0-0.291,0.035-0.578,0.102-0.861c0.068-0.281,0.168-0.549,0.297-0.805c0.131-0.254,0.289-0.488,0.479-0.703
	c0.189-0.213,0.406-0.397,0.648-0.555c0.246-0.156,0.516-0.277,0.812-0.365C159.743,15.471,160.06,15.426,160.401,15.426
	L160.401,15.426z M160.663,21.869c0.342,0,0.652-0.06,0.936-0.184c0.281-0.123,0.525-0.301,0.73-0.535
	c0.203-0.232,0.361-0.518,0.475-0.854c0.115-0.336,0.172-0.719,0.172-1.145c0-0.473-0.055-0.91-0.164-1.314
	c-0.109-0.404-0.271-0.754-0.484-1.051c-0.215-0.295-0.484-0.527-0.805-0.693c-0.322-0.17-0.695-0.252-1.121-0.252
	c-0.342,0-0.652,0.061-0.936,0.182c-0.281,0.121-0.525,0.297-0.729,0.527c-0.205,0.23-0.363,0.514-0.477,0.846
	c-0.115,0.336-0.172,0.717-0.172,1.143c0,0.471,0.053,0.91,0.162,1.314c0.107,0.408,0.27,0.76,0.482,1.059
	c0.215,0.297,0.484,0.531,0.807,0.703C159.862,21.785,160.237,21.869,160.663,21.869L160.663,21.869z M165.964,20.34
	c0,0.26,0.004,0.488,0.01,0.686c0.008,0.195,0.018,0.361,0.029,0.502c0.012,0.143,0.025,0.26,0.041,0.355
	c0.018,0.094,0.035,0.174,0.053,0.24v0.018h-1.104v-0.018c0.018-0.066,0.035-0.146,0.053-0.24c0.016-0.096,0.031-0.213,0.043-0.355
	c0.012-0.141,0.021-0.307,0.027-0.502c0.006-0.197,0.01-0.426,0.01-0.686v-2.998c0-0.26-0.004-0.488-0.01-0.684
	c-0.006-0.195-0.016-0.363-0.027-0.506c-0.012-0.142-0.027-0.262-0.043-0.357c-0.018-0.096-0.035-0.174-0.053-0.24v-0.018
	c0.254,0,0.512,0,0.771-0.002c0.262-0.002,0.516-0.004,0.762-0.006c0.246,0,0.479-0.004,0.699-0.008
	c0.221-0.004,0.42-0.01,0.6-0.014c0.178-0.004,0.328-0.012,0.451-0.018c0.121-0.01,0.209-0.018,0.262-0.025l-0.227,0.611
	c-0.1-0.027-0.219-0.053-0.354-0.072c-0.117-0.02-0.26-0.037-0.426-0.055c-0.168-0.018-0.359-0.025-0.578-0.025
	c-0.074,0-0.166,0.002-0.277,0.008c-0.109,0.004-0.219,0.01-0.326,0.018c-0.123,0.004-0.252,0.01-0.387,0.016v2.326
	c0.316-0.002,0.605-0.012,0.871-0.027c0.264-0.016,0.49-0.029,0.68-0.047c0.223-0.018,0.422-0.039,0.6-0.062l-0.139,0.668
	c-0.23-0.029-0.465-0.057-0.699-0.08c-0.203-0.022-0.422-0.041-0.654-0.059c-0.232-0.016-0.453-0.023-0.658-0.023L165.964,20.34
	L165.964,20.34z M173.948,15.943c-0.361,0-0.689,0.016-0.98,0.047c-0.291,0.033-0.543,0.068-0.754,0.103
	c-0.246,0.047-0.467,0.098-0.66,0.152l0.135-0.746c0.035,0.004,0.092,0.006,0.164,0.01c0.074,0.002,0.158,0.006,0.248,0.01
	c0.09,0.002,0.186,0.006,0.285,0.008c0.1,0,0.193,0.002,0.283,0.002c0.09,0.002,0.168,0.004,0.236,0.006
	c0.07,0.002,0.121,0.002,0.15,0.002h2.629c0.029,0,0.08,0,0.15-0.002c0.068-0.002,0.146-0.004,0.236-0.006
	c0.09,0,0.184-0.002,0.283-0.002c0.102-0.002,0.195-0.006,0.285-0.008c0.092-0.004,0.174-0.008,0.248-0.01
	c0.074-0.004,0.129-0.006,0.164-0.01l0.135,0.746c-0.197-0.055-0.418-0.105-0.664-0.152c-0.211-0.035-0.463-0.07-0.754-0.103
	c-0.293-0.031-0.619-0.047-0.98-0.047v4.396c0,0.26,0.002,0.488,0.01,0.686c0.008,0.195,0.018,0.361,0.029,0.502
	c0.01,0.143,0.023,0.26,0.041,0.355c0.018,0.094,0.033,0.174,0.053,0.24v0.018h-1.102v-0.018c0.02-0.066,0.037-0.146,0.053-0.24
	c0.014-0.096,0.027-0.213,0.039-0.355c0.014-0.141,0.023-0.307,0.029-0.502c0.004-0.197,0.008-0.426,0.008-0.686v-4.396H173.948z
	 M182.411,18.982c-0.121-0.004-0.275-0.006-0.459-0.008c-0.184,0-0.385-0.004-0.602-0.008c-0.217-0.002-0.441-0.004-0.678-0.006
	c-0.232-0.002-0.463-0.002-0.688-0.004c-0.223-0.002-0.438,0-0.639,0.002c-0.203,0.002-0.381,0.008-0.531,0.014v1.367
	c0,0.26,0.006,0.488,0.012,0.686c0.008,0.195,0.018,0.361,0.027,0.502c0.012,0.143,0.025,0.26,0.041,0.355
	c0.018,0.094,0.035,0.174,0.055,0.24v0.018h-1.105v-0.018c0.02-0.066,0.035-0.146,0.053-0.24c0.016-0.096,0.031-0.213,0.043-0.355
	c0.012-0.141,0.021-0.307,0.027-0.502c0.008-0.197,0.01-0.426,0.01-0.686v-2.998c0-0.26-0.002-0.488-0.01-0.684
	c-0.006-0.195-0.016-0.363-0.027-0.506c-0.012-0.142-0.027-0.262-0.043-0.357c-0.018-0.096-0.033-0.174-0.053-0.24v-0.018h1.105
	v0.018c-0.02,0.066-0.037,0.145-0.055,0.24c-0.016,0.096-0.029,0.215-0.041,0.357c-0.01,0.143-0.02,0.311-0.027,0.506
	c-0.006,0.195-0.012,0.424-0.012,0.684v1.18c0.16,0.006,0.342,0.01,0.545,0.012c0.203,0.002,0.414,0.002,0.635,0
	s0.445-0.004,0.674-0.008c0.23-0.002,0.449-0.006,0.664-0.01c0.213-0.006,0.412-0.01,0.598-0.016c0.186-0.008,0.346-0.014,0.48-0.02
	V17.34c0-0.26-0.002-0.488-0.01-0.684c-0.008-0.195-0.018-0.363-0.029-0.506c-0.01-0.142-0.023-0.262-0.039-0.357
	c-0.018-0.096-0.035-0.174-0.055-0.24v-0.018h1.105v0.018c-0.018,0.066-0.037,0.145-0.053,0.24
	c-0.018,0.096-0.031,0.215-0.043,0.357c-0.014,0.143-0.023,0.311-0.029,0.506c-0.006,0.195-0.01,0.424-0.01,0.684v2.998
	c0,0.26,0.004,0.488,0.01,0.686c0.006,0.195,0.016,0.361,0.029,0.502c0.012,0.143,0.025,0.26,0.043,0.355
	c0.016,0.094,0.035,0.174,0.053,0.24v0.018h-1.105v-0.018c0.02-0.066,0.037-0.146,0.055-0.24c0.016-0.096,0.029-0.213,0.039-0.355
	c0.012-0.141,0.021-0.307,0.029-0.502c0.008-0.197,0.01-0.426,0.01-0.686v-1.356H182.411z M184.7,15.537
	c0.385,0,0.766,0,1.145-0.004s0.727-0.008,1.043-0.012s0.588-0.012,0.811-0.021c0.225-0.008,0.375-0.02,0.455-0.035l-0.225,0.611
	c-0.102-0.027-0.219-0.053-0.355-0.072c-0.115-0.02-0.258-0.037-0.426-0.055c-0.166-0.018-0.359-0.025-0.578-0.025
	c-0.072,0-0.162,0.002-0.264,0.008c-0.102,0.004-0.201,0.01-0.297,0.018c-0.111,0.004-0.225,0.01-0.338,0.016v2.516
	c0.316-0.004,0.604-0.014,0.857-0.029c0.256-0.014,0.473-0.029,0.648-0.045c0.211-0.02,0.395-0.039,0.555-0.064l-0.143,0.668
	c-0.213-0.027-0.43-0.053-0.65-0.078c-0.189-0.021-0.396-0.041-0.621-0.059c-0.225-0.016-0.439-0.025-0.646-0.025v2.889
	c0.363,0,0.697-0.018,1-0.047c0.305-0.031,0.57-0.066,0.797-0.105c0.264-0.043,0.506-0.094,0.725-0.152l-0.135,0.746
	c-0.037-0.004-0.092-0.006-0.166-0.008c-0.074-0.004-0.156-0.008-0.248-0.01c-0.088-0.004-0.184-0.006-0.283-0.008
	c-0.102-0.002-0.195-0.004-0.283-0.006c-0.09,0-0.168-0.002-0.238-0.004c-0.068-0.002-0.119-0.002-0.148-0.002h-1.99v-0.018
	c0.02-0.066,0.037-0.146,0.055-0.24c0.016-0.096,0.031-0.213,0.041-0.355c0.014-0.141,0.021-0.307,0.029-0.502
	c0.006-0.197,0.01-0.426,0.01-0.686v-2.998c0-0.26-0.004-0.488-0.01-0.684c-0.008-0.195-0.016-0.363-0.029-0.506
	c-0.01-0.142-0.025-0.262-0.041-0.357c-0.018-0.096-0.035-0.174-0.055-0.24v-0.02H184.7z M191.823,22.123
	c0.033-0.049,0.072-0.121,0.115-0.219c0.045-0.096,0.076-0.219,0.102-0.367c0.033-0.215,0.072-0.455,0.113-0.725
	c0.041-0.268,0.084-0.551,0.129-0.846c0.045-0.293,0.088-0.596,0.133-0.904c0.045-0.309,0.088-0.611,0.129-0.912
	c0.043-0.299,0.082-0.588,0.121-0.865c0.037-0.277,0.072-0.531,0.104-0.762c0.029-0.23,0.055-0.43,0.076-0.601
	c0.02-0.17,0.033-0.299,0.043-0.385h0.584l2.898,5.416l2.873-5.416h0.436l0.756,5.471c0.021,0.172,0.045,0.318,0.068,0.441
	c0.025,0.125,0.051,0.23,0.074,0.316c0.025,0.088,0.049,0.16,0.072,0.217c0.021,0.057,0.045,0.104,0.066,0.141v0.018h-1.16v-0.018
	c0.016-0.033,0.029-0.09,0.043-0.166c0.014-0.076,0.021-0.17,0.021-0.277c0-0.039-0.002-0.08-0.006-0.121
	c-0.002-0.041-0.008-0.088-0.014-0.137l-0.584-4.412l-2.717,5.113l-0.318-0.037l-2.734-5.121c-0.107,0.729-0.201,1.4-0.281,2.018
	c-0.033,0.264-0.066,0.527-0.102,0.789c-0.033,0.264-0.062,0.508-0.09,0.734c-0.027,0.229-0.047,0.428-0.062,0.601
	c-0.014,0.174-0.021,0.301-0.021,0.385c0,0.103,0.002,0.195,0.008,0.275s0.012,0.146,0.018,0.203c0.01,0.065,0.02,0.121,0.029,0.17
	h-0.922L191.823,22.123L191.823,22.123z M204.763,15.426c0.512,0,0.986,0.086,1.42,0.252c0.436,0.168,0.811,0.402,1.127,0.705
	c0.314,0.303,0.562,0.666,0.742,1.088c0.176,0.426,0.266,0.893,0.266,1.406c0,0.291-0.033,0.578-0.102,0.861
	c-0.068,0.281-0.166,0.547-0.297,0.799c-0.131,0.254-0.291,0.486-0.48,0.699c-0.191,0.213-0.408,0.396-0.652,0.553
	c-0.244,0.154-0.514,0.275-0.809,0.363c-0.295,0.088-0.611,0.131-0.953,0.131c-0.512,0-0.984-0.08-1.42-0.246
	c-0.434-0.164-0.811-0.396-1.125-0.697c-0.316-0.301-0.564-0.662-0.742-1.086c-0.178-0.42-0.268-0.891-0.268-1.406
	c0-0.291,0.035-0.578,0.102-0.861c0.068-0.281,0.168-0.549,0.297-0.805c0.131-0.254,0.289-0.488,0.479-0.703
	c0.191-0.213,0.406-0.397,0.648-0.555c0.246-0.156,0.516-0.277,0.812-0.365C204.104,15.471,204.421,15.426,204.763,15.426
	L204.763,15.426z M205.024,21.869c0.342,0,0.652-0.06,0.936-0.184c0.281-0.123,0.525-0.301,0.73-0.535
	c0.203-0.232,0.361-0.518,0.475-0.854c0.115-0.336,0.172-0.719,0.172-1.145c0-0.473-0.055-0.91-0.164-1.314
	c-0.109-0.404-0.271-0.754-0.484-1.051c-0.215-0.295-0.484-0.527-0.805-0.693c-0.322-0.17-0.695-0.252-1.121-0.252
	c-0.342,0-0.652,0.061-0.936,0.182c-0.281,0.121-0.525,0.297-0.729,0.527c-0.205,0.23-0.363,0.514-0.477,0.846
	c-0.115,0.336-0.172,0.717-0.172,1.143c0,0.471,0.055,0.91,0.162,1.314c0.107,0.408,0.27,0.76,0.482,1.059
	c0.215,0.297,0.484,0.531,0.807,0.703C204.224,21.785,204.599,21.869,205.024,21.869L205.024,21.869z M209.612,15.537l4.742,5.047
	v-3.242c0-0.26-0.002-0.488-0.01-0.684c-0.006-0.195-0.014-0.363-0.027-0.506c-0.012-0.142-0.027-0.262-0.045-0.357
	c-0.016-0.096-0.033-0.174-0.051-0.24v-0.018h0.818v0.018c-0.02,0.066-0.033,0.145-0.051,0.24c-0.016,0.096-0.029,0.215-0.041,0.357
	c-0.012,0.143-0.021,0.311-0.027,0.506s-0.01,0.424-0.01,0.684v4.893h-0.16l-4.744-5.043v3.148c0,0.26,0.004,0.488,0.01,0.686
	c0.006,0.195,0.016,0.361,0.027,0.502c0.012,0.143,0.027,0.26,0.043,0.355c0.016,0.094,0.031,0.174,0.049,0.24v0.018h-0.818v-0.018
	c0.018-0.066,0.035-0.146,0.053-0.24c0.018-0.096,0.031-0.213,0.043-0.355c0.014-0.141,0.021-0.307,0.029-0.502
	c0.006-0.197,0.008-0.426,0.008-0.686v-2.998c0-0.26-0.002-0.488-0.008-0.684c-0.008-0.195-0.016-0.363-0.029-0.506
	c-0.012-0.142-0.025-0.262-0.043-0.357c-0.018-0.096-0.035-0.174-0.053-0.24v-0.018L209.612,15.537L209.612,15.537z M216.321,22.123
	c0.02-0.066,0.037-0.146,0.053-0.24c0.016-0.096,0.031-0.213,0.043-0.355c0.014-0.141,0.021-0.307,0.029-0.502
	c0.006-0.197,0.008-0.426,0.008-0.686v-2.998c0-0.26-0.002-0.488-0.008-0.684c-0.008-0.195-0.016-0.363-0.029-0.506
	c-0.012-0.142-0.027-0.262-0.043-0.357c-0.016-0.096-0.033-0.174-0.053-0.24v-0.018h1.105v0.018c-0.02,0.066-0.037,0.145-0.053,0.24
	c-0.018,0.096-0.031,0.215-0.043,0.357c-0.01,0.143-0.02,0.311-0.027,0.506c-0.006,0.195-0.012,0.424-0.012,0.684v1.029l2.689-2.197
	c0.301-0.246,0.451-0.459,0.451-0.637h1.295v0.018c-0.182,0.045-0.363,0.127-0.551,0.248c-0.186,0.121-0.383,0.27-0.592,0.443
	l-2.375,1.99l2.859,3.141c0.119,0.123,0.223,0.225,0.305,0.305c0.086,0.082,0.16,0.15,0.225,0.203
	c0.065,0.055,0.123,0.1,0.176,0.133c0.055,0.037,0.111,0.072,0.17,0.105v0.018h-1.35c-0.012-0.027-0.033-0.062-0.062-0.105
	c-0.027-0.043-0.062-0.088-0.102-0.133c-0.039-0.047-0.08-0.094-0.123-0.142c-0.045-0.049-0.088-0.096-0.127-0.139l-2.889-3.17
	v1.889c0,0.26,0.006,0.488,0.012,0.686c0.008,0.195,0.018,0.361,0.027,0.502c0.012,0.143,0.025,0.26,0.043,0.355
	c0.016,0.094,0.033,0.174,0.053,0.24v0.018h-1.105v-0.019H216.321z M222.413,15.537c0.385,0,0.766,0,1.145-0.004
	s0.727-0.008,1.043-0.012s0.588-0.012,0.81-0.021c0.225-0.008,0.375-0.02,0.455-0.035l-0.225,0.611
	c-0.102-0.027-0.219-0.053-0.356-0.072c-0.115-0.02-0.258-0.037-0.426-0.055c-0.166-0.018-0.359-0.025-0.578-0.025
	c-0.072,0-0.162,0.002-0.264,0.008c-0.102,0.004-0.201,0.01-0.297,0.018c-0.111,0.004-0.223,0.01-0.336,0.016v2.516
	c0.314-0.004,0.602-0.014,0.855-0.029c0.256-0.014,0.473-0.029,0.65-0.045c0.209-0.02,0.393-0.039,0.553-0.064l-0.143,0.668
	c-0.213-0.027-0.43-0.053-0.65-0.078c-0.189-0.021-0.396-0.041-0.621-0.059c-0.225-0.016-0.439-0.025-0.645-0.025v2.889
	c0.363,0,0.695-0.018,0.998-0.047c0.305-0.031,0.57-0.066,0.797-0.105c0.266-0.043,0.506-0.094,0.725-0.152l-0.135,0.746
	c-0.037-0.004-0.092-0.006-0.166-0.008c-0.074-0.004-0.156-0.008-0.246-0.01c-0.09-0.004-0.186-0.006-0.285-0.008
	c-0.102-0.002-0.195-0.004-0.283-0.006c-0.09,0-0.168-0.002-0.238-0.004c-0.068-0.002-0.119-0.002-0.148-0.002h-1.99v-0.018
	c0.02-0.066,0.037-0.146,0.055-0.24c0.016-0.096,0.031-0.213,0.041-0.355c0.014-0.141,0.023-0.307,0.029-0.502
	c0.006-0.197,0.01-0.426,0.01-0.686v-2.998c0-0.26-0.004-0.488-0.01-0.684c-0.006-0.195-0.016-0.363-0.029-0.506
	c-0.01-0.142-0.025-0.262-0.041-0.357c-0.018-0.096-0.035-0.174-0.055-0.24v-0.02H222.413z M229.726,18.973v1.367
	c0,0.26,0.002,0.488,0.01,0.686c0.006,0.195,0.016,0.361,0.025,0.502c0.014,0.143,0.027,0.26,0.045,0.355
	c0.018,0.094,0.035,0.174,0.053,0.24v0.018h-1.105v-0.018c0.018-0.066,0.037-0.146,0.053-0.24c0.018-0.096,0.031-0.213,0.043-0.355
	c0.01-0.141,0.02-0.307,0.025-0.502c0.01-0.197,0.014-0.426,0.014-0.686v-1.275l-2.059-2.799c-0.07-0.096-0.141-0.184-0.209-0.262
	c-0.07-0.08-0.135-0.152-0.197-0.211c-0.061-0.061-0.115-0.109-0.164-0.15c-0.049-0.039-0.088-0.068-0.115-0.088v-0.018h1.395
	c0,0.072,0.029,0.186,0.09,0.348c0.061,0.162,0.168,0.351,0.324,0.57l1.51,2.066l1.479-2.16c0.053-0.076,0.105-0.154,0.156-0.234
	c0.053-0.08,0.1-0.156,0.145-0.23c0.041-0.074,0.076-0.141,0.104-0.203c0.025-0.061,0.039-0.113,0.039-0.156h0.896v0.018
	c-0.066,0.061-0.158,0.147-0.271,0.262c-0.113,0.115-0.236,0.268-0.367,0.459L229.726,18.973L229.726,18.973z"/>
</svg>
