<?xml version="1.0" encoding="utf-8"?>
<!-- Generator: Adobe Illustrator 17.0.0, SVG Export Plug-In . SVG Version: 6.00 Build 0)  -->
<!DOCTYPE svg PUBLIC "-//W3C//DTD SVG 1.1//EN" "http://www.w3.org/Graphics/SVG/1.1/DTD/svg11.dtd">
<svg version="1.1" xmlns="http://www.w3.org/2000/svg" xmlns:xlink="http://www.w3.org/1999/xlink" x="0px" y="0px"
	 width="144.168px" height="349.667px" viewBox="0 0 144.168 349.667" enable-background="new 0 0 144.168 349.667"
	 xml:space="preserve">
<g id="background">
</g>
<g id="object">
	<g>
		<g>
			<g>
				<polygon fill="#826449" points="84.771,305.894 84.771,349.667 89.936,309.897 				"/>
				<polygon fill="#775C42" points="89.936,309.897 84.771,349.667 96.392,347.601 				"/>
				<polygon fill="#5C4631" points="84.771,305.894 89.936,266.333 89.936,309.897 				"/>
				<polygon fill="#513E2A" points="89.936,266.333 81.672,263.412 84.771,305.894 				"/>
				<polygon fill="#302115" points="81.672,263.412 75.087,268.34 84.771,305.894 				"/>
				<polygon fill="#3E2D23" points="75.087,268.34 75.087,307.077 84.771,305.894 				"/>
				<polygon fill="#513E2A" points="84.771,305.894 75.087,307.077 84.771,349.667 				"/>
				<polygon fill="#3E2D23" points="75.087,307.077 71.6,348.117 84.771,349.667 				"/>
			</g>
			<g>
				<polygon fill="#429372" points="75.087,268.34 32.089,254.115 48.358,246.707 				"/>
				<polygon fill="#3F725C" points="81.672,263.412 75.087,268.34 48.358,246.707 				"/>
				<polygon fill="#429372" points="81.672,263.412 87.354,231.97 48.358,246.707 				"/>
				<polygon fill="#559F78" points="87.354,231.97 121.959,254.115 81.672,263.412 				"/>
				<polygon fill="#3F725C" points="121.959,254.115 89.936,266.333 81.672,263.412 				"/>
				<polygon fill="#355949" points="89.936,266.333 90.194,272.709 121.959,254.115 				"/>
				<polygon fill="#559F78" points="32.089,254.115 44.097,266.333 75.087,268.34 				"/>
				<polygon fill="#559F78" points="32.089,254.115 10.396,234.359 48.358,246.707 				"/>
				<polygon fill="#7AB683" points="48.358,246.707 13.108,197.947 71.6,196.397 				"/>
				<polygon fill="#67AA7D" points="71.6,196.397 87.354,231.97 48.358,246.707 				"/>
				<polygon fill="#8CC288" points="71.6,196.397 121.959,231.97 87.354,231.97 				"/>
				<polygon fill="#67AA7D" points="121.959,231.97 121.959,254.115 87.354,231.97 				"/>
				<polygon fill="#67AA7D" points="71.6,196.397 114.211,172.509 121.959,231.97 				"/>
				<polygon fill="#8CC288" points="114.211,172.509 136.421,141.52 144.168,184.905 				"/>
				<polygon fill="#429372" points="144.168,184.905 121.959,231.97 114.211,172.509 				"/>
				<polygon fill="#3F725C" points="144.168,184.905 121.959,231.97 138.486,226.225 				"/>
				<polygon fill="#429372" points="138.486,226.225 121.959,254.115 121.959,231.97 				"/>
				<polygon fill="#8CC288" points="71.6,196.397 78.186,148.75 114.211,172.509 				"/>
				<polygon fill="#9FCD8E" points="136.421,141.52 114.211,172.509 111.887,128.607 				"/>
				<polygon fill="#B1D993" points="111.887,128.607 78.186,148.75 114.211,172.509 				"/>
				<polygon fill="#E9FCA4" points="111.887,128.607 92.906,106.398 124.154,101.749 				"/>
				<polygon fill="#C4E599" points="92.906,106.398 104.656,65.595 124.154,101.749 				"/>
				<polygon fill="#E9FCA4" points="104.656,65.595 71.6,70.243 78.186,30.473 				"/>
				<polygon fill="#D6F09E" points="104.656,65.595 92.906,106.398 71.6,70.243 				"/>
				<polygon fill="#C4E599" points="124.154,101.749 111.887,128.607 136.421,141.52 				"/>
				<polygon fill="#D6F09E" points="92.906,106.398 78.186,148.75 111.887,128.607 				"/>
				<polygon fill="#C4E599" points="71.6,70.243 51.199,115.178 92.906,106.398 				"/>
				<polygon fill="#B1D993" points="92.906,106.398 78.186,148.75 51.199,115.178 				"/>
				<polygon fill="#E9FCA4" points="78.186,148.75 42.354,163.212 51.199,115.178 				"/>
				<polygon fill="#B1D993" points="78.186,148.75 71.6,196.397 42.354,163.212 				"/>
				<polygon fill="#8CC288" points="51.199,115.178 60.27,47.518 71.6,70.243 				"/>
				<polygon fill="#67AA7D" points="71.6,70.243 60.27,47.518 65.015,26.341 				"/>
				<polygon fill="#B1D993" points="71.6,70.243 65.015,26.341 78.186,30.473 				"/>
				<polygon fill="#E9FCA4" points="65.015,26.341 71.6,0 78.186,30.473 				"/>
				<polygon fill="#C4E599" points="71.6,0 104.656,65.595 78.186,30.473 				"/>
				<polygon fill="#C4E599" points="60.27,47.518 32.089,92.711 51.199,115.178 				"/>
				<polygon fill="#B1D993" points="32.089,92.711 13.108,150.558 51.199,115.178 				"/>
				<polygon fill="#C4E599" points="42.354,163.212 13.108,150.558 51.199,115.178 				"/>
				<polygon fill="#8CC288" points="42.354,163.212 13.108,197.947 71.6,196.397 				"/>
				<polygon fill="#7AB683" points="42.354,163.212 13.108,150.558 13.108,197.947 				"/>
				<polygon fill="#67AA7D" points="48.358,246.707 10.396,234.359 13.108,197.947 				"/>
				<polygon fill="#429372" points="13.108,197.947 2.132,197.947 10.396,234.359 				"/>
				<polygon fill="#559F78" points="13.108,150.558 2.132,197.947 13.108,197.947 				"/>
				<polygon fill="#8CC288" points="2.132,197.947 0,141.52 13.108,150.558 				"/>
				<polygon fill="#67AA7D" points="0,141.52 10.554,114.53 13.108,150.558 				"/>
				<polygon fill="#C4E599" points="32.089,92.711 10.554,114.53 13.108,150.558 				"/>
			</g>
		</g>
	</g>
</g>
</svg>
