<?xml version="1.0" encoding="utf-8"?>
<!-- Generator: Adobe Illustrator 17.0.0, SVG Export Plug-In . SVG Version: 6.00 Build 0)  -->
<!DOCTYPE svg PUBLIC "-//W3C//DTD SVG 1.1//EN" "http://www.w3.org/Graphics/SVG/1.1/DTD/svg11.dtd">
<svg version="1.1" id="objects" xmlns="http://www.w3.org/2000/svg" xmlns:xlink="http://www.w3.org/1999/xlink" x="0px" y="0px"
	 width="730.03px" height="41.65px" viewBox="0 0 730.03 41.65" enable-background="new 0 0 730.03 41.65" xml:space="preserve">
<rect x="130.606" y="2.177" fill="#FFFFFF" width="9.17" height="1.317"/>
<rect x="119.289" y="2.177" fill="#FFFFFF" width="9.17" height="1.317"/>
<rect x="107.973" y="2.177" fill="#FFFFFF" width="9.17" height="1.317"/>
<rect x="96.656" y="2.177" fill="#FFFFFF" width="9.17" height="1.317"/>
<g>
	<path fill="#346BE8" d="M236.227,31.907h-2.732v2.081h-0.26v3.577c0.125,0.125-11.081,0.09-19.177,0.049
		c-0.188,2.127-1.955,3.802-4.131,3.802c-2.162,0-3.918-1.652-4.127-3.759l-2.418,1.86h-7.219l-0.976-1.951h-0.828
		c-0.165,2.151-1.943,3.85-4.136,3.85c-2.193,0-3.971-1.699-4.136-3.85H49.804c-0.165,2.151-1.943,3.85-4.136,3.85
		c-2.193,0-3.971-1.699-4.136-3.85H41.44l-2.146,1.951h-7.024l-0.78-1.756h-1.408c-0.255,2.057-1.99,3.655-4.116,3.655
		s-3.861-1.598-4.116-3.655H2.807v-3.772H2.612v-1.951H0.011V6.412h2.471V1.99h15.219l2.081,1.431h71.931l2.601-2.211h47.998
		l1.821,1.821h72.452l2.341-1.301h14.959v4.683h2.341 M729.527,32.623c0,0-2.142,2.618-3.809,2.857s-3.333,0.238-3.571,1.666
		c-0.238,1.428,1.428,1.428,1.428,1.428l-29.755-0.476l-1.666-3.571h-0.521c0.665,0.756,1.071,1.745,1.071,2.831
		c0,2.371-1.922,4.292-4.292,4.292c-2.371,0-4.292-1.922-4.292-4.292c0-1.086,0.406-2.075,1.071-2.831h-0.26l-3.25,5.237
		l-6.903,0.238l-0.714-1.904h-0.808c-0.351,2.017-2.107,3.553-4.224,3.553c-2.118,0-3.873-1.535-4.224-3.553H523.018
		c-0.351,2.017-2.107,3.553-4.224,3.553c-2.118,0-3.873-1.535-4.224-3.553h-0.948l-1.19,1.666h-7.379l-0.714-1.666h-0.701
		c-0.351,2.017-2.107,3.553-4.224,3.553s-3.873-1.535-4.224-3.553h-17.511c-0.952,0-0.945,0-0.945,0l-0.005-3.571h-0.954v-3.571
		h-1.19v1.19h-1.666V5.486h1.19v1.428h1.428V2.153h15.235l2.38,0.952h44.276l2.618-1.904l47.133,0.238l3.095,2.38
		c0,0,43.8,0,45.942-0.238c2.142-0.238,10.474-0.476,13.33-1.19c2.857-0.714,11.426-2.38,15.711-2.38
		c4.285,0,12.685,0.146,16.425,0.952c2.339,0.504,12.616,4.523,15.711,5.951c3.095,1.428,16.663,9.284,21.9,12.616
		c5.237,3.333,9.76,8.57,10.474,9.76C730.479,30.48,729.527,32.623,729.527,32.623z M550.518,2.153h-8.57v1.428h8.57V2.153z
		 M562.658,2.153h-8.57v1.428h8.57V2.153z M573.37,2.153h-8.57v1.428h8.57V2.153z M585.51,2.153h-8.57v1.428h8.57V2.153z
		 M472.747,6.27c-0.13-0.13,0,25.495,0,25.495h-2.732v2.081h-0.26v3.577c0.125,0.125-11.081,0.09-19.177,0.049
		c-0.188,2.128-1.955,3.802-4.131,3.802c-2.162,0-3.918-1.652-4.127-3.759l-2.418,1.86h-7.219l-0.976-1.951h-0.828
		c-0.165,2.151-1.943,3.85-4.136,3.85c-2.193,0-3.971-1.699-4.136-3.85H286.324c-0.165,2.151-1.943,3.85-4.136,3.85
		s-3.971-1.699-4.136-3.85h-0.092l-2.146,1.951h-7.024l-0.78-1.756h-1.408c-0.255,2.057-1.99,3.655-4.116,3.655
		s-3.861-1.598-4.116-3.655h-19.041v-3.772h-0.195v-1.951h-2.602V6.27h2.471V1.847h15.219l2.081,1.431h71.931l2.602-2.211h47.998
		l1.821,1.821h72.452l2.341-1.301h14.959V6.27H472.747z M342.347,2.034h-9.17v1.317h9.17V2.034z M353.664,2.034h-9.17v1.317h9.17
		V2.034z M364.98,2.034h-9.17v1.317h9.17V2.034z M376.297,2.034h-9.17v1.317h9.17V2.034z"/>
	<path fill="#454B5B" d="M455.166,19.917h-2.32c-0.293,0-0.531-0.238-0.531-0.531v-8.304c0-0.293,0.238-0.531,0.531-0.531h2.32
		c0.293,0,0.531,0.238,0.531,0.531v8.304C455.697,19.679,455.459,19.917,455.166,19.917z M629.538,18.729v-2.857
		c0-0.986-0.799-1.785-1.785-1.785h-7.379c-0.986,0-1.785,0.799-1.785,1.785v2.857c0,0.986,0.799,1.785,1.785,1.785h7.379
		C628.738,20.515,629.538,19.715,629.538,18.729z M612.518,20.515h-7.379c-0.986,0-1.785-0.799-1.785-1.785v-2.857
		c0-0.986,0.799-1.785,1.785-1.785h7.379c0.986,0,1.785,0.799,1.785,1.785v2.857C614.303,19.715,613.504,20.515,612.518,20.515z
		 M596.926,20.515h-7.379c-0.986,0-1.785-0.799-1.785-1.785v-2.857c0-0.986,0.799-1.785,1.785-1.785h7.379
		c0.986,0,1.785,0.799,1.785,1.785v2.857C598.711,19.715,597.912,20.515,596.926,20.515z M581.334,20.515h-7.379
		c-0.986,0-1.785-0.799-1.785-1.785v-2.857c0-0.986,0.799-1.785,1.785-1.785h7.379c0.986,0,1.785,0.799,1.785,1.785v2.857
		C583.119,19.715,582.32,20.515,581.334,20.515z M566.099,20.515h-7.379c-0.986,0-1.785-0.799-1.785-1.785v-2.857
		c0-0.986,0.799-1.785,1.785-1.785h7.379c0.986,0,1.785,0.799,1.785,1.785v2.857C567.885,19.715,567.085,20.515,566.099,20.515z
		 M504.565,20.515h-7.379c-0.986,0-1.785-0.799-1.785-1.785v-2.857c0-0.986,0.799-1.785,1.785-1.785h7.379
		c0.986,0,1.785,0.799,1.785,1.785v2.857C506.35,19.715,505.551,20.515,504.565,20.515z M535.392,20.515h-7.379
		c-0.986,0-1.785-0.799-1.785-1.785v-2.857c0-0.986,0.799-1.785,1.785-1.785h7.379c0.986,0,1.785,0.799,1.785,1.785v2.857
		C537.177,19.715,536.378,20.515,535.392,20.515z M520.157,20.515h-7.379c-0.986,0-1.785-0.799-1.785-1.785v-2.857
		c0-0.986,0.799-1.785,1.785-1.785h7.379c0.986,0,1.785,0.799,1.785,1.785v2.857C521.942,19.715,521.143,20.515,520.157,20.515z
		 M550.507,20.515h-7.379c-0.986,0-1.785-0.799-1.785-1.785v-2.857c0-0.986,0.799-1.785,1.785-1.785h7.379
		c0.986,0,1.785,0.799,1.785,1.785v2.857C552.293,19.715,551.493,20.515,550.507,20.515z M669.694,20.206H661.7
		c-0.946,0-1.713-0.767-1.713-1.713v-2.998c0-0.946,0.767-1.713,1.713-1.713h7.994c0.946,0,1.713,0.767,1.713,1.713v2.998
		C671.407,19.439,670.64,20.206,669.694,20.206z M678.172,14.075c0.641,0.08,1.74,0.238,3.137,0.522
		c1.321,0.269,2.593,0.716,3.302,0.988c0.314,0.12,0.453,0.484,0.302,0.785l-1.954,3.907c-0.12,0.24-0.387,0.365-0.647,0.297
		c-0.477-0.124-1.303-0.315-2.261-0.432c-0.643-0.078-1.477-0.102-2.021-0.109c-0.314-0.004-0.563-0.262-0.559-0.576l0.065-4.824
		C677.542,14.293,677.835,14.033,678.172,14.075z M687.946,17.465c0.157-0.266,0.484-0.376,0.768-0.254
		c0.879,0.379,2.724,1.179,3.794,1.673c1.026,0.473,2.519,1.246,3.295,1.652c0.289,0.151,0.407,0.5,0.272,0.797l-1.178,2.591
		c-0.137,0.301-0.488,0.44-0.793,0.313c-0.872-0.361-2.542-1.05-3.186-1.288c-1.933-0.716-3.557-1.185-4.466-1.428
		c-0.393-0.105-0.573-0.554-0.367-0.904L687.946,17.465z M644.663,11.072c0.808,0,1.463,0.655,1.463,1.463v6.341
		c0,0.808-0.655,1.463-1.463,1.463c-0.808,0-1.463-0.655-1.463-1.463v-6.341C643.2,11.727,643.855,11.072,644.663,11.072z
		 M319.727,19.474h-7.379c-0.986,0-1.785-0.799-1.785-1.785v-2.857c0-0.986,0.799-1.785,1.785-1.785h7.379
		c0.986,0,1.785,0.799,1.785,1.785v2.857C321.513,18.675,320.713,19.474,319.727,19.474z M350.435,19.474h-7.379
		c-0.986,0-1.785-0.799-1.785-1.785v-2.857c0-0.986,0.799-1.785,1.785-1.785h7.379c0.986,0,1.785,0.799,1.785,1.785v2.857
		C352.22,18.675,351.421,19.474,350.435,19.474z M365.67,19.474h-7.379c-0.986,0-1.785-0.799-1.785-1.785v-2.857
		c0-0.986,0.799-1.785,1.785-1.785h7.379c0.986,0,1.785,0.799,1.785,1.785v2.857C367.455,18.675,366.656,19.474,365.67,19.474z
		 M304.493,19.474h-7.379c-0.986,0-1.785-0.799-1.785-1.785v-2.857c0-0.986,0.799-1.785,1.785-1.785h7.379
		c0.986,0,1.785,0.799,1.785,1.785v2.857C306.278,18.675,305.479,19.474,304.493,19.474z M288.901,19.474h-7.379
		c-0.986,0-1.785-0.799-1.785-1.785v-2.857c0-0.986,0.799-1.785,1.785-1.785h7.379c0.986,0,1.785,0.799,1.785,1.785v2.857
		C290.686,18.675,289.887,19.474,288.901,19.474z M334.843,19.474h-7.379c-0.986,0-1.785-0.799-1.785-1.785v-2.857
		c0-0.986,0.799-1.785,1.785-1.785h7.379c0.986,0,1.785,0.799,1.785,1.785v2.857C336.628,18.675,335.829,19.474,334.843,19.474z
		 M381.262,19.474h-7.379c-0.986,0-1.785-0.799-1.785-1.785v-2.857c0-0.986,0.799-1.785,1.785-1.785h7.379
		c0.986,0,1.785,0.799,1.785,1.785v2.857C383.047,18.675,382.248,19.474,381.262,19.474z M418.793,17.689v-2.857
		c0-0.986,0.799-1.785,1.785-1.785h7.379c0.986,0,1.785,0.799,1.785,1.785v2.857c0,0.986-0.799,1.785-1.785,1.785h-7.379
		C419.592,19.474,418.793,18.675,418.793,17.689z M396.854,19.474h-7.379c-0.986,0-1.785-0.799-1.785-1.785v-2.857
		c0-0.986,0.799-1.785,1.785-1.785h7.379c0.986,0,1.785,0.799,1.785,1.785v2.857C398.639,18.675,397.84,19.474,396.854,19.474z
		 M412.088,19.474h-7.379c-0.986,0-1.785-0.799-1.785-1.785v-2.857c0-0.986,0.799-1.785,1.785-1.785h7.379
		c0.986,0,1.785,0.799,1.785,1.785v2.857C413.874,18.675,413.074,19.474,412.088,19.474z M256.737,19.917h-2.32
		c-0.293,0-0.531-0.238-0.531-0.531v-8.304c0-0.293,0.238-0.531,0.531-0.531h2.32c0.293,0,0.531,0.238,0.531,0.531v8.304
		C257.267,19.679,257.03,19.917,256.737,19.917z M83.207,19.616h-7.379c-0.986,0-1.785-0.799-1.785-1.785v-2.857
		c0-0.986,0.799-1.785,1.785-1.785h7.379c0.986,0,1.785,0.799,1.785,1.785v2.857C84.992,18.817,84.193,19.616,83.207,19.616z
		 M113.915,19.616h-7.379c-0.986,0-1.785-0.799-1.785-1.785v-2.857c0-0.986,0.799-1.785,1.785-1.785h7.379
		c0.986,0,1.785,0.799,1.785,1.785v2.857C115.7,18.817,114.901,19.616,113.915,19.616z M129.149,19.616h-7.379
		c-0.986,0-1.785-0.799-1.785-1.785v-2.857c0-0.986,0.799-1.785,1.785-1.785h7.379c0.986,0,1.785,0.799,1.785,1.785v2.857
		C130.935,18.817,130.135,19.616,129.149,19.616z M67.972,19.616h-7.379c-0.986,0-1.785-0.799-1.785-1.785v-2.857
		c0-0.986,0.799-1.785,1.785-1.785h7.379c0.986,0,1.785,0.799,1.785,1.785v2.857C69.757,18.817,68.958,19.616,67.972,19.616z
		 M52.38,19.616h-7.379c-0.986,0-1.785-0.799-1.785-1.785v-2.857c0-0.986,0.799-1.785,1.785-1.785h7.379
		c0.986,0,1.785,0.799,1.785,1.785v2.857C54.166,18.817,53.366,19.616,52.38,19.616z M98.323,19.616h-7.379
		c-0.986,0-1.785-0.799-1.785-1.785v-2.857c0-0.986,0.799-1.785,1.785-1.785h7.379c0.986,0,1.785,0.799,1.785,1.785v2.857
		C100.108,18.817,99.309,19.616,98.323,19.616z M144.741,19.616h-7.379c-0.986,0-1.785-0.799-1.785-1.785v-2.857
		c0-0.986,0.799-1.785,1.785-1.785h7.379c0.986,0,1.785,0.799,1.785,1.785v2.857C146.527,18.817,145.727,19.616,144.741,19.616z
		 M182.272,17.831v-2.857c0-0.986,0.799-1.785,1.785-1.785h7.379c0.986,0,1.785,0.799,1.785,1.785v2.857
		c0,0.986-0.799,1.785-1.785,1.785h-7.379C183.072,19.616,182.272,18.817,182.272,17.831z M160.333,19.616h-7.379
		c-0.986,0-1.785-0.799-1.785-1.785v-2.857c0-0.986,0.799-1.785,1.785-1.785h7.379c0.986,0,1.785,0.799,1.785,1.785v2.857
		C162.118,18.817,161.319,19.616,160.333,19.616z M175.568,19.616h-7.379c-0.986,0-1.785-0.799-1.785-1.785v-2.857
		c0-0.986,0.799-1.785,1.785-1.785h7.379c0.986,0,1.785,0.799,1.785,1.785v2.857C177.353,18.817,176.554,19.616,175.568,19.616z
		 M218.645,20.059h-2.32c-0.293,0-0.531-0.238-0.531-0.531v-8.304c0-0.293,0.238-0.531,0.531-0.531h2.32
		c0.293,0,0.531,0.238,0.531,0.531v8.304C219.176,19.822,218.939,20.059,218.645,20.059z M20.216,20.059h-2.32
		c-0.293,0-0.531-0.238-0.531-0.531v-8.304c0-0.293,0.238-0.531,0.531-0.531h2.32c0.293,0,0.531,0.238,0.531,0.531v8.304
		C20.747,19.822,20.509,20.059,20.216,20.059z"/>
	<path fill="#F8F3FF" d="M472.905,5.475v26.661h1.666v-1.19h1.19v3.571h0.954l0.005,3.571c0,0-0.007,0,0.945,0h17.511
		c0.351,2.017,2.107,3.553,4.224,3.553s3.873-1.535,4.224-3.553h0.701l0.714,1.666h7.379l1.19-1.666h0.948
		c0.351,2.017,2.107,3.553,4.224,3.553c2.118,0,3.873-1.535,4.224-3.553h141.788c0.351,2.017,2.107,3.553,4.224,3.553
		s3.873-1.535,4.224-3.553h0.808l0.714,1.904l6.903-0.238l3.251-5.237h0.26c-0.665,0.756-1.071,1.745-1.071,2.831
		c0,2.371,1.922,4.292,4.292,4.292s4.292-1.922,4.292-4.292c0-1.086-0.406-2.075-1.071-2.831h0.521l1.666,3.571l29.755,0.476
		c0,0-1.666,0-1.428-1.428c0.238-1.428,1.904-1.428,3.571-1.666c1.666-0.238,3.809-2.857,3.809-2.857s0.952-2.142,0.238-3.333
		s-5.237-6.427-10.474-9.76c-5.237-3.333-18.805-11.188-21.9-12.616c-3.095-1.428-13.372-5.447-15.711-5.951
		C677.93,0.146,669.529,0,665.244,0c-4.285,0-12.854,1.666-15.711,2.38c-2.857,0.714-11.188,0.952-13.331,1.19
		c-2.142,0.238-45.942,0.238-45.942,0.238l-3.095-2.38L540.033,1.19l-2.618,1.904h-44.276l-2.38-0.952h-15.235v4.761h-1.428V5.475
		H472.905z M550.507,3.571h-8.57V2.142h8.57V3.571z M562.648,3.571h-8.57V2.142h8.57V3.571z M573.359,3.571h-8.57V2.142h8.57V3.571z
		 M585.5,3.571h-8.57V2.142h8.57V3.571z M684.14,6.121l0.74,0.894c-0.054-0.019-5.483-1.889-10.607-2.123
		c-5.161-0.236-16.28,0.234-16.408,0.239H476.952v-0.74H657.85c0.112-0.005,11.262-0.475,16.457-0.238
		C679.537,4.391,684.085,6.102,684.14,6.121z M631.918,12.616v8.808H492.425v-8.808H631.918z M637.932,8.731v1.561h-1.171V8.731
		H637.932z M641.492,8.535h6.244c0.781,0,1.415,0.633,1.415,1.415v15.804c0,0.781-0.633,1.415-1.415,1.415h-6.244
		c-0.781,0-1.415-0.633-1.415-1.415V9.95C640.078,9.169,640.711,8.535,641.492,8.535z M673.834,12.354
		c4.853,0.286,9.316,1.239,13.989,3.283c4.568,1.998,9.85,4.853,9.85,4.853l-2.569,4.853c0,0-4.996-1.57-7.708-2.427
		s-7.28-1.285-10.706-1.427c-3.426-0.143-18.272,0-18.272,0v-9.564C658.417,11.926,670.696,12.17,673.834,12.354z M715.471,22.138
		c0-0.657,0.693-1.19,1.547-1.19s1.547,0.533,1.547,1.19c0,0.657-0.693,1.19-1.547,1.19S715.471,22.795,715.471,22.138z
		 M714.407,17.005c-1.113-0.026-5.191-0.205-9.453-1.423c-4.999-1.428-15.473-5.237-17.139-6.427
		c-1.666-1.19-5.475-5.475-5.951-7.617c2.38,0.238,12.616,4.523,15.711,5.951C699.913,8.567,708.223,13.312,714.407,17.005z
		 M711.425,20.234c-1.183,0-2.142-0.426-2.142-0.952s0.959-0.952,2.142-0.952c1.183,0,2.142,0.426,2.142,0.952
		S712.608,20.234,711.425,20.234z M475.728,22.876l163.97-0.134v3.934c0,0.847,0.686,1.533,1.533,1.533h6.767
		c0.847,0,1.533-0.686,1.533-1.533v-3.942l5.083-0.004c0,0,23.511-0.208,27.934,0.309c5.284,0.618,11.492,2.878,15.479,5.057
		c4.731,2.585,13.398,8.211,13.398,8.211l-3.75-0.03c0,0-6.925-3.824-9.99-5.254c-5.122-2.39-12.39-2.683-12.39-2.683
		l-209.567,0.163V22.876z M236.52,6.259v25.625h2.601v1.951h0.195v3.772h19.041c0.256,2.057,1.99,3.655,4.116,3.655
		s3.861-1.598,4.116-3.655h1.408l0.78,1.756h7.024l2.146-1.951h0.092c0.165,2.151,1.943,3.85,4.136,3.85
		c2.193,0,3.971-1.699,4.136-3.85h136.284c0.165,2.151,1.943,3.85,4.136,3.85c2.193,0,3.971-1.699,4.136-3.85h0.828l0.976,1.951
		h7.219l2.418-1.86c0.208,2.107,1.965,3.759,4.127,3.759c2.176,0,3.943-1.674,4.131-3.802c8.096,0.041,19.302,0.076,19.177-0.049
		v-3.577h0.26v-2.081h2.732c0,0-0.13-25.625,0-25.495h-2.341V1.576h-14.959l-2.341,1.301h-72.452l-1.821-1.821h-47.998l-2.601,2.211
		h-71.931l-2.081-1.431h-15.219v4.423H236.52z M259.934,24.454c0,0.917-0.743,1.66-1.66,1.66h-4.744c-0.917,0-1.66-0.743-1.66-1.66
		V10.697c0-0.917,0.743-1.66,1.66-1.66h4.744c0.917,0,1.66,0.743,1.66,1.66V24.454z M342.336,3.341h-9.17V2.024h9.17V3.341z
		 M353.653,3.341h-9.17V2.024h9.17V3.341z M364.969,3.341h-9.17V2.024h9.17V3.341z M376.286,3.341h-9.17V2.024h9.17V3.341z
		 M431.503,20.177c0,0-155.082,0.024-154.742-0.296v-8.305h154.742V20.177z M457.973,24.121c0,0.873-0.707,1.58-1.58,1.58h-4.514
		c-0.873,0-1.58-0.707-1.58-1.58V11.03c0-0.873,0.707-1.58,1.58-1.58h4.514c0.873,0,1.58,0.707,1.58,1.58V24.121z M239.252,29.543
		h231.273v0.78H239.252V29.543z M239.252,20.958h12.227v4.162c0,1.006,0.815,1.821,1.821,1.821h5.203
		c1.006,0,1.821-0.815,1.821-1.821v-4.162h189.389v4.162c0,1.006,0.815,1.821,1.821,1.821h5.203c1.006,0,1.821-0.815,1.821-1.821
		v-4.162h11.967v7.284H239.252V20.958z M0,6.401l0,25.625h2.601v1.951h0.195v3.772h19.041c0.256,2.057,1.99,3.655,4.116,3.655
		s3.861-1.598,4.116-3.655h1.408l0.78,1.756h7.024l2.146-1.951h0.092c0.165,2.151,1.943,3.85,4.136,3.85s3.971-1.699,4.136-3.85
		h136.284c0.165,2.151,1.943,3.85,4.136,3.85c2.193,0,3.971-1.699,4.136-3.85h0.828l0.976,1.951h7.219l2.418-1.86
		c0.208,2.107,1.965,3.759,4.127,3.759c2.176,0,3.943-1.674,4.131-3.802c8.096,0.041,19.302,0.076,19.177-0.049v-3.577h0.26v-2.081
		h2.732c0,0-0.13-25.625,0-25.495h-2.341V1.719h-14.959l-2.341,1.301h-72.452l-1.821-1.821H94.304L91.703,3.41H19.771L17.69,1.979
		H2.471v4.423H0z M23.413,24.597c0,0.917-0.743,1.66-1.66,1.66h-4.744c-0.917,0-1.66-0.743-1.66-1.66V10.839
		c0-0.917,0.743-1.66,1.66-1.66h4.744c0.917,0,1.66,0.743,1.66,1.66V24.597z M105.816,3.483h-9.17V2.166h9.17V3.483z M117.132,3.483
		h-9.17V2.166h9.17V3.483z M128.449,3.483h-9.17V2.166h9.17V3.483z M139.766,3.483h-9.17V2.166h9.17V3.483z M194.982,20.319
		c0,0-155.082,0.024-154.742-0.296v-8.305h154.742V20.319z M221.453,24.264c0,0.873-0.707,1.58-1.58,1.58h-4.514
		c-0.873,0-1.58-0.707-1.58-1.58V11.172c0-0.873,0.707-1.58,1.58-1.58h4.514c0.873,0,1.58,0.707,1.58,1.58V24.264z M2.732,29.685
		h231.273v0.78H2.732V29.685z M2.732,21.1h12.227v4.162c0,1.006,0.815,1.821,1.821,1.821h5.203c1.006,0,1.821-0.815,1.821-1.821
		V21.1h189.389v4.162c0,1.006,0.815,1.821,1.821,1.821h5.203c1.006,0,1.821-0.815,1.821-1.821V21.1h11.967v7.284H2.732V21.1z"/>
</g>
</svg>
