<?xml version="1.0" encoding="utf-8"?>
<!-- Generator: Adobe Illustrator 17.0.0, SVG Export Plug-In . SVG Version: 6.00 Build 0)  -->
<!DOCTYPE svg PUBLIC "-//W3C//DTD SVG 1.1//EN" "http://www.w3.org/Graphics/SVG/1.1/DTD/svg11.dtd">
<svg version="1.1" id="_x31_200_x__x_800_px" xmlns="http://www.w3.org/2000/svg" xmlns:xlink="http://www.w3.org/1999/xlink"
	 x="0px" y="0px" width="15.739px" height="91.471px" viewBox="0 0 15.739 91.471" enable-background="new 0 0 15.739 91.471"
	 xml:space="preserve">
<path fill="#FFAC33" d="M15.104,42.801c-0.968-2.26-2.912-3.882-5.214-4.495L9.492,26.25c0.995-0.309,1.921-0.885,2.653-1.731
	c1.929-2.231,1.844-5.514-0.086-7.645c-0.613-0.928-3.226-2.799-3.226-8.036C8.833,2.697,8.46,0.025,8.04,0
	c-0.42-0.025-1.31,9.223-1.31,9.223s-0.064,2.632-2.759,6.898c0,0-0.268,0.482-0.52,0.791c-0.015,0.018-0.029,0.035-0.042,0.051
	c-2.086,2.413-1.822,6.059,0.59,8.146c0.652,0.564,1.395,0.95,2.172,1.175L5.293,38.472c-0.175,0.061-0.35,0.12-0.521,0.193
	c-3.988,1.708-5.844,6.343-4.137,10.332c1.242,2.9,4.083,4.774,7.238,4.774c1.066,0,2.107-0.214,3.094-0.637
	C14.956,51.425,16.811,46.791,15.104,42.801z M10.405,51.822c-0.809,0.346-1.661,0.521-2.532,0.521
	c-2.583,0-4.909-1.534-5.926-3.908c-1.398-3.266,0.122-7.06,3.387-8.458c0.809-0.346,1.661-0.522,2.532-0.522
	c2.583,0,4.909,1.534,5.926,3.908C15.19,46.629,13.671,50.423,10.405,51.822z M10.056,44.963c0.517,1.207-0.042,2.606-1.251,3.123
	c-1.207,0.517-2.607-0.043-3.123-1.25c-0.517-1.208,0.043-2.606,1.25-3.123C8.141,43.195,9.539,43.755,10.056,44.963z"/>
</svg>
