<?xml version="1.0" encoding="utf-8"?><!DOCTYPE svg PUBLIC "-//W3C//DTD SVG 1.1//EN" "http://www.w3.org/Graphics/SVG/1.1/DTD/svg11.dtd"><svg version="1.1" baseProfile="full" xmlns="http://www.w3.org/2000/svg" xmlns:xlink="http://www.w3.org/1999/xlink" xmlns:ev="http://www.w3.org/2001/xml-events"   height="160px"   width="160px" ><path stroke="rgb( 14, 5, 10 )" stroke-width="0px" stroke-linecap="butt" stroke-linejoin="miter" fill="rgb( 113, 113, 239 )" d="M80,0 C124.183,0 160,35.817 160,80 C160,124.183 124.183,160 80,160 C35.817,160 0,124.183 0,80 C0,35.817 35.817,0 80,0 Z "/><path stroke="rgb( 14, 5, 10 )" stroke-width="0px" stroke-linecap="butt" stroke-linejoin="miter" fill="rgb( 255, 255, 255 )" d="M110,89 C105.029,89 101,84.971 101,80 C101,75.029 105.029,71 110,71 C114.971,71 119,75.029 119,80 C119,84.971 114.971,89 110,89 ZM80,89 C75.029,89 71,84.971 71,80 C71,75.029 75.029,71 80,71 C84.971,71 89,75.029 89,80 C89,84.971 84.971,89 80,89 ZM50,89 C45.029,89 41,84.971 41,80 C41,75.029 45.029,71 50,71 C54.971,71 59,75.029 59,80 C59,84.971 54.971,89 50,89 Z "/></svg>