<?xml version="1.0" encoding="utf-8"?>
<!-- Generator: Adobe Illustrator 17.0.0, SVG Export Plug-In . SVG Version: 6.00 Build 0)  -->
<!DOCTYPE svg PUBLIC "-//W3C//DTD SVG 1.1//EN" "http://www.w3.org/Graphics/SVG/1.1/DTD/svg11.dtd">
<svg version="1.1" id="图层_3" xmlns="http://www.w3.org/2000/svg" xmlns:xlink="http://www.w3.org/1999/xlink" x="0px" y="0px"
	 width="155.886px" height="155.886px" viewBox="0 0 155.886 155.886" enable-background="new 0 0 155.886 155.886"
	 xml:space="preserve">
<path fill="#F0F0F0" d="M77.943,0c43.047,0,77.943,34.896,77.943,77.943s-34.896,77.943-77.943,77.943S0,120.99,0,77.943
	S34.896,0,77.943,0z"/>
<path fill="#EBEBEB" d="M77.943,1.808c42.048,0,76.135,34.087,76.135,76.135s-34.087,76.135-76.135,76.135
	S1.808,119.991,1.808,77.943S35.895,1.808,77.943,1.808z"/>
<path opacity="0.1" enable-background="new    " d="M152.686,76.292c-0.022-0.022-0.043-0.044-0.065-0.065
	c-0.022-0.022-0.044-0.045-0.066-0.066c-0.021-0.021-0.042-0.043-0.064-0.064c-0.022-0.022-0.043-0.044-0.065-0.065
	c-0.021-0.021-0.042-0.043-0.063-0.063c-0.022-0.022-0.044-0.045-0.067-0.067c-0.022-0.022-0.044-0.045-0.066-0.066
	c-0.021-0.021-0.042-0.043-0.064-0.064c-0.022-0.022-0.043-0.044-0.065-0.065c-0.022-0.022-0.043-0.044-0.065-0.065
	c-0.022-0.022-0.043-0.044-0.065-0.065c-0.022-0.022-0.043-0.044-0.066-0.066c-0.021-0.021-0.042-0.043-0.064-0.064
	c-0.022-0.022-0.043-0.044-0.065-0.065c-0.021-0.021-0.042-0.043-0.063-0.063c-0.022-0.022-0.044-0.045-0.067-0.067
	c-0.022-0.022-0.044-0.044-0.066-0.066c-0.021-0.021-0.042-0.043-0.064-0.064c-0.022-0.022-0.043-0.044-0.065-0.065
	c-0.022-0.022-0.043-0.044-0.065-0.065c-0.022-0.022-0.043-0.044-0.065-0.065c-0.022-0.022-0.043-0.045-0.066-0.066
	c-0.021-0.021-0.042-0.043-0.064-0.064c-0.022-0.022-0.043-0.044-0.065-0.065c-0.021-0.021-0.042-0.043-0.063-0.063
	c-0.022-0.022-0.044-0.045-0.067-0.067c-0.022-0.022-0.043-0.044-0.065-0.065c-0.022-0.022-0.044-0.044-0.066-0.066
	c-0.021-0.021-0.042-0.043-0.064-0.064c-0.022-0.022-0.043-0.044-0.065-0.065c-0.022-0.022-0.043-0.044-0.065-0.065
	c-0.022-0.022-0.043-0.044-0.065-0.065c-0.022-0.022-0.043-0.045-0.066-0.066c-0.021-0.021-0.042-0.043-0.064-0.064
	c-0.021-0.021-0.042-0.043-0.063-0.063c-0.022-0.022-0.044-0.045-0.067-0.067c-0.022-0.022-0.043-0.044-0.065-0.065
	c-0.022-0.022-0.044-0.045-0.066-0.066c-0.021-0.021-0.042-0.043-0.064-0.064c-0.022-0.022-0.043-0.044-0.065-0.065
	c-0.022-0.022-0.043-0.044-0.065-0.065c-0.022-0.022-0.043-0.044-0.065-0.065c-0.022-0.022-0.043-0.044-0.066-0.066
	c-0.021-0.021-0.042-0.043-0.064-0.064c-0.021-0.021-0.042-0.043-0.063-0.063c-0.022-0.022-0.044-0.045-0.067-0.067
	c-0.022-0.022-0.043-0.044-0.065-0.065c-0.022-0.022-0.044-0.044-0.066-0.066c-0.021-0.021-0.042-0.043-0.064-0.064
	c-0.022-0.022-0.043-0.044-0.065-0.065c-0.804-0.803-1.905-1.282-3.323-1.282H129.76c-1.893-9.719-6.636-18.42-13.322-25.198
	c-0.021-0.022-0.043-0.043-0.065-0.065c-0.022-0.023-0.045-0.045-0.068-0.068c-0.021-0.021-0.042-0.041-0.062-0.062
	c-0.022-0.022-0.044-0.043-0.065-0.065c-0.02-0.02-0.04-0.04-0.06-0.06c-0.023-0.024-0.047-0.047-0.07-0.07
	c-0.022-0.023-0.045-0.045-0.068-0.068c-0.021-0.021-0.042-0.041-0.062-0.062c-0.021-0.022-0.043-0.043-0.065-0.065
	c-0.021-0.022-0.043-0.043-0.065-0.065c-0.021-0.022-0.043-0.043-0.065-0.065c-0.022-0.023-0.045-0.045-0.068-0.068
	c-0.021-0.021-0.042-0.041-0.062-0.062c-0.022-0.022-0.044-0.043-0.065-0.065c-0.02-0.02-0.04-0.04-0.06-0.06
	c-0.023-0.024-0.047-0.047-0.07-0.07c-0.022-0.023-0.045-0.045-0.068-0.068c-0.021-0.021-0.042-0.041-0.062-0.062
	c-0.021-0.022-0.043-0.043-0.065-0.065c-0.021-0.022-0.043-0.043-0.065-0.065c-0.021-0.022-0.043-0.043-0.065-0.065
	c-0.022-0.023-0.045-0.045-0.068-0.068c-0.021-0.021-0.042-0.041-0.062-0.062c-0.022-0.022-0.043-0.043-0.065-0.065
	c-0.02-0.02-0.04-0.04-0.06-0.06c-0.023-0.024-0.047-0.047-0.07-0.07c-0.022-0.022-0.044-0.043-0.065-0.065
	c-0.022-0.023-0.045-0.045-0.068-0.068c-0.021-0.021-0.042-0.041-0.062-0.062c-0.021-0.022-0.043-0.043-0.065-0.065
	c-0.021-0.022-0.043-0.043-0.065-0.065c-0.021-0.022-0.043-0.043-0.065-0.065c-0.022-0.023-0.045-0.045-0.068-0.068
	c-0.021-0.021-0.042-0.041-0.062-0.062c-0.02-0.02-0.04-0.04-0.06-0.06c-0.023-0.024-0.047-0.047-0.07-0.07
	c-0.022-0.022-0.044-0.043-0.065-0.065c-0.022-0.023-0.045-0.045-0.068-0.068c-0.021-0.021-0.042-0.041-0.062-0.062
	c-0.021-0.022-0.043-0.043-0.065-0.065c-0.021-0.022-0.043-0.043-0.065-0.065c-0.021-0.022-0.044-0.043-0.065-0.065
	c-0.022-0.023-0.045-0.045-0.068-0.068c-0.021-0.021-0.042-0.041-0.062-0.062c-0.02-0.02-0.04-0.04-0.06-0.06
	c-0.023-0.024-0.047-0.047-0.07-0.07c-0.022-0.022-0.044-0.043-0.065-0.065c-0.022-0.023-0.045-0.045-0.068-0.068
	c-0.021-0.021-0.042-0.041-0.062-0.062c-0.021-0.022-0.043-0.043-0.065-0.065c-8.964-9.121-21.441-14.777-35.24-14.777
	c-27.289,0-49.412,22.123-49.412,49.412c0,13.661,5.544,26.027,14.505,34.972c0.022,0.022,0.043,0.043,0.065,0.065
	c0.022,0.023,0.045,0.045,0.068,0.068c0.021,0.021,0.042,0.042,0.063,0.062c0.022,0.022,0.043,0.044,0.065,0.065
	c0.02,0.02,0.04,0.04,0.06,0.06c0.023,0.023,0.047,0.047,0.07,0.07s0.045,0.045,0.068,0.068c0.021,0.021,0.042,0.042,0.063,0.062
	c0.022,0.022,0.043,0.044,0.065,0.065c0.022,0.022,0.043,0.043,0.065,0.065s0.043,0.044,0.065,0.065
	c0.022,0.022,0.045,0.045,0.068,0.068c0.021,0.021,0.042,0.042,0.063,0.062c0.022,0.022,0.043,0.043,0.065,0.065
	c0.02,0.02,0.04,0.04,0.06,0.06c0.023,0.023,0.047,0.047,0.07,0.07c0.023,0.022,0.045,0.045,0.068,0.068
	c0.021,0.021,0.042,0.042,0.063,0.062c0.022,0.022,0.043,0.043,0.065,0.065s0.043,0.044,0.065,0.065
	c0.022,0.022,0.043,0.043,0.065,0.065c0.022,0.023,0.045,0.045,0.068,0.068c0.021,0.021,0.042,0.042,0.063,0.062
	c0.022,0.022,0.043,0.044,0.065,0.065c0.02,0.02,0.04,0.04,0.06,0.06c0.023,0.023,0.047,0.047,0.07,0.07
	c0.022,0.022,0.043,0.044,0.065,0.065c0.023,0.022,0.045,0.045,0.068,0.068c0.021,0.021,0.042,0.042,0.063,0.062
	c0.022,0.022,0.043,0.043,0.065,0.065s0.043,0.044,0.065,0.065c0.022,0.022,0.043,0.043,0.065,0.065
	c0.022,0.023,0.045,0.045,0.068,0.068c0.021,0.021,0.042,0.042,0.063,0.062c0.02,0.02,0.04,0.04,0.06,0.06
	c0.023,0.023,0.047,0.047,0.07,0.07c0.022,0.022,0.043,0.043,0.065,0.065c0.023,0.023,0.045,0.045,0.068,0.068
	c0.021,0.021,0.042,0.042,0.063,0.062c0.022,0.022,0.043,0.044,0.065,0.065c0.022,0.022,0.043,0.043,0.065,0.065
	s0.043,0.044,0.065,0.065c0.022,0.022,0.045,0.045,0.068,0.068c0.021,0.021,0.042,0.042,0.063,0.062c0.02,0.02,0.04,0.04,0.06,0.06
	c0.023,0.023,0.047,0.047,0.07,0.07c0.022,0.022,0.043,0.044,0.065,0.065c0.023,0.022,0.045,0.045,0.068,0.068
	c0.021,0.021,0.042,0.042,0.063,0.062c0.022,0.022,0.043,0.043,0.065,0.065c8.944,8.961,21.31,14.505,34.972,14.505
	c25.217,0,46.02-18.891,49.034-43.292h0.001c-0.002,0.022-0.004,0.043-0.007,0.065h19.14c3.415,0,4.998-2.77,4.998-6.185
	C154.425,79.225,153.863,77.42,152.686,76.292z"/>
<path fill="#F0F0F0" d="M77.943,28.531c27.289,0,49.412,22.123,49.412,49.412s-22.122,49.412-49.412,49.412
	s-49.412-22.122-49.412-49.412S50.654,28.531,77.943,28.531z"/>
<path opacity="0.1" enable-background="new    " d="M77.943,34.448c24.022,0,43.495,19.473,43.495,43.495
	s-19.473,43.495-43.495,43.495s-43.495-19.473-43.495-43.495S53.921,34.448,77.943,34.448z"/>
<path fill="#BE9473" d="M77.943,36.805c22.72,0,41.138,18.418,41.138,41.138s-18.418,41.138-41.138,41.138
	s-41.138-18.418-41.138-41.138S55.223,36.805,77.943,36.805z"/>
<path fill="#462608" d="M78.891,43.024c19.678,0,35.63,15.952,35.63,35.63s-15.952,35.63-35.63,35.63s-35.63-15.952-35.63-35.63
	S59.213,43.024,78.891,43.024z"/>
<path fill="#BE9473" d="M72.583,41.037c1.593,0,2.884,1.291,2.884,2.884s-1.291,2.884-2.884,2.884s-2.884-1.291-2.884-2.884
	S70.99,41.037,72.583,41.037z M76.96,40.443c1.128,0,2.042,0.914,2.042,2.042s-0.914,2.042-2.042,2.042s-2.042-0.914-2.042-2.042
	S75.832,40.443,76.96,40.443z M80.65,40.7c1.128,0,2.042,0.914,2.042,2.042s-0.914,2.042-2.042,2.042s-2.042-0.914-2.042-2.042
	S79.522,40.7,80.65,40.7z M85.328,41.037c2.087,0,3.778,1.691,3.778,3.778s-1.691,3.778-3.778,3.778s-3.778-1.691-3.778-3.778
	S83.241,41.037,85.328,41.037z M52.557,50.869c1.593,0,2.884,1.291,2.884,2.884s-1.291,2.884-2.884,2.884s-2.884-1.291-2.884-2.884
	S50.964,50.869,52.557,50.869z M52.169,53.753c3.701,0,6.702,3.001,6.702,6.702c0,3.701-3.001,6.702-6.702,6.702
	s-6.702-3.001-6.702-6.702C45.467,56.754,48.468,53.753,52.169,53.753z M63.431,46.805c0,0.793-0.594,2.278-1.436,1.436
	c-0.561-0.561-1.436-0.643-1.436-1.436s0.643-1.436,1.436-1.436S63.431,46.012,63.431,46.805z M60.685,47.608
	c1.002,0,1.814,0.812,1.814,1.814s-0.812,1.814-1.814,1.814s-1.814-0.812-1.814-1.814S59.683,47.608,60.685,47.608z M63.747,51.686
	c0.793,0,1.436,0.643,1.436,1.436s-0.643,1.436-1.436,1.436c-0.793,0-1.436-0.643-1.436-1.436S62.954,51.686,63.747,51.686z
	 M61.429,56.637c0.48,0,0.87,0.39,0.87,0.87s-0.39,0.87-0.87,0.87s-0.87-0.39-0.87-0.87S60.949,56.637,61.429,56.637z
	 M46.811,77.784c0.48,0,0.87,0.39,0.87,0.87s-0.39,0.87-0.87,0.87s-0.87-0.39-0.87-0.87S46.331,77.784,46.811,77.784z
	 M88.235,48.552c0.48,0,0.87,0.39,0.87,0.87s-0.39,0.87-0.87,0.87s-0.87-0.39-0.87-0.87S87.755,48.552,88.235,48.552z
	 M50.775,66.473c0.377,0,0.683,0.306,0.683,0.683s-0.306,0.683-0.683,0.683s-0.683-0.306-0.683-0.683S50.398,66.473,50.775,66.473z
	 M67.502,42.741c2.244,0,4.064,1.82,4.064,4.064s-1.82,4.064-4.064,4.064s-4.064-1.82-4.064-4.064S65.258,42.741,67.502,42.741z
	 M42.725,74.457c1.593,0,2.884,1.291,2.884,2.884s-1.291,2.884-2.884,2.884s-2.884-1.291-2.884-2.884S41.132,74.457,42.725,74.457z
	 M44.593,86.731c0.757,0.238,1.995,1.251,0.939,1.801c-0.704,0.367-1.044,1.177-1.801,0.94c-0.757-0.238-1.177-1.045-0.939-1.802
	S43.836,86.493,44.593,86.731z M44.333,87.701c1.001,0,1.813,0.812,1.813,1.813s-0.812,1.813-1.813,1.813s-1.813-0.812-1.813-1.813
	S43.332,87.701,44.333,87.701z M43.905,79.278c2.244,0,4.064,1.82,4.064,4.064s-1.82,4.064-4.064,4.064s-4.064-1.82-4.064-4.064
	S41.661,79.278,43.905,79.278z M45.61,62.894c1.85,0,3.35,1.5,3.35,3.35s-1.5,3.35-3.35,3.35s-3.35-1.5-3.35-3.35
	S43.76,62.894,45.61,62.894z M43.261,68.237c2.093,0,3.79,1.697,3.79,3.79s-1.697,3.79-3.79,3.79s-3.79-1.697-3.79-3.79
	S41.168,68.237,43.261,68.237z M56.621,48.241c2.244,0,4.064,1.82,4.064,4.064s-1.82,4.064-4.064,4.064s-4.064-1.82-4.064-4.064
	S54.377,48.241,56.621,48.241z M108.984,97.236c1.128,0,2.042,0.914,2.042,2.042s-0.914,2.042-2.042,2.042s-2.042-0.914-2.042-2.042
	S107.856,97.236,108.984,97.236z M106.636,100.095c1.128,0,2.042,0.914,2.042,2.042s-0.914,2.042-2.042,2.042
	s-2.042-0.914-2.042-2.042S105.508,100.095,106.636,100.095z M102.235,100.97c2.086,0,3.777,1.691,3.777,3.777
	s-1.691,3.777-3.777,3.777s-3.777-1.691-3.777-3.777S100.149,100.97,102.235,100.97z M96.983,52.876c0.48,0,0.87,0.39,0.87,0.87
	s-0.39,0.87-0.87,0.87s-0.87-0.39-0.87-0.87S96.503,52.876,96.983,52.876z M96.796,103.576c0.48,0,0.87,0.39,0.87,0.87
	s-0.39,0.87-0.87,0.87s-0.87-0.39-0.87-0.87S96.316,103.576,96.796,103.576z M104.055,62.958c0.377,0,0.683,0.306,0.683,0.683
	c0,0.377-0.306,0.683-0.683,0.683s-0.683-0.306-0.683-0.683C103.372,63.264,103.678,62.958,104.055,62.958z M100.421,48.294
	c1.593,0,2.884,1.291,2.884,2.884s-1.291,2.884-2.884,2.884s-2.884-1.291-2.884-2.884S98.828,48.294,100.421,48.294z M91.686,47.258
	c-0.632,0.479-2.175,0.901-2.012-0.279c0.109-0.786-0.354-1.533,0.279-2.012c0.633-0.479,1.534-0.354,2.012,0.279
	C92.444,45.878,92.319,46.779,91.686,47.258z M89.569,43.618c1.002,0,1.814,0.812,1.814,1.814s-0.812,1.814-1.814,1.814
	s-1.814-0.812-1.814-1.814S88.567,43.618,89.569,43.618z M94.847,44.598c2.244,0,4.063,1.819,4.063,4.063s-1.819,4.063-4.063,4.063
	s-4.063-1.819-4.063-4.063S92.603,44.598,94.847,44.598z M104.44,50.904c2.093,0,3.79,1.697,3.79,3.79s-1.697,3.79-3.79,3.79
	s-3.79-1.697-3.79-3.79S102.347,50.904,104.44,50.904z"/>
<path fill="#F0F0F0" d="M151.108,77.943c0,3.415-1.583,6.185-4.997,6.185h-19.14c0.254-2.026,0.384-4.09,0.384-6.185
	s-0.13-4.159-0.384-6.185h19.14C149.525,71.758,151.108,74.528,151.108,77.943z"/>
<path opacity="0.1" enable-background="new    " d="M130.27,77.943c0,2.095-0.131,4.159-0.384,6.185h-2.915
	c0.254-2.026,0.384-4.09,0.384-6.185s-0.13-4.158-0.384-6.185h2.915C130.139,73.784,130.27,75.848,130.27,77.943z"/>
</svg>
