<?xml version="1.0" encoding="iso-8859-1"?>
<!-- Generator: Adobe Illustrator 17.0.0, SVG Export Plug-In . SVG Version: 6.00 Build 0)  -->
<!DOCTYPE svg PUBLIC "-//W3C//DTD SVG 1.1//EN" "http://www.w3.org/Graphics/SVG/1.1/DTD/svg11.dtd">
<svg version="1.1" id="Capa_1" xmlns="http://www.w3.org/2000/svg" xmlns:xlink="http://www.w3.org/1999/xlink" x="0px" y="0px"
	 width="74.889px" height="130.695px" viewBox="0 0 74.889 130.695" style="enable-background:new 0 0 74.889 130.695;"
	 xml:space="preserve">
<g>
	<g>
		<g>
			<g>
				<path style="fill:#F6E9E5;" d="M55.915,67.02c4.289-5.633,22.486-18.525,16.753-42.527C66.935,0.492,56.555-10.86,49.436,13.828
					C42.315,38.511,51.039,62.6,51.039,62.6L55.915,67.02z"/>
			</g>
		</g>
		<g>
			<g>
				<path style="fill:#F29E9F;" d="M60.207,9.507c0,0,0.009,4.983-1.329,11.292c-1.337,6.307,5.105,21.04-1.347,36.731
					C57.531,57.53,81.586,40.252,60.207,9.507z"/>
			</g>
		</g>
		<g>
			<g>
				<path style="fill:#F6E9E5;" d="M21.195,67.02C16.908,61.387-1.291,48.495,4.442,24.493C10.174,0.492,20.555-10.86,27.675,13.828
					C34.794,38.511,26.071,62.6,26.071,62.6L21.195,67.02z"/>
			</g>
		</g>
		<g>
			<g>
				<path style="fill:#F29E9F;" d="M16.903,9.507c0,0-0.008,4.983,1.329,11.292c1.336,6.307-5.106,21.04,1.347,36.731
					C19.579,57.53-4.476,40.252,16.903,9.507z"/>
			</g>
		</g>
	</g>
	<g>
		<g>
			<g>
				<g>
					<path style="fill:#D3C5C1;" d="M13.501,101.374c0,11.904,10.72,21.554,23.943,21.554V79.82
						C24.221,79.82,13.501,89.471,13.501,101.374z"/>
				</g>
			</g>
			<g>
				<g>
					<path style="fill:#F6E9E5;" d="M61.387,101.374c0-11.903-10.721-21.554-23.943-21.554v43.108
						C50.666,122.928,61.387,113.278,61.387,101.374z"/>
				</g>
			</g>
		</g>
		<g>
			<g>
				<path style="fill:#D3C5C1;" d="M37.347,69.492c-15.317,0-27.736,9.65-27.736,21.554c0,11.903,12.419,23.775,27.736,23.775
					c15.319,0,27.739-11.872,27.739-23.775C65.085,79.142,52.665,69.492,37.347,69.492z"/>
			</g>
		</g>
		<g>
			<g>
				<g>
					<rect x="22.674" y="117.658" style="fill:#D3C5C1;" width="10.818" height="9.431"/>
				</g>
			</g>
			<g>
				<g>
					<path style="fill:#D3C5C1;" d="M36.544,130.695c0-4.673-3.788-8.461-8.461-8.461c-4.672,0-8.461,3.788-8.461,8.461H36.544z"/>
				</g>
			</g>
			<g>
				<g>
					<rect x="41.396" y="117.658" style="fill:#F6E9E5;" width="10.819" height="9.431"/>
				</g>
			</g>
			<g>
				<g>
					<path style="fill:#F6E9E5;" d="M55.267,130.695c0-4.673-3.788-8.461-8.461-8.461c-4.672,0-8.461,3.788-8.461,8.461H55.267z"/>
				</g>
			</g>
		</g>
	</g>
	<g>
		<g>
			<g>
				<g>
					<g>
						<path style="fill:#4B190D;" d="M24.688,51.06c0.085-0.035,0.169-0.066,0.254-0.101C24.855,50.992,24.774,51.027,24.688,51.06z
							"/>
					</g>
				</g>
			</g>
			<g>
				<g>
					<g>
						<path style="fill:#4B190D;" d="M49.948,50.96c0.079,0.035,0.163,0.064,0.243,0.098C50.109,51.025,50.03,50.991,49.948,50.96z"
							/>
					</g>
				</g>
			</g>
		</g>
		<g>
			<g>
				<g>
					<g>
						<path style="fill:#F6E9E5;" d="M74.889,95.053c-3.883-1.942-6.101-16.364-6.101-16.364
							c-2.219-14.979-9.153-24.131-17.473-27.183c-0.384-0.141-0.753-0.296-1.124-0.449c-0.08-0.034-0.164-0.062-0.243-0.098
							c-3.574-1.355-7.875-2.145-12.503-2.145v25.392v11.416c0.008,0,0.015,0,0.023,0c-0.008,0-0.015,0-0.023,0v24.406
							c0.029,0,0.057,0.002,0.087,0.002c9.183,0,14.893-1.778,18.722-4.715c1.746-1.338,3.417-2.788,5.221-3.942
							c-0.002-0.017-0.007-0.032-0.01-0.048C68.081,97.108,74.889,95.053,74.889,95.053z"/>
					</g>
				</g>
			</g>
			<g>
				<g>
					<g>
						<path style="fill:#D3C5C1;" d="M24.943,50.96c-0.085,0.035-0.169,0.065-0.254,0.101c-0.366,0.153-0.732,0.307-1.115,0.446
							C15.254,54.558,8.32,63.711,6.101,78.689c0,0-2.218,14.422-6.101,16.364c0,0,6.86,2.069,13.501,6.321
							c0,0,3.562,2.604,5.308,3.942c3.814,2.926,10.217,4.7,18.635,4.713V85.623c-0.022,0-0.041,0.001-0.062,0.001
							c0.021,0,0.041-0.002,0.062-0.002V74.207V48.815C32.816,48.815,28.52,49.604,24.943,50.96z"/>
					</g>
				</g>
			</g>
		</g>
		<g>
			<g>
				<g>
					<g>
						<path style="fill:#B6382F;" d="M24.131,76.61c0,2.524-2.05,4.574-4.578,4.574c-2.527,0-4.577-2.05-4.577-4.574
							c0-2.529,2.049-4.578,4.577-4.578C22.081,72.031,24.131,74.08,24.131,76.61z"/>
					</g>
				</g>
			</g>
			<g>
				<g>
					<g>
						<path style="fill:#B6382F;" d="M59.91,76.61c0,2.524-2.047,4.574-4.577,4.574c-2.527,0-4.577-2.05-4.577-4.574
							c0-2.529,2.05-4.578,4.577-4.578C57.863,72.031,59.91,74.08,59.91,76.61z"/>
					</g>
				</g>
			</g>
			<g>
				<g>
					<circle style="fill:#FFFFFF;" cx="21.471" cy="75.201" r="1.406"/>
				</g>
			</g>
			<g>
				<g>
					<circle style="fill:#FFFFFF;" cx="57.531" cy="75.201" r="1.406"/>
				</g>
			</g>
		</g>
		<g>
			<g>
				<path style="fill:#F29E9F;" d="M43.794,87.609l-6.424,0.735l-6.426-0.735c-0.601-0.076-1.159,0.368-1.23,0.978
					c-0.069,0.609,0.368,1.159,0.978,1.229l5.493,0.629v8.072c-0.366,0.432-1.209,1.245-2.064,0.785
					c-0.543-0.291-1.215-0.088-1.505,0.452c-0.29,0.541-0.087,1.214,0.453,1.504c0.544,0.293,1.075,0.414,1.578,0.414
					c1.075,0,2.02-0.556,2.712-1.185c0.68,0.631,1.615,1.187,2.7,1.187c0.505,0,1.041-0.12,1.597-0.408
					c0.544-0.282,0.757-0.953,0.475-1.497c-0.281-0.544-0.952-0.757-1.497-0.475c-0.917,0.471-1.728-0.329-2.079-0.763v-8.087
					l5.493-0.629c0.608-0.069,1.045-0.619,0.977-1.229C44.954,87.976,44.403,87.53,43.794,87.609z"/>
			</g>
		</g>
	</g>
</g>
</svg>
