<?xml version="1.0" encoding="utf-8"?>
<!-- Generator: Adobe Illustrator 17.0.0, SVG Export Plug-In . SVG Version: 6.00 Build 0)  -->
<!DOCTYPE svg PUBLIC "-//W3C//DTD SVG 1.1//EN" "http://www.w3.org/Graphics/SVG/1.1/DTD/svg11.dtd">
<svg version="1.1"
	 id="svg2" xmlns:svg="http://www.w3.org/2000/svg" inkscape:export-xdpi="521" inkscape:export-filename="C:\Dokumente und Einstellungen\jischa\Desktop\symbole verkehr v4 2.png" xmlns:inkscape="http://www.inkscape.org/namespaces/inkscape" xmlns:rdf="http://www.w3.org/1999/02/22-rdf-syntax-ns#" xmlns:cc="http://creativecommons.org/ns#" xmlns:dc="http://purl.org/dc/elements/1.1/" xmlns:sodipodi="http://sodipodi.sourceforge.net/DTD/sodipodi-0.dtd" inkscape:export-ydpi="521" sodipodi:docname="symbole verkehr v 5 1.svg" inkscape:version="0.48.0 r9654"
	 xmlns="http://www.w3.org/2000/svg" xmlns:xlink="http://www.w3.org/1999/xlink" x="0px" y="0px" width="99.083px"
	 height="61.14px" viewBox="0 0 99.083 61.14" enable-background="new 0 0 99.083 61.14" xml:space="preserve">
<path id="path5875" inkscape:connector-curvature="0" fill="#08A1EF" d="M14.55,60.998c-3.501-0.667-7.326-2.865-9.827-5.649
	c-2.679-2.981-3.877-5.437-4.559-9.348c-0.22-1.26-0.218-6.05,0-7.162c0.259-1.307,0.806-2.882,1.508-4.347
	c2.249-4.687,6.017-8.073,10.743-9.656c1.873-0.628,2.994-0.796,5.276-0.79c2.199,0.007,3.44,0.193,5.627,0.852
	c1.002,0.302,1.064,0.307,1.283,0.108c0.298-0.269,0.412-0.734,0.254-1.03c-0.154-0.288-1.623-0.77-2.891-0.948
	c-1.631-0.23-3.64-0.282-5.598-0.144c-2.374,0.167-3.229,0.292-4.995,0.731c-1.796,0.446-2.545,0.542-2.872,0.367
	c-0.328-0.176-0.343-0.737-0.027-1.023c0.456-0.413,3.488-1.21,5.922-1.557c3.106-0.442,5.79-0.36,9.195,0.28
	c1.326,0.25,1.848,0.306,1.966,0.209c0.521-0.427,3.543-7.96,4.351-10.845c0.263-0.939,0.263-0.953,0.035-1.265
	c-0.298-0.404-1.272-1.119-3.47-2.541c-2.475-1.602-2.9-2.204-2.796-3.958c0.064-1.06,0.276-1.549,1.128-2.583L25.379,0l6.327,0.045
	c7.076,0.051,7.121,0.055,7.501,0.816c0.395,0.791,0.214,2.263-0.313,2.556c-0.181,0.101-1.816,0.171-5.435,0.235
	c-5.11,0.092-5.958,0.138-5.958,0.325c0,0.115,1.195,0.971,3.874,2.772c2.082,1.4,2.987,2.215,2.986,2.686
	c-0.001,0.369-0.41,2.034-0.715,2.91c-0.137,0.391-0.247,0.757-0.247,0.813s5.961,0.102,13.247,0.102h13.247l0.301-0.68
	c0.344-0.776,0.315-0.968-0.158-1.072c-2.093-0.459-3.444-1.183-4.987-2.671c-1.625-1.566-2.185-2.931-1.519-3.701
	c0.371-0.429,1.061-0.507,5.327-0.607c3.833-0.089,8.622,0.084,9.938,0.358c2.015,0.42,2.995,1.491,2.855,3.119
	c-0.117,1.36-1.373,3.074-2.563,3.499c-0.407,0.145-1.106,0.235-2.17,0.277l-1.568,0.062l-0.456,1.225l-0.457,1.226l2.435,4.127
	c1.34,2.271,2.506,4.155,2.594,4.189c0.086,0.034,0.877-0.186,1.757-0.486c2.702-0.926,3.709-1.089,6.714-1.09
	c2.351,0,2.728,0.029,4.105,0.322c4.118,0.877,7.384,2.652,10.34,5.623c1.935,1.944,3.427,4.087,4.933,7.082
	c1.901,3.783,2.211,5.078,1.212,5.078c-0.463,0-0.775-0.393-1.329-1.67c-0.768-1.772-1.741-3.723-2.407-4.83
	c-2.85-4.737-7.457-8.411-12.012-9.578c-3.22-0.825-8.177-0.562-11.03,0.588c-1.167,0.47-1.265,0.601-0.988,1.323l0.208,0.544
	l1.408-0.473c2.149-0.723,3.727-0.992,5.862-1.003c2.023-0.007,3.287,0.159,5.026,0.672c5.949,1.752,10.882,6.933,12.417,13.042
	c1.136,4.521,0.489,9.996-1.64,13.903c-2.634,4.83-6.74,7.959-12.028,9.164c-1.094,0.25-1.552,0.285-3.716,0.284
	c-3.285,0-4.561-0.279-7.344-1.603c-2.492-1.185-5.448-3.625-6.949-5.734c-1.289-1.813-2.548-4.555-3.188-6.944l-0.261-0.974
	l-1.632,0.073c-0.897,0.04-2.904,0.104-4.46,0.14l-2.829,0.067l-4.273-3.692c-7.066-6.107-9.27-7.912-9.442-7.74
	c-0.029,0.029,0.074,0.567,0.231,1.194c0.599,2.385,0.703,3.525,0.627,6.857c-0.094,4.19-0.431,6.188-1.134,6.74
	c-0.368,0.29-0.556,0.303-0.806,0.052c-0.255-0.255-0.238-0.927,0.061-2.459c0.184-0.939,0.265-1.949,0.313-3.93
	c0.09-3.647-0.154-5.618-1.002-8.088c-0.906-2.641-2.026-4.023-5.762-7.111c-1.401-1.158-2.075-1.557-2.178-1.289
	c-0.117,0.304,0.26,0.819,1.739,2.382c0.794,0.838,1.746,1.932,2.115,2.432c2.909,3.934,4.207,9.95,3.205,14.852
	c-1.135,5.549-4.381,9.994-9.275,12.701c-1.115,0.617-3.308,1.491-4.477,1.784c-1.3,0.327-5.676,0.44-7.032,0.181L14.55,60.998z
	 M81.732,57.511c2.869-0.712,4.717-1.826,7.061-4.258c3.02-3.133,4.259-6.291,4.238-10.803c-0.016-2.803-0.396-4.477-1.539-6.727
	c-2.114-4.16-5.986-7.209-10.361-8.16c-1.114-0.242-4.573-0.202-5.838,0.067c-1.159,0.247-2.168,0.64-2.164,0.841
	c0.016,0.609,4.063,7.396,5.58,9.352c0.356,0.458,0.644,0.715,0.801,0.715c0.775,0,2.096,1.184,2.688,2.408
	c0.335,0.693,0.377,0.899,0.372,1.805c-0.016,0.876-0.053,1.116-0.339,1.666c-0.422,0.816-1.2,1.596-2.022,2.027
	c-0.567,0.298-0.769,0.337-1.726,0.334c-0.943,0-1.206-0.055-2.034-0.397c-0.826-0.341-1.173-0.408-2.647-0.518
	c-1.627-0.119-8.761-0.052-9.492,0.092c-0.22,0.043-0.331,0.14-0.331,0.289c0,0.388,0.732,2.271,1.376,3.537
	c1.99,3.915,5.704,6.813,9.943,7.759c1.544,0.345,1.74,0.361,3.606,0.313C80.118,57.821,80.833,57.735,81.732,57.511L81.732,57.511z
	 M21.547,57.386c5.671-1.683,10.026-6.725,10.77-12.468c0.435-3.359-0.311-7.422-1.822-9.939c-0.99-1.65-3.168-4.266-3.551-4.266
	c-0.202,0-0.462,0.565-1.669,3.611c-1.131,2.858-1.722,4.134-2.394,5.172c-0.897,1.388-0.913,1.436-0.914,2.797
	c-0.001,1.061-0.043,1.33-0.296,1.873c-0.416,0.893-0.823,1.387-1.545,1.877c-2.551,1.73-5.789,0.438-6.541-2.612
	c-0.186-0.754-0.186-0.851,0.016-1.588c0.117-0.432,0.415-1.098,0.662-1.481c0.821-1.271,1.64-1.737,3.396-1.934
	c1.005-0.113,1.222-0.202,1.683-0.693c0.529-0.566,1.104-1.758,2.308-4.796c1.551-3.909,1.767-4.499,1.669-4.558
	c-0.047-0.027-0.544-0.195-1.106-0.373c-2.891-0.914-5.87-0.891-8.878,0.07c-2.208,0.706-3.593,1.552-5.477,3.344
	c-2.548,2.425-3.709,4.443-4.444,7.725c-0.246,1.102-0.279,1.554-0.271,3.722c0.016,2.252,0.036,2.567,0.317,3.611
	c1.325,4.922,5.212,9.168,9.798,10.704c1.609,0.539,2.145,0.602,4.801,0.559c2.193-0.035,2.504-0.067,3.491-0.36L21.547,57.386z
	 M56.802,41.363c0.101-0.101,0.213-0.359,0.248-0.572c0.035-0.213,0.199-1.2,0.363-2.192c0.805-4.855,2.328-7.702,6.291-11.747
	c1.011-1.032,1.837-1.919,1.837-1.972c0-0.229-3.077-5.001-3.223-4.998c-0.104,0-0.472,0.893-3.781,9.147
	c-2.902,7.237-4.672,11.782-4.672,12.002c0,0.171,0.206,0.229,1.324,0.381C56.369,41.571,56.6,41.565,56.802,41.363L56.802,41.363z
	 M60.29,41.156c0.095-0.149,0.233-0.732,0.311-1.294c0.516-3.771,2.025-6.879,5.053-10.399c0.733-0.853,1.34-1.638,1.348-1.745
	c0.027-0.369-0.033-0.556-0.256-0.783c-0.348-0.357-0.76-0.105-2.21,1.35c-3.062,3.074-4.957,6.598-5.613,10.436
	c-0.416,2.435-0.35,2.674,0.75,2.696C60.012,41.425,60.161,41.362,60.29,41.156L60.29,41.156z M74.077,41.132
	c0.657-0.34,0.656-0.861-0.016-2.158c-0.859-1.688-4.539-7.542-4.951-7.879c-0.172-0.139-0.279-0.084-0.824,0.422
	c-0.914,0.847-2.437,2.944-3.046,4.192c-0.899,1.844-1.798,5.075-1.509,5.424c0.207,0.25,0.821,0.274,5.565,0.224
	c3.596-0.038,4.491-0.08,4.77-0.225H74.077z M51.572,34.793c1.19-3.162,6.034-15.639,6.572-16.929l0.163-0.391H44.981H31.654
	l-0.632,1.752c-0.349,0.963-0.694,1.982-0.77,2.264l-0.139,0.513l0.591,0.543c1.092,1.004,1.661,1.497,4.925,4.271
	c9.707,8.25,14.27,12.005,14.414,11.86C50.101,38.619,50.79,36.871,51.572,34.793L51.572,34.793z"/>
</svg>
