<?xml version="1.0" encoding="utf-8"?>
<!DOCTYPE svg PUBLIC "-//W3C//DTD SVG 1.1//EN" "http://www.w3.org/Graphics/SVG/1.1/DTD/svg11.dtd">
<svg version="1.1" baseProfile="full"
 xmlns="http://www.w3.org/2000/svg"
 xmlns:xlink="http://www.w3.org/1999/xlink"
 xmlns:ev="http://www.w3.org/2001/xml-events" 
  height="324px" 
  width="612px" 
>
<path fill="rgb( 255, 82, 70 )"
 d="M589,85 C589,85 568,84 568,84 C568,84 567,116 567,116 C567,116 540,116 540,116 C540,116 541,85 541,85 C541,85 521,85 521,85 C521,85 521,199 521,199 C521,199 491.5,227.5 490,229 C488.5,230.5 489,69 489,69 C489,69 541,66 541,66 C541,66 539,52 539,52 C539,52 568,51 568,51 C568,51 569,68 569,68 C569,68 609,69 609,69 C609,69 611,109 611,109 C611,109 589,108 589,108 C589,108 589,85 589,85 ZM531,144 C528.5,142.5 558,141 558,141 C558,141 571,154 571,154 C571,154 585,138 585,138 C585,138 526,139 526,139 C526,139 527,118 527,118 C527,118 609,119 609,119 C609,119 612,145 612,145 C612,145 583,173 583,173 C583,173 607,204 607,204 C607,204 582.5,205.5 581,205 C579.5,204.5 570,192 570,192 C570,192 490,281 490,281 C490,281 486,249 486,249 C486,249 553,174 553,174 C553,174 533.5,145.5 531,144 ZM454,66 C454,66 480,66 480,66 C480,66 480,103 480,103 C480,103 454,103 454,103 C454,103 454,66 454,66 ZM418,189 C418,189 422,189 422,189 C422,189 422,258 422,258 C422,258 418,258 418,258 C418,258 418,189 418,189 ZM388,24 C388,24 405,0 405,0 C405,0 421,26 421,26 C421,26 421,171 421,171 C421,171 389,228 389,228 C389,228 388,24 388,24 ZM243,133 C243,133 357,132 357,132 C357,132 358,194 358,194 C358,194 242,196 242,196 C242,196 243,133 243,133 ZM274,178 C274,178 326,178 326,178 C326,178 326,148 326,148 C326,148 274,149 274,149 C274,149 274,178 274,178 ZM250,118 C250,118 249,100 249,100 C249,100 351,102 351,102 C351,102 350,116 350,116 C350,116 250,118 250,118 ZM236,232 C236,232 201,293 201,293 C201,293 202,69 202,69 C202,69 355,69 355,69 C355,69 357,85 357,85 C357,85 237,86 237,86 C237,86 236,232 236,232 ZM38,154 C38,154 53,155 53,155 C53,155 52,170 52,170 C52,170 37,170 37,170 C37,170 38,177 38,177 C38,177 54,174 54,174 C54,174 51,191 51,191 C51,191 38,190 38,190 C38,190 35,201 35,201 C35,201 57,195 57,195 C57,195 58,145 58,145 C58,145 91,147 91,147 C91,147 90,229 90,229 C90,229 57,263 57,263 C57,263 58,212 58,212 C58,212 0,226 0,226 C0,226 1,207 1,207 C1,207 7,206 7,206 C7,206 9,143 9,143 C9,143 1,141 1,141 C1,141 1,127 1,127 C1,127 188,127 188,127 C188,127 189,143 189,143 C189,143 39,142 39,142 C39,142 38,154 38,154 ZM143,123 C143,123 144,85 144,85 C144,85 46,84 46,84 C46,84 45,108 45,108 C45,108 105,107 105,107 C105,107 105,104 105,104 C105,104 53,103 53,103 C53,103 53,87 53,87 C53,87 135,88 135,88 C135,88 135,125 135,125 C135,125 17,124 17,124 C17,124 16,68 16,68 C16,68 173,68 173,68 C173,68 172,123 172,123 C172,123 143,123 143,123 ZM99,167 C99,167 129,167 129,167 C129,167 139,180 139,180 C139,180 155,163 155,163 C155,163 98,162 98,162 C98,162 98,145 98,145 C98,145 180,145 180,145 C180,145 181,169 181,169 C181,169 153,200 153,200 C153,200 179,229 179,229 C179,229 151,230 151,230 C151,230 137,216 137,216 C137,216 59,308 59,308 C59,308 57,274 57,274 C57,274 125,198 125,198 C125,198 99,167 99,167 ZM394,324 C394,324 390,324 390,324 C390,324 390,244 390,244 C390,244 394,244 394,244 C394,244 394,324 394,324 ZM403,307 C403,307 399,307 399,307 C399,307 399,236 399,236 C399,236 403,236 403,236 C403,236 403,307 403,307 ZM414,273 C414,273 409,273 409,273 C409,273 409,214 409,214 C409,214 414,214 414,214 C414,214 414,273 414,273 ZM479,116 C479,116 479,148 479,148 C479,148 455,148 455,148 C455,148 455,116 455,116 C455,116 479,116 479,116 ZM479,263 C479,263 454,263 454,263 C454,263 454,157 454,157 C454,157 479,157 479,157 C479,157 479,263 479,263 Z "/>
</svg>
