<?xml version="1.0" encoding="utf-8"?>
<!-- Generator: Adobe Illustrator 17.0.0, SVG Export Plug-In . SVG Version: 6.00 Build 0)  -->
<!DOCTYPE svg PUBLIC "-//W3C//DTD SVG 1.1//EN" "http://www.w3.org/Graphics/SVG/1.1/DTD/svg11.dtd">
<svg version="1.1" id="图层_1" xmlns="http://www.w3.org/2000/svg" xmlns:xlink="http://www.w3.org/1999/xlink" x="0px" y="0px"
	 width="31px" height="31px" viewBox="0 0 31 31" enable-background="new 0 0 31 31" xml:space="preserve">
<path fill="#7A4B27" d="M27.027,30.985H3.985C1.793,30.985,0,29.2,0,27.016V3.978c0-2.184,1.793-3.971,3.985-3.971h23.042
	c2.191,0,3.982,1.787,3.982,3.971v23.038C31.009,29.2,29.218,30.985,27.027,30.985z M15.505,8.858c-3.669,0-6.644,2.969-6.644,6.631
	s2.975,6.631,6.644,6.631s6.643-2.969,6.643-6.631S19.174,8.858,15.505,8.858z M27,5c0-0.646-0.353-1-1-1h-3c-0.649,0-1,0.354-1,1v3
	c0,0.646,0.351,1,1,1h3c0.647,0,1-0.354,1-1V5z M28,13l-3.139,0.272c0.168,0.711,0.276,1.444,0.276,2.205
	c0,5.304-4.307,9.602-9.621,9.602c-5.313,0-9.621-4.298-9.621-9.602c0-0.76,0.098-1.496,0.265-2.205L3,13v13c0,0.677,1.322,2,2,2h21
	c0.679,0,2-1.323,2-2V13z"/>
</svg>
