<?xml version="1.0" encoding="utf-8"?>
<!-- Generator: Adobe Illustrator 17.0.0, SVG Export Plug-In . SVG Version: 6.00 Build 0)  -->
<!DOCTYPE svg PUBLIC "-//W3C//DTD SVG 1.1//EN" "http://www.w3.org/Graphics/SVG/1.1/DTD/svg11.dtd">
<svg version="1.1" id="图层_1" xmlns="http://www.w3.org/2000/svg" xmlns:xlink="http://www.w3.org/1999/xlink" x="0px" y="0px"
	 width="90.851px" height="63.21px" viewBox="0.001 0 90.851 63.21" enable-background="new 0.001 0 90.851 63.21"
	 xml:space="preserve">
<g id="Tape">
	<path fill="#F9EA77" d="M32.282,8.223c-12.32,0-22.3,10-22.3,22.3c0,12.32,9.98,22.3,22.3,22.3s22.3-9.98,22.3-22.3
		C54.582,18.223,44.602,8.223,32.282,8.223z M32.282,38.553c-4.43,0-8.02-3.59-8.02-8.03c0-4.42,3.59-8.01,8.02-8.01
		c4.44,0,8.02,3.59,8.02,8.01C40.302,34.962,36.722,38.553,32.282,38.553z"/>
	<path fill="#FFFFFF" d="M32.282,21.232c-5.13,0-9.29,4.16-9.29,9.29s4.16,9.29,9.29,9.29c5.14,0,9.3-4.16,9.3-9.29
		C41.582,25.393,37.422,21.232,32.282,21.232z M32.282,38.553c-4.43,0-8.02-3.59-8.02-8.03c0-4.42,3.59-8.01,8.02-8.01
		c4.44,0,8.02,3.59,8.02,8.01C40.302,34.962,36.722,38.553,32.282,38.553z"/>
	<path opacity="0.1" fill="#FFFFFF" enable-background="new    " d="M17.641,63.21c-9.727,0-17.64-7.088-17.64-15.8V31.6
		c0-17.424,14.18-31.6,31.61-31.6c6.647,0,13.011,2.05,18.404,5.928l0.812,0.584l-8.309,11.527
		c3.725,3.057,5.922,7.651,5.922,12.481c0,3.267-1,6.472-2.838,9.149c4.772,2.21,8.623,2.463,10.124,2.463
		c0.56,0,0.88-0.033,0.91-0.036l0.114-0.006h4.68c10.843,0,13.338-6.85,14.99-11.382c0.252-0.679,0.46-1.24,0.668-1.735
		c1.433-3.352,2.971-4.174,3.566-4.372l0.154-0.051h3.922c0.827,0,1.5,0.673,1.5,1.5v5.55c0,16.241-12.076,29.828-28.089,31.604
		l-0.055,0.006H17.641z M32.281,23.505c-3.873,0-7.025,3.147-7.025,7.016c0,3.873,3.151,7.024,7.025,7.024
		c3.872,0,7.023-3.151,7.023-7.024C39.304,26.652,36.154,23.505,32.281,23.505z"/>
	<path opacity="0.5" fill="#F1F1F1" enable-background="new    " d="M84.731,25.55h-3.76c-0.27,0.09-1.63,0.7-2.96,3.81
		c-0.21,0.5-0.42,1.07-0.65,1.69c-1.64,4.5-4.4,12.04-15.93,12.04h-4.68c0,0-5.46,0.64-12.67-3.05c2.1-2.6,3.36-5.91,3.36-9.52
		c0-5.05-2.49-9.53-6.3-12.28c8.29-11.5,8.29-11.5,8.29-11.5C44.411,3.13,38.251,1,31.611,1c-16.88,0-30.61,13.73-30.61,30.6v15.81
		c0,8.16,7.46,14.8,16.64,14.8h40.39c15.51-1.72,27.2-14.87,27.2-30.61v-5.55C85.231,25.77,85.011,25.55,84.731,25.55z"/>
	<path fill="#8758B6" d="M78.551,43.34c-3.83,7.97-11.5,13.77-20.75,14.87h-40.16c-6.97,0-12.64-4.85-12.64-10.8V31.6
		c0-14.67,11.94-26.6,26.61-26.6c4.24,0,8.34,0.99,12.06,2.89l-6.48,8.99c-1.53-0.56-3.19-0.86-4.91-0.86
		c-8,0-14.51,6.51-14.51,14.5c0,8,6.51,14.51,14.51,14.51c2.97,0,5.73-0.89,8.03-2.43l1.95,1c6,3.07,11.01,3.53,13.47,3.53
		c0.53,0,0.94-0.02,1.2-0.04h4.5c5.69,0,9.7-1.56,12.56-3.75C73.991,43.34,78.551,43.34,78.551,43.34z"/>
	<path opacity="0.2" fill="none" stroke="#FFFFFF" stroke-miterlimit="10" enable-background="new    " d="M45.102,30.522
		c0,7.084-5.737,12.821-12.821,12.821S19.46,37.606,19.46,30.522c0-7.073,5.737-12.821,12.821-12.821S45.102,23.449,45.102,30.522z"
		/>
	<path opacity="0.2" fill="none" stroke="#FFFFFF" stroke-miterlimit="10" enable-background="new    " d="M42.731,30.522
		c0,5.773-4.676,10.45-10.45,10.45c-5.773,0-10.45-4.676-10.45-10.45c0-5.765,4.676-10.45,10.45-10.45
		C38.055,20.073,42.731,24.757,42.731,30.522z"/>
	<g>
		<g>
			<path fill="#F9EA77" d="M84.837,24.192c-25.751,0-37.956-8.876-38.076-8.966l0.597-0.802c0.118,0.087,12.093,8.768,37.477,8.768
				c2.13-0.011,3.664-0.51,4.434-1.443c0.751-0.91,0.568-1.944,0.56-1.987l0.981-0.193c0.012,0.061,0.29,1.518-0.755,2.8
				C89.078,23.566,87.323,24.179,84.837,24.192z"/>
		</g>
	</g>
	<polygon fill="#808080" points="84.821,24.192 83.117,24.55 84.821,24.55 	"/>
</g>
</svg>
