<?xml version="1.0" encoding="iso-8859-1"?>
<!-- Generator: Adobe Illustrator 17.0.0, SVG Export Plug-In . SVG Version: 6.00 Build 0)  -->
<!DOCTYPE svg PUBLIC "-//W3C//DTD SVG 1.1//EN" "http://www.w3.org/Graphics/SVG/1.1/DTD/svg11.dtd">
<svg version="1.1" id="Objects1" xmlns="http://www.w3.org/2000/svg" xmlns:xlink="http://www.w3.org/1999/xlink" x="0px" y="0px"
	 width="40.239px" height="97.217px" viewBox="0 0 40.239 97.217" style="enable-background:new 0 0 40.239 97.217;"
	 xml:space="preserve">
<g>
	<path style="fill:#E2AA15;" d="M21.156,64.191l-0.1-4.48c-0.635,1.555-1.263,3.127-1.871,4.718l1.141,1.903
		C20.598,65.617,20.878,64.904,21.156,64.191z"/>
	<path style="fill:#F9BB14;" d="M21.628,85.314c-0.268,0.797-0.514,1.551-0.742,2.275c-0.004,0.013-0.009,0.026-0.029,0.961
		l0.921-0.091L21.628,85.314z"/>
	<path style="fill:#F26E25;" d="M4.189,40.252C1.832,62.276,4.755,80.464,6.44,88.45L0,88.459l0.008,8.758l21.884-0.021
		l-0.098-8.783l-1.172,0.01l-5.044,0.001c-0.39-0.556-0.803-1.192-1.197-1.796c0.003-0.009,0.004-0.02,0.005-0.03l-1.329-2.267
		c-0.01,0.04-0.018,0.081-0.027,0.122c-0.493-0.839-0.991-1.669-1.376-2.502c-0.647-1.37-1.531-3.513-2.471-5.84
		c0.001-0.015,0.005-0.031,0.008-0.047l-1.17-2.957c-0.002,0.005-0.004,0.011-0.005,0.016c-0.597-1.543-1.183-3.08-1.701-4.444
		c-0.193-2.605-0.299-5.425-0.364-8.341c0.007-0.031,0.014-0.06,0.02-0.093l0.036-7.519C6.004,52.741,6,52.754,5.996,52.766
		c0.029-1.264,0.028-2.478,0.1-3.78c0.143,0.506,0.358,1.04,0.553,1.585c0,0.002-0.002,0.005-0.003,0.008l1.042,2.487
		c0.003-0.01,0.005-0.021,0.008-0.032c0.093,0.164,0.151,0.328,0.238,0.514c0.626,1.208,2.024,3.951,3.699,7.134
		c-0.011,0.03-0.019,0.06-0.03,0.09l1.141,2.075c0.005-0.021,0.012-0.039,0.019-0.059c1.355,2.537,2.836,5.191,4.262,7.545
		c-0.013,0.034-0.023,0.069-0.036,0.104l1.175,1.882c0.011-0.03,0.021-0.061,0.031-0.092c0.083,0.107,0.16,0.256,0.226,0.369
		c0.977,1.501,2.019,3.258,3.035,5.056l-0.219-9.784c-0.053-0.086-0.102-0.172-0.154-0.258c-0.255-0.418-0.502-0.841-0.761-1.27
		c0.001-0.002,0.002-0.004,0.003-0.007l-1.141-1.903c-0.001,0.002-0.001,0.002-0.002,0.003c-1.546-2.568-2.998-5.093-4.35-7.512
		c0.003-0.007,0.005-0.013,0.009-0.019l-1.105-2.042c-0.001,0.005-0.004,0.011-0.006,0.016l1.177,2.299l-1.177-2.299
		c-0.003,0.005-0.005,0.011-0.006,0.016c-1.566-2.9-2.944-5.636-4.042-8.163c0.003-0.004,0.005-0.01,0.006-0.017l-0.977-2.4
		C8.71,44.312,8.71,44.314,8.71,44.317c-0.02-0.051-0.038-0.101-0.057-0.152l-0.079-0.194l0.079,0.194
		c-0.506-1.318-0.949-2.598-1.248-3.774c-0.161-0.637-0.303-1.214-0.429-1.748c0.712-5.737,1.824-11.309,3.265-16.407
		c0.378,2.882,1.219,7.433,3.068,11.011c-0.007,0.012,0.013,0.07,0.006,0.083l1.033,1.822c0.007-0.018,0.015-0.037,0.023-0.053
		c1.155,1.891,2.701,4.485,4.395,7.394c-0.004,0.013-0.01,0.025-0.015,0.039l1.065,1.98c0.017-0.043,0.035-0.085,0.053-0.126
		c0.29,0.497,0.583,1.003,0.876,1.51l-0.223-10.028c-1.243-2.333-2.344-4.548-3.287-6.559c0.003-0.005,0.007-0.012,0.01-0.018
		l-1.229-2.579l1.229,2.579c0.011-0.019,0.019-0.037,0.03-0.056l-0.921-1.904c-0.004,0.009-0.009,0.016-0.013,0.025
		c-2.494-5.557-3.723-9.194-3.723-9.194l2.493-4.382l1.379,3.598l2.394-4.037c0,0,0.488,1.355,1.193,2.671L19.724,0.074
		C15.08,1.235,6.709,16.792,4.189,40.252z"/>
	<path style="fill:#F9BB14;" d="M6.007,52.727l-0.036,7.519c0.515-2.458,1.087-4.861,1.718-7.179L6.647,50.58
		C6.426,51.292,6.216,52.008,6.007,52.727z"/>
	<polygon style="fill:#9B509D;" points="22.238,38.881 22.258,38.919 22.259,38.917 	"/>
	<path style="fill:#E2AA15;" d="M21.057,59.711l0.1,4.48c1.364-3.49,2.796-6.927,4.197-10.14l-1.087-1.875
		C23.205,54.567,22.121,57.106,21.057,59.711z"/>
	<path style="fill:#DA6426;" d="M19.724,0.074L20.08,16.01c0.089,0.167,0.182,0.333,0.278,0.497
		c0.236,0.397,0.647,1.131,1.202,2.137c-0.008,0.01-0.016,0.023-0.023,0.034l0.913,1.758c0.018-0.027,0.038-0.059,0.055-0.086
		c0.932,1.659,2.091,3.787,3.541,6.362c-0.013,0.024-0.026,0.053-0.038,0.077l1.035,1.823c0.003-0.007,0.008-0.014,0.01-0.022
		l-1.23-2.313l1.23,2.313c0.006-0.01,0.011-0.021,0.016-0.032c0.698,1.255,1.431,2.567,2.228,4.007
		c0.832,1.465,1.525,2.926,2.165,4.346c-0.009,0.016-0.02,0.035-0.028,0.053l0.851,2.156c0.017-0.035,0.038-0.077,0.055-0.113
		c0.463,1.159,0.873,2.298,1.208,3.322c0.384,3.917,0.558,7.645,0.648,11.26c-0.007,0.018-0.019,0.042-0.026,0.061l0.063,4.3
		c0.015-0.037,0.032-0.08,0.049-0.117c-0.014,1.888-0.039,3.744-0.109,5.507c-0.302-0.844-0.674-1.762-1.058-2.737
		c0.01-0.023,0.019-0.045,0.029-0.069l-0.966-2.209c-0.002,0.004-0.004,0.009-0.006,0.013l1.038,2.549l-1.038-2.549
		c-0.004,0.011-0.009,0.021-0.013,0.031c-1.162-2.704-2.655-5.843-4.51-9.445c0.007-0.016,0.013-0.03,0.019-0.045l-0.996-2.014
		c-0.016,0.035-0.03,0.067-0.047,0.101c-1.253-2.34-2.636-4.877-4.184-7.604c-0.069-0.134-0.14-0.246-0.208-0.379
		c0.009-0.021,0.02-0.042,0.028-0.063l-0.021-0.039l-1.162-1.963l1.162,1.963l-1.028-1.905c-0.014,0.032-0.028,0.062-0.044,0.096
		c-0.22-0.408-0.429-0.804-0.642-1.205l0.223,10.028c1.186,2.051,2.395,4.162,3.546,6.216c-0.01,0.021-0.02,0.044-0.028,0.065
		l1.087,1.875c0.005-0.011,0.01-0.023,0.016-0.035c1.463,2.655,2.798,5.114,3.784,7.053c0.355,0.708,0.669,1.419,0.992,2.152
		c-0.007,0.015-0.014,0.033-0.02,0.049l0.941,2.257c0.007-0.021,0.016-0.042,0.025-0.061c0.99,2.53,1.8,5.016,2.383,7.032
		l0.805-9.68l-0.805,9.68c0.02,0.066,0.041,0.138,0.059,0.205c-0.578,6.02-1.403,10.912-2.079,14.266
		c-0.027-0.058-0.061-0.132-0.091-0.192l-1.357,3.706l1.357-3.706c-0.943-1.996-2.667-5.503-4.9-9.689
		c0.004-0.01,0.007-0.019,0.011-0.029l-1.082-1.984c-0.003,0.003-0.005,0.01-0.007,0.016c-1.265-2.307-2.646-4.754-4.146-7.225
		l0.219,9.784c0.597,1.057,1.185,2.127,1.747,3.169c-0.006,0.019-0.013,0.036-0.019,0.053l1.083,2.122
		c0.012-0.035,0.022-0.065,0.035-0.1c0.041,0.079,0.081,0.154,0.122,0.231v-0.02v0.02c1.228,2.329,2.225,4.292,2.701,5.268l3.4,0.16
		l-3.4-0.16c0.003,0.009,0.009,0.018,0.013,0.027l-5.47-0.008l0.223,8.783l18.347-0.02L40.23,88.42l-6.434,0.005l-0.002-0.011
		c1.663-7.985,4.559-26.185,2.147-48.198C33.335,16.379,24.697,0.704,20.105,0.012l0.001-0.01c0,0-0.047,0.003-0.063,0.011
		C20.015,0.007,19.982,0,19.982,0L19.95,0.017C19.878,0.028,19.8,0.055,19.724,0.074z M34.275,59.796l0.136-0.872L34.275,59.796z"/>
	<path style="fill:#E2AA15;" d="M31.065,65.529l-0.941-2.257c-1.496,3.621-3.168,7.738-4.733,11.804l1.082,1.984
		C27.966,73.184,29.578,69.165,31.065,65.529z"/>
	<path style="fill:#F9BB14;" d="M16.355,27.36l0.888,1.953c1.03-1.931,2.107-3.804,3.024-5.342l-0.082-3.167
		C19.059,22.602,17.715,24.857,16.355,27.36z"/>
	<path style="fill:#E2AA15;" d="M20.185,20.805l0.082,3.167c0.017-0.028,0.035-0.06,0.052-0.089
		c0.793-1.325,1.531-2.503,2.191-3.518l-0.946-1.75c-0.413,0.625-0.835,1.319-1.316,2.089
		C20.228,20.736,20.206,20.774,20.185,20.805z"/>
	<path style="fill:#E2AA15;" d="M22.233,39.012c1.87-4.2,3.625-7.916,4.831-10.43l-1.038-1.909c-1.127,2.305-2.917,6.055-4.87,10.37
		L22.233,39.012z"/>
	<path style="fill:#E2AA15;" d="M27.66,48.947c1.815-3.983,3.523-7.546,4.689-9.914l-0.898-2.165
		c-1.073,2.113-2.846,5.796-4.822,10.075L27.66,48.947z"/>
	<path style="fill:#E2AA15;" d="M32.145,58.344l0.985,2.267c0.392-0.923,0.799-1.98,1.144-2.766l-0.107-4.195
		C33.698,54.731,32.97,56.364,32.145,58.344z"/>
	<path style="fill:#F9BB14;" d="M13.737,54.859l1.105,2.042c1.577-4.238,3.399-8.55,5.079-12.479l-1.207-2.045
		C17.04,46.263,15.35,50.595,13.737,54.859z"/>
	<path style="fill:#F9BB14;" d="M8.712,44.311l0.977,2.4c1.451-4.21,3.09-8.093,4.702-11.559l-1.084-1.874
		C11.733,36.576,10.165,40.304,8.712,44.311z"/>
	<path style="fill:#E2AA15;" d="M24.314,82.908l-1.112-2.092c-0.569,1.563-1.104,3.106-1.574,4.499l0.051,3.118l0.999,0.049
		C23.135,86.246,23.714,84.587,24.314,82.908z"/>
	<path style="fill:#F9BB14;" d="M13.029,84.476l1.375,2.203c0.69-4.266,2.053-9.278,3.761-14.36l-1.175-1.882
		C15.295,75.298,13.882,80.191,13.029,84.476z"/>
	<path style="fill:#F9BB14;" d="M8.02,73.108l1.17,2.957c0.719-3.976,2.013-8.614,3.589-13.308l-1.188-2.172
		C10.124,64.865,8.868,69.271,8.02,73.108z"/>
</g>
</svg>
