<?xml version="1.0" encoding="iso-8859-1"?>
<!-- Generator: Adobe Illustrator 17.0.0, SVG Export Plug-In . SVG Version: 6.00 Build 0)  -->
<!DOCTYPE svg PUBLIC "-//W3C//DTD SVG 1.1//EN" "http://www.w3.org/Graphics/SVG/1.1/DTD/svg11.dtd">
<svg version="1.1" xmlns="http://www.w3.org/2000/svg" xmlns:xlink="http://www.w3.org/1999/xlink" x="0px" y="0px"
	 width="113.666px" height="73.13px" viewBox="0 0 113.666 73.13" style="enable-background:new 0 0 113.666 73.13;"
	 xml:space="preserve">
<g id="pyramids">
</g>
<g id="san_franciso_bridge">
</g>
<g id="easter_island">
	<ellipse style="opacity:0.05;" cx="53.666" cy="68.57" rx="53.666" ry="4.559"/>
	<path style="fill:#66CE64;" d="M80.999,66.985c-6,2.978-11.715,4.645-26.166,4.645c-14.452,0-20.167-1.333-26.167-4.645
		c-3.879-2.141,11.715-8.022,26.167-8.022C69.284,58.963,84.968,65.015,80.999,66.985z"/>
	<path style="opacity:0.3;fill:#BEC4B4;" d="M71.999,63.408c-0.085,2.879-7.686,5.222-17.166,5.222
		c-9.482,0-17.167-2.338-17.167-5.222c0-2.883,7.685-10.443,17.167-10.443C64.313,52.965,72.327,52.385,71.999,63.408z"/>
	<path style="fill:#CBC5B7;" d="M38.83,63.844c0.711-3.028,1.423-6.057,2.135-9.085c0.448-1.912,0.898-3.823,1.347-5.735
		c0.118-0.502,0.196-2.136,0.722-2.363c1.276-0.551,10.521-3.432,7.978-6.149c-0.464-0.495,0.626-3.295,0.778-3.935
		c0.341-1.432,0.834-2.903,1.037-4.362c0.979-7.023,1.959-14.045,2.938-21.067c0.667-4.782,0.833-8.984,6.323-10.732
		c3.07-0.978,6.356-0.098,9.148,1.296c1.212,0.605,4.493,2.009,4.865,3.347c0.346,1.246,0.691,2.491,1.038,3.737
		c0.653,2.354,1.13,3.972-0.009,6.456c-0.616,1.347,0.027,1.881,0.398,3.345c1.708,6.738-0.027,13.251-0.945,19.933
		c-0.368,2.683-0.734,5.366-1.038,8.057c-0.068,0.608,0.056,1.972-0.305,2.488c-0.537,0.77-2.801,1.496-3.628,1.037
		c-0.824,1.621,0.728,4.601,0.906,6.289c0.183,1.73,0.191,3.712-0.434,5.373c-1.483,3.939-7.997,4.38-11.399,4.667
		c-3.309,0.28-6.724,0.873-10.043,0.742c-2.075-0.082-5.11,0.261-7.039-0.579C42.904,66.298,38.652,64.736,38.83,63.844z"/>
	<path style="opacity:0.3;fill:#BEC4B4;" d="M57.618,9.685l7.126,2.332c0,0,4.665-5.96,6.997-0.129l0.777,3.628
		c0,0,4.405,2.332,5.053,3.239l0.027,0.009c-0.44-1.863-0.934-2.731-0.934-2.731c2.462-4.405,0.647-6.737,0.647-6.737l-0.073-0.265
		l-0.186,0.006C77.054,9.037,64.874-2.495,57.618,9.685z"/>
	<path style="opacity:0.3;fill:#BEC4B4;" d="M76.017,28.083c0,0,5.312-9.329-5.83-7.126c0,0-6.22,1.295-5.831,4.017
		C64.355,24.974,65.91,26.658,76.017,28.083z"/>
	<path style="opacity:0.3;fill:#BEC4B4;" d="M65.133,29.508c0,0,8.682-0.648,11.014,3.239C76.146,32.748,72.26,30.286,65.133,29.508
		z"/>
	<path style="opacity:0.2;fill:#BEC4B4;" d="M74.912,49.308c-6.021-0.837-18.188-2.979-22.953-7.093c0,0,8.923,22.693,11.401,23.705
		c0.101,0.041,0.222,0.087,0.353,0.136c3.333-0.431,7.262-1.419,8.371-4.368c0.625-1.662,0.616-3.643,0.434-5.373
		c-0.179-1.688-1.73-4.668-0.906-6.289C72.322,50.421,74.087,49.94,74.912,49.308z"/>
	<path style="opacity:0.3;fill:#BEC4B4;" d="M51.667,41.963c0,0,3.959,4.52,19.074,6.731l1.367,1.468
		C72.108,50.162,59.183,48.97,51.667,41.963z"/>
</g>
<g id="taj_mahal">
</g>
<g id="christ_the_redeemer">
</g>
<g id="windmill">
</g>
<g id="aztec_temple">
</g>
<g id="colosseum_1_">
</g>
<g id="stone_henge">
</g>
<g id="big_ben">
</g>
<g id="sydney_opera_house">
</g>
<g id="eiffel_tower">
</g>
</svg>
