<?xml version="1.0" encoding="utf-8"?>
<!-- Generator: Adobe Illustrator 17.0.0, SVG Export Plug-In . SVG Version: 6.00 Build 0)  -->
<!DOCTYPE svg PUBLIC "-//W3C//DTD SVG 1.1//EN" "http://www.w3.org/Graphics/SVG/1.1/DTD/svg11.dtd">
<svg version="1.1" id="Layer_1" xmlns="http://www.w3.org/2000/svg" xmlns:xlink="http://www.w3.org/1999/xlink" x="0px" y="0px"
	 width="171.953px" height="229.711px" viewBox="0 0 171.953 229.711" enable-background="new 0 0 171.953 229.711"
	 xml:space="preserve">
<path fill="#61294A" d="M0,229.711V0h171.953v229.711l-87.025-42.482L0,229.711L0,229.711z"/>
<path fill="#692E4F" d="M141.092,214.648l-3.149-1.534L137.947,0h3.145L141.092,214.648L141.092,214.648z M133.725,211.053
	L133.729,0h-3.147v209.517L133.725,211.053L133.725,211.053z M126.085,207.325L126.089,0h-3.147v205.789L126.085,207.325
	L126.085,207.325z M118.725,203.729V0h-3.145l-0.004,202.193L118.725,203.729L118.725,203.729z M111.373,200.14L111.379,0h-3.147
	v198.604L111.373,200.14L111.373,200.14z M104.011,196.548L104.015,0h-3.147l-0.004,195.012L104.011,196.548L104.011,196.548z
	 M96.375,192.82V0h-3.147l-0.004,191.284L96.375,192.82L96.375,192.82z M89.01,189.225V0h-3.145v187.688L89.01,189.225
	L89.01,189.225z M171.013,229.256V0h-3.147l-0.004,227.72L171.013,229.256L171.013,229.256z M163.645,225.658L163.649,0h-3.151
	v224.118L163.645,225.658L163.645,225.658z M156.004,221.93L156.009,0h-3.147v220.393L156.004,221.93L156.004,221.93z
	 M148.644,218.334V0h-3.145l-0.004,216.798L148.644,218.334L148.644,218.334z M18.761,220.33l3.147-1.577V0h-3.147V220.33
	L18.761,220.33z M11.398,224.009l3.145-1.57V0h-3.145L11.398,224.009L11.398,224.009z M3.758,227.833l3.144-1.575V0H3.758V227.833
	L3.758,227.833z M78.396,190.496l3.145-1.57V0h-3.145V190.496L78.396,190.496z M71.028,194.186l3.149-1.575V0h-3.149V194.186
	L71.028,194.186z M63.392,198.005l3.147-1.575V0h-3.147L63.392,198.005L63.392,198.005z M56.027,201.684l3.147-1.57V0h-3.147
	V201.684L56.027,201.684z M48.682,205.359l3.145-1.57V0h-3.145V205.359L48.682,205.359z M41.313,209.049l3.149-1.579V0h-3.149
	V209.049L41.313,209.049z M33.678,212.865l3.147-1.57V0h-3.147V212.865L33.678,212.865z M26.313,216.548l3.147-1.57V0h-3.147
	V216.548L26.313,216.548z"/>
<path fill="#FFFFFF" d="M5.762,23.452v-2.188h9.666v2.188H5.762L5.762,23.452z M20.713,23.452h9.666v-2.188h-9.666V23.452
	L20.713,23.452z M35.665,23.452h9.666v-2.188h-9.666V23.452L35.665,23.452z M50.616,23.452h9.666v-2.188h-9.666V23.452
	L50.616,23.452z M65.567,23.452h9.666v-2.188h-9.666V23.452L65.567,23.452z M80.518,23.452h9.665v-2.188h-9.665V23.452
	L80.518,23.452z M95.469,23.452h9.666v-2.188h-9.666V23.452L95.469,23.452z M110.42,23.452h9.665v-2.188h-9.665V23.452
	L110.42,23.452z M125.372,23.452h9.665v-2.188h-9.665V23.452L125.372,23.452z M140.322,23.452h9.665v-2.188h-9.665V23.452
	L140.322,23.452z M155.273,23.452h9.665v-2.188h-9.665V23.452L155.273,23.452z"/>
</svg>
