<?xml version="1.0" encoding="utf-8"?>
<!-- Generator: Adobe Illustrator 17.0.0, SVG Export Plug-In . SVG Version: 6.00 Build 0)  -->
<!DOCTYPE svg PUBLIC "-//W3C//DTD SVG 1.1//EN" "http://www.w3.org/Graphics/SVG/1.1/DTD/svg11.dtd">
<svg version="1.1" id="图层_1" xmlns="http://www.w3.org/2000/svg" xmlns:xlink="http://www.w3.org/1999/xlink" x="0px" y="0px"
	 width="33.313px" height="31.25px" viewBox="0 0 33.313 31.25" enable-background="new 0 0 33.313 31.25" xml:space="preserve">
<path fill="#D1DD58" d="M32.917,10.622c0.279,1.127,0.433,2.27,0.411,3.43c-0.038,1.955-0.473,3.822-1.271,5.609
	c-0.497,1.113-1.117,2.152-1.836,3.133c-0.385,0.525-0.793,1.036-1.241,1.509c-0.484,0.511-0.981,1.015-1.509,1.48
	c-0.763,0.675-1.564,1.306-2.407,1.882c-1.31,0.894-2.694,1.657-4.128,2.33c-0.96,0.451-1.943,0.849-2.944,1.201
	c-0.235,0.082-0.24,0.077-0.24-0.17c0-0.949-0.003-1.898,0.003-2.846c0.001-0.169-0.024-0.204-0.215-0.184
	c-1.279,0.136-2.561,0.177-3.847,0.069c-1.158-0.097-2.3-0.274-3.42-0.577c-2.024-0.547-3.895-1.412-5.561-2.697
	c-0.585-0.451-1.132-0.945-1.635-1.486c-0.593-0.639-1.112-1.33-1.552-2.083c-0.428-0.734-0.763-1.506-1.017-2.317
	c-0.147-0.468-0.285-0.941-0.353-1.422c-0.144-1.017-0.202-2.04-0.112-3.07c0.117-1.356,0.441-2.658,0.956-3.915
	C1.664,8.875,2.585,7.41,3.743,6.092c1.558-1.773,3.402-3.169,5.521-4.204c1.631-0.798,3.352-1.313,5.139-1.618
	c1.373-0.235,2.756-0.317,4.144-0.253c2.769,0.128,5.385,0.816,7.8,2.207C27.55,2.918,28.64,3.758,29.6,4.761
	c1.563,1.634,2.679,3.527,3.272,5.717C32.885,10.527,32.902,10.574,32.917,10.622z M9.739,10.523c0-0.602-0.004-1.205,0.003-1.807
	c0.001-0.15-0.026-0.217-0.199-0.214c-0.597,0.011-1.194,0.01-1.791,0.001C7.597,8.501,7.561,8.551,7.561,8.699
	c0.004,3.853,0.005,7.707,0.001,11.56c-0.001,0.161,0.041,0.207,0.203,0.205c0.576-0.01,1.152-0.013,1.727,0.001
	c0.199,0.004,0.251-0.053,0.25-0.25c-0.007-1.877-0.008-3.753-0.001-5.63c0.002-0.524,0.039-1.046,0.158-1.561
	c0.415-1.783,1.717-2.834,3.482-2.783c0.843,0.024,1.519,0.355,1.894,1.158c0.24,0.513,0.288,1.061,0.287,1.619
	c-0.003,2.401,0.001,4.802-0.004,7.203c-0.001,0.183,0.036,0.249,0.234,0.244c0.575-0.015,1.151-0.013,1.727-0.001
	c0.19,0.005,0.24-0.045,0.239-0.237c-0.007-2.071-0.002-4.141-0.006-6.212c-0.001-0.509,0.091-0.999,0.264-1.475
	c0.533-1.466,1.66-2.301,3.122-2.315c0.677-0.006,1.305,0.129,1.78,0.66c0.452,0.506,0.587,1.117,0.586,1.777
	c-0.004,2.53,0,5.061-0.006,7.592c-0.001,0.18,0.064,0.211,0.223,0.209c0.576-0.008,1.151-0.011,1.727,0.001
	c0.192,0.004,0.253-0.042,0.253-0.246c-0.008-2.387-0.006-4.774-0.003-7.16c0.001-0.482-0.013-0.963-0.085-1.44
	c-0.127-0.83-0.398-1.603-0.969-2.239c-0.646-0.718-1.495-1.015-2.427-1.08c-1.155-0.082-2.248,0.148-3.24,0.769
	c-0.473,0.296-0.91,0.634-1.25,1.086c-0.111,0.149-0.242,0.284-0.364,0.425c-0.431-0.914-1.06-1.598-1.987-1.987
	c-0.8-0.335-1.629-0.378-2.469-0.234c-0.557,0.096-1.096,0.274-1.57,0.592C10.711,9.371,10.177,9.89,9.739,10.523z"/>
</svg>
