<?xml version="1.0" encoding="utf-8"?>
<!-- Generator: Adobe Illustrator 17.0.0, SVG Export Plug-In . SVG Version: 6.00 Build 0)  -->
<!DOCTYPE svg PUBLIC "-//W3C//DTD SVG 1.1//EN" "http://www.w3.org/Graphics/SVG/1.1/DTD/svg11.dtd">
<svg version="1.1" id="图层_1" xmlns="http://www.w3.org/2000/svg" xmlns:xlink="http://www.w3.org/1999/xlink" x="0px" y="0px"
	 width="158.678px" height="73.794px" viewBox="0 0 158.678 73.794" enable-background="new 0 0 158.678 73.794"
	 xml:space="preserve">
<path fill="#0F0F0F" d="M13.441,18.12c0.129,0,0.255,0.013,0.383,0.019c1.112,0.579,1.96,3.592,1.96,7.231
	c0,1.178-0.091,2.286-0.248,3.272h-4.207c-0.158-0.986-0.249-2.094-0.249-3.272c0-3.637,0.851-6.649,1.966-7.23
	C13.177,18.133,13.308,18.12,13.441,18.12z M52.844,18.14c-1.114,0.581-1.965,3.593-1.965,7.23c0,1.178,0.091,2.286,0.249,3.272
	h4.208c0.157-0.986,0.248-2.094,0.249-3.272c0-3.638-0.851-6.652-1.962-7.231c-0.128-0.007-0.253-0.019-0.383-0.019
	C53.106,18.12,52.976,18.133,52.844,18.14z M66.036,20.6h0.008c0,0,0,3.95,0,8.042h-6.373c0.506-0.988,0.797-2.105,0.797-3.293
	c0-3.863-3.033-7.009-6.846-7.21c-0.126-0.066-0.255-0.108-0.388-0.108c-0.133,0-0.263,0.043-0.39,0.109
	c-3.813,0.206-6.85,3.35-6.85,7.209c0,1.188,0.292,2.305,0.799,3.293H19.872c0.506-0.988,0.797-2.105,0.797-3.293
	c0-3.863-3.032-7.009-6.845-7.21c-0.126-0.066-0.255-0.108-0.388-0.108c-0.133,0-0.263,0.043-0.39,0.109
	c-3.813,0.206-6.851,3.35-6.851,7.209c0,1.188,0.292,2.305,0.799,3.293H0.617c0-4.092,0-8.042,0-8.042h0.008
	c0-3.579-0.001-4.769-0.001-4.957V15.62c0-0.004,0-0.013,0-0.012c0-0.079,0-0.154,0.002-0.236c0.052-2.749,0.542-7.071,2.849-8.412
	C6.12,5.431,8.569,8.245,9.056,8.8c3.464,3.916,7.209,8.801,14.006,8.801h1.612c0,0,4.318,0,8.644,0h0.026c4.326,0,8.643,0,8.643,0
	h1.612c6.797,0,10.543-4.885,14.006-8.801c0.487-0.555,2.937-3.369,5.581-1.84c2.307,1.341,2.797,5.663,2.849,8.412
	c0.002,0.082,0.002,0.157,0.002,0.236c0-0.001,0,0.008,0,0.012v0.023C66.037,15.831,66.036,17.021,66.036,20.6z M34.662,23.832
	h-2.663c-0.786,0-1.124,0.417-0.751,0.927l0.762,1.043c0.312,0.426,0.676,0.935,0.892,1.245c0.042,0.06,0.109,0.157,0.428,0.157
	c0.318,0,0.384-0.096,0.427-0.158c0.216-0.308,0.581-0.818,0.892-1.243l0.764-1.045C35.785,24.249,35.448,23.832,34.662,23.832z"/>
<path fill="#AB0334" d="M0,28.642h158.678v45.152H0V28.642z"/>
<path fill="#FFFFFF" d="M46.621,50.039h-8.889v8.543c0,1.946,0.978,3.166,3.089,3.166v-0.001h8.817v-8.685
	C49.639,51.169,48.778,50.039,46.621,50.039z M47.894,53.875v1.167h-3.375V51.78h1.236C47.336,51.78,47.894,51.785,47.894,53.875z
	 M42.852,51.78v3.262H39.47c-0.001-1.596-0.003-3.242-0.006-3.262H42.852z M39.472,58.021c0,0,0-0.544-0.001-1.312h3.381v3.377
	h-1.019C40.242,60.086,39.472,59.904,39.472,58.021z M47.894,60.086h-3.375v-3.377h3.375v3.341
	C47.894,60.062,47.895,60.073,47.894,60.086L47.894,60.086z M31.569,43.201v1.817c1.757,0.042,2.865,0.866,3.126,2.344l0.036,0.196
	l-3.161,1.887v1.887c0,0,2.31-1.421,3.187-1.891v3.036l0.001,0.342l-0.001-0.314l-3.187,1.901v1.887c0,0,2.322-1.427,3.193-1.895
	v0.136v0.98c0,4.164-3.193,4.416-3.193,4.416v1.853c1.326-0.038,4.997-0.616,4.997-6.449v-7.482
	C36.417,44.861,34.666,43.254,31.569,43.201z M47.798,45.224v-2.023h-1.752v2.023h-4.699v-2.023h-1.751v2.023h-1.864v1.809h1.864
	v1.674h1.751v-1.674h4.699v1.674h1.752v-1.674h1.858v-1.809H47.798z M28.902,49.711h-7.966v-4.689l7.162-0.001v-1.807h-15.8v1.808
	h6.831v4.689h-7.634v1.8h7.426c-0.196,0.972-1.586,6.389-7.426,8.433v1.827c3.581-0.744,6.886-3.863,8.511-7.526
	c1.841,4.122,5.609,6.846,8.884,7.526v-1.853c-5.938-2.079-7.599-7.631-7.803-8.407h7.815V49.711z M54.006,50.039v1.841h4.727v9.867
	h0.001h1.968V51.88h4.728v-1.841H54.006z M83.395,56.979l1.646-4.008c0,0,0.224-0.62,0.842-0.62c0.639,0,0.844,0.62,0.844,0.62
	l0.992,2.634C87.261,55.635,84.995,55.78,83.395,56.979 M92.25,61.746l-3.885-9.749c0,0-0.648-1.938-2.482-1.938
	c-1.829,0-2.482,1.938-2.482,1.938l-3.885,9.749h2.008c2.004-4.434,6.467-4.409,6.845-4.409l1.704,4.409H92.25z M97.208,59.812
	c-1.312,0-2.045-0.241-2.045-1.997v-7.752h-1.955v1.943v6.716c0,1.757,1.219,3.021,3.07,3.021h2.378V59.81
	C98.656,59.81,98.215,59.812,97.208,59.812 M103.936,59.812c-1.311,0-2.044-0.241-2.044-1.997v-7.752h-1.955v1.943v6.716
	c0,1.757,1.219,3.021,3.071,3.021h2.376V59.81C105.384,59.81,104.945,59.812,103.936,59.812 M72.541,53.783
	c1.544,0,2.971-0.476,3.616-0.831c0.062-0.031,0-0.544,0,0v8.785h1.955c0.001-4.275,0.002-9.432,0.002-10.325
	c0-0.465-0.098-1.05-0.707-1.296c-0.653-0.265-1.259,0.222-1.38,0.316c-0.856,0.676-1.782,1.272-3.462,1.272h-0.066h-0.021h-0.066
	c-1.682,0-2.606-0.597-3.463-1.272c-0.12-0.095-0.728-0.581-1.38-0.316c-0.609,0.246-0.707,0.831-0.707,1.296
	c0,0.894,0.002,6.05,0.002,10.325h1.953v-8.785c0-0.544-0.062-0.031,0,0c0.646,0.355,1.994,0.831,3.616,0.831H72.541z
	 M109.408,60.769c0,0.54-0.438,0.978-0.976,0.978c-0.54,0-0.979-0.438-0.979-0.978c0-0.539,0.439-0.975,0.979-0.975
	C108.97,59.794,109.408,60.23,109.408,60.769 M128.96,58.923c-0.658,0.639-1.482,0.963-2.447,0.963c-0.995,0-1.8-0.312-2.462-0.956
	c-0.673-0.659-1.017-1.673-1.017-3.02c0-1.346,0.344-2.357,1.016-3.012c0.652-0.633,1.481-0.952,2.463-0.952
	c0.964,0,1.785,0.321,2.441,0.957c0.678,0.654,1.021,1.646,1.021,2.947C129.976,57.23,129.634,58.265,128.96,58.923 M131.208,59.125
	c0.436-0.822,0.656-1.956,0.656-3.367c0-1.759-0.503-3.16-1.497-4.164c-0.994-1.008-2.292-1.52-3.855-1.52
	c-1.408,0-2.618,0.42-3.599,1.249c-1.173,0.995-1.769,2.54-1.769,4.587c0,1.867,0.498,3.321,1.479,4.32
	c0.982,1.006,2.291,1.517,3.888,1.517c0.989,0,1.919-0.231,2.76-0.688C130.114,60.604,130.764,59.954,131.208,59.125
	 M138.857,53.783c1.544,0,2.972-0.476,3.616-0.831c0.062-0.031,0-0.544,0,0v8.785h1.955c0.001-4.275,0.002-9.432,0.002-10.325
	c0-0.465-0.098-1.05-0.707-1.296c-0.653-0.265-1.26,0.222-1.38,0.316c-0.857,0.676-1.782,1.272-3.462,1.272h-0.066h-0.021h-0.065
	c-1.683,0-2.607-0.597-3.463-1.272c-0.121-0.095-0.729-0.581-1.381-0.316c-0.609,0.246-0.706,0.831-0.706,1.296
	c0,0.894,0.002,6.05,0.002,10.325h1.954v-8.785c0-0.544-0.062-0.031,0,0c0.646,0.355,1.993,0.831,3.616,0.831H138.857z
	 M117.974,58.655c-0.074,0.095-0.154,0.184-0.239,0.268c-0.658,0.639-1.481,0.963-2.447,0.963c-0.996,0-1.8-0.312-2.462-0.956
	c-0.673-0.659-1.016-1.673-1.016-3.02c0-1.346,0.343-2.357,1.016-3.012c0.653-0.633,1.481-0.952,2.463-0.952
	c0.964,0,1.785,0.321,2.441,0.957c0.082,0.079,0.158,0.163,0.23,0.251h2.206c-0.246-0.594-0.584-1.118-1.022-1.56
	c-0.994-1.008-2.291-1.52-3.854-1.52c-1.408,0-2.618,0.42-3.599,1.249c-1.173,0.995-1.769,2.54-1.769,4.587
	c0,1.867,0.498,3.321,1.479,4.32c0.982,1.006,2.29,1.517,3.888,1.517c0.988,0,1.918-0.231,2.76-0.688
	c0.841-0.455,1.492-1.105,1.936-1.935c0.078-0.146,0.146-0.305,0.209-0.47h-2.22V58.655z"/>
</svg>
