<?xml version="1.0" encoding="utf-8"?>
<!-- Generator: Adobe Illustrator 16.0.0, SVG Export Plug-In . SVG Version: 6.00 Build 0)  -->
<!DOCTYPE svg PUBLIC "-//W3C//DTD SVG 1.1//EN" "http://www.w3.org/Graphics/SVG/1.1/DTD/svg11.dtd">
<svg version="1.1" id="Layer_1" xmlns="http://www.w3.org/2000/svg" xmlns:xlink="http://www.w3.org/1999/xlink" x="0px" y="0px"
	 width="79.876px" height="37.535px" viewBox="-0.79 0 79.876 37.535" enable-background="new -0.79 0 79.876 37.535"
	 xml:space="preserve">
<path fill="#F2F2F2" d="M3.173,4.774c0-0.636-0.035-1.174-0.104-1.617c-0.07-0.441-0.206-0.81-0.41-1.102
	C2.456,1.763,2.165,1.542,1.788,1.393C1.41,1.244,0.909,1.149,0.283,1.11C0.154,1.11,0.06,1.06,0,0.958
	C-0.059,0.857-0.089,0.742-0.089,0.61c0-0.132,0.03-0.249,0.089-0.355c0.06-0.106,0.154-0.159,0.283-0.159
	c0.646,0,1.385,0.03,2.22,0.089c0.832,0.06,1.614,0.089,2.346,0.089c0.425,0,0.826-0.01,1.202-0.03c0.375-0.02,0.743-0.04,1.1-0.06
	c0.358-0.02,0.72-0.04,1.088-0.06c0.367-0.02,0.76-0.03,1.177-0.03c0.119,0,0.204,0.048,0.253,0.144
	c0.05,0.096,0.074,0.2,0.074,0.31c0,0.141-0.032,0.27-0.096,0.385C9.581,1.052,9.494,1.11,9.385,1.11
	C8.749,1.149,8.24,1.234,7.857,1.362c-0.382,0.13-0.672,0.333-0.871,0.611c-0.199,0.278-0.33,0.642-0.395,1.094
	c-0.064,0.452-0.097,1.02-0.097,1.704v10.612c0,0.646,0.03,1.188,0.09,1.63c0.059,0.442,0.171,0.806,0.335,1.094
	s0.385,0.519,0.663,0.692c0.278,0.174,0.636,0.315,1.073,0.424c0.288,0.06,0.608,0.104,0.96,0.134
	c0.353,0.029,0.723,0.045,1.11,0.045c0.715,0,1.336-0.062,1.862-0.188c0.527-0.124,0.983-0.348,1.371-0.67
	c0.387-0.323,0.72-0.765,0.998-1.326c0.278-0.561,0.526-1.279,0.745-2.152c0.02-0.109,0.086-0.187,0.201-0.231
	c0.114-0.044,0.241-0.066,0.38-0.066c0.148,0,0.283,0.027,0.402,0.082s0.168,0.136,0.149,0.246c-0.1,0.864-0.191,1.746-0.275,2.644
	c-0.084,0.898-0.117,1.734-0.097,2.51c0,0.029-0.007,0.068-0.022,0.119c-0.015,0.05-0.047,0.097-0.097,0.143
	c-0.049,0.043-0.122,0.084-0.216,0.118c-0.094,0.035-0.216,0.052-0.365,0.052H4.701c-0.801,0-1.564,0.024-2.288,0.075
	c-0.725,0.05-1.444,0.095-2.159,0.134c-0.139,0-0.246-0.049-0.32-0.146c-0.074-0.097-0.112-0.21-0.112-0.338
	c0-0.126,0.038-0.242,0.112-0.345c0.074-0.103,0.181-0.164,0.32-0.184c0.625-0.079,1.129-0.164,1.512-0.253
	c0.382-0.089,0.678-0.235,0.886-0.44C2.86,18.985,3,18.695,3.069,18.316c0.069-0.377,0.104-0.894,0.104-1.549V4.804V4.774z
	 M50.467,20.771c-1.182-2.738-2.33-5.455-3.448-8.148c-1.117-2.694-2.158-5.416-3.121-8.165c-0.188-0.536-0.37-0.997-0.544-1.384
	c-0.173-0.386-0.395-0.711-0.662-0.974c-0.268-0.263-0.605-0.471-1.013-0.625c-0.408-0.153-0.938-0.275-1.595-0.364
	c-0.119-0.021-0.208-0.083-0.268-0.189s-0.089-0.219-0.089-0.34s0.03-0.232,0.089-0.333s0.149-0.151,0.268-0.151
	c0.775,0,1.527,0.03,2.258,0.089c0.729,0.059,1.451,0.089,2.166,0.089c0.755,0,1.537-0.03,2.347-0.089
	c0.81-0.06,1.586-0.089,2.331-0.089c0.159,0,0.273,0.048,0.343,0.144c0.069,0.096,0.104,0.204,0.104,0.326
	c0,0.131-0.041,0.254-0.12,0.37c-0.08,0.116-0.188,0.174-0.328,0.174c-0.269,0-0.539,0.005-0.812,0.015
	c-0.273,0.01-0.52,0.052-0.737,0.127c-0.218,0.074-0.397,0.198-0.536,0.372s-0.208,0.419-0.208,0.737
	c0,0.565,0.409,1.979,1.229,4.241c0.818,2.262,2.067,5.471,3.746,9.628c0.029,0.089,0.102,0.139,0.215,0.149
	c0.114,0.01,0.196-0.039,0.246-0.149c0.774-1.994,1.447-3.755,2.02-5.283c0.57-1.528,1.047-2.847,1.43-3.958
	c0.383-1.111,0.666-2.021,0.85-2.73s0.274-1.238,0.274-1.585c0-0.377-0.044-0.669-0.134-0.877c-0.089-0.209-0.225-0.365-0.402-0.469
	c-0.179-0.104-0.398-0.166-0.662-0.186s-0.568-0.03-0.916-0.03c-0.141,0-0.244-0.053-0.313-0.159C54.404,0.849,54.37,0.73,54.37,0.6
	c0-0.131,0.03-0.247,0.09-0.348s0.148-0.151,0.269-0.151c0.655,0,1.278,0.03,1.869,0.089s1.179,0.089,1.765,0.089
	c0.566,0,1.11-0.03,1.631-0.089c0.521-0.06,1.096-0.089,1.721-0.089c0.108,0,0.19,0.045,0.246,0.136
	c0.055,0.091,0.082,0.196,0.082,0.317c0,0.131-0.037,0.252-0.111,0.363c-0.075,0.111-0.196,0.176-0.365,0.197
	c-0.646,0.06-1.169,0.221-1.57,0.484c-0.402,0.263-0.736,0.593-0.998,0.99c-0.264,0.396-0.488,0.848-0.67,1.354
	c-0.185,0.506-0.386,1.037-0.604,1.593c-1.013,2.55-2.003,5.088-2.972,7.613s-1.959,5.069-2.973,7.627
	c-0.061,0.14-0.15,0.246-0.275,0.32s-0.256,0.112-0.396,0.112C50.799,21.205,50.586,21.061,50.467,20.771z M77.161,0.186
	c0.18,0,0.334,0.02,0.461,0.06c0.159,0.05,0.219,0.214,0.18,0.492c-0.03,0.159-0.047,0.333-0.053,0.521
	c-0.004,0.188-0.006,0.387-0.006,0.596v0.492c0,0.447,0.014,0.881,0.043,1.303c0.03,0.422,0.045,0.842,0.045,1.259
	c0,0.08-0.053,0.142-0.156,0.186c-0.104,0.045-0.217,0.067-0.336,0.067c-0.108,0-0.211-0.02-0.305-0.06
	c-0.095-0.039-0.152-0.104-0.172-0.193c-0.139-0.785-0.283-1.402-0.432-1.854c-0.149-0.452-0.355-0.794-0.618-1.028
	c-0.263-0.233-0.61-0.379-1.042-0.439c-0.434-0.06-1.006-0.099-1.721-0.12h-1.834c-0.584,0-1.041,0.01-1.369,0.03
	C69.52,1.517,69.273,1.591,69.11,1.72c-0.164,0.129-0.266,0.335-0.306,0.618c-0.04,0.283-0.06,0.683-0.06,1.199V8.87
	c0,0.288,0.049,0.467,0.148,0.536c0.1,0.069,0.199,0.104,0.298,0.104c0.944,0,1.685-0.042,2.22-0.126
	c0.536-0.084,0.941-0.231,1.215-0.439c0.272-0.208,0.457-0.489,0.551-0.842c0.095-0.352,0.172-0.797,0.23-1.333
	c0.02-0.109,0.088-0.191,0.201-0.246c0.114-0.055,0.234-0.082,0.365-0.082c0.119,0,0.223,0.027,0.312,0.082S74.42,6.66,74.42,6.77
	c0,0.328-0.01,0.618-0.03,0.872s-0.042,0.507-0.067,0.76c-0.025,0.253-0.047,0.519-0.066,0.796c-0.021,0.278-0.03,0.596-0.03,0.954
	c0,0.625,0.03,1.182,0.089,1.668c0.04,0.248,0.066,0.524,0.082,0.827s0.021,0.633,0.021,0.991c0,0.099-0.049,0.173-0.147,0.223
	c-0.101,0.05-0.209,0.075-0.328,0.075c-0.129,0-0.246-0.024-0.351-0.075c-0.104-0.049-0.166-0.124-0.186-0.223
	c-0.061-0.596-0.137-1.078-0.23-1.445c-0.096-0.368-0.278-0.656-0.553-0.864c-0.272-0.208-0.678-0.35-1.213-0.424
	c-0.537-0.074-1.277-0.112-2.221-0.112c-0.1,0-0.197,0.037-0.298,0.112c-0.099,0.075-0.149,0.221-0.149,0.438v4.007
	c0,0.934,0.043,1.668,0.127,2.205c0.084,0.537,0.272,0.941,0.566,1.214c0.293,0.274,0.721,0.447,1.281,0.521
	c0.561,0.075,1.312,0.111,2.256,0.111c0.507,0,0.971-0.02,1.393-0.06s0.742-0.099,0.961-0.179c0.397-0.149,0.745-0.307,1.043-0.476
	c0.297-0.169,0.551-0.383,0.76-0.642c0.207-0.258,0.377-0.586,0.506-0.983s0.232-0.898,0.312-1.504
	c0.02-0.109,0.086-0.188,0.201-0.238c0.114-0.05,0.24-0.075,0.379-0.075c0.148,0,0.283,0.03,0.402,0.089
	c0.119,0.06,0.168,0.145,0.148,0.253c-0.1,0.864-0.191,1.664-0.275,2.398c-0.084,0.735-0.117,1.489-0.098,2.264
	c0,0.029-0.008,0.068-0.021,0.119c-0.016,0.05-0.047,0.097-0.098,0.142c-0.049,0.044-0.121,0.084-0.215,0.119
	c-0.096,0.035-0.217,0.052-0.365,0.052H66.942c-0.773,0-1.531,0.021-2.271,0.061c-0.739,0.04-1.407,0.08-2.004,0.119
	c-0.129,0-0.229-0.053-0.297-0.161c-0.07-0.107-0.104-0.229-0.104-0.367c0-0.108,0.027-0.21,0.082-0.308
	c0.054-0.099,0.15-0.157,0.29-0.176c0.478-0.061,0.892-0.146,1.243-0.262c0.353-0.113,0.644-0.277,0.873-0.492
	c0.228-0.213,0.396-0.488,0.506-0.82c0.109-0.333,0.164-0.748,0.164-1.245V5.284c0-0.447-0.016-0.887-0.045-1.319
	c-0.028-0.432-0.098-0.827-0.207-1.185c-0.11-0.358-0.269-0.666-0.478-0.924c-0.208-0.258-0.497-0.438-0.864-0.537
	c-0.219-0.069-0.451-0.124-0.699-0.164c-0.248-0.04-0.481-0.07-0.7-0.09c-0.119,0-0.206-0.047-0.261-0.142
	c-0.055-0.095-0.082-0.201-0.082-0.32c0-0.129,0.029-0.246,0.089-0.351c0.06-0.104,0.144-0.156,0.253-0.156
	c0.675,0,1.292,0.015,1.847,0.044c0.546,0.03,1.192,0.045,1.937,0.045L77.161,0.186L77.161,0.186z M30.108,0
	c5.882,0,10.65,4.768,10.65,10.65S35.99,21.3,30.108,21.3s-10.65-4.768-10.65-10.65S24.226,0,30.108,0z"/>
<path fill="#F21D2F" d="M30.225,19.477c-2.403-3.75-8.456-6.674-8.949-10.319c-0.189-1.405,0.161-2.546,1.086-3.491
	c0.721-0.736,1.535-1.11,2.422-1.113c2.189-0.008,4.265,2.127,4.286,2.149l0.899,0.946l0.88-0.971
	c0.019-0.021,2.086-2.241,4.294-2.248c0.865-0.003,1.668,0.352,2.387,1.055c0.922,0.9,1.299,2.003,1.155,3.372
	C38.331,12.248,32.093,15.829,30.225,19.477z"/>
<path fill="#F2E4E6" d="M10.542,32.207c0.267,0,0.426,0.086,0.48,0.256c0.021,0.096,0.008,0.189-0.041,0.28
	c-0.048,0.09-0.083,0.162-0.104,0.216c-0.021,0.053-0.037,0.096-0.047,0.127c-0.053,0.105-0.107,0.208-0.16,0.303
	c-0.607,1.215-0.926,1.987-0.959,2.317c-0.01,0.096-0.016,0.218-0.016,0.367s0.042,0.271,0.127,0.368
	c0.149,0.17,0.362,0.181,0.639,0.031c0.277-0.148,0.663-0.447,1.159-0.895c0.495-0.447,0.897-0.885,1.207-1.311
	c0.042-0.054,0.09-0.065,0.144-0.041c0.054,0.027,0.08,0.054,0.08,0.08s-0.011,0.057-0.032,0.088
	c-0.16,0.289-0.448,0.655-0.863,1.104c-0.682,0.734-1.252,1.188-1.71,1.357C10.179,36.953,9.956,37,9.775,37
	c-0.427,0-0.708-0.202-0.847-0.607c-0.021-0.074-0.032-0.164-0.032-0.271c0-0.373,0.17-0.938,0.511-1.694
	c-0.053,0.117-0.261,0.383-0.623,0.799c-0.096,0.106-0.17,0.106-0.224,0c-0.011-0.021-0.017-0.051-0.017-0.088
	s0.021-0.082,0.064-0.136c0.521-0.649,0.932-1.198,1.23-1.646c-0.021-0.053-0.011-0.123,0.032-0.209
	c0.213-0.596,0.4-0.909,0.559-0.942C10.461,32.207,10.499,32.207,10.542,32.207z M11.804,30.083l-0.128,0.511
	c0,0.098-0.069,0.25-0.207,0.465c-0.139,0.213-0.245,0.318-0.32,0.318c-0.458,0-0.687-0.111-0.687-0.335
	c0-0.042,0.229-0.239,0.687-0.591l0.272-0.208c0.17-0.149,0.277-0.224,0.32-0.224C11.783,30.02,11.804,30.04,11.804,30.083z
	 M12.779,36.793c-0.139,0.16-0.168,0.288-0.088,0.384c0.08,0.095,0.17,0.144,0.271,0.144c0.102,0,0.206-0.016,0.312-0.047
	c0.458-0.139,0.902-0.414,1.334-0.823c0.431-0.41,0.646-0.828,0.646-1.255c0-0.233-0.261-0.489-0.783-0.766
	c-0.245-0.129-0.383-0.203-0.416-0.225c-0.287-0.191-0.469-0.383-0.543-0.575c-0.149,0.255-0.389,0.623-0.719,1.103
	c-0.074,0.084-0.144,0.104-0.208,0.056c-0.064-0.047-0.07-0.114-0.016-0.2c0.437-0.596,0.724-1.097,0.863-1.501
	c0.075-0.586,0.5-1.112,1.278-1.582c0.778-0.469,1.486-0.703,2.125-0.703c0.405,0,0.69,0.071,0.855,0.216s0.248,0.285,0.248,0.424
	s-0.04,0.299-0.12,0.479c-0.08,0.182-0.242,0.352-0.487,0.512c-0.064,0.043-0.118,0.032-0.16-0.033
	c-0.021-0.062,0.024-0.15,0.136-0.263c0.112-0.112,0.184-0.264,0.216-0.456c0.032-0.19-0.054-0.309-0.256-0.351
	c-0.032,0-0.064,0-0.096,0c-0.416,0-0.934,0.153-1.558,0.463c-0.623,0.31-1.11,0.709-1.462,1.199
	c-0.138,0.181-0.208,0.364-0.208,0.551s0.127,0.354,0.384,0.503c0.106,0.062,0.288,0.165,0.543,0.303
	c0.255,0.139,0.437,0.239,0.543,0.305c0.106,0.063,0.234,0.164,0.384,0.304c0.149,0.139,0.229,0.267,0.239,0.383
	c0.053,0.32-0.096,0.672-0.447,1.056c-0.501,0.554-1.247,0.942-2.237,1.166c-0.224,0.054-0.451,0.08-0.679,0.08
	c-0.229,0-0.386-0.084-0.472-0.256c-0.032-0.043-0.048-0.109-0.048-0.199c0-0.091,0.085-0.236,0.256-0.439
	c0.16-0.16,0.416-0.314,0.767-0.463c0.032-0.01,0.059-0.006,0.08,0.016s0.027,0.049,0.016,0.08c-0.011,0.032-0.067,0.07-0.167,0.112
	C13.005,36.532,12.896,36.633,12.779,36.793z M22.381,32.207c0.267,0,0.426,0.086,0.48,0.256c0.021,0.096,0.008,0.189-0.041,0.28
	c-0.048,0.09-0.083,0.162-0.104,0.216c-0.021,0.053-0.037,0.096-0.047,0.127c-0.053,0.105-0.106,0.208-0.16,0.303
	c-0.607,1.215-0.926,1.987-0.959,2.317c-0.01,0.096-0.016,0.218-0.016,0.367s0.042,0.271,0.127,0.368
	c0.15,0.17,0.362,0.181,0.639,0.031c0.277-0.148,0.664-0.447,1.159-0.895c0.496-0.447,0.897-0.885,1.207-1.311
	c0.042-0.054,0.09-0.065,0.144-0.041c0.053,0.027,0.08,0.054,0.08,0.08s-0.011,0.057-0.032,0.088
	c-0.16,0.289-0.448,0.655-0.863,1.104c-0.682,0.734-1.252,1.188-1.71,1.357C22.018,36.953,21.795,37,21.614,37
	c-0.426,0-0.708-0.202-0.847-0.607c-0.021-0.074-0.032-0.164-0.032-0.271c0-0.373,0.17-0.938,0.511-1.694
	c-0.054,0.117-0.261,0.383-0.623,0.799c-0.096,0.106-0.17,0.106-0.224,0c-0.011-0.021-0.016-0.051-0.016-0.088
	s0.021-0.082,0.064-0.136c0.521-0.649,0.932-1.198,1.23-1.646c-0.021-0.053-0.011-0.123,0.032-0.209
	c0.213-0.596,0.4-0.909,0.559-0.942C22.301,32.207,22.339,32.207,22.381,32.207z M23.644,30.083l-0.128,0.511
	c0,0.098-0.07,0.25-0.208,0.465c-0.139,0.213-0.245,0.318-0.32,0.318c-0.458,0-0.688-0.111-0.688-0.335
	c0-0.042,0.229-0.239,0.688-0.591l0.271-0.208c0.17-0.149,0.277-0.224,0.32-0.224S23.644,30.04,23.644,30.083z M28.917,32.095
	c0.245,0,0.367,0.132,0.367,0.392c0,0.262-0.123,0.621-0.367,1.078c-0.245,0.459-0.426,0.832-0.543,1.119
	c-0.202,0.49-0.304,0.883-0.304,1.174c0,0.293,0.042,0.488,0.128,0.584c0.16,0.17,0.378,0.179,0.655,0.023
	c0.277-0.154,0.663-0.453,1.159-0.895c0.496-0.442,0.892-0.877,1.19-1.303c0.042-0.054,0.093-0.065,0.152-0.041
	c0.058,0.027,0.087,0.054,0.087,0.08s-0.011,0.057-0.032,0.088c-0.16,0.289-0.448,0.655-0.863,1.104
	c-0.415,0.447-0.814,0.807-1.198,1.079c-0.384,0.272-0.761,0.407-1.135,0.407c-0.362-0.01-0.618-0.094-0.766-0.248
	c-0.15-0.153-0.224-0.348-0.224-0.582s0.021-0.461,0.064-0.68c0.042-0.218,0.122-0.472,0.24-0.759
	c0.192-0.458,0.36-0.815,0.503-1.071c0.143-0.256,0.216-0.422,0.216-0.502s-0.043-0.121-0.128-0.121
	c-0.17,0-0.496,0.209-0.975,0.623c-0.331,0.31-0.818,0.894-1.462,1.75c-0.645,0.857-1.009,1.312-1.094,1.367
	c-0.384,0.192-0.624,0.287-0.719,0.287c-0.096,0-0.144-0.016-0.144-0.048s0.01-0.078,0.032-0.136
	c0.021-0.059,0.125-0.348,0.312-0.87c0.186-0.522,0.389-1.095,0.607-1.718c0.218-0.623,0.351-1,0.399-1.127
	c0.048-0.127,0.08-0.237,0.096-0.327c0.016-0.091,0.035-0.167,0.056-0.232c0.021-0.063,0.061-0.136,0.12-0.216
	c0.059-0.08,0.136-0.122,0.231-0.127c0.096-0.005,0.218,0.005,0.368,0.032c0.149,0.026,0.224,0.094,0.224,0.2
	c0,0.074-0.059,0.236-0.176,0.487c-0.117,0.25-0.453,1.11-1.006,2.58c0.383-0.469,0.868-1.009,1.454-1.622
	c0.586-0.611,1.081-1.078,1.486-1.398C28.331,32.24,28.662,32.095,28.917,32.095z M37.049,32.16c0.82-0.075,1.318-0.112,1.494-0.112
	c0.175,0,0.264,0.027,0.264,0.08c0,0.063-0.125,0.13-0.375,0.2c-0.25,0.068-0.86,0.156-1.83,0.263
	c-0.053,0.097-0.117,0.208-0.192,0.335c-0.16,0.256-0.245,0.41-0.255,0.463c-0.607,1.215-0.927,1.987-0.959,2.317
	c-0.011,0.096-0.016,0.218-0.016,0.367s0.042,0.272,0.127,0.368c0.149,0.17,0.362,0.181,0.639,0.031
	c0.277-0.148,0.663-0.447,1.158-0.895c0.496-0.447,0.897-0.885,1.207-1.311c0.042-0.054,0.096-0.063,0.159-0.031
	c0.16,0.074-0.117,0.494-0.83,1.262c-0.682,0.734-1.252,1.188-1.71,1.357C35.663,36.953,35.44,37,35.259,37
	c-0.427,0-0.709-0.202-0.847-0.607c-0.021-0.074-0.032-0.164-0.032-0.271c0-0.373,0.17-0.938,0.511-1.694
	c-0.053,0.117-0.261,0.383-0.623,0.799c-0.095,0.106-0.17,0.106-0.224,0c-0.011-0.021-0.016-0.051-0.016-0.088
	s0.021-0.082,0.064-0.136c0.521-0.649,0.932-1.198,1.23-1.646c0-0.01,0.117-0.234,0.352-0.672c-0.106,0.021-0.216,0.032-0.328,0.032
	c-0.112,0-0.194-0.034-0.248-0.104c-0.053-0.069-0.059-0.151-0.016-0.248c0.075-0.171,0.357-0.267,0.847-0.288
	c0.01-0.021,0.032-0.032,0.063-0.032l0.799-1.485c0.042-0.086,0.09-0.174,0.144-0.264c0.054-0.09,0.093-0.16,0.12-0.208
	c0.027-0.048,0.057-0.098,0.088-0.151c0.032-0.054,0.059-0.09,0.08-0.111s0.042-0.043,0.063-0.064
	c0.042-0.063,0.168-0.096,0.375-0.096c0.208,0,0.349,0.059,0.424,0.176c0.032,0.042,0.047,0.114,0.047,0.217
	c0,0.101-0.037,0.213-0.112,0.334c-0.074,0.123-0.154,0.211-0.239,0.265c-0.086,0.053-0.144,0.112-0.176,0.176l-0.767,1.342
	L37.049,32.16z M43.584,27.286c0.191-0.074,0.356-0.112,0.496-0.112c0.469,0,0.776,0.128,0.926,0.385
	c0.086,0.127,0.127,0.238,0.127,0.334c0,0.725-0.606,1.635-1.82,2.732c-1.076,0.948-2.066,1.764-2.973,2.445
	c-0.298,0.671-0.606,1.496-0.926,2.476c0.383-0.469,0.868-1.012,1.454-1.63c1.182-1.225,2.008-1.837,2.478-1.837
	c0.233,0,0.356,0.116,0.368,0.353c0.021,0.244-0.029,0.479-0.152,0.702s-0.236,0.431-0.344,0.623
	c-0.5,0.831-0.752,1.571-0.752,2.222c0,0.213,0.043,0.367,0.129,0.463c0.148,0.17,0.361,0.182,0.639,0.033
	c0.277-0.149,0.663-0.447,1.159-0.896s0.897-0.884,1.206-1.31c0.053-0.055,0.104-0.066,0.152-0.041
	c0.047,0.026,0.07,0.053,0.07,0.08c0,0.025-0.01,0.056-0.031,0.088c-0.16,0.287-0.447,0.651-0.863,1.095
	c-0.416,0.442-0.752,0.759-1.006,0.95c-0.49,0.373-0.959,0.56-1.406,0.56c-0.405,0-0.678-0.202-0.814-0.606
	c-0.033-0.097-0.049-0.211-0.049-0.344s0.01-0.273,0.032-0.423c0.053-0.446,0.335-1.146,0.847-2.093
	c0.106-0.192,0.159-0.328,0.159-0.407c0-0.08-0.042-0.12-0.127-0.12c-0.171,0-0.501,0.213-0.991,0.639
	c-0.33,0.31-0.818,0.894-1.462,1.75c-0.644,0.857-1.009,1.312-1.094,1.367c-0.383,0.192-0.621,0.287-0.711,0.287
	c-0.091,0-0.141-0.014-0.152-0.04c-0.011-0.026-0.006-0.062,0.016-0.104c0.021-0.043,0.107-0.277,0.256-0.704
	c0.5-1.416,0.841-2.354,1.022-2.812c-0.351,0.448-0.788,0.955-1.31,1.52c-0.085,0.085-0.127,0.066-0.127-0.057
	c0-0.121,0.047-0.248,0.144-0.375c0.096-0.127,0.295-0.375,0.599-0.744c0.303-0.366,0.52-0.641,0.647-0.821
	c-0.096-0.054-0.147-0.128-0.152-0.224c-0.005-0.097,0.027-0.164,0.096-0.2c0.069-0.038,0.184-0.024,0.343,0.04
	c0.107-0.148,0.202-0.314,0.288-0.495C41.241,29.305,42.444,27.723,43.584,27.286z M44.479,28.484
	c0.139-0.256,0.208-0.471,0.208-0.647c0-0.175-0.078-0.264-0.231-0.264c-0.154,0-0.359,0.097-0.615,0.288
	c-1.172,0.895-2.231,2.392-3.18,4.49c0.692-0.447,1.418-1.045,2.174-1.791C43.59,29.816,44.138,29.124,44.479,28.484z
	 M49.081,31.982c0.576,0,0.863,0.278,0.863,0.832c0,0.287-0.08,0.521-0.238,0.703c-0.268,0.395-0.699,0.737-1.295,1.03
	c-0.597,0.293-1.103,0.455-1.518,0.487c-0.148,0.011-0.229-0.032-0.239-0.127c-0.011-0.042,0.002-0.07,0.04-0.08
	c0.037-0.012,0.066-0.018,0.088-0.018c0.245-0.021,0.559-0.138,0.943-0.351c0.714-0.383,1.236-0.776,1.566-1.183
	c0.138-0.191,0.207-0.375,0.207-0.551s-0.086-0.264-0.256-0.264c-0.139,0-0.324,0.059-0.559,0.176
	c-0.501,0.234-1.029,0.641-1.582,1.223c-0.555,0.58-0.917,1.147-1.086,1.701c-0.055,0.17-0.08,0.338-0.08,0.504
	s0.068,0.322,0.208,0.472s0.353,0.224,0.64,0.224c0.319,0,0.688-0.086,1.103-0.256c1.204-0.49,2.131-1.23,2.78-2.221
	c0.063-0.085,0.121-0.102,0.176-0.049c0.041,0.021,0.063,0.049,0.063,0.08c0,0.033-0.016,0.069-0.048,0.113
	c-0.318,0.532-0.725,1.006-1.214,1.422c-0.948,0.81-1.87,1.215-2.765,1.215c-0.767,0-1.305-0.229-1.613-0.688
	c-0.117-0.181-0.176-0.399-0.176-0.655c0-0.255,0.068-0.559,0.207-0.91c0.267-0.607,0.836-1.23,1.709-1.869
	S48.57,31.982,49.081,31.982z M54.786,36.809c-0.17,0-0.354-0.051-0.552-0.15c-0.196-0.102-0.364-0.245-0.503-0.432
	s-0.208-0.387-0.208-0.6s0.048-0.416,0.146-0.607c0.211-0.447,0.556-0.881,1.029-1.303c0.475-0.42,0.967-0.779,1.479-1.078
	c0.511-0.298,0.916-0.484,1.214-0.56s0.588-0.112,0.871-0.112c0.282,0,0.524,0.072,0.727,0.217c0.202,0.144,0.304,0.295,0.304,0.455
	c0,0.053-0.004,0.084-0.016,0.096c-0.011,0.011-0.038,0.006-0.08-0.017c-0.128-0.202-0.392-0.304-0.792-0.304
	c-0.399,0-0.853,0.131-1.358,0.393c-0.506,0.26-0.981,0.588-1.43,0.981c-0.373,0.353-0.701,0.749-0.982,1.19
	c-0.282,0.441-0.424,0.765-0.424,0.967c0,0.395,0.112,0.592,0.336,0.592c0.223,0,0.563-0.182,1.021-0.543
	c0.756-0.639,1.273-1.108,1.551-1.407c0.979-1.054,1.506-1.582,1.582-1.582c0.127,0,0.281,0.038,0.463,0.112
	s0.239,0.165,0.176,0.271c-0.543,0.768-0.863,1.539-0.959,2.316c-0.01,0.096-0.017,0.218-0.017,0.367
	c0,0.148,0.042,0.271,0.128,0.367c0.159,0.17,0.377,0.182,0.654,0.033c0.277-0.149,0.663-0.447,1.159-0.896
	c0.495-0.448,0.892-0.884,1.19-1.31c0.041-0.055,0.09-0.066,0.144-0.041c0.054,0.026,0.079,0.051,0.079,0.071
	c0,0.16-0.252,0.509-0.758,1.047s-0.893,0.902-1.158,1.095c-0.502,0.373-0.965,0.559-1.391,0.559c-0.404,0-0.677-0.202-0.814-0.607
	c-0.032-0.127-0.049-0.271-0.049-0.431c0-0.479,0.103-0.985,0.305-1.519c-0.042,0.021-0.239,0.235-0.591,0.64
	c-0.353,0.405-0.759,0.794-1.222,1.167C55.577,36.623,55.159,36.809,54.786,36.809z M62.822,32.207c0.267,0,0.427,0.086,0.479,0.256
	c0.021,0.096,0.009,0.189-0.04,0.28c-0.048,0.09-0.083,0.162-0.104,0.216c-0.021,0.053-0.037,0.096-0.047,0.127
	c-0.053,0.105-0.105,0.208-0.16,0.303c-0.607,1.215-0.926,1.987-0.959,2.317c-0.01,0.096-0.016,0.218-0.016,0.367
	s0.042,0.271,0.127,0.368c0.15,0.17,0.361,0.181,0.639,0.031c0.277-0.148,0.664-0.447,1.159-0.895
	c0.496-0.447,0.897-0.885,1.207-1.311c0.042-0.054,0.09-0.065,0.144-0.041c0.054,0.027,0.08,0.054,0.08,0.08
	s-0.011,0.057-0.031,0.088c-0.16,0.289-0.448,0.655-0.863,1.104c-0.682,0.734-1.252,1.188-1.71,1.357
	C62.459,36.953,62.236,37,62.055,37c-0.426,0-0.708-0.202-0.848-0.607c-0.021-0.074-0.031-0.164-0.031-0.271
	c0-0.373,0.17-0.938,0.511-1.694c-0.054,0.117-0.261,0.383-0.623,0.799c-0.097,0.106-0.17,0.106-0.224,0
	c-0.012-0.021-0.016-0.051-0.016-0.088s0.021-0.082,0.063-0.136c0.521-0.649,0.932-1.198,1.229-1.646
	c-0.021-0.053-0.011-0.123,0.032-0.209c0.213-0.596,0.399-0.909,0.56-0.942C62.743,32.207,62.78,32.207,62.822,32.207z
	 M64.084,30.083l-0.129,0.511c0,0.098-0.069,0.25-0.207,0.465c-0.14,0.213-0.246,0.318-0.32,0.318c-0.458,0-0.688-0.111-0.688-0.335
	c0-0.042,0.229-0.239,0.688-0.591l0.271-0.208c0.17-0.149,0.276-0.224,0.319-0.224C64.063,30.02,64.084,30.04,64.084,30.083z
	 M67.008,37.033c-0.543,0-0.814-0.327-0.814-0.982c0-0.654,0.469-1.462,1.405-2.42c0.075-0.074,0.128-0.133,0.159-0.176l0.113-0.159
	c0.148-0.202,0.217-0.331,0.207-0.384l-0.047-0.145c-0.043-0.127-0.219-0.221-0.527-0.279c-0.31-0.059-0.561-0.088-0.752-0.088
	c-0.959,1.353-1.512,2.125-1.662,2.316c-0.148,0.192-0.25,0.271-0.303,0.24c-0.054-0.033-0.08-0.068-0.08-0.111
	s0.031-0.106,0.096-0.191c0.574-0.703,1.07-1.454,1.484-2.254c-0.127-0.021-0.224-0.065-0.287-0.135
	c-0.063-0.07-0.069-0.187-0.017-0.352c0.054-0.165,0.216-0.387,0.488-0.663s0.508-0.464,0.71-0.56
	c0.203-0.096,0.331-0.154,0.384-0.176c0.054-0.021,0.112-0.031,0.177-0.031c0.127,0,0.084,0.191-0.129,0.576l-0.623,0.99
	c0.479,0.032,0.889,0.047,1.229,0.047l0.559-0.016c0.181,0,0.313,0.023,0.399,0.072c0.085,0.048,0.105,0.13,0.064,0.248
	c-0.076,0.203-0.263,0.475-0.56,0.814c-0.64,0.746-1.119,1.539-1.438,2.381c-0.074,0.202-0.111,0.379-0.111,0.527
	c0,0.309,0.111,0.463,0.334,0.463c0.074,0,0.217-0.059,0.424-0.176c0.208-0.117,0.557-0.396,1.047-0.838
	c0.49-0.442,0.884-0.876,1.182-1.303c0.043-0.054,0.094-0.065,0.152-0.041c0.059,0.027,0.088,0.054,0.088,0.08
	s-0.01,0.057-0.031,0.088c-0.16,0.289-0.447,0.656-0.863,1.104c-0.416,0.448-0.821,0.811-1.215,1.086
	C67.872,36.884,67.456,37.033,67.008,37.033z"/>
</svg>
