<?xml version="1.0" encoding="utf-8"?>
<!-- Generator: Adobe Illustrator 16.0.0, SVG Export Plug-In . SVG Version: 6.00 Build 0)  -->
<!DOCTYPE svg PUBLIC "-//W3C//DTD SVG 1.1//EN" "http://www.w3.org/Graphics/SVG/1.1/DTD/svg11.dtd">
<svg version="1.1" id="Layer_1" xmlns="http://www.w3.org/2000/svg" xmlns:xlink="http://www.w3.org/1999/xlink" x="0px" y="0px"
	 width="53.199px" height="64.865px" viewBox="0 0 53.199 64.865" enable-background="new 0 0 53.199 64.865" xml:space="preserve">
<path fill="#F21D2F" d="M29.641,5.861c-0.031,0.082-0.065,0.176-0.103,0.271C29.5,6.146,29.462,6.158,29.425,6.17
	C29.501,6.061,29.576,5.955,29.641,5.861z M29.63,6.801c0,0-0.104,0.062-0.207,0.125c-0.102,0.059-0.204,0.127-0.204,0.127
	C29.324,6.996,29.446,6.928,29.63,6.801z M29.61,6.725c-0.055,0.012-0.084-0.002-0.112-0.018C29.464,6.775,29.484,6.799,29.61,6.725
	z M15.493,2.65c0.001-0.006-0.248-0.043-0.248-0.043C15.36,2.633,15.437,2.641,15.493,2.65z M17.216,3.305l-0.067,0.041
	C17.083,3.312,17.125,3.303,17.216,3.305z M6.235,3.551l0.158-0.266C6.402,3.363,6.602,3.336,6.235,3.551z M16.483,1.455
	c0.007-0.033,0.083-0.035,0.247,0C16.749,1.502,16.649,1.494,16.483,1.455z M6.393,3.285c-0.001-0.012,0-0.023,0.007-0.039
	l0.023-0.012L6.393,3.285z M51.646,16.1c-0.126,0.203-0.288,0.43-0.51,0.693C51.085,16.637,51.363,16.42,51.646,16.1z
	 M52.093,15.195c-0.04,0.053-0.074,0.1-0.112,0.15c-0.091,0.24-0.187,0.479-0.335,0.754C51.839,15.852,52.037,15.545,52.093,15.195z
	 M51.944,12.518c0.001-0.006,0.002-0.012,0.005-0.02C51.908,12.564,51.916,12.555,51.944,12.518z M51.291,9.367
	c-0.002-0.16,0.012-0.25,0.031-0.316C51.283,9.051,51.259,9.129,51.291,9.367z M49.931,17.443l0.322-0.562
	c-0.012-0.086-0.14,0.041-0.254,0.252C49.946,17.283,49.832,17.496,49.931,17.443z M48.375,18.688
	c0.135-0.107,0.172-0.094,0.276-0.133l-0.149-0.15L48.375,18.688z M49.474,17.203c-0.008-0.086,0.37-0.85-0.061-0.184
	C49.431,17.107,49.083,17.639,49.474,17.203z M51.662,8.316l0.051,0.152l0.328-0.107L51.662,8.316z M46.522,22.461
	C46.351,22.637,46.505,22.5,46.522,22.461L46.522,22.461z M46.522,22.461c0.005-0.012-0.015-0.006-0.058,0.02
	c0.1-0.078,0.199-0.164,0.297-0.266C46.643,22.336,46.571,22.408,46.522,22.461z M40.507,26.738l-0.065-0.043
	c0.044-0.064,0.121-0.107,0.167-0.174C40.886,26.326,40.751,26.521,40.507,26.738z M46.953,22.045
	c0.109-0.033-0.086-0.137,0.063-0.236C47.637,21.055,46.937,22.309,46.953,22.045z M38.227,29.947l-0.276,0.475l0.145-0.279
	L38.227,29.947z M39.07,29.277c-0.1,0.217,0.334-0.066,0.2,0.129c0.258-0.242,0.435-0.506,0.592-0.738
	C39.667,28.887,39.425,29.078,39.07,29.277z M40.138,28.283c-0.094,0.113-0.182,0.242-0.276,0.385
	C39.962,28.549,40.058,28.426,40.138,28.283z M37.337,30.436c0.05-0.002,0.162,0.008,0.401-0.154l-0.247,0.023
	C37.444,30.344,37.392,30.389,37.337,30.436z M37.483,30.307l0.009-0.002c0.168-0.139,0.285-0.238,0.336-0.279
	C37.785,30.061,37.681,30.145,37.483,30.307z M37.298,30.469c0.015-0.014,0.025-0.02,0.039-0.033
	C37.313,30.438,37.302,30.441,37.298,30.469z M36.99,30.498l-0.434,0.332c0.031,0.021,0.145,0,0.057,0.127L36.99,30.498z
	 M37.162,30.285l-0.17,0.213l0.16-0.125L37.162,30.285z M39.335,28.789c0.14-0.201,0.334-0.373,0.549-0.57
	c-0.256,0.182-0.514,0.381-0.747,0.58C39.134,28.863,39.083,29.014,39.335,28.789z M38.425,29.518
	c0.012-0.014,0.023-0.029,0.035-0.041C38.428,29.488,38.405,29.502,38.425,29.518z M39.08,28.812
	c-0.197,0.133-0.281,0.25-0.354,0.371c0.125-0.123,0.261-0.254,0.412-0.385C39.139,28.771,39.132,28.76,39.08,28.812z
	 M40.707,27.709c-0.113,0.057-0.236,0.129-0.363,0.205C40.462,27.871,40.697,27.766,40.707,27.709z M38.546,29.455l-0.022,0.027
	C38.603,29.455,38.585,29.451,38.546,29.455z M38.546,29.455c0.078-0.094,0.127-0.184,0.18-0.271
	c-0.104,0.104-0.191,0.201-0.266,0.293C38.489,29.465,38.521,29.457,38.546,29.455z M35.814,30.732
	c0.033-0.014,0.038-0.006,0.048,0.002C35.9,30.676,35.914,30.648,35.814,30.732z M36.199,30.51
	c-0.045,0.066-0.055,0.152-0.252,0.307c-0.191,0.109-0.045-0.053-0.085-0.082c-0.088,0.129-0.325,0.428,0.074,0.168l0.043-0.064
	c0.351-0.244,0.885-0.463,0.841-0.4C36.641,30.42,36.498,30.422,36.199,30.51z M38.25,29.115l0.621-0.625l-0.422,0.195l0.066,0.041
	C38.114,29.029,38.257,29.033,38.25,29.115z M40.31,27.826c0.038-0.225,0.404-0.619,0.052-0.525
	c-0.489,0.432-0.269,0.391-0.524,0.691c0.779-0.715-0.178,0.262,0.457-0.172c-0.143,0.154-0.278,0.281-0.41,0.398
	c0.156-0.109,0.311-0.213,0.459-0.305c-0.01,0.004-0.016,0.008-0.024,0.01l-0.003,0.004l-0.001-0.002
	c-0.046,0.016-0.065,0.016-0.019-0.01c0.002-0.002,0.01-0.012,0.015-0.016C40.303,27.881,40.306,27.854,40.31,27.826
	c0.253-0.176,0.062-0.002,0,0.074c0.001,0.008,0,0.018,0.004,0.025l0.004-0.002l0.753-0.748
	C40.888,27.305,40.677,27.49,40.31,27.826z M45.281,22.748c0.02,0.027,0.004,0.068-0.021,0.117
	C45.283,22.826,45.291,22.787,45.281,22.748z M46.464,22.48c-0.09,0.074-0.178,0.139-0.256,0.188
	C46.341,22.564,46.421,22.51,46.464,22.48z M46.126,22.824c0.049-0.041,0.101-0.084,0.166-0.141
	C46.152,22.854,46.123,22.861,46.126,22.824z M44.693,24.152c0.114-0.068,0.205-0.105,0.389-0.287l-0.362,0.391
	C44.839,24.145,44.727,24.172,44.693,24.152z M45.151,22.684c0.06-0.07,0.101-0.135,0.075-0.15l0.457-0.375
	C45.728,22.186,45.417,22.439,45.151,22.684z M44.824,23.027c0.057-0.092,0.188-0.217,0.328-0.344
	C45.054,22.803,44.897,22.957,44.824,23.027z M33.246,34.403c-0.021,0.013-0.035,0.019-0.07,0.035
	c0.537-0.59,0.174-0.258,0.318-0.266C33.367,34.285,33.296,34.354,33.246,34.403z M33.246,34.403
	C33,34.649,33.464,34.303,33.246,34.403L33.246,34.403z M34.382,33.256l-0.28,0.375c0.108-0.022,0.418-0.293,0.334-0.159
	C34.751,33.115,34.642,33.142,34.382,33.256z M34.583,32.828l-0.15,0.188C34.479,33.006,34.531,32.969,34.583,32.828z
	 M34.112,33.418l0.321-0.399c-0.075,0.016-0.135-0.037-0.153,0.178C34.261,33.115,34.235,33.233,34.112,33.418z M33.876,33.586
	c-0.229,0.138-0.49,0.349-0.213-0.033C33.048,34.188,33.257,34.217,33.876,33.586z M36.609,31.422c-0.012-0.057-0.208,0-0.277-0.025
	l-0.217,0.271C36.271,31.576,36.542,31.379,36.609,31.422z M36.333,31.396l0.326-0.406C36.308,31.285,36.274,31.373,36.333,31.396z
	 M34.464,32.574l-0.491,0.709l0.61-0.82L34.464,32.574z M35.55,31.771c0.173-0.262,0.588-0.744,0.049-0.432
	C35.503,31.557,35.81,31.379,35.55,31.771z M27.859,40.522c-0.12,0.17,0.042,0.179,0.049,0.215
	C28.062,40.433,27.824,40.513,27.859,40.522z M29.855,37.094l-0.225,0.492L29.625,37.5L29.855,37.094z M30.453,36.685l0.032-0.33
	l0.106-0.035c0.457-0.381,0.873-1.219,1.271-1.275C31.458,35.358,30.9,36.125,30.453,36.685z M31.357,35.217l0.15-0.271l0.298-0.199
	C31.875,34.787,31.428,35.078,31.357,35.217z M24.29,37.942c0.111,0.113,0.223,0.242,0.3,0.314
	C24.423,38.104,24.337,38.006,24.29,37.942z M42.031,26.377l-0.008-0.025l0.053-0.012L42.031,26.377z M42.125,25.066
	c0.059,0.129-0.33,0.627-0.828,0.869c-0.332,0.42,0.217,0.531,0.727,0.416c-0.025-0.057-0.062-0.098,0.297-0.514
	c-0.191,0.07-1.023,0.66-0.756,0.27c0.497-0.523,0.477-0.35,0.786-0.525c-0.332,0.07,0.526-0.787,0.247-0.869l-0.415,0.482
	C42.147,25.174,42.279,24.977,42.125,25.066z M41.229,27.018l-0.158,0.158c0.208-0.15,0.38-0.229,0.705-0.367
	c0.239-0.291,0.265-0.383,0.254-0.432l-0.845,0.703L41.229,27.018z M42.199,26.328l0.012,0.193l0.244-0.498L42.199,26.328z
	 M43.054,25.559l0.056,0.129l0.175-0.262L43.054,25.559z M43.988,24.184c-0.121-0.074-0.336,0.184-0.595,0.447l0.049-0.041
	C43.489,24.807,43.742,24.492,43.988,24.184z M43.332,24.693c-0.082,0.076-0.166,0.16-0.254,0.227
	C43.098,25.008,43.193,24.842,43.332,24.693z M43.464,24.047l0.211,0.037l0.061-0.238L43.464,24.047z M44.027,23.471l0.153-0.09
	l0.312-0.275L44.027,23.471z M47.369,1.492c-0.285-0.305-0.601-0.705-0.627-0.545l0.041,0.188
	C47.042,1.254,47.224,1.373,47.369,1.492z M40.934,1.383c0.01,0.002,0.022,0.002,0.032,0.002l-0.024,0.01L40.934,1.383z
	 M40.375,1.268c0.121-0.15,0.25-0.291,0.25-0.291l0.309,0.406c-0.266-0.02-0.475-0.049-0.794,0.197
	C40.139,1.58,40.257,1.422,40.375,1.268z M11.358,1.875l0.557,0.16c-0.689,0.186-1.154,0.082-0.646,0.297
	c0.041-0.217,0.583-0.24,1.126-0.174c0.542,0.059,1.084,0.145,1.172-0.059l0.349,0.182c-0.104-0.029-0.127-0.008-0.231-0.035
	c0.662,0.381,0.619-0.211,1.531,0.148c0.314,0.129,0.507,0.289,0.276,0.256l0.744,0.166c0.202,0.088,0.121,0.141-0.079,0.055
	c0,0,0.274,0.086,0.54,0.201c0.266,0.111,0.533,0.223,0.533,0.223l-0.014,0.01c0.183-0.002,0.57,0.064,0.754,0.109
	c0.234,0.197-0.154-0.025-0.113,0.061l0.627,0.199c0.176,0.225-0.353,0.082-0.738-0.135c0.316,0.688,0.537,0.123,1.526,1.008
	L18.72,4.299c0.209,0.414,0.659,0.572,1.142,1.074c-0.084-0.152-0.938-1.072-0.289-0.801c0.148,0.135,0.361,0.281,0.728,0.412
	c-0.087,0.139,0.241,0.307,0.627,0.561l-0.15,0.16c0.437,0.236,0.471,0.125,0.767,0.219c0.429,0.354,0.419,0.555,0.432,0.746
	c0.665,0.576-0.309-0.594,0.533,0.029C22.769,6.97,23,7.156,23.248,7.355c0.27,0.215,0.571,0.424,0.948,0.688
	c0.337,0.42-0.159,0.033-0.062,0.211l0.463,0.195c0.081,0.084,0.017,0.096-0.015,0.102c0.168,0.113,0.211,0.078,0.274,0.066
	c0.072-0.006,0.117-0.035,0.461,0.248c0.172-0.027,0.483,0.459,1.007,1.07c0.352-0.254,0.802-0.648,1.066-1.068
	c0.236-0.145-0.018,0.205,0.089,0.219c0.312-0.371,0.358-0.461,0.463-0.596c0.087-0.121,0.149-0.211,0.21-0.295
	c0.118-0.172,0.212-0.332,0.438-0.723l0.629-0.42c-0.495,0.266-0.155-0.367,0.205-0.883c-0.197,0.068-0.367,0.129-0.473,0.18
	c0,0,0.166-0.184,0.33-0.369c0.168-0.182,0.338-0.363,0.338-0.363c0.113-0.049,0.084,0.072,0.021,0.244
	c0.039-0.055,0.075-0.109,0.104-0.152c0.319-0.164,0.258,0.049,0.146,0.301l-0.354,0.123c-0.096,0.26-0.164,0.514-0.041,0.574
	c0.028-0.059,0.105-0.152,0.196-0.25c-0.022,0.068-0.03,0.117,0.004,0.115c0.04-0.004,0.082-0.105,0.166-0.248l0.322,0.045
	l-0.021-0.107c0,0,0.267-0.168,0.531-0.334c0.27-0.16,0.538-0.32,0.538-0.32c0.563-0.727,0.999-1.488,2.192-2.316
	c-0.217,0.336,0.082,0.289,0.173,0.48c-0.452,0.004-0.89,0.652-1.517,1.033c0.328-0.203,0.314-0.072,0.256,0.014
	c0,0,0.244-0.221,0.488-0.441c0.244-0.227,0.5-0.438,0.5-0.438c0.064,0.162,0.305-0.033,0.631-0.145
	c-0.396-0.17,0.736-0.682,1.172-1c0.082,0.09,0.012,0.232-0.567,0.52c0.737-0.119,0.649-0.768,1.38-0.885
	c-0.145,0.07-0.229,0.094-0.26,0.172c0.289-0.264,1.17-0.51,1.005-0.342l-0.146,0.059c0.977-0.393,3.01-0.957,3.137-1.201
	c0.016,0.037-0.078,0.365-0.127,0.43c0,0,0.406-0.311,0.85-0.621c0.443-0.268,0.934-0.539,0.934-0.539
	c-0.153,0.256,0.474,0.812-0.367,0.998c0.246,0.031,0.541,0.023,1.045-0.025c-0.158-0.039-0.405-0.375-0.174-0.389
	c0.619,0.309,0.441,0.145,1.166,0.486c-0.238-0.082,0.09-0.443,0.49-0.355c-0.072,0.043-0.041,0.381-0.188,0.393
	c0,0,0.256-0.039,0.513-0.076c0.133-0.018,0.266-0.035,0.364-0.049c0.103-0.014,0.166-0.014,0.166-0.014
	c-0.259-0.008-0.127,0.293,0.041,0.469c-0.07-0.104,0.786,0.266,1.024,0.363l-0.34-0.25c0.486,0.256,0.799,0.225,1.102,0.25
	c0.301,0.023,0.643,0.006,1.104,0.352c-0.161-0.014-0.54,0.219-0.106,0.57c0.166-0.012,0.537-0.037,0.979,0.037
	c0.457,0.051,0.97,0.23,1.401,0.553l0.064,0.219c0,0,0.043,0.031,0.106,0.074c0.063,0.045,0.147,0.104,0.222,0.176
	c0.154,0.139,0.309,0.273,0.309,0.273c-0.137-0.051-0.325-0.133-0.537-0.227c-0.228-0.08-0.48-0.17-0.736-0.262
	c-0.498-0.197-1.033-0.35-1.386-0.473c0.267,0.328,0.007,0.174,0.493,0.553c0.095,0.219-0.36-0.092-0.506-0.193
	c0,0,0.067,0.059,0.166,0.145c0.1,0.088,0.235,0.201,0.351,0.334c0.237,0.254,0.478,0.51,0.478,0.51
	c0.051-0.096,0.312,0.031,0.512,0.215c0.211,0.172,0.422,0.355,0.479,0.273c0,0-0.289-0.268-0.586-0.516
	c-0.321-0.229-0.64-0.455-0.64-0.455c0.098-0.217,1.136,0.146,1.752,1.029c0.095,0.256-0.452,0.088-0.496,0.154
	c0.172,0.031,0.656,0.707,0.662,0.812L49.93,6.047c0.112,0.256,0.296,0.406,0.479,0.584c0.156,0.186,0.301,0.408,0.342,0.756
	c0.107,0.209-0.041,0.736,0.101,0.73c0.142-0.428,0.862-0.814,1.132-0.604c0.005,0.045,0.042,0.389,0.081,0.76
	c0.042,0.365-0.021,0.768-0.049,0.918c-0.134,0.426-0.579-0.508-0.694-0.141c0.064,0.002,0.176,0.199,0.215,0.287
	c-0.011,0.252-0.207-0.072-0.088,0.449c0.238,0.066,0.03,1.104,0.207,0.238c0.078,0.533,0.006,0.568-0.007,1.193
	c0.159-0.201,0.476,0.594,0.492,1.172c-0.054-0.041-0.151,0.074-0.196,0.127c-0.201,1.121-0.535,1.658-0.976,2.602
	c-0.093,0.062-0.376,0.479-0.369,0.242c-0.024,0.152-0.03,0.307-0.188,0.59c-0.486,0.432,0.334-0.631-0.113-0.344
	c0.095,0.098-0.244,0.811-0.447,1.229c0.266,0.006,0.611-0.875,0.757-1.312c0.248,0.121,0.136,1-0.413,2.01
	c-0.473,0.768-0.38,0.203-0.439,0.354c-1.057,1.291-0.498,1.445-1.576,2.363c-0.508,0.283-0.283-0.227-0.463-0.225
	c0.425-0.584,0.828-0.742,1.129-1.131c0,0-0.112,0.102-0.225,0.205c-0.111,0.103-0.229,0.199-0.229,0.199
	c0.11-0.209,0.372-0.613,0.582-0.781c-0.392,0.27-1.851,2.104-2.882,2.881c-0.113,0.205-0.354,0.52-0.17,0.445l0.271-0.303
	c0.369-0.158-0.4,0.68,0.014,0.371c-0.32,0.447-0.646,1-1.27,1.455l-0.247-0.053c0.054,0.033,0.451-0.25,0.565-0.443
	c-0.172,0.285-1.049,0.596-1.127,1.025l0.494-0.254c-0.334,0.445-0.688,1.066-1.242,1.467c0.369-0.053,0.104-0.117,0.625-0.264
	c-0.512,0.062,1.304-1.162,0.591-0.938c0.553-0.137,0.714-0.496,1.351-0.773c-0.062-0.035-0.258,0.064,0.182-0.309
	c0.004-0.033,0.031-0.096,0.049-0.131c0.013-0.012,0.019-0.016,0.031-0.025l-0.028,0.016c0.01-0.023,0.01-0.025-0.011,0.008
	c-0.119,0.074-0.224,0.125-0.282,0.129c0.098-0.311,0.756-0.941,0.911-1.223c0.265-0.219-0.043,0.158,0.14,0.076l0.239-0.412
	c0.143,0.078,0.809-0.486,0.318,0.166L48,20.902c0.363-0.248,0.779-0.68,0.977-0.994c0.259-0.232,0.434-0.785,0.335-0.469
	c0,0,0.165-0.24,0.331-0.479c0.168-0.232,0.318-0.484,0.318-0.484l0.037,0.016c0.722-0.906,1.168-2.049,1.984-3.146
	c0.077-0.182,0.123-0.387,0.203-0.609c0.076-0.229,0.186-0.473,0.292-0.799l0.164-0.092c0.024-0.131,0.075-0.287,0.131-0.457
	c0.042-0.176,0.088-0.363,0.132-0.541c0.098-0.361,0.125-0.676,0.061-0.791c0.436-0.523,0.168-2.531-0.026-3.445h-0.174
	c-0.032-0.316-0.164-0.609-0.271-0.92c-0.115-0.311-0.24-0.637-0.453-0.973l-0.119,0.104c-0.369-0.549-0.656-1.594-1.356-2.393
	c0.09,0.018,0.248,0.236,0.34,0.402c-0.264-0.586-0.724-1.098-1.256-1.465c-0.501-0.412-1.04-0.721-1.401-1.17
	c-0.265-0.115-0.42-0.244-0.562-0.385c0.021,0.014,0.042,0.023,0.062,0.031c-0.023-0.018-0.059-0.041-0.095-0.066
	c-0.089-0.092-0.175-0.191-0.282-0.285c0.082,0.092,0.156,0.186,0.231,0.252c-0.177-0.129-0.478-0.273-0.776-0.396l-0.043-0.211
	c-0.023-0.012-0.043-0.02-0.066-0.033c-0.254-0.211-0.26-0.055-0.168,0.137c-0.151-0.061-0.305-0.084-0.426-0.098
	c-0.125-0.348-0.791-0.271-1.035-0.629c-0.241,0.029-1.604-0.355-1.819-0.061c-0.003-0.039-0.093-0.068,0.075-0.045
	C43,0.334,42.653,0.222,42.33,0.303l-0.14-0.215c0,0-0.782,0.238-0.776,0.262c-0.463-0.102-0.67-0.162-0.207-0.35
	c-1.117,0.303-0.916,0.148-1.814,0.533l0.021-0.139c-0.342,0.043-0.815,0.367-1.039,0.303c-0.397-0.041-1.309,0.207-2.305,0.615
	c-1.008,0.391-2.09,0.953-2.979,1.342c0.523,0.148-0.865,0.301-0.76,0.613c-0.145-0.018-0.397,0.086-0.182-0.154
	c-0.773,0.611-1.314,0.707-1.705,1.322c-0.145-0.007,0.088-0.236-0.025-0.22c-0.051,0.062-0.2,0.252-0.316,0.27
	c-0.115,0.015,0.066-0.149,0.168-0.276c-0.796,0.627-0.686,0.924-0.572,1.176c-0.469,0.223-0.652,0.404-0.805,0.779
	c-0.189,0.055-0.477,0.189-0.03-0.26c-0.304,0.236-1.596,1.379-1.481,1.559C27.269,7.5,27.03,7.789,26.983,7.869
	c-0.375,0.354-0.401,0.359-0.674,0.639c-0.011-0.01-0.054-0.047-0.104-0.088l0.1,0.143c-0.073,0.109-0.178,0.031-0.283-0.086
	c-0.111-0.123-0.217-0.281-0.39-0.424l0.028-0.01c-0.872-1.078-0.497-0.344-1.347-1.436l-0.058,0.168
	c-0.317,0.168-0.771-1.004-1.51-1.387l0.172,0.254c-0.412-0.182-0.694-1.127-1.042-1.428c-0.062-0.082,0.154,0.051,0.28,0.115
	c-0.849-0.85-0.247,0.082-0.997-0.369c-0.071-0.184,0.338-0.131-0.147-0.475c-0.205-0.242-1.646-0.592-2.265-1.137
	c0.118,0.162,0.231,0.318-0.159,0.193c-0.281-0.133-0.62-0.395-0.98-0.609c-0.352-0.227-0.726-0.404-1.043-0.373
	c-0.065-0.049-0.085-0.082-0.08-0.105c-0.465-0.127-1.519-0.391-1.831-0.328c-0.144-0.307-0.889-0.467-1.59-0.477
	c-0.695-0.051-1.33,0.012-1.312-0.246c0,0-0.377-0.008-0.752-0.018c-0.378,0.025-0.756,0.051-0.756,0.051l0.035-0.053
	C9.302,0.441,8.979,0.639,8.685,0.842C8.463,0.861,8.608,0.777,8.62,0.744c-1.387,0.26-1.534,0.391-2.463,1.117L5.973,1.775
	C5.868,1.912,5.371,2.064,4.83,2.408C4.553,2.57,4.246,2.752,3.976,2.99C3.701,3.217,3.42,3.455,3.222,3.744
	C3.218,3.721,3.216,3.676,3.276,3.582C3.039,3.895,2.732,4.189,2.419,4.488c-0.293,0.32-0.594,0.646-0.871,0.947
	C1.061,6.104,0.682,6.721,0.875,7.123c0,0-0.066,0.252-0.132,0.502C0.712,7.75,0.674,7.871,0.659,7.967
	c-0.012,0.096-0.021,0.16-0.021,0.16C1.146,6.926,0.8,8.387,1.094,7.93C0.961,8.398,0.565,9.119,0.689,8.51l0.055-0.086
	C0.623,8.268,0.488,8.652,0.359,9.068c-0.1,0.42-0.146,0.875-0.258,0.844l-0.064,0.486c-0.013,0.162-0.009,0.324-0.015,0.484
	L0,11.848c0.063,0.635,0.048,1.264,0.186,1.9c0.222,1.268,0.691,2.455,1.298,3.508l0.071-0.361l0.42,0.721
	c0.064,0.219-0.01,0.361-0.313-0.162c0.035,0.357,0.646,0.781,0.7,0.762c0.583,1.014-0.498-0.211-0.299,0.086l0.295,0.396
	l-0.041-0.111c0.306,0.271,0.425,0.223,0.848,0.795c0.24,0.385,0.027,0.275,0.132,0.418c-0.014,0.01,0.019,0.061,0.172,0.211
	c0,0,0.167,0.203,0.333,0.404c0.167,0.203,0.344,0.393,0.344,0.393l-0.138-0.434c0.383,0.271,0.654,0.717,0.493,0.219
	c0.107,0.377,0.753,1.098,1.425,1.738c0.667,0.645,1.359,1.205,1.48,1.395c0.577,0.307,1.045,0.723,1.635,1.232
	c-0.123-0.154-0.07-0.398,0.426,0.051c-0.48,0.195,0.822,0.928,1.042,1.52c-0.243-0.471,1.524,1.139,1.12,0.426
	c0.417,0.373-0.077,0.156,0.189,0.5c1.152,0.682,2.24,1.883,3.567,2.836c0.056-0.031-0.104-0.271,0.228-0.127l0.497,0.766
	c0.271,0.176,0.447-0.09,0.781,0.439c-0.033-0.09-0.085-0.229,0.096-0.109c2.318,2.195,5.257,3.934,7.076,6.645
	c-0.217-0.393-0.008-0.19,0.225,0.044c-0.129-0.177,0.11-0.097,0.14-0.185l0.73,1.146c0.329,0.039,0.924,1.088,1.164,1.076
	l-0.286-0.312c0.554,0.289-0.059-0.971,0.231-1.113c-0.621-0.317-0.815-1.586-1.864-2.069c-0.116-0.218,0.214,0.069,0.181-0.072
	c-0.285-0.103-0.542-0.303-0.932-0.771l0.073,0.022c-1.255-1.146-1.704-1.731-3.098-3.035l0.003,0.215
	c-0.298-0.281-0.334-0.371-0.455-0.525c-0.516-0.113,0.874,0.744,0.372,0.678c-0.201-0.604-2.216-1.83-2.275-2.34
	c-0.491-0.389,0.028,0.26-0.462-0.131l-0.067-0.182l-0.205,0.002c-0.309-0.27-0.396-0.494-0.355-0.57
	c0.073,0.068,0.238,0.154,0.327,0.215c-0.347-0.422-1.209-0.895-1.329-1.033l0.437,0.416c-1.405-0.975-2.974-2.34-4.388-3.195
	l0.051,0.137c-1.067-0.668-0.739-0.684-1.845-1.498l0.05,0.018c-0.261-0.113-0.571-0.316-0.852-0.564
	c0.323,0.154-0.39-0.549,0.022-0.334c-1.132-0.754-0.583-0.342-1.449-0.709l-0.073-0.23c-0.301-0.117-0.36-0.092-0.892-0.525
	c0.49,0.297-0.195-0.432,0.368-0.119c-0.868-1.158-1.732-1.26-1.905-2.008C5,20.119,6.436,21.357,6.127,21.148
	c0.14,0.297-0.57-0.197-0.857-0.551c-0.304-0.344-0.219-0.859-0.949-1.719c0.072,0.086,0.098,0.076,0.169,0.162
	c-0.214-0.369-0.611-0.57-0.819-1.062c-0.34-0.109-0.37-0.553-0.642-0.469c0,0,0.162,0.205,0.321,0.408
	c0.156,0.205,0.337,0.396,0.337,0.396c-0.215-0.207-0.452-0.387-0.698-0.625c-0.255-0.23-0.491-0.541-0.676-1
	c0.086,0.041,0.298,0.25,0.432,0.396c-0.076-0.281-0.329-0.438-0.403-0.73c0.268-0.057,0.687,1.047,1.23,1.432
	c-0.08-0.309-0.827-0.861-0.41-0.762c-0.269-0.088-0.402-0.33-0.544-0.607c-0.139-0.281-0.251-0.605-0.554-0.877l0.168-0.023
	c-0.077-0.094-0.231-0.289-0.312-0.488l0.339,0.275c-0.188-0.238-0.276-0.516-0.318-0.793c-0.031-0.283-0.068-0.553-0.181-0.809
	c0.334,1.107-0.112,0.303-0.081,0.816C1.344,13.846,1.42,13.6,1.494,13.354c0.063-0.244,0.17-0.51,0.057-1.32
	c0.046,0.215-0.013,0.84-0.121,0.5c0.009-0.318,0.007-0.736,0.101-0.928c-0.017-1.07-0.167,0.17-0.26-0.287
	c0.214-0.369-0.103-0.539-0.102-1.027l0.164,0.012C1.469,9.7,1.395,9.607,1.323,9.525C1.249,9.443,1.169,9.369,1.39,8.84
	l0.094,0.508L1.58,8.779l0.148,0.162C1.739,8.3,1.874,8.132,2.158,7.595c-0.08,0.043-0.14-0.006-0.153-0.131
	C1.987,7.338,2.026,7.139,2.176,6.9c0.278-0.275,0.028,0.26,0.407-0.424c-0.004,0.21,0.013,0.432-0.291,0.647
	c0.03,0.055,0.001,0.193,0.033,0.248c0.307-0.281,0.508-0.84,0.679-1.062C2.927,6.385,2.857,6.49,2.806,6.533
	c0,0,0.023-0.068,0.06-0.168c0.047-0.096,0.111-0.221,0.175-0.35C3.171,5.758,3.3,5.498,3.3,5.498
	c0.156-0.102,0.106,0.045,0.059,0.186c0.12-0.195,0.166-0.367,0.402-0.613c0.042,0.156,0.134,0.225-0.12,0.617
	c0,0,0.03-0.061,0.085-0.145c0.06-0.078,0.14-0.186,0.221-0.293C4.108,5.033,4.27,4.818,4.27,4.818
	C4.355,4.8,4.77,4.552,4.704,4.683C5.192,4.365,5.656,3.545,6.4,3.246c0.022-0.043,0.08-0.105,0.214-0.207
	c0.323-0.18,0.669-0.252,0.998-0.395C7.958,2.551,8.294,2.391,8.69,2.205L9.216,2.32C9.86,2.135,8.499,2.146,9.597,1.859
	c0.793-0.193,0.323,0.15,0.607,0.186c0.19-0.07,0.456-0.174,0.772-0.244c0.319-0.047,0.689-0.031,1.054,0.078
	C11.78,1.912,11.59,1.871,11.358,1.875z M19.559,4.559c-0.162-0.064-0.513-0.141-0.574-0.287
	C19.249,4.209,19.341,4.355,19.559,4.559z M30.658,5.564c-0.068,0.125-0.242,0.229-0.459,0.32C30.32,5.773,30.47,5.662,30.658,5.564
	z M48.314,20.424l0.006-0.02C48.636,20.146,48.522,20.234,48.314,20.424z M47.689,20.986c-0.041,0.076-0.02,0.088,0.021,0.078
	c0.011-0.07,0.137-0.209,0.293-0.357C47.93,20.723,47.833,20.779,47.689,20.986z M3.405,19.83l-0.074-0.152
	C3.608,19.928,3.508,19.877,3.405,19.83z M46.507,2.723c-0.18-0.033,0.406,0.34,0.218,0.322c-0.483-0.436-0.185,0.105-0.747-0.314
	C45.917,2.436,46.085,2.586,46.507,2.723z M46.725,2.795c-0.08-0.029-0.151-0.051-0.218-0.072
	C46.546,2.73,46.611,2.736,46.725,2.795z M25.733,39.806l0.093,0.313c0,0-0.057-0.104-0.114-0.211
	c-0.061-0.103-0.122-0.205-0.122-0.205L25.733,39.806z M26.575,40.601l-0.334-0.111l0.109-0.219
	C26.36,40.362,26.501,40.519,26.575,40.601z M20.186,5.338c0.178,0.131,0.268,0.195,0.295,0.283l-0.06,0.023L20.186,5.338z
	 M14.835,2.461l0.133,0.252l-0.102-0.037L14.835,2.461z M10.482,2.287c-0.203-0.008-0.429,0.066-0.625,0.092
	C9.772,2.154,10.051,2.328,10.482,2.287z"/>
<path fill="#F21D2F" d="M17.57,30.057c-0.014-0.021-0.039-0.041-0.055-0.064C17.559,30.021,17.588,30.047,17.57,30.057z
	 M27.328,32.029c-0.07,0.1,0.024,0.104,0.028,0.125C27.445,31.975,27.307,32.023,27.328,32.029z M35.552,23.824l-0.03,0.006
	l0.004,0.016L35.552,23.824z M35.625,23.818l0.006,0.111l0.142-0.289L35.625,23.818z M36.119,23.371l0.031,0.076l0.102-0.152
	L36.119,23.371z M20.173,10.117c0-0.002-0.144-0.023-0.144-0.023C20.096,10.109,20.14,10.111,20.173,10.117z M21.131,10.52
	l0.04-0.023C21.118,10.496,21.093,10.502,21.131,10.52z M38.615,9.445c-0.164-0.174-0.347-0.404-0.361-0.314l0.022,0.111
	C38.427,9.309,38.533,9.381,38.615,9.445z M14.908,10.486l-0.091,0.15C15.029,10.514,14.913,10.531,14.908,10.486z M20.889,9.428
	c-0.095-0.021-0.138-0.021-0.143,0C20.842,9.449,20.899,9.455,20.889,9.428z M21.343,25.936c0.009,0.016,0.023,0.027,0.032,0.041
	C21.386,25.969,21.369,25.955,21.343,25.936z M34.896,9.393l0.016-0.006c-0.007,0-0.015-0.002-0.02-0.002L34.896,9.393z M34.432,9.5
	c0.187-0.145,0.307-0.129,0.461-0.115L34.714,9.15c0,0-0.075,0.08-0.146,0.168C34.5,9.406,34.432,9.5,34.432,9.5z M14.925,10.457
	l-0.013,0.006c-0.004,0.01-0.005,0.016-0.004,0.023L14.925,10.457z M37.811,10.162c0.326,0.246,0.151-0.068,0.433,0.184
	c0.107,0.01-0.23-0.207-0.127-0.186C37.875,10.08,37.776,9.994,37.811,10.162z M38.117,10.16c0.038,0.014,0.079,0.025,0.125,0.041
	C38.177,10.168,38.139,10.164,38.117,10.16z M26.015,31.555c0,0,0.035,0.061,0.07,0.119c0.034,0.061,0.066,0.121,0.066,0.121
	l-0.054-0.18L26.015,31.555z M26.455,31.881l-0.062,0.129l0.192,0.064C26.541,32.027,26.46,31.938,26.455,31.881z M39.197,19.396
	c0.079-0.064,0.1-0.053,0.161-0.078l-0.087-0.084L39.197,19.396z M41.089,17.898c-0.072,0.119-0.166,0.248-0.295,0.402
	C40.766,18.209,40.927,18.084,41.089,17.898z M41.349,17.377c-0.023,0.029-0.043,0.057-0.064,0.088
	c-0.054,0.137-0.109,0.275-0.195,0.434C41.203,17.754,41.315,17.58,41.349,17.377z M41.263,15.826c0-0.002,0.001-0.006,0.002-0.012
	C41.242,15.854,41.246,15.848,41.263,15.826z M12.798,18.471c0.002,0.01,0.004,0.018,0.008,0.029
	C12.908,18.598,12.871,18.549,12.798,18.471z M40.884,14.004c-0.002-0.092,0.007-0.145,0.019-0.182
	C40.878,13.82,40.867,13.865,40.884,14.004z M33.25,26.023l-0.084,0.162l0.162-0.273L33.25,26.023z M34.271,25.172
	c-0.092,0.135-0.193,0.285-0.341,0.426c0.077-0.113-0.175,0.051-0.117-0.074C34.021,25.408,34.16,25.297,34.271,25.172z
	 M34.271,25.172c0.057-0.082,0.105-0.156,0.16-0.225C34.384,25.031,34.332,25.104,34.271,25.172z M33.853,25.246
	c0.135-0.115,0.283-0.229,0.432-0.334c-0.125,0.115-0.238,0.213-0.316,0.33C33.824,25.369,33.851,25.283,33.853,25.246z
	 M33.46,25.639c-0.006,0.008-0.014,0.016-0.021,0.025C33.429,25.652,33.442,25.646,33.46,25.639z M33.853,25.246
	c-0.087,0.076-0.167,0.152-0.239,0.225c0.042-0.07,0.091-0.139,0.205-0.215C33.85,25.223,33.854,25.23,33.853,25.246z M34.55,24.734
	c0.074-0.043,0.144-0.084,0.209-0.117C34.755,24.65,34.621,24.709,34.55,24.734z M33.498,25.643l0.012-0.018
	C33.533,25.623,33.542,25.627,33.498,25.643z M33.46,25.639c0.043-0.053,0.095-0.111,0.153-0.168
	c-0.03,0.049-0.059,0.102-0.104,0.154C33.496,25.629,33.478,25.633,33.46,25.639z M35.039,24.252l0.488-0.406
	c0.006,0.029-0.008,0.08-0.146,0.25c-0.188,0.08-0.287,0.125-0.408,0.211l0.092-0.092L35.039,24.252z M34.971,24.307l-0.435,0.434
	h-0.002c-0.004-0.002-0.002-0.008-0.004-0.014c0.036-0.045,0.146-0.143,0-0.043c-0.002,0.016-0.005,0.031,0,0.043
	c-0.002,0.002-0.008,0.008-0.008,0.008c-0.025,0.018-0.016,0.018,0.012,0.006v0.002l0.002-0.002c0.004,0,0.008-0.002,0.014-0.006
	c-0.086,0.055-0.176,0.113-0.266,0.178c0.076-0.068,0.154-0.143,0.236-0.232c-0.367,0.252,0.188-0.312-0.264,0.102
	c0.147-0.176,0.021-0.15,0.304-0.4c0.204-0.055-0.008,0.174-0.03,0.303C34.744,24.49,34.867,24.381,34.971,24.307z M33.494,25.203
	l-0.039-0.023l0.244-0.111l-0.359,0.361C33.344,25.381,33.261,25.381,33.494,25.203z M34.645,24.055l-0.038-0.025
	c0.025-0.039,0.07-0.062,0.098-0.1C34.865,23.816,34.787,23.93,34.645,24.055z M28.483,30.045l-0.131,0.285l-0.002-0.049
	L28.483,30.045z M29.644,28.859c-0.229,0.031-0.471,0.518-0.736,0.74l-0.062,0.018l-0.019,0.191
	C29.087,29.484,29.41,29.045,29.644,28.859z M30.587,28.357c-0.084,0.004,0.125-0.188-0.185,0.152c0.021-0.01,0.027-0.014,0.04-0.02
	C30.473,28.461,30.514,28.422,30.587,28.357z M30.444,28.49C30.302,28.633,30.571,28.432,30.444,28.49L30.444,28.49z M31.102,27.824
	l-0.163,0.219c0.062-0.016,0.242-0.17,0.193-0.094C31.314,27.744,31.251,27.758,31.102,27.824z M31.218,27.576l-0.088,0.111
	C31.158,27.68,31.188,27.66,31.218,27.576z M30.945,27.918l0.186-0.23c-0.043,0.01-0.076-0.021-0.088,0.104
	C31.031,27.744,31.017,27.812,30.945,27.918z M30.809,28.018c-0.132,0.076-0.283,0.199-0.122-0.021
	C30.33,28.363,30.451,28.381,30.809,28.018z M29.61,28.688l-0.171,0.113l-0.087,0.16C29.393,28.881,29.65,28.711,29.61,28.688z
	 M32.39,26.766c-0.008-0.033-0.12,0-0.16-0.016l-0.125,0.156C32.194,26.855,32.351,26.742,32.39,26.766z M32.23,26.75l0.189-0.234
	C32.216,26.686,32.196,26.734,32.23,26.75z M31.149,27.43l-0.284,0.41l0.354-0.473L31.149,27.43z M32.811,26.193
	c0.03-0.002,0.094,0.006,0.233-0.088L32.9,26.119C32.875,26.141,32.841,26.168,32.811,26.193z M32.896,26.119H32.9
	c0.098-0.082,0.167-0.139,0.195-0.162C33.069,25.977,33.009,26.025,32.896,26.119z M32.789,26.215
	c0.008-0.01,0.016-0.014,0.022-0.021C32.798,26.195,32.791,26.197,32.789,26.215z M31.778,26.965
	c0.099-0.148,0.339-0.428,0.027-0.248C31.75,26.842,31.928,26.738,31.778,26.965z M32.611,26.23l-0.251,0.191
	c0.019,0.012,0.083,0,0.034,0.074L32.611,26.23z M32.71,26.107l-0.1,0.123l0.092-0.074L32.71,26.107z M31.93,26.363
	c0.021-0.006,0.022,0,0.028,0.004C31.98,26.334,31.987,26.318,31.93,26.363z M32.151,26.238c-0.024,0.037-0.03,0.088-0.146,0.176
	c-0.109,0.064-0.025-0.031-0.049-0.047c-0.051,0.074-0.188,0.246,0.043,0.096l0.024-0.037c0.203-0.139,0.515-0.268,0.488-0.23
	C32.408,26.184,32.326,26.186,32.151,26.238z M25.436,30.719c-0.044-0.041-0.109-0.113-0.174-0.182
	C25.29,30.574,25.339,30.631,25.436,30.719z M35.582,23.088c0.033,0.072-0.191,0.361-0.479,0.504
	c-0.192,0.24,0.125,0.305,0.42,0.238c-0.015-0.031-0.036-0.057,0.172-0.297c-0.11,0.041-0.592,0.383-0.438,0.154
	c0.289-0.301,0.275-0.201,0.457-0.303c-0.192,0.041,0.305-0.455,0.143-0.502l-0.24,0.277C35.595,23.148,35.669,23.037,35.582,23.088
	z M28.358,11.977c-0.019,0.047-0.038,0.102-0.06,0.156c-0.021,0.008-0.045,0.016-0.064,0.021
	C28.278,12.092,28.32,12.031,28.358,11.977z M28.115,12.664c0,0,0.061-0.039,0.117-0.072c0.062-0.037,0.12-0.072,0.12-0.072
	C28.246,12.594,28.173,12.631,28.115,12.664z M38.125,21.578C38.115,21.602,38.025,21.684,38.125,21.578L38.125,21.578z
	 M37.408,21.746c0.01,0.016,0.002,0.041-0.014,0.068C37.408,21.791,37.414,21.77,37.408,21.746z M38.093,21.592
	c-0.053,0.043-0.104,0.078-0.149,0.107C38.021,21.641,38.067,21.609,38.093,21.592z M37.897,21.791
	c0.028-0.023,0.058-0.049,0.095-0.082C37.912,21.809,37.894,21.812,37.897,21.791z M38.125,21.578c0.004-0.006-0.008,0-0.031,0.014
	c0.057-0.047,0.113-0.096,0.171-0.154C38.195,21.508,38.154,21.551,38.125,21.578z M17.781,9.67l0.322,0.092
	c-0.398,0.107-0.667,0.049-0.373,0.172c0.024-0.125,0.337-0.139,0.651-0.102s0.628,0.086,0.679-0.033l0.202,0.107
	C19.2,9.889,19.187,9.9,19.127,9.885c0.382,0.219,0.358-0.123,0.886,0.086c0.181,0.074,0.293,0.166,0.159,0.146l0.43,0.096
	c0.116,0.051,0.07,0.082-0.046,0.033c0,0,0.159,0.049,0.312,0.117c0.155,0.064,0.31,0.129,0.31,0.129l-0.008,0.004
	c0.105,0,0.33,0.037,0.436,0.064c0.135,0.113-0.089-0.014-0.066,0.035l0.363,0.115c0.102,0.131-0.205,0.047-0.427-0.08
	c0.183,0.396,0.311,0.072,0.883,0.586l-0.32-0.146c0.122,0.24,0.381,0.334,0.661,0.623c-0.048-0.088-0.543-0.619-0.167-0.463
	c0.084,0.078,0.209,0.162,0.421,0.238c-0.05,0.08,0.14,0.178,0.363,0.324l-0.087,0.092c0.253,0.139,0.273,0.074,0.444,0.125
	c0.249,0.205,0.243,0.324,0.25,0.434c0.384,0.334-0.18-0.342,0.308,0.018c0.15,0.156,0.284,0.264,0.428,0.381
	c0.155,0.123,0.33,0.244,0.548,0.398c0.195,0.242-0.092,0.018-0.036,0.119l0.268,0.113c0.048,0.049,0.01,0.057-0.008,0.059
	c0.098,0.066,0.122,0.047,0.159,0.039c0.042-0.004,0.067-0.021,0.267,0.143c0.1-0.016,0.279,0.266,0.583,0.621
	c0.202-0.148,0.464-0.375,0.617-0.619c0.136-0.084-0.011,0.117,0.05,0.127c0.181-0.215,0.208-0.266,0.269-0.346
	c0.049-0.07,0.086-0.121,0.123-0.17c0.067-0.098,0.123-0.193,0.254-0.42l0.363-0.242c-0.287,0.154-0.09-0.211,0.118-0.51
	c-0.114,0.039-0.213,0.074-0.272,0.105c0,0,0.095-0.107,0.189-0.215c0.098-0.105,0.195-0.209,0.195-0.209
	c0.066-0.029,0.05,0.041,0.012,0.141c0.021-0.031,0.044-0.064,0.061-0.09c0.186-0.094,0.149,0.029,0.084,0.176l-0.205,0.07
	c-0.055,0.15-0.094,0.295-0.022,0.332c0.017-0.035,0.06-0.088,0.112-0.143c-0.014,0.039-0.018,0.066,0.003,0.064
	c0.022-0.002,0.048-0.061,0.095-0.145l0.188,0.027l-0.012-0.062c0,0,0.152-0.094,0.307-0.191c0.154-0.094,0.312-0.188,0.312-0.188
	c0.325-0.42,0.577-0.859,1.269-1.34c-0.125,0.197,0.048,0.166,0.1,0.277c-0.261,0.004-0.516,0.379-0.876,0.598
	c0.19-0.115,0.183-0.041,0.146,0.01c0,0,0.143-0.129,0.285-0.258c0.141-0.129,0.289-0.25,0.289-0.25
	c0.036,0.092,0.178-0.02,0.366-0.086c-0.229-0.098,0.425-0.393,0.677-0.578c0.049,0.053,0.008,0.135-0.328,0.301
	c0.426-0.068,0.377-0.445,0.799-0.512c-0.084,0.041-0.133,0.055-0.15,0.098c0.167-0.152,0.678-0.293,0.582-0.197l-0.084,0.035
	c0.564-0.229,1.742-0.555,1.814-0.695c0.008,0.02-0.045,0.211-0.073,0.25c0,0,0.235-0.18,0.491-0.361
	c0.256-0.154,0.541-0.311,0.541-0.311c-0.09,0.15,0.273,0.469-0.213,0.578c0.143,0.018,0.312,0.014,0.605-0.016
	c-0.092-0.025-0.234-0.217-0.102-0.225c0.357,0.178,0.256,0.082,0.674,0.281c-0.137-0.047,0.053-0.254,0.285-0.205
	c-0.041,0.025-0.024,0.219-0.108,0.228c0,0,0.147-0.021,0.297-0.045c0.076-0.01,0.153-0.02,0.21-0.027
	c0.061-0.008,0.098-0.008,0.098-0.008c-0.149-0.006-0.074,0.17,0.022,0.271c-0.041-0.061,0.455,0.152,0.592,0.209l-0.196-0.145
	c0.28,0.148,0.461,0.131,0.637,0.145c0.175,0.016,0.371,0.004,0.639,0.205c-0.093-0.01-0.312,0.125-0.061,0.33
	c0.095-0.008,0.31-0.023,0.565,0.02c0.265,0.031,0.56,0.133,0.812,0.322l0.037,0.127c0,0,0.023,0.016,0.062,0.041
	s0.086,0.061,0.129,0.102c0.089,0.08,0.179,0.16,0.179,0.16c-0.08-0.031-0.188-0.078-0.311-0.133
	c-0.131-0.047-0.277-0.098-0.428-0.15c-0.286-0.115-0.598-0.205-0.801-0.275c0.154,0.189,0.004,0.102,0.285,0.32
	c0.055,0.127-0.209-0.053-0.293-0.113c0,0,0.039,0.035,0.098,0.086c0.056,0.051,0.135,0.115,0.201,0.191
	c0.138,0.148,0.276,0.295,0.276,0.295c0.03-0.055,0.181,0.02,0.296,0.125c0.122,0.1,0.244,0.207,0.277,0.16
	c0,0-0.168-0.156-0.34-0.301c-0.184-0.131-0.37-0.262-0.37-0.262c0.057-0.125,0.657,0.084,1.014,0.596
	c0.056,0.148-0.262,0.051-0.286,0.09c0.1,0.016,0.379,0.406,0.385,0.467L40.1,12.082c0.065,0.148,0.171,0.234,0.276,0.336
	c0.092,0.109,0.174,0.236,0.199,0.438c0.062,0.123-0.022,0.43,0.059,0.424c0.082-0.248,0.5-0.471,0.654-0.35
	c0.002,0.025,0.023,0.225,0.047,0.441c0.023,0.211-0.014,0.441-0.028,0.529c-0.078,0.246-0.335-0.295-0.402-0.08
	c0.037,0,0.101,0.115,0.124,0.164c-0.006,0.146-0.119-0.039-0.051,0.262c0.139,0.039,0.018,0.637,0.12,0.135
	c0.045,0.309,0.002,0.332-0.005,0.693c0.093-0.117,0.275,0.342,0.285,0.676c-0.031-0.021-0.088,0.045-0.113,0.074
	c-0.117,0.65-0.311,0.959-0.564,1.504c-0.056,0.037-0.219,0.279-0.214,0.143c-0.015,0.088-0.018,0.178-0.108,0.34
	c-0.281,0.25,0.193-0.363-0.065-0.197c0.056,0.057-0.142,0.467-0.26,0.711c0.153,0.004,0.354-0.508,0.438-0.762
	c0.143,0.072,0.077,0.58-0.24,1.164c-0.272,0.445-0.219,0.117-0.254,0.205c-0.611,0.746-0.289,0.836-0.912,1.365
	c-0.293,0.164-0.164-0.129-0.268-0.129c0.245-0.338,0.479-0.428,0.653-0.654c0,0-0.063,0.061-0.13,0.117
	c-0.063,0.062-0.131,0.119-0.131,0.115c0.062-0.117,0.215-0.354,0.336-0.449c-0.229,0.154-1.071,1.217-1.668,1.666
	c-0.065,0.119-0.205,0.301-0.099,0.256l0.158-0.174c0.213-0.092-0.231,0.395,0.008,0.215c-0.187,0.258-0.375,0.578-0.735,0.844
	l-0.142-0.033c0.031,0.021,0.261-0.143,0.327-0.254c-0.102,0.164-0.607,0.344-0.652,0.592l0.285-0.146
	c-0.191,0.258-0.396,0.617-0.719,0.85c0.213-0.031,0.061-0.07,0.361-0.154c-0.295,0.035,0.754-0.672,0.343-0.543
	c0.319-0.078,0.411-0.287,0.78-0.447c-0.035-0.02-0.148,0.039,0.105-0.178c0.002-0.02,0.018-0.057,0.028-0.078
	c0.007-0.006,0.011-0.006,0.018-0.014l-0.016,0.01c0.005-0.014,0.005-0.014-0.007,0.004c-0.068,0.043-0.129,0.072-0.164,0.074
	c0.059-0.178,0.439-0.545,0.529-0.707c0.151-0.127-0.026,0.09,0.08,0.045l0.137-0.238c0.084,0.045,0.469-0.283,0.185,0.096
	l0.293-0.305c0.209-0.143,0.451-0.393,0.563-0.574c0.15-0.135,0.252-0.453,0.195-0.273c0,0,0.096-0.137,0.19-0.275
	c0.097-0.137,0.185-0.279,0.185-0.279l0.021,0.008c0.417-0.523,0.676-1.184,1.148-1.818c0.045-0.105,0.07-0.225,0.117-0.355
	c0.043-0.129,0.107-0.271,0.17-0.461l0.094-0.051c0.016-0.076,0.043-0.168,0.076-0.266c0.024-0.104,0.051-0.211,0.076-0.314
	c0.057-0.211,0.072-0.391,0.035-0.457c0.251-0.303,0.098-1.465-0.018-1.994h-0.101c-0.017-0.182-0.094-0.35-0.155-0.531
	c-0.066-0.18-0.141-0.369-0.262-0.562l-0.07,0.059c-0.213-0.318-0.379-0.922-0.785-1.385c0.054,0.012,0.145,0.137,0.197,0.234
	c-0.154-0.34-0.42-0.635-0.728-0.848c-0.29-0.238-0.601-0.418-0.812-0.678c-0.152-0.064-0.242-0.141-0.324-0.223
	c0.012,0.008,0.023,0.014,0.035,0.02c-0.015-0.01-0.033-0.025-0.055-0.039c-0.051-0.053-0.102-0.111-0.164-0.168
	c0.049,0.057,0.092,0.109,0.135,0.148c-0.102-0.074-0.275-0.156-0.449-0.23l-0.024-0.121c-0.014-0.006-0.024-0.012-0.039-0.018
	c-0.146-0.123-0.149-0.033-0.097,0.076c-0.088-0.035-0.176-0.049-0.246-0.057c-0.074-0.199-0.459-0.154-0.6-0.361
	c-0.14,0.018-0.928-0.207-1.053-0.035c-0.002-0.021-0.055-0.039,0.043-0.027c-0.199-0.043-0.4-0.107-0.586-0.062l-0.08-0.121
	c0,0-0.453,0.137-0.449,0.15c-0.269-0.059-0.387-0.094-0.119-0.201C34.404,8.76,34.52,8.672,34,8.893l0.014-0.078
	c-0.197,0.023-0.473,0.211-0.602,0.174c-0.229-0.023-0.757,0.119-1.334,0.354c-0.582,0.227-1.209,0.551-1.724,0.777
	c0.304,0.086-0.5,0.174-0.44,0.354c-0.082-0.01-0.229,0.051-0.104-0.088c-0.448,0.354-0.762,0.406-0.986,0.764
	c-0.085-0.006,0.051-0.137-0.016-0.127c-0.03,0.037-0.117,0.146-0.184,0.156c-0.066,0.01,0.039-0.086,0.097-0.158
	c-0.46,0.361-0.396,0.533-0.331,0.678c-0.271,0.131-0.377,0.234-0.467,0.451c-0.108,0.033-0.273,0.109-0.016-0.15
	c-0.177,0.137-0.925,0.799-0.858,0.904c-0.067,0.018-0.204,0.188-0.231,0.232c-0.217,0.207-0.233,0.207-0.391,0.371
	c-0.007-0.006-0.031-0.025-0.061-0.051l0.058,0.082c-0.043,0.062-0.103,0.02-0.165-0.051c-0.063-0.07-0.125-0.162-0.225-0.244
	l0.016-0.004c-0.505-0.627-0.288-0.201-0.779-0.834l-0.033,0.098c-0.184,0.098-0.447-0.58-0.873-0.801l0.1,0.145
	c-0.239-0.104-0.402-0.652-0.604-0.822c-0.035-0.049,0.089,0.027,0.162,0.064c-0.491-0.492-0.143,0.047-0.577-0.213
	c-0.041-0.107,0.196-0.076-0.084-0.275c-0.119-0.141-0.952-0.342-1.311-0.658c0.069,0.096,0.134,0.186-0.093,0.111
	c-0.162-0.076-0.358-0.227-0.567-0.352c-0.203-0.131-0.42-0.234-0.604-0.215c-0.038-0.031-0.049-0.049-0.046-0.061
	c-0.27-0.076-0.879-0.227-1.06-0.191c-0.084-0.176-0.513-0.271-0.919-0.275c-0.402-0.029-0.771,0.006-0.76-0.143
	c0,0-0.218-0.004-0.435-0.01c-0.219,0.014-0.438,0.029-0.438,0.029l0.021-0.031c-0.563,0.033-0.75,0.146-0.921,0.266
	c-0.128,0.01-0.044-0.037-0.038-0.057c-0.802,0.15-0.888,0.227-1.425,0.645l-0.106-0.049c-0.062,0.08-0.348,0.168-0.662,0.367
	c-0.159,0.094-0.338,0.197-0.494,0.334c-0.16,0.133-0.321,0.271-0.437,0.438c-0.002-0.012-0.003-0.039,0.032-0.096
	c-0.137,0.186-0.315,0.355-0.497,0.525c-0.169,0.186-0.344,0.375-0.503,0.551c-0.282,0.385-0.502,0.742-0.39,0.975
	c0,0-0.039,0.145-0.076,0.289c-0.018,0.074-0.04,0.145-0.048,0.199c-0.007,0.055-0.012,0.094-0.012,0.094
	c0.294-0.695,0.094,0.15,0.263-0.115c-0.077,0.271-0.306,0.691-0.234,0.336l0.032-0.049c-0.071-0.092-0.149,0.131-0.223,0.371
	c-0.058,0.244-0.084,0.508-0.149,0.49l-0.038,0.281c-0.006,0.092-0.005,0.188-0.009,0.279l-0.013,0.557
	c0.037,0.369,0.028,0.732,0.108,1.102c0.129,0.732,0.4,1.418,0.75,2.029l0.042-0.209l0.243,0.416
	c0.037,0.127-0.005,0.209-0.181-0.092c0.02,0.205,0.373,0.451,0.405,0.439c0.337,0.588-0.288-0.123-0.173,0.051l0.171,0.227
	l-0.023-0.062c0.176,0.154,0.246,0.127,0.49,0.457c0.139,0.225,0.016,0.16,0.076,0.246c-0.007,0.002,0.011,0.033,0.1,0.121
	c0,0,0.096,0.115,0.192,0.232c0.096,0.117,0.199,0.227,0.199,0.227l-0.079-0.25c0.221,0.156,0.378,0.416,0.285,0.127
	c0.062,0.217,0.435,0.635,0.825,1.006c0.385,0.371,0.786,0.697,0.856,0.805c0.334,0.18,0.605,0.42,0.946,0.713
	c-0.071-0.09-0.041-0.23,0.246,0.031c-0.277,0.113,0.476,0.537,0.603,0.877c-0.141-0.27,0.882,0.66,0.648,0.248
	c0.241,0.215-0.045,0.088,0.109,0.289c0.667,0.395,1.295,1.09,2.063,1.641c0.033-0.018-0.059-0.156,0.132-0.072l0.287,0.443
	c0.157,0.1,0.259-0.053,0.452,0.254c-0.019-0.055-0.048-0.131,0.056-0.062c1.341,1.27,3.041,2.273,4.093,3.842
	c-0.124-0.227-0.003-0.109,0.13,0.025c-0.074-0.1,0.064-0.057,0.082-0.105l0.422,0.662c0.191,0.025,0.535,0.631,0.674,0.625
	l-0.165-0.184c0.32,0.168-0.034-0.561,0.134-0.643c-0.359-0.184-0.472-0.92-1.078-1.197c-0.068-0.125,0.124,0.039,0.105-0.043
	c-0.166-0.059-0.313-0.174-0.539-0.447l0.042,0.014c-0.726-0.662-0.986-1.002-1.792-1.754l0.002,0.123
	c-0.172-0.162-0.193-0.215-0.263-0.303c-0.298-0.066,0.505,0.43,0.215,0.391c-0.117-0.35-1.282-1.059-1.316-1.354
	c-0.283-0.225,0.017,0.15-0.267-0.076l-0.039-0.104h-0.119c-0.179-0.154-0.229-0.285-0.205-0.33c0.042,0.039,0.137,0.09,0.189,0.123
	c-0.201-0.242-0.699-0.516-0.769-0.596l0.252,0.242c-0.812-0.564-1.721-1.355-2.539-1.85l0.029,0.078
	c-0.618-0.387-0.428-0.395-1.067-0.867l0.029,0.01c-0.152-0.064-0.331-0.182-0.493-0.324c0.187,0.086-0.226-0.32,0.012-0.195
	c-0.654-0.438-0.337-0.197-0.837-0.41l-0.042-0.133c-0.175-0.068-0.208-0.053-0.516-0.305c0.283,0.172-0.113-0.248,0.212-0.068
	c-0.502-0.67-1.002-0.729-1.103-1.16c-0.409-0.133,0.422,0.584,0.243,0.463c0.081,0.174-0.33-0.115-0.496-0.318
	c-0.176-0.199-0.127-0.498-0.55-0.996c0.042,0.051,0.057,0.045,0.098,0.096c-0.124-0.215-0.354-0.33-0.473-0.615
	c-0.198-0.062-0.215-0.32-0.372-0.271c0,0,0.093,0.119,0.186,0.236c0.091,0.121,0.194,0.229,0.194,0.229
	c-0.123-0.119-0.261-0.223-0.403-0.359c-0.147-0.135-0.285-0.314-0.391-0.58c0.05,0.023,0.172,0.145,0.25,0.23
	c-0.044-0.164-0.191-0.254-0.234-0.424c0.155-0.031,0.398,0.605,0.711,0.828c-0.046-0.178-0.478-0.498-0.237-0.439
	c-0.155-0.051-0.232-0.191-0.314-0.352c-0.081-0.164-0.146-0.352-0.32-0.508l0.097-0.014c-0.045-0.053-0.133-0.166-0.181-0.283
	l0.196,0.158c-0.109-0.137-0.159-0.297-0.184-0.457c-0.018-0.164-0.039-0.32-0.105-0.467c0.194,0.639-0.064,0.174-0.045,0.473
	c-0.194-0.389-0.15-0.533-0.107-0.674c0.036-0.143,0.099-0.297,0.033-0.766c0.026,0.127-0.008,0.486-0.07,0.291
	c0.004-0.186,0.003-0.426,0.058-0.535c-0.011-0.621-0.096,0.096-0.151-0.168c0.125-0.213-0.06-0.312-0.059-0.596l0.095,0.008
	c0.079-0.348,0.036-0.404-0.006-0.451c-0.043-0.047-0.09-0.09,0.037-0.396l0.054,0.293l0.057-0.33l0.085,0.098
	c0.006-0.373,0.084-0.471,0.25-0.779c-0.047,0.023-0.081-0.004-0.088-0.076c-0.011-0.074,0.011-0.189,0.098-0.326
	c0.161-0.162,0.016,0.148,0.236-0.248c-0.004,0.121,0.007,0.252-0.17,0.375c0.017,0.033,0.001,0.111,0.02,0.145
	c0.178-0.162,0.294-0.486,0.393-0.615c-0.044,0.043-0.085,0.104-0.114,0.131c0,0,0.014-0.039,0.035-0.098
	c0.027-0.055,0.063-0.129,0.101-0.203c0.074-0.15,0.15-0.297,0.15-0.297c0.091-0.059,0.062,0.023,0.034,0.105
	c0.069-0.115,0.096-0.211,0.232-0.355c0.025,0.092,0.078,0.129-0.069,0.357c0,0,0.017-0.035,0.049-0.082
	c0.034-0.047,0.08-0.109,0.127-0.172c0.094-0.125,0.188-0.248,0.188-0.248c0.049-0.012,0.288-0.154,0.25-0.078
	c0.283-0.186,0.552-0.66,0.982-0.832c0.012-0.025,0.046-0.061,0.123-0.119c0.188-0.105,0.387-0.146,0.578-0.229
	c0.201-0.055,0.396-0.146,0.625-0.254l0.304,0.063c0.373-0.107-0.416-0.1,0.22-0.268c0.459-0.109,0.188,0.09,0.351,0.109
	c0.109-0.039,0.265-0.1,0.448-0.141c0.183-0.027,0.398-0.02,0.609,0.045C18.025,9.691,17.915,9.666,17.781,9.67z M22.526,11.223
	c-0.094-0.039-0.298-0.08-0.333-0.166C22.346,11.02,22.399,11.104,22.526,11.223z M28.947,11.805
	c-0.039,0.07-0.14,0.131-0.266,0.184C28.751,11.924,28.837,11.859,28.947,11.805z M39.162,20.4l0.004-0.012
	C39.348,20.238,39.283,20.293,39.162,20.4z M38.8,20.727c-0.024,0.045-0.012,0.051,0.012,0.045c0.006-0.043,0.079-0.121,0.168-0.207
	C38.939,20.574,38.884,20.607,38.8,20.727z M13.179,20.059l-0.042-0.09C13.296,20.115,13.239,20.084,13.179,20.059z M28.275,12.465
	c0.016,0.01,0.033,0.018,0.064,0.012C28.268,12.518,28.257,12.502,28.275,12.465z M37.067,22.557
	c0.065-0.037,0.119-0.059,0.224-0.164l-0.209,0.227C37.152,22.553,37.085,22.568,37.067,22.557z M36.343,22.811l-0.028,0.025
	c0.149-0.154,0.272-0.303,0.345-0.26C36.517,22.756,36.371,22.936,36.343,22.811z M36.132,23.002
	c0.052-0.039,0.102-0.084,0.147-0.133C36.199,22.955,36.144,23.053,36.132,23.002z M38.375,21.338
	c0.063-0.02-0.049-0.078,0.039-0.135C38.771,20.766,38.365,21.49,38.375,21.338z M36.514,22.381l-0.035,0.139l-0.124-0.021
	L36.514,22.381z M37.332,21.709c0.035-0.041,0.059-0.078,0.043-0.086l0.265-0.217C37.667,21.42,37.487,21.566,37.332,21.709z
	 M37.142,21.908c0.033-0.053,0.109-0.127,0.189-0.199C37.276,21.779,37.185,21.867,37.142,21.908z M36.953,21.951l-0.183,0.16
	l-0.088,0.053L36.953,21.951z M40.098,18.678l0.187-0.328c-0.007-0.047-0.082,0.023-0.146,0.146
	C40.107,18.584,40.041,18.707,40.098,18.678z M39.833,18.537c-0.006-0.049,0.213-0.49-0.035-0.105
	C39.808,18.482,39.607,18.789,39.833,18.537z M41.099,13.396l0.029,0.088l0.189-0.062L41.099,13.396z M23.025,11.85l0.034-0.012
	c-0.016-0.053-0.068-0.09-0.171-0.164L23.025,11.85z M19.811,10.133l0.059,0.02l-0.077-0.145L19.811,10.133z M16.912,9.961
	c0.114-0.016,0.245-0.059,0.362-0.053C17.025,9.932,16.863,9.832,16.912,9.961z"/>
<path fill="#FFFFFF" d="M14.866,53.838c0,0.027-0.027,0.054-0.067,0.065c-0.134,0.039-0.281,0.08-0.441,0.08
	c-0.147,0.804-0.562,1.539-1.231,2.207c-0.655,0.656-1.364,1.019-2.1,1.084c-0.174,0.015-0.481-0.2-0.616-0.575
	c-0.013-0.041-0.026-0.134-0.026-0.228c0-0.723,0.107-1.432,0.334-2.1c0.026-0.068,0.014-0.096-0.026-0.107
	c-0.054-0.026-0.094,0-0.134,0.053c-0.87,1.189-1.592,2.033-2.181,2.517c-0.281,0.24-0.535,0.36-0.722,0.334
	c-0.107,0-0.361-0.24-0.348-0.36c0.066-0.414,0.428-1.07,1.057-2.007c0.629-0.924,0.95-1.473,0.99-1.633
	c0.013-0.065,0.066-0.094,0.174-0.094c0.133,0,0.2,0.053,0.2,0.159c0,0.041-0.013,0.095-0.04,0.146
	c-0.04,0.094-0.348,0.59-0.923,1.486c-0.415,0.656-0.696,1.178-0.816,1.539c-0.013,0.041-0.027,0.094-0.027,0.133
	c0,0.135,0.041,0.188,0.147,0.188c0.04,0,0.107-0.014,0.147-0.053c0.388-0.281,0.91-0.83,1.592-1.633
	c0.575-0.695,0.963-1.203,1.19-1.566c0.081-0.188,0.214-0.399,0.388-0.682c0.067-0.066,0.294-0.094,0.429-0.094
	c0.08,0.014,0.107,0.027,0.093,0.08c-0.188,0.295-0.361,0.75-0.548,1.379c-0.214,0.723-0.321,1.338-0.321,1.887
	c0,0.133,0,0.24,0.014,0.348c0.041,0.441,0.241,0.629,0.575,0.547c0.481-0.104,0.977-0.491,1.445-1.096
	c0.468-0.615,0.722-1.258,0.763-1.939c-0.228-0.055-0.401-0.295-0.375-0.389c0.014-0.119,0.214-0.281,0.375-0.281
	c0.147,0,0.294,0.162,0.441,0.496c0.107,0.039,0.281,0.054,0.521,0.054C14.839,53.783,14.866,53.81,14.866,53.838z M6.059,53.476
	c-0.602-0.802-1.311-1.777-2.18-2.941c-0.509-0.67-0.776-1.285-0.776-1.834c0-0.588,0.307-1.096,0.936-1.496
	c1.311-0.844,2.863-1.271,4.642-1.271c0.656,0,1.191,0.053,1.619,0.199c0.334,0.107,0.615,0.334,0.843,0.604
	c0.214,0.32,0.334,0.683,0.334,1.082c0,0.255-0.04,0.509-0.147,0.775c-0.041,0.107-0.081,0.162-0.107,0.189
	c-0.027,0.053-0.04,0.053-0.054,0c-0.013-0.068,0.054-0.375,0.054-0.67c0-0.455-0.134-0.844-0.375-1.15
	c-0.228-0.281-0.535-0.482-0.923-0.59c-0.455-0.133-1.003-0.186-1.605-0.186c-1.632,0-2.983,0.399-4.067,1.188
	c-0.522,0.39-0.802,0.844-0.802,1.365c0,0.428,0.228,0.977,0.655,1.618C4.628,51,5.444,52.031,6.514,53.449
	c0.308,0,0.75,0,1.298-0.015c0.107,0,0.147,0.015,0.147,0.056c0,0.053-0.161,0.063-0.481,0.079
	c-0.468,0.015-0.722,0.025-0.816,0.039c0.254,0.429,0.374,0.855,0.374,1.285c0,0.896-0.481,1.537-1.431,1.939
	c-0.816,0.334-1.686,0.521-2.609,0.521c-0.682,0-1.285-0.095-1.766-0.269c-0.735-0.254-1.097-0.67-1.097-1.229
	c0-0.523,0.388-0.949,1.177-1.299C2.554,54.022,4.146,53.638,6.059,53.476z M4.106,53.998c-1.043,0.213-1.913,0.494-2.609,0.854
	c-0.749,0.375-1.136,0.775-1.136,1.179c0,0.198,0.12,0.387,0.347,0.59c0.174,0.146,0.361,0.239,0.548,0.293
	c0.521,0.133,1.03,0.188,1.579,0.188c0.936,0,1.806-0.215,2.595-0.603c0.789-0.401,1.191-0.951,1.191-1.619
	c0-0.43-0.147-0.844-0.455-1.219C5.296,53.771,4.601,53.892,4.106,53.998z M19.62,53.998c-0.589,0.094-2.542,0.08-3.599,0.08
	c-0.401,0.603-0.937,1.471-0.99,2.396c-0.04,0.868,0.428,1.069,0.883,1.018c0.575-0.068,1.311-0.402,1.779-0.711
	c0.147-0.105,0.254,0,0.107,0.096c-0.388,0.32-1.124,0.814-1.766,0.936c-0.535,0.095-1.352-0.562-1.325-1.338
	c0.094-2.127,2.207-4.481,3.425-4.99c0.668-0.28,1.057,0.709,0.776,1.271c-0.281,0.535-1.003,0.951-1.873,1.099
	c0.963,0,2.02,0,2.583-0.08c0.388-0.054,0.815-0.308,1.003-0.508c0.094-0.136,0.188-0.08,0.107,0.055
	C20.569,53.528,20.128,53.918,19.62,53.998z M18.108,51.978c-0.669,0.416-1.352,1.149-1.94,1.873c0.923,0,2.007-0.521,2.421-1.218
	C18.978,52.004,18.615,51.656,18.108,51.978z M23.902,54.158c-0.602,0.094-2.595,0.094-3.665,0.094
	c-0.401,0.535-0.95,1.338-1.003,2.181c-0.041,0.791,0.441,0.977,0.896,0.924c0.588-0.066,1.324-0.361,1.806-0.644
	c0.147-0.08,0.254-0.014,0.107,0.095c-0.375,0.268-1.138,0.723-1.793,0.844c-0.535,0.094-1.365-0.521-1.338-1.219
	c0.093-1.953,2.221-4.119,3.465-4.589c0.669-0.254,1.097,0.669,0.803,1.189c-0.281,0.495-1.03,0.856-1.913,0.989
	c0.977,0,2.06,0,2.635-0.065c0.375-0.039,0.803-0.281,1.017-0.467c0.08-0.121,0.188-0.068,0.094,0.053
	C24.839,53.729,24.397,54.092,23.902,54.158z M22.35,52.324c-0.655,0.375-1.364,1.045-1.967,1.698c0.938,0,2.047-0.469,2.475-1.108
	C23.233,52.34,22.886,52.031,22.35,52.324z M22.085,63.896c-0.468-0.52-0.548-1.176-0.548-1.938c0-1.271,0.521-3.076,1.538-5.404
	c0.896-2.061,1.82-3.719,2.729-5.03c0.12-0.133,0.161-0.254,0.161-0.4c0-0.16-0.067-0.281-0.241-0.375
	c-0.334-0.133-0.442-0.281-0.375-0.414c0.054-0.107,0.549-0.16,1.392-0.16c0.066,0-0.04-0.066,0-0.121
	c0.842-1.324,2.034-2.648,3.25-4.066c0.066-0.079,0.32-0.188,0.75-0.348c0.428-0.146,0.547-0.229,0.762-0.229
	c0.106,0,0.146,0.055,0.146,0.121c0,0.053-0.041,0.066-0.134,0.094c-0.843,0.174-2.222,1.58-4.161,4.24
	c-0.133,0.188-0.107,0.309,0.094,0.309h1.939c1.043,0,1.619,0.014,1.766,0.014c0.094,0,0.135,0.013,0.161,0.039
	c0,0.027-0.108,0.254-0.269,0.269c-1.017,0.041-2.327,0.135-3.986,0.215c-0.147,0.026-0.268,0.104-0.334,0.213
	c-0.936,1.394-1.779,2.703-2.568,4.31c-1.244,2.526-1.953,4.629-2.1,6.272c-0.014,0.229-0.014,0.431-0.014,0.644
	c0,1.551,0.549,2.328,1.646,2.328c0.308,0,0.642-0.039,1.043-0.175c1.111-0.348,2.208-1.125,3.358-2.342s1.793-2.301,1.939-3.25
	c0-0.83-0.308-1.205-0.896-1.11c-0.268,0.041-0.467,0.215-0.561,0.215c-0.082,0-0.121-0.056-0.107-0.121
	c0.08-0.146,0.201-0.229,0.668-0.414c0.054-0.014,0.107-0.014,0.162-0.014c0.293,0,0.548,0.174,0.815,0.573
	c0.255,0.39,0.401,0.711,0.375,0.91c-0.161,1.178-1.03,2.463-2.555,3.84c-1.539,1.392-2.89,2.113-4.081,2.113
	C23.142,64.699,22.554,64.406,22.085,63.896z M29.46,54.705c0.201-0.146,0.334-0.24,0.468-0.267c0.094-0.014,0.2-0.026,0.294-0.026
	c0.455,0,1.109,0.16,1.953,0.521c0.107,0.041,0.695,0.32,1.779,0.83c0.534-1.432,0.989-2.529,1.338-3.318
	c0.842-1.911,1.604-3.225,2.287-3.934c0.188-0.199,0.455-0.4,0.844-0.615c0.481-0.268,0.896-0.387,1.244-0.399
	c1.057-0.027,1.979,0.815,2.461,2.301c0.014,0.054,0.041,0.095,0.041,0.136c0,0.08-0.041,0.118-0.08,0.118
	c-0.041,0-0.094-0.039-0.135-0.147c-0.213-0.574-0.562-1.057-1.002-1.484c-0.429-0.414-0.871-0.654-1.312-0.695
	c-0.55-0.053-1.151,0.269-1.793,0.99c-0.695,0.777-1.472,2.115-2.328,3.986c-0.241,0.535-0.683,1.594-1.324,3.197
	c0.708,0.375,1.417,0.776,2.128,1.164c1.311,0.694,2.5,1.258,3.571,1.672c1.485,0.59,2.756,0.883,3.799,0.91
	c0.804,0.014,1.485-0.188,2.048-0.615c0.467-0.359,0.909-1.244,0.977-2.088c0.027-0.146,0.053-0.228,0.094-0.228
	c0.04,0,0.08,0.08,0.08,0.242c0,0.414-0.107,0.854-0.294,1.323c-0.2,0.468-0.414,0.789-0.683,0.988
	c-0.16,0.094-0.428,0.215-0.828,0.322c-0.469,0.135-0.924,0.188-1.365,0.199c-2.047,0.055-5.285-1.096-9.713-3.41
	c-0.133,0.4-0.36,0.736-0.695,1.029c-0.32,0.281-0.643,0.441-0.977,0.455c-0.67,0.014-1.352-0.32-2.088-1.002
	c-0.668-0.644-1.057-1.191-1.097-1.688C29.139,55.041,29.246,54.881,29.46,54.705z M33.753,56.271
	c-1.631-0.789-2.862-1.244-3.678-1.362c-0.334-0.041-0.509,0.039-0.509,0.293c0,0.094,0.027,0.188,0.067,0.295
	c0.254,0.588,0.654,1.098,1.23,1.551c0.535,0.414,1.03,0.631,1.484,0.644C33.005,57.703,33.473,57.233,33.753,56.271z
	 M37.787,57.008c0.012-0.723,0.602-1.819,1.791-3.276c0.027-0.056,0.014-0.107-0.027-0.121c-0.16-0.094-0.36-0.213-0.36-0.322
	c0-0.053-0.026-0.172,0.388-0.186c0.334-0.015,0.496-0.027,0.508-0.015c0.027,0,0.082-0.014,0.148-0.055
	c0.2-0.187,0.389-0.281,0.588-0.293c0.147-0.015,0.348,0.094,0.604,0.239c0.027,0.015,0.053,0.041,0.094,0.054
	c0.4,0.014,0.99,0.028,1.738,0.055c0.134,0,0.201,0.027,0.201,0.054c0,0.041-0.066,0.08-0.201,0.08c-0.28,0-0.454,0.055-0.535,0.159
	c-0.014,0.027-0.014,0.056,0,0.082c0.014,0.054,0.041,0.106,0.041,0.146c-0.055,0.668-0.575,1.445-1.633,2.355
	c-1.043,0.896-1.952,1.418-2.741,1.525C38.132,57.528,37.787,57.289,37.787,57.008z M38.121,57.074c0,0.215,0.147,0.295,0.428,0.239
	c0.603-0.092,1.324-0.521,2.182-1.311c0.896-0.803,1.404-1.525,1.538-2.166c0.067-0.283-0.12-0.43-0.509-0.469
	c-0.428-0.053-0.803,0-1.125,0.121c-0.025-0.016-0.105,0.039-0.227,0.119c-0.949,0.883-1.686,1.938-2.207,3.17
	C38.147,56.875,38.121,56.979,38.121,57.074z M42.511,56.778c0.227-1.002,0.896-2.26,1.992-3.771
	c0.027-0.039,0.08-0.055,0.135-0.055c0.133,0,0.214,0.055,0.214,0.174c0,0.026-0.026,0.056-0.041,0.095
	c-0.804,1.271-1.312,2.274-1.513,2.997c-0.026,0.107-0.039,0.199-0.039,0.281c0,0.187,0.066,0.293,0.199,0.293
	c0.108,0,0.215-0.065,0.334-0.16c0.375-0.307,0.883-0.936,1.565-1.846c0.455-0.615,0.896-1.231,1.338-1.847
	c0.054-0.082,0.081-0.336,0.201-0.67c0.253-0.188,0.429-0.321,0.548-0.387c0.08-0.041,0.374,0.213,0.321,0.268
	c-0.255,0.359-0.375,0.627-0.361,0.802c0.013,0.121,0.067,0.2,0.173,0.28c0.027,0.015,0.041,0.041,0.041,0.068
	c0,0.094-0.054,0.119-0.188,0.094c-0.188-0.055-0.334-0.108-0.428-0.201c-0.041-0.041-0.082,0-0.162,0.107
	c-0.293,0.441-0.721,1.002-1.297,1.684c-0.655,0.777-1.203,1.341-1.658,1.74c-0.215,0.188-0.415,0.295-0.575,0.295
	c0,0-0.054,0.039-0.161,0.08c-0.041,0.015-0.134,0.027-0.254,0.015C42.685,57.103,42.458,56.914,42.511,56.778z M51.917,54.158
	c-0.603,0.094-2.596,0.094-3.666,0.094c-0.4,0.535-0.949,1.338-1.002,2.181c-0.041,0.791,0.441,0.977,0.896,0.924
	c0.588-0.066,1.324-0.361,1.806-0.644c0.147-0.08,0.254-0.014,0.107,0.095c-0.375,0.268-1.137,0.723-1.792,0.844
	c-0.536,0.094-1.365-0.521-1.338-1.219c0.093-1.953,2.22-4.119,3.464-4.589c0.669-0.254,1.097,0.669,0.803,1.189
	c-0.281,0.495-1.029,0.856-1.914,0.989c0.979,0,2.061,0,2.637-0.065c0.373-0.039,0.803-0.281,1.017-0.467
	c0.08-0.121,0.188-0.068,0.094,0.053C52.854,53.729,52.414,54.092,51.917,54.158z M50.367,52.324
	c-0.656,0.375-1.365,1.045-1.968,1.698c0.937,0,2.046-0.469,2.476-1.108C51.25,52.34,50.901,52.031,50.367,52.324z"/>
</svg>
