<?xml version="1.0" encoding="utf-8"?>
<!-- Generator: Adobe Illustrator 17.0.0, SVG Export Plug-In . SVG Version: 6.00 Build 0)  -->
<!DOCTYPE svg PUBLIC "-//W3C//DTD SVG 1.1//EN" "http://www.w3.org/Graphics/SVG/1.1/DTD/svg11.dtd">
<svg version="1.1" id="Objects" xmlns="http://www.w3.org/2000/svg" xmlns:xlink="http://www.w3.org/1999/xlink" x="0px" y="0px"
	 width="287px" height="150px" viewBox="0 0 287 150" enable-background="new 0 0 287 150" xml:space="preserve">
<path fill="#FFF6E1" d="M0,0v150h287V0H0z M25.67,86.103c-6.706,0-12.145-5.438-12.145-12.145c0-6.706,5.438-12.145,12.145-12.145
	s12.145,5.438,12.145,12.145C37.815,80.664,32.377,86.103,25.67,86.103z"/>
<path fill="#42B29C" d="M92.4,9.266l9.678-4.61L92-0.062L85.43,0l-0.175,150L92,150.021l9.88-5.311l-9.591-4.727l9.683-4.61
	l-9.673-4.728l9.681-4.609l-9.673-4.726l9.681-4.61l-9.674-4.729l9.683-4.607l-9.674-4.729l9.682-4.607l-9.673-4.73l9.682-4.609
	l-9.674-4.728l9.681-4.608l-9.673-4.727l9.682-4.61l-9.675-4.728l9.684-4.61l-9.675-4.726l9.683-4.61l-9.674-4.727l9.683-4.611
	l-9.675-4.727l9.682-4.609L92.39,27.94l9.682-4.61l-9.676-4.726l9.682-4.612L92.4,9.266z M0,0v150h85L84.94,0H0z M26.244,86.088
	C19.546,85.998,13.92,81.45,13.92,74.75c0-6.71,5.44-12.15,12.14-12.15c6.71,0,12.013,5.365,11.734,12.069
	C37.583,79.75,32.083,86.166,26.244,86.088z"/>
<path fill="#FFF6E1" d="M25.875,55.41c-10.356,0-18.75,8.396-18.75,18.75s8.394,18.75,18.75,18.75c10.353,0,18.75-8.396,18.75-18.75
	S36.228,55.41,25.875,55.41z M25.875,85.699c-6.372,0-11.539-5.166-11.539-11.538s5.167-11.539,11.539-11.539
	s11.537,5.167,11.537,11.539C37.412,80.532,32.247,85.699,25.875,85.699z"/>
</svg>
