<?xml version="1.0" encoding="iso-8859-1"?>
<!-- Generator: Adobe Illustrator 17.0.0, SVG Export Plug-In . SVG Version: 6.00 Build 0)  -->
<!DOCTYPE svg PUBLIC "-//W3C//DTD SVG 1.1//EN" "http://www.w3.org/Graphics/SVG/1.1/DTD/svg11.dtd">
<svg version="1.1" id="artwork" xmlns="http://www.w3.org/2000/svg" xmlns:xlink="http://www.w3.org/1999/xlink" x="0px" y="0px"
	 width="16.207px" height="77.625px" viewBox="0 0 16.207 77.625" style="enable-background:new 0 0 16.207 77.625;"
	 xml:space="preserve">
<g>
	<path style="fill:#87C98A;" d="M6.701,32.881c-0.413-0.609-1.303-0.652-1.841-0.151l-0.181,0.167
		c0.48-0.004,0.983,0.263,1.308,0.746c0.352,0.526,0.385,1.132,0.159,1.577c0.215-0.093,0.439-0.253,0.669-0.444
		c0.075-0.063,0.171-0.19,0.193-0.286c0.112-0.458-0.013-1.162-0.299-1.594C6.707,32.891,6.704,32.886,6.701,32.881z"/>
	<g>
		<path style="fill:#FDD5AE;" d="M1.298,17.312c0,0-0.731,0.369-0.873,1.886c-0.141,1.517-0.74,8.078-0.211,10.089
			c0,0,1.552,0.282,1.94-0.917c0.389-1.2,0.988-8.325,0.988-8.325l-0.07-0.635L1.298,17.312z"/>
		<path style="fill:#FDD5AE;" d="M14.906,17.312l-1.772,2.098l-0.071,0.635c0,0,0.6,7.125,0.988,8.325
			c0.388,1.199,1.939,0.917,1.939,0.917c0.529-2.011-0.07-8.572-0.211-10.089C15.637,17.681,14.906,17.312,14.906,17.312z"/>
		<polygon style="fill:#7A0B0C;" points="1.008,68.187 5.383,68.187 2.008,36.187 		"/>
		<path style="fill:#7A0B0C;" d="M3.829,71.375c-1.277,0-2.312,1.937-2.312,3.662c0,1.727,1.035,2.588,2.312,2.588
			c1.277,0,2.313-0.861,2.313-2.588C6.141,73.312,5.106,71.375,3.829,71.375z"/>
		<path style="fill:#B3171B;" d="M3.829,70.75c-1.277,0-2.312,1.937-2.312,3.662C1.516,76.139,2.551,77,3.829,77
			c1.277,0,2.313-0.861,2.313-2.588C6.141,72.687,5.106,70.75,3.829,70.75z"/>
		<ellipse style="fill:#FDD5AE;" cx="3.829" cy="73.125" rx="1.758" ry="2.375"/>
		<polygon style="fill:#FDD5AE;" points="2.53,56.739 2.53,73.21 5.127,73.21 5.127,42.678 2.008,37.562 		"/>
		<rect x="2.433" y="71.003" style="fill:#B3171B;" width="2.757" height="0.44"/>
		<rect x="2.433" y="70.426" style="fill:#B3171B;" width="2.757" height="0.44"/>
		<path style="fill:#7A0B0C;" d="M11.329,71.375c-1.277,0-2.312,1.937-2.312,3.662c0,1.727,1.035,2.588,2.312,2.588
			c1.277,0,2.313-0.861,2.313-2.588C13.641,73.312,12.606,71.375,11.329,71.375z"/>
		<path style="fill:#B3171B;" d="M11.329,70.75c-1.277,0-2.312,1.937-2.312,3.662c0,1.727,1.035,2.588,2.312,2.588
			c1.277,0,2.313-0.861,2.313-2.588C13.641,72.687,12.606,70.75,11.329,70.75z"/>
		<ellipse style="fill:#FDD5AE;" cx="11.329" cy="73.125" rx="1.758" ry="2.375"/>
		<polygon style="fill:#FDD5AE;" points="10.03,56.739 10.03,73.21 12.627,73.21 12.627,42.678 9.177,41.824 		"/>
		<rect x="9.933" y="71.003" style="fill:#B3171B;" width="2.757" height="0.44"/>
		<rect x="9.933" y="70.426" style="fill:#B3171B;" width="2.757" height="0.44"/>
		<rect x="6.542" y="12.272" style="fill:#E4B58F;" width="2.75" height="4.826"/>
		<path style="fill:#B3171B;" d="M15.388,16.932l-1.88-0.37l-0.28-0.05l-1.75-0.34h-6.56l-3.91,0.76l1.95,2.601l0.14,0.79
			c-0.02,0.109-0.05,0.26-0.1,0.42c-0.14,0.54-0.36,1.31-0.36,1.859c0,0.011,0,0.021,0,0.021c0,0.22,0.03,0.399,0.11,0.519
			l0.62,1.33l0.28,0.61l-0.08,2.79l-0.771,2.35l-0.78,2.37c-0.1,0.41-0.18,0.83-0.239,1.26c-0.08,0.45-0.13,0.91-0.17,1.37
			c-0.051,0.51-0.07,1.01-0.07,1.521v0.37l2.689,26.51l0.03,0.26l0.5,4.93c2.04,1.28,5.55,0.95,9.63,0l0.011-0.77v-0.25l0.449-30.68
			c0.02-0.96-0.04-1.931-0.18-2.881c-0.07-0.55-0.17-1.1-0.29-1.64l-0.65-1.99l-0.899-2.729l-0.08-2.79l0.89-1.94
			c0.351-0.55-0.23-2.18-0.35-2.819l0.149-0.79L15.388,16.932z"/>
		<path style="fill:#FDD5AE;" d="M7.937,4.386c-2.089,0-3.782,2.275-3.782,4.364c0,2.088,1.693,3.199,3.782,3.199
			c2.088,0,3.781-1.111,3.781-3.199C11.718,6.661,10.025,4.386,7.937,4.386z"/>
		<path style="fill:#FDD5AE;" d="M7.937,4.386c-2.089,0-3.782,2.275-3.782,4.364c0,2.088,1.693,5.914,3.782,5.914
			c2.088,0,3.781-3.826,3.781-5.914C11.718,6.661,10.025,4.386,7.937,4.386z"/>
		<g>
			<ellipse style="fill:#FDD5AE;" cx="11.234" cy="10.01" rx="0.97" ry="1.455"/>
			<ellipse style="fill:#FDD5AE;" cx="4.64" cy="10.01" rx="0.97" ry="1.455"/>
		</g>
		<path style="fill:#231F20;" d="M7.937,2.641c-2.161,0-3.93,1.769-3.93,3.93v2.273c0,0.672,0.171,1.307,0.472,1.861
			c-0.002-0.054-0.008-0.107-0.008-0.162V9.208c0-1.782,1.459-3.241,3.241-3.241h0.449c1.782,0,3.241,1.459,3.241,3.241v1.334
			c0,0.055-0.006,0.108-0.009,0.162c0.301-0.555,0.473-1.189,0.473-1.861V6.57C11.867,4.409,10.098,2.641,7.937,2.641z"/>
		<g>
			<circle style="fill:#FBB040;" cx="11.822" cy="17.422" r="0.209"/>
			<circle style="fill:#FBB040;" cx="11.822" cy="18.006" r="0.208"/>
			<circle style="fill:#FBB040;" cx="11.255" cy="17.989" r="0.208"/>
			<circle style="fill:#FBB040;" cx="9.687" cy="20.082" r="0.208"/>
			<circle style="fill:#FBB040;" cx="10.821" cy="20.082" r="0.208"/>
			<circle style="fill:#FBB040;" cx="12.192" cy="21.537" r="0.208"/>
			<circle style="fill:#FBB040;" cx="12.758" cy="22.103" r="0.209"/>
			<circle style="fill:#FBB040;" cx="9.05" cy="26.195" r="0.209"/>
			<circle style="fill:#FBB040;" cx="9.05" cy="25.061" r="0.208"/>
			<circle style="fill:#FBB040;" cx="9.618" cy="25.628" r="0.208"/>
			<circle style="fill:#FBB040;" cx="13.133" cy="34.511" r="0.209"/>
			<path style="fill:#FBB040;" d="M13.228,16.512c0.051,0.16,0.08,0.351,0.04,0.57c-0.062,0.353-0.303,0.68-0.7,0.978
				c0.01-0.024,0.029-0.043,0.029-0.071c0-0.115-0.093-0.209-0.209-0.209c-0.114,0-0.208,0.094-0.208,0.209
				c0,0.109,0.086,0.193,0.193,0.202c-0.057,0.036-0.104,0.075-0.165,0.11c-0.076,0.046-0.152,0.088-0.229,0.133
				c-0.038-0.05-0.091-0.087-0.158-0.087c-0.115,0-0.209,0.094-0.209,0.209c0,0.027,0.02,0.047,0.029,0.071
				c-0.499,0.283-0.93,0.539-1.208,0.819c-0.03-0.078-0.092-0.141-0.181-0.141c-0.115,0-0.208,0.094-0.208,0.209
				c0,0.104,0.08,0.181,0.179,0.196c-0.043,0.074-0.074,0.151-0.095,0.23c-0.049,0.038-0.084,0.091-0.084,0.157
				c0,0.061,0.027,0.113,0.068,0.151c0.011,0.072,0.031,0.147,0.061,0.223c-0.072,0.033-0.13,0.092-0.13,0.177
				c0,0.115,0.093,0.208,0.208,0.208c0.044,0,0.078-0.023,0.111-0.046c0.243,0.325,0.656,0.681,1.255,1.084
				c-0.112,0.004-0.204,0.094-0.204,0.207c0,0.115,0.094,0.209,0.209,0.209c0.115,0,0.209-0.094,0.209-0.209
				c0-0.037-0.023-0.064-0.039-0.094c0.064,0.041,0.127,0.083,0.194,0.125c0.008,0.103,0.087,0.183,0.191,0.189
				c0.019,0.039,0.033,0.091,0.042,0.15c-0.012-0.002-0.019-0.013-0.029-0.013c-0.115,0-0.209,0.094-0.209,0.209
				c0,0.102,0.077,0.175,0.174,0.194c-0.116,0.274-0.398,0.638-1.028,1.087c-0.25,0.17-0.53,0.359-0.83,0.569
				c-0.451,0.306-0.931,0.635-1.392,0.975c-0.001,0.001-0.003,0.002-0.005,0.004c-0.076,0.057-0.152,0.113-0.227,0.17
				c0.004-0.016,0.018-0.025,0.018-0.042c0-0.115-0.094-0.208-0.209-0.208c-0.115,0-0.208,0.093-0.208,0.208
				c0,0.108,0.084,0.191,0.189,0.201c-0.962,0.754-1.744,1.549-1.806,2.283c-0.03,0.33,0.09,0.63,0.35,0.88
				c1.43,1.38,5.26,5.45,5.3,5.489l0.02,0.03l0.03,0.01c0,0,0.019,0.007,0.037,0.015c0.05,0.108,0.082,0.228,0.079,0.358
				c0,0.005-0.002,0.01-0.002,0.014c-0.065,0.035-0.115,0.091-0.115,0.17c0,0.053,0.023,0.098,0.056,0.135
				c-0.047,0.156-0.116,0.319-0.231,0.502c-0.169,0.269-0.333,0.441-0.517,0.545c-0.221,0.123-0.478,0.132-0.654,0.02
				c-0.163-0.104-0.263-0.321-0.248-0.541c0.011-0.173,0.091-0.327,0.208-0.403c0.122-0.08,0.292-0.063,0.374,0.03
				c0.028,0.034,0.037,0.104,0.021,0.176c-0.016,0.066-0.047,0.106-0.051,0.111c-0.004-0.001-0.015-0.008-0.031-0.027
				c-0.046-0.053-0.124-0.058-0.177-0.015c-0.053,0.045-0.059,0.124-0.015,0.177c0.102,0.119,0.206,0.12,0.261,0.111
				c0.104-0.02,0.191-0.107,0.238-0.241c0.045-0.127,0.058-0.322-0.057-0.455c-0.164-0.188-0.47-0.226-0.699-0.077
				c-0.186,0.12-0.306,0.344-0.322,0.598c-0.021,0.312,0.122,0.613,0.364,0.768c0.122,0.078,0.271,0.116,0.424,0.116
				c0.162,0,0.332-0.043,0.486-0.128c0.223-0.125,0.415-0.326,0.605-0.631c0.136-0.216,0.214-0.411,0.267-0.6
				c0.065-0.035,0.115-0.091,0.115-0.17c0-0.054-0.024-0.101-0.058-0.139c0.001-0.013,0.008-0.027,0.008-0.041
				c0.001-0.035-0.009-0.067-0.012-0.101c0.026,0.036,0.055,0.069,0.075,0.115c0.11,0.28,0.05,0.66-0.2,1.13
				c-0.22,0.4-0.5,0.89-0.8,1.4c-0.076,0.13-0.153,0.261-0.23,0.392c-0.038-0.051-0.091-0.09-0.159-0.09
				c-0.115,0-0.209,0.094-0.209,0.209c0,0.106,0.082,0.185,0.184,0.198c-0.599,1.034-1.123,2.002-1.156,2.49
				c-0.01,0.181-0.03,0.4-0.06,0.641c-0.083,0.764-0.177,1.69,0.025,2.335c0,0.136,0.027,0.264,0.085,0.378
				c0.03,0.176,0.038,0.389-0.008,0.661c-0.009,0.009-0.023,0.013-0.028,0.024c-0.2,0.415-0.604,0.792-1.15,0.608
				c-0.336-0.114-0.532-0.464-0.576-0.76c-0.029-0.196,0.021-0.485,0.173-0.658c0.078-0.088,0.175-0.117,0.287-0.13
				c0.127,0.004,0.251,0.086,0.303,0.202c0.052,0.114,0.031,0.263-0.049,0.359c-0.033,0.039-0.07,0.063-0.105,0.072
				c-0.024,0.004-0.056-0.002-0.064-0.021c-0.025-0.063-0.102-0.096-0.162-0.07c-0.064,0.025-0.096,0.099-0.07,0.162
				c0.052,0.132,0.199,0.199,0.344,0.173c0.093-0.018,0.179-0.072,0.249-0.156c0.143-0.171,0.177-0.421,0.086-0.622
				c-0.091-0.203-0.302-0.344-0.524-0.35c-0.183-0.003-0.353,0.069-0.481,0.215c-0.212,0.24-0.27,0.614-0.233,0.86
				c0.068,0.445,0.367,0.831,0.744,0.959c0.119,0.041,0.238,0.061,0.356,0.061c0.276,0,0.532-0.121,0.75-0.326
				c-0.317,0.958-1.061,2.154-2.424,3.072c-0.071,0.004-0.122,0.045-0.157,0.102c-0.066,0.042-0.139,0.081-0.207,0.121
				c0.002-0.013,0.014-0.021,0.014-0.034c0-0.115-0.093-0.209-0.208-0.209c-0.115,0-0.209,0.094-0.209,0.209
				c0,0.092,0.066,0.155,0.148,0.184c-0.03,0.016-0.056,0.034-0.086,0.05c-0.022,0.002-0.043,0.001-0.062,0.015
				c-0.022,0.017-0.036,0.041-0.057,0.058c-0.004,0.002-0.007,0.004-0.011,0.006c-0.368,0.182-0.68,0.422-0.961,0.689
				C5.538,49.729,5.094,49.888,4.8,49.8c-0.269-0.079-0.376-0.329-0.415-0.472c-0.088-0.316-0.017-0.692,0.168-0.893
				c0.106-0.116,0.272-0.172,0.432-0.139c0.146,0.027,0.26,0.121,0.314,0.256c0.03,0.08-0.029,0.212-0.132,0.289
				c-0.035,0.025-0.125,0.08-0.197,0.027c-0.055-0.043-0.133-0.033-0.175,0.023c-0.043,0.055-0.032,0.133,0.023,0.175
				c0.142,0.11,0.332,0.1,0.499-0.024c0.17-0.126,0.298-0.366,0.215-0.58c-0.085-0.218-0.268-0.367-0.5-0.411
				c-0.238-0.047-0.496,0.036-0.661,0.215c-0.243,0.265-0.336,0.729-0.226,1.13c0.091,0.326,0.304,0.562,0.586,0.646
				c0.078,0.022,0.164,0.032,0.255,0.032c0.152,0,0.315-0.033,0.481-0.084c-0.408,0.548-0.681,1.205-0.777,1.963
				c-0.139,1.16,0.14,2.42,0.688,3.338c-0.089,0.024-0.16,0.093-0.16,0.188c0,0.115,0.094,0.209,0.209,0.209
				c0.069,0,0.122-0.039,0.16-0.092c0.148,0.202,0.307,0.388,0.483,0.536c0.616,0.517,0.9,1.75,0.772,3.105
				c-0.066,0.3-0.2,0.563-0.402,0.736C6.2,60.181,5.87,60.262,5.596,60.179c-0.213-0.065-0.393-0.227-0.479-0.434
				c-0.087-0.207-0.077-0.448,0.026-0.646c0.072-0.14,0.188-0.248,0.318-0.296c0.136-0.047,0.288-0.028,0.389,0.055
				c0.1,0.081,0.141,0.229,0.093,0.337c-0.05,0.112-0.135,0.125-0.319,0.12H5.562c-0.068,0-0.124,0.057-0.124,0.126
				c0,0.068,0.057,0.124,0.125,0.124c0,0,0,0,0.001,0h0.057c0.175-0.002,0.43,0.005,0.551-0.269
				c0.095-0.213,0.026-0.478-0.163-0.632c-0.168-0.137-0.417-0.175-0.632-0.096c-0.189,0.068-0.355,0.221-0.455,0.416
				c-0.138,0.262-0.15,0.583-0.035,0.858c0.116,0.273,0.355,0.488,0.638,0.575c0.097,0.028,0.197,0.043,0.299,0.043
				c0.274,0,0.555-0.104,0.779-0.298c0.051-0.043,0.082-0.108,0.127-0.16c-0.005,0.02-0.006,0.039-0.011,0.059
				c-0.359,1.681-1.27,2.96-2.49,3.561l0.03,0.26c0.814-0.367,1.499-1.025,1.998-1.892c0.047,0.304,0.195,0.591,0.47,0.761
				c0.175,0.108,0.368,0.163,0.564,0.163c0.178,0,0.358-0.045,0.53-0.135c0.41-0.214,0.69-0.639,0.715-1.082
				c0.024-0.446-0.236-0.93-0.716-0.967c-0.304-0.021-0.612,0.147-0.777,0.422c-0.121,0.202-0.144,0.429-0.059,0.605
				C7.038,61.875,7.147,61.964,7.275,62c0.114,0.032,0.225,0.015,0.316-0.045c0.058-0.039,0.073-0.116,0.035-0.174
				c-0.04-0.058-0.117-0.073-0.174-0.035c-0.04,0.027-0.088,0.019-0.11,0.012c-0.058-0.016-0.11-0.058-0.135-0.107
				c-0.057-0.119-0.012-0.269,0.049-0.369c0.117-0.196,0.345-0.322,0.544-0.301c0.322,0.024,0.502,0.384,0.484,0.703
				c-0.019,0.357-0.247,0.7-0.581,0.874c-0.164,0.088-0.495,0.198-0.847-0.019c-0.4-0.247-0.463-0.861-0.252-1.244
				c0.005-0.009,0.001-0.019,0.003-0.027c0.148-0.361,0.272-0.745,0.36-1.154c0.062-0.29,0.1-0.576,0.126-0.858
				c0.005-0.021,0.017-0.037,0.019-0.059c0.003-0.018-0.007-0.032-0.011-0.049c0.086-1.104-0.096-2.104-0.503-2.757
				c0.178,0.057,0.354,0.104,0.534,0.104c0.254,0,0.514-0.086,0.791-0.337c0.354-0.322,0.534-0.828,0.459-1.29
				c-0.062-0.384-0.293-0.682-0.648-0.838c-0.397-0.174-0.951-0.082-1.213,0.2c-0.18,0.193-0.201,0.443-0.062,0.704
				c0.119,0.224,0.31,0.35,0.526,0.35c0.012,0,0.022-0.001,0.033-0.001c0.238-0.015,0.45-0.175,0.542-0.408
				c0.025-0.064-0.007-0.137-0.07-0.162c-0.066-0.022-0.137,0.007-0.162,0.07c-0.056,0.142-0.186,0.242-0.324,0.25
				c-0.131,0-0.245-0.069-0.324-0.216c-0.088-0.164-0.079-0.305,0.025-0.417c0.188-0.205,0.633-0.271,0.928-0.142
				c0.353,0.155,0.469,0.439,0.503,0.649c0.062,0.375-0.092,0.803-0.38,1.064c-0.454,0.413-0.821,0.28-1.33,0.099l-0.116-0.042
				C6.283,56,6.258,55.967,6.228,55.942c-0.92-0.771-1.47-2.481-1.29-3.961c0.087-0.677,0.347-1.522,1.026-2.213
				c0.104-0.06,0.209-0.119,0.296-0.186c-0.049,0.098-0.114,0.186-0.148,0.289c-0.127,0.4-0.123,0.812,0.011,1.157
				c0.153,0.396,0.483,0.698,0.86,0.789c0.087,0.021,0.178,0.032,0.269,0.032c0.266,0,0.542-0.088,0.776-0.253
				c0.239-0.169,0.414-0.399,0.493-0.648c0.09-0.285,0.054-0.593-0.099-0.824c-0.168-0.256-0.473-0.401-0.76-0.361
				c-0.31,0.042-0.569,0.311-0.59,0.611c-0.012,0.179,0.064,0.362,0.204,0.487c0.1,0.092,0.386,0.169,0.556,0.094
				c0.092-0.04,0.145-0.122,0.144-0.224c-0.001-0.068-0.053-0.128-0.121-0.128c-0.084,0.002-0.122,0.052-0.122,0.122
				c-0.042,0.03-0.237-0.008-0.287-0.049c-0.083-0.074-0.13-0.185-0.123-0.286c0.012-0.184,0.18-0.354,0.374-0.38
				c0.188-0.027,0.402,0.076,0.517,0.25c0.111,0.169,0.137,0.397,0.069,0.611c-0.062,0.198-0.204,0.383-0.399,0.52
				c-0.256,0.181-0.566,0.25-0.841,0.184c-0.3-0.073-0.563-0.317-0.688-0.637c-0.113-0.293-0.115-0.646-0.005-0.991
				c0.118-0.371,0.358-0.695,0.666-0.932c0.197-0.1,0.364-0.215,0.543-0.325c0.036,0.031,0.08,0.055,0.131,0.055
				c0.115,0,0.209-0.094,0.209-0.209c0-0.016-0.014-0.025-0.017-0.04c2.066-1.422,2.751-3.472,2.646-4.465
				c0.008-0.032,0.004-0.067-0.017-0.099c-0.01-0.015-0.007-0.037-0.016-0.054c-0.014-0.062-0.018-0.139-0.039-0.188
				c-0.012-0.028-0.014-0.067-0.025-0.097c0.006-0.322,0.184-0.706,0.378-0.915c0.212-0.226,0.474-0.304,0.751-0.386
				c0.191-0.058,0.391-0.117,0.584-0.227c0.456-0.26,0.729-0.834,0.633-1.336c-0.062-0.324-0.273-0.575-0.577-0.689
				c-0.313-0.115-0.664-0.062-0.937,0.151c-0.148,0.117-0.254,0.273-0.298,0.439c-0.049,0.187-0.017,0.389,0.084,0.542
				c0.111,0.168,0.311,0.264,0.502,0.256c0.211-0.015,0.395-0.163,0.449-0.36c0.039-0.147-0.012-0.336-0.118-0.439
				c-0.08-0.076-0.188-0.104-0.291-0.07c-0.066,0.02-0.104,0.09-0.083,0.155c0.019,0.065,0.093,0.106,0.155,0.083
				c0.017-0.004,0.027-0.004,0.045,0.012c0.042,0.041,0.066,0.136,0.05,0.194c-0.024,0.094-0.121,0.169-0.224,0.176
				c-0.105,0.017-0.216-0.052-0.277-0.145c-0.062-0.094-0.081-0.221-0.05-0.339c0.03-0.115,0.104-0.224,0.21-0.307
				c0.204-0.16,0.466-0.202,0.695-0.114c0.221,0.082,0.374,0.266,0.419,0.502c0.077,0.402-0.142,0.863-0.51,1.072
				c-0.17,0.096-0.346,0.149-0.533,0.204c-0.296,0.089-0.603,0.181-0.861,0.456c-0.113,0.122-0.223,0.294-0.306,0.483
				c-0.036-0.528,0.024-1.146,0.085-1.683c0.029-0.25,0.05-0.47,0.06-0.659c0.027-0.362,0.406-1.113,0.866-1.934
				c0.023,0.009,0.039,0.027,0.066,0.027c0.115,0,0.208-0.094,0.208-0.209c0-0.066-0.035-0.118-0.083-0.156
				c0.156-0.274,0.317-0.55,0.474-0.819c0.3-0.51,0.59-0.989,0.81-1.399c0.071-0.133,0.128-0.26,0.173-0.382
				c0.038,0.044,0.09,0.073,0.152,0.073c0.115,0,0.209-0.093,0.209-0.208s-0.094-0.209-0.209-0.209c-0.026,0-0.045,0.02-0.069,0.028
				c0.012-0.063,0.014-0.123,0.017-0.183c0.019,0.005,0.032,0.021,0.053,0.021c0.115,0,0.209-0.094,0.209-0.209
				c0-0.115-0.094-0.208-0.209-0.208c-0.036,0-0.064,0.022-0.094,0.039c-0.012-0.038-0.015-0.079-0.031-0.114
				c-0.103-0.248-0.289-0.388-0.422-0.462c-0.095-0.164-0.234-0.297-0.411-0.378c-0.002-0.001-0.005,0.001-0.008,0
				c-0.953-1.012-3.787-4.012-4.979-5.16c-0.22-0.199-0.31-0.43-0.279-0.68c0.061-0.711,0.979-1.556,2.013-2.331
				C8.958,25.83,9,25.854,9.05,25.854c0.115,0,0.209-0.093,0.209-0.208c0-0.029-0.02-0.049-0.03-0.074
				c0.411-0.298,0.828-0.582,1.209-0.84c0.311-0.21,0.591-0.399,0.83-0.569c0.771-0.56,1.181-1.08,1.21-1.56
				c0.011-0.191-0.041-0.336-0.097-0.435c0.004-0.017,0.019-0.028,0.019-0.046c0-0.115-0.093-0.209-0.208-0.209
				c-0.021,0-0.035,0.017-0.054,0.023c-1.093-0.691-1.679-1.244-1.771-1.673c0.054-0.038,0.095-0.091,0.095-0.162
				c0-0.063-0.031-0.115-0.075-0.153c0.157-0.408,0.786-0.764,1.491-1.164c0.15-0.08,0.3-0.17,0.46-0.261
				c0.68-0.399,1.08-0.869,1.18-1.399c0.04-0.21,0.03-0.4-0.01-0.561L13.228,16.512z"/>
			<circle style="fill:#FBB040;" cx="13.701" cy="35.078" r="0.209"/>
			<circle style="fill:#FBB040;" cx="8.191" cy="31.879" r="0.208"/>
			<circle style="fill:#FBB040;" cx="8.191" cy="30.745" r="0.209"/>
			<circle style="fill:#FBB040;" cx="8.191" cy="31.33" r="0.208"/>
			<circle style="fill:#FBB040;" cx="7.625" cy="31.312" r="0.208"/>
			<circle style="fill:#FBB040;" cx="8.758" cy="31.312" r="0.208"/>
			<circle style="fill:#FBB040;" cx="11.4" cy="39.087" r="0.208"/>
			<circle style="fill:#FBB040;" cx="10.833" cy="38.52" r="0.208"/>
			<circle style="fill:#FBB040;" cx="11.967" cy="38.52" r="0.208"/>
			<circle style="fill:#FBB040;" cx="9.201" cy="42.087" r="0.208"/>
			<circle style="fill:#FBB040;" cx="9.201" cy="40.953" r="0.209"/>
			<circle style="fill:#FBB040;" cx="9.201" cy="41.538" r="0.208"/>
			<circle style="fill:#FBB040;" cx="8.633" cy="41.52" r="0.208"/>
			<circle style="fill:#FBB040;" cx="9.768" cy="41.52" r="0.208"/>
			<circle style="fill:#FBB040;" cx="11.383" cy="44.187" r="0.208"/>
			<circle style="fill:#FBB040;" cx="11.383" cy="43.052" r="0.208"/>
			<circle style="fill:#FBB040;" cx="11.383" cy="43.637" r="0.209"/>
			<circle style="fill:#FBB040;" cx="10.816" cy="43.62" r="0.208"/>
			<circle style="fill:#FBB040;" cx="11.951" cy="43.62" r="0.208"/>
			<circle style="fill:#FBB040;" cx="7.691" cy="49.087" r="0.208"/>
			<circle style="fill:#FBB040;" cx="7.691" cy="47.953" r="0.209"/>
			<circle style="fill:#FBB040;" cx="8.258" cy="48.52" r="0.208"/>
			<circle style="fill:#FBB040;" cx="9.55" cy="48.52" r="0.208"/>
			<circle style="fill:#FBB040;" cx="9.55" cy="47.386" r="0.209"/>
			<circle style="fill:#FBB040;" cx="9.55" cy="47.97" r="0.208"/>
			<circle style="fill:#FBB040;" cx="8.983" cy="47.953" r="0.209"/>
			<circle style="fill:#FBB040;" cx="10.118" cy="47.953" r="0.209"/>
			<circle style="fill:#FBB040;" cx="5.775" cy="52.796" r="0.209"/>
			<circle style="fill:#FBB040;" cx="5.775" cy="51.662" r="0.208"/>
			<circle style="fill:#FBB040;" cx="5.775" cy="52.246" r="0.208"/>
			<circle style="fill:#FBB040;" cx="5.208" cy="52.228" r="0.209"/>
			<circle style="fill:#FBB040;" cx="6.342" cy="52.228" r="0.209"/>
			<circle style="fill:#FBB040;" cx="4.858" cy="56.046" r="0.209"/>
			<circle style="fill:#FBB040;" cx="4.858" cy="54.912" r="0.208"/>
			<circle style="fill:#FBB040;" cx="4.858" cy="55.496" r="0.208"/>
			<circle style="fill:#FBB040;" cx="4.291" cy="55.478" r="0.209"/>
			<circle style="fill:#FBB040;" cx="7.941" cy="28.671" r="0.209"/>
			<circle style="fill:#FBB040;" cx="7.941" cy="27.537" r="0.208"/>
			<circle style="fill:#FBB040;" cx="7.941" cy="28.121" r="0.208"/>
			<circle style="fill:#FBB040;" cx="7.374" cy="28.103" r="0.209"/>
			<circle style="fill:#FBB040;" cx="8.508" cy="28.103" r="0.209"/>
		</g>
		<path style="fill:#A7A9AC;" d="M13.728,30.602l-2.59,1.801c-0.01,0-0.02-0.011-0.029,0c-0.08,0-0.15,0.04-0.2,0.09l-0.83,0.77
			l-0.11,0.09c-0.069,0.051-0.13,0.11-0.189,0.181c-0.29,0.319-0.45,0.71-0.471,1.109l-0.909,0.56l-0.9-0.56
			c-0.02-0.399-0.18-0.79-0.47-1.109c-0.061-0.07-0.12-0.13-0.19-0.181l-0.11-0.09l-0.829-0.77c-0.051-0.05-0.12-0.09-0.2-0.09
			c-0.011-0.011-0.02,0-0.03,0l-2.87-2.181l-0.78,2.37c-0.1,0.41-0.18,0.83-0.239,1.26l1.87,1.35c0.01,0.01,0.159,0.31,0.17,0.31
			c0.029,0.11,0.109,0.19,0.21,0.25c0.37,0.311,0.739,0.57,1.09,0.66c0.19,0.07,0.39,0.1,0.6,0.1c0.13,0,0.26-0.02,0.4-0.04
			l0.18,0.191l0.34,1.1c0,0,0.12,0.12,0.311,0.28l-0.21,0.72c0,0,0.569,0.7,1.33,0.49c0.1-0.02,0.22-0.069,0.33-0.13
			c0.13,0.061,0.239,0.11,0.34,0.13c0.76,0.21,1.33-0.49,1.33-0.49l-0.2-0.72c0.17-0.16,0.3-0.28,0.3-0.28l0.34-1.1l0.19-0.191
			c0.13,0.021,0.26,0.04,0.399,0.04c0.2,0,0.4-0.029,0.59-0.1c0.341-0.09,0.721-0.35,1.091-0.66c0.1-0.06,0.18-0.14,0.22-0.25
			c0,0,0-0.01,0.01-0.02l1.66-1.261c-0.07-0.55-0.17-1.1-0.29-1.64L13.728,30.602z"/>
		<g>
			<path style="fill:#006838;" d="M10.039,33.142c-0.03-0.01-0.05-0.02-0.08-0.02c-0.09-0.03-0.18-0.061-0.26-0.061
				c-0.03-0.01-0.05-0.01-0.07-0.01c-0.05,0-0.1,0-0.15,0.01c-0.159,0.16-0.269,0.36-0.319,0.561c-0.12,0.41-0.04,0.87,0.25,1.229
				c0.27,0.33,0.67,0.511,1.08,0.511c0.04,0,0.069,0,0.109-0.011c0.12-0.01,0.24-0.029,0.351-0.069c0.029-0.051,0.05-0.11,0.06-0.17
				c0.03-0.03,0.04-0.061,0.04-0.101c0.01-0.04,0.01-0.08,0.01-0.12c0.02-0.05,0.02-0.109,0.02-0.17
				c-0.29-0.06-0.561-0.22-0.76-0.47C10.058,33.922,9.968,33.521,10.039,33.142z"/>
			<path style="fill:#1FB78F;" d="M10.739,35.212c-0.021,0.01-0.04,0.01-0.051,0.01c-0.409,0-0.809-0.18-1.079-0.51
				c-0.28-0.35-0.37-0.83-0.19-1.25c0.05-0.15,0.15-0.29,0.28-0.4l0.01-0.01c0.03-0.03,0.059-0.06,0.09-0.08
				c-0.03,0-0.24,0.061-0.3,0.08l-0.021,0.01c-0.159,0.16-0.269,0.36-0.319,0.561c-0.12,0.41-0.04,0.87,0.25,1.229
				c0.27,0.33,0.67,0.511,1.08,0.511c0.04,0,0.069,0,0.109-0.011c0.12-0.01,0.24-0.029,0.351-0.069c0.02-0.04,0.22-0.19,0.23-0.23
				c-0.04,0.01-0.1,0.03-0.17,0.061C10.919,35.152,10.808,35.202,10.739,35.212z"/>
			<linearGradient id="SVGID_1_" gradientUnits="userSpaceOnUse" x1="6.4587" y1="32.6479" x2="16.2073" y2="32.6479">
				<stop  offset="0" style="stop-color:#E4B58F"/>
				<stop  offset="0.3768" style="stop-color:#FDD5AE"/>
				<stop  offset="1" style="stop-color:#FDD5AE"/>
			</linearGradient>
			<path style="fill:url(#SVGID_1_);" d="M13.992,27.973l-3.551,4.714l-1.205,0.93l-1.457,0.855c-0.301,0.19-0.511,0.48-0.61,0.811
				l-0.4,1.43l-0.31,1.12c0,0,0.58,0.689,1.33,0.5c0.19-0.05,0.42-0.17,0.649-0.32c0.7-0.45,1.45-1.18,1.45-1.18l0.02-0.061
				l0.553-1.442l0.317-0.339l5.39-5.834C16.549,24.972,13.992,27.973,13.992,27.973z"/>
			<path style="fill:#1FB78F;" d="M11.669,32.882c-0.18-0.28-0.47-0.439-0.79-0.479c-0.36-0.061-0.76,0.05-1.05,0.319l-0.33,0.33
				l-0.021,0.01c0.051-0.01,0.101-0.01,0.15-0.01h0.08c0.09,0.01,0.17,0.021,0.26,0.05c0.32,0.1,0.63,0.33,0.851,0.66
				c0.239,0.36,0.319,0.771,0.25,1.12c0.01,0.05,0,0.09-0.02,0.13c0,0.04-0.01,0.07-0.04,0.101c-0.01,0.06-0.03,0.119-0.06,0.17
				c0.26-0.07,0.55-0.271,0.84-0.511c0.07-0.06,0.17-0.189,0.189-0.29c0.021-0.059,0.03-0.13,0.03-0.21
				c0.04-0.439-0.08-1.01-0.33-1.38C11.678,32.882,11.678,32.882,11.669,32.882z"/>
		</g>
		<g>
			<path style="fill:#FDD5AE;" d="M9.449,35.122c-0.101-0.33-0.311-0.62-0.61-0.811l-0.4-0.25l-1.72-1.06L2.26,27.805
				c0,0-1.518-0.71-2.002,1.507l5.27,5.391l0.87,0.87l0.329,1.1c0,0,0.011,0.01,0.04,0.04c0.181,0.17,1,0.93,1.67,1.3
				c0.141,0.07,0.271,0.13,0.391,0.16c0.75,0.19,1.33-0.5,1.33-0.5l-0.25-0.9L9.449,35.122z"/>
		</g>
		<path style="fill:#231F20;" d="M5.654,5.897C3.936,6.891,4.23,9.015,4.23,9.015s4.768,0.475,5.354-2.96
			C9.585,6.055,7.371,4.902,5.654,5.897z"/>
		<circle style="fill:#231F20;" cx="8.004" cy="1.897" r="1.897"/>
		<polygon style="fill:#B3171B;" points="5.817,16.174 8.377,16.868 8.394,16.228 6.505,14.338 		"/>
		<path style="fill:#FBB040;" d="M7.61,17.262c-1.739,0.92-2.979,2.101-3.689,3.481c-0.14,0.54-0.36,1.31-0.36,1.859
			c0.34-2.109,1.74-3.83,4.16-5.109c1.43-0.761,2.86-1.16,3.57-1.32h-0.96C9.571,16.392,8.59,16.742,7.61,17.262z"/>
		<path style="fill:#FBB040;" d="M5.539,67.981l-3.93-32.76c-0.051,0.51-0.07,1.01-0.07,1.521l3.76,31.33l0.01,0.069l0.06,0.03
			c0.83,0.43,1.859,0.6,3.09,0.6c1.64,0,3.62-0.31,5.94-0.729v-0.24C10.409,68.512,7.428,68.902,5.539,67.981z"/>
		<path style="fill:#FBB040;" d="M3.989,20.592c-0.351,0.71-0.681,2.46-0.62,3.88l0.28,0.61c-0.33-2.03,0.42-4.101,0.42-4.101
			L3.989,20.592z"/>
		<polygon style="fill:#B3171B;" points="9.438,14.342 7.548,16.231 7.569,16.872 7.638,16.852 10.129,16.172 9.558,14.662 		"/>
		<polygon style="fill:#FBB040;" points="7.419,16.362 7.199,17.612 7.529,17.452 7.638,16.852 7.709,16.432 9.558,14.662 
			9.438,14.342 		"/>
		<path style="fill:#FBB040;" d="M6.68,18.358c-0.042,0-0.07,0.029-0.106,0.045l-0.592-0.496c0.006-0.023,0.026-0.039,0.026-0.064
			c0-0.163-0.133-0.297-0.297-0.297c-0.164,0-0.297,0.134-0.297,0.297c0,0.164,0.133,0.297,0.297,0.297
			c0.042,0,0.071-0.028,0.107-0.044l0.591,0.496c-0.006,0.023-0.026,0.039-0.026,0.063c0,0.164,0.133,0.297,0.297,0.297
			c0.164,0,0.297-0.133,0.297-0.297C6.977,18.492,6.844,18.358,6.68,18.358z"/>
		<path style="fill:#FBB040;" d="M5.962,19.03c-0.042,0-0.07,0.029-0.107,0.045l-0.592-0.496c0.006-0.023,0.026-0.039,0.026-0.064
			c0-0.163-0.133-0.297-0.297-0.297c-0.164,0-0.297,0.134-0.297,0.297c0,0.164,0.133,0.297,0.297,0.297
			c0.042,0,0.071-0.028,0.108-0.044l0.591,0.496c-0.006,0.023-0.026,0.039-0.026,0.063c0,0.164,0.133,0.298,0.297,0.298
			c0.164,0,0.297-0.134,0.297-0.298C6.258,19.164,6.126,19.03,5.962,19.03z"/>
		<path style="opacity:0.41;fill:#A7A9AC;" d="M8.637,23.069H7.739c-1.654,0.433-3.279,0.365-4.886,0l1.283,1.193
			c0.511,0.476,1.302,0.626,1.987,0.369c0.412-0.155,0.934-0.357,1.559-0.614c0.166-0.067,0.335-0.109,0.506-0.137
			c0.171,0.027,0.34,0.069,0.506,0.137c0.625,0.257,1.146,0.459,1.559,0.614c0.686,0.257,1.477,0.107,1.987-0.369l1.283-1.193
			C11.876,23.508,10.246,23.519,8.637,23.069z"/>
	</g>
</g>
</svg>
