<?xml version="1.0" encoding="iso-8859-1"?>
<!-- Generator: Adobe Illustrator 15.0.0, SVG Export Plug-In . SVG Version: 6.00 Build 0)  -->
<!DOCTYPE svg PUBLIC "-//W3C//DTD SVG 1.1//EN" "http://www.w3.org/Graphics/SVG/1.1/DTD/svg11.dtd">
<svg version="1.1" id="Layer_1" xmlns="http://www.w3.org/2000/svg" xmlns:xlink="http://www.w3.org/1999/xlink" x="0px" y="0px"
	 width="128px" height="128px" viewBox="0 0 128 128" style="enable-background:new 0 0 128 128;" xml:space="preserve">
<g>
	<g>
		<circle style="fill:#C2D5D8;" cx="64" cy="64" r="64"/>
	</g>
	<path style="fill:#B7C9CC;" d="M127.289,73.534c-0.072-0.179-0.141-0.358-0.219-0.533c-0.019-0.041-0.029-0.084-0.047-0.125
		c-0.116-0.304-0.236-0.604-0.369-0.899c-0.016-0.041-0.027-0.082-0.045-0.123c-0.116-0.304-0.236-0.604-0.369-0.9
		c-0.016-0.04-0.028-0.082-0.045-0.121c-0.116-0.305-0.236-0.605-0.368-0.9c-0.13-0.346-0.265-0.688-0.414-1.022
		c-0.017-0.04-0.028-0.082-0.045-0.121c-0.117-0.304-0.235-0.604-0.369-0.901c-0.017-0.039-0.028-0.082-0.045-0.121
		c-0.117-0.305-0.237-0.605-0.369-0.901c-0.017-0.04-0.028-0.083-0.045-0.123c-0.116-0.304-0.235-0.604-0.368-0.898
		c-0.018-0.04-0.027-0.081-0.044-0.12c-0.116-0.305-0.237-0.606-0.37-0.902c-0.017-0.041-0.027-0.083-0.045-0.124
		c-0.117-0.303-0.236-0.604-0.369-0.898c-0.017-0.041-0.029-0.083-0.045-0.124c-0.117-0.303-0.236-0.604-0.369-0.898
		c-0.017-0.041-0.027-0.083-0.045-0.124c-0.117-0.302-0.236-0.601-0.367-0.895c-0.018-0.042-0.029-0.086-0.047-0.128
		c-0.117-0.303-0.234-0.603-0.369-0.897c-0.017-0.041-0.027-0.084-0.045-0.125c-0.117-0.303-0.236-0.603-0.369-0.898
		c-0.017-0.041-0.027-0.083-0.045-0.124c-0.115-0.303-0.235-0.604-0.369-0.898c-0.016-0.041-0.027-0.083-0.045-0.124
		c-0.115-0.302-0.234-0.602-0.367-0.896c-0.018-0.041-0.028-0.084-0.047-0.125c-0.115-0.304-0.234-0.605-0.367-0.9
		c-0.018-0.04-0.028-0.082-0.045-0.122c-0.071-0.186-0.131-0.379-0.207-0.563c-0.116-0.302-0.235-0.601-0.367-0.895
		c-0.02-0.042-0.03-0.086-0.047-0.127c-0.116-0.3-0.234-0.599-0.365-0.891c-0.02-0.043-0.029-0.088-0.048-0.131
		c-0.116-0.302-0.234-0.601-0.367-0.895c-0.019-0.042-0.028-0.086-0.047-0.128c-0.116-0.302-0.233-0.601-0.367-0.895
		c-0.017-0.042-0.028-0.086-0.047-0.127c-0.115-0.302-0.235-0.602-0.368-0.896c-0.017-0.041-0.027-0.083-0.046-0.125
		c-0.114-0.301-0.233-0.601-0.366-0.894c-0.018-0.042-0.029-0.086-0.048-0.127c-0.116-0.303-0.235-0.604-0.366-0.898
		c-0.019-0.041-0.029-0.084-0.048-0.125c-0.114-0.303-0.235-0.603-0.366-0.898c-0.019-0.041-0.029-0.083-0.047-0.124
		c-0.115-0.303-0.236-0.604-0.367-0.898c-0.019-0.041-0.029-0.084-0.047-0.125c-0.115-0.301-0.234-0.6-0.365-0.894
		c-0.02-0.042-0.03-0.087-0.049-0.13c-0.115-0.302-0.234-0.601-0.367-0.895c-0.018-0.042-0.029-0.085-0.047-0.127
		c-0.115-0.302-0.234-0.602-0.367-0.896c-0.019-0.042-0.029-0.085-0.047-0.127c-0.115-0.302-0.234-0.601-0.366-0.895
		c-0.017-0.04-0.028-0.083-0.046-0.123c-0.116-0.304-0.235-0.604-0.368-0.899c-0.017-0.042-0.03-0.086-0.048-0.127
		c-0.115-0.302-0.234-0.602-0.366-0.895c-0.017-0.042-0.03-0.086-0.047-0.127c-0.116-0.302-0.235-0.602-0.367-0.895
		c-0.017-0.042-0.03-0.085-0.047-0.127c-0.116-0.302-0.235-0.602-0.367-0.896c-0.017-0.04-0.028-0.083-0.045-0.123
		c-0.117-0.304-0.235-0.605-0.369-0.901c-0.017-0.041-0.028-0.083-0.046-0.124C110.146,30.808,103.618,26,95.953,26
		c-0.523,0-1.039-0.026-1.551,0.02C94.253,26.032,94.104,26,93.955,26c-0.001,0-0.002,0-0.002,0v0.059
		c-9,0.967-15.579,8.226-15.961,17.134l-1.838,0.244l-41.051,5.139c-1.761-4.439-6.084-7.579-11.15-7.579
		c-0.319,0-0.634-0.029-0.946-0.002c-0.186,0.015-0.369,0.006-0.552,0.006h-0.502v0.052c-5,0.74-10.5,5.804-10.5,11.922
		c0,0.086,0.012,0.17,0.014,0.256c-0.002,0.086-0.014,0.169-0.014,0.256c0,0.087,0.012,0.17,0.014,0.256
		c-0.002,0.086-0.014,0.169-0.014,0.256c0,1.85,0.509,3.604,1.349,5.176c0.231,0.894,0.568,1.752,1,2.561
		c0.231,0.895,0.568,1.753,1,2.563c0.231,0.895,0.568,1.752,1,2.561c0.291,1.125,0.756,2.188,1.355,3.174
		c0.185,0.492,0.397,0.974,0.645,1.437c0.231,0.896,0.568,1.753,1,2.563c0.231,0.894,0.568,1.752,1,2.561
		c0.231,0.896,0.568,1.754,1,2.563c0.231,0.894,0.568,1.752,1,2.56c0.231,0.895,0.568,1.754,1,2.563
		c0.231,0.894,0.568,1.752,1,2.561c0.231,0.895,0.568,1.753,1,2.563c0.291,1.125,0.756,2.188,1.355,3.173
		c0.185,0.493,0.397,0.975,0.645,1.438c0.231,0.894,0.568,1.752,1,2.56c0.231,0.895,0.568,1.753,1,2.562
		c0.231,0.895,0.568,1.752,1,2.561c0.231,0.896,0.568,1.754,1,2.563c0.231,0.894,0.568,1.752,1,2.56
		c0.231,0.896,0.568,1.754,1,2.563c0.231,0.895,0.568,1.752,1,2.561c0.291,1.125,0.756,2.189,1.355,3.175
		c0.185,0.493,0.397,0.974,0.645,1.437c0.231,0.896,0.568,1.754,1,2.563c0.231,0.894,0.568,1.752,1,2.56
		c0.074,0.287,0.177,0.563,0.272,0.844C46.001,126.03,54.768,128,64,128C96.105,128,122.686,104.357,127.289,73.534z"/>
	
		<rect x="56.954" y="12.217" transform="matrix(0.124 0.9923 -0.9923 0.124 100.6426 -17.0079)" style="fill:#F5F5F5;" width="6" height="72.563"/>
	<g>
		<path style="fill:#CCCCCC;" d="M95.581,41.023l-19.427,2.428c-0.118,0.835-0.201,1.681-0.201,2.549
			c0,1.191,0.122,2.354,0.343,3.48l20.029-2.503L95.581,41.023z"/>
	</g>
	<polygon style="fill:#F5F5F5;" points="59.393,101.42 22.353,54.2 25.553,51.8 60.513,100.58 	"/>
	<path style="fill:#CCCCCC;" d="M53.615,94.055l5.778,7.365l1.12-0.84l-5.432-7.579C54.551,93.295,54.062,93.65,53.615,94.055z"/>
	<polygon style="fill:#F5F5F5;" points="59.361,100.626 87.434,47.391 96.551,53.15 60.545,101.374 	"/>
	<path style="fill:#CCCCCC;" d="M81.381,58.87c2.1,2.052,4.7,3.586,7.6,4.419l7.57-10.139l-9.117-5.759L81.381,58.87z"/>
	<circle style="fill:#4AB8A1;" cx="95.953" cy="44" r="18"/>
	<path style="fill:#3C9983;" d="M95.953,26c-0.678,0-1.344,0.044-2,0.117c8.999,0.996,16,8.618,16,17.883s-7.001,16.887-16,17.883
		c0.656,0.073,1.322,0.117,2,0.117c9.941,0,18-8.059,18-18S105.895,26,95.953,26z"/>
	<path style="fill:#CCCCCC;" d="M33.237,62.521L25.553,51.8l-3.2,2.4l7.852,10.01C31.303,63.794,32.321,63.223,33.237,62.521z"/>
	<path style="fill:#CCCCCC;" d="M37.953,53c0-1.651-0.334-3.225-0.938-4.656L23.58,50.023l0.744,5.954l13.558-1.695
		C37.928,53.861,37.953,53.434,37.953,53z"/>
	<path style="fill:#CCCCCC;" d="M63.658,92.479l-4.296,8.147l1.184,0.748l5.579-7.474C65.4,93.288,64.566,92.807,63.658,92.479z"/>
	<circle style="fill:#3C9983;" cx="83.953" cy="43" r="3"/>
	<circle style="fill:#4AB8A1;" cx="23.953" cy="53" r="12"/>
	<path style="fill:#3C9983;" d="M23.953,41c-0.509,0-1.007,0.042-1.5,0.104c5.918,0.74,10.5,5.778,10.5,11.896
		s-4.582,11.157-10.5,11.896c0.493,0.062,0.991,0.104,1.5,0.104c6.627,0,12-5.373,12-12S30.58,41,23.953,41z"/>
	<circle style="fill:#3C9983;" cx="16.953" cy="49" r="2"/>
	<circle style="fill:#4AB8A1;" cx="59.953" cy="100" r="8"/>
	<path style="fill:#3C9983;" d="M59.953,92c-0.339,0-0.672,0.027-1,0.068c3.945,0.494,7,3.853,7,7.932s-3.055,7.438-7,7.932
		c0.328,0.041,0.661,0.068,1,0.068c4.418,0,8-3.582,8-8S64.371,92,59.953,92z"/>
	<circle style="fill:#3C9983;" cx="56.953" cy="95" r="1"/>
</g>
</svg>
