<?xml version="1.0" encoding="iso-8859-1"?>
<!-- Generator: Adobe Illustrator 17.0.0, SVG Export Plug-In . SVG Version: 6.00 Build 0)  -->
<!DOCTYPE svg PUBLIC "-//W3C//DTD SVG 1.1//EN" "http://www.w3.org/Graphics/SVG/1.1/DTD/svg11.dtd">
<svg version="1.1" id="Capa_1" xmlns="http://www.w3.org/2000/svg" xmlns:xlink="http://www.w3.org/1999/xlink" x="0px" y="0px"
	 width="100.907px" height="112.412px" viewBox="0 0 100.907 112.412" style="enable-background:new 0 0 100.907 112.412;"
	 xml:space="preserve">
<g>
	<g>
		<g>
			<g>
				<g>
					<path style="fill:#F6E9E5;" d="M0,9.134c0,0,3.077,21.16,14.996,21.16s15.921,0,15.921,0s-5.475-21.16-17.393-21.16
						C1.604,9.134,0,9.134,0,9.134z"/>
				</g>
			</g>
			<g>
				<g>
					<path style="fill:#D76C79;" d="M5.477,12.885c0,0,1.988,13.659,9.684,13.659c7.694,0,10.278,0,10.278,0
						s-3.536-13.659-11.229-13.659C6.515,12.885,5.477,12.885,5.477,12.885z"/>
				</g>
			</g>
		</g>
		<g>
			<g>
				<g>
					<path style="fill:#F6E9E5;" d="M100.907,9.134c0,0-3.08,21.16-14.999,21.16c-11.921,0-15.921,0-15.921,0
						s5.475-21.16,17.395-21.16C99.298,9.134,100.907,9.134,100.907,9.134z"/>
				</g>
			</g>
			<g>
				<g>
					<path style="fill:#D76C79;" d="M95.429,12.885c0,0-1.99,13.659-9.681,13.659c-7.695,0-10.282,0-10.282,0
						s3.535-13.659,11.232-13.659C94.394,12.885,95.429,12.885,95.429,12.885z"/>
				</g>
			</g>
		</g>
	</g>
	<g>
		<g>
			<g>
				<path style="fill:#D3C5C1;" d="M47.515,1.075c-0.721,0.722-1.132,1.733-1.132,2.754c0,0.074,0.018,0.145,0.022,0.219
					c-0.054,0.006-0.108,0.013-0.162,0.019c-0.012-0.073-0.011-0.145-0.026-0.217c-0.455-2.098-2.532-3.421-4.631-2.954
					c-2.1,0.455-3.42,2.532-2.954,4.63c0.016,0.074,0.046,0.138,0.066,0.209c-0.051,0.016-0.099,0.036-0.149,0.053
					c-0.029-0.076-0.047-0.154-0.084-0.228C37.532,3.63,35.2,2.83,33.278,3.773c-1.934,0.933-2.731,3.266-1.797,5.198
					c0.037,0.075,0.082,0.142,0.122,0.214c-0.038,0.026-0.077,0.051-0.118,0.078c-0.053-0.069-0.092-0.148-0.151-0.215
					C29.938,7.427,27.48,7.25,25.85,8.649c-1.622,1.41-1.799,3.853-0.4,5.485c0.06,0.068,0.131,0.116,0.193,0.179
					c-0.033,0.037-0.066,0.079-0.1,0.117c-0.072-0.056-0.135-0.123-0.216-0.173c-1.797-1.176-4.209-0.678-5.374,1.122
					c-1.178,1.798-0.677,4.208,1.121,5.386c0.081,0.052,0.167,0.091,0.249,0.137c-0.019,0.042-0.041,0.084-0.061,0.128
					c-0.089-0.035-0.172-0.082-0.267-0.109c-2.054-0.611-4.218,0.567-4.83,2.621c-0.609,2.065,0.565,4.219,2.633,4.83
					c0.091,0.028,0.185,0.042,0.278,0.063c-0.007,0.047-0.014,0.096-0.02,0.142c-0.094-0.007-0.186-0.027-0.282-0.027
					c-2.153,0.011-3.887,1.754-3.875,3.898c0,2.143,1.741,3.876,3.886,3.876h0.013c0.066,0,0.13-0.017,0.195-0.021
					c0.004,0.049,0.011,0.096,0.016,0.144c-0.051,0.006-0.097,0.002-0.145,0.01c-2.123,0.367-3.543,2.376-3.188,4.486v0.011
					c0.332,1.889,1.966,3.232,3.83,3.232c0.213,0,0.435-0.021,0.656-0.067c0.037-0.005,0.067-0.02,0.103-0.027
					c0.009,0.044,0.017,0.089,0.028,0.132c-2.09,0.462-3.417,2.533-2.963,4.626h0.012c0.389,1.822,1.997,3.054,3.786,3.054
					c0.26,0,0.522-0.021,0.781-0.079c0.006,0.045,0.017,0.094,0.026,0.142c-0.014,0.002-0.026,0.001-0.04,0.005
					c-2.101,0.455-3.433,2.519-2.967,4.62c0.389,1.821,2.001,3.064,3.788,3.064c0.277,0,0.556-0.033,0.832-0.089
					c0.006,0,0.01-0.003,0.017-0.004c0.009,0.063,0.019,0.128,0.033,0.192c-0.679,0.154-1.318,0.469-1.814,0.966
					c-0.733,0.722-1.146,1.732-1.146,2.755c0,1.021,0.413,2.02,1.146,2.743c0.26,0.26,0.565,0.465,0.889,0.644
					c-0.05-0.015-0.095-0.041-0.146-0.056c-2.078-0.544-4.211,0.689-4.765,2.754c-0.544,2.077,0.678,4.198,2.744,4.753
					c-2.134-0.023-3.887,1.676-3.931,3.81c-0.045,2.143,1.666,3.919,3.809,3.964c0.033,0,0.064,0,0.111,0
					c-0.057,0.023-0.111,0.045-0.157,0.056c-1.987,0.822-2.942,3.086-2.132,5.075h0.011c0.812,1.988,3.078,2.932,5.066,2.122
					c0.044-0.011,0.087-0.034,0.131-0.057c-0.021,0.023-0.044,0.046-0.064,0.057c-1.565,1.476-1.645,3.93-0.178,5.496
					c1.467,1.566,3.93,1.644,5.495,0.178c0.011-0.011,0.022-0.021,0.036-0.021c-1.101,1.844-0.49,4.219,1.363,5.319
					c1.832,1.088,4.21,0.489,5.31-1.343c-0.612,2.032,0.531,4.186,2.564,4.819c2.032,0.633,4.186-0.488,4.853-2.499
					c-0.166,2.11,1.389,3.965,3.497,4.165c0.123,0.01,0.255,0.01,0.379,0.01c1.604,0,3.017-1.001,3.594-2.455V0.008
					C49.253,0.008,48.241,0.354,47.515,1.075z"/>
			</g>
		</g>
		<g>
			<g>
				<path style="fill:#F6E9E5;" d="M54.767,105.428c2.109-0.211,3.654-2.066,3.486-4.164c0.677,1.998,2.833,3.097,4.864,2.465
					c2.02-0.644,3.154-2.799,2.545-4.831c1.108,1.822,3.486,2.41,5.316,1.31c1.834-1.099,2.435-3.486,1.333-5.329
					c0.011,0.011,0.021,0.022,0.033,0.032c1.578,1.456,4.043,1.356,5.499-0.221c1.452-1.577,1.354-4.032-0.225-5.486
					c-0.022-0.022-0.043-0.044-0.077-0.066c0.056,0.021,0.1,0.032,0.145,0.054c2.001,0.789,4.254-0.177,5.055-2.175
					c0.787-1.99-0.192-4.254-2.178-5.054c-0.057-0.022-0.111-0.033-0.168-0.056c0.046,0,0.09,0,0.135,0
					c2.154-0.055,3.842-1.842,3.788-3.986c-0.058-2.131-1.822-3.82-3.944-3.787c2.066-0.578,3.275-2.711,2.71-4.764
					c-0.565-2.076-2.71-3.298-4.774-2.732c-0.093,0.025-0.172,0.068-0.26,0.1c-0.004-0.009-0.008-0.022-0.014-0.031
					c0.35-0.18,0.681-0.399,0.96-0.679c0.724-0.722,1.133-1.72,1.133-2.754c0-1.021-0.409-2.02-1.133-2.742
					c-0.502-0.505-1.152-0.822-1.842-0.974c0.004-0.032,0.013-0.062,0.017-0.094c0,0,0.004-0.023,0.014-0.062
					c0.008,0.002,0.018,0.007,0.026,0.008c0.277,0.056,0.554,0.088,0.821,0.088c1.787,0,3.396-1.244,3.797-3.066
					c0.443-2.097-0.878-4.174-2.975-4.629c-0.015-0.003-0.028-0.001-0.041-0.005c0.001-0.013,0.006-0.028,0.008-0.042
					c0.005-0.024,0.009-0.042,0.013-0.066c0.259,0.057,0.528,0.079,0.785,0.079c1.778,0,3.387-1.232,3.787-3.054
					c0.454-2.095-0.863-4.158-2.956-4.617c0.009-0.039,0.017-0.078,0.023-0.119c0.036,0.007,0.066,0.021,0.101,0.027
					c0.223,0.045,0.434,0.055,0.655,0.055c1.864,0,3.51-1.344,3.819-3.23c0.366-2.121-1.065-4.132-3.176-4.487
					c-0.049-0.009-0.102-0.003-0.152-0.01c0.004-0.041,0.01-0.082,0.011-0.123c0.071,0.004,0.138,0.021,0.209,0.021
					c2.143-0.01,3.876-1.754,3.876-3.897c0-2.143-1.743-3.887-3.887-3.876c-0.095,0-0.188,0.021-0.279,0.028
					c-0.007-0.041-0.011-0.083-0.018-0.124c0.091-0.021,0.184-0.032,0.274-0.06c2.065-0.622,3.229-2.787,2.62-4.841
					c-0.621-2.055-2.787-3.221-4.84-2.609c-0.094,0.027-0.177,0.073-0.265,0.108c-0.018-0.039-0.036-0.076-0.055-0.112
					c0.085-0.048,0.169-0.087,0.251-0.141c1.788-1.177,2.288-3.587,1.11-5.375c-1.177-1.798-3.586-2.299-5.375-1.122
					c-0.078,0.052-0.142,0.12-0.216,0.176c-0.03-0.035-0.06-0.071-0.088-0.104c0.062-0.065,0.136-0.112,0.193-0.182
					c1.399-1.622,1.221-4.075-0.411-5.474c-1.62-1.4-4.075-1.222-5.475,0.399c-0.062,0.068-0.1,0.147-0.153,0.219
					c-0.035-0.023-0.069-0.047-0.107-0.07c0.041-0.073,0.09-0.14,0.125-0.217c0.945-1.931,0.135-4.252-1.787-5.196
					c-1.933-0.943-4.265-0.132-5.207,1.799c-0.034,0.072-0.053,0.147-0.083,0.22c-0.04-0.013-0.078-0.028-0.116-0.041
					c0.018-0.072,0.049-0.139,0.064-0.213c0.468-2.099-0.854-4.175-2.951-4.63c-2.1-0.467-4.165,0.856-4.633,2.954
					c-0.015,0.073-0.014,0.145-0.026,0.217c-0.055-0.006-0.109-0.013-0.163-0.018c0.004-0.074,0.023-0.147,0.023-0.22
					c0-1.022-0.423-2.032-1.145-2.754c-0.745-0.744-1.796-1.098-2.839-1.074C50.328,0,50.296,0.008,50.266,0.008v102.997
					c0.122-0.306,0.219-0.624,0.258-0.965C50.779,104.129,52.655,105.638,54.767,105.428z"/>
			</g>
		</g>
	</g>
	<g>
		<g>
			<g>
				<rect x="34.638" y="92.58" style="fill:#D3C5C1;" width="10.861" height="14.978"/>
			</g>
		</g>
		<g>
			<g>
				<rect x="55.406" y="92.58" style="fill:#F6E9E5;" width="10.864" height="14.978"/>
			</g>
		</g>
		<g>
			<g>
				<g>
					<path style="fill:#D76C79;" d="M39.953,109.499c0.461,0,0.834,0.373,0.834,0.833v2.081h8.736c0-5.222-4.233-9.455-9.454-9.455
						c-5.22,0-9.455,4.232-9.455,9.455h8.507v-2.081C39.121,109.872,39.495,109.499,39.953,109.499z"/>
				</g>
			</g>
		</g>
		<g>
			<g>
				<g>
					<path style="fill:#D76C79;" d="M60.722,109.499c0.461,0,0.832,0.373,0.832,0.833v2.081h8.738c0-5.222-4.235-9.455-9.455-9.455
						c-5.22,0-9.454,4.232-9.454,9.455h8.506v-2.081C59.889,109.872,60.262,109.499,60.722,109.499z"/>
				</g>
			</g>
		</g>
	</g>
	<g>
		<g>
			<g>
				<path style="fill:#D3C5C1;" d="M50.454,86.285c17.585,0,23.917-10.131,27.582-19.579c0,0-11.065,15.232-27.103,14.649
					c-13.604-0.495-28.403-14.551-28.403-14.551C26.195,76.254,36.843,86.285,50.454,86.285z"/>
			</g>
		</g>
	</g>
	<g>
		<g>
			<g>
				<path style="fill:#F5C799;" d="M79.591,38.543c0-8.178-6.627-14.807-14.807-14.807c-6.908,0-12.693,4.735-14.33,11.135
					c-1.636-6.4-7.424-11.135-14.329-11.135c-8.18,0-14.812,6.628-14.812,14.807c0,8.179,5.522,14.809,13.7,14.809
					c0,0,0.973,5.716,1.112,7.642c0.59,8.158,3.944,20.361,14.808,20.361c9.904,0,14.222-12.203,14.808-20.361
					c0.141-1.938,1.11-7.692,1.11-7.692C74.581,52.809,79.591,46.399,79.591,38.543z"/>
			</g>
		</g>
		<g>
			<g>
				<g>
					<g>
						<circle style="fill:#411611;" cx="35.706" cy="39.976" r="5.311"/>
					</g>
				</g>
			</g>
			<g>
				<g>
					<g>
						<circle style="fill:#411611;" cx="65.203" cy="39.976" r="5.312"/>
					</g>
				</g>
			</g>
			<g>
				<g>
					<circle style="fill:#FFFFFF;" cx="37.499" cy="38.205" r="1.77"/>
				</g>
			</g>
			<g>
				<g>
					<circle style="fill:#FFFFFF;" cx="66.972" cy="38.205" r="1.77"/>
				</g>
			</g>
		</g>
	</g>
	<g>
		<g>
			<path style="fill:#F29E9F;" d="M56.876,63.674l-6.425,0.734l-6.423-0.734c-0.601-0.077-1.161,0.368-1.231,0.978
				c-0.068,0.609,0.37,1.159,0.976,1.229l5.495,0.629v8.072c-0.364,0.432-1.208,1.245-2.064,0.786
				c-0.543-0.292-1.215-0.088-1.503,0.452c-0.29,0.54-0.089,1.214,0.451,1.504c0.544,0.292,1.076,0.415,1.578,0.415
				c1.073,0,2.02-0.557,2.71-1.186c0.68,0.632,1.618,1.187,2.703,1.187c0.504,0,1.04-0.12,1.596-0.409
				c0.545-0.281,0.757-0.952,0.475-1.496c-0.279-0.545-0.952-0.757-1.496-0.475c-0.917,0.471-1.728-0.329-2.078-0.763v-8.087
				l5.49-0.629c0.611-0.07,1.046-0.619,0.978-1.229C58.037,64.04,57.485,63.595,56.876,63.674z"/>
		</g>
	</g>
</g>
</svg>
