<?xml version="1.0" encoding="utf-8"?>
<!-- Generator: Adobe Illustrator 17.0.0, SVG Export Plug-In . SVG Version: 6.00 Build 0)  -->
<!DOCTYPE svg PUBLIC "-//W3C//DTD SVG 1.1//EN" "http://www.w3.org/Graphics/SVG/1.1/DTD/svg11.dtd">
<svg version="1.1" id="objects" xmlns="http://www.w3.org/2000/svg" xmlns:xlink="http://www.w3.org/1999/xlink" x="0px" y="0px"
	 width="99.497px" height="175.837px" viewBox="0 0 99.497 175.837" enable-background="new 0 0 99.497 175.837"
	 xml:space="preserve">
<path fill="#ED9F21" d="M63.571,162.015c0,7.634-6.188,13.822-13.822,13.822s-13.822-6.188-13.822-13.822
	c0-0.772,0.079-1.524,0.201-2.262H0.026v-13.116h3.777c1.805-40.778,18.519-73.541,39.827-78.875
	c-3.836-6.408-6.935-17.998-6.935-31.233C36.695,16.355,43.897,0,49.932,0C55.967,0,63.17,16.355,63.17,36.529
	c0,13.288-3.125,24.916-6.983,31.308c21.891,5.773,38.857,40.528,39.641,83.058H57.934
	C61.347,153.412,63.571,157.449,63.571,162.015z"/>
<path fill="#FFC355" d="M99.471,159.753H63.37c0.122,0.738,0.201,1.49,0.201,2.263c0,7.634-6.188,13.822-13.822,13.822v-16.085
	h-0.001v-13.116h0.001V66.979c0.061,0,0.122,0.008,0.183,0.009V0C55.967,0,63.17,16.355,63.17,36.529
	c0,13.288-3.125,24.916-6.983,31.308c21.156,5.579,37.711,38.226,39.506,78.8h3.777V159.753z"/>
<rect x="39.797" y="48.203" fill="#FF7955" width="19.899" height="23.041"/>
<path fill="#ED4321" d="M99.497,31.447v47.497l-39.8-7.7V48.203L99.497,31.447z M0,79.713l39.797-8.469V48.203L0,32.216V79.713z"/>
</svg>
