<?xml version="1.0" encoding="utf-8"?>
<!-- Generator: Adobe Illustrator 17.0.0, SVG Export Plug-In . SVG Version: 6.00 Build 0)  -->
<!DOCTYPE svg PUBLIC "-//W3C//DTD SVG 1.1//EN" "http://www.w3.org/Graphics/SVG/1.1/DTD/svg11.dtd">
<svg version="1.1" id="图层_1" xmlns="http://www.w3.org/2000/svg" xmlns:xlink="http://www.w3.org/1999/xlink" x="0px" y="0px"
	 width="33.031px" height="32.156px" viewBox="0 0 33.031 32.156" enable-background="new 0 0 33.031 32.156" xml:space="preserve">
<path fill="#19A6F4" d="M31.703,22.451c-0.842-5.703-8.046-10.041-9.78-11.405c-0.952-0.748-1.64-1.725-1.832-2.93
	c-0.379-2.376,1.301-4.599,3.753-4.966c1.181-0.176,2.326,0.111,3.238,0.721c0.814,0.545,1.878,1.643,2.453,2.354
	c1.83,2.263,3.199,5.425,3.444,8.826C33.27,18.766,32.011,21.933,31.703,22.451z M11.361,10.805c-0.768,0.929-1.77,1.6-3.005,1.786
	c-2.435,0.368-4.712-1.274-5.085-3.667C3.09,7.77,3.385,6.652,4.012,5.763c0.559-0.794,1.685-1.832,2.414-2.392
	c2.321-1.785,5.563-3.119,9.048-3.355c3.807-0.28,7.053,0.951,7.583,1.253C17.212,2.086,12.759,9.114,11.361,10.805z M11.088,21.322
	c0.952,0.749,1.639,1.727,1.83,2.933c0.377,2.375-1.306,4.597-3.758,4.962c-1.182,0.176-2.327-0.112-3.238-0.724
	c-0.814-0.546-1.877-1.644-2.451-2.356c-1.828-2.264-3.195-5.428-3.437-8.829c-0.287-3.715,0.974-6.882,1.283-7.4
	C2.154,15.612,9.355,19.957,11.088,21.322z M21.764,21.343c0.768-0.929,1.769-1.601,3.005-1.788c2.435-0.369,4.714,1.27,5.09,3.662
	c0.182,1.153-0.113,2.27-0.739,3.159c-0.559,0.794-1.684,1.832-2.413,2.393c-2.319,1.786-5.562,3.122-9.048,3.36
	c-3.808,0.284-7.056-0.944-7.587-1.245C15.919,30.063,20.367,23.034,21.764,21.343z"/>
</svg>
