<?xml version="1.0" encoding="utf-8"?>
<!-- Generator: Adobe Illustrator 17.0.0, SVG Export Plug-In . SVG Version: 6.00 Build 0)  -->
<!DOCTYPE svg PUBLIC "-//W3C//DTD SVG 1.1//EN" "http://www.w3.org/Graphics/SVG/1.1/DTD/svg11.dtd">
<svg version="1.1" id="_x37C_" xmlns="http://www.w3.org/2000/svg" xmlns:xlink="http://www.w3.org/1999/xlink" x="0px" y="0px"
	 width="208.736px" height="56.192px" viewBox="0 0 208.736 56.192" enable-background="new 0 0 208.736 56.192"
	 xml:space="preserve">
<path fill="#FF3131" d="M23.637,27.387L23.637,27.387l-0.005-0.014l0.863,0.285l0.289,0.289l0.289,0.289l-0.578,1.152l-0.858,0.574
	L23.637,27.387L23.637,27.387z M24.211,6.629l0.574-0.574V5.477l-0.289-0.578l-0.289-0.574l-0.574-0.574v3.457L24.211,6.629z
	 M23.632,3.75L23.632,3.75L23.632,3.75L23.632,3.75z M23.628,3.746L23.628,3.746L23.628,3.746L23.628,3.746z M48.412,20.171
	l-1.152-0.289l-1.152-0.289v0.004l-1.418,0.28l-1.731,0.289l-2.015,0.863l-5.476,2.305l-0.863,0.578l-0.289-0.289l-0.578-0.289
	l-1.152-4.32l-0.578-2.015l-0.289-2.015l0.289-0.578l0.868-0.578l1.441-0.574l1.726-0.289h1.152l1.152,0.578l1.441,0.863
	l1.152,0.289h0.574l0.574-0.289l0.578-0.863v-0.868l-1.441-2.594l-0.578-1.442l-0.863-1.152l-0.289-0.578h-0.574h-0.289L38.34,7.198
	l-0.289,0.868l-0.578,0.863l-1.441,1.152l-1.152,0.868l-1.441,0.863l-1.152,1.152l-1.152,1.442l-0.863,0.578l-0.578,0.289
	l-0.578,0.578l-0.289,0.578l-0.289,0.578v0.289l-0.578,0.578v0.289l-0.289,0.578l0.289,0.863l0.289,1.152v1.152l-0.289,1.442v1.152
	l-0.863,2.015l0.289,2.015l-0.289,2.305l-0.868,4.035l-0.574,0.863h-0.285l-0.578-0.289L24.5,34.869l-0.578-1.152l-0.289-0.289l0,0
	v5.761l0.578,0.578h0.574h0.289l0.578-0.289h0.56l0.578,0.863l0.578,1.442l0.574,0.863l0.578,0.578l0.578-0.289l0.289-0.289
	l0.578-0.578l0.578-1.726l0.289-0.863l0.868-0.863l0.289-0.578l0.289-0.863l0.863-1.442l1.152-3.746l0.289-1.442l0.578-1.152
	l0.863-0.863l1.441-0.578l0.578-0.289h0.289v0.289v0.578l-0.289,8.933l-0.289,8.933l-0.578,0.863L36.6,47.548v0.294l0.863,2.015
	l0.863,2.305v0.574l0.863,1.152l1.152,0.578l0.863,0.574l1.152,0.289l0.574-0.578l0.578-0.863l0.574-1.726l-0.574-4.898v-4.898
	V38.33v-3.746l0.863-7.781l-0.289-0.289v-0.863l0.289-0.863l0.289-0.578l0.578-0.289l0.868-0.289l0,0l2.304-1.152l0.863-0.578
	l0.289-0.578l-0.289-0.574L48.412,20.171z M16.425,6.05l-0.289,0.289v0.578l0.289,0.289l0.578,0.289l2.594,0.578h2.304l1.731-0.868
	h-0.005V3.745l-1.441-1.161l-1.152-0.863l-1.731-0.578l-1.731-0.289h-0.574L16.71,1.142l-0.574,0.578l-0.289,0.578v0.578v0.578
	l0.578,1.152C16.425,4.609,16.425,6.05,16.425,6.05z M22.475,33.139l-0.578,0.289l-0.574,0.578v0.574l0.574,2.305l0.578,1.152
	l0.863,1.152h0.289v-5.761h0.005l-0.578-0.289L22.475,33.139L22.475,33.139z M22.195,30.843l1.441-0.863v-0.014l-0.005,0.004v-2.584
	l-0.574-0.285h-0.863l-0.578-0.578l-0.289-0.289v-0.578l0.574-0.578l0.863-0.863l0.289-0.578v-0.574l-0.863-0.578l-0.578-0.578
	v-0.289l0.289-0.289l1.731-2.015l0,0l0.578-1.152l0.289-0.863l-0.289-0.578l-0.578-0.289l0,0l-0.289-0.289H22.48l-0.863,0.289
	l-1.441,0.578l-1.726,1.152H18.16l-0.289-0.289h-0.289l0.289-0.578l0.863-1.152l1.152-0.574l2.594-1.152l1.152-0.578l1.726-0.863
	l0.578-0.868v-0.863l-0.578-0.578l-0.863-0.578h-0.863v0.004l-1.441-0.289l-2.304,0.289l-10.365,4.88H8.658L8.369,15.26v0.578
	l0.863,0.578l1.152,0.289l0.863,0.289h2.304h0.578l0.289,0.289v0.578l-0.289,0.578l-0.868,0.863l-0.578,0.863l-0.863,0.863
	l-0.578,1.442v1.442l0.289,0.868l0.574,0.289h0.868l0.863-0.574l0.574-0.578l0.863-1.442l1.441-1.442l1.441-1.152l1.441-0.863
	l0.289-0.289h0.289l0.289,0.574l-0.289,0.578l-1.726,2.015l-1.731,2.015l-2.304,1.731l-2.015,0.863H12.11h-0.289v0.578l-0.289,0.578
	v0.578l-0.289,1.442v0.289l0.863,0.289l2.304-0.863l2.304-1.152l0.578-0.289h0.289l0.578,0.289v0.574l-0.289,1.442l-0.863,0.863
	l-6.339,2.594l-6.05,2.305L4.04,36.312H3.751l-0.289-0.289l-0.289-0.574L2.883,34.87H2.594l-1.441,1.152l-0.863,1.152L0,38.616
	v1.152l0.578,0.289h0.578h1.152l1.441-0.574l1.441-0.863l3.172-1.442l3.746-1.442l3.746-1.726l0.578-0.289h0.578l0.289,0.289
	l0.289,0.863v4.609l-0.289,0.574l-0.289,0.574l-0.578,0.289h-0.578l-0.578-0.289l-0.578-0.289l-0.289-0.289V39.19v-0.574v-0.578
	l-0.289-0.289h-0.868l-0.289,0.289l-1.152,0.578l-0.863,0.289h-0.863l-0.863-0.289l-0.574,0.289L8.07,39.195l-0.578,0.289v0.863
	l0.289,0.863v1.152v0.863l0.289,0.868l0.578,1.152l0.574,0.578h0.578l0.578-0.289l0.863-1.152l0.578-1.442l0.289-0.574l0.578-0.578
	h1.441l1.152,0.578l0.863,1.442l0.574,1.442l0.863,1.152l1.152,0.578h0.578l0.289-0.289l0.289-0.574v-0.863l-0.289-3.457V38.63
	l0.289-3.167l0.578-3.457l0.863-0.578L22.195,30.843z M56.519,40.92L56.519,40.92L56.519,40.92L56.519,40.92z M56.523,40.915
	L56.523,40.915L56.523,40.915L56.523,40.915z M77.268,25.078l-0.565,0.285l-2.304,0.289h-0.303l-0.289-0.289v-0.289l0.289-0.574
	l2.304-1.731l0.863-0.289v-0.004l1.441-0.863l0.289-0.289h-0.009v-4.898l0,0h-0.28l0.289-0.578h-0.005V5.761l0.005,0.004V5.761
	l-1.731-2.309V3.168l-2.015-2.305L74.67,0h-0.863l-2.304,1.152L70.924,1.73l-0.285,1.437l-1.152,1.442l-1.152,1.152l-1.152,1.152
	L66.03,8.065l-0.578,2.02v1.731l0.578,1.731l1.437,1.442l1.441,0.578l1.441-0.578l3.457-0.863l3.167-0.578h0.289v-0.009l0.289,0.289
	v0.289l-0.289,0.289l-3.457,2.594l-1.726,0.863l-1.731,0.863l-0.863,0.578h-0.578l-1.152,0.289l-0.863,0.289v0.289v0.863
	l-0.863,0.863v0.289l0.289,0.574l1.441,1.152l1.152,0.289h1.152l1.441-0.578l0.289-0.289l0.289,0.289l0.289,0.289v0.578
	l-2.304,2.305l-1.152,0.863l-1.152,0.289l-0.863,0.578l-0.289,0.578l-0.289,0.578l0.289,0.289l0.289,0.578l0.574,0.289l0.578,0.289
	h0.578l4.898-1.731l3.746-1.152v-0.004h-0.009L77.268,25.078L77.268,25.078z M56.523,34.58L56.523,34.58L56.523,34.58l-1.731,1.442
	L53.93,36.6l-0.578,1.152v1.152l0.289,1.152l1.152,0.574l1.152,0.289h0.574L56.523,34.58L56.523,34.58z M77.268,25.073v0.009
	l0.009-0.004v3.167l1.143-0.285h0.565v-2.883h-1.717V25.073z M100.606,27.956L100.606,27.956l-0.578-0.578l-3.167-0.289h-2.883
	l-2.883,0.289l-3.172,0.863h-1.148l-0.289-0.289l-0.289-0.574l-0.289-7.492l0.868-3.746l-0.578-2.594v-1.152l0.289-1.442
	l0.863-0.863l1.152-0.289l2.015-0.863l1.152-0.863l0.578-0.863V6.634L91.957,6.06l-1.152-0.868L87.059,4.04h-0.863l-0.578,0.289
	l-0.863,0.574l-5.476,1.152L78.994,5.77v10.081l0,0h0.569l-0.289,0.289l-0.289,0.289h0.009v4.898l0,0h0.565l0.289,0.289l0.289,0.289
	l0.289,1.152l-0.578,1.152l-0.863,0.863h0.009v2.883h-0.009l0.574,0.289l0.289,0.574l-0.289,0.578l-0.574,0.574v0.009l-0.28,0.28
	l-1.441,0.289v-0.004l-12.679,3.751l-2.304,0.574l-2.015,0.289l-1.152-0.578h-1.441h-0.863h-0.285v6.339l1.726-0.289l5.187-2.015
	l4.898-1.731l4.32-1.152l4.609-0.863v0.004l1.152-0.289h0.578V34.58h0.565l0.289,0.289l0.289,0.574l0.289,0.863l-0.289,1.731v1.731
	l0.289,3.457v5.761v1.442l0.289,1.442l1.152,2.883l0.863,1.152h0.289l0.578,0.289l0.289-0.289l0.578-0.289l0.863-1.152l0.578-7.202
	l0.289-3.457v-3.457l-0.289-2.594v-1.442l0.289-1.152v-0.578v-0.863l0.578-0.289l0.574-0.289l12.968-2.883l0.289-0.289v0.004
	l0.868-0.289V28.82l-0.289-0.574L100.606,27.956z M198.361,39.63l-1.726-0.578l-0.863-0.289h-0.868l-2.015,0.28h-0.578h-0.289
	h-0.285v0.578l0.574,1.442l0.289,0.578l0.578,0.289l2.304,1.731l1.441,0.289l1.441,0.578v-0.009h-0.005L198.361,39.63L198.361,39.63
	z M201.248,41.067l-1.441-0.868l-1.441-0.578h-0.005v0.014h0.005v4.889l0.858,0.289l1.726,0.863l1.731,1.442l0.578,0.289
	l0.289,0.289l0.578-0.289l0.289-0.289l0.578-0.868v-0.863l-1.731-2.594L201.248,41.067z M166.37,23.2l0.863-0.289l0.863-0.578
	l0.868-0.574h0.574l0.574,0.289l0.289,0.863l-0.574,2.015l-0.863,1.731l-0.578,0.863l-0.289,0.578l0.289,1.731l0.289,1.726
	l0.289,0.863l0.863,0.863l0.863,0.289h0.578l0.578-0.289l0.863-1.152l1.152-1.152l2.304-2.305l0.578-0.578h0.578l0.289,0.289
	l0.578,0.578l0.578,1.442l0.289,0.574l0.863,0.863v-0.004l0.863,0.574l0.574-0.289l0.289-0.578l0.289-0.863V30.39h0.578l1.441-0.578
	v-3.746l-0.289,0.578v-1.152h0.289V5.33l-1.152,2.305l-0.289,0.863l-0.578,0.863l-0.578,0.289h-0.574l-0.863-0.289v0.004
	l-0.569,0.289l-0.578,0.289l-0.578,0.863v0.863v4.324l0.289,2.015l-0.289,2.305l-0.578,1.152l-0.289,0.578v0.578l0.289,1.442v0.578
	l-0.574,0.578l-1.731,1.442l-1.152,0.289l-0.289-0.289l-0.289-0.578l-0.289-2.883l-0.578-1.442l-0.578-1.442l-0.578-0.863v-0.289
	v-0.578l0.578-0.578l0.863-0.289l1.152-0.574l0.863-0.574l0.868-0.578l0.289-1.152V13.69v-0.863l-0.574-0.863l-0.578-0.863h-0.863
	h-1.152l-1.152,0.574l-0.868,0.863l-3.746,3.457l-1.152,0.578l-0.289,0.289l-0.289,0.578v0.863l-0.578,1.442v1.152l0.289,1.152
	L166.37,23.2z M187.133,28.383L187.133,28.383l-0.005-5.187l0.005,0.004v-0.004l-0.289-0.574l-0.289-0.578l-0.289-0.289l0.289-0.574
	l0.578-1.152h0.28l0.578-1.152l0.289-0.578V17.72l-0.574-0.289h-0.578v0.004h-0.285l-0.578,0.289l-0.578,0.289h-0.863l-0.289-0.289
	l-0.289-0.289l0.289-0.578l0.863-1.152l1.152-0.574l0.578-0.578l0,0l1.441-0.578l0.863-0.578l0.289,0.289l0.289,0.289v0.863
	l-0.863,8.644l-0.289,0.578h-0.289h-0.289l-1.148-0.858V28.383L187.133,28.383h0.285l0.578-0.289l0.289,0.289l0.289,0.289v0.574
	l0.289,0.289l1.152,0.868l0.289,0.289h0.289l0.289-0.289l0.289-0.578v-0.578l0.289-0.574l1.152-0.578l3.457-1.726l2.304-1.442
	v-0.014l-0.009,0.009v-5.476l0.009,0.009v-0.004l-0.868-1.152l0.289-1.442l0.289-1.442l0.289-0.578v-0.023l-0.009,0.023V9.076
	l-1.441,0.289l-0.578,0.289l-0.289,0.289l-0.863,1.442l-0.289,0.863v0.289v0.289l1.152,0.289v0.289v0.578v0.863l-1.152,2.594
	l-0.289,0.574v0.863l0.578,1.152l0.289,0.289v0.289h0.578l0.863,0.289l0.289,0.289v0.574l-0.289,0.863l-1.152,1.152l-1.152,1.152
	l-2.304,1.731l-1.152,0.289v-0.289v-0.578v-5.761l0.289-2.594l0.863-2.883l0.289-0.863l0.289-0.289V13.4v-1.152l-0.289-0.578
	l-0.574-0.289h-0.863h-0.289l-0.289-0.289l-0.578-0.578V9.65l-0.289-0.574l-0.863-1.442l-0.289-2.015l-0.289-0.574l-0.863-0.578
	l-0.289-0.289l0,0l-0.565-0.578l-0.289-0.574l-0.863-0.574h-0.289h-0.289l-0.289,0.574l-0.578,2.305v20.171l0.289,0.289
	l-0.289,0.289v3.746l0.863-0.578L187.133,28.383z M200.385,11.375l0.289-0.863l-0.289-0.574l-0.289-0.289l-0.578-0.574h-1.143v5.738
	l0.858-1.997L200.385,11.375z M199.518,24.059l0.578-0.578l0.289-0.863v-0.578l-0.289-0.578l-0.578-0.863l-0.863-0.863l-0.28-0.28
	v5.458L199.518,24.059z M208.157,30.977l-0.863-0.574l-1.152-0.289h-0.863l-0.863,0.289l-6.05,1.442l0,0h-0.868l-6.913,1.442
	l-1.152,0.289h-0.289l-0.289-0.289l-0.863-1.731l-0.289-0.578l-0.574-0.569v23.04l0.858-0.574v-1.152l0.289-1.152l-0.289-1.442
	l-0.289-2.594v-4.609l0.289-2.305l0.578-2.305v-0.863l0.578-0.578l0.863-0.578l1.731-0.289l3.457-0.863l3.172-0.578v0.004
	l1.441-0.285l8.066-0.863l0.574-0.289l0.289-0.289v-0.578L208.157,30.977z M187.123,53.452L187.123,53.452L187.123,53.452
	l-0.574,0.289h-0.578h-0.574l-1.441-0.863v-0.289l0,0l-1.441-1.442l-1.731-1.152l-0.863-0.578v0.004l-2.594-1.442l-0.863-0.289
	h-0.863l-1.152,0.574l-0.578,0.578l-1.441,1.442l-0.863,0.289h-0.863l-0.863-1.152l-0.578-1.152l-0.289-0.863v-0.863l0.289-1.152
	l-0.578-1.442v-0.578v-0.578v-0.578l-0.574-0.289l-3.746,1.152l-3.746,1.442h-0.868h-0.574l-0.289-0.578l-0.289-1.152v-1.152
	l0.289-0.868l0.289-0.578l0.289-0.289l1.441-0.289l0.578,0.289l0.863-0.289l1.441-0.863l1.441-0.289l1.152-0.289l2.594-1.442
	l0.863-0.289v0.289v0.574l-0.578,0.863l-0.289,0.289v0.289v0.289h0.289l6.913-1.726l3.746-0.854l0,0l3.457-1.152l0.578-0.289v-0.004
	l0.289-0.289l0.289-0.578l0.289-0.863l-0.289-0.863l0.289-0.863l0.289-0.578l0.574-0.574l0.863-0.289l0.578,0.294v0.004
	l-0.005-0.004L187.123,53.452L187.123,53.452z M183.956,37.885l-0.289-0.289h-1.152l-2.594,0.868l0,0l-2.883,0.863l-0.863,0.289
	l-0.289,0.578l0.289,0.578l0.289,0.868v0.574l0.574,0.578l0.863-0.289l1.152-0.289h0.578l0.289,0.289l0,0l0.289,0.289l-0.289,0.574
	v0.289l-0.863,0.578v0.574v0.578l0.289,0.289l0.574,0.574v-0.004h0.289h1.152h1.152h0.578l0.574-0.289l0.289-0.863v-0.578v-6.339
	L183.956,37.885L183.956,37.885z M145.887,22.342l0.868-0.574l0.289,0.574v1.152l-0.289,0.868v0.578l-2.594,1.437l-1.152,0.574
	v5.467l2.874-1.437l1.731-0.574l1.731-1.152l1.441-1.152l1.731-1.442l0.289-0.868l0.289-0.863l-0.289-0.578l-0.578-0.289
	l-1.152-0.578l-0.289-0.289l-0.289-0.574l-1.726-3.746l0.578-2.305l-0.289-0.578l-0.289-0.578l-0.863-0.863l-2.883-2.305
	l-2.015-2.305v2.883l0.578,0.868l0.289,0.289l-0.289,0.578l-0.578,0.578v2.015l1.152-0.289l0.863,0.289v0.863l-0.289,0.863
	l-1.152,1.731l-0.578,0.578v4.035l0.578-0.578L145.887,22.342z M143.009,32.423L143.009,32.423h-0.009H143.009z M140.695,41.93
	l-0.578,0.578v0.578l0.289,0.863l0.863,0.863l1.726,1.442v-5.183l-0.574,0.285L140.695,41.93z M121.107,38.468l-0.578,0.289
	l-0.289,0.289l-0.289-0.289v-0.289v-3.172l0.289-2.594l0.863-5.761v-1.152l0.289-1.152l0.289-0.578l0.863-0.578l1.152-0.863
	l0.863-0.574v-3.452h-1.152l-0.863-0.289l-0.578-0.289l-0.289-0.289v-0.578v-0.574l0.289-3.746v-1.726V9.659l-0.289-1.442
	l-0.863-1.152h-1.441l-1.441,0.289l-0.578,0.289l-0.289,0.289l-0.289,0.578v0.863v2.594l-0.289,2.305l-0.574,5.476l-0.285,2.011
	l-0.578,2.305l-0.289,0.578l-0.863,0.289l-0.289-0.289l-0.289-0.578l-0.289-2.015l-0.289-0.863l-0.863-0.863l-0.289-1.152
	l-0.289-0.868h-1.143l-0.863,0.289l-0.578,0.863l-0.578,1.152l-1.152,1.152l-0.578,0.863l-0.289,2.015l-0.289,0.289v0.023
	l0.005-0.018v7.492l0.285,0.285l1.152,0.578l1.731,0.289l2.594-0.289l0.863-0.578l0.578-0.863l0.578-1.731l0.289-1.152l0.574-1.152
	h0.289v0.574l-0.574,7.781v3.746v4.035v3.457l1.441,2.305l0.863,2.594l0.863,0.863l0.863,0.289h0.578l0.578-0.863l0.289-0.863
	l0.289-0.574l0.863-1.442l0.289-2.883l0.578-2.305l0.289-2.594v-2.594v-0.578l-0.289-0.289L121.107,38.468L121.107,38.468z
	 M124.848,21.759l0.578-0.574l0.574-0.289l0.578-0.863v-0.578l-0.289-0.289l-0.578-0.578h-0.863h-0.285v3.447l-0.005,0.004v0.004
	L124.848,21.759z M105.541,26.079l-0.289,0.863v2.305v1.731l0.289,0.578l0.285,0.854v-7.46L105.541,26.079z M105.825,32.418
	L105.825,32.418v-0.009V32.418z M124.55,34.153l-1.432,1.432l-0.289,0.578l-0.289,0.863l0.578,0.868l0.863,0.578l0.578,0.289v-0.009
	h-0.009V34.153z M142.995,41.067L142.995,41.067L142.995,41.067L142.995,41.067z M142.99,26.942l-1.441,0.578l-0.578,0.289
	l-0.289-0.289l0.578-0.578l1.726-1.726V21.18l-2.015,2.305l-2.015,1.731h-0.289v-0.289v-0.578l0.289-2.594l0.289-1.442l0.578-1.442
	l1.152-0.863l0.868-0.574l1.152-0.289V15.13h-0.863l-0.578,0.289l-0.863,0.289l-0.289-0.289l-0.289-0.863l0.578-2.594l0.289-0.574
	h0.578l0.289,0.289l1.152,1.152V9.947l-0.578-0.588l-0.289-0.578V7.629l0.289-1.152V4.747V3.884l-0.574-0.578l-0.578-0.289
	l-0.578-0.289h-0.863l-0.863,0.289l-1.441,0.863l-0.578,0.289l-0.578,0.578l-0.574,1.731l-0.578,1.726l-0.289,1.442l-0.289,1.731
	l-0.289,2.883l-0.289,3.457l-1.152,0.863l-0.863,0.578l-2.304,0.863h-1.441l-0.574,0.289l-0.574,0.574l-0.863,0.289v0.289v0.578
	l0.578,0.578l0.289,0.574l0.289,0.289l1.152,0.289l1.152-0.578h1.152h0.863l1.152-0.289h0.574v0.578l-0.289,2.594l-0.289,2.883
	l-0.578,1.152l-1.152,0.863l-1.441,0.578l-1.152,0.289l-0.289-0.289h-0.574l-0.863,0.578l-0.863,0.289l-0.868,0.289l-0.289,0.289
	l-0.289,0.863v0.298l0.009-0.009v4.609h1.432l2.883-0.578h0.863l0.289,0.289v0.289l-0.578,2.594l-0.578,1.152l-0.578,1.152
	l-3.746,2.594h0.014v2.598l-0.014-0.004l0,0l2.015,0.868l2.883-0.289l1.441-0.574l1.152-1.152l1.152-1.152l0.863-1.442l1.152-2.305
	l0.863-1.442l0.578-1.442V37.32l0.289-1.442l0.289-0.578l0.578-0.578l1.152-0.578l4.035-1.726L142.99,26.942L142.99,26.942z
	 M153.369,45.675l-1.152-1.442l-2.594-1.731l-2.304-1.152l-2.015-0.289h-2.304v0.004v5.183l1.726,1.731l0.863,1.442l1.152,1.152
	l2.594,2.015l1.152,0.863h1.152l0.863-0.289l1.441-0.863l0.289-0.574l0.289-0.574L154.811,50l-0.863-2.883L153.369,45.675z
	 M124.27,46.249l-0.578,0.578l-0.289,0.578v0.578l0.289,0.574l0.854,0.285v-2.594L124.27,46.249L124.27,46.249z"/>
</svg>
