<?xml version="1.0" encoding="utf-8"?>
<!-- Generator: Adobe Illustrator 17.0.0, SVG Export Plug-In . SVG Version: 6.00 Build 0)  -->
<!DOCTYPE svg PUBLIC "-//W3C//DTD SVG 1.1//EN" "http://www.w3.org/Graphics/SVG/1.1/DTD/svg11.dtd">
<svg version="1.1" id="Слой_2" xmlns="http://www.w3.org/2000/svg" xmlns:xlink="http://www.w3.org/1999/xlink" x="0px" y="0px"
	 width="53.962px" height="98.341px" viewBox="0 0 53.962 98.341" enable-background="new 0 0 53.962 98.341" xml:space="preserve">
<path fill="#FBD6A0" d="M20.157,73.249c-0.126-0.197-0.252-0.396-0.379-0.592c-1.732,2.299-4.205,3.831-7.167,3.985
	c-5.157,0.265-9.49-3.755-11.393-8.26c-1.609-3.803-1.615-8.173,0.659-11.713l3.816-5.941L1.877,44.79
	c-2.275-3.54-2.268-7.912-0.659-11.715c1.903-4.503,6.236-8.523,11.393-8.258c2.962,0.152,5.435,1.686,7.167,3.985
	c0.127-0.196,0.253-0.395,0.379-0.594c-2.01-3.147-4.167-6.806-4.618-10.53c-0.431-3.572,0.259-7.194,2.481-10.087
	c2.157-2.807,5.454-4.473,9-4.473c3.545,0,6.848,1.663,9.003,4.473c2.222,2.893,2.912,6.514,2.479,10.087
	c-0.449,3.726-2.608,7.385-4.62,10.53c0.128,0.198,0.254,0.396,0.382,0.594c1.732-2.299,4.204-3.833,7.166-3.985
	c5.158-0.266,9.492,3.755,11.395,8.258c1.607,3.803,1.613,8.175-0.659,11.715l-3.814,5.938l3.813,5.941
	c2.275,3.54,2.268,7.911,0.66,11.713c-1.904,4.505-6.237,8.524-11.395,8.259c-2.962-0.152-5.434-1.685-7.166-3.985
	c-0.127,0.199-0.254,0.397-0.382,0.595c0.074,0.116,0.147,0.229,0.221,0.344c1.919,3.028,3.964,6.578,4.399,10.187
	c0.432,3.572-0.258,7.193-2.479,10.088c-2.158,2.807-5.458,4.471-9.003,4.471c-3.546,0-6.845-1.664-9-4.471
	c-2.223-2.895-2.912-6.516-2.48-10.089c0.43-3.559,2.424-7.062,4.315-10.053C19.956,73.568,20.058,73.408,20.157,73.249
	L20.157,73.249z"/>
<path fill="#802B2C" d="M14.63,50.728l5.169,8.046l5.167-8.046l-5.167-8.044L14.63,50.728L14.63,50.728z M23.278,75.888
	c-1.61,2.545-3.39,5.644-3.719,8.376c-0.303,2.508,0.103,5.098,1.671,7.14c1.39,1.81,3.501,2.889,5.79,2.887
	c2.29,0.002,4.402-1.077,5.791-2.886c1.569-2.044,1.975-4.634,1.673-7.142c-0.335-2.778-2.172-5.934-3.799-8.501
	c-0.529-0.834-1.067-1.677-1.608-2.518c1.722-2.686,3.446-5.366,5.168-8.047l2.909,4.53c1.027,1.597,2.534,2.769,4.484,2.869
	c3.391,0.175,6.238-2.905,7.458-5.791c1.083-2.565,1.213-5.538-0.337-7.952l-0.646-1.003l-4.573-7.124l4.573-7.122l0.646-1.003
	c1.549-2.411,1.42-5.386,0.337-7.95c-1.22-2.886-4.067-5.966-7.458-5.792c-1.951,0.101-3.458,1.273-4.482,2.87l-2.912,4.53
	c-1.722-2.682-3.447-5.362-5.168-8.045c0.406-0.636,0.797-1.259,1.199-1.881c1.715-2.669,3.843-6.126,4.208-9.142
	c0.303-2.506-0.104-5.097-1.673-7.14c-1.388-1.81-3.501-2.887-5.791-2.887c-2.287-0.001-4.4,1.077-5.79,2.889
	c-1.567,2.042-1.975,4.632-1.671,7.139c0.367,3.039,2.528,6.531,4.249,9.208c0.386,0.6,0.766,1.204,1.157,1.815
	c-1.724,2.682-3.444,5.365-5.167,8.046l-2.912-4.532c-1.027-1.597-2.532-2.769-4.483-2.87c-3.391-0.174-6.241,2.906-7.458,5.792
	c-1.085,2.564-1.211,5.539,0.338,7.95l0.643,1.003l4.576,7.125L5.927,57.85l-0.645,1.005c-1.549,2.413-1.421,5.387-0.336,7.952
	c1.219,2.886,4.066,5.966,7.458,5.792c1.951-0.101,3.456-1.273,4.483-2.87l2.912-4.532c1.722,2.683,3.443,5.365,5.167,8.048
	C24.395,74.131,23.833,75.01,23.278,75.888L23.278,75.888z M27.023,76.42c1.423,2.208,3.75,5.798,4.045,8.26
	c0.997,8.232-9.089,8.233-8.095-0.001C23.27,82.218,25.599,78.628,27.023,76.42L27.023,76.42z M27.023,25.039
	c1.421-2.208,3.75-5.798,4.045-8.26c0.997-8.233-9.091-8.233-8.095,0.001C23.27,19.242,25.599,22.831,27.023,25.039L27.023,25.039z
	 M39.412,50.728l-5.167,8.046l-5.168-8.046l5.168-8.044L39.412,50.728L39.412,50.728z M27.023,53.952l5.161,8.034l-5.161,8.034
	l-5.163-8.034L27.023,53.952L27.023,53.952z M27.023,31.439l5.16,8.034l-5.163,8.034l-5.16-8.034L27.023,31.439L27.023,31.439z
	 M41.476,47.519l4.363-6.792c0.249-0.387,0.418-0.812,0.512-1.259c0.242-1.148,0-2.395-0.452-3.465
	c-0.603-1.426-2.315-3.768-4.082-3.677c-0.778,0.042-1.348,0.667-1.743,1.281l-3.767,5.866
	C38.03,42.155,39.754,44.837,41.476,47.519L41.476,47.519z M41.477,53.939l4.362,6.793c0.25,0.387,0.415,0.811,0.512,1.259
	c0.242,1.148,0,2.395-0.452,3.464c-0.603,1.426-2.315,3.768-4.082,3.678c-0.778-0.04-1.348-0.667-1.743-1.281l-3.767-5.866
	C38.03,59.304,39.754,56.621,41.477,53.939L41.477,53.939z M12.566,47.519l-4.363-6.792c-0.247-0.387-0.417-0.812-0.511-1.259
	c-0.242-1.148,0-2.395,0.451-3.465c0.603-1.426,2.316-3.768,4.082-3.677c0.778,0.042,1.348,0.667,1.742,1.278l3.769,5.869
	C16.013,42.155,14.288,44.838,12.566,47.519L12.566,47.519z M12.566,53.939l-4.363,6.793c-0.249,0.387-0.416,0.809-0.511,1.259
	c-0.242,1.148,0,2.395,0.451,3.464c0.603,1.425,2.316,3.768,4.082,3.676c0.778-0.039,1.348-0.667,1.742-1.28l3.768-5.866
	C16.013,59.303,14.288,56.621,12.566,53.939L12.566,53.939z"/>
</svg>
