<?xml version="1.0" encoding="utf-8"?>
<!-- Generator: Adobe Illustrator 17.0.0, SVG Export Plug-In . SVG Version: 6.00 Build 0)  -->
<!DOCTYPE svg PUBLIC "-//W3C//DTD SVG 1.1//EN" "http://www.w3.org/Graphics/SVG/1.1/DTD/svg11.dtd">
<svg version="1.1" id="图层_1" xmlns="http://www.w3.org/2000/svg" xmlns:xlink="http://www.w3.org/1999/xlink" x="0px" y="0px"
	 width="31px" height="32.031px" viewBox="0 0 31 32.031" enable-background="new 0 0 31 32.031" xml:space="preserve">
<path fill="#474849" d="M9,2L7.686,2.442L6,4h6l1.971-1.422l2.235,2.306H8.663c1.397,0.634,2.211,1.176,2.445,1.628
	c0.231,0.454,0.349,0.769,0.349,0.949c0,0.183-0.094,0.454-0.28,0.814c-0.187,0.363-0.467,0.59-0.838,0.679
	C9.966,9.045,9.732,8.774,9.641,8.14C9.453,7.597,9.244,7.078,9.012,6.58C8.779,6.084,8.384,5.518,7.825,4.884H5.73
	c-0.653,0.542-1.397,1.268-2.235,2.17C2.563,8.051,1.492,9,0.283,9.903l-0.28-0.407c1.209-1.265,2.396-2.757,3.562-4.477
	C4.728,3.303,5.59,1.628,6.149,0L9,2z M6,14C5.547,24.453,5.509,27.101,6,31l-3,1c0.091-4.158,0-7.795,0-12c0-4.206,0.091-7.552,0-9
	l4,1L6,14z M5.87,8.004c2.141,1.085,3.374,1.878,3.701,2.374c0.325,0.498,0.489,0.929,0.489,1.289c0,0.271-0.094,0.589-0.279,0.949
	c-0.188,0.363-0.468,0.634-0.838,0.814c-0.374,0.183-0.607-0.044-0.699-0.678c-0.188-0.543-0.467-1.174-0.838-1.899
	C7.033,10.13,6.429,9.361,5.59,8.547L5.87,8.004z M10,28c0.414-3.29,0.303-6.143,0-9c-0.3-2.827,0.099-4.724,0-6l2.419,1.3h6.362
	l0.908-1.471l3.22,1.955L21,16c0,5.788-0.144,9.3,0.697,10.406L19,27v-1h-7l0.419,1.393L10,28z M21,28c1.676,0.18,2.302,0.953,3,1
	c0.698,0.044,0.627,0.089,1,0c0.371-0.091,1-0.457,1-1V11H16c-0.747,0-1.977,0.729-3,1l-0.984-1.961h14.246l1.257-1.221l1.956,1.899
	L28,12v17c0,0.631,0.078,0.686-0.201,1.185c-0.28,0.495-2.14,1.377-3.349,1.831c-0.373-1.357-2.004-2.306-4.888-2.849L21,28z M12,15
	v4h7v-4H12z M12,20v5h7v-5H12z M21.793,1.899l-1.257,0.543L20,4h7l1.777-1.422l2.234,2.306h-9.218
	c1.676,0.814,2.584,1.38,2.723,1.696c0.14,0.318,0.21,0.566,0.21,0.746c0,0.182-0.048,0.386-0.14,0.61
	c-0.094,0.227-0.258,0.431-0.489,0.611c-0.233,0.182-0.397,0.271-0.489,0.271c-0.187,0-0.349-0.157-0.488-0.475
	c-0.14-0.316-0.304-0.79-0.489-1.424c-0.188-0.543-0.653-1.221-1.397-2.035H18.86c-1.397,1.448-2.888,2.804-4.47,4.07l-0.419-0.407
	c1.397-1.537,2.536-3.097,3.422-4.681c0.884-1.581,1.512-2.825,1.886-3.73L21.793,1.899z"/>
</svg>
