<?xml version="1.0" encoding="utf-8"?><!DOCTYPE svg PUBLIC "-//W3C//DTD SVG 1.1//EN" "http://www.w3.org/Graphics/SVG/1.1/DTD/svg11.dtd"><svg version="1.1" baseProfile="full" xmlns="http://www.w3.org/2000/svg" xmlns:xlink="http://www.w3.org/1999/xlink" xmlns:ev="http://www.w3.org/2001/xml-events"   height="64px"   width="74px" ><path fill="rgb( 255, 243, 185 )" d="M25,40 C25,40 49,40 49,40 C49,40 59,64 59,64 C59,64 15,64 15,64 C15,64 25,40 25,40 Z "/><path fill="rgb( 126, 140, 166 )" d="M37,11 C57.435,11 74,17.716 74,26 C74,34.284 57.435,41 37,41 C16.565,41 0,34.284 0,26 C0,17.716 16.565,11 37,11 Z "/><path fill="rgb( 86, 98, 122 )" d="M57,32 C53.686,32 51,29.314 51,26 C51,22.686 53.686,20 57,20 C60.314,20 63,22.686 63,26 C63,29.314 60.314,32 57,32 ZM37,32 C33.686,32 31,29.314 31,26 C31,22.686 33.686,20 37,20 C40.314,20 43,22.686 43,26 C43,29.314 40.314,32 37,32 ZM17,32 C13.686,32 11,29.314 11,26 C11,22.686 13.686,20 17,20 C20.314,20 23,22.686 23,26 C23,29.314 20.314,32 17,32 Z "/><path fill="rgb( 141, 221, 255 )" d="M25,12 C25,5.37299999999999 30.373,0 37,0 C43.627,0 49,5.37299999999999 49,12 C49,12 25,12 25,12 Z "/></svg>