<?xml version="1.0" encoding="iso-8859-1"?>
<!-- Generator: Adobe Illustrator 17.0.0, SVG Export Plug-In . SVG Version: 6.00 Build 0)  -->
<!DOCTYPE svg PUBLIC "-//W3C//DTD SVG 1.1//EN" "http://www.w3.org/Graphics/SVG/1.1/DTD/svg11.dtd">
<svg version="1.1" id="Layer_1" xmlns="http://www.w3.org/2000/svg" xmlns:xlink="http://www.w3.org/1999/xlink" x="0px" y="0px"
	 width="293.458px" height="78.255px" viewBox="0 0 293.458 78.255" style="enable-background:new 0 0 293.458 78.255;"
	 xml:space="preserve">
<path style="fill:#EAA62F;" d="M293.447,34.473c-0.013,0.22-0.017,0.439-0.039,0.658l-0.066,0.655l-0.005,0.041l-0.011,0.083
	l-0.003,0.018l-0.015,0.075l-0.026,0.149l-0.053,0.299l-0.108,0.597c-0.112,0.442-0.246,0.902-0.374,1.349
	c-0.163,0.417-0.328,0.833-0.501,1.244c-0.21,0.394-0.404,0.797-0.63,1.181l-0.366,0.56c-0.126,0.184-0.234,0.38-0.38,0.548
	c-1.07,1.424-2.431,2.617-3.969,3.49c-1.538,0.875-3.254,1.428-5.007,1.607c-0.435,0.072-0.878,0.051-1.316,0.068l-0.329,0.005
	c-0.11-0.001-0.221-0.014-0.329-0.022l-0.655-0.052l-0.328-0.029l-0.02-0.002c0.004,0.001-0.107-0.014-0.069-0.009l-0.037-0.007
	l-0.074-0.015l-0.15-0.028l-0.597-0.113c-0.094-0.013-0.219-0.057-0.328-0.085l-0.336-0.097c-0.221-0.069-0.455-0.125-0.655-0.215
	l-0.618-0.253c-0.105-0.039-0.204-0.088-0.301-0.142l-0.296-0.157l-0.295-0.155l-0.146-0.079l-0.141-0.092l-0.555-0.368
	l-0.138-0.092l-0.13-0.104l-0.259-0.209l-0.256-0.209l-0.129-0.105l-0.118-0.116l-0.472-0.466c-0.082-0.075-0.155-0.158-0.225-0.243
	l-0.212-0.254c-1.146-1.342-1.893-2.995-2.219-4.71c-0.026-0.106-0.042-0.214-0.052-0.324l-0.039-0.325l-0.037-0.325
	c-0.016-0.108-0.023-0.218-0.022-0.327c-0.001-0.436-0.025-0.872,0.031-1.303l0.029-0.324l0.016-0.162l0.008-0.081l0.001-0.02
	c0.011-0.075,0.005-0.031,0.009-0.053l0.008-0.038l0.116-0.596c0.015-0.094,0.051-0.208,0.083-0.318l0.097-0.328
	c0.034-0.108,0.063-0.222,0.103-0.324l0.126-0.305c0.649-1.634,1.872-2.996,3.346-3.885c0.737-0.449,1.556-0.752,2.392-0.93
	c0.835-0.177,1.698-0.228,2.539-0.117l0.157,0.015l0.078,0.008l0.038,0.004l0.017,0.004l0.037,0.007l0.299,0.059
	c0.1,0.023,0.195,0.036,0.299,0.066l0.315,0.095c0.103,0.034,0.211,0.059,0.31,0.101l0.294,0.124
	c0.198,0.075,0.384,0.179,0.569,0.281c0.739,0.412,1.388,0.973,1.896,1.637c0.508,0.663,0.877,1.423,1.081,2.221
	c0.209,0.797,0.237,1.633,0.11,2.432c0.06-0.808-0.041-1.622-0.296-2.377c-0.255-0.755-0.662-1.451-1.185-2.037
	c-0.524-0.585-1.157-1.062-1.855-1.397c-0.175-0.082-0.349-0.167-0.533-0.222l-0.272-0.095c-0.092-0.032-0.183-0.046-0.273-0.071
	l-0.272-0.065c-0.089-0.022-0.197-0.03-0.296-0.045l-0.301-0.041l-0.037-0.006l-0.02-0.002c0.028,0.005-0.002,0.002,0,0.002
	L279,29.288l-0.146-0.004c-0.772-0.053-1.546,0.045-2.281,0.249l-0.275,0.075c-0.091,0.028-0.178,0.068-0.268,0.101l-0.267,0.102
	c-0.09,0.032-0.177,0.068-0.261,0.113c-0.17,0.086-0.342,0.166-0.51,0.253l-0.484,0.298c-1.25,0.849-2.237,2.08-2.71,3.492
	l-0.095,0.262c-0.028,0.088-0.043,0.173-0.064,0.259l-0.064,0.256c-0.021,0.086-0.047,0.166-0.058,0.272l-0.085,0.602l-0.006,0.037
	c0.002-0.009-0.007,0.046,0.003-0.014l-0.001,0.018l-0.003,0.07l-0.005,0.141l-0.01,0.282c-0.033,0.376,0.014,0.75,0.031,1.123
	l0.009,0.14l0.022,0.138l0.045,0.277l0.043,0.276c0.013,0.092,0.029,0.183,0.057,0.273c0.34,1.45,1.026,2.818,2.035,3.899
	l0.187,0.205c0.059,0.07,0.124,0.136,0.194,0.195l0.408,0.372l0.103,0.092l0.11,0.083l0.221,0.165l0.22,0.165l0.11,0.082l0.118,0.07
	l0.47,0.285l0.117,0.071l0.124,0.059l0.247,0.117l0.247,0.119c0.081,0.041,0.164,0.079,0.252,0.106l0.514,0.185
	c0.172,0.073,0.338,0.097,0.505,0.144l0.248,0.063c0.089,0.02,0.153,0.05,0.263,0.06l0.6,0.089l0.15,0.022l0.075,0.011l0.038,0.006
	c0.05,0.007-0.048-0.007-0.031-0.006l0.018,0.001l0.277,0.013l0.557,0.028c0.093,0.003,0.186,0.014,0.277,0.011l0.277-0.015
	c0.369-0.027,0.741-0.015,1.104-0.09c1.463-0.194,2.878-0.699,4.131-1.463c1.256-0.761,2.348-1.782,3.188-2.972
	c0.119-0.139,0.198-0.306,0.298-0.458l0.286-0.465c0.174-0.319,0.319-0.653,0.483-0.976l0.379-1.02l0.261-0.996l0.096-0.6l0.048-0.3
	l0.023-0.15l0.005-0.033c0,0.003,0-0.001,0.002-0.016l0.003-0.035l0.044-0.554c0.017-0.186,0.014-0.371,0.022-0.555
	c0.014-0.741-0.028-1.481-0.133-2.212c-0.11-0.729-0.278-1.451-0.503-2.152c-0.221-0.704-0.5-1.389-0.839-2.042
	c-0.674-1.308-1.555-2.513-2.615-3.531c-1.055-1.022-2.273-1.872-3.6-2.496c-1.306-0.628-2.722-1.012-4.159-1.189l-0.017,0
	l-0.097-0.002l-0.151-0.026c-0.047-0.007-0.191-0.027-0.297-0.04c-0.118-0.012-0.236-0.026-0.358-0.035
	c-0.245-0.021-0.494-0.032-0.746-0.043c-0.505-0.01-1.015-0.013-1.529,0.012c-1.029,0.042-2.064,0.154-3.098,0.31
	c-2.065,0.328-4.116,0.838-6.123,1.512c-2.011,0.662-3.982,1.467-5.909,2.377c-1.93,0.903-3.803,1.943-5.642,3.038
	c-0.457,0.281-0.923,0.544-1.371,0.839l-1.353,0.871c-0.453,0.288-0.889,0.604-1.333,0.904c-0.442,0.307-0.891,0.601-1.32,0.925
	c-0.869,0.633-1.743,1.261-2.59,1.927c-0.425,0.331-0.857,0.65-1.276,0.99l-1.254,1.021l-0.627,0.51l-0.612,0.523l-1.22,1.048
	c-0.409,0.342-0.812,0.721-1.219,1.083l-1.217,1.097l-0.611,0.542l-0.632,0.555c-0.426,0.364-0.833,0.751-1.279,1.089l-1.314,1.042
	l-0.329,0.26l-0.341,0.246l-0.68,0.488c-0.112,0.082-0.228,0.158-0.341,0.238c0.666-0.078,1.406-0.113,2.225-0.055
	c1.288,0.094,2.753,0.401,4.233,1.075c1.477,0.668,2.976,1.692,4.242,3.109c0.637,0.704,1.203,1.509,1.689,2.385l0.183,0.331
	l0.167,0.341c0.115,0.225,0.209,0.462,0.309,0.699l0.074,0.178l0.077,0.227l0.112,0.334l0.112,0.336
	c0.018,0.059,0.04,0.104,0.056,0.177l0.048,0.207c0.062,0.277,0.125,0.556,0.188,0.836c0.045,0.274,0.07,0.54,0.102,0.814
	c0.013,0.136,0.035,0.272,0.039,0.41l0.006,0.413l0.005,0.416l0.002,0.208l-0.018,0.207c-0.044,1.114-0.309,2.225-0.706,3.289
	c-0.395,1.068-0.974,2.079-1.703,2.975c-0.725,0.899-1.582,1.707-2.564,2.332c-0.122,0.079-0.238,0.168-0.365,0.236l-0.384,0.207
	c-0.259,0.133-0.507,0.289-0.778,0.389l-0.803,0.33l-0.024,0.01l-0.093,0.029l-0.045,0.014l-0.092,0.027l-0.181,0.054l-0.362,0.108
	c-0.054,0.02-0.138,0.036-0.215,0.053l-0.236,0.048l-0.473,0.091c-0.162,0.037-0.302,0.037-0.453,0.053l-0.443,0.036
	c-0.147,0.016-0.296,0.009-0.444,0.008l-0.443-0.008c-0.147,0.001-0.294-0.017-0.441-0.034l-0.438-0.05
	c-2.335-0.325-4.441-1.598-5.804-3.335l-0.257-0.326c-0.077-0.114-0.149-0.23-0.225-0.344c-0.147-0.231-0.299-0.457-0.414-0.702
	l-0.183-0.36l-0.09-0.179l-0.073-0.187l-0.143-0.372l-0.069-0.186l-0.034-0.092l-0.01-0.023c0.001,0.004-0.04-0.124-0.025-0.08
	l-0.01-0.041l-0.088-0.33l-0.043-0.165c-0.008-0.029-0.015-0.053-0.021-0.085l-0.02-0.107c-0.025-0.143-0.049-0.285-0.074-0.426
	c-0.024-0.143-0.047-0.284-0.051-0.414c-0.043-0.525-0.042-1.05,0.031-1.556c0.135-1.013,0.473-1.96,0.957-2.771
	c0.487-0.811,1.109-1.491,1.798-2.008c0.69-0.517,1.434-0.889,2.171-1.109l0.034-0.011l0.017-0.007
	c0.072-0.023,0.028-0.008,0.05-0.014l0.062-0.014l0.126-0.029c0.083-0.02,0.167-0.039,0.248-0.057
	c0.179-0.036,0.393-0.061,0.582-0.087c0.189-0.02,0.367-0.017,0.547-0.024c0.178-0.004,0.354,0.021,0.524,0.031
	c0.685,0.075,1.299,0.268,1.817,0.526c0.264,0.122,0.494,0.276,0.714,0.419c0.208,0.162,0.41,0.306,0.575,0.477
	c0.686,0.649,1.017,1.312,1.197,1.757c0.102,0.22,0.138,0.405,0.175,0.521c0.034,0.12,0.053,0.181,0.053,0.181
	s-0.032-0.056-0.093-0.164c-0.064-0.106-0.141-0.27-0.281-0.46c-0.255-0.39-0.708-0.922-1.413-1.38
	c-0.693-0.462-1.685-0.808-2.784-0.76c-0.138,0.015-0.276,0.016-0.416,0.04c-0.138,0.026-0.283,0.043-0.416,0.078
	c-0.132,0.041-0.247,0.064-0.395,0.115c-0.079,0.03-0.159,0.06-0.238,0.09l-0.12,0.047l-0.061,0.022
	c0.011-0.002-0.043,0.015,0.02-0.005l-0.014,0.007l-0.025,0.013c-0.564,0.258-1.104,0.618-1.575,1.077
	c-0.951,0.905-1.615,2.251-1.666,3.694c-0.017,0.36,0.012,0.723,0.068,1.082c0.008,0.095,0.031,0.174,0.052,0.252l0.057,0.237
	l0.012,0.059c0.006,0.022,0.018,0.052,0.025,0.078l0.056,0.161l0.112,0.324l0.012,0.032c-0.006-0.018-0.013-0.039-0.01-0.031
	l0.009,0.017l0.031,0.066l0.062,0.132l0.124,0.265l0.061,0.133l0.076,0.126l0.148,0.253c0.091,0.174,0.215,0.329,0.331,0.488
	l0.175,0.24l0.199,0.22c0.529,0.589,1.165,1.098,1.883,1.475c0.718,0.374,1.509,0.622,2.32,0.721l0.306,0.027
	c0.103,0.01,0.204,0.022,0.307,0.015l0.307-0.004c0.102-0.001,0.206,0.006,0.308-0.013l0.307-0.034
	c0.098-0.014,0.212-0.014,0.295-0.039l0.268-0.054l0.136-0.023c0.044-0.007,0.086-0.012,0.152-0.035l0.65-0.201l0.598-0.254
	c0.204-0.073,0.383-0.196,0.575-0.295l0.284-0.153c0.098-0.051,0.18-0.121,0.271-0.179c0.735-0.454,1.374-1.052,1.918-1.716
	c0.136-0.167,0.281-0.327,0.393-0.512c0.117-0.18,0.249-0.352,0.359-0.536l0.31-0.564c0.103-0.189,0.173-0.392,0.263-0.586
	c0.04-0.099,0.092-0.194,0.123-0.295l0.097-0.305c0.063-0.204,0.143-0.403,0.179-0.612c0.048-0.208,0.095-0.415,0.141-0.621
	c0.026-0.209,0.054-0.419,0.081-0.627l0.02-0.157l0.005-0.157l0.009-0.314l0.012-0.314c0.002-0.105-0.014-0.208-0.018-0.312
	c-0.02-0.206-0.023-0.42-0.043-0.619c-0.031-0.189-0.061-0.378-0.089-0.568l-0.019-0.142c-0.002-0.045-0.027-0.111-0.04-0.165
	l-0.094-0.342l-0.091-0.34l-0.023-0.084l-0.012-0.042l-0.005-0.016l-0.04-0.113c-0.069-0.198-0.136-0.397-0.218-0.589l-0.114-0.29
	l-0.129-0.283c-0.343-0.752-0.77-1.445-1.241-2.083c-0.951-1.273-2.128-2.279-3.342-3.011c-1.214-0.741-2.471-1.193-3.621-1.455
	c-0.576-0.138-1.129-0.202-1.645-0.258c-0.257-0.016-0.506-0.042-0.744-0.042c-0.12-0.003-0.235-0.006-0.35-0.008
	c-0.114,0.002-0.226,0.004-0.335,0.006c-0.026,0.001-0.047,0.003-0.073,0.004c-1.376,0.92-2.796,1.767-4.227,2.585
	c-0.982,0.522-1.947,1.072-2.949,1.546c-0.498,0.243-0.993,0.497-1.494,0.729l-1.514,0.685c-0.502,0.235-1.015,0.445-1.524,0.656
	c-0.512,0.208-1.018,0.43-1.536,0.628c-1.035,0.383-2.064,0.791-3.111,1.137c-2.082,0.733-4.196,1.361-6.317,1.948
	c-2.122,0.588-4.269,1.075-6.42,1.519c-2.153,0.44-4.317,0.811-6.487,1.131c-2.173,0.307-4.351,0.557-6.532,0.747
	c-2.185,0.178-4.372,0.314-6.56,0.319c2.178-0.19,4.344-0.475,6.5-0.805c2.157-0.325,4.304-0.709,6.436-1.15
	c2.134-0.433,4.259-0.908,6.362-1.456c0.528-0.13,1.05-0.282,1.574-0.421l0.787-0.213l0.782-0.227l1.562-0.456l1.555-0.481
	c2.064-0.664,4.116-1.365,6.124-2.168c1.013-0.38,2.002-0.82,2.998-1.235l1.477-0.662c0.493-0.22,0.986-0.439,1.467-0.682
	l1.453-0.71c0.48-0.242,0.951-0.501,1.429-0.751c0.96-0.489,1.877-1.049,2.811-1.581c1.83-1.12,3.634-2.284,5.323-3.591l0.642-0.48
	l0.319-0.241l0.309-0.255l1.232-1.019c0.421-0.329,0.796-0.707,1.193-1.061l0.589-0.538l0.604-0.558l1.194-1.123
	c0.4-0.373,0.789-0.748,1.212-1.115l1.249-1.106l0.626-0.552l0.637-0.533l1.271-1.068c0.426-0.355,0.867-0.691,1.299-1.038
	c0.437-0.341,0.861-0.697,1.309-1.025l1.335-0.992c0.44-0.337,0.902-0.647,1.355-0.968c0.458-0.315,0.905-0.645,1.371-0.948
	l1.395-0.916c0.463-0.31,0.945-0.588,1.416-0.883c1.901-1.162,3.855-2.247,5.879-3.204c1.304-0.621,2.642-1.177,3.994-1.699
	c0.004-0.005,0.007-0.009,0.011-0.014c0.149-0.186,0.284-0.397,0.433-0.608c0.277-0.438,0.573-0.91,0.824-1.445
	c0.513-1.063,0.942-2.328,1.122-3.738c0.185-1.406,0.133-2.953-0.269-4.49c-0.203-0.767-0.479-1.533-0.853-2.27l-0.141-0.277
	l-0.154-0.271c-0.099-0.183-0.214-0.359-0.324-0.537l-0.061-0.1c0,0,0.001,0.002,0,0.001l-0.013-0.017l-0.025-0.036l-0.053-0.071
	l-0.208-0.284l-0.209-0.285c-0.034-0.044-0.071-0.104-0.103-0.136l-0.101-0.104c-0.131-0.139-0.26-0.28-0.389-0.422
	c-0.143-0.14-0.308-0.277-0.457-0.419c-0.078-0.069-0.149-0.147-0.232-0.209l-0.253-0.188l-0.252-0.188l-0.124-0.095l-0.136-0.082
	c-0.181-0.109-0.36-0.219-0.541-0.33c-0.19-0.091-0.381-0.184-0.573-0.276c-0.187-0.101-0.391-0.164-0.589-0.242l-0.299-0.114
	c-0.101-0.04-0.206-0.058-0.309-0.089c-0.207-0.05-0.41-0.123-0.621-0.16c-0.212-0.036-0.423-0.073-0.635-0.109
	c-0.212-0.028-0.429-0.034-0.643-0.054c-0.213-0.029-0.43-0.015-0.646-0.014c-0.858,0.012-1.725,0.138-2.537,0.429
	c-0.102,0.036-0.21,0.056-0.309,0.1l-0.298,0.126c-0.196,0.088-0.405,0.151-0.59,0.266l-0.57,0.309l-0.563,0.383
	c-0.059,0.037-0.089,0.066-0.123,0.097l-0.102,0.09l-0.209,0.177c-0.071,0.05-0.144,0.138-0.215,0.207l-0.218,0.219
	c-0.077,0.068-0.136,0.153-0.202,0.232l-0.193,0.238c-0.069,0.077-0.124,0.164-0.18,0.25l-0.17,0.256
	c-0.43,0.695-0.729,1.468-0.885,2.262c-0.153,0.796-0.152,1.61-0.023,2.392l0.048,0.293l0.078,0.285
	c0.052,0.19,0.096,0.384,0.176,0.563l0.104,0.274l0.052,0.138l0.067,0.13l0.129,0.262l0.064,0.132l0.031,0.066l0.008,0.017
	c0.005,0.009-0.009-0.013-0.02-0.03l0.02,0.034l0.183,0.289l0.093,0.144c0.014,0.023,0.03,0.051,0.044,0.068l0.039,0.048
	l0.149,0.191c0.049,0.065,0.096,0.131,0.165,0.197c0.244,0.269,0.512,0.517,0.803,0.728c1.159,0.861,2.624,1.182,3.926,1.004
	c0.654-0.083,1.271-0.281,1.823-0.559l0.027-0.012l0.014-0.006c-0.055,0.037-0.007,0.006-0.017,0.012l0.057-0.033l0.11-0.065
	c0.074-0.044,0.147-0.087,0.22-0.13c0.132-0.083,0.224-0.16,0.338-0.237c0.109-0.083,0.213-0.186,0.321-0.276
	c0.104-0.093,0.192-0.201,0.289-0.299c0.725-0.832,1.074-1.82,1.144-2.652c0.082-0.835-0.052-1.522-0.197-1.964
	c-0.06-0.229-0.14-0.392-0.184-0.507c-0.046-0.115-0.07-0.174-0.07-0.174s0.038,0.051,0.108,0.152
	c0.068,0.103,0.19,0.246,0.299,0.463c0.235,0.418,0.547,1.091,0.626,2.032c0.031,0.235,0.018,0.484,0.015,0.747
	c-0.026,0.262-0.051,0.538-0.118,0.82c-0.123,0.566-0.356,1.166-0.724,1.748c-0.099,0.14-0.19,0.293-0.303,0.43
	c-0.118,0.135-0.226,0.276-0.361,0.413c-0.138,0.13-0.291,0.282-0.429,0.399c-0.067,0.053-0.133,0.107-0.2,0.159l-0.101,0.08
	l-0.05,0.04c-0.018,0.012,0.019-0.013-0.043,0.03l-0.016,0.009l-0.03,0.019c-0.633,0.44-1.386,0.789-2.221,1.005
	c-0.835,0.215-1.755,0.275-2.69,0.151c-0.937-0.126-1.887-0.453-2.763-0.98c-0.441-0.259-0.852-0.585-1.235-0.947
	c-0.099-0.083-0.195-0.188-0.291-0.296l-0.286-0.323l-0.072-0.083c-0.02-0.026-0.034-0.046-0.054-0.07l-0.101-0.136l-0.205-0.274
	l-0.025-0.034c0.025,0.04-0.049-0.073-0.046-0.069l-0.013-0.021l-0.051-0.085l-0.101-0.17l-0.203-0.343l-0.101-0.174l-0.084-0.182
	l-0.167-0.368c-0.119-0.243-0.202-0.502-0.29-0.762c-0.042-0.13-0.088-0.26-0.128-0.391l-0.094-0.402
	c-0.509-2.149-0.188-4.591,1.015-6.617l0.233-0.375c0.079-0.125,0.155-0.251,0.249-0.365l0.272-0.351
	c0.091-0.116,0.177-0.237,0.283-0.342l0.305-0.324c0.107-0.108,0.193-0.218,0.323-0.321l0.366-0.312l0.187-0.155
	c0.061-0.051,0.126-0.106,0.173-0.135l0.311-0.216l0.156-0.108l0.077-0.054l0.039-0.027l0.08-0.053l0.023-0.014l0.76-0.421
	c0.249-0.15,0.523-0.247,0.789-0.367l0.4-0.169c0.134-0.058,0.276-0.093,0.413-0.138c1.102-0.377,2.269-0.544,3.421-0.55
	c1.156-0.011,2.308,0.169,3.388,0.526c1.079,0.354,2.113,0.84,3.011,1.5l0.172,0.116l0.163,0.13l0.321,0.263l0.318,0.263
	c0.105,0.088,0.197,0.191,0.297,0.286c0.193,0.194,0.386,0.381,0.571,0.588c0.181,0.224,0.358,0.446,0.537,0.667l0.131,0.168
	c0.047,0.057,0.068,0.101,0.104,0.152l0.192,0.297l0.191,0.296l0.129,0.202l0.092,0.168c0.123,0.226,0.25,0.447,0.354,0.678
	l0.161,0.343l0.146,0.349c0.38,0.928,0.657,1.872,0.81,2.809c0.315,1.874,0.181,3.684-0.219,5.255
	c-0.397,1.578-1.071,2.914-1.801,3.979c-0.241,0.349-0.489,0.66-0.737,0.953c0.255-0.09,0.504-0.196,0.761-0.282
	c2.139-0.709,4.342-1.254,6.595-1.605c1.127-0.167,2.267-0.286,3.422-0.33c0.577-0.027,1.159-0.022,1.746-0.003
	c0.294,0.015,0.59,0.032,0.89,0.06c0.149,0.012,0.303,0.031,0.456,0.049c0.12,0.017,0.231,0.033,0.364,0.055l0.003,0l0.076,0.002
	l0.056,0.007c1.757,0.225,3.489,0.713,5.083,1.496c0.797,0.387,1.565,0.837,2.288,1.349c0.72,0.516,1.396,1.091,2.023,1.715
	c1.257,1.245,2.293,2.707,3.075,4.287c0.79,1.58,1.289,3.299,1.515,5.046C293.449,32.714,293.482,33.595,293.447,34.473z
	 M272.304,69.484c-0.645,0.597-1.645,1.415-3.012,2.295c-1.378,0.863-3.143,1.755-5.274,2.482c-2.128,0.728-4.617,1.28-7.365,1.595
	c-2.749,0.319-5.76,0.392-8.934,0.222c-3.175-0.167-6.513-0.57-9.936-1.186c-1.709-0.314-3.442-0.667-5.187-1.077
	c-0.872-0.202-1.746-0.422-2.623-0.65c-0.878-0.226-1.755-0.465-2.637-0.713c-3.514-1.007-7.05-2.173-10.525-3.498
	c-1.74-0.654-3.468-1.35-5.171-2.078c-0.85-0.366-1.703-0.735-2.538-1.111c-0.416-0.184-0.837-0.376-1.261-0.572
	c-0.21-0.095-0.425-0.198-0.631-0.287l-0.649-0.289c-0.433-0.191-0.864-0.382-1.295-0.572c-0.214-0.099-0.432-0.186-0.652-0.272
	l-0.654-0.258c-0.437-0.17-0.871-0.342-1.306-0.51c-0.44-0.153-0.879-0.306-1.317-0.459c-0.439-0.148-0.87-0.314-1.312-0.444
	c-0.438-0.136-0.878-0.27-1.314-0.405c-0.218-0.067-0.436-0.134-0.653-0.2c-0.22-0.059-0.44-0.118-0.658-0.176
	c-0.439-0.117-0.875-0.231-1.31-0.346c-3.483-0.893-6.922-1.426-10.19-1.731c-3.27-0.302-6.373-0.345-9.224-0.232
	c-1.426,0.065-2.79,0.14-4.081,0.276c-0.647,0.065-1.276,0.13-1.883,0.212c-0.611,0.073-1.202,0.157-1.773,0.243
	c-2.287,0.331-4.258,0.75-5.866,1.139c-1.609,0.385-2.851,0.769-3.694,1.036c-0.843,0.272-1.281,0.447-1.281,0.447
	s0.459-0.113,1.32-0.288c0.863-0.177,2.138-0.396,3.761-0.634c1.624-0.233,3.605-0.443,5.877-0.606
	c0.569-0.039,1.154-0.077,1.759-0.1c0.603-0.033,1.225-0.049,1.862-0.062c0.638-0.019,1.292-0.018,1.96-0.028
	c0.668-0.009,1.354,0.012,2.05,0.018c0.699,0.022,1.41,0.046,2.136,0.081c0.362,0.022,0.727,0.044,1.096,0.067
	c0.369,0.021,0.739,0.045,1.114,0.081c0.748,0.07,1.508,0.121,2.278,0.215c0.385,0.042,0.772,0.084,1.163,0.127
	c0.389,0.054,0.781,0.108,1.176,0.162c3.154,0.44,6.45,1.089,9.776,2.047c0.415,0.123,0.83,0.248,1.248,0.372
	c0.209,0.063,0.418,0.125,0.627,0.188c0.207,0.07,0.415,0.14,0.623,0.209c0.416,0.138,0.834,0.277,1.254,0.416
	c0.42,0.135,0.83,0.305,1.248,0.456c0.415,0.155,0.833,0.312,1.252,0.468c0.412,0.172,0.825,0.345,1.239,0.518
	c0.412,0.179,0.836,0.333,1.243,0.526c0.41,0.188,0.821,0.377,1.232,0.566l0.617,0.283l0.633,0.3c0.418,0.201,0.839,0.4,1.274,0.599
	c0.86,0.402,1.719,0.787,2.589,1.163c1.739,0.752,3.501,1.471,5.278,2.148c3.562,1.339,7.182,2.529,10.804,3.499
	c1.81,0.489,3.621,0.923,5.421,1.299c1.799,0.379,3.588,0.708,5.358,0.968c3.538,0.531,6.999,0.808,10.288,0.831
	c1.644,0.006,3.246-0.045,4.792-0.169c1.544-0.128,3.032-0.315,4.449-0.572c1.417-0.258,2.763-0.571,4.021-0.949
	c1.258-0.377,2.429-0.807,3.502-1.272c1.071-0.468,2.053-0.957,2.915-1.484c0.866-0.521,1.626-1.052,2.289-1.559
	c1.32-1.026,2.217-1.984,2.8-2.649c0.296-0.331,0.501-0.602,0.641-0.783c0.14-0.179,0.213-0.272,0.213-0.272
	s-0.083,0.083-0.245,0.244C272.87,68.951,272.631,69.189,272.304,69.484z M20.867,43.641l0.213-0.254
	c1.146-1.342,1.892-2.995,2.218-4.71c0.028-0.106,0.042-0.214,0.053-0.323l0.039-0.325l0.036-0.325
	c0.015-0.109,0.023-0.217,0.021-0.327c0.002-0.436,0.027-0.871-0.03-1.303l-0.03-0.324l-0.016-0.162l-0.007-0.081l-0.003-0.02
	c-0.009-0.075-0.004-0.032-0.008-0.053l-0.007-0.038L23.229,34.8c-0.015-0.094-0.051-0.208-0.082-0.318l-0.097-0.328
	c-0.036-0.109-0.064-0.222-0.105-0.324l-0.125-0.305c-0.649-1.635-1.871-2.996-3.346-3.885c-0.738-0.449-1.556-0.752-2.391-0.93
	c-0.836-0.177-1.698-0.228-2.539-0.117l-0.157,0.015l-0.08,0.008l-0.036,0.004l-0.019,0.004l-0.038,0.007l-0.297,0.059
	c-0.101,0.023-0.196,0.036-0.301,0.066l-0.314,0.095c-0.104,0.034-0.209,0.059-0.308,0.101l-0.295,0.124
	c-0.198,0.076-0.384,0.179-0.568,0.281c-0.74,0.411-1.389,0.973-1.896,1.637c-0.508,0.663-0.878,1.423-1.082,2.221
	c-0.209,0.798-0.238,1.633-0.11,2.432c-0.059-0.808,0.042-1.622,0.297-2.377c0.254-0.755,0.662-1.451,1.185-2.037
	c0.523-0.585,1.156-1.064,1.854-1.397c0.175-0.082,0.349-0.166,0.533-0.222l0.274-0.095c0.09-0.032,0.181-0.046,0.273-0.071
	l0.271-0.065c0.091-0.022,0.199-0.03,0.297-0.045l0.301-0.041l0.038-0.006l0.018-0.002c-0.028,0.004,0.003,0.002,0.001,0.002
	l0.073-0.002l0.144-0.004c0.771-0.053,1.547,0.044,2.281,0.249l0.275,0.076c0.092,0.028,0.18,0.067,0.269,0.1l0.267,0.102
	c0.091,0.032,0.178,0.068,0.263,0.113c0.169,0.085,0.342,0.166,0.509,0.253l0.483,0.298c1.252,0.849,2.238,2.08,2.711,3.492
	l0.094,0.262c0.03,0.088,0.043,0.173,0.067,0.259l0.062,0.256c0.023,0.086,0.046,0.166,0.058,0.272l0.086,0.602l0.003,0.028v0.013
	l0.002,0.07l0.006,0.141l0.011,0.282c0.032,0.376-0.014,0.75-0.032,1.123l-0.009,0.14l-0.023,0.138l-0.044,0.277l-0.042,0.276
	c-0.013,0.092-0.031,0.183-0.057,0.273c-0.341,1.449-1.027,2.818-2.036,3.899l-0.186,0.205c-0.059,0.07-0.124,0.136-0.194,0.195
	l-0.409,0.372l-0.103,0.092l-0.11,0.083l-0.221,0.165l-0.221,0.165l-0.109,0.082l-0.118,0.07l-0.47,0.285l-0.118,0.071l-0.123,0.059
	l-0.248,0.117l-0.246,0.119c-0.081,0.041-0.165,0.079-0.252,0.106l-0.515,0.185c-0.173,0.073-0.337,0.097-0.504,0.144l-0.25,0.063
	c-0.087,0.02-0.153,0.049-0.261,0.06l-0.601,0.089l-0.15,0.022l-0.075,0.011l-0.038,0.006c-0.05,0.007,0.048-0.007,0.031-0.006
	l-0.018,0.001l-0.278,0.013l-0.555,0.028c-0.093,0.003-0.185,0.014-0.278,0.011l-0.277-0.015c-0.368-0.028-0.741-0.015-1.103-0.09
	c-1.464-0.194-2.878-0.699-4.133-1.463c-1.254-0.761-2.347-1.782-3.188-2.972c-0.117-0.14-0.198-0.306-0.297-0.458l-0.285-0.465
	C3.73,39.31,3.584,38.976,3.42,38.653l-0.379-1.02l-0.262-0.996l-0.095-0.6l-0.048-0.3l-0.023-0.15L2.6,35.512l-0.001-0.02
	c-0.002-0.02,0.016,0.107,0.008,0.045l-0.003-0.035l-0.045-0.554c-0.015-0.186-0.013-0.37-0.021-0.555
	c-0.013-0.741,0.029-1.481,0.134-2.212c0.109-0.729,0.278-1.45,0.502-2.153c0.222-0.702,0.499-1.387,0.839-2.041
	c0.674-1.308,1.555-2.513,2.615-3.531c1.056-1.023,2.275-1.872,3.6-2.496c1.306-0.627,2.72-1.012,4.159-1.189l0.017,0l0.097-0.002
	l0.151-0.026c0.047-0.007,0.191-0.027,0.297-0.04c0.118-0.013,0.236-0.027,0.359-0.035c0.243-0.021,0.494-0.032,0.745-0.043
	c0.506-0.01,1.014-0.012,1.53,0.012c1.028,0.042,2.065,0.154,3.097,0.31c2.065,0.328,4.117,0.839,6.123,1.512
	c2.011,0.662,3.982,1.467,5.909,2.377c1.932,0.903,3.803,1.943,5.643,3.038c0.456,0.281,0.922,0.544,1.371,0.839l1.352,0.871
	c0.452,0.288,0.888,0.604,1.333,0.904c0.441,0.307,0.889,0.602,1.32,0.925c0.868,0.634,1.743,1.261,2.589,1.927
	c0.424,0.33,0.857,0.65,1.276,0.99l1.255,1.021l0.627,0.51l0.612,0.523l1.22,1.048c0.407,0.342,0.811,0.721,1.218,1.083l1.218,1.097
	l0.61,0.542l0.633,0.555c0.425,0.364,0.831,0.751,1.279,1.089l1.314,1.042l0.329,0.26l0.342,0.248l0.679,0.488
	c0.109,0.08,0.223,0.154,0.333,0.232c-0.664-0.077-1.402-0.112-2.219-0.054c-1.287,0.095-2.753,0.402-4.232,1.075
	c-1.477,0.668-2.975,1.692-4.243,3.109c-0.635,0.704-1.203,1.509-1.69,2.385L46.7,50.914l-0.167,0.341
	c-0.116,0.225-0.21,0.463-0.31,0.699l-0.074,0.178l-0.076,0.227l-0.113,0.334l-0.112,0.336c-0.018,0.06-0.039,0.105-0.056,0.177
	l-0.048,0.207c-0.062,0.277-0.124,0.556-0.186,0.836c-0.046,0.274-0.071,0.54-0.103,0.814c-0.013,0.137-0.035,0.273-0.039,0.41
	l-0.006,0.413l-0.004,0.416l-0.002,0.208l0.017,0.207c0.044,1.115,0.309,2.226,0.706,3.289c0.395,1.068,0.974,2.079,1.703,2.975
	c0.723,0.899,1.583,1.707,2.563,2.332c0.122,0.079,0.238,0.168,0.366,0.236l0.384,0.207c0.256,0.133,0.504,0.288,0.777,0.388
	l0.803,0.331l0.025,0.01l0.093,0.029l0.045,0.014l0.091,0.027l0.182,0.054l0.361,0.108c0.053,0.02,0.137,0.036,0.216,0.053
	l0.236,0.048l0.473,0.091c0.161,0.037,0.301,0.037,0.451,0.053l0.444,0.036c0.147,0.016,0.296,0.009,0.444,0.008l0.443-0.008
	c0.148,0.002,0.294-0.016,0.44-0.034l0.44-0.05c2.333-0.325,4.442-1.597,5.805-3.335l0.255-0.326
	c0.079-0.114,0.151-0.23,0.227-0.344c0.147-0.231,0.299-0.456,0.413-0.702l0.184-0.36l0.09-0.179l0.074-0.187l0.141-0.372
	l0.07-0.186l0.034-0.092l0.006-0.021c-0.001,0.004,0.041-0.124,0.025-0.08l0.011-0.041l0.087-0.33l0.043-0.165
	c0.007-0.029,0.016-0.053,0.021-0.086l0.021-0.107c0.025-0.143,0.05-0.285,0.074-0.426c0.025-0.143,0.047-0.285,0.051-0.414
	c0.044-0.526,0.041-1.051-0.03-1.556c-0.136-1.014-0.473-1.961-0.958-2.771c-0.487-0.809-1.11-1.49-1.798-2.008
	c-0.689-0.517-1.433-0.889-2.17-1.109l-0.035-0.011l-0.017-0.007c-0.072-0.023-0.028-0.008-0.049-0.014l-0.063-0.014l-0.126-0.029
	c-0.083-0.019-0.166-0.039-0.248-0.057c-0.179-0.036-0.392-0.062-0.581-0.087c-0.19-0.02-0.367-0.017-0.548-0.024
	c-0.177-0.004-0.352,0.021-0.524,0.031c-0.683,0.075-1.297,0.268-1.817,0.526c-0.263,0.123-0.493,0.276-0.714,0.419
	c-0.208,0.161-0.41,0.306-0.574,0.477c-0.686,0.649-1.019,1.312-1.199,1.757c-0.101,0.22-0.137,0.404-0.174,0.521
	c-0.035,0.12-0.052,0.181-0.052,0.181s0.031-0.056,0.093-0.164c0.061-0.106,0.14-0.27,0.28-0.46c0.256-0.389,0.708-0.922,1.412-1.38
	c0.694-0.463,1.683-0.808,2.786-0.76c0.137,0.015,0.276,0.016,0.414,0.04c0.138,0.026,0.284,0.043,0.417,0.078
	c0.132,0.041,0.249,0.064,0.396,0.115c0.078,0.029,0.158,0.06,0.238,0.09l0.12,0.047l0.061,0.022
	c-0.01-0.002,0.044,0.016-0.019-0.005l0.014,0.007l0.025,0.013c0.562,0.258,1.101,0.618,1.574,1.077
	c0.951,0.905,1.615,2.251,1.665,3.694c0.017,0.36-0.01,0.723-0.068,1.082c-0.008,0.096-0.03,0.175-0.051,0.252l-0.056,0.237
	l-0.014,0.059c-0.004,0.022-0.016,0.052-0.025,0.078l-0.056,0.161l-0.111,0.324l-0.013,0.038c0.006-0.019,0.015-0.046,0.011-0.037
	l-0.009,0.017l-0.031,0.066l-0.062,0.132l-0.125,0.265l-0.061,0.133l-0.075,0.126l-0.147,0.253
	c-0.093,0.174-0.215,0.329-0.331,0.488l-0.175,0.24l-0.199,0.22c-0.531,0.589-1.166,1.099-1.884,1.475
	c-0.717,0.374-1.507,0.622-2.319,0.721l-0.307,0.027c-0.103,0.01-0.203,0.022-0.306,0.015l-0.309-0.004
	c-0.102-0.002-0.204,0.006-0.307-0.013l-0.306-0.034c-0.099-0.014-0.213-0.014-0.296-0.039l-0.268-0.054l-0.135-0.023
	c-0.046-0.008-0.086-0.012-0.152-0.035L53.7,63.769l-0.597-0.254c-0.205-0.072-0.384-0.195-0.576-0.294l-0.285-0.153
	c-0.094-0.051-0.177-0.121-0.269-0.179c-0.733-0.454-1.373-1.051-1.92-1.716c-0.134-0.167-0.28-0.326-0.391-0.512
	c-0.117-0.181-0.248-0.352-0.358-0.536l-0.31-0.564c-0.105-0.189-0.173-0.392-0.264-0.586c-0.04-0.099-0.092-0.194-0.123-0.295
	l-0.097-0.305c-0.063-0.204-0.142-0.404-0.179-0.612c-0.047-0.208-0.095-0.414-0.142-0.621c-0.026-0.209-0.053-0.419-0.079-0.627
	l-0.021-0.157l-0.004-0.157l-0.01-0.314l-0.011-0.315c-0.003-0.104,0.013-0.208,0.018-0.312c0.018-0.206,0.022-0.42,0.043-0.619
	c0.031-0.189,0.061-0.379,0.088-0.568l0.02-0.142c0.003-0.045,0.027-0.111,0.04-0.165l0.092-0.342l0.094-0.34L48.482,53l0.012-0.042
	l0.005-0.016l0.04-0.113c0.07-0.198,0.136-0.397,0.218-0.589l0.115-0.29L49,51.667c0.344-0.751,0.769-1.445,1.241-2.083
	c0.951-1.273,2.127-2.279,3.342-3.011c1.214-0.741,2.471-1.193,3.621-1.455c0.577-0.138,1.129-0.202,1.644-0.258
	c0.258-0.017,0.508-0.043,0.745-0.042c0.121-0.003,0.237-0.006,0.351-0.008c0.114,0.002,0.226,0.004,0.334,0.006
	c0.023,0.001,0.042,0.002,0.064,0.003c1.378,0.922,2.801,1.77,4.236,2.59c0.979,0.522,1.945,1.071,2.948,1.546
	c0.498,0.243,0.991,0.496,1.493,0.729l1.515,0.685c0.5,0.236,1.012,0.445,1.524,0.656c0.512,0.208,1.018,0.43,1.534,0.628
	c1.037,0.383,2.064,0.79,3.112,1.137c2.082,0.733,4.196,1.361,6.317,1.948c2.122,0.588,4.269,1.075,6.42,1.519
	c2.152,0.44,4.317,0.811,6.488,1.131c2.172,0.308,4.349,0.558,6.532,0.747c2.184,0.177,4.371,0.313,6.559,0.317
	c-2.178-0.191-4.344-0.475-6.498-0.8c-2.157-0.325-4.304-0.709-6.436-1.15c-2.133-0.433-4.258-0.909-6.362-1.456
	c-0.527-0.13-1.05-0.282-1.574-0.421l-0.787-0.213l-0.781-0.227l-1.562-0.456l-1.555-0.481c-2.064-0.664-4.116-1.365-6.125-2.168
	c-1.013-0.381-2.001-0.82-2.997-1.235l-1.478-0.662c-0.492-0.221-0.987-0.439-1.468-0.682l-1.451-0.71
	c-0.483-0.241-0.952-0.501-1.43-0.751c-0.959-0.489-1.877-1.049-2.81-1.581c-1.831-1.12-3.635-2.284-5.324-3.591l-0.642-0.481
	l-0.319-0.24l-0.308-0.255l-1.233-1.019c-0.42-0.33-0.796-0.707-1.192-1.061l-0.589-0.538l-0.604-0.558L54.3,36.593
	c-0.4-0.374-0.79-0.748-1.213-1.115l-1.249-1.106l-0.625-0.552l-0.636-0.533l-1.273-1.068c-0.425-0.355-0.865-0.691-1.298-1.038
	c-0.437-0.34-0.862-0.696-1.309-1.025l-1.335-0.993c-0.441-0.336-0.901-0.647-1.355-0.967c-0.458-0.316-0.904-0.645-1.371-0.948
	l-1.395-0.916c-0.462-0.309-0.944-0.588-1.417-0.883c-1.9-1.162-3.855-2.247-5.879-3.204c-1.303-0.621-2.64-1.177-3.992-1.698
	c-0.005-0.007-0.01-0.013-0.015-0.02c-0.151-0.186-0.285-0.397-0.433-0.608c-0.277-0.437-0.574-0.909-0.824-1.445
	c-0.512-1.064-0.944-2.328-1.123-3.738c-0.184-1.406-0.132-2.952,0.268-4.49c0.205-0.767,0.482-1.533,0.855-2.27l0.141-0.277
	l0.154-0.271c0.099-0.183,0.213-0.359,0.324-0.537l0.064-0.103l0.01-0.013L29.4,6.739l0.053-0.071l0.207-0.284l0.208-0.286
	c0.035-0.044,0.072-0.104,0.104-0.136l0.1-0.104c0.131-0.139,0.261-0.279,0.389-0.422c0.143-0.14,0.308-0.277,0.457-0.419
	c0.077-0.069,0.149-0.146,0.233-0.209l0.252-0.188l0.25-0.188l0.127-0.095l0.132-0.083c0.181-0.109,0.36-0.219,0.541-0.33
	c0.19-0.091,0.382-0.184,0.572-0.276c0.189-0.101,0.393-0.164,0.59-0.242l0.3-0.114c0.099-0.04,0.205-0.058,0.308-0.089
	c0.208-0.051,0.41-0.123,0.622-0.16c0.211-0.036,0.422-0.072,0.634-0.109c0.214-0.028,0.429-0.034,0.643-0.054
	c0.214-0.029,0.431-0.015,0.646-0.014c0.859,0.011,1.724,0.138,2.538,0.429c0.102,0.036,0.208,0.056,0.308,0.1l0.298,0.126
	c0.196,0.088,0.405,0.151,0.59,0.266l0.571,0.309l0.564,0.383c0.059,0.037,0.087,0.067,0.122,0.097l0.103,0.09l0.209,0.177
	c0.071,0.051,0.144,0.139,0.215,0.207l0.219,0.218c0.077,0.069,0.136,0.153,0.2,0.232l0.193,0.236
	c0.07,0.077,0.122,0.164,0.178,0.25l0.171,0.256c0.431,0.695,0.731,1.468,0.885,2.262c0.153,0.796,0.152,1.61,0.022,2.392
	l-0.048,0.293l-0.077,0.285c-0.052,0.19-0.096,0.384-0.176,0.563l-0.105,0.274l-0.053,0.138l-0.065,0.13l-0.13,0.262l-0.064,0.132
	l-0.031,0.066l-0.008,0.017c-0.004,0.008,0.007-0.01,0.018-0.026l-0.018,0.03l-0.184,0.289l-0.091,0.144
	c-0.015,0.023-0.03,0.05-0.044,0.068l-0.04,0.048L42.889,13.8c-0.048,0.065-0.095,0.131-0.164,0.197
	c-0.246,0.269-0.512,0.517-0.803,0.728c-1.16,0.861-2.627,1.181-3.927,1.004c-0.653-0.084-1.271-0.281-1.824-0.559l-0.025-0.012
	l-0.014-0.006c0.054,0.036,0.007,0.006,0.015,0.012l-0.056-0.033l-0.111-0.065c-0.073-0.044-0.146-0.087-0.219-0.13
	c-0.132-0.083-0.223-0.159-0.338-0.237c-0.109-0.082-0.214-0.185-0.32-0.276c-0.105-0.093-0.192-0.201-0.29-0.299
	c-0.724-0.832-1.072-1.82-1.143-2.652c-0.082-0.835,0.051-1.522,0.197-1.964c0.061-0.229,0.14-0.392,0.183-0.507
	c0.047-0.115,0.071-0.174,0.071-0.174s-0.037,0.051-0.108,0.152c-0.07,0.103-0.191,0.246-0.299,0.463
	c-0.236,0.418-0.547,1.091-0.626,2.032c-0.031,0.235-0.018,0.485-0.014,0.747c0.026,0.261,0.049,0.537,0.118,0.82
	c0.122,0.566,0.355,1.166,0.723,1.748c0.099,0.14,0.19,0.293,0.303,0.43c0.118,0.136,0.227,0.276,0.36,0.413
	c0.139,0.13,0.291,0.282,0.431,0.399c0.065,0.053,0.133,0.106,0.2,0.159l0.1,0.08l0.051,0.04c0.018,0.012-0.021-0.012,0.043,0.03
	l0.015,0.009l0.03,0.019c0.632,0.44,1.386,0.788,2.221,1.005c0.835,0.215,1.753,0.276,2.691,0.151
	c0.937-0.126,1.886-0.452,2.762-0.98c0.441-0.259,0.852-0.585,1.236-0.947c0.098-0.083,0.194-0.188,0.291-0.296l0.286-0.323
	l0.071-0.083c0.023-0.026,0.035-0.046,0.053-0.07l0.103-0.136l0.204-0.274l0.025-0.034c-0.025,0.04,0.049-0.073,0.046-0.069
	l0.013-0.021l0.05-0.085l0.103-0.17l0.202-0.343l0.101-0.174l0.083-0.182l0.168-0.368c0.12-0.243,0.202-0.503,0.289-0.762
	c0.043-0.13,0.09-0.26,0.129-0.391l0.095-0.402c0.507-2.149,0.187-4.591-1.015-6.617l-0.234-0.375
	c-0.078-0.124-0.155-0.25-0.249-0.365l-0.271-0.351c-0.092-0.116-0.178-0.237-0.284-0.342L44.312,3.04
	c-0.107-0.108-0.194-0.218-0.323-0.321l-0.366-0.312l-0.185-0.155C43.375,2.2,43.31,2.146,43.262,2.117l-0.31-0.216l-0.156-0.108
	l-0.078-0.054l-0.039-0.027L42.6,1.659l-0.026-0.014l-0.759-0.421c-0.248-0.15-0.523-0.247-0.788-0.367l-0.402-0.169
	c-0.132-0.057-0.274-0.093-0.411-0.138C39.111,0.172,37.945,0.006,36.792,0c-1.155-0.01-2.307,0.169-3.388,0.527
	c-1.08,0.353-2.113,0.839-3.011,1.5L30.22,2.143l-0.161,0.13l-0.321,0.263l-0.319,0.263c-0.106,0.088-0.197,0.191-0.296,0.286
	c-0.194,0.194-0.386,0.381-0.572,0.588c-0.18,0.224-0.358,0.446-0.537,0.667l-0.131,0.168c-0.047,0.057-0.068,0.101-0.103,0.152
	l-0.191,0.297l-0.191,0.296l-0.13,0.202l-0.092,0.168c-0.123,0.225-0.25,0.447-0.354,0.678L26.66,6.644l-0.145,0.349
	c-0.381,0.928-0.656,1.873-0.81,2.809c-0.316,1.874-0.181,3.684,0.218,5.255c0.399,1.578,1.071,2.914,1.801,3.979
	c0.243,0.353,0.493,0.666,0.744,0.961c-0.255-0.09-0.503-0.196-0.76-0.281c-2.138-0.709-4.341-1.253-6.593-1.605
	c-1.128-0.167-2.267-0.286-3.422-0.33c-0.577-0.026-1.159-0.022-1.746-0.003c-0.295,0.016-0.591,0.032-0.89,0.06
	c-0.15,0.012-0.304,0.031-0.456,0.049c-0.12,0.017-0.232,0.033-0.363,0.055l-0.005,0l-0.076,0.002l-0.056,0.007
	c-1.757,0.225-3.489,0.713-5.082,1.496c-0.797,0.387-1.564,0.837-2.287,1.349c-0.722,0.516-1.398,1.092-2.025,1.715
	c-1.257,1.245-2.292,2.706-3.075,4.287c-0.79,1.581-1.288,3.299-1.514,5.046C0.011,32.718-0.02,33.6,0.013,34.478
	c0.014,0.22,0.017,0.44,0.04,0.658l0.066,0.655l0.004,0.041l0.013,0.083l0.003,0.018l0.014,0.075l0.026,0.149l0.054,0.299
	l0.107,0.597c0.111,0.442,0.246,0.902,0.375,1.349c0.162,0.418,0.325,0.833,0.501,1.244c0.209,0.394,0.404,0.797,0.629,1.181
	l0.365,0.56c0.126,0.184,0.235,0.38,0.382,0.548c1.069,1.424,2.43,2.617,3.969,3.49c1.537,0.875,3.254,1.427,5.006,1.607
	c0.435,0.072,0.877,0.051,1.316,0.068l0.33,0.005c0.109-0.001,0.219-0.014,0.328-0.022l0.655-0.052l0.328-0.029L14.545,47
	c-0.004,0.001,0.106-0.014,0.069-0.009l0.036-0.007l0.075-0.015l0.149-0.028l0.597-0.113c0.092-0.012,0.219-0.057,0.326-0.085
	l0.338-0.097c0.22-0.069,0.455-0.125,0.654-0.215l0.618-0.253c0.104-0.039,0.204-0.088,0.303-0.142l0.295-0.157l0.293-0.155
	l0.147-0.079l0.14-0.092l0.555-0.368l0.138-0.092l0.13-0.104l0.258-0.209l0.258-0.209l0.128-0.105l0.119-0.116l0.472-0.466
	C20.724,43.809,20.798,43.726,20.867,43.641z M130.384,60.882c-1.606-0.389-3.577-0.808-5.864-1.139
	c-0.571-0.086-1.163-0.171-1.773-0.243c-0.608-0.082-1.237-0.147-1.883-0.212c-1.291-0.135-2.656-0.211-4.081-0.276
	c-2.852-0.113-5.955-0.07-9.225,0.232c-3.267,0.305-6.707,0.838-10.19,1.731c-0.435,0.115-0.872,0.229-1.309,0.346
	c-0.22,0.058-0.438,0.117-0.659,0.176c-0.216,0.067-0.434,0.134-0.653,0.2c-0.437,0.135-0.875,0.269-1.314,0.405
	c-0.442,0.13-0.873,0.296-1.312,0.444c-0.437,0.152-0.877,0.305-1.317,0.459c-0.434,0.169-0.868,0.34-1.305,0.51l-0.656,0.258
	c-0.217,0.086-0.436,0.173-0.651,0.272c-0.431,0.19-0.862,0.381-1.295,0.572l-0.649,0.289c-0.206,0.089-0.421,0.192-0.631,0.287
	c-0.423,0.196-0.844,0.388-1.261,0.572c-0.835,0.376-1.688,0.745-2.537,1.111c-1.705,0.728-3.431,1.424-5.171,2.078
	c-3.476,1.325-7.01,2.491-10.527,3.498c-0.879,0.248-1.759,0.487-2.636,0.713c-0.877,0.228-1.752,0.448-2.623,0.65
	c-1.745,0.41-3.478,0.763-5.188,1.077c-3.422,0.616-6.761,1.02-9.936,1.186c-3.175,0.17-6.185,0.097-8.935-0.222
	c-2.748-0.315-5.236-0.867-7.365-1.595c-2.13-0.727-3.897-1.618-5.274-2.482c-1.368-0.88-2.367-1.698-3.013-2.295
	c-0.327-0.296-0.566-0.533-0.726-0.695c-0.162-0.16-0.245-0.244-0.245-0.244s0.071,0.093,0.212,0.272
	c0.141,0.181,0.346,0.452,0.64,0.783c0.585,0.664,1.483,1.622,2.801,2.649c0.664,0.507,1.424,1.038,2.288,1.559
	c0.863,0.527,1.846,1.016,2.917,1.484c1.072,0.465,2.244,0.894,3.501,1.272c1.258,0.379,2.605,0.691,4.021,0.949
	c1.416,0.257,2.905,0.444,4.449,0.572c1.546,0.124,3.147,0.174,4.792,0.169c3.289-0.024,6.751-0.301,10.288-0.831
	c1.77-0.26,3.559-0.589,5.358-0.968c1.801-0.376,3.612-0.81,5.421-1.299c3.623-0.969,7.243-2.159,10.803-3.499
	c1.779-0.677,3.54-1.396,5.279-2.148c0.871-0.376,1.731-0.761,2.59-1.163c0.431-0.2,0.856-0.399,1.273-0.599l0.632-0.299
	l0.619-0.284c0.411-0.189,0.821-0.377,1.231-0.565c0.407-0.193,0.83-0.347,1.243-0.526c0.414-0.173,0.828-0.346,1.239-0.518
	c0.418-0.156,0.836-0.313,1.252-0.468c0.418-0.151,0.828-0.321,1.248-0.456c0.419-0.139,0.838-0.278,1.254-0.416
	c0.208-0.07,0.416-0.14,0.623-0.209c0.21-0.063,0.419-0.125,0.627-0.188c0.418-0.124,0.834-0.248,1.249-0.372
	c3.325-0.958,6.622-1.607,9.775-2.047c0.396-0.054,0.787-0.108,1.176-0.162c0.39-0.043,0.778-0.085,1.163-0.127
	c0.768-0.094,1.53-0.145,2.278-0.215c0.374-0.036,0.746-0.06,1.114-0.081c0.369-0.023,0.736-0.045,1.097-0.067
	c0.724-0.036,1.437-0.059,2.134-0.081c0.697-0.005,1.383-0.026,2.051-0.018c0.669,0.01,1.323,0.009,1.961,0.028
	c0.635,0.013,1.257,0.029,1.862,0.062c0.604,0.023,1.191,0.061,1.759,0.1c2.271,0.162,4.253,0.372,5.877,0.606
	c1.623,0.238,2.897,0.456,3.761,0.634c0.864,0.174,1.322,0.287,1.322,0.287s-0.439-0.176-1.281-0.447
	C133.237,61.651,131.994,61.266,130.384,60.882z"/>
</svg>
