<?xml version="1.0" encoding="utf-8"?>
<!-- Generator: Adobe Illustrator 17.0.0, SVG Export Plug-In . SVG Version: 6.00 Build 0)  -->
<!DOCTYPE svg PUBLIC "-//W3C//DTD SVG 1.1//EN" "http://www.w3.org/Graphics/SVG/1.1/DTD/svg11.dtd">
<svg version="1.1" id="图层_1" xmlns="http://www.w3.org/2000/svg" xmlns:xlink="http://www.w3.org/1999/xlink" x="0px" y="0px"
	 width="64px" height="64px" viewBox="0 0 64 64" enable-background="new 0 0 64 64" xml:space="preserve">
<path fill="#77B3D4" d="M32,0c17.673,0,32,14.327,32,32S49.673,64,32,64S0,49.673,0,32S14.327,0,32,0z"/>
<path fill="#4F5D73" d="M44,52c0,1.657-1.343,3-3,3H23c-1.657,0-3-1.343-3-3V12c0-1.657,1.343-3,3-3h18c1.657,0,3,1.343,3,3V52z"/>
<path fill="#F5CF87" d="M32,27c2.761,0,5,2.239,5,5s-2.239,5-5,5s-5-2.239-5-5S29.239,27,32,27z"/>
<path fill="#C75C5C" d="M32,14c2.761,0,5,2.239,5,5s-2.239,5-5,5s-5-2.239-5-5S29.239,14,32,14z"/>
<path fill="#76C2AF" d="M32,40c2.761,0,5,2.239,5,5s-2.239,5-5,5s-5-2.239-5-5S29.239,40,32,40z"/>
</svg>
