<?xml version="1.0" encoding="utf-8"?>
<!-- Generator: Adobe Illustrator 17.0.0, SVG Export Plug-In . SVG Version: 6.00 Build 0)  -->
<!DOCTYPE svg PUBLIC "-//W3C//DTD SVG 1.1//EN" "http://www.w3.org/Graphics/SVG/1.1/DTD/svg11.dtd">
<svg version="1.1" id="图层_1" xmlns:ev="http://www.w3.org/2001/xml-events"
	 xmlns="http://www.w3.org/2000/svg" xmlns:xlink="http://www.w3.org/1999/xlink" x="0px" y="0px" width="118.5px" height="79px"
	 viewBox="0 0 118.5 79" enable-background="new 0 0 118.5 79" xml:space="preserve">
<path fill="#08A1EF" d="M92.988,79c-0.417,0-0.832-0.01-1.247-0.032V79H70.863V53.355H83.32L59.25,30.094L35.18,53.355h12.457V79
	H26.759v-0.032C26.344,78.99,25.929,79,25.512,79C11.423,79,0,67.473,0,53.253C0,40.31,9.465,29.598,21.789,27.781
	c-0.121-0.997-0.183-2.012-0.183-3.042C21.606,11.077,32.583,0,46.121,0c8.907,0,16.706,4.797,20.999,11.969
	c2.918-1.434,6.197-2.239,9.663-2.239c10.885,0,19.933,7.94,21.767,18.392c11.416,2.563,19.95,12.84,19.95,25.132
	C118.5,67.473,107.077,79,92.988,79z"/>
</svg>
