<?xml version="1.0" encoding="utf-8"?>
<!-- Generator: Adobe Illustrator 16.0.0, SVG Export Plug-In . SVG Version: 6.00 Build 0)  -->
<!DOCTYPE svg PUBLIC "-//W3C//DTD SVG 1.1//EN" "http://www.w3.org/Graphics/SVG/1.1/DTD/svg11.dtd">
<svg version="1.1" id="Layer_1" xmlns="http://www.w3.org/2000/svg" xmlns:xlink="http://www.w3.org/1999/xlink" x="0px" y="0px"
	 width="253.452px" height="179.63px" viewBox="0 0 253.452 179.63" enable-background="new 0 0 253.452 179.63"
	 xml:space="preserve">
<path fill="#B9BE00" d="M253.452,160.105c0,0-33.592,10.997-33.587-15.181c0,0,0.356-0.415,1.014-1.017
	c-3.487,2.35-7.019,4.645-10.617,6.85c-3.985,2.382-8.045,4.66-12.177,6.813c4.528,1.617,9.33,6.8,12.11,20.104
	c0,0-24.582,1.842-23.921-14.413c-0.685,0.303-1.367,0.609-2.056,0.904c-8.987,3.939-18.342,7.108-27.905,9.604
	c-9.574,2.464-19.413,4.032-29.337,4.745c-9.932,0.625-19.955,0.265-29.839-1.138c-9.856-1.527-19.604-3.951-28.867-7.628
	c-3.812-1.499-7.559-3.151-11.212-4.984c3.169,16.571-20.354,14.81-20.354,14.81c3.324-15.894,9.983-18.351,14.737-17.811
	c-3.231-1.84-6.386-3.806-9.447-5.899c-2.924-2.055-5.76-4.226-8.502-6.505C31.553,172.556,0,162.229,0,162.229
	c9.432-19.666,18.909-21.974,25.381-20.251c-0.131-0.131-0.267-0.256-0.396-0.388c-1.716-1.802-3.349-3.605-4.945-5.644
	l-0.067-0.084c-0.875-1.116-0.68-2.731,0.436-3.605c1.065-0.834,2.589-0.688,3.485,0.293c2.978,3.278,6.496,6.399,10.068,9.278
	c-0.991-7.388,2.108-15.685,2.108-15.685c21.71,11.539,15.45,21.995,12.226,25.602c7.176,4.272,14.759,7.86,22.614,10.695
	c17.687,6.413,36.725,8.862,55.519,7.614c18.823-1.214,37.352-5.991,54.91-13.054c14.125-5.681,27.65-12.826,40.604-20.914
	c-15.64-6.354-1.199-24.655-1.199-24.655c10.51,10.808,9.518,17.419,6.784,21.089c1.281-0.837,2.566-1.669,3.836-2.523
	c1.176-0.792,2.771-0.481,3.562,0.695c0.755,1.124,0.505,2.63-0.546,3.451l-0.146,0.113c-1.909,1.485-3.836,2.952-5.78,4.399
	c-1.042,0.755-2.093,1.498-3.148,2.235C231.618,137.833,242.565,137.406,253.452,160.105z"/>
<path fill="#903A17" d="M152.236,130.912c-11.093-6.954-4.187-13.634-2.06-22.801c4.794,0.807,9.164,2.776,13.76,4.692
	c6.208,2.59,23.137,3.856,25.444,11.596c1.991,6.675-3.866,11.998-9.848,8.652c-0.605,2.82-0.901,4.122-3.439,5.184
	C169.22,141.105,158.489,134.835,152.236,130.912z"/>
<path fill="#903A17" d="M151.132,172.584c-13.351,3.51-12.82-25.78-5.279-33.641c3.126-3.256,9.986-10.808,14.381-8.282
	c3.945,2.268,3.897,10.507,3.701,15.326C163.498,156.586,159.597,170.36,151.132,172.584z"/>
<path fill="#AD672E" d="M124.551,155.836c-13.782,0-28.183-3.368-29.292-10.892c-1.832-12.448-2.427-24.865,5.571-31.381
	c8.496-6.921,18.062-10.431,28.43-10.431c5.067,0,10.291,0.856,15.531,2.551c5.579,1.802,10.287,6.119,12.913,11.843
	c2.573,5.607,2.768,11.873,0.532,17.191c-5.115,12.168-17.602,20.641-31.068,21.077
	C126.328,155.822,125.452,155.836,124.551,155.836z"/>
<path fill="#F9C385" d="M159.862,112.021c0.682,0.118,1.332,0.263,1.968,0.421c4.252,7.287,5.398,16.405,1.952,24.604
	c-5.891,14.016-19.772,23.538-34.78,24.647c-1.423-5.569-1.158-12.628-1.203-16.965c-0.091-8.53,2.484-17.264,8.018-23.958
	C141.766,113.57,150.587,110.436,159.862,112.021z"/>
<path fill="#FFF3BF" d="M149.75,143.53c0.05,1.365-1.019,2.515-2.386,2.564c-1.366,0.05-2.515-1.018-2.563-2.383
	c-0.05-1.367,1.018-2.515,2.384-2.566C148.552,141.096,149.7,142.165,149.75,143.53z"/>
<path fill="#903A17" d="M99.973,144.431c8.049,8.254,19.785,0.642,25.174,10.444c-2.031,1.196-4.086,2.403-6.215,3.418
	c-17.459,8.302-31.325-4.237-38-20.139c-3.45-8.223-6.887-45.873-20.437-35.668c-3.436,2.588-9.355,11.982-13.749,6.654
	c-4.741-5.756,3.48-17.062,8.453-19.953c17.167-9.979,29.497,17.248,33.229,29.168C91.131,126.977,93.449,137.742,99.973,144.431z"
	/>
<path fill="#95431C" d="M103.162,159.924c0.883-5.846-4.859-3.134-6.798-6.981c-2.998-5.956,10.064-15.569,15.867-16.241
	c10.047-1.163,17.423,3.748,20.513,10.639c4.003,8.917-4.979,22.468-11.479,26.216c-3.858,2.227-18.794,4.971-18.862-3.029
	C102.357,165.659,102.568,163.851,103.162,159.924z"/>
<path fill="#9D5126" d="M107.418,99.856c10.08,2.141,4.935,14.073,4.66,21.22c-0.27,7.027,6.349,12.617,4.353,19.731
	c-2.131,7.576-10.622,9.336-16.771,6.484c-7.605-3.536-11.047-11.621-0.356-12.242c-8.715,0.003-8.702-15.248-8.205-18.841
	C92.137,108.751,100.103,98.3,107.418,99.856z"/>
<path fill="#903A17" d="M205.173,45.367c0.29,7.901-5.997,14.545-14.04,14.84c-8.042,0.293-14.796-5.874-15.086-13.778
	c-0.288-7.901,5.999-14.543,14.04-14.838C198.132,31.297,204.885,37.465,205.173,45.367z"/>
<path fill="#F9C385" d="M199.373,46.219c0.208,5.697-4.758,10.502-11.09,10.733c-6.332,0.229-11.633-4.2-11.841-9.897
	c-0.209-5.695,4.755-10.499,11.088-10.732C193.863,36.093,199.167,40.522,199.373,46.219z"/>
<path fill="#9F5529" d="M189.122,54.14c1.132,31.042-23.803,57.151-55.69,58.315c-22.714,0.828-42.82-11.227-52.927-29.446
	c-2.29,1.468-4.992,2.375-7.925,2.482c-8.605,0.314-15.834-6.286-16.14-14.743c-0.309-8.455,6.416-15.564,15.026-15.88
	c0.732-0.026,1.452,0.016,2.162,0.086c0.729-29.527,24.983-53.794,55.7-54.914C161.221-1.125,187.987,23.099,189.122,54.14z"/>
<path fill="#AD672E" d="M131.228,106.477c-19.013,0-36.432-10.111-45.461-26.386c-0.806-1.455-2.178-2.508-3.788-2.915
	c-0.484-0.123-0.979-0.185-1.474-0.185c-1.14,0-2.268,0.325-3.243,0.951c-1.473,0.943-3.166,1.474-4.898,1.537
	c-0.124,0.004-0.246,0.006-0.371,0.006c-5.165,0-9.356-3.934-9.541-8.955c-0.187-5.129,3.955-9.457,9.233-9.649l0.242-0.004
	c0.315,0,0.67,0.02,1.111,0.064c0.195,0.019,0.395,0.028,0.591,0.028c1.462,0,2.879-0.531,3.984-1.508
	c1.254-1.107,1.99-2.688,2.03-4.36c0.657-26.508,22.575-48.055,49.905-49.05c0.663-0.024,1.325-0.037,1.984-0.037
	c27.931,0,50.585,21.236,51.576,48.347c0.488,13.375-4.414,26.155-13.801,35.985c-9.431,9.874-22.251,15.589-36.098,16.095
	c-0.664,0.024-1.322,0.035-1.981,0.035H131.228z"/>
<path fill="#F9C385" d="M76.795,70.006c0.212,5.823,1.539,10.502-4.387,10.718c-5.925,0.216-10.903-4.33-11.116-10.152
	c-0.212-5.822,4.421-10.717,10.347-10.935C77.566,59.422,76.582,64.185,76.795,70.006z"/>
<path fill="#F9C385" d="M189.08,58.72c-1.339,28.988-25.344,52.631-55.648,53.735c-17.964,0.656-34.303-6.746-45.351-18.883
	c-2.178-11.13-0.332-22.815,9.084-29.909c-8.894-16.975-0.067-39.194,22.204-34.17c4.812,1.086,8.99,3.976,12.727,7.09
	c5.044-9.108,16.058-17.677,27.218-14.242c0,0,15.751,4.17,12.846,22.696C172.159,45.037,187.596,44.679,189.08,58.72z"/>
<radialGradient id="SVGID_1_" cx="169.4912" cy="60.0068" r="9.5759" gradientUnits="userSpaceOnUse">
	<stop  offset="0.1043" style="stop-color:#EF8164"/>
	<stop  offset="0.2425" style="stop-color:#F2996F"/>
	<stop  offset="0.4022" style="stop-color:#F5AC79"/>
	<stop  offset="0.5731" style="stop-color:#F7B980"/>
	<stop  offset="0.7613" style="stop-color:#F8C184"/>
	<stop  offset="1" style="stop-color:#F9C385"/>
</radialGradient>
<path fill="url(#SVGID_1_)" d="M182.185,56.797c0.465,1.854-4.833,4.793-11.847,6.565c-7.011,1.771-13.071,1.707-13.541-0.147
	c-0.466-1.852,4.832-4.79,11.847-6.564C175.655,54.879,181.715,54.945,182.185,56.797z"/>
<radialGradient id="SVGID_2_" cx="110.0381" cy="70.7764" r="9.5753" gradientUnits="userSpaceOnUse">
	<stop  offset="0.1043" style="stop-color:#EF8164"/>
	<stop  offset="0.2425" style="stop-color:#F2996F"/>
	<stop  offset="0.4022" style="stop-color:#F5AC79"/>
	<stop  offset="0.5731" style="stop-color:#F7B980"/>
	<stop  offset="0.7613" style="stop-color:#F8C184"/>
	<stop  offset="1" style="stop-color:#F9C385"/>
</radialGradient>
<path fill="url(#SVGID_2_)" d="M122.981,68.812c0.285,1.889-5.273,4.301-12.428,5.387c-7.146,1.083-13.175,0.432-13.46-1.459
	c-0.287-1.89,5.273-4.301,12.425-5.385C116.668,66.271,122.693,66.923,122.981,68.812z"/>
<path fill="#FFFFFF" d="M121.634,76.964c0,0,20.229-11.709,40.673-8.593c0,0,4.025,25.579-15.927,29.361
	C146.38,97.732,125.152,101.516,121.634,76.964z"/>
<path fill="#7F4F21" d="M121.434,57.723c0.502,3.922-0.91,7.333-3.15,7.62c-2.239,0.285-4.463-2.661-4.964-6.582
	c-0.502-3.924,0.909-7.333,3.149-7.622C118.711,50.854,120.933,53.802,121.434,57.723z M158.74,43.98
	c-2.242,0.286-3.654,3.699-3.152,7.622c0.501,3.921,2.724,6.867,4.964,6.582c2.242-0.287,3.651-3.699,3.151-7.621
	C163.202,46.642,160.98,43.695,158.74,43.98z"/>
<path fill="#9F5529" d="M146.473,58.219c0.553,2.279-2.117,4.88-5.962,5.813c-3.845,0.932-7.41-0.16-7.962-2.438
	c-0.552-2.279,2.118-4.882,5.964-5.814C142.356,54.85,145.921,55.941,146.473,58.219z"/>
</svg>
