<?xml version="1.0" encoding="iso-8859-1"?>
<!-- Generator: Adobe Illustrator 17.0.0, SVG Export Plug-In . SVG Version: 6.00 Build 0)  -->
<!DOCTYPE svg PUBLIC "-//W3C//DTD SVG 1.1//EN" "http://www.w3.org/Graphics/SVG/1.1/DTD/svg11.dtd">
<svg version="1.1" id="Objects" xmlns="http://www.w3.org/2000/svg" xmlns:xlink="http://www.w3.org/1999/xlink" x="0px" y="0px"
	 width="200.46px" height="156.509px" viewBox="0 0 200.46 156.509" style="enable-background:new 0 0 200.46 156.509;"
	 xml:space="preserve">
<g>
	<g>
		<g>
			<path style="fill-rule:evenodd;clip-rule:evenodd;fill:#4C6173;" d="M106.729,38.982c5.022-1.198,12.017-4.041,12.929,0.021
				c1.085,4.83,2.423,16.278,3.828,27.399c0.302,2.398-2.771,3.641-3.536,3.873c-3.42,1.034-6.359,1.358-10.145,1.867l-3.089-33.14
				C106.714,38.995,106.724,38.984,106.729,38.982z"/>
			<path style="fill-rule:evenodd;clip-rule:evenodd;fill:#4C6173;" d="M91.478,38.982c-6.343-1.513-11.384-5.042-12.491-0.061
				c-1.158,5.215-2.428,16.641-3.768,27.312c-0.343,2.733,2.504,3.908,3.426,4.147c3.284,0.853,6.114,1.271,9.757,1.763l3.089-33.14
				C91.492,38.995,91.482,38.984,91.478,38.982z"/>
			<path style="fill-rule:evenodd;clip-rule:evenodd;fill:#27557D;" d="M86.535,71.496l-0.165,0.389
				c7.814,0.989,17.425,1.007,25.262,0.053c-0.072-0.158-0.142-0.306-0.211-0.441H86.535z"/>
			<path style="fill-rule:evenodd;clip-rule:evenodd;fill:#688096;" d="M83.395,71.416c1.733-4.996-2.221-28.394-4.408-32.697
				c1.244-4.416,12.814-5.393,15.895-7.903c1.461,1.286,2.503,1.579,4.159,1.579c1.657,0,2.752-0.335,4.211-1.621
				c2.28,1.856,14.224,3.306,16.267,7.723c-2.326,4.93-6.59,28.402-4.745,32.897C106.994,72.923,91.4,73.031,83.395,71.416z"/>
			<polygon style="fill-rule:evenodd;clip-rule:evenodd;fill:#FFFFFF;" points="91.237,32.938 90.867,42.771 99.099,63.669 
				107.213,42.771 106.709,32.668 103.252,30.772 94.882,30.815 			"/>
			<rect x="94.883" y="27.38" style="fill-rule:evenodd;clip-rule:evenodd;fill:#D1A886;" width="8.222" height="8.517"/>
			<path style="fill-rule:evenodd;clip-rule:evenodd;fill:#FCB024;" d="M100.404,41.163l0.573-1.211l-1.936-4.693l-1.905,4.617
				l0.608,1.287C98.63,41.163,99.518,41.163,100.404,41.163z"/>
			<polygon style="fill-rule:evenodd;clip-rule:evenodd;fill:#CCCCCC;" points="94.881,30.815 99.041,35.259 96.08,43.176 
				92.421,32.448 			"/>
			<polygon style="fill-rule:evenodd;clip-rule:evenodd;fill:#27557D;" points="92.448,32.233 99.041,63.78 88.187,46.473 
				89.612,43.452 86.516,40.983 90.721,33.184 			"/>
			<polygon style="fill-rule:evenodd;clip-rule:evenodd;fill:#CCCCCC;" points="103.252,30.773 99.041,35.259 102,43.176 
				105.712,32.405 			"/>
			<polygon style="fill-rule:evenodd;clip-rule:evenodd;fill:#FCB024;" points="97.744,44.106 100.404,44.106 101.787,57.441 
				99.041,63.78 96.397,57.441 			"/>
			<polygon style="fill-rule:evenodd;clip-rule:evenodd;fill:#FFFFFF;" points="94.882,30.815 99.041,35.259 96.017,41.219 
				92.422,32.447 			"/>
			<polygon style="fill-rule:evenodd;clip-rule:evenodd;fill:#3F73A1;" points="92.448,32.233 99.041,63.78 89.242,45.094 
				90.867,42.771 87.733,40.334 90.72,33.184 			"/>
			<polygon style="fill-rule:evenodd;clip-rule:evenodd;fill:#27557D;" points="105.793,32.166 99.041,63.78 109.895,46.473 
				108.468,43.452 111.565,40.983 108.24,33.298 			"/>
			<polygon style="fill-rule:evenodd;clip-rule:evenodd;fill:#3F73A1;" points="105.793,32.166 99.041,63.78 108.839,45.094 
				107.213,42.771 110.347,40.334 108.24,33.298 			"/>
			<polygon style="fill-rule:evenodd;clip-rule:evenodd;fill:#FFFFFF;" points="103.252,30.772 99.041,35.259 102.064,41.219 
				105.712,32.404 			"/>
			<path style="fill-rule:evenodd;clip-rule:evenodd;fill:#FCB024;" d="M97.744,40.942h2.66c0.594,1.233,0.548,2.311,0,3.363h-2.66
				C97.196,43.253,97.149,42.176,97.744,40.942z"/>
			<path style="fill-rule:evenodd;clip-rule:evenodd;fill:#27557D;" d="M98.666,72.637c0.071-2.314,0.244-5.067,0.527-9.194
				c0.284,4.128,0.472,6.881,0.557,9.195C99.389,72.64,99.027,72.64,98.666,72.637z"/>
			<polygon style="fill-rule:evenodd;clip-rule:evenodd;fill:#FFFFFF;" points="89.992,33.191 91.013,42.618 99.203,63.408 
				107.277,42.618 108.298,33.191 104.391,30.679 93.899,30.679 			"/>
			<rect x="93.899" y="27.304" style="fill-rule:evenodd;clip-rule:evenodd;fill:#D1A886;" width="10.401" height="8.474"/>
			<path style="fill-rule:evenodd;clip-rule:evenodd;fill:#F2CAA9;" d="M99.145,32.293c4.1,0,7.894-4.688,9.895-10.431
				c0.118,0.121,0.25,0.197,0.396,0.222c0.815,0.135,1.75-1.398,2.087-3.422c0.336-2.026-0.053-3.778-0.868-3.914
				c-0.058-0.01-0.116-0.01-0.175-0.004c0.4-7.115-2.549-13.688-11.334-13.688c-8.793,0-11.74,6.584-11.334,13.706
				c-0.09-0.023-0.179-0.028-0.267-0.014c-0.815,0.136-1.204,1.888-0.868,3.914c0.336,2.024,1.271,3.557,2.086,3.422
				c0.173-0.029,0.328-0.132,0.46-0.295C91.217,27.565,95.028,32.293,99.145,32.293z"/>
			<path style="fill-rule:evenodd;clip-rule:evenodd;fill:#B55C46;" d="M110.481,14.744c0.4-7.115-2.551-13.688-11.336-13.688
				c-8.793,0-11.741,6.584-11.335,13.706c0.71,0.177,1.452,1.479,1.779,3.173c0.573,0.387,0.988,0.161,0.988-1.273
				c0-4.235,0.523-7.987,3.305-8.882c2.647-0.853,3.229,1.017,5.248,1.017c2.019,0,2.657-1.761,5.248-1.017
				c2.691,0.772,3.304,4.647,3.304,8.882c0,1.377,0.383,1.64,0.92,1.318C108.938,16.188,109.736,14.828,110.481,14.744z"/>
			<path style="fill-rule:evenodd;clip-rule:evenodd;fill:#93B9DB;" d="M100.502,41.017l0.57-1.204l-1.927-4.672l-1.895,4.597
				l0.605,1.279C98.737,41.017,99.62,41.017,100.502,41.017z"/>
			<polygon style="fill-rule:evenodd;clip-rule:evenodd;fill:#CCCCCC;" points="93.899,30.679 99.145,35.141 96.201,43.018 
				91.451,32.302 			"/>
			<polygon style="fill-rule:evenodd;clip-rule:evenodd;fill:#4C6173;" points="91.451,32.302 99.145,63.518 88.346,46.3 
				89.765,43.295 86.683,40.839 89.992,33.191 			"/>
			<polygon style="fill-rule:evenodd;clip-rule:evenodd;fill:#CCCCCC;" points="104.391,30.679 99.145,35.141 102.09,43.018 
				106.839,32.302 			"/>
			<polygon style="fill-rule:evenodd;clip-rule:evenodd;fill:#93B9DB;" points="97.855,43.945 100.502,43.945 101.877,57.213 
				99.145,63.518 96.515,57.213 			"/>
			<path style="fill-rule:evenodd;clip-rule:evenodd;fill:#B55C46;" d="M108.589,7.734c-1.135,2.269-10.512,7.743-14.297,8.04
				c1.698-1.579,5.688-6.258,5.179-6.502c-0.565-0.272-6.605,4.443-9.829,5.528C88.985,1.142,98.877,1.579,108.589,7.734z"/>
			<path style="fill-rule:evenodd;clip-rule:evenodd;fill:#B55C46;" d="M103.255,5.468c0.489,2.269,3.773,8.986,5.404,9.283
				C110.291,15.048,110.387-0.407,103.255,5.468z"/>
			<polygon style="fill-rule:evenodd;clip-rule:evenodd;fill:#FFFFFF;" points="93.899,30.679 99.145,35.141 96.136,41.072 
				91.451,32.302 			"/>
			<polygon style="fill-rule:evenodd;clip-rule:evenodd;fill:#688096;" points="91.451,32.302 99.145,63.518 89.396,44.927 
				91.013,42.618 87.895,40.192 89.992,33.191 			"/>
			<polygon style="fill-rule:evenodd;clip-rule:evenodd;fill:#4C6173;" points="106.839,32.302 99.145,63.518 109.943,46.3 
				108.525,43.295 111.606,40.839 108.298,33.191 			"/>
			<polygon style="fill-rule:evenodd;clip-rule:evenodd;fill:#688096;" points="106.839,32.302 99.145,63.518 108.894,44.927 
				107.277,42.618 110.395,40.192 108.298,33.191 			"/>
			<polygon style="fill-rule:evenodd;clip-rule:evenodd;fill:#FFFFFF;" points="104.391,30.679 99.145,35.141 102.154,41.072 
				106.839,32.302 			"/>
			<path style="fill-rule:evenodd;clip-rule:evenodd;fill:#93B9DB;" d="M97.855,40.798h2.647c0.592,1.227,0.545,2.299,0,3.346
				h-2.647C97.31,43.097,97.263,42.024,97.855,40.798z"/>
			<path style="fill-rule:evenodd;clip-rule:evenodd;fill:#27557D;" d="M98.48,72.637c0.434,0.003,0.867,0.004,1.301,0.002
				c0.16-2.239-0.32-8.207-0.65-9.193C98.801,64.235,98.322,70.28,98.48,72.637z"/>
		</g>
		<g>
			<path style="fill-rule:evenodd;clip-rule:evenodd;fill:#3F73A1;" d="M29.027,40.052c4.861-1.161,8.226-4.369,9.111-0.436
				c1.051,4.678,3.406,16.71,4.768,27.478c0.293,2.323-0.337,3.031-1.078,3.256c-3.312,1.003-6.157,1.314-9.823,1.809l-2.991-32.089
				C29.013,40.062,29.022,40.052,29.027,40.052z"/>
			<path style="fill-rule:evenodd;clip-rule:evenodd;fill:#BA9D3F;" d="M35.787,23.49c-0.145,13.405-9.699,18.723-14.217,18.723
				c-4.518,0-15.068-3.524-15.118-17.142C6.419,15.916,7.803-1.604,26.762,4.159C33.118,3.808,35.932,10.085,35.787,23.49z"/>
			<path style="fill-rule:evenodd;clip-rule:evenodd;fill:#3F73A1;" d="M14.259,40.052c-6.142-1.467-8.185-4.673-9.257,0.151
				c-1.123,5.05-3.335,16.642-4.633,26.976c-0.334,2.647,0.572,3.043,1.465,3.275c3.18,0.825,5.92,1.23,9.448,1.706l2.99-32.089
				C14.273,40.062,14.264,40.052,14.259,40.052z"/>
			<path style="fill-rule:evenodd;clip-rule:evenodd;fill:#27557D;" d="M9.473,71.532l-0.16,0.377
				c7.566,0.957,16.872,0.974,24.459,0.051c-0.069-0.153-0.138-0.296-0.204-0.428H9.473z"/>
			<path style="fill-rule:evenodd;clip-rule:evenodd;fill:#5A8FBD;" d="M9.065,71.877c2.147-6.193,0.907-8.016-1.909-14.766
				c-2.868-6.882,2.955-10.564-1.374-19.083c3.835-2.459,8.79-3.455,11.773-5.885c1.414,1.244,2.422,1.528,4.026,1.528
				s2.664-0.325,4.078-1.569c2.207,1.797,7.86,3.311,11.872,5.926c-4.125,8.743,1.463,10.183-1.375,19.083
				c-2.167,6.795-5.544,7.172-2.393,14.85C26.092,72.893,16.671,72.865,9.065,71.877z"/>
			<polygon style="fill-rule:evenodd;clip-rule:evenodd;fill:#FFFFFF;" points="14.026,34.198 13.668,43.721 21.638,63.953 
				29.495,43.721 29.007,33.937 25.66,32.101 17.555,32.143 			"/>
			<rect x="17.557" y="28.817" style="fill-rule:evenodd;clip-rule:evenodd;fill:#D1A886;" width="7.96" height="8.246"/>
			<path style="fill-rule:evenodd;clip-rule:evenodd;fill:#F2CAA9;" d="M21.581,33.672c3.989,0,7.683-4.562,9.63-10.149
				c0.114,0.117,0.242,0.191,0.384,0.215c0.794,0.132,1.703-1.359,2.031-3.33c0.327-1.972-0.05-3.677-0.845-3.809
				c-0.055-0.01-0.113-0.01-0.17-0.003C33.001,9.67,30.13,3.273,21.581,3.273c-8.556,0-11.424,6.406-11.03,13.338
				c-0.086-0.022-0.173-0.026-0.259-0.013c-0.793,0.132-1.171,1.837-0.845,3.809c0.328,1.971,1.237,3.462,2.031,3.33
				c0.169-0.028,0.319-0.128,0.448-0.287C13.866,29.072,17.575,33.672,21.581,33.672z"/>
			<path style="fill-rule:evenodd;clip-rule:evenodd;fill:#FC8D25;" d="M22.902,42.162l0.554-1.173l-1.875-4.545l-1.844,4.473
				l0.588,1.245C21.184,42.162,22.043,42.162,22.902,42.162z"/>
			<polygon style="fill-rule:evenodd;clip-rule:evenodd;fill:#CCCCCC;" points="17.554,32.143 21.581,36.444 18.715,44.11 
				15.172,33.724 			"/>
			<polygon style="fill-rule:evenodd;clip-rule:evenodd;fill:#3F73A1;" points="15.198,33.516 21.581,64.061 11.072,47.304 
				12.453,44.379 9.454,41.988 13.524,34.437 			"/>
			<polygon style="fill-rule:evenodd;clip-rule:evenodd;fill:#CCCCCC;" points="25.66,32.103 21.581,36.444 24.447,44.11 
				28.042,33.683 			"/>
			<polygon style="fill-rule:evenodd;clip-rule:evenodd;fill:#FC8D25;" points="20.326,45.012 22.902,45.012 24.241,57.924 
				21.581,64.061 19.022,57.924 			"/>
			<polygon style="fill-rule:evenodd;clip-rule:evenodd;fill:#FFFFFF;" points="17.555,32.143 21.581,36.444 18.653,42.217 
				15.173,33.723 			"/>
			<polygon style="fill-rule:evenodd;clip-rule:evenodd;fill:#5A8FBD;" points="15.198,33.516 21.581,64.061 12.094,45.967 
				13.668,43.721 10.633,41.359 13.524,34.437 			"/>
			<polygon style="fill-rule:evenodd;clip-rule:evenodd;fill:#3F73A1;" points="28.12,33.451 21.581,64.061 32.09,47.304 
				30.71,44.379 33.709,41.988 30.489,34.546 			"/>
			<polygon style="fill-rule:evenodd;clip-rule:evenodd;fill:#5A8FBD;" points="28.12,33.451 21.581,64.061 31.069,45.967 
				29.495,43.721 32.529,41.359 30.489,34.546 			"/>
			<polygon style="fill-rule:evenodd;clip-rule:evenodd;fill:#FFFFFF;" points="25.66,32.101 21.581,36.444 24.509,42.217 
				28.042,33.682 			"/>
			<path style="fill-rule:evenodd;clip-rule:evenodd;fill:#FC8D25;" d="M20.326,41.948h2.576c0.575,1.194,0.531,2.238,0,3.257
				h-2.576C19.795,44.187,19.75,43.142,20.326,41.948z"/>
			<path style="fill-rule:evenodd;clip-rule:evenodd;fill:#3F73A1;" d="M21.219,72.638c0.068-2.242,0.237-4.907,0.512-8.902
				c0.273,3.996,0.456,6.662,0.538,8.902C21.918,72.64,21.568,72.639,21.219,72.638z"/>
			
				<ellipse transform="matrix(0.2168 -0.9762 0.9762 0.2168 4.9098 47.6655)" style="fill-rule:evenodd;clip-rule:evenodd;fill:#F2CAA9;" cx="32.161" cy="20.773" rx="3.013" ry="1.428"/>
			<path style="fill-rule:evenodd;clip-rule:evenodd;fill:#BA9D3F;" d="M32.769,16.596C33.167,9.67,30.242,3.273,21.537,3.273
				c-8.711,0-11.633,6.406-11.232,13.336c0.705,0.174,1.438,1.442,1.762,3.091c0.568,0.376,0.979,0.156,0.979-1.24
				c0-4.121,0.519-7.773,3.275-8.644c2.622-0.828,3.2,0.99,5.2,0.99c2.002,0,2.632-1.713,5.2-0.99
				c2.666,0.752,3.275,4.523,3.275,8.644c0,1.34,0.379,1.597,0.912,1.283C31.239,18.002,32.031,16.676,32.769,16.596z"/>
			<path style="fill-rule:evenodd;clip-rule:evenodd;fill:#BA9D3F;" d="M32.077,6.857C31.553,10.742,12.864,19.44,8.066,20.1
				c-1.489-19.972,10.79-9.024,11.99-13.058C20.342,6.08,32.321,7.693,32.077,6.857z"/>
			<path style="fill-rule:evenodd;clip-rule:evenodd;fill:#BA9D3F;" d="M23.367,3.651c-0.312,3.908,6.108,15.256,10.657,16.917
				C35.739,6.272,32.027,7.069,29.492,5.91C28.58,5.493,22.952,4.417,23.367,3.651z"/>
		</g>
		<g>
			<path style="fill-rule:evenodd;clip-rule:evenodd;fill:#6F7478;" d="M65.727,65.948c5.659-1.351,13.54-4.553,14.568,0.024
				c1.222,5.441,2.731,18.342,4.313,30.873c0.34,2.702-3.123,4.102-3.984,4.363c-3.855,1.165-7.165,1.529-11.431,2.104
				l-3.482-37.341C65.711,65.961,65.722,65.95,65.727,65.948z"/>
			<path style="fill-rule:evenodd;clip-rule:evenodd;fill:#6F7478;" d="M48.542,65.948c-7.147-1.704-12.826-5.681-14.074-0.068
				c-1.305,5.876-2.736,18.75-4.245,30.774c-0.387,3.08,2.821,4.404,3.86,4.673c3.7,0.961,6.889,1.433,10.994,1.986l3.481-37.341
				C48.559,65.961,48.547,65.949,48.542,65.948z"/>
			<path style="fill-rule:evenodd;clip-rule:evenodd;fill:#27557D;" d="M42.973,102.584l-0.186,0.438
				c8.804,1.114,19.633,1.133,28.464,0.059c-0.082-0.179-0.161-0.345-0.238-0.497H42.973z"/>
			<path style="fill-rule:evenodd;clip-rule:evenodd;fill:#969DA3;" d="M39.436,102.494c1.952-5.631-2.504-31.994-4.968-36.843
				c1.401-4.976,14.438-6.077,17.909-8.905c1.646,1.448,2.819,1.779,4.686,1.779c1.866,0,3.1-0.378,4.745-1.827
				c2.568,2.093,16.026,3.725,18.329,8.702c-2.62,5.555-7.426,32.003-5.346,37.068C66.025,104.192,48.455,104.313,39.436,102.494z"
				/>
			<polygon style="fill-rule:evenodd;clip-rule:evenodd;fill:#FFFFFF;" points="48.271,59.138 47.854,70.219 57.129,93.764 
				66.272,70.219 65.704,58.833 61.81,56.697 52.378,56.746 			"/>
			<rect x="52.379" y="52.875" style="fill-rule:evenodd;clip-rule:evenodd;fill:#D1A886;" width="9.264" height="9.597"/>
			<path style="fill-rule:evenodd;clip-rule:evenodd;fill:#FCB024;" d="M58.6,68.404l0.646-1.363l-2.182-5.289l-2.147,5.204
				l0.686,1.448C56.601,68.404,57.601,68.404,58.6,68.404z"/>
			<polygon style="fill-rule:evenodd;clip-rule:evenodd;fill:#CCCCCC;" points="52.377,56.746 57.064,61.752 53.728,70.673 
				49.605,58.586 			"/>
			<polygon style="fill-rule:evenodd;clip-rule:evenodd;fill:#CCCCCC;" points="61.81,56.698 57.064,61.752 60.398,70.673 
				64.581,58.538 			"/>
			<polygon style="fill-rule:evenodd;clip-rule:evenodd;fill:#FCB024;" points="55.602,71.722 58.6,71.722 60.158,86.747 
				57.064,93.889 54.086,86.747 			"/>
			<polygon style="fill-rule:evenodd;clip-rule:evenodd;fill:#FFFFFF;" points="52.378,56.746 57.064,61.752 53.656,68.468 
				49.606,58.585 			"/>
			<polygon style="fill-rule:evenodd;clip-rule:evenodd;fill:#3F73A1;" points="49.635,58.343 57.064,93.889 46.023,72.833 
				47.854,70.219 44.322,67.471 47.688,59.415 			"/>
			<polygon style="fill-rule:evenodd;clip-rule:evenodd;fill:#3F73A1;" points="64.672,58.267 57.064,93.889 68.104,72.833 
				66.272,70.219 69.804,67.471 67.429,59.543 			"/>
			<polygon style="fill-rule:evenodd;clip-rule:evenodd;fill:#FFFFFF;" points="61.81,56.696 57.064,61.752 60.471,68.468 
				64.581,58.536 			"/>
			<path style="fill-rule:evenodd;clip-rule:evenodd;fill:#FCB024;" d="M55.602,68.157H58.6c0.67,1.389,0.617,2.604,0,3.789h-2.998
				C54.985,70.761,54.933,69.546,55.602,68.157z"/>
			<path style="fill-rule:evenodd;clip-rule:evenodd;fill:#27557D;" d="M56.642,103.869c0.079-2.608,0.276-5.71,0.594-10.359
				c0.319,4.65,0.531,7.753,0.626,10.36C57.456,103.872,57.048,103.871,56.642,103.869z"/>
			<polygon style="fill-rule:evenodd;clip-rule:evenodd;fill:#FFFFFF;" points="46.868,59.423 48.019,70.044 57.247,93.47 
				66.344,70.044 67.495,59.423 63.093,56.592 51.27,56.592 			"/>
			<rect x="51.27" y="52.789" style="fill-rule:evenodd;clip-rule:evenodd;fill:#D1A886;" width="11.719" height="9.548"/>
			<path style="fill-rule:evenodd;clip-rule:evenodd;fill:#F2CAA9;" d="M57.181,58.41c4.619,0,8.894-5.282,11.15-11.752
				c0.132,0.136,0.281,0.222,0.445,0.249c0.919,0.153,1.972-1.573,2.352-3.855c0.379-2.283-0.059-4.258-0.977-4.409
				c-0.065-0.012-0.131-0.013-0.197-0.005c0.45-8.018-2.872-15.424-12.772-15.424c-9.907,0-13.228,7.418-12.771,15.442
				c-0.101-0.025-0.201-0.03-0.3-0.014c-0.918,0.151-1.356,2.126-0.978,4.409c0.379,2.282,1.431,4.009,2.351,3.855
				c0.196-0.033,0.37-0.148,0.519-0.332C48.249,53.084,52.542,58.41,57.181,58.41z"/>
			<path style="fill-rule:evenodd;clip-rule:evenodd;fill:#6B451D;" d="M69.955,38.638c0.451-8.018-2.874-15.424-12.773-15.424
				c-9.907,0-13.229,7.418-12.772,15.441c0.801,0.2,1.636,1.668,2.005,3.577c0.646,0.435,1.114,0.182,1.114-1.436
				c0-4.771,0.589-9,3.723-10.009c2.983-0.959,3.638,1.146,5.914,1.146c2.275,0,2.993-1.983,5.913-1.146
				c3.031,0.87,3.723,5.237,3.723,10.009c0,1.552,0.431,1.848,1.037,1.485C68.215,40.266,69.116,38.731,69.955,38.638z"/>
			<path style="fill-rule:evenodd;clip-rule:evenodd;fill:#27557D;" d="M58.71,68.24l0.642-1.357l-2.171-5.263l-2.135,5.178
				l0.682,1.442C56.722,68.24,57.716,68.24,58.71,68.24z"/>
			<polygon style="fill-rule:evenodd;clip-rule:evenodd;fill:#CCCCCC;" points="51.27,56.592 57.181,61.62 53.863,70.496 
				48.512,58.421 			"/>
			<polygon style="fill-rule:evenodd;clip-rule:evenodd;fill:#6F7478;" points="48.512,58.421 57.181,93.595 45.013,74.193 
				46.612,70.808 43.14,68.039 46.868,59.423 			"/>
			<polygon style="fill-rule:evenodd;clip-rule:evenodd;fill:#CCCCCC;" points="63.093,56.592 57.181,61.62 60.5,70.496 
				65.851,58.421 			"/>
			<polygon style="fill-rule:evenodd;clip-rule:evenodd;fill:#27557D;" points="55.728,71.54 58.71,71.54 60.26,86.49 
				57.181,93.595 54.218,86.49 			"/>
			<polygon style="fill-rule:evenodd;clip-rule:evenodd;fill:#FFFFFF;" points="51.27,56.592 57.181,61.62 53.792,68.304 
				48.512,58.421 			"/>
			<polygon style="fill-rule:evenodd;clip-rule:evenodd;fill:#969DA3;" points="48.512,58.421 57.181,93.595 46.196,72.646 
				48.019,70.044 44.504,67.312 46.868,59.423 			"/>
			<polygon style="fill-rule:evenodd;clip-rule:evenodd;fill:#6F7478;" points="65.851,58.421 57.181,93.595 69.349,74.193 
				67.75,70.808 71.222,68.039 67.495,59.423 			"/>
			<polygon style="fill-rule:evenodd;clip-rule:evenodd;fill:#969DA3;" points="65.851,58.421 57.181,93.595 68.166,72.646 
				66.344,70.044 69.857,67.312 67.495,59.423 			"/>
			<polygon style="fill-rule:evenodd;clip-rule:evenodd;fill:#FFFFFF;" points="63.093,56.592 57.181,61.62 60.571,68.304 
				65.851,58.421 			"/>
			<path style="fill-rule:evenodd;clip-rule:evenodd;fill:#27557D;" d="M55.728,67.994h2.982c0.667,1.381,0.615,2.589,0,3.77h-2.982
				C55.113,70.583,55.061,69.375,55.728,67.994z"/>
			<path style="fill-rule:evenodd;clip-rule:evenodd;fill:#6F7478;" d="M56.432,103.869c0.489,0.003,0.978,0.005,1.466,0.002
				c0.18-2.523-0.361-9.248-0.733-10.358C56.793,94.402,56.254,101.214,56.432,103.869z"/>
		</g>
		<g>
			<path style="fill-rule:evenodd;clip-rule:evenodd;fill:#27557D;" d="M183.683,38.982c5.021-1.198,12.017-4.041,12.929,0.021
				c1.085,4.83,2.424,16.278,3.828,27.399c0.303,2.398-2.771,3.641-3.535,3.873c-3.421,1.034-6.359,1.358-10.145,1.867l-3.089-33.14
				C183.667,38.995,183.677,38.984,183.683,38.982z"/>
			<path style="fill-rule:evenodd;clip-rule:evenodd;fill:#27557D;" d="M168.431,38.982c-6.343-1.513-11.384-5.042-12.491-0.061
				c-1.158,5.215-2.428,16.641-3.768,27.312c-0.343,2.733,2.503,3.908,3.425,4.147c3.284,0.853,6.115,1.271,9.758,1.763l3.09-33.14
				C168.446,38.995,168.436,38.984,168.431,38.982z"/>
			<path style="fill-rule:evenodd;clip-rule:evenodd;fill:#27557D;" d="M163.489,71.496l-0.165,0.389
				c7.814,0.989,17.425,1.007,25.262,0.053c-0.072-0.158-0.143-0.306-0.211-0.441H163.489z"/>
			<path style="fill-rule:evenodd;clip-rule:evenodd;fill:#3F73A1;" d="M160.349,71.416c1.733-4.996-2.222-28.394-4.408-32.697
				c1.243-4.416,12.814-5.393,15.895-7.903c1.461,1.286,2.502,1.579,4.159,1.579c1.657,0,2.751-0.335,4.211-1.621
				c2.28,1.856,14.224,3.306,16.267,7.723c-2.326,4.93-6.59,28.402-4.745,32.897C183.947,72.923,168.354,73.031,160.349,71.416z"/>
			<polygon style="fill-rule:evenodd;clip-rule:evenodd;fill:#FFFFFF;" points="168.19,32.938 167.821,42.771 176.052,63.669 
				184.167,42.771 183.663,32.668 180.206,30.772 171.835,30.815 			"/>
			<rect x="171.836" y="27.38" style="fill-rule:evenodd;clip-rule:evenodd;fill:#D1A886;" width="8.223" height="8.517"/>
			<path style="fill-rule:evenodd;clip-rule:evenodd;fill:#FCB024;" d="M177.357,41.163l0.573-1.211l-1.937-4.693l-1.905,4.617
				l0.608,1.287C175.583,41.163,176.471,41.163,177.357,41.163z"/>
			<polygon style="fill-rule:evenodd;clip-rule:evenodd;fill:#CCCCCC;" points="171.835,30.815 175.994,35.259 173.033,43.176 
				169.374,32.448 			"/>
			<polygon style="fill-rule:evenodd;clip-rule:evenodd;fill:#27557D;" points="169.401,32.233 175.994,63.78 165.14,46.473 
				166.566,43.452 163.469,40.983 167.674,33.184 			"/>
			<polygon style="fill-rule:evenodd;clip-rule:evenodd;fill:#CCCCCC;" points="180.206,30.773 175.994,35.259 178.954,43.176 
				182.665,32.405 			"/>
			<polygon style="fill-rule:evenodd;clip-rule:evenodd;fill:#FCB024;" points="174.697,44.106 177.357,44.106 178.74,57.441 
				175.994,63.78 173.351,57.441 			"/>
			<polygon style="fill-rule:evenodd;clip-rule:evenodd;fill:#FFFFFF;" points="171.835,30.815 175.994,35.259 172.97,41.219 
				169.376,32.447 			"/>
			<polygon style="fill-rule:evenodd;clip-rule:evenodd;fill:#3F73A1;" points="169.401,32.233 175.994,63.78 166.195,45.094 
				167.821,42.771 164.686,40.334 167.673,33.184 			"/>
			<polygon style="fill-rule:evenodd;clip-rule:evenodd;fill:#27557D;" points="182.747,32.166 175.994,63.78 186.847,46.473 
				185.421,43.452 188.519,40.983 185.193,33.298 			"/>
			<polygon style="fill-rule:evenodd;clip-rule:evenodd;fill:#3F73A1;" points="182.747,32.166 175.994,63.78 185.792,45.094 
				184.167,42.771 187.301,40.334 185.193,33.298 			"/>
			<polygon style="fill-rule:evenodd;clip-rule:evenodd;fill:#FFFFFF;" points="180.206,30.772 175.994,35.259 179.017,41.219 
				182.665,32.404 			"/>
			<path style="fill-rule:evenodd;clip-rule:evenodd;fill:#FCB024;" d="M174.697,40.942h2.661c0.594,1.233,0.548,2.311,0,3.363
				h-2.661C174.149,43.253,174.102,42.176,174.697,40.942z"/>
			<path style="fill-rule:evenodd;clip-rule:evenodd;fill:#27557D;" d="M175.619,72.637c0.071-2.314,0.245-5.067,0.528-9.194
				c0.284,4.128,0.471,6.881,0.557,9.195C176.342,72.64,175.98,72.64,175.619,72.637z"/>
			<polygon style="fill-rule:evenodd;clip-rule:evenodd;fill:#FFFFFF;" points="166.945,33.191 167.966,42.618 176.157,63.408 
				184.23,42.618 185.252,33.191 181.344,30.679 170.852,30.679 			"/>
			<rect x="170.852" y="27.304" style="fill-rule:evenodd;clip-rule:evenodd;fill:#D1A886;" width="10.401" height="8.474"/>
			<path style="fill-rule:evenodd;clip-rule:evenodd;fill:#F2CAA9;" d="M176.098,32.293c4.1,0,7.895-4.688,9.895-10.431
				c0.117,0.121,0.249,0.197,0.395,0.222c0.815,0.135,1.751-1.398,2.087-3.422c0.336-2.026-0.053-3.778-0.868-3.914
				c-0.057-0.01-0.116-0.01-0.175-0.004c0.4-7.115-2.55-13.688-11.335-13.688c-8.792,0-11.74,6.584-11.334,13.706
				c-0.09-0.023-0.179-0.028-0.267-0.014c-0.816,0.136-1.204,1.888-0.868,3.914c0.336,2.024,1.271,3.557,2.086,3.422
				c0.173-0.029,0.328-0.132,0.461-0.295C168.17,27.565,171.982,32.293,176.098,32.293z"/>
			<path style="fill-rule:evenodd;clip-rule:evenodd;fill:#3B1911;" d="M187.435,14.744c0.4-7.115-2.552-13.688-11.337-13.688
				c-8.792,0-11.741,6.584-11.336,13.706c0.711,0.177,1.453,1.479,1.78,3.173c0.573,0.387,0.989,0.161,0.989-1.273
				c0-4.235,0.523-7.987,3.304-8.882c2.647-0.853,3.229,1.017,5.249,1.017c2.019,0,2.656-1.761,5.247-1.017
				c2.691,0.772,3.305,4.647,3.305,8.882c0,1.377,0.382,1.64,0.919,1.318C185.891,16.188,186.689,14.828,187.435,14.744z"/>
			<path style="fill-rule:evenodd;clip-rule:evenodd;fill:#FC8D25;" d="M177.455,41.017l0.57-1.204l-1.927-4.672l-1.895,4.597
				l0.605,1.279C175.691,41.017,176.573,41.017,177.455,41.017z"/>
			<polygon style="fill-rule:evenodd;clip-rule:evenodd;fill:#CCCCCC;" points="170.852,30.679 176.098,35.141 173.154,43.018 
				168.404,32.302 			"/>
			<polygon style="fill-rule:evenodd;clip-rule:evenodd;fill:#27557D;" points="168.404,32.302 176.098,63.518 165.299,46.3 
				166.718,43.295 163.636,40.839 166.945,33.191 			"/>
			<polygon style="fill-rule:evenodd;clip-rule:evenodd;fill:#CCCCCC;" points="181.344,30.679 176.098,35.141 179.043,43.018 
				183.792,32.302 			"/>
			<polygon style="fill-rule:evenodd;clip-rule:evenodd;fill:#FC8D25;" points="174.808,43.945 177.455,43.945 178.83,57.213 
				176.098,63.518 173.469,57.213 			"/>
			<path style="fill-rule:evenodd;clip-rule:evenodd;fill:#3B1911;" d="M184.007,5.687c-1.134,2.268-11.792,4.16-15.577,4.457
				C164.645,10.44,167.462-0.189,184.007,5.687z"/>
			<path style="fill-rule:evenodd;clip-rule:evenodd;fill:#3B1911;" d="M178.568,5.687c0.489,2.268,6.181,7.231,7.812,7.528
				C188.012,13.512,185.7-0.189,178.568,5.687z"/>
			<polygon style="fill-rule:evenodd;clip-rule:evenodd;fill:#FFFFFF;" points="170.852,30.679 176.098,35.141 173.089,41.072 
				168.404,32.302 			"/>
			<polygon style="fill-rule:evenodd;clip-rule:evenodd;fill:#3F73A1;" points="168.404,32.302 176.098,63.518 166.349,44.927 
				167.966,42.618 164.849,40.192 166.945,33.191 			"/>
			<polygon style="fill-rule:evenodd;clip-rule:evenodd;fill:#27557D;" points="183.792,32.302 176.098,63.518 186.897,46.3 
				185.479,43.295 188.56,40.839 185.252,33.191 			"/>
			<polygon style="fill-rule:evenodd;clip-rule:evenodd;fill:#3F73A1;" points="183.792,32.302 176.098,63.518 185.847,44.927 
				184.23,42.618 187.348,40.192 185.252,33.191 			"/>
			<polygon style="fill-rule:evenodd;clip-rule:evenodd;fill:#FFFFFF;" points="181.344,30.679 176.098,35.141 179.107,41.072 
				183.792,32.302 			"/>
			<path style="fill-rule:evenodd;clip-rule:evenodd;fill:#FC8D25;" d="M174.808,40.798h2.647c0.592,1.227,0.545,2.299,0,3.346
				h-2.647C174.263,43.097,174.217,42.024,174.808,40.798z"/>
			<path style="fill-rule:evenodd;clip-rule:evenodd;fill:#27557D;" d="M175.433,72.637c0.434,0.003,0.868,0.004,1.301,0.002
				c0.16-2.239-0.32-8.207-0.65-9.193C175.753,64.235,175.275,70.28,175.433,72.637z"/>
		</g>
		<g>
			<path style="fill-rule:evenodd;clip-rule:evenodd;fill:#4C6173;" d="M144.766,66.983c5.504-1.313,9.312-4.945,10.314-0.492
				c1.19,5.295,3.856,18.915,5.397,31.104c0.332,2.63-0.381,3.432-1.22,3.687c-3.749,1.135-6.969,1.487-11.119,2.047l-3.386-36.321
				C144.75,66.996,144.76,66.985,144.766,66.983z"/>
			<path style="fill-rule:evenodd;clip-rule:evenodd;fill:#6E4D28;" d="M151.597,47.964c-3.394,16.069-10.157,44.705-15.271,44.705
				c-5.115,0-15.144-30.781-17.113-42.642c-1.699-10.224,1.529-30.195,22.99-23.672C149.398,25.958,154.542,34.016,151.597,47.964z"
				/>
			<path style="fill-rule:evenodd;clip-rule:evenodd;fill:#4C6173;" d="M128.05,66.983c-6.953-1.658-9.266-5.288-10.48,0.172
				c-1.271,5.717-3.774,18.837-5.245,30.534c-0.377,2.998,0.647,3.445,1.659,3.707c3.599,0.934,6.701,1.394,10.694,1.933
				l3.386-36.321C128.065,66.996,128.055,66.984,128.05,66.983z"/>
			<path style="fill-rule:evenodd;clip-rule:evenodd;fill:#27557D;" d="M122.632,102.619l-0.181,0.426
				c8.564,1.084,19.097,1.103,27.688,0.058c-0.08-0.174-0.156-0.335-0.232-0.483H122.632z"/>
			<path style="fill-rule:evenodd;clip-rule:evenodd;fill:#688096;" d="M122.17,103.008c2.43-7.01,1.026-9.073-2.16-16.713
				c-3.247-7.79,3.343-11.959-1.555-21.601c4.341-2.784,9.949-3.911,13.325-6.662c1.602,1.409,2.742,1.73,4.559,1.73
				c1.815,0,3.015-0.368,4.616-1.777c2.498,2.035,8.896,3.749,13.438,6.709c-4.669,9.896,1.656,11.525-1.556,21.601
				c-2.453,7.692-6.276,8.118-2.709,16.809C141.444,104.158,130.78,104.127,122.17,103.008z"/>
			<polygon style="fill-rule:evenodd;clip-rule:evenodd;fill:#FFFFFF;" points="127.786,60.358 127.38,71.137 136.402,94.04 
				145.296,71.137 144.743,60.062 140.955,57.985 131.781,58.032 			"/>
			<rect x="131.782" y="54.268" style="fill-rule:evenodd;clip-rule:evenodd;fill:#D1A886;" width="9.012" height="9.334"/>
			<path style="fill-rule:evenodd;clip-rule:evenodd;fill:#F2CAA9;" d="M136.338,59.764c4.515,0,8.696-5.164,10.899-11.49
				c0.13,0.133,0.274,0.217,0.436,0.244c0.898,0.149,1.928-1.539,2.299-3.771c0.37-2.231-0.057-4.161-0.956-4.31
				c-0.063-0.01-0.127-0.011-0.192-0.004c0.441-7.838-2.809-15.079-12.486-15.079c-9.686,0-12.932,7.251-12.486,15.098
				c-0.098-0.025-0.197-0.03-0.293-0.015c-0.898,0.149-1.326,2.079-0.956,4.31c0.371,2.232,1.4,3.919,2.298,3.771
				c0.192-0.032,0.361-0.145,0.507-0.324C127.605,54.555,131.803,59.764,136.338,59.764z"/>
			<path style="fill-rule:evenodd;clip-rule:evenodd;fill:#93B9DB;" d="M137.833,69.372l0.628-1.326l-2.122-5.145l-2.088,5.062
				l0.666,1.409C135.888,69.372,136.861,69.372,137.833,69.372z"/>
			<polygon style="fill-rule:evenodd;clip-rule:evenodd;fill:#CCCCCC;" points="131.779,58.032 136.338,62.901 133.094,71.579 
				129.083,59.821 			"/>
			<polygon style="fill-rule:evenodd;clip-rule:evenodd;fill:#4C6173;" points="129.112,59.586 136.338,94.161 124.442,75.193 
				126.005,71.883 122.611,69.177 127.218,60.629 			"/>
			<polygon style="fill-rule:evenodd;clip-rule:evenodd;fill:#CCCCCC;" points="140.955,57.985 136.338,62.901 139.582,71.579 
				143.651,59.775 			"/>
			<polygon style="fill-rule:evenodd;clip-rule:evenodd;fill:#93B9DB;" points="134.917,72.599 137.833,72.599 139.348,87.215 
				136.338,94.161 133.441,87.215 			"/>
			<polygon style="fill-rule:evenodd;clip-rule:evenodd;fill:#FFFFFF;" points="131.781,58.031 136.338,62.901 133.024,69.434 
				129.085,59.82 			"/>
			<polygon style="fill-rule:evenodd;clip-rule:evenodd;fill:#688096;" points="129.112,59.586 136.338,94.161 125.598,73.681 
				127.38,71.137 123.945,68.465 127.218,60.629 			"/>
			<polygon style="fill-rule:evenodd;clip-rule:evenodd;fill:#4C6173;" points="143.74,59.513 136.338,94.161 148.233,75.193 
				146.671,71.883 150.066,69.177 146.421,60.752 			"/>
			<polygon style="fill-rule:evenodd;clip-rule:evenodd;fill:#688096;" points="143.74,59.513 136.338,94.161 147.078,73.681 
				145.296,71.137 148.73,68.465 146.421,60.752 			"/>
			<polygon style="fill-rule:evenodd;clip-rule:evenodd;fill:#FFFFFF;" points="140.955,57.985 136.338,62.901 139.652,69.434 
				143.651,59.773 			"/>
			<path style="fill-rule:evenodd;clip-rule:evenodd;fill:#93B9DB;" d="M134.917,69.132h2.916c0.651,1.351,0.601,2.532,0,3.686
				h-2.916C134.316,71.664,134.266,70.482,134.917,69.132z"/>
			<path style="fill-rule:evenodd;clip-rule:evenodd;fill:#4C6173;" d="M135.928,103.869c0.077-2.537,0.268-5.554,0.579-10.077
				c0.31,4.524,0.516,7.542,0.609,10.078C136.72,103.872,136.324,103.871,135.928,103.869z"/>
			
				<ellipse transform="matrix(0.2169 -0.9762 0.9762 0.2169 72.0502 180.1458)" style="fill-rule:evenodd;clip-rule:evenodd;fill:#F2CAA9;" cx="148.313" cy="45.163" rx="3.41" ry="1.617"/>
			<path style="fill-rule:evenodd;clip-rule:evenodd;fill:#6E4D28;" d="M149.001,40.433c0.45-7.838-2.86-15.079-12.713-15.079
				c-9.861,0-13.169,7.251-12.714,15.096c0.798,0.196,1.629,1.631,1.996,3.498c0.643,0.425,1.108,0.177,1.108-1.403
				c0-4.665,0.588-8.799,3.707-9.785c2.968-0.939,3.621,1.12,5.886,1.12c2.266,0,2.979-1.938,5.886-1.12
				c3.018,0.85,3.706,5.12,3.706,9.785c0,1.516,0.429,1.807,1.032,1.452C147.271,42.024,148.167,40.524,149.001,40.433z"/>
			<path style="fill-rule:evenodd;clip-rule:evenodd;fill:#6E4D28;" d="M145.276,28.006c0.627,4.393-6.277,13.965-11.298,16.163
				c3.206-1.78,5.311-8.394,4.537-13.18C138.333,29.867,145.799,28.842,145.276,28.006z"/>
			<path style="fill-rule:evenodd;clip-rule:evenodd;fill:#6E4D28;" d="M141.93,28.59c-0.593,4.397-15.459,18.072-20.89,18.818
				c-1.685-22.608,12.214-13.222,13.572-17.79C134.936,28.529,142.206,29.536,141.93,28.59z"/>
			<path style="fill-rule:evenodd;clip-rule:evenodd;fill:#6E4D28;" d="M138.359,25.781c-0.353,4.425,6.914,20.277,12.062,22.156
				c1.942-16.182-2.259-18.286-5.13-19.6C144.26,27.866,137.889,26.648,138.359,25.781z"/>
		</g>
		<g>
			<path style="fill-rule:evenodd;clip-rule:evenodd;fill:#27557D;" d="M110.167,107.178c7.36-1.757,17.613-5.924,18.95,0.03
				c1.59,7.078,3.553,23.859,5.611,40.159c0.443,3.516-4.061,5.337-5.183,5.677c-5.014,1.517-9.32,1.989-14.87,2.738l-4.528-48.574
				C110.145,107.194,110.159,107.179,110.167,107.178z"/>
			<path style="fill-rule:evenodd;clip-rule:evenodd;fill:#27557D;" d="M87.812,107.178c-9.296-2.218-16.685-7.391-18.307-0.09
				c-1.699,7.644-3.56,24.39-5.523,40.031c-0.503,4.008,3.67,5.729,5.02,6.079c4.813,1.25,8.962,1.862,14.302,2.584l4.528-48.574
				C87.834,107.194,87.819,107.178,87.812,107.178z"/>
			<path style="fill-rule:evenodd;clip-rule:evenodd;fill:#27557D;" d="M80.567,154.832l-0.242,0.571
				c11.453,1.449,25.539,1.474,37.027,0.075c-0.106-0.232-0.21-0.447-0.309-0.646H80.567z"/>
			<path style="fill-rule:evenodd;clip-rule:evenodd;fill:#3F73A1;" d="M75.966,154.716c2.541-7.324-3.257-41.618-6.461-47.925
				c1.821-6.474,18.781-7.905,23.296-11.584c2.142,1.884,3.667,2.313,6.096,2.313c2.428,0,4.033-0.491,6.172-2.377
				c3.34,2.723,20.848,4.846,23.842,11.321c-3.408,7.225-9.659,41.628-6.954,48.219C110.555,156.925,87.698,157.083,75.966,154.716z
				"/>
			<polygon style="fill-rule:evenodd;clip-rule:evenodd;fill:#FFFFFF;" points="87.459,98.317 86.918,112.73 98.982,143.359 
				110.876,112.73 110.136,97.921 105.07,95.144 92.802,95.207 			"/>
			<rect x="92.803" y="90.171" style="fill-rule:evenodd;clip-rule:evenodd;fill:#D1A886;" width="12.051" height="12.483"/>
			<path style="fill-rule:evenodd;clip-rule:evenodd;fill:#FCB024;" d="M100.895,110.372l0.839-1.774l-2.837-6.879l-2.792,6.769
				l0.891,1.885C98.296,110.372,99.596,110.372,100.895,110.372z"/>
			<polygon style="fill-rule:evenodd;clip-rule:evenodd;fill:#CCCCCC;" points="92.801,95.207 98.897,101.719 94.558,113.321 
				89.194,97.599 			"/>
			<polygon style="fill-rule:evenodd;clip-rule:evenodd;fill:#27557D;" points="89.233,97.285 98.897,143.521 82.988,118.155 
				85.078,113.729 80.538,110.109 86.702,98.678 			"/>
			<polygon style="fill-rule:evenodd;clip-rule:evenodd;fill:#CCCCCC;" points="105.07,95.144 98.897,101.719 103.235,113.321 
				108.675,97.537 			"/>
			<polygon style="fill-rule:evenodd;clip-rule:evenodd;fill:#FCB024;" points="96.996,114.688 100.895,114.688 102.922,134.232 
				98.897,143.521 95.023,134.232 			"/>
			<polygon style="fill-rule:evenodd;clip-rule:evenodd;fill:#FFFFFF;" points="92.802,95.205 98.897,101.719 94.464,110.454 
				89.196,97.599 			"/>
			<polygon style="fill-rule:evenodd;clip-rule:evenodd;fill:#3F73A1;" points="89.233,97.285 98.897,143.521 84.535,116.134 
				86.918,112.73 82.323,109.157 86.701,98.678 			"/>
			<polygon style="fill-rule:evenodd;clip-rule:evenodd;fill:#27557D;" points="108.794,97.186 98.897,143.521 114.805,118.155 
				112.715,113.729 117.255,110.109 112.381,98.844 			"/>
			<polygon style="fill-rule:evenodd;clip-rule:evenodd;fill:#3F73A1;" points="108.794,97.186 98.897,143.521 113.258,116.134 
				110.876,112.73 115.469,109.157 112.381,98.844 			"/>
			<polygon style="fill-rule:evenodd;clip-rule:evenodd;fill:#FFFFFF;" points="105.07,95.142 98.897,101.719 103.329,110.454 
				108.675,97.535 			"/>
			<path style="fill-rule:evenodd;clip-rule:evenodd;fill:#FCB024;" d="M96.996,110.05h3.899c0.872,1.807,0.803,3.386,0,4.93h-3.899
				C96.192,113.435,96.125,111.856,96.996,110.05z"/>
			<path style="fill-rule:evenodd;clip-rule:evenodd;fill:#27557D;" d="M98.347,156.505c0.104-3.394,0.36-7.428,0.773-13.477
				c0.416,6.05,0.69,10.086,0.815,13.477C99.407,156.509,98.878,156.508,98.347,156.505z"/>
			<polygon style="fill-rule:evenodd;clip-rule:evenodd;fill:#FFFFFF;" points="85.634,98.688 87.131,112.504 99.135,142.977 
				110.969,112.504 112.466,98.688 106.739,95.005 91.36,95.005 			"/>
			<rect x="91.36" y="90.059" style="fill-rule:evenodd;clip-rule:evenodd;fill:#D1A886;" width="15.245" height="12.421"/>
			<path style="fill-rule:evenodd;clip-rule:evenodd;fill:#F2CAA9;" d="M99.05,97.371c6.008,0,11.57-6.87,14.504-15.287
				c0.171,0.177,0.364,0.288,0.578,0.324c1.195,0.198,2.565-2.047,3.059-5.017c0.493-2.969-0.077-5.537-1.271-5.734
				c-0.085-0.015-0.17-0.016-0.256-0.007c0.586-10.429-3.737-20.063-16.613-20.063c-12.887,0-17.207,9.65-16.613,20.089
				c-0.132-0.034-0.261-0.04-0.391-0.019c-1.195,0.197-1.765,2.766-1.273,5.734c0.494,2.97,1.863,5.215,3.059,5.017
				c0.255-0.043,0.481-0.193,0.675-0.432C87.431,90.442,93.016,97.371,99.05,97.371z"/>
			<path style="fill-rule:evenodd;clip-rule:evenodd;fill:#57291E;" d="M115.666,71.65c0.587-10.429-3.739-20.063-16.615-20.063
				c-12.887,0-17.209,9.65-16.615,20.088c1.042,0.26,2.128,2.169,2.608,4.652c0.84,0.565,1.448,0.235,1.448-1.867
				c0-6.207,0.767-11.707,4.843-13.02c3.879-1.249,4.733,1.492,7.692,1.492c2.961,0,3.895-2.581,7.693-1.492
				c3.943,1.131,4.843,6.812,4.843,13.02c0,2.019,0.56,2.403,1.347,1.932C113.403,73.769,114.574,71.772,115.666,71.65z"/>
			<path style="fill-rule:evenodd;clip-rule:evenodd;fill:#FFB269;" d="M101.039,110.158l0.835-1.766l-2.824-6.847l-2.778,6.736
				l0.888,1.876C98.452,110.158,99.747,110.158,101.039,110.158z"/>
			<polygon style="fill-rule:evenodd;clip-rule:evenodd;fill:#CCCCCC;" points="91.36,95.005 99.05,101.546 94.734,113.093 
				87.772,97.385 			"/>
			<polygon style="fill-rule:evenodd;clip-rule:evenodd;fill:#27557D;" points="87.772,97.385 99.05,143.14 83.223,117.902 
				85.301,113.497 80.784,109.896 85.634,98.688 			"/>
			<polygon style="fill-rule:evenodd;clip-rule:evenodd;fill:#CCCCCC;" points="106.739,95.005 99.05,101.546 103.367,113.093 
				110.326,97.385 			"/>
			<polygon style="fill-rule:evenodd;clip-rule:evenodd;fill:#FFB269;" points="97.16,114.451 101.039,114.451 103.055,133.896 
				99.05,143.14 95.195,133.896 			"/>
			<path style="fill-rule:evenodd;clip-rule:evenodd;fill:#57291E;" d="M110.643,58.374c-1.663,3.325-18.41,12.851-23.957,13.285
				C81.138,72.096,86.391,49.764,110.643,58.374z"/>
			<path style="fill-rule:evenodd;clip-rule:evenodd;fill:#57291E;" d="M102.671,58.374c0.716,3.325,7.934,12.851,10.325,13.285
				C115.386,72.096,113.123,49.764,102.671,58.374z"/>
			<polygon style="fill-rule:evenodd;clip-rule:evenodd;fill:#FFFFFF;" points="91.36,95.005 99.05,101.546 94.641,110.24 
				87.772,97.385 			"/>
			<polygon style="fill-rule:evenodd;clip-rule:evenodd;fill:#3F73A1;" points="87.772,97.385 99.05,143.14 84.76,115.891 
				87.131,112.504 82.561,108.949 85.634,98.688 			"/>
			<polygon style="fill-rule:evenodd;clip-rule:evenodd;fill:#27557D;" points="110.326,97.385 99.05,143.14 114.877,117.902 
				112.798,113.497 117.315,109.896 112.466,98.688 			"/>
			<polygon style="fill-rule:evenodd;clip-rule:evenodd;fill:#3F73A1;" points="110.326,97.385 99.05,143.14 113.339,115.891 
				110.969,112.504 115.54,108.949 112.466,98.688 			"/>
			<polygon style="fill-rule:evenodd;clip-rule:evenodd;fill:#FFFFFF;" points="106.739,95.005 99.05,101.546 103.46,110.24 
				110.326,97.385 			"/>
			<path style="fill-rule:evenodd;clip-rule:evenodd;fill:#FFB269;" d="M97.16,109.837h3.879c0.867,1.797,0.799,3.369,0,4.905H97.16
				C96.36,113.206,96.292,111.634,97.16,109.837z"/>
			<path style="fill-rule:evenodd;clip-rule:evenodd;fill:#27557D;" d="M98.074,156.505c0.637,0.004,1.272,0.005,1.907,0.002
				c0.233-3.281-0.468-12.029-0.952-13.475C98.545,144.189,97.844,153.05,98.074,156.505z"/>
		</g>
	</g>
</g>
</svg>
