<?xml version="1.0" encoding="utf-8"?>
<!-- Generator: Adobe Illustrator 17.0.0, SVG Export Plug-In . SVG Version: 6.00 Build 0)  -->
<!DOCTYPE svg PUBLIC "-//W3C//DTD SVG 1.1//EN" "http://www.w3.org/Graphics/SVG/1.1/DTD/svg11.dtd">
<svg version="1.1" id="Слой_2" xmlns="http://www.w3.org/2000/svg" xmlns:xlink="http://www.w3.org/1999/xlink" x="0px" y="0px"
	 width="70.514px" height="81.508px" viewBox="-0.545 0 70.514 81.508" enable-background="new -0.545 0 70.514 81.508"
	 xml:space="preserve">
<path fill="#FBD6A0" d="M37.101,55.456l0.078,0.558l-0.076,0.483l-0.013,0.078c-1.24,7.921-1.093,15.904,0.003,23.832l0.152,1.101
	h-1.112c-2.375,0-4.752,0-7.128,0h-1.112l0.152-1.101c1.096-7.928,1.243-15.911,0.003-23.832l-0.013-0.078l-0.075-0.483l0.077-0.558
	l0.008-0.059c1.096-7.929,1.243-15.912,0.003-23.833l-0.013-0.078l-0.075-0.483l0.077-0.557l0.008-0.06
	c1.096-7.928,1.243-15.912,0.003-23.833l-0.175-1.119h1.132c2.376,0,4.753,0,7.128,0h1.133L37.09,6.553
	c-1.24,7.921-1.093,15.905,0.003,23.833l0.008,0.06l0.078,0.557l-0.076,0.483l-0.013,0.078c-1.24,7.921-1.093,15.904,0.003,23.833
	L37.101,55.456L37.101,55.456z M22.013,40.354c-0.741-5.019-0.275-10.094,1.402-15.158l0.832-2.511l0.986,2.455
	c2.45,6.086,3.097,12.27,1.87,18.522c-0.36,1.838-0.898,3.643-1.406,5.446c-1.591,0.427-4.064,0.806-6.146,0.809
	c-6.367,0.007-12.336-1.788-17.876-5.38l-2.22-1.438l2.625-0.335c5.306-0.676,10.357-0.168,15.132,1.523
	c-6.377-5.343-11.018-12.129-13.9-20.337l-0.877-2.495l2.281,1.34C12.222,27.203,17.994,33.062,22.013,40.354L22.013,40.354z
	 M40.875,55.456L40.8,56.014l0.073,0.483l0.013,0.078c1.241,7.921,1.095,15.904-0.001,23.832l-0.152,1.101h1.112
	c2.376,0,4.751,0,7.129,0h1.11l-0.151-1.101c-1.095-7.928-1.243-15.911-0.003-23.832l0.012-0.078l0.077-0.483l-0.077-0.558
	l-0.009-0.059c-1.059-7.656-1.232-15.361-0.127-23.013c0.1-0.685,0.136-1.216,0.138-1.915h-9.07c0,0.669,0.031,1.184,0.126,1.838
	c1.118,7.677,0.946,15.41-0.114,23.09L40.875,55.456L40.875,55.456z M46.866,18.901c0.743-5.021,0.276-10.095-1.399-15.159
	L44.636,1.23l-0.988,2.455c-2.449,6.087-3.099,12.272-1.87,18.521c0.36,1.838,0.897,3.644,1.406,5.446
	c1.589,0.427,4.063,0.808,6.146,0.809c6.368,0.008,12.336-1.788,17.875-5.379l2.22-1.439L66.8,21.308
	c-5.306-0.676-10.354-0.167-15.134,1.523c6.381-5.341,11.021-12.127,13.903-20.335L66.446,0l-2.281,1.34
	C56.657,5.748,50.887,11.609,46.866,18.901L46.866,18.901z"/>
<path fill="#842529" d="M29.005,6.562c2.376,0,4.753,0,7.128,0c-1.258,8.038-1.109,16.076,0,24.114c-2.375,0-4.752,0-7.128,0
	C30.115,22.638,30.264,14.6,29.005,6.562L29.005,6.562z M29.005,31.574c2.376,0,4.753,0,7.128,0c-1.258,8.038-1.109,16.076,0,24.114
	c-2.375,0-4.752,0-7.128,0C30.115,47.65,30.264,39.612,29.005,31.574L29.005,31.574z M29.005,56.584c2.376,0,4.753,0,7.128,0
	c-1.258,8.038-1.109,16.077,0,24.115c-2.375,0-4.752,0-7.128,0C30.115,72.661,30.264,64.623,29.005,56.584L29.005,56.584z
	 M24.441,48.342c-9.735-5.715-16.475-13.9-20.216-24.553C13.961,29.505,20.7,37.689,24.441,48.342L24.441,48.342z M23.872,48.826
	c-7.826,0.998-15.049-0.65-21.669-4.943C10.028,42.886,17.252,44.534,23.872,48.826L23.872,48.826z M25.027,47.876
	c2.478-7.49,2.25-14.896-0.693-22.216C21.854,33.15,22.084,40.554,25.027,47.876L25.027,47.876z M48.974,31.574
	c-2.378,0-4.753,0-7.131,0c1.261,8.038,1.112,16.076,0,24.114c2.378,0,4.753,0,7.131,0C47.861,47.65,47.713,39.612,48.974,31.574
	L48.974,31.574z M48.974,56.584c-2.378,0-4.753,0-7.131,0c1.261,8.038,1.112,16.077,0,24.115c2.378,0,4.753,0,7.131,0
	C47.861,72.661,47.713,64.623,48.974,56.584L48.974,56.584z M44.438,26.888c9.737-5.717,16.478-13.902,20.219-24.555
	C54.919,8.05,48.181,16.235,44.438,26.888L44.438,26.888z M45.009,27.371c7.826,0.997,15.05-0.65,21.669-4.943
	C58.851,21.431,51.629,23.079,45.009,27.371L45.009,27.371z M43.854,26.421c-2.481-7.49-2.251-14.895,0.692-22.216
	C47.026,11.695,46.795,19.1,43.854,26.421L43.854,26.421z"/>
</svg>
