<?xml version="1.0" encoding="utf-8"?>
<!-- Generator: Adobe Illustrator 17.0.0, SVG Export Plug-In . SVG Version: 6.00 Build 0)  -->
<!DOCTYPE svg PUBLIC "-//W3C//DTD SVG 1.1//EN" "http://www.w3.org/Graphics/SVG/1.1/DTD/svg11.dtd">
<svg version="1.1" id="Layer_1" xmlns="http://www.w3.org/2000/svg" xmlns:xlink="http://www.w3.org/1999/xlink" x="0px" y="0px"
	 width="259.873px" height="129.271px" viewBox="0 0 259.873 129.271" enable-background="new 0 0 259.873 129.271"
	 xml:space="preserve">
<g>
	<path fill="#FF5757" d="M63.459,0.001v77.133H45.94l-0.031-52.062l-6.984,52.062H26.502l-7.353-50.88l-0.031,50.88H1.587V0.001
		h25.947c0.763,4.633,1.544,10.085,2.376,16.418l2.845,19.601L37.35,0.001C37.35,0.001,63.459,0.001,63.459,0.001z M71.531,0.001
		h33.431v15.443H91.576v14.624h12.517v14.668H91.576v16.937h14.711v15.468H71.531V0.001z M112.058,0.001h14.199
		c9.46,0,15.862,0.369,19.226,1.1c3.332,0.719,6.077,2.582,8.184,5.602c2.126,2.989,3.17,7.765,3.17,14.355
		c0,6.015-0.738,10.035-2.226,12.092c-1.494,2.082-4.439,3.307-8.828,3.726c3.97,0.982,6.634,2.307,8.015,3.945
		c1.357,1.663,2.207,3.182,2.551,4.539c0.325,1.413,0.488,5.196,0.488,11.435V77.14h-18.625V51.512c0-4.12-0.313-6.69-0.975-7.684
		c-0.65-0.975-2.345-1.482-5.121-1.482v34.8h-20.045V0h-0.013V0.001z M132.102,13.193v17.15c2.257,0,3.845-0.306,4.752-0.919
		c0.919-0.638,1.35-2.626,1.35-6.046v-4.22c0-2.476-0.431-4.058-1.3-4.827C136.022,13.587,134.422,13.193,132.102,13.193z
		 M164.595,0.001h14.199c9.46,0,15.881,0.369,19.219,1.1c3.339,0.719,6.09,2.582,8.19,5.602c2.126,2.989,3.164,7.765,3.164,14.355
		c0,6.015-0.732,10.035-2.226,12.092c-1.494,2.082-4.439,3.307-8.816,3.726c3.964,0.982,6.634,2.307,8.003,3.945
		c1.369,1.663,2.213,3.182,2.551,4.539c0.325,1.413,0.488,5.196,0.488,11.435V77.14h-18.619V51.512c0-4.12-0.325-6.69-0.988-7.684
		c-0.656-0.975-2.351-1.482-5.102-1.482v34.8h-20.063V0.001z M184.658,13.193v17.15c2.238,0,3.826-0.306,4.733-0.919
		c0.913-0.638,1.363-2.626,1.363-6.046v-4.22c0-2.476-0.45-4.058-1.313-4.827C188.56,13.587,186.972,13.193,184.658,13.193z
		 M259.872,0.001l-14.624,49.205v27.929H226.66V49.206L212.561,0.001h18.438c2.87,15.049,4.489,25.184,4.858,30.379
		c1.119-8.203,2.976-18.338,5.596-30.379C241.453,0.001,259.872,0.001,259.872,0.001z"/>
	<path fill="#FFC82C" d="M26.928,103.575H15.543v-7.603c0-2.207-0.125-3.595-0.375-4.145c-0.244-0.55-0.782-0.819-1.613-0.819
		c-0.938,0-1.526,0.325-1.782,0.988c-0.256,0.681-0.375,2.107-0.375,4.339v20.363c0,2.12,0.119,3.52,0.375,4.158
		c0.256,0.656,0.819,0.994,1.707,0.994c0.85,0,1.407-0.338,1.676-0.994c0.263-0.65,0.388-2.17,0.388-4.583v-5.521h11.385v1.713
		c0,4.533-0.319,7.753-0.944,9.66c-0.65,1.894-2.069,3.551-4.264,4.989c-2.195,1.432-4.889,2.157-8.115,2.157
		c-3.326,0-6.077-0.613-8.234-1.813c-2.176-1.219-3.614-2.882-4.308-5.039c-0.7-2.138-1.063-5.346-1.063-9.641V99.961
		c0-3.157,0.106-5.533,0.331-7.084c0.219-1.601,0.863-3.114,1.938-4.564c1.063-1.463,2.557-2.626,4.464-3.464
		c1.913-0.838,4.083-1.263,6.577-1.263c3.357,0,6.108,0.669,8.303,1.951c2.182,1.3,3.608,2.907,4.308,4.858
		c0.675,1.938,1.019,4.945,1.019,9.034v4.145L26.928,103.575L26.928,103.575z M57.226,84.493v43.847H45.828v-18.394h-3.414v18.394
		H31.029V84.493h11.385v15.687h3.414V84.493H57.226z M61.79,84.493h8.072c5.377,0,9.009,0.219,10.916,0.638
		c1.901,0.419,3.464,1.476,4.664,3.195c1.2,1.694,1.788,4.414,1.788,8.165c0,3.42-0.413,5.696-1.269,6.859
		c-0.844,1.175-2.52,1.901-5.008,2.107c2.257,0.581,3.776,1.332,4.558,2.27c0.763,0.932,1.25,1.801,1.444,2.563
		c0.188,0.807,0.275,2.951,0.275,6.502v11.554H76.645v-14.568c0-2.357-0.163-3.789-0.55-4.352c-0.369-0.556-1.332-0.832-2.914-0.832
		v19.751H61.789C61.79,128.346,61.79,84.493,61.79,84.493z M73.188,92.002v9.766c1.288,0,2.201-0.194,2.695-0.544
		c0.531-0.369,0.769-1.494,0.769-3.439v-2.401c0-1.382-0.238-2.295-0.725-2.726C75.414,92.221,74.513,92.002,73.188,92.002z
		 M103.048,84.493v43.847H91.663V84.493C91.663,84.493,103.048,84.493,103.048,84.493z M131.777,97.786H121.18v-3.257
		c0-1.526-0.131-2.482-0.394-2.907c-0.275-0.394-0.725-0.613-1.35-0.613c-0.706,0-1.213,0.269-1.563,0.838
		c-0.356,0.563-0.525,1.419-0.525,2.551c0,1.451,0.194,2.576,0.588,3.295c0.388,0.744,1.457,1.638,3.22,2.688
		c5.077,2.995,8.272,5.471,9.597,7.396c1.307,1.957,1.963,5.058,1.963,9.328c0,3.151-0.369,5.433-1.1,6.909
		c-0.719,1.494-2.145,2.732-4.233,3.739c-2.088,1-4.533,1.513-7.309,1.513c-3.057,0-5.646-0.606-7.822-1.757
		c-2.145-1.144-3.564-2.626-4.227-4.408c-0.669-1.776-0.988-4.327-0.988-7.603v-2.876h10.572v5.352c0,1.651,0.144,2.701,0.444,3.17
		c0.3,0.463,0.832,0.706,1.594,0.706c0.744,0,1.313-0.294,1.682-0.907s0.544-1.469,0.544-2.663c0-2.588-0.338-4.264-1.044-5.058
		c-0.713-0.788-2.495-2.113-5.327-3.989c-2.839-1.869-4.727-3.22-5.633-4.064c-0.919-0.863-1.694-2.038-2.288-3.526
		c-0.606-1.507-0.9-3.401-0.9-5.733c0-3.376,0.419-5.833,1.282-7.384c0.869-1.538,2.245-2.745,4.158-3.633
		c1.907-0.857,4.226-1.313,6.927-1.313c2.951,0,5.477,0.481,7.559,1.432c2.088,0.95,3.464,2.157,4.139,3.614
		c0.682,1.451,1.032,3.92,1.032,7.403L131.777,97.786L131.777,97.786z M159.237,84.493v8.809h-6.759v35.037h-11.404V93.302h-6.74
		v-8.809C134.334,84.493,159.237,84.493,159.237,84.493z M196.994,84.493v43.847h-9.966l-0.012-29.573l-3.964,29.573h-7.065
		l-4.176-28.923l-0.012,28.923h-9.966V84.493h14.749c0.425,2.651,0.882,5.758,1.35,9.341l1.607,11.141l2.626-20.482
		C182.164,84.493,196.994,84.493,196.994,84.493z M221.271,84.493l6.521,43.847h-11.654l-0.613-7.878h-4.064l-0.688,7.878h-11.792
		l5.827-43.847C204.809,84.493,221.271,84.493,221.271,84.493z M215.232,112.678c-0.575-4.958-1.163-11.091-1.738-18.381
		c-1.157,8.372-1.901,14.511-2.188,18.381H215.232z M253.858,97.786h-10.579v-3.257c0-1.526-0.131-2.482-0.388-2.907
		c-0.294-0.394-0.732-0.613-1.369-0.613c-0.688,0-1.207,0.269-1.557,0.838c-0.356,0.563-0.538,1.419-0.538,2.551
		c0,1.451,0.206,2.576,0.613,3.295c0.381,0.744,1.444,1.638,3.214,2.688c5.071,2.995,8.272,5.471,9.585,7.396
		c1.319,1.957,1.969,5.058,1.969,9.328c0,3.151-0.363,5.433-1.088,6.909c-0.738,1.494-2.151,2.732-4.252,3.739
		c-2.082,1-4.52,1.513-7.296,1.513c-3.045,0-5.658-0.606-7.803-1.757c-2.163-1.144-3.576-2.626-4.245-4.408
		c-0.675-1.776-0.988-4.327-0.988-7.603v-2.876h10.579v5.352c0,1.651,0.144,2.701,0.438,3.17c0.294,0.463,0.819,0.706,1.576,0.706
		c0.763,0,1.325-0.294,1.701-0.907c0.369-0.613,0.563-1.469,0.563-2.663c0-2.588-0.363-4.264-1.057-5.058
		c-0.732-0.788-2.507-2.113-5.346-3.989c-2.813-1.869-4.695-3.22-5.621-4.064c-0.913-0.863-1.694-2.038-2.276-3.526
		c-0.6-1.507-0.925-3.401-0.925-5.733c0-3.376,0.438-5.833,1.313-7.384c0.844-1.538,2.232-2.745,4.133-3.633
		c1.919-0.857,4.226-1.313,6.94-1.313c2.964,0,5.489,0.481,7.559,1.432c2.082,0.95,3.464,2.157,4.139,3.614
		c0.669,1.451,1.013,3.92,1.013,7.403v1.757L253.858,97.786L253.858,97.786z"/>
</g>
</svg>
