<?xml version="1.0" encoding="utf-8"?>
<!-- Generator: Adobe Illustrator 17.0.0, SVG Export Plug-In . SVG Version: 6.00 Build 0)  -->
<!DOCTYPE svg PUBLIC "-//W3C//DTD SVG 1.1//EN" "http://www.w3.org/Graphics/SVG/1.1/DTD/svg11.dtd">
<svg version="1.1" id="图层_1" xmlns="http://www.w3.org/2000/svg" xmlns:xlink="http://www.w3.org/1999/xlink" x="0px" y="0px"
	 width="64px" height="64px" viewBox="0 0 64 64" enable-background="new 0 0 64 64" xml:space="preserve">
<path fill="#77B3D4" d="M32,0c17.673,0,32,14.327,32,32S49.673,64,32,64S0,49.673,0,32S14.327,0,32,0z"/>
<path fill="#E0995E" d="M48,12H16c-2.209,0-4,1.791-4,4v5.5V48c0,2.209,1.791,4,4,4h32c2.209,0,4-1.791,4-4V21.5V16
	C52,13.791,50.209,12,48,12z"/>
<path fill="#FFFFFF" d="M16,16h32v32H16V16z"/>
<path fill="#E0E0D1" d="M22,24h20v2H22V24z M22,28h20v2H22V28z M22,32h20v2H22V32z M22,36h20v2H22V36z M22,40h20v2H22V40z M37,12H27
	h-3v3v1v1c0,1.657,1.343,3,3,3h10c1.657,0,3-1.343,3-3v-1v-1v-3H37z"/>
<path fill="#4F5D73" d="M37,10H27h-3v3v1v1c0,1.657,1.343,3,3,3h10c1.657,0,3-1.343,3-3v-1v-1v-3H37z"/>
</svg>
