<?xml version="1.0" encoding="utf-8"?>
<!-- Generator: Adobe Illustrator 17.0.0, SVG Export Plug-In . SVG Version: 6.00 Build 0)  -->
<!DOCTYPE svg PUBLIC "-//W3C//DTD SVG 1.1//EN" "http://www.w3.org/Graphics/SVG/1.1/DTD/svg11.dtd">
<svg version="1.1" id="图层_1" xmlns="http://www.w3.org/2000/svg" xmlns:xlink="http://www.w3.org/1999/xlink" x="0px" y="0px"
	 width="36px" height="36px" viewBox="0 0 36 36" enable-background="new 0 0 36 36" xml:space="preserve">
<path fill="#20BAEF" d="M18.007,0.005C8.062,0.005,0,8.061,0,18c0,9.938,8.062,17.995,18.007,17.995S36.014,27.938,36.014,18
	C36.014,8.061,27.952,0.005,18.007,0.005z M18.908,18.548c1.324,1.85,2.637,3.714,3.949,5.573c0.814,1.154,2.479,3.535,3.77,5.41
	h-1.5c-1.161-1.667-2.802-4.022-3.49-5.012c-1.134-1.629-2.261-3.273-3.39-4.905c-0.223-0.322-0.246-0.313-0.46-0.002
	c-1.046,1.518-2.098,3.035-3.15,4.548c-1.073,1.542-2.15,3.087-3.223,4.628c-0.12,0.173-0.373,0.535-0.49,0.743H9.407
	c0.288-0.417,0.685-1.009,0.945-1.382c1.118-1.6,2.234-3.213,3.358-4.809c0.744-1.058,1.501-2.107,2.254-3.159
	c0.396-0.553,0.809-1.096,1.186-1.662c0.074-0.111,0.085-0.353,0.013-0.457c-0.365-0.529-0.778-1.023-1.151-1.546
	c-0.373-0.522-0.716-1.065-1.076-1.597c-0.115-0.171-0.244-0.333-0.363-0.502c-1.079-1.532-2.156-3.066-3.235-4.598
	c-0.459-0.652-1.669-2.308-2.397-3.35h1.507c1.356,1.945,3.393,4.783,4.552,6.438c0.993,1.417,1.986,2.833,3.023,4.313
	c0.239-0.337,0.445-0.626,0.649-0.917c2.07-2.953,4.821-6.847,6.901-9.834h1.512c-0.434,0.625-1.106,1.554-1.329,1.87
	c-0.853,1.208-1.706,2.416-2.557,3.624c-0.935,1.329-1.867,2.66-2.803,3.988c-0.491,0.696-0.984,1.393-1.486,2.081
	C18.775,18.217,18.766,18.349,18.908,18.548z"/>
</svg>
