<?xml version="1.0" encoding="utf-8"?>
<!-- Generator: Adobe Illustrator 17.0.0, SVG Export Plug-In . SVG Version: 6.00 Build 0)  -->
<!DOCTYPE svg PUBLIC "-//W3C//DTD SVG 1.1//EN" "http://www.w3.org/Graphics/SVG/1.1/DTD/svg11.dtd">
<svg version="1.1" id="图层_1" xmlns="http://www.w3.org/2000/svg" xmlns:xlink="http://www.w3.org/1999/xlink" x="0px" y="0px"
	 width="32px" height="20px" viewBox="0 0 32 20" enable-background="new 0 0 32 20" xml:space="preserve">
<path fill="#FF6903" d="M32.01,19.606c0,0.323-0.064,0.385-0.397,0.386c-1.41,0-2.821,0-4.232,0
	c-0.329-0.001-0.395-0.066-0.395-0.386c0-3.205,0-6.409,0-9.614c0-3.204,0-6.408,0-9.613c0-0.323,0.065-0.386,0.395-0.386
	c1.404,0,2.808,0,4.212,0c0.357,0,0.418,0.059,0.418,0.405C32.011,6.8,32.011,13.203,32.01,19.606z M22,20c-1.365,0-1.635,0.001-3,0
	c-0.373,0-1-0.644-1-1c0-3.99-0.011-7.01,0-11c0.002-0.815-0.459-2.362-1-3c-0.646-0.761-0.983-0.996-2-1
	c-3.185-0.012-5.815-0.001-9,0C5.184,4,5,4.295,5,5c0,5.012,0.019,9.599,0.019,14.611c0,0.318-0.065,0.38-0.4,0.38
	c-1.417,0-2.834,0.001-4.251,0c-0.293,0-0.376-0.079-0.376-0.352c0-3.217,0-6.433,0-9.65c0.001,0,0.001,0,0.002,0
	c0-3.192,0-6.384,0-9.576c0-0.369,0.049-0.419,0.441-0.419C6.037-0.007,11.641-0.017,17.243,0c1.479,0.004,2.776,0.53,3.878,1.479
	c1.175,1.012,1.807,2.287,1.981,3.782c0.013,0.117,0.008,0.237,0.008,0.355C23.11,10.267,23,14.349,23,19C23,19.843,22.383,20,22,20
	z M10,8c1.416-0.003,1.584-0.002,3,0c0.794,0.032,1,0.718,1,1c0,1.919,0.027,2.952,0.027,4.871s0,3.838,0,5.758
	c0,0.298-0.068,0.362-0.376,0.362c-1.41,0-2.82,0.001-4.23,0c-0.347,0-0.412-0.063-0.412-0.389C9.009,15.776,9,12.826,9,9
	C9,8.516,9.032,8,10,8z"/>
</svg>
