<?xml version="1.0" encoding="iso-8859-1"?>
<!-- Generator: Adobe Illustrator 15.0.0, SVG Export Plug-In . SVG Version: 6.00 Build 0)  -->
<!DOCTYPE svg PUBLIC "-//W3C//DTD SVG 1.1//EN" "http://www.w3.org/Graphics/SVG/1.1/DTD/svg11.dtd">
<svg version="1.1" id="Layer_1" xmlns="http://www.w3.org/2000/svg" xmlns:xlink="http://www.w3.org/1999/xlink" x="0px" y="0px"
	 width="128px" height="128px" viewBox="0 0 128 128" style="enable-background:new 0 0 128 128;" xml:space="preserve">
<g>
	<circle style="fill:#88C5CC;" cx="64" cy="64" r="64"/>
	<path style="fill:#E6E6E6;" d="M91.357,19.732C81.17,16.822,77.579,7.419,76.496,1.229C72.453,0.428,68.277,0,64,0
		c-4.3,0-8.499,0.432-12.563,1.24c-1.146,6.191-4.883,15.584-15.063,18.492c-10.56,3.018-21.481,2.729-31.63,20.08
		C1.693,47.275,0,55.438,0,64c0,9.578,2.119,18.656,5.891,26.813C18.17,80.275,20.922,52.085,25.662,52.085
		c5.121,0,5.893,8.067,5.893,16.758c0,8.691,3.84,17.845,3.84,23.122c0,3.977-4.205,12.538-6.279,25.68
		C39.15,124.186,51.127,128,64,128c12.859,0,24.823-3.807,34.854-10.334c-2.076-13.152-6.291-21.723-6.291-25.7
		c0-5.276,3.832-14.315,3.832-23.005s0.756-16.816,5.877-16.816c5,0,6.418,32.263,18.582,41.232C125.412,84.577,128,74.594,128,64
		c0-7.477-1.295-14.646-3.65-21.316C113.813,22.434,102.468,22.907,91.357,19.732z"/>
	<path style="fill:#CCCCCC;" d="M67.75,4v2c0,0.553-0.447,1-1,1h-6c-0.553,0-1-0.447-1-1V4c0-0.553,0.447-1,1-1h6
		C67.303,3,67.75,3.447,67.75,4z M66.75,8h-6c-0.553,0-1,0.447-1,1v2c0,0.553,0.447,1,1,1h6c0.553,0,1-0.447,1-1V9
		C67.75,8.447,67.303,8,66.75,8z M66.75,13h-6c-0.553,0-1,0.447-1,1v2c0,0.553,0.447,1,1,1h6c0.553,0,1-0.447,1-1v-2
		C67.75,13.447,67.303,13,66.75,13z M66.75,18h-6c-0.553,0-1,0.447-1,1v2c0,0.553,0.447,1,1,1h6c0.553,0,1-0.447,1-1v-2
		C67.75,18.447,67.303,18,66.75,18z M66.75,23h-6c-0.553,0-1,0.447-1,1v2c0,0.553,0.447,1,1,1h6c0.553,0,1-0.447,1-1v-2
		C67.75,23.447,67.303,23,66.75,23z M66.75,28h-6c-0.553,0-1,0.447-1,1v2c0,0.553,0.447,1,1,1h6c0.553,0,1-0.447,1-1v-2
		C67.75,28.447,67.303,28,66.75,28z M66.75,33h-6c-0.553,0-1,0.447-1,1v2c0,0.553,0.447,1,1,1h6c0.553,0,1-0.447,1-1v-2
		C67.75,33.447,67.303,33,66.75,33z M66.75,38h-6c-0.553,0-1,0.447-1,1v2c0,0.553,0.447,1,1,1h6c0.553,0,1-0.447,1-1v-2
		C67.75,38.447,67.303,38,66.75,38z M66.75,43h-6c-0.553,0-1,0.447-1,1v2c0,0.553,0.447,1,1,1h6c0.553,0,1-0.447,1-1v-2
		C67.75,43.447,67.303,43,66.75,43z M66.75,48h-6c-0.553,0-1,0.447-1,1v2c0,0.553,0.447,1,1,1h6c0.553,0,1-0.447,1-1v-2
		C67.75,48.447,67.303,48,66.75,48z M66.75,53h-6c-0.553,0-1,0.447-1,1v2c0,0.553,0.447,1,1,1h6c0.553,0,1-0.447,1-1v-2
		C67.75,53.447,67.303,53,66.75,53z M66.75,58h-6c-0.553,0-1,0.447-1,1v2c0,0.553,0.447,1,1,1h6c0.553,0,1-0.447,1-1v-2
		C67.75,58.447,67.303,58,66.75,58z M66.75,63h-6c-0.553,0-1,0.447-1,1v2c0,0.553,0.447,1,1,1h6c0.553,0,1-0.447,1-1v-2
		C67.75,63.447,67.303,63,66.75,63z M66.75,68h-6c-0.553,0-1,0.447-1,1v2c0,0.553,0.447,1,1,1h6c0.553,0,1-0.447,1-1v-2
		C67.75,68.447,67.303,68,66.75,68z M66.75,73h-6c-0.553,0-1,0.447-1,1v2c0,0.553,0.447,1,1,1h6c0.553,0,1-0.447,1-1v-2
		C67.75,73.447,67.303,73,66.75,73z M66.75,78h-6c-0.553,0-1,0.447-1,1v2c0,0.553,0.447,1,1,1h6c0.553,0,1-0.447,1-1v-2
		C67.75,78.447,67.303,78,66.75,78z M66.75,83h-6c-0.553,0-1,0.447-1,1v2c0,0.553,0.447,1,1,1h6c0.553,0,1-0.447,1-1v-2
		C67.75,83.447,67.303,83,66.75,83z M66.75,88h-6c-0.553,0-1,0.447-1,1v2c0,0.553,0.447,1,1,1h6c0.553,0,1-0.447,1-1v-2
		C67.75,88.447,67.303,88,66.75,88z M66.75,93h-6c-0.553,0-1,0.447-1,1v2c0,0.553,0.447,1,1,1h6c0.553,0,1-0.447,1-1v-2
		C67.75,93.447,67.303,93,66.75,93z M66.75,98h-6c-0.553,0-1,0.447-1,1v2c0,0.553,0.447,1,1,1h6c0.553,0,1-0.447,1-1v-2
		C67.75,98.447,67.303,98,66.75,98z M66.75,103h-6c-0.553,0-1,0.447-1,1v2c0,0.553,0.447,1,1,1h6c0.553,0,1-0.447,1-1v-2
		C67.75,103.447,67.303,103,66.75,103z"/>
	<path style="fill:#CCCCCC;" d="M56.75,58h-6c-0.217,0-7.615,0.594-7.615,0.594l-2.652,0.148l-1.325,0.074
		c-0.239,0.02-0.374,0.004-0.8,0.063c-0.306,0.053-0.563,0.127-0.821,0.217c-1.013,0.362-1.921,0.961-2.614,1.834
		c-0.701,0.869-0.997,2.03-0.938,3.069c0.023,0.401,0.39,0.735,0.804,0.765c0.446,0.031,0.963-0.306,0.963-0.755V64
		c0-0.729,0.229-1.352,0.701-1.818c0.466-0.47,1.036-0.808,1.711-0.959c0.165-0.039,0.334-0.063,0.468-0.064l0.523,0.025
		l1.326,0.074l2.653,0.148c0,0,7.399,0.594,7.616,0.594h3h0.225h2.775c0.553,0,1-0.447,1-1v-2C57.75,58.447,57.303,58,56.75,58z"/>
	<path style="fill:#CCCCCC;" d="M56.75,68h-6c-0.217,0-7.615,0.594-7.615,0.594l-2.652,0.148l-1.325,0.074
		c-0.239,0.02-0.374,0.004-0.8,0.063c-0.306,0.053-0.563,0.127-0.821,0.217c-1.013,0.362-1.921,0.961-2.614,1.834
		c-0.701,0.869-0.997,2.03-0.938,3.069c0.023,0.401,0.39,0.735,0.804,0.765c0.446,0.031,0.963-0.306,0.963-0.755V74
		c0-0.729,0.229-1.352,0.701-1.818c0.466-0.47,1.036-0.808,1.711-0.959c0.165-0.039,0.334-0.063,0.468-0.064l0.523,0.025
		l1.326,0.074l2.653,0.148c0,0,7.399,0.594,7.616,0.594h3h0.225h2.775c0.553,0,1-0.447,1-1v-2C57.75,68.447,57.303,68,56.75,68z"/>
	<path style="fill:#CCCCCC;" d="M56.75,48h-6c-0.217,0-7.615,0.594-7.615,0.594l-2.652,0.148l-1.325,0.074
		c-0.239,0.02-0.374,0.004-0.8,0.063c-0.306,0.053-0.563,0.127-0.821,0.217c-1.013,0.362-1.921,0.961-2.614,1.834
		c-0.701,0.869-0.997,2.03-0.938,3.069c0.023,0.401,0.39,0.735,0.804,0.765c0.446,0.031,0.963-0.306,0.963-0.755V54
		c0-0.729,0.229-1.352,0.701-1.818c0.466-0.47,1.036-0.808,1.711-0.959c0.165-0.039,0.334-0.063,0.468-0.064l0.523,0.025
		l1.326,0.074l2.653,0.148c0,0,7.399,0.594,7.616,0.594h3h0.225h2.775c0.553,0,1-0.447,1-1v-2C57.75,48.447,57.303,48,56.75,48z"/>
	<path style="fill:#CCCCCC;" d="M56.75,38h-6c-0.217,0-7.615,0.594-7.615,0.594l-2.652,0.148l-1.325,0.074
		c-0.239,0.02-0.374,0.004-0.8,0.063c-0.306,0.053-0.563,0.127-0.821,0.217c-1.013,0.362-1.921,0.961-2.614,1.834
		c-0.701,0.869-0.997,2.03-0.938,3.069c0.023,0.401,0.39,0.735,0.804,0.765c0.446,0.031,0.963-0.306,0.963-0.755V44
		c0-0.729,0.229-1.352,0.701-1.818c0.466-0.47,1.036-0.808,1.711-0.959c0.165-0.039,0.334-0.063,0.468-0.064l0.523,0.025
		l1.326,0.074l2.653,0.148c0,0,7.399,0.594,7.616,0.594h3h0.225h2.775c0.553,0,1-0.447,1-1v-2C57.75,38.447,57.303,38,56.75,38z"/>
	<path style="fill:#CCCCCC;" d="M70.75,58h6c0.217,0,7.615,0.594,7.615,0.594l2.652,0.148l1.324,0.074
		c0.239,0.02,0.374,0.004,0.801,0.063c0.306,0.053,0.563,0.127,0.82,0.217c1.014,0.362,1.921,0.961,2.614,1.834
		c0.7,0.869,0.997,2.03,0.938,3.069c-0.023,0.401-0.391,0.735-0.805,0.765c-0.445,0.031-0.963-0.306-0.963-0.755V64
		c0-0.729-0.229-1.352-0.701-1.818c-0.466-0.47-1.035-0.808-1.711-0.959c-0.165-0.039-0.334-0.063-0.468-0.064l-0.522,0.025
		l-1.326,0.074l-2.653,0.148c0,0-7.399,0.594-7.616,0.594h-3h-0.225H70.75c-0.553,0-1-0.447-1-1v-2C69.75,58.447,70.197,58,70.75,58
		z"/>
	<path style="fill:#CCCCCC;" d="M70.75,68h6c0.217,0,7.615,0.594,7.615,0.594l2.652,0.148l1.324,0.074
		c0.239,0.02,0.374,0.004,0.801,0.063c0.306,0.053,0.563,0.127,0.82,0.217c1.014,0.362,1.921,0.961,2.614,1.834
		c0.7,0.869,0.997,2.03,0.938,3.069c-0.023,0.401-0.391,0.735-0.805,0.765c-0.445,0.031-0.963-0.306-0.963-0.755V74
		c0-0.729-0.229-1.352-0.701-1.818c-0.466-0.47-1.035-0.808-1.711-0.959c-0.165-0.039-0.334-0.063-0.468-0.064l-0.522,0.025
		l-1.326,0.074l-2.653,0.148c0,0-7.399,0.594-7.616,0.594h-3h-0.225H70.75c-0.553,0-1-0.447-1-1v-2C69.75,68.447,70.197,68,70.75,68
		z"/>
	<path style="fill:#CCCCCC;" d="M70.75,48h6c0.217,0,7.615,0.594,7.615,0.594l2.652,0.148l1.324,0.074
		c0.239,0.02,0.374,0.004,0.801,0.063c0.306,0.053,0.563,0.127,0.82,0.217c1.014,0.362,1.921,0.961,2.614,1.834
		c0.7,0.869,0.997,2.03,0.938,3.069c-0.023,0.401-0.391,0.735-0.805,0.765c-0.445,0.031-0.963-0.306-0.963-0.755V54
		c0-0.729-0.229-1.352-0.701-1.818c-0.466-0.47-1.035-0.808-1.711-0.959c-0.165-0.039-0.334-0.063-0.468-0.064l-0.522,0.025
		l-1.326,0.074l-2.653,0.148c0,0-7.399,0.594-7.616,0.594h-3h-0.225H70.75c-0.553,0-1-0.447-1-1v-2C69.75,48.447,70.197,48,70.75,48
		z"/>
	<path style="fill:#CCCCCC;" d="M70.75,38h6c0.217,0,7.615,0.594,7.615,0.594l2.652,0.148l1.324,0.074
		c0.239,0.02,0.374,0.004,0.801,0.063c0.306,0.053,0.563,0.127,0.82,0.217c1.014,0.362,1.921,0.961,2.614,1.834
		c0.7,0.869,0.997,2.03,0.938,3.069c-0.023,0.401-0.391,0.735-0.805,0.765c-0.445,0.031-0.963-0.306-0.963-0.755V44
		c0-0.729-0.229-1.352-0.701-1.818c-0.466-0.47-1.035-0.808-1.711-0.959c-0.165-0.039-0.334-0.063-0.468-0.064l-0.522,0.025
		l-1.326,0.074l-2.653,0.148c0,0-7.399,0.594-7.616,0.594h-3h-0.225H70.75c-0.553,0-1-0.447-1-1v-2C69.75,38.447,70.197,38,70.75,38
		z"/>
	<path style="fill:#CCCCCC;" d="M83.938,105c-0.041,0-0.188,0.008-0.188,0.009V105c-7,0-14.25,10-20.25,10
		c-4.729,0-9.93-6.223-15.361-8.854C46.973,105.473,45.736,105,44.41,105c-0.004,0-0.008,0-0.01,0c-0.135,0-0.266-0.014-0.399-0.014
		c-0.032,0-0.063,0.014-0.097,0.014c-0.051-0.001-0.103,0-0.153,0v0.018c-5.84,0.188-10.547,6.775-10.731,14.984
		c9.182,5.09,19.739,7.998,30.981,7.998s21.802-2.908,30.981-7.998C94.791,111.674,89.895,105,83.938,105z"/>
	<circle style="fill:none;" cx="64" cy="64" r="64"/>
</g>
</svg>
