<?xml version="1.0" encoding="utf-8"?>
<!-- Generator: Adobe Illustrator 17.0.0, SVG Export Plug-In . SVG Version: 6.00 Build 0)  -->
<!DOCTYPE svg PUBLIC "-//W3C//DTD SVG 1.1//EN" "http://www.w3.org/Graphics/SVG/1.1/DTD/svg11.dtd">
<svg version="1.1" id="图层_1" xmlns="http://www.w3.org/2000/svg" xmlns:xlink="http://www.w3.org/1999/xlink" x="0px" y="0px"
	 width="163.267px" height="310.508px" viewBox="0 0 163.267 310.508" enable-background="new 0 0 163.267 310.508"
	 xml:space="preserve">
<path fill="#EDE840" d="M160.712,54.202c-4.92-17.924-16.518-34.441-34.09-44.282C109.05-0.272,89.018-2.381,71.094,2.54
	C53.17,7.46,36.653,19.058,26.812,36.63c-2.46,4.217-4.217,8.435-6.326,13.003c-2.109,4.569-3.866,9.489-5.623,13.706
	c-3.514,8.786-5.975,16.166-5.975,16.166c-4.217,12.3,2.109,26.007,14.761,30.576c12.652,4.217,26.007-2.109,30.576-14.761
	c0,0,0-0.351,0.352-0.703c0-0.351,0.351-1.054,0.703-1.757c0.703-1.757,1.406-3.866,2.46-6.677
	c2.109-5.272,4.569-12.301,7.029-17.572c1.406-3.514,3.163-7.029,3.866-8.083c3.514-5.975,9.138-10.192,15.464-11.598
	c6.326-1.757,13.003-1.054,18.978,2.46c5.975,3.514,10.192,9.138,11.598,15.463c1.757,6.326,1.054,13.003-2.46,18.978
	C81.639,138.899,3.268,274.556,3.268,274.556c-6.677,11.598-2.812,26.007,8.786,32.684s26.007,2.812,32.684-8.786
	c0,0,78.372-136.008,108.947-188.725C163.524,92.158,165.633,72.125,160.712,54.202z"/>
<path fill="#FF7673" d="M22.595,47.173l3.866-10.192l0,0c3.163-5.272,6.677-10.192,10.895-14.409
	c7.38,10.543,29.17,30.927,28.115,42.876c-0.351,0.351-0.351,1.054-0.703,1.406l0,0c-0.351,0.351-0.351,1.054-0.703,1.757
	c-2.46,5.623-4.92,12.301-7.029,17.572c0,0.351,0,0.351-0.351,0.703C52.468,72.828,19.081,55.959,22.595,47.173z M128.028,153.309
	c-4.217,7.029-8.435,14.409-12.652,21.789c0-10.192-32.333-31.981-29.17-45.336c4.217-7.732,8.435-14.761,12.301-21.438
	C96.75,121.679,129.082,143.468,128.028,153.309z M51.765,285.1c-4.92,8.435-8.083,13.706-8.083,13.706
	c-1.406,2.46-3.163,4.217-4.92,5.975c-3.514-10.895-31.63-30.576-28.818-43.227c3.163-5.623,7.732-13.003,12.301-21.438
	C20.487,253.821,52.819,275.259,51.765,285.1z M102.724,197.239c-4.217,7.38-8.435,14.761-12.652,21.789
	c0-10.192-32.333-31.981-29.17-45.336c4.217-7.38,8.435-14.409,12.301-21.438C71.446,165.609,103.779,187.399,102.724,197.239z
	 M157.901,100.241c-0.703,1.406-4.217,8.435-4.92,9.84c-2.812,4.92-5.975,10.192-9.489,16.166
	c-7.732-10.192-31.278-24.952-34.09-36.901c0.703-1.054,1.406-2.109,1.757-3.163c3.163-5.272,3.866-11.246,2.812-17.221
	C123.459,80.209,159.658,91.103,157.901,100.241z M144.897,25.383L144.897,25.383c0.351,0.351,0.351,0.703,0.703,0.703l0.351,0.351
	c6.677,8.083,11.598,17.572,14.409,27.764c0.351,0.703,0.351,1.406,0.703,2.109c-13.355,1.406-39.01,8.083-49.553,3.866l0,0
	c-0.703-1.406-1.757-2.46-2.812-3.866l0,0c-0.351-0.351-0.703-0.703-1.054-1.054l0,0c-0.351-0.351-0.703-0.703-1.054-1.054l0,0
	c-0.351-0.351-0.703-0.703-1.054-1.054c0,0-0.351,0-0.351-0.351c-0.352-0.351-0.703-0.351-1.054-0.703c0,0-0.351,0-0.351-0.351
	c-0.351-0.351-0.703-0.703-1.406-0.703c-0.351-0.351-0.703-0.351-1.406-0.703c0,0,0,0-0.351,0s-0.703-0.351-1.054-0.351
	c0,0,0,0-0.351,0s-0.703-0.351-1.054-0.351l0,0c-0.351,0-0.703-0.351-1.406-0.351l0,0C108.699,46.821,132.597,28.898,144.897,25.383
	z M77.42,241.169c-4.569,7.732-8.786,15.112-12.652,21.789c0-10.192-32.333-31.981-29.17-45.336
	c3.866-7.029,8.083-14.058,12.301-21.438C46.142,209.54,78.475,231.329,77.42,241.169z M70.743,2.891
	c10.895-2.812,22.141-3.163,33.739-1.054c-4.92,10.543-7.732,37.604-15.464,46.39l0,0c-0.351,0-1.054,0-1.406,0c0,0,0,0-0.351,0
	c-0.352,0-0.703,0-1.054,0h-0.351c-0.351,0-0.703,0-1.054,0.351h-0.353c-0.351,0-1.054,0.351-1.406,0.351
	c-0.703,0.351-1.406,0.351-2.109,0.703l0,0c-0.703,0.351-1.406,0.351-1.757,0.703l0,0c-0.703,0.351-1.406,0.703-1.757,1.054l0,0
	c-0.703,0.351-1.406,0.703-1.757,1.054c3.866-10.192-7.38-36.55-8.083-48.851C68.283,3.594,69.689,3.243,70.743,2.891z
	 M40.87,109.73c-5.272,2.46-11.598,2.812-17.572,0.703C10.646,106.216,4.32,92.509,8.537,79.857c0,0,0.351-0.703,0.703-1.757
	C13.809,86.535,34.544,98.484,40.87,109.73z"/>
</svg>
