<?xml version="1.0" encoding="iso-8859-1"?>
<!-- Generator: Adobe Illustrator 17.0.0, SVG Export Plug-In . SVG Version: 6.00 Build 0)  -->
<!DOCTYPE svg PUBLIC "-//W3C//DTD SVG 1.1//EN" "http://www.w3.org/Graphics/SVG/1.1/DTD/svg11.dtd">
<svg version="1.1" id="Capa_1" xmlns="http://www.w3.org/2000/svg" xmlns:xlink="http://www.w3.org/1999/xlink" x="0px" y="0px"
	 width="98.654px" height="105.677px" viewBox="0 0 98.654 105.677" style="enable-background:new 0 0 98.654 105.677;"
	 xml:space="preserve">
<g>
	<g>
		<g>
			<path style="fill:#F6F3CF;" d="M96.49,66.006c-0.458-0.332-1.054-0.654-1.757-0.948c0.187,0.117,0.359,0.219,0.523,0.312
				C95.709,65.569,96.123,65.782,96.49,66.006z"/>
		</g>
	</g>
	<g>
		<g>
			<path style="fill:#F6F3CF;" d="M96.49,66.006c-0.367-0.224-0.781-0.437-1.234-0.636C96.001,65.799,96.49,66.006,96.49,66.006z"/>
		</g>
	</g>
	<g>
		<g>
			<path style="fill:#F6F3CF;" d="M22.906,65.058c-0.705,0.294-1.299,0.617-1.76,0.948c0.368-0.224,0.781-0.437,1.234-0.636
				C22.546,65.277,22.719,65.175,22.906,65.058z"/>
		</g>
	</g>
	<g>
		<g>
			<path style="fill:#F6F3CF;" d="M21.146,66.006c0,0,0.489-0.207,1.234-0.636C21.927,65.569,21.515,65.782,21.146,66.006z"/>
		</g>
	</g>
	<g>
		<g>
			<g>
				<path style="fill:#AF5B2B;" d="M58.735,87.337c-9.484,0-17.775-4.539-22.425-11.329c0.323,6.029,2.997,11.426,7.143,15.286
					v7.111c-2.165,1.688-3.563,4.314-3.563,7.272h18.446c0-2.958-1.396-5.585-3.564-7.272v-1.429c1.311,0.237,2.653,0.38,4.033,0.38
					V87.334C58.779,87.334,58.756,87.337,58.735,87.337z"/>
			</g>
		</g>
		<g>
			<g>
				<path style="fill:#EA8232;" d="M74.156,98.405v-7.111c4.197-3.909,6.888-9.392,7.153-15.513
					C76.703,82.68,68.363,87.31,58.804,87.334v10.023c1.379,0,2.721-0.143,4.033-0.38v1.429c-2.166,1.688-3.565,4.314-3.565,7.272
					H77.72C77.72,102.719,76.321,100.093,74.156,98.405z"/>
			</g>
		</g>
		<g>
			<g>
				<path style="fill:#AF5B2B;" d="M50.915,81.144c-0.002,0.003-0.005,0.007-0.007,0.012c1.507,0.753,3.076,1.602,4.705,2.557
					c1.042,0.611,2.1,1.25,3.191,1.952V75.83V52.241c-12.459,0-22.557,10.1-22.557,22.558c0,0.409,0.041,0.807,0.062,1.209
					c2.379,3.473,5.714,6.352,9.67,8.339c-0.253-1.496-0.48-3.072-0.724-4.725C47.029,80.162,48.913,80.673,50.915,81.144z"/>
			</g>
		</g>
		<g>
			<g>
				<path style="fill:#AF5B2B;" d="M58.804,52.241V75.83c0,0,0,0,0.002,0v9.835c1.091-0.702,2.147-1.341,3.192-1.952
					c1.626-0.955,3.194-1.804,4.704-2.557c2.043-0.478,3.962-0.999,5.766-1.55c-0.236,1.601-0.449,3.14-0.687,4.595
					c3.913-2.026,7.199-4.93,9.529-8.419c0.015-0.328,0.052-0.651,0.052-0.982C81.361,62.34,71.263,52.241,58.804,52.241z"/>
			</g>
		</g>
		<g>
			<g>
				<path style="fill:#D5D2B1;" d="M58.804,87.334v-1.669c-1.091-0.702-2.149-1.341-3.191-1.952
					c-1.629-0.955-3.197-1.804-4.705-2.557c0.001-0.005,0.005-0.008,0.007-0.012c-2.002-0.47-3.886-0.981-5.659-1.521
					c0.244,1.653,0.471,3.229,0.724,4.725c3.777,1.9,8.121,2.99,12.755,2.99C58.756,87.337,58.779,87.334,58.804,87.334z"/>
			</g>
		</g>
		<g>
			<g>
				<path style="fill:#D5D2B1;" d="M66.701,81.155c-1.509,0.753-3.078,1.602-4.704,2.557c-1.044,0.611-2.101,1.25-3.192,1.952V75.83
					c-0.001,0-0.001,0-0.001,0l0,9.835v1.669c4.726-0.012,9.152-1.153,12.977-3.133c0.237-1.455,0.451-2.994,0.687-4.595
					C70.664,80.156,68.745,80.677,66.701,81.155z"/>
			</g>
		</g>
		<g>
			<g>
				<path style="fill:#D5D2B1;" d="M58.735,87.337c-4.634,0-8.977-1.09-12.755-2.99c1.293,7.677,3.338,13.009,12.824,13.009V87.334
					C58.779,87.334,58.756,87.337,58.735,87.337z"/>
			</g>
		</g>
		<g>
			<g>
				<path style="fill:#F6F3CF;" d="M71.781,84.2c-3.825,1.98-8.251,3.122-12.977,3.133v10.023
					C68.567,97.356,70.516,91.96,71.781,84.2z"/>
			</g>
		</g>
	</g>
	<g>
		<g>
			<g>
				<path style="fill:#3C3C3B;" d="M70.083,31.828C75.898,8.252,95.071,0,95.071,0s13.707,35.78-12.493,44.311L70.083,31.828z"/>
			</g>
		</g>
		<g>
			<g>
				<path style="fill:#AF5B2B;" d="M72.881,33.998c7.489-22.395,19.483-26.3,19.483-26.3s10.366,21.385-12.406,34.429L72.881,33.998
					z"/>
			</g>
		</g>
		<g>
			<g>
				<path style="fill:#3C3C3B;" d="M47.525,31.828C41.71,8.252,22.537,0,22.537,0S8.832,35.78,35.03,44.311L47.525,31.828z"/>
			</g>
		</g>
		<g>
			<g>
				<path style="fill:#AF5B2B;" d="M44.728,33.998c-7.489-22.395-19.484-26.3-19.484-26.3S14.879,29.083,37.65,42.126L44.728,33.998
					z"/>
			</g>
		</g>
	</g>
	<g>
		<g>
			<g>
				<path style="fill:#AF5B2B;" d="M44.714,88.204c-7.641,6.297-17.683,2.08-23.624-4.491c-0.464-0.513-0.991-0.975-1.546-1.414
					c-2.516-0.119-5.249,0.165-7.491,1.414c0,0,4.019,3.034,5.546,6.363c0,0-4.505,0.918-8.043-1.31c0,0,0.444,5.322,4.214,9.923
					c1.18,0.361,2.449,0.684,3.828,0.956c23.229,4.577,29.914-8.624,29.914-8.624L44.714,88.204z"/>
			</g>
		</g>
		<g>
			<g>
				<path style="fill:#D5D2B1;" d="M17.599,90.076c-1.527-3.329-5.546-6.363-5.546-6.363c2.242-1.249,4.976-1.532,7.491-1.414
					C12.987,77.121,0.82,76.925,0.82,76.925s-5.698,16.047,12.951,21.764c-3.77-4.601-4.214-9.923-4.214-9.923
					C13.093,90.994,17.599,90.076,17.599,90.076z"/>
			</g>
		</g>
	</g>
	<g>
		<g>
			<g>
				<g>
					<path style="fill:#EA8232;" d="M79.476,65.113c-8.079,2.096-15.189,8.861-16.59,11.812c-1.223-0.679-2.611-1.099-4.11-1.099
						V60.436V25.727c15.931,0,28.846,12.915,28.846,28.845c0,0.375-0.041,0.739-0.057,1.109c1.808,7.363,8.91,10.326,8.91,10.326
						C93.446,64.155,87.4,63.057,79.476,65.113z"/>
				</g>
			</g>
			<g>
				<g>
					<path style="fill:#F6F3CF;" d="M66.672,81.155c-0.735-1.814-2.089-3.289-3.787-4.23c1.4-2.273,6.076-8.306,16.59-11.812
						c7.766-2.589,14.433-0.958,17,0.894C96.476,66.006,88.634,76.008,66.672,81.155z"/>
				</g>
			</g>
			<g>
				<g>
					<g>
						<path style="fill:#3C3C3B;" d="M50.879,81.155c1.509,0.753,3.077,1.602,4.706,2.557c1.042,0.611,2.099,1.25,3.19,1.952v-9.838
							c-1.499,0-2.886,0.419-4.11,1.099C52.969,77.867,51.615,79.341,50.879,81.155z"/>
					</g>
				</g>
				<g>
					<g>
						<path style="fill:#3C3C3B;" d="M62.886,76.925c-1.223-0.679-2.611-1.099-4.11-1.099v9.838
							c1.091-0.702,2.149-1.341,3.192-1.952c1.628-0.955,3.195-1.804,4.705-2.557C65.937,79.341,64.584,77.867,62.886,76.925z"/>
					</g>
				</g>
			</g>
		</g>
		<g>
			<g>
				<g>
					<path style="fill:#AF5B2B;" d="M38.133,65.113c8.079,2.096,15.189,8.861,16.589,11.812c1.223-0.679,2.611-1.099,4.109-1.099
						V60.436V25.727c-15.931,0-28.846,12.915-28.846,28.845c0,0.375,0.042,0.739,0.057,1.109
						c-1.808,7.363-8.911,10.326-8.911,10.326C24.163,64.155,30.209,63.057,38.133,65.113z"/>
				</g>
			</g>
			<g>
				<g>
					<path style="fill:#D5D2B1;" d="M50.936,81.155c0.735-1.814,2.088-3.289,3.787-4.23c-1.4-2.273-6.076-8.306-16.589-11.812
						c-7.767-2.589-14.434-0.958-17.001,0.894C21.132,66.006,28.975,76.008,50.936,81.155z"/>
				</g>
			</g>
		</g>
	</g>
	<g>
		<g>
			<path style="fill:none;" d="M38.146,65.113c2.774,0.926,5.132,2.027,7.14,3.188c0.005-0.036,0.012-0.072,0.017-0.108
				C43.109,66.883,40.676,65.77,38.146,65.113z"/>
		</g>
	</g>
	<g>
		<g>
			<path style="fill:#E96332;" d="M58.791,25.727v0.001c0.01,0,0.019-0.001,0.028-0.001C58.81,25.727,58.8,25.727,58.791,25.727z"/>
		</g>
	</g>
	<g>
		<g>
			<path style="fill:#07171B;" d="M54.726,76.902c-0.001,0.001-0.002,0.001-0.002,0.001c0.004,0.006,0.01,0.015,0.013,0.021
				C54.735,76.917,54.729,76.91,54.726,76.902z"/>
		</g>
	</g>
	<g>
		<g>
			<path style="fill:#A84720;" d="M58.847,25.727c-0.009,0-0.019,0-0.028,0c0.009,0,0.019,0.001,0.028,0.001V25.727z"/>
		</g>
	</g>
	<g>
		<g>
			<path style="fill:#A84720;" d="M58.847,50.922V25.728c-0.009,0-0.019-0.001-0.028-0.001c-0.009,0-0.018,0.001-0.028,0.001v25.199
				C58.81,50.927,58.828,50.922,58.847,50.922z"/>
		</g>
	</g>
	<g>
		<g>
			<path style="fill:#A84720;" d="M58.791,75.826c0.01,0,0.019,0.001,0.028,0.001c0.009,0,0.019-0.001,0.028-0.001V60.436v-9.514
				c-0.019,0-0.037,0.005-0.056,0.005v9.509V75.826z"/>
		</g>
	</g>
	<g>
		<g>
			<path style="fill:#A84720;" d="M54.726,76.902c0.002,0.008,0.009,0.015,0.011,0.023c1.208-0.67,2.576-1.084,4.053-1.095v-0.003
				C57.31,75.826,55.938,76.238,54.726,76.902z"/>
		</g>
	</g>
	<g>
		<g>
			<path style="fill:#A84720;" d="M58.791,75.826v0.003c0.01,0,0.019-0.001,0.028-0.002C58.81,75.828,58.8,75.826,58.791,75.826z"/>
		</g>
	</g>
	<g>
		<g>
			<g>
				<path style="fill:#3C3C3B;" d="M58.367,105.677c0-5.101-4.136-9.236-9.236-9.236s-9.236,4.135-9.236,9.236H58.367z"/>
			</g>
		</g>
		<g>
			<g>
				<path style="fill:#3C3C3B;" d="M77.757,105.677c0-5.101-4.134-9.236-9.235-9.236c-5.1,0-9.236,4.135-9.236,9.236H77.757z"/>
			</g>
		</g>
	</g>
	<g>
		<g>
			<path style="fill:#F39E2B;" d="M36.369,51.109c0,0,12.354-3.582,12.076,8.981C48.445,60.09,36.369,64.476,36.369,51.109"/>
		</g>
	</g>
	<g>
		<g>
			<path style="fill:#F39E2B;" d="M68.688,60.09c0,0,12.076,4.385,12.076-8.981C80.764,51.109,68.41,47.527,68.688,60.09"/>
		</g>
	</g>
	<g>
		<g>
			<g>
				<circle style="fill:#FFFFFF;" cx="43.946" cy="54.392" r="2.247"/>
			</g>
		</g>
	</g>
	<g>
		<g>
			<g>
				<circle style="fill:#FFFFFF;" cx="76.359" cy="54.392" r="2.246"/>
			</g>
		</g>
	</g>
</g>
</svg>
