<?xml version="1.0" encoding="utf-8"?>
<!-- Generator: Adobe Illustrator 17.0.0, SVG Export Plug-In . SVG Version: 6.00 Build 0)  -->
<!DOCTYPE svg PUBLIC "-//W3C//DTD SVG 1.1//EN" "http://www.w3.org/Graphics/SVG/1.1/DTD/svg11.dtd">
<svg version="1.1" id="_x37C_" xmlns="http://www.w3.org/2000/svg" xmlns:xlink="http://www.w3.org/1999/xlink" x="0px" y="0px"
	 width="196.956px" height="196.956px" viewBox="0 0 196.956 196.956" enable-background="new 0 0 196.956 196.956"
	 xml:space="preserve">
<path fill="#E60012" d="M196.956,98.478l-98.478,98.478L0,98.478L98.478,0L196.956,98.478z"/>
<path fill="#FFD400" d="M152.657,112.991v-2.964h-0.49c-0.256-12.339-2.21-17.374-9.69-22.541c-1.361-0.944-2.496-2.598-4.252-3.162
	l-2.766,0.095h-5.54c-2.195,0.381-4.435,1.493-6.528,0.893c-0.293-0.41-0.417-0.586-0.395-1.383
	c0.593-0.637,0.878-1.537,1.581-2.078v-1.186c-1.149-1.112-2.635-2.166-3.952-3.067v-1.581c1.398-1.398,2.554-3.374,4.149-4.545
	c1.347-0.995,3.637-1.025,5.042-1.881c2.115-1.295,3.228-3.352,5.138-4.742c4.223-3.067,6.814-7.267,2.869-12.559
	c-0.571-0.768-1.09-0.366-2.078-0.79l-0.79-0.988c-1.917-0.915-4.106-1.354-5.833-2.474c-0.417-0.271-0.6-0.951-1.083-1.288
	c-2.613,0.9-6.265,0.666-9.69,0.593c-1.047-1.756-1.09-3.959-1.09-6.923v-2.569c-1.105-2.145-4.999-2.488-5.438-5.24h-1.581
	c-0.227,1.23-1.508,1.822-1.866,3.067l-0.293,3.067c-0.468,1.207-1.881,2.452-2.371,3.754l-1.09,6.228
	c-0.856,5.379,6.009,6.499,3.952,13.049c-0.439,1.412-2.452,2.24-3.557,3.067l-1.478,1.976l-2.371,1.281l-4.647,4.347l-0.3,1.186
	c-0.651,0.915-2.115,3.235-1.683,5.043c0.271,1.127,1.142,1.522,1.683,2.276l0.498,2.078c1.544,1.01,3.659,1.2,5.438,1.881
	c1.054,5.387-2.276,4.391-2.474,7.319c-0.388,0.183-0.512,0.147-1.083,0.102l0.095,0.79c-2.122,2.971-6.711,7.985-10.18,9.492
	c-2.562,4.545,4.545,7.67,4.545,11.863l-2.766,2.671c-0.834,1.749-0.3,5.511-0.293,7.809c0.007,4.604,3.323,13.056,6.126,14.93
	c3.418-0.088,4.172-3.447,7.319-3.162l0.79,1.383c0.659,0.49,1.705,0.527,2.174,1.186c1.654,2.327,3.403,4.721,6.228,5.833
	c4.208,1.661,11.732,2.203,16.013,0.395c0.864-0.366,2.057-1.332,2.861-1.683h1.09c0.812-0.315,1.859-1.332,2.766-1.581l1.281-0.102
	c9.507-4.633,15.259-12.427,15.523-25.798l0.49-0.102l-0.49-0.102v-3.162L152.657,112.991L152.657,112.991z M118.143,98.947h0.995
	c2.035,2.02,1.815,7.897-1.486,8.402c-1.149,0.176-2.291-0.673-2.964-0.988c-0.995-0.469-2.21-0.607-2.671-1.581
	C111.293,102.826,117.067,100.074,118.143,98.947z M109.932,123.559h-0.498l-0.19,0.893h-0.498
	c-1.061,1.193-3.432,3.776-5.635,2.474c-0.725-0.541,0.198-1.603,0-2.671c-0.754-4.033,1.076-10.985,3.857-11.761
	c2.986-0.834,7.897,0.798,6.821,4.347c-0.71,2.357-2.4,4.281-3.754,6.03L109.932,123.559z M111.022,134.339l-0.593-0.893
	c-0.629-1.654,5.533-7.018,6.726-7.911h0.593c1.544,1.2,2.803,5.02,4.647,5.438l2.474-0.095c0.198,0.329,0.278,0.395,0.293,0.988
	C121.963,135.451,116.159,133.944,111.022,134.339z M140.889,103.791l-0.293,5.833c-0.351,0.959-0.637,2.078-1.09,3.359
	c-0.534,1.522-1.822,2.803-2.371,4.252c-0.754,1.99-1.412,4.069-2.371,5.635l-0.893,0.79c-0.864,2.027-3.791,6.711-6.33,6.821
	c-0.893-1.588,0.915-3.871,1.186-5.138c0.183-0.827-0.073-5.804-0.3-6.521l-1.581-1.683l-0.293-1.486
	c-0.549-0.79-1.603-0.937-1.881-2.078c-0.651-2.693,1.486-4.618,2.174-6.228c0.607-1.405,1.12-3.286,1.383-4.845
	c0.578-3.41-0.981-4.662-2.371-6.228c-0.227-0.256-0.505-1.456-0.198-1.881c0.132-0.176,2.803-0.578,3.462-0.79
	c1.888-0.6,3.915-1.734,6.031-2.569c4.816,0.125,5.613,3.798,6.426,8.109l0.198,2.276L140.889,103.791z M80.87,80.548
	c-0.973,0.476-1.91,1.508-2.766,2.078l-2.174,0.79c-0.666,0.454-1.325,1.376-1.976,1.778l-1.581,0.498
	c-1.281,0.944-2.239,2.503-3.462,3.462l-4.054,2.964l-0.695,1.09c-0.593,0.512-1.471,0.629-2.071,1.09
	c-2.51,1.918-4.823,3.938-7.414,5.833c-0.79,0.578-0.703,1.727-1.383,2.371c-0.278,0.264-3.498,2.371-3.754,2.474l-1.486,0.293
	l-1.288,1.383h-1.683l-1.186,0.695c-1.31,0.446-3.945,0.549-5.438,0.102l-0.886-0.695l-1.581-0.197l-0.593-0.695l-1.486,0.395v0.893
	c0.746,0.168,0.629,0.564,1.391,0.79c0.534,1.529-0.425,3.564,0,5.043l0.893,0.79l0.198,1.186c0.19,0.307,2.73,2.774,2.964,2.869
	h1.186c0.871,0.234,1.632,1.142,2.671,1.383c1.149,0.271,3.366-0.102,4.252-0.395l0.893-0.695l1.186,0.197l1.186-0.893
	c1.259-0.593,2.459-0.834,3.557-1.581c1.412-0.966,2.679-2.649,4.347-3.359l0.498,0.197l0.293,0.102
	c0.49,2.796-1.405,4.274-2.276,6.03c-0.783,1.581-1.193,2.971-1.778,4.647l-0.988,1.186l-0.103,1.581
	c-0.264,0.644-1.171,1.683-1.383,2.276l-0.198,2.569c-0.344,0.9-1.749,1.976-1.478,3.359c0.381,1.947,1.932,3.476,3.462,4.252
	c1.076-0.102,1.237-0.703,1.976-0.988l1.683-0.102c0.856-0.234,2.108-0.703,3.162-1.09c1.405-0.512,3.74-3.088,5.042-4.055
	c2.715-0.41,3.249,2.459,4.742,3.557l2.371,0.293c2.203-1.844,0.666-4.15,0-6.125l-0.103-7.414c0.146-0.783,0.944-5.123,1.288-5.731
	l1.186-0.79c0.483-1.207,0.651-2.24,1.383-3.162c1.391-1.756,4.164-3.088,5.145-5.145c0.505-1.068-0.059-1.646,0.198-2.766
	c0.117-0.512,0.483-0.637,0.593-1.383l-0.395-0.197l-1.486,1.383c-0.637-0.154-0.966-0.534-1.288-0.988
	c-0.725-4.215,1.303-6.872,2.474-9.492l0.095-1.976l0.893-0.695c0.249-0.359,0.995-3.03,1.083-3.462
	C85.378,85.136,84.536,79.53,80.87,80.548z M62.295,124.056c-0.439,3.506,0.322,4.377-3.462,5.24
	c-0.483,0.11-0.937,0.373-1.581,0.197c-0.337-0.168-0.337-0.161-0.498-0.498c-0.373-1.025,3.908-7.948,4.647-8.899
	c0.681-0.007,0.864,0.044,1.09,0.498L62.295,124.056z M86.717,64.842c-0.373,0.71-1.2,0.937-1.881,1.383l-3.359,2.766h-1.09
	l-0.593,0.79h-1.486l-0.893,0.79h-1.486l-1.581,0.79c-1.456,0.424-2.679-0.381-3.462-0.593l-2.766-0.102
	c-1.288-0.446-2.122-2.32-3.162-3.067l-1.683-0.49c-0.615-0.432-0.468-1.017-0.886-1.683c-0.176-0.278-1.961-1.156-2.371-1.881
	c-1.156-5.379,6.162-8.848,8.102-12.456c0.637-1.171-0.051-3.315,0.695-4.245c1.215,0.307,2.444,1.515,3.462,2.071l2.964,1.09
	l2.869,2.174c1.186,0.651,1.903,0.417,3.264,0.893l0.893,0.893l2.766,0.197C87.515,55.423,88.408,61.622,86.717,64.842z"/>
</svg>
