<?xml version="1.0" encoding="iso-8859-1"?>
<!-- Generator: Adobe Illustrator 17.0.0, SVG Export Plug-In . SVG Version: 6.00 Build 0)  -->
<!DOCTYPE svg PUBLIC "-//W3C//DTD SVG 1.1//EN" "http://www.w3.org/Graphics/SVG/1.1/DTD/svg11.dtd">
<svg version="1.1" xmlns="http://www.w3.org/2000/svg" xmlns:xlink="http://www.w3.org/1999/xlink" x="0px" y="0px" width="128px"
	 height="128px" viewBox="0 0 128 128" style="enable-background:new 0 0 128 128;" xml:space="preserve">
<g id="Layer_1">
</g>
<g id="Layer_2">
	<g>
		<circle style="fill:#F2CF61;" cx="64" cy="64" r="64"/>
		<path style="fill:#F5F5F5;" d="M56,64.706c0,1.657-1.343,3-3,3H7c-1.657,0-3-1.343-3-3v-12c0-1.657,1.343-3,3-3h46
			c1.657,0,3,1.343,3,3V64.706z"/>
		<path style="fill:#E6E6E6;" d="M56,51.206c0-0.828-0.672-1.5-1.5-1.5l0,0c-0.828,0-1.5,0.672-1.5,1.5v15
			c0,0.828,0.672,1.5,1.5,1.5l0,0c0.828,0,1.5-0.672,1.5-1.5V51.206z"/>
		<polygon style="fill:#F5F5F5;" points="48,98.706 12,98.706 9,67.706 51,67.706 		"/>
		<polygon style="fill:#E6E6E6;" points="48,67.706 45,98.706 48,98.706 51,67.706 		"/>
		<polygon style="fill:#E6E6E6;" points="50.807,69.706 51,67.706 9,67.706 9.193,69.706 		"/>
		<path style="fill:#66401E;" d="M10.429,98.706c11.43,18,31.147,29,53.571,29c22.424,0,42.142-11,53.571-29H10.429z"/>
		<path style="fill:#E6D6A1;" d="M113,40V26c0-1.1-0.9-2-2-2H61c-1.1,0-2,0.9-2,2l0,0c0,1.1,0.749,2.499,1.664,3.109L71,36
			c0,1,0,2.9,0,4H113z"/>
		<path style="fill:#D9CA98;" d="M111,24h-4c1.1,0,2,0.9,2,2v14h4V26C113,24.9,112.1,24,111,24z"/>
		<path style="fill:#242424;" d="M122.27,37.54C119.789,36.548,116.748,36,113,36c-1.105,0-2,0.896-2,2s0.895,2,2,2
			c5.513,0,9.268,1.036,11.746,3.857C124.031,41.697,123.203,39.59,122.27,37.54z"/>
		<rect x="71" y="35.706" style="fill:#242424;" width="42" height="4"/>
		<path style="fill:#E6D6A1;" d="M113,40H71c-7.998,8-14,16.43-14,27c0,15.495-0.245,28.404,20.526,32h26.946
			C125.244,95.404,125,82.495,125,67C125,56.422,120.99,48,113,40z"/>
		<path style="fill:#D9CA98;" d="M125,67c0-10.578-4.01-19-12-27h-5c7.99,8,12,16.422,12,27c0,15.495,0.244,28.404-20.527,32h5
			C125.244,95.404,125,82.495,125,67z"/>
		<path style="fill:#33200F;" d="M57.003,69.706c0.055,14,1.108,26,20.523,29h26.946c19.415-3,20.47-15,20.524-29H57.003z"/>
		<path style="fill:#26180B;" d="M118.997,69.706c-0.055,14-1.109,26-20.524,29h6c19.415-3,20.47-15,20.524-29H118.997z"/>
		<path style="opacity:0.7;fill:#F5F5F5;" d="M75.029,53.353c0.361-0.44,0.743-0.89,1.148-1.353l-3.562-8
			c-1.621,1.678-3.049,3.295-4.308,4.872L75.029,53.353z"/>
		<path style="opacity:0.7;fill:#F5F5F5;" d="M64.938,53.531C62.231,58.043,61,62.706,61,66.706h8c0-3,0.618-6.22,4.291-11.321
			L64.938,53.531z"/>
		<path style="opacity:0.7;fill:#F5F5F5;" d="M71.829,84.037C69.452,80.108,69,77.706,69,74.706h-8c0,5,1.188,8.7,3.775,13.105
			L71.829,84.037z"/>
		<path style="fill:#242424;" d="M20.583,110.706h86.834c3.852-3,7.268-7,10.154-12H10.429
			C13.314,103.706,16.73,107.706,20.583,110.706z"/>
		<path style="fill:#59381A;" d="M22.857,112.706h82.285c0.773,0,1.533-1,2.274-2H21v0.67
			C21.608,111.929,22.227,112.706,22.857,112.706z"/>
	</g>
</g>
</svg>
