<?xml version="1.0" encoding="utf-8"?>
<!-- Generator: Adobe Illustrator 17.0.0, SVG Export Plug-In . SVG Version: 6.00 Build 0)  -->
<!DOCTYPE svg PUBLIC "-//W3C//DTD SVG 1.1//EN" "http://www.w3.org/Graphics/SVG/1.1/DTD/svg11.dtd">
<svg version="1.1" id="图层_1" xmlns:ev="http://www.w3.org/2001/xml-events"
	 xmlns="http://www.w3.org/2000/svg" xmlns:xlink="http://www.w3.org/1999/xlink" x="0px" y="0px" width="86.5px"
	 height="182.333px" viewBox="-0.833 -0.667 86.5 182.333" enable-background="new -0.833 -0.667 86.5 182.333"
	 xml:space="preserve">
<path fill="#FFFFFF" stroke="#E6E6ED" d="M12,0h61c6.627,0,12,5.373,12,12v157c0,6.628-5.373,12-12,12H12c-6.627,0-12-5.372-12-12
	V12C0,5.373,5.373,0,12,0z"/>
<path fill="#FFFFFF" stroke="#E6E6ED" d="M43,162c3.866,0,7,3.134,7,7s-3.134,7-7,7s-7-3.134-7-7S39.134,162,43,162z"/>
<path fill="#050A15" d="M36.5,14h13c0.276,0,0.5,0.224,0.5,0.5v1c0,0.276-0.224,0.5-0.5,0.5h-13c-0.276,0-0.5-0.224-0.5-0.5v-1
	C36,14.224,36.224,14,36.5,14z M31,14c0.552,0,1,0.448,1,1s-0.448,1-1,1s-1-0.448-1-1S30.448,14,31,14z M43,7c1.105,0,2,0.895,2,2
	s-0.895,2-2,2s-2-0.895-2-2S41.895,7,43,7z"/>
<path fill="#74CA71" d="M6,24h74v134H6V24z"/>
</svg>
