<?xml version="1.0" encoding="utf-8"?>
<!-- Generator: Adobe Illustrator 17.0.0, SVG Export Plug-In . SVG Version: 6.00 Build 0)  -->
<!DOCTYPE svg PUBLIC "-//W3C//DTD SVG 1.1//EN" "http://www.w3.org/Graphics/SVG/1.1/DTD/svg11.dtd">
<svg version="1.1" id="objects" xmlns="http://www.w3.org/2000/svg" xmlns:xlink="http://www.w3.org/1999/xlink" x="0px" y="0px"
	 width="191.64px" height="136.609px" viewBox="0 0 191.64 136.609" enable-background="new 0 0 191.64 136.609"
	 xml:space="preserve">
<g>
	<g>
		<path fill="#7AA535" d="M95.955,84.885c0,0-50.811,5.593-86.37-13.116c0,0,20.303,17.13,86.649,18.308L95.955,84.885z
			 M86.127,86.858c0,0-1.555-32.408-25.628-45.828C60.499,41.03,61.992,82.899,86.127,86.858z M85.134,86.9
			c0,0-23.045,22.835-16.909,49.709C68.226,136.609,98.344,107.486,85.134,86.9z M64.4,85.959c0,0-1.29-26.955-21.32-38.125
			C43.08,47.834,44.322,82.665,64.4,85.959z M63.577,85.996c0,0-19.173,18.994-14.076,41.347
			C49.501,127.343,74.559,103.12,63.577,85.996z M44.161,83.822c0,0,1.135-22.511-14.589-33.435
			C29.572,50.388,27.745,79.435,44.161,83.822z M43.469,83.779c0,0-17.488,14.216-15.087,33.21
			C28.382,116.989,51.196,98.915,43.469,83.779z M28.106,79.511c0,0,0.808-15.964-10.347-23.71
			C17.759,55.801,16.462,76.401,28.106,79.511z M27.614,79.486c0,0-12.4,10.077-10.699,23.546
			C16.914,103.032,33.091,90.216,27.614,79.486z M16.231,74.926c0,0,0.474-9.375-6.075-13.93
			C10.156,60.996,9.391,73.092,16.231,74.926z M15.946,74.911c0,0-7.287,5.917-6.285,13.829
			C9.661,88.74,19.158,81.211,15.946,74.911z M12.737,74.082c0,0-4.764-8.092-12.737-8.285C0,65.797,6.027,76.322,12.737,74.082z
			 M95.682,84.885c0,0,50.814,5.593,86.373-13.116c0,0-20.303,17.13-86.649,18.308L95.682,84.885z M105.513,86.858
			c0,0,1.555-32.408,25.628-45.828C131.141,41.03,129.647,82.899,105.513,86.858z M106.506,86.9c0,0,23.044,22.835,16.908,49.709
			C123.414,136.609,93.295,107.486,106.506,86.9z M127.24,85.959c0,0,1.29-26.955,21.32-38.125
			C148.56,47.834,147.318,82.665,127.24,85.959z M128.062,85.996c0,0,19.173,18.994,14.072,41.347
			C142.135,127.343,117.081,103.12,128.062,85.996z M147.479,83.822c0,0-1.135-22.511,14.589-33.435
			C162.067,50.388,163.895,79.435,147.479,83.822z M148.171,83.779c0,0,17.488,14.216,15.087,33.21
			C163.258,116.989,140.444,98.915,148.171,83.779z M163.534,79.511c0,0-0.808-15.964,10.341-23.71
			C173.875,55.801,175.178,76.401,163.534,79.511z M164.026,79.486c0,0,12.399,10.077,10.699,23.546
			C174.725,103.032,158.548,90.216,164.026,79.486z M175.408,74.926c0,0-0.474-9.375,6.076-13.93
			C181.484,60.996,182.249,73.092,175.408,74.926z M175.694,74.911c0,0,7.287,5.917,6.285,13.829
			C181.979,88.74,172.481,81.211,175.694,74.911z M178.903,74.082c0,0,4.764-8.092,12.737-8.285
			C191.64,65.797,185.613,76.322,178.903,74.082z"/>
		<path fill="#FAF0E4" d="M92.506,94.85c-0.616-0.438-1.77-1.124-3.307-2.044c-13.377-8.036-54.095-32.484-46.58-66.088
			C46.25,10.486,57.857,0,72.197,0c8.826,0,17.118,4.138,23.224,11.355C101.526,4.138,109.818,0,118.644,0
			c14.334,0,25.947,10.486,29.576,26.718c7.517,33.604-33.201,58.052-46.578,66.088c-1.539,0.92-2.69,1.606-3.31,2.044l-2.912,2.07
			L92.506,94.85z"/>
		<path fill="#F34B3E" d="M143.318,28.382c-6.094-27.246-35.392-30.416-47.899-7.603C82.911-2.034,53.615,1.136,47.521,28.382
			c-7.605,33.999,42.005,58.75,47.898,62.946C101.309,87.132,150.927,62.381,143.318,28.382z"/>
	</g>
</g>
</svg>
