<?xml version="1.0" encoding="utf-8"?>
<!DOCTYPE svg PUBLIC "-//W3C//DTD SVG 1.1//EN" "http://www.w3.org/Graphics/SVG/1.1/DTD/svg11.dtd">
<svg version="1.1" baseProfile="full"
 xmlns="http://www.w3.org/2000/svg"
 xmlns:xlink="http://www.w3.org/1999/xlink"
 xmlns:ev="http://www.w3.org/2001/xml-events" 
  height="213px" 
  width="512px" 
>
<path fill="rgb( 255, 82, 70 )"
 d="M512,87.213 C512,87.213 512,101.469 512,101.469 C512,101.469 470.033,101.469 470.033,101.469 C470.033,101.469 470.033,205.453 470.033,205.453 C470.033,205.453 455.764,205.453 455.764,205.453 C455.764,205.453 455.764,101.469 455.764,101.469 C455.764,101.469 416.315,101.469 416.315,101.469 C416.315,101.469 416.315,87.213 416.315,87.213 C416.315,87.213 455.764,87.213 455.764,87.213 C455.764,87.213 455.764,67.925 455.764,67.925 C455.764,67.925 416.315,67.925 416.315,67.925 C416.315,67.925 416.315,55.346 416.315,55.346 C416.315,55.346 455.764,55.346 455.764,55.346 C455.764,55.346 455.764,41.929 455.764,41.929 C455.764,41.929 417.993,41.929 417.993,41.929 C417.993,41.929 417.993,28.5119999999999 417.993,28.5119999999999 C417.993,28.5119999999999 439.816,28.5119999999999 439.816,28.5119999999999 C439.816,28.5119999999999 427.226,15.933 427.226,15.933 C427.226,15.933 443.174,0 443.174,0 C443.174,0 459.121,15.933 459.121,15.933 C459.121,15.933 446.531,28.5119999999999 446.531,28.5119999999999 C446.531,28.5119999999999 455.764,28.5119999999999 455.764,28.5119999999999 C455.764,28.5119999999999 455.764,27.673 455.764,27.673 C455.764,27.673 470.033,27.673 470.033,27.673 C470.033,27.673 470.033,28.5119999999999 470.033,28.5119999999999 C470.033,28.5119999999999 477.587,28.5119999999999 477.587,28.5119999999999 C477.587,28.5119999999999 464.997,15.933 464.997,15.933 C464.997,15.933 480.944,0 480.944,0 C480.944,0 496.892,15.933 496.892,15.933 C496.892,15.933 484.302,28.5119999999999 484.302,28.5119999999999 C484.302,28.5119999999999 511.161,28.5119999999999 511.161,28.5119999999999 C511.161,28.5119999999999 511.161,41.929 511.161,41.929 C511.161,41.929 470.033,41.929 470.033,41.929 C470.033,41.929 470.033,55.346 470.033,55.346 C470.033,55.346 510.321,55.346 510.321,55.346 C510.321,55.346 510.321,67.925 510.321,67.925 C510.321,67.925 470.033,67.925 470.033,67.925 C470.033,67.925 470.033,87.213 470.033,87.213 C470.033,87.213 512,87.213 512,87.213 ZM378.314,134.724 C378.314,134.724 358.303,212.719 358.303,212.719 C358.303,212.719 342.252,207.664 342.252,207.664 C342.252,207.664 370.99,102.733 370.99,102.733 C370.99,102.733 370.99,8.38599999999997 370.99,8.38599999999997 C370.99,8.38599999999997 386.098,8.38599999999997 386.098,8.38599999999997 C386.098,8.38599999999997 386.098,104.275 386.098,104.275 C386.098,104.275 414.636,207.944 414.636,207.944 C414.636,207.944 398.5,213 398.5,213 C398.5,213 378.314,134.724 378.314,134.724 ZM392.813,9.22400000000005 C392.813,9.22400000000005 407.082,9.22400000000005 407.082,9.22400000000005 C407.082,9.22400000000005 407.082,93.921 407.082,93.921 C407.082,93.921 392.813,93.921 392.813,93.921 C392.813,93.921 392.813,9.22400000000005 392.813,9.22400000000005 ZM348.328,9.22400000000005 C348.328,9.22400000000005 362.597,9.22400000000005 362.597,9.22400000000005 C362.597,9.22400000000005 362.597,93.921 362.597,93.921 C362.597,93.921 348.328,93.921 348.328,93.921 C348.328,93.921 348.328,9.22400000000005 348.328,9.22400000000005 ZM304.682,194.551 C304.682,194.551 304.682,207.969 304.682,207.969 C304.682,207.969 304.682,208.807 304.682,208.807 C304.682,208.807 290.413,208.807 290.413,208.807 C290.413,208.807 290.413,207.969 290.413,207.969 C290.413,207.969 280.341,207.969 280.341,207.969 C280.341,207.969 280.341,194.551 280.341,194.551 C280.341,194.551 290.413,194.551 290.413,194.551 C290.413,194.551 290.413,23.48 290.413,23.48 C290.413,23.48 232.498,23.48 232.498,23.48 C232.498,23.48 232.498,8.38599999999997 232.498,8.38599999999997 C232.498,8.38599999999997 325.666,8.38599999999997 325.666,8.38599999999997 C325.666,8.38599999999997 325.666,23.48 325.666,23.48 C325.666,23.48 304.682,23.48 304.682,23.48 C304.682,23.48 304.682,194.551 304.682,194.551 ZM248.446,194.551 C248.446,194.551 264.393,178.618 264.393,178.618 C264.393,178.618 280.341,194.551 280.341,194.551 C280.341,194.551 264.393,210.484 264.393,210.484 C264.393,210.484 248.446,194.551 248.446,194.551 ZM216.872,64.571 C216.872,64.571 227.462,75.236 227.462,75.236 C227.462,75.236 206.479,96.866 206.479,96.866 C206.479,96.866 206.479,209.646 206.479,209.646 C206.479,209.646 190.531,209.646 190.531,209.646 C190.531,209.646 190.531,113.304 190.531,113.304 C190.531,113.304 150.761,154.299 150.761,154.299 C150.761,154.299 139.331,141.957 139.331,141.957 C139.331,141.957 190.531,90.859 190.531,90.859 C190.531,90.859 190.531,51.992 190.531,51.992 C190.531,51.992 168.708,51.992 168.708,51.992 C168.708,51.992 168.708,37.736 168.708,37.736 C168.708,37.736 190.531,37.736 190.531,37.736 C190.531,37.736 190.531,8.38599999999997 190.531,8.38599999999997 C190.531,8.38599999999997 206.479,8.38599999999997 206.479,8.38599999999997 C206.479,8.38599999999997 206.479,37.736 206.479,37.736 C206.479,37.736 227.462,37.736 227.462,37.736 C227.462,37.736 227.462,51.992 227.462,51.992 C227.462,51.992 206.479,51.992 206.479,51.992 C206.479,51.992 206.479,74.944 206.479,74.944 C206.479,74.944 216.872,64.571 216.872,64.571 ZM88.131,59.539 C88.131,59.539 86.275,59.539 86.275,59.539 C86.275,59.539 11.429,136.689 11.429,136.689 C11.429,136.689 0,124.347 0,124.347 C0,124.347 73.862,50.6319999999999 73.862,50.6319999999999 C73.862,50.6319999999999 73.862,24.319 73.862,24.319 C73.862,24.319 3.357,24.319 3.357,24.319 C3.357,24.319 3.357,8.38599999999997 3.357,8.38599999999997 C3.357,8.38599999999997 153.6,8.38599999999997 153.6,8.38599999999997 C153.6,8.38599999999997 153.6,24.319 153.6,24.319 C153.6,24.319 88.131,24.319 88.131,24.319 C88.131,24.319 88.131,59.539 88.131,59.539 ZM92.328,209.646 C92.328,209.646 78.059,209.646 78.059,209.646 C78.059,209.646 78.059,71.28 78.059,71.28 C78.059,71.28 92.328,71.28 92.328,71.28 C92.328,71.28 92.328,209.646 92.328,209.646 ZM149.786,82.9829999999999 C149.786,82.9829999999999 128.42,104.329 128.42,104.329 C128.42,104.329 107.053,82.9829999999999 107.053,82.9829999999999 C107.053,82.9829999999999 128.42,61.636 128.42,61.636 C128.42,61.636 149.786,82.9829999999999 149.786,82.9829999999999 Z "/>
</svg>
