<?xml version="1.0" encoding="utf-8"?>
<!-- Generator: Adobe Illustrator 17.0.0, SVG Export Plug-In . SVG Version: 6.00 Build 0)  -->
<!DOCTYPE svg PUBLIC "-//W3C//DTD SVG 1.1//EN" "http://www.w3.org/Graphics/SVG/1.1/DTD/svg11.dtd">
<svg version="1.1" id="图层_1" xmlns="http://www.w3.org/2000/svg" xmlns:xlink="http://www.w3.org/1999/xlink" x="0px" y="0px"
	 width="29px" height="28.031px" viewBox="0 0 29 28.031" enable-background="new 0 0 29 28.031" xml:space="preserve">
<path fill="#FF6F0D" d="M21,3c-0.019,8.275-0.001,16.728,0,25c-0.891,0-2.109,0-3,0c0-6.145,0-11.855,0-18c0-2.215-0.001-4.785,0-7
	c-1.887,0-3.113,0-5,0c0-0.89-0.142-2.103-0.142-2.981c5.374,0,10.746,0,16.137,0C28.995,0.879,29,2.107,29,3
	c-2.554,0-5.309,0-7.892,0C21.152,2.97,21.162,2.938,21,3z M21,3c0.035,0,0.073,0,0.108,0C21.068,3.027,21,3.051,21,3z M21,28
	C21.009,27.906,21,28.094,21,28z M13,14c0,1.575,0.004,3.425,0,5c-0.002,0.871-1.15,1.805-2,2c-0.763,0.003-2.237,0.001-3,0
	c0,1.514,0,2.486,0,4c0.578,0,1.391,0,2,0c0-0.564,0-0.422,0-1c0.905,0,2.1,0,3,0c-0.001,0.758-0.01,0.755,0,2
	c-0.083,1.04-1.023,2.009-1.998,2c-3.353,0-7.66,0-10.993,0C0.009,27.132,0,25.897,0,25c1.496,0,3.504,0,5,0c0-1.526,0-2.474,0-4
	c0.024,0,0.046,0,0,0l0,0c-0.01,0-0.015,0-0.021,0C4.125,20.997,2.845,21.037,2,21c-0.903-0.039-1.988-1.018-1.989-1.911
	c-0.004-3.356-0.004-6.712-0.005-10.067c0-0.736-0.001-1.472-0.002-2.208C0.003,5.853,0.799,5.075,1.786,5.073
	C2.662,5.071,4.124,5.001,5,5c0-1.671,0-3.306,0-5c0.911,0,2.084,0,3,0c0,1.682,0,3.296,0,5c0.028,0,0.071,0,0,0
	c0.778,0.001,2.223,0.029,3,0c0.936-0.035,2.006,0.856,2,2C12.987,9.465,13.001,11.534,13,14z M5,8C4.661,8,4.833,7.7,4.526,7.724
	C4.01,7.765,3,8.44,3,9c-0.003,2.839,0.001,5.16,0,8c0.034,0.397-0.062-0.127,0,1c0.07,0.525,1.631,0.983,2,1C5,15.484,5,11.498,5,8
	z M9,8C8.648,7.953,8.371,8,8,8c0,3.476,0,7.49,0,11c0.274,0,0.745,0.002,1,0c0.612-0.004,0.98-1.177,0.981-1.773
	c0.001-0.979,0.001-1.957,0-2.936c0-1.876,0.02-3.415,0.019-5.291C10,8.533,9.419,8.056,9,8z M11,21
	C10.852,21.218,10.84,21.037,11,21z M13,24C13,23.936,13.255,24.478,13,24z M11.116,28c-0.036,0-0.075,0-0.111,0
	C10.999,28.003,11.133,27.988,11.116,28z M11,28c0.001,0,0.001,0,0.002,0c0.001,0,0.002,0,0.003,0C11.005,28,10.999,28,11,28z
	 M29.01,17.682c-0.783,0.44-1.545,0.87-2.335,1.314c-1.646-2.775-3.289-5.544-4.944-8.335c0.784-0.441,1.551-0.873,2.343-1.319
	C25.722,12.126,27.362,14.897,29.01,17.682z"/>
</svg>
