<?xml version="1.0" encoding="utf-8"?>
<!-- Generator: Adobe Illustrator 17.0.0, SVG Export Plug-In . SVG Version: 6.00 Build 0)  -->
<!DOCTYPE svg PUBLIC "-//W3C//DTD SVG 1.1//EN" "http://www.w3.org/Graphics/SVG/1.1/DTD/svg11.dtd">
<svg version="1.1" id="object" xmlns="http://www.w3.org/2000/svg" xmlns:xlink="http://www.w3.org/1999/xlink" x="0px" y="0px"
	 width="357.475px" height="332.837px" viewBox="0 0 357.475 332.837" enable-background="new 0 0 357.475 332.837"
	 xml:space="preserve">
<g>
	<circle opacity="0.1" fill="#EA1C24" cx="178.221" cy="146.745" r="101.577"/>
	<g>
		<g>
			<g>
				<path fill="#955018" d="M242.041,126.603c0,42.911,10.044,79.275-61.734,79.275c-70.222,0-57.171-36.364-57.171-79.275
					c0-42.912,21.41-63.841,60.166-63.841C222.062,62.762,242.041,83.69,242.041,126.603z"/>
				<rect x="167.322" y="189.663" fill="#E4D8B9" width="27.111" height="25.698"/>
				<path fill="#F1E4C4" d="M231.917,127.085c0,36.721,8.224,66.489-48.615,66.489c-56.837,0-50.045-29.769-50.045-66.489
					c0-36.72,16.878-53.599,50.045-53.599C216.47,73.486,231.917,90.365,231.917,127.085z"/>
				<ellipse fill="#F1E4C4" cx="230.971" cy="129.902" rx="8.843" ry="12.362"/>
				<ellipse fill="#F1E4C4" cx="133.006" cy="129.902" rx="8.843" ry="12.362"/>
				<g>
					<ellipse fill="#545454" cx="160.142" cy="138.803" rx="6.674" ry="5.942"/>
					<ellipse fill="#545454" cx="204.232" cy="138.803" rx="6.672" ry="5.942"/>
					<path fill="#545454" d="M162.776,165.718h38.37c0,0-2.471,9.175-19.186,9.175C165.245,174.893,162.776,165.718,162.776,165.718
						z"/>
				</g>
				<path fill="#955018" d="M126.966,116.682c0,0,10.504,2.146,31.742,3.218c0.877-10.158,2.627-14.408,2.627-14.408
					s8.132,15.005,13.5,15.005c37.893,0,62.945-3.814,62.945-3.814s-8.145-45.995-56.17-45.995
					C133.583,70.687,126.966,116.682,126.966,116.682z"/>
			</g>
			<path fill="#E4D8B9" d="M224.774,231.677c0,16.678-19.703,30.198-44.01,30.198c-24.305,0-44.009-13.52-44.009-30.198
				c0-16.677-4.979-28.686,44.01-28.686C229.752,202.991,224.774,215,224.774,231.677z"/>
			<g>
				<path fill="#F1E4C4" d="M309.518,215.004c0,0-0.135-12.499-0.135-17.333s15.072-22.177,22.301-30
					c6.65-7.198-5.181-12.37-10.332-6.334c-5.152,6.037-18.834,22.875-19.668,21.5c-0.833-1.374,3.834-9.666-3.249-10.166
					s-11.087,16-11.087,25s0,17.333,0,17.333H309.518z"/>
			</g>
			<g>
				<path fill="#F1E4C4" d="M52.341,215.004c0,0,0.134-12.499,0.134-17.333s-15.072-22.177-22.301-30
					c-6.649-7.198,5.182-12.37,10.334-6.334c5.151,6.037,18.833,22.875,19.666,21.5c0.834-1.374-3.834-9.666,3.25-10.166
					c7.084-0.5,11.087,16,11.087,25s0,17.333,0,17.333H52.341z"/>
			</g>
			<rect x="285.352" y="215.004" fill="#FFFEFD" width="26.166" height="16.083"/>
			<rect x="50.341" y="215.004" fill="#FFFEFD" width="26.167" height="16.083"/>
			<path fill="#FFFFFF" d="M145.71,205.892c0,0,8.209-1.349,14.342-1.901c3.89-0.351,16.68-0.916,27.221-0.843
				c6.078,0.042,11.408,0.485,13.85,0.819c6.677,0.913,14.961,2.045,14.961,2.045s0.711,80.313-34.581,80.313
				S145.71,205.892,145.71,205.892z"/>
			<path fill="#058486" d="M282.018,224.837v25.25c0,0-13.63-16.11-34.935-32.217c-9.814-7.419-22.545-10.588-31.33-11.903
				c-1.373,4.355-3.146,51.858-34.824,51.858c-31.677,0-34.344-46.334-35.108-51.947c-8.721,1.104-21.113,3.896-29.689,10.959
				c-20.618,16.977-36.29,33.25-36.29,33.25v-25.25l-32.75-0.083c0,0,0,31.833,0,64.833s24.583,21.83,38.25,8
				c13.667-13.83,42-42.5,42-42.5v77.75h53.177h0.823h53.177v-77.75c0,0,28.334,28.67,42,42.5c13.666,13.83,38.25,25,38.25-8
				s0-64.833,0-64.833L282.018,224.837z"/>
			<rect x="166.185" y="199.116" fill="#FFFFFF" width="29.159" height="20.037"/>
			<circle fill="#102F41" cx="181.221" cy="271.283" r="5.458"/>
			<circle fill="#102F41" cx="180.764" cy="293.783" r="5.458"/>
			<circle fill="#102F41" cx="180.307" cy="316.283" r="5.458"/>
			<path fill="#102F41" d="M181.369,257.804c-8.811,0-16.24-3.055-22.086-9.08c-12.205-12.581-13.932-34.544-14.137-42.758
				c0,0,4.627-0.693,5.993-0.897c0.132,6.76,1.444,28.145,12.46,39.488c4.736,4.877,10.549,7.247,17.77,7.247
				c7.209,0,12.924-2.358,17.469-7.209c10.67-11.388,11.155-32.862,11.038-39.432l6.021,0.823c0.08,8.195-0.888,30.125-12.68,42.71
				C197.554,254.74,190.204,257.804,181.369,257.804z"/>
		</g>
		<g>
			<path fill="#403833" d="M84.511,66.37c0,4.365-3.571,7.936-7.935,7.936H9.124c-4.365,0-7.936-3.57-7.936-7.936V28.174
				c0-4.364,3.571-7.934,7.936-7.934h67.453c4.364,0,7.935,3.57,7.935,7.934V66.37z"/>
			<rect x="1.188" y="45.341" fill="#2F2823" width="83.323" height="5.357"/>
			<g>
				<g>
					<path fill="#F1E4C4" d="M30.946,48.317c0,3.165-2.768,5.753-6.15,5.753s-6.15-2.589-6.15-5.753c0-3.164,2.768-5.753,6.15-5.753
						S30.946,45.152,30.946,48.317z"/>
				</g>
				<g>
					<path fill="#F1E4C4" d="M67.053,48.02c0,3.164-2.768,5.753-6.15,5.753c-3.382,0-6.15-2.589-6.15-5.753
						c0-3.164,2.768-5.753,6.15-5.753C64.286,42.267,67.053,44.855,67.053,48.02z"/>
				</g>
			</g>
			<path fill="#F1E4C4" d="M59.996,20.211h-4.762c0-8.178-6.419-11.902-12.384-11.902c-5.965,0-12.385,3.725-12.385,11.902h-4.761
				c0-10.941,8.626-16.664,17.147-16.664C51.37,3.547,59.996,9.271,59.996,20.211z"/>
		</g>
		<g>
			<path fill="#403833" d="M230.184,17.576c1.103,0.868,1.294,2.481,0.425,3.584l-17.444,22.142
				c-0.869,1.104-2.482,1.295-3.585,0.426l-20.863-16.436c-1.103-0.869-1.295-2.482-0.426-3.585l17.444-22.143
				c0.869-1.103,2.482-1.294,3.585-0.425L230.184,17.576z"/>
			
				<rect x="189.503" y="10.805" transform="matrix(0.6188 -0.7855 0.7855 0.6188 64.2538 163.7596)" fill="#F2F2EF" width="22.728" height="9.734"/>
			
				<rect x="203.391" y="17.533" transform="matrix(0.6189 -0.7855 0.7855 0.6189 60.948 178.8341)" fill="#F2F2EF" width="22.727" height="18.161"/>
		</g>
		<g>
			<g>
				<circle fill="#F6B344" cx="99.989" cy="128.016" r="13.424"/>
				<g>
					<g>
						<path fill="#B58631" d="M104.135,124.878h-3.649v-0.605c0-0.645-0.042-1.065-0.127-1.265
							c-0.083-0.198-0.265-0.298-0.541-0.298c-0.223,0-0.39,0.086-0.501,0.257c-0.112,0.172-0.167,0.43-0.167,0.773
							c0,0.572,0.115,0.973,0.344,1.201c0.222,0.229,0.878,0.675,1.968,1.337c0.927,0.56,1.56,0.989,1.897,1.287
							c0.337,0.298,0.622,0.719,0.853,1.265c0.232,0.544,0.348,1.224,0.348,2.036c0,1.301-0.313,2.32-0.938,3.062
							c-0.627,0.74-1.566,1.198-2.818,1.373v1.372h-1.68v-1.417c-0.976-0.097-1.828-0.472-2.556-1.125
							c-0.728-0.653-1.092-1.792-1.092-3.418v-0.714h3.648v0.895c0,0.981,0.038,1.591,0.113,1.828
							c0.075,0.238,0.258,0.357,0.546,0.357c0.247,0,0.431-0.083,0.551-0.249c0.121-0.165,0.181-0.41,0.181-0.735
							c0-0.819-0.057-1.404-0.171-1.757c-0.114-0.352-0.506-0.736-1.174-1.151c-1.114-0.698-1.872-1.212-2.271-1.54
							c-0.401-0.328-0.747-0.79-1.038-1.387c-0.293-0.596-0.438-1.269-0.438-2.022c0-1.09,0.308-1.944,0.925-2.565
							c0.618-0.62,1.543-1.002,2.777-1.146v-1.165h1.68v1.165c1.126,0.145,1.969,0.522,2.529,1.133
							c0.56,0.611,0.84,1.456,0.84,2.534C104.171,124.342,104.158,124.57,104.135,124.878z"/>
					</g>
				</g>
			</g>
			<g>
				<circle fill="#F6B344" cx="74.473" cy="144.744" r="13.424"/>
				<g>
					<g>
						<path fill="#B58631" d="M78.619,141.607H74.97v-0.605c0-0.645-0.043-1.065-0.127-1.265c-0.085-0.199-0.265-0.298-0.542-0.298
							c-0.223,0-0.39,0.086-0.502,0.257c-0.111,0.172-0.167,0.43-0.167,0.773c0,0.572,0.115,0.973,0.343,1.201
							c0.223,0.229,0.879,0.675,1.969,1.337c0.927,0.559,1.56,0.989,1.896,1.286c0.337,0.299,0.622,0.72,0.853,1.265
							c0.232,0.545,0.348,1.224,0.348,2.037c0,1.301-0.313,2.32-0.939,3.062c-0.627,0.74-1.566,1.198-2.818,1.372v1.373h-1.68
							v-1.418c-0.976-0.096-1.828-0.471-2.556-1.124c-0.728-0.653-1.093-1.793-1.093-3.418v-0.714h3.649v0.894
							c0,0.982,0.038,1.592,0.113,1.829c0.075,0.238,0.257,0.356,0.546,0.356c0.247,0,0.431-0.082,0.551-0.248
							c0.121-0.165,0.181-0.411,0.181-0.736c0-0.818-0.057-1.404-0.171-1.756c-0.115-0.352-0.506-0.736-1.174-1.152
							c-1.114-0.698-1.872-1.211-2.271-1.54c-0.401-0.327-0.747-0.789-1.039-1.386c-0.292-0.596-0.438-1.271-0.438-2.022
							c0-1.09,0.308-1.945,0.925-2.566c0.618-0.62,1.543-1.002,2.777-1.146v-1.165h1.68v1.165c1.126,0.145,1.969,0.523,2.528,1.133
							c0.56,0.611,0.84,1.456,0.84,2.534C78.654,141.07,78.642,141.299,78.619,141.607z"/>
					</g>
				</g>
			</g>
			<g>
				<circle fill="#F6B344" cx="89.626" cy="99.801" r="13.423"/>
				<g>
					<g>
						<path fill="#B58631" d="M93.772,96.662h-3.649v-0.604c0-0.645-0.042-1.066-0.127-1.265c-0.085-0.199-0.265-0.298-0.542-0.298
							c-0.223,0-0.39,0.086-0.501,0.257c-0.111,0.172-0.166,0.43-0.166,0.772c0,0.572,0.114,0.973,0.343,1.201
							c0.223,0.229,0.879,0.675,1.969,1.337c0.927,0.561,1.56,0.988,1.897,1.287c0.337,0.298,0.622,0.72,0.853,1.264
							c0.232,0.546,0.348,1.225,0.348,2.037c0,1.301-0.313,2.321-0.939,3.062c-0.627,0.74-1.565,1.198-2.817,1.373v1.372h-1.68
							v-1.418c-0.976-0.097-1.827-0.471-2.556-1.124c-0.729-0.653-1.093-1.793-1.093-3.418v-0.714h3.648v0.894
							c0,0.982,0.038,1.592,0.113,1.829c0.076,0.238,0.257,0.357,0.547,0.357c0.247,0,0.43-0.083,0.551-0.249
							c0.12-0.165,0.181-0.411,0.181-0.735c0-0.819-0.057-1.404-0.172-1.757c-0.114-0.352-0.506-0.736-1.174-1.151
							c-1.114-0.698-1.871-1.212-2.272-1.54c-0.4-0.328-0.746-0.79-1.038-1.387c-0.292-0.596-0.438-1.27-0.438-2.022
							c0-1.09,0.308-1.944,0.925-2.565c0.618-0.619,1.543-1.002,2.777-1.146v-1.165h1.68v1.165c1.126,0.145,1.969,0.522,2.528,1.134
							c0.561,0.61,0.84,1.455,0.84,2.533C93.808,96.127,93.795,96.355,93.772,96.662z"/>
					</g>
				</g>
			</g>
		</g>
		<g>
			<g>
				<circle fill="#F6B344" cx="344.051" cy="129.78" r="13.424"/>
				<g>
					<g>
						<path fill="#B58631" d="M348.197,126.642h-3.649v-0.605c0-0.645-0.042-1.065-0.126-1.265
							c-0.085-0.199-0.265-0.298-0.542-0.298c-0.223,0-0.39,0.086-0.501,0.257c-0.111,0.172-0.167,0.43-0.167,0.772
							c0,0.572,0.115,0.973,0.343,1.201c0.223,0.229,0.879,0.675,1.969,1.337c0.927,0.56,1.56,0.989,1.897,1.286
							c0.337,0.299,0.621,0.72,0.853,1.265c0.232,0.545,0.348,1.224,0.348,2.037c0,1.301-0.313,2.32-0.939,3.062
							c-0.627,0.74-1.566,1.198-2.818,1.372v1.373h-1.68v-1.418c-0.976-0.096-1.828-0.471-2.556-1.124
							c-0.728-0.653-1.093-1.793-1.093-3.418v-0.714h3.649v0.894c0,0.982,0.038,1.592,0.113,1.829
							c0.075,0.238,0.257,0.356,0.546,0.356c0.247,0,0.431-0.082,0.551-0.248c0.121-0.165,0.181-0.411,0.181-0.736
							c0-0.818-0.057-1.404-0.171-1.756c-0.115-0.353-0.506-0.736-1.174-1.152c-1.114-0.698-1.872-1.211-2.272-1.54
							c-0.401-0.327-0.746-0.789-1.038-1.386c-0.293-0.596-0.438-1.27-0.438-2.022c0-1.09,0.308-1.945,0.925-2.565
							c0.618-0.62,1.543-1.002,2.777-1.146v-1.165h1.68v1.165c1.126,0.145,1.969,0.522,2.528,1.133
							c0.561,0.611,0.84,1.456,0.84,2.534C348.232,126.106,348.22,126.335,348.197,126.642z"/>
					</g>
				</g>
			</g>
			<g>
				<circle fill="#F6B344" cx="323.272" cy="102.812" r="13.423"/>
				<g>
					<g>
						<path fill="#B58631" d="M327.417,99.673h-3.649v-0.604c0-0.645-0.042-1.066-0.126-1.265c-0.085-0.199-0.265-0.298-0.542-0.298
							c-0.223,0-0.39,0.086-0.501,0.257c-0.111,0.172-0.167,0.43-0.167,0.772c0,0.572,0.114,0.973,0.343,1.201
							c0.223,0.229,0.879,0.675,1.969,1.337c0.927,0.561,1.56,0.988,1.897,1.287c0.337,0.298,0.621,0.72,0.853,1.264
							c0.232,0.546,0.348,1.225,0.348,2.037c0,1.301-0.313,2.321-0.939,3.062c-0.627,0.74-1.566,1.198-2.817,1.373v1.372h-1.68
							v-1.418c-0.976-0.097-1.827-0.471-2.556-1.124c-0.729-0.653-1.093-1.793-1.093-3.418v-0.714h3.648v0.894
							c0,0.982,0.038,1.592,0.113,1.829c0.076,0.238,0.257,0.357,0.547,0.357c0.247,0,0.43-0.083,0.551-0.249
							c0.12-0.165,0.181-0.411,0.181-0.735c0-0.819-0.057-1.404-0.172-1.757c-0.114-0.352-0.506-0.736-1.174-1.151
							c-1.114-0.698-1.871-1.212-2.271-1.54c-0.4-0.328-0.747-0.79-1.039-1.387c-0.292-0.596-0.438-1.27-0.438-2.022
							c0-1.09,0.308-1.944,0.925-2.565c0.618-0.619,1.543-1.002,2.777-1.146v-1.165h1.68v1.165c1.126,0.145,1.969,0.522,2.528,1.134
							c0.561,0.61,0.84,1.455,0.84,2.533C327.453,99.138,327.441,99.367,327.417,99.673z"/>
					</g>
				</g>
			</g>
		</g>
		<g>
			<path fill="#ED6245" d="M47.407,119.661c0-1.216-0.094-2.41-0.271-3.577l-12.445,2.113c0.063,0.478,0.097,0.968,0.097,1.464
				c0,2.817-1.059,5.392-2.797,7.35l8.946,8.907C44.946,131.671,47.407,125.948,47.407,119.661z"/>
			<path fill="#F6B344" d="M23.704,130.745c-6.112,0-11.084-4.972-11.084-11.084c0-6.112,4.972-11.085,11.084-11.085
				c1.903,0,3.695,0.482,5.261,1.331l5.366-11.431c-3.198-1.61-6.808-2.52-10.627-2.52C10.633,95.957,0,106.591,0,119.661
				c0,13.07,10.633,23.703,23.704,23.703c0.947,0,1.88-0.058,2.798-0.166l-0.908-12.616
				C24.979,130.689,24.348,130.745,23.704,130.745z"/>
			<path fill="#ED6245" d="M40.938,135.918l-8.946-8.907c-1.634,1.841-3.871,3.135-6.397,3.571l0.908,12.616
				C32.162,142.529,37.217,139.86,40.938,135.918z"/>
			<path fill="#0C5054" d="M34.691,118.197l12.445-2.113c-1.173-7.713-6.075-14.217-12.805-17.607l-5.366,11.431
				C32.021,111.562,34.215,114.611,34.691,118.197z"/>
		</g>
		<g>
			<path fill="#F2F2EF" d="M254.639,35.925c-13.165,0-23.837,10.673-23.837,23.837c0,13.164,10.672,23.837,23.837,23.837
				c13.164,0,23.836-10.673,23.836-23.837C278.476,46.598,267.803,35.925,254.639,35.925z M254.639,67.489
				c-4.269,0-7.727-3.46-7.727-7.728c0-4.267,3.459-7.728,7.727-7.728c4.268,0,7.728,3.46,7.728,7.728
				C262.367,64.029,258.907,67.489,254.639,67.489z"/>
			<g>
				<path fill="#545454" d="M254.639,52.034c4.268,0,7.728,3.46,7.728,7.728c0,4.268-3.46,7.728-7.728,7.728
					c-4.269,0-7.727-3.46-7.727-7.728C246.912,55.494,250.371,52.034,254.639,52.034 M254.639,49.121
					c-5.868,0-10.641,4.773-10.641,10.641s4.773,10.641,10.641,10.641c5.867,0,10.64-4.773,10.64-10.641
					S260.506,49.121,254.639,49.121L254.639,49.121z"/>
			</g>
		</g>
		<g>
			<g>
				<g>
					<path fill="#102F41" d="M282.514,13.581l17.49,68.735l53.374-13.58L335.889,0L282.514,13.581z M303.378,76.242
						c-0.929,0.236-1.874-0.325-2.109-1.255c-0.236-0.929,0.325-1.873,1.253-2.109c0.929-0.236,1.874,0.325,2.111,1.254
						C304.869,75.062,304.307,76.005,303.378,76.242z M301.082,67.22c-0.928,0.236-1.875-0.325-2.11-1.255
						c-0.236-0.93,0.325-1.873,1.254-2.109c0.928-0.235,1.874,0.324,2.108,1.254C302.573,66.037,302.011,66.982,301.082,67.22z
						 M298.786,58.196c-0.928,0.236-1.873-0.325-2.109-1.254c-0.236-0.929,0.324-1.873,1.254-2.11
						c0.929-0.236,1.874,0.326,2.11,1.254C300.276,57.015,299.715,57.96,298.786,58.196z M296.491,49.174
						c-0.93,0.236-1.874-0.325-2.111-1.254c-0.236-0.93,0.326-1.875,1.254-2.11c0.929-0.236,1.874,0.325,2.109,1.254
						C297.981,47.992,297.418,48.938,296.491,49.174z M294.195,40.151c-0.929,0.235-1.875-0.326-2.111-1.255
						c-0.235-0.93,0.327-1.874,1.255-2.11c0.929-0.235,1.874,0.325,2.109,1.255C295.685,38.97,295.124,39.914,294.195,40.151z
						 M291.899,31.128c-0.929,0.235-1.874-0.325-2.11-1.254c-0.236-0.93,0.324-1.875,1.253-2.11
						c0.929-0.236,1.875,0.324,2.111,1.254C293.389,29.947,292.827,30.891,291.899,31.128z M289.603,22.104
						c-0.929,0.237-1.873-0.325-2.11-1.254c-0.236-0.929,0.325-1.873,1.254-2.11c0.928-0.235,1.874,0.325,2.11,1.255
						C291.093,20.924,290.532,21.869,289.603,22.104z"/>
					<g>
						<g>
							<path fill="#F6B344" d="M282.861,23.673c-0.647,0.165-1.353-0.193-1.673-0.892c-0.365-0.796-0.087-1.734,0.621-2.095
								c2.671-1.361,6.614-1.727,6.781-1.741c0.789-0.07,1.513,0.578,1.618,1.45c0.105,0.871-0.452,1.636-1.239,1.706
								c-0.066,0.006-3.626,0.343-5.84,1.47C283.042,23.616,282.951,23.649,282.861,23.673z"/>
							<path fill="#F6B344" d="M285.138,32.628c-0.646,0.164-1.351-0.193-1.671-0.892c-0.364-0.797-0.087-1.734,0.62-2.096
								c2.673-1.36,6.616-1.726,6.781-1.74c0.79-0.071,1.514,0.578,1.62,1.45c0.103,0.871-0.453,1.635-1.24,1.706
								c-0.066,0.006-3.627,0.342-5.839,1.47C285.32,32.571,285.229,32.605,285.138,32.628z"/>
							<path fill="#F6B344" d="M287.451,41.719c-0.712,0.181-1.472-0.271-1.738-1.061c-0.282-0.832,0.093-1.724,0.837-1.991
								c2.763-0.99,6.368-1.635,6.521-1.661c0.778-0.138,1.544,0.45,1.709,1.314c0.166,0.862-0.331,1.674-1.109,1.812
								c-0.035,0.006-3.546,0.633-6.101,1.55C287.53,41.696,287.491,41.709,287.451,41.719z"/>
							<g>
								<path fill="#F6B344" d="M299.657,77.254c-1.02,0.259-2.13,0.464-3.167,0.491c-0.794,0.022-1.486-0.669-1.547-1.542
									c-0.06-0.874,0.534-1.603,1.329-1.622c2.503-0.069,5.799-1.486,5.832-1.5c0.726-0.317,1.579,0.09,1.904,0.905
									c0.324,0.816-0.002,1.733-0.729,2.048C303.18,76.078,301.586,76.763,299.657,77.254z"/>
								<path fill="#F6B344" d="M297.304,68.317c-1.017,0.259-2.13,0.465-3.165,0.492c-0.794,0.022-1.485-0.669-1.546-1.543
									c-0.061-0.875,0.532-1.602,1.327-1.621c2.504-0.069,5.801-1.486,5.833-1.501c0.725-0.315,1.579,0.091,1.903,0.906
									c0.324,0.816-0.002,1.732-0.728,2.048C300.826,67.142,299.233,67.827,297.304,68.317z"/>
								<path fill="#F6B344" d="M294.931,59.087c-0.971,0.248-2.03,0.483-3.023,0.638c-0.78,0.121-1.536-0.482-1.688-1.349
									c-0.15-0.866,0.362-1.665,1.143-1.787c2.682-0.416,6.066-1.544,6.1-1.555c0.75-0.249,1.574,0.225,1.841,1.062
									c0.268,0.838-0.123,1.719-0.872,1.971C298.335,58.1,296.798,58.612,294.931,59.087z"/>
							</g>
							<path fill="#F6B344" d="M296.075,49.193c-0.021,0.005-0.04,0.01-0.06,0.014c-0.026,0.006-1.318,0.277-6.236,1.589
								c-0.007,0.001-0.009,0.003-0.016,0.004c-0.759,0.192-1.552-0.33-1.774-1.176c-0.225-0.85,0.211-1.704,0.975-1.908
								c5.07-1.353,6.334-1.613,6.385-1.622c0.775-0.158,1.552,0.411,1.735,1.271C297.263,48.202,296.814,49.006,296.075,49.193z"/>
						</g>
					</g>
				</g>
				
					<rect x="298.442" y="17.98" transform="matrix(0.9691 -0.2466 0.2466 0.9691 3.4768 78.4848)" fill="#F1E4C4" width="33.321" height="14.761"/>
			</g>
		</g>
		<path fill="#FFFFFF" d="M172.123,37.527c0-8.3-6.729-15.029-15.029-15.029c-1.634,0-3.207,0.263-4.679,0.744
			c-0.621-8.206-7.476-14.672-15.842-14.672c-8.706,0-15.775,7.002-15.885,15.682c-2.103-1.118-4.501-1.754-7.049-1.754
			c-8.3,0-15.028,6.729-15.028,15.029s6.729,15.028,15.028,15.028h44.904v-0.07C166.163,51.757,172.123,45.338,172.123,37.527z"/>
		<g>
			<polygon fill="#FFFFFF" points="285.148,131.196 285.253,131.232 285.148,131.048 			"/>
			<path fill="#0C5054" d="M285.228,106.043c-0.026,0-0.053,0.003-0.08,0.003c-10.956,0.035-20.218,7.262-23.312,17.208
				l23.312,7.942v-0.148l0.105,0.184l22.946,7.817c0.983-2.651,1.522-5.518,1.522-8.512
				C309.722,117.01,298.755,106.043,285.228,106.043z"/>
			<path fill="#F6B344" d="M285.253,131.232l-0.105-0.035l-23.312-7.942c-0.716,2.301-1.102,4.747-1.102,7.283
				c0,13.5,10.923,24.448,24.414,24.491c0.027,0,0.053,0.002,0.08,0.002c4.308,0,8.356-1.114,11.872-3.067L285.253,131.232z"/>
			<path fill="#ED6245" d="M308.2,139.049l-22.946-7.817l11.847,20.731C302.183,149.142,306.155,144.564,308.2,139.049z"/>
		</g>
	</g>
</g>
</svg>
