<?xml version="1.0" encoding="utf-8"?>
<!-- Generator: Adobe Illustrator 17.0.0, SVG Export Plug-In . SVG Version: 6.00 Build 0)  -->
<!DOCTYPE svg PUBLIC "-//W3C//DTD SVG 1.1//EN" "http://www.w3.org/Graphics/SVG/1.1/DTD/svg11.dtd">
<svg version="1.1" id="图层_1" xmlns:ev="http://www.w3.org/2001/xml-events"
	 xmlns="http://www.w3.org/2000/svg" xmlns:xlink="http://www.w3.org/1999/xlink" x="0px" y="0px" width="108.059px"
	 height="219.48px" viewBox="0 0 108.059 219.48" enable-background="new 0 0 108.059 219.48" xml:space="preserve">
<path fill="#4C5562" d="M0.72,25.934c0.398,0,0.72,0.322,0.72,0.72v6.243c0,0.398-0.322,0.72-0.72,0.72S0,33.296,0,32.898v-6.243
	C0,26.257,0.322,25.934,0.72,25.934z"/>
<path fill="#4C5562" d="M108.78,41.783c0.398,0,0.72,0.322,0.72,0.72V55.47c0,0.398-0.322,0.72-0.72,0.72
	c-0.398,0-0.72-0.322-0.72-0.72V42.503C108.059,42.105,108.382,41.783,108.78,41.783z"/>
<path fill="#4C5562" d="M0.72,41.783c0.398,0,0.72,0.322,0.72,0.72V55.47c0,0.398-0.322,0.72-0.72,0.72S0,55.868,0,55.47V42.503
	C0,42.105,0.322,41.783,0.72,41.783z"/>
<path fill="#4C5562" d="M0.72,59.553c0.398,0,0.72,0.322,0.72,0.72V73.24c0,0.398-0.322,0.72-0.72,0.72S0,73.638,0,73.24V60.273
	C0,59.875,0.322,59.553,0.72,59.553z"/>
<path fill="#4C5562" d="M17.53,0H91.97c9.283,0,16.809,7.526,16.809,16.809v185.862c0,9.283-7.526,16.809-16.809,16.809H17.53
	c-9.283,0-16.809-7.526-16.809-16.809V16.809C0.72,7.526,8.246,0,17.53,0z"/>
<path fill="#424A56" fill-opacity="0.502" d="M104.938,204.592v-3.362h3.842v3.362H104.938z M104.938,14.408h3.842v3.362h-3.842
	V14.408z M0.72,201.23h3.842v3.362H0.72V201.23z M0.72,14.408h3.842v3.362H0.72V14.408z"/>
<path fill="#424A56" d="M18.01,1.921h73.48c8.488,0,15.368,6.881,15.368,15.368v184.901c0,8.488-6.881,15.368-15.368,15.368H18.01
	c-8.488,0-15.368-6.881-15.368-15.368V17.289C2.641,8.802,9.522,1.921,18.01,1.921z"/>
<path fill="#4C5562" d="M54.99,197.148c4.774,0,8.645,3.87,8.645,8.645c0,4.774-3.87,8.645-8.645,8.645s-8.645-3.87-8.645-8.645
	C46.345,201.018,50.216,197.148,54.99,197.148z"/>
<path fill="#424A56" d="M54.894,198.253c4.111,0,7.444,3.333,7.444,7.444c0,4.111-3.333,7.444-7.444,7.444s-7.444-3.333-7.444-7.444
	C47.45,201.585,50.783,198.253,54.894,198.253z"/>
<path fill="#363C45" d="M6.724,24.253h96.293v169.773H6.724V24.253z"/>
<path fill="#4C5562" d="M7.684,25.214h94.372v167.612H7.684V25.214z"/>
<path fill="#4C5562" d="M39.862,12.007c1.194,0,2.161,0.967,2.161,2.161s-0.967,2.161-2.161,2.161c-1.194,0-2.161-0.967-2.161-2.161
	S38.668,12.007,39.862,12.007z"/>
<path fill="#424A56" d="M39.862,12.967c0.663,0,1.201,0.538,1.201,1.201c0,0.663-0.538,1.201-1.201,1.201
	c-0.663,0-1.201-0.538-1.201-1.201C38.661,13.505,39.199,12.967,39.862,12.967z"/>
<path fill="#4C5562" d="M54.75,6.484c0.663,0,1.201,0.538,1.201,1.201s-0.538,1.201-1.201,1.201s-1.201-0.538-1.201-1.201
	S54.087,6.484,54.75,6.484z"/>
<path fill="#4C5562" d="M47.906,12.487h13.688c0.862,0,1.561,0.699,1.561,1.561v0.24c0,0.862-0.699,1.561-1.561,1.561H47.906
	c-0.862,0-1.561-0.699-1.561-1.561v-0.24C46.345,13.186,47.044,12.487,47.906,12.487z"/>
<path fill="#424A56" d="M47.906,13.447h13.688c0.332,0,0.6,0.269,0.6,0.6v0.24c0,0.332-0.269,0.6-0.6,0.6H47.906
	c-0.332,0-0.6-0.269-0.6-0.6v-0.24C47.306,13.716,47.575,13.447,47.906,13.447z"/>
</svg>
