<?xml version="1.0" encoding="utf-8"?>
<!-- Generator: Adobe Illustrator 17.0.0, SVG Export Plug-In . SVG Version: 6.00 Build 0)  -->
<!DOCTYPE svg PUBLIC "-//W3C//DTD SVG 1.1//EN" "http://www.w3.org/Graphics/SVG/1.1/DTD/svg11.dtd">
<svg version="1.1" id="图层_1" xmlns="http://www.w3.org/2000/svg" xmlns:xlink="http://www.w3.org/1999/xlink" x="0px" y="0px"
	 width="175.748px" height="65.235px" viewBox="0 0 175.748 65.235" enable-background="new 0 0 175.748 65.235"
	 xml:space="preserve">
<path fill="#0A090A" d="M164.962,62.171c0-2.803-4.857-1.656-4.857-5.513c0-1.705,1.385-2.9,3.346-2.9
	c1.083,0,2.054,0.335,2.931,0.861l-0.525,1.004c-0.654-0.43-1.309-0.813-2.343-0.813c-0.955,0-2.039,0.604-2.039,1.929
	c0,2.422,4.956,1.862,4.956,5.321c0,1.641-1.146,3.171-3.569,3.171c-1.194,0-2.103-0.305-3.027-0.877l0.607-0.988
	c0.588,0.413,1.48,0.814,2.34,0.814C164.071,64.179,164.962,63.397,164.962,62.171z M72.724,63.287l-3.329-9.305h-1.417
	l-2.007,11.024l1.321,0.225l1.512-9.432h0.032l3.203,9.207h1.306l3.425-9.207h0.033l1.401,9.432l1.337-0.225L77.79,53.982h-1.482
	L72.724,63.287z M59.385,1.334v45.89H83.91v-2.472l-18.599-0.011V1.334H59.385z M145.767,54.907c1.067,0,1.991,0.223,2.852,0.827
	l0.572-1.083c-1.065-0.573-2.117-0.893-3.424-0.893c-3.266,0-5.846,2.359-5.846,5.736c0,3.601,2.58,5.736,5.846,5.736
	c1.161,0,2.389-0.464,3.377-1.037l-0.54-0.973c-0.862,0.495-1.865,0.862-2.837,0.862c-2.565,0-4.381-2.039-4.381-4.589
	C141.386,56.944,143.201,54.907,145.767,54.907z M168.966,1.178l-15.133,19.645L137.505,1.178h-6.111l18.184,22.677v23.221
	c1.012-0.075,4.505-0.064,5.542,0V23.45l16.354-22.272C171.474,1.178,168.966,1.178,168.966,1.178z M51.504,64.179
	c-0.859,0-1.751-0.4-2.341-0.814l-0.606,0.988c0.924,0.572,1.832,0.877,3.029,0.877c2.421,0,3.566-1.53,3.566-3.171
	c0-3.459-4.954-2.899-4.954-5.321c0-1.324,1.082-1.929,2.041-1.929c1.035,0,1.688,0.384,2.341,0.813l0.525-1.004
	c-0.875-0.526-1.847-0.861-2.931-0.861c-1.96,0-3.346,1.195-3.346,2.9c0,3.857,4.859,2.71,4.859,5.513
	C53.687,63.397,52.794,64.179,51.504,64.179z M11.817,54.898c1.068,0,1.991,0.222,2.852,0.826l0.575-1.082
	c-1.067-0.574-2.119-0.892-3.426-0.892c-3.266,0-5.847,2.358-5.847,5.735c0,3.601,2.582,5.736,5.847,5.736
	c1.164,0,2.392-0.464,3.378-1.037l-0.542-0.973c-0.86,0.495-1.864,0.861-2.836,0.861c-2.565,0-4.38-2.038-4.38-4.588
	S9.252,54.898,11.817,54.898z M31.827,53.763c3.265,0,5.847,2.136,5.847,5.734c0,3.379-2.581,5.737-5.847,5.737
	s-5.847-2.136-5.847-5.737C25.98,56.122,28.561,53.763,31.827,53.763z M31.827,54.912c-2.565,0-4.382,2.039-4.382,4.586
	c0,2.55,1.817,4.589,4.382,4.589s4.38-2.039,4.38-4.589C36.207,56.951,34.393,54.912,31.827,54.912z M48.82,23.569
	c0,15.023-10.374,24.865-24.019,24.865C9.907,48.434,0,37.424,0,24.579C0,9.821,10.494,0.431,24.928,0.431
	C37.601,0.431,48.82,9.95,48.82,23.569z M42.213,24.11c0-5.596-1.019-10.31-4.521-14.831c-3.373-4.246-7.681-6.993-12.084-6.993
	c-11.862,0-18.818,9.418-18.818,23.102c0,13.681,9.05,21.098,18.212,21.098C38.042,46.486,42.682,31.517,42.213,24.11z
	 M91.013,65.006h5.83v-1.148h-4.428l0.032-3.836h4.189v-1.148H92.43l0.033-3.744h4.316v-1.147h-5.671L91.013,65.006z M174.265,2.634
	l0.57,0.886h-0.341l-0.531-0.873h-0.352V3.52h-0.304V1.505h0.767c0.479,0,0.711,0.176,0.711,0.574
	C174.785,2.44,174.561,2.597,174.265,2.634z M173.977,2.39c0.259,0,0.49-0.02,0.49-0.328c0-0.251-0.228-0.296-0.44-0.296h-0.416
	V2.39H173.977z M175.748,2.508c0,1.012-0.812,1.753-1.767,1.753c-0.961,0-1.775-0.741-1.775-1.753c0-1.003,0.814-1.742,1.775-1.742
	C174.936,0.766,175.748,1.505,175.748,2.508z M175.396,2.508c0-0.827-0.622-1.452-1.414-1.452c-0.8,0-1.424,0.625-1.424,1.452
	c0,0.841,0.624,1.46,1.424,1.46C174.773,3.969,175.396,3.35,175.396,2.508z M112.921,0L133.9,47.394h-5.615
	c0,0-3.593-8.242-6.286-14.37h-19.671c-2.352,5.927-5.981,14.37-5.981,14.37h-3.675L112.921,0z M120.89,30.688L111.94,9.62
	l-8.711,21.069L120.89,30.688L120.89,30.688z M112.058,65.006l0.095-9.877h3.488v-1.147h-8.346v1.147h3.486l-0.094,9.877H112.058z
	 M128.147,65.006l0.096-11.024h-1.369l-0.098,11.024H128.147z"/>
</svg>
