<?xml version="1.0" encoding="utf-8"?>
<!-- Generator: Adobe Illustrator 17.0.0, SVG Export Plug-In . SVG Version: 6.00 Build 0)  -->
<!DOCTYPE svg PUBLIC "-//W3C//DTD SVG 1.1//EN" "http://www.w3.org/Graphics/SVG/1.1/DTD/svg11.dtd">
<svg version="1.1" id="图层_1" xmlns="http://www.w3.org/2000/svg" xmlns:xlink="http://www.w3.org/1999/xlink" x="0px" y="0px"
	 width="173.12px" height="178.7px" viewBox="0 0 173.12 178.7" enable-background="new 0 0 173.12 178.7" xml:space="preserve">
<path fill="#C83C3C" d="M1.232,124.361c-8.164,10.729,24.84,53.678,81.806,54.332c56.965,0.654,94.287-40.596,89.703-53.691
	S16.113,104.801,1.232,124.361z M23.53,5.536c-1.086,0.342-1.842,0.898-2.333,1.663c0.491,0.765,1.247,1.32,2.333,1.663
	c23.425,7.382,102.634,7.382,126.059,0c1.086-0.343,1.842-0.898,2.332-1.663c-0.49-0.765-1.246-1.321-2.332-1.663
	C126.164-1.845,46.955-1.845,23.53,5.536z"/>
<path fill="#B01C1C" d="M23.53,5.536c-10.312,3.25,8.857,25.527,7.355,66.371c-0.58,15.789-1.589,29.915-2.846,41.215
	c12.103,21.668,104.938,21.667,117.04,0c-1.258-11.3-2.266-25.426-2.848-41.215c-1.5-40.844,17.67-63.121,7.357-66.371
	C126.164-1.845,46.956-1.845,23.53,5.536z"/>
<path fill="#FFFFFF" d="M28.04,113.123c-0.908,8.172-1.947,14.865-3.047,19.641c-7.203,31.273,130.335,31.273,123.134,0
	c-1.1-4.775-2.139-11.47-3.047-19.641C132.979,134.789,40.143,134.79,28.04,113.123z"/>
</svg>
