<?xml version="1.0" encoding="utf-8"?>
<!-- Generator: Adobe Illustrator 17.0.0, SVG Export Plug-In . SVG Version: 6.00 Build 0)  -->
<!DOCTYPE svg PUBLIC "-//W3C//DTD SVG 1.1//EN" "http://www.w3.org/Graphics/SVG/1.1/DTD/svg11.dtd">
<svg version="1.1"
	 id="svg2" xmlns:svg="http://www.w3.org/2000/svg" inkscape:export-xdpi="521" inkscape:export-filename="C:\Dokumente und Einstellungen\jischa\Desktop\symbole verkehr v4 2.png" xmlns:inkscape="http://www.inkscape.org/namespaces/inkscape" xmlns:rdf="http://www.w3.org/1999/02/22-rdf-syntax-ns#" xmlns:cc="http://creativecommons.org/ns#" xmlns:dc="http://purl.org/dc/elements/1.1/" xmlns:sodipodi="http://sodipodi.sourceforge.net/DTD/sodipodi-0.dtd" inkscape:export-ydpi="521" sodipodi:docname="symbole verkehr v 5 1.svg" inkscape:version="0.48.0 r9654"
	 xmlns="http://www.w3.org/2000/svg" xmlns:xlink="http://www.w3.org/1999/xlink" x="0px" y="0px" width="142.815px"
	 height="46.773px" viewBox="0 0 142.815 46.773" enable-background="new 0 0 142.815 46.773" xml:space="preserve">
<path id="path14182" inkscape:connector-curvature="0" fill="#08A1EF" d="M26.724,46.556c-1.007-0.458-1.725-1.567-1.725-2.662
	v-0.453l-10.803-0.038C4.144,43.367,3.346,43.349,2.72,43.146c-0.744-0.241-1.302-0.681-1.302-1.026c0-0.124,0.139-0.392,0.31-0.594
	l0.31-0.368l-0.351-0.569C1.222,39.834,0.999,38.247,1,35.712c0-2.502,0.218-4.054,0.722-5.163l0.388-0.854l-0.06-1.779
	c-0.069-2.117,0.128-3.561,0.736-5.37c0.331-0.986,0.391-1.316,0.34-1.877c-0.061-0.665-0.044-0.71,0.736-2.055l0.799-1.374
	l0.563-0.069c0.31-0.038,4.064-0.315,8.343-0.615s7.896-0.568,8.035-0.598c0.177-0.036,0.337-0.255,0.522-0.712
	c0.147-0.363,0.32-0.66,0.384-0.66c0.063,0,1.605-0.213,3.427-0.474c15.548-2.225,33.15-2.893,51.789-1.967l3.95,0.196l1.22,0.704
	l1.22,0.704l6.729-0.03l6.731-0.031l-2.325-1.399c-1.278-0.771-2.473-1.555-2.652-1.742c-0.437-0.455-0.417-0.816,0.068-1.273
	c0.218-0.205,2.776-1.8,5.686-3.544l5.289-3.171V1.681c0-0.808,0.028-0.905,0.344-1.222c0.408-0.408,0.818-0.531,1.405-0.421
	c0.794,0.148,1.119,0.733,1.127,2.025v0.614l5.108,3.052c5.938,3.549,5.964,3.565,6.258,4.013c0.425,0.647,0.089,0.943-3.468,3.06
	l-1.49,0.887l4.633,0.031l4.633,0.032v0.896v0.896h9.731h9.732l0.281,0.867c0.398,1.235,0.491,2.261,0.286,3.177
	c-0.161,0.72-0.155,0.796,0.136,1.717c0.524,1.658,0.707,3.161,0.907,7.465c0.067,1.449,0.211,3.226,0.318,3.95
	c0.25,1.685,0.28,5.534,0.053,6.663c-0.142,0.704-0.138,0.877,0.04,1.487c0.502,1.724-0.249,2.235-3.588,2.444
	c-0.988,0.062-4.979,0.113-8.871,0.115h-7.075l-0.069,0.591c-0.117,0.989-0.542,1.638-1.46,2.231c-0.279,0.18-0.573,0.23-1.316,0.23
	c-0.842,0-1.02-0.041-1.466-0.33c-0.278-0.181-0.649-0.544-0.823-0.807l-0.316-0.479h-3.86h-3.859l-0.15,0.363
	c-0.083,0.199-0.383,0.567-0.666,0.816c-0.857,0.755-1.935,0.935-2.921,0.486c-1.039-0.471-1.559-1.21-1.65-2.347l-0.061-0.756
	H74.538H43.549v0.509c-0.011,0.973-0.739,2.018-1.699,2.418c-0.596,0.248-1.599,0.231-2.189-0.039
	c-0.518-0.236-1.212-0.884-1.323-1.233c-0.065-0.205-0.303-0.218-3.998-0.218h-3.929l-0.069,0.277c-0.1,0.396-0.871,1.15-1.443,1.41
	c-0.268,0.122-0.757,0.222-1.087,0.222c-0.329,0-0.818-0.1-1.087-0.222L26.724,46.556z M16.966,29.487
	c0.224-0.132,0.52-0.392,0.658-0.577c0.24-0.322,0.253-0.496,0.284-3.711c0.036-3.775,0.011-3.94-0.798-4.478
	c-0.405-0.271-0.425-0.271-4.979-0.271c-6.232,0-5.806-0.338-5.806,4.608c0,2.84,0.026,3.281,0.21,3.642
	c0.25,0.491,0.69,0.835,1.241,0.97c0.223,0.055,2.289,0.089,4.594,0.077C16.323,29.727,16.582,29.711,16.966,29.487L16.966,29.487z
	 M38.444,29.383c1.162-0.571,1.155-0.547,1.156-4.329c0-3.478,0-3.48-0.654-4.031c-0.661-0.557-0.898-0.573-8.023-0.573
	s-7.362,0.017-8.023,0.573c-0.654,0.551-0.654,0.554-0.654,4.035c0,2.855,0.023,3.273,0.204,3.534c0.393,0.57,1.01,0.912,1.95,1.078
	c0.296,0.052,3.42,0.086,6.942,0.075l6.403-0.02L38.444,29.383L38.444,29.383L38.444,29.383z M57.196,29.555
	c0.231-0.09,0.595-0.291,0.809-0.45c0.725-0.538,0.748-0.663,0.748-4.083c0-3.607-0.012-3.646-1.196-4.247L56.9,20.442l-7.003,0.034
	l-7.004,0.033l-0.528,0.3c-1.042,0.591-1.027,0.529-1.027,4.249c0,3.133,0.011,3.289,0.25,3.612
	c0.342,0.462,1.141,0.886,1.884,0.999c0.341,0.052,3.474,0.084,6.963,0.07C55.423,29.721,56.867,29.682,57.196,29.555L57.196,29.555
	z M75.617,29.487c0.224-0.132,0.519-0.392,0.658-0.577c0.24-0.322,0.254-0.496,0.284-3.711c0.036-3.775,0.012-3.94-0.798-4.478
	c-0.405-0.271-0.425-0.271-4.968-0.271c-4.316,0-4.581,0.014-4.944,0.235c-0.212,0.128-0.494,0.449-0.629,0.713
	c-0.228,0.446-0.244,0.693-0.244,3.687c0,2.895,0.022,3.249,0.222,3.622c0.269,0.502,0.689,0.831,1.229,0.963
	c0.223,0.055,2.29,0.09,4.594,0.077C74.975,29.727,75.233,29.712,75.617,29.487L75.617,29.487z M98.971,29.556
	c0.23-0.089,0.594-0.292,0.809-0.451c0.725-0.538,0.747-0.663,0.747-4.083c0-3.607-0.011-3.646-1.195-4.247l-0.657-0.333
	l-7.003,0.034l-7.004,0.034l-0.528,0.299c-1.043,0.591-1.027,0.529-1.027,4.249c0,3.133,0.011,3.289,0.25,3.612
	c0.342,0.463,1.141,0.887,1.884,0.999c0.341,0.052,3.474,0.084,6.963,0.071C97.222,29.723,98.64,29.684,98.971,29.556L98.971,29.556
	z M119.135,29.367c1.23-0.62,1.202-0.518,1.202-4.293c0-3.706,0.016-3.641-0.986-4.229l-0.57-0.335l-6.971-0.033
	c-6.858-0.033-6.982-0.03-7.558,0.218c-0.321,0.139-0.739,0.413-0.928,0.609l-0.344,0.358l-0.036,3.334l-0.034,3.334l0.365,0.415
	c0.427,0.486,1.007,0.787,1.783,0.923c0.306,0.054,3.436,0.09,6.959,0.078l6.404-0.019L119.135,29.367L119.135,29.367z
	 M136.304,29.487c0.224-0.132,0.52-0.392,0.658-0.577c0.24-0.322,0.254-0.496,0.285-3.711c0.037-3.77,0.011-3.919-0.811-4.479
	c-0.392-0.268-0.422-0.27-4.968-0.27c-6.231,0-5.805-0.338-5.805,4.608c0,2.841,0.025,3.281,0.209,3.642
	c0.25,0.491,0.69,0.835,1.241,0.97c0.223,0.055,2.29,0.089,4.594,0.077C135.661,29.727,135.921,29.712,136.304,29.487
	L136.304,29.487z M113.57,11.939c1.661-0.994,2.975-1.852,2.918-1.905c-0.186-0.178-10.111-6.103-10.225-6.103
	c-0.061,0-0.111,0.048-0.111,0.106s-0.195,0.199-0.435,0.313c-0.525,0.249-1.143,0.178-1.639-0.189
	c-0.242-0.18-0.409-0.225-0.56-0.153c-0.521,0.249-9.809,5.855-9.811,5.923c0,0.041,1.404,0.917,3.125,1.945l3.13,1.87h5.294h5.293
	L113.57,11.939L113.57,11.939z"/>
</svg>
