<?xml version="1.0" encoding="utf-8"?>
<!-- Generator: Adobe Illustrator 17.0.0, SVG Export Plug-In . SVG Version: 6.00 Build 0)  -->
<!DOCTYPE svg PUBLIC "-//W3C//DTD SVG 1.1//EN" "http://www.w3.org/Graphics/SVG/1.1/DTD/svg11.dtd">
<svg version="1.1" id="objects" xmlns="http://www.w3.org/2000/svg" xmlns:xlink="http://www.w3.org/1999/xlink" x="0px" y="0px"
	 width="104.032px" height="167.143px" viewBox="0 0 104.032 167.143" enable-background="new 0 0 104.032 167.143"
	 xml:space="preserve">
<path fill="#8B5E3C" d="M58.223,167.144H45.809V99.84h12.414V167.144z"/>
<path fill="#7CB342" d="M104.032,90.069c0,28.728-23.288,52.016-52.016,52.016C23.288,142.085,0,118.797,0,90.069
	c0-18.17,9.318-34.161,23.434-43.463c-2.225-4.365-3.487-9.303-3.487-14.538C19.947,14.357,34.305,0,52.016,0
	s32.069,14.357,32.069,32.068c0,5.235-1.263,10.173-3.487,14.538C94.714,55.908,104.032,71.899,104.032,90.069z"/>
<path opacity="0.39" fill="#FFFFFF" enable-background="new    " d="M52.016,0v99.84v42.245v25.059h-6.207v-25.44
	C20.009,138.634,0,116.695,0,90.069c0-18.17,9.318-34.161,23.434-43.463c-2.225-4.365-3.487-9.303-3.487-14.538
	C19.947,14.357,34.305,0,52.016,0z"/>
</svg>
