<?xml version="1.0" encoding="utf-8"?>
<!-- Generator: Adobe Illustrator 17.0.0, SVG Export Plug-In . SVG Version: 6.00 Build 0)  -->
<!DOCTYPE svg PUBLIC "-//W3C//DTD SVG 1.1//EN" "http://www.w3.org/Graphics/SVG/1.1/DTD/svg11.dtd">
<svg version="1.1" id="图层_1" xmlns="http://www.w3.org/2000/svg" xmlns:xlink="http://www.w3.org/1999/xlink" x="0px" y="0px"
	 width="32px" height="37px" viewBox="0 0 32 37" enable-background="new 0 0 32 37" xml:space="preserve">
<path fill="#4DCC46" d="M30,25c-1.255,0-2-0.737-2-2v-9c0-1.264,0.745-2,2-2c1.254,0,2.002,0.567,2.002,1.831v8.976
	C32.002,24.07,31.254,25,30,25z M24,30h-2v5c0,1.263-0.745,1.989-2,2c-1.246,0.01-1.997-0.719-2.041-2.037
	C17.811,34.776,18,30,18,30h-4v5c0,1.263-0.766,2.013-2.021,2.013S10,36.263,10,35v-5H8c-0.978,0-2-1.029-2-2V12h20v16
	C26,28.971,24.978,30,24,30z M11.182,3.212L9.313,0.524C9.204,0.366,9.232,0.155,9.376,0.057c0.145-0.1,0.352-0.05,0.464,0.109L12,3
	c1.277-0.5,2.477-0.821,3.974-0.821C17.47,2.179,18.723,2.5,20,3l2.109-2.834c0.111-0.159,0.318-0.209,0.463-0.109
	c0.144,0.098,0.172,0.309,0.062,0.467l-1.869,2.688C23.735,4.58,25.735,6.965,26,10H6C6.265,6.965,8.212,4.58,11.182,3.212z M20,7
	c0.623,0,1-0.449,1-1c0-0.552-0.377-1-1-1c-0.622,0-1,0.448-1,1C19,6.551,19.378,7,20,7z M12,7c0.623,0,1-0.449,1-1
	c0-0.552-0.377-1-1-1c-0.622,0-1.003,0.456-1.003,1.008C10.997,6.559,11.378,7,12,7z M20.967-0.611l0.006,0.003
	c-0.002,0.001-0.003,0.002-0.005,0.002L20.967-0.611z M2,25c-1.254,0-2.002-0.912-2.002-2.174v-8.937C-0.002,12.626,0.746,12,2,12
	c1.255,0,2,0.736,2,2v9C4,24.263,3.255,25,2,25z"/>
</svg>
