<?xml version="1.0" encoding="utf-8"?>
<!-- Generator: Adobe Illustrator 17.0.0, SVG Export Plug-In . SVG Version: 6.00 Build 0)  -->
<!DOCTYPE svg PUBLIC "-//W3C//DTD SVG 1.1//EN" "http://www.w3.org/Graphics/SVG/1.1/DTD/svg11.dtd">
<svg version="1.1" id="Layer_1" xmlns="http://www.w3.org/2000/svg" xmlns:xlink="http://www.w3.org/1999/xlink" x="0px" y="0px"
	 width="103.687px" height="88.192px" viewBox="0 0 103.687 88.192" enable-background="new 0 0 103.687 88.192"
	 xml:space="preserve">
<path fill="#05758A" d="M66.697,12.571c-0.257,1.031-0.513,2.067-0.788,3.093c-7.81-0.784-16.084-1.48-23.499,1.765
	c-0.376-1.054-0.752-2.163-1.137-3.195c3.684-2.488,8.14-3.451,12.5-3.762c-0.183-0.587-0.33-1.21-0.523-1.792
	c-2.83-0.761-4.278-4.496-2.427-6.87c1.73-2.672,6.231-2.315,7.542,0.6c1.411,2.585-0.559,6.091-3.447,6.361
	c0.183,0.545,0.358,1.114,0.522,1.659C59.291,10.408,63.159,10.994,66.697,12.571z M99.456,22.369
	c-1.164,0.587-1.384,2.017-1.329,3.195c-1.301,1.256-0.678,3.185-0.816,4.753c-0.293,0.894-1.357,1.004-2.099,1.347
	c-1.026-1.581-2.108-3.071-3.501-4.349l0.028-0.074c-1.503-1.389-3.117-2.658-4.812-3.772c-1.357,1.458-2.796,2.91-4.106,4.418
	c2.594,2.865,5.005,5.972,7.131,9.189c1.476,2.466,2.64,5.092,3.676,7.773c2.191-1.141,4.372-2.319,6.572-3.465
	c-1.164-2.681-2.484-5.307-3.895-7.869c0.962-0.522,2.282-1.026,2.42-2.305c0.11-1.407-0.183-2.924,0.632-4.157
	c1.714,1.095,4.299-0.133,4.318-2.195C103.902,22.695,101.216,21.169,99.456,22.369z M93.819,52.911
	c-9.258,5.426-19.652,8.758-30.248,10.174c-7.727,1.063-15.525,0.88-23.307,0.637c-7.855-0.358-15.619-2.053-23.245-3.955
	c-1.375-6.971-1.43-14.528,1.632-21.064c3.162-7.273,9.431-12.938,16.627-16.1c7.635-3.327,16.041-4.638,24.334-4.565
	c6.572-0.032,12.906,2.864,17.754,7.154c4.226,3.648,7.323,8.382,10.183,13.139C92.527,45.94,93.819,52.911,93.819,52.911z
	 M51.676,37.489c-0.77-2.681-2.447-5.041-4.721-6.636c-1.1-0.724-2.264-1.329-3.538-1.641c-3.071-0.857-6.443-0.587-9.23,0.917
	c-3.676,1.952-6.26,5.857-6.443,10.036c-0.238,3.364,1.091,6.673,3.327,9.139c3.218,3.547,8.635,4.693,13.107,3.029
	c2.365-0.907,4.436-2.521,5.876-4.597C52.041,44.758,52.719,40.912,51.676,37.489z M77.366,31.723
	c-1.549-0.376-3.199-0.619-4.757-0.179c-3.556,0.862-6.114,4.615-5.618,8.231c0.146,1.705,0.99,3.167,2.025,4.45
	c1.439,1.503,3.474,2.498,5.591,2.314c3.657,0.229,7.076-2.782,7.608-6.375C82.884,36.682,80.694,32.892,77.366,31.723z
	 M18.743,27.718c-3.098,1.865-5.646,4.509-7.78,7.411c-0.623-1.164-0.807-2.53-1.613-3.566c-0.458-0.605-1.292-0.353-1.925-0.353
	c-0.834,0.069-1.632-0.151-2.411-0.38c0.917-1.269,0.669-3.231-0.715-4.079c-1.485-1.049-3.786-0.138-4.189,1.636
	c-0.614,1.929,1.439,3.877,3.336,3.364c1.017,1.494,2.842,1.255,4.391,1.297c0.687,1.219,1.228,2.539,2.126,3.635
	C8.296,39.959,7.352,43.63,7.27,47.301c2.145,0.899,4.289,1.806,6.423,2.704c0.101-2.337,0.385-4.638,0.724-6.897
	c0.715-5.009,3.593-9.322,7.012-12.883C20.585,29.331,19.632,28.556,18.743,27.718z M68.64,65.252
	c-7.873,1.719-15.985,2.228-24.021,1.875c-5.435-0.257-10.88-0.78-16.178-1.957c-3.767-0.765-7.461-1.861-11.182-2.924
	c0.605,4.725,2.521,9.253,5.252,13.158c3.226,4.532,7.544,8.68,12.906,10.367c4.18,1.141,9.166,2.562,17.78,2.411
	c7.113-0.11,14.097-1.013,20.33-3.689c4.024-1.719,7.782-4.07,11.036-7.026c2.796-2.64,4.996-5.935,6.499-9.45
	c1.467-3.35,2.796-9.331,2.658-12.415C86.01,59.987,77.421,63.79,68.64,65.252z"/>
</svg>
