<?xml version="1.0" encoding="utf-8"?>
<!-- Generator: Adobe Illustrator 17.0.0, SVG Export Plug-In . SVG Version: 6.00 Build 0)  -->
<!DOCTYPE svg PUBLIC "-//W3C//DTD SVG 1.1//EN" "http://www.w3.org/Graphics/SVG/1.1/DTD/svg11.dtd">
<svg version="1.1" id="图层_1" xmlns="http://www.w3.org/2000/svg" xmlns:xlink="http://www.w3.org/1999/xlink" x="0px" y="0px"
	 width="145.954px" height="46.866px" viewBox="0 0 145.954 46.866" enable-background="new 0 0 145.954 46.866"
	 xml:space="preserve">
<path fill="#070707" d="M65.621,7.717C66,8.08,66.419,8.263,66.871,8.263c0.455,0,0.854-0.021,1.199-0.061
	c0.342-0.039,0.606-0.062,0.786-0.062c0.583,0,1.075,0.142,1.485,0.424c0.406,0.281,0.609,0.644,0.609,1.093
	c0,0.215-0.039,0.365-0.121,0.447c-0.082,0.085-0.422,0.215-1.021,0.398c-1.104,0.331-2.291,0.974-3.562,1.926
	c-1.268,0.952-2.256,2.008-2.964,3.17c-0.687,2.733-1.433,4.389-2.231,4.967c-0.796,0.583-2.347,0.87-4.649,0.87
	c-0.925,0-1.387-0.181-1.387-0.546c0-0.215,0.189-0.537,0.57-0.97c0.381-0.429,0.658-0.646,0.83-0.646
	c0.17,0,0.259,0.059,0.259,0.176c0,0.116-0.015,0.224-0.042,0.321c-0.027,0.101-0.041,0.216-0.041,0.349
	c0,0.132,0.072,0.198,0.218,0.198s0.567-0.198,1.267-0.596c0.695-0.398,1.227-0.854,1.588-1.366
	c0.363-0.514,0.701-1.251,1.008-2.214c-1.541-0.346-2.569-0.833-3.087-1.452c-0.517-0.622-0.775-1.025-0.775-1.205
	c0-0.181,0.1-0.272,0.299-0.272c1.524-0.051,3.246-0.757,5.167-2.113c0.326-1.11,0.689-2.7,1.088-4.773
	c-0.833-1.026-1.25-1.755-1.25-2.188c0-0.497,0.309-0.746,0.925-0.746c0.452,0,1.085,0.168,1.892,0.5
	c0.805,0.331,1.208,0.835,1.208,1.516C66.138,5.655,65.967,6.426,65.621,7.717L65.621,7.717z M63.392,5.579
	c0.018-0.496-0.064-0.746-0.245-0.746c-0.091,0-0.137,0.076-0.137,0.225S63.137,5.381,63.392,5.579L63.392,5.579z M66.301,8.861
	c-0.254-0.247-0.545-0.424-0.87-0.524c-0.072,0.314-0.172,0.689-0.299,1.12C65.331,9.324,65.722,9.127,66.301,8.861L66.301,8.861z
	 M66.545,16.688c-0.578,0-1.273,0.046-2.08,0.139c-0.807,0.089-1.211,0.17-1.211,0.232c0,0.053,0.109,0.086,0.328,0.103
	c0.906,0.098,1.523,0.201,1.849,0.311c0.325,0.106,0.68,0.311,1.062,0.607c0.998,0.813,2.016,1.558,3.059,2.236
	c1.043,0.68,1.821,1.152,2.34,1.418c0.517,0.265,0.865,0.397,1.047,0.397c0.436,0,0.654-0.347,0.654-1.031
	c0-0.688-0.133-1.251-0.395-1.689c-0.264-0.44-0.703-0.833-1.32-1.181c-0.617-0.349-1.541-0.692-2.775-1.032
	C67.869,16.858,67.018,16.688,66.545,16.688L66.545,16.688z M87.17,1.828c0.092,0,0.199,0.065,0.327,0.199
	c0.325,0.349,0.707,0.553,1.142,0.618c0.199,0.035,0.5,0.202,0.896,0.5c0.4,0.299,0.6,0.651,0.6,1.056s-0.23,0.718-0.695,0.943
	c-0.46,0.223-0.91,0.559-1.345,1.006c-0.435,0.45-1.124,1.285-2.068,2.511c-1.231,1.606-2.405,2.816-3.521,3.628
	c-1.115,0.814-1.846,1.218-2.189,1.218c-0.125,0-0.25-0.11-0.367-0.334c-0.119-0.225-0.177-0.39-0.177-0.499
	c0-0.108,0.031-0.194,0.096-0.259c0.063-0.067,0.132-0.092,0.203-0.074h0.19c0.219,0,0.555-0.374,1.006-1.118
	c0.455-0.746,1.398-2.123,2.83-4.128c1.433-2.003,2.303-3.25,2.609-3.739c0.31-0.487,0.439-0.805,0.396-0.943
	c-0.046-0.142-0.068-0.275-0.068-0.398C87.034,1.889,87.08,1.828,87.17,1.828L87.17,1.828z M84.695,11.917
	c0.835-0.381,1.486-0.613,1.957-0.694c0.472-0.084,1.301-0.125,2.49-0.125c1.188,0,2.1,0.032,2.732,0.099
	c0.164,0.018,0.309,0.026,0.436,0.026c0.508,0,0.947-0.155,1.318-0.46c0.373-0.307,0.559-0.609,0.559-0.907
	c0-0.299-0.046-0.531-0.137-0.695c-0.092-0.167-0.371-0.382-0.844-0.648c-0.471-0.265-0.92-0.46-1.346-0.584
	c-0.427-0.124-0.801-0.185-1.127-0.185c-0.055,0-0.455,0.04-1.199,0.123c-0.743,0.082-1.322,0.131-1.738,0.148
	c-0.418,0.018-0.627,0.101-0.627,0.248c0,0.15,0.146,0.265,0.435,0.352c0.07,0.014,0.331,0.171,0.775,0.469
	c0.443,0.301,0.666,0.503,0.666,0.609c0,0.109-0.264,0.252-0.789,0.437c-1.36,0.464-2.213,0.791-2.558,0.98
	C85.357,11.3,85.023,11.569,84.695,11.917L84.695,11.917z M90.324,17.41c0.199-0.598,0.468-1.173,0.803-1.728
	c0.337-0.557,0.635-0.921,0.898-1.095c0.262-0.173,0.395-0.4,0.395-0.682c0-0.433-0.281-0.855-0.844-1.27
	c-0.562-0.411-1.162-0.62-1.796-0.62c-0.216,0-0.388,0.05-0.515,0.148c-0.127,0.1-0.273,0.25-0.435,0.448
	c0.309,0.017,0.463,0.153,0.463,0.409c0,0.257-0.368,1.098-1.103,2.523c-0.735,1.426-1.518,2.709-2.353,3.852
	c-0.146-0.379-0.38-0.679-0.706-0.892c-0.164-0.102-0.246-0.199-0.246-0.299c0-0.382-0.031-0.572-0.095-0.572
	s-0.177,0.15-0.341,0.447c-0.055,0.1-0.204,0.15-0.446,0.15c-0.245,0-0.523-0.035-0.83-0.101c0.271-0.463,0.548-0.864,0.83-1.205
	c0.278-0.34,0.501-0.535,0.666-0.584c0.161-0.05,0.334-0.183,0.515-0.396c0.182-0.215,0.273-0.416,0.273-0.598
	c0-0.183-0.1-0.401-0.299-0.658c-0.199-0.259-0.59-0.462-1.17-0.609c-0.182-0.051-0.271-0.24-0.271-0.572
	c0-0.331,0.2-0.735,0.598-1.218c-0.364,0.298-0.666,0.618-0.912,0.957c-0.243,0.342-0.81,1.23-1.697,2.673
	c-0.889,1.441-1.535,2.436-1.933,2.983c-0.399,0.546-1.034,1.29-1.905,2.235c-0.16,0.183-0.244,0.39-0.244,0.62
	c0,0.232,0.065,0.465,0.189,0.696c0.129,0.232,0.292,0.349,0.49,0.349c0.055,0,0.105-0.008,0.15-0.025
	c0.045-0.018,0.236-0.152,0.571-0.409c0.335-0.259,0.711-0.583,1.128-0.971c0.418-0.39,0.818-0.79,1.197-1.205
	c0.381-0.413,0.752-0.836,1.115-1.269c1.287,1.127,2.076,1.923,2.365,2.388c0.109,0.166,0.309,0.246,0.6,0.246
	s0.648-0.125,1.074-0.384c0.426-0.259,1.029-0.747,1.809-1.479c0.779-0.728,1.379-1.358,1.795-1.889
	c0.383,0.167,1.063,0.746,2.039,1.74c0.273,0.281,0.836,0.604,1.688,0.969c0.254,0.116,0.775,0.396,1.562,0.847
	c0.791,0.446,1.289,0.731,1.496,0.855c0.209,0.124,0.549,0.189,1.019,0.189c0.182,0,0.295-0.08,0.341-0.238
	c0.046-0.157,0.069-0.534,0.069-1.13c0-0.597-0.102-1.062-0.3-1.392c-0.198-0.332-0.622-0.65-1.265-0.957
	c-0.645-0.307-1.598-0.6-2.856-0.882c-1.259-0.281-2.29-0.425-3.086-0.425C90.615,17.382,90.452,17.392,90.324,17.41L90.324,17.41z
	 M112.092,10.723c0.725-0.561,1.378-0.844,1.958-0.844c0.579,0,1.192,0.232,1.836,0.698c0.643,0.463,0.966,1.033,0.966,1.712
	c0,0.298-0.074,0.532-0.219,0.697c-1.033,1.11-1.55,1.889-1.55,2.336c0,0.165,0.042,0.334,0.122,0.511
	c0.08,0.172,0.121,0.318,0.121,0.433c0,0.316-0.189,0.471-0.57,0.471c-0.089,0-0.186-0.012-0.285-0.033
	c-0.099-0.026-0.238-0.039-0.421-0.039c-0.526,0-1.179,0.104-1.958,0.31c-0.779,0.207-1.541,0.493-2.284,0.858
	c-0.019,0.398-0.132,0.597-0.34,0.597c-0.21,0-0.659-0.299-1.347-0.895c-0.563,0.033-1.074,0.169-1.535,0.41
	c-0.465,0.239-0.728,0.36-0.791,0.36s-0.094-0.009-0.094-0.026c0-0.163,0.706-0.619,2.121-1.365c-0.2-1.476-0.359-2.449-0.475-2.921
	c-0.119-0.471-0.26-0.751-0.424-0.832c-0.326-0.182-0.603-0.506-0.829-0.97c-0.228-0.465-0.34-0.816-0.34-1.056
	c0-0.241,0.116-0.359,0.352-0.359c0.145,0,0.291,0.064,0.436,0.197c0.145,0.134,0.316,0.209,0.516,0.224
	c0.199,0.018,0.486,0.142,0.859,0.373c0.371,0.231,0.666,0.472,0.882,0.72c0.273,0,0.571-0.133,0.898-0.395
	c-0.489-0.364-1.023-0.599-1.604-0.697c-0.146-0.032-0.218-0.078-0.218-0.136s0.138-0.088,0.407-0.088c1.234,0,1.85-0.628,1.85-1.89
	c0-0.264-0.027-0.77-0.082-1.516s-0.116-1.274-0.189-1.59c-0.072-0.313-0.217-0.579-0.434-0.796
	c-0.219-0.216-0.395-0.55-0.531-1.006c-0.137-0.455-0.205-0.779-0.205-0.969c0-0.19,0.113-0.285,0.342-0.285
	c0.225,0,0.781,0.181,1.671,0.546c0.888,0.365,1.456,0.658,1.7,0.882c0.244,0.224,0.412,0.549,0.503,0.982
	c0.89-0.214,1.601-0.324,2.134-0.324c0.536,0,0.998,0.212,1.39,0.636c0.388,0.42,0.583,0.797,0.583,1.128
	c0,0.332-0.162,0.602-0.49,0.81c-0.324,0.206-0.853,0.492-1.589,0.857c-0.735,0.365-1.446,0.58-2.137,0.646
	C112.725,9.681,112.491,10.227,112.092,10.723L112.092,10.723z M109.645,15.742c1.794-0.411,2.894-0.9,3.304-1.463
	c0.409-0.564,0.612-0.921,0.612-1.068c0-0.15-0.059-0.225-0.178-0.225c-0.117,0-0.281,0.045-0.488,0.136
	c-0.211,0.092-0.572,0.181-1.09,0.261c-0.516,0.084-0.896,0.124-1.141,0.124c-0.244,0-0.449-0.016-0.613-0.05
	c-0.162-0.03-0.306-0.048-0.434-0.048s-0.227,0.04-0.299,0.124C109.445,13.963,109.554,14.701,109.645,15.742L109.645,15.742z
	 M103.47,20.293c-0.054-0.432-0.104-0.762-0.149-0.994c-0.045-0.233-0.127-0.349-0.244-0.349c-0.117,0-0.326,0.174-0.625,0.521
	c-0.3,0.349-0.449,0.771-0.449,1.269c0,0.496,0.121,0.976,0.365,1.441c0.246,0.463,0.477,0.694,0.695,0.694
	c0.217,0,0.436-0.099,0.652-0.298c1.234-1.042,2.013-1.687,2.338-1.924c0.328-0.242,0.562-0.361,0.708-0.361
	c0.235,0,0.581,0.297,1.034,0.895c0.252,0.331,0.625,0.497,1.114,0.497c0.362,0,0.616-0.099,0.761-0.299
	c0.326-0.381,0.853-0.841,1.579-1.379c0.726-0.54,1.128-0.807,1.21-0.807c0.08,0,0.168,0.09,0.259,0.271
	c0.652,1.194,1.358,1.79,2.12,1.79c0.273,0,0.517-0.084,0.734-0.248c0.654-0.498,1.383-0.948,2.189-1.353
	c0.807-0.408,1.293-0.61,1.455-0.61c0.199,0,0.301,0.14,0.301,0.422c0,0.283-0.088,0.505-0.26,0.67
	c-0.172,0.166-0.604,0.351-1.291,0.548c-0.309,0.099-0.463,0.216-0.463,0.349c0,0.067,0.036,0.126,0.107,0.174
	c0.072,0.05,0.285,0.118,0.64,0.212c0.354,0.092,0.866,0.169,1.538,0.234c0.67,0.067,1.088,0.1,1.251,0.1
	c0.507,0,0.763-0.248,0.763-0.744c0-0.928-0.264-1.637-0.791-2.125c-0.525-0.489-0.982-0.734-1.373-0.734s-0.91,0.1-1.564,0.3
	c-1.197,0.381-2.112,0.57-2.748,0.57c-0.632,0-1.137-0.104-1.506-0.311c-0.373-0.208-0.75-0.312-1.131-0.312
	c-0.561,0-1.219,0.199-1.971,0.598c-0.754,0.396-1.393,0.596-1.919,0.596c-0.271,0-0.493-0.068-0.666-0.21
	c-0.171-0.142-0.481-0.211-0.923-0.211c-0.445,0-0.804,0.065-1.075,0.199C105.048,19.886,104.16,20.192,103.47,20.293L103.47,20.293
	z M129.941,4.511c-0.436-0.413-0.766-0.833-0.993-1.255c-0.226-0.422-0.341-0.696-0.341-0.82c0-0.124,0.156-0.185,0.463-0.185
	c1.035,0,1.977,0.145,2.828,0.434c0.854,0.291,1.28,0.85,1.28,1.68c0,0.596-0.417,1.026-1.253,1.292
	c-0.979,0.315-2.002,0.679-3.073,1.095c-1.612,0.646-2.646,0.967-3.1,0.967c-0.056,0-0.082-0.017-0.082-0.05
	c0-0.048,0.191-0.181,0.571-0.397C127.24,6.706,128.473,5.786,129.941,4.511L129.941,4.511z M139.352,11.569
	c0-0.214,0.032-0.373,0.096-0.472c0.062-0.101,0.334-0.308,0.815-0.621c0.481-0.315,0.953-0.697,1.414-1.143
	c0.463-0.448,0.735-0.733,0.816-0.858c0.082-0.124,0.123-0.263,0.123-0.41c0-0.414-0.25-0.803-0.748-1.169
	c-0.499-0.364-0.947-0.545-1.346-0.545c-0.4,0-0.879,0.121-1.441,0.372c-0.02-0.198-0.038-0.564-0.055-1.094
	c0.942-0.396,1.754-0.773,2.434-1.131c0.68-0.357,1.02-0.646,1.02-0.87c0-0.223-0.154-0.48-0.463-0.77
	c-0.308-0.291-0.807-0.435-1.494-0.435c-0.271,0-0.825,0.141-1.658,0.424c-0.835,0.28-1.986,0.712-3.456,1.29
	c-0.072,0.018-0.163,0.025-0.273,0.025c-0.107,0-0.254-0.025-0.434-0.073c-0.18-0.051-0.33-0.074-0.448-0.074
	c-0.117,0-0.177,0.09-0.177,0.271c0,0.183,0.101,0.466,0.3,0.846c0.199,0.381,0.544,0.786,1.032,1.219
	c-0.634,0.381-1.155,0.811-1.563,1.291c-0.406,0.481-0.738,0.877-0.99,1.194c-0.256,0.313-0.383,0.575-0.383,0.78
	c0,0.209,0.064,0.38,0.19,0.512c0.127,0.131,0.192,0.33,0.192,0.594c0,0.335,0.094,0.604,0.284,0.811
	c0.19,0.206,0.421,0.309,0.692,0.309c0.273,0,0.521-0.104,0.748-0.309c0.227-0.207,1.057-1,2.488-2.373
	c-0.035,0.545-0.054,1.209-0.054,1.986c-0.925,0.679-1.776,1.213-2.558,1.604c-0.779,0.389-1.35,0.582-1.711,0.582
	c-0.074,0-0.15-0.016-0.231-0.048c-0.083-0.035-0.179-0.05-0.286-0.05c-0.328,0-0.67,0.329-1.033,0.991
	c-0.635,1.129-1.008,1.692-1.115,1.692c-0.055,0-0.082-0.159-0.082-0.473c0-0.314,0.082-1.052,0.245-2.211
	c0.162-1.16,0.416-2.229,0.763-3.206c0.07-0.2,0.107-0.398,0.107-0.597c0-0.447-0.178-0.824-0.531-1.134
	c-0.354-0.305-0.698-0.457-1.033-0.457c-0.334,0-0.608,0.102-0.817,0.297c-0.208,0.198-0.639,0.449-1.293,0.746
	c-1.432,0.647-2.359,1.115-2.785,1.403c-0.427,0.292-0.717,0.435-0.871,0.435c-0.152,0-0.326-0.093-0.518-0.284
	c-0.189-0.19-0.316-0.285-0.38-0.285c-0.063,0-0.095,0.044-0.095,0.135c0,0.092,0.19,0.495,0.572,1.207
	c0.379,0.713,0.814,1.196,1.305,1.453c0.49,0.258,0.879,0.385,1.168,0.385s0.606-0.122,0.953-0.372
	c0.344-0.25,0.712-0.585,1.1-1.006c0.393-0.422,0.613-0.635,0.666-0.635c0.055,0,0.082,0.045,0.082,0.139
	c0,0.09-0.043,0.275-0.135,0.558c-0.163,0.548-0.244,2.227-0.244,5.043c0,0.732,0.035,1.232,0.107,1.505
	c0.072,0.273,0.322,0.699,0.748,1.281c0.428,0.581,0.744,0.87,0.951,0.87s0.314-0.224,0.314-0.672s0.014-0.754,0.041-0.92
	c0.027-0.167,0.148-0.539,0.367-1.118c0.219-0.58,0.653-1.707,1.305-3.38c0.58,0.564,1.027,0.845,1.348,0.845
	c0.316,0,0.656-0.09,1.018-0.273c1.143-0.564,1.985-0.954,2.529-1.17c0.018,3.282,0.113,5.936,0.287,7.966
	c0.172,2.031,0.381,3.046,0.626,3.046c0.245,0,0.558-0.949,0.938-2.847c0.381-1.896,0.59-4.812,0.626-8.736
	c0.852-0.065,1.504-0.099,1.958-0.099s0.798,0.059,1.032,0.175c0.236,0.115,0.709,0.173,1.415,0.173c1.233,0,1.85-0.185,1.85-0.56
	c0-0.371-0.214-0.796-0.64-1.266c-0.426-0.474-1.064-0.71-1.916-0.71l-1.008,0.025c-0.436,0-0.738-0.05-0.911-0.149
	c-0.171-0.1-0.28-0.147-0.325-0.147c-0.046,0-0.069,0.015-0.069,0.048c0,0.034,0.036,0.093,0.109,0.174
	c0.073,0.084,0.11,0.153,0.11,0.214c0,0.057-0.115,0.104-0.341,0.134C140.498,11.504,140.039,11.536,139.352,11.569L139.352,11.569z
	 M137.122,7.642c-0.165-0.513-0.255-0.871-0.272-1.069c-0.182,0.018-0.354,0.026-0.518,0.026c-0.162,0-0.371-0.041-0.625-0.127
	c-0.835,0.433-1.464,0.905-1.889,1.418c-0.427,0.512-0.64,0.917-0.64,1.206c0,0.29,0.136,0.435,0.405,0.435
	c0.201,0,0.418-0.074,0.654-0.223C135.199,8.679,136.162,8.123,137.122,7.642L137.122,7.642z M139.186,8.959
	c-0.052-0.646-0.08-1.108-0.08-1.392c0.453-0.248,0.743-0.37,0.87-0.37c0.129,0,0.189,0.048,0.189,0.146
	c0,0.101-0.084,0.312-0.256,0.634C139.737,8.299,139.496,8.628,139.186,8.959z M61.545,26.981v6.464c0,0.66-0.033,1.152-0.103,1.482
	c-0.066,0.33-0.18,0.632-0.336,0.906c-0.335,0.631-0.819,1.121-1.456,1.478c-0.632,0.354-1.334,0.531-2.103,0.531
	c-1.16,0-2.115-0.36-2.87-1.08c-0.758-0.725-1.136-1.638-1.136-2.74c0-0.497,0.092-0.967,0.277-1.417
	c0.184-0.447,0.451-0.851,0.806-1.207c0.355-0.366,0.784-0.654,1.28-0.855c0.5-0.203,1.02-0.304,1.561-0.304
	c0.395,0,0.774,0.039,1.133,0.123s0.703,0.21,1.027,0.378v1.418c-0.33-0.231-0.66-0.402-0.986-0.512
	c-0.326-0.109-0.666-0.166-1.013-0.166c-0.763,0-1.391,0.245-1.884,0.727c-0.492,0.486-0.738,1.107-0.738,1.866
	c0,0.743,0.236,1.354,0.719,1.826c0.479,0.472,1.09,0.707,1.839,0.707c0.753,0,1.365-0.236,1.837-0.716
	c0.471-0.477,0.707-1.099,0.707-1.868v-7.041L61.545,26.981L61.545,26.981z M63.342,37.707v-7.348h1.432v7.348H63.342L63.342,37.707
	z M63.185,28.27c0-0.219,0.084-0.407,0.253-0.562c0.167-0.154,0.374-0.233,0.616-0.233c0.244,0,0.447,0.079,0.615,0.229
	c0.164,0.152,0.246,0.342,0.246,0.566c0,0.227-0.082,0.424-0.246,0.58c-0.168,0.157-0.371,0.236-0.615,0.236
	c-0.235,0-0.443-0.079-0.611-0.239C63.271,28.688,63.185,28.494,63.185,28.27L63.185,28.27z M72.822,37.707v-3.666
	c0-0.77-0.236-1.389-0.706-1.867c-0.473-0.478-1.085-0.714-1.836-0.714c-0.749,0-1.362,0.235-1.841,0.705
	c-0.481,0.473-0.719,1.083-0.719,1.828c0,0.758,0.246,1.38,0.74,1.866c0.49,0.482,1.119,0.724,1.883,0.724
	c0.346,0,0.685-0.054,1.012-0.163c0.327-0.109,0.656-0.28,0.988-0.512v1.417c-0.326,0.169-0.668,0.296-1.029,0.379
	c-0.358,0.081-0.737,0.124-1.133,0.124c-0.379,0-0.758-0.055-1.127-0.162c-0.373-0.108-0.713-0.258-1.014-0.452
	c-0.576-0.365-1.018-0.822-1.318-1.368c-0.304-0.548-0.455-1.156-0.455-1.823c0-1.099,0.377-2.007,1.128-2.727
	c0.756-0.715,1.712-1.072,2.87-1.072c0.763,0,1.463,0.176,2.094,0.532c0.636,0.355,1.124,0.841,1.466,1.46
	c0.155,0.28,0.268,0.584,0.334,0.917c0.069,0.333,0.103,0.828,0.103,1.488v3.086H72.822L72.822,37.707z M75.967,37.707v-4.009
	c0-1.069,0.308-1.916,0.928-2.538c0.619-0.626,1.439-0.937,2.465-0.937c1.031,0,1.852,0.31,2.465,0.937
	c0.612,0.622,0.918,1.469,0.918,2.538v4.009h-1.416V33.46c0-0.579-0.182-1.053-0.549-1.415c-0.361-0.366-0.836-0.547-1.418-0.547
	c-0.569,0-1.042,0.181-1.411,0.547c-0.371,0.362-0.558,0.836-0.558,1.415v4.247H75.967L75.967,37.707z M84.473,40.971v-6.35
	c0-0.624,0.031-1.11,0.103-1.456c0.067-0.343,0.18-0.66,0.336-0.949c0.33-0.623,0.815-1.113,1.448-1.463
	c0.639-0.353,1.346-0.529,2.125-0.529c1.16,0,2.117,0.357,2.87,1.072c0.751,0.72,1.13,1.628,1.13,2.727
	c0,0.499-0.096,0.975-0.281,1.428c-0.185,0.455-0.457,0.862-0.81,1.216c-0.352,0.368-0.784,0.654-1.281,0.857
	c-0.498,0.201-1.02,0.305-1.561,0.305c-0.395,0-0.773-0.043-1.13-0.124c-0.362-0.083-0.705-0.21-1.03-0.379v-1.417
	c0.325,0.231,0.655,0.402,0.989,0.512c0.341,0.109,0.681,0.163,1.026,0.163c0.764,0,1.393-0.242,1.885-0.724
	c0.492-0.486,0.74-1.108,0.74-1.866c0-0.74-0.242-1.35-0.725-1.825c-0.482-0.472-1.099-0.708-1.851-0.708s-1.365,0.236-1.838,0.714
	c-0.471,0.479-0.707,1.098-0.707,1.867v6.93L84.473,40.971L84.473,40.971z M93.962,37.707v-7.348h1.431v7.348H93.962L93.962,37.707z
	 M93.806,28.27c0-0.219,0.085-0.407,0.253-0.562c0.166-0.154,0.375-0.233,0.615-0.233c0.244,0,0.449,0.079,0.617,0.229
	c0.163,0.152,0.244,0.342,0.244,0.566c0,0.227-0.081,0.424-0.244,0.58c-0.168,0.157-0.373,0.236-0.617,0.236
	c-0.236,0-0.441-0.079-0.613-0.239C93.893,28.688,93.806,28.494,93.806,28.27L93.806,28.27z M97.235,37.707v-4.009
	c0-1.069,0.308-1.916,0.929-2.538c0.616-0.626,1.438-0.937,2.466-0.937c1.029,0,1.85,0.31,2.464,0.937
	c0.612,0.622,0.916,1.469,0.916,2.538v4.009h-1.413V33.46c0-0.579-0.183-1.053-0.549-1.415c-0.362-0.366-0.839-0.547-1.418-0.547
	c-0.571,0-1.044,0.181-1.415,0.547c-0.371,0.362-0.557,0.836-0.557,1.415v4.247H97.235L97.235,37.707z M113.403,37.279
	c0,1.194-0.362,2.135-1.093,2.821c-0.73,0.688-1.726,1.029-2.986,1.029c-0.387,0-0.785-0.037-1.198-0.105
	c-0.415-0.068-0.854-0.174-1.314-0.313l0.312-1.258c0.475,0.145,0.896,0.25,1.252,0.315c0.361,0.07,0.689,0.102,0.979,0.102
	c0.813,0,1.451-0.219,1.914-0.66c0.463-0.438,0.695-1.041,0.695-1.812V34.04c0-0.77-0.235-1.389-0.705-1.867
	c-0.473-0.478-1.086-0.714-1.836-0.714c-0.748,0-1.363,0.235-1.842,0.705c-0.481,0.473-0.721,1.083-0.721,1.828
	c0,0.758,0.248,1.38,0.742,1.866c0.49,0.482,1.12,0.724,1.883,0.724c0.347,0,0.686-0.054,1.013-0.163
	c0.327-0.109,0.657-0.28,0.988-0.512v1.417c-0.325,0.169-0.669,0.296-1.03,0.379c-0.358,0.081-0.736,0.124-1.131,0.124
	c-0.381,0-0.758-0.055-1.129-0.162c-0.375-0.108-0.713-0.258-1.016-0.452c-0.573-0.365-1.014-0.822-1.316-1.368
	c-0.303-0.548-0.454-1.156-0.454-1.823c0-1.099,0.376-2.007,1.128-2.727c0.754-0.715,1.711-1.072,2.871-1.072
	c0.762,0,1.461,0.176,2.094,0.532c0.635,0.355,1.121,0.841,1.463,1.46c0.154,0.28,0.27,0.584,0.336,0.917
	c0.069,0.333,0.103,0.828,0.103,1.488v2.659H113.403z M115.546,36.943c0-0.248,0.092-0.461,0.277-0.631
	c0.185-0.173,0.413-0.26,0.688-0.26s0.5,0.087,0.683,0.26c0.185,0.17,0.277,0.383,0.277,0.631c0,0.24-0.094,0.444-0.279,0.612
	c-0.186,0.172-0.414,0.255-0.681,0.255c-0.269,0-0.497-0.083-0.685-0.255C115.641,37.388,115.546,37.183,115.546,36.943
	L115.546,36.943z M124.662,31.617h-0.619c-1,0-1.801,0.22-2.396,0.662c-0.595,0.442-0.893,1.03-0.893,1.762
	c0,0.733,0.299,1.318,0.898,1.761c0.596,0.442,1.394,0.663,2.391,0.663h0.619v1.242h-0.717c-1.422,0-2.559-0.334-3.408-1.007
	c-0.845-0.675-1.27-1.567-1.27-2.678c0-0.601,0.154-1.161,0.455-1.68c0.303-0.52,0.736-0.954,1.293-1.31
	c0.387-0.239,0.803-0.411,1.241-0.515c0.438-0.105,1.001-0.159,1.688-0.159h0.717L124.662,31.617L124.662,31.617z M127.141,34.008
	c0,0.714,0.246,1.319,0.742,1.814c0.498,0.5,1.097,0.746,1.801,0.746c0.703,0,1.304-0.246,1.8-0.746
	c0.497-0.495,0.743-1.101,0.743-1.814c0-0.71-0.246-1.312-0.742-1.808c-0.49-0.495-1.093-0.74-1.801-0.74
	c-0.704,0-1.303,0.245-1.801,0.74C127.387,32.696,127.141,33.298,127.141,34.008L127.141,34.008z M125.654,34.022
	c0-0.512,0.104-0.993,0.307-1.453c0.209-0.461,0.506-0.874,0.896-1.245c0.383-0.359,0.815-0.633,1.296-0.82
	c0.478-0.186,0.989-0.28,1.53-0.28s1.055,0.095,1.545,0.28c0.484,0.188,0.92,0.461,1.297,0.82c0.385,0.359,0.68,0.773,0.883,1.236
	c0.203,0.465,0.305,0.95,0.305,1.462c0,0.52-0.102,1.013-0.305,1.478c-0.203,0.47-0.498,0.882-0.883,1.239
	c-0.377,0.362-0.812,0.637-1.297,0.82c-0.49,0.188-1.004,0.283-1.545,0.283s-1.053-0.095-1.53-0.283
	c-0.48-0.184-0.913-0.458-1.296-0.82c-0.391-0.36-0.687-0.775-0.896-1.241C125.758,35.032,125.654,34.542,125.654,34.022
	L125.654,34.022z M135.072,37.707V33.46c0-0.999,0.285-1.79,0.853-2.368c0.569-0.578,1.334-0.868,2.297-0.868
	c0.492,0,0.948,0.096,1.366,0.29c0.417,0.191,0.777,0.471,1.08,0.84c0.312-0.373,0.676-0.654,1.09-0.844
	c0.41-0.191,0.861-0.286,1.355-0.286c0.953,0,1.717,0.292,2.287,0.873c0.571,0.582,0.857,1.369,0.857,2.363v4.247h-1.415v-4.494
	c0-0.515-0.161-0.93-0.48-1.243c-0.317-0.315-0.734-0.472-1.25-0.472s-0.931,0.157-1.251,0.472
	c-0.318,0.313-0.478,0.729-0.478,1.243v4.494h-1.417v-4.494c0-0.515-0.163-0.93-0.487-1.243c-0.326-0.315-0.744-0.472-1.256-0.472
	c-0.521,0-0.94,0.157-1.258,0.472c-0.314,0.313-0.473,0.729-0.473,1.243v4.494H135.072z"/>
<path fill="#F39800" d="M18.545,14.4c4.301,0,7.81-3.233,7.81-7.2c0-3.965-3.509-7.2-7.81-7.2s-7.811,3.235-7.811,7.2
	C10.734,11.167,14.244,14.4,18.545,14.4z M35.84,1.344c0.637,1.551,0.983,3.213,0.983,4.942c0,4.315-2.155,8.217-5.632,11.021
	c-3.352,2.71-7.948,4.389-12.977,4.389s-9.625-1.679-12.979-4.389C2.632,15.207,0.769,12.489,0,9.443l6.543-1.479
	c0.433,1.796,1.545,3.416,3.115,4.687c2.164,1.749,5.191,2.834,8.557,2.834c3.363,0,6.389-1.085,8.555-2.834
	c2.047-1.652,3.315-3.908,3.315-6.365c0-1.215-0.31-2.38-0.868-3.446L35.84,1.344z M27.348,20.575
	c6.297,0,12.002,2.504,16.125,6.541c2.764,2.704,4.809,6.102,5.836,9.888l-8.51,1.897c-0.658-2.412-1.951-4.562-3.691-6.267
	c-2.512-2.46-5.965-3.984-9.76-3.984c-3.793,0-7.247,1.525-9.76,3.984c-2.578,2.524-4.178,6.032-4.178,9.914
	c0,0.823,0.072,1.631,0.211,2.415l-8.525,1.902c-0.291-1.397-0.443-2.843-0.443-4.317c0-6.001,2.515-11.461,6.571-15.433
	C15.348,23.079,21.052,20.575,27.348,20.575z"/>
</svg>
