<?xml version="1.0" encoding="utf-8"?>
<!-- Generator: Adobe Illustrator 17.0.0, SVG Export Plug-In . SVG Version: 6.00 Build 0)  -->
<!DOCTYPE svg PUBLIC "-//W3C//DTD SVG 1.1//EN" "http://www.w3.org/Graphics/SVG/1.1/DTD/svg11.dtd">
<svg version="1.1" id="图层_1" xmlns="http://www.w3.org/2000/svg" xmlns:xlink="http://www.w3.org/1999/xlink" x="0px" y="0px"
	 width="44.969px" height="22.438px" viewBox="0 0 44.969 22.438" enable-background="new 0 0 44.969 22.438" xml:space="preserve">
<path fill="#FFA233" d="M29.147,18.796c2.849-0.232,7.834-1.662,14.957-4.212l0.87-0.347l-0.87,0.618
	c-2.849,1.816-6.015,3.4-9.536,4.714c-3.878,1.391-7.044,2.086-9.378,2.086c-2.374-0.038-3.205-1.043-2.414-2.975
	c0.713-1.97,1.702-3.516,2.928-4.636l4.353-4.753c0.989-1.159,1.622-2.241,1.939-3.129l0.158-0.851V4.809
	C31.758,3.766,29.701,2.8,26.021,1.95l0.633,1.468c-4.986,1.005-8.665,1.893-10.96,2.666c-2.335,0.773-3.562,1.121-3.799,1.121
	l0.198,0.232l0.079,0.115c0.277,0.541,0.475,1.16,0.594,1.778l-2.335,1.545c0.277,0.232,0.633,0.387,1.068,0.425l0.119,0.039
	l0.514,0.077c1.148,0.078,2.295-0.038,3.403-0.425l0.357-0.116c0.91-0.386,1.78-0.888,2.571-1.545l0.396-0.309l-0.593-0.696
	c0.949,0.464,1.464,1.198,1.464,2.241l-0.159,1.121c-0.079-1.198-0.277-1.932-0.593-2.164c-0.594,0.618-1.266,1.12-1.979,1.507
	c-0.712,0.425-1.503,0.734-2.374,0.966l-2.809,0.116l-2.651-0.696l-0.198,3.748H8.571c-0.949,0.193-1.859,0.58-2.651,1.236
	c-0.435,0.31-0.712,0.657-0.949,1.005c-0.436,0.734-0.317,1.468,0.356,2.241l0.475,0.193l0.158,0.077l2.374,0.464
	c2.73,0.193,6.093-0.348,10.09-1.584l0.752-0.232l-0.752,0.502c-3.166,1.894-6.094,2.976-8.863,3.285
	c-2.216,0.27-4.313,0-6.292-0.734l-0.277-0.116L1.41,20.38c-1.86-1.739-1.9-4.134-0.04-7.187c1.741-2.936,4.709-5.641,8.903-8.113
	l0.435-0.232c4.353-2.55,8.784-4.096,13.216-4.637c2.849-0.386,5.223-0.27,7.003,0.387c0.831,0.27,1.543,0.695,2.177,1.236
	l0.158,0.193c1.82,1.739,1.82,4.135,0,7.187c-0.475,0.85-1.068,1.623-1.781,2.434l-3.046,3.516
	C25.902,17.83,26.14,19.066,29.147,18.796z"/>
</svg>
