<?xml version="1.0" encoding="utf-8"?>
<!-- Generator: Adobe Illustrator 17.0.0, SVG Export Plug-In . SVG Version: 6.00 Build 0)  -->
<!DOCTYPE svg PUBLIC "-//W3C//DTD SVG 1.1//EN" "http://www.w3.org/Graphics/SVG/1.1/DTD/svg11.dtd">
<svg version="1.1"
	 id="svg2" xmlns:svg="http://www.w3.org/2000/svg" inkscape:export-xdpi="521" inkscape:export-filename="C:\Dokumente und Einstellungen\jischa\Desktop\symbole verkehr v4 2.png" xmlns:inkscape="http://www.inkscape.org/namespaces/inkscape" xmlns:rdf="http://www.w3.org/1999/02/22-rdf-syntax-ns#" xmlns:cc="http://creativecommons.org/ns#" xmlns:dc="http://purl.org/dc/elements/1.1/" xmlns:sodipodi="http://sodipodi.sourceforge.net/DTD/sodipodi-0.dtd" inkscape:export-ydpi="521" sodipodi:docname="symbole verkehr v 5 1.svg" inkscape:version="0.48.0 r9654"
	 xmlns="http://www.w3.org/2000/svg" xmlns:xlink="http://www.w3.org/1999/xlink" x="0px" y="0px" width="123.286px"
	 height="39.709px" viewBox="0 0 123.286 39.709" enable-background="new 0 0 123.286 39.709" xml:space="preserve">
<path id="path6176" inkscape:connector-curvature="0" fill="#08A1EF" d="M13.088,38.785c-1.523-1.272-3.18-2.206-5.841-3.294
	c-2.602-1.064-4.602-2.307-5.525-3.434c-0.62-0.758-1.651-2.767-1.499-2.92c0.043-0.044,26.171-0.059,58.06-0.035l57.982,0.046
	l-2.027,1.444c-3.669,2.613-6.669,5.83-7.716,8.272l-0.361,0.845l-45.994-0.011l-45.994-0.012l-1.084-0.903L13.088,38.785
	L13.088,38.785z M0,27.344v-0.451h59.795h59.795l-0.664,0.451l-0.664,0.451H59.131H0V27.344z M0.362,25.213
	c0-0.467,0.749-2.407,1.406-3.642c0.745-1.401,0.813-1.439,2.962-1.635l1.209-0.11l0.123-1.251l0.124-1.25H7.46
	c1.228,0,1.326-0.034,2.662-0.91l1.387-0.911l-0.708-2.814c-0.389-1.549-0.68-2.946-0.646-3.106c0.034-0.16,0.537,0.92,1.119,2.399
	l1.059,2.69l4.439-0.107c4.044-0.098,4.674-0.157,7.05-0.666c1.435-0.307,2.619-0.575,2.633-0.597
	c0.018-0.021,0.581-1.907,1.263-4.19c1.576-5.277,1.607-5.353,2.118-5.249c0.961,0.194,1.938,0.279,1.938,0.169
	c0-0.065-0.325-0.683-0.722-1.371c-0.398-0.689-0.723-1.286-0.723-1.327s1.117-0.071,2.482-0.067l2.482,0.008l1.118,1.581
	c0.62,0.876,1.774,2.954,2.59,4.662l1.472,3.082l1.092,0.114c0.601,0.063,1.892,0.113,2.869,0.113c1.455,0,2.079,0.095,3.448,0.523
	l1.672,0.523l10.02,0.11c5.51,0.061,11.005,0.189,12.211,0.283c2.165,0.171,2.21,0.167,3.61-0.344l1.418-0.516l0.091-1.78
	l0.092-1.779l0.496-0.058c0.273-0.031,0.496-0.072,0.495-0.09c0-0.018-0.285-1.495-0.632-3.282c-0.347-1.787-0.63-3.29-0.63-3.34
	s0.278-0.313,0.619-0.584L77.963,0l1.526,0.733l1.526,0.732l0.116,1.928c0.063,1.061,0.162,2.511,0.221,3.223l0.105,1.296
	l1.379,0.295c0.759,0.162,1.479,0.327,1.6,0.366c0.122,0.039,0.626,0.881,1.121,1.868c0.869,1.732,0.926,1.8,1.585,1.897
	c1.3,0.193,5.483,0.519,5.569,0.434c0.047-0.047,0.343-1.316,0.656-2.821c0.314-1.504,0.638-2.734,0.719-2.734
	c0.18,0,0.18,0-0.112,3.159l-0.233,2.527l1.375,1.293c1.128,1.06,1.318,1.314,1.06,1.418c-0.24,0.096-0.316,0.336-0.316,1.001
	c0,0.847,0.019,0.878,0.587,0.977c0.446,0.077,4.447,0.637,4.551,0.637c0.018,0-0.019,0.569-0.053,1.264l-0.071,1.264h0.795
	c0.701,0,0.883,0.092,1.526,0.768c0.401,0.422,0.872,1.153,1.045,1.624l0.314,0.858h7.449c4.097,0,8.312,0.053,9.365,0.117
	l1.918,0.117l-0.851,0.604l-0.851,0.606H60.973c-49.75,0-60.61-0.043-60.61-0.236L0.362,25.213z"/>
</svg>
