<?xml version="1.0" encoding="utf-8"?>
<!DOCTYPE svg PUBLIC "-//W3C//DTD SVG 1.1//EN" "http://www.w3.org/Graphics/SVG/1.1/DTD/svg11.dtd">
<svg version="1.1" baseProfile="full"
 xmlns="http://www.w3.org/2000/svg"
 xmlns:xlink="http://www.w3.org/1999/xlink"
 xmlns:ev="http://www.w3.org/2001/xml-events" 
  height="89px" 
  width="230px" 
>
<path fill="rgb( 255, 82, 70 )"
 d="M224,35 C224,35 225,16 225,16 C225,16 203,10 203,10 C203,10 230,14 230,14 C230,14 224,35 224,35 ZM212,31 C212,31 207,30 207,30 C207,30 210,34 210,34 C210,34 205,44 205,44 C205,44 214,44 214,44 C214,44 215,58 215,58 C215,58 208,58 208,58 C208,58 213,71 213,71 C213,71 201,78 201,78 C201,78 193,58 193,58 C193,58 191,57 191,57 C191,57 192,77 192,77 C192,77 176,78 176,78 C176,78 176,59 176,59 C176,59 171,58 171,58 C171,58 167,77 167,77 C167,77 152,74 152,74 C152,74 158,60 158,60 C158,60 151,60 151,60 C151,60 150,47 150,47 C150,47 161,45 161,45 C161,45 176,46 176,46 C176,46 175,30 175,30 C175,30 166,31 166,31 C166,31 174,39 174,39 C174,39 169,44 169,44 C169,44 158,32 158,32 C158,32 152,32 152,32 C152,32 152,19 152,19 C152,19 154,19 154,19 C154,19 174,18 174,18 C174,18 174,15 174,15 C174,15 189,14 189,14 C189,14 190,17 190,17 C190,17 212,18 212,18 C212,18 212,31 212,31 ZM190,31 C190,31 190,44 190,44 C190,44 196,44 196,44 C196,44 191,40 191,40 C191,40 198,31 198,31 C198,31 190,31 190,31 ZM91,79 C72,72.667 82,48 82,48 C82,48 87,49 87,49 C87,49 90,59 90,59 C90,59 94,44 94,44 C94,44 80,44 80,44 C80,44 81,33 81,33 C81,33 92,33 92,33 C92,33 94,27 94,27 C94,27 81,29 81,29 C81,29 81.333,17.667 82,16 C82.667,14.333 94,15 94,15 C94,15 94,11 94,11 C94,11 106,11 106,11 C106,11 108,14 108,14 C108,14 113,15 113,15 C113,15 112,27 112,27 C112,27 108,27 108,27 C108,27 108,31 108,31 C108,31 114,31 114,31 C114,31 113,43 113,43 C113,43 108,43 108,43 C108,43 107,46 107,46 C107,46 114,49 114,49 C114,49 113,61 113,61 C113,61 107,60 107,60 C107,60 107,66 107,66 C107,66 148,60 148,60 C148,60 149,75 149,75 C135.667,82.667 91,79 91,79 ZM130,47 C129.667,52.333 147,44 147,44 C147,44 147,57 147,57 C109,66 115,48 115,48 C113.333,35 132,30 132,30 C135.667,21 116,30 116,30 C116,30 116,15 116,15 C116,15 119,12.333 133,14 C147,15.667 149,27 149,27 C140.333,48 130.333,41.667 130,47 ZM25,73 C23.333,72 25,77 25,77 C25,77 12,74.333 10,74 C8,73.667 13,53 13,53 C13,53 27,54 27,54 C27,54 27,60 27,60 C27,60 35,59 35,59 C35,59 35,47 35,47 C35,47 13,51 13,51 C13,51 10,35 10,35 C10,35 35,32 35,32 C35,32 36,29 36,29 C36,29 16,30 16,30 C16,30 16,17 16,17 C16,17 37,16 37,16 C37,16 36,11 36,11 C36,11 52,11 52,11 C52,11 53,15 53,15 C53,15 74,15 74,15 C74,15 74,26 74,26 C74,26 53,27 53,27 C53,27 54,31 54,31 C54,31 76,31 76,31 C76,31 75,45 75,45 C75,45 52,45 52,45 C52,45 51,49 51,49 C51,49 73,47 73,47 C73,47 73,58 73,58 C73,58 51,60 51,60 C51,60 51,63 51,63 C51,63 76,63 76,63 C76,63 76.333,78.667 77,80 C63.667,83.333 26.667,74 25,73 ZM7,10 C7,10 8,17 8,17 C8,17 0,8 0,8 C0,8 29,1 29,1 C29,1 32,0 32,0 C32,0 33,1 33,1 C33,1 19,7 19,7 C19,7 7,10 7,10 ZM23,83 C23,83 4,89 4,89 C4,89 2,70 2,70 C2,70 10,81 10,81 C10,81 23,83 23,83 ZM214,81 C214,81 222,75 222,75 C222,75 221,88 221,88 C221,88 204,87 204,87 C204,87 217,83 217,83 C217,83 214,81 214,81 Z "/>
</svg>
