<?xml version="1.0" encoding="utf-8"?>
<!-- Generator: Adobe Illustrator 17.0.0, SVG Export Plug-In . SVG Version: 6.00 Build 0)  -->
<!DOCTYPE svg PUBLIC "-//W3C//DTD SVG 1.1//EN" "http://www.w3.org/Graphics/SVG/1.1/DTD/svg11.dtd">
<svg version="1.1" id="图层_1" xmlns="http://www.w3.org/2000/svg" xmlns:xlink="http://www.w3.org/1999/xlink" x="0px" y="0px"
	 width="149.762px" height="69.847px" viewBox="0 0 149.762 69.847" enable-background="new 0 0 149.762 69.847"
	 xml:space="preserve">
<path fill="#F0871A" d="M55.019,11.664h8.705L69.75,56.66h-9.776L55.019,11.664z M33.217,0v52.223c0,0,0.772,4.512-2.073,7.455
	c-2.845,2.943-6.67,1.471-6.67,1.471v7.847h8.838c0,0,8.523-0.392,9.112-9.024V0H33.217z M96.05,23.012h8.605L93.849,3.402h-8.604
	L96.05,23.012z M143.766,3.031h-9.049l-10.495,20.611h9.048L143.766,3.031z M119.825,0h-10.138v69.847h10.138V0z M149.762,35.983
	v-8.601H80.551v8.601H149.762z M82.107,69.847h9.815l12.007-33.997h-9.814L82.107,69.847z M136.085,35.85h-9.815l12.007,33.997
	h9.815L136.085,35.85z M0,56.66h9.208l12.007-44.997h-9.207L0,56.66z"/>
</svg>
