<?xml version="1.0" encoding="utf-8"?>
<!-- Generator: Adobe Illustrator 17.0.0, SVG Export Plug-In . SVG Version: 6.00 Build 0)  -->
<!DOCTYPE svg PUBLIC "-//W3C//DTD SVG 1.1//EN" "http://www.w3.org/Graphics/SVG/1.1/DTD/svg11.dtd">
<svg version="1.1" id="图层_1" xmlns:ev="http://www.w3.org/2001/xml-events"
	 xmlns="http://www.w3.org/2000/svg" xmlns:xlink="http://www.w3.org/1999/xlink" x="0px" y="0px" width="160px" height="160px"
	 viewBox="0 0 160 160" enable-background="new 0 0 160 160" xml:space="preserve">
<path fill="#08A1EF" d="M150.078,80.31v-0.62H160v0.62H150.078z M149.784,73.583l9.885-0.864l0.054,0.617l-9.885,0.865
	L149.784,73.583z M148.959,67.526l9.772-1.723l0.107,0.611l-9.771,1.723L148.959,67.526z M147.609,61.563l9.585-2.568l0.16,0.599
	l-9.584,2.568L147.609,61.563z M145.745,55.741l9.324-3.394l0.212,0.583l-9.324,3.393L145.745,55.741z M143.381,50.103l8.993-4.193
	l0.262,0.562l-8.993,4.193L143.381,50.103z M140.534,44.693l8.593-4.962l0.31,0.538l-8.593,4.961L140.534,44.693z M137.226,39.551
	l8.128-5.691l0.356,0.508l-8.128,5.691L137.226,39.551z M133.483,34.718l7.601-6.379l0.399,0.476l-7.601,6.378L133.483,34.718z
	 M129.333,30.228l7.016-7.016l0.439,0.439l-7.016,7.016L129.333,30.228z M124.807,26.118l6.378-7.601l0.476,0.399l-6.378,7.601
	L124.807,26.118z M119.941,22.418l5.691-8.128l0.508,0.356l-5.691,8.128L119.941,22.418z M114.77,19.156l4.961-8.593l0.538,0.31
	l-4.962,8.593L114.77,19.156z M109.335,143.643l0.562-0.262l4.194,8.993l-0.563,0.262L109.335,143.643z M109.335,16.357l4.193-8.993
	l0.563,0.262l-4.194,8.993L109.335,16.357z M103.677,145.957l0.582-0.212l3.394,9.324l-0.583,0.212L103.677,145.957z
	 M103.677,14.043l3.393-9.324l0.583,0.212l-3.394,9.324L103.677,14.043z M97.838,147.77l0.599-0.161l2.568,9.585l-0.599,0.16
	L97.838,147.77z M97.838,12.23l2.568-9.584l0.599,0.16l-2.568,9.585L97.838,12.23z M91.863,149.067l0.611-0.108l1.723,9.772
	l-0.611,0.107L91.863,149.067z M91.863,10.933l1.723-9.771l0.611,0.107l-1.723,9.772L91.863,10.933z M85.799,149.838l0.618-0.054
	l0.864,9.885l-0.617,0.054L85.799,149.838z M85.799,10.162l0.865-9.885l0.617,0.054l-0.864,9.885L85.799,10.162z M79.69,150.078
	h0.62V160h-0.62V150.078z M79.69,0h0.62v9.922h-0.62V0z M72.719,159.669l0.864-9.885l0.618,0.054l-0.865,9.885L72.719,159.669z
	 M72.719,0.331l0.617-0.054l0.865,9.885l-0.618,0.054L72.719,0.331z M65.803,158.731l1.723-9.772l0.611,0.108l-1.723,9.771
	L65.803,158.731z M65.803,1.269l0.611-0.107l1.723,9.771l-0.611,0.108L65.803,1.269z M58.995,157.194l2.568-9.585l0.599,0.161
	l-2.568,9.584L58.995,157.194z M58.995,2.806l0.599-0.16l2.568,9.584l-0.599,0.161L58.995,2.806z M52.347,155.069l3.394-9.324
	l0.582,0.212l-3.393,9.324L52.347,155.069z M52.347,4.931l0.583-0.212l3.393,9.324l-0.582,0.212L52.347,4.931z M45.909,152.374
	l4.194-8.993l0.562,0.262l-4.193,8.993L45.909,152.374z M45.909,7.626l0.563-0.262l4.193,8.993l-0.562,0.262L45.909,7.626z
	 M39.731,149.127l4.962-8.593l0.537,0.31l-4.961,8.593L39.731,149.127z M39.731,10.873l0.538-0.31l4.961,8.593l-0.537,0.31
	L39.731,10.873z M39.551,22.774l-5.691-8.128l0.508-0.356l5.691,8.128L39.551,22.774z M34.717,26.517l-6.378-7.601l0.476-0.399
	l6.378,7.601L34.717,26.517z M30.229,30.667l-7.017-7.016l0.439-0.439l7.016,7.016L30.229,30.667z M26.118,35.193l-7.601-6.378
	l0.399-0.476l7.601,6.379L26.118,35.193z M22.418,40.059l-8.128-5.691l0.356-0.508l8.128,5.691L22.418,40.059z M19.156,45.23
	l-8.593-4.961l0.31-0.538l8.593,4.962L19.156,45.23z M16.357,50.665l-8.993-4.193l0.262-0.562l8.993,4.193L16.357,50.665z
	 M14.043,56.323L4.719,52.93l0.212-0.583l9.324,3.394L14.043,56.323z M12.23,62.162l-9.584-2.568l0.16-0.599l9.585,2.568
	L12.23,62.162z M10.933,68.137l-9.771-1.723l0.107-0.611l9.772,1.723L10.933,68.137z M10.162,74.201l-9.885-0.865l0.055-0.617
	l9.884,0.864L10.162,74.201z M9.923,80.31H0v-0.62h9.923V80.31z M10.216,86.417l-9.884,0.864l-0.055-0.617l9.885-0.865
	L10.216,86.417z M11.041,92.474l-9.772,1.723l-0.107-0.61l9.771-1.724L11.041,92.474z M12.391,98.437l-9.585,2.568l-0.16-0.599
	l9.584-2.568L12.391,98.437z M14.255,104.259l-9.324,3.394l-0.212-0.583l9.324-3.393L14.255,104.259z M16.619,109.897l-8.993,4.194
	l-0.262-0.563l8.993-4.193L16.619,109.897z M19.466,115.307l-8.593,4.962l-0.31-0.538l8.593-4.961L19.466,115.307z M22.774,120.449
	l-8.128,5.691l-0.356-0.508l8.128-5.691L22.774,120.449z M26.517,125.283l-7.601,6.378l-0.399-0.475l7.601-6.379L26.517,125.283z
	 M30.667,129.772l-7.016,7.016l-0.439-0.439l7.017-7.016L30.667,129.772z M35.193,133.882l-6.378,7.601l-0.476-0.399l6.378-7.601
	L35.193,133.882z M40.059,137.582l-5.691,8.128l-0.508-0.356l5.691-8.128L40.059,137.582z M120.269,149.127l-0.538,0.31
	l-4.961-8.593l0.537-0.31L120.269,149.127z M120.449,137.226l5.691,8.128l-0.508,0.356l-5.691-8.128L120.449,137.226z
	 M125.283,133.483l6.378,7.601l-0.476,0.399l-6.378-7.601L125.283,133.483z M129.772,129.333l7.016,7.016l-0.439,0.439l-7.016-7.016
	L129.772,129.333z M133.882,124.807l7.601,6.379l-0.399,0.475l-7.601-6.378L133.882,124.807z M137.582,119.941l8.128,5.691
	l-0.356,0.508l-8.128-5.691L137.582,119.941z M140.844,114.77l8.593,4.961l-0.31,0.538l-8.593-4.962L140.844,114.77z
	 M143.643,109.335l8.993,4.193l-0.262,0.563l-8.993-4.194L143.643,109.335z M145.957,103.677l9.324,3.393l-0.212,0.583l-9.324-3.394
	L145.957,103.677z M147.77,97.838l9.584,2.568l-0.16,0.599l-9.585-2.568L147.77,97.838z M149.067,91.863l9.771,1.724l-0.107,0.61
	l-9.772-1.723L149.067,91.863z M149.838,85.799l9.885,0.865l-0.054,0.617l-9.885-0.864L149.838,85.799z"/>
</svg>
