<?xml version="1.0" encoding="utf-8"?>
<!-- Generator: Adobe Illustrator 17.0.0, SVG Export Plug-In . SVG Version: 6.00 Build 0)  -->
<!DOCTYPE svg PUBLIC "-//W3C//DTD SVG 1.1//EN" "http://www.w3.org/Graphics/SVG/1.1/DTD/svg11.dtd">
<svg version="1.1" id="Layer_1" xmlns="http://www.w3.org/2000/svg" xmlns:xlink="http://www.w3.org/1999/xlink" x="0px" y="0px"
	 width="98.652px" height="36.265px" viewBox="0 0 98.652 36.265" enable-background="new 0 0 98.652 36.265" xml:space="preserve">
<path fill="#FF1515" d="M39.013,31.359c0,0.023-0.022,0.053-0.052,0.053c-0.046,0-0.087,0-0.168,0.014
	c-0.178,0.039-0.219,0.145-0.233,0.358c-0.018,0.205-0.01,0.388-0.01,1.387v0.689c0,0.698-0.09,1.477-0.619,1.934
	c-0.487,0.417-1.001,0.47-1.395,0.47c-0.224,0-0.919-0.016-1.39-0.456c-0.326-0.3-0.585-0.75-0.585-1.689h0.003v-0.948
	c0-0.999,0-1.182-0.012-1.387c-0.016-0.203-0.053-0.329-0.277-0.358c-0.049-0.006-0.164-0.014-0.223-0.014
	c-0.026,0-0.055-0.031-0.055-0.053c0-0.039,0.03-0.054,0.104-0.054c0.308,0,0.706,0.015,0.767,0.015
	c0.062,0,0.478-0.015,0.675-0.015c0.077,0,0.115,0.015,0.115,0.054c0,0.023-0.028,0.053-0.06,0.053c-0.048,0-0.085,0-0.169,0.014
	c-0.173,0.029-0.209,0.145-0.227,0.358c-0.015,0.205-0.015,0.388-0.015,1.387v0.902c0,0.933,0.205,1.318,0.492,1.578
	c0.326,0.296,0.613,0.347,0.996,0.347c0.408,0,0.8-0.183,1.029-0.456c0.311-0.368,0.379-0.901,0.379-1.559v-0.812
	c0-0.999-0.006-1.182-0.015-1.387c-0.009-0.203-0.046-0.329-0.266-0.358c-0.054-0.006-0.168-0.014-0.23-0.014
	c-0.028,0-0.052-0.031-0.052-0.053c0-0.039,0.03-0.054,0.104-0.054c0.297,0,0.682,0.015,0.721,0.015
	c0.049,0,0.364-0.015,0.562-0.015C38.981,31.305,39.013,31.32,39.013,31.359z M33.545,35.125c-0.043,0-0.062,0.039-0.069,0.098
	c-0.021,0.146-0.096,0.336-0.195,0.455c-0.182,0.222-0.517,0.229-0.92,0.229c-0.586,0-0.787-0.053-0.908-0.175
	c-0.136-0.137-0.167-0.623-0.167-1.736V32.65c0-1.184,0-1.394,0.017-1.637c0.015-0.268,0.077-0.396,0.296-0.433
	c0.093-0.014,0.196-0.023,0.247-0.023c0.033,0,0.064-0.017,0.064-0.046c0-0.046-0.041-0.062-0.124-0.062
	c-0.223,0-0.778,0.025-0.815,0.025c-0.041,0-0.517-0.025-0.856-0.025c-0.084,0-0.126,0.017-0.126,0.062
	c0,0.029,0.032,0.046,0.064,0.046c0.07,0,0.197,0.009,0.258,0.023c0.248,0.051,0.312,0.175,0.326,0.433
	c0.016,0.243,0.016,0.453,0.016,1.637v1.334c0,0.729,0,1.326-0.039,1.645c-0.031,0.219-0.068,0.388-0.219,0.415
	c-0.068,0.014-0.159,0.031-0.229,0.031c-0.043,0-0.061,0.023-0.061,0.043c0,0.045,0.037,0.064,0.121,0.064
	c0.113,0,0.28-0.01,0.435-0.02c0.15,0,0.276-0.006,0.31-0.006c0.22,0,0.453,0.006,0.772,0.025c0.317,0.008,0.712,0.021,1.257,0.021
	c0.402,0,0.428-0.031,0.476-0.205c0.061-0.22,0.115-0.675,0.115-0.759C33.591,35.154,33.581,35.125,33.545,35.125z M19.409,25.926
	l0.549,0.139l0.268-0.272l0.271-0.407l0.274-0.814l-0.274-2.31v-2.307v-1.901V16.29l0.41-3.667l-0.136-0.134v-0.407l0.136-0.408
	l0.136-0.273l0.269-0.135l0.412-0.137l1.085-0.541l0.407-0.273l0.134-0.269l-0.133-0.27L22.81,9.503l-0.547-0.137l-0.538-0.135
	l-0.681,0.135l-0.816,0.137L19.279,9.91L16.7,10.998l-0.411,0.271l-0.135-0.137l-0.268-0.134L15.34,8.96l-0.272-0.951l-0.134-0.948
	l0.134-0.273l0.408-0.27l0.678-0.273l0.818-0.137h0.537l0.548,0.271l0.681,0.407l0.541,0.136h0.271l0.272-0.136l0.271-0.407V5.975
	L19.41,4.753l-0.269-0.679L18.737,3.53L18.6,3.26h-0.275h-0.137l-0.132,0.135L17.92,3.801l-0.27,0.408l-0.679,0.544L16.424,5.16
	l-0.675,0.408l-0.548,0.543l-0.54,0.679l-0.407,0.273l-0.273,0.134L13.713,7.47l-0.135,0.27l-0.139,0.269v0.138l-0.272,0.269v0.138
	l-0.134,0.272l0.134,0.406l0.136,0.544v0.542l-0.136,0.68v0.542l-0.405,0.95l0.134,0.952l-0.134,1.084l-0.408,1.901l-0.273,0.409
	h-0.136l-0.268-0.139l-0.138-0.27l-0.274-0.543l-0.133-0.138l-0.27-0.133h-0.277l-0.269,0.133l-0.268,0.273v0.272l0.268,1.086
	l0.269,0.543l0.411,0.543h0.136l0.271,0.271h0.273h0.135l0.268-0.134h0.273l0.273,0.406l0.269,0.679l0.272,0.406l0.272,0.274
	l0.275-0.137l0.135-0.137l0.269-0.27l0.269-0.815l0.136-0.406l0.411-0.406l0.134-0.274l0.135-0.407l0.412-0.677l0.539-1.768
	l0.135-0.678l0.275-0.543l0.408-0.406l0.679-0.272l0.27-0.137h0.136v0.137v0.272l-0.136,4.207l-0.137,4.208l-0.275,0.406
	l-0.268,0.14v0.134l0.41,0.952l0.406,1.084v0.271l0.405,0.543l0.541,0.269L19.409,25.926z M7.999,36.044
	C7.77,36.017,7.724,35.848,7.7,35.629c-0.038-0.318-0.038-0.916-0.038-1.645V32.65c0-1.184,0-1.394,0.016-1.637
	c0.018-0.268,0.078-0.396,0.283-0.433c0.09-0.014,0.137-0.023,0.187-0.023c0.031,0,0.061-0.017,0.061-0.046
	c0-0.046-0.037-0.062-0.121-0.062c-0.229,0-0.703,0.025-0.74,0.025c-0.041,0-0.518-0.025-0.857-0.025
	c-0.084,0-0.125,0.017-0.125,0.062c0,0.029,0.032,0.046,0.064,0.046c0.066,0,0.197,0.009,0.255,0.023
	c0.251,0.051,0.313,0.175,0.327,0.433c0.016,0.243,0.016,0.453,0.016,1.637v0.158c0,0.038-0.022,0.045-0.045,0.045H3.768
	c-0.023,0-0.043-0.007-0.043-0.045V32.65c0-1.184,0-1.394,0.012-1.637c0.018-0.268,0.077-0.396,0.283-0.433
	c0.09-0.014,0.136-0.023,0.188-0.023c0.032,0,0.061-0.017,0.061-0.046c0-0.046-0.037-0.062-0.121-0.062
	c-0.229,0-0.705,0.025-0.744,0.025c-0.033,0-0.514-0.025-0.854-0.025c-0.084,0-0.121,0.017-0.121,0.062
	c0,0.029,0.027,0.046,0.058,0.046c0.069,0,0.2,0.009,0.261,0.023c0.248,0.051,0.307,0.175,0.325,0.433
	C3.09,31.256,3.09,31.466,3.09,32.65v1.334c0,0.729,0,1.326-0.042,1.645c-0.032,0.219-0.066,0.388-0.218,0.415
	c-0.068,0.014-0.161,0.031-0.227,0.031c-0.047,0-0.06,0.023-0.06,0.043c0,0.045,0.037,0.064,0.117,0.064
	c0.23,0,0.711-0.025,0.744-0.025c0.039,0,0.516,0.025,0.936,0.025c0.081,0,0.119-0.025,0.119-0.064c0-0.02-0.013-0.043-0.059-0.043
	c-0.069,0-0.236-0.018-0.342-0.031c-0.228-0.027-0.274-0.196-0.295-0.415c-0.037-0.318-0.037-0.916-0.037-1.645v-0.796
	c0-0.037,0.02-0.045,0.043-0.045h3.215c0.023,0,0.045,0.014,0.045,0.045v0.796c0,0.729,0,1.326-0.036,1.645
	c-0.032,0.219-0.069,0.388-0.222,0.415c-0.067,0.014-0.161,0.031-0.231,0.031c-0.043,0-0.057,0.023-0.057,0.043
	c0,0.045,0.036,0.064,0.121,0.064c0.227,0,0.703-0.025,0.744-0.025c0.037,0,0.512,0.025,0.932,0.025
	c0.084,0,0.118-0.025,0.118-0.064c0-0.02-0.015-0.043-0.061-0.043C8.271,36.075,8.106,36.057,7.999,36.044z M7.741,2.173v0.678
	l-0.142,0.14v0.268L7.74,3.395l0.27,0.133L9.23,3.8h1.089l0.816-0.406l0.271-0.269l0.273-0.274V2.58l-0.138-0.272l-0.136-0.27
	l-0.271-0.274l-0.681-0.54l-0.544-0.41L9.095,0.541L8.282,0.405H8.011L7.874,0.541L7.599,0.814L7.466,1.089v0.269v0.27L7.74,2.173
	H7.741z M14.024,36.129c0,0.035-0.074,0.055-0.149,0.055c-0.101,0-0.594,0-1.057-0.02c-0.127-0.006-0.233-0.006-0.233-0.045
	c0-0.029,0.014-0.029,0.046-0.043c0.037-0.018,0.103-0.067,0.06-0.174l-0.599-1.482c-0.014-0.027-0.024-0.037-0.06-0.037h-1.54
	c-0.029,0-0.052,0.018-0.067,0.059l-0.377,1.027c-0.062,0.161-0.102,0.319-0.102,0.433c0,0.129,0.116,0.174,0.229,0.174h0.061
	c0.055,0,0.067,0.024,0.067,0.053c0,0.035-0.038,0.055-0.096,0.055c-0.159,0-0.524-0.025-0.6-0.025c-0.07,0-0.403,0.025-0.674,0.025
	c-0.084,0-0.131-0.02-0.131-0.055c0-0.03,0.029-0.053,0.061-0.053c0.047,0,0.142-0.01,0.197-0.018
	c0.304-0.033,0.434-0.263,0.561-0.589l1.568-4.03c0.083-0.215,0.116-0.251,0.159-0.251c0.066,0,0.089,0.09,0.162,0.234
	c0.118,0.273,1.186,2.934,1.597,3.911c0.243,0.577,0.423,0.661,0.568,0.706c0.099,0.027,0.2,0.037,0.267,0.037
	C13.979,36.076,14.024,36.09,14.024,36.129z M11.955,34.074l-0.658-1.764c-0.037-0.1-0.074-0.1-0.112,0l-0.622,1.764
	c-0.009,0.031,0,0.045,0.023,0.045h1.348C11.963,34.119,11.963,34.105,11.955,34.074z M77.848,10.384l-0.137-0.542V9.3l0.27-0.679
	V8.215l0.137-0.273l0.136-0.135l0.54-0.272l1.764-1.629l0.412-0.41l0.543-0.269h0.54h0.409l0.274,0.407l0.273,0.41v0.403v0.546
	l-0.142,0.542l-0.405,0.272L82.053,8.08l-0.54,0.268l-0.407,0.135l-0.271,0.273v0.271v0.137l0.271,0.405l0.271,0.679l0.271,0.678
	l0.134,1.358l0.142,0.272l0.129,0.137l0.545-0.137l0.815-0.679l0.272-0.272v-0.271l-0.141-0.678v-0.273l0.141-0.268l0.27-0.545
	l0.136-1.087l-0.136-0.947V5.497V5.094l0.272-0.409l0.271-0.138l0.273-0.135l0.403,0.135h0.275l0.273-0.135l0.271-0.409l0.137-0.405
	l0.541-1.087l0.271-1.085l0.133-0.272h0.137h0.136l0.407,0.272l0.133,0.273l0.272,0.269l0.136,0.139l0.413,0.27l0.13,0.274
	l0.142,0.948l0.401,0.677l0.14,0.272v0.408l0.271,0.273l0.137,0.134h0.137h0.404l0.271,0.135l0.137,0.274v0.543v0.134l-0.137,0.136
	L90.61,6.994l-0.411,1.355l-0.132,1.222v2.715v0.272v0.137l0.543-0.137l1.083-0.814l0.541-0.541l0.546-0.545l0.136-0.408V9.978
	L92.78,9.842l-0.411-0.138h-0.267V9.571l-0.135-0.136l-0.274-0.543V8.483l0.138-0.268l0.538-1.222v-0.41v-0.27V6.18l-0.538-0.136
	V5.907V5.771l0.137-0.409l0.401-0.676l0.137-0.138l0.274-0.135l0.678-0.137h0.546l0.268,0.272l0.136,0.138l0.139,0.269l-0.139,0.406
	l-0.542,0.683l-0.407,0.949l-0.137,0.271l-0.14,0.678l-0.13,0.679l0.406,0.544L93.597,9.3l0.407,0.404l0.268,0.412l0.136,0.268
	v0.273l-0.136,0.41l-0.268,0.268l-0.546,0.408l-1.089,0.678l-1.626,0.816l-0.544,0.273l-0.132,0.268v0.273l-0.137,0.272
	l-0.137,0.137h-0.136l-0.136-0.137l-0.541-0.406l-0.142-0.138V13.51l-0.13-0.138l-0.14-0.135l-0.274,0.135h-0.136l-1.085,0.406
	l-0.404,0.273l-0.678,0.272H85.72v0.137l-0.139,0.406l-0.135,0.273l-0.275,0.135L84.771,15l-0.409-0.404l-0.135-0.274l-0.272-0.679
	l-0.27-0.271l-0.141-0.135h-0.271l-0.266,0.273l-1.085,1.086l-0.547,0.542l-0.407,0.541l-0.269,0.137h-0.273l-0.408-0.137
	l-0.411-0.406l-0.134-0.408l-0.135-0.814l-0.137-0.813l0.137-0.273l0.269-0.406l0.411-0.814l0.27-0.95l-0.135-0.41l-0.27-0.135
	h-0.276l-0.405,0.272l-0.409,0.273l-0.403,0.133L77.848,10.384z M86.809,8.215l0.135,0.133l0.133,0.135h0.408l0.271-0.135
	l0.274-0.133h0.131h0.274l0.274,0.133v0.273l-0.14,0.27l-0.274,0.543h-0.136l-0.272,0.543l-0.133,0.271l0.133,0.135l0.142,0.273
	l0.131,0.27l0.549,0.409h0.13h0.142l0.135-0.268l0.406-4.074v-0.41l-0.14-0.136l-0.136-0.134l-0.407,0.27L88.16,6.855l-0.272,0.274
	l-0.54,0.27l-0.405,0.544L86.809,8.215z M86.532,12.558l0.14-0.272l0.137-0.135l-0.137-0.135h-0.14V12.558z M16.154,31.308
	c-0.302,0-0.803,0.015-0.944,0.015c-0.056,0-0.473-0.015-0.776-0.015c-0.076,0-0.106,0.015-0.106,0.054
	c0,0.022,0.03,0.053,0.055,0.053c0.061,0,0.174,0.008,0.226,0.014c0.221,0.029,0.259,0.139,0.275,0.358
	c0.012,0.205,0.012,0.388,0.012,1.387v1.135h-0.001c0,0.623,0,1.129-0.037,1.396c-0.029,0.188-0.043,0.312-0.174,0.339
	c-0.059,0.014-0.145,0.031-0.202,0.031c-0.039,0-0.052,0.031-0.052,0.053c0,0.035,0.033,0.055,0.104,0.055
	c0.204,0,0.637-0.025,0.658-0.025c0.03,0,0.47,0.025,0.834,0.025c0.079,0,0.106-0.025,0.106-0.055c0-0.021-0.017-0.053-0.051-0.053
	c-0.063,0-0.208-0.018-0.298-0.031c-0.205-0.027-0.24-0.15-0.264-0.339c-0.031-0.268-0.031-0.773-0.031-1.396v-2.62
	c0-0.071,0.014-0.116,0.055-0.123c0.066-0.017,0.254-0.048,0.369-0.048c0.15,0,0.553-0.036,0.903,0.312
	c0.354,0.349,0.376,0.768,0.376,0.978c0,0.584-0.512,1.038-1.232,1.038c-0.139,0-0.176,0.016-0.176,0.07
	c0,0.029,0.037,0.061,0.069,0.061c0.036,0.008,0.149,0.008,0.187,0.008c1.025,0,1.722-0.618,1.722-1.541
	c0-0.349-0.183-0.639-0.332-0.771C17.314,31.573,17.013,31.308,16.154,31.308z M20.484,31.308c-0.301,0-0.802,0.015-0.947,0.015
	c-0.052,0-0.467-0.015-0.772-0.015c-0.073,0-0.106,0.015-0.106,0.054c0,0.022,0.033,0.053,0.055,0.053
	c0.062,0,0.174,0.008,0.226,0.014c0.221,0.029,0.259,0.139,0.273,0.358c0.016,0.205,0.016,0.388,0.016,1.387v1.135h-0.004
	c0,0.623,0,1.129-0.039,1.396c-0.028,0.188-0.043,0.312-0.173,0.339c-0.059,0.014-0.143,0.031-0.202,0.031
	c-0.038,0-0.056,0.031-0.056,0.053c0,0.035,0.037,0.055,0.108,0.055c0.206,0,0.636-0.025,0.66-0.025c0.028,0,0.47,0.025,0.833,0.025
	c0.075,0,0.108-0.025,0.108-0.055c0-0.021-0.018-0.053-0.056-0.053c-0.061,0-0.202-0.018-0.296-0.031
	c-0.203-0.027-0.242-0.15-0.263-0.339c-0.031-0.268-0.031-0.773-0.031-1.396v-2.62c0-0.071,0.013-0.116,0.052-0.123
	c0.066-0.017,0.258-0.048,0.373-0.048c0.15,0,0.554-0.036,0.902,0.312c0.356,0.349,0.377,0.768,0.377,0.978
	c0,0.584-0.514,1.038-1.236,1.038c-0.136,0-0.174,0.016-0.174,0.07c0,0.029,0.038,0.061,0.07,0.061
	c0.037,0.008,0.149,0.008,0.188,0.008c1.025,0,1.72-0.618,1.72-1.541c0-0.349-0.181-0.639-0.333-0.771
	C21.644,31.573,21.34,31.308,20.484,31.308z M27.046,31.308c-0.128,0-0.606,0.015-0.651,0.015c-0.054,0-0.286-0.015-0.464-0.015
	c-0.066,0-0.107,0.015-0.107,0.038c0,0.031,0.041,0.062,0.102,0.076C26,31.445,26.03,31.498,26.03,31.59
	c0,0.083-0.029,0.188-0.11,0.333c-0.125,0.212-0.959,1.59-1.093,1.863l-1.214-2.007c-0.045-0.084-0.092-0.16-0.092-0.249
	c0-0.057,0.032-0.084,0.084-0.107c0.061-0.022,0.106-0.045,0.106-0.069c0-0.03-0.015-0.045-0.092-0.045
	c-0.255,0-0.53,0.015-0.573,0.015c-0.031,0-0.533-0.015-0.66-0.015c-0.062,0-0.086,0.015-0.086,0.045
	c0,0.031,0.031,0.062,0.072,0.062c0.052,0,0.178,0.031,0.277,0.094c0.121,0.082,0.281,0.226,0.439,0.467
	c0.229,0.342,1.129,1.774,1.184,1.872c0.1,0.184,0.145,0.312,0.145,0.66v0.55h0.001c0,0.107,0,0.379-0.017,0.646
	c-0.014,0.188-0.06,0.312-0.196,0.339c-0.061,0.014-0.137,0.031-0.197,0.031c-0.038,0-0.054,0.031-0.054,0.053
	c0,0.035,0.03,0.055,0.109,0.055c0.197,0,0.619-0.025,0.648-0.025c0.039,0,0.472,0.025,0.845,0.025c0.066,0,0.104-0.025,0.104-0.055
	c0-0.021-0.018-0.053-0.057-0.053c-0.057,0-0.211-0.018-0.299-0.031c-0.201-0.027-0.244-0.15-0.26-0.339
	c-0.021-0.268-0.021-0.539-0.021-0.646v-0.553c0-0.209-0.029-0.418,0.08-0.645c0.141-0.274,1.076-1.789,1.297-2.047
	c0.144-0.174,0.205-0.241,0.335-0.316c0.108-0.06,0.235-0.084,0.311-0.084c0.054,0,0.084-0.037,0.084-0.068
	C27.13,31.323,27.092,31.308,27.046,31.308z M3.938,17.514l1.767-0.677l1.762-0.817l0.274-0.135h0.27l0.136,0.135l0.135,0.408V18.6
	l-0.135,0.27l-0.136,0.27l-0.27,0.139H7.466L7.197,19.14l-0.27-0.134L6.792,18.87v-0.406v-0.269V17.92l-0.136-0.14H6.245
	l-0.136,0.14L5.56,18.194l-0.401,0.134H4.754l-0.41-0.134l-0.269,0.134l-0.269,0.136L3.527,18.6v0.406l0.137,0.407v0.543v0.408
	l0.142,0.406l0.269,0.539l0.269,0.277h0.269l0.275-0.136l0.407-0.545l0.266-0.679l0.144-0.271l0.272-0.271h0.681l0.541,0.271
	L7.6,20.633l0.275,0.676l0.407,0.547l0.542,0.271h0.271l0.136-0.135l0.137-0.27V21.31L9.23,19.685v-1.491l0.137-1.496l0.275-1.629
	l0.406-0.271l0.404-0.272l0.681-0.404l0.407-0.273l0.273-0.543l-0.135-0.135l-0.138-0.137l-0.407-0.135l-0.27-0.139h-0.411
	l-0.269-0.269l-0.135-0.138v-0.27l0.268-0.271l0.41-0.409l0.137-0.271v-0.27l-0.411-0.271l-0.269-0.273v-0.135l0.133-0.134
	l0.816-0.953l0.271-0.541l0.136-0.407l-0.136-0.271l-0.27-0.137l-0.136-0.138h-0.411L10.184,7.74L9.502,8.009L8.689,8.554H8.555
	L8.418,8.417H8.281l0.137-0.269l0.405-0.545L9.367,7.33l1.219-0.541l0.547-0.27l0.812-0.409l0.273-0.408V5.295l-0.273-0.27
	L11.54,4.753h-0.407l-0.681-0.134L9.367,4.753l-4.89,2.308H4.074L3.938,7.195v0.273L4.344,7.74l0.544,0.136l0.407,0.133h1.086h0.275
	l0.136,0.138v0.269L6.656,8.688L6.245,9.095L5.976,9.503L5.561,9.91l-0.266,0.68v0.678l0.133,0.407l0.276,0.136h0.405l0.407-0.271
	l0.275-0.272l0.405-0.678l0.678-0.68l0.681-0.543L9.23,8.96l0.137-0.134h0.135l0.141,0.269L9.502,9.367L8.69,10.318l-0.815,0.951
	l-1.082,0.815L5.836,12.49H5.704H5.561v0.269l-0.133,0.274v0.272l-0.133,0.679v0.138l0.409,0.135l1.088-0.408l1.082-0.543
	l0.273-0.135h0.135l0.273,0.135v0.271l-0.137,0.68l-0.407,0.405l-2.987,1.223L2.17,16.971l-0.269,0.134H1.765l-0.138-0.134
	l-0.138-0.273l-0.134-0.27H1.221l-0.68,0.544l-0.404,0.542L0,18.194v0.54l0.271,0.136H0.54h0.545l0.68-0.27l0.681-0.406
	L3.938,17.514z M84.296,30.451c-0.146,0-0.689,0.025-0.735,0.025c-0.059,0-0.304-0.025-0.498-0.025
	c-0.077,0-0.123,0.017-0.123,0.045c0,0.038,0.046,0.055,0.115,0.078c0.087,0.022,0.12,0.105,0.12,0.21c0,0.1-0.033,0.23-0.129,0.388
	c-0.154,0.251-1.114,1.911-1.26,2.228c-0.136-0.219-1.271-2.175-1.396-2.393c-0.057-0.115-0.094-0.205-0.094-0.295
	c0-0.062,0.037-0.109,0.094-0.138c0.071-0.031,0.117-0.04,0.117-0.068c0-0.029-0.017-0.055-0.1-0.055
	c-0.294,0-0.584,0.025-0.639,0.025c-0.038,0-0.604-0.025-0.749-0.025c-0.067,0-0.1,0.025-0.1,0.055c0,0.037,0.037,0.054,0.08,0.054
	c0.065,0,0.21,0.043,0.322,0.12c0.137,0.091,0.327,0.28,0.515,0.562c0.268,0.394,1.283,2.061,1.336,2.182
	c0.102,0.221,0.174,0.387,0.174,0.797v0.65h0.002c0,0.119,0,0.439-0.025,0.758c-0.014,0.219-0.083,0.388-0.23,0.415
	c-0.072,0.014-0.162,0.031-0.229,0.031c-0.046,0-0.06,0.023-0.06,0.043c0,0.045,0.037,0.064,0.116,0.064
	c0.23,0,0.711-0.025,0.748-0.025c0.037,0,0.512,0.025,0.932,0.025c0.081,0,0.118-0.025,0.118-0.064c0-0.02-0.011-0.043-0.059-0.043
	c-0.066,0-0.236-0.018-0.343-0.031c-0.226-0.027-0.291-0.196-0.308-0.415c-0.021-0.318-0.021-0.639-0.021-0.758v-0.652
	c0-0.252,0-0.484,0.113-0.758c0.137-0.325,1.193-2.108,1.444-2.41c0.169-0.205,0.251-0.295,0.404-0.384
	c0.121-0.08,0.267-0.108,0.348-0.108c0.063,0,0.102-0.025,0.102-0.063C84.398,30.468,84.352,30.451,84.296,30.451z M88.161,25.184
	l-0.272,0.137h-0.268h-0.272l-0.677-0.41v-0.134l-0.678-0.682l-0.82-0.54l-0.403-0.272l-1.227-0.68l-0.406-0.135h-0.402
	l-0.545,0.273l-0.268,0.268l-0.684,0.683l-0.405,0.135h-0.407l-0.408-0.544l-0.27-0.541l-0.142-0.408v-0.409l0.142-0.54
	l-0.275-0.679v-0.274V20.16v-0.268l-0.271-0.14l-1.765,0.546l-1.767,0.674h-0.405h-0.271l-0.137-0.267l-0.136-0.546v-0.543
	l0.136-0.409l0.137-0.27l0.136-0.137l0.678-0.133L76.08,18.8l0.407-0.133l0.681-0.409l0.68-0.134l0.542-0.137l1.218-0.682
	l0.411-0.134v0.134v0.273l-0.27,0.409l-0.142,0.137v0.134v0.136h0.142l3.259-0.815l1.763-0.407l1.626-0.541l0.275-0.135l0.137-0.139
	l0.135-0.271l0.133-0.407l-0.133-0.406l0.133-0.408l0.137-0.269l0.271-0.274l0.404-0.137l0.272,0.137l0.274,0.274l0.135,0.269
	l0.411,0.814l0.135,0.137h0.131l0.547-0.137L93.052,15h0.406l2.848-0.678l0.412-0.137h0.404l0.548,0.137l0.406,0.274l0.267,0.136V15
	l-0.138,0.138l-0.268,0.135l-3.804,0.406l-0.676,0.137l-1.49,0.27l-1.635,0.411l-0.811,0.135l-0.406,0.27l-0.276,0.271v0.407
	l-0.269,1.088l-0.135,1.084v2.172l0.135,1.222l0.14,0.681l-0.14,0.544v0.54L88.161,25.184z M86.673,17.852h-0.001l-0.14-0.135
	h-0.538l-1.224,0.408l-1.358,0.406l-0.404,0.137l-0.142,0.269l0.142,0.27l0.13,0.409v0.275l0.274,0.268l0.409-0.134l0.54-0.134
	h0.276l0.133,0.134l0.133,0.134l-0.133,0.272v0.134l-0.409,0.275v0.27v0.273l0.136,0.134l0.273,0.272h0.133h0.546h0.545h0.268
	l0.271-0.137l0.14-0.406v-0.275v-2.983V17.852z M87.722,35.31c-0.039,0-0.056,0.021-0.068,0.098
	c-0.04,0.258-0.132,0.371-0.306,0.448c-0.174,0.068-0.492,0.068-0.665,0.068c-0.661,0-0.783-0.085-0.796-0.517
	c-0.01-0.127,0-0.879,0-1.1V33.77c0-0.021,0.007-0.045,0.046-0.045c0.109,0,0.828,0.01,1.004,0.029
	c0.258,0.031,0.321,0.107,0.346,0.199c0.028,0.084,0.028,0.152,0.028,0.213c0,0.039,0.018,0.059,0.046,0.059
	c0.047,0,0.061-0.066,0.061-0.119c0-0.047,0.016-0.289,0.028-0.416c0.017-0.213,0.055-0.323,0.055-0.357
	c0-0.04-0.017-0.055-0.037-0.055c-0.023,0-0.056,0.038-0.098,0.083c-0.067,0.068-0.171,0.078-0.327,0.092
	c-0.151,0.017-1.033,0.017-1.115,0.017c-0.036,0-0.036-0.022-0.036-0.071v-1.75c0-0.045,0.007-0.066,0.036-0.066
	c0.08,0,0.85,0.007,0.964,0.021c0.362,0.045,0.431,0.091,0.479,0.196c0.028,0.078,0.038,0.184,0.038,0.229
	c0,0.054,0.014,0.083,0.051,0.083c0.029,0,0.055-0.038,0.058-0.068c0.018-0.075,0.035-0.364,0.037-0.425
	c0.018-0.18,0.056-0.257,0.056-0.302c0-0.031-0.005-0.059-0.028-0.059c-0.029,0-0.064,0.021-0.093,0.028
	c-0.051,0.009-0.173,0.031-0.301,0.037c-0.154,0.008-1.546,0-1.592,0c-0.04,0-0.472-0.015-0.771-0.015
	c-0.076,0-0.104,0.015-0.104,0.054c0,0.022,0.028,0.053,0.049,0.053c0.06,0,0.174,0.008,0.229,0.014
	c0.22,0.029,0.256,0.139,0.271,0.358c0.018,0.205,0.018,0.388,0.018,1.387v1.135h-0.003c0,0.623,0,1.129-0.037,1.396
	c-0.032,0.188-0.05,0.319-0.174,0.339c-0.065,0.008-0.146,0.031-0.209,0.031c-0.038,0-0.052,0.031-0.052,0.053
	c0,0.035,0.038,0.055,0.106,0.055c0.104,0,0.257-0.01,0.386-0.02c0.147-0.006,0.272-0.006,0.289-0.006c0.097,0,0.27,0,0.553,0.016
	c0.272,0.01,0.657,0.025,1.158,0.025c0.257,0,0.328,0,0.373-0.168c0.037-0.137,0.09-0.577,0.09-0.622
	C87.765,35.363,87.759,35.31,87.722,35.31z M70.903,25.184h0.543l0.405-0.139l0.685-0.406l0.132-0.269l0.136-0.275l0.133-0.54
	l-0.401-1.361l-0.274-0.676l-0.543-0.677l-1.224-0.815l-1.082-0.543l-0.953-0.139h-1.085L67.1,19.483l-0.81,0.27l-0.274,0.273v0.273
	l0.133,0.407l0.41,0.405l0.816,0.68l0.816,0.812l0.407,0.68l0.538,0.544l1.224,0.95L70.903,25.184z M76.183,31.32
	c-0.059,0-0.343-0.015-0.684-0.015c-0.081,0-0.113,0.015-0.113,0.045c0,0.024,0.024,0.062,0.062,0.062
	c0.303,0,0.356,0.076,0.356,0.189c0,0.086-0.005,0.157-0.076,0.402c-0.237,0.826-0.833,2.69-1.001,3.219h-0.03l-1.302-3.588
	c-0.084-0.221-0.138-0.305-0.184-0.305c-0.036,0-0.082,0.04-0.182,0.298l-1.396,3.597h-0.016c-0.082-0.264-0.77-2.626-0.871-3.038
	c-0.074-0.288-0.128-0.515-0.128-0.598c0-0.082,0.045-0.123,0.09-0.137c0.075-0.039,0.181-0.039,0.237-0.039
	c0.029,0,0.065-0.021,0.065-0.062c0-0.03-0.028-0.045-0.122-0.045c-0.331,0-0.635,0.015-0.693,0.015
	c-0.073,0-0.442-0.015-0.79-0.015c-0.064,0-0.107,0.015-0.107,0.045c0,0.041,0.032,0.062,0.062,0.062
	c0.046,0,0.211,0.008,0.305,0.039c0.175,0.061,0.242,0.144,0.349,0.483l1.181,3.822c0.136,0.44,0.19,0.507,0.257,0.507
	c0.077,0,0.118-0.066,0.236-0.34c0.242-0.601,1.142-2.957,1.37-3.515l1.305,3.521c0.091,0.252,0.152,0.334,0.219,0.334
	c0.077,0,0.114-0.074,0.288-0.554c0.265-0.721,0.929-2.766,1.222-3.583c0.128-0.357,0.234-0.615,0.431-0.684
	c0.076-0.023,0.205-0.031,0.227-0.031c0.047,0,0.064-0.037,0.064-0.068c0-0.023-0.032-0.038-0.093-0.038
	C76.518,31.305,76.228,31.32,76.183,31.32z M93.303,36.129c0,0.035-0.074,0.055-0.152,0.055c-0.097,0-0.587,0-1.054-0.02
	c-0.127-0.006-0.234-0.006-0.234-0.045c0-0.029,0.017-0.029,0.046-0.043c0.041-0.018,0.106-0.067,0.061-0.174l-0.6-1.482
	c-0.013-0.027-0.022-0.037-0.062-0.037H89.77c-0.028,0-0.05,0.018-0.065,0.059l-0.381,1.027c-0.064,0.161-0.101,0.319-0.101,0.433
	c0,0.129,0.117,0.174,0.229,0.174h0.061c0.055,0,0.065,0.024,0.065,0.053c0,0.035-0.035,0.055-0.095,0.055
	c-0.161,0-0.524-0.025-0.599-0.025c-0.067,0-0.404,0.025-0.675,0.025c-0.084,0-0.129-0.02-0.129-0.055
	c0-0.03,0.027-0.053,0.062-0.053c0.043,0,0.143-0.01,0.193-0.018c0.307-0.033,0.435-0.263,0.56-0.589l1.576-4.03
	c0.078-0.215,0.112-0.251,0.156-0.251c0.064,0,0.092,0.09,0.159,0.234c0.124,0.273,1.193,2.934,1.597,3.911
	c0.246,0.577,0.428,0.661,0.573,0.706c0.098,0.027,0.195,0.037,0.263,0.037C93.256,36.076,93.303,36.09,93.303,36.129z
	 M91.228,34.074l-0.654-1.764c-0.04-0.1-0.078-0.1-0.114,0l-0.626,1.764c-0.003,0.031,0,0.045,0.026,0.045h1.348
	C91.238,34.119,91.238,34.105,91.228,34.074z M98.65,36.128c0,0.035-0.037,0.055-0.163,0.055h-0.413
	c-0.382,0-0.547-0.039-0.712-0.131c-0.29-0.15-0.529-0.464-0.911-0.948c-0.279-0.346-0.576-0.766-0.722-0.938
	c-0.028-0.033-0.045-0.039-0.086-0.039l-0.854-0.014c-0.028,0-0.04,0.014-0.04,0.053v0.148c0,0.625,0,1.123,0.028,1.391
	c0.022,0.189,0.059,0.312,0.265,0.339c0.093,0.013,0.236,0.031,0.296,0.031c0.045,0,0.054,0.032,0.054,0.053
	c0,0.03-0.032,0.055-0.104,0.055c-0.364,0-0.794-0.025-0.821-0.025c-0.006,0-0.455,0.025-0.657,0.025
	c-0.069,0-0.106-0.02-0.106-0.055c0-0.022,0.012-0.053,0.051-0.053c0.058,0,0.142-0.017,0.203-0.031
	c0.13-0.027,0.145-0.151,0.176-0.339c0.041-0.267,0.041-0.773,0.041-1.396h-0.001v-1.135c0-0.999,0-1.182-0.017-1.387
	c-0.018-0.219-0.056-0.329-0.274-0.358c-0.054-0.006-0.168-0.014-0.226-0.014c-0.022,0-0.057-0.031-0.057-0.053
	c0-0.039,0.035-0.054,0.107-0.054c0.304,0,0.753,0.015,0.786,0.015c0.073,0,0.634-0.015,0.835-0.015
	c0.426,0,0.895,0.038,1.247,0.282c0.166,0.118,0.461,0.43,0.461,0.878c0,0.477-0.201,0.94-0.818,1.47
	c0.543,0.684,1.008,1.266,1.394,1.668c0.357,0.364,0.575,0.425,0.743,0.446c0.131,0.023,0.196,0.023,0.235,0.023
	C98.631,36.075,98.65,36.107,98.65,36.128z M96.432,32.803c0-0.805-0.439-1.268-1.151-1.268c-0.201,0-0.411,0.021-0.48,0.038
	c-0.03,0.016-0.05,0.037-0.05,0.075h0.001v2.073c0,0.033,0.012,0.059,0.04,0.082c0.101,0.051,0.443,0.098,0.738,0.098
	c0.157,0,0.339-0.01,0.502-0.115C96.26,33.636,96.432,33.293,96.432,32.803z M94.681,21.52l0.813,0.676l0.271,0.14l0.136,0.135
	l0.273-0.135l0.131-0.14l0.28-0.403v-0.406l-0.819-1.225l-0.952-0.818l-0.681-0.406l-0.676-0.269l-0.814-0.274l-0.409-0.136h-0.403
	l-0.951,0.136h-0.27h-0.139h-0.139v0.274l0.277,0.676l0.133,0.273l0.27,0.136l1.09,0.813l0.678,0.14l0.678,0.267l0.407,0.139
	L94.681,21.52z M44.467,31.322c-0.078,0-0.394-0.015-0.697-0.015c-0.075,0-0.13,0.009-0.13,0.045c0,0.024,0.009,0.062,0.055,0.062
	c0.052,0,0.204,0.008,0.324,0.031c0.206,0.037,0.246,0.183,0.251,0.598l0.07,3.231c-0.209-0.215-0.92-0.976-1.576-1.659
	c-1.034-1.063-2.004-2.097-2.109-2.201c-0.068-0.068-0.184-0.198-0.26-0.198c-0.052,0-0.09,0.069-0.09,0.327v3.692
	c0,0.582-0.022,0.759-0.189,0.804c-0.096,0.027-0.221,0.037-0.27,0.037c-0.031,0-0.056,0.023-0.056,0.053
	c0,0.045,0.04,0.055,0.105,0.055c0.306,0,0.586-0.025,0.645-0.025c0.061,0,0.325,0.025,0.706,0.025c0.075,0,0.119-0.02,0.119-0.055
	c0-0.029-0.021-0.053-0.049-0.053c-0.065,0-0.215-0.01-0.336-0.037c-0.184-0.045-0.24-0.206-0.259-0.735l-0.076-3.042
	c0.207,0.229,0.958,1.016,1.73,1.826c0.706,0.736,1.666,1.685,1.736,1.744c0.37,0.341,0.439,0.396,0.508,0.396
	c0.044,0,0.051-0.037,0.051-0.462l0.018-3.775c0-0.388,0.014-0.518,0.235-0.563c0.073-0.014,0.128-0.014,0.157-0.014
	c0.047,0,0.076-0.037,0.076-0.062c0-0.036-0.057-0.045-0.122-0.045C44.763,31.307,44.541,31.322,44.467,31.322z M68.616,35.31
	c-0.038,0-0.052,0.021-0.069,0.098c-0.036,0.258-0.127,0.371-0.301,0.448c-0.177,0.068-0.492,0.068-0.668,0.068
	c-0.656,0-0.782-0.085-0.796-0.517c-0.007-0.127,0-0.879,0-1.1V33.77c0-0.021,0.005-0.045,0.046-0.045
	c0.113,0,0.825,0.01,1.007,0.029c0.258,0.031,0.318,0.107,0.343,0.199c0.031,0.084,0.031,0.152,0.031,0.213
	c0,0.039,0.01,0.059,0.043,0.059c0.048,0,0.063-0.066,0.063-0.119c0-0.047,0.015-0.289,0.028-0.416
	c0.016-0.213,0.053-0.323,0.053-0.357c0-0.04-0.014-0.055-0.037-0.055s-0.053,0.038-0.102,0.083
	c-0.065,0.068-0.164,0.078-0.324,0.092c-0.15,0.017-1.028,0.017-1.113,0.017c-0.037,0-0.037-0.022-0.037-0.071v-1.75
	c0-0.045,0.005-0.066,0.037-0.066c0.075,0,0.852,0.007,0.963,0.021c0.365,0.045,0.433,0.091,0.475,0.196
	c0.032,0.078,0.043,0.184,0.043,0.229c0,0.054,0.016,0.083,0.053,0.083c0.03,0,0.05-0.038,0.059-0.068
	c0.018-0.075,0.028-0.364,0.037-0.425c0.016-0.18,0.055-0.257,0.055-0.302c0-0.031-0.009-0.059-0.03-0.059
	c-0.033,0-0.062,0.021-0.09,0.028c-0.053,0.009-0.174,0.031-0.305,0.037c-0.15,0.008-1.545,0-1.589,0
	c-0.04,0-0.471-0.015-0.775-0.015c-0.079,0-0.106,0.015-0.106,0.054c0,0.022,0.027,0.053,0.055,0.053
	c0.061,0,0.174,0.008,0.225,0.014c0.221,0.029,0.259,0.139,0.275,0.358c0.012,0.205,0.012,0.388,0.012,1.387v1.135h-0.003
	c0,0.623,0,1.129-0.036,1.396c-0.03,0.188-0.045,0.319-0.174,0.339c-0.062,0.008-0.146,0.031-0.203,0.031
	c-0.038,0-0.056,0.031-0.056,0.053c0,0.035,0.037,0.055,0.107,0.055c0.105,0,0.257-0.01,0.388-0.02
	c0.144-0.006,0.271-0.006,0.289-0.006c0.096,0,0.269,0,0.551,0.016c0.272,0.01,0.659,0.025,1.159,0.025c0.258,0,0.328,0,0.374-0.168
	c0.033-0.137,0.09-0.577,0.09-0.622C68.663,35.363,68.653,35.31,68.616,35.31z M39.794,26.204l-0.27,0.137l-0.137,0.135
	l-0.268-0.135h-0.137l-0.41-0.546l-0.539-1.356l-0.136-0.678v-0.683v-2.713l-0.14-1.631V17.92l0.14-0.815l-0.14-0.407l-0.135-0.27
	l-0.133-0.136h-0.273h-0.272l-0.546,0.136l-2.169,0.409l-2.036,0.542l-2.31,0.815L27.44,19.14l-0.816,0.139h-0.271l-0.541-0.139
	l-0.541-0.271l-0.138-0.541V17.78l0.27-0.538l0.409-0.271l0.812-0.68h0.137h0.41h0.674l0.548,0.271l0.952-0.135l1.085-0.271
	l5.968-1.766l0.683-0.135l0.135-0.135l0.273-0.271l0.133-0.274l-0.133-0.271l-0.273-0.135h-0.272l-0.546,0.135l-1.763,0.545
	l-2.307,0.811h-0.27l-0.274-0.135l-0.272-0.135l-0.134-0.27l-0.134-0.138l0.134-0.272l0.134-0.271l0.407-0.272l0.546-0.137
	l0.543-0.409l1.086-1.084v-0.272l-0.137-0.137l-0.139-0.134l-0.133,0.134l-0.678,0.274h-0.543l-0.546-0.137l-0.675-0.545
	l-0.138-0.269v-0.137l0.405-0.408V9.503V9.367l0.407-0.135l0.546-0.136h0.268l0.411-0.269l0.812-0.409l0.812-0.408l1.628-1.221
	l0.139-0.133V6.519l-0.139-0.138H36.26l-1.494,0.274l-1.625,0.406l-0.68,0.268L31.78,7.061l-0.678-0.68l-0.273-0.814V4.753
	l0.273-0.952l0.542-0.542l0.544-0.543l0.541-0.543l0.544-0.679l0.139-0.68l0.27-0.271L34.772,0h0.408l0.273,0.406l0.946,1.088v0.134
	l0.817,1.088l0.138,0.135l2.579-0.543l0.404-0.27L40.609,1.9h0.408l1.762,0.544l0.547,0.406l0.136,0.274v0.269L43.19,3.801
	l-0.547,0.408l-0.948,0.41l-0.539,0.134l-0.41,0.407l-0.137,0.678v0.544l0.275,1.221l-0.407,1.765L40.61,12.9l0.137,0.272
	l0.138,0.135h0.541l1.494-0.406l1.358-0.139h1.357l1.492,0.139l0.272,0.272l0.271,0.135l0.139,0.268v0.408l-0.41,0.138l-0.137,0.135
	l-6.105,1.356l-0.272,0.133l-0.275,0.138v0.407v0.271l-0.133,0.543v0.676l0.133,1.226v1.628l-0.133,1.629l-0.271,3.393
	L39.794,26.204z M37.082,7.74h0.135l0.138-0.138l0.136-0.134h-0.273L37.082,7.74z M37.897,10.861l-0.14-0.544l-0.135-0.135
	l-0.133-0.134h-0.273l-0.135,0.134l-0.683,0.408l-0.403,0.133l-1.088,0.816L34.77,11.81v0.138l0.137,0.134h0.14l1.085-0.134
	l0.267-0.138h0.817l0.406-0.406L37.897,10.861z M55.884,36.075c0.037,0,0.063,0.032,0.063,0.053c0,0.035-0.039,0.055-0.16,0.055
	h-0.415c-0.383,0-0.548-0.039-0.716-0.131c-0.287-0.15-0.529-0.464-0.908-0.948c-0.281-0.346-0.575-0.766-0.718-0.938
	c-0.032-0.033-0.049-0.039-0.093-0.039l-0.852-0.014c-0.029,0-0.045,0.014-0.045,0.053v0.148c0,0.625,0,1.123,0.032,1.391
	c0.023,0.189,0.063,0.312,0.266,0.339c0.09,0.013,0.234,0.031,0.296,0.031c0.045,0,0.051,0.032,0.051,0.053
	c0,0.03-0.029,0.055-0.106,0.055c-0.361,0-0.789-0.025-0.816-0.025c-0.009,0-0.455,0.025-0.658,0.025
	c-0.072,0-0.107-0.02-0.107-0.055c0-0.022,0.016-0.053,0.052-0.053c0.057,0,0.146-0.017,0.203-0.031
	c0.13-0.027,0.145-0.151,0.174-0.339c0.038-0.267,0.038-0.773,0.038-1.396h0.001v-1.135c0-0.999,0-1.182-0.012-1.387
	c-0.017-0.219-0.055-0.329-0.275-0.358c-0.053-0.006-0.164-0.014-0.226-0.014c-0.026,0-0.056-0.031-0.056-0.053
	c0-0.039,0.03-0.054,0.107-0.054c0.304,0,0.75,0.015,0.786,0.015c0.068,0,0.634-0.015,0.835-0.015c0.426,0,0.895,0.038,1.245,0.282
	c0.167,0.118,0.463,0.43,0.463,0.878c0,0.477-0.198,0.94-0.822,1.47c0.547,0.684,1.01,1.266,1.398,1.668
	c0.356,0.364,0.575,0.425,0.743,0.446C55.78,36.075,55.849,36.075,55.884,36.075z M53.725,32.803c0-0.805-0.437-1.268-1.152-1.268
	c-0.197,0-0.408,0.021-0.477,0.038c-0.031,0.016-0.055,0.037-0.055,0.075h0.001v2.073c0,0.033,0.016,0.059,0.045,0.082
	c0.098,0.051,0.444,0.098,0.735,0.098c0.16,0,0.343-0.01,0.501-0.115C53.552,33.636,53.725,33.293,53.725,32.803z M50.595,36.129
	c0,0.035-0.074,0.055-0.152,0.055c-0.1,0-0.59,0-1.054-0.02c-0.128-0.006-0.235-0.006-0.235-0.045c0-0.029,0.016-0.029,0.047-0.043
	c0.04-0.018,0.105-0.067,0.061-0.174l-0.6-1.482c-0.014-0.027-0.022-0.037-0.06-0.037h-1.54c-0.029,0-0.052,0.018-0.066,0.059
	l-0.379,1.027c-0.062,0.161-0.101,0.319-0.101,0.433c0,0.129,0.116,0.174,0.229,0.174h0.062c0.052,0,0.064,0.024,0.064,0.053
	c0,0.035-0.036,0.055-0.094,0.055c-0.16,0-0.526-0.025-0.6-0.025c-0.071,0-0.404,0.025-0.675,0.025c-0.083,0-0.129-0.02-0.129-0.055
	c0-0.03,0.028-0.053,0.06-0.053c0.047,0,0.141-0.01,0.196-0.018c0.304-0.033,0.435-0.263,0.562-0.589l1.567-4.03
	c0.086-0.215,0.118-0.251,0.161-0.251c0.065,0,0.09,0.09,0.162,0.234c0.119,0.273,1.187,2.934,1.598,3.911
	c0.242,0.577,0.421,0.661,0.566,0.706c0.098,0.027,0.198,0.037,0.267,0.037C50.549,36.076,50.595,36.09,50.595,36.129z
	 M48.523,34.074l-0.657-1.764c-0.037-0.1-0.073-0.1-0.112,0l-0.621,1.764c-0.009,0.031,0,0.045,0.023,0.045h1.347
	C48.533,34.119,48.533,34.105,48.523,34.074z M67.375,15.273l-1.898,0.813l-0.547,0.271l-0.273,0.274l-0.135,0.27L64.39,17.58v1.221
	l-0.276,0.682L63.71,20.16l-0.547,1.088l-0.405,0.677l-0.544,0.544l-0.542,0.541l-0.676,0.273l-1.359,0.138l-0.95-0.411
	l-0.409-0.135l-0.135-0.271V22.33l0.135-0.269l0.275-0.271h0.134l1.766-1.225l0.271-0.54l0.273-0.543l0.269-1.224v-0.134
	l-0.133-0.137h-0.409l-1.356,0.271h-0.68l-0.273-0.134l-0.405-0.271l-0.271-0.408l0.137-0.409l0.135-0.27l0.679-0.681V15.95
	l0.134-0.406l0.137-0.14l0.409-0.132l0.403-0.135l0.405-0.273h0.277L60.588,15l0.543-0.135l0.677-0.269l0.544-0.411l0.271-0.542
	l0.134-1.358l0.136-1.218v-0.274h-0.27l-0.545,0.136h-0.407h-0.54l-0.543,0.273l-0.547-0.135l-0.132-0.138l-0.141-0.272l-0.27-0.273
	v-0.268V9.978l0.41-0.136l0.265-0.271l0.277-0.136h0.68l1.082-0.406l0.41-0.271l0.539-0.408l0.142-1.627l0.132-1.36l0.137-0.814
	l0.137-0.678l0.271-0.815l0.275-0.814l0.267-0.272l0.273-0.134l0.682-0.408l0.402-0.136h0.411l0.269,0.136l0.273,0.135L67.1,1.834
	V2.24v0.814l-0.133,0.544V4.14L67.1,4.413l0.275,0.273l0.953,1.085l1.354,1.084l0.407,0.41l0.136,0.271l0.135,0.272l-0.27,1.084
	l0.813,1.766l0.136,0.272l0.138,0.138l0.542,0.268l0.269,0.139l0.137,0.269l-0.137,0.407l-0.136,0.408l-0.812,0.679l-0.679,0.541
	l-0.812,0.544l-0.814,0.274L67.375,15.273z M66.016,6.855l0.133,0.41l0.142,0.134l0.404-0.134l0.272-0.136h0.408l0.271-0.274
	l0.135-0.272l-0.135-0.136l-0.271-0.403l-0.543-0.548l-0.138-0.135h-0.269L66.29,5.635L66.016,6.855z M65.477,11.879l0.949-0.811
	l0.949-1.09l0.271-0.274l0.546-0.812l0.137-0.408V8.081l-0.412-0.138l-0.541,0.138l-0.543,0.135l-0.406,0.268L65.88,8.892
	l-0.267,0.679l-0.136,0.679l-0.137,1.226v0.269v0.135L65.477,11.879L65.477,11.879z M66.694,12.964l0.681-0.27l0.541-0.273
	l1.221-0.678v-0.269l0.141-0.407V10.52l-0.141-0.272l-0.403,0.272l-1.088,1.085l-0.271,0.272l-0.816,0.816l-0.269,0.27l0.136,0.138
	L66.694,12.964z M56.515,16.632l0.136-1.227l0.405-2.71V12.15l0.134-0.544l0.14-0.271l0.406-0.268l0.541-0.41l0.409-0.273
	l0.134-0.135l0.271-0.271l0.274-0.136l0.27-0.408V9.166l-0.137-0.137l-0.273-0.271h-0.406h-0.134h-0.544l-0.406-0.135l-0.271-0.138
	L57.329,8.35V8.081V7.808l0.135-1.763V5.228v-0.68L57.329,3.87l-0.406-0.543h-0.684l-0.674,0.136L55.29,3.599l-0.137,0.136
	L55.02,4.007v0.406v1.222l-0.136,1.086L54.612,9.3l-0.132,0.95l-0.275,1.086l-0.134,0.271l-0.408,0.137l-0.135-0.137l-0.137-0.271
	l-0.138-0.952l-0.137-0.406l-0.405-0.407l-0.133-0.543l-0.136-0.407h-0.544l-0.406,0.135l-0.274,0.409l-0.272,0.539l-0.542,0.545
	l-0.274,0.408l-0.136,0.949l-0.136,0.137l-0.134,0.542l-0.136,0.409v1.083v0.818l0.136,0.269l0.134,0.408l0.136,0.132l0.547,0.274
	l0.81,0.137l1.228-0.137l0.402-0.274L53.254,15l0.274-0.814l0.135-0.542l0.272-0.542h0.136v0.27l-0.274,3.665v1.764v1.904v1.624
	l0.683,1.091l0.405,1.219l0.405,0.406l0.407,0.139h0.272l0.27-0.407l0.143-0.406l0.133-0.275l0.408-0.675l0.133-1.359l0.273-1.089
	l0.135-1.22v-1.221V18.26l-0.135-0.134h-0.273v-0.001l-0.272,0.134l-0.133,0.136l-0.136-0.136v-0.134V16.632z M64.292,30.448
	c-0.309,0-0.559,0.025-0.642,0.025c-0.087,0-0.448-0.025-0.789-0.025c-0.091,0-0.151,0.01-0.151,0.055
	c0,0.028,0.01,0.054,0.061,0.054c0.06,0,0.233,0.009,0.372,0.037c0.233,0.063,0.289,0.227,0.293,0.721l0.086,3.85
	c-0.244-0.25-1.071-1.174-1.822-1.978c-1.162-1.252-2.293-2.473-2.411-2.602c-0.074-0.074-0.201-0.242-0.261-0.242
	c-0.062,0-0.086,0.085-0.086,0.378l-0.008,4.344c0,0.691-0.037,0.909-0.226,0.964c-0.114,0.035-0.249,0.045-0.312,0.045
	c-0.039,0-0.059,0.014-0.059,0.043c0,0.055,0.043,0.064,0.121,0.064c0.338,0,0.656-0.025,0.725-0.025
	c0.067,0,0.37,0.025,0.805,0.025c0.092,0,0.138-0.02,0.138-0.064c0-0.029-0.025-0.043-0.062-0.043c-0.065,0-0.237-0.01-0.381-0.045
	c-0.203-0.061-0.277-0.257-0.294-0.882l-0.101-3.629c0.245,0.274,1.104,1.229,1.981,2.179c0.806,0.861,1.895,1.977,1.979,2.055
	c0.401,0.397,0.489,0.483,0.552,0.483c0.052,0,0.069-0.037,0.069-0.542l0.015-4.437c0-0.456,0.029-0.625,0.281-0.676
	c0.089-0.023,0.142-0.023,0.18-0.023c0.054,0,0.084-0.025,0.084-0.054C64.429,30.458,64.376,30.448,64.292,30.448z"/>
</svg>
