<?xml version="1.0" encoding="utf-8"?>
<!-- Generator: Adobe Illustrator 17.0.0, SVG Export Plug-In . SVG Version: 6.00 Build 0)  -->
<!DOCTYPE svg PUBLIC "-//W3C//DTD SVG 1.1//EN" "http://www.w3.org/Graphics/SVG/1.1/DTD/svg11.dtd">
<svg version="1.1" xmlns="http://www.w3.org/2000/svg" xmlns:xlink="http://www.w3.org/1999/xlink" x="0px" y="0px" width="155px"
	 height="202.968px" viewBox="0 0 155 202.968" enable-background="new 0 0 155 202.968" xml:space="preserve">
<g id="background">
</g>
<g id="objects">
	<path fill="#C6CC38" d="M155,87.278c0-12.379-7.484-23.006-18.175-27.613c0.515-2.058,0.791-4.212,0.791-6.429
		c0-14.601-11.835-26.437-26.437-26.437c-2.653,0-5.216,0.396-7.633,1.124c0.015-0.373,0.028-0.747,0.028-1.124
		c0-0.122-0.009-0.241-0.01-0.362c0.001-0.121,0.01-0.241,0.01-0.362C103.575,11.674,91.901,0,77.5,0
		C63.099,0,51.425,11.674,51.425,26.075c0,0.121,0.008,0.241,0.01,0.362c-0.002,0.121-0.01,0.24-0.01,0.362
		c0,0.626,0.03,1.246,0.074,1.861c-2.431-0.737-5.009-1.137-7.679-1.137c-14.601,0-26.437,11.837-26.437,26.438
		c0,2.217,0.277,4.37,0.792,6.428C7.485,64.996,0,75.623,0,88.002c0,11.683,6.669,21.801,16.405,26.776
		c-1.235,3.15-1.92,6.576-1.92,10.164c0,15.4,12.486,27.885,27.887,27.885c5.129,0,9.932-1.391,14.061-3.808
		c3.166,8.566,11.402,14.673,21.067,14.673c9.891,0,18.28-6.398,21.275-15.278c4.082,2.343,8.809,3.689,13.854,3.689
		c15.399,0,27.886-12.485,27.886-27.886c0-3.587-0.686-7.013-1.92-10.163C148.33,109.08,155,98.961,155,87.278"/>
	<path fill="#432416" d="M131.542,127.26c-3.426-0.102-6.495-2.18-7.822-5.294c-1.499-3.52-0.565-7.565,2.324-10.066l0.377-0.328
		l-2.618-3.024l-0.378,0.327c-4.207,3.644-5.568,9.534-3.386,14.658c0.677,1.589,1.642,2.993,2.873,4.179
		c-0.666,1.497-1.56,2.878-2.662,4.108c-2.381,2.655-5.498,4.386-9.013,5.005c-4.824,0.85-9.676-0.53-13.309-3.787
		c-0.489-0.437-0.961-0.923-1.441-1.482l-0.001-0.016c-0.009-0.069-0.016-0.138-0.027-0.207l-0.088-0.496l-0.418,0.077
		c-3.28-4.246-4.168-9.944-2.338-15.004c1.001-0.218,1.971-0.554,2.885-0.999c3.066-1.493,5.368-4.092,6.479-7.318
		c0.609-1.769,0.821-3.6,0.634-5.441l-0.052-0.498l-3.979,0.405l0.05,0.498c0.13,1.264-0.017,2.521-0.436,3.734
		c-0.765,2.215-2.345,4-4.449,5.025c-2.085,1.014-4.51,1.162-6.7,0.405c-3.616-1.245-5.991-4.65-5.911-8.472l0.012-0.5l-4-0.085
		l-0.011,0.5c-0.118,5.566,3.341,10.524,8.608,12.34c0.849,0.292,1.727,0.495,2.619,0.605c-1.596,5.878-0.378,12.209,3.304,17.075
		c0.214,1.922,0.086,3.822-0.38,5.649c-1.537,6.001-6.481,10.575-12.599,11.653c-2.212,0.389-4.443,0.303-6.632-0.257
		c-6.464-1.653-10.774-8.886-11.661-15.029c0.042-0.011,0.082-0.023,0.123-0.036c10.432-3.234,16.288-14.351,13.055-24.783
		c-0.528-1.704-1.299-3.344-2.294-4.881c3.094-2.032,5.141-5.255,5.644-8.919c0.255-1.849,0.109-3.688-0.433-5.464l-0.146-0.478
		l-3.827,1.167l0.146,0.479c0.373,1.22,0.473,2.482,0.297,3.75c-0.521,3.788-3.401,6.78-7.171,7.443
		c-0.893,0.157-1.805,0.174-2.71,0.05c-3.79-0.523-6.782-3.402-7.445-7.166l-0.087-0.493l-3.939,0.694l0.086,0.492
		c0.966,5.482,5.322,9.675,10.839,10.435c1.318,0.181,2.646,0.157,3.946-0.072c0.351-0.062,0.71-0.144,1.11-0.256
		c0.946,1.346,1.673,2.826,2.162,4.403c1.248,4.026,0.85,8.303-1.119,12.043c-1.971,3.74-5.274,6.486-9.301,7.735
		c-0.645,0.2-1.308,0.361-1.969,0.478c-5.631,0.992-11.332-1.144-14.946-5.581c0.333-0.987,0.545-1.989,0.63-2.981
		c0.294-3.398-0.754-6.707-2.95-9.318c-1.205-1.43-2.667-2.553-4.345-3.339l-0.452-0.213l-1.698,3.623l0.453,0.212
		c1.151,0.539,2.154,1.31,2.981,2.293c1.508,1.792,2.227,4.064,2.026,6.398c-0.201,2.334-1.299,4.449-3.091,5.958
		c-1.188,0.997-2.617,1.667-4.132,1.934c-2.134,0.376-4.327-0.056-6.174-1.215l-0.424-0.266l-2.126,3.388l0.423,0.266
		c2.69,1.688,5.884,2.317,8.994,1.769c2.208-0.39,4.287-1.364,6.013-2.817c0.672-0.564,1.294-1.215,1.855-1.94
		c4.16,4.324,10.089,6.532,16.063,5.974c1.172,7.533,6.484,16.062,14.601,18.138c0.478,0.122,0.958,0.202,1.439,0.289v48.574h7.99
		v-48.781c7.143-1.686,12.837-7.212,14.668-14.363c0.217-0.851,0.375-1.736,0.477-2.685c4.362,3.259,9.882,4.578,15.294,3.625
		c4.405-0.776,8.311-2.945,11.294-6.274c1.19-1.326,2.198-2.827,3.006-4.469c1.56,0.75,3.291,1.181,5.041,1.252l0.472,0.019
		l0.047-0.469c0.103-1.025,0.182-2.047,0.232-3.038l0.027-0.51L131.542,127.26z"/>
	<path fill="#9EB121" d="M31.349,61.274c0-11.598,9.401-21,20.999-21c1.76,0,3.46,0.241,5.095,0.649
		c-3.333-2.889-7.67-4.649-12.427-4.649c-10.494,0-19,8.507-19,19c0,6.116,2.901,11.542,7.389,15.017
		C32.1,67.557,31.349,64.506,31.349,61.274"/>
	<path fill="#9EB121" d="M64.738,22.26c8.201-8.201,21.498-8.2,29.698,0c1.244,1.245,2.277,2.617,3.145,4.062
		c-0.314-4.4-2.138-8.712-5.5-12.075c-7.421-7.42-19.45-7.42-26.87,0c-4.326,4.325-6.111,10.212-5.394,15.844
		C60.828,27.234,62.453,24.546,64.738,22.26"/>
	<path fill="#9EB121" d="M105.072,41.235c11.598,0,21,9.403,20.999,21c0,1.76-0.239,3.46-0.647,5.095
		c2.889-3.333,4.648-7.671,4.648-12.427c0-10.494-8.507-19-19-19c-6.116,0-11.542,2.901-15.017,7.39
		C98.79,41.987,101.84,41.235,105.072,41.235"/>
</g>
</svg>
