<?xml version="1.0" encoding="utf-8"?>
<!-- Generator: Adobe Illustrator 17.0.0, SVG Export Plug-In . SVG Version: 6.00 Build 0)  -->
<!DOCTYPE svg PUBLIC "-//W3C//DTD SVG 1.1//EN" "http://www.w3.org/Graphics/SVG/1.1/DTD/svg11.dtd">
<svg version="1.1" id="图层_1" xmlns="http://www.w3.org/2000/svg" xmlns:xlink="http://www.w3.org/1999/xlink" x="0px" y="0px"
	 width="195px" height="157.539px" viewBox="0 0 195 157.539" enable-background="new 0 0 195 157.539" xml:space="preserve">
<path fill="#9599C7" d="M177.818,43.164l-46.883,7.314l22.942,31.589L177.818,43.164z M74.701,79.996l13.89,37.408l58.61-23.021
	l6.675-12.316L74.701,79.996z M16.673,0L74.7,79.996l29.237-66.644L16.673,0z"/>
<path fill="#4E55A2" d="M168.869,57.667l8.401-14.387l18.646,14.617L168.869,57.667z M74.701,79.996l79.175,2.071l-49.94-68.715
	L74.701,79.996z M74.701,79.996l-15.093,79.078l33.035-30.849L74.701,79.996z M24.364,10.574L-0.592,11.28l75.293,68.715
	L24.364,10.574z"/>
</svg>
