<?xml version="1.0" encoding="utf-8"?>
<!-- Generator: Adobe Illustrator 17.0.0, SVG Export Plug-In . SVG Version: 6.00 Build 0)  -->
<!DOCTYPE svg PUBLIC "-//W3C//DTD SVG 1.1//EN" "http://www.w3.org/Graphics/SVG/1.1/DTD/svg11.dtd">
<svg version="1.1" id="图层_1" xmlns="http://www.w3.org/2000/svg" xmlns:xlink="http://www.w3.org/1999/xlink" x="0px" y="0px"
	 width="33.031px" height="30px" viewBox="0 0 33.031 30" enable-background="new 0 0 33.031 30" xml:space="preserve">
<path fill="#2BBA4A" d="M33.031,14c0,2.312,0,3.687,0,6c0,2.297,0.001,4.703,0,7c0,1.353-1.616,2.96-3,3
	c-1.393,0.04-2.804-1.335-3.005-2.639c-0.014-0.091-0.024-0.184-0.024-0.277c-0.002-4.633-0.004-9.266-0.004-13.899
	c0-1.129,1.116-3.2,3.033-3.185c1.612,0.015,2.763,1.417,3,3C33.041,13.069,33.031,13.93,33.031,14z M24.031,27
	c-0.001,1.42-1.549,2.999-3,3c-1.431,0-2.653-1.29-2.895-2.664c-0.018-0.106-0.022-4.327-0.024-6.329
	C18.111,19.79,19.56,18.046,21.031,18c1.613,0.051,2.73,1.428,3,3C24.032,22.024,24.031,26.007,24.031,27z M24.031,21
	C24.031,20.923,24.044,21.076,24.031,21z M15.031,27c0,1.436-1.462,2.605-2.93,2.606C10.669,29.607,9.26,28.381,9.031,27
	c-0.003-7.892,0.002-16.108,0-24c0-1.133,1.738-2.702,2.952-2.985C11.957,0.006,11.949-0.002,12.031,0c1.643,0.046,3,1.967,3,3
	C15.028,10.853,15.033,19.147,15.031,27z M9.031,27C9.031,27.101,9.015,26.901,9.031,27z M6.031,22C6.032,22,6.285,22.306,6.031,22z
	 M6.031,27c0,1.342-1.654,2.889-3,3c-1.444,0.119-2.743-1.658-3-3c-0.003-3.275,0.002-6.725,0-10c-0.001-1.247,1.661-3.025,3-3
	c1.616,0.025,2.99,1.582,3,3c0.005,1.684,0,3.316,0,5C6.031,23.63,6.031,25.37,6.031,27z M0.031,27
	C0.031,27.161,0.001,26.841,0.031,27z M6.031,17C6.03,16.824,6.032,17.176,6.031,17z"/>
</svg>
