<?xml version="1.0" encoding="utf-8"?><!DOCTYPE svg PUBLIC "-//W3C//DTD SVG 1.1//EN" "http://www.w3.org/Graphics/SVG/1.1/DTD/svg11.dtd"><svg version="1.1" baseProfile="full" xmlns="http://www.w3.org/2000/svg" xmlns:xlink="http://www.w3.org/1999/xlink" xmlns:ev="http://www.w3.org/2001/xml-events"   height="217px"   width="436px" ><path stroke="rgb( 14, 5, 10 )" stroke-width="0px" stroke-linecap="butt" stroke-linejoin="miter" fill="rgb( 40, 183, 171 )" d="M416.536,215.701 C397.97,215.701 240.708,215.701 240.708,215.701 C240.708,215.701 240.708,3.898 240.708,3.898 C240.708,3.898 436,3.898 436,3.898 C436,3.898 436,195.56 436,195.56 C436,195.56 435.102,215.701 416.536,215.701 ZM412.643,182.566 C412.643,182.566 412.643,29.237 412.643,29.237 C412.643,29.237 264.065,29.237 264.065,29.237 C264.065,29.237 264.065,190.362 264.065,190.362 C264.065,190.362 404.208,190.362 404.208,190.362 C412.887,190.362 412.643,182.566 412.643,182.566 ZM378.905,167.623 C378.905,167.623 377.971,183.216 364.631,183.216 C364.631,183.216 323.107,183.216 323.107,183.216 C323.107,183.216 323.107,161.126 323.107,161.126 C323.107,161.126 351.655,161.126 351.655,161.126 C351.655,161.126 356.196,161.437 356.196,155.928 C356.196,155.928 356.196,107.201 356.196,107.201 C356.196,107.201 283.53,170.871 283.53,170.871 C283.53,170.871 283.53,139.686 283.53,139.686 C283.53,139.686 346.464,85.111 346.464,85.111 C346.464,85.111 271.851,85.111 271.851,85.111 C271.851,85.111 271.851,63.021 271.851,63.021 C271.851,63.021 356.196,63.021 356.196,63.021 C356.196,63.021 356.196,37.683 356.196,37.683 C356.196,37.683 378.905,37.683 378.905,37.683 C378.905,37.683 378.905,63.021 378.905,63.021 C378.905,63.021 404.857,63.021 404.857,63.021 C404.857,63.021 404.857,85.111 404.857,85.111 C404.857,85.111 378.905,85.111 378.905,85.111 C378.905,85.111 378.905,167.623 378.905,167.623 ZM105.756,168.272 C105.756,168.272 83.471,209.133 0,217 C0,217 0,192.311 0,192.311 C0,192.311 62.008,191.016 81.101,157.228 C81.101,157.228 1.298,157.228 1.298,157.228 C1.298,157.228 1.298,134.488 1.298,134.488 C1.298,134.488 90.833,134.488 90.833,134.488 C90.833,134.488 92.131,125.529 92.131,121.494 C92.131,121.494 118.083,121.494 118.083,121.494 C118.083,121.494 117.919,132.879 117.435,135.138 C117.435,135.138 209.565,135.138 209.565,135.138 C209.565,135.138 209.565,157.228 209.565,157.228 C209.565,157.228 127.167,157.228 127.167,157.228 C127.167,157.228 148.302,192.311 210.863,192.311 C210.863,192.311 210.863,216.35 210.863,216.35 C210.863,216.35 137.683,215.41 105.756,168.272 ZM1.298,96.805 C1.298,96.805 92.78,96.805 92.78,96.805 C92.78,96.805 92.78,82.512 92.78,82.512 C92.78,82.512 16.869,82.512 16.869,82.512 C16.869,82.512 16.869,61.072 16.869,61.072 C16.869,61.072 92.78,61.072 92.78,61.072 C92.78,61.072 92.78,47.428 92.78,47.428 C92.78,47.428 4.542,47.428 4.542,47.428 C4.542,47.428 4.542,25.338 4.542,25.338 C4.542,25.338 56.446,25.338 56.446,25.338 C56.446,25.338 41.524,0 41.524,0 C41.524,0 50.213,0 59.042,0 C67.87,0 72.018,8.446 72.018,8.446 C72.018,8.446 82.399,25.338 82.399,25.338 C82.399,25.338 129.762,25.338 129.762,25.338 C129.762,25.338 133.85,17.632 138.196,9.746 C142.543,1.859 149.875,0.65 149.875,0.65 C149.875,0.65 169.988,0.65 169.988,0.65 C169.988,0.65 155.065,25.338 155.065,25.338 C155.065,25.338 206.321,25.338 206.321,25.338 C206.321,25.338 206.321,46.778 206.321,46.778 C206.321,46.778 118.083,46.778 118.083,46.778 C118.083,46.778 118.083,61.072 118.083,61.072 C118.083,61.072 194.643,61.072 194.643,61.072 C194.643,61.072 194.643,81.862 194.643,81.862 C194.643,81.862 118.083,81.862 118.083,81.862 C118.083,81.862 118.083,96.156 118.083,96.156 C118.083,96.156 208.917,96.156 208.917,96.156 C208.917,96.156 208.917,117.596 208.917,117.596 C208.917,117.596 1.298,117.596 1.298,117.596 C1.298,117.596 1.298,96.805 1.298,96.805 Z "/></svg>