<?xml version="1.0" encoding="iso-8859-1"?>
<!-- Generator: Adobe Illustrator 15.1.0, SVG Export Plug-In . SVG Version: 6.00 Build 0)  -->
<!DOCTYPE svg PUBLIC "-//W3C//DTD SVG 1.1//EN" "http://www.w3.org/Graphics/SVG/1.1/DTD/svg11.dtd">
<svg version="1.1" id="Layer_1" xmlns="http://www.w3.org/2000/svg" xmlns:xlink="http://www.w3.org/1999/xlink" x="0px" y="0px"
	 width="128px" height="128px" viewBox="0 0 128 128" style="enable-background:new 0 0 128 128;" xml:space="preserve">
<g>
	<circle style="fill:#88C5CC;" cx="64" cy="64" r="64"/>
	<g>
		<g>
			<defs>
				<circle id="SVGID_1_" cx="64" cy="64" r="64"/>
			</defs>
			<clipPath id="SVGID_2_">
				<use xlink:href="#SVGID_1_"  style="overflow:visible;"/>
			</clipPath>
			<g style="clip-path:url(#SVGID_2_);">
				<path style="fill:#406A80;" d="M75.67,85.859L82.934,98h8.639c13.976,0,24.429,7.887,24.429,21.409V151H11v-31.591
					C11,105.887,20.014,98,33.988,98h8.59l8.986-11.915"/>
				<polygon style="fill:#395F73;" points="94.039,98 88.52,113.264 79.883,111.658 84.921,127.53 79.043,153 65.254,153 77.964,98 
									"/>
				<g>
					<path style="fill:#395F73;" d="M91.57,98h-4c13.977,0,24.43,7.887,24.43,21.409V151h4v-31.591C116,105.887,105.547,98,91.57,98
						z"/>
				</g>
				<rect x="53" y="87" style="fill:#CCCCCC;" width="21" height="68"/>
				<polygon style="fill:#242424;" points="55,90 55,107.533 59.66,115 67.34,115 72,107.533 72,90 				"/>
				<polygon style="fill:#242424;" points="67.34,115 72.857,145.23 63.5,166.061 54.143,145.208 59.66,115 				"/>
				<g>
					<polygon style="fill:#C23527;" points="56.359,133.213 68.691,154.573 70.148,151.337 57.16,128.84 					"/>
					<polygon style="fill:#C23527;" points="54.57,142.982 65.438,161.802 66.895,158.566 55.371,138.609 					"/>
					<polygon style="fill:#C23527;" points="63.639,165.795 62.374,163.604 63.5,166.104 					"/>
					<polygon style="fill:#C23527;" points="58.148,123.445 71.945,147.344 72.857,145.32 72.277,142.161 58.948,119.072 					"/>
					<polygon style="fill:#C23527;" points="60.805,115 70.373,131.664 68.83,123.186 64.13,115 					"/>
				</g>
				<polygon style="fill:#335466;" points="34.471,98 39.988,113.264 48.625,111.658 43.587,127.53 49.465,153 63.254,153 
					50.544,98 				"/>
				<polygon style="fill:#2D4A59;" points="50.544,98 48.544,98 61.254,153 63.254,153 				"/>
				<polygon style="fill:#335466;" points="92.039,98 86.52,113.264 77.883,111.658 82.921,127.53 77.043,153 63.254,153 75.964,98 
									"/>
				<polygon style="fill:#F5F5F5;" points="88.691,98.716 77.176,84.682 63.5,88.783 49.824,84.682 38.309,98.716 54.143,107.354 
					63.5,90.311 72.857,107.354 				"/>
				<g>
					<polygon style="fill:#CCCCCC;" points="61.346,86.387 50.828,105.545 54.143,107.354 63.5,90.311 					"/>
					<polygon style="fill:#CCCCCC;" points="77.176,84.682 73.719,85.718 84.384,98.716 71.863,105.545 72.857,107.354 
						88.691,98.716 					"/>
				</g>
				<path style="fill:#FFE1D9;" d="M63,90c-13.977,0-26-15.479-26-29c-3,0-4-2.227-4-4.931V45c0-2.705,4-3,4-3V31.597
					c0-8.113,1.434-14.372,21.662-14.372C78.893,2.546,99,16.918,89,31.597V42c0,0,4,0.295,4,3v11.069C93,58.773,91,61,89,61
					C89,74.521,76.977,90,63,90z"/>
				<path style="fill:#F2D6CE;" d="M73.287,11.222C84.168,12.478,90.559,21.971,84,31.597V42v19
					c0,12.736-10.512,27.203-23.413,28.842C61.384,89.943,62.188,90,63,90c13.977,0,26-15.479,26-29V42V31.597
					C96.51,20.573,87.037,9.724,73.287,11.222z"/>
				<path style="fill:#E78244;" d="M79.283,31.597C79.283,34.476,89,44.43,89,50.849c0-4.977,0-21.771,0-21.771L79.283,31.597z"/>
				<path style="fill:#D97A40;" d="M86,29.856c0,2.048,0,7.804,0,12.966c1.673,2.802,3,5.656,3,8.027c0-4.977,0-21.771,0-21.771
					L86,29.856z"/>
				<path style="fill:#E78244;" d="M58.508,17.225C38.279,17.225,37,23.484,37,31.597V53.19c0-15.835,18.648-11.516,22.967-28.791
					c2.879,8.638,23.301,14.602,28.791,7.198C99.363,17.297,78.736,2.546,58.508,17.225z"/>
				<g>
					<path style="fill:#D97A40;" d="M59.75,20.486C56.701,32.685,42.729,38.034,37,43.398v9.792
						c0-14.503,19.188-12.253,23.002-28.689C59.584,22.581,59.531,22.156,59.75,20.486z"/>
					<path style="fill:#D97A40;" d="M73.538,11.25c11.411,1.007,18.321,10.771,11.22,20.348c-1.436,1.936-3.896,2.951-6.795,3.25
						c4.559,0.426,8.73-0.467,10.795-3.25C96.658,20.945,87.225,10.051,73.538,11.25z"/>
				</g>
				<rect x="89" y="122" style="fill:#335466;" width="13" height="1"/>
			</g>
		</g>
	</g>
	<g>
		<g>
			<ellipse style="fill:#F5F5F5;" cx="53" cy="49" rx="4" ry="3"/>
			<circle style="fill:#2179A6;" cx="53" cy="49" r="2"/>
		</g>
		<g>
			<ellipse style="fill:#F5F5F5;" cx="73" cy="49" rx="4" ry="3"/>
			<circle style="fill:#2179A6;" cx="73" cy="49" r="2"/>
		</g>
	</g>
</g>
</svg>
