<?xml version="1.0" encoding="iso-8859-1"?>
<!-- Generator: Adobe Illustrator 17.0.0, SVG Export Plug-In . SVG Version: 6.00 Build 0)  -->
<!DOCTYPE svg PUBLIC "-//W3C//DTD SVG 1.1//EN" "http://www.w3.org/Graphics/SVG/1.1/DTD/svg11.dtd">
<svg version="1.1" xmlns="http://www.w3.org/2000/svg" xmlns:xlink="http://www.w3.org/1999/xlink" x="0px" y="0px" width="104px"
	 height="126px" viewBox="0 0 104 126" style="enable-background:new 0 0 104 126;" xml:space="preserve">
<g id="icons">
	<g>
		<g>
			<rect x="51" y="2" style="fill:#263740;" width="2" height="26"/>
			<path style="fill:#CCCCCC;" d="M0,126v-8c0-1.1,1.491-2,2.79-2h99.273c1.299,0,1.937,0.9,1.937,2v8H0z"/>
			<path style="fill:#B3B3B3;" d="M102.427,116h-4c1.1,0,1.573,0.9,1.573,2v8h4v-8C104,116.9,103.526,116,102.427,116z"/>
			<rect y="125" style="fill:#B3B3B3;" width="104" height="1"/>
			<rect x="20" y="58" style="fill:#406A80;" width="64" height="58"/>
			<rect x="15" y="62" style="fill:#E6E6E6;" width="12" height="50"/>
			<g>
				<rect x="24" y="62" style="fill:#CCCCCC;" width="2" height="50"/>
				<rect x="16" y="62" style="fill:#CCCCCC;" width="2" height="50"/>
				<rect x="20" y="62" style="fill:#CCCCCC;" width="2" height="50"/>
			</g>
			<rect x="77" y="62" style="fill:#E6E6E6;" width="12" height="50"/>
			<rect x="56" y="62" style="fill:#E6E6E6;" width="12" height="50"/>
			<rect x="36" y="62" style="fill:#E6E6E6;" width="12" height="50"/>
			<g>
				<path style="fill:#CCCCCC;" d="M14,116v-3c0-0.55,0.877-1,1.427-1h12c0.55,0,0.573,0.45,0.573,1v3H14z"/>
				<rect x="14" y="115" style="fill:#B3B3B3;" width="14" height="1"/>
			</g>
			<g>
				<path style="fill:#CCCCCC;" d="M35,116v-3c0-0.55,0.877-1,1.427-1h12c0.55,0,0.573,0.45,0.573,1v3H35z"/>
				<rect x="35" y="115" style="fill:#B3B3B3;" width="14" height="1"/>
			</g>
			<g>
				<path style="fill:#CCCCCC;" d="M55,116v-3c0-0.55,0.877-1,1.427-1h12c0.55,0,0.573,0.45,0.573,1v3H55z"/>
				<rect x="55" y="115" style="fill:#B3B3B3;" width="14" height="1"/>
			</g>
			<g>
				<path style="fill:#CCCCCC;" d="M76,116v-3c0-0.55,0.877-1,1.427-1h12c0.55,0,0.573,0.45,0.573,1v3H76z"/>
				<rect x="76" y="115" style="fill:#B3B3B3;" width="14" height="1"/>
			</g>
			<g>
				<path style="fill:#CCCCCC;" d="M14,58v3c0,0.55,0.877,1,1.427,1h12C27.977,62,28,61.55,28,61v-3H14z"/>
				<rect x="14" y="58" style="fill:#B3B3B3;" width="14" height="1"/>
			</g>
			<g>
				<path style="fill:#CCCCCC;" d="M35,58v3c0,0.55,0.877,1,1.427,1h12C48.977,62,49,61.55,49,61v-3H35z"/>
				<rect x="35" y="58" style="fill:#B3B3B3;" width="14" height="1"/>
			</g>
			<g>
				<path style="fill:#CCCCCC;" d="M55,58v3c0,0.55,0.877,1,1.427,1h12C68.977,62,69,61.55,69,61v-3H55z"/>
				<rect x="55" y="58" style="fill:#B3B3B3;" width="14" height="1"/>
			</g>
			<g>
				<path style="fill:#CCCCCC;" d="M76,58v3c0,0.55,0.877,1,1.427,1h12C89.977,62,90,61.55,90,61v-3H76z"/>
				<rect x="76" y="58" style="fill:#B3B3B3;" width="14" height="1"/>
			</g>
			<polygon style="fill:#B3B3B3;" points="52.427,24 6.427,54 52.427,54 98.427,54 			"/>
			<polygon style="fill:#F5F5F5;" points="19.883,50 52.427,28.775 84.971,50 			"/>
			<path style="fill:#F5F5F5;" d="M53.427,54c-0.55,0-1.45,0-2,0h-48C2.877,54,2,54.45,2,55v2c0,0.55,0.877,1,1.427,1h48
				c0.55,0,1.45,0,2,0h48c0.55,0,0.573-0.45,0.573-1v-2c0-0.55-0.023-1-0.573-1H53.427z"/>
			<circle style="fill:#263740;" cx="52.427" cy="2" r="2"/>
			<polygon style="fill:#F2CF61;" points="72.427,18 60,18 60,8 72.427,8 68.427,13 			"/>
			<rect x="52" y="4" style="fill:#F2CF61;" width="12" height="10"/>
			<polygon style="fill:#E6C45C;" points="64.427,14 60,14 60,18 			"/>
			<g>
				<rect x="45" y="62" style="fill:#CCCCCC;" width="2" height="50"/>
				<rect x="37" y="62" style="fill:#CCCCCC;" width="2" height="50"/>
				<rect x="41" y="62" style="fill:#CCCCCC;" width="2" height="50"/>
			</g>
			<g>
				<rect x="65" y="62" style="fill:#CCCCCC;" width="2" height="50"/>
				<rect x="57" y="62" style="fill:#CCCCCC;" width="2" height="50"/>
				<rect x="61" y="62" style="fill:#CCCCCC;" width="2" height="50"/>
			</g>
			<g>
				<rect x="86" y="62" style="fill:#CCCCCC;" width="2" height="50"/>
				<rect x="78" y="62" style="fill:#CCCCCC;" width="2" height="50"/>
				<rect x="82" y="62" style="fill:#CCCCCC;" width="2" height="50"/>
			</g>
		</g>
	</g>
</g>
<g id="header">
</g>
</svg>
