<?xml version="1.0" encoding="utf-8"?>
<!-- Generator: Adobe Illustrator 17.0.0, SVG Export Plug-In . SVG Version: 6.00 Build 0)  -->
<!DOCTYPE svg PUBLIC "-//W3C//DTD SVG 1.1//EN" "http://www.w3.org/Graphics/SVG/1.1/DTD/svg11.dtd">
<svg version="1.1" id="图层_1" xmlns="http://www.w3.org/2000/svg" xmlns:xlink="http://www.w3.org/1999/xlink" x="0px" y="0px"
	 width="36px" height="23.969px" viewBox="0 0 36 23.969" enable-background="new 0 0 36 23.969" xml:space="preserve">
<path fill="#18C628" d="M0,15.332c0.135-1.754,0.678-3.432,1.835-4.807c1.101-1.309,2.59-2.277,4.277-2.726
	c1.831-0.487,3.729-0.321,5.466,0.406c0.903,0.377,1.716,0.902,2.464,1.516c0.337,0.275,0.625,0.614,0.99,0.855
	c0.144,0.096,0.442,0.619,0.61,0.587c0.398,0.601,0.995,1.111,1.455,1.671c0.55,0.67,1.072,1.362,1.599,2.049
	c0.97,1.263,1.884,2.593,2.993,3.749c1.04,1.084,2.353,2.054,3.88,2.363c1.522,0.308,3.173-0.094,4.457-0.911
	c2.614-1.664,3.71-4.975,2.393-7.761c-0.654-1.384-1.777-2.532-3.214-3.166c-0.707-0.311-1.461-0.508-2.237-0.555
	c-0.407-0.024-0.815-0.013-1.221,0.012c-0.227,0.015-0.896,0.199-1.074,0.02c-0.181-0.183-0.177-0.72-0.231-0.962
	c-0.068-0.302-0.138-0.601-0.241-0.894c-0.199-0.567-0.49-1.104-0.859-1.585c-0.684-0.891-1.635-1.579-2.708-1.971
	c-2.395-0.873-5.192-0.142-6.805,1.783c-0.404,0.481-0.704,1.024-1.411,1.094c-0.647,0.063-1.265-0.207-1.559-0.779
	c-0.672-1.305,1.047-2.707,1.978-3.427c2.546-1.969,6.004-2.464,9.038-1.305c2.066,0.79,3.776,2.327,4.751,4.258
	c0.111,0.22,0.212,0.446,0.304,0.674c0.103,0.259,0.369,0.205,0.613,0.229c0.558,0.056,1.11,0.161,1.648,0.315
	c0.537,0.154,1.059,0.357,1.559,0.601c0.086,0.042,0.872,0.546,0.95,0.509c0.121,0.174,0.456,0.331,0.628,0.463
	c0.315,0.244,0.624,0.497,0.906,0.776c0.563,0.558,1.062,1.193,1.469,1.865c0.84,1.386,1.314,3.054,1.293,4.658
	c-0.037,2.898-1.513,5.588-3.922,7.302c-2.347,1.67-5.573,2.25-8.325,1.24c-3.179-1.167-5.194-3.834-7.107-6.401
	c-0.981-1.316-1.976-2.629-3.112-3.825c-1.03-1.085-2.226-2.155-3.705-2.615c-2.627-0.817-5.428,0.628-6.438,3.051
	c-1.176,2.82,0.61,6.05,3.62,6.823c1.254,0.322,2.617,0.156,3.769-0.412c0.571-0.281,1.089-0.66,1.522-1.117
	c0.457-0.481,1.031-0.755,1.702-0.538c0.892,0.289,1.33,1.285,0.84,2.09c-0.466,0.767-1.405,1.406-2.177,1.858
	c-1.534,0.9-3.353,1.303-5.138,1.128c-1.859-0.182-3.623-0.987-4.976-2.229C0.823,19.707,0.053,17.596,0,15.332
	C0.068,14.442,0.015,15.962,0,15.332z"/>
</svg>
