<?xml version="1.0" encoding="iso-8859-1"?>
<!-- Generator: Adobe Illustrator 17.0.0, SVG Export Plug-In . SVG Version: 6.00 Build 0)  -->
<!DOCTYPE svg PUBLIC "-//W3C//DTD SVG 1.1//EN" "http://www.w3.org/Graphics/SVG/1.1/DTD/svg11.dtd">
<svg version="1.1" xmlns="http://www.w3.org/2000/svg" xmlns:xlink="http://www.w3.org/1999/xlink" x="0px" y="0px" width="128px"
	 height="128px" viewBox="0 0 128 128" style="enable-background:new 0 0 128 128;" xml:space="preserve">
<g id="Layer_1">
</g>
<g id="Layer_2">
	<g>
		<path style="fill:#2D4452;" d="M64,0C28.654,0,0,28.654,0,64s28.654,64,64,64c35.346,0,64-28.654,64-64S99.346,0,64,0z"/>
		<path style="fill:#233540;" d="M117.149,96.873c-0.158-0.419-0.317-0.798-0.478-1.138c-0.12-0.318-0.241-0.618-0.363-0.888
			c-0.118-0.313-0.237-0.605-0.356-0.874c-0.168-0.444-0.336-0.844-0.504-1.202c-0.098-0.257-0.195-0.499-0.294-0.726
			c-0.358-1.249-0.731-2.335-1.11-3.174c-0.158-0.419-0.317-0.798-0.478-1.136c-0.12-0.319-0.241-0.619-0.363-0.89
			c-0.118-0.312-0.236-0.604-0.355-0.871c-0.168-0.445-0.336-0.846-0.504-1.204c-0.116-0.305-0.232-0.593-0.35-0.855
			c-0.163-0.431-0.326-0.819-0.49-1.166c-0.117-0.311-0.235-0.604-0.354-0.87c-0.119-0.317-0.239-0.61-0.359-0.882
			c-0.169-0.448-0.339-0.852-0.508-1.212c-0.111-0.293-0.224-0.568-0.336-0.822c-0.168-0.444-0.336-0.842-0.504-1.199
			c-0.116-0.309-0.234-0.6-0.353-0.864c-0.119-0.315-0.238-0.606-0.358-0.878c-0.171-0.45-0.341-0.858-0.511-1.221
			c-0.091-0.238-0.182-0.461-0.273-0.673c-0.359-1.244-0.733-2.326-1.109-3.172c-0.166-0.442-0.333-0.838-0.5-1.193
			c-0.118-0.311-0.236-0.605-0.355-0.871c-0.161-0.424-0.322-0.808-0.483-1.15c-0.12-0.317-0.241-0.618-0.362-0.887
			c-0.116-0.307-0.232-0.591-0.349-0.855c-0.171-0.452-0.342-0.86-0.512-1.223c-0.113-0.298-0.228-0.58-0.342-0.836
			c-0.165-0.438-0.331-0.831-0.497-1.184c-0.119-0.315-0.239-0.614-0.36-0.882c-0.117-0.31-0.235-0.598-0.354-0.865
			c-0.169-0.449-0.34-0.855-0.509-1.217c-0.109-0.286-0.219-0.555-0.328-0.803c-0.17-0.451-0.341-0.856-0.511-1.219
			c-0.115-0.302-0.231-0.587-0.347-0.847c-0.12-0.32-0.241-0.613-0.362-0.888c-0.087-0.229-0.174-0.45-0.261-0.657
			c-0.427-1.432-0.864-2.664-1.297-3.587c-0.109-0.286-0.219-0.554-0.328-0.802c-0.17-0.452-0.341-0.857-0.511-1.22
			c-0.115-0.304-0.231-0.59-0.348-0.851c-0.163-0.432-0.327-0.821-0.491-1.169c-0.119-0.317-0.24-0.617-0.361-0.886
			c-0.117-0.31-0.235-0.597-0.354-0.864c-0.169-0.448-0.339-0.853-0.508-1.214c-0.111-0.292-0.224-0.567-0.336-0.82
			c-0.166-0.44-0.332-0.836-0.499-1.191c-0.118-0.312-0.236-0.606-0.356-0.872c-0.119-0.315-0.238-0.605-0.357-0.876
			c-0.171-0.451-0.342-0.86-0.513-1.224c-0.11-0.29-0.221-0.561-0.332-0.812c-0.169-0.447-0.338-0.85-0.507-1.209
			c-0.095-0.249-0.189-0.482-0.284-0.702c-0.36-1.252-0.735-2.34-1.114-3.184c-0.118-0.312-0.236-0.602-0.355-0.871
			c-0.171-0.452-0.342-0.861-0.513-1.224c-0.109-0.288-0.221-0.559-0.331-0.809c-0.169-0.448-0.339-0.852-0.508-1.212
			c-0.113-0.298-0.227-0.578-0.341-0.834c-0.166-0.438-0.332-0.833-0.498-1.186c-0.114-0.303-0.23-0.589-0.347-0.849
			c-0.121-0.322-0.243-0.619-0.365-0.896c-0.17-0.45-0.341-0.857-0.51-1.219c-0.111-0.291-0.223-0.563-0.334-0.816
			c-0.168-0.446-0.337-0.847-0.506-1.206c-0.114-0.301-0.229-0.586-0.345-0.844c-0.121-0.32-0.242-0.614-0.363-0.89
			c-0.171-0.449-0.341-0.857-0.51-1.219c-0.111-0.292-0.223-0.564-0.334-0.816c-0.17-0.448-0.34-0.854-0.51-1.215
			c-0.11-0.292-0.223-0.566-0.335-0.819c-0.302-0.8-0.605-1.47-0.906-1.972h-3H44c-2.39,4-4.75,18.661-4.75,25
			c0,3.813,0.533,7.459,1.501,10.837c0.472,1.793,1.063,3.515,1.765,5.151c0.135,0.342,0.273,0.681,0.416,1.015
			c0.13,0.331,0.263,0.659,0.401,0.983c0.137,0.348,0.277,0.693,0.424,1.034c0.133,0.339,0.271,0.676,0.412,1.008
			c0.134,0.338,0.271,0.674,0.412,1.006c0.135,0.342,0.273,0.682,0.417,1.017c0.133,0.337,0.269,0.672,0.41,1.002
			c0.135,0.341,0.272,0.68,0.416,1.015c0.133,0.338,0.27,0.674,0.412,1.006c0.131,0.332,0.264,0.661,0.403,0.986
			c0.137,0.347,0.276,0.692,0.423,1.032c0.133,0.338,0.27,0.674,0.411,1.006c0.135,0.342,0.274,0.682,0.417,1.017
			c0.134,0.34,0.271,0.677,0.413,1.009c0.133,0.337,0.269,0.671,0.41,1.001c0.091,0.23,0.178,0.462,0.272,0.688
			c0.35,1.084,0.75,2.135,1.188,3.156c0.134,0.341,0.272,0.68,0.415,1.014c0.134,0.34,0.271,0.676,0.413,1.009
			c0.134,0.339,0.27,0.675,0.412,1.006c0.135,0.342,0.272,0.68,0.416,1.015c0.133,0.337,0.269,0.672,0.411,1.002
			c0.132,0.336,0.267,0.668,0.407,0.996c0.135,0.344,0.273,0.686,0.418,1.023c0.135,0.341,0.272,0.679,0.415,1.013
			c0.134,0.339,0.271,0.676,0.413,1.008c0.135,0.341,0.273,0.68,0.415,1.014c0.133,0.337,0.269,0.672,0.411,1.003
			c0.134,0.34,0.271,0.678,0.414,1.011c0.134,0.34,0.271,0.678,0.414,1.011c0.13,0.331,0.264,0.66,0.402,0.984
			c0.094,0.239,0.185,0.479,0.283,0.714c0.35,1.082,0.749,2.131,1.186,3.15c0.135,0.342,0.272,0.682,0.416,1.017
			c0.133,0.337,0.27,0.672,0.411,1.003c0.135,0.342,0.272,0.68,0.416,1.015c0.13,0.331,0.263,0.659,0.401,0.983
			c0.137,0.347,0.277,0.692,0.423,1.032c0.134,0.34,0.271,0.677,0.414,1.01c0.133,0.338,0.27,0.674,0.411,1.005
			c0.135,0.342,0.273,0.681,0.416,1.016c0.133,0.338,0.27,0.673,0.411,1.004c0.135,0.341,0.272,0.68,0.416,1.015
			c0.134,0.338,0.271,0.674,0.412,1.006c0.131,0.331,0.264,0.66,0.403,0.985c0.137,0.348,0.276,0.693,0.423,1.033
			c0.069,0.175,0.135,0.353,0.206,0.526V111H48c-0.553,0-1,0.448-1,1c0,0.263,0.106,0.498,0.272,0.677
			c-0.036,0.102-0.065,0.208-0.065,0.323c0,0.345,0.186,0.634,0.451,0.814c-0.012,0.062-0.037,0.12-0.037,0.186
			c0,0.345,0.186,0.634,0.451,0.814c-0.012,0.062-0.037,0.12-0.037,0.186c0,0.345,0.186,0.634,0.451,0.813
			c-0.013,0.062-0.038,0.121-0.038,0.187c0,0.345,0.186,0.634,0.451,0.814c-0.012,0.062-0.037,0.12-0.037,0.186
			c0,0.345,0.186,0.634,0.451,0.814c-0.012,0.062-0.037,0.12-0.037,0.186c0,0.345,0.186,0.634,0.451,0.814
			c-0.012,0.062-0.037,0.12-0.037,0.186c0,0.345,0.186,0.634,0.451,0.814c-0.012,0.062-0.037,0.12-0.037,0.186
			c0,0.345,0.186,0.634,0.451,0.814c-0.012,0.062-0.037,0.12-0.037,0.186c0,0.345,0.185,0.634,0.451,0.814
			c-0.012,0.062-0.037,0.12-0.037,0.186c0,0.345,0.186,0.634,0.451,0.814c-0.012,0.062-0.037,0.12-0.037,0.186
			c0,0.345,0.186,0.634,0.45,0.813c-0.012,0.062-0.037,0.121-0.037,0.187c0,0.345,0.186,0.634,0.451,0.814
			c-0.012,0.062-0.037,0.12-0.037,0.186c0,0.345,0.186,0.634,0.451,0.814c-0.012,0.062-0.037,0.12-0.037,0.186
			c0,0.345,0.186,0.634,0.451,0.814c-0.012,0.062-0.037,0.12-0.037,0.186c0,0.014,0.005,0.026,0.006,0.04
			C56.581,127.659,60.25,128,64,128c22.612,0,42.471-11.738,53.854-29.442c-0.113-0.281-0.227-0.55-0.34-0.792
			C117.394,97.447,117.272,97.145,117.149,96.873z"/>
		<g>
			<path style="fill:#F5F5F5;" d="M80,110.706H65V71c0-0.552-0.447-1-1-1c-0.553,0-1,0.448-1,1v39.706H48c-0.553,0-1,0.448-1,1
				s0.447,1,1,1h32c0.553,0,1-0.448,1-1S80.553,110.706,80,110.706z"/>
			<path style="fill:#F5F5F5;" d="M89,39.706c0-6-2.603-21-5-25H44c-2.39,4-5,19-5,25H89z"/>
			<path style="fill:#E6E6E6;" d="M84,14.706h-3c2.397,4,5,19,5,25h3C89,33.706,86.397,18.706,84,14.706z"/>
			<path style="fill:#C23527;" d="M39,39.706c0,18,11.491,32,25,32c13.518,0,25-14,25-32H39z"/>
			<path style="fill:#B33124;" d="M86,39.706c0,17-10.645,31.08-23.5,32.082c0.497,0.039,0.997-0.009,1.5-0.009
				c13.518,0,25-14.074,25-32.074H86z"/>
			<path style="fill:#FFFFFF;" d="M43.746,31.706h8.101c0.22-1,0.47-2.605,0.737-3.936l-8.06-0.548
				C44.235,28.728,43.971,30.706,43.746,31.706z"/>
			<path style="opacity:0.2;fill:#FFFFFF;" d="M52.774,49.698l-7.103,3.738c1.787,4.231,4.371,7.824,7.462,10.382l6.195-5.37
				C56.71,56.723,54.316,53.653,52.774,49.698z"/>
			<path style="opacity:0.2;fill:#FFFFFF;" d="M52.058,47.54c-0.312-1.086-0.574-2.215-0.751-3.398l-8.009,0.422
				c0.227,1.762,0.581,3.474,1.052,5.117L52.058,47.54z"/>
		</g>
	</g>
</g>
</svg>
