<?xml version="1.0" encoding="utf-8"?>
<!-- Generator: Adobe Illustrator 17.0.0, SVG Export Plug-In . SVG Version: 6.00 Build 0)  -->
<!DOCTYPE svg PUBLIC "-//W3C//DTD SVG 1.1//EN" "http://www.w3.org/Graphics/SVG/1.1/DTD/svg11.dtd">
<svg version="1.1" id="图层_1" xmlns="http://www.w3.org/2000/svg" xmlns:xlink="http://www.w3.org/1999/xlink" x="0px" y="0px"
	 width="225.959px" height="216.597px" viewBox="0 0 225.959 216.597" enable-background="new 0 0 225.959 216.597"
	 xml:space="preserve">
<path fill="#FF4545" d="M111.544,0c4.172,2.126,8.198,3.754,11.775,6.075c15.491,10.049,31.071,19.986,46.19,30.575
	c12.67,8.874,24.539,18.902,34.821,30.508c9.363,10.568,16.583,22.552,20.191,36.402c0.61,2.342,0.889,4.801,1.052,7.224
	c0.874,12.949,0.291,25.713-2.046,38.613c-2.876,15.874-9.332,29.724-19.321,42.061c-7.11,8.782-15.986,15.535-26.204,20.368
	c-2.604,1.231-5.566,1.94-8.439,2.329c-14.466,1.956-28.868,2.19-43.002-2.336c-2.09-0.669-4.224-1.218-6.362-1.72
	c-5.038-1.182-9.873-0.681-14.87,0.889c-11.2,3.518-22.567,6.437-34.516,5.397c-15.177-1.321-28.987-6.25-41.351-15.271
	c-12.596-9.193-20.961-21.437-26.286-35.887c-2.393-6.496-2.602-13.37-2.985-20.215c-0.862-15.414,1.145-30.367,6.774-44.774
	c5.459-13.974,13.707-25.949,24.032-36.961c9.729-10.378,20.829-18.627,32.688-26.072C73.808,30.85,84.24,24.989,94.368,18.644
	c3.908-2.448,7.431-5.539,10.993-8.501C108.408,7.606,110.65,4.437,111.544,0z M19.93,115.689c1.174,0.609,2.656,0.949,3.469,1.876
	c3.079,3.51,2.713,7.651-0.642,11.354c-0.879,0.97-1.533,2.144-2.556,3.605c1.034,0,1.318,0.087,1.5-0.013
	c5.9-3.234,12.077-6.071,17.595-9.864c4.649-3.195,8.579-7.455,12.7-11.378c0.583-0.555,0.814-2.588,0.58-2.709
	c-1.187-0.608-2.585-1.034-3.901-1.012c-0.383,0.006-0.905,1.669-1.076,2.623c-0.737,4.121-3.031,7.361-6.426,7.703
	c-3.485,0.351-7.047-0.06-10.488-0.136c-0.093-1.811-0.205-3.012-0.208-4.214c-0.01-4.021,0.263-7.997,2.687-11.439
	c3.008-4.271,7.802-4.925,11.113-1.111c2.275,2.622,5.151,3.498,8.156,4.486c1.517,0.498,2.376,0.124,3.123-1.314
	c2.937-5.652,2.355-10.262-1.966-14.96c-1.812-1.971-3.543-4.016-5.06-5.742c1.977,0.359,3.957,0.944,5.956,1.022
	c2.423,0.095,3.413-1.922,4.753-3.615c2.179-2.755,5.352-3.674,8.791-2.974c3.043,0.62,4.686,2.777,5.293,5.732
	c0.409,1.989,0.609,4.027,1.123,5.986c0.172,0.656,1.025,1.133,1.566,1.692c0.183-0.694,0.672-1.475,0.502-2.067
	c-1.826-6.369-1.398-12.746-0.086-19.097c0.378-1.829,0.016-2.7-1.797-3.208c-7.761-2.175-12.71-6.981-13.909-15.192
	c-0.024-0.161-0.056-0.321-0.097-0.479c-0.631-2.429-1.3-2.922-3.342-1.405c-3.233,2.401-6.753,4.807-9.046,8.003
	c-4.641,6.469-8.272,13.505-2.987,21.543c0.027,0.041-0.035,0.142-0.058,0.222c-0.137-0.044-0.292-0.059-0.409-0.134
	c-2.232-1.417-5.232-1.044-7.23,0.923c-2.065,2.035,0.413,3.012,1.135,4.246c2.364,4.043,1.797,7.698-1.954,10.171
	c-2.307,1.521-4.753,2.831-7.111,4.277c-1.053,0.646-2.043,1.394-3.341,2.287c-0.379-1.419-0.56-2.372-0.889-3.27
	c-0.64-1.747-1.142-3.599-2.098-5.165c-1.915-3.132-2.708-3.065-4.816-0.122c-4.175,5.831-6.182,12.492-7.559,19.413
	c-0.352,1.771,0.537,1.985,1.989,2.166c2.385,0.299,4.734,0.887,7.101,1.354c-1.083,0.092-2.166,0.184-3.25,0.275
	c0.18,1.057,0.267,2.141,0.56,3.166c0.688,2.404,1.484,4.778,2.22,7.17c0.583,1.896,1.315,2.124,2.59,0.669
	c0.572-0.652,1.046-1.454,1.346-2.269C24.742,121.332,23.668,118.664,19.93,115.689z M170.069,76.053
	c-2.666,0.121-5.164,0.499-6.259,2.833c-1.465,3.12-2.832,6.425-3.389,9.792c-0.574,3.462,0.121,6.797,3.703,9.069
	c1.97,1.249,3.557,3.384,4.803,5.431c2.112,3.47,3.086,4.241,7.161,3.709c1.845-0.241,3.675-0.701,5.469-1.21
	c4.817-1.366,9.671-2.147,14.708-1.638c4.521,0.457,4.529,0.379,5.699-3.367c3.324-1.321,6.485-2.577,9.7-3.853
	c-1.538-2.462-2.345-2.725-7.341-2.381c1.229-0.484,1.867-0.831,2.549-0.988c3.53-0.815,3.932-1.246,1.806-4.182
	c-6.337-8.752-12.824-17.402-19.482-25.913c-1.975-2.525-4.667-4.505-7.115-6.639c-1.216-1.06-2.458-1.017-2.979,0.776
	c-1.354,4.653-4.646,7.941-7.787,11.361c-1.214,1.321-2.243,2.812-3.48,4.383c3.285,0.961,4.692,0.586,6.532-1.549
	c5.256-6.101,12.712-2.873,15.127,1.431c2.555,4.552,2.264,9.82,2.981,15.349c-5.41-2.394-10.26-1.346-15.192,0.067
	c-4.265,1.221-8.42-2.326-8.233-6.858C169.121,79.923,169.665,78.189,170.069,76.053z M202.038,129.741
	c3.773,1.577,7.12,3.445,9.384,6.868c0.179,0.271,1.33-0.103,2.537-0.23c-0.649,1.958-1.22,3.858-1.91,5.713
	c-0.718,1.933,0.376,3.157,1.831,3.692c1.575,0.58,2.56-0.539,2.763-2.157c0.394-3.143,0.892-6.283,1.093-9.44
	c0.402-6.313-0.641-12.236-4.577-17.512c-4.755-6.373-10.627-10.68-18.78-11.246c-1.231-0.085-2.483,0.118-3.888,0.196
	c0.728,2.822,2.163,3.918,4.669,3.864c1.848-0.04,3.968-0.111,4.568,2.292c1.094,4.372,0.702,8.899-2.742,11.76
	c-3.764,3.127-8.435,5.162-12.81,7.731c-0.63-2.303-0.958-4.072-1.606-5.716c-0.682-1.732-1.708-3.326-2.516-5.013
	c-2.552-5.331,0.14-10.328,5.935-11.14c0.946-0.132,1.855-0.525,3.024-0.869c-2.184-1.872-2.726-1.869-4.995-1.483
	c-3.268,0.557-6.609,1.389-9.856,1.17c-3.275-0.221-5.854-0.061-7.675,3.003c-0.425,0.714-1.312,1.225-2.086,1.645
	c-1.497,0.813-3.207,1.306-4.547,2.309c-0.731,0.547-1.129,1.854-1.182,2.844c-0.021,0.41,1.273,1.279,1.943,1.254
	c1.496-0.053,3.075-0.305,4.445-0.888c5.106-2.172,7.245-1.157,8.909,4.137c1.679,5.34,0.586,10.473-0.829,15.598
	c-0.46,1.667-0.188,2.741,1.392,3.633c1.107,0.625,2.41,1.459,2.892,2.529c1.193,2.65,3.284,3.115,5.744,3.037
	c2.226-0.071,4.97,0.548,6.575-0.514c5.211-3.445,10.632-4.159,16.553-3.004c0.95,0.186,1.965,0.026,2.951,0.026
	c0.065-0.298,0.131-0.596,0.196-0.893c-1.11-0.418-2.251-0.772-3.326-1.266c-2.029-0.931-4.68-1.446-5.876-3.035
	c-1.873-2.488-2.754-5.723-4.133-8.818c2.478-0.746,4.84-1.633,7.281-2.136c1.87-0.386,3.858-0.49,5.757-0.319
	c0.938,0.085,1.792,1.074,2.685,1.654c-0.115,0.23-0.231,0.46-0.346,0.689C208.319,126.894,205.206,127.918,202.038,129.741z
	 M133.635,75.104c0.966-3.249-0.174-6.473-2.855-8.755c-6.034-5.138-15.043-4.885-22.022,0.633c-2.498,1.975-4.559,4.305-4.7,7.656
	c-0.209,4.933,1.64,9.281,4.544,13.119c2.519,3.326,5.908,5.54,10.256,5.111c4.344-0.428,8.642-1.31,12.96-1.999
	c1.215-0.194,2.427-0.413,3.64-0.622c-0.209,0.232-0.418,0.463-0.627,0.694c1.25,4.154,2.171,8.443,3.819,12.432
	c3.323,8.042,15.421,12.246,23.139,8.227c1.35-0.703,2.402-1.978,3.593-2.989c-3.606-1.163-7.123-0.202-10.028-2.849
	c2.902-0.151,5.498-0.139,8.051-0.459c2.646-0.331,2.721-0.87,1.153-3.06c-3.097-4.323-7.787-6.325-12.328-8.469
	c-6.186-2.919-12.499-5.554-17.259-10.779c-0.462-0.507-1.809-0.6-2.588-0.365c-4.907,1.479-9.812,1.352-14.709,0.146
	c-3.006-0.74-5.793-1.955-7.925-5.003c1.535-1.025,2.775-2.068,4.189-2.757C120.475,71.832,127.102,72.08,133.635,75.104z
	 M24.593,168.372c-0.346-1.346-0.29-2.86-1.018-3.643c-2.431-2.613-5.148-4.959-7.746-7.418c-1.618-1.533-3.082-0.941-3.554,0.819
	c-0.635,2.368-1.356,5.067-0.812,7.329c1.488,6.186,4.038,12.031,7.889,17.189c2.948,3.948,3.849,4.074,7.913,1.471
	c4.554-2.916,7.637-2.39,10.954,1.869c2.516,3.23,5.752,3.826,9.225,1.698c2.848-1.746,5.219-7.919,4.248-11.06
	c-0.901-2.917-5.227-4.032-7.523-2.035c-1.347,1.171-2.887,2.12-4.848,3.537c0-1.692,0-2.602,0-3.996
	c-1.789,1.085-3.218,1.952-5.252,3.185c1.095-2.791,1.89-4.815,2.684-6.84c-0.217-0.202-0.436-0.404-0.653-0.606
	c-2.242,1.103-4.484,2.206-7.14,3.513c1.1-2.501,2.012-4.575,2.924-6.65c-0.194-0.237-0.39-0.475-0.584-0.713
	C28.998,166.827,26.698,167.634,24.593,168.372z M163.577,195.325c1.892,0.289,3.072,0.623,4.253,0.624
	c5.565,0.004,11.03,0.494,16.293,2.517c0.775,0.298,2.048,0.218,2.701-0.24c3.116-2.188,6.125-4.535,9.119-6.892
	c1.876-1.477,2.682-3.568,1.382-5.602c-3.484-5.446-7.17-10.768-10.938-16.022c-0.544-0.758-1.983-0.872-2.46-1.064
	c-0.814,3.774-1.05,7.309-2.382,10.366c-1.359,3.122-3.795,5.776-6.087,9.111c-3.903-3.123-7.586-6.069-11.313-9.05
	c0.101-0.081-0.105-0.001-0.131,0.117c-0.583,2.779-1.131,5.566-1.72,8.345c-0.973,4.587-0.983,4.583,3.597,4.133
	c0.088-0.009,0.198,0.194,0.379,0.384C165.538,192.944,164.793,193.848,163.577,195.325z M57.832,126.547
	c0.408,0.276,0.816,0.552,1.225,0.829c0.599-0.966,1.064-2.053,1.818-2.876c5.534-6.053,10.932-12.251,16.761-18.008
	c4.701-4.644,4.878-4.37,2.099-10.405c-0.925-2.008-2.11-2.532-4.233-2.084c-3.005,0.633-6.089,0.878-9.12,1.402
	c-2.33,0.403-3.975-0.558-5.177-2.386c-0.934-1.419-1.65-2.98-2.558-4.418c-0.252-0.399-0.843-0.582-1.279-0.863
	c-0.258,0.47-0.795,0.992-0.72,1.401c0.201,1.096,0.491,2.248,1.054,3.193c2.648,4.439,2.377,8.948,0.002,13.238
	c-2.068,3.734-4.669,7.172-6.986,10.771c-0.41,0.637-0.585,1.426-0.869,2.145c0.722,0.253,1.435,0.535,2.168,0.743
	c0.301,0.085,0.646,0.017,0.971,0.01c3.067-0.064,4.267,0.954,4.626,4.005C57.743,124.338,57.763,125.446,57.832,126.547z
	 M206.538,166.826c-4.712-0.844-8.639-1.663-12.601-2.218c-3.039-0.426-4.578-2.312-5.411-4.941
	c-0.814-2.569-0.617-5.124,1.612-6.922c1.676-1.354,3.585-2.472,5.521-3.433c1.549-0.768,2.842-1.508,2.849-3.586
	c-0.527-0.092-0.988-0.252-1.444-0.239c-5.762,0.173-12.143,7.501-11.692,13.534c0.37,4.948,2.374,9.224,5.566,13.018
	c2.302,2.737,4.556,5.535,6.597,8.468c2.351,3.377,2.835,3.484,5.25,0.22c0.242-0.327,0.478-0.66,0.692-1.006
	c5.311-8.585,8.683-17.989,11.513-27.603c0.199-0.678-0.414-2.121-1.033-2.425c-3.33-1.634-6.723-3.201-10.238-4.348
	c-0.737-0.24-2.081,1.376-3.145,2.136c0.608,0.724,1.075,1.73,1.85,2.119c2.81,1.411,4.061,3.51,3.883,6.677
	c-0.123,2.178,0.164,4.378,0.225,6.57C206.571,164.328,206.538,165.811,206.538,166.826z M69.944,138.424
	c-0.842,0.318-1.187,0.355-1.4,0.543c-5.795,5.095-11.665,10.11-17.33,15.347c-4.011,3.708-3.325,7.82,1.229,10.893
	c5.648,3.81,11.144,7.844,16.717,11.765c0.43,0.303,0.954,0.474,1.857,0.911c-0.25-1.417-0.358-2.444-0.619-3.43
	c-0.937-3.531-2.104-7.012-2.856-10.581c-1.554-7.372-0.012-14.549,1.733-21.689C69.546,141.075,69.68,139.934,69.944,138.424z
	 M147.95,46.814c-0.097-0.268-0.194-0.537-0.292-0.806c-1.673,0.439-3.399,0.74-5.007,1.349c-2.939,1.112-2.787,1.229-1.402,3.915
	c4.542,8.811,6.055,14.854-1.648,23.144c-0.697,0.751-1.118,2.048-1.126,3.095c-0.021,2.935,0.98,5.553,3.017,7.77
	c1.322,1.438,2.182,1.517,3.312-0.292c2.379-3.808,5.734-4.625,9.602-2.373c1.781,1.037,3.393,0.826,4.712-0.405
	c1.977-1.843,3.154-4.216,3.705-7.155c-1.023-0.162-1.797-0.384-2.573-0.389c-2.684-0.017-5.372-0.032-8.052,0.098
	c-1.923,0.093-2.694-0.668-2.467-2.559c0.386-3.218,0.417-6.522,1.207-9.635c0.671-2.651,0.465-4.054-2.274-5.273
	c-4.016-1.787-4.582-6.179-1.583-9.4C147.395,47.56,147.662,47.177,147.95,46.814z M108.951,147.766
	c0.591,4.036,0.686,7.361,1.627,10.426c1.105,3.599,2.624,7.164,4.554,10.389c2.006,3.351,5.226,3.294,7.459,0.12
	c2.188-3.11,4.132-6.401,6-9.715c0.249-0.441-0.361-1.751-0.933-2.209c-5.17-4.14-9.668-8.88-13.371-14.376
	c-1.193-1.773-2.507-1.935-3.503-0.072C109.791,144.195,109.396,146.381,108.951,147.766z M140.747,130.895
	c-0.308-2.02-0.749-4.887-1.182-7.757c-0.279-1.847-1.175-2.262-3.064-1.904c-3.97,0.752-7.99,1.353-12.017,1.65
	c-3.552,0.261-4.284,1.08-2.993,4.466c0.259,0.679,0.622,1.319,0.955,1.968c2.759,5.374,6.867,9.608,11.39,13.497
	c2.267,1.949,3.371,1.819,4.885-0.805c0.516-0.894,0.89-1.938,1.05-2.958C140.15,136.656,140.361,134.232,140.747,130.895z
	 M143.811,174.764c-0.212-0.018-0.425-0.038-0.637-0.056c-0.977,2.654-1.87,5.342-2.946,7.955
	c-3.503,8.512-8.479,15.747-17.307,19.57c-1.658,0.718-1.352,1.638-0.092,2.443c0.744,0.474,1.575,0.87,2.421,1.111
	c7.283,2.076,15.161-1.593,17.779-8.677C145.735,189.793,144.556,182.24,143.811,174.764z M107.204,38.719
	c3.849,0,7.229-0.056,10.608,0.016c3.124,0.067,3.564-0.409,2.727-3.533c-1.033-3.848-2.038-7.707-3.218-11.51
	c-0.67-2.163-1.603-4.252-2.53-6.324c-0.874-1.957-1.916-1.736-3.56-0.509c-3.884,2.897-7.993,5.493-11.996,8.232
	c-0.749,0.513-1.431,1.125-2.143,1.69c0.098,0.293,0.195,0.586,0.293,0.879c1.066-0.133,2.172-0.13,3.192-0.424
	c2.443-0.706,5.021-2.579,7.315-0.354c2.209,2.14,1.11,5.028,0.57,7.625C108.206,35.742,107.745,36.936,107.204,38.719z
	 M76.567,199.73c-0.294-0.103-0.588-0.207-0.883-0.31c-1.031,1.731-2.145,3.421-3.074,5.207c-1.264,2.426-1.051,2.774,1.431,3.704
	c3.808,1.426,7.707,1.883,11.73,1.298c4.851-0.705,9.968-0.416,14.143-3.665c0.775-0.604,1.358-1.453,2.03-2.188
	c-0.814-0.459-1.602-0.976-2.447-1.368c-4.692-2.173-9.397-4.318-14.099-6.469c-0.976-0.447-1.959-0.883-3.34-1.505
	c-0.169,4.683-0.835,8.744-5.115,11.611C76.799,203.627,76.684,201.679,76.567,199.73z M158.821,54.415
	c0.27,0.303,0.354,0.467,0.487,0.531c0.29,0.139,0.597,0.275,0.912,0.329c3.675,0.633,6.741,2.198,8.935,5.37
	c0.484,0.699,1.55,1.261,2.415,1.375c2.054,0.273,4.935-1.531,5.743-3.4c1.039-2.403,1.299-4.92-0.812-6.778
	c-5.003-4.402-10.467-8.178-17.424-8.384c-2.664-0.079-5.643-0.399-7.949,1.909c1.05,0.299,2.062-0.016,3.031,0.084
	c1.681,0.174,3.62,0.172,4.931,1.034c1.748,1.149,1.427,3.276,0.787,5.137C159.539,52.598,159.147,53.556,158.821,54.415z
	 M138.622,206.575c-0.003,0.29-0.007,0.58-0.01,0.872c1.013,0.371,2.005,0.986,3.042,1.073c5.56,0.467,11.155,1.29,16.691,1.017
	c3.767-0.185,7.483-1.883,11.155-3.105c0.736-0.245,1.264-1.353,1.655-2.173c0.071-0.15-0.922-1.034-1.539-1.248
	c-5.639-1.951-11.303-3.459-17.374-1.861C147.448,202.411,142.848,204.021,138.622,206.575z M29.141,144.069
	c0.17,4.491,0.78,7.355,3.23,9.553c1.17,1.049,2.066,1.011,3.034-0.259c1.33-1.744,2.888-3.329,4.079-5.158
	c0.512-0.786,0.717-2.142,0.412-3.011c-0.611-1.742-0.59-3.258,0.743-4.483c1.992-1.833,1.82-3.839,0.786-5.984
	c-1.119-2.32-2.888-3.901-5.567-3.439c-1.177,0.203-2.8,1.081-3.184,2.058C31.142,137.249,30.019,141.312,29.141,144.069z
	 M67.867,196.349c0.037-6.389-5.974-15.257-11.485-17.287c-0.394-0.145-1.499,0.471-1.594,0.889
	c-0.431,1.891-0.705,3.83-0.872,5.766c-0.256,2.959,1.25,4.868,4.205,5.549c5.066,1.168,6.412,4.337,3.647,8.821
	c-0.802,1.303-1.957,2.385-2.827,3.652c-0.55,0.8-0.873,1.756-1.299,2.643c1.136,0.271,2.262,0.667,3.412,0.756
	c0.562,0.044,1.205-0.429,1.747-0.769C66.693,203.927,67.535,200.001,67.867,196.349z M113.875,188.999
	c-0.196,0.039-0.392,0.079-0.587,0.118c-0.781-0.954-1.562-1.909-2.723-3.328c-0.674,2.431-1.179,4.256-1.852,6.685
	c-1.959-1.71-3.608-3.149-5.694-4.97c-0.516,2.588-0.954,4.784-1.442,7.231c-2.316-1.742-4.344-3.267-7.012-5.273
	c-0.135,2.276-0.354,3.767-0.287,5.243c0.164,3.505,1.253,4.68,4.669,4.409c5.933-0.472,11.636-2.104,16.221-5.976
	c1.816-1.533,3.47-4.295,3.524-6.537c0.04-1.684-2.595-3.431-4.038-5.15c-0.26,0.145-0.519,0.289-0.779,0.434
	C113.875,184.257,113.875,186.627,113.875,188.999z M81.735,169.941c-3.377,3.686-2.956,6.802,0.996,8.742
	c6.083,2.986,12.461,3.565,18.939,1.565c1.399-0.432,3.294-1.514,3.615-2.671c0.534-1.919-0.17-4.088-1.874-5.969
	c-1.318,1.679-2.471,3.147-3.768,4.798c-1.171-1.972-2.13-3.587-3.273-5.511c-1.318,1.917-2.325,3.383-3.53,5.136
	c-1.343-2.038-2.42-3.673-3.713-5.634c-1.26,1.789-2.264,3.213-3.38,4.799C84.342,173.355,83.061,171.678,81.735,169.941z
	 M167.458,128.456c-0.443,1.209-0.802,1.896-0.944,2.624c-0.904,4.628-1.767,9.262-2.632,13.897
	c-2.596,13.911-5.212,27.818-7.745,41.74c-0.331,1.82-0.223,3.721-0.34,6.017C159.814,189.911,170.179,132.704,167.458,128.456z
	 M8.431,148.992c0.725-0.444,1.008-0.519,1.12-0.7c2.353-3.775,4.742-7.53,7.006-11.359c1.936-3.275,1.384-4.937-2.029-6.723
	c-0.933-0.488-1.889-0.931-2.844-1.376c-3.215-1.497-4.265-1.069-4.441,2.538c-0.232,4.76-0.046,9.545,0.1,14.315
	C7.374,146.718,7.998,147.731,8.431,148.992z M184.351,165.403c-0.098-0.915-0.093-1.803-0.299-2.641
	c-0.766-3.115-0.587-6.128,0.766-9.057c0.375-0.811,0.722-1.637,1.034-2.474c0.45-1.209,0.044-1.847-1.29-1.934
	c-1.956-0.127-2.199,1.021-2.273,2.617c-0.275,5.925-1.976,7.723-7.845,8.497c-0.968,0.127-1.945,0.182-2.917,0.27
	c-3.278,0.295-6.231,3.907-5.567,8.538C171.387,164.683,177.843,166.158,184.351,165.403z M187.706,111.155
	c-5.629,0.072-8.025,3.397-6.096,8.685c0.631,1.729,1.604,3.371,2.632,4.91c1.199,1.791,2.515,1.884,3.566,0.057
	c1.565-2.721,3.055-5.566,3.998-8.542C192.972,112.585,191.577,111.105,187.706,111.155z M42.491,68.277
	c0-0.018,0.086-0.763-0.026-1.477c-0.095-0.602-0.312-1.562-0.667-1.658c-0.579-0.156-1.537,0.046-1.946,0.471
	c-3.718,3.86-7.381,7.777-10.961,11.766c-0.309,0.344-0.11,1.804,0.195,1.932c1.903,0.801,3.687,1.543,6.026,0.683
	c4.943-1.819,7.715-4.806,7.228-10.277C42.319,69.479,42.387,69.233,42.491,68.277z M186.819,83.653
	c-1.212-3.138-6.922-7.462-10.054-7.647c-2.547-0.15-4.638,1.045-5.577,3.168c-0.576,1.302-0.236,3.342,0.372,4.76
	c1.06,2.47,3.54,2.354,5.711,1.958C180.433,85.313,183.54,84.438,186.819,83.653z M80.684,148.879
	c-2.247,1.966-3.909,3.347-5.48,4.823c-0.957,0.9-0.885,1.923,0.234,2.66c4.723,3.108,9.716,5.556,15.502,5.775
	c0.691,0.026,1.646-0.376,2.064-0.906c1.132-1.436,0.751-5.197-0.614-6.898c-1.444,1.301-2.882,2.597-4.441,4.002
	c-0.576-1.756-1.016-3.097-1.568-4.783c-1.588,1.315-2.857,2.365-4.389,3.633C81.555,154.412,81.178,152.02,80.684,148.879z
	 M123.026,27.464c0.201-0.044,0.498-0.021,0.652-0.157c3.464-3.077,7.054-3.832,11.006-0.817c0.361,0.275,1.271-0.169,1.925-0.28
	c-0.271-0.601-0.379-1.421-0.84-1.763c-1.763-1.305-3.614-2.498-5.48-3.655c-3.11-1.928-6.241-3.823-9.403-5.662
	c-0.506-0.294-1.254-0.377-1.823-0.25c-0.212,0.047-0.46,1.053-0.302,1.479C120.127,20.063,121.581,23.737,123.026,27.464z
	 M157.888,73.211c5.75,0.019,9.687-3.121,9.412-7.251c-0.045-0.686-0.901-1.759-1.54-1.891c-4.093-0.846-10.085,1.999-12.186,5.591
	c-1.267,2.168-0.951,2.888,1.451,3.22C156.148,73.036,157.279,73.142,157.888,73.211z M144.27,131.284
	c1.216-0.926,1.935-1.403,2.572-1.971c2.366-2.106,4.708-4.24,7.054-6.37c0.542-0.491,1.319-0.919,1.529-1.533
	c0.34-0.995,0.492-2.157,0.303-3.169c-0.057-0.302-1.561-0.589-2.33-0.456c-2.882,0.499-5.757,1.089-8.581,1.847
	c-0.642,0.172-1.541,1.177-1.512,1.758C143.459,124.456,143.873,127.509,144.27,131.284z M32.504,113.324
	c0.721-0.297,1.123-0.384,1.431-0.603c3.155-2.229,6.352-4.408,9.387-6.792c0.563-0.442,0.879-1.915,0.587-2.608
	c-1.483-3.531-5.981-4.337-8.675-1.586C32.132,104.904,31.61,108.764,32.504,113.324z M113.603,121.669
	c-7.406-3.504-14.475-6.848-21.584-10.21C91.714,118.682,105.692,125.499,113.603,121.669z M172.76,176.844
	c0.678,2.145,1.105,3.783,1.721,5.348c0.476,1.211,1.34,1.473,2.524,0.67c3.507-2.378,5.418-8.456,3.793-12.251
	c-1.142-2.665-3.321-3.166-4.941-0.756C174.413,172.001,173.702,174.64,172.76,176.844z M152.076,139.927
	c-2.737-0.667-4.457,0.247-5.405,2.103c-1.464,2.869-2.909,5.812-3.807,8.886c-0.927,3.171-0.459,6.468,0.86,9.668
	C147.861,154.261,148.092,146.48,152.076,139.927z M38.468,88.292c-0.048-0.487,0.055-0.996-0.152-1.276
	c-0.879-1.189-1.695-2.552-2.88-3.316c-0.382-0.246-2.156,0.942-2.715,1.835c-1.449,2.313-2.743,4.761-3.76,7.291
	c-0.497,1.236-0.242,2.775-0.326,4.177c1.354-0.395,2.818-0.58,4.039-1.224C35.718,94.17,38.16,91.982,38.468,88.292z
	 M202.65,103.222c0.005,0.25,0.01,0.5,0.014,0.75c2.762,2.208,5.744,4.197,8.222,6.687c2.454,2.466,4.399,5.439,6.567,8.188
	c0.205-0.086,0.41-0.173,0.614-0.26c-0.175-4.411-1.003-8.731-2.424-12.93c-0.158-0.463-1.296-0.858-1.967-0.839
	c-3.023,0.089-5.993,0.244-8.712-1.544C204.417,102.914,203.433,103.222,202.65,103.222z M176.85,72.712
	c4.32,3.446,8.419,6.715,12.55,10.011c1.461-3.792-1.431-10.172-5.398-12.246C180.79,68.799,178.379,69.632,176.85,72.712z
	 M100.039,41.619c-1.943-1.38-4.638-2.366-5.607-4.243c-0.969-1.876-0.213-4.645-0.213-7.088c-0.081,0.024-0.487,0.018-0.641,0.211
	c-2.473,3.123-4.099,6.595-4.14,10.655c-0.005,0.51,0.247,1.127,0.584,1.521C92.921,46.071,97.591,45.541,100.039,41.619z
	 M205.091,164.187c-0.258-3.88-0.226-7.526-0.828-11.064c-0.448-2.626-3.435-3.066-5.275-1.054c-2.041,2.232-1.43,4.628-0.511,7.085
	C199.527,161.967,201.389,163.703,205.091,164.187z M172.135,182.146c-0.338-4.65-0.594-9.069,2.199-13.018
	c0.106-0.15-0.739-1.402-1.259-1.498c-3.847-0.708-8.409,4.747-7.002,8.374C167.164,178.815,169.539,180.493,172.135,182.146z
	 M152.018,66.766c4.652-1.921,9.327-3.85,13.996-5.777c-1.692-3.598-6.962-4.163-9.707-2.994
	C153.086,59.368,151.115,63.533,152.018,66.766z M172.627,159.382c1.065-0.296,2.857-0.574,4.456-1.286
	c2.874-1.28,4.395-4.095,3.661-6.687c-0.19-0.674-1.586-1.702-1.761-1.583c-3.397,2.3-6.779,4.641-9.964,7.222
	c-1.066,0.863-0.472,1.951,0.951,2.186C170.606,159.338,171.263,159.312,172.627,159.382z M195.367,151.121
	c-3.571,0.404-6.285,3.288-5.871,6.324c0.467,3.432,4.928,6.453,8.532,5.787C197.155,159.261,196.281,155.281,195.367,151.121z
	 M101.837,40.316c3.287-0.495,3.891-1.257,2.686-4.05c-0.73-1.692-1.753-3.276-2.791-4.809c-0.364-0.538-1.128-1.001-1.777-1.113
	c-1.505-0.261-3.946,2.245-4.92,4.537c-0.85,1.999,0.538,2.711,1.789,3.36C98.424,39.072,100.16,39.637,101.837,40.316z
	 M36.795,117.567c4.679,0.061,7.944-2.428,8.63-6.579c0.41-2.484-0.642-3.507-2.968-2.59c-3.16,1.244-5.82,3.223-7.448,6.32
	C33.965,116.705,34.51,117.537,36.795,117.567z M17.306,126.271c-0.102-3.368-1.224-6.354-3.341-8.972
	c-0.934-1.155-1.889-1.536-2.955-0.147c-2.915,3.799-0.951,9.877,3.619,11.178C16.565,128.881,17.378,128.257,17.306,126.271z
	 M123.207,74.304c-2.168,0.657-4.725,1.357-7.219,2.237c-0.67,0.236-1.147,1.016-1.713,1.547c0.55,0.534,1.016,1.362,1.666,1.548
	c2.403,0.688,4.842,1.338,7.312,1.674c2.569,0.349,3.957-1.591,3.807-5.165C126.952,73.607,124.863,75.073,123.207,74.304z
	 M14.157,150.375c-0.152,2.191,0.764,3.825,2.438,5.081c1.21,0.908,2.283,0.829,2.311-0.899c0.055-3.343,1.271-6.146,3.381-8.66
	c0.865-1.031,0.457-1.756-0.725-2.207c-2.901-1.105-5.665,0.152-6.633,3.132C14.557,147.969,14.407,149.188,14.157,150.375z
	 M54.802,197.546c0-1.229,0.11-2.137-0.04-2.999c-0.096-0.553-0.699-1.523-0.865-1.481c-1.74,0.442-3.636,0.747-5.092,1.697
	c-1.514,0.988-1.95,2.923-0.956,4.558c0.992,1.63,2.286,3.124,3.661,4.459c1.345,1.308,2.382,0.694,2.667-1.033
	C54.477,200.915,54.625,199.059,54.802,197.546z M60.974,82.951c4.908,0.331,8.21,3.363,11.758,6.135
	c0.406-3.54-0.424-6.478-2.772-8.839C66.781,77.049,62.896,78.011,60.974,82.951z M25.639,142.792
	c0.465-0.376,1.508-0.819,1.852-1.578c0.895-1.979,1.533-4.083,2.16-6.171c0.159-0.531,0.09-1.535-0.221-1.713
	c-0.513-0.294-1.509-0.371-1.955-0.052c-2.676,1.911-5.346,3.855-7.826,6.008c-1.282,1.113-1.036,2.344,0.861,2.703
	C22.019,142.273,23.544,142.467,25.639,142.792z M67.587,93.229c0.326-0.07,1.345-0.121,2.186-0.534
	c0.468-0.229,0.986-1.129,0.891-1.61c-0.614-3.113-6.231-6.706-9.37-6.126c-1.173,0.217-1.991,0.644-1.687,2.094
	C60.257,90.133,63.823,93.162,67.587,93.229z M126.722,176.01c-0.891,1.89-1.548,3.356-2.268,4.791
	c-0.832,1.659-0.065,2.253,1.494,2.311c1.091,0.04,2.186,0.008,3.456,0.008c0,1.689,0,3.006,0,4.322
	c0.245,0.184,0.488,0.368,0.733,0.552c1.549-1.397,3.147-2.747,4.599-4.239c0.23-0.236,0.002-1.355-0.357-1.656
	C131.978,180.085,129.484,178.183,126.722,176.01z M190.922,124.169c4.944,0.668,8.781-5.707,7.021-11.122
	c-0.261-0.805-1.694-1.971-2.181-1.803c-0.924,0.32-1.843,1.369-2.231,2.331c-0.433,1.072-0.102,2.428-0.406,3.582
	C192.516,119.471,191.702,121.732,190.922,124.169z M25.877,93.819c0.268-0.256,0.634-0.474,0.809-0.794
	c1.737-3.194,3.506-6.374,5.133-9.624c0.914-1.824-0.474-2.107-1.799-2.11c-2.578-0.004-5.003,2.097-6.131,5.191
	C23.056,88.77,23.929,92.135,25.877,93.819z M21.47,157.786c4.348-1.851,6.794-6.428,5.725-10.361
	c-0.481-1.769-1.461-2.044-2.847-1.128C20.785,148.655,19.235,154.724,21.47,157.786z M139.38,33.834
	c-0.295-0.153-0.589-0.307-0.883-0.46c-1.191,1.859-2.472,3.667-3.552,5.589c-1.463,2.603-0.986,5.033,1.146,6.788
	c1.725,1.42,4.878,1.329,6.967-0.227c-1.593-1.613-3.968-2.982-4.556-4.899C137.893,38.638,139.015,36.12,139.38,33.834z
	 M206.466,139.779c1.049-0.462,2.098-0.924,3.147-1.386c-0.527-1.053-0.79-2.472-1.636-3.085c-1.783-1.292-3.787-2.395-5.857-3.14
	c-2.169-0.779-3.159,0.355-2.702,2.664C199.933,137.436,203.019,139.506,206.466,139.779z M47.339,201.9
	c-0.244-0.923-0.423-1.549-0.576-2.181c-0.824-3.4,0.091-5.371,3.25-6.967c0.579-0.292,1.198-0.507,1.788-0.78
	c1.061-0.492,1.868-1.133,1.118-2.438c-0.747-1.3-1.919-1.445-2.812-0.425c-2.71,3.1-5.334,6.282-7.811,9.567
	c-0.366,0.486-0.06,2.098,0.467,2.512c1.092,0.857,2.529,1.292,3.866,1.788C46.733,203.014,47.163,202.174,47.339,201.9z
	 M58.657,143.245c2.356,0.032,3.836-1.463,3.908-3.948c0.065-2.246-1.619-3.933-3.959-3.962c-2.441-0.03-4.114,1.755-4.112,4.385
	C54.496,141.663,56.326,143.213,58.657,143.245z M32.769,156.952c-0.785-1.003-1.272-2.049-2.091-2.523
	c-0.558-0.323-1.715-0.073-2.364,0.32c-1.162,0.703-2.18,1.665-3.191,2.592c-2.183,2.002-2.051,2.905,0.614,5.498
	c2.124,2.066,2.723-0.269,3.628-1.314C30.561,160.14,31.565,158.589,32.769,156.952z M147.654,43.316
	c4.089-0.539,7.87-1.038,11.704-1.543c-0.699-2.251-4.926-5.828-6.855-5.925c-0.485-0.024-1.253,0.206-1.443,0.56
	C149.929,38.512,148.93,40.686,147.654,43.316z M44.623,192.405c-1.397-0.947-2.279-1.77-3.322-2.157
	c-0.523-0.195-1.465,0.245-1.998,0.671c-1.397,1.116-2.573,2.525-4.026,3.55c-1.427,1.007-1.557,1.984-0.108,2.723
	c1.327,0.677,3.492,1.663,4.258,1.103C41.36,196.883,42.714,194.678,44.623,192.405z M169.437,151.479
	c0.223,0.263,0.446,0.526,0.668,0.79c1.951-0.982,3.984-1.835,5.817-3.002c0.901-0.573,2.17-1.96,1.977-2.568
	c-0.387-1.221-1.491-2.438-2.622-3.135c-1.018-0.627-2.808-1.479-3.547,0.327C170.735,146.325,170.182,148.94,169.437,151.479z
	 M95.614,101.809c-0.011,0.34-0.023,0.68-0.035,1.021c1.948,1.235,3.849,2.56,5.884,3.627c0.401,0.21,1.769-0.429,1.931-0.924
	c0.846-2.591,0.52-5.194-0.377-8.264C100.326,98.919,97.97,100.364,95.614,101.809z M134.629,31.6
	c0.036-1.599-0.499-2.409-2.188-1.554c-1.305,0.662-2.796,1.136-3.836,2.094c-1.067,0.982-1.965,2.357-2.431,3.732
	c-0.581,1.714,0.452,2.603,2.243,2.438C131.216,38.051,134.57,34.408,134.629,31.6z M26.654,187.153
	c-0.027,2.456,1.623,3.863,3.164,3.064c1.927-1,3.846-2.032,5.669-3.204c0.411-0.264,0.768-1.397,0.547-1.724
	c-1.1-1.628-2.78-2.243-4.658-1.661C29.298,184.275,27.331,185.199,26.654,187.153z M56.186,123.399
	c0.042-1.82-0.82-2.987-2.629-3.178c-1.538-0.163-4.257,2.561-3.739,4.052c0.646,1.86,1.818,3.665,3.186,5.088
	C53.617,129.998,56.148,125.736,56.186,123.399z M154.437,155.71c-2.751-0.027-4.41,1.27-4.395,3.439
	c0.012,1.795,1.627,3.492,3.356,3.529c1.942,0.041,4.015-1.869,4.079-3.758C157.547,156.884,156.455,155.731,154.437,155.71z
	 M64.533,129.668c0.131,1.569,0.832,2.986,2.787,3.162c1.874,0.167,4.067-2.291,3.989-4.459c-0.063-1.739-0.726-3.233-2.748-3.39
	C66.787,124.842,64.521,127.441,64.533,129.668z M95.307,79.302c-0.055-0.365-0.11-0.729-0.165-1.095
	c-1.75-0.353-3.487-0.798-5.252-1.04c-4.421-0.608-4.835-0.148-4.171,4.289c0.024,0.161-0.009,0.401,0.084,0.469
	c0.603,0.443,1.452,1.349,1.82,1.188C90.238,81.966,92.757,80.599,95.307,79.302z M91.104,30.328
	c-0.291-0.265-0.581-0.53-0.872-0.795c-3.621,2.23-7.265,4.426-10.829,6.744c-0.367,0.239-0.568,1.409-0.314,1.807
	c0.961,1.507,3.234,1.384,4.524,0.105c2.047-2.031,4.267-3.887,6.34-5.893C90.48,31.787,90.728,30.991,91.104,30.328z
	 M153.396,53.833c-0.376-1.254-0.425-2.549-1.085-3.328c-0.764-0.902-2.145-1.954-3.108-1.824c-0.96,0.129-2.574,1.825-2.423,2.506
	c0.344,1.546,1.425,3.05,2.543,4.259c0.645,0.697,2.044,1.205,2.916,1C152.804,56.313,153.029,54.738,153.396,53.833z
	 M47.098,123.316c-2.747,1.708-3.83,3.915-3.169,6.018c0.511,1.624,3.236,3.066,5.519,2.744c0.404-0.057,1.097-1.056,0.98-1.345
	C49.432,128.281,48.28,125.892,47.098,123.316z M47.36,120.598c-0.058-0.276-0.118-0.552-0.176-0.828
	c-0.704,0-1.608-0.284-2.076,0.048c-2.179,1.544-4.278,3.21-6.314,4.94c-0.586,0.499-0.866,1.359-1.286,2.054
	c1.131,0.581,2.215,1.349,3.417,1.64c0.419,0.102,1.201-0.917,1.681-1.531c1.205-1.541,2.327-3.147,3.493-4.719
	C46.504,121.656,46.939,121.132,47.36,120.598z M123.894,33.683c2.754-1.63,5.116-2.971,7.407-4.425
	c0.538-0.342,1.194-1.108,1.139-1.607c-0.058-0.534-0.908-1.409-1.384-1.392c-1.52,0.057-3.356,0.011-4.463,0.828
	C124.766,28.436,123.237,30.353,123.894,33.683z M105.002,105.979c0.191,0.349,0.381,0.697,0.572,1.045
	c1.745,0,3.499,0.099,5.229-0.059c0.535-0.049,1.483-0.872,1.429-1.211c-0.339-2.119-0.909-4.202-1.402-6.296
	c-0.353-0.037-0.705-0.072-1.058-0.109C108.183,101.559,106.593,103.769,105.002,105.979z M56.487,202.521
	c3.818-1.781,5.66-5.863,4.36-8.624c-0.302-0.642-1.276-1.367-1.914-1.342c-0.673,0.026-1.809,0.839-1.884,1.418
	C56.707,196.642,56.664,199.35,56.487,202.521z M95.502,87.895c-0.064-0.365-0.127-0.73-0.191-1.095
	c-2.43-0.438-4.852-0.941-7.298-1.246c-0.367-0.045-1.29,0.958-1.204,1.265c0.485,1.732,1.2,3.399,1.948,5.386
	C91.335,90.557,93.419,89.226,95.502,87.895z M155.103,173.116c-0.11-1.364-0.421-2.843-2.523-2.844
	c-2.045-0.002-3.576,1.562-3.617,3.731c-0.033,1.777,0.782,2.974,2.628,3.124C153.611,177.292,155.06,175.677,155.103,173.116z
	 M98.315,93.068c-0.205-0.252-0.411-0.504-0.616-0.757c-2.544-0.273-4.708,0.899-6.803,2.201c-0.265,0.164-0.447,0.991-0.275,1.244
	c0.96,1.409,2.041,2.736,3.473,4.601C95.727,97.536,97.021,95.302,98.315,93.068z M81.886,56.834
	c-0.335-0.242-1.06-1.197-1.846-1.25c-2.252-0.151-5.671,2.249-5.016,3.262c0.881,1.363,2.592,2.5,4.179,3.005
	C80.645,62.31,81.944,60.064,81.886,56.834z M161.258,133.351c0.039-1.659-0.741-2.544-2.224-2.527
	c-1.993,0.023-4.168,2.057-4.203,4.009c-0.031,1.677,1,2.558,2.534,2.693C159.332,137.7,161.206,135.597,161.258,133.351z
	 M136.017,105.804c-2.189,0.417-4.852,2.501-4.425,3.76c0.417,1.232,1.564,2.749,2.702,3.083c1.745,0.513,3.856-1.829,3.608-3.914
	C137.778,107.697,136.676,106.777,136.017,105.804z M107.9,30.448c0-0.323,0.123-0.723-0.022-0.956
	c-0.56-0.904-1.116-2.376-1.841-2.481c-1.095-0.159-2.507,0.428-3.418,1.157c-0.359,0.287,0.23,1.816,0.464,2.761
	c0.093,0.375,0.341,0.749,0.61,1.038c0.822,0.884,1.688,1.727,2.538,2.585c0.538-1.207,1.082-2.413,1.61-3.624
	C107.904,30.787,107.885,30.61,107.9,30.448z M158.831,145.397c-0.487-0.348-1.345-1.434-2.332-1.568
	c-1.942-0.265-3.782,1.765-3.655,3.655c0.117,1.744,1.026,2.921,2.825,3.026C157.229,150.601,158.925,148.222,158.831,145.397z
	 M111.257,44.863c-1.219,0.562-2.414,0.913-3.34,1.618c-0.55,0.419-1.099,1.534-0.914,2.094c0.588,1.788,1.52,3.462,2.361,5.272
	C111.804,51.819,112.551,48.224,111.257,44.863z M121.107,46.133c-0.151-0.335-0.302-0.671-0.453-1.007
	c-1.813,0-3.648-0.153-5.427,0.095c-0.527,0.073-1.408,1.449-1.245,1.931c0.524,1.557,1.46,2.975,2.487,4.921
	C118.233,49.815,119.67,47.974,121.107,46.133z M103.692,55.623c1.952-2.942,1.946-6.073,0.053-8.511
	c-1.247,0.981-2.558,1.898-3.706,2.988c-0.336,0.318-0.497,1.378-0.245,1.664C100.984,53.117,102.345,54.32,103.692,55.623z
	 M94.164,65.266c-1.962-1.632-3.691-3.071-5.739-4.775c-0.71,1.433-1.564,2.718-1.942,4.13c-0.157,0.586,0.59,1.972,1.123,2.087
	C89.848,67.194,91.994,66.679,94.164,65.266z M93.319,72.911c0.027-0.308,0.053-0.616,0.08-0.925
	c-0.914-0.593-1.823-1.193-2.742-1.777c-3.831-2.43-4.207-1.893-4.726,2.846c-0.141,1.286,0.453,1.924,1.69,1.603
	C89.542,74.159,91.422,73.501,93.319,72.911z M118.733,100.863c-0.321,0.024-0.642,0.05-0.963,0.075
	c-0.781,1.658-1.673,3.279-2.265,5.003c-0.142,0.412,0.61,1.541,1.133,1.686c1.06,0.293,2.272,0.297,3.36,0.093
	c0.482-0.09,1.262-1.14,1.14-1.476C120.468,104.403,119.56,102.647,118.733,100.863z M205.591,101.73
	c2.319,1.698,4.384,3.069,7.063,1.982c0.69-0.28,1.727-1.351,1.603-1.671c-0.328-0.846-1.099-1.932-1.882-2.114
	C210.014,99.377,207.833,100.124,205.591,101.73z M33.565,194.473c1.318-1.118,2.569-1.942,3.477-3.049
	c0.458-0.559,0.293-1.628,0.41-2.467c-0.832-0.046-1.702-0.268-2.485-0.093c-0.927,0.206-1.904,0.6-2.628,1.194
	c-0.733,0.601-1.182,1.545-1.755,2.338C31.449,192.998,32.314,193.601,33.565,194.473z M145.449,41.472
	c3.062-2.106,4.077-4.553,2.612-6.417c-0.552-0.704-1.896-1.15-2.821-1.068c-0.596,0.054-1.629,1.38-1.524,1.969
	C144.043,37.805,144.816,39.575,145.449,41.472z M146.019,87.015c0.822,0.931,1.298,1.855,2.037,2.177
	c0.508,0.222,1.551-0.208,2.047-0.675c0.681-0.64,1.258-1.533,1.531-2.424c0.255-0.836,0.345-2.442-0.002-2.602
	c-0.859-0.394-2.317-0.567-2.971-0.077C147.605,84.206,147.003,85.601,146.019,87.015z M89.254,48.233
	c-0.378-0.384-1.054-1.604-2.024-1.922c-1.261-0.414-3.191,1.995-3.192,3.685c-0.001,1.473,0.57,2.576,2.235,2.602
	C87.935,52.623,89.275,50.993,89.254,48.233z M129.863,56.178c2.407-1.057,4.288-1.883,6.168-2.708
	c0.037-0.358,0.074-0.716,0.11-1.074c-1.666-0.925-3.332-1.849-5-2.774C130.762,51.565,130.383,53.51,129.863,56.178z
	 M140.762,60.532c0.104-0.278,0.208-0.558,0.312-0.836c-1.298-1.443-2.596-2.886-4.371-4.86c-1.056,2.398-1.858,4.223-2.98,6.776
	C136.615,61.168,138.689,60.85,140.762,60.532z M138.266,172.559c0.34,0.126,0.681,0.251,1.02,0.376
	c1.066-1.522,2.251-2.979,3.14-4.599c0.354-0.645,0.057-1.648,0.057-2.488c-1.311,0.283-3.533,0.256-3.756,0.911
	C138.121,168.539,138.361,170.606,138.266,172.559z M155.4,54.142c2.431-1.518,3.639-3.875,2.687-5.667
	c-0.416-0.784-1.633-1.391-2.57-1.535c-0.42-0.065-1.555,1.268-1.482,1.858C154.253,50.587,154.902,52.323,155.4,54.142z
	 M154.171,92.977c1.21-1.751,2.54-2.854,2.609-4.03c0.058-0.965-1.386-2.019-2.165-3.033c-1.054,1.305-2.312,2.511-3.027,3.981
	C151.399,90.284,152.883,91.487,154.171,92.977z M94.894,62.943c0.448-0.578,1.514-1.353,1.644-2.262
	c0.219-1.523-1.95-3.422-3.506-3.454c-1.793-0.037-1.819,1.32-1.85,2.526C91.131,61.761,92.383,62.596,94.894,62.943z
	 M100.057,136.521c-0.312-0.083-0.626-0.167-0.938-0.251c-1.073,1.721-2.229,3.403-3.102,5.22c-0.093,0.194,1.382,1.451,2.274,1.703
	c0.627,0.177,2.15-0.497,2.158-0.818C100.497,140.428,100.224,138.473,100.057,136.521z M125.886,99.829
	c-0.755,2.374-1.373,4.315-1.99,6.256c0.228,0.206,0.455,0.412,0.682,0.618c1.674-0.586,3.347-1.171,5.02-1.756
	c-0.764-1.332-1.513-2.674-2.306-3.989C127.142,100.708,126.816,100.563,125.886,99.829z M71.27,53.626
	c0.062-0.355,0.123-0.711,0.185-1.066c-1.484-0.846-2.94-1.75-4.476-2.487c-0.312-0.149-1.275,0.253-1.341,0.54
	c-0.283,1.219-0.412,2.491-0.416,3.744c-0.001,0.221,0.92,0.71,1.315,0.622C68.135,54.624,69.695,54.092,71.27,53.626z
	 M105.548,135.992c-0.311-0.017-0.623-0.033-0.934-0.05c-0.623,1.527-1.346,3.023-1.843,4.59c-0.561,1.771,0.362,2.387,2.046,2.168
	c1.737-0.227,2.741-1.011,2.114-2.92C106.512,138.504,106.012,137.254,105.548,135.992z M70.513,49.645
	c0.746-0.708,1.805-1.407,1.706-1.672c-0.52-1.391-1.333-2.672-2.045-3.992c-1.235,1.17-2.471,2.338-3.706,3.508
	C67.7,48.145,68.932,48.802,70.513,49.645z M135.653,164.758c-0.091-0.314-0.184-0.628-0.276-0.942
	c-1.257,0-3.138-0.519-3.651,0.099c-1.46,1.759-1.534,4.062-0.749,7.092C132.792,168.58,134.223,166.669,135.653,164.758z
	 M88.789,132.29c-0.29-0.152-0.581-0.305-0.871-0.457c-1.34,1.284-2.927,2.4-3.952,3.9c-1.042,1.523,0.735,2.058,1.693,2.516
	c0.569,0.271,2.036,0.028,2.106-0.243C88.253,136.14,88.479,134.204,88.789,132.29z M94.509,135.166
	c-0.368-0.111-0.735-0.222-1.103-0.333c-1.13,1.245-2.412,2.388-3.351,3.765c-0.967,1.42,0.288,1.958,1.384,2.418
	c0.975,0.409,2.124,1.106,2.463-0.577C94.249,138.71,94.318,136.926,94.509,135.166z M82.994,128.458
	c-0.353-0.205-0.705-0.411-1.058-0.616c-1.157,1.091-3.149,2.107-3.253,3.291c-0.12,1.372,1.417,2.889,2.236,4.343
	c0.349-0.072,0.697-0.144,1.046-0.216C82.308,132.993,82.651,130.726,82.994,128.458z M98.934,156.575
	c-1.104,1.438-1.856,2.244-2.396,3.173c-0.539,0.927-0.863,1.978-1.281,2.975c1.069,0.187,2.135,0.406,3.21,0.553
	c1.833,0.251,2.052-0.824,1.714-2.23C99.882,159.802,99.498,158.579,98.934,156.575z M123.544,52.387
	c0.325,0.165,0.651,0.33,0.976,0.496c1.153-1.436,2.306-2.873,3.459-4.309c-1.349-0.81-2.697-1.62-4.435-2.664
	C123.544,48.61,123.544,50.499,123.544,52.387z M142.105,36.36c-0.474,0.006-0.948,0.013-1.422,0.019
	c-0.297,1.274-1.034,2.641-0.789,3.802c0.383,1.817,1.808,2.948,4.68,2.868C143.672,40.602,142.888,38.481,142.105,36.36z
	 M145.788,31.957c0.261-0.399,0.522-0.8,0.784-1.2c-0.837-0.458-1.629-1.11-2.524-1.318c-0.884-0.205-2.205-0.313-2.727,0.18
	c-0.596,0.564-0.522,1.837-0.739,2.801c0.92,0.107,1.85,0.352,2.755,0.279C144.168,32.63,144.972,32.218,145.788,31.957z
	 M70.587,55.403c-1.34,0.882-2.423,1.595-3.506,2.309c0.947,0.781,2.015,2.295,2.811,2.164c1.079-0.179,1.949-1.618,2.909-2.517
	C72.186,56.815,71.572,56.273,70.587,55.403z M105.46,157.417c-0.322,0.013-0.643,0.025-0.965,0.038
	c-0.488,1.308-1.079,2.588-1.435,3.931c-0.371,1.396,0.631,1.723,1.698,1.526c0.758-0.14,2.104-0.766,2.067-0.951
	C106.518,160.417,105.95,158.924,105.46,157.417z M168.268,127.079c1.131-2.526,0.558-5.926-0.944-6.734
	c-0.475-0.255-1.463,0.442-2.216,0.703C166.092,122.926,167.076,124.805,168.268,127.079z M81.15,43.12
	c-0.314,0.146-0.628,0.292-0.942,0.438c0.323,1.983,0.645,3.965,0.967,5.948c0.344,0.057,0.688,0.113,1.031,0.169
	c0.579-1.301,1.684-2.649,1.57-3.886C83.687,44.827,82.081,44.004,81.15,43.12z M97.134,52.703
	c-0.362-0.085-0.723-0.171-1.085-0.256c-0.685,1-2.145,2.31-1.894,2.934c0.523,1.305,1.949,2.249,3.004,3.341
	c0.307-0.151,0.614-0.302,0.921-0.452C97.765,56.415,97.449,54.559,97.134,52.703z M69.711,204.24
	c-0.336-0.198-0.672-0.397-1.008-0.595c-0.958,1.428-1.917,2.856-2.875,4.285c0.831,0.39,1.952,1.331,2.442,1.073
	C70.271,207.951,69.859,206.005,69.711,204.24z M175.332,198.247c1.827,3.48,4.508,4.126,7.337,1.888
	C179.956,199.438,177.644,198.843,175.332,198.247z M46.775,137.85c0.423,0.314,0.847,0.626,1.27,0.939
	c0.577-0.969,1.187-1.921,1.717-2.915c0.278-0.523,0.677-1.555,0.574-1.617c-0.725-0.44-1.554-0.854-2.378-0.918
	c-0.361-0.028-1.052,0.741-1.13,1.223C46.655,135.632,46.775,136.751,46.775,137.85z M132.115,102.567
	c0.221,0.257,0.441,0.514,0.662,0.771c1.011-0.451,2.72-0.732,2.88-1.391c0.281-1.15-0.391-2.532-0.664-3.817
	c-0.333,0.002-0.666,0.003-0.999,0.005C133.368,99.613,132.742,101.09,132.115,102.567z M169.515,67.199
	c0.247,0.126,0.494,0.252,0.74,0.378c1.206-0.948,2.412-1.896,3.618-2.844c-0.104-0.284-0.208-0.567-0.312-0.851
	c-1.278,0-2.708-0.332-3.767,0.15C169.318,64.25,169.585,66.094,169.515,67.199z M132.049,42.851c0-1.575,0.357-3.012-0.065-3.299
	c-1.443-0.979-3.11-0.99-4.923,0.414C128.602,40.856,129.897,41.606,132.049,42.851z M75.18,46.496
	c0.479-0.161,0.958-0.322,1.436-0.483c-0.225-1.345-0.45-2.69-0.675-4.034c-0.942,0.309-1.885,0.617-2.828,0.925
	C73.802,44.101,74.491,45.299,75.18,46.496z M88.709,35.745c-0.377-0.223-0.753-0.447-1.13-0.67
	c-0.844,1.203-1.792,2.353-2.456,3.648c-0.161,0.312,0.532,1.208,1.017,1.616c0.143,0.12,1.174-0.404,1.358-0.825
	C88.023,38.311,88.322,37.008,88.709,35.745z M172.277,200.732c-0.072,0.297-0.143,0.594-0.214,0.89
	c1.92,2.626,3.293,2.906,5.867,0.533C175.762,201.61,174.019,201.171,172.277,200.732z M141.662,63.107
	c-2.667,0.276-3.379,1.54-2.765,4.622C140.021,65.85,140.842,64.479,141.662,63.107z M138.237,28.22
	c-0.599,0.838-1.277,1.37-1.238,1.843c0.045,0.543,0.724,1.035,1.128,1.548c0.543-0.535,1.251-0.996,1.545-1.644
	C139.783,29.722,138.938,29.044,138.237,28.22z"/>
</svg>
