<?xml version="1.0" encoding="iso-8859-1"?>
<!-- Generator: Adobe Illustrator 17.0.0, SVG Export Plug-In . SVG Version: 6.00 Build 0)  -->
<!DOCTYPE svg PUBLIC "-//W3C//DTD SVG 1.1//EN" "http://www.w3.org/Graphics/SVG/1.1/DTD/svg11.dtd">
<svg version="1.1" xmlns="http://www.w3.org/2000/svg" xmlns:xlink="http://www.w3.org/1999/xlink" x="0px" y="0px" width="128px"
	 height="128px" viewBox="0 0 128 128" style="enable-background:new 0 0 128 128;" xml:space="preserve">
<g id="icons">
	<g>
		<path style="fill:#88C5CC;" d="M64,0C28.654,0,0,28.654,0,64s28.654,64,64,64c35.346,0,64-28.654,64-64S99.346,0,64,0z"/>
		<g>
			<path style="fill:#F5F5F5;" d="M51,21h44c1.1,0,2.073,0.9,2.073,2v82c0,1.1-0.974,2-2.073,2H33c-1.1,0-1.927-0.9-1.927-2V42
				L51,21z"/>
			<path style="fill:#E6E6E6;" d="M49,42c1.1,0,2.073-0.9,2.073-2V21L31,42H49z"/>
		</g>
		<circle style="fill:#E16B5A;" cx="64" cy="68" r="18"/>
		<path style="fill:#F5F5F5;" d="M59.905,60.496c-0.478-0.273-0.832-0.046-0.832,0.504v14c0,0.55,0.354,0.777,0.832,0.504
			l12.245-7.008c0.478-0.273,0.487-0.719,0.009-0.992L59.905,60.496z"/>
	</g>
</g>
<g id="header">
</g>
</svg>
