<?xml version="1.0" encoding="iso-8859-1"?>
<!-- Generator: Adobe Illustrator 17.0.0, SVG Export Plug-In . SVG Version: 6.00 Build 0)  -->
<!DOCTYPE svg PUBLIC "-//W3C//DTD SVG 1.1//EN" "http://www.w3.org/Graphics/SVG/1.1/DTD/svg11.dtd">
<svg version="1.1" id="Layer_1" xmlns="http://www.w3.org/2000/svg" xmlns:xlink="http://www.w3.org/1999/xlink" x="0px" y="0px"
	 width="150.12px" height="151.077px" viewBox="0 0 150.12 151.077" style="enable-background:new 0 0 150.12 151.077;"
	 xml:space="preserve">
<g>
	<g>
		<defs>
			<path id="SVGID_14_" d="M150.12,75.059c0,41.457-33.605,75.064-75.061,75.064C33.605,150.123,0,116.516,0,75.059
				C0,33.604,33.605,0,75.059,0C116.514,0,150.12,33.604,150.12,75.059z"/>
		</defs>
		<use xlink:href="#SVGID_14_"  style="overflow:visible;fill:#EFB26D;"/>
		<clipPath id="SVGID_1_">
			<use xlink:href="#SVGID_14_"  style="overflow:visible;"/>
		</clipPath>
		<path style="clip-path:url(#SVGID_1_);fill:#5B4E40;" d="M123.06,95.733l-28.527,19.815c-0.991,6.961,0.312,16.734,9.363,17.17
			c4.971,0.239,10.495-3.041,8.724-9.73c7.756,6.538,19.196-0.297,14.52-10.483C138.756,114.107,141.851,92.175,123.06,95.733z"/>
		<path style="clip-path:url(#SVGID_1_);fill:#A66477;" d="M90.284,131.875c-2.161-6.311-6.291-7.542-12.625-3.277
			c-5.582,3.757,6.312,25.341,9.727,32.064c3.344,1.091,9.194-2.107,10.058-4.209C97.259,154.654,91.258,134.719,90.284,131.875z"/>
		<path style="clip-path:url(#SVGID_1_);fill:#A66477;" d="M47.089,128.881c3.12-5.894,7.388-6.471,12.982-1.269
			c4.928,4.579-9.869,23.606-14.291,29.717c-3.472,0.558-9.071-3.074-9.594-5.289C36.648,150.295,45.683,131.539,47.089,128.881z"/>
		<path style="clip-path:url(#SVGID_1_);fill:#EDC6AD;" d="M75.693,129.036c0,4.487-4.264,8.125-9.523,8.125
			c-5.26,0-9.525-3.638-9.525-8.125c0-4.484,4.265-8.122,9.525-8.122C71.429,120.914,75.693,124.552,75.693,129.036z"/>
		<path style="clip-path:url(#SVGID_1_);fill:#A66477;" d="M85.176,138.76c0-5.727-3.292-13.328-8.882-14.607
			c0,4.476-3.919,10.195-10.833,10.195c-5.068,0-8.854-5.559-8.854-9.546c-4.268,3.122-6.134,8.763-6.855,14.113
			c-1.351,10.045-2.113,20.442-4.172,25.585c7.067,4.162,32.94,5.283,41.055,1.301C86.938,161.574,85.176,148.386,85.176,138.76z"/>
		<path style="clip-path:url(#SVGID_1_);fill:#5B4E40;" d="M131.612,69.916c0.028-23.716-9.897-60.903-64.693-58.417
			C31.238,13.117-3.658,45.437,20.928,97.4c0,0,2.969,32.205,50.662,30.536C98.164,127.005,131.572,105.625,131.612,69.916z"/>
		<path style="clip-path:url(#SVGID_1_);fill:#EDC6AD;" d="M113.14,89.886l-3.183,16.519C126.655,110.488,128.1,89.45,113.14,89.886
			z"/>
		<path style="clip-path:url(#SVGID_1_);fill:#EDC6AD;" d="M113.91,99.385c-3.112,18.787-21.506,32.418-54.836,30.619
			c-23.722-1.277-39.171-14.231-38.146-32.604c0,0-24.477-75.754,46.397-75.198C147.892,22.837,113.91,99.385,113.91,99.385z"/>
		<path style="clip-path:url(#SVGID_1_);fill:#76634E;" d="M35.148,86.946c-0.026,0-0.053-0.002-0.079-0.004
			c-0.477-0.043-0.83-0.465-0.786-0.942c0.096-1.063,1.067-2.062,2.473-2.541c1.765-0.605,3.541-0.19,4.749,1.109
			c0.326,0.352,0.306,0.9-0.045,1.227c-0.351,0.326-0.9,0.306-1.227-0.045c-1.077-1.16-2.506-0.789-2.916-0.649
			c-0.815,0.278-1.281,0.792-1.305,1.056C35.97,86.607,35.592,86.946,35.148,86.946L35.148,86.946z"/>
		<path style="clip-path:url(#SVGID_1_);fill:#76634E;" d="M84.282,86.855c-0.058,0-0.116-0.006-0.175-0.018
			c-0.47-0.097-0.772-0.555-0.677-1.024c0.215-1.047,1.29-1.931,2.739-2.251c1.82-0.398,3.539,0.208,4.594,1.633
			c0.285,0.386,0.204,0.929-0.181,1.214c-0.387,0.286-0.93,0.203-1.214-0.181c-0.941-1.272-2.397-1.066-2.824-0.971
			c-0.84,0.186-1.36,0.644-1.413,0.903C85.046,86.572,84.685,86.855,84.282,86.855L84.282,86.855z"/>
		<path style="clip-path:url(#SVGID_1_);fill:#5B4E40;" d="M15.188,48.047c-17.303,24.992,1.19,57.316,7.741,54.915
			c4.17-1.529-0.572-30.683,15.205-44.038c-0.927,11.31,9.49,19.428,13.777,16.722c3.319-2.096-4.35-9.068-1.421-19.901
			c2.514,12.152,17.229,17.863,22.794,19.899c25.427,9.318,34.775,22.794,39.168,23.446c4.084,0.604,38.771-77.672-40.206-83.628
			C44.404,13.362,24.045,28.509,15.188,48.047z"/>
		<path style="clip-path:url(#SVGID_1_);fill:#DBA075;" d="M46.538,118.664c-0.048,0-0.098-0.005-0.147-0.013
			c-0.458-0.081-0.764-0.518-0.684-0.976c0.366-2.082,0.98-4.436,2.766-6.111c0.338-0.318,0.872-0.302,1.19,0.038
			c0.318,0.339,0.301,0.872-0.038,1.19c-1.424,1.337-1.941,3.366-2.259,5.174C47.294,118.376,46.939,118.664,46.538,118.664
			L46.538,118.664z"/>
		<path style="clip-path:url(#SVGID_1_);fill:#DBA075;" d="M79.21,118.274c-0.422,0-0.786-0.316-0.836-0.745
			c-0.225-1.938-1.548-3.564-2.812-4.899c-0.32-0.338-0.306-0.871,0.032-1.19s0.871-0.307,1.19,0.032
			c1.456,1.536,2.981,3.434,3.264,5.862c0.054,0.463-0.277,0.881-0.739,0.935C79.276,118.272,79.243,118.274,79.21,118.274
			L79.21,118.274z"/>
		<path style="clip-path:url(#SVGID_1_);fill:#D76D6A;" d="M56.332,115.667c0.738,11.974,15.226,12.945,16.151-0.298
			C68.22,114.341,60.869,114.572,56.332,115.667z"/>
		<g style="clip-path:url(#SVGID_1_);">
			<path style="fill:#3D2210;" d="M94.588,104.031c-0.384,0-0.755-0.207-0.945-0.571c-1.344-2.565-4.224-2.991-5.399-3.055
				c-2.072-0.113-3.51,0.534-3.826,1.006c-0.327,0.489-0.988,0.619-1.479,0.291c-0.488-0.328-0.619-0.99-0.291-1.479
				c0.873-1.303,3.175-2.09,5.711-1.946c3.254,0.177,5.868,1.705,7.173,4.194c0.272,0.521,0.071,1.165-0.45,1.438
				C94.924,103.992,94.755,104.031,94.588,104.031L94.588,104.031z"/>
			<path style="fill:#3D2210;" d="M94.432,103.104c-0.062,0-0.126-0.002-0.189-0.004c-0.393-0.015-0.699-0.344-0.685-0.735
				c0.014-0.384,0.329-0.685,0.71-0.685c0.008,0,0.017,0,0.025,0c0.88,0.034,1.552-0.215,2.156-0.775
				c0.288-0.267,0.737-0.25,1.004,0.037c0.268,0.288,0.25,0.737-0.037,1.004C96.587,102.715,95.584,103.104,94.432,103.104
				L94.432,103.104z"/>
		</g>
		<g style="clip-path:url(#SVGID_1_);">
			<path style="fill:#3D2210;" d="M34.564,103.748c-0.176,0-0.354-0.043-0.518-0.135c-0.514-0.287-0.698-0.935-0.412-1.45
				c1.369-2.452,4.021-3.913,7.275-4.006c2.534-0.077,4.822,0.768,5.664,2.093c0.315,0.496,0.169,1.155-0.328,1.471
				c-0.498,0.315-1.155,0.168-1.471-0.328c-0.305-0.48-1.707-1.148-3.805-1.105c-1.176,0.034-4.063,0.386-5.475,2.915
				C35.301,103.552,34.938,103.748,34.564,103.748L34.564,103.748z"/>
			<path style="fill:#3D2210;" d="M34.858,102.828c-1.217,0-2.258-0.418-3.095-1.242c-0.279-0.275-0.283-0.725-0.008-1.004
				c0.276-0.28,0.725-0.284,1.005-0.008c0.577,0.567,1.259,0.842,2.133,0.833c0.002,0,0.004,0,0.006,0
				c0.39,0,0.707,0.313,0.71,0.704c0.004,0.392-0.312,0.713-0.704,0.716C34.89,102.828,34.875,102.828,34.858,102.828
				L34.858,102.828z"/>
		</g>
	</g>
	<g>
		<path style="fill:#A66477;" d="M37.088,144.986c-0.294,5.393,10.498,9.236,13.455,2.495c1.398-3.191,1.339-4.895,2.794-10.352
			c-0.923-1.941-7.751-5.225-11.97-5.662C41.142,137.067,37.443,138.333,37.088,144.986z"/>
	</g>
	<g>
		<path style="fill:#EDC6AD;" d="M39.757,132.839c4.871,4.189,9.091,6.09,14.52,4.213c4.044-1.398,9.88-12.83,6.044-14.69
			c-2.527-1.228-3.393,5.085-4.456,4.569c-1.056-0.515,4.679-6.777,1.12-8.514c-3.455-1.67-4.424,6.527-5.663,5.926
			c-1.069-0.518,3.812-6.895,0.522-8.504c-3.279-1.598-3.852,6.766-5.501,5.961c-1.228-0.6,2.685-6.065-0.365-7.55
			c-2.807-1.365-3.782,8.48-4.796,7.977c-0.771-0.365,0.5-3.017-1.535-3.4C34.536,117.832,35.011,128.737,39.757,132.839z"/>
		
			<linearGradient id="SVGID_2_" gradientUnits="userSpaceOnUse" x1="-124.4192" y1="360.3531" x2="-124.8028" y2="382.3302" gradientTransform="matrix(0.9655 0.2604 -0.2604 0.9655 265.2125 -199.8902)">
			<stop  offset="0" style="stop-color:#F59597"/>
			<stop  offset="0.7152" style="stop-color:#FFFFFF"/>
		</linearGradient>
		<path style="opacity:0.8;fill:url(#SVGID_2_);" d="M39.757,132.839c4.871,4.189,9.091,6.09,14.52,4.213
			c4.044-1.398,9.88-12.83,6.044-14.69c-2.527-1.228-3.393,5.085-4.456,4.569c-1.056-0.515,4.679-6.777,1.12-8.514
			c-3.455-1.67-4.424,6.527-5.663,5.926c-1.069-0.518,3.812-6.895,0.522-8.504c-3.279-1.598-3.852,6.766-5.501,5.961
			c-1.228-0.6,2.685-6.065-0.365-7.55c-2.807-1.365-3.782,8.48-4.796,7.977c-0.771-0.365,0.5-3.017-1.535-3.4
			C34.536,117.832,35.011,128.737,39.757,132.839z"/>
	</g>
</g>
</svg>
