<?xml version="1.0" encoding="utf-8"?>
<!-- Generator: Adobe Illustrator 17.0.0, SVG Export Plug-In . SVG Version: 6.00 Build 0)  -->
<!DOCTYPE svg PUBLIC "-//W3C//DTD SVG 1.1//EN" "http://www.w3.org/Graphics/SVG/1.1/DTD/svg11.dtd">
<svg version="1.1"
	 id="svg2" xmlns:svg="http://www.w3.org/2000/svg" inkscape:export-xdpi="521" inkscape:export-filename="C:\Dokumente und Einstellungen\jischa\Desktop\symbole verkehr v4 2.png" xmlns:inkscape="http://www.inkscape.org/namespaces/inkscape" xmlns:rdf="http://www.w3.org/1999/02/22-rdf-syntax-ns#" xmlns:cc="http://creativecommons.org/ns#" xmlns:dc="http://purl.org/dc/elements/1.1/" xmlns:sodipodi="http://sodipodi.sourceforge.net/DTD/sodipodi-0.dtd" inkscape:export-ydpi="521" sodipodi:docname="symbole verkehr v 5 1.svg" inkscape:version="0.48.0 r9654"
	 xmlns="http://www.w3.org/2000/svg" xmlns:xlink="http://www.w3.org/1999/xlink" x="0px" y="0px" width="135.157px"
	 height="59.839px" viewBox="0 0 135.157 59.839" enable-background="new 0 0 135.157 59.839" xml:space="preserve">
<path id="path14184" inkscape:connector-curvature="0" fill="#08A1EF" d="M8.816,59.704c-1.53-0.389-2.969-1.596-3.531-2.964
	l-0.268-0.652H2.485h-2.532v-3.67v-3.669l65.209,0.005c70.032,0.006,66.771-0.029,67.989,0.724c0.752,0.465,0.933,1.374,0.425,2.149
	c-0.532,0.811-3.726,1.993-8.489,3.14c-4.629,1.114-5.831,1.321-7.674,1.321h-1.725l-0.36,0.759
	c-1.26,2.652-4.518,3.754-7.153,2.418c-0.9-0.456-1.956-1.582-2.324-2.479l-0.286-0.696h-2.899c-2.583,0-2.898,0.025-2.898,0.239
	c0,0.692-1.469,2.386-2.547,2.938c-2.607,1.335-5.901,0.218-7.13-2.416l-0.355-0.763H60.348H30.96l-0.378,0.772
	c-1.293,2.643-4.482,3.73-7.11,2.423c-0.91-0.453-1.918-1.495-2.343-2.424l-0.352-0.771h-2.832h-2.832l-0.259,0.681
	c-0.377,0.986-1.728,2.286-2.789,2.683c-1.073,0.402-2.293,0.497-3.247,0.255v-0.003L8.816,59.704L8.816,59.704z M-0.047,32.088
	V17.336h11.009h11.009v14.752v14.751H10.962H-0.047V32.088z M13.47,35.195c0.356-0.188,0.845-0.621,1.085-0.963
	c0.373-0.529,0.446-0.788,0.494-1.734c0.09-1.783-0.389-2.806-1.605-3.426c-0.513-0.262-0.879-0.287-4.17-0.287
	c-3.292,0-3.658,0.025-4.171,0.287c-1.216,0.62-1.695,1.643-1.605,3.426c0.047,0.946,0.122,1.205,0.494,1.734
	c0.241,0.342,0.728,0.775,1.085,0.963c0.626,0.33,0.764,0.342,4.197,0.342C12.707,35.537,12.845,35.525,13.47,35.195z
	 M26.961,32.094V17.349l19.046,0.086c12.397,0.056,18.994,0.035,18.898-0.058c-0.082-0.079-2.375-1.48-5.099-3.112
	c-4.613-2.765-5.543-3.422-5.543-3.912c0-0.462,0.98-1.138,6.238-4.292l5.577-3.347l0.043-0.975c0.039-0.88,0.086-1.011,0.488-1.35
	c0.641-0.539,1.477-0.517,2.049,0.055c0.385,0.386,0.429,0.525,0.429,1.374v0.944l5.792,3.474c3.186,1.911,5.895,3.62,6.019,3.797
	c0.323,0.462,0.281,0.737-0.178,1.172c-0.223,0.21-2.605,1.702-5.296,3.314l-4.892,2.933l12.892,0.061l12.892,0.061l3.743,1.26
	c5.534,1.863,8.995,3.312,13.62,5.701c5.984,3.093,10.665,6.495,14.857,10.8c2.207,2.267,3.491,3.816,4.973,6
	c1.558,2.296,1.686,2.571,1.567,3.364c-0.181,1.206-1.089,1.73-3.428,1.98c-1.063,0.112-16.773,0.16-53.099,0.16H26.96
	L26.961,32.094L26.961,32.094L26.961,32.094z M37.539,43.13c0.634-0.267,1.293-0.919,1.553-1.533
	c0.161-0.381,0.199-2.215,0.199-9.481v-9.009l-0.342-0.646c-0.525-0.996-1.472-1.515-2.881-1.579
	c-0.614-0.027-1.411,0.028-1.771,0.125c-0.853,0.23-1.817,1.181-2.042,2.016c-0.116,0.436-0.153,3.23-0.125,9.489l0.042,8.872
	l0.442,0.63c0.468,0.666,1.118,1.122,1.883,1.319c0.655,0.17,2.443,0.051,3.042-0.202l0,0L37.539,43.13L37.539,43.13z M83.042,43.13
	c0.633-0.267,1.293-0.919,1.553-1.533c0.161-0.381,0.199-2.215,0.199-9.481v-9.009l-0.342-0.646
	c-0.525-0.996-1.472-1.515-2.881-1.579c-0.615-0.027-1.411,0.028-1.771,0.125c-0.854,0.23-1.817,1.181-2.042,2.016
	c-0.116,0.436-0.153,3.23-0.125,9.489l0.042,8.872l0.442,0.63c0.468,0.666,1.118,1.122,1.882,1.319
	C80.656,43.502,82.444,43.383,83.042,43.13L83.042,43.13z M124.289,38.351c0.255-0.315,0.26-0.386,0.061-0.881
	c-1.025-2.554-11.583-8.735-21.324-12.487c-4.671-1.798-9.614-3.097-11.792-3.097h-0.715v0.624c0.013,0.988,0.395,3.603,0.721,4.826
	c1.571,5.896,6.104,10.374,11.42,11.279c0.385,0.065,5.346,0.11,11.024,0.099l10.324-0.021l0.278-0.342L124.289,38.351
	L124.289,38.351z M54.532,35.446c0.552-0.11,1.558-0.947,1.894-1.575c0.176-0.328,0.25-0.828,0.253-1.722
	c0-1.147-0.034-1.322-0.435-1.97c-0.293-0.473-0.662-0.828-1.101-1.06c-0.651-0.345-0.705-0.349-4.414-0.306
	c-3.693,0.043-3.764,0.05-4.272,0.397c-0.726,0.498-1.124,1.145-1.304,2.114c-0.322,1.743,0.286,3.196,1.625,3.881
	c0.614,0.313,0.813,0.33,3.973,0.33C52.583,35.537,54.283,35.496,54.532,35.446L54.532,35.446z M70.276,35.195
	c0.355-0.188,0.839-0.614,1.074-0.948c0.362-0.515,0.438-0.784,0.495-1.768c0.076-1.316-0.097-2.008-0.672-2.691
	c-0.772-0.919-1.173-0.996-5.137-1c-3.253-0.003-3.615,0.021-4.129,0.284c-1.216,0.62-1.694,1.643-1.604,3.426
	c0.048,0.946,0.121,1.205,0.494,1.734c0.24,0.342,0.729,0.775,1.085,0.963c0.625,0.33,0.764,0.342,4.196,0.342
	C69.512,35.537,69.65,35.525,70.276,35.195z M73.891,14.014l5.757-3.472l-0.62-0.392c-0.341-0.216-2.746-1.667-5.346-3.225
	l-4.727-2.833l-0.393,0.31c-0.518,0.407-1.365,0.408-1.881,0.003c-0.234-0.185-0.49-0.27-0.639-0.212
	c-0.137,0.052-2.517,1.462-5.29,3.133c-3.43,2.066-4.979,3.077-4.848,3.159c3.653,2.298,11.594,6.973,11.862,6.984
	C68.005,17.48,70.172,16.256,73.891,14.014L73.891,14.014z"/>
</svg>
