<?xml version="1.0" encoding="utf-8"?>
<!-- Generator: Adobe Illustrator 17.0.0, SVG Export Plug-In . SVG Version: 6.00 Build 0)  -->
<!DOCTYPE svg PUBLIC "-//W3C//DTD SVG 1.1//EN" "http://www.w3.org/Graphics/SVG/1.1/DTD/svg11.dtd">
<svg version="1.1" id="Livello_1" xmlns="http://www.w3.org/2000/svg" xmlns:xlink="http://www.w3.org/1999/xlink" x="0px" y="0px"
	 width="126.649px" height="51.377px" viewBox="0 0 126.649 51.377" enable-background="new 0 0 126.649 51.377"
	 xml:space="preserve">
<path fill="#070707" d="M25.373,51.22c-0.25-0.013-0.459-0.039-0.685-0.039c-0.249,0-0.473,0.026-0.695,0.039
	c-0.382-1.091-0.853-2.352-1.38-3.549h-3.339c-0.459,1.157-0.933,2.314-1.301,3.549c-0.185-0.013-0.329-0.039-0.487-0.039
	c-0.171,0-0.316,0.026-0.46,0.039l4.101-9.186h0.302L25.373,51.22z M20.956,43.754l-1.433,3.364h2.893L20.956,43.754z
	 M26.426,49.447c-0.055,0.393-0.119,0.787-0.251,1.169c0.448,0.487,1.499,0.761,2.143,0.761c1.788,0,3.248-1.116,3.248-2.997
	c0-2.798-4.142-1.826-4.142-4.246c0-0.931,0.75-1.537,1.656-1.537c0.774,0,1.354,0.433,1.63,1.144h0.13
	c0.106-0.369,0.199-0.736,0.356-1.079c-0.486-0.433-1.25-0.629-1.88-0.629c-1.576,0-2.917,0.827-2.917,2.524
	c0,2.97,4.113,1.892,4.113,4.336c0,1.038-0.762,1.92-1.826,1.92c-1.025,0-1.618-0.526-2.131-1.367h-0.129V49.447z M36.454,42.86
	c1.17,0,2.091,0.078,2.746,0.158c-0.011-0.131-0.037-0.264-0.037-0.394c0-0.132,0.026-0.249,0.037-0.395h-6.78
	c0.013,0.146,0.038,0.263,0.038,0.395c0,0.131-0.025,0.264-0.038,0.394c0.75-0.08,1.55-0.158,2.876-0.158v8.386
	c0.187-0.012,0.384-0.04,0.579-0.04c0.186,0,0.37,0.028,0.579,0.04C36.454,51.246,36.454,42.86,36.454,42.86z M39.533,46.725
	c0-2.879,2.142-4.692,4.864-4.692c2.472,0,4.981,1.339,4.981,4.495c0,2.931-2.075,4.85-5.008,4.85
	C41.465,51.377,39.533,49.538,39.533,46.725 M47.263,43.741c-0.657-0.828-1.683-1.277-2.735-1.277c-2.312,0-3.708,1.751-3.708,4.418
	c0,2.669,1.632,4.062,3.59,4.062c2.775,0,3.772-2.866,3.683-4.312C48.092,45.543,47.946,44.622,47.263,43.741 M58.871,42.229
	c-0.133,0.012-0.253,0.041-0.369,0.041c-0.133,0-0.251-0.029-0.37-0.041v6.768h-0.13l-6.245-6.768h-0.513v8.99
	c0.119-0.013,0.238-0.039,0.369-0.039c0.117,0,0.236,0.026,0.366,0.039v-7.085h0.134l5.678,6.283
	c0.275,0.302,0.54,0.619,0.683,0.802h0.397V42.229z M73.498,42.229c-1.326,2.353-2.534,4.64-3.784,6.888
	c-1.407-2.326-2.668-4.798-3.72-6.888h-0.341c-0.133,1.379-0.923,6.876-1.264,8.99c0.159-0.013,0.302-0.039,0.476-0.039
	c0.143,0,0.289,0.026,0.457,0.039c0-1.615,0.357-4.219,0.645-6.782c0.894,1.709,1.812,3.417,2.656,5.152l0.725,1.488h0.142
	c0.791-1.815,1.92-3.917,3.445-6.64c0.185,1.302,0.445,4.142,0.67,6.782c0.198-0.013,0.409-0.039,0.618-0.039
	c0.196,0,0.38,0.026,0.616,0.039c-0.354-2.51-0.722-5.743-1.065-8.99C73.774,42.229,73.498,42.229,73.498,42.229z M84.055,51.22
	c-0.251-0.013-0.46-0.039-0.684-0.039c-0.249,0-0.474,0.026-0.699,0.039c-0.379-1.091-0.853-2.352-1.376-3.549h-3.341
	c-0.459,1.157-0.933,2.314-1.3,3.549c-0.184-0.013-0.33-0.039-0.487-0.039c-0.171,0-0.317,0.026-0.458,0.039l4.097-9.186h0.303
	L84.055,51.22z M79.639,43.754l-1.432,3.364h2.892L79.639,43.754z M85.45,42.229h2.787c2.024,0,2.917,0.671,2.917,1.998
	c0,1.524-1.367,2.261-2.694,2.498l2.708,3.429l0.63,0.738l0.251,0.328c-0.274-0.013-0.514-0.039-0.763-0.039
	s-0.512,0.026-0.748,0.039c-0.292-0.406-0.555-0.776-0.829-1.142l-1.549-2.012l-1.053-1.235h-0.499v4.389
	c-0.21-0.013-0.394-0.039-0.581-0.039c-0.197,0-0.393,0.026-0.576,0.039L85.45,42.229L85.45,42.229z M86.606,46.331
	c0.183,0.012,1.025,0.066,1.696-0.066c0.958-0.197,1.679-0.854,1.679-1.88c0-0.906-0.458-1.497-1.444-1.657
	c-0.484-0.077-1.38-0.038-1.931-0.012V46.331z M96.112,42.86c1.171,0,2.088,0.078,2.745,0.158c-0.014-0.131-0.039-0.264-0.039-0.394
	c0-0.132,0.025-0.249,0.039-0.395h-6.781c0.012,0.146,0.041,0.263,0.041,0.395c0,0.131-0.029,0.264-0.041,0.394
	c0.749-0.08,1.552-0.158,2.88-0.158v8.386c0.183-0.012,0.379-0.04,0.577-0.04c0.184,0,0.368,0.028,0.579,0.04
	C96.112,51.246,96.112,42.86,96.112,42.86z M100.371,51.22c0.182-0.013,0.381-0.039,0.577-0.039c0.183,0,0.367,0.026,0.579,0.039
	v-8.99c-0.212,0.012-0.396,0.041-0.579,0.041c-0.196,0-0.396-0.029-0.577-0.041V51.22z M111.716,42.229
	c-0.134,0.012-0.249,0.041-0.369,0.041c-0.132,0-0.25-0.029-0.37-0.041v6.768h-0.129l-6.244-6.768h-0.515v8.99
	c0.12-0.013,0.24-0.039,0.371-0.039c0.119,0,0.235,0.026,0.367,0.039v-7.085h0.13l5.68,6.283c0.277,0.302,0.539,0.619,0.684,0.802
	h0.396L111.716,42.229L111.716,42.229z M126.426,0.727c-0.46-0.673-1.438-0.723-1.548-0.727c-0.005,0-0.009,0-0.013,0H73.873
	c-1.606,0-2.864,0.455-3.739,1.351c-0.897,0.919-1.144,2.058-1.211,2.67H57.725c-0.067-0.612-0.314-1.751-1.211-2.67
	C55.639,0.455,54.381,0,52.774,0H1.784C1.78,0,1.775,0,1.771,0c-0.11,0.004-1.087,0.054-1.548,0.727C0.108,0.893,0,1.14,0,1.475
	C0,1.662,0.034,1.877,0.12,2.12c0.01,0.031,0.025,0.061,0.043,0.088l1.372,2.15c0.08,0.121,0.414,0.496,1.486,0.51
	c0.093,0.026,0.4,0.134,0.593,0.453c0.01,0.018,1.203,2.143,1.203,2.143C4.82,7.471,4.824,7.478,4.829,7.486
	c0.031,0.048,0.768,1.17,1.963,1.183c0.003,0,0.005,0,0.008,0s0.007,0,0.01,0c0.685,0,1.001,0.719,1.014,0.75
	C7.83,9.431,7.837,9.445,7.843,9.457c0,0,0.927,1.708,0.953,1.754c0.023,0.056,0.06,0.123,0.118,0.199
	c0.029,0.042,0.062,0.082,0.1,0.118c0.328,0.35,1.079,0.852,2.788,1.382c0.003,0,2.242,0.661,5.218,1.538
	c0.001,0,0.002,0.001,0.003,0.001c5.752,1.695,14.252,4.2,14.663,4.321c0.411,0.149,1.115,0.524,1.284,0.909
	c0-0.001,0.439,1.009,0.439,1.009c0.07,0.158,0.768,1.528,4.002,2.477c0.003,0.001,2.372,0.653,5.372,1.479l0,0l0,0
	c5.056,1.392,11.907,3.277,12.253,3.373c0.229,0.082,2.354,0.778,4.007-0.874l4.029-4.029c0.015-0.016,0.041-0.049,0.054-0.067
	l-0.017,0.022c0.004-0.004,0.037-0.036,0.114-0.052c0.043-0.003,0.077-0.006,0.102-0.008c0.024,0.002,0.058,0.005,0.101,0.008
	c0.078,0.016,0.109,0.048,0.114,0.052l-0.017-0.022c0.013,0.017,0.04,0.051,0.055,0.067l4.029,4.029
	c1.653,1.652,3.777,0.956,4.006,0.874c0.018-0.005,7.078-1.948,12.253-3.372c0.001,0,0.001,0,0.001,0l0,0
	c2.998-0.825,5.364-1.476,5.364-1.476c0.258-0.076,0.5-0.155,0.727-0.235c0.027-0.009,0.053-0.018,0.08-0.028l0,0
	c2.553-0.923,3.138-2.071,3.201-2.211c0.002-0.005,0.441-1.015,0.441-1.015c0.168-0.384,0.874-0.759,1.284-0.908
	c0.021-0.007,8.78-2.587,14.662-4.321c0.002,0,0.003,0,0.004-0.001c2.974-0.876,5.212-1.536,5.212-1.536
	c1.712-0.532,2.464-1.033,2.793-1.383c0.038-0.036,0.072-0.076,0.101-0.12c0.058-0.076,0.094-0.143,0.117-0.198
	c0.025-0.047,0.953-1.754,0.953-1.754c0.006-0.012,0.014-0.025,0.019-0.038c0.013-0.031,0.329-0.75,1.014-0.75
	c0.004,0,0.008,0,0.011,0c0.002,0,0.005,0,0.008,0c1.194-0.012,1.932-1.134,1.962-1.183c0.004-0.007,0.009-0.015,0.014-0.022
	c0,0,1.192-2.124,1.202-2.143c0.191-0.318,0.5-0.427,0.592-0.453c1.074-0.014,1.407-0.389,1.484-0.504
	c0.003-0.005,1.375-2.156,1.375-2.156c0.018-0.028,0.032-0.057,0.043-0.088c0.085-0.244,0.12-0.459,0.12-0.646
	C126.649,1.14,126.541,0.893,126.426,0.727z M70.749,1.937c0.709-0.722,1.76-1.088,3.124-1.088c0,0,11.432,0,23.468,0
	c-1.314,0.984-2.137,2.548-2.427,3.171H89.12c0,0-18.466,0-19.339,0C69.851,3.511,70.068,2.631,70.749,1.937z M89.544,9.482V8.454
	l2.063,0.275c-0.278,0.341-0.559,0.676-0.845,1.004L89.544,9.482z M90.11,10.466c-0.187,0.205-0.376,0.407-0.565,0.606v-0.724
	L90.11,10.466z M89.544,7.596V6.64l3.493,0.234C92.771,7.24,92.5,7.6,92.224,7.954C90.975,7.788,90.031,7.661,89.544,7.596z
	 M89.544,5.788V4.87h4.87c-0.262,0.404-0.528,0.801-0.8,1.191L89.544,5.788z M52.774,0.849c1.365,0,2.417,0.366,3.125,1.088
	c0.682,0.694,0.899,1.574,0.968,2.083c-0.872,0-19.339,0-19.339,0h-5.795c-0.291-0.623-1.114-2.187-2.428-3.171
	C41.343,0.849,52.774,0.849,52.774,0.849z M35.887,9.733C35.6,9.405,35.319,9.07,35.042,8.729l2.063-0.275v1.029L35.887,9.733z
	 M37.104,10.349v0.724c-0.19-0.2-0.379-0.402-0.565-0.606L37.104,10.349z M34.425,7.954C34.15,7.6,33.879,7.24,33.612,6.873
	l3.493-0.234v0.957C36.618,7.661,35.674,7.788,34.425,7.954z M33.034,6.061c-0.271-0.391-0.537-0.788-0.799-1.191h4.87v0.918
	L33.034,6.061z M3.078,4.02c-0.585,0-0.804-0.123-0.853-0.156C2.075,3.627,1.093,2.089,0.91,1.802
	C0.871,1.681,0.849,1.57,0.849,1.476c0-0.106,0.024-0.196,0.073-0.268c0.185-0.271,0.702-0.352,0.874-0.359
	c0.012,0,12.514,0,25.132,0c1.938,0,3.298,2.115,3.855,3.171H3.078z M6.804,7.818C6.106,7.814,5.603,7.113,5.548,7.033
	c-0.017-0.03-1.2-2.137-1.2-2.137C4.347,4.893,4.344,4.889,4.343,4.885C4.34,4.88,4.335,4.875,4.332,4.87h26.893
	c0.27,0.426,0.544,0.846,0.824,1.257L6.804,7.818z M9.637,10.946c-0.047-0.049-0.062-0.077-0.063-0.078l0.009,0.025H9.582
	c-0.008-0.022-0.019-0.051-0.026-0.063c0,0-0.942-1.734-0.958-1.764C8.565,8.995,8.466,8.792,8.29,8.571l24.324-1.63
	c0.275,0.387,0.555,0.769,0.84,1.144c-7.363,0.983-22.27,2.975-22.287,2.977C10.534,11.123,9.821,11.067,9.637,10.946z
	 M12.047,12.097c-0.232-0.072-0.441-0.143-0.633-0.212L34.057,8.86c0.289,0.363,0.581,0.72,0.879,1.07l-17.774,3.673L12.047,12.097z
	 M24.114,15.653L24.114,15.653l-5.223-1.54l16.684-3.448c0.437,0.491,0.883,0.969,1.339,1.433
	c-2.158,0.688-10.767,3.437-10.805,3.45C25.712,15.632,24.628,15.804,24.114,15.653z M31.666,17.878L31.666,17.878l-5.232-1.542
	l11.159-3.563c0.757,0.735,1.537,1.433,2.34,2.094c-3.031,1.419-6.042,2.829-6.065,2.84C33.701,17.76,32.494,18.122,31.666,17.878z
	 M53.198,20.914c-0.333-0.095-0.672-0.196-1.014-0.305c-0.943-0.301-1.871-0.641-2.783-1.02c2.524-2.65,5.817-6.108,6.493-6.817
	c0.722,0,1.413,0,2.061,0L53.198,20.914z M58.938,12.773c0.581,0,1.115,0,1.59,0c-0.42,1.554-1.661,6.152-2.471,9.156
	c-1.195-0.16-2.548-0.406-4.01-0.783C55.049,19.432,58.27,13.917,58.938,12.773z M48.57,19.231
	c-1.035-0.461-2.047-0.971-3.034-1.532l6.881-4.927c0.784,0,1.556,0,2.304,0L48.57,19.231z M44.735,17.229
	c-0.95-0.573-1.877-1.191-2.777-1.856c-0.141-0.105-0.282-0.211-0.422-0.318l4.875-2.283c1.471,0,3.017,0,4.548,0
	C49.59,13.752,47.117,15.523,44.735,17.229z M40.787,14.468c-0.67-0.539-1.324-1.104-1.962-1.696c1.231,0,3.238,0,5.583,0
	C43.429,13.231,42.134,13.837,40.787,14.468z M36.925,22.116c-2.215-0.797-2.728-1.748-2.743-1.777c-0.008-0.02-0.435-1-0.435-1
	c-0.103-0.235-0.275-0.442-0.473-0.618c0.492-0.086,0.852-0.204,0.882-0.214c0.016-0.005,0.031-0.012,0.045-0.018l6.469-3.029
	c0.266,0.208,0.534,0.412,0.804,0.611c0.815,0.601,1.652,1.167,2.508,1.695c-2.881,2.064-5.436,3.893-5.456,3.907
	C38.062,21.93,37.245,22.242,36.925,22.116z M43.007,23.825l-4.439-1.222c0.185-0.085,0.324-0.16,0.391-0.197
	c0.014-0.008,0.026-0.016,0.04-0.025l5.779-4.139c1.031,0.6,2.088,1.148,3.17,1.642l-2.182,2.291
	c-0.004,0.005-0.01,0.011-0.014,0.016C45.32,22.691,43.885,24.066,43.007,23.825z M49.514,25.616l-4.911-1.351
	c0.902-0.522,1.641-1.345,1.784-1.51c0.004-0.004,1.019-1.07,2.389-2.507c1.042,0.443,2.106,0.839,3.189,1.183
	c0.274,0.087,0.546,0.169,0.814,0.248C51.85,23.408,50.369,25.544,49.514,25.616z M55.259,27.197l-4.562-1.255
	c0.511-0.41,1.066-1.059,1.674-1.956c0.568-0.838,1.026-1.664,1.244-2.075c1.542,0.41,2.964,0.678,4.217,0.851
	c-0.308,1.141-0.513,1.901-0.515,1.908C56.692,26.5,56.2,27.394,55.259,27.197z M58.441,26.542
	c-0.464,0.463-0.979,0.687-1.457,0.781c0.55-0.661,0.882-1.632,1.142-2.392c0.003-0.009,0.005-0.017,0.008-0.026l0.549-2.037
	c1.337,0.15,2.442,0.19,3.243,0.19C60.834,24.15,58.441,26.542,58.441,26.542z M62.9,22.184c-0.643,0.03-2.059,0.053-3.991-0.153
	l2.499-9.258c0.845,0,1.381,0,1.492,0C62.9,13.51,62.9,21.29,62.9,22.184z M37.954,11.923c0-0.718,0-6.336,0-7.053
	c0.829,0,49.913,0,50.741,0c0,0.717,0,6.336,0,7.053C87.867,11.923,38.782,11.923,37.954,11.923z M68.694,12.773
	c0.647,0,1.339,0,2.061,0c0.676,0.709,3.969,4.167,6.493,6.817c-0.911,0.378-1.839,0.719-2.783,1.02
	c-0.342,0.109-0.681,0.21-1.014,0.305L68.694,12.773z M72.602,21.145c-1.462,0.377-2.815,0.624-4.01,0.783
	c-0.81-3.003-2.05-7.6-2.47-9.156c0.475,0,1.008,0,1.588,0C68.379,13.917,71.601,19.432,72.602,21.145z M71.928,12.773
	c0.748,0,1.521,0,2.304,0l6.881,4.927c-0.987,0.561-1.999,1.071-3.033,1.532L71.928,12.773z M75.691,12.773c1.531,0,3.077,0,4.547,0
	l4.875,2.283c-0.14,0.107-0.281,0.213-0.423,0.318c-0.898,0.665-1.826,1.283-2.777,1.856C79.532,15.523,77.059,13.752,75.691,12.773
	z M82.241,12.773c2.345,0,4.352,0,5.582,0c-0.638,0.591-1.292,1.157-1.961,1.696C84.515,13.837,83.22,13.231,82.241,12.773z
	 M63.749,22.184v-9.412c0.11,0,0.646,0,1.493,0l2.497,9.258C65.808,22.237,64.392,22.214,63.749,22.184z M68.207,26.542
	c0,0-2.383-2.384-3.484-3.484c0.801,0,1.904-0.041,3.242-0.19l0.55,2.037c0.002,0.009,0.005,0.017,0.008,0.026
	c0.259,0.76,0.591,1.731,1.142,2.392C69.188,27.229,68.672,27.006,68.207,26.542z M71.39,27.197
	c-0.94,0.197-1.433-0.697-2.059-2.528c-0.002-0.007-0.207-0.767-0.515-1.908c1.254-0.173,2.676-0.441,4.218-0.851
	c0.218,0.411,0.676,1.237,1.244,2.075c0.608,0.897,1.163,1.546,1.673,1.956C73.472,26.624,71.579,27.144,71.39,27.197z
	 M77.135,25.616c-0.854-0.072-2.335-2.208-3.265-3.938c0.269-0.078,0.54-0.161,0.814-0.248c1.084-0.344,2.147-0.74,3.189-1.183
	c1.369,1.438,2.384,2.503,2.388,2.507c0.143,0.165,0.88,0.988,1.783,1.51C80.418,24.712,78.703,25.184,77.135,25.616z
	 M83.642,23.825L83.642,23.825c-0.878,0.242-2.312-1.134-2.745-1.635c-0.004-0.005-0.01-0.01-0.013-0.016l-2.184-2.29
	c1.082-0.493,2.14-1.041,3.17-1.642l5.78,4.139c0.013,0.01,0.026,0.017,0.04,0.025c0.066,0.037,0.206,0.113,0.391,0.197
	C87.123,22.867,85.506,23.312,83.642,23.825z M92.902,19.338c-0.001,0-0.392,0.901-0.436,1c-0.015,0.028-0.527,0.98-2.749,1.778
	c-0.324,0.121-1.134-0.189-1.596-0.443c-0.019-0.014-2.574-1.843-5.455-3.907c0.856-0.528,1.693-1.093,2.508-1.695
	c0.271-0.2,0.538-0.404,0.804-0.611l6.468,3.029c0.016,0.006,0.031,0.013,0.046,0.018c0.031,0.01,0.391,0.128,0.882,0.213
	C93.177,18.897,93.005,19.103,92.902,19.338z M94.983,17.878c-0.828,0.244-2.034-0.118-2.2-0.17
	c-0.025-0.011-3.034-1.421-6.066-2.84c0.803-0.661,1.583-1.359,2.34-2.094l11.159,3.563C97.722,17.071,95.697,17.668,94.983,17.878z
	 M102.534,15.653L102.534,15.653c-0.513,0.151-1.597-0.021-1.994-0.104c-0.039-0.013-8.647-2.762-10.805-3.45
	c0.455-0.464,0.901-0.942,1.34-1.433l16.683,3.448C106.074,14.609,104.26,15.144,102.534,15.653z M114.596,12.099
	c0.002-0.001-2.185,0.644-5.108,1.505L91.713,9.931c0.298-0.351,0.591-0.707,0.88-1.07l22.641,3.024
	C115.041,11.954,114.829,12.025,114.596,12.099z M118.052,9.066c-0.017,0.029-0.958,1.764-0.958,1.764
	c-0.008,0.012-0.018,0.041-0.027,0.063l0,0l0.01-0.025c-0.001,0.001-0.017,0.029-0.063,0.078c-0.185,0.122-0.898,0.177-1.53,0.115
	c-0.018-0.002-14.924-1.993-22.287-2.977c0.285-0.375,0.564-0.757,0.84-1.144l24.324,1.63
	C118.183,8.792,118.084,8.995,118.052,9.066z M122.306,4.885c-0.002,0.003-0.004,0.007-0.006,0.011c0,0-1.182,2.107-1.2,2.137
	c-0.055,0.08-0.558,0.781-1.255,0.785L94.601,6.127c0.279-0.412,0.553-0.832,0.823-1.257h26.893
	C122.313,4.875,122.31,4.88,122.306,4.885z M125.739,1.802c-0.061,0.095-1.271,1.991-1.316,2.062
	c-0.048,0.033-0.268,0.156-0.853,0.156H95.866c0.558-1.057,1.917-3.171,3.854-3.171c12.619,0,25.121,0,25.132,0
	c0.172,0.007,0.69,0.088,0.874,0.359c0.048,0.072,0.073,0.162,0.073,0.268C125.8,1.57,125.778,1.681,125.739,1.802z M43.252,10.771
	c-0.126-0.006-0.232-0.02-0.347-0.02c-0.126,0-0.24,0.014-0.353,0.02c-0.193-0.553-0.433-1.193-0.699-1.799H40.16
	c-0.232,0.586-0.472,1.173-0.659,1.799c-0.094-0.006-0.167-0.02-0.247-0.02c-0.087,0-0.16,0.014-0.233,0.02L41.1,6.113h0.153
	L43.252,10.771z M41.013,6.986l-0.727,1.706h1.467L41.013,6.986z M43.786,9.872c-0.028,0.2-0.061,0.399-0.127,0.592
	c0.227,0.247,0.76,0.387,1.087,0.387c0.907,0,1.646-0.566,1.646-1.52c0-1.418-2.1-0.926-2.1-2.152c0-0.472,0.38-0.78,0.84-0.78
	c0.393,0,0.687,0.22,0.826,0.58h0.065c0.054-0.187,0.101-0.374,0.18-0.547c-0.246-0.22-0.633-0.319-0.952-0.319
	c-0.799,0-1.479,0.419-1.479,1.28c0,1.505,2.084,0.959,2.084,2.199c0,0.526-0.386,0.973-0.925,0.973
	c-0.519,0-0.82-0.266-1.081-0.693C43.85,9.872,43.786,9.872,43.786,9.872z M48.87,6.533c0.593,0,1.061,0.04,1.393,0.081
	c-0.006-0.066-0.02-0.134-0.02-0.2c0-0.067,0.014-0.127,0.02-0.2h-3.438c0.006,0.074,0.019,0.133,0.019,0.2
	c0,0.066-0.012,0.134-0.019,0.2c0.379-0.041,0.786-0.081,1.458-0.081v4.252c0.095-0.006,0.195-0.02,0.293-0.02
	c0.094,0,0.188,0.014,0.294,0.02V6.533z M50.431,8.492c0-1.46,1.086-2.379,2.466-2.379c1.253,0,2.525,0.679,2.525,2.279
	c0,1.485-1.052,2.458-2.538,2.458C51.411,10.851,50.431,9.918,50.431,8.492 M54.35,6.979c-0.333-0.42-0.853-0.648-1.387-0.648
	c-1.172,0-1.88,0.888-1.88,2.24c0,1.353,0.829,2.06,1.82,2.06c1.407,0,1.913-1.453,1.867-2.186
	C54.77,7.893,54.695,7.426,54.35,6.979 M60.235,6.213c-0.068,0.006-0.128,0.021-0.188,0.021c-0.067,0-0.127-0.015-0.188-0.021v3.432
	h-0.066l-3.166-3.432h-0.26v4.558c0.061-0.006,0.121-0.02,0.187-0.02c0.06,0,0.119,0.014,0.186,0.02V7.179h0.067l2.878,3.185
	c0.14,0.153,0.273,0.314,0.346,0.407h0.202V6.213H60.235z M67.65,6.213c-0.672,1.193-1.285,2.352-1.919,3.492
	c-0.713-1.179-1.353-2.433-1.885-3.492h-0.173c-0.068,0.7-0.467,3.486-0.641,4.558c0.08-0.006,0.153-0.02,0.241-0.02
	c0.073,0,0.147,0.014,0.232,0.02c0-0.819,0.181-2.14,0.327-3.438c0.453,0.867,0.919,1.732,1.346,2.612l0.368,0.754h0.072
	c0.4-0.921,0.973-1.986,1.746-3.366c0.094,0.66,0.226,2.1,0.339,3.438c0.1-0.006,0.208-0.02,0.314-0.02
	c0.099,0,0.191,0.014,0.312,0.02c-0.18-1.273-0.366-2.912-0.54-4.558C67.789,6.213,67.65,6.213,67.65,6.213z M73.002,10.771
	c-0.127-0.006-0.233-0.02-0.347-0.02c-0.126,0-0.239,0.014-0.354,0.02c-0.192-0.553-0.432-1.193-0.698-1.799H69.91
	c-0.233,0.586-0.472,1.173-0.659,1.799c-0.093-0.006-0.167-0.02-0.247-0.02c-0.087,0-0.16,0.014-0.232,0.02l2.078-4.658h0.154
	L73.002,10.771z M70.763,6.986l-0.726,1.706h1.465L70.763,6.986z M73.709,6.213h1.413c1.027,0,1.478,0.34,1.478,1.013
	c0,0.772-0.692,1.146-1.365,1.266l1.373,1.738l0.318,0.374l0.128,0.167c-0.139-0.006-0.26-0.02-0.386-0.02s-0.259,0.014-0.379,0.02
	c-0.147-0.206-0.281-0.394-0.42-0.58l-0.786-1.019l-0.534-0.627h-0.252v2.226c-0.107-0.006-0.201-0.02-0.295-0.02
	c-0.099,0-0.199,0.014-0.292,0.02V6.213H73.709z M74.296,8.292c0.092,0.007,0.52,0.034,0.859-0.033
	c0.486-0.1,0.852-0.433,0.852-0.954c0-0.46-0.233-0.758-0.732-0.839c-0.246-0.039-0.7-0.02-0.979-0.006V8.292z M79.114,6.533
	c0.594,0,1.059,0.04,1.392,0.081c-0.007-0.066-0.02-0.134-0.02-0.2c0-0.067,0.013-0.127,0.02-0.2h-3.438
	c0.005,0.074,0.021,0.133,0.021,0.2c0,0.066-0.016,0.134-0.021,0.2c0.38-0.041,0.787-0.081,1.46-0.081v4.252
	c0.093-0.006,0.192-0.02,0.292-0.02c0.093,0,0.187,0.014,0.294,0.02C79.114,10.785,79.114,6.533,79.114,6.533z M81.274,10.771
	c0.092-0.006,0.194-0.02,0.292-0.02c0.093,0,0.186,0.014,0.292,0.02V6.213c-0.106,0.006-0.199,0.021-0.292,0.021
	c-0.099,0-0.2-0.015-0.292-0.021V10.771z M87.024,6.213c-0.067,0.006-0.126,0.021-0.187,0.021c-0.067,0-0.128-0.015-0.188-0.021
	v3.432h-0.065l-3.165-3.432h-0.261v4.558c0.061-0.006,0.121-0.02,0.187-0.02c0.06,0,0.12,0.014,0.187,0.02V7.179h0.065l2.88,3.185
	c0.14,0.153,0.273,0.314,0.346,0.407h0.201L87.024,6.213L87.024,6.213z"/>
</svg>
