<?xml version="1.0" encoding="utf-8"?>
<!-- Generator: Adobe Illustrator 17.0.0, SVG Export Plug-In . SVG Version: 6.00 Build 0)  -->
<!DOCTYPE svg PUBLIC "-//W3C//DTD SVG 1.1//EN" "http://www.w3.org/Graphics/SVG/1.1/DTD/svg11.dtd">
<svg version="1.1" id="图层_1" xmlns="http://www.w3.org/2000/svg" xmlns:xlink="http://www.w3.org/1999/xlink" x="0px" y="0px"
	 width="35px" height="24.66px" viewBox="0 0 35 24.66" enable-background="new 0 0 35 24.66" xml:space="preserve">
<path fill="#282727" d="M34.997,9.018L34,14.66v10h-2l-7-10l-7.502,8.391L10,14.66l-7,10H1v-10l-1-6l3,6v4l1,1l1-1v-5l4.965-5.353
	l6.315,6.612v3.039l1.218,1.01l1.218-1.01v-3.039l6.315-6.612L30,13.66v5l1,1l1-1v-4L34.997,9.018z M14.025,5.358l3.338-5.361
	l3.608,5.451l-3.608,4.557L14.025,5.358z M15,24.66H6l4.416-5.183L15,24.66z M29,24.66H19l5.58-5.183L29,24.66z"/>
</svg>
