<?xml version="1.0" encoding="utf-8"?>
<!-- Generator: Adobe Illustrator 17.0.0, SVG Export Plug-In . SVG Version: 6.00 Build 0)  -->
<!DOCTYPE svg PUBLIC "-//W3C//DTD SVG 1.1//EN" "http://www.w3.org/Graphics/SVG/1.1/DTD/svg11.dtd">
<svg version="1.1" id="图层_1" xmlns="http://www.w3.org/2000/svg" xmlns:xlink="http://www.w3.org/1999/xlink" x="0px" y="0px"
	 width="31px" height="32.38px" viewBox="0 0 31 32.38" enable-background="new 0 0 31 32.38" xml:space="preserve">
<path fill="#1AB3FF" d="M31.014,6.936l-0.096-2.948c0.04-1.85-0.99-2.902-3.572-3.588c-2.368-0.346-5.622-1.057-8.979,0.734
	c-1.889-0.679-3.884-1.253-6.658-1.046C5.438,0.672,3.043,3.842,2.676,8.363c-1.323,0.151-2.572,0.499-2.663,3.994
	c-0.086,3.96,1.251,4.617,2.571,5.054L2.581,29.005c0.186,1.369-0.07,2.896,3.042,3.234l4.66,0.095
	c1.705,0.222,2.889-0.862,3.519-3.329c0.221,2.006,1.102,3.105,2.758,3.138h5.42c1.225-0.326,2.735-0.28,2.923-2.509V17.411
	l1.358,0.084c1.163-0.169,2.924-0.603,3.739-2.525v-3c-0.235-1.475-1.236-1.674-1.648-1.991C29.459,9.736,30.604,9.619,31.014,6.936
	z M28,7.97c-0.858-0.686-2.158-1.389-3.37-1.544c-3.371-0.474-2.487,2.38-2.65,4.608L27,10.97v4h-5v14h-5v-14h-6v14H6v-14
	l-3.15-0.216l0.33-3.821l2.622,0.134l-0.067-1.008c0.117-2.411-0.094-6.567,5.07-7.214C12.261,2.944,12.17,2.74,16,3.97v4
	c-1.503,0.371-1.678-1.718-2.466-1.611c-2.437-0.115-2.557,0.993-2.713,2.284L11,10.97h6c0.151-3.298-0.77-7.137,4.692-7.864
	c2.384-0.317,4.574-0.014,6.233,0.696L28,7.97z"/>
</svg>
