<?xml version="1.0" encoding="iso-8859-1"?>
<!-- Generator: Adobe Illustrator 17.0.0, SVG Export Plug-In . SVG Version: 6.00 Build 0)  -->
<!DOCTYPE svg PUBLIC "-//W3C//DTD SVG 1.1//EN" "http://www.w3.org/Graphics/SVG/1.1/DTD/svg11.dtd">
<svg version="1.1" xmlns="http://www.w3.org/2000/svg" xmlns:xlink="http://www.w3.org/1999/xlink" x="0px" y="0px" width="128px"
	 height="128px" viewBox="0 0 128 128" style="enable-background:new 0 0 128 128;" xml:space="preserve">
<g id="Layer_1">
</g>
<g id="Layer_2">
	<g>
		<circle style="fill:#88C5CC;" cx="64" cy="64" r="64"/>
		<path style="fill:#80B9BF;" d="M124.721,84.217c-0.05-0.104-0.091-0.213-0.144-0.316c-0.248-0.931-0.602-1.828-1.041-2.69
			c-0.236-0.826-0.559-1.621-0.951-2.384c-0.243-0.914-0.588-1.796-1.017-2.642c-0.324-1.202-0.821-2.356-1.451-3.449
			c-0.179-0.463-0.382-0.918-0.607-1.363c-0.236-0.814-0.554-1.601-0.938-2.356c-0.25-0.933-0.606-1.834-1.046-2.7
			c-0.236-0.821-0.557-1.613-0.946-2.374c-0.248-0.927-0.6-1.822-1.037-2.681c-0.236-0.83-0.561-1.629-0.955-2.395
			c-0.243-0.914-0.587-1.797-1.018-2.643c-0.249-0.926-0.603-1.823-1.04-2.688c-0.314-1.092-0.777-2.136-1.355-3.124
			c-0.176-0.462-0.375-0.914-0.601-1.356c-0.249-0.929-0.604-1.827-1.041-2.69c-0.236-0.824-0.559-1.62-0.951-2.384
			c-0.248-0.927-0.599-1.821-1.037-2.681c-0.401-1.409-1.054-2.73-1.885-3.949C102.701,31.235,95.444,27,90,27h-4H64H38
			c-7,0-17,7-17,16v0.512v0.513V55l2,5.852c-0.949,0.155-1.676,0.974-1.676,1.967c0,0.83,0.142,1.625,0.393,2.368
			c0.13,0.573,0.326,1.119,0.583,1.63c0.114,0.349,0.25,0.687,0.414,1.01c0.113,0.349,0.25,0.686,0.413,1.008
			c0.113,0.349,0.25,0.685,0.413,1.007c0.017,0.053,0.034,0.107,0.053,0.159H20c-1.65,0-3,1.35-3,3v0.512v0.513V75v0.512v0.513
			c0,0.784,0.405,1.489,1,2.019L21,91v1l10.956,27.392C41.382,124.856,52.321,128,64,128C92.278,128,116.256,109.651,124.721,84.217
			z"/>
		<path style="fill:#F2CB91;" d="M107,77.706V91c0,1.65-1.35,2.706-3,2.706H24c-1.65,0-3-1.056-3-2.706V77.706H107z"/>
		<path style="fill:#E6C18A;" d="M103,77.706V91c0,1.65-1.35,2.706-3,2.706h4c1.65,0,3-1.056,3-2.706V77.706H103z"/>
		<path style="fill:#FFD464;" d="M89.422,70.092c-3.906,0-7.085-3.263-7.085-7.273c0-1.805-1.384-3.273-3.084-3.273
			c-1.701,0-3.085,1.468-3.085,3.273c0,4.011-3.178,7.273-7.084,7.273c-3.906,0-7.084-3.263-7.084-7.273
			c0-1.805-1.384-3.273-3.085-3.273c-1.701,0-3.084,1.468-3.084,3.273c0,4.011-3.178,7.273-7.084,7.273
			c-3.906,0-7.084-3.263-7.084-7.273c0-1.805-1.384-3.273-3.085-3.273c-1.701,0-3.084,1.468-3.084,3.273
			c0,4.011-3.178,7.273-7.084,7.273c-3.906,0-7.085-3.263-7.085-7.273c0-1.104,0.896-2,2-2c1.105,0,2,0.896,2,2
			c0,1.805,1.384,3.273,3.085,3.273c1.701,0,3.084-1.469,3.084-3.273c0-4.01,3.178-7.273,7.084-7.273
			c3.906,0,7.085,3.263,7.085,7.273c0,1.805,1.384,3.273,3.084,3.273c1.701,0,3.084-1.469,3.084-3.273
			c0-4.01,3.178-7.273,7.084-7.273c3.906,0,7.085,3.263,7.085,7.273c0,1.805,1.384,3.273,3.084,3.273
			c1.701,0,3.084-1.469,3.084-3.273c0-4.01,3.178-7.273,7.085-7.273c3.906,0,7.084,3.263,7.084,7.273
			c0,1.805,1.384,3.273,3.085,3.273c1.701,0,3.084-1.469,3.084-3.273c0-4.01,3.178-7.273,7.085-7.273
			c3.906,0,7.084,3.263,7.084,7.273c0,1.104-0.896,2-2,2s-2-0.895-2-2c0-1.805-1.384-3.273-3.084-3.273
			c-1.701,0-3.085,1.468-3.085,3.273C96.507,66.829,93.329,70.092,89.422,70.092z"/>
		<path style="fill:#F2CB91;" d="M90,26.706H64H38C31,26.706,21,34,21,43v11.706h43h43V43C107,34,97,26.706,90,26.706z"/>
		<path style="fill:#E6C18A;" d="M90,26.706h-4c7,0,17,7.294,17,16.294v11.706h4V43C107,34,97,26.706,90,26.706z"/>
		<path style="fill:#99392F;" d="M111,74.706c0,1.657-1.343,3-3,3H20c-1.657,0-3-1.343-3-3v-2c0-1.657,1.343-3,3-3h88
			c1.657,0,3,1.343,3,3V74.706z"/>
		<circle style="fill:#F5F5F5;" cx="33" cy="40" r="1"/>
		<circle style="fill:#F5F5F5;" cx="40" cy="35" r="1"/>
		<circle style="fill:#F5F5F5;" cx="58" cy="36" r="1"/>
		<circle style="fill:#F5F5F5;" cx="50" cy="34" r="1"/>
		<circle style="fill:#F5F5F5;" cx="44" cy="43" r="1"/>
		<circle style="fill:#F5F5F5;" cx="56" cy="45" r="1"/>
		<circle style="fill:#F5F5F5;" cx="68" cy="32" r="1"/>
		<circle style="fill:#F5F5F5;" cx="69" cy="42" r="1"/>
		<circle style="fill:#F5F5F5;" cx="80" cy="42" r="1"/>
		<circle style="fill:#F5F5F5;" cx="76" cy="46" r="1"/>
		<circle style="fill:#F5F5F5;" cx="78" cy="34" r="1"/>
		<circle style="fill:#F5F5F5;" cx="91" cy="42" r="1"/>
		<circle style="fill:#F5F5F5;" cx="87" cy="35" r="1"/>
		<circle style="fill:#F5F5F5;" cx="94" cy="35" r="1"/>
		<path style="fill:#CC4C3F;" d="M102,73.706H21c-0.552,0-1-0.447-1-1c0-0.553,0.448-1,1-1h81c0.552,0,1,0.447,1,1
			C103,73.259,102.552,73.706,102,73.706z"/>
	</g>
</g>
</svg>
