<?xml version="1.0" encoding="utf-8"?>
<!-- Generator: Adobe Illustrator 17.0.0, SVG Export Plug-In . SVG Version: 6.00 Build 0)  -->
<!DOCTYPE svg PUBLIC "-//W3C//DTD SVG 1.1//EN" "http://www.w3.org/Graphics/SVG/1.1/DTD/svg11.dtd">
<svg version="1.1" id="OBJECTS" xmlns="http://www.w3.org/2000/svg" xmlns:xlink="http://www.w3.org/1999/xlink" x="0px" y="0px"
	 width="161.753px" height="147.527px" viewBox="0 0 161.753 147.527" enable-background="new 0 0 161.753 147.527"
	 xml:space="preserve">
<g>
	<path fill="#84440F" d="M150.903,82.525c-1.533,6.036-0.139,12.746,3.671,17.672c1.198,1.549,2.666,3.024,3.065,4.941
		c0.26,1.25,0.027,2.543-0.206,3.798c-1.938,10.447-5.59,32.728-6.26,33.696c-1.851,2.673-3.872,3.855-9.82,3.479
		c-4.105-0.26-8.862,0.055-10.971-3.477c-1.856-3.108-0.723-7.623,2.38-9.487c1.389-0.835,3.465-0.272,3.322-1.886
		c-0.455-5.133-1.41-10.583-4.944-14.333c-1.712-1.817-3.906-3.091-5.896-4.599c-6.001-4.548-13.948-15.589-11.417-23.685
		c2.248-7.188,11.988-12.797,18.623-14.993c2.999-0.993,11.802-0.642,15.93,4.427C149.479,79.43,151.332,80.836,150.903,82.525z"/>
	<path fill="#84440F" d="M78.35,91.228c-2.816-3.962-6.733-6.919-11.891-6.879c-22.501,0.172-4.742,31.082-5.56,42.137
		c-0.09,1.212,1.301,6.528-2.575,8.687c-3.218,1.793-2.884,5.582-2.004,8.455c0.88,2.874,4.017,3.64,7.017,3.815
		c5.793,0.338,8.783-0.425,12.906-0.863c1.643-0.174,3.395-0.395,4.649-1.47c1.793-1.537,1.93-4.214,1.93-6.576
		c0-11.015,0.001-22.029,0.001-33.044c0-1.183,0.108-2.552,0.201-3.982C82.107,98.108,80.571,94.355,78.35,91.228z"/>
	<path fill="#AD621F" d="M145.785,55.386c1.67-1.708,3.972-2.905,6.361-2.84c2.388,0.065,4.785,1.578,5.495,3.859
		c1.106,3.551-1.902,6.988-2.583,10.645c-0.322,1.726-0.114,3.5,0.051,5.248c0.595,6.31,0.566,12.91-2.049,18.683
		c-3.712,8.192-12.485,11.701-21.335,13.302c-17.734,3.207-35.057,11.502-53.607,11.759c-13.446,0.187-26.427-9.469-30.115-22.4
		c-2.998-10.51-0.256-21.724,2.843-32.205c4.533-3.248,7.286-7.667,11.75-11.008c7.587-5.679,18.086-5.192,27.368-3.28
		C108.538,50.975,127.056,58.361,145.785,55.386z"/>
	<g>
		<defs>
			<path id="SVGID_7_" d="M145.785,55.386c1.67-1.708,3.972-2.905,6.361-2.84c2.388,0.065,4.785,1.578,5.495,3.859
				c1.106,3.551-1.902,6.988-2.583,10.645c-0.322,1.726-0.114,3.5,0.051,5.248c0.595,6.31,0.566,12.91-2.049,18.683
				c-3.712,8.192-12.485,11.701-21.335,13.302c-17.734,3.207-35.057,11.502-53.607,11.759c-13.446,0.187-26.427-9.469-30.115-22.4
				c-2.998-10.51-0.256-21.724,2.843-32.205c4.533-3.248,7.286-7.667,11.75-11.008c7.587-5.679,18.086-5.192,27.368-3.28
				C108.538,50.975,127.056,58.361,145.785,55.386z"/>
		</defs>
		<clipPath id="SVGID_2_">
			<use xlink:href="#SVGID_7_"  overflow="visible"/>
		</clipPath>
		<path clip-path="url(#SVGID_2_)" fill="#FFFFFF" d="M60.331,108.135c-0.501-2.414-0.933-4.845-1.24-7.292
			c-0.695-5.555-1.079-11.073-0.28-16.631c1.557-10.831,7.05-19.896,15.886-25.701c3.965-2.664,5.264-5.522,5.536-7.85
			c1.414-12.099-11.963-10.874-19.289-9.305c-7.469,1.599-10.921,6.187-14.58,12.737c-10.044,17.979-10.983,41.184-1.177,59.465
			c1.909,3.559,5.03,7.365,9.044,6.913c1.612-0.181,3.069-1.061,4.301-2.116c1.33-1.139,2.416-2.468,3.31-3.922
			C61.538,112.281,60.701,109.918,60.331,108.135z"/>
		<path clip-path="url(#SVGID_2_)" fill="#CCCCCC" d="M46.141,4.082c-4.47-2.593-10.247-2.778-14.874-0.477
			c-5.767,2.867-10.342,8.116-16.75,8.764c-2.492,0.252-2.471,1.891-2.278,2.856c0.853,4.272,1.082,8.667,0.675,13.004
			c-0.522,5.57-2.078,10.995-2.802,16.542S9.57,56.234,12.29,61.123c3.644,6.551,11.085,10.003,18.323,11.954
			c8.33,2.246,16.997,0.295,24.227-4.412c7.477-4.868,13.808-11.739,17.134-20.018s3.427-18-0.608-25.957
			C66.579,13.251,55.296,9.392,46.141,4.082z"/>
	</g>
	<path fill="#AD621F" d="M154.903,82.525c-1.533,6.036-0.139,12.746,3.671,17.672c1.198,1.549,2.666,3.024,3.065,4.941
		c0.26,1.25,0.027,2.543-0.206,3.798c-1.938,10.447-5.59,32.728-6.26,33.696c-1.851,2.673-3.872,3.855-9.82,3.479
		c-4.105-0.26-8.862,0.055-10.971-3.477c-1.856-3.108-0.723-7.623,2.38-9.487c1.389-0.835,3.465-0.272,3.322-1.886
		c-0.455-5.133-1.41-10.583-4.944-14.333c-1.712-1.817-3.906-3.091-5.896-4.599c-6.001-4.548-13.948-15.589-11.417-23.685
		c2.248-7.188,11.988-12.797,18.623-14.993c2.999-0.993,11.802-0.642,15.93,4.427C153.479,79.43,155.332,80.836,154.903,82.525z"/>
	<path fill="#AD621F" d="M82.35,91.228c-2.816-3.962-6.733-6.919-11.891-6.879c-22.501,0.172-4.742,31.082-5.56,42.137
		c-0.09,1.212,1.301,6.528-2.575,8.687c-3.218,1.793-2.884,5.582-2.004,8.455c0.88,2.874,4.017,3.64,7.017,3.815
		c5.793,0.338,8.783-0.425,12.906-0.863c1.643-0.174,3.395-0.395,4.649-1.47c1.793-1.537,1.93-4.214,1.93-6.576
		c0-11.015,0.001-22.029,0.001-33.044c0-1.183,0.108-2.552,0.201-3.982C86.107,98.108,84.571,94.355,82.35,91.228z"/>
	<g>
		<path fill="#AD621F" d="M10.369,56.243c-3.761,0.113-7.177-2.662-8.741-6.083s-1.575-7.355-1.076-11.085
			c0.499-3.729,1.475-7.391,1.792-11.14c0.349-4.123,0.037-8.717,2.706-11.878c1.369-1.622,3.49-2.682,5.582-3.041
			c2.092-0.359,4.251-0.399,6.271-1.051c3.153-1.017,5.635-3.401,8.248-5.438s5.766-3.854,9.049-3.408
			c1.353,1.051,1.473,2.101,1.112,3.776c-1.485,6.885-6.787,12.233-9.901,18.551c-1.73,3.51-2.776,7.31-4.139,10.978
			C18.73,43.266,13.99,49.906,10.369,56.243z"/>
		<g>
			<defs>
				<path id="SVGID_9_" d="M10.369,56.243c-3.761,0.113-7.177-2.662-8.741-6.083s-1.575-7.355-1.076-11.085
					c0.499-3.729,1.475-7.391,1.792-11.14c0.349-4.123,0.037-8.717,2.706-11.878c1.369-1.622,3.49-2.682,5.582-3.041
					c2.092-0.359,4.251-0.399,6.271-1.051c3.153-1.017,5.635-3.401,8.248-5.438s5.766-3.854,9.049-3.408
					c1.353,1.051,1.473,2.101,1.112,3.776c-1.485,6.885-6.787,12.233-9.901,18.551c-1.73,3.51-2.776,7.31-4.139,10.978
					C18.73,43.266,13.99,49.906,10.369,56.243z"/>
			</defs>
			<clipPath id="SVGID_4_">
				<use xlink:href="#SVGID_9_"  overflow="visible"/>
			</clipPath>
			<path clip-path="url(#SVGID_4_)" fill="#333333" d="M0,16.182c0.628,1.952,1.828,4.313,3.872,4.147
				c0.602-0.049,1.16-0.333,1.671-0.655c2.978-1.879,4.887-5.345,4.883-8.866c-3.894,0.619-7.576,2.504-10.354,5.302"/>
		</g>
		<path fill="#FFFFFF" d="M43.141,2.082c-4.47-2.593-10.247-2.778-14.874-0.477C22.5,4.472,17.925,9.72,11.517,10.368
			c-2.492,0.252-2.471,1.891-2.278,2.856c0.853,4.272,1.082,8.667,0.675,13.004c-0.522,5.57-2.078,10.995-2.802,16.542
			S6.57,54.234,9.29,59.123c3.644,6.551,11.085,10.003,18.323,11.954c8.33,2.246,16.997,0.295,24.227-4.412
			c7.477-4.868,13.808-11.739,17.134-20.018s3.427-18-0.608-25.957C63.579,11.251,52.296,7.392,43.141,2.082z"/>
		<path fill="#AD621F" d="M51.941,10.8c0.137-2.098,0.688-4.592,2.661-5.315c1.378-0.505,2.891,0.097,4.233,0.691
			c6.905,3.053,22.616,13.871,14.701,22.295c-2.089,2.351-4.179,4.702-6.269,7.055C54.02,50.433,51.414,18.904,51.941,10.8z"/>
		<path fill="#333333" d="M29.379,12.164c-0.701,0.598-1.402,1.196-2.102,1.795c-0.642,0.548-1.444,1.067-1.871,1.806
			c-0.131,0.227-0.102,0.472,0.017,0.652c-0.091,0.41,0.491,0.732,0.877,0.485c1.487-0.953,2.75-2.419,3.938-3.714
			C30.799,12.575,30.054,11.588,29.379,12.164z"/>
	</g>
</g>
</svg>
