<?xml version="1.0" encoding="utf-8"?>
<!-- Generator: Adobe Illustrator 17.0.0, SVG Export Plug-In . SVG Version: 6.00 Build 0)  -->
<!DOCTYPE svg PUBLIC "-//W3C//DTD SVG 1.1//EN" "http://www.w3.org/Graphics/SVG/1.1/DTD/svg11.dtd">
<svg version="1.1" id="_x37C_" xmlns="http://www.w3.org/2000/svg" xmlns:xlink="http://www.w3.org/1999/xlink" x="0px" y="0px"
	 width="221.102px" height="305.294px" viewBox="0 0 221.102 305.294" enable-background="new 0 0 221.102 305.294"
	 xml:space="preserve">
<path fill="#FF3333" d="M50.909,66.234c-0.354-0.235-0.178-0.505-0.084-0.816c1.054-3.518,3.323-6.184,6.022-8.524
	c1.892-1.643,4.041-2.811,6.582-3.141c1.562-0.203,3.052,0.009,4.475,0.687c2.91,1.386,5.259,3.485,7.457,5.801
	c3.425,3.606,6.611,7.402,9.45,11.487c0.154,0.22,0.403,0.415,0.354,0.896c-0.844-0.695-1.604-1.355-2.399-1.974
	c-4.841-3.765-10.241-6.241-16.388-6.788c-4.971-0.443-9.793,0.256-14.316,2.495C51.608,66.58,51.27,66.472,50.909,66.234z
	 M97.315,118.656c0.051,0.29,0.103,0.578,0.156,0.866c-0.081,0.009-0.159,0.02-0.239,0.027c-0.262,2.958-1.077,5.703-3.062,7.998
	c-2.624,3.041-6.588,3.629-9.957,1.427c-2.906-1.901-4.563-4.705-5.481-7.969c-1.216-4.335-1.081-8.589,1.14-12.609
	c1.256-2.273,3.092-3.891,5.741-4.379c1.011-0.184,2.021-0.125,3.013,0.135c0.204,0.054,0.397,0.123,0.607,0.065
	c3.82,2.389,5.61,6.181,7.029,10.217C96.744,115.807,97.072,117.223,97.315,118.656L97.315,118.656z M86.301,106.951
	c-0.961-1.029-2.223-1.266-3.462-0.568c-1.84,1.034-2.5,2.729-2.542,4.742c0.016,0.208,0.021,0.417,0.049,0.622
	c0.265,2.082,1.985,3.408,3.786,2.925C87.079,113.883,88.397,109.191,86.301,106.951z M128.465,70.968
	c1.913-1.201,3.808-2.432,5.727-3.625c3.923-2.441,7.901-4.793,12.189-6.548c1.978-0.81,4.032-1.332,6.221-1.123
	c3.03,0.291,5.557,1.776,8.019,3.377c0.542,0.35,0.745,0.204,1.093-0.115c0.344-0.32,0.298-0.715,0.219-1.09
	c-0.88-4.128-2.796-7.614-6.512-9.827c-3.576-2.128-7.205-2.368-10.881-0.052c-2.989,1.884-5.467,4.287-7.686,7
	c-3.26,3.977-5.991,8.357-9.343,12.28C127.927,71.41,128.189,71.14,128.465,70.968z M114.855,174.183
	c0.053,0.169-0.103,0.276-0.23,0.368c-0.628,0.451-1.333,0.707-2.101,0.704c-1.479-0.007-2.851-0.442-4.116-1.197
	c-0.214-0.127-0.442-0.268-0.548-0.654c1.01-0.008,1.885,0.348,2.784,0.551c1.253,0.279,2.491,0.453,3.758,0.133
	C114.554,174.048,114.778,173.927,114.855,174.183z M134.68,149.909c-0.078,0.283-0.197,0.543-0.463,0.724
	c-1.263,1.627-2.694,3.077-4.405,4.244c-0.962,0.659-1.885,1.373-2.684,2.237c-1.069,1.158-1.719,2.511-1.941,4.072
	c2.135-0.261,4.227-0.24,6.162,0.927c-2.065-0.467-4.132-0.708-6.205-0.09c0.116,2.657,1.635,4.521,3.512,6.171
	c1.171,1.027,2.534,1.814,3.663,2.896c0.176,0.088,0.367,0.162,0.352,0.426c-0.245,0.02-0.375-0.129-0.506-0.278
	c-1.927-1.29-3.988-2.4-5.546-4.184c-1.221-1.401-2.056-2.967-2.161-4.86c-1.932,0.553-3.592,1.602-5.109,2.88
	c-2.524,2.126-5.355,3.341-8.719,3.026c-2.457-0.229-4.651-1.177-6.739-2.44c-1.575-0.953-3.014-2.118-4.656-2.967
	c-0.141,2.162-1.045,3.943-2.681,5.352c-0.777,0.668-1.654,1.139-2.679,1.349c-1.173,0.239-2.301,0.631-3.369,1.184
	c-0.171,0.088-0.329,0.287-0.606,0.122c1.04-0.817,2.203-1.326,3.445-1.689c3.14-0.92,4.879-3.069,5.158-6.357
	c0.01-0.105,0.018-0.208,0.026-0.312c-2.521-1.112-4.882-0.964-7.142,0.996c0.159-0.578,0.5-0.847,0.823-1.108
	c1.735-1.398,3.705-1.434,5.758-0.958c0.148,0.034,0.299,0.072,0.448,0.107c-0.48-2.51-2.049-4.313-3.888-5.928
	c-1.656-1.457-3.283-2.94-4.681-4.656c-0.275-0.189-0.449-0.451-0.651-0.861c0.443,0.17,0.637,0.425,0.839,0.673
	c1.763,1.648,3.579,3.237,5.411,4.811c1.934,1.657,3.385,3.648,3.728,6.273c2.493,1.229,4.673,2.99,7.193,4.173
	c3.899,1.827,7.666,1.747,11.277-0.75c0.768-0.532,1.547-1.048,2.306-1.591c1.4-0.999,2.841-1.914,4.55-2.301
	c0.236-2.526,1.574-4.428,3.565-5.839c2.118-1.5,4.172-3.059,5.982-4.922C134.185,150.21,134.388,150.028,134.68,149.909z
	 M176.426,102.466c0.97,10.692-2.408,20.148-9.708,28.087c-5.296,5.757-11.869,9.511-19.256,11.927
	c-3.604,1.18-7.317,1.956-10.955,3.001c-5.621,1.614-11.092,3.642-16.185,6.578c-2.171,1.252-4.022,2.844-5.309,5.033
	c0.015,0.193-0.109,0.437-0.219,0.437c-0.22,0-0.351-0.217-0.422-0.433c-0.001-0.001-0.002-0.003-0.003-0.004
	c-3.989-4.071-9.1-5.955-14.431-7.395c-4.053-1.095-8.196-1.614-12.359-2.057c-9.188-0.975-17.96-3.342-25.896-8.236
	c-6.975-4.306-12.258-10.108-14.94-17.966c-4.061-11.883-0.492-25.782,9.192-33.668c4.027-3.279,8.744-5.155,13.803-6.157
	c8.708-1.726,17.093-0.391,25.254,2.847c5.2,2.063,10.013,4.791,14.288,8.424c0.276,0.234,0.537,0.49,0.804,0.735
	c0.69,0.619,0.877-0.316,1.329-0.434c0.002-0.001,0.003-0.002,0.004-0.003c3.056-2.848,6.476-5.197,10.085-7.269
	c5.405-3.095,11.03-5.657,17.185-6.898c7.834-1.574,15.538-1.209,22.768,2.323C170.203,85.611,175.539,92.704,176.426,102.466z
	 M98.04,117.46c-0.832-4.152-2.33-8.032-5.051-11.353c-3.948-4.819-9.737-6.024-15.264-3.158c-3.232,1.677-5.577,4.273-7.203,7.461
	c-3.625,7.109-3.862,14.524-1.493,22.034c1.55,4.916,4.192,9.206,8.038,12.699c0.149,0.024,0.297,0.048,0.445,0.072
	c0.272,0.081,0.539,0.179,0.816,0.24c3.318,0.754,6.678,1.252,10.055,1.645h0.001c0,0-0.001,0-0.001,0.001
	c0.173,0.02,0.345,0.038,0.518,0.058c3.479-2.342,5.872-5.559,7.413-9.41C98.944,131.169,99.426,124.381,98.04,117.46z
	 M152.999,113.714c-0.889-4.248-2.492-8.188-5.373-11.528c-3.946-4.573-10.438-6.281-16.266-2.042
	c-2.948,2.144-4.977,4.974-6.386,8.288c-0.008,0.018-0.014,0.037-0.021,0.056c0.293-0.634,0.609-1.259,0.946-1.878
	c0.072-0.134,0.17-0.176,0.301-0.19c-0.424,1.108-0.66,2.245-0.418,3.429c0.252,1.222,0.773,2.272,2.063,2.703
	c1.169,0.392,2.118-0.106,2.883-0.897c1.263-1.308,1.767-2.911,1.499-4.722c-0.192-1.299-0.722-2.415-2.053-2.885
	c-1.285-0.453-2.245,0.237-3.133,1.057c-0.205,0.149-0.353,0.345-0.483,0.558l0.009-0.01c-0.163,0.203-0.291,0.424-0.335,0.687
	c0.07-0.571,0.581-1.233,0.792-1.458c1.403-1.949,3.049-3.629,5.238-4.705c3.596-0.277,6.034,1.497,7.763,4.45
	c3.3,5.641,2.516,14.14-1.743,19.101c-1.32,1.538-2.928,2.648-4.964,2.995c-2.602,0.443-4.751-0.497-6.507-2.369
	c-2.096-2.229-3.026-4.979-3.376-7.958c-0.083-0.716-0.112-1.438-0.159-2.157c-0.465,2.642-0.566,5.339-0.374,8.083
	c0.314,4.551,1.313,8.939,3.191,13.094c1.964,4.341,4.94,7.727,9.518,9.471c0.109-0.026,0.217-0.054,0.326-0.082
	c1.405-0.355,2.818-0.686,4.215-1.07c2.246-0.619,4.518-1.152,6.691-2.006c0.158-0.055,0.316-0.11,0.475-0.165
	c1.606-1.993,2.953-4.144,3.921-6.519C154.064,128.119,154.516,120.986,152.999,113.714z M221.102,135.4
	c-0.16,0.21,0.008,0.47-0.114,0.685c-1.267,10.71-8.681,20.944-19.625,23.838c-8.027,2.129-15.683,0.887-22.899-3.176
	c-0.542-0.308-1.05-0.689-1.548-1.066c-0.755-0.565-0.748-0.575-1.315,0.133c-2.345,2.935-4.923,5.646-7.682,8.189
	c-0.169,0.153-0.315,0.317-0.477,0.479h-0.001c-0.001,0.001-0.002,0.001-0.002,0.001c0.094,0.415,0.189,0.83,0.281,1.24
	c0.085,0.133,0.09,0.133,0.002,0.001c5.285,0.26,10.191,1.861,14.875,4.231c5.008,2.533,8.964,6.203,11.9,10.98
	c0.163,0.266,0.292,0.548,0.439,0.825c1.612,2.784,2.686,5.77,3.084,8.957c0.721,5.74-0.359,11.116-3.549,15.995
	c-2.165,3.313-5.078,5.838-8.503,7.79c-0.234,0.135-0.46,0.276-0.688,0.418c-1.054,2.101-2.293,4.108-3.288,6.243
	c-1.732,3.698-3.377,7.429-4.072,11.495c-0.46,2.684-0.538,5.382-0.24,8.086c0.154,1.421,0.148,1.445-1.273,1.401
	c-7.074-0.221-13.453,1.718-19.002,6.191c-1.242,1.002-2.46,2.028-3.591,3.152c-0.256,0.254-0.49,0.507-0.588,0.859
	c-0.742,3.017-2.409,5.521-4.345,7.872c-1.684,2.048-3.641,3.773-5.983,5.041c-3.454,1.871-7.064,2.216-10.794,1.032
	c-6.079-1.931-10.753-5.775-14.493-10.844c-1.767,0.327-3.431,0.99-5.081,1.671c-3.052,1.26-5.892,2.91-8.591,4.804
	c-0.594,0.415-1.104,0.701-1.629-0.049c-0.06-0.093-0.153-0.046-0.207,0.042c2.773,9.052,2.849,18.128,0.134,27.198
	c-1.097,3.658-2.884,6.992-5.315,9.944c-2.898,3.517-6.775,5.243-11.179,5.975c-0.468,0.077-0.97-0.009-1.399,0.259
	c-0.225,0-0.448,0-0.67,0c-0.273,0-0.54,0-0.811,0c-0.403,0-0.809,0-1.215,0c-0.312,0-0.625,0-0.94,0c-0.226,0-0.449,0-0.674,0
	c-0.742-0.32-1.55-0.291-2.324-0.45c-6.381-1.286-11.014-4.951-14.287-10.472c-2.081-3.514-3.272-7.34-4.015-11.33
	c-1.762-9.457-1.01-18.794,1.279-28.064c0.779-3.155,1.782-6.239,3.066-9.23c-2.19,0.121-4.364,0.419-6.537,0.7
	c-0.599,0.08-0.782-0.141-0.927-0.658c-0.93-3.389-1.937-6.754-3.346-9.984c-2.396-5.488-5.422-10.554-9.789-14.736
	c-2.375-2.274-5.014-4.196-7.79-5.938c-0.224-0.141-0.495-0.232-0.602-0.507c0.144-0.406,0.542-0.343,0.839-0.405
	c3.668-0.812,7.358-1.516,10.992-2.494c3.606-0.971,7.159-2.114,10.643-3.464c0.281-2.283,0.682-4.545,1.169-6.788
	c0.04-0.193,0.053-0.396,0.077-0.596c-2.701,0.248-5.331-0.026-7.798-1.225c-2.916-1.415-4.377-4.047-4.153-7.28
	c0.11-1.615,0.37-3.198,0.931-4.729c1.412-3.92,4.062-6.859,7.381-9.264c1.988-1.435,4.114-2.619,6.457-3.379
	c-2.294-1.441-4.599-2.86-6.786-4.462c-4.931-3.608-9.36-7.746-13.197-12.51c-0.336-0.409-0.46-0.398-0.814-0.019
	c-3.632,3.862-7.979,6.654-13.113,7.929c-6.639,1.64-12.589-0.094-17.704-4.529c-5.287-4.582-8.319-10.454-9.452-17.335
	c-0.046-0.288,0.044-0.629-0.234-0.859c0-1.305,0-2.607,0-3.906c0-0.316,0-0.632,0-0.944c0-0.089,0-0.181,0-0.27
	c0.356-0.751,0.326-1.587,0.535-2.374c1.62-6.042,5.388-9.919,11.497-11.437c1.227-0.306,2.486-0.247,3.738-0.207
	c-0.8-4.457-1.032-8.95-0.93-13.468c0.117-5.214,0.68-10.379,1.63-15.502c1.831-9.815,4.966-19.196,9.465-28.117
	c3.773-7.48,8.6-14.223,14.261-20.385c8.418-9.17,18.112-16.717,28.983-22.76c0.12-0.065,0.238-0.124,0.357-0.187
	c-0.84-1.297-1.689-2.586-2.516-3.894c-1.701-2.696-3.221-5.492-4.563-8.386c-0.236-0.517-0.384-1.047-0.364-1.625
	c0.03-1.056,0.853-1.897,1.851-1.615c3.784,1.055,7.054-0.303,10.278-2.006c1.93-1.016,3.766-2.175,5.565-3.404
	c0.179-0.124,0.371-0.356,0.584-0.256c0.281,0.126,0.146,0.447,0.135,0.672c-0.228,4.428,0.433,8.711,2.104,12.828
	c0.318,0.781,0.589,1.596,1.13,2.273c0,0,0,0,0.001,0.001c-0.001-0.001-0.001-0.001-0.001-0.002
	c5.351-1.633,10.813-2.707,16.372-3.314c4.896-0.533,9.79-0.667,14.698-0.228c2.637,0.234,5.252,0.631,7.83,1.233
	c0,0.001-0.001,0.001-0.001,0.002c0.001-0.001,0.001-0.001,0.002-0.002c1.06-1.643,1.83-3.428,2.618-5.202
	c1.186-2.672,2.101-5.419,2.096-8.393c-0.002-0.78-0.02-1.562-0.028-2.342c0.043,0,0.089,0,0.134,0
	c2.829,2.999,6.081,5.346,10.086,6.531c2.209,0.653,4.453,0.641,6.716,0.317c2.055-0.298,3.156,1.043,2.51,3.023
	c-0.739,2.26-2.162,4.112-3.572,5.968c-1.088,1.421-2.219,2.811-3.331,4.218c4.2,1.29,8.285,2.879,12.235,4.809
	c6.566,3.208,12.611,7.203,18.142,11.968c7.903,6.803,14.4,14.742,19.265,23.987c4.299,8.168,7.203,16.819,8.959,25.872
	c1.485,7.658,2.351,15.378,2.258,23.187c-0.024,1.994-0.118,3.992-0.357,5.974c1.229-0.227,2.392-0.718,3.65-0.823
	c5.383-0.46,9.793,1.396,13.18,5.585c2.162,2.678,3.29,5.813,3.757,9.202c0.016,0.12-0.042,0.28,0.143,0.329
	C221.102,131.897,221.102,133.648,221.102,135.4z M137.792,36.377c-3.41-0.869-6.868-1.393-10.381-1.681
	c-1.115-0.09-1.787,0.271-2.534,0.934c-2.066,1.83-4.196,3.571-6.594,4.964c-0.419,0.245-1.006,0.313-1.204,0.875
	c1.729,0.09,3.444,0.222,5.164,0.404c7.716,0.82,15.166,2.701,22.331,5.686c9.335,3.884,17.64,9.304,24.553,16.731
	c5.47,5.884,9.689,12.618,13.065,19.881c5.356,11.519,8.02,23.63,7.675,36.364c-0.012,0.401-0.106,0.817,0.041,1.281
	c1.509-1.437,3.186-2.515,4.896-3.554c0.006-0.264,0.016-0.53,0.017-0.797c0.02-3.36,0.107-6.721-0.231-10.077
	c-0.252-2.471-0.574-4.931-1.04-7.364c-0.946-4.98-2.338-9.837-4.122-14.584c-1.828-4.854-4.031-9.535-6.636-14.019
	c-2.508-4.313-5.356-8.377-8.618-12.157c-2.521-2.927-5.219-5.672-8.204-8.126c-3.698-3.032-7.616-5.746-11.788-8.097
	C148.999,40.122,143.557,37.848,137.792,36.377z M114.644,31.664c0.603,0.844,1.019,1.788,1.238,2.81
	c0.039,0.152,0.091,0.3,0.113,0.453c0.276,1.981,0.21,3.95-0.29,5.895c-0.061,0.241-0.215,0.485,0.187,0.558l0.054,0.003
	l0.052-0.015c0.065-0.189,0.245-0.246,0.39-0.348c0.95-0.667,1.896-1.339,2.842-2.01c1.456-1.039,2.791-2.229,4.08-3.457
	c1.205-1.154,2.542-2.181,3.589-3.501c0.726-0.607,1.337-1.321,1.991-1.994c4.032-4.15,7.842-8.497,11.477-12.996
	c1.548-1.918,3.12-3.82,4.348-5.968c0.369-0.646,0.685-1.309,0.809-2.055c0.091-0.553-0.124-0.776-0.689-0.747
	c-1.342,0.073-2.681,0.054-4.026-0.053c-2.236-0.175-4.366-0.613-6.342-1.755c-2.129-1.231-4.148-2.581-5.756-4.468
	c-0.294-0.344-0.599-0.677-0.998-1.126c0.198,1.108,0.308,2.06,0.273,3.026c-0.03,0.989-0.152,1.965-0.379,2.92
	c-1.188,5.012-3.534,9.52-6.139,13.903c-2.048,3.453-4.328,6.754-6.788,9.929C114.406,31.017,114.365,31.278,114.644,31.664z
	 M96.336,43.098c0.11-0.011,0.223-0.015,0.331-0.036c3.675-0.66,7.366-1.198,11.095-1.458c2.431-0.17,4.867-0.216,7.306-0.241
	c0.192-1.549,0.313-3.108,0.11-4.661c-0.092-0.692-0.046-1.424-0.372-2.082c-0.975-2.849-3.091-4.518-5.883-5.204
	c-3.513-0.868-6.886-0.203-10.053,1.542c-1.756,0.972-2.473,2.569-2.671,4.475C95.708,37.996,95.584,40.557,96.336,43.098z
	 M73.16,25.862c0.089,0.156,0.153,0.33,0.265,0.463c1.269,1.504,2.479,3.058,3.828,4.481c2.154,2.273,4.396,4.456,6.87,6.395
	c3.416,2.677,7.126,4.769,11.279,6.06c0.128-0.016,0.259-0.029,0.387-0.042c-0.046-0.194-0.062-0.396-0.137-0.578
	c-0.621-1.503-0.843-3.076-0.801-4.689c0.024-0.929,0.083-1.858,0.126-2.79c0.058-0.354,0.051-0.729,0.18-1.055
	c0.188-0.468-0.019-0.695-0.357-0.941c-3.677-2.674-6.828-5.863-9.446-9.581C81.905,18.698,79.93,13.31,79.779,7.3
	c-0.04-1.514,0.172-3.012,0.483-4.599c-0.168,0.159-0.266,0.25-0.362,0.342c-2.515,2.39-5.415,4.195-8.565,5.604
	c-2.151,0.963-4.388,1.402-6.74,0.876c-0.392-0.091-0.859-0.275-1.145,0.056c-0.329,0.383,0.024,0.816,0.207,1.177
	c0.819,1.596,1.621,3.202,2.514,4.76C68.24,19.134,70.459,22.667,73.16,25.862z M21.421,125.568c0.665,0.323,1.336,0.633,1.989,0.97
	c1.498,0.772,2.865,1.746,4.202,2.953c-0.041-0.229-0.058-0.334-0.082-0.436c-1.177-5.742-1.656-11.523-1.163-17.382
	c0.517-6.054,1.89-11.89,4.062-17.555c1.792-4.686,4.152-9.082,6.877-13.285c3.314-4.909,7.089-9.423,11.382-13.505
	c10.859-10.297,23.54-17.421,37.813-21.792c2.568-0.787,5.183-1.405,7.796-2.036c-0.663-0.197-1.329-0.375-1.986-0.596
	c-3.54-1.184-6.732-3.026-9.649-5.339c-0.447-0.355-0.822-0.404-1.345-0.218c-5.978,2.107-11.706,4.741-17.194,7.914
	c-4.039,2.338-7.897,4.944-11.559,7.842c-2.02,1.598-3.982,3.266-5.858,5.032c-2.371,2.225-4.679,4.508-6.698,7.065
	c-0.553,0.466-0.943,1.075-1.381,1.635c-3.068,3.954-5.704,8.184-7.905,12.675c-2.15,4.391-3.933,8.932-5.331,13.614
	c-0.866,2.89-1.604,5.811-2.224,8.766c-0.648,3.075-1.15,6.174-1.5,9.303c-0.256,2.285-0.419,4.576-0.505,6.871
	C21.066,120.57,21.224,123.072,21.421,125.568z M34.572,147.943c-0.611-0.916-1.15-1.863-1.578-2.843
	c0.007,0.021,0.01,0.039,0.018,0.061c-6.559-4.492-13.529-5.653-21.003-3.523c-0.01,0.061-0.018,0.121-0.026,0.185
	c0.854-0.119,1.71-0.24,2.568-0.359c1.064-0.089,2.129-0.277,3.188-0.245c1.799,0.05,3.603,0.126,5.378,0.519
	c3.47,0.763,6.656,2.14,9.485,4.312c0.089,0.085,0.178,0.178,0.268,0.267c0.7,0.41,1.291,0.914,1.65,1.668
	C34.539,147.969,34.558,147.959,34.572,147.943z M58.594,200.479c0.216-0.375-0.014-0.414-0.306-0.402
	c-0.588,0.027-1.16-0.083-1.721-0.226c-3.744-0.923-5.965-3.492-7.403-6.9c-0.41-0.967-0.63-1.988-0.922-2.995
	c-0.066,1.158-0.345,2.295-0.287,3.47c0.095,1.965,0.917,3.52,2.509,4.666C52.893,199.833,55.753,200.123,58.594,200.479z
	 M57.744,223.135c0.009,0,0.021,0,0.03,0c0.038,0.258,0.066,0.519,0.117,0.776c0.447,2.266,1.665,4.099,3.318,5.638
	c3.12,2.904,6.724,4.645,11.108,4.341c2.628-0.186,4.689-1.816,5.118-4.099c0.358-1.93-0.17-3.722-1.231-5.301
	c-3.034-4.507-7.272-6.902-12.743-7.03c-0.214,0.037-0.427,0.084-0.642,0.108c-2.452,0.26-5.187,1.858-5.049,5.545
	C57.762,223.121,57.752,223.127,57.744,223.135z M81.241,183.389c0.041,0.279-0.187,0.388-0.347,0.533
	c-2.522,2.26-3.844,5.138-4.304,8.445c-0.178,1.265-0.349,2.529-0.431,3.808c-0.22,1.671-0.07,3.36-0.271,5.043
	c0.727-1.098,1.533-2.108,2.461-3.023c0.932-0.919,1.958-1.715,3.078-2.386c2.376-1.415,4.981-2.133,7.692-2.517
	c1.285-0.184,2.589-0.219,3.878-0.393c1.616-0.221,3.044-0.899,4.423-1.722c0.412-0.246,0.441-0.548,0.349-0.968
	c-0.234-1.071-0.208-2.139,0.195-3.174c0.187-0.034,0.358,0.005,0.524,0.092c0.195,0.195,0.18,0.452,0.182,0.696
	c0.018,2.158,0.963,3.774,2.801,4.896c2.205,1.346,4.601,1.934,7.178,1.932c2.352-0.004,4.412-0.768,6.221-2.193
	c1.423-1.122,2.193-2.59,1.899-4.473c-0.024-0.347-0.166-0.679-0.097-1.03c0.163-0.108,0.347-0.061,0.525-0.066
	c0.619,0.525,0.687,1.285,0.858,2.001c0.053,1.227-0.23,2.365-0.916,3.38c-0.254,0.384-0.245,0.591,0.165,0.855
	c1.025,0.651,2.099,1.212,3.202,1.701c1.53,0.68,3.148,0.762,4.805,0.771c4.597,0.031,8.771,1.391,12.46,4.171
	c1.131,0.854,2.129,1.844,3.02,2.898c-0.305-2.512-0.866-5.023-1.587-7.497c-0.797-2.585-1.897-5.013-3.578-7.151
	c-0.822-1.042-1.732-1.99-2.694-2.895c-0.166-0.157-0.453-0.244-0.372-0.567c-0.134,0.014-0.27,0.014-0.397,0.046
	c-4.928,1.161-9.933,1.799-14.965,2.287c-0.179,0.006-0.362-0.042-0.525,0.066c-1.23,0.081-2.46,0.167-3.689,0.243
	c-2.618,0.155-5.234,0.279-7.859,0.245c-2.179-0.022-4.344-0.211-6.512-0.306c-0.042-0.029-0.083-0.033-0.123-0.011
	c-0.166-0.086-0.339-0.124-0.524-0.091c-0.774-0.094-1.545-0.188-2.315-0.283c-1.604-0.305-3.218-0.556-4.808-0.924
	C87.627,185.088,84.472,184.081,81.241,183.389c-0.184-0.053-0.36-0.106-0.542-0.157C80.88,183.282,81.058,183.336,81.241,183.389z
	 M135.927,232.08c-3.442,3.62-2.44,8.402,2.158,10.309c2.046,0.848,4.18,0.992,6.334,0.653c3.255-0.513,6.092-1.834,8.13-4.518
	c2.526-3.33,1.598-7.309-2.121-9.216c-1.567-0.804-3.244-1.137-5.128-1.099c-0.615-0.027-1.352,0.03-2.082,0.159
	C140.408,228.862,137.918,229.987,135.927,232.08z M146.431,187.574c-2.713,0.768-5.442,1.407-8.471,1.136
	c1.239,1.721,1.94,3.504,2.585,5.306C142.895,192.222,144.942,190.153,146.431,187.574z M158.022,180.185
	c3.46-2.347,6.252-5.323,7.798-9.29c0.674-1.723,1.048-3.524,1.075-5.385c0.003-0.199,0.003-0.401,0.055-0.6
	c-1.676,1.381-3.338,2.784-5.032,4.139c-5.701,4.546-11.909,8.298-18.362,11.657c-3.212,1.674-6.679,2.686-10.166,3.622
	c-0.126,0.036-0.255,0.07-0.381,0.104c0.126-0.033,0.254-0.067,0.379-0.103c0.887,0.316,1.574,0.947,2.26,1.548
	c0.61,0.529,1.187,1.101,1.697,1.727c0.225,0.274,0.471,0.342,0.817,0.335c2.25-0.05,4.407-0.578,6.518-1.273
	C149.412,185.1,153.894,182.984,158.022,180.185z M133.536,199.075c-1.58-0.778-3.272-1.199-4.979-1.571
	c-1.571-0.341-3.176-0.188-4.754-0.357c-2.859-0.308-5.215-1.658-7.275-3.603c-0.13-0.117-0.209-0.488-0.502-0.186
	c-1.075,1.107-2.46,1.731-3.799,2.425c-0.078,0.263-0.331,0.354-0.52,0.501c-7.824,6.025-16.464,10.619-25.48,14.564
	c-5.001,2.192-10.112,4.106-15.247,5.956c0.951,0.641,2.044,1.005,3.073,1.48c1.934,0.894,3.848,1.818,5.85,2.544
	c0.286-0.067,0.564-0.143,0.849-0.202c10.179-2.203,20.074-5.33,29.727-9.234C118.597,208.102,126.333,204.085,133.536,199.075z
	 M118.14,230.847c-0.872-1.123-1.997-1.921-3.209-2.622c-0.254-0.097-0.516-0.121-0.785-0.118
	c-3.868,0.043-7.727-0.235-11.579-0.567c-0.465-0.041-0.923-0.181-1.381,0.007c-1.484,0.562-2.841,1.323-3.998,2.423
	c-2.747,2.618-2.804,6.246-0.134,8.933c0.769,0.771,1.642,1.395,2.609,1.882c3.319,1.674,6.837,2.057,10.468,1.51
	c2.574-0.387,4.953-1.258,6.938-3.001C119.806,236.894,120.221,233.517,118.14,230.847z M80.313,183.115L80.313,183.115
	c-4.151-1.279-8.223-2.762-12.164-4.602c-2.089-0.978-4.112-2.069-6.156-3.125c0.273,0.511,0.198,1.087,0.285,1.634
	c0.42,2.663,1.434,5.049,3.288,7.024c1.189,1.27,2.673,2.17,4.19,3.009c1.661,0.912,3.463,1.474,5.251,2.065
	c0.451,0.151,0.589-0.072,0.728-0.436c0.588-1.541,1.362-2.969,2.548-4.152C78.879,183.936,79.612,183.557,80.313,183.115z
	 M95.279,268.082c-4.241-2.524-8.806-3.787-13.767-3.542c-2.718,0.138-5.37,0.599-7.96,1.431
	c-5.542,1.782-10.039,4.978-13.359,9.787c-0.266,0.387-0.433,0.766-0.36,1.248c0.235,1.544,0.369,3.103,0.656,4.644
	c0.657,3.485,1.524,6.904,3.124,10.1c1.554,3.103,3.55,5.862,6.307,8.012c3.646,2.84,7.839,4.03,12.4,4.066
	c1.237,0.047,2.461-0.081,3.676-0.289c3.486-0.605,6.659-1.919,9.113-4.526c3.71-3.935,5.787-8.734,7.008-13.942
	c0.562-2.399,0.854-4.84,1.057-7.291c0.093-1.143,0.117-2.232-0.728-3.279C100.397,271.961,98.089,269.751,95.279,268.082z
	 M101.601,261.155c0.008,0.001,0.02,0.002,0.031,0.002c-0.016-0.007-0.021-0.018-0.037-0.025
	C101.597,261.142,101.599,261.148,101.601,261.155z M152.245,253.108c-0.987,0.982-1.868,2.055-2.713,3.158
	c-0.869,1.137-1.705,2.302-2.547,3.464c-0.724,0.992-0.717,0.997-1.744,0.4c-0.427-0.247-0.849-0.499-1.275-0.745
	c-6.419-3.698-13.249-5.72-20.734-5.017c-1.757,0.165-3.504,0.426-5.201,0.946c0.167,0.151,0.34,0.292,0.494,0.452
	c2.835,2.902,5.975,5.414,9.544,7.365c2.43,1.328,5.01,2.21,7.775,2.389c3.034,0.198,5.703-0.919,8.172-2.594
	c2.424-1.645,4.371-3.77,6.082-6.116C150.938,255.66,151.796,254.497,152.245,253.108z M183.922,215.564
	c-2.798,1.208-5.695,2.037-8.742,2.311c-0.593,0.261-0.872,0.828-1.238,1.3c-2.122,2.723-3.834,5.671-4.773,9.021
	c-0.548,1.957-0.72,3.959-0.716,5.98c0,0.307-0.003,0.583-0.333,0.724c-0.843,0.137-1.675,0.325-2.504,0.535
	c-5.565,1.416-10.597,3.932-15.113,7.454c-2.841,2.212-5.396,4.699-6.435,8.329c-0.045,0.157-0.078,0.381-0.346,0.277
	c-1.368-1.147-2.913-2.012-4.561-2.686c-3.89-1.599-7.995-2.204-12.15-2.412c-2.861-0.145-5.739-0.08-8.59,0.377
	c-4.996,0.804-9.494,2.65-13.179,6.205c-0.39,0.374-0.623,0.363-0.979-0.015c-1.4-1.487-2.893-2.874-4.445-4.206
	c-4.252-3.652-9-6.455-14.29-8.307c-4.824-1.686-9.794-2.526-14.924-2.453c-2.809,0.038-5.601,0.13-8.366,0.662
	c-0.371,0.071-0.716,0.045-0.938-0.326c-0.381-1.515-0.621-3.063-1.066-4.567c-0.97-3.281-2.287-6.397-4.285-9.197
	c-0.065-0.115-0.125-0.237-0.199-0.345c-2.692-3.969-6.01-7.352-9.737-10.348c-0.525-0.421-0.977-0.525-1.634-0.394
	c-2.946,0.599-5.918,1.038-8.923,1.158c4.046,1.679,7.501,4.21,10.525,7.353c1.788,1.859,3.296,3.933,4.665,6.112
	c0.936,1.661,1.869,3.32,2.633,5.07c1.765,4.052,3.085,8.218,3.42,12.65c0.037,0.49,0.25,0.352,0.506,0.267
	c3.611-1.205,7.351-1.61,11.119-1.642c3.755-0.033,7.463,0.438,11.103,1.426c7.206,1.949,13.485,5.545,18.886,10.679
	c1.771,1.682,3.396,3.497,4.709,5.6c2.824-2.876,6.134-4.947,9.773-6.514c5.492-2.368,11.213-3.437,17.188-2.597
	c5.947,0.84,11.307,3.068,15.886,7.019c0.357,0.305,0.408,0.129,0.521-0.178c0.302-0.824,0.711-1.599,1.15-2.354
	c2.997-5.135,7.012-9.307,12.014-12.492c3.641-2.321,7.651-3.582,11.985-3.746c1.926-0.07,3.842-0.007,5.688,0.51
	c0.108-0.173,0.037-0.27,0.006-0.372c-1.06-3.28-1.112-6.622-0.502-9.97c0.835-4.559,2.765-8.697,5.11-12.654
	C182.498,217.705,183.229,216.646,183.922,215.564z M163.379,180.633c-3.193,2.716-5.722,5.958-7.762,9.607
	c-1.237,2.108-2.196,4.347-3.091,6.615c0.121,0.094,0.107,0.233,0.12,0.367c0.179,1.906,0.429,3.804,0.812,5.68
	c0.617,3.032,1.936,5.709,4.178,7.862c1.838,1.765,3.946,3.135,6.305,4.127c3.602,1.521,7.342,2.05,11.207,1.604
	c2.425-0.281,4.796-0.832,7.05-1.786c0.96-0.403,1.982-0.709,2.784-1.427c0.29-0.17,0.617-0.243,0.91-0.422
	c1.941-1.187,3.652-2.634,5.227-4.273c1.78-1.863,3.105-4.009,4.064-6.361c1.514-3.716,1.986-7.577,1.409-11.569
	c-0.433-2.962-1.417-5.713-2.815-8.344c-0.337-0.632-0.852-1.18-0.99-1.913c-0.561-0.321-1.018-0.779-1.535-1.162
	c-3.324-2.449-7.06-3.869-11.161-4.195c-2.933-0.233-5.853,0.025-8.681,0.962C168.417,176.996,165.779,178.594,163.379,180.633z
	 M184.296,94.933c-0.067-1.162-0.063-2.36-0.472-3.459c-3.659-9.856-8.836-18.802-15.993-26.549
	c-1.091-1.183-2.146-2.468-3.505-3.327c-3.796-2.396-7.777-4.438-12.089-5.771c-5.296-1.641-10.703-2.328-16.208-1.594
	c-7.368,0.978-14.071,3.75-20.256,7.83c-3.004,1.985-5.769,4.273-8.384,6.737c-0.451,0.422-0.734,0.458-1.196-0.019
	c-0.813-0.833-1.672-1.64-2.593-2.343c-9.717-7.419-20.566-10.491-32.716-8.327c-4.533,0.805-8.794,2.42-12.811,4.671
	c-0.323,0.154-0.656,0.287-0.962,0.464c-8.765,5.022-14.375,12.497-16.933,22.201c-1.527,5.793-2.413,11.719-2.828,17.705
	c-0.275,4.012-0.239,8.028,0.424,12.004c1.022,6.142,2.99,11.982,5.936,17.479c1.387,2.589,2.921,5.088,4.782,7.369
	c0.143,0.201,0.268,0.415,0.419,0.604c5.135,6.437,11.42,11.47,18.638,15.374c1.358,0.734,2.771,1.36,4.146,2.058
	c0.129,0.067,0.625,0.044,0.259,0.444c-0.14-0.006-0.216,0.082-0.275,0.197c-0.716,0.524-1.331,1.151-1.724,1.945
	c-1.497,3.048-1.547,6.199-0.578,9.404c0.576,2.314,1.75,4.287,3.415,5.981c2.906,2.96,6.401,5.003,10.211,6.545
	c2.657,1.075,5.375,1.951,8.204,2.454c0.08,0.033,0.16,0.076,0.248,0.095c5.482,1.189,11.045,1.625,16.64,1.45
	c5.625-0.177,11.24-0.623,16.81-1.458c5.077-0.762,10.092-1.816,14.915-3.628c4.21-1.583,8.146-3.631,11.313-6.914
	c2.809-2.913,3.961-6.335,3.004-10.348c-0.509-2.11-1.905-3.612-3.499-4.968c-0.34-0.209-0.674-0.423-1.014-0.622
	c-0.355-0.215-0.152-0.325,0.069-0.441c0.197-0.148,0.387-0.302,0.59-0.438c6.338-4.281,12.378-8.919,17.662-14.479
	c4-4.211,7.35-8.865,9.787-14.157C182.729,118.25,184.979,106.873,184.296,94.933z M208.043,132.395
	c-1.134-0.53-2.192-0.807-3.284-0.888c-3.026-0.225-5.914,0.408-8.737,1.464c-3.549,1.328-6.805,3.195-9.925,5.317
	c-0.083,0.058-0.156,0.142-0.311,0.147c-0.07,0.037-0.133,0.078-0.203,0.11c-0.178,0.564-0.373,1.122-0.607,1.688
	c0.426-0.489,1.048-0.776,1.566-1.141c2.176-1.54,4.439-2.944,6.842-4.111c2.824-1.374,5.733-2.543,8.874-2.902
	c1.364-0.156,2.775-0.178,4.153,0.096C206.921,132.118,207.377,132.454,208.043,132.395z"/>
</svg>
