<?xml version="1.0" encoding="utf-8"?>
<!-- Generator: Adobe Illustrator 17.0.0, SVG Export Plug-In . SVG Version: 6.00 Build 0)  -->
<!DOCTYPE svg PUBLIC "-//W3C//DTD SVG 1.1//EN" "http://www.w3.org/Graphics/SVG/1.1/DTD/svg11.dtd">
<svg version="1.1" id="图层_1" xmlns="http://www.w3.org/2000/svg" xmlns:xlink="http://www.w3.org/1999/xlink" x="0px" y="0px"
	 width="35.969px" height="24.313px" viewBox="0 0 35.969 24.313" enable-background="new 0 0 35.969 24.313" xml:space="preserve">
<path fill="#E53C3C" d="M15.58,10.825c-1.004-1.954-2.049-3.721-2.831-5.594c-0.667-1.598-1.64-2.268-3.41-2.069
	C8.084,3.303,6.8,3.183,5.53,3.193C4.571,3.2,4.387,3.464,4.808,4.281c2.345,4.554,4.7,9.103,7.059,13.651
	c0.134,0.26,0.323,0.492,0.58,0.877c0.273-0.398,0.498-0.664,0.654-0.964c2.804-5.41,5.623-10.813,8.377-16.248
	c0.554-1.127,1.078-1.538,2.507-1.559c3.275-0.047,6.674-0.033,9.95-0.027c1.801,0.003,2.515,1.113,1.711,2.689
	c-3.503,6.852-7.019,13.698-10.524,20.55c-0.331,0.645-0.794,1.043-1.576,1.044c-0.77,0.001-1.257-0.352-1.591-1.013
	c-1.023-2.026-2.077-4.037-3.095-6.065c-0.123-0.246-0.216-0.617-0.115-0.84c0.491-1.075,1.385-2.11,2.286-3.376
	c0.689,1.689,1.174,3.445,2,5c0.146,0.275,0.276,0.37,0.482,0.615c0.206-0.239,0.469-0.45,0.61-0.722
	c2.315-4.446,4.615-8.899,6.916-13.353c0.605-1.172,0.49-1.346-0.881-1.349c-1.468-0.003-2.939,0.051-4.404-0.018
	c-1.062-0.051-1.648,0.382-2.104,1.286c-2.571,5.09-5.184,10.161-7.784,15.238c-0.605,1.183-1.224,2.359-1.819,3.546
	c-0.326,0.65-0.794,1.042-1.571,1.056c-0.821,0.016-1.287-0.406-1.632-1.083C8.243,18.11,5.632,13.008,3.02,7.907
	C2.137,6.182,1.237,4.465,0.355,2.74C-0.471,1.124,0.178,0.002,2.031,0c3.389-0.004,6.611,0.022,10,0
	c0.96-0.006,1.829,0.367,2.251,1.201c0.939,1.854,1.909,3.693,2.844,5.549c0.113,0.224,0.204,0.564,0.111,0.766
	C16.742,8.587,16.186,9.631,15.58,10.825z"/>
</svg>
