<?xml version="1.0" encoding="iso-8859-1"?>
<!-- Generator: Adobe Illustrator 17.0.0, SVG Export Plug-In . SVG Version: 6.00 Build 0)  -->
<!DOCTYPE svg PUBLIC "-//W3C//DTD SVG 1.1//EN" "http://www.w3.org/Graphics/SVG/1.1/DTD/svg11.dtd">
<svg version="1.1" id="Obejcts" xmlns="http://www.w3.org/2000/svg" xmlns:xlink="http://www.w3.org/1999/xlink" x="0px" y="0px"
	 width="80.122px" height="146.591px" viewBox="0 0 80.122 146.591" style="enable-background:new 0 0 80.122 146.591;"
	 xml:space="preserve">
<g>
	<g>
		<g>
			<g>
				<rect x="0" y="0" style="fill:#C4C4C3;" width="40.061" height="146.591"/>
				<rect x="40.061" y="0" style="fill:#939393;" width="40.061" height="146.591"/>
				<rect x="0" y="88.29" style="fill:#454545;" width="80.562" height="0.568"/>
				<rect x="52.782" y="60.763" style="fill:#C4C4C3;" width="15.519" height="18.488"/>
				<rect x="52.782" y="77.362" style="fill:#454545;" width="15.519" height="1.889"/>
				<rect x="70.46" y="65.621" style="fill:#454545;" width="5.263" height="13.63"/>
				<rect x="31.325" y="15.15" style="fill:#454545;" width="17.408" height="1.215"/>
				<polygon style="fill:#939393;" points="60.091,68.185 56.021,68.185 58.18,77.362 60.091,77.362 62.003,77.362 64.162,68.185 
									"/>
				<g>
					<path style="fill:#939393;" d="M3.593,83.074L3.593,83.074c-0.408,0-0.742-0.334-0.742-0.742V67.758
						c0-0.408,0.334-0.742,0.742-0.742l0,0c0.408,0,0.742,0.334,0.742,0.742v14.575C4.335,82.74,4.001,83.074,3.593,83.074z"/>
					<path style="fill:#939393;" d="M3.593,110.132L3.593,110.132c-0.408,0-0.742-0.334-0.742-0.742V94.815
						c0-0.408,0.334-0.742,0.742-0.742l0,0c0.408,0,0.742,0.334,0.742,0.742v14.575C4.335,109.798,4.001,110.132,3.593,110.132z"/>
				</g>
			</g>
		</g>
	</g>
</g>
</svg>
