<?xml version="1.0" encoding="utf-8"?>
<!-- Generator: Adobe Illustrator 17.0.0, SVG Export Plug-In . SVG Version: 6.00 Build 0)  -->
<!DOCTYPE svg PUBLIC "-//W3C//DTD SVG 1.1//EN" "http://www.w3.org/Graphics/SVG/1.1/DTD/svg11.dtd">
<svg version="1.1" id="图层_1" xmlns="http://www.w3.org/2000/svg" xmlns:xlink="http://www.w3.org/1999/xlink" x="0px" y="0px"
	 width="176.152px" height="176.011px" viewBox="0 0 176.152 176.011" enable-background="new 0 0 176.152 176.011"
	 xml:space="preserve">
<path fill="#E71F19" d="M173.594,131.95c-3.596-3.948-12.952-2.932-20.464-2.878c-0.653-1.153-0.368-3.126-0.32-4.583
	c0.107-0.071,0.213-0.142,0.32-0.213c7.673-0.035,15.349-0.071,23.022-0.107c0-6.465,0-12.933,0-19.398
	c-7.744-0.035-15.491-0.071-23.235-0.107c-0.206-1.504-0.183-3.252,0-4.583c6.754-1.181,15.44,1.426,19.611-2.132
	c1.653-1.409,2.962-3.607,3.624-5.969c0-7.602,0-15.207,0-22.809c0-5.891,0.065-10.306-2.771-13.216
	c-3.117-3.199-9.181-2.771-15.561-2.771c-1.634-0.035-3.269-0.071-4.903-0.107c0-1.528,0-3.056,0-4.583
	c7.744-0.035,15.491-0.071,23.235-0.107c0-6.43,0-12.862,0-19.292c-4.973,0-9.948,0-14.922,0c-2.721,0-5.939,0.184-8.313-0.213
	c-0.035-1.456-0.071-2.913-0.107-4.37c0.107-0.071,0.213-0.142,0.32-0.213c7.673-0.035,15.349-0.071,23.022-0.107
	c0-6.465,0-12.933,0-19.398c-7.638-0.035-15.278-0.071-22.915-0.107c-0.107-0.035-0.213-0.071-0.32-0.107
	c-0.261-1.365-0.122-2.886-0.107-4.583c-12.966,0-25.937,0-38.903,0c-0.035,1.528-0.071,3.056-0.107,4.583c-0.071,0-0.142,0-0.213,0
	c-1.129,0.676-11.078,0.213-13.323,0.213C87.796,4.761,75.323,4.725,62.854,4.69C62.316,3.601,62.608,1.619,62.641,0
	C49.639,0,36.633,0,23.632,0c0.01,1.694,0.151,3.229-0.107,4.583c-1.567,0.704-4.927,0.213-6.928,0.213c-5.435,0-10.872,0-16.307,0
	c0,6.465,0,12.933,0,19.398c7.673,0.036,15.349,0.071,23.022,0.107c0.202,0.149,0.065,0.008,0.213,0.213c0,1.456,0,2.913,0,4.37
	c-2.406,0.406-5.666,0.213-8.42,0.213c-4.938,0-9.877,0-14.815,0c0,6.43,0,12.862,0,19.292c7.744,0.035,15.491,0.071,23.235,0.107
	c0,1.528,0,3.056,0,4.583c-1.705,0.035-3.411,0.071-5.116,0.107c-6.503,0-12.036-0.286-15.348,2.771
	c-3.066,2.83-2.771,8.088-2.771,14.069c0,7.318,0,14.638,0,21.956c0.824,2.954,2.561,5.484,4.903,6.928
	c4.141,2.553,12.672,0.197,18.332,1.172c0,1.528,0,3.056,0,4.583c-7.744,0.035-15.491,0.071-23.235,0.107c0,6.465,0,12.933,0,19.398
	c7.744,0.035,15.491,0.071,23.235,0.107c0.269,1.39,0.276,3.16,0,4.583c-0.898,0.399-2.693,0.213-3.944,0.213
	c-4.178,0-10.947-0.913-13.856,0.746c-7.62,4.346-5.436,15.707-5.436,27.179c0,5.325-0.284,10.824,1.492,14.176
	c0.533,0.107,1.066,0.213,1.599,0.32c0.035,1.847,1.715,2.544,2.558,3.73c5.744,1.084,13.713,0.64,20.464,0.639
	c11.865,0,23.734,0,35.599,0c7.85,0,16.995,0.983,21.103-2.771c5.003-4.571,1.335-16.579,2.771-24.834
	c1.463-1.357,3.605-0.832,4.157-3.197c0.142-0.071,0.284-0.142,0.426-0.213c0.614,1.447,0.213,4.879,0.213,7.034
	c-0.001,7.425-1.253,17.572,2.665,21.21c3.883,3.606,10.837,2.772,18.226,2.771c14.139,0,28.281,0,42.42,0
	c6.571,0,15.325,1.012,18.759-2.238c1.515-1.434,2.792-3.572,3.411-5.862c0-7.602,0-15.207,0-22.809
	C176.152,139.251,176.243,134.859,173.594,131.95z M160.91,76.1c-0.465,4.187-2.903,2.991-6.821,3.624
	c-8.455,0.035-16.912,0.071-25.367,0.107c-3.197-0.071-6.395-0.142-9.592-0.213c-0.071,0-0.142,0-0.213,0
	c1.085-2.465,3.517-3.939,3.837-7.354c0.344-0.079,0.547-0.106,0.746-0.32c9.485,0,18.973,0,28.458,0
	C156.152,71.943,161.407,71.629,160.91,76.1z M113.801,104.451c-0.178,0.107-0.355,0.213-0.533,0.32c-0.369,0.258-6.338,0-7.781,0
	c-7.496-0.035-14.993-0.071-22.489-0.107c0.755-1.079,1.982-2.094,2.451-3.411c0.178-1.35,0.355-2.7,0.533-4.05
	c1.575-2.066,3.947-2.447,4.476-5.755c0.426,1.243,0.853,2.487,1.279,3.73c1.562,2.648,4.005,3.764,7.248,4.796
	c4.831,0.035,9.664,0.071,14.495,0.107C114.323,100.667,113.849,103.168,113.801,104.451z M113.801,128.752
	c-1.272,0.749-4.932,0.393-6.608,0.213c-0.128-2.471-1.052-2.947-2.025-4.583c1.286-0.634,3.798,0.217,5.223-0.32
	c1.03,0.071,2.061,0.142,3.091,0.213C114.193,124.792,113.911,127.676,113.801,128.752z M67.117,148.47
	c-2.994,2.026-10.461,0.446-11.191-2.771c0.843,0.07,2.199,0.337,3.091,0.64c1.883,0,3.766,0,5.649,0
	C65.483,147.049,66.3,147.76,67.117,148.47z M65.945,139.411c0.996,0.227,1.449,0.62,2.345,0.853c0.65,2.512,0.442,4.104,0,6.821
	c-0.035,0-0.071,0-0.107,0C65.732,146.022,65.131,142.483,65.945,139.411z M96.641,91.981c1.31-1.405,2.697-1.401,4.69-2.238
	c0.924,0.213,1.848,0.426,2.771,0.639c-0.135,3.78-4.781,3.262-7.567,2.132C96.57,92.336,96.605,92.159,96.641,91.981z
	 M95.468,91.235c-1.032-0.109-1.571-2.583-1.279-4.263c0.569-3.274,1.962-4.927,3.837-6.821c0.224,0.235,0.101-0.013,0.107,0.426
	c-0.284,1.634-0.569,3.269-0.853,4.903c0,1.137,0,2.274,0,3.411C96.676,89.672,96.072,90.454,95.468,91.235z M101.224,85.053
	c-0.358,0.643-1.54,1.909-2.238,2.238c-0.035,0.071-0.071,0.142-0.107,0.213c-1.088-4.295,0.458-7.981,3.091-9.592
	c0.097,0.131,0.257-0.085,0.213,0.213c-0.284,1.279-0.569,2.558-0.853,3.837C101.148,83.128,101.684,84.227,101.224,85.053z
	 M100.798,88.357c0.313-1.146,1.379-1.435,2.132-2.132c1.492,0.107,2.985,0.213,4.476,0.32c0.223,0.28-0.556,0.948-0.639,1.066
	C105.601,89.261,102.734,89.171,100.798,88.357z M102.929,83.135c-0.035,0-0.071,0-0.107,0c-0.977-4.453,1.735-7.512,4.263-9.273
	c0.178,0,0.355,0,0.533,0c0,0.035,0,0.071,0,0.107C106.216,77.191,106.218,81.722,102.929,83.135z M112.309,71.198
	c0.107,0,0.213,0,0.32,0c-0.768,3.476-2.09,6.669-5.116,8.207C107.062,74.794,109.614,73.024,112.309,71.198z M109.644,67.893
	c-0.035,0.107-0.071,0.213-0.107,0.32c-1.667,0.265-3.601-0.498-4.903-0.959c-6.317-2.24-9.511-5.407-12.15-11.298
	c-0.852-1.902-2.489-6.193-1.599-8.527c6.754-0.108,10.147,3.671,11.085,9.273C105.088,57.187,110.952,63.884,109.644,67.893z
	 M92.058,73.223c0.142,0,0.284,0,0.426,0c-0.011,3.646-2.373,7.678-5.755,7.781C87.854,77.087,89.351,75.429,92.058,73.223z
	 M88.434,74.288c0.246-2.811,0.429-6.446,0.959-9.273c2.988,1.778,1.745,8.007-0.853,9.273
	C88.505,74.288,88.469,74.288,88.434,74.288z M83.425,92.194c-0.249,0-0.497,0-0.746,0c0.871-3.866,4.65-4.735,7.354-6.715
	C92.13,87.856,84.832,91.586,83.425,92.194z M84.917,98.803c-0.914,0.911-4.759,1.785-6.182,1.599
	c0.455-1.793,1.759-1.94,3.304-2.665C83.411,97.821,84.017,98.36,84.917,98.803z M85.13,86.759c0.187-3.867,1.924-3.619,4.05-5.329
	c0.969-0.78,1.651-1.895,2.665-2.665C93.336,81.821,87.747,86.705,85.13,86.759z M87.048,72.69c-0.071,0.107-0.142,0.213-0.213,0.32
	c-2.633-2.032-1.037-4.356,0.107-6.288c0.142,0,0.284,0,0.426,0C87.561,68.187,87.616,71.291,87.048,72.69z M85.556,80.257
	c-0.071,0.035-0.142,0.071-0.213,0.107c-1.711-1.801-2.503-5.403-1.386-8.207c0.213,0.035,0.426,0.071,0.64,0.107
	C85.851,75.29,86.496,76.372,85.556,80.257z M84.277,82.495c0.228,1.232-0.498,2.481-0.746,3.411
	c-2.183-1.318-3.809-6.544-2.238-9.592C81.988,76.71,84.086,81.463,84.277,82.495z M82.039,89.21
	c0.438,0.949-0.16,2.377-0.426,3.304c-1.463-0.513-4.6-5.076-5.009-6.715c-0.35-1.4,0.236-3.041,0.533-3.944
	c1.39,1.317,1.464,3.925,2.771,5.329C80.576,87.904,81.539,88.309,82.039,89.21z M77.349,96.991c0.227,0.139,0.15,0.136,0.533,0.213
	c-0.303,3.057-3.697,5.668-6.395,6.502c-0.035-0.035-0.071-0.071-0.107-0.107c0.256-2.375,1.997-4.693,3.73-5.649
	C75.792,97.574,76.861,97.555,77.349,96.991z M72.979,98.376c-0.592,1.239-1.606,2.204-2.345,3.304
	c-0.588,0.875-0.464,2.056-1.172,2.771c0,0.071,0,0.142,0,0.213c-0.959,0.426-1.919,0.853-2.878,1.279c-0.035,0-0.071,0-0.107,0
	c-0.339-3.51,2.919-6.258,5.223-7.674c0.426,0,0.853,0,1.279,0C72.979,98.305,72.979,98.341,72.979,98.376z M63.067,101.68
	c0.521,0.428-0.829,2.135-1.066,2.665c-0.276,0.618-1.57,5.399-1.705,5.542c-0.817,0.568-1.634,1.137-2.451,1.705
	c-0.035,0-0.071,0-0.107,0C56.154,107.227,60.556,102.933,63.067,101.68z M62.641,100.188c0.25-0.119,0.762-0.232,0.959-0.426
	c0.32,0.107,0.639,0.213,0.959,0.32c-0.429,0.499-0.992,0.735-1.705,0.959C62.662,100.801,62.647,100.672,62.641,100.188z
	 M64.666,101.787c0.462-0.465,1.214-0.509,1.599-1.066c0.32,0,0.64,0,0.959,0c0,0.035,0,0.071,0,0.107
	c-1.213,2.865-2.237,6.914-5.223,8.1c-0.035,0-0.071,0-0.107,0C62.267,106.293,63.006,103.456,64.666,101.787z M69.569,94.752
	c-2.354,1.593-4.487,1-7.887,1.599c-0.746,0.035-1.492,0.071-2.238,0.107c-1.624,0.726-3.913,2.694-4.903,4.157
	c-1.012,0.066-5.032-0.195-5.649,0c-0.475,0.15-1.669,0.6-2.558,0.32c-1.137-0.675-2.274-1.35-3.411-2.025
	c-0.758-1.658,1.004-3.25,2.132-3.73c2.243-0.956,5.248,0.342,7.887-0.32c0.756-0.19,5.151-1.325,5.755-1.705
	c2.229-1.401,3.1-2.655,5.969-3.837c3.433-0.033,5.371,1.469,6.928,3.304C71.32,93.912,70.498,94.124,69.569,94.752z
	 M53.048,115.962c-0.035,0-0.071,0-0.107,0c-0.6-4.321,1.219-6.682,3.091-9.06c0.178,0,0.355,0,0.533,0c0,0.071,0,0.142,0,0.213
	c0.252,0.408-0.09,1.357-0.213,2.025C55.688,112.731,55.704,114.349,53.048,115.962z M55.82,135.041c0,0.071,0,0.142,0,0.213
	c-0.142,0-0.284,0-0.426,0c-1.221-2.171-3.538-4.752-1.918-7.994C55.138,128.037,57.185,132.503,55.82,135.041z M51.45,129.179
	c-0.071,0.035-0.142,0.071-0.213,0.107c-0.846-1.087-3.148-4.169-2.878-5.649C51.082,124.034,51.919,126.095,51.45,129.179z
	 M45.588,123.103c1.257,0.759,4.165,6.279,4.796,7.887c-0.178,0.071-0.355,0.142-0.533,0.213c-0.51-0.712-1.761-0.944-2.451-1.492
	C45.902,128.523,44.469,125.564,45.588,123.103z M54.754,136.426c0,0.035,0,0.071,0,0.107c-3.469,0.491-8.027-1.644-8.313-4.903
	C50.084,131.819,53.362,133.901,54.754,136.426z M56.139,138.132c0.853,0.924,1.705,1.848,2.558,2.771c0,0.035,0,0.071,0,0.107
	c-3.461,1.318-9.3-1.359-9.486-4.476C51.119,137.144,53.547,138.129,56.139,138.132z M57.525,129.925
	c2.809,0.806,3.338,6.428,2.345,9.486c-0.035,0-0.071,0-0.107,0C57.162,137.779,57.435,134.142,57.525,129.925z M60.616,142.608
	c0.853,0.71,1.705,1.421,2.558,2.132c-2.697,2.393-9.067-0.932-9.699-2.878C54.068,141.912,60.436,142.512,60.616,142.608z
	 M64.133,142.821c-2.576,0.226-2.555-3.788-2.238-6.395C64.831,136.881,64.415,140.183,64.133,142.821z M54.647,116.389
	c-0.035-0.071-0.071-0.142-0.107-0.213c0.533-0.568,1.066-1.137,1.599-1.705c0.284-0.035,0.568-0.071,0.853-0.107
	c2.062,0.048,5.019,1.518,5.862,2.878C61.065,119.174,56.13,117.225,54.647,116.389z M58.91,113.298
	c-0.107-0.107-0.213-0.213-0.32-0.32c0.697-0.54,1.522-0.771,2.345-1.279c2.205-0.017,3.579,0.546,4.69,1.599
	c-0.199,1.034-0.891,1.514-1.599,2.025C62.347,115.654,59.575,114.382,58.91,113.298z M63.6,110.527
	c-0.071-0.107-0.142-0.213-0.213-0.32c0.426-0.32,0.853-0.639,1.279-0.959c2.338-0.009,3.196,0.57,4.69,1.172
	c0.035,0.071,0.071,0.142,0.107,0.213C68.153,111.938,64.752,112.619,63.6,110.527z M67.437,107.542c0-0.035,0-0.071,0-0.107
	c0.853-0.391,1.705-0.782,2.558-1.172c1.989,0.675,3.979,1.35,5.969,2.025c0.071,0.107,0.142,0.213,0.213,0.32
	C73.541,110.429,69.46,109.473,67.437,107.542z M72.233,104.984c0.538-0.722,1.585-0.777,2.451-1.172
	c2.48-0.032,3.599,0.455,4.903,1.492c0,0.107,0,0.213,0,0.32C77.592,106.784,73.618,106.822,72.233,104.984z M78.522,102.64
	c1.67-0.391,3.34-0.782,5.009-1.172c0.213,0.035,0.426,0.071,0.64,0.107C83.368,103.822,80.073,105.065,78.522,102.64z
	 M104.315,84.414c0.786-1.096,1.962-1.385,2.984-2.238c1.961,0.405,4.509-0.014,6.715,0.32
	C112.256,85.052,107.828,85.422,104.315,84.414z M108.685,80.47c0.785-1.94,3.239-1.972,5.223-2.771
	c1.236,0.042,1.969,0.394,2.878,0.64c0,0.035,0,0.071,0,0.107C115.741,80.601,111.423,81.329,108.685,80.47z M129.575,50.627
	c0,0.035,0,0.071,0,0.107c-1.892,1.893-5.22,2.618-9.273,2.025c0-0.107,0-0.213,0-0.32c0.917-1.473,2.086-1.379,3.624-2.238
	C125.879,50.181,128.246,50.052,129.575,50.627z M124.246,47.43c0.71-0.426,1.421-0.853,2.132-1.279
	c0.589-0.266,1.472,0.15,2.025-0.32c1.013-0.018,1.929,0.003,2.665,0.32c0.314,0.211,0.313,0.206,0.426,0.639
	c-1.208,1.602-4.927,1.75-7.141,1.066C124.317,47.714,124.281,47.572,124.246,47.43z M121.262,54.357
	c0.782,0.035,1.563,0.071,2.345,0.107c0.071,0.142,0.142,0.284,0.213,0.426c-1.213,0.424-3.453,2.528-5.009,0.746
	c-0.543-0.161-0.782-0.452-1.066-0.853C118.576,54.314,120.232,54.738,121.262,54.357z M121.048,70.451
	c0.035,0.107,0.071,0.213,0.107,0.32c-1.045,1.276-6.307,3.928-8.1,4.476c0.147-1.618,1.627-3.163,2.771-4.157
	c0.675-0.284,1.35-0.568,2.025-0.853C118.917,70.309,119.983,70.38,121.048,70.451z M115.08,76.207
	c-0.441-0.286,4.334-2.855,5.436-2.878C120.52,75.494,116.872,78.116,115.08,76.207z M131.493,36.771c0.604,0,1.208,0,1.812,0
	c0.142,0.178,0.284,0.355,0.426,0.533c-0.505,0.985-3.483,3.5-4.903,2.984c-0.071,0-0.142,0-0.213,0
	C128.66,38.171,130.052,37.508,131.493,36.771z M134.691,38.903c0.213,0.071,0.426,0.142,0.639,0.213
	c0.035,0.142,0.071,0.284,0.107,0.426c-0.561,0.926-4.81,5.519-6.821,3.73c-0.107,0-0.213,0-0.32,0
	C129.506,40.998,132.468,40.215,134.691,38.903z M127.23,38.37c0.178,0.035,0.355,0.071,0.533,0.107
	c0.446,2.622-2.095,5.578-4.05,6.288c-0.071-0.071-0.142-0.142-0.213-0.213C123.173,41.19,124.773,39.388,127.23,38.37z
	 M121.688,41.141c0.142,0,0.284,0,0.426,0c0.982,3.17-0.1,7.087-2.451,7.674C119.278,45.73,119.567,42.417,121.688,41.141z
	 M118.384,41.887c1.174,0.93-0.151,9.056-0.533,10.125c-0.392,0.303-0.595,0.575-0.959,0.639
	C115.855,48.694,115.514,44.087,118.384,41.887z M114.653,46.364c0,1.03,0,2.061,0,3.091c0.355,1.208,0.711,2.416,1.066,3.624
	c0.035,0.888,0.071,1.776,0.107,2.665c0.948,1.66,5.41,5.155,3.091,9.06c-1.942,3.269-7.675,2.999-7.674-1.812
	c1.144-0.565,2.967-1.384,3.624-2.451c-0.035-0.284-0.071-0.568-0.107-0.853c-0.317-0.142-0.24-0.063-0.426-0.32
	c-1.68,0.154-2.325,1.111-3.73,1.492c-0.107-0.035-0.213-0.071-0.32-0.107c-0.1-0.589-0.162-1.253,0.107-1.705
	c0.49-0.555,2.129-1.063,2.771-1.386c-0.071-0.249-0.142-0.497-0.213-0.746c-0.249-0.32-0.497-0.639-0.746-0.959
	c-2.023,0.085-2.446,1.368-4.583,1.386c0-0.142,0-0.284,0-0.426c0.071-0.178,0.142-0.355,0.213-0.533
	c1.095-1.225,3.631-1.94,3.73-4.05c-0.142-0.178-0.284-0.355-0.426-0.533c-0.533,0-1.066,0-1.599,0
	c-1.549,1.142-2.591,2.048-4.263,3.091c-0.035,0-0.071,0-0.107,0c-0.107-0.462-0.213-0.924-0.32-1.386
	c1.383-1.193,3.485-1.604,4.583-3.091c0-0.213,0-0.426,0-0.639c-3.154-2.16-4.638,3.633-7.034,1.918c0-0.142,0-0.284,0-0.426
	c1.101-0.604,2.203-1.208,3.304-1.812c0.071-0.355,0.142-0.711,0.213-1.066c-1.936-0.326-2.714,0.958-4.476,1.066
	c-0.035-0.071-0.071-0.142-0.107-0.213c-0.087-1.249,0.704-1.52,0.746-2.984c-0.035-0.035-0.071-0.071-0.107-0.107
	c-1.073,0.197-1.623,0.756-2.451,1.172c-1.566-1.726-5.399-2.69-8.633-1.705c-0.355,0-0.711,0-1.066,0
	c-0.244-3.474,1.919-3.374,3.73-4.903c0.533-0.71,1.066-1.421,1.599-2.132c0.71-0.249,1.421-0.497,2.132-0.746
	c1.894,0.142,2.656,1.029,3.837,1.705c0.781,0.142,1.563,0.284,2.345,0.426c1.544,0.682,2.744,1.963,3.624,3.304
	C110.314,42.652,113.869,43.829,114.653,46.364z M62.641,24.408c0.178-0.107,0.355-0.213,0.533-0.32
	c16.767,0.071,33.54,0.142,50.307,0.213c0.107,0.036,0.213,0.071,0.32,0.107c0,1.456,0,2.913,0,4.37
	c-2.886,1.048-11.407,0.32-15.241,0.32c-7.922,0-15.846,0-23.768,0c-3.83,0-8.606,0.511-12.044-0.213
	C62.421,27.87,62.621,25.892,62.641,24.408z M62.747,48.709c0.157-0.191,0.358-0.263,0.533-0.426
	c8.313,0.071,16.628,0.142,24.94,0.213c1.945,4.71,2.847,9.509,2.345,16.201c-0.761-0.398-0.956-0.848-2.132-0.853
	c-0.817,0.675-1.634,1.35-2.451,2.025c-0.486-1.18,0.038-2.996-0.213-4.476c-0.22-1.296-0.661-2.636-1.279-3.624
	c-3.68-5.885-12.279-4.647-21.636-4.583C62.516,52.512,62.37,49.479,62.747,48.709z M49.958,71.944
	c3.584-0.035,17.144-0.646,18.972,0.533c1.306,0.842,1.985,2.54,1.599,4.476c-1.08-0.206-1.857-1.026-2.878-1.386
	c-1.199-0.422-2.569,0.21-3.73-0.107c-0.107,0.035-0.213,0.071-0.32,0.107c-0.743-0.391-1.21-1.322-2.132-1.705
	c-1.834-0.763-3.746,0.755-5.116,0.426c-0.797-0.191-1.724-1.171-2.558-1.492c-1.681-0.647-2.765,0.43-4.263-0.32
	c-0.071-0.107-0.142-0.213-0.213-0.32C49.77,72.118,49.739,72.167,49.958,71.944z M46.653,72.903
	c1.937,0.004,2.603,0.782,3.837,1.279c2.146,0.864,3.548-0.674,5.116,1.386c3.257-0.156,5.65-2.094,7.887,1.066
	c1.746-0.218,3.886-0.543,5.329,0.32c1.646,0.984,3.279,6.599,1.492,8.846c-0.665,0.837-7.089,3.401-8.207,1.279
	c-0.808-1.533,0.038-3.359-0.426-5.116c-0.184-0.697-0.691-1.035-0.959-1.599c-0.462,0-0.924,0-1.386,0
	c-0.213,0.284-0.426,0.569-0.639,0.853c-0.035,0.462-0.071,0.924-0.107,1.386c1.118,1.131,2.566,3.38,1.812,5.649
	c-0.326,0.663-0.864,0.913-1.705,1.066c-0.743-2.208-1.075-5.296-2.025-7.248c-0.462,0-0.924,0-1.386,0
	c-0.035,0.035-0.071,0.071-0.107,0.107c0.275,1.418,2.503,7.301,0.959,8.313c-0.249,0.071-0.497,0.142-0.746,0.213
	c-1.136-1.663-0.769-6.522-1.918-7.781c-0.247-0.252-0.961-0.386-1.386-0.426c-0.107,0.249-0.213,0.497-0.32,0.746
	c0.27,2.534,1.71,4.598,1.812,7.461c-0.213,0.178-0.426,0.355-0.639,0.533c-0.284,0.071-0.569,0.142-0.853,0.213
	c-0.944-0.809-1.846-4.191-1.492-6.075c0.142-0.757,0.652-1.743,0.32-2.665c-0.172-0.326-0.325-0.465-0.639-0.639
	c-0.284-0.035-0.569-0.071-0.853-0.107c-0.071,0.035-0.142,0.071-0.213,0.107c-1.027,3.309-0.11,6.796,0.853,9.592
	c-1.26,0.064-2.491,0.101-3.73,0c-0.646-2.06-0.596-5.557-1.279-7.567c-0.462-0.035-0.924-0.071-1.386-0.107
	c-0.448,0.614,0.381,5.511,0.639,6.928c-0.376,0.479-1.301,0.927-1.492,1.492c0.035,0.533,0.071,1.066,0.107,1.599
	c-0.354,1.758-1.161,2.512-3.091,2.771c-0.548,0.074-1.387,0.135-1.812-0.213c-2.01-1.369-0.011-4.422-4.69-4.69
	c-0.956-1.508,0.213-5.122,1.172-6.502c0.462-0.355,0.924-0.711,1.386-1.066c0.694-1.119,0.355-2.801,0.959-3.837
	c0.44-0.754,1.364-0.881,1.918-1.492c0.827-0.912,0.831-2.551,1.812-3.304c0.831-0.638,1.482-0.291,2.665-0.746
	c0.533-0.462,1.066-0.924,1.599-1.386C45.445,73.329,46.05,73.116,46.653,72.903z M16.917,78.978
	c-1.277-0.891-1.829-3.817-0.746-5.329c0.683-0.954,2.003-0.94,2.878-1.705c8.711,0,17.732,0.118,25.58,0.213
	c-1.329,1.838-2.347,1.046-4.05,2.025c-1.241,0.714-1.076,2.183-1.918,3.304c-0.647,0.861-1.656,1.055-2.238,2.132
	C33.715,80.274,18.959,80.403,16.917,78.978z M69.889,155.718c-1.733,2.726-9.772,1.599-14.069,1.599c-9.449,0-18.902,0-28.351,0
	c-3.104,0-8.835,0.765-10.658-0.746c-1.573-1.304-1.414-4.758,0-6.075c0.639-0.32,1.279-0.64,1.918-0.959c13.18,0,26.363,0,39.542,0
	c0.924,0.782,1.848,1.563,2.771,2.345c2.574,1.631,5.468,2.924,8.846,3.73C69.889,155.647,69.889,155.682,69.889,155.718z
	 M62.854,151.135c1.305-0.882,3.814-0.355,5.009-1.279c2.103,0.052,3.522,1.249,5.009,2.025c0.035,0.071,0.071,0.142,0.107,0.213
	C70.347,153.845,64.514,153.472,62.854,151.135z M72.766,149.962c-0.071,0.107-0.142,0.213-0.213,0.32
	c-3.689-1.798-3.084-4.885-2.025-9.06C71.748,141.774,74.031,147.784,72.766,149.962z M76.816,137.279
	c-1.426,4.034-6.107,3.565-7.781,0.107c-1.181,0.08-2.398,0.396-3.411-0.107c-1.314-0.873-0.639-2.897-0.533-4.583
	c-1.032-1.389-2.556-2.146-2.771-4.37c1.341-3.327,3.905-1.005,5.649-2.451c0.606-0.479,0.714-4.018,1.279-4.903
	c0.788-1.233,2.139-1.738,3.091-2.771c0.249-0.533,0.497-1.066,0.746-1.599c1.255-1.588,3.265-1.246,5.649-1.492
	c0.541-1.081,1.514-1.663,2.345-2.451c0.604,0.035,1.208,0.071,1.812,0.107c1.052,0.349,1.713,1.555,2.238,2.451
	c2.594-0.504,5.888-3.624,8.42,0.107c1.296,0.543,2.458-0.846,3.837-0.426c0.538,0.164,0.964,0.475,1.705,0.533
	c0.465,0.936,1.267,1.677,1.599,2.771c0.107,1.137,0.213,2.274,0.32,3.411c0.483,1.031,1.438,1.7,1.918,2.878
	c-1.476,0.638-5.019-0.114-6.821,0.853c-0.32-0.924-0.639-1.848-0.959-2.771c-0.107-0.035-0.213-0.071-0.32-0.107
	c-0.52,0.029-0.615,0.033-0.853,0.32c-0.32,1.385-0.639,2.771-0.959,4.157c-0.32,0.462-0.64,0.924-0.959,1.386
	c-0.213,0-0.426,0-0.639,0c-0.552-2.236,1.223-5.187,0.107-7.141c-0.071-0.107-0.142-0.213-0.213-0.32c-0.284,0-0.569,0-0.853,0
	c-0.539,2.63-1.037,5.836-1.386,8.846c-0.283,0.197-0.186,0.219-0.64,0.32c-1.136-2.649,0.726-6.056,0.213-9.166
	c-0.107,0-0.213,0-0.32,0c-3.384,1.929-0.74,5.344-1.812,8.313c-0.206,0.274-0.038,0.306-0.533,0.32
	c-1.866,0.053-0.137-4.954-0.32-6.395c-0.34-0.246-0.945-0.469-1.492-0.213c-1.681,1.037-0.014,5.5-0.213,7.034
	c-0.471,0.46-1.857,0.509-2.345-0.107c-1.542-0.531-0.366-3.249-0.533-4.476c0.082-0.329-0.044-0.412-0.213-0.746
	c-0.426,0-0.853,0-1.279,0c-0.071,0.035-0.142,0.071-0.213,0.107c-0.886,2.102-0.199,6.26-0.32,8.846
	c-0.071,0.035-0.142,0.071-0.213,0.107c-0.804-1.371-0.868-3.718-1.066-5.649c-0.071-0.071-0.142-0.142-0.213-0.213
	c-0.905,0.128-1.304,0.452-1.705,1.066C75.456,131.521,78.025,133.863,76.816,137.279z M100.691,138.665
	c-3.136,3.899-2.653,1.491-6.821,1.386c-0.606,2.189-1.971,2.241-4.157,2.878c-0.609,2.265-1.822,3.327-4.05,3.73
	c-0.533-0.391-1.066-0.782-1.599-1.172c-0.906-1.011-1.115-2.729-2.132-3.624c-1.189-1.046-3.02-1.335-4.263-2.345
	c-0.51-0.501,2.047-4.922,2.558-5.436c3.171-3.184,6.218-0.673,10.765-2.132c1.571-0.504,1.776-1.735,2.771-2.771
	c1.219-1.27,2.725-1.891,4.37-2.771c3.259-0.039,5.225,0.466,6.715,2.132c-1.509,3.904-0.183,5.025,1.066,7.887
	c0.502,1.146-0.355,1.96-0.746,2.558C103.432,139.207,102.237,138.706,100.691,138.665z M160.804,154.439
	c-1.084,4.107-8.163,2.878-13.216,2.878c-9.449,0-18.902,0-28.351,0c-2.99,0-9.615,0.648-11.511-0.32
	c-2.089-1.066-2.569-4.494-0.959-6.395c0.675-0.355,1.35-0.711,2.025-1.066c13.464,0,26.931,0,40.395,0
	C153.91,149.535,162.376,148.482,160.804,154.439z"/>
</svg>
