<?xml version="1.0" encoding="utf-8"?>
<!-- Generator: Adobe Illustrator 17.0.0, SVG Export Plug-In . SVG Version: 6.00 Build 0)  -->
<!DOCTYPE svg PUBLIC "-//W3C//DTD SVG 1.1//EN" "http://www.w3.org/Graphics/SVG/1.1/DTD/svg11.dtd">
<svg version="1.1" id="图层_1" xmlns="http://www.w3.org/2000/svg" xmlns:xlink="http://www.w3.org/1999/xlink" x="0px" y="0px"
	 width="29px" height="37.34px" viewBox="0 0 29 37.34" enable-background="new 0 0 29 37.34" xml:space="preserve">
<path fill="#C40000" d="M17.394,26.675c-2.322,0-4.506-0.917-5.254-2.34c0,0-1.249,4.944-1.512,5.897
	c-0.933,3.375-3.672,6.75-3.882,7.023c-0.149,0.192-0.478,0.133-0.512-0.123c-0.06-0.429-0.759-4.683,0.064-8.154
	C6.711,27.236,9.04,16.923,9.04,16.923s-0.663-1.007-0.663-3.032c0-3.183,1.849-5.36,4.15-5.36c1.956,0,2.897,1.27,2.897,3.025
	c0,1.961-1.25,4.899-1.896,7.617c-0.54,2.275,1.142,3.937,3.393,3.937c4.074,0,6.819-5.027,6.819-11.216
	c0-4.702-3.174-8.334-8.949-8.334c-6.522,0-10.352,4.434-10.352,10.646c0,1.87,0.538,2.933,1.404,3.949
	c0.397,0.47,0.452,0.662,0.308,1.2c-0.105,0.392-0.557,1.346-0.658,1.719c-0.141,0.548-0.585,0.739-1.076,0.539
	c-3.005-1.223-4.403-4.507-4.403-8.201c0-6.093,5.15-13.403,15.369-13.403c8.21,0,13.615,5.929,13.615,12.295
	C28.998,20.719,24.306,26.675,17.394,26.675z"/>
</svg>
