<?xml version="1.0" encoding="iso-8859-1"?>
<!-- Generator: Adobe Illustrator 15.0.0, SVG Export Plug-In . SVG Version: 6.00 Build 0)  -->
<!DOCTYPE svg PUBLIC "-//W3C//DTD SVG 1.1//EN" "http://www.w3.org/Graphics/SVG/1.1/DTD/svg11.dtd">
<svg version="1.1" id="Layer_1" xmlns="http://www.w3.org/2000/svg" xmlns:xlink="http://www.w3.org/1999/xlink" x="0px" y="0px"
	 width="128px" height="128px" viewBox="0 0 128 128" style="enable-background:new 0 0 128 128;" xml:space="preserve">
<g>
	<circle style="fill:#263740;" cx="64" cy="64" r="64"/>
	<path style="fill:#FFD464;" d="M17.953,30c0,1-1,2-2,2c1,0,2,1,2,2c0-1,1-2,2-2C18.953,32,17.953,31,17.953,30z"/>
	<path style="fill:#FFD464;" d="M10.953,39c0,1-1,2-2,2c1,0,2,1,2,2c0-1,1-2,2-2C11.953,41,10.953,40,10.953,39z"/>
	<path style="fill:#FFD464;" d="M3.953,61c0,1-1,2-2,2c1,0,2,1,2,2c0-1,1-2,2-2C4.953,63,3.953,62,3.953,61z"/>
	<path style="fill:#FFD464;" d="M5.953,71c0,1-1,2-2,2c1,0,2,1,2,2c0-1,1-2,2-2C6.953,73,5.953,72,5.953,71z"/>
	<path style="fill:#FFD464;" d="M6.953,82c0,1-1,2-2,2c1,0,2,1,2,2c0-1,1-2,2-2C7.953,84,6.953,83,6.953,82z"/>
	<path style="fill:#FFD464;" d="M28.953,14c0,1-1,2-2,2c1,0,2,1,2,2c0-1,1-2,2-2C29.953,16,28.953,15,28.953,14z"/>
	<path style="fill:#FFD464;" d="M26.953,26c0,1-1,2-2,2c1,0,2,1,2,2c0-1,1-2,2-2C27.953,28,26.953,27,26.953,26z"/>
	<path style="fill:#FFD464;" d="M41.953,7c0,1-1,2-2,2c1,0,2,1,2,2c0-1,1-2,2-2C42.953,9,41.953,8,41.953,7z"/>
	<path style="fill:#FFD464;" d="M77.953,7c0,1-1,2-2,2c1,0,2,1,2,2c0-1,1-2,2-2C78.953,9,77.953,8,77.953,7z"/>
	<path style="fill:#FFD464;" d="M51.953,16c0,1-1,2-2,2c1,0,2,1,2,2c0-1,1-2,2-2C52.953,18,51.953,17,51.953,16z"/>
	<path style="fill:#FFD464;" d="M59.953,5c0,1-1,2-2,2c1,0,2,1,2,2c0-1,1-2,2-2C60.953,7,59.953,6,59.953,5z"/>
	<path style="fill:#FFD464;" d="M90.953,20c0,1-1,2-2,2c1,0,2,1,2,2c0-1,1-2,2-2C91.953,22,90.953,21,90.953,20z"/>
	<path style="fill:#FFD464;" d="M70.953,16c0,1-1,2-2,2c1,0,2,1,2,2c0-1,1-2,2-2C71.953,18,70.953,17,70.953,16z"/>
	<path style="fill:#FFD464;" d="M95.953,12c0,1-1,2-2,2c1,0,2,1,2,2c0-1,1-2,2-2C96.953,14,95.953,13,95.953,12z"/>
	<path style="fill:#FFD464;" d="M106.953,32c0,1-1,2-2,2c1,0,2,1,2,2c0-1,1-2,2-2C107.953,34,106.953,33,106.953,32z"/>
	<path style="fill:#FFD464;" d="M121.953,64c0,1-1,2-2,2c1,0,2,1,2,2c0-1,1-2,2-2C122.953,66,121.953,65,121.953,64z"/>
	<path style="fill:#994239;" d="M64,128c20.793,0,39.264-9.923,50.953-25.285V58.217c0-8.404-6.813-15.217-15.219-15.217H27.171
		c-8.405,0-15.218,6.813-15.218,15.217v43.004C23.564,117.43,42.542,128,64,128z"/>
	<path style="fill:#E6E6E6;" d="M110.953,63c0,24.373-20.945,44.217-47,44.217c-26.055,0-47-19.844-47-44.217
		c0-24.372,20.945-41,47-41C90.008,22,110.953,38.628,110.953,63z"/>
	<path style="fill:#CC584C;" d="M99.953,69c0,13.447-16.234,25-36,25c-19.766,0-36-11.553-36-25s16.234-32,36-32
		C83.719,37,99.953,55.553,99.953,69z"/>
	<path style="fill:#CC584C;" d="M50.953,23.467V45h3V22.857C52.939,23.033,51.941,23.239,50.953,23.467z"/>
	<path style="fill:#CC584C;" d="M72.953,22.693V45h3V23.238C74.967,23.029,73.965,22.85,72.953,22.693z"/>
	<path style="fill:#263740;" d="M63.953,91c-18.057,0-33-10.252-33-22c0-11.374,14.316-29,33-29c18.684,0,33,17.626,33,29
		C96.953,80.748,82.01,91,63.953,91z"/>
	<path style="fill:#354D59;" d="M53.891,57c-4.398,0-7.465-2.246-7.465-4.261c0-2.188,3.152-6.392,7.465-6.392
		c4.312,0,7.463,4.204,7.463,6.392C61.354,54.754,58.288,57,53.891,57z"/>
	<path style="fill:#CC584C;" d="M96.953,104.957c0,1.682-1.363,3.043-3.044,3.043H32.997c-1.681,0-3.044-1.363-3.044-3.043v-4.913
		c0-1.681,1.363-3.043,3.044-3.043h60.912c1.681,0,3.044,1.363,3.044,3.043V104.957z"/>
	<path style="fill:#E6E6E6;" d="M108.337,110.129c-2.101-3.659-6.036-6.129-10.558-6.129H28.127c-3.986,0-7.514,1.924-9.734,4.885
		C30.002,120.68,46.143,128,64,128C81.217,128,96.834,121.188,108.337,110.129z"/>
	<path style="fill:#263740;" d="M64.953,122.436c0,1.674-0.92,2.564-2.593,2.564H47.143c-1.674,0-3.189-0.891-3.189-2.564v-6.088
		c0-1.674,1.518-3.348,3.189-3.348H62.36c1.673,0,2.593,1.674,2.593,3.348V122.436z"/>
	<path style="fill:#FFD464;" d="M45.621,121h-3.043c-0.842,0-1.521-0.66-1.521-1.5c0-0.841,0.681-1.5,1.521-1.5h3.043
		c0.841,0,1.521,0.659,1.521,1.5C47.143,120.34,46.462,121,45.621,121z"/>
	<circle style="fill:#CC584C;" cx="76.057" cy="116.348" r="1.522"/>
	<circle style="fill:#96E652;" cx="76.057" cy="120.913" r="1.522"/>
	<path style="fill:#CC584C;" d="M16.842,107.258c4.758,5.184,10.354,9.583,16.578,12.975c2.311-4.063,1.742-9.319-1.724-12.785
		C27.604,103.354,21.016,103.297,16.842,107.258z"/>
	<path style="fill:#E6E6E6;" d="M17.198,107.632c4.403,4.722,9.513,8.771,15.159,11.99c0.834-3.483-0.096-7.304-2.814-10.022
		C26.202,106.257,21.196,105.605,17.198,107.632z"/>
	<path style="fill:#CC584C;" d="M109.566,108.927l-1.479-1.479c-4.157-4.16-10.901-4.16-15.063,0
		c-3.836,3.836-4.127,9.864-0.889,14.042C98.645,118.297,104.532,114.034,109.566,108.927z"/>
	<path style="fill:#E6E6E6;" d="M109.535,108.96c-4.186-3.504-10.426-3.295-14.357,0.638c-3.119,3.119-3.898,7.688-2.344,11.533
		C99.051,117.988,104.688,113.869,109.535,108.96z"/>
</g>
</svg>
