<?xml version="1.0" encoding="utf-8"?>
<!-- Generator: Adobe Illustrator 17.0.0, SVG Export Plug-In . SVG Version: 6.00 Build 0)  -->
<!DOCTYPE svg PUBLIC "-//W3C//DTD SVG 1.1//EN" "http://www.w3.org/Graphics/SVG/1.1/DTD/svg11.dtd">
<svg version="1.1" id="图层_1" xmlns="http://www.w3.org/2000/svg" xmlns:xlink="http://www.w3.org/1999/xlink" x="0px" y="0px"
	 width="31px" height="36.031px" viewBox="0 0 31 36.031" enable-background="new 0 0 31 36.031" xml:space="preserve">
<path fill="#FFBC6C" d="M20.042,31.397c-5.73,4.219-6.845,4.447-8.128,4.621v-5.27v-0.293C6.082,29.046-0.008,24.064-0.008,15.128
	c0-10.846,6.299-14.926,16.526-15.124c9.24,0.578,14.47,4.583,14.47,15.124C30.748,23.783,25.343,29.615,20.042,31.397z
	 M16.243,3.235C8.751,3.38,3.188,7.285,3.188,15.231c0,7.439,6.69,12.265,11.408,12.589v2.342v0.586
	c1.597-0.045,1.543-0.312,2.789-0.783c7.673-3.542,10.078-8.335,10.078-15.727C27.463,6.517,23.013,3.658,16.243,3.235z
	 M19.345,16.589c-1.277,0-2.313-1-2.313-2.234s1.036-2.234,2.313-2.234c1.277,0,2.313,1,2.313,2.234S20.622,16.589,19.345,16.589z
	 M10.805,16.589c-1.277,0-2.313-1-2.313-2.234s1.036-2.234,2.313-2.234c1.278,0,2.313,1,2.313,2.234S12.083,16.589,10.805,16.589z"
	/>
</svg>
