<?xml version="1.0" encoding="utf-8"?><!DOCTYPE svg PUBLIC "-//W3C//DTD SVG 1.1//EN" "http://www.w3.org/Graphics/SVG/1.1/DTD/svg11.dtd"><svg version="1.1" baseProfile="full" xmlns="http://www.w3.org/2000/svg" xmlns:xlink="http://www.w3.org/1999/xlink" xmlns:ev="http://www.w3.org/2001/xml-events"   height="59px"   width="72px" ><path fill="rgb( 225, 175, 69 )" d="M24,2.012 C24,2.012 17.018,2.012 17.018,2.012 C7.619,2.012 0,9.67000000000002 0,19.115 C0,28.561 7.619,36.218 17.018,36.218 C17.018,36.218 24,36.218 24,36.218 C24,36.218 24,2.012 24,2.012 Z "/><path fill="rgb( 51, 159, 169 )" d="M22,38.231 C22,38.231 34,38.231 34,38.231 C34,38.231 34,0 34,0 C34,0 22,0 22,0 C22,0 22,38.231 22,38.231 Z "/><path fill="rgb( 255, 255, 255 )" d="M28,12.073 C29.657,12.073 31,10.722 31,9.05500000000001 C31,7.38799999999998 29.657,6.036 28,6.036 C26.343,6.036 25,7.38799999999998 25,9.05500000000001 C25,10.722 26.343,12.073 28,12.073 Z "/><path fill="rgb( 241, 205, 176 )" d="M68,28.17 C68,28.17 71,27.164 71,24.146 C71,21.127 67,19.115 67,19.115 C67,19.115 69,18.308 69,15.091 C69,11.874 64,11.067 64,11.067 C64,11.067 67,10.061 67,7.04199999999997 C67,4.024 62.229,3.01799999999997 62.229,3.01799999999997 C62.229,3.01799999999997 34,3.01799999999997 34,3.01799999999997 C34,3.01799999999997 34,36.218 34,36.218 C34,36.218 39,36.218 39,36.218 C45.514,36.218 46,46.279 46,46.279 C46,46.279 46,52.311 46,53.322 C46,55.334 47,58.352 51,56.34 C55,54.328 55,50.569 55,46.279 C55,43.062 54,36.218 54,36.218 C54,36.218 63.657,36.218 68,36.218 C70,36.218 72,35.212 72,32.194 C72,29.176 68,28.17 68,28.17 Z "/></svg>