<?xml version="1.0" encoding="utf-8"?>
<!-- Generator: Adobe Illustrator 17.0.0, SVG Export Plug-In . SVG Version: 6.00 Build 0)  -->
<!DOCTYPE svg PUBLIC "-//W3C//DTD SVG 1.1//EN" "http://www.w3.org/Graphics/SVG/1.1/DTD/svg11.dtd">
<svg version="1.1" id="图层_1" xmlns="http://www.w3.org/2000/svg" xmlns:xlink="http://www.w3.org/1999/xlink" x="0px" y="0px"
	 width="64px" height="64px" viewBox="0 0 64 64" enable-background="new 0 0 64 64" xml:space="preserve">
<g>
	<path fill="#08A1EF" d="M32.002,16c-8.836,0-16,7.164-16,16s7.164,16,16,16S48,40.836,48,32S40.838,16,32.002,16L32.002,16z M28,4
		c0-2.21,1.79-4,4-4s4,1.79,4,4s-1.79,4-4,4S28,6.21,28,4z M8,12c0-2.21,1.79-4,4-4s4,1.79,4,4s-1.79,4-4,4S8,14.21,8,12z M4,28
		c2.21,0,4,1.79,4,4c0,2.214-1.79,4-4,4s-4-1.786-4-4C0,29.79,1.79,28,4,28z M8,52c0-2.21,1.79-4,4-4s4,1.79,4,4s-1.79,4-4,4
		S8,54.21,8,52z M28,60c0-2.218,1.79-4,4-4c2.216,0,4,1.782,4,4c0,2.204-1.784,4-4,4C29.79,64,28,62.204,28,60z M48,52
		c0-2.21,1.79-4,4-4s4,1.79,4,4s-1.79,4-4,4S48,54.21,48,52z M60,36c-2.208,0-4-1.792-4-4c0-2.214,1.792-4,4-4s4,1.786,4,4
		C64,34.208,62.208,36,60,36z M48,12c0-2.21,1.79-4,4-4s4,1.79,4,4s-1.79,4-4,4S48,14.21,48,12z"/>
</g>
</svg>
