<?xml version="1.0" encoding="utf-8"?>
<!-- Generator: Adobe Illustrator 17.0.0, SVG Export Plug-In . SVG Version: 6.00 Build 0)  -->
<!DOCTYPE svg PUBLIC "-//W3C//DTD SVG 1.1//EN" "http://www.w3.org/Graphics/SVG/1.1/DTD/svg11.dtd">
<svg version="1.1" id="图层_1" xmlns="http://www.w3.org/2000/svg" xmlns:xlink="http://www.w3.org/1999/xlink" x="0px" y="0px"
	 width="32px" height="36px" viewBox="0 0 32 36" enable-background="new 0 0 32 36" xml:space="preserve">
<path fill="#EF4884" d="M20.93,32.095c-1.177,0.393-2.205,1.326-3.23,2.107c-0.593,0.453-1.043,1.103-1.667,1.784
	c-0.54-0.633-0.926-1.262-1.467-1.682c-1.014-0.787-2.029-1.732-3.199-2.124c-7.104-2.377-11.84-9.309-11.324-16.802
	c0.534-7.767,6.128-14,13.633-15.19c8.013-1.271,16.074,4.149,17.861,12.008C33.542,21.013,29.024,29.396,20.93,32.095z
	 M16.276,3.454c-7.054-0.209-12.945,5.614-13.15,13c-0.196,7.064,5.47,13.245,12.37,13.495c7.087,0.257,13.223-5.457,13.448-12.523
	C29.189,9.709,23.719,3.676,16.276,3.454z M15.965,26.621c-5.357-0.026-9.586-4.477-9.566-10.066
	c0.019-5.41,4.447-9.916,9.657-9.827c5.458,0.092,9.692,4.481,9.659,10.009C25.681,22.286,21.378,26.648,15.965,26.621z
	 M15.955,10.007c-3.562,0.079-6.423,3.136-6.378,6.817c0.043,3.581,2.973,6.517,6.485,6.498c3.639-0.019,6.443-2.941,6.419-6.688
	C22.456,12.965,19.467,9.929,15.955,10.007z M16.075,19.995c-1.862,0.013-3.246-1.435-3.225-3.373
	c0.019-1.746,1.512-3.317,3.169-3.336c1.711-0.018,3.258,1.629,3.242,3.451C19.245,18.585,17.878,19.982,16.075,19.995z"/>
</svg>
