<?xml version="1.0" encoding="utf-8"?>
<!-- Generator: Adobe Illustrator 17.0.0, SVG Export Plug-In . SVG Version: 6.00 Build 0)  -->
<!DOCTYPE svg PUBLIC "-//W3C//DTD SVG 1.1//EN" "http://www.w3.org/Graphics/SVG/1.1/DTD/svg11.dtd">
<svg version="1.1" id="图层_2" xmlns="http://www.w3.org/2000/svg" xmlns:xlink="http://www.w3.org/1999/xlink" x="0px" y="0px"
	 width="187.087px" height="80.4px" viewBox="0 0 187.087 80.4" enable-background="new 0 0 187.087 80.4" xml:space="preserve">
<path fill="#6B0004" d="M186.065,1.688h-45.918c-0.633,0-0.984,0.352-0.984,0.985v0.703c0,0.6,0.352,0.881,0.984,0.881
	c4.469,0.07,6.686,2.075,6.686,6.121v59.678c0,2.428-0.457,4.01-1.441,4.891c-0.881,0.738-2.641,1.16-5.244,1.23
	c-0.633,0-0.984,0.281-0.984,0.811v1.23c0,0.633,0.352,0.986,0.984,0.986h45.918c0.67,0,1.021-0.354,1.021-0.986v-1.23
	c0-0.529-0.352-0.811-1.021-0.811c-2.568-0.07-4.258-0.492-5.137-1.23c-1.02-0.881-1.549-2.463-1.549-4.891V10.379
	c0-2.639,0.529-4.362,1.549-5.102c0.738-0.668,2.463-0.949,5.137-1.019c0.67,0,1.021-0.281,1.021-0.881V2.674
	C187.087,2.041,186.735,1.688,186.065,1.688L186.065,1.688z M120.972,4.223l0.176-1.127c0-0.879-0.352-1.337-1.092-1.337h-19.949
	c-0.881,0-1.303,0.458-1.303,1.442c0,1.021,0.492,1.478,1.373,1.478h2.393c1.936,0,2.92,0.633,2.92,1.936
	c0,0.527-0.211,1.125-0.703,1.759c-2.217,2.991-3.906,5.102-5.103,6.333L76.53,40.393c-1.16,1.161-1.759,0.985-1.759-0.527V9.711
	c0-3.448,2.005-5.207,5.981-5.207l1.479-0.176c0.281-0.176,0.387-0.599,0.387-1.303c0-0.879-0.387-1.267-1.162-1.267H58.128
	c-1.195,0-1.76,0.528-1.76,1.513c0,0.986,0.528,1.479,1.514,1.479c4.152,0,6.264,1.619,6.264,4.961v61.4
	c0,3.344-2.111,4.996-6.264,4.996c-0.985,0-1.514,0.459-1.514,1.408l0.282,1.336l1.478,0.248h23.328
	c0.775-0.07,1.162-0.529,1.162-1.303c0-0.703-0.105-1.16-0.387-1.338l-1.479-0.176c-3.977,0-5.981-1.688-5.981-5.172V50.492
	c0-1.936,0.281-3.131,0.88-3.66l5.348-5.84c0.81-0.845,1.584-0.774,2.217,0.176l19.354,29.768c0.457,0.879,0.703,1.725,0.703,2.463
	c0,1.127-0.422,1.83-1.303,2.182l-3.553,0.457c-0.951,0-1.408,0.529-1.408,1.549c0,0.984,0.527,1.443,1.514,1.443h26.107
	c0.635,0,0.986-0.459,0.986-1.443c0-1.055-0.457-1.584-1.408-1.584c-4.293-0.141-7.389-1.9-9.43-5.242L90.499,33.356
	c-0.492-0.774-0.703-1.337-0.668-1.76l1.021-1.513l19.212-21.252c2.428-2.64,5.629-4.082,9.746-4.398L120.972,4.223L120.972,4.223z
	 M108.128,42.082h27.059c0.633,0,0.984-0.352,0.984-0.984v-1.302c0-0.634-0.352-0.986-0.984-0.986h-27.059
	c-0.633,0-0.914,0.352-0.914,0.986v1.302C107.214,41.73,107.495,42.082,108.128,42.082L108.128,42.082z M168.966,8.551v63.863
	c0,1.16-0.422,2.182-1.232,2.99c-0.844,0.809-1.828,1.232-2.99,1.232h-3.166c-1.197,0-2.182-0.424-3.062-1.232
	c-0.879-0.809-1.301-1.83-1.301-2.99V8.551c0-1.162,0.422-2.218,1.301-3.098c0.881-0.844,1.865-1.23,3.062-1.23h3.166
	c1.162,0,2.146,0.387,2.99,1.23C168.544,6.333,168.966,7.389,168.966,8.551L168.966,8.551z M31.949,1.583
	c2.64,0.88,4.644,1.688,5.981,2.464c4.117,2.392,6.932,1.97,8.41-1.303c0.281-0.633,0.738-0.985,1.442-0.985
	c1.126,0,1.653,0.458,1.653,1.407v19.81c0,0.88-0.527,1.337-1.513,1.337l-1.232-0.176c-0.246-0.176-0.422-0.457-0.527-0.915
	c-1.127-6.51-4.117-11.576-9.113-15.095c-3.906-2.745-8.094-4.151-12.598-4.151c-4.82,0-8.515,1.477-11.084,4.398
	c-2.182,2.533-3.271,5.63-3.271,9.324c0,3.941,1.583,7.143,4.68,9.746c2.463,2.041,6.756,4.152,12.773,6.44
	c9.113,3.344,15.446,6.404,18.895,9.079c4.996,4.012,7.494,9.289,7.494,15.799s-2.041,11.646-6.157,15.588
	c-4.256,4.045-10.203,6.05-17.627,6.05c-5.631,0-12.105-1.477-19.354-4.363c-1.935-0.738-3.342-1.055-4.363-0.879
	c-1.23,0.176-2.287,1.125-3.201,2.814L2.64,78.994L1.513,79.1C0.528,79.1,0,78.676,0,77.938V55.98c0-0.703,0.528-1.055,1.583-1.055
	c0.88,0,1.408,0.351,1.514,1.125c1.02,4.857,3.236,9.221,6.756,13.019c4.644,4.996,10.485,7.461,17.594,7.461
	c5.277,0,9.324-1.479,12.068-4.4c2.252-2.428,3.343-5.523,3.343-9.324c0-4.82-1.936-8.76-5.841-11.787
	c-2.287-1.758-6.228-3.693-11.788-5.805l-6.122-2.182c-3.097-1.232-5.736-2.569-7.918-4.047c-6.614-4.328-9.887-10.099-9.887-17.311
	c0-6.368,2.111-11.612,6.334-15.658C11.717,1.971,16.96,0,23.294,0C25.687,0,28.606,0.527,31.949,1.583L31.949,1.583z"/>
</svg>
