<?xml version="1.0" encoding="utf-8"?>
<!-- Generator: Adobe Illustrator 17.0.0, SVG Export Plug-In . SVG Version: 6.00 Build 0)  -->
<!DOCTYPE svg PUBLIC "-//W3C//DTD SVG 1.1//EN" "http://www.w3.org/Graphics/SVG/1.1/DTD/svg11.dtd">
<svg version="1.1" id="图层_1" xmlns="http://www.w3.org/2000/svg" xmlns:xlink="http://www.w3.org/1999/xlink" x="0px" y="0px"
	 width="158.489px" height="187.375px" viewBox="0 0 158.489 187.375" enable-background="new 0 0 158.489 187.375"
	 xml:space="preserve">
<g id="Beats">
	<g>
		<path fill="#38373B" d="M36.922,187.375l1.609-1.18c-0.26-0.351-0.51-0.7-0.75-1.051c-0.01-0.01-0.02-0.029-0.029-0.04
			c-1.011-1.39-1.98-2.79-2.931-4.199c-0.479-0.7-0.949-1.4-1.41-2.101c-0.73-1.109-1.449-2.229-2.14-3.35
			c-0.32-0.49-0.62-0.98-0.92-1.48c-0.98-1.58-1.92-3.17-2.82-4.76c-0.33-0.58-0.659-1.15-0.98-1.729
			c-1.28-2.301-2.49-4.591-3.641-6.881c-0.38-0.739-0.75-1.479-1.1-2.22c-0.36-0.74-0.72-1.48-1.06-2.21
			c-0.29-0.61-0.57-1.21-0.841-1.81c-0.399-0.87-0.789-1.73-1.159-2.59c-0.33-0.73-0.641-1.45-0.95-2.181
			c-0.62-1.45-1.21-2.899-1.78-4.34c-0.29-0.72-0.57-1.44-0.84-2.15c-0.56-1.44-1.08-2.859-1.59-4.27c-0.25-0.7-0.49-1.4-0.73-2.09
			c-0.17-0.48-0.33-0.96-0.489-1.44c-0.181-0.54-0.36-1.08-0.54-1.609c-0.57-1.75-1.11-3.471-1.61-5.181
			c-0.21-0.68-0.4-1.34-0.59-2.01c-0.57-1.99-1.101-3.95-1.59-5.88c-0.131-0.5-0.25-0.99-0.37-1.49c-0.2-0.77-0.38-1.54-0.561-2.3
			c-0.149-0.62-0.29-1.24-0.43-1.86c-0.84-3.739-1.53-7.31-2.1-10.649c-0.181-1.04-0.341-2.061-0.49-3.05
			c-0.08-0.521-0.16-1.03-0.24-1.53c-0.82-5.641-1.28-10.5-1.54-14.32c-0.04-0.64-0.08-1.24-0.11-1.82
			c-0.02-0.379-0.04-0.75-0.059-1.1c-0.02-0.48-0.04-0.939-0.06-1.38c-0.03-0.75-0.051-1.42-0.061-2.02
			C2.01,78.374,2,77.754,2,77.264c0-0.332,0.005-0.664,0.008-0.996c0.001-0.117-0.195-0.348-0.447-0.342
			c-0.329,0.008-0.751,0.018-0.954,0.018c-0.358,0-0.601,0.233-0.604,0.574C-0.056,82.665,0.493,137.664,36.922,187.375z"/>
	</g>
	<path fill="#4E4C51" d="M2.002,77.265c0,0.49,0.01,1.11,0.02,1.84c0.01,0.601,0.03,1.27,0.061,2.02c0.02,0.44,0.04,0.899,0.06,1.38
		c0.02,0.35,0.04,0.721,0.059,1.1c0.03,0.58,0.07,1.181,0.11,1.82c0.26,3.82,0.72,8.68,1.54,14.32c0.08,0.5,0.16,1.01,0.24,1.53
		c0.149,1,0.31,2.01,0.49,3.05c0.569,3.34,1.26,6.91,2.1,10.649c0.14,0.62,0.28,1.24,0.43,1.86c0.181,0.76,0.36,1.53,0.561,2.3
		c0.12,0.5,0.239,0.99,0.37,1.49c0.489,1.93,1.02,3.89,1.59,5.88c0.189,0.67,0.39,1.34,0.59,2.01c0.5,1.71,1.04,3.431,1.61,5.181
		c0.18,0.529,0.359,1.069,0.54,1.609c0.159,0.48,0.319,0.96,0.489,1.44c0.24,0.7,0.49,1.39,0.73,2.09c0.51,1.41,1.03,2.83,1.59,4.27
		c0.27,0.721,0.55,1.431,0.84,2.15c0.57,1.44,1.16,2.89,1.78,4.34c0.31,0.73,0.63,1.45,0.95,2.181c0.37,0.859,0.76,1.72,1.159,2.59
		c0.28,0.6,0.561,1.21,0.841,1.81c0.35,0.74,0.699,1.47,1.06,2.21c0.36,0.74,0.72,1.48,1.1,2.22c1.15,2.29,2.36,4.58,3.641,6.881
		c0.32,0.569,0.649,1.149,0.98,1.729c0.9,1.59,1.841,3.18,2.82,4.76c0.3,0.5,0.6,0.99,0.92,1.48c0.691,1.12,1.41,2.24,2.14,3.35
		c0.461,0.7,0.954,1.385,1.41,2.101c1.055,1.655,3.71,5.29,3.71,5.29c4.01-2.58,0.16-9.931,0.16-9.931l-17.8-46.25
		C6.365,100.135,6.635,80.304,6.853,76.473c0.025-0.448-0.133-0.642-0.477-0.665c-0.277-0.02-2.949,0.062-3.97,0.095
		c-0.244,0.008-0.395,0.249-0.396,0.366C2.007,76.601,2.002,76.933,2.002,77.265z"/>
	<path opacity="0.5" enable-background="new    " d="M39.462,185.345c-0.24,0.32-0.551,0.61-0.931,0.851c0,0-2.649-3.641-3.71-5.29
		c-0.45-0.721-0.95-1.4-1.41-2.11c-0.73-1.1-1.449-2.22-2.14-3.34c-0.32-0.49-0.62-0.99-0.92-1.49c-0.98-1.58-1.92-3.17-2.82-4.75
		c-0.33-0.59-0.66-1.17-0.98-1.729c-1.28-2.311-2.49-4.601-3.641-6.891c-0.38-0.73-0.739-1.47-1.1-2.22
		c-0.36-0.74-0.71-1.46-1.06-2.21c-0.28-0.59-0.561-1.2-0.841-1.8c-0.399-0.87-0.79-1.74-1.159-2.59
		c-0.32-0.73-0.641-1.45-0.95-2.19c-0.62-1.45-1.21-2.89-1.78-4.33c-0.29-0.72-0.57-1.43-0.84-2.16c-0.561-1.43-1.08-2.85-1.59-4.26
		c-0.24-0.71-0.49-1.39-0.73-2.09c-0.17-0.49-0.33-0.96-0.49-1.45c-0.18-0.54-0.359-1.08-0.54-1.6
		c-0.569-1.75-1.109-3.48-1.609-5.19c-0.2-0.67-0.4-1.34-0.59-2c-0.57-2-1.101-3.96-1.59-5.88c-0.131-0.5-0.25-1-0.37-1.5
		c-0.2-0.76-0.38-1.54-0.561-2.29c-0.149-0.62-0.29-1.25-0.43-1.87c-0.84-3.729-1.53-7.3-2.101-10.64
		c-0.18-1.04-0.34-2.05-0.489-3.05c-0.08-0.521-0.16-1.03-0.24-1.53c-0.82-5.65-1.28-10.5-1.54-14.32
		c-0.04-0.64-0.08-1.25-0.11-1.83c-0.02-0.37-0.04-0.75-0.059-1.09c-0.021-0.49-0.04-0.94-0.061-1.38
		c-0.029-0.75-0.05-1.42-0.06-2.03C2.01,78.376,2,77.756,2,77.256c0-0.33,0.01-0.66,0.01-0.99c0-0.12,0.149-0.359,0.399-0.37h0.2
		c0,0.25-0.01,0.511-0.01,0.761c0,0.489,0.01,1.109,0.02,1.84c0.011,0.6,0.03,1.27,0.061,2.02c0.02,0.44,0.04,0.9,0.06,1.38
		c0.021,0.351,0.04,0.721,0.061,1.101c0.029,0.58,0.069,1.18,0.109,1.819c0.261,3.82,0.721,8.681,1.54,14.32
		c0.08,0.5,0.16,1.01,0.24,1.53c0.15,1,0.311,2.01,0.49,3.05c0.57,3.34,1.26,6.91,2.1,10.65c0.141,0.62,0.28,1.239,0.431,1.859
		c0.18,0.761,0.359,1.53,0.56,2.301c0.12,0.5,0.24,0.989,0.37,1.489c0.49,1.931,1.02,3.891,1.59,5.88
		c0.19,0.67,0.39,1.341,0.59,2.011c0.5,1.71,1.04,3.43,1.61,5.18c0.18,0.53,0.36,1.07,0.54,1.61c0.16,0.48,0.32,0.96,0.49,1.439
		c0.239,0.7,0.489,1.391,0.729,2.09c0.51,1.41,1.03,2.83,1.59,4.271c0.27,0.72,0.55,1.43,0.84,2.149
		c0.57,1.441,1.16,2.891,1.78,4.341c0.311,0.729,0.63,1.449,0.95,2.18c0.37,0.86,0.76,1.72,1.16,2.59c0.28,0.6,0.559,1.21,0.84,1.81
		c0.35,0.74,0.7,1.471,1.06,2.211c0.36,0.739,0.721,1.479,1.101,2.22c1.149,2.29,2.359,4.58,3.64,6.88
		c0.32,0.57,0.65,1.15,0.981,1.729c0.899,1.591,1.84,3.181,2.819,4.761c0.301,0.5,0.601,0.989,0.92,1.48
		c0.69,1.12,1.41,2.24,2.141,3.351c0.46,0.699,0.96,1.39,1.41,2.1c1.06,1.66,3.71,5.29,3.71,5.29
		C39.252,185.505,39.362,185.435,39.462,185.345z"/>
	<path fill="#4E4C51" d="M2.014,76.271l4.36-0.461c0,0,2.489-18.011,9.863-32.258c0.134-0.259,0.007-1.061-0.314-1.191
		c-0.32-0.132-2.98-1.221-2.98-1.221s-0.01,0.01-0.02,0.04c-6.22,11.74-9.03,23.38-10.2,29.81
		C2.444,72.68,2.214,74.441,2.014,76.271z"/>
	<path opacity="0.5" enable-background="new    " d="M13.399,41.287c-6.17,11.691-8.96,23.25-10.12,29.65
		c-0.28,1.67-0.5,3.41-0.7,5.221l-0.61,0.06c0.2-1.83,0.431-3.591,0.71-5.28c1.17-6.43,3.98-18.07,10.2-29.811
		c0.01-0.029,0.02-0.039,0.02-0.039S13.098,41.167,13.399,41.287z"/>
	<path opacity="0.3" enable-background="new    " d="M24.066,153.893c-5.388-13.86-8.248-25.682-6.39-26.403
		c1.861-0.726,7.74,9.923,13.128,23.782c5.387,13.859,8.248,25.681,6.386,26.404C35.33,178.4,29.454,167.751,24.066,153.893z"/>
	<g>
		<path fill="#18181A" d="M31.627,151.513c-5.323-14.241-9.271-22.531-10.218-22.178l-2.111,0.807
			c-0.946,0.354,1.205,8.781,6.528,23.02c5.323,14.241,9.271,22.531,10.218,22.178l2.111-0.807
			C39.102,174.179,36.951,165.752,31.627,151.513z"/>
		<g>
			<path fill="#262729" d="M42.111,169.206l-4.659,1.742c-0.839,0.313-4.338-7.034-9.056-19.655
				c-4.718-12.62-6.625-20.089-5.786-20.403l4.658-1.741L42.111,169.206z"/>
			<g>
				<path fill="#262729" d="M39.294,115.667l20.697,55.365c0.214,0.569-0.14,1.226-0.785,1.467
					c-0.647,0.242-1.344-0.023-1.557-0.593l-20.698-55.365c-0.212-0.566,0.14-1.225,0.786-1.467
					C38.385,114.833,39.081,115.098,39.294,115.667z"/>
				<path fill="#F35F58" d="M33.947,117.196c-0.258,0.098-0.399,0.36-0.314,0.587l20.698,55.365
					c0.085,0.228,0.365,0.334,0.622,0.237l0.1-0.036c0.259-0.097,0.399-0.361,0.314-0.588L34.67,117.396
					c-0.085-0.228-0.364-0.333-0.623-0.236L33.947,117.196z"/>
				
					<rect x="16.604" y="143.424" transform="matrix(0.3502 0.9367 -0.9367 0.3502 165.4791 50.754)" fill="#161618" width="59.111" height="2.438"/>
				
					<rect x="12.512" y="144.74" transform="matrix(0.3502 0.9367 -0.9367 0.3502 164.5152 54.5422)" fill="#565459" width="60.869" height="2.205"/>
				<path fill="#565459" d="M31.259,117.733l-4.411,5.487c-0.763,0.755-1.111,2.115-0.773,3.019l17.005,45.486
					c0.339,0.905,1.492,1.703,2.563,1.772l6.93,1.249"/>
				
					<rect x="12.766" y="148.807" transform="matrix(0.3493 0.937 -0.937 0.3493 162.1703 65.256)" opacity="0.2" enable-background="new    " width="42.67" height="1.17"/>
				<path fill="#1C1F1F" d="M48.629,109.462c4.048,0.832,10.213,15.418,15.143,28.605c4.93,13.19,9.846,28.242,7.336,31.526
					c-2.509,3.283-9.15,1.699-11.405,0.665l-20.12-53.818C40.606,114.181,44.581,108.629,48.629,109.462z"/>
				<path opacity="0.2" enable-background="new    " d="M40.638,114.609c-0.473,0.704-0.832,1.345-1.055,1.832l20.119,53.817
					c0.489,0.222,1.179,0.47,1.998,0.69L40.638,114.609z"/>
			</g>
		</g>
	</g>
	<path fill="#272629" d="M4.654,74.59h1.82c0.27-1.34,0.8-3.729,1.7-6.86c0.34-1.18,0.73-2.459,1.18-3.83H7.427L4.654,74.59z"/>
	<path fill="#6E6C73" d="M5.184,72.54c0.21,0.18,0.46,0.3,0.73,0.369c0.01,0.011,0.01,0.011,0.02,0.011
		c1.51,0.409,3.21-1.07,3.811-3.29c0.59-2.23-0.16-4.359-1.67-4.76c-0.29-0.08-0.601-0.08-0.9-0.03l-0.021,0.09L5.184,72.54z"/>
	<path fill="#75747D" d="M5.184,72.54c0.21,0.18,0.46,0.3,0.73,0.369c1.18-0.31,2.29-1.58,2.739-3.279
		c0.57-2.141-0.09-4.189-1.5-4.7L5.184,72.54z"/>
	<path fill="#75747D" d="M12.944,41.14c0.83,0.46,1.91,0.98,2.98,1.221l4.43-7.33l-2.7-1.76c-1.19,1.779-2.34,3.619-3.44,5.549
		C13.774,39.59,13.344,40.361,12.944,41.14z"/>
	<g>
		<path opacity="0.2" fill="#FFFFFF" enable-background="new    " d="M32.264,142.795l5.845-6.874l-3.816-9.972
			c0.093,0.246-5.395,7.787-5.395,7.787L32.264,142.795z"/>
	</g>
	<polygon opacity="0.25" fill="#FFFFFF" enable-background="new    " points="34.293,125.95 36.374,125.121 40.051,134.813 
		38.109,135.921 	"/>
	<g>
		<path fill="#38373B" d="M121.567,187.375l-1.609-1.18c0.26-0.351,0.51-0.7,0.75-1.051c0.01-0.01,0.02-0.029,0.029-0.04
			c1.011-1.39,1.98-2.79,2.931-4.199c0.479-0.7,0.949-1.4,1.41-2.101c0.729-1.109,1.449-2.229,2.14-3.35
			c0.32-0.49,0.62-0.98,0.92-1.48c0.979-1.58,1.92-3.17,2.82-4.76c0.33-0.58,0.659-1.15,0.979-1.729
			c1.28-2.301,2.49-4.591,3.641-6.881c0.38-0.739,0.75-1.479,1.1-2.22c0.36-0.74,0.72-1.48,1.06-2.21
			c0.29-0.61,0.57-1.21,0.841-1.81c0.399-0.87,0.789-1.73,1.159-2.59c0.33-0.73,0.641-1.45,0.95-2.181
			c0.62-1.45,1.21-2.899,1.78-4.34c0.29-0.72,0.57-1.44,0.84-2.15c0.56-1.44,1.08-2.859,1.59-4.27c0.25-0.7,0.49-1.4,0.73-2.09
			c0.17-0.48,0.33-0.96,0.489-1.44c0.181-0.54,0.36-1.08,0.54-1.609c0.57-1.75,1.11-3.471,1.61-5.181c0.21-0.68,0.4-1.34,0.59-2.01
			c0.57-1.99,1.101-3.95,1.59-5.88c0.131-0.5,0.25-0.99,0.37-1.49c0.2-0.77,0.38-1.54,0.561-2.3c0.149-0.62,0.29-1.24,0.43-1.86
			c0.84-3.739,1.53-7.31,2.1-10.649c0.181-1.04,0.341-2.061,0.49-3.05c0.08-0.521,0.16-1.03,0.24-1.53
			c0.82-5.641,1.28-10.5,1.54-14.32c0.04-0.64,0.08-1.24,0.11-1.82c0.02-0.379,0.04-0.75,0.06-1.1c0.02-0.48,0.04-0.939,0.06-1.38
			c0.03-0.75,0.051-1.42,0.061-2.02c0.01-0.73,0.02-1.35,0.02-1.84c0-0.332-0.005-0.664-0.008-0.996
			c-0.001-0.117,0.195-0.348,0.447-0.342c0.329,0.008,0.751,0.018,0.954,0.018c0.358,0,0.601,0.233,0.604,0.574
			C158.545,82.665,157.996,137.664,121.567,187.375z"/>
	</g>
	<path fill="#4E4C51" d="M156.487,77.265c0,0.49-0.01,1.11-0.02,1.84c-0.01,0.601-0.03,1.27-0.061,2.02
		c-0.02,0.44-0.04,0.899-0.06,1.38c-0.02,0.35-0.04,0.721-0.06,1.1c-0.03,0.58-0.07,1.181-0.11,1.82
		c-0.26,3.82-0.72,8.68-1.54,14.32c-0.08,0.5-0.16,1.01-0.24,1.53c-0.149,1-0.31,2.01-0.49,3.05c-0.569,3.34-1.26,6.91-2.1,10.649
		c-0.14,0.62-0.28,1.24-0.43,1.86c-0.181,0.76-0.36,1.53-0.561,2.3c-0.12,0.5-0.239,0.99-0.37,1.49c-0.489,1.93-1.02,3.89-1.59,5.88
		c-0.19,0.67-0.39,1.34-0.59,2.01c-0.5,1.71-1.04,3.431-1.61,5.181c-0.18,0.529-0.359,1.069-0.54,1.609
		c-0.159,0.48-0.319,0.96-0.489,1.44c-0.24,0.7-0.49,1.39-0.73,2.09c-0.51,1.41-1.03,2.83-1.59,4.27
		c-0.27,0.721-0.55,1.431-0.84,2.15c-0.57,1.44-1.16,2.89-1.78,4.34c-0.31,0.73-0.63,1.45-0.95,2.181
		c-0.37,0.859-0.76,1.72-1.159,2.59c-0.28,0.6-0.561,1.21-0.841,1.81c-0.35,0.74-0.699,1.47-1.06,2.21
		c-0.36,0.74-0.72,1.48-1.1,2.22c-1.15,2.29-2.36,4.58-3.641,6.881c-0.32,0.569-0.649,1.149-0.979,1.729
		c-0.9,1.59-1.841,3.18-2.82,4.76c-0.3,0.5-0.6,0.99-0.92,1.48c-0.691,1.12-1.41,2.24-2.14,3.35c-0.461,0.7-0.954,1.385-1.41,2.101
		c-1.055,1.655-3.71,5.29-3.71,5.29c-4.01-2.58-0.16-9.931-0.16-9.931l17.8-46.25c14.528-29.88,14.258-49.711,14.04-53.542
		c-0.025-0.448,0.133-0.642,0.477-0.665c0.277-0.02,2.949,0.062,3.97,0.095c0.244,0.008,0.395,0.249,0.396,0.366
		C156.482,76.601,156.487,76.933,156.487,77.265z"/>
	<path opacity="0.5" enable-background="new    " d="M119.027,185.345c0.24,0.32,0.551,0.61,0.931,0.851c0,0,2.649-3.641,3.71-5.29
		c0.45-0.721,0.95-1.4,1.41-2.11c0.729-1.1,1.449-2.22,2.14-3.34c0.32-0.49,0.62-0.99,0.92-1.49c0.98-1.58,1.92-3.17,2.82-4.75
		c0.33-0.59,0.66-1.17,0.979-1.729c1.28-2.311,2.49-4.601,3.641-6.891c0.38-0.73,0.739-1.47,1.1-2.22c0.36-0.74,0.71-1.46,1.06-2.21
		c0.28-0.59,0.56-1.2,0.841-1.8c0.399-0.87,0.79-1.74,1.159-2.59c0.32-0.73,0.641-1.45,0.95-2.19c0.62-1.45,1.21-2.89,1.78-4.33
		c0.29-0.72,0.57-1.43,0.84-2.16c0.561-1.43,1.08-2.85,1.59-4.26c0.24-0.71,0.49-1.39,0.73-2.09c0.17-0.49,0.33-0.96,0.49-1.45
		c0.18-0.54,0.359-1.08,0.54-1.6c0.569-1.75,1.109-3.48,1.609-5.19c0.2-0.67,0.4-1.34,0.59-2c0.57-2,1.101-3.96,1.59-5.88
		c0.131-0.5,0.25-1,0.37-1.5c0.2-0.76,0.38-1.54,0.561-2.29c0.149-0.62,0.29-1.25,0.43-1.87c0.84-3.729,1.53-7.3,2.101-10.64
		c0.18-1.04,0.34-2.05,0.489-3.05c0.08-0.521,0.16-1.03,0.24-1.53c0.82-5.65,1.28-10.5,1.54-14.32c0.04-0.64,0.08-1.25,0.11-1.83
		c0.02-0.37,0.04-0.75,0.06-1.09c0.021-0.49,0.04-0.94,0.061-1.38c0.029-0.75,0.05-1.42,0.06-2.03c0.01-0.72,0.02-1.34,0.02-1.84
		c0-0.33-0.01-0.66-0.01-0.99c0-0.12-0.149-0.359-0.399-0.37h-0.2c0,0.25,0.01,0.511,0.01,0.761c0,0.489-0.01,1.109-0.02,1.84
		c-0.011,0.6-0.03,1.27-0.061,2.02c-0.02,0.44-0.04,0.9-0.06,1.38c-0.021,0.351-0.04,0.721-0.06,1.101
		c-0.029,0.58-0.069,1.18-0.109,1.819c-0.261,3.82-0.721,8.681-1.54,14.32c-0.08,0.5-0.16,1.01-0.24,1.53
		c-0.15,1-0.31,2.01-0.49,3.05c-0.57,3.34-1.26,6.91-2.1,10.65c-0.141,0.62-0.28,1.239-0.431,1.859
		c-0.18,0.761-0.359,1.53-0.559,2.301c-0.12,0.5-0.24,0.989-0.37,1.489c-0.49,1.931-1.02,3.891-1.59,5.88
		c-0.19,0.67-0.39,1.341-0.59,2.011c-0.5,1.71-1.04,3.43-1.61,5.18c-0.18,0.53-0.36,1.07-0.54,1.61c-0.16,0.48-0.32,0.96-0.49,1.439
		c-0.239,0.7-0.489,1.391-0.729,2.09c-0.51,1.41-1.03,2.83-1.59,4.271c-0.27,0.72-0.55,1.43-0.84,2.149
		c-0.57,1.441-1.16,2.891-1.78,4.341c-0.311,0.729-0.63,1.449-0.95,2.18c-0.37,0.86-0.76,1.72-1.16,2.59
		c-0.28,0.6-0.56,1.21-0.84,1.81c-0.35,0.74-0.7,1.471-1.06,2.211c-0.36,0.739-0.721,1.479-1.101,2.22
		c-1.149,2.29-2.359,4.58-3.64,6.88c-0.32,0.57-0.65,1.15-0.98,1.729c-0.899,1.591-1.84,3.181-2.819,4.761
		c-0.301,0.5-0.601,0.989-0.92,1.48c-0.69,1.12-1.41,2.24-2.141,3.351c-0.46,0.699-0.96,1.39-1.41,2.1
		c-1.06,1.66-3.71,5.29-3.71,5.29C119.237,185.505,119.127,185.435,119.027,185.345z"/>
	<path fill="#4E4C51" d="M156.475,76.271l-4.36-0.461c0,0-2.489-18.011-9.863-32.258c-0.134-0.259-0.007-1.061,0.314-1.191
		c0.32-0.132,2.98-1.221,2.98-1.221s0.01,0.01,0.02,0.04c6.22,11.74,9.03,23.38,10.2,29.81
		C156.045,72.68,156.275,74.441,156.475,76.271z"/>
	<path opacity="0.5" enable-background="new    " d="M145.09,41.287c6.17,11.691,8.96,23.25,10.12,29.65
		c0.28,1.67,0.5,3.41,0.7,5.221l0.61,0.06c-0.2-1.83-0.431-3.591-0.71-5.28c-1.17-6.43-3.98-18.07-10.2-29.811
		c-0.01-0.029-0.021-0.039-0.021-0.039S145.391,41.167,145.09,41.287z"/>
	<path opacity="0.3" enable-background="new    " d="M134.423,153.893c5.388-13.86,8.248-25.682,6.39-26.403
		c-1.861-0.726-7.74,9.923-13.128,23.782c-5.387,13.859-8.248,25.681-6.386,26.404C123.159,178.4,129.036,167.751,134.423,153.893z"
		/>
	<g>
		<path fill="#18181A" d="M126.862,151.513c5.323-14.241,9.271-22.531,10.218-22.178l2.111,0.807
			c0.946,0.354-1.205,8.781-6.528,23.02c-5.323,14.241-9.271,22.531-10.218,22.178l-2.111-0.807
			C119.387,174.179,121.538,165.752,126.862,151.513z"/>
		<g>
			<path fill="#262729" d="M116.378,169.206l4.659,1.742c0.839,0.313,4.338-7.034,9.056-19.655
				c4.718-12.62,6.625-20.089,5.786-20.403l-4.658-1.741L116.378,169.206z"/>
			<g>
				<path fill="#262729" d="M119.195,115.667l-20.697,55.365c-0.214,0.569,0.14,1.226,0.785,1.467
					c0.647,0.242,1.344-0.023,1.557-0.593l20.698-55.365c0.212-0.566-0.14-1.225-0.786-1.467
					C120.104,114.833,119.408,115.098,119.195,115.667z"/>
				<path fill="#F35F58" d="M124.542,117.196c0.258,0.098,0.399,0.36,0.314,0.587l-20.698,55.365
					c-0.085,0.228-0.365,0.334-0.622,0.237l-0.1-0.036c-0.259-0.097-0.399-0.361-0.314-0.588l20.697-55.365
					c0.085-0.228,0.364-0.333,0.623-0.236L124.542,117.196z"/>
				
					<rect x="82.784" y="143.433" transform="matrix(-0.3502 0.9367 -0.9367 -0.3502 287.1723 90.0826)" fill="#161618" width="59.111" height="2.438"/>
				
					<rect x="85.117" y="144.756" transform="matrix(-0.3502 0.9367 -0.9367 -0.3502 292.6395 88.7026)" fill="#565459" width="60.869" height="2.206"/>
				<path fill="#565459" d="M127.23,117.733l4.411,5.487c0.763,0.755,1.111,2.115,0.773,3.019l-17.005,45.486
					c-0.339,0.905-1.492,1.703-2.563,1.772l-6.93,1.249"/>
				
					<rect x="103.043" y="148.822" transform="matrix(-0.3493 0.937 -0.937 -0.3493 307.8192 85.0521)" opacity="0.2" enable-background="new    " width="42.67" height="1.17"/>
				<path fill="#1C1F1F" d="M109.86,109.462c-4.048,0.832-10.213,15.418-15.143,28.605c-4.93,13.19-9.846,28.242-7.336,31.526
					c2.509,3.283,9.15,1.699,11.405,0.665l20.12-53.818C117.883,114.181,113.908,108.629,109.86,109.462z"/>
				<path opacity="0.2" enable-background="new    " d="M117.851,114.609c0.473,0.704,0.832,1.345,1.055,1.832l-20.119,53.817
					c-0.489,0.222-1.179,0.47-1.998,0.69L117.851,114.609z"/>
			</g>
		</g>
	</g>
	<path fill="#38373B" d="M146.055,37.89C136.225,20.6,116.655,0,79.244,0s-56.98,20.6-66.811,37.89
		c-9.33,16.42-11.84,33.18-12.32,37.1c-0.069,0.531,0.2,0.85,0.421,0.85c0.22,0,0.54,0.01,0.949,0c0.41-0.011,0.53-0.25,0.561-0.5
		c0.1-0.83,0.31-2.34,0.68-4.35c1.17-6.43,3.98-18.069,10.2-29.81c0.01-0.03,0.02-0.04,0.02-0.04c0.4-0.779,0.83-1.55,1.27-2.32
		c1.1-1.93,2.25-3.77,3.44-5.549c0.011,0,0.011-0.011,0.011-0.011C31.625,12.51,52.314,2,79.245,2s47.62,10.51,61.58,31.26
		c0,0,0,0.011,0.011,0.011c1.19,1.779,2.34,3.619,3.44,5.549c0.44,0.77,0.87,1.541,1.271,2.32c0,0,0.01,0.01,0.02,0.04
		c6.22,11.74,9.03,23.38,10.2,29.81c0.37,2.011,0.58,3.52,0.68,4.35c0.03,0.25,0.15,0.489,0.561,0.5c0.409,0.01,0.729,0,0.949,0
		c0.221,0,0.49-0.319,0.421-0.85C157.895,71.07,155.385,54.31,146.055,37.89z"/>
	<path fill="#272629" d="M153.835,74.59h-1.82c-0.271-1.34-0.8-3.729-1.7-6.86c-0.34-1.18-0.73-2.459-1.18-3.83h1.927L153.835,74.59
		z"/>
	<path fill="#6E6C73" d="M153.305,72.54c-0.21,0.18-0.46,0.3-0.73,0.369c-0.01,0.011-0.01,0.011-0.02,0.011
		c-1.51,0.409-3.21-1.07-3.811-3.29c-0.59-2.23,0.16-4.359,1.67-4.76c0.29-0.08,0.601-0.08,0.9-0.03l0.02,0.09L153.305,72.54z"/>
	<path fill="#75747D" d="M153.305,72.54c-0.21,0.18-0.46,0.3-0.73,0.369c-1.18-0.31-2.29-1.58-2.739-3.279
		c-0.57-2.141,0.09-4.189,1.5-4.7L153.305,72.54z"/>
	<path fill="#4E4C51" d="M140.451,32.708C126.496,12.323,105.935,2,79.245,2S31.994,12.323,18.039,32.708
		c-0.125,0.183-0.385,0.562-0.385,0.562c0.566,0.4,2.005,1.396,2.354,1.605c0.574,0.344,1.143,0.311,1.717-0.174
		c4.666-3.953,27.631-22.022,57.52-22.022c29.89,0,52.855,18.069,57.521,22.022c0.573,0.485,1.143,0.518,1.717,0.174
		c0.349-0.209,1.787-1.205,2.353-1.605C140.835,33.271,140.576,32.891,140.451,32.708z"/>
	<path opacity="0.5" enable-background="new    " d="M140.455,32.701c-13.96-20.381-34.521-30.7-61.21-30.7
		s-47.25,10.319-61.21,30.7c-0.12,0.189-0.38,0.57-0.38,0.57c0.19,0.14,0.49,0.35,0.82,0.58c13.939-19.971,34.35-30.08,60.77-30.08
		s46.83,10.109,60.77,30.08c0.33-0.23,0.63-0.44,0.82-0.58C140.834,33.271,140.575,32.89,140.455,32.701z"/>
	<path fill="#75747D" d="M145.545,41.14c-0.83,0.46-1.91,0.98-2.98,1.221l-4.43-7.33l2.7-1.76c1.19,1.779,2.34,3.619,3.44,5.549
		C144.715,39.59,145.145,40.361,145.545,41.14z"/>
	<g>
		<path opacity="0.2" fill="#FFFFFF" enable-background="new    " d="M126.225,142.795l-5.845-6.874l3.816-9.972
			c-0.093,0.246,5.395,7.787,5.395,7.787L126.225,142.795z"/>
	</g>
	<polygon opacity="0.25" fill="#FFFFFF" enable-background="new    " points="124.196,125.95 122.115,125.121 118.438,134.813 
		120.38,135.921 	"/>
</g>
</svg>
