<?xml version="1.0" encoding="utf-8"?>
<!-- Generator: Adobe Illustrator 17.0.0, SVG Export Plug-In . SVG Version: 6.00 Build 0)  -->
<!DOCTYPE svg PUBLIC "-//W3C//DTD SVG 1.1//EN" "http://www.w3.org/Graphics/SVG/1.1/DTD/svg11.dtd">
<svg version="1.1" id="_x37C_" xmlns="http://www.w3.org/2000/svg" xmlns:xlink="http://www.w3.org/1999/xlink" x="0px" y="0px"
	 width="221.102px" height="278.216px" viewBox="0 0 221.102 278.216" enable-background="new 0 0 221.102 278.216"
	 xml:space="preserve">
<path fill="#FF3333" d="M37.872,147.32c-0.787,2.814-3.792,5.317-6.682,5.662c-1.3,0.155-2.481-0.001-3.49-0.872
	c-0.78-0.673-1.061-1.573-1.052-2.896c0.15-1.757,1.204-3.336,2.734-4.638c1.238-1.054,2.66-1.704,4.295-1.921
	C36.384,142.299,38.765,144.131,37.872,147.32z M88.431,153.99c-3.149-0.115-7.097,2.894-7.992,6.105
	c-0.814,2.921,0.855,5.195,3.893,5.205c3.259,0.012,6.881-2.438,8.066-5.474c0.454-1.166,0.675-2.378,0.156-3.567
	C91.8,154.536,90.34,153.958,88.431,153.99z M197.976,118.884c-1.412-0.752-2.939-0.977-4.51-0.839
	c-2.01,0.177-3.823,0.83-5.256,2.345c-1.563,1.651-1.553,3.933,0.092,5.48c1.371,1.292,3.07,1.675,4.898,1.639
	c1.896-0.003,3.173-0.353,4.723-1.303c0.997-0.61,1.767-1.433,2.183-2.532C200.804,121.828,199.956,119.936,197.976,118.884z
	 M150.862,117.442c1.147,3.206,1.71,6.491,1.183,9.9c-0.086,0.561-0.246,1.104-0.461,1.632c-0.857,2.104-2.451,3.039-4.715,2.77
	c-0.471-0.1-0.817-0.4-1.162-0.704c-0.505-0.295-2.854-2.548-3.893-3.956c-1.894-2.496-3.119-5.299-3.83-8.338
	c-0.044-1.779,0.045-3.54,0.828-5.186c1.697-3.57,5.302-4.35,8.326-1.796C148.94,113.287,150.081,115.258,150.862,117.442z
	 M144.197,117.737c-0.009-1.727-0.357-3.104-1.359-4.243c-1.076-1.224-2.371-1.103-3.24,0.274c-1.195,1.894-0.8,5.331,0.796,6.91
	c1.084,1.073,2.313,0.937,3.104-0.364C144.024,119.452,144.224,118.499,144.197,117.737z M120.964,74.296
	c0.299,0.045,0.529-0.147,0.634-0.452c0.027-0.081,0.074-0.157,0.107-0.238c1.428-3.506,4.543-4.577,7.504-4.507
	c2.689,0.063,5.264,0.717,7.782,1.633c4.04,1.47,7.921,3.318,11.899,4.938c0.232,0.095,0.449,0.279,0.802,0.179
	c-0.104-0.095-0.144-0.145-0.196-0.177c-4.112-2.509-7.658-5.635-10.562-9.498c-1.467-1.951-3.223-3.617-5.415-4.775
	c-3.956-2.09-7.595-1.33-10.336,2.198c-1.679,2.158-2.414,4.665-2.654,7.345c-0.082,0.918-0.069,1.834,0.022,2.748
	C120.578,73.952,120.674,74.253,120.964,74.296z M221.101,131.296c0,1.532,0,3.064,0,4.596c0,0.219,0,0.436,0,0.655
	c-0.04-0.001-0.079,0-0.118,0.007c-1.244,10.566-9.538,19.444-20.842,19.569l-0.001-0.001v0.001
	c1.339,6.875-0.135,13.185-3.868,19.021c-2.76,4.311-6.267,7.864-10.916,10.125c-3.654,1.777-7.52,2.654-11.618,2.237
	c-0.169-0.018-0.344-0.076-0.538,0.027c1.334,4.394,2.19,8.886,2.623,13.46c3.65,1.179,7.294,2.38,10.853,3.819
	c4.087,1.652,8.142,3.376,11.823,5.846c1.161,0.778,2.279,1.619,3.179,2.711c0.405,0.407-0.014,0.441-0.251,0.525
	c-1.257,0.438-2.537,0.815-3.772,1.307c-5.144,2.045-9.37,5.213-12.171,10.09c-0.918,1.599-1.605,3.297-2.142,5.057
	c-0.044,0.143-0.033,0.301-0.048,0.452c2.187,2.467,3.888,5.263,5.449,8.144c2.026,3.739,3.599,7.643,4.336,11.865
	c0.892,5.106-0.159,9.654-3.771,13.451c-2.888,3.036-6.543,4.306-10.691,4.26c-3.864-0.042-7.342-1.403-10.683-3.187
	c-6.2-3.311-11.435-7.765-15.69-13.362c-0.225-0.295-0.419-0.612-0.629-0.918c-0.284,0.538-0.58,1.072-0.851,1.618
	c-0.171,0.344-0.354,0.384-0.651,0.137c-3.085-2.565-6.738-3.6-10.65-3.896c-6.938-0.525-13.681,0.35-20.172,2.915
	c-1.529,0.605-2.961,1.405-4.273,2.404c-0.186,0.143-0.346,0.318-0.517,0.479c-0.606,2.143-1.678,4.061-2.882,5.908
	c-3.779,5.792-8.856,10.173-14.842,13.552c-3.467,1.958-7.127,3.363-11.103,3.854c-0.324,0.04-0.652,0.052-0.979,0.075
	c-0.017,0.039-0.02,0.078-0.01,0.118c-0.264,0-0.525,0-0.788,0c-0.699,0-1.4,0-2.102,0c-0.262,0-0.524,0-0.787,0
	c-0.633-0.314-1.34-0.24-2.008-0.374c-5.495-1.098-10.024-6.023-10.741-11.596c-0.454-3.542,0.107-6.909,1.42-10.19
	c1.987-4.96,4.819-9.381,8.455-13.292c0.128-0.302-0.051-0.551-0.151-0.807c-2.174-5.518-6.377-8.809-11.812-10.737
	c-1.546-0.548-3.142-0.906-4.752-1.201c-0.598-0.109-0.621-0.138-0.645-0.509c1.372-2.044,3.291-3.479,5.352-4.735
	c4.372-2.665,9.153-4.273,14.123-5.372c0.979-0.216,1.97-0.383,2.955-0.572c0.313-3.721,0.633-7.439,1.261-11.179
	c-0.315,0.032-0.501,0.219-0.703,0.351c-4.267,2.793-8.778,5.062-13.748,6.308c-4.645,1.163-9.355,1.602-13.974,0.082
	c-8.818-2.902-14.165-8.882-15.491-18.209c-0.578-4.063-0.086-8.059,0.874-12.016c0.03-0.127,0.044-0.258,0.066-0.386
	c-3.428,0.539-6.792,0.228-10.088-0.813c-3.848-1.214-7.166-3.29-9.938-6.229c-0.179-0.189-0.378-0.359-0.567-0.539
	c-1.846,0.525-3.716,0.478-5.586,0.2c-7.101-1.054-11.284-5.446-13.589-11.951c-0.88-2.482-1.387-5.051-1.607-7.674
	c-0.039-0.004-0.078-0.007-0.116-0.008c0-0.264,0-0.525,0-0.787c0-0.22,0-0.438,0-0.657c0-0.919,0-1.839,0-2.758
	c0-0.35,0-0.7,0-1.05c0-0.088,0-0.176,0-0.263c0.338-0.765,0.298-1.602,0.451-2.402c1.022-5.363,3.377-10.125,6.557-14.507
	c2.451-3.376,5.227-6.454,8.52-9.039c0.228-0.179,0.322-0.377,0.351-0.66c1.043-10.801,3.933-21.091,8.558-30.899
	c5.929-12.577,13.709-23.9,23.181-34.063c9.207-9.878,19.716-18.045,31.867-24.023c2.727-1.342,5.514-2.538,8.353-3.615
	c0.201-0.076,0.395-0.176,0.591-0.265c-2.037-1.466-4.1-2.899-6.075-4.451c-2.576-2.024-5.081-4.143-7.757-6.042
	c-0.395-0.279-0.716-0.64-0.969-1.057c-0.601-0.991-0.063-2.026,1.108-2.112c1.716-0.125,3.445-0.064,5.124-0.58
	c3.975-1.222,6.785-3.833,8.885-7.32c0.132-0.219,0.208-0.485,0.491-0.627c0.349,0.683,0.685,1.364,1.041,2.034
	c2.01,3.771,4.633,7.086,7.565,10.173c1.734,1.826,3.606,3.498,5.6,5.033c0.239,0.185,0.463,0.401,0.767,0.489l0.001,0.001v-0.001
	c1.958-0.477,3.957-0.615,5.962-0.648c3.413-0.058,6.784,0.3,10.092,1.182c1.809-0.18,3.612-0.247,5.416,0.1
	c0.607,0.117,1.141,0.416,1.794,0.627c-0.181-4.916-1.178-9.615-2.925-14.163c-1.737-4.524-4.154-8.671-6.983-12.627
	c0.873,0.31,1.731,0.674,2.623,0.922c2.24,0.623,4.507,0.796,6.791,0.203c0.922-0.238,1.686-0.698,2.233-1.495
	c0.385-0.562,0.905-0.992,1.428-1.419c0.307,0,0.613,0,0.92,0c0.871,0.385,1.38,1.055,1.707,1.949
	c0.894,2.435,1.337,4.971,1.808,7.503c0.547,2.939,1.219,5.858,1.549,8.836c0.412,3.723,0.584,7.451,0.361,11.192
	c-0.088,1.463-0.181,2.924-0.423,4.369c-0.073,0.438,0.215,0.565,0.491,0.739c2.676,1.688,5.15,3.621,7.292,5.96
	c0.19,0.207,0.42,0.389,0.505,0.676c1.398,0.606,2.815,1.174,4.191,1.828c4.537,2.151,8.639,4.956,12.275,8.414
	c4.65,4.421,8.564,9.399,11.135,15.329c3.891,8.977,4.854,18.268,2.674,27.82c-0.918,4.02-2.413,7.883-3.563,11.842
	c-0.944,3.248-1.926,6.498-2.13,9.901c-0.11,1.852,0.361,3.447,2.068,4.577c2.144,1.42,4.427,2.331,6.988,2.56
	c0.752,0.066,0.777,0.118,0.438,0.819c-0.726,1.491-1.47,2.974-2.222,4.45c-0.195,0.387-0.365,0.669,0.276,0.787
	c0.374,0.067,0.714,0.313,1.07,0.479c0.341-1.236,0.525-2.512,0.981-3.719c2.712-7.196,7.966-11.552,15.351-13.188
	c7.453-1.648,14.239,0.019,19.998,5.146c3.781,3.368,5.917,7.666,6.59,12.688C220.986,131.081,220.941,131.229,221.101,131.296z
	 M134.661,50.189c-7.469-0.25-14.696,1.085-21.719,3.591c-8.55,3.05-16.305,7.54-23.538,12.982
	c-0.406,0.307-0.745,0.656-1.045,1.067c-3.031,4.154-5.718,8.522-8.152,13.049c-0.701,1.306-1.503,2.583-2.014,3.965
	c-2.76,7.456-2.823,15.043-0.866,22.687c2.103,8.208,6.019,15.43,11.934,21.522c4.505,4.641,9.78,8.242,15.534,11.142
	c8.741,4.408,17.963,7.318,27.664,8.684c0.189,0.027,0.465-0.022,0.53,0.178c0.078,0.232-0.188,0.367-0.333,0.517
	c-1.236,1.285-2.244,2.725-3.096,4.293c-0.914,1.684-1.396,3.433-1.085,5.349c0.597,3.663,2.545,6.48,5.57,8.531
	c5.642,3.826,11.914,5.283,18.675,4.742c0.82-0.064,1.668-0.059,2.443-0.409c4.511-2.04,8.798-4.467,12.77-7.432
	c4.52-3.374,8.504-7.256,11.571-12.037c2.103-3.279,3.402-6.778,3.268-10.727c-1.747,1.29-3.684,2.127-5.832,2.48
	c-1.037,0.171-2.081,0.2-3.129,0.199c-0.287,1.201-0.774,2.313-1.544,3.287c-1.437,1.817-3.366,2.523-5.648,2.451
	c3.466-0.472,5.763-2.261,6.572-5.744c-1.14-0.176-2.293-0.276-3.391-0.667c-1.317-0.469-2.527-1.096-3.307-2.321
	c-0.381-0.599-0.682-1.235-0.501-2.165c0.953,2.928,3.257,3.668,5.765,4.094c0.534,0.092,1.076,0.188,1.626,0.13h0.002h-0.002
	c0.311-2.42-0.629-4.347-2.371-5.941c-1.513-1.384-3.157-2.62-4.612-4.071c-0.153-0.154-0.301-0.314-0.45-0.47
	c-0.013-0.058-0.004-0.093,0.013-0.12c-0.101-0.086-0.208-0.157-0.261-0.231c0.077,0.048,0.169,0.128,0.263,0.216
	c0.023-0.028,0.068-0.036,0.14-0.018c1.801,1.455,3.646,2.861,5.392,4.381c1.88,1.635,2.752,3.736,2.472,6.259
	c3.168,0.191,6.081-0.611,8.78-2.25c-0.112-2.556-0.935-4.902-2.105-7.146c-5.432-3.224-11.344-4.039-17.506-3.352
	c-3.625,0.404-7.224,1.023-10.838,1.525c-5.988,0.835-11.982,1.147-17.915-0.337c-7.259-1.818-12.871-5.853-16.287-12.627
	c-1.865-3.698-2.756-7.669-2.843-11.813c-0.133-6.255,1.332-12.086,4.741-17.364c2.323-3.596,5.378-6.4,9.442-7.896
	c3.749-1.38,7.653-1.729,11.623-1.295c7.064,0.771,13.013,3.895,18.248,8.578c2.479,2.219,4.78,4.618,7.238,6.855
	c1.668,1.518,3.443,2.902,5.349,4.115c0.145,0.093,0.275,0.222,0.47,0.193l-0.001,0.001h0.001c0.618-2.228,1.329-4.436,1.835-6.689
	c1.07-4.755,1.199-9.563,0.582-14.4c-0.611-4.785-1.936-9.35-4.064-13.679c-0.127-0.258-0.268-0.491-0.494-0.68
	c-4.588-3.801-9.369-7.315-14.764-9.911C148.887,52.294,141.967,50.434,134.661,50.189z M158.359,109.24
	c-1.271-3.441-3.104-6.505-6.081-8.761c-3.333-2.524-7.538-2.771-10.911-0.601c-2.445,1.573-3.777,3.949-4.549,6.674
	c-0.94,3.314-0.762,6.67-0.12,9.988c1.271,6.557,4.135,12.129,10.125,15.656c0.166-0.001,0.332-0.003,0.498-0.005
	c3.1-0.164,6.165-0.622,9.23-1.072c0.115-0.028,0.229-0.058,0.345-0.085c1.961-2.366,2.98-5.134,3.257-8.149
	C160.58,118.215,159.988,113.65,158.359,109.24z M160.292,199.232c3.281-4.272,6.007-8.866,7.994-13.88
	c0.261-0.658,0.61-1.311,0.561-2.063c-1.388-1.615-3.218-2.392-5.27-2.595c-1.533-0.152-3.02-0.39-4.388,0.984
	c-1.851,1.856-4.314,2.671-6.926,2.945c-1.07,3.374-2.393,6.649-3.965,9.819c-6.115,12.321-15.209,21.816-27.15,28.61
	c-0.523,0.298-1.039,0.614-1.558,0.921c2.935-0.394,5.834-0.973,8.714-1.649c1.945-0.456,3.908-0.84,5.805-1.485
	c0.174-0.076,0.37-0.083,0.534-0.184c0.338-0.156,0.669-0.325,0.991-0.512c3.207-1.844,6.274-3.898,9.249-6.1
	c3.292-2.438,6.364-5.127,9.317-7.955C156.413,203.972,158.424,201.665,160.292,199.232z M151.932,217.888
	c-0.866-0.265-1.759-0.315-2.656-0.324c-2.614,0.918-5.229,1.835-7.844,2.753c-0.305,0.244-0.611,0.485-0.913,0.732
	c-1.686,1.381-3.104,2.959-3.639,5.146c-0.5,2.037,0.427,3.825,2.372,4.608c1.069,0.43,2.191,0.567,3.34,0.491
	c3.031-0.202,5.726-1.311,8.146-3.099c1.763-1.304,3.266-2.845,3.973-4.995C155.53,220.7,154.454,218.658,151.932,217.888z
	 M149.796,182.842c-0.095,0.35-0.211,0.694-0.328,1.08c2.07-0.172,4.029-0.543,5.866-1.376c2.184-0.989,4.026-2.379,4.88-4.737
	c0.369-1.017,0.653-2.069,0.386-3.176c-0.131-1.12-0.664-2.05-1.371-2.896c-1.027,0.476-2.052,0.956-3.081,1.428
	c-2.42,1.108-4.923,2.003-7.424,2.905c0.144,0.307,0.287,0.614,0.431,0.921c0.05,0.144,0.098,0.287,0.147,0.43
	C149.921,179.185,150.306,180.974,149.796,182.842z M148.624,177.77c-0.131-0.516-0.263-1.031-0.394-1.548
	c-5.492,1.701-11.101,2.838-16.823,3.404c-1.914,3.237-2.965,6.716-3.007,10.496c-0.032,2.841,0.244,5.655,0.692,8.454
	c0.059,0.373-0.006,0.812,0.313,1.188c0.159-0.745,0.462-1.375,0.698-2.028c0.756-1.01,1.428-2.094,2.372-2.942
	c2.051-1.842,4.344-3.343,6.736-4.705c2.215-1.262,4.488-2.419,6.596-3.868C148.956,184.057,149.469,180.991,148.624,177.77z
	 M130.506,179.692c-0.109,0.002-0.219,0.001-0.327,0.008c-5.112,0.291-10.216,0.33-15.291-0.496
	c-0.221,0.021-0.257,0.198-0.312,0.365c-1.185,3.581-3.19,6.654-5.79,9.36c0.966,0.278,1.963,0.347,2.957,0.434
	c2.331,0.205,4.665,0.235,6.981-0.092c3.059-0.43,5.814-1.667,8.383-3.357c0.326-0.215,0.535-0.463,0.648-0.847
	c0.396-1.35,1.008-2.603,1.72-3.814C129.793,180.713,130.327,180.32,130.506,179.692z M105.522,230.882
	c-2.702,2.178-2.814,5.556-0.239,7.886c2.369,2.143,5.266,2.804,8.138,2.889c2.966-0.035,5.565-0.573,7.773-2.325
	c1.369-1.085,2.213-2.471,2.11-4.293c-0.102-1.773-1.05-3.083-2.413-4.097c-2.878-2.143-6.176-2.642-9.647-2.281
	C109.146,228.877,107.192,229.536,105.522,230.882z M170.241,182.91c0.477,0.694,0.76,1.49,1.156,2.25
	c0.425-2.996,0.441-5.941-0.058-8.882c-0.475-2.806-1.86-4.94-4.477-6.206c-0.932-0.451-1.939-0.65-2.907-0.977
	c-1.398,0.788-2.794,1.577-4.191,2.364c1.061,0.742,1.618,1.82,2.007,3.011c0.105,0.925,0.186,1.844-0.004,2.776
	c-0.172,0.848-0.523,1.626-0.866,2.466c1.499-0.349,2.939-0.339,4.376-0.093c0.99,0.17,1.872,0.659,2.787,1.044h0.001
	C168.8,181.403,169.641,182.036,170.241,182.91z M136.139,36.394c-0.188,0.89-0.355,1.789-0.776,2.61
	c0.364,0.185,0.771,0.127,1.157,0.183c2.143,0.311,4.238,0.827,6.322,1.394c0.129-0.116,0.026-0.198-0.054-0.259
	c-1.953-1.486-3.947-2.911-6.014-4.235C136.364,35.825,136.231,35.959,136.139,36.394z M127.779,20.454
	c0.683,2.853,1.021,5.745,1.141,8.668c0.009,0.23,0.038,0.434,0.235,0.578c1.25,0.922,2.126,2.182,3.057,3.391
	c0.675,1.358,1.576,2.597,2.145,4.013c0.206,0.515,0.432,1.022,0.689,1.631c0.429-2.121,0.605-4.146,0.707-6.179
	c0.043-0.719,0.11-1.436,0.125-2.154c0.052-2.577-0.049-5.147-0.223-7.721c-0.17-2.525-0.48-5.029-0.934-7.517
	c-0.4-2.207-0.797-4.414-1.229-6.614c-0.411-2.095-0.746-4.212-1.509-6.219c-0.498-1.314-0.874-1.357-1.729-0.244
	c-0.645,0.839-1.448,1.441-2.463,1.762c-1.513,0.478-3.063,0.439-4.607,0.28c-1.477-0.151-2.889-0.584-4.259-1.238
	c0.013,0.093,0.004,0.143,0.023,0.165c1.673,1.83,3.063,3.859,4.304,6.001C125.326,12.635,126.818,16.435,127.779,20.454z
	 M113.018,32.394c0.039,0.243,0.475,0.235,0.737,0.332c0.206,0.077,0.419,0.14,0.66,0.219c-0.065-0.281-0.458-0.256-0.362-0.484
	c0.103-0.248,0.372-0.141,0.583-0.081c0.697,0.193,1.364,0.453,1.995,0.815c1.938,1.104,3.489,2.608,4.691,4.481
	c0.397,0.708,0.794,1.415,1.19,2.122c0.707-0.136,1.413-0.271,2.12-0.405c3.024-0.58,6.081-0.604,9.145-0.515
	c0.189-0.016,0.38-0.032,0.647-0.055c-0.889-1.564-1.85-3.008-2.852-4.427l0,0c-0.742-1.087-1.573-2.099-2.544-2.988
	c-1.84-1.683-4.004-2.495-6.501-2.447c-1.969,0.037-3.831,0.571-5.674,1.189c-1.138,0.382-2.281,0.771-3.23,1.549
	C113.379,31.896,112.966,32.067,113.018,32.394z M100.749,36.694c1.487,0.618,2.964,1.288,4.549,1.646
	c2.646,1.066,5.414,1.703,8.177,2.365c1.171,0.28,2.385,0.377,3.521,0.807c1.353-0.446,2.703-0.894,4.056-1.341
	c-0.702-1.538-1.592-2.955-2.745-4.2c-0.333-0.347-0.67-0.689-0.997-1.039c-0.177-0.188-0.381-0.257-0.64-0.273
	c-2.097-0.134-4.068-0.742-5.961-1.625c-2.152-1.003-4.03-2.445-6.002-3.739c-4.694-3.081-8.419-7.128-11.652-11.657
	c-1.633-2.289-2.987-4.738-3.878-7.506c-0.078,0.148-0.123,0.219-0.155,0.294c-1.361,3.262-3.693,5.643-6.76,7.313
	c-2.074,1.129-4.347,1.532-6.694,1.557c-0.273,0.002-0.665-0.074-0.756,0.219c-0.086,0.277,0.274,0.457,0.474,0.65
	c0.047,0.045,0.109,0.071,0.162,0.11c1.023,0.747,2.064,1.471,3.064,2.246c3.157,2.449,6.26,4.97,9.544,7.249
	C92.038,32.533,96.276,34.834,100.749,36.694z M58.569,141.391c1.852,0.309,3.634,0.842,5.35,1.719c0-0.222,0.008-0.354-0.001-0.483
	c-0.282-4.441-0.087-8.875,0.326-13.297c0.54-5.795,1.503-11.524,2.853-17.188c3.644-15.275,9.666-29.532,18.441-42.577
	c4.492-6.679,9.527-12.918,15.622-18.233c4.545-3.966,9.529-7.239,15.15-9.49c-0.079-0.032-0.156-0.084-0.237-0.093
	c-3.28-0.337-6.511-0.94-9.679-1.857c-0.425-0.123-0.734-0.063-1.091,0.186c-3.867,2.677-7.491,5.655-10.913,8.877
	c-2.147,2.022-4.193,4.149-6.156,6.356c-2.908,3.269-5.591,6.707-8.07,10.307c-3.591,5.208-6.703,10.689-9.399,16.414
	c-2.601,5.524-4.776,11.208-6.513,17.056c-2.338,7.876-3.773,15.938-4.748,24.083c-0.421,3.507-0.645,7.035-0.793,10.564
	C58.603,136.282,58.612,138.837,58.569,141.391z M63.788,155.239c-0.875-0.552-1.875-0.66-2.863-0.814
	c-0.051,0.32,0.132,0.601,0.158,0.906c1.079,0.045,2.138,0.238,3.238,0.549C64.263,155.461,64.003,155.374,63.788,155.239z
	 M46.81,171.781c0.879-1.274,1.806-2.511,2.817-3.683c0.186-0.216,0.505-0.366,0.527-0.692c0.237-0.09,0.419-0.261,0.597-0.435
	c2.543-2.5,5.567-4.155,8.989-5.113c0.237-0.066,0.541-0.053,0.629-0.38c-0.007-1.637-0.084-3.275-0.423-4.876
	c-1.022-4.832-3.329-8.938-7.085-12.179c-5.038-4.35-10.917-6.109-17.466-5.192c-6.944,0.972-12.253,4.619-15.89,10.627
	c-0.926,1.53-1.7,3.151-2.066,4.93c-0.081,0.224-0.181,0.44-0.238,0.67c-0.726,2.907-0.866,5.844-0.4,8.805
	c0.689,4.371,2.599,8.155,5.582,11.395c2.11,2.291,4.613,4.052,7.5,5.246c3.874,1.603,7.863,2.185,12.012,1.347
	c0.17-0.47,0.354-0.934,0.508-1.407c0.983-3.021,2.228-5.922,3.968-8.593C46.591,172.164,46.687,171.959,46.81,171.781z
	 M74.703,188.28c-0.036-0.055-0.063-0.117-0.106-0.164c-1.975-2.114-3.47-4.53-4.565-7.203c-1.045-2.547-1.593-5.206-1.742-7.943
	c-0.078-1.438,0.02-2.873,0.215-4.308c0.221-1.627,0.663-3.194,1.082-4.771c-1.156-1.011-2.462-1.757-3.989-1.985
	c-2.207-0.329-4.322,0.118-6.382,0.903c-1.194,0.352-2.301,0.905-3.393,1.494c-3.285,1.774-5.692,4.448-7.748,7.496
	c-0.43,0.637-0.69,1.393-1.31,1.898c0.083,0.245,0.171,0.489,0.248,0.737c0.679,2.159,1.416,4.294,2.615,6.235
	c1.158,2.156,2.679,4.01,4.613,5.517c2.997,2.334,6.491,3.334,10.193,3.642c2.264,0.189,4.531-0.015,6.746-0.577
	C72.36,188.952,73.528,188.605,74.703,188.28z M91.098,194.413c2.622,0.143,5.207-0.248,7.717-1.058
	c4.3-1.386,7.831-3.888,10.672-7.375c0.938-1.149,1.766-2.378,2.384-3.734c0.071-0.11,0.151-0.215,0.209-0.331
	c2.224-4.5,2.853-9.245,1.952-14.154c-0.946-5.159-3.429-9.507-7.435-12.921c-5.322-4.539-11.496-6.259-18.369-5.1
	c-5.881,0.992-10.605,4.021-14.169,8.811c-1.175,1.58-2.188,3.266-2.787,5.165c-0.954,2.063-1.386,4.269-1.529,6.505
	c-0.206,3.248,0.177,6.436,1.34,9.507c1.598,4.217,4.186,7.688,7.804,10.364C82.508,192.771,86.621,194.168,91.098,194.413z
	 M75.521,224.913c0.224,1.399,0.906,2.599,1.819,3.639c1.654,1.886,3.591,3.348,6.177,3.7c0.842,0.143,1.688,0.207,2.542,0.143
	c2.594-0.196,4.142-2.142,3.777-4.71c-0.137-0.949-0.546-1.784-0.965-2.622c-0.072-0.299-0.226-0.554-0.396-0.808
	c-0.658-0.969-1.514-1.739-2.458-2.396c-0.953-0.663-1.906-1.378-3.142-1.451c-1.462,0.061-2.853,0.499-4.266,0.817
	c-0.882,0.198-1.788,0.337-2.596,0.791c-0.286,0.141-0.37,0.412-0.439,0.691C75.393,223.437,75.404,224.18,75.521,224.913z
	 M107.732,264.143c-1.733,0.408-3.434,0.688-5.146,0.792c-3.557,0.221-7.074-0.086-10.446-1.301
	c-4.881-1.759-9.211-4.393-12.696-8.305c-2.054-2.306-3.589-4.868-3.992-7.988c-0.135-0.017-0.167,0.077-0.211,0.147
	c-1.837,2.956-3.508,5.997-4.646,9.301c-1.061,3.071-1.639,6.2-0.999,9.447c0.955,4.86,3.751,8.221,8.43,9.841
	c3.082,1.067,6.276,0.862,9.44,0.229c3.643-0.728,6.961-2.256,10.145-4.119c2.954-1.728,5.651-3.796,8.172-6.101
	C106.459,265.468,107.084,264.793,107.732,264.143z M158.452,257.34c0.079,0.21,0.305,0.358,0.5,0.518
	c2.069,1.68,4.194,3.286,6.49,4.646c2.748,1.628,5.573,3.115,8.675,3.962c3.917,1.069,7.772,1.037,11.39-1.053
	c4.203-2.429,6.288-6.213,6.541-10.971c0.145-2.737-0.48-5.417-1.299-8.03c-1.056-3.367-2.506-6.561-4.211-9.618
	C180.9,248.81,172.199,256.5,158.452,257.34z M176.823,227.661c-0.114,0.345-0.336,0.517-0.716,0.532
	c-2.452,0.097-4.858,0.539-7.261,0.995c-3.789,0.718-7.486,1.772-11.081,3.161c-5.675,2.191-10.3,5.672-13.352,11.045
	c-0.164,0.169-0.059,0.524-0.398,0.568c-3.031-1.075-6.161-1.585-9.368-1.729c-3.523-0.157-6.971,0.41-10.414,1.012
	c-3.268,0.57-6.418,1.493-9.244,3.316c-1.067,0.689-2.061,1.474-3.029,2.293c-0.184,0.155-0.37,0.461-0.654,0.027
	c-1.026-1.567-2.522-2.591-4.158-3.411c-4.163-2.089-8.608-3.262-13.202-3.851c-2.719-0.349-5.459-0.309-8.145,0.353
	c-0.545,0.135-0.754-0.015-0.968-0.474c-1.007-2.164-2.195-4.221-3.691-6.09c-0.544-0.767-1.178-1.457-1.815-2.145
	c-3.709-3.991-8.328-6.108-13.71-6.649c-0.329-0.033-0.638-0.047-0.94,0.158c-1.233,0.833-2.432,1.705-3.514,2.73
	c1.156-0.002,2.304,0.066,3.447,0.253c4.017,0.654,7.491,2.404,10.453,5.173c1.319,1.232,2.275,2.75,3.162,4.309
	c1.632,3.276,2.164,6.754,1.823,10.455c2.944-1.125,5.906-1.701,8.94-1.991c3.566-0.342,7.12-0.303,10.619,0.48
	c4.176,0.934,7.851,2.789,10.579,6.223c0.609,0.77,1.089,1.616,1.566,2.553c0.444-0.94,0.985-1.698,1.623-2.389
	c2.436-2.639,5.544-4.167,8.898-5.2c5.979-1.842,12.081-2.529,18.31-1.614c2.863,0.421,5.569,1.281,7.939,3.021
	c0.695,0.512,1.314,1.105,1.876,1.833c1.27-4.791,3.624-8.855,6.977-12.335c3.979-4.13,8.773-6.727,14.489-7.531
	c3.343-0.471,6.627-0.401,9.741,1.112c0.388,0.188,0.446,0.068,0.438-0.3c-0.026-0.96,0.065-1.917,0.229-2.862
	c1.6-9.244,8.896-15.172,16.524-16.844c0.822-0.18,1.691-0.101,2.474-0.472c-1.867-1.342-3.835-2.511-5.896-3.527
	c-0.372-0.183-0.665-0.19-1.031,0.025c-1.186,0.697-2.403,1.339-3.589,2.037c-2.777,1.633-5.358,3.547-7.785,5.661
	C179.859,220.283,177.876,223.692,176.823,227.661z M167.263,213.595c-0.601,0.98-0.951,2.059-0.938,3.081
	c0.013,0.521,0.009,0.888,0.104,1.255c0.487,1.842,2.114,2.943,4.307,2.903c3.989-0.074,8.397-3.488,9.469-7.335
	c0.899-3.229-1.181-5.755-4.515-5.427C171.93,208.441,169.198,210.435,167.263,213.595z M181.035,152.687
	c-0.041,0.048-0.094,0.089-0.126,0.143c-2.059,3.467-4.659,6.485-7.605,9.222c-2.101,1.95-4.388,3.667-6.708,5.341
	c-0.672,0.439-1.345,0.875-2.017,1.313c0.544,0.013,1.082,0.037,1.624,0.137c2.815,0.517,4.642,2.227,5.816,4.747
	c0.819,1.756,0.855,3.654,1.028,5.529c0.017,0.186-0.104,0.45,0.102,0.538c0.217,0.094,0.388-0.149,0.555-0.268
	c2.098-1.476,3.943-3.207,5.462-5.293c2.541-3.49,3.75-7.42,3.983-11.689C183.28,158.985,182.694,155.72,181.035,152.687z
	 M197.06,150.583c-0.312-0.303-0.349-0.743-0.548-1.103c-1.203-2.185-2.635-4.181-4.499-5.872c-2.216-2.011-4.791-3.108-7.749-3.379
	c-0.35-0.031-0.485,0.115-0.448,0.451c0.042,0.41,0.105,0.818,0.125,1.23c0.063,1.309-0.033,2.612-0.267,3.9
	c-0.354,1.958-0.936,3.845-1.951,5.576c0.264-0.017,0.299,0.218,0.395,0.374c0.672,1.103,1.161,2.288,1.553,3.515
	c0.688,2.156,0.898,4.383,0.942,6.632c2.319-0.889,4.435-2.143,6.45-3.578C193.84,156.351,195.87,153.791,197.06,150.583z
	 M219.533,131.005c-0.672-5.087-3.026-9.28-7.006-12.477c-4.502-3.618-9.714-5.04-15.448-4.435c-5.2,0.547-9.63,2.696-13.135,6.621
	c-2.627,2.942-4.127,6.392-4.504,10.323c2.306,2.365,3.506,5.284,4.218,8.443c0.061,0.273,0.054,0.502,0.459,0.438
	c1.208-0.19,2.391,0,3.566,0.29c1.773,0.439,3.298,1.362,4.764,2.406c0.236,0.225,0.463,0.46,0.711,0.672
	c1.884,1.609,3.326,3.559,4.449,5.756c0.087,0.148,0.178,0.294,0.257,0.446c0.866,1.65,1.433,3.415,1.98,5.186
	c11.402,0.205,19.653-9.756,19.818-19.963C219.893,133.468,219.695,132.231,219.533,131.005z"/>
</svg>
