<?xml version="1.0" encoding="iso-8859-1"?>
<!-- Generator: Adobe Illustrator 15.1.0, SVG Export Plug-In . SVG Version: 6.00 Build 0)  -->
<!DOCTYPE svg PUBLIC "-//W3C//DTD SVG 1.1//EN" "http://www.w3.org/Graphics/SVG/1.1/DTD/svg11.dtd">
<svg version="1.1" id="Layer_1" xmlns="http://www.w3.org/2000/svg" xmlns:xlink="http://www.w3.org/1999/xlink" x="0px" y="0px"
	 width="128px" height="128px" viewBox="0 0 128 128" style="enable-background:new 0 0 128 128;" xml:space="preserve">
<g>
	<circle style="fill:#4AB8A1;" cx="64" cy="64" r="64"/>
	<g>
		<g>
			<defs>
				<circle id="SVGID_1_" cx="64" cy="64" r="64"/>
			</defs>
			<clipPath id="SVGID_2_">
				<use xlink:href="#SVGID_1_"  style="overflow:visible;"/>
			</clipPath>
			<g style="clip-path:url(#SVGID_2_);">
				<path style="fill:#F2D6CE;" d="M72,90h-8h-8c-2,3-6,12-6,14c4,0,10.283,5,14,5s10-5,14-5C78,102,74,93,72,90z"/>
				<path style="fill:#E6CBC3;" d="M72,90h-3c2,3,6,12,6,14c-3.502,0-8.752,3.831-12.5,4.786C63.033,108.922,63.537,109,64,109
					c3.717,0,10-5,14-5C78,102,74,93,72,90z"/>
				<path style="fill:#91D2F2;" d="M97,113.5c0-4.988-9.736-9.209-23.154-10.621c-1.307-0.138-4.164,0.65-5.908,1.825
					c-1.994,1.679-2.969,3.047-3.938,4.297c-0.625-0.844-1.469-1.75-3.266-3.883c-1.635-1.209-4.528-2.438-5.787-2.318
					c-13.823,1.327-23.945,5.615-23.945,10.701v15.584H97V113.5z"/>
				<g>
					<path style="fill:#8AC7E6;" d="M56.656,105.719c2.219,2.094,4.531,5.094,5.156,5.938c0.451-0.584,1.565-2.001,2.125-2.656
						c-0.459-0.534-2.488-3.034-3.203-3.883c-1.635-1.209-4.528-2.438-5.787-2.318c-0.563,0.054-1.118,0.115-1.668,0.179
						C54.688,103.35,55.465,104.837,56.656,105.719z"/>
					<path style="fill:#8AC7E6;" d="M73.846,102.878c-0.425-0.045-1.021,0.017-1.684,0.149C84.895,104.57,94,108.676,94,113.5
						v15.584h3V113.5C97,108.511,87.264,104.29,73.846,102.878z"/>
				</g>
				<path style="fill:#FFE1D9;" d="M97,63c0,18.227-14.773,33-33,33S31,81.227,31,63c0-18.226,14.773-28,33-28S97,44.774,97,63z"/>
				<g>
					<path style="fill:#FFE1D9;" d="M34.018,66.75c0,2.623-0.121,5.684-1.738,5.684c-1.616,0-4.117-3.061-4.117-5.684
						S29.473,62,31.09,62S34.018,64.127,34.018,66.75z"/>
					<path style="fill:#FFE1D9;" d="M93.982,66.75c0,2.623,0.121,5.684,1.738,5.684c1.616,0,4.117-3.061,4.117-5.684
						S98.527,62,96.91,62S93.982,64.127,93.982,66.75z"/>
				</g>
				<path style="fill:#F2D6CE;" d="M64,35c-0.503,0-1.002,0.01-1.5,0.025C80.029,35.549,94,45.277,94,63
					c0,17.723-13.971,32.177-31.5,32.962C62.998,95.984,63.497,96,64,96c18.227,0,33-14.773,33-33C97,44.774,82.227,35,64,35z"/>
				<path style="fill:#E78244;" d="M85.369,40.756c-3.57-4.336-11.098-7.631-20.619-7.631c-13.125,0-27.5-1.75-30.25-8.875
					c-1.482,4.542,0.883,14.236,3.43,20.423C33.59,49.242,31,55.379,31,63c0,1.924,0.174,3.807,0.49,5.641
					c0.962-4.896,3.599-9.907,10.018-14.132C47.402,56.673,55.307,58,64,58s16.598-1.327,22.492-3.491
					c6.419,4.225,9.056,9.235,10.018,14.132C96.826,66.807,97,64.924,97,63C97,52.928,92.482,45.442,85.369,40.756z"/>
				<g>
					<path style="fill:#D97A40;" d="M38.508,54.509c-3.518,2.315-5.895,4.867-7.486,7.506c-0.01,0.327-0.021,0.653-0.021,0.985
						c0,1.924,0.174,3.807,0.49,5.641c0.911-4.638,3.329-9.376,9.038-13.456C39.835,54.969,39.154,54.746,38.508,54.509z"/>
					<path style="fill:#D97A40;" d="M83.492,54.509c-5.553,2.039-12.895,3.319-20.992,3.463C63.001,57.981,63.494,58,64,58
						c7.74,0,14.846-1.056,20.473-2.814C84.154,54.958,83.831,54.732,83.492,54.509z"/>
					<path style="fill:#D97A40;" d="M85.369,40.756c-3.57-4.336-11.098-7.631-20.619-7.631c-13.125,0-27.5-1.75-30.25-8.875
						c-0.302,0.924-0.438,2.069-0.451,3.347c5.346,4.35,16.941,5.528,27.701,5.528c9.521,0,17.049,3.295,20.619,7.631
						c6.875,4.529,11.313,11.681,11.604,21.248c1.317,2.18,2.103,4.42,2.537,6.637C96.826,66.807,97,64.924,97,63
						C97,52.928,92.482,45.442,85.369,40.756z"/>
				</g>
				<g>
					<path style="fill:#E6BAAD;" d="M76.948,82.65c0.567,0.865-4.886,5.746-12.948,5.746s-13.516-4.881-12.945-5.746
						c0.568-0.866,6.069,1.996,12.945,1.996S76.38,81.785,76.948,82.65z"/>
				</g>
				<g>
					<path style="fill:#F5F5F5;" d="M64,109l-2.875-2.938c0,0-3.188,1.125-4.438,3.438c-2.813-0.188-7.813-3.5-9.438-5.5
						c1.375-1.813,2.722-2.783,3.642-3.268C52.374,100.938,61.313,104,61.313,104L64,109z"/>
					<path style="fill:#F5F5F5;" d="M64,109l2.875-2.938c0,0,3.188,1.125,4.438,3.438c2.813-0.188,7.813-3.5,9.438-5.5
						c-1.375-1.813-2.722-2.783-3.642-3.268C75.626,100.938,66.688,104,66.688,104L64,109z"/>
				</g>
			</g>
		</g>
	</g>
	<g>
		<g>
			<circle style="fill:#F5F5F5;" cx="52.5" cy="68" r="4"/>
			<circle style="fill:#734822;" cx="52.5" cy="68" r="2"/>
		</g>
		<g>
			<circle style="fill:#F5F5F5;" cx="75.5" cy="68" r="4"/>
			<circle style="fill:#734822;" cx="75.5" cy="68" r="2"/>
		</g>
	</g>
</g>
</svg>
