<?xml version="1.0" encoding="utf-8"?>
<!-- Generator: Adobe Illustrator 17.0.0, SVG Export Plug-In . SVG Version: 6.00 Build 0)  -->
<!DOCTYPE svg PUBLIC "-//W3C//DTD SVG 1.1//EN" "http://www.w3.org/Graphics/SVG/1.1/DTD/svg11.dtd">
<svg version="1.1" id="Layer_1" xmlns="http://www.w3.org/2000/svg" xmlns:xlink="http://www.w3.org/1999/xlink" x="0px" y="0px"
	 width="126.217px" height="83.525px" viewBox="0 0 126.217 83.525" enable-background="new 0 0 126.217 83.525"
	 xml:space="preserve">
<g>
	<path fill="#FF5F5F" d="M3.619,36.417c0.138,0,0.244,0.038,0.325,0.109c0.079,0.071,0.133,0.173,0.164,0.303l1.084,4.443
		c0.021,0.078,0.051,0.115,0.091,0.115c0.045,0,0.075-0.037,0.092-0.115l1.085-4.443c0.029-0.13,0.083-0.231,0.165-0.303
		c0.079-0.071,0.187-0.109,0.323-0.109h3.162c0.305,0,0.458,0.152,0.458,0.458v9.774c0,0.145-0.039,0.26-0.114,0.339
		c-0.076,0.079-0.191,0.119-0.344,0.119H8.399c-0.146,0-0.259-0.04-0.339-0.119c-0.079-0.079-0.119-0.194-0.119-0.339v-6.018
		c-0.003-0.035-0.014-0.061-0.036-0.076c-0.022-0.013-0.048-0.016-0.076-0.008c-0.025,0.011-0.043,0.033-0.056,0.069l-1.48,6.093
		c-0.031,0.13-0.088,0.23-0.172,0.295c-0.084,0.07-0.196,0.103-0.333,0.103H4.78c-0.139,0-0.247-0.032-0.331-0.103
		C4.365,46.94,4.307,46.84,4.275,46.71l-1.482-6.093c-0.01-0.036-0.03-0.059-0.056-0.069c-0.027-0.008-0.051-0.005-0.073,0.008
		c-0.022,0.016-0.035,0.041-0.038,0.076v6.018c0,0.145-0.038,0.26-0.114,0.339c-0.077,0.079-0.191,0.119-0.344,0.119h-1.71
		c-0.152,0-0.268-0.04-0.344-0.119C0.038,46.909,0,46.794,0,46.649v-9.774c0-0.306,0.152-0.458,0.458-0.458H3.619L3.619,36.417z
		 M18.968,36.417c0.306,0,0.458,0.152,0.458,0.458v1.711c0,0.145-0.038,0.26-0.114,0.338c-0.076,0.079-0.191,0.12-0.344,0.12h-3.696
		c-0.146,0-0.26,0.037-0.338,0.114c-0.079,0.076-0.12,0.19-0.12,0.344v0.488c0,0.145,0.041,0.258,0.12,0.339
		c0.078,0.079,0.192,0.117,0.338,0.119h2.366c0.307,0,0.459,0.153,0.459,0.458v1.711c0,0.144-0.038,0.26-0.114,0.338
		c-0.077,0.081-0.19,0.12-0.345,0.12h-2.366c-0.146,0-0.26,0.038-0.338,0.115c-0.079,0.076-0.12,0.191-0.12,0.343v0.49
		c0,0.143,0.041,0.259,0.12,0.338c0.078,0.078,0.192,0.119,0.338,0.119h3.696c0.306,0,0.458,0.152,0.458,0.458v1.711
		c0,0.306-0.152,0.458-0.458,0.458h-6.414c-0.145,0-0.26-0.04-0.34-0.119c-0.078-0.079-0.119-0.194-0.119-0.339v-9.774
		c0-0.152,0.041-0.267,0.119-0.343c0.08-0.077,0.194-0.115,0.34-0.115H18.968L18.968,36.417z M27.03,43.275
		c-0.015-0.039-0.017-0.078-0.01-0.112c0.008-0.034,0.026-0.064,0.057-0.088c0.402-0.29,0.698-0.684,0.884-1.182
		c0.188-0.497,0.279-1.102,0.276-1.812c0.003-0.835-0.124-1.521-0.386-2.064c-0.261-0.542-0.67-0.944-1.233-1.206
		c-0.563-0.265-1.297-0.397-2.199-0.395h-3.345c-0.14,0.003-0.252,0.045-0.339,0.133c-0.086,0.087-0.132,0.2-0.135,0.341v9.744
		c0.003,0.14,0.049,0.251,0.135,0.338c0.087,0.087,0.199,0.133,0.339,0.135h1.71c0.141-0.002,0.253-0.048,0.338-0.135
		c0.087-0.087,0.133-0.198,0.135-0.338V44.22c0.004-0.139,0.047-0.253,0.133-0.34c0.087-0.087,0.202-0.13,0.343-0.132h0.609
		c0.023,0,0.046,0.007,0.066,0.02c0.022,0.017,0.041,0.033,0.056,0.056l1.589,3.07c0.033,0.069,0.078,0.123,0.143,0.157
		c0.061,0.039,0.133,0.057,0.209,0.057h1.741c0.16-0.002,0.287-0.046,0.389-0.125c0.099-0.081,0.16-0.186,0.183-0.31
		c0.025-0.126,0-0.255-0.067-0.39L27.03,43.275L27.03,43.275z M24.512,39.044c0.183-0.002,0.344,0.007,0.482,0.028
		c0.136,0.022,0.252,0.065,0.344,0.135c0.09,0.068,0.159,0.173,0.205,0.312c0.046,0.141,0.068,0.329,0.068,0.562
		c0,0.234-0.023,0.423-0.068,0.562c-0.046,0.141-0.115,0.245-0.205,0.312c-0.092,0.068-0.208,0.114-0.344,0.136
		c-0.138,0.022-0.299,0.031-0.482,0.029h-0.778c-0.141-0.003-0.256-0.049-0.343-0.135c-0.086-0.088-0.129-0.199-0.133-0.338v-1.131
		c0.004-0.141,0.047-0.254,0.133-0.342c0.087-0.086,0.202-0.129,0.343-0.132h0.778V39.044z M36.087,43.275
		c-0.016-0.039-0.018-0.078-0.01-0.112c0.008-0.034,0.025-0.064,0.056-0.088c0.402-0.29,0.697-0.684,0.883-1.182
		c0.189-0.497,0.28-1.102,0.278-1.812c0.002-0.835-0.126-1.521-0.388-2.064c-0.259-0.542-0.669-0.944-1.231-1.206
		c-0.563-0.265-1.295-0.397-2.199-0.395h-3.345c-0.14,0.003-0.252,0.045-0.338,0.133c-0.088,0.087-0.133,0.2-0.135,0.341v9.744
		c0.002,0.14,0.047,0.251,0.135,0.338c0.086,0.087,0.198,0.133,0.338,0.135h1.711c0.14-0.002,0.251-0.048,0.339-0.135
		c0.086-0.087,0.132-0.198,0.135-0.338V44.22c0.002-0.139,0.046-0.253,0.132-0.34c0.087-0.087,0.2-0.13,0.341-0.132H33.4
		c0.023,0,0.046,0.007,0.066,0.02c0.022,0.017,0.04,0.033,0.057,0.056l1.587,3.07c0.034,0.069,0.079,0.123,0.143,0.157
		c0.062,0.039,0.133,0.057,0.209,0.057h1.741c0.159-0.002,0.287-0.046,0.39-0.125c0.099-0.081,0.16-0.186,0.183-0.31
		c0.026-0.126,0-0.255-0.068-0.39L36.087,43.275L36.087,43.275z M33.567,39.044c0.184-0.002,0.344,0.007,0.48,0.028
		c0.139,0.022,0.253,0.065,0.344,0.135c0.093,0.068,0.16,0.173,0.206,0.312c0.047,0.141,0.069,0.329,0.069,0.562
		c0,0.234-0.022,0.423-0.069,0.562c-0.046,0.141-0.113,0.245-0.206,0.312c-0.091,0.068-0.205,0.114-0.344,0.136
		c-0.137,0.022-0.297,0.031-0.48,0.029h-0.779c-0.141-0.003-0.254-0.049-0.341-0.135c-0.086-0.088-0.13-0.199-0.132-0.338v-1.131
		c0.002-0.141,0.046-0.254,0.132-0.342c0.087-0.086,0.2-0.129,0.341-0.132h0.779V39.044z M40.027,36.417
		c0.13,0,0.236,0.028,0.323,0.084c0.084,0.057,0.15,0.144,0.195,0.268l1.131,2.841c0.033,0.068,0.068,0.102,0.106,0.102
		c0.041,0,0.076-0.033,0.107-0.102l1.13-2.841c0.047-0.123,0.111-0.211,0.196-0.268c0.086-0.056,0.193-0.084,0.323-0.084h2.184
		c0.179,0.003,0.301,0.051,0.364,0.148c0.064,0.095,0.062,0.225-0.013,0.388l-2.733,6.108c-0.017,0.03-0.024,0.061-0.025,0.091
		c-0.006,0.031-0.006,0.062-0.006,0.093v3.405c0,0.145-0.039,0.26-0.114,0.339c-0.076,0.079-0.191,0.119-0.344,0.119h-2.139
		c-0.145,0-0.259-0.04-0.339-0.119c-0.078-0.079-0.119-0.194-0.119-0.339v-3.405c0-0.031,0-0.062-0.002-0.093
		c-0.006-0.03-0.014-0.061-0.028-0.091l-2.748-6.108c-0.073-0.163-0.079-0.293-0.014-0.388c0.063-0.097,0.185-0.145,0.364-0.148
		L40.027,36.417L40.027,36.417z M48.958,43.672c-0.003,0.17,0.007,0.379,0.032,0.625c0.023,0.245,0.077,0.506,0.158,0.784
		c0.079,0.277,0.204,0.552,0.369,0.821c0.166,0.273,0.39,0.521,0.672,0.742c0.28,0.222,0.635,0.399,1.062,0.531
		c0.426,0.136,0.939,0.203,1.54,0.207c0.539-0.004,1.011-0.059,1.407-0.169c0.4-0.108,0.735-0.254,1.017-0.439
		c0.276-0.186,0.504-0.397,0.681-0.63c0.18-0.23,0.318-0.474,0.419-0.725c0.101-0.249,0.173-0.494,0.216-0.73
		c0.043-0.239,0.071-0.455,0.079-0.651c0.005-0.115-0.021-0.212-0.082-0.29c-0.06-0.076-0.144-0.127-0.255-0.152l-1.726-0.383
		c-0.155-0.036-0.288-0.011-0.395,0.071c-0.109,0.084-0.175,0.209-0.2,0.372c-0.029,0.234-0.079,0.433-0.155,0.599
		c-0.076,0.162-0.194,0.287-0.352,0.371c-0.16,0.086-0.377,0.13-0.654,0.13c-0.28,0-0.501-0.044-0.664-0.13
		c-0.166-0.087-0.285-0.212-0.364-0.377c-0.076-0.163-0.128-0.361-0.147-0.597c-0.023-0.233-0.033-0.495-0.031-0.79v-2.199
		c-0.002-0.296,0.008-0.561,0.031-0.792c0.02-0.233,0.071-0.433,0.147-0.596c0.079-0.166,0.198-0.29,0.364-0.377
		c0.163-0.087,0.384-0.129,0.664-0.129c0.271,0,0.491,0.042,0.654,0.127c0.163,0.084,0.284,0.206,0.366,0.367
		c0.079,0.158,0.133,0.351,0.155,0.574c0.024,0.163,0.092,0.29,0.201,0.38c0.109,0.089,0.248,0.121,0.41,0.094l1.694-0.381
		c0.11-0.026,0.194-0.075,0.255-0.151s0.087-0.167,0.082-0.277c-0.008-0.198-0.036-0.417-0.079-0.656s-0.115-0.486-0.216-0.738
		c-0.101-0.25-0.239-0.494-0.419-0.726c-0.177-0.233-0.404-0.443-0.681-0.632c-0.281-0.185-0.616-0.333-1.017-0.439
		c-0.396-0.11-0.868-0.166-1.407-0.169c-0.601,0.003-1.114,0.072-1.54,0.204c-0.427,0.136-0.781,0.313-1.062,0.535
		c-0.282,0.221-0.506,0.468-0.672,0.738c-0.165,0.271-0.29,0.547-0.369,0.823c-0.081,0.278-0.135,0.54-0.158,0.785
		c-0.025,0.247-0.035,0.456-0.032,0.625v3.82H48.958z M59.831,36.417c0.146,0,0.259,0.041,0.338,0.119
		c0.08,0.08,0.121,0.193,0.121,0.339v3.818c0,0.146,0.04,0.259,0.12,0.338c0.078,0.079,0.192,0.12,0.338,0.12h1.466
		c0.152,0,0.268-0.041,0.343-0.12c0.076-0.079,0.115-0.192,0.115-0.338v-3.818c0-0.146,0.041-0.259,0.119-0.339
		c0.08-0.078,0.193-0.119,0.339-0.119h1.711c0.305,0,0.458,0.152,0.458,0.458v9.774c0,0.145-0.039,0.26-0.115,0.339
		c-0.076,0.079-0.19,0.119-0.343,0.119H63.13c-0.146,0-0.259-0.04-0.339-0.119c-0.078-0.079-0.119-0.194-0.119-0.339v-2.413
		c0-0.306-0.152-0.458-0.458-0.458h-1.466c-0.146,0-0.26,0.037-0.338,0.113c-0.08,0.078-0.12,0.192-0.12,0.345v2.413
		c0,0.145-0.039,0.26-0.115,0.339c-0.076,0.079-0.191,0.119-0.344,0.119h-1.71c-0.146,0-0.26-0.04-0.338-0.119
		c-0.08-0.079-0.12-0.194-0.12-0.339v-9.774c0-0.306,0.151-0.458,0.458-0.458H59.831L59.831,36.417z M73.255,43.275
		c-0.015-0.039-0.018-0.078-0.01-0.112c0.007-0.034,0.026-0.064,0.057-0.088c0.402-0.29,0.696-0.684,0.883-1.182
		c0.188-0.497,0.279-1.102,0.277-1.812c0.002-0.835-0.125-1.521-0.387-2.064c-0.26-0.542-0.669-0.944-1.231-1.206
		c-0.564-0.265-1.297-0.397-2.2-0.395H67.3c-0.142,0.003-0.253,0.045-0.339,0.133c-0.086,0.087-0.132,0.2-0.135,0.341v9.744
		c0.003,0.14,0.049,0.251,0.135,0.338s0.197,0.133,0.339,0.135h1.709c0.141-0.002,0.254-0.048,0.339-0.135
		c0.087-0.087,0.133-0.198,0.136-0.338V44.22c0.002-0.139,0.046-0.253,0.131-0.34c0.088-0.087,0.202-0.13,0.343-0.132h0.61
		c0.023,0,0.046,0.007,0.065,0.02c0.023,0.017,0.042,0.033,0.057,0.056l1.588,3.07c0.034,0.069,0.08,0.123,0.143,0.157
		c0.061,0.039,0.133,0.057,0.209,0.057h1.741c0.16-0.002,0.287-0.046,0.39-0.125c0.099-0.081,0.159-0.186,0.183-0.31
		c0.025-0.126,0-0.255-0.068-0.39L73.255,43.275L73.255,43.275z M70.734,39.044c0.185-0.002,0.345,0.007,0.482,0.028
		c0.137,0.022,0.252,0.065,0.343,0.135c0.092,0.068,0.161,0.173,0.207,0.312c0.045,0.141,0.068,0.329,0.068,0.562
		c0,0.234-0.023,0.423-0.068,0.562c-0.046,0.141-0.115,0.245-0.207,0.312c-0.091,0.068-0.206,0.114-0.343,0.136
		c-0.138,0.022-0.298,0.031-0.482,0.029h-0.777c-0.141-0.003-0.255-0.049-0.343-0.135c-0.085-0.088-0.129-0.199-0.131-0.338v-1.131
		c0.002-0.141,0.046-0.254,0.131-0.342c0.088-0.086,0.202-0.129,0.343-0.132h0.777V39.044z M78.02,36.417
		c0.306,0,0.458,0.152,0.458,0.458v9.774c0,0.145-0.038,0.26-0.114,0.339c-0.077,0.079-0.191,0.119-0.344,0.119h-1.68
		c-0.145,0-0.26-0.04-0.338-0.119c-0.079-0.079-0.12-0.194-0.12-0.339v-9.774c0-0.152,0.041-0.267,0.12-0.343
		c0.078-0.077,0.193-0.115,0.338-0.115H78.02L78.02,36.417z M87.076,39.823c0.137-0.031,0.239-0.09,0.308-0.174
		c0.067-0.084,0.097-0.193,0.09-0.331c-0.016-0.224-0.064-0.473-0.146-0.75c-0.081-0.275-0.212-0.553-0.387-0.832
		c-0.176-0.28-0.41-0.537-0.708-0.772c-0.298-0.236-0.672-0.428-1.119-0.569c-0.447-0.143-0.985-0.22-1.612-0.222
		c-0.567,0.002-1.053,0.07-1.461,0.201c-0.406,0.132-0.745,0.303-1.016,0.517c-0.271,0.211-0.488,0.443-0.651,0.689
		c-0.163,0.25-0.285,0.491-0.363,0.73c-0.082,0.236-0.135,0.447-0.157,0.629c-0.026,0.184-0.037,0.312-0.031,0.394
		c0.003,0.439,0.068,0.82,0.197,1.148c0.131,0.331,0.304,0.615,0.525,0.857s0.471,0.45,0.749,0.626
		c0.274,0.175,0.564,0.328,0.862,0.458c0.3,0.13,0.593,0.249,0.881,0.356c0.285,0.106,0.546,0.211,0.785,0.313
		c0.239,0.104,0.436,0.216,0.594,0.339c0.155,0.121,0.256,0.262,0.293,0.422c0.027,0.14-0.008,0.275-0.104,0.405
		c-0.1,0.13-0.245,0.236-0.437,0.32c-0.192,0.084-0.415,0.127-0.667,0.13c-0.241,0-0.458-0.046-0.653-0.138
		c-0.193-0.092-0.352-0.225-0.474-0.398c-0.123-0.173-0.192-0.382-0.217-0.626c-0.015-0.16-0.065-0.273-0.149-0.341
		c-0.085-0.068-0.201-0.087-0.355-0.057l-1.726,0.382c-0.138,0.031-0.238,0.088-0.308,0.171c-0.065,0.087-0.097,0.195-0.089,0.334
		c0.012,0.241,0.058,0.509,0.136,0.802c0.075,0.29,0.2,0.583,0.371,0.873c0.172,0.293,0.406,0.562,0.701,0.806
		c0.298,0.244,0.673,0.441,1.126,0.589c0.452,0.148,0.997,0.225,1.636,0.229c0.602-0.005,1.122-0.072,1.563-0.205
		c0.439-0.13,0.813-0.301,1.12-0.513c0.303-0.214,0.552-0.443,0.743-0.693c0.193-0.246,0.341-0.49,0.443-0.727
		c0.104-0.236,0.175-0.448,0.213-0.629c0.041-0.184,0.059-0.312,0.056-0.395c-0.002-0.437-0.071-0.824-0.208-1.161
		c-0.135-0.335-0.318-0.63-0.55-0.883c-0.23-0.254-0.491-0.476-0.779-0.664c-0.29-0.188-0.591-0.356-0.9-0.498
		c-0.313-0.144-0.616-0.275-0.914-0.391c-0.295-0.116-0.565-0.229-0.81-0.338c-0.244-0.107-0.445-0.222-0.601-0.338
		c-0.156-0.12-0.247-0.253-0.277-0.4c-0.021-0.119,0.006-0.232,0.074-0.34c0.068-0.105,0.173-0.192,0.314-0.258
		c0.142-0.068,0.315-0.103,0.512-0.105c0.365,0.002,0.662,0.094,0.895,0.277c0.233,0.181,0.379,0.428,0.436,0.746
		c0.022,0.152,0.073,0.262,0.155,0.327c0.081,0.067,0.195,0.085,0.348,0.054L87.076,39.823L87.076,39.823z M91.032,39.502
		c0-0.306-0.154-0.458-0.459-0.458h-2.138c-0.146,0-0.26-0.041-0.34-0.12c-0.078-0.078-0.119-0.193-0.119-0.338v-1.711
		c0-0.152,0.041-0.267,0.119-0.343c0.08-0.077,0.194-0.115,0.34-0.115h7.819c0.305,0,0.458,0.152,0.458,0.458v1.711
		c0,0.145-0.038,0.26-0.114,0.338c-0.077,0.079-0.191,0.12-0.344,0.12h-2.14c-0.144,0-0.259,0.037-0.338,0.114
		c-0.079,0.076-0.118,0.19-0.118,0.344v7.147c0,0.145-0.039,0.26-0.115,0.339c-0.076,0.079-0.191,0.119-0.344,0.119h-1.71
		c-0.146,0-0.261-0.04-0.339-0.119c-0.079-0.079-0.119-0.194-0.119-0.339L91.032,39.502L91.032,39.502z M101.248,36.417
		c0.138,0,0.245,0.038,0.327,0.109c0.078,0.071,0.131,0.173,0.162,0.303l1.084,4.443c0.02,0.078,0.051,0.115,0.093,0.115
		s0.073-0.037,0.091-0.115l1.085-4.443c0.029-0.13,0.082-0.231,0.164-0.303c0.078-0.071,0.186-0.109,0.323-0.109h3.162
		c0.305,0,0.457,0.152,0.457,0.458v9.774c0,0.145-0.038,0.26-0.114,0.339c-0.076,0.079-0.191,0.119-0.343,0.119h-1.711
		c-0.145,0-0.26-0.04-0.338-0.119c-0.079-0.079-0.12-0.194-0.12-0.339v-6.018c-0.003-0.035-0.013-0.061-0.035-0.076
		c-0.024-0.013-0.049-0.016-0.077-0.008c-0.025,0.011-0.043,0.033-0.056,0.069l-1.481,6.093c-0.031,0.13-0.087,0.23-0.171,0.295
		c-0.084,0.07-0.195,0.103-0.333,0.103h-1.009c-0.136,0-0.246-0.032-0.33-0.103c-0.084-0.064-0.143-0.165-0.173-0.295l-1.481-6.093
		c-0.01-0.036-0.03-0.059-0.056-0.069c-0.028-0.008-0.051-0.005-0.074,0.008c-0.023,0.016-0.035,0.041-0.038,0.076v6.018
		c0,0.145-0.039,0.26-0.115,0.339c-0.075,0.079-0.19,0.119-0.344,0.119h-1.709c-0.153,0-0.268-0.04-0.344-0.119
		c-0.076-0.079-0.115-0.194-0.115-0.339v-9.774c0-0.306,0.152-0.458,0.459-0.458H101.248L101.248,36.417z M117.132,46.589
		c0,0.167-0.039,0.297-0.115,0.384c-0.077,0.089-0.191,0.135-0.344,0.135h-1.711c-0.144,0-0.26-0.038-0.338-0.113
		c-0.079-0.078-0.12-0.192-0.12-0.345v-1.33c0-0.306-0.152-0.458-0.458-0.458h-1.313c-0.145,0-0.26,0.038-0.338,0.114
		c-0.08,0.076-0.119,0.191-0.119,0.344v1.329c0,0.306-0.154,0.458-0.458,0.458h-1.712c-0.145,0-0.26-0.046-0.338-0.135
		c-0.079-0.087-0.119-0.217-0.119-0.384v-6.477c-0.004-0.387,0.015-0.771,0.059-1.152c0.043-0.38,0.135-0.739,0.27-1.077
		c0.134-0.338,0.338-0.636,0.61-0.898c0.274-0.26,0.64-0.466,1.095-0.613c0.456-0.15,1.025-0.227,1.708-0.229
		c0.683,0.003,1.252,0.079,1.707,0.229c0.456,0.147,0.82,0.354,1.095,0.613c0.273,0.263,0.477,0.561,0.611,0.898
		c0.137,0.338,0.227,0.697,0.27,1.077c0.044,0.382,0.061,0.766,0.06,1.152v6.478H117.132z M114.504,40.112
		c0.003-0.182-0.007-0.343-0.033-0.48c-0.023-0.139-0.071-0.253-0.145-0.345c-0.076-0.092-0.188-0.159-0.337-0.207
		c-0.149-0.045-0.35-0.068-0.6-0.068s-0.45,0.023-0.599,0.068c-0.149,0.048-0.262,0.115-0.335,0.207
		c-0.077,0.092-0.126,0.206-0.148,0.345c-0.023,0.137-0.035,0.298-0.032,0.48v1.666c0,0.144,0.039,0.259,0.119,0.338
		c0.078,0.079,0.193,0.119,0.338,0.119h1.313c0.153-0.007,0.267-0.051,0.345-0.127c0.076-0.079,0.113-0.194,0.113-0.347
		L114.504,40.112L114.504,40.112z M125.652,39.823c0.137-0.031,0.24-0.09,0.309-0.174c0.066-0.084,0.096-0.193,0.089-0.331
		c-0.016-0.224-0.064-0.473-0.146-0.75c-0.081-0.275-0.211-0.553-0.387-0.832c-0.176-0.28-0.41-0.537-0.707-0.772
		c-0.299-0.236-0.673-0.428-1.12-0.569c-0.447-0.143-0.984-0.22-1.611-0.222c-0.568,0.002-1.055,0.07-1.461,0.201
		c-0.407,0.132-0.745,0.303-1.016,0.517c-0.272,0.211-0.488,0.443-0.652,0.689c-0.162,0.25-0.284,0.491-0.363,0.73
		c-0.081,0.236-0.135,0.447-0.157,0.629c-0.026,0.184-0.036,0.312-0.031,0.394c0.003,0.439,0.068,0.82,0.199,1.148
		c0.129,0.331,0.302,0.615,0.524,0.857c0.221,0.242,0.471,0.45,0.748,0.626c0.274,0.175,0.565,0.328,0.861,0.458
		c0.301,0.13,0.594,0.249,0.882,0.356c0.285,0.106,0.547,0.211,0.787,0.313c0.238,0.104,0.435,0.216,0.592,0.339
		c0.155,0.121,0.255,0.262,0.293,0.422c0.028,0.14-0.008,0.275-0.104,0.405c-0.1,0.13-0.244,0.236-0.437,0.32
		c-0.193,0.084-0.414,0.127-0.666,0.13c-0.242,0-0.459-0.046-0.653-0.138s-0.352-0.225-0.475-0.398
		c-0.122-0.173-0.193-0.382-0.216-0.626c-0.015-0.16-0.066-0.273-0.15-0.341s-0.201-0.087-0.354-0.057l-1.726,0.382
		c-0.138,0.031-0.239,0.088-0.309,0.171c-0.065,0.087-0.096,0.195-0.089,0.334c0.013,0.241,0.058,0.509,0.135,0.802
		c0.077,0.29,0.201,0.583,0.372,0.873c0.173,0.293,0.406,0.562,0.701,0.806c0.299,0.244,0.673,0.441,1.126,0.589
		c0.452,0.148,0.998,0.225,1.637,0.229c0.602-0.005,1.122-0.072,1.562-0.205c0.44-0.13,0.814-0.301,1.12-0.513
		c0.302-0.214,0.553-0.443,0.743-0.693c0.193-0.246,0.342-0.49,0.442-0.727c0.105-0.236,0.177-0.448,0.214-0.629
		c0.041-0.184,0.059-0.312,0.056-0.395c-0.002-0.437-0.07-0.824-0.208-1.161c-0.135-0.335-0.318-0.63-0.549-0.883
		c-0.23-0.254-0.492-0.476-0.779-0.664c-0.29-0.188-0.591-0.356-0.901-0.498c-0.312-0.144-0.615-0.275-0.914-0.391
		c-0.295-0.116-0.564-0.229-0.81-0.338c-0.244-0.107-0.444-0.222-0.601-0.338c-0.155-0.12-0.246-0.253-0.276-0.4
		c-0.021-0.119,0.005-0.232,0.073-0.34c0.068-0.105,0.174-0.192,0.315-0.258c0.141-0.068,0.312-0.103,0.512-0.105
		c0.363,0.002,0.661,0.094,0.894,0.277c0.234,0.181,0.379,0.428,0.435,0.746c0.023,0.152,0.075,0.262,0.156,0.327
		c0.081,0.067,0.195,0.085,0.349,0.054L125.652,39.823z"/>
	<path fill="#FFD524" d="M100.116,60.396c0.019,0.248,0.066,0.494,0.142,0.732c0.192,0.604,0.567,1.155,1.11,1.565
		c0.83,0.623,1.834,0.854,2.784,0.72c0.955-0.135,1.858-0.635,2.483-1.466c0.838-1.113,1.217-2.466,0.812-3.855
		c-0.123-0.426-0.314-0.826-0.562-1.192c0.339,0.214,0.649,0.457,0.938,0.714c0.688,0.609,1.281,1.314,1.933,1.961
		c1.009,1.003,2.114,1.815,3.811,1.699c0.957-0.065,1.8-0.513,2.385-1.185c0.586-0.671,0.916-1.565,0.85-2.521
		c-0.055-0.808-0.432-1.515-0.997-2.009c-0.565-0.493-1.319-0.772-2.125-0.717c-0.352,0.023-0.685,0.122-0.984,0.278
		c-0.579,0.303-1.204,0.979-1.204,1.668c0,0.774,0.626,1.402,1.401,1.402c0.774,0,1.403-0.628,1.403-1.402
		c0-0.149-0.024-0.294-0.067-0.43c0.226,0.056,0.432,0.165,0.603,0.313c0.279,0.244,0.466,0.594,0.493,0.993
		c0.037,0.553-0.152,1.066-0.485,1.449c-0.337,0.385-0.82,0.642-1.37,0.68c-0.871,0.06-1.57-0.313-2.211-0.854
		c-0.86-0.727-1.596-1.674-2.455-2.436c-1.183-1.051-2.169-1.536-3.753-1.752c-4.993-0.679-7.315,2.03-10.305,5.63
		c-0.178,0.215-0.354,0.426-0.463,0.555c-0.748,0.891-1.501,1.767-2.295,2.546c-0.762,0.745-1.554,1.39-2.402,1.843
		c-1.525,0.812-3.098,0.973-4.495,0.672c-1.539-0.33-2.864-1.216-3.68-2.399c-0.943-1.374-1.032-2.893-0.583-4.2
		c0.257-0.749,0.686-1.427,1.228-1.969c0.539-0.539,1.188-0.944,1.887-1.151c1.077-0.319,2.296-0.167,3.445,0.698
		c0.681,0.512,1.089,1.252,1.199,2.033c0.2,1.415-0.614,2.982-2.119,3.194c-0.138,0.019-0.276,0.025-0.416,0.021
		c0.038-0.13,0.06-0.267,0.06-0.41c0-0.774-0.628-1.402-1.403-1.402c-0.774,0-1.402,0.628-1.402,1.402
		c0,2.085,3.407,2.317,4.96,1.228c1.269-0.888,2.028-2.522,1.787-4.234c-0.164-1.158-0.769-2.255-1.778-3.014
		c-1.567-1.18-3.25-1.38-4.75-0.937c-0.941,0.279-1.806,0.815-2.514,1.523c-0.703,0.702-1.259,1.577-1.587,2.535
		c-0.016,0.043-0.029,0.086-0.043,0.129c-0.313-0.499-0.686-0.975-1.117-1.412c-1.965-1.996-4.555-3.008-7.153-3.028
		c-2.597-0.021-5.202,0.949-7.198,2.915c-0.285,0.28-0.553,0.57-0.804,0.868c-0.252-0.298-0.52-0.588-0.804-0.868
		c-1.996-1.966-4.603-2.935-7.199-2.915c-2.598,0.021-5.188,1.032-7.153,3.028c-0.432,0.438-0.804,0.913-1.117,1.412
		c-0.014-0.043-0.027-0.086-0.042-0.129c-0.329-0.958-0.884-1.833-1.588-2.535c-0.708-0.708-1.57-1.244-2.514-1.523
		c-1.499-0.443-3.183-0.243-4.75,0.937c-1.009,0.759-1.614,1.855-1.777,3.014c-0.242,1.713,0.519,3.347,1.786,4.234
		c1.554,1.09,4.96,0.857,4.96-1.228c0-0.774-0.628-1.402-1.402-1.402c-0.775,0-1.402,0.628-1.402,1.402
		c0,0.144,0.021,0.28,0.061,0.41c-0.14,0.005-0.278-0.002-0.417-0.021c-1.505-0.213-2.318-1.779-2.118-3.194
		c0.11-0.781,0.519-1.521,1.198-2.033c1.149-0.865,2.369-1.017,3.445-0.698c0.699,0.207,1.348,0.612,1.887,1.151
		c0.543,0.542,0.972,1.22,1.228,1.969c0.448,1.308,0.359,2.826-0.584,4.2c-0.815,1.184-2.141,2.069-3.68,2.399
		c-1.396,0.301-2.97,0.14-4.495-0.672c-0.849-0.453-1.641-1.098-2.402-1.843c-0.794-0.779-1.547-1.655-2.295-2.546
		c-0.108-0.129-0.284-0.34-0.463-0.555c-2.989-3.6-5.311-6.309-10.304-5.63c-1.584,0.216-2.569,0.701-3.754,1.752
		c-0.859,0.762-1.595,1.709-2.454,2.436c-0.641,0.54-1.34,0.913-2.212,0.854c-0.55-0.038-1.033-0.295-1.369-0.68
		c-0.334-0.383-0.523-0.896-0.485-1.449c0.027-0.399,0.214-0.749,0.492-0.993c0.171-0.148,0.377-0.258,0.604-0.313
		c-0.044,0.136-0.068,0.28-0.068,0.43c0,0.774,0.629,1.402,1.404,1.402c0.774,0,1.4-0.628,1.4-1.402
		c0-0.688-0.624-1.365-1.204-1.668c-0.299-0.156-0.633-0.255-0.984-0.278c-0.806-0.056-1.559,0.224-2.124,0.717
		c-0.566,0.494-0.943,1.201-0.998,2.009c-0.065,0.955,0.265,1.85,0.851,2.521c0.585,0.672,1.428,1.119,2.385,1.185
		c1.697,0.115,2.802-0.696,3.811-1.699c0.651-0.646,1.245-1.351,1.933-1.961c0.289-0.257,0.599-0.5,0.938-0.714
		c-0.247,0.366-0.438,0.767-0.562,1.192c-0.404,1.389-0.025,2.741,0.812,3.855c0.625,0.831,1.529,1.331,2.483,1.466
		c0.95,0.134,1.954-0.097,2.784-0.72c0.544-0.41,0.919-0.962,1.11-1.565c0.076-0.237,0.123-0.483,0.142-0.732
		c0.07-0.979-0.293-2.255-1.507-2.255c-0.774,0-1.401,0.627-1.401,1.401c0,0.725,0.547,1.32,1.252,1.396
		c-0.112,0.217-0.273,0.415-0.482,0.571c-0.504,0.379-1.115,0.518-1.696,0.437c-0.577-0.081-1.124-0.383-1.501-0.886
		c-0.557-0.739-0.846-1.628-0.575-2.558c0.248-0.852,0.907-1.527,1.691-1.912c3.208-1.578,6.361,2.219,8.455,4.739
		c0.144,0.173,0.279,0.337,0.468,0.562c0.783,0.93,1.568,1.846,2.388,2.649c0.853,0.835,1.752,1.564,2.745,2.092
		c1.861,0.991,3.784,1.186,5.498,0.818c1.723-0.37,3.237-1.31,4.268-2.582c0.288,1.638,1.068,3.205,2.344,4.459
		c1.329,1.31,3.065,1.955,4.795,1.941c1.732-0.014,3.457-0.687,4.767-2.018c1.075-1.094,1.606-2.52,1.596-3.942
		c-0.012-1.423-0.564-2.841-1.658-3.918c-0.904-0.888-2.083-1.327-3.259-1.317c-2.265,0.017-4.353,1.723-4.336,4.079
		c0.008,1.003,0.717,3.094,2.12,3.094c0.774,0,1.403-0.628,1.403-1.402c0-0.773-0.629-1.402-1.403-1.402
		c-0.214,0-0.417,0.048-0.599,0.135c-0.026-0.142-0.042-0.286-0.043-0.43c-0.011-1.53,1.428-2.584,2.869-2.596
		c0.796-0.006,1.596,0.292,2.209,0.897c0.803,0.79,1.21,1.829,1.218,2.873c0.008,1.042-0.382,2.09-1.172,2.893
		c-1.023,1.039-2.372,1.567-3.723,1.576c-1.351,0.012-2.707-0.494-3.747-1.518c-1.336-1.315-2.013-3.047-2.026-4.783
		c-0.014-1.736,0.635-3.48,1.95-4.815c1.68-1.706,3.892-2.57,6.109-2.587c2.219-0.019,4.444,0.81,6.15,2.491
		c0.337,0.33,0.647,0.677,0.932,1.039c-1.326,2.034-2,4.372-2.018,6.716c-0.018,2.407,0.653,4.819,2.018,6.914
		c-0.662,0.839-1.557,1.691-2.294,2.452l-0.645,0.669l0.797,0.479c0.914,0.552,1.471,1.18,1.804,1.87
		c0.321,0.667,0.451,1.417,0.502,2.22c-0.394,0.247-0.655,0.687-0.655,1.186c0,0.411,0.176,0.781,0.458,1.037
		c0.249,0.227,0.58,0.366,0.944,0.366c0.363,0,0.695-0.14,0.944-0.366c0.281-0.256,0.457-0.626,0.457-1.037
		c0-0.499-0.261-0.938-0.653-1.186c0.049-0.803,0.179-1.553,0.5-2.22c0.333-0.69,0.891-1.318,1.804-1.87l0.797-0.479l-0.646-0.669
		c-0.737-0.761-1.632-1.613-2.293-2.452c1.364-2.095,2.035-4.507,2.017-6.914c-0.018-2.344-0.691-4.682-2.017-6.716
		c0.283-0.362,0.594-0.709,0.931-1.039c1.706-1.681,3.932-2.51,6.15-2.491c2.218,0.017,4.43,0.881,6.109,2.587
		c1.315,1.336,1.965,3.079,1.95,4.815c-0.014,1.736-0.69,3.468-2.026,4.783c-1.039,1.023-2.397,1.529-3.747,1.518
		c-1.351-0.009-2.699-0.537-3.723-1.576c-0.789-0.803-1.179-1.851-1.172-2.893c0.008-1.044,0.415-2.083,1.218-2.873
		c0.613-0.605,1.413-0.902,2.209-0.897c1.441,0.012,2.881,1.065,2.869,2.596c-0.001,0.144-0.016,0.288-0.043,0.43
		c-0.182-0.087-0.385-0.135-0.599-0.135c-0.774,0-1.403,0.629-1.403,1.402c0,0.774,0.629,1.402,1.403,1.402
		c1.403,0,2.111-2.091,2.12-3.094c0.018-2.356-2.071-4.062-4.336-4.079c-1.176-0.01-2.354,0.43-3.258,1.317
		c-1.095,1.077-1.647,2.495-1.658,3.918c-0.012,1.423,0.52,2.849,1.595,3.942c1.31,1.331,3.035,2.004,4.767,2.018
		c1.729,0.014,3.466-0.632,4.796-1.941c1.274-1.254,2.057-2.821,2.344-4.459c1.03,1.272,2.545,2.212,4.268,2.582
		c1.714,0.367,3.637,0.173,5.499-0.818c0.992-0.527,1.892-1.257,2.744-2.092c0.819-0.803,1.604-1.719,2.388-2.649
		c0.188-0.225,0.324-0.389,0.468-0.562c2.094-2.521,5.247-6.317,8.455-4.739c0.784,0.385,1.442,1.061,1.69,1.912
		c0.271,0.93-0.018,1.818-0.574,2.558c-0.378,0.503-0.925,0.805-1.502,0.886c-0.582,0.081-1.192-0.058-1.696-0.437
		c-0.209-0.156-0.37-0.354-0.482-0.571c0.705-0.075,1.252-0.671,1.252-1.396c0-0.774-0.627-1.401-1.401-1.401
		C100.409,58.142,100.046,59.418,100.116,60.396L100.116,60.396z M100.116,23.129c0.019-0.249,0.066-0.494,0.142-0.731
		c0.192-0.603,0.567-1.156,1.11-1.565c0.83-0.624,1.834-0.854,2.784-0.72c0.955,0.135,1.858,0.635,2.483,1.466
		c0.838,1.113,1.217,2.466,0.812,3.855c-0.123,0.425-0.314,0.825-0.562,1.191c0.339-0.214,0.649-0.458,0.938-0.714
		c0.688-0.61,1.281-1.314,1.933-1.961c1.009-1.003,2.114-1.814,3.811-1.699c0.957,0.065,1.8,0.513,2.385,1.184
		c0.586,0.672,0.916,1.566,0.85,2.521c-0.055,0.808-0.432,1.515-0.997,2.008c-0.565,0.494-1.319,0.773-2.125,0.718
		c-0.352-0.024-0.685-0.122-0.984-0.278c-0.579-0.304-1.204-0.979-1.204-1.669c0-0.773,0.626-1.401,1.401-1.401
		c0.774,0,1.403,0.628,1.403,1.401c0,0.149-0.024,0.295-0.067,0.431c0.226-0.057,0.432-0.165,0.603-0.313
		c0.279-0.243,0.466-0.594,0.493-0.993c0.037-0.553-0.152-1.066-0.485-1.45c-0.337-0.384-0.82-0.641-1.37-0.679
		c-0.871-0.06-1.57,0.313-2.211,0.854c-0.86,0.727-1.596,1.674-2.455,2.436c-1.183,1.05-2.169,1.536-3.753,1.752
		c-4.993,0.679-7.315-2.03-10.305-5.631c-0.178-0.214-0.354-0.425-0.463-0.555c-0.748-0.89-1.501-1.766-2.295-2.544
		c-0.762-0.747-1.554-1.392-2.402-1.844c-1.525-0.813-3.098-0.973-4.495-0.673c-1.539,0.33-2.864,1.217-3.68,2.4
		c-0.943,1.373-1.032,2.893-0.583,4.2c0.257,0.749,0.686,1.427,1.228,1.969c0.539,0.539,1.188,0.944,1.887,1.151
		c1.077,0.319,2.296,0.167,3.445-0.698c0.681-0.512,1.089-1.252,1.199-2.034c0.2-1.414-0.614-2.981-2.119-3.193
		c-0.138-0.02-0.276-0.026-0.416-0.022c0.038,0.13,0.06,0.268,0.06,0.41c0,0.774-0.628,1.403-1.403,1.403
		c-0.774,0-1.402-0.629-1.402-1.403c0-2.085,3.407-2.317,4.96-1.228c1.269,0.888,2.028,2.523,1.787,4.235
		c-0.164,1.158-0.769,2.254-1.778,3.014c-1.567,1.181-3.25,1.38-4.75,0.937c-0.941-0.28-1.806-0.815-2.514-1.523
		c-0.703-0.702-1.259-1.576-1.587-2.535c-0.016-0.043-0.029-0.085-0.043-0.13c-0.313,0.501-0.686,0.975-1.117,1.412
		c-1.965,1.998-4.555,3.008-7.153,3.028c-2.597,0.021-5.202-0.949-7.198-2.914c-0.285-0.279-0.553-0.569-0.804-0.868
		c-0.252,0.299-0.52,0.589-0.804,0.868c-1.996,1.965-4.603,2.935-7.199,2.914c-2.598-0.021-5.188-1.03-7.153-3.028
		c-0.432-0.438-0.804-0.911-1.117-1.412c-0.014,0.045-0.027,0.087-0.042,0.13c-0.329,0.959-0.884,1.833-1.588,2.535
		c-0.708,0.708-1.57,1.243-2.514,1.523c-1.499,0.443-3.183,0.244-4.75-0.937c-1.009-0.76-1.614-1.855-1.777-3.014
		c-0.242-1.713,0.519-3.348,1.786-4.235c1.554-1.09,4.96-0.857,4.96,1.228c0,0.774-0.628,1.403-1.402,1.403
		c-0.775,0-1.402-0.629-1.402-1.403c0-0.142,0.021-0.28,0.061-0.41c-0.14-0.005-0.278,0.002-0.417,0.022
		c-1.505,0.212-2.318,1.779-2.118,3.193c0.11,0.782,0.519,1.523,1.198,2.034c1.149,0.865,2.369,1.018,3.445,0.698
		c0.699-0.207,1.348-0.612,1.887-1.151c0.543-0.542,0.972-1.22,1.228-1.969c0.448-1.308,0.359-2.827-0.584-4.2
		c-0.815-1.184-2.141-2.07-3.68-2.4c-1.396-0.3-2.97-0.14-4.495,0.673c-0.849,0.452-1.641,1.097-2.402,1.844
		c-0.794,0.778-1.547,1.654-2.295,2.544c-0.108,0.13-0.284,0.341-0.463,0.555c-2.989,3.601-5.311,6.309-10.304,5.631
		c-1.584-0.216-2.569-0.702-3.754-1.752c-0.859-0.762-1.595-1.709-2.454-2.436c-0.641-0.54-1.34-0.913-2.212-0.854
		c-0.55,0.038-1.033,0.295-1.369,0.679c-0.334,0.384-0.523,0.898-0.485,1.45c0.027,0.399,0.214,0.75,0.492,0.993
		c0.171,0.148,0.377,0.257,0.604,0.313c-0.044-0.136-0.068-0.281-0.068-0.431c0-0.773,0.629-1.401,1.404-1.401
		c0.774,0,1.4,0.628,1.4,1.401c0,0.69-0.624,1.365-1.204,1.669c-0.299,0.156-0.633,0.255-0.984,0.278
		c-0.806,0.055-1.559-0.224-2.124-0.718c-0.566-0.493-0.943-1.2-0.998-2.008c-0.065-0.955,0.265-1.85,0.851-2.521
		c0.585-0.671,1.428-1.118,2.385-1.184c1.697-0.115,2.802,0.696,3.811,1.699c0.651,0.647,1.245,1.351,1.933,1.961
		c0.289,0.256,0.599,0.5,0.938,0.714c-0.247-0.366-0.438-0.767-0.562-1.191c-0.404-1.39-0.025-2.742,0.812-3.855
		c0.625-0.831,1.529-1.331,2.483-1.466c0.95-0.134,1.954,0.096,2.784,0.72c0.544,0.409,0.919,0.962,1.11,1.565
		c0.076,0.237,0.123,0.482,0.142,0.731c0.07,0.978-0.293,2.255-1.507,2.255c-0.774,0-1.401-0.628-1.401-1.402
		c0-0.724,0.547-1.32,1.252-1.395c-0.112-0.218-0.273-0.415-0.482-0.571c-0.504-0.38-1.115-0.518-1.696-0.436
		c-0.577,0.081-1.124,0.382-1.501,0.885c-0.557,0.738-0.846,1.628-0.575,2.557c0.248,0.853,0.907,1.528,1.691,1.912
		c3.208,1.578,6.361-2.218,8.455-4.737c0.144-0.174,0.279-0.338,0.468-0.562c0.783-0.931,1.568-1.846,2.388-2.649
		c0.853-0.835,1.752-1.564,2.745-2.092c1.861-0.992,3.784-1.187,5.498-0.818c1.723,0.371,3.237,1.309,4.268,2.581
		c0.288-1.638,1.068-3.203,2.344-4.458c1.329-1.309,3.065-1.954,4.795-1.942c1.732,0.015,3.457,0.688,4.767,2.018
		c1.075,1.093,1.606,2.52,1.596,3.942c-0.012,1.423-0.564,2.841-1.658,3.917c-0.904,0.89-2.083,1.328-3.259,1.319
		c-2.265-0.019-4.353-1.724-4.336-4.08c0.008-1.002,0.717-3.094,2.12-3.094c0.774,0,1.403,0.627,1.403,1.401
		s-0.629,1.403-1.403,1.403c-0.214,0-0.417-0.048-0.599-0.135c-0.026,0.143-0.042,0.285-0.043,0.43
		c-0.011,1.53,1.428,2.583,2.869,2.595c0.796,0.008,1.596-0.291,2.209-0.896c0.803-0.79,1.21-1.83,1.218-2.873
		c0.008-1.042-0.382-2.09-1.172-2.894c-1.023-1.039-2.372-1.566-3.723-1.576c-1.351-0.011-2.707,0.494-3.747,1.519
		c-1.336,1.314-2.013,3.047-2.026,4.782c-0.014,1.736,0.635,3.48,1.95,4.816c1.68,1.705,3.892,2.57,6.109,2.588
		c2.219,0.017,4.444-0.812,6.15-2.492c0.337-0.331,0.647-0.678,0.932-1.039c-1.326-2.034-2-4.373-2.018-6.716
		c-0.018-2.407,0.653-4.819,2.018-6.915c-0.662-0.839-1.557-1.691-2.294-2.452L59.26,7.157l0.797-0.479
		c0.914-0.552,1.471-1.181,1.804-1.87c0.321-0.667,0.451-1.417,0.502-2.219c-0.394-0.249-0.655-0.688-0.655-1.187
		c0-0.412,0.176-0.781,0.458-1.037C62.414,0.139,62.745,0,63.109,0c0.363,0,0.695,0.139,0.944,0.366
		c0.281,0.256,0.457,0.625,0.457,1.037c0,0.499-0.261,0.937-0.653,1.187c0.049,0.802,0.179,1.552,0.5,2.219
		c0.333,0.689,0.891,1.318,1.804,1.87l0.797,0.479l-0.646,0.669c-0.737,0.761-1.632,1.613-2.293,2.452
		c1.364,2.096,2.035,4.508,2.017,6.915c-0.018,2.343-0.691,4.682-2.017,6.716c0.283,0.361,0.594,0.708,0.931,1.039
		c1.706,1.681,3.932,2.51,6.15,2.492s4.43-0.883,6.109-2.588c1.315-1.336,1.965-3.08,1.95-4.816
		c-0.014-1.735-0.69-3.468-2.026-4.782c-1.039-1.024-2.397-1.529-3.747-1.519c-1.351,0.01-2.699,0.537-3.723,1.576
		c-0.789,0.804-1.179,1.852-1.172,2.894c0.008,1.043,0.415,2.083,1.218,2.873c0.613,0.604,1.413,0.903,2.209,0.896
		c1.441-0.012,2.881-1.064,2.869-2.595c-0.001-0.145-0.016-0.287-0.043-0.43c-0.182,0.087-0.385,0.135-0.599,0.135
		c-0.774,0-1.403-0.629-1.403-1.403s0.629-1.401,1.403-1.401c1.403,0,2.111,2.092,2.12,3.094c0.018,2.356-2.071,4.062-4.336,4.08
		c-1.176,0.009-2.354-0.43-3.258-1.319c-1.095-1.076-1.647-2.494-1.658-3.917c-0.012-1.423,0.52-2.85,1.595-3.942
		c1.31-1.331,3.035-2.004,4.767-2.018c1.729-0.012,3.466,0.634,4.796,1.942c1.274,1.255,2.057,2.82,2.344,4.458
		c1.03-1.273,2.545-2.21,4.268-2.581c1.714-0.368,3.637-0.174,5.499,0.818c0.992,0.527,1.892,1.257,2.744,2.092
		c0.819,0.804,1.604,1.719,2.388,2.649c0.188,0.224,0.324,0.388,0.468,0.562c2.094,2.519,5.247,6.315,8.455,4.737
		c0.784-0.384,1.442-1.06,1.69-1.912c0.271-0.929-0.018-1.818-0.574-2.557c-0.378-0.503-0.925-0.804-1.502-0.885
		c-0.582-0.082-1.192,0.056-1.696,0.436c-0.209,0.156-0.37,0.354-0.482,0.571c0.705,0.074,1.252,0.671,1.252,1.395
		c0,0.774-0.627,1.402-1.401,1.402C100.409,25.384,100.046,24.107,100.116,23.129L100.116,23.129z M3.918,30.436H122.3v1.05H3.918
		V30.436L3.918,30.436z M63.109,22.561c0.95-1.662,1.434-3.52,1.448-5.38c0.016-1.917-0.467-3.839-1.448-5.554
		c-0.982,1.715-1.465,3.637-1.449,5.554C61.675,19.042,62.158,20.899,63.109,22.561L63.109,22.561z M63.109,9.053
		c0.207-0.248,0.427-0.488,0.657-0.722l0.871-0.903c-0.694-0.545-1.184-1.15-1.528-1.808c-0.346,0.657-0.835,1.263-1.53,1.808
		l0.872,0.903C62.684,8.564,62.901,8.805,63.109,9.053L63.109,9.053z M3.918,53.089H122.3v-1.05H3.918V53.089L3.918,53.089z
		 M63.109,60.963c0.95,1.662,1.434,3.521,1.448,5.381c0.016,1.917-0.467,3.839-1.448,5.555c-0.982-1.716-1.465-3.638-1.449-5.555
		C61.675,64.483,62.158,62.625,63.109,60.963L63.109,60.963z M63.109,74.472c0.207,0.248,0.427,0.489,0.657,0.723l0.871,0.903
		c-0.694,0.545-1.184,1.15-1.528,1.807c-0.346-0.656-0.835-1.262-1.53-1.807l0.872-0.903C62.684,74.961,62.901,74.72,63.109,74.472z
		"/>
</g>
</svg>
