<?xml version="1.0" encoding="utf-8"?>
<!-- Generator: Adobe Illustrator 17.0.0, SVG Export Plug-In . SVG Version: 6.00 Build 0)  -->
<!DOCTYPE svg PUBLIC "-//W3C//DTD SVG 1.1//EN" "http://www.w3.org/Graphics/SVG/1.1/DTD/svg11.dtd">
<svg version="1.1" id="图层_1" xmlns="http://www.w3.org/2000/svg" xmlns:xlink="http://www.w3.org/1999/xlink" x="0px" y="0px"
	 width="100.977px" height="43.274px" viewBox="0 0 100.977 43.274" enable-background="new 0 0 100.977 43.274"
	 xml:space="preserve">
<path fill="#F08300" d="M15.885,11.508c0.365,0.106,0.388,0.139,0.647,0.323c0,0.054,0,0.106,0,0.161c0.162,0,0.325,0,0.486,0
	c0,0.054,0,0.108,0,0.163c0.218,0,0.434,0,0.648,0c0,0.054,0,0.106,0,0.162c0.324,0,0.648,0,0.973,0c0-0.056,0-0.108,0-0.162
	c0.216,0,0.43,0,0.649,0c0-0.055,0-0.109,0-0.163c0.55-0.261,0.8-0.159,0.969-0.809c0.11,0,0.219,0,0.328,0
	c0.053-0.326,0.105-0.65,0.162-0.974c-0.347-0.29-0.751-1.032-0.812-1.621c0.321,0,0.649,0,0.972,0c0,0.054,0,0.107,0,0.163
	c0.107,0,0.218,0,0.324,0c0.108,0.159,0.218,0.322,0.324,0.484c0.108,0,0.218,0,0.324,0c0.271,0.325,0.54,0.65,0.812,0.974
	c0.055,0,0.107,0,0.16,0c0,0.648,0,1.298,0,1.945c-0.399,0.371-0.117,0.363-0.324,0.809c-0.053,0-0.107,0-0.16,0
	c0,0.109,0,0.218,0,0.325c-0.054,0-0.108,0-0.164,0c0,0.108,0,0.217,0,0.323c-0.268,0.219-0.539,0.433-0.812,0.648
	c-0.052,0.11-0.107,0.219-0.16,0.326c-0.106,0-0.217,0-0.324,0c-0.054,0.108-0.107,0.215-0.16,0.325c-0.109,0-0.219,0-0.325,0
	c0,0.054,0,0.107,0,0.162c-0.216,0.052-0.433,0.107-0.647,0.161c0,0.054,0,0.108,0,0.162c-0.163,0-0.324,0-0.486,0
	c0,0.054,0,0.108,0,0.162c-0.271,0-0.541,0-0.813,0c0,0.054,0,0.109,0,0.162c-0.269,0-0.54,0-0.81,0c0-0.053,0-0.108,0-0.162
	c-0.378,0-0.756,0-1.135,0c0-0.054,0-0.108,0-0.162c-0.163,0-0.325,0-0.485,0c0-0.054,0-0.108,0-0.162c-0.107,0-0.218,0-0.326,0
	c-0.105-0.161-0.215-0.323-0.321-0.486c-0.108,0-0.218,0-0.327,0c-0.162-0.216-0.32-0.433-0.484-0.648c-0.107,0-0.215,0-0.323,0
	c-0.056-0.163-0.108-0.324-0.163-0.487c-0.107-0.053-0.216-0.106-0.323-0.161c-0.284-0.462-0.381-1.795-0.486-2.432
	c-0.54,0-1.082,0-1.622,0c-1.108,0.367-3.102,1.957-3.24,3.24c1.731-0.041,3.519,0.286,4.538,0.975
	c0.214,0.271,0.432,0.538,0.648,0.811c0.215,0.161,0.43,0.322,0.649,0.486c0.053,0.216,0.108,0.431,0.163,0.646
	c0.053,0,0.105,0,0.16,0c0.054,0.164,0.107,0.324,0.164,0.487c0.105,0.054,0.214,0.107,0.32,0.161c0,0.163,0,0.323,0,0.486
	c0.057,0,0.109,0,0.164,0c0.232,0.651,0.07,1.878-0.326,2.271c-0.15,0.631-0.541,0.94-0.97,1.297c0,0.053,0,0.107,0,0.16
	c-0.219,0.055-0.435,0.108-0.648,0.163c-0.055,0.107-0.11,0.216-0.163,0.324c-0.215,0.054-0.432,0.107-0.647,0.159
	c-0.054,0.11-0.108,0.22-0.163,0.327c-0.324,0.055-0.648,0.105-0.973,0.161c0.05-0.641,0.182-0.923,0.487-1.295
	c0.108-0.055,0.216-0.108,0.324-0.163c0.053-0.324,0.108-0.649,0.161-0.974c0.055,0,0.109,0,0.163,0
	c-0.054-0.485-0.108-0.972-0.163-1.46c-0.108-0.051-0.215-0.104-0.324-0.16c0-0.108,0-0.215,0-0.325c-0.053,0-0.108,0-0.161,0
	c0-0.215,0-0.432,0-0.649c-0.086-0.212-0.079,0.053-0.163-0.16c-0.16-0.055-0.324-0.108-0.487-0.163
	c-0.053-0.107-0.108-0.216-0.161-0.324c-0.108,0-0.216,0-0.323,0c0-0.055,0-0.108,0-0.16c-0.378,0-0.756,0-1.135,0
	c0-0.058,0-0.11,0-0.164c-0.108,0-0.217,0-0.324,0c0-0.054,0-0.107,0-0.162c-0.499-0.169-1.365,0.087-1.62,0.162
	c-0.38,0-0.757,0-1.136,0c0,0.054,0,0.106,0,0.164c-0.109,0-0.215,0-0.324,0c0,0.052,0,0.106,0,0.16c-0.162,0-0.324,0-0.486,0
	c-0.054,0.108-0.108,0.217-0.162,0.324c-0.108,0-0.216,0-0.324,0c-0.43,0.323-0.863,0.649-1.296,0.972c0,0.11,0,0.217,0,0.325
	c-0.108,0.056-0.216,0.109-0.324,0.16c0,0.11,0,0.219,0,0.327c-0.107,0.051-0.217,0.108-0.323,0.161c0,0.163,0,0.323,0,0.486
	c-0.056,0-0.108,0-0.163,0c-0.055,0.215-0.108,0.433-0.161,0.649c-0.056,0-0.108,0-0.164,0c-0.185,0.435-0.325,2.877,0,3.242
	c0.25,1.065,1.595,1.933,2.918,1.942c0-0.054,0-0.106,0-0.16c0.272-0.055,0.541-0.109,0.811-0.164
	c0.082-0.05,0.14-0.224,0.325-0.322c0-0.054,0-0.11,0-0.163c-0.691,0-1.007-0.134-1.46-0.323c-0.054-0.162-0.108-0.325-0.162-0.487
	c-0.536-0.138-0.471-0.367-0.812-0.647c0.11-0.705,0.218-1.405,0.327-2.107c2.612-1.48,5.245-0.366,5.186,2.917
	c-0.055,0-0.108,0-0.165,0c-0.053,0.378-0.106,0.758-0.16,1.134c-0.054,0-0.108,0-0.162,0c0,0.164,0,0.324,0,0.487
	c-0.162,0.106-0.323,0.215-0.484,0.326c-0.058,0.159-0.11,0.322-0.164,0.483c-0.107,0-0.218,0-0.323,0
	c-0.056,0.107-0.109,0.217-0.162,0.325c-0.162,0.054-0.325,0.106-0.486,0.161c0,0.054,0,0.109,0,0.163
	c-0.271,0.054-0.542,0.107-0.811,0.162c-1.424,0.539-2.581,0.502-4.052,0c-0.218,0-0.433,0-0.648,0c0-0.055,0-0.108,0-0.162
	c-0.108,0-0.218,0-0.323,0c0-0.054,0-0.109,0-0.163c-0.488-0.161-0.974-0.324-1.46-0.486c0-0.056,0-0.106,0-0.161
	C0.324,26.851,0.163,26.796,0,26.742c0.007,1.82,0.867,2.518,1.784,3.405c0.163,0.216,0.324,0.431,0.486,0.647
	c0.108,0,0.216,0,0.324,0c0,0.053,0,0.108,0,0.161c0.107,0,0.216,0,0.324,0c0,0.054,0,0.108,0,0.162c0.161,0,0.324,0,0.484,0
	c0,0.055,0,0.107,0,0.163c0.108,0,0.218,0,0.324,0c0,0.054,0,0.107,0,0.162c0.326,0,0.647,0,0.975,0c0,0.054,0,0.109,0,0.163
	c0.701,0,1.404,0,2.106,0c0-0.054,0-0.109,0-0.163c0.378,0,0.757,0,1.134,0c0-0.055,0-0.108,0-0.162c0.108,0,0.216,0,0.325,0
	c0-0.056,0-0.108,0-0.163c0.162,0,0.324,0,0.485,0c0-0.054,0-0.108,0-0.162c0.164,0,0.325,0,0.486,0c0-0.053,0-0.108,0-0.161
	c0.107,0,0.216,0,0.324,0c0.055-0.107,0.107-0.217,0.16-0.326c0.11,0,0.219,0,0.328,0c0.161-0.214,0.322-0.432,0.484-0.646
	c0.108,0,0.215,0,0.322,0c0.11-0.162,0.216-0.323,0.324-0.486c0.11,0,0.22,0,0.327,0c0.215-0.271,0.432-0.541,0.647-0.81
	c0.161-0.055,0.324-0.109,0.485-0.163c0.055-0.106,0.109-0.216,0.162-0.324c0.109,0,0.217,0,0.324,0
	c0.053-0.107,0.108-0.216,0.163-0.323c0.324-0.271,0.648-0.542,0.973-0.811c0-0.108,0-0.217,0-0.322
	c0.485-0.436,0.972-0.867,1.456-1.299c0-0.109,0-0.216,0-0.323c0.164-0.056,0.326-0.109,0.486-0.162
	c0.058-0.109,0.109-0.216,0.162-0.325c0.325-0.269,0.649-0.538,0.974-0.81c0.162-0.217,0.324-0.432,0.486-0.648
	c0.107-0.054,0.215-0.107,0.324-0.163c0-0.107,0-0.216,0-0.323c0.702-0.647,1.405-1.298,2.105-1.944
	c0.328-0.11,0.65-0.217,0.975-0.325c0.053-0.108,0.108-0.217,0.16-0.323c0.111,0,0.219,0,0.327,0c1.42-0.789,3.752-1.2,5.671-0.487
	c0.166,0,0.326,0,0.486,0c0,0.055,0,0.109,0,0.163c0.324,0.108,0.648,0.215,0.974,0.324c0.217,0.269,0.433,0.538,0.648,0.809
	c0.109,0.053,0.215,0.108,0.324,0.164c0,0.108,0,0.216,0,0.324c0.057,0,0.107,0,0.162,0c0.285,0.48,0.399,0.955,0.812,1.296
	c0.106,0.809,0.214,1.622,0.324,2.432c-0.058,0-0.11,0-0.162,0c0,0.161,0,0.323,0,0.486c-0.056,0-0.11,0-0.162,0
	c0,0.269,0,0.54,0,0.81c-0.055,0-0.11,0-0.163,0c-0.108,0.326-0.216,0.648-0.324,0.972c-0.324,0.27-0.648,0.541-0.973,0.811
	c-0.054,0.108-0.106,0.218-0.16,0.324c-0.218,0.054-0.432,0.108-0.651,0.163c-0.055,0.107-0.107,0.215-0.162,0.325
	c-0.106,0-0.215,0-0.322,0c0,0.054,0,0.105,0,0.159c-0.107,0-0.218,0-0.324,0c0,0.055,0,0.109,0,0.163
	c-0.486,0.109-0.975,0.216-1.458,0.325c-0.231-0.02,0.066-0.165-0.164-0.163c-0.364,0-0.628,0.323-1.133,0.163
	c0-0.056,0-0.109,0-0.163c-0.163,0-0.324,0-0.487,0c-0.055-0.107-0.108-0.216-0.162-0.325c-0.106,0-0.217,0-0.324,0
	c-0.053-0.105-0.107-0.216-0.161-0.323c-0.111,0-0.216,0-0.325,0c-0.054-0.161-0.109-0.324-0.16-0.487
	c-0.165-0.105-0.326-0.215-0.489-0.322c-0.399-0.59-0.503-1.253-0.484-2.27c0.318-0.287,0.136-0.322,0.324-0.647
	c0.055,0,0.107,0,0.16,0c0-0.109,0-0.217,0-0.325c0.379-0.216,0.759-0.432,1.136-0.647c0-0.053,0-0.109,0-0.162
	c0.324,0,0.649,0,0.974,0c0.093,0.246,0.122,0.266,0.161,0.647c-0.449,0.356-0.643,0.796-0.649,1.62
	c0.231,0.128,0.649,0.449,0.812,0.648c0.88,0.064,1.935,0.196,2.431-0.485c0-0.109,0-0.217,0-0.323
	c0.106-0.055,0.217-0.109,0.324-0.164c0.051-0.485,0.108-0.971,0.16-1.459c-0.053,0-0.109,0-0.16,0
	c-0.164-0.484-0.324-0.972-0.484-1.458c-0.524-0.292-1.021-0.778-1.622-0.971c-0.352-0.114-2.149-0.087-2.433,0
	c0,0.053,0,0.107,0,0.16c-0.271,0-0.54,0-0.81,0c0,0.055,0,0.108,0,0.163c-0.109,0-0.217,0-0.324,0c0,0.053,0,0.107,0,0.161
	c-0.27,0.055-0.541,0.107-0.812,0.163c0,0.054,0,0.107,0,0.159c-0.107,0-0.216,0-0.324,0c-0.106,0.164-0.217,0.327-0.324,0.488
	c-0.107,0-0.217,0-0.322,0c0,0.056,0,0.108,0,0.162c-0.109,0-0.218,0-0.328,0c-0.105,0.161-0.214,0.325-0.321,0.487
	c-0.056,0-0.108,0-0.161,0c0,0.109,0,0.216,0,0.325c-0.163,0.104-0.324,0.215-0.486,0.322c0,0.109,0,0.216,0,0.325
	c-0.109,0.053-0.22,0.106-0.324,0.162c-0.109,0.376-0.217,0.755-0.325,1.133c-0.055,0-0.108,0-0.163,0
	c-0.108,0.325-0.214,0.648-0.323,0.973c-0.054,0-0.109,0-0.162,0c-0.209,0.515-0.587,2.419-0.324,3.242c0.054,0,0.107,0,0.162,0
	c0,0.16,0,0.323,0,0.486c0.055,0,0.107,0,0.162,0c0.053,0.378,0.108,0.758,0.162,1.134c0.109,0.055,0.215,0.108,0.323,0.162
	c0.055,0.215,0.108,0.431,0.163,0.65c0.268,0.216,0.54,0.431,0.811,0.646c0.377,0.433,0.756,0.864,1.135,1.296
	c0.215,0.055,0.43,0.109,0.646,0.163c0.108,0.163,0.218,0.323,0.324,0.486c0.271,0.054,0.542,0.108,0.812,0.16
	c0,0.054,0,0.111,0,0.164c0.215,0.055,0.432,0.106,0.647,0.161c0,0.054,0,0.107,0,0.165c0.161,0,0.326,0,0.486,0
	c0,0.053,0,0.106,0,0.16c0.161,0,0.325,0,0.486,0c0,0.052,0,0.107,0,0.162c0.163,0,0.324,0,0.486,0c0,0.053,0,0.107,0,0.163
	c0.649,0.052,1.296,0.105,1.947,0.162c0,0.053,0,0.107,0,0.162c0.703,0.199,4.351,0.009,4.86-0.162c0-0.057,0-0.11,0-0.162
	c0.163,0,0.324,0,0.487,0c0-0.056,0-0.11,0-0.163c0.537-0.11,1.079-0.216,1.62-0.322c0-0.058,0-0.111,0-0.165
	c0.107,0,0.217,0,0.321,0c0-0.055,0-0.106,0-0.161c0.165,0,0.327,0,0.487,0c0.056-0.11,0.11-0.216,0.164-0.324
	c0.217-0.055,0.432-0.108,0.647-0.163c0.109-0.16,0.216-0.323,0.324-0.486c0.109,0,0.216,0,0.324,0
	c0.11-0.161,0.216-0.324,0.327-0.484c0.376-0.326,0.754-0.649,1.133-0.975c0-0.106,0-0.214,0-0.324
	c0.216-0.159,0.431-0.322,0.647-0.485c0.107-0.324,0.216-0.647,0.327-0.972c0.104-0.055,0.213-0.108,0.319-0.162
	c0.058-0.54,0.11-1.082,0.165-1.621c0.054,0,0.106,0,0.161,0c0-0.217,0-0.431,0-0.649c0.055,0,0.108,0,0.163,0
	c-0.055-0.7-0.108-1.404-0.163-2.105c0.055,0,0.108,0,0.163,0c0-0.054,0-0.108,0-0.163c-0.055,0-0.108,0-0.163,0
	c0-0.379,0-0.757,0-1.134c-0.055,0-0.107,0-0.161,0c0-0.215,0-0.434,0-0.647c-0.055,0-0.107,0-0.165,0
	c-0.143-0.485,0.096-1.221,0.165-1.461c0-0.538,0-1.079,0-1.618c0.106-0.055,0.216-0.108,0.324-0.163c0-0.161,0-0.324,0-0.485
	c0.054,0,0.107,0,0.16,0c0.377-0.753,0.575-1.547,1.459-1.784c0-0.108,0-0.215,0-0.324c0.721-0.173,1.258-0.61,1.945-0.811
	c0.378,0,0.758,0,1.135,0c0,0.054,0,0.108,0,0.163c0.217,0,0.432,0,0.646,0c0,0.053,0,0.107,0,0.16c0.11,0,0.219,0,0.326,0
	c0,0.056,0,0.109,0,0.162c0.16,0,0.326,0,0.484,0c0,0.056,0,0.11,0,0.162c0.109,0,0.217,0,0.326,0
	c0.107,0.163,0.216,0.323,0.325,0.487c0.159,0.055,0.323,0.109,0.484,0.163c0.109,0.161,0.216,0.324,0.324,0.484
	c0.055,0,0.109,0,0.162,0c0,0.108,0,0.217,0,0.324c0.264,0.256,0.737,2.021,0.486,2.756c-0.251,0.74-1.718,2.34-2.433,2.593
	c-0.322,0-0.644,0-0.971,0c-0.152-0.292-0.224-0.256-0.324-0.647c0.162-0.054,0.324-0.108,0.486-0.161c0-0.056,0-0.109,0-0.162
	c0.626-0.27,0.568,0.354,0.809-0.488c0.553-0.453,0.235-1.244,0-1.781c-0.407-0.199-1.642-0.896-2.267-0.324
	c-1.723,0.361-1.562,2.003-0.972,3.403c0,0.161,0,0.325,0,0.485c0.109,0.054,0.215,0.109,0.324,0.163
	c0.361,0.578,0.121,0.929,0.973,1.135c0,0.106,0,0.215,0,0.324c0.215,0.107,0.43,0.216,0.647,0.323
	c0.055,0.161,0.107,0.324,0.162,0.487c0.217,0.052,0.432,0.107,0.646,0.161c0.11,0.164,0.219,0.323,0.326,0.486
	c0.16,0,0.326,0,0.484,0c0,0.056,0,0.109,0,0.162c0.109,0,0.217,0,0.326,0c0,0.054,0,0.107,0,0.163
	c0.701,0.054,1.404,0.106,2.107,0.161c0-0.055,0-0.107,0-0.161c0.323,0,0.648,0,0.973,0c0-0.056,0-0.109,0-0.163
	c0.105,0,0.216,0,0.324,0c0-0.053,0-0.107,0-0.162c0.16,0,0.323,0,0.486,0c0-0.054,0-0.108,0-0.163c0.109,0,0.215,0,0.321,0
	c0.054-0.105,0.109-0.216,0.165-0.323c0.268-0.054,0.538-0.109,0.808-0.161c0.381-0.432,0.759-0.866,1.136-1.298
	c0.154-0.337,0.258-1.642,0.486-1.781c0.217,0,0.433,0,0.648,0c0.107,0.486,0.215,0.972,0.325,1.458
	c0.107,0.055,0.216,0.105,0.324,0.161c0,0.107,0,0.217,0,0.325c0.109,0.054,0.215,0.106,0.323,0.161c0,0.109,0,0.217,0,0.325
	c0.323,0.27,0.647,0.539,0.974,0.81c0,0.107,0,0.218,0,0.323c0.106,0.055,0.215,0.109,0.321,0.163c0,0.056,0,0.109,0,0.162
	c0.217,0.054,0.433,0.107,0.65,0.163c0.055,0.106,0.107,0.216,0.162,0.323c0.217,0.052,0.432,0.108,0.65,0.163
	c0,0.052,0,0.107,0,0.162c0.322,0,0.647,0,0.973,0c0,0.052,0,0.107,0,0.161c0.593,0,1.186,0,1.78,0c0-0.054,0-0.109,0-0.161
	c0.216-0.055,0.432-0.11,0.648-0.162c0-0.055,0-0.111,0-0.163c0.111,0,0.216,0,0.325,0c0.055-0.107,0.11-0.217,0.163-0.323
	c0.161,0,0.323,0,0.486,0c0-0.056,0-0.109,0-0.163c0.334-0.261,0.523-0.315,0.646-0.81c-0.431,0.052-0.862,0.107-1.295,0.161
	c0,0.054,0,0.107,0,0.164c-0.229,0.017,0.065-0.132-0.162-0.164c-0.379,0.054-0.758,0.107-1.133,0.164c0-0.057,0-0.11,0-0.164
	c-0.325-0.054-0.65-0.109-0.974-0.161c0-0.109,0-0.216,0-0.326c-0.54-0.102-1.695-0.901-1.946-1.295c-0.054,0-0.106,0-0.161,0
	c-0.055-0.38-0.107-0.758-0.162-1.136c-0.055,0-0.107,0-0.161,0c0-0.161,0-0.322,0-0.485c-0.057,0-0.108,0-0.165,0
	c0.057-0.54,0.108-1.08,0.165-1.62c0.595-0.405,0.431-0.917,1.456-0.976c0.055,0.22,0.109,0.433,0.165,0.65c0.054,0,0.106,0,0.161,0
	c0,0.271,0,0.54,0,0.813c0.107,0.053,0.216,0.104,0.322,0.159c0.063,0.118,0.1,0.502,0.165,0.65
	c0.161,0.053,0.322,0.107,0.484,0.161c0.055,0.108,0.109,0.215,0.162,0.325c0.163,0,0.326,0,0.488,0c0,0.054,0,0.105,0,0.161
	c0.106,0,0.215,0,0.322,0c0,0.054,0,0.107,0,0.161c0.51,0.179,2.444-0.024,2.753-0.161c0-0.056,0-0.108,0-0.161
	c0.11,0,0.219,0,0.326,0c0-0.054,0-0.11,0-0.163c0.216-0.054,0.433-0.109,0.648-0.162c0-0.054,0-0.108,0-0.161
	c0.108-0.056,0.217-0.109,0.325-0.162c0-0.109,0-0.216,0-0.325c0.215-0.163,0.432-0.322,0.647-0.485
	c0.055-0.218,0.109-0.432,0.162-0.649c0.053,0,0.11,0,0.161,0c0.329-0.635,0.584-1.73,0.324-2.594c-0.053,0-0.106,0-0.161,0
	c-0.055-0.485-0.107-0.972-0.163-1.46c-0.108-0.051-0.214-0.104-0.323-0.16c0-0.163,0-0.325,0-0.487
	c-0.108-0.053-0.216-0.108-0.324-0.16c0-0.109,0-0.217,0-0.326c-0.053,0-0.108,0-0.163,0c-0.105-0.16-0.214-0.323-0.324-0.484
	c-0.107,0-0.214,0-0.321,0c0-0.055,0-0.108,0-0.163c-0.108,0-0.216,0-0.325,0c-0.055-0.108-0.111-0.218-0.163-0.324
	c-0.216,0-0.432,0-0.649,0c-0.052-0.107-0.106-0.216-0.162-0.324c-0.215,0-0.431,0-0.646,0c0-0.054,0-0.106,0-0.161
	c-0.759,0-1.517,0-2.27,0c0,0.055,0,0.107,0,0.161c-0.163,0-0.325,0-0.487,0c0,0.054,0,0.108,0,0.162c-0.271,0-0.54,0-0.81,0
	c0,0.055,0,0.108,0,0.162c-0.107,0-0.217,0-0.326,0c-0.053,0.106-0.106,0.216-0.16,0.324c-0.111,0-0.217,0-0.322,0
	c0,0.055,0,0.108,0,0.163c-0.166,0-0.324,0-0.489,0c0,0.054,0,0.107,0,0.161c-0.106,0-0.216,0-0.323,0c0,0.055,0,0.108,0,0.163
	c-0.107,0-0.218,0-0.326,0c-0.053,0.108-0.107,0.216-0.159,0.323c-0.109,0-0.219,0-0.325,0c-0.055,0.108-0.108,0.216-0.161,0.323
	c-0.109,0-0.219,0-0.326,0c-0.052,0.109-0.105,0.218-0.162,0.324c-0.108,0-0.217,0-0.322,0c0,0.055,0,0.109,0,0.163
	c-0.241,0.16-0.4,0.127-0.811,0.16c0.052-0.323,0.107-0.647,0.162-0.971c0.107-0.054,0.217-0.107,0.324-0.163
	c0.108-0.323,0.215-0.647,0.324-0.972c0.055,0,0.105,0,0.16,0c0.388-1.069-0.439-2.816-0.484-3.728
	c-0.434-0.378-0.863-0.755-1.296-1.134c-0.056-0.108-0.111-0.217-0.164-0.325c-0.215-0.055-0.431-0.107-0.647-0.161
	c-0.11-0.164-0.216-0.323-0.325-0.485c-0.403-0.253-0.923,0.024-1.457-0.162c0-0.056,0-0.11,0-0.164c-0.111,0-0.218,0-0.325,0
	c0-0.054,0-0.108,0-0.162c-0.324,0-0.647,0-0.972,0c0-0.054,0-0.107,0-0.162c-0.42-0.114-2.609,0.351-2.92,0.488
	c0,0.052,0,0.106,0,0.162c-0.104,0-0.215,0-0.322,0c0,0.052,0,0.106,0,0.162c-0.107,0-0.217,0-0.322,0
	c-0.056,0.106-0.11,0.215-0.166,0.323c-0.105,0-0.215,0-0.322,0c-0.164,0.215-0.322,0.431-0.486,0.647c-0.055,0-0.107,0-0.162,0
	c0,0.108,0,0.218,0,0.324c-0.108,0.055-0.217,0.108-0.324,0.161c0,0.109,0,0.218,0,0.325c-0.064,0.115-0.568,0.931-0.647,0.971
	c-0.216,0-0.434,0-0.649,0c-0.565-1.041-0.812-1.207-0.809-2.914c0.055,0,0.106,0,0.161,0c0-0.162,0-0.326,0-0.488
	c0.162-0.107,0.324-0.215,0.486-0.324c0-0.109,0-0.215,0-0.323c0.107-0.055,0.215-0.109,0.324-0.162
	c0.161-0.217,0.324-0.433,0.486-0.648c0.215-0.054,0.43-0.108,0.647-0.163l0.324-0.325c0.108,0,0.217,0,0.326,0
	c0.053-0.106,0.105-0.215,0.158-0.322c0.679-0.324,2.23-0.328,3.244-0.324c0.054-2.125-0.753-3.665-1.947-4.538
	c-0.053-0.108-0.104-0.216-0.16-0.324c-0.352-0.299-0.67-0.459-1.295-0.486c-0.267-0.262-1.594-0.521-2.271-0.324
	c0,0.055,0,0.108,0,0.161c-0.271,0-0.54,0-0.812,0c0,0.055,0,0.109,0,0.163c-0.161,0-0.324,0-0.486,0c0,0.055,0,0.108,0,0.162
	c-0.109,0-0.215,0-0.323,0c0,0.054,0,0.108,0,0.162c-0.163,0-0.322,0-0.487,0c-0.105,0.162-0.216,0.325-0.324,0.486
	c-0.106,0-0.215,0-0.324,0c-0.053,0.108-0.106,0.216-0.16,0.324C38.63,4.267,38.357,4.485,38.092,4.7c0,0.107,0,0.215,0,0.325
	c-0.164,0.105-0.327,0.214-0.488,0.323c-0.056,0.324-0.109,0.648-0.162,0.972c-0.054,0-0.108,0-0.162,0c0,0.163,0,0.324,0,0.486
	c-0.055,0-0.109,0-0.162,0c0,0.108,0,0.215,0,0.324c-0.056,0-0.108,0-0.161,0c0,0.378,0,0.757,0,1.135c-0.056,0-0.11,0-0.163,0
	c0,0.217,0,0.432,0,0.646c-0.161,0.057-0.324,0.11-0.486,0.163c0,0.055,0,0.109,0,0.162c-0.054,0-0.108,0-0.162,0
	c0-0.053,0-0.108,0-0.162c-0.215-0.106-0.433-0.215-0.648-0.322c-0.054-0.325-0.108-0.65-0.163-0.976c-0.055,0-0.108,0-0.162,0
	c-0.324-0.938,0.207-3.121,0.486-3.565c0.541-0.645,1.081-1.294,1.622-1.942c0.108,0,0.215,0,0.324,0
	c0.053-0.109,0.108-0.217,0.161-0.324c0.055,0,0.107,0,0.163,0c0-0.162,0-0.325,0-0.485c-0.421-0.252-0.828-0.787-1.296-0.974
	c-1.004-0.401-2.034-0.072-3.242-0.324c0-0.056,0-0.108,0-0.162c-0.324,0.053-0.649,0.106-0.973,0.162c-0.919,0-1.839,0-2.756,0
	c0,0.053,0,0.108,0,0.163c-0.324,0.054-0.649,0.108-0.971,0.161c0,0.055,0,0.109,0,0.164c-0.165,0-0.327,0-0.489,0
	c-0.109,0.161-0.215,0.323-0.324,0.486c-0.106,0-0.215,0-0.32,0C27.5,1.241,27.446,1.35,27.391,1.46
	c-0.215,0.161-0.432,0.323-0.648,0.485c-0.054,0.215-0.106,0.432-0.159,0.648c-0.108,0.055-0.217,0.108-0.324,0.161
	c0,0.109,0,0.218,0,0.325c-0.057,0-0.108,0-0.164,0c0,0.108,0,0.216,0,0.324c-0.055,0-0.108,0-0.16,0c0,0.163,0,0.324,0,0.486
	c-0.057,0-0.109,0-0.164,0c-0.24,0.769,0.272,2.005,0.488,2.431c0.055,0,0.107,0,0.163,0c0,0.163,0,0.324,0,0.486
	c0.161,0.054,0.32,0.108,0.485,0.162c0.304,0.269,0.299,0.731,0.323,1.297c-0.184,0.136-0.024-0.022-0.163,0.162
	c-0.325-0.093-0.141,0.019-0.325-0.162c-0.106,0-0.215,0-0.32,0c0-0.054,0-0.108,0-0.163c-0.327-0.269-0.651-0.541-0.975-0.809
	c-0.053-0.163-0.108-0.325-0.161-0.487c-0.324-0.107-0.649-0.217-0.974-0.323c0-0.055,0-0.108,0-0.163c-0.106,0-0.217,0-0.324,0
	c-0.053-0.108-0.107-0.216-0.161-0.323c-0.111,0-0.216,0-0.325,0c-0.054-0.109-0.109-0.216-0.16-0.324c-0.11,0-0.219,0-0.326,0
	c0-0.054,0-0.109,0-0.163c-0.269,0-0.54,0-0.812,0c0-0.053,0-0.107,0-0.161c-0.16,0-0.323,0-0.484,0c0-0.054,0-0.109,0-0.163
	c-0.108,0-0.216,0-0.327,0c0-0.055,0-0.108,0-0.16c-0.644,0-1.293,0-1.941,0c0-0.055,0-0.109,0-0.163c-0.055,0-0.109,0-0.162,0
	c0,0.053,0,0.108,0,0.163c-0.22,0-0.434,0-0.649,0c0,0.052,0,0.105,0,0.16c-0.271,0-0.54,0-0.811,0c0,0.054,0,0.109,0,0.163
	c-0.108,0-0.217,0-0.324,0c0,0.054,0,0.108,0,0.161c-0.107,0-0.216,0-0.322,0c-0.379,0.272-0.759,0.541-1.136,0.811
	c-0.273,0.385-0.304,0.834-0.648,1.135c-0.038,0.636-0.44,2.166-0.163,2.918c0.055,0,0.108,0,0.163,0c0,0.107,0,0.216,0,0.323
	c0.052,0,0.106,0,0.161,0c0,0.108,0,0.216,0,0.324c0.055,0,0.107,0,0.16,0C15.776,11.184,15.829,11.346,15.885,11.508z
	 M14.428,10.696c-0.11,0-0.219,0-0.326,0c-0.011,1.747,1.014,3.277,2.268,3.729c1.939,0.694,4.836-0.211,5.188-1.621
	c0.661-0.611,0.489-1.663,0.163-2.431c-0.187,0.185-0.066,0.001-0.163,0.323c-0.053,0-0.107,0-0.164,0c0,0.162,0,0.324,0,0.488
	c-0.107,0.052-0.214,0.106-0.32,0.162c0,0.106,0,0.217,0,0.321c-0.164,0.11-0.324,0.218-0.486,0.325
	c-0.218,0.27-0.434,0.541-0.649,0.811c-0.701,0.47-1.895,0.496-3.079,0.486c-0.347-0.494-0.23-0.069-0.65-0.325
	c-0.16-0.214-0.322-0.431-0.486-0.646c-0.105,0-0.215,0-0.321,0C15.094,12.094,14.529,11.159,14.428,10.696z M100.977,37.115
	c0-0.108,0-0.216,0-0.322c-0.271-0.162-0.54-0.324-0.811-0.487c-0.055-0.162-0.11-0.322-0.163-0.487c-0.108,0-0.214,0-0.324,0
	c-0.056-0.106-0.109-0.214-0.162-0.325c-0.163-0.052-0.325-0.106-0.486-0.16c0-0.055,0-0.108,0-0.163c-0.108,0-0.216,0-0.324,0
	c-0.271-0.323-0.54-0.647-0.811-0.971c-0.485-0.163-0.974-0.326-1.457-0.487l-0.326-0.324c-0.106,0-0.215,0-0.324,0
	c-0.051-0.108-0.107-0.216-0.16-0.324c-0.324-0.106-0.648-0.217-0.973-0.322c0-0.055,0-0.108,0-0.163
	c-0.54-0.109-1.08-0.216-1.622-0.324c0-0.055,0-0.108,0-0.163c-0.107,0-0.217,0-0.324,0c0-0.054,0-0.107,0-0.162
	c-0.377-0.054-0.757-0.108-1.134-0.161c0-0.055,0-0.11,0-0.161c-0.161,0-0.324,0-0.485,0c0-0.054,0-0.109,0-0.163
	c-0.163,0-0.325,0-0.487,0c0-0.055,0-0.108,0-0.162c-0.162,0-0.323,0-0.485,0c0-0.056,0-0.108,0-0.163
	c-0.378-0.054-0.758-0.108-1.137-0.162c0-0.053,0-0.108,0-0.161c-0.429,0-0.861,0-1.296,0c0-0.054,0-0.107,0-0.163
	c-0.484-0.054-0.973-0.108-1.459-0.163c0-0.051,0-0.105,0-0.16c-0.377,0-0.756,0-1.136,0c0-0.054,0-0.109,0-0.161
	c-0.646,0-1.296,0-1.942,0c-1.38-0.225-5.11-0.041-6.809,0.484c-0.593,0.056-1.188,0.109-1.783,0.163c0,0.053,0,0.108,0,0.161
	c-0.162,0-0.324,0-0.487,0c0,0.054,0,0.108,0,0.162c-0.377,0.055-0.754,0.107-1.131,0.163c0,0.054,0,0.107,0,0.162
	c-0.649,0.054-1.301,0.109-1.946,0.163c0,0.051,0,0.106,0,0.161c-0.162,0-0.324,0-0.486,0c0,0.054,0,0.107,0,0.161
	c-0.215,0.055-0.433,0.108-0.649,0.162c0,0.055,0,0.108,0,0.163c-0.701,0.161-1.403,0.324-2.107,0.487c0,0.051,0,0.105,0,0.159
	c-0.108,0-0.216,0-0.32,0c0,0.057,0,0.11,0,0.163c-0.813,0.161-1.623,0.324-2.435,0.486c0,0.054,0,0.107,0,0.162
	c-0.108,0-0.216,0-0.324,0c0,0.055,0,0.108,0,0.161c-0.485,0.054-0.972,0.107-1.459,0.163c0,0.054,0,0.108,0,0.163
	c-0.161,0-0.321,0-0.482,0c0,0.053,0,0.107,0,0.16c-0.219,0-0.435,0-0.653,0c0,0.055,0,0.109,0,0.163c-0.214,0-0.43,0-0.645,0
	c0,0.054,0,0.109,0,0.161c-0.056,0-0.109,0-0.162,0c0,0-0.139-0.204-0.324-0.161c0,0.054,0,0.109,0,0.161c-0.325,0-0.649,0-0.975,0
	c0,0.055,0,0.109,0,0.163c-0.161,0-0.324,0-0.485,0c0,0.053,0,0.108,0,0.163c-0.27,0-0.541,0-0.81,0c0,0.052,0,0.107,0,0.16
	c-0.648,0-1.297,0-1.947,0c0,0.055,0,0.108,0,0.163c-0.269,0-0.539,0-0.809,0c0,0.054,0,0.108,0,0.16c-1.134,0-2.269,0-3.403,0
	c-1.933,0-3.611-0.171-5.024-0.646c-0.325,0-0.647,0-0.974,0c0-0.054,0-0.108,0-0.163c-0.161,0-0.324,0-0.485,0
	c0-0.052,0-0.107,0-0.161c-0.108,0-0.216,0-0.323,0c0-0.054,0-0.108,0-0.163c-0.165,0-0.325,0-0.487,0c0-0.053,0-0.107,0-0.16
	c-0.107,0-0.217,0-0.322,0c0-0.055,0-0.109,0-0.163c-0.166,0-0.326,0-0.488,0c0-0.056,0-0.109,0-0.163c-0.107,0-0.217,0-0.322,0
	c-0.057-0.106-0.109-0.216-0.164-0.323c-0.162,0-0.324,0-0.486,0c0-0.055,0-0.108,0-0.162c-0.161,0-0.322,0-0.485,0
	c0-0.053,0-0.108,0-0.163c-0.162,0-0.324,0-0.487,0c-0.108-0.161-0.214-0.324-0.324-0.483c-0.216-0.055-0.433-0.108-0.647-0.163
	c-0.161-0.216-0.324-0.433-0.487-0.649c-0.161-0.054-0.324-0.108-0.486-0.161c-0.055-0.11-0.109-0.215-0.162-0.324
	c-0.109,0-0.216,0-0.324,0c-0.053-0.108-0.106-0.218-0.159-0.325c-0.165-0.054-0.327-0.108-0.489-0.162c0,0.054,0,0.108,0,0.162
	c-0.338,0.296-0.415,0.722-0.648,1.136c-0.055,0-0.107,0-0.161,0c0,0.108,0,0.215,0,0.324c-0.055,0-0.107,0-0.165,0
	c0,0.108,0,0.214,0,0.322c-0.054,0-0.106,0-0.158,0c-0.232,0.29-0.374,0.387-0.488,0.812c0.5,0.342,0.071,0.226,0.327,0.647
	c0.161,0.109,0.319,0.217,0.484,0.324c0.054,0.163,0.106,0.326,0.161,0.486c0.108,0,0.217,0,0.323,0
	c0.054,0.108,0.109,0.217,0.164,0.323c0.107,0,0.216,0,0.322,0l0.327,0.325c0.106,0,0.215,0,0.322,0c0,0.054,0,0.107,0,0.165
	c0.108,0,0.214,0,0.323,0c0.053,0.106,0.107,0.212,0.162,0.322c0.11,0,0.215,0,0.324,0c0,0.053,0,0.107,0,0.163
	c0.11,0,0.218,0,0.326,0c0,0.052,0,0.105,0,0.162c0.323,0.053,0.647,0.107,0.972,0.162c0,0.054,0,0.106,0,0.159
	c0.106,0,0.215,0,0.324,0c0,0.055,0,0.109,0,0.163c0.702,0.107,1.403,0.215,2.104,0.324c0,0.055,0,0.108,0,0.164
	c0.488,0.053,0.976,0.106,1.46,0.158c0,0.057,0,0.109,0,0.165c0.324,0,0.65,0,0.973,0c0,0.055,0,0.108,0,0.161
	c0.486,0,0.974,0,1.461,0c0,0.054,0,0.107,0,0.162c0.161,0,0.321,0,0.484,0c0,0.055,0,0.108,0,0.162c1.136,0,2.269,0,3.404,0
	c1.025,0,2.051,0,3.08,0c0-0.054,0-0.107,0-0.162c0.161,0.055,0.323,0.108,0.484,0.162c0-0.054,0-0.107,0-0.162
	c0.218,0,0.433,0,0.647,0c0-0.055,0-0.108,0-0.162c0.489,0,0.973,0,1.46,0c0-0.053,0-0.106,0-0.161c0.162,0,0.324,0,0.487,0
	c0-0.056,0-0.108,0-0.165c0.325,0,0.647,0,0.971,0c0-0.052,0-0.105,0-0.158c0.76-0.056,1.514-0.109,2.271-0.164
	c0-0.056,0-0.109,0-0.161c0.215,0,0.43,0,0.647,0c0-0.056,0-0.106,0-0.163c0.109,0,0.217,0,0.325,0c0-0.054,0-0.108,0-0.163
	c0.269,0,0.54,0,0.809,0c0-0.053,0-0.105,0-0.159c0.271,0,0.539,0,0.811,0c0-0.056,0-0.109,0-0.162
	c0.863-0.11,1.728-0.218,2.595-0.325c2.936-0.947,6.182-1.625,9.076-2.594c0.376-0.055,0.755-0.108,1.134-0.162
	c0.01,0,0.072,0.214,0.325,0.162c0-0.055,0-0.108,0-0.162c0.161,0,0.321,0,0.484,0c0-0.055,0-0.108,0-0.162c0.379,0,0.756,0,1.135,0
	c0-0.053,0-0.108,0-0.163c0.324,0,0.646,0,0.974,0c0-0.053,0-0.106,0-0.161c0.701,0,1.403,0,2.106,0c0-0.053,0-0.106,0-0.163
	c0.486,0,0.973,0,1.457,0c0-0.054,0-0.108,0-0.159c0.752-0.214,3.84,0.005,4.378,0.159c1.08,0.057,2.16,0.11,3.242,0.163
	c0,0.055,0,0.108,0,0.161c0.216,0,0.431,0,0.646,0c0,0.056,0,0.11,0,0.163c0.163,0,0.325,0,0.487,0c0,0.055,0,0.107,0,0.162
	c0.162,0,0.324,0,0.486,0c0,0.054,0,0.107,0,0.162c0.162,0,0.324,0,0.486,0c0,0.055,0,0.108,0,0.161
	c0.324,0.054,0.648,0.107,0.973,0.163c0,0.054,0,0.108,0,0.163c0.107,0,0.218,0,0.325,0c0,0.053,0,0.107,0,0.16
	c0.27,0.055,0.541,0.109,0.811,0.163c0,0.054,0,0.109,0,0.161c0.378,0.055,0.755,0.109,1.136,0.163
	c0.052,0.108,0.104,0.215,0.158,0.323c0.164,0,0.324,0,0.488,0c0,0.055,0,0.108,0,0.163c0.162,0,0.324,0,0.485,0
	c0,0.054,0,0.108,0,0.16c0.108,0,0.218,0,0.323,0c0,0.054,0,0.111,0,0.164c0.11,0,0.217,0,0.324,0
	c0.057,0.106,0.108,0.215,0.163,0.326c0.271,0.053,0.54,0.106,0.811,0.16c0.053,0.107,0.106,0.215,0.162,0.325
	c0.11,0,0.216,0,0.324,0c0.053,0.105,0.108,0.215,0.163,0.324c0.107,0,0.214,0,0.324,0c0,0.054,0,0.106,0,0.159
	C100.651,37.006,100.813,37.061,100.977,37.115z M99.354,37.278c0-0.106,0-0.217,0-0.326c-0.162-0.053-0.323-0.105-0.486-0.159
	c-0.053-0.109-0.107-0.219-0.161-0.324c-0.163,0-0.324,0-0.487,0c0-0.056,0-0.11,0-0.163c-0.215-0.055-0.432-0.11-0.647-0.162
	c0-0.054,0-0.107,0-0.16c-0.162,0-0.326,0-0.486,0c0-0.058,0-0.111,0-0.165c-0.107,0-0.218,0-0.322,0c0-0.055,0-0.106,0-0.161
	c-0.11,0-0.218,0-0.325,0c0-0.053,0-0.11,0-0.164c-0.217-0.052-0.433-0.106-0.65-0.16c0-0.055,0-0.108,0-0.163
	c-0.375-0.053-0.756-0.108-1.133-0.16c0-0.055,0-0.11,0-0.163c-0.109,0-0.217,0-0.325,0c0-0.054,0-0.108,0-0.163
	c-0.324-0.052-0.648-0.107-0.973-0.161c0-0.054,0-0.108,0-0.163c-0.109,0-0.215,0-0.324,0c0-0.053,0-0.107,0-0.16
	c-0.217,0-0.43,0-0.648,0c0-0.055,0-0.109,0-0.163c-0.162,0-0.325,0-0.487,0c0-0.056,0-0.109,0-0.163c-0.322,0-0.646,0-0.971,0
	c0-0.053,0-0.106,0-0.161c-0.271,0-0.541,0-0.81,0c0-0.055,0-0.108,0-0.162c-0.054,0-0.108,0-0.162,0c0,0.054,0,0.107,0,0.162
	c-0.055,0-0.11,0-0.162,0c0-0.055,0-0.108,0-0.162c-0.649,0-1.297,0-1.945,0c0-0.055,0-0.108,0-0.162c-0.216,0-0.432,0-0.647,0
	c0,0.055,0,0.107,0,0.162c-0.332,0.054-0.611-0.306-1.138-0.162c0,0.055,0,0.107,0,0.162c-0.754,0-1.511,0-2.269,0
	c0,0.054,0,0.107,0,0.162c-0.161-0.055-0.324-0.108-0.484-0.162c0,0.054,0,0.107,0,0.162c-0.596,0-1.188,0-1.784,0
	c0,0.055,0,0.108,0,0.161c-0.43,0-0.863,0-1.295,0c0,0.054,0,0.107,0,0.163c-1.458,0.163-2.918,0.323-4.377,0.486
	c0,0.054,0,0.109,0,0.161c-0.162,0-0.323,0-0.484,0c0,0.055,0,0.109,0,0.163c-0.543,0.108-1.085,0.215-1.623,0.323
	c0,0.055,0,0.108,0,0.163c-0.107,0-0.216,0-0.325,0c0,0.054,0,0.108,0,0.16c-0.269,0-0.54,0-0.808,0c0,0.054,0,0.111,0,0.164
	c-0.219,0-0.435,0-0.649,0c0,0.055,0,0.106,0,0.161c-0.164,0-0.327,0-0.486,0c0,0.054,0,0.107,0,0.165c-0.271,0-0.539,0-0.811,0
	c0,0.053,0,0.106,0,0.16c-0.216,0-0.435,0-0.649,0c0,0.052,0,0.107,0,0.162c-0.162,0-0.323,0-0.486,0c0,0.053,0,0.107,0,0.163
	c-0.269,0-0.539,0-0.811,0c0,0.052,0,0.105,0,0.162c-0.269,0-0.537,0-0.809,0c0,0.053,0,0.107,0,0.162c-0.164,0-0.325,0-0.484,0
	c0,0.054,0,0.106,0,0.159c-0.436,0.055-0.868,0.109-1.299,0.163c0,0.057,0,0.107,0,0.163c-0.485,0.052-0.971,0.105-1.46,0.161
	c0,0.055,0,0.108,0,0.164c-0.324,0-0.647,0-0.972,0c0,0.053,0,0.106,0,0.158c-0.323,0-0.648,0-0.97,0c0,0.057,0,0.109,0,0.165
	c-0.164,0-0.327,0-0.49,0c0,0.055,0,0.108,0,0.161c-0.321,0-0.648,0-0.97,0c0,0.054,0,0.107,0,0.162c-0.324,0-0.649,0-0.974,0
	c0,0.055,0,0.108,0,0.162c-0.214,0-0.433,0-0.649,0c0,0.055,0,0.108,0,0.162c-0.271,0-0.539,0-0.808,0c0,0.057,0,0.109,0,0.162
	c-0.758,0.054-1.515,0.11-2.268,0.161c0,0.054,0,0.107,0,0.161c-0.813,0-1.624,0-2.435,0c-0.604,0.169-2.223,0.387-3.078,0.162
	c0-0.051,0-0.105,0-0.162c-0.322,0.057-0.651,0.111-0.975,0.162c0-0.051,0-0.105,0-0.162c-0.433,0-0.864,0-1.294,0
	c0-0.054,0-0.107,0-0.161c-0.433,0-0.863,0-1.297,0c0-0.051,0-0.107,0-0.161c-0.163,0-0.325,0-0.487,0c0-0.053,0-0.105,0-0.162
	c-0.701-0.054-1.404-0.107-2.104-0.162c0-0.054,0-0.107,0-0.162c-0.11,0-0.219,0-0.326,0c0-0.055,0-0.108,0-0.162
	c-0.484,0-0.973,0-1.457,0c0-0.053,0-0.106,0-0.161c-0.11,0-0.22,0-0.325,0c0-0.056,0-0.108,0-0.165c-0.216,0-0.434,0-0.649,0
	c0-0.052,0-0.105,0-0.158c-0.161,0-0.323,0-0.485,0c0-0.056,0-0.109,0-0.164c-0.217,0-0.432,0-0.649,0
	c-0.053-0.109-0.109-0.217-0.161-0.324c-0.163,0-0.325,0-0.487,0c-0.053-0.108-0.109-0.216-0.161-0.322c-0.163,0-0.322,0-0.487,0
	c0-0.056,0-0.109,0-0.162c-0.162-0.057-0.324-0.11-0.484-0.162c-0.055-0.11-0.11-0.218-0.164-0.325
	c-0.215-0.054-0.431-0.107-0.649-0.16c-0.054-0.111-0.106-0.22-0.158-0.326c-0.395-0.371-0.9-0.978-1.46-1.135
	c-0.592,0.967-2.74,2.136-3.891,2.593c-0.217,0-0.432,0-0.646,0c0,0.057,0,0.107,0,0.163c-0.109,0-0.218,0-0.325,0
	c0,0.052,0,0.105,0,0.161c-0.27,0-0.541,0-0.81,0c0,0.055,0,0.108,0,0.164c-0.643,0.192-1.688-0.05-2.109,0.323
	c0.185,0.136,0.025-0.022,0.165,0.161c0.16,0.054,0.322,0.107,0.484,0.162c0.053,0.108,0.108,0.217,0.162,0.324
	c0.162,0,0.324,0,0.486,0c0,0.057,0,0.109,0,0.162c0.108,0,0.216,0,0.324,0c0,0.054,0,0.11,0,0.161c0.108,0,0.215,0,0.325,0
	c0.052,0.107,0.104,0.218,0.162,0.323c0.161,0,0.324,0,0.485,0c0,0.058,0,0.109,0,0.163c0.107,0,0.216,0,0.324,0
	c0,0.056,0,0.109,0,0.162c0.107,0,0.216,0,0.325,0c0,0.054,0,0.11,0,0.163c0.105,0,0.215,0,0.324,0c0,0.054,0,0.108,0,0.164
	c0.377,0.052,0.754,0.106,1.131,0.16c0,0.055,0,0.108,0,0.161c0.11,0,0.219,0,0.327,0c0,0.054,0,0.11,0,0.163
	c0.541,0.109,1.08,0.216,1.619,0.323c0,0.056,0,0.108,0,0.163c0.11,0,0.216,0,0.327,0c0,0.053,0,0.108,0,0.163
	c0.214,0,0.432,0,0.647,0c0,0.055,0,0.106,0,0.16c0.106,0,0.214,0,0.324,0c0,0.055,0,0.108,0,0.164c0.269,0,0.538,0,0.809,0
	c0,0.052,0,0.106,0,0.162c0.163,0,0.327,0,0.488,0c0,0.053,0,0.106,0,0.162c0.105,0,0.216,0,0.323,0c0,0.053,0,0.107,0,0.16
	c0.484,0.056,0.971,0.109,1.457,0.162c0,0.054,0,0.107,0,0.162c0.215,0,0.432,0,0.649,0c0,0.057,0,0.107,0,0.162
	c0.215,0,0.434,0,0.65,0c0,0.056,0,0.108,0,0.162c0.862,0.056,1.728,0.109,2.592,0.161c0,0.057,0,0.111,0,0.165
	c0.756,0.053,1.515,0.106,2.269,0.161c0,0.054,0,0.108,0,0.163c0.216,0,0.434,0,0.65,0c0-0.055,0-0.109,0-0.163
	c0.269,0,0.537,0,0.809,0c0,0.054,0,0.108,0,0.163c0.272-0.055,0.543-0.109,0.812-0.163c0,0.054,0,0.108,0,0.163
	c0.216,0,0.434,0,0.647,0c0,0.054,0,0.106,0,0.16c1.623-0.106,3.243-0.215,4.863-0.323c1.694,0.314,4.687-0.367,6.483-0.974
	c1.242-0.162,2.486-0.322,3.727-0.484c0-0.057,0-0.11,0-0.162c0.379-0.056,0.757-0.109,1.136-0.164c0-0.054,0-0.105,0-0.16
	c0.161,0,0.324,0,0.485,0c0-0.055,0-0.11,0-0.163c0.324,0,0.649,0,0.974,0c0-0.055,0-0.107,0-0.163c0.16,0,0.324,0,0.485,0
	c0-0.053,0-0.107,0-0.16c0.216,0,0.431,0,0.648,0c0-0.054,0-0.109,0-0.163c0.108,0,0.216,0,0.324,0c0-0.053,0-0.109,0-0.163
	c0.216,0,0.432,0,0.649,0c0-0.053,0-0.106,0-0.161c1.08-0.16,2.161-0.324,3.241-0.487c0-0.053,0-0.106,0-0.162
	c0.162,0,0.324,0,0.487,0c0-0.054,0-0.105,0-0.163c0.162,0,0.324,0,0.483,0c0-0.051,0-0.105,0-0.162
	c0.595-0.107,1.19-0.212,1.785-0.322c0-0.053,0-0.105,0-0.162c0.108,0,0.213,0,0.324,0c0-0.054,0-0.107,0-0.162
	c0.376-0.054,0.756-0.107,1.133-0.162c0-0.055,0-0.108,0-0.162c0.81-0.106,1.62-0.217,2.434-0.326c0-0.052,0-0.105,0-0.158
	c0.214,0,0.432,0,0.646,0c0-0.056,0-0.109,0-0.164c0.108,0,0.219,0,0.323,0c0-0.056,0-0.109,0-0.161c0.162,0,0.327,0,0.489,0
	c0-0.056,0-0.106,0-0.163c0.432-0.054,0.865-0.108,1.295-0.163c0-0.053,0-0.105,0-0.159c0.379,0,0.759,0,1.138,0
	c0-0.056,0-0.109,0-0.162c0.214,0,0.431,0,0.646,0c0-0.057,0-0.11,0-0.162c0.271,0,0.539,0,0.811,0c0-0.056,0-0.11,0-0.163
	c0.269,0,0.539,0,0.812,0c0-0.055,0-0.11,0-0.162c0.594,0,1.188,0,1.78,0c0-0.054,0-0.107,0-0.16c0.54,0,1.083,0,1.621,0
	c0.378-0.108,1.698-0.487,2.27-0.326c0,0.055,0,0.106,0,0.161c0.703,0,1.404,0,2.106,0c0,0.054,0,0.107,0,0.165
	c0.594,0,1.188,0,1.783,0c0,0.053,0,0.106,0,0.16c0.218,0,0.431,0,0.649,0c0,0.052,0,0.107,0,0.162c0.162,0,0.324,0,0.486,0
	c0,0.053,0,0.107,0,0.163c0.16,0,0.322,0,0.484,0c0,0.052,0,0.105,0,0.162c0.217,0,0.434,0,0.651,0c0,0.053,0,0.107,0,0.162
	c0.375,0,0.755,0,1.132,0c0,0.054,0,0.106,0,0.159c0.108,0,0.218,0,0.323,0c0,0.055,0,0.109,0,0.163
	C98.6,37.171,98.977,37.222,99.354,37.278z"/>
</svg>
