<?xml version="1.0" encoding="utf-8"?>
<!-- Generator: Adobe Illustrator 17.0.0, SVG Export Plug-In . SVG Version: 6.00 Build 0)  -->
<!DOCTYPE svg PUBLIC "-//W3C//DTD SVG 1.1//EN" "http://www.w3.org/Graphics/SVG/1.1/DTD/svg11.dtd">
<svg version="1.1" id="图层_1" xmlns="http://www.w3.org/2000/svg" xmlns:xlink="http://www.w3.org/1999/xlink" x="0px" y="0px"
	 width="64px" height="64px" viewBox="0 0 64 64" enable-background="new 0 0 64 64" xml:space="preserve">
<path fill="#E0995E" d="M32,0c17.673,0,32,14.327,32,32S49.673,64,32,64S0,49.673,0,32S14.327,0,32,0z"/>
<path opacity="0.2" fill="#231F20" d="M49.5,22.333h-5c0,0-1.445,0-2.5-2.667C41.463,18.309,40.88,17,39.5,17h-10
	c-1.38,0-1.98,1.301-2.5,2.667c-1.015,2.667-2.5,2.667-2.5,2.667H22c0-1.472-1.12-2.667-2.5-2.667H17c-1.38,0-2.5,1.195-2.5,2.667
	c-1.38,0-2.5,1.195-2.5,2.667v21.333C12,47.805,13.12,49,14.5,49h35c1.38,0,2.5-1.195,2.5-2.667V25
	C52,23.528,50.88,22.333,49.5,22.333z"/>
<path fill="#4F5D73" d="M49.5,20h-5c0,0-1.445,0.333-2.5-2.333C41.463,16.309,40.88,15,39.5,15h-10c-1.38,0-1.98,1.301-2.5,2.667
	C25.985,20.333,24.5,20,24.5,20H22c0-1.472-1.12-2-2.5-2H17c-1.38,0-2.5,0.528-2.5,2c-1.38,0-2.5,1.528-2.5,3v21.333
	C12,45.805,13.12,47,14.5,47h35c1.38,0,2.5-1.195,2.5-2.667V23C52,21.528,50.88,20,49.5,20z"/>
<path fill="#77B3D4" d="M34,24c4.971,0,9,4.029,9,9s-4.029,9-9,9s-9-4.029-9-9S29.029,24,34,24z"/>
<path fill="#FFFFFF" d="M34,43.5c-5.79,0-10.5-4.71-10.5-10.5S28.21,22.5,34,22.5S44.5,27.21,44.5,33S39.79,43.5,34,43.5z M34,25.5
	c-4.136,0-7.5,3.364-7.5,7.5s3.364,7.5,7.5,7.5s7.5-3.364,7.5-7.5S38.136,25.5,34,25.5z"/>
</svg>
