<?xml version="1.0" encoding="utf-8"?><!DOCTYPE svg PUBLIC "-//W3C//DTD SVG 1.1//EN" "http://www.w3.org/Graphics/SVG/1.1/DTD/svg11.dtd"><svg version="1.1" baseProfile="full" xmlns="http://www.w3.org/2000/svg" xmlns:xlink="http://www.w3.org/1999/xlink" xmlns:ev="http://www.w3.org/2001/xml-events"   height="158px"   width="360px" ><path stroke="rgb( 14, 5, 10 )" stroke-width="0px" stroke-linecap="butt" stroke-linejoin="miter" fill="rgb( 54, 111, 124 )" d="M68.665,0 C128.162,0 231.678,0 291.882,0 C295.012,24.697 321,23 321,23 C321,23 359.384,75.985 321,136 C290.059,136.736 292.289,158 292.289,158 C292.289,158 68.977,158 68.977,158 C68.977,158 68.851,134.594 40,136 C0.556,72.639 40,23 40,23 C40,23 68.139,22.686 68.665,0 Z "/><path stroke="rgb( 14, 5, 10 )" stroke-width="0px" stroke-linecap="butt" stroke-linejoin="miter" fill="rgb( 255, 255, 255 )" d="M312.909,124.62 C296.728,123.246 281.905,145 281.905,145 C281.905,145 78.203,145 78.203,145 C78.203,145 70.937,125.683 47.977,124.62 C20.859,76.234 47.977,34.215 47.977,34.215 C47.977,34.215 72.127,32.114 77.943,13 C127.686,13 232.23,13 282.564,13 C288.493,30.978 312.909,34.215 312.909,34.215 C312.909,34.215 341.527,76.213 312.909,124.62 ZM312,39 C312,39 286.929,34.978 281,17 C230.666,17 129.743,17 80,17 C72.69,36.114 49.977,38.215 49.977,38.215 C49.977,38.215 25.751,74.805 49.977,120.62 C73.184,122.178 80.203,141 80.203,141 C80.203,141 281.905,141 281.905,141 C281.905,141 288.281,123.26 311,121 C334.242,73.421 312,39 312,39 Z "/></svg>