<?xml version="1.0" encoding="utf-8"?>
<!-- Generator: Adobe Illustrator 17.0.0, SVG Export Plug-In . SVG Version: 6.00 Build 0)  -->
<!DOCTYPE svg PUBLIC "-//W3C//DTD SVG 1.1//EN" "http://www.w3.org/Graphics/SVG/1.1/DTD/svg11.dtd">
<svg version="1.1" id="图层_1" xmlns="http://www.w3.org/2000/svg" xmlns:xlink="http://www.w3.org/1999/xlink" x="0px" y="0px"
	 width="87.029px" height="87.133px" viewBox="0 0 87.029 87.133" enable-background="new 0 0 87.029 87.133" xml:space="preserve">
<path fill="#004D92" d="M67.772,7.37C60.836,2.716,52.495,0,43.512,0h-0.06C30.18,0.014,18.298,5.978,10.321,15.353
	C3.855,22.965-0.047,32.815-0.047,43.564c0,10.758,3.903,20.607,10.368,28.21c7.979,9.38,19.859,15.335,33.131,15.359h0.06
	c8.982,0,17.325-2.725,24.26-7.376c11.643-7.821,19.304-21.112,19.304-36.193C87.076,28.487,79.415,15.192,67.772,7.37z
	 M67.772,61.258L50.134,75.975c-1.944,1.399-4.238,2.618-6.682,2.752c-0.933,0.054-1.891-0.05-2.854-0.363
	c-2.097-0.689-3.965-1.976-5.808-3.328l-24.156-19.74v-5.872l23.917,19.242c2.269,1.426,5.337,2.322,8.087,1.268
	c0.275-0.107,0.548-0.232,0.814-0.355c2.221-1.037,4.205-2.626,6.158-4.303l18.057-15.574l-4.15-3.372L44.644,61.846
	c-0.388,0.292-0.782,0.575-1.192,0.841c-1.613,1.014-3.418,1.673-5.406,1.262c-2.298-0.483-4.074-2.258-6.047-3.555L14.455,46.119
	c-1.329-1.014-2.683-2.07-3.877-3.265l-0.033-3.913l21.292,16.93c1.908,1.198,4.496,2.362,6.75,1.097l2.397-1.554l2.468-2.034
	l14.143-11.685c-0.835-0.946-2.311-1.905-3.402-1.76c-0.832,0.095-1.599,0.384-2.377,0.936l-8.366,6.932l-3.468,2.855
	c-1.028,0.694-2.79,1.541-4.089,1.237c-3.238-0.76-5.566-3.537-7.952-5.418L10.316,32.101l-0.227-0.19l0.227-0.185l24.788-20.514
	c2.774-2.013,5.581-3.029,8.347-3.143c3.417-0.146,6.768,1.071,9.911,3.421l14.41,11.837l8.82,7.264
	c0.017,0.029-0.011,5.684-0.035,5.674l-8.787-7.168l-9.563-7.801c-1.917-1.571-7.806-7.922-13.192-5.856
	c-0.539,0.206-1.058,0.445-1.565,0.712c-2.212,1.166-4.16,2.853-6.185,4.428L19.353,35.584c0.023,0.014,4.411,3.682,4.411,3.682
	l17.607-14.71c0.644-0.472,1.344-0.891,2.081-1.226c2.695-1.225,5.875-1.438,8.638-0.143c0,0,1.739,0.928,2.439,1.554
	c0.484,0.414,7.306,6.003,13.243,10.844c4.691,3.834,8.82,7.209,8.82,7.209c-0.035,1.279,0.057,2.914-0.098,4.157l-8.722-7.078
	l-12.067-9.807c-2.642-1.685-6.714-1.72-9.336,0.128c-0.983,0.787-1.948,1.568-2.916,2.349c-4.652,3.777-9.124,7.552-13.737,11.563
	c1.04,1.384,2.638,2.013,4.387,1.464l1.225-0.679l8.123-6.917l3.354-2.853c1.614-0.999,4.906-1.524,6.59-0.477l1.873,1.237
	l12.504,10.173l9.043,7.36v0.293L67.772,61.258z"/>
</svg>
