<?xml version="1.0" encoding="utf-8"?>
<!-- Generator: Adobe Illustrator 17.0.0, SVG Export Plug-In . SVG Version: 6.00 Build 0)  -->
<!DOCTYPE svg PUBLIC "-//W3C//DTD SVG 1.1//EN" "http://www.w3.org/Graphics/SVG/1.1/DTD/svg11.dtd">
<svg version="1.1" id="图层_1" xmlns="http://www.w3.org/2000/svg" xmlns:xlink="http://www.w3.org/1999/xlink" x="0px" y="0px"
	 width="150.036px" height="41.38px" viewBox="0 0 150.036 41.38" enable-background="new 0 0 150.036 41.38" xml:space="preserve">
<path fill="#191919" d="M144.156,14.481v-0.235h0.273h5.607v-2.234h-8.98v11.232l8.98-0.078v-2.459h-5.607h-0.18l-0.093-2.155h0.273
	l5.091-0.087v-2.226h-5.091h-0.273v-0.165V14.481z M150.036,28.113h0.263v0.232h-0.263V28.113z M150.036,28.346h0.263v0.883h-0.263
	V28.346z M150.036,29.229v-0.883L0.188,28.979v0.882L150.036,29.229z M150.036,28.346v-0.233L0.188,28.753v0.226L150.036,28.346z
	 M105.096,9.465V23.41l9.77-0.078l-0.094-3.119h-6.302v-2.7h5.881v-2.876l-0.725,0.009h-0.771h-0.808h-0.807h-0.789H109.7
	l-0.658-0.009h-0.572v-2.304h0.647h0.704h0.761l0.798,0.009h0.8h0.817l0.78-0.009h0.742V9.465H105.096z M95.853,14.887v0.236v8.287
	h3.457l-0.094-8.287v-0.236h0.264h3.202l-0.094-2.719H92.396l0.095,2.719H95.853z M91.016,14.481l-0.094-2.236h-8.895v11.251
	l9.242-0.086v-2.469l-5.617,0.077h-0.254v-0.242v-2.07h0.254h5.091v-2.233h-5.345v-0.157v-1.593v-0.242H91.016z M78.823,9.622
	h-3.101v7.413v0.156l-4.678-7.569h-3.109v13.874h3.193l-0.084-7.344l4.416,7.344h3.447L78.823,9.622z M124.54,12.09h-3.71
	l-4.068,11.242h3.457l0.443-1.836h0.244h3.9l0.252,1.748h3.635L124.54,12.09L124.54,12.09z M122.56,15.285l1.202,3.742h-2.152
	L122.56,15.285z M0,34.963l1.728,6.902h2.161l1.391-4.009l1.371,4.009H8.85l1.794-6.902H8.417l-0.892,3.689l-1.231-3.689H4.171
	L3.043,38.6l-0.882-3.637H0z M15.593,34.963l1.748,6.902h2.161l1.39-4.009l1.371,4.009h2.198l1.786-6.902H24.01l-0.893,3.689
	l-1.231-3.689h-2.112L18.638,38.6l-0.883-3.637H15.593z M31.318,34.963l1.747,6.902h2.162l1.391-4.009l1.371,4.009h2.198
	l1.803-6.902h-2.253l-0.885,3.689l-1.231-3.689h-2.113L34.373,38.6l-0.893-3.637H31.318z M48.491,37.171h2.432v2.252h-2.432V37.171z
	 M102.147,37.171h2.433v2.252h-2.433V37.171z M119.123,36.211l-1.485,0.752l-0.113-0.095l-0.093-0.087l-0.104-0.088l-0.103-0.068
	l-0.095-0.069l-0.113-0.051l-0.103-0.052l-0.094-0.044l-0.104-0.044l-0.112-0.024l-0.115-0.027l-0.111-0.026l-0.122-0.017
	l-0.132-0.018l-0.131-0.008h-0.132l-0.245,0.008l-0.234,0.034l-0.103,0.019l-0.104,0.017l-0.111,0.026l-0.094,0.026l-0.115,0.041
	l-0.092,0.045l-0.094,0.044l-0.085,0.051l-0.094,0.053l-0.076,0.052l-0.094,0.061l-0.065,0.068l-0.085,0.07l-0.055,0.069
	l-0.066,0.068l-0.075,0.078l-0.038,0.089l-0.066,0.067l-0.046,0.096l-0.038,0.086l-0.029,0.078l-0.037,0.096l-0.028,0.085
	l-0.019,0.105l-0.02,0.096l-0.008,0.112l-0.01,0.095v0.104v0.104l0.01,0.096l0.008,0.096l0.02,0.104l0.019,0.077l0.028,0.105
	l0.037,0.086l0.029,0.078l0.038,0.085l0.038,0.08l0.055,0.078l0.049,0.086l0.055,0.061l0.073,0.077l0.058,0.07l0.074,0.068
	l0.067,0.061l0.094,0.053l0.076,0.061l0.085,0.053l0.085,0.033l0.092,0.053l0.103,0.043l0.085,0.025l0.096,0.043l0.111,0.019
	l0.095,0.026l0.111,0.017l0.218,0.017l0.235,0.009h0.149l0.151-0.009l0.14-0.017l0.133-0.017l0.121-0.026l0.132-0.034l0.122-0.035
	l0.112-0.043l0.112-0.052l0.112-0.052l0.104-0.062l0.111-0.069l0.086-0.07l0.103-0.086l0.075-0.078l0.094-0.095l1.4,0.883
	l-0.142,0.166l-0.158,0.146l-0.161,0.14l-0.169,0.138l-0.179,0.121l-0.179,0.112l-0.187,0.104l-0.196,0.078l-0.208,0.087
	l-0.215,0.061l-0.217,0.059l-0.234,0.044l-0.226,0.034l-0.244,0.027l-0.245,0.026h-0.254h-0.226l-0.234-0.011l-0.206-0.032
	l-0.217-0.027l-0.197-0.026l-0.197-0.045l-0.196-0.058l-0.188-0.053l-0.18-0.069l-0.169-0.078l-0.169-0.079l-0.16-0.084
	l-0.149-0.105l-0.152-0.104l-0.14-0.12l-0.143-0.114l-0.122-0.119l-0.112-0.132l-0.123-0.138l-0.092-0.138l-0.095-0.139l-0.094-0.14
	l-0.084-0.138l-0.058-0.147l-0.067-0.148L112,39.129l-0.037-0.147l-0.04-0.175l-0.027-0.163l-0.027-0.164l-0.019-0.166v-0.162
	l0.008-0.228l0.03-0.225l0.046-0.225l0.048-0.216l0.073-0.217l0.096-0.199l0.104-0.209l0.111-0.198l0.151-0.2l0.141-0.181
	l0.16-0.166l0.169-0.164l0.187-0.147l0.197-0.138l0.217-0.121l0.205-0.132l0.244-0.103l0.237-0.087l0.243-0.087l0.253-0.052
	l0.253-0.06l0.274-0.034l0.261-0.018l0.293-0.009l0.253,0.009l0.264,0.018l0.244,0.025l0.234,0.045l0.235,0.051l0.235,0.068
	l0.207,0.07l0.216,0.096l0.207,0.095l0.198,0.121l0.177,0.123l0.189,0.129l0.159,0.138l0.16,0.147l0.142,0.165L119.123,36.211
	L119.123,36.211z M129.782,34.754l0.235,0.01l0.264,0.025l0.245,0.035l0.234,0.043l0.244,0.069l0.227,0.078l0.233,0.087l0.217,0.103
	l0.225,0.122l0.206,0.132l0.189,0.136l0.177,0.149l0.159,0.155l0.162,0.164l0.141,0.183l0.122,0.199l0.132,0.199l0.084,0.199
	l0.094,0.199l0.058,0.217l0.066,0.208l0.036,0.205l0.02,0.226l0.01,0.235l-0.01,0.208l-0.02,0.226l-0.036,0.215l-0.066,0.209
	l-0.058,0.208l-0.094,0.216l-0.094,0.199l-0.122,0.2l-0.133,0.19l-0.138,0.173l-0.153,0.174l-0.159,0.154l-0.177,0.147l-0.189,0.139
	l-0.197,0.139l-0.215,0.112l-0.218,0.104l-0.234,0.096l-0.217,0.069l-0.243,0.069l-0.235,0.052l-0.254,0.017l-0.263,0.026
	l-0.244,0.011l-0.188-0.011l-0.197-0.007l-0.18-0.02l-0.177-0.017l-0.179-0.035l-0.17-0.051l-0.168-0.052l-0.159-0.042l-0.16-0.081
	l-0.179-0.06l-0.151-0.088l-0.151-0.084l-0.14-0.096l-0.141-0.105l-0.14-0.121l-0.142-0.112l-0.13-0.111l-0.125-0.131l-0.122-0.139
	l-0.093-0.129l-0.093-0.139l-0.085-0.14l-0.095-0.138l-0.055-0.147l-0.077-0.156l-0.047-0.146l-0.047-0.154l-0.045-0.176
	l-0.029-0.163l-0.02-0.165l-0.009-0.165l-0.008-0.173l0.008-0.199l0.009-0.174l0.028-0.183l0.029-0.172l0.055-0.174l0.048-0.163
	l0.055-0.157l0.086-0.155l0.066-0.157l0.103-0.146l0.103-0.147l0.104-0.139l0.122-0.147l0.133-0.131l0.139-0.129l0.142-0.121
	l0.142-0.112l0.14-0.096l0.13-0.088l0.143-0.095l0.149-0.069l0.142-0.077l0.149-0.07l0.15-0.062l0.15-0.041l0.16-0.044l0.161-0.034
	l0.168-0.036l0.16-0.025l0.177-0.017l0.17-0.009L129.782,34.754L129.782,34.754z M129.811,36.271l-0.197,0.01l-0.207,0.025
	l-0.095,0.017l-0.085,0.019l-0.093,0.018l-0.084,0.033l-0.094,0.044l-0.076,0.034l-0.085,0.035l-0.074,0.06l-0.086,0.044
	l-0.065,0.06l-0.076,0.062l-0.074,0.059l-0.056,0.062l-0.067,0.07l-0.056,0.076l-0.057,0.071l-0.048,0.077l-0.046,0.068
	l-0.038,0.087l-0.038,0.078l-0.037,0.096l-0.019,0.086l-0.029,0.088l-0.018,0.086l-0.038,0.189l-0.011,0.209l0.011,0.19l0.038,0.188
	l0.018,0.105l0.029,0.087l0.019,0.088l0.037,0.086l0.038,0.085l0.038,0.079l0.046,0.087l0.048,0.061l0.057,0.086l0.056,0.061
	l0.067,0.078l0.056,0.053l0.074,0.068l0.076,0.061l0.065,0.043l0.086,0.062l0.074,0.043l0.085,0.044l0.076,0.043l0.094,0.026
	l0.084,0.034l0.093,0.025l0.085,0.018l0.095,0.035l0.207,0.009l0.197,0.008l0.197-0.008l0.206-0.019l0.085-0.025l0.095-0.018
	l0.094-0.025l0.085-0.034l0.084-0.035l0.084-0.034l0.085-0.044l0.075-0.043l0.16-0.113l0.142-0.12l0.055-0.062l0.076-0.078
	l0.056-0.06l0.056-0.088l0.046-0.062l0.046-0.084l0.038-0.07l0.037-0.094l0.028-0.088l0.029-0.086l0.029-0.087l0.017-0.103
	l0.038-0.182l0.009-0.19l-0.009-0.209l-0.038-0.189l-0.037-0.181l-0.066-0.184l-0.02-0.069l-0.056-0.095l-0.037-0.061l-0.056-0.087
	l-0.047-0.062l-0.058-0.086l-0.074-0.06l-0.056-0.069l-0.066-0.061l-0.075-0.061l-0.075-0.052l-0.084-0.053l-0.066-0.051
	l-0.094-0.035l-0.066-0.034l-0.093-0.044l-0.095-0.033l-0.085-0.018l-0.093-0.019l-0.094-0.017l-0.207-0.025L129.811,36.271
	L129.811,36.271z M140.65,34.929h1.504v0.735l0.104-0.104l0.085-0.103l0.111-0.104l0.103-0.079l0.115-0.088l0.111-0.077l0.112-0.068
	l0.123-0.053l0.104-0.06l0.122-0.044l0.132-0.034l0.131-0.036l0.123-0.025l0.142-0.017l0.131-0.009l0.14-0.01l0.133,0.01
	l0.131,0.009l0.141,0.025l0.122,0.036l0.122,0.041l0.122,0.044l0.113,0.069l0.113,0.062l0.122,0.087l0.094,0.077l0.102,0.104
	l0.104,0.102l0.076,0.106l0.093,0.13l0.076,0.12l0.077,0.138l0.083-0.138l0.094-0.12l0.113-0.13l0.093-0.106l0.112-0.102
	l0.123-0.104l0.113-0.077l0.132-0.087l0.131-0.062l0.142-0.069l0.131-0.044l0.14-0.041l0.142-0.036l0.159-0.025l0.142-0.009
	l0.151-0.01l0.159,0.01l0.149,0.016l0.141,0.028l0.152,0.043l0.132,0.034l0.13,0.052l0.123,0.078l0.13,0.061l0.124,0.095
	l0.093,0.077l0.113,0.105l0.083,0.104l0.085,0.103l0.076,0.111l0.066,0.122l0.056,0.12l0.048,0.141l0.046,0.156l0.029,0.181
	l0.036,0.207l0.029,0.218l0.019,0.233l0.009,0.269v0.275v3.786h-1.511v-3.283l-0.012-0.259l-0.007-0.233l-0.019-0.226l-0.029-0.191
	l-0.038-0.173l-0.038-0.155L148.1,36.73l-0.066-0.105l-0.056-0.103l-0.084-0.069l-0.075-0.078l-0.094-0.044l-0.095-0.044
	l-0.112-0.042l-0.112-0.017l-0.122-0.009l-0.095,0.009l-0.093,0.008l-0.085,0.017l-0.084,0.034l-0.084,0.035l-0.086,0.036
	l-0.093,0.058l-0.065,0.054l-0.068,0.053l-0.082,0.076l-0.057,0.069l-0.066,0.088l-0.048,0.087l-0.046,0.086l-0.046,0.095
	l-0.038,0.105l-0.038,0.103l-0.028,0.131l-0.028,0.138l-0.018,0.166l-0.02,0.182l-0.01,0.188l-0.009,0.218v0.217v2.909h-1.513
	v-3.126l-0.009-0.406l-0.018-0.348l-0.01-0.146l-0.018-0.13l-0.029-0.122l-0.038-0.104l-0.028-0.096l-0.038-0.085l-0.027-0.086
	l-0.038-0.07l-0.057-0.07l-0.049-0.077l-0.046-0.043l-0.065-0.054l-0.056-0.051l-0.066-0.034l-0.066-0.025l-0.066-0.025
	l-0.075-0.035l-0.074-0.01l-0.085-0.008l-0.085-0.009l-0.084,0.009l-0.104,0.008l-0.075,0.017l-0.092,0.034l-0.076,0.035
	l-0.094,0.036l-0.065,0.058l-0.085,0.054l-0.076,0.053l-0.066,0.076l-0.067,0.069l-0.064,0.088l-0.047,0.095l-0.048,0.087
	l-0.055,0.104l-0.028,0.111l-0.039,0.114l-0.037,0.12l-0.018,0.156l-0.038,0.163l-0.01,0.176l-0.019,0.189v0.216v0.208v2.884h-1.504
	L140.65,34.929L140.65,34.929z M57.716,34.548v-2.054l0.432-0.155l0.422-0.165l0.423-0.182l0.423-0.182l0.421-0.199l0.385-0.208
	l0.404-0.216l0.385-0.234h2.648v10.462h-2.864v-8.211l-0.377,0.19l-0.375,0.2l-0.367,0.181l-0.385,0.175l-0.383,0.164l-0.405,0.164
	l-0.404,0.13L57.716,34.548L57.716,34.548z M78.193,38.097l-0.02-0.224l-0.036-0.216L78.1,37.458l-0.048-0.184l-0.075-0.183
	l-0.074-0.154l-0.094-0.139l-0.104-0.131l-0.057-0.06l-0.056-0.053l-0.077-0.051l-0.056-0.052l-0.065-0.044l-0.075-0.044
	l-0.075-0.034l-0.084-0.035l-0.17-0.06l-0.179-0.042l-0.177-0.019l-0.216-0.017l-0.199,0.017L76.041,36.2l-0.178,0.053l-0.16,0.069
	l-0.15,0.061l-0.141,0.104l-0.132,0.096l-0.113,0.11l-0.113,0.141l-0.084,0.129l-0.094,0.166l-0.058,0.163l-0.064,0.183
	l-0.047,0.191l-0.04,0.217l-0.007,0.214l0.007,0.234l0.02,0.226l0.038,0.209l0.065,0.197l0.056,0.173l0.085,0.166l0.047,0.069
	l0.037,0.077l0.047,0.061l0.066,0.07l0.057,0.052l0.057,0.069l0.065,0.052l0.066,0.043l0.066,0.053l0.075,0.043l0.074,0.034
	l0.075,0.044l0.084,0.026l0.086,0.025l0.084,0.025l0.102,0.018l0.189,0.036l0.207,0.017l0.206-0.017l0.179-0.036l0.177-0.043
	l0.161-0.052l0.066-0.044l0.082-0.034l0.057-0.043l0.085-0.053l0.056-0.043l0.065-0.052l0.057-0.069l0.058-0.052l0.103-0.131
	l0.103-0.146l0.075-0.166l0.076-0.173l0.046-0.197l0.046-0.209l0.047-0.226L78.193,38.097L78.193,38.097z M80.758,33.489h-2.8
	l-0.019-0.154l-0.026-0.148l-0.029-0.138l-0.046-0.131l-0.047-0.119l-0.056-0.114l-0.064-0.104l-0.076-0.086l-0.113-0.06
	L77.36,32.39l-0.123-0.042l-0.131-0.035l-0.142-0.034l-0.15-0.018l-0.159-0.009l-0.161-0.009l-0.111,0.009l-0.112,0.017
	l-0.104,0.025l-0.104,0.028l-0.104,0.025l-0.082,0.035l-0.105,0.033l-0.077,0.053l-0.092,0.06l-0.085,0.052l-0.075,0.069
	l-0.075,0.079l-0.068,0.07l-0.064,0.085l-0.066,0.086l-0.055,0.088l-0.068,0.113l-0.036,0.095l-0.047,0.112l-0.056,0.13
	l-0.048,0.121l-0.018,0.129l-0.038,0.131l-0.027,0.147l-0.065,0.303L74.68,34.66l-0.018,0.355v0.365l0.094-0.088l0.102-0.095
	l0.133-0.078l0.123-0.078l0.121-0.053l0.141-0.078l0.142-0.043l0.141-0.06l0.16-0.044l0.16-0.044l0.159-0.017l0.189-0.034
	l0.178-0.026l0.189-0.02l0.186-0.006h0.207l0.225,0.017l0.217,0.026l0.224,0.025l0.208,0.034l0.215,0.034l0.199,0.044l0.186,0.06
	L78.74,34.9l0.18,0.06l0.177,0.068l0.16,0.07l0.161,0.085l0.151,0.071l0.14,0.096l0.131,0.095l0.131,0.096l0.123,0.104l0.112,0.111
	l0.122,0.112l0.093,0.129l0.104,0.122l0.083,0.13l0.085,0.13l0.067,0.14l0.084,0.146l0.057,0.175l0.057,0.154l0.046,0.167
	l0.048,0.163l0.038,0.164l0.019,0.181l0.029,0.192l-0.02,0.198l-0.019,0.2l-0.028,0.182l-0.039,0.181l-0.037,0.174l-0.047,0.183
	l-0.066,0.154l-0.057,0.166l-0.085,0.156l-0.075,0.146l-0.094,0.147l-0.084,0.139l-0.104,0.139l-0.111,0.13l-0.124,0.13
	l-0.122,0.119l-0.188,0.133l-0.188,0.111l-0.198,0.121l-0.206,0.105L79.03,40.97l-0.225,0.087l-0.216,0.078l-0.234,0.076
	l-0.244,0.062l-0.235,0.061l-0.253,0.059l-0.264,0.044l-0.254,0.027l-0.281,0.024l-0.273,0.025l-0.281,0.011h-0.292l-0.263-0.026
	l-0.272-0.017l-0.254-0.037l-0.244-0.025l-0.254-0.043l-0.215-0.069l-0.226-0.052l-0.215-0.088L73.829,41.1l-0.188-0.104
	l-0.188-0.095l-0.169-0.113l-0.169-0.111l-0.149-0.123l-0.151-0.131l-0.133-0.146l-0.139-0.156l-0.123-0.155l-0.094-0.174
	l-0.113-0.174l-0.093-0.181l-0.086-0.209l-0.065-0.198l-0.067-0.208L71.833,38.6l-0.038-0.232l-0.036-0.226l-0.029-0.251
	l-0.019-0.252l-0.01-0.276v-0.271v-0.388v-0.382l0.01-0.379l0.028-0.357l0.038-0.346l0.03-0.331l0.064-0.32l0.075-0.303l0.075-0.303
	l0.096-0.269l0.093-0.277l0.122-0.252l0.113-0.25l0.132-0.235l0.142-0.215l0.16-0.208l0.168-0.19l0.188-0.183l0.189-0.165
	l0.187-0.156l0.208-0.137l0.235-0.131l0.225-0.111l0.244-0.113l0.264-0.095l0.252-0.079l0.282-0.061l0.283-0.052l0.3-0.044
	l0.311-0.017l0.318-0.024h0.328l0.245,0.016l0.226,0.008l0.215,0.027l0.216,0.026l0.198,0.034l0.207,0.044l0.196,0.034l0.179,0.043
	l0.18,0.061l0.168,0.051l0.159,0.052l0.151,0.08l0.15,0.061l0.14,0.086l0.141,0.068l0.122,0.088l0.113,0.085l0.113,0.098
	l0.102,0.103l0.104,0.104l0.075,0.104l0.094,0.112l0.065,0.122l0.075,0.121l0.057,0.13l0.047,0.129l0.055,0.131l0.039,0.146
	l0.029,0.147l0.009,0.147l0.02,0.156L80.758,33.489L80.758,33.489z M86.224,38.512h2.875l0.019,0.184l0.01,0.166l0.037,0.153
	l0.057,0.15l0.065,0.137l0.065,0.13l0.093,0.121l0.085,0.096l0.111,0.095l0.122,0.087l0.123,0.068l0.141,0.07l0.16,0.042
	l0.169,0.045l0.17,0.044l0.186,0.017l0.189-0.017l0.178-0.026l0.17-0.036l0.16-0.052l0.129-0.061l0.133-0.068l0.131-0.079
	l0.113-0.096l0.084-0.103l0.102-0.112l0.076-0.14l0.066-0.138l0.057-0.147l0.047-0.164l0.039-0.174l0.018-0.192l-0.01-0.103
	l-0.008-0.104l-0.019-0.112l-0.031-0.097l-0.026-0.095l-0.038-0.086l-0.048-0.087l-0.047-0.086l-0.054-0.086l-0.058-0.07
	l-0.074-0.078l-0.067-0.061l-0.084-0.078l-0.075-0.052l-0.094-0.06l-0.094-0.062l-0.103-0.044l-0.115-0.062L91.26,37.05
	l-0.122-0.035l-0.132-0.034l-0.122-0.035l-0.15-0.034l-0.142-0.026l-0.3-0.042l-0.328-0.026l-0.35-0.018h-0.366v-1.473l0.375-0.008
	l0.357-0.017l0.329-0.027l0.309-0.06l0.142-0.027l0.15-0.016l0.132-0.034l0.122-0.046l0.123-0.041l0.122-0.035l0.101-0.052
	l0.104-0.053l0.105-0.043l0.083-0.069l0.085-0.061l0.075-0.061l0.064-0.06l0.067-0.078l0.065-0.069l0.048-0.08l0.046-0.067
	l0.038-0.097l0.045-0.076l0.02-0.097l0.021-0.086l0.018-0.088l0.01-0.104v-0.102l-0.018-0.165l-0.019-0.156l-0.031-0.138
	l-0.064-0.148l-0.058-0.121l-0.074-0.111l-0.085-0.105l-0.093-0.097l-0.113-0.076l-0.112-0.078l-0.123-0.069l-0.15-0.044
	l-0.151-0.042l-0.168-0.044l-0.169-0.018l-0.188-0.018l-0.179,0.025l-0.159,0.044l-0.151,0.044l-0.131,0.043l-0.141,0.069
	l-0.112,0.07l-0.114,0.077l-0.111,0.078l-0.087,0.095l-0.083,0.095l-0.065,0.122L89.4,33.109l-0.066,0.13l-0.028,0.139l-0.038,0.147
	l-0.019,0.148h-2.882l0.018-0.174l0.018-0.164l0.029-0.164l0.026-0.157l0.06-0.156l0.055-0.156l0.058-0.146l0.065-0.14l0.093-0.122
	l0.076-0.128l0.103-0.121l0.085-0.121l0.112-0.113l0.122-0.104l0.131-0.095l0.122-0.096l0.148-0.094l0.151-0.079l0.15-0.086
	l0.179-0.061l0.169-0.08l0.188-0.059l0.188-0.06l0.197-0.052l0.208-0.044l0.206-0.044l0.235-0.042l0.227-0.026l0.234-0.027
	l0.244-0.017l0.264-0.008l0.263-0.016l0.254,0.024l0.245,0.027l0.235,0.026l0.235,0.034l0.224,0.052l0.216,0.034l0.207,0.044
	l0.196,0.059l0.207,0.054l0.178,0.053l0.179,0.069l0.179,0.061l0.159,0.069l0.148,0.077l0.151,0.078l0.141,0.078l0.142,0.085
	l0.131,0.096l0.113,0.087l0.113,0.097l0.103,0.104l0.105,0.096l0.083,0.104l0.093,0.121l0.057,0.112l0.075,0.12l0.058,0.121
	l0.046,0.123l0.057,0.129l0.036,0.138l0.029,0.141l0.009,0.146l-0.019,0.261l-0.037,0.24l-0.029,0.123l-0.046,0.112l-0.038,0.104
	l-0.029,0.12l-0.046,0.104l-0.057,0.096l-0.056,0.104l-0.046,0.095l-0.076,0.097l-0.057,0.085l-0.075,0.096l-0.076,0.069
	l-0.083,0.087l-0.084,0.07l-0.084,0.077l-0.104,0.062l-0.085,0.078l-0.113,0.058l-0.102,0.062l-0.104,0.061l-0.122,0.043
	l-0.122,0.061l-0.122,0.043l-0.123,0.043l-0.272,0.076l-0.291,0.078l0.31,0.079l0.282,0.104l0.141,0.044l0.131,0.069l0.122,0.061
	l0.113,0.051l0.133,0.069l0.102,0.062l0.105,0.086l0.102,0.06l0.104,0.088l0.084,0.087l0.094,0.078l0.077,0.086l0.083,0.085
	l0.064,0.096l0.076,0.104l0.057,0.087l0.056,0.112l0.065,0.103l0.038,0.105l0.047,0.112l0.047,0.112l0.037,0.122l0.029,0.113
	l0.019,0.129l0.018,0.128l0.029,0.134l0.009,0.129l0.01,0.128l-0.039,0.168l-0.037,0.143l-0.039,0.142l-0.056,0.138l-0.065,0.139
	l-0.055,0.121l-0.085,0.131l-0.077,0.121l-0.093,0.121l-0.094,0.112l-0.113,0.114l-0.112,0.095l-0.122,0.104l-0.13,0.103
	l-0.123,0.079l-0.143,0.095l-0.14,0.078l-0.169,0.077l-0.159,0.08l-0.17,0.067l-0.186,0.07l-0.179,0.053l-0.198,0.059l-0.188,0.062
	l-0.215,0.034l-0.206,0.045l-0.237,0.051l-0.225,0.034l-0.234,0.018l-0.246,0.027l-0.244,0.017l-0.264,0.026h-0.272l-0.273-0.011
	l-0.252-0.025l-0.254-0.018l-0.244-0.026l-0.226-0.025l-0.226-0.036l-0.216-0.049l-0.198-0.054l-0.205-0.043l-0.188-0.07
	l-0.179-0.06l-0.17-0.088l-0.15-0.068l-0.15-0.085l-0.141-0.097l-0.142-0.094l-0.131-0.104l-0.112-0.115l-0.103-0.11l-0.104-0.114
	l-0.074-0.13l-0.085-0.138l-0.086-0.139l-0.055-0.138l-0.046-0.148l-0.058-0.155l-0.036-0.176l-0.01-0.164l-0.019-0.172l-0.01-0.174
	L86.224,38.512L86.224,38.512z M135.71,15.226h3.129l-0.019-0.122l-0.066-0.295l-0.037-0.189l-0.086-0.235l-0.094-0.25l-0.141-0.269
	l-0.065-0.129l-0.085-0.14l-0.094-0.139l-0.102-0.146l-0.104-0.138l-0.122-0.13l-0.133-0.132l-0.139-0.13l-0.151-0.138l-0.159-0.12
	l-0.17-0.114l-0.178-0.094l-0.197-0.113l-0.217-0.086l-0.224-0.087l-0.235-0.079l-0.245-0.061l-0.235-0.06l-0.235-0.035
	l-0.244-0.034l-0.244-0.027l-0.225-0.006l-0.224-0.009h-0.237h-0.206l-0.225,0.015l-0.216,0.019l-0.215,0.025l-0.199,0.036
	l-0.197,0.027l-0.188,0.041l-0.188,0.045l-0.357,0.094l-0.321,0.096l-0.29,0.114l-0.272,0.102l-0.216,0.112l-0.179,0.087
	l-0.15,0.096l-0.102,0.06l-0.077,0.078l-0.094,0.096l-0.074,0.104l-0.105,0.119l-0.092,0.142l-0.085,0.153l-0.085,0.166
	l-0.085,0.191l-0.084,0.18l-0.056,0.2l-0.067,0.208l-0.046,0.217l-0.02,0.225l-0.018,0.225l0.011,0.225l0.007,0.234l0.039,0.226
	l0.046,0.233l0.075,0.217l0.067,0.216l0.056,0.095l0.047,0.112l0.046,0.097l0.067,0.104l0.065,0.093l0.066,0.088l0.075,0.095
	l0.083,0.096l0.087,0.084l0.093,0.089l0.094,0.077l0.103,0.087l0.122,0.088l0.113,0.067l0.113,0.087l0.142,0.063l0.14,0.085
	l0.14,0.06l0.161,0.069l0.159,0.07l0.169,0.06l0.178,0.062l0.189,0.058l0.197,0.054l0.742,0.197l0.621,0.166l0.28,0.087l0.244,0.06
	l0.226,0.078l0.197,0.062l0.179,0.077l0.16,0.061l0.142,0.087l0.131,0.086l0.093,0.086l0.104,0.096l0.074,0.122l0.066,0.121
	l0.048,0.12l0.036,0.138l0.019,0.139v0.147l-0.008,0.131l-0.036,0.13l-0.021,0.068l-0.028,0.062l-0.029,0.07l-0.047,0.051
	l-0.046,0.051l-0.037,0.071l-0.057,0.034l-0.065,0.06l-0.057,0.044l-0.085,0.042l-0.066,0.028l-0.093,0.042l-0.075,0.035
	l-0.104,0.017l-0.094,0.027l-0.122,0.016h-0.113h-0.122h-0.132h-0.129l-0.265-0.016l-0.235-0.018l-0.197-0.026l-0.169-0.035
	l-0.15-0.042l-0.142-0.037l-0.102-0.042l-0.076-0.062l-0.084-0.051l-0.065-0.06l-0.049-0.078l-0.045-0.087l-0.085-0.181
	l-0.076-0.244l-0.14-0.38l-0.094-0.243l-0.066-0.104l-0.01-0.025l-2.977,0.087v0.069v0.225l0.009,0.146l0.019,0.174l0.028,0.19
	l0.046,0.21l0.048,0.214l0.074,0.235l0.049,0.112l0.037,0.112l0.055,0.113l0.067,0.113l0.056,0.113l0.084,0.12l0.076,0.104
	l0.084,0.104l0.085,0.105l0.092,0.103l0.115,0.088l0.103,0.096l0.235,0.173l0.215,0.154l0.226,0.139l0.226,0.139l0.243,0.112
	l0.226,0.114l0.122,0.052l0.142,0.033l0.14,0.045l0.132,0.034l0.15,0.034l0.16,0.016l0.16,0.037l0.17,0.024l0.346,0.036l0.395,0.016
	h0.431l0.472-0.016l0.535-0.026l0.581-0.044l0.3-0.034l0.265-0.043l0.261-0.061l0.246-0.079l0.224-0.078l0.226-0.095l0.187-0.111
	l0.189-0.105l0.169-0.113l0.15-0.129l0.142-0.129l0.13-0.131l0.131-0.139l0.094-0.131l0.103-0.137l0.095-0.148l0.066-0.138
	l0.085-0.139l0.056-0.129l0.047-0.131l0.094-0.252l0.055-0.207l0.067-0.328l0.008-0.13l0.011-0.087l0.009-0.26l0.01-0.173
	l-0.01-0.19l-0.02-0.227l-0.018-0.241l-0.047-0.227l-0.047-0.258l-0.038-0.121l-0.047-0.122l-0.046-0.114l-0.038-0.12l-0.065-0.113
	l-0.066-0.111l-0.057-0.113l-0.093-0.095l-0.067-0.096l-0.102-0.104l-0.094-0.08l-0.114-0.085l-0.225-0.136l-0.235-0.149
	l-0.253-0.131l-0.254-0.136l-0.262-0.122l-0.265-0.123l-0.271-0.103l-0.273-0.112l-0.262-0.106l-0.264-0.103l-0.271-0.077
	l-0.245-0.079l-0.253-0.069l-0.254-0.078l-0.215-0.051l-0.228-0.06l-0.206-0.045l-0.197-0.043l-0.187-0.061l-0.179-0.051
	l-0.151-0.052l-0.14-0.077l-0.121-0.063l-0.115-0.085l-0.037-0.044l-0.056-0.052l-0.028-0.034l-0.038-0.052l-0.018-0.061
	l-0.029-0.044l-0.009-0.051v-0.069v-0.052v-0.08v-0.059l0.019-0.078l0.028-0.069l0.027-0.087l0.039-0.078l0.056-0.087l0.038-0.086
	l0.056-0.078l0.076-0.077l0.046-0.054l0.076-0.052l0.064-0.05l0.084-0.035l0.076-0.034l0.076-0.027l0.076-0.033l0.073-0.02
	l0.087-0.015l0.159-0.01H134l0.161,0.019l0.139,0.026l0.152,0.051l0.122,0.043l0.112,0.043l0.095,0.059l0.064,0.054l0.049,0.035
	l0.195,0.318l0.275,0.418l0.253,0.362L135.71,15.226z"/>
<path fill="#D1251D" d="M8.174,15.918l0.093-0.113l0.104-0.095l0.111-0.104l0.123-0.104l0.112-0.077L8.83,15.32l0.14-0.086
	l0.143-0.078l0.131-0.097l0.122-0.095l0.093-0.078l0.084-0.094l0.142-0.052l0.121-0.087l0.113-0.078l0.132-0.112l0.085-0.105
	l0.064-0.112l0.067-0.111l0.048-0.121l0.046-0.131l0.028-0.137l0.029-0.141l0.01-0.148V13.38v-0.067v-0.078l-0.019-0.079
	l-0.038-0.183l-0.066-0.171l-0.048-0.157l-0.047-0.19l-0.047-0.234l-0.027-0.269l-0.009-0.121l-0.02-0.102l-0.029-0.122
	l-0.027-0.122l-0.074-0.267l-0.104-0.279l-0.028-0.094l-0.038-0.07L9.77,10.696l-0.048-0.053l-0.028-0.051l-0.045-0.061L9.59,10.505
	l-0.046-0.034l-0.093-0.104l-0.084-0.112L9.29,10.133l-0.066-0.12L9.197,9.925L9.151,9.849L9.113,9.786L9.065,9.734L8.998,9.683
	L8.952,9.639L8.888,9.596L8.811,9.562L8.764,9.536L8.708,9.51L8.653,9.448L8.615,9.37L8.586,9.353L8.559,9.319L8.529,9.12
	L8.511,8.946L8.482,8.78L8.455,8.635l-0.01-0.017V8.6L8.436,8.557V8.524l0.008-0.089l0.029-0.069L8.511,8.29l0.048-0.07l0.008-0.054
	l0.019-0.068l0.028-0.052l0.018-0.062l0.039-0.061l0.055-0.058l0.058-0.054L8.84,7.76l0.103-0.087l0.113-0.086l0.122-0.069
	L9.31,7.432L9.451,7.37L9.61,7.301l0.179-0.06l0.168-0.053l0.076-0.026l0.066-0.025l0.075-0.044l0.056-0.052l0.076-0.078
	l0.056-0.085l0.066-0.098l0.057-0.119l0.028-0.089l0.019-0.067l0.01-0.095V6.341V6.244l-0.01-0.078l-0.02-0.086l-0.028-0.077
	l-0.04-0.087l-0.027-0.078L10.409,5.76l-0.02-0.077v-0.07l0.02-0.062l0.019-0.059l0.027-0.07l0.021-0.035l0.009-0.051v-0.07
	l-0.02-0.061l-0.037-0.077L10.39,5.049l-0.066-0.096L10.259,4.85l-0.074-0.078l-0.066-0.07l-0.075-0.068L9.98,4.564L9.891,4.505
	L9.818,4.442L9.733,4.4L9.657,4.357L9.564,4.305L9.488,4.262l-0.103-0.02L9.29,4.209L9.197,4.185L9.102,4.166L8.998,4.148
	l-0.093-0.01L8.764,4.132L8.633,4.113L8.52,4.088L8.436,4.063L8.361,4.036L8.305,4.018L8.247,4.011H8.184L8.126,4.018L8.069,4.036
	L8.022,4.063L7.967,4.088L7.872,4.132L7.788,4.174L7.686,4.209L7.582,4.227H7.497L7.402,4.242l-0.064,0.01L7.262,4.287L7.196,4.322
	L7.14,4.383L7.093,4.426L7.055,4.505L7.018,4.599L6.981,4.702L6.961,4.79v0.068l0.009,0.07l0.028,0.06l0.038,0.044l0.047,0.043
	l0.13,0.062l0.124,0.078L7.42,5.266l0.094,0.07l0.057,0.061l0.046,0.052l0.038,0.068l0.02,0.043l0.019,0.062l0.01,0.042v0.053
	L7.694,5.77L7.675,5.821L7.648,5.863L7.599,5.924L7.553,5.976L7.497,6.045L7.431,6.132L7.373,6.244L7.326,6.393L7.291,6.488
	l-0.04,0.084L7.206,6.661L7.167,6.728l-0.064,0.08l-0.057,0.06L6.981,6.921L6.915,6.963L6.849,7.007l-0.047,0.06l-0.047,0.08
	L6.708,7.232L6.661,7.326L6.633,7.387L6.596,7.465L6.528,7.518L6.482,7.551L6.416,7.578L6.341,7.612l-0.067,0.01L6.209,7.631
	L6.163,7.648L6.115,7.673L6.05,7.701L5.947,7.769L5.824,7.865l-0.065,0.07L5.683,7.978L5.599,8.012L5.524,8.037H5.429L5.355,8.012
	L5.242,7.984L5.148,7.95L5.082,7.917L4.998,7.882L4.884,7.856l-0.15-0.018L4.66,7.828L4.584,7.812L4.509,7.795L4.452,7.769
	L4.406,7.726L4.35,7.692L4.331,7.648L4.303,7.587L4.294,7.561l-0.02-0.016L4.257,7.526L4.219,7.5L4.161,7.465L4.058,7.422
	L4.011,7.387L3.964,7.353l-0.076-0.06l-0.056-0.07l-0.14-0.164l-0.15-0.208L3.523,6.808L3.504,6.755l-0.01-0.043L3.486,6.65V6.541
	L3.504,6.4l0.029-0.148l0.056-0.146L3.654,5.94l0.084-0.18l0.049-0.165l0.017-0.138l0.038-0.113L3.881,5.24l0.037-0.104l0.058-0.062
	l0.036-0.068l0.047-0.044l0.039-0.01l0.038-0.025l0.025-0.025l0.02-0.052l0.086-0.113l0.064-0.164l0.065-0.148l0.075-0.139
	l0.038-0.053l0.047-0.061L4.602,4.13L4.65,4.088l0.039-0.017l0.046-0.044l0.029-0.035l0.039-0.043l0.026-0.052l0.029-0.061
	l0.021-0.06l0.006-0.07l0.031-0.103l0.046-0.087l0.092-0.121l0.095-0.129l0.047-0.045l0.038-0.043L5.28,3.143l0.046-0.017
	l0.047-0.017L5.411,3.1h0.037h0.057h0.068l0.064-0.025l0.076-0.052l0.083-0.062l0.046-0.024L5.9,2.893l0.056-0.017l0.057-0.018
	l0.056-0.016h0.066h0.064l0.075,0.016h0.058h0.084L6.482,2.85l0.056-0.018l0.076-0.018L6.661,2.79l0.076-0.035l0.056-0.034
	L6.83,2.695l0.038-0.018l0.046-0.019L6.97,2.641l0.056-0.009h0.077h0.083l0.075,0.009h0.085L7.41,2.618l0.095-0.019L7.59,2.572
	l0.115-0.051l0.092-0.07L7.901,2.39l0.121-0.087l0.047-0.026l0.038-0.043l0.036-0.068l0.031-0.061l0.01-0.087l0.017-0.087V1.819
	V1.696L8.193,1.628L8.184,1.577l-0.02-0.069L8.143,1.446l-0.064-0.13L8.004,1.194L7.9,1.084L7.769,0.962L7.638,0.83L7.459,0.719
	l-0.15-0.087L7.176,0.58l-0.15-0.044l-0.14-0.032L6.754,0.468H6.633H6.492L6.379,0.504H6.285L6.163,0.486l-0.14-0.027l-0.17-0.043
	L5.75,0.398L5.647,0.383l-0.104-0.01H5.439L5.364,0.39L5.27,0.406L5.205,0.433L5.12,0.468L5.036,0.519L4.923,0.555L4.809,0.572
	L4.679,0.58H4.641L4.612,0.59L4.574,0.599L4.528,0.615L4.452,0.676L4.358,0.754L4.274,0.867l-0.113,0.13L4.058,1.161L3.955,1.344
	L3.898,1.43L3.86,1.499L3.814,1.561l-0.045,0.05L3.73,1.654L3.683,1.689L3.646,1.717L3.6,1.733L3.551,1.758L3.504,1.795L3.448,1.827
	L3.419,1.87L3.391,1.931L3.355,1.966l-0.029,0.06L3.298,2.088l-0.01,0.043L3.27,2.174L3.259,2.226L3.24,2.261L3.212,2.285
	L3.177,2.322L3.129,2.365L3.09,2.391L2.997,2.469L2.913,2.572L2.837,2.667L2.773,2.773l-0.039,0.12L2.678,2.997L2.621,3.085
	L2.573,3.126L2.518,3.178L2.462,3.266L2.377,3.37L2.303,3.5L2.095,3.837L1.843,4.269L1.719,4.487l-0.084,0.18L1.551,4.833
	L1.486,4.981L1.428,5.109L1.4,5.231L1.372,5.326l-0.01,0.079l0.01,0.033l-0.01,0.061L1.355,5.542L1.334,5.577L1.315,5.629
	L1.278,5.673L1.241,5.716L1.193,5.76L1.146,5.795L1.119,5.853L1.09,5.933L1.071,6.045L1.052,6.158L1.043,6.305v0.173l0.009,0.183
	l0.01,0.061L1.071,6.78l0.018,0.06l0.029,0.054l0.027,0.051l0.047,0.052L1.23,7.051l0.046,0.051l0.047,0.045l0.046,0.051L1.4,7.241
	l0.028,0.043l0.019,0.052l0.011,0.042v0.035v0.044v0.061v0.043l0.019,0.062l0.018,0.051l0.028,0.028l0.039,0.05L1.61,7.787
	l0.055,0.025L1.74,7.856l0.085,0.052l0.066,0.061l0.076,0.069l0.026,0.061l0.038,0.068L2.095,8.22L2.17,8.271L2.256,8.34L2.35,8.374
	l0.103,0.053l0.12,0.054l0.048,0.007l0.048,0.018l0.056,0.019l0.038,0.024l0.046,0.043l0.058,0.044l0.046,0.052L2.95,8.747
	l0.086,0.094L3.09,8.946l0.039,0.095l0.019,0.121l0.056,0.096L3.233,9.37l0.018,0.122v0.112L3.24,9.709L3.223,9.83L3.184,9.943
	l-0.063,0.12l-0.077,0.121l-0.094,0.13l-0.056,0.123L2.828,10.54L2.79,10.66l-0.038,0.105l-0.019,0.103l-0.009,0.097l-0.01,0.095
	l-0.028,0.096l-0.028,0.077L2.62,11.312l-0.048,0.052l-0.056,0.069l-0.055,0.043L2.394,11.51l-0.056,0.018l-0.055,0.036
	l-0.066,0.042L2.18,11.649l-0.122,0.104l-0.104,0.12L1.843,12.03l-0.115,0.173l-0.093,0.199l-0.123,0.234l-0.066,0.129l-0.055,0.122
	l-0.037,0.12l-0.039,0.131l-0.019,0.104l-0.009,0.113l0.009,0.112l0.019,0.104l0.046,0.198l0.03,0.183L1.4,14.117v0.163
	l-0.009,0.053l0.009,0.06l0.009,0.071l0.019,0.068l0.058,0.166l0.065,0.182l0.104,0.19l0.103,0.215l0.141,0.235l0.168,0.259
	l0.103,0.077l0.105,0.07l0.093,0.06l0.103,0.062l0.102,0.042l0.096,0.054l0.104,0.043l0.111,0.035l0.094,0.042l0.112,0.018
	L3.194,16.3l0.094,0.017l0.114,0.009l0.102,0.01h0.103l0.103-0.01h0.132l0.141,0.01l0.142,0.017l0.132,0.035l0.139,0.042
	l0.132,0.044l0.161,0.069l0.139,0.061l0.106,0.052l0.12,0.061l0.114,0.026L5.28,16.76l0.122,0.007h0.122l0.123-0.007l0.122-0.009
	l0.187-0.053l0.196-0.044l0.199-0.017l0.207-0.009L6.68,16.62l0.131-0.017l0.122-0.018l0.123-0.017l0.121-0.044l0.105-0.033
	l0.102-0.037l0.113-0.035l0.085-0.051l0.104-0.052l0.084-0.052l0.093-0.061l0.084-0.069l0.075-0.068l0.075-0.072L8.174,15.918z
	 M8.077,13.296L8.06,13.495L8.049,13.74v0.024v0.026l-0.092,0.104l-0.096,0.094L7.76,14.081l-0.104,0.088l-0.103,0.077l-0.132,0.07
	l-0.122,0.068l-0.113,0.062l-0.141,0.033l-0.122,0.034L6.81,14.557l-0.122,0.018l-0.093,0.009l-0.103,0.008H6.416l-0.094-0.008
	l-0.048-0.018l-0.075-0.009L6.135,14.54l-0.066,0.017l-0.084,0.009L5.9,14.585l-0.096,0.024l-0.092,0.019l-0.056,0.019L5.59,14.654
	H5.543H5.486l-0.075-0.018L5.355,14.62L5.28,14.593l-0.067-0.051l-0.046-0.018l-0.066-0.027L5.046,14.48l-0.085-0.017l-0.169-0.026
	L4.594,14.42H4.509l-0.083-0.008l-0.094-0.027l-0.074-0.017l-0.096-0.017l-0.075-0.035L3.994,14.29l-0.076-0.044l-0.103-0.102
	L3.722,14.03l-0.086-0.112l-0.075-0.119l-0.066-0.121l-0.056-0.115l-0.037-0.11l-0.039-0.13v-0.069l0.01-0.071l0.029-0.078
	l0.037-0.068l0.047-0.078l0.065-0.078l0.075-0.076l0.085-0.079l0.077-0.078l0.055-0.061l0.056-0.086l0.057-0.087l0.028-0.086
	l0.039-0.104l0.018-0.102l0.019-0.113l0.011-0.077l0.037-0.086l0.038-0.062l0.037-0.079l0.067-0.059l0.065-0.062l0.066-0.068
	l0.092-0.052l0.141-0.095l0.122-0.088l0.122-0.095l0.096-0.103l0.101-0.105l0.076-0.12l0.084-0.114l0.047-0.129l0.036-0.087
	l0.049-0.068l0.057-0.079L5.45,10.34l0.085-0.054L5.6,10.242l0.094-0.026l0.103-0.017L5.91,10.19l0.104-0.009l0.112-0.017
	L6.2,10.131L6.294,10.1l0.065-0.036l0.086-0.043l0.047-0.044L6.5,9.968V9.959l0.012-0.008h0.016l0.219,0.062l0.196,0.058
	l0.178,0.072l0.17,0.077l0.047,0.043l0.028,0.044l0.018,0.034l0.018,0.042l0.019,0.055l0.029,0.043l0.055,0.042l0.048,0.061
	l0.103,0.094L7.731,10.8l0.084,0.131l0.066,0.138l0.028,0.113l0.049,0.095l0.035,0.069l0.029,0.053l0.047,0.061l0.048,0.052
	l0.038,0.077l0.038,0.079l0.027,0.095l0.038,0.095l0.009,0.113l0.018,0.113v0.13v0.121v0.121l-0.018,0.112v0.105l-0.038,0.103
	L8.2,12.872l-0.027,0.097l-0.031,0.068l-0.026,0.078l-0.02,0.086L8.077,13.296z M3.273,18.108l0.007,0.14l-0.007,0.138l-0.012,0.148
	l-0.036,0.155L3.15,18.854l-0.019,0.25l-0.008,0.243l-0.011,0.259l0.011,0.261l0.044,0.131l0.019,0.119l0.01,0.132l-0.01,0.122
	l-0.007,0.111L3.15,20.593l-0.039,0.113l-0.038,0.121L3.017,20.94l-0.066,0.104l-0.046,0.112L2.829,21.26l-0.075,0.113l-0.075,0.086
	l-0.086,0.096l-0.082,0.096l-0.095,0.207l-0.104,0.225l-0.094,0.243l-0.084,0.252l-0.038,0.129L2.04,22.829l-0.048,0.103
	L1.936,23.02l-0.075,0.095l-0.056,0.062l-0.094,0.067l-0.075,0.053l-0.094,0.035l-0.095,0.052L1.344,23.41l-0.103,0.017
	l-0.122,0.009H1.005l-0.122-0.017L0.753,23.4l-0.124-0.042l-0.103-0.042l-0.094-0.06l-0.085-0.078L0.271,23.09l-0.055-0.095
	L0.17,22.883L0.132,22.77l-0.029-0.139l-0.019-0.128l-0.019-0.157v-0.131l0.019-0.137l0.019-0.14l0.029-0.14l0.038-0.146
	l0.047-0.122l0.054-0.113l0.049-0.12l0.047-0.131l0.047-0.13l0.019-0.146l0.027-0.138l0.029-0.149V20.49l0.01-0.103l0.009-0.103
	l0.019-0.106l0.029-0.112l0.026-0.086l0.02-0.103l0.038-0.105l0.039-0.085l0.056-0.104l0.045-0.096L0.827,19.4l0.076-0.095
	l0.056-0.088l0.075-0.086l0.076-0.086l0.084-0.078l0.075-0.086l0.065-0.088L1.4,18.725l0.046-0.096l0.047-0.069l0.047-0.096
	l0.028-0.069l0.066-0.192l0.057-0.163l0.084-0.14l0.085-0.135l0.048-0.045l0.058-0.061l0.046-0.044l0.047-0.034l0.065-0.033
	l0.056-0.046l0.065-0.026l0.065-0.025l0.124-0.027h0.122h0.046l0.057,0.01l0.065,0.01l0.038,0.016l0.113,0.042l0.094,0.079
	l0.103,0.069l0.078,0.103l0.075,0.113l0.036,0.112L3.273,18.108z M6.962,20.741l0.009,0.14v0.146l-0.009,0.139l-0.019,0.14
	l-0.038,0.146l-0.056,0.139l-0.047,0.146l-0.065,0.149l-0.009,0.191l-0.019,0.154l-0.029,0.13l-0.009,0.106l-0.029,0.129
	l-0.056,0.122L6.5,22.847l-0.087,0.147L6.31,23.082l-0.093,0.077l-0.084,0.068l-0.085,0.052l-0.085,0.036l-0.076,0.024l-0.085,0.027
	l-0.065,0.01l-0.075-0.01l-0.085-0.027l-0.064-0.024l-0.076-0.053l-0.066-0.078l-0.083-0.08l-0.066-0.102l-0.075-0.129l-0.095-0.13
	l-0.083-0.131l-0.065-0.11L4.856,22.37l-0.048-0.122l-0.027-0.112l-0.009-0.112V21.92l-0.056-0.355l-0.048-0.32L4.64,20.951
	L4.612,20.69l-0.01-0.233v-0.2v-0.163l0.02-0.14l0.047-0.233l0.048-0.295l0.056-0.363l0.055-0.434l0.086-0.19l0.073-0.131
	l0.048-0.049l0.018-0.036l0.029-0.02l0.038-0.007l0.093-0.034l0.067-0.035l0.076-0.052l0.056-0.045l0.008-0.015l0.02-0.026
	l0.018-0.017l0.039-0.01l0.066-0.026l0.074-0.009l0.093,0.009l0.112,0.027l0.133,0.026l0.15,0.041l0.094,0.045l0.084,0.043
	l0.095,0.045l0.075,0.061l0.054,0.06l0.077,0.078l0.046,0.077l0.058,0.087l0.055,0.234l0.048,0.243l0.009,0.102l0.01,0.112v0.105
	l-0.01,0.104V19.6v0.172l0.01,0.173v0.172l0.039,0.158l0.026,0.157l0.029,0.154L6.962,20.741z M23.215,19.123l0.026,0.138v0.146
	l-0.008,0.148l-0.029,0.131l-0.057,0.104l-0.029,0.07l-0.027,0.034l-0.028,0.06l-0.046,0.044l-0.038,0.042l-0.048,0.026
	l-0.036,0.044l-0.067,0.034l-0.075,0.034l-0.067,0.034l-0.084,0.036l-0.075,0.025l-0.179,0.053l-0.177,0.044l-0.198,0.017h-0.225
	h-0.227l-0.244-0.017l-0.142-0.036l-0.083-0.008h-0.077l-0.027,0.008l-0.074,0.009l-0.105,0.008l-0.094,0.019h-0.093H20.46
	l-0.104,0.017l-0.113,0.017l-0.083,0.035l-0.132,0.034l-0.15,0.026l-0.15,0.027h-0.16l-0.169-0.011l-0.179-0.034l-0.178-0.025
	l-0.206-0.044l-0.085-0.069l-0.093-0.069L18.6,20.206l-0.075-0.089l-0.045-0.085l-0.039-0.105l-0.019-0.085l-0.008-0.113
	l0.008-0.078l0.019-0.077l0.01-0.078l0.029-0.088l0.065-0.163l0.094-0.182l0.085-0.079l0.084-0.086l0.094-0.061l0.083-0.061
	l0.113-0.043l0.104-0.035l0.113-0.025l0.113-0.019l0.169-0.026l0.151-0.033l0.122-0.026l0.122-0.044l0.13-0.026l0.171-0.025
	l0.205-0.017l0.254-0.018l0.225-0.019l0.189-0.014l0.095-0.019l0.074-0.035l0.065-0.026l0.058-0.025l0.14-0.035l0.152-0.016
	l0.138-0.02l0.153,0.02l0.149,0.016l0.16,0.043l0.15,0.062l0.15,0.068l0.122,0.069l0.113,0.078l0.086,0.095l0.084,0.088l0.056,0.112
	l0.056,0.121L23.215,19.123z M27.093,21.625l-0.01-0.146l-0.027-0.157l-0.038-0.164l-0.037-0.147l-0.038-0.156l-0.029-0.156
	l-0.047-0.164l-0.029-0.183l-0.009-0.183L26.81,19.98l-0.019-0.199L26.77,19.54l-0.028-0.287l-0.056-0.293l-0.056-0.312l-0.095-0.33
	l-0.083-0.345l-0.122-0.382l-0.133-0.383l-0.036-0.076l-0.029-0.078l-0.019-0.086l-0.029-0.097l-0.038-0.207l-0.027-0.225v-0.244
	v-0.26l0.027-0.293l0.038-0.302l0.029-0.184l0.01-0.207V14.75v-0.226l-0.01-0.226l-0.037-0.232l-0.037-0.253l-0.049-0.241
	l-0.018-0.114l-0.019-0.11l-0.02-0.106v-0.104v-0.114l0.02-0.101l0.019-0.113l0.018-0.087l0.028-0.121l0.021-0.122l0.017-0.111
	v-0.114l0.009-0.103l-0.009-0.095l-0.01-0.094l-0.027-0.098l-0.018-0.103l-0.019-0.104l-0.02-0.094v-0.08V11.39v-0.061l0.011-0.088
	l0.018-0.061l0.049-0.113l0.045-0.119l0.039-0.132l0.028-0.14l0.019-0.145l0.019-0.149l0.008-0.154v-0.165l-0.018-0.25l-0.009-0.261
	V9.319l0.009-0.252l0.01-0.241l0.03-0.234l0.028-0.235l0.046-0.238l0.02-0.08l0.009-0.095l0.01-0.077V7.788V7.71l-0.01-0.061
	l-0.009-0.078l-0.02-0.052L26.285,7.44l-0.02-0.061V7.32V7.242l0.01-0.062l0.017-0.087l0.02-0.077l0.038-0.079l0.037-0.069
	l0.037-0.088l0.029-0.111l0.018-0.139V6.453l0.019-0.06l0.018-0.061l0.028-0.071l0.04-0.051l0.035-0.069l0.039-0.053l0.049-0.051
	l0.055-0.053l0.047-0.044l0.028-0.06l0.04-0.057l0.047-0.08l0.029-0.059l0.027-0.088l0.019-0.078l0.019-0.13l0.028-0.139l0.009-0.12
	l0.01-0.121l-0.01-0.121l-0.009-0.123L27.01,4.643l-0.019-0.112l-0.066-0.216l-0.094-0.182l-0.047-0.096L26.736,3.95L26.67,3.872
	l-0.056-0.076l-0.064-0.08l-0.077-0.068l-0.056-0.069l-0.084-0.062l-0.067-0.069l-0.093-0.052l-0.085-0.051l-0.094-0.062
	L25.89,3.249l-0.102-0.061l-0.075-0.062l-0.084-0.041l-0.058-0.081l-0.065-0.059l-0.058-0.069l-0.037-0.078l-0.028-0.043
	l-0.057-0.053L25.28,2.659l-0.056-0.061l-0.142-0.087l-0.17-0.093L24.838,2.39l-0.085-0.017l-0.085-0.018l-0.092-0.008L24.48,2.329
	l-0.112-0.008h-0.094l-0.122,0.008h-0.096h-0.083l-0.084-0.008l-0.085-0.019l-0.083-0.026L23.625,2.25l-0.064-0.034l-0.094-0.051
	L23.429,2.13l-0.058-0.026l-0.075-0.025l-0.047-0.035l-0.084-0.019L23.1,2.008h-0.066L22.95,2l-0.141,0.008h-0.162L22.469,2
	l-0.196-0.025l-0.161-0.028L21.933,1.94h-0.186l-0.189-0.01L21.36,1.94l-0.206,0.007l-0.216,0.028L20.73,2l-0.149,0.024L20.44,2.043
	l-0.142,0.009h-0.14l-0.132-0.009l-0.15-0.019l-0.14-0.017l-0.131-0.033l-0.133-0.028l-0.13-0.017l-0.161-0.008l-0.14,0.008
	l-0.16,0.017l-0.159,0.028l-0.179,0.042l-0.17,0.07l-0.132,0.043l-0.113,0.027l-0.102,0.016l-0.103-0.008l-0.066-0.017h-0.095
	l-0.095,0.01l-0.111,0.016l-0.123,0.035L17.311,2.25L17.18,2.294l-0.159,0.07l-0.066,0.018L16.88,2.39l-0.085,0.008h-0.092
	L16.617,2.39l-0.112-0.008l-0.094-0.018l-0.113-0.035l-0.169-0.026l-0.161-0.009H15.8l-0.16,0.009l-0.17,0.019l-0.168,0.033
	l-0.168,0.043l-0.159,0.044l-0.169,0.009L14.665,2.46h-0.131h-0.086l-0.131-0.009h-0.122h-0.084L14.036,2.46h-0.009l-0.01,0.009
	l0.01,0.009l0.009,0.017l-0.057-0.043l-0.075-0.025l-0.077-0.035l-0.064-0.025l-0.076-0.018l-0.076-0.025l-0.064-0.009H13.46h-0.064
	H13.31l-0.064,0.017l-0.094,0.025l-0.064,0.018L12.992,2.4l-0.084,0.035l-0.075,0.026l-0.056,0.034L12.729,2.53l-0.065,0.043
	l-0.057,0.045l-0.114,0.129L12.37,2.885l-0.112,0.191l-0.113,0.19L12.014,3.5l-0.122,0.25l-0.057,0.121l-0.064,0.121l-0.056,0.121
	l-0.049,0.129L11.64,4.365l-0.049,0.122l-0.027,0.12l-0.027,0.13l-0.019,0.13l-0.019,0.131l-0.011,0.13l-0.008,0.13v0.147
	l0.008,0.128l0.011,0.139l0.019,0.139l0.009,0.269l0.027,0.262l0.047,0.232l0.065,0.245l0.038,0.103l0.038,0.12l0.056,0.096
	l0.038,0.104l0.048,0.104l0.065,0.086l0.066,0.104l0.048,0.086l0.103,0.129l0.066,0.138l0.083,0.157l0.056,0.165l0.067,0.174
	l0.038,0.189l0.038,0.206l0.027,0.212l0.027,0.361l0.02,0.33l0.009,0.303l0.009,0.261l0.008,0.251v0.19l-0.008,0.189l-0.009,0.14
	l-0.019,0.147l-0.01,0.157l-0.009,0.148v0.154l0.009,0.156l0.01,0.165l0.019,0.164l0.027,0.174v0.095v0.103v0.113l-0.018,0.086
	l-0.009,0.113l-0.029,0.104L12.541,13l-0.026,0.098l-0.021,0.104l-0.017,0.149l-0.029,0.182l-0.028,0.224l0.048,0.147l0.027,0.148
	l0.021,0.156v0.147l-0.021,0.156l-0.027,0.155l-0.038,0.167l-0.065,0.155l-0.105,0.25l-0.093,0.26l-0.094,0.261l-0.057,0.259
	l-0.046,0.269l-0.047,0.27l-0.018,0.268l-0.011,0.261l-0.009,0.078v0.067l-0.019,0.079l-0.019,0.085L11.8,17.561l-0.082,0.165
	l-0.058,0.26l-0.094,0.271l-0.103,0.293l-0.123,0.303l-0.037,0.034l-0.02,0.026l-0.019,0.052l-0.027,0.043l-0.038,0.113
	l-0.046,0.138l-0.01,0.096l-0.019,0.096l-0.028,0.103l-0.056,0.122l-0.076,0.104l-0.076,0.121l-0.112,0.138l-0.112,0.129
	l-0.142,0.21L10.39,20.55l-0.113,0.156l-0.113,0.121l-0.056,0.141l-0.056,0.154l-0.066,0.156L9.92,21.451l-0.009,0.182l0.009,0.184
	l0.038,0.173l0.038,0.183l0.028,0.087l0.038,0.078l0.056,0.086l0.057,0.087l0.056,0.07l0.085,0.085l0.094,0.061l0.075,0.077
	l0.113,0.044l0.111,0.026l0.094,0.035l0.114,0.024l0.103,0.017l0.092,0.019h0.104h0.085l0.122-0.025l0.113-0.044l0.121-0.052
	l0.114-0.044l0.112-0.077l0.13-0.068l0.131-0.096l0.133-0.095l0.085-0.089l0.075-0.094l0.076-0.096l0.064-0.085l0.056-0.097
	l0.056-0.114l0.038-0.084l0.048-0.105l0.027-0.155l0.049-0.173l0.055-0.183l0.058-0.19l0.084-0.216l0.075-0.217l0.102-0.234
	l0.105-0.26l0.056-0.164l0.036-0.147l0.02-0.122v-0.094v-0.096v-0.068l0.018-0.088l0.02-0.079l0.03-0.075l0.018-0.079l0.036-0.079
	l0.028-0.086l0.058-0.129l0.027-0.131l0.028-0.13l0.01-0.112l-0.01-0.131l0.01-0.11l0.018-0.106l0.038-0.104l0.018-0.112
	l0.009-0.123l0.021-0.129l0.007-0.13v-0.078v-0.086l0.01-0.096l0.019-0.096L13.884,17l0.03-0.096l0.056-0.112l0.038-0.094
	l0.048-0.26l0.047-0.226l0.019-0.208l0.007-0.2l-0.026-0.067v-0.071l0.084,0.071l0.112,0.051l0.112,0.068l0.115,0.062l0.122,0.017
	h0.113h0.111l0.132,0.009l0.046,0.051l0.038,0.062l0.046,0.061l0.047,0.077l0.048,0.07l0.027,0.06l0.038,0.087l0.036,0.079v0.111
	v0.112l-0.028,0.129l-0.019,0.14l-0.017,0.147l-0.029,0.156l-0.009,0.183l-0.012,0.19v0.208l0.012,0.207l0.017,0.242l0.038,0.253
	l0.047,0.258l0.058,0.271l0.065,0.198l0.103,0.184l0.038,0.075l0.057,0.079l0.057,0.075l0.047,0.063l0.066,0.069l0.056,0.043
	l0.057,0.06l0.073,0.043l0.066,0.044l0.066,0.018l0.075,0.044l0.085,0.017l0.121,0.044l0.113,0.033l0.113,0.025l0.093,0.036
	l0.085,0.008l0.093,0.011l0.113-0.011l0.114-0.008l0.083-0.043l0.084-0.052l0.084-0.061l0.075-0.07l0.076-0.069l0.046-0.087
	l0.066-0.095l0.048-0.096l0.027-0.104l0.02-0.094l0.008-0.088l-0.008-0.079l-0.029-0.079l-0.047-0.068l-0.074-0.061l-0.076-0.06
	l-0.056-0.062l-0.038-0.068l-0.028-0.061l-0.027-0.086l-0.047-0.131l-0.048-0.139l-0.018-0.147l-0.009-0.155v-0.191v-0.155v-0.129
	v-0.105l-0.01-0.103v-0.104l0.019-0.138l0.018-0.147l0.076-0.174l0.037-0.157l0.038-0.145l0.028-0.141l0.009-0.13l0.019-0.112
	l-0.019-0.13l-0.009-0.105l-0.028-0.024l0.113-0.07l0.161-0.068l0.169-0.087l0.187-0.077l0.216-0.087l0.234-0.087l0.272-0.086
	l0.292-0.102h0.027l0.113,0.023l0.123,0.018l0.122,0.009h0.122l0.123-0.009l0.14-0.008l0.122-0.025l0.133-0.027l0.179-0.025
	l0.168-0.01h0.168h0.169h0.171l0.159,0.019l0.179,0.036l0.16,0.033l0.215,0.069l0.214,0.034l0.227,0.025l0.198,0.011h0.196
	l0.189-0.027l0.198-0.034l0.177-0.044l0.142-0.078l0.112-0.068l0.064-0.054l0.049-0.041l0.038-0.043l0.046-0.053l0.027-0.044
	l0.028-0.061l0.028-0.042l0.011-0.053l0.007-0.069l0.02-0.042l0.01-0.06v-0.07l-0.01-0.139l-0.027-0.131l-0.039-0.12l-0.047-0.121
	l-0.085-0.096l-0.075-0.095l-0.102-0.095l-0.123-0.071l-0.093-0.076l-0.123-0.053l-0.111-0.043l-0.114-0.052l-0.113-0.025
	l-0.112-0.026l-0.113-0.018l-0.131-0.01l-0.225,0.01h-0.235H21.52l-0.271-0.01l-0.265-0.033l-0.224-0.027l-0.226-0.009l-0.197,0.009
	l-0.029-0.024l-0.026-0.025l-0.143-0.106L20,13.139l-0.131-0.13l-0.122-0.13v-0.041l0.008-0.027l0.009-0.018l0.01-0.018l0.047-0.103
	l0.027-0.098v-0.103V12.36l-0.018-0.175l-0.009-0.163v-0.166l-0.01-0.163v-0.026l-0.037-0.044l0.074-0.059l0.058-0.044l0.084-0.027
	l0.075-0.034l0.087-0.042l0.083-0.035l0.13-0.036l0.15-0.016l0.152-0.009l0.159-0.017l0.17-0.035l0.198-0.035l0.225-0.035
	l0.234-0.017l0.216-0.009h0.236l0.226,0.018l0.216,0.027l0.233,0.043l0.227,0.069l0.075,0.016l0.065,0.028l0.114,0.076l0.111,0.088
	l0.142,0.12l0.169,0.156l0.103,0.068l0.113,0.08l0.122,0.11l0.132,0.121l0.011,0.244l0.027,0.207l0.037,0.192l0.047,0.181
	l0.017,0.146l0.01,0.148v0.155v0.138l-0.01,0.146l-0.017,0.14l-0.037,0.138l-0.029,0.14l-0.027,0.111l-0.018,0.104l-0.011,0.13
	l-0.01,0.132l-0.01,0.147v0.156l0.01,0.174l0.01,0.172l0.011,0.286v0.233v0.215l-0.011,0.165l-0.01,0.141v0.146v0.158l0.01,0.154
	l0.038,0.296l0.037,0.31l0.018,0.296l0.029,0.295v0.302l-0.009,0.306l-0.028,0.302l-0.029,0.312l-0.018,0.113l-0.009,0.112v0.139
	l0.018,0.147l0.018,0.164l0.048,0.165l0.036,0.189l0.047,0.2l0.02,0.088l0.018,0.076l0.01,0.086v0.07v0.088l-0.01,0.067
	l-0.018,0.088l-0.02,0.06l-0.019,0.069v0.06l-0.008,0.06l-0.01,0.061l0.01,0.062l0.008,0.051v0.054l0.019,0.059l0.029,0.062
	l0.019,0.068l0.027,0.059l0.02,0.08l0.009,0.145v0.166l-0.009,0.079l0.018,0.103l0.018,0.112l0.029,0.104l0.048,0.13l0.074,0.121
	l0.066,0.13l0.102,0.139l0.086,0.112l0.092,0.087l0.104,0.079l0.113,0.061l0.093,0.051l0.113,0.045l0.122,0.034h0.124h0.131
	l0.139-0.009l0.132-0.044l0.123-0.033l0.122-0.053l0.131-0.06l0.104-0.069l0.113-0.087l0.057-0.061l0.066-0.087l0.057-0.129
	l0.046-0.139l0.038-0.087l0.038-0.13l0.046-0.121l0.066-0.148l0.018-0.104l0.02-0.121l0.009-0.131v-0.129L27.093,21.625z
	 M17.907,12.973v0.166l-0.021,0.068l-0.008,0.086l-0.122,0.08l-0.141,0.095l-0.17,0.104l-0.188,0.094h-0.029h-0.027l-0.075-0.015
	l-0.077-0.01l-0.075-0.01H16.9h-0.071l-0.075,0.01l-0.094,0.01l-0.066,0.015l-0.103,0.036l-0.075,0.008l-0.094,0.008h-0.075h-0.086
	l-0.085-0.008l-0.085-0.008l-0.073-0.036h-0.077h-0.084l-0.085,0.011l-0.093,0.025l-0.197,0.044l-0.236,0.06l-0.122,0.043
	l-0.14,0.034l-0.122,0.044l-0.113,0.059l-0.113,0.062l-0.086,0.069l-0.103,0.078l-0.075,0.085v-0.111v-0.103l0.008-0.104
	l0.019-0.096l0.018-0.105l0.019-0.104l0.036-0.077l0.049-0.104l0.047-0.175l0.046-0.199l0.019-0.233l0.026-0.26l0.046-0.103
	l0.058-0.068l0.064-0.088l0.066-0.068l0.076-0.104l0.095-0.095l0.122-0.103l0.15-0.089l0.057-0.034l0.112-0.042h0.161l0.159-0.008
	l0.16-0.019l0.169-0.026l0.075-0.008l0.084-0.019l0.094-0.035l0.104-0.033l0.206-0.069l0.226-0.113h0.038l0.208,0.044l0.196,0.069
	l0.095,0.035l0.083,0.034l0.085,0.053l0.093,0.042l0.057,0.017l0.047,0.027l0.057,0.035l0.047,0.049v0.088v0.077v0.095v0.07v0.096
	v0.086v0.085v0.096l0.037,0.131l0.021,0.123V12.973z M24.425,6.724v0.19l-0.009,0.181L24.397,7.26l-0.01,0.148l-0.018,0.14
	l-0.02,0.138l-0.019,0.1l-0.018,0.121l-0.021,0.13l-0.007,0.114l-0.019,0.267l0.009,0.286v0.095v0.096v0.097v0.103L24.198,9.19
	l-0.056,0.067l-0.086,0.095l-0.083,0.072l-0.047,0.024l-0.038,0.026L23.86,9.502l-0.027,0.034l-0.048-0.017l-0.046-0.01l-0.226,0.01
	h-0.245l-0.235-0.01L22.77,9.483l-0.262-0.026l-0.245-0.033h-0.234H21.83l-0.007-0.036l-0.01-0.026l-0.029-0.009h-0.018
	l-0.085-0.111l-0.085-0.079l0.02-0.087L21.625,9l0.028-0.078l0.01-0.069l0.009-0.165l0.018-0.155l0.029-0.146l0.037-0.139
	l0.057-0.12l0.047-0.114l0.066-0.104l0.084-0.096l0.141-0.164l0.122-0.173l0.102-0.19l0.104-0.183l0.055-0.181l0.057-0.199
	l0.049-0.2l0.045-0.217V6.158l-0.009-0.121l-0.01-0.139l-0.02-0.139L22.62,5.628L22.582,5.51l-0.048-0.123l-0.055-0.129l-0.057-0.07
	l-0.056-0.085l-0.057-0.07l-0.075-0.06l-0.058-0.044l-0.065-0.042l-0.083-0.035l-0.067-0.026L21.86,4.815h-0.104L21.663,4.84
	l-0.122,0.037l-0.122,0.05l-0.122,0.07l-0.15,0.086l-0.142,0.103l-0.113,0.086l-0.113,0.104L20.741,5.43l-0.056,0.062l-0.038,0.059
	l-0.029,0.062l-0.046,0.121l-0.058,0.139L20.495,6.02l-0.008,0.147l-0.009,0.087l-0.02,0.096L20.43,6.436l-0.019,0.106l-0.084,0.214
	l-0.104,0.233l-0.009,0.105l-0.011,0.123l0.011,0.146l0.009,0.156l0.037,0.19L20.289,7.9l0.018,0.163v0.139L20.26,8.366l-0.046,0.15
	L20.16,8.644l-0.056,0.103l-0.058,0.061l-0.038,0.07l-0.027,0.078l-0.019,0.085l-0.114,0.121l-0.101,0.104l-0.058,0.062l-0.104,0.06
	l-0.113,0.077l-0.13,0.071h-0.027l-0.179-0.01h-0.161l-0.159,0.01h-0.142l-0.113,0.017L18.44,9.57l-0.104,0.025l-0.074,0.026
	l-0.083,0.043L18.102,9.69l-0.094,0.044l-0.093,0.019L17.82,9.769h-0.094h-0.122l-0.103-0.01l-0.104-0.017l-0.093-0.016H17.21
	h-0.095l-0.113,0.007l-0.084,0.009L16.825,9.76L16.74,9.786l-0.122,0.019l-0.123,0.017L16.383,9.83H16.28h-0.112l-0.104-0.009
	L15.96,9.805l-0.102-0.019l-0.151-0.008l-0.169,0.017L15.37,9.821l-0.19,0.052l-0.047-0.035l-0.046-0.052l-0.198-0.129l-0.216-0.155
	l-0.234-0.174L14.176,9.13l-0.049-0.035v-0.02V9.041l-0.092-0.128l-0.057-0.149L13.912,8.61l-0.038-0.175l-0.038-0.173l-0.01-0.182
	L13.82,7.882l0.007-0.199L13.81,7.465l-0.039-0.268L13.715,6.85L13.65,6.435V6.349l0.018-0.122l0.038-0.139l0.048-0.148l0.067-0.164
	l0.083-0.199l0.102-0.19l0.121-0.234l0.029-0.086l0.02-0.078l0.114-0.07l0.12-0.067l0.132-0.078l0.18-0.078l0.373-0.173l0.461-0.183
	l0.047-0.034l0.104-0.035l0.104-0.008h0.112h0.121l0.124,0.008l0.075,0.008l0.075-0.008l0.102-0.008l0.085-0.02l0.234-0.068
	l0.254-0.086l0.151-0.07l0.14-0.051l0.15-0.043l0.15-0.053l0.151-0.034l0.15-0.027l0.151-0.025l0.15-0.016l0.16-0.019l0.15-0.009
	h0.15l0.148,0.009l0.171,0.019l0.149,0.016l0.16,0.025l0.151,0.027l0.242,0.043l0.216,0.044l0.218,0.009L20.3,3.94h0.188
	l0.179-0.017l0.159-0.026l0.15-0.035l0.142-0.032l0.151-0.027l0.141-0.008h0.15l0.149,0.015l0.16,0.027L22.03,3.88l0.168,0.053
	l0.169,0.06l0.179,0.088l0.178,0.086l0.178,0.103l0.188,0.122l0.189,0.138l0.197,0.138l0.206,0.157l0.151,0.174l0.14,0.172
	l0.114,0.183l0.094,0.182l0.093,0.182l0.056,0.183l0.048,0.189l0.038,0.191l0.009,0.226V6.724z M18.281,7.898L18.29,8.01
	l-0.009,0.14l-0.039,0.146L18.196,8.48l-0.048,0.094l-0.064,0.104l-0.047,0.086L17.97,8.841l-0.063,0.062L17.84,8.956l-0.076,0.035
	l-0.055,0.033l-0.086,0.01l-0.075,0.007l-0.076-0.017l-0.083-0.025l-0.095-0.043l-0.093-0.071l-0.105-0.077l-0.103-0.104
	l-0.15-0.078l-0.122-0.102l-0.113-0.106l-0.103-0.086l-0.066-0.105l-0.075-0.101l-0.047-0.089l-0.019-0.113l-0.142-0.285
	l-0.093-0.252l-0.038-0.102l-0.028-0.087l-0.019-0.086l-0.01-0.061l-0.009-0.105l-0.026-0.128l-0.011-0.167l-0.037-0.216
	l0.019-0.199l0.029-0.148l0.017-0.051l0.019-0.044l0.029-0.027l0.028-0.018l0.086-0.042l0.045-0.06l0.057-0.07l0.057-0.067
	l0.009-0.026l0.01-0.027l0.009-0.026l0.009-0.017l0.057-0.045l0.083-0.017l0.076-0.026l0.113-0.008l0.131-0.007l0.142,0.007
	l0.092,0.007l0.113,0.018L17.21,5.56l0.094,0.034l0.093,0.051l0.095,0.045l0.066,0.052l0.083,0.07l0.075,0.104l0.048,0.103
	l0.067,0.104l0.055,0.104l0.029,0.105l0.046,0.095l0.037,0.114l0.019,0.093l0.038,0.088l0.019,0.096l0.055,0.085l0.039,0.086
	l0.01,0.07l0.009,0.078l-0.009,0.086l-0.01,0.103L18.206,7.5l0.036,0.155l0.029,0.13L18.281,7.898z M9.955,20.629l-0.046,0.008
	l-0.037,0.02l-0.028,0.007l-0.038-0.007l-0.093-0.02l-0.086-0.034L9.516,20.55l-0.095-0.061l-0.112-0.086l-0.112-0.104l-0.142-0.104
	l-0.132-0.121l-0.121-0.095l-0.085-0.113l-0.093-0.112l-0.048-0.113L8.52,19.539l-0.027-0.113l-0.141-0.303l-0.094-0.242L8.21,18.76
	l-0.017-0.078l-0.019-0.095v-0.061l-0.01-0.113l-0.021-0.139L8.117,18.1l-0.038-0.207l0.038-0.216l0.038-0.164l0.029-0.053
	L8.2,17.424l0.029-0.034l0.038-0.017l0.055-0.061l0.076-0.06l0.046-0.076l0.048-0.088l0.01-0.018l0.009-0.024l0.018-0.018
	l0.038-0.018l0.057-0.044l0.064-0.035l0.114-0.008l0.115-0.019h0.128h0.153l0.112,0.01l0.112,0.01l0.095,0.025L9.628,17l0.082,0.045
	l0.093,0.069l0.066,0.069l0.083,0.077l0.076,0.112l0.075,0.104l0.056,0.113l0.057,0.112l0.047,0.096l0.038,0.112l0.037,0.104
	l0.029,0.095l0.018,0.113l0.02,0.094l0.036,0.096l0.04,0.078l0.019,0.087v0.096v0.077l-0.019,0.104l0.037,0.173l0.047,0.156
	l0.018,0.139l0.011,0.13l0.008,0.13l-0.008,0.139l-0.029,0.164l-0.056,0.165l-0.067,0.129l-0.065,0.106l-0.064,0.095l-0.085,0.069
	l-0.056,0.079l-0.066,0.042l-0.075,0.034L9.955,20.629z M43.831,4.505l-0.15-0.052l-0.151-0.02l-0.14-0.007l-0.141,0.008
	l-0.046,0.02l-0.077,0.024l-0.045,0.018l-0.067,0.025l-0.055,0.025l-0.048,0.026l-0.056,0.034l-0.048,0.052l-0.093,0.086
	l-0.076,0.105l-0.075,0.096l-0.056,0.112L42.46,5.16l-0.046,0.111l-0.028,0.123l-0.019,0.12v0.122l0.009,0.121l0.038,0.12
	l0.056,0.114l0.056,0.104l0.084,0.103l0.096,0.086l0.102,0.106l0.075,0.023l0.094,0.028l0.095,0.025l0.075,0.026l0.094,0.009
	l0.085,0.017h0.104h0.093h0.196l0.207-0.025l0.216-0.052l0.215-0.052l0.312-0.061l0.28-0.06l0.263-0.027l0.254-0.018h0.244h0.216
	l0.206,0.018l0.197,0.035l0.085,0.025l0.094,0.036l0.102,0.025l0.086,0.017l0.102,0.01L46.884,6.4h0.113h0.094l0.196-0.008
	l0.208-0.027l0.215-0.043l0.198-0.078l0.178-0.025l0.179-0.034l0.197-0.019l0.197-0.008l0.207,0.008l0.218,0.035l0.215,0.025
	l0.225,0.053l0.113,0.043l0.122,0.026l0.123,0.017l0.131,0.009l0.123-0.017l0.122-0.017l0.132-0.044l0.131-0.053L50.614,6.2
	L50.7,6.131l0.065-0.069l0.076-0.103l0.063-0.096l0.038-0.122l0.037-0.12l0.039-0.129L51,5.344l-0.03-0.139l-0.035-0.13
	l-0.066-0.129l-0.086-0.122L50.699,4.72l-0.123-0.112L50.464,4.53l-0.132-0.068l-0.15-0.044l-0.149-0.025l-0.17-0.018l-0.17-0.009
	l-0.169,0.017l-0.198,0.025l-0.187,0.025l-0.16,0.044l-0.178,0.027l-0.169,0.007h-0.188l-0.199-0.007l-0.188-0.027L47.86,4.433
	l-0.216-0.042l-0.271-0.044L47.1,4.313l-0.272-0.017h-0.271l-0.272,0.008L46,4.339l-0.272,0.035l-0.28,0.043l-0.236,0.061
	L44.978,4.53l-0.225,0.027l-0.206,0.017h-0.198l-0.188-0.01L43.99,4.538L43.831,4.505L43.831,4.505z M43.625,2.33l-0.132,0.06
	l-0.122,0.052L43.24,2.478L43.098,2.53l-0.123,0.035l-0.131,0.034l-0.131,0.019l-0.122,0.023L42.458,2.66l-0.121,0.008l-0.132,0.011
	h-0.131h-0.122L41.83,2.667l-0.131-0.008L41.577,2.64l-0.114-0.042L41.38,2.572l-0.094-0.034L41.21,2.503l-0.085-0.052L41.07,2.419
	l-0.076-0.046l-0.057-0.06L40.9,2.27l-0.057-0.053l-0.038-0.068l-0.027-0.052L40.76,2.025l-0.01-0.068L40.74,1.89l-0.017-0.078
	v-0.14l0.028-0.139l0.019-0.129l0.046-0.123l0.076-0.12l0.066-0.086L41.06,0.97l0.104-0.086l0.142-0.095l0.159-0.104l0.16-0.07
	l0.168-0.069l0.179-0.06l0.188-0.027l0.188-0.026l0.188-0.017L42.8,0.398l0.271-0.025l0.254-0.053l0.281-0.033l0.177-0.08
	l0.207-0.051l0.207-0.035l0.216-0.042l0.227-0.034l0.215-0.026l0.235-0.01L45.325,0h0.292h0.289h0.254l0.244,0.009l0.235,0.01
	l0.208,0.017l0.206,0.026l0.188,0.035l0.224,0.043L47.7,0.175L47.927,0.2l0.244,0.025l0.234,0.01h0.245l0.255-0.01l0.233-0.035
	l0.187-0.016l0.198-0.019l0.178-0.01L49.88,0.14h0.179l0.17,0.007l0.167,0.019l0.169,0.017l0.19,0.017l0.159,0.042l0.16,0.027
	l0.159,0.033l0.16,0.043l0.151,0.061l0.151,0.053l0.149,0.07l0.075,0.043l0.084,0.034l0.094,0.025l0.095,0.035l0.121,0.019
	l0.112,0.007h0.122h0.144l0.159,0.01L53,0.735l0.159,0.054L53.31,0.83l0.16,0.08l0.161,0.077L53.789,1.1l0.168,0.113l0.178,0.096
	l0.132,0.104L54.4,1.508l0.102,0.095l0.094,0.087l0.066,0.095l0.019,0.035l0.01,0.043L54.7,1.905l0.008,0.042l0.01,0.078
	l0.019,0.088l0.038,0.068l0.038,0.079l0.037,0.062l0.058,0.076l0.057,0.062l0.065,0.069l0.046,0.051l0.048,0.052l0.038,0.063
	l0.037,0.06l0.066,0.147l0.048,0.174l0.036,0.183l0.037,0.188l0.01,0.235v0.242l0.037,0.234l0.058,0.225l0.083,0.199l0.075,0.191
	l0.067,0.095l0.036,0.105l0.04,0.12l0.026,0.148l0.039,0.138l0.017,0.164l0.01,0.167v0.189v0.217v0.217v0.209v0.204v0.2v0.201v0.199
	v0.199l-0.01,0.275l-0.036,0.251l-0.029,0.13L55.78,8.322l-0.029,0.096l-0.027,0.113l-0.038,0.104l-0.049,0.087l-0.046,0.104
	l-0.046,0.087L55.49,8.991l-0.066,0.076l-0.047,0.071l-0.075,0.068l-0.057,0.077L55.179,9.36l-0.065,0.069L55.037,9.51l-0.159,0.138
	l-0.17,0.122l-0.177,0.12l-0.206,0.123L54.099,10.1l-0.234,0.094l-0.086,0.043l-0.094,0.044l-0.104,0.054l-0.102,0.025l-0.096,0.023
	l-0.112,0.026l-0.113,0.034l-0.111,0.019l-0.235,0.024l-0.264,0.01l-0.252-0.01l-0.282-0.017l-0.187-0.008l-0.19-0.009h-0.178
	l-0.179,0.009l-0.169,0.008l-0.15,0.017l-0.151,0.018l-0.15,0.018l-0.149,0.043l-0.16,0.044l-0.15,0.026l-0.16,0.017h-0.15
	l-0.141-0.01l-0.141-0.025l-0.141-0.035l-0.142-0.061l-0.129-0.025l-0.133-0.026l-0.131-0.008h-0.141l-0.141,0.008l-0.132,0.026
	l-0.14,0.025l-0.159,0.07l-0.151,0.051l-0.17,0.026l-0.149,0.007h-0.142l-0.15-0.007l-0.141-0.034l-0.141-0.053l-0.103-0.043
	l-0.101-0.035l-0.116-0.008l-0.102-0.01H46.64h-0.113l-0.113,0.018l-0.122,0.018l-0.075,0.243l-0.103,0.226l-0.105,0.241
	l-0.122,0.226l-0.066,0.087l-0.084,0.104l-0.095,0.095l-0.083,0.078l-0.113,0.104l-0.104,0.095l-0.122,0.086l-0.124,0.086
	l-0.129,0.112l-0.123,0.097l-0.123,0.122l-0.094,0.129l-0.066,0.112l-0.057,0.086l-0.044,0.08L44.386,13l-0.066,0.061l-0.083,0.052
	l-0.085,0.034l-0.085,0.034l-0.094,0.036l-0.102,0.043l-0.095,0.042l-0.084,0.046l-0.084,0.059l-0.085,0.061l-0.085,0.051
	l-0.065,0.078L43.24,13.71l-0.132,0.104l-0.141,0.113l-0.132,0.087l-0.15,0.077l-0.15,0.069l-0.16,0.059l-0.16,0.061l-0.234,0.104
	l-0.254,0.122l-0.244,0.121l-0.226,0.148l-0.123,0.067l-0.112,0.061L40.9,14.949L40.75,15l-0.18,0.045l-0.168,0.025l-0.187,0.016
	l-0.188,0.017h-0.169l-0.179,0.027l-0.159,0.035L39.369,15.2l-0.15,0.061l-0.15,0.052l-0.142,0.061l-0.14,0.078l-0.132,0.062
	l-0.132,0.051l-0.112,0.043l-0.112,0.025l-0.103,0.019l-0.105,0.016l-0.073,0.011l-0.085-0.011h-0.161h-0.151l-0.131,0.036
	l-0.103,0.025l-0.179,0.052l-0.187,0.053l-0.178,0.024l-0.169,0.01h-0.179l-0.189-0.01l-0.177-0.042l-0.188-0.035L35.8,15.744
	l-0.105-0.042l-0.111-0.052l-0.077-0.044l-0.074-0.035l-0.047-0.051l-0.029-0.044l-0.029-0.044l-0.018-0.104l-0.028-0.06
	l-0.029-0.043l-0.019-0.019l-0.019-0.017l-0.017-0.007l-0.038-0.027l-0.029-0.025l-0.027-0.035l-0.019-0.043l-0.029-0.104
	l-0.009-0.132l-0.01-0.095V14.62l0.01-0.113l0.019-0.087l0.037-0.104l0.038-0.086l0.065-0.087l0.066-0.088l0.076-0.061l0.063-0.052
	l0.095-0.052l0.085-0.06l0.112-0.045l0.113-0.05l0.113-0.053l0.13-0.043l0.141-0.018l0.142-0.026l0.132-0.008l0.151-0.009h0.139
	l0.142,0.009l0.122,0.008l0.15,0.026l0.197,0.028l0.226,0.025l0.253,0.025l0.264,0.008l0.132-0.025l0.14-0.027l0.131-0.025
	l0.122-0.026l0.143-0.044l0.121-0.05l0.114-0.044l0.121-0.07l0.113-0.076l0.113-0.069l0.123-0.054l0.122-0.052l0.123-0.044
	l0.13-0.024l0.141-0.026l0.14-0.008l0.132-0.026l0.121-0.045l0.142-0.024l0.123-0.053l0.122-0.068l0.131-0.062l0.103-0.078
	l0.112-0.078l0.113-0.077l0.095-0.061l0.112-0.068l0.114-0.043l0.104-0.043l0.11-0.035l0.113-0.036l0.122-0.025l0.161-0.069
	l0.17-0.095l0.149-0.087l0.141-0.096l0.133-0.103l0.111-0.113l0.132-0.112l0.112-0.112l0.094-0.157l0.085-0.129l0.094-0.13
	l0.076-0.111l-0.179-0.053l-0.177-0.019l-0.17-0.018H42.77l-0.17,0.009l-0.168,0.027l-0.169,0.053l-0.159,0.06l-0.114,0.026
	l-0.14,0.025l-0.151,0.01l-0.16-0.01l-0.197-0.025l-0.198-0.026l-0.217-0.053l-0.234-0.068l-0.245-0.052l-0.224-0.07l-0.189-0.078
	l-0.168-0.095l-0.066-0.044l-0.064-0.034l-0.058-0.051l-0.065-0.054l-0.047-0.032l-0.038-0.062l-0.036-0.052l-0.03-0.044
	l-0.027-0.12l-0.047-0.105l-0.066-0.113l-0.056-0.085l-0.104-0.096l-0.094-0.104l-0.113-0.088L38.815,9.37l-0.038-0.024L38.711,9.31
	l-0.038-0.052l-0.036-0.044L38.608,9.17L38.56,9.102l-0.027-0.061L38.514,8.98l-0.019-0.077l-0.019-0.069l-0.009-0.078l-0.01-0.087
	V8.487l0.01-0.208l-0.01-0.311l-0.01-0.304l-0.01-0.286L38.43,7.102l-0.029-0.251l-0.027-0.233l-0.019-0.225l-0.029-0.227
	l-0.038-0.112l-0.028-0.13l-0.009-0.121l-0.01-0.12V5.551l0.01-0.129l0.009-0.119l0.039-0.115l0.019-0.174l0.009-0.163l0.009-0.174
	l-0.009-0.172V4.313V4.139l0.019-0.172l0.028-0.164l0.038-0.165l0.046-0.164l0.056-0.147l0.075-0.148l0.048-0.086l0.055-0.103
	l0.067-0.087l0.056-0.078l0.057-0.068l0.074-0.06l0.067-0.063l0.075-0.052l0.056-0.042l0.076-0.044l0.068-0.043l0.073-0.018
	l0.065-0.025l0.085-0.018l0.056-0.017l0.077-0.008L39.822,2.4l0.16,0.035l0.13,0.035l0.143,0.06l0.063,0.051l0.069,0.07l0.046,0.07
	l0.056,0.069l0.047,0.086l0.036,0.086l0.039,0.095l0.029,0.096l0.046,0.13l0.039,0.146l0.037,0.175v0.2l0.009,0.208v0.231
	L40.76,4.487l-0.037,0.25l-0.039,0.329l-0.038,0.303L40.62,5.646L40.6,5.899v0.242v0.225l0.008,0.191l0.029,0.188l0.046,0.209
	l0.056,0.192l0.048,0.189l0.056,0.155l0.067,0.148l0.057,0.131l0.065,0.112l0.074,0.096l0.096,0.14l0.102,0.119l0.121,0.119
	l0.131,0.106l0.142,0.078l0.151,0.087l0.16,0.069l0.179,0.052l0.149,0.033l0.131,0.027l0.14,0.026l0.143,0.018l0.13,0.008
	l0.151,0.019h0.15h0.151h0.149l0.151-0.026h0.149l0.169-0.025L44.112,8.8l0.15-0.025l0.16-0.052l0.179-0.026l0.206-0.061
	l0.215-0.044L45.23,8.54l0.206-0.023l0.207-0.035l0.217-0.019l0.207-0.026l0.216-0.008L46.48,8.42l0.207,0.009l0.214,0.008
	L47.1,8.451l0.207,0.029l0.206,0.024l0.198,0.026l0.198,0.043l0.262,0.052l0.234,0.035l0.236,0.017h0.234l0.226-0.017l0.216-0.026
	l0.206-0.061l0.207-0.051l0.196-0.043l0.218-0.054l0.207-0.034l0.216-0.027l0.225-0.017l0.235-0.008l0.244-0.009l0.235,0.009
	l0.114,0.008l0.102,0.007h0.106l0.093-0.007h0.094l0.084-0.017l0.083-0.018l0.087-0.034l0.084-0.026l0.074-0.033l0.085-0.025
	l0.056-0.054l0.086-0.043l0.055-0.052l0.065-0.062l0.066-0.061l0.095-0.077l0.083-0.087l0.086-0.103l0.084-0.12l0.076-0.141
	l0.074-0.147l0.084-0.164l0.057-0.173l0.02-0.2l0.007-0.199V6.332l-0.007-0.191l-0.02-0.174l-0.038-0.164l-0.039-0.164l-0.065-0.147
	l-0.057-0.14l-0.037-0.13l-0.028-0.139l-0.038-0.121L53.148,4.84L53.14,4.728l-0.008-0.13l-0.01-0.094l-0.019-0.157l-0.029-0.163
	l-0.037-0.157L52.98,3.862l-0.15-0.181l-0.122-0.157L52.67,3.446l-0.026-0.052l-0.029-0.051l-0.009-0.062l-0.038-0.068l-0.039-0.078
	l-0.027-0.051l-0.037-0.071l-0.046-0.052L52.37,2.928l-0.038-0.044l-0.056-0.025l-0.142-0.061l-0.14-0.07L51.862,2.66l-0.11-0.079
	l-0.049-0.042l-0.066-0.044L51.57,2.451l-0.101-0.032l-0.104-0.036l-0.122-0.035l-0.142-0.034l-0.167-0.036l-0.368-0.043
	l-0.422-0.053L49.646,2.14L49.09,2.114h-0.412h-0.376h-0.375h-0.348l-0.328-0.017L46.94,2.088l-0.3-0.035l-0.281-0.027l-0.188-0.024
	l-0.178-0.025l-0.189-0.019l-0.17-0.01h-0.177h-0.17l-0.178,0.01l-0.17,0.009l-0.168,0.026L44.61,2.018l-0.168,0.035l-0.16,0.052
	L44.104,2.14l-0.159,0.069l-0.162,0.06L43.625,2.33L43.625,2.33z M52.418,24.544l0.093-0.01l0.094-0.024l0.103-0.035l0.113-0.045
	l0.253-0.103l0.292-0.155l0.329-0.167l0.356-0.196l0.405-0.242l0.422-0.27l0.235-0.138l0.198-0.139l0.187-0.13l0.188-0.131
	l0.159-0.139l0.142-0.119l0.122-0.141l0.132-0.14l0.084-0.172l0.093-0.139l0.046-0.052l0.048-0.042l0.057-0.054l0.058-0.035
	l0.027-0.008l0.038-0.018l0.036-0.009l0.057-0.025l0.094-0.078l0.113-0.078l0.14-0.129l0.151-0.14l0.161-0.182l0.167-0.19
	l0.132-0.19l0.121-0.191l0.085-0.174l0.085-0.172l0.056-0.146l0.046-0.148l0.028-0.13l0.009-0.131v-0.164l0.011-0.157l0.019-0.127
	l0.029-0.122l0.084-0.227l0.075-0.207l0.037-0.181l0.037-0.156l0.011-0.149v-0.12l-0.011-0.069l-0.019-0.034l-0.027-0.043
	l-0.009-0.054l-0.028-0.094l-0.01-0.104l-0.01-0.111v-0.079l0.01-0.104l0.028-0.08l0.018-0.084l0.046-0.078l0.03-0.062l0.018-0.06
	V16.87l0.009-0.068l-0.009-0.051l-0.018-0.053l-0.03-0.069l-0.037-0.044l-0.037-0.07l-0.047-0.067l-0.038-0.07L58.26,16.31
	l-0.019-0.069l-0.03-0.077l-0.018-0.079l-0.02-0.078V15.9l-0.009-0.112l-0.017-0.096l-0.029-0.096l-0.037-0.102l-0.038-0.078
	l-0.056-0.096l-0.084-0.086l-0.122-0.242l-0.103-0.216l-0.113-0.191L57.47,14.42l-0.008-0.104l-0.029-0.097l-0.028-0.085
	l-0.046-0.079l-0.039-0.084l-0.057-0.063l-0.083-0.076l-0.066-0.045l-0.337-0.26l-0.312-0.234l-0.14-0.129l-0.122-0.112L56.08,12.94
	l-0.112-0.122l-0.047-0.078l-0.076-0.086l-0.083-0.08l-0.086-0.076l-0.112-0.068l-0.131-0.079l-0.13-0.059l-0.153-0.07l-0.167-0.061
	l-0.178-0.076l-0.169-0.07l-0.17-0.085l-0.162-0.097l-0.168-0.086l-0.178-0.095l-0.16-0.112l-0.084-0.054L53.61,11.44l-0.076-0.051
	l-0.093-0.026l-0.075-0.019l-0.085-0.007h-0.084l-0.075,0.007H53.01h-0.105l-0.113-0.007l-0.102-0.009l-0.115-0.018l-0.083-0.036
	l-0.104-0.026l-0.075-0.042l-0.179-0.01l-0.169,0.01l-0.14,0.018l-0.131,0.035L51.6,11.294l-0.114,0.008h-0.103l-0.122-0.008
	l-0.142-0.027l-0.142-0.026l-0.148-0.034l-0.17-0.044l-0.309-0.062l-0.311-0.034l-0.291-0.034l-0.282-0.017h-0.151h-0.141
	l-0.151,0.01l-0.14,0.016l-0.151,0.025l-0.161,0.034l-0.149,0.045l-0.169,0.034l-0.149,0.068l-0.122,0.08l-0.067,0.034l-0.046,0.053
	l-0.048,0.052l-0.057,0.042l-0.037,0.054l-0.03,0.059l-0.028,0.051l-0.036,0.071l-0.019,0.062l-0.019,0.059l-0.01,0.07v0.069v0.147
	l0.019,0.14l0.037,0.112l0.047,0.104l0.047,0.103l0.085,0.078l0.074,0.078l0.104,0.052l0.029,0.034l-0.291,0.2l-0.291,0.19
	l-0.3,0.19l-0.33,0.164l-0.14,0.088l-0.132,0.113l-0.13,0.11l-0.122,0.121l-0.177,0.114l-0.217,0.146l-0.291,0.183l-0.337,0.226
	l-0.217,0.11l-0.215,0.131l-0.208,0.113l-0.207,0.113l-0.187,0.11l-0.178,0.097l-0.17,0.095l-0.17,0.103l-0.196,0.088l-0.235,0.111
	l-0.234,0.156l-0.273,0.164l-0.15,0.132l-0.17,0.12l-0.178,0.104l-0.207,0.112l-0.103,0.035l-0.121,0.043l-0.095,0.061l-0.094,0.053
	l-0.092,0.041l-0.085,0.07l-0.066,0.061l-0.086,0.068l-0.11,0.086l-0.162,0.098l-0.197,0.095l-0.225,0.103l-0.253,0.104
	l-0.302,0.104l-0.318,0.121l-0.358,0.112l-0.301,0.061l-0.262,0.051l-0.102,0.045l-0.104,0.033l-0.094,0.044l-0.076,0.025
	l-0.132,0.08l-0.149,0.059l-0.179,0.052l-0.197,0.052l-0.244,0.045l-0.244,0.044l-0.292,0.033l-0.291,0.026l-0.18,0.016
	l-0.158,0.027l-0.16,0.044l-0.161,0.044l-0.149,0.059L35.79,18.73l-0.122,0.104l-0.124,0.096l-0.132,0.122l-0.101,0.12l-0.085,0.112
	l-0.065,0.112L35.114,19.5l-0.02,0.103l-0.008,0.062v0.052v0.034l0.008,0.062l0.038,0.138l0.048,0.14l0.065,0.119l0.076,0.122
	l0.084,0.113l0.103,0.094l0.103,0.088l0.132,0.085l0.104,0.054l0.102,0.059l0.131,0.035l0.142,0.018l0.14,0.018l0.16,0.016h0.171
	l0.195-0.007l0.142-0.017l0.15-0.018l0.171-0.034l0.159-0.052l0.149-0.053l0.151-0.06l0.142-0.088l0.168-0.096l0.132-0.077
	l0.122-0.069l0.113-0.06l0.111-0.045l0.084-0.033l0.094-0.027l0.066-0.01h0.077l0.103-0.007l0.141-0.018l0.16-0.044l0.188-0.051
	l0.197-0.062l0.215-0.086l0.254-0.086l0.254-0.113l0.383-0.155l0.33-0.148l0.273-0.131l0.225-0.11l0.104-0.103l0.104-0.088
	l0.103-0.078l0.093-0.08l0.113-0.067l0.085-0.043l0.104-0.061l0.084-0.035l0.141-0.043l0.15-0.061l0.14-0.052l0.122-0.052
	l0.102-0.07l0.115-0.066l0.074-0.071l0.094-0.078l0.065-0.08l0.085-0.067l0.074-0.069l0.085-0.068l0.084-0.059l0.085-0.044
	l0.095-0.061l0.093-0.044l0.122-0.052l0.122-0.077l0.104-0.069l0.112-0.087l0.226-0.172l0.225-0.191l0.149-0.131l0.143-0.111
	l0.151-0.096l0.15-0.069l0.234-0.141l0.272-0.18l0.292-0.21l0.309-0.25l0.075-0.077l0.085-0.096l0.075-0.078l0.093-0.069
	l0.085-0.069l0.094-0.069l0.094-0.052l0.112-0.062l0.262-0.181l0.284-0.209l0.3-0.197l0.291-0.235l0.112-0.129l0.115-0.121
	l0.139-0.113l0.15-0.095l0.131-0.095l0.133-0.08l0.104-0.095l0.093-0.077l0.085-0.104l0.066-0.097l0.056-0.087l0.047-0.112h0.027
	h0.029l0.076,0.018l0.083,0.009h0.094h0.113l0.094-0.009l0.131-0.018l0.121-0.025l0.132-0.017l0.084-0.036l0.094-0.018l0.124-0.007
	h0.121l0.132,0.007l0.15,0.018l0.168,0.019l0.189,0.034h0.094l0.093,0.019l0.084,0.007l0.076,0.026l0.019,0.045l0.038,0.061
	l0.047,0.067l0.047,0.078l0.103,0.208l0.083,0.234l0.103,0.252l0.085,0.267l0.038,0.112l0.028,0.104l0.036,0.105l0.038,0.06
	l0.027,0.069l0.047,0.043l0.038,0.036l0.047,0.008l0.094-0.008l0.112-0.017l0.124-0.027l0.14-0.024l0.142-0.018l0.159-0.019
	l0.197-0.043l0.206-0.024l0.113-0.018l0.142-0.009l0.169-0.017l0.188-0.011l0.055,0.019l0.077,0.018l0.065,0.023l0.066,0.035
	L55.113,15l0.179,0.184l0.168,0.18l0.151,0.2l0.14,0.199l0.122,0.19l0.096,0.216l0.093,0.218l0.028,0.061l0.019,0.067l0.038,0.08
	l0.019,0.086l0.029,0.173l0.009,0.191v0.216l-0.029,0.233l-0.028,0.26l-0.056,0.275L55.997,18.3l-0.094,0.252l-0.105,0.217
	l-0.103,0.206l-0.112,0.191L55.46,19.33l-0.123,0.156l-0.121,0.131l-0.114,0.103l-0.112,0.139l-0.13,0.148l-0.124,0.162l-0.177,0.21
	l-0.179,0.172l-0.168,0.164l-0.17,0.157l-0.169,0.122l-0.159,0.112l-0.159,0.086l-0.159,0.069l-0.067,0.009l-0.065,0.018
	l-0.048,0.025l-0.057,0.026l-0.045,0.035l-0.04,0.033l-0.057,0.053l-0.036,0.061l-0.046,0.034l-0.066,0.044l-0.066,0.033
	l-0.085,0.052l-0.17,0.071l-0.196,0.085l-0.254,0.069l-0.264,0.077l-0.3,0.054l-0.347,0.077l-0.253,0.062l-0.246,0.04l-0.235,0.036
	l-0.215,0.018l-0.199,0.009l-0.177-0.009l-0.161-0.018l-0.149-0.036l-0.104-0.008l-0.111-0.025l-0.086-0.026l-0.112-0.043
	l-0.177-0.131l-0.17-0.129l-0.17-0.102l-0.149-0.078l-0.161-0.078l-0.15-0.053l-0.14-0.025l-0.133-0.026h-0.065h-0.075l-0.048,0.017
	l-0.076,0.018l-0.055,0.008l-0.048,0.019l-0.056,0.025l-0.056,0.035l-0.046,0.052l-0.065,0.052l-0.037,0.069l-0.038,0.069
	l-0.038,0.087l-0.009,0.086v0.104v0.112l0.009,0.113l0.028,0.106l0.029,0.103l0.037,0.112l0.048,0.114l0.057,0.095l0.065,0.111
	l0.084,0.102l0.075,0.089l0.075,0.104L47.72,23.4l0.039,0.104l0.009,0.069l0.019,0.078l0.038,0.053l0.037,0.059l0.028,0.07
	l0.047,0.052l0.066,0.069l0.056,0.044l0.123,0.146l0.105,0.14l0.082,0.146l0.057,0.148l0.067,0.071l0.055,0.052l0.085,0.051
	l0.085,0.053l0.113,0.033l0.123,0.035l0.131,0.044l0.149,0.017l0.16,0.025l0.178,0.035l0.208,0.061l0.244,0.07l0.092,0.015
	l0.115,0.011l0.13-0.011l0.131-0.015l0.141-0.034l0.159-0.036l0.162-0.061l0.179-0.061l0.355-0.122l0.339-0.11l0.319-0.089
	L52.418,24.544L52.418,24.544z M43.22,20.715l-0.139,0.097l-0.17,0.096l-0.206,0.11l-0.246,0.114l-0.281,0.112l-0.32,0.131
	l-0.366,0.138l-0.385,0.14l-0.17,0.026l-0.158,0.024l-0.15,0.033l-0.13,0.054l-0.133,0.042l-0.121,0.036l-0.096,0.052l-0.102,0.061
	l-0.142,0.069l-0.167,0.077l-0.198,0.061l-0.216,0.078l-0.244,0.052l-0.281,0.059l-0.302,0.044l-0.318,0.045l-0.188,0.017
	l-0.197,0.034l-0.179,0.034l-0.159,0.061l-0.16,0.069l-0.151,0.087l-0.151,0.097l-0.14,0.129l-0.131,0.131l-0.093,0.119
	l-0.105,0.132l-0.056,0.129l-0.057,0.113l-0.029,0.12l-0.007,0.07v0.042l0.007,0.07v0.062l0.066,0.154l0.048,0.148l0.085,0.139
	l0.075,0.131l0.102,0.113l0.105,0.112l0.13,0.094l0.133,0.095l0.111,0.043l0.122,0.054l0.152,0.034l0.149,0.026l0.161,0.015
	L38,25.151l0.188-0.011l0.196-0.015l0.161-0.01l0.159-0.024l0.17-0.054l0.161-0.051l0.178-0.053l0.167-0.087l0.18-0.077l0.169-0.113
	l0.15-0.095l0.141-0.069l0.131-0.077l0.105-0.054l0.111-0.042l0.094-0.025l0.085-0.019h0.065l0.142-0.008l0.15-0.035l0.17-0.051
	l0.197-0.062l0.206-0.086l0.254-0.087L42,23.834l0.291-0.129l0.415-0.174l0.366-0.165l0.149-0.077l0.122-0.069l0.123-0.079
	l0.104-0.069l0.122-0.104l0.104-0.103l0.122-0.079l0.113-0.086l0.113-0.07l0.094-0.06l0.103-0.052l0.112-0.051l0.179-0.07
	l0.159-0.06l0.151-0.069l0.132-0.078l0.131-0.061l0.093-0.077L45.394,22l0.083-0.078l0.085-0.078l0.065-0.095l0.093-0.068
	l0.076-0.088l0.094-0.06l0.094-0.088l0.094-0.059l0.102-0.062l0.029-0.025l0.038-0.009l0.008-0.009l0.039-0.009l0.037-0.009h0.056
	l0.179-0.01l0.159-0.017l0.131-0.025l0.122-0.009l0.123-0.009h0.131h0.132l0.103,0.009l0.029-0.035l0.037-0.104l0.028-0.148
	l0.057-0.199l0.019-0.164l0.046-0.155l0.037-0.139l0.066-0.147l0.141-0.061l0.141-0.077l0.16-0.088l0.15-0.112l0.16-0.103
	l0.15-0.121l0.168-0.141l0.16-0.146l0.085-0.103l0.075-0.096l0.092-0.096l0.097-0.086l0.092-0.088l0.104-0.06l0.122-0.061
	l0.104-0.07l0.281-0.197l0.311-0.234l0.31-0.252l0.329-0.242l0.076-0.096l0.056-0.079l0.084-0.077l0.058-0.068l0.085-0.061
	l0.073-0.062l0.076-0.058l0.084-0.053l0.151-0.088l0.131-0.104l0.122-0.096l0.103-0.111l0.085-0.122l0.076-0.122l0.056-0.129
	l0.028-0.129v-0.07v-0.069l-0.009-0.062l-0.009-0.068l-0.02-0.043l-0.027-0.061l-0.039-0.061l-0.037-0.034l-0.039-0.044
	l-0.046-0.051l-0.065-0.035l-0.057-0.027l-0.065-0.033l-0.067-0.035l-0.075-0.026l-0.086-0.017l-0.112-0.026h-0.122l-0.111,0.009
	l-0.124,0.026l-0.14,0.052l-0.133,0.051l-0.139,0.069l-0.141,0.097l-0.188,0.148l-0.179,0.139l-0.197,0.139l-0.198,0.138
	l-0.187,0.129l-0.197,0.131l-0.216,0.13l-0.198,0.112l-0.075,0.052l-0.094,0.045l-0.064,0.068l-0.076,0.061l-0.066,0.07
	l-0.066,0.068l-0.056,0.069l-0.047,0.087l-0.216,0.112l-0.264,0.165l-0.309,0.208l-0.366,0.241l-0.254,0.155l-0.214,0.141
	l-0.228,0.138l-0.215,0.121l-0.206,0.121l-0.189,0.121l-0.196,0.104l-0.17,0.088l-0.196,0.121l-0.245,0.139l-0.254,0.157
	l-0.291,0.197l-0.104,0.067l-0.073,0.089l-0.104,0.061l-0.104,0.079l-0.092,0.059L44.2,20.096l-0.113,0.051l-0.102,0.052
	l-0.113,0.053l-0.113,0.052l-0.112,0.07l-0.086,0.051l-0.103,0.068l-0.076,0.071l-0.094,0.068L43.22,20.715z"/>
</svg>
