<?xml version="1.0" encoding="iso-8859-1"?>
<!-- Generator: Adobe Illustrator 17.0.0, SVG Export Plug-In . SVG Version: 6.00 Build 0)  -->
<!DOCTYPE svg PUBLIC "-//W3C//DTD SVG 1.1//EN" "http://www.w3.org/Graphics/SVG/1.1/DTD/svg11.dtd">
<svg version="1.1" id="Objects" xmlns="http://www.w3.org/2000/svg" xmlns:xlink="http://www.w3.org/1999/xlink" x="0px" y="0px"
	 width="462.541px" height="273.119px" viewBox="0 0 462.541 273.119" style="enable-background:new 0 0 462.541 273.119;"
	 xml:space="preserve">
<g>
	<g>
		<g>
			<g>
				<path style="fill:#666666;" d="M311.15,150.767c0,2.331-2.047,4.221-4.576,4.221h-85.158c-2.527,0-4.576-1.89-4.576-4.221
					v-56.28c0-2.331,2.049-4.221,4.576-4.221h85.158c2.529,0,4.576,1.89,4.576,4.221V150.767z"/>
				<path style="fill:#4E4E4E;" d="M310.406,150.321c0,2.295-2.016,4.154-4.502,4.154h-83.816c-2.487,0-4.504-1.859-4.504-4.154
					V94.931c0-2.294,2.017-4.155,4.504-4.155h83.816c2.486,0,4.502,1.861,4.502,4.155V150.321z"/>
				<rect x="221.727" y="95.058" style="fill:#B8E4E2;" width="84.535" height="48.807"/>
				<polygon style="fill:#D9F9F8;" points="306.263,143.864 221.727,143.864 222.881,96.388 305.111,96.388 				"/>
				
					<linearGradient id="SVGID_1_" gradientUnits="userSpaceOnUse" x1="886.8506" y1="95.0576" x2="886.8506" y2="143.8644" gradientTransform="matrix(1 0 0 1 -586.2793 0)">
					<stop  offset="0" style="stop-color:#FFFFFF"/>
					<stop  offset="1" style="stop-color:#FFFFFF;stop-opacity:0"/>
				</linearGradient>
				<rect x="298.092" y="95.058" style="opacity:0.7;fill:url(#SVGID_1_);" width="4.959" height="48.807"/>
				
					<linearGradient id="SVGID_2_" gradientUnits="userSpaceOnUse" x1="880.6528" y1="95.0576" x2="880.6528" y2="143.8644" gradientTransform="matrix(1 0 0 1 -586.2793 0)">
					<stop  offset="0" style="stop-color:#FFFFFF"/>
					<stop  offset="1" style="stop-color:#FFFFFF;stop-opacity:0"/>
				</linearGradient>
				<rect x="293.029" y="95.058" style="opacity:0.7;fill:url(#SVGID_2_);" width="2.688" height="48.807"/>
				<ellipse style="fill:#C8C8C8;" cx="263.995" cy="92.791" rx="1.215" ry="1.121"/>
				<ellipse style="fill:#7F7F7F;" cx="263.995" cy="92.791" rx="1.021" ry="0.942"/>
			</g>
			<path style="fill:#EFEFEF;" d="M210.613,147.55v3.492c0,2.179,2.318,3.945,5.179,3.945H312.2c2.858,0,5.179-1.767,5.179-3.945
				v-3.492H210.613z"/>
			<path style="fill:#C8C8C8;" d="M210.736,151.886c0.509,1.771,2.577,3.102,5.056,3.102H312.2c2.478,0,4.546-1.33,5.053-3.102
				H210.736z"/>
			<g>
				<path style="fill:#C8C8C8;" d="M282.221,147.763v1.896h-36.992v-1.896H282.221 M282.457,147.526h-37.466v2.369h37.466V147.526
					L282.457,147.526z"/>
			</g>
			<g>
				<circle style="fill:#C8C8C8;" cx="213.539" cy="149.693" r="0.791"/>
				<circle style="fill:#666666;" cx="213.539" cy="149.693" r="0.586"/>
			</g>
			<g>
				<circle style="fill:#C8C8C8;" cx="216.019" cy="149.693" r="0.79"/>
				<circle style="fill:#666666;" cx="216.019" cy="149.693" r="0.586"/>
			</g>
			<g>
				<circle style="fill:#C8C8C8;" cx="218.5" cy="149.693" r="0.791"/>
				<circle style="fill:#666666;" cx="218.5" cy="149.693" r="0.586"/>
			</g>
			<rect x="226.26" y="100.918" style="fill:#47A2B4;" width="74.828" height="7.381"/>
			<rect x="226.26" y="110.391" style="fill:#47A2B4;" width="15.178" height="31.067"/>
			<rect x="243.938" y="110.391" style="fill:#47A2B4;" width="57.079" height="31.067"/>
		</g>
		<polygon style="fill:#685849;" points="407.188,165.23 177.321,165.23 177.321,169.062 177.321,172.281 177.321,271.275 
			188.697,271.275 188.697,172.281 395.285,172.281 395.285,271.275 406.66,271.275 406.66,172.281 407.188,172.281 		"/>
		<rect x="170.043" y="154.974" style="fill:#84776B;" width="244.424" height="13.26"/>
		<g>
			<path style="fill:#648CB0;" d="M305.23,152.576c-0.174,0.001-0.312,0.14-0.312,0.312c0,0.171,0.139,0.31,0.313,0.31l1.245-0.001
				c0.171-0.001,0.311-0.139,0.311-0.312c-0.001-0.172-0.14-0.312-0.311-0.311L305.23,152.576z"/>
			<path style="fill:#243E5B;" d="M307.974,151.451c-1.125,0.001-2.032,0.642-2.031,1.429c0,0.788,0.91,1.425,2.034,1.424
				l36.143-0.048c1.122-0.002,2.033-0.641,2.031-1.429c0-0.787-0.912-1.426-2.036-1.424L307.974,151.451z"/>
			<path style="fill:#E4A530;" d="M310.034,151.087c-0.993,0.001-1.798,0.807-1.796,1.8c0.001,0.994,0.808,1.797,1.801,1.796
				l32.446-0.043c0.995,0,1.798-0.807,1.798-1.801c-0.002-0.992-0.809-1.797-1.803-1.795L310.034,151.087z"/>
			<path style="fill:#243E5B;" d="M342.066,151.044l-2.216-1.035l-9.756,0.012c0,0-0.553,0.277-0.897,0.694l8.094-0.012
				c0,0,1.387,1.798,0.283,4.083l4.564-0.006C342.139,154.78,343.244,152.842,342.066,151.044z"/>
		</g>
		<g>
			<path style="fill-rule:evenodd;clip-rule:evenodd;fill:#D85A67;" d="M334.391,154.749l-4.353-1.936l4.365-1.908l35.56,0.119
				c0.577,0.001,1.048,0.475,1.044,1.051l-0.004,1.748c-0.002,0.576-0.477,1.045-1.053,1.045L334.391,154.749z"/>
			<path style="fill-rule:evenodd;clip-rule:evenodd;fill:#A9272D;" d="M334.391,154.749l-4.353-1.936l4.534,0.014l36.434,0.123
				l-0.002,0.873c-0.002,0.576-0.477,1.045-1.053,1.045L334.391,154.749z"/>
			<path style="fill-rule:evenodd;clip-rule:evenodd;fill:#243E5B;" d="M334.391,154.749l-4.353-1.936l4.365-1.908l34.017,0.113
				c0.227,1.354,0.213,2.627-0.012,3.844L334.391,154.749z"/>
			<path style="fill-rule:evenodd;clip-rule:evenodd;" d="M334.391,154.749l-4.353-1.936l4.534,0.014l34.011,0.113
				c0,0.656-0.06,1.297-0.175,1.922L334.391,154.749z"/>
			<path style="fill-rule:evenodd;clip-rule:evenodd;fill:#DE5614;" d="M334.391,154.749l-4.353-1.936l4.365-1.908l32.792,0.109
				c0.241,1.361,0.226,2.634-0.014,3.844L334.391,154.749z"/>
			<path style="fill-rule:evenodd;clip-rule:evenodd;fill:#A9272D;" d="M334.391,154.749l-4.353-1.936l4.534,0.014l32.796,0.11
				c0,0.659-0.062,1.298-0.187,1.921L334.391,154.749z"/>
			<path style="fill-rule:evenodd;clip-rule:evenodd;fill:#DFAE6F;" d="M334.391,154.749l-4.353-1.936l4.365-1.908
				c0.112,0.611,0.17,1.256,0.169,1.922C334.568,153.495,334.506,154.14,334.391,154.749z"/>
			<path style="fill-rule:evenodd;clip-rule:evenodd;fill:#B68951;" d="M334.391,154.749l-4.353-1.936l4.534,0.014
				C334.568,153.495,334.506,154.14,334.391,154.749z"/>
			<path style="fill-rule:evenodd;clip-rule:evenodd;fill:#232323;" d="M331.475,153.452l-1.436-0.639l1.442-0.631
				c0.037,0.203,0.055,0.416,0.055,0.636C331.534,153.038,331.514,153.251,331.475,153.452z"/>
		</g>
	</g>
	<g>
		<g>
			<path style="fill:#FEDBBE;" d="M216.194,119.433c-1.371,1.262-4.471,5.001-3.63,4.676c3.406-1.322,4.742-1.779,5.636-1.926
				c1.24-0.209,2.131,0.764,1.945,1.765c-0.127,0.698-0.888,1.503-2.188,1.989c-2.814,1.053-3.644,2.368-3.644,2.368
				s6.53-2.556,5.589,0.802c-0.187,0.67-6.849,3.803-6.849,3.803c-3.072,1.843-4.205,3.314-7.555,4.992
				c-1.461-1.911-3.145-3.533-4.855-5.14c0.239-0.581,0.418-0.954,0.418-0.954s1.945-8.076,1.271-12.389c0,0,2.551-1.848,3.105,2.08
				c0.336,2.361,0.131,3.34-0.085,3.75c0.893-0.904,3.727-3.77,6.382-6.445C216.009,114.491,218.476,117.331,216.194,119.433z"/>
			<path style="fill-rule:evenodd;clip-rule:evenodd;fill:#2B2B2B;" d="M179.854,132.361c5.735,0.93,12.275-0.07,19.614-4.096
				c0,0,10.028-1.821,10.253,9.818c0,0-21.002,13.466-41.646,5.747C173.083,141.121,177.429,137.307,179.854,132.361z"/>
			<path style="fill-rule:evenodd;clip-rule:evenodd;fill:#393B41;" d="M149.13,99.149c1.986,7.121,12.117,28.86,28.953,32.856
				c-2.535,4.82-7.021,8.469-12.083,10.969c-8.639-3.851-17.09-11.623-23.775-25.895c-3.144-6.71-4.906-12.591-4.829-16.808
				L149.13,99.149z"/>
			<path style="fill-rule:evenodd;clip-rule:evenodd;fill:#BEBEC0;" d="M200.493,131.075c-0.134,0.734,0.353,1.44,1.086,1.572
				c0.738,0.134,1.441-0.354,1.574-1.088c0.134-0.736-0.354-1.439-1.089-1.574C201.331,129.853,200.626,130.34,200.493,131.075z"/>
		</g>
		<g>
			<path style="fill:#FEDBBE;" d="M147.516,264.669l-4.816-6.906c0,0,3.632-5.025,9.264-27.084
				c5.63-22.059-7.028-52.768-7.028-52.768c-14.262-2.475-27.642,11.725-19.396,20.658c8.246,8.936,11.019,50.537,9.673,57.518
				c-0.528,2.734-0.745,5.941-0.814,8.83C138.842,266.374,143.266,265.995,147.516,264.669z"/>
			<path style="fill:#383838;" d="M134.396,264.917c-0.107,4.482,0.141,8.202,0.141,8.202h1.09c0,0,0.93-1.675,1.769-3.351
				c0.837-1.676,5.304,3.351,5.304,3.351h10.707l-5.891-8.45C143.266,265.995,138.842,266.374,134.396,264.917z"/>
		</g>
		<g>
			<path style="fill:#FEDBBE;" d="M81.676,260.546l-0.217-8.416c0,0,5.797-2.197,22.646-17.508
				c16.848-15.31,23.194-47.914,23.194-47.914c-10.541-9.92-29.531-5.436-27.568,6.561c1.963,11.999-18.633,48.251-23.6,53.337
				c-1.947,1.992-3.895,4.549-5.543,6.922C73.496,257.193,77.396,259.312,81.676,260.546z"/>
			<path style="fill:#383838;" d="M70.588,253.528c-2.559,3.683-4.4,6.923-4.4,6.923l0.91,0.601c0,0,1.699-0.886,3.322-1.822
				c1.621-0.938,2.582,5.719,2.582,5.719l8.936,5.895l-0.262-10.297C77.396,259.312,73.496,257.193,70.588,253.528z"/>
		</g>
		<path style="fill-rule:evenodd;clip-rule:evenodd;fill:#E5B798;" d="M120.684,95.01c-4.402-1.571-5.394-6.35-6.389-11.593h11.325
			c0,0-0.473,7.37,0.616,11.204C124.685,96.43,122.264,95.642,120.684,95.01z"/>
		<path style="fill-rule:evenodd;clip-rule:evenodd;fill:#FEDBBE;" d="M111.021,83.417h3.274c0.799,4.495,2.793,9.662,7.194,11.233
			c1.579,0.632,3.392,0.794,4.747-0.029c0.349,1.229,0.855,0.947,1.592,1.439c0.889,0.593,2.171,1.186,3.537,1.728
			c0.182,8.632,2.438,17.264,2.077,25.894c-7.96-9.286-15.672-18.565-25.118-26.051C115.454,94.047,111.021,83.417,111.021,83.417z"
			/>
		<path style="fill-rule:evenodd;clip-rule:evenodd;fill:#568970;" d="M145.875,154.055c-5.882,2.656-12.643,3.522-19.036,3.56
			c-4.953,0.029-9.906-0.29-14.803-1.048c-0.644-0.1-10.349-1.202-13.093-1.883c-4.634,15.558-13.864,40.385-14.935,46.344
			c19.285,13.006,55.732,18.88,75.251,4.081C160.731,203.991,150.963,171.761,145.875,154.055z"/>
		<g>
			<path style="fill-rule:evenodd;clip-rule:evenodd;fill:#FEDBBE;" d="M136.372,21.986c0,0,11.444,41.783,13.302,49.96
				c1.859,8.178-15.02,16.838-15.02,16.838s-21.727,4.528-34.819-5.803c-6.911-5.454-13.429-9.965-16.799-16.83
				c-4.873-9.933-4.223-23.07,2.406-36.694C96.315,7.11,134.604,14.291,136.372,21.986z"/>
			<path style="fill-rule:evenodd;clip-rule:evenodd;fill:#685849;" d="M94.609,60.485c5.297-2.96,9.804-16.763,11.668-22.905
				c7.945,4.225,24.738,5.41,42.746-1.561c0,0,5.523-42.148-38.284-35.257C93.788,3.428,88.73,10.056,82.483,20.146
				c-19.631,2.026-28.492,23.472-20.892,41.845c11.46,27.711,32.664,13.163,32.664,13.163c-6.451-0.74-8.596-5.547-7.537-10.203
				C87.778,60.295,94.609,60.485,94.609,60.485z"/>
			<g>
				<circle style="fill:#685849;" cx="114.523" cy="61.579" r="4.541"/>
				<circle style="fill:#FFFFFF;" cx="115.543" cy="60.122" r="1.632"/>
			</g>
			<g>
				<circle style="fill:#685849;" cx="136.58" cy="57.214" r="4.541"/>
				<circle style="fill:#FFFFFF;" cx="137.6" cy="55.755" r="1.633"/>
			</g>
			<g>
				<path style="fill:#FFFFFF;" d="M119.435,74.107c2.559-3.016,6.582-4.664,10.775-4.001c2.233,0.353,4.218,1.316,5.811,2.692
					C130.785,74.783,124.98,75.176,119.435,74.107z"/>
				<path style="fill:#A27265;" d="M136.022,72.799c2.971,2.561,4.589,6.553,3.933,10.712c-0.045,0.287-0.105,0.568-0.17,0.847
					c-4.843,3.122-14.867,5.179-20.953,4.112c-1.715-2.411-2.525-5.466-2.027-8.619c0.35-2.2,1.287-4.16,2.631-5.743
					C124.98,75.176,130.785,74.783,136.022,72.799z"/>
			</g>
			<path style="fill:#F4C9A8;" d="M140.381,62.755c1.295,0.118,2.986,1.148,3.703,2.232c0.045,0.068-0.084,0.092-0.125,0.059
				c-0.523-0.433-1.035-0.851-1.609-1.212c-0.652-0.408-1.391-0.588-2.053-0.952C140.203,62.83,140.318,62.75,140.381,62.755z"/>
			<path style="fill:#F4C9A8;" d="M139.323,63.846c0.553,0.058,1.077,0.327,1.583,0.542c0.541,0.228,1.129,0.471,1.6,0.826
				c0.086,0.066-0.059,0.105-0.111,0.089c-0.58-0.18-1.135-0.461-1.693-0.697c-0.49-0.207-1.058-0.331-1.498-0.631
				C139.088,63.898,139.258,63.839,139.323,63.846z"/>
			<path style="fill:#F4C9A8;" d="M135.75,63.7c1.77,0.558,3.6,1.375,5.176,2.364c0.084,0.054-0.053,0.103-0.105,0.084
				c-1.77-0.688-3.506-1.514-5.261-2.249C135.331,63.803,135.602,63.653,135.75,63.7z"/>
			<path style="fill:#F4C9A8;" d="M112.419,67.38c1.526,0.336,3.092,0.777,4.504,1.459c0.11,0.053-0.02,0.124-0.092,0.099
				c-1.491-0.508-2.97-1.017-4.483-1.454C112.243,67.454,112.348,67.363,112.419,67.38z"/>
			<path style="fill:#F4C9A8;" d="M110.959,68.121c1.392,0.309,2.72,0.851,4.002,1.471c0.051,0.025-0.008,0.062-0.046,0.048
				c-1.317-0.553-2.638-1.036-4.011-1.442C110.829,68.175,110.905,68.108,110.959,68.121z"/>
			<path style="fill:#F4C9A8;" d="M107.756,68.554c1.461,0.423,2.912,0.924,4.322,1.495c0.103,0.042,0.002,0.127-0.073,0.108
				c-1.493-0.399-2.98-0.87-4.422-1.419C107.368,68.656,107.62,68.515,107.756,68.554z"/>
			<g>
				<path style="fill:#685849;" d="M107.475,52.824l0.951-0.389l-0.016-0.175c-0.221-2.628,1.311-4.934,3.558-5.362
					c0.393-0.073,0.791-0.089,1.187-0.043c1.361,0.154,2.614,0.986,3.44,2.286l0.094,0.15l0.171-0.047
					c0.1-0.028,0.2-0.053,0.3-0.078l0.526-0.136l-0.166-0.274c-0.968-1.612-2.557-2.69-4.254-2.882
					c-0.493-0.056-0.992-0.037-1.48,0.056c-2.779,0.528-4.689,3.419-4.344,6.581L107.475,52.824z"/>
				<path style="fill:#685849;" d="M138.092,46.365c-0.776-1.785-2.145-3.023-3.656-3.314c-0.357-0.069-0.723-0.084-1.082-0.044
					c-2.429,0.269-4.154,2.907-4.014,6.137l0.014,0.327l0.893-0.326l-0.004-0.172c-0.059-2.631,1.324-4.774,3.218-4.983
					c1.45-0.159,2.944,0.907,3.751,2.655l0.08,0.174l0.188-0.041c0.088-0.019,0.173-0.034,0.26-0.049l0.475-0.09L138.092,46.365z"/>
			</g>
			<path style="fill-rule:evenodd;clip-rule:evenodd;fill:#E5B798;" d="M129.537,67.923c2.172-0.237,3.703-0.768,4.65-2.876
				c0.506-1.128,0.02-1.19-0.873-1.484c-0.754-0.248-1.437-0.691-2.059-1.175c-2.129-1.66-3.127-5.053-2.303-7.605
				c0.021-0.07,0.172-0.052,0.182,0.019c0.235,1.711,0.254,3.316,0.97,4.931c0.926,2.093,2.835,3.295,5.03,3.689
				c0.115,0.02,0.355,0.123,0.324,0.281c-0.545,2.871-2.8,5.27-5.931,4.659C129.217,68.3,129.203,67.96,129.537,67.923z"/>
			<path style="fill-rule:evenodd;clip-rule:evenodd;fill:#F2C4A5;" d="M88.758,64.797c-0.092-0.081,0.076-0.148,0.135-0.146
				c3.146,0.072,5.101,3.907,4.877,6.662c-0.03,0.375-0.869,0.361-0.862-0.015c0.021-0.992-0.098-1.917-0.426-2.794
				c-0.058,0.096-0.137,0.187-0.208,0.264c-0.232,0.25-0.565,0.547-0.926,0.533c-0.057-0.002-0.199-0.046-0.152-0.132
				c0.062-0.116,0.188-0.178,0.298-0.243c0.147-0.086,0.28-0.191,0.405-0.305c0.108-0.096,0.207-0.2,0.315-0.294
				c0.043-0.039,0.1-0.077,0.154-0.116c-0.146-0.331-0.322-0.657-0.538-0.976C91.021,66.039,89.758,65.7,88.758,64.797z"/>
		</g>
		<g>
			<g>
				<path style="fill:#A0B100;" d="M172.004,138.054h30.022c0.483,0,0.956,0.039,1.421,0.095v17.071
					c-0.465,0.055-0.938,0.094-1.421,0.094h-30.022c-5.625,0-10.183-3.863-10.183-8.629
					C161.821,141.917,166.379,138.054,172.004,138.054z"/>
				<path style="fill:#FFFFFF;" d="M171.809,141.843h31.639v9.516h-31.639c-2.797,0-5.064-2.131-5.064-4.758
					C166.744,143.974,169.012,141.843,171.809,141.843z"/>
			</g>
			<g>
				<path style="fill:#E65E09;" d="M172.004,120.796h30.022c0.483,0,0.956,0.039,1.421,0.094v17.071
					c-0.465,0.056-0.938,0.093-1.421,0.093h-30.022c-5.625,0-10.183-3.863-10.183-8.629
					C161.821,124.659,166.379,120.796,172.004,120.796z"/>
				<path style="fill:#FFFFFF;" d="M171.809,124.584h31.639v9.515h-31.639c-2.797,0-5.064-2.13-5.064-4.759
					C166.744,126.714,169.012,124.584,171.809,124.584z"/>
			</g>
			<g>
				<path style="fill:#009E8F;" d="M191.874,103.538h-30.022c-0.484,0-0.956,0.039-1.422,0.093v17.071
					c0.466,0.055,0.938,0.094,1.422,0.094h30.022c5.624,0,10.183-3.864,10.183-8.629C202.057,107.4,197.498,103.538,191.874,103.538
					z"/>
				<path style="fill:#FFFFFF;" d="M192.068,107.326H160.43v9.515h31.639c2.798,0,5.064-2.13,5.064-4.759
					C197.133,109.456,194.866,107.326,192.068,107.326z"/>
			</g>
		</g>
		<g>
			<path style="fill:#FEDBBE;" d="M45.471,57.039c0.058,1.977-0.466,7.05-0.831,6.142c-1.48-3.685-2.105-5.089-2.642-5.921
				c-0.741-1.156-2.098-1.225-2.704-0.396c-0.422,0.578-0.467,1.746,0.111,3.143c1.254,3.017,0.883,4.588,0.883,4.588
				s-2.825-7.08-4.619-4.032c-0.36,0.604,0.874,9.08,0.874,9.08c0.479,2.363,1.484,5.782,1.484,8.658
				c2.461-0.101,6.407,0.196,8.823,0.507c0.256-0.591,0.403-0.99,0.403-0.99s4.551-7.068,8.215-9.441c0,0,0.002-3.456-3.103-1.524
				c-2.025,1.26-2.826,1.636-2.973,2.089c0.021-1.346-0.306-4.692-0.245-8.681C49.246,53.838,45.375,53.745,45.471,57.039z"/>
			<path style="fill-rule:evenodd;clip-rule:evenodd;fill:#393B41;" d="M99.069,113.841c-1.535-3.79-3.224-7.651-4.309-11.64
				c-14.914,2.619-36.778,0.76-43.748-25.479c0,0-5.34-9.868-15.378,0.142c0,0,11.684,53.352,64.383,39.268
				C99.69,115.351,99.371,114.585,99.069,113.841z"/>
			<path style="fill-rule:evenodd;clip-rule:evenodd;fill:#BEBEC0;" d="M48.203,77.789c-0.445,0.608-1.314,0.687-1.942,0.175
				c-0.629-0.511-0.778-1.418-0.331-2.025c0.445-0.609,1.314-0.687,1.943-0.175C48.501,76.272,48.649,77.181,48.203,77.789z"/>
		</g>
		<g>
			<g>
				<path style="fill:#84AE9B;" d="M110.739,103.114c3.366,12.669,11.418,33.963,11.418,33.963
					c0.44-1.238,3.424-21.602,5.132-33.417c-1.817,1.457-4.267,2.454-7.024,2.67C116.383,106.635,112.86,105.327,110.739,103.114z"
					/>
				<path style="fill:#769C8A;" d="M128.427,95.443c-0.207,4.272-3.913,7.87-8.732,8.248c-4.673,0.367-8.778-2.423-9.817-6.412
					c-0.313-0.269-0.488-0.437-0.488-0.437c0.202,1.599,0.685,3.767,1.35,6.271c2.121,2.213,5.644,3.521,9.525,3.216
					c2.758-0.216,5.207-1.212,7.024-2.67c0.708-4.89,1.196-8.317,1.196-8.317C128.466,95.378,128.446,95.408,128.427,95.443z"/>
			</g>
			<path style="fill-rule:evenodd;clip-rule:evenodd;fill:#45474C;" d="M91.766,102.469l18.624-6.032l11.82,39.142l5.565-40.507
				l21.355,4.077c0,0-6.776,32.468-3.542,42.493c3.235,10.027,9.329,16.564,9.329,16.564c-18.847,12.179-39.125,13.323-61.755,5.664
				C93.162,163.87,106.972,146.471,91.766,102.469z"/>
			<path style="fill-rule:evenodd;clip-rule:evenodd;fill:#393B41;" d="M110.335,94.904l-4.711,2.346l-2.848,13.586l8.719-1.174
				l-4.438,9.975l15.153,15.942C122.21,135.579,114.054,102.771,110.335,94.904z"/>
			<path style="fill-rule:evenodd;clip-rule:evenodd;fill:#393B41;" d="M127.59,93.549l5.02,1.582l4.935,12.975l-8.795,0.201
				l5.94,9.161l-12.479,18.112C122.21,135.579,125.146,101.899,127.59,93.549z"/>
			<circle style="fill-rule:evenodd;clip-rule:evenodd;fill:#393B41;" cx="122.505" cy="141.507" r="1.382"/>
			<circle style="fill-rule:evenodd;clip-rule:evenodd;fill:#393B41;" cx="123.088" cy="148.926" r="1.382"/>
			<circle style="fill-rule:evenodd;clip-rule:evenodd;fill:#393B41;" cx="123.671" cy="156.345" r="1.382"/>
		</g>
		<g>
			
				<rect x="10.463" y="12.386" transform="matrix(0.91 -0.4146 0.4146 0.91 -14.6561 16.8228)" style="fill-rule:evenodd;clip-rule:evenodd;fill:#E6E7E7;" width="41.927" height="59.577"/>
			
				<rect x="15.133" y="10.969" transform="matrix(0.9592 -0.2828 0.2828 0.9592 -10.0519 11.8707)" style="fill-rule:evenodd;clip-rule:evenodd;fill:#FFFFFF;" width="41.927" height="59.577"/>
			
				<rect x="10.357" y="13.925" transform="matrix(0.9592 -0.2828 0.2828 0.9592 -3.0656 8.6268)" style="fill-rule:evenodd;clip-rule:evenodd;fill:#D2D4D4;" width="35.992" height="2.016"/>
			
				<rect x="11.443" y="17.545" transform="matrix(0.9592 -0.2828 0.2828 0.9592 -4.0447 9.0813)" style="fill-rule:evenodd;clip-rule:evenodd;fill:#D2D4D4;" width="35.992" height="2.017"/>
			
				<rect x="12.528" y="21.164" transform="matrix(0.9592 -0.2828 0.2828 0.9592 -5.0238 9.5359)" style="fill-rule:evenodd;clip-rule:evenodd;fill:#D2D4D4;" width="35.993" height="2.016"/>
			
				<rect x="13.613" y="24.783" transform="matrix(0.9592 -0.2828 0.2828 0.9592 -6.0028 9.9904)" style="fill-rule:evenodd;clip-rule:evenodd;fill:#D2D4D4;" width="35.992" height="2.016"/>
			
				<rect x="14.698" y="28.402" transform="matrix(0.9592 -0.2828 0.2828 0.9592 -6.9819 10.445)" style="fill-rule:evenodd;clip-rule:evenodd;fill:#D2D4D4;" width="35.992" height="2.017"/>
			
				<rect x="33.551" y="30.364" transform="matrix(0.9592 -0.2828 0.2828 0.9592 -7.1339 13.3173)" style="fill-rule:evenodd;clip-rule:evenodd;fill:#D2D4D4;" width="18.032" height="2.017"/>
			
				<rect x="34.628" y="33.986" transform="matrix(0.9592 -0.2828 0.2828 0.9592 -8.114 13.7688)" style="fill-rule:evenodd;clip-rule:evenodd;fill:#D2D4D4;" width="18.032" height="2.017"/>
			
				<rect x="35.705" y="37.608" transform="matrix(0.9592 -0.2827 0.2827 0.9592 -9.0935 14.2198)" style="fill-rule:evenodd;clip-rule:evenodd;fill:#D2D4D4;" width="18.032" height="2.016"/>
			
				<rect x="36.782" y="41.23" transform="matrix(0.9592 -0.2827 0.2827 0.9592 -10.0734 14.6717)" style="fill-rule:evenodd;clip-rule:evenodd;fill:#D2D4D4;" width="18.032" height="2.016"/>
			
				<rect x="37.858" y="44.851" transform="matrix(0.9592 -0.2827 0.2827 0.9592 -11.0534 15.1239)" style="fill-rule:evenodd;clip-rule:evenodd;fill:#D2D4D4;" width="18.032" height="2.016"/>
			
				<rect x="20.906" y="35.205" transform="matrix(0.9579 -0.2872 0.2872 0.9579 -13.6327 10.3741)" style="fill-rule:evenodd;clip-rule:evenodd;fill:#D2D4D4;" width="15.267" height="32.888"/>
		</g>
	</g>
	<g>
		<g>
			<path style="fill:#FEDBBE;" d="M237.137,113.566c1.418,2.012,4.374,7.701,3.379,7.047c-4.025-2.655-5.623-3.618-6.734-4.058
				c-1.541-0.613-2.961,0.393-3.002,1.735c-0.029,0.937,0.727,2.185,2.268,3.178c3.34,2.143,4.043,4.07,4.043,4.07
				s-7.714-5.117-7.436-0.523c0.053,0.916,7.777,6.817,7.777,6.817c3.451,3.233,4.502,5.448,8.357,8.548
				c2.415-2.059,5.043-3.682,7.697-5.278c-0.146-0.815-0.273-1.348-0.273-1.348s-0.258-10.961,1.815-16.34
				c0,0-2.777-3.096-4.59,1.818c-1.089,2.953-1.1,4.273-0.936,4.863c-0.901-1.416-3.759-5.904-6.437-10.097
				C238.754,107.242,234.777,110.219,237.137,113.566z"/>
			<path style="fill-rule:evenodd;clip-rule:evenodd;fill:#2B2B2B;" d="M256.256,129.626c24.166,20.963,46.753,7.371,60.233-6.686
				c0.147,0.049,0.314,0.068,0.509,0c6.592-2.277,10.488,5.85,11.834,10.994c0.154,0.587,0.318,1.285,0.477,2.045
				c-42.639,49.582-89.021,3.457-89.021,3.457C243.822,124.48,256.256,129.626,256.256,129.626z"/>
			<circle style="fill-rule:evenodd;clip-rule:evenodd;fill:#BEBEC0;" cx="252.368" cy="132.909" r="1.786"/>
		</g>
		<g>
			
				<rect x="333.646" y="100.952" transform="matrix(-0.9992 -0.04 0.04 -0.9992 687.0292 234.8701)" style="fill-rule:evenodd;clip-rule:evenodd;fill:#F4C9A8;" width="24.439" height="19.208"/>
			<g>
				<g>
					<path style="fill-rule:evenodd;clip-rule:evenodd;fill:#FEDBBE;" d="M320.189,46.09c0,0-14.956,36.954-18.219,44.206
						c-5.908,13.13,34.4,35.712,56.592,13.242c1.242-1.258,11.385,3.059,18.532-7.943c5.716-8.798,4.749-33.157-5.184-43.918
						C355.926,34.358,322.156,38.865,320.189,46.09z"/>
					<g>
						<circle style="fill:#685849;" cx="340.156" cy="83.071" r="3.595"/>
						<circle style="fill:#FFFFFF;" cx="339.396" cy="81.886" r="1.293"/>
					</g>
					<g>
						<circle style="fill:#685849;" cx="318.224" cy="76.493" r="3.595"/>
						<circle style="fill:#FFFFFF;" cx="317.462" cy="75.307" r="1.293"/>
					</g>
					<path style="fill:#F4C9A8;" d="M313.895,80.548c-1.232,0.062-2.873,0.974-3.592,1.974c-0.045,0.062,0.074,0.091,0.115,0.061
						c0.512-0.391,1.012-0.767,1.57-1.087c0.635-0.363,1.34-0.504,1.982-0.825C314.06,80.625,313.955,80.545,313.895,80.548z"/>
					<path style="fill:#F4C9A8;" d="M314.856,81.62c-0.526,0.035-1.034,0.269-1.52,0.454c-0.522,0.196-1.088,0.404-1.548,0.722
						c-0.084,0.06,0.052,0.102,0.103,0.089c0.557-0.149,1.093-0.395,1.629-0.597c0.475-0.177,1.018-0.273,1.446-0.541
						C315.076,81.678,314.916,81.617,314.856,81.62z"/>
					<path style="fill:#F4C9A8;" d="M318.246,81.618c-1.697,0.461-3.463,1.166-4.992,2.044c-0.082,0.048,0.046,0.1,0.094,0.082
						c1.706-0.584,3.381-1.301,5.072-1.93C318.641,81.732,318.391,81.58,318.246,81.618z"/>
					<path style="fill:#F4C9A8;" d="M338.613,88.589c-1.461,0.26-2.961,0.619-4.324,1.212c-0.105,0.046,0.015,0.118,0.084,0.097
						c1.434-0.424,2.854-0.851,4.303-1.208C338.775,88.666,338.682,88.577,338.613,88.589z"/>
					<path style="fill:#F4C9A8;" d="M339.969,89.347c-1.332,0.239-2.609,0.702-3.85,1.241c-0.048,0.023,0.006,0.06,0.043,0.048
						c1.27-0.474,2.539-0.881,3.855-1.214C340.089,89.403,340.02,89.338,339.969,89.347z"/>
					<path style="fill:#F4C9A8;" d="M342.986,89.88c-1.4,0.345-2.793,0.765-4.152,1.252c-0.1,0.036-0.006,0.122,0.066,0.105
						c1.43-0.322,2.855-0.711,4.244-1.177C343.351,89.991,343.116,89.847,342.986,89.88z"/>
					<g>
						<g>
							<g>
								<path style="fill:#685849;" d="M347.447,75.758l-0.95-0.434l0.023-0.178c0.331-2.661-1.13-5.065-3.397-5.592
									c-0.395-0.09-0.799-0.122-1.203-0.092c-1.389,0.101-2.695,0.896-3.588,2.182l-0.102,0.148l-0.171-0.055
									c-0.1-0.032-0.2-0.062-0.302-0.091l-0.528-0.16l0.18-0.272c1.05-1.599,2.706-2.628,4.438-2.755
									c0.504-0.037,1.009,0.002,1.502,0.117c2.803,0.65,4.624,3.664,4.146,6.862L347.447,75.758z"/>
								<path style="fill:#685849;" d="M347.844,76.489l-1.891-0.863l0.071-0.545c0.299-2.402-0.997-4.57-3.015-5.04
									c-0.345-0.078-0.7-0.105-1.053-0.08c-1.237,0.09-2.408,0.807-3.214,1.968l-0.311,0.452l-1.99-0.61l0.55-0.832
									c1.134-1.727,2.936-2.841,4.819-2.978c0.552-0.038,1.111,0.003,1.651,0.129c3.055,0.708,5.044,3.969,4.526,7.423
									L347.844,76.489z M347.037,75.022l0.005,0.003c0.056-0.578,0.031-1.146-0.065-1.69
									C347.07,73.875,347.093,74.442,347.037,75.022z M338.025,71.205l0.005,0.001c0.323-0.437,0.691-0.818,1.093-1.136
									C338.717,70.39,338.347,70.772,338.025,71.205z M342.215,68.952c0.341,0,0.685,0.039,1.02,0.116
									c0.453,0.105,0.877,0.277,1.266,0.504c-0.389-0.23-0.812-0.403-1.264-0.507c-0.443-0.103-0.899-0.139-1.353-0.106
									c-0.501,0.037-0.996,0.157-1.47,0.352c0.472-0.192,0.966-0.311,1.47-0.347C341.994,68.956,342.104,68.952,342.215,68.952z"
									/>
							</g>
						</g>
						<g>
							<g>
								<path style="fill:#685849;" d="M317.853,65.763c0.861-1.782,2.304-2.984,3.852-3.219c0.366-0.055,0.738-0.055,1.102,0
									c2.457,0.373,4.101,3.123,3.827,6.398l-0.028,0.331l-0.893-0.367l0.013-0.174c0.166-2.671-1.152-4.904-3.066-5.194
									c-1.467-0.221-3.028,0.801-3.918,2.544l-0.091,0.173l-0.185-0.048c-0.09-0.023-0.18-0.042-0.267-0.061l-0.477-0.11
									L317.853,65.763z"/>
								<path style="fill:#685849;" d="M327.046,69.994l-1.859-0.763l0.039-0.536c0.149-2.405-0.986-4.412-2.643-4.663
									c-1.237-0.184-2.615,0.747-3.397,2.277l-0.277,0.53l-1.911-0.457l0.406-0.837c0.933-1.928,2.513-3.236,4.227-3.495
									c0.418-0.062,0.839-0.062,1.251,0c2.72,0.413,4.547,3.394,4.251,6.934L327.046,69.994z M322.258,63.008
									c0.159,0,0.317,0.012,0.475,0.035c0.402,0.061,0.781,0.195,1.131,0.391c-0.349-0.199-0.728-0.335-1.132-0.396
									c-0.312-0.047-0.636-0.047-0.952,0c-0.141,0.021-0.28,0.052-0.418,0.091C321.656,63.05,321.956,63.008,322.258,63.008z"/>
							</g>
						</g>
					</g>
					<path style="fill-rule:evenodd;clip-rule:evenodd;fill:#E5B798;" d="M314.449,87.3c5.074-3.739,8.137-7.72,10.27-13.643
						c0.07-0.195,0.375-0.232,0.542-0.228c0.632,0.019,1.357-0.927,1.743-1.364c0.035-0.04,0.16-0.021,0.137,0.046
						c-0.893,2.764-2.289,5.799-3.85,8.349c-1.215,1.98-2.938,3.622-4.667,5.141c-1.449,1.275-2.922,1.812-1.411,3.748
						c1.234,1.586,2.849,2.783,4.428,3.994c0.377,0.289-0.268,0.516-0.522,0.384c-2.738-1.419-4.822-3.522-6.698-5.942
						C314.314,87.648,314.287,87.419,314.449,87.3z"/>
				</g>
				<path style="fill-rule:evenodd;clip-rule:evenodd;fill:#E5B798;" d="M364.725,94.766c0.951-0.763,2.223-1.525,3.485-1.403
					c0.016,0.002,0.058,0.02,0.033,0.042c-0.886,0.765-2.062,1.143-2.978,1.91c-0.193,0.163-0.369,0.348-0.544,0.532
					c0.052,0.07,0.091,0.153,0.121,0.243c0.102,0.307,0.228,0.751,0.1,1.056c-0.04,0.096-0.202,0.062-0.259,0.007
					c-0.196-0.192-0.212-0.405-0.242-0.666c-0.004-0.041-0.014-0.168-0.031-0.295c-0.17,0.202-0.338,0.408-0.487,0.624
					c-0.278,0.406-0.331,0.735-0.767,0.978c-0.15,0.082-0.402,0.055-0.482-0.111C362.223,96.771,364.119,95.251,364.725,94.766z"/>
			</g>
		</g>
		
			<polygon style="fill-rule:evenodd;clip-rule:evenodd;fill:#A27265;stroke:#A27265;stroke-width:0.8673;stroke-miterlimit:5;" points="
			462.541,54.123 462.541,54.123 461.713,54.123 461.713,54.123 461.713,54.123 461.713,54.123 462.541,54.123 462.541,54.123 		"/>
		<path style="fill-rule:evenodd;clip-rule:evenodd;fill:#2B2B2B;" d="M312.412,186.638c0,18.572,15.057,33.628,33.629,33.628l0,0
			c18.572,0,33.629-15.056,33.629-33.628v-51.551c0-18.573-15.057-18.884-33.629-18.884l0,0c-18.572,0-33.629,0.311-33.629,18.884
			V186.638z"/>
		<path style="fill-rule:evenodd;clip-rule:evenodd;fill:#2B2B2B;" d="M290.846,205.954c4.147-14.377,41.658-11.336,41.658-11.336
			l46.266-0.268l-0.873,7.203c-2.718,7.93-8.577,15.094-16.509,17.366c-3.7,1.06-7.477,1.556-11.28,1.87
			c-16.957-0.402-36.721-0.328-39.815,2.041c-3.736,2.859-5.374,36.485-5.374,36.485h-14.072
			C290.846,259.316,286.697,220.332,290.846,205.954z"/>
		<path style="fill-rule:evenodd;clip-rule:evenodd;fill:#1F1F1F;" d="M290.846,259.316c0,0-17.418,0.618-19.907,11.092h37.3
			c0,0-0.307-6.114-3.32-11.092H290.846z"/>
	</g>
	<path style="fill:#1F1F1F;" d="M309.664,221.737h10.746c-6.83-7.356-11.012-17.205-11.012-28.035v-33.016
		c0-22.768,18.457-41.226,41.225-41.226c22.769,0,41.227,18.458,41.227,41.226v33.016c0,10.83-4.183,20.679-11.012,28.035h1.58
		c5.209,0,9.432,4.223,9.432,9.432s-4.223,9.43-9.432,9.43h-25.047v14.498c10.44-0.203,19.957,0.709,23.547,6.399
		c1.314,2.083,2.311,5.636-0.416,10.721l-6.88-3.688c0.71-1.323,0.976-2.423,0.694-2.868c-0.123-0.195-1.406-1.924-8.49-2.557
		c-2.742-0.244-5.713-0.266-8.455-0.208v7.946H346.15v-7.875c-3.344-0.123-7.338-0.184-10.936,0.137
		c-7.082,0.633-8.365,2.361-8.488,2.557c-0.281,0.445-0.016,1.545,0.694,2.868l-6.88,3.688c-2.725-5.085-1.73-8.638-0.416-10.721
		c3.873-6.138,14.639-6.718,26.025-6.333v-14.564h-36.486c-5.209,0-9.43-4.221-9.43-9.43S304.455,221.737,309.664,221.737z"/>
	<g>
		<path style="fill:none;stroke:#FFFFFF;stroke-width:3;stroke-miterlimit:10;" d="M182.154,39.139
			c-6.791,0.236-13.58,0.472-20.37,0.709"/>
		<path style="fill:none;stroke:#FFFFFF;stroke-width:3;stroke-miterlimit:10;" d="M173.973,16.778
			c-5.124,4.985-10.248,9.971-15.372,14.956"/>
		<path style="fill:none;stroke:#FFFFFF;stroke-width:3;stroke-miterlimit:10;" d="M159.34,49.47
			c4.867,3.866,9.734,7.732,14.604,11.599"/>
	</g>
	<g>
		<path style="fill:none;stroke:#FFFFFF;stroke-width:3;stroke-miterlimit:10;" d="M281.779,49.174
			c4.97,4.634,9.938,9.268,14.906,13.903"/>
		<path style="fill:none;stroke:#FFFFFF;stroke-width:3;stroke-miterlimit:10;" d="M271.756,70.771
			c7.146,0.098,14.295,0.196,21.443,0.294"/>
		<path style="fill:none;stroke:#FFFFFF;stroke-width:3;stroke-miterlimit:10;" d="M305.218,58.002
			c-0.708-6.176-1.416-12.352-2.125-18.528"/>
	</g>
</g>
<path style="fill-rule:evenodd;clip-rule:evenodd;fill:#685849;" d="M383.552,70.218l-3.1-4.882c0,0,3.75,0.546,3,0
	c-0.75-0.546-3.75-1.204-3.75-1.204s0.75-3.25,2.5-6.683c1.75-3.433-12.25-20.317-27.75-22.817s-35.606-1.75-35.606-1.75l1.08,6.039
	h-4.566l4.566,4.444c6.725-1.767,14.742,6.267,14.742,6.267c14.467-3.25,24.283,3.5,28.866,12.892
	c4.583,9.392-3.083,25.108-3.568,26.826c-0.485,1.718-10.015,13.032-14.288,14.706c-4.273,1.674-9.064,1.461-11.668-1.07
	c-5.865-5.699-25.469-14.091-27.666-14.293c-7.149-0.657-8.004,1.994-8.004,1.994s-15.436,18.696,13.149,26.695
	c24.262,6.789,40.212-7,41.962-7.999c1.75-0.999,4.25-9.751,5.25-12.096c1-2.345,6.161-9.344,10.411-8.594s3.685,6.305,1.839,8.594
	c-4.594,5.699-10.985,5.27-10.985,5.27l-1.015,1.499c20.072,0.715,21.25-19.924,21.75-25.132s-0.5-11.029-0.5-11.029L383.552,70.218
	z M318.479,107.06c-4.867-0.409-7.959-0.826-12.95-5.492c-2.914-2.725,0.816-12.875,15.543-2.243
	C324.393,101.722,323.687,107.498,318.479,107.06z"/>
<path style="fill-rule:evenodd;clip-rule:evenodd;fill:#A27265;" d="M188.434,100.537c-2.191-3.463-7.661-5.98-11.714-5.561
	c-0.159,0.016-0.232,0.216-0.05,0.266c2.135,0.581,4.185,0.899,6.188,1.919c1.843,0.938,3.241,2.433,4.883,3.648
	C187.905,100.93,188.633,100.851,188.434,100.537z"/>
</svg>
