<?xml version="1.0" encoding="utf-8"?>
<!-- Generator: Adobe Illustrator 17.0.0, SVG Export Plug-In . SVG Version: 6.00 Build 0)  -->
<!DOCTYPE svg PUBLIC "-//W3C//DTD SVG 1.1//EN" "http://www.w3.org/Graphics/SVG/1.1/DTD/svg11.dtd">
<svg version="1.1" id="图层_1" xmlns="http://www.w3.org/2000/svg" xmlns:xlink="http://www.w3.org/1999/xlink" x="0px" y="0px"
	 width="21.031px" height="34.47px" viewBox="0 0 21.031 34.47" enable-background="new 0 0 21.031 34.47" xml:space="preserve">
<path fill="#2F506B" d="M15.96,28.85c-0.954,0-1.799-0.229-2.541-0.685c-0.559-0.338-1.07-0.924-1.275-1.489
	c-0.206-0.567-0.181-1.717-0.181-3.717l0.002-8.939h7.885V7.888h-7.885l-0.002-7.884H7.201C6.987,1.781,6.597,3.247,6.029,4.395
	C5.461,5.548,4.71,6.531,3.769,7.354c-0.937,0.82-2.461,1.451-3.776,1.89v4.776h4.672v12.265c0,1.575,0.037,2.703,0.358,3.531
	c0.322,0.829,0.896,1.613,1.728,2.351c0.829,0.73,1.833,1.301,3.009,1.701c1.176,0.396,2.079,0.594,3.61,0.594
	c1.347,0,2.602-0.141,3.762-0.419c1.159-0.28,2.457-0.767,3.886-1.46v-5.434C19.341,28.283,17.655,28.85,15.96,28.85z"/>
</svg>
