<?xml version="1.0" encoding="iso-8859-1"?>
<!-- Generator: Adobe Illustrator 17.0.0, SVG Export Plug-In . SVG Version: 6.00 Build 0)  -->
<!DOCTYPE svg PUBLIC "-//W3C//DTD SVG 1.1//EN" "http://www.w3.org/Graphics/SVG/1.1/DTD/svg11.dtd">
<svg version="1.1" id="Objects" xmlns="http://www.w3.org/2000/svg" xmlns:xlink="http://www.w3.org/1999/xlink" x="0px" y="0px"
	 width="98.941px" height="295.953px" viewBox="0 0 98.941 295.953" style="enable-background:new 0 0 98.941 295.953;"
	 xml:space="preserve">
<g>
	<g>
		<g>
			<g>
				<path style="fill:#AF1C2E;" d="M66.962,120.886c0,0,7.126,27.89,8.586,37.502c1.888,12.428,2.557,50.27,2.557,50.27h16.493
					c0,0,1.839-27.216-3.779-50.616c-2.294-9.549-5.38-23.906-12.381-30.867C73.748,122.512,66.962,120.886,66.962,120.886z"/>
				<path style="fill:#F6C9A5;" d="M94.599,208.658c0,0-1.907,14.729-9.236,16.919h-6.924l-0.332-16.919"/>
				<path style="fill:#AF1C2E;" d="M30.006,120.886c0,0-7.127,27.89-8.587,37.502c-1.888,12.428-2.556,50.27-2.556,50.27H2.368
					c0,0-1.837-27.216,3.781-50.616c2.293-9.549,5.38-23.906,12.381-30.867C23.219,122.512,30.006,120.886,30.006,120.886z"/>
				<path style="fill:#F6C9A5;" d="M2.368,208.658c0,0,1.909,14.729,9.237,16.919h6.924l0.333-16.919"/>
			</g>
			<g>
				<path style="fill:#54280F;" d="M92.105,57.723c0,23.687-19.499,35.586-43.554,35.586l0,0c-24.056,0-43.125-13.17-43.125-36.858
					l-0.431-9.173c0-23.687,12.827-42.889,43.555-42.889l0,0c31.458,0,43.554,19.202,43.554,42.889V57.723z"/>
				<path style="fill:#54280F;" d="M44.619,4.388c0,0,15.637-0.365,18.381-4.388c0,0,1.062,3.031,0,4.388
					c0,0,4.389,0.732,4.664-2.194c0,0,1.556,2.724,0,5.203"/>
			</g>
			<path style="fill:#A8885A;" d="M18.712,186.235l0.392,73.601l-0.392,20.245h21.242l-0.458-64.965c0,0,3.567,2.195,10.871,1.921
				c9.155-0.344,10.803-1.921,10.803-1.921l0.183,64.965h21.243l-0.392-86.512"/>
			<path style="fill:#CC2232;" d="M67.664,120.886c10.518,16.715,14.541,72.683,14.541,72.683
				c-25.181,15.553-63.309,2.122-63.309,2.122c-2.774-48.215,11.11-74.806,11.11-74.806H67.664z"/>
			<path style="fill:#F6C9A5;" d="M85.863,80.401c-5.488,21.234-16.258,32.773-36.764,32.773l0,0
				c-20.505,0-32.374-9.566-37.494-32.773V63.395c0-19.862,7.682-38.088,33.014-35.076l4.116-0.886
				c20.505,0,37.128,16.101,37.128,35.963V80.401z"/>
			<path style="fill:#F6C9A5;" d="M19.287,75.72c0,4.243-3.44,7.681-7.682,7.681l0,0c-4.242,0-7.682-3.438-7.682-7.681v-0.733
				c0-4.243,3.44-7.682,7.682-7.682l0,0c4.242,0,7.682,3.439,7.682,7.682V75.72z"/>
			<path style="fill:#F6C9A5;" d="M93.545,75.72c0,4.243-3.44,7.681-7.682,7.681l0,0c-4.242,0-7.682-3.438-7.682-7.681v-0.733
				c0-4.243,3.44-7.682,7.682-7.682l0,0c4.242,0,7.682,3.439,7.682,7.682V75.72z"/>
			<path style="fill:#54280F;" d="M75.277,42.902C75.277,42.902,70.573,38.42,75.277,42.902c6.131,5.838,3.819,12.558,4.917,30.44
				l3.813,3.873l5.514-28.367L76.629,22.051l-30-4.25l-21.5,4.5L7.489,43.712l5.569,33.029l4.308-5.046
				c0,0-3.717-21.141,0.96-29.355C20.215,39.023,75.347,58.578,75.277,42.902"/>
			<path style="fill:#83451D;" d="M36.663,35.48"/>
			<g>
				<g>
					<path style="fill:#E0AE8C;" d="M9.352,73.342c0,0-0.005,0.403-0.013,1.009c0.005,0.543,0.047,1.049,0.133,1.468
						c0.009,0.112,0.058,0.217,0.062,0.336c0.048,0.111,0.06,0.234,0.093,0.359c0.046,0.121,0.08,0.251,0.11,0.385
						c0.049,0.126,0.089,0.259,0.126,0.39c0.068,0.264,0.168,0.489,0.209,0.68c0.048,0.187,0.07,0.313,0.07,0.313
						s-0.118,0.012-0.316,0c-0.19-0.024-0.488-0.032-0.775-0.181c-0.15-0.066-0.316-0.142-0.476-0.245
						c-0.15-0.119-0.306-0.256-0.457-0.41c-0.142-0.164-0.268-0.364-0.384-0.569c-0.094-0.221-0.185-0.455-0.229-0.701
						c-0.033-0.249-0.063-0.499-0.023-0.742c0.012-0.245,0.091-0.47,0.163-0.681c0.176-0.41,0.417-0.736,0.687-0.944
						C8.841,73.368,9.352,73.342,9.352,73.342z"/>
				</g>
				<g>
					<path style="fill:#E0AE8C;" d="M88.61,76.177c0,0,0.005-0.403,0.013-1.009c-0.005-0.543-0.047-1.049-0.133-1.468
						c-0.009-0.112-0.058-0.217-0.062-0.336c-0.048-0.111-0.06-0.234-0.093-0.359c-0.046-0.121-0.08-0.251-0.11-0.385
						c-0.049-0.126-0.089-0.259-0.126-0.39c-0.068-0.264-0.168-0.489-0.209-0.68c-0.048-0.187-0.07-0.313-0.07-0.313
						s0.118-0.012,0.316,0c0.19,0.024,0.488,0.032,0.775,0.181c0.15,0.066,0.316,0.142,0.476,0.245
						c0.15,0.119,0.306,0.256,0.457,0.41c0.142,0.164,0.268,0.364,0.384,0.569c0.094,0.221,0.185,0.455,0.229,0.7
						c0.033,0.249,0.063,0.499,0.024,0.742c-0.012,0.245-0.091,0.47-0.163,0.681c-0.176,0.41-0.417,0.737-0.687,0.944
						C89.121,76.151,88.61,76.177,88.61,76.177z"/>
				</g>
			</g>
			<g>
				<path style="fill:#54280F;" d="M39.955,280.081H18.712c0,0-16.437,2.854-16.344,14.267h37.586V280.081z"/>
				<g>
					<rect x="2.368" y="294.348" style="fill:#47200D;" width="25.332" height="1.828"/>
					<rect x="32.456" y="294.348" style="fill:#47200D;" width="7.498" height="1.828"/>
				</g>
			</g>
			<g>
				<path style="fill:#54280F;" d="M61.353,280.081h21.243c0,0,16.437,2.854,16.345,14.267H61.353V280.081z"/>
				<g>
					<rect x="73.607" y="294.348" style="fill:#47200D;" width="25.332" height="1.828"/>
					<rect x="61.354" y="294.348" style="fill:#47200D;" width="7.499" height="1.828"/>
				</g>
			</g>
			<polygon style="fill:#F6C9A5;" points="39.955,109.069 39.955,120.886 49.283,126.262 58.61,120.886 58.61,109.069 			"/>
			<g>
				<path style="fill:#29252A;" d="M35.382,69.668c0,0.645-0.737,1.165-1.646,1.165l0,0c-0.91,0-1.646-0.521-1.646-1.165V66.04
					c0-0.645,0.736-1.166,1.646-1.166l0,0c0.91,0,1.646,0.521,1.646,1.166V69.668z"/>
				<path style="fill:#29252A;" d="M64.646,69.668c0,0.645-0.738,1.165-1.646,1.165l0,0c-0.909,0-1.647-0.521-1.647-1.165V66.04
					c0-0.645,0.738-1.166,1.647-1.166l0,0c0.909,0,1.646,0.521,1.646,1.166V69.668z"/>
				<g>
					<path style="fill:#E0AE8C;" d="M44.619,80.354c0,0,0.641,0.291,1.447,0.666c0.212,0.077,0.423,0.185,0.652,0.263
						c0.223,0.095,0.456,0.174,0.69,0.245c0.231,0.087,0.472,0.118,0.701,0.182c0.234,0.017,0.462,0.088,0.687,0.065
						c0.228,0.036,0.446-0.018,0.672-0.029c0.225-0.018,0.441-0.111,0.672-0.14c0.219-0.081,0.438-0.173,0.661-0.243
						c0.216-0.088,0.418-0.206,0.622-0.293c0.415-0.169,0.729-0.404,0.998-0.52c0.26-0.128,0.429-0.197,0.429-0.197
						s-0.032,0.167-0.122,0.45c-0.108,0.271-0.208,0.71-0.53,1.114c-0.152,0.209-0.303,0.457-0.522,0.671
						c-0.232,0.201-0.481,0.424-0.77,0.617c-0.318,0.15-0.64,0.352-1.016,0.434c-0.375,0.09-0.765,0.165-1.159,0.134
						c-0.398,0.005-0.77-0.096-1.134-0.195c-0.344-0.13-0.686-0.268-0.963-0.46c-0.29-0.178-0.541-0.38-0.755-0.592
						c-0.227-0.197-0.387-0.435-0.549-0.631C44.724,81.062,44.619,80.354,44.619,80.354z"/>
				</g>
				<g>
					<path style="fill:#29252A;" d="M38.31,92.202c0,0,0.353,0.171,0.971,0.469c0.296,0.155,0.687,0.298,1.092,0.502
						c0.432,0.169,0.894,0.385,1.416,0.572c0.513,0.205,1.067,0.406,1.659,0.586c0.574,0.224,1.217,0.326,1.84,0.524
						c0.652,0.087,1.294,0.299,1.971,0.331c0.335,0.038,0.672,0.068,1.008,0.117l1.017,0.005c0.681,0.073,1.349-0.092,2.022-0.108
						c0.667-0.069,1.31-0.255,1.958-0.346c0.631-0.159,1.233-0.377,1.83-0.532c0.6-0.151,1.117-0.443,1.641-0.621
						c0.515-0.2,1.019-0.352,1.416-0.577c0.406-0.209,0.784-0.369,1.094-0.509c0.623-0.275,1.011-0.414,1.011-0.414
						s-0.211,0.332-0.637,0.878c-0.214,0.272-0.473,0.611-0.797,0.974c-0.301,0.393-0.718,0.746-1.184,1.131
						c-0.477,0.365-0.956,0.84-1.573,1.175c-0.616,0.333-1.261,0.723-1.977,1.023c-0.366,0.132-0.746,0.251-1.13,0.375
						c-0.387,0.112-0.769,0.279-1.184,0.314c-0.819,0.109-1.655,0.292-2.501,0.235l-1.263-0.043
						c-0.415-0.057-0.824-0.142-1.231-0.213c-0.41-0.061-0.806-0.156-1.185-0.295c-0.383-0.123-0.759-0.245-1.124-0.378
						c-0.7-0.334-1.394-0.612-1.976-1.01c-0.295-0.191-0.585-0.366-0.854-0.553c-0.257-0.203-0.505-0.399-0.743-0.587
						c-0.476-0.37-0.851-0.789-1.194-1.129c-0.329-0.362-0.601-0.685-0.804-0.973C38.48,92.569,38.31,92.202,38.31,92.202z"/>
				</g>
			</g>
			<g>
				<path style="fill:#FFFFFF;" d="M39.956,131.151c0,0,9.143,7.707,18.586-0.177l-9.276-4.854L39.956,131.151z"/>
				<g>
					<polygon style="fill:#F2F2F2;" points="37.416,119.415 37.416,132.827 49.283,126.254 					"/>
					<polygon style="fill:#F2F2F2;" points="61.261,119.344 61.261,132.899 49.269,126.255 					"/>
					<polygon style="fill:#CECCCA;" points="37.416,119.415 39.955,119.415 39.955,120.878 					"/>
					<polygon style="fill:#CECCCA;" points="61.082,119.415 58.542,119.415 58.542,120.878 					"/>
				</g>
			</g>
		</g>
	</g>
</g>
</svg>
