<?xml version="1.0" encoding="iso-8859-1"?>
<!-- Generator: Adobe Illustrator 17.0.0, SVG Export Plug-In . SVG Version: 6.00 Build 0)  -->
<!DOCTYPE svg PUBLIC "-//W3C//DTD SVG 1.1//EN" "http://www.w3.org/Graphics/SVG/1.1/DTD/svg11.dtd">
<svg version="1.1" id="Capa_1" xmlns="http://www.w3.org/2000/svg" xmlns:xlink="http://www.w3.org/1999/xlink" x="0px" y="0px"
	 width="81.976px" height="149.165px" viewBox="0 0 81.976 149.165" style="enable-background:new 0 0 81.976 149.165;"
	 xml:space="preserve">
<g>
	<g>
		<g>
			<g>
				<g>
					<path style="fill:#4E7796;" d="M60.892,46.305c0,0-4.238-20.594,1.002-42.805c0,0,1.951-8.08,6.1,0.806
						c4.151,8.886,15.16,33.804,7.782,52.768L60.892,46.305z"/>
				</g>
			</g>
			<g>
				<g>
					<path style="fill:#D76C79;" d="M64.533,44.113c0,0-2.307-14.079-0.816-31.663c0,0,1.09-9.035,3.603-2.712
						c5.766,14.51,9.318,32.107,6.022,41.128L64.533,44.113z"/>
				</g>
			</g>
		</g>
		<g>
			<g>
				<g>
					<path style="fill:#4E7796;" d="M39.555,46.305c0,0,5.911-20.178,2.507-42.743c0,0-1.282-8.213-6.146,0.303
						c-4.864,8.517-17.877,32.448-12.078,51.954L39.555,46.305z"/>
				</g>
			</g>
			<g>
				<g>
					<path style="fill:#D76C79;" d="M36.106,43.822c0,0,3.452-13.843,3.405-31.489c0,0-0.346-9.093-3.367-2.998
						c-6.935,13.988-11.855,31.252-9.31,40.515L36.106,43.822z"/>
				</g>
			</g>
		</g>
	</g>
	<g>
		<g>
			<g>
				<g style="opacity:0.39;">
					<g>
						<path style="fill:#C6CCD6;" d="M50.349,122.815c11.832,0,21.809-6,24.997-14.215c-3.188-10.985-13.165-16.989-24.997-16.989
							c-11.833,0-21.81,6.004-24.995,16.989C28.539,116.815,38.516,122.815,50.349,122.815z"/>
					</g>
				</g>
				<g>
					<g>
						<path style="fill:#2D466A;" d="M50.349,122.815c11.832,0,21.809-6,24.997-14.215c-3.188-10.985-13.165-16.989-24.997-16.989
							c-11.833,0-21.81,6.004-24.995,16.989C28.539,116.815,38.516,122.815,50.349,122.815z"/>
					</g>
				</g>
				<g>
					<g>
						<path style="fill:#2D466A;" d="M25.354,108.6c-0.694,2.384-1.081,4.992-1.081,7.836c0,10.953,6.772,19.831,26.075,19.831
							v-13.452C38.516,122.815,28.539,116.815,25.354,108.6z"/>
					</g>
				</g>
				<g>
					<g>
						<path style="fill:#4E7796;" d="M75.283,108.6c0.692,2.384,1.078,4.992,1.078,7.836c0,10.953-6.622,20.387-26.073,19.831
							v-13.452C62.12,122.815,72.097,116.815,75.283,108.6z"/>
					</g>
				</g>
			</g>
		</g>
		<g>
			<g>
				<g>
					<rect x="34.534" y="129.334" style="fill:#2D466A;" width="10.862" height="14.977"/>
				</g>
			</g>
			<g>
				<g>
					<rect x="55.301" y="129.334" style="fill:#4E7796;" width="10.864" height="14.977"/>
				</g>
			</g>
			<g>
				<g>
					<g>
						<path style="fill:#3C3C3B;" d="M39.852,146.252c0.458,0,0.831,0.373,0.831,0.832v2.08h8.739c0-5.221-4.234-9.453-9.457-9.453
							c-5.22,0-9.454,4.232-9.454,9.453h8.509v-2.08C39.018,146.625,39.39,146.252,39.852,146.252z"/>
					</g>
				</g>
			</g>
			<g>
				<g>
					<g>
						<path style="fill:#3C3C3B;" d="M60.617,146.252c0.46,0,0.833,0.373,0.833,0.832v2.08h8.736c0-5.221-4.232-9.453-9.455-9.453
							c-5.221,0-9.453,4.232-9.453,9.453h8.507v-2.08C59.786,146.625,60.157,146.252,60.617,146.252z"/>
					</g>
				</g>
			</g>
		</g>
	</g>
	<g>
		<g>
			<g>
				<g>
					<path style="fill:#2D466A;" d="M51.908,30.688c0.249,1.479,0.088,2.679-0.198,3.796c-0.304,1.106-0.767,2.103-1.373,3.006
						c-0.602,0.904-1.352,1.71-2.262,2.407c-0.927,0.686-1.98,1.287-3.449,1.608c-0.256-1.482-0.096-2.684,0.19-3.8
						c0.304-1.104,0.77-2.102,1.38-3.002c0.61-0.899,1.355-1.705,2.267-2.402C49.393,31.614,50.443,31.012,51.908,30.688z"/>
				</g>
			</g>
			<g>
				<g>
					<path style="fill:#4E7796;" d="M56.811,32.989c0.252,1.478,0.089,2.679-0.195,3.796c-0.306,1.106-0.771,2.103-1.375,3.007
						c-0.604,0.903-1.352,1.709-2.263,2.406c-0.926,0.686-1.979,1.288-3.448,1.608c-0.254-1.483-0.096-2.685,0.193-3.801
						c0.303-1.105,0.768-2.103,1.377-3.001c0.609-0.9,1.357-1.706,2.266-2.403C54.298,33.915,55.348,33.313,56.811,32.989z"/>
				</g>
			</g>
		</g>
		<g>
			<g>
				<g>
					<path style="fill:#4E7796;" d="M78.865,66.59c-0.479-2.581-1.652-7.708-1.652-7.708c-2.217-12.205-12.964-21.635-26.904-21.635
						v77.273c18.408,0,31.667-12.791,31.667-28.57C81.976,78.469,80.178,73.673,78.865,66.59z"/>
				</g>
			</g>
			<g>
				<g>
					<g>
						<path style="fill:#2D466A;" d="M21.771,66.59c0.477-2.581,1.65-7.708,1.65-7.708c2.219-12.205,12.964-21.635,26.906-21.635
							v77.273c-18.408,0-31.666-12.791-31.666-28.57C18.66,78.469,20.458,73.673,21.771,66.59z"/>
					</g>
				</g>
			</g>
		</g>
		<g>
			<g>
				<ellipse style="fill:#9C9B9B;" cx="50.308" cy="99.378" rx="26.073" ry="17.058"/>
			</g>
		</g>
		<g>
			<g>
				<g>
					<circle style="fill:#3C3C3B;" cx="34.751" cy="96.742" r="3.745"/>
				</g>
			</g>
			<g>
				<g>
					<circle style="fill:#3C3C3B;" cx="65.954" cy="96.742" r="3.745"/>
				</g>
			</g>
		</g>
		<g>
			<g>
				<g>
					<circle style="fill:#9C9B9B;" cx="36.079" cy="65.674" r="5.983"/>
				</g>
			</g>
		</g>
		<g>
			<g>
				<g>
					<circle style="fill:#9C9B9B;" cx="66.383" cy="65.674" r="5.983"/>
				</g>
			</g>
		</g>
		<g>
			<g>
				<g>
					<circle style="fill:#3C3C3B;" cx="36.079" cy="65.674" r="3.349"/>
				</g>
			</g>
		</g>
		<g>
			<g>
				<g>
					<circle style="fill:#3C3C3B;" cx="66.383" cy="65.674" r="3.349"/>
				</g>
			</g>
		</g>
		<g>
			<g>
				<circle style="fill:#FFFFFF;" cx="37.312" cy="64.611" r="1.183"/>
			</g>
		</g>
		<g>
			<g>
				<circle style="fill:#FFFFFF;" cx="67.566" cy="64.611" r="1.183"/>
			</g>
		</g>
		<g>
			<g>
				<g>
					<path style="fill:#F6E9E5;" d="M44.975,113.122c0,2.317,1.062,2.273,2.446,2.445l0,0c1.533,0.104,2.446,0.108,2.446-2.445
						v-1.557c0,0.262-4.893-0.361-4.893-0.361V113.122z"/>
				</g>
			</g>
			<g>
				<g>
					<path style="fill:#F6E9E5;" d="M55.661,113.122c0,2.317-1.063,2.273-2.447,2.445l0,0c-1.533,0.104-2.446,0.108-2.446-2.445
						v-1.557c0,0.262,4.893-0.361,4.893-0.361V113.122z"/>
				</g>
			</g>
		</g>
		<g>
			<g>
				<g>
					<path style="fill:#3C3C3B;" d="M50.68,112.565c-10.965,0-18.63-5.7-18.951-5.942c-0.245-0.186-0.293-0.533-0.108-0.778
						c0.184-0.245,0.532-0.292,0.778-0.108c0.074,0.057,7.703,5.718,18.281,5.718c10.559,0,17.466-5.644,17.535-5.701
						c0.235-0.195,0.585-0.165,0.782,0.071c0.196,0.235,0.165,0.585-0.07,0.782C68.635,106.849,61.659,112.565,50.68,112.565z"/>
				</g>
			</g>
		</g>
	</g>
	<g>
		<g>
			<g>
				<path style="fill:#3C3C3B;" d="M0,126.721c1.566-0.699,6.128-2.716,11.657,0.085c2.436,1.237,3.811,2.293,4.844,3.101
					c1.024,0.829,2.912,2.857,3.689,4.392c-1.568,0.707-1.828,1.003-3.832,1.646c-1.249,0.398-3.096,0.577-4.267,0.162
					c-1.171-0.415-2.422-0.89-3.949-2.222C7.115,133.05,3.145,127.467,0,126.721z"/>
			</g>
		</g>
		<g>
			<g>
				<g>
					<path style="fill:#2D466A;" d="M19.057,135.431c-0.711,0-1.45-0.059-2.218-0.183c-1.513-0.244-2.543-1.669-2.297-3.183
						c0.245-1.513,1.669-2.542,3.183-2.299c8.965,1.441,12.45-13.779,12.484-13.934c0.333-1.496,1.814-2.441,3.313-2.106
						c1.497,0.333,2.44,1.816,2.107,3.313C35.452,117.831,31.383,135.431,19.057,135.431z"/>
				</g>
			</g>
		</g>
	</g>
</g>
</svg>
