<?xml version="1.0" encoding="utf-8"?>
<!-- Generator: Adobe Illustrator 17.0.0, SVG Export Plug-In . SVG Version: 6.00 Build 0)  -->
<!DOCTYPE svg PUBLIC "-//W3C//DTD SVG 1.1//EN" "http://www.w3.org/Graphics/SVG/1.1/DTD/svg11.dtd">
<svg version="1.1" id="图层_1" xmlns:ev="http://www.w3.org/2001/xml-events"
	 xmlns="http://www.w3.org/2000/svg" xmlns:xlink="http://www.w3.org/1999/xlink" x="0px" y="0px" width="120px" height="78.367px"
	 viewBox="0 0 120 78.367" enable-background="new 0 0 120 78.367" xml:space="preserve">
<path fill="#08A1EF" d="M94.166,78.367c-0.424,0-0.845-0.01-1.264-0.032v0.032H60l24.375-23.074H71.76v-25.44H48.24v25.44H35.625
	L60,78.367H27.098v-0.032c-0.419,0.022-0.84,0.032-1.264,0.032C11.567,78.367,0,66.933,0,52.827c0-12.84,9.585-23.466,22.065-25.269
	c-0.122-0.989-0.186-1.996-0.186-3.017C21.879,10.989,32.993,0,46.704,0c9.022,0,16.918,4.758,21.264,11.873
	c2.956-1.423,6.277-2.221,9.786-2.221c11.023,0,20.184,7.876,22.041,18.245C111.355,30.438,120,40.633,120,52.827
	C120,66.933,108.433,78.367,94.166,78.367z"/>
</svg>
