<?xml version="1.0" encoding="utf-8"?>
<!-- Generator: Adobe Illustrator 17.0.0, SVG Export Plug-In . SVG Version: 6.00 Build 0)  -->
<!DOCTYPE svg PUBLIC "-//W3C//DTD SVG 1.1//EN" "http://www.w3.org/Graphics/SVG/1.1/DTD/svg11.dtd">
<svg version="1.1" id="_x37C_" xmlns="http://www.w3.org/2000/svg" xmlns:xlink="http://www.w3.org/1999/xlink" x="0px" y="0px"
	 width="221.102px" height="300.791px" viewBox="0 0 221.102 300.791" enable-background="new 0 0 221.102 300.791"
	 xml:space="preserve">
<path fill="#FF3333" d="M220.971,135.27c-0.113-1.432-0.377-2.834-0.754-4.221c-2.44-9.119-7.79-16.061-15.78-21.016
	c-0.366-0.227-0.461-0.52-0.536-0.867c-1.912-8.602-4.843-16.836-8.733-24.729c-4.71-9.543-10.729-18.201-17.861-26.086
	c-6.312-7-13.368-13.115-21.573-17.787c-10.042-5.709-20.603-10.221-31.663-13.566c-5.454-1.648-10.946-3.07-16.685-3.231
	c0.143-0.123,0.283-0.254,0.443-0.357c3.043-2.016,5.982-4.174,8.667-6.66c1.855-1.725,3.589-3.562,4.918-5.729
	c0.235-0.387,0.472-0.781,0.179-1.225c-0.32-0.471-0.801-0.404-1.253-0.313c-0.952,0.199-1.903,0.379-2.873,0.483
	c-6.378,0.631-11.408-1.621-14.988-6.99c-0.17-0.273-0.283-0.603-0.688-0.82c-0.424,2.732-1.714,4.984-3.269,7.133
	c-2.864,3.945-6.237,7.441-9.722,10.842c-0.829,0.811-1.688,1.602-2.676,2.232l0,0l0,0c-4.598,0.811-9.138,1.828-13.565,3.326
	c-1.856,0.631-3.712,1.291-5.238,2.6c-1.14,0-2.242,0.236-3.41,0.463c0.075-0.256,0.122-0.424,0.17-0.586
	c1.847-5.238,4.078-10.295,6.905-15.072c2.562-4.344,5.501-8.375,9.363-11.662C80.875,0.979,81.516,0.639,81.874,0
	c-0.104,0-0.197,0-0.292,0c-2.524,1.609-5.247,2.74-8.168,3.344c-2.411,0.49-4.748,0.367-6.792-1.234
	c-0.245-0.189-0.556-0.311-0.839-0.443c-1.619-0.772-3.061-0.441-4.333,0.773c-0.245,0.236-0.471,0.49-0.678,0.754
	c-0.802,1.045-1.508,2.146-2.148,3.297c-3.749,6.783-6.293,13.981-7.349,21.668c-0.509,3.644-0.584,7.311,0.472,10.908
	c0.113,0.367-0.028,0.594-0.245,0.84c-0.839,0.978-1.62,2.006-2.327,3.088c-0.499,0.764-1.045,1.508-1.291,2.422
	c-0.169,0.133-0.329,0.283-0.499,0.414c-7.074,5.164-12.444,11.738-16.081,19.709c-4.597,10.08-5.878,20.602-3.843,31.494
	c0.885,4.689,2.628,9.127,4.276,13.584c1.31,3.551,2.761,7.055,3.655,10.738c0.547,2.252,0.971,4.561,0.32,6.84
	c-0.999,3.43-3.467,5.445-6.792,6.5c-0.415,0.133-0.857,0.16-1.272,0.313c-0.358,0.121-0.048,0.234,0.056,0.338
	c0.038,0.027,0.075,0.066,0.104,0.104c0.518,0.518,1.018,1.047,1.536,1.545c0.612,0.594,0.649,0.781,0.085,1.451
	c-0.641,0.764-1.253,1.545-1.79,2.393c-3.42,5.455-4.032,11.127-1.253,17.043c1.827,3.881,4.682,6.943,7.923,9.664
	c3.363,2.826,7.037,5.191,10.956,7.16c-2.13,0.773-3.778,2.129-4.946,4.07c-1.018-0.217-2.034-0.236-3.061-0.254
	c-2.336-0.113-4.663,0.027-6.99,0.273c-4.173,0.424-8.243,1.262-12.039,3.164c-3.024,1.518-5.445,3.666-6.83,6.803
	c-1.706,3.861-0.98,7.621,0.848,11.221c1.95,3.871,4.993,6.801,8.516,9.223c4.532,3.107,9.478,5.189,15.017,5.66l0,0l0.01,0.01
	c0.075,0.02,0.142,0.029,0.218,0.029c0.131,0.027,0.263,0.055,0.395,0.066c0.499,0.037,1.149-0.236,1.46,0.084
	c0.33,0.358-0.009,0.998,0.057,1.516c-0.254,0.303-0.48,0.613-0.744,0.896c-1.752,1.883-3.946,3.041-6.378,3.777
	c-3.164,0.971-6.434,1.195-9.722,1.291c-1.479,0.047-2.958,0.027-4.438,0.037c-0.244-0.047-0.367,0.057-0.207,0.264
	c0.188,0.244,0.424,0.461,0.669,0.66c1.658,1.355,3.25,2.77,4.72,4.324c0.16,0.168,0.462,0.271,0.358,0.611
	c-0.283-0.037-0.575-0.066-0.867-0.094c-3.881-0.367-7.715-0.16-11.361,1.355c-4.984,2.074-8.479,5.521-9.788,10.91
	c-0.028,0.104-0.047,0.188-0.159,0.207c0,1.309,0,2.629,0,3.938c0.319,0.34,0.263,0.801,0.366,1.205
	c1.009,4.174,3.486,7.443,6.501,10.336c5.539,5.34,12.19,8.846,19.435,11.219c9.081,2.978,18.474,3.797,27.979,3.496
	c7.075-0.227,14.083-1.074,21.065-2.215c4.935-0.801,9.769-2.063,14.376-4.078c0.81-0.35,1.234-0.293,1.875,0.357
	c6.518,6.576,13.34,12.84,19.84,19.436c3.137,3.184,6.104,6.547,9.439,9.523c3.401,3.033,7.141,5.445,11.673,6.406
	c0.48,0.104,0.998,0.037,1.422,0.357c0.245,0,0.489,0,0.734,0c0.632-0.234,1.263-0.234,1.895,0c0.244,0,0.488,0,0.734,0
	c0.018-0.111,0.104-0.131,0.207-0.141c1.074-0.066,2.119-0.301,3.137-0.611c3.279-0.971,6.199-2.488,8.186-5.438
	c2.215-3.268,2.978-6.961,3.203-10.805c0.226-3.881-0.282-7.707-1.168-11.475c-1.026-4.381-2.534-8.563-5.125-12.275
	c-0.885-1.271-1.809-2.533-3.184-3.354c0.424-1.318,0.895-2.629,1.479-3.881c1.969-4.201,4.776-7.594,9.138-9.496
	c2.27-0.99,4.692-1.348,7.142-1.621c0.273-0.027,0.594,0.02,0.743-0.311l0,0l0,0c-0.064-0.404-0.395-0.594-0.678-0.811
	c-1.799-1.412-3.768-2.553-5.747-3.693c-6.952-3.992-14.158-7.508-21.469-10.805c0.207-2.082,0.452-4.174,0.254-6.34
	c0.255,0.104,0.405,0.16,0.557,0.236c2.835,1.393,5.708,2.693,8.629,3.871c2.656,1.064,5.332,2.082,8.102,2.816
	c0.085,0.039,0.17,0.094,0.255,0.123c3.664,1.064,7.385,1.875,11.182,2.309c3.722,0.424,7.424,0.328,11.022-0.857
	c2.261-0.754,4.494-1.641,6.124-3.486c2.524-2.873,3.015-6.32,2.43-9.92c-1.262-7.781-5.52-13.857-11.286-19.002l0,0l0,0
	c-0.536-0.48-1.073-0.979-1.63-1.441c-2.995-2.449-6.218-4.561-9.485-6.613c0.056-0.236,0.141-0.461,0.178-0.705
	c0.453-2.959-0.348-5.615-2.024-8.047c-1.216-1.762-2.648-3.334-4.239-4.766c0.094,0.008,0.188,0.008,0.282,0.037
	c8.178,2.27,16.383,2.215,24.531,0c7.462-2.035,14.244-5.295,19.274-11.455c0.16-0.197,0.302-0.246,0.556-0.18
	c2.3,0.604,4.607,0.574,6.934,0.217c5.465-0.82,9.609-3.617,12.445-8.338c1.668-2.789,2.619-5.83,3.25-8.996
	c0.198-1.027,0.18-2.102,0.564-3.1c0-0.094,0-0.188,0-0.291c0-0.34,0-0.68,0-1.018c0-1.658,0-3.307,0-4.965c0-0.293,0-0.584,0-0.877
	C221.064,135.289,221.018,135.289,220.971,135.27z M32.98,186.904c-0.97,2.592-1.601,5.285-2.016,8.01
	c-0.329,2.184-0.442,4.398-0.302,6.602c0.085,1.301,0.312,2.592,0.698,3.846l0,0c0.828,3.107,2.26,5.896,4.352,8.346
	c0.142,0.16,0.32,0.291,0.349,0.527c-1.969-0.178-3.825-0.791-5.681-1.441c-2.601-0.914-5.03-2.186-7.33-3.684
	c-2.798-1.809-5.331-3.91-7.358-6.613c-2.081-2.76-3.267-5.842-3.711-9.233c-0.038-0.348-0.142-0.734,0.123-1.055
	c0.178-2.309,1.214-4.211,2.75-5.879c2.459-2.676,5.662-4.041,9.043-5.049c3.279-0.99,6.652-1.488,10.053-1.781
	c0.989-0.084,1.979-0.178,2.967-0.273C35.176,181.564,33.998,184.191,32.98,186.904z M125.689,73.885
	c5.313,7.471,10.127,15.242,14.565,23.26c4.306,7.781,8.008,15.809,10.722,24.277c1.28,4.004,2.27,8.074,3.118,12.182
	c0.027,0.17,0.019,0.338,0.027,0.508c-1.338,0.377-2.666,0.734-3.956,1.254c-1.263,0.508-2.469,1.131-3.703,1.865
	c-0.207-1.217-0.377-2.375-0.594-3.533c-1.29-6.867-3.372-13.5-5.821-20.039c-5.191-13.838-12.783-26.311-21.63-38.078
	c-5.247-6.98-10.759-13.744-17.004-19.867c-5.172-5.068-10.693-9.703-17.1-13.18c-3.391-1.838-6.961-3.193-10.776-3.881
	c0-0.096-0.33-0.199,0.009-0.264c3.703-0.688,7.32-1.697,10.892-2.893c0.319-0.104,0.612-0.027,0.912,0.113
	c3.393,1.498,6.549,3.391,9.516,5.615c4.041,3.033,7.791,6.414,11.418,9.938C113.471,58.125,119.887,65.736,125.689,73.885z
	 M132.369,99.396c-0.132,0.057-0.141,0.17-0.151,0.291c-0.226-0.225-0.122-0.527-0.302-0.828
	C132.247,98.982,132.266,99.219,132.369,99.396z M86.575,24.068c5.04-3.994,9.364-8.676,12.925-14.045
	c1.112-1.688,2.072-3.459,2.432-5.482c0.064-0.379,0.104-0.746,0.188-1.367c1.678,3.381,4.221,5.521,7.424,6.924
	c3.222,1.414,6.575,1.508,10.108,0.914c-0.481,0.848-1.046,1.441-1.592,2.035c-3.41,3.721-7.462,6.65-11.654,9.402
	c-2.571,1.695-5.096,3.475-7.79,4.973c-1.386,0.764-2.732,1.592-4.192,2.195c-1.319,0.887-2.789,1.451-4.221,2.102
	c-3.372,1.535-6.84,2.846-10.372,3.957c-3.298,1.035-6.623,1.949-10.033,2.58c-0.066,0.01-0.122,0.066-0.18,0.105
	c-1.12,0.045-2.241,0.092-3.353,0.141c0.094-1.781,0.998-3.193,2.109-4.494c0.688-0.801,1.517-1.338,2.581-1.621
	c2.026-0.535,3.958-1.356,5.832-2.307C80.292,28.469,83.561,26.451,86.575,24.068z M73.584,30.475
	c-1.008,0.377-1.79,1.008-2.892,1.148c-2.337,0.293-3.938,1.754-5.05,3.769c-0.161,0.301-0.283,0.621-0.424,0.924
	c-0.396,0.744-0.472,1.582-0.707,2.363c-2.326,0.416-4.635,0.914-6.857,1.744c-1.131,0.414-2.243,0.875-3.364,1.318
	c-0.15-1.828,0.434-3.477,1.244-5.068c0.358-0.707,0.791-1.385,1.365-1.951C61.507,29.213,69.26,28.129,73.584,30.475z
	 M52.218,31.445c0.819-8.488,3.693-16.326,7.556-23.844c0.772-1.508,1.639-2.977,2.92-4.144c1.036-0.943,1.432-1.018,2.657-0.406
	c0.377,0.189,0.734,0.387,1.084,0.604c2.345,1.451,4.841,1.365,7.385,0.744c1.018-0.244,1.997-0.604,2.986-0.981
	c-0.631,0.811-1.375,1.508-2.044,2.272c-2.856,3.24-5.182,6.84-7.217,10.644c-2.167,4.033-3.938,8.225-5.359,12.576
	c-0.114,0.359-0.321,0.547-0.66,0.689c-2.808,1.234-5.257,2.93-6.915,5.596c-0.885,1.432-1.46,2.996-1.855,4.852
	C52.049,37.061,51.945,34.271,52.218,31.445z M51.842,41.949c0.188-0.244,0.366-0.764,0.659-0.65c0.377,0.141,0.112,0.65,0.188,1
	c0.009,0.064,0.009,0.141,0.019,0.217c-0.839,0.469-1.668,0.941-2.506,1.412C50.569,43.127,51.323,42.637,51.842,41.949z
	 M28.327,140.82L28.327,140.82c0,0.008-0.01,0.018-0.01,0.018C28.317,140.828,28.317,140.82,28.327,140.82z M33.292,165.209
	c-3.138-2.844-5.728-6.086-7.084-10.174c-0.161-0.5-0.293-1.018-0.434-1.535c0.028-0.113,0.065-0.189,0.104-0.246
	c0.065,0.01,0.142,0.057,0.235,0.123c1.725,1.318,3.712,1.895,5.85,2.063c0.142,0.217,0.283,0.453,0.443,0.66
	c1.178,1.508,2.76,2.488,4.428,3.336c1.366,0.686,2.732,1.365,3.854,2.43c0.178,0.18,0.348,0.357,0.574,0.584
	c0.009-0.33-0.169-0.463-0.32-0.613c-0.32-0.488-0.754-0.865-1.205-1.232c-1.216-0.98-2.667-1.555-3.958-2.412
	c-1.13-0.754-2.213-1.564-2.986-2.713c0.011-0.02,0-0.039,0.011-0.057c3.956-0.49,6.434-3.553,6.706-5.379
	c-0.527,0.594-0.951,1.111-1.422,1.592c-1.648,1.666-3.522,2.873-6.001,2.77c-0.301-0.717-0.574-1.441-0.537-2.242
	c0.151-3.213,1.847-5.418,4.569-6.914c0.979-0.547,1.941-1.094,2.713-1.914c-0.066-0.064-0.122-0.121-0.179-0.18
	c-0.942,0.727-1.997,1.273-3.061,1.801c-3.316,1.631-5.747,5.756-4.23,9.439c-0.265-0.02-0.528-0.02-0.792-0.057
	c-1.762-0.236-3.344-0.98-4.89-1.791c-0.404-1.676-0.282-3.352,0-5.029c0.367-2.205,1.122-4.277,2.354-6.17l0,0
	c0.359-0.209,0.707-0.434,1.065-0.633c2.553-1.402,5.37-1.799,8.205-2.035c6.029-0.517,12.078-0.572,18.116-1.045
	c4.239-0.33,8.47-0.707,12.577-1.922c5.624-1.678,10.616-4.408,14.159-9.213c6.396-8.686,8.544-18.438,6.679-29.025
	c-0.781-4.4-2.723-8.355-5.869-11.596c-4.805-4.957-10.833-6.623-17.531-6.295c-5.437,0.275-10.494,1.912-15.205,4.561
	c-7.574,4.277-13.858,10.137-19.822,16.363c-0.074,0.047-0.159,0.086-0.254,0.094c-0.207,0.076-0.339,0.217-0.442,0.396
	c-0.518-1.102-0.706-2.309-0.923-3.496c-2.554-13.781,0.056-26.537,7.715-38.266c0.236-0.357,0.538-0.613,0.896-0.83
	c7.216-4.482,14.988-7.535,23.382-8.883c5.644-0.904,11.315-1.018,17.014-0.537c5.879,0.49,11.616,1.705,17.287,3.26
	c0.452,0.123,0.764,0.414,1.083,0.697c4.466,3.918,8.583,8.188,12.436,12.709c8.073,9.457,15.449,19.424,21.771,30.154
	c0.688,1.168,0.819,2.422,1.026,3.684c0.575,3.459,0.849,6.953,0.603,10.457c-0.329,4.795-2.025,9.158-4.408,13.283
	c-2.638,4.578-6.143,8.404-10.09,11.899c-7.169,6.359-15.102,11.391-24.324,14.225c-4.72,1.451-9.562,2.158-14.488,2.262
	c-0.17,0-0.33,0.02-0.547,0.039c0.188,0.299,0.462,0.338,0.697,0.432c1.885,0.791,3.665,1.781,5.295,3.025
	c4.069,3.107,4.899,7.104,2.316,11.529c-1.902,3.26-4.672,5.652-7.847,7.576c-5.597,3.398-11.72,4.748-18.22,4.162
	c-2.686-0.244-5.229-1.234-7.791-2.082C45.416,173.904,38.916,170.307,33.292,165.209z M64.04,130.277
	c-3.89,2.986-8.251,4.438-13.16,4.137c-1.939-0.123-3.815-0.566-5.624-1.264c-0.112,0.15-0.255,0.217-0.451,0.133
	c-0.566-2.072-0.811-4.193-0.896-6.33c-0.17-4.4,0.377-8.695,2.091-12.766c1.536-3.666,3.542-7.057,6.821-9.459
	c2.788-2.035,5.84-2.939,9.27-1.818c2.309,0.764,3.872,2.355,4.89,4.514c1.517,3.203,1.912,6.613,1.714,10.09
	c-0.217,3.938-1.149,7.723-2.571,11.389c-0.123,0.311-0.207,0.641-0.443,0.904c-0.217,0.037-0.376-0.047-0.499-0.227
	C64.729,129.684,64.39,130.004,64.04,130.277z M64.936,131.332c0.01,0.246-0.104,0.443-0.273,0.604
	c-0.763,1.564-1.827,2.902-2.93,4.23c-0.15,0.027-0.292,0.064-0.442,0.094c-4.937,0.631-9.892,0.998-14.866,1.215
	c-0.094-0.01-0.197-0.02-0.292-0.027c-0.339-1.01-0.857-1.969-1.036-3.043c0.17,0.104,0.34,0.207,0.499,0.311
	c6.152,2.656,11.955,1.951,17.457-1.781c0.18-0.111,0.32-0.311,0.564-0.291c0.228-0.359,0.538-0.621,0.877-0.867
	C64.597,131.588,64.747,131.445,64.936,131.332z M82.722,189.27c0.754,1.828,1.141,3.73,1.356,5.689
	c0.396,3.637-0.188,7.189-0.848,10.73c-0.057,0.33,0.047,0.697-0.244,0.998c-0.952-1.957-2.28-3.635-3.815-5.152
	c-0.904-0.904-1.941-1.601-3.053-2.205c-2.76-1.488-5.69-2.6-8.497-3.984c-3.053-1.498-5.851-3.373-7.913-6.143
	c-1.056-1.422-1.743-3.024-1.319-4.889c0.132-1.309,0.546-2.525,1.216-3.654c0.15-0.273,0.272-0.566,0.414-0.84
	c2.072,0.387,4.126,0.803,6.199,1.141c3.636,0.604,7.3,0.941,10.975,1.111c0.15,0,0.291,0.037,0.434,0.066
	c1.384,1.215,2.694,2.514,3.636,4.125C81.827,187.225,82.364,188.205,82.722,189.27L82.722,189.27L82.722,189.27z M69.741,239.973
	c-2.639,1.188-5.39,1.139-8.141,0.545c-3.354-0.734-6.34-2.156-8.582-4.85c-0.791-0.963-1.31-2.055-1.47-3.289
	c-0.264-1.979,0.904-3.844,3.015-4.861c1.018-0.48,2.101-0.754,3.213-0.885c1.092,0.141,2.091,0.602,3.127,0.914
	c2.619,0.791,5.257,1.498,7.924,2.119c0.292,0.064,0.546,0.178,0.79,0.33c0.887,0.725,1.696,1.525,2.328,2.506
	C73.829,235.439,72.944,238.531,69.741,239.973z M57.805,188.705c0.142,0.311,0.065,0.471-0.293,0.434
	c-3.174-0.303-6.066-1.225-8.11-3.9c-0.472-0.623-0.641-1.348-0.792-2.082c-0.235-2.338,0.811-4.287,1.875-6.227
	c2.968,1.092,5.991,1.977,9.054,2.76c-1.188,1.225-1.79,2.77-2.327,4.352C56.899,185.662,57.126,187.217,57.805,188.705z
	 M41.054,181.205c0.613-2.543,2.252-4.295,4.391-5.662c0.227-0.141,0.452-0.281,0.678-0.424c1.225,0.51,2.45,1.027,3.684,1.537
	c-0.481,0.697-1.094,1.291-1.526,2.035c-1.29,2.23-1.621,4.539-0.471,7.008c-2.893,0.83-4.881,2.609-5.823,5.709
	c-0.207-0.754-0.385-1.309-0.518-1.865c-0.132-0.594-0.254-1.188-0.349-1.779c-0.103-0.594-0.207-1.197-0.255-1.801
	C40.753,184.371,40.678,182.77,41.054,181.205z M40.979,206.803c0.065-0.266,0.169-0.5,0.282-0.736
	c0.094-0.574,0.49-0.988,0.801-1.441c1.865-2.619,3.9-5.088,6.058-7.471c2.346-2.6,5.021-4.785,7.97-6.65
	c0.33-0.217,0.697-0.34,1.056-0.49c1.14-0.33,1.121-0.32,1.847,0.631c1.95,2.535,4.483,4.354,7.3,5.785
	c1.216,0.611,2.45,1.168,3.675,1.752c-2.506,0.914-5.021,1.818-7.442,2.93c-8.205,3.787-15.479,8.902-21.828,15.328
	c-0.339,0.338-0.679,0.697-1.008,1.045c-0.122-0.018-0.235-0.047-0.302-0.17C39.633,213.764,40.141,210.26,40.979,206.803z
	 M37.945,267.141c-0.518,1.367-0.489,1.367-1.96,1.131c-6.462-1.074-12.604-3.1-18.388-6.189c-4.165-2.223-7.99-4.908-11.202-8.393
	c-1.884-2.055-3.457-4.307-4.371-6.982c-1.413-4.135-0.734-7.865,1.96-11.285c2.553-3.23,5.925-5.098,9.883-5.992
	c2.345-0.527,4.719-0.725,7.121-0.658c0.584,0.018,1.159,0.037,1.733,0.066c1.884,2.043,3.505,4.285,4.673,6.818
	c1.874,4.053,1.593,8.15-0.01,12.221c-0.631,1.6-0.631,1.582,1.055,1.355c2.949-0.396,5.897-0.404,8.856-0.076
	c0.17,0.02,0.329,0.086,0.49,0.123c0.273,1.648,0.583,3.289,0.8,4.945C39.161,258.568,39.548,262.902,37.945,267.141z
	 M147.772,266.012c0.292,0.111,0.292,0.404,0.376,0.639c1.14,3.412,1.922,6.896,2.346,10.467c0.254,2.082,0.377,4.164,0.235,6.246
	c-0.282,3.881-0.979,7.648-3.466,10.844c-1.441,1.873-3.373,3.014-5.55,3.844c-5.397,2.072-10.419,1.188-15.224-1.752
	c-2.628-1.602-4.936-3.609-7.103-5.775c-2.939-2.94-5.878-5.879-8.817-8.828c-0.113-0.113-0.217-0.244-0.329-0.367
	c7.357,2.469,14.602,2.355,21.752-0.451C139.199,278.041,144.427,273.02,147.772,266.012z M151.268,236.326
	c2.985,1.555,5.981,3.1,8.977,4.635c-0.141,0.207-0.348,0.141-0.527,0.123c-4.785-0.518-8.911,0.969-12.341,4.258
	c-2.732,2.609-4.391,5.879-5.04,9.619c-0.075,0.424-0.037,0.865-0.056,1.299c0,0.197-0.029,0.377-0.283,0.17
	c-5.135-2.346-10.514-2.976-16.082-2.232c-6.038,0.811-11.153,3.504-15.563,7.639c-2.628,2.469-4.813,5.268-6.255,8.603
	c-0.02,0.037-0.066,0.074-0.104,0.111c-5.295-5.896-11.87-9.449-19.746-10.297c-7.81-0.848-15.11,0.83-21.742,5.145
	c-3.203-6.443-8.017-11.389-14.461-14.631c-6.501-3.268-13.321-3.938-20.462-1.969c0.744-1.111,1.356-2.223,1.762-3.439
	c1.46-4.324,0.753-8.402-1.518-12.236c-2.373-4.023-5.566-7.271-9.58-9.693c-0.122-0.076-0.273-0.123-0.302-0.293
	c2.619,0.377,5.257,0.574,7.904,0.32c0.499-0.047,0.734,0.301,1.026,0.574c3.156,3.006,5.21,6.66,6.406,10.826
	c0.499,1.752,0.857,3.531,1.158,5.33c0.029,0.162,0.095,0.32,0.143,0.482c0.254,0.357,0.631,0.385,1.036,0.385
	c4.804-0.02,9.43,0.867,13.857,2.733c4.023,1.705,7.641,4.051,10.891,6.971c1.554,1.395,3.071,2.828,4.418,4.438
	c0.377,0.443,0.754,0.49,1.281,0.246c3.514-1.602,7.188-2.695,11.032-3.186c5.228-0.668,10.334-0.141,15.27,1.762
	c3.081,1.197,5.916,2.826,8.573,4.785c1.441,1.064,1.055,0.887,2.262-0.168c1.517-1.328,3.052-2.639,4.7-3.807
	c5.05-3.561,10.57-5.982,16.75-6.727c2.469-0.291,4.946-0.273,7.424-0.084c1.008,0.084,2.017,0.234,3.033,0.234
	c0.575-0.582,0.867-1.393,1.479-1.949c1.271-2.035,2.958-3.713,4.748-5.275c2.571-2.252,5.558-3.768,8.827-4.777
	C150.57,236.129,150.891,236.137,151.268,236.326z M84.446,189.43c1.403,0.631,2.835,0.98,4.22,1.471
	c-1.12,0.611-2.363,0.922-3.542,1.402C84.907,191.391,84.691,190.477,84.446,189.43z M96.185,243.391
	c0.141-1.553,0.951-2.779,2.091-3.795c2.007-1.791,4.428-2.666,7.027-3.09c3.354-0.539,6.633-0.303,9.771,1.102
	c0.875,0.387,1.667,0.904,2.374,1.535c2.393,2.148,2.506,5.275,0.244,7.668c-1.715,1.818-3.909,2.742-6.274,3.326
	c-1.422,0.357-2.863,0.518-4.333,0.5c-3.006-0.039-5.897-0.557-8.395-2.375C97.041,247.076,95.995,245.521,96.185,243.391z
	 M143.231,232.445c0.15,0.064,0.32,0.123,0.357,0.32c-2.195,1.225-4.446,2.269-6.98,2.57c-2.063,0.256-3.947-0.113-5.549-1.545
	c-1.433-1.299-1.875-2.91-1.263-4.738c0.104-0.318,0.254-0.631,0.387-0.941c0.302-0.434,0.8-0.604,1.205-0.904
	c0.198-0.143,0.368-0.047,0.547,0.037C135.694,228.979,139.463,230.711,143.231,232.445z M163.231,195.969
	c1.78-0.256,3.551-0.199,5.323-0.283c-0.143,0.18,0.037,0.254,0.131,0.338c2.826,2.469,5.342,5.201,7.357,8.375
	c1.865,2.922,3.279,6.031,3.995,9.441c0.074,0.375-0.038,0.781,0.188,1.131c0.34,2.166,0.188,4.285-0.602,6.348
	c-0.698,1.828-1.979,3.129-3.675,4.051c-2.195,1.188-4.541,1.875-7.028,2.185c-1.13,0.141-2.27,0.207-3.392,0.217
	c-1.677,0.02-3.372-0.178-5.049-0.414c-3.223-0.471-6.406-1.168-9.544-2.082c-0.254-0.076-0.509-0.15-0.763-0.227
	c-1.084-2.42-1.686-4.955-1.912-7.582c-0.292-1.197-0.179-2.412-0.094-3.609c0.15-2.166,0.583-4.305,1.366-6.35
	c0.988-2.629,2.213-5.105,4.305-7.064C156.495,197.955,159.613,196.486,163.231,195.969z M157.673,182.563
	c0.706,1.525,1.065,3.156,1.111,4.852c-2.279-1.254-7.385-5.201-7.771-5.426c-2.045-1.178-4.276-1.801-6.586-2.176
	c-2.223-0.369-4.465-0.547-6.725-0.443c-3.222,0.15-6.378,0.734-9.486,1.592c-4.014,1.111-7.792,2.789-11.522,4.615
	c-4.672,2.279-9.58,3.92-14.742,4.738c-2.374,0.379-4.776,0.576-7.16,0.406c-3.354-0.227-6.67-0.764-9.901-1.725
	c-0.094-0.02-0.17-0.094-0.244-0.141c-0.255,0-0.472-0.037-0.575-0.33c-0.866-2.432-2.289-4.512-4.069-6.359
	c4.069-0.123,8.129-0.377,12.18-0.875c4.429-0.557,8.809-1.357,13.143-2.393c0.235-0.057,0.471-0.096,0.706-0.143
	c2.798-0.818,5.605-1.564,8.366-2.506c5.944-2.025,11.672-4.521,17.164-7.574c0.49-0.273,0.782-0.217,1.197,0.104
	c4.87,3.664,10.381,5.014,16.392,4.514c0.387-0.029,0.782-0.049,1.168-0.066c0.179,0.018,0.32,0.094,0.443,0.227
	C153.35,176.27,156.053,179.01,157.673,182.563z M152.765,173.838c0.019,0,0.047,0.01,0.066,0.01c0,0.01,0,0.029-0.009,0.037
	C152.802,173.867,152.783,173.857,152.765,173.838z M160.829,149.881c-0.085-0.047-0.161-0.121-0.255-0.131
	c-4.503-0.377-8.939-0.113-13.245,1.414c-1.894,0.668-3.75,1.459-5.473,2.506c-0.914,0.535-1.828,1.072-2.809,1.648
	c0.952-1.885,6.293-4.748,11.079-5.916c4.192-1.027,8.347-0.914,12.643,0.518C161.979,150.174,161.413,149.826,160.829,149.881z
	 M73.094,65.105c1.705,3.391,2.601,6.98,2.582,10.787c0,0.027,0,0.047-0.01,0.074c-0.104,0.473,0.047,1.113-0.612,1.262
	c-0.631,0.133-0.763-0.479-1.008-0.865c-4.927-7.527-11.747-11.748-20.867-11.918c-1.875-0.037-3.721,0.313-5.492,0.953
	c-0.15,0.055-0.292,0.188-0.537,0.084c0.604-0.783,1.319-1.422,2.072-2.008c3.147-2.42,6.586-4.238,10.57-4.719
	c3.702-0.443,7.282-0.094,10.297,2.449C71.37,62.289,72.341,63.617,73.094,65.105z"/>
</svg>
