<?xml version="1.0" encoding="utf-8"?>
<!-- Generator: Adobe Illustrator 17.0.0, SVG Export Plug-In . SVG Version: 6.00 Build 0)  -->
<!DOCTYPE svg PUBLIC "-//W3C//DTD SVG 1.1//EN" "http://www.w3.org/Graphics/SVG/1.1/DTD/svg11.dtd">
<svg version="1.1" id="Livello_1" xmlns="http://www.w3.org/2000/svg" xmlns:xlink="http://www.w3.org/1999/xlink" x="0px" y="0px"
	 width="157.405px" height="62.571px" viewBox="0 0 157.405 62.571" enable-background="new 0 0 157.405 62.571"
	 xml:space="preserve">
<path fill="#1E1E1E" d="M78.225,17.657l-0.117-7.582c0,0-0.594-1.779-1.661-1.54c-1.069,0.354-1.661,0.946-0.832,2.487
	c0.95,1.423,1.186,2.609,0.594,3.555c0,0-2.609-3.438-3.559-4.503c-0.953-1.065-1.305-3.319,0.235-4.737
	c0,0,1.782-1.069,3.445,0.829c0,0,0.829,0.946,1.54-0.24c0,0-1.423-2.606-0.946-3.91c0,0,0.237-0.711,1.544-2.015
	c0,0,1.069,0.238,2.019,1.78c0.946,1.54-0.121,2.487-0.475,3.555c-0.357,0.946,0.475,1.065,0.95,0.946
	c0.594-0.117,2.133-2.015,3.916-0.238c1.78,1.779-1.069,5.094-2.255,6.398c-1.069,1.304-1.544,1.658-1.544,1.658
	s0.117-2.606,0.829-3.552c0.715-0.829-0.475-1.898-1.78-1.542c-1.426,0.356-1.19,2.961-1.307,3.794
	c-0.117,0.592,0,3.317-0.117,4.856c0,0.24,0.237,0.475,0.475,0.475l7.478-0.119c0,0,1.901-0.71,1.544-1.779
	c-0.354-0.945-0.948-1.537-2.374-0.708c-1.544,0.948-2.733,1.186-3.562,0.594c0,0,3.322-2.725,4.391-3.554
	c1.19-0.95,3.322-1.304,4.748,0.238c0,0,1.186,1.777-0.829,3.435c0,0-0.832,0.829,0.354,1.423c0,0,2.612-1.423,3.799-0.829
	c0,0,0.711,0.237,2.019,1.54c0,0-0.24,0.946-1.78,2.015c-1.426,0.946-2.493-0.24-3.445-0.473c-0.946-0.356-1.186,0.473-0.946,0.948
	c0.117,0.471,2.015,2.133,0.117,3.91c-1.78,1.777-5.106-1.186-6.41-2.252c-1.307-1.186-1.544-1.54-1.544-1.54
	s2.493,0.116,3.445,0.829c0.946,0.592,1.898-0.475,1.54-1.896c-0.354-1.304-2.847-1.185-3.676-1.185c-0.597-0.119-3.326,0-4.752,0
	c-0.237-0.119-0.594,0.117-0.594,0.354c0.117,1.423,0,4.74,0.117,5.332c0.117,0.829-0.117,3.438,1.307,3.792
	c1.304,0.238,2.493-0.711,1.78-1.658c-0.711-0.829-0.829-3.438-0.829-3.438s0.475,0.357,1.544,1.661
	c1.186,1.185,4.034,4.621,2.255,6.398c-1.782,1.777-3.322-0.119-3.916-0.238c-0.475-0.117-1.307,0-0.95,0.948
	c0.354,0.948,1.423,2.013,0.475,3.554c-0.951,1.423-2.019,1.659-2.019,1.659c-1.307-1.185-1.544-2.013-1.544-2.013
	c-0.475-1.186,0.946-3.792,0.946-3.792c-0.711-1.186-1.54-0.24-1.54-0.24c-1.661,1.898-3.445,0.831-3.445,0.831
	c-1.54-1.425-1.186-3.675-0.237-4.74c0.95-1.185,3.559-4.503,3.559-4.503c0.594,0.829,0.357,2.133-0.594,3.554
	c-0.829,1.542-0.237,2.131,0.832,2.371c1.069,0.356,1.661-1.423,1.661-1.423l0.117-7.94c0-0.471-0.117-0.471-0.475-0.471
	c-1.304,0-4.745-0.119-5.341,0c-0.829,0-3.441-0.119-3.795,1.185c-0.357,1.421,0.711,2.487,1.54,1.896
	c0.95-0.713,3.562-0.829,3.562-0.829s-0.357,0.354-1.661,1.54c-1.307,1.065-4.631,4.027-6.41,2.252c-1.782-1.779,0-3.438,0.237-3.91
	c0.121-0.475,0-1.304-0.95-0.948c-1.069,0.235-2.015,1.421-3.559,0.473c-1.544-1.069-1.782-2.015-1.782-2.015
	c1.307-1.304,2.019-1.54,2.019-1.54c1.307-0.594,3.916,0.829,3.916,0.829c1.19-0.592,0.24-1.423,0.24-1.423
	c-1.901-1.658-0.832-3.435-0.832-3.435c1.426-1.542,3.562-1.186,4.752-0.238c1.065,0.829,4.51,3.554,4.51,3.554
	c-0.951,0.592-2.138,0.356-3.68-0.594c-1.426-0.829-2.019-0.237-2.373,0.711c-0.238,1.069,1.544,1.779,1.544,1.779l8.067,0.119
	C78.225,18.133,78.225,17.896,78.225,17.657L78.225,17.657z M2.015,62.571v-6.754h3.799c2.019,0,3.562-0.594,4.274-1.54
	c0.832-0.95,1.307-2.133,1.307-3.555c0-0.832-0.24-1.54-0.475-2.252c-0.357-0.711-0.711-1.304-1.186-1.661
	c-0.475-0.354-1.186-0.589-1.901-0.708c-0.471-0.121-1.186-0.24-2.255-0.24H0v16.71H2.015z M2.015,47.876h3.799
	c0.832,0,1.426,0,1.782,0.117c0.475,0.117,0.95,0.475,1.304,0.946c0.24,0.592,0.475,1.186,0.475,1.78
	c0,1.065-0.354,1.777-0.829,2.252C7.953,53.564,7.119,53.8,5.812,53.8H2.015V47.876z M12.344,62.571l1.661-5.096h6.171l1.782,5.096
	h2.255l-6.052-16.71h-2.136l-5.698,16.71H12.344z M16.26,50.839c0.357-1.069,0.594-2.133,0.715-3.198
	c0.237,0.946,0.594,2.015,1.065,3.435l1.544,4.624h-4.985L16.26,50.839z M29.556,62.571V47.876h4.866V45.86H22.788v2.015h4.866
	v14.695H29.556z M47.243,62.571v-2.015h-9.14v-5.686h8.19v-1.898h-8.19v-5.096h8.785V45.86H36.206v16.71H47.243z M51.399,62.571
	v-5.807l2.493-2.609l5.22,8.416h2.616l-6.532-9.957l6.292-6.754H58.76l-7.361,8.294V45.86h-1.898v16.71H51.399z M70.393,62.571
	v-6.754h3.799c2.136,0,3.676-0.594,4.391-1.54c0.829-0.95,1.307-2.133,1.307-3.555c0-0.832-0.24-1.54-0.478-2.252
	c-0.354-0.711-0.711-1.304-1.186-1.661c-0.594-0.354-1.186-0.589-1.898-0.708c-0.475-0.121-1.307-0.24-2.255-0.24h-5.698v16.71
	H70.393z M70.393,47.876h3.799c0.946,0,1.544,0,1.898,0.117c0.475,0.117,0.95,0.475,1.186,0.946c0.357,0.592,0.475,1.186,0.475,1.78
	c0,1.065-0.237,1.777-0.711,2.252c-0.594,0.592-1.544,0.829-2.73,0.829h-3.916C70.393,53.8,70.393,47.876,70.393,47.876z
	 M84.046,62.571v-7.942h7.832v7.942h1.898V45.86h-1.898v6.876h-7.832V45.86h-2.019v16.71H84.046z M99.12,62.571V45.86h-2.022v16.71
	H99.12z M111.466,62.571v-2.015h-7.361V45.86h-2.019v16.71H111.466z M115.857,62.571V45.86h-2.019v16.71H115.857z M120.963,62.571
	v-6.754h3.799c2.136,0,3.559-0.594,4.391-1.54c0.829-0.95,1.186-2.133,1.186-3.555c0-0.832-0.117-1.54-0.357-2.252
	c-0.354-0.711-0.711-1.304-1.304-1.661c-0.475-0.354-1.069-0.589-1.78-0.708c-0.594-0.121-1.307-0.24-2.255-0.24h-5.698v16.71
	H120.963z M120.963,47.876h3.799c0.95,0,1.544,0,1.898,0.117c0.475,0.117,0.832,0.475,1.186,0.946
	c0.357,0.592,0.475,1.186,0.475,1.78c0,1.065-0.237,1.777-0.829,2.252c-0.475,0.592-1.426,0.829-2.73,0.829h-3.799
	C120.963,53.8,120.963,47.876,120.963,47.876z M134.494,62.571v-6.754h3.916c2.019,0,3.562-0.594,4.394-1.54
	c0.711-0.95,1.186-2.133,1.186-3.555c0-0.832-0.117-1.54-0.475-2.252c-0.357-0.711-0.711-1.304-1.186-1.661
	c-0.475-0.354-1.069-0.589-1.901-0.708c-0.471-0.121-1.186-0.24-2.255-0.24h-5.581v16.71H134.494z M134.494,47.876h3.916
	c0.832,0,1.426,0,1.782,0.117c0.475,0.117,0.95,0.475,1.304,0.946c0.24,0.592,0.475,1.186,0.475,1.78
	c0,1.065-0.354,1.777-0.829,2.252c-0.594,0.592-1.426,0.829-2.733,0.829h-3.916v-5.925H134.494z M157.405,62.571v-2.015h-9.262
	v-5.686h8.311v-1.898h-8.311v-5.096h8.908V45.86h-10.923v16.71H157.405z"/>
</svg>
