<?xml version="1.0" encoding="utf-8"?><!DOCTYPE svg PUBLIC "-//W3C//DTD SVG 1.1//EN" "http://www.w3.org/Graphics/SVG/1.1/DTD/svg11.dtd"><svg version="1.1" baseProfile="full" xmlns="http://www.w3.org/2000/svg" xmlns:xlink="http://www.w3.org/1999/xlink" xmlns:ev="http://www.w3.org/2001/xml-events"   height="434px"   width="427px" ><path fill="rgb( 8, 161, 239 )" d="M382.655,155.332 C382.655,155.332 382.655,100.821 382.655,77.71 C367.468,92.7190000000001 321.925,137.721 298.34,161.027 C321.521,189.822 335.478,226.354 335.478,266.125 C335.478,358.693 260.225,434 167.739,434 C75.254,434 0,358.693 0,266.125 C0,173.557 75.254,98.25 167.739,98.25 C203.933,98.25 237.395,109.901 264.833,129.488 C288.149,106.986 335.004,61.7670000000001 351.008,46.3099999999999 C326.591,46.3099999999999 267.169,46.3099999999999 267.169,46.3099999999999 C267.169,46.3099999999999 267.169,0 267.169,0 C267.169,0 419.288,0 419.288,0 C419.288,0 427,0 427,0 C427,0 427,155.332 427,155.332 C427,155.332 382.655,155.332 382.655,155.332 ZM46.273,266.125 C46.273,333.156 100.77,387.69 167.739,387.69 C234.708,387.69 289.206,333.156 289.206,266.125 C289.206,199.094 234.708,144.561 167.739,144.561 C100.77,144.561 46.273,199.094 46.273,266.125 Z "/></svg>