<?xml version="1.0" encoding="utf-8"?>
<!-- Generator: Adobe Illustrator 17.0.0, SVG Export Plug-In . SVG Version: 6.00 Build 0)  -->
<!DOCTYPE svg PUBLIC "-//W3C//DTD SVG 1.1//EN" "http://www.w3.org/Graphics/SVG/1.1/DTD/svg11.dtd">
<svg version="1.1" id="图层_1" xmlns="http://www.w3.org/2000/svg" xmlns:xlink="http://www.w3.org/1999/xlink" x="0px" y="0px"
	 width="199.817px" height="87.456px" viewBox="0 0 199.817 87.456" enable-background="new 0 0 199.817 87.456"
	 xml:space="preserve">
<path fill="#0C0C0C" d="M108.132,25.57c-0.585,0.861-1.508,0.93-1.508,0.93H83.702v-4.156h24.932
	C108.634,22.343,108.714,24.711,108.132,25.57z M147.829,27.414c0.861-0.585,0.93-1.508,0.93-1.508V0.328h-4.156v27.587
	C144.602,27.916,146.969,27.997,147.829,27.414z M153.702,30.082h-7.982h-10.277h-7.981c0,0-0.081,2.367,0.503,3.226
	c0.584,0.861,1.507,0.93,1.507,0.93h5.972h10.277h5.973c0,0,0.922-0.068,1.507-0.93C153.782,32.449,153.702,30.082,153.702,30.082z
	 M79.874,30.082H69.262V4.156h10.611V0h-33.91v4.156h10.5v25.925h-10.5v4.156h31.9c0,0,0.922-0.068,1.506-0.93
	C79.954,32.449,79.874,30.082,79.874,30.082z M60.73,4.156h4.267v25.925H60.73V4.156z M53.62,26.5h-4.512L47.139,8.779h4.512
	L53.62,26.5z M77.631,23.081c-0.13,1.003-0.82,3.419-0.82,3.419h-4.595c0,0,0.744-3.27,0.889-4.39
	c0.43-3.311,1.409-13.331,1.409-13.331h4.595C79.108,8.779,78.075,19.652,77.631,23.081z M126.554,8.82
	c-0.621-0.556-1.21-0.534-1.21-0.534h-4.451v4.677h2.215v21.275h1.969c0,0,1.04-0.137,1.58-0.93c0.488-0.717,0.8-2.276,0.8-2.276
	v-18.07v-2.338C127.457,10.625,127.58,9.736,126.554,8.82z M116.741,17.14c-0.237-1.377-1.43-2.428-2.875-2.428h-0.926l2.566-11.431
	c0,0,0.301-1.463-0.902-2.775c-0.237-0.259-0.686-0.432-1.176-0.506H84.85v4.156h25.566l-2.369,10.556H91.516l0.478-1.711
	l1.538-5.494h-5.169l-2.032,7.264c-0.144,0.344-0.224,0.721-0.224,1.118c0,1.616,1.311,2.926,2.926,2.926h0.643h1.928h16.456h0.559
	h1.397c1.049,0,1.955,0.755,2.14,1.751l0,0v9.215H92.959v3.897h21.515c1.281,0,2.318-1.037,2.318-2.317V17.619
	C116.792,17.455,116.774,17.295,116.741,17.14z M125.183,0.328h-3.411c-0.535,0.474-0.879,1.158-0.879,1.928
	c0,1.428,1.157,2.584,2.584,2.584c1.428,0,2.585-1.157,2.585-2.584C126.062,1.486,125.718,0.802,125.183,0.328z M140.058,4.012
	c0.075-0.091,0.143-0.187,0.204-0.29L140.058,4.012z M140.581,2.585c0-1.246-1.01-2.256-2.256-2.256h-1.242h-1.354h-6.904V3.5h4.846
	h1.771l-0.756,1.073l-2.252,3.193v4.486h-3.337v3.719h3.337v3.854V23.6v0.849h-2.804v3.938h3.473c1.321,0,2.394-1.072,2.394-2.393
	V15.971h2.57v-3.719h-2.57v-2.038l4.562-6.202c0.075-0.091,0.143-0.187,0.204-0.29l0.156-0.223h-0.035
	C140.509,3.22,140.581,2.911,140.581,2.585z M141.971,25.023h-2.781l1.072-17.475h2.783L141.971,25.023z M151.502,25.023h2.782
	l-1.072-17.475h-2.783L151.502,25.023z M98.077,45.656h-9.508v-5.364h17.734V45.1L97.25,58.092c0,0,3.68,0.268,5.184,0.678
	c1.958,0.533,4.566,1.832,4.566,1.832l-0.06,5.365c0,0-6.065-2.029-9.483-2.029c-4.075,0-9.545,2.133-9.545,2.133v-5.852
	L98.077,45.656z M159.145,62.392c1.258,0,2.277,1.019,2.277,2.277c0,1.258-1.019,2.277-2.277,2.277s-2.277-1.019-2.277-2.277
	S157.887,62.392,159.145,62.392z M23.124,62.39l-2.43-2.429V48.185v-2.898c-0.109-3.062-5.335-5.825-9.53-5.825
	c-5.748,0-10.418,3.88-10.606,8.724h6.13c0.511-1.953,2.036-3.385,4.081-3.385c2.044,0,3.555,1.334,3.637,3.385v2.357H9.154v0.01
	c-1.213,0.029-2.456,0.289-3.656,0.818c-4.484,1.981-6.665,6.885-4.868,10.951c1.797,4.064,6.889,5.757,11.373,3.775
	c1.227-0.541,2.273-1.307,3.121-2.209l3.25,3.252L23.124,62.39z M7.993,61.111c-1.428-1.41-1.07-4.088,0.798-5.979
	c0.435-0.439,1.17-1.04,1.908-1.067h3.706v5.675c-0.139,0.172-0.283,0.342-0.443,0.504C12.093,62.132,9.421,62.522,7.993,61.111z
	 M85.671,62.39l-2.43-2.429V48.185v-2.898c-0.109-3.062-5.336-5.825-9.53-5.825c-5.748,0-10.418,3.88-10.606,8.724h6.13
	c0.511-1.953,2.036-3.385,4.081-3.385c2.044,0,3.555,1.334,3.637,3.385v2.357h-5.251v0.01c-1.213,0.029-2.456,0.289-3.656,0.818
	c-4.484,1.981-6.665,6.885-4.868,10.951c1.797,4.064,6.889,5.757,11.373,3.775c1.226-0.541,2.273-1.307,3.12-2.209l3.251,3.252
	L85.671,62.39z M70.54,61.111c-1.428-1.41-1.07-4.088,0.798-5.979c0.435-0.439,1.17-1.04,1.908-1.067h3.706v5.675
	c-0.139,0.172-0.283,0.342-0.443,0.504C74.639,62.132,71.968,62.522,70.54,61.111z M58.085,46.619v0.072
	c0.008,0.062,0.017,0.121,0.024,0.184C58.099,46.791,58.096,46.701,58.085,46.619z M51.268,39.544c-2.707,0-5.051,1.683-6.216,4.923
	c-1.165-3.24-3.509-4.923-6.216-4.923c-2.71,0-5.056,2.224-6.219,5.472v-4.724H26.3V67.14h6.317V49.894
	c0-2.174,1.907-3.746,3.73-3.705c1.059,0.023,2.801,1.668,2.801,2.871v18.08h6.316V52.871c0-1.309-0.004-3.528-0.009-3.674
	c0.144-1.49,1.929-2.946,3.46-2.926c1.32,0.018,2.816,1.67,2.851,3.035V67.14h6.317V51.908v-5.217
	C57.547,42.558,55.686,39.544,51.268,39.544z M58.109,46.875c0.04,0.35,0.077,0.703,0.102,1.066
	C58.186,47.578,58.151,47.224,58.109,46.875z M166.106,46.619v0.072c0.009,0.062,0.018,0.121,0.025,0.184
	C166.122,46.791,166.118,46.701,166.106,46.619z M146.86,39.544c-2.711,0-5.057,2.224-6.22,5.472v-4.724h-6.317V67.14h6.317V49.894
	c0-2.174,1.907-3.746,3.731-3.705c1.059,0.023,2.799,1.668,2.799,2.871v18.08h6.09V45.676
	C153.26,41.902,149.567,39.544,146.86,39.544z M166.132,46.875c0.041,0.35,0.078,0.703,0.102,1.066
	C166.21,47.578,166.174,47.224,166.132,46.875z M119.964,39.513c-6.041,0-10.938,6.238-10.938,13.935
	c0,7.695,4.897,13.934,10.938,13.934s10.939-6.238,10.939-13.934S126.005,39.513,119.964,39.513z M123.369,58.48
	c0,1.813-1.47,3.281-3.282,3.281h-0.246c-1.813,0-3.281-1.469-3.281-3.281V48.416c0-1.813,1.469-3.281,3.281-3.281h0.246
	c1.812,0,3.282,1.469,3.282,3.281V58.48z M176.7,57.265c-0.67,4.254-2.633,6.727-5.282,6.727c-3.3,0-5.974-4.55-5.974-10.164
	c0-5.613,2.674-10.164,5.974-10.164c2.626,0,4.576,2.043,5.263,6.382h3.602c-0.584-6.495-2.997-9.845-8.988-9.845
	c-5.377,0-9.736,4.32-9.736,13.469c0,9.557,4.359,13.471,9.736,13.471c5.453,0,8.299-2.967,8.977-9.875L176.7,57.265L176.7,57.265z
	 M192.76,40.295c-3.503,0-5.615,1.653-6.781,4.219v-3.712h-3.282v25.87h3.282V51.774c-0.082-4.025,3.309-7.827,6.453-7.882
	c1.941-0.033,3.856,2.215,3.883,3.848v20.29h3.502V53.081V46.18C199.817,46.179,199.023,40.295,192.76,40.295z"/>
<path fill="#F59328" d="M23.124,69.461c0,0,16.956,10.61,39.424,10.938c22.467,0.328,30.562-6.453,32.64-7
	c2.079-0.547,1.423,1.859,0,3.062c-1.422,1.203-20.783,11.267-35.879,9.735c-15.095-1.531-29.104-7.663-36.646-14.985
	C20.702,68.586,23.124,69.461,23.124,69.461z M89.171,71.431c0,0,9.299-1.861,10.064,0c0.766,1.859-1.728,8.423-2.724,10.282
	c-0.784,1.292,1.083,1.641,1.849,0.656c0.766-0.984,5.031-6.454,4.703-12.36c0.109-1.969-1.504-2.627-4.375-2.627
	c-1.754,0-7.985,1.205-10.174,2.518C87.858,70.447,87.667,71.731,89.171,71.431z"/>
</svg>
