<?xml version="1.0" encoding="iso-8859-1"?>
<!-- Generator: Adobe Illustrator 17.0.0, SVG Export Plug-In . SVG Version: 6.00 Build 0)  -->
<!DOCTYPE svg PUBLIC "-//W3C//DTD SVG 1.1//EN" "http://www.w3.org/Graphics/SVG/1.1/DTD/svg11.dtd">
<svg version="1.1" xmlns="http://www.w3.org/2000/svg" xmlns:xlink="http://www.w3.org/1999/xlink" x="0px" y="0px" width="64px"
	 height="64px" viewBox="0 0 64 64" style="enable-background:new 0 0 64 64;" xml:space="preserve">
<g id="Layer_1">
	<g>
		<circle style="fill:#E0E0D1;" cx="32" cy="32" r="32"/>
	</g>
	<g style="opacity:0.2;">
		<path style="fill:#231F20;" d="M49,26H15c-1.657,0-3,1.343-3,3l4,18c0,1.657,1.343,3,3,3h26c1.657,0,3-1.343,3-3l4-18
			C52,27.343,50.657,26,49,26z M24,45c0,1.105-0.895,2-2,2s-2-0.895-2-2v-6c0-1.105,0.895-2,2-2s2,0.895,2,2V45z M34,45
			c0,1.105-0.895,2-2,2s-2-0.895-2-2v-6c0-1.105,0.895-2,2-2s2,0.895,2,2V45z M44,45c0,1.105-0.895,2-2,2s-2-0.895-2-2v-6
			c0-1.105,0.895-2,2-2s2,0.895,2,2V45z"/>
	</g>
	<g>
		<path style="fill:#E0995E;" d="M49,24H15c-1.657,0-3,1.343-3,3l4,18c0,1.657,1.343,3,3,3h26c1.657,0,3-1.343,3-3l4-18
			C52,25.343,50.657,24,49,24z M24,43c0,1.105-0.895,2-2,2s-2-0.895-2-2v-6c0-1.105,0.895-2,2-2s2,0.895,2,2V43z M34,43
			c0,1.105-0.895,2-2,2s-2-0.895-2-2v-6c0-1.105,0.895-2,2-2s2,0.895,2,2V43z M44,43c0,1.105-0.895,2-2,2s-2-0.895-2-2v-6
			c0-1.105,0.895-2,2-2s2,0.895,2,2V43z"/>
	</g>
	<g style="opacity:0.2;">
		<path style="fill:#231F20;" d="M56,28c0,1.105-0.895,2-2,2H10c-1.105,0-2-0.895-2-2l0,0c0-1.105,0.895-2,2-2h44
			C55.105,26,56,26.895,56,28L56,28z"/>
	</g>
	<g>
		<path style="fill:#E0995E;" d="M56,26c0,1.105-0.895,2-2,2H10c-1.105,0-2-0.895-2-2l0,0c0-1.105,0.895-2,2-2h44
			C55.105,24,56,24.895,56,26L56,26z"/>
	</g>
	<g style="opacity:0.2;">
		<path style="fill:#231F20;" d="M42.828,15.172c0.781,0.781,0.781,2.047,0,2.828L31.414,33.414c-0.781,0.781-2.047,0.781-2.828,0
			l0,0c-0.781-0.781-0.781-2.047,0-2.828L40,15.172C40.781,14.391,42.047,14.391,42.828,15.172L42.828,15.172z"/>
	</g>
	<g>
		<path style="fill:#4F5D73;" d="M42.828,13.172c0.781,0.781,0.781,2.047,0,2.828L31.414,31.414c-0.781,0.781-2.047,0.781-2.828,0
			l0,0c-0.781-0.781-0.781-2.047,0-2.828L40,13.172C40.781,12.391,42.047,12.391,42.828,13.172L42.828,13.172z"/>
	</g>
</g>
<g id="Layer_2">
</g>
</svg>
