<?xml version="1.0" encoding="iso-8859-1"?>
<!-- Generator: Adobe Illustrator 17.0.0, SVG Export Plug-In . SVG Version: 6.00 Build 0)  -->
<!DOCTYPE svg PUBLIC "-//W3C//DTD SVG 1.1//EN" "http://www.w3.org/Graphics/SVG/1.1/DTD/svg11.dtd">
<svg version="1.1" xmlns="http://www.w3.org/2000/svg" xmlns:xlink="http://www.w3.org/1999/xlink" x="0px" y="0px"
	 width="108.278px" height="45px" viewBox="0 0 108.278 45" style="enable-background:new 0 0 108.278 45;" xml:space="preserve">
<g id="pyramids">
</g>
<g id="san_franciso_bridge">
	<rect x="12.743" y="26.243" style="fill:#F2444D;" width="84.599" height="3.189"/>
	<g>
		<defs>
			<path id="SVGID_1_" d="M55.043,22C30.344,22,9.361,12.179,1.679-1.5C-0.344,2.103-1.457,5.97-1.457,10c0,19.33,25.296,35,56.5,35
				s56.5-15.67,56.5-35c0-4.03-1.113-7.897-3.137-11.5C100.724,12.179,79.741,22,55.043,22z"/>
		</defs>
		<clipPath id="SVGID_2_">
			<use xlink:href="#SVGID_1_"  style="overflow:visible;"/>
		</clipPath>
		<g style="clip-path:url(#SVGID_2_);">
			<g>
				<path style="fill:#F2444D;" d="M13.036,28.104c-0.147,0-0.266-0.119-0.266-0.266V-2.992c0-0.147,0.119-0.266,0.266-0.266
					c0.147,0,0.266,0.119,0.266,0.266v30.829C13.302,27.984,13.183,28.104,13.036,28.104z"/>
				<path style="fill:#F2444D;" d="M15.036,28.079c-0.147,0-0.266-0.119-0.266-0.266v-30.83c0-0.147,0.119-0.266,0.266-0.266
					c0.147,0,0.266,0.119,0.266,0.266v30.83C15.302,27.959,15.183,28.079,15.036,28.079z"/>
				<path style="fill:#F2444D;" d="M17.036,28.053c-0.146,0-0.266-0.119-0.266-0.266V-3.042c0-0.148,0.12-0.266,0.266-0.266
					c0.147,0,0.266,0.119,0.266,0.266v30.829C17.302,27.934,17.183,28.053,17.036,28.053z"/>
				<path style="fill:#F2444D;" d="M19.037,28.027c-0.148,0-0.266-0.119-0.266-0.266V-3.068c0-0.147,0.119-0.266,0.266-0.266
					c0.146,0,0.266,0.119,0.266,0.266v30.829C19.302,27.908,19.183,28.027,19.037,28.027z"/>
				<path style="fill:#F2444D;" d="M21.037,28.002c-0.148,0-0.266-0.119-0.266-0.266v-30.83c0-0.146,0.119-0.266,0.266-0.266
					c0.147,0,0.266,0.12,0.266,0.266v30.83C21.303,27.883,21.184,28.002,21.037,28.002z"/>
				<path style="fill:#F2444D;" d="M23.038,27.977c-0.147,0-0.266-0.119-0.266-0.266V-3.118c0-0.147,0.119-0.267,0.266-0.267
					s0.266,0.119,0.266,0.267v30.829C23.303,27.858,23.185,27.977,23.038,27.977z"/>
				<path style="fill:#F2444D;" d="M25.038,27.951c-0.147,0-0.266-0.119-0.266-0.266V-3.144c0-0.147,0.119-0.266,0.266-0.266
					s0.266,0.119,0.266,0.266v30.829C25.303,27.833,25.185,27.951,25.038,27.951z"/>
				<path style="fill:#F2444D;" d="M27.038,27.926c-0.147,0-0.267-0.12-0.267-0.267V-3.169c0-0.147,0.12-0.266,0.267-0.266
					c0.146,0,0.265,0.12,0.265,0.266V27.66C27.303,27.807,27.185,27.926,27.038,27.926z"/>
				<path style="fill:#F2444D;" d="M29.039,27.901c-0.147,0-0.266-0.12-0.266-0.267V-3.194c0-0.148,0.119-0.266,0.266-0.266
					c0.146,0,0.266,0.119,0.266,0.266v30.829C29.304,27.782,29.185,27.901,29.039,27.901z"/>
				<path style="fill:#F2444D;" d="M31.039,27.876c-0.147,0-0.266-0.119-0.266-0.266v-30.83c0-0.147,0.119-0.266,0.266-0.266
					c0.147,0,0.265,0.119,0.265,0.266v30.83C31.304,27.757,31.186,27.876,31.039,27.876z"/>
				<path style="fill:#F2444D;" d="M33.039,27.851c-0.147,0-0.266-0.119-0.266-0.266v-30.83c0-0.146,0.119-0.266,0.266-0.266
					c0.147,0,0.266,0.119,0.266,0.266v30.83C33.305,27.731,33.186,27.851,33.039,27.851z"/>
				<path style="fill:#F2444D;" d="M35.039,27.825c-0.147,0-0.266-0.119-0.266-0.267V-3.27c0-0.147,0.119-0.266,0.266-0.266
					c0.147,0,0.266,0.119,0.266,0.266v30.829C35.305,27.706,35.186,27.825,35.039,27.825z"/>
				<path style="fill:#F2444D;" d="M37.04,27.8c-0.147,0-0.267-0.119-0.267-0.266v-30.83c0-0.147,0.12-0.266,0.267-0.266
					c0.147,0,0.265,0.119,0.265,0.266v30.83C37.305,27.681,37.187,27.8,37.04,27.8z"/>
				<path style="fill:#F2444D;" d="M39.041,27.774c-0.147,0-0.266-0.119-0.266-0.266v-30.83c0-0.146,0.119-0.266,0.266-0.266
					c0.146,0,0.266,0.12,0.266,0.266v30.83C39.306,27.656,39.187,27.774,39.041,27.774z"/>
				<path style="fill:#F2444D;" d="M41.041,27.749c-0.146,0-0.266-0.119-0.266-0.266V-3.346c0-0.148,0.12-0.267,0.266-0.267
					s0.266,0.119,0.266,0.267v30.829C41.306,27.63,41.187,27.749,41.041,27.749z"/>
				<path style="fill:#F2444D;" d="M43.041,27.724c-0.147,0-0.266-0.119-0.266-0.266V-3.372c0-0.147,0.119-0.266,0.266-0.266
					c0.147,0,0.266,0.119,0.266,0.266v30.829C43.306,27.604,43.188,27.724,43.041,27.724z"/>
				<path style="fill:#F2444D;" d="M45.042,27.698c-0.147,0-0.267-0.119-0.267-0.266V-3.397c0-0.147,0.119-0.267,0.267-0.267
					c0.146,0,0.265,0.119,0.265,0.267v30.829C45.307,27.579,45.188,27.698,45.042,27.698z"/>
				<path style="fill:#F2444D;" d="M47.042,27.673c-0.146,0-0.266-0.119-0.266-0.266V-3.422c0-0.146,0.119-0.266,0.266-0.266
					c0.147,0,0.266,0.12,0.266,0.266v30.829C47.308,27.554,47.189,27.673,47.042,27.673z"/>
				<path style="fill:#F2444D;" d="M49.042,27.648c-0.146,0-0.266-0.12-0.266-0.267V-3.447c0-0.147,0.119-0.266,0.266-0.266
					c0.147,0,0.266,0.119,0.266,0.266v30.829C49.308,27.529,49.189,27.648,49.042,27.648z"/>
				<path style="fill:#F2444D;" d="M51.042,27.623c-0.146,0-0.266-0.12-0.266-0.266V-3.473c0-0.147,0.119-0.267,0.266-0.267
					c0.147,0,0.266,0.12,0.266,0.267v30.829C51.307,27.503,51.189,27.623,51.042,27.623z"/>
				<path style="fill:#F2444D;" d="M53.043,27.598c-0.147,0-0.266-0.119-0.266-0.267V-3.498c0-0.147,0.119-0.266,0.266-0.266
					c0.146,0,0.266,0.119,0.266,0.266v30.829C53.308,27.479,53.189,27.598,53.043,27.598z"/>
				<path style="fill:#F2444D;" d="M55.044,27.572c-0.147,0-0.267-0.119-0.267-0.266V-3.523c0-0.147,0.119-0.266,0.267-0.266
					c0.146,0,0.266,0.119,0.266,0.266v30.829C55.309,27.453,55.19,27.572,55.044,27.572z"/>
				<path style="fill:#F2444D;" d="M57.044,27.547c-0.147,0-0.267-0.119-0.267-0.267V-3.549c0-0.147,0.12-0.266,0.267-0.266
					c0.146,0,0.265,0.119,0.265,0.266V27.28C57.309,27.428,57.19,27.547,57.044,27.547z"/>
				<path style="fill:#F2444D;" d="M59.044,27.521c-0.147,0-0.266-0.119-0.266-0.267V-3.574c0-0.147,0.119-0.266,0.266-0.266
					c0.146,0,0.266,0.119,0.266,0.266v30.829C59.309,27.402,59.19,27.521,59.044,27.521z"/>
				<path style="fill:#F2444D;" d="M61.044,27.496c-0.146,0-0.266-0.119-0.266-0.267V-3.599c0-0.148,0.119-0.267,0.266-0.267
					c0.147,0,0.266,0.119,0.266,0.267v30.828C61.309,27.377,61.191,27.496,61.044,27.496z"/>
				<path style="fill:#F2444D;" d="M63.045,27.471c-0.147,0-0.266-0.119-0.266-0.267V-3.625c0-0.147,0.119-0.266,0.266-0.266
					c0.146,0,0.266,0.119,0.266,0.266v30.829C63.31,27.352,63.191,27.471,63.045,27.471z"/>
				<path style="fill:#F2444D;" d="M65.045,27.445c-0.146,0-0.266-0.119-0.266-0.266V-3.65c0-0.147,0.119-0.266,0.266-0.266
					S65.31-3.797,65.31-3.65v30.83C65.31,27.326,65.191,27.445,65.045,27.445z"/>
				<path style="fill:#F2444D;" d="M67.046,27.42c-0.147,0-0.267-0.119-0.267-0.266V-3.675c0-0.148,0.119-0.266,0.267-0.266
					c0.146,0,0.266,0.119,0.266,0.266v30.829C67.311,27.301,67.192,27.42,67.046,27.42z"/>
				<path style="fill:#F2444D;" d="M69.046,27.395c-0.147,0-0.266-0.119-0.266-0.266V-3.7c0-0.148,0.119-0.267,0.266-0.267
					c0.146,0,0.266,0.119,0.266,0.267v30.829C69.311,27.275,69.192,27.395,69.046,27.395z"/>
				<path style="fill:#F2444D;" d="M71.046,27.369c-0.147,0-0.266-0.119-0.266-0.266V-3.726c0-0.147,0.119-0.267,0.266-0.267
					c0.146,0,0.265,0.12,0.265,0.267v30.829C71.311,27.25,71.193,27.369,71.046,27.369z"/>
				<path style="fill:#F2444D;" d="M73.046,27.344c-0.147,0-0.266-0.119-0.266-0.266V-3.751c0-0.147,0.119-0.266,0.266-0.266
					c0.147,0,0.266,0.119,0.266,0.266v30.829C73.312,27.225,73.193,27.344,73.046,27.344z"/>
				<path style="fill:#F2444D;" d="M75.047,27.319c-0.146,0-0.266-0.119-0.266-0.266V-3.776c0-0.147,0.119-0.266,0.266-0.266
					s0.266,0.119,0.266,0.266v30.829C75.312,27.2,75.193,27.319,75.047,27.319z"/>
				<path style="fill:#F2444D;" d="M77.047,27.294c-0.146,0-0.266-0.119-0.266-0.266V-3.802c0-0.146,0.119-0.266,0.266-0.266
					c0.147,0,0.266,0.119,0.266,0.266v30.829C77.313,27.174,77.194,27.294,77.047,27.294z"/>
				<path style="fill:#F2444D;" d="M79.048,27.268c-0.147,0-0.266-0.119-0.266-0.266V-3.827c0-0.147,0.119-0.266,0.266-0.266
					c0.146,0,0.265,0.119,0.265,0.266v30.829C79.313,27.149,79.194,27.268,79.048,27.268z"/>
				<path style="fill:#F2444D;" d="M81.048,27.243c-0.146,0-0.266-0.119-0.266-0.266V-3.852c0-0.147,0.12-0.267,0.266-0.267
					c0.147,0,0.266,0.12,0.266,0.267v30.829C81.314,27.124,81.194,27.243,81.048,27.243z"/>
				<path style="fill:#F2444D;" d="M83.048,27.218c-0.147,0-0.266-0.119-0.266-0.267V-3.878c0-0.147,0.119-0.266,0.266-0.266
					c0.147,0,0.266,0.119,0.266,0.266v30.829C83.314,27.099,83.195,27.218,83.048,27.218z"/>
				<path style="fill:#F2444D;" d="M85.049,27.192c-0.147,0-0.266-0.119-0.266-0.267V-3.903c0-0.147,0.119-0.266,0.266-0.266
					c0.147,0,0.265,0.119,0.265,0.266v30.829C85.314,27.073,85.195,27.192,85.049,27.192z"/>
				<path style="fill:#F2444D;" d="M87.049,27.167c-0.147,0-0.266-0.119-0.266-0.266v-30.83c0-0.147,0.119-0.266,0.266-0.266
					c0.146,0,0.265,0.119,0.265,0.266v30.83C87.314,27.048,87.196,27.167,87.049,27.167z"/>
				<path style="fill:#F2444D;" d="M89.049,27.142c-0.147,0-0.266-0.12-0.266-0.266V-3.953c0-0.147,0.119-0.266,0.266-0.266
					c0.147,0,0.266,0.119,0.266,0.266v30.829C89.315,27.022,89.196,27.142,89.049,27.142z"/>
				<path style="fill:#F2444D;" d="M91.05,27.117c-0.147,0-0.266-0.12-0.266-0.266V-3.978c0-0.148,0.119-0.266,0.266-0.266
					c0.147,0,0.266,0.119,0.266,0.266v30.829C91.315,26.997,91.196,27.117,91.05,27.117z"/>
				<path style="fill:#F2444D;" d="M93.05,27.091c-0.147,0-0.266-0.12-0.266-0.266v-30.83c0-0.147,0.119-0.266,0.266-0.266
					s0.266,0.12,0.266,0.266v30.83C93.315,26.972,93.197,27.091,93.05,27.091z"/>
				<path style="fill:#F2444D;" d="M95.051,27.066c-0.147,0-0.266-0.119-0.266-0.266V-4.029c0-0.147,0.119-0.266,0.266-0.266
					c0.146,0,0.266,0.119,0.266,0.266V26.8C95.316,26.947,95.197,27.066,95.051,27.066z"/>
				<path style="fill:#F2444D;" d="M97.051,27.041c-0.147,0-0.266-0.119-0.266-0.266V-4.055c0-0.147,0.119-0.266,0.266-0.266
					c0.147,0,0.266,0.119,0.266,0.266v30.829C97.316,26.921,97.197,27.041,97.051,27.041z"/>
			</g>
		</g>
	</g>
	<rect x="12.743" y="28.432" style="opacity:0.9;fill:#BEC4B4;" width="84.599" height="1"/>
	<path style="opacity:0.05;" d="M109.278,40c0,2.485-24.027,4.7-53.666,4.7S1.946,42.485,1.946,40s24.027-4.5,53.666-4.5
		S109.278,37.515,109.278,40z"/>
	<g>
		<rect x="84.612" y="13.432" style="fill:#F2444D;" width="7" height="24"/>
		<rect x="81.612" y="35" style="fill:#B5B0A5;" width="13" height="4"/>
		<rect x="85.612" y="7" style="fill:#F2444D;" width="5" height="20"/>
		<rect x="86.612" style="fill:#F2444D;" width="3" height="30"/>
		<rect x="85.612" y="12" style="opacity:0.9;fill:#BEC4B4;" width="5" height="1"/>
		<rect x="86.612" y="5.833" style="opacity:0.9;fill:#BEC4B4;" width="3" height="1"/>
		<rect x="87.612" y="5.834" style="fill:#BEC4B4;" width="1" height="27.974"/>
		<rect x="85.612" y="7" style="opacity:0.9;fill:#BEC4B4;" width="1" height="6"/>
		<rect x="86.612" style="opacity:0.9;fill:#BEC4B4;" width="1" height="13"/>
		<polygon style="opacity:0.9;fill:#BEC4B4;" points="87.612,33.932 87.612,12.932 85.612,12.932 85.612,13.432 84.612,13.432 
			84.612,33.932 84.612,34.932 85.612,34.932 87.612,34.932 91.612,34.932 91.612,33.932 		"/>
		<rect x="81.612" y="38" style="opacity:0.9;fill:#BEC4B4;" width="13" height="1"/>
	</g>
	<g>
		<rect x="18.612" y="13.432" style="fill:#F2444D;" width="7" height="24"/>
		<rect x="15.613" y="35" style="fill:#B5B0A5;" width="13" height="4"/>
		<rect x="19.612" y="7" style="fill:#F2444D;" width="5" height="20"/>
		<rect x="20.612" style="fill:#F2444D;" width="3" height="30"/>
		<rect x="19.612" y="12" style="opacity:0.9;fill:#BEC4B4;" width="5" height="1"/>
		<rect x="20.612" y="5.833" style="opacity:0.9;fill:#BEC4B4;" width="3" height="1"/>
		<rect x="21.612" y="5.834" style="fill:#BEC4B4;" width="1" height="27.974"/>
		<rect x="19.612" y="7" style="opacity:0.9;fill:#BEC4B4;" width="1" height="6"/>
		<rect x="20.612" style="opacity:0.9;fill:#BEC4B4;" width="1" height="13"/>
		<polygon style="opacity:0.9;fill:#BEC4B4;" points="21.612,33.932 21.612,12.932 19.612,12.932 19.612,13.432 18.612,13.432 
			18.612,33.932 18.612,34.932 19.612,34.932 21.612,34.932 25.612,34.932 25.612,33.932 		"/>
		<rect x="15.613" y="38" style="opacity:0.9;fill:#BEC4B4;" width="13" height="1"/>
	</g>
	<path style="opacity:0.6;fill:none;stroke:#BEC4B4;stroke-width:0.5;stroke-miterlimit:10;" d="M73.374,39.1"/>
</g>
<g id="easter_island">
</g>
<g id="taj_mahal">
</g>
<g id="christ_the_redeemer">
</g>
<g id="windmill">
</g>
<g id="aztec_temple">
</g>
<g id="colosseum_1_">
</g>
<g id="stone_henge">
</g>
<g id="big_ben">
</g>
<g id="sydney_opera_house">
</g>
<g id="eiffel_tower">
</g>
</svg>
