<?xml version="1.0" encoding="iso-8859-1"?>
<!-- Generator: Adobe Illustrator 17.0.0, SVG Export Plug-In . SVG Version: 6.00 Build 0)  -->
<!DOCTYPE svg PUBLIC "-//W3C//DTD SVG 1.1//EN" "http://www.w3.org/Graphics/SVG/1.1/DTD/svg11.dtd">
<svg version="1.1" id="Object" xmlns="http://www.w3.org/2000/svg" xmlns:xlink="http://www.w3.org/1999/xlink" x="0px" y="0px"
	 width="271.927px" height="213.431px" viewBox="0 0 271.927 213.431" style="enable-background:new 0 0 271.927 213.431;"
	 xml:space="preserve">
<g>
	<path style="fill:#222720;" d="M171.334,73.441h-38.509c-8.25,0-14.937,6.688-14.937,14.938v24.401
		c0,8.249,6.687,14.937,14.937,14.937h38.509c8.249,0,14.936-6.688,14.936-14.937V88.378
		C186.27,80.128,179.583,73.441,171.334,73.441z"/>
	<path style="fill:#333E48;" d="M171.334,73.441h-4.282c8.249,0,14.937,6.688,14.937,14.938v24.401
		c0,8.249-6.688,14.937-14.937,14.937h4.282c8.249,0,14.936-6.688,14.936-14.937V88.378
		C186.27,80.128,179.583,73.441,171.334,73.441z"/>
	<path style="fill:#222720;" d="M169.099,175.836h-57.938c-3.258,0-5.898-2.641-5.898-5.899l0,0c0-3.258,2.641-5.898,5.898-5.898
		h57.938c3.258,0,5.898,2.641,5.898,5.898l0,0C174.997,173.195,172.356,175.836,169.099,175.836z"/>
	<rect x="78.102" y="130.601" style="fill:#222720;" width="7.627" height="82.83"/>
	<rect x="137.466" y="64.064" style="fill:#FFD0B8;" width="14.845" height="13.629"/>
	<path style="fill:#FFFFFF;" d="M125.881,85.452c-6.897,1.394-13.292,1.442-17.254,0.864c-2.214-0.323-3.474-2.719-2.484-4.725
		c1.735-3.517,5.945-9.714,16.123-19.697l-10.71-10.919C98.64,63.645,84.67,79.802,91.35,92.401
		c3.358,6.332,10.876,9.539,22.359,9.539c0.317,0,0.639-0.003,0.962-0.008c7.343-0.11,13.96-1.432,14.238-1.488L125.881,85.452z"/>
	<path style="fill:#FFD0B8;" d="M129.745,43.645L129.745,43.645c-2.998-2.998-7.859-2.998-10.858,0l-7.331,7.331l10.71,10.919
		l7.48-7.392C132.744,51.504,132.744,46.643,129.745,43.645z"/>
	<path style="fill:#FFFFFF;" d="M132.102,76.615h23.69c10.607,0,19.205,8.599,19.205,19.206v19.85v22.57h-62.102v-22.57v-19.85
		C112.896,85.214,121.494,76.615,132.102,76.615z"/>
	<path style="fill:#333E48;" d="M141.09,83.366l-0.775-0.563c-0.601-0.437-0.853-1.211-0.623-1.918l1.002-3.084
		c0.23-0.707,0.889-1.186,1.632-1.186h3.243c0.743,0,1.401,0.479,1.632,1.186l1.002,3.084c0.23,0.707-0.022,1.481-0.624,1.918
		l-0.774,0.563l1.574,47.12c0.036,1.079-0.443,2.111-1.291,2.78l-0.688,0.542c-1.438,1.134-3.466,1.134-4.903,0l-0.688-0.542
		c-0.848-0.669-1.327-1.701-1.291-2.78L141.09,83.366z"/>
	<rect x="0" y="115.671" style="fill:#9C552A;" width="190.095" height="14.93"/>
	<rect x="190.012" y="115.671" style="fill:#89431C;" width="81.915" height="14.93"/>
	<rect x="6.722" y="130.601" style="fill:#222720;" width="7.626" height="82.83"/>
	<rect x="257.579" y="130.601" style="fill:#222720;" width="7.627" height="82.83"/>
	<path style="fill:#003D55;" d="M86.021,138.241c-9.319,0-16.873,7.555-16.873,16.873v45.045
		c-5.957,1.478-10.373,6.857-10.373,13.271l0,0h30.699v-49.393h44.564c8.023,0,14.528-6.505,14.528-14.528v-11.269H86.021z"/>
	<path style="fill:#004B76;" d="M112.451,138.241c-9.318,0-16.872,7.555-16.872,16.873v45.045
		c-5.957,1.478-10.374,6.857-10.374,13.271l0,0h30.7v-49.393h44.564c8.023,0,14.527-6.505,14.527-14.528v-11.269H112.451z"/>
	<rect x="186.199" y="130.601" style="fill:#222720;" width="7.626" height="82.83"/>
	<path style="fill:#222720;" d="M149.931,194.51l-5.824-1.318v-21.914c0-2.196-1.78-3.977-3.977-3.977s-3.977,1.78-3.977,3.977
		v20.528l-11.941,2.704c-4.107,0.93-6.977,4.52-6.977,8.731v6.213c0,2.196,1.78,3.977,3.977,3.977c2.196,0,3.977-1.78,3.977-3.977
		v-6.213c0-0.47,0.32-0.871,0.779-0.975l10.185-2.306v9.493c0,2.196,1.78,3.977,3.977,3.977s3.977-1.78,3.977-3.977v-8.108
		l4.068,0.921c0.459,0.104,0.779,0.505,0.779,0.975v6.213c0,2.196,1.78,3.977,3.976,3.977c2.196,0,3.977-1.78,3.977-3.977v-6.213
		C156.906,199.03,154.038,195.44,149.931,194.51z"/>
	<g>
		<path style="fill:#FFD0B8;" d="M144.801,17.076h-6.967c-10.652,0-19.288,8.636-19.288,19.289V51.59
			c0,10.652,8.636,19.288,19.288,19.288h6.967c10.652,0,19.288-8.636,19.288-19.288V36.365
			C164.089,25.712,155.453,17.076,144.801,17.076z"/>
		<g>
			<path style="fill:#584545;" d="M157.936,33.184H125.74c-10.19,0-8.261-8.262-8.261-18.452h28.158
				c10.19,0,18.451,8.261,18.451,18.452v18.493c0,10.604-8.597,19.201-19.201,19.201h-7.141c-10.605,0-19.201-8.597-19.201-19.201
				h39.39V33.184z"/>
			<circle style="fill:#584545;" cx="144.841" cy="44.687" r="2.297"/>
			<path style="fill:#FFD0B8;" d="M144.997,62.604v-1.835c0-3.83-3.378-6.946-7.531-6.946c-4.152,0-7.531,3.116-7.531,6.946v1.835
				H144.997z"/>
			<path style="fill:#222720;" d="M143.162,60.769c0-2.822-2.55-5.111-5.696-5.111c-3.145,0-5.695,2.289-5.695,5.111H143.162z"/>
			<path style="fill:#FF8671;" d="M139.902,57.248c0.713,0,1.394,0.129,2.029,0.354c0.768,0.871,1.23,1.97,1.23,3.167h-8.776
				C135.355,58.692,137.458,57.248,139.902,57.248z"/>
			<path style="fill:#FF8671;" d="M136.553,42.243c-1.235-0.065-2.256,0.917-2.256,2.138v3.684h-1.807
				c-1.221,0-2.203,1.021-2.139,2.256c0.061,1.158,1.1,2.026,2.26,2.026h1.982c2.201,0,3.985-1.784,3.985-3.985v-3.859
				C138.579,43.343,137.711,42.304,136.553,42.243z"/>
			<circle style="fill:#584545;" cx="127.885" cy="44.687" r="2.297"/>
		</g>
	</g>
	<g>
		<g>
			<path style="fill:#FFC700;" d="M204.152,65.281v4.627h4.675v7.542h-4.675v4.627h36.874c4.639,0,8.398-3.76,8.398-8.398l0,0
				c0-4.638-3.76-8.397-8.398-8.397H204.152z"/>
			<rect x="208.827" y="69.908" style="fill:#FFFFFF;" width="31.147" height="7.542"/>
		</g>
		<g>
			<path style="fill:#009490;" d="M205.237,82.077v4.628h4.676v7.541h-4.676v4.628h36.874c4.639,0,8.398-3.76,8.398-8.398l0,0
				c0-4.638-3.76-8.398-8.398-8.398H205.237z"/>
			<rect x="209.913" y="86.705" style="fill:#FFFFFF;" width="31.145" height="7.541"/>
		</g>
		<g>
			<path style="fill:#333E48;" d="M243.307,98.874v4.628h-4.675v7.541h4.675v4.628h-36.874c-4.639,0-8.398-3.761-8.398-8.398l0,0
				c0-4.639,3.76-8.398,8.398-8.398H243.307z"/>
			<rect x="207.485" y="103.502" style="fill:#FFFFFF;" width="31.146" height="7.541"/>
		</g>
		<g>
			<path style="fill:#FF5959;" d="M242.902,48.485v4.627h-4.676v7.542h4.676v4.628h-36.875c-4.638,0-8.398-3.761-8.398-8.398l0,0
				c0-4.639,3.761-8.398,8.398-8.398H242.902z"/>
			<rect x="207.08" y="53.111" style="fill:#FFFFFF;" width="31.146" height="7.542"/>
		</g>
	</g>
	<path style="fill:#FFFFFF;" d="M162.712,85.452c6.897,1.394,13.293,1.442,17.255,0.864c2.213-0.323,3.473-2.719,2.483-4.725
		c-1.734-3.517-5.944-9.714-16.123-19.697l10.71-10.919c12.917,12.669,26.886,28.826,20.206,41.425
		c-3.356,6.332-10.876,9.539-22.359,9.539c-0.316,0-0.639-0.003-0.961-0.008c-7.343-0.11-13.961-1.432-14.239-1.488L162.712,85.452z
		"/>
	<path style="fill:#222720;" d="M150.022,51.774l8.45-14.803c1.115-1.954,3.602-2.634,5.556-1.519l6.086,3.474
		c1.953,1.115,2.633,3.603,1.518,5.556l-8.449,14.804c-1.115,1.953-3.603,2.633-5.556,1.518l-6.086-3.474
		C149.588,56.214,148.908,53.727,150.022,51.774z"/>
	<circle style="fill:#DBD9D6;" cx="161.402" cy="39.63" r="1.171"/>
	<circle style="fill:#222720;" cx="161.402" cy="39.629" r="0.763"/>
	<path style="fill:#FFD0B8;" d="M158.848,43.645L158.848,43.645c2.999-2.998,7.86-2.998,10.858,0l7.331,7.331l-10.71,10.919
		l-7.479-7.392C155.85,51.504,155.85,46.643,158.848,43.645z"/>
	<g>
		<g>
			<path style="fill:#FFFFFF;" d="M99.448,20.123c0.243-0.445,0.08-1.003-0.365-1.246l-10.58-5.787
				c-0.445-0.243-1.003-0.08-1.246,0.364c-0.243,0.444-0.08,1.003,0.365,1.246l10.58,5.787
				C98.647,20.731,99.205,20.568,99.448,20.123z"/>
		</g>
		<g>
			<path style="fill:#FFFFFF;" d="M97.051,29.71c0.112-0.206,0.146-0.454,0.075-0.698c-0.143-0.486-0.652-0.765-1.138-0.622
				l-11.574,3.39c-0.487,0.143-0.766,0.652-0.623,1.139c0.143,0.486,0.652,0.765,1.139,0.622l11.574-3.39
				C96.747,30.079,96.938,29.916,97.051,29.71z"/>
		</g>
		<g>
			<path style="fill:#FFFFFF;" d="M106.228,12.933c0.113-0.206,0.147-0.455,0.076-0.698l-3.39-11.574
				c-0.143-0.486-0.652-0.766-1.139-0.623c-0.486,0.143-0.765,0.652-0.622,1.139l3.389,11.574c0.143,0.486,0.652,0.766,1.139,0.622
				C105.924,13.301,106.115,13.139,106.228,12.933z"/>
		</g>
	</g>
	<g>
		<path style="fill:#DBD9D6;" d="M95.844,109.926h-8.698V80.818c0-3.943-3.196-7.139-7.14-7.139H38.843
			c-3.943,0-7.14,3.195-7.14,7.139v29.107c-1.539,0-2.786,1.248-2.786,2.787l0,0c0,1.539,1.247,2.785,2.786,2.785h64.141
			c1.539,0,2.787-1.246,2.787-2.785l0,0C98.631,111.174,97.383,109.926,95.844,109.926z"/>
		<path style="fill:#FFFFFF;" d="M80.006,73.68h-3.059c3.942,0,7.139,3.195,7.139,7.139v29.107h3.06V80.818
			C87.146,76.875,83.949,73.68,80.006,73.68z"/>
	</g>
	<g>
		<rect x="200.066" y="163.329" style="fill:#BDBBBB;" width="48.253" height="6.118"/>
		<polygon style="fill:#99999A;" points="245.229,171.989 245.65,169.447 202.735,169.447 203.156,171.989 		"/>
		<polygon style="fill:#BDBBBB;" points="203.156,171.989 210.024,213.431 238.361,213.431 245.229,171.989 		"/>
	</g>
	<g>
		<path style="fill:#333E48;" d="M30.162,71.627l-1.564,1.565c-0.688,0.686-0.103,2.383,1.304,3.79l-2.947,2.946
			c-1.666,1.666-1.574,4.461,0.207,6.241l20.287-20.287c-1.78-1.781-4.574-1.874-6.239-0.208l-2.948,2.947
			c-1.405-1.406-3.104-1.991-3.789-1.303l-1.566,1.563L30.162,71.627z"/>
		<path style="fill:#FFFFFF;" d="M40.916,72.415c1.993,1.994,1.994,5.228,0,7.222c-1.994,1.993-5.228,1.994-7.221,0L40.916,72.415z"
			/>
		<path style="fill:#333E48;" d="M15.738,112.481c-0.114,0-0.231-0.011-0.349-0.032c-1.04-0.191-1.728-1.189-1.537-2.229
			c1.468-7.968-1.223-12.312-3.825-16.513c-2.88-4.65-5.858-9.46-1.851-17.765c2.104-4.358,5.494-7.287,9.806-8.472
			c5.183-1.425,11.452-0.173,16.771,3.35c0.88,0.584,1.123,1.771,0.538,2.653c-0.584,0.882-1.771,1.124-2.653,0.539
			c-4.409-2.92-9.509-3.983-13.64-2.85c-3.262,0.896-5.741,3.063-7.373,6.444c-3.094,6.41-1.101,9.629,1.659,14.084
			c2.703,4.366,6.069,9.802,4.336,19.221C17.45,111.835,16.645,112.48,15.738,112.481z"/>
		<rect x="2.241" y="110.566" style="fill:#333E48;" width="27.172" height="5.106"/>
	</g>
</g>
</svg>
