<?xml version="1.0" encoding="iso-8859-1"?>
<!-- Generator: Adobe Illustrator 17.0.0, SVG Export Plug-In . SVG Version: 6.00 Build 0)  -->
<!DOCTYPE svg PUBLIC "-//W3C//DTD SVG 1.1//EN" "http://www.w3.org/Graphics/SVG/1.1/DTD/svg11.dtd">
<svg version="1.1" xmlns="http://www.w3.org/2000/svg" xmlns:xlink="http://www.w3.org/1999/xlink" x="0px" y="0px" width="64px"
	 height="64px" viewBox="0 0 64 64" style="enable-background:new 0 0 64 64;" xml:space="preserve">
<g id="Layer_1">
	<g>
		<circle style="fill:#77B3D4;" cx="32" cy="32" r="32"/>
	</g>
	<g style="opacity:0.2;">
		<g>
			<path style="fill:#231F20;" d="M26,56c-4.411,0-8-3.589-8-8c0-1.104,0.896-2,2-2s2,0.896,2,2c0,2.206,1.794,4,4,4s4-1.794,4-4V12
				c0-1.104,0.896-2,2-2s2,0.896,2,2v36C34,52.411,30.411,56,26,56z"/>
		</g>
	</g>
	<g>
		<path style="fill:#4F5D73;" d="M26,54c-4.411,0-8-3.589-8-8c0-1.104,0.896-2,2-2s2,0.896,2,2c0,2.206,1.794,4,4,4s4-1.794,4-4V10
			c0-1.104,0.896-2,2-2s2,0.896,2,2v36C34,50.411,30.411,54,26,54z"/>
	</g>
	<g>
		<path style="fill:#C75C5C;" d="M32,10"/>
	</g>
	<g style="opacity:0.2;">
		<path style="fill:#231F20;" d="M32,12C18.745,12,8,22.745,8,36c5.045-3.409,10.909,0,10.909,0c0-1.205,5.861-3.273,13.091-3.273
			S45.091,34.795,45.091,36c0,0,5.795-3.409,10.909,0C56,22.745,45.255,12,32,12z"/>
	</g>
	<g>
		<g>
			<path style="fill:#C75C5C;" d="M18.909,34c0,0,0.273-17.659,13.091-24C18.745,10,8,20.745,8,34
				C13.045,30.591,18.909,34,18.909,34z"/>
		</g>
		<g>
			<path style="fill:#C75C5C;" d="M45.091,34c0,0,5.795-3.409,10.909,0c0-13.255-10.745-24-24-24C44.818,16.341,45.091,34,45.091,34
				z"/>
		</g>
		<g>
			<path style="fill:#FFFFFF;" d="M18.909,34c0-1.205,5.861-3.273,13.091-3.273S45.091,32.795,45.091,34c0,0-0.273-17.659-13.091-24
				C19.182,16.341,18.909,34,18.909,34z"/>
		</g>
	</g>
	<g>
		<path style="fill:#4F5D73;" d="M32,13c-1.104,0-2-0.896-2-2v-1c0-1.104,0.896-2,2-2s2,0.896,2,2v1C34,12.104,33.104,13,32,13z"/>
	</g>
</g>
<g id="Layer_2">
</g>
</svg>
