<?xml version="1.0" encoding="utf-8"?>
<!-- Generator: Adobe Illustrator 17.0.0, SVG Export Plug-In . SVG Version: 6.00 Build 0)  -->
<!DOCTYPE svg PUBLIC "-//W3C//DTD SVG 1.1//EN" "http://www.w3.org/Graphics/SVG/1.1/DTD/svg11.dtd">
<svg version="1.1" id="图层_2" xmlns="http://www.w3.org/2000/svg" xmlns:xlink="http://www.w3.org/1999/xlink" x="0px" y="0px"
	 width="234.584px" height="137.533px" viewBox="1.71 0.055 234.584 137.533" enable-background="new 1.71 0.055 234.584 137.533"
	 xml:space="preserve">
<g id="Photo_camera">
	<g>
		<g>
			<g>
				<rect x="68.379" y="63.992" fill="#DCDCDC" width="77.161" height="8.253"/>
				<rect x="71.486" y="39.222" fill="#DCDCDC" width="70.946" height="8.658"/>
				<rect x="71.742" y="30.564" fill="#E4E4E4" width="70.526" height="8.658"/>
				<rect x="69.769" y="21.907" fill="#4D4D4D" width="74.473" height="8.658"/>
				<rect x="66.104" y="7.61" fill="#4D4D4D" width="81.802" height="14.297"/>
				<rect x="75.632" y="47.879" fill="#A9A9A9" width="62.656" height="13.113"/>
				<rect x="71.486" y="60.992" fill="#C2C2C2" width="70.946" height="3"/>
				<rect x="71.486" y="62.492" opacity="0.1" enable-background="new    " width="70.946" height="1.5"/>
				<g>
					<polygon fill="#DCDCDC" points="97.926,58.468 97.926,59.362 71.486,59.362 71.486,60.992 97.926,60.992 101.479,60.992 
						101.479,59.362 101.479,58.468 					"/>
					<rect x="96.511" y="59.362" opacity="0.1" enable-background="new    " width="1.415" height="1.631"/>
				</g>
				<rect x="76.195" y="63.992" opacity="0.3" fill="#FFFFFF" enable-background="new    " width="12.848" height="8.253"/>
				<rect x="78.802" y="60.992" opacity="0.3" fill="#FFFFFF" enable-background="new    " width="11.004" height="2.969"/>
				<rect x="80.98" y="47.879" opacity="0.3" fill="#FFFFFF" enable-background="new    " width="10.176" height="11.482"/>
				<rect x="79.426" y="30.564" opacity="0.3" fill="#FFFFFF" enable-background="new    " width="10.177" height="8.658"/>
				<rect x="77.76" y="21.907" opacity="0.3" fill="#FFFFFF" enable-background="new    " width="10.177" height="8.658"/>
				<g>
					<rect x="71.742" y="39.222" fill="#CACACA" width="0.556" height="8.658"/>
					<rect x="72.853" y="39.222" fill="#CACACA" width="0.555" height="8.658"/>
					<rect x="73.963" y="39.222" fill="#CACACA" width="0.556" height="8.658"/>
					<rect x="75.074" y="39.222" fill="#CACACA" width="0.556" height="8.658"/>
					<rect x="76.184" y="39.222" fill="#CACACA" width="0.556" height="8.658"/>
					<rect x="77.295" y="39.222" fill="#CACACA" width="0.555" height="8.658"/>
					<rect x="78.406" y="39.222" fill="#CACACA" width="0.555" height="8.658"/>
					<rect x="79.516" y="39.222" fill="#CACACA" width="0.555" height="8.658"/>
					<rect x="80.627" y="39.222" fill="#CACACA" width="0.555" height="8.658"/>
					<rect x="81.738" y="39.222" fill="#CACACA" width="0.555" height="8.658"/>
					<rect x="82.848" y="39.222" fill="#CACACA" width="0.555" height="8.658"/>
					<rect x="83.959" y="39.222" fill="#CACACA" width="0.555" height="8.658"/>
					<rect x="85.069" y="39.222" fill="#CACACA" width="0.556" height="8.658"/>
					<rect x="86.18" y="39.222" fill="#CACACA" width="0.555" height="8.658"/>
					<rect x="87.291" y="39.222" fill="#CACACA" width="0.556" height="8.658"/>
					<rect x="88.401" y="39.222" fill="#CACACA" width="0.556" height="8.658"/>
					<rect x="89.512" y="39.222" fill="#CACACA" width="0.555" height="8.658"/>
					<rect x="90.623" y="39.222" fill="#CACACA" width="0.556" height="8.658"/>
					<rect x="91.734" y="39.222" fill="#CACACA" width="0.555" height="8.658"/>
					<rect x="92.844" y="39.222" fill="#CACACA" width="0.555" height="8.658"/>
					<rect x="93.955" y="39.222" fill="#CACACA" width="0.555" height="8.658"/>
					<rect x="95.066" y="39.222" fill="#CACACA" width="0.555" height="8.658"/>
					<rect x="96.176" y="39.222" fill="#CACACA" width="0.555" height="8.658"/>
					<rect x="97.287" y="39.222" fill="#CACACA" width="0.555" height="8.658"/>
					<rect x="98.397" y="39.222" fill="#CACACA" width="0.555" height="8.658"/>
					<rect x="99.508" y="39.222" fill="#CACACA" width="0.556" height="8.658"/>
					<rect x="100.619" y="39.222" fill="#CACACA" width="0.556" height="8.658"/>
					<rect x="101.729" y="39.222" fill="#CACACA" width="0.556" height="8.658"/>
					<rect x="102.84" y="39.222" fill="#CACACA" width="0.555" height="8.658"/>
					<rect x="103.951" y="39.222" fill="#CACACA" width="0.555" height="8.658"/>
					<rect x="105.061" y="39.222" fill="#CACACA" width="0.555" height="8.658"/>
					<rect x="106.172" y="39.222" fill="#CACACA" width="0.555" height="8.658"/>
					<rect x="107.282" y="39.222" fill="#CACACA" width="0.555" height="8.658"/>
					<rect x="108.394" y="39.222" fill="#CACACA" width="0.555" height="8.658"/>
					<rect x="109.504" y="39.222" fill="#CACACA" width="0.555" height="8.658"/>
					<rect x="110.615" y="39.222" fill="#CACACA" width="0.555" height="8.658"/>
					<rect x="111.725" y="39.222" fill="#CACACA" width="0.555" height="8.658"/>
					<rect x="112.836" y="39.222" fill="#CACACA" width="0.556" height="8.658"/>
					<rect x="113.946" y="39.222" fill="#CACACA" width="0.556" height="8.658"/>
					<rect x="115.057" y="39.222" fill="#CACACA" width="0.555" height="8.658"/>
					<rect x="116.167" y="39.222" fill="#CACACA" width="0.556" height="8.658"/>
					<rect x="117.278" y="39.222" fill="#CACACA" width="0.556" height="8.658"/>
					<rect x="118.389" y="39.222" fill="#CACACA" width="0.555" height="8.658"/>
					<rect x="119.5" y="39.222" fill="#CACACA" width="0.555" height="8.658"/>
					<rect x="120.611" y="39.222" fill="#CACACA" width="0.555" height="8.658"/>
					<rect x="121.721" y="39.222" fill="#CACACA" width="0.555" height="8.658"/>
					<rect x="122.831" y="39.222" fill="#CACACA" width="0.556" height="8.658"/>
					<rect x="123.942" y="39.222" fill="#CACACA" width="0.555" height="8.658"/>
					<rect x="125.053" y="39.222" fill="#CACACA" width="0.555" height="8.658"/>
					<rect x="126.163" y="39.222" fill="#CACACA" width="0.556" height="8.658"/>
					<rect x="127.274" y="39.222" fill="#CACACA" width="0.556" height="8.658"/>
					<rect x="128.384" y="39.222" fill="#CACACA" width="0.556" height="8.658"/>
					<rect x="129.495" y="39.222" fill="#CACACA" width="0.555" height="8.658"/>
					<rect x="130.606" y="39.222" fill="#CACACA" width="0.555" height="8.658"/>
					<rect x="131.717" y="39.222" fill="#CACACA" width="0.554" height="8.658"/>
					<rect x="132.828" y="39.222" fill="#CACACA" width="0.555" height="8.658"/>
					<rect x="133.938" y="39.222" fill="#CACACA" width="0.555" height="8.658"/>
					<rect x="135.049" y="39.222" fill="#CACACA" width="0.555" height="8.658"/>
					<rect x="136.159" y="39.222" fill="#CACACA" width="0.556" height="8.658"/>
					<rect x="137.269" y="39.222" fill="#CACACA" width="0.556" height="8.658"/>
					<rect x="138.38" y="39.222" fill="#CACACA" width="0.556" height="8.658"/>
					<rect x="139.491" y="39.222" fill="#CACACA" width="0.556" height="8.658"/>
					<rect x="140.602" y="39.222" fill="#CACACA" width="0.556" height="8.658"/>
					<rect x="141.713" y="39.222" fill="#CACACA" width="0.555" height="8.658"/>
				</g>
				<g opacity="0.3">
					<rect x="66.398" y="7.61" width="0.639" height="14.297"/>
					<rect x="67.677" y="7.61" width="0.641" height="14.297"/>
					<rect x="68.956" y="7.61" width="0.641" height="14.297"/>
					<rect x="70.236" y="7.61" width="0.64" height="14.297"/>
					<rect x="71.515" y="7.61" width="0.641" height="14.297"/>
					<rect x="72.795" y="7.61" width="0.64" height="14.297"/>
					<rect x="74.075" y="7.61" width="0.64" height="14.297"/>
					<rect x="75.355" y="7.61" width="0.64" height="14.297"/>
					<rect x="76.634" y="7.61" width="0.639" height="14.297"/>
					<rect x="77.913" y="7.61" width="0.64" height="14.297"/>
					<rect x="79.193" y="7.61" width="0.64" height="14.297"/>
					<rect x="80.473" y="7.61" width="0.64" height="14.297"/>
					<rect x="81.751" y="7.61" width="0.641" height="14.297"/>
					<rect x="83.032" y="7.61" width="0.639" height="14.297"/>
					<rect x="84.311" y="7.61" width="0.64" height="14.297"/>
					<rect x="85.591" y="7.61" width="0.64" height="14.297"/>
					<rect x="86.871" y="7.61" width="0.64" height="14.297"/>
					<rect x="88.15" y="7.61" width="0.639" height="14.297"/>
					<rect x="89.43" y="7.61" width="0.639" height="14.297"/>
					<rect x="90.709" y="7.61" width="0.64" height="14.297"/>
					<rect x="91.99" y="7.61" width="0.639" height="14.297"/>
					<rect x="93.268" y="7.61" width="0.64" height="14.297"/>
					<rect x="94.548" y="7.61" width="0.639" height="14.297"/>
					<rect x="95.828" y="7.61" width="0.64" height="14.297"/>
					<rect x="97.106" y="7.61" width="0.641" height="14.297"/>
					<rect x="98.386" y="7.61" width="0.641" height="14.297"/>
					<rect x="99.666" y="7.61" width="0.64" height="14.297"/>
					<rect x="100.945" y="7.61" width="0.64" height="14.297"/>
					<rect x="102.226" y="7.61" width="0.64" height="14.297"/>
					<rect x="103.505" y="7.61" width="0.64" height="14.297"/>
					<rect x="104.785" y="7.61" width="0.639" height="14.297"/>
					<rect x="106.065" y="7.61" width="0.639" height="14.297"/>
					<rect x="107.343" y="7.61" width="0.64" height="14.297"/>
					<rect x="108.624" y="7.61" width="0.639" height="14.297"/>
					<rect x="109.903" y="7.61" width="0.64" height="14.297"/>
					<rect x="111.183" y="7.61" width="0.64" height="14.297"/>
					<rect x="112.463" y="7.61" width="0.64" height="14.297"/>
					<rect x="113.741" y="7.61" width="0.64" height="14.297"/>
					<rect x="115.021" y="7.61" width="0.641" height="14.297"/>
					<rect x="116.3" y="7.61" width="0.64" height="14.297"/>
					<rect x="117.58" y="7.61" width="0.64" height="14.297"/>
					<rect x="118.861" y="7.61" width="0.639" height="14.297"/>
					<rect x="120.14" y="7.61" width="0.639" height="14.297"/>
					<rect x="121.42" y="7.61" width="0.639" height="14.297"/>
					<rect x="122.698" y="7.61" width="0.64" height="14.297"/>
					<rect x="123.978" y="7.61" width="0.639" height="14.297"/>
					<rect x="125.258" y="7.61" width="0.64" height="14.297"/>
					<rect x="126.537" y="7.61" width="0.641" height="14.297"/>
					<rect x="127.817" y="7.61" width="0.64" height="14.297"/>
					<rect x="129.095" y="7.61" width="0.64" height="14.297"/>
					<rect x="130.376" y="7.61" width="0.64" height="14.297"/>
					<rect x="131.656" y="7.61" width="0.64" height="14.297"/>
					<rect x="132.935" y="7.61" width="0.639" height="14.297"/>
					<rect x="134.215" y="7.61" width="0.64" height="14.297"/>
					<rect x="135.494" y="7.61" width="0.64" height="14.297"/>
					<rect x="136.775" y="7.61" width="0.638" height="14.297"/>
					<rect x="138.053" y="7.61" width="0.64" height="14.297"/>
					<rect x="139.333" y="7.61" width="0.64" height="14.297"/>
					<rect x="140.612" y="7.61" width="0.64" height="14.297"/>
					<rect x="141.892" y="7.61" width="0.64" height="14.297"/>
					<rect x="143.172" y="7.61" width="0.64" height="14.297"/>
					<rect x="144.451" y="7.61" width="0.641" height="14.297"/>
					<rect x="145.73" y="7.61" width="0.641" height="14.297"/>
					<rect x="147.011" y="7.61" width="0.639" height="14.297"/>
				</g>
				<rect x="91.156" y="65.814" fill="#A9A9A9" width="33.064" height="2.305"/>
				<rect x="126.923" y="65.814" fill="#A9A9A9" width="15.736" height="2.305"/>
				<rect x="69.769" y="21.906" opacity="0.1" enable-background="new    " width="74.473" height="1.678"/>
				<rect x="69.769" y="1.953" fill="#4D4D4D" width="74.473" height="5.657"/>
				<polygon fill="#4D4D4D" points="71.269,0.055 142.741,0.055 144.242,1.954 69.769,1.954 				"/>
				<rect x="69.769" y="5.932" opacity="0.1" enable-background="new    " width="74.473" height="1.678"/>
				<rect x="75.632" y="47.879" opacity="0.1" enable-background="new    " width="62.656" height="1.375"/>
				<rect x="101.479" y="59.617" opacity="0.1" enable-background="new    " width="36.809" height="1.376"/>
				<rect x="77.76" y="1.953" opacity="0.3" fill="#FFFFFF" enable-background="new    " width="10.177" height="5.657"/>
				<polygon opacity="0.15" fill="#FFFFFF" enable-background="new    " points="87.937,1.954 77.76,1.954 78.26,0.055 
					87.937,0.055 				"/>
			</g>
			<rect x="37.608" y="131.552" fill="#BDBDBD" width="22.662" height="3.574"/>
			<g>
				<rect x="37.869" y="131.552" fill="#CACACA" width="0.363" height="3.574"/>
				<rect x="38.594" y="131.552" fill="#CACACA" width="0.363" height="3.574"/>
				<rect x="39.32" y="131.552" fill="#CACACA" width="0.363" height="3.574"/>
				<rect x="40.047" y="131.552" fill="#CACACA" width="0.363" height="3.574"/>
				<rect x="40.772" y="131.552" fill="#CACACA" width="0.363" height="3.574"/>
				<rect x="41.498" y="131.552" fill="#CACACA" width="0.364" height="3.574"/>
				<rect x="42.224" y="131.552" fill="#CACACA" width="0.363" height="3.574"/>
				<rect x="42.95" y="131.552" fill="#CACACA" width="0.363" height="3.574"/>
				<rect x="43.676" y="131.552" fill="#CACACA" width="0.364" height="3.574"/>
				<rect x="44.402" y="131.552" fill="#CACACA" width="0.362" height="3.574"/>
				<rect x="45.128" y="131.552" fill="#CACACA" width="0.362" height="3.574"/>
				<rect x="45.854" y="131.552" fill="#CACACA" width="0.362" height="3.574"/>
				<rect x="46.58" y="131.552" fill="#CACACA" width="0.362" height="3.574"/>
				<rect x="47.305" y="131.552" fill="#CACACA" width="0.363" height="3.574"/>
				<rect x="48.031" y="131.552" fill="#CACACA" width="0.362" height="3.574"/>
				<rect x="48.757" y="131.552" fill="#CACACA" width="0.364" height="3.574"/>
				<rect x="49.483" y="131.552" fill="#CACACA" width="0.364" height="3.574"/>
				<rect x="50.209" y="131.552" fill="#CACACA" width="0.363" height="3.574"/>
				<rect x="50.935" y="131.552" fill="#CACACA" width="0.363" height="3.574"/>
				<rect x="51.66" y="131.552" fill="#CACACA" width="0.363" height="3.574"/>
				<rect x="52.386" y="131.552" fill="#CACACA" width="0.363" height="3.574"/>
				<rect x="53.113" y="131.552" fill="#CACACA" width="0.362" height="3.574"/>
				<rect x="53.838" y="131.552" fill="#CACACA" width="0.362" height="3.574"/>
				<rect x="54.565" y="131.552" fill="#CACACA" width="0.362" height="3.574"/>
				<rect x="55.29" y="131.552" fill="#CACACA" width="0.363" height="3.574"/>
				<rect x="56.015" y="131.552" fill="#CACACA" width="0.363" height="3.574"/>
				<rect x="56.742" y="131.552" fill="#CACACA" width="0.363" height="3.574"/>
				<rect x="57.467" y="131.552" fill="#CACACA" width="0.364" height="3.574"/>
				<rect x="58.193" y="131.552" fill="#CACACA" width="0.363" height="3.574"/>
				<rect x="58.92" y="131.552" fill="#CACACA" width="0.364" height="3.574"/>
				<rect x="59.645" y="131.552" fill="#CACACA" width="0.363" height="3.574"/>
			</g>
			<path fill="#CDCDCD" d="M222.677,80.36H18.542c0.13-0.705,0.33-1.38,0.595-2.025c1.505-3.631,5.087-6.207,9.243-6.207h105.266
				l6.652-5.157h71.319l10.714,10.119L222.677,80.36z"/>
			<path fill="#DCDCDC" d="M235.426,92.169v27.774l-9.803,11.109H18.376L4.977,105.243L4.972,91.168l9.678-9.378h3.741
				c0.005-0.145,0.015-0.285,0.025-0.43c0.025-0.34,0.07-0.675,0.125-1.001h204.135l0.055,0.501l0.561,0.5L235.426,92.169z"/>
			<g>
				<path fill="#9A9A9A" d="M223.292,81.361H18.417c0.025-0.34,0.07-0.675,0.125-1.001h204.135l0.055,0.501L223.292,81.361z"/>
			</g>
			<g>
				<path opacity="0.1" enable-background="new    " d="M152.478,83.655v41.82c0,2.276-1.09,4.296-2.771,5.577H64.933
					c-1.686-1.28-2.771-3.306-2.771-5.577v-41.82c0-3.926,2.44-7.002,5.562-7.002c1.456,0,3.706-0.835,4.712-1.75
					c1.995-1.806,6.047-2.781,8.848-2.781h50.072c2.796,0,6.847,0.975,8.843,2.781c0.915,0.825,3.551,1.75,5.717,1.75
					C149.532,76.653,152.478,79.794,152.478,83.655z"/>
				<path fill="#E4E4E4" d="M145.917,81.779c-2.507,0-5.684-1.019-7.059-2.264c-1.376-1.245-4.751-2.264-7.502-2.264H81.283
					c-2.751,0-6.127,1.019-7.503,2.264s-4.102,2.264-6.059,2.264c-1.956,0-3.557,2.251-3.557,5.002v38.695
					c0,2.751,2.251,5.002,5.002,5.002h76.307c2.751,0,5.002-2.251,5.002-5.002V86.781C150.476,84.03,148.424,81.779,145.917,81.779z
					"/>
				<g opacity="0.1">
					<path d="M138.393,123.996h-11.254c-1.379,0-2.501-1.122-2.501-2.501V94.236c0-1.379,1.122-2.501,2.501-2.501h11.254
						c1.379,0,2.501,1.122,2.501,2.501v27.259C140.894,122.875,139.772,123.996,138.393,123.996z M127.139,92.736
						c-0.828,0-1.501,0.673-1.501,1.5v27.259c0,0.827,0.673,1.5,1.501,1.5h11.254c0.828,0,1.501-0.673,1.501-1.5V94.236
						c0-0.828-0.673-1.5-1.501-1.5H127.139z"/>
				</g>
				<g opacity="0.1">
					<path d="M108.147,123.996H74.386c-1.379,0-2.501-1.122-2.501-2.501V94.236c0-1.379,1.122-2.501,2.501-2.501h33.761
						c1.378,0,2.501,1.122,2.501,2.501v27.259C110.647,122.875,109.525,123.996,108.147,123.996z M74.385,92.736
						c-0.828,0-1.501,0.673-1.501,1.5v27.259c0,0.827,0.673,1.5,1.501,1.5h33.761c0.827,0,1.5-0.673,1.5-1.5V94.236
						c0-0.828-0.673-1.5-1.5-1.5"/>
				</g>
				<g>
					<path fill="#F0F0F0" d="M138.393,123.496h-11.254c-1.379,0-2.501-1.122-2.501-2.501V93.736c0-1.379,1.122-2.501,2.501-2.501
						h11.254c1.379,0,2.501,1.122,2.501,2.501v27.259C140.894,122.374,139.772,123.496,138.393,123.496z M127.139,92.235
						c-0.828,0-1.501,0.673-1.501,1.501v27.259c0,0.828,0.673,1.5,1.501,1.5h11.254c0.828,0,1.501-0.673,1.501-1.5V93.736
						c0-0.827-0.673-1.501-1.501-1.501H127.139z"/>
				</g>
				<g>
					<path fill="#F0F0F0" d="M108.148,91.234H74.387c-0.52,0-1.006,0.16-1.4,0.436c-0.665,0.449-1.101,1.21-1.101,2.065v27.259
						c0,0.86,0.436,1.615,1.095,2.071c0.401,0.27,0.886,0.431,1.407,0.431h33.761c1.375,0,2.501-1.121,2.501-2.501V93.736
						C110.649,92.36,109.523,91.234,108.148,91.234z M109.648,120.994c0,0.831-0.675,1.5-1.5,1.5H74.387
						c-0.831,0-1.501-0.67-1.501-1.5V93.735c0-0.825,0.67-1.5,1.501-1.5h33.761c0.825,0,1.5,0.675,1.5,1.5V120.994z"/>
				</g>
				<path fill="#4D4D4D" d="M98.129,109.298c0-3.791-3.073-6.864-6.864-6.864c-3.79,0-6.864,3.073-6.864,6.864
					c0,2.146,0.987,4.061,2.529,5.32v8.38h8.669v-8.38C97.143,113.358,98.129,111.443,98.129,109.298z"/>
				<circle opacity="0.1" enable-background="new    " cx="91.265" cy="109.485" r="4.335"/>
				<circle fill="#6B5F62" cx="91.266" cy="109.201" r="4.049"/>
				<g>
					<circle fill="#CACACA" cx="99.118" cy="117.217" r="2.334"/>
					
						<ellipse transform="matrix(-0.1933 0.9811 -0.9811 -0.1933 232.8392 41.8454)" opacity="0.5" fill="#FFFFFF" enable-background="new    " cx="99.217" cy="116.643" rx="1.327" ry="1.771"/>
					<g>
						
							<rect x="96.796" y="116.975" transform="matrix(-0.9812 -0.1932 0.1932 -0.9812 173.7453 251.3945)" fill="#666666" width="4.668" height="0.501"/>
					</g>
				</g>
				<g>
					<circle fill="#CACACA" cx="99.118" cy="101.347" r="2.334"/>
					
						<ellipse transform="matrix(-0.5684 0.8228 -0.8228 -0.5684 238.97 76.3771)" opacity="0.5" fill="#FFFFFF" enable-background="new    " cx="99.451" cy="100.87" rx="1.327" ry="1.771"/>
					<g>
						
							<rect x="96.795" y="101.091" transform="matrix(-0.8228 -0.5683 0.5683 -0.8228 123.1018 241.0639)" fill="#666666" width="4.669" height="0.501"/>
					</g>
				</g>
				<g>
					<circle fill="#CACACA" cx="83.413" cy="117.217" r="2.334"/>
					
						<ellipse transform="matrix(0.5597 0.8287 -0.8287 0.5597 133.3104 -17.4641)" opacity="0.5" fill="#FFFFFF" enable-background="new    " cx="83.09" cy="116.72" rx="1.327" ry="1.771"/>
					<g>
						
							<rect x="81.083" y="116.981" transform="matrix(-0.8288 0.5596 -0.5596 -0.8288 218.1526 167.7118)" fill="#666666" width="4.669" height="0.501"/>
					</g>
				</g>
				<g>
					<circle fill="#CACACA" cx="83.413" cy="101.347" r="2.335"/>
					
						<ellipse transform="matrix(0.4919 0.8706 -0.8706 0.4919 130.0262 -21.1258)" opacity="0.5" fill="#FFFFFF" enable-background="new    " cx="83.114" cy="100.843" rx="1.326" ry="1.771"/>
					<g>
						
							<rect x="81.079" y="101.099" transform="matrix(-0.8706 0.492 -0.492 -0.8706 205.8976 148.5443)" fill="#666666" width="4.669" height="0.5"/>
					</g>
				</g>
				<g opacity="0.1">
					<path d="M120.298,123.996c-0.277,0-0.5-0.224-0.5-0.5V87.233c0-0.276,0.223-0.5,0.5-0.5s0.5,0.224,0.5,0.5v36.263
						C120.799,123.772,120.576,123.996,120.298,123.996z"/>
				</g>
				<g opacity="0.1">
					<path d="M140.894,87.734h-69.01c-0.276,0-0.5-0.224-0.5-0.5s0.224-0.5,0.5-0.5h69.01c0.277,0,0.501,0.224,0.501,0.5
						C141.394,87.51,141.17,87.734,140.894,87.734z"/>
				</g>
				<g>
					<path fill="#F0F0F0" d="M120.298,123.496c-0.277,0-0.5-0.224-0.5-0.501V86.733c0-0.277,0.223-0.5,0.5-0.5s0.5,0.224,0.5,0.5
						v36.262C120.799,123.273,120.576,123.496,120.298,123.496z"/>
				</g>
				<g>
					<path fill="#F0F0F0" d="M140.894,87.234h-69.01c-0.276,0-0.5-0.224-0.5-0.5c0-0.277,0.224-0.5,0.5-0.5h69.01
						c0.277,0,0.501,0.224,0.501,0.5C141.394,87.01,141.17,87.234,140.894,87.234z"/>
				</g>
				<g>
					<g>
						<polygon opacity="0.1" enable-background="new    " points="80.579,121.485 72.963,122.496 72.963,92.235 80.579,93.421 
													"/>
						<path fill="#F0F0F0" d="M79.518,94.235v26.259l-5.087,2l-1.451,0.57c-0.659-0.455-1.095-1.211-1.095-2.071V93.734
							c0-0.856,0.436-1.616,1.101-2.065l1.445,0.565L79.518,94.235z"/>
					</g>
					<rect x="77.338" y="94.208" fill="#E4E4E4" width="2.179" height="26.287"/>
				</g>
				<g>
					<g>
						<polygon opacity="0.1" enable-background="new    " points="101.956,121.485 109.571,122.496 109.571,92.235 101.956,93.421 
													"/>
						<path fill="#F0F0F0" d="M103.016,94.235v26.259l5.087,2l1.45,0.57c0.66-0.455,1.095-1.211,1.095-2.071V93.734
							c0-0.856-0.436-1.616-1.1-2.065l-1.445,0.565L103.016,94.235z"/>
					</g>
					<rect x="103.018" y="94.208" fill="#E4E4E4" width="2.179" height="26.287"/>
				</g>
				<path opacity="0.1" enable-background="new    " d="M98.13,109.295c0,0.17-0.004,0.34-0.02,0.51
					c-0.25-3.561-3.221-6.372-6.842-6.372c-3.626,0-6.598,2.811-6.848,6.372c-0.015-0.17-0.02-0.34-0.02-0.51
					c0-3.791,3.076-6.862,6.868-6.862C95.055,102.432,98.13,105.504,98.13,109.295z"/>
			</g>
			<path opacity="0.1" enable-background="new    " d="M59.131,106.119c0,10.464-5.422,19.662-13.615,24.934h-27.14L4.977,105.244
				L4.972,91.169l9.678-9.378h3.741c0.04-1.22,0.305-2.386,0.745-3.456c3.221-1.206,6.707-1.861,10.348-1.861
				C45.857,76.474,59.131,89.748,59.131,106.119z"/>
			<path fill="#D4D4D4" d="M1.71,106.118c0,15.34,12.436,27.777,27.776,27.777s27.776-12.436,27.776-27.777
				S44.826,78.342,29.486,78.342S1.71,90.778,1.71,106.118"/>
			<circle fill="#4D4D4D" cx="29.486" cy="106.118" r="18.885"/>
			<circle fill="#D4D4D4" cx="29.486" cy="106.118" r="17.275"/>
			<circle fill="#4D4D4D" cx="29.486" cy="106.118" r="11.273"/>
			<path opacity="0.1" enable-background="new    " d="M235.426,99.737v20.207l-9.803,11.109h-35.347
				c-5.057-5.051-8.188-12.034-8.188-19.752c0-15.42,12.499-27.92,27.919-27.92C221.301,83.382,231.03,90.089,235.426,99.737z"/>
			<circle fill="#D4D4D4" cx="210.007" cy="111.301" r="26.287"/>
			<circle fill="#4D4D4D" cx="210.007" cy="111.302" r="24.92"/>
			<path fill="#D4D4D4" d="M210.007,97.371c-7.693,0-13.93,6.237-13.93,13.93s6.237,13.93,13.93,13.93s13.93-6.237,13.93-13.93
				C223.937,103.608,217.7,97.371,210.007,97.371z M210.007,123.59c-6.787,0-12.289-5.502-12.289-12.289
				c0-6.788,5.502-12.289,12.289-12.289s12.29,5.502,12.29,12.289S216.795,123.59,210.007,123.59z"/>
			<circle fill="#4D4D4D" cx="210.008" cy="111.302" r="12.289"/>
			<path fill="#BDBDBD" d="M181.488,131.052c-0.435,0.625-0.93,1.205-1.475,1.736c-2.211,2.166-5.241,3.496-8.583,3.496
				c-3.341,0-6.372-1.33-8.583-3.496c-0.545-0.53-1.04-1.111-1.475-1.736H181.488L181.488,131.052z"/>
			<circle fill="#D4D4D4" cx="210.008" cy="111.302" r="6.436"/>
			<circle fill="#4D4D4D" cx="210.008" cy="111.302" r="2.101"/>
			<g>
				<path opacity="0.1" enable-background="new    " d="M40.674,111.84c-0.259,1.139-1.401,1.858-2.54,1.599l-19.18-4.363
					c-1.138-0.259-1.857-1.402-1.598-2.54l0.941-4.138c0.259-1.139,1.402-1.857,2.54-1.599l19.18,4.363
					c1.138,0.259,1.857,1.401,1.598,2.54L40.674,111.84z"/>
				<path fill="#666666" d="M40.674,110.839c-0.259,1.139-1.401,1.858-2.54,1.599l-19.18-4.363
					c-1.138-0.258-1.857-1.402-1.598-2.539l0.941-4.138c0.259-1.139,1.402-1.858,2.54-1.599l19.18,4.363
					c1.138,0.258,1.857,1.401,1.598,2.54L40.674,110.839z"/>
				
					<rect x="19.513" y="101.122" transform="matrix(0.2218 -0.9751 0.9751 0.2218 -84.5006 103.1202)" fill="#808080" width="5.683" height="6.756"/>
			</g>
			<rect x="41.669" y="131.052" fill="#7A7A7A" width="16.282" height="0.5"/>
			<path opacity="0.1" enable-background="new    " d="M181.488,131.176c-0.435,0.626-0.93,1.206-1.475,1.736h-17.166
				c-0.545-0.531-1.04-1.111-1.475-1.736H181.488z"/>
			<g>
				<path fill="#C0C0C0" d="M177.211,100.157l-2.159,6.613c-0.691-0.239-1.434-0.365-2.208-0.365c-3.792,0-6.877,3.085-6.877,6.878
					c0,1.126,0.273,2.19,0.76,3.133l-6.205,3.15c-0.964-1.886-1.508-4.019-1.508-6.283c0-7.638,6.192-13.829,13.829-13.829
					C174.37,99.454,175.839,99.701,177.211,100.157z"/>
				<path opacity="0.1" enable-background="new    " d="M160.523,120.567c-0.182,0-0.357-0.1-0.446-0.273
					c-1.037-2.027-1.562-4.218-1.562-6.511c0-7.901,6.428-14.329,14.329-14.329c1.547,0,3.069,0.245,4.525,0.728
					c0.261,0.087,0.402,0.368,0.317,0.63l-2.159,6.614c-0.042,0.128-0.133,0.233-0.253,0.293c-0.119,0.059-0.26,0.069-0.386,0.025
					c-0.647-0.224-1.335-0.338-2.044-0.338c-3.516,0-6.377,2.861-6.377,6.377c0,1.021,0.236,1.998,0.705,2.904
					c0.061,0.119,0.072,0.257,0.031,0.384s-0.131,0.232-0.25,0.292l-6.204,3.15C160.676,120.549,160.599,120.567,160.523,120.567z
					 M172.844,100.454c-7.35,0-13.329,5.98-13.329,13.329c0,1.965,0.415,3.849,1.234,5.607l5.318-2.699
					c-0.399-0.919-0.601-1.894-0.601-2.908c0-4.068,3.31-7.378,7.378-7.378c0.646,0,1.278,0.082,1.884,0.244l1.85-5.665
					C175.37,100.632,174.116,100.454,172.844,100.454z"/>
				<path fill="#F0F0F0" d="M160.523,120.066c-0.182,0-0.357-0.1-0.446-0.272c-1.037-2.028-1.562-4.218-1.562-6.511
					c0-7.901,6.428-14.33,14.329-14.33c1.547,0,3.069,0.245,4.525,0.729c0.261,0.087,0.402,0.368,0.317,0.63l-2.159,6.614
					c-0.042,0.127-0.133,0.233-0.253,0.293c-0.119,0.059-0.26,0.068-0.386,0.025c-0.647-0.224-1.335-0.338-2.044-0.338
					c-3.516,0-6.377,2.86-6.377,6.377c0,1.021,0.236,1.998,0.705,2.904c0.061,0.118,0.072,0.256,0.031,0.383
					c-0.041,0.126-0.131,0.232-0.25,0.292l-6.204,3.15C160.676,120.049,160.599,120.066,160.523,120.066z M172.844,99.954
					c-7.35,0-13.329,5.98-13.329,13.329c0,1.965,0.415,3.849,1.234,5.607l5.318-2.7c-0.399-0.919-0.601-1.894-0.601-2.907
					c0-4.068,3.31-7.378,7.378-7.378c0.646,0,1.278,0.082,1.884,0.244l1.85-5.665C175.37,100.132,174.116,99.954,172.844,99.954z"/>
			</g>
			<circle fill="#F04449" cx="156.447" cy="114.328" r="0.914"/>
			<circle opacity="0.1" enable-background="new    " cx="172.892" cy="113.661" r="3.889"/>
			<circle fill="#F0F0F0" cx="172.807" cy="113.576" r="3.474"/>
			
				<ellipse transform="matrix(0.5882 0.8087 -0.8087 0.5882 162.044 -92.8104)" opacity="0.5" fill="#FFFFFF" enable-background="new    " cx="172.156" cy="112.712" rx="1.709" ry="2.35"/>
			<rect x="146.03" y="69.958" fill="#DCDCDC" width="22.662" height="3.574"/>
			<g>
				<rect x="146.368" y="69.958" fill="#CACACA" width="0.363" height="3.574"/>
				<rect x="147.093" y="69.958" fill="#CACACA" width="0.363" height="3.574"/>
				<rect x="147.819" y="69.958" fill="#CACACA" width="0.364" height="3.574"/>
				<rect x="148.546" y="69.958" fill="#CACACA" width="0.362" height="3.574"/>
				<rect x="149.271" y="69.958" fill="#CACACA" width="0.364" height="3.574"/>
				<rect x="149.997" y="69.958" fill="#CACACA" width="0.363" height="3.574"/>
				<rect x="150.723" y="69.958" fill="#CACACA" width="0.363" height="3.574"/>
				<rect x="151.449" y="69.958" fill="#CACACA" width="0.363" height="3.574"/>
				<rect x="152.175" y="69.958" fill="#CACACA" width="0.364" height="3.574"/>
				<rect x="152.901" y="69.958" fill="#CACACA" width="0.362" height="3.574"/>
				<rect x="153.627" y="69.958" fill="#CACACA" width="0.361" height="3.574"/>
				<rect x="154.353" y="69.958" fill="#CACACA" width="0.362" height="3.574"/>
				<rect x="155.078" y="69.958" fill="#CACACA" width="0.363" height="3.574"/>
				<rect x="155.804" y="69.958" fill="#CACACA" width="0.363" height="3.574"/>
				<rect x="156.53" y="69.958" fill="#CACACA" width="0.363" height="3.574"/>
				<rect x="157.256" y="69.958" fill="#CACACA" width="0.363" height="3.574"/>
				<rect x="157.982" y="69.958" fill="#CACACA" width="0.364" height="3.574"/>
				<rect x="158.708" y="69.958" fill="#CACACA" width="0.363" height="3.574"/>
				<rect x="159.434" y="69.958" fill="#CACACA" width="0.363" height="3.574"/>
				<rect x="160.159" y="69.958" fill="#CACACA" width="0.363" height="3.574"/>
				<rect x="160.886" y="69.958" fill="#CACACA" width="0.362" height="3.574"/>
				<rect x="161.612" y="69.958" fill="#CACACA" width="0.363" height="3.574"/>
				<rect x="162.337" y="69.958" fill="#CACACA" width="0.362" height="3.574"/>
				<rect x="163.063" y="69.958" fill="#CACACA" width="0.363" height="3.574"/>
				<rect x="163.789" y="69.958" fill="#CACACA" width="0.363" height="3.574"/>
				<rect x="164.514" y="69.958" fill="#CACACA" width="0.363" height="3.574"/>
				<rect x="165.24" y="69.958" fill="#CACACA" width="0.363" height="3.574"/>
				<rect x="165.966" y="69.958" fill="#CACACA" width="0.364" height="3.574"/>
				<rect x="166.692" y="69.958" fill="#CACACA" width="0.364" height="3.574"/>
				<rect x="167.419" y="69.958" fill="#CACACA" width="0.363" height="3.574"/>
				<rect x="168.144" y="69.958" fill="#CACACA" width="0.364" height="3.574"/>
			</g>
			<rect x="150.661" y="73.532" fill="#CACACA" width="13.419" height="2.116"/>
			<rect x="150.661" y="73.532" opacity="0.1" enable-background="new    " width="13.419" height="0.791"/>
			<g>
				<rect x="183.72" y="65.942" fill="#CDCDCD" width="19.851" height="1.152"/>
				<rect x="183.72" y="65.942" opacity="0.1" enable-background="new    " width="19.851" height="1.152"/>
			</g>
			<g>
				<rect x="36.104" y="70.332" fill="#CDCDCD" width="19.851" height="1.914"/>
				<rect x="36.104" y="70.332" opacity="0.1" enable-background="new    " width="19.851" height="1.914"/>
			</g>
		</g>
		<polygon opacity="0.2" enable-background="new    " points="169.693,69.188 145.03,69.188 145.03,74.761 149.66,74.761 
			149.66,76.877 165.08,76.877 165.08,74.761 169.693,74.761 		"/>
	</g>
</g>
</svg>
