<?xml version="1.0" encoding="iso-8859-1"?>
<!-- Generator: Adobe Illustrator 17.0.0, SVG Export Plug-In . SVG Version: 6.00 Build 0)  -->
<!DOCTYPE svg PUBLIC "-//W3C//DTD SVG 1.1//EN" "http://www.w3.org/Graphics/SVG/1.1/DTD/svg11.dtd">
<svg version="1.1" id="Items" xmlns="http://www.w3.org/2000/svg" xmlns:xlink="http://www.w3.org/1999/xlink" x="0px" y="0px"
	 width="274.73px" height="347.387px" viewBox="0 0 274.73 347.387" style="enable-background:new 0 0 274.73 347.387;"
	 xml:space="preserve">
<g id="A4_sheet">
	<g>
		<path style="opacity:0.1;" d="M10.618,345.186c0-36.92-7.181-108.32-7.181-108.32C14.662,194.06,17.123,116.16,17.123,116.16
			L10.618,345.186z"/>
		<polygon style="opacity:0.1;" points="11.184,16.351 17.123,116.16 0,16.351 		"/>
	</g>
	<g>
		<polygon style="fill:#F7F7F7;" points="249.88,116.16 17.123,116.16 10.694,0 256.309,0 		"/>
		<path style="opacity:0.1;" d="M251.915,116.166l22.815-99.815h-19.325l-5.939,99.809l5.873,227.718l-244.62-0.189v2.826
			l245.94,0.19c0,0,8.408-109.824,8.314-109.838C255.226,199.694,251.884,121.177,251.915,116.166z"/>
		<polygon style="fill:#F7F7F7;" points="13.908,229.039 253.095,229.039 256.223,345.16 10.694,345.198 		"/>
		<polygon style="fill:#FFFFFF;" points="253.095,229.039 13.908,229.039 17.123,116.16 249.524,116.16 		"/>
	</g>
</g>
</svg>
