<?xml version="1.0" encoding="utf-8"?>
<!-- Generator: Adobe Illustrator 16.0.0, SVG Export Plug-In . SVG Version: 6.00 Build 0)  -->
<!DOCTYPE svg PUBLIC "-//W3C//DTD SVG 1.1//EN" "http://www.w3.org/Graphics/SVG/1.1/DTD/svg11.dtd">
<svg version="1.1" id="Layer_1" xmlns="http://www.w3.org/2000/svg" xmlns:xlink="http://www.w3.org/1999/xlink" x="0px" y="0px"
	 width="54.215px" height="64.709px" viewBox="0 0 54.215 64.709" enable-background="new 0 0 54.215 64.709" xml:space="preserve">
<path fill="#FF9595" d="M40.411,10.139c0.631-6.195-4.803-10.316-9.938-9.422c-1.553,0.268-3.076,1.001-4.398,2.268
	c1.057,0.552,2.074,1.352,2.998,2.458c5.867,7.036,1.123,23.221,0.41,25.52c2.338-0.191,19.191-1.839,23.527-9.932
	C57.799,12.093,47.222,4.328,40.411,10.139z M27.454,5.472c-0.924-1.106-1.941-1.906-2.998-2.457
	c-6.387-3.327-14.254,2.781-11.818,10.068c-5.508-2.904-11.363,0.59-12.455,5.688c-0.523,2.431,0.037,5.227,2.24,7.866
	c5.965,7.148,24.008,4.82,25.279,4.646c0.076-0.123,0.125-0.2,0.141-0.224c0.003-0.002,0.003-0.009,0.005-0.012
	c0.004-0.015,0.012-0.039,0.019-0.056C28.579,28.692,33.321,12.508,27.454,5.472z"/>
<path fill="#F2F2F2" d="M3.95,54.354H1.294c0.264-0.147,0.42-0.354,0.461-0.617V39.583c-0.041-0.249-0.197-0.455-0.461-0.616h6.551
	v1.935H7.599c-0.07-0.277-0.195-0.527-0.371-0.748c-0.014-0.014-0.021-0.03-0.021-0.043c-0.014-0.016-0.025-0.021-0.035-0.021
	c-0.008,0-0.018-0.007-0.033-0.021c-0.246-0.308-0.576-0.471-0.986-0.484h-2.66v6.044H6.02c0.133-0.073,0.229-0.153,0.285-0.242
	c0.014-0.015,0.025-0.022,0.033-0.022c0.006,0,0.02-0.006,0.033-0.022l0.045-0.043c0.16-0.219,0.277-0.461,0.35-0.725H7.01v3.846
	H6.765c-0.057-0.233-0.174-0.476-0.35-0.726c-0.029-0.029-0.045-0.051-0.045-0.066c-0.014-0.016-0.027-0.021-0.033-0.021
	c-0.008,0-0.02-0.008-0.033-0.021L6.171,47.45c-0.057-0.059-0.107-0.096-0.152-0.109H3.491v6.396
	C3.534,54.001,3.687,54.207,3.95,54.354z M13.452,39.253c0.203,0.104,0.402,0.216,0.604,0.34c0.197,0.125,0.377,0.27,0.537,0.43
	c0.309,0.308,0.564,0.688,0.77,1.143c0.189,0.425,0.287,0.886,0.287,1.385v8.221c0,0.513-0.098,0.98-0.287,1.405
	c-0.205,0.456-0.461,0.837-0.77,1.146c-0.16,0.16-0.34,0.303-0.537,0.429c-0.201,0.124-0.4,0.237-0.604,0.34
	c-0.428,0.191-0.896,0.287-1.408,0.287c-0.529,0-0.988-0.096-1.385-0.287c-0.455-0.205-0.836-0.461-1.143-0.769
	c-0.338-0.338-0.6-0.719-0.793-1.146c-0.191-0.424-0.285-0.893-0.285-1.405V42.55c0-0.499,0.094-0.959,0.285-1.385
	c0.193-0.424,0.455-0.805,0.793-1.143c0.307-0.31,0.688-0.565,1.143-0.771c0.396-0.19,0.855-0.286,1.385-0.286
	C12.556,38.967,13.024,39.063,13.452,39.253z M13.253,40.045c-0.338-0.351-0.756-0.528-1.252-0.528c-0.25,0-0.469,0.045-0.662,0.133
	c-0.203,0.103-0.385,0.234-0.547,0.396c-0.16,0.161-0.285,0.353-0.375,0.571c-0.086,0.22-0.131,0.453-0.131,0.703v10.746
	c0,0.252,0.045,0.485,0.131,0.705c0.09,0.22,0.215,0.41,0.375,0.571c0.174,0.177,0.359,0.302,0.547,0.374
	c0.193,0.104,0.412,0.155,0.662,0.155c0.496,0,0.914-0.177,1.252-0.528c0.338-0.365,0.508-0.791,0.508-1.275V41.319
	C13.761,40.836,13.591,40.411,13.253,40.045z M18.972,54.375H16.29c0.176-0.103,0.307-0.233,0.395-0.396
	c0.016-0.015,0.025-0.028,0.025-0.045c0-0.015,0.006-0.037,0.021-0.064c0-0.061,0.006-0.096,0.02-0.11V39.562
	c-0.041-0.25-0.197-0.455-0.461-0.615h2.637h0.264c0.047,0.014,0.117,0.021,0.221,0.021c0.482,0.074,0.922,0.214,1.316,0.418
	c0.398,0.234,0.758,0.521,1.076,0.858c0.295,0.336,0.531,0.724,0.705,1.165c0.178,0.438,0.266,0.901,0.266,1.384
	c0,0.777-0.199,1.458-0.592,2.044c-0.385,0.601-0.902,1.07-1.562,1.406v0.022c0.029,0.016,0.064,0.026,0.107,0.033
	c0.047,0.008,0.084,0.018,0.111,0.033c0.029,0.016,0.064,0.029,0.1,0.044c0.037,0.015,0.068,0.03,0.098,0.043
	c0.588,0.278,1.033,0.697,1.34,1.253c0.266,0.439,0.398,0.93,0.398,1.473v4.66c0.045,0.221,0.174,0.41,0.395,0.571h-2.594
	c0.119-0.06,0.215-0.14,0.285-0.243c0.09-0.086,0.146-0.212,0.176-0.372v-4.594c0-0.47-0.143-0.872-0.438-1.209
	c-0.311-0.322-0.682-0.521-1.123-0.593H18.53v6.439C18.606,54.052,18.751,54.243,18.972,54.375z M20.642,44.595
	c0.322-0.542,0.484-1.193,0.484-1.957c0-0.41-0.053-0.791-0.154-1.143c-0.119-0.366-0.258-0.682-0.418-0.945
	c-0.176-0.277-0.381-0.498-0.617-0.66c-0.248-0.188-0.496-0.293-0.746-0.308h-0.283l-0.377-0.022v6.088h0.859
	C19.888,45.517,20.306,45.166,20.642,44.595z M23.788,54.331c0.266-0.146,0.418-0.352,0.463-0.615V39.606
	c-0.045-0.25-0.197-0.455-0.463-0.616h6.529v1.911h-0.223c-0.07-0.309-0.197-0.549-0.371-0.726c-0.016-0.015-0.021-0.03-0.021-0.043
	c-0.014-0.015-0.025-0.022-0.033-0.022s-0.02-0.008-0.035-0.021c-0.307-0.309-0.646-0.47-1.01-0.482h-2.639v6.021h2.508
	c0.131-0.073,0.225-0.153,0.285-0.242c0.014-0.015,0.023-0.022,0.031-0.022s0.02-0.006,0.033-0.022l0.045-0.021
	c0.162-0.221,0.277-0.469,0.352-0.747h0.244v3.823h-0.244c-0.074-0.263-0.189-0.498-0.352-0.703
	c-0.029-0.029-0.045-0.051-0.045-0.066c-0.014-0.016-0.025-0.021-0.033-0.021s-0.018-0.008-0.031-0.021l-0.133-0.133
	c-0.057-0.059-0.111-0.096-0.152-0.109h-2.508v6.354h2.639c0.219-0.03,0.41-0.082,0.572-0.155c0.145-0.058,0.291-0.161,0.438-0.308
	c0.029-0.027,0.052-0.051,0.06-0.065c0.007-0.015,0.017-0.028,0.031-0.044c0.174-0.176,0.301-0.41,0.371-0.703h0.223v1.912H23.788z
	 M33.196,50.968l-1.537-9.671l-0.283-1.757c-0.061-0.293-0.215-0.498-0.463-0.616h2.508c-0.19,0.147-0.278,0.337-0.266,0.571v0.044
	l0.041,0.285l0.158,0.946l1.537,9.625l1.252-6.681v-0.044l0.176-0.968l0.553-2.989l0.041-0.175v-0.088
	c0-0.19-0.041-0.367-0.133-0.528h1.518c-0.202,0.161-0.358,0.352-0.461,0.571v0.044l-0.461,2.439l-0.42,2.308l-0.371,1.891
	l-1.297,6.945l-0.223,1.274h-1.338L33.196,50.968z M38.897,54.331c0.266-0.146,0.418-0.352,0.461-0.615V39.606
	c-0.043-0.25-0.195-0.455-0.461-0.616h6.529v1.911h-0.223c-0.072-0.309-0.197-0.549-0.373-0.726
	c-0.015-0.015-0.021-0.03-0.021-0.043c-0.014-0.015-0.025-0.022-0.033-0.022s-0.018-0.008-0.035-0.021
	c-0.305-0.309-0.643-0.47-1.01-0.482h-2.637v6.021H43.6c0.131-0.073,0.227-0.153,0.287-0.242c0.012-0.015,0.023-0.022,0.031-0.022
	c0.006,0,0.018-0.006,0.031-0.022l0.045-0.021c0.164-0.221,0.276-0.469,0.352-0.747h0.242v3.823h-0.242
	c-0.074-0.263-0.188-0.498-0.352-0.703c-0.029-0.029-0.045-0.051-0.045-0.066c-0.015-0.016-0.025-0.021-0.031-0.021
	c-0.008,0-0.021-0.008-0.031-0.021l-0.133-0.133c-0.062-0.059-0.113-0.096-0.154-0.109h-2.506v6.354h2.637
	c0.219-0.03,0.41-0.082,0.572-0.155c0.146-0.058,0.293-0.161,0.438-0.308c0.031-0.027,0.051-0.051,0.057-0.065
	c0.009-0.015,0.021-0.028,0.033-0.044c0.176-0.176,0.301-0.41,0.373-0.703h0.223v1.912H38.897z M48.726,54.375h-2.683
	c0.177-0.103,0.31-0.233,0.396-0.396c0.015-0.015,0.022-0.028,0.022-0.045c0-0.015,0.006-0.037,0.021-0.064
	c0-0.061,0.008-0.096,0.021-0.11V39.562c-0.043-0.25-0.197-0.455-0.461-0.615h2.637h0.264c0.043,0.014,0.117,0.021,0.221,0.021
	c0.484,0.074,0.922,0.214,1.318,0.418c0.396,0.234,0.752,0.521,1.076,0.858c0.295,0.336,0.529,0.724,0.705,1.165
	c0.178,0.438,0.262,0.901,0.262,1.384c0,0.777-0.197,1.458-0.592,2.044c-0.381,0.601-0.902,1.07-1.562,1.406v0.022
	c0.031,0.016,0.068,0.026,0.111,0.033c0.043,0.008,0.082,0.018,0.109,0.033c0.029,0.016,0.062,0.029,0.102,0.044
	c0.035,0.015,0.068,0.03,0.098,0.043c0.586,0.278,1.033,0.697,1.34,1.253c0.263,0.439,0.396,0.93,0.396,1.473v4.66
	c0.045,0.221,0.177,0.41,0.396,0.571h-2.594c0.119-0.06,0.213-0.14,0.285-0.243c0.09-0.086,0.148-0.212,0.178-0.372v-4.594
	c0-0.47-0.147-0.872-0.438-1.209c-0.312-0.322-0.683-0.521-1.123-0.593h-0.944v6.439C48.358,54.052,48.504,54.243,48.726,54.375z
	 M50.396,44.595c0.321-0.542,0.483-1.193,0.483-1.957c0-0.41-0.055-0.791-0.153-1.143c-0.119-0.366-0.256-0.682-0.418-0.945
	c-0.175-0.277-0.382-0.498-0.617-0.66c-0.248-0.188-0.496-0.293-0.746-0.308h-0.284l-0.375-0.022v6.088h0.858
	C49.642,45.517,50.06,45.166,50.396,44.595z"/>
<path fill="#F2F2F2" d="M1.403,64.649H0.595v-5.14h0.809v2.203H2.32V59.51h0.824v5.142H2.319v-2.203H1.403V64.649z M6.343,64.649
	H5.528L5.39,63.718H4.397l-0.138,0.932H3.517l0.822-5.141h1.182L6.343,64.649z M4.501,63.021h0.777L4.889,60.42L4.501,63.021z
	 M9.11,60.78v0.669c0,0.821-0.396,1.27-1.203,1.27H7.524v1.933H6.718V59.51h1.189C8.714,59.51,9.11,59.958,9.11,60.78z
	 M7.524,60.244v1.739h0.383c0.256,0,0.396-0.117,0.396-0.483v-0.771c0-0.367-0.141-0.485-0.396-0.485H7.524z M11.878,60.78v0.669
	c0,0.821-0.396,1.27-1.203,1.27h-0.383v1.933H9.485V59.51h1.189C11.481,59.51,11.878,59.958,11.878,60.78z M10.292,60.244v1.739
	h0.383c0.258,0,0.396-0.117,0.396-0.483v-0.771c0-0.367-0.139-0.485-0.396-0.485H10.292z M12.993,62.947l-1.02-3.438h0.844
	l0.617,2.343l0.617-2.343h0.771l-1.021,3.438v1.704h-0.809L12.993,62.947L12.993,62.947z M17.501,63.704l0.619-4.194h0.74
	l-0.793,5.142h-1.205l-0.793-5.142h0.816L17.501,63.704z M21.665,64.649h-0.814l-0.141-0.933h-0.992l-0.139,0.933h-0.742
	l0.822-5.141h1.184L21.665,64.649z M19.821,63.021H20.6l-0.391-2.601L19.821,63.021z M22.038,59.51h0.807v4.406h1.33v0.733h-2.137
	V59.51z M25.335,61.676h1.109v0.734h-1.109v1.505h1.395v0.734h-2.203v-5.14h2.203v0.734h-1.395V61.676z M27.948,60.927v3.725H27.22
	V59.51h1.016l0.83,3.077V59.51h0.72v5.142h-0.83L27.948,60.927z M30.127,59.51h2.496v0.734H31.78v4.405h-0.809v-4.405h-0.844V59.51
	L30.127,59.51z M32.976,59.51h0.81v5.142h-0.81V59.51z M35.09,60.927v3.725h-0.727V59.51h1.014l0.828,3.077V59.51h0.721v5.142
	h-0.829L35.09,60.927z M38.313,61.676h1.109v0.734h-1.109v1.505h1.395v0.734h-2.203v-5.14h2.203v0.734h-1.395V61.676z
	 M40.208,60.288V59.51h0.777v0.698l-0.354,0.814h-0.328l0.211-0.733L40.208,60.288L40.208,60.288z M42.624,59.451
	c0.785,0,1.189,0.47,1.189,1.292v0.162h-0.764v-0.213c0-0.367-0.147-0.506-0.403-0.506c-0.258,0-0.403,0.14-0.403,0.506
	c0,1.058,1.579,1.256,1.579,2.725c0,0.823-0.411,1.293-1.204,1.293s-1.205-0.47-1.205-1.293v-0.316h0.764v0.368
	c0,0.367,0.162,0.5,0.42,0.5c0.256,0,0.418-0.133,0.418-0.5c0-1.058-1.58-1.256-1.58-2.725
	C41.433,59.921,41.838,59.451,42.624,59.451z M45.418,59.51h1.277c0.809,0,1.207,0.448,1.207,1.271v2.601
	c0,0.822-0.398,1.271-1.207,1.271h-1.277V59.51z M46.228,60.244v3.672h0.455c0.258,0,0.412-0.132,0.412-0.5v-2.673
	c0-0.367-0.154-0.5-0.412-0.5L46.228,60.244L46.228,60.244z M51.022,64.649h-0.816l-0.139-0.933h-0.992l-0.139,0.933h-0.742
	l0.822-5.141H50.2L51.022,64.649z M49.179,63.021h0.776l-0.389-2.601L49.179,63.021z M51.792,62.947l-1.02-3.438h0.844l0.617,2.343
	l0.617-2.343h0.771L52.6,62.947v1.704h-0.809V62.947L51.792,62.947z"/>
</svg>
