<?xml version="1.0" encoding="utf-8"?><!DOCTYPE svg PUBLIC "-//W3C//DTD SVG 1.1//EN" "http://www.w3.org/Graphics/SVG/1.1/DTD/svg11.dtd"><svg version="1.1" baseProfile="full" xmlns="http://www.w3.org/2000/svg" xmlns:xlink="http://www.w3.org/1999/xlink" xmlns:ev="http://www.w3.org/2001/xml-events"   height="135px"   width="135px" ><path stroke="rgb( 14, 5, 10 )" stroke-width="0px" stroke-linecap="butt" stroke-linejoin="miter" fill="rgb( 255, 18, 0 )" d="M108.057,112.681 C108.194,112.728 108.33,112.785 108.468,112.825 C99.316,126.21 83.9109999999999,135 66.446,135 C47.4589999999999,135 30.915,124.608 22.1849999999999,109.221 C22.182,109.231 22.178,109.239 22.175,109.249 C8.78999999999996,100.096 0,84.692 0,67.226 C0,47.763 10.9160000000001,30.863 26.943,22.319 C26.806,22.272 26.67,22.215 26.532,22.175 C35.684,8.79000000000002 51.0890000000001,0 68.554,0 C87.5410000000001,0 104.085,10.392 112.815,25.779 C112.818,25.769 112.822,25.761 112.825,25.751 C126.21,34.904 135,50.308 135,67.774 C135,87.237 124.084,104.137 108.057,112.681 ZM66.446,126.416 C75.897,126.416 84.61,123.306 91.646,118.072 C89.239,118.423 86.7809999999999,118.613 84.277,118.613 C56.264,118.613 33.5549999999999,95.851 33.5549999999999,67.774 C33.5549999999999,63.83 34.016,59.997 34.8680000000001,56.313 C28.241,63.754 24.21,73.546 24.21,84.281 C24.21,107.552 43.12,126.416 66.446,126.416 ZM92.853,67.226 C92.853,59.85 90.963,52.918 87.647,46.884 C87.655,47.204 87.653,47.534 87.662,47.854 C81.426,44.231 74.182,42.147 66.446,42.147 C59.682,42.147 53.295,43.741 47.627,46.561 C47.702,46.559 47.779,46.56 47.854,46.558 C44.231,52.794 42.147,60.038 42.147,67.774 C42.147,75.15 44.037,82.082 47.353,88.116 C47.345,87.796 47.347,87.466 47.338,87.146 C53.574,90.769 60.818,92.853 68.554,92.853 C75.318,92.853 81.705,91.259 87.373,88.439 C87.298,88.441 87.221,88.44 87.146,88.442 C90.769,82.206 92.853,74.962 92.853,67.226 ZM8.58399999999995,67.226 C8.58399999999995,76.167 11.37,84.448 16.1,91.273 C15.783,88.985 15.607,86.652 15.607,84.277 C15.607,56.264 38.3680000000001,33.555 66.446,33.555 C70.33,33.555 74.1079999999999,34 77.74,34.826 C70.425,28.689 61.004,24.991 50.7190000000001,24.991 C27.448,24.991 8.58399999999995,43.9 8.58399999999995,67.226 ZM68.554,8.584 C59.103,8.584 50.39,11.694 43.354,16.928 C45.761,16.577 48.2190000000001,16.387 50.723,16.387 C78.736,16.387 101.445,39.149 101.445,67.226 C101.445,71.17 100.984,75.003 100.132,78.687 C106.759,71.246 110.79,61.454 110.79,50.719 C110.79,27.448 91.88,8.584 68.554,8.584 ZM118.9,43.727 C119.217,46.015 119.393,48.348 119.393,50.723 C119.393,78.736 96.6319999999999,101.445 68.554,101.445 C64.67,101.445 60.8920000000001,101 57.26,100.174 C64.575,106.311 73.996,110.009 84.2809999999999,110.009 C107.552,110.009 126.416,91.1 126.416,67.774 C126.416,58.833 123.63,50.552 118.9,43.727 Z "/></svg>