<?xml version="1.0" encoding="iso-8859-1"?>
<!-- Generator: Adobe Illustrator 17.0.0, SVG Export Plug-In . SVG Version: 6.00 Build 0)  -->
<!DOCTYPE svg PUBLIC "-//W3C//DTD SVG 1.1//EN" "http://www.w3.org/Graphics/SVG/1.1/DTD/svg11.dtd">
<svg version="1.1" xmlns="http://www.w3.org/2000/svg" xmlns:xlink="http://www.w3.org/1999/xlink" x="0px" y="0px" width="64px"
	 height="64px" viewBox="0 0 64 64" style="enable-background:new 0 0 64 64;" xml:space="preserve">
<g id="Layer_1">
	<g>
		<circle style="fill:#77B3D4;" cx="32" cy="32" r="32"/>
	</g>
	<g style="opacity:0.2;">
		<path style="fill:#231F20;" d="M37,14H27c-1.657,0-3,1.343-3,3v5v1v23l5.333,8L32,58l2.667-4L40,46V23v-1v-5
			C40,15.343,38.657,14,37,14z"/>
	</g>
	<g>
		<path style="fill:#C75C5C;" d="M40,21c0,1.657-1.343,3-3,3H27c-1.657,0-3-1.343-3-3v-6c0-1.657,1.343-3,3-3h10
			c1.657,0,3,1.343,3,3V21z"/>
	</g>
	<g>
		<rect x="24" y="20" style="fill:#E0995E;" width="4" height="24"/>
	</g>
	<g>
		<rect x="28" y="20" style="fill:#F5CF87;" width="8" height="26"/>
	</g>
	<g>
		<rect x="36" y="20" style="fill:#E0995E;" width="4" height="24"/>
	</g>
	<g>
		<g>
			<polygon style="fill:#4F5D73;" points="32,56 34.667,52 29.333,52 			"/>
		</g>
		<g>
			<polygon style="fill:#FFFFFF;" points="24,44 29.333,52 34.667,52 40,44 38,44 36,42 32,46 28,42 26,44 			"/>
		</g>
	</g>
</g>
<g id="Layer_2">
</g>
</svg>
