<?xml version="1.0" encoding="iso-8859-1"?>
<!-- Generator: Adobe Illustrator 17.0.0, SVG Export Plug-In . SVG Version: 6.00 Build 0)  -->
<!DOCTYPE svg PUBLIC "-//W3C//DTD SVG 1.1//EN" "http://www.w3.org/Graphics/SVG/1.1/DTD/svg11.dtd">
<svg version="1.1" id="objects" xmlns="http://www.w3.org/2000/svg" xmlns:xlink="http://www.w3.org/1999/xlink" x="0px" y="0px"
	 width="199.915px" height="135.35px" viewBox="0 0 199.915 135.35" style="enable-background:new 0 0 199.915 135.35;"
	 xml:space="preserve">
<g>
	<g>
		<g>
			<rect x="0" y="109.337" style="fill:#36AFAA;" width="187.872" height="26.013"/>
			<rect x="82.664" y="109.048" style="fill:#FAF0E4;" width="21.389" height="26.302"/>
			<rect x="0" y="120.031" style="fill:#FAF0E4;" width="187.872" height="4.336"/>
		</g>
		<g>
			<rect x="12.043" y="67.226" style="fill:#FDAF17;" width="187.872" height="42.593"/>
			<rect x="94.707" y="66.752" style="fill:#F34B3E;" width="21.388" height="43.066"/>
			<rect x="12.043" y="84.736" style="fill:#F34B3E;" width="187.872" height="7.1"/>
		</g>
		<g>
			<path style="fill:#F34B3E;" d="M93.069,25.516C93.5,16.796,74.678-10.883,69.346,4.64c-1.699,4.947-0.057,8.814,4.302,11.3
				c6.608,3.769,13.366,5.324,19.614,10.154"/>
			<path style="fill:#F34B3E;" d="M92.004,25.516c-0.431-8.72,18.391-36.399,23.722-20.876c1.699,4.947,0.057,8.814-4.301,11.3
				c-6.608,3.769-13.366,5.324-19.614,10.154"/>
			<g>
				<rect x="54.146" y="24.456" style="fill:#F34B3E;" width="75.534" height="42.583"/>
				<rect x="86.229" y="24.456" style="fill:#FAF0E4;" width="10.984" height="42.583"/>
				<rect x="54.146" y="41.957" style="fill:#FAF0E4;" width="75.534" height="7.099"/>
			</g>
		</g>
	</g>
</g>
</svg>
