<?xml version="1.0" encoding="utf-8"?>
<!-- Generator: Adobe Illustrator 17.0.0, SVG Export Plug-In . SVG Version: 6.00 Build 0)  -->
<!DOCTYPE svg PUBLIC "-//W3C//DTD SVG 1.1//EN" "http://www.w3.org/Graphics/SVG/1.1/DTD/svg11.dtd">
<svg version="1.1" id="图层_1" xmlns="http://www.w3.org/2000/svg" xmlns:xlink="http://www.w3.org/1999/xlink" x="0px" y="0px"
	 width="32.031px" height="30.125px" viewBox="0 0 32.031 30.125" enable-background="new 0 0 32.031 30.125" xml:space="preserve">
<path fill="#345CC1" d="M29.173,13.81c2.854,0,2.777-0.163,2.777,2.624c0,3.796,0.058,5.801,0.05,9.597c-0.003,1.374-1.61,2.997-3,3
	c-3.808,0.009-6.193,0.01-10,0c-1.458-0.004-1.992-1.523-2-3c-0.011-2.057,0-2.943,0-5c0-2.093-0.014-2.907,0-5
	c0.009-1.305,0.392-2.359,1.723-2.383c0.073-0.002,0.145-0.001,0.218-0.001c1.64-0.014,1.641-0.014,1.642-1.671
	c0.001-3.193-0.003-6.385,0.003-9.578c0.002-1.502,0.228-1.631,1.758-1.643c0.761-0.005,1.515,0.013,2.276,0
	c0.936-0.016,1.4,0.297,1.436,1.242c0.071,1.848,0.097,1.847,2.026,1.85c0.834,0.002,1.668,0.014,2.502,0
	c0.887-0.015,1.368,0.36,1.363,1.261c-0.006,1.029-0.004,2.057-0.001,3.086c0.002,0.83-0.414,1.247-1.265,1.249
	c-1.196,0.002-2.393,0.025-3.59,0.002c-0.728-0.014-1.019,0.264-1.053,0.997C25.886,13.647,25.945,13.81,29.173,13.81z M26,20.031
	c-0.006-0.392-0.548-0.985-1-1c-0.831-0.027-1.169-0.035-2,0c-0.462,0.019-0.997,0.622-1,1c-0.008,0.992-0.007,2.008,0,3
	c0.004,0.501,0.831,0.736,1.356,0.82c2.398,0.173,2.698,0.113,2.644-1.82C26,21.535,26.007,20.527,26,20.031z M16.222,9.408
	C15.538,9.474,15.021,9.445,15,10.031c-0.129,3.612,0.09,7.645-0.053,11.257c-0.025,0.633,0.029,1.173,0.624,1.646
	c0.613,0.486,0.453,4.836-0.102,5.364c-0.338,0.322-0.773,0.415-1.228,0.467c-3.778,0.432-7.554,0.875-11.331,1.306
	c-1.666,0.19-1.96-0.026-2.21-1.628c-0.129-0.829-0.21-1.666-0.328-2.497c-0.129-0.906,0.172-1.525,1.163-1.644
	c0.8-0.097,1.037-0.528,1.011-1.275c-0.15-4.197-0.277-8.395-0.394-12.593C2.135,9.832,1.931,9.483,1.286,9.377
	c-0.789-0.13-1.117-0.684-1.13-1.419C0.138,6.935-0.025,7.054,0,6.031c0.023-0.978,0.952-2.076,2-2c0.557,0.04,1.44,0.001,2,0
	c2.554-0.001,1.828,0.435,2-2c0.058-0.816,0.215-1.973,1-2c0.969-0.033,2.03-0.013,3,0c0.954,0.013,1.927,0.081,2,1
	c0.177,2.245-0.316,2.893,2.02,2.953c3.213,0.082,3.407-0.652,3.394,2.555c-0.002,0.475-0.01,0.951-0.004,1.426
	C17.421,8.77,17.091,9.325,16.222,9.408z M10,10.031c0.026-0.678-0.506-0.599-1.239-0.6C8.037,9.43,7.736,9.74,7.775,10.429
	c0.018,0.328,0.003,0.658,0.003,1.278c0.334,3.248,0.155,6.796,0.234,10.34c0.006,0.292,0.018,0.585,0.048,0.876
	c0.023,0.219,0.152,0.335,0.358,0.526c0.437,0.405,1.603-0.109,1.582-0.418c-0.018-0.258-0.015-0.599,0-1
	c0.042-1.095-0.039-1.905,0-3C10.099,16.256,9.895,12.805,10,10.031z"/>
</svg>
