<?xml version="1.0" encoding="utf-8"?>
<!-- Generator: Adobe Illustrator 17.0.0, SVG Export Plug-In . SVG Version: 6.00 Build 0)  -->
<!DOCTYPE svg PUBLIC "-//W3C//DTD SVG 1.1//EN" "http://www.w3.org/Graphics/SVG/1.1/DTD/svg11.dtd">
<svg version="1.1" id="图层_1" xmlns="http://www.w3.org/2000/svg" xmlns:xlink="http://www.w3.org/1999/xlink" x="0px" y="0px"
	 width="64px" height="64px" viewBox="0 0 64 64" enable-background="new 0 0 64 64" xml:space="preserve">
<path fill="#E0E0D1" d="M32,0c17.673,0,32,14.327,32,32S49.673,64,32,64S0,49.673,0,32S14.327,0,32,0z"/>
<path opacity="0.2" fill="#231F20" d="M32,12c-12.15,0-22,9.85-22,22s9.85,22,22,22s22-9.85,22-22S44.15,12,32,12z M48,34
	c0,3.329-1.024,6.423-2.771,8.986L23.014,20.771C25.577,19.024,28.671,18,32,18C40.822,18,48,25.178,48,34z M16,34
	c0-3.329,1.024-6.423,2.771-8.986l22.215,22.215C38.423,48.976,35.329,50,32,50C23.178,50,16,42.822,16,34z"/>
<path fill="#C75C5C" d="M32,10c-12.15,0-22,9.85-22,22s9.85,22,22,22s22-9.85,22-22S44.15,10,32,10z M48,32
	c0,3.329-1.024,6.422-2.771,8.986L23.014,18.771C25.578,17.024,28.671,16,32,16C40.822,16,48,23.178,48,32z M16,32
	c0-3.33,1.025-6.423,2.772-8.987l22.215,22.215C38.423,46.975,35.33,48,32,48C23.178,48,16,40.822,16,32z"/>
</svg>
