<?xml version="1.0" encoding="utf-8"?>
<!-- Generator: Adobe Illustrator 17.0.0, SVG Export Plug-In . SVG Version: 6.00 Build 0)  -->
<!DOCTYPE svg PUBLIC "-//W3C//DTD SVG 1.1//EN" "http://www.w3.org/Graphics/SVG/1.1/DTD/svg11.dtd">
<svg version="1.1" id="图层_1" xmlns="http://www.w3.org/2000/svg" xmlns:xlink="http://www.w3.org/1999/xlink" x="0px" y="0px"
	 width="226.074px" height="140.108px" viewBox="0 0 226.074 140.108" enable-background="new 0 0 226.074 140.108"
	 xml:space="preserve">
<path fill="#EF3030" d="M189.395,5.11c-1.215-0.156-2.186-0.677-2.368-1.512l-3.583-0.364c-0.969-0.157-2.002-0.679-2.791-1.358
	h-3.155L174.704,1.2c-2.366,0.676-4.369,0.886-5.706,0.886l-0.242-0.521c-0.606,0.156-1.154,0.312-1.942,0.521
	c-0.79,0.312-1.64,0.47-2.429,0.47c-0.183-0.835,0-1.669,0.243-2.556l-1.398,0.209l-2.184,2.555
	c-0.79,0.835-1.821,1.514-2.793,2.035l-0.607-0.522l0.426-4.068l-2.611,0.155c-0.971,1.2-2.185,2.034-3.338,2.713h-0.79
	c-1.395,0.157-2.366,0.679-3.217,1.722c-1.579,0.52-3.521,0.833-6.131,0.678c-1.943-0.157-3.339-0.157-4.372,0.155
	c-1.395,0.522-2.548,1.723-3.519,3.602c-1.396,0-2.611,0-3.219-0.367c-0.607-0.312-0.971-0.99-1.76-2.033l-0.789-1.201
	c-1.82-0.99-3.764-1.198-5.767-0.833c-1.396,0.155-3.4,0.833-5.768,1.878c-1.941,0.678-3.338,1.199-4.369,1.512
	c-5.342,0-10.32-0.99-14.629-2.869c0-0.678,0.182-1.199,0.789-1.721l0.181-0.364l-0.181-0.157c-1.215,0-2.977,0-5.403,0
	c-4.128,0-7.285,0.157-9.471,0.522c0-1.043,0.365-1.878,0.548-2.712c-1.943,0-4.128,0.156-6.739,0.678
	c-1.396,0.156-3.763,0.678-6.494,1.513l-5.16,1.2c0.364-0.835,0.971-1.514,1.76-2.035l0.607-0.366V1.407
	c-1.214,0.157-2.792,0.679-4.796,1.67c-2.367,0.887-3.945,1.356-5.159,1.564l0.608-4.433c-0.973,0.155-1.762,0.991-2.978,2.347
	c-1.395,1.878-2.973,3.076-4.126,3.441c-0.243-0.678,0-1.355,0-2.398l0.182-2.034c-0.606,0.521-1.578,1.513-2.975,3.077
	c-1.397,1.878-2.793,3.025-3.764,3.391L45.04,3.964c-0.607,0.156-1.214,0.678-1.64,1.355l-0.364,0.678
	c0,1.67-0.424,3.078-1.213,4.226c-0.365,0.888-1.396,2.088-2.975,3.442c-0.608-0.52-0.972-1.564-1.153-3.077
	c0-1.199-0.426-1.878-0.607-2.034c-0.971,0.991-2.004,2.713-2.976,5.426c-0.607,1.721-1.213,2.921-1.577,3.755
	c-0.425-0.678-0.607-1.513-0.425-2.712c0-1.043,0-1.722-0.182-2.035c-2.005,2.191-2.794,4.747-2.186,7.981
	c0.182,1.878,1.215,4.801,2.976,8.556l1.213,2.557l-0.242,1.146l-5.159,1.043l-0.547-0.521l0.182-0.312
	c0.365-0.679,0.607-1.202,0.607-1.566c-1.396-0.469-2.609-0.833-3.581-0.99l-3.583-0.521c0-0.678,0.427-1.513,1.578-2.713
	l0.607-0.679l-0.424-0.209h-0.184h-0.181c-0.183-1.669,0-3.025,0.607-4.067c0.365-0.834,1.395-2.035,2.731-3.391l-0.363-0.679
	c-0.183-0.364-0.183-0.521-0.183-0.73l0.546-0.47c1.032-1.042,1.64-1.877,1.64-2.243c-1.64-0.155-2.976,0.366-4.613,1.567
	c-0.972,0.834-2.186,2.033-2.975,3.232l-1.336,3.391c-1.214,3.234-2.184,5.635-2.428,7.146c-2.186,0.523-3.945,1.565-5.523,3.233
	c-1.821,0.678-2.793,1.2-3.399,1.723c-0.79,0.677-1.155,1.878-1.155,3.233c0.972,1.877,2.186,2.921,3.765,3.233
	c0.79,0,2.368-0.156,4.552-0.834c2.185-0.678,3.765-0.887,4.978-0.887c0.972,2.243,1.336,4.435,0.788,6.521h-1.031l-2.184-2.399
	c-0.789-0.678-1.153-1.044-1.336-1.044c-0.607,1.2-1.031,2.4-1.396,3.6c-0.242,0.677-0.426,2.035-0.606,3.755l-2.792,0.157
	c0,0.833,0.182,2.191,0.607,4.068c0.607,1.878,0.789,3.234,0.789,4.277c-0.789,0-2.005-0.156-3.157-0.521l-0.79-0.156
	c-0.241,1.356-1.214,2.712-3.217,3.755l-0.788,1.357l-0.972,2.712c-0.971,1.356-0.971,2.557,0,3.442
	c0.972,0.834,1.397,1.671,1.397,2.557l-1.216,1.355L2.003,76.73c0,2.557,0.79,4.436,2.549,5.113
	c1.216,0.312,3.158,0.468,6.131,0.155c3.765-0.155,6.557,0.156,7.953,0.991l5.343,9.232l-0.184,3.6l-0.788-0.209
	c-0.607-2.347-1.215-4.224-2.004-5.424c-0.606-1.043-1.76-2.4-3.764-4.277c-0.363-1.043-0.789-1.721-0.971-2.191
	c-0.79,0.679-1.032,1.668-0.608,2.713c0.184,0.834,0.79,1.877,1.579,3.234l0.79,1.199v4.069c-0.183,1.877-0.365,3.077-0.79,3.442
	c-0.789-0.73-1.395-2.086-2.184-4.12L14.447,92.9c-1.152-1.722-2.187-2.556-3.338-2.556c-0.972-0.156-0.427,0.834,1.578,3.078
	c0.425,1.199,0.789,2.398,0.97,3.548l0.426,3.755l-7.769-1.357l0.424,0.365c0.789,1.356,1.579,2.349,2.368,3.026l2.367,0.886
	c3.399,0.992,5.403,2.035,6.374,2.87c1.396,1.198,2.55,3.233,3.582,6.52l-2.793-0.209c-0.425-0.156-0.972-0.678-1.76-1.513
	c-0.608-0.835-1.398-1.356-2.187-1.564v1.407c-1.213-0.364-2.184-1.199-3.217-2.398l-0.363-0.679h-0.79l-0.607,0.834
	c-0.789,0-2.367-0.521-4.977-1.876c-2.186-1.202-3.947-1.88-4.735-2.035c0.184,0.364,0.605,0.833,1.152,1.355l5.585,6.468
	l5.768,8.189c1.578,3.391,3.155,6.156,4.552,8.19c2.004,2.868,3.946,5.425,6.131,7.668c2.186,1.199,4.189,1.878,5.949,1.878
	c2.004,0.157,3.765-0.679,4.978-2.557l0.184-0.679c0.607-2.711,1.396-4.433,2.186-5.268c0.971-1.043,3.156-1.879,6.373-2.244
	c-0.242,0.521-0.426,1.043-1.031,1.515l-0.365,0.52c0.365,0,1.154,0.209,2.731,0.209h5.403c0,0.157-0.242,0.678-0.789,1.669
	l1.153-0.521c2.003-0.99,3.764-1.513,4.977-1.877c-0.606,0.887-1.761,1.564-3.156,2.555c-0.79,0.365-1.214,0.731-1.64,1.044
	l-4.31,4.955l4.129-0.156l4.007-2.243c1.578-0.834,2.549-1.357,2.975-1.721c1.152-0.157,2.731,0.364,4.552,1.408l2.187,1.146
	l5.948-0.155c3.338,0.678,6.92,0.834,10.684,0.521l1.214-0.366c1.761-0.679,2.975-0.991,3.764-0.991
	c1.397-0.155,2.792,0,4.128,0.523v0.99l-1.759,0.521v0.521l11.714,2.035c1.762-0.156,3.157-0.366,4.127-0.523
	c1.216-0.312,2.611-0.833,4.189-1.668c3.581-0.522,6.374-1.043,7.953-1.564c1.943-0.679,4.37-2.035,6.92-3.913l4.554-0.835
	l1.395-0.521c1.759-0.678,3.156-1.044,4.189-1.356c1.578-0.208,2.975,0,4.128,0.521v0.835l-4.917,3.547
	c0,1.198,0.971,2.243,3.156,2.764l4.977,0.314l15.238-0.99c2.609-0.211,4.977-0.679,6.919-1.202l4.371-1.878
	c1.396,0,3.765,0.157,6.738,0.679l6.375,0.835c2.002-0.156,3.398-0.521,4.553-0.835c0.787-0.364,2.185-0.834,3.944-1.722
	l1.215-0.678l2.366-0.313l0.791-0.365l0.607-0.833c0.788-1.044,1.395-1.723,1.82-1.88c0.364-0.156,1.335-0.156,2.976-0.156h0.788
	l1.153-1.198c0.607-0.887,1.579-1.356,2.609-1.356v3.547c-1.82,2.399-3.58,3.756-4.976,4.434c-1.397,0.521-3.765,0.678-7.164,0.678
	c-0.546,0.522-0.789,1.2-0.789,2.4c0,1.043,0.243,1.878,0.606,2.399l1.578-2.399l4.371-0.155c1.822,0,3.157-0.366,4.371-0.523
	c1.578,0,3.581,0,6.557-0.155c2.548,0,4.551,0,5.947,0c0,0.679-0.425,1.512-1.213,2.712l-0.79,1.2
	c3.582-1.566,5.159-3.912,5.159-6.834c-0.605-1.514-1.577-2.558-2.791-2.712c-0.547-0.157-1.762-0.157-3.521,0.154
	c-1.822,0.366-3.216,0.523-4.188,0.523v-1.044c0.789-0.834,2.365-1.877,4.552-3.233c3.157-1.723,5.16-3.235,6.374-4.591
	c-0.243-1.2-1.396-1.721-3.399-1.878c-1.396-0.157-2.186-0.364-2.55-0.521c0-1.201,0.79-2.19,2.186-2.869l0.789-0.365l0.182-2.869
	c0.972-0.888,1.579-2.087,1.762-3.6c0-1.512,0.605-2.713,1.396-3.599c-0.181-1.148-0.181-2.713,0.425-4.748l0.182-0.678v-0.157
	c-0.971-1.042-1.577-1.564-1.577-2.085c-0.183-0.312,0.181-0.991,0.79-2.035l-1.763-2.868c0-0.679,0.184-1.566,0.548-2.243
	l0.788-1.513l2.002-0.887c1.763-0.679,3.159-1.514,4.373-2.557c0.79-2.19,1.214-3.912,0.97-4.902
	c-0.18-1.409-1.152-2.557-3.337-3.444l-1.822-0.521c-1.578-0.313-2.731-0.678-3.156-0.99c-0.789-0.68-1.215-1.565-1.215-2.714
	l9.351-2.763c2.548-1.671,3.154-3.235,2.002-4.227c-0.79-0.887-2.609-1.722-5.585-2.557l-1.761-0.521l-1.214-11.58
	c-0.607-1.356-1.578-2.764-2.793-3.911c-0.546-0.731-1.76-1.722-3.338-3.286l-2.003-1.669V43.5v-0.521l2.003-1.566
	c0-0.676-0.607-1.512-1.578-2.346l-4.553-2.766c0.182-0.313,0.972-0.678,1.761-0.833c0.789-0.367,1.395-0.522,1.76-0.679
	c-0.184-0.835-0.971-1.565-2.549-2.034c-0.972-0.366-2.186-0.678-3.946-1.043l-1.214-0.157c0.425-2.034,2.002-2.921,4.734-2.555
	c1.822,0.312,4.007,0.99,6.373,2.19l-0.181,4.277c0,1.042,0.181,1.721,0.364,2.034l0.424-0.314c1.154-0.679,1.942-1.201,2.55-1.721
	c0.79-0.679,1.215-1.514,1.215-2.244l-1.396,0.366l-0.183-6.626c0.183-1.042,0.183-2.556,0-4.433
	c-0.243-1.2-0.243-2.244-0.243-2.766l1.397-0.469v-0.365v-0.156c-2.186-0.888-3.764-1.722-4.554-2.399
	c-1.578,0-3.156,0.521-4.733,1.355c-0.243,1.044,0.364,2.243,1.758,3.443c1.397,1.356,2.186,2.713,2.186,3.911
	c-1.579,0.157-2.974-0.365-4.37-1.356l-0.972-0.887c-1.395-0.521-2.975-0.521-4.795,0l-2.368,0.365v-1.877
	c1.032-2.556,1.215-4.799,0.607-6.469c-0.363-1.2-1.396-3.077-3.156-5.477l-1.821-2.556l-1.337,0.365l-0.424-1.566
	C190.973,5.477,190.366,5.319,189.395,5.11 M190.609,9.389c0,0.365-0.426,1.043-1.032,1.513l-0.363,0.365v0.365
	c-0.184,0.834-0.791,1.355-2.004,1.514C187.027,10.588,188,9.233,190.609,9.389 M188,7.511h-1.398l-1.942-1.514l0.182-0.887
	C186.602,5.11,187.816,5.997,188,7.511 M186.057,8.71l0.182,1.513l-2.002,0.209v-0.364c0-0.522,0.181-0.992,0.787-1.357
	L186.057,8.71 M192.004,12.102v0.886c-0.242,1.513-0.85,2.349-1.82,2.713v-0.156c0-1.199,0.426-2.398,0.971-3.233L192.004,12.102
	 M193.766,12.311c0.364-0.209,0.972-0.209,1.578-0.209c0,0.522-0.182,1.044-0.606,1.564v0.157l-1.154,0.157L193.766,12.311
	 M188,15.023l-1.155,1.723c0,0.676,0,1.146,0.183,2.033c0.365,0.835-0.425,1.512-2.004,2.189c-0.363-0.678-0.606-2.033-0.363-3.756
	l0.182-1.198c0.606-0.678,1.396-0.991,2.368-0.991L188,15.023 M189.214,22.846c0-0.521,0-0.989,0.182-1.356h2.185l0.182,1.045
	l-2.366,0.677L189.214,22.846 M190.609,19.613c-0.243-0.992-0.426-1.723-0.426-2.192c0.608-0.364,1.397-0.364,2.004-0.364
	c0.789,0.155,0.972,0.522,0.972,1.2l-0.183,0.156C192.188,19.091,191.397,19.455,190.609,19.613 M195.162,17.579l-0.425,0.155
	c-0.183-0.989-0.183-1.513,0-1.877l2.186,0.156V16.9C196.558,17.212,195.951,17.421,195.162,17.579 M193.766,20.135l0.182-0.366
	v-0.155l2.004,0.155c0,0.678-0.607,1.043-1.214,1.043l-0.607,0.156L193.766,20.135 M211.188,19.3l1.031,0.155
	c0.607,1.357,0.789,2.558,0.789,3.756h-0.607c-0.79-0.677-1.214-1.722-1.214-3.076L211.188,19.3 M208.82,18.621h0.788v2.347h-0.788
	V18.621 M155.461,3.077v0.887c-1.153,0.678-2.185,1.355-3.338,1.825c-1.396,0.523-2.366,1.044-3.582,1.044
	c0.426-0.836,1.216-1.723,2.792-2.556C152.911,3.442,154.308,3.077,155.461,3.077 M159.468,7.198V6.677l0.607-0.364
	c0.972-0.836,1.943-1.202,2.732-1.202l0.606,0.679l2.974,0.365c0.607,0.522,0,1.044-2.003,1.2l-3.338,0.156h-0.184L159.468,7.198
	 M156.857,9.909l-0.182-0.364l0.182-0.156l0.243-0.313h4.128v0.47L156.857,9.909 M156.068,10.745l2.975,0.156
	c-1.76,0.522-3.945,0.887-6.313,1.043l0.182-0.521C153.883,11.11,154.915,10.901,156.068,10.745 M142.169,8.346
	c0,1.408,0,2.086-0.184,2.399c-0.364,0.521-1.152,0.887-2.55,1.199l-0.606-0.312c0.182-0.365,0.363-0.731,0.606-1.409
	c0.606-0.678,0.79-1.356,0.79-1.669c-0.606-0.521-1.033-0.887-1.215-1.355c1.031,0,2.003,0.312,2.975,0.99L142.169,8.346
	 M146.78,12.987l0.184,0.835c-1.215,0.523-2.186,0.835-3.157,1.2l-1.396-0.834v-1.565c0.789-0.679,1.577-0.991,2.551-0.991
	l0.182,1.147L146.78,12.987 M150.121,14.865v0.679l-1.58,0.156v-0.522v-0.155v-0.157h1.58 M143.987,16.379l0.184-0.157
	c0.607,0,1.396,0.157,2.366,0.313c-0.363,1.199-1.395,1.878-2.731,2.243l-0.607,0.156l-0.181-0.156
	c-0.426-0.157-0.608-0.521-0.85-0.888C142.773,17.579,143.381,17.057,143.987,16.379 M142.169,23.003l0.241,0.208
	c1.577,0.837,2.732,1.513,3.946,2.191c1.76,1.2,2.792,2.034,2.974,2.713h-0.363l-1.032-0.47c-1.761-0.679-3.156-1.356-3.947-1.877
	C142.593,24.881,141.985,24.048,142.169,23.003 M148.967,21.334v-0.679c1.154,0.312,2.366,0.834,3.763,1.67
	c1.578,0.886,2.551,1.723,3.158,2.556h-0.79c-1.215-0.679-2.609-1.356-4.007-2.19l-2.124-1.201L148.967,21.334 M149.938,19.613
	l0.606-0.158c1.578,0.68,2.975,1.2,3.945,1.723c1.578,0.835,2.61,1.668,2.793,2.555h-0.607
	C154.49,22.691,152.306,21.334,149.938,19.613 M140.59,17.057l-0.184,0.678l-2.549,0.887l-2.61,0.679l-0.182-1.043l1.153-0.366
	C138.04,17.421,139.436,17.057,140.59,17.057 M158.254,16.745v0.467l-5.343,0.522v-0.522L158.254,16.745 M161.654,15.336h-1.215
	l-2.367-0.991l2.185,0.312l1.398,0.365L161.654,15.336 M161.836,11.944l-3.582,0.835l-5.159,0.886
	c0.425-0.886,1.578-1.354,4.006-1.564L161.836,11.944 M150.727,16.745l0.182-0.523l1.215-0.208l-0.182,0.521L150.727,16.745
	 M159.468,19.455l0.789,0.158v0.364l-2.974,0.469l-0.183-0.833C157.646,19.455,158.254,19.455,159.468,19.455 M158.861,21.857
	l-0.183-0.367c0.364-0.521,1.578-0.834,3.157-0.834h0.789l-0.184,0.679C161.047,21.489,159.833,21.857,158.861,21.857
	 M161.836,23.003l0.183-0.469l2.791-1.2c-0.607-1.356-0.425-2.556,0.364-3.443l0.607-0.47l-0.972-0.886
	c0-0.678,0.364-1.357,1.214-2.035c0.79-0.678,1.337-1.354,1.578-1.877c0.972-0.522,2.368-0.679,4.555-0.522l4.917,0.364
	c2.004,1.199,3.397,2.191,4.188,3.392c0.424,0.888,0.607,2.556,0.971,5.11v0.521c-0.363,1.356-1.579,2.713-3.763,3.757
	c-1.396,0.679-3.34,1.512-6.314,2.399l-2.369,0.834l-0.242-0.521c0.607-0.521,1.578-1.355,2.975-2.399l2.003-1.356l-0.182-1.199
	l-1.216-0.469c-0.787-0.365-1.395-0.888-1.76-1.566c-1.03,0-2.367,0.366-4.37,1.045C164.991,22.691,163.23,23.003,161.836,23.003
	 M178.47,6.154V6.99c-0.791,0.364-1.58,0.52-2.186,0.52l-0.183-1.356H178.47 M174.098,5.997c0,0.523,0,0.836,0,1.201l-2.367,0.312
	l-0.183-0.52c0-0.471,0.183-0.836,0.608-1.358C172.945,5.632,173.552,5.789,174.098,5.997 M174.341,10.588l0.182-1.199h1.578
	c0.425,0.365,0.607,0.834,0.789,1.199l-1.942,0.157L174.341,10.588 M178.893,10.432v-0.209c0-0.678,0.364-1.356,0.79-1.877h0.605
	c0.973,0.208,1.396,0.729,1.396,1.408l-2.186,0.834L178.893,10.432 M183.628,6.312c0.425,0.364,0.608,0.678,0.608,1.354l-1.58,0.365
	l-1.395-0.156l0.181-0.522c0.243-0.835,0.79-1.2,1.821-1.2h0.181L183.628,6.312 M169.97,4.954V5.11v0.521l-1.82,0.157l-0.548-0.312
	l-0.241-1.199l0.425,0.156C168.573,4.434,169.363,4.642,169.97,4.954 M164.022,9.754h-0.183c0.362-1.722,1.151-2.087,2.73-1.408
	v1.408l-2.186,0.155L164.2,9.754H164.022 M168.392,8.189h1.153l0.242,0.157c0.183,0.364,0.365,0.888,0.365,1.408l-0.972,0.155
	l-0.789-0.364L168.392,8.189 M164.385,13.665c-0.971-1.199-0.545-1.877,1.396-2.242l-0.365,2.034L164.385,13.665 M183.444,12.987
	l-1.395,0.158l-1.578-0.68l0.183-0.834c1.216-0.731,2.186-0.887,2.791-0.521L183.444,12.987 M183.444,22.691l0.427-0.521h1.152
	c0,0.521-0.182,1.355-0.971,2.242l-0.608,0.835h-0.788l-0.424-0.365C182.232,24.048,182.656,23.368,183.444,22.691 M177.498,28.323
	l-0.425,0.156c-0.548,0.157-0.973,0.524-1.154,1.201h-2.367c-0.243-1.201,0.789-1.879,3.156-2.035h0.79L177.498,28.323
	 M182.232,32.234c-0.184-0.677-0.363-1.355-0.184-2.241h2.793C184.842,31.193,184.053,32.08,182.232,32.234 M183.264,34.114h0.181
	l0.184,1.668l-2.186,0.365c-0.546-0.365-0.972-0.677-1.153-1.044C180.653,34.426,181.686,34.114,183.264,34.114 M170.76,24.048
	h0.971c0,0.676-0.183,1.354-0.365,1.877l-0.79,0.364l-0.423-0.521C170.335,25.089,170.575,24.411,170.76,24.048 M167.967,24.048
	l1.031-0.157c-0.242,1.198-0.849,2.555-1.638,3.911l-1.153,0.313c0-1.148,0.363-2.347,1.153-3.234L167.967,24.048 M184.053,39.538
	l-0.608-0.312c-0.362-0.521-0.605-1.043-0.605-1.565l2.792-0.311c0,0.676,0,1.512-0.424,2.189L184.053,39.538 M174.341,39.069
	l0.182-0.209c0.972,1.043,1.761,2.765,2.367,4.643l1.032,0.312c1.155,0.522,1.942,0.679,2.124,1.043
	c0.607,0.315,1.216,0.991,2.003,2.191l2.368,0.521c1.214,0.157,2.428,1.045,3.764,2.401l0.85,0.156c1.336,0,2.731,0.521,3.946,1.355
	l-0.182,1.043c-3.765,0.835-6.557,0-8.559-2.242l-0.792-0.156c0.184,1.198,0.608,2.398,1.216,3.233l6.132,1.044l0.181,0.313
	l-7.101,0.155h-1.822l-1.76,0.365c-2.791,0.835-4.795,1.044-5.948,1.199V55.55h-20.639v-4.591h20.639v-0.834
	c1.396-1.043,3.157-1.043,4.917,0v0.678c-0.364,0.521-1.154,0.678-2.368,1.044l-0.606,0.156v0.521l1.215,0.679
	c2.548-0.208,3.944-1.566,3.944-3.912c-1.153-1.042-3.339-1.565-6.312-1.565h-0.789V47.57v-1.354h-20.639v-4.435h20.639v-2.712
	 M150.908,24.724c1.397,0.835,2.368,1.565,2.611,2.243h-1.214c-0.364-0.521-1.215-1.042-2.367-1.721
	c-1.397-0.679-2.186-1.355-2.368-2.035C148.967,23.891,149.938,24.411,150.908,24.724 M152.306,28.115h-0.364
	c-2.611-1.357-4.978-2.869-7.347-4.747c0.79,0,2.186,0.522,4.372,1.721C150.908,26.445,152.123,27.28,152.306,28.115
	 M143.987,28.479c-1.577-0.834-2.791-1.354-3.581-1.877c-1.214-0.834-2.002-1.722-2.184-2.4c0.425,0,1.82,0.679,3.947,2.243
	c2.426,1.356,3.58,2.191,3.824,2.558h-1.215L143.987,28.479 M140.59,24.881c-0.79-0.47-1.154-0.99-1.397-1.356h0.243
	c1.154,0.366,1.942,0.887,2.186,1.722h-0.425L140.59,24.881 M145.385,31.193h-0.79c-2.185-0.992-4.369-2.557-6.737-4.435v-0.155
	V26.08c0.547,0,1.942,0.678,3.946,2.035C143.807,29.681,144.961,30.671,145.385,31.193 M140.042,41.781v4.435H90.63v-4.435H140.042
	 M140.042,50.962v4.591h-19.241v15.179h19.241v3.755H90.63v-3.755h19.425V55.553H90.63v-4.591H140.042 M162.625,60.194v5.947
	h-30.171v-5.947H162.625 M208.457,26.758l0.97-0.155v1.721h-0.79L208.457,26.758 M210.641,27.125l0.183-0.522l0.788,0.155
	c0,1.2,0,1.879-0.181,2.399h-0.607C210.216,28.637,210.216,27.958,210.641,27.125 M206.636,26.08l0.788-0.155v1.512l-0.788,0.209
	V26.08 M204.45,25.925v-0.522c0.242-0.156,0.607-0.156,1.03-0.156c0.365,0.679,0.365,1.357,0,2.034l-0.606,0.156
	C204.45,26.967,204.268,26.445,204.45,25.925 M202.689,24.881l0.181,1.722h-0.971c0-0.834,0-1.514,0-1.722H202.689 M199.896,25.925
	h0.789c0.425,0.521,0.607,1.2,0.607,1.721l-0.789,0.156C200.079,27.28,199.896,26.603,199.896,25.925 M198.137,27.125l0.97,0.155
	c0.184,0.365,0.426,1.043,0.426,1.877h-0.789C198.5,28.846,198.318,28.115,198.137,27.125 M196.558,28.846h0.789h0.184v0.157
	c0.425,0.678,0.606,1.355,0.425,1.877l-0.244,0.157c-0.788-0.157-1.153-0.836-1.153-1.88v-0.311 M191.397,24.048
	c0.364-0.157,1.397-0.315,2.732-0.315c-0.547,1.514-1.335,2.348-2.732,2.557V24.048 M191.762,27.646l2.368-0.365
	c-0.547,0.521-1.942,1.043-4.128,1.357l-1.215,0.366v-0.68L191.762,27.646 M186.602,25.925h2.004v0.833
	c-0.79,0.367-1.579,0.522-2.186,0.679L186.602,25.925 M187.21,34.792l-0.183-1.565c0.607-0.312,0.973-0.469,1.579-0.155
	c0.607,0.155,0.789,0.677,0.789,1.354L187.21,34.792 M195.526,32.914l-0.364-2.034c1.395,0.157,1.761,0.835,1.395,2.034H195.526
	 M191.762,41.261V40.74c-0.182-0.313,0-0.68,0.242-0.992h1.762v0.834C193.159,40.948,192.369,41.104,191.762,41.261 M192.188,36.669
	h0.365c0.242,0.313,0.424,0.522,0.242,0.68l-2.611,0.676l-0.606-0.676C190.184,36.825,190.973,36.669,192.188,36.669
	 M187.816,41.104c0.79-0.364,1.397-0.522,1.761-0.522c0.425,0.367,0.425,0.834,0.243,1.512l-0.243,0.21H188L187.816,41.104
	 M193.947,45.329l-1.578-0.471l0.184-1.198l0.607-0.157c0.606-0.365,1.213-0.365,1.82-0.209l0.364,1.564
	C195.162,45.017,194.555,45.173,193.947,45.329 M202.689,37.349l0.789,0.676l3.157,1.045v0.469h-1.578h-0.365
	c-1.638-0.469-2.61-0.99-3.217-1.355c-0.972-0.678-1.579-1.358-1.761-2.557C200.686,35.782,201.718,36.304,202.689,37.349
	 M205.664,40.581l1.214,0.367v0.312l0.183,0.154l-2.003,0.21h-0.184c-3.156-0.521-5.159-1.044-6.556-1.565
	c-2.186-0.834-3.339-2.399-3.581-4.277h2.609l0.364,0.521c0.789,1.045,1.396,1.879,2.004,2.244c0.364,0.521,1.578,0.99,2.975,1.669
	L205.664,40.581 M199.532,45.017c0.183,0.156,0.364,0.833,0.364,1.877h-3.339C196.923,45.537,197.955,45.017,199.532,45.017
	 M205.48,45.329c-1.03,0.365-1.819,0.521-2.791,0.729c-0.184-1.407,0.607-2.086,2.185-2.243l0.184,0.157
	C205.48,44.494,205.48,44.858,205.48,45.329 M207.666,49.085l-1.03,0.208l-0.364-0.364c-0.791-0.522-1.033-1.045-0.791-1.514
	l2.549-0.209C208.029,48.093,207.849,48.771,207.666,49.085 M202.689,47.884l0.181,1.723h-1.941
	c-0.607-0.678-0.85-0.991-0.243-1.355C201.11,48.093,201.718,47.884,202.689,47.884 M205.058,52.526l-0.184-0.677l2.792-0.211
	l-0.242,1.358v0.208h-1.152L205.058,52.526 M197.347,52.84h0.79v0.678l-2.975,0.523c-0.607-0.314-0.607-0.68-0.425-1.044V52.84
	H197.347 M207.424,56.438c-1.152-0.521-1.152-1.044-0.363-1.355c0.788-0.364,1.576-0.521,2.548-0.521
	c0,0.678-0.182,1.356-0.363,1.722L207.424,56.438 M206.271,62.542c-0.243,0.731-0.607,1.409-1.214,1.722
	c0-1.513,0-2.713,0.423-3.755h0.791C206.271,61.395,206.271,62.073,206.271,62.542 M202.082,69.062h-0.364
	c0-1.044,0.788-1.565,2.367-1.565h0.607c0.182,0.157,0.365,0.521,0.182,0.887C204.268,68.854,203.296,69.062,202.082,69.062
	 M200.686,70.054v0.886l-2.975,0.835c-0.788-0.677-0.788-1.2,0.244-1.721C198.926,69.74,199.896,69.74,200.686,70.054
	 M207.666,68.696l-0.605,0.158l0.182-3.913h0.787v0.521C208.213,66.663,208.029,67.654,207.666,68.696 M211.431,51.85l-1.215,0.156
	c-0.607-0.68-0.607-1.565,0.425-2.557h1.578C212.219,50.284,212.037,50.962,211.431,51.85 M212.401,56.074l0.182-0.521h1.214v0.73
	c0.184,1.513-0.424,2.347-1.396,2.347C211.611,57.796,211.611,56.961,212.401,56.074 M214.404,61.186v0.888h-2.003l-0.183-0.365
	l0.364-0.313L214.404,61.186 M211.431,66.506c0.181,2.557-0.426,4.226-1.822,4.592c0.243-2.557,0-5.635-0.363-9.024
	C210.398,62.229,211.188,63.742,211.431,66.506 M218.168,65.984v-0.521c1.578,0,2.974,0.365,4.371,0.835
	c1.578,0.887,2.549,1.721,2.731,2.921l-2.549,0.521c-0.425,0-0.608-0.521-0.789-0.886l-0.184-0.313l-1.395-1.199L218.168,65.984
	 M213.615,87.11l3.339-0.521c0.789-0.313,1.821-1.201,2.792-2.714c0.79-1.199,1.762-2.032,2.551-2.397
	c-0.184,2.713-0.789,4.589-2.186,5.633c-0.789,0.678-2.974,1.357-6.131,2.035l-1.397,0.156l-8.498,0.887
	c-1.03-1.721-0.424-2.766,1.943-3.078c1.214-0.365,3.398-0.365,6.373-0.155L213.615,87.11 M212.037,92.9h0.364
	c0.607,2.035,0.972,3.6,0.789,4.956l-0.607,0.156C212.219,96.292,212.037,94.622,212.037,92.9 M209.062,91.544l0.183,0.521
	c-0.425,0.679-1.032,1.2-1.821,1.669c-0.546-0.469-0.788-0.99-0.788-1.878v-0.155c0.242-0.157,0.788-0.312,1.577-0.157
	L209.062,91.544 M207.666,71.411v0.208c0,1.146-0.424,1.878-1.395,2.033c0-0.678,0.182-1.355,0.364-2.033L207.666,71.411
	 M204.268,73.497c-0.365,0.155-0.79,0.468-1.398,0.677h-0.181l-0.79-0.209l0.183-1.356c0.424-0.156,0.973-0.156,2.003-0.156
	C204.45,72.766,204.692,73.131,204.268,73.497 M203.903,76.208l0.971,0.156l0.364,0.365v0.158c-0.181,0.312-0.97,0.677-1.942,0.99
	l-0.607,0.208l-0.972-0.365C201.718,76.729,202.506,76.208,203.903,76.208 M197.347,75.688v-1.202
	c0.184-0.312,0.972-0.312,2.186-0.155h0.79l-0.243,0.835L197.347,75.688 M199.106,79.078c0.184,0.365,0.184,0.886,0.184,1.722
	l-2.367,1.511c-0.972,0.679-1.761,1.201-1.943,1.564c-0.425,0.68-0.425,1.724,0,3.08c1.153,0.468,2.367,0.678,3.764,0.468
	c-0.243-0.468-0.606-0.834-1.396-1.147l-0.424-0.209v-1.198l0.424-0.156c1.943-0.679,3.582-0.679,4.735,0
	c0,2.711-1.153,4.277-3.339,4.955c-1.213,0.313-3.581,0.313-6.981-0.156l-4.369-0.365c-0.79-0.313-1.579-0.836-2.732-1.513
	c-1.032-0.522-1.578-0.888-2.004-1.044l-3.156-0.156l-1.214-0.366c0-0.679,0.791-1.668,2.367-3.233L181.444,82
	c-0.364-1.042-0.972-1.877-1.578-2.398c-0.787-0.521-1.578-0.521-2.791,0v0.521v0.156l1.638,0.679v1.198l-1.396,0.835
	c-2.004,1.201-3.217,1.565-4.006,1.409v0.156v0.157h-19.606v-5.269h20.639v-1.723c1.578-0.679,3.763-0.521,6.312,0l2.975,0.678
	l0.425-0.156c2.368-0.364,3.947-0.521,4.978-0.364c1.336,0.364,2.124,1.408,2.55,3.078c-0.426,1.198-1.214,1.877-2.003,2.242
	l-2.975,0.156h-0.546v-0.156v-1.565l1.336-1.513c0-0.157,0-0.365,0-0.365c-2.186,0-3.34,0.887-3.34,2.398
	c-0.182,1.358,0.789,2.558,2.975,3.079c1.76,0,3.156-0.365,4.127-1.043c0.426-0.471,1.033-1.357,1.641-2.557
	c0.546-1.513,1.152-2.712,1.76-3.548C195.768,78.086,197.347,78.398,199.106,79.078 M207.424,82.154l0.242,1.2
	c-0.788,0.679-1.82,1.044-3.581,1.044h-0.182l-3.399-1.565c0-1.355,0.789-2.033,2.792-2.033
	C204.692,80.956,206.028,81.478,207.424,82.154 M201.476,92.9v-1.044h2.428v1.878h-1.214L201.476,92.9 M205.664,101.09
	c-0.606-0.679-0.606-1.199,0-1.564h2.185l0.181,1.043L205.664,101.09 M206.636,95.612l0.242,0.523
	c-0.242,0.521-0.606,0.836-1.398,1.043l-0.606,0.157l-0.424-0.364l0.242-1.358L206.636,95.612 M197.53,104.168v1.513
	c-2.187,1.721-4.371,2.556-6.921,2.713l-2.975-1.355l-1.214-0.157c-1.579,0-2.368-0.679-2.368-1.723
	c0.364-0.155,1.396-0.521,2.975-0.99c2.55-0.886,4.553-1.564,5.768-1.722C194.979,102.29,196.558,102.76,197.53,104.168
	 M202.506,107.401c-0.242-1.043-0.242-1.878-0.242-2.398c2.005-1.513,3.4-0.835,4.19,2.556c0.789,3.077-0.789,4.746-4.554,5.268
	l-0.607-0.313c0.425-0.677,0.789-1.564,1.577-2.556L202.506,107.401 M186.602,99.056c0.607,0.312,1.398,0.835,2.428,1.67
	c0,1.042-0.607,1.878-1.82,2.399c-0.789,0.365-2.003,0.521-3.582,0.834h-0.184c-0.969-0.313-1.395-1.199-1.395-2.349
	c0-0.678,0.427-1.72,1.033-2.763h0.789L186.602,99.056 M185.448,108.394c1.762,0.521,2.732,1.198,2.552,2.242
	c-1.155,0.312-2.552,0.521-4.372,0.678c-1.152-0.365-1.942-0.835-2.55-1.564c-0.425-0.313-1.032-1.146-1.395-2.19l-0.606-1.2
	c-2.188-0.156-3.947-0.522-5.769-1.2c-1.943-0.678-3.339-1.668-3.945-3.076h4.977v-3.546c1.578-0.523,3.157-0.523,4.553,0
	c1.577,0.677,2.003,1.875,1.396,3.546l-1.031,0.208h-2.368c0,1.2,1.032,1.878,2.794,2.19c0.97,0.157,1.759,0.365,2.186,0.522
	l0.18,0.155c1.033,1.357,2.004,2.4,2.975,3.078L185.448,108.394 M192.795,112.826l-1.822-0.678c0.182-1.67,1.58-2.869,4.19-3.755
	c2.185-0.68,4.553-0.992,6.737-0.992c0.183,1.878-0.789,3.234-2.974,4.069C197.104,112.148,195.162,112.67,192.795,112.826
	 M205.846,113.504c0.79-0.155,1.396-0.155,2.003,0c0,0.365,0,0.888,0,1.357l-1.577,0.208h-0.426l-0.182-0.208L205.846,113.504
	 M197.711,119.503c0.426-0.209,1.032-0.209,1.821-0.209c0.183,0.209,0.364,0.68,0.547,1.408h-2.124L197.711,119.503
	 M200.079,114.705h0.243l1.76,0.156c0.788,0.208,0.973,0.73,0.973,1.199l-1.337,0.522l-2.186,0.365c0-0.678,0-1.357,0.364-1.879
	L200.079,114.705 M202.689,119.503l-0.184-1.721h0.184c0.789,0,1.396,0.364,2.003,0.678l-0.242,0.521v0.158L202.689,119.503
	 M211.188,100.726h0.424l-0.181,0.885c-0.79,0.314-1.579,0.472-2.185,0.472l-0.608-0.157l0.184-0.835
	C209.427,100.726,210.216,100.726,211.188,100.726 M208.637,96.5h0.426c0.971,0,1.578,0.471,1.578,1.356
	c-0.242,0.156-0.789,0.312-1.82,0.521L208.637,96.5 M209.427,106.516h-0.606v-1.513c0.606-0.522,1.578-0.522,3.217-0.157
	C211.611,105.681,210.823,106.202,209.427,106.516 M210.823,108.759v0.99l-1.578,0.208c-0.425-0.365-0.425-0.886-0.425-1.563v-0.157
	h1.395L210.823,108.759 M140.042,79.443v5.269h-19.241v17.37h14.629c-0.547,0.887-1.577,1.721-2.732,2.398
	c-1.215,0.678-2.186,1.043-3.398,1.2c-1.397,1.878-3.158,3.391-5.162,4.798l0.183,0.313c0.425,0.521,0.607,1.044,0.607,1.356
	c-1.153,0.521-2.792,0.887-4.735,0.887h-1.214l-1.578-0.365c0-0.521,0.184-1.199,0.79-2.034c0.788-1.2,0.788-2.242-0.184-3.234
	c-1.215-0.679-2.791-1.199-4.977-1.878h-0.183l-2.367-2.764l-1.032-0.678h0.606v-17.37H90.63v-5.269L140.042,79.443
	 M158.072,105.681c-2.792-0.313-4.37-1.513-4.37-3.599h13.899c0.79,1.2,1.762,2.242,2.733,3.285c1.03,0.991,2.185,1.826,3.399,2.347
	l0.363,0.21c2.003,0.312,2.976,1.147,3.217,2.033l-0.606,0.313c-2.004,0.886-3.583,1.878-4.37,3.078l0.182,0.155l1.578-0.312
	c-0.183,2.714-0.363,4.436-0.789,5.634c-0.789,1.877-2.186,3.025-4.311,3.912c-0.606-0.365-1.213-0.887-1.821-1.722
	c-0.606-0.835-1.396-1.356-2.367-1.722c0-0.469-0.182-1.147-0.182-2.033c0-1.356-0.605-2.399-2.003-3.078l-0.184-3.234l-0.242-0.834
	c-1.76-0.523-2.974-1.512-3.521-3.233L158.072,105.681 M141.621,102.604l-0.243,0.521l-2.367,0.157l-0.606-0.157v-0.521H141.621
	 M150.302,102.969h0.243c-0.424,0.313-1.215,0.677-2.186,0.677l-0.606,0.157l-1.216-0.521v-0.679l3.584,0.156h0.181L150.302,102.969
	 M147.145,106.046l-0.181-0.679c2.003,0,3.763,0.313,5.525,0.835c2.184,0.836,3.399,1.878,4.007,3.39h-0.791
	C152.911,107.924,150.121,106.723,147.145,106.046 M145.143,107.401l0.242-0.521h1.943c0.242,0.157,0.425,0.521,0.425,1.043h-1.216
	L145.143,107.401 M150.121,110.479c-0.183-0.364-0.364-0.729-0.364-1.407h0.545l2.187,0.208v0.678
	C151.697,110.114,150.908,110.479,150.121,110.479 M145.385,109.592l2.186,0.157c-0.242,0.729-0.607,1.043-1.396,1.199l-1.031-0.678
	v-0.521L145.385,109.592 M150.121,113.191h0.181c1.214,0.157,1.821,0.678,2.004,1.356l-1.397,0.313l-0.363-0.313L150.121,113.191
	 M140.042,107.559h0.184c0.181,0.521,0.181,0.835,0,1.513h-0.184l-0.606,0.208l-1.578-0.365v-0.99
	C138.404,107.714,139.192,107.559,140.042,107.559 M141.196,110.479l2.003-0.208l0.182,1.2l-1.396,0.156
	C141.378,111.156,141.196,110.792,141.196,110.479 M153.095,112.148h0.607c0.971,0,1.759,0,2.186,0.364v0.991l-2.005,0.679
	l-0.181-0.313C153.276,113.349,153.095,112.826,153.095,112.148 M154.065,118.46h1.032c0.363,0.521,0.607,0.834,0.607,1.357
	l-1.031,0.156l-0.183,0.207l-0.183-0.207h-0.242l-0.183-0.156L154.065,118.46 M157.646,118.98l-0.183-0.834h1.215l0.183,0.834
	H157.646 M179.258,112.148h0.242c0,0.678-0.789,1.2-2.186,1.355l-0.606,0.21C176.525,112.67,177.314,112.148,179.258,112.148
	 M178.104,115.226l-0.182-0.156c0.548-0.887,1.578-1.2,2.549-1.355c-0.182,0.834-0.787,1.355-1.76,1.512L178.104,115.226
	 M162.625,89.823v6.989h-30.171v-6.989H162.625 M179.5,123.05v-0.312l0.971-0.209c1.398,0,2.611,0.209,3.582,0.521
	c-0.425,0.367-0.971,0.521-1.82,0.68h-0.363l-2.186-0.471L179.5,123.05 M177.922,120.702c0,1.357-0.607,2.348-1.821,3.027
	c-0.79,0.364-2.003,0.677-3.763,1.042h-0.182l-1.215-0.522c0-0.52,0.606-1.199,1.578-2.033c0.426-0.521,1.215-1.044,2.428-1.721
	L177.922,120.702 M178.893,131.084l-0.183-0.157c1.578-0.208,2.186,0.47,2.186,2.034l-0.607,0.314h-0.243
	C179.258,132.596,178.893,131.918,178.893,131.084 M175.13,126.963c0.971,0,2.184,0,3.947,0.521c1.576,0.21,2.972,0.364,4.005,0.364
	l0.971-0.677c0.789-0.522,1.578-0.679,2.004-0.679c0.546,0.156,1.153,0.679,1.76,1.877c-0.972,0.156-2.186,0.313-3.58,0.678
	l-2.975,0.472l-3.947-1.671h-0.606C175.494,127.694,174.947,127.484,175.13,126.963 M182.049,131.396l1.822,0.208l0.182,0.991
	h-1.214c-0.363-0.313-0.606-0.521-0.79-0.834L182.049,131.396 M166.813,125.451c-1.397-1.202-2.611-2.192-4.006-3.757
	c-1.579-1.877-2.368-3.234-2.186-4.067l4.369,5.11c1.579,1.512,2.369,2.557,2.369,2.714H166.813 M171.73,130.04l1.578,0.209v0.311
	c0.426,0.523,0.606,1.201,0.606,1.722h-1.153C172.156,131.605,171.73,130.927,171.73,130.04 M169.97,131.918l-1.214,0.156
	c-0.789-0.678-1.154-1.668-1.154-2.868C169.181,129.206,169.97,130.04,169.97,131.918 M176.708,133.275l-0.183-0.157
	c-0.788-0.836-1.215-1.514-1.395-2.191c1.578-0.366,2.549,0.47,2.549,2.191L176.708,133.275 M156.676,123.259v1.67l-0.607,0.365
	v-2.035L156.676,123.259 M159.226,122.372v-0.312l1.638,0.156v1.201l-1.214,0.154C159.226,123.259,159.226,122.737,159.226,122.372
	 M158.861,125.972h1.214v0.313c0.364,0.521,0.364,1.043,0.364,1.563l-0.606,0.156l-0.184-0.156
	C159.226,127.172,158.861,126.649,158.861,125.972 M146.537,125.294c-0.544-0.522-0.97-1.2-1.152-2.4
	c-0.242-0.521-0.424-1.354-0.606-2.398l-0.184-0.678c1.579,0,2.55,0.678,3.34,1.877l0.607,1.199c0,1.2-0.788,2.035-2.004,2.19
	L146.537,125.294 M139.619,124.929c0.606-0.835,0.423-1.67-0.427-2.869c-1.335-0.365-2.549-0.521-3.339-0.521
	c0.183,0.312,0.607,0.833,1.215,1.354c0.789,0.678,0.789,1.513,0,2.4c-1.821,0.521-2.974,0.835-3.581,0.678
	c-1.033,0-1.821-0.678-2.186-1.878c0-2.922,1.578-4.276,4.552-4.8c2.793-0.313,5.16,0.523,7.346,2.4
	c1.943,4.435,0,6.989-6.131,7.512l-1.821-0.836l0.183-0.676c0.424-0.21,1.031-0.731,1.82-1.045
	C138.646,125.815,139.436,125.294,139.619,124.929 M146.537,131.396c-0.544-0.47-0.181-1.356,0.791-2.349l1.213-1.563h2.792
	C151.091,129.362,149.513,130.719,146.537,131.396 M208.82,132.074l-0.184-0.312l2.368-0.365v0.521L208.82,132.074 M206.271,124.249
	v1.202l-0.791,0.364l-1.03-0.887v-0.313v-0.209C204.874,124.249,205.48,124.094,206.271,124.249 M197.104,122.894l-0.182,0.678
	c-0.365,0.158-0.972,0.523-1.943,0.523l-0.242-0.523l0.789-0.834l1.396,0.156H197.104 M197.711,123.571
	c3.399-1.877,5.768-2.869,6.558-2.869c-0.365,0.992-2.186,2.557-5.162,4.069c-2.974,1.514-5.341,2.4-7.103,2.557
	C192.188,126.807,193.947,125.451,197.711,123.571 M195.344,119.817c0.183,0.156,0.183,0.885,0.183,1.722
	c-0.183,0-0.972,0.155-2.367,0.155h-0.183v-0.679l0.183-0.155C193.766,120.181,194.372,119.817,195.344,119.817 M192.188,124.615
	v0.679l-2.004,0.157c-0.363-0.367-0.363-0.522-0.363-0.836v-0.209L192.188,124.615 M187.816,123.729l-1.214-0.158
	c0.242-1.043,0.79-1.355,2.004-1.355c0.181,0.312,0.424,0.678,0.181,1.355L188,123.729H187.816 M104.714,16.535l-1.216-0.313v-0.678
	h0.609c0.606,0,1.214,0,1.821,0.156l0.181,0.835H104.714 M97.004,22.013v0.833c-1.032,0.365-2.186,0.523-3.581,0.679l-1.821-0.679
	l0.425-0.989C93.423,21.334,95.001,21.489,97.004,22.013 M109.083,21.334h0.79c0.973-0.156,1.578,0,2.186,0.155l0.183,1.045
	l-1.579,0.311l-1.579-0.677L109.083,21.334 M110.055,19.091c-0.364,0.209-0.788,0.364-1.152,0.522l-2.186-0.992v-0.73l2.186-0.156
	C109.69,17.891,110.055,18.413,110.055,19.091 M128.085,11.11c0-1.043,0.85-1.357,2.003-0.888l0.424,0.209l0.183,1.356h-1.578
	L128.085,11.11 M135.854,9.075c0.365-0.209,0.607-0.209,0.973,0l-0.183,0.47l-0.79,0.209L135.854,9.075 M123.167,11.11v-0.365
	l2.975,0.156c0.789,0.365,0.789,1.043,0,2.086c0.607,0.47,0.973,0.835,1.397,0.992v0.886c-1.214,0.312-2.61,0.471-4.189,0.471
	v-0.158l-0.183-0.155l0.789-0.678C123.35,13.457,123.167,12.466,123.167,11.11 M123.35,17.212v-0.677h3.765v0.521h-0.184
	L123.35,17.212 M134.095,11.788v-0.365h0.364c2.002,0,2.974,0.521,2.974,1.723l-0.364,0.155c-1.032-0.314-1.821-0.678-2.003-0.678
	l-0.971-0.679V11.788 M129.905,15.023l-0.182-1.357c0.182-0.208,0.788-0.208,1.76-0.364
	C131.302,13.979,130.694,14.657,129.905,15.023 M137.857,20.812l-1.396,0.678c-1.821,1.045-3.216,1.514-4.007,1.722
	c0.244-0.886,0.791-1.565,2.005-2.243c0.971-0.521,2.184-0.678,3.398-0.678V20.812 M67.017,10.223h-0.183v-0.155V9.545h0.183
	c1.214-0.47,2.003-0.679,2.366-0.679c0.79,0,1.822,0,2.793,0.367v0.676l-1.396,0.314l-3.157,0.365l-0.182-0.156L67.017,10.223
	 M51.355,9.075v0.679c0,1.148-0.365,1.878-1.396,2.034v-0.522C49.959,10.067,50.566,9.233,51.355,9.075 M48.017,10.067v0.678
	c0,1.565-0.243,2.4-1.031,2.92c-0.364-1.042-0.364-2.033,0.182-3.442l0.242-0.155h0.607 M56.94,6.833
	c0,1.721-0.607,2.921-2.429,3.599c-0.182-1.722,0.425-2.921,2.185-3.755L56.94,6.833 M55.906,15.336L55.3,15.023
	c0.606-0.365,1.641-0.365,3.584,0.155l0.423,0.158V15.7l-1.395,0.314L55.906,15.336 M51.78,15.178l-0.243-0.155
	C50.99,14.5,50.99,13.98,50.99,13.666h0.365c0.971,0,1.578,0.523,2.003,1.357L51.78,15.178 M50.99,19.455l-1.821,0.314l-0.789-0.155
	v-0.679h2.976L51.173,19.3L50.99,19.455 M61.492,11.788l-2.003,0.156l-0.364-0.156h-0.241L58.7,10.432h2.004
	C61.249,10.588,61.492,11.11,61.492,11.788 M84.074,5.789l-0.183-0.312l0.365-0.523l3.4-0.155v0.52L86.44,5.631L84.074,5.789
	 M86.441,7.876l0.244-0.522c1.395-0.521,3.338-0.835,5.705-0.678v0.678l-5.342,0.678L86.441,7.876 M90.023,10.432v0.679
	l-3.764,0.156c0.182-0.679,1.214-1.044,2.973-0.835H90.023 M81.707,2.086v0.678l-2.975,0.471L78.126,2.92
	c0.181-0.678,0.971-1.044,2.366-0.834H81.707 M80.129,16.379V15.7c1.154,0,2.792,0.522,4.552,1.2l-1.395,0.312L80.129,16.379
	 M74.787,17.057L75.15,16.9h0.426l2.55,0.521c1.214,0.313,1.577,0.68,1.396,0.992l-0.789,0.208l-2.368-0.73L74.787,17.057
	 M73.391,18.935h-1.215l-2.974-1.878c0.607-0.156,1.396,0,2.367,0.364C72.602,17.891,73.147,18.257,73.391,18.935 M79.34,22.534
	l0.789,0.311l0.182,0.887h-0.789l-2.55-1.198c-0.243-0.209-0.607-0.365-0.85-0.678C76.972,21.857,78.126,22.013,79.34,22.534
	 M91.055,16.745h-2.429v-0.366c0.79-0.157,1.579-0.157,2.429,0V16.745 M85.653,14.345c-0.365,0.155-0.973,0.312-1.579,0.312
	c-0.608-0.157-0.789-0.469-0.972-0.678C83.466,13.457,84.499,13.665,85.653,14.345 M86.26,22.013l-0.365-0.679h2.186l-0.243,0.679
	H86.26 M82.313,23.003c-0.606-0.469-0.789-0.99-0.789-1.514c0.789,0,1.396,0.68,1.761,2.035h-0.607L82.313,23.003 M89.232,28.115
	v-0.157c1.397,0.157,2.794,0.888,4.372,2.035l-1.578,0.208c-0.425-0.208-0.79-0.521-1.578-1.044l-1.216-0.678L89.232,28.115
	 M87.049,30.88v0.313h-7.952c-1.335-1.356-1.942-3.235-1.761-5.269c2.367,0,4.188,0.364,5.342,0.833
	c0.788,0.522,2.003,1.565,3.582,3.235L87.049,30.88 M72.783,26.758l-1.396,0.209c-0.607-0.209-0.789-0.521-0.971-0.678
	c0.788-0.364,1.396-0.364,2.366-0.209l0.364,0.209L72.783,26.758 M76.729,31.193c0,0.208,0,0.364,0.426,0.677v4.955h-3.764
	c-1.396-0.678-2.61-1.722-3.581-2.868c-1.214-1.409-1.761-2.556-1.579-3.442c1.396-0.521,2.793-0.834,4.371-0.834
	C74.361,29.837,75.758,30.201,76.729,31.193 M77.154,41.781v4.435h-20.64v4.746h20.64v4.591h-20.64v6.521
	c-3.581,3.39-7.527,5.581-12.505,6.989l-0.788-0.366c-0.607-0.312-1.155-0.312-2.187-0.155h-0.606v-2.243
	c0-2.869,0.242-4.903,0.606-6.103c0.79-1.877,2.61-3.598,5.343-4.955l-0.184-0.834h-0.181H45.83l-0.424-1.044
	c-0.608-1.512-0.789-2.556-0.608-3.233c0.244-0.679,1.032-1.722,2.369-3.234c0.606-0.521,1.396-1.044,2.428-1.877
	c0.364-3.913,2.731-5.479,6.738-4.591l0.182,0.155v1.2h20.639 M68.23,24.881l-0.182,0.365h-1.64
	c-0.364-0.157-0.546-0.522-0.546-0.835h0.546C66.834,24.202,67.441,24.411,68.23,24.881 M66.652,28.479l-0.607-0.156
	c0.183-0.365,0.364-0.678,0.607-0.887l2.367,0.209l-0.182,0.47L66.652,28.479 M65.256,25.769v0.677l-1.032,0.157l-1.335-0.313
	v-0.731L65.256,25.769 M62.889,31.037v-0.523h2.55v0.365L62.889,31.037 M61.492,32.758l0.364,0.313
	c-0.183,0-0.971,0.155-1.942,0.365v-0.522L61.492,32.758 M54.755,25.769l0.182-0.21H55.3c0,0.731-0.363,1.408-0.363,2.087h-0.971
	L54.755,25.769 M56.94,28.115h-0.79l0.183-0.313c0.182-0.677,0.363-1.199,0.789-1.513C57.304,26.967,57.304,27.437,56.94,28.115
	 M56.696,29.993l2.188-0.156L58.7,30.515c-0.425,0.156-0.972,0.156-2.004,0.365V29.993 M54.755,35.313l0.971-0.21l-0.182,0.887
	l-1.032,0.157l-0.182-0.365L54.755,35.313 M56.15,32.914l-2.185,0.157l-0.243-0.837l2.184,0.157L56.15,32.914 M56.94,36.825
	l-0.426-0.156c1.214-1.198,3.157-1.721,5.767-1.721c2.55,0,4.553,0.365,6.133,1.199l0.182,0.678L56.94,36.825 M52.752,38.86
	l0.182,0.522h-1.578v-0.679L52.752,38.86 M56.515,64.628v3.913l-3.581,0.313c0-0.836,0.425-1.513,1.032-2.349
	C54.755,65.62,55.544,65.099,56.515,64.628 M54.33,71.411l2.61-0.68h20.214v3.755h-20.64v4.957h20.64v5.269h-20.64v6.677
	c-2.003-3.079-3.581-6.312-4.188-9.546c-0.971-3.757-0.971-6.991,0-9.911C52.568,71.774,53.176,71.619,54.33,71.411 M68.23,66.142
	v-5.947h30.11v5.947H68.23 M133.669,24.881l0.79-0.157c0,1.565-0.364,2.557-1.214,3.078c-0.365-0.677-0.184-1.513,0.242-2.556
	L133.669,24.881 M132.273,25.559v0.21l-0.183,1.668l-0.789,0.365l0.182-2.243L132.273,25.559 M129.905,25.559
	c0.183,0.366,0.363,1.044,0,2.243v0.678H129.3C129.3,27.646,129.479,26.603,129.905,25.559 M133.245,30.515l-1.579,0.365v-0.521
	l1.579-0.157V30.515 M106.717,28.637l-1.822,0.209l-0.363-0.366v-0.678c0.546,0,1.397,0,2.367,0.313L106.717,28.637 M109.448,26.445
	v0.521l-1.761,0.158l-0.789-0.367v-0.312H109.448 M97.186,29.524l0.608-0.209c1.153,0,1.941,0.209,2.549,0.679h-0.182v0.208
	l-1.578,0.157l-1.397-0.521V29.524 M36.119,21.334v-0.366h0.545l0.426,1.045l0.364,2.399h-0.79
	C36.119,23.524,35.876,22.534,36.119,21.334 M43.646,12.987l0.183-0.364h0.363l-0.182,3.234h-0.364
	C43.038,15.023,43.038,14.189,43.646,12.987 M40.429,16.535v-0.521l0.789-0.156l0.242,3.233h-0.606
	C40.671,18.413,40.429,17.579,40.429,16.535 M38.062,18.413h0.425c0.364,1.042,0.364,1.877,0.364,2.765h-0.789L37.879,19.3
	L38.062,18.413 M41.035,22.013v-0.679h2.793c-0.183,0.679-0.79,0.991-1.578,0.991h-0.607L41.035,22.013 M44.617,22.691l2.004-0.156
	c-0.243,0.469-0.608,0.834-1.579,0.834l-0.425,0.156L44.617,22.691 M46.802,17.891l-0.181,1.044
	c-0.427,0.156-1.033,0.365-2.004,0.365c-0.182-0.365-0.426-0.887-0.426-1.199c0.426-0.21,1.032-0.366,2.003-0.21L46.802,17.891
	 M41.825,29.157l1.577-0.154l-0.364,0.834H41.46L41.825,29.157 M45.224,24.881v1.044h-1.578
	C43.828,25.246,44.435,24.881,45.224,24.881 M39.883,25.769v-0.888c0.546-0.157,1.152-0.313,1.76-0.313v0.835
	C41.218,25.559,40.854,25.769,39.883,25.769 M38.486,28.479v-0.678l0.182-0.156c0.607-0.209,1.396-0.365,2.003-0.365v0.678
	c-0.242,0.365-0.788,0.521-1.578,0.521H38.486 M39.275,30.88v0.678l-1.578,0.522c-0.243-0.365-0.426-0.887-0.426-1.2L39.275,30.88
	 M37.271,35.104l-0.608-0.155v-0.522h1.822v0.522h-0.244L37.271,35.104 M39.883,33.437c0.181-0.679,0.788-1.045,1.76-1.045h0.607
	l-0.184,0.522l-1.396,0.679L39.883,33.437 M34.722,25.246v-0.522h0.364c0.426,0.522,0.79,1.565,1.033,2.713v0.679h-0.607
	C34.904,27.802,34.479,26.758,34.722,25.246 M35.693,38.86h-0.182l-0.426-0.678c0.79-0.158,1.578-0.313,2.186-0.313
	C37.271,38.338,36.907,38.704,35.693,38.86 M34.479,40.739h0.606c-0.182,0.676-0.788,1.042-1.579,1.042l-0.605,0.156l-0.606-0.312
	l0.242-0.677C32.901,40.581,33.69,40.581,34.479,40.739 M32.537,38.025v0.523c-1.032,0.678-2.004,0.99-3.218,0.99l-0.546,1.043
	c-1.033,1.356-1.82,2.035-2.609,2.192l-0.365-2.714h-0.242v-0.156h-0.183l-0.606,0.678c-0.607,0-0.973-0.155-0.973-0.678
	c0-0.365,0.184-0.678,0.365-1.199l0.849-0.156c1.579-0.365,2.976-0.679,3.765-0.679C30.352,37.66,31.748,37.66,32.537,38.025
	 M29.926,46.059l-0.363-0.729l0.363-0.471h2.187C31.931,45.537,31.141,45.85,29.926,46.059 M30.17,42.981l-1.033,0.521v-0.365
	c0.183-0.678,0.426-1.045,1.033-1.2L30.17,42.981 M24.768,45.329l-0.183,1.877h-0.606v-1.669
	C24.16,45.329,24.402,45.173,24.768,45.329 M33.933,44.494c-0.242-0.522-0.426-0.834-0.242-0.834l2.186-0.157l-0.183,0.835
	L33.933,44.494 M38.242,39.747v-0.678h1.397c0,0.156,0,0.313,0,0.678H38.242 M41.643,36.669l-1.579,0.156v-0.521h1.579V36.669
	 M39.457,41.938l0.183-0.156c0.607-0.366,1.396-0.521,2.003-0.521c0,0.832-0.789,1.513-2.003,1.721L39.457,41.938 M46.014,42.303
	c0,0.679-0.426,0.991-1.396,0.991H44.01c-0.182-0.312-0.364-0.678-0.364-1.201h0.546C45.042,41.938,45.588,42.093,46.014,42.303
	 M46.194,45.017l0.427,0.156c-0.427,0.364-0.791,0.521-1.398,0.521l-0.182,0.155v-0.677L46.194,45.017 M40.854,46.737h2.003
	l-0.606,0.678l-1.396,0.155L40.854,46.737 M32.72,47.05c2.002-0.834,3.581-1.2,5.159-1.2c0.183,0.68,0.183,1.565,0.183,2.766v0.678
	l-2.55,0.156v-1.356l-2.792-0.365V47.05 M14.447,34.114l-0.184-0.366c0.791-1.2,2.369-1.356,4.191-0.677l0.182,0.677L14.447,34.114
	 M12.688,37.505v-0.992c1.395-0.887,2.791-1.199,4.369-1.199l1.154,0.157c-0.182,0.312-0.547,0.833-1.154,1.354l1.398,0.157
	l-0.243,0.522c-0.972,0.364-2.367,0.678-3.764,0.678L12.688,37.505 M11.109,37.505c1.151,1.355,1.76,2.242,2.003,2.712h-1.64
	c-1.153-0.47-1.942-0.991-2.184-1.356c-0.365-0.523-0.183-1.355,0.242-2.348h0.789L11.109,37.505 M22.824,35.471
	c-0.788-1.356-1.215-2.399-1.032-3.236c1.821-0.154,3.4,0,4.796,0.313C26.588,33.957,25.374,34.792,22.824,35.471 M23.978,52.161
	l-0.184-0.991h2.369l-0.183,0.68C25.557,52.006,25.009,52.161,23.978,52.161 M21.792,49.449l0.425,1.877H21.61l-0.181-1.877H21.792
	 M18.211,49.972V49.45h0.425c0.425,0.679,0.607,1.513,0.607,2.557h-0.607C18.454,51.483,18.211,50.806,18.211,49.972 M16.268,58.63
	v-0.312h0.364l1.031,2.191h-0.788C16.268,59.83,16.086,59.309,16.268,58.63 M22.217,58.317v0.834
	c-0.181,0.366-0.788,0.366-1.82,0.521l-0.183-1.043C20.638,58.474,21.185,58.317,22.217,58.317 M23.613,55.239l-2.004,0.155
	l0.427-0.989h1.759L23.613,55.239 M9.105,65.099l0.606-0.157c1.761-0.835,3.157-0.99,4.371-0.313V65.1l-1.578,0.521
	c0,0.886,0.364,1.877,1.395,3.234c0.363,0.886,1.336,1.877,2.55,3.442l0.789,0.99c-0.183,0.365-0.606,0.521-1.153,0.678h-0.242
	c-0.973-0.468-1.761-1.356-2.549-2.712c-0.607-1.199-1.034-1.877-1.578-2.398l-1.398-0.313c-1.579-0.522-2.368-0.887-2.609-1.199
	C7.345,66.975,7.71,66.298,9.105,65.099 M11.291,62.386c0,0.521-0.608,0.888-2.003,1.356c-0.972,0.522-1.762,0.886-2.551,0.886
	c0.425-1.042,1.396-1.722,3.157-2.399l1.031-0.155L11.291,62.386 M7.951,70.054L7.71,69.219c4.188,0.521,4.978,1.879,2.609,4.589
	l-1.82,0.679c-1.154,0.523-1.762,1.044-2.185,1.356C5.95,76.365,5.768,77.2,5.768,78.399c0.787,0.888,1.759,1.565,2.973,1.723
	c0.972,0.156,2.186,0.156,3.947,0h1.76v0.521l-2.975,0.522L8.316,81.32c-2.367-0.678-3.765-1.356-4.372-2.034
	c-0.788-1.044-0.362-2.244,0.791-3.598l1.819-1.357c1.396-0.679,2.186-1.2,2.368-1.723C9.288,71.932,8.923,71.098,7.951,70.054
	 M20.821,62.073h1.396c-0.181,0.833-0.788,1.355-2.003,1.355l-0.182,0.157l-0.183-0.521L20.821,62.073 M23.188,65.099l0.426-0.992
	l1.579-0.364C25.009,64.628,24.402,64.941,23.188,65.099 M17.057,64.264l-0.788,0.156c-0.183-0.469-0.608-1.146-0.79-2.347
	C17.057,62.386,17.664,63.273,17.057,64.264 M16.45,67.497l0.183,0.157c1.031,0.521,1.396,1.2,1.396,2.086h-0.973
	c-0.424-0.678-0.606-1.199-0.606-1.722V67.497 M19.243,66.663c0.183-0.679,0.789-1.043,1.76-1.043v1.043H19.243 M20.821,69.219
	v-0.364c0.971,0,1.76,0.208,2.186,0.364v0.521c-0.426,0.313-0.79,0.678-1.397,0.678l-0.181,0.156
	C21.003,70.054,20.638,69.74,20.821,69.219 M38.486,52.006h-0.789c0.364-0.68,0.971-1.044,1.76-1.2h0.606
	C40.063,51.639,39.457,52.006,38.486,52.006 M40.063,57.116l0.183-0.833l1.819-0.209v0.209v0.469
	C41.643,56.961,41.035,56.961,40.063,57.116 M38.062,55.083l-0.183,0.678l-1.215,0.313l-0.545-0.313
	c0-0.521,0.364-0.678,1.335-0.678H38.062 M40.671,53.883v-0.521l1.579-0.156l-0.184,0.521L40.671,53.883 M31.931,53.361l0.182-0.156
	c-1.397-0.521-2.187-1.044-2.368-1.199l0.182-0.156l0.244-0.366l0.546-0.157l2.975-0.156c0.789,1.356,0.789,2.713,0,4.383
	c-0.365,0.208-0.971,0.208-2.185,0.521l-0.364-0.835C31.505,54.719,31.931,54.041,31.931,53.361 M28.955,47.728l0.182,0.888
	l-1.76,0.156l-0.606-0.156V47.57L28.955,47.728 M29.744,56.597l0.182,1.043c0.607,1.199,0.79,2.19,0.79,2.869
	c0.243,1.199,0.243,2.242-0.183,3.077c-0.789,0.678-1.396,1.199-1.578,1.722l0.182,0.155c1.033,1.879,1.822,3.392,2.004,4.434
	c0.607,2.035,0,3.234-2.004,3.601c-0.789-1.045-0.971-2.086-0.971-3.601v-1.042l-1.821-0.471c0-0.887,0.426-2.086,1.032-3.964
	c0.789-1.514,0.971-2.712,1.154-3.391l-2.975,0.156c0.242-1.199,0.607-2.034,1.214-2.868C27.56,57.275,28.531,56.752,29.744,56.597
	 M27.74,54.719l-0.18,0.834c-0.607,0.365-1.396,0.521-2.004,0.521v-0.313l-0.183-0.521L27.74,54.719 M35.693,59.518l-0.607,0.155
	l-0.364-1.043h2.368C37.09,59.309,36.483,59.518,35.693,59.518 M35.086,68.176v1.2l-1.941,0.364
	C32.901,68.854,33.507,68.176,35.086,68.176 M38.062,62.906l-0.183,0.68l-1.396,0.156v-0.678
	C37.09,62.906,37.697,62.751,38.062,62.906 M39.457,60.194l-1.396,0.157l0.425-0.834h1.153L39.457,60.194 M38.851,65.62v0.678
	l-2.367,0.208l0.424-0.886H38.851 M38.242,68.384h0.244l-0.244,0.679l-1.578,0.471C36.907,68.854,37.271,68.384,38.242,68.384
	 M37.271,71.411l1.579-0.158v0.679l-1.579,0.521C37.09,71.932,37.09,71.619,37.271,71.411 M35.693,71.774
	c0,0.313,0,0.678-0.182,0.991L33.69,73.13h-0.184h-0.182h-0.181c0.181-1.043,0.788-1.512,1.941-1.356L35.693,71.774 M30.352,75.166
	v0.522l-0.608,0.52c-1.213,0.992-2.184,1.67-2.791,1.878C26.771,76.053,27.984,75.166,30.352,75.166 M32.72,75.688l0.182-0.837
	h2.185v0.314l-1.941,0.677L32.72,75.688 M24.768,75.166v1.355l-2.551,0.366l0.183-1.045C23.188,75.688,23.978,75.322,24.768,75.166
	 M26.345,82.154h0.79c0.426,1.044,0.85,2.4,1.031,3.912h-0.789l-0.242-0.468C26.588,84.19,26.345,82.989,26.345,82.154
	 M24.768,78.922l-0.183,2.243l-0.183,0.833h-1.215c-0.181,0.678-0.181,1.877,0.184,3.756l0.242,0.521h-0.607
	c-2.004-2.764-1.578-5.11,0.972-7.512l0.606,0.158h0.184 M35.512,80.643h-0.426v-0.365c0.183-0.678,0.426-1.199,0.426-1.514
	c0.364-0.678,0.789-0.886,1.396-0.886L35.512,80.643 M30.17,95.091L29.137,95.3c0-1.355,0-2.399,0.426-3.443h0.79
	c0.607,1.044,0.363,2.088-0.183,3.079V95.091 M34.904,92.744l0.182-1.2c0.607,0.157,1.033,0.521,1.397,1.2
	c0.181,0.521,0.424,0.99,0.424,1.878l-1.031,0.156l-0.183,1.043l-0.607,0.157L34.904,92.744 M47.409,84.398v-0.365h0.607
	l0.789,2.712h-0.789C47.59,86.066,47.409,85.233,47.409,84.398 M37.879,88.989h0.789v2.712l-0.606,0.155L37.879,88.989
	 M43.402,95.456h0.789l0.244,0.156c0.182,0.523,0.362,1.2,0.182,1.723h-0.972L43.402,95.456 M45.406,92.9
	c0-0.835,0-1.356,0.182-1.877h0.426c0.364,0.678,0.364,1.512,0.181,2.399h-0.788L45.406,92.9 M21.429,73.965l0.181-1.356
	c0.607-0.156,1.397-0.312,2.369-0.312v0.834c-0.791,0.366-1.397,0.677-2.369,0.834H21.429 M22.824,103.125
	c-0.425,0.678-0.607,1.043-1.032,1.199c-0.607-1.355-0.789-2.557-0.363-3.599c1.578,0.207,2.55,0.885,3.156,2.034L22.824,103.125
	 M11.473,112.513c0.608,0.157,1.032,0.522,1.64,1.201l0.788,1.878h-0.605C12.505,114.705,11.898,113.714,11.473,112.513
	 M17.847,116.061l0.364,1.2h-0.547c-0.242-0.312-0.425-0.835-0.607-1.2H17.847 M21.609,118.46h-0.788
	c-0.184-0.521-0.425-1.199-0.184-1.877C20.821,116.739,21.185,117.417,21.609,118.46 M43.646,100.411l0.183,0.314
	c0.182,1.356,0.182,2.399,0.363,2.92c0.426,0.835,0.851,1.878,1.639,2.87c-0.242,0.365-0.607,0.365-0.788,0.522
	c-2.186-0.836-3.217-1.671-3.582-2.714c-0.242-1.042,0.365-2.242,1.396-3.913L43.646,100.411 M40.247,99.733
	c-0.183,0.469-0.364,0.992-0.972,1.356c-1.214-1.356-1.396-2.399-0.183-3.233c1.154-1.044,2.125-0.521,2.55,1.512L40.247,99.733
	 M40.854,107.401v-0.363c1.761,0.155,2.792,0.676,2.975,1.564l-0.972,0.312l-0.426,0.835H41.46
	C41.035,109.071,40.854,108.236,40.854,107.401 M37.697,106.358c0,0.157-0.243,0.522-0.426,0.68
	c-0.182,0.155-0.182,0.521-0.364,0.676h-0.788v-2.033C36.483,105.681,37.09,105.836,37.697,106.358 M32.901,99.733
	c1.396,0,2.185,0.678,2.61,2.034l-1.397,0.157l-0.182,0.679h-0.426C32.901,102.082,32.72,101.09,32.901,99.733 M27.56,95.821
	l0.424,0.314c0.971,1.2,1.335,2.034,1.152,2.713H27.56l-0.426,0.886l-0.79,0.157c-0.363-1.513-0.546-2.92,0-4.069L27.56,95.821
	 M28.166,107.193c-1.031-0.835-1.395-2.035-1.213-3.548c1.213,0,2.184,0.835,2.791,2.4l-0.789,0.156l-0.182,0.836L28.166,107.193
	 M32.112,109.592c1.213,0,1.82,0.679,2.185,1.722l-0.973,0.157l-0.181,0.834h-0.85c-0.183-0.678-0.364-1.356-0.183-2.19v-0.523
	 M25.981,111.992l-0.789,0.156l-0.184-2.191l0.184-0.886c1.761,0.208,2.368,0.886,1.396,2.085L25.981,111.992 M24.585,118.146
	l1.396,1.356c2.185,2.036,3.944,3.547,5.342,4.434c2.002,1.357,4.189,2.349,6.131,2.713v1.045c-0.183,0.154-0.971,0.676-2.186,0.989
	c0-0.313,0-0.989,0.243-1.877c-2.367-0.678-4.553-1.878-6.375-3.235c-1.152-1.043-2.792-2.556-4.734-4.746L24.585,118.146
	 M35.876,116.948l-0.364,0.156v-1.513h0.607L35.876,116.948 M32.537,114.861v0.521l-1.214,0.209l-0.183,0.991h-0.425
	c-0.546-0.157-0.972-0.678-1.153-1.357c0-0.521,0-1.199,0.363-1.877c0.427,0,1.215,0.365,2.005,1.043L32.537,114.861
	 M43.038,113.504c-0.424-0.312-0.972-0.469-1.213-0.678l-0.183,0.365c0.788,0.835,1.579,1.67,2.186,2.555h-0.972l-1.214-0.677
	c-1.214-0.678-2.003-1.2-2.55-1.721c-0.85-0.679-1.214-1.2-1.214-1.878h0.363l4.188,0.365c1.215,0.312,2.367,0.99,3.157,2.033
	l-0.182,0.313C45.042,114.183,44.01,114.026,43.038,113.504 M37.271,116.271h0.426c1.395,0.155,2.55,0.469,3.156,0.834h-0.79
	c-0.606-0.156-1.577-0.365-2.792-0.521L37.271,116.271 M38.486,119.139c-0.607-0.158-1.215-0.522-1.579-0.679l0.972-0.156
	c1.214,0,2.368,0.156,2.975,0.521v0.313L38.486,119.139 M46.985,113.869l-0.184-0.155c-1.214-1.201-1.76-2.087-1.76-2.558
	l3.764,0.157c1.153,0.313,2.185,1.199,2.185,2.19l-2.61-0.991c-0.363,0.157-0.363,0.522-0.363,0.836v0.521L46.985,113.869
	 M38.242,123.417h-0.788l-1.761-1.045l-0.182-0.312c0.789,0,1.76,0.312,2.73,0.678L38.242,123.417 M39.64,120.86v0.521h-1.578
	c-0.972-0.366-1.578-0.521-2.186-0.887C37.271,120.495,38.486,120.702,39.64,120.86 M28.166,130.927
	c-0.605-1.043-1.031-2.085-1.031-2.922c1.639,0,3.035,0.365,4.006,1.201c-0.182,0.156-0.788,0.314-1.396,0.521v1.877h-1.213
	L28.166,130.927 M25.009,123.937l-0.241,0.992h-0.365c-0.789-0.313-1.215-1.199-1.578-2.192v-0.521
	c1.761-0.156,2.975,0.312,3.521,1.514L25.009,123.937 M26.164,133.639l-0.183,0.679h-0.789c-1.032-0.521-1.579-1.512-1.579-3.078
	c1.943,0,3.157,0.835,3.34,2.244l-0.608,0.155H26.164 M19.85,121.382l-0.243,0.157c-0.789,0-1.396,0.521-1.396,0.989v0.365h-0.789
	c-0.365-0.521-0.546-1.354-0.789-2.556v-0.521C18.029,119.817,19.06,120.338,19.85,121.382 M20.396,125.815h0.606
	c1.214,0.313,2.004,0.991,2.61,1.669v0.364l-1.397,0.156l-0.425,1.201h-0.789C20.396,128.005,20.214,126.807,20.396,125.815
	 M109.267,102.082c1.396,1.2,2.002,2.556,2.002,4.12c-1.578,0.313-3.398-0.366-5.584-2.243c-0.971-0.99-1.761-1.669-2.367-1.877
	H109.267 M105.502,104.638v2.243c-1.214,0.521-3.156,0.521-5.767-0.158c-3.156-0.677-5.341-0.521-6.737,0.471l0.182,1.2
	c0.851,0.209,1.396,0.365,1.821,0.365l0.364-1.357l3.398,0.312c-0.181,0.889-0.97,1.565-2.184,2.035
	c-0.789,0.365-2.003,0.521-3.581,0.887h-0.607c-2.185-0.521-2.55-2.033-1.578-4.434C95.606,102.969,100.343,102.446,105.502,104.638
	 M114.851,111.836c-0.79,0.312-2.004,0.677-3.218,0.677l-1.579-0.677l0.184-1.044c1.03-0.521,2.003-0.835,2.973-0.835
	C114.426,110.114,115.033,110.636,114.851,111.836 M113.211,109.071l-1.76-0.157c-1.396,0.521-2.185,1.043-2.792,1.564
	c-0.789,0.835-0.546,1.67,1.031,2.191v0.834l-1.215,0.21c-1.212-0.522-1.759-0.888-2.002-1.409
	c-0.182-0.469-0.364-0.991-0.364-2.034v-0.521c3.157-3.233,6.921-3.703,11.291-1.513v0.835
	C117.036,109.436,115.641,109.436,113.211,109.071 M119.403,118.146h-0.789c-2.004,0.679-3.217,1.356-3.581,1.827
	c-0.182,0.364,0,0.887,0.607,1.565c0.789,1.198,1.151,2.19,1.151,3.076c-0.605,0.313-1.395,0.469-2.184,0.679
	c-2.186-1.564-3.34-2.557-3.763-3.443c-0.365-1.148,0.241-2.712,2.002-4.434c1.761-0.834,3.339-1.146,4.736-1.356
	c2.002-0.155,3.58,0.21,4.976,1.044C122.378,117.627,121.164,117.939,119.403,118.146 M136.643,112.826l-0.607-0.313l-0.183-0.677
	l0.79-1.044c1.214,0,1.578,0.521,1.578,1.878L136.643,112.826 M134.459,110.479l-0.183,0.835l-1.031,0.313
	c-0.365-0.313-0.547-0.679-0.365-1.148H134.459 M128.51,111.992l-0.788,0.312c0.181-1.669,1.758-3.391,4.552-4.903
	c2.792-1.199,5.159-1.878,7.526-1.878c-2.731,0.992-4.734,1.878-6.131,2.557C132.091,109.071,130.268,110.271,128.51,111.992
	 M130.088,114.548l-0.788-0.156c0.18-1.043,0.969-1.356,2.366-0.888l-0.183,0.888L130.088,114.548 M135.065,113.714l0.788,0.155
	c0.183,0.313,0.365,0.679,0.183,0.992l-0.789,0.208c-0.364-0.364-0.364-0.678-0.607-1.355L135.065,113.714 M98.34,89.823v6.989
	H68.23v-6.989H98.34 M50.748,93.944h-0.789l-0.364,1.146l-0.789,0.21c0-1.199,0.182-2.399,0.547-3.234l1.031-0.209L50.748,93.944
	 M68.23,104.324c-0.182,0.834,0,1.722,0.184,2.557c-1.762,0.833-3.583,1.878-5.525,2.868c-1.215,1.043-2.429,1.564-3.764,1.564
	l-0.607-0.157c-1.033-0.208-1.578-0.678-1.578-1.199l0.788-0.365c1.578-0.678,2.551-1.198,3.157-1.512
	c0.606-0.521,1.214-1.357,2.003-2.713c0.546-0.521,1.761-1.199,3.764-1.877c1.943-0.73,3.339-0.887,3.946-0.887L68.23,104.324
	 M63.434,103.282l-0.183-0.679h1.397c0,0.365-0.426,0.679-0.971,0.679H63.434 M56.515,97.647l-0.608,0.209
	c-3.154,1.199-5.158,2.034-6.131,2.869c-1.396,1.199-1.213,2.765,0.608,4.433v0.209v0.313l-1.578,0.155
	c-3.582-1.512-4.008-3.546-1.396-5.945c2.366-2.399,5.343-3.599,9.105-3.756V97.647 M53.541,110.114l0.425,0.521
	c0.971,0.678,0.971,1.356,0.364,2.19l-0.972,0.209c-0.606-0.73-0.79-1.408-0.79-2.243v-0.678L53.541,110.114 M52.934,115.226v-0.521
	c0.789-0.157,1.821-0.313,3.399-0.157h0.971l-0.363,0.678l-1.034,0.157l-2.365,0.209L52.934,115.226 M50.748,118.146l0.242,0.47
	l1.762,0.678v0.523h-2.186l-2.187-0.992l-0.183-0.365v-0.156l-0.181-0.157C48.987,117.939,49.959,117.939,50.748,118.146
	 M67.623,110.271h1.215v0.521c-0.242,0.364-0.789,0.679-1.396,0.835H67.2l-0.183-0.471L67.623,110.271 M66.045,109.592l1.154-0.521
	v0.521l-1.154,0.365V109.592 M86.686,107.038c0-2.192,0.972-3.913,3.338-4.956h4.795c-4.188,1.408-6.192,3.754-6.192,7.197
	l0.606,0.47c1.397,1.407,2.187,2.399,2.187,3.077c-0.789,0.365-1.76,0.522-2.548,0.678
	C87.474,110.792,86.686,108.603,86.686,107.038 M88.444,102.082l-0.181,1.043c-1.578,1.513-2.61,3.077-2.975,4.276
	c-0.182,0.992-0.182,2.556-0.182,4.903l0.182,1.044l-2.003,0.155l-4.371,0.21c-1.152-0.522-1.396-2.087-1.152-4.643l0.364-1.357
	h-4.128v-0.521c0.789-0.471,1.941-0.835,3.156-0.991c1.152-0.366,1.942-0.679,2.186-1.044c0.363-0.521,0.789-1.513,0.789-3.076
	L88.444,102.082 M75.576,105.367l-0.243-0.729h1.821v0.521L75.576,105.367 M74.544,109.957l1.214-0.208l-0.182,1.878h-1.821
	c0-0.471,0-0.991,0.606-1.356L74.544,109.957 M70.417,109.071h0.971v0.521l-0.789,0.157L70.417,109.071 M70.417,115.383l0.363-0.521
	c0,1.044-0.182,1.722-0.607,2.399C69.991,116.739,70.173,116.061,70.417,115.383 M73.998,114.705l0.363-0.157l-0.182,1.723h-1.396
	v-1.045C72.965,114.861,73.573,114.705,73.998,114.705 M77.518,115.069h0.608h0.181v0.991l-1.152,0.21L77.518,115.069
	 M82.921,130.04c0.788,0,1.76,0.209,2.367,0.52c0.972,0.366,1.397,0.836,1.578,1.514l-1.213,0.731v1.148
	c-0.973,0.52-1.944,0.887-3.158,0.887L82.921,130.04 M92.998,126.963l-0.182-0.313c0.971-0.156,2.002,0,2.974,0.522
	c1.214,0.522,2.004,1.198,2.367,2.034h-0.789l-1.578-0.836L92.998,126.963 M87.657,128.37h0.606c1.76,0,2.973,0.156,3.338,0.678
	l-1.396,0.158L87.657,128.37 M88.08,130.249l0.183-0.521l2.973,0.312v0.52h-2.61l-0.182-0.154h-0.181L88.08,130.249 M70.599,130.04
	c1.214-1.67,2.185-2.712,2.975-3.233c1.395-0.678,3.581-0.678,6.556-0.157v0.679h-0.79c-2.976,0.156-4.979,0.521-6.192,1.042
	c-1.76,0.836-2.124,2.19-1.335,4.436c2.367,1.357,3.945,1.148,4.916-0.523l-0.364-0.364c-0.788,0.364-1.82,0.521-3.217,0.521
	c-0.972-1.355-0.789-2.19,0.607-2.92c1.032-0.472,2.609-0.836,4.371-0.836l2.366,0.836c0.607,2.242,0.607,3.756-0.182,4.643
	c-0.789,0.833-2.368,1.354-4.734,1.666l-1.215-0.468c-1.578-0.521-2.792-0.888-3.581-1.044c-0.789,0-1.942,0.156-3.946,0.679
	l-2.975-0.156l-0.607-3.235c0.607-0.886,1.579-1.198,2.611-1.198c0.971,0.154,1.336,0.833,1.578,1.876l-0.607,0.313l-0.182,0.522
	h1.578C68.838,132.439,69.81,131.396,70.599,130.04 M91.236,134.631l-0.606-0.314v-0.364l6.738-0.314h0.789v0.524
	c-1.153,0.311-2.974,0.468-5.524,0.468L91.236,134.631 M69.383,124.771l-0.181,0.68c-0.183,1.198-0.788,2.033-1.761,2.554
	c0.182-1.355,0.607-2.189,0.973-3.076L69.383,124.771 M66.228,121.694l-0.183,1.043c-0.972,0.312-2.003,0.521-2.974,0.68
	c0.181-0.68,0.363-1.201,0.788-1.723l0.607-0.522C64.831,121.172,65.438,121.382,66.228,121.694 M59.914,121.539
	c0.546-0.523,1.335-0.837,2.73-1.358h0.244c-0.425,1.67-2.003,2.869-4.613,3.391C58.7,122.528,59.307,121.851,59.914,121.539
	 M60.279,129.206c0.425-1.512,1.395-2.399,2.609-2.557C62.464,128.005,61.674,128.842,60.279,129.206 M63.434,129.206
	c0.425-2.034,1.397-3.077,2.61-3.391v0.156C65.621,127.694,64.649,128.842,63.434,129.206 M51.78,135.361
	c0.182-1.044,1.153-2.086,2.975-3.079c1.941-1.198,3.338-1.564,4.552-1.043v0.522c-0.788,0.312-1.821,0.834-2.974,1.514
	C54.33,134.317,52.752,134.996,51.78,135.361 M130.088,121.694l-0.972,2.242l0.363,1.879c0.244,0.678,0.244,0.991,0.244,1.356
	l-1.032,0.312c-1.396-0.678-2.367-0.991-2.55-1.355c-0.182-0.313-0.425-1.045-0.182-1.88v-1.877c0.971-1.2,2.367-1.877,4.552-2.034
	L130.088,121.694 M118.979,129.884l-1.942,0.156c-0.426-0.312-0.85-0.52-1.031-0.834c0.605-1.201,1.579-1.201,2.974-0.364
	L118.979,129.884 M117.036,133.118l-0.606-0.312c0.181-1.722,1.154-2.087,2.73-1.044v1.199L117.036,133.118 M104.895,123.05
	c0.79-0.521,2.004-0.678,4.188-0.678c2.004,1.722,3.947,3.079,6.133,4.277v1.045c-0.971,0.676-2.368,1.147-4.37,1.668l-0.791,0.157
	c-0.972-0.314-2.185-0.836-3.581-1.671c-0.972-0.677-1.76-1.199-2.366-1.355C103.924,124.615,104.288,123.571,104.895,123.05
	 M114.245,130.927v1.355h-2.004l-0.183-1.355C112.423,130.561,113.211,130.561,114.245,130.927 M98.34,127.694
	c-0.364-0.21-0.972-0.731-1.579-1.409c0.79-0.156,1.579,0.364,2.793,1.043c0.789,0.521,1.579,1.198,2.367,2.034l-0.788,0.157
	L98.34,127.694 M101.739,128.163c-0.972-0.835-1.578-1.514-1.578-2.191c2.367,0.521,3.946,1.877,4.733,4.068h-0.363
	C103.317,129.362,102.528,128.842,101.739,128.163 M103.498,133.639l-0.97,0.314c-0.183-0.314-0.426-0.47-0.972-0.678v-0.993h1.941
	C103.742,132.596,103.742,133.118,103.498,133.639 M101.314,136.719l-1.336,0.468l-2.185,0.73l-0.608-0.365v-0.365l3.157-0.834
	h0.972V136.719 M99.735,135.361l0.243,0.155c-1.031,0.312-2.185,0.679-4.007,0.836L95,136.507l-0.971-0.312v-0.679l5.523-0.364
	L99.735,135.361 M112.059,134.84l0.607-0.887l1.76,0.21l0.183,1.198h-2.367L112.059,134.84 M107.87,135.517l-0.363-0.155
	c-0.608-0.521-1.033-1.198-1.033-1.878c0.425-0.365,1.033-0.522,1.64-0.522h0.789C109.873,133.953,109.448,134.84,107.87,135.517
	 M119.768,119.139c0,1.199-0.79,2.243-2.55,2.921C116.005,119.974,116.792,119.139,119.768,119.139 M149.148,23.211
	c-1.214-0.677-1.82-1.198-1.82-1.565c2.974,1.199,5.401,2.556,7.162,3.912l-0.971,0.21L149.148,23.211 M157.464,15.178
	c1.215,0.158,2.186,0.522,2.793,1.044c-0.182,0.157-0.789,0.313-1.395,0.313l-5.159-1.357v-0.521L157.464,15.178 M154.49,18.621
	V18.1l3.764-0.21c1.214,0,1.821,0.21,2.186,0.366l-1.396,0.156L154.49,18.621 M179.684,4.799V5.11h-3.946l-4.372-0.99l-0.242-0.886
	c2.611-0.157,5.402,0.208,8.377,1.043v0.156L179.684,4.799 M180.653,28.115c0.789-0.835,2.186-1.826,4.37-3.392l1.821-1.355
	l0.548-0.157c-0.183,0.837-0.972,1.878-2.186,2.869l-4.311,3.077l-2.975,3.234C178.286,31.037,179.077,29.681,180.653,28.115
	 M173.734,32.914c0.363,0.679,0.363,1.355,0.363,1.878c-0.973,0.312-2.367,0.521-4.128,0.679l-0.606-0.367
	c0-0.989,0.182-2.189,0.606-3.389l4.977-0.521c-0.243,0.521-0.606,0.887-1.395,1.565L173.734,32.914 M163.414,25.402
	c0,0.522,0,1.2-0.365,2.243c-0.424,1.358-0.424,2.348,0,3.234c0.791,0.313,1.336,0.678,1.761,0.99
	c0.79,0.678,0.972,1.201,0.972,1.878c-0.972,0.678-1.759,1.2-2.551,1.044c-0.423,0-1.395-0.156-2.367-0.678l-0.607-0.366
	l1.762,3.077h-8.316v-5.632h-4.554c0.182-0.313,0.973-0.679,1.942-0.679l3.399-0.156c1.578-2.035,2.793-3.392,3.582-3.913
	C159.043,25.769,160.863,25.402,163.414,25.402 M181.869,41.781c-1.823-1.2-2.611-2.243-2.369-3.077l7.527,5.111
	c0.973,0.679,1.579,1.201,1.76,1.201v0.678l-0.607,0.155l-1.336-0.991C184.417,43.66,182.839,42.616,181.869,41.781 M142.593,31.193
	h-2.551v5.632H90.63v-5.11v-0.521h-1.214v-0.156l7.588,0.833l8.317-0.312c1.577,0,2.973,0.157,4.552,0.677
	c-0.425-0.833-1.214-1.564-2.366-2.033l-0.426-0.208v-0.679c0.789-0.312,2.186-0.312,4.37,0l1.76,0.366v-0.157
	c-0.181-0.887-0.545-1.408-0.97-1.722l0.182-0.677l2.793-1.045l-0.971-0.521l-2.369-0.47v-0.521l1.335-1.043l4.796-1.199
	c-0.182-0.156-0.971-0.312-2.002-0.679c-2.186-0.679-3.339-1.2-3.764-1.512l1.213-1.878l0.365-0.836l-5.344-1.042
	c0.607-1.879,2.005-2.922,4.19-2.922c1.942-0.156,3.944,0.365,5.706,1.721c0,0.158,0,0.522-0.182,1.044l-0.365,0.99
	c0.973,0.209,1.335,0.522,1.335,1.045c0,0.521-0.182,0.834,0,1.198h0.426c0.425-0.155,0.789-0.155,1.215,0l0.183,0.835l2.366-0.99
	l0.425,2.034c0.363,0,0.971-0.522,1.942-1.356l0.425-0.523c1.153-0.52,2.186-1.198,2.793-2.243c0.789,0,1.577-0.312,2.367-0.833
	h4.128l-0.183,0.678l-4.371,2.034l0.243,2.243c-0.425,0.312-1.214,0.523-2.428,0.155l-1.396-0.155c-0.181,0.523,0,1.357,0.427,2.191
	l0.363,1.356c-0.363,2.086-0.79,3.234-1.336,3.599h-4.189c0.971,1.514,2.791,2.558,5.524,3.078c2.791,0.522,4.977,0.312,6.555-0.678
	c0.79-1.043,1.397-2.243,2.004-3.443c0.607,0,1.396,0.365,2.367,1.043L142.593,31.193 M174.341,57.43l4.917-0.833
	c2.611-0.313,4.186-0.522,4.979-0.522c3.944,0.678,7.768,0.522,11.532-0.68c0.789,0,1.942,0,3.338,0.366
	c1.579,0.313,2.611,0.678,3.157,0.991c-0.182,1.199,0,2.087,0.426,2.399l0.972,1.357c0,1.199-0.606,2.397-1.943,3.598
	c-1.214,0.992-2.611,1.878-4.007,2.191l-3.764,0.208l-7.345-2.242l-6.132,0.364l-6.13-0.208L174.341,57.43 M174.341,66.298
	l9.287-0.835c1.579,0,3.765,0.521,6.738,1.356c2.429,0.678,4.371,1.199,5.585,1.356c-0.183,0.679-0.972,0.887-2.368,1.043h-0.788
	l-7.771-1.877l-10.683-0.367L174.341,66.298 M174.341,70.731v-2.19c4.129-0.522,8.135-0.365,11.473,0.313
	c1.214,0.886,2.974,1.355,5.341,1.72l3.4,0.837c0,1.72-0.789,3.075-2.551,4.277l-9.771,0.676c-1.336-0.522-3.339-0.676-5.707-0.522
	h-2.185v-1.356h-20.639v-3.755H174.341 M199.29,34.114v-0.678l3.216-0.522c0.549,0,1.579,0.157,2.732,0.522l0.242,0.678
	l-5.766,0.155l-0.183-0.155H199.29 M198.926,42.981l-2.186,0.312c0-0.521,0-0.991,0.183-1.513l0.182-0.156h0.426
	C198.318,41.781,198.926,42.093,198.926,42.981 M200.079,52.161l-3.339-1.877c-0.972-0.521-1.396-0.835-1.578-1.355
	c2.185,0.156,4.128,0.834,5.948,2.033c1.76,1.199,2.975,2.921,3.158,4.799h-0.79L200.079,52.161 M212.219,70.731l1.942-2.556
	c2.429-0.991,4.614-0.834,6.798,0.887v0.991c-0.605,0.521-2.184,1.199-4.186,1.878c-2.612,0.834-4.19,1.721-4.555,2.399
	c-0.607,0.991,0.183,2.398,2.55,4.067l3.764,1.879c1.396,2.242,0.79,3.913-1.942,4.8c-1.579,0.521-4.007,0.834-6.981,0.989
	l-0.546-0.312l-0.426-3.911c-0.18-0.887-0.424-1.879-0.971-2.921c0-1.357,0.363-2.714,1.396-4.278
	C209.608,73.808,210.641,72.452,212.219,70.731 M188,91.179l7.768,0.365c3.157,0.678,5.342,2.19,6.131,4.435
	c0.606,1.356,0.971,3.912,0.79,7.512v0.155l-2.61,0.157l-2.975-1.199c-2.367-0.993-4.31-1.671-5.707-2.035l-0.243-0.157
	c-1.334-1.043-2.367-1.721-2.974-2.033c-0.971-0.521-2.124-0.887-3.52-1.2h-5.16l-5.159-0.365V87.11
	c0.606,0.678,2.185,1.199,4.917,1.513c1.82,0.209,3.218,0.522,4.186,0.679C185.023,90.345,186.421,90.866,188,91.179
	 M205.48,103.282l0.365-0.313l2.611,0.313l0.18,0.677l-1.395,0.365C206.271,103.803,205.664,103.646,205.48,103.282
	 M190.609,118.146c-1.822-0.729-3.217-1.042-4.371-1.042c-0.79,0-2.186,0.156-3.763,0.522l-2.792,0.677l-0.606-0.364
	c0-1.356,0.606-2.348,2.001-3.234c0.971-0.836,2.366-1.514,3.945-1.879l5.16,0.522l7.527,1.199c0.244,0.835-0.788,1.723-2.731,2.557
	C193.159,117.782,191.762,118.146,190.609,118.146 M213.373,105.003l1.031,0.155c0,1.2-0.243,2.556-0.789,4.121l-1.82,4.59h-0.79
	L213.373,105.003 M142.773,117.782l-0.604,0.157l-5.708,0.207c-2.608,0.157-4.977,0.47-6.737,0.834
	c-5.403,1.357-7.163,3.913-5.403,7.669l0.79,0.522c1.639,0.833,2.428,1.512,2.428,2.19c-1.031,0.365-2.003,0.678-2.975,0.678
	c-3.4-0.992-5.403-2.191-6.192-3.547c-0.547-1.564,0-3.443,2.003-5.998c2.792-1.515,5.585-2.868,8.741-4.225l5.16-0.21l4.128-0.469
	l0.606-0.366c1.215-0.521,2.186-0.834,2.793-1.043c0.789-0.156,1.76,0.209,2.975,0.887
	C144.778,116.426,143.987,117.261,142.773,117.782 M146.537,117.939c0-1.2,0.427-2.034,1.033-2.557c1.152,0,2.368,0.678,3.338,2.244
	c0.607,0.833,1.215,2.19,1.821,4.067l0.547,1.564c1.031,1.357,2.185,2.713,3.581,3.913c1.032,0.991,2.61,2.19,4.371,3.389v0.679
	c-1.153,0.522-2.55,0.679-3.945,0.835l-5.768,0.208l-0.789-0.364c0-0.834,0.364-1.669,1.215-2.556
	c0.547-0.836,0.97-1.514,1.153-1.878c-0.972-0.991-1.762-2.19-2.55-3.235l-0.243-0.678c-0.545-1.355-0.972-2.399-1.335-3.233
	c-0.851-1.199-1.639-1.878-2.43-2.034v-0.364 M165.174,130.249l-0.789,0.311c-0.545-0.311-0.971-1.198-1.154-2.19l-0.182-0.886
	h0.791c0.788,0.364,1.151,1.199,1.334,2.243L165.174,130.249 M141.014,130.249l0.79-0.209l2.184-0.156
	c0,0.365-0.424,1.043-1.214,1.721l-0.97,0.991c0.365,0.522,1.396,1.043,2.55,1.2h0.241l18.454-0.52
	c-0.241,1.198-1.82,1.877-5.159,2.241c-1.821,0.157-4.187,0.157-7.588,0.157h-1.153l-10.744,0.834l-3.765-0.991
	c-0.181-1.043,0.607-2.033,2.187-3.077C137.613,131.762,139.011,131.084,141.014,130.249 M210.033,121.382l-2.004,0.157
	l-0.605-0.367c0-0.47,0-0.834,0.425-0.991l2.003,0.314L210.033,121.382 M212.401,133.118l-0.183,0.521l-5.766,0.679l-0.973-0.154
	v-0.68L212.401,133.118 M106.717,8.71l7.103,0.365c0.606-0.365,1.821-0.887,3.217-1.564c1.762-0.991,2.975-1.514,3.947-1.879
	c1.395-0.312,2.973-0.312,4.368,0.157V6.99l-0.788,0.52c-1.396,0.835-2.428,1.564-2.61,1.878c-0.182,0.521-0.364,1.357-0.364,2.713
	l0.183,1.564l-0.426,0.523c-1.577,0-3.521-0.366-5.522-0.888c-1.578-0.522-2.976-0.678-3.765-0.678
	c-1.396,0-2.976,0.678-4.978,1.722h-0.972l0.183-1.358c-1.215,0-2.55,0.158-4.371,0.678L94.576,15.7l-0.182-0.835l2.185-1.2
	c-0.182-0.208-0.607-0.208-0.973-0.208h-3.398v-0.47c1.579-0.677,3.764-1.355,6.921-2.242l1.214-0.314l-2.975-1.043V8.71
	C99.129,8.189,102.103,8.189,106.717,8.71 M98.583,21.489c-1.215-0.834-1.822-1.512-1.822-2.034c3.4-0.52,5.585,0,6.737,1.879
	c1.033,1.877-0.181,3.233-3.944,4.068l-3.399,0.156l-0.789-0.156c-1.154-0.156-1.942-0.521-2.186-0.991l4.371-0.363
	c1.396-0.157,2.003-0.68,2.185-1.514L98.583,21.489 M98.947,18.101l-0.972-0.21l0.182-0.679c4.188-1.198,7.345,0.209,9.35,4.434
	c0,1.565-0.243,2.556-0.426,3.077c-0.183,0.365-0.972,0.835-2.186,1.565l-1.577,0.836c-1.761,0.312-3.946,0.677-6.132,0.677
	l-5.584-1.199c-0.547,0-1.396-0.313-1.942-0.523l-0.243-0.521l2.003,0.21c3.399,0.521,5.949,0.677,7.528,0.677
	c2.792-0.365,4.795-1.199,5.947-2.921v-2.869c-0.971-0.678-1.941-1.355-2.974-1.721L98.947,18.101 M67.623,7.354V6.677
	c2.187-1.357,4.735-1.566,7.527-0.68c2.611,0.836,4.189,2.557,4.189,5.113c-0.79,0.678-1.822,1.2-2.976,1.513l-3.217,0.364h-0.364
	l-0.607-0.208c-1.396-0.156-2.003-0.313-2.549-0.678c0.183-0.157,1.153-0.313,2.186-0.47c2.549-0.521,3.945-1.2,3.945-2.243
	c-0.971-0.835-2.003-1.356-2.975-1.722L67.623,7.354 M56.94,12.466v0.835l-1.64,0.364l-0.182-0.208h-0.182v-0.156
	c-0.182-0.678-0.182-1.356,0-1.513C55.544,11.788,56.333,11.944,56.94,12.466 M48.017,15.336c1.336,0,2.124,0.521,2.367,1.876
	l-1.215,0.209C47.773,17.057,47.409,16.379,48.017,15.336 M54.512,18.101c0-0.21,0-0.521,0.243-0.68l4.734-0.364
	c2.185,0.155,3.582,0.522,4.37,1.356c-0.181,1.722-0.607,3.076-1.215,3.912c-0.788,1.407-2.185,1.877-3.944,1.877
	c-0.182-0.312-0.789-0.834-0.972-1.512c-1.822-0.156-2.974,0.521-4.006,1.877c-0.547,0.679-1.154,2.035-1.761,4.069
	c-0.606,1.722-0.972,2.765-1.396,3.233c-0.607,0.364-1.579,0.521-2.977,0.888l-0.181,0.469c-0.607,1.877-1.579,2.921-2.792,3.077
	c-0.789-1.668-0.789-2.867-0.182-3.912c0.362-0.521,1.395-0.99,2.55-1.512c1.577-0.521,2.367-1.199,2.367-1.877l-3.765,0.312
	c-0.971-0.835-0.546-1.878,1.214-2.712c0.788-0.523,2.186-1.044,3.946-1.514h0.242l-0.606-1.564
	c-0.425-0.679-0.789-1.355-0.789-2.035c0.789-0.312,2.185-0.678,3.764-0.834l0.972-0.209L54.512,18.101 M69.81,14.657l-1.579-0.469
	v-0.366h4.917c2.003-0.157,3.581-0.365,4.979-0.677c3.581-0.835,4.188-2.923,2.366-5.791l-0.182-0.156
	c-1.578-1.201-2.975-2.088-3.946-2.399c3.765,0,6.131,1.355,7.527,4.276c0,2.348-1.396,4.07-4.188,4.904
	c-1.577,0.365-4.37,0.678-8.134,0.678H69.81 M67.199,21.334c0.607,0.155,1.396,0.523,2.184,1.2c1.216,0.677,2.187,0.99,2.976,1.198
	l-0.971-1.876c1.214,0,2.003,0.312,2.974,0.678c0.972,0.469,1.396,1.198,1.396,1.877l-0.971,0.312l-2.186,0.157l-0.426-0.157
	c-1.577-0.521-2.549-0.833-3.156-1.199C67.807,23.003,67.441,22.325,67.199,21.334 M85.895,19.978l-0.424-0.209v-0.834
	c1.396-0.522,3.155-0.678,5.584-0.678h0.972v0.521L85.895,19.978 M61.856,28.846l-1.152,0.157c-0.79-0.157-1.032-0.524-1.215-0.68
	l0.425-0.365h1.76L61.856,28.846 M50.748,34.426h1.82v0.888l-1.578,0.157L50.748,34.426 M48.806,38.025l-0.426-0.676l2.004-0.366
	v0.678L48.806,38.025 M48.38,39.538v1.043l-2.186,0.158c0-0.313,0-0.68,0-0.992L48.38,39.538 M48.017,69.74v0.47l-5.767,0.888
	c0.181-0.523,0.788-0.888,1.76-1.044L48.017,69.74 M21.609,22.534c0.427-1.045,0.79-1.566,1.578-1.879l-0.971,2.869
	c-0.425,0.887-0.788,1.356-1.214,1.564C21.185,24.048,21.429,23.211,21.609,22.534 M31.931,35.782v0.365l-5.586,0.835l-1.76,0.522
	l-0.183-0.522l4.129-0.992L31.931,35.782 M45.042,39.383l-1.032,0.364v-0.678l1.214-0.209L45.042,39.383 M16.268,53.518l0.608,0.209
	c0.363,0.679,0.788,1.356,0.788,2.034h-0.788C16.45,55.239,16.45,54.405,16.268,53.518 M33.145,61.708
	c1.335-0.157,2.124-0.157,2.367,0l-0.243,0.834l-1.578,0.364l-0.546-0.364v-0.156V61.708 M32.72,65.984v-0.521
	c0.425,0,1.213-0.364,2.002-0.364l-0.242,1.199h-1.335L32.72,65.984 M46.014,75.843l-0.183-0.991
	c-0.788,0.837-1.213,2.036-1.395,3.757c0,1.147,0,2.869,0.362,5.111l0.244,3.391c-0.425,0-0.851-0.155-1.032-0.365h-0.364
	l-1.215,3.965h-0.788V89.98c0-2.558,0.183-4.382,0.424-5.79l-2.003,0.678l-0.971,0.209l0.364-4.121
	c-0.789,0.678-1.578,1.877-2.367,3.234l-0.606,0.887c-0.183-0.887,0-2.088,0.606-3.443c0.364-0.678,1.152-1.878,2.186-3.392
	c0.972-1.354,1.76-2.554,1.942-3.232c0.849-0.523,1.213-1.045,1.213-1.357h-1.577l0.182-0.678c1.395-0.678,3.4-0.678,5.767-0.678
	h1.395c0,1.2-0.181,2.713-0.424,4.067L46.802,80.8h-0.607L46.014,75.843 M29.137,79.443L30.17,79.6l0.789,1.721h0.364l1.214-1.043
	c0.607-0.834,1.153-1.514,1.395-1.669l-1.395,9.701h-0.425l-0.607-0.156l-0.789-2.92C29.926,82.676,29.319,80.643,29.137,79.443
	 M12.261,78.764L7.71,78.922c-1.579-1.722-0.548-3.233,2.792-4.436c3.155-1.199,4.734-0.312,4.553,2.922
	C14.083,78.086,13.112,78.608,12.261,78.764 M45.224,125.451l-0.182-0.367c0.972-1.354,2.975-2.034,5.342-2.347l-0.425,1.199
	c0.182,0.157,0.789,0.312,1.821,0.312l-0.243,0.522v0.157L45.224,125.451 M104.288,111.156h0.243
	c0.183,1.148,0.971,2.192,2.367,3.026l0.789,0.365c0.606,1.044-0.181,2.191-2.186,3.392l-0.607,0.521l-7.101,0.156
	c-3.399,0.522-4.796,1.357-4.371,2.556h0.607c1.76,0.367,3.155,0.522,4.127,0.888v0.678L95,122.894l-0.183,0.836l-4.37-0.312
	l-4.188,0.154l0.971,1.88l-10.866-0.836l-3.217,0.836l-1.335,0.364c-0.243-2.922,0.182-4.955,1.152-5.998
	c0.79-0.679,2.793-1.671,6.132-2.869l0.425-0.209l1.214-0.993c1.942-0.521,4.735-0.885,8.316-1.198l6.92-0.834
	c2.368-0.522,4.796-1.409,6.981-2.766L104.288,111.156 M101.921,109.957c-0.182,0.835-0.971,1.356-2.367,1.879l-4.188,0.677
	l-0.182-0.364c0.606-0.678,1.577-1.2,2.974-1.513C99.371,110.271,100.768,110.114,101.921,109.957 M109.083,116.583
	c2.185-1.514,3.947-2.557,5.343-2.869c2.004-0.679,4.553-0.365,7.163,0.834v0.678h-1.396c-2.974,0-4.977,0.366-5.947,0.68
	c-1.579,0.521-3.158,1.877-4.555,3.912c-2.184,1.354-4.796,2.242-7.951,2.555l-0.789-0.312c-1.215-0.521-1.821-1.199-2.187-1.722
	l4.734-0.364C105.077,119.294,106.898,118.304,109.083,116.583 M56.515,99.056v2.19l-3.156,0.521l-0.425-0.521
	c-0.607-0.156-0.972,0.364-0.972,1.044v0.679l4.734-0.209c2.188-0.314,4.008-0.314,4.796-0.156
	c-0.606,1.877-2.186,2.764-4.978,3.077c-2.792-0.678-4.734-1.2-5.524-1.878c-1.638-1.043-1.396-2.4,0.547-3.912L56.515,99.056
	 M93.18,128.684v-0.313c0.607,0,1.396,0.156,1.821,0.313l-1.214,0.158L93.18,128.684 M97.976,138.595l0.182-0.209
	c2.004-0.469,3.582-0.677,4.978-0.834c-0.182,0.679-0.789,1.2-1.82,1.357l-3.339,0.156L97.976,138.595"/>
</svg>
