<?xml version="1.0" encoding="iso-8859-1"?>
<!-- Generator: Adobe Illustrator 17.0.0, SVG Export Plug-In . SVG Version: 6.00 Build 0)  -->
<!DOCTYPE svg PUBLIC "-//W3C//DTD SVG 1.1//EN" "http://www.w3.org/Graphics/SVG/1.1/DTD/svg11.dtd">
<svg version="1.1" id="Layer_1" xmlns="http://www.w3.org/2000/svg" xmlns:xlink="http://www.w3.org/1999/xlink" x="0px" y="0px"
	 width="85.497px" height="71.974px" viewBox="0 0 85.497 71.974" style="enable-background:new 0 0 85.497 71.974;"
	 xml:space="preserve">
<g>
	<g>
		<g>
			<ellipse transform="matrix(-0.0342 -0.9994 0.9994 -0.0342 -1.2687 79.4838)" cx="37.772" cy="40.355" rx="7.991" ry="24.452"/>
			<path style="fill:#AF2922;" d="M14.151,65.029l0.021-0.001c0.665,4.242,11.515,7.277,24.68,6.826
				c13.164-0.45,23.781-4.22,24.155-8.498l0.02-0.001l-0.79-23.095L13.36,41.934L14.151,65.029z"/>
			<path style="fill:#ACACAC;" d="M38.654,66.119c-13.163,0.45-24.013-2.584-24.679-6.827l-0.02,0.001l0.196,5.736l0.021-0.001
				c0.665,4.242,11.515,7.277,24.68,6.826c13.164-0.45,23.781-4.22,24.155-8.498l0.02-0.001L62.83,57.62l-0.02,0.001
				C62.436,61.898,51.819,65.667,38.654,66.119z"/>
			<path style="fill:#ACACAC;" d="M38.146,51.273c-13.164,0.451-24.014-2.584-24.679-6.826h-0.021l0.196,5.736l0.019-0.001
				c0.666,4.243,11.516,7.277,24.68,6.826c13.165-0.45,23.781-4.219,24.155-8.498h0.02l-0.195-5.736l-0.02,0.001
				C61.927,47.053,51.311,50.822,38.146,51.273z"/>
			<path d="M38.216,53.313c-13.164,0.45-24.015-2.585-24.681-6.827l-0.019,0.001l0.057,1.656h0.021
				c0.665,4.242,11.515,7.276,24.68,6.825c13.164-0.449,23.781-4.219,24.155-8.497l0.02-0.001l-0.057-1.656h-0.02
				C61.998,49.092,51.38,52.862,38.216,53.313z"/>
			<path d="M38.75,68.915c-13.164,0.45-24.013-2.584-24.679-6.826l-0.019,0.001l0.057,1.656l0.019-0.001
				c0.666,4.243,11.516,7.277,24.68,6.826c13.164-0.45,23.781-4.219,24.155-8.497l0.019-0.001l-0.057-1.657l-0.02,0.001
				C62.532,64.696,51.915,68.464,38.75,68.915z"/>
			<g>
				
					<rect x="53.268" y="55.438" transform="matrix(-0.0487 -0.9988 0.9988 -0.0487 4.0619 116.6898)" style="fill:#6E7B80;" width="8.666" height="1.946"/>
				
					<rect x="46.838" y="56.451" transform="matrix(-0.0487 -0.9988 0.9988 -0.0487 3.8121 117.1024)" style="fill:#EBF8FC;" width="21.672" height="0.57"/>
				<g>
					<path style="fill:#E6F4FF;" d="M57.21,59.68c0.009,0.175,0.103,0.313,0.209,0.308l0.711-0.034
						c0.107-0.006,0.186-0.151,0.179-0.327l-0.143-2.914l-1.099,0.053L57.21,59.68z"/>
					<path style="fill:#CBD4D6;" d="M56.925,53.851l0.142,2.914l1.099-0.053l-0.142-2.915c-0.009-0.175-0.102-0.314-0.209-0.308
						l-0.711,0.034C56.997,53.529,56.917,53.675,56.925,53.851z"/>
				</g>
				
					<rect x="56.916" y="55.869" transform="matrix(-0.0486 -0.9988 0.9988 -0.0486 4.4949 116.3094)" style="fill:#6E7B80;" width="1.445" height="0.29"/>
			</g>
			<g>
				
					<rect x="33.86" y="58.896" transform="matrix(-0.0487 -0.9988 0.9988 -0.0487 -19.7459 100.9312)" style="fill:#6E7B80;" width="8.666" height="1.946"/>
				
					<rect x="27.43" y="59.909" transform="matrix(-0.0487 -0.9988 0.9988 -0.0487 -19.9945 101.3444)" style="fill:#EBF8FC;" width="21.672" height="0.571"/>
				<g>
					<path style="fill:#E6F4FF;" d="M37.802,63.138c0.009,0.175,0.102,0.313,0.209,0.309l0.711-0.035
						c0.106-0.005,0.187-0.151,0.179-0.327l-0.143-2.914l-1.099,0.054L37.802,63.138z"/>
					<path style="fill:#CBD4D6;" d="M37.518,57.31l0.142,2.914l1.099-0.054l-0.142-2.914c-0.009-0.176-0.103-0.315-0.21-0.309
						l-0.711,0.034C37.589,56.988,37.509,57.134,37.518,57.31z"/>
				</g>
				
					<rect x="37.508" y="59.327" transform="matrix(-0.0486 -0.9988 0.9988 -0.0486 -19.3114 100.5515)" style="fill:#6E7B80;" width="1.445" height="0.291"/>
			</g>
			<g>
				
					<rect x="13.538" y="56.143" transform="matrix(0.0108 -0.9999 0.9999 0.0108 -39.4346 74.3686)" style="fill:#6E7B80;" width="8.667" height="1.945"/>
				
					<rect x="7.088" y="57.16" transform="matrix(0.0108 -0.9999 0.9999 0.0108 -39.7108 74.747)" style="fill:#EBF8FC;" width="21.673" height="0.57"/>
				<g>
					<path style="fill:#E6F4FF;" d="M17.286,60.357c-0.001,0.175,0.084,0.318,0.191,0.32l0.711,0.007
						c0.107,0.001,0.195-0.14,0.197-0.315l0.032-2.918l-1.101-0.012L17.286,60.357z"/>
					<path style="fill:#CBD4D6;" d="M17.35,54.521l-0.033,2.918l1.101,0.012l0.032-2.918c0.001-0.175-0.084-0.318-0.191-0.32
						l-0.711-0.007C17.44,54.204,17.35,54.345,17.35,54.521z"/>
				</g>
				
					<rect x="17.21" y="56.577" transform="matrix(0.0108 -0.9999 0.9999 0.0108 -38.9802 74.042)" style="fill:#6E7B80;" width="1.445" height="0.292"/>
			</g>
			<path style="fill:#CCD8DB;" d="M41.293,71.701c-0.46-2.707-1.815-4.682-3.248-4.568c-1.392,0.111-2.398,2.155-2.479,4.787
				c1.396,0.078,2.662,0.067,3.8,0.002C39.984,71.869,40.626,71.797,41.293,71.701z"/>
			<path style="fill:#CCD8DB;" d="M34.907,48.8c0.335,2.726,1.598,4.762,3.035,4.713c1.393-0.046,2.494-2.042,2.696-4.667
				c-1.39-0.143-2.656-0.189-3.795-0.177C36.222,48.693,35.578,48.734,34.907,48.8z"/>
			<path style="fill:#CCD8DB;" d="M53.996,43.848c0.335,2.725,1.598,4.761,3.034,4.713c1.396-0.047,2.494-2.043,2.697-4.668
				c-1.391-0.143-2.656-0.19-3.795-0.177C55.311,43.74,54.667,43.782,53.996,43.848z"/>
			<path style="fill:#CCD8DB;" d="M15.309,44.643c0.336,2.725,1.599,4.761,3.035,4.713c1.395-0.047,2.495-2.042,2.696-4.667
				c-1.39-0.143-2.655-0.189-3.794-0.178C16.626,44.536,15.981,44.577,15.309,44.643z"/>
			
				<ellipse transform="matrix(-0.0342 -0.9994 0.9994 -0.0342 -1.9841 80.2767)" style="fill:#E3D7BC;" cx="37.798" cy="41.097" rx="7.991" ry="24.452"/>
			<path style="fill:#CCD8DB;" d="M58.684,63.853c-1.385,0.163-2.316,2.244-2.297,4.939c3.692-1.458,4.961-2.688,4.961-2.688
				C61.055,65.104,59.666,63.739,58.684,63.853z"/>
			<path style="fill:#CCD8DB;" d="M17.973,64.766c1.386,0.162,2.315,2.243,2.298,4.938c-3.692-1.458-4.962-2.688-4.962-2.688
				C15.602,66.017,16.992,64.65,17.973,64.766z"/>
		</g>
		<defs>
			<filter id="Adobe_OpacityMaskFilter" filterUnits="userSpaceOnUse" x="37.517" y="39.257" width="24.781" height="5.873">
				<feFlood  style="flood-color:white;flood-opacity:1" result="back"/>
				<feBlend  in="SourceGraphic" in2="back" mode="normal"/>
			</filter>
		</defs>
		<mask maskUnits="userSpaceOnUse" x="37.517" y="39.257" width="24.781" height="5.873" id="SVGID_1_">
			<g style="filter:url(#Adobe_OpacityMaskFilter);">
				<defs>
					<filter id="Adobe_OpacityMaskFilter_1_" filterUnits="userSpaceOnUse" x="37.517" y="39.257" width="24.781" height="5.873">
						<feFlood  style="flood-color:white;flood-opacity:1" result="back"/>
						<feBlend  in="SourceGraphic" in2="back" mode="normal"/>
					</filter>
				</defs>
				<mask maskUnits="userSpaceOnUse" x="37.517" y="39.257" width="24.781" height="5.873" id="SVGID_1_">
				</mask>
				
					<radialGradient id="SVGID_2_" cx="5518.5854" cy="3929.7585" r="23.7968" gradientTransform="matrix(-0.0129 -0.1056 0.5204 -0.0638 -1923.9487 875.6746)" gradientUnits="userSpaceOnUse">
					<stop  offset="0" style="stop-color:#FFFFFF"/>
					<stop  offset="1" style="stop-color:#000000"/>
				</radialGradient>
				<path style="mask:url(#SVGID_1_);fill:url(#SVGID_2_);" d="M49.6,39.681c6.841-0.84,12.524-0.395,12.694,0.993
					c0.171,1.388-5.237,3.193-12.078,4.031c-6.841,0.84-12.524,0.395-12.695-0.993C37.351,42.325,42.759,40.52,49.6,39.681z"/>
			</g>
		</mask>
		
			<radialGradient id="SVGID_3_" cx="5518.5854" cy="3929.7585" r="23.7968" gradientTransform="matrix(-0.0129 -0.1056 0.5204 -0.0638 -1923.9487 875.6746)" gradientUnits="userSpaceOnUse">
			<stop  offset="0" style="stop-color:#000000"/>
			<stop  offset="1" style="stop-color:#FFFFFF"/>
		</radialGradient>
		<path style="fill:url(#SVGID_3_);" d="M49.6,39.681c6.841-0.84,12.524-0.395,12.694,0.993c0.171,1.388-5.237,3.193-12.078,4.031
			c-6.841,0.84-12.524,0.395-12.695-0.993C37.351,42.325,42.759,40.52,49.6,39.681z"/>
	</g>
	<g>
		<g>
			<g>
				<path style="fill:#D4BF92;" d="M41.255,30.554c1.362-0.856,2.231-2.034,2.238-2.912c0.761-0.125,1.684-0.334,1.784-0.397
					L85.327,2.061c0.17-0.106,0.222-0.332,0.113-0.502L84.568,0.17C84.46,0,84.236-0.051,84.065,0.056L44,25.25
					c-0.105,0.065-0.788,0.782-1.271,1.362c-0.816-0.275-2.16,0.015-3.438,0.817c-1.693,1.065-2.626,2.628-2.084,3.49
					C37.75,31.783,39.562,31.619,41.255,30.554z"/>
				
					<rect x="77.672" y="-1.937" transform="matrix(-0.5281 -0.8492 0.8492 -0.5281 115.2342 73.8057)" style="fill:#C7AA87;" width="0.906" height="13.639"/>
			</g>
			<path style="fill:#A6875F;" d="M48.681,38.221c-1.445-0.706-2.906-0.825-3.654-0.367c-0.508-0.581-1.172-1.256-1.278-1.308
				L1.245,15.774c-0.181-0.089-0.399-0.014-0.488,0.167l-0.72,1.474c-0.088,0.182-0.014,0.399,0.168,0.487l42.522,20.781
				c0.111,0.056,1.079,0.258,1.827,0.363c0.196,0.839,1.151,1.828,2.506,2.49c1.798,0.878,3.617,0.848,4.064-0.067
				C51.572,40.553,50.478,39.099,48.681,38.221z"/>
		</g>
	</g>
</g>
</svg>
