<?xml version="1.0" encoding="utf-8"?>
<!-- Generator: Adobe Illustrator 17.0.0, SVG Export Plug-In . SVG Version: 6.00 Build 0)  -->
<!DOCTYPE svg PUBLIC "-//W3C//DTD SVG 1.1//EN" "http://www.w3.org/Graphics/SVG/1.1/DTD/svg11.dtd">
<svg version="1.1" id="图层_1" xmlns="http://www.w3.org/2000/svg" xmlns:xlink="http://www.w3.org/1999/xlink" x="0px" y="0px"
	 width="120.297px" height="202.256px" viewBox="0 0.474 120.297 202.256" enable-background="new 0 0.474 120.297 202.256"
	 xml:space="preserve">
<g id="HDD">
	<g>
		<g>
			<g>
				<path fill="#1C1C1C" d="M91.279,15.82c-0.224,0-0.408-0.183-0.408-0.408V0.882c0-0.224,0.184-0.408,0.408-0.408h14.555
					c0.224,0,0.408,0.184,0.408,0.408v14.53c0,0.224-0.184,0.408-0.408,0.408H91.279z"/>
				<path fill="#1C1C1C" d="M90.871,10.529h-9.237c-0.224,0-0.408-0.184-0.408-0.408V6.175c0-0.224,0.183-0.408,0.408-0.408h9.237"
					/>
				<g>
					<g>
						<g>
							<path fill="#E4E4E4" d="M106.241,1.547h13.648c0.224,0,0.408,0.184,0.408,0.408V14.34c0,0.224-0.184,0.408-0.408,0.408
								h-13.648"/>
						</g>
					</g>
					<path opacity="0.5" fill="#FFFFFF" enable-background="new    " d="M111.468,4.105c0-0.281,0.229-0.51,0.51-0.51h1.704
						c0.281,0,0.51,0.229,0.51,0.51v1.898c0,0.281-0.229,0.51-0.51,0.51h-1.704c-0.281,0-0.51-0.229-0.51-0.51V4.105z"/>
					<path fill="#666666" d="M111.978,6.411c-0.224,0-0.408-0.184-0.408-0.408V4.105c0-0.224,0.183-0.408,0.408-0.408h1.704
						c0.224,0,0.408,0.183,0.408,0.408v1.898c0,0.224-0.183,0.408-0.408,0.408C113.682,6.411,111.978,6.411,111.978,6.411z"/>
					<path opacity="0.5" fill="#FFFFFF" enable-background="new    " d="M111.468,10.475c0-0.281,0.229-0.51,0.51-0.51h1.704
						c0.281,0,0.51,0.229,0.51,0.51v1.898c0,0.281-0.229,0.51-0.51,0.51h-1.704c-0.281,0-0.51-0.229-0.51-0.51V10.475z"/>
					<path fill="#666666" d="M111.978,12.781c-0.224,0-0.408-0.183-0.408-0.408v-1.898c0-0.224,0.183-0.408,0.408-0.408h1.704
						c0.224,0,0.408,0.183,0.408,0.408v1.898c0,0.224-0.183,0.408-0.408,0.408H111.978z"/>
					<path opacity="0.5" fill="#FFFFFF" enable-background="new    " d="M108.176,7.521c0-0.281,0.229-0.51,0.51-0.51h0.277
						c0.281,0,0.51,0.229,0.51,0.51V8.91c0,0.281-0.229,0.51-0.51,0.51h-0.277c-0.281,0-0.51-0.229-0.51-0.51V7.521z"/>
					<path fill="#666666" d="M108.686,9.318c-0.224,0-0.408-0.184-0.408-0.408V7.521c0-0.224,0.183-0.408,0.408-0.408h0.277
						c0.224,0,0.408,0.184,0.408,0.408V8.91c0,0.224-0.184,0.408-0.408,0.408C108.963,9.317,108.686,9.317,108.686,9.318z"/>
					<path opacity="0.2" enable-background="new    " d="M113.682,6.411h-0.204c0.224,0,0.408-0.184,0.408-0.408V4.105
						c0-0.224-0.183-0.408-0.408-0.408h0.204c0.224,0,0.408,0.184,0.408,0.408v1.898C114.09,6.228,113.907,6.411,113.682,6.411z"/>
					<path opacity="0.2" enable-background="new    " d="M113.682,12.781h-0.204c0.224,0,0.408-0.183,0.408-0.408v-1.898
						c0-0.224-0.183-0.408-0.408-0.408h0.204c0.224,0,0.408,0.184,0.408,0.408v1.898C114.09,12.598,113.907,12.781,113.682,12.781z"
						/>
					<path opacity="0.2" enable-background="new    " d="M108.963,9.319h-0.204c0.224,0,0.408-0.184,0.408-0.408v-1.39
						c0-0.224-0.184-0.408-0.408-0.408h0.204c0.224,0,0.408,0.184,0.408,0.408V8.91C109.371,9.135,109.187,9.319,108.963,9.319z"/>
					<rect x="106.241" y="1.546" opacity="0.1" enable-background="new    " width="0.839" height="13.202"/>
				</g>
			</g>
			<rect x="89.98" y="5.766" opacity="0.1" enable-background="new    " width="0.891" height="4.762"/>
		</g>
		<g>
			<path d="M49.161,73.098h-3.318V26.84c0-11.096,9.027-20.123,20.123-20.123h15.258v3.317H65.966
				c-9.267,0-16.806,7.539-16.806,16.806L49.161,73.098L49.161,73.098z"/>
		</g>
	</g>
	<g>
		<path fill="#2F2F2F" d="M94.442,77.838v120.153c0,2.607-2.133,4.739-4.739,4.739H4.739c-2.607,0-4.739-2.133-4.739-4.739V77.838
			c0-2.607,2.133-4.739,4.739-4.739h84.964C92.309,73.098,94.442,75.23,94.442,77.838z"/>
		<rect x="28.806" y="127.51" fill="#171717" width="36.83" height="23.748"/>
		<g>
			<path fill="#2F2F2F" d="M42.719,142.758v-2.916h-2.916v2.916H38.71v-6.748h1.093v2.876h2.916v-2.876h1.103v6.748H42.719z"/>
			<path fill="#2F2F2F" d="M47.211,142.758h-2.335v-6.748h2.335c1.038,0,1.747,0.263,2.128,0.788
				c0.381,0.526,0.571,1.35,0.571,2.473c0,0.571-0.038,1.056-0.113,1.453c-0.076,0.397-0.208,0.757-0.399,1.079
				C49.023,142.441,48.294,142.758,47.211,142.758z M48.777,139.271c0-0.814-0.102-1.402-0.305-1.763
				c-0.204-0.361-0.624-0.542-1.261-0.542H45.97v4.827h1.241c0.65,0,1.083-0.24,1.3-0.719c0.105-0.243,0.176-0.502,0.212-0.778
				C48.759,140.021,48.777,139.678,48.777,139.271z"/>
			<path fill="#2F2F2F" d="M53.033,142.758h-2.334v-6.748h2.334c1.038,0,1.747,0.263,2.128,0.788
				c0.381,0.526,0.571,1.35,0.571,2.473c0,0.571-0.038,1.056-0.113,1.453c-0.076,0.397-0.209,0.757-0.399,1.079
				C54.845,142.441,54.116,142.758,53.033,142.758z M54.599,139.271c0-0.814-0.102-1.402-0.305-1.763
				c-0.204-0.361-0.624-0.542-1.261-0.542h-1.241v4.827h1.241c0.65,0,1.084-0.24,1.3-0.719c0.105-0.243,0.176-0.502,0.212-0.778
				C54.581,140.021,54.599,139.678,54.599,139.271z"/>
		</g>
		<path fill="#171717" d="M94.442,77.838V90.08H0V77.838c0-2.607,2.133-4.739,4.739-4.739h84.964
			C92.309,73.098,94.442,75.23,94.442,77.838z"/>
	</g>
</g>
</svg>
