<?xml version="1.0" encoding="utf-8"?>
<!-- Generator: Adobe Illustrator 17.0.0, SVG Export Plug-In . SVG Version: 6.00 Build 0)  -->
<!DOCTYPE svg PUBLIC "-//W3C//DTD SVG 1.1//EN" "http://www.w3.org/Graphics/SVG/1.1/DTD/svg11.dtd">
<svg version="1.1" id="图层_1" xmlns="http://www.w3.org/2000/svg" xmlns:xlink="http://www.w3.org/1999/xlink" x="0px" y="0px"
	 width="502.565px" height="776.692px" viewBox="0 0 502.565 776.692" enable-background="new 0 0 502.565 776.692"
	 xml:space="preserve">
<path fill="#E5A723" d="M41.667,767.457h0.001v9.235H23.119v-9.235h-0.001v-4.555h-4.564v4.555h0.001v9.235H0v-9.235v-9.119h13.79
	v-2.334h4.765v2.334h4.564v-2.334h4.559v2.334h13.989V767.457z M13.79,756.003h4.765v-2.335h4.564v2.335h4.559v-2.335h18.555v2.335
	h4.695v-6.996h-23.25v-4.611h-4.559v4.611h-4.564v-4.613v-9.272H0v9.272v9.274h13.79V756.003z M23.119,744.394h4.559v-18.497H4.565
	v-9.233h9.225v-18.451H4.565V380.617v-20.498V78.484h9.225V60.033H4.565v-9.234h23.112V32.298h-4.558v13.833H0v18.562h9.22v9.22H0
	V360.12v20.498v322.164h9.22v9.221H0v18.562h23.119V744.394z M18.555,32.298H13.79v4.613H4.565v-4.613H0v9.274h18.555V32.298z
	 M479.446,32.298h-4.559v18.501H498v9.234h-9.225v18.451H498v271.567v26.253v321.909h-9.225v18.451H498v9.233h-23.113v18.498h-0.001
	v4.613h-23.251v6.996v11.453h0.001v4.555h-9.225v-4.555h-0.001v-4.555h-18.453v4.555h0.001v4.555H313.047h-21.414H78.607v-4.555
	v-4.555H60.154v4.555v4.555h-9.227v-4.555v-11.453h-4.695v11.453v9.235h18.487v-9.235v-0.003h9.226v0.003v9.235h217.688h21.414
	H428.62v-9.235h-0.001v-0.003h9.227v0.003v9.235h18.487v-9.235h-0.001v-11.453v-2.335h18.554v2.335h-0.001v2.334h-13.989v9.119
	h0.001v9.235h18.548v-9.235h-0.001v-4.555h4.565v4.555h0.001v9.235h18.556v-9.235h-0.001v-9.119h-13.79v-2.334h0.001v-2.335h13.79
	v-9.274H498v4.613h-9.225v-4.613h-4.765v4.613h-4.565v-4.612h0.001v-13.831h23.12v-18.562h-9.22v-9.221h9.22V376.305v-26.253V73.913
	h-9.22v-9.22h9.22V46.131h-23.12V32.298z M502.565,9.235L502.564,0h-18.555v9.236h0.001v4.554h-4.565V9.235V0h-18.548v9.236h0.001
	v9.118h13.989v2.335h-0.001v2.334h-18.554v-2.334V9.235V0h-18.487v9.236h0.001v0.002h-9.227V9.235V0H246.886h-15.659H73.945v9.235
	v0.001v0.002h-9.226V9.235V0H46.232v9.235v0.001v11.453v2.334H27.678v-2.334v-2.335h13.99V9.235h-0.001h-0.001V0H23.118v9.236h0.001
	v4.554h-4.564V9.235V0H0v9.235v0.001v9.118h13.79v2.335v2.334H0v9.274h4.565v-4.613h9.225v4.613h4.764v-4.613h4.564v4.613h4.559
	v-4.613h23.25v-6.995V9.236V9.235V4.681h9.227v4.554v4.555h18.453V9.236V9.235V4.681h152.62h15.659h177.071v4.554h0.001v4.555
	h18.453V9.235h-0.001V4.681h9.225v4.554v11.454h-0.001v6.995h23.251v4.613h4.559v-4.613h4.565v4.613h4.765v-4.613h9.225v4.613h4.566
	v-9.274h-13.79v-2.334h0.001v-2.335h13.79V9.235H502.565z M484.01,32.298v9.274h18.555v-9.274h-4.566v4.613h-9.225v-4.613H484.01z
	 M502.565,744.394v-9.272H484.01v9.272h4.765v-4.611H498v4.611H502.565z"/>
</svg>
