<?xml version="1.0" encoding="utf-8"?>
<!-- Generator: Adobe Illustrator 16.0.0, SVG Export Plug-In . SVG Version: 6.00 Build 0)  -->
<!DOCTYPE svg PUBLIC "-//W3C//DTD SVG 1.1//EN" "http://www.w3.org/Graphics/SVG/1.1/DTD/svg11.dtd">
<svg version="1.1" xmlns="http://www.w3.org/2000/svg" xmlns:xlink="http://www.w3.org/1999/xlink" x="0px" y="0px"
	 width="23.655px" height="23.94px" viewBox="0 0 23.655 23.94" enable-background="new 0 0 23.655 23.94" xml:space="preserve">
<g id="_x2014_腩x5F_11">
</g>
<g id="_x2014_腩x5F_2">
	<path fill="#F787A3" d="M6.57,12.367c0.065-0.318,1.534-1.303,2.551-1.667c-0.143,0.199-0.684,2.213-0.937,2.975
		c-0.058,0.177-0.259,1.568-0.259,1.568C7.575,14.812,6.504,12.687,6.57,12.367z M13.804,12.698c0.77,0.593,1.012,1.638,1.012,1.638
		c0.292-0.056,0.089-0.394-0.063-0.682c-0.153-0.29-0.884-1.324-0.982-1.419c-0.102-0.096-0.562,0.036-0.758-0.009
		c-0.196-0.044-2.346-1.193-2.561-0.97c-0.214,0.225-0.157,0.614-0.056,0.758C10.396,12.015,13.392,12.381,13.804,12.698z
		 M13.452,11.167c-0.247-0.141-0.602-0.719-0.822-0.787c-0.222-0.068-0.931-0.127-1.421-0.164c-0.488-0.039-0.654,0.136-0.701,0.283
		c-0.045,0.148,0.083,0.463,0.183,0.51c0.099,0.046,2.243,1,2.39,0.948c0.145-0.052,0.486-0.06,0.807,0.104
		c0.321,0.164,1.142,1.953,1.142,1.953C15.215,12.521,13.7,11.308,13.452,11.167z M15.194,9.298
		c-0.224-0.213-1.099,0.049-1.391,0.056c-0.293,0.006-0.964-0.54-1.501-0.529c-0.536,0.013-1.192,0.197-1.658,0.085
		c-0.467-0.111-2.265,0.27-2.649,0.57C7.612,9.782,7.141,9.474,6.777,9.604c-0.363,0.13-0.437,0.107-0.673,0.454
		c-0.237,0.347-1.032,0.827-1.367,1.128S4.062,12.69,3.9,13.109s-0.316,1.13-0.044,1.345c0.273,0.213,0.735,0.129,0.974-0.12
		c0.24-0.249,1.122-2.271,3.271-3.415c2.148-1.146,5.325-0.972,6.626-0.635C16.027,10.622,15.369,9.466,15.194,9.298z M14.526,8.946
		c-0.266,0.08-0.902,0.045-1.124-0.072c-0.223-0.117-1.011-0.441-1.301-0.338c-0.291,0.104-1.509,0.229-1.78,0.111
		C10.05,8.532,8.636,8.612,8.301,8.911c-0.335,0.301-0.969,0.363-1.24,0.248c-0.27-0.117-0.679,0.21-0.774,0.31
		c-0.095,0.1-0.498,0.621-0.739,0.772c0.32-0.935,1.064-2.659,1.785-3.213c0.72-0.552,1.637-1.061,1.955-1.043
		c0.317,0.018,4.956,2.26,4.956,2.26L14.526,8.946z M7.738,15.54c0.144,0.998,1.858,5.745,6.313,2.938
		c0.232-0.147,0.638-0.966,0.708-1.089c0.07-0.124,0.198,0.141,0.731-0.066c0.532-0.207,0.812-0.848,0.812-0.848
		s-0.229,0.641-0.37,0.936c-0.141,0.296-0.904,1.095-1.143,1.344c-0.239,0.25-1.516,1.033-1.9,1.238
		c-0.387,0.203-1.262,0.418-1.555,0.424c-0.292,0.006-0.779,0.066-0.995,0.241c-0.217,0.177-0.554,0.378-0.699,0.382
		c-0.146,0.004-0.625-0.646-0.772-0.69c-0.147-0.046-0.974-0.979-1.202-1.39c-0.229-0.411-0.308-0.629-0.572-0.451
		c-0.265,0.176-0.845-0.764-1.249-1.292c-0.401-0.528-0.508-3.162-0.487-3.333c0.021-0.172,1.082-1.479,1.022-1.268
		C6.198,13.255,7.261,14.989,7.738,15.54z M15.088,16.747c0.37-0.937,0.693-1.822,0.195-3.35c-0.412-1.268-1.544-2.48-1.937-2.618
		c-0.395-0.138-0.422-0.308-0.033-0.366c0.39-0.057,1.591,0.137,2.436,0.851c0.847,0.714,1.275,2.261,1.192,3.196
		C16.825,15.78,15.143,18.138,15.088,16.747z M14.282,13.444c0,0-2.579,0.35-3.206,0.704c-0.627,0.356-1.735,0.966-1.778,1.308
		c0,0,0.148-1.101,0.8-1.433c0.65-0.331,0.807,0.056,0.973-0.118c0.168-0.175,0.57-0.745,1.179-0.832
		C12.857,12.987,13.765,13.188,14.282,13.444z M10.39,10.624c0.166,0.562-1.358,2.666-1.382,3.79c-0.025,1.123,0.325,2.653,0.9,3.3
		c-0.767-0.496-1.547-2.676-1.447-3.728c0.099-1.052,0.57-2.894,0.932-3.17C9.753,10.54,10.31,10.358,10.39,10.624z M10.21,18.099
		c-0.206-0.533-0.931-2.373-0.931-2.373s0.251,0.288,0.573,0.501c0.321,0.213,0.859,0.2,1.177,0.218
		c0.316,0.018,0.888,0.42,1.068,0.881c0.181,0.459-0.15,0.906-0.391,1.107c-0.239,0.199-1.313,0.223-1.538,0.008
		s-0.153-0.289-0.444-0.234c-0.292,0.056-0.569-0.354-1.225-1.267c-0.653-0.913-0.185-1.754-0.185-1.754
		C8.25,15.504,9.203,17.853,10.21,18.099z M12.439,13.972l1.824-0.308c0,0,0.411,0.919,0.315,1.019s-0.533,0.207-0.87,0.41
		c-0.337,0.202-0.498,0.718-0.498,0.718S13.032,14.253,12.439,13.972z M12.934,15.354c-0.061-0.369,0.089,0.706,0.097,1.048
		c0.007,0.342-0.312,0.275-0.533,0.207c-0.22-0.068-0.492-0.186-0.229-0.459C12.53,15.875,12.962,15.524,12.934,15.354z
		 M9.427,14.624c0,0,0.152-0.857,0.001-1.049c-0.15-0.193,0.649-1.577,0.649-1.577s0.688,0.181,1.374,0.36
		c0.688,0.181,2.134,0.418,2.134,0.418s-0.119,0.124-0.657,0.088c-0.469-0.033-1.557,0.277-1.674,0.5
		c-0.117,0.222-0.456,0.326-0.821,0.359C10.066,13.756,9.635,14.107,9.427,14.624z M10.59,15.355
		c-0.349-0.335,0.664-0.894,0.664-0.894s-0.357,0.424-0.178,0.785c0.123,0.25,0.762,0.301,0.762,0.301
		C11.403,15.704,10.939,15.69,10.59,15.355z M9.77,15.813c-0.32-0.408,0.805-1.141,0.805-1.141c-1.073,1.17,0.883,1.274,0.883,1.274
		C11.264,16.05,10.222,16.389,9.77,15.813z M15.211,14.522c0.201,1.436-0.815,2.947-1.146,3.395
		c-0.333,0.446-1.734,1.111-2.099,1.193c-0.364,0.08-0.611-0.061-0.202-0.338c0.408-0.277,0.56-1.184,0.725-1.408
		c0.167-0.223,1.498-0.765,1.903-1.14c0.408-0.374,0.517-0.987,0.435-1.401C14.826,14.823,15.154,14.183,15.211,14.522z
		 M19.188,14.46c-0.199-0.24-0.712-2.449-1.284-2.951c-0.573-0.5-2.213-2.93-2.902-3.256c-0.691-0.326-5.716-2.316-6.142-2.82
		S8.804,4.09,9.014,3.574c0.238-0.583,0.575-1.409,0.774-1.649c0.311-0.373,1.193,0.094,1.643,0.523
		c0.448,0.429,2.816,2.647,3.658,3.166c0.841,0.519,3.782,2.188,4.008,2.451c0.227,0.264,0.067,0.78,0.244,1.094
		c0.178,0.312,1.539,2.285,1.813,2.598c0.276,0.311-0.952,3.291-1.221,3.321C19.666,15.108,19.188,14.46,19.188,14.46z
		 M16.771,16.686c0.93-2.12-0.052-4.589-0.482-5.287c-0.43-0.698-0.515-1.259-0.52-1.454s0.389-0.105,0.613,0.109
		c0.224,0.215,1.095,2.1,1.275,2.561c0.182,0.459,0.545,2.574,0.729,3.133c0.183,0.557-0.604,1.478-0.966,1.656
		c-0.361,0.18-0.355,0.472-0.127,0.882s0.441,1.187,0.397,1.432c-0.043,0.245-0.831,1.02-1.17,1.222
		c-0.337,0.203-0.999,0.047-1.56,0.084c-0.561,0.035-3.258-0.403-2.842-0.427C12.828,20.556,15.841,18.806,16.771,16.686z
		 M11.105,21.057c-0.298,0.437-1.208,0.612-1.643,0.818c-0.436,0.205-2.955-0.059-3.296-0.002c-0.34,0.057-3.177-0.126-3.748-0.577
		c-0.57-0.451-0.818-1.691-1.042-1.906s-0.765-0.35-0.984-0.369c-0.221-0.02-0.186-0.655-0.196-1.143
		c-0.011-0.488,0.931-6.562,0.847-7.074c-0.084-0.511,0.198-2.145,0.314-2.465c0.115-0.318,0.253-0.773,0.81-1.006
		c0.557-0.231,1.587-0.825,1.852-1.002c0.264-0.178,0.437-0.059,0.979,0.174c0.541,0.23,1.289,0.699,1.423,0.854
		c-0.395,0.385-1.19,2.634-1.354,2.955c-0.164,0.32-0.789,0.725-0.953,0.996c-0.166,0.271-0.996,2.705-0.815,3.166
		c0.182,0.459,0.707,0.557,1,0.55s0.521-0.255,0.615-0.403c0.095-0.148-0.038,0.9,0.069,1.338c0.106,0.438,0.51,1.939,1.188,2.588
		c0.73,0.699,0.745,0.152,0.999,0.473c0.15,0.189,1.366,1.537,1.665,1.823c0.3,0.287,0.501,0.579,0.82,0.581
		c0.455,0.002,1.084-0.584,1.352-0.615C11.275,20.779,11.224,20.884,11.105,21.057z M11.883,20.894
		c0.271,0.164,4.113,0.496,4.452,0.391c0.338-0.104,1.49-1.057,1.554-1.475c0.064-0.416-0.076-1.268-0.428-1.748
		c-0.353-0.48,0.351-0.716,0.541-0.915s0.813-0.702,0.634-1.161c-0.181-0.459-0.578-2.99-0.782-3.377
		c-0.203-0.385-0.014-0.634,0.039-0.488c0.302,0.434,1.45,3.874,1.505,4.117s0.242,2.143,0.222,2.314s-2.988,5.069-3.208,5.147
		c-0.218,0.078-0.578,0.355-0.752,0.188c-0.175-0.167-1.416-1.116-2.056-1.346c-0.641-0.23-3.939-0.379-3.939-0.379
		C10.563,21.973,11.61,20.729,11.883,20.894z M0.339,12.472c-0.536-0.283-0.663-5.031,1.359-7.811
		C3.72,1.884,4.123,2.396,4.481,2.485c0.361,0.09,0.551-0.176,0.642-0.47c0.091-0.295,2.128-2.358,3.604-1.967
		c1.473,0.392,4.612,2.568,5.118,3.371s1.088,0.659,1.447,0.685c0.358,0.025,0.972,1.248,1.173,1.569
		c0.203,0.321-0.284,0.364-0.615,0.11c-0.332-0.253-2.185-1.645-2.448-1.834c-0.266-0.189-2.795-2.738-3.439-2.398
		C9.319,1.891,8.301,4.42,8.404,4.71c0.104,0.291,0.411,0.968,0.093,1.235c-0.32,0.268-1.443,1.04-1.604,1.077
		C6.73,7.059,4.85,5.896,4.36,5.873C3.872,5.851,2.14,6.995,1.785,7.167c-0.354,0.17-1.229,1.882-1.068,3.245
		S0.635,12.628,0.339,12.472z M19.623,16.086c-0.154-0.233,0.344-0.626,0.599-0.827c0.258-0.2,1.44-2.701,1.329-3.316
		c-0.112-0.616-0.683-1.417-1.284-2.12c-0.602-0.702-0.425-1.554-0.787-1.773s-1.391-1.076-1.754-1.296
		c-0.362-0.22-0.669-0.832-1.039-1.442c-0.372-0.61-1.401-1.467-1.211-1.731c0.19-0.264,1.964,0.479,5.086,1.875
		c3.123,1.396,3.244,6.928,3.022,7.225c-0.222,0.299-0.571,0.455-0.502,0.648s0.568-0.168,0.53,0.652
		c-0.068,1.502-3.562,5.795-3.854,5.358C19.522,18.985,20.194,16.952,19.623,16.086z"/>
</g>
<g id="_x2014_腩x5F_3">
</g>
<g id="_x2014_腩x5F_10">
</g>
<g id="_x2014_腩x5F_5">
</g>
<g id="_x2014_腩x5F_15">
</g>
<g id="_x2014_腩x5F_12">
</g>
<g id="_x2014_腩x5F_7">
</g>
<g id="_x2014_腩x5F_4">
</g>
<g id="_x2014_腩x5F_13">
	<g id="Layer_13">
	</g>
</g>
<g id="_x2014_腩x5F_9">
</g>
<g id="_x2014_腩x5F_14">
</g>
</svg>
