<?xml version="1.0" encoding="utf-8"?>
<!-- Generator: Adobe Illustrator 17.0.0, SVG Export Plug-In . SVG Version: 6.00 Build 0)  -->
<!DOCTYPE svg PUBLIC "-//W3C//DTD SVG 1.1//EN" "http://www.w3.org/Graphics/SVG/1.1/DTD/svg11.dtd">
<svg version="1.1" id="图层_1" xmlns="http://www.w3.org/2000/svg" xmlns:xlink="http://www.w3.org/1999/xlink" x="0px" y="0px"
	 width="1108.828px" height="322.516px" viewBox="0 0 1108.828 322.516" enable-background="new 0 0 1108.828 322.516"
	 xml:space="preserve">
<path fill="#ED5454" d="M777.196,263.812c8.561-6.287,19.398-28.815,32.537-67.638h35.958
	c-8.561,29.685-15.412,47.947-20.549,54.795C819.431,261.807,803.442,266.088,777.196,263.812z M322.916,106.915l18.856-9.913
	l18.855,9.913l-3.604-20.995l15.255-14.869l-21.079-3.062l-9.427-19.103l-9.427,19.103l-21.079,3.062L326.52,85.92L322.916,106.915z
	 M790.895,153.368c-0.575,15.412,9.7,22.835,30.82,22.259h46.235v66.78c1.139,10.276-3.424,14.838-13.698,13.701
	c-7.424,0.563-14.849-0.855-22.262-4.279c11.987,15.972,26.545,24.251,43.667,24.827c20.549,1.137,30.247-9.991,29.11-33.39v-67.638
	h69.348v-8.561h-69.348V112.27H867.95v54.796h-26.54c-9.712,1.149-14.275-5.138-13.698-18.839v-36.814
	c-0.577-11.986,5.697-17.684,18.836-17.121h78.768c29.676,1.71,46.23-5.421,49.656-21.406H921.89
	c-3.998,9.712-13.136,14.554-27.397,14.554h-69.351c-24.547-1.136-35.958,6.852-34.247,23.973V153.368z M1108.696,0.735
	c0.087-0.474,0.133-0.735,0.133-0.735S1108.781,0.258,1108.696,0.735z M920.176,195.319c7.413,26.26,14.261,44.816,20.548,55.65
	c5.703,10.277,21.686,14.262,47.946,11.986c-8.561-5.136-19.407-27.678-32.531-67.636H920.176z M125.617,117.2
	c1.842,0.583,3.615,1.143,5.334,1.691c9.629,5.505,17.902,10.074,24.713,13.638c-40.041,22.113-67.221,35.849-81.562,41.229
	c26.283,0.602,43.917,0.307,52.88-0.896c10.155-1.191,21.203-4.173,33.16-8.962c6.57-2.982,14.932-7.171,25.101-12.548
	c1.187-0.589,2.084-1.192,2.689-1.793c10.751,5.979,20.906,11.062,30.469,15.238c13.433,8.462,34.967,11.725,64.545,9.824
	c5.336-0.232,10.517-0.656,15.315-1.276c-0.046-0.028-0.081-0.05-0.126-0.078c1.208-0.135,2.39-0.254,3.621-0.404
	c-26.301-10.153-54.382-23.303-84.249-39.434c22.048-12.726,34.453-17.018,60.947-38.541c3.584-2.983,5.377-6.568,5.377-10.756
	c0-8.36-7.17-12.546-21.511-12.546H96.507v8.962h130.858c3.584,0,5.674,0.602,6.274,1.792c0.589,1.202-0.6,2.995-3.587,5.376
	c-4.786,4.187-19.715,13.444-44.81,27.783c-2.999-1.793-7.482-4.173-13.445-7.17c-2.687-1.338-5.026-2.541-7.105-3.642
	c-1.256-0.786-2.57-1.526-4-2.171c-0.854-0.483-1.648-0.939-2.342-1.355h-0.922c-16.051-6.109-38.157-7.181-57.774-3.61
	c-33.068,6.934-63.217,16.79-82.812,37.194c14.826-7.198,16.128-10.046,32.371-14.264C75.53,113.902,104.04,111.22,125.617,117.2z
	 M1023.434,157.885c26.683-10.965,42.583-29.607,42.583-29.607c13.358-16.296,21.284-27.32,26.671-48.272
	c5.503-21.408,14.798-72.572,16.008-79.271c-1.564,8.489-17.551,89.739-62.677,126.319c-12.484,10.12-19.358,9.96-38.911,23.644
	c-18.499,12.946-23.898,45.804-23.898,45.804C994.707,180.11,999.864,167.571,1023.434,157.885z M1055.64,207.787
	c-7.702,5.08-11.943,4.999-24.004,11.872c-11.413,6.501-14.743,22.999-14.743,22.999c7.09-8.232,10.271-14.527,24.812-19.39
	c16.463-5.506,26.269-14.867,26.269-14.867c8.247-8.183,13.136-13.716,16.457-24.237c3.401-10.764,9.145-36.511,9.878-39.815
	C1093.36,148.546,1083.503,189.401,1055.64,207.787z M575.46,86.63h-21.183v131.684c0,10.765-2.067,19.262-6.179,25.488
	c19.998-0.56,29.127-10.195,27.362-28.884V86.63z M1066.017,230.889c-11.319,21.387-27.962,35.681-46.318,49.126
	c-57.672,40.524-119.301,42.107-119.301,42.107c-62.607,3.046-113.693-12.633-113.693-12.633
	c-53.125-18.922-82.975-66.694-82.975-66.694s0.003-0.001,0.003-0.005c-6.785-13.922-11.902-25.223-15.303-33.823
	c-9.421,22.09-17.362,37.953-23.83,47.576c-5.294,13.595-21.183,19.249-47.66,16.991v0.849h-31.771V71.339h31.771v42.478h12.356
	c5.874,21.529,11.474,35.403,16.771,41.628c-17.653,1.7-27.362-1.977-29.127-11.044v125.738c14.7-13.035,29.412-39.639,44.13-79.861
	h-40.6v-8.496h41.485v-67.117h-29.128v-8.495h29.128V71.339h34.416v34.83h12.359c30.007-1.7,44.13,8.495,42.366,30.585v45.027h8.823
	v8.496h-46.777c5.743,14.127,11.214,26.613,16.437,37.573c0,0,44.096,63.865,127.306,74.622c0,0,53.239,10.392,110.26-6.422
	C1018.971,280.769,1066.017,230.891,1066.017,230.889z M717.557,181.782v-45.876c1.17-15.293-5.6-22.368-20.301-21.241l-0.885,0
	v67.117H717.557z M1094.309,144.349c0.052-0.23,0.079-0.356,0.079-0.356S1094.36,144.12,1094.309,144.349z M411.902,242.648
	c11.542-36.943,17.888-62.929,19.052-77.952c1.151-12.124-6.645-17.605-23.385-16.455c20.204-34.064,29.73-53.118,28.583-57.165
	c0.565-9.229-5.78-13.561-19.056-12.992h-43.304v7.795h19.052c5.908-0.484,9.055,1.133,9.509,4.837
	c-0.063,3.807-1.316,5.716-3.033,9.642c-0.663,1.515-1.322,3.088-1.993,4.59c-3.884,7.558-9.995,18.228-18.342,32.031
	c-6.359,12.126-4.909,18.487,4.332,19.057h5.197c6.345,0,9.526,2.895,9.526,8.659c0,10.977-2.896,25.984-8.661,45.042
	c-3.187-7.081-6.497-14.652-9.903-22.604c-0.677-1.843-1.388-3.535-2.145-5.015c-1.45-3.422-2.921-6.916-4.409-10.492
	c1.733,17.321,6.062,34.359,12.993,51.1c-1.73,6.93-4.046,14.44-6.931,22.519c-2.316,1.734-4.909,2.601-7.793,2.601
	c-4.632,1.73-6.648-3.466-6.066-15.59v-77.087c0.572-13.276-6.642-19.624-21.651-19.055h-25.118v8.661h5.194
	c6.93-0.568,10.097,3.465,9.529,12.126v84.018c0,16.158,6.345,24.534,19.055,25.115c8.661,0,15.588-2.895,20.786-8.66
	c-4.046,8.66-9.823,15.292-17.322,19.918c32.331,1.151,49.939-6.642,52.835-23.382c13.858,13.858,31.18,20.789,51.969,20.789h65.825
	v-9.53H463C444.514,265.168,427.491,257.657,411.902,242.648z M334.984,271.927c-3.024-2.593-4.569-5.483-7.248-11.561
	c-5.175,14.396-22.034,17.042-36.494,20.352c-31.915,0.83-58.789-7.533-80.906-19.725V218.57h68.118v-9.858h-68.118v-35.85H170.9
	v35.85H97.404v9.858h73.498v36.412c-2.547-0.354-5.386-0.685-8.087-0.932c-18.43-1.688-39.636,1.106-53.337,2.807
	c0,0-41.837,7.885-72.281,31.581c-16.254,11.51-15.158,10.658-27.374,18.245c-5.277,3.414-6.956,5.205-9.823,8.423
	c14.506,1.636,32.045,0.235,47.722,0.702c19.31-15.31,40.515-28.724,64.565-39.301c12.341-4.945,18.921-6.59,30.178-7.721
	c0,0,41.712-2.021,70.875,6.317c0,0,47.398,15.837,56.147,17.545c23.999,4.686,46.644,1.19,63.863-7.72
	c4.869-2.312,17.545-16.142,17.545-16.142C348.211,268.693,340.581,272.601,334.984,271.927z M526.23,72.886h-42.44
	c-2.313,10.394-10.395,15.307-24.25,14.724h-21.654v7.796h38.976v144.646c-8.664,0.582-12.708-4.616-12.128-15.59V119.657h-29.45
	v107.4c-0.58,15.023,9.532,22.236,30.315,21.656h60.631v-8.663h-19.053v-77.085h18.187v-7.796h-18.187V93.674
	C515.835,90.79,522.183,83.861,526.23,72.886z"/>
</svg>
