<?xml version="1.0" encoding="utf-8"?>
<!-- Generator: Adobe Illustrator 17.0.0, SVG Export Plug-In . SVG Version: 6.00 Build 0)  -->
<!DOCTYPE svg PUBLIC "-//W3C//DTD SVG 1.1//EN" "http://www.w3.org/Graphics/SVG/1.1/DTD/svg11.dtd">
<svg version="1.1" id="图层_1" xmlns="http://www.w3.org/2000/svg" xmlns:xlink="http://www.w3.org/1999/xlink" x="0px" y="0px"
	 width="64px" height="64px" viewBox="0 0 64 64" enable-background="new 0 0 64 64" xml:space="preserve">
<g>
	<path fill="#08A1EF" d="M32,64c17.674,0,32-14.326,32-32S49.674,0,32,0S0,14.326,0,32S14.326,64,32,64z M32,6
		c14.36,0,26,11.64,26,26S46.36,58,32,58S6,46.36,6,32S17.64,6,32,6z M32,37.422c7.246,0,14.14-1.926,20-5.308
		c-0.91,11.152-9.57,19.884-20,19.884s-19.088-8.742-20-19.894c5.86,3.382,12.754,5.316,20,5.316V37.422z M16,22c0-3.314,1.79-6,4-6
		s4,2.686,4,6s-1.79,6-4,6S16,25.314,16,22z M40,22c0-3.314,1.79-6,4-6s4,2.686,4,6s-1.79,6-4,6S40,25.314,40,22z"/>
</g>
</svg>
