<?xml version="1.0" encoding="utf-8"?>
<!-- Generator: Adobe Illustrator 17.0.0, SVG Export Plug-In . SVG Version: 6.00 Build 0)  -->
<!DOCTYPE svg PUBLIC "-//W3C//DTD SVG 1.1//EN" "http://www.w3.org/Graphics/SVG/1.1/DTD/svg11.dtd">
<svg version="1.1" id="图层_1" xmlns="http://www.w3.org/2000/svg" xmlns:xlink="http://www.w3.org/1999/xlink" x="0px" y="0px"
	 width="32.282px" height="29.469px" viewBox="0 0 32.282 29.469" enable-background="new 0 0 32.282 29.469" xml:space="preserve">
<path fill="#2CC3FF" d="M31.648,4.113c-2.304,2.248-4.588,4.515-6.89,6.764c-0.843,0.824-1.558,0.831-2.39,0.028
	c-1.227-1.183-2.439-2.38-3.646-3.583c-0.667-0.666-0.694-1.404-0.107-2.033c0.611-0.655,1.472-0.693,2.192-0.031
	c0.79,0.726,1.552,1.482,2.29,2.26c0.346,0.365,0.564,0.356,0.905-0.005c0.866-0.916,1.77-1.795,2.658-2.689
	c0.932-0.896,1.908-1.752,2.78-2.701c0.625-0.68,1.284-0.823,2.108-0.516c0.064,0.051,0.129,0.102,0.194,0.154
	c0.069,0.066,0.138,0.133,0.208,0.199c0.096,0.153,0.193,0.306,0.29,0.458L32.235,2.43C32.39,3.109,32.139,3.635,31.648,4.113z
	 M8.931,14.698c0.015-1.014,0.872-1.82,1.925-1.81c1.04,0.01,1.91,0.851,1.907,1.844c-0.002,0.995-0.876,1.861-1.894,1.878
	C9.802,16.628,8.915,15.753,8.931,14.698z M19.722,14.652c0.047-0.955,0.922-1.777,1.889-1.775c1.095,0.004,1.961,0.853,1.936,1.898
	c-0.025,1.016-0.888,1.839-1.919,1.831C20.574,16.598,19.672,15.673,19.722,14.652z M20.858,3.895c-1.565-0.705-3.18-1-4.875-0.974
	C9.348,3.02,4.042,8.531,4.233,15.119c0.188,6.496,5.838,11.714,12.41,11.455c0.251-0.01,0.498-0.074,0.747-0.113
	c1.592-0.065,3.085-0.551,4.451-1.282c3.732-1.995,5.865-5.093,6.296-9.282c0.17-0.986,0.225-1.954-0.148-2.925
	c-0.252-0.657-0.074-1.273,0.453-1.773c0.553-0.525,1.18-0.529,1.848-0.266l0.021,0.008c0.071,0.05,0.142,0.099,0.213,0.148
	c0.06,0.065,0.121,0.13,0.181,0.195l-0.024-0.023c0.083,0.117,0.167,0.235,0.25,0.352l-0.011-0.014
	c-0.011,0.062,0.01,0.113,0.062,0.151c0.625,3.685,0.201,7.222-1.81,10.433c-3.122,4.984-7.715,7.406-13.677,7.283
	c-0.318-0.007-0.636-0.015-0.954-0.022c-2.565-0.397-4.944-1.265-7.093-2.714c-0.058-0.038-0.116-0.077-0.174-0.115
	c-0.26-0.203-0.52-0.405-0.78-0.607c-0.128-0.111-0.256-0.222-0.384-0.333c-0.071-0.05-0.141-0.1-0.212-0.15
	c-2.48-2.56-4.162-5.511-4.612-9.07c-0.006-1.064-0.011-2.128-0.016-3.192c0.343-2.155,0.769-4.285,1.974-6.174
	C3.469,6.937,3.572,6.785,3.24,6.637C2.353,5.534,1.179,4.701,0.307,3.575c-0.66-0.853-0.197-1.384,0.365-2.001
	C1.305,0.881,1.927,1.193,2.421,1.61c0.917,0.773,1.753,1.641,2.594,2.497c0.311,0.316,0.5,0.344,0.838,0.02
	c3.652-3.499,8.069-4.577,13.018-3.933c1.143,0.257,2.27,0.56,3.353,1.016c0.51,0.214,0.94,0.502,1.26,0.947
	C23.677,3.933,22.611,4.685,20.858,3.895z M30.527,11.091c-0.001-0.001-0.002-0.001-0.003-0.002
	c-0.008-0.008-0.015-0.016-0.023-0.024L30.527,11.091z"/>
</svg>
