<?xml version="1.0" encoding="utf-8"?>
<!-- Generator: Adobe Illustrator 17.0.0, SVG Export Plug-In . SVG Version: 6.00 Build 0)  -->
<!DOCTYPE svg PUBLIC "-//W3C//DTD SVG 1.1//EN" "http://www.w3.org/Graphics/SVG/1.1/DTD/svg11.dtd">
<svg version="1.1" id="图层_1" xmlns="http://www.w3.org/2000/svg" xmlns:xlink="http://www.w3.org/1999/xlink" x="0px" y="0px"
	 width="64px" height="64px" viewBox="0 0 64 64" enable-background="new 0 0 64 64" xml:space="preserve">
<path fill="#4FAABF" d="M32,0c17.673,0,32,14.327,32,32S49.673,64,32,64S0,49.673,0,32S14.327,0,32,0z"/>
<path fill="#75BF8B" d="M13.99,48h34.896v-2.921c0,0-1.706-2.977-3.286-4.843c-1.176-1.388-2.932-1.78-4.464-0.076l-2.752,2.643
	l-5.999-7.629c-2.234-2.841-5.89-2.841-8.124,0L13.99,48z"/>
<path fill="#F5CF87" d="M40,21c1.657,0,3,1.343,3,3s-1.343,3-3,3s-3-1.343-3-3S38.343,21,40,21z"/>
<path fill="#FFFFFF" d="M48,16v8v24H16V24v-8H48 M48,12H16c-2.209,0-4,1.791-4,4v8v24c0,2.209,1.791,4,4,4h32c2.209,0,4-1.791,4-4
	V24v-8C52,13.791,50.209,12,48,12L48,12z"/>
</svg>
