<?xml version="1.0" encoding="utf-8"?>
<!-- Generator: Adobe Illustrator 17.0.0, SVG Export Plug-In . SVG Version: 6.00 Build 0)  -->
<!DOCTYPE svg PUBLIC "-//W3C//DTD SVG 1.1//EN" "http://www.w3.org/Graphics/SVG/1.1/DTD/svg11.dtd">
<svg version="1.1" id="objects" xmlns="http://www.w3.org/2000/svg" xmlns:xlink="http://www.w3.org/1999/xlink" x="0px" y="0px"
	 width="194.24px" height="221.757px" viewBox="0 0 194.24 221.757" enable-background="new 0 0 194.24 221.757"
	 xml:space="preserve">
<g>
	<g>
		<path fill-rule="evenodd" clip-rule="evenodd" fill="#FFDECC" d="M77.705,133.619c-42.928,18.818-55.805,28.85-60.895,33.355
			C8.965,173.915,4.627,199.79,0,221.757h97.121h97.119c-4.625-21.968-8.965-47.843-16.809-54.783
			c-5.088-4.506-17.494-14.279-60.424-33.101L77.705,133.619z"/>
		<path fill-rule="evenodd" clip-rule="evenodd" fill="#EDEDED" d="M117.008,133.873c42.93,18.821,55.336,28.595,60.424,33.101
			c7.844,6.94,12.184,32.815,16.809,54.783H97.121H0c4.627-21.968,8.965-47.843,16.81-54.783
			c5.091-4.506,17.968-14.537,60.894-33.355L117.008,133.873z"/>
		<path fill-rule="evenodd" clip-rule="evenodd" fill="#F6C8AC" d="M76.279,96.102v31.858v15.726
			c11.463,13.554,30.221,14.041,41.686,0V127.96V96.102C117.965,70.409,76.279,70.409,76.279,96.102z"/>
		<path fill-rule="evenodd" clip-rule="evenodd" fill="#F6C8AC" d="M53.656,66.189c3.67-1.211,8.342,2.957,10.432,9.305
			c2.092,6.349,0.811,12.476-2.862,13.685c-3.67,1.208-8.342-2.956-10.431-9.308C48.701,73.522,49.984,67.397,53.656,66.189z"/>
		<path fill-rule="evenodd" clip-rule="evenodd" fill="#F6C8AC" d="M140.404,66.189c-3.674-1.211-8.346,2.957-10.436,9.305
			c-2.092,6.349-0.807,12.476,2.861,13.685c3.674,1.208,8.346-2.956,10.436-9.308C145.355,73.522,144.072,67.397,140.404,66.189z"/>
		<path fill-rule="evenodd" clip-rule="evenodd" fill="#343434" d="M97.23,154.036c0,0-29.088,6.942-29.088,8.703
			c0,1.761,11.068,59.018,11.068,59.018h39.49l4.527-58.767L97.23,154.036z"/>
		<path fill-rule="evenodd" clip-rule="evenodd" fill="#1A1A1A" d="M76.279,134.244v9.443l9.055,78.07h-15.57l-17.127-34.771
			l16.35-10.9l-19.98-9.341l18.373-28.511L76.279,134.244z M117.965,134.292v9.395l-9.143,78.07h15.568l17.127-34.771l-16.348-10.9
			l19.978-9.341l-16.328-27.632L117.965,134.292z"/>
		<path fill-rule="evenodd" clip-rule="evenodd" fill="#268085" d="M86.02,221.757l7.188-50.247l-5.049-7.821l9.072-9.653
			l8.855,9.653l-5.051,7.821l7.189,50.247H86.02z"/>
		<path fill-rule="evenodd" clip-rule="evenodd" fill="#343434" d="M76.279,127.96l-1.822,7.089l5.1,36.91l17.674-17.924
			L76.279,127.96z"/>
		<path opacity="0.2" d="M76.279,119.145v1.504c0,0,10.648,12.639,20.805,13.095c10.156,0.456,20.881-12.236,20.881-12.236v-2.311"
			/>
		<g>
			<path fill-rule="evenodd" clip-rule="evenodd" fill="#F6C8AC" d="M97.156,10.672c-64.125,0-39.547,87.837-35.358,94.566
				c4.618,7.421,25,23.778,35.358,23.778c10.361,0,30.74-16.357,35.361-23.778C136.707,98.509,161.283,10.672,97.156,10.672z"/>
		</g>
		<path fill-rule="evenodd" clip-rule="evenodd" fill="#343434" d="M117.965,127.96l1.438,6.972l-4.791,37.396L97.23,154.036
			L117.965,127.96z"/>
		<polyline opacity="0.05" points="76.279,127.96 97.23,154.036 117.965,127.96 117.965,127.339 97.23,153.298 76.279,127.339 
			76.279,127.96 		"/>
		<polygon opacity="0.1" fill-rule="evenodd" clip-rule="evenodd" points="93.207,171.51 101.035,171.51 101.072,171.766 
			93.17,171.766 		"/>
		<path fill-rule="evenodd" clip-rule="evenodd" fill="#268085" d="M135.227,61.865c-1.61-0.562-10.517-1.369-17.198-0.949
			c-0.413,0.023-0.82,0.052-1.216,0.09c-6.037,0.549-13.357,3.189-18.782,3.331c-2.302,0.055-11.724-2.662-18.425-3.24
			c-0.476-0.045-0.964-0.081-1.468-0.107c-6.617-0.353-15.382,0.481-17,1.037c-2.081,0.721-2.146,0.905-2.292,2.598
			c-0.142,1.69,0.078,3.147,1.273,3.58c1.642,0.591,1.587,2.856,2.487,9.353c0.809,5.915,3.088,10.587,13.474,11.413
			c0.53,0.046,1.045,0.062,1.545,0.068c9.021,0.013,12.354-6.49,13.466-8.661c2.096-4.083,1.664-9.715,6.826-9.725
			c5.156-0.013,4.481,5.515,6.324,9.595c0.994,2.2,3.922,8.956,13.282,8.691c0.357-0.01,0.732-0.032,1.115-0.065
			c10.433-0.872,13.002-5.56,14.172-11.479c1.292-6.504,1.374-8.766,3.055-9.363c1.228-0.443,1.529-1.896,1.494-3.592
			C137.314,62.753,137.261,62.569,135.227,61.865z M83.452,86.169c-1.565,0.789-3.628,1.196-5.796,1.219
			c-4.771,0.039-10.08-1.768-11.866-5.457c-2.507-5.176-2.858-15.634,0.636-17.825c1.508-0.946,6.51-1.599,11.685-1.363
			c5.447,0.249,11.087,1.483,13.018,4.391C94.298,71.907,88.603,83.572,83.452,86.169z M129.36,81.786
			c-1.958,3.6-7.142,5.431-11.812,5.508c-2.308,0.036-4.504-0.361-6.112-1.188c-4.991-2.575-9.984-14.212-6.518-18.997
			c2.086-2.888,7.684-4.151,13.082-4.442c5.264-0.287,10.342,0.346,11.812,1.299C133.161,66.133,132.184,76.6,129.36,81.786z"/>
		<path fill="#605343" d="M144.433,26.768C134.088,12.566,89.763-12.318,67.129,7.17c-23.636,5.375-17.345,54.992-13.921,67.51
			c0.138,1.091,0.32,2.175,0.456,3.185c0.04,0.775,0.08,1.425,0.282,2.198c0.027,0.102,0.176,0.314,0.305,0.496
			c-0.083,1.613-0.09,2.939-0.09,2.939c1.94,10.155,3.31,16.847,7.296,22.419c6.368,8.9,24.348,22.973,35.263,22.973
			c6.095,0,14.386-4.384,21.631-9.804c0.395,0.019,0.667,0.003,0.667,0.003s0-0.196,0-0.509c5.462-4.171,10.262-8.882,12.966-12.663
			c4.018-5.62,5.118-13.098,7.33-23.645c0,0,0.203-2.446,0.131-4.36C142.173,58.286,140.37,40.663,144.433,26.768z M101.865,23.597
			c-0.368,0.105-0.736,0.209-1.107,0.322c-0.18,0.032-0.36,0.062-0.54,0.098C100.768,23.866,101.316,23.727,101.865,23.597z
			 M80.665,116.8c0.764-1.292,1.374-3.157,1.374-5.315c0-3.266,2.402-5.893,5.317-6.486c3.078-0.624,10.197-1.813,10.197-3.747
			c0,1.934,7.612,3.276,10.195,3.747c2.927,0.534,5.318,3.22,5.318,6.486c0,1.797,0.426,3.386,1.008,4.618
			c-6.084,4.159-12.144,6.505-16.937,6.533C92.493,122.663,86.62,120.612,80.665,116.8z M127.537,103.578
			c-2.662,3.283-5.553,6.201-8.518,8.725c0-1.233,0-2.33,0-2.956c0-2.14-0.719-4.302-2.198-7.423
			c-1.478-3.121-13.442-7.345-15.591-8.136c-2.152-0.792-3.676,1.966-3.676,1.966s-1.525-2.759-3.676-1.966
			c-2.151,0.791-14.115,5.015-15.594,8.136c-1.477,3.122-2.197,5.284-2.197,7.423c0,0.826,0,2.467,0,4.169
			c-3.165-2.51-6.272-5.49-9.142-8.914c-3.807-4.541-10.792-24.989-10.909-26.66c-0.039-0.555-0.129-1.109-0.238-1.664
			c-0.014-0.722-0.031-1.229-0.033-1.244c-0.178-2.062-0.566-4.07-0.924-6.078c2.621-11.568,3.536-21.19,12.464-34.657
			c0.15,1.673,7.348,9.633,14.775,9.633c4.769,0,11.26-0.116,15.57-1.833c11.271-4.49,15.433-11.604,27.374-7.334
			c0.519,0.394,4.349,4.758,4.952,5.833c7.156,12.765,5.479,13.301,7.556,26.083c-0.419,2.727-0.013,5.562-0.255,8.352
			c-0.004,0.04-0.116,3.586,0.008,5.376c0.003,0.078,0.038,0.157,0.092,0.216C135.612,86.196,131.327,98.901,127.537,103.578z"/>
	</g>
</g>
</svg>
