<?xml version="1.0" encoding="utf-8"?>
<!-- Generator: Adobe Illustrator 17.0.0, SVG Export Plug-In . SVG Version: 6.00 Build 0)  -->
<!DOCTYPE svg PUBLIC "-//W3C//DTD SVG 1.1//EN" "http://www.w3.org/Graphics/SVG/1.1/DTD/svg11.dtd">
<svg version="1.1" id="图层_1" xmlns="http://www.w3.org/2000/svg" xmlns:xlink="http://www.w3.org/1999/xlink" x="0px" y="0px"
	 width="261.996px" height="214.176px" viewBox="0 0 261.996 214.176" enable-background="new 0 0 261.996 214.176"
	 xml:space="preserve">
<path fill="#E71F19" d="M261.996,172.213c-2.906-4.45-5.813-8.902-8.72-13.352c2.407,2.452,4.814,4.905,7.221,7.357
	c0.045,0,0.091,0,0.136,0c-1.226-1.635-2.453-3.27-3.679-4.905c-3.188-4.332-6.193-8.226-10.355-11.581
	c-5.85-4.715-10.125-12.466-13.488-19.619c-3.479-7.399-5.097-16.081-6.812-25.205c-0.363-3.951-0.727-7.903-1.09-11.853
	c0-1.998,0-3.997,0-5.995c0.001-6.412,0.542-12.911-0.817-18.257c-3.634-14.294-12.139-24.869-24.66-30.246
	c-20.559-8.829-41.616,3.379-48.23,18.12c-1.391,3.1-1.82,6.849-2.452,10.627c0,2.043,0,4.088,0,6.131
	c-1.09,1.362-2.18,2.725-3.27,4.087c-2.425,2.101-5.529,3.74-8.856,4.905c-25.915,9.076-36.894-17.395-42.236-35.287
	c0-0.045,0-0.091,0-0.136c0.999,0.545,1.998,1.09,2.997,1.635c0.045,0,0.091,0,0.136,0c-1.135-1.589-2.271-3.179-3.406-4.769
	c1.635,1.044,3.27,2.089,4.905,3.134c0.045-0.272,0.091-0.545,0.136-0.817c-1.408-1.226-2.816-2.453-4.224-3.679
	c1.726,0.908,3.452,1.817,5.177,2.725c0.045-0.091,0.091-0.182,0.136-0.272c0.091-0.091,0.182-0.182,0.272-0.272
	c-2.543-1.771-5.087-3.542-7.63-5.314c-0.136-0.182-0.272-0.363-0.409-0.545c2.952,1.181,5.904,2.362,8.856,3.542
	c0.045,0,0.091,0,0.136,0c0.045-0.272,0.091-0.545,0.136-0.817c-3.451-1.771-6.903-3.542-10.355-5.314
	c-0.046-0.091-0.091-0.182-0.136-0.272c1.408,0.318,2.816,0.636,4.224,0.954c-1.998-1.135-3.997-2.271-5.995-3.406
	c-0.091-0.045-0.182-0.091-0.272-0.136c0-0.045,0-0.091,0-0.136c4.405,1.09,8.811,2.18,13.216,3.27
	c0.045-0.045,0.091-0.091,0.136-0.136c-0.091-0.363-0.182-0.727-0.272-1.09c-4.405-1.271-8.811-2.543-13.216-3.815
	c-0.046-0.091-0.091-0.182-0.136-0.272c4.223,0.454,8.448,0.908,12.671,1.362c0-0.091,0-0.182,0-0.272
	c-4.223-0.908-8.448-1.817-12.671-2.725c0-0.045,0-0.091,0-0.136c3.179-0.136,6.358-0.272,9.537-0.409c0.908,0,1.817,0,2.725,0
	c-0.36-0.556-11.956-1.797-13.761-1.771c4.995-0.681,9.992-1.362,14.987-2.044c0.045-0.318,0.091-0.636,0.136-0.954
	c-5.514,0.283-11.453,0.713-17.576,0.681c-0.046-0.091-0.091-0.182-0.136-0.272c3.783-0.221,13.51-2.534,16.213-4.087
	c0.136-0.091,0.272-0.182,0.409-0.272c0-0.272,0-0.545,0-0.817c-4.805,0.957-9.267,3.069-15.123,2.997
	c4.565-2.162,9.44-2.642,13.216-5.45c0.091-0.045,0.182-0.091,0.272-0.136c0-0.045,0-0.091,0-0.136
	c-4.92,0.789-9.424,3.581-14.851,3.951c0-0.045,0-0.091,0-0.136c2.271-0.817,4.542-1.635,6.812-2.452
	c2.18-0.954,4.36-1.908,6.54-2.861c-0.497-0.717-3.623,0.327-4.632,0.681c-4.017,1.408-9.05,2.886-13.761,3.27
	c0-0.045,0-0.091,0-0.136c3.633-0.999,7.267-1.998,10.9-2.997c2.385-0.892,4.778-2.499,7.493-2.997c0-0.045,0-0.091,0-0.136
	c0-0.045,0-0.091,0-0.136c-2.375,0.089-4.232,1.005-6.131,1.635c-3.736,1.241-8.892,2.277-13.216,2.316c0-0.045,0-0.091,0-0.136
	c3.042-0.817,6.086-1.635,9.128-2.452c2.669-1.048,5.567-3.044,8.856-3.406c0-0.136,0-0.272,0-0.409
	c-7.695,0.133-12.648,4.447-21.118,4.36c0-0.045,0-0.091,0-0.136c2.634-0.681,5.268-1.363,7.902-2.044
	c1.362-0.59,2.725-1.181,4.087-1.771c0-0.045,0-0.091,0-0.136c-2.18,0.182-4.36,0.363-6.54,0.545c-0.091,0-0.182,0-0.272,0
	C85.392,9.3,90.461,9.6,93.871,7.085c0.091-0.045,0.182-0.091,0.272-0.136c-3.814,0.5-7.63,0.999-11.445,1.499
	c-9.382,1.552-17.2,1.945-24.524,5.177c-4.553,2.009-8.23,4.973-12.262,7.221c1.11-5.638,3.19-14.642,0.272-20.437
	C45.924,0,46.162,0.18,45.64,0c-1.408,1.044-2.816,2.089-4.224,3.134C39,5.03,36.557,7.594,34.741,10.082
	c-2.022,2.769-3.746,6.121-5.041,9.537c-0.5,1.816-0.999,3.633-1.499,5.45c0,0.091,0,0.182,0,0.272c-0.045,0-0.091,0-0.136,0
	c-1.09-2.361-2.18-4.723-3.27-7.085C20.912,11.301,15.236,4.751,8.582,0.545c-1.476,11.067,0.709,28.944,7.902,32.017
	c0,0.046,0,0.091,0,0.136c-0.908,0.727-1.817,1.453-2.725,2.18c-2.068,1.658-4.045,4.385-5.45,6.676
	C1.039,53.41-5.26,89.304,6.675,101.23c5.558,5.554,13.864-3.091,18.529,2.044c-4.509,10.792-6.907,22.73-9.81,35.151
	c-5.237,22.41-8.065,48.158-7.766,75.343c0.045,0,0.091,0,0.136,0c1.967-1.537,4.47-2.772,7.902-2.861
	c-0.365-18.897,2.87-39.297,13.761-47.686c-0.225-1.821-0.944-4.071-0.409-6.267c0.714-2.93,5.113-10.7,9.265-9.537
	c2.901,0.813,4.532,4.661,5.586,7.357c1.792,4.585,1.136,13.995,0.272,19.074c-1.553,9.135-2.497,16.795-5.45,24.251
	c-2.171,5.482-5.742,10.619-7.63,15.668c-0.091,0.136-0.182,0.272-0.272,0.409c0.999-0.454,1.998-0.908,2.997-1.362
	c2.572-0.92,6.243-0.602,9.265-0.409c0.045-0.091,0.091-0.182,0.136-0.272c-1.198-4.498,1.131-12.307,2.589-16.077
	c4.249-10.989,10.7-19.335,19.21-26.023c2.237-1.758,4.428-4.178,7.221-5.314c1.321-2.274,1.003-4.805,2.725-7.085
	c6.616-8.762,20.297-10.549,33.516-12.807c9.608-1.641,23.343,1.119,25.478,7.357c1.617,4.725-2.433,15.765-3.679,19.21
	c-4.065,11.246-9.392,21.347-15.259,30.927c-2.498,3.905-4.996,7.812-7.493,11.717c0,0.045,0,0.091,0,0.136
	c4.806-2.184,7.684-3.147,14.033-2.997c0.414-3.232,1.669-6.4,2.725-9.128c3.866-9.988,8.669-17.955,14.578-25.75
	c2.225-2.452,4.451-4.905,6.676-7.357c2.621-3.248,9.752-10.383,13.488-12.126c-0.426-1.056-1.561-1.593-2.044-2.725
	c-0.363-1.771-0.727-3.542-1.09-5.314c0-0.59,0-1.181,0-1.771c10.437,2.007,19.132,12.564,14.714,25.886
	c-3.995,12.049-12.693,20.541-18.665,30.655c-1.614,2.733-2.247,6.074-3.406,9.265c0,0.136,0,0.272,0,0.409
	c3.925-1.067,8.207-2.581,13.352-2.725c1.181-3.133,2.362-6.268,3.542-9.401c5.092-11.535,14.482-20.43,24.524-27.113
	c3.617-2.407,8.176-6.024,12.943-6.948c2.235,8.413,6.827,15.633,11.036,22.344c1.589,2.407,3.179,4.814,4.769,7.221
	c0.662,0.032,0.949-0.507,1.499-0.954c-0.59-1.408-1.181-2.816-1.771-4.224c0-0.136,0-0.272,0-0.409
	c0.863,0.954,1.726,1.908,2.589,2.861c-1.044-2.134-2.089-4.269-3.134-6.403c1.84,1.504,2.879,5.434,5.177,6.267
	c-0.197-2.251-1.635-3.816-2.316-5.722c1.044,1.226,2.089,2.453,3.134,3.679c0.136,0,0.272,0,0.409,0
	c-0.817-1.726-1.635-3.452-2.452-5.177c1.09,1.408,2.18,2.816,3.27,4.224c0.045,0,0.091,0,0.136,0
	c-0.681-1.726-1.362-3.452-2.044-5.177c0.045,0,0.091,0,0.136,0c0.817,1.226,1.635,2.453,2.452,3.679
	c0.045,0.091,0.091,0.182,0.136,0.272c0.045,0,0.091,0,0.136,0c-1.181-2.77-2.362-5.541-3.542-8.311c0-0.045,0-0.091,0-0.136
	c0.045,0,0.091,0,0.136,0c1.816,2.407,3.633,4.814,5.45,7.221c0.045,0,0.091,0,0.136,0c-0.817-1.998-1.635-3.997-2.452-5.995
	c1.271,1.816,2.543,3.633,3.815,5.45c0.091,0.045,0.182,0.091,0.272,0.136c0.045,0,0.091,0,0.136,0
	c-1.044-2.634-2.089-5.268-3.134-7.902c0.045,0,0.091,0,0.136,0c1.317,1.635,2.634,3.27,3.951,4.905c0.136,0,0.272,0,0.409,0
	c-0.908-1.907-1.817-3.815-2.725-5.722c1.589,1.998,3.179,3.997,4.769,5.995c0.045,0,0.091,0,0.136,0
	c-0.863-2.361-1.726-4.723-2.589-7.085c1.044,1.408,2.089,2.816,3.134,4.224c0.045,0.091,0.091,0.182,0.136,0.272
	c0.045,0,0.091,0,0.136,0c-0.954-2.543-1.908-5.087-2.861-7.63c1.726,2.543,3.452,5.087,5.177,7.63
	c0.091,0.045,0.182,0.091,0.272,0.136c0.045,0,0.091,0,0.136,0c-1.044-3.088-2.089-6.177-3.134-9.265c0.045,0,0.091,0,0.136,0
	c1.907,2.361,3.815,4.723,5.722,7.085c0.045,0,0.091,0,0.136,0c-1.135-2.407-2.271-4.814-3.406-7.221
	c1.68,2.089,3.361,4.178,5.041,6.267c0.045,0,0.091,0,0.136,0c-1.317-2.861-2.634-5.723-3.951-8.583
	c1.907,2.725,3.815,5.45,5.722,8.175c1.258-0.628-3.52-8.519-4.087-10.218c2.18,2.815,4.36,5.632,6.54,8.447
	c0.136,0,0.272,0,0.409,0c-1.544-3.633-3.088-7.267-4.632-10.9c1.408,1.862,2.816,3.724,4.224,5.586c0.136,0,0.272,0,0.409,0
	c-0.817-1.998-1.635-3.997-2.452-5.995c0.045,0,0.091,0,0.136,0c1.635,2.407,3.27,4.814,4.905,7.221
	c0.091,0.045,0.182,0.091,0.272,0.136c0.045,0,0.091,0,0.136,0c-1.317-2.997-2.634-5.995-3.951-8.992
	c2.861,3.633,5.723,7.267,8.583,10.9c0.045,0,0.091,0,0.136,0c-0.188-4.852-5.631-9.081-7.085-13.216
	c1.771,1.907,3.542,3.815,5.314,5.722c0.045,0,0.091,0,0.136,0c-0.5-1.181-0.999-2.362-1.499-3.542c0.045,0,0.091,0,0.136,0
	c2.361,2.906,4.723,5.813,7.085,8.72c0.136-0.045,0.272-0.091,0.409-0.136c-2.043-3.497-4.087-6.994-6.131-10.491
	C255.638,165.673,258.818,168.943,261.996,172.213z M100.138,106.816C89.445,103.428,78.809,96.4,75.614,85.561
	c0.636,0.772,1.272,1.544,1.907,2.316c1.953,1.771,3.906,3.542,5.858,5.314c8.637,6.187,20.404,11.116,32.971,13.079
	C116.86,111.623,102.531,107.574,100.138,106.816z M89.375,127.388c0.725,1.514,0.311,4.924,0.272,6.948
	c0.091,0.045,0.182,0.091,0.272,0.136c0.318-2.089,0.636-4.178,0.954-6.267c0.272,2.089,0.545,4.178,0.817,6.267
	c0.136,0,0.272,0,0.409,0c0.045-2.361,0.091-4.723,0.136-7.085c1.159,1.212,1.845,5.617,2.044,7.493c0.045,0,0.091,0,0.136,0
	c-0.227-2.452-0.454-4.905-0.681-7.357c0.091-0.045,0.182-0.091,0.272-0.136c0.772,2.452,1.544,4.905,2.316,7.357
	c0.091,0.045,0.182,0.091,0.272,0.136c-0.318-2.543-0.636-5.087-0.954-7.63c1.135,2.225,2.271,4.451,3.406,6.676
	c0.045,0.091,0.091,0.182,0.136,0.272c0.045,0,0.091,0,0.136,0c-0.727-2.634-1.453-5.268-2.18-7.902c0-0.045,0-0.091,0-0.136
	c0.091,0,0.182,0,0.272,0c1.226,2.271,2.453,4.542,3.679,6.812c0.045,0,0.091,0,0.136,0c0.045,0,0.091,0,0.136,0
	c-1.044-2.634-2.089-5.268-3.134-7.902c0-0.045,0-0.091,0-0.136c0.091,0,0.182,0,0.272,0c1.635,2.361,3.27,4.723,4.905,7.085
	c0.091,0.045,0.182,0.091,0.272,0.136c0.045,0,0.091,0,0.136,0c-1.181-2.452-2.362-4.905-3.542-7.357
	c1.955,0.513,3.924,4.589,5.722,5.995c0.045,0,0.091,0,0.136,0c-1.408-2.452-2.816-4.905-4.224-7.357
	c2.18,1.907,4.36,3.815,6.54,5.722c-1.12,1.472-3.182,2.271-4.496,3.134c-5.916,3.883-9.7,3.029-17.167,2.044
	c-0.784-1.932,0.652-5.606,0.681-8.175c0.091-0.045,0.182-0.091,0.272-0.136c0.091,2.77,0.182,5.541,0.272,8.311
	c0.045,0,0.091,0,0.136,0C88.557,132.021,88.966,129.704,89.375,127.388z M88.694,112.674c0.347-0.74,0.859-0.931,1.499-1.362
	c1.48-0.062,2.296,0.25,2.725,1.226c1.32,1.488-0.39,3.215-1.499,3.679C89.448,116.317,87.471,114.622,88.694,112.674z
	 M103.544,122.347c2.134,1.816,4.269,3.633,6.403,5.45c-0.227,0.182-0.454,0.363-0.681,0.545c-0.182,0.182-0.363,0.363-0.545,0.545
	C106.996,126.707,105.27,124.527,103.544,122.347z M105.179,121.257c2.043,1.317,4.087,2.634,6.131,3.951
	c0.091,0.091,0.182,0.182,0.272,0.272c0.045,0,0.091,0,0.136,0c-0.637-1.952-3.283-3.447-4.496-5.041
	c1.862,1.135,3.724,2.271,5.586,3.406c0.091,0,0.182,0,0.272,0c-0.23,0.905-1.099,1.414-1.226,1.907
	c-0.59,0.59-1.181,1.181-1.771,1.771C108.449,125.436,106.814,123.346,105.179,121.257z M107.768,119.078
	c-0.272-0.318-0.545-0.636-0.817-0.954c2.543,1.044,5.087,2.089,7.63,3.134c0.045,0,0.091,0,0.136,0
	c0.045-0.091,0.091-0.182,0.136-0.272c-1.68-1.135-3.361-2.271-5.041-3.406c-0.046-0.091-0.091-0.182-0.136-0.272
	c1.771,0.727,3.542,1.453,5.314,2.18c0.045,0,0.091,0,0.136,0c0-0.136,0-0.272,0-0.409c-1.499-0.954-2.998-1.908-4.496-2.861
	c1.726,0.5,3.452,0.999,5.177,1.499c0.55,2.126-1.478,4.179-2.18,5.859c-0.091,0.045-0.182,0.091-0.272,0.136
	C111.492,122.166,109.63,120.621,107.768,119.078z M85.56,133.383c0,0.091,0,0.182,0,0.272c-2.657-1.023-0.611-5.232,0-7.63
	C85.903,126.838,85.968,132.406,85.56,133.383z M85.696,125.89c0-0.136,0-0.272,0-0.409c0.045,0,0.091,0,0.136,0
	C85.787,125.617,85.742,125.753,85.696,125.89z M82.835,122.892c0.498,1.596-1.205,5.341-1.771,6.948c0,0.045,0,0.091,0,0.136
	c0.045,0,0.091,0,0.136,0c0.863-1.862,1.726-3.724,2.589-5.586c0.045,0,0.091,0,0.136,0c0.761,1.981-0.522,5.597-0.681,7.766
	c-0.046,0-0.091,0-0.136,0c-1.09-0.908-2.18-1.817-3.27-2.725C80.837,127.252,81.836,125.072,82.835,122.892z M79.157,128.206
	c-0.091,0.045-0.182,0.091-0.272,0.136c-0.136-0.227-0.272-0.454-0.409-0.681c-0.53-0.651,1.953-4.285,2.589-5.45
	C80.428,124.209,79.792,126.208,79.157,128.206z M40.599,93.736c1.076-1.612,5.143-1.671,6.812-2.725c0.227,0,0.454,0,0.681,0
	c0,0.091,0,0.182,0,0.272c-1.816,1.135-3.633,2.271-5.45,3.406c-0.091,0.182-0.182,0.363-0.272,0.545
	c1.771-0.636,3.542-1.272,5.314-1.907c0.045,0.045,0.091,0.091,0.136,0.136c-2.089,1.544-4.178,3.088-6.267,4.632
	c-0.091,0.045-0.182,0.091-0.272,0.136c1.181,0.279,3.751-1.234,4.905-1.771c0.045,0.045,0.091,0.091,0.136,0.136
	c-2.044,1.362-4.088,2.725-6.131,4.087c-0.091,0.045-0.182,0.091-0.272,0.136c0,0.045,0,0.091,0,0.136
	c2.043-0.863,4.087-1.726,6.131-2.589c0,0.091,0,0.182,0,0.272c-2.044,1.408-4.088,2.816-6.131,4.224
	c-0.091,0.182-0.182,0.363-0.272,0.545c2.225-0.999,4.451-1.998,6.676-2.997c0,0.045,0,0.091,0,0.136
	c-1.953,1.453-3.906,2.907-5.859,4.36c0,0.045,0,0.091,0,0.136c1.816-0.817,3.633-1.635,5.45-2.452
	c-1.953,1.362-3.906,2.725-5.859,4.087c-0.045,0.136-0.091,0.272-0.136,0.409c2.225-1.044,4.451-2.089,6.676-3.134
	c-2.044,1.68-4.088,3.361-6.131,5.041c-0.182,0.272-0.363,0.545-0.545,0.817c2.271-1.181,4.542-2.362,6.812-3.542
	c-1.953,1.635-3.906,3.27-5.859,4.905c-0.227,0.318-0.454,0.636-0.681,0.954c2.271-1.362,4.542-2.725,6.812-4.087
	c-0.537,1.131-4.846,5.182-5.995,5.722c-0.045,0.136-0.091,0.272-0.136,0.409c2.497-1.589,4.996-3.179,7.493-4.769
	c0.136-0.091,0.272-0.182,0.409-0.272c0,0.045,0,0.091,0,0.136c-1.953,1.771-3.906,3.542-5.859,5.314
	c-0.409,0.5-0.817,0.999-1.226,1.499c2.361-1.453,4.723-2.907,7.085-4.36c0.136-0.091,0.272-0.182,0.409-0.272
	c-0.999,0.954-1.998,1.908-2.997,2.861c-1.271,1.362-2.543,2.725-3.815,4.087c2.497-1.68,4.996-3.361,7.493-5.041
	c-1.639,2.737-5.373,4.45-6.54,7.493c2.134-1.635,4.269-3.27,6.403-4.905c-1.453,1.816-2.907,3.633-4.36,5.45
	c-0.227,0.272-0.454,0.545-0.681,0.817c2.407-1.816,4.814-3.633,7.221-5.45c-1.907,2.543-3.815,5.087-5.722,7.63
	c2.634-2.316,5.268-4.633,7.902-6.948c-0.681,1.135-1.362,2.271-2.044,3.406c-0.091,0.182-0.182,0.363-0.272,0.545
	c0.045,0,0.091,0,0.136,0c1.135-0.999,2.271-1.998,3.406-2.997c-2.044,2.906-4.088,5.813-6.131,8.72
	c-0.246,0.275,0.003,0.101-0.409,0.272c-7.173-4.55-11.913-16.115-9.81-26.976C39.433,97.989,39.501,95.549,40.599,93.736z
	 M39.782,80.52c0.091,0,0.182,0,0.272,0c0.272,0.363,0.545,0.727,0.817,1.09C40.183,81.415,40.011,81.148,39.782,80.52z
	 M41.689,80.52c0.363,0.227,0.727,0.454,1.09,0.681c0,0.045,0,0.091,0,0.136C42.178,81.171,41.966,80.99,41.689,80.52z
	 M42.916,79.839c0.59,0.318,1.181,0.636,1.771,0.954c-0.045,0.091-0.091,0.182-0.136,0.272c-0.136,0-0.272,0-0.409,0
	C43.733,80.657,43.324,80.248,42.916,79.839z M51.771,77.659c0.091,0.136,0.182,0.272,0.272,0.409
	c-0.272,0.091-0.545,0.182-0.817,0.272c-0.363-0.454-0.727-0.908-1.09-1.362C50.681,77.205,51.226,77.432,51.771,77.659z
	 M50.545,75.616c1.135,0.363,2.271,0.727,3.406,1.09c-0.19,0.256-0.129,0.224-0.409,0.409C52.719,77.64,51.159,76.234,50.545,75.616
	z M50.273,78.749c0.091,0,0.182,0,0.272,0c-0.182,0.182-0.363,0.363-0.545,0.545c-0.968-0.192-1.568-0.959-2.044-1.635
	C48.729,78.023,49.501,78.386,50.273,78.749z M48.365,79.43c0.045,0.091,0.091,0.182,0.136,0.272
	c-0.182,0.091-0.363,0.182-0.545,0.272c-0.545-0.499-1.09-0.999-1.635-1.499C47.003,78.795,47.684,79.113,48.365,79.43z
	 M46.594,80.52c-0.136,0-0.272,0-0.409,0c-0.5-0.499-0.999-0.999-1.499-1.499c0.499,0.272,0.999,0.545,1.499,0.817
	C46.322,80.066,46.458,80.293,46.594,80.52z M56.267,120.304c0.267,0.391-2.724,4.984-3.27,5.995
	c1.561-0.798,2.052-2.912,3.542-3.815c-1.226,2.271-2.453,4.542-3.679,6.812c-0.908-0.363-1.817-0.727-2.725-1.09
	c-0.091-0.136-0.182-0.272-0.272-0.409C51.998,125.3,54.133,122.801,56.267,120.304z M57.357,124.119
	c-0.954,1.907-1.908,3.815-2.861,5.722c-0.454-0.091-0.908-0.182-1.362-0.272C54.542,127.752,55.95,125.935,57.357,124.119z
	 M61.172,66.487c0.091,0,0.182,0,0.272,0c-0.045,0.136-0.091,0.272-0.136,0.409c-0.798-0.006-1.398-0.118-1.771-0.545
	C60.082,66.396,60.627,66.442,61.172,66.487z M59.946,60.901c0.681,0,1.362,0,2.044,0c0,0.409,0,0.818,0,1.226
	c-0.636-0.318-1.272-0.636-1.907-0.954C60.037,61.083,59.991,60.992,59.946,60.901z M60.627,65.534
	c-0.091-0.045-0.182-0.091-0.272-0.136c0.136-0.045,0.272-0.091,0.409-0.136c0.318,0,0.636,0,0.954,0c0,0.182,0,0.363,0,0.545
	c-0.045,0.045-0.091,0.091-0.136,0.136C61.263,65.806,60.945,65.67,60.627,65.534z M60.764,64.444
	c-0.045-0.045-0.091-0.091-0.136-0.136c0-0.045,0-0.091,0-0.136c0.454-0.045,0.908-0.091,1.362-0.136c0,0.227,0,0.454,0,0.681
	C61.581,64.625,61.172,64.534,60.764,64.444z M61.853,63.49c-0.545-0.363-1.09-0.727-1.635-1.09c0.59,0,1.181,0,1.771,0
	c0.045,0.318,0.091,0.636,0.136,0.954C62.035,63.399,61.944,63.444,61.853,63.49z M61.99,60.492
	c-0.772-0.227-1.544-0.454-2.316-0.681c-0.045-0.091-0.091-0.182-0.136-0.272c0.636,0,1.272,0,1.907,0
	c-0.281-0.629-0.95-0.775-1.771-0.817c-0.045-0.091-0.091-0.182-0.136-0.272c0.454-0.363,0.908-0.727,1.362-1.09
	c0.771,0.632,0.804,2.087,1.09,2.997C61.99,60.402,61.99,60.447,61.99,60.492z M60.764,57.086c-0.363,0.091-0.727,0.182-1.09,0.272
	c-0.045,0-0.091,0-0.136,0c0.227-0.409,0.454-0.817,0.681-1.226c0.182,0.136,0.363,0.272,0.545,0.409
	C60.764,56.723,60.764,56.905,60.764,57.086z M59.129,55.996c0.045-0.318,0.091-0.636,0.136-0.954c0.136,0,0.272,0,0.409,0
	c0.091,0.136,0.182,0.272,0.272,0.409C59.674,55.633,59.401,55.815,59.129,55.996z M60.627,68.122
	c0.045,0.091,0.091,0.182,0.136,0.272c-0.091,0.227-0.182,0.454-0.272,0.681c-0.091,0.045-0.182,0.091-0.272,0.136
	c-0.599-0.471-1.375-0.677-1.771-1.362C59.174,67.941,59.901,68.031,60.627,68.122z M60.082,69.485
	c-0.091,0.182-0.182,0.363-0.272,0.545c-0.569-0.235-1.388-0.376-1.771-0.817C58.72,69.303,59.401,69.394,60.082,69.485z
	 M58.856,70.983c0.136,0.091,0.272,0.182,0.409,0.272c-0.523,0.529-1.99-0.071-2.589-0.681
	C57.403,70.711,58.13,70.847,58.856,70.983z M58.039,72.891c-0.091,0.182-0.182,0.363-0.272,0.545
	c-0.766-0.227-1.57-0.983-1.907-1.635C56.585,72.164,57.312,72.527,58.039,72.891z M55.859,130.25
	c0.499-0.863,0.999-1.726,1.499-2.589c0.045,0,0.091,0,0.136,0c0.045,0,0.091,0,0.136,0c-0.318,0.727-0.636,1.453-0.954,2.18
	c1.181-1.362,2.362-2.725,3.542-4.087c0.48,0.675-1.623,3.7-1.907,4.905c-0.817-0.091-1.635-0.182-2.452-0.272
	C55.859,130.34,55.859,130.295,55.859,130.25z M62.535,125.345c0.568,0.792-1.611,4.023-1.907,5.314
	c-0.136,0.091-0.272,0.182-0.409,0.272c-0.318,0-0.636,0-0.954,0C60.355,129.069,61.445,127.207,62.535,125.345z M64.442,126.026
	c0.321,1.405-1.132,3.179-1.362,4.769c-0.091,0.045-0.182,0.091-0.272,0.136c-0.318,0-0.636,0-0.954,0
	C62.716,129.296,63.579,127.661,64.442,126.026z M66.213,125.89c0.045,0,0.091,0,0.136,0c0.045,0.045,0.091,0.091,0.136,0.136
	c-0.363,1.408-0.727,2.816-1.09,4.224c0.045,0,0.091,0,0.136,0c0.863-1.68,1.726-3.361,2.589-5.041
	c0.357,1.086-0.531,3.819-0.954,4.905c-1.226,0.272-2.453,0.545-3.679,0.817c-0.045,0-0.091,0-0.136,0
	C64.306,129.251,65.26,127.57,66.213,125.89z M69.892,125.209c0.525,0.598,0.054,2.685,0,3.815c-0.545,0.272-1.09,0.545-1.635,0.817
	c-0.045,0-0.091,0-0.136,0C68.711,128.297,69.302,126.752,69.892,125.209z M67.576,56.133c1.816,1.816,3.633,3.633,5.45,5.45
	c7.725,6.211,17.662,16.511,28.066,19.483c-2.429,1.393-9.374-2.084-11.036-2.861C83.087,74.944,69.301,63.919,67.576,56.133z
	 M96.323,70.847c-3.718,0.701-7.604-1.202-10.218-2.316c-7.308-3.114-10.408-8.274-15.668-13.216
	c-2.452-2.316-4.905-4.633-7.357-6.948c2.41,0.325,4.105,1.846,5.859,2.861c3.196,1.851,5.996,3.954,8.72,6.267
	c0.908,1.135,1.817,2.271,2.725,3.406c1.503,1.883,4.045,3.632,6.131,4.905C88.225,66.85,95.739,69.472,96.323,70.847z
	 M91.827,60.629c0.091,0.136,0.182,0.272,0.272,0.409c-3.595,0.961-7.809-1.68-10.082-2.861c-5.486-2.851-9.706-6.662-14.306-10.355
	c-2.18-2.043-4.36-4.087-6.54-6.131c0.045-0.091,0.091-0.182,0.136-0.272c7.048,0.51,20.226,11.948,25.614,15.804
	C88.444,58.311,89.944,59.967,91.827,60.629z M88.966,52.045c-1.621,1.109-6.972-1.553-8.175-2.18
	c-5.758-3-10.692-7.114-15.804-10.763c-1.998-1.453-3.997-2.907-5.995-4.36c8.265,0.327,12.031,5.039,17.031,8.583
	C80.337,46.232,84.652,49.139,88.966,52.045z M57.494,26.976c11.319-0.031,17.866,7.043,24.388,12.126
	c1.77,1.38,3.43,3.433,5.586,4.36c0.045,0.091,0.091,0.182,0.136,0.272c-9.392-0.319-15.327-6.626-21.527-10.763
	c-3.096-2.066-6.756-3.285-9.946-5.45c-0.091,0-0.182,0-0.272,0C56.404,27.34,56.949,27.158,57.494,26.976z M57.085,73.708
	c0.045,0.045,0.091,0.091,0.136,0.136c0,0.045,0,0.091,0,0.136c-0.649,0.34-1.965-0.185-2.452-0.817
	C55.541,73.345,56.313,73.527,57.085,73.708z M55.859,75.071c0,0.045,0,0.091,0,0.136c-0.272,0.272-0.545,0.545-0.817,0.817
	c-0.863-0.59-1.726-1.181-2.589-1.771C53.588,74.526,54.724,74.798,55.859,75.071z M47.684,46.323c0.363,0,0.727,0,1.09,0
	c0.045,0.045,0.091,0.091,0.136,0.136c-0.871,2.247-1.587,4.196-2.861,5.995c-0.817,0.999-1.635,1.998-2.452,2.997
	c-0.454,0.409-0.908,0.818-1.362,1.226c-1.551-2.845-2.172-6.011-5.177-7.357C38.062,46.755,44.768,47.354,47.684,46.323z
	 M31.607,26.159c1.966-7.02,5.599-10.587,9.128-15.668c0.045,0,0.091,0,0.136,0c1.085,1.491,0.075,6.223-0.272,7.63
	c-1.595,6.455-4.678,12.531-9.81,15.396C29.975,31.444,31.155,27.774,31.607,26.159z M36.376,42.236
	c2.407-0.954,4.814-1.907,7.221-2.861c0.227,0,0.454,0,0.681,0c0.045,0.182,0.091,0.363,0.136,0.545
	c-1.907,1.044-3.815,2.089-5.722,3.134c-3.156,1.895-6.039,4.272-8.856,6.54c-2.933,2.361-5.742,5.885-7.766,9.128
	c-0.772,1.453-1.544,2.907-2.316,4.36c0,0.091,0,0.182,0,0.272c-0.045,0-0.091,0-0.136,0C20.55,53.124,29.023,46.202,36.376,42.236z
	 M33.651,62.945c0,0.091,0,0.182,0,0.272c-3.092,1.229-5.805,3.348-10.082,3.406c-0.045-0.045-0.091-0.091-0.136-0.136
	c0.624-4.421,2.292-6.612,4.36-9.401C30.075,58.31,29.824,62.345,33.651,62.945z M12.124,11.717
	c6.16,1.423,12.118,14.114,12.126,22.208C19.088,30.395,11.068,20.726,12.124,11.717z M10.898,47.277
	c1.044-1.816,2.089-3.633,3.134-5.45c0.68,0.857-0.47,4.739-0.681,6.131c0.045,0,0.091,0,0.136,0
	c0.863-1.181,1.726-2.362,2.589-3.542c0.182-0.136,0.363-0.272,0.545-0.409c-0.863,2.134-1.726,4.269-2.589,6.403
	c1.408-1.589,2.816-3.179,4.224-4.769c0-0.091,0-0.182,0-0.272c0.045,0,0.091,0,0.136,0c-0.999,2.134-1.998,4.269-2.997,6.403
	c0,0.045,0,0.091,0,0.136c2.481-1.204,3.79-4.405,5.995-5.995c-1.408,2.725-2.816,5.45-4.224,8.175
	c-0.091,0.182-0.182,0.363-0.272,0.545c0.045,0,0.091,0,0.136,0c1.271-1.362,2.543-2.725,3.815-4.087
	c-3.562,7.435-10.711,13.28-11.036,23.979c-0.955-1.182-0.859-3.445-1.226-5.177C6.967,61.721,8.46,52.896,10.898,47.277z
	 M12.533,93.191c-5.865-1.858-7.221-8.224-7.221-15.941c0-2.217-0.134-4.644,0.409-6.403c0.772,2.77,1.544,5.541,2.316,8.311
	C9.564,82.633,17.462,88.049,12.533,93.191z M21.525,91.147c-3.249-1.99-2.212-6.223,0.817-7.766
	c2.961-0.085,5.353,1.039,5.722,3.542C28.934,89.732,24.291,92.841,21.525,91.147z M26.43,69.757
	c3.133-1.044,6.268-2.089,9.401-3.134c6.292-3.017,12.204-8.37,15.259-14.578c0.811,2.356-2.028,6.409-2.997,7.902
	C43.783,66.589,37.549,70.667,26.43,69.757z M30.517,78.34c0.045-0.091,0.091-0.182,0.136-0.272c0.999,0.727,1.998,1.453,2.997,2.18
	c0.136,0.136,0.272,0.272,0.409,0.409c0-0.363,0-0.727,0-1.09c0.59,0.454,1.181,0.908,1.771,1.362
	c-0.091-0.454-0.182-0.908-0.272-1.362c0.045,0,0.091,0,0.136,0c0.272,0.227,0.545,0.454,0.817,0.681
	c0.136-0.182,0.272-0.363,0.409-0.545c0.681,0.545,1.362,1.09,2.044,1.635c0.091,0.136,0.182,0.272,0.272,0.409
	C35.249,81.773,32.141,80.686,30.517,78.34z M45.504,136.108c-12.029-7.346-16.641-23.944-9.128-38.966
	c-0.182,1.272-0.363,2.543-0.545,3.815c-0.542,3.355-0.031,7.436,0.545,10.218c2.642,12.77,7.941,19.527,20.573,22.344
	c3.271,0.73,9.524,1.384,13.079,0.272c0.045,0.045,0.091,0.091,0.136,0.136C65.53,139.241,52.041,140.099,45.504,136.108z
	 M71.799,67.713c1.362,1.317,2.725,2.634,4.087,3.951c3.633,2.497,7.267,4.996,10.9,7.493c5.452,4.015,10.081,9.11,18.257,10.491
	c0,0.045,0,0.091,0,0.136c-3.178,1.485-8.699-0.828-11.036-1.635c-9.483-3.273-14.899-7.475-19.619-15.396
	C73.497,71.259,72.207,69.628,71.799,67.713z M79.157,82.428c4.255,3.418,8.697,6.635,13.897,9.128
	c4.56,2.186,9.815,3.549,15.259,4.769c2.543,0.318,5.087,0.636,7.63,0.954c-3.357,2.265-12.065,1.747-16.349,0.817
	c-10.196-2.211-15.903-6.344-21.254-13.216c-1.874-2.407-4.714-5.035-5.041-8.856C75.251,78.159,77.204,80.294,79.157,82.428z
	 M74.388,111.175c0.409-0.182,0.817-0.363,1.226-0.545c0.182,0.091,0.363,0.182,0.545,0.272c-0.272,0.681-0.545,1.362-0.817,2.044
	c0.227-0.091,0.454-0.182,0.681-0.272c-0.545,0.817-1.09,1.635-1.635,2.452c-0.046,0.091-0.091,0.182-0.136,0.272
	C73.752,114.199,74.28,112.339,74.388,111.175z M74.115,115.944c1.3-0.047,1.864-0.634,2.452-1.362
	c0.112,0.564-1.205,2.032-1.771,2.452c-0.046,0.136-0.091,0.272-0.136,0.409c0.182,0.136,0.363,0.272,0.545,0.409
	c0.726-0.681,1.453-1.363,2.18-2.044c0.045,0.045,0.091,0.091,0.136,0.136c-0.727,1.135-1.453,2.271-2.18,3.406
	c0.772-0.636,1.544-1.272,2.316-1.907c-0.636,1.09-1.272,2.18-1.907,3.27c0.772-0.59,1.544-1.181,2.316-1.771
	c-0.545,0.954-1.09,1.908-1.635,2.861c-0.091,0.136-0.182,0.272-0.272,0.409c0.954-0.908,1.907-1.817,2.861-2.725
	c-0.772,1.635-1.544,3.27-2.316,4.905c0,0.045,0,0.091,0,0.136c1.075-0.553,2.643-2.694,3.134-3.815
	c0.091-0.045,0.182-0.091,0.272-0.136c-0.772,1.907-1.544,3.815-2.316,5.722c-0.091,0.045-0.182,0.091-0.272,0.136
	C75.732,123.665,74.413,120.177,74.115,115.944z M118.804,129.023c-4.947,5.216-11.476,9.033-19.619,11.036
	c-9.222,2.268-20.156-1.855-22.344-8.175c3.355,2.187,6.971,4.21,11.445,5.314c14.443,3.561,29.637-9.95,32.29-19.347
	c1.271-0.318,2.543-0.636,3.815-0.954C126.5,119.295,119.787,127.986,118.804,129.023z M171.666,44.007
	c2.225-0.409,4.451-0.817,6.676-1.226c17.591-0.061,30.477,6.562,36.377,18.12c4.568,8.948,2.048,23.541-3.951,29.293
	c-0.045,0.091-0.091,0.182-0.136,0.272c-0.045,0-0.091,0-0.136,0c1.028-3.174,2.346-6.444,3.134-10.082
	c3.356-15.505-6.241-25.771-15.804-29.974c-14.329-6.297-26.056-4.234-36.65,4.087c-1.794,1.409-4.436,3.204-5.45,5.314
	c-0.227,0.182-0.454,0.363-0.681,0.545C157.008,52.09,163.79,46.411,171.666,44.007z M169.759,53.544
	c2.361-0.409,4.723-0.817,7.085-1.226c16.793-0.037,36.978,11.199,33.38,28.884c-0.977,4.8-3.365,7.889-4.905,11.717
	c-0.091,0.045-0.182,0.091-0.272,0.136c0.418-4.686,2.015-10.623,0.681-15.941c-3.256-12.984-19.297-24.461-36.65-18.393
	c-7.229,2.528-9.764,6.239-14.987,10.218C155.093,61.847,163.36,55.535,169.759,53.544z M168.26,63.217
	c1.726-0.227,3.452-0.454,5.177-0.681c12.843,0.031,21.418,6.069,26.295,14.169c1.581,2.626,3.838,7.137,3.134,11.717
	c-0.624,4.052-2.114,6.97-2.861,10.218c-0.045,0-0.091,0-0.136,0c-0.045-2.815-0.091-5.632-0.136-8.447
	c-0.743-4.184-1.653-8.099-3.406-11.308c-4.896-8.961-16.175-15.757-29.974-11.445c-5.034,1.573-8.302,4.709-12.398,6.948
	C156.446,68.911,161.992,64.933,168.26,63.217z M194.964,90.875c-3.366-11.027-11.194-16.3-23.706-18.393
	c-3.436-0.575-7.74,0.166-10.218,1.226c-0.136,0-0.272,0-0.409,0c2.493-2.75,6.415-2.651,10.218-4.224
	c16.483-0.105,24.59,9.37,26.704,23.707c0.485,3.291-1.205,6.672-1.771,9.401c-0.045,0-0.091,0-0.136,0
	c0.091-1.044,0.182-2.089,0.272-3.134C196.285,96.915,195.657,93.145,194.964,90.875z M192.921,96.733c0,0.182,0,0.363,0,0.545
	c-0.045,0-0.091,0-0.136,0c-0.999-2.225-1.998-4.451-2.997-6.676c-4.721-7.787-12.41-15.105-24.933-14.987
	c0.698-0.606,2.039-0.445,2.997-0.817c12.574-0.085,20.061,6.589,23.57,15.532C191.921,92.464,192.421,94.599,192.921,96.733z
	 M157.225,109.268c-0.045,0.091-0.091,0.182-0.136,0.272c-0.045,0-0.091,0-0.136,0c-0.698-7.226,2.427-11.635,6.812-14.306
	c2.474-0.068,4.303,0.699,5.041,2.316c0.091,0.091,0.182,0.182,0.272,0.272C163.005,99.106,160.461,105.018,157.225,109.268z
	 M170.031,100.821c3.948-0.114,4.875,1.81,5.722,4.769c-8.047,0.511-10.744,1.221-16.349,4.769
	C160.381,105.09,165.566,102.808,170.031,100.821z M156.407,98.777c-1.286,3.113-1.844,7.147-1.771,11.445
	c-2.805-2.349-4.415-10.958-1.907-14.851c0.682-1.059,1.742-1.399,2.861-2.044c0.902,0.23,2.675,0.384,3.679,0.545
	C158.314,95.507,157.361,97.142,156.407,98.777z M155.181,80.657c0.119-0.749,0.298-0.931,0.681-1.362c0.227,0,0.454,0,0.681,0
	C156.089,79.748,155.635,80.203,155.181,80.657z M154.636,79.43c0.091,0,0.182,0,0.272,0c0.045,0.091,0.091,0.182,0.136,0.272
	c-0.545,0.5-1.09,0.999-1.635,1.499c-0.045,0-0.091,0-0.136,0c0.091-0.454,0.182-0.908,0.272-1.362
	C153.909,79.703,154.272,79.567,154.636,79.43z M152.047,79.975c0.409-0.045,0.817-0.091,1.226-0.136
	c-0.227,0.454-0.454,0.908-0.681,1.362c-0.182,0.136-0.363,0.272-0.545,0.409C152.047,81.065,152.047,80.52,152.047,79.975z
	 M150.821,80.248c0.272,0,0.545,0,0.817,0c0,0.045,0,0.091,0,0.136c-0.318,0.545-0.636,1.09-0.954,1.635
	c-0.091,0.045-0.182,0.091-0.272,0.136C150.549,81.52,150.685,80.884,150.821,80.248z M146.734,81.747
	c0.908-0.363,1.817-0.727,2.725-1.09c0.182,0,0.363,0,0.545,0c-0.636,1.044-1.272,2.089-1.907,3.134
	c-0.182,0.136-0.363,0.272-0.545,0.409c0.091-0.545,0.182-1.09,0.272-1.635c-0.045,0-0.091,0-0.136,0
	c-0.318,0.272-0.636,0.545-0.954,0.817c-0.045,0-0.091,0-0.136,0C146.643,82.837,146.688,82.292,146.734,81.747z M145.916,81.883
	c0.091,0,0.182,0,0.272,0c-0.136,0.409-0.272,0.817-0.409,1.226c-0.136,0.091-0.272,0.182-0.409,0.272
	C145.415,82.55,145.544,82.322,145.916,81.883z M148.232,95.507c0.272,0,0.545,0,0.817,0c0.045,0.045,0.091,0.091,0.136,0.136
	c-2.014,6.049,1.704,12.494,3.679,16.213c0,0.045,0,0.091,0,0.136c-3.51-1.237-11.642-9.403-8.038-14.578
	C145.594,96.313,146.955,96.129,148.232,95.507z M142.374,83.518c0.59-0.318,1.181-0.636,1.771-0.954
	c0.091,0.091,0.182,0.182,0.272,0.272c-0.136,0.227-0.272,0.454-0.409,0.681c-0.553,0.1-0.106,0.214-0.545-0.136
	c-0.182,0.182-0.363,0.363-0.545,0.545c-0.652,0.773,0.636,1.071-0.409,1.635c-0.045,0-0.091,0-0.136,0
	C142.374,84.88,142.374,84.199,142.374,83.518z M140.603,101.774c1.018,0.692,2.472,4.65,3.406,5.859
	c2.229,2.885,5.62,4.153,8.175,6.676C144.232,115.426,133.705,108.182,140.603,101.774z M136.515,111.175
	c1.135,0.817,2.271,1.635,3.406,2.452c3.169,1.875,7.772,3.047,12.671,2.997C148.416,121.627,132.681,120.299,136.515,111.175z
	 M137.469,121.53c0.045-0.045,0.091-0.091,0.136-0.136c5.863,0.948,12.633,0.002,16.349-2.861
	C154.799,122.041,138.216,133.116,137.469,121.53z M149.459,132.702c-2.714,1.121-5.658-0.81-6.131-2.861
	c5.729-0.706,10.394-6.136,12.943-10.218c0.981,1.085-0.346,4.254-0.681,5.177C154.427,128.004,152.516,131.439,149.459,132.702z
	 M157.497,135.427c-1.702,0.741-3.601-0.102-4.905-0.545c-0.045-0.091-0.091-0.182-0.136-0.272
	c3.909-2.873,5.967-9.264,6.403-15.532C162.284,122.456,161.743,133.579,157.497,135.427z M163.492,134.473
	c-0.227,0-0.454,0-0.681,0c0.856-6.851,0.424-11.682-2.044-16.894C165.956,119.338,173.272,132.016,163.492,134.473z
	 M171.803,129.023c-1.392-1.746-1.879-5.166-3.27-7.085c-1.85-2.55-4.933-4.18-6.676-6.676c5.203,0.373,9.912,2.866,12.126,6.267
	C175.83,124.37,174.549,128.068,171.803,129.023z M177.797,115.399c0,0.091,0,0.182,0,0.272c-1.453-0.772-2.907-1.544-4.36-2.316
	c-3.443-1.357-7.685-1.437-12.262-1.362c1.96-2.543,5.447-2.34,8.72-3.679C174.537,108.166,180.487,110.121,177.797,115.399z
	 M185.563,96.325c0.364-0.363,0.664-0.485,1.362-0.545c-0.359-0.545-1.073-0.24-2.044-0.136c0.59-0.227,1.181-0.454,1.771-0.681
	c0-0.045,0-0.091,0-0.136c-0.454,0-0.908,0-1.362,0c0.318-0.227,0.636-0.454,0.954-0.681c0.091-0.045,0.182-0.091,0.272-0.136
	c-0.772,0.045-1.544,0.091-2.316,0.136c0.545-0.318,1.09-0.636,1.635-0.954c0.045-0.091,0.091-0.182,0.136-0.272
	c-0.59,0.045-1.181,0.091-1.771,0.136c0.227-0.136,0.454-0.272,0.681-0.409c-0.289-0.573-0.224-0.323-0.954-0.272
	c0.247-0.458,0.459-0.613,0.954-0.817c0-0.045,0-0.091,0-0.136c-0.347-0.219-1.058-0.183-1.907-0.136c0-0.091,0-0.182,0-0.272
	c0.454-0.227,0.908-0.454,1.362-0.681c0.045-0.091,0.091-0.182,0.136-0.272c0-0.045,0-0.091,0-0.136
	c-0.863,0.272-1.726,0.545-2.589,0.817c-0.045,0-0.091,0-0.136,0c0.499-0.499,0.999-0.999,1.499-1.499
	c-0.045-0.045-0.091-0.091-0.136-0.136c-1.044,0.363-2.089,0.727-3.134,1.09c0.415-0.541,1.018-1.031,1.771-1.226
	c0-0.136,0-0.272,0-0.409c-0.636,0.272-1.272,0.545-1.907,0.817c0.59-0.545,1.181-1.09,1.771-1.635c0-0.045,0-0.091,0-0.136
	c-1.135,0.409-2.271,0.817-3.406,1.226c0.409-0.318,0.817-0.636,1.226-0.954c0.091-0.136,0.182-0.272,0.272-0.409
	c0-0.045,0-0.091,0-0.136c-0.227,0.091-0.454,0.182-0.681,0.272c-0.045,0-0.091,0-0.136,0c0.318-0.499,0.636-0.999,0.954-1.499
	c-0.545,0.227-1.09,0.454-1.635,0.681c0.227-0.545,0.454-1.09,0.681-1.635c-0.545,0.272-1.09,0.545-1.635,0.817
	c0.227-0.499,0.454-0.999,0.681-1.499c-0.817,0.409-1.635,0.817-2.452,1.226c0.272-0.545,0.545-1.09,0.817-1.635
	c-0.318,0.136-0.636,0.272-0.954,0.409c-0.227,0.227-0.454,0.454-0.681,0.681c-0.045,0-0.091,0-0.136,0
	c0.182-0.545,0.363-1.09,0.545-1.635c-0.045,0-0.091,0-0.136,0c-0.454,0.318-0.908,0.636-1.362,0.954
	c0.272-0.636,0.545-1.272,0.817-1.907c-0.454,0.272-0.908,0.545-1.362,0.817c0.091-0.499,0.182-0.999,0.272-1.499
	c-0.318,0.182-0.636,0.363-0.954,0.545c-0.182,0.182-0.363,0.363-0.545,0.545c0.045-0.454,0.091-0.908,0.136-1.362
	c-0.045,0-0.091,0-0.136,0c-0.454,0.363-0.908,0.727-1.362,1.09c0.136-0.363,0.272-0.727,0.409-1.09c0-0.182,0-0.363,0-0.545
	c-0.272,0.182-0.545,0.363-0.817,0.545c-0.272,0.272-0.545,0.545-0.817,0.817c-0.045,0-0.091,0-0.136,0
	c0.136-0.545,0.272-1.09,0.409-1.635c-0.929,0.289-1.305,1.029-1.907,1.635c0.091-0.681,0.182-1.363,0.272-2.044
	c-0.045,0-0.091,0-0.136,0c-0.545,0.727-1.09,1.453-1.635,2.18c-0.136,0.091-0.272,0.182-0.409,0.272
	c-0.191-1.164,0.315-2.131,0.817-2.997c-0.091-0.045-0.182-0.091-0.272-0.136c-0.409,0.363-0.817,0.727-1.226,1.09
	c-0.272,0.272-0.545,0.545-0.817,0.817c-0.045,0-0.091,0-0.136,0c0.182-0.636,0.363-1.272,0.545-1.907
	c-0.454,0.272-0.908,0.545-1.362,0.817c-0.272,0.272-0.545,0.545-0.817,0.817c-0.133-0.475,0.144-0.918,0.409-1.362
	c0-0.136,0-0.272,0-0.409c-0.681,0.59-1.362,1.181-2.044,1.771c0.363-0.636,0.727-1.272,1.09-1.907
	c-0.863,0.545-1.726,1.09-2.589,1.635c-0.045,0-0.091,0-0.136,0c0.272-0.545,0.545-1.09,0.817-1.635
	c-0.636,0.545-1.272,1.09-1.907,1.635c0.227-0.499,0.454-0.999,0.681-1.499c0-0.045,0-0.091,0-0.136
	c-0.981,0.477-1.377,1.519-2.18,2.18c-0.045,0-0.091,0-0.136,0c0.227-0.681,0.454-1.363,0.681-2.044
	c0.308-0.442,0.581-0.327,1.09-0.545c1.68,0,3.361,0,5.041,0c2.543,0.5,5.087,0.999,7.63,1.499
	c9.795,3.744,16.655,9.196,18.896,18.66c0.014,0.002,0.028,0.003,0.042,0.005c-0.009,0.018-0.018,0.037-0.027,0.055
	c0.956,4.081,1.056,8.906,0.164,14.66c-0.621-0.201-0.858-0.524-1.09-1.09c-0.315-0.44-0.183-1.152-0.136-2.044
	c0.318-0.182,0.636-0.363,0.954-0.545c0.045-0.091,0.091-0.182,0.136-0.272c-0.454-0.091-0.908-0.182-1.362-0.272
	c0-0.045,0-0.091,0-0.136c0.454-0.136,0.908-0.272,1.362-0.409c0-0.091,0-0.182,0-0.272c-0.5-0.045-0.999-0.091-1.499-0.136
	c0-0.045,0-0.091,0-0.136c0.499-0.136,0.999-0.272,1.499-0.409c0.045-0.091,0.091-0.182,0.136-0.272
	c-0.318-0.045-0.636-0.091-0.954-0.136c0.409-0.227,0.817-0.454,1.226-0.681c0.045-0.091,0.091-0.182,0.136-0.272
	c-0.5-0.045-0.999-0.091-1.499-0.136c0.407-0.416,0.849-0.627,1.635-0.681c0-0.045,0-0.091,0-0.136c-0.545,0-1.09,0-1.635,0
	c0-0.045,0-0.091,0-0.136c0.454-0.363,0.908-0.727,1.362-1.09c0.091-0.045,0.182-0.091,0.272-0.136c-0.454,0-0.908,0-1.362,0
	c0-0.045,0-0.091,0-0.136c0.272-0.182,0.545-0.363,0.817-0.545c0.091-0.045,0.182-0.091,0.272-0.136c-0.59,0-1.181,0-1.771,0
	c0-0.045,0-0.091,0-0.136c0.409-0.227,0.817-0.454,1.226-0.681c0.091-0.136,0.182-0.272,0.272-0.409c-0.5,0-0.999,0-1.499,0
	c0.409-0.318,0.817-0.636,1.226-0.954c0.091-0.045,0.182-0.091,0.272-0.136c-0.545-0.045-1.09-0.091-1.635-0.136
	c0.376-0.348,0.811-0.491,1.499-0.545c0-0.045,0-0.091,0-0.136c-0.429-0.347-1.256-0.425-2.044-0.409c0-0.045,0-0.091,0-0.136
	c0.636-0.182,1.272-0.363,1.907-0.545c0.036-0.073,0.073-0.145,0.109-0.218c-0.005-0.02-0.01-0.04-0.015-0.06
	c-0.713-0.089-1.425-0.178-2.138-0.267c0-0.045,0-0.091,0-0.136c0.454-0.136,0.908-0.272,1.362-0.409c0-0.136,0-0.272,0-0.409
	c-0.999-0.091-1.998-0.182-2.997-0.272c0.282-0.617,0.947-0.905,1.635-1.09c0.045-0.091,0.091-0.182,0.136-0.272
	C187.017,96.325,186.29,96.325,185.563,96.325z M187.743,123.846c1.187-3.866,3.087-7.706,5.45-10.491
	c1.453-1.317,2.907-2.634,4.36-3.951c0.136,0,0.272,0,0.409,0c-2.814,9.629-6.169,25.046-2.997,37.331
	c1.034,4.005,1.875,8.025,3.406,11.581c0.954,1.953,1.907,3.906,2.861,5.859C192.001,158.393,182.924,139.543,187.743,123.846z
	 M205.591,161.722c-5.287-8.6-9.51-26.096-6.676-40.737c0.727-3.406,1.453-6.812,2.18-10.218c0.681-1.726,1.362-3.452,2.044-5.177
	c0.091,0,0.182,0,0.272,0c-2.191,11.261-4.629,27.407-1.635,39.375c2.474,9.887,6.887,16.519,10.9,24.388
	C209.588,168.082,207.282,164.472,205.591,161.722z M210.496,159.27c-10.249-16.768-10.6-37.438-2.997-57.495
	c0.942,2.408-0.131,7.237-0.545,9.537c-0.227,2.452-0.454,4.905-0.681,7.357c-0.809,4.445-1.833,10.424-0.954,15.668
	c2.016,12.028,5.152,21.052,10.9,29.156c1.953,2.407,3.906,4.814,5.859,7.221C216.718,169.061,213.201,163.696,210.496,159.27z
	 M228.208,169.215c-6.254-0.824-10.31-6.666-13.079-11.172c-2.971-4.834-5.312-10.601-6.676-17.031
	c-2.591-12.214,0.077-28.797,2.861-38.83c0.772-2.679,1.544-5.359,2.316-8.038c0.182,0.253-0.68,7.938-0.954,9.401
	c-1.314,7.031-2.394,18.522-1.09,26.431c1.549,9.397,3.109,17.443,7.085,24.251c3.087,5.286,7.67,7.902,9.537,14.442
	C228.208,168.852,228.208,169.034,228.208,169.215z M220.306,151.64c-5.613-9.116-9.721-24.901-6.948-40.465
	c0.636-3.951,1.272-7.903,1.907-11.853c0.681-2.77,1.362-5.541,2.044-8.311c0.428,0.494-0.14,6.039-0.272,7.493
	c-0.562,6.191-1.126,14.209,0,20.437c1.898,10.502,3.004,19.959,7.63,27.521c2.604,4.257,9.902,9.97,10.9,14.851
	C227.28,162.447,223.249,156.42,220.306,151.64z M241.151,157.09c-3.364-0.347-9.627-6.244-11.445-8.583
	c-7.78-10.015-13.409-28.152-10.491-47.277c0.712-4.664,0.649-9.03,1.771-13.079c0.363,6.448,0.727,12.899,1.09,19.347
	c2.136,12.167,3.898,23.141,8.856,32.29c1.544,2.407,3.088,4.814,4.632,7.221C237.8,149.911,242.252,151.717,241.151,157.09z"/>
</svg>
