<?xml version="1.0" encoding="utf-8"?>
<!-- Generator: Adobe Illustrator 17.0.0, SVG Export Plug-In . SVG Version: 6.00 Build 0)  -->
<!DOCTYPE svg PUBLIC "-//W3C//DTD SVG 1.1//EN" "http://www.w3.org/Graphics/SVG/1.1/DTD/svg11.dtd">
<svg version="1.1" id="_x37C_" xmlns="http://www.w3.org/2000/svg" xmlns:xlink="http://www.w3.org/1999/xlink" x="0px" y="0px"
	 width="221.102px" height="239.003px" viewBox="0 0 221.102 239.003" enable-background="new 0 0 221.102 239.003"
	 xml:space="preserve">
<path fill="#FF3333" d="M103.451,99.898c-0.004-0.679,0.372-1.254,0.517-1.892c0.292-0.478,0.677-0.837,1.237-0.971
	c1.84,0.302,3.45,1.119,4.922,2.223c1.941,1.457,3.354,3.334,4.311,5.56c0.087,0.157,0.265,0.633,0.279,0.706
	c-0.001,0.001-0.003-0.001-0.004-0.002l0.003,0.004c0.398,0.508,0.554,1.117,0.72,1.723c-0.001,0.905-0.038,1.805-0.238,2.694
	c-0.634,2.818-2.803,4.286-5.634,3.687c-3.817-0.81-6.019-3.366-7.205-6.931c-0.378-1.136-0.507-2.321-0.467-3.521
	c0.244-0.65,0.537-1.274,0.941-1.839c0.003,0.143,0.004,0.286,0.009,0.429c0.063,1.735,0.752,3.146,2.234,4.085
	c1.399,0.886,2.801,0.24,3.092-1.386c0.24-1.342-0.2-2.514-0.993-3.567C106.108,99.479,105.035,99.201,103.451,99.898z
	 M104.186,143.153c0.188-0.216,0.37-0.438,0.564-0.646c1.479-1.591,2.649-3.378,3.457-5.398c0.081-0.203,0.25-0.411,0.102-0.77
	c-0.256,0.44-0.466,0.807-0.68,1.17c-1.086,1.844-2.311,3.577-3.935,4.995c-0.507-0.608-0.723-1.326-0.73-2.101
	c-0.015-1.597,0.356-3.119,0.932-4.603c0.775-1.996,2.057-3.667,3.385-5.31c-0.041-0.042-0.083-0.083-0.124-0.125
	c-2.126,1.989-3.682,4.331-4.366,7.188c-0.439,1.834-0.751,3.676,0.465,5.375c-4.081,3.494-8.811,4.928-14.142,4.452
	c-0.085-0.575-0.282-1.119-0.601-1.593c-1.494-2.216-3.352-4.061-5.657-5.435c-0.128-0.127-0.261-0.249-0.475-0.209
	c0.061,0.179,0.18,0.278,0.334,0.344c1.972,1.635,3.838,3.373,5.284,5.512c0.266,0.392,0.521,0.786,0.559,1.276
	c-1.705-0.202-3.104-1-4.288-2.236c0.256,0.695,0.723,1.188,1.271,1.617c0.896,0.699,1.946,1.035,3.022,1.314
	c-0.196,1.174-0.966,1.803-2.042,2.122c-0.772,0.23-1.557,0.426-2.335,0.637c1.371,0.043,2.687-0.14,3.848-0.903
	c0.624-0.41,1.045-0.972,1.109-1.748c0.839,0.056,1.681,0.187,2.516,0.156c4.586-0.166,8.682-1.619,12.116-4.74
	c2.257,2.058,6.058,1.799,8.021,0.704C109.13,144.761,106.505,145.028,104.186,143.153z M78.286,125.864
	c-0.567,2.036-2.211,2.986-4.262,2.458c-1.776-0.458-3.171-1.529-4.367-2.858c-2.154-2.393-3.565-5.141-3.809-8.407
	c-0.066-0.872,0.045-1.722,0.358-2.535c0.384-0.998,1.086-1.674,2.124-1.979c1.142,0.391,2.29,0.755,3.438,1.119
	c0.883,0.28,1.535,1.012,2.176,1.671c2.428,2.499,3.795,5.55,4.538,8.91c0.048,0.216,0.023,0.447,0.031,0.672
	C78.44,125.231,78.374,125.551,78.286,125.864z M69.208,114.087c-0.971-0.337-1.808,0.062-2.183,1.025
	c-0.137,0.35-0.158,0.72-0.215,1.118c0.155,1.676,0.788,3.116,2.371,3.959c1.065,0.567,2.061,0.134,2.461-1
	C72.274,117.402,70.984,114.7,69.208,114.087z M221.102,99.255c-0.197-0.225-0.108-0.493-0.111-0.748
	c-0.088-1.208-0.308-2.396-0.648-3.553c-0.557-1.895-1.262-3.739-2.586-5.238c-1.857-2.102-4.365-2.711-7.033-2.796
	c-2.922-0.094-5.734,0.511-8.459,1.533c-2.984,1.119-5.739,2.669-8.351,4.485c-0.033-0.199,0.076-0.357,0.161-0.517
	c1.982-3.714,2.95-7.704,3.191-11.881c0.052-0.892,0.229-1.395,1.234-1.752c3.101-1.104,5.253-3.398,6.778-6.234
	c2.587-4.811,2.976-9.938,1.645-15.158c-1.473-5.785-4.643-10.539-9.326-14.258c-4.51-3.582-9.663-5.057-15.39-4.638
	c-0.842,0.061-1.682,0.395-2.479,0.332c-0.858-0.067-1.284-1.067-1.995-1.541c-0.034-0.022-0.064-0.053-0.094-0.08
	c-4.217-3.699-8.854-6.769-13.842-9.33c-4.405-2.264-9.058-3.864-13.765-5.348c-8.995-2.836-18.183-4.705-27.586-5.473
	c-3.688-0.3-7.385-0.352-11.088-0.286c-5.019,0.091-9.989,0.608-14.934,1.437c0.736-1.227,1.474-2.451,2.207-3.679
	c2.021-3.378,3.729-6.909,5.199-10.558c0.163-0.4,0.017-0.679-0.194-0.949c-0.233-0.301-0.519-0.109-0.778-0.009
	c-0.804,0.306-1.498,0.855-2.349,1.05c-2.264,0.518-4.548,0.592-6.822,0.121C90.933,3.619,88.602,2.314,86.91,0
	c-0.042,0-0.083,0-0.123,0c-0.205,1.706-0.255,3.425-0.452,5.134c-0.66,5.763-2.385,11.184-5.121,16.288
	c-0.247,0.463-0.444,0.966-0.845,1.334c-0.078,0.014-0.159,0.016-0.232,0.043c-2.645,0.972-5.165,2.205-7.561,3.684
	c-1.844,1.137-3.621,2.362-5.148,3.916c0.001,0,0.002,0,0.002,0s-0.001,0-0.002,0.001c-0.177,0.162-0.41,0.174-0.626,0.222
	c-3.482,0.766-6.23,2.407-7.236,6.101c-0.124,0.448-0.342,0.229-0.538,0.134c-2.798-1.335-5.322-3.081-7.58-5.197
	c-4.265-3.998-7.063-8.895-8.78-14.448c-0.253-0.821-0.444-1.672-0.85-2.481c-0.121,0.151-0.21,0.239-0.271,0.344
	c-0.05,0.085-0.057,0.194-0.101,0.284c-0.981,1.99-2.21,3.787-4.016,5.137c-2.459,1.839-5.231,2.566-8.271,2.345
	c-0.46-0.034-0.87,0.024-1.129,0.449c-0.26,0.422-0.14,0.826,0.104,1.214c0.107,0.174,0.194,0.364,0.323,0.521
	c3.061,3.688,6.351,7.149,10.049,10.211c4.454,3.69,9.272,6.751,14.766,8.663c0.362,0.127,0.393,0.209,0.187,0.541
	c-1.021,1.638-1.926,3.338-2.642,5.135c-0.628,1.581-1.222,3.175-1.418,4.882c-0.928,1.416-1.926,2.789-2.717,4.29
	c-3.895,7.392-5.438,15.264-4.858,23.582c0.195,2.8,0.622,5.561,1.294,8.273c1.89,7.64,4.965,14.794,8.985,21.55
	c2.596,4.358,5.532,8.485,8.578,12.538c1.411,1.877,2.658,3.865,3.876,5.871c0.009,0.097,0.019,0.193,0.027,0.29
	c-0.227,0.151-0.131,0.434-0.255,0.628c-0.04,0.167-0.079,0.333-0.117,0.499c-0.245,1.158-0.457,2.319-0.544,3.506
	c-0.187,2.54-0.226,5.064,0.475,7.552c1.051,3.73,3.476,6.458,6.388,8.838c1.621,1.324,3.421,2.361,5.271,3.32
	c-0.134,0.15-0.269,0.3-0.398,0.452c-0.831,0.964-1.648,1.939-2.201,3.1c0,0.001,0,0.001,0.001,0.002
	c-0.001,0-0.001-0.001-0.001-0.001c-1.719,2.967-2.575,6.162-2.47,9.594c0.047,1.517,0.623,2.806,1.846,3.761
	c-0.026,0.133-0.134,0.191-0.233,0.264c-5.082,3.776-10.164,7.554-15.246,11.329c-5.887,4.374-11.781,8.737-17.655,13.126
	c-1.224,0.915-2.498,1.767-3.647,2.782c-0.074,0.032-0.158,0.05-0.222,0.097c-3.567,2.65-7.133,5.303-10.697,7.955
	c-7.493,5.573-14.988,11.145-22.476,16.726c-0.941,0.701-2.152,1.163-2.403,2.527c0,0.657,0,1.316,0,1.975
	c0.192,0.476,0.176,0.998,0.368,1.482c0.521,1.308,1.16,2.549,2.02,3.656c1.725,2.227,3.602,4.278,6.499,4.985
	c0.041,0,0.083,0,0.123,0c0.394-0.268,0.833-0.054,1.244-0.116c0.683-0.034,1.058-0.571,1.534-0.939
	c3.713-2.869,7.426-5.736,11.137-8.607c4.131-3.198,8.261-6.396,12.389-9.597c3.332-2.583,6.66-5.171,9.989-7.757
	c0.002-0.001,0.004-0.003,0.006-0.005c-0.105-0.234-0.109-0.507-0.204-0.745c-0.036-0.092-0.093-0.174-0.149-0.257
	c-0.004,0.004-0.008,0.007-0.012,0.012c0.001-0.008,0.003-0.015,0.006-0.023c-0.069-0.102-0.138-0.203-0.168-0.321
	c-0.056-0.214-0.055-0.465-0.089-0.685c-0.192-1.211-0.436-2.384-0.842-3.542c-0.639-1.82-1.599-3.415-3.167-4.6
	c-0.965-0.729-2.103-1.256-3.257-1.609c-0.244-0.074-1.355-0.836-1.595-0.624c0.258-0.229,0.746-0.12,1.065-0.144
	c0.759-0.055,1.349,0.14,2.053,0.394c0.686,0.248,1.397,0.507,2.015,0.901c1.906,1.217,3.132,2.932,3.824,5.057
	c0.483,1.481,0.911,3.189,0.789,4.769c-0.003,0.045-0.007,0.09-0.011,0.136c-0.037,0.377-0.067,0.939-0.25,1.276
	c0.452-0.339,0.909-0.674,1.357-1.02c3.727-2.878,7.451-5.758,11.176-8.64c3.934-3.045,7.863-6.092,11.796-9.138
	c3.738-2.896,7.477-5.792,11.216-8.686c0.835-0.646,1.675-1.287,2.536-1.949c0.071,0.293,0.135,0.509,0.173,0.729
	c0.635,3.727,2.66,6.631,5.502,8.973c2.774,2.287,6.12,3.057,9.63,3.14c2.646,0.063,5.261-0.337,7.85-0.838
	c2.938-0.566,5.782-1.44,8.404-2.925c0.718-0.405,1.479-0.771,1.948-1.506c0.076-0.139,0.202-0.126,0.32-0.087
	c1.843,0.599,3.621,1.348,5.299,2.32c2.357,1.365,4.372,3.14,6.094,5.239c1.138,1.386,2.189,2.841,2.646,4.615
	c0.145,0.565,0.482,1.129,0.205,1.749c-0.763,0.604-1.318,1.396-1.898,2.158c-2.517,3.311-4.187,7.034-5.41,10.997
	c-1.044,3.382-1.331,6.755-0.332,10.175c1.228,4.2,3.692,7.36,7.932,8.806c3.136,1.069,6.356,0.869,9.549,0.129
	c3.416-0.791,6.555-2.251,9.56-4.021c5.419-3.191,9.989-7.31,13.714-12.389c2.819-3.844,5.136-7.972,7.191-12.259
	c3.041-6.341,5.406-12.934,7.216-19.723c0.729-2.734,1.242-5.523,1.456-8.348c0.097-1.26,0.2-2.541-0.101-3.8
	c-0.061-0.391,0.291-0.423,0.506-0.541c2.855-1.561,5.862-2.709,9.044-3.42c1.567-0.35,3.159-0.539,4.733-0.838
	c0.399-0.075,0.405-0.192,0.257-0.515c-1-2.166-1.796-4.388-2.081-6.786c-0.24-2.023-0.227-4.029,0.213-6.007
	c0.802-3.617,2.536-6.793,4.742-9.739c0.469-0.626,1.068-1.167,1.369-1.914c-0.367,0.063-0.608,0.339-0.857,0.565
	c-3.553,3.229-5.774,7.208-6.643,11.93c-0.117,0.643-0.121,1.306-0.177,1.958c-0.03,2.456,0.411,4.821,1.382,7.083
	c0.496,1.153,1.157,2.21,1.936,3.205c-3.576-0.142-6.995,0.446-10.313,1.628c-3.464,1.233-6.645,2.979-9.316,5.529
	c-2.429,2.318-4.039,5.167-5.001,8.377c-0.838,2.792-0.977,5.646-0.686,8.612c-0.436-0.275-0.833-0.537-1.24-0.779
	c-4-2.375-8.279-3.875-12.95-4.191c-6.764-0.459-12.673,1.596-17.768,6.029c-2.31,2.01-4.112,4.415-5.444,7.172
	c-0.034,0.07-0.076,0.135-0.104,0.184c-0.85-5.282-4.214-8.741-8.398-11.571c-3.143-2.125-6.72-3.137-10.416-3.742
	c-2.894-0.475-5.803-0.566-8.719-0.152c-1.644,0.234-3.117,0.839-4.401,1.98c-0.174-0.545-0.069-1.062-0.111-1.564
	c-0.419-4.912-2.313-9.206-5.413-12.993c-2.282-2.788-4.887-5.22-8.021-7.043c-1.712-0.994-3.487-1.842-5.399-2.384
	c-0.153-0.043-0.294-0.125-0.441-0.189c0.726-0.17,1.451-0.339,2.179-0.509c0.024,0.281,0.087,0.553,0.226,0.801
	c0.153,0.276,0.37,0.344,0.585,0.082c0.815-0.985,1.93-1.506,3.061-2.007c0.11-0.057,0.228-0.094,0.343-0.138
	c-0.065,0.028-0.134,0.05-0.197,0.08c0.635,0.126,1.207,0.434,1.782,0.706c3.482,1.648,6.643,3.775,9.33,6.547
	c2.434,2.509,4.253,5.42,5.404,8.731c0.352,1.009,0.699,2.019,0.954,3.059c0.049,0.198,0.026,0.565,0.439,0.394
	c1.942-0.745,3.96-1.073,6.031-1.137c2.311-0.07,4.601,0.041,6.868,0.542c2.999,0.664,5.813,1.797,8.491,3.276
	c2.729,1.51,5.212,3.374,7.551,5.432c0.665,0.586,0.748,0.604,1.421-0.056c0.989-0.968,2.052-1.842,3.166-2.653
	c3.389-2.469,7.096-4.237,11.245-4.972c4.591-0.811,9.054-0.216,13.406,1.368c0.367,0.133,0.751,0.236,1.093,0.421
	c0.4,0.214,0.696,0.128,0.95-0.217c0.561-1.668,1.106-3.339,1.874-4.93c2.269-4.708,5.927-8.049,10.37-10.633
	c2.815-1.637,5.808-2.859,8.927-3.771c0.586-0.171,0.777-0.395,0.694-1.021c-0.338-2.587-0.582-5.182-0.259-7.792
	c0.415-5.151,2.51-9.505,6.213-13.098c0.211-0.204,0.395-0.204,0.659-0.146c1.745,0.387,3.451,0.898,5.108,1.571
	c0.187,0.075,0.361,0.206,0.581,0.172c-0.44-0.658-1.148-0.969-1.805-1.312c-2.648-1.384-5.501-2.013-8.464-2.273
	c-3.02-0.267-6.001-0.045-8.973,0.481c-0.687-1.291-1.535-2.477-2.435-3.636c1.608-0.229,3.176-0.395,4.721-0.685
	c4.231-0.794,8.352-1.994,12.317-3.679c7.763-3.299,14.646-7.819,19.94-14.509c1.102-1.392,2.114-2.855,2.858-4.483l-0.002,0.001
	l0.001-0.001c0.312-0.381,0.488-0.838,0.688-1.277c1.609-3.528,2.648-7.214,3.02-11.08c0.003-0.202,0.004-0.403,0.007-0.605h-0.001
	c-0.002-0.219-0.097-0.453,0.105-0.638C221.102,101.066,221.102,100.16,221.102,99.255z M131.899,204.111
	c0.243-0.349,0.48-0.701,0.721-1.052c2.132-0.47,4.271-0.415,6.404-0.034c5.001,0.895,9.402,3.117,13.405,6.174
	c3.435,2.621,5.748,5.989,6.624,10.271c0.293,1.434,0.276,2.882,0.193,4.333c-0.015,0.255-0.186,0.401-0.342,0.563
	c-1.472,1.529-3.095,2.884-4.813,4.124c-2.722,1.964-5.572,3.713-8.676,5.016c-3.27,1.374-6.648,2.259-10.23,2.026
	c-4.854-0.314-8.31-3.124-10.013-7.615c-0.799-2.104-1.131-4.294-0.954-6.527c0.172-2.152,0.78-4.227,1.454-6.273
	c1.282-3.896,3.173-7.473,5.651-10.74c0.059-0.078,0.145-0.137,0.218-0.205C131.705,204.413,131.805,204.245,131.899,204.111z
	 M85.901,175.224c0.57-1.568,1.335-3.041,2.142-4.496c1.518,1.075,2.786,2.415,4.059,3.758c3.654,3.853,6.029,8.367,7.094,13.567
	c0.161,0.783,0.293,1.572,0.438,2.354c0.056,0.01,0.107,0.033,0.128,0.019c1.813-1.399,3.907-1.78,6.137-1.824
	c3.58-0.067,7.079,0.4,10.517,1.376c0.095,0.027,0.184,0.079,0.276,0.119c-1.736,1.266-3.729,1.976-5.752,2.591
	c-3.769,1.145-7.653,1.663-11.569,1.7c-3.354,0.032-6.613-0.688-9.296-2.854c-2.672-2.157-4.769-4.776-5.228-8.344
	C84.493,180.451,84.964,177.803,85.901,175.224z M98.264,33.828c5.25,1.036,10.332,2.625,15.28,4.656
	c5.126,2.105,10.012,4.667,14.696,7.62c3.6,2.269,7.055,4.742,10.362,7.417c2.059,1.666,4.053,3.409,6.004,5.203
	c2.24,2.063,4.365,4.235,6.368,6.526c3.794,4.337,7.213,8.95,10.201,13.882c1.119,1.846,2.142,3.745,3.174,5.638
	c0.088,0.16,0.142,0.339,0.211,0.508c-1.192,1.353-2.308,2.762-3.232,4.314c-0.048,0.082-0.077,0.265-0.257,0.159
	c-1.884-3.93-4.28-7.541-6.899-11c-9.207-12.158-20.252-22.275-33.502-29.895c-6.589-3.787-13.56-6.649-21.034-8.183
	c-3.57-0.73-7.172-1.18-10.817-1.32c-4.206-0.162-8.379,0.12-12.53,0.791c-0.061-0.011-0.146,0-0.178-0.037
	c-0.163-0.187,0.082-0.164,0.131-0.191c1.35-0.749,2.609-1.634,3.849-2.55c1.771-1.309,3.45-2.731,4.938-4.354
	c0.527-0.575,1.085-0.7,1.781-0.629c1.63,0.166,3.267,0.256,4.897,0.431C93.912,33.053,96.094,33.4,98.264,33.828z M174.472,117.575
	c-2.653,4.733-5.881,9.043-9.654,12.94c-2.537,2.619-5.324,4.929-8.481,6.788c-2.867,1.689-5.766,3.317-8.768,4.754
	c-3.408,1.63-6.909,3.043-10.423,4.424c-0.146,0.057-0.294,0.216-0.456,0.108c-0.777-0.521-1.712-0.675-2.529-1.099
	c3.777-2.269,7.36-4.804,10.642-7.753c7.019-6.309,12.635-13.683,16.773-22.168c0.24-0.489,0.372-0.547,0.868-0.274
	c3.908,2.139,7.955,2.156,12.077,0.682c0.309-0.109,0.607-0.249,0.91-0.375C175.302,116.353,174.829,116.938,174.472,117.575z
	 M111.825,155.842c0.192,0.563,0.388,1.128,0.756,1.61c0.328,0.523,0.688,1.025,1.126,1.457c0.324,0.319,0.242,0.491-0.111,0.688
	c-1.42,0.789-2.855,1.545-4.491,1.78c-0.729,0.105-1.454,0.182-2.187-0.073c-1.67-0.582-2.788-1.743-3.574-3.279
	c-0.146-0.289-0.294-0.578-0.609-0.726l0,0c3.059-0.597,6.091-1.302,9.101-2.107c0.069-0.024,0.139-0.049,0.209-0.074
	c-0.07,0.025-0.14,0.05-0.209,0.074C111.672,155.405,111.755,155.634,111.825,155.842z M104.942,162.084
	c0.255,0.222,0.529,0.395,0.813,0.545C105.472,162.479,105.197,162.306,104.942,162.084c-0.214-0.248-0.373-0.561-0.743-0.619
	C104.569,161.523,104.73,161.836,104.942,162.084z M118.771,159.137c-1.496,0.241-2.89,0.063-4.099-1.004
	c-0.876-0.773-1.584-1.658-2.164-2.66c-0.079-0.181-0.202-0.314-0.391-0.38l0,0c1.388-0.431,2.774-0.859,4.162-1.289
	c0.047-0.025,0.094-0.05,0.143-0.071c3.301-1.197,6.563-2.491,9.659-4.153c2.423-1.301,4.977-2.331,7.38-3.669
	c0.233,0.431,0.695,0.55,1.073,0.774c1.994,1.186,3.677,2.678,4.771,4.762c0.854,1.606,1.306,3.334,1.56,5.146
	c-1.071-1.383-2.457-2.226-4.122-2.552c-1.613-0.316-3.233-0.169-4.827,0.214c-2.474,0.593-4.769,1.654-7.074,2.694
	C122.877,157.837,120.927,158.79,118.771,159.137z M120.224,160.453c-1.668,0.475-3.292,0.371-4.865-0.332
	c-0.104-0.047-0.195-0.076-0.28-0.092c0.085,0.016,0.177,0.046,0.279,0.092C116.932,160.824,118.556,160.928,120.224,160.453
	c1.441-0.41,2.832-0.949,4.206-1.532C123.056,159.504,121.665,160.043,120.224,160.453z M81.858,22.791
	c2.33-3.938,3.912-8.169,4.772-12.664c0.394-2.058,0.56-4.143,0.616-6.233c0.027-0.998-0.101-2.001-0.158-2.981
	c4.089,4.863,9.336,5.245,15.086,3.89c-0.412,0.925-0.832,1.962-1.328,2.962c-2.333,4.698-5.106,9.14-8.034,13.483
	c-2.444,3.627-5.049,7.137-8.032,10.352c-1.048,1.128-2.056,2.296-3.297,3.224c-1.13,1.254-2.526,2.187-3.847,3.21
	C76.392,39,75.023,39.775,73.7,40.619c-0.694,0.169-1.39,0.337-2.084,0.506c-0.395-0.063-0.202-0.4-0.238-0.594
	c-0.063-0.336-0.013-0.693-0.01-1.041c0.074-0.651,0.097-1.302-0.007-1.952c-0.041-0.968,0.053-1.919,0.351-2.844
	c0.053-0.511,0.253-0.915,0.689-1.236C76.316,30.579,79.395,26.95,81.858,22.791z M60.954,36.251
	c0.749-2.234,2.463-3.459,4.542-4.271c1.615-0.632,3.307-0.891,5.034-1.026c1.151-0.09,2.286-0.087,3.545,0.081
	c-0.522,0.472-0.842,1.015-1.499,1.269c-0.898,0.348-1.389,1.116-1.72,1.987c-0.5,1.316-0.688,2.692-0.753,4.089
	c0.007,1.033,0.013,2.066,0.019,3.1c-2.178,0.659-4.363,1.3-6.452,2.214c-0.938,0.409-1.871,0.834-2.805,1.252
	c-0.213-1.421-0.536-2.829-0.499-4.28c0.003-0.143,0.007-0.284,0.01-0.427C60.293,38.869,60.522,37.544,60.954,36.251z
	 M51.72,41.961c-1.822-0.706-3.555-1.596-5.241-2.574c-3.746-2.175-7.157-4.789-10.339-7.723c-2.42-2.23-4.696-4.593-6.822-7.103
	c-0.193-0.229-0.34-0.498-0.568-0.837c6.29,0.224,10.55-2.56,12.948-8.336c0.213,2.059,0.668,4.011,1.356,5.905
	c1.308,3.596,3.256,6.794,5.885,9.586c2.442,2.594,5.266,4.619,8.572,5.959c0.38,0.154,0.77,0.336,1.168,0.38
	c0.606,0.066,0.692,0.38,0.542,0.862c-0.12,0.384-0.064,0.775-0.108,1.162h0.001c-0.253,1.514,0.041,3,0.217,4.493
	c0.06,0.503-0.318,0.354-0.522,0.309c-1.154-0.25-2.31-0.502-3.448-0.815C54.12,42.889,52.898,42.485,51.72,41.961z M50.928,51.896
	c1.026-2.398,2.265-4.688,3.661-6.892c0.229-0.362,0.452-0.467,0.9-0.341c1.237,0.352,2.496,0.626,3.777,0.77
	c0.156,0.017,0.274,0.076,0.35,0.215c-3.378,1.882-6.323,4.298-8.881,7.192C50.45,52.459,50.811,52.172,50.928,51.896z
	 M76.965,168.889c-1.326,0.997-2.668,1.977-4.002,2.963c-0.799-0.493-1.047-1.328-1.225-2.151c-0.438-2.047,0.092-4.009,0.651-5.954
	c0.36-1.254,0.865-2.457,1.438-3.63c0.67,1.242,1.393,2.442,2.39,3.464c0.681,0.695,1.438,1.273,2.297,1.721
	c0.191,0.184,0.491,0.229,0.622,0.488c0.424,0.136,0.872,0.21,1.238,0.493C79.303,167.236,78.108,168.028,76.965,168.889z
	 M67.526,148.119c-2.51-2.883-3.546-6.276-3.604-10.038c-0.032-2,0.153-3.98,0.415-5.958c0.14-0.195,0.112-0.423,0.123-0.642
	c0.036-0.043,0.071-0.086,0.107-0.128c0.022-0.133-0.089-0.312,0.13-0.375c0.034,0.031,0.067,0.063,0.103,0.093
	c0.679,0.085,1.16,0.608,1.787,0.816c0.181,0.059,0.329,0.216,0.539,0.215c0.006-0.004,0.011-0.004,0.016-0.008
	c-0.325-0.643-0.855-1.134-1.271-1.708c-0.627-0.864-1.218-1.747-1.771-2.647c-0.567-1.182-1.295-2.599-2.13-4.167
	c-0.472-1.154-0.87-2.344-1.154-3.588c-0.648-2.833-0.801-5.651,0.403-8.4c0.289-0.663,0.645-1.296,1.146-1.814
	c0.379-0.391,0.326-0.612-0.066-0.966c-1.694-1.524-2.939-3.366-3.727-5.507c-0.112-0.305-0.238-0.614-0.187-0.952
	c0.12-0.074,0.146,0.033,0.172,0.092c2.055,4.632,5.691,7.531,10.27,9.418c1.87,0.771,3.771,1.399,5.802,1.556
	c0.914,0.07,1.774-0.167,2.657-0.598c-0.599,0.958-1.987,1.283-4.302,1.072c0,0,0,0,0,0.001c1.329,1.005,2.422,2.147,3.248,3.508
	c1.705,2.804,2.745,5.857,3.282,9.09c0.31,1.86,0.301,3.719-0.004,5.58c-0.233,1.44-0.76,2.724-1.884,3.709h-0.001
	c5.027,1.099,9.601,3.196,13.714,6.285c0.256,0.192,0.646,0.352,0.633,0.792c-0.065-0.046-0.13-0.088-0.193-0.135
	c0.044,0.066,0.087,0.134,0.121,0.209c0.095,0.181,0.216,0.362,0.442,0.331c0.271-0.039,0.283-0.289,0.318-0.504
	c-0.021-0.127-0.015-0.251-0.002-0.373c0.215-0.753,0.498-1.483,0.85-2.184c1.53-3.061,3.861-5.449,6.47-7.592
	c3.692-3.032,7.817-5.354,12.166-7.297c3.597-1.606,6.883-3.685,9.676-6.479c4.889-4.889,7.653-10.816,8.43-17.663
	c0.594-5.243-0.233-10.25-2.872-14.871c-2.261-3.962-5.289-7.209-9.672-8.748c-7.426-2.609-14.431-1.688-20.828,3.053
	c-1.486,1.102-2.871,2.328-4.282,3.522c-0.033-0.045-0.103-0.115-0.094-0.131c1.056-1.523,1.696-3.275,2.678-4.842
	c2.488-3.966,5.516-7.425,9.478-9.973c1.647-1.059,3.4-1.918,5.475-1.72c0.568,0.055,0.778-0.356,0.481-0.839
	c-0.107-0.174-0.236-0.338-0.372-0.491c-1.764-1.972-3.867-3.497-6.255-4.615c-1.299-0.609-2.673-0.974-4.124-0.69
	c-2.271,0.442-3.91,1.815-5.226,3.639c-1.571,2.174-2.211,4.695-2.661,7.275c-0.511,2.932-0.686,5.917-1.36,8.826
	c-0.44,1.903-0.907,3.793-1.887,5.509c-0.606,1.065-1.45,1.826-2.681,2.092c-0.286,0.011-0.584-0.066-0.847,0.114
	c0.546,0.627,1.273,0.458,1.96,0.433c0.536-0.02,0.994-0.342,1.513-0.434c-0.107,0.147-0.209,0.302-0.325,0.443
	c-3.184,3.916-5.867,8.146-7.952,12.745c-0.743,1.639-1.423,3.306-1.892,5.047c-0.094,0.247-0.19,0.493-0.284,0.742
	c-0.067,0.062-0.141,0.062-0.218,0.022c-0.049-0.049-0.082-0.112-0.124-0.168c-0.221-0.474-0.479-0.928-0.761-1.367
	c-3.329-5.192-7.893-8.965-13.455-11.546c-2.985-1.385-6.111-2.304-9.452-2.087c-3.028,0.197-5.239,1.63-6.394,4.511
	c-0.399,0.999-0.563,2.053-0.669,3.117c-0.822-1.784-1.383-3.664-1.95-5.536c-0.517-1.703-1.011-3.415-1.278-5.182
	c0.246-0.741,0.488-1.486,0.907-2.149c1.148-1.825,3.639-2.545,5.723-1.636c2.545,1.11,4.8,2.677,6.895,4.484
	c0.627,0.541,1.249,1.089,1.884,1.643c0.088-0.167,0.032-0.253-0.013-0.347c-1.881-3.974-4.192-7.677-6.993-11.066
	c-0.978-1.184-2.175-2.126-3.604-2.731c-1.326-0.561-2.643-0.665-3.976,0.047c-0.677,0.36-1.285,0.801-1.887,1.263
	c0.021-3.745,0.652-7.398,1.637-10.998c0.178-0.654,0.44-1.286,0.577-1.946c0.237-1.133,0.961-1.873,1.853-2.501
	c3.189-2.24,6.505-2.198,9.906-0.543c2.324,1.131,4.243,2.802,6.07,4.589c0.763,0.747,1.502,1.521,2.224,2.31
	c0.36,0.392,0.604,0.425,0.966-0.015c1.935-2.348,3.924-4.647,6.079-6.802c5.376-5.372,11.349-9.924,18.262-13.146
	c5.285-2.463,10.877-3.768,16.685-4.182c0.307-0.021,0.614-0.048,0.921-0.08c1.352-0.141,2.602,0.099,3.877,0.646
	c8.716,3.746,16.572,8.846,23.837,14.903c4.444,3.706,8.605,7.7,12.513,11.97c1.135,1.241,1.641,2.739,2.091,4.265
	c1.133,3.845,1.346,7.789,1.165,11.776c-0.441,9.714-4.354,18.091-9.913,25.833c-2.381,3.314-5.105,6.334-8.1,9.106
	c-0.133,0.123-0.286,0.225-0.54,0.423c0.564,0.071,0.957,0.12,1.35,0.17c0.872,0.235,1.725,0.518,2.57,0.84
	c2.091,0.798,3.093,2.413,3.48,4.495c0.374,2.014,0.042,3.948-0.672,5.859c-1.662,4.446-4.776,7.666-8.604,10.273
	c-4.84,3.296-10.172,5.573-15.692,7.436c-5.541,1.867-11.216,3.184-17.017,3.912c-5.871,0.738-11.729,0.771-17.493-0.829
	C75.662,154.834,71.122,152.251,67.526,148.119z M103.978,87.682c-0.018-0.206-0.009-0.414,0.009-0.625
	c-0.001,0-0.001-0.001-0.001-0.001c-0.056,0.053-0.032-0.085-0.006-0.008c0.004,0.001,0.003,0.007,0.006,0.008h0.001
	c0.008-0.098,0.015-0.195,0.026-0.294c0.344,0.807,0.451,1.669,0.546,2.528c0.23,2.094,0.248,4.187-0.114,6.266
	c-0.09,0.514,0.234,0.52,0.553,0.579c3.688,0.69,6.567,2.646,8.667,5.71c1.633,2.383,2.596,5.071,3.232,7.88
	c0.675,2.979,0.909,6.002,0.934,9.047c0.007,0.815-0.051,1.632-0.078,2.448c0.006,0.003,0.011,0.001,0.016,0.005
	c-0.005,0.002-0.011,0.006-0.017,0.009c-0.166-0.036-0.258,0.101-0.38,0.166c-1.84,1.324-3.838,2.377-5.886,3.335
	c-2.684,1.253-5.319,2.585-7.756,4.284c-0.071,0.06-0.112,0.141-0.152,0.222c-2.181-0.838-4.083-2.098-5.71-3.772
	c-2.095-2.156-3.288-4.797-4.03-7.658c-0.61-2.358-0.859-4.763-0.651-7.198c0.041-0.48-0.107-0.561-0.542-0.455
	c-1.146,0.273-2.313,0.322-3.485,0.2c-0.219-0.023-0.433-0.087-0.646-0.173c1.021-0.156,2.051-0.163,3.061-0.347
	c2.339-0.426,4.29-1.604,6.07-3.111c3.437-2.913,5.231-6.727,6.06-11.07C104.207,93.011,104.213,90.352,103.978,87.682z
	 M86.85,158.182c-0.273-0.023-0.544-0.047-0.815-0.07c-0.274,0.003-0.435,0.2-0.61,0.367c0.176-0.167,0.335-0.364,0.61-0.368
	C86.306,158.135,86.577,158.158,86.85,158.182z M83.121,162.203c0.173-0.571,0.407-1.113,0.689-1.629
	C83.528,161.09,83.294,161.632,83.121,162.203z M84.332,163.725c0.063-0.292,0.147-0.538,0.242-0.781
	c0.557-1.422,1.299-2.746,2.104-4.039c0.133-0.214,0.372-0.408,0.24-0.718c5.038,0.457,10.03,0.075,15.001-0.775
	c0.101-0.017,0.204-0.009,0.307-0.012c-0.143,0.309-0.021,0.605,0.062,0.898c0.222,0.797,0.534,1.555,1.033,2.224
	c0.264,0.355,0.203,0.592-0.221,0.741c-0.62,0.219-1.236,0.443-1.894,0.536c-2.159,0.304-4.307,0.117-6.442-0.198
	C91.044,161.053,87.524,161.421,84.332,163.725z M98.559,163.504c-1.732,0.084-3.44-0.159-5.147-0.387
	C95.119,163.344,96.827,163.588,98.559,163.504c1.57-0.074,3.11-0.281,4.519-1.039C101.67,163.223,100.129,163.43,98.559,163.504z
	 M117.967,178.398c-1.263,0.866-2.687,0.861-4.103,0.692c-4.499-0.54-7.617-3.014-9.594-7.019c-0.189-0.382-0.332-0.8-0.42-1.218
	c-0.351-1.664,0.356-2.943,1.946-3.593c0.634-0.259,1.301-0.372,1.968-0.491c1.489,1.297,3.053,2.483,4.803,3.419
	c1.739,0.929,3.495,1.814,5.376,2.429c0.214,0.07,0.424,0.148,0.57,0.334c0.522,0.799,0.942,1.633,0.992,2.614
	C119.568,176.827,118.966,177.713,117.967,178.398z M156.946,178.902c-1.245,1.618-2.961,2.495-4.906,2.951
	c-2.002,0.47-3.993,0.462-5.915-0.358c-3.411-1.455-3.993-4.88-1.274-7.402c0.105-0.097,0.213-0.191,0.32-0.287
	c0.762-0.395,1.613-0.378,2.429-0.533c1.783-0.34,3.554-0.734,5.286-1.286c0.207-0.066,0.42-0.173,0.655-0.116
	c0.869,0.229,1.715,0.51,2.463,1.031C158.143,174.393,158.539,176.831,156.946,178.902z M160.47,136.245
	c-0.543,2.278-1.568,4.351-2.769,6.338c-2.315,3.835-5.136,7.281-8.233,10.504c-2.464,2.563-4.971,5.093-7.893,7.145
	c-7.358,5.168-15.478,8.562-24.301,10.275c-0.403,0.078-0.805,0.166-1.206,0.249c-2.239-0.932-4.443-1.929-6.342-3.479
	c0.247-0.237,0.576-0.207,0.872-0.237c2.831-0.292,5.404-1.31,7.881-2.666c3.635-1.993,7-4.369,10.206-6.985
	c0.224-0.183,0.428-0.392,0.654-0.57c-1.208,0.436-2.367,0.986-3.54,1.506c1.313-0.582,2.605-1.211,3.973-1.664
	c1.498-0.657,3.06-1.118,4.682-1.286c2.733-0.284,4.978,0.579,6.488,2.991c0.044,0.069,0.088,0.139,0.142,0.201
	c0.323,0.377,0.569,0.332,0.754-0.144c0.073-0.19,0.107-0.395,0.148-0.597c0.213-1.062,0.178-2.122,0.016-3.188
	c-0.326-2.156-1.064-4.128-2.47-5.829c-0.548-0.664-1.193-1.224-1.834-1.774c0.095-0.2,0.257-0.189,0.388-0.224
	c4.494-1.172,8.77-2.919,12.939-4.939c2.795-1.354,5.491-2.893,8.103-4.575C159.604,136.991,160.151,136.759,160.47,136.245
	C160.471,136.244,160.47,136.244,160.47,136.245z M180.099,143.834c1.949-0.383,3.911-0.65,5.901-0.643
	c0.676,0.003,1.352,0.003,2.027,0.018c0.216,0.006,0.455-0.062,0.638,0.131c-0.988,1.803-2.621,2.46-4.561,2.524
	c-1.649,0.055-3.196-0.234-4.379-1.537C179.524,143.915,179.843,143.884,180.099,143.834z M179.712,154.857
	c2.492,0.391,3.882,2.39,3.6,5.088c-0.428,4.1-4.863,8.083-8.99,8.073c-2.996-0.007-4.896-2.25-4.406-5.207
	c0.053-0.323,0.126-0.643,0.19-0.965c1.211-1.305,2.48-2.559,3.559-3.982c0.357-0.475,0.719-0.946,1.053-1.438
	c0.198-0.291,0.416-0.551,0.711-0.744C176.781,155.017,178.201,154.619,179.712,154.857z M177.652,92.224
	c-2.603,0.971-5.023,2.237-7.14,4.079c-1.455,1.268-2.549,2.799-3.576,4.396c-0.176,0.271-0.274,0.591-0.409,0.889
	c-0.281,0.516-0.563,1.031-0.869,1.593c-0.146-1.446,1.475-4.616,3.335-6.546c2.711-2.81,5.999-4.523,9.897-4.989
	C178.534,91.961,178.093,92.093,177.652,92.224z M217.873,111.104c-0.671,1.9-1.58,3.691-2.574,5.442
	c-2.133,0.933-4.341,1.591-6.658,1.858c-0.475,0.235-1.011,0.171-1.499,0.199c-3.506,0.204-6.892-0.348-10.13-1.758
	c-1.459-0.633-2.844-1.376-4.01-2.463c-0.98-0.911-1.784-1.977-2.44-3.142c-1.403-2.489-2.215-5.182-2.663-7.994
	c-0.068-0.423,0.205-0.912-0.232-1.268c0.395-1.121,0.754-2.255,0.963-3.429c0.044-0.249,0.185-0.403,0.341-0.564
	c2.4-2.488,5.16-4.496,8.19-6.148c2.568-1.401,5.229-2.568,8.088-3.24c2.395-0.563,4.801-0.754,7.252-0.354
	c2.893,0.472,4.767,2.139,5.846,4.79c0.316,0.777,0.631,1.56,0.793,2.39c0.372,1.089,0.507,2.224,0.598,3.358
	C220.075,103.032,219.281,107.118,217.873,111.104z"/>
</svg>
