<?xml version="1.0" encoding="utf-8"?>
<!-- Generator: Adobe Illustrator 17.0.0, SVG Export Plug-In . SVG Version: 6.00 Build 0)  -->
<!DOCTYPE svg PUBLIC "-//W3C//DTD SVG 1.1//EN" "http://www.w3.org/Graphics/SVG/1.1/DTD/svg11.dtd">
<svg version="1.1" id="图层_1" xmlns="http://www.w3.org/2000/svg" xmlns:xlink="http://www.w3.org/1999/xlink" x="0px" y="0px"
	 width="1188.99px" height="268.753px" viewBox="0 0 1188.99 268.753" enable-background="new 0 0 1188.99 268.753"
	 xml:space="preserve">
<path fill="#FF6464" d="M1188.991,157.676v-27.63h-116.628V27.626h116.627V0H922.828v10.061v17.565v102.42v13.816v13.814h116.632
	v83.449h-21.992v-44.457v-27.63h-32.906h-28.829h-32.905v27.63v44.457h-40.189V215.23v-27.626h-32.905h-86.206v-27.143h86.206
	h32.905v-27.627V41.442V18.479v-4.665H763.528V0.933h-32.901v12.881h-31.766v27.629h31.766v91.393h-31.766v27.627h31.766V268.75
	h32.901v-53.52h86.206v25.895v24.603v3.021h105.999v-21.582v-6.042v-44.457h28.829v44.457v6.042v21.582h142.695v-21.582v-6.042
	v-44.457h28.836v72.085h32.898v-72.085v-27.63h-32.898h-28.836h-32.898v27.63v44.457h-21.996v-83.449H1188.991z M1039.459,130.046
	h-83.727V27.626h83.727V130.046z M763.528,41.442h86.206v91.393h-86.206V41.442z M443.46,238.823h212.719v29.93H365.876v-29.93
	h44.679v-93.106h-44.679v-27.629h44.679V28.563h-44.679V0.933h75.879v1.532h1.705V238.823z M659.56,0.933h32.898v267.82H659.56
	v-64.317h-46.635h-32.901v-27.628V28.563h-31.049v87.67h19.136v27.629h-19.136v57.337h19.136v27.632h-64.697h-26.321h-6.585V59.444
	h32.906v141.755h12.663V28.563h-66.512V0.933h66.512h32.898h63.95v0.976v26.654v148.245h46.635V0.933z M333.387,0.933h-32.901
	v18.418h-25.76v29.162h51.633v190.311H156.502v-36.062h106.712v-32.766l14.71-25.27L173.879,84.158l92.405-53.3V0.933H12.277v29.926
	l91.969,53.187L0,144.726l13.232,22.735h-0.955v35.3h111.32v36.062H10.742v29.93h348.401v-14.967v-14.963V48.513V19.351h-25.756
	V0.933z M82.324,30.858H195.6l-56.638,32.97L82.324,30.858z M123.597,167.461h-94.14l109.66-63.254l109.38,63.254h-91.994v-37.134
	h-32.906V167.461z"/>
</svg>
