<?xml version="1.0" encoding="utf-8"?>
<!-- Generator: Adobe Illustrator 17.0.0, SVG Export Plug-In . SVG Version: 6.00 Build 0)  -->
<!DOCTYPE svg PUBLIC "-//W3C//DTD SVG 1.1//EN" "http://www.w3.org/Graphics/SVG/1.1/DTD/svg11.dtd">
<svg version="1.1" id="图层_1" xmlns="http://www.w3.org/2000/svg" xmlns:xlink="http://www.w3.org/1999/xlink" x="0px" y="0px"
	 width="63.999px" height="54.856px" viewBox="2 8.572 63.999 54.856" enable-background="new 2 8.572 63.999 54.856"
	 xml:space="preserve">
<g>
	<path fill="#08A1EF" d="M41.803,62.089l22.857-22.857c1.785-1.785,1.785-4.679,0-6.464L41.803,9.911
		c-1.785-1.785-4.679-1.785-6.464,0c-1.785,1.785-1.785,4.679,0,6.464l15.054,15.054H6.571C4.046,31.429,2,33.474,2,36
		c0,2.526,2.046,4.571,4.571,4.571h43.822L35.339,55.625C34.448,56.517,34,57.687,34,58.857s0.446,2.341,1.339,3.232
		C37.125,63.874,40.018,63.874,41.803,62.089z"/>
</g>
</svg>
