<?xml version="1.0" encoding="utf-8"?>
<!-- Generator: Adobe Illustrator 17.0.0, SVG Export Plug-In . SVG Version: 6.00 Build 0)  -->
<!DOCTYPE svg PUBLIC "-//W3C//DTD SVG 1.1//EN" "http://www.w3.org/Graphics/SVG/1.1/DTD/svg11.dtd">
<svg version="1.1" id="图层_1" xmlns="http://www.w3.org/2000/svg" xmlns:xlink="http://www.w3.org/1999/xlink" x="0px" y="0px"
	 width="34px" height="24.75px" viewBox="0 0 34 24.75" enable-background="new 0 0 34 24.75" xml:space="preserve">
<path fill="#E20000" d="M33.738,1.184c-0.03-0.056-0.064-0.111-0.099-0.164c-0.004-0.006-0.008-0.014-0.012-0.021
	c-0.006-0.007-0.012-0.014-0.017-0.022c-0.031-0.045-0.064-0.089-0.098-0.131C33.506,0.838,33.5,0.83,33.494,0.823
	c-0.04-0.048-0.081-0.094-0.125-0.138c-0.005-0.005-0.009-0.011-0.014-0.016c-0.008-0.008-0.017-0.014-0.024-0.022
	c-0.036-0.035-0.073-0.068-0.111-0.101c-0.011-0.009-0.022-0.019-0.034-0.029c-0.047-0.039-0.096-0.075-0.147-0.11
	c-0.005-0.004-0.009-0.008-0.014-0.011c-0.01-0.006-0.02-0.012-0.03-0.018c-0.04-0.026-0.081-0.052-0.124-0.075
	c-0.015-0.009-0.031-0.018-0.047-0.027c-0.054-0.029-0.109-0.056-0.165-0.08c-0.005-0.002-0.008-0.004-0.013-0.006
	c-0.01-0.004-0.022-0.008-0.032-0.012c-0.046-0.019-0.092-0.036-0.139-0.051c-0.019-0.006-0.038-0.012-0.057-0.018
	c-0.059-0.018-0.12-0.034-0.182-0.047c-0.003-0.001-0.005-0.002-0.008-0.002c-0.01-0.002-0.02-0.003-0.03-0.005
	c-0.052-0.01-0.105-0.018-0.158-0.024c-0.021-0.002-0.042-0.005-0.063-0.007c-0.06-0.005-0.121-0.008-0.182-0.009
	c-0.006,0-0.011-0.001-0.016-0.001l0,0h-0.101l-0.001,0.001L30.24,1.067l-0.106,0.078l-13.015,9.529L3.873,0.975l-1.312-0.96V0.014
	H2.228c-0.955,0-1.766,0.603-2.084,1.449C0.053,1.708,0,1.972,0,2.249v20.264c0,0.002,0,0.005,0,0.007
	c0.001,0.066,0.004,0.131,0.01,0.195c0.002,0.02,0.004,0.04,0.007,0.06c0.006,0.05,0.013,0.099,0.022,0.148
	c0.004,0.018,0.006,0.037,0.01,0.056c0.012,0.055,0.026,0.11,0.042,0.164c0.001,0.002,0.001,0.004,0.002,0.006
	c0.011,0.036,0.023,0.07,0.035,0.104c0.01,0.029,0.02,0.059,0.032,0.087c0.012,0.032,0.026,0.063,0.04,0.095
	c0.014,0.03,0.028,0.06,0.044,0.089c0.014,0.029,0.029,0.057,0.044,0.085c0.019,0.033,0.039,0.065,0.059,0.097
	c0.015,0.023,0.029,0.047,0.044,0.07c0.036,0.052,0.073,0.102,0.113,0.151c0.012,0.015,0.025,0.028,0.037,0.042
	c0.031,0.036,0.063,0.072,0.096,0.105c0.017,0.018,0.035,0.035,0.053,0.053c0.03,0.028,0.061,0.056,0.092,0.083
	c0.02,0.017,0.04,0.034,0.06,0.05c0.033,0.026,0.067,0.051,0.101,0.076c0.02,0.014,0.04,0.028,0.06,0.041
	c0.042,0.028,0.085,0.054,0.128,0.079c0.014,0.008,0.028,0.016,0.042,0.024c0.057,0.031,0.116,0.059,0.176,0.085
	c0.02,0.009,0.039,0.015,0.059,0.023c0.042,0.017,0.085,0.033,0.129,0.048c0.025,0.008,0.051,0.015,0.076,0.022
	c0.04,0.012,0.08,0.022,0.121,0.031c0.027,0.007,0.054,0.012,0.082,0.018c0.042,0.008,0.084,0.014,0.127,0.019
	c0.026,0.003,0.052,0.008,0.078,0.01c0.059,0.005,0.118,0.008,0.178,0.009c0.01,0,0.019,0.001,0.029,0.001h1.645V6.295l9.614,7.039
	l3.16,2.314l0,0l0,0l0,0l0.032,0.024l0.55,0.403l0,0h0.001l2.238-1.639l1.395-1.021l7.114-5.209l2.157-1.579v18.119h1.645
	c0.01,0,0.02-0.001,0.03-0.001c0.059-0.001,0.118-0.004,0.177-0.009c0.016-0.002,0.033-0.004,0.049-0.006
	c0.007-0.001,0.013-0.002,0.019-0.003c0.004,0,0.007-0.001,0.01-0.001c0.043-0.005,0.085-0.011,0.127-0.019
	c0.002-0.001,0.003-0.001,0.005-0.001c0.012-0.003,0.025-0.006,0.037-0.008c0.014-0.003,0.027-0.006,0.04-0.009
	c0.041-0.009,0.081-0.019,0.12-0.031c0.026-0.007,0.052-0.014,0.077-0.022c0.044-0.015,0.087-0.031,0.129-0.048
	c0.003-0.001,0.005-0.002,0.008-0.003c0.016-0.007,0.033-0.012,0.049-0.019c0,0,0.001,0,0.002-0.001
	c0.06-0.026,0.119-0.054,0.176-0.085c0.015-0.008,0.028-0.017,0.043-0.025c0.043-0.025,0.086-0.05,0.127-0.078
	c0.021-0.013,0.04-0.028,0.06-0.042c0.034-0.024,0.068-0.049,0.101-0.075c0,0,0-0.001,0.001-0.001
	c0.019-0.016,0.039-0.032,0.058-0.048l0.001-0.001c0.031-0.027,0.061-0.054,0.091-0.083c0.009-0.008,0.017-0.017,0.026-0.025
	c0.01-0.009,0.019-0.018,0.028-0.027c0.001-0.001,0.001-0.001,0.001-0.001c0.032-0.033,0.063-0.068,0.093-0.103
	c0.002-0.003,0.005-0.005,0.007-0.008c0.011-0.012,0.022-0.023,0.032-0.036l0,0c0.04-0.049,0.077-0.099,0.113-0.151v-0.001
	c0.016-0.022,0.029-0.045,0.044-0.068c0-0.001,0.001-0.002,0.001-0.003c0.02-0.031,0.039-0.062,0.057-0.094
	c0.001,0,0.001-0.001,0.001-0.001c0.003-0.005,0.005-0.009,0.007-0.013c0.013-0.024,0.026-0.048,0.038-0.073
	c0.015-0.029,0.029-0.058,0.042-0.087c0.015-0.032,0.029-0.064,0.042-0.097c0.011-0.027,0.02-0.055,0.03-0.084
	c0.004-0.01,0.007-0.021,0.011-0.032c0.009-0.024,0.017-0.048,0.025-0.072c0-0.001,0-0.002,0-0.002
	c0.001-0.002,0.002-0.004,0.002-0.006c0.016-0.054,0.03-0.108,0.042-0.163c0-0.001,0-0.002,0-0.003
	c0.004-0.017,0.006-0.034,0.009-0.05c0.001-0.002,0.001-0.004,0.001-0.006c0.009-0.048,0.017-0.096,0.022-0.145
	c0.003-0.021,0.005-0.041,0.007-0.062c0.006-0.063,0.009-0.126,0.01-0.19c0-0.004,0-0.008,0-0.011V3.791V2.937V2.249
	C34.007,1.863,33.91,1.5,33.738,1.184z"/>
</svg>
