<?xml version="1.0" encoding="utf-8"?>
<!-- Generator: Adobe Illustrator 17.0.0, SVG Export Plug-In . SVG Version: 6.00 Build 0)  -->
<!DOCTYPE svg PUBLIC "-//W3C//DTD SVG 1.1//EN" "http://www.w3.org/Graphics/SVG/1.1/DTD/svg11.dtd">
<svg version="1.1" id="图层_1" xmlns="http://www.w3.org/2000/svg" xmlns:xlink="http://www.w3.org/1999/xlink" x="0px" y="0px"
	 width="470.667px" height="470.667px" viewBox="0 0 470.667 470.667" enable-background="new 0 0 470.667 470.667"
	 xml:space="preserve">
<path fill="#FFFFFF" d="M470.667,237.755h-0.031c-1.301,128.853-106.142,232.912-235.302,232.912
	C105.361,470.667,0,365.305,0,235.334h234.52c1.146-72.384,53.559-130.667,118.063-130.667c64.495,0,116.91,58.284,118.057,130.667
	h0.027c0,0.381-0.013,0.758-0.014,1.138C470.656,236.9,470.667,237.326,470.667,237.755z M136.992,233.55
	c0,10.949-8.874,19.828-19.825,19.828c-10.952,0-19.831-8.879-19.831-19.828c0-10.951,8.879-19.828,19.831-19.828
	C128.118,213.722,136.992,222.599,136.992,233.55z"/>
<path fill="#08A1EF" d="M372.408,233.55c0,10.949-8.874,19.828-19.825,19.828c-10.952,0-19.831-8.879-19.831-19.828
	c0-10.951,8.879-19.828,19.831-19.828C363.534,213.722,372.408,222.599,372.408,233.55z M470.667,235.334
	c0-64.625-52.871-117.016-118.084-117.016c-65.222,0-118.09,52.391-118.09,117.016h0.065
	c-0.977,62.463-53.101,112.811-117.267,112.811C53.121,348.146,1,297.798,0.023,235.334H0c0-0.302,0.01-0.601,0.011-0.903
	C0.009,234.137,0,233.845,0,233.55h0.023C0.984,104.403,105.957,0,235.334,0C365.304,0,470.667,105.364,470.667,235.334z
	 M136.992,233.55c0-10.951-8.874-19.828-19.825-19.828c-10.952,0-19.831,8.877-19.831,19.828c0,10.949,8.879,19.828,19.831,19.828
	C128.118,253.378,136.992,244.499,136.992,233.55z"/>
</svg>
