<?xml version="1.0" encoding="utf-8"?>
<!-- Generator: Adobe Illustrator 17.0.0, SVG Export Plug-In . SVG Version: 6.00 Build 0)  -->
<!DOCTYPE svg PUBLIC "-//W3C//DTD SVG 1.1//EN" "http://www.w3.org/Graphics/SVG/1.1/DTD/svg11.dtd">
<svg version="1.1" id="图层_1" xmlns="http://www.w3.org/2000/svg" xmlns:xlink="http://www.w3.org/1999/xlink" x="0px" y="0px"
	 width="24.156px" height="34.03px" viewBox="0 0 24.156 34.03" enable-background="new 0 0 24.156 34.03" xml:space="preserve">
<path fill="#FF486B" d="M21.049,0.008c0,0-15.391,0-17.855,0S0.006,1.872,0.006,3.046s0,28.536,0,28.536
	C0.006,32.904,0.603,33.838,1,34s1.344-0.238,2-1c0,0,8.688-9.746,8.832-9.892c0.219-0.22,0.219-0.22,0.438-0.22
	C12.708,22.888,15.233,23,17,23c2.292,0,3.761-2.032,4-3c0.199-0.811,2.253-11.347,3-15C24.57,2.212,23.671,0.008,21.049,0.008z
	 M21,20c0.485-2.237,2.253-11.347,3-15 M20,5l-1,4c-0.09,0.425-0.507,1-1,1s-7,0-7,0c-0.783,0-1,0.213-1,1v1c0,0.787,0.217,1,1,1
	c0,0,5.448,0,6,0c1.292-0.148,1.12,1.406,1,2s-0.625,2.937-0.692,3.262C17.24,18.587,16.657,19,16,19c-0.554,0-4,0-4,0
	c-0.877,0-1.747,0.258-2.334,0.992C9.079,20.726,4,27,4,27c-0.053,0.062,0,0.067,0,0V5c0-0.502,0.349-1,1-1c0,0,13.441,0,14,0
	C19.527,4,20.135,4.349,20,5z"/>
</svg>
