<?xml version="1.0" encoding="utf-8"?>
<!-- Generator: Adobe Illustrator 17.0.0, SVG Export Plug-In . SVG Version: 6.00 Build 0)  -->
<!DOCTYPE svg PUBLIC "-//W3C//DTD SVG 1.1//EN" "http://www.w3.org/Graphics/SVG/1.1/DTD/svg11.dtd">
<svg version="1.1" id="图层_1" xmlns="http://www.w3.org/2000/svg" xmlns:xlink="http://www.w3.org/1999/xlink" x="0px" y="0px"
	 width="33.125px" height="25.09px" viewBox="0 0 33.125 25.09" enable-background="new 0 0 33.125 25.09" xml:space="preserve">
<path fill="#FF7300" d="M28,13v5c0,0.96-1.032,2-2,2c-0.967,0-2-1.04-2-2v-5l-3,2l-3-2v5c0.035,4.028,3.646,7.087,7.711,7.087
	c4.088,0,7.403-3.29,7.403-7.348C33.114,17.686,33,13,33,13H28z M18,9l3,2l3.034-1.669V7.195c-0.119-3.953-3.465-7.21-7.477-7.21
	c-3.998,0-7.245,3.147-7.387,7.082V17.68C9.17,18.639,7.967,20,7,20c-0.968,0-2-1.04-2-2v-5l-5,0.07c0,0,0,4.616,0,4.669
	c0,4.058,3.314,7.348,7.403,7.348c4.051,0,7.337-3.234,7.393-7.242L15,7c0-0.96,0.59-1.377,1.557-1.377C18.108,5.623,18,7.04,18,8V9
	z"/>
</svg>
