<?xml version="1.0" encoding="iso-8859-1"?>
<!-- Generator: Adobe Illustrator 17.0.0, SVG Export Plug-In . SVG Version: 6.00 Build 0)  -->
<!DOCTYPE svg PUBLIC "-//W3C//DTD SVG 1.1//EN" "http://www.w3.org/Graphics/SVG/1.1/DTD/svg11.dtd">
<svg version="1.1" id="object" xmlns="http://www.w3.org/2000/svg" xmlns:xlink="http://www.w3.org/1999/xlink" x="0px" y="0px"
	 width="198.199px" height="198.199px" viewBox="0 0 198.199 198.199" style="enable-background:new 0 0 198.199 198.199;"
	 xml:space="preserve">
<g>
	<g>
		<circle style="fill:#00976F;" cx="99.1" cy="99.1" r="99.1"/>
		<g>
			<defs>
				<circle id="SVGID_3_" cx="99.1" cy="99.1" r="99.1"/>
			</defs>
			<clipPath id="SVGID_2_">
				<use xlink:href="#SVGID_3_"  style="overflow:visible;"/>
			</clipPath>
			<g style="clip-path:url(#SVGID_2_);">
				<circle style="fill:#FF5F2C;" cx="140.414" cy="83.151" r="9.619"/>
				<circle style="fill:#FF5F2C;" cx="61.559" cy="84.343" r="9.619"/>
				<path style="fill:#FFC78C;" d="M117.725,128.89c10.416-5.366,18.586-15.437,22.411-27.1c0.558,0.214,1.14,0.341,1.741,0.341
					c3.862,0,6.992-4.695,6.992-10.487c0-5.684-3.016-10.3-6.776-10.471c-2.851-20.666-20.141-36.563-41.053-36.563
					c-20.952,0-38.265,15.955-41.067,36.675c-0.341-0.076-0.687-0.128-1.042-0.128c-3.861,0-6.991,4.695-6.991,10.487
					s3.13,10.487,6.991,10.487c1.011,0,1.968-0.328,2.835-0.906c3.707,11.783,11.841,22.002,22.271,27.495v15.188
					c-19.695,2.745-20.631,4.226-20.631,4.226l1.722,5.504l35.752,19.681l39.09-19.681c0,0-0.77-6.307-22.245-9.605V128.89z"/>
				<path style="fill:#585659;" d="M123.187,144.975c0,0-7.886,13.592-24.087,13.793c-16.202-0.201-24.088-13.793-24.088-13.793
					c-29.556,0-48.306,34.641-48.306,34.641l68.128,42.086l76.658-42.086C171.492,179.615,152.742,144.975,123.187,144.975z"/>
				<path style="fill:#FBFEFD;" d="M75.012,144.975c0,0,9.071,20.141,10.979,20.379c1.907,0.238,9.435-6.871,9.435-6.871
					L75.012,144.975z"/>
				<path style="fill:#FBFEFD;" d="M123.187,144.975c0,0-8.578,20.141-10.484,20.379c-1.907,0.238-9.012-7.019-9.012-7.019
					L123.187,144.975z"/>
				<g>
					<path style="fill:#FF5F2C;" d="M128.174,71.68c0,5.815,4.305,10.535,9.617,10.535s9.62-4.72,9.62-10.535
						c0-5.819-4.308-10.534-9.62-10.534S128.174,65.86,128.174,71.68z"/>
					<ellipse style="fill:#FF5F2C;" cx="65.375" cy="73.572" rx="9.619" ry="10.533"/>
					<ellipse style="fill:#FF5F2C;" cx="66.306" cy="58.19" rx="9.618" ry="10.534"/>
					<ellipse style="fill:#FF5F2C;" cx="96.394" cy="34.356" rx="9.62" ry="10.536"/>
					<ellipse style="fill:#FF5F2C;" cx="83.054" cy="38.713" rx="9.619" ry="10.534"/>
					<ellipse style="fill:#FF5F2C;" cx="73.434" cy="47.656" rx="9.62" ry="10.534"/>
					<ellipse style="fill:#FF5F2C;" cx="103.015" cy="49.247" rx="23.952" ry="10.534"/>
					<ellipse style="fill:#FF5F2C;" cx="113.712" cy="35.257" rx="9.62" ry="10.533"/>
					<ellipse style="fill:#FF5F2C;" cx="135.248" cy="56.325" rx="9.619" ry="10.533"/>
					<path style="fill:#FF5F2C;" d="M116.01,44.893c0,5.817,4.308,10.533,9.619,10.533c5.312,0,9.619-4.716,9.619-10.533
						c0-5.82-4.307-10.536-9.619-10.536C120.317,34.356,116.01,39.072,116.01,44.893z"/>
					<ellipse style="fill:#FF5F2C;" cx="121.908" cy="65.574" rx="13.34" ry="14.608"/>
					<ellipse style="fill:#FF5F2C;" cx="81.494" cy="66.858" rx="13.34" ry="14.612"/>
					<ellipse style="fill:#FF5F2C;" cx="100.552" cy="65.574" rx="13.34" ry="14.608"/>
				</g>
			</g>
		</g>
	</g>
</g>
</svg>
