<?xml version="1.0" encoding="utf-8"?>
<!-- Generator: Adobe Illustrator 17.0.0, SVG Export Plug-In . SVG Version: 6.00 Build 0)  -->
<!DOCTYPE svg PUBLIC "-//W3C//DTD SVG 1.1//EN" "http://www.w3.org/Graphics/SVG/1.1/DTD/svg11.dtd">
<svg version="1.1" id="图层_1" xmlns="http://www.w3.org/2000/svg" xmlns:xlink="http://www.w3.org/1999/xlink" x="0px" y="0px"
	 width="86.251px" height="135.543px" viewBox="0 0 86.251 135.543" enable-background="new 0 0 86.251 135.543"
	 xml:space="preserve">
<path fill="#DF4F44" d="M78.003,53.164c-6.539-5.188-20.475-23.605-27.557-33.209c-3,3.749-10.114,7.468-15.641,13.355
	c-6.537,6.965-9.389,13.141-15.429,17.308c3.117,2.95,22.192,21.198,21.985,25.629c-0.225,4.823-9.219,21.343-11.139,34.308
	c-1.918,12.963,18.494,39.401,33.012,15.042c14.517-24.359,15.341-39.44,20.231-46.03C88.359,72.979,86.968,60.274,78.003,53.164"/>
<path fill="#FFFFFF" d="M50.448,19.955c0.968-1.205,1.523-2.41,1.449-3.696C51.584,10.978,43.111-1.375,36.72,0.125
	c-6.39,1.5-11.471,9.504-20.418,18.012C7.357,26.644-0.755,29.179,0.056,35.724c0.812,6.544,9.401,20.39,17.088,16.285
	c0.808-0.433,1.523-0.904,2.232-1.392c6.04-4.166,8.893-10.343,15.43-17.307C40.333,27.423,47.447,23.703,50.448,19.955
	 M57.156,37.573c-0.057-0.015-0.114-0.032-0.176-0.033l-2.982,0.055l1.445-2.609c0.189-0.345,0.065-0.777-0.278-0.969l-0.036-0.021
	l-0.011-0.004c-0.047-0.025-0.099-0.033-0.149-0.047c-0.041-0.012-0.08-0.035-0.121-0.039c-0.022-0.002-0.045,0.008-0.068,0.008
	c-0.069,0-0.139-0.002-0.204,0.017c-0.175,0.05-0.329,0.167-0.427,0.341l-1.443,2.608l-1.538-2.557
	c-0.132-0.22-0.368-0.33-0.606-0.332c-0.127,0-0.254,0.02-0.373,0.09l-0.029,0.018l-0.016,0.01c-0.08,0.049-0.147,0.113-0.203,0.185
	c-0.166,0.225-0.193,0.537-0.039,0.793l0.769,1.279l0.769,1.275l-1.49,0.027l-1.491,0.027c-0.099,0.002-0.192,0.023-0.274,0.061
	c-0.257,0.113-0.432,0.37-0.427,0.665l0.002,0.034l-0.001,0.02c0.001,0.047,0.02,0.086,0.03,0.131
	c0.056,0.273,0.264,0.479,0.536,0.539c0.053,0.012,0.104,0.03,0.16,0.029l2.981-0.055l-2.224,4.017l-1.285-0.712l1.307-0.786
	c0.172-0.104,0.227-0.327,0.123-0.499l-0.014-0.023c-0.104-0.172-0.327-0.229-0.499-0.125l-1.308,0.787l-0.027-1.523
	c-0.003-0.203-0.168-0.362-0.37-0.358H47.14c-0.201,0.002-0.363,0.17-0.356,0.369l0.026,1.524l-1.334-0.737
	c-0.177-0.098-0.396-0.034-0.496,0.141l-0.012,0.024c-0.098,0.176-0.033,0.399,0.141,0.495l1.336,0.738l-1.26,0.757l-2.365-3.933
	l2.98-0.054c0.385-0.007,0.688-0.317,0.694-0.698c0.001-0.012,0.005-0.019,0.006-0.027l-0.002-0.053
	c-0.007-0.393-0.332-0.707-0.726-0.701l-2.981,0.055l1.444-2.609c0.191-0.344,0.066-0.779-0.278-0.969l-0.045-0.025
	c-0.261-0.143-0.567-0.108-0.786,0.063c-0.072,0.056-0.135,0.129-0.184,0.214l-1.444,2.609l-1.537-2.555
	c-0.022-0.037-0.057-0.06-0.084-0.093c-0.142-0.161-0.339-0.247-0.547-0.241c-0.119,0.002-0.237,0.025-0.349,0.09l-0.022,0.015
	l-0.022,0.014c-0.084,0.05-0.153,0.115-0.209,0.19c-0.164,0.225-0.188,0.535-0.035,0.787l1.537,2.556l-2.981,0.054
	c-0.099,0.002-0.19,0.025-0.274,0.062c-0.188,0.082-0.324,0.248-0.385,0.445c-0.021,0.069-0.041,0.142-0.04,0.219l0.001,0.053
	c0.006,0.393,0.333,0.707,0.727,0.698l2.979-0.052l-1.444,2.606c-0.073,0.138-0.088,0.285-0.07,0.429
	c0.027,0.219,0.14,0.426,0.35,0.543l0.047,0.025c0.248,0.139,0.543,0.105,0.758-0.05c0.084-0.059,0.158-0.134,0.211-0.229
	l1.443-2.609l2.366,3.934l-1.259,0.758l-0.027-1.525c-0.004-0.198-0.17-0.359-0.371-0.356l-0.027,0.001
	c-0.2,0.003-0.36,0.169-0.357,0.371l0.027,1.523l-1.334-0.737c-0.176-0.099-0.398-0.034-0.494,0.142l-0.014,0.024
	c-0.099,0.177-0.033,0.398,0.144,0.496l1.333,0.736l-1.307,0.787c-0.172,0.104-0.227,0.325-0.123,0.498l0.014,0.024
	c0.103,0.173,0.326,0.228,0.499,0.124l1.306-0.786l0.027,1.47l-4.59,0.083l1.14-2.058l0.306-0.553
	c0.053-0.094,0.076-0.194,0.082-0.295c0.019-0.269-0.111-0.535-0.359-0.674l-0.049-0.023c-0.17-0.098-0.365-0.113-0.541-0.062
	s-0.332,0.168-0.428,0.34l-1.443,2.608l-1.538-2.556c-0.201-0.336-0.642-0.446-0.978-0.244l-0.021,0.015l-0.024,0.015
	c-0.08,0.049-0.146,0.11-0.199,0.182c-0.004,0.003-0.008,0.005-0.008,0.008c-0.166,0.225-0.189,0.535-0.037,0.787l1.537,2.557
	l-2.98,0.053c-0.098,0.002-0.192,0.023-0.277,0.062c-0.255,0.113-0.429,0.37-0.424,0.664l0.002,0.054
	c0.005,0.328,0.236,0.59,0.541,0.668c0.061,0.014,0.119,0.032,0.184,0.031l2.983-0.054l-1.447,2.608
	c-0.001,0.008-0.002,0.012-0.005,0.019c-0.178,0.341-0.054,0.764,0.285,0.952l0.021,0.013l0.024,0.011
	c0.136,0.077,0.287,0.092,0.431,0.073c0.037-0.005,0.075-0.001,0.111-0.01c0.048-0.015,0.089-0.046,0.135-0.068
	c0.034-0.021,0.075-0.03,0.109-0.057c0.072-0.058,0.136-0.13,0.184-0.216l1.442-2.607l1.538,2.555
	c0.102,0.17,0.262,0.279,0.439,0.324c0.176,0.043,0.371,0.02,0.539-0.081l0.047-0.028c0.275-0.166,0.388-0.488,0.31-0.787
	c-0.017-0.065-0.031-0.129-0.067-0.19l-0.768-1.276l-0.769-1.279l4.588-0.084l0.026,1.472l-1.333-0.737
	c-0.176-0.099-0.398-0.033-0.494,0.141l-0.014,0.025c-0.098,0.176-0.034,0.397,0.143,0.494l1.332,0.738l-1.305,0.786
	c-0.172,0.104-0.229,0.327-0.125,0.5l0.014,0.023c0.105,0.172,0.328,0.229,0.5,0.125l1.308-0.787l0.026,1.524
	c0.004,0.202,0.17,0.36,0.371,0.356h0.027c0.2-0.002,0.359-0.168,0.355-0.371l-0.026-1.522l1.287,0.712l-2.224,4.016l-1.537-2.556
	c-0.09-0.147-0.226-0.243-0.377-0.296c-0.021-0.006-0.041-0.023-0.062-0.027c-0.179-0.045-0.371-0.021-0.541,0.08l-0.044,0.027
	c-0.337,0.203-0.448,0.641-0.244,0.978l1.538,2.556l-2.981,0.053c-0.057,0.001-0.105,0.022-0.158,0.034
	c-0.131,0.034-0.252,0.09-0.342,0.184c-0.129,0.133-0.205,0.312-0.201,0.508l0.002,0.054c0.006,0.394,0.332,0.706,0.725,0.698
	l2.982-0.053l-1.444,2.609c-0.191,0.344-0.067,0.777,0.278,0.969l0.024,0.014l0.021,0.011c0.092,0.052,0.191,0.077,0.291,0.085
	c0.27,0.02,0.539-0.111,0.679-0.362l0.866-1.565l0.578-1.043l1.537,2.556c0.041,0.069,0.099,0.121,0.156,0.17
	c0.227,0.192,0.553,0.233,0.822,0.073l0.044-0.027h0.002c0.336-0.203,0.446-0.641,0.243-0.979l-1.538-2.556l0.42-0.007l2.562-0.047
	c0.3-0.005,0.55-0.193,0.652-0.457c0.031-0.083,0.051-0.173,0.047-0.268l0.002-0.055c-0.01-0.393-0.332-0.707-0.727-0.699
	l-2.982,0.055l2.225-4.016l1.285,0.711l-1.307,0.787c-0.173,0.103-0.227,0.326-0.123,0.5l0.014,0.021
	c0.103,0.173,0.326,0.229,0.498,0.125l1.307-0.785l0.025,1.521c0.004,0.203,0.17,0.363,0.373,0.358h0.026
	c0.2-0.003,0.362-0.169,0.357-0.371l-0.027-1.524l1.333,0.738c0.178,0.098,0.399,0.034,0.496-0.142l0.012-0.022
	c0.1-0.177,0.034-0.398-0.141-0.496l-1.333-0.737l1.259-0.759l2.366,3.935l-2.981,0.054c-0.099,0.002-0.193,0.022-0.277,0.061
	c-0.254,0.111-0.428,0.367-0.424,0.664l0.002,0.053c0.008,0.395,0.33,0.708,0.727,0.7l2.98-0.054l-1.443,2.608
	c-0.02,0.035-0.022,0.071-0.035,0.106c-0.117,0.322,0.001,0.691,0.312,0.863l0.047,0.025c0.259,0.143,0.565,0.107,0.785-0.062
	c0.072-0.057,0.136-0.129,0.184-0.215l1.443-2.609l1.537,2.556c0.203,0.337,0.642,0.446,0.979,0.243l0.045-0.028
	c0.083-0.049,0.154-0.116,0.207-0.19c0.165-0.226,0.188-0.535,0.037-0.789l-1.152-1.916l-0.385-0.639l2.981-0.053
	c0.345-0.006,0.613-0.26,0.674-0.585c0.009-0.046,0.027-0.091,0.025-0.142v-0.051c-0.009-0.395-0.332-0.707-0.725-0.701
	l-2.983,0.054l0.67-1.211l0.774-1.399c0.19-0.343,0.065-0.775-0.278-0.968l-0.047-0.024c-0.173-0.097-0.367-0.112-0.543-0.062
	c-0.113,0.032-0.211,0.103-0.298,0.187c-0.046,0.047-0.095,0.092-0.128,0.152l-0.561,1.012l-0.883,1.598l-2.367-3.934l1.261-0.758
	l0.026,1.523c0.002,0.201,0.168,0.363,0.371,0.357h0.025c0.202-0.004,0.361-0.169,0.357-0.371l-0.027-1.521l1.336,0.736
	c0.173,0.1,0.396,0.033,0.493-0.143l0.012-0.023c0.099-0.176,0.035-0.398-0.144-0.496l-1.33-0.736l1.306-0.786
	c0.173-0.104,0.228-0.327,0.123-0.5l-0.013-0.022c-0.104-0.172-0.327-0.229-0.5-0.125l-1.307,0.785l-0.027-1.47l4.592-0.081
	l-0.611,1.104l-0.834,1.506c-0.145,0.257-0.109,0.566,0.062,0.785c0.057,0.072,0.131,0.136,0.215,0.184l0.047,0.023
	c0.079,0.045,0.162,0.066,0.247,0.078c0.006,0.002,0.015,0.008,0.022,0.008c0.015,0.002,0.025-0.004,0.041-0.002
	c0.262,0.014,0.524-0.116,0.658-0.361l1.445-2.607l1.537,2.555c0.119,0.199,0.322,0.306,0.535,0.328
	c0.149,0.017,0.304-0.002,0.443-0.084l0.045-0.027c0.338-0.204,0.447-0.643,0.244-0.979l-1.537-2.557l2.982-0.054
	c0.196-0.005,0.373-0.087,0.499-0.218c0.127-0.129,0.203-0.31,0.199-0.508l0.002-0.053c-0.008-0.295-0.192-0.545-0.448-0.649
	c-0.086-0.035-0.181-0.051-0.277-0.051l-1.386,0.025l-1.598,0.027l1.273-2.301l0.174-0.309c0.109-0.202,0.102-0.432,0.014-0.627
	c-0.061-0.139-0.152-0.264-0.295-0.342l-0.047-0.025c-0.258-0.143-0.565-0.107-0.785,0.062c-0.072,0.059-0.135,0.129-0.184,0.215
	l-1.443,2.609l-1.537-2.555c-0.051-0.084-0.118-0.154-0.192-0.208c-0.024-0.021-0.055-0.022-0.081-0.039
	c-0.055-0.028-0.108-0.062-0.166-0.075c-0.04-0.012-0.084-0.007-0.126-0.009c-0.05-0.002-0.097-0.014-0.147-0.006
	c-0.032,0.003-0.064,0.022-0.096,0.034c-0.056,0.015-0.115,0.027-0.171,0.06l-0.001,0.001l-0.045,0.026
	c-0.337,0.204-0.445,0.641-0.242,0.977l0.769,1.279l0.768,1.275l-4.589,0.084l-0.027-1.469l1.334,0.737
	c0.176,0.099,0.399,0.033,0.496-0.142l0.012-0.024c0.098-0.176,0.035-0.397-0.142-0.495l-1.332-0.738l1.304-0.785
	c0.174-0.103,0.229-0.327,0.125-0.5l-0.014-0.022c-0.104-0.173-0.326-0.228-0.5-0.124l-1.304,0.785l-0.029-1.523
	c-0.003-0.203-0.17-0.361-0.37-0.358l-0.027,0.001c-0.2,0.003-0.361,0.169-0.358,0.37l0.026,1.524l-1.285-0.714l2.224-4.015
	l1.538,2.556c0.202,0.337,0.641,0.447,0.979,0.244l0.043-0.026l0.002-0.002c0.338-0.203,0.447-0.641,0.244-0.979l-1.537-2.555
	l2.98-0.055v0.002c0.049-0.002,0.092-0.021,0.137-0.031c0.047-0.01,0.097-0.012,0.14-0.03c0.2-0.091,0.34-0.272,0.39-0.488
	c0.016-0.058,0.034-0.114,0.034-0.177l-0.002-0.018l0.002-0.035c-0.002-0.1-0.024-0.191-0.062-0.276
	C57.556,37.764,57.373,37.625,57.156,37.573 M47.588,43.084l1.286,0.712l-1.232,2.227L47.588,43.084z M46.833,43.096l0.054,2.939
	l-1.312-2.182L46.833,43.096z M44.306,44.616l1.313,2.184l-2.572-1.426L44.306,44.616z M42.681,46.036l2.571,1.424l-2.545,0.045
	L42.681,46.036z M42.732,48.985l2.548-0.047l-2.518,1.516L42.732,48.985z M43.15,51.1l2.519-1.516l-1.233,2.229L43.15,51.1z
	 M45.73,52.528l1.233-2.227l0.053,2.938L45.73,52.528z M47.771,53.226l-0.053-2.94l1.312,2.183L47.771,53.226z M50.298,51.707
	l-1.312-2.182l2.572,1.422L50.298,51.707z M51.922,50.288l-2.571-1.425l2.545-0.045L51.922,50.288z M51.869,47.341l-2.544,0.044
	l2.518-1.516L51.869,47.341z M48.935,46.739l1.231-2.227l1.287,0.711L48.935,46.739z"/>
</svg>
