<?xml version="1.0" encoding="iso-8859-1"?>
<!-- Generator: Adobe Illustrator 17.0.0, SVG Export Plug-In . SVG Version: 6.00 Build 0)  -->
<!DOCTYPE svg PUBLIC "-//W3C//DTD SVG 1.1//EN" "http://www.w3.org/Graphics/SVG/1.1/DTD/svg11.dtd">
<svg version="1.1" xmlns="http://www.w3.org/2000/svg" xmlns:xlink="http://www.w3.org/1999/xlink" x="0px" y="0px"
	 width="106.597px" height="76.455px" viewBox="0 0 106.597 76.455" style="enable-background:new 0 0 106.597 76.455;"
	 xml:space="preserve">
<g id="pyramids">
</g>
<g id="san_franciso_bridge">
</g>
<g id="easter_island">
</g>
<g id="taj_mahal">
</g>
<g id="christ_the_redeemer">
</g>
<g id="windmill">
	<ellipse style="opacity:0.05;" cx="53.666" cy="71.955" rx="53.666" ry="4.5"/>
	<rect x="47.268" y="36.779" style="fill:#F2444D;" width="17.62" height="26.43"/>
	<polygon style="fill:#DDDAD0;" points="56.079,4.536 68.51,19.408 80.94,34.281 56.079,34.281 31.217,34.281 43.647,19.408 	"/>
	<polygon style="fill:#F2444D;" points="76.253,63.209 64.8,63.209 64.8,36.779 76.253,41.185 	"/>
	<polygon style="fill:#F2444D;" points="35.904,63.209 47.357,63.209 47.357,36.779 35.904,41.185 	"/>
	<polygon style="opacity:0.6;fill:#BEC4B4;" points="76.341,63.209 64.889,63.209 64.889,36.779 76.341,41.185 	"/>
	<polygon style="opacity:0.6;fill:#BEC4B4;" points="35.816,63.209 47.268,63.209 47.268,36.779 35.816,41.185 	"/>
	<polygon style="fill:#F2444D;" points="81.627,41.154 67.187,41.154 67.187,27.824 81.627,33.379 	"/>
	<rect x="44.97" y="27.824" style="fill:#F2444D;" width="22.217" height="13.33"/>
	<path style="fill:#F2444D;" d="M27.887,73.78l2.343-9.6c0.105-1.019,0.975-1.853,1.932-1.853h47.833
		c0.956,0,1.826,0.834,1.932,1.853l2.343,9.6H27.887z"/>
	<polygon style="fill:#F2444D;" points="30.53,41.154 44.97,41.154 44.97,27.824 30.53,33.379 	"/>
	<polygon style="opacity:0.6;fill:#BEC4B4;" points="81.627,40.802 67.187,40.802 67.187,27.471 81.627,33.026 	"/>
	<polygon style="opacity:0.6;fill:#BEC4B4;" points="30.53,40.802 44.97,40.802 44.97,27.471 30.53,33.026 	"/>
	<path style="opacity:0.6;fill:#BEC4B4;" d="M81.627,40.744c0,0.729-11.439,0.44-25.548,0.44c-14.11,0-25.548,0.289-25.548-0.44
		s11.438-1.322,25.548-1.322C70.188,39.422,81.627,40.015,81.627,40.744z"/>
	<path style="opacity:0.8;fill:#181616;" d="M52.946,73.634v-6.561c0-1.729,1.38-3.131,3.083-3.131l0,0
		c1.703,0,3.083,1.402,3.083,3.131v6.561H52.946z"/>
	<g>
		<defs>
			<path id="SVGID_3_" d="M81.689,65.356c-0.105-1.019-0.974-1.853-1.931-1.853h-3.655V42.359l-1.154-0.442
				c3.775-0.219,6.151-0.503,6.413-0.816h0.027v-7.775l-2.125-0.817L68.273,19.354L55.842,4.482l-12.43,14.872L32.418,32.507
				l-2.125,0.817V41.1h0.029c0.26,0.313,2.638,0.598,6.413,0.816l-1.156,0.442v21.144h-3.653c-0.957,0-1.825,0.835-1.932,1.853
				l-2.344,9.6h56.383L81.689,65.356z"/>
		</defs>
		<clipPath id="SVGID_2_">
			<use xlink:href="#SVGID_3_"  style="overflow:visible;"/>
		</clipPath>
		<g style="opacity:0.6;clip-path:url(#SVGID_2_);">
			<g>
				<g>
					<g>
						
							<rect x="69.369" y="1.41" transform="matrix(0.7071 0.7071 -0.7071 0.7071 35.4598 -43.1442)" style="fill:#BEC4B4;" width="0.881" height="39.645"/>
					</g>
					<g>
						<path style="fill:#BEC4B4;" d="M67.318,34.314L56.727,23.723L79.155,1.298l10.589,10.59L67.318,34.314z M57.974,23.723
							l9.345,9.345l21.18-21.181l-9.343-9.344L57.974,23.723z"/>
					</g>
					<g>
						
							<rect x="74.415" y="9.579" transform="matrix(0.7071 0.7071 -0.7071 0.7071 30.8157 -54.3571)" style="fill:#BEC4B4;" width="13.216" height="0.881"/>
					</g>
					<g>
						
							<rect x="71.301" y="12.693" transform="matrix(0.7071 0.7071 -0.7071 0.7071 32.1039 -51.2416)" style="fill:#BEC4B4;" width="13.216" height="0.881"/>
					</g>
					<g>
						
							<rect x="68.186" y="15.808" transform="matrix(0.7071 0.7071 -0.7071 0.7071 33.3944 -48.1271)" style="fill:#BEC4B4;" width="13.215" height="0.881"/>
					</g>
					<g>
						
							<rect x="65.072" y="18.923" transform="matrix(0.7071 0.7071 -0.7071 0.7071 34.686 -45.0131)" style="fill:#BEC4B4;" width="13.213" height="0.881"/>
					</g>
					<g>
						
							<rect x="61.957" y="22.038" transform="matrix(0.7071 0.7071 -0.7071 0.7071 35.98 -41.9002)" style="fill:#BEC4B4;" width="13.214" height="0.881"/>
					</g>
					<g>
						
							<rect x="58.841" y="25.152" transform="matrix(0.7071 0.7071 -0.7071 0.7071 37.2648 -38.7826)" style="fill:#BEC4B4;" width="13.216" height="0.881"/>
					</g>
				</g>
				<g>
					<g>
						
							<rect x="41.336" y="29.442" transform="matrix(0.7072 0.7071 -0.7071 0.7072 47.0649 -15.1124)" style="fill:#BEC4B4;" width="0.881" height="39.641"/>
					</g>
					<g>
						<path style="fill:#BEC4B4;" d="M32.434,69.194L21.843,58.605l22.426-22.422l10.59,10.585L32.434,69.194z M23.088,58.605
							l9.345,9.343l21.18-21.18l-9.345-9.339L23.088,58.605z"/>
					</g>
					<g>
						
							<rect x="23.956" y="60.032" transform="matrix(0.7071 0.7071 -0.7071 0.7071 51.7107 -3.9008)" style="fill:#BEC4B4;" width="13.216" height="0.881"/>
					</g>
					<g>
						
							<rect x="27.071" y="56.918" transform="matrix(0.7071 0.7071 -0.7071 0.7071 50.4208 -7.0149)" style="fill:#BEC4B4;" width="13.216" height="0.881"/>
					</g>
					<g>
						
							<rect x="30.186" y="53.804" transform="matrix(0.707 0.7072 -0.7072 0.707 49.1411 -10.1278)" style="fill:#BEC4B4;" width="13.215" height="0.88"/>
					</g>
					<g>
						
							<rect x="33.301" y="50.688" transform="matrix(0.7071 0.7071 -0.7071 0.7071 47.844 -13.244)" style="fill:#BEC4B4;" width="13.214" height="0.881"/>
					</g>
					<g>
						
							<rect x="36.416" y="47.573" transform="matrix(0.7071 0.7071 -0.7071 0.7071 46.5484 -16.3594)" style="fill:#BEC4B4;" width="13.215" height="0.881"/>
					</g>
					<g>
						
							<rect x="39.532" y="44.461" transform="matrix(0.7073 0.7069 -0.7069 0.7073 45.2416 -19.4729)" style="fill:#BEC4B4;" width="13.212" height="0.881"/>
					</g>
				</g>
			</g>
			<g>
				<g>
					<g>
						
							<rect x="51.235" y="48.199" transform="matrix(0.7072 0.707 -0.707 0.7072 55.1971 -35.9962)" style="fill:#BEC4B4;" width="39.641" height="0.881"/>
					</g>
					<g>
						<path style="fill:#BEC4B4;" d="M80.401,68.57L57.974,46.145L68.564,35.56L90.99,57.982L80.401,68.57z M59.219,46.145
							l21.182,21.181l9.343-9.344l-21.18-21.176L59.219,46.145z"/>
					</g>
					<g>
						
							<rect x="81.828" y="53.242" transform="matrix(0.7071 0.7071 -0.7071 0.7071 66.4158 -40.6432)" style="fill:#BEC4B4;" width="0.881" height="13.215"/>
					</g>
					<g>
						
							<rect x="78.714" y="50.127" transform="matrix(0.7068 0.7074 -0.7074 0.7068 63.3393 -39.3593)" style="fill:#BEC4B4;" width="0.881" height="13.215"/>
					</g>
					<g>
						
							<rect x="75.599" y="47.013" transform="matrix(0.7072 0.7071 -0.7071 0.7072 60.1798 -38.0618)" style="fill:#BEC4B4;" width="0.881" height="13.216"/>
					</g>
					<g>
						
							<rect x="72.484" y="43.899" transform="matrix(0.7071 0.7071 -0.7071 0.7071 57.0719 -36.7727)" style="fill:#BEC4B4;" width="0.881" height="13.213"/>
					</g>
					<g>
						
							<rect x="69.37" y="40.784" transform="matrix(0.7068 0.7074 -0.7074 0.7068 53.9906 -35.4891)" style="fill:#BEC4B4;" width="0.881" height="13.214"/>
					</g>
					<g>
						
							<rect x="66.255" y="37.673" transform="matrix(0.7071 0.7072 -0.7072 0.7071 50.8506 -34.1932)" style="fill:#BEC4B4;" width="0.881" height="13.211"/>
					</g>
				</g>
				<g>
					<g>
						
							<rect x="23.2" y="20.168" transform="matrix(0.7071 0.7071 -0.7071 0.7071 27.1738 -24.3852)" style="fill:#BEC4B4;" width="39.645" height="0.881"/>
					</g>
					<g>
						<path style="fill:#BEC4B4;" d="M45.514,33.692L23.088,11.265l10.591-10.59l22.426,22.426L45.514,33.692z M24.334,11.265
							l21.18,21.181l9.345-9.345l-21.18-21.18L24.334,11.265z"/>
					</g>
					<g>
						
							<rect x="31.369" y="2.788" transform="matrix(0.7074 0.7068 -0.7068 0.7074 15.9493 -19.7345)" style="fill:#BEC4B4;" width="0.881" height="13.216"/>
					</g>
					<g>
						
							<rect x="34.484" y="5.904" transform="matrix(0.7071 0.7072 -0.7072 0.7071 19.0786 -21.0326)" style="fill:#BEC4B4;" width="0.881" height="13.214"/>
					</g>
					<g>
						
							<rect x="37.599" y="9.019" transform="matrix(0.7069 0.7073 -0.7073 0.7069 22.2027 -22.3265)" style="fill:#BEC4B4;" width="0.881" height="13.214"/>
					</g>
					<g>
						
							<rect x="40.714" y="12.133" transform="matrix(0.7073 0.7069 -0.7069 0.7073 25.2919 -23.6067)" style="fill:#BEC4B4;" width="0.881" height="13.214"/>
					</g>
					<g>
						
							<rect x="43.829" y="15.248" transform="matrix(0.7072 0.7071 -0.7071 0.7072 28.4165 -24.9005)" style="fill:#BEC4B4;" width="0.881" height="13.216"/>
					</g>
					<g>
						
							<rect x="46.943" y="18.362" transform="matrix(0.7068 0.7074 -0.7074 0.7068 31.5592 -26.1994)" style="fill:#BEC4B4;" width="0.881" height="13.215"/>
					</g>
				</g>
			</g>
		</g>
	</g>
	<circle style="fill:#FFFFFF;" cx="55.589" cy="34.314" r="2.643"/>
	<g>
		<g>
			<g>
				<line style="fill:none;stroke:#FFFFFF;stroke-miterlimit:10;" x1="82.43" y1="6.85" x2="54.396" y2="34.883"/>
				
					<rect x="64.791" y="2.024" transform="matrix(0.7071 0.7071 -0.7071 0.7071 33.3756 -45.6908)" style="fill:none;stroke:#FFFFFF;stroke-miterlimit:10;" width="14.097" height="30.834"/>
				<line style="fill:none;stroke:#FFFFFF;stroke-miterlimit:10;" x1="74.954" y1="4.982" x2="84.298" y2="14.326"/>
				<line style="fill:none;stroke:#FFFFFF;stroke-miterlimit:10;" x1="71.839" y1="8.096" x2="81.184" y2="17.441"/>
				<line style="fill:none;stroke:#FFFFFF;stroke-miterlimit:10;" x1="68.725" y1="11.211" x2="78.069" y2="20.555"/>
				<line style="fill:none;stroke:#FFFFFF;stroke-miterlimit:10;" x1="65.61" y1="14.326" x2="74.954" y2="23.67"/>
				<line style="fill:none;stroke:#FFFFFF;stroke-miterlimit:10;" x1="62.495" y1="17.441" x2="71.839" y2="26.785"/>
				<line style="fill:none;stroke:#FFFFFF;stroke-miterlimit:10;" x1="59.38" y1="20.555" x2="68.725" y2="29.9"/>
			</g>
			<g>
				<line style="fill:none;stroke:#FFFFFF;stroke-miterlimit:10;" x1="26.363" y1="62.91" x2="54.396" y2="34.883"/>
				<polygon style="fill:none;stroke:#FFFFFF;stroke-miterlimit:10;" points="42.872,36.441 52.839,46.403 31.036,68.206 
					21.069,58.238 				"/>
				<line style="fill:none;stroke:#FFFFFF;stroke-miterlimit:10;" x1="33.84" y1="64.78" x2="24.495" y2="55.435"/>
				<line style="fill:none;stroke:#FFFFFF;stroke-miterlimit:10;" x1="36.954" y1="61.665" x2="27.609" y2="52.32"/>
				<line style="fill:none;stroke:#FFFFFF;stroke-miterlimit:10;" x1="40.068" y1="58.55" x2="30.725" y2="49.206"/>
				<line style="fill:none;stroke:#FFFFFF;stroke-miterlimit:10;" x1="43.183" y1="55.435" x2="33.84" y2="46.091"/>
				<line style="fill:none;stroke:#FFFFFF;stroke-miterlimit:10;" x1="46.298" y1="52.32" x2="36.954" y2="42.977"/>
				<line style="fill:none;stroke:#FFFFFF;stroke-miterlimit:10;" x1="49.414" y1="49.206" x2="40.068" y2="39.866"/>
			</g>
		</g>
		<g>
			<g>
				<line style="fill:none;stroke:#FFFFFF;stroke-miterlimit:10;" x1="83.676" y1="62.287" x2="55.643" y2="34.26"/>
				<polygon style="fill:none;stroke:#FFFFFF;stroke-miterlimit:10;" points="57.2,45.779 67.167,35.818 88.97,57.616 
					79.003,67.583 				"/>
				<line style="fill:none;stroke:#FFFFFF;stroke-miterlimit:10;" x1="85.544" y1="54.812" x2="76.199" y2="64.157"/>
				<line style="fill:none;stroke:#FFFFFF;stroke-miterlimit:10;" x1="82.43" y1="51.697" x2="73.085" y2="61.042"/>
				<line style="fill:none;stroke:#FFFFFF;stroke-miterlimit:10;" x1="79.314" y1="48.583" x2="69.971" y2="57.928"/>
				<line style="fill:none;stroke:#FFFFFF;stroke-miterlimit:10;" x1="76.199" y1="45.468" x2="66.856" y2="54.812"/>
				<line style="fill:none;stroke:#FFFFFF;stroke-miterlimit:10;" x1="73.085" y1="42.354" x2="63.741" y2="51.697"/>
				<line style="fill:none;stroke:#FFFFFF;stroke-miterlimit:10;" x1="69.971" y1="39.243" x2="60.626" y2="48.583"/>
			</g>
			<g>
				<line style="fill:none;stroke:#FFFFFF;stroke-miterlimit:10;" x1="27.609" y1="6.227" x2="55.643" y2="34.26"/>
				
					<rect x="31.152" y="1.4" transform="matrix(0.7071 -0.7071 0.7071 0.7071 -0.7033 31.9374)" style="fill:none;stroke:#FFFFFF;stroke-miterlimit:10;" width="14.097" height="30.834"/>
				<line style="fill:none;stroke:#FFFFFF;stroke-miterlimit:10;" x1="25.741" y1="13.704" x2="35.085" y2="4.359"/>
				<line style="fill:none;stroke:#FFFFFF;stroke-miterlimit:10;" x1="28.856" y1="16.818" x2="38.2" y2="7.473"/>
				<line style="fill:none;stroke:#FFFFFF;stroke-miterlimit:10;" x1="31.97" y1="19.932" x2="41.314" y2="10.589"/>
				<line style="fill:none;stroke:#FFFFFF;stroke-miterlimit:10;" x1="35.085" y1="23.047" x2="44.43" y2="13.704"/>
				<line style="fill:none;stroke:#FFFFFF;stroke-miterlimit:10;" x1="38.2" y1="26.162" x2="47.544" y2="16.818"/>
				<line style="fill:none;stroke:#FFFFFF;stroke-miterlimit:10;" x1="41.314" y1="29.277" x2="50.659" y2="19.932"/>
			</g>
		</g>
	</g>
</g>
<g id="aztec_temple">
</g>
<g id="colosseum_1_">
</g>
<g id="stone_henge">
</g>
<g id="big_ben">
</g>
<g id="sydney_opera_house">
</g>
<g id="eiffel_tower">
</g>
</svg>
