<?xml version="1.0" encoding="utf-8"?>
<!-- Generator: Adobe Illustrator 17.0.0, SVG Export Plug-In . SVG Version: 6.00 Build 0)  -->
<!DOCTYPE svg PUBLIC "-//W3C//DTD SVG 1.1//EN" "http://www.w3.org/Graphics/SVG/1.1/DTD/svg11.dtd">
<svg version="1.1" id="Слой_2" xmlns="http://www.w3.org/2000/svg" xmlns:xlink="http://www.w3.org/1999/xlink" x="0px" y="0px"
	 width="130.925px" height="130.923px" viewBox="0 0 130.925 130.923" enable-background="new 0 0 130.925 130.923"
	 xml:space="preserve">
<path fill="#FBD6A0" d="M130.925,4.249V0H24.497l-0.002,12.247h-7.994V0H0l-0.001,16.499h12.25v7.993h-12.25v106.431h4.252
	l0.001-102.17h7.997l-0.002,12.245h12.249v7.998l-12.247-0.003v16.502h16.504v-12.25h7.995v20.25h-24.5v57.429h4.253V77.745h24.5
	l0.001-24.5l12.244,0.002V40.998h24.501V16.499h53.176l0.001-4.252H73.496v24.5h-20.25v-7.994h12.253L65.5,12.247H48.996v12.245
	l-7.994,0.003V12.247h-12.25l0.001-7.998H130.925z M24.496,61.245l-7.994,0.002v-8.002h7.994V61.245z M12.249,12.247H4.252V4.249
	h7.997V12.247z M24.495,36.746h-7.994v-7.993h7.994V36.746z M24.496,24.492h-7.994v-7.993h7.994V24.492z M53.246,16.499h7.999v7.994
	l-7.999,0.002V16.499z M41.002,28.753h7.995v7.994h-7.995V28.753z M41.001,40.998h7.995v7.995h-7.995V40.998z M36.748,48.993
	l-7.995,0.003v-7.998h7.995V48.993z M36.748,36.747l-7.995-0.001v-7.993h7.995V36.747z M36.747,16.499l0.002,7.993h-7.998
	l0.001-7.993H36.747z"/>
</svg>
