<?xml version="1.0" encoding="utf-8"?>
<!-- Generator: Adobe Illustrator 17.0.0, SVG Export Plug-In . SVG Version: 6.00 Build 0)  -->
<!DOCTYPE svg PUBLIC "-//W3C//DTD SVG 1.1//EN" "http://www.w3.org/Graphics/SVG/1.1/DTD/svg11.dtd">
<svg version="1.1" id="图层_1" xmlns="http://www.w3.org/2000/svg" xmlns:xlink="http://www.w3.org/1999/xlink" x="0px" y="0px"
	 width="29px" height="29px" viewBox="0 0 29 29" enable-background="new 0 0 29 29" xml:space="preserve">
<path fill="#EF2929" d="M0.011,0.138C0,0.026,0.052-0.023,0.162-0.012c0.087,0.003,0.174,0.007,0.26,0.007
	c7.442,0.001,14.883,0.002,22.324,0.002c2.042,0,4.083-0.004,6.125-0.007c0.03,0.003,0.06,0.006,0.09,0.009
	c0.041,0.043-0.047,0.127,0.049,0.152v0.002c-0.031,0.016-0.042,0.041-0.032,0.075c-0.003,1.689-0.007,3.379-0.008,5.068
	c0,0.026,0.023,0.053,0.035,0.08l-0.007-0.007l-0.006,0.006c-0.02,0.025-0.017,0.046,0.011,0.064
	C28.949,5.497,28.952,5.556,29,5.615l-0.002-0.009l-0.005,0.006c-0.021,0.026-0.018,0.047,0.011,0.064
	c-0.056,0.137-0.057,0.274,0,0.411l-0.006-0.008c0.001,0-0.005,0.006-0.005,0.006c-0.021,0.026-0.018,0.048,0.011,0.065
	c-0.06,0.295-0.06,0.589,0.001,0.883l-0.008-0.005c0-0.001-0.006,0.006-0.006,0.006l-0.007-0.005C28.979,7.817,28.992,8.212,29,9
	c0.002,0.212-0.782,1.001-1,1c-3.051-0.008-4.949,0.007-8,0c-0.192,0-1,0.799-1,1c0.007,3.054-0.008,3.946,0,7
	c0.001,0.221-0.792,1-1,1c-3.043-0.007-3.957,0.007-7,0c-0.86,0-1.001,0.789-1,1c0.008,3.054-0.009,4.946,0,8
	c0.001,0.229-0.799,1-1,1c-3.043-0.006-5.681-0.022-8.724-0.013c-0.224,0-0.262-0.066-0.262-0.272
	c0.005-9.446,0.005-18.893,0.004-28.34C0.018,0.296,0.014,0.217,0.011,0.138z"/>
</svg>
