<?xml version="1.0" encoding="iso-8859-1"?>
<!-- Generator: Adobe Illustrator 17.0.0, SVG Export Plug-In . SVG Version: 6.00 Build 0)  -->
<!DOCTYPE svg PUBLIC "-//W3C//DTD SVG 1.1//EN" "http://www.w3.org/Graphics/SVG/1.1/DTD/svg11.dtd">
<svg version="1.1" id="Objects" xmlns="http://www.w3.org/2000/svg" xmlns:xlink="http://www.w3.org/1999/xlink" x="0px" y="0px"
	 width="182.953px" height="197.653px" viewBox="0 0 182.953 197.653" style="enable-background:new 0 0 182.953 197.653;"
	 xml:space="preserve">
<g>
	<rect x="14.027" y="57.853" style="fill-rule:evenodd;clip-rule:evenodd;fill:#CF7761;" width="168.926" height="111.886"/>
	<rect x="19.463" y="62.56" style="fill-rule:evenodd;clip-rule:evenodd;fill:#FFFFFF;" width="158.054" height="102.472"/>
	<rect x="49.129" y="188.329" style="fill-rule:evenodd;clip-rule:evenodd;fill:#CF7761;" width="98.723" height="9.324"/>
	<g>
		<path style="fill-rule:evenodd;clip-rule:evenodd;fill:#4C6173;" d="M107.877,116.511c6.387-1.523,15.283-5.14,16.444,0.026
			c1.38,6.144,3.083,20.704,4.868,34.851c0.386,3.05-3.523,4.63-4.496,4.925c-4.351,1.315-8.088,1.726-12.903,2.376l-3.929-42.151
			C107.859,116.525,107.871,116.513,107.877,116.511z"/>
		<path style="fill-rule:evenodd;clip-rule:evenodd;fill:#4C6173;" d="M88.479,116.511c-8.067-1.924-14.479-6.413-15.888-0.077
			c-1.473,6.632-3.088,21.165-4.792,34.737c-0.437,3.477,3.185,4.971,4.358,5.275c4.176,1.084,7.775,1.617,12.409,2.242
			l3.929-42.151C88.499,116.525,88.485,116.512,88.479,116.511z"/>
		<path style="fill-rule:evenodd;clip-rule:evenodd;fill:#27557D;" d="M82.191,157.864l-0.209,0.495
			c9.938,1.258,22.162,1.279,32.13,0.066c-0.092-0.202-0.182-0.389-0.269-0.561H82.191z"/>
		<path style="fill-rule:evenodd;clip-rule:evenodd;fill:#688096;" d="M78.199,157.763c2.205-6.355-2.827-36.114-5.607-41.587
			c1.581-5.617,16.299-6.859,20.217-10.052c1.857,1.635,3.182,2.007,5.289,2.007s3.5-0.426,5.356-2.061
			c2.899,2.362,18.091,4.204,20.688,9.823c-2.957,6.27-8.382,36.123-6.033,41.843C108.214,159.679,88.381,159.817,78.199,157.763z"
			/>
		<polygon style="fill-rule:evenodd;clip-rule:evenodd;fill:#FFFFFF;" points="88.172,108.823 87.702,121.331 98.172,147.908 
			108.492,121.331 107.85,108.479 103.455,106.068 92.809,106.124 		"/>
		<rect x="92.811" y="101.754" style="fill-rule:evenodd;clip-rule:evenodd;fill:#D1A886;" width="10.458" height="10.832"/>
		<path style="fill-rule:evenodd;clip-rule:evenodd;fill:#FCB024;" d="M99.833,119.283l0.728-1.54l-2.463-5.971l-2.423,5.876
			l0.773,1.635C97.576,119.283,98.705,119.283,99.833,119.283z"/>
		<polygon style="fill-rule:evenodd;clip-rule:evenodd;fill:#CCCCCC;" points="92.808,106.124 98.098,111.772 94.333,121.844 
			89.68,108.199 		"/>
		<polygon style="fill-rule:evenodd;clip-rule:evenodd;fill:#CCCCCC;" points="103.455,106.069 98.098,111.772 101.861,121.844 
			106.584,108.146 		"/>
		<polygon style="fill-rule:evenodd;clip-rule:evenodd;fill:#FCB024;" points="96.448,123.027 99.833,123.027 101.592,139.988 
			98.098,148.05 94.736,139.988 		"/>
		<polygon style="fill-rule:evenodd;clip-rule:evenodd;fill:#FFFFFF;" points="92.809,106.123 98.098,111.772 94.252,119.354 
			89.68,108.198 		"/>
		<polygon style="fill-rule:evenodd;clip-rule:evenodd;fill:#3F73A1;" points="89.713,107.926 98.098,148.05 85.635,124.282 
			87.702,121.331 83.717,118.229 87.515,109.136 		"/>
		<polygon style="fill-rule:evenodd;clip-rule:evenodd;fill:#27557D;" points="106.686,107.841 98.098,148.05 111.902,126.038 
			110.088,122.196 114.028,119.056 109.799,109.279 		"/>
		<polygon style="fill-rule:evenodd;clip-rule:evenodd;fill:#3F73A1;" points="106.686,107.841 98.098,148.05 110.561,124.282 
			108.492,121.331 112.478,118.229 109.799,109.279 		"/>
		<polygon style="fill-rule:evenodd;clip-rule:evenodd;fill:#FFFFFF;" points="103.455,106.067 98.098,111.772 101.943,119.354 
			106.584,108.144 		"/>
		<path style="fill-rule:evenodd;clip-rule:evenodd;fill:#FCB024;" d="M96.448,119.004h3.385c0.755,1.567,0.696,2.938,0,4.277
			h-3.385C95.751,121.942,95.692,120.571,96.448,119.004z"/>
		<path style="fill-rule:evenodd;clip-rule:evenodd;fill:#27557D;" d="M97.622,159.315c0.089-2.944,0.311-6.444,0.67-11.694
			c0.36,5.251,0.6,8.752,0.708,11.694C98.54,159.318,98.082,159.318,97.622,159.315z"/>
		<polygon style="fill-rule:evenodd;clip-rule:evenodd;fill:#FFFFFF;" points="86.589,109.145 87.888,121.134 98.305,147.577 
			108.573,121.134 109.873,109.145 104.903,105.949 91.558,105.949 		"/>
		<rect x="91.559" y="101.656" style="fill-rule:evenodd;clip-rule:evenodd;fill:#D1A886;" width="13.229" height="10.778"/>
		<path style="fill-rule:evenodd;clip-rule:evenodd;fill:#F2CAA9;" d="M98.23,108.002c5.215,0,10.041-5.963,12.586-13.266
			c0.148,0.153,0.316,0.251,0.502,0.28c1.038,0.173,2.227-1.776,2.655-4.352c0.427-2.577-0.066-4.806-1.104-4.978
			c-0.074-0.012-0.147-0.014-0.223-0.005c0.509-9.05-3.242-17.41-14.417-17.41c-11.183,0-14.932,8.373-14.415,17.432
			c-0.114-0.028-0.227-0.035-0.339-0.017c-1.037,0.172-1.532,2.4-1.104,4.978c0.428,2.575,1.616,4.524,2.652,4.352
			c0.222-0.036,0.418-0.167,0.587-0.373C88.147,101.99,92.994,108.002,98.23,108.002z"/>
		<path style="fill-rule:evenodd;clip-rule:evenodd;fill:#6E4D28;" d="M112.65,85.683c0.508-9.05-3.245-17.41-14.42-17.41
			c-11.183,0-14.933,8.373-14.417,17.431c0.904,0.226,1.847,1.882,2.264,4.037c0.728,0.491,1.257,0.205,1.257-1.62
			c0-5.387,0.664-10.159,4.203-11.297c3.365-1.084,4.105,1.293,6.674,1.293c2.569,0,3.379-2.239,6.676-1.293
			c3.421,0.981,4.203,5.91,4.203,11.297c0,1.751,0.486,2.085,1.168,1.677C110.685,87.521,111.702,85.789,112.65,85.683z"/>
		<path style="fill-rule:evenodd;clip-rule:evenodd;fill:#93B9DB;" d="M99.957,119.098l0.725-1.531l-2.451-5.942l-2.41,5.846
			l0.771,1.628C97.712,119.098,98.835,119.098,99.957,119.098z"/>
		<polygon style="fill-rule:evenodd;clip-rule:evenodd;fill:#CCCCCC;" points="91.558,105.949 98.23,111.624 94.485,121.645 
			88.445,108.014 		"/>
		<polygon style="fill-rule:evenodd;clip-rule:evenodd;fill:#4C6173;" points="88.445,108.014 98.23,147.718 84.496,125.817 
			86.3,121.996 82.381,118.869 86.589,109.145 		"/>
		<polygon style="fill-rule:evenodd;clip-rule:evenodd;fill:#CCCCCC;" points="104.903,105.949 98.23,111.624 101.976,121.645 
			108.017,108.014 		"/>
		<polygon style="fill-rule:evenodd;clip-rule:evenodd;fill:#93B9DB;" points="96.591,122.823 99.957,122.823 101.706,139.696 
			98.23,147.718 94.886,139.696 		"/>
		<path style="fill-rule:evenodd;clip-rule:evenodd;fill:#6E4D28;" d="M108.29,74.162c-1.442,2.885-15.976,11.15-20.788,11.528
			C82.687,86.069,87.246,66.689,108.29,74.162z"/>
		<path style="fill-rule:evenodd;clip-rule:evenodd;fill:#6E4D28;" d="M101.373,74.162c0.622,2.885,6.885,11.15,8.96,11.528
			C112.407,86.069,110.443,66.689,101.373,74.162z"/>
		<polygon style="fill-rule:evenodd;clip-rule:evenodd;fill:#FFFFFF;" points="91.558,105.949 98.23,111.624 94.404,119.17 
			88.445,108.014 		"/>
		<polygon style="fill-rule:evenodd;clip-rule:evenodd;fill:#688096;" points="88.445,108.014 98.23,147.718 85.831,124.071 
			87.888,121.134 83.922,118.048 86.589,109.145 		"/>
		<polygon style="fill-rule:evenodd;clip-rule:evenodd;fill:#4C6173;" points="108.017,108.014 98.23,147.718 111.965,125.817 
			110.162,121.996 114.081,118.869 109.873,109.145 		"/>
		<polygon style="fill-rule:evenodd;clip-rule:evenodd;fill:#688096;" points="108.017,108.014 98.23,147.718 110.63,124.071 
			108.573,121.134 112.539,118.048 109.873,109.145 		"/>
		<polygon style="fill-rule:evenodd;clip-rule:evenodd;fill:#FFFFFF;" points="104.903,105.949 98.23,111.624 102.058,119.17 
			108.017,108.014 		"/>
		<path style="fill-rule:evenodd;clip-rule:evenodd;fill:#93B9DB;" d="M96.591,118.819h3.366c0.752,1.559,0.693,2.923,0,4.256
			h-3.366C95.896,121.742,95.837,120.379,96.591,118.819z"/>
		<path style="fill-rule:evenodd;clip-rule:evenodd;fill:#4C6173;" d="M97.385,159.315c0.552,0.003,1.104,0.004,1.655,0.003
			c0.203-2.848-0.408-10.441-0.827-11.694C97.793,148.629,97.184,156.318,97.385,159.315z"/>
	</g>
	<rect x="67.946" y="166.301" style="fill-rule:evenodd;clip-rule:evenodd;fill:#CF7761;" width="61.088" height="22.144"/>
	<g>
		<path style="fill-rule:evenodd;clip-rule:evenodd;fill:#FFE1D9;" d="M49.261,1.733c26.307,0,47.633,15.848,47.633,35.396
			c0,15.145-12.8,28.065-30.796,33.119l5.449,19.758L55.54,72.22c-2.055,0.201-4.15,0.307-6.279,0.307
			c-26.307,0-47.633-15.848-47.633-35.397S22.954,1.733,49.261,1.733z"/>
		<g>
			<path style="fill:#2C3945;" d="M23.27,23.779c-0.899,0-1.628-0.729-1.628-1.628c0-0.899,0.729-1.628,1.628-1.628h51.217
				c0.9,0,1.628,0.729,1.628,1.628c0,0.899-0.727,1.628-1.628,1.628H23.27z"/>
			<path style="fill:#2C3945;" d="M23.27,33.488c-0.899,0-1.628-0.729-1.628-1.628c0-0.899,0.729-1.628,1.628-1.628h51.217
				c0.9,0,1.628,0.729,1.628,1.628c0,0.899-0.727,1.628-1.628,1.628H23.27z"/>
			<path style="fill:#2C3945;" d="M23.27,43.197c-0.899,0-1.628-0.729-1.628-1.627c0-0.899,0.729-1.628,1.628-1.628h51.217
				c0.9,0,1.628,0.729,1.628,1.628c0,0.898-0.727,1.627-1.628,1.627H23.27z"/>
			<path style="fill:#2C3945;" d="M23.27,52.906c-0.899,0-1.628-0.729-1.628-1.627c0-0.899,0.729-1.628,1.628-1.628h51.217
				c0.9,0,1.628,0.729,1.628,1.628c0,0.898-0.727,1.627-1.628,1.627H23.27z"/>
		</g>
		<path style="fill:#CF7761;" d="M49.261,0.106c13.507,0,25.759,4.086,34.647,10.691c9.029,6.709,14.613,16.017,14.613,26.333
			c0,7.892-3.271,15.196-8.855,21.201c-5.35,5.753-12.831,10.308-21.58,13.023l5.025,18.22c0.238,0.863-0.268,1.758-1.132,1.996
			c-0.612,0.17-1.239-0.036-1.638-0.479l-0.002,0.002L54.874,73.909c-0.797,0.069-1.595,0.123-2.393,0.161
			c-1.128,0.056-2.202,0.084-3.221,0.084l0,0v-3.256l0,0c1.095,0,2.116-0.024,3.068-0.07c1.002-0.049,1.989-0.12,2.957-0.213
			c0.524-0.083,1.08,0.093,1.461,0.517l11.407,12.674l-3.602-13.054l-0.02-0.065c-0.242-0.863,0.262-1.76,1.125-2.002
			c8.839-2.483,16.368-6.909,21.63-12.567c5.03-5.41,7.978-11.954,7.978-18.988c0-9.233-5.079-17.625-13.29-23.727
			C73.626,7.199,62.06,3.359,49.261,3.359l0,0V0.106L49.261,0.106z M49.261,74.154c-13.507,0-25.759-4.086-34.648-10.692
			C5.584,56.753,0,47.445,0,37.13c0-10.316,5.584-19.624,14.612-26.333c8.89-6.605,21.142-10.691,34.648-10.691v3.254
			c-12.8,0-24.365,3.84-32.715,10.044C8.334,19.505,3.255,27.897,3.255,37.13s5.079,17.623,13.291,23.726
			c8.35,6.204,19.915,10.043,32.715,10.043V74.154z"/>
	</g>
</g>
</svg>
