<?xml version="1.0" encoding="iso-8859-1"?>
<!-- Generator: Adobe Illustrator 17.0.0, SVG Export Plug-In . SVG Version: 6.00 Build 0)  -->
<!DOCTYPE svg PUBLIC "-//W3C//DTD SVG 1.1//EN" "http://www.w3.org/Graphics/SVG/1.1/DTD/svg11.dtd">
<svg version="1.1" id="Layer_1" xmlns="http://www.w3.org/2000/svg" xmlns:xlink="http://www.w3.org/1999/xlink" x="0px" y="0px"
	 width="593.751px" height="75.102px" viewBox="0 0 593.751 75.102" style="enable-background:new 0 0 593.751 75.102;"
	 xml:space="preserve">
<path style="fill:#E5A32E;" d="M157.793,42.479l0.001,0.179l-0.015,0.181c-0.038,0.964-0.267,1.926-0.611,2.848
	c-0.342,0.923-0.844,1.801-1.475,2.576c-0.627,0.778-1.371,1.477-2.22,2.018c-0.105,0.07-0.206,0.146-0.317,0.207l-0.332,0.179
	c-0.224,0.114-0.438,0.249-0.674,0.336l-0.695,0.286l-0.021,0.008l-0.079,0.025l-0.04,0.012l-0.078,0.023l-0.157,0.047l-0.314,0.093
	c-0.046,0.016-0.118,0.03-0.186,0.045l-0.205,0.043l-0.409,0.079c-0.141,0.032-0.262,0.031-0.392,0.046l-0.385,0.03
	c-0.127,0.014-0.256,0.008-0.384,0.007l-0.384-0.007c-0.128,0.001-0.255-0.015-0.382-0.029l-0.379-0.045
	c-2.022-0.28-3.846-1.382-5.027-2.888l-0.221-0.281c-0.068-0.098-0.131-0.199-0.195-0.298c-0.129-0.199-0.259-0.395-0.358-0.607
	L141.7,47.28l-0.078-0.154l-0.063-0.162l-0.123-0.322l-0.06-0.161l-0.03-0.08l-0.007-0.021c0.001,0.004-0.035-0.107-0.022-0.068
	l-0.01-0.036l-0.075-0.286l-0.037-0.143c-0.006-0.025-0.013-0.045-0.019-0.075l-0.018-0.092c-0.021-0.123-0.042-0.246-0.064-0.369
	c-0.021-0.123-0.041-0.246-0.044-0.356c-0.038-0.457-0.036-0.911,0.028-1.348c0.116-0.878,0.408-1.697,0.829-2.399
	c0.421-0.701,0.96-1.292,1.556-1.74c0.598-0.447,1.24-0.769,1.879-0.959l0.029-0.01l0.015-0.004
	c0.063-0.021,0.025-0.008,0.043-0.013l0.055-0.014l0.108-0.025c0.073-0.017,0.144-0.033,0.215-0.049
	c0.154-0.031,0.34-0.053,0.503-0.075c0.165-0.018,0.319-0.015,0.475-0.021c0.154-0.003,0.306,0.02,0.454,0.026
	c0.592,0.066,1.124,0.233,1.574,0.456c0.228,0.106,0.428,0.24,0.619,0.362c0.18,0.141,0.356,0.266,0.497,0.413
	c0.595,0.563,0.882,1.137,1.038,1.522c0.088,0.19,0.119,0.351,0.152,0.452c0.029,0.104,0.044,0.157,0.044,0.157
	s-0.026-0.049-0.079-0.142c-0.055-0.092-0.122-0.233-0.244-0.398c-0.22-0.338-0.613-0.799-1.223-1.195
	c-0.6-0.401-1.458-0.7-2.412-0.658c-0.119,0.012-0.239,0.014-0.359,0.035c-0.118,0.024-0.245,0.038-0.36,0.067
	c-0.115,0.036-0.215,0.057-0.343,0.1c-0.068,0.026-0.138,0.053-0.207,0.079l-0.104,0.039l-0.053,0.02
	c0.009-0.002-0.038,0.013,0.016-0.004l-0.011,0.005l-0.022,0.011c-0.486,0.224-0.954,0.536-1.363,0.933
	c-0.823,0.784-1.398,1.95-1.442,3.199c-0.014,0.312,0.01,0.626,0.06,0.938c0.007,0.082,0.026,0.15,0.044,0.217l0.048,0.206
	l0.011,0.051c0.005,0.019,0.015,0.044,0.022,0.067l0.048,0.139l0.097,0.281l0.012,0.034c0.017,0.05-0.016-0.048-0.01-0.033
	l0.007,0.014l0.028,0.058l0.054,0.113l0.108,0.23l0.052,0.116l0.065,0.109l0.129,0.221c0.079,0.15,0.185,0.285,0.287,0.422
	l0.151,0.207l0.173,0.191c0.458,0.51,1.009,0.95,1.63,1.276c0.622,0.324,1.306,0.539,2.009,0.624l0.265,0.024
	c0.088,0.009,0.176,0.019,0.266,0.013l0.266-0.002c0.089-0.001,0.178,0.004,0.266-0.011l0.265-0.029
	c0.086-0.013,0.184-0.014,0.256-0.034l0.233-0.046l0.117-0.021c0.039-0.006,0.075-0.01,0.132-0.029l0.563-0.175l0.517-0.219
	c0.177-0.063,0.333-0.169,0.499-0.256l0.246-0.133c0.083-0.043,0.155-0.104,0.234-0.154c0.636-0.393,1.189-0.91,1.662-1.485
	c0.117-0.145,0.243-0.284,0.338-0.444c0.102-0.156,0.215-0.305,0.311-0.464l0.269-0.489c0.089-0.162,0.15-0.339,0.228-0.507
	c0.035-0.085,0.079-0.167,0.106-0.256l0.084-0.264c0.054-0.176,0.123-0.348,0.155-0.53c0.041-0.179,0.082-0.358,0.121-0.537
	c0.024-0.181,0.046-0.362,0.07-0.543l0.018-0.136l0.004-0.137l0.007-0.271l0.009-0.272c0.003-0.09-0.011-0.18-0.016-0.27
	c-0.016-0.178-0.019-0.364-0.037-0.536c-0.027-0.165-0.053-0.328-0.076-0.492l-0.017-0.124c-0.003-0.039-0.024-0.096-0.035-0.143
	l-0.08-0.295l-0.081-0.295l-0.02-0.074l-0.01-0.037l-0.003-0.013l-0.035-0.099c-0.061-0.173-0.118-0.345-0.189-0.51l-0.1-0.251
	l-0.111-0.245c-0.297-0.651-0.666-1.253-1.075-1.804c-0.824-1.104-1.842-1.974-2.893-2.608c-1.051-0.641-2.14-1.032-3.136-1.26
	c-0.499-0.12-0.978-0.174-1.424-0.224c-0.223-0.013-0.438-0.036-0.645-0.035c-0.104-0.002-0.204-0.005-0.303-0.007
	c-0.099,0.002-0.196,0.003-0.289,0.005c-0.752,0.022-1.349,0.103-1.75,0.176c-0.404,0.082-0.62,0.126-0.62,0.126
	s0.05-0.023,0.147-0.069c0.098-0.043,0.238-0.118,0.431-0.194c0.387-0.155,0.962-0.375,1.735-0.537
	c0.77-0.165,1.738-0.274,2.857-0.196c1.115,0.082,2.383,0.348,3.665,0.931c1.279,0.579,2.577,1.465,3.674,2.692
	c0.55,0.609,1.042,1.307,1.463,2.065l0.157,0.287l0.145,0.295c0.101,0.195,0.182,0.4,0.268,0.606l0.064,0.153l0.066,0.197
	l0.097,0.29l0.097,0.29c0.016,0.052,0.035,0.09,0.048,0.153l0.042,0.179c0.054,0.241,0.108,0.481,0.162,0.725
	c0.04,0.237,0.061,0.468,0.089,0.705c0.011,0.118,0.03,0.235,0.033,0.355l0.005,0.356L157.793,42.479z M313.83,49.786
	c-0.028-0.129-0.066-0.256-0.099-0.384c-0.044-0.124-0.092-0.249-0.14-0.372c-0.062-0.123-0.124-0.25-0.188-0.369l-0.096-0.152
	l-0.048-0.075l-0.024-0.039l-0.012-0.019l-0.003-0.005l-0.014-0.02l-0.007-0.01l-0.117-0.156c-0.04-0.052-0.082-0.101-0.123-0.152
	c-0.169-0.198-0.353-0.384-0.551-0.554c-0.4-0.336-0.853-0.611-1.341-0.798c-0.488-0.187-1.007-0.299-1.53-0.318
	c-0.262-0.011-0.524-0.002-0.785,0.03c-0.26,0.033-0.518,0.088-0.77,0.165c-0.504,0.148-0.98,0.387-1.408,0.69l-0.013,0.011
	l-0.018,0.014l-0.005,0.005c-0.029,0.019-0.058,0.038-0.085,0.056c-0.036,0.028-0.074,0.054-0.109,0.081
	c-0.071,0.054-0.139,0.11-0.206,0.165c-0.132,0.113-0.26,0.229-0.38,0.35c-0.244,0.241-0.469,0.496-0.681,0.759
	c-0.421,0.528-0.792,1.088-1.117,1.672c-0.324,0.582-0.605,1.185-0.854,1.8c-0.25,0.614-0.459,1.243-0.641,1.877
	c-0.044,0.16-0.093,0.317-0.132,0.477l-0.121,0.479c-0.041,0.159-0.073,0.32-0.11,0.48c-0.035,0.162-0.073,0.322-0.102,0.484
	l-0.093,0.481c-0.032,0.161-0.053,0.324-0.08,0.486c-0.025,0.162-0.054,0.324-0.075,0.487l-0.064,0.488l-0.032,0.243l-0.026,0.247
	l-0.051,0.492c-0.019,0.165-0.028,0.324-0.041,0.486l-0.036,0.484l-0.02,0.243l-0.021,0.235c-0.015,0.157-0.021,0.314-0.047,0.471
	l-0.064,0.469l-0.016,0.117l-0.021,0.118l-0.044,0.233c-0.106,0.624-0.267,1.239-0.442,1.85c-0.097,0.304-0.184,0.61-0.296,0.908
	c-0.054,0.15-0.104,0.302-0.161,0.45l-0.175,0.446c-0.057,0.149-0.12,0.295-0.183,0.442l-0.19,0.44
	c-0.135,0.29-0.262,0.584-0.407,0.871c-0.278,0.577-0.585,1.141-0.902,1.7l-0.243,0.417l-0.088,0.144l-0.087-0.144l-0.243-0.417
	c-0.317-0.559-0.624-1.123-0.902-1.7c-0.145-0.287-0.272-0.581-0.406-0.871l-0.189-0.44c-0.064-0.147-0.128-0.293-0.184-0.442
	l-0.175-0.446c-0.057-0.148-0.107-0.3-0.161-0.45c-0.111-0.298-0.2-0.604-0.296-0.908c-0.175-0.611-0.335-1.226-0.442-1.85
	l-0.044-0.233l-0.021-0.118l-0.017-0.117l-0.064-0.469c-0.025-0.157-0.032-0.314-0.048-0.471l-0.021-0.235l-0.02-0.243l-0.036-0.484
	c-0.013-0.162-0.023-0.321-0.042-0.486l-0.051-0.492l-0.026-0.247l-0.032-0.243l-0.063-0.488c-0.022-0.163-0.05-0.325-0.076-0.487
	c-0.027-0.162-0.048-0.325-0.08-0.486l-0.092-0.483c-0.029-0.162-0.067-0.322-0.102-0.484c-0.037-0.16-0.068-0.321-0.109-0.48
	l-0.121-0.479c-0.039-0.16-0.088-0.317-0.132-0.477c-0.182-0.634-0.391-1.263-0.641-1.877c-0.249-0.615-0.53-1.218-0.855-1.8
	c-0.324-0.584-0.695-1.144-1.117-1.672c-0.213-0.263-0.437-0.518-0.681-0.759c-0.12-0.121-0.249-0.237-0.38-0.35
	c-0.067-0.055-0.135-0.111-0.206-0.165c-0.035-0.027-0.072-0.053-0.109-0.081c-0.027-0.019-0.056-0.038-0.085-0.056l-0.005-0.005
	l-0.017-0.014l-0.014-0.011c-0.429-0.303-0.904-0.542-1.408-0.69c-0.251-0.077-0.509-0.132-0.77-0.165
	c-0.261-0.032-0.523-0.041-0.785-0.03c-0.524,0.019-1.043,0.131-1.531,0.318c-0.488,0.187-0.941,0.462-1.34,0.798
	c-0.198,0.17-0.382,0.356-0.55,0.554c-0.042,0.051-0.085,0.1-0.124,0.152l-0.117,0.156l-0.007,0.01l-0.014,0.02l-0.003,0.005
	l-0.012,0.019l-0.024,0.039l-0.048,0.075l-0.096,0.152c-0.064,0.119-0.127,0.246-0.189,0.369c-0.048,0.123-0.095,0.248-0.14,0.372
	c-0.033,0.128-0.071,0.255-0.099,0.384L282.5,49.98c-0.009,0.065-0.025,0.129-0.026,0.196c-0.052,0.525,0.006,1.058,0.167,1.557
	c0.16,0.499,0.424,0.963,0.77,1.354c0.081,0.103,0.181,0.187,0.274,0.279l0.071,0.067c0.024,0.021,0.051,0.04,0.076,0.061
	l0.154,0.12l0.077,0.059l0.004,0.004c0,0,0.026,0.018,0.017,0.012l0.009,0.005l0.02,0.012l0.038,0.023l0.153,0.095
	c0.022,0.016,0.059,0.032,0.089,0.047l0.092,0.046c0.062,0.029,0.124,0.064,0.186,0.084l0.186,0.07
	c0.03,0.012,0.062,0.021,0.094,0.029l0.096,0.025l0.096,0.025l0.047,0.012l0.049,0.008l0.195,0.03l0.048,0.008l0.049,0.003
	l0.098,0.006l0.098,0.006l0.049,0.002l0.05-0.001l0.196-0.007c0.033,0,0.065-0.003,0.097-0.009l0.097-0.012
	c0.52-0.063,1.014-0.274,1.428-0.584c0.027-0.018,0.052-0.038,0.076-0.06l0.074-0.063l0.073-0.063
	c0.024-0.021,0.048-0.043,0.07-0.067c0.087-0.095,0.18-0.185,0.254-0.291l0.058-0.076l0.03-0.038l0.015-0.02l0.003-0.004
	c0.012-0.019,0.005-0.008,0.009-0.014l0.006-0.01l0.094-0.152c0.016-0.024,0.031-0.056,0.046-0.086l0.044-0.091
	c0.015-0.03,0.031-0.061,0.043-0.092l0.033-0.091c0.186-0.486,0.192-1.029,0.048-1.517c-0.071-0.247-0.189-0.477-0.335-0.682
	c-0.147-0.207-0.326-0.39-0.531-0.534l-0.037-0.029l-0.019-0.014l-0.009-0.006l-0.005-0.002l-0.009-0.006l-0.077-0.046
	c-0.026-0.016-0.05-0.032-0.079-0.046l-0.087-0.042c-0.03-0.013-0.059-0.03-0.088-0.04l-0.089-0.033
	c-0.059-0.023-0.12-0.038-0.181-0.053c-0.244-0.058-0.498-0.065-0.742-0.021c-0.243,0.042-0.476,0.134-0.681,0.268
	c-0.205,0.131-0.378,0.308-0.511,0.508c0.149-0.189,0.334-0.346,0.541-0.46c0.206-0.113,0.435-0.185,0.667-0.207
	c0.232-0.023,0.466,0,0.685,0.067c0.055,0.017,0.109,0.034,0.161,0.058l0.079,0.034c0.025,0.011,0.049,0.026,0.073,0.039l0.072,0.04
	c0.024,0.014,0.049,0.034,0.074,0.049l0.073,0.052l0.009,0.006l0.005,0.003c-0.007-0.004,0,0.001,0,0.001l0.016,0.014l0.033,0.027
	c0.179,0.144,0.328,0.32,0.447,0.513l0.045,0.072c0.015,0.024,0.025,0.05,0.039,0.075l0.038,0.075
	c0.013,0.024,0.024,0.051,0.034,0.078c0.02,0.053,0.041,0.104,0.06,0.156l0.046,0.163c0.103,0.436,0.071,0.902-0.108,1.305
	l-0.032,0.076c-0.011,0.025-0.025,0.047-0.038,0.071l-0.038,0.068c-0.013,0.022-0.023,0.046-0.042,0.071l-0.102,0.148l-0.007,0.009
	c0.001-0.002-0.008,0.012,0.002-0.003l-0.004,0.003l-0.013,0.016l-0.027,0.032l-0.054,0.064c-0.068,0.089-0.153,0.161-0.232,0.238
	l-0.03,0.029l-0.032,0.026l-0.065,0.052l-0.065,0.052c-0.022,0.018-0.043,0.034-0.066,0.048c-0.365,0.248-0.789,0.409-1.226,0.443
	l-0.081,0.007c-0.028,0.003-0.055,0.004-0.082,0.004l-0.164-0.001h-0.041l-0.04-0.004l-0.081-0.009l-0.081-0.009l-0.04-0.004
	l-0.04-0.008l-0.16-0.032l-0.04-0.009l-0.039-0.011l-0.077-0.024l-0.078-0.023c-0.026-0.008-0.052-0.016-0.076-0.028l-0.149-0.062
	c-0.052-0.019-0.094-0.047-0.139-0.07l-0.067-0.037c-0.023-0.013-0.043-0.02-0.069-0.039l-0.148-0.101l-0.038-0.026l-0.019-0.012
	l-0.003-0.002c0,0,0.002,0.002,0.002,0.001l-0.004-0.004l-0.064-0.053l-0.126-0.105c-0.021-0.018-0.043-0.034-0.063-0.053
	l-0.058-0.059c-0.075-0.079-0.158-0.152-0.223-0.241c-0.28-0.336-0.487-0.729-0.608-1.146c-0.121-0.418-0.155-0.859-0.1-1.288
	c0.003-0.054,0.018-0.106,0.027-0.159l0.031-0.159c0.026-0.104,0.061-0.205,0.091-0.309l0.121-0.298l0.143-0.27l0.1-0.15
	l0.049-0.075l0.025-0.038l0.009-0.015l0.005-0.006l0.102-0.13c0.034-0.043,0.071-0.083,0.106-0.125
	c0.145-0.164,0.303-0.317,0.472-0.455c0.171-0.137,0.351-0.261,0.54-0.37c0.19-0.109,0.388-0.202,0.592-0.277
	c0.409-0.15,0.843-0.236,1.278-0.246c0.435-0.012,0.871,0.046,1.285,0.177c0.413,0.125,0.797,0.325,1.147,0.576l0.003,0.002
	l0.022,0.018l0.038,0.025c0.012,0.008,0.047,0.032,0.073,0.05c0.028,0.021,0.056,0.042,0.085,0.064
	c0.057,0.044,0.114,0.092,0.171,0.141c0.113,0.098,0.225,0.201,0.331,0.309c0.216,0.215,0.42,0.448,0.614,0.688
	c0.384,0.485,0.729,1.008,1.032,1.557c0.306,0.547,0.575,1.118,0.813,1.703c0.24,0.583,0.44,1.186,0.622,1.793
	c0.044,0.153,0.093,0.303,0.132,0.458l0.12,0.461c0.041,0.152,0.073,0.309,0.11,0.463c0.035,0.156,0.074,0.31,0.103,0.466
	c0.062,0.312,0.127,0.624,0.179,0.939c0.027,0.157,0.057,0.313,0.081,0.471l0.069,0.475l0.035,0.236l0.028,0.237l0.057,0.473
	c0.021,0.157,0.033,0.32,0.048,0.48l0.046,0.483l0.025,0.241l0.027,0.248c0.02,0.165,0.03,0.33,0.061,0.494l0.078,0.491l0.019,0.122
	l0.025,0.122l0.05,0.243c0.009,0.043,0.022,0.084,0.031,0.127c-0.131-0.154-0.281-0.311-0.476-0.465
	c-0.299-0.237-0.681-0.464-1.138-0.614c-0.456-0.15-0.989-0.227-1.548-0.171c-0.28,0.026-0.565,0.088-0.847,0.182l-0.107,0.036
	l-0.104,0.041c-0.071,0.026-0.139,0.059-0.208,0.09l-0.052,0.024l-0.062,0.035l-0.092,0.05l-0.091,0.05
	c-0.016,0.01-0.029,0.014-0.047,0.028l-0.052,0.035c-0.069,0.048-0.138,0.096-0.208,0.145c-0.064,0.05-0.124,0.104-0.185,0.157
	c-0.03,0.027-0.062,0.053-0.091,0.082l-0.084,0.089l-0.084,0.089l-0.042,0.046l-0.038,0.048c-0.213,0.252-0.378,0.547-0.504,0.859
	c-0.128,0.312-0.205,0.649-0.225,0.99c-0.022,0.341,0.003,0.689,0.093,1.022c0.01,0.042,0.018,0.085,0.032,0.125l0.042,0.122
	c0.03,0.081,0.052,0.165,0.092,0.241l0.109,0.233l0.003,0.007l0.014,0.025l0.007,0.012l0.014,0.024l0.029,0.048l0.057,0.096
	c0.008,0.015,0.023,0.035,0.037,0.054l0.042,0.058l0.085,0.115c0.028,0.04,0.059,0.069,0.088,0.103l0.09,0.096
	c0.029,0.034,0.063,0.062,0.095,0.091l0.099,0.087c0.032,0.03,0.067,0.055,0.103,0.082l0.105,0.077
	c0.575,0.397,1.29,0.542,1.935,0.435l0.122-0.02c0.04-0.009,0.079-0.019,0.118-0.029c0.078-0.021,0.156-0.04,0.23-0.07l0.112-0.042
	l0.056-0.021l0.054-0.026l0.105-0.053l0.052-0.026l0.026-0.013l0.006-0.004c-0.001,0.002,0.034-0.019,0.022-0.011l0.01-0.008
	l0.085-0.053l0.043-0.029c0.007-0.003,0.014-0.007,0.022-0.014l0.025-0.019c0.034-0.026,0.068-0.052,0.101-0.079
	c0.034-0.025,0.067-0.053,0.094-0.08c0.115-0.105,0.22-0.22,0.306-0.345c0.173-0.247,0.289-0.522,0.346-0.795
	c0.056-0.275,0.057-0.548,0.011-0.799c-0.047-0.251-0.135-0.481-0.252-0.677l-0.005-0.009l-0.003-0.004
	c-0.011-0.02-0.004-0.008-0.007-0.014l-0.011-0.015l-0.022-0.031c-0.014-0.021-0.028-0.044-0.043-0.063
	c-0.031-0.044-0.073-0.091-0.109-0.134c-0.038-0.043-0.078-0.077-0.115-0.116c-0.038-0.037-0.081-0.066-0.121-0.098
	c-0.164-0.12-0.337-0.202-0.502-0.249c-0.081-0.026-0.163-0.039-0.239-0.053c-0.078-0.005-0.151-0.015-0.222-0.01
	c-0.279,0.004-0.485,0.083-0.613,0.143c-0.066,0.027-0.111,0.062-0.142,0.079c-0.031,0.019-0.047,0.029-0.047,0.029
	s0.018-0.005,0.053-0.017c0.035-0.011,0.085-0.031,0.153-0.044c0.134-0.035,0.339-0.06,0.585-0.019
	c0.244,0.038,0.529,0.162,0.76,0.393c0.027,0.031,0.057,0.058,0.083,0.091c0.024,0.033,0.053,0.067,0.075,0.101
	c0.021,0.036,0.041,0.064,0.064,0.104c0.011,0.023,0.022,0.044,0.034,0.068l0.017,0.034l0.009,0.017
	c-0.002-0.003,0.007,0.012-0.004-0.005l0.002,0.005l0.003,0.007c0.071,0.168,0.117,0.355,0.127,0.551
	c0.026,0.388-0.099,0.814-0.376,1.14c-0.068,0.081-0.147,0.155-0.232,0.223c-0.021,0.018-0.042,0.03-0.061,0.044l-0.06,0.04
	l-0.014,0.01c-0.006,0.005-0.015,0.008-0.022,0.013l-0.044,0.024l-0.089,0.048l-0.005,0.002l-0.02,0.008l-0.04,0.016l-0.08,0.033
	l-0.04,0.018l-0.042,0.012l-0.083,0.026c-0.055,0.02-0.113,0.029-0.17,0.041l-0.086,0.017l-0.088,0.008
	c-0.234,0.023-0.475,0.005-0.706-0.055c-0.232-0.062-0.454-0.166-0.65-0.308l-0.072-0.056c-0.024-0.019-0.048-0.035-0.07-0.058
	l-0.066-0.062c-0.022-0.021-0.045-0.04-0.064-0.064l-0.06-0.068c-0.019-0.024-0.044-0.046-0.057-0.068l-0.048-0.065l-0.025-0.032
	c-0.008-0.011-0.016-0.02-0.026-0.038l-0.102-0.175l-0.079-0.175c-0.03-0.057-0.045-0.119-0.067-0.179l-0.031-0.091
	c-0.012-0.029-0.015-0.062-0.023-0.093c-0.069-0.246-0.089-0.504-0.075-0.758c0.004-0.064,0.004-0.128,0.018-0.19
	c0.01-0.063,0.016-0.126,0.029-0.19l0.045-0.185c0.016-0.061,0.041-0.12,0.061-0.18c0.011-0.03,0.019-0.061,0.032-0.089l0.04-0.086
	c0.027-0.057,0.049-0.117,0.084-0.168c0.031-0.056,0.062-0.11,0.093-0.164c0.036-0.051,0.072-0.102,0.108-0.153l0.026-0.039
	l0.031-0.035l0.061-0.07l0.061-0.072c0.02-0.022,0.044-0.042,0.066-0.064c0.045-0.041,0.089-0.087,0.133-0.126
	c0.045-0.035,0.089-0.07,0.133-0.105l0.033-0.028c0.009-0.009,0.028-0.019,0.042-0.028l0.089-0.056l0.087-0.055l0.022-0.014
	l0.011-0.007l0.004-0.003l0.032-0.017c0.055-0.029,0.109-0.06,0.165-0.084l0.083-0.041l0.085-0.036
	c0.225-0.095,0.457-0.161,0.688-0.205c0.462-0.087,0.921-0.071,1.332,0.012c0.413,0.083,0.778,0.236,1.082,0.409
	c0.153,0.084,0.286,0.182,0.41,0.272c0.059,0.049,0.119,0.093,0.171,0.141c0.026,0.023,0.052,0.046,0.078,0.068
	c0.024,0.024,0.048,0.047,0.071,0.069c0.008,0.007,0.012,0.013,0.019,0.021c0.115,0.471,0.246,0.937,0.393,1.397
	c0.109,0.311,0.21,0.624,0.333,0.929c0.06,0.153,0.117,0.306,0.179,0.459l0.193,0.453c0.062,0.152,0.132,0.299,0.201,0.448
	c0.07,0.148,0.136,0.298,0.209,0.445c0.149,0.291,0.292,0.585,0.451,0.871c0.307,0.578,0.643,1.138,0.988,1.691
	c0.154,0.247,0.326,0.48,0.488,0.721l-0.045,0.075l-0.129,0.204c-0.087,0.135-0.17,0.273-0.259,0.407
	c-0.349,0.541-0.718,1.069-1.096,1.592c-0.378,0.524-0.769,1.038-1.175,1.541c-0.403,0.503-0.819,0.999-1.256,1.477
	c0.477-0.44,0.927-0.907,1.371-1.379c0.439-0.479,0.863-0.969,1.276-1.471c0.408-0.506,0.807-1.02,1.188-1.548
	c0.128-0.177,0.243-0.363,0.367-0.542c0.124,0.178,0.239,0.363,0.366,0.54c0.381,0.528,0.78,1.042,1.188,1.548
	c0.413,0.502,0.838,0.992,1.276,1.471c0.446,0.474,0.896,0.941,1.372,1.381c-0.437-0.478-0.853-0.974-1.257-1.477
	c-0.405-0.503-0.797-1.017-1.174-1.541c-0.378-0.523-0.747-1.051-1.096-1.592c-0.089-0.134-0.173-0.272-0.259-0.407l-0.129-0.204
	l-0.045-0.075c0.162-0.24,0.334-0.473,0.488-0.719c0.344-0.553,0.68-1.113,0.987-1.691c0.159-0.286,0.302-0.58,0.451-0.871
	c0.073-0.147,0.139-0.297,0.209-0.445c0.069-0.149,0.139-0.296,0.201-0.448l0.193-0.453c0.062-0.153,0.12-0.306,0.179-0.459
	c0.124-0.305,0.224-0.618,0.334-0.929c0.146-0.46,0.277-0.926,0.392-1.397c0.009-0.009,0.014-0.016,0.023-0.025
	c0.023-0.022,0.047-0.045,0.071-0.069c0.025-0.022,0.051-0.045,0.078-0.068c0.052-0.048,0.111-0.092,0.171-0.141
	c0.124-0.09,0.257-0.188,0.41-0.272c0.304-0.173,0.669-0.326,1.082-0.409c0.412-0.083,0.869-0.099,1.332-0.012
	c0.232,0.044,0.463,0.11,0.689,0.205l0.085,0.036l0.083,0.041c0.056,0.024,0.11,0.055,0.165,0.084l0.032,0.017l0.004,0.003
	l0.011,0.007l0.022,0.014l0.088,0.055l0.088,0.056c0.013,0.009,0.032,0.019,0.042,0.028l0.033,0.028
	c0.045,0.035,0.089,0.07,0.133,0.105c0.044,0.039,0.088,0.085,0.133,0.126c0.022,0.022,0.046,0.042,0.067,0.064l0.06,0.072
	l0.061,0.07l0.031,0.035l0.027,0.039c0.036,0.051,0.072,0.102,0.108,0.153c0.031,0.054,0.062,0.108,0.093,0.164
	c0.035,0.051,0.057,0.111,0.084,0.168l0.039,0.086c0.014,0.028,0.022,0.059,0.033,0.089c0.019,0.06,0.045,0.119,0.061,0.18
	l0.045,0.185c0.013,0.064,0.019,0.127,0.029,0.19c0.014,0.062,0.014,0.126,0.018,0.19c0.013,0.254-0.006,0.512-0.075,0.758
	c-0.008,0.031-0.012,0.064-0.023,0.093l-0.031,0.091c-0.022,0.06-0.036,0.122-0.067,0.179l-0.08,0.175l-0.101,0.175
	c-0.01,0.018-0.018,0.027-0.026,0.038l-0.025,0.032l-0.048,0.065c-0.014,0.022-0.038,0.044-0.057,0.068l-0.06,0.068
	c-0.018,0.024-0.042,0.043-0.064,0.064l-0.066,0.062c-0.021,0.023-0.046,0.039-0.07,0.058l-0.072,0.056
	c-0.196,0.142-0.418,0.246-0.65,0.308c-0.232,0.06-0.473,0.078-0.706,0.055l-0.088-0.008l-0.086-0.017
	c-0.056-0.012-0.114-0.021-0.169-0.041l-0.083-0.026l-0.042-0.012l-0.04-0.018l-0.08-0.033l-0.04-0.016l-0.02-0.008l-0.005-0.002
	c-0.005-0.003,0.026,0.015,0.011,0.007l-0.012-0.007l-0.089-0.048l-0.044-0.024c-0.007-0.005-0.016-0.008-0.021-0.013l-0.014-0.01
	l-0.06-0.04c-0.02-0.014-0.041-0.026-0.062-0.044c-0.084-0.068-0.163-0.142-0.231-0.223c-0.278-0.326-0.403-0.752-0.377-1.14
	c0.012-0.196,0.058-0.383,0.128-0.551l0.003-0.007l0.002-0.005c-0.01,0.017-0.002,0.002-0.004,0.005l0.009-0.017l0.017-0.034
	c0.011-0.024,0.023-0.045,0.034-0.068c0.022-0.04,0.043-0.068,0.063-0.104c0.022-0.034,0.051-0.068,0.075-0.101
	c0.026-0.033,0.056-0.06,0.083-0.091c0.231-0.231,0.517-0.355,0.76-0.393c0.246-0.041,0.452-0.016,0.585,0.019
	c0.069,0.013,0.118,0.033,0.153,0.044c0.034,0.012,0.053,0.017,0.053,0.017s-0.016-0.01-0.047-0.029
	c-0.033-0.017-0.078-0.052-0.144-0.079c-0.128-0.06-0.333-0.139-0.613-0.143c-0.07-0.005-0.143,0.005-0.221,0.01
	c-0.077,0.014-0.158,0.027-0.24,0.053c-0.165,0.047-0.337,0.129-0.502,0.249c-0.039,0.032-0.082,0.061-0.121,0.098
	c-0.037,0.039-0.077,0.073-0.115,0.116c-0.035,0.043-0.076,0.09-0.108,0.134c-0.014,0.019-0.028,0.042-0.043,0.063l-0.022,0.031
	l-0.011,0.015c-0.003,0.006,0.003-0.006-0.008,0.014l-0.002,0.004l-0.005,0.009c-0.117,0.196-0.204,0.426-0.251,0.677
	c-0.047,0.251-0.046,0.524,0.01,0.799c0.056,0.273,0.172,0.548,0.346,0.795c0.086,0.125,0.191,0.24,0.305,0.345
	c0.027,0.027,0.06,0.055,0.094,0.08c0.034,0.027,0.068,0.053,0.102,0.079l0.026,0.019c0.007,0.007,0.014,0.011,0.021,0.014
	l0.043,0.029l0.085,0.053l0.01,0.008c-0.013-0.008,0.022,0.013,0.021,0.011l0.006,0.004l0.026,0.013l0.052,0.026l0.105,0.053
	l0.054,0.026l0.055,0.023l0.112,0.042c0.074,0.03,0.152,0.049,0.231,0.07c0.039,0.01,0.078,0.02,0.118,0.029l0.121,0.02
	c0.646,0.107,1.36-0.038,1.935-0.435l0.105-0.077c0.035-0.027,0.071-0.052,0.103-0.082l0.099-0.087
	c0.033-0.029,0.067-0.057,0.095-0.091l0.09-0.096c0.029-0.034,0.06-0.063,0.088-0.103l0.084-0.115l0.043-0.058
	c0.014-0.019,0.029-0.039,0.037-0.054l0.058-0.096l0.028-0.048l0.014-0.024l0.007-0.012l0.014-0.025l0.003-0.007l0.109-0.233
	c0.039-0.076,0.062-0.16,0.092-0.241l0.042-0.122c0.015-0.04,0.023-0.083,0.033-0.125c0.09-0.333,0.115-0.681,0.093-1.022
	c-0.021-0.341-0.097-0.678-0.225-0.99c-0.127-0.312-0.291-0.607-0.505-0.859l-0.038-0.048l-0.042-0.046l-0.085-0.089l-0.084-0.089
	c-0.028-0.029-0.06-0.055-0.09-0.082c-0.062-0.053-0.122-0.107-0.186-0.157c-0.07-0.049-0.14-0.097-0.209-0.145l-0.052-0.035
	c-0.017-0.014-0.03-0.018-0.047-0.028l-0.092-0.05l-0.091-0.05l-0.063-0.035l-0.052-0.024c-0.068-0.031-0.136-0.064-0.207-0.09
	l-0.105-0.041l-0.106-0.036c-0.282-0.094-0.566-0.156-0.846-0.182c-0.56-0.056-1.092,0.021-1.549,0.171
	c-0.457,0.15-0.839,0.377-1.138,0.614c-0.195,0.155-0.345,0.313-0.477,0.467c0.009-0.043,0.022-0.084,0.03-0.127l0.051-0.243
	l0.025-0.122l0.02-0.122l0.078-0.491c0.029-0.164,0.041-0.329,0.06-0.494l0.027-0.248l0.025-0.241l0.046-0.483
	c0.015-0.16,0.028-0.323,0.048-0.48l0.057-0.473l0.028-0.237l0.035-0.236l0.069-0.475c0.023-0.158,0.054-0.314,0.08-0.471
	c0.05-0.315,0.117-0.627,0.179-0.939c0.029-0.156,0.067-0.31,0.103-0.466c0.036-0.154,0.068-0.311,0.109-0.463l0.121-0.461
	c0.039-0.155,0.088-0.305,0.131-0.458c0.183-0.607,0.382-1.21,0.622-1.793c0.239-0.585,0.508-1.156,0.814-1.703
	c0.303-0.549,0.648-1.072,1.033-1.557c0.194-0.24,0.398-0.473,0.614-0.688c0.106-0.108,0.218-0.211,0.331-0.309
	c0.057-0.049,0.113-0.097,0.171-0.141c0.029-0.022,0.058-0.043,0.086-0.064c0.025-0.018,0.061-0.042,0.073-0.05l0.038-0.025
	l0.021-0.018l0.003-0.003c0.349-0.25,0.735-0.451,1.146-0.575c0.415-0.131,0.851-0.189,1.286-0.177
	c0.435,0.01,0.868,0.096,1.278,0.246c0.205,0.075,0.403,0.168,0.592,0.277c0.189,0.109,0.37,0.233,0.54,0.37
	c0.17,0.138,0.327,0.291,0.473,0.455c0.036,0.042,0.073,0.082,0.106,0.125l0.102,0.13l0.001,0.001l0,0.001l0.013,0.019l0.024,0.038
	l0.049,0.075l0.1,0.15l0.143,0.27l0.121,0.298c0.03,0.104,0.065,0.205,0.091,0.309l0.03,0.159c0.009,0.053,0.025,0.105,0.027,0.159
	c0.055,0.429,0.02,0.87-0.101,1.288c-0.12,0.417-0.328,0.81-0.608,1.146c-0.064,0.089-0.148,0.162-0.223,0.241l-0.058,0.059
	c-0.019,0.019-0.041,0.035-0.062,0.053l-0.128,0.105l-0.062,0.053l-0.001,0.001l-0.005,0.004l-0.019,0.012l-0.037,0.026
	l-0.149,0.101c-0.027,0.019-0.047,0.026-0.069,0.039l-0.067,0.037c-0.046,0.023-0.087,0.051-0.139,0.07l-0.149,0.062
	c-0.025,0.012-0.051,0.02-0.077,0.028l-0.077,0.023l-0.078,0.024l-0.039,0.011l-0.039,0.009l-0.16,0.032l-0.04,0.008l-0.04,0.004
	l-0.081,0.009l-0.082,0.009l-0.041,0.004h-0.04l-0.164,0.001c-0.027,0-0.054-0.001-0.081-0.004l-0.082-0.007
	c-0.437-0.034-0.861-0.195-1.225-0.443c-0.024-0.014-0.046-0.03-0.067-0.048l-0.065-0.052l-0.065-0.052l-0.033-0.026l-0.03-0.029
	c-0.079-0.077-0.164-0.149-0.232-0.238l-0.055-0.064l-0.026-0.032l-0.014-0.016l-0.007-0.009l-0.102-0.148
	c-0.019-0.025-0.03-0.049-0.042-0.071l-0.038-0.068c-0.013-0.024-0.027-0.046-0.038-0.071l-0.032-0.076
	c-0.179-0.403-0.21-0.869-0.108-1.305l0.045-0.163c0.02-0.052,0.041-0.103,0.062-0.156c0.009-0.027,0.02-0.054,0.034-0.078
	l0.038-0.075c0.013-0.025,0.025-0.051,0.039-0.075l0.044-0.072c0.119-0.193,0.269-0.369,0.448-0.513l0.033-0.027l0.017-0.014
	c-0.001,0,0.006-0.005,0-0.001l0.004-0.003l0.009-0.006l0.074-0.052c0.024-0.015,0.05-0.035,0.074-0.049l0.072-0.04
	c0.025-0.013,0.048-0.028,0.074-0.039l0.078-0.034c0.053-0.024,0.107-0.041,0.162-0.058c0.218-0.067,0.452-0.09,0.684-0.067
	c0.231,0.022,0.459,0.094,0.666,0.207c0.207,0.114,0.392,0.271,0.541,0.46c-0.132-0.2-0.306-0.377-0.511-0.508
	c-0.204-0.134-0.437-0.226-0.681-0.268c-0.244-0.044-0.498-0.037-0.741,0.021c-0.062,0.015-0.123,0.03-0.181,0.053l-0.089,0.033
	c-0.029,0.01-0.058,0.027-0.087,0.04l-0.087,0.042c-0.029,0.014-0.052,0.03-0.079,0.046l-0.077,0.046l-0.01,0.006l-0.005,0.002
	l-0.009,0.006l-0.019,0.014l-0.038,0.029c-0.205,0.144-0.383,0.327-0.53,0.534c-0.146,0.205-0.264,0.435-0.335,0.682
	c-0.143,0.488-0.137,1.031,0.048,1.517l0.034,0.091c0.012,0.031,0.028,0.062,0.043,0.092l0.044,0.091
	c0.015,0.03,0.03,0.062,0.046,0.086l0.093,0.152l0.006,0.01c0.005,0.006-0.003-0.005,0.009,0.014l0.004,0.004l0.015,0.02
	l0.029,0.038l0.059,0.076c0.074,0.106,0.167,0.196,0.254,0.291c0.022,0.024,0.045,0.046,0.07,0.067l0.073,0.063l0.074,0.063
	c0.024,0.022,0.049,0.042,0.076,0.06c0.415,0.31,0.908,0.521,1.428,0.584l0.097,0.012c0.033,0.006,0.065,0.009,0.098,0.009
	l0.196,0.007l0.049,0.001l0.049-0.002l0.098-0.006l0.098-0.006l0.049-0.003l0.048-0.008l0.196-0.03l0.048-0.008l0.048-0.012
	l0.096-0.025l0.095-0.025c0.032-0.008,0.064-0.017,0.095-0.029l0.185-0.07c0.062-0.02,0.124-0.055,0.186-0.084l0.093-0.046
	c0.03-0.015,0.065-0.031,0.088-0.047l0.153-0.095l0.038-0.023l0.02-0.012l0.009-0.005c-0.009,0.006,0.018-0.012,0.017-0.012
	l0.004-0.004l0.077-0.059l0.154-0.12c0.025-0.021,0.052-0.04,0.076-0.061l0.071-0.067c0.092-0.092,0.193-0.176,0.273-0.279
	c0.347-0.391,0.611-0.855,0.771-1.354c0.161-0.499,0.219-1.032,0.167-1.557c-0.002-0.067-0.018-0.131-0.027-0.196L313.83,49.786z
	 M286.838,38.801c0.134-0.083,0.246-0.191,0.369-0.289l0.361-0.299c0.23-0.212,0.444-0.441,0.665-0.662
	c0.201-0.238,0.397-0.482,0.592-0.729c0.178-0.273,0.363-0.553,0.529-0.825l0.195-0.377l0.098-0.189l0.048-0.095l0.024-0.047
	l0.006-0.012l0.025-0.053l0.012-0.026l0.18-0.425c0.059-0.141,0.107-0.288,0.162-0.432c0.204-0.581,0.366-1.178,0.475-1.786
	c0.208-1.215,0.23-2.469,0.027-3.69c-0.198-1.22-0.59-2.412-1.175-3.505c-0.291-0.546-0.624-1.071-1.001-1.565
	c-0.378-0.492-0.799-0.951-1.253-1.375c-0.906-0.853-1.964-1.538-3.094-2.051l-0.036-0.017L284,20.337
	c-0.085-0.044-0.158-0.078-0.236-0.114c-0.099-0.044-0.198-0.087-0.295-0.127c-0.195-0.08-0.39-0.153-0.584-0.223
	c-0.389-0.134-0.777-0.258-1.169-0.359c-0.782-0.209-1.57-0.364-2.36-0.484c-1.579-0.231-3.167-0.321-4.745-0.287
	c-0.187,0.004-0.373,0.024-0.559,0.031c0.226-0.145,0.455-0.301,0.688-0.485c0.708-0.561,1.434-1.317,2.026-2.292
	c0.592-0.97,1.056-2.153,1.231-3.473c0.09-0.659,0.102-1.348,0.038-2.048l-0.026-0.263l-0.038-0.264
	c-0.022-0.176-0.06-0.351-0.097-0.527l-0.026-0.132l-0.045-0.162l-0.067-0.237l-0.067-0.239c-0.013-0.042-0.018-0.075-0.038-0.124
	l-0.053-0.139c-0.074-0.185-0.147-0.371-0.221-0.558c-0.082-0.177-0.173-0.341-0.262-0.512c-0.048-0.084-0.088-0.172-0.14-0.253
	l-0.159-0.242l-0.161-0.242l-0.081-0.121l-0.092-0.113c-0.465-0.629-1.056-1.167-1.706-1.627c-0.65-0.462-1.384-0.821-2.16-1.051
	c-0.774-0.234-1.589-0.363-2.404-0.338c-0.101,0.002-0.204-0.004-0.305,0.007l-0.304,0.031c-0.201,0.025-0.405,0.033-0.603,0.083
	l-0.595,0.125l-0.018,0.004l-0.065,0.019l-0.031,0.01l-0.063,0.02l-0.126,0.041l-0.253,0.08c-0.038,0.01-0.093,0.034-0.145,0.055
	l-0.156,0.065l-0.31,0.134c-0.108,0.042-0.188,0.097-0.282,0.147l-0.271,0.154c-0.092,0.049-0.174,0.111-0.26,0.17l-0.254,0.18
	c-0.086,0.058-0.163,0.126-0.242,0.194l-0.233,0.202c-1.224,1.11-1.942,2.677-2.046,4.221l-0.02,0.289
	c0,0.097,0.003,0.193,0.005,0.289c0.005,0.192,0.007,0.381,0.038,0.569l0.035,0.281l0.02,0.14l0.03,0.137l0.065,0.272l0.033,0.134
	l0.017,0.067l0.004,0.016c-0.002-0.002,0.025,0.088,0.016,0.056l0.01,0.028l0.081,0.226l0.04,0.112
	c0.008,0.02,0.012,0.037,0.022,0.058l0.031,0.07l0.125,0.276c0.041,0.091,0.084,0.182,0.133,0.258
	c0.182,0.322,0.39,0.624,0.632,0.889c0.478,0.533,1.045,0.948,1.647,1.226c0.601,0.277,1.229,0.426,1.832,0.455
	c0.604,0.026,1.18-0.05,1.695-0.215l0.024-0.007l0.012-0.003c0.052-0.014,0.021-0.006,0.035-0.01l0.042-0.017l0.084-0.033
	c0.056-0.022,0.112-0.044,0.167-0.065c0.117-0.05,0.251-0.119,0.37-0.179c0.119-0.063,0.221-0.135,0.327-0.201
	c0.105-0.068,0.197-0.153,0.292-0.225c0.366-0.313,0.647-0.667,0.845-1.021c0.105-0.174,0.178-0.355,0.249-0.524
	c0.057-0.175,0.118-0.339,0.145-0.503c0.141-0.647,0.072-1.161,0-1.49c-0.028-0.168-0.08-0.289-0.104-0.371
	c-0.028-0.083-0.042-0.125-0.042-0.125s0.004,0.045,0.011,0.131c0.006,0.087,0.025,0.211,0.019,0.377
	c0.007,0.327-0.046,0.813-0.273,1.356c-0.218,0.542-0.656,1.132-1.313,1.539c-0.085,0.046-0.166,0.1-0.256,0.141
	c-0.091,0.039-0.182,0.087-0.272,0.119c-0.093,0.028-0.17,0.06-0.275,0.09c-0.057,0.013-0.115,0.027-0.174,0.04l-0.087,0.021
	l-0.031,0.007l-0.009,0.001l-0.021,0.002c-0.427,0.073-0.881,0.078-1.336-0.002c-0.907-0.149-1.822-0.667-2.421-1.482
	c-0.151-0.201-0.278-0.423-0.387-0.654c-0.032-0.059-0.05-0.112-0.069-0.166l-0.061-0.158l-0.017-0.039
	c-0.005-0.016-0.01-0.038-0.015-0.056l-0.032-0.115l-0.063-0.231l-0.008-0.029c-0.012-0.042,0.011,0.039,0.009,0.026l-0.003-0.013
	l-0.008-0.05l-0.016-0.102l-0.032-0.202l-0.018-0.101l-0.006-0.103l-0.014-0.206c-0.016-0.137-0.006-0.275-0.001-0.414l0.006-0.207
	l0.029-0.207c0.074-0.55,0.24-1.095,0.508-1.596c0.268-0.5,0.628-0.955,1.06-1.332l0.166-0.136c0.055-0.046,0.11-0.094,0.171-0.13
	l0.179-0.12c0.06-0.039,0.117-0.083,0.183-0.113l0.191-0.101c0.062-0.031,0.128-0.076,0.186-0.094l0.177-0.076l0.087-0.04
	c0.029-0.013,0.055-0.026,0.102-0.039l0.457-0.141l0.445-0.088c0.147-0.039,0.3-0.038,0.45-0.057l0.225-0.023
	c0.075-0.009,0.151,0,0.227-0.003c0.604-0.027,1.21,0.068,1.788,0.237c0.144,0.043,0.291,0.078,0.429,0.142
	c0.139,0.057,0.282,0.105,0.419,0.168c0.134,0.069,0.268,0.137,0.402,0.205c0.134,0.068,0.255,0.158,0.383,0.235
	c0.063,0.042,0.13,0.077,0.189,0.124l0.176,0.138c0.116,0.093,0.241,0.176,0.345,0.283c0.109,0.102,0.217,0.203,0.326,0.304
	c0.098,0.11,0.196,0.222,0.294,0.332l0.074,0.082l0.065,0.089l0.129,0.179l0.13,0.177c0.043,0.06,0.075,0.126,0.113,0.188
	c0.071,0.126,0.152,0.253,0.219,0.376c0.056,0.122,0.113,0.242,0.173,0.364l0.044,0.089c0.016,0.028,0.028,0.075,0.042,0.112
	l0.082,0.233l0.08,0.234l0.02,0.058l0.009,0.028l0.026,0.094c0.037,0.143,0.078,0.283,0.105,0.427l0.048,0.213l0.037,0.214
	c0.098,0.571,0.125,1.141,0.103,1.697c-0.049,1.112-0.333,2.159-0.748,3.061c-0.41,0.907-0.96,1.664-1.522,2.271
	c-0.28,0.307-0.576,0.562-0.851,0.797c-0.143,0.112-0.277,0.225-0.415,0.318c-0.004,0.003-0.008,0.006-0.012,0.009
	c-1.014,0.07-2.024,0.166-3.026,0.313c-1.553,0.224-3.084,0.546-4.596,0.932c-0.377,0.1-0.758,0.188-1.131,0.299l-1.123,0.326
	c-0.374,0.107-0.742,0.235-1.113,0.351c-0.37,0.122-0.742,0.234-1.107,0.369l-1.099,0.389c-0.368,0.128-0.726,0.278-1.088,0.416
	c-0.361,0.143-0.726,0.278-1.083,0.428l-1.072,0.451l-0.536,0.226l-0.533,0.24l-1.064,0.482c-0.358,0.159-0.697,0.329-1.042,0.497
	l-1.031,0.504l-0.52,0.248l-0.505,0.239c-0.338,0.155-0.668,0.33-1.017,0.464l-1.036,0.428l-0.259,0.107l-0.264,0.095l-0.528,0.189
	c-1.402,0.526-2.85,0.933-4.306,1.305c-0.734,0.164-1.464,0.349-2.208,0.478c-0.37,0.069-0.739,0.146-1.111,0.208l-1.119,0.175
	c-0.372,0.062-0.748,0.108-1.123,0.154l-1.126,0.138c-0.752,0.071-1.504,0.162-2.261,0.208c-1.512,0.123-3.029,0.168-4.548,0.187
	l-1.14,0.001l-1.141-0.018l-0.57-0.008l-0.57-0.02c-0.38-0.014-0.761-0.021-1.141-0.043c-1.522-0.068-3.042-0.189-4.56-0.339
	c-1.518-0.144-3.035-0.33-4.546-0.558c-1.512-0.223-3.021-0.48-4.518-0.802c1.465,0.448,2.958,0.809,4.448,1.142
	c1.5,0.324,3.01,0.606,4.528,0.849c1.519,0.233,3.045,0.433,4.577,0.582c1.532,0.146,3.07,0.264,4.612,0.308
	c1.542,0.045,3.087,0.062,4.632,0c0.774-0.017,1.545-0.077,2.319-0.119c0.386-0.026,0.771-0.07,1.157-0.104
	c0.386-0.036,0.772-0.071,1.156-0.124l1.155-0.146c0.384-0.054,0.767-0.121,1.151-0.181c0.769-0.111,1.529-0.28,2.294-0.427
	c1.518-0.34,3.037-0.717,4.516-1.226l0.557-0.187l0.278-0.094l0.274-0.106l1.096-0.426c0.37-0.134,0.721-0.309,1.082-0.465
	l0.537-0.241l0.521-0.237l1.042-0.483c0.348-0.158,0.695-0.33,1.039-0.473l1.034-0.45l0.517-0.225l0.525-0.212l1.05-0.424
	c0.35-0.14,0.706-0.266,1.058-0.4c0.705-0.27,1.419-0.509,2.132-0.755c0.354-0.127,0.716-0.233,1.074-0.346
	c0.36-0.11,0.716-0.231,1.079-0.331l1.085-0.304c0.362-0.104,0.728-0.185,1.092-0.278c1.458-0.354,2.926-0.665,4.404-0.871
	c1.478-0.212,2.964-0.344,4.447-0.372c1.482-0.038,2.961,0.045,4.412,0.25c0.723,0.11,1.44,0.249,2.137,0.433
	c0.35,0.09,0.691,0.197,1.027,0.308c0.166,0.059,0.332,0.119,0.491,0.182c0.08,0.032,0.156,0.066,0.233,0.098
	c0.069,0.029,0.161,0.073,0.191,0.088l0.095,0.049l0.064,0.021l0.002,0c0.929,0.416,1.801,0.966,2.548,1.659
	c0.759,0.691,1.4,1.512,1.895,2.414c0.5,0.9,0.84,1.888,1.021,2.904c0.093,0.507,0.138,1.024,0.141,1.54
	c0.005,0.516-0.031,1.032-0.108,1.544c-0.081,0.511-0.205,1.016-0.367,1.509c-0.044,0.122-0.081,0.246-0.129,0.367l-0.145,0.362
	l-0.008,0.022l-0.015,0.032l-0.047,0.095l-0.094,0.191l-0.188,0.382l-0.38,0.613l-0.464,0.604c-0.177,0.182-0.343,0.375-0.525,0.553
	l-0.288,0.252c-0.097,0.081-0.185,0.177-0.293,0.245c-0.809,0.624-1.75,1.082-2.747,1.333c-0.997,0.251-2.049,0.298-3.069,0.126
	c-0.259-0.025-0.505-0.11-0.758-0.168l-0.189-0.047c-0.061-0.018-0.122-0.043-0.183-0.064l-0.366-0.134l-0.184-0.066l-0.011-0.004
	c-0.005-0.002,0.006,0.004,0.016,0.008l-0.02-0.009l-0.048-0.023l-0.097-0.046l-0.384-0.183c-0.071-0.03-0.108-0.063-0.163-0.094
	l-0.153-0.095c-0.102-0.064-0.207-0.114-0.308-0.198l-0.306-0.23c-0.053-0.037-0.101-0.08-0.146-0.123l-0.141-0.13l-0.142-0.13
	l-0.071-0.065l-0.064-0.071l-0.255-0.288l-0.065-0.071l-0.057-0.078l-0.113-0.155l-0.114-0.156l-0.058-0.079l-0.048-0.082
	l-0.198-0.333c-0.035-0.055-0.065-0.112-0.09-0.172l-0.081-0.175c-0.452-0.932-0.63-1.989-0.558-3.03
	c0-0.066,0.008-0.13,0.019-0.195l0.028-0.194l0.028-0.194l0.013-0.097l0.022-0.096c0.065-0.254,0.111-0.514,0.211-0.758l0.065-0.187
	l0.032-0.094l0.017-0.046l0.004-0.011l0.007-0.016l0.182-0.385c0.029-0.069,0.062-0.117,0.095-0.17l0.095-0.159
	c0.033-0.053,0.06-0.108,0.098-0.16l0.117-0.155c0.608-0.848,1.524-1.467,2.536-1.778l0.385-0.101
	c0.13-0.023,0.262-0.042,0.394-0.064c0.066-0.013,0.132-0.019,0.198-0.022l0.201-0.013c0.067-0.003,0.133-0.012,0.2-0.012l0.2,0.007
	c0.534,0.014,1.073,0.108,1.578,0.303l0.097,0.033l0.047,0.017c-0.001-0.001,0.019,0.008,0.001-0.001l0.012,0.006l0.024,0.011
	l0.192,0.09c0.063,0.03,0.132,0.058,0.189,0.091l0.168,0.1c0.056,0.035,0.114,0.063,0.169,0.103l0.163,0.12
	c0.113,0.076,0.211,0.168,0.312,0.259c0.398,0.366,0.724,0.817,0.953,1.317c0.229,0.5,0.359,1.05,0.373,1.609
	c0.015,0.558-0.085,1.123-0.292,1.652c0.251-0.509,0.404-1.074,0.429-1.651c0.028-0.577-0.063-1.162-0.266-1.71
	c-0.202-0.55-0.521-1.059-0.931-1.488c-0.103-0.106-0.206-0.214-0.323-0.305l-0.172-0.143c-0.057-0.048-0.124-0.088-0.186-0.131
	l-0.19-0.129c-0.064-0.042-0.126-0.069-0.188-0.106l-0.187-0.101l-0.023-0.014l-0.012-0.006l-0.023-0.01l-0.051-0.022l-0.103-0.043
	c-0.539-0.247-1.128-0.392-1.724-0.445c-0.596-0.054-1.206-0.02-1.793,0.129c-1.17,0.29-2.269,0.949-3.041,1.909l-0.147,0.179
	c-0.048,0.06-0.091,0.129-0.136,0.195l-0.133,0.2c-0.043,0.067-0.091,0.135-0.12,0.195l-0.201,0.375l-0.013,0.023
	c-0.006,0.014,0.006-0.013-0.016,0.034l-0.006,0.013l-0.021,0.053l-0.043,0.104l-0.087,0.21c-0.127,0.277-0.2,0.575-0.289,0.867
	c-0.024,0.072-0.041,0.147-0.054,0.222l-0.042,0.226l-0.042,0.226c-0.015,0.075-0.027,0.15-0.031,0.227
	c-0.137,1.215,0.022,2.476,0.512,3.611l0.091,0.214c0.028,0.072,0.06,0.143,0.099,0.21l0.22,0.409l0.056,0.102l0.065,0.096
	l0.129,0.193l0.129,0.194l0.066,0.096l0.073,0.091l0.296,0.359l0.074,0.09l0.082,0.083l0.165,0.167l0.165,0.165
	c0.054,0.057,0.111,0.111,0.172,0.158l0.362,0.296c0.115,0.102,0.26,0.189,0.395,0.28l0.205,0.134
	c0.067,0.042,0.142,0.097,0.202,0.125l0.376,0.199l0.094,0.05l0.047,0.025l0.023,0.011c-0.024-0.011,0.047,0.024,0.044,0.022
	l0.014,0.006l0.213,0.086l0.428,0.17c0.072,0.028,0.142,0.06,0.215,0.083l0.222,0.064c0.297,0.08,0.589,0.184,0.895,0.226
	c1.211,0.242,2.474,0.226,3.684-0.043C284.671,40.051,285.828,39.533,286.838,38.801z M264.195,31.835
	c-0.156,0.657-0.49,1.598-1.086,2.698c-0.306,0.545-0.671,1.133-1.144,1.715c-0.47,0.582-1.006,1.189-1.663,1.744
	c-0.652,0.557-1.391,1.095-2.235,1.548c-0.845,0.448-1.773,0.841-2.777,1.135c-1.007,0.288-2.089,0.462-3.215,0.556
	c-1.129,0.08-2.303,0.063-3.507-0.04c-2.41-0.231-4.913-0.856-7.434-1.71c-0.633-0.206-1.255-0.466-1.891-0.699
	c-0.631-0.248-1.255-0.529-1.889-0.794c-0.647-0.278-1.297-0.558-1.95-0.838c-0.659-0.273-1.345-0.526-2.021-0.792
	c-2.713-1.013-5.522-1.884-8.372-2.597c-2.854-0.693-5.744-1.228-8.607-1.613c-2.862-0.395-5.702-0.581-8.45-0.66
	c-2.749-0.08-5.409,0.015-7.919,0.22c-1.32,0.105-2.595,0.25-3.823,0.424c-0.44-0.223-0.872-0.444-1.316-0.667
	c-2.004-1.015-4.037-2.046-6.085-3.067c2.042-0.448,4.09-0.945,6.125-1.528c2.487-0.73,4.95-1.565,7.314-2.553
	c2.37-0.974,4.636-2.105,6.746-3.349c2.11-1.246,4.038-2.649,5.728-4.141c0.431-0.361,0.819-0.764,1.221-1.135
	c0.392-0.383,0.759-0.781,1.123-1.165c0.347-0.403,0.686-0.8,1.012-1.193c0.309-0.41,0.621-0.804,0.907-1.203
	c1.143-1.603,1.993-3.206,2.576-4.686c0.161-0.363,0.271-0.733,0.401-1.08c0.062-0.175,0.123-0.346,0.182-0.514
	c0.048-0.172,0.094-0.341,0.14-0.506c0.089-0.332,0.183-0.646,0.257-0.951c0.064-0.307,0.125-0.599,0.183-0.876
	c0.132-0.551,0.177-1.056,0.239-1.49c0.067-0.433,0.089-0.806,0.108-1.107c0.038-0.6,0.058-0.921,0.058-0.921
	s-0.059,0.315-0.171,0.905c-0.053,0.296-0.116,0.66-0.231,1.08c-0.113,0.419-0.208,0.908-0.387,1.437
	c-0.083,0.265-0.17,0.545-0.261,0.838c-0.101,0.289-0.223,0.588-0.341,0.899c-0.06,0.157-0.121,0.315-0.183,0.478
	c-0.071,0.158-0.143,0.319-0.217,0.484c-0.154,0.325-0.286,0.673-0.471,1.011c-0.679,1.378-1.617,2.842-2.792,4.307
	c-1.182,1.463-2.638,2.899-4.313,4.251c-1.678,1.35-3.588,2.597-5.641,3.754c-2.059,1.151-4.293,2.151-6.598,3.079
	c-2.31,0.918-4.71,1.728-7.146,2.433c-2.43,0.72-4.894,1.344-7.341,1.869c-0.339,0.072-0.672,0.136-1.01,0.206
	c-2.555-1.213-5.139-2.38-7.779-3.364c-1.43-0.553-2.889-1.004-4.369-1.386c-0.378-0.088-0.755-0.175-1.131-0.262
	c-0.376-0.088-0.726-0.131-1.089-0.199l-0.566-0.097l-0.556-0.065c-0.371-0.039-0.738-0.095-1.106-0.119
	c-1.469-0.13-2.916-0.154-4.326-0.108c-1.411,0.048-2.781,0.181-4.109,0.342c-2.653,0.343-5.118,0.883-7.353,1.502
	c-2.24,0.604-4.247,1.301-6.001,1.969c-1.759,0.663-3.253,1.329-4.474,1.893c-1.223,0.562-2.156,1.058-2.792,1.396
	c-0.634,0.341-0.965,0.535-0.965,0.535s0.348-0.16,1.013-0.44c0.663-0.279,1.645-0.661,2.898-1.129
	c2.51-0.922,6.14-2.141,10.595-3.12c2.225-0.488,4.66-0.884,7.242-1.134c2.583-0.228,5.32-0.259,8.102,0.035
	c0.349,0.03,0.694,0.092,1.043,0.137l0.524,0.072l0.508,0.1c0.353,0.074,0.729,0.132,1.066,0.22
	c0.338,0.087,0.677,0.174,1.017,0.262c1.371,0.394,2.767,0.855,4.15,1.393c1.737,0.663,3.467,1.42,5.192,2.217
	c-0.99,0.187-1.977,0.371-2.949,0.529c-2.358,0.381-4.645,0.722-6.821,0.997c-2.177,0.268-4.239,0.504-6.148,0.693
	c-1.909,0.18-3.661,0.335-5.217,0.454c-1.556,0.112-2.913,0.21-4.033,0.274c-1.121,0.06-2.002,0.107-2.602,0.139
	c-0.602,0.026-0.922,0.04-0.922,0.04s0.32,0.026,0.919,0.074c0.601,0.04,1.483,0.103,2.606,0.143
	c1.124,0.042,2.491,0.087,4.057,0.089c1.567,0.009,3.336-0.002,5.265-0.075c1.929-0.065,4.019-0.169,6.226-0.354
	c2.207-0.181,4.533-0.403,6.929-0.741c1.813-0.254,3.678-0.555,5.556-0.902c0.072,0.035,0.144,0.069,0.215,0.104
	c2.404,1.154,4.793,2.347,7.163,3.528c-2.157,0.415-4.107,0.936-5.804,1.482c-1.7,0.544-3.136,1.146-4.299,1.673
	c-1.159,0.542-2.032,1.037-2.617,1.387c-0.579,0.359-0.888,0.55-0.888,0.55s0.327-0.158,0.939-0.454
	c0.614-0.292,1.534-0.672,2.717-1.117c1.191-0.42,2.653-0.88,4.356-1.306c1.706-0.414,3.651-0.786,5.786-1.087
	c0.546-0.075,1.105-0.144,1.674-0.208c2.416,1.199,4.824,2.342,7.173,3.423c2.621,1.207,5.2,2.286,7.678,3.231
	c0.621,0.23,1.234,0.457,1.838,0.681c0.61,0.211,1.21,0.417,1.8,0.622c1.191,0.375,2.341,0.742,3.462,1.04
	c0.557,0.159,1.104,0.308,1.646,0.432c0.54,0.128,1.063,0.269,1.581,0.373c1.038,0.204,2.018,0.407,2.953,0.534
	c1.859,0.307,3.502,0.4,4.848,0.455c1.351,0.02,2.408-0.008,3.125-0.079c0.718-0.055,1.1-0.084,1.1-0.084s-0.383-0.008-1.102-0.023
	c-0.717,0.007-1.768-0.089-3.095-0.209c-1.325-0.162-2.927-0.394-4.735-0.809c-1.811-0.391-3.823-0.969-5.987-1.684
	c-2.163-0.72-4.471-1.607-6.879-2.63c-2.407-1.023-4.908-2.197-7.485-3.437c-1.42-0.684-2.859-1.409-4.311-2.146
	c0.542-0.034,1.09-0.065,1.647-0.09c2.468-0.103,5.073-0.078,7.761,0.048c2.689,0.127,5.456,0.425,8.252,0.813
	c2.795,0.397,5.614,0.946,8.395,1.64c2.786,0.672,5.536,1.503,8.182,2.465c0.655,0.25,1.309,0.498,1.958,0.745
	c0.654,0.262,1.305,0.524,1.951,0.783c0.664,0.259,1.316,0.534,1.977,0.774c0.667,0.227,1.317,0.481,1.983,0.68
	c2.644,0.846,5.309,1.381,7.876,1.527c1.284,0.054,2.542,0.037,3.748-0.118c1.205-0.167,2.358-0.42,3.427-0.792
	c1.064-0.381,2.048-0.848,2.918-1.396c0.87-0.55,1.619-1.18,2.267-1.818c1.298-1.286,2.119-2.664,2.643-3.839
	c0.524-1.182,0.743-2.177,0.838-2.854c0.039-0.342,0.067-0.6,0.068-0.777c0.006-0.176,0.009-0.267,0.009-0.267
	s-0.012,0.09-0.039,0.268C264.323,31.251,264.267,31.506,264.195,31.835z M452.57,41.208c-0.421-0.701-0.959-1.292-1.557-1.74
	c-0.597-0.447-1.239-0.769-1.879-0.959l-0.029-0.01l-0.015-0.004c-0.064-0.021-0.026-0.008-0.043-0.013l-0.056-0.014l-0.108-0.025
	c-0.071-0.017-0.143-0.033-0.216-0.049c-0.153-0.031-0.338-0.053-0.501-0.075c-0.166-0.018-0.319-0.015-0.475-0.021
	c-0.154-0.003-0.307,0.02-0.454,0.026c-0.593,0.066-1.124,0.233-1.574,0.456c-0.229,0.106-0.428,0.24-0.62,0.362
	c-0.179,0.141-0.353,0.266-0.495,0.413c-0.595,0.563-0.882,1.137-1.038,1.522c-0.089,0.19-0.12,0.351-0.151,0.452
	c-0.029,0.104-0.045,0.157-0.045,0.157s0.027-0.049,0.08-0.142c0.055-0.092,0.122-0.233,0.244-0.398
	c0.22-0.338,0.612-0.799,1.222-1.195c0.602-0.401,1.459-0.7,2.413-0.658c0.118,0.012,0.239,0.014,0.359,0.035
	c0.118,0.024,0.245,0.038,0.36,0.067c0.114,0.036,0.214,0.057,0.342,0.1c0.068,0.026,0.138,0.053,0.207,0.079l0.104,0.039
	l0.053,0.02c-0.009-0.002,0.038,0.013-0.017-0.004l0.012,0.005l0.022,0.011c0.486,0.224,0.954,0.536,1.362,0.933
	c0.824,0.784,1.399,1.95,1.442,3.199c0.015,0.312-0.009,0.626-0.059,0.938c-0.008,0.082-0.026,0.15-0.044,0.217l-0.049,0.206
	l-0.012,0.051c-0.004,0.019-0.015,0.044-0.022,0.067l-0.048,0.139l-0.096,0.281l-0.012,0.034c-0.018,0.05,0.015-0.048,0.01-0.033
	l-0.008,0.014l-0.027,0.058l-0.054,0.113l-0.108,0.23l-0.052,0.116l-0.065,0.109l-0.13,0.221c-0.078,0.15-0.185,0.285-0.285,0.422
	l-0.151,0.207l-0.173,0.191c-0.458,0.51-1.009,0.95-1.631,1.276c-0.621,0.324-1.306,0.539-2.009,0.624l-0.264,0.024
	c-0.09,0.009-0.177,0.019-0.267,0.013l-0.266-0.002c-0.089-0.001-0.178,0.004-0.267-0.011l-0.265-0.029
	c-0.086-0.013-0.185-0.014-0.257-0.034l-0.232-0.046l-0.117-0.021c-0.039-0.006-0.075-0.01-0.133-0.029l-0.562-0.175l-0.518-0.219
	c-0.177-0.063-0.332-0.169-0.499-0.256l-0.246-0.133c-0.083-0.043-0.154-0.104-0.234-0.154c-0.635-0.393-1.189-0.91-1.661-1.485
	c-0.117-0.145-0.243-0.284-0.339-0.444c-0.103-0.156-0.215-0.305-0.311-0.464l-0.269-0.489c-0.088-0.162-0.149-0.339-0.227-0.507
	c-0.035-0.085-0.079-0.167-0.106-0.256l-0.083-0.264c-0.055-0.176-0.124-0.348-0.155-0.53c-0.041-0.179-0.082-0.358-0.123-0.537
	c-0.022-0.181-0.046-0.362-0.068-0.543l-0.019-0.136l-0.004-0.137l-0.007-0.271l-0.01-0.272c-0.002-0.09,0.011-0.18,0.015-0.27
	c0.016-0.178,0.019-0.364,0.037-0.536c0.028-0.165,0.054-0.328,0.076-0.492l0.017-0.124c0.003-0.039,0.024-0.096,0.034-0.143
	l0.081-0.295l0.08-0.295l0.02-0.074l0.01-0.037l0.004-0.015l0.033-0.097c0.061-0.173,0.119-0.345,0.19-0.51l0.1-0.251l0.111-0.245
	c0.296-0.651,0.665-1.253,1.075-1.804c0.823-1.104,1.843-1.974,2.893-2.608c1.052-0.641,2.14-1.032,3.136-1.26
	c0.498-0.12,0.979-0.174,1.425-0.224c0.223-0.013,0.439-0.036,0.646-0.035c0.103-0.002,0.204-0.005,0.302-0.007
	c0.101,0.002,0.195,0.003,0.29,0.005c0.751,0.022,1.349,0.103,1.75,0.176c0.408,0.082,0.625,0.126,0.625,0.126
	s-0.051-0.023-0.148-0.069c-0.098-0.043-0.238-0.118-0.43-0.194c-0.388-0.155-0.963-0.375-1.735-0.537
	c-0.77-0.165-1.738-0.274-2.857-0.196c-1.115,0.082-2.383,0.348-3.665,0.931c-1.279,0.579-2.577,1.465-3.674,2.692
	c-0.551,0.609-1.042,1.307-1.464,2.065l-0.156,0.287l-0.146,0.295c-0.101,0.195-0.181,0.4-0.268,0.606l-0.064,0.153l-0.066,0.197
	l-0.098,0.29l-0.097,0.29c-0.016,0.052-0.034,0.09-0.048,0.153l-0.042,0.179c-0.053,0.241-0.108,0.481-0.162,0.725
	c-0.039,0.237-0.062,0.468-0.088,0.705c-0.011,0.118-0.031,0.235-0.034,0.355l-0.006,0.356l-0.004,0.36v0.179l0.015,0.181
	c0.038,0.964,0.266,1.926,0.61,2.848c0.343,0.923,0.843,1.801,1.476,2.576c0.626,0.778,1.371,1.477,2.219,2.018
	c0.104,0.07,0.205,0.146,0.317,0.207l0.332,0.179c0.224,0.114,0.438,0.249,0.673,0.336l0.694,0.286l0.022,0.008l0.079,0.025
	l0.039,0.012l0.08,0.023l0.157,0.047l0.314,0.093c0.046,0.016,0.118,0.03,0.186,0.045l0.204,0.043l0.408,0.079
	c0.142,0.032,0.262,0.031,0.393,0.046l0.385,0.03c0.128,0.014,0.257,0.008,0.385,0.007l0.384-0.007
	c0.128,0.001,0.255-0.015,0.382-0.029l0.38-0.045c2.022-0.28,3.846-1.382,5.026-2.888l0.221-0.281
	c0.067-0.098,0.131-0.199,0.195-0.298c0.129-0.199,0.259-0.395,0.358-0.607l0.159-0.312l0.078-0.154l0.062-0.162l0.123-0.322
	l0.061-0.161l0.03-0.08l0.007-0.021c0,0.004,0.035-0.107,0.022-0.068l0.009-0.036l0.075-0.286l0.038-0.143
	c0.006-0.025,0.013-0.045,0.019-0.075l0.017-0.092c0.022-0.123,0.044-0.246,0.065-0.369c0.02-0.123,0.041-0.246,0.044-0.356
	c0.038-0.457,0.035-0.911-0.028-1.348C453.283,42.729,452.991,41.91,452.57,41.208z M331.928,22.924
	c0.358,0.113,0.719,0.219,1.074,0.346c0.712,0.246,1.428,0.485,2.132,0.755c0.353,0.134,0.708,0.26,1.059,0.4l1.05,0.424
	l0.525,0.212l0.518,0.225l1.034,0.45c0.344,0.143,0.691,0.315,1.039,0.473l1.041,0.483l0.522,0.237l0.538,0.241
	c0.36,0.156,0.712,0.331,1.081,0.465l1.096,0.426l0.274,0.106l0.278,0.094l0.556,0.187c1.48,0.509,2.998,0.886,4.517,1.226
	c0.765,0.147,1.525,0.316,2.294,0.427c0.384,0.06,0.766,0.127,1.15,0.181l1.155,0.146c0.384,0.053,0.77,0.088,1.156,0.124
	c0.385,0.034,0.771,0.078,1.157,0.104c0.774,0.042,1.545,0.102,2.318,0.119c1.545,0.062,3.09,0.045,4.632,0
	c1.542-0.044,3.079-0.162,4.611-0.308c1.533-0.149,3.058-0.349,4.577-0.582c1.518-0.243,3.028-0.525,4.528-0.849
	c1.503-0.333,2.996-0.694,4.461-1.142c-1.497,0.322-3.006,0.579-4.518,0.802c-1.511,0.228-3.027,0.414-4.546,0.558
	c-1.518,0.15-3.038,0.271-4.56,0.339c-0.38,0.022-0.761,0.029-1.142,0.043l-0.57,0.02l-0.57,0.008l-1.141,0.018l-1.14-0.001
	c-1.519-0.019-3.038-0.064-4.548-0.187c-0.756-0.046-1.509-0.137-2.262-0.208l-1.126-0.138c-0.374-0.046-0.75-0.092-1.122-0.154
	l-1.12-0.175c-0.372-0.062-0.741-0.139-1.111-0.208c-0.744-0.129-1.474-0.314-2.207-0.478c-1.457-0.372-2.905-0.779-4.306-1.305
	l-0.528-0.189l-0.264-0.095l-0.259-0.107l-1.036-0.428c-0.349-0.134-0.679-0.309-1.018-0.464l-0.505-0.239l-0.52-0.248l-1.03-0.504
	c-0.346-0.168-0.684-0.338-1.043-0.497l-1.064-0.482l-0.534-0.24l-0.535-0.226l-1.072-0.451c-0.358-0.15-0.722-0.285-1.083-0.428
	c-0.363-0.138-0.721-0.288-1.088-0.416l-1.099-0.389c-0.365-0.135-0.737-0.247-1.107-0.369c-0.371-0.116-0.739-0.244-1.113-0.351
	l-1.124-0.326c-0.373-0.111-0.754-0.199-1.131-0.299c-1.512-0.386-3.043-0.708-4.596-0.932c-1.001-0.147-2.01-0.243-3.022-0.313
	c-0.004-0.003-0.008-0.006-0.013-0.009c-0.138-0.093-0.272-0.206-0.415-0.318c-0.276-0.235-0.571-0.49-0.85-0.797
	c-0.562-0.607-1.112-1.364-1.523-2.271c-0.414-0.902-0.698-1.949-0.747-3.061c-0.022-0.556,0.004-1.126,0.103-1.697l0.037-0.214
	l0.048-0.213c0.028-0.144,0.068-0.284,0.106-0.427l0.022-0.084l0.003-0.008l0.01-0.03l0.02-0.058l0.081-0.234l0.081-0.233
	c0.015-0.037,0.026-0.084,0.042-0.112l0.045-0.089c0.059-0.122,0.117-0.242,0.172-0.364c0.067-0.123,0.149-0.25,0.22-0.376
	c0.038-0.062,0.069-0.128,0.113-0.188l0.13-0.177l0.129-0.179l0.064-0.089l0.074-0.082c0.098-0.11,0.196-0.222,0.294-0.332
	c0.108-0.101,0.217-0.202,0.326-0.304c0.104-0.107,0.229-0.19,0.346-0.283l0.175-0.138c0.059-0.047,0.126-0.082,0.188-0.124
	c0.129-0.077,0.25-0.167,0.383-0.235c0.134-0.068,0.269-0.136,0.403-0.205c0.137-0.063,0.28-0.111,0.418-0.168
	c0.138-0.064,0.285-0.099,0.429-0.142c0.577-0.169,1.184-0.264,1.788-0.237c0.076,0.003,0.151-0.006,0.227,0.003l0.226,0.023
	c0.15,0.019,0.302,0.018,0.45,0.057l0.446,0.088l0.456,0.141c0.047,0.013,0.073,0.026,0.102,0.039l0.087,0.04l0.177,0.076
	c0.057,0.018,0.124,0.063,0.186,0.094l0.19,0.101c0.066,0.03,0.124,0.074,0.183,0.113l0.18,0.12c0.061,0.036,0.116,0.084,0.171,0.13
	l0.167,0.136c0.431,0.377,0.791,0.832,1.06,1.332c0.267,0.501,0.434,1.046,0.508,1.596l0.029,0.207l0.006,0.207
	c0.005,0.139,0.015,0.277-0.001,0.414l-0.014,0.206l-0.005,0.103l-0.018,0.101l-0.032,0.202l-0.016,0.102L329,11.038l-0.003,0.013
	c-0.002,0.013,0.021-0.068,0.009-0.026l-0.007,0.029l-0.063,0.231l-0.031,0.115c-0.006,0.018-0.01,0.04-0.016,0.056l-0.016,0.039
	l-0.061,0.158c-0.019,0.054-0.037,0.107-0.069,0.166c-0.108,0.231-0.236,0.453-0.388,0.654c-0.598,0.815-1.513,1.333-2.42,1.482
	c-0.455,0.08-0.91,0.075-1.337,0.002l-0.021-0.002l-0.01-0.001c0.001,0,0,0,0.001,0l-0.033-0.007l-0.087-0.021
	c-0.059-0.013-0.116-0.027-0.174-0.04c-0.105-0.03-0.182-0.062-0.275-0.09c-0.09-0.032-0.182-0.08-0.272-0.119
	c-0.089-0.041-0.17-0.095-0.256-0.141c-0.656-0.407-1.094-0.997-1.313-1.539c-0.228-0.543-0.28-1.029-0.273-1.356
	c-0.006-0.166,0.013-0.29,0.019-0.377c0.007-0.086,0.011-0.131,0.011-0.131s-0.014,0.042-0.042,0.125
	c-0.024,0.082-0.077,0.203-0.104,0.371c-0.072,0.329-0.141,0.843,0.001,1.49c0.027,0.164,0.088,0.328,0.145,0.503
	c0.071,0.169,0.144,0.35,0.249,0.524c0.198,0.354,0.479,0.708,0.845,1.021c0.094,0.072,0.187,0.157,0.291,0.225
	c0.107,0.066,0.208,0.138,0.327,0.201c0.119,0.06,0.253,0.129,0.37,0.179c0.055,0.021,0.11,0.043,0.167,0.065l0.084,0.033
	l0.042,0.017c0.014,0.004-0.017-0.004,0.034,0.01l0.012,0.003l0.025,0.007c0.514,0.165,1.09,0.241,1.694,0.215
	c0.603-0.029,1.231-0.178,1.833-0.455c0.601-0.278,1.169-0.693,1.647-1.226c0.242-0.265,0.449-0.567,0.631-0.889
	c0.05-0.076,0.092-0.167,0.134-0.258l0.125-0.276l0.031-0.07c0.009-0.021,0.014-0.038,0.021-0.058l0.04-0.112l0.081-0.226
	l0.011-0.028c-0.01,0.032,0.017-0.058,0.015-0.056l0.004-0.016l0.017-0.067l0.033-0.134l0.065-0.272l0.03-0.137l0.02-0.14
	l0.036-0.281c0.031-0.188,0.033-0.377,0.037-0.569c0.002-0.096,0.006-0.192,0.006-0.289l-0.02-0.289
	c-0.103-1.544-0.822-3.111-2.046-4.221l-0.234-0.202c-0.078-0.068-0.155-0.136-0.241-0.194l-0.254-0.18
	c-0.085-0.059-0.168-0.121-0.26-0.17l-0.272-0.154c-0.093-0.05-0.173-0.105-0.282-0.147l-0.31-0.134l-0.156-0.065
	c-0.052-0.021-0.107-0.045-0.145-0.055l-0.252-0.08l-0.127-0.041l-0.063-0.02l-0.032-0.01l-0.064-0.019l-0.018-0.004l-0.595-0.125
	c-0.198-0.05-0.402-0.058-0.604-0.083l-0.303-0.031c-0.101-0.011-0.204-0.005-0.306-0.007c-0.815-0.025-1.63,0.104-2.404,0.338
	c-0.776,0.23-1.51,0.589-2.16,1.051c-0.649,0.46-1.241,0.998-1.706,1.627l-0.092,0.113l-0.081,0.121l-0.161,0.242l-0.159,0.242
	c-0.053,0.081-0.093,0.169-0.14,0.253c-0.089,0.171-0.18,0.335-0.261,0.512c-0.075,0.187-0.148,0.373-0.222,0.558l-0.053,0.139
	c-0.02,0.049-0.025,0.082-0.038,0.124l-0.067,0.239l-0.067,0.237l-0.045,0.162L316.6,9.419c-0.036,0.176-0.075,0.351-0.097,0.527
	l-0.038,0.264l-0.026,0.263c-0.063,0.7-0.052,1.389,0.038,2.048c0.175,1.32,0.639,2.503,1.231,3.473
	c0.591,0.975,1.318,1.731,2.026,2.292c0.234,0.185,0.465,0.342,0.693,0.488c-0.188-0.007-0.374-0.027-0.562-0.031
	c-1.579-0.034-3.166,0.056-4.746,0.287c-0.79,0.12-1.577,0.275-2.359,0.484c-0.392,0.101-0.781,0.225-1.169,0.359
	c-0.194,0.07-0.389,0.143-0.583,0.223c-0.099,0.04-0.197,0.083-0.295,0.127c-0.077,0.035-0.15,0.07-0.234,0.113l-0.001,0
	l-0.05,0.016l-0.036,0.017c-1.13,0.513-2.189,1.198-3.094,2.051c-0.454,0.424-0.875,0.883-1.253,1.375
	c-0.377,0.494-0.71,1.019-1.001,1.565c-0.585,1.093-0.977,2.285-1.174,3.505c-0.203,1.221-0.182,2.475,0.027,3.69
	c0.109,0.608,0.271,1.205,0.475,1.786c0.055,0.144,0.103,0.291,0.162,0.432l0.18,0.425l0.012,0.026l0.024,0.053l0.006,0.012
	l0.025,0.047l0.049,0.095l0.097,0.189l0.196,0.377c0.166,0.272,0.351,0.552,0.528,0.825c0.195,0.247,0.391,0.491,0.593,0.729
	c0.221,0.221,0.435,0.45,0.666,0.662l0.359,0.299c0.123,0.098,0.236,0.206,0.369,0.289c1.01,0.732,2.168,1.25,3.378,1.517
	c1.21,0.269,2.473,0.285,3.683,0.043c0.306-0.042,0.599-0.146,0.896-0.226l0.221-0.064c0.073-0.023,0.144-0.055,0.216-0.083
	l0.428-0.17l0.214-0.086l0.014-0.006c-0.003,0.002,0.068-0.033,0.043-0.022l0.024-0.011l0.047-0.025l0.094-0.05l0.376-0.199
	c0.06-0.028,0.135-0.083,0.201-0.125l0.205-0.134c0.135-0.091,0.28-0.178,0.395-0.28l0.363-0.296
	c0.062-0.047,0.118-0.101,0.172-0.158l0.165-0.165l0.165-0.167l0.082-0.083l0.074-0.09l0.296-0.359l0.073-0.091l0.065-0.096
	l0.129-0.194l0.129-0.193l0.064-0.096l0.056-0.102l0.22-0.409c0.039-0.067,0.07-0.138,0.099-0.21l0.09-0.214
	c0.49-1.135,0.649-2.396,0.513-3.611c-0.004-0.077-0.016-0.152-0.032-0.227l-0.041-0.226l-0.042-0.226
	c-0.013-0.075-0.03-0.15-0.054-0.222c-0.088-0.292-0.162-0.59-0.29-0.867l-0.087-0.21l-0.043-0.104l-0.022-0.053l-0.006-0.013
	c-0.022-0.047-0.009-0.02-0.016-0.034l-0.013-0.023l-0.201-0.375c-0.029-0.06-0.077-0.128-0.121-0.195l-0.133-0.2
	c-0.045-0.066-0.088-0.135-0.137-0.195l-0.146-0.179c-0.773-0.96-1.871-1.619-3.042-1.909c-0.586-0.149-1.197-0.183-1.793-0.129
	c-0.597,0.053-1.185,0.198-1.724,0.445l-0.103,0.043l-0.051,0.022l-0.023,0.01l-0.012,0.006l-0.023,0.014l-0.187,0.101
	c-0.063,0.037-0.124,0.064-0.188,0.106l-0.19,0.129c-0.062,0.043-0.129,0.083-0.187,0.131l-0.171,0.143
	c-0.117,0.091-0.22,0.199-0.323,0.305c-0.41,0.429-0.728,0.938-0.931,1.488c-0.203,0.548-0.294,1.133-0.267,1.71
	c0.025,0.577,0.179,1.142,0.429,1.651c-0.207-0.529-0.308-1.094-0.292-1.652c0.014-0.559,0.143-1.109,0.373-1.609
	s0.555-0.951,0.953-1.317c0.101-0.091,0.199-0.183,0.312-0.259l0.163-0.12c0.055-0.04,0.112-0.068,0.168-0.103l0.168-0.1
	c0.056-0.033,0.127-0.061,0.189-0.091l0.193-0.09l0.024-0.011l0.012-0.006c-0.019,0.009,0.001,0,0.001,0.001l0.047-0.017
	l0.097-0.033c0.505-0.195,1.044-0.289,1.578-0.303l0.201-0.007c0.066,0,0.133,0.009,0.2,0.012l0.2,0.013
	c0.066,0.003,0.132,0.009,0.198,0.022c0.132,0.022,0.264,0.041,0.393,0.064l0.386,0.101c1.012,0.311,1.927,0.93,2.536,1.778
	l0.117,0.155c0.038,0.052,0.065,0.107,0.098,0.16l0.096,0.159c0.032,0.053,0.065,0.101,0.094,0.17l0.182,0.385l0.011,0.024
	c-0.003-0.005,0.014,0.03-0.005-0.009l0.004,0.012l0.016,0.046l0.033,0.094l0.065,0.187c0.099,0.244,0.146,0.504,0.21,0.758
	l0.022,0.096l0.013,0.097l0.028,0.194l0.027,0.194c0.011,0.065,0.019,0.129,0.019,0.195c0.071,1.041-0.106,2.098-0.558,3.03
	l-0.082,0.175c-0.025,0.06-0.055,0.117-0.09,0.172l-0.198,0.333l-0.048,0.082l-0.058,0.079l-0.114,0.156l-0.114,0.155l-0.057,0.078
	l-0.065,0.071l-0.256,0.288l-0.064,0.071l-0.071,0.065l-0.142,0.13l-0.142,0.13c-0.045,0.043-0.094,0.086-0.146,0.123l-0.306,0.23
	c-0.1,0.084-0.206,0.134-0.308,0.198l-0.154,0.095c-0.055,0.031-0.092,0.064-0.163,0.094l-0.384,0.183l-0.096,0.046l-0.048,0.023
	l-0.02,0.009c0.009-0.004,0.02-0.01,0.016-0.008l-0.011,0.004l-0.184,0.066l-0.367,0.134c-0.061,0.021-0.121,0.046-0.183,0.064
	l-0.189,0.047c-0.253,0.058-0.499,0.143-0.758,0.168c-1.021,0.172-2.072,0.125-3.068-0.126c-0.997-0.251-1.939-0.709-2.747-1.333
	c-0.108-0.068-0.196-0.164-0.294-0.245l-0.287-0.252c-0.183-0.178-0.348-0.371-0.525-0.553l-0.464-0.604l-0.38-0.613l-0.187-0.382
	l-0.095-0.191l-0.046-0.095l-0.016-0.033l-0.008-0.021l-0.144-0.362c-0.049-0.121-0.085-0.245-0.129-0.367
	c-0.161-0.493-0.286-0.998-0.367-1.509c-0.078-0.512-0.113-1.028-0.108-1.544c0.003-0.516,0.048-1.033,0.141-1.54
	c0.181-1.016,0.521-2.004,1.022-2.904c0.495-0.902,1.136-1.723,1.895-2.414c0.748-0.693,1.62-1.243,2.551-1.659l0.064-0.021
	l0.096-0.049c0.03-0.015,0.122-0.059,0.19-0.088c0.077-0.032,0.153-0.066,0.233-0.098c0.159-0.063,0.325-0.123,0.491-0.182
	c0.335-0.111,0.677-0.218,1.026-0.308c0.697-0.184,1.414-0.323,2.137-0.433c1.451-0.205,2.93-0.288,4.412-0.25
	c1.483,0.028,2.969,0.16,4.447,0.372c1.479,0.206,2.947,0.517,4.404,0.871c0.364,0.093,0.73,0.174,1.091,0.278l1.086,0.304
	C331.212,22.693,331.568,22.814,331.928,22.924z M451.31,27.137c-1.221-0.564-2.715-1.23-4.474-1.893
	c-1.754-0.668-3.761-1.365-6.001-1.969c-2.234-0.619-4.701-1.159-7.353-1.502c-1.328-0.161-2.698-0.294-4.108-0.342
	c-1.41-0.046-2.857-0.022-4.327,0.108c-0.368,0.024-0.735,0.08-1.105,0.119l-0.556,0.065l-0.566,0.097
	c-0.363,0.068-0.713,0.111-1.089,0.199c-0.376,0.087-0.753,0.174-1.131,0.262c-1.48,0.382-2.938,0.833-4.369,1.386
	c-2.639,0.984-5.224,2.151-7.779,3.364c-0.338-0.07-0.672-0.134-1.012-0.206c-2.447-0.525-4.91-1.149-7.341-1.869
	c-2.434-0.705-4.835-1.515-7.146-2.433c-2.305-0.928-4.539-1.928-6.598-3.079c-2.052-1.157-3.962-2.404-5.641-3.754
	c-1.675-1.352-3.131-2.788-4.313-4.251c-1.175-1.465-2.113-2.929-2.793-4.307c-0.183-0.338-0.317-0.686-0.47-1.011
	c-0.074-0.165-0.147-0.326-0.217-0.484c-0.062-0.163-0.122-0.321-0.183-0.478c-0.118-0.311-0.239-0.61-0.341-0.899
	c-0.092-0.293-0.179-0.573-0.261-0.838c-0.181-0.529-0.274-1.018-0.388-1.437c-0.115-0.42-0.178-0.784-0.231-1.08
	c-0.11-0.59-0.17-0.905-0.17-0.905s0.02,0.321,0.059,0.921c0.019,0.301,0.041,0.674,0.108,1.107c0.062,0.434,0.108,0.939,0.239,1.49
	c0.057,0.277,0.119,0.569,0.183,0.876c0.074,0.305,0.168,0.619,0.256,0.951c0.047,0.165,0.094,0.334,0.141,0.506
	c0.059,0.168,0.12,0.339,0.183,0.514c0.129,0.347,0.24,0.717,0.4,1.08c0.583,1.48,1.433,3.083,2.576,4.686
	c0.287,0.399,0.598,0.793,0.907,1.203c0.326,0.393,0.666,0.79,1.012,1.193c0.364,0.384,0.732,0.782,1.123,1.165
	c0.402,0.371,0.79,0.774,1.222,1.135c1.689,1.492,3.618,2.895,5.728,4.141c2.11,1.244,4.376,2.375,6.746,3.349
	c2.364,0.988,4.827,1.823,7.314,2.553c2.035,0.583,4.083,1.08,6.125,1.528c-2.048,1.02-4.081,2.052-6.085,3.067
	c-0.444,0.223-0.876,0.444-1.317,0.668c-1.23-0.175-2.506-0.32-3.827-0.425c-2.511-0.205-5.17-0.3-7.919-0.22
	c-2.747,0.079-5.588,0.265-8.451,0.66c-2.862,0.385-5.752,0.92-8.607,1.613c-2.85,0.713-5.659,1.584-8.372,2.597
	c-0.676,0.266-1.362,0.519-2.021,0.792c-0.654,0.28-1.304,0.56-1.95,0.838c-0.635,0.265-1.259,0.546-1.89,0.794
	c-0.636,0.233-1.258,0.493-1.891,0.699c-2.52,0.854-5.024,1.479-7.433,1.71c-1.204,0.103-2.378,0.12-3.507,0.04
	c-1.125-0.094-2.208-0.268-3.215-0.556c-1.004-0.294-1.932-0.687-2.777-1.135c-0.843-0.453-1.583-0.991-2.235-1.548
	c-0.658-0.555-1.193-1.162-1.663-1.744c-0.473-0.582-0.838-1.17-1.144-1.715c-0.596-1.1-0.929-2.041-1.086-2.698
	c-0.073-0.329-0.128-0.584-0.147-0.76c-0.022-0.178-0.034-0.268-0.034-0.268s0.003,0.091,0.009,0.267
	c0.001,0.177,0.029,0.435,0.068,0.777c0.096,0.677,0.313,1.672,0.838,2.854c0.524,1.175,1.345,2.553,2.642,3.839
	c0.647,0.638,1.397,1.268,2.267,1.818c0.871,0.548,1.854,1.015,2.918,1.396c1.069,0.372,2.222,0.625,3.427,0.792
	c1.207,0.155,2.464,0.172,3.749,0.118c2.567-0.146,5.231-0.681,7.875-1.527c0.666-0.199,1.316-0.453,1.983-0.68
	c0.661-0.24,1.313-0.515,1.977-0.774c0.646-0.259,1.297-0.521,1.951-0.783c0.649-0.247,1.302-0.495,1.957-0.745
	c2.648-0.962,5.396-1.793,8.182-2.465c2.781-0.694,5.6-1.243,8.395-1.64c2.796-0.388,5.563-0.686,8.252-0.813
	c2.689-0.126,5.294-0.151,7.76-0.048c0.559,0.025,1.108,0.056,1.652,0.09c-1.452,0.738-2.891,1.462-4.311,2.146
	c-2.577,1.24-5.078,2.414-7.485,3.437c-2.409,1.023-4.716,1.91-6.879,2.63c-2.164,0.715-4.175,1.293-5.987,1.684
	c-1.809,0.415-3.411,0.647-4.735,0.809c-1.327,0.12-2.377,0.216-3.096,0.209c-0.718,0.015-1.102,0.023-1.102,0.023
	s0.382,0.029,1.099,0.084c0.718,0.071,1.776,0.099,3.125,0.079c1.346-0.055,2.989-0.148,4.848-0.455
	c0.935-0.127,1.914-0.33,2.952-0.534c0.519-0.104,1.042-0.245,1.582-0.373c0.541-0.124,1.089-0.273,1.646-0.432
	c1.121-0.298,2.271-0.665,3.463-1.04c0.59-0.205,1.19-0.411,1.799-0.622c0.604-0.224,1.217-0.451,1.839-0.681
	c2.479-0.945,5.058-2.024,7.678-3.231c2.348-1.081,4.757-2.224,7.172-3.422c0.569,0.063,1.126,0.132,1.671,0.207
	c2.136,0.301,4.081,0.673,5.787,1.087c1.702,0.426,3.163,0.886,4.356,1.306c1.181,0.445,2.102,0.825,2.716,1.117
	c0.612,0.296,0.939,0.454,0.939,0.454s-0.309-0.191-0.888-0.55c-0.585-0.35-1.458-0.845-2.617-1.387
	c-1.162-0.527-2.599-1.129-4.299-1.673c-1.696-0.546-3.644-1.066-5.802-1.481c2.371-1.181,4.76-2.374,7.165-3.529
	c0.072-0.035,0.144-0.069,0.215-0.104c1.877,0.346,3.743,0.647,5.556,0.902c2.396,0.338,4.723,0.56,6.929,0.741
	c2.206,0.185,4.297,0.289,6.227,0.354c1.929,0.073,3.698,0.084,5.265,0.075c1.566-0.002,2.933-0.047,4.056-0.089
	c1.123-0.04,2.005-0.103,2.607-0.143c0.597-0.048,0.917-0.074,0.917-0.074s-0.319-0.014-0.922-0.04
	c-0.6-0.032-1.48-0.079-2.601-0.139c-1.12-0.064-2.478-0.162-4.034-0.274c-1.555-0.119-3.308-0.274-5.217-0.454
	c-1.908-0.189-3.97-0.425-6.148-0.693c-2.176-0.275-4.463-0.616-6.82-0.997c-0.971-0.158-1.959-0.341-2.948-0.529
	c1.725-0.798,3.456-1.555,5.192-2.217c1.383-0.538,2.779-0.999,4.151-1.393c0.341-0.088,0.679-0.175,1.017-0.262
	c0.337-0.088,0.713-0.146,1.066-0.22l0.508-0.1l0.522-0.072c0.35-0.045,0.695-0.107,1.044-0.137
	c2.783-0.294,5.519-0.263,8.102-0.035c2.582,0.25,5.017,0.646,7.243,1.134c4.453,0.979,8.084,2.198,10.595,3.12
	c1.253,0.468,2.235,0.85,2.897,1.129c0.664,0.28,1.013,0.44,1.013,0.44s-0.332-0.194-0.966-0.535
	C453.466,28.195,452.533,27.699,451.31,27.137z M590.268,26.766h-6.109h-0.858H468.422h-0.977h-5.99l-3.483,2.571l3.483,2.571h5.99
	h0.977h114.879h0.858h6.109l3.483-2.571L590.268,26.766z M126.186,26.766h-0.857H10.45H9.472H3.483L0,29.337l3.483,2.571h5.989
	h0.978h114.879h0.857h6.11l3.483-2.571l-3.483-2.571H126.186z M294.418,40.401c0.117,0.146,0.252,0.329,0.399,0.542
	c0.141,0.22,0.305,0.462,0.453,0.746c0.159,0.277,0.31,0.589,0.46,0.922c0.152,0.332,0.293,0.691,0.436,1.062
	c0.121,0.382,0.275,0.762,0.374,1.17c0.111,0.402,0.225,0.811,0.302,1.23c0.089,0.415,0.17,0.831,0.214,1.248
	c0.055,0.415,0.116,0.821,0.156,1.217c0.051,0.393,0.125,0.771,0.181,1.132c0.049,0.363,0.104,0.705,0.164,1.022
	c0.062,0.317,0.109,0.608,0.15,0.869c0.045,0.259,0.087,0.486,0.128,0.673c0.08,0.374,0.143,0.59,0.143,0.59h0.096
	c0,0,0.002-0.007,0.002-0.009c0.005-0.018,0.064-0.225,0.14-0.583c0.041-0.187,0.084-0.414,0.129-0.673
	c0.042-0.261,0.089-0.552,0.15-0.869c0.06-0.317,0.114-0.659,0.164-1.022c0.056-0.361,0.131-0.739,0.181-1.132
	c0.04-0.397,0.101-0.803,0.156-1.217c0.044-0.417,0.125-0.833,0.214-1.248c0.078-0.418,0.191-0.827,0.303-1.23
	c0.098-0.408,0.252-0.789,0.373-1.17c0.143-0.371,0.284-0.73,0.435-1.062c0.151-0.333,0.301-0.645,0.46-0.922
	c0.148-0.284,0.313-0.526,0.454-0.746c0.148-0.213,0.281-0.396,0.399-0.542c0.235-0.291,0.392-0.435,0.392-0.435l-0.063-0.076
	c0,0-0.182,0.128-0.457,0.395c-0.141,0.132-0.298,0.303-0.472,0.507c-0.167,0.206-0.363,0.439-0.546,0.712
	c-0.194,0.268-0.382,0.571-0.573,0.897c-0.196,0.326-0.364,0.687-0.547,1.057c-0.158,0.379-0.35,0.765-0.487,1.175
	c-0.15,0.407-0.303,0.821-0.419,1.246l-0.193,0.632c-0.054,0.212-0.107,0.424-0.161,0.634c-0.03,0.112-0.055,0.223-0.082,0.335
	c-0.027-0.111-0.052-0.221-0.082-0.333c-0.053-0.21-0.107-0.422-0.161-0.634l-0.192-0.632c-0.117-0.425-0.269-0.839-0.42-1.246
	c-0.136-0.41-0.329-0.796-0.486-1.175c-0.183-0.37-0.352-0.732-0.547-1.057c-0.191-0.326-0.38-0.629-0.574-0.897
	c-0.183-0.273-0.379-0.506-0.546-0.712c-0.174-0.204-0.331-0.375-0.471-0.507c-0.275-0.267-0.457-0.395-0.457-0.395l-0.065,0.076
	C294.025,39.966,294.183,40.11,294.418,40.401z"/>
</svg>
