<?xml version="1.0" encoding="iso-8859-1"?>
<!-- Generator: Adobe Illustrator 17.0.0, SVG Export Plug-In . SVG Version: 6.00 Build 0)  -->
<!DOCTYPE svg PUBLIC "-//W3C//DTD SVG 1.1//EN" "http://www.w3.org/Graphics/SVG/1.1/DTD/svg11.dtd">
<svg version="1.1" xmlns="http://www.w3.org/2000/svg" xmlns:xlink="http://www.w3.org/1999/xlink" x="0px" y="0px" width="128px"
	 height="128px" viewBox="0 0 128 128" style="enable-background:new 0 0 128 128;" xml:space="preserve">
<g id="icons">
	<g>
		<circle style="fill:#88C5CC;" cx="64" cy="64" r="64"/>
		<g>
			<g>
				<path style="fill:#F5F5F5;" d="M48,18h44c1.1,0,2.073,0.9,2.073,2v82c0,1.1-0.974,2-2.073,2H30c-1.1,0-1.927-0.9-1.927-2V39
					L48,18z"/>
				<path style="fill:#E6E6E6;" d="M46,39c1.1,0,2.073-0.9,2.073-2V18L28,39H46z"/>
			</g>
			<circle style="fill:#2179A6;" cx="88" cy="98" r="13"/>
			<path style="fill:#F5F5F5;" d="M88.073,106c-0.553,0-1-0.447-1-1V91c0-0.553,0.447-1,1-1c0.553,0,1,0.447,1,1v14
				C89.073,105.553,88.626,106,88.073,106z"/>
			<path style="fill:#F5F5F5;" d="M95,99H81c-0.553,0-1-0.447-1-1c0-0.553,0.447-1,1-1h14c0.553,0,1,0.447,1,1
				C96,98.553,95.553,99,95,99z"/>
		</g>
	</g>
</g>
<g id="header">
</g>
</svg>
