<?xml version="1.0" encoding="utf-8"?>
<!-- Generator: Adobe Illustrator 16.0.0, SVG Export Plug-In . SVG Version: 6.00 Build 0)  -->
<!DOCTYPE svg PUBLIC "-//W3C//DTD SVG 1.1//EN" "http://www.w3.org/Graphics/SVG/1.1/DTD/svg11.dtd">
<svg version="1.1" xmlns="http://www.w3.org/2000/svg" xmlns:xlink="http://www.w3.org/1999/xlink" x="0px" y="0px"
	 width="35.189px" height="37.189px" viewBox="0 0 35.189 37.189" enable-background="new 0 0 35.189 37.189" xml:space="preserve">
<g id="_x2014_腩x5F_11">
</g>
<g id="_x2014_腩x5F_2">
	<path fill="#B4142F" d="M26.194,29.847c0.24,0.232,0.66,1.092,0.713,1.436c-0.139-0.109-0.287-0.203-0.427-0.314
		c0.126,0.523,0.397,1.014,0.614,1.527c-0.13-0.041-0.283-0.129-0.376-0.189c-3.628,0.076-1.64,2.418-2.183,4.351
		c-0.057,0.195-0.086,0.363-0.174,0.533c-0.13-0.18-0.285-0.514-0.354-0.788c-0.048,0.171-0.193,0.388-0.34,0.505
		c-0.131-0.338-0.358-0.79-0.354-0.788c-0.08,0.176-0.297,0.563-0.331,0.479c-0.033-0.084-0.283-0.575-0.458-0.913
		c-0.025,0.084-0.143,0.259-0.148,0.363c-0.152-0.406-0.271-0.877-0.467-1.255c-0.055,0.241-0.077,0.577-0.104,0.849
		c-0.211-0.414-0.312-1.07-0.565-1.392c-0.06,0.208-0.046,0.417-0.103,0.626c-0.145-0.287-0.39-0.748-0.389-1.061
		c-0.165,0.24-0.123,0.564-0.121,0.852c-0.182-0.344-0.387-0.75-0.401-1.149c0.023,0.167-0.021,0.356-0.065,0.519
		c-0.291-0.072-0.297-0.712-0.325-0.886c-0.083,0.142-0.201,0.296-0.318,0.439c-0.124-0.139-0.3-1.205-0.429-0.582
		c-0.119-0.325-0.137-0.76-0.18-1.087c-0.258,0.15-0.207,0.543-0.279,0.809c-0.24-0.473-0.268-1.004-0.4-1.469
		c-0.078,0.111-0.155,0.253-0.256,0.349c-0.193-0.408-0.221-0.784-0.338-1.194c-0.135,0.045-0.221,0.174-0.289,0.297
		c-0.201-0.162-0.71-0.931-0.73-1.164c1.897-0.186,3.668,0.105,4.762,0.451c-0.175,0.859-0.457,1.825-0.331,1.896
		c0.234,0.133,0.394-0.848,0.573-1.715c0.058-0.276,0.467-0.284,0.682,0.127c0.645,1.234,1.604,3.227,1.801,3.23
		c0.083-0.339-0.701-1.828-1.373-3.148C25.986,31.92,26.356,29.929,26.194,29.847z M12.815,28.649
		c0.576,0.738,1.348,1.695,1.232,1.857c-0.164,0.232-2.086-2.164-2.133-2.057c-0.5,1.18-1.244,5.328-1.729,5.67
		c-0.212-0.191,0.982-4.244,1.042-5.008c-0.847,0.531-2.249,1.851-2.377,1.486c-0.083-0.236,2.312-1.605,2.56-2.249
		c0.148-0.386-1.129-0.755-1.92-1.308C9.246,27.13,9.04,27.199,8.909,27.23c0.047-0.132,0.179-0.257,0.365-0.375
		c-0.957-0.659-1.482-1.288-1.852-1.278c-0.263,0.458-0.869,0.814-0.762,1.416c0.145-0.053,0.307-0.096,0.447-0.037
		c-0.195,0.418-0.439,0.748-0.572,1.219c0.151-0.007,0.314-0.066,0.458-0.104c-0.223,0.477-0.577,0.932-0.718,1.49
		c0.249-0.168,0.486-0.525,0.805-0.465c-0.197,0.299-0.492,0.668-0.626,1.02c0.548-0.42-0.065,0.58-0.063,0.782
		c0.198-0.034,0.405-0.077,0.574-0.134c-0.1,0.163-0.551,0.691-0.363,0.957c0.15-0.102,0.322-0.225,0.422-0.379
		c-0.271,0.339-0.393,0.818-0.488,1.229c0.201-0.235,0.398-0.531,0.703-0.611c-0.223,0.257-0.35,0.807-0.434,1.146
		c0.194-0.13,0.332-0.312,0.528-0.439c-0.021,0.444-0.405,1.054-0.527,1.542c0.216-0.203,0.474-0.463,0.688-0.621
		c-0.108,0.449-0.346,0.92-0.51,1.361c0.079-0.082,0.299-0.141,0.379-0.192c-0.096,0.401-0.241,0.983-0.273,1.075
		c-0.032,0.093,0.422-0.07,0.613-0.158c-0.002-0.005,7.951-3.873,8.117-4.253c0.063,0.126,0.119,0.286,0.176,0.424
		c0.15-0.479,0.461-2.347,0.461-2.347S15.021,29.468,12.815,28.649z M16.982,10.026c-0.313,0.228-0.183,1.365-0.239,1.727
		c-0.057,0.363-0.881,1.07-0.984,1.736c-0.104,0.664-0.02,1.514-0.262,2.064c-0.24,0.551-0.167,2.854,0.119,3.395
		c0.287,0.54-0.195,1.053-0.115,1.53s0.036,0.562,0.412,0.931c0.376,0.369,0.794,1.457,1.09,1.937
		c0.297,0.479,1.707,1.165,2.188,1.457c0.481,0.292,1.325,0.641,1.648,0.351c0.324-0.289,0.324-0.878,0.068-1.229
		c-0.254-0.349-2.554-1.885-3.492-4.789c-0.94-2.902-0.022-6.785,0.682-8.316S17.228,9.847,16.982,10.026z M15.472,10.966
		c0,0-3.791,5.229-3.883,5.617c-0.092,0.389,0.333,1.633,0.857,2.643c0.522,1.012,2.487,2.311,3.569,2.912
		c-0.134-0.33-0.688-0.943-0.79-1.083c-0.103-0.14-0.415-0.716-0.212-1.024s0.266-1.104-0.03-1.584
		c-0.297-0.48-0.083-2.242,0.12-2.552c0.203-0.309,0.319-1.839,0.255-2.221s0.51-1.282,0.704-1.531
		c0.193-0.248,0.377-1.024,0.339-1.372L15.472,10.966z M19.13,21.635c-0.246-0.12,1.131,1.478,1.338,1.54
		c0.207,0.064,3.48,0.515,4.222,0.135c0.74-0.379,2.028-0.891,1.868-1.256c-0.159-0.365,0.127-0.414,0.684-0.605
		s1.892-1.005,1.98-1.177s0.994-0.618,1.023-0.8c0.028-0.182-0.147-0.643-0.316-0.947c-0.17-0.305-0.135-0.92-0.078-1.281
		c0.057-0.363-0.015-1.49-0.181-2.012c-0.167-0.521-0.853-2.27-1.107-2.619s-1.071-1.468-1.405-1.707
		c-0.334-0.238-1.073-0.662-1.073-0.662s0.729,0.484,0.866,1.188c0.139,0.703-0.218,0.803-0.081,0.917
		c0.138,0.114,1.058,0.794,1.188,1.114c2.48,6.117-3.757,7.186-5.02,7.143C22.253,21.07,19.878,21.999,19.13,21.635z M23.737,9.009
		c-1.135-0.31-3.14-0.121-4.207,0.766c-1.068,0.886-1.572,2.324-1.588,2.818c-0.015,0.492,0.201,0.495,0.459,0.039
		c0.257-0.454,2.004-1.582,3.658-1.811c1.995-0.277,3.018,0.316,4.09,0.979C27.878,12.041,25.341,9.445,23.737,9.009z M20.99,14.493
		c-0.027,0.77,0.587,1.393,0.766,1.637c0.179,0.245-0.333,0.351-0.068,1.229s1.593,1.303,1.593,1.303
		c-0.414-0.127-0.922-1.631-1.223-2.483c-0.3-0.853-0.161-4.113-0.161-4.113C21.464,12.647,21.018,13.724,20.99,14.493z
		 M22.713,20.306c0,0-1.673-0.555-1.878-0.665c-0.885-0.479-3.25-1.593-3.464-1.812c0.225,1.336,1.114,3.364,1.493,3.517
		C19.243,21.497,22.103,20.644,22.713,20.306z M17.575,17.521c0.261,0.506,2.429,1.494,3.705,1.85
		c1.275,0.354,4.139-0.127,4.92-0.965c-0.925,0.568-2.891,0.662-4.271,0.385c-1.381-0.279-3.639-2.624-4.372-2.542
		C17.21,16.286,17.313,17.015,17.575,17.521z M20.87,12.492c0.902-0.819,2.244-0.888,2.244-0.888
		c-0.004-0.371-0.465-0.196-0.855-0.072c-0.391,0.125-1.828,0.799-1.969,0.9c-0.139,0.102-0.078,0.7-0.176,0.933
		c-0.1,0.231-1.991,2.631-1.762,2.945s0.723,0.329,0.923,0.237C19.275,16.548,20.388,12.929,20.87,12.492z M22.729,19.813
		c0,0,0.933,0.766,2.204,0.158c1.271-0.605,1.838-0.857,1.834-1.23c-0.004-0.371,0.073-0.267,0.388-0.496s0.522-1.56,0.329-1.9
		c-0.195-0.34-0.674-0.848-1.281-0.727c-0.607,0.122-1.23,0.737-1.321,1.125c-0.093,0.389-0.196,1.054-0.53,1.404
		c-0.332,0.35-0.742,0.596-0.742,0.596s2.43-0.487,3.133-0.625C26.214,19.306,23.106,19.965,22.729,19.813z M24.581,13.909
		c0,0-0.602-0.311-0.777-0.771s-0.211-1.025-0.313-1.164c-0.102-0.14-1.326,0.164-1.326,0.164l-0.022,2.319
		C22.618,13.788,24.581,13.909,24.581,13.909z M24.79,15.149c0.279,0.385,0.482,0.076,0.616-0.182s0.286-0.637-0.138-0.703
		c-0.423-0.066-1.782-0.119-1.314-0.113C24.171,14.155,24.509,14.766,24.79,15.149z M21.392,16.878
		c0.04-0.457-0.015-0.899-0.263-1.094c-0.249-0.193-0.392-1.604-0.248-2.176c0.165-0.654,0.037-0.83,0.037-0.83
		s-0.612,1.732-0.985,2.541c-0.375,0.809-0.75,1.616-0.75,1.616s1.533,1.292,1.803,1.149c0.271-0.144,1.295,0.233,1.295,0.233
		C21.688,17.947,21.351,17.337,21.392,16.878z M18.903,12.587c-0.229,0.274-1.02,0.584-1.153,0.842s-0.361,1.121-0.517,1.715
		c-0.154,0.596,0.023,0.84,0.196,0.93c0.171,0.088,0.589-0.001,0.667-0.113c0.08-0.111,1.73-2.547,1.699-2.738
		c-0.032-0.19,0.033-0.613,0.307-0.973c0.273-0.36,2.662-0.978,2.662-0.978C20.963,10.711,19.133,12.313,18.903,12.587z
		 M23.953,15.546c0,0-0.204,0.778-0.54,0.875c-0.486,0.141-0.93-0.393-0.93-0.393s0.467,1.373,0.957,1.016
		C23.93,16.688,24.05,16.118,23.953,15.546z M24.361,16.104c0,0-0.56,2.391-1.768,0.807c0,0,0.656,1.551,1.229,1.246
		C24.634,17.728,24.444,16.365,24.361,16.104z M23.72,11.699c0.527-0.01,1.26,0.259,1.633,0.844s0.747,2.347,0.986,2.601
		c0.238,0.256,1.324,0.642,1.576,1.207c0.252,0.566,0.48,0.293,0.461-0.176c-0.02-0.467-0.531-2.344-1.01-2.852
		c-0.477-0.508-2.117-2.098-3.934-2.164C22.999,11.153,23.72,11.699,23.72,11.699z M25.257,5.452c0.021-0.336-3.385-2.511-3.83-2.24
		c-0.445,0.271-3.18,1.516-3.605,1.666s-1.027-0.16-1.402,0.059c-0.375,0.221-3.084,3.481-3.91,4.406
		c-0.826,0.924-4.086,3.355-4.717,3.814c-0.628,0.458-1.398,1.445-1.006,1.912c0.252,0.299,1.196,0.896,1.863,1.318
		c0.59,0.372,1.545,1.016,2.26,0.602c0.715-0.415,4.28-6.175,4.836-6.955c0.555-0.779,3.916-2.268,4.659-2.863
		s3.585-0.74,3.925-0.935C24.329,6.236,25.235,5.79,25.257,5.452z M30.243,16.312c-0.062,0.52,1.075-2.712,1.154-3.411
		c0.078-0.7,0.418-1.483,0.242-1.944s-0.957-1.604-1.25-1.713s-1.298-0.018-1.854,0.175c-0.557,0.191-0.92,0.135-1.061-0.353
		c-0.141-0.486-1.104-1.659-1.832-1.556c-0.728,0.103-3.419,0.084-4.027,0.206c-0.606,0.122-3.125,0.78-3.439,1.01
		s-0.512,0.694-0.27,0.731c0.242,0.038,0.951,0.057,1.908-0.32s4.22-1.043,6.631,0.573C28.856,11.327,30.351,15.432,30.243,16.312z
		 M30.357,17.735c-0.021,0.336,0.564,1.242,0.46,1.804c-0.072,0.392-0.478,0.576-0.896,0.882c-0.42,0.307-2.352,1.51-2.618,1.653
		c-0.45,0.243,0.221,0.38-0.804,1.128c-0.949,0.693-2.893,0.859-3.455,0.895c-0.564,0.036-1.83-0.36-1.667-0.211
		c0.163,0.148,0.419,0.485,0.362,0.849c-0.057,0.362-0.293,0.991-0.9,1.112c-0.607,0.122-3.426-1.441-3.726-1.705
		s-0.659-1.123-1.019-1.396c-0.36-0.273-2.961-1.75-3.349-2.322c-0.219,0.131-0.961,0.95-1.368,1.568
		c-0.406,0.617-0.59,0.805-0.43,1.17c0.159,0.365,0.665,1.768,0.828,2.505c0.164,0.738,0.693,1.009,1.062,1.223
		c0.37,0.212,2.323,0.923,2.973,0.932c0.648,0.009,7.937,2.512,8.541,2.606c0.605,0.094,1.381,0.278,1.454,0.011
		s0.358-0.903,0.673-1.134c0.314-0.229,1.898-0.26,2.582-0.865s1.533-4.064,1.54-4.498c0.005-0.432,0.886-3.484,0.729-4.066
		c-0.158-0.581-0.174-1.742-0.646-2.207C30.497,17.483,30.38,17.397,30.357,17.735z M31.636,19.688c0,0,0.91-4.037,1.336-4.775
		c0.425-0.738,1.87-2.062,2.115-2.24c0.244-0.178-0.018-0.684-0.064-0.97c-0.049-0.286-5.438-5.031-5.645-5.095
		s-2.594-0.252-2.905-0.238s-4.812,0.672-5.413,0.949c-0.191,0.032,0.074,0.321,0.596,0.154c0.521-0.166,3.73-0.097,4.338-0.219
		c0.607-0.121,1.09,0.76,1.293,1.039c0.205,0.279,0.34,1.199,1.01,0.87c0.672-0.329,1.753-0.313,2.253-0.144
		c0.499,0.172,1.421,1.803,1.476,2.244c0.055,0.442-1.201,5.107-1.465,5.407S31.599,18.538,31.636,19.688z M15.255,28.136
		c-1.717-0.104-3.637-1.561-3.77-2.035c-0.131-0.475-1.161-2.865-1.026-3.463c0.135-0.6,1.985-2.662,1.978-2.871
		c-0.01-0.207-0.716-1.764-0.975-2.217c-0.26-0.453-1.163-0.223-1.545-0.158c-0.381,0.062-3.276-1.752-3.553-2.621
		c-0.277-0.869,3.426-3.428,3.719-3.713c0.291-0.284,2.418-2.264,2.805-2.617c0.385-0.352,0.439-0.963-0.002-0.783
		c-0.44,0.178-2.086,0.664-2.195,1.101s-0.062,1.188-1.164,1.635c-1.103,0.446-4.482,3.841-5.291,5.573
		c-0.807,1.73,1.288,4.701,1.632,4.879s0.628,0.471,0.438,0.895c-0.19,0.425-0.912,0.807,2.07,3.916s8.869,4,9.336,3.402
		C17.971,28.726,16.974,28.239,15.255,28.136z M30.379,6.61c0.603-0.264-3.923-5.523-5.76-5.939
		c-1.006-0.229-0.669,0.469-0.923,0.512c-0.255,0.043-0.371-0.425-0.689-0.764s-7.17-1.411-9.583,2.134
		c-2.413,3.546-3.722,5.57-3.437,5.862c0.285,0.293,1.568-0.787,2.403-1.109c0.835-0.324,1.657-0.567,2.009-0.967
		c0.352-0.398,1.636-1.479,1.987-1.877s1.362,0.006,2.362-0.58c1-0.587,2.115-1.114,2.9-1.115c0.783-0.002,3.607,2.01,3.799,2.369
		c0.191,0.361,0.565,1.062,0.887,0.924C27.53,5.545,29.892,6.823,30.379,6.61z M4.858,28.158c0.275,0.405,3.503-3.632,3.555-5.034
		c0.027-0.768-0.436-0.426-0.502-0.605c-0.066-0.182,0.26-0.33,0.464-0.609c0.204-0.281,0.046-5.444-2.882-6.723
		c-2.928-1.277-4.59-1.957-4.766-1.707c-0.174,0.248,0.793,1.039,1.145,1.605c0.352,0.567,0.643,1.136,0.983,1.338
		c0.341,0.203,1.308,0.994,1.648,1.196s0.183,0.997,0.749,1.649c0.568,0.65,1.107,1.395,1.217,1.969
		c0.108,0.574-0.975,2.918-1.212,3.107c-0.237,0.191-0.7,0.561-0.554,0.777C5.245,25.927,4.636,27.831,4.858,28.158z"/>
</g>
<g id="_x2014_腩x5F_3">
</g>
<g id="_x2014_腩x5F_10">
</g>
<g id="_x2014_腩x5F_5">
</g>
<g id="_x2014_腩x5F_15">
</g>
<g id="_x2014_腩x5F_12">
</g>
<g id="_x2014_腩x5F_7">
</g>
<g id="_x2014_腩x5F_4">
</g>
<g id="_x2014_腩x5F_13">
	<g id="Layer_13">
	</g>
</g>
<g id="_x2014_腩x5F_9">
</g>
<g id="_x2014_腩x5F_14">
</g>
</svg>
