<?xml version="1.0" encoding="utf-8"?><!DOCTYPE svg PUBLIC "-//W3C//DTD SVG 1.1//EN" "http://www.w3.org/Graphics/SVG/1.1/DTD/svg11.dtd"><svg version="1.1" baseProfile="full" xmlns="http://www.w3.org/2000/svg" xmlns:xlink="http://www.w3.org/1999/xlink" xmlns:ev="http://www.w3.org/2001/xml-events"   height="495px"   width="300px" ><path stroke="rgb( 14, 5, 10 )" stroke-width="0px" stroke-linecap="butt" stroke-linejoin="miter" fill="rgb( 255, 255, 255 )" d="M0,115 C0,115 300,115 300,115 C300,115 300,495 300,495 C300,495 0,495 0,495 C0,495 0,115 0,115 Z "/><path stroke="rgb( 14, 5, 10 )" stroke-width="0px" stroke-linecap="butt" stroke-linejoin="miter" fill="rgb( 89, 222, 255 )" d="M0,115 C0,115 0,15 0,15 C0,15 300,15 300,15 C300,15 300,115 300,115 C300,115 0,115 0,115 ZM30,25 C24.477,25 20,29.477 20,35 C20,40.523 24.477,45 30,45 C35.523,45 40,40.523 40,35 C40,29.477 35.523,25 30,25 ZM70,25 C64.477,25 60,29.477 60,35 C60,40.523 64.477,45 70,45 C75.523,45 80,40.523 80,35 C80,29.477 75.523,25 70,25 ZM110,25 C104.477,25 100,29.477 100,35 C100,40.523 104.477,45 110,45 C115.523,45 120,40.523 120,35 C120,29.477 115.523,25 110,25 ZM150,25 C144.477,25 140,29.477 140,35 C140,40.523 144.477,45 150,45 C155.523,45 160,40.523 160,35 C160,29.477 155.523,25 150,25 ZM190,25 C184.477,25 180,29.477 180,35 C180,40.523 184.477,45 190,45 C195.523,45 200,40.523 200,35 C200,29.477 195.523,25 190,25 ZM230,25 C224.477,25 220,29.477 220,35 C220,40.523 224.477,45 230,45 C235.523,45 240,40.523 240,35 C240,29.477 235.523,25 230,25 ZM270,25 C264.477,25 260,29.477 260,35 C260,40.523 264.477,45 270,45 C275.523,45 280,40.523 280,35 C280,29.477 275.523,25 270,25 Z "/><path stroke="rgb( 14, 5, 10 )" stroke-width="0px" stroke-linecap="butt" stroke-linejoin="miter" fill="rgb( 153, 153, 153 )" d="M270.5,40 C270.5,40 269.5,40 269.5,40 C267.015,40 265,37.985 265,35.5 C265,35.5 265,4.5 265,4.5 C265,2.015 267.015,0 269.5,0 C269.5,0 270.5,0 270.5,0 C272.985,0 275,2.015 275,4.5 C275,4.5 275,35.5 275,35.5 C275,37.985 272.985,40 270.5,40 ZM230.5,40 C230.5,40 229.5,40 229.5,40 C227.015,40 225,37.985 225,35.5 C225,35.5 225,4.5 225,4.5 C225,2.015 227.015,0 229.5,0 C229.5,0 230.5,0 230.5,0 C232.985,0 235,2.015 235,4.5 C235,4.5 235,35.5 235,35.5 C235,37.985 232.985,40 230.5,40 ZM190.5,40 C190.5,40 189.5,40 189.5,40 C187.015,40 185,37.985 185,35.5 C185,35.5 185,4.5 185,4.5 C185,2.015 187.015,0 189.5,0 C189.5,0 190.5,0 190.5,0 C192.985,0 195,2.015 195,4.5 C195,4.5 195,35.5 195,35.5 C195,37.985 192.985,40 190.5,40 ZM150.5,40 C150.5,40 149.5,40 149.5,40 C147.015,40 145,37.985 145,35.5 C145,35.5 145,4.5 145,4.5 C145,2.015 147.015,0 149.5,0 C149.5,0 150.5,0 150.5,0 C152.985,0 155,2.015 155,4.5 C155,4.5 155,35.5 155,35.5 C155,37.985 152.985,40 150.5,40 ZM110.5,40 C110.5,40 109.5,40 109.5,40 C107.015,40 105,37.985 105,35.5 C105,35.5 105,4.5 105,4.5 C105,2.015 107.015,0 109.5,0 C109.5,0 110.5,0 110.5,0 C112.985,0 115,2.015 115,4.5 C115,4.5 115,35.5 115,35.5 C115,37.985 112.985,40 110.5,40 ZM70.5,40 C70.5,40 69.5,40 69.5,40 C67.015,40 65,37.985 65,35.5 C65,35.5 65,4.5 65,4.5 C65,2.015 67.015,0 69.5,0 C69.5,0 70.5,0 70.5,0 C72.985,0 75,2.015 75,4.5 C75,4.5 75,35.5 75,35.5 C75,37.985 72.985,40 70.5,40 ZM30.5,40 C30.5,40 29.5,40 29.5,40 C27.015,40 25,37.985 25,35.5 C25,35.5 25,4.5 25,4.5 C25,2.015 27.015,0 29.5,0 C29.5,0 30.5,0 30.5,0 C32.985,0 35,2.015 35,4.5 C35,4.5 35,35.5 35,35.5 C35,37.985 32.985,40 30.5,40 Z "/></svg>