<?xml version="1.0" encoding="utf-8"?>
<!-- Generator: Adobe Illustrator 17.0.0, SVG Export Plug-In . SVG Version: 6.00 Build 0)  -->
<!DOCTYPE svg PUBLIC "-//W3C//DTD SVG 1.1//EN" "http://www.w3.org/Graphics/SVG/1.1/DTD/svg11.dtd">
<svg version="1.1" id="图层_1" xmlns="http://www.w3.org/2000/svg" xmlns:xlink="http://www.w3.org/1999/xlink" x="0px" y="0px"
	 width="37px" height="29px" viewBox="0 0 37 29" enable-background="new 0 0 37 29" xml:space="preserve">
<path fill="#FFA161" d="M36.894,21.734c-0.102,0.84-0.785,1.328-1.543,1.655c-0.699,0.302-0.884,0.684-0.49,1.394
	c0.647,1.168,1.201,2.385,1.913,3.821c-0.439-0.081-0.681-0.087-0.891-0.169c-2.136-0.834-4.261-1.696-6.405-2.511
	c-0.365-0.138-0.829-0.193-1.205-0.109c-4.51,1.005-9.004,2.085-13.522,3.052c-1.642,0.351-3.183,0.018-4.67-0.929
	c-2.101-1.337-3.063-3.414-3.995-5.466c-1.411-3.109-2.688-6.285-3.82-9.501c-0.901-2.558-1.57-5.201-2.204-7.838
	c-0.375-1.56,0.784-3.411,2.488-4.011c1.182-0.416,2.462-0.666,3.717-0.769c2.595-0.212,5.209-0.44,7.806-0.362
	c3.874,0.117,7.779,0.098,11.592,0.923c2.497,0.541,4.993,1.361,6.41,3.574c1.051,1.642,1.745,3.547,2.337,5.414
	c0.95,2.994,1.734,6.041,2.475,9.091C37.098,19.861,37.003,20.829,36.894,21.734z M35.089,18.309
	c-0.669-2.752-1.376-5.501-2.233-8.202c-0.534-1.685-1.16-3.403-2.109-4.885c-1.278-1.997-3.529-2.736-5.782-3.224
	c-3.44-0.745-6.964-0.728-10.459-0.833c-2.343-0.07-4.701,0.136-7.043,0.327C6.331,1.584,5.177,1.81,4.11,2.186
	c-1.537,0.541-2.583,2.21-2.245,3.618c0.572,2.379,1.176,4.764,1.989,7.072c1.021,2.901,2.173,5.767,3.446,8.571
	c0.841,1.852,1.709,3.726,3.604,4.932c1.342,0.854,2.733,1.155,4.214,0.838c4.076-0.872,8.13-1.847,12.199-2.754
	c0.34-0.075,0.759-0.026,1.088,0.099c1.934,0.735,3.851,1.513,5.778,2.266c0.19,0.074,0.408,0.079,0.804,0.152
	c-0.642-1.296-1.142-2.393-1.726-3.447c-0.355-0.641-0.188-0.986,0.443-1.258c0.683-0.295,1.3-0.735,1.391-1.493
	C35.194,19.966,35.28,19.092,35.089,18.309z M28.767,12.744c0.811,2.364,0.801,4.827,0.575,7.268
	c-0.197,2.131-1.174,3.177-2.945,3.587c-0.352,0.082-0.777-0.156-1.058,0.224c-1.166,0-2.333,0-3.499,0
	c-0.699-0.276-1.402-0.542-2.094-0.834c-0.327-0.138-0.627-0.311-0.636-0.746c-0.016-0.734,1.278-2.032,2.03-2.034
	c0.454-0.001,0.656,0.249,0.454,0.583c-0.32,0.53-0.032,0.78,0.354,0.981c1.403,0.732,2.862,0.953,4.389,0.373
	c1.018-0.387,1.404-1.259,1.71-2.164c0.715-2.114,0.548-4.28,0.326-6.444c-0.03-0.282-0.106-0.563-0.105-0.844
	c0.003-0.693-0.369-0.859-1.003-0.779c-1.987,0.253-3.974,0.507-5.966,0.714c-0.531,0.056-0.724,0.291-0.804,0.756
	c-0.09,0.526-0.197,1.053-0.507,1.511c-0.205,0.302-0.443,0.568-0.864,0.453c-0.406-0.111-0.393-0.45-0.39-0.772
	c0.002-0.316-0.027-0.635,0.009-0.947c0.054-0.457-0.11-0.717-0.583-0.795c-0.484-0.081-0.732-0.397-0.756-0.854
	c-0.029-0.52,0.426-0.651,0.786-0.661c0.913-0.025,0.859-0.644,0.951-1.246c0.272-1.763,0.288-1.747-1.516-1.554
	c-2.343,0.251-4.686,0.512-7.036,0.697c-0.757,0.06-1.008,0.435-1.103,1.054c-0.2,1.308-0.399,2.616-0.592,3.924
	c-0.099,0.673-0.445,0.843-1.053,0.516c0-0.633,0-1.266,0-1.898c0.21-0.039,0.201-0.206,0.222-0.359
	c0.305-2.211,0.559-4.43,0.938-6.628C9.193,4.713,9.07,3.48,9.98,2.561c0.194,0,0.389,0,0.583,0
	c0.169,0.389,0.195,0.784,0.123,1.202c-0.218,1.273-0.403,2.551-0.624,3.823c-0.164,0.947-0.068,1.067,0.899,0.96
	c2.536-0.282,5.07-0.584,7.609-0.839c0.752-0.075,1.054-0.406,1.134-1.127c0.149-1.344,0.382-2.68,0.58-4.019
	c0.26,0,0.519,0,0.778,0c0.232,1.57,0.239,3.14,0.061,4.718c-0.125,1.097-0.149,2.204-0.249,3.304
	c-0.052,0.569,0.194,0.709,0.733,0.676c2.324-0.141,4.65-0.241,6.973-0.391c0.676-0.043,1.344-0.213,2.009,0.046
	c0,0.127,0,0.253,0,0.38c-0.362,0.117-0.719,0.319-1.085,0.335C28.66,11.666,28.487,11.928,28.767,12.744z"/>
</svg>
