<?xml version="1.0" encoding="utf-8"?>
<!-- Generator: Adobe Illustrator 17.0.0, SVG Export Plug-In . SVG Version: 6.00 Build 0)  -->
<!DOCTYPE svg PUBLIC "-//W3C//DTD SVG 1.1//EN" "http://www.w3.org/Graphics/SVG/1.1/DTD/svg11.dtd">
<svg version="1.1" id="图层_1" xmlns="http://www.w3.org/2000/svg" xmlns:xlink="http://www.w3.org/1999/xlink" x="0px" y="0px"
	 width="64px" height="64px" viewBox="0 0 64 64" enable-background="new 0 0 64 64" xml:space="preserve">
<path fill="#C75C5C" d="M32,0c17.673,0,32,14.327,32,32S49.673,64,32,64S0,49.673,0,32S14.327,0,32,0z"/>
<path opacity="0.2" fill="#231F20" d="M50.187,43.375c-2.018-1.516-8.375-4.188-8.375-4.188s-7,5.438-14-6
	C19.715,19.957,16,18,16,18s-4,4-4,8s4,10,4,22c0,1.105,0.895,2,2,2s2-0.895,2-2V34c0,0,4,0,8,8s8,8,12,8s12-0.188,12-1.688
	C52,46.567,52.379,45.022,50.187,43.375z"/>
<path fill="#FFFFFF" d="M16,16c0,0-4,4-4,8s4,10,4,22h4V32c0,0,4,0,8,8s8,8,12,8s12-0.188,12-1.688c0-1.746,0.379-3.291-1.813-4.938
	c-2.018-1.516-8.375-4.188-8.375-4.188s-7,5.438-14-6C19.715,17.957,16,16,16,16z"/>
</svg>
