<?xml version="1.0" encoding="utf-8"?>
<!-- Generator: Adobe Illustrator 17.0.0, SVG Export Plug-In . SVG Version: 6.00 Build 0)  -->
<!DOCTYPE svg PUBLIC "-//W3C//DTD SVG 1.1//EN" "http://www.w3.org/Graphics/SVG/1.1/DTD/svg11.dtd">
<svg version="1.1" id="图层_1" xmlns="http://www.w3.org/2000/svg" xmlns:xlink="http://www.w3.org/1999/xlink" x="0px" y="0px"
	 width="259.95px" height="63.075px" viewBox="0 0 259.95 63.075" enable-background="new 0 0 259.95 63.075" xml:space="preserve">
<path fill="#FCAF16" d="M95.938,0.586c-2.77,0-4.977,2.213-4.977,4.935c0,2.712,2.207,4.966,4.977,4.966
	c2.731,0,4.916-2.254,4.916-4.966C100.854,2.799,98.669,0.586,95.938,0.586 M169.598,30.698c-2.302,0-4.138,1.84-4.138,4.104
	c0,2.256,1.836,4.13,4.138,4.13c2.273,0,4.089-1.874,4.089-4.13C173.688,32.538,171.871,30.698,169.598,30.698"/>
<path fill="#127DC2" d="M49.262,29.205c0,3.156-1.535,4.798-4.574,4.798c-3.033,0-4.587-1.642-4.587-4.798V13.416h-8.017v16.128
	c0,7.844,6.986,9.058,12.641,9.088c6.378,0,12.53-1.565,12.53-9.088V13.416h-7.993C49.262,13.416,49.262,29.205,49.262,29.205z
	 M16.271,18.872c-3.214-0.948-6.67-1.905-6.715-4.619c-0.08-2.354,2.945-3.731,6.146-3.812c2.411,0,4.843,0.428,8.329,1.675
	l2.097-5.18c-4.297-1.644-8.11-2.108-11.15-2.108C7.948,4.746,1.028,7.943,1.212,14.76c0.138,6.185,5.846,8.176,10.55,9.44
	c2.375,0.687,7.641,1.906,7.027,5.389c-0.379,2.47-3.27,3.2-6.064,3.298c-3.39,0.085-7.138-1.056-10.279-2.048L0,35.771
	c3.623,1.64,9.293,2.861,13.559,2.861c6.577,0,12.714-2.635,13.409-8.637C27.802,23.086,21.889,20.649,16.271,18.872 M74.464,11.782
	c-6.379,0-12.524,1.562-12.524,9.097v17.192h7.973V21.179c0-3.131,1.52-4.768,4.551-4.768c3.076,0,4.611,1.637,4.611,4.768v16.892
	h8.021V20.879C87.096,13.032,80.076,11.82,74.464,11.782 M116.989,11.782c-6.4,0-12.552,1.562-12.552,9.097v17.192h8.008V21.179
	c0-3.131,1.55-4.768,4.589-4.768c3.046,0,4.573,1.637,4.573,4.768v16.892h8.007V20.879C129.614,13.032,122.652,11.82,116.989,11.782
	 M91.9,13.42h8.015v24.651H91.9V13.42z M148.35,11.87h-0.05c-8.519,0.606-13.005,6.054-13.005,13.784
	c-0.102,7.668,3.8,12.284,12.311,12.896c0.205,0.052,0.469,0.052,0.695,0.052h0.05c1.754,0.084,3.654-0.052,5.297-0.385
	c0.045,2.29-0.152,4.701-2.55,6.104c-0.679,0.384-1.3,0.695-2.747,0.914c-0.226,0-0.488,0.043-0.745,0.087
	c-2.79,0.297-5.677-0.306-9.001-1.795l-2.323,4.35c3.74,2.038,7.649,2.977,10.734,3.115c0.445,0,0.874,0.047,1.335,0.047
	c4.699-0.047,7.943-1.485,10.048-3.927c1.861-2.215,2.738-5.286,2.819-9.22V13.511C157.518,12.094,152.821,11.567,148.35,11.87
	 M153.625,33.089c-1.723,0.617-3.784,0.617-5.217,0.276h-0.059l-0.05-0.043c-3.485-0.83-5.413-3.551-5.27-7.909
	c0.089-4.377,1.93-7.489,5.27-8.318h0.05c0.024,0,0.119-0.044,0.184-0.044c1.497-0.34,3.77-0.301,5.091,0.349L153.625,33.089
	L153.625,33.089z M52.613,53.324h-3.445l0.477,7.666h3.415L52.613,53.324z M52.217,48.376v-2.184h-3.622v-1.453h-3.87v1.453h-5.413
	v-1.453h-3.913v1.453h-0.191h-3.054v2.184h3.054H52.217z M35.208,58.086l1.693-3.945h-1.693H33.49l-2.911,6.678h3.407l0.954-2.128
	L35.208,58.086z M46.417,50.527h-2.758l0.533-1.221h-4.054l-0.497,1.221h-4.433H33.49v2.19h1.719h3.466l-3.466,7.99l-0.201,0.433
	l-0.54,1.302h0.741h3.263l4.24-9.726h2.208v5.322c0,1.232-0.992,2.485-2.16,2.485h-1.887l-0.85,1.918h3.364
	c3.801,0,5.207-3.344,5.207-4.993v-4.817C48.595,51.217,47.588,50.527,46.417,50.527 M75.685,46.19h-4.276v-1.45h-4.18v1.45h-3.311
	h-4.187v3.829h4.187v-1.6h10.79v1.6h4.2v-1.6C78.908,46.19,77.587,46.19,75.685,46.19 M59.731,53.235h9.04v4.644
	c0,1.162-1.091,2.415-2.075,2.415h-3.748l-0.858,2.149h6.037c3.057,0,5.076-2.603,5.076-4.993v-4.215h5.655v-2.172H59.731V53.235z
	 M101.203,53.701h-4.277H93.94l-0.492-0.423c0,0-0.119,0.161-0.313,0.423h-0.389h-0.102v-0.619h1.918h3.732h4.763v-0.885v-1.119
	V47.22c0-1.871-1.112-1.871-2.708-1.871h-3.59h-3.513h-2.781h-3.514v5.729v1.119v0.885h1.854c-0.488,0.632-0.97,1.226-1.291,1.543
	c-0.783,0.784-3.641,2.78-3.641,2.78l1.558,1.559c0,0,2.859-1.713,3.65-2.504c0.184-0.183,0.427-0.479,0.692-0.825h1.899
	c-0.705,0.911-1.455,1.845-1.917,2.307c-0.942,0.941-4.35,3.378-4.35,3.378l1.758,1.756c0,0,3.266-1.813,4.494-2.892
	c1.32-1.159,3.129-3.601,3.812-4.549H96.2c-0.162,0.923-0.439,2.08-0.914,2.83c-0.591,0.935-3.021,2.712-3.021,2.712l1.558,1.559
	c0,0,2.802-1.436,3.65-2.5c0.788-0.994,1.928-3.292,2.55-4.601h1.65v1.294v0.603v3.184H97.81v1.934h3.393
	c1.899,0,3.224,0,3.224-2.227v-2.891v-0.603V55.93C104.427,53.701,103.101,53.701,101.203,53.701z M90.912,51.078l-0.356-0.355
	c0,0-0.031,0.048-0.091,0.126v-1.074h3.998h3.167h1.901v1.304L90.912,51.078L90.912,51.078z M99.531,47.22v0.703h-9.066V47.22
	H99.531z M127.104,46.956h-3.722c0.28-0.702,0.533-1.351,0.674-1.721h-3.064c-0.326,1.123-0.778,2.564-1.087,3.21
	c-0.072,0.152-0.183,0.347-0.316,0.564V48.46v-0.996c0-2.229-1.323-2.229-3.226-2.229h-3.132h-1.649h-0.887v12.304h2.536V47.171
	h3.791v1.29v0.604v8.474h2.567v-4.311c0.349-0.404,2.185-2.555,2.623-3.467c0.101-0.21,0.233-0.517,0.383-0.869h4.979v1.287v0.605
	v9.93h-3.865v1.934h3.395c1.899,0,3.222,0,3.222-2.227v-9.637V50.18v-0.994C130.326,46.956,129.003,46.956,127.104,46.956z
	 M116.425,48.65h-2.537v9.102l-3.816,3.269l1.889,2.131l3.029-2.668l3.094,2.668l1.889-2.131l-3.548-2.959V48.65z M122.32,50.472
	l-2.132,7.202v1.862h6.556V54.4h-1.981v3.139h-1.944l1.743-7.067H122.32z M249.443,11.782c-2.614,0-5.176,0.382-7.109,1.656
	c-2.117-1.315-4.859-1.637-7.319-1.656c-5.511,0-10.81,1.562-10.81,9.097v17.192h6.898V21.179c0-3.131,1.334-4.768,3.951-4.768
	c2.623,0,3.94,1.637,3.94,4.768v16.892h0.004h6.665h0.16V19.542c0.401-2.051,1.62-3.131,3.658-3.131
	c2.533,0,3.808,1.637,3.808,4.768v16.892h6.661V20.879C259.95,13.032,254.156,11.82,249.443,11.782z M186.368,16.27
	c2.01,0,3.885,0.464,5.5,1.258v-4.085c-2.106-1.38-4.598-2.189-7.277-2.189c-7.52,0-13.617,6.29-13.617,14.049
	c0,1.387,0.203,2.725,0.565,3.99c2.24,0.036,4.022,1.857,4.022,4.097c0,0.701-0.191,1.355-0.501,1.937
	c2.456,2.486,5.818,4.025,9.531,4.025c2.679,0,5.17-0.81,7.277-2.19v-4.085c-1.614,0.794-3.489,1.259-5.5,1.259
	c-5.988,0-10.838-4.045-10.838-9.032C175.53,20.314,180.38,16.27,186.368,16.27z M208.922,11.402
	c-7.216,0-13.066,6.378-13.066,14.243c0,7.866,5.85,14.242,13.066,14.242c7.217,0,13.067-6.376,13.067-14.242
	C221.99,17.78,216.14,11.402,208.922,11.402z M208.922,34.009c-3.862,0-6.994-3.742-6.994-8.363c0-4.62,3.132-8.365,6.994-8.365
	c3.863,0,6.996,3.745,6.996,8.365C215.918,30.267,212.786,34.009,208.922,34.009z"/>
</svg>
