<?xml version="1.0" encoding="iso-8859-1"?>
<!-- Generator: Adobe Illustrator 17.0.0, SVG Export Plug-In . SVG Version: 6.00 Build 0)  -->
<!DOCTYPE svg PUBLIC "-//W3C//DTD SVG 1.1//EN" "http://www.w3.org/Graphics/SVG/1.1/DTD/svg11.dtd">
<svg version="1.1" xmlns="http://www.w3.org/2000/svg" xmlns:xlink="http://www.w3.org/1999/xlink" x="0px" y="0px"
	 width="1034.632px" height="588.377px" viewBox="0 0 1034.632 588.377" style="enable-background:new 0 0 1034.632 588.377;"
	 xml:space="preserve">
<g id="_x31_366x768">
	<g>
		<g>
			<path style="fill:#57A369;" d="M1013.411,507.23H47.896c-11.721,0-21.221,9.5-21.221,21.219c0,11.721,9.5,21.221,21.221,21.221
				h74.389c-0.003,0.136-0.021,0.268-0.021,0.404c0,10.264,8.321,18.586,18.586,18.586l109.297-0.558
				c-0.632,1.656-0.993,3.445-0.993,5.323c0,8.258,6.693,14.951,14.951,14.951h574.568c8.256,0,14.951-6.693,14.951-14.951
				c0-3.109-0.951-5.996-2.576-8.388l74.091-0.378c9.034,0,16.557-6.448,18.233-14.99h70.039c11.719,0,21.221-9.5,21.221-21.221
				C1034.632,516.73,1025.13,507.23,1013.411,507.23z"/>
			<g>
				<g>
					<path style="fill:#FFFFFF;" d="M320.008,170.446c-1.435,0-2.84,0.126-4.209,0.357c-6.19-11.837-18.579-19.92-32.863-19.92
						c-13.766,0-25.77,7.509-32.164,18.649c-1.592-0.298-3.23-0.461-4.907-0.461c-14.636,0-26.5,11.864-26.5,26.5
						c0,14.636,11.864,26.5,26.5,26.5c5.472,0,10.555-1.659,14.776-4.5c6.205,4.679,13.926,7.455,22.295,7.455
						c8.894,0,17.053-3.134,23.44-8.354c3.927,2.542,8.605,4.024,13.632,4.024c13.877,0,25.125-11.249,25.125-25.125
						C345.133,181.694,333.885,170.446,320.008,170.446z"/>
					<path style="fill:#E2E2E2;" d="M345.133,195.577c0,13.87-11.25,25.12-25.131,25.12c-5.02,0-9.699-1.48-13.63-4.02
						c-6.39,5.22-14.55,8.35-23.439,8.35c-8.37,0-16.09-2.77-22.29-7.45c-4.23,2.84-9.31,4.5-14.78,4.5
						c-10.19,0-19.04-5.75-23.46-14.19c4.83,5.24,11.76,8.52,19.46,8.52c5.47,0,10.55-1.66,14.78-4.5
						c6.2,4.68,13.92,7.46,22.29,7.46c8.89,0,17.05-3.14,23.439-8.36c3.931,2.54,8.61,4.03,13.63,4.03
						c13.881,0,25.131-11.25,25.131-25.13c0-4.15-1-8.06-2.79-11.5C342.563,182.896,345.133,188.936,345.133,195.577z"/>
				</g>
				<g>
					<path style="fill:#FFFFFF;" d="M544.451,39.314c-1.935,0-3.832,0.171-5.681,0.482c-8.353-15.976-25.075-26.886-44.354-26.886
						c-18.579,0-34.78,10.135-43.41,25.171c-2.148-0.402-4.36-0.622-6.624-0.622c-19.753,0-35.766,16.013-35.766,35.766
						s16.013,35.766,35.766,35.766c7.386,0,14.246-2.239,19.943-6.073c8.375,6.314,18.796,10.062,30.091,10.062
						c12.004,0,23.016-4.23,31.637-11.276c5.3,3.432,11.613,5.432,18.398,5.432c18.729,0,33.911-15.182,33.911-33.91
						C578.362,54.496,563.181,39.314,544.451,39.314z"/>
					<path style="fill:#E2E2E2;" d="M578.362,73.233c0,18.719-15.184,33.903-33.919,33.903c-6.774,0-13.091-1.997-18.395-5.425
						c-8.624,7.045-19.638,11.27-31.636,11.27c-11.297,0-21.716-3.738-30.084-10.055c-5.71,3.833-12.566,6.074-19.948,6.074
						c-13.754,0-25.698-7.761-31.663-19.152c6.518,7.072,15.872,11.5,26.265,11.5c7.382,0,14.238-2.241,19.948-6.074
						c8.368,6.316,18.787,10.068,30.084,10.068c11.998,0,23.012-4.238,31.636-11.284c5.305,3.428,11.621,5.439,18.396,5.439
						c18.734,0,33.919-15.184,33.919-33.917c0-5.602-1.351-10.878-3.766-15.521C574.893,56.119,578.362,64.271,578.362,73.233z"/>
				</g>
				<g>
					<path style="fill:#FFFFFF;" d="M1003.666,67.046c-1.435,0-2.84,0.127-4.209,0.357c-6.19-11.837-18.579-19.92-32.863-19.92
						c-13.766,0-25.77,7.509-32.164,18.649c-1.592-0.298-3.231-0.461-4.907-0.461c-14.636,0-26.5,11.864-26.5,26.5
						c0,14.636,11.864,26.5,26.5,26.5c5.472,0,10.555-1.659,14.776-4.5c6.205,4.679,13.926,7.455,22.295,7.455
						c8.894,0,17.053-3.134,23.44-8.354c3.927,2.542,8.604,4.024,13.632,4.024c13.877,0,25.125-11.249,25.125-25.125
						C1028.791,78.294,1017.543,67.046,1003.666,67.046z"/>
					<path style="fill:#E2E2E2;" d="M1028.791,92.177c0,13.87-11.25,25.12-25.131,25.12c-5.019,0-9.699-1.48-13.63-4.02
						c-6.39,5.22-14.55,8.35-23.439,8.35c-8.37,0-16.09-2.77-22.29-7.45c-4.23,2.84-9.31,4.5-14.78,4.5
						c-10.19,0-19.04-5.75-23.46-14.19c4.83,5.24,11.76,8.52,19.46,8.52c5.47,0,10.55-1.66,14.78-4.5
						c6.2,4.68,13.92,7.46,22.29,7.46c8.89,0,17.05-3.14,23.439-8.36c3.931,2.54,8.61,4.03,13.63,4.03
						c13.881,0,25.131-11.25,25.131-25.13c0-4.15-1-8.06-2.79-11.5C1026.221,79.497,1028.791,85.537,1028.791,92.177z"/>
				</g>
			</g>
			<g>
				<path style="fill:#FFF27A;" d="M129.124,75.708c0,28.63-23.21,51.84-51.841,51.84c-16.029,0-30.359-7.28-39.869-18.7
					c-4.99-7.97-7.87-17.38-7.87-27.47c0-28.63,23.2-51.84,51.83-51.84c16.05,0,30.39,7.29,39.909,18.74
					C126.254,56.228,129.124,65.628,129.124,75.708z"/>
				<polygon style="fill:#FFF27A;" points="19.703,137.311 29.541,120.518 37.053,128.914 				"/>
				<polygon style="fill:#FFF27A;" points="55.934,160.654 56.055,141.193 66.76,144.708 				"/>
				<polygon style="fill:#FFF27A;" points="98.98,162.756 89.355,145.841 100.385,143.533 				"/>
				<polygon style="fill:#FFF27A;" points="137.311,143.053 120.518,133.217 128.916,125.703 				"/>
				<polygon style="fill:#FFF27A;" points="160.656,106.824 141.193,106.702 144.709,95.996 				"/>
				<polygon style="fill:#FFF27A;" points="162.758,63.776 145.844,73.402 143.533,62.373 				"/>
				<polygon style="fill:#FFF27A;" points="143.053,25.445 133.219,42.239 125.705,33.841 				"/>
				<polygon style="fill:#FFF27A;" points="106.824,2.102 106.703,21.562 95.998,18.047 				"/>
				<polygon style="fill:#FFF27A;" points="63.777,0 73.402,16.914 62.373,19.223 				"/>
				<polygon style="fill:#FFF27A;" points="25.445,19.704 42.24,29.539 33.842,37.053 				"/>
				<polygon style="fill:#FFF27A;" points="2.102,55.933 21.562,56.054 18.047,66.76 				"/>
				<polygon style="fill:#FFF27A;" points="0,98.98 16.914,89.354 19.223,100.384 				"/>
				<path style="fill:#FFFFFF;" d="M81.379,29.54L81.379,29.54c-28.631,0-51.838,23.209-51.838,51.838
					c0,28.63,23.207,51.839,51.838,51.839l0,0V29.54z"/>
				<path style="fill:#FFC950;" d="M133.214,81.378c0,28.63-23.21,51.84-51.84,51.84c-18.54,0-34.8-9.73-43.96-24.37
					c9.51,11.42,23.84,18.7,39.869,18.7c28.631,0,51.841-23.21,51.841-51.84c0-10.08-2.87-19.48-7.841-27.43
					C128.734,57.268,133.214,68.798,133.214,81.378z"/>
			</g>
			<g>
				<g>
					<polygon style="fill:#5FB776;" points="757.415,503.597 675.808,504.088 594.208,504.586 634.582,433.668 645.298,414.842 
						660.782,409.22 666.695,440.83 682.159,409.22 697.615,422.414 694.887,406.95 702.424,409.672 716.182,433.176 					"/>
					<polygon style="fill:#57A369;" points="763.331,503.641 702.168,503.93 684.758,412.019 697.616,422.414 694.885,406.952 
						704.014,409.23 					"/>
					<polygon style="fill:#EFEFEF;" points="694.885,406.952 697.616,422.414 684.758,412.019 674.955,362.749 704.014,409.23 					
						"/>
					<polygon style="fill:#FFFFFF;" points="684.758,412.019 666.693,440.826 660.782,409.222 645.297,414.841 674.955,362.749 
											"/>
				</g>
				<g>
					<polygon style="fill:#6FD18B;" points="566.4,507.711 445.896,508.436 325.401,509.17 385.02,404.449 400.843,376.651 
						423.707,368.35 432.44,415.025 455.274,368.35 478.098,387.831 474.068,364.997 485.197,369.016 505.514,403.724 					"/>
					<polygon style="fill:#6FC184;" points="571.661,502.919 485.197,503.589 459.111,372.482 478.099,387.831 474.064,364.999 
						487.545,368.364 					"/>
					<polygon style="fill:#EFEFEF;" points="474.064,364.999 478.099,387.831 459.111,372.482 444.637,299.727 487.545,368.364 
											"/>
					<polygon style="fill:#FFFFFF;" points="459.111,372.482 432.437,415.019 423.709,368.351 400.843,376.648 444.637,299.727 
											"/>
				</g>
				<g>
					<polygon style="fill:#6FD18B;" points="651.485,506.569 567.157,507.077 482.837,507.59 524.556,434.307 535.63,414.855 
						551.63,409.045 557.741,441.708 573.72,409.045 589.69,422.678 586.871,406.699 594.66,409.512 608.877,433.8 					"/>
					<polygon style="fill:#6FC184;" points="655.167,503.215 594.66,503.684 576.405,411.937 589.692,422.678 586.869,406.701 
						596.303,409.055 					"/>
					<polygon style="fill:#EFEFEF;" points="586.869,406.701 589.692,422.678 576.405,411.937 566.275,361.024 596.303,409.055 
											"/>
					<polygon style="fill:#FFFFFF;" points="576.405,411.937 557.738,441.705 551.632,409.046 535.629,414.853 566.275,361.024 
											"/>
				</g>
				<g>
					<polygon style="fill:#5FB776;" points="408.925,503.147 290.147,503.862 171.38,504.586 230.143,401.365 245.739,373.965 
						268.276,365.783 276.884,411.79 299.39,365.783 321.887,384.985 317.915,362.478 328.886,366.44 348.911,400.65 					"/>
					<polygon style="fill:#57A369;" points="417.534,503.211 328.514,503.631 303.173,369.856 321.888,384.985 317.911,362.48 
						331.199,365.797 					"/>
					<polygon style="fill:#EFEFEF;" points="317.911,362.48 321.888,384.985 303.173,369.856 288.905,298.144 331.199,365.797 					
						"/>
					<polygon style="fill:#FFFFFF;" points="303.173,369.856 276.881,411.784 268.278,365.785 245.739,373.963 288.905,298.144 
											"/>
				</g>
			</g>
			<path style="fill:#70C185;" d="M1033.798,524.782c0,11.721-9.502,21.221-21.221,21.221H47.062
				c-11.721,0-21.221-9.5-21.221-21.221l0,0c0-11.719,9.5-21.219,21.221-21.219h965.516
				C1024.296,503.563,1033.798,513.063,1033.798,524.782L1033.798,524.782z"/>
			<path style="fill:#70C185;" d="M942.893,542.407c0,10.264-8.322,18.586-18.588,18.586l-784.289,4
				c-10.265,0-18.586-8.322-18.586-18.586l0,0c0-10.266,8.321-18.586,18.586-18.586l784.289-4
				C934.57,523.821,942.893,532.141,942.893,542.407L942.893,542.407z"/>
			<path style="fill:#70C185;" d="M852.79,569.758c0,8.258-6.695,14.951-14.951,14.951H263.271c-8.258,0-14.951-6.693-14.951-14.951
				l0,0c0-8.256,6.693-14.949,14.951-14.949h574.568C846.095,554.809,852.79,561.502,852.79,569.758L852.79,569.758z"/>
			<g>
				<path style="fill:#AFD6E0;" d="M414.664,528.026h-40.551c0.061-0.454,0.102-0.913,0.102-1.383
					c0-5.828-4.725-10.553-10.551-10.553H182.377c-5.828,0-10.552,4.725-10.552,10.553c0,5.826,4.724,10.551,10.552,10.551h40.549
					c-0.059,0.454-0.1,0.914-0.1,1.385c0,5.826,4.724,10.551,10.552,10.551h181.287c5.826,0,10.551-4.725,10.551-10.551
					C425.215,532.75,420.49,528.026,414.664,528.026z"/>
				<path style="fill:#4EA8B7;" d="M222.844,535.919c0,0.431,0.03,0.86,0.08,1.28h-40.529c-5.021,0-9.211-3.49-10.28-8.18
					c1.79,3.279,5.27,5.52,9.28,5.52h41.549C222.885,534.99,222.844,535.45,222.844,535.919z"/>
				<path style="fill:#4EA8B7;" d="M425.22,538.58c0,5.82-4.72,10.55-10.55,10.55H233.38c-5.02,0-9.21-3.5-10.28-8.19
					c1.79,3.29,5.27,5.52,9.28,5.52h181.29c5.83,0,10.55-4.72,10.55-10.55c0-0.81-0.09-1.609-0.271-2.37
					C424.76,535.04,425.22,536.76,425.22,538.58z"/>
			</g>
			<g>
				<rect x="430.181" y="532.044" style="fill:#6E3F37;" width="12.091" height="26.359"/>
				<path style="fill:#D3D667;" d="M464.654,513.431c0,19.1-12.765,24.559-28.527,24.559s-28.541-6.072-28.541-25.172
					c0-19.102,12.778-44,28.541-44S464.654,494.33,464.654,513.431z"/>
				<path style="fill:#FFFFFF;" d="M436.125,468.816v69.176c-15.766,0-28.539-6.076-28.539-25.17
					C407.586,493.718,420.359,468.824,436.125,468.816z"/>
			</g>
			<g>
				<circle style="fill:#FFFFFF;" cx="896.021" cy="494.09" r="7"/>
				<g>
					<circle style="fill:#FFFFFF;" cx="766.982" cy="521.223" r="11.833"/>
					<circle style="fill:#FFFFFF;" cx="769.225" cy="519.01" r="18.085"/>
					<circle style="fill:#FFFFFF;" cx="744.163" cy="522.282" r="18.086"/>
					<circle style="fill:#FFFFFF;" cx="738.044" cy="509.389" r="18.086"/>
					<circle style="fill:#FFFFFF;" cx="714.897" cy="509.563" r="18.086"/>
					<circle style="fill:#FFFFFF;" cx="814.622" cy="516.889" r="18.085"/>
					<circle style="fill:#FFFFFF;" cx="841.485" cy="511.563" r="18.085"/>
					<circle style="fill:#FFFFFF;" cx="789.714" cy="533.054" r="24.906"/>
					<circle style="fill:#FFFFFF;" cx="755.148" cy="544.021" r="19.163"/>
					<circle style="fill:#FFFFFF;" cx="819.766" cy="535.774" r="14.55"/>
					<circle style="fill:#FFFFFF;" cx="711.981" cy="551.95" r="7"/>
					<circle style="fill:#FFFFFF;" cx="651.485" cy="535.991" r="7"/>
					<circle style="fill:#FFFFFF;" cx="677.915" cy="524.95" r="7"/>
					<circle style="fill:#FFFFFF;" cx="882.017" cy="518.088" r="7"/>
					<circle style="fill:#FFFFFF;" cx="743.304" cy="535.772" r="7"/>
					<circle style="fill:#FFFFFF;" cx="700.064" cy="535.991" r="7"/>
					<circle style="fill:#FFFFFF;" cx="870.682" cy="528.042" r="4.333"/>
					<circle style="fill:#FFFFFF;" cx="870.682" cy="539.309" r="4.333"/>
					<circle style="fill:#FFFFFF;" cx="732.983" cy="567.998" r="6.119"/>
					<circle style="fill:#FFFFFF;" cx="728.148" cy="545.782" r="2.833"/>
					<circle style="fill:#FFFFFF;" cx="684.758" cy="540.933" r="2.833"/>
					<circle style="fill:#AFAFAF;" cx="771.516" cy="529.284" r="6.708"/>
					<circle style="fill:#AFAFAF;" cx="767.971" cy="509.563" r="10.253"/>
					<circle style="fill:#AFAFAF;" cx="807.14" cy="509.389" r="7.103"/>
					<circle style="fill:#AFAFAF;" cx="755.148" cy="511.563" r="7.104"/>
					<circle style="fill:#AFAFAF;" cx="791.898" cy="513.428" r="14.118"/>
					<circle style="fill:#AFAFAF;" cx="777.493" cy="511.563" r="9.523"/>
					<circle style="fill:#AFAFAF;" cx="791.898" cy="538.422" r="5.599"/>
					<circle style="fill:#AFAFAF;" cx="750.304" cy="532.044" r="3.912"/>
					<circle style="fill:#AFAFAF;" cx="815.583" cy="524.783" r="3.912"/>
					<circle style="fill:#FFFFFF;" cx="850.455" cy="538.516" r="10.474"/>
					<circle style="fill:#FFFFFF;" cx="838.65" cy="557.284" r="4.335"/>
				</g>
			</g>
			<g>
				<rect x="558.879" y="531.864" style="fill:#6E3F37;" width="12.092" height="26.359"/>
				<path style="fill:#D3D667;" d="M593.354,513.25c0,19.1-12.766,24.559-28.527,24.559c-15.764,0-28.541-6.072-28.541-25.172
					c0-19.102,12.777-44,28.541-44C580.588,468.637,593.354,494.149,593.354,513.25z"/>
				<path style="fill:#FFFFFF;" d="M564.824,468.635v69.176c-15.766,0-28.539-6.076-28.539-25.17
					C536.285,493.538,549.059,468.643,564.824,468.635z"/>
			</g>
			<g>
				<rect x="366.019" y="527.502" style="fill:#6E3F37;" width="13.957" height="30.43"/>
				<ellipse style="fill:#D3D667;" cx="372.882" cy="468.818" rx="32.946" ry="65.549"/>
				<path style="fill:#FFFFFF;" d="M372.882,403.269v131.098c-18.195,0-32.945-29.35-32.945-65.549
					C339.937,432.611,354.687,403.269,372.882,403.269z"/>
			</g>
			<g>
				<path style="fill:#979695;" d="M735.622,420.543V199.277c0-26.763,27.52-72.834,44.879-72.834
					c14.641,0,44.863,47.719,44.881,72.833v221.268H735.622z"/>
				<rect x="735.622" y="275.292" style="fill:#7F7E7C;" width="89.76" height="1.502"/>
				<rect x="735.622" y="235.834" style="fill:#7F7E7C;" width="89.76" height="1.503"/>
				<rect x="735.286" y="196.375" style="fill:#7F7E7C;" width="90.096" height="1.504"/>
				<path style="fill:#FFFFFF;" d="M735.622,276.049v0.001V276.049c-2.482-0.609-15.197,36.414-15.197,38.032v180.53h15.197h15.199
					v-180.53C750.821,312.463,738.105,275.44,735.622,276.049z"/>
				<path style="fill:#FFFFFF;" d="M825.382,275.362v0.001V275.362c-2.484-0.619-15.199,37.044-15.199,38.69v183.654h15.199h15.199
					V314.051C840.581,312.406,827.864,274.743,825.382,275.362z"/>
				<rect x="720.44" y="383.825" style="fill:#EFEFEF;" width="30.363" height="1.502"/>
				<rect x="730.36" y="314.294" style="fill:#C9C8C8;" width="10.524" height="35.416"/>
				<rect x="820.12" y="314.294" style="fill:#C9C8C8;" width="10.523" height="35.416"/>
				<rect x="810.2" y="313.975" style="fill:#EFEFEF;" width="30.363" height="1.503"/>
				<rect x="810.183" y="348.51" style="fill:#EFEFEF;" width="30.363" height="1.504"/>
				<rect x="810.2" y="383.073" style="fill:#EFEFEF;" width="30.363" height="1.504"/>
				<rect x="720.44" y="420.544" style="fill:#EFEFEF;" width="30.363" height="1.504"/>
				<rect x="720.44" y="419.792" style="fill:#EFEFEF;" width="30.363" height="1.504"/>
				<rect x="810.2" y="419.792" style="fill:#EFEFEF;" width="30.363" height="1.504"/>
				<rect x="720.44" y="313.975" style="fill:#EFEFEF;" width="30.363" height="1.503"/>
				<rect x="720.44" y="348.639" style="fill:#EFEFEF;" width="30.363" height="1.504"/>
				<rect x="750.804" y="313.975" style="fill:#7F7E7C;" width="59.379" height="1.503"/>
				<rect x="750.841" y="348.067" style="fill:#E2E2E2;" width="59.342" height="154.814"/>
				<rect x="750.841" y="383.825" style="fill:#7F7E7C;" width="59.359" height="1.502"/>
				<rect x="750.841" y="419.793" style="fill:#7F7E7C;" width="59.359" height="1.502"/>
				<rect x="750.841" y="455.602" style="fill:#7F7E7C;" width="59.359" height="1.502"/>
				<path style="fill:#7F7E7C;" d="M750.817,369.93c0,0-6.312,8.728-12.906,54.107c-2.875,19.793-45.857,51.355-46.15,67.363
					c-0.027,1.389,1.088,11.828,17.688,11.471h41.393L750.817,369.93z"/>
				<path style="fill:#7F7E7C;" d="M810.206,369.93c0,0,6.312,8.728,12.906,54.107c2.875,19.793,45.857,51.355,46.152,67.363
					c0.025,1.389-1.09,11.828-17.689,11.471h-41.393L810.206,369.93z"/>
				<path style="fill:#F94E4E;" d="M780.495,505.752v-26.256c0-6.906,5.619-12.525,12.525-12.525
					c6.857,0,12.453,5.551,12.523,12.397v0.014l0.002,26.371H780.495z"/>
				<path style="fill:#E2E2E2;" d="M802.794,479.481c-0.008-5.393-4.381-9.76-9.773-9.76c-5.4,0-9.775,4.377-9.775,9.773v0.002l0,0
					v23.506h19.551v-23.506C802.796,479.491,802.794,479.485,802.794,479.481z"/>
				<path style="fill:#F94E4E;" d="M755.444,505.752v-26.256c0-6.906,5.619-12.525,12.525-12.525
					c6.859,0,12.455,5.551,12.525,12.397v0.014v26.371H755.444z"/>
				<path style="fill:#E2E2E2;" d="M777.745,479.481c-0.008-5.393-4.381-9.76-9.775-9.76c-5.398,0-9.775,4.377-9.775,9.773v0.002
					l0,0v23.506h19.553v-23.506C777.747,479.491,777.745,479.485,777.745,479.481z"/>
				<rect x="709.915" y="494.09" style="fill:#F94E4E;" width="34.248" height="3.166"/>
				<rect x="815.583" y="494.09" style="fill:#F94E4E;" width="34.248" height="3.166"/>
				<rect x="770.524" y="196.341" style="fill:#F94E4E;" width="19.99" height="150.76"/>
				<path style="fill:#F94E4E;" d="M790.517,196.548c0-5.52-4.475-19.996-9.996-19.996c-5.52,0-9.996,14.475-9.996,19.996
					c0,5.521,4.477,9.996,9.996,9.996C786.042,206.544,790.517,202.069,790.517,196.548z"/>
				<path style="fill:#E2E2E2;" d="M810.183,348.067c-0.014,10.482-13.285,3.272-29.67,3.272c-16.387,0-29.41,6.246-29.672-4.234
					c-0.615-24.727,20.477-63.416,29.672-63.416C791.099,283.688,810.212,323.396,810.183,348.067z"/>
				<rect x="750.823" y="347.807" style="fill:#F94E4E;" width="59.359" height="2.91"/>
			</g>
		</g>
	</g>
</g>
<g id="_x38_00x800">
	<g>
		<defs>
			<rect id="SVGID_1_" x="-975.18" y="-97.854" width="799.999" height="800"/>
		</defs>
		<clipPath id="SVGID_2_">
			<use xlink:href="#SVGID_1_"  style="overflow:visible;"/>
		</clipPath>
		<rect x="-975.18" y="-97.854" style="clip-path:url(#SVGID_2_);fill:#AFD6E0;" width="799.999" height="800"/>
		<g style="clip-path:url(#SVGID_2_);">
			<polygon style="fill:#5FB776;" points="-369.044,492.736 -450.651,493.227 -532.251,493.724 -491.877,422.806 -481.161,403.981 
				-465.677,398.359 -459.764,429.968 -444.3,398.359 -428.844,411.552 -431.572,396.088 -424.035,398.811 -410.277,422.315 			"/>
			<polygon style="fill:#57A369;" points="-363.128,492.78 -424.291,493.069 -441.701,401.158 -428.843,411.552 -431.574,396.09 
				-422.445,398.369 			"/>
			<polygon style="fill:#EFEFEF;" points="-431.574,396.09 -428.843,411.552 -441.701,401.158 -451.504,351.887 -422.445,398.369 
							"/>
			<polygon style="fill:#FFFFFF;" points="-441.701,401.158 -459.766,429.964 -465.677,398.361 -481.162,403.98 -451.504,351.887 
							"/>
		</g>
		<g style="clip-path:url(#SVGID_2_);">
			<polygon style="fill:#6FD18B;" points="-574.075,496.149 -674.729,496.754 -775.374,497.368 -725.577,409.897 -712.36,386.678 
				-693.262,379.745 -685.968,418.731 -666.896,379.745 -647.832,396.016 -651.197,376.944 -641.901,380.301 -624.932,409.292 			
				"/>
			<polygon style="fill:#5FB776;" points="-569.681,492.146 -641.901,492.706 -663.69,383.196 -647.831,396.016 -651.201,376.946 
				-639.94,379.756 			"/>
			<polygon style="fill:#EFEFEF;" points="-651.201,376.946 -647.831,396.016 -663.69,383.196 -675.781,322.426 -639.94,379.756 			
				"/>
			<polygon style="fill:#FFFFFF;" points="-663.69,383.196 -685.971,418.726 -693.261,379.746 -712.361,386.676 -675.781,322.426 
							"/>
		</g>
		<g style="clip-path:url(#SVGID_2_);">
			<polygon style="fill:#6FD18B;" points="-474.974,495.707 -559.302,496.215 -643.623,496.729 -601.903,423.446 -590.83,403.994 
				-574.829,398.184 -568.718,430.847 -552.739,398.184 -536.769,411.817 -539.588,395.837 -531.799,398.651 -517.582,422.939 			
				"/>
			<polygon style="fill:#6FC184;" points="-471.292,492.354 -531.799,492.823 -550.054,401.076 -536.767,411.817 -539.59,395.839 
				-530.156,398.194 			"/>
			<polygon style="fill:#EFEFEF;" points="-539.59,395.839 -536.767,411.817 -550.054,401.076 -560.184,350.163 -530.156,398.194 
							"/>
			<polygon style="fill:#FFFFFF;" points="-550.054,401.076 -568.721,430.843 -574.828,398.185 -590.83,403.992 -560.184,350.163 
							"/>
		</g>
		<g style="clip-path:url(#SVGID_2_);">
			<polygon style="fill:#5FB776;" points="-717.534,492.286 -836.312,493 -955.08,493.724 -896.316,390.503 -880.72,363.104 
				-858.183,354.921 -849.575,400.928 -827.069,354.921 -804.572,374.124 -808.543,351.617 -797.573,355.579 -777.548,389.789 			
				"/>
			<polygon style="fill:#57A369;" points="-708.924,492.35 -797.945,492.77 -823.286,358.995 -804.571,374.124 -808.547,351.619 
				-795.26,354.936 			"/>
			<polygon style="fill:#EFEFEF;" points="-808.547,351.619 -804.571,374.124 -823.286,358.995 -837.554,287.283 -795.26,354.936 
							"/>
			<polygon style="fill:#FFFFFF;" points="-823.286,358.995 -849.578,400.922 -858.181,354.923 -880.72,363.102 -837.554,287.283 
							"/>
		</g>
		<path style="clip-path:url(#SVGID_2_);fill:#57A369;" d="M-880.44,554.936c-0.74,1.05-1.34,2.21-1.78,3.441h-50.47
			c-6.69,0-12.55-3.54-15.83-8.841c3.37,3.341,8,5.4,13.11,5.4H-880.44z"/>
		<g style="clip-path:url(#SVGID_2_);">
			<path style="fill:#57A369;" d="M-199.811,539.786c0,10.261-8.33,18.591-18.59,18.591h-663.82c0.44-1.231,1.04-2.391,1.78-3.441
				h659.31c10.27,0,18.59-8.32,18.59-18.59c0-3.57-1.01-6.91-2.76-9.75C-201.911,529.966-199.811,534.627-199.811,539.786z"/>
			<path style="fill:#70C185;" d="M-202.541,536.346c0,10.27-8.319,18.59-18.59,18.59h-714.28c-5.11,0-9.74-2.059-13.11-5.4
				c-3.38-3.37-5.48-8.04-5.48-13.189c0-5.13,2.08-9.78,5.44-13.141c3.37-3.359,8.02-5.44,13.15-5.44h714.28
				c6.69,0,12.561,3.53,15.83,8.83C-203.551,529.436-202.541,532.776-202.541,536.346z"/>
			<path style="fill:#57A369;" d="M-132.661,513.916c0,11.73-9.5,21.23-21.22,21.23h-815.52c-6.04,0-11.49-2.519-15.34-6.58
				c3.41,2.33,7.53,3.7,11.97,3.7h815.51c11.72,0,21.22-9.5,21.22-21.22c0-5.69-2.25-10.86-5.899-14.67
				C-136.341,500.206-132.661,506.636-132.661,513.916z"/>
			<path style="fill:#70C185;" d="M-136.041,511.046c0,11.72-9.5,21.22-21.22,21.22h-815.51c-4.44,0-8.56-1.37-11.97-3.7
				c-3.64-3.81-5.88-8.96-5.88-14.65c0-5.85,2.38-11.159,6.22-15c3.84-3.829,9.14-6.21,15-6.21h815.52
				c4.431,0,8.54,1.36,11.94,3.671C-138.291,500.186-136.041,505.356-136.041,511.046z"/>
			<path style="fill:#70C185;" d="M-134.661,511.045c0,11.721-9.502,21.221-21.221,21.221h-815.516c-11.72,0-21.22-9.5-21.22-21.221
				l0,0c0-11.719,9.5-21.219,21.22-21.219h815.516C-144.163,489.827-134.661,499.327-134.661,511.045L-134.661,511.045z"/>
			<path style="fill:#70C185;" d="M-136.041,511.047c0,11.72-9.5,21.22-21.22,21.22h-815.51c-4.44,0-8.56-1.37-11.97-3.7
				c-5.58-3.82-9.25-10.24-9.25-17.52c0-5.86,2.37-11.16,6.21-15c3.84-3.841,9.15-6.221,15.01-6.221h815.51
				c6.03,0,11.47,2.511,15.32,6.551C-138.291,500.187-136.041,505.357-136.041,511.047z"/>
			<path style="fill:#70C185;" d="M-202.541,536.346c0,10.27-8.319,18.59-18.59,18.59h-714.28c-5.11,0-9.74-2.059-13.11-5.4
				c-1.75-2.84-2.76-6.18-2.76-9.75c0-5.14,2.08-9.779,5.45-13.149c3.36-3.36,8.01-5.44,13.14-5.44h714.29
				c5.109,0,9.739,2.061,13.1,5.4C-203.551,529.436-202.541,532.776-202.541,536.346z"/>
			<path style="fill:#57A369;" d="M-275.921,566.896c0,8.26-6.689,14.95-14.95,14.95H-865.44c-5.53,0-10.37-3.01-12.96-7.49
				c2.67,2.521,6.27,4.06,10.24,4.06h574.57c8.25,0,14.95-6.699,14.95-14.949c0-1.79-0.31-3.5-0.89-5.09h0.939
				C-276.9,560.796-275.921,563.726-275.921,566.896z"/>
			<path style="fill:#70C185;" d="M-279.53,558.377c0.58,1.59,0.89,3.3,0.89,5.09c0,8.25-6.7,14.949-14.95,14.949h-574.57
				c-3.97,0-7.57-1.539-10.24-4.06c-1.27-2.19-1.99-4.74-1.99-7.46c0-3.17,0.98-6.1,2.67-8.519c0.5-0.731,1.08-1.421,1.71-2.051
				c0.5-0.5,1.03-0.96,1.6-1.39c2.5-1.87,5.61-2.99,8.97-2.99h574.569c3.36,0,6.471,1.12,8.971,2.99
				c0.439,0.33,0.859,0.691,1.26,1.07c0.77,0.71,1.46,1.51,2.05,2.37H-279.53z"/>
			<path style="fill:#70C185;" d="M-278.641,563.466c0,8.25-6.7,14.949-14.95,14.949h-574.57c-3.97,0-7.57-1.539-10.24-4.06
				c-2.9-2.729-4.71-6.6-4.71-10.89c0-1.79,0.31-3.5,0.89-5.09c0.44-1.231,1.04-2.391,1.78-3.441c0.51-0.73,1.08-1.41,1.71-2.04
				c2.7-2.71,6.44-4.38,10.57-4.38h574.57c5.08,0,9.58,2.54,12.271,6.42c0.25,0.34,0.47,0.7,0.68,1.07
				c0.44,0.75,0.81,1.54,1.11,2.37C-278.95,559.966-278.641,561.676-278.641,563.466z"/>
			<path style="fill:#AFD6E0;" d="M-720.892,514.637h-40.55c0.06-0.454,0.101-0.913,0.101-1.383c0-5.828-4.724-10.553-10.551-10.553
				h-181.287c-5.827,0-10.551,4.725-10.551,10.553c0,5.826,4.724,10.551,10.551,10.551h40.55c-0.06,0.454-0.101,0.914-0.101,1.385
				c0,5.826,4.724,10.551,10.551,10.551h181.287c5.827,0,10.551-4.725,10.551-10.551
				C-710.341,519.362-715.065,514.637-720.892,514.637z"/>
		</g>
		<path style="clip-path:url(#SVGID_2_);fill:#4EA8B7;" d="M-912.711,522.531c0,0.431,0.03,0.86,0.08,1.28h-40.53
			c-5.02,0-9.21-3.49-10.28-8.18c1.789,3.279,5.27,5.519,9.28,5.519h41.55C-912.671,521.601-912.711,522.061-912.711,522.531z"/>
		<path style="clip-path:url(#SVGID_2_);fill:#4EA8B7;" d="M-710.336,525.191c0,5.82-4.72,10.55-10.55,10.55h-181.29
			c-5.02,0-9.21-3.5-10.28-8.189c1.789,3.29,5.27,5.52,9.28,5.52h181.29c5.83,0,10.55-4.72,10.55-10.55c0-0.81-0.09-1.609-0.27-2.37
			C-710.796,521.651-710.336,523.372-710.336,525.191z"/>
		<g style="clip-path:url(#SVGID_2_);">
			<rect x="-696.385" y="517.538" style="fill:#6E3F37;" width="12.091" height="26.359"/>
			<path style="fill:#D3D667;" d="M-661.911,498.924c0,19.1-12.765,24.559-28.527,24.559s-28.541-6.072-28.541-25.172
				c0-19.102,12.778-44,28.541-44S-661.911,479.823-661.911,498.924z"/>
			<path style="fill:#FFFFFF;" d="M-690.441,454.309v69.176c-15.766,0-28.539-6.076-28.539-25.17
				C-718.979,479.211-706.207,454.317-690.441,454.309z"/>
		</g>
		<g style="clip-path:url(#SVGID_2_);">
			<circle style="fill:#FFFFFF;" cx="-244.442" cy="484.571" r="3.369"/>
			<g>
				<circle style="fill:#FFFFFF;" cx="-359.477" cy="510.362" r="11.833"/>
				<circle style="fill:#FFFFFF;" cx="-357.234" cy="508.149" r="18.085"/>
				<circle style="fill:#FFFFFF;" cx="-382.296" cy="511.42" r="18.086"/>
				<circle style="fill:#FFFFFF;" cx="-388.415" cy="498.528" r="18.086"/>
				<circle style="fill:#FFFFFF;" cx="-411.562" cy="498.702" r="18.086"/>
				<circle style="fill:#FFFFFF;" cx="-311.837" cy="506.028" r="18.085"/>
				<circle style="fill:#FFFFFF;" cx="-284.974" cy="500.702" r="18.085"/>
				<circle style="fill:#FFFFFF;" cx="-336.745" cy="518.787" r="24.906"/>
				<circle style="fill:#FFFFFF;" cx="-371.311" cy="533.16" r="19.163"/>
				<circle style="fill:#FFFFFF;" cx="-304.77" cy="522.195" r="14.55"/>
				<circle style="fill:#FFFFFF;" cx="-414.478" cy="541.088" r="7"/>
				<circle style="fill:#FFFFFF;" cx="-474.974" cy="525.129" r="7"/>
				<circle style="fill:#FFFFFF;" cx="-448.544" cy="514.088" r="7"/>
				<circle style="fill:#FFFFFF;" cx="-244.442" cy="507.227" r="7"/>
				<circle style="fill:#FFFFFF;" cx="-231.681" cy="520.552" r="3.369"/>
				<circle style="fill:#FFFFFF;" cx="-383.155" cy="524.911" r="7"/>
				<circle style="fill:#FFFFFF;" cx="-426.395" cy="525.129" r="7"/>
				<circle style="fill:#FFFFFF;" cx="-255.777" cy="517.181" r="4.333"/>
				<circle style="fill:#FFFFFF;" cx="-255.777" cy="528.448" r="4.333"/>
				<circle style="fill:#FFFFFF;" cx="-393.476" cy="557.137" r="6.119"/>
				<circle style="fill:#FFFFFF;" cx="-398.311" cy="534.92" r="2.833"/>
				<circle style="fill:#FFFFFF;" cx="-441.701" cy="530.072" r="2.833"/>
				<circle style="fill:#AFAFAF;" cx="-354.943" cy="518.422" r="6.708"/>
				<circle style="fill:#AFAFAF;" cx="-358.488" cy="498.702" r="10.253"/>
				<circle style="fill:#AFAFAF;" cx="-319.319" cy="498.528" r="7.103"/>
				<circle style="fill:#AFAFAF;" cx="-371.311" cy="500.702" r="7.104"/>
				<circle style="fill:#AFAFAF;" cx="-334.561" cy="502.567" r="14.118"/>
				<circle style="fill:#AFAFAF;" cx="-348.966" cy="500.702" r="9.523"/>
				<circle style="fill:#AFAFAF;" cx="-334.561" cy="527.561" r="5.599"/>
				<circle style="fill:#AFAFAF;" cx="-378.415" cy="517.182" r="3.912"/>
				<circle style="fill:#AFAFAF;" cx="-308.304" cy="513.921" r="3.912"/>
				<circle style="fill:#FFFFFF;" cx="-275.004" cy="532.78" r="10.474"/>
				<circle style="fill:#FFFFFF;" cx="-287.809" cy="546.422" r="4.335"/>
			</g>
		</g>
		<g style="clip-path:url(#SVGID_2_);">
			<path style="fill:#979695;" d="M-390.837,409.682V188.415c0-26.763,27.52-72.834,44.879-72.834
				c14.641,0,44.863,47.719,44.881,72.833v221.268H-390.837z"/>
			<rect x="-390.837" y="264.43" style="fill:#7F7E7C;" width="89.76" height="1.502"/>
			<rect x="-390.837" y="224.972" style="fill:#7F7E7C;" width="89.76" height="1.503"/>
			<rect x="-391.173" y="185.514" style="fill:#7F7E7C;" width="90.096" height="1.504"/>
			<path style="fill:#FFFFFF;" d="M-390.837,265.188v0.001V265.188c-2.483-0.609-15.197,36.414-15.197,38.032v180.53h15.197h15.199
				V303.22C-375.638,301.602-388.354,264.579-390.837,265.188z"/>
			<path style="fill:#FFFFFF;" d="M-301.077,264.5v0.001V264.5c-2.484-0.619-15.199,37.044-15.199,38.689v183.654h15.199h15.199
				V303.19C-285.878,301.544-298.595,263.881-301.077,264.5z"/>
			<rect x="-406.019" y="372.963" style="fill:#EFEFEF;" width="30.363" height="1.502"/>
			<rect x="-396.099" y="303.433" style="fill:#C9C8C8;" width="10.523" height="35.416"/>
			<rect x="-306.339" y="303.433" style="fill:#C9C8C8;" width="10.523" height="35.416"/>
			<rect x="-316.259" y="303.114" style="fill:#EFEFEF;" width="30.363" height="1.503"/>
			<rect x="-316.276" y="337.649" style="fill:#EFEFEF;" width="30.363" height="1.504"/>
			<rect x="-316.259" y="372.211" style="fill:#EFEFEF;" width="30.363" height="1.504"/>
			<rect x="-406.019" y="409.682" style="fill:#EFEFEF;" width="30.363" height="1.504"/>
			<rect x="-406.019" y="408.93" style="fill:#EFEFEF;" width="30.363" height="1.504"/>
			<rect x="-316.259" y="408.93" style="fill:#EFEFEF;" width="30.363" height="1.504"/>
			<rect x="-406.019" y="303.114" style="fill:#EFEFEF;" width="30.363" height="1.503"/>
			<rect x="-406.019" y="337.778" style="fill:#EFEFEF;" width="30.363" height="1.504"/>
			<rect x="-355.935" y="187.018" style="fill:#F94E4E;" width="19.99" height="150.76"/>
			<rect x="-375.655" y="303.114" style="fill:#7F7E7C;" width="59.379" height="1.503"/>
			<path style="fill:#E2E2E2;" d="M-316.276,337.206c-0.014,10.482-13.285,3.272-29.67,3.272c-16.387,0-29.41,6.246-29.672-4.234
				c-0.615-24.727,20.477-63.416,29.672-63.416C-335.36,272.827-316.247,312.535-316.276,337.206z"/>
			<rect x="-375.618" y="337.206" style="fill:#E2E2E2;" width="59.342" height="154.814"/>
			<rect x="-375.618" y="372.963" style="fill:#7F7E7C;" width="59.359" height="1.502"/>
			<rect x="-375.618" y="408.932" style="fill:#7F7E7C;" width="59.359" height="1.502"/>
			<rect x="-375.618" y="444.741" style="fill:#7F7E7C;" width="59.359" height="1.502"/>
			<path style="fill:#7F7E7C;" d="M-375.642,359.069c0,0-6.312,8.727-12.906,54.107c-2.875,19.793-45.857,51.355-46.15,67.363
				c-0.027,1.389,1.088,11.828,17.688,11.471h41.393L-375.642,359.069z"/>
			<path style="fill:#7F7E7C;" d="M-316.253,359.069c0,0,6.312,8.727,12.906,54.107c2.875,19.793,45.857,51.355,46.152,67.363
				c0.025,1.389-1.09,11.828-17.689,11.471h-41.393L-316.253,359.069z"/>
			<rect x="-375.636" y="336.946" style="fill:#F94E4E;" width="59.359" height="2.91"/>
			<path style="fill:#F94E4E;" d="M-345.964,494.891v-26.256c0-6.906,5.619-12.525,12.525-12.525
				c6.857,0,12.453,5.551,12.523,12.397v0.014l0.002,26.371H-345.964z"/>
			<path style="fill:#E2E2E2;" d="M-323.665,468.62c-0.008-5.392-4.381-9.76-9.773-9.76c-5.4,0-9.775,4.377-9.775,9.773v0.002l0,0
				v23.506h19.551v-23.506C-323.663,468.629-323.665,468.624-323.665,468.62z"/>
			<path style="fill:#F94E4E;" d="M-371.015,494.891v-26.256c0-6.906,5.619-12.525,12.525-12.525
				c6.859,0,12.455,5.551,12.525,12.397v0.014v26.371H-371.015z"/>
			<path style="fill:#E2E2E2;" d="M-348.714,468.62c-0.008-5.392-4.381-9.76-9.775-9.76c-5.398,0-9.775,4.377-9.775,9.773v0.002l0,0
				v23.506h19.553v-23.506C-348.712,468.629-348.714,468.624-348.714,468.62z"/>
			<path style="fill:#F94E4E;" d="M-335.942,187.225c0-5.52-4.475-19.996-9.996-19.996c-5.52,0-9.996,14.476-9.996,19.996
				c0,5.521,4.477,9.996,9.996,9.996C-340.417,197.221-335.942,192.746-335.942,187.225z"/>
			<rect x="-416.544" y="483.229" style="fill:#F94E4E;" width="34.248" height="3.166"/>
			<rect x="-310.876" y="483.229" style="fill:#F94E4E;" width="34.248" height="3.166"/>
		</g>
		<g style="clip-path:url(#SVGID_2_);">
			<g>
				<path style="fill:#FFFFFF;" d="M-698.895,670.641v-0.27c-0.359,0.422-0.717,0.754-1.064,1.01
					c-0.35,0.266-0.73,0.459-1.142,0.596c-0.411,0.133-0.857,0.203-1.341,0.203c-0.641,0-1.238-0.137-1.783-0.414
					c-0.549-0.266-1.021-0.656-1.418-1.164c-0.4-0.496-0.705-1.094-0.912-1.777c-0.206-0.684-0.309-1.424-0.309-2.215
					c0-1.68,0.41-2.988,1.227-3.928c0.821-0.938,1.898-1.406,3.23-1.406c0.779,0,1.429,0.135,1.958,0.398
					c0.535,0.27,1.05,0.678,1.554,1.219v-3.957c0-0.553,0.111-0.965,0.332-1.254c0.219-0.289,0.532-0.422,0.932-0.422
					c0.408,0,0.723,0.133,0.943,0.394c0.221,0.256,0.331,0.639,0.331,1.139v11.848c0,0.516-0.122,0.898-0.354,1.158
					c-0.24,0.25-0.541,0.381-0.92,0.381c-0.363,0-0.666-0.131-0.903-0.398C-698.774,671.52-698.895,671.133-698.895,670.641z
					 M-704.168,666.7c0,0.723,0.111,1.348,0.336,1.855c0.229,0.516,0.54,0.897,0.928,1.158c0.393,0.26,0.821,0.393,1.287,0.393
					c0.468,0,0.901-0.133,1.293-0.373c0.389-0.244,0.699-0.617,0.934-1.127c0.232-0.516,0.349-1.147,0.349-1.906
					c0-0.719-0.117-1.332-0.349-1.842c-0.234-0.52-0.545-0.92-0.94-1.189c-0.401-0.273-0.833-0.406-1.304-0.406
					c-0.492,0-0.932,0.141-1.316,0.412c-0.387,0.281-0.686,0.691-0.9,1.213C-704.062,665.403-704.168,666.01-704.168,666.7z"/>
				<path style="fill:#FFFFFF;" d="M-686.179,667.377h-5.245c0.007,0.609,0.127,1.148,0.365,1.613
					c0.24,0.469,0.555,0.818,0.959,1.051c0.393,0.242,0.828,0.352,1.307,0.352c0.324,0,0.613-0.029,0.883-0.106
					c0.262-0.074,0.514-0.201,0.768-0.355c0.25-0.156,0.48-0.332,0.693-0.522c0.207-0.18,0.475-0.432,0.809-0.742
					c0.141-0.115,0.334-0.184,0.592-0.184c0.277,0,0.493,0.074,0.668,0.223c0.167,0.154,0.256,0.375,0.256,0.643
					c0,0.25-0.097,0.529-0.286,0.857c-0.19,0.326-0.477,0.637-0.865,0.932c-0.376,0.299-0.856,0.545-1.44,0.75
					c-0.574,0.193-1.242,0.291-2,0.291c-1.723,0-3.058-0.496-4.021-1.478c-0.954-0.981-1.434-2.312-1.434-4.002
					c0-0.797,0.12-1.533,0.354-2.211c0.24-0.678,0.582-1.266,1.033-1.744c0.453-0.49,1.009-0.861,1.672-1.127
					c0.662-0.256,1.396-0.373,2.205-0.373c1.046,0,1.943,0.213,2.688,0.658c0.754,0.441,1.32,1.014,1.693,1.715
					c0.371,0.699,0.557,1.42,0.557,2.147c0,0.676-0.193,1.119-0.578,1.314C-684.936,667.278-685.48,667.377-686.179,667.377z
					 M-691.424,665.854h4.859c-0.06-0.924-0.307-1.602-0.744-2.06c-0.427-0.457-0.994-0.686-1.691-0.686
					c-0.665,0-1.217,0.229-1.645,0.69C-691.075,664.262-691.338,664.946-691.424,665.854z"/>
				<path style="fill:#FFFFFF;" d="M-673.074,668.669c0,0.74-0.18,1.373-0.537,1.896c-0.362,0.535-0.894,0.936-1.599,1.201
					c-0.702,0.277-1.559,0.414-2.565,0.414c-0.961,0-1.79-0.146-2.482-0.443c-0.688-0.295-1.194-0.666-1.521-1.104
					c-0.324-0.447-0.489-0.893-0.489-1.338c0-0.295,0.104-0.547,0.314-0.756c0.21-0.213,0.47-0.317,0.8-0.317
					c0.278,0,0.492,0.068,0.643,0.209c0.154,0.127,0.301,0.328,0.436,0.576c0.275,0.48,0.604,0.834,0.986,1.07
					c0.381,0.234,0.912,0.355,1.568,0.355c0.537,0,0.974-0.121,1.322-0.355c0.344-0.242,0.512-0.516,0.512-0.812
					c0-0.482-0.178-0.834-0.531-1.043c-0.361-0.215-0.945-0.432-1.768-0.619c-0.919-0.232-1.674-0.465-2.251-0.721
					c-0.582-0.256-1.043-0.586-1.394-1c-0.343-0.418-0.518-0.924-0.518-1.527c0-0.533,0.154-1.049,0.482-1.531
					c0.317-0.473,0.791-0.852,1.415-1.139c0.632-0.289,1.383-0.428,2.266-0.428c0.691,0,1.316,0.068,1.875,0.215
					c0.555,0.141,1.014,0.336,1.384,0.584c0.372,0.24,0.652,0.512,0.844,0.803c0.194,0.295,0.29,0.582,0.29,0.865
					c0,0.309-0.102,0.568-0.306,0.752c-0.211,0.203-0.503,0.299-0.882,0.299c-0.277,0-0.508-0.07-0.704-0.234
					c-0.194-0.152-0.413-0.391-0.659-0.709c-0.209-0.26-0.449-0.473-0.72-0.631c-0.275-0.154-0.649-0.236-1.122-0.236
					c-0.486,0-0.885,0.111-1.206,0.318c-0.323,0.201-0.479,0.461-0.479,0.766c0,0.283,0.116,0.512,0.35,0.689
					c0.236,0.186,0.553,0.34,0.954,0.453c0.396,0.115,0.95,0.258,1.654,0.435c0.825,0.205,1.511,0.445,2.036,0.723
					c0.527,0.289,0.926,0.621,1.197,1C-673.207,667.739-673.074,668.178-673.074,668.669z"/>
				<path style="fill:#FFFFFF;" d="M-669.441,660.012c-0.381,0-0.697-0.125-0.957-0.346c-0.271-0.232-0.4-0.557-0.4-0.977
					c0-0.383,0.133-0.699,0.408-0.945c0.271-0.24,0.584-0.365,0.949-0.365c0.343,0,0.646,0.111,0.921,0.334
					c0.268,0.227,0.399,0.553,0.399,0.977c0,0.414-0.125,0.734-0.392,0.973C-668.774,659.887-669.08,660.012-669.441,660.012z
					 M-668.121,662.782v7.766c0,0.533-0.125,0.943-0.38,1.217c-0.255,0.279-0.579,0.416-0.975,0.416
					c-0.394,0-0.713-0.137-0.956-0.424c-0.245-0.283-0.367-0.686-0.367-1.209v-7.688c0-0.529,0.122-0.934,0.367-1.193
					c0.243-0.275,0.562-0.408,0.956-0.408c0.396,0,0.72,0.133,0.975,0.408C-668.246,661.926-668.121,662.297-668.121,662.782z"/>
				<path style="fill:#FFFFFF;" d="M-655.482,663.223v7.807c0,0.887-0.092,1.658-0.287,2.297c-0.185,0.652-0.492,1.17-0.911,1.598
					c-0.419,0.414-0.962,0.73-1.646,0.938c-0.68,0.199-1.525,0.301-2.53,0.301c-0.925,0-1.752-0.129-2.477-0.383
					c-0.724-0.264-1.28-0.605-1.685-1.012c-0.385-0.406-0.583-0.824-0.583-1.262c0-0.334,0.111-0.598,0.334-0.799
					c0.217-0.211,0.486-0.316,0.803-0.316c0.396,0,0.738,0.174,1.033,0.527c0.139,0.174,0.29,0.352,0.445,0.535
					c0.159,0.176,0.324,0.334,0.514,0.461c0.186,0.131,0.412,0.221,0.668,0.285c0.266,0.061,0.566,0.094,0.904,0.094
					c0.696,0,1.236-0.094,1.621-0.285c0.385-0.195,0.652-0.469,0.81-0.814c0.15-0.348,0.235-0.721,0.262-1.111
					c0.027-0.402,0.047-1.039,0.065-1.922c-0.414,0.57-0.893,1.022-1.437,1.317c-0.538,0.305-1.177,0.461-1.927,0.461
					c-0.896,0-1.682-0.234-2.353-0.693c-0.675-0.457-1.192-1.104-1.545-1.932c-0.366-0.828-0.544-1.779-0.544-2.869
					c0-0.799,0.109-1.525,0.328-2.18c0.221-0.647,0.529-1.197,0.941-1.639c0.404-0.453,0.875-0.783,1.406-1.018
					c0.529-0.217,1.11-0.332,1.744-0.332c0.758,0,1.419,0.143,1.981,0.439c0.552,0.287,1.07,0.746,1.549,1.365v-0.354
					c0-0.473,0.115-0.832,0.346-1.088c0.232-0.256,0.522-0.381,0.883-0.381c0.52,0,0.861,0.172,1.033,0.504
					C-655.568,662.102-655.482,662.583-655.482,663.223z M-663.256,666.639c0,1.082,0.238,1.904,0.713,2.459
					c0.475,0.553,1.086,0.84,1.844,0.84c0.446,0,0.869-0.121,1.26-0.369c0.396-0.238,0.721-0.596,0.971-1.076
					c0.254-0.484,0.377-1.07,0.377-1.752c0-1.1-0.246-1.951-0.726-2.559c-0.485-0.615-1.118-0.92-1.9-0.92
					c-0.77,0-1.387,0.291-1.843,0.883C-663.023,664.727-663.256,665.551-663.256,666.639z"/>
				<path style="fill:#FFFFFF;" d="M-650.332,662.745v0.322c0.473-0.621,0.984-1.082,1.547-1.369c0.562-0.295,1.203-0.44,1.93-0.44
					c0.709,0,1.343,0.152,1.898,0.457c0.556,0.312,0.973,0.746,1.249,1.315c0.174,0.326,0.292,0.682,0.339,1.055
					c0.054,0.391,0.082,0.869,0.082,1.463v5c0,0.533-0.125,0.943-0.369,1.217c-0.246,0.279-0.568,0.416-0.958,0.416
					c-0.403,0-0.724-0.137-0.975-0.424c-0.249-0.283-0.374-0.686-0.374-1.209v-4.475c0-0.885-0.12-1.568-0.369-2.039
					c-0.242-0.467-0.736-0.697-1.469-0.697c-0.475,0-0.916,0.139-1.305,0.43c-0.398,0.273-0.684,0.664-0.864,1.164
					c-0.131,0.412-0.198,1.154-0.198,2.246v3.371c0,0.541-0.125,0.953-0.377,1.219c-0.254,0.277-0.578,0.414-0.977,0.414
					c-0.388,0-0.704-0.137-0.954-0.424c-0.252-0.283-0.371-0.686-0.371-1.209v-7.766c0-0.514,0.11-0.898,0.335-1.144
					c0.224-0.254,0.526-0.379,0.911-0.379c0.235,0,0.449,0.055,0.639,0.16c0.185,0.121,0.346,0.289,0.455,0.508
					C-650.389,662.151-650.332,662.426-650.332,662.745z"/>
				<path style="fill:#FFFFFF;" d="M-633.132,667.377h-5.243c0.004,0.609,0.123,1.148,0.367,1.613
					c0.236,0.469,0.559,0.818,0.951,1.051c0.398,0.242,0.838,0.352,1.312,0.352c0.322,0,0.616-0.029,0.879-0.106
					c0.271-0.074,0.521-0.201,0.779-0.355c0.244-0.156,0.475-0.332,0.68-0.522c0.214-0.18,0.482-0.432,0.816-0.742
					c0.14-0.115,0.337-0.184,0.594-0.184c0.274,0,0.492,0.074,0.662,0.223c0.178,0.154,0.26,0.375,0.26,0.643
					c0,0.25-0.096,0.529-0.284,0.857c-0.19,0.326-0.48,0.637-0.864,0.932c-0.38,0.299-0.857,0.545-1.444,0.75
					c-0.573,0.193-1.247,0.291-1.997,0.291c-1.724,0-3.061-0.496-4.02-1.478c-0.951-0.981-1.435-2.312-1.435-4.002
					c0-0.797,0.12-1.533,0.354-2.211c0.232-0.678,0.584-1.266,1.033-1.744c0.453-0.49,1.006-0.861,1.668-1.127
					c0.66-0.256,1.396-0.373,2.204-0.373c1.042,0,1.948,0.213,2.693,0.658c0.751,0.441,1.314,1.014,1.692,1.715
					c0.371,0.699,0.553,1.42,0.553,2.147c0,0.676-0.195,1.119-0.58,1.314C-631.882,667.278-632.424,667.377-633.132,667.377z
					 M-638.375,665.854h4.861c-0.065-0.924-0.312-1.602-0.743-2.06c-0.423-0.457-0.993-0.686-1.695-0.686
					c-0.665,0-1.212,0.229-1.645,0.69C-638.021,664.262-638.283,664.946-638.375,665.854z"/>
				<path style="fill:#FFFFFF;" d="M-621.306,670.641v-0.27c-0.366,0.422-0.716,0.754-1.067,1.01
					c-0.354,0.266-0.737,0.459-1.139,0.596c-0.41,0.133-0.857,0.203-1.344,0.203c-0.64,0-1.236-0.137-1.785-0.414
					c-0.547-0.266-1.017-0.656-1.418-1.164c-0.398-0.496-0.701-1.094-0.908-1.777c-0.211-0.684-0.311-1.424-0.311-2.215
					c0-1.68,0.411-2.988,1.225-3.928c0.826-0.938,1.908-1.406,3.238-1.406c0.773,0,1.426,0.135,1.951,0.398
					c0.531,0.27,1.051,0.678,1.558,1.219v-3.957c0-0.553,0.105-0.965,0.33-1.254c0.216-0.289,0.532-0.422,0.937-0.422
					c0.406,0,0.715,0.133,0.94,0.394c0.213,0.256,0.328,0.639,0.328,1.139v11.848c0,0.516-0.12,0.898-0.357,1.158
					c-0.234,0.25-0.545,0.381-0.912,0.381c-0.372,0-0.669-0.131-0.912-0.398C-621.188,671.52-621.306,671.133-621.306,670.641z
					 M-626.582,666.7c0,0.723,0.114,1.348,0.336,1.855c0.229,0.516,0.54,0.897,0.931,1.158c0.394,0.26,0.821,0.393,1.286,0.393
					c0.472,0,0.904-0.133,1.293-0.373c0.382-0.244,0.697-0.617,0.93-1.127c0.235-0.516,0.354-1.147,0.354-1.906
					c0-0.719-0.118-1.332-0.354-1.842c-0.232-0.52-0.548-0.92-0.943-1.189c-0.393-0.273-0.829-0.406-1.299-0.406
					c-0.494,0-0.93,0.141-1.32,0.412c-0.386,0.281-0.683,0.691-0.893,1.213C-626.478,665.403-626.582,666.01-626.582,666.7z"/>
				<path style="fill:#FFFFFF;" d="M-608.571,658.794v4.1c0.504-0.514,1.018-0.92,1.539-1.195c0.531-0.287,1.174-0.422,1.949-0.422
					c0.887,0,1.672,0.215,2.342,0.633c0.67,0.422,1.191,1.037,1.557,1.852c0.379,0.795,0.56,1.744,0.56,2.85
					c0,0.812-0.107,1.559-0.307,2.236c-0.209,0.678-0.51,1.27-0.904,1.766c-0.391,0.498-0.869,0.889-1.432,1.154
					c-0.559,0.277-1.172,0.414-1.846,0.414c-0.422,0-0.803-0.051-1.168-0.146c-0.359-0.096-0.67-0.23-0.934-0.394
					c-0.25-0.162-0.465-0.324-0.65-0.49c-0.176-0.174-0.414-0.434-0.707-0.777v0.27c0,0.508-0.125,0.893-0.369,1.158
					c-0.236,0.25-0.543,0.381-0.924,0.381c-0.373,0-0.682-0.131-0.906-0.381c-0.229-0.266-0.34-0.65-0.34-1.158v-11.731
					c0-0.543,0.107-0.951,0.33-1.23c0.221-0.287,0.523-0.42,0.916-0.42c0.414,0,0.736,0.133,0.959,0.402
					C-608.688,657.926-608.571,658.307-608.571,658.794z M-608.444,666.776c0,1.07,0.244,1.893,0.734,2.465
					c0.482,0.576,1.121,0.865,1.918,0.865c0.67,0,1.254-0.297,1.74-0.881c0.496-0.592,0.736-1.434,0.736-2.525
					c0-0.717-0.103-1.318-0.305-1.834c-0.205-0.51-0.498-0.91-0.869-1.191c-0.369-0.272-0.807-0.412-1.303-0.412
					c-0.512,0-0.965,0.141-1.367,0.412c-0.395,0.281-0.717,0.691-0.949,1.219C-608.331,665.426-608.444,666.053-608.444,666.776z"/>
				<path style="fill:#FFFFFF;" d="M-596.262,672.51l0.244-0.6l-3.301-8.32c-0.199-0.482-0.303-0.82-0.303-1.045
					c0-0.223,0.062-0.443,0.18-0.643c0.115-0.195,0.271-0.348,0.482-0.467c0.211-0.119,0.42-0.178,0.644-0.178
					c0.391,0,0.678,0.125,0.873,0.359c0.197,0.254,0.373,0.607,0.52,1.064l2.275,6.613l2.146-6.15
					c0.174-0.5,0.334-0.891,0.463-1.172c0.135-0.275,0.291-0.469,0.443-0.57c0.15-0.094,0.365-0.144,0.652-0.144
					c0.199,0,0.395,0.055,0.58,0.16c0.191,0.113,0.336,0.256,0.432,0.441c0.109,0.184,0.156,0.375,0.156,0.578
					c-0.027,0.121-0.074,0.289-0.125,0.527c-0.06,0.231-0.137,0.469-0.219,0.703l-3.502,9.166c-0.307,0.812-0.594,1.445-0.887,1.898
					c-0.281,0.465-0.666,0.809-1.139,1.061c-0.479,0.24-1.119,0.369-1.924,0.369c-0.785,0-1.373-0.086-1.764-0.25
					c-0.396-0.176-0.592-0.486-0.592-0.94c0-0.307,0.088-0.543,0.277-0.713c0.188-0.174,0.463-0.25,0.832-0.25
					c0.143,0,0.283,0.019,0.42,0.057c0.172,0.041,0.316,0.053,0.447,0.053c0.303,0,0.551-0.039,0.725-0.131
					c0.18-0.092,0.334-0.252,0.473-0.482C-596.608,673.284-596.442,672.95-596.262,672.51z"/>
			</g>
			<g>
				<path style="fill:#FFFFFF;" d="M-546.626,661.491h0.639v-0.803c0-0.842,0.104-1.512,0.326-2c0.203-0.5,0.568-0.857,1.076-1.084
					c0.508-0.232,1.199-0.344,2.094-0.344c1.557,0,2.344,0.385,2.344,1.154c0,0.246-0.088,0.459-0.25,0.641
					c-0.164,0.178-0.356,0.266-0.574,0.266c-0.113,0-0.295-0.02-0.549-0.062c-0.25-0.037-0.469-0.055-0.643-0.055
					c-0.49,0-0.801,0.141-0.938,0.424c-0.137,0.293-0.205,0.699-0.205,1.221v0.643h0.662c1.023,0,1.531,0.311,1.531,0.936
					c0,0.432-0.131,0.707-0.408,0.832c-0.271,0.111-0.643,0.176-1.123,0.176h-0.662v7.113c0,0.525-0.125,0.93-0.373,1.213
					c-0.258,0.283-0.582,0.42-0.983,0.42c-0.377,0-0.697-0.137-0.955-0.42c-0.244-0.283-0.371-0.688-0.371-1.213v-7.113h-0.742
					c-0.398,0-0.699-0.09-0.914-0.279c-0.225-0.174-0.328-0.408-0.328-0.699C-547.972,661.809-547.522,661.491-546.626,661.491z"/>
				<path style="fill:#FFFFFF;" d="M-537.044,668.294v2.254c0,0.541-0.125,0.953-0.379,1.219c-0.262,0.277-0.586,0.414-0.977,0.414
					c-0.383,0-0.705-0.137-0.947-0.416c-0.258-0.273-0.381-0.684-0.381-1.217v-7.481c0-1.207,0.43-1.809,1.305-1.809
					c0.441,0,0.766,0.139,0.961,0.422c0.199,0.277,0.309,0.701,0.328,1.248c0.322-0.547,0.65-0.971,0.988-1.248
					c0.336-0.283,0.783-0.422,1.352-0.422c0.559,0,1.107,0.139,1.639,0.422c0.531,0.277,0.793,0.656,0.793,1.115
					c0,0.338-0.107,0.6-0.336,0.822c-0.225,0.205-0.467,0.311-0.734,0.311c-0.096,0-0.332-0.059-0.707-0.168
					c-0.377-0.135-0.705-0.193-1.006-0.193c-0.387,0-0.709,0.102-0.957,0.315c-0.252,0.203-0.438,0.512-0.584,0.918
					c-0.135,0.406-0.23,0.893-0.287,1.453C-537.022,666.811-537.044,667.497-537.044,668.294z"/>
				<path style="fill:#FFFFFF;" d="M-523.911,667.377h-5.246c0.014,0.609,0.131,1.148,0.373,1.613
					c0.234,0.469,0.551,0.818,0.951,1.051c0.395,0.242,0.83,0.352,1.309,0.352c0.322,0,0.617-0.029,0.883-0.106
					c0.268-0.074,0.518-0.201,0.77-0.355c0.256-0.156,0.477-0.332,0.685-0.522c0.213-0.18,0.488-0.432,0.824-0.742
					c0.135-0.115,0.334-0.184,0.59-0.184c0.271,0,0.494,0.074,0.662,0.223c0.162,0.154,0.256,0.375,0.256,0.643
					c0,0.25-0.094,0.529-0.283,0.857c-0.195,0.326-0.482,0.637-0.855,0.932c-0.383,0.299-0.871,0.545-1.451,0.75
					c-0.58,0.193-1.248,0.291-1.998,0.291c-1.729,0-3.065-0.496-4.021-1.478c-0.955-0.981-1.434-2.312-1.434-4.002
					c0-0.797,0.119-1.533,0.359-2.211c0.229-0.678,0.572-1.266,1.027-1.744c0.451-0.49,1.01-0.861,1.676-1.127
					c0.652-0.256,1.387-0.373,2.201-0.373c1.045,0,1.932,0.213,2.688,0.658c0.754,0.441,1.316,1.014,1.689,1.715
					c0.369,0.699,0.562,1.42,0.562,2.147c0,0.676-0.193,1.119-0.584,1.314C-522.669,667.278-523.2,667.377-523.911,667.377z
					 M-529.157,665.854h4.867c-0.072-0.924-0.305-1.602-0.734-2.06c-0.439-0.457-1.004-0.686-1.703-0.686
					c-0.674,0-1.215,0.229-1.65,0.69C-528.802,664.262-529.06,664.946-529.157,665.854z"/>
				<path style="fill:#FFFFFF;" d="M-511.948,667.377h-5.25c0.01,0.609,0.131,1.148,0.369,1.613c0.238,0.469,0.56,0.818,0.951,1.051
					c0.398,0.242,0.836,0.352,1.312,0.352c0.322,0,0.606-0.029,0.877-0.106c0.266-0.074,0.531-0.201,0.771-0.355
					c0.248-0.156,0.479-0.332,0.688-0.522c0.211-0.18,0.492-0.432,0.82-0.742c0.141-0.115,0.332-0.184,0.59-0.184
					c0.275,0,0.498,0.074,0.666,0.223c0.17,0.154,0.252,0.375,0.252,0.643c0,0.25-0.092,0.529-0.277,0.857
					c-0.193,0.326-0.479,0.637-0.865,0.932c-0.381,0.299-0.863,0.545-1.441,0.75c-0.582,0.193-1.25,0.291-1.998,0.291
					c-1.721,0-3.065-0.496-4.02-1.478c-0.957-0.981-1.434-2.312-1.434-4.002c0-0.797,0.121-1.533,0.35-2.211
					c0.236-0.678,0.58-1.266,1.031-1.744c0.455-0.49,1.008-0.861,1.676-1.127c0.662-0.256,1.394-0.373,2.197-0.373
					c1.045,0,1.949,0.213,2.701,0.658c0.746,0.441,1.309,1.014,1.686,1.715c0.375,0.699,0.557,1.42,0.557,2.147
					c0,0.676-0.191,1.119-0.582,1.314C-510.708,667.278-511.247,667.377-511.948,667.377z M-517.198,665.854h4.859
					c-0.065-0.924-0.312-1.602-0.738-2.06c-0.43-0.457-0.99-0.686-1.691-0.686c-0.67,0-1.215,0.229-1.65,0.69
					C-516.837,664.262-517.112,664.946-517.198,665.854z"/>
				<path style="fill:#FFFFFF;" d="M-505.269,662.77v0.311c0.512-0.619,1.031-1.078,1.572-1.365c0.545-0.297,1.158-0.439,1.85-0.439
					c0.824,0,1.58,0.215,2.279,0.639c0.693,0.43,1.238,1.051,1.646,1.867c0.398,0.815,0.6,1.789,0.6,2.918
					c0,0.822-0.119,1.578-0.352,2.273c-0.229,0.693-0.549,1.275-0.957,1.742c-0.402,0.469-0.881,0.832-1.432,1.088
					c-0.555,0.25-1.15,0.377-1.785,0.377c-0.768,0-1.412-0.158-1.932-0.463c-0.527-0.311-1.023-0.764-1.49-1.354v4.027
					c0,1.178-0.438,1.771-1.281,1.771c-0.512,0-0.844-0.152-1.01-0.453c-0.166-0.309-0.24-0.758-0.24-1.336v-11.592
					c0-0.514,0.109-0.898,0.33-1.144c0.221-0.254,0.525-0.379,0.92-0.379c0.377,0,0.684,0.125,0.92,0.389
					C-505.386,661.903-505.269,662.28-505.269,662.77z M-500.011,666.67c0-0.709-0.107-1.32-0.326-1.824
					c-0.217-0.514-0.516-0.908-0.897-1.178c-0.381-0.273-0.807-0.406-1.277-0.406c-0.73,0-1.355,0.291-1.871,0.883
					c-0.504,0.582-0.762,1.443-0.762,2.574c0,1.062,0.252,1.897,0.762,2.492c0.5,0.598,1.127,0.895,1.871,0.895
					c0.455,0,0.863-0.133,1.236-0.393c0.387-0.262,0.691-0.643,0.918-1.16C-500.132,668.024-500.011,667.401-500.011,666.67z"/>
				<path style="fill:#FFFFFF;" d="M-493.802,660.012c-0.383,0-0.707-0.125-0.967-0.346c-0.26-0.232-0.398-0.557-0.398-0.977
					c0-0.383,0.139-0.699,0.412-0.945c0.262-0.24,0.584-0.365,0.953-0.365c0.338,0,0.647,0.111,0.916,0.334
					c0.266,0.227,0.402,0.553,0.402,0.977c0,0.414-0.131,0.734-0.396,0.973C-493.142,659.887-493.456,660.012-493.802,660.012z
					 M-492.483,662.782v7.766c0,0.533-0.131,0.943-0.389,1.217c-0.252,0.279-0.57,0.416-0.971,0.416
					c-0.395,0-0.713-0.137-0.953-0.424c-0.244-0.283-0.371-0.686-0.371-1.209v-7.688c0-0.529,0.127-0.934,0.371-1.193
					c0.24-0.275,0.559-0.408,0.953-0.408c0.4,0,0.719,0.133,0.971,0.408C-492.614,661.926-492.483,662.297-492.483,662.782z"/>
				<path style="fill:#FFFFFF;" d="M-483.032,670.95l-2.373-3.9l-1.455,1.383v2.133c0,0.516-0.123,0.912-0.397,1.195
					c-0.279,0.283-0.598,0.42-0.938,0.42c-0.422,0-0.738-0.137-0.975-0.416c-0.246-0.273-0.357-0.684-0.357-1.217v-11.453
					c0-0.598,0.109-1.051,0.336-1.361c0.236-0.316,0.565-0.473,0.996-0.473c0.41,0,0.734,0.133,0.977,0.422
					c0.242,0.289,0.357,0.701,0.357,1.254v6.514l3.023-3.17c0.375-0.396,0.654-0.666,0.85-0.807
					c0.197-0.146,0.438-0.215,0.719-0.215c0.336,0,0.611,0.102,0.84,0.322c0.219,0.209,0.33,0.477,0.33,0.801
					c0,0.394-0.363,0.916-1.09,1.57l-1.428,1.31l2.752,4.33c0.211,0.324,0.352,0.564,0.443,0.731c0.08,0.164,0.129,0.33,0.129,0.475
					c0,0.43-0.115,0.764-0.348,1.017c-0.232,0.238-0.547,0.365-0.92,0.365c-0.332,0-0.576-0.094-0.76-0.27
					C-482.495,671.737-482.729,671.415-483.032,670.95z"/>
				<path style="fill:#FFFFFF;" d="M-476.401,672.18c-0.402,0-0.756-0.131-1.047-0.398c-0.299-0.258-0.453-0.625-0.453-1.1
					c0-0.398,0.147-0.744,0.428-1.031c0.283-0.287,0.639-0.436,1.041-0.436c0.414,0,0.768,0.148,1.061,0.428
					c0.289,0.289,0.438,0.631,0.438,1.039c0,0.467-0.148,0.838-0.438,1.1C-475.665,672.049-476.003,672.18-476.401,672.18z"/>
				<path style="fill:#FFFFFF;" d="M-462.261,668.85c0,0.336-0.098,0.691-0.301,1.07c-0.199,0.391-0.504,0.746-0.908,1.092
					c-0.41,0.344-0.934,0.625-1.551,0.828c-0.623,0.213-1.328,0.318-2.104,0.318c-1.656,0-2.951-0.484-3.879-1.453
					c-0.93-0.965-1.398-2.264-1.398-3.889c0-1.104,0.215-2.082,0.641-2.926c0.42-0.844,1.043-1.498,1.854-1.959
					c0.803-0.461,1.762-0.688,2.885-0.688c0.691,0,1.324,0.096,1.904,0.305c0.586,0.195,1.076,0.453,1.481,0.781
					c0.402,0.318,0.705,0.66,0.92,1.025c0.215,0.369,0.318,0.705,0.318,1.021c0,0.328-0.117,0.598-0.361,0.815
					c-0.234,0.225-0.525,0.332-0.865,0.332c-0.223,0-0.414-0.059-0.557-0.168c-0.152-0.115-0.309-0.297-0.494-0.557
					c-0.324-0.498-0.668-0.877-1.027-1.125c-0.357-0.246-0.814-0.369-1.359-0.369c-0.789,0-1.428,0.312-1.918,0.928
					c-0.482,0.625-0.729,1.465-0.729,2.543c0,0.508,0.061,0.973,0.193,1.393c0.117,0.42,0.303,0.781,0.535,1.09
					c0.232,0.287,0.523,0.523,0.853,0.674c0.332,0.154,0.707,0.228,1.105,0.228c0.531,0,0.994-0.127,1.379-0.367
					c0.381-0.264,0.717-0.631,1.016-1.15c0.168-0.297,0.342-0.537,0.531-0.697c0.189-0.178,0.418-0.26,0.693-0.26
					c0.334,0,0.598,0.113,0.814,0.369C-462.372,668.311-462.261,668.571-462.261,668.85z"/>
				<path style="fill:#FFFFFF;" d="M-449.88,666.719c0,0.791-0.117,1.531-0.375,2.205c-0.244,0.682-0.607,1.262-1.08,1.742
					c-0.469,0.49-1.027,0.867-1.688,1.133c-0.658,0.25-1.396,0.381-2.215,0.381c-0.805,0-1.535-0.131-2.188-0.398
					c-0.641-0.258-1.213-0.633-1.691-1.117c-0.465-0.498-0.832-1.072-1.074-1.74c-0.244-0.66-0.369-1.402-0.369-2.205
					c0-0.816,0.125-1.553,0.381-2.242c0.244-0.666,0.598-1.248,1.059-1.727c0.471-0.48,1.035-0.848,1.695-1.104
					c0.664-0.264,1.387-0.389,2.188-0.389c0.818,0,1.549,0.133,2.215,0.393c0.662,0.258,1.227,0.637,1.699,1.125
					c0.475,0.482,0.826,1.057,1.068,1.729C-449.997,665.174-449.88,665.915-449.88,666.719z M-452.571,666.719
					c0-1.1-0.244-1.949-0.727-2.562c-0.477-0.605-1.121-0.914-1.939-0.914c-0.52,0-0.983,0.133-1.387,0.404
					c-0.395,0.275-0.705,0.682-0.924,1.211c-0.213,0.531-0.32,1.152-0.32,1.861c0,0.701,0.107,1.312,0.32,1.836
					c0.213,0.527,0.52,0.922,0.914,1.203c0.398,0.283,0.861,0.414,1.397,0.414c0.818,0,1.463-0.295,1.939-0.906
					C-452.815,668.643-452.571,667.792-452.571,666.719z"/>
				<path style="fill:#FFFFFF;" d="M-438.845,666.911v3.576c0,0.564-0.127,0.986-0.377,1.27c-0.262,0.287-0.6,0.424-1.02,0.424
					c-0.404,0-0.734-0.137-0.986-0.424c-0.252-0.283-0.385-0.705-0.385-1.27v-4.281c0-0.682-0.02-1.191-0.061-1.576
					c-0.045-0.371-0.17-0.682-0.377-0.918c-0.203-0.242-0.52-0.355-0.963-0.355c-0.873,0-1.455,0.297-1.731,0.902
					c-0.275,0.605-0.42,1.469-0.42,2.594v3.635c0,0.557-0.123,0.977-0.381,1.264c-0.252,0.283-0.584,0.43-0.994,0.43
					c-0.402,0-0.732-0.146-1-0.43c-0.258-0.287-0.387-0.707-0.387-1.264v-7.691c0-0.498,0.111-0.887,0.346-1.145
					c0.242-0.26,0.545-0.393,0.916-0.393c0.377,0,0.684,0.125,0.92,0.359c0.254,0.254,0.373,0.598,0.373,1.027v0.248
					c0.465-0.549,0.963-0.961,1.498-1.223c0.523-0.26,1.117-0.395,1.762-0.395c0.682,0,1.258,0.135,1.74,0.404
					c0.49,0.268,0.887,0.678,1.203,1.213c0.447-0.541,0.938-0.949,1.457-1.219c0.512-0.264,1.088-0.398,1.713-0.398
					c0.736,0,1.369,0.143,1.898,0.432c0.533,0.295,0.924,0.707,1.186,1.238c0.236,0.488,0.348,1.25,0.348,2.295v5.246
					c0,0.564-0.135,0.986-0.389,1.27c-0.248,0.287-0.584,0.424-1.004,0.424c-0.4,0-0.742-0.146-0.996-0.43
					c-0.266-0.287-0.391-0.707-0.391-1.264v-4.522c0-0.572-0.023-1.035-0.076-1.389c-0.057-0.344-0.18-0.639-0.393-0.869
					c-0.221-0.238-0.549-0.352-0.986-0.352c-0.358,0-0.686,0.105-1.004,0.312c-0.315,0.201-0.572,0.488-0.75,0.852
					C-438.749,664.963-438.845,665.764-438.845,666.911z"/>
			</g>
			<g>
				<path style="fill:#FFFFFF;" d="M-567.765,654.331c-0.053-0.168-0.107-0.346-0.162-0.512c0.891-0.086,1.5-1.17,1.064-1.971
					c-0.406-0.902-1.793-1.012-2.328-0.185c-0.572,0.736-0.125,1.893,0.748,2.127c0.062,0.178,0.105,0.373,0.164,0.553
					c-1.348,0.098-2.723,0.393-3.865,1.166c0.121,0.32,0.236,0.662,0.354,0.986c2.293-1.002,4.844-0.785,7.26-0.545
					c0.084-0.316,0.162-0.637,0.242-0.959C-565.382,654.506-566.577,654.323-567.765,654.331z"/>
				<path style="fill:#FFFFFF;" d="M-554.167,658.026c-0.361,0.182-0.43,0.625-0.412,0.988c-0.402,0.387-0.207,0.986-0.248,1.471
					c-0.094,0.277-0.424,0.309-0.65,0.416c-0.318-0.49-0.652-0.949-1.084-1.346l0.01-0.021c-0.465-0.43-0.963-0.824-1.486-1.168
					c-0.42,0.449-0.865,0.9-1.27,1.369c0.805,0.883,1.547,1.846,2.203,2.842c0.457,0.764,0.816,1.574,1.135,2.406
					c0.678-0.354,1.352-0.719,2.033-1.074c-0.361-0.828-0.77-1.641-1.205-2.436c0.297-0.16,0.703-0.316,0.746-0.711
					c0.035-0.435-0.055-0.906,0.197-1.289c0.529,0.342,1.326-0.039,1.332-0.68C-552.794,658.127-553.626,657.655-554.167,658.026z"
					/>
				<path style="fill:#FFFFFF;" d="M-557.845,662.965c-0.887-1.471-1.842-2.935-3.148-4.066c-1.498-1.328-3.453-2.223-5.484-2.215
					c-2.559-0.021-5.158,0.381-7.516,1.416c-2.224,0.977-4.162,2.731-5.136,4.981c-0.945,2.023-0.93,4.361-0.506,6.519
					c2.357,0.586,4.756,1.109,7.183,1.221c2.404,0.078,4.811,0.133,7.197-0.195c3.273-0.44,6.486-1.467,9.344-3.15
					C-555.911,667.475-556.308,665.319-557.845,662.965z M-569.427,665.875c-0.447,0.645-1.086,1.143-1.818,1.424
					c-1.381,0.514-3.054,0.16-4.048-0.938c-0.691-0.764-1.1-1.787-1.029-2.828c0.057-1.295,0.857-2.502,1.994-3.107
					c0.859-0.463,1.9-0.549,2.849-0.281c0.395,0.096,0.754,0.281,1.094,0.506c0.703,0.492,1.221,1.223,1.459,2.055
					C-568.607,663.766-568.813,664.954-569.427,665.875z M-559.495,663.534c-0.162,1.111-1.221,2.043-2.35,1.971
					c-0.654,0.059-1.283-0.25-1.729-0.715c-0.318-0.396-0.578-0.852-0.625-1.377c-0.156-1.119,0.637-2.281,1.736-2.549
					c0.48-0.135,0.992-0.059,1.469,0.057C-559.964,661.282-559.288,662.456-559.495,663.534z"/>
				<path style="fill:#FFFFFF;" d="M-579.102,659.68c-0.957,0.58-1.744,1.395-2.402,2.293c-0.193-0.359-0.248-0.783-0.498-1.1
					c-0.143-0.191-0.398-0.111-0.596-0.111c-0.256,0.021-0.502-0.047-0.744-0.119c0.285-0.391,0.209-1-0.219-1.264
					c-0.459-0.324-1.172-0.041-1.295,0.508c-0.191,0.598,0.443,1.201,1.031,1.041c0.312,0.463,0.877,0.389,1.355,0.402
					c0.215,0.377,0.379,0.787,0.656,1.125c-0.516,1.014-0.807,2.15-0.832,3.285c0.664,0.279,1.326,0.559,1.984,0.838
					c0.029-0.725,0.117-1.438,0.223-2.137c0.219-1.549,1.109-2.883,2.168-3.984C-578.534,660.18-578.827,659.938-579.102,659.68z"/>
				<path style="fill:#FFFFFF;" d="M-563.69,671.297c-2.432,0.533-4.934,0.688-7.416,0.58c-1.68-0.078-3.361-0.24-4.999-0.605
					c-1.164-0.238-2.305-0.576-3.455-0.906c0.186,1.465,0.779,2.863,1.623,4.072c0.996,1.404,2.332,2.688,3.988,3.209
					c1.289,0.355,2.83,0.793,5.492,0.746c2.197-0.033,4.354-0.315,6.277-1.141c1.246-0.533,2.404-1.258,3.412-2.174
					c0.865-0.818,1.545-1.836,2.008-2.926c0.453-1.037,0.863-2.887,0.818-3.842C-558.321,669.667-560.976,670.844-563.69,671.297z"
					/>
			</g>
		</g>
		<g style="clip-path:url(#SVGID_2_);">
			<g>
				<polygon style="fill:#272727;" points="-863.891,120.139 -846.542,111.742 -854.054,103.346 				"/>
				<polygon style="fill:#272727;" points="-827.662,143.482 -816.834,127.537 -827.54,124.021 				"/>
				<polygon style="fill:#272727;" points="-784.615,145.585 -783.211,126.361 -794.24,128.669 				"/>
				<polygon style="fill:#272727;" points="-763.077,116.045 -746.284,125.881 -754.679,108.531 				"/>
				<polygon style="fill:#272727;" points="-742.401,89.53 -722.939,89.652 -738.885,78.824 				"/>
				<polygon style="fill:#272727;" points="-720.837,46.604 -740.061,45.201 -737.751,56.23 				"/>
				<polygon style="fill:#272727;" points="-740.542,8.273 -757.89,16.669 -750.375,25.067 				"/>
				<polygon style="fill:#272727;" points="-776.771,-15.07 -787.597,0.876 -776.891,4.391 				"/>
				<polygon style="fill:#272727;" points="-819.818,-17.172 -821.221,2.051 -810.192,-0.258 				"/>
				<polygon style="fill:#272727;" points="-841.355,12.367 -858.149,2.532 -849.753,19.881 				"/>
				<polygon style="fill:#272727;" points="-862.032,38.882 -881.493,38.761 -865.547,49.588 				"/>
				<polygon style="fill:#272727;" points="-883.594,81.809 -864.372,83.212 -866.68,72.183 				"/>
				<path style="fill:#272727;" d="M-762.311,31.106c-9.52-11.45-23.86-18.74-39.91-18.74c-17.751,0-33.408,8.927-42.749,22.532
					c-5.727,8.337-9.084,18.429-9.084,29.308c0,0.154,0.01,0.305,0.012,0.458c0.005,0.604,0.02,1.204,0.045,1.802
					c0.013,0.307,0.031,0.613,0.049,0.918c0.031,0.516,0.071,1.029,0.117,1.54c0.024,0.262,0.043,0.526,0.071,0.787
					c0.075,0.71,0.165,1.414,0.269,2.115c0.041,0.279,0.089,0.555,0.134,0.833c0.081,0.491,0.167,0.979,0.262,1.466
					c0.055,0.282,0.108,0.565,0.168,0.846c0.145,0.687,0.3,1.37,0.472,2.046c0.058,0.227,0.123,0.45,0.184,0.675
					c0.134,0.5,0.275,0.998,0.424,1.493c0.086,0.286,0.174,0.571,0.266,0.855c0.157,0.491,0.323,0.978,0.494,1.462
					c0.091,0.258,0.18,0.517,0.275,0.772c0.222,0.597,0.457,1.189,0.7,1.776c0.118,0.283,0.24,0.563,0.363,0.844
					c0.179,0.411,0.363,0.817,0.552,1.222c0.128,0.273,0.253,0.547,0.384,0.817c0.289,0.591,0.588,1.176,0.899,1.755
					c0.146,0.272,0.3,0.539,0.451,0.809c0.206,0.368,0.415,0.733,0.63,1.096c0.169,0.286,0.339,0.571,0.514,0.853
					c0.047,0.077,0.092,0.155,0.14,0.231c0.287,0.458,0.58,0.911,0.88,1.359c0.133,0.198,0.272,0.392,0.408,0.589
					c0.282,0.409,0.569,0.813,0.863,1.213c0.153,0.208,0.305,0.417,0.461,0.623c0.401,0.53,0.811,1.053,1.231,1.566
					c0.132,0.161,0.267,0.317,0.4,0.476c0.357,0.426,0.721,0.846,1.091,1.26c0.132,0.147,0.262,0.296,0.396,0.442
					c0.47,0.514,0.952,1.018,1.442,1.513c0.127,0.127,0.255,0.252,0.382,0.377c0.447,0.441,0.9,0.875,1.363,1.299
					c0.09,0.083,0.179,0.169,0.27,0.251c0.541,0.49,1.094,0.967,1.655,1.434c0.118,0.098,0.237,0.194,0.355,0.291
					c0.558,0.456,1.122,0.902,1.698,1.335c0.023,0.018,0.045,0.036,0.069,0.053c0.608,0.455,1.229,0.894,1.858,1.322
					c0.11,0.075,0.221,0.15,0.332,0.224c1.273,0.854,2.587,1.651,3.937,2.392c0.102,0.056,0.203,0.111,0.305,0.166
					c0.688,0.372,1.384,0.73,2.091,1.071c0.003,0.001,0.005,0.002,0.008,0.004c0.699,0.337,1.409,0.655,2.125,0.961
					c0.093,0.04,0.186,0.08,0.279,0.12c0.724,0.304,1.454,0.593,2.194,0.865c0.052,0.019,0.104,0.036,0.155,0.055
					c0.707,0.257,1.422,0.499,2.143,0.726c0.081,0.025,0.16,0.052,0.241,0.077c0.752,0.232,1.51,0.448,2.276,0.646
					c0.093,0.024,0.187,0.046,0.279,0.07c0.726,0.184,1.458,0.354,2.195,0.506c0.063,0.013,0.125,0.028,0.188,0.041
					c0.774,0.158,1.555,0.295,2.341,0.418c0.126,0.02,0.253,0.038,0.38,0.057c0.766,0.113,1.536,0.214,2.312,0.294
					c0.026,0.003,0.051,0.006,0.077,0.009c0.794,0.08,1.594,0.138,2.398,0.182c0.153,0.008,0.306,0.016,0.459,0.023
					c0.803,0.037,1.608,0.062,2.42,0.062c28.63,0,51.84-23.21,51.84-51.84C-750.381,51.626-754.861,40.096-762.311,31.106z"/>
			</g>
			<path style="fill:#FFF27A;" d="M-758.855,53.021c0,28.63-23.21,51.84-51.84,51.84c-16.03,0-30.36-7.28-39.87-18.7
				c-4.99-7.97-7.87-17.38-7.87-27.47c0-28.63,23.2-51.84,51.83-51.84c16.05,0,30.39,7.29,39.91,18.74
				C-761.726,33.541-758.855,42.941-758.855,53.021z"/>
			<polygon style="fill:#FFF27A;" points="-868.276,114.623 -858.439,97.83 -850.926,106.227 			"/>
			<polygon style="fill:#FFF27A;" points="-832.046,137.967 -831.924,118.506 -821.219,122.021 			"/>
			<polygon style="fill:#FFF27A;" points="-788.999,140.069 -798.624,123.154 -787.595,120.846 			"/>
			<polygon style="fill:#FFF27A;" points="-750.668,120.366 -767.461,110.53 -759.064,103.016 			"/>
			<polygon style="fill:#FFF27A;" points="-727.324,84.136 -746.786,84.015 -743.27,73.309 			"/>
			<polygon style="fill:#FFF27A;" points="-725.222,41.089 -742.136,50.715 -744.446,39.685 			"/>
			<polygon style="fill:#FFF27A;" points="-744.926,2.758 -754.76,19.551 -762.275,11.153 			"/>
			<polygon style="fill:#FFF27A;" points="-781.156,-20.586 -781.276,-1.125 -791.982,-4.64 			"/>
			<polygon style="fill:#FFF27A;" points="-824.203,-22.688 -814.577,-5.773 -825.606,-3.465 			"/>
			<polygon style="fill:#FFF27A;" points="-862.534,-2.984 -845.74,6.852 -854.137,14.365 			"/>
			<polygon style="fill:#FFF27A;" points="-885.878,33.246 -866.417,33.366 -869.932,44.072 			"/>
			<polygon style="fill:#FFF27A;" points="-887.979,76.293 -871.065,66.667 -868.756,77.696 			"/>
			<path style="fill:#FFFFFF;" d="M-806.601,6.852L-806.601,6.852c-28.63,0-51.838,23.209-51.838,51.838
				c0,28.63,23.208,51.839,51.838,51.839h0V6.852z"/>
			<path style="fill:#FFC950;" d="M-754.766,58.691c0,28.63-23.21,51.84-51.84,51.84c-18.54,0-34.8-9.73-43.96-24.37
				c9.51,11.42,23.84,18.7,39.87,18.7c28.63,0,51.84-23.21,51.84-51.84c0-10.08-2.87-19.48-7.84-27.43
				C-759.246,34.581-754.766,46.111-754.766,58.691z"/>
		</g>
		<g style="clip-path:url(#SVGID_2_);">
			<g>
				<path style="fill:#272727;" d="M-465.124,98.393c0-0.001,0-0.001,0-0.002c0-0.032-0.002-0.063-0.002-0.095
					c-0.002-0.32-0.008-0.638-0.025-0.954c-0.006-0.14-0.02-0.279-0.029-0.419c-0.016-0.207-0.027-0.415-0.047-0.62
					c-0.016-0.158-0.039-0.313-0.059-0.469c-0.021-0.186-0.041-0.372-0.07-0.556c-0.023-0.161-0.055-0.32-0.082-0.481
					c-0.029-0.176-0.059-0.353-0.094-0.527c-0.033-0.163-0.07-0.323-0.107-0.484c-0.037-0.17-0.074-0.34-0.117-0.508
					c-0.039-0.162-0.086-0.321-0.129-0.481c-0.045-0.165-0.09-0.329-0.141-0.492c-0.049-0.162-0.102-0.322-0.154-0.483
					c-0.053-0.156-0.104-0.312-0.158-0.467c-0.06-0.164-0.123-0.327-0.185-0.489c-0.055-0.146-0.111-0.293-0.172-0.438
					c-0.068-0.167-0.141-0.333-0.215-0.498c-0.059-0.135-0.119-0.27-0.182-0.403c-0.08-0.172-0.164-0.342-0.25-0.512
					c-0.061-0.12-0.121-0.24-0.184-0.359c-0.096-0.181-0.193-0.358-0.293-0.536c-0.059-0.101-0.115-0.203-0.174-0.303
					c-0.113-0.191-0.227-0.38-0.346-0.567c-0.051-0.08-0.1-0.158-0.15-0.236c-0.135-0.206-0.272-0.41-0.414-0.611
					c-0.035-0.052-0.072-0.103-0.107-0.154c-0.162-0.225-0.326-0.447-0.496-0.665c-0.016-0.02-0.031-0.04-0.047-0.06
					c-3.83-4.901-9.789-8.056-16.492-8.056c-1.193,0-2.363,0.105-3.502,0.297c-5.156-9.856-15.473-16.587-27.367-16.587
					c-11.463,0-21.459,6.253-26.783,15.529c-1.324-0.247-2.689-0.384-4.086-0.384c-12.188,0-22.066,9.88-22.066,22.067
					c0,4.715,1.484,9.083,4.004,12.669c0.053,0.075,0.105,0.149,0.16,0.223c0.23,0.323,0.471,0.638,0.719,0.946
					c0.041,0.049,0.078,0.101,0.119,0.149c0.27,0.33,0.551,0.651,0.84,0.964c0.102,0.11,0.205,0.217,0.309,0.324
					c0.199,0.207,0.4,0.409,0.607,0.608c0.121,0.119,0.244,0.238,0.371,0.354c0.26,0.24,0.527,0.474,0.801,0.702
					c0.16,0.135,0.326,0.263,0.49,0.394c0.201,0.158,0.402,0.315,0.609,0.466c0.168,0.123,0.338,0.244,0.51,0.362
					c0.188,0.13,0.379,0.256,0.57,0.38c0.176,0.113,0.35,0.229,0.527,0.337c0.316,0.191,0.639,0.375,0.965,0.551
					c0.191,0.103,0.387,0.2,0.582,0.297c0.191,0.096,0.385,0.19,0.578,0.281c0.201,0.094,0.404,0.187,0.609,0.275
					c0.225,0.097,0.453,0.186,0.682,0.275c0.311,0.121,0.625,0.235,0.941,0.342c0.223,0.075,0.443,0.149,0.668,0.218
					c0.213,0.064,0.43,0.124,0.644,0.183c0.219,0.059,0.44,0.113,0.66,0.165c0.209,0.049,0.418,0.102,0.629,0.145
					c0.383,0.079,0.768,0.147,1.156,0.206c0.211,0.031,0.426,0.055,0.641,0.081c0.236,0.028,0.475,0.054,0.713,0.075
					c0.221,0.02,0.442,0.038,0.66,0.05c0.279,0.017,0.561,0.023,0.844,0.029c0.152,0.004,0.303,0.017,0.457,0.017
					c4.555,0,8.783-1.382,12.307-3.747c5.162,3.897,11.59,6.204,18.561,6.204l0,0c0.002,0,0.002,0,0.002,0
					c3.111,0,6.113-0.466,8.945-1.322c0.115-0.036,0.233-0.066,0.35-0.103c0.152-0.048,0.303-0.103,0.455-0.154
					c0.264-0.088,0.529-0.174,0.791-0.269c0.004-0.001,0.008-0.003,0.012-0.004c3.283-1.194,6.307-2.931,8.963-5.101
					c3.271,2.114,7.17,3.347,11.35,3.347h0.002h0.002c7.832,0,14.652-4.304,18.238-10.673c1.707-3.028,2.684-6.521,2.684-10.244
					C-465.124,98.395-465.124,98.394-465.124,98.393z"/>
				<path style="fill:#FFFFFF;" d="M-520.087,36.994c-1.732,0-3.43,0.152-5.082,0.432c-7.473-14.292-22.432-24.051-39.676-24.051
					c-16.621,0-31.114,9.066-38.834,22.516c-1.921-0.36-3.899-0.557-5.924-0.557c-17.67,0-31.994,14.324-31.994,31.994
					c0,17.67,14.324,31.995,31.994,31.995c6.606,0,12.743-2.003,17.84-5.433c7.491,5.649,16.813,9.001,26.918,9.001
					c10.736,0,20.588-3.784,28.299-10.087c4.742,3.07,10.389,4.859,16.459,4.859c16.754,0,30.334-13.581,30.334-30.335
					S-503.333,36.994-520.087,36.994z"/>
				<path style="fill:#E2E2E2;" d="M-489.753,67.336c0,16.745-13.582,30.328-30.342,30.328c-6.06,0-11.709-1.787-16.455-4.854
					c-7.715,6.303-17.566,10.081-28.299,10.081c-10.106,0-19.426-3.345-26.912-8.995c-5.107,3.429-11.24,5.433-17.844,5.433
					c-12.303,0-22.988-6.942-28.324-17.132c5.832,6.326,14.198,10.286,23.495,10.286c6.604,0,12.737-2.004,17.845-5.433
					c7.486,5.65,16.806,9.006,26.911,9.006c10.732,0,20.586-3.791,28.299-10.094c4.746,3.067,10.396,4.866,16.457,4.866
					c16.758,0,30.34-13.583,30.34-30.34c0-5.011-1.207-9.731-3.367-13.884C-492.856,52.026-489.753,59.318-489.753,67.336z"/>
			</g>
			<g>
				<path style="fill:#272727;" d="M-622.683,241.558c0,0,0-0.001,0-0.002c0-0.031-0.003-0.062-0.003-0.094
					c-0.001-0.318-0.008-0.634-0.024-0.948c-0.006-0.14-0.02-0.277-0.03-0.416c-0.015-0.206-0.026-0.412-0.047-0.616
					c-0.015-0.157-0.038-0.311-0.057-0.466c-0.023-0.184-0.043-0.369-0.07-0.552c-0.023-0.161-0.054-0.319-0.082-0.479
					c-0.03-0.175-0.059-0.351-0.094-0.524c-0.032-0.162-0.069-0.321-0.106-0.481c-0.038-0.169-0.074-0.337-0.116-0.504
					c-0.04-0.161-0.086-0.319-0.129-0.479c-0.045-0.164-0.09-0.327-0.139-0.489c-0.049-0.161-0.102-0.32-0.155-0.479
					c-0.051-0.155-0.102-0.31-0.157-0.464c-0.059-0.164-0.121-0.325-0.183-0.486c-0.056-0.145-0.113-0.29-0.171-0.434
					c-0.069-0.166-0.141-0.33-0.213-0.494c-0.059-0.134-0.119-0.268-0.181-0.401c-0.08-0.171-0.163-0.34-0.248-0.508
					c-0.06-0.12-0.121-0.239-0.183-0.357c-0.095-0.18-0.192-0.356-0.291-0.533c-0.058-0.101-0.115-0.202-0.174-0.302
					c-0.111-0.19-0.226-0.378-0.343-0.564c-0.049-0.079-0.1-0.157-0.15-0.235c-0.133-0.205-0.269-0.408-0.41-0.607
					c-0.036-0.051-0.072-0.102-0.108-0.153c-0.16-0.224-0.323-0.444-0.492-0.662c-0.016-0.02-0.031-0.039-0.046-0.059
					c-3.806-4.871-9.729-8.006-16.391-8.006c-1.186,0-2.349,0.105-3.482,0.296c-5.123-9.796-15.376-16.486-27.197-16.486
					c-11.393,0-21.327,6.214-26.619,15.434c-1.317-0.246-2.673-0.381-4.061-0.381c-12.112,0-21.931,9.819-21.931,21.931
					c0,4.687,1.475,9.027,3.979,12.591c0.052,0.075,0.105,0.148,0.158,0.222c0.231,0.32,0.469,0.634,0.716,0.941
					c0.04,0.049,0.077,0.1,0.117,0.148c0.269,0.328,0.548,0.647,0.836,0.958c0.101,0.109,0.204,0.215,0.307,0.322
					c0.197,0.206,0.398,0.407,0.602,0.604c0.122,0.118,0.244,0.236,0.369,0.352c0.259,0.239,0.524,0.472,0.796,0.698
					c0.16,0.134,0.324,0.262,0.487,0.392c0.2,0.157,0.401,0.313,0.606,0.463c0.167,0.122,0.335,0.242,0.506,0.359
					c0.187,0.129,0.378,0.255,0.569,0.378c0.174,0.112,0.346,0.227,0.523,0.335c0.315,0.19,0.634,0.373,0.958,0.547
					c0.19,0.103,0.385,0.199,0.578,0.296c0.19,0.096,0.382,0.189,0.575,0.279c0.201,0.094,0.401,0.186,0.605,0.274
					c0.224,0.096,0.451,0.185,0.678,0.274c0.309,0.12,0.621,0.233,0.936,0.34c0.22,0.075,0.44,0.148,0.664,0.216
					c0.212,0.064,0.426,0.124,0.641,0.182c0.217,0.059,0.436,0.112,0.656,0.164c0.208,0.049,0.415,0.101,0.625,0.144
					c0.379,0.078,0.762,0.146,1.148,0.204c0.21,0.031,0.422,0.055,0.635,0.081c0.236,0.028,0.472,0.054,0.71,0.075
					c0.218,0.02,0.437,0.037,0.656,0.05c0.278,0.016,0.557,0.023,0.837,0.029c0.151,0.003,0.301,0.017,0.453,0.017
					c4.527,0,8.731-1.374,12.232-3.724c5.131,3.873,11.52,6.165,18.446,6.165h0.001c0.001,0,0.001,0,0.002,0
					c3.092,0,6.075-0.463,8.889-1.314c0.116-0.035,0.232-0.065,0.347-0.102c0.152-0.048,0.301-0.103,0.452-0.153
					c0.264-0.088,0.528-0.173,0.788-0.268c0.003-0.001,0.007-0.003,0.011-0.004c3.263-1.188,6.268-2.913,8.908-5.069
					c3.252,2.102,7.125,3.327,11.279,3.327c0.001,0,0.002,0,0.003,0c0,0,0.001,0,0.002,0c7.783,0,14.561-4.278,18.126-10.607
					c1.696-3.01,2.667-6.481,2.667-10.181C-622.683,241.56-622.683,241.559-622.683,241.558z"/>
				<path style="fill:#FFFFFF;" d="M-676.338,193.068c-1.435,0-2.839,0.126-4.208,0.357c-6.19-11.837-18.58-19.92-32.863-19.92
					c-13.766,0-25.771,7.509-32.165,18.649c-1.591-0.298-3.23-0.461-4.907-0.461c-14.636,0-26.5,11.864-26.5,26.5
					c0,14.636,11.864,26.5,26.5,26.5c5.471,0,10.555-1.659,14.776-4.5c6.205,4.679,13.925,7.455,22.295,7.455
					c8.893,0,17.052-3.134,23.44-8.355c3.927,2.542,8.605,4.025,13.632,4.025c13.877,0,25.125-11.249,25.125-25.125
					C-651.213,204.316-662.461,193.068-676.338,193.068z"/>
				<path style="fill:#E2E2E2;" d="M-651.213,218.199c0,13.87-11.25,25.12-25.131,25.12c-5.019,0-9.699-1.48-13.63-4.02
					c-6.39,5.22-14.55,8.35-23.439,8.35c-8.37,0-16.09-2.77-22.29-7.45c-4.23,2.84-9.31,4.5-14.78,4.5
					c-10.19,0-19.04-5.75-23.46-14.19c4.83,5.24,11.76,8.52,19.46,8.52c5.47,0,10.55-1.66,14.78-4.5c6.2,4.68,13.92,7.46,22.29,7.46
					c8.89,0,17.05-3.14,23.439-8.36c3.931,2.54,8.61,4.03,13.63,4.03c13.881,0,25.131-11.25,25.131-25.13c0-4.15-1-8.06-2.79-11.5
					C-653.783,205.519-651.213,211.559-651.213,218.199z"/>
			</g>
		</g>
		<g style="clip-path:url(#SVGID_2_);">
			<rect x="-760.44" y="512.993" style="fill:#6E3F37;" width="13.957" height="30.43"/>
			<ellipse style="fill:#D3D667;" cx="-753.577" cy="454.307" rx="32.946" ry="65.549"/>
			<path style="fill:#FFFFFF;" d="M-753.577,388.758v131.098c-18.196,0-32.946-29.35-32.946-65.549
				C-786.523,418.1-771.772,388.758-753.577,388.758z"/>
		</g>
		<g style="clip-path:url(#SVGID_2_);">
			<rect x="-567.579" y="515.803" style="fill:#6E3F37;" width="12.092" height="26.359"/>
			<path style="fill:#D3D667;" d="M-533.104,497.19c0,19.1-12.766,24.559-28.527,24.559c-15.763,0-28.54-6.072-28.54-25.172
				c0-19.102,12.777-44,28.54-44C-545.87,452.577-533.104,478.088-533.104,497.19z"/>
			<path style="fill:#FFFFFF;" d="M-561.634,452.575v69.176c-15.766,0-28.539-6.076-28.539-25.17
				C-590.172,477.477-577.4,452.582-561.634,452.575z"/>
		</g>
	</g>
</g>
</svg>
