<?xml version="1.0" encoding="utf-8"?>
<!-- Generator: Adobe Illustrator 17.0.0, SVG Export Plug-In . SVG Version: 6.00 Build 0)  -->
<!DOCTYPE svg PUBLIC "-//W3C//DTD SVG 1.1//EN" "http://www.w3.org/Graphics/SVG/1.1/DTD/svg11.dtd">
<svg version="1.1" id="图层_1" xmlns="http://www.w3.org/2000/svg" xmlns:xlink="http://www.w3.org/1999/xlink" x="0px" y="0px"
	 width="30.94px" height="31.219px" viewBox="0 0 30.94 31.219" enable-background="new 0 0 30.94 31.219" xml:space="preserve">
<path fill="#FF775C" d="M29.369,22.952c-1.486,2.71-3.62,4.83-6.319,6.395c-1.089,0.632-2.311,0.986-3.535,1.304
	c-0.89,0.23-1.794,0.395-2.707,0.496c-0.716,0.078-1.44,0.076-2.162,0.056c-3.198-0.092-5.975-1.206-8.35-3.279
	c-1.808-1.576-3.125-3.504-4.191-5.607c-0.888-1.754-1.556-3.588-2.103-5.467c-0.046-0.154-0.019-0.224,0.123-0.305
	c2.407-1.373,4.81-2.751,7.213-4.128c5.579-3.196,11.158-6.392,16.734-9.594c0.199-0.115,0.29-0.09,0.435,0.078
	c1.745,2.022,3.307,4.162,4.501,6.543c0.664,1.321,1.195,2.69,1.526,4.127c0.175,0.76,0.297,1.529,0.351,2.307
	c0.056,0.341,0.049,0.684,0.046,1.027C30.914,19.044,30.404,21.065,29.369,22.952z M24.741,20.692
	c-0.181-1.014-0.588-1.951-1.085-2.854c-0.078-0.142-0.162-0.193-0.329-0.08c-1.149,0.781-2.305,1.552-3.457,2.327
	c-1.05,0.705-2.096,1.415-3.149,2.115c-0.145,0.096-0.137,0.147-0.033,0.273c0.422,0.515,0.864,1.009,1.387,1.43
	c0.961,0.773,2.014,1.326,3.304,1.339c1.174,0.013,2.149-0.352,2.8-1.353c0.444-0.684,0.667-1.43,0.614-2.27
	C24.831,21.324,24.796,21.004,24.741,20.692z M15.885,5.277c-1.626,0.049-2.796-1.099-2.816-2.637
	c-0.017-1.391,1.039-2.631,2.692-2.653c1.608-0.021,2.725,1.2,2.757,2.64C18.51,4.002,17.461,5.23,15.885,5.277z M16.103,0.572
	c-0.461-0.009-0.89,0.416-0.884,0.864c0.006,0.44,0.388,0.9,0.915,0.885c0.503-0.015,0.875-0.363,0.877-0.853
	C17.066,0.984,16.628,0.583,16.103,0.572z M3.057,12.552c-1.478-0.013-2.67-1.208-2.662-2.667c0.009-1.459,1.231-2.632,2.733-2.621
	c1.523,0.011,2.711,1.199,2.699,2.701C5.815,11.407,4.575,12.565,3.057,12.552z M3.715,7.975c-0.492,0.007-0.901,0.406-0.899,0.88
	c0.001,0.476,0.418,0.878,0.905,0.874C4.222,9.724,4.612,9.339,4.61,8.85C4.609,8.365,4.203,7.969,3.715,7.975z"/>
</svg>
