<?xml version="1.0" encoding="utf-8"?>
<!-- Generator: Adobe Illustrator 17.0.0, SVG Export Plug-In . SVG Version: 6.00 Build 0)  -->
<!DOCTYPE svg PUBLIC "-//W3C//DTD SVG 1.1//EN" "http://www.w3.org/Graphics/SVG/1.1/DTD/svg11.dtd">
<svg version="1.1" id="Layer_1" xmlns="http://www.w3.org/2000/svg" xmlns:xlink="http://www.w3.org/1999/xlink" x="0px" y="0px"
	 width="307.094px" height="132.443px" viewBox="0 0 307.094 132.443" enable-background="new 0 0 307.094 132.443"
	 xml:space="preserve">
<path fill="#FF5A5A" d="M121.773,46.699c-5.833,7.144-11.15,10.987-15.978,11.541c-2.936,0.339-5.2-0.842-6.785-3.497
	c-1.598-2.675-2.44-6.374-2.518-11.104c-0.072-3.66,0.62-8.768,2.022-15.325c1.429-6.57,3.308-12.167,5.663-16.8
	c0.75-1.455,1.507-2.897,2.264-4.352c-3.125,3.621-5.676,7.451-7.633,11.509c-1.944,4.078-4.267,9.701-6.922,16.871
	c-2.675,7.157-4.671,12.044-6.035,14.647c-1.377,2.603-2.694,4.75-3.954,6.4c-1.272,1.657-2.401,2.753-3.399,3.262
	c-0.998,0.528-2.76,0.848-5.285,0.926c-0.972,0.046-1.468-0.202-1.481-0.731c0-0.052,0.157-0.894,0.444-2.499
	c0.32-1.592,0.613-4.156,0.887-7.685c0.274-3.53,0.385-9.512,0.339-17.935c-0.052-8.436,1.024-15.697,3.223-21.817
	c-2.447,2.916-4.847,9.512-7.183,19.788c-0.3,1.292-0.6,2.584-0.894,3.862c-2.453,10.687-5.369,17.896-8.762,21.569
	c-3.399,3.693-6.766,5.435-10.145,5.252c-2.075-0.117-3.914-0.887-5.546-2.31c-1.625-1.442-2.466-3.014-2.525-4.71
	c-0.039-1.311,0.855-2.675,2.694-4.169c1.853-1.468,3.014-2.218,3.523-2.186c0.574,0.039,0.953,0.248,1.161,0.652
	c0.189,0.404,0.47,1.507,0.816,3.282s0.829,2.942,1.442,3.51c0.607,0.561,1.364,0.855,2.251,0.894
	c2.036,0.078,4.221-1.885,6.563-5.885c2.336-4.006,4.417-10.249,6.231-18.718c0.346-1.585,0.692-3.171,1.031-4.763
	c0.835-3.882,1.67-6.981,2.531-9.303c0.842-2.323,1.983-4.658,3.425-7.007c2.081-3.379,3.38-5.2,3.869-5.448
	c0.476-0.241,1.409-0.47,2.779-0.692c1.35-0.222,2.714-0.385,4.091-0.47c0.528-0.033,0.802,0.248,0.816,0.848
	c0,0.287-0.078,0.881-0.215,1.788c-0.457,3.686-0.626,7.366-0.509,11.058c0.091,3.503,0.196,6.994,0.287,10.497
	c0.254,9.14-0.326,16.571-1.735,22.28c1.357-1.755,3.288-6.191,5.833-13.348C92.121,26.21,95.52,18.485,98.645,13.22
	c1.481-2.538,3.269-5.011,5.389-7.451c2.114-2.42,3.588-3.784,4.417-4.045c2.825-0.868,5.213-1.429,7.17-1.696
	c0.711-0.098,1.07,0.052,1.083,0.444c0.007,0.548-0.418,1.846-1.272,3.875c-2.016,4.88-3.882,11.345-5.565,19.422
	c-1.683,8.064-2.479,14.418-2.44,19.077c0.085,5.252,1.735,7.698,4.978,7.274c2.636-0.326,5.735-2.962,9.329-7.933
	C121.753,43.691,121.76,45.192,121.773,46.699z M151.288,42.152c-3.347,3.81-6.341,6.707-8.984,8.684
	c-2.649,1.99-5.578,3.229-8.775,3.712c-3.582,0.548-6.472-0.157-8.684-2.12c-2.218-1.957-3.347-4.795-3.38-8.507
	c-0.072-5.559,1.833-10.843,5.689-15.906c3.856-5.05,8.168-7.972,12.911-8.723c2.479-0.391,4.456-0.078,5.937,0.946
	c1.494,1.031,2.244,2.564,2.244,4.606c0.007,5.395-5.806,10.778-17.393,15.932c1.096,4.939,3.862,7.072,8.305,6.381
	c1.742-0.274,3.386-0.998,4.971-2.192c1.572-1.168,3.954-3.627,7.144-7.333C151.281,39.131,151.281,40.658,151.288,42.152z
	 M130.521,38.146c6.752-2.91,10.125-6.942,10.112-12.017c-0.013-2.505-0.953-3.621-2.799-3.327
	c-1.762,0.274-3.412,1.833-4.997,4.717C131.265,30.395,130.502,33.925,130.521,38.146z M180.836,37.52
	c-6.661,7.431-11.75,11.443-15.325,12.024c-1.598,0.248-2.955-0.209-4.051-1.383c-1.109-1.168-1.651-2.753-1.651-4.756
	c0.007-3.699,2.009-8.977,6.015-15.814c-1.957,1.305-4.097,2.336-6.426,3.105c-1.722,3.432-4.41,7.242-8.064,11.443
	c-0.307,0.046-0.613,0.104-0.92,0.157c0-1.181,0-2.355,0-3.536c2.049-2.453,3.914-5.037,5.578-7.751
	c-2.27-0.626-3.406-1.918-3.406-3.888c0-2.022,0.679-4.28,2.075-6.798c1.39-2.518,3.314-3.98,5.761-4.371
	c2.068-0.326,3.112,0.542,3.099,2.655c0,1.644-0.613,4.104-1.807,7.353c4.391-1.168,8.233-5.095,11.567-11.802
	c1.207-0.235,2.407-0.47,3.634-0.705c-1.266,3.549-2.518,7.098-3.764,10.647c-1.566,4.482-2.571,7.529-3.021,9.121
	c-0.457,1.618-0.692,2.995-0.698,4.188c0,1.096,0.248,1.938,0.75,2.518c0.515,0.574,1.214,0.789,2.068,0.659
	c0.946-0.157,1.866-0.607,2.74-1.377c0.874-0.783,2.831-2.858,5.885-6.211C180.862,34.505,180.855,36.012,180.836,37.52z
	 M210.416,33.827c-6.733,7.111-11.848,10.967-15.43,11.411c-1.598,0.202-2.936-0.287-4.032-1.494
	c-1.083-1.2-1.618-2.792-1.598-4.789c0.046-3.712,2.094-8.951,6.159-15.671c-1.977,1.246-4.123,2.218-6.446,2.929
	c-1.755,3.393-4.476,7.144-8.175,11.306c-0.307,0.059-0.613,0.091-0.907,0.137c0.013-1.187,0.013-2.368,0.026-3.543
	c2.068-2.434,3.96-4.984,5.65-7.672c-2.264-0.665-3.393-1.99-3.38-3.941c0.026-2.036,0.731-4.28,2.14-6.779
	c1.409-2.499,3.353-3.921,5.787-4.254c2.068-0.281,3.112,0.646,3.079,2.753c-0.02,1.644-0.652,4.091-1.872,7.32
	c4.391-1.07,8.266-4.854,11.652-11.437c1.214-0.189,2.427-0.378,3.627-0.568c-1.285,3.497-2.577,7-3.862,10.497
	c-1.598,4.436-2.616,7.457-3.086,9.029c-0.47,1.592-0.718,2.988-0.737,4.162c-0.013,1.109,0.235,1.957,0.737,2.551
	s1.187,0.835,2.049,0.737c0.953-0.111,1.866-0.528,2.747-1.266c0.881-0.724,2.858-2.74,5.943-5.95
	C210.455,30.8,210.435,32.3,210.416,33.827z M252.614,32.183c-3.445,3.125-8.879,6.322-16.291,9.904
	c-2.616,6.987-5.48,12.004-8.579,15.045c-3.086,3.027-6.283,4.671-9.577,4.932c-1.67,0.124-2.995-0.281-3.98-1.213
	c-0.985-0.939-1.468-2.257-1.442-3.954c0.098-5.154,4.906-10.373,14.484-15.116c0.874-2.877,1.735-5.735,2.603-8.592
	c-5.108,5.78-9.525,8.866-13.277,9.173c-2.022,0.163-3.647-0.515-4.86-2.055c-1.227-1.527-1.801-3.673-1.755-6.426
	c0.065-3.967,1.005-8.299,2.838-13.022c1.318-3.464,2.655-6.903,3.993-10.334c3.862-0.998,7.725-1.944,11.587-2.825
	c-1.735,3.999-3.471,7.999-5.2,12.004c-2.388,5.8-3.614,10.152-3.654,13.016c-0.059,2.368,0.731,3.49,2.336,3.379
	c1.631-0.117,3.523-1.546,5.676-4.293c2.153-2.74,3.986-6.035,5.513-9.936c1.611-4.195,3.216-8.344,4.834-12.52
	c3.64-0.744,7.274-1.429,10.915-2.049c-3.751,10.223-7.464,20.512-11.156,30.866c6.107-2.884,11.137-6.335,15.136-10.504
	C252.699,29.162,252.653,30.676,252.614,32.183z M225.989,45.733c-3.249,1.631-5.78,3.438-7.548,5.376
	c-1.775,1.938-2.688,3.784-2.714,5.519c-0.039,1.762,0.698,2.577,2.186,2.447C220.809,58.853,223.497,54.411,225.989,45.733z
	 M43.842,121.929c-5.878,5.872-13.107,8.194-21.706,6.505c-6.159-1.227-11.3-4.495-15.43-9.571
	c-4.13-5.076-6.361-10.824-6.661-16.995c-0.294-6.159,0.848-11.548,3.471-16.225c2.629-4.704,6.204-8.096,10.752-10.334
	c4.541-2.257,9.088-3.04,13.609-2.342c3.784,0.6,6.929,2.114,9.388,4.652c2.486,2.544,3.771,5.598,3.895,9.232
	c0.17,4.723-1.122,8.703-3.856,11.841c-2.74,3.132-6.028,4.423-9.858,3.797c-2.016-0.339-3.699-1.161-5.043-2.447
	c-1.331-1.298-2.036-2.779-2.107-4.417c-0.059-1.422,0.444-2.616,1.52-3.608c0.894,1.703,2.062,2.681,3.517,2.936
	c2.075,0.365,3.96-0.652,5.63-3.001c1.683-2.355,2.473-5.102,2.342-8.227c-0.078-2.166-0.646-3.947-1.703-5.376
	c-1.057-1.422-2.414-2.244-4.084-2.518c-2.44-0.385-4.971,0.678-7.601,3.177c-2.616,2.479-4.737,5.859-6.368,10.178
	c-1.631,4.326-2.329,8.625-2.14,12.918c0.241,5.467,1.983,10.36,5.187,14.562c3.203,4.208,7.15,6.759,11.848,7.522
	c2.988,0.476,5.65,0.15,7.999-0.953c2.336-1.116,4.75-3.053,7.222-5.826C43.744,118.934,43.796,120.428,43.842,121.929z
	 M81.741,122.346c-5.963,6.766-10.869,10.08-14.79,10.099c-1.755,0-3.216-0.6-4.391-1.827c-1.194-1.24-1.794-2.786-1.859-4.632
	c-0.091-3.138,0.959-7.529,3.177-13.218c1.187-3.073,1.755-5.082,1.729-6.028c-0.02-1.07-0.542-1.605-1.559-1.605
	c-1.031,0-2.518,0.698-4.436,2.081c-1.925,1.396-3.947,3.262-6.035,5.617c-0.75,4.776-1.018,10.53-0.802,17.263
	c-2.838,0.528-5.676,1.018-8.514,1.448c-0.424-2.766-0.705-5.774-0.822-8.984c-0.274-7.777,0.528-14.934,2.427-21.477
	c1.899-6.576,5.011-13.453,9.382-20.832c3.379-1.266,6.335-2.362,8.847-3.236c2.538-0.881,3.973-1.344,4.339-1.344
	c0.672-0.02,1.272,0.522,1.762,1.605c0.502,1.09,0.77,2.46,0.816,4.097c0.072,2.773-0.685,5.859-2.297,9.245
	c-1.605,3.393-4.149,7.477-7.614,12.174c3.406-1.97,5.663-3.262,6.798-3.791c1.129-0.548,2.29-0.829,3.484-0.861
	c1.331-0.02,2.414,0.424,3.243,1.351c0.848,0.926,1.285,2.159,1.331,3.745c0.052,2.349-0.776,6.035-2.512,11.019
	c-1.729,4.997-2.57,8.096-2.531,9.349c0.007,0.581,0.189,1.096,0.555,1.527s0.77,0.639,1.227,0.639
	c1.657-0.052,4.626-2.649,8.945-7.946C81.675,119.339,81.715,120.846,81.741,122.346z M54.457,106.525
	c8.912-10.491,13.368-18.666,13.224-23.8c-0.046-1.566-0.496-2.342-1.35-2.336c-1.448,0.013-3.425,2.597-5.924,7.705
	C57.908,93.203,55.925,99.336,54.457,106.525z M110.61,119.697c-6.381,7.229-11.28,10.941-14.777,11.267
	c-1.566,0.144-2.91-0.418-4.012-1.677c-1.109-1.253-1.677-2.884-1.722-4.854c-0.072-3.699,1.768-8.775,5.565-15.325
	c-1.885,1.161-3.967,2.036-6.237,2.597c-1.625,3.275-4.182,6.837-7.685,10.641c-0.3,0.013-0.587,0.033-0.894,0.046
	c-0.02-1.174-0.052-2.342-0.078-3.523c1.97-2.225,3.738-4.606,5.317-7.15c-2.251-0.848-3.393-2.257-3.432-4.221
	c-0.046-2.016,0.581-4.202,1.899-6.57c1.305-2.381,3.151-3.654,5.546-3.836c2.029-0.163,3.066,0.796,3.112,2.884
	c0.033,1.644-0.509,4.058-1.618,7.203c4.286-0.829,7.979-4.521,11.091-11.039c1.187-0.176,2.362-0.372,3.549-0.561
	c-1.161,3.484-2.316,6.974-3.464,10.458c-1.429,4.397-2.349,7.379-2.76,8.945c-0.411,1.572-0.62,2.949-0.594,4.123
	c0.02,1.103,0.294,1.957,0.796,2.557c0.522,0.607,1.194,0.861,2.036,0.763c0.933-0.098,1.82-0.502,2.662-1.24
	c0.835-0.731,2.714-2.727,5.63-5.989C110.571,116.696,110.584,118.197,110.61,119.697z M129.628,117.088
	c-5.976,7.346-10.432,11.169-13.414,11.561c-1.644,0.222-3.04-0.457-4.202-2.036c-1.155-1.572-1.748-3.654-1.775-6.244
	c-0.085-5.559,1.664-13.505,5.285-23.846c3.288-1.142,6.583-2.296,9.878-3.458c0.15-0.026,0.313-0.052,0.463-0.078
	c-1.259,4.286-2.518,8.566-3.771,12.846c-1.553,5.311-2.316,9.042-2.297,11.208c0.013,0.868,0.209,1.546,0.6,2.029
	c0.365,0.496,0.848,0.685,1.409,0.607c0.998-0.137,2.009-0.659,3.021-1.546s2.603-2.74,4.776-5.552
	C129.608,114.074,129.621,115.581,129.628,117.088z M128.545,77.232c0.046,6.289-2.231,9.767-6.831,10.432
	c-2.238,0.307-4.169-0.111-5.767-1.253c1.481-2.505,2.623-5.271,3.432-8.26c2.062,0.992,3.732,1.416,4.984,1.227
	C125.772,79.176,127.175,78.458,128.545,77.232z M141.43,92.231c1.794-0.757,3.588-1.429,5.402-2.022
	c1.814-0.587,2.903-0.926,3.275-0.985c0.267-0.039,0.391,0.052,0.391,0.261c0,0.385-0.104,0.822-0.313,1.266
	c-0.405,1.272-0.613,2.453-0.613,3.549c0,1.364,0.789,3.105,2.342,5.206c1.54,2.114,2.316,4.182,2.316,6.198
	c0,3.999-1.892,8.181-5.656,12.507c-3.758,4.325-7.653,6.805-11.685,7.437c-1.748,0.274-3.334,0.046-4.782-0.685
	c-1.442-0.718-2.173-1.611-2.173-2.681c-0.007-0.633,0.692-1.938,2.101-3.908c1.429-1.964,2.44-3.001,3.06-3.105
	c0.829-0.13,1.572,0.829,2.225,2.871c0.659,2.062,1.768,2.962,3.327,2.708c1.579-0.241,3.047-1.227,4.417-2.916
	c1.377-1.703,2.062-3.399,2.062-5.115c-0.013-1.638-0.894-3.699-2.655-6.178c-1.762-2.466-2.936-4.573-3.51-6.348
	c-2.982,5.363-6.752,10.974-11.3,16.787c-0.307,0.059-0.607,0.091-0.894,0.137c-0.013-1.181-0.026-2.355-0.033-3.536
	C135.004,105.899,139.251,98.735,141.43,92.231z M183.993,108.613c-3.275,3.732-6.1,6.583-8.468,8.488
	c-2.388,1.925-4.632,3.053-6.759,3.393c-2.212,0.352-3.999-0.32-5.376-2.003c-1.364-1.683-2.055-4.065-2.036-7.177
	c0.007-2.721,0.678-6.42,2.016-11.104c0.555-2.075,1.116-4.143,1.67-6.224c-0.992,0.215-1.996,0.424-2.975,0.639
	c0.418-2.12,0.835-4.241,1.253-6.381c1.233-0.241,2.473-0.483,3.706-0.737c1.227-4.293,2.466-8.573,3.712-12.846
	c3.484-1.259,6.974-2.512,10.465-3.738c-1.39,4.763-2.766,9.519-4.143,14.281c1.827-0.385,3.667-0.75,5.5-1.122
	c-0.444,2.081-0.887,4.162-1.337,6.263c-2.009,0.437-4.019,0.907-6.035,1.357c-0.887,3.079-1.768,6.133-2.636,9.199
	c-0.92,3.216-1.377,5.728-1.39,7.529c-0.007,1.233,0.3,2.199,0.894,2.877c0.607,0.672,1.383,0.939,2.323,0.789
	c1.318-0.189,2.629-0.809,3.928-1.859c1.285-1.044,3.21-3.099,5.735-6.159C184.019,105.592,184.013,107.099,183.993,108.613z
	 M240.877,103.805c-3.301,3.21-6.107,5.696-8.442,7.372c-2.336,1.67-4.567,2.571-6.726,2.681c-1.696,0.091-3.027-0.418-3.993-1.553
	c-0.953-1.129-1.422-2.701-1.37-4.73c0.052-2.831,0.829-6.485,2.31-10.934c1.494-4.456,2.257-7.144,2.277-8.09
	c0.02-0.842-0.398-1.233-1.246-1.187c-0.261,0.013-0.574,0.124-0.946,0.333c-0.385,0.215-0.829,0.502-1.337,0.874
	c-0.489,0.404-1.037,0.894-1.618,1.461c-0.581,0.568-1.181,1.22-1.82,1.938c-0.692,0.737-1.377,1.546-2.062,2.414
	c-1.161,1.461-1.853,2.662-2.075,3.595c-0.47,1.918-0.933,3.836-1.396,5.754c-0.835,3.164-1.67,6.341-2.505,9.525
	c-3.256,0.913-6.524,1.853-9.78,2.845c1.318-5.552,2.649-11.104,3.973-16.65c0.313-1.22,0.672-2.975,1.096-5.317
	c0.424-2.323,0.646-3.712,0.659-4.156c0.02-0.894-0.281-1.305-0.874-1.24c-0.183,0.02-0.444,0.137-0.783,0.359
	c-0.398,0.228-0.835,0.555-1.331,0.972c-0.574,0.483-1.187,1.044-1.833,1.703c-0.711,0.705-1.481,1.52-2.296,2.434
	c-0.861,0.972-1.748,2.036-2.675,3.197c-1.259,1.572-2.055,3.334-2.388,5.252c-0.444,2.316-0.75,4.371-0.926,6.178
	c-0.215,1.807-0.339,3.817-0.385,6.028c-2.871,1.07-5.722,2.153-8.586,3.256c-0.17-2.988-0.248-5.487-0.235-7.516
	c0.046-4.802,0.568-9.062,1.592-12.742c1.011-3.706,2.662-8.077,4.952-13.14c3.138-1.024,6.296-2.049,9.447-3.034
	c-1.748,4.489-3.119,8.775-4.104,12.879c7.066-9.088,12.5-13.746,16.212-14.092c1.344-0.13,2.427,0.346,3.249,1.39
	c0.829,1.044,1.22,2.479,1.181,4.299c-0.02,0.835-0.17,2.388-0.483,4.678c4.476-4.795,7.692-7.901,9.623-9.362
	c1.938-1.455,3.712-2.218,5.324-2.29c1.429-0.059,2.584,0.476,3.464,1.618c0.874,1.129,1.279,2.603,1.233,4.378
	c-0.072,2.812-0.926,6.446-2.557,10.915c-1.631,4.456-2.44,7.405-2.479,8.834c-0.046,1.481,0.47,2.186,1.52,2.14
	c0.672-0.02,1.598-0.509,2.831-1.435c1.22-0.946,3.36-3.086,6.433-6.361C240.955,100.777,240.923,102.291,240.877,103.805z
	 M282.155,107.184c-4.286,3.256-7.327,5.441-9.147,6.407c-1.814,0.966-3.53,1.377-5.148,1.194
	c-4.071-0.431-5.846-4.221-5.363-11.541c-2.714,3.556-5.174,6.159-7.411,7.829c-2.218,1.677-4.489,2.479-6.798,2.434
	c-2.264-0.059-4.149-1.161-5.669-3.34c-1.52-2.166-2.238-4.821-2.159-7.992c0.117-3.921,1.279-7.698,3.51-11.261
	c2.238-3.569,5.056-6.407,8.475-8.501c3.419-2.081,6.413-3.014,8.984-2.825c3.242,0.248,5.467,1.996,6.655,5.161
	c2.701-1.213,5.409-2.375,8.116-3.477c0.724,0.098,1.448,0.209,2.186,0.333c-1.305,3.667-2.584,7.346-3.882,11.032
	c-1.977,5.572-3.008,9.447-3.092,11.593c-0.078,2.264,0.672,3.477,2.231,3.706c1.005,0.13,2.133-0.261,3.393-1.155
	c1.246-0.913,3.008-2.316,5.304-4.149C282.273,104.163,282.214,105.671,282.155,107.184z M253.801,106.232
	c2.564,0.124,5.069-1.957,7.496-6.27c2.44-4.306,3.725-8.325,3.862-12.102c0.052-1.468-0.235-2.655-0.861-3.543
	c-0.62-0.874-1.481-1.364-2.564-1.455c-2.59-0.189-5.121,1.899-7.581,6.25c-2.453,4.365-3.738,8.455-3.849,12.207
	c-0.052,1.429,0.261,2.584,0.926,3.49C251.877,105.703,252.731,106.179,253.801,106.232z M295.034,86.64
	c1.801-0.046,3.627,0.046,5.454,0.241c1.833,0.202,2.929,0.385,3.295,0.483c0.261,0.078,0.391,0.228,0.378,0.437
	c-0.02,0.391-0.144,0.763-0.378,1.129c-0.47,1.083-0.724,2.173-0.776,3.269c-0.065,1.364,0.626,3.451,2.068,6.289
	s2.114,5.285,2.009,7.3c-0.189,4.019-2.27,7.242-6.218,9.871c-3.941,2.636-7.92,3.51-11.939,2.636
	c-1.755-0.385-3.327-1.187-4.723-2.407c-1.409-1.214-2.075-2.349-2.036-3.425c0.033-0.633,0.789-1.703,2.29-3.19
	c1.507-1.481,2.564-2.153,3.184-2.022c0.816,0.163,1.514,1.409,2.055,3.699c0.555,2.303,1.618,3.627,3.184,3.999
	c1.559,0.378,3.066,0.013,4.508-1.109c1.448-1.109,2.205-2.512,2.283-4.215c0.085-1.651-0.692-4.11-2.323-7.32
	c-1.631-3.216-2.688-5.806-3.184-7.803c-3.203,4.188-7.222,8.357-12.011,12.676c-0.307-0.052-0.607-0.111-0.9-0.157
	c0.052-1.181,0.098-2.362,0.144-3.536C287.994,97.737,292.548,92.263,295.034,86.64z"/>
</svg>
