<?xml version="1.0" encoding="utf-8"?>
<!-- Generator: Adobe Illustrator 17.0.0, SVG Export Plug-In . SVG Version: 6.00 Build 0)  -->
<!DOCTYPE svg PUBLIC "-//W3C//DTD SVG 1.1//EN" "http://www.w3.org/Graphics/SVG/1.1/DTD/svg11.dtd">
<svg version="1.1" id="图层_1" xmlns:ev="http://www.w3.org/2001/xml-events"
	 xmlns="http://www.w3.org/2000/svg" xmlns:xlink="http://www.w3.org/1999/xlink" x="0px" y="0px" width="160px" height="160px"
	 viewBox="0 0 160 160" enable-background="new 0 0 160 160" xml:space="preserve">
<path fill="#FEC24F" d="M80,0c44.183,0,80,35.817,80,80s-35.817,80-80,80S0,124.183,0,80S35.817,0,80,0z"/>
<path fill="#BBC9D5" d="M37,69h86v51c0,1.657-1.343,3-3,3H40c-1.657,0-3-1.343-3-3V69z"/>
<path fill="#FFFFFF" d="M44,37h72v80H44V37z"/>
<path fill="#BBC9D5" d="M50,76v-4h60v4H50z M50,64h60v4H50V64z M50,56h60v4H50V56z M50,48h60v4H50V48z"/>
<path fill="#E9E9E9" d="M37,69l43,27l43-27v51c0,1.657-1.343,3-3,3H40c-1.657,0-3-1.343-3-3V69z"/>
</svg>
