<?xml version="1.0" encoding="utf-8"?>
<!DOCTYPE svg PUBLIC "-//W3C//DTD SVG 1.1//EN" "http://www.w3.org/Graphics/SVG/1.1/DTD/svg11.dtd">
<svg version="1.1" baseProfile="full"
 xmlns="http://www.w3.org/2000/svg"
 xmlns:xlink="http://www.w3.org/1999/xlink"
 xmlns:ev="http://www.w3.org/2001/xml-events" 
  height="56px" 
  width="235px" 
>
<path fill="rgb( 255, 82, 70 )"
 d="M228.787,11.207 C228.787,11.207 225.967,11.207 225.967,11.207 C225.967,11.207 226.987,33.467 226.987,33.467 C227.707,32.947 228.067,32.167 228.067,31.127 C228.067,31.127 228.067,15.167 228.067,15.167 C228.067,15.167 233.707,15.167 233.707,15.167 C233.707,15.167 233.707,35.567 233.707,35.567 C233.707,38.007 232.826,39.567 231.067,40.247 C231.067,40.247 227.347,41.747 227.347,41.747 C227.347,41.747 227.587,46.607 227.587,46.607 C227.786,47.847 228.247,48.467 228.967,48.467 C228.967,48.467 233.467,48.467 233.467,48.467 C233.467,48.467 233.467,55.007 233.467,55.007 C233.467,55.007 225.247,55.007 225.247,55.007 C222.806,55.007 221.407,53.226 221.047,49.667 C221.047,49.667 219.367,11.207 219.367,11.207 C219.367,11.207 203.467,11.207 203.467,11.207 C203.467,11.207 203.467,49.427 203.467,49.427 C203.467,53.147 201.487,55.007 197.527,55.007 C197.527,55.007 194.047,55.007 194.047,55.007 C194.047,55.007 194.047,48.467 194.047,48.467 C194.047,48.467 195.427,48.467 195.427,48.467 C196.226,48.467 196.627,48.227 196.627,47.747 C196.627,47.747 196.627,4.90699999999998 196.627,4.90699999999998 C196.627,4.90699999999998 219.127,4.90699999999998 219.127,4.90699999999998 C219.127,4.90699999999998 218.947,0.40699999999998 218.947,0.40699999999998 C218.947,0.40699999999998 225.487,0.40699999999998 225.487,0.40699999999998 C225.487,0.40699999999998 225.667,4.90699999999998 225.667,4.90699999999998 C225.667,4.90699999999998 226.207,4.90699999999998 226.207,4.90699999999998 C227.287,4.90699999999998 227.827,3.96699999999998 227.827,2.08699999999999 C227.827,2.08699999999999 234.367,2.08699999999999 234.367,2.08699999999999 C234.367,2.08699999999999 234.367,5.80700000000002 234.367,5.80700000000002 C234.367,9.40699999999998 232.507,11.207 228.787,11.207 ZM184.447,16.847 C184.447,16.847 181.627,3.22699999999998 181.627,3.22699999999998 C181.627,3.22699999999998 189.847,3.22699999999998 189.847,3.22699999999998 C189.847,3.22699999999998 191.287,11.927 191.287,11.927 C191.527,13.167 192.146,13.787 193.147,13.787 C193.147,13.787 194.527,13.787 194.527,13.787 C194.527,13.787 194.527,20.807 194.527,20.807 C194.527,20.807 189.127,20.807 189.127,20.807 C186.686,20.807 185.126,19.487 184.447,16.847 ZM184.147,44.867 C184.147,44.867 186.127,25.727 186.127,25.727 C186.127,25.727 194.287,25.727 194.287,25.727 C194.287,25.727 191.587,49.847 191.587,49.847 C191.227,53.006 190.186,54.587 188.467,54.587 C188.467,54.587 181.447,54.587 181.447,54.587 C181.447,54.587 181.447,47.747 181.447,47.747 C181.447,47.747 183.067,47.747 183.067,47.747 C183.706,47.747 184.066,46.787 184.147,44.867 ZM169.687,12.827 C169.687,12.827 161.707,12.827 161.707,12.827 C161.707,12.827 161.707,10.487 161.707,10.487 C161.707,10.487 147.187,10.487 147.187,10.487 C147.187,10.487 147.187,12.587 147.187,12.587 C147.187,12.587 139.207,12.587 139.207,12.587 C139.207,12.587 139.207,10.487 139.207,10.487 C139.207,10.487 134.527,10.487 134.527,10.487 C134.527,10.487 134.527,4.18700000000001 134.527,4.18700000000001 C134.527,4.18700000000001 139.207,4.18700000000001 139.207,4.18700000000001 C139.207,4.18700000000001 139.207,1.36700000000002 139.207,1.36700000000002 C139.207,1.36700000000002 147.187,1.36700000000002 147.187,1.36700000000002 C147.187,1.36700000000002 147.187,4.18700000000001 147.187,4.18700000000001 C147.187,4.18700000000001 161.707,4.18700000000001 161.707,4.18700000000001 C161.707,4.18700000000001 161.707,1.60700000000003 161.707,1.60700000000003 C161.707,1.60700000000003 169.687,1.60700000000003 169.687,1.60700000000003 C169.687,1.60700000000003 169.687,4.18700000000001 169.687,4.18700000000001 C169.687,4.18700000000001 174.367,4.18700000000001 174.367,4.18700000000001 C174.367,4.18700000000001 174.367,10.487 174.367,10.487 C174.367,10.487 169.687,10.487 169.687,10.487 C169.687,10.487 169.687,12.827 169.687,12.827 ZM125.647,54.587 C125.647,54.587 120.967,54.587 120.967,54.587 C120.967,54.587 120.967,47.747 120.967,47.747 C120.967,47.747 123.067,47.747 123.067,47.747 C123.667,47.747 124.166,47.127 124.567,45.887 C124.567,45.887 126.547,36.527 126.547,36.527 C126.547,36.527 134.287,36.527 134.287,36.527 C134.287,36.527 131.347,49.907 131.347,49.907 C130.546,53.027 128.647,54.587 125.647,54.587 ZM123.787,30.647 C123.787,30.647 121.447,20.087 121.447,20.087 C121.447,20.087 129.127,20.087 129.127,20.087 C129.127,20.087 130.327,25.727 130.327,25.727 C130.567,26.967 131.107,27.587 131.947,27.587 C131.947,27.587 133.627,27.587 133.627,27.587 C133.627,27.587 133.627,34.427 133.627,34.427 C133.627,34.427 128.227,34.427 128.227,34.427 C125.866,34.427 124.387,33.167 123.787,30.647 ZM123.307,14.027 C123.307,14.027 120.967,2.50700000000001 120.967,2.50700000000001 C120.967,2.50700000000001 128.707,2.50700000000001 128.707,2.50700000000001 C128.707,2.50700000000001 129.847,9.10700000000003 129.847,9.10700000000003 C130.087,10.347 130.627,10.967 131.467,10.967 C131.467,10.967 133.627,10.967 133.627,10.967 C133.627,10.967 133.627,17.747 133.627,17.747 C133.627,17.747 127.747,17.747 127.747,17.747 C125.386,17.747 123.907,16.507 123.307,14.027 ZM107.347,10.727 C107.347,10.727 71.287,10.727 71.287,10.727 C71.287,10.727 71.287,16.847 71.287,16.847 C71.287,16.847 112.507,16.847 112.507,16.847 C112.507,16.847 112.507,23.867 112.507,23.867 C112.507,23.867 71.287,23.867 71.287,23.867 C71.287,23.867 71.287,48.227 71.287,48.227 C71.287,52.626 69.007,54.827 64.447,54.827 C64.447,54.827 60.487,54.827 60.487,54.827 C60.487,54.827 60.487,47.327 60.487,47.327 C60.487,47.327 61.867,47.327 61.867,47.327 C62.666,47.327 63.067,47.087 63.067,46.607 C63.067,46.607 63.067,3.70699999999999 63.067,3.70699999999999 C63.067,3.70699999999999 104.287,3.70699999999999 104.287,3.70699999999999 C105.566,3.70699999999999 106.207,2.84699999999998 106.207,1.12700000000001 C106.207,1.12700000000001 114.367,1.12700000000001 114.367,1.12700000000001 C114.367,1.12700000000001 114.367,5.08699999999999 114.367,5.08699999999999 C114.367,8.84699999999998 112.027,10.727 107.347,10.727 ZM48.547,54.827 C48.547,54.827 40.807,54.827 40.807,54.827 C40.807,54.827 40.807,28.547 40.807,28.547 C40.807,28.547 33.067,28.547 33.067,28.547 C33.067,28.547 33.067,49.427 33.067,49.427 C33.067,53.306 30.487,55.247 25.327,55.247 C25.327,55.247 20.887,55.247 20.887,55.247 C20.887,55.247 20.887,48.467 20.887,48.467 C20.887,48.467 23.107,48.467 23.107,48.467 C24.427,48.467 25.087,48.227 25.087,47.747 C25.087,47.747 25.087,5.80700000000002 25.087,5.80700000000002 C25.087,5.80700000000002 44.527,5.80700000000002 44.527,5.80700000000002 C45.806,5.80700000000002 46.447,4.40699999999998 46.447,1.60700000000003 C46.447,1.60700000000003 54.367,1.60700000000003 54.367,1.60700000000003 C54.367,1.60700000000003 54.367,6.28699999999998 54.367,6.28699999999998 C54.367,10.807 52.106,13.067 47.587,13.067 C47.587,13.067 33.067,13.067 33.067,13.067 C33.067,13.067 33.067,21.287 33.067,21.287 C33.067,21.287 54.607,21.287 54.607,21.287 C54.607,21.287 54.607,28.547 54.607,28.547 C54.607,28.547 48.547,28.547 48.547,28.547 C48.547,28.547 48.547,54.827 48.547,54.827 ZM19.207,17.747 C19.207,17.747 23.467,17.747 23.467,17.747 C23.467,17.747 23.467,25.247 23.467,25.247 C23.467,25.247 19.207,25.247 19.207,25.247 C19.207,25.247 19.207,48.227 19.207,48.227 C19.207,50.186 18.586,51.806 17.347,53.087 C16.306,54.246 14.827,54.827 12.907,54.827 C12.907,54.827 3.30699999999999,54.827 3.30699999999999,54.827 C3.30699999999999,54.827 3.30699999999999,47.747 3.30699999999999,47.747 C3.30699999999999,47.747 10.327,47.747 10.327,47.747 C11.246,47.747 11.707,46.667 11.707,44.507 C11.707,44.507 11.707,32.507 11.707,32.507 C11.707,32.507 9.36699999999999,40.907 9.36699999999999,40.907 C8.446,44.067 6.886,45.647 4.68700000000001,45.647 C4.68700000000001,45.647 0.24700000000001,45.647 0.24700000000001,45.647 C0.24700000000001,45.647 0.24700000000001,38.147 0.24700000000001,38.147 C0.24700000000001,38.147 1.86699999999999,38.147 1.86699999999999,38.147 C2.386,38.147 2.786,37.667 3.06700000000001,36.707 C3.06700000000001,36.707 7.387,21.287 7.387,21.287 C7.90600000000001,18.927 8.96600000000001,17.747 10.567,17.747 C10.567,17.747 11.707,17.747 11.707,17.747 C11.707,17.747 11.707,15.167 11.707,15.167 C11.707,15.167 0.727,15.167 0.727,15.167 C0.727,15.167 0.727,7.90699999999998 0.727,7.90699999999998 C0.727,7.90699999999998 11.707,7.90699999999998 11.707,7.90699999999998 C11.707,7.90699999999998 11.707,1.12700000000001 11.707,1.12700000000001 C11.707,1.12700000000001 19.207,1.12700000000001 19.207,1.12700000000001 C19.207,1.12700000000001 19.207,7.90699999999998 19.207,7.90699999999998 C19.207,7.90699999999998 24.127,7.90699999999998 24.127,7.90699999999998 C24.127,7.90699999999998 24.127,15.167 24.127,15.167 C24.127,15.167 19.207,15.167 19.207,15.167 C19.207,15.167 19.207,17.747 19.207,17.747 ZM110.407,48.707 C110.407,52.146 108.286,53.867 104.047,53.867 C104.047,53.867 74.767,53.867 74.767,53.867 C74.767,53.867 74.767,27.587 74.767,27.587 C74.767,27.587 110.407,27.587 110.407,27.587 C110.407,27.587 110.407,48.707 110.407,48.707 ZM101.947,34.667 C101.947,34.667 82.987,34.667 82.987,34.667 C82.987,34.667 82.987,46.847 82.987,46.847 C82.987,46.847 99.847,46.847 99.847,46.847 C101.246,46.847 101.947,46.287 101.947,45.167 C101.947,45.167 101.947,34.667 101.947,34.667 ZM174.127,20.327 C174.127,20.327 166.027,20.327 166.027,20.327 C166.027,20.327 165.367,23.147 165.367,23.147 C165.367,23.147 174.127,23.147 174.127,23.147 C174.127,23.147 174.127,49.907 174.127,49.907 C174.127,53.186 172.106,54.827 168.067,54.827 C168.067,54.827 162.187,54.827 162.187,54.827 C162.187,54.827 162.187,48.947 162.187,48.947 C162.187,48.947 165.727,48.947 165.727,48.947 C166.486,48.947 166.867,48.787 166.867,48.467 C166.867,48.467 166.867,46.607 166.867,46.607 C166.867,46.607 165.247,46.607 165.247,46.607 C163.567,46.607 162.466,45.587 161.947,43.547 C161.947,43.547 161.107,39.947 161.107,39.947 C161.107,39.947 159.307,47.027 159.307,47.027 C158.626,49.866 157.567,51.287 156.127,51.287 C156.127,51.287 150.247,51.287 150.247,51.287 C150.247,51.287 150.247,44.927 150.247,44.927 C150.247,44.927 152.107,44.927 152.107,44.927 C152.866,44.927 153.506,44.147 154.027,42.587 C154.027,42.587 153.967,42.587 153.967,42.587 C152.527,42.587 151.567,41.807 151.087,40.247 C151.087,40.247 150.127,36.647 150.127,36.647 C150.127,36.647 148.867,42.287 148.867,42.287 C148.387,44.687 147.586,45.887 146.467,45.887 C146.467,45.887 142.267,45.887 142.267,45.887 C142.267,45.887 142.267,55.007 142.267,55.007 C142.267,55.007 135.007,55.007 135.007,55.007 C135.007,55.007 135.007,23.147 135.007,23.147 C135.007,23.147 146.407,23.147 146.407,23.147 C146.407,23.147 146.887,20.327 146.887,20.327 C146.887,20.327 135.007,20.327 135.007,20.327 C135.007,20.327 135.007,13.787 135.007,13.787 C135.007,13.787 174.127,13.787 174.127,13.787 C174.127,13.787 174.127,20.327 174.127,20.327 ZM142.267,29.747 C142.267,29.747 142.267,39.587 142.267,39.587 C142.267,39.587 142.507,39.587 142.507,39.587 C143.186,39.587 143.746,38.347 144.187,35.867 C144.187,35.867 145.207,29.747 145.207,29.747 C145.207,29.747 142.267,29.747 142.267,29.747 ZM150.967,32.747 C150.967,32.747 153.967,32.747 153.967,32.747 C153.967,32.747 155.047,36.527 155.047,36.527 C155.126,36.807 155.227,37.007 155.347,37.127 C155.347,37.127 156.907,29.747 156.907,29.747 C156.907,29.747 151.627,29.747 151.627,29.747 C151.627,29.747 150.967,32.747 150.967,32.747 ZM153.727,20.327 C153.727,20.327 153.127,23.147 153.127,23.147 C153.127,23.147 158.287,23.147 158.287,23.147 C158.287,23.147 158.947,20.327 158.947,20.327 C158.947,20.327 153.727,20.327 153.727,20.327 ZM162.607,33.947 C162.607,33.947 164.767,33.947 164.767,33.947 C164.767,33.947 166.087,40.067 166.087,40.067 C166.246,40.827 166.507,41.207 166.867,41.207 C166.867,41.207 166.867,29.747 166.867,29.747 C166.867,29.747 163.687,29.747 163.687,29.747 C163.687,29.747 162.607,33.947 162.607,33.947 ZM218.467,21.767 C218.467,21.767 204.847,21.767 204.847,21.767 C204.847,21.767 204.847,15.407 204.847,15.407 C204.847,15.407 218.467,15.407 218.467,15.407 C218.467,15.407 218.467,21.767 218.467,21.767 ZM218.707,48.707 C218.707,51.827 217.366,53.387 214.687,53.387 C214.687,53.387 204.847,53.387 204.847,53.387 C204.847,53.387 204.847,25.727 204.847,25.727 C204.847,25.727 218.707,25.727 218.707,25.727 C218.707,25.727 218.707,48.707 218.707,48.707 ZM213.307,32.087 C213.307,32.087 210.247,32.087 210.247,32.087 C210.247,32.087 210.247,47.087 210.247,47.087 C210.247,47.087 212.107,47.087 212.107,47.087 C212.906,47.087 213.307,46.607 213.307,45.647 C213.307,45.647 213.307,32.087 213.307,32.087 Z "/>
</svg>
