<?xml version="1.0" encoding="utf-8"?><!DOCTYPE svg PUBLIC "-//W3C//DTD SVG 1.1//EN" "http://www.w3.org/Graphics/SVG/1.1/DTD/svg11.dtd"><svg version="1.1" baseProfile="full" xmlns="http://www.w3.org/2000/svg" xmlns:xlink="http://www.w3.org/1999/xlink" xmlns:ev="http://www.w3.org/2001/xml-events"   height="58px"   width="72px" ><path fill="rgb( 133, 77, 55 )" d="M24,56 C24,56 17.018,56 17.018,56 C7.61900000000003,56 0,48.389 0,39 C0,29.611 7.61900000000003,22 17.018,22 C17.018,22 24,22 24,22 C24,22 24,56 24,56 Z "/><path fill="rgb( 194, 76, 40 )" d="M22,20 C22,20 34,20 34,20 C34,20 34,58 34,58 C34,58 22,58 22,58 C22,58 22,20 22,20 Z "/><path fill="rgb( 255, 255, 255 )" d="M28,46 C29.657,46 31,47.343 31,49 C31,50.657 29.657,52 28,52 C26.343,52 25,50.657 25,49 C25,47.343 26.343,46 28,46 Z "/><path fill="rgb( 241, 205, 176 )" d="M68,30 C68,30 71,31 71,34 C71,37 67,39 67,39 C67,39 69,39.802 69,43 C69,46.198 64,47 64,47 C64,47 67,48 67,51 C67,54 62.229,55 62.229,55 C62.229,55 34,55 34,55 C34,55 34,22 34,22 C34,22 39,22 39,22 C45.514,22 46,12 46,12 C46,12 46,6.00400000000002 46,5 C46,3 47,0 51,2 C55,4 55,7.73599999999999 55,12 C55,15.198 54,22 54,22 C54,22 63.657,22 68,22 C70,22 72,23 72,26 C72,29 68,30 68,30 Z "/></svg>