<?xml version="1.0" encoding="iso-8859-1"?>
<!-- Generator: Adobe Illustrator 17.0.0, SVG Export Plug-In . SVG Version: 6.00 Build 0)  -->
<!DOCTYPE svg PUBLIC "-//W3C//DTD SVG 1.1//EN" "http://www.w3.org/Graphics/SVG/1.1/DTD/svg11.dtd">
<svg version="1.1" id="Capa_1" xmlns="http://www.w3.org/2000/svg" xmlns:xlink="http://www.w3.org/1999/xlink" x="0px" y="0px"
	 width="101.981px" height="105.482px" viewBox="0 0 101.981 105.482" style="enable-background:new 0 0 101.981 105.482;"
	 xml:space="preserve">
<g>
	<g>
		<g>
			<g>
				<g>
					<rect x="33.906" y="85.99" style="fill:#8E6451;" width="13.826" height="14.973"/>
				</g>
			</g>
			<g>
				<g>
					<rect x="54.31" y="85.99" style="fill:#B68472;" width="13.829" height="14.973"/>
				</g>
			</g>
			<g>
				<g>
					<path style="fill:#8E6451;" d="M40.817,95.734c-5.381,0-9.742,4.365-9.742,9.748h19.491
						C50.566,100.099,46.2,95.734,40.817,95.734z"/>
				</g>
			</g>
			<g>
				<g>
					<path style="fill:#B68472;" d="M61.227,95.734c-5.383,0-9.748,4.365-9.748,9.748H70.97
						C70.97,100.099,66.606,95.734,61.227,95.734z"/>
				</g>
			</g>
		</g>
		<g>
			<g>
				<g style="opacity:0.39;">
					<g>
						<path style="fill:#C6CCD6;" d="M51.082,83.696c11.507,0,21.212-5.835,24.312-13.827c-3.1-10.684-12.805-16.526-24.312-16.526
							c-11.509,0-21.214,5.842-24.313,16.526C29.868,77.86,39.573,83.696,51.082,83.696z"/>
					</g>
				</g>
				<g>
					<g>
						<path style="fill:#8E6451;" d="M51.082,83.696c11.507,0,21.212-5.835,24.312-13.827c-3.1-10.684-12.805-16.526-24.312-16.526
							c-11.509,0-21.214,5.842-24.313,16.526C29.868,77.86,39.573,83.696,51.082,83.696z"/>
					</g>
				</g>
				<g>
					<g>
						<path style="fill:#8E6451;" d="M26.769,69.869c-0.672,2.318-1.049,4.856-1.049,7.622c0,10.653,11.355,19.289,25.362,19.289
							V83.696C39.573,83.696,29.868,77.86,26.769,69.869z"/>
					</g>
				</g>
				<g>
					<g>
						<path style="fill:#B68472;" d="M75.335,69.869c0.675,2.318,1.05,4.856,1.05,7.622c0,10.653-11.354,19.289-25.363,19.289
							V83.696C62.532,83.696,72.234,77.86,75.335,69.869z"/>
					</g>
				</g>
			</g>
		</g>
	</g>
	<g>
		<g>
			<g>
				<g>
					<path style="fill:#723E2B;" d="M30.605,14.121c-1.102-1.164-2.573-2.479-3.825-3.193l-0.414-0.231
						c-0.071,0.289-0.239,0.863-0.365,1.534c-0.221,1.396-0.198,2.832-0.163,4.796c0.042,1.942,0.067,4.309-0.121,6.734
						c-0.179,2.432-0.55,4.905-1.062,7.289c-1.032,4.786-2.568,9.258-4.28,13.523l-0.101,0.254
						c-2.162,5.388-8.283,8.005-13.671,5.844c-5.389-2.161-8.005-8.282-5.844-13.672c0.367-0.917,0.883-1.791,1.457-2.537
						c2.301-2.961,4.377-5.965,6.023-9.01c0.824-1.528,1.534-3.057,2.144-4.684c0.618-1.632,1.108-3.378,1.67-5.538
						c0.557-2.132,1.29-4.801,2.541-7.279c0.608-1.258,1.321-2.575,2.456-3.97c0.571-0.692,1.265-1.409,2.159-2.075
						c0.89-0.658,1.998-1.264,3.245-1.593c1.24-0.343,2.542-0.386,3.661-0.218c1.129,0.165,2.079,0.511,2.895,0.897
						c1.616,0.792,2.74,1.739,3.715,2.677c0.965,0.945,1.762,1.908,2.484,2.887c0.734,1.003,1.331,1.919,1.999,3.083
						c1.1,1.912,0.441,4.353-1.47,5.453c-1.633,0.939-3.651,0.596-4.891-0.715L30.605,14.121z"/>
				</g>
			</g>
			<g>
				<g>
					<path style="fill:#723E2B;" d="M71.376,14.121c1.103-1.164,2.574-2.479,3.826-3.193l0.414-0.231
						c0.07,0.289,0.239,0.863,0.364,1.534c0.222,1.396,0.199,2.832,0.163,4.796c-0.041,1.942-0.065,4.309,0.122,6.734
						c0.18,2.432,0.55,4.905,1.062,7.289c1.032,4.786,2.568,9.258,4.28,13.523l0.102,0.254c2.161,5.388,8.282,8.005,13.67,5.844
						c5.389-2.161,8.006-8.282,5.845-13.672c-0.368-0.917-0.883-1.791-1.457-2.537c-2.301-2.961-4.378-5.965-6.023-9.01
						c-0.824-1.528-1.534-3.057-2.144-4.684c-0.616-1.632-1.108-3.378-1.67-5.538c-0.557-2.132-1.289-4.801-2.54-7.279
						c-0.608-1.258-1.32-2.575-2.456-3.97c-0.571-0.692-1.264-1.409-2.159-2.075c-0.89-0.658-1.998-1.264-3.245-1.593
						c-1.239-0.343-2.541-0.386-3.661-0.218c-1.129,0.165-2.079,0.511-2.895,0.897c-1.615,0.792-2.74,1.739-3.715,2.677
						c-0.965,0.945-1.763,1.908-2.484,2.887c-0.735,1.003-1.332,1.919-2,3.083c-1.099,1.912-0.441,4.353,1.47,5.453
						c1.634,0.939,3.652,0.596,4.892-0.715L71.376,14.121z"/>
				</g>
			</g>
		</g>
		<g>
			<g>
				<g>
					<path style="fill:#B68472;" d="M78.849,32.129c-0.467-2.509-1.607-7.497-1.607-7.497C75.084,12.762,64.632,3.589,51.075,3.589
						v75.16c17.903,0,30.802-12.44,30.802-27.787C81.877,43.686,80.128,39.02,78.849,32.129z"/>
				</g>
			</g>
			<g>
				<g>
					<g>
						<path style="fill:#8E6451;" d="M23.317,32.129c0.465-2.509,1.603-7.497,1.603-7.497C27.078,12.762,37.532,3.589,51.093,3.589
							v75.16c-17.906,0-30.803-12.44-30.803-27.787C20.29,43.686,22.037,39.02,23.317,32.129z"/>
					</g>
				</g>
			</g>
		</g>
		<g>
			<g>
				<g>
					<g>
						<rect x="50.286" y="68.519" style="fill:#3C1312;" width="1.11" height="6.401"/>
					</g>
				</g>
			</g>
		</g>
		<g>
			<g>
				<path style="fill:#723E2B;" d="M67.332,57.459c0,6.109-7.271,11.061-16.239,11.061c-8.973,0-16.245-4.952-16.245-11.061
					c0-6.109,7.272-11.062,16.245-11.062C60.062,46.397,67.332,51.349,67.332,57.459z"/>
			</g>
		</g>
		<g>
			<g>
				<g>
					<path style="fill:#FAEDEB;" d="M63.706,58.569c-0.387,0-0.764-0.203-0.968-0.564c-2.135-3.776-7.43-5.121-7.484-5.134
						c-0.596-0.147-0.96-0.748-0.813-1.344c0.147-0.596,0.751-0.961,1.344-0.811c0.256,0.062,6.285,1.595,8.886,6.196
						c0.302,0.534,0.113,1.212-0.42,1.513C64.079,58.522,63.891,58.569,63.706,58.569z"/>
				</g>
			</g>
		</g>
		<g>
			<g>
				<g>
					<path style="fill:#FAEDEB;" d="M50.73,52.096h-0.875c-0.614,0-1.11-0.498-1.11-1.11c0-0.614,0.496-1.111,1.11-1.111h0.875
						c0.614,0,1.111,0.497,1.111,1.111C51.841,51.598,51.344,52.096,50.73,52.096z"/>
				</g>
			</g>
		</g>
		<g>
			<g>
				<g>
					<g>
						<path style="fill:#411611;" d="M50.566,76.031c-6.024,0-8.448-2.28-8.548-2.377c-0.22-0.213-0.226-0.565-0.013-0.785
							c0.213-0.219,0.562-0.228,0.783-0.016l0,0c0.022,0.021,2.25,2.067,7.778,2.067c5.078,0,7.792-2.082,7.818-2.103
							c0.243-0.186,0.59-0.147,0.78,0.094c0.188,0.242,0.147,0.59-0.094,0.78C58.948,73.788,56.023,76.031,50.566,76.031z"/>
					</g>
				</g>
			</g>
		</g>
		<g>
			<g>
				<g>
					<g>
						<g>
							<path style="fill:#411611;" d="M69.806,33.458c0,2.817-1.809,5.099-4.046,5.099c-2.235,0-4.047-2.282-4.047-5.099
								c0-2.815,1.812-5.098,4.047-5.098C67.997,28.36,69.806,30.643,69.806,33.458z"/>
						</g>
					</g>
				</g>
				<g>
					<g>
						<g>
							<ellipse style="fill:#411611;" cx="36.286" cy="33.458" rx="4.046" ry="5.099"/>
						</g>
					</g>
				</g>
			</g>
			<g>
				<g>
					<ellipse style="fill:#FFFFFF;" cx="37.74" cy="31.154" rx="1.454" ry="1.548"/>
				</g>
			</g>
			<g>
				<g>
					<ellipse style="fill:#FFFFFF;" cx="67.332" cy="31.154" rx="1.454" ry="1.548"/>
				</g>
			</g>
		</g>
	</g>
</g>
</svg>
