<?xml version="1.0" encoding="utf-8"?>
<!-- Generator: Adobe Illustrator 17.0.0, SVG Export Plug-In . SVG Version: 6.00 Build 0)  -->
<!DOCTYPE svg PUBLIC "-//W3C//DTD SVG 1.1//EN" "http://www.w3.org/Graphics/SVG/1.1/DTD/svg11.dtd">
<svg version="1.1" id="图层_1" xmlns="http://www.w3.org/2000/svg" xmlns:xlink="http://www.w3.org/1999/xlink" x="0px" y="0px"
	 width="32px" height="31.969px" viewBox="0 0 32 31.969" enable-background="new 0 0 32 31.969" xml:space="preserve">
<path fill="#2D88E2" d="M31,29.969c-1.03,1.173-1.64,1.95-3,2c-0.575,0.021-2.425,0-3,0c-5.491,0-10.509,0-16,0
	c-1.455,0-3.541-0.008-5,0c-2.437,0.013-4.007-1.435-4-4c0.002-0.649-0.01-1.295-0.01-1.937c0-5.205,0-10.411,0-15.616
	c0-1.8,0-3.6,0-5.4c0-2.917,2.279-5.031,5.183-5.031c4.931,0,9.862,0,14.792,0c2.173,0,4.346,0,6.518,0
	c0.824,0,1.622,0.027,2.407,0.332c1.82,0.706,3.181,2.572,3.12,4.538c0,1.038,0,2.075,0,3.112c0,5.481,0,10.962,0,16.443
	C32.01,26.268,31.817,29.039,31,29.969z M31,21.969c0-4.757,0-9.244,0-14c-0.617,0-1.383,0-2,0c-1.132,0-1.868,0-3,0
	c-0.513,0-1.487,0-2,0c-0.264-0.551-0.758-1.396-1.127-1.884c-1.4-1.852-3.505-2.916-5.798-3.217
	c-2.263-0.297-4.7-0.025-6.666,1.189C9.632,4.537,8.946,5.153,8.374,5.86c-0.28,0.346-0.533,0.713-0.761,1.094
	C7.491,7.159,7.251,7.969,7,7.969c-2.2,0-3.801,0-6,0c-0.254,0-0.055,0.803,0,1c0.296,1.069,0.056,1.999,0,3
	c-0.163,2.917,0,5.078,0,8c0,2.055,0,3.945,0,6c0,1.269-0.244,3.049,0.668,3.977C2.389,30.68,2.972,30.852,4,30.969
	c0.514,0.058,1.484,0,2,0c0.704,0,1.296,0,2,0c-0.029-1.186-0.002-1.968,1-2c0.42-0.013,0.579,0,1,0c2.246,0,4.754,0,7,0
	c2.117,0,3.884-0.056,6,0c1.198,0.032,1,1.794,1,2c1.153,0,1.847,0,3,0c1.677,0,1.735,0.08,3-1c0.685-0.585,1-2.185,1-3
	C31,25.455,31,23.483,31,21.969z M25,13.803c-1.105,0-2-0.94-2-2.099c0-0.772,0.402-1.439,0.993-1.803v1.913h0.028
	c0.054,0.525,0.464,0.939,0.979,0.939s0.925-0.414,0.979-0.939h0.028V9.901C26.598,10.265,27,10.932,27,11.704
	C27,12.863,26.105,13.803,25,13.803z M21,21.969c-1.152,0-2.848,0-4,0c-2.478,0-4.522,0-7,0c-0.187,0-1-0.759-1-1
	c0-0.026,0-0.055,0-0.081c0-1.239,0-2.69,0-3.919c0-2.329,0-4.671,0-7c0-0.451,0.332-1,2-1c1.337,0,2.663,0,4,0c2.116,0,3.884,0,6,0
	c0.696,0.068,0.908,1.053,0.969,1.53c-0.01,0.331,0.022,2.278,0.031,3.47c0.016,2.198,0,4.802,0,7
	C22,21.114,21.161,21.875,21,21.969z M12.043,13.125c-0.483,0.164-0.691,0.745-0.748,1.205c-0.132,0.646,0.313,1.517,1.045,1.511
	c0.824-0.008,1.127-0.757,1.095-1.461C13.405,13.716,12.817,12.862,12.043,13.125z M14.449,10.955c-1.362,0-1.362,2.85,0,2.85
	S15.811,10.955,14.449,10.955z M14.604,15.024c-0.382,0.288-0.58,0.748-0.909,1.09c-0.22,0.23-0.468,0.435-0.704,0.648
	c-0.513,0.461-1.074,0.833-1.132,1.591c-0.058,0.749,0.414,1.592,1.208,1.71c0.814,0.121,1.596-0.172,2.4-0.182
	c1.104-0.013,2.918,0.935,3.534-0.499c-0.138,0.323-0.276,0.644,0.001-0.001c0.276-0.645,0.139-0.324,0.001-0.002
	c0.285-0.669,0.247-1.45-0.314-1.961c-0.648-0.589-1.321-1.119-1.831-1.843C16.347,14.787,15.413,14.415,14.604,15.024z
	 M17.178,11.184c-0.581-0.019-1.106,0.771-1.163,1.278c0.015-0.134,0.027-0.242,0,0.002c-0.04,0.367-0.018,0.17,0,0.004
	c-0.066,0.627,0.111,1.338,0.843,1.431c0.696,0.09,1.171-0.596,1.304-1.191C18.292,12.125,17.868,11.206,17.178,11.184z
	 M19.032,13.804c-0.958-0.291-1.355,0.551-1.355,1.341c0,0.765,0.299,1.31,1.156,1.291C20.142,16.408,20.164,14.148,19.032,13.804z
	 M16.015,12.464c0-0.001,0-0.001,0-0.002c0,0.002,0,0.004,0,0.006C16.015,12.467,16.015,12.465,16.015,12.464z M19.002,19.381
	c0,0.001-0.001,0.001-0.001,0.001c0.001-0.001,0.001-0.002,0.002-0.003C19.002,19.38,19.002,19.38,19.002,19.381z M21,21.969
	C21.157,21.969,20.852,22.055,21,21.969z M21.993,10.717c-0.003-0.042-0.011-0.121-0.024-0.218
	C21.972,10.399,21.98,10.451,21.993,10.717z M9,7.969c1.455-2.497,3.542-4.057,6.414-4.057c2.918,0,5.128,1.449,6.586,4.057
	c-0.589,0-0.411,0-1,0C16.919,7.969,13.081,7.969,9,7.969z M6,13.803c-1.105,0-2-0.94-2-2.099c0-0.772,0.402-1.439,0.993-1.803
	v1.913h0.028C5.075,12.339,5.485,12.753,6,12.753s0.925-0.414,0.979-0.939h0.028V9.901C7.598,10.265,8,10.932,8,11.704
	C8,12.863,7.105,13.803,6,13.803z M24,7.969C24.122,8.041,23.862,7.969,24,7.969z"/>
</svg>
