<?xml version="1.0" encoding="utf-8"?>
<!-- Generator: Adobe Illustrator 17.0.0, SVG Export Plug-In . SVG Version: 6.00 Build 0)  -->
<!DOCTYPE svg PUBLIC "-//W3C//DTD SVG 1.1//EN" "http://www.w3.org/Graphics/SVG/1.1/DTD/svg11.dtd">
<svg version="1.1" id="图层_1" xmlns="http://www.w3.org/2000/svg" xmlns:xlink="http://www.w3.org/1999/xlink" x="0px" y="0px"
	 width="95.587px" height="95.587px" viewBox="0 0 95.587 95.587" enable-background="new 0 0 95.587 95.587" xml:space="preserve">
<path fill="#DF4F44" d="M56.042,22.496c0,12.426-8.022,22.498-8.022,22.498s-8.025-10.072-8.025-22.498
	C39.995,10.072,48.02,0,48.02,0S56.042,10.072,56.042,22.496 M22.497,39.546c12.425,0,22.497,8.022,22.497,8.022
	s-10.072,8.024-22.497,8.024S0,47.568,0,47.568S10.072,39.546,22.497,39.546 M39.547,73.09c0-12.425,8.021-22.497,8.021-22.497
	s8.023,10.072,8.023,22.497s-8.023,22.497-8.023,22.497S39.547,85.515,39.547,73.09 M73.09,56.042
	c-12.424,0-22.497-8.024-22.497-8.024s10.073-8.023,22.497-8.023s22.497,8.023,22.497,8.023S85.514,56.042,73.09,56.042"/>
<path fill="#9E8848" d="M38.865,30.227c6.507,6.507,7.581,15.982,7.581,15.982s-9.478-1.072-15.983-7.578
	c-6.506-6.508-7.578-15.984-7.578-15.984S32.359,23.721,38.865,30.227 M30.227,56.723c6.507-6.508,15.982-7.581,15.982-7.581
	s-1.072,9.478-7.58,15.982c-6.506,6.507-15.981,7.581-15.981,7.581S23.722,63.227,30.227,56.723 M56.722,65.36
	c-6.507-6.507-7.58-15.983-7.58-15.983s9.478,1.073,15.983,7.578c6.505,6.509,7.578,15.984,7.578,15.984S63.228,71.866,56.722,65.36
	 M65.359,38.865c-6.506,6.507-15.982,7.58-15.982,7.58s1.074-9.476,7.58-15.982c6.506-6.508,15.982-7.58,15.982-7.58
	S71.866,32.359,65.359,38.865"/>
<path fill="#D4AB65" d="M53.902,47.712c0,3.497-2.835,6.333-6.334,6.333c-3.497,0-6.331-2.836-6.331-6.333
	c0-3.498,2.834-6.333,6.331-6.333C51.067,41.379,53.902,44.214,53.902,47.712"/>
</svg>
