<?xml version="1.0" encoding="iso-8859-1"?>
<!-- Generator: Adobe Illustrator 17.0.0, SVG Export Plug-In . SVG Version: 6.00 Build 0)  -->
<!DOCTYPE svg PUBLIC "-//W3C//DTD SVG 1.1//EN" "http://www.w3.org/Graphics/SVG/1.1/DTD/svg11.dtd">
<svg version="1.1" id="Items" xmlns="http://www.w3.org/2000/svg" xmlns:xlink="http://www.w3.org/1999/xlink" x="0px" y="0px"
	 width="252.479px" height="354.248px" viewBox="0 0 252.479 354.248" style="enable-background:new 0 0 252.479 354.248;"
	 xml:space="preserve">
<g id="Envelope_x5F_wax_seal">
	<g>
		<g>
			<g>
				<polygon style="opacity:0.1;" points="252.479,3.762 249.73,0.281 246.39,3.762 2.606,3.762 2.606,344.395 -0.006,350.519 
					2.606,354.248 252.479,354.248 				"/>
				<rect x="0" y="0" style="fill:#332D2D;" width="249.873" height="350.486"/>
			</g>
			<path style="opacity:0.1;" d="M5.28,25.591c1.006,6.729,7.161,12.234,13.679,12.234h211.953c6.517,0,12.673-5.505,13.679-12.234
				l5.281-25.414H-0.001L5.28,25.591z"/>
			<path style="fill:#423A3C;" d="M5.28,23.55c1.006,6.439,7.161,11.708,13.679,11.708h211.953c6.517,0,12.673-5.269,13.679-11.708
				l5.281-23.373H-0.001L5.28,23.55z"/>
		</g>
	</g>
	<g>
		<g>
			<g>
				<path style="opacity:0.25;" d="M126.9,23.049c2.959,0.149,5.569,0.44,7.593,2.819c2.025,2.379,3.943,2.703,5.221,3.352
					c1.278,0.649,0.746,2.92,1.065,5.082c0.32,2.163,3.09,5.623,1.918,7.894c-1.172,2.271-3.41,6.056-3.729,7.353
					c-0.32,1.298-2.983,2.379-6.499,3.245c-3.516,0.865-7.245,1.946-10.016,1.622c-2.77-0.325-6.393-5.948-9.057-7.137
					c-2.664-1.19-3.196-4.159-1.918-8.243c1.279-4.084-1.598-10.031,1.172-11.546c2.77-1.514,6.126-0.469,8.15-2.2
					C122.826,23.56,125.731,22.991,126.9,23.049z"/>
				<path style="fill:#A41F26;" d="M126.9,22.063c2.902,0.143,5.462,0.425,7.448,2.724c1.986,2.299,3.867,2.613,5.121,3.24
					c1.254,0.627,0.731,2.822,1.045,4.912c0.314,2.09,3.031,5.435,1.881,7.63c-1.15,2.195-3.344,5.853-3.658,7.107
					c-0.314,1.254-2.926,2.299-6.375,3.135c-3.449,0.836-7.107,1.881-9.824,1.568c-2.717-0.314-6.271-5.748-8.884-6.898
					c-2.613-1.15-3.135-4.02-1.881-7.967c1.254-3.947-1.568-9.695,1.15-11.159c2.717-1.463,6.009-0.454,7.994-2.126
					S125.753,22.006,126.9,22.063z"/>
				<path style="fill:#911C20;" d="M114.612,32.061c1.847-2.168,1.972-4.748,4.967-5.551c2.995-0.803,5.186-1.096,6.427-1.388
					c1.242-0.292,4.017-0.877,5.77,0.73c1.753,1.607,3.871,1.77,4.967,2.565c1.096,0.795,2.045,1.525,2.337,4.301
					c0.292,2.776,2.556,5.916,1.023,8.619c-1.534,2.703-1.315,4.017-2.776,5.989c-1.461,1.972-4.017,2.118-7.012,3.068
					c-2.995,0.949-6.428,1.972-8.838,0.292c-2.41-1.68-4.821-4.821-6.866-6.135c-2.045-1.315-1.315-4.751-1.315-7.123
					C113.297,35.056,112.932,34.033,114.612,32.061z"/>
				<g>
					<circle style="fill:#951C21;" cx="126.9" cy="38.08" r="10.573"/>
					<circle style="fill:#951C21;" cx="126.901" cy="38.08" r="9.842"/>
					<path style="opacity:0.5;fill:#FFFFFF;" d="M136.73,38.078c-0.15,5.303-4.496,9.555-9.835,9.555
						c-5.341,0-9.688-4.252-9.837-9.555c-0.004,0.096-0.006,0.192-0.006,0.288c0,5.437,4.406,9.842,9.843,9.842
						c5.435,0,9.841-4.406,9.841-9.842C136.735,38.27,136.733,38.174,136.73,38.078z"/>
				</g>
				<path style="opacity:0.1;" d="M140.544,40.147c-0.297-1.854-1.279-3.765-1.464-5.529c-0.293-2.775-1.243-3.506-2.337-4.301
					c-1.096-0.796-3.213-0.959-4.966-2.566c-1.753-1.607-4.528-1.022-5.771-0.731c-1.241,0.293-3.432,0.584-6.426,1.388
					c-2.996,0.803-3.121,3.383-4.968,5.553c-0.943,1.105-1.241,1.912-1.323,2.826c-0.042-1.934-0.197-2.94,1.323-4.726
					c1.847-2.169,1.972-4.749,4.968-5.553c2.994-0.803,5.185-1.095,6.426-1.388c1.243-0.291,4.018-0.876,5.771,0.731
					c1.753,1.607,3.87,1.769,4.966,2.565c1.094,0.794,2.044,1.525,2.337,4.301C139.329,35.094,141.027,37.739,140.544,40.147z"/>
				<path style="opacity:0.5;fill:#FFFFFF;" d="M140.104,41.338c-1.536,2.703-1.317,4.016-2.775,5.989
					c-1.462,1.972-4.018,2.119-7.014,3.068c-2.994,0.95-6.426,1.972-8.838,0.291c-2.41-1.679-4.818-4.82-6.866-6.135
					c-1.331-0.858-1.487-2.616-1.429-4.393c0.056,1.377,0.371,2.629,1.429,3.311c2.048,1.315,4.456,4.456,6.866,6.135
					c2.412,1.681,5.844,0.659,8.838-0.291c2.996-0.95,5.553-1.096,7.014-3.068c1.458-1.972,1.239-3.286,2.775-5.988
					c0.284-0.505,0.438-1.024,0.497-1.552C140.69,39.608,140.582,40.493,140.104,41.338z"/>
			</g>
			<path style="opacity:0.3;fill:#FFFFFF;" d="M142.667,39.605c-0.15-2.032-1.903-4.472-2.151-6.124
				c-0.315-2.091,0.208-4.286-1.046-4.912c-1.254-0.628-3.135-0.941-5.122-3.24c-1.985-2.299-4.545-2.58-7.447-2.725
				c-1.147-0.056-3.997,0.494-5.983,2.166c-1.987,1.674-5.277,0.664-7.995,2.126c-0.894,0.481-1.188,1.427-1.225,2.62
				c-0.038-1.447,0.199-2.611,1.225-3.163c2.718-1.462,6.008-0.452,7.995-2.126c1.986-1.672,4.836-2.222,5.983-2.166
				c2.902,0.145,5.462,0.425,7.447,2.725c1.987,2.3,3.868,2.613,5.122,3.24c1.254,0.626,0.731,2.821,1.046,4.912
				C140.785,34.742,142.846,37.479,142.667,39.605z"/>
		</g>
		<circle style="opacity:0.1;" cx="126.9" cy="38.463" r="10.573"/>
		<path style="opacity:0.2;" d="M126.9,28.238c-5.437,0-9.843,4.406-9.843,9.84c0,0.096,0.002,0.192,0.006,0.288
			c0.149-5.301,4.496-9.553,9.837-9.553c5.339,0,9.685,4.252,9.835,9.553c0.004-0.096,0.006-0.192,0.006-0.288
			C136.741,32.644,132.335,28.238,126.9,28.238z"/>
	</g>
	<rect x="77.267" y="213.961" style="fill:#F7F7F7;" width="95.34" height="136.026"/>
</g>
</svg>
