<?xml version="1.0" encoding="iso-8859-1"?>
<!-- Generator: Adobe Illustrator 17.0.0, SVG Export Plug-In . SVG Version: 6.00 Build 0)  -->
<!DOCTYPE svg PUBLIC "-//W3C//DTD SVG 1.1//EN" "http://www.w3.org/Graphics/SVG/1.1/DTD/svg11.dtd">
<svg version="1.1" id="Object" xmlns="http://www.w3.org/2000/svg" xmlns:xlink="http://www.w3.org/1999/xlink" x="0px" y="0px"
	 width="494.952px" height="218.312px" viewBox="0 0 494.952 218.312" style="enable-background:new 0 0 494.952 218.312;"
	 xml:space="preserve">
<g>
	<g>
		<g>
			<g>
				<g>
					<polygon style="fill:#339A9A;" points="243.846,161.73 194.091,94.887 144.336,161.73 					"/>
					<polygon style="fill:#D7F0EF;" points="194.091,94.887 180.154,113.612 180.924,114.229 185.152,110.83 189.38,114.229 
						193.609,110.83 197.838,114.229 202.067,110.83 206.296,114.229 207.668,113.126 					"/>
				</g>
				<g style="opacity:0.1;">
					<polyline style="fill:#101111;" points="137.89,170.198 194.161,94.842 194.88,184.582 					"/>
				</g>
			</g>
			<g>
				<g>
					<polygon style="fill:#1E878D;" points="431.69,171.769 367.118,85.022 302.547,171.769 					"/>
					<polygon style="fill:#D7F0EF;" points="367.118,85.022 349.03,109.323 350.029,110.126 355.517,105.713 361.004,110.126 
						366.493,105.713 371.98,110.126 377.47,105.713 382.957,110.126 384.739,108.693 					"/>
				</g>
				<g style="opacity:0.1;">
					<polyline style="fill:#101111;" points="301.981,172.491 367.118,85.022 367.745,174.762 					"/>
				</g>
			</g>
			<g>
				<g>
					<path style="fill:#1E878D;" d="M135.006,85.593l-68.337,91.808h136.675L135.006,85.593z M145.961,107.547l-5.808,4.668
						l-5.809-4.668l-5.808,4.668l-5.809-4.668l-5.808,4.668l-1.057-0.849l19.143-25.719l18.648,25.052l-1.886,1.515L145.961,107.547
						z"/>
					<polygon style="fill:#D7F0EF;" points="135.006,85.648 115.863,111.367 116.92,112.216 122.729,107.547 128.537,112.216 
						134.345,107.547 140.153,112.216 145.961,107.547 151.769,112.216 153.655,110.701 					"/>
				</g>
				<g style="opacity:0.1;">
					<polyline style="fill:#101111;" points="72.381,169.773 135.006,85.648 135.727,175.388 					"/>
				</g>
			</g>
		</g>
		<g>
			<g>
				<g>
					<polygon style="fill:#E5CF63;" points="61.536,5.856 64.916,0 68.296,5.856 					"/>
					<polygon style="fill:#E5CF63;" points="46.946,14.7 45.195,8.17 51.726,9.92 					"/>
					<polygon style="fill:#E5CF63;" points="42.883,31.269 37.027,27.889 42.883,24.51 					"/>
					<polygon style="fill:#E5CF63;" points="51.726,45.859 45.195,47.61 46.946,41.08 					"/>
					<polygon style="fill:#E5CF63;" points="68.296,49.923 64.916,55.779 61.536,49.923 					"/>
					<polygon style="fill:#E5CF63;" points="82.886,41.08 84.636,47.61 78.105,45.859 					"/>
					<polygon style="fill:#E5CF63;" points="86.95,24.51 92.806,27.889 86.95,31.269 					"/>
					<polygon style="fill:#E5CF63;" points="78.105,9.92 84.636,8.17 82.886,14.7 					"/>
				</g>
				<g>
					<circle style="fill:#E5CF63;" cx="64.916" cy="27.889" r="16.749"/>
				</g>
			</g>
			<g>
				<path style="opacity:0.9;fill:#FFFFFF;" d="M341.635,63.702h-4.031c-0.777,0-1.407-0.631-1.407-1.407
					c0-0.777,0.63-1.407,1.407-1.407h-0.099c2.417,0,4.376-1.959,4.376-4.376c0-2.417-1.959-4.376-4.376-4.376h-27.351
					c-2.417,0-4.376,1.959-4.376,4.376c0,2.417,1.96,4.376,4.376,4.376h0.664c0.777,0,1.406,0.629,1.406,1.407
					c0,0.776-0.629,1.407-1.406,1.407h-17.142c-2.811,0-5.091,2.169-5.091,4.844c0,2.676,2.28,4.846,5.091,4.846h47.958
					c2.812,0,5.091-2.169,5.091-4.846C346.727,65.872,344.448,63.702,341.635,63.702z"/>
				<path style="opacity:0.9;fill:#FFFFFF;" d="M197.075,59.519c0,3.019-2.447,5.467-5.465,5.467h-33.475
					c-3.019,0-5.466-2.448-5.466-5.467l0,0c0-3.019,2.447-5.465,5.466-5.465h33.475C194.628,54.053,197.075,56.5,197.075,59.519
					L197.075,59.519z"/>
				<path style="opacity:0.9;fill:#FFFFFF;" d="M263.003,27.889c0,3.019-2.447,5.466-5.466,5.466h-33.475
					c-3.019,0-5.466-2.447-5.466-5.466l0,0c0-3.019,2.447-5.466,5.466-5.466h33.475C260.556,22.423,263.003,24.87,263.003,27.889
					L263.003,27.889z"/>
				<path style="opacity:0.9;fill:#FFFFFF;" d="M451.012,64.985c0,3.019-2.446,5.466-5.466,5.466H412.07
					c-3.018,0-5.466-2.448-5.466-5.466l0,0c0-3.019,2.447-5.466,5.466-5.466h33.476C448.565,59.52,451.012,61.966,451.012,64.985
					L451.012,64.985z"/>
				<path style="opacity:0.9;fill:#FFFFFF;" d="M94.879,79.877H76.875c-0.816,0-1.478-0.662-1.478-1.478
					c0-0.815,0.662-1.477,1.478-1.477h0.697c2.539,0,4.597-2.058,4.597-4.597c0-2.54-2.058-4.597-4.597-4.597h-28.73
					c-2.539,0-4.596,2.058-4.596,4.597c0,2.539,2.058,4.597,4.596,4.597h-0.102c0.816,0,1.478,0.661,1.478,1.477
					c0,0.816-0.662,1.478-1.478,1.478h-4.235c-2.953,0-5.348,2.278-5.348,5.09c0,2.81,2.395,5.088,5.348,5.088h50.374
					c2.953,0,5.348-2.278,5.348-5.088C100.227,82.155,97.832,79.877,94.879,79.877z"/>
				<path style="opacity:0.9;fill:#FFFFFF;" d="M169.523,23.697H151.52c-0.816,0-1.479-0.662-1.479-1.477
					c0-0.816,0.663-1.478,1.479-1.478h0.697c2.538,0,4.596-2.058,4.596-4.597c0-2.539-2.058-4.597-4.596-4.597h-28.729
					c-2.539,0-4.597,2.058-4.597,4.597c0,2.539,2.058,4.597,4.597,4.597h-0.103c0.816,0,1.478,0.662,1.478,1.478
					c0,0.815-0.661,1.477-1.478,1.477h-4.235c-2.954,0-5.348,2.278-5.348,5.09c0,2.81,2.395,5.088,5.348,5.088h50.373
					c2.954,0,5.349-2.278,5.349-5.088C174.872,25.975,172.477,23.697,169.523,23.697z"/>
				<path style="opacity:0.9;fill:#FFFFFF;" d="M404.926,23.408h-18.004c-0.815,0-1.477-0.662-1.477-1.477
					c0-0.816,0.662-1.478,1.477-1.478h0.699c2.538,0,4.595-2.058,4.595-4.598c0-2.539-2.058-4.596-4.595-4.596h-28.73
					c-2.538,0-4.596,2.058-4.596,4.596c0,2.54,2.058,4.598,4.596,4.598h-0.102c0.816,0,1.478,0.661,1.478,1.478
					c0,0.815-0.661,1.477-1.478,1.477h-4.235c-2.953,0-5.348,2.277-5.348,5.089c0,2.811,2.395,5.089,5.348,5.089h50.373
					c2.956,0,5.349-2.278,5.349-5.089C410.274,25.686,407.882,23.408,404.926,23.408z"/>
			</g>
		</g>
		<g>
			<g>
				<g>
					<path style="fill:#79BB26;" d="M273.669,186.685c28.136-16.886,73.287-41.875,110.163-41.875
						c36.873,0,102.438,29.043,110.16,41.875H273.669z"/>
				</g>
				<g>
					<g>
						<g>
							<rect x="437.536" y="153.656" style="fill:#B66B56;" width="1.104" height="6.141"/>
							<path style="fill:#24BC7C;" d="M442.445,143.878c0-2.407-1.95-4.358-4.355-4.358c-2.407,0-4.359,1.951-4.359,4.358v6.512
								c0,2.408,1.952,4.358,4.359,4.358c2.405,0,4.355-1.95,4.355-4.358V143.878z"/>
							<path style="opacity:0.1;fill:#0B0C0C;" d="M433.73,143.878v6.512c0,2.408,1.952,4.358,4.359,4.358V139.52
								C435.683,139.52,433.73,141.471,433.73,143.878z"/>
						</g>
						<g>
							<rect x="446.066" y="156.744" style="fill:#B66B56;" width="0.953" height="4.843"/>
							<g>
								<polygon style="fill:#24BC7C;" points="441.911,157.125 446.542,141.434 451.173,157.125 								"/>
								<polygon style="opacity:0.1;fill:#0B0C0C;" points="441.911,157.125 446.542,157.125 446.542,141.434 								"/>
							</g>
						</g>
					</g>
					<g>
						<g>
							<polygon style="fill:#C59E5D;" points="434.533,165.544 435.333,164.023 437.123,163.046 439.969,162.504 442.534,163.783 
								442.748,165.468 							"/>
						</g>
						<g>
							<polygon style="fill:#F9E0A4;" points="443.691,166.945 444.363,165.224 445.842,164.55 447.412,165.26 449.097,165.607 
								449.391,166.945 							"/>
						</g>
						<g>
							<polygon style="fill:#B66B56;" points="429.708,162.175 430.176,160.005 431.203,159.156 432.293,160.051 433.466,160.49 
								433.67,162.175 							"/>
						</g>
						<g>
							<polygon style="fill:#B66B56;" points="436.951,168.824 437.441,167.474 438.518,166.945 439.662,167.502 440.89,167.775 
								441.105,168.824 							"/>
						</g>
					</g>
				</g>
				<g>
					<g>
						<g>
							<rect x="399.027" y="141.365" style="fill:#E6D4BA;" width="12.537" height="7.726"/>
							<rect x="399.027" y="141.365" style="fill:#D7C0A1;" width="1.523" height="7.726"/>
							<g>
								<rect x="401.081" y="142.919" style="fill:#1E878D;" width="2.16" height="1.95"/>
								<polygon style="fill:#157A7A;" points="403.241,144.868 401.081,144.868 403.241,142.919 								"/>
							</g>
							<g>
								<rect x="408.065" y="142.919" style="fill:#1E878D;" width="2.16" height="1.95"/>
								<polygon style="fill:#157A7A;" points="410.226,144.868 408.065,144.868 410.226,142.919 								"/>
							</g>
							<rect x="398.797" y="140.449" style="fill:#9F5141;" width="13.064" height="0.916"/>
							<g>
								<polygon style="fill:#B66B56;" points="411.639,140.449 409.166,137.854 401.489,137.854 399.018,140.449 								"/>
							</g>
							<g>
								<rect x="404.314" y="145.171" style="fill:#F8F8F8;" width="2.508" height="3.92"/>
								<circle style="fill:#B66B56;" cx="406.414" cy="147.13" r="0.146"/>
								<rect x="404.055" y="144.877" style="fill:#B66B56;" width="3.024" height="0.295"/>
							</g>
						</g>
						<rect x="401.411" y="136.505" style="fill:#B66B56;" width="1.651" height="1.655"/>
						<rect x="401.249" y="135.825" style="fill:#9F5141;" width="1.992" height="0.681"/>
						<rect x="406.822" y="145.138" style="fill:#9F5141;" width="0.257" height="3.92"/>
						<rect x="404.055" y="145.138" style="fill:#9F5141;" width="0.26" height="3.92"/>
					</g>
					<g>
						<g>
							<path style="fill:#24BC7C;" d="M415.143,150.067c0,0,1.07-2.749-2.06-3.749c-3.129,1-2.059,3.749-2.059,3.749"/>
						</g>
						<g style="opacity:0.1;">
							<path style="fill:#0B0C0C;" d="M411.024,150.067c0,0-1.07-2.749,2.059-3.749v3.749"/>
						</g>
					</g>
				</g>
			</g>
			<g>
				<g>
					<path style="fill:#79BB26;" d="M48.162,186.685c28.135-16.886,73.287-41.875,110.162-41.875
						c36.873,0,102.439,29.043,110.161,41.875H48.162z"/>
				</g>
				<g>
					<g>
						<polygon style="fill:#B66B56;" points="156.75,148.382 157.217,146.212 158.244,145.363 159.335,146.258 160.507,146.696 
							160.711,148.382 						"/>
					</g>
					<g>
						<g>
							<rect x="141.667" y="138.678" style="fill:#D2AC74;" width="16.25" height="10.015"/>
							<rect x="155.944" y="138.678" style="fill:#D9BA8C;" width="1.974" height="10.015"/>
							<g>
								<rect x="152.455" y="140.692" style="fill:#1E878D;" width="2.8" height="2.527"/>
								<polygon style="fill:#157A7A;" points="152.455,143.219 155.254,143.219 152.455,140.692 								"/>
							</g>
							<g>
								<rect x="143.401" y="140.692" style="fill:#1E878D;" width="2.799" height="2.527"/>
								<polygon style="fill:#157A7A;" points="143.401,143.219 146.201,143.219 143.401,140.692 								"/>
							</g>
							<rect x="141.282" y="137.49" style="fill:#39454C;" width="16.933" height="1.189"/>
							<g>
								<g>
									<polygon style="fill:#4A5760;" points="141.569,137.49 144.772,134.128 154.723,134.128 157.927,137.49 									"/>
								</g>
							</g>
							<g>
								<rect x="147.814" y="143.612" style="fill:#F9E0A4;" width="3.249" height="5.081"/>
								<circle style="fill:#C59E5D;" cx="148.341" cy="146.152" r="0.189"/>
								<rect x="147.479" y="143.229" style="fill:#B66B56;" width="3.92" height="0.382"/>
							</g>
						</g>
						<rect x="152.686" y="132.378" style="fill:#4A5760;" width="2.142" height="2.147"/>
						<rect x="152.455" y="131.497" style="fill:#39454C;" width="2.582" height="0.881"/>
						<rect x="147.479" y="143.57" style="fill:#A95C4D;" width="0.336" height="5.08"/>
						<rect x="151.063" y="143.57" style="fill:#A95C4D;" width="0.335" height="5.08"/>
					</g>
					<g>
						<g>
							<path style="fill:#24BC7C;" d="M143.959,149.211c0,0,1.512-3.885-2.91-5.297c-4.422,1.412-2.909,5.297-2.909,5.297"/>
						</g>
						<g style="opacity:0.1;">
							<path style="fill:#0B0C0C;" d="M138.14,149.211c0,0-1.513-3.885,2.909-5.297v5.297"/>
						</g>
					</g>
					<g>
						<polygon style="fill:#F9E0A4;" points="153.765,149.588 154.512,147.417 156.154,146.569 157.896,147.463 159.769,147.902 
							160.096,149.588 						"/>
					</g>
				</g>
			</g>
			<g>
				<g>
					<path style="fill:#82CB38;" d="M2.117,186.685c22.436-19.067,58.443-47.284,87.849-47.284
						c29.403,0,81.687,32.795,87.846,47.284H2.117z"/>
				</g>
				<g>
					<g>
						<rect x="112.921" y="152.786" style="fill:#B66B56;" width="1.001" height="5.567"/>
						<path style="fill:#24BC7C;" d="M117.372,143.921c0-2.182-1.769-3.951-3.95-3.951c-2.183,0-3.951,1.769-3.951,3.951v5.904
							c0,2.183,1.768,3.952,3.951,3.952c2.182,0,3.95-1.768,3.95-3.952V143.921z"/>
						<path style="opacity:0.1;fill:#0B0C0C;" d="M109.471,143.921v5.904c0,2.183,1.768,3.952,3.951,3.952V139.97
							C111.239,139.97,109.471,141.739,109.471,143.921z"/>
					</g>
					<g>
						<rect x="95.532" y="140.632" style="fill:#B66B56;" width="0.784" height="3.985"/>
						<g>
							<polygon style="fill:#24BC7C;" points="92.114,140.947 95.923,128.038 99.734,140.947 							"/>
							<polygon style="opacity:0.1;fill:#0B0C0C;" points="92.114,140.947 95.923,140.947 95.923,128.038 							"/>
						</g>
					</g>
				</g>
				<g>
					<g>
						<polygon style="fill:#C59E5D;" points="108.753,166.162 110.138,163.531 113.238,161.839 118.163,160.9 122.604,163.115 
							122.974,166.033 						"/>
					</g>
					<g>
						<polygon style="fill:#B66B56;" points="122.194,156.871 122.661,154.701 123.689,153.852 124.779,154.747 125.952,155.185 
							126.155,156.871 						"/>
					</g>
					<g>
						<polygon style="fill:#F9E0A4;" points="128.676,161.071 129.422,158.901 131.064,158.052 132.808,158.946 134.68,159.385 
							135.006,161.071 						"/>
					</g>
				</g>
				<g>
					<polyline style="fill:#E89E6C;" points="28.66,185.37 32.885,177.927 40.83,175.65 47.235,173.639 53.825,177.927 
						55.828,188.115 					"/>
					<polyline style="fill:#B66B56;" points="4.428,186.492 7.397,178.896 14.409,173.19 28.251,173.19 34.08,177.745 
						35.851,188.564 					"/>
				</g>
				<g>
					<g>
						<g>
							<rect x="45.813" y="139.344" style="fill:#E4E4E4;" width="24.729" height="15.242"/>
							<rect x="45.813" y="139.344" style="fill:#D8D8D8;" width="3.001" height="15.242"/>
							<g>
								<rect x="49.865" y="142.41" style="fill:#1E878D;" width="4.261" height="3.845"/>
								<polygon style="fill:#157A7A;" points="54.125,146.255 49.865,146.255 54.125,142.41 								"/>
							</g>
							<g>
								<rect x="63.643" y="142.41" style="fill:#1E878D;" width="4.26" height="3.845"/>
								<polygon style="fill:#157A7A;" points="67.903,146.255 63.643,146.255 67.903,142.41 								"/>
							</g>
							<rect x="45.36" y="137.536" style="fill:#7A232E;" width="25.768" height="1.808"/>
							<g>
								<polygon style="fill:#C33A32;" points="70.691,137.536 65.815,132.417 50.673,132.417 45.797,137.536 								"/>
							</g>
							<g>
								<rect x="56.244" y="146.853" style="fill:#C59E5D;" width="4.943" height="7.733"/>
								<circle style="fill:#F9E0A4;" cx="60.385" cy="150.719" r="0.289"/>
								<rect x="55.733" y="146.271" style="fill:#B66B56;" width="5.966" height="0.582"/>
							</g>
						</g>
						<rect x="50.515" y="129.757" style="fill:#C33A32;" width="3.258" height="3.266"/>
						<rect x="50.197" y="128.416" style="fill:#7A232E;" width="3.928" height="1.341"/>
						<rect x="61.188" y="146.788" style="fill:#A95C4D;" width="0.511" height="7.733"/>
						<rect x="55.733" y="146.788" style="fill:#A95C4D;" width="0.511" height="7.733"/>
					</g>
					<g>
						<g>
							<path style="fill:#24BC7C;" d="M76.13,156.792c0,0,2.179-5.596-4.191-7.63c-6.37,2.034-4.191,7.63-4.191,7.63"/>
						</g>
						<g style="opacity:0.1;">
							<path style="fill:#0B0C0C;" d="M67.748,156.792c0,0-2.179-5.596,4.192-7.63v7.63"/>
						</g>
					</g>
				</g>
				<g>
					<path style="fill:none;stroke:#333333;stroke-width:0.2295;stroke-linecap:round;stroke-miterlimit:10;" d="M84.255,158.046
						c0,0-1.749-0.653-2.267,0.666c-0.516,1.32,0.44,2.495-0.189,3.807"/>
					<g>
						<path style="fill:#E4E4E4;" d="M89.171,165.7c0,0.404-0.259,0.732-0.579,0.732l0,0c-0.319,0-0.578-0.328-0.578-0.732v-3.303
							c0-0.404,0.259-0.732,0.578-0.732l0,0c0.32,0,0.579,0.328,0.579,0.732V165.7z"/>
						<path style="fill:#E4E4E4;" d="M91.771,165.7c0,0.404-0.254,0.732-0.569,0.732l0,0c-0.314,0-0.569-0.328-0.569-0.732v-3.303
							c0-0.404,0.255-0.732,0.569-0.732l0,0c0.314,0,0.569,0.328,0.569,0.732V165.7z"/>
					</g>
					<g>
						<path style="fill:#FF9BB1;" d="M90.193,162.768c0,1.373-1.112,2.486-2.486,2.486l0,0c-1.372,0-2.485-1.113-2.485-2.486l0,0
							c0-1.372,1.113-2.485,2.485-2.485l0,0C89.081,160.283,90.193,161.396,90.193,162.768L90.193,162.768z"/>
						<path style="fill:#FF9BB1;" d="M88.903,165.174c0,0.128-0.103,0.232-0.232,0.232l0,0c-0.128,0-0.232-0.104-0.232-0.232v-0.373
							c0-0.128,0.104-0.231,0.232-0.231l0,0c0.129,0,0.232,0.104,0.232,0.231V165.174z"/>
						<path style="fill:#FF9BB1;" d="M87.784,165.436c0,0.128-0.104,0.231-0.232,0.231l0,0c-0.128,0-0.231-0.103-0.231-0.231v-0.373
							c0-0.127,0.104-0.232,0.231-0.232l0,0c0.128,0,0.232,0.105,0.232,0.232V165.436z"/>
					</g>
					<g>
						<path style="fill:#FFFFFF;" d="M94.474,166.295c0,0.404-0.251,0.732-0.561,0.732l0,0c-0.309,0-0.56-0.328-0.56-0.732v-3.304
							c0-0.404,0.251-0.731,0.56-0.731l0,0c0.31,0,0.561,0.327,0.561,0.731V166.295z"/>
						<path style="fill:#FFFFFF;" d="M86.809,166.295c0,0.404-0.268,0.732-0.599,0.732l0,0c-0.331,0-0.599-0.328-0.599-0.732v-3.304
							c0-0.404,0.269-0.731,0.599-0.731l0,0c0.331,0,0.599,0.327,0.599,0.731V166.295z"/>
					</g>
					<g>
						<defs>
							<path id="XMLID_1_" d="M96.171,159.921c0,2.182-1.909,3.951-4.265,3.951h-4.121c-2.356,0-4.266-1.769-4.266-3.951l0,0
								c0-2.181,1.91-3.948,4.266-3.948h4.121C94.262,155.973,96.171,157.74,96.171,159.921L96.171,159.921z"/>
						</defs>
						<use xlink:href="#XMLID_1_"  style="overflow:visible;fill:#FFFFFF;"/>
						<clipPath id="XMLID_14_">
							<use xlink:href="#XMLID_1_"  style="overflow:visible;"/>
						</clipPath>
						<g style="clip-path:url(#XMLID_14_);">
							<g id="XMLID_2_">
								<path style="fill:#6D5D35;" d="M86.692,155.87c-0.267,0.819-0.854,1.759-0.321,2.579c0.8,1.146,1.759,0.041,2.826,0.205
									c0.747,0.122,0.853,0.492,1.653,0.206c0.533-0.206,1.174-0.737,1.386-1.146c0.32-0.655,0.213-2.291-1.066-2.252"/>
							</g>
							<g id="XMLID_3_">
								<path style="fill:#6D5D35;" d="M85.26,165.148c0.827-0.155,1.858-0.15,2.452-0.831c0.818-0.987-0.471-1.171-0.631-1.938
									c-0.104-0.54,0.202-0.758-0.291-1.167c-0.342-0.267-1.014-0.473-1.45-0.447c-0.692,0.054-2.159,0.785-1.75,1.608"/>
							</g>
							<g>
								<path style="fill:#6D5D35;" d="M91.04,164.196c-0.727-0.536-1.339-2.141-0.268-2.64c0.917-0.42,0.965,0.514,1.462-0.595
									c0.192-0.383,0.705-0.689,1.281-0.631c0.853,0.085,1.058,0.493,1.618,1.61c0.299,0.597-0.153,1.262-0.689,1.798"/>
							</g>
						</g>
					</g>
					<g>
						<g>
							<path style="fill:#E4E4E4;" d="M97.817,156.647c0,0,1.528-0.412,1.184-1.98c0,0,1.22,1.965-0.658,2.61L97.817,156.647z"/>
							<path style="fill:#E4E4E4;" d="M94.926,156.862c0,0-1.528-0.412-1.184-1.98c0,0-1.221,1.965,0.658,2.611L94.926,156.862z"/>
						</g>
						<g>
							<path style="fill:#6D5D35;" d="M94.766,159.9v-2.423c0-0.95,0.771-1.721,1.721-1.721l0,0c0.951,0,1.721,0.771,1.721,1.721
								v2.423"/>
							<path style="fill:#6D5D35;" d="M98.514,156.548c0,0.438-0.355,0.793-0.792,0.793H95.29c-0.438,0-0.792-0.355-0.792-0.793l0,0
								c0-0.437,0.354-0.792,0.792-0.792h2.432C98.159,155.756,98.514,156.111,98.514,156.548L98.514,156.548z"/>
							<path style="fill:#6D5D35;" d="M99.348,158.366c0.157,0.25,0.082,0.58-0.168,0.738l0,0c-0.251,0.157-0.582,0.082-0.739-0.169
								l-0.759-1.21c-0.158-0.251-0.083-0.581,0.168-0.739l0,0c0.25-0.157,0.58-0.082,0.738,0.169L99.348,158.366z"/>
							<path style="fill:#6D5D35;" d="M93.175,158.832c-0.188,0.3-0.098,0.694,0.202,0.884l0,0c0.298,0.188,0.694,0.097,0.883-0.202
								l0.907-1.446c0.188-0.299,0.098-0.694-0.201-0.882l0,0c-0.3-0.188-0.694-0.099-0.883,0.201L93.175,158.832z"/>
						</g>
						<g>
							<path style="fill:#FF9BB1;" d="M98.207,160.061c0,0.633-0.552,1.147-1.233,1.147h-0.974c-0.683,0-1.235-0.513-1.235-1.147
								l0,0c0-0.634,0.552-1.147,1.235-1.147h0.974C97.655,158.913,98.207,159.426,98.207,160.061L98.207,160.061z"/>
							<g>
								<path style="fill:#C86980;" d="M96.171,160.566c0,0.055-0.044,0.1-0.1,0.1l0,0c-0.055,0-0.099-0.045-0.099-0.1v-0.182
									c0-0.055,0.044-0.1,0.099-0.1l0,0c0.056,0,0.1,0.045,0.1,0.1V160.566z"/>
								<path style="fill:#C86980;" d="M96.993,160.566c0,0.055-0.044,0.1-0.1,0.1l0,0c-0.054,0-0.1-0.045-0.1-0.1v-0.182
									c0-0.055,0.045-0.1,0.1-0.1l0,0c0.056,0,0.1,0.045,0.1,0.1V160.566z"/>
							</g>
						</g>
					</g>
				</g>
			</g>
			<g>
				<g>
					<path style="fill:#82CB38;" d="M144.155,186.685c32.71-26.474,85.204-65.652,128.077-65.652
						c42.869,0,119.095,45.535,128.074,65.652H144.155z"/>
				</g>
				<g>
					<g>
						<g>
							<path style="fill:#24BC7C;" d="M199.853,190.234c0,0,10.242-43.337-19.699-59.096
								c-29.942,15.759-19.698,59.096-19.698,59.096"/>
						</g>
						<g style="opacity:0.1;">
							<path style="fill:#0B0C0C;" d="M160.456,190.234c0,0-10.243-43.337,19.699-59.096v59.096"/>
						</g>
					</g>
					<polyline style="fill:#E89E6C;" points="177.336,186.685 182.798,177.064 193.069,174.12 201.348,171.52 209.868,177.064 
						212.456,190.234 					"/>
					<polyline style="fill:#B66B56;" points="168.233,186.492 171.202,178.896 178.215,173.19 192.056,173.19 197.885,177.745 
						199.656,188.564 					"/>
				</g>
				<g>
					<g>
						<rect x="349.444" y="146.608" style="fill:#B66B56;" width="0.808" height="4.492"/>
						<path style="fill:#24BC7C;" d="M353.035,139.458c0-1.76-1.427-3.187-3.187-3.187c-1.76,0-3.187,1.427-3.187,3.187v4.762
							c0,1.76,1.426,3.187,3.187,3.187c1.76,0,3.187-1.427,3.187-3.187V139.458z"/>
						<path style="opacity:0.1;fill:#0B0C0C;" d="M346.662,139.458v4.762c0,1.76,1.426,3.187,3.187,3.187v-11.136
							C348.088,136.271,346.662,137.698,346.662,139.458z"/>
					</g>
					<g>
						<g>
							<rect x="211.105" y="140.517" style="fill:#B66B56;" width="0.764" height="3.881"/>
							<g>
								<polygon style="fill:#24BC7C;" points="207.776,140.823 211.487,128.25 215.197,140.823 								"/>
								<polygon style="opacity:0.1;fill:#0B0C0C;" points="207.776,140.823 211.487,140.823 211.487,128.25 								"/>
							</g>
						</g>
						<g>
							<rect x="216.408" y="139.08" style="fill:#B66B56;" width="0.596" height="3.028"/>
							<g>
								<polygon style="fill:#24BC7C;" points="213.81,139.318 216.705,129.508 219.601,139.318 								"/>
								<polygon style="opacity:0.1;fill:#0B0C0C;" points="213.81,139.318 216.705,139.318 216.705,129.508 								"/>
							</g>
						</g>
					</g>
					<g>
						<g>
							<polygon style="fill:#C59E5D;" points="209.632,155.417 211.016,152.786 214.116,151.094 219.041,150.155 223.481,152.37 
								223.852,155.288 							"/>
						</g>
						<g>
							<polygon style="fill:#F9E0A4;" points="220.894,161.794 221.741,159.624 223.605,158.775 225.582,159.669 227.707,160.108 
								228.077,161.794 							"/>
						</g>
					</g>
					<g>
						<g>
							<g>
								<path style="fill:#24BC7C;" d="M343.485,163.204c0,0,1.513-3.885-2.91-5.297c-4.422,1.412-2.909,5.297-2.909,5.297"/>
							</g>
							<g style="opacity:0.1;">
								<path style="fill:#0B0C0C;" d="M337.666,163.204c0,0-1.513-3.885,2.91-5.297v5.297"/>
							</g>
						</g>
						<g>
							<g>
								<path style="fill:#24BC7C;" d="M317.869,149.898c0,0,1.513-3.884-2.91-5.296c-4.421,1.412-2.909,5.296-2.909,5.296"/>
							</g>
							<g style="opacity:0.1;">
								<path style="fill:#0B0C0C;" d="M312.05,149.898c0,0-1.512-3.884,2.91-5.296v5.296"/>
							</g>
						</g>
					</g>
					<g>
						<g>
							<path style="fill:none;stroke:#333333;stroke-width:0.2093;stroke-linecap:round;stroke-miterlimit:10;" d="M332.854,159.621
								c0,0,1.595-0.596,2.067,0.608c0.47,1.204-0.401,2.275,0.172,3.471"/>
							<g>
								<path style="fill:#E4E4E4;" d="M328.372,166.601c0,0.369,0.236,0.668,0.528,0.668l0,0c0.291,0,0.527-0.299,0.527-0.668
									v-3.012c0-0.369-0.236-0.667-0.527-0.667l0,0c-0.292,0-0.528,0.299-0.528,0.667V166.601z"/>
								<path style="fill:#E4E4E4;" d="M326,166.601c0,0.369,0.232,0.668,0.519,0.668l0,0c0.287,0,0.519-0.299,0.519-0.668v-3.012
									c0-0.369-0.232-0.667-0.519-0.667l0,0c-0.287,0-0.519,0.299-0.519,0.667V166.601z"/>
							</g>
							<g>
								<path style="fill:#FF9BB1;" d="M327.439,163.927c0,1.252,1.014,2.267,2.267,2.267l0,0c1.251,0,2.266-1.015,2.266-2.267l0,0
									c0-1.252-1.015-2.267-2.266-2.267l0,0C328.454,161.661,327.439,162.676,327.439,163.927L327.439,163.927z"/>
								<path style="fill:#FF9BB1;" d="M328.615,166.121c0,0.117,0.094,0.212,0.212,0.212l0,0c0.117,0,0.212-0.095,0.212-0.212
									v-0.34c0-0.117-0.095-0.211-0.212-0.211l0,0c-0.118,0-0.212,0.094-0.212,0.211V166.121z"/>
								<path style="fill:#FF9BB1;" d="M329.636,166.36c0,0.117,0.095,0.211,0.212,0.211l0,0c0.116,0,0.211-0.094,0.211-0.211v-0.34
									c0-0.116-0.095-0.212-0.211-0.212l0,0c-0.117,0-0.212,0.096-0.212,0.212V166.36z"/>
							</g>
							<g>
								<path style="fill:#FFFFFF;" d="M323.536,167.143c0,0.368,0.229,0.667,0.512,0.667l0,0c0.281,0,0.51-0.299,0.51-0.667v-3.013
									c0-0.368-0.229-0.667-0.51-0.667l0,0c-0.283,0-0.512,0.298-0.512,0.667V167.143z"/>
								<path style="fill:#FFFFFF;" d="M330.525,167.143c0,0.368,0.245,0.667,0.546,0.667l0,0c0.302,0,0.546-0.299,0.546-0.667
									v-3.013c0-0.368-0.245-0.667-0.546-0.667l0,0c-0.302,0-0.546,0.298-0.546,0.667V167.143z"/>
							</g>
							<g>
								<defs>
									<path id="XMLID_5_" d="M321.988,161.331c0,1.989,1.741,3.602,3.889,3.602h3.758c2.148,0,3.89-1.613,3.89-3.602l0,0
										c0-1.989-1.742-3.6-3.89-3.6h-3.758C323.729,157.731,321.988,159.342,321.988,161.331L321.988,161.331z"/>
								</defs>
								<use xlink:href="#XMLID_5_"  style="overflow:visible;fill:#FFFFFF;"/>
								<clipPath id="XMLID_16_">
									<use xlink:href="#XMLID_5_"  style="overflow:visible;"/>
								</clipPath>
								<g style="clip-path:url(#XMLID_16_);">
									<g id="XMLID_19_">
										<path style="fill:#6D5D35;" d="M330.632,157.637c0.244,0.747,0.779,1.604,0.292,2.351
											c-0.729,1.045-1.604,0.038-2.577,0.187c-0.681,0.111-0.777,0.448-1.507,0.187c-0.486-0.187-1.07-0.672-1.264-1.045
											c-0.292-0.597-0.195-2.089,0.972-2.053"/>
									</g>
									<g id="XMLID_17_">
										<path style="fill:#6D5D35;" d="M331.938,166.097c-0.754-0.141-1.694-0.137-2.236-0.757c-0.746-0.9,0.43-1.068,0.575-1.767
											c0.095-0.492-0.184-0.691,0.266-1.064c0.312-0.244,0.925-0.431,1.322-0.408c0.631,0.049,1.968,0.716,1.596,1.467"/>
									</g>
									<g>
										<path style="fill:#6D5D35;" d="M326.667,165.23c0.663-0.488,1.221-1.952,0.244-2.407c-0.836-0.383-0.88,0.469-1.333-0.542
											c-0.176-0.349-0.643-0.628-1.168-0.576c-0.777,0.077-0.965,0.45-1.475,1.468c-0.273,0.544,0.14,1.151,0.628,1.64"/>
									</g>
								</g>
							</g>
							<g>
								<g>
									<path style="fill:#E4E4E4;" d="M320.487,158.346c0,0-1.393-0.375-1.079-1.806c0,0-1.113,1.792,0.6,2.38L320.487,158.346z"
										/>
									<path style="fill:#E4E4E4;" d="M323.124,158.542c0,0,1.394-0.376,1.08-1.806c0,0,1.113,1.792-0.6,2.381L323.124,158.542z"
										/>
								</g>
								<g>
									<path style="fill:#6D5D35;" d="M323.27,161.312v-2.21c0-0.867-0.703-1.569-1.57-1.569l0,0
										c-0.867,0-1.569,0.703-1.569,1.569v2.21"/>
									<path style="fill:#6D5D35;" d="M319.852,158.255c0,0.399,0.324,0.723,0.722,0.723h2.218c0.399,0,0.722-0.324,0.722-0.723
										l0,0c0-0.398-0.323-0.722-0.722-0.722h-2.218C320.176,157.533,319.852,157.857,319.852,158.255L319.852,158.255z"/>
									<path style="fill:#6D5D35;" d="M319.091,159.913c-0.143,0.228-0.075,0.529,0.153,0.673l0,0
										c0.228,0.144,0.53,0.075,0.674-0.154l0.692-1.103c0.144-0.229,0.076-0.53-0.154-0.674l0,0
										c-0.228-0.143-0.529-0.074-0.673,0.155L319.091,159.913z"/>
									<path style="fill:#6D5D35;" d="M324.72,160.338c0.172,0.273,0.089,0.633-0.184,0.806l0,0
										c-0.272,0.171-0.633,0.088-0.805-0.185l-0.827-1.318c-0.172-0.273-0.089-0.633,0.184-0.805l0,0
										c0.273-0.172,0.633-0.09,0.805,0.183L324.72,160.338z"/>
								</g>
								<g>
									<path style="fill:#FF9BB1;" d="M320.131,161.458c0,0.578,0.504,1.045,1.125,1.045h0.888c0.622,0,1.126-0.468,1.126-1.045
										l0,0c0-0.578-0.504-1.046-1.126-1.046h-0.888C320.635,160.412,320.131,160.88,320.131,161.458L320.131,161.458z"/>
									<g>
										<path style="fill:#C86980;" d="M321.988,161.919c0,0.05,0.04,0.091,0.091,0.091l0,0c0.05,0,0.09-0.041,0.09-0.091v-0.166
											c0-0.05-0.04-0.091-0.09-0.091l0,0c-0.051,0-0.091,0.041-0.091,0.091V161.919z"/>
										<path style="fill:#C86980;" d="M321.239,161.919c0,0.05,0.04,0.091,0.091,0.091l0,0c0.049,0,0.091-0.041,0.091-0.091
											v-0.166c0-0.05-0.042-0.091-0.091-0.091l0,0c-0.051,0-0.091,0.041-0.091,0.091V161.919z"/>
									</g>
								</g>
							</g>
						</g>
						<g>
							<path style="fill:none;stroke:#333333;stroke-width:0.1822;stroke-linecap:round;stroke-miterlimit:10;" d="M329.814,148.567
								c0,0-1.389-0.518-1.8,0.529c-0.409,1.048,0.35,1.98-0.15,3.022"/>
							<g>
								<path style="fill:#E4E4E4;" d="M333.717,154.644c0,0.321-0.206,0.581-0.46,0.581l0,0c-0.253,0-0.459-0.261-0.459-0.581
									v-2.623c0-0.321,0.206-0.581,0.459-0.581l0,0c0.254,0,0.46,0.26,0.46,0.581V154.644z"/>
								<path style="fill:#E4E4E4;" d="M335.782,154.644c0,0.321-0.202,0.581-0.451,0.581l0,0c-0.25,0-0.452-0.261-0.452-0.581
									v-2.623c0-0.321,0.203-0.581,0.452-0.581l0,0c0.249,0,0.451,0.26,0.451,0.581V154.644z"/>
							</g>
							<g>
								<path style="fill:#FF9BB1;" d="M334.529,152.316c0,1.09-0.883,1.973-1.974,1.973l0,0c-1.089,0-1.973-0.883-1.973-1.973l0,0
									c0-1.09,0.883-1.974,1.973-1.974l0,0C333.645,150.342,334.529,151.226,334.529,152.316L334.529,152.316z"/>
								<path style="fill:#FF9BB1;" d="M333.505,154.226c0,0.102-0.082,0.185-0.185,0.185l0,0c-0.102,0-0.184-0.083-0.184-0.185
									v-0.296c0-0.102,0.083-0.184,0.184-0.184l0,0c0.103,0,0.185,0.082,0.185,0.184V154.226z"/>
								<path style="fill:#FF9BB1;" d="M332.617,154.434c0,0.102-0.083,0.184-0.185,0.184l0,0c-0.101,0-0.184-0.081-0.184-0.184
									v-0.296c0-0.101,0.083-0.184,0.184-0.184l0,0c0.102,0,0.185,0.083,0.185,0.184V154.434z"/>
							</g>
							<g>
								<path style="fill:#FFFFFF;" d="M337.927,155.116c0,0.32-0.199,0.581-0.445,0.581l0,0c-0.245,0-0.444-0.261-0.444-0.581
									v-2.623c0-0.32,0.2-0.58,0.444-0.58l0,0c0.246,0,0.445,0.26,0.445,0.58V155.116z"/>
								<path style="fill:#FFFFFF;" d="M331.842,155.116c0,0.32-0.213,0.581-0.476,0.581l0,0c-0.263,0-0.476-0.261-0.476-0.581
									v-2.623c0-0.32,0.213-0.58,0.476-0.58l0,0c0.263,0,0.476,0.26,0.476,0.58V155.116z"/>
							</g>
							<g>
								<defs>
									<path id="XMLID_4_" d="M339.274,150.056c0,1.732-1.516,3.136-3.386,3.136h-3.272c-1.87,0-3.387-1.404-3.387-3.136l0,0
										c0-1.731,1.517-3.135,3.387-3.135h3.272C337.759,146.921,339.274,148.324,339.274,150.056L339.274,150.056z"/>
								</defs>
								<use xlink:href="#XMLID_4_"  style="overflow:visible;fill:#FFFFFF;"/>
								<clipPath id="XMLID_18_">
									<use xlink:href="#XMLID_4_"  style="overflow:visible;"/>
								</clipPath>
								<g style="clip-path:url(#XMLID_18_);">
									<g id="XMLID_15_">
										<path style="fill:#6D5D35;" d="M331.749,146.839c-0.212,0.65-0.678,1.396-0.254,2.047c0.635,0.91,1.396,0.033,2.243,0.163
											c0.593,0.097,0.677,0.39,1.312,0.163c0.423-0.163,0.932-0.585,1.101-0.91c0.254-0.52,0.17-1.818-0.846-1.787"/>
									</g>
									<g id="XMLID_7_">
										<path style="fill:#6D5D35;" d="M330.612,154.205c0.657-0.123,1.476-0.12,1.947-0.659c0.649-0.784-0.374-0.93-0.501-1.538
											c-0.083-0.429,0.161-0.602-0.231-0.927c-0.272-0.212-0.805-0.376-1.151-0.355c-0.549,0.043-1.713,0.624-1.39,1.277"/>
									</g>
									<g>
										<path style="fill:#6D5D35;" d="M335.201,153.45c-0.577-0.425-1.063-1.7-0.212-2.096c0.728-0.333,0.767,0.408,1.161-0.473
											c0.153-0.304,0.559-0.546,1.017-0.501c0.677,0.067,0.84,0.392,1.285,1.278c0.238,0.474-0.122,1.002-0.546,1.428"/>
									</g>
								</g>
							</g>
							<g>
								<g>
									<path style="fill:#E4E4E4;" d="M340.582,147.457c0,0,1.213-0.327,0.939-1.572c0,0,0.969,1.56-0.522,2.072L340.582,147.457z
										"/>
									<path style="fill:#E4E4E4;" d="M338.286,147.628c0,0-1.213-0.328-0.94-1.573c0,0-0.969,1.56,0.522,2.073L338.286,147.628z"
										/>
								</g>
								<g>
									<path style="fill:#6D5D35;" d="M338.159,150.039v-1.924c0-0.754,0.612-1.366,1.367-1.366l0,0
										c0.755,0,1.366,0.612,1.366,1.366v1.924"/>
									<path style="fill:#6D5D35;" d="M341.135,147.378c0,0.348-0.282,0.629-0.629,0.629h-1.931c-0.347,0-0.628-0.282-0.628-0.629
										l0,0c0-0.347,0.281-0.629,0.628-0.629h1.931C340.852,146.749,341.135,147.031,341.135,147.378L341.135,147.378z"/>
									<path style="fill:#6D5D35;" d="M341.797,148.82c0.125,0.199,0.065,0.461-0.134,0.586l0,0
										c-0.199,0.125-0.461,0.065-0.587-0.134l-0.603-0.96c-0.125-0.2-0.065-0.461,0.134-0.586l0,0
										c0.198-0.125,0.461-0.065,0.586,0.135L341.797,148.82z"/>
									<path style="fill:#6D5D35;" d="M336.896,149.191c-0.149,0.238-0.078,0.551,0.16,0.702l0,0
										c0.237,0.149,0.552,0.077,0.701-0.161l0.72-1.148c0.15-0.237,0.078-0.551-0.16-0.7l0,0
										c-0.238-0.15-0.551-0.079-0.701,0.159L336.896,149.191z"/>
								</g>
								<g>
									<path style="fill:#FF9BB1;" d="M340.891,150.166c0,0.503-0.438,0.91-0.979,0.91h-0.772c-0.542,0-0.981-0.407-0.981-0.91
										l0,0c0-0.504,0.439-0.911,0.981-0.911h0.772C340.453,149.255,340.891,149.663,340.891,150.166L340.891,150.166z"/>
									<g>
										<path style="fill:#C86980;" d="M339.274,150.568c0,0.044-0.035,0.08-0.079,0.08l0,0c-0.043,0-0.078-0.036-0.078-0.08
											v-0.145c0-0.044,0.035-0.079,0.078-0.079l0,0c0.044,0,0.079,0.036,0.079,0.079V150.568z"/>
										<path style="fill:#C86980;" d="M339.927,150.568c0,0.044-0.035,0.08-0.079,0.08l0,0c-0.043,0-0.079-0.036-0.079-0.08
											v-0.145c0-0.044,0.036-0.079,0.079-0.079l0,0c0.044,0,0.079,0.036,0.079,0.079V150.568z"/>
									</g>
								</g>
							</g>
						</g>
					</g>
				</g>
				<g>
					<polygon style="fill:#4A5760;" points="273.672,87.26 286.934,99.469 300.193,111.677 273.672,111.677 247.153,111.677 
						260.41,99.469 					"/>
					<g>
						<rect x="251.408" y="111.677" style="fill:#F8F8F8;" width="44.529" height="63.203"/>
						<rect x="251.408" y="111.677" style="opacity:0.1;fill:#4A5760;" width="44.529" height="6.414"/>
					</g>
					<g>
						<g>
							
								<circle style="fill:#4A5760;stroke:#FF8D6A;stroke-width:2.1546;stroke-miterlimit:10;" cx="273.672" cy="133.079" r="5.386"/>
						</g>
						<g>
							<rect x="267.208" y="152.977" style="fill:#4A5760;" width="12.926" height="21.904"/>
							<rect x="267.208" y="152.977" style="fill:#344249;" width="2.332" height="21.904"/>
						</g>
					</g>
					<g>
						<g>
							<g>
								<g>
									
										<rect x="210.631" y="99.972" transform="matrix(0.7091 0.7051 -0.7051 0.7091 150.4656 -163.6948)" style="fill:#B66B56;" width="125.985" height="1.077"/>
								</g>
								<g>
									
										<rect x="273.148" y="37.146" transform="matrix(0.698 0.7161 -0.7161 0.698 153.9607 -165.9295)" style="fill:#B66B56;" width="1.077" height="124.814"/>
								</g>
							</g>
							<g>
								<g>
									<g>
										<path style="fill:#E89E6C;" d="M290.319,94.07l-10.004-10.004l33.508-33.511l10.004,10.008L290.319,94.07z
											 M282.083,84.066l8.236,8.236l31.74-31.739l-8.236-8.241L282.083,84.066z"/>
									</g>
									<g>
										
											<rect x="308.51" y="58.802" transform="matrix(0.707 0.7073 -0.7073 0.707 134.3272 -205.3432)" style="fill:#E89E6C;" width="12.9" height="1.25"/>
									</g>
									<g>
										
											<rect x="305.263" y="62.046" transform="matrix(0.7071 0.7071 -0.7071 0.7071 135.6272 -202.0673)" style="fill:#E89E6C;" width="12.901" height="1.25"/>
									</g>
									<g>
										
											<rect x="302.022" y="65.289" transform="matrix(0.7072 0.707 -0.707 0.7072 136.9095 -198.7851)" style="fill:#E89E6C;" width="12.899" height="1.25"/>
									</g>
									<g>
										
											<rect x="298.775" y="68.534" transform="matrix(0.7072 0.707 -0.707 0.7072 138.2588 -195.5443)" style="fill:#E89E6C;" width="12.901" height="1.25"/>
									</g>
									<g>
										
											<rect x="295.531" y="71.778" transform="matrix(0.7071 0.7071 -0.7071 0.7071 139.6588 -192.3349)" style="fill:#E89E6C;" width="12.898" height="1.25"/>
									</g>
									<g>
										
											<rect x="292.287" y="75.021" transform="matrix(0.7071 0.7071 -0.7071 0.7071 141.002 -189.0917)" style="fill:#E89E6C;" width="12.9" height="1.25"/>
									</g>
									<g>
										
											<rect x="289.044" y="78.267" transform="matrix(0.7072 0.707 -0.707 0.7072 142.2892 -185.8126)" style="fill:#E89E6C;" width="12.898" height="1.25"/>
									</g>
									<g>
										
											<rect x="285.795" y="81.514" transform="matrix(0.7071 0.7071 -0.7071 0.7071 143.6634 -182.5835)" style="fill:#E89E6C;" width="12.904" height="1.25"/>
									</g>
									<g>
										
											<rect x="282.556" y="84.756" transform="matrix(0.7072 0.707 -0.707 0.7072 144.9721 -179.3233)" style="fill:#E89E6C;" width="12.899" height="1.25"/>
									</g>
									<g>
										<path style="fill:none;stroke:#E89E6C;stroke-width:1.2497;stroke-miterlimit:10;" d="M285.761,88.629"/>
									</g>
									<g>
										<path style="fill:none;stroke:#E89E6C;stroke-width:1.2497;stroke-miterlimit:10;" d="M318.384,56.001"/>
									</g>
								</g>
								<g>
									<g>
										<path style="fill:#E89E6C;" d="M313.729,150.367l-33.506-33.506l10.004-10.007l33.511,33.511L313.729,150.367z
											 M281.991,116.861l31.738,31.74l8.241-8.236l-31.743-31.743L281.991,116.861z"/>
									</g>
									<g>
										
											<rect x="314.241" y="135.05" transform="matrix(0.7071 0.7071 -0.7071 0.7071 192.2787 -181.1993)" style="fill:#E89E6C;" width="1.25" height="12.902"/>
									</g>
									<g>
										
											<rect x="310.997" y="131.804" transform="matrix(0.7071 0.7071 -0.7071 0.7071 189.032 -179.8562)" style="fill:#E89E6C;" width="1.25" height="12.9"/>
									</g>
									<g>
										
											<rect x="307.754" y="128.562" transform="matrix(0.7071 0.7071 -0.7071 0.7071 185.7896 -178.5131)" style="fill:#E89E6C;" width="1.25" height="12.9"/>
									</g>
									<g>
										
											<rect x="304.51" y="125.318" transform="matrix(0.7071 0.7071 -0.7071 0.7071 182.5454 -177.1692)" style="fill:#E89E6C;" width="1.25" height="12.898"/>
									</g>
									<g>
										
											<rect x="301.264" y="122.071" transform="matrix(0.7071 0.7071 -0.7071 0.7071 179.2812 -175.8186)" style="fill:#E89E6C;" width="1.25" height="12.897"/>
									</g>
									<g>
										
											<rect x="298.023" y="118.826" transform="matrix(0.7071 0.7071 -0.7071 0.7071 176.0579 -174.4835)" style="fill:#E89E6C;" width="1.25" height="12.903"/>
									</g>
									<g>
										
											<rect x="294.777" y="115.583" transform="matrix(0.7071 0.7071 -0.7071 0.7071 172.8117 -173.1378)" style="fill:#E89E6C;" width="1.25" height="12.9"/>
									</g>
									<g>
										
											<rect x="291.53" y="112.337" transform="matrix(0.7071 0.7071 -0.7071 0.7071 169.5824 -171.7991)" style="fill:#E89E6C;" width="1.25" height="12.902"/>
									</g>
									<g>
										
											<rect x="288.287" y="109.098" transform="matrix(0.7071 0.7071 -0.7071 0.7071 166.34 -170.4557)" style="fill:#E89E6C;" width="1.25" height="12.897"/>
									</g>
									<g>
										<path style="fill:none;stroke:#E89E6C;stroke-width:1.2497;stroke-miterlimit:10;" d="M285.666,112.299"/>
									</g>
									<g>
										<path style="fill:none;stroke:#E89E6C;stroke-width:1.2497;stroke-miterlimit:10;" d="M318.292,144.926"/>
									</g>
								</g>
								<g>
									<g>
										<path style="fill:#E89E6C;" d="M233.609,148.962l-10.007-10.004l33.51-33.51l10.004,10.006L233.609,148.962z
											 M225.37,138.958l8.239,8.236l31.739-31.739l-8.236-8.239L225.37,138.958z"/>
									</g>
									<g>
										
											<rect x="226.021" y="139.471" transform="matrix(0.7071 0.7071 -0.7071 0.7071 167.1667 -123.3537)" style="fill:#E89E6C;" width="12.903" height="1.25"/>
									</g>
									<g>
										
											<rect x="229.269" y="136.224" transform="matrix(0.7073 0.707 -0.707 0.7073 165.7504 -126.5809)" style="fill:#E89E6C;" width="12.899" height="1.25"/>
									</g>
									<g>
										
											<rect x="232.511" y="132.981" transform="matrix(0.7069 0.7073 -0.7073 0.7069 164.5345 -129.8583)" style="fill:#E89E6C;" width="12.9" height="1.25"/>
									</g>
									<g>
										
											<rect x="235.755" y="129.736" transform="matrix(0.7069 0.7073 -0.7073 0.7069 163.1827 -133.1021)" style="fill:#E89E6C;" width="12.901" height="1.25"/>
									</g>
									<g>
										
											<rect x="239" y="126.49" transform="matrix(0.7071 0.7071 -0.7071 0.7071 161.7814 -136.3297)" style="fill:#E89E6C;" width="12.898" height="1.25"/>
									</g>
									<g>
										
											<rect x="242.24" y="123.247" transform="matrix(0.7071 0.7071 -0.7071 0.7071 160.4236 -139.5672)" style="fill:#E89E6C;" width="12.902" height="1.25"/>
									</g>
									<g>
										
											<rect x="245.489" y="120.003" transform="matrix(0.7069 0.7073 -0.7073 0.7069 159.1642 -142.8436)" style="fill:#E89E6C;" width="12.9" height="1.25"/>
									</g>
									<g>
										
											<rect x="248.733" y="116.758" transform="matrix(0.707 0.7072 -0.7072 0.707 157.7717 -146.0726)" style="fill:#E89E6C;" width="12.903" height="1.25"/>
									</g>
									<g>
										
											<rect x="251.979" y="113.515" transform="matrix(0.707 0.7072 -0.7072 0.707 156.4227 -149.3131)" style="fill:#E89E6C;" width="12.896" height="1.25"/>
									</g>
									<g>
										<path style="fill:none;stroke:#E89E6C;stroke-width:1.2497;stroke-miterlimit:10;" d="M261.674,110.894"/>
									</g>
									<g>
										<path style="fill:none;stroke:#E89E6C;stroke-width:1.2497;stroke-miterlimit:10;" d="M229.047,143.52"/>
									</g>
								</g>
								<g>
									<g>
										<path style="fill:#E89E6C;" d="M257.02,94.162l-33.509-33.506l10.005-10.007l33.509,33.51L257.02,94.162z M225.279,60.655
											l31.741,31.739l8.238-8.235l-31.741-31.743L225.279,60.655z"/>
									</g>
									<g>
										
											<rect x="231.754" y="53.069" transform="matrix(0.7071 0.7071 -0.7071 0.7071 110.1612 -146.8915)" style="fill:#E89E6C;" width="1.25" height="12.902"/>
									</g>
									<g>
										
											<rect x="235.001" y="56.314" transform="matrix(0.7071 0.7071 -0.7071 0.7071 113.3948 -148.23)" style="fill:#E89E6C;" width="1.25" height="12.901"/>
									</g>
									<g>
										
											<rect x="238.244" y="59.557" transform="matrix(0.7071 0.7071 -0.7071 0.7071 116.6358 -149.5727)" style="fill:#E89E6C;" width="1.25" height="12.898"/>
									</g>
									<g>
										
											<rect x="241.489" y="62.8" transform="matrix(0.7071 0.7071 -0.7071 0.7071 119.8814 -150.9171)" style="fill:#E89E6C;" width="1.25" height="12.901"/>
									</g>
									<g>
										
											<rect x="244.734" y="66.047" transform="matrix(0.7071 0.7071 -0.7071 0.7071 123.1258 -152.2616)" style="fill:#E89E6C;" width="1.25" height="12.896"/>
									</g>
									<g>
										
											<rect x="247.978" y="69.288" transform="matrix(0.7071 0.7071 -0.7071 0.7071 126.3559 -153.5985)" style="fill:#E89E6C;" width="1.25" height="12.901"/>
									</g>
									<g>
										
											<rect x="251.222" y="72.535" transform="matrix(0.7071 0.7071 -0.7071 0.7071 129.6149 -154.9482)" style="fill:#E89E6C;" width="1.25" height="12.899"/>
									</g>
									<g>
										
											<rect x="254.467" y="75.779" transform="matrix(0.7071 0.7071 -0.7071 0.7071 132.8609 -156.2922)" style="fill:#E89E6C;" width="1.25" height="12.904"/>
									</g>
									<g>
										
											<rect x="257.709" y="79.025" transform="matrix(0.7071 0.7071 -0.7071 0.7071 136.1034 -157.6352)" style="fill:#E89E6C;" width="1.25" height="12.897"/>
									</g>
									<g>
										<path style="fill:none;stroke:#E89E6C;stroke-width:1.2497;stroke-miterlimit:10;" d="M261.58,88.721"/>
									</g>
									<g>
										<path style="fill:none;stroke:#E89E6C;stroke-width:1.2497;stroke-miterlimit:10;" d="M228.956,56.094"/>
									</g>
								</g>
							</g>
						</g>
						<circle style="fill:#FF7129;" cx="273.158" cy="100.415" r="3.005"/>
					</g>
				</g>
				<g>
					<polyline style="fill:#AE8649;" points="296.634,187.842 300.315,181.355 307.239,179.371 312.82,177.619 318.564,181.355 
						320.308,190.234 					"/>
					<polyline style="fill:#AE8649;" points="222.47,186.179 226.152,179.692 233.076,177.708 238.657,175.956 244.401,179.692 
						246.145,188.571 					"/>
					<polyline style="fill:#B66B56;" points="231.091,191.254 236.446,178.013 246.049,170.198 265.006,170.198 272.989,176.436 
						275.414,191.254 					"/>
					<polyline style="fill:#C59E5D;" points="261.874,186.796 269.303,173.71 283.274,169.704 294.537,166.167 306.128,173.71 
						309.647,191.624 					"/>
				</g>
			</g>
			<g>
				<g>
					<g>
						<path style="fill:#24BC7C;" d="M421.145,192.298c0,0,7.201-30.475-13.852-41.555c-21.055,11.081-13.853,41.555-13.853,41.555"
							/>
					</g>
					<g style="opacity:0.1;">
						<path style="fill:#0B0C0C;" d="M393.44,192.298c0,0-7.202-30.475,13.853-41.555v41.555"/>
					</g>
				</g>
				<g>
					<g>
						<path style="fill:#24BC7C;" d="M397.713,190.234c0,0,10.242-43.337-19.699-59.096c-29.942,15.759-19.699,59.096-19.699,59.096
							"/>
					</g>
					<g style="opacity:0.1;">
						<path style="fill:#0B0C0C;" d="M358.316,190.234c0,0-10.243-43.337,19.698-59.096v59.096"/>
					</g>
				</g>
				<polyline style="fill:#C59E5D;" points="335.596,186.685 341.057,177.064 351.328,174.12 359.608,171.52 368.128,177.064 
					370.716,190.234 				"/>
				<polyline style="fill:#AE8649;" points="408.171,187.21 412.823,179.016 421.573,176.508 428.625,174.293 435.884,179.016 
					438.089,190.234 				"/>
			</g>
		</g>
		<g>
			<path style="fill:none;" d="M301.272,180.726c-0.513-1.116-0.806-2.353-0.806-3.662c0,1.309-0.293,2.545-0.806,3.662H301.272z"/>
			<path style="fill:none;" d="M283.592,180.726c-0.513-1.116-0.806-2.353-0.806-3.662c0,1.309-0.293,2.545-0.806,3.662H283.592z"/>
			<path style="fill:none;" d="M265.911,180.726c-0.512-1.116-0.806-2.353-0.806-3.662c0,1.309-0.294,2.545-0.806,3.662H265.911z"/>
			<path style="fill:none;" d="M318.953,180.726c-0.512-1.116-0.806-2.353-0.806-3.662c0,1.309-0.294,2.545-0.806,3.662H318.953z"/>
			<path style="fill:none;" d="M248.23,180.726c-0.513-1.116-0.806-2.353-0.806-3.662c0,1.309-0.294,2.545-0.806,3.662H248.23z"/>
			<path style="fill:none;" d="M212.87,180.726c-0.513-1.116-0.805-2.353-0.805-3.662c0,1.309-0.294,2.545-0.806,3.662H212.87z"/>
			<path style="fill:none;" d="M336.633,180.726c-0.512-1.116-0.806-2.353-0.806-3.662c0,1.309-0.293,2.545-0.806,3.662H336.633z"/>
			<path style="fill:none;" d="M195.189,180.726c-0.512-1.116-0.806-2.353-0.806-3.662c0,1.309-0.293,2.545-0.805,3.662H195.189z"/>
			<path style="fill:none;" d="M230.551,180.726c-0.513-1.116-0.806-2.353-0.806-3.662c0,1.309-0.293,2.545-0.806,3.662H230.551z"/>
			<path style="fill:none;" d="M460.397,180.726c-0.513-1.116-0.807-2.353-0.807-3.662c0,1.309-0.293,2.545-0.805,3.662H460.397z"/>
			<path style="fill:none;" d="M177.508,180.726c-0.513-1.116-0.806-2.353-0.806-3.662c0,1.309-0.293,2.545-0.806,3.662H177.508z"/>
			<path style="fill:none;" d="M478.078,180.726c-0.514-1.116-0.807-2.353-0.807-3.662c0,1.309-0.293,2.545-0.805,3.662H478.078z"/>
			<path style="fill:none;" d="M442.717,180.726c-0.513-1.116-0.806-2.353-0.806-3.662c0,1.309-0.294,2.545-0.806,3.662H442.717z"/>
			<path style="fill:none;" d="M354.313,180.726c-0.512-1.116-0.806-2.353-0.806-3.662c0,1.309-0.293,2.545-0.805,3.662H354.313z"/>
			<path style="fill:none;" d="M389.674,180.726c-0.513-1.116-0.806-2.353-0.806-3.662c0,1.309-0.293,2.545-0.805,3.662H389.674z"/>
			<path style="fill:none;" d="M371.994,180.726c-0.513-1.116-0.806-2.353-0.806-3.662c0,1.309-0.293,2.545-0.806,3.662H371.994z"/>
			<path style="fill:none;" d="M407.355,180.726c-0.513-1.116-0.807-2.353-0.807-3.662c0,1.309-0.292,2.545-0.805,3.662H407.355z"/>
			<path style="fill:none;" d="M425.036,180.726c-0.513-1.116-0.807-2.353-0.807-3.662c0,1.309-0.293,2.545-0.806,3.662H425.036z"/>
			<path style="fill:none;" d="M71.426,180.726c-0.513-1.116-0.806-2.353-0.806-3.662c0,1.309-0.294,2.545-0.806,3.662H71.426z"/>
			<path style="fill:none;" d="M106.787,180.726c-0.513-1.116-0.805-2.353-0.805-3.662c0,1.309-0.294,2.545-0.806,3.662H106.787z"/>
			<path style="fill:none;" d="M53.745,180.726c-0.513-1.116-0.806-2.353-0.806-3.662c0,1.309-0.293,2.545-0.805,3.662H53.745z"/>
			<path style="fill:none;" d="M89.107,180.726c-0.513-1.116-0.806-2.353-0.806-3.662c0,1.309-0.294,2.545-0.806,3.662H89.107z"/>
			<path style="fill:none;" d="M36.064,180.726c-0.512-1.116-0.805-2.353-0.805-3.662c0,1.309-0.294,2.545-0.806,3.662H36.064z"/>
			<path style="fill:none;" d="M18.385,180.726c-0.513-1.116-0.806-2.353-0.806-3.662c0,1.309-0.293,2.545-0.806,3.662H18.385z"/>
			<path style="fill:none;" d="M124.468,180.726c-0.514-1.116-0.807-2.353-0.807-3.662c0,1.309-0.293,2.545-0.805,3.662H124.468z"/>
			<path style="fill:none;" d="M159.829,180.726c-0.513-1.116-0.806-2.353-0.806-3.662c0,1.309-0.292,2.545-0.806,3.662H159.829z"/>
			<path style="fill:none;" d="M142.148,180.726c-0.513-1.116-0.806-2.353-0.806-3.662c0,1.309-0.294,2.545-0.806,3.662H142.148z"/>
			<path style="fill:#0EA8C2;" d="M486.115,185.881c-3.568,0-6.637-2.115-8.029-5.155h-1.61c-1.396,3.04-4.462,5.155-8.031,5.155
				c-3.569,0-6.637-2.115-8.031-5.155h-1.61c-1.393,3.04-4.464,5.155-8.033,5.155c-3.568,0-6.635-2.115-8.029-5.155h-1.61
				c-1.395,3.04-4.461,5.155-8.031,5.155c-3.568,0-6.636-2.115-8.03-5.155h-1.611c-1.394,3.04-4.461,5.155-8.031,5.155
				c-3.568,0-6.636-2.115-8.029-5.155h-1.611c-1.395,3.04-4.463,5.155-8.031,5.155c-3.569,0-6.636-2.115-8.032-5.155h-1.609
				c-1.396,3.04-4.462,5.155-8.032,5.155c-3.568,0-6.636-2.115-8.03-5.155h-1.611c-1.395,3.04-4.462,5.155-8.03,5.155
				c-3.569,0-6.636-2.115-8.031-5.155h-1.61c-1.396,3.04-4.463,5.155-8.032,5.155c-3.568,0-6.636-2.115-8.03-5.155h-1.611
				c-1.394,3.04-4.462,5.155-8.03,5.155c-3.57,0-6.637-2.115-8.032-5.155h-1.61c-1.395,3.04-4.462,5.155-8.031,5.155
				c-3.569,0-6.636-2.115-8.031-5.155h-1.611c-1.395,3.04-4.461,5.155-8.032,5.155c-3.568,0-6.635-2.115-8.03-5.155h-1.61
				c-1.396,3.04-4.462,5.155-8.031,5.155c-3.569,0-6.637-2.115-8.031-5.155h-1.61c-1.396,3.04-4.462,5.155-8.031,5.155
				c-3.569,0-6.637-2.115-8.031-5.155h-1.611c-1.395,3.04-4.462,5.155-8.03,5.155c-3.569,0-6.636-2.115-8.031-5.155h-1.611
				c-1.395,3.04-4.462,5.155-8.031,5.155c-3.568,0-6.636-2.115-8.031-5.155h-1.61c-1.394,3.04-4.462,5.155-8.031,5.155
				c-3.569,0-6.637-2.115-8.031-5.155h-1.61c-1.395,3.04-4.463,5.155-8.031,5.155c-3.569,0-6.637-2.115-8.031-5.155h-1.611
				c-1.395,3.04-4.461,5.155-8.03,5.155c-3.569,0-6.636-2.115-8.03-5.155h-1.611c-1.395,3.04-4.462,5.155-8.031,5.155
				c-3.569,0-6.637-2.115-8.031-5.155H140.7c-1.395,3.04-4.462,5.155-8.031,5.155c-3.57,0-6.637-2.115-8.03-5.155h-1.611
				c-1.396,3.04-4.463,5.155-8.03,5.155c-3.57,0-6.637-2.115-8.032-5.155h-1.61c-1.395,3.04-4.462,5.155-8.032,5.155
				c-3.568,0-6.635-2.115-8.03-5.155h-1.611c-1.395,3.04-4.461,5.155-8.031,5.155c-3.569,0-6.636-2.115-8.03-5.155h-1.611
				c-1.395,3.04-4.462,5.155-8.031,5.155c-3.569,0-6.637-2.115-8.031-5.155h-1.61c-1.396,3.04-4.462,5.155-8.031,5.155
				c-3.57,0-6.637-2.115-8.032-5.155h-1.61c-1.395,3.04-4.462,5.155-8.031,5.155c-3.569,0-6.636-2.115-8.031-5.155h-1.611
				c-1.395,3.04-4.462,5.155-8.031,5.155c-3.569,0-6.636-2.115-8.031-5.155H0v26.069h494.839h0.113v-26.069h-0.807
				C492.751,183.766,489.684,185.881,486.115,185.881z"/>
			<polygon style="fill:#3ECACA;" points="0,206.795 0,218.312 494.839,218.312 494.839,206.795 1.19,206.795 			"/>
		</g>
	</g>
</g>
</svg>
