<?xml version="1.0" encoding="utf-8"?>
<!-- Generator: Adobe Illustrator 17.0.0, SVG Export Plug-In . SVG Version: 6.00 Build 0)  -->
<!DOCTYPE svg PUBLIC "-//W3C//DTD SVG 1.1//EN" "http://www.w3.org/Graphics/SVG/1.1/DTD/svg11.dtd">
<svg version="1.1" xmlns="http://www.w3.org/2000/svg" xmlns:xlink="http://www.w3.org/1999/xlink" x="0px" y="0px" width="107px"
	 height="217.534px" viewBox="0 0 107 217.534" enable-background="new 0 0 107 217.534" xml:space="preserve">
<g id="background">
</g>
<g id="objects">
	<path fill="#C6CC38" d="M55.508,0c0,0-54.17,100.715-55.46,137.12c-1.29,36.402,23.389,62.307,84.633,42.47
		C148.371,158.961,55.508,0,55.508,0"/>
	<path fill="#9EB121" d="M77.701,34.916c0,0-64.956,74.697-73.164,104.869c-8.206,30.169,7.324,56.074,62.343,50.132
		C124.097,183.735,77.701,34.916,77.701,34.916"/>
	<polygon fill="#432416" points="74.68,147.034 55.118,160.176 55.118,130.38 61.392,125.622 75.712,131.135 76.911,128.024 
		64.517,123.252 74.386,115.764 72.372,113.106 55.118,126.194 55.118,92.615 50.464,92.615 50.464,108.961 39.886,100.668 
		37.826,103.293 50.464,113.198 50.464,146.534 40.285,141.176 38.795,126.355 35.475,126.69 36.746,139.315 25.978,133.65 
		24.425,136.602 50.464,150.302 50.464,174.316 33.105,165.183 31.553,168.136 50.464,178.086 50.464,217.534 55.118,217.534 
		55.118,164.195 76.54,149.801 	"/>
</g>
</svg>
