<?xml version="1.0" encoding="utf-8"?>
<!-- Generator: Adobe Illustrator 17.0.0, SVG Export Plug-In . SVG Version: 6.00 Build 0)  -->
<!DOCTYPE svg PUBLIC "-//W3C//DTD SVG 1.1//EN" "http://www.w3.org/Graphics/SVG/1.1/DTD/svg11.dtd">
<svg version="1.1" id="objects" xmlns="http://www.w3.org/2000/svg" xmlns:xlink="http://www.w3.org/1999/xlink" x="0px" y="0px"
	 width="93.579px" height="119.015px" viewBox="0 0 93.579 119.015" enable-background="new 0 0 93.579 119.015"
	 xml:space="preserve">
<path fill="#ED9F21" d="M46.789,27.108H31.711L34.335,0h12.454V27.108z"/>
<path fill="#FFC355" d="M61.868,27.108H46.789V0h12.454L61.868,27.108z"/>
<path fill="#ED4321" d="M46.79,25.435c25.841,0,46.79,20.949,46.79,46.79s-20.949,46.79-46.79,46.79S0,98.066,0,72.225
	S20.949,25.435,46.79,25.435z"/>
<path fill="#FF7955" d="M46.789,25.436v93.579c25.842,0,46.79-20.948,46.79-46.79C93.579,46.384,72.631,25.436,46.789,25.436z"/>
<path fill="#FFFFFF" d="M78.128,69.203H54.082l17.004-17.001c1.178-1.181,1.178-3.093,0-4.272c-1.18-1.18-3.094-1.18-4.272,0
	L49.81,64.932V40.887c0-1.668-1.352-3.021-3.021-3.021c-1.668,0-3.021,1.353-3.021,3.021v24.045L26.767,47.93
	c-1.181-1.18-3.093-1.18-4.273,0s-1.18,3.092,0,4.272l17.002,17.001H15.451c-1.668,0-3.021,1.353-3.021,3.022
	c0,1.668,1.353,3.02,3.021,3.02h24.045L22.494,92.248c-1.18,1.181-1.18,3.094,0,4.273c1.18,1.178,3.092,1.178,4.273,0l17.002-17.004
	v24.046c0,1.668,1.353,3.021,3.021,3.021c1.669,0,3.021-1.353,3.021-3.021V79.518l17.002,17.003c1.18,1.18,3.093,1.179,4.272,0
	s1.179-3.092,0-4.272L54.082,75.245h24.046c1.669,0,3.021-1.353,3.021-3.02C81.148,70.556,79.797,69.203,78.128,69.203z"/>
</svg>
