<?xml version="1.0" encoding="iso-8859-1"?>
<!-- Generator: Adobe Illustrator 15.1.0, SVG Export Plug-In . SVG Version: 6.00 Build 0)  -->
<!DOCTYPE svg PUBLIC "-//W3C//DTD SVG 1.1//EN" "http://www.w3.org/Graphics/SVG/1.1/DTD/svg11.dtd">
<svg version="1.1" id="Layer_1" xmlns="http://www.w3.org/2000/svg" xmlns:xlink="http://www.w3.org/1999/xlink" x="0px" y="0px"
	 width="128px" height="128px" viewBox="0 0 128 128" style="enable-background:new 0 0 128 128;" xml:space="preserve">
<g>
	<circle style="fill:#88C5CC;" cx="64" cy="64" r="64"/>
	<g>
		<g>
			<defs>
				<circle id="SVGID_1_" cx="64" cy="64" r="64"/>
			</defs>
			<clipPath id="SVGID_2_">
				<use xlink:href="#SVGID_1_"  style="overflow:visible;"/>
			</clipPath>
			<g style="clip-path:url(#SVGID_2_);">
				<path style="fill:#CC584C;" d="M110.877,116c-4.578-23-38.912-20-46.924-20c-8.012,0-42.346-3-46.924,20
					c-4.578,23,18.313,31,18.313,31h28.611h28.611C92.564,147,115.455,139,110.877,116z"/>
				<path style="fill:#406A80;" d="M87,116c-2.268-23-18.941-16-22.909-16C60.124,100,43,93,41,116v34h46V116z"/>
				<ellipse style="fill:#F5F5F5;" cx="63.953" cy="96.5" rx="14" ry="5.5"/>
				<path style="fill:#E6CBC3;" d="M76.371,93.563h0.005l-3.423-10.646l-9-0.666l-9,0.666L51.53,93.563h0.005
					c-0.051,0.146-0.082,0.295-0.082,0.443c0,2.206,5.597,3.993,12.5,3.993c6.902,0,12.5-1.787,12.5-3.993
					C76.453,93.857,76.422,93.709,76.371,93.563z"/>
				<path style="fill:#D9BFB8;" d="M76.371,93.563h0.005l-3.423-10.646l-9-0.666l-1.75,0.129l7.25,0.537l3.423,10.646h-0.005
					c0.051,0.146,0.082,0.295,0.082,0.443c0,2.016-4.678,3.677-10.75,3.95c0.573,0.025,1.154,0.043,1.75,0.043
					c6.902,0,12.5-1.787,12.5-3.993C76.453,93.857,76.422,93.709,76.371,93.563z"/>
				<path style="fill:#FFE1D9;" d="M90,40l-1-4c0-8.113-4.771-21-25-21c-20.229,0-25,12.887-25,21l-1,4c0,0-4,0.295-4,3v11.069
					C34,56.773,35,59,38,59c0,13.522,12.023,29,26,29c13.977,0,26-15.478,26-29c3,0,4-2.227,4-4.931V43C94,40.295,90,40,90,40z"/>
				<path style="fill:#66401E;" d="M90,59c-2-2-2-15,0-19c0-7,0-21-10-21c2.402,2.952,6,11.5,6,20c0,3.791,0.266,4.917,0.953,6
					s1,2.584,1,5c0,6-4.87,16.75-12.953,20c0-2.833-3.87-7-11-7s-11,4.167-11,7c-8.083-3.25-12.953-14-12.953-20
					c0-2.416,0.313-3.917,1-5S42,42.791,42,39c0-8.5,3.598-17.048,6-20c-10,0-10,14-10,21c2,4,2,17,0,19c-2,8,2,16,1,19
					c4,0,10,12,25,14c15-2,21-14,25-14C88,75,92,67,90,59z M64,71c3.866,0,7,1.254,7,2.8s-3.134,2.8-7,2.8s-7-1.254-7-2.8
					S60.134,71,64,71z"/>
				<path style="fill:#66401E;" d="M41,36c1-8,14-1,15-10c4,10,28-3,31,9c1-4-2-13-2-13H44L41,36z"/>
				<path style="fill:#FFD464;" d="M79,13l-5-6l-5,6l-5-9l-5,9l-5-6l-5,6l-6-3l1,13c0,0,10,2,20,2s20-2,20-2l1-13L79,13z"/>
				<circle style="fill:#CC584C;" cx="64" cy="19" r="4"/>
				<g>
					<circle style="fill:#CC584C;" cx="51.5" cy="19" r="3"/>
					<circle style="fill:#CC584C;" cx="76.5" cy="19" r="3"/>
				</g>
			</g>
		</g>
	</g>
	<g>
		<g>
			<ellipse style="fill:#F5F5F5;" cx="54" cy="45" rx="4" ry="3"/>
			<circle style="fill:#2179A6;" cx="54" cy="45" r="2"/>
		</g>
		<g>
			<ellipse style="fill:#F5F5F5;" cx="74" cy="45" rx="4" ry="3"/>
			<circle style="fill:#2179A6;" cx="74" cy="45" r="2"/>
		</g>
	</g>
</g>
</svg>
