<?xml version="1.0" encoding="utf-8"?>
<!-- Generator: Adobe Illustrator 17.0.0, SVG Export Plug-In . SVG Version: 6.00 Build 0)  -->
<!DOCTYPE svg PUBLIC "-//W3C//DTD SVG 1.1//EN" "http://www.w3.org/Graphics/SVG/1.1/DTD/svg11.dtd">
<svg version="1.1" id="objects" xmlns="http://www.w3.org/2000/svg" xmlns:xlink="http://www.w3.org/1999/xlink" x="0px" y="0px"
	 width="66.566px" height="97.663px" viewBox="0 0 66.566 97.663" enable-background="new 0 0 66.566 97.663" xml:space="preserve">
<path id="XMLID_408_" fill="#1F7223" d="M33.283,0C33.283,0,0,45.995,0,64.38c0,18.383,14.9,33.283,33.283,33.283
	c18.385,0,33.283-14.899,33.283-33.283C66.566,45.995,33.283,0,33.283,0z M19.628,50.167c7.307-7.309,18.709-7.978,26.799-2.068
	c1.582-1.567,3.873-3.799,3.873-3.799c1.383-1.362,2.726-0.179,2.665,1.042v13.35c0,0.514-0.419,0.933-0.931,0.933h-1.883
	c-0.513,0-0.937,0-0.937,0s-0.42-0.002-0.931-0.002l-9.709,0.002c-0.83,0.026-2.461-0.979-1.01-2.723c0,0,2.077-2.081,3.879-3.863
	c-5.312-3.249-12.344-2.593-16.941,2.004c-2.918,2.919-4.229,6.814-3.983,10.632h-6.906C13.372,60.087,15.362,54.43,19.628,50.167z
	 M48.367,78.864c-7.309,7.309-18.709,7.978-26.803,2.066c-1.584,1.565-3.872,3.799-3.872,3.799
	c-1.386,1.362-2.728,0.178-2.668-1.042V70.338c0.002-0.514,0.42-0.933,0.933-0.933h1.887c0.513,0,0.935,0,0.935,0
	s0.419,0.004,0.933,0.004l9.707-0.004c0.83-0.026,2.461,0.978,1.008,2.722c0,0-2.077,2.081-3.875,3.863
	c5.312,3.249,12.342,2.593,16.941-2.005c2.918-2.918,4.226-6.812,3.981-10.63l0,0v-0.001c0,0,0,0,0,0.001h6.91
	C54.62,68.943,52.629,74.6,48.367,78.864z"/>
</svg>
