<?xml version="1.0" encoding="utf-8"?><!DOCTYPE svg PUBLIC "-//W3C//DTD SVG 1.1//EN" "http://www.w3.org/Graphics/SVG/1.1/DTD/svg11.dtd"><svg version="1.1" baseProfile="full" xmlns="http://www.w3.org/2000/svg" xmlns:xlink="http://www.w3.org/1999/xlink" xmlns:ev="http://www.w3.org/2001/xml-events"   height="73px"   width="58px" ><path fill="rgb( 218, 134, 60 )" d="M58,51.0410000000001 C58,55.325 53.075,59.671 47,60.748 C40.925,61.824 36,59.224 36,54.939 C36,50.655 40.925,46.309 47,45.232 C48.802,44.913 50.499,44.924 52,45.2 C52,45.2 52,20 52,20 C52,20 22,30 22,30 C22,30 22,62 22,62 C22,62 21.997,62 21.997,62 C21.997,62.014 22,62.027 22,62.0410000000001 C22,66.325 17.075,70.671 11,71.748 C4.92499999999995,72.824 0,70.224 0,65.939 C0,61.655 4.92499999999995,57.309 11,56.232 C12.802,55.913 14.499,55.924 16,56.2 C16,56.2 16,32 16,32 C16,32 16,18 16,18 C16,18 16,14 16,14 C16,14 58,0 58,0 C58,0 58,7 58,7 C58,7 58,18 58,18 C58,18 58,51 58,51 C58,51 57.997,51 57.997,51 C57.997,51.014 58,51.027 58,51.0410000000001 Z "/><path fill="rgb( 167, 98, 36 )" d="M22,15 C22,15 52,5 52,5 C52,5 52,9 52,9 C52,9 22,19 22,19 C22,19 22,15 22,15 Z "/><path fill="rgb( 167, 98, 36 )" d="M22,22 C22,22 52,12 52,12 C52,12 52,16 52,16 C52,16 22,26 22,26 C22,26 22,22 22,22 Z "/></svg>