<?xml version="1.0" encoding="utf-8"?>
<!-- Generator: Adobe Illustrator 17.0.0, SVG Export Plug-In . SVG Version: 6.00 Build 0)  -->
<!DOCTYPE svg PUBLIC "-//W3C//DTD SVG 1.1//EN" "http://www.w3.org/Graphics/SVG/1.1/DTD/svg11.dtd">
<svg version="1.1" id="objects" xmlns="http://www.w3.org/2000/svg" xmlns:xlink="http://www.w3.org/1999/xlink" x="0px" y="0px"
	 width="63.692px" height="99.915px" viewBox="0 0 63.692 99.915" enable-background="new 0 0 63.692 99.915" xml:space="preserve">
<path fill="#7AB547" d="M26.623,74.305h10.445v25.61H26.623V74.305z"/>
<path fill="#1F7223" d="M55.434,38.248v18.197c0,13.026-10.56,23.588-23.589,23.588c-13.027,0-23.587-10.562-23.587-23.588V38.248
	h4.885V3.37c0-1.861,1.507-3.37,3.37-3.37c1.86,0,3.37,1.509,3.37,3.37v34.878h23.925V3.37c0-1.861,1.507-3.37,3.37-3.37
	c1.86,0,3.37,1.509,3.37,3.37v34.878H55.434z"/>
<path fill="#7AB547" d="M63.692,38.922c0,2.884-2.34,5.223-5.224,5.223H5.224C2.337,44.144,0,41.805,0,38.922l0,0
	c0-2.884,2.337-5.223,5.224-5.223h53.243C61.351,33.699,63.692,36.038,63.692,38.922L63.692,38.922z"/>
</svg>
