<?xml version="1.0" encoding="utf-8"?><!DOCTYPE svg PUBLIC "-//W3C//DTD SVG 1.1//EN" "http://www.w3.org/Graphics/SVG/1.1/DTD/svg11.dtd"><svg version="1.1" baseProfile="full" xmlns="http://www.w3.org/2000/svg" xmlns:xlink="http://www.w3.org/1999/xlink" xmlns:ev="http://www.w3.org/2001/xml-events"   height="268px"   width="232px" ><path stroke="rgb( 14, 5, 10 )" stroke-width="0px" stroke-linecap="butt" stroke-linejoin="miter" opacity="0.8" fill="rgb( 0, 0, 0 )" d="M116,268 C116,268 0,201 0,201 C0,201 0,170 0,170 C0,170 232,170 232,170 C232,170 232,201 232,201 C232,201 116,268 116,268 ZM0,67 C0,67 116,0 116,0 C116,0 232,67 232,67 C232,67 232,98 232,98 C232,98 0,98 0,98 C0,98 0,67 0,67 Z "/><path stroke="rgb( 14, 5, 10 )" stroke-width="0px" stroke-linecap="butt" stroke-linejoin="miter" opacity="0.8" fill="rgb( 255, 255, 255 )" d="M0,98 C0,98 232,98 232,98 C232,98 232,170 232,170 C232,170 0,170 0,170 C0,170 0,98 0,98 Z "/></svg>