<?xml version="1.0" encoding="utf-8"?>
<!-- Generator: Adobe Illustrator 17.0.0, SVG Export Plug-In . SVG Version: 6.00 Build 0)  -->
<!DOCTYPE svg PUBLIC "-//W3C//DTD SVG 1.1//EN" "http://www.w3.org/Graphics/SVG/1.1/DTD/svg11.dtd">
<svg version="1.1" id="图层_1" xmlns:ev="http://www.w3.org/2001/xml-events"
	 xmlns="http://www.w3.org/2000/svg" xmlns:xlink="http://www.w3.org/1999/xlink" x="0px" y="0px" width="167.127px"
	 height="163.913px" viewBox="0 0 167.127 163.913" enable-background="new 0 0 167.127 163.913" xml:space="preserve">
<path fill="#19B6F5" d="M167.127,86.19c0,3.124-0.214,6.196-0.587,9.219H59.723c2.022,20.405,16.032,32.776,33.052,32.776
	c12.171,0,22.775-6.343,28.583-17.412h41.608c-10.183,29.215-37.983,50.189-70.704,50.189c-11.506,0-22.401-2.599-32.141-7.23
	c-24.821,11.49-46.21,13.679-55.06,4.384c-8.934-9.382-5.725-33.169,7.151-59.493c18.294-35.944,44.156-59.549,44.156-59.549
	c-15.113,6.57-29.305,20.571-36.66,28.631c8.239-32.354,37.596-56.287,72.554-56.287c1.657,0,3.296,0.073,4.926,0.179
	c27.346-13.803,51.104-15.186,61.109-4.678c7.631,8.014,7.714,24.939,0.484,44.976C164.103,62.17,167.127,73.824,167.127,86.19z
	 M22.086,112.269c-8.32,16.655-11.781,31.721-6.107,40.964c4.006,6.526,19.846,5.938,39.552-1.896
	C40.24,142.718,28.284,128.899,22.086,112.269z M92.775,44.195c-16.43,0-30.073,11.72-32.818,30.728h65.635
	C122.847,55.915,109.204,44.195,92.775,44.195z M156.574,14.027c-6.408-6.73-21.516-5.831-39.294,1.684
	c15.974,5.657,29.445,16.574,38.343,30.67C161.571,31.714,162.53,20.283,156.574,14.027z"/>
</svg>
