<?xml version="1.0" encoding="iso-8859-1"?>
<!-- Generator: Adobe Illustrator 17.0.0, SVG Export Plug-In . SVG Version: 6.00 Build 0)  -->
<!DOCTYPE svg PUBLIC "-//W3C//DTD SVG 1.1//EN" "http://www.w3.org/Graphics/SVG/1.1/DTD/svg11.dtd">
<svg version="1.1" id="Objects1" xmlns="http://www.w3.org/2000/svg" xmlns:xlink="http://www.w3.org/1999/xlink" x="0px" y="0px"
	 width="115.566px" height="129.446px" viewBox="0 0 115.566 129.446" style="enable-background:new 0 0 115.566 129.446;"
	 xml:space="preserve">
<g>
	<path style="fill:#69462C;" d="M115.566,129.323l-0.355-27.535l-6.295-0.084l-1.672,0.015l-2.314-4.786l0.146-2.207
		c0.919-2.036-0.194-2.396-0.194-2.396s0.029-8.476-3.046-13.796c-3.757-6.502-7.138-7.846-7.138-7.846l-0.83-12.12
		c0,0-0.862-2.891-2.239-3.853c0,0-2.203,1.398-2.3,4.593c-0.115,3.17,0.122,11.603,0.122,11.603s-3.41,2.8-4.928,5.302
		l0.312,29.091H84.9l0.198,24.069L115.566,129.323z M98.228,94.604c2.163-0.023,2.273,2.285,2.273,2.285l0.051,4.888l-4.419,0.038
		l-0.05-4.879C96.083,96.936,96.059,94.625,98.228,94.604z M88.96,94.699c2.184-0.021,2.267,2.288,2.267,2.288l0.052,4.869
		l-4.424,0.038l-0.05-4.86C86.805,97.033,86.781,94.723,88.96,94.699z"/>
	<path style="fill:#E2AA15;" d="M80.011,58.6c-0.686-3.503-2.626-12.385-5.375-16.146C70.021,36.149,64.286,31.5,62.859,28.2
		c-1.415-3.306-1.231-12.715-1.231-12.715S61.549,7.887,58.48,5.429l-0.084-5.075c0,0-0.398-0.211-0.616-0.312v53.204
		C65.89,52.84,73.697,55.138,80.011,58.6z"/>
	<path style="fill:#DA6426;" d="M84.54,74.475c-0.03-1.121-0.168-2.436-0.627-2.81c-0.822-0.688-1.675-2.331-1.675-2.331
		l-0.459-4.283c0,0,0.784-3.453-0.188-4.276c-0.969-0.823-1.392-1.238-1.392-1.238s-0.008-0.037-0.209-1.059
		c-6.315-3.462-14.101-5.645-22.21-5.232v4.102c0.184-0.006,0.367-0.015,0.553-0.018c0.15-0.005,0.303-0.008,0.46-0.01
		c0.426-0.004,0.867-0.002,1.287,0.007l0.066,6.167c-0.421-0.001-0.863,0.004-1.289,0.009c-0.156,0-0.307,0.008-0.462,0.01
		c-0.206,0.004-0.41,0.013-0.615,0.02v3.612C67.947,66.482,77.506,69.102,84.54,74.475z M78.55,60.89l0.064,6.18
		c-1.277-0.561-2.681-1.067-4.157-1.516l-0.065-6.178C75.871,59.821,77.274,60.33,78.55,60.89z M70.589,58.426l0.065,6.175
		c-1.68-0.361-3.441-0.627-5.257-0.808l-0.065-6.175C67.141,57.801,68.912,58.079,70.589,58.426z"/>
	<path style="fill:#E2AA15;" d="M85.163,129.379l-0.138-6.472l-0.152-14.249l-0.038-3.353l-0.312-29.091
		c-0.003,0.003-0.004,0.008-0.008,0.012c0,0,0.002-0.046,0.006-0.113c0.012-0.247,0.039-0.899,0.019-1.638
		c-7.034-5.373-16.593-7.992-26.76-7.331l-0.021,7.182l6.424,4.19l0.087,7.664l10.76,7.011l0.029,2.773l-12.685-9.092l0.014-7.238
		l-4.671-3.253l0.063,24.849c0.381,0.149,0.727,0.33,1.018,0.551c1.438,1.088,1.882,2.852,2.017,3.73
		c0.051,0.328,0.059,0.537,0.059,0.537l0.181,17.028l0.016,1.506l-2.032,0.021l-1.257,0.014v4.713l20.978,0.117L85.163,129.379z
		 M66.97,124.521l-0.038-3.485l-0.12-11.488c0,0-0.033-3.282,2.671-4.111c0.374-0.116,0.8-0.185,1.289-0.19
		c0.496-0.005,0.934,0.057,1.32,0.167c2.724,0.784,2.853,4.047,2.853,4.047l0.077,7.389l0.078,7.584L66.97,124.521z"/>
	<path style="fill:#785033;" d="M30.468,129.331l0.198-24.069h0.065l0.312-29.091c-1.518-2.502-4.928-5.302-4.928-5.302
		s0.237-8.434,0.122-11.603c-0.097-3.195-2.3-4.593-2.3-4.593c-1.377,0.962-2.239,3.854-2.239,3.854l-0.83,12.12
		c0,0-3.381,1.344-7.138,7.846c-3.075,5.32-3.046,13.796-3.046,13.796s-1.113,0.361-0.194,2.396l0.146,2.207l-2.314,4.786
		l-1.672-0.015l-6.295,0.084L0,129.281L30.468,129.331z M19.483,96.894l-0.05,4.879l-4.419-0.038l0.051-4.888
		c0,0,0.11-2.308,2.273-2.285C19.507,94.583,19.483,96.894,19.483,96.894z M28.762,96.991l-0.05,4.86l-4.424-0.038l0.052-4.869
		c0,0,0.083-2.309,2.267-2.288C28.785,94.681,28.762,96.991,28.762,96.991z"/>
	<path style="fill:#F9BB14;" d="M35.556,58.558c0.686-3.503,2.626-12.385,5.375-16.146c4.614-6.305,10.35-10.954,11.776-14.253
		c1.415-3.307,1.231-12.715,1.231-12.715s0.079-7.598,3.147-10.057l0.084-5.075c0,0,0.398-0.211,0.616-0.312v53.205
		C49.677,52.798,41.869,55.096,35.556,58.558z"/>
	<path style="fill:#F26E25;" d="M57.786,67.102V63.49c-0.205-0.006-0.409-0.016-0.615-0.02c-0.155-0.001-0.306-0.01-0.462-0.01
		c-0.426-0.005-0.868-0.01-1.289-0.009l0.066-6.167c0.42-0.01,0.861-0.012,1.287-0.007c0.157,0.002,0.31,0.005,0.46,0.01
		c0.186,0.003,0.369,0.012,0.553,0.018v-4.102c-8.109-0.413-15.896,1.769-22.21,5.232c-0.201,1.022-0.209,1.059-0.209,1.059
		s-0.424,0.415-1.393,1.238c-0.972,0.823-0.188,4.276-0.188,4.276l-0.459,4.283c0,0-0.853,1.644-1.675,2.332
		c-0.459,0.373-0.597,1.689-0.627,2.81C38.06,69.06,47.619,66.44,57.786,67.102z M41.175,59.334l-0.065,6.178
		c-1.477,0.448-2.88,0.955-4.157,1.516l0.064-6.18C38.292,60.288,39.695,59.779,41.175,59.334z M50.234,57.577l-0.065,6.175
		c-1.815,0.181-3.577,0.447-5.257,0.808l0.065-6.176C46.654,58.037,48.426,57.759,50.234,57.577z"/>
	<path style="fill:#F9BB14;" d="M36.808,129.404l20.979-0.117v-4.713l-1.257-0.014l-2.032-0.021l0.016-1.506l0.181-17.028
		c0,0,0.008-0.208,0.059-0.537c0.135-0.879,0.578-2.643,2.017-3.73c0.291-0.221,0.637-0.402,1.018-0.551l-0.042-24.786l-4.566,3.19
		l0.014,7.238l-12.685,9.092l0.029-2.773l10.76-7.011l0.087-7.664l6.424-4.19l-0.021-7.182c-10.167-0.661-19.726,1.958-26.76,7.331
		c-0.021,0.738,0.007,1.391,0.019,1.638c0.004,0.066,0.006,0.113,0.006,0.113c-0.004-0.004-0.005-0.008-0.008-0.012l-0.312,29.091
		l-0.038,3.353l-0.152,14.249l-0.138,6.472L36.808,129.404z M40.467,124.392l0.078-7.584l0.077-7.389c0,0,0.129-3.263,2.853-4.046
		c0.387-0.11,0.824-0.173,1.32-0.167c0.489,0.005,0.915,0.075,1.289,0.19c2.704,0.829,2.671,4.111,2.671,4.111l-0.12,11.488
		l-0.038,3.486L40.467,124.392z"/>
</g>
</svg>
