<?xml version="1.0" encoding="utf-8"?>
<!-- Generator: Adobe Illustrator 16.0.0, SVG Export Plug-In . SVG Version: 6.00 Build 0)  -->
<!DOCTYPE svg PUBLIC "-//W3C//DTD SVG 1.1//EN" "http://www.w3.org/Graphics/SVG/1.1/DTD/svg11.dtd">
<svg version="1.1" id="图层_1" xmlns="http://www.w3.org/2000/svg" xmlns:xlink="http://www.w3.org/1999/xlink" x="0px" y="0px"
	 width="160.085px" height="171.934px" viewBox="0 0 160.085 171.934" enable-background="new 0 0 160.085 171.934"
	 xml:space="preserve">
<path fill="#903A17" d="M120.188,119.6c-12.145,5.49-13.5-5.486-19.674-13.745c3.468-3.881,7.629-6.574,11.879-9.512
	c5.741-3.968,16.704-18.76,24.328-15.585c6.573,2.742,7.444,11.814,1.226,15.052c1.927,2.496,2.809,3.663,2.177,6.741
	C138.415,110.881,127.039,116.505,120.188,119.6 M23.749,97.521c3.268,2.743,5.233,11.966,10.605,5.96
	c9.962-11.14-8.713-21.501-20.504-17.876C0.48,89.711-2.48,106.488,1.862,117.348c4.012,10.032,10.972,16.752,20.404,20.97
	c13.114,5.862,28.569,1.435,40.987-4.732c-0.672-2.804-1.463-5.646-2.201-8.461c-16.647,4.606-41.787,10.209-50.645-9.964
	C6.52,106.308,11.431,87.175,23.749,97.521 M123.855,143.552c0.049-4.824-0.159-13.059-4.172-15.205
	c-4.471-2.388-11.096,5.37-14.117,8.723c-7.295,8.087-6.924,37.38,6.31,33.461C120.271,168.047,123.747,154.159,123.855,143.552
	 M54.253,159.582c-3.978,6.944,11.121,12.685,15.786,12.858c7.862,0.293,22.949-6.525,23.781-16.395
	c0.643-7.625-3.646-15.871-13.456-20.323c-5.667-2.571-22.513-1.365-22.769,5.404c-0.164,4.373,6.476,5.152,2.713,9.719
	C57.781,153.912,56.673,155.358,54.253,159.582 M45.01,118.368c-0.389,3.606,0.071,18.854,8.78,18.58
	c-10.664,0.952-6.975,8.926,0.735,12.225c6.232,2.663,14.666,0.641,16.56-6.998c1.777-7.171-5.011-12.554-4.957-19.588
	c0.052-7.153,4.829-19.237-5.311-21.066C53.458,100.19,45.815,110.881,45.01,118.368 M142.211,21.383
	c-2.777,0.524-5.224,1.776-7.201,3.501C123.098,7.283,100.747-2.869,77.078,0.716C53.84,4.234,35.731,20.021,29.24,39.839
	c-1.85-0.518-3.832-0.697-5.865-0.465c-8.297,0.948-14.269,8.324-13.336,16.478c0.93,8.153,8.412,13.993,16.71,13.044
	c0.504-0.058,0.998-0.14,1.482-0.245c6.872,27.204,34.993,45.072,65.262,40.49c30.397-4.603,52.017-30.188,50.328-58.343
	c1.278,0.086,2.587,0.031,3.906-0.218c8.207-1.55,13.626-9.344,12.101-17.407C158.306,25.112,150.417,19.833,142.211,21.383"/>
<path fill="#AD672E" d="M85.38,151.997c-11.635,0-25.69-2.625-27.015-10.023c-2.215-12.388-3.192-24.78,4.598-31.538
	c8.666-7.515,18.591-11.325,29.504-11.325c4.621,0,9.397,0.704,14.196,2.092c5.632,1.63,10.469,5.801,13.272,11.44
	c2.744,5.524,3.132,11.782,1.061,17.167c-4.738,12.323-16.956,21.176-30.404,22.024C88.888,151.942,87.136,151.997,85.38,151.997
	 M92.592,103.193c26.866-4.068,46.73-26.924,45.225-52.035c-0.104-1.726,0.54-3.413,1.768-4.631c1.13-1.122,2.655-1.745,4.236-1.745
	c0.136,0,0.273,0.005,0.41,0.014c0.234,0.016,0.472,0.024,0.712,0.024c0.573,0,1.137-0.051,1.668-0.151
	c2.409-0.455,4.497-1.799,5.876-3.784c1.356-1.951,1.866-4.294,1.431-6.594c-0.784-4.151-4.499-7.162-8.834-7.162
	c-0.582,0-1.173,0.057-1.757,0.166c-1.609,0.304-3.118,1.038-4.362,2.125c-1.102,0.959-2.509,1.48-3.955,1.48
	c-0.256,0-0.517-0.018-0.774-0.05c-1.709-0.223-3.241-1.167-4.206-2.595C120.6,14.331,104.345,6.017,86.542,6.017
	c-2.842,0-5.723,0.218-8.564,0.649C57.817,9.717,40.931,23.475,34.959,41.71c-0.827,2.526-3.176,4.147-5.716,4.147
	c-0.535,0-1.079-0.073-1.618-0.224c-0.816-0.228-1.655-0.343-2.498-0.343c-0.354,0-0.713,0.022-1.069,0.061
	c-2.436,0.279-4.615,1.467-6.135,3.344c-1.496,1.848-2.172,4.147-1.907,6.474c0.509,4.455,4.364,7.812,8.968,7.812
	c0.358,0,0.724-0.02,1.082-0.062c0.291-0.034,0.596-0.084,0.907-0.15c0.424-0.092,0.845-0.136,1.264-0.136
	c2.698,0,5.14,1.827,5.828,4.545c5.453,21.585,25.996,36.662,49.96,36.662C86.869,103.84,89.751,103.623,92.592,103.193"/>
<path fill="#F9C385" d="M121.922,107.074c0.684,0.096,1.34,0.223,1.979,0.36c4.476,7.151,5.901,16.233,2.71,24.535
	c-5.458,14.19-19.037,24.136-34.003,25.705c-1.594-5.524-1.549-12.585-1.727-16.919c-0.354-8.522,1.951-17.333,7.275-24.193
	C103.884,109.178,112.604,105.773,121.922,107.074 M142.018,67.776c-2.103-6.325-6.354-11.591-12.979-13.082
	c1.013-5.475,1.236-11.065-0.846-16.346c-9.526-24.183-40.581-18.011-43.352,6.539c-3.127-4.834-5.522-9.549-10.464-12.395
	c-22.34-12.862-44.373,11.76-29.56,32.968c-3.09,5.022-5.793,10.482-5.589,16.641c0.126,3.761,0.895,7.106,2.178,10.079
	c12.613,13.061,31.869,20.021,52.088,16.961C117.603,105.489,136.196,88.64,142.018,67.776"/>
<path fill="#F9C385" d="M154.748,34.524c1.132,5.805-3.184,11.533-9.637,12.791c-6.454,1.257-1.621-3.151-2.755-8.954
	c-1.13-5.807-7.799-10.812-1.346-12.071C147.466,25.033,153.616,28.718,154.748,34.524 M13.865,55.094
	c0.67,5.877,6.513,10.036,13.045,9.29c6.532-0.747,0.549-5.363-0.122-11.241c-0.671-5.876,4.223-10.788-2.309-10.042
	C17.944,43.848,13.192,49.217,13.865,55.094"/>
<path fill="#9F5529" d="M114.066,49.321c0.528,3.477-0.857,6.569-3.095,6.909c-2.233,0.338-4.473-2.207-5-5.683
	c-0.525-3.477,0.859-6.57,3.095-6.909C111.302,43.3,113.541,45.845,114.066,49.321 M84.5,57.551c-3.896,0.693-6.72,3.126-6.31,5.434
	c0.41,2.308,3.902,3.618,7.796,2.926c3.896-0.694,6.721-3.126,6.311-5.434C91.886,58.168,88.395,56.858,84.5,57.551"/>
<path fill="#EF8BA7" d="M98.985,74.5c0,0,11.924,7.855-0.382,14.011c0,0-8.076,3.37-7.588-9.943
	C91.016,78.567,99.039,74.849,98.985,74.5"/>
<path fill="#6A3906" d="M56.372,60.013L55.37,59.66c1.414-4.012,3.404-6.293,5.917-6.782c4.087-0.795,7.917,3.476,8.079,3.658
	l-0.796,0.702c-0.035-0.039-3.593-4.008-7.083-3.318C59.372,54.332,57.65,56.383,56.372,60.013 M107.123,69.8l-0.652-0.837
	c-7.852,6.113-23.04,13.718-32.705,9.612l-0.415,0.977c2.104,0.894,4.399,1.279,6.784,1.279
	C90.067,80.831,101.537,74.149,107.123,69.8 M95.397,76.041l-0.852,0.634c0.699,0.938,2.149,4.859,2.057,6.843l1.061,0.051
	C97.77,81.301,96.208,77.129,95.397,76.041"/>
</svg>
