<?xml version="1.0" encoding="utf-8"?>
<!-- Generator: Adobe Illustrator 17.0.0, SVG Export Plug-In . SVG Version: 6.00 Build 0)  -->
<!DOCTYPE svg PUBLIC "-//W3C//DTD SVG 1.1//EN" "http://www.w3.org/Graphics/SVG/1.1/DTD/svg11.dtd">
<svg version="1.1" id="图层_1" xmlns="http://www.w3.org/2000/svg" xmlns:xlink="http://www.w3.org/1999/xlink" x="0px" y="0px"
	 width="504.17px" height="776.693px" viewBox="0 0 504.17 776.693" enable-background="new 0 0 504.17 776.693"
	 xml:space="preserve">
<path fill="#E5A723" d="M36.847,7.527c-0.655-1.978-1.642-4.465-2.756-5.627c0,0,1.726,0.91,2.762,1.192
	c0.95,0.26,5.093,2.052,7.266,4.435c0.096,0.103,0.185,0.206,0.273,0.313h-3.445l-0.026-0.005L40.917,7.84H36.95L36.847,7.527z
	 M112.985,7.841H81.631c1.963,1.038,3.899,1.928,5.778,2.692c11.426,4.644,20.67,4.593,20.67,4.593v0.377h4.906v-2.328h94.339
	h21.977h161.884v2.329h0.002v2.329H229.301h-21.977h-94.339v-2.329h-4.906v2.646c-4.076,1.818-9.674,1.584-13.95,0.339
	c-2.784-0.812-5.145-1.851-7.136-2.985c-2.77-1.578-4.827-3.349-6.33-4.971h0.001c-0.902-0.976-1.605-1.897-2.14-2.692H60.003
	c0.101,0.029,0.204,0.058,0.304,0.09c1.571,0.489,3.33,1.439,5.098,2.602c2.26,1.483,4.534,3.313,6.444,4.971
	c2.836,2.46,4.874,4.543,4.874,4.543c3.594,3.064,2.756,5.302,2.756,5.302s1.124-0.745,4.855-1.55
	c3.731-0.805,6.393-0.034,7.499,0.527c1.104,0.559,1.508,1.161,2.418,1.6c0.69,0.22,1.658,0.492,3.247-0.188
	c1.588-0.68,2.015-1.058,7.68-0.951c5.227,0.108,7.808,2.129,7.808,2.129v-6.259h94.339h21.977h161.883v6.259
	c0,0,2.58-2.021,7.808-2.129c5.665-0.106,6.092,0.271,7.68,0.951c1.59,0.681,2.557,0.408,3.247,0.188
	c0.91-0.438,1.314-1.041,2.418-1.6c1.106-0.562,3.77-1.332,7.499-0.527c3.731,0.805,4.856,1.55,4.856,1.55s-0.836-2.237,2.756-5.302
	c0,0,2.034-2.083,4.871-4.543h-0.002c1.911-1.659,4.184-3.488,6.444-4.97h0.001c1.769-1.164,3.529-2.114,5.1-2.602
	c0.1-0.032,0.202-0.062,0.304-0.091h-12.346c-0.246,0.224-0.436,0.394-0.436,0.394s0.044-0.158,0.098-0.394h-5.838
	c-0.535,0.795-1.238,1.715-2.139,2.692h-0.001c-1.502,1.622-3.561,3.393-6.33,4.971h0.002c-1.991,1.135-4.35,2.173-7.134,2.985
	c-4.276,1.245-9.875,1.479-13.95-0.339v-2.647h-0.002v-0.377c0,0,9.243,0.051,20.669-4.593h-0.001
	c1.877-0.763,3.815-1.654,5.778-2.692h-31.353v2.51H229.301h-21.977h-94.339V7.841z M54.871,7.527c1.221-0.158,2.439-0.161,3.604,0
	c0.522,0.071,1.032,0.176,1.528,0.313h18.522c-0.073-0.107-0.141-0.211-0.207-0.313h-0.001c-0.91-1.414-1.259-2.356-1.259-2.356
	c1.335,0.857,2.665,1.638,3.986,2.356c0.196,0.105,0.391,0.21,0.587,0.313h31.354V7.527h0.002V1.948L97.096,1.842
	c-1.795,1.023-5.735,2.861-11.744,2.96c-6.01,0.099-10.847-2.837-10.847-2.837c-0.347,0.068-0.691-0.074-1.451-0.216
	c-0.76-0.144-4.905-0.448-5.389-0.383c-0.483,0.067-1.243,0.062-2.833,0.051c-1.588-0.011-4.629,0.452-5.389,0.653
	c-0.759,0.204-0.966-0.144-5.734,0.998c-3.55,0.853-6.834,3.276-8.277,4.459c-0.146,0.117-0.272,0.222-0.378,0.313h8.125
	C53.74,7.703,54.305,7.597,54.871,7.527z M391.185,7.84h31.353c0.195-0.103,0.392-0.208,0.586-0.313h-0.001
	c1.322-0.717,2.654-1.499,3.989-2.356c0,0-0.35,0.942-1.262,2.356c-0.065,0.102-0.135,0.206-0.205,0.313h5.838
	c0.022-0.094,0.045-0.2,0.068-0.313c0.107-0.541,0.207-1.249,0.076-1.626c-0.229-0.653-0.207-1.504-0.207-1.898
	s0.991-0.858,2.17-1.062c1.179-0.204,2.897-0.24,3.649,0.377c0,0-1.033,0.575-1.338,0.714c-1.655,0.767-2.439,1.659-3.042,2.75
	c-0.075,0.133-0.385,0.444-0.702,0.745c-0.115,0.108-0.231,0.216-0.336,0.313h12.346c0.494-0.137,1.004-0.243,1.526-0.313
	c1.165-0.161,2.386-0.158,3.605,0c0.565,0.071,1.131,0.176,1.69,0.313h8.126c-0.107-0.091-0.232-0.196-0.377-0.313
	c-1.441-1.182-4.726-3.606-8.276-4.459c-4.767-1.142-4.974-0.794-5.734-0.998c-0.76-0.201-3.801-0.664-5.389-0.653
	c-1.59,0.011-2.35,0.015-2.833-0.051c-0.484-0.065-4.629,0.24-5.389,0.383c-0.761,0.142-1.105,0.284-1.451,0.216
	c0,0-4.835,2.936-10.846,2.837c-6.01-0.099-9.948-1.937-11.744-2.96l-15.891,0.106v5.579h0.001V7.84z M44.392,7.841
	c0.092,0.115,0.184,0.232,0.269,0.349c0,0,0.138-0.131,0.394-0.349h8.125c-2.032,0.497-3.996,1.41-5.648,2.692h-0.001
	c-1.676,1.298-3.026,2.973-3.793,4.971c-0.284,0.739-0.488,1.523-0.598,2.346c-0.386,3.998,1.103,8.102,4.146,10.44
	c2.951,2.265,7.542,2.918,10.567,1.681c6.15-2.516,5.251-10.119,1.452-12.495c-3.799-2.373-7.185,0.505-5.942,2.379
	c1.244,1.873,3.108,2.092,3.869,1.892c0,0,0.899,4.288-3.246,5.366c-4.145,1.079-8.222-3.026-6.909-7.577
	c0.432-1.5,1.938-2.988,3.961-4.031h11.146c1.049,0.647,2.019,1.533,2.854,2.701c0,0,1.176,1.32,1.797,3.674
	c0.622,2.354,3.316,6.241,7.876,7.378c0,0-4.698,2.867-10.915-0.006c0,0-3.355,3.784-9.021,4.854
	c-5.665,1.066-4.52-1.767-12.949-0.374c0,0-0.967,0.201-2.625,0.191c-1.407-0.012-4.958-0.033-5.997-0.041
	c-0.001,1.155-0.001,4.529,0,5.893c0,0.801-0.049,1.44-0.101,1.887h0.002c-0.054,0.478-0.108,0.735-0.108,0.735
	c-1.451,8.429,1.313,8.015,0.208,13.68c-1.106,5.665-4.837,8.292-4.837,8.292c1.063,2.332,1.318,4.448,1.222,6.186h0.001
	c-0.159,2.895-1.29,4.729-1.29,4.729c-0.464-1.907-1.411-3.489-2.526-4.729h-0.001c-1.551-1.723-3.431-2.786-4.798-3.147
	c-2.35-0.622-3.662-1.797-3.662-1.797c-7.599-5.456-3.108-16.648,1.451-17.96c4.561-1.313,8.636,2.762,7.531,6.908
	c-1.104,4.144-5.389,3.246-5.389,3.246c0.207-0.759-0.002-2.625-1.866-3.87c-1.864-1.242-4.766,2.143-2.417,5.943
	c2.35,3.799,9.949,4.697,12.504-1.451c1.257-3.027,0.635-7.619-1.611-10.569c-2.316-3.044-6.412-4.531-10.41-4.146
	c-7.875,0.76-11.606,11.262-9.603,17.824c0.871,2.852,3.046,6.175,5.229,9.02c2.838,3.701,5.687,6.593,5.687,6.593
	c3.04,3.594,5.941,2.903,5.941,2.903s-0.899,0.758-1.727,4.489c-0.83,3.73,0.137,6.978,0.69,8.084
	c0.113,0.228,0.246,0.432,0.39,0.625h0.003c0.547,0.736,1.212,1.243,1.267,1.79c0.069,0.692,0.553,1.659-0.139,3.247
	c-0.691,1.59-1.727,1.797-1.658,7.462c0.07,5.665,2.004,7.808,2.004,7.808h-6.175v182.229v24.372v68.867v275.469h6.175
	c0,0-1.934,2.141-2.004,7.807c-0.069,5.664,0.967,5.873,1.658,7.461c0.692,1.59,0.208,2.556,0.139,3.248
	c-0.056,0.548-0.722,1.052-1.27,1.792h-0.002c-0.142,0.189-0.275,0.398-0.388,0.625c-0.553,1.106-1.52,4.352-0.69,8.083
	c0.828,3.73,1.727,4.491,1.727,4.491s-2.901-0.69-5.941,2.901c0,0-2.583,2.621-5.281,6.065c-2.312,2.957-4.71,6.518-5.635,9.548
	c-2.004,6.563,1.727,17.064,9.603,17.824c3.998,0.385,8.094-1.103,10.41-4.147c2.246-2.95,2.869-7.542,1.611-10.568
	c-2.556-6.148-10.155-5.249-12.504-1.45c-2.348,3.799,0.553,7.185,2.417,5.941c1.865-1.244,2.073-3.109,1.866-3.868
	c0,0,4.284-0.899,5.389,3.245c1.104,4.146-2.971,8.223-7.531,6.909c-4.559-1.314-9.05-12.505-1.451-17.961
	c0,0,1.311-1.176,3.662-1.797c1.501-0.397,3.62-1.642,5.243-3.677h0.002c0.918-1.148,1.68-2.551,2.08-4.197
	c0,0,0.994,1.612,1.249,4.198h-0.001c0.179,1.828-0.009,4.142-1.182,6.715c0,0,3.731,2.625,4.837,8.29
	c1.104,5.665-1.659,5.251-0.208,13.68c0,0,0.054,0.256,0.108,0.733H12.016c-0.119-0.027-0.212-0.048-0.259-0.056
	c-0.238-0.045-1.108-0.477-1.369-0.65c-0.261-0.174-0.803-0.758-1.131-0.542c-0.193,0.13-0.822,0.68-1.324,1.248H4.4
	c0.836-1.37,1.878-2.735,3.037-3.567c0,0-4.007-4.283-5.181-9.049c-1.176-4.767-0.83-4.975-1.037-5.735
	c-0.207-0.758-0.691-3.798-0.691-5.388c-0.002-1.589,0-2.349-0.069-2.832c-0.037-0.259,0.023-1.57,0.111-2.847h1.373
	c-0.093,1.29,0.057,3.259,0.591,3.904c0,0,0.394-1.333,0.46-1.661c0.061-0.308,0.901-1.62,1.574-2.243H4.57
	c0.043-0.04,0.088-0.078,0.131-0.112c0.689-0.557,0.853-0.523,1.148-0.688c0.296-0.164,0.82-0.72,0.82-0.72
	s-1.049-0.033-1.706-0.262s-1.509-0.457-1.903-0.457c-0.394-0.002-0.852,0.49-1.05,1.667c-0.028,0.167-0.051,0.36-0.066,0.571H0.57
	c0.074-1.107,0.17-2.188,0.235-2.541c0.193-1.072,0.19-1.415,0.658-2.354c0.809-1.624,2.415-5.436,2.311-9.942
	c-0.066-2.941-0.549-5.387-1.145-7.327c-0.621-2.025-1.366-3.501-1.894-4.417l-0.002-15.891H8.71V389.025v-68.867v-24.372V113.557
	H0.734l0.002-15.891c0.528-0.917,1.273-2.393,1.893-4.416c0.595-1.942,1.079-4.385,1.145-7.327
	c0.139-6.011-2.762-10.846-2.762-10.846c0.068-0.346-0.07-0.691-0.207-1.451c-0.076-0.41-0.19-1.798-0.269-3.07
	c-0.068-1.092-0.109-2.096-0.077-2.318c-0.445-0.484-0.445-1.244,0.069-2.833c0-1.588,0.484-4.628,0.691-5.388
	c0.207-0.761-0.139-0.968,1.037-5.735c1.174-4.766,5.181-9.05,5.181-9.05c-1.159-0.833-2.2-2.197-3.035-3.568H4.401
	c-1.109-1.82-1.851-3.646-2.008-4.237c-0.276-1.037-1.174-2.764-1.174-2.764c2.072,2.003,8.427,3.593,8.427,3.593
	c0.899-0.07,1.936-0.207,7.254,0c5.319,0.207,9.396,2.211,10.085,2.556c0.692,0.346,0.899,0.621,2.765-0.275
	c1.865-0.899,1.584-2.35,1.584-2.35V33.87h-0.01v-1.869h0.01v-0.102l6.723,0.071c0,0,2.353,0.372,3.105-0.977
	c0.337-0.695,0.485-1.424,0.338-1.912c-0.243-0.816-1.047-1.234-1.264-1.669c-0.345-0.692-2.348-4.482-2.555-9.804
	c-0.029-0.793-0.054-1.489-0.07-2.104c-0.089-3.253-0.004-4.238,0.056-4.971l0.016-0.18c0,0.001-0.274-1.089-0.734-2.512h3.967
	c-0.049,0.064-0.45,0.641-0.104,2.666l0.003,0.026l0.629,3.658c0,0,0.539-1.613,0.583-1.851c0.043-0.238,0.476-1.106,0.649-1.366
	c0.074-0.109,0.219-0.269,0.349-0.441h0.001c0.174-0.236,0.318-0.494,0.193-0.683c-0.214-0.325-1.591-1.843-2.272-2.009H44.392z
	 M4.082,70.556h0.001c-0.536-0.652-1.041-1.479-1.088-1.715c-0.066-0.326-0.46-0.458-0.46-0.458
	c-0.434,0.524-0.615,1.331-0.618,2.172c-0.001,0.367,0.034,0.741,0.093,1.1c0.198,1.177,0.656,1.668,1.05,1.668
	s1.247-0.229,1.903-0.074c0.657,0.158,2.283,0.51,2.283,0.51s-1.102-1.711-1.398-1.875C5.553,71.72,5.389,71.753,4.7,71.199
	C4.507,71.041,4.292,70.812,4.082,70.556z M51.04,15.504h11.146C58.645,13.316,54.209,13.867,51.04,15.504z M463.248,7.835
	l0.003,0.005h3.966l0.104-0.313h0.001c0.656-1.978,1.643-4.465,2.757-5.626c0,0-1.725,0.91-2.762,1.192
	c-0.949,0.259-5.094,2.051-7.268,4.434h-0.001c-0.094,0.103-0.185,0.206-0.273,0.313h3.447L463.248,7.835z M456.638,10.534
	c1.677,1.298,3.026,2.972,3.791,4.97h0.001c0.285,0.74,0.491,1.522,0.6,2.345c0.387,3.998-1.101,8.101-4.146,10.44
	c-2.949,2.265-7.542,2.918-10.568,1.681c-6.149-2.516-5.25-10.119-1.451-12.495c3.8-2.373,7.185,0.505,5.942,2.379
	c-1.244,1.873-3.11,2.092-3.869,1.892c0,0-0.9,4.288,3.247,5.366c4.144,1.079,8.22-3.026,6.907-7.577
	c-0.432-1.5-1.942-2.988-3.964-4.031c-3.17-1.637-7.606-2.188-11.146,0c-1.048,0.646-2.017,1.533-2.851,2.7
	c0,0-1.176,1.32-1.797,3.674c-0.622,2.354-3.317,6.241-7.876,7.378c0,0,4.698,2.867,10.915-0.006c0,0,3.355,3.785,9.022,4.854
	c5.664,1.066,4.519-1.767,12.948-0.374c0,0,0.966,0.201,2.624,0.191c1.407-0.012,4.958-0.033,5.997-0.041
	c0,1.155,0.002,4.529,0,5.893c0,0.802,0.049,1.442,0.099,1.888h21.165c-0.289-0.109-0.706-0.33-0.706-0.33s0.566-0.456,2.716-0.825
	c2.152-0.369,2.672,0.109,2.672,0.109c-0.05,0.271-0.335,0.663-0.676,1.046h3.533c1.109-1.82,1.852-3.645,2.01-4.237
	c0.277-1.037,1.174-2.764,1.174-2.764c-2.072,2.003-8.427,3.593-8.427,3.593c-0.899-0.07-1.934-0.207-7.254,0
	c-5.319,0.207-9.395,2.211-10.085,2.556c-0.692,0.346-0.899,0.621-2.765-0.275c-1.865-0.9-1.584-2.35-1.584-2.35v-4.317h0.01v-1.869
	h-0.01v-0.102l-6.722,0.071c0,0-2.354,0.372-3.106-0.977c-0.337-0.695-0.485-1.424-0.34-1.912c0.244-0.817,1.049-1.234,1.265-1.669
	c0.344-0.693,2.348-4.482,2.555-9.804c0.031-0.791,0.052-1.487,0.069-2.102h-0.001c0.09-3.251,0.005-4.237-0.055-4.969h0.001
	l-0.014-0.18c0,0,0.272-1.09,0.731-2.513h-3.966c0.049,0.063,0.451,0.64,0.105,2.667l-0.004,0.025h-0.001
	c-0.368,2.131-0.819,2.695-0.819,2.695s-0.346-0.651-0.391-0.888c-0.043-0.238-0.476-1.106-0.649-1.366
	c-0.074-0.109-0.221-0.268-0.351-0.44c-0.176-0.237-0.315-0.495-0.191-0.683c0.214-0.325,1.591-1.844,2.272-2.01h-3.447
	c-0.094,0.116-0.182,0.232-0.267,0.349c0,0-0.141-0.131-0.396-0.349h-8.126C453.02,8.338,454.986,9.251,456.638,10.534z
	 M463.462,330.416v58.608h2.589v-58.609v-9.275V38.324H226.416h-16.207H38.118v259.94v20.04v70.721v0.001v350.701h172.09h16.207
	h239.636V389.025h-2.589v348.113H226.416h-16.207H40.708V389.025h-0.001v-70.718v-20.039V40.911h169.501h16.207h237.047v280.232
	V330.416z M475.869,75.284c0.464-1.907,1.408-3.489,2.523-4.729h-3.814C474.735,73.449,475.869,75.283,475.869,75.284z
	 M491.436,70.554h8.651c0.536-0.653,1.043-1.479,1.091-1.715c0.065-0.328,0.459-1.085,0.459-1.085
	c0.452,0.547,0.627,1.738,0.613,2.8h1.384c0.068-1.091,0.111-2.095,0.079-2.318c-0.068-0.484-0.068-1.244-0.068-2.833
	c0-1.588-0.484-4.628-0.692-5.388c-0.207-0.76,0.139-0.967-1.037-5.735c-1.174-4.766-5.18-9.05-5.18-9.05
	c1.157-0.831,2.198-2.196,3.032-3.568h-3.533c-0.503,0.568-1.128,1.121-1.323,1.252c-0.326,0.216-0.868-0.37-1.129-0.543
	c-0.261-0.174-1.129-0.607-1.369-0.65c-0.048-0.009-0.112-0.032-0.185-0.059h-21.165c0.053,0.479,0.109,0.735,0.111,0.733
	c1.45,8.429-1.313,8.015-0.209,13.68c1.106,5.665,4.837,8.292,4.837,8.292c-1.063,2.332-1.319,4.449-1.223,6.186h3.814
	c1.552-1.722,3.434-2.786,4.801-3.147c2.349-0.622,3.662-1.797,3.662-1.797c7.599-5.456,3.108-16.648-1.451-17.96
	c-4.56-1.314-8.636,2.762-7.531,6.908c1.106,4.144,5.389,3.246,5.389,3.246c-0.207-0.759,0.001-2.625,1.866-3.87
	c1.865-1.242,4.768,2.142,2.418,5.943c-2.348,3.799-9.947,4.697-12.504-1.451c-1.258-3.027-0.635-7.619,1.61-10.569
	c2.319-3.043,6.413-4.531,10.411-4.146c7.875,0.76,11.606,11.262,9.603,17.824C495.796,64.386,493.618,67.709,491.436,70.554z
	 M500.066,757.144c-0.082-0.482-0.189-0.953-0.321-1.415c-0.042-0.146-0.088-0.289-0.133-0.432
	c-0.165-0.507-0.358-0.998-0.579-1.476l3.647-1.553l-0.528-0.914h-0.002l-1.462-2.532l-3.173,2.493
	c-0.823-1.075-1.805-2.022-2.912-2.806l2.371-3.149l-3.446-1.99l-1.489,3.72c-1.23-0.513-2.551-0.845-3.932-0.967l0.473-3.892h-3.98
	l0.568,3.96c-1.37,0.182-2.676,0.576-3.884,1.144l-1.54-3.616l-3.447,1.989l2.487,3.164c-0.922,0.715-1.749,1.551-2.457,2.482h0.001
	c-0.111,0.146-0.219,0.298-0.326,0.449l-0.599-0.449l-2.566-1.929l-1.114,1.929l-0.875,1.517l3.755,1.505
	c-0.124,0.303-0.238,0.608-0.338,0.922h-0.001c-0.046,0.143-0.091,0.285-0.133,0.431c-0.133,0.462-0.241,0.933-0.323,1.415h0.001
	c-0.066,0.38-0.113,0.766-0.146,1.157l-3.955-0.481v3.979l4.037-0.581c0.046,0.335,0.103,0.666,0.175,0.993h2.801
	c-0.113-0.408-0.201-0.823-0.264-1.248l4.764-0.367c0.076,0.361,0.186,0.71,0.326,1.044l-1.104,0.571h5.64
	c-1.208-0.367-2.092-1.494-2.092-2.82c0-0.898,0.405-1.706,1.041-2.247h0.001c0.514-0.437,1.18-0.7,1.905-0.7
	c0.724,0,1.388,0.262,1.903,0.7h3.49l-0.003-0.008l2.814-1.406h0.003v0l0.864-0.432h-4.217l-0.422,0.289
	c-0.087-0.099-0.177-0.196-0.268-0.289h-8.327c-0.136,0.137-0.263,0.281-0.384,0.431h-0.001c-0.058,0.072-0.114,0.147-0.168,0.221
	l-0.335-0.221h-0.001l-0.652-0.431l-2.98-1.968c0.513-0.73,1.112-1.396,1.789-1.976h-0.002c0.104-0.092,0.213-0.18,0.321-0.265
	l0.181,0.265h2.711l-0.785-1.569c0.922-0.432,1.915-0.733,2.958-0.883l0.188,2.452h0.001l0.178,2.308
	c-0.415,0.082-0.817,0.21-1.197,0.377l-1.342-2.685h-2.711l2.516,3.671c-0.098,0.087-0.195,0.177-0.286,0.271h8.327
	c-0.201-0.204-0.416-0.391-0.644-0.565l2.231-3.378h-0.001l0.39-0.591c0.261,0.185,0.513,0.382,0.755,0.592h0.002
	c0.538,0.462,1.031,0.979,1.468,1.538l-3.511,2.405h4.217l0.578-0.29c0.043,0.098,0.085,0.191,0.127,0.29h-0.001
	c0.06,0.143,0.116,0.286,0.171,0.432h0.001c0.168,0.457,0.306,0.93,0.411,1.415h0.001v0H500.066z M467.185,770.103
	c-0.439-1.372-0.697-2.405-0.697-2.405c0.017-0.204,0.034-0.417,0.053-0.685h-0.001c0.05-0.734,0.088-1.885,0.017-4.464h0.001
	c-0.017-0.616-0.038-1.311-0.069-2.103c-0.207-5.322-2.211-9.11-2.555-9.804c-0.216-0.433-1.021-0.852-1.265-1.669
	c-0.145-0.487,0.003-1.216,0.34-1.912c0.752-1.347,3.106-0.975,3.106-0.975l6.722,0.069v-0.102h0.01v-1.87h-0.01v-4.316
	c0,0-0.281-1.45,1.584-2.35c1.866-0.898,2.073-0.621,2.765-0.276c0.69,0.346,4.766,2.35,10.085,2.557
	c5.32,0.207,6.355,0.069,7.254,0c0,0,6.355,1.59,8.427,3.592c0,0-0.897-1.726-1.174-2.762c-0.158-0.592-0.901-2.421-2.01-4.241
	h-3.533c0.341,0.385,0.626,0.777,0.676,1.05c0,0-0.52,0.475-2.672,0.108c-2.152-0.371-3.222-0.656-3.222-0.656
	s0.799-0.357,1.205-0.503l0,0h-21.158c-0.05,0.448-0.099,1.089-0.099,1.892c0.002,1.363,0,4.737,0,5.892
	c-1.039-0.006-4.59-0.029-5.997-0.04c-1.658-0.011-2.624,0.19-2.624,0.19c-8.429,1.394-7.284-1.44-12.948-0.372
	c-5.667,1.067-9.022,4.854-9.022,4.854c-6.217-2.875-10.915-0.006-10.915-0.006c4.559,1.137,7.254,5.023,7.876,7.376
	c0.621,2.354,1.797,3.674,1.797,3.674c0.836,1.171,1.806,2.055,2.855,2.702h0.001c3.536,2.18,7.964,1.634,11.133,0h0.003
	c2.025-1.045,3.536-2.529,3.969-4.032c1.313-4.55-2.763-8.654-6.907-7.576c-4.147,1.077-3.247,5.367-3.247,5.367
	c0.759-0.202,2.625,0.017,3.869,1.891c1.243,1.874-2.142,4.752-5.942,2.378c-3.799-2.375-4.698-9.98,1.451-12.495
	c3.026-1.235,7.619-0.584,10.568,1.683c3.045,2.337,4.533,6.441,4.146,10.438c-0.109,0.824-0.316,1.604-0.599,2.345h-0.002
	c-0.672,1.747-1.79,3.249-3.183,4.466h0.001c-1.661,1.453-3.711,2.502-5.85,3.089h-0.005c-2.546,0.696-5.222,0.738-7.53,0.017
	l-0.052-0.017h-0.003c-1.78-0.566-3.798-1.715-5.793-3.089h-0.001c-2.008-1.382-3.994-2.992-5.693-4.466
	c-2.838-2.463-4.874-4.542-4.872-4.543c-3.592-3.066-2.756-5.304-2.756-5.304s-1.125,0.746-4.856,1.55
	c-3.729,0.805-6.393,0.035-7.499-0.525c-1.104-0.561-1.508-1.163-2.418-1.603c-0.69-0.219-1.657-0.49-3.247,0.19
	c-1.588,0.68-2.015,1.058-7.68,0.95c-5.228-0.107-7.808-2.129-7.808-2.129v6.26H229.302h-21.977h-94.339v-6.26
	c0,0-2.581,2.023-7.808,2.129c-5.665,0.109-6.092-0.27-7.68-0.95c-1.589-0.679-2.557-0.409-3.247-0.19
	c-0.91,0.441-1.314,1.042-2.418,1.603c-1.106,0.56-3.768,1.33-7.499,0.525c-3.731-0.804-4.855-1.55-4.855-1.55
	s0.838,2.239-2.756,5.304c0,0-2.039,2.079-4.877,4.542h15.142c1.994-1.136,4.355-2.174,7.141-2.984
	c4.276-1.247,9.874-1.482,13.95,0.338v2.647v0.377c0,0-8.563-0.048-19.393,4.089c-2.206,0.843-4.508,1.861-6.85,3.088H81.83
	c-1.578,0.827-3.172,1.749-4.773,2.776c0,0,0.418-1.131,1.536-2.774h0.002c0.619-0.91,1.453-1.973,2.547-3.09
	c1.453-1.48,3.364-3.051,5.846-4.466H71.846c-1.7,1.474-3.685,3.084-5.692,4.466c-1.997,1.375-4.013,2.524-5.795,3.089l-0.052,0.017
	c-2.308,0.72-4.985,0.678-7.531-0.017h-0.003c-2.142-0.587-4.192-1.636-5.852-3.089c-1.393-1.216-2.512-2.717-3.182-4.463h0.001
	c-0.285-0.741-0.489-1.522-0.598-2.347c-0.387-3.997,1.102-8.101,4.146-10.438c2.951-2.267,7.542-2.918,10.567-1.683
	c6.15,2.515,5.251,10.12,1.452,12.495c-3.799,2.374-7.185-0.504-5.942-2.378c1.244-1.874,3.109-2.093,3.869-1.891
	c0,0,0.899-4.29-3.246-5.367c-4.145-1.078-8.222,3.026-6.909,7.576c0.432,1.503,1.94,2.987,3.965,4.032h0.004
	c3.168,1.631,7.593,2.178,11.131,0h0.005c1.048-0.647,2.02-1.531,2.856-2.702c0,0,1.176-1.32,1.797-3.674
	c0.623-2.353,3.317-6.239,7.876-7.376c0,0-4.698-2.869-10.915,0.006c0,0-3.356-3.787-9.021-4.854
	c-5.665-1.068-4.52,1.766-12.949,0.372c0,0-0.967-0.201-2.625-0.19c-1.407,0.011-4.957,0.034-5.997,0.04
	c-0.001-1.155-0.001-4.529,0-5.892c0-0.803-0.05-1.444-0.101-1.892H12.016c0.473,0.111,1.354,0.334,1.354,0.334
	s-1.288,0.454-3.438,0.823c-2.151,0.367-2.672-0.108-2.672-0.108c0.052-0.273,0.333-0.665,0.673-1.05H4.4
	c-1.107,1.82-1.849,3.649-2.004,4.243c-0.277,1.036-1.174,2.762-1.174,2.762c2.072-2.002,8.427-3.592,8.427-3.592
	c0.899,0.069,1.935,0.207,7.254,0c5.319-0.207,9.396-2.211,10.085-2.557c0.692-0.345,0.899-0.622,2.765,0.276
	c1.865,0.9,1.584,2.35,1.584,2.35v4.316h-0.01v1.87h0.01v0.102l6.723-0.069c0,0,2.353-0.372,3.105,0.975
	c0.337,0.696,0.485,1.425,0.338,1.912c-0.243,0.817-1.048,1.236-1.264,1.669c-0.345,0.694-2.348,4.482-2.555,9.804
	c-0.03,0.791-0.054,1.485-0.071,2.1h-0.002c-0.07,2.58-0.033,3.732,0.018,4.466c0.017,0.267,0.038,0.48,0.054,0.685
	c0,0-0.26,1.033-0.7,2.404c-0.65,2.032-1.698,4.803-2.891,6.048c0,0,1.725-0.909,2.762-1.192c1.005-0.277,5.584-2.267,7.624-4.856
	c0.063-0.08,0.124-0.16,0.183-0.24c0,0,0.094,0.087,0.27,0.241h0.001c1.014,0.88,4.721,3.907,8.774,4.878
	c4.767,1.144,4.974,0.796,5.734,0.998c0.761,0.202,3.801,0.666,5.389,0.655c1.59-0.012,2.35-0.017,2.833,0.049
	c0.484,0.066,4.629-0.238,5.389-0.381c0.761-0.145,1.105-0.285,1.451-0.219c0,0,4.837-2.934,10.847-2.836
	c6.01,0.099,9.949,1.937,11.744,2.96l15.891-0.106v-5.998h0.001V767.7h94.339h21.977h161.883v2.402v5.999l15.891,0.106
	c1.796-1.022,5.734-2.861,11.744-2.96c6.011-0.098,10.846,2.836,10.846,2.836c0.347-0.066,0.691,0.075,1.451,0.219
	c0.76,0.143,4.905,0.447,5.389,0.381c0.483-0.067,1.243-0.061,2.833-0.049c1.588,0.011,4.629-0.453,5.389-0.655
	c0.759-0.202,0.966,0.146,5.734-0.998c4.056-0.972,7.759-3.998,8.774-4.878h0.003c0.177-0.154,0.273-0.241,0.273-0.241
	c0.058,0.08,0.118,0.16,0.181,0.24h-0.001c2.039,2.589,6.621,4.58,7.625,4.856c1.036,0.283,2.762,1.192,2.762,1.192
	c-1.195-1.245-2.245-4.016-2.895-6.047H467.185z M500.158,757.75c-0.026-0.204-0.057-0.406-0.091-0.606h-0.001v0h-2.77
	c0.071,0.319,0.125,0.646,0.165,0.975l-4.732,0.483c-0.069-0.509-0.206-0.998-0.397-1.457h-3.49
	c0.636,0.541,1.044,1.349,1.044,2.248c0,1.326-0.885,2.453-2.093,2.82h-0.001c-0.27,0.082-0.556,0.129-0.854,0.129
	c-0.297,0-0.586-0.047-0.856-0.129h-5.64l-2.388,1.234h0.001l-0.737,0.382c-0.059-0.125-0.116-0.253-0.17-0.382h-0.001
	c-0.167-0.4-0.309-0.812-0.426-1.234h-2.801c0.091,0.42,0.202,0.83,0.332,1.234c0.17,0.531,0.374,1.049,0.607,1.55l-1.221,0.55
	h-0.004v0.002l-2.444,1.1l1.995,3.453l3.21-2.587c0.814,1.054,1.781,1.983,2.869,2.755l-2.37,3.291l3.453,1.992l1.492-3.857
	c1.207,0.502,2.504,0.833,3.857,0.959l-0.408,4.039h3.987l-0.636-4.088c1.346-0.173,2.629-0.549,3.821-1.094l1.665,3.698
	l3.453-1.994l-2.594-3.22c1.06-0.807,1.996-1.768,2.775-2.851l3.276,2.36l1.995-3.454l-1.306-0.503h-0.003l-2.514-0.973
	c0.156-0.368,0.293-0.745,0.417-1.128h0.001c0.128-0.403,0.241-0.815,0.332-1.233v-0.001c0.106-0.492,0.186-0.993,0.236-1.503
	l3.977,0.401v-3.967h-0.13L500.158,757.75z M504.17,757.144v-0.02l-0.13,0.02H504.17z M467.185,770.103L467.185,770.103
	L467.185,770.103L467.185,770.103z M4.014,18.945c0.025,0.202,0.053,0.402,0.088,0.604c0.082,0.483,0.19,0.955,0.324,1.415
	c0.042,0.146,0.085,0.289,0.131,0.433h0.001c0.163,0.504,0.358,0.997,0.579,1.475L1.49,24.427l0.528,0.911h8.318
	C9.797,24.876,9.305,24.362,8.87,23.8l3.509-2.403l0.421-0.29c0.087,0.101,0.175,0.196,0.268,0.29h0.001
	c0.201,0.203,0.415,0.392,0.644,0.566l-2.231,3.377h-0.001l-0.391,0.594c-0.261-0.185-0.515-0.384-0.755-0.594H2.018l1.462,2.534
	l3.173-2.494c0.823,1.076,1.806,2.021,2.912,2.805l-2.369,3.148l3.446,1.99l1.489-3.72c1.23,0.512,2.551,0.846,3.932,0.967
	l-0.473,3.893h3.979l-0.568-3.959c1.371-0.184,2.676-0.576,3.884-1.145l1.541,3.614l3.446-1.989l-2.487-3.162
	c0.922-0.716,1.746-1.553,2.454-2.483c0.113-0.149,0.222-0.296,0.329-0.449l0.599,0.449l2.566,1.932l1.114-1.932l0.875-1.517
	l-3.755-1.505c0.124-0.302,0.236-0.608,0.338-0.921h0.001c0.046-0.143,0.088-0.286,0.13-0.432c0.133-0.46,0.241-0.933,0.324-1.415
	c0.065-0.38,0.114-0.766,0.147-1.155l3.955,0.48v-3.98l-4.037,0.579c-0.046-0.334-0.105-0.667-0.176-0.992
	c-0.091-0.42-0.202-0.831-0.332-1.235c-0.171-0.531-0.373-1.048-0.605-1.548l1.218-0.551h0.006v-0.003l2.444-1.1l-1.995-3.451
	l-3.21,2.586c-0.814-1.054-1.781-1.983-2.869-2.753l2.37-3.292L23.823,1.14L22.33,4.998c-1.207-0.503-2.502-0.834-3.857-0.961
	L18.881,0h-3.987l0.638,4.09c-1.347,0.171-2.631,0.548-3.822,1.094l-1.665-3.7L6.592,3.48L9.186,6.7
	C8.126,7.505,7.19,8.466,6.412,9.547l-3.277-2.36L1.14,10.642l1.306,0.503h0.003l2.515,0.974c-0.156,0.368-0.298,0.744-0.42,1.127
	c-0.13,0.404-0.241,0.815-0.332,1.235c-0.105,0.491-0.185,0.992-0.235,1.502L0,15.582v3.967v0.021l0.133-0.021L4.014,18.945z
	 M500.193,15.983c-0.05-0.51-0.13-1.011-0.236-1.502c-0.091-0.42-0.203-0.831-0.332-1.235h-0.001
	c-0.124-0.383-0.261-0.759-0.417-1.127l2.512-0.973h0.006l1.306-0.503l-1.995-3.455l-3.276,2.36
	c-0.779-1.081-1.715-2.042-2.775-2.848l2.594-3.22l-3.453-1.996l-1.665,3.7c-1.192-0.546-2.475-0.923-3.821-1.094L489.276,0h-3.987
	l0.407,4.037c-1.353,0.127-2.65,0.458-3.857,0.961l-1.492-3.858l-3.453,1.994l2.37,3.292c-1.088,0.77-2.055,1.699-2.869,2.753
	l-3.21-2.586l-1.995,3.451l2.444,1.1v0.004h0.008l1.216,0.55c-0.232,0.5-0.437,1.017-0.608,1.548
	c-0.129,0.404-0.239,0.815-0.33,1.235c-0.07,0.325-0.129,0.658-0.175,0.992l-4.037-0.579v3.98l3.955-0.48
	c0.033,0.389,0.081,0.775,0.146,1.155h-0.001c0.082,0.482,0.19,0.955,0.323,1.415c0.042,0.146,0.087,0.289,0.133,0.432h0.001
	c0.1,0.313,0.214,0.619,0.338,0.921l-3.755,1.505l0.875,1.517l1.114,1.932l2.566-1.932l0.599-0.449
	c0.107,0.153,0.215,0.3,0.328,0.449h-0.001c0.706,0.93,1.533,1.767,2.455,2.483l-2.487,3.162l3.447,1.989l1.54-3.614
	c1.208,0.569,2.514,0.961,3.884,1.145l-0.568,3.959h3.98l-0.473-3.893c1.381-0.121,2.702-0.455,3.932-0.967l1.489,3.72l3.446-1.99
	l-2.37-3.148c1.107-0.784,2.089-1.729,2.912-2.805l3.173,2.494l1.462-2.534h-8.319c-0.243,0.21-0.493,0.409-0.754,0.594
	l-0.391-0.594l-2.231-3.377c0.228-0.173,0.442-0.363,0.642-0.565h-8.32l-0.001-0.001h8.323c0.091-0.094,0.182-0.189,0.269-0.29
	l0.422,0.29h0.001l3.51,2.403c-0.437,0.562-0.93,1.076-1.469,1.538h8.319l0.528-0.911l-3.647-1.555
	c0.221-0.478,0.413-0.971,0.578-1.475c0.047-0.144,0.091-0.287,0.133-0.433h-0.001c0.133-0.46,0.241-0.932,0.323-1.415h0.001
	c0.034-0.202,0.065-0.402,0.091-0.604l3.879,0.604l0.133,0.021v-0.021v-3.967L500.193,15.983z M0,757.124v0.02h0.13L0,757.124z
	 M30.536,765.55L30.536,765.55l-0.001-0.001v-0.001h-0.003l-1.22-0.55c0.232-0.501,0.434-1.019,0.605-1.55
	c0.128-0.404,0.241-0.814,0.332-1.234h-2.803c-0.117,0.422-0.261,0.834-0.426,1.234h0.002c-0.053,0.129-0.108,0.257-0.167,0.382
	l-0.737-0.382h-0.001l-2.389-1.234h-5.642c-0.272,0.082-0.557,0.129-0.854,0.129s-0.586-0.047-0.856-0.129
	c-1.21-0.367-2.092-1.494-2.092-2.82c0-0.899,0.405-1.707,1.043-2.248h-3.488c-0.193,0.459-0.328,0.948-0.397,1.457L6.71,758.12
	c0.04-0.329,0.093-0.656,0.162-0.975H4.1c-0.033,0.2-0.061,0.402-0.086,0.606l-3.884-0.606H0v3.967l3.977-0.401
	c0.05,0.51,0.128,1.011,0.235,1.503v0.001c0.091,0.418,0.202,0.83,0.332,1.233c0.122,0.383,0.264,0.76,0.42,1.128l-2.514,0.973
	H2.447l-1.307,0.503l1.995,3.454l3.277-2.36c0.778,1.083,1.714,2.044,2.774,2.851l-2.594,3.22l3.453,1.994l1.665-3.698
	c1.191,0.545,2.475,0.921,3.822,1.094l-0.638,4.088h3.987l-0.408-4.039c1.355-0.126,2.65-0.457,3.857-0.959l1.493,3.857l3.453-1.992
	l-2.37-3.291c1.088-0.772,2.055-1.701,2.869-2.755l3.21,2.587l1.995-3.453l-2.445-1.1H30.536z M493.782,735.68
	c0.261-0.174,0.803-0.758,1.129-0.542c0.195,0.13,0.82,0.68,1.323,1.248h3.533c-0.834-1.37-1.875-2.735-3.032-3.567
	c0,0,4.006-4.283,5.18-9.049c1.176-4.767,0.83-4.975,1.037-5.735c0.208-0.758,0.692-3.798,0.692-5.388c0-1.589,0-2.349,0.068-2.832
	c0.037-0.26-0.026-1.57-0.113-2.848c-0.076-1.107-0.169-2.188-0.232-2.541c-0.139-0.76-0.276-1.105-0.207-1.451
	c0,0-2.903-4.836-2.764-10.846c0.068-2.941,0.548-5.387,1.143-7.327c0.622-2.025,1.368-3.501,1.896-4.417v-15.891h-7.975V389.025
	h-0.001v-56.709v-13.564V113.557h7.975V97.666c-0.528-0.917-1.273-2.393-1.894-4.416c-0.596-1.942-1.077-4.386-1.145-7.328
	c-0.138-6.011,2.764-10.846,2.764-10.846c-0.069-0.346,0.068-0.69,0.207-1.451c0.075-0.409,0.186-1.798,0.266-3.07h-1.384
	c-0.005,0.399-0.034,0.779-0.088,1.1c-0.198,1.177-0.657,1.668-1.051,1.668s-1.372,0.022-2.028-0.207
	c-0.657-0.229-2.084,0.241-2.084,0.241s1.028-1.31,1.324-1.474c0.295-0.164,0.459-0.13,1.148-0.685
	c0.193-0.159,0.406-0.387,0.616-0.643h-8.651c-2.838,3.701-5.685,6.592-5.685,6.593c-3.039,3.593-5.942,2.903-5.942,2.903
	s0.899,0.758,1.727,4.489c0.83,3.73-0.137,6.978-0.69,8.084c-0.115,0.228-0.25,0.433-0.393,0.626
	c-0.547,0.736-1.209,1.243-1.266,1.79c-0.068,0.692-0.553,1.659,0.139,3.247c0.691,1.59,1.727,1.797,1.658,7.462
	c-0.07,5.665-2.004,7.808-2.004,7.808h6.175v205.195v13.564v56.709h0.001v275.469h-6.175c0,0,1.934,2.141,2.004,7.807
	c0.069,5.664-0.968,5.873-1.658,7.461c-0.692,1.59-0.207,2.556-0.139,3.248c0.056,0.548,0.718,1.052,1.267,1.792
	c0.142,0.189,0.278,0.398,0.392,0.625c0.553,1.106,1.52,4.352,0.69,8.083c-0.828,3.73-1.727,4.491-1.727,4.491
	s2.903-0.691,5.942,2.901c0,0,2.581,2.622,5.277,6.065h-0.001c2.314,2.957,4.713,6.518,5.639,9.548
	c2.003,6.563-1.728,17.064-9.603,17.824c-3.998,0.385-8.092-1.103-10.411-4.147c-2.245-2.95-2.868-7.542-1.61-10.568
	c2.557-6.148,10.156-5.249,12.504-1.45c2.35,3.799-0.553,7.185-2.418,5.941s-2.073-3.109-1.866-3.868c0,0-4.283-0.899-5.389,3.245
	c-1.105,4.146,2.971,8.223,7.531,6.909c4.559-1.314,9.05-12.505,1.451-17.961c0,0-1.313-1.176-3.662-1.797
	c-1.5-0.397-3.62-1.642-5.245-3.676c-0.918-1.149-1.677-2.552-2.078-4.198c0,0-0.996,1.612-1.251,4.197h-0.001
	c-0.181,1.828,0.011,4.143,1.183,6.716c0,0-3.731,2.625-4.837,8.29c-1.104,5.665,1.659,5.251,0.209,13.68
	c0,0-0.056,0.256-0.109,0.733h21.159v0.001c0.083-0.029,0.151-0.049,0.191-0.056C492.651,736.285,493.521,735.853,493.782,735.68z
	 M32.447,751.354l-1.114-1.929l-2.566,1.929l-0.599,0.449c-0.107-0.151-0.217-0.303-0.328-0.449h-3.715
	c0.675,0.58,1.278,1.246,1.791,1.976l-2.98,1.968h0.001l-0.652,0.431h-0.001l-0.335,0.221c-0.054-0.075-0.111-0.149-0.169-0.22
	c-0.122-0.151-0.251-0.294-0.385-0.432h-8.327c-0.091,0.093-0.179,0.19-0.266,0.289l-0.423-0.289H8.163l0.862,0.432h0.002
	l2.815,1.406l-0.003,0.008h3.488c0.515-0.437,1.181-0.7,1.905-0.7s1.389,0.262,1.903,0.7c0.637,0.541,1.043,1.349,1.043,2.247
	c0,1.326-0.885,2.453-2.093,2.82h5.642l-1.104-0.571c0.141-0.334,0.251-0.683,0.328-1.044l4.763,0.367
	c-0.063,0.425-0.154,0.84-0.267,1.248h2.802c0.071-0.327,0.13-0.658,0.176-0.993l4.037,0.581v-3.979l-3.955,0.481
	c-0.033-0.391-0.082-0.777-0.147-1.157v-0.001c-0.082-0.482-0.192-0.952-0.323-1.414c-0.042-0.146-0.085-0.288-0.131-0.431h-0.001
	c-0.102-0.314-0.214-0.619-0.338-0.922l3.755-1.505L32.447,751.354z M6.653,751.315l-3.173-2.493l-1.462,2.532l-0.528,0.914
	l3.647,1.553c-0.221,0.478-0.416,0.969-0.581,1.476c-0.045,0.143-0.089,0.286-0.131,0.432c-0.133,0.462-0.242,0.933-0.325,1.415
	h2.772c0.105-0.485,0.244-0.958,0.414-1.415H7.285c0.054-0.146,0.11-0.289,0.17-0.432h0.001c0.04-0.099,0.085-0.192,0.128-0.29
	l0.579,0.29h4.215l-3.509-2.405c0.436-0.559,0.926-1.076,1.463-1.538H10.33c0.244-0.21,0.498-0.407,0.759-0.592l0.391,0.592h0.001
	l2.231,3.378c-0.229,0.174-0.445,0.361-0.646,0.565h8.327c-0.093-0.094-0.187-0.184-0.284-0.271l2.517-3.672h-2.711l-1.342,2.685
	c-0.38-0.167-0.782-0.295-1.199-0.377l0.18-2.308h-0.002l0.189-2.452c1.042,0.15,2.036,0.451,2.958,0.883l-0.785,1.569h2.711
	l0.181-0.265c0.108,0.085,0.215,0.173,0.32,0.265h3.714c-0.707-0.931-1.533-1.767-2.455-2.482l2.487-3.164l-3.446-1.989
	l-1.541,3.616c-1.208-0.568-2.513-0.962-3.884-1.144l0.568-3.96H15.59l0.473,3.892c-1.381,0.122-2.702,0.454-3.932,0.967
	l-1.489-3.72l-3.446,1.99l2.369,3.149C8.459,749.293,7.476,750.24,6.653,751.315z"/>
</svg>
