<?xml version="1.0" encoding="utf-8"?>
<!-- Generator: Adobe Illustrator 17.0.0, SVG Export Plug-In . SVG Version: 6.00 Build 0)  -->
<!DOCTYPE svg PUBLIC "-//W3C//DTD SVG 1.1//EN" "http://www.w3.org/Graphics/SVG/1.1/DTD/svg11.dtd">
<svg version="1.1"
	 id="svg2" xmlns:svg="http://www.w3.org/2000/svg" inkscape:export-xdpi="521" inkscape:export-filename="C:\Dokumente und Einstellungen\jischa\Desktop\symbole verkehr v4 2.png" xmlns:inkscape="http://www.inkscape.org/namespaces/inkscape" xmlns:rdf="http://www.w3.org/1999/02/22-rdf-syntax-ns#" xmlns:cc="http://creativecommons.org/ns#" xmlns:dc="http://purl.org/dc/elements/1.1/" xmlns:sodipodi="http://sodipodi.sourceforge.net/DTD/sodipodi-0.dtd" inkscape:export-ydpi="521" sodipodi:docname="symbole verkehr v 5 1.svg" inkscape:version="0.48.0 r9654"
	 xmlns="http://www.w3.org/2000/svg" xmlns:xlink="http://www.w3.org/1999/xlink" x="0px" y="0px" width="89.114px"
	 height="79.223px" viewBox="0 0 89.114 79.223" enable-background="new 0 0 89.114 79.223" xml:space="preserve">
<path id="path5823" inkscape:connector-curvature="0" fill="#08A1EF" d="M0.001,76.469v-2.753h3.484h3.483v-1.854v-1.853h5.113
	h5.113v1.853v1.854h7.585h7.585v-1.854v-1.853h28.375h28.375v1.853c0,1.408-0.034,1.854-0.141,1.854
	c-0.077,0-0.823,0.051-1.658,0.111c-0.834,0.061-3.741,0.213-6.461,0.339c-9.771,0.45-15.522,0.936-20.627,1.743
	c-4.352,0.688-7.307,1.461-11.323,2.964l-0.936,0.35H23.984H0L0.001,76.469L0.001,76.469L0.001,76.469L0.001,76.469z M15.004,67.868
	c-4.702-0.047-7.515-0.118-7.893-0.199c-0.789-0.169-1.308-0.448-2.293-1.232c-2.237-1.779-4.237-5.317-4.615-8.163
	c-0.182-1.366-0.179-10.592,0.015-15.291c0.409-10.491,1.223-14.602,4.907-24.779c1.868-5.16,2.483-6.476,3.529-7.539l0.628-0.639
	l6.855-0.069c3.77-0.039,7.447-0.102,8.173-0.14l1.317-0.069l-0.556-1.081c-1.493-2.905-4.892-5.854-7.256-6.296
	c-0.306-0.057-1.554-0.14-2.774-0.185l-2.22-0.081V1.053V0h14.44H41.7v1.05v1.051l-1.892,0.076
	c-3.035,0.124-3.866,0.331-5.366,1.338c-1.739,1.168-3.26,2.718-4.158,4.239c-0.508,0.861-0.903,1.763-0.813,1.854
	c0.027,0.027,2.88,0.134,6.338,0.236c5.015,0.149,6.36,0.22,6.651,0.354c0.201,0.092,0.549,0.416,0.772,0.722
	c0.439,0.597,1.922,3.787,3.204,6.888c2.761,6.68,6.365,12.718,10.165,17.029c1.951,2.213,5.762,5.826,7.857,7.449
	c2.64,2.046,6.699,4.482,10.113,6.068c4.133,1.92,7.132,2.968,11.969,4.181l2.303,0.578l0.076,0.947
	c0.042,0.521,0.111,3.426,0.156,6.454c0.086,5.869,0.052,6.392-0.434,7.107l-0.248,0.365l-33.039-0.022
	c-18.171-0.013-36.325-0.054-40.343-0.094L15.004,67.868z M87.149,60.653c0.038-0.201,0.05-1.528,0.032-2.95l-0.032-2.584
	l-1.012-0.25c-0.556-0.137-1.1-0.25-1.208-0.253c-0.183,0-0.196,0.215-0.196,3.025v3.029l0.365,0.065
	c0.357,0.064,1.58,0.241,1.849,0.269c0.075,0.009,0.165-0.15,0.201-0.352h0.001L87.149,60.653L87.149,60.653z M82.654,57.19v-3.191
	l-1.602-0.461l-1.6-0.461v3.453v3.453l0.983,0.139c0.54,0.076,1.21,0.177,1.488,0.223s0.557,0.073,0.618,0.06
	C82.614,60.389,82.654,59.226,82.654,57.19L82.654,57.19z M77.428,57.282c-0.001-3.402-0.101-4.921-0.326-4.999
	c-0.1-0.034-0.956-0.357-1.906-0.72c-0.95-0.362-1.778-0.659-1.841-0.659c-0.119,0-0.074,7.803,0.045,7.922
	c0.069,0.068,3.518,0.819,3.832,0.834C77.413,59.67,77.428,59.485,77.428,57.282L77.428,57.282z M70.726,57.394
	c0.05-0.47,0.241-6.16,0.241-7.257c0-0.228-0.323-0.428-2.501-1.542l-2.5-1.28v4.583v4.584l2.275,0.744
	c1.252,0.409,2.308,0.747,2.348,0.751C70.628,57.986,70.689,57.718,70.726,57.394L70.726,57.394z M63.195,51.897
	c0.041-2.049,0.075-4.296,0.075-4.992v-1.266l-1.418-0.974c-0.779-0.535-1.93-1.374-2.557-1.862
	c-0.626-0.489-1.177-0.889-1.224-0.889c-0.048,0-0.072,2.563-0.058,5.694l0.028,5.694l2.416,1.15
	c1.329,0.633,2.472,1.155,2.539,1.16c0.084,0.01,0.144-1.141,0.196-3.717h0.003V51.897z M10.498,52.36
	c0.765-0.382,1.487-1.118,1.845-1.88c0.252-0.54,0.301-0.797,0.301-1.599c0-0.8-0.047-1.059-0.3-1.595
	c-0.633-1.35-1.795-2.126-3.296-2.202c-1.24-0.063-2.015,0.232-2.875,1.091c-0.787,0.788-1.114,1.582-1.114,2.706
	c0,1.125,0.327,1.918,1.115,2.707c0.865,0.865,1.546,1.127,2.817,1.081C9.733,52.642,10.071,52.573,10.498,52.36z M37.912,52.313
	c2.344-1.188,2.838-4.28,0.981-6.138c-0.86-0.859-1.635-1.153-2.875-1.091c-1.499,0.076-2.581,0.775-3.225,2.084
	c-0.883,1.793-0.294,3.936,1.36,4.955c0.774,0.477,1.163,0.572,2.201,0.546C37.101,52.65,37.367,52.59,37.912,52.313L37.912,52.313z
	 M54.729,46.663c0.001-2.643,0.033-5.445,0.073-6.229l0.072-1.425l-1.507-1.553c-1.283-1.322-2.45-2.654-4.224-4.822l-0.36-0.44
	l0.055,2.359c0.246,10.99,0.372,13.91,0.606,14.146c0.124,0.124,5.079,2.757,5.2,2.763c0.048,0,0.085-2.157,0.086-4.799
	L54.729,46.663L54.729,46.663z M42.927,29.525c-0.015-1.227-0.638-4.021-1.674-7.445c-1.268-4.19-2.012-5.977-2.881-6.904
	l-0.531-0.568H23.834H9.826l-0.398,0.534c-0.762,1.021-1.456,2.342-2.12,4.032c-0.996,2.537-1.479,4.192-2.4,8.23l-0.49,2.15
	l3.439,0.016c6.375,0.03,29.6,0.163,32.348,0.186l2.725,0.023v-0.253L42.927,29.525L42.927,29.525z M27.824,8.118
	c0.441-1.507,0.548-1.789,0.901-2.392c0.405-0.691,1.003-1.407,2.226-2.665l0.792-0.814h-4.307H23.13l1.116,1.208
	c0.613,0.665,1.278,1.45,1.479,1.746c0.434,0.641,1.158,2.093,1.358,2.721C27.415,8.964,27.565,9.004,27.824,8.118z"/>
</svg>
