<?xml version="1.0" encoding="iso-8859-1"?>
<!-- Generator: Adobe Illustrator 17.0.0, SVG Export Plug-In . SVG Version: 6.00 Build 0)  -->
<!DOCTYPE svg PUBLIC "-//W3C//DTD SVG 1.1//EN" "http://www.w3.org/Graphics/SVG/1.1/DTD/svg11.dtd">
<svg version="1.1" id="Objects1" xmlns="http://www.w3.org/2000/svg" xmlns:xlink="http://www.w3.org/1999/xlink" x="0px" y="0px"
	 width="93.879px" height="200.812px" viewBox="0 0 93.879 200.812" style="enable-background:new 0 0 93.879 200.812;"
	 xml:space="preserve">
<g>
	<path style="fill:#F9BB14;" d="M46.844,122.347H34.455c-0.013,0.081-0.027,0.166-0.039,0.244h-1.386
		c-0.998,0-1.806,0.713-1.806,1.594c0,0,0.619,2.343,1.44,2.934h14.181V122.347z"/>
	<path style="fill:#774939;" d="M32.663,127.119c0.119,0.085,0.24,0.134,0.366,0.134h0.598c-1.882,9.819-5.984,20.859-10.701,31.336
		h13.625c0.723-2.744,4.52-17.313,4.763-21.419h5.465h0.064v-10.051H32.663z"/>
	<path style="fill:#F9BB14;" d="M46.844,0h-0.064H46.6v7.834c-0.276,0.109-0.474,0.359-0.474,0.651v7.287h-0.542
		c-0.711,0-1.286,0.508-1.286,1.131c0,0.197,0.054,0.381,0.148,0.546H43.87c-1,0-1.811,0.713-1.811,1.59v1.112
		c0,0.261,0.077,0.508,0.203,0.725c-0.71,0.221-1.216,0.813-1.216,1.506c0,0,0.719,5.687,1.637,6.348h4.162V0z"/>
	<path style="fill:#0D99A1;" d="M42.682,28.732c0.057,0.041,0.114,0.067,0.171,0.067h0.235c0.249,35.031-6.727,81.517-8.634,93.549
		h12.389V28.732H42.682z"/>
	<path style="fill:#0D99A1;" d="M18.462,168.019C9.433,186.262,0,200.812,0,200.812h18.797h0.905
		c0.331-13.712,12.311-24.727,27.078-24.808c0.021,0,0.043-0.001,0.064-0.001v-7.985H18.462z"/>
	<path style="fill:#F9BB14;" d="M46.844,159.038h-0.064H36.433c0,0,0.042-0.16,0.119-0.449H22.926
		c-0.031,0.067-0.06,0.135-0.091,0.202h-4.312v9.106c-0.019,0.04-0.04,0.081-0.061,0.121h28.382V159.038z"/>
	<path style="fill:#E2AA15;" d="M75.232,167.642v-8.85h-4.189c-0.031-0.067-0.061-0.135-0.091-0.202H57.276
		c0.059,0.162,0.114,0.312,0.169,0.449H46.959h-0.116v8.98h28.576C75.357,167.892,75.294,167.768,75.232,167.642z"/>
	<path style="fill:#0B8C92;" d="M75.419,168.019H46.844v7.985c0.032-0.001,0.064-0.001,0.097-0.001c0.004,0,0.009,0,0.019,0
		c14.829,0.008,26.884,11.061,27.219,24.809h1.367h18.334C93.879,200.812,84.452,186.255,75.419,168.019z"/>
	<path style="fill:#E2AA15;" d="M52.831,22.383c0-0.693-0.504-1.285-1.212-1.506c0.128-0.217,0.198-0.463,0.198-0.725v-1.112
		c0-0.878-0.81-1.59-1.801-1.59h-0.584c0.092-0.165,0.149-0.349,0.149-0.546c0-0.624-0.573-1.131-1.29-1.131h-0.537V8.486
		c0-0.292-0.192-0.542-0.472-0.651V0h-0.321h-0.116v28.732h4.357C52.119,28.07,52.831,22.383,52.831,22.383z"/>
	<path style="fill:#0B8C92;" d="M59.426,122.347c-1.909-12.032-8.885-58.518-8.633-93.549h0.236c0.059,0,0.116-0.026,0.171-0.067
		h-4.357v93.616H59.426z"/>
	<path style="fill:#E2AA15;" d="M62.806,124.185c0-0.881-0.809-1.594-1.811-1.594h-1.53c-0.013-0.078-0.026-0.163-0.039-0.244
		H46.844v4.771h14.52C62.188,126.528,62.806,124.185,62.806,124.185z"/>
	<path style="fill:#694031;" d="M60.252,127.253h0.743c0.127,0,0.25-0.049,0.368-0.134h-14.52v10.051h0.116h5.465
		c0,0,3.058,16.373,4.851,21.419h13.676C66.24,148.111,62.133,137.071,60.252,127.253z"/>
</g>
</svg>
