<?xml version="1.0" encoding="utf-8"?>
<!-- Generator: Adobe Illustrator 17.0.0, SVG Export Plug-In . SVG Version: 6.00 Build 0)  -->
<!DOCTYPE svg PUBLIC "-//W3C//DTD SVG 1.1//EN" "http://www.w3.org/Graphics/SVG/1.1/DTD/svg11.dtd">
<svg version="1.1" id="图层_1" xmlns="http://www.w3.org/2000/svg" xmlns:xlink="http://www.w3.org/1999/xlink" x="0px" y="0px"
	 width="31.125px" height="33.344px" viewBox="0 0 31.125 33.344" enable-background="new 0 0 31.125 33.344" xml:space="preserve">
<path fill="#44A329" d="M5.351,3.792c1.684-0.484,3.167,1.035,3.227,3.256c1.519-0.26,2.887,0.052,3.963,1.162
	c1.079,1.114,1.346,2.446,0.926,3.982c1.53-0.282,2.88-0.015,3.968,1.038c1.091,1.056,1.416,2.345,1.079,3.869
	c1.526-0.369,2.923-0.173,4.091,0.871c1.181,1.056,1.498,2.391,1.197,3.966c1.324-0.127,2.437,0.188,3.151,1.32
	c0.327,0.517,0.482,1.08,0.403,1.839C19.099,18.811,11.814,11.741,5.351,3.792z M31.137,29.677c-3.158,0.67-6.306,0.684-9.476,0.161
	c0.764-3.46-0.223-6.175-3.39-7.954c-2.241-1.259-5.749-1.204-8.312,1.319c-0.113-0.08-0.231-0.163-0.348-0.248
	c-0.768-0.554-1.617-0.918-2.566-1.075c-0.201-0.033-0.424-0.158-0.559-0.307C3.267,18.012,1.236,13.9,0.385,9.234
	C0.014,7.195-0.086,5.145,0.056,3.087c0.071-1.019,0.247-2.031,0.376-3.046c0.056-0.012,0.113-0.025,0.169-0.037
	C9.109,11.501,19.292,21.373,31.137,29.677z M3.034,24.018c1.928-1.632,5.128-1.572,6.991,0.923c2.285-3.48,6.74-3.41,9.071-1.13
	c2.354,2.302,2.228,6.022-0.276,8.173c-2.439,2.095-6.977,1.949-9.004-1.753c-2.273,2.566-5.659,1.958-7.239,0.184
	C0.896,28.528,1.085,25.668,3.034,24.018z M13.982,25.038c-0.476,0.009-0.872,0.413-0.861,0.879c0.011,0.46,0.381,0.808,0.865,0.811
	c0.51,0.004,0.877-0.347,0.876-0.837C14.861,25.417,14.459,25.028,13.982,25.038z M18.219,25.316
	c-0.429-0.012-0.833,0.364-0.847,0.789c-0.014,0.438,0.344,0.793,0.807,0.8c0.488,0.008,0.818-0.297,0.826-0.763
	C19.012,25.69,18.669,25.329,18.219,25.316z M14.311,30.872c1.098,0.639,2.223,0.619,3.294-0.062
	c0.86-0.547,1.306-1.339,1.339-2.361c-2.051,0-4.047,0-6.098,0C12.938,29.515,13.394,30.338,14.311,30.872z M3.927,25.035
	c-0.348,0-0.612,0.268-0.602,0.612c0.01,0.331,0.256,0.558,0.604,0.557c0.348,0,0.594-0.228,0.602-0.559
	C4.54,25.302,4.275,25.034,3.927,25.035z M7.388,25.549c-0.395,0.006-0.716,0.314-0.713,0.685c0.003,0.378,0.318,0.672,0.72,0.674
	c0.41,0.002,0.716-0.276,0.725-0.661C8.13,25.845,7.813,25.543,7.388,25.549z M4.904,30.091c1.371,0.303,2.743-0.545,3.019-1.926
	c-1.634-0.28-3.267-0.56-4.897-0.839C2.718,28.535,3.6,29.803,4.904,30.091z"/>
</svg>
