<?xml version="1.0" encoding="utf-8"?>
<!-- Generator: Adobe Illustrator 17.0.0, SVG Export Plug-In . SVG Version: 6.00 Build 0)  -->
<!DOCTYPE svg PUBLIC "-//W3C//DTD SVG 1.1//EN" "http://www.w3.org/Graphics/SVG/1.1/DTD/svg11.dtd">
<svg version="1.1" id="图层_3" xmlns="http://www.w3.org/2000/svg" xmlns:xlink="http://www.w3.org/1999/xlink" x="0px" y="0px"
	 width="276.867px" height="343.577px" viewBox="1.003 0 276.867 343.577" enable-background="new 1.003 0 276.867 343.577"
	 xml:space="preserve">
<g id="Earphones">
	<g>
		<g>
			<g>
				<path fill="#E4E4E4" d="M10.528,73.663v5.921c-0.51,0.076-1.107,0.121-1.746,0.124c-0.023,0.002-0.045,0.002-0.07,0.002
					c-0.463,0-0.911-0.025-1.316-0.065c-0.175-0.016-0.342-0.037-0.5-0.061v-5.921H10.528z"/>
				<path opacity="0.2" fill="#FFFFFF" enable-background="new    " d="M8.782,73.663v6.045c-0.023,0.002-0.045,0.002-0.07,0.002
					c-0.463,0-0.911-0.025-1.316-0.065v-5.982C7.396,73.663,8.782,73.663,8.782,73.663z"/>
				<path opacity="0.05" enable-background="new    " d="M6.896,73.663v1.705c0.581,0.042,1.195,0.065,1.83,0.065
					c0.043,0,0.085,0,0.128-0.002c0.581-0.002,1.141-0.023,1.674-0.061v-1.707C10.528,73.663,6.896,73.663,6.896,73.663z"/>
			</g>
			<g>
				<path fill="#F0F0F0" d="M12.113,37.09v37.196c-0.954,0.144-2.066,0.227-3.259,0.232C8.811,74.52,8.769,74.52,8.726,74.52
					c-0.868,0-1.701-0.043-2.46-0.119c-0.324-0.031-0.634-0.069-0.93-0.115V37.09H12.113z"/>
				<path opacity="0.2" fill="#FFFFFF" enable-background="new    " d="M8.854,39.229v35.289C8.811,74.52,8.769,74.52,8.726,74.52
					c-0.868,0-1.701-0.043-2.46-0.119V39.229H8.854z"/>
				<path opacity="0.05" enable-background="new    " d="M12.157,39.229v6.054c-2.586-0.408-4.921-1.564-6.776-3.243v-2.81
					L12.157,39.229L12.157,39.229z"/>
			</g>
			<g>
				<path fill="#F0F0F0" d="M29.087,25.164c-2.846-4.81-9.4-8.2-14.915-8.2c-7.273,0-13.169,5.896-13.169,13.168
					c0,7.273,5.896,13.169,13.169,13.169c5.515,0,12.069-3.39,14.915-8.201c0.907-1.533,0.755-3.21,0.755-4.968
					C29.843,28.375,29.994,26.698,29.087,25.164z"/>
				<path fill="#B1B1B1" d="M10.692,28.598H6.845c-0.847,0-1.535,0.687-1.535,1.535c0,0.849,0.688,1.536,1.535,1.536h3.847
					c0.848,0,1.535-0.687,1.535-1.536C12.227,29.285,11.54,28.598,10.692,28.598z"/>
				<path opacity="0.1" enable-background="new    " d="M7.536,31.667H6.845c-0.846,0-1.535-0.688-1.535-1.535
					c0-0.848,0.689-1.534,1.535-1.534h0.691c-0.846,0-1.535,0.686-1.535,1.534C6.001,30.979,6.69,31.667,7.536,31.667z"/>
				<g>
					<path fill="#B1B1B1" d="M29.434,26.669v6.928c0,0.444-0.164,0.844-0.427,1.125c-0.234,0.254-0.552,0.41-0.9,0.41
						c-0.734,0-1.329-0.689-1.329-1.535v-6.928c0-0.849,0.594-1.535,1.329-1.535c0.348,0,0.666,0.155,0.9,0.409
						C29.27,25.822,29.434,26.223,29.434,26.669z"/>
					<path opacity="0.2" fill="#FFFFFF" enable-background="new    " d="M29.434,26.669v6.928c0,0.846-0.594,1.535-1.327,1.535
						c-0.35,0-0.667-0.156-0.901-0.41c0.263-0.281,0.427-0.682,0.427-1.125v-6.928c0-0.445-0.164-0.847-0.427-1.126
						c0.234-0.255,0.551-0.409,0.901-0.409C28.84,25.134,29.434,25.82,29.434,26.669z"/>
					<path opacity="0.5" fill="#FFFFFF" enable-background="new    " d="M28.007,35.125c-0.04,0.005-0.083,0.007-0.126,0.007
						c-0.733,0-1.328-0.689-1.328-1.535v-6.928c0-0.849,0.594-1.535,1.328-1.535c0.043,0,0.086,0.002,0.126,0.007
						c-0.689,0.057-1.229,0.717-1.229,1.528v6.928C26.778,34.406,27.319,35.069,28.007,35.125z"/>
				</g>
			</g>
		</g>
		<g>
			<g>
				<g>
					<path fill="#E4E4E4" d="M81.22,56.962v5.921c-0.51,0.076-1.107,0.121-1.746,0.123c-0.023,0.002-0.046,0.002-0.07,0.002
						c-0.464,0-0.911-0.025-1.317-0.064c-0.175-0.016-0.341-0.037-0.499-0.061v-5.921H81.22z"/>
					<path opacity="0.2" fill="#FFFFFF" enable-background="new    " d="M79.474,56.962v6.044c-0.023,0.002-0.046,0.002-0.07,0.002
						c-0.464,0-0.911-0.025-1.317-0.064v-5.982H79.474z"/>
					<path opacity="0.05" enable-background="new    " d="M77.588,56.962v1.705c0.581,0.043,1.195,0.065,1.83,0.065
						c0.043,0,0.086,0,0.128-0.002c0.581-0.001,1.141-0.022,1.674-0.061v-1.707H77.588z"/>
				</g>
				<path fill="#F0F0F0" d="M82.804,20.387v37.197c-0.954,0.144-2.066,0.227-3.259,0.231c-0.043,0.003-0.085,0.003-0.128,0.003
					c-0.869,0-1.702-0.043-2.46-0.12c-0.324-0.031-0.635-0.07-0.93-0.114V20.387H82.804z"/>
			</g>
			<path fill="#F0F0F0" d="M89.742,0C78.059,0,76.028,16.2,76.028,20.387c0,3.272,4.139,1.43,5.947,0.469
				c1.737,3.319,4.568,5.483,7.767,5.483c5.284,0,9.568-5.896,9.568-13.17C99.31,5.897,95.027,0,89.742,0z"/>
			<path opacity="0.2" fill="#FFFFFF" enable-background="new    " d="M77.873,13.93c-1.2,4.296-0.915,43.769-0.915,43.769
				c0.758,0.077,1.591,0.12,2.46,0.12c0.043,0,0.086,0,0.128-0.003V16.81C79.546,16.81,78.447,15.808,77.873,13.93z"/>
			<path fill="#B1B1B1" d="M91.031,15.49v-5.487c0-1.652-1.339-2.99-2.991-2.99c-1.651,0-2.989,1.338-2.989,2.99v5.487
				c0,1.65,1.338,2.989,2.989,2.989C89.692,18.48,91.031,17.141,91.031,15.49z"/>
			<path opacity="0.1" enable-background="new    " d="M85.053,11.347v-1.345c0-1.649,1.341-2.989,2.989-2.989
				c1.652,0,2.988,1.341,2.988,2.989v1.345c0-1.648-1.337-2.988-2.988-2.988C86.394,8.358,85.053,9.699,85.053,11.347z"/>
			<g>
				<path fill="#B1B1B1" d="M98.339,14.68H98.33c-0.281,0-0.534-0.187-0.713-0.486c-0.161-0.267-0.259-0.628-0.259-1.024
					c0-0.834,0.436-1.51,0.971-1.51h0.009c0.537,0,0.972,0.676,0.972,1.51c0,0.396-0.099,0.757-0.259,1.024
					C98.875,14.493,98.621,14.68,98.339,14.68z"/>
			</g>
			<g opacity="0.2">
				<path fill="#FFFFFF" d="M99.31,13.17c0,0.396-0.098,0.757-0.259,1.022c-0.177,0.302-0.431,0.489-0.713,0.489h-0.009
					c-0.068,0-0.135-0.01-0.199-0.033c0.2-0.065,0.38-0.226,0.513-0.455c0.16-0.265,0.258-0.625,0.258-1.022
					c0-0.73-0.33-1.336-0.772-1.48c0.064-0.02,0.131-0.03,0.199-0.03h0.009C98.876,11.66,99.31,12.335,99.31,13.17z"/>
			</g>
			<path opacity="0.05" enable-background="new    " d="M82.804,22.232v2.121c0,0-2.45-1.722-2.45-5.873
				C80.354,18.48,80.757,19.974,82.804,22.232z"/>
		</g>
		<g>
			<g>
				<path fill="#F0F0F0" d="M164.873,198.024c0,1.268-1.037,2.304-2.304,2.304H158.6c-1.267,0-2.304-1.037-2.304-2.304v-48.116
					c0-1.268,1.037-2.305,2.304-2.305h3.969c1.268,0,2.304,1.037,2.304,2.305V198.024z"/>
			</g>
			<rect x="158.817" y="140.743" fill="#E4E4E4" width="3.534" height="6.861"/>
			<rect x="158.817" y="146.2" opacity="0.05" enable-background="new    " width="3.534" height="1.404"/>
			<rect x="158.817" y="200.329" fill="#E4E4E4" width="3.534" height="6.861"/>
			<rect x="158.817" y="200.329" opacity="0.05" enable-background="new    " width="3.534" height="1.404"/>
			<path fill="#E4E4E4" d="M163.608,183.409c0,0.951-0.778,1.729-1.728,1.729h-2.593c-0.95,0-1.729-0.778-1.729-1.729v-18.627
				c0-0.951,0.778-1.728,1.729-1.728h2.593c0.95,0,1.728,0.778,1.728,1.728V183.409z"/>
			<path opacity="0.05" enable-background="new    " d="M163.608,164.782v0.576c0-0.951-0.778-1.729-1.728-1.729h-2.593
				c-0.95,0-1.729,0.778-1.729,1.729v-0.576c0-0.951,0.778-1.728,1.729-1.728h2.593
				C162.831,163.054,163.608,163.831,163.608,164.782z"/>
			<rect x="158.998" y="155.013" fill="#CFCFD1" width="3.172" height="0.288"/>
			<rect x="158.998" y="192.507" fill="#CFCFD1" width="3.172" height="0.288"/>
			<rect x="160.44" y="153.572" fill="#CFCFD1" width="0.288" height="3.171"/>
		</g>
		<g>
			<path fill="#F0F0F0" d="M108.365,184.636c-0.075,0-0.149-0.001-0.225-0.004c-5.122-0.205-12.598-3.702-20.513-9.594
				c-8.064-6.003-15.299-13.597-19.848-20.835c-5.253-8.356-6.827-14.284-5.263-19.821c1.553-5.499,6.218-10.56,15.599-16.924
				c6.051-4.104,8.974-8,9.198-12.258c0.201-3.817-1.771-7.62-3.859-11.647c-1.049-2.023-2.133-4.114-2.98-6.289
				c-4.092-10.511-2.48-20.602-2.256-21.856v-2.4h2.37v2.622l-0.022,0.111c-0.019,0.101-1.908,10.328,2.116,20.663
				c0.801,2.056,1.855,4.09,2.876,6.058c4.302,8.297,8.75,16.876-6.113,26.957c-8.761,5.943-13.279,10.756-14.649,15.607
				c-1.363,4.827,0.129,10.185,4.989,17.916c9.648,15.349,29.206,28.952,38.45,29.322c0.038,0.002,0.077,0.002,0.115,0.002
				c4.398,0,7.867-10.117,11.222-19.904c3.43-10.004,6.977-20.348,12.596-25.773c10.567-10.202,18.524-14.272,23.654-12.095
				c4.098,1.74,6.09,7.055,6.09,16.249h-2.37c0-7.913-1.607-12.777-4.647-14.068c-4.111-1.746-11.402,2.272-21.082,11.618
				c-5.208,5.029-8.817,15.552-12,24.837C117.861,174.659,114.44,184.635,108.365,184.636z"/>
		</g>
		<g>
			<path fill="#F0F0F0" d="M84.233,251.679l-2.369-0.064c0.056-2.04-0.164-10.752-0.395-19.975
				c-0.267-10.591-0.569-22.595-0.516-26.99c0.016-1.296,0.204-2.779,0.402-4.348c0.602-4.752,1.352-10.666-2.269-15.21
				c-3.251-4.079-9.735-6.628-19.273-7.575c-1.401-0.139-2.735-0.278-4.008-0.419c-8.489,5.544-25.18,9.553-33.927,9.899
				c-3.533,0.139-5.961-0.625-7.422-2.338c-2.436-2.857-1.505-7.49-0.52-12.395c0.073-0.363,0.146-0.726,0.218-1.091
				c1.846-9.356,5.06-15.983,10.111-20.858c2.197-2.12,3.04-3.179,3.218-4.046c0.169-0.821-0.23-1.755-1.146-3.788
				c-0.464-1.029-1.041-2.31-1.663-3.914c-0.972-2.509-2.566-6.368-4.413-10.837c-3.95-9.562-8.865-21.461-10.864-27.827
				c-2.953-9.404-1.91-19.875-1.864-20.316l2.357,0.245c-0.011,0.103-1.035,10.435,1.768,19.362
				c1.968,6.267,6.862,18.113,10.794,27.632c1.851,4.482,3.45,8.353,4.432,10.886c0.598,1.544,1.161,2.792,1.613,3.796
				c0.986,2.187,1.637,3.632,1.307,5.239c-0.329,1.6-1.569,3.032-3.893,5.275c-4.687,4.522-7.684,10.754-9.432,19.611
				c-0.072,0.367-0.146,0.733-0.219,1.099c-0.868,4.325-1.689,8.41,0,10.391c0.945,1.108,2.802,1.617,5.525,1.508
				c7.711-0.305,21.635-3.579,30.101-7.989c-20.842-2.595-21.888-5.552-22.04-11.282c-0.005-0.205-0.011-0.414-0.018-0.626
				c-0.233-6.759,4.696-12.046,12.264-13.155c3.685-0.54,8.318,0.385,12.71,2.539c4.256,2.087,7.572,5.006,8.869,7.808
				c1.305,2.818,1.809,4.608,0.941,6.567c-0.777,1.755-2.576,3.367-5.841,6.292l-0.248,0.223c0.499,0.051,1.007,0.103,1.525,0.154
				c10.342,1.027,17.175,3.794,20.892,8.457c4.245,5.326,3.425,11.791,2.767,16.985c-0.19,1.5-0.37,2.918-0.384,4.079
				c-0.053,4.351,0.249,16.331,0.515,26.901C84.08,241.238,84.29,249.578,84.233,251.679z M44.302,153.79
				c-0.638,0-1.263,0.042-1.867,0.131c-6.314,0.925-10.429,5.237-10.24,10.729c0.008,0.219,0.013,0.434,0.019,0.645
				c0.114,4.304,0.181,6.795,22.986,9.353c0.541-0.383,1.033-0.772,1.472-1.166l0.518-0.465c6.246-5.597,6.365-5.704,4.331-10.099
				C59.521,158.602,51.125,153.79,44.302,153.79z"/>
		</g>
		<g>
			<path fill="#F0F0F0" d="M147.93,290.314c-4.174,0-9.589-0.948-14.623-4.717c-6.552-4.906-10.9-13.403-12.924-25.256
				c-1.812-10.615-4.464-17.228-8.106-20.216c-2.952-2.422-6.118-2.051-9.181-1.691c-0.41,0.048-0.812,0.095-1.204,0.134
				c-2.975,0.297-6.346,0.634-8.849,2.381c-2.771,1.933-4.118,5.433-4.118,10.699h-2.37c0-6.098,1.679-10.233,5.132-12.642
				c3.009-2.1,6.869-2.485,9.97-2.795c0.379-0.038,0.767-0.084,1.163-0.13c3.221-0.378,7.229-0.848,10.96,2.213
				c4.102,3.366,7.026,10.447,8.939,21.649c4.383,25.674,18.813,28.524,27.029,27.937c2.306-0.165,3.756-0.669,4.309-1.498
				c0.929-1.392-0.069-4.38-1.332-8.164c-0.413-1.236-0.84-2.514-1.262-3.911c-2.78-9.195,0.034-12.759,3.291-16.885
				c0.184-0.233,0.37-0.469,0.557-0.709c0.416-0.725,4.187-7.435,4.232-12.318c0.05-5.46,0.009-36.887,0.009-37.203l2.37-0.003
				c0,0.317,0.042,31.756-0.009,37.228c-0.053,5.779-4.411,13.247-4.596,13.562l-0.087,0.128c-0.208,0.266-0.413,0.526-0.616,0.783
				c-3.194,4.046-5.305,6.72-2.883,14.731c0.413,1.365,0.834,2.626,1.241,3.846c1.526,4.57,2.629,7.872,1.056,10.23
				c-1.008,1.511-2.95,2.32-6.111,2.546C149.294,290.287,148.629,290.314,147.93,290.314z"/>
		</g>
		<g>
			<path fill="#F0F0F0" d="M132.73,343.577c-4.369,0-8.42-0.218-12.248-0.772c-10.705-1.551-18.517-5.618-25.329-13.187
				c-11.413-12.681-10.866-49.708-10.837-51.277v-8.788h2.37v8.81c-0.007,0.397-0.561,37.682,10.229,49.671
				c9.457,10.507,20.488,13.18,35.686,13.18c6.772,0,14.368-0.53,23.025-1.134c2.494-0.174,5.072-0.354,7.738-0.528
				c15.536-1.015,27.982-2.583,38.305-4.852c-7.121-4.59-12.392-11.618-15.437-20.678c-3.316-9.867-3.208-19.519-2.534-25.879
				c0.875-8.252,3.281-15.977,6.601-21.194c4.765-7.488,13.771-10.976,26.044-10.088c9.8,0.71,20.076,4.199,25.914,7.342
				c5.628,3.031,8.462,9.405,8.198,18.435c-0.235,8.019-2.887,18.195-7.669,29.428c-2.259,5.306-6.273,9.959-11.931,13.827
				c-5,3.419-11.45,6.335-19.172,8.666c-1.093,0.33-2.213,0.649-3.359,0.958c0.411,0.171,0.828,0.335,1.249,0.491
				c23.824,8.85,40.305,1.894,50.386-21.264c4.901-11.26,14.817-40.836,1.064-72.201c-9.451-21.554-25.193-24.192-39.082-26.519
				c-3.453-0.579-6.714-1.125-9.693-1.945c-6.956-1.916-13.322-7.24-17.466-14.606c-3.791-6.74-5.635-14.848-5.494-23.713
				c-2.969-1.792-5.935-3.768-8.53-5.931c-3.638-3.031-6.029-7.646-7.106-13.714c-0.778-4.384-0.887-9.447-0.332-15.48
				c0.057-0.623,0.097-1.341,0.142-2.172c0.311-5.671,0.833-15.163,8.666-23.278c9.34-9.677,26.608-14.536,51.32-14.454l-0.008,2.37
				c-24.039-0.085-40.732,4.536-49.606,13.73c-7.22,7.48-7.712,16.42-8.005,21.762c-0.045,0.819-0.087,1.593-0.149,2.259
				c-1.228,13.349,0.991,22.486,6.596,27.156c2.162,1.802,4.615,3.483,7.117,5.036c0.297-4.924,1.189-10.056,2.68-15.295
				c2.203-7.737,5.318-14.076,9.26-18.841c3.731-4.509,8.099-7.51,12.985-8.919c8.725-2.515,18.604,0.425,27.105,8.065
				c6.436,5.785,9.622,11.858,9.47,18.051c-0.182,7.395-4.964,14.808-14.618,22.663c-13.323,10.839-26.59,9.225-31.822,5.662
				c-1.785-1.216-4.298-2.586-7.208-4.173c-1.754-0.956-3.654-1.992-5.595-3.109c0.062,7.913,1.805,15.129,5.197,21.161
				c3.836,6.82,9.678,11.734,16.03,13.484c2.862,0.788,6.065,1.325,9.456,1.893c13.765,2.306,30.895,5.177,40.861,27.905
				c5.59,12.75,7.966,26.448,7.061,40.714c-0.903,14.244-4.916,26.017-8.123,33.384c-4.751,10.914-10.717,18.254-18.24,22.438
				c-9.409,5.234-21.233,5.268-35.144,0.101c-1.406-0.522-2.761-1.12-4.064-1.789c-10.929,2.608-24.241,4.37-41.165,5.476
				c-2.66,0.174-5.236,0.354-7.728,0.528C147.108,343.049,139.534,343.577,132.73,343.577z M212.745,259.096
				c-7.321,0-15.803,1.825-20.447,9.124c-6.099,9.583-9.195,29.053-3.82,45.046c3.151,9.377,8.816,16.431,16.525,20.658
				c2.085-0.512,4.08-1.057,5.994-1.635c15.907-4.802,25.592-11.721,29.607-21.153c9.788-22.99,9.985-39.756,0.528-44.848
				c-5.615-3.024-15.511-6.381-24.961-7.065C215.073,259.143,213.924,259.096,212.745,259.096z M191.693,174.432
				c2.313,1.36,4.605,2.609,6.686,3.744c2.965,1.617,5.526,3.013,7.407,4.295c5.014,3.415,17.324,3.952,28.993-5.542
				c9.085-7.391,13.581-14.222,13.745-20.883c0.134-5.469-2.788-10.93-8.685-16.23c-7.881-7.082-16.944-9.833-24.865-7.55
				c-9.261,2.67-16.585,11.95-20.623,26.132C192.779,163.918,191.896,169.305,191.693,174.432z"/>
		</g>
		<g>
			<g>
				<path fill="#E4E4E4" d="M242.578,104.659h-8.945c-0.115-0.771-0.182-1.673-0.186-2.638c-0.004-0.034-0.004-0.068-0.004-0.106
					c0-0.7,0.038-1.377,0.098-1.99c0.025-0.265,0.055-0.516,0.092-0.754h8.945V104.659z"/>
				<path opacity="0.2" fill="#FFFFFF" enable-background="new    " d="M242.578,102.021h-9.131
					c-0.004-0.034-0.004-0.068-0.004-0.106c0-0.7,0.038-1.377,0.098-1.99h9.037L242.578,102.021L242.578,102.021z"/>
				<path opacity="0.05" enable-background="new    " d="M242.578,99.172h-2.576c-0.065,0.877-0.099,1.805-0.099,2.763
					c0,0.065,0,0.13,0.003,0.194c0.002,0.877,0.034,1.723,0.091,2.529h2.58L242.578,99.172L242.578,99.172z"/>
			</g>
			<path fill="#F0F0F0" d="M260.725,106.241h-19.322c-0.074-1.258-0.117-2.723-0.119-4.295c-0.001-0.056-0.001-0.113-0.001-0.17
				c0-1.145,0.022-2.242,0.063-3.242c0.016-0.427,0.036-0.837,0.058-1.225h19.322L260.725,106.241
				C260.726,106.241,260.725,106.241,260.725,106.241z"/>
		</g>
		<rect x="260.725" y="99.687" fill="#BDBDBD" width="3.007" height="4.178"/>
		<rect x="263.713" y="99.687" fill="#FFFFFF" width="0.766" height="4.178"/>
		<rect x="264.48" y="99.687" fill="#BDBDBD" width="3.007" height="4.178"/>
		<rect x="267.468" y="99.687" fill="#FFFFFF" width="0.766" height="4.178"/>
		<rect x="268.233" y="99.687" fill="#BDBDBD" width="3.007" height="4.178"/>
		<rect x="271.222" y="99.687" fill="#FFFFFF" width="0.766" height="4.178"/>
		<polygon fill="#BDBDBD" points="277.87,101.355 277.87,102.198 276.905,103.307 272.988,103.075 271.988,103.864 271.988,99.686 
			272.988,100.477 276.905,100.244 		"/>
		<rect x="260.707" y="100.5" opacity="0.5" fill="#FFFFFF" enable-background="new    " width="3.006" height="1.276"/>
		<rect x="264.461" y="100.5" opacity="0.5" fill="#FFFFFF" enable-background="new    " width="3.007" height="1.276"/>
		<rect x="268.215" y="100.5" opacity="0.5" fill="#FFFFFF" enable-background="new    " width="3.006" height="1.276"/>
		<g>
			<path fill="#FFFFFF" d="M90.09,251.626h-9.18c-0.387,0-0.703,0.317-0.703,0.703v5.359h10.585v-5.359
				C90.793,251.943,90.477,251.626,90.09,251.626z"/>
			<path fill="#FFFFFF" d="M83.72,269.552h3.561c0.386,0,0.702-0.316,0.702-0.702l2.81-10.021H80.208l2.81,10.021
				C83.018,269.236,83.333,269.552,83.72,269.552z"/>
			<rect x="80.208" y="257.687" fill="#EEEEEE" width="10.585" height="1.143"/>
		</g>
	</g>
	<path opacity="0.2" enable-background="new    " d="M8.782,75.322v6.045c-0.023,0.002-0.045,0.002-0.07,0.002
		c-0.463,0-0.911-0.025-1.316-0.065v-5.982C7.396,75.322,8.782,75.322,8.782,75.322z"/>
	<path opacity="0.2" enable-background="new    " d="M8.854,40.888v35.289c-0.043,0.002-0.085,0.002-0.128,0.002
		c-0.868,0-1.701-0.043-2.46-0.119V40.888H8.854z"/>
	<path opacity="0.2" enable-background="new    " d="M29.434,28.328v6.928c0,0.846-0.594,1.535-1.327,1.535
		c-0.35,0-0.667-0.156-0.901-0.41c0.263-0.281,0.427-0.682,0.427-1.125v-6.928c0-0.445-0.164-0.847-0.427-1.126
		c0.234-0.255,0.551-0.409,0.901-0.409C28.84,26.793,29.434,27.479,29.434,28.328z"/>
	<path opacity="0.2" enable-background="new    " d="M79.474,58.621v6.044c-0.023,0.002-0.046,0.002-0.07,0.002
		c-0.464,0-0.911-0.025-1.317-0.064v-5.982H79.474z"/>
	<path opacity="0.2" enable-background="new    " d="M77.873,15.588c-1.2,4.296-0.915,43.769-0.915,43.769
		c0.758,0.077,1.591,0.12,2.46,0.12c0.043,0,0.086,0,0.128-0.003V18.469C79.546,18.469,78.447,17.467,77.873,15.588z"/>
	<path opacity="0.2" enable-background="new    " d="M242.578,103.68h-9.131c-0.004-0.034-0.004-0.068-0.004-0.106
		c0-0.7,0.038-1.377,0.098-1.99h9.037L242.578,103.68L242.578,103.68z"/>
</g>
</svg>
