<?xml version="1.0" encoding="utf-8"?>
<!-- Generator: Adobe Illustrator 17.0.0, SVG Export Plug-In . SVG Version: 6.00 Build 0)  -->
<!DOCTYPE svg PUBLIC "-//W3C//DTD SVG 1.1//EN" "http://www.w3.org/Graphics/SVG/1.1/DTD/svg11.dtd">
<svg version="1.1" id="图层_1" xmlns="http://www.w3.org/2000/svg" xmlns:xlink="http://www.w3.org/1999/xlink" x="0px" y="0px"
	 width="39.75px" height="20.442px" viewBox="0 0 39.75 20.442" enable-background="new 0 0 39.75 20.442" xml:space="preserve">
<path fill="#E84281" d="M20.95,0.004c-8.011,0-13.564,5.239-15.738,7.465c-1.665,1.705-5.21,6.55-5.21,10.694
	c3.428,0.669,7.749,0.835,16.194,2.104c0.735,0.11,1.464,0.161,2.183,0.161c8.822,0,16.217-7.703,16.718-8.28
	c0.388-0.447,0.219-1.879,0.093-2.654c-0.072-0.442,0.127-0.887,0.518-1.112c1.079-0.621,3.234-1.216,3.584-1.581
	c0.901-0.941,0.383-2.215-0.733-3.245l-3.237,0.438c-0.65-0.267-1.5-0.357-2.372-0.357c-1.109,0-2.254,0.146-3.069,0.262
	c-4.874,0.69-14.023,6.378-13.25,6.378c0.005,0,0.01,0,0.016-0.001c0.035-0.003,0.069-0.004,0.103-0.004
	c0.1,0,0.199,0.011,0.305,0.021c0.106,0.011,0.219,0.022,0.347,0.022c0.311,0,0.71-0.063,1.309-0.339
	c2.698-1.391,8.625-2.415,10.838-2.415c0.315,0,0.554,0.021,0.698,0.064c0.6,0.079,1.048,0.2,1.286,0.379
	c0.786,2.683-2.075,4.965-5.323,7.182c-1.945,1.212-4.145,2.019-7.668,2.019c-3.032,0-7.045-0.598-12.721-2.049
	c0-4.946,5.524-8.871,6.552-9.628c4.631-3.412,13.455-3.683,16.135-3.683c0.505,0,0.792,0.01,0.792,0.01
	C26.288,0.533,23.495,0.004,20.95,0.004"/>
</svg>
