<?xml version="1.0" encoding="utf-8"?>
<!-- Generator: Adobe Illustrator 17.0.0, SVG Export Plug-In . SVG Version: 6.00 Build 0)  -->
<!DOCTYPE svg PUBLIC "-//W3C//DTD SVG 1.1//EN" "http://www.w3.org/Graphics/SVG/1.1/DTD/svg11.dtd">
<svg version="1.1" id="图层_1" xmlns="http://www.w3.org/2000/svg" xmlns:xlink="http://www.w3.org/1999/xlink" x="0px" y="0px"
	 width="69.664px" height="68.974px" viewBox="0 0 69.664 68.974" enable-background="new 0 0 69.664 68.974" xml:space="preserve">
<path fill="#0F7DC2" d="M68.027,43.586c-0.283,0.742-0.815,1.825-0.815,1.825c-0.025-0.029-2.207-2.849-5.065-5.861
	c-3.891-4.099-7.176-7.139-9.2-8.871c-1.267-1.076-2.409-1.613-3.497-1.66c-1.229-0.041-2.324,0.484-3.182,1.284
	c-0.256,0.242-0.77,0.715-1.462,1.344c-3.242,3.004-10.082,9.274-13.732,12.35c-0.53,0.478-0.965,0.857-1.263,1.116
	c-1.497,1.305-3.186,2.026-4.935,2.05c-1.748,0.023-3.56-0.647-5.295-2.14c-9.48-8.17-16.356-16.397-17.86-18.558
	C1.606,26.3,1.4,25.918,1.639,25.311c0.285-0.728,0.795-1.779,0.795-1.779s2.288,2.782,5.059,5.893
	c4.505,5.063,8.36,8.091,9.201,8.869c1.218,1.132,2.408,1.617,3.492,1.661c1.231,0.04,2.326-0.483,3.184-1.287
	c0.256-0.237,11.542-10.614,15.195-13.689c0.53-0.474,0.963-0.858,1.26-1.117c1.498-1.303,3.189-2.025,4.938-2.044
	c1.748-0.026,3.514,0.697,5.296,2.14c2.54,2.059,11.729,10.38,17.879,18.514C68.059,42.634,68.256,42.978,68.027,43.586z
	 M45.957,12.022c3.842,2.089,13.85,10.47,23.255,24.053c0.503,0.737,0.315,1.617,0.31,1.671c-0.14,0.979-0.363,2.063-0.363,2.063
	c-1.529-2.204-10.397-14.024-20.423-21.535c-4.13-3.097-8.64-2.806-12.51,0.483c-1.382,1.105-11.652,10.156-16.682,15.216
	c-0.746,0.759-1.614,0.882-2.328,0.27c-2.759-2.284-4.598-4.314-4.598-4.314c2.564-2.901,15.629-15.038,18.802-17.356
	C36.483,8.878,41.559,9.625,45.957,12.022z M20.84,5.486c-6.452,5.215-14.764,12.889-16.873,15.2c0,0,1.573,1.956,4.044,4.375
	c0.474,0.406,0.978,0.298,1.395-0.145c6.384-6.164,13.302-12.453,17.313-15.56c6.774-5.233,14.713-5.743,22.455,0.443
	c2.885,2.308,5.442,4.588,9.181,8.436c4.778,5.209,7.896,9.561,11.311,14.464c0,0-0.017-1.314-0.394-3.055
	c-0.063-0.295-0.193-0.772-0.407-1.201c-0.683-1.372-3.7-6.548-8.075-11.655C52.114,6.656,46.636,3.572,43.124,1.729
	C38.47-0.719,29.398-1.43,20.84,5.486z M38.242,56.401c3.174-2.318,16.239-14.452,18.803-17.355c0,0-1.839-2.03-4.599-4.313
	c-0.713-0.615-1.583-0.487-2.328,0.265c-5.03,5.063-15.298,14.111-16.679,15.224c-3.871,3.283-8.38,3.577-12.509,0.479
	C10.902,43.188,2.034,31.372,0.508,29.169c0,0-0.227,1.082-0.364,2.059c-0.006,0.058-0.193,0.937,0.306,1.674
	c9.406,13.58,19.413,21.96,23.255,24.048C28.106,59.351,33.18,60.097,38.242,56.401z M48.822,63.489
	c6.453-5.213,14.765-12.889,16.875-15.201c0,0-1.573-1.96-4.041-4.374c-0.478-0.409-0.981-0.3-1.399,0.144
	c-6.383,6.165-13.3,12.455-17.314,15.558c-6.769,5.237-14.712,5.741-22.456-0.442c-2.88-2.305-5.439-4.586-9.179-8.436
	C6.531,45.527,3.412,41.175,0,36.272c0,0-0.025,1.27,0.391,3.055c0.068,0.295,0.195,0.775,0.406,1.195
	c0.687,1.381,3.702,6.556,8.076,11.662c8.678,10.134,14.154,13.218,17.666,15.06C31.192,69.692,40.266,70.405,48.822,63.489z"/>
</svg>
