<?xml version="1.0" encoding="utf-8"?><!DOCTYPE svg PUBLIC "-//W3C//DTD SVG 1.1//EN" "http://www.w3.org/Graphics/SVG/1.1/DTD/svg11.dtd"><svg version="1.1" baseProfile="full" xmlns="http://www.w3.org/2000/svg" xmlns:xlink="http://www.w3.org/1999/xlink" xmlns:ev="http://www.w3.org/2001/xml-events"   height="90px"   width="275px" ><path stroke="rgb( 14, 5, 10 )" stroke-width="0px" stroke-linecap="butt" stroke-linejoin="miter" fill="rgb( 45, 98, 232 )" d="M245.175,54.393 C247.358,58.498 251.496,61.234 256.244,61.234 C260.736,61.234 264.681,58.669 266.942,54.919 C266.942,54.919 274.568,60.04 274.568,60.04 C270.953,65.771 263.564,70.206 256.102,70.206 C243.667,70.206 233.729,60.132 233.729,47.706 C233.729,35.279 242.673,25.206 255.107,25.206 C263.592,25.206 272.576,31.745 275,42.12 C275,42.12 245.175,54.393 245.175,54.393 ZM255.25,34.035 C248.638,34.142 243.854,38.638 243.547,46.856 C243.547,46.856 263.66,38.525 263.66,38.525 C261.446,35.211 259.539,34.035 255.25,34.035 ZM218.837,3.56 C218.837,3.56 228.623,3.56 228.623,3.56 C228.623,3.56 228.623,68.639 228.623,68.639 C228.623,68.639 218.837,68.639 218.837,68.639 C218.837,68.639 218.837,3.56 218.837,3.56 ZM191.221,90 C181.423,90 174.043,84.512 171.004,76.793 C171.004,76.793 179.548,73.224 179.548,73.224 C181.385,78.173 185.98,81.456 191.363,81.456 C197.642,81.456 201.713,76.645 202.486,70.206 C202.486,70.206 202.622,64.844 202.622,64.844 C199.818,68.187 195.816,70.206 190.513,70.206 C178.663,70.206 169.056,60.132 169.056,47.706 C169.056,35.279 178.663,25.206 190.513,25.206 C195.816,25.206 199.818,27.224 202.622,30.567 C202.622,30.567 202.622,26.487 202.622,26.487 C202.622,26.487 211.687,26.487 211.687,26.487 C211.687,26.487 211.746,70.206 211.746,70.206 C210.875,81.964 203.135,90 191.221,90 ZM191.073,34.035 C184.382,34.035 178.957,40.155 178.957,47.706 C178.957,55.256 184.382,61.377 191.073,61.377 C197.765,61.377 203.189,55.256 203.189,47.706 C203.189,40.155 197.765,34.035 191.073,34.035 ZM143.031,70.348 C130.616,70.348 120.552,60.275 120.552,47.848 C120.552,35.422 130.616,25.348 143.031,25.348 C155.446,25.348 165.511,35.422 165.511,47.848 C165.511,60.275 155.446,70.348 143.031,70.348 ZM143.173,34.177 C136.163,34.177 130.48,40.298 130.48,47.848 C130.48,55.398 136.163,61.519 143.173,61.519 C150.183,61.519 155.866,55.398 155.866,47.848 C155.866,40.298 150.183,34.177 143.173,34.177 ZM94.8099999999999,70.206 C82.395,70.206 72.331,60.132 72.331,47.706 C72.331,35.279 82.395,25.206 94.8099999999999,25.206 C107.225,25.206 117.29,35.279 117.29,47.706 C117.29,60.132 107.225,70.206 94.8099999999999,70.206 ZM94.952,34.035 C87.942,34.035 82.259,40.155 82.259,47.706 C82.259,55.256 87.942,61.377 94.952,61.377 C101.963,61.377 107.646,55.256 107.646,47.706 C107.646,40.155 101.963,34.035 94.952,34.035 ZM35.817,70.206 C15.272,70.206 0,52.722 0.48000000000002,35.27 C2.70600000000002,0 35.533,0.47800000000001 35.533,0.47800000000001 C51.776,0.47800000000001 59.2329999999999,10.174 59.2329999999999,10.174 C59.2329999999999,10.174 52.705,16.876 52.705,16.876 C45.55,9.47999999999999 35.817,10.174 35.817,10.174 C14.972,10.103 10.926,29.323 10.84,35.27 C10.742,41.959 15.732,59.796 35.533,60.652 C56.755,60.213 58.24,41.972 58.24,41.972 C58.24,41.972 35.817,41.972 35.817,41.972 C35.817,41.972 35.817,32.419 35.817,32.419 C35.817,32.419 67.606,32.419 67.606,32.419 C70.629,54.487 56.362,70.206 35.817,70.206 Z "/></svg>