<?xml version="1.0" encoding="utf-8"?>
<!-- Generator: Adobe Illustrator 17.0.0, SVG Export Plug-In . SVG Version: 6.00 Build 0)  -->
<!DOCTYPE svg PUBLIC "-//W3C//DTD SVG 1.1//EN" "http://www.w3.org/Graphics/SVG/1.1/DTD/svg11.dtd">
<svg version="1.1" id="图层_1" xmlns="http://www.w3.org/2000/svg" xmlns:xlink="http://www.w3.org/1999/xlink" x="0px" y="0px"
	 width="135.5px" height="166.769px" viewBox="0 0 135.5 166.769" enable-background="new 0 0 135.5 166.769" xml:space="preserve">
<path fill="#08A1EF" d="M127.683,166.769H7.817c-4.318,0-7.817-3.5-7.817-7.817V7.817C0,3.5,3.5,0,7.817,0h119.865
	C132,0,135.5,3.5,135.5,7.817v151.135C135.5,163.27,132,166.769,127.683,166.769z M67.75,161.558c4.318,0,7.817-3.5,7.817-7.817
	s-3.5-7.817-7.817-7.817s-7.817,3.5-7.817,7.817S63.432,161.558,67.75,161.558z M117.26,15.635H18.24v125.077h99.019V15.635z"/>
</svg>
