<?xml version="1.0" encoding="utf-8"?>
<!-- Generator: Adobe Illustrator 17.0.0, SVG Export Plug-In . SVG Version: 6.00 Build 0)  -->
<!DOCTYPE svg PUBLIC "-//W3C//DTD SVG 1.1//EN" "http://www.w3.org/Graphics/SVG/1.1/DTD/svg11.dtd">
<svg version="1.1" id="图层_1" xmlns:ev="http://www.w3.org/2001/xml-events"
	 xmlns="http://www.w3.org/2000/svg" xmlns:xlink="http://www.w3.org/1999/xlink" x="0px" y="0px" width="592px" height="594px"
	 viewBox="0 0 592 594" enable-background="new 0 0 592 594" xml:space="preserve">
<path fill="#FCFFFF" d="M296,594C132.524,594,0,461.476,0,298S132.524,2,296,2s296,132.524,296,296S459.476,594,296,594z M297,189
	c-59.094,0-107,47.906-107,107s47.906,107,107,107s107-47.906,107-107S356.094,189,297,189z"/>
<path fill="#F2775A" d="M408,46c0,0-90.92-45.424-192-11l192.585,193.045L408,46z"/>
<path fill="#6D5AF1" d="M558,214c0,0-28.621-108.834-133.715-159.859L424,335L558,214z"/>
<path fill="#5B9DF1" d="M545,412c0,0,42.638-70.608,18.124-180.903L365,412H545z"/>
<path fill="#5BE5F0" d="M387,554c0,0,94.504-31.086,145.413-119.708l-266.29-0.019L387,554z"/>
<path fill="#5FF15A" d="M185,545c0,0,83.611,42.158,182.273,15.491L185,375V545z"/>
<path fill="#B9F158" d="M37,387c0,0,24.455,91.253,131,150l0.703-270.373L37,387z"/>
<path fill="#F1DD5A" d="M44.777,188.08c0,0-40.441,63.969-13.777,180.92l195.193-181.186L44.777,188.08z"/>
<path fill="#F0B359" d="M196.348,40.268c0,0-88.857,29.794-142.348,127.732l272.142,0.43L196.348,40.268z"/>
</svg>
