<?xml version="1.0" encoding="iso-8859-1"?>
<!-- Generator: Adobe Illustrator 17.0.0, SVG Export Plug-In . SVG Version: 6.00 Build 0)  -->
<!DOCTYPE svg PUBLIC "-//W3C//DTD SVG 1.1//EN" "http://www.w3.org/Graphics/SVG/1.1/DTD/svg11.dtd">
<svg version="1.1" id="Objects" xmlns="http://www.w3.org/2000/svg" xmlns:xlink="http://www.w3.org/1999/xlink" x="0px" y="0px"
	 width="104.667px" height="266.4px" viewBox="0 0 104.667 266.4" style="enable-background:new 0 0 104.667 266.4;"
	 xml:space="preserve">
<g>
	<g>
		<g>
			<ellipse style="opacity:0.2;fill:#382F20;" cx="50.334" cy="255.878" rx="48.198" ry="10.523"/>
			<g>
				<path style="fill:#F7D3C8;" d="M30.344,115.686c-2.136,0.42-3.823,0.732-5.261,3.545c-1.438,2.812-9.417,22.458-10.417,28.958
					s0.118,27.172-0.666,31.167c-2,1.5-2.888,6.457,2,6.833c4.333,0.333,6.166-4.5,2.833-6.666c0,0,0.167-23.834,0.667-28.834
					s8.833-23.332,12.333-25.499L30.344,115.686z"/>
				<path style="fill:#FFDECF;" d="M72.323,115.686c2.136,0.42,3.823,0.732,5.261,3.545c1.437,2.812,9.417,22.458,10.417,28.958
					s-0.118,27.172,0.666,31.167c2,1.5,2.888,6.457-2,6.833c-4.333,0.333-6.166-4.5-2.833-6.666c0,0-0.167-23.834-0.667-28.834
					s-8.833-23.332-12.333-25.499L72.323,115.686z"/>
				<g>
					<path style="fill:#302A2C;" d="M51.334,112.855l-22.25,3c-1.875,0.25-4.64,1.26-9.75,14.501c-3.667,9.5-5.667,15.333-6,22.833
						s-0.5,25.77-0.5,25.77s5.666,0.603,8,0c0.016-0.025,0-0.436,0-0.436l0.667-24.5l4.833-17.166l-0.333,100.166
						c0,0,3.664,0.06,8.273,0.131l0.356,9.048c0,0,0.885,0.119,2.239,0.227c-1.252,1.703-2.587,3.849-2.459,5.12
						c0.188,1.87,1.129,4.635,6.587,4.635s6.399-2.765,6.587-4.635c0.13-1.286-1.239-3.469-2.503-5.182
						c1.031-0.131,2.021-0.324,2.895-0.607l-0.043-8.406c2.101,0.027,3.713,0.045,4.402,0.045v-0.012
						c-0.42,0.004-0.766,0.006-1,0.006V112.855z"/>
					<path style="fill:#424048;" d="M89.334,153.189c-0.333-7.5-2.334-13.333-6-22.833c-5.11-13.241-7.875-14.251-9.75-14.501
						l-22.25-3v124.537c0.234,0,0.58-0.002,1-0.006c0.629-0.006,1.444-0.015,2.402-0.026l-0.043,8.399
						c0.875,0.283,1.864,0.477,2.895,0.607c-1.264,1.713-2.633,3.895-2.503,5.182c0.187,1.87,1.129,4.635,6.587,4.635
						s6.399-2.765,6.587-4.635c0.128-1.271-1.207-3.417-2.459-5.12c1.354-0.108,2.239-0.227,2.239-0.227l0.356-9.044
						c4.583-0.073,8.273-0.135,8.273-0.135l-0.333-101.855l4.833,18.855l0.667,24.5c0,0-0.016,0.411,0,0.436c2.333,0.603,8,0,8,0
						S89.667,160.689,89.334,153.189z"/>
				</g>
				<g>
					<defs>
						<path id="XMLID_6_" d="M58.552,118.355l-7.219,50.167l-6-48.5L58.552,118.355z"/>
					</defs>
					<use xlink:href="#XMLID_6_"  style="overflow:visible;fill:#E5E3E4;"/>
					<clipPath id="XMLID_12_">
						<use xlink:href="#XMLID_6_"  style="overflow:visible;"/>
					</clipPath>
					<path style="clip-path:url(#XMLID_12_);fill:#232024;" d="M53.449,126.522c4.347-3.864,0.885-6.861-1.115-7.061v-0.106
						c-1,0-1,0-1,0v0.106c-2,0.199-5.346,3.196-0.998,7.061l-2.348,26l3.346,8.444v0.057v-0.028v0.028v-0.057l3.903-8.444
						L53.449,126.522z"/>
				</g>
				<g>
					<path style="fill:#F7D3C8;" d="M52.334,107.711V96.72c-11.751-0.126-16.552-7.924-16.552-7.924s6.113,3.327,16.552,3.387V0
						c-42.5,0-51.5,25.855-46.587,63.521c3.334,25.564,12.375,39.939,35.587,43.372v7.299c0,0,0.542,4.994,10.029,4.994
						c9.487,0,10.971-4.994,10.971-4.994v-7.047C59.251,107.516,55.934,107.711,52.334,107.711z"/>
					<path style="fill:#FFDECF;" d="M52.334,0v92.183c0.095,0.001,0.183,0.006,0.278,0.006c10.612,0,16.839-3.393,16.839-3.393
						s-4.879,7.936-16.839,7.936c-0.096,0-0.183-0.011-0.278-0.012v10.991c3.601,0,6.917-0.195,10-0.565
						c24.313-2.923,33.163-17.375,36.587-43.624C103.834,25.855,94.334,0,52.334,0z"/>
					<path style="fill:#ED9A83;" d="M52.334,96.72c0.095,0.001,0.182,0.012,0.278,0.012c11.96,0,16.839-7.936,16.839-7.936
						s-6.227,3.393-16.839,3.393c-0.095,0-0.184-0.005-0.278-0.006c-10.439-0.06-16.552-3.387-16.552-3.387
						S40.583,96.594,52.334,96.72z"/>
				</g>
				<ellipse style="fill:#FFDECF;" cx="98.834" cy="60.69" rx="5.833" ry="7.333"/>
				<ellipse style="fill:#F7D3C8;" cx="5.833" cy="60.69" rx="5.833" ry="7.333"/>
				<rect x="12.334" y="165.355" style="fill:#E5E3E4;" width="9" height="14"/>
				<rect x="81.334" y="165.355" style="fill:#E5E3E4;" width="9" height="14"/>
				<polygon style="fill:#F2A024;" points="69.391,142.706 67.48,141.798 66.38,143.605 65.367,141.748 63.415,142.564 
					63.688,140.466 61.629,139.979 63.083,138.441 61.704,136.837 63.783,136.448 63.61,134.34 65.522,135.247 66.621,133.439 
					67.634,135.297 69.586,134.482 69.314,136.579 71.373,137.066 69.919,138.604 71.297,140.208 69.218,140.597 				"/>
				<g>
					<path style="fill:#FFFFFF;" d="M41.334,111.939l-4.865,3.041l9.75,10.125l5.801-5.875
						C52.019,119.23,45.084,118.689,41.334,111.939z"/>
					<path style="fill:#FFFFFF;" d="M62.334,111.939l3.693,2.963l-9.799,10.203l-4.394-5.919
						C51.834,119.187,58.584,118.689,62.334,111.939z"/>
				</g>
				<path style="fill:#93A2A7;" d="M4.537,53.105c0,0,2.296,5,2.546,10l4.166,0.301c0,0-3.416-11.301-2.666-15.801s12.75-9.25,11-27
					S31.669,3.78,36.169,1.53C36.169,1.53-2.009,2.605,4.537,53.105z"/>
				<path style="fill:#9AB3B4;" d="M100.13,53.105c0,0-2.296,5-2.546,10l-4.167,0.301c0,0,3.417-11.301,2.667-15.801
					s-12.75-9.25-11-27S72.999,3.78,68.499,1.53C68.499,1.53,106.676,2.605,100.13,53.105z"/>
			</g>
		</g>
	</g>
</g>
</svg>
