<?xml version="1.0" encoding="utf-8"?>
<!-- Generator: Adobe Illustrator 17.0.0, SVG Export Plug-In . SVG Version: 6.00 Build 0)  -->
<!DOCTYPE svg PUBLIC "-//W3C//DTD SVG 1.1//EN" "http://www.w3.org/Graphics/SVG/1.1/DTD/svg11.dtd">
<svg version="1.1" id="图层_1" xmlns="http://www.w3.org/2000/svg" xmlns:xlink="http://www.w3.org/1999/xlink" x="0px" y="0px"
	 width="311.829px" height="506.704px" viewBox="0 0 311.829 506.704" enable-background="new 0 0 311.829 506.704"
	 xml:space="preserve">
<g id="画板的参考线">
</g>
<g id="图层_1_1_">
	<path fill="#E5BF00" d="M23.496,504.672c-0.623-0.389-0.778,0.233-1.946,0.467c-1.167,0.234-2.568,0.156-2.568,0.156
		s-1.867,0.7-2.957,0.234c-1.09-0.467-1.012-2.568-1.012-2.568s0.234,1.09,1.167,1.634c0.934,0.545,2.023-0.156,2.101,0
		c0.078,0.156,0.7-0.778,0.233-1.479c-0.467-0.7-1.245-1.245-1.478-0.7c-0.234,0.545-0.545,0.856-0.545,0.856
		s-0.389-0.544-0.389-1.167c0-0.622,0-2.335,0-2.335s0.467,0,0.467,0.389s0,1.012,0.701,1.167c0.7,0.156,0.934,0.701,1.634,0.156
		c0.7-0.545,1.556-0.622,1.556-0.622l-0.233-1.557c0,0-0.467-0.7-0.934-0.545c-0.467,0.156-0.623,0.312-0.856-0.078
		c-0.233-0.389-0.389-0.856-1.011-0.778c-0.623,0.078-2.179,0.7-2.179,0.7s-0.545-0.544-0.078-0.856
		c0.467-0.312,1.09-0.312,1.712-0.312c0.623,0,1.712-0.622,1.712-1.167c0-0.545-0.467-1.945-0.467-1.945s0.934,0.7,0.934,1.167
		c0,0.467-0.389,1.945-0.389,1.945s0.078,0.778,1.167,0.934c1.09,0.156,2.568-0.311,2.179-1.634s-1.167-0.623-1.167-0.623
		l-0.155-0.545c0,0-0.156-0.467-0.623-0.467s-0.389-0.622,0.078-0.622s0.856,0.622,1.401,1.012c0.545,0.389,1.089,0.778,0.856,1.868
		c-0.234,1.089-0.934,1.556-0.934,1.556s1.868,0.934,2.49,1.556c0.623,0.622,7.004,3.113,8.249,3.346
		c1.245,0.234,4.125,0.467,5.292,0.234c1.167-0.234,7.315,0.156,7.315,0.156s0.078-0.467-0.078-1.012
		c-0.156-0.545-0.467-0.778-1.012-0.467s-1.4,0.467-2.568,0.467c-1.167,0-3.424-0.078-4.202,0.078s-1.868,0.234-2.49-0.156
		c-0.622-0.389-1.401-0.233-2.49-0.623c-1.089-0.389-3.191-1.167-4.202-1.557c-1.011-0.389-1.556-1.089-1.556-1.089
		s-2.257,0.467-2.802-0.622c-0.545-1.09-0.467-2.568,1.012-2.801c1.478-0.234,2.335,0.467,2.335,0.856
		c0,0.389-0.078,1.868-0.078,1.868s0.389,1.712,2.568,1.401c0,0,0-3.035,0.622-3.113s1.245,0.078,3.346,1.09
		s4.047,1.634,5.837,1.868c1.79,0.233,4.591,0.778,7.626,0.7l-0.078,3.813c0,0-3.268,1.012-13.696-0.233
		c0,0-1.945,2.179-4.747,2.023C25.364,506.539,24.119,505.061,23.496,504.672z M2.641,471.598c0,0,0.156,2.023-0.389,2.179
		c-0.545,0.156-1.556,1.945-1.323,4.591c0.234,2.646,0.856,2.879,0.856,3.502c0,0.623,0,1.556,0,2.101s-0.311,3.813-0.311,3.813
		l0.467-2.334c0,0,0.467-0.312,0.778,0.467c0.311,0.778,0.389,1.79,0.389,1.79s-3.658,0.701-3.035,2.49c0,0,2.334,0.467,3.269,0.934
		l-0.623,1.634l1.634,0.233l0.156-0.389l-0.934-0.156c0,0,0.078-1.089,0.778-1.012c0.7,0.078,0.934,0.312,0.856,1.167v0.389
		l-0.544,0.078v0.468h0.544v0.7l0.467-0.7l0.545-0.467H5.598l0.077-1.167c0,0,1.09,0.467,1.167,1.323
		c0.078,0.856-0.077,0.934-0.077,0.934l-0.934-0.156v0.623h1.478c0,0,0.545-2.879-1.635-3.813c0,0-0.934-0.545-1.79-0.7v-1.167
		c0,0,0.234-0.622,0.778-0.467c0.544,0.156,1.556,0.234,1.556-0.544s-0.545-2.257-1.167-3.269s-2.179-2.802-2.179-2.802
		s0.469-1.168,0.547-1.79c0,0,1.245-0.156,1.245,0.233s1.245,3.035,1.712,3.891c0.467,0.856,1.634,2.49,1.79,4.514
		c0.156,2.023,0.545,4.903,0.156,5.681s0.778,1.634,0.778,1.634s-0.779,0.778-1.323,1.089c-0.545,0.311-1.713,1.167-2.102,1.245
		s-1.167-0.233-1.167-0.233v-0.856c0,0,0.545-0.156,0.623-0.7l1.867,0.155l-0.078-0.389l-1.556-0.156c0,0-0.389-0.778-0.856-1.245
		c-0.467-0.467-1.09-0.545-1.09-0.545s0.623,0.545,0.934,1.167c0.311,0.623,0.234,0.7-0.156,0.7c-0.389,0-1.089-0.622-1.089-0.622
		s0,0.856,0.545,1.167c0.545,0.312,0.312,1.246,0.312,1.246s-1.635,0.311-2.024-0.156s-1.556-3.736-1.323-4.436
		c0.234-0.7,1.323-1.323,1.323-1.323s0.078-0.389-0.7,0s-1.245,0.778-1.167,1.557c0.078,0.778,0.778,3.58,0.778,3.58
		s0.933,1.556,2.023,1.634c1.09,0.078-2.49,0.545-2.334,3.035c0,0,0.467,1.401,1.868,2.49c1.401,1.09,2.335,1.323,2.879,1.167
		c0.544-0.155,0.7-0.544,0.7-1.634c0-1.089,0.545-1.323,0.622-0.701c0.078,0.624,0.778,1.557,0.778,1.557s0.156-1.012-0.156-1.557
		c-0.31-0.544-0.622-1.555,0.079-2.256c0.7-0.701,0.7-0.467,0.7-0.467v0.778l0.856-0.311v1.401c0,0,0.389-0.934,0.389-1.867
		c0-0.934,0.467-1.557,0.622-0.623c0.156,0.934,0.7,2.023,1.245,2.335c0.544,0.312,0.856,1.634,0.233,1.868
		c-0.622,0.234-1.79,0.467-2.412,0.467s-1.167,0.623-0.545,0.623c0.623,0,4.825-0.389,3.813-2.257
		c-1.012-1.868-1.868-1.945-1.868-3.268c0,0,1.245,1.479,2.179,1.479s1.634-0.234,1.556-1.634c-0.078-1.401,0.233-2.646,0.078-3.269
		c-0.156-0.622-0.778-0.311-0.778-0.311s0.467,0.545,0.389,1.556c-0.078,1.012,0,2.724-0.389,2.879
		c-0.388,0.154-1.633,0.31-1.944-0.235c-0.311-0.545-1.245-2.023-1.634-2.646c-0.389-0.622-0.389-1.245,0.311-1.089
		s1.167,0.078,0.778-0.545c-0.389-0.623-1.245-1.479-1.245-1.479s-0.934,0.7-0.934,0.156c0-0.545,0.622-1.323,1.245-0.623
		c0.622,0.7,2.335,1.946,2.801,1.401c0.467-0.545,0.233-2.257-0.078-3.191c-0.311-0.934-1.478-2.802-1.478-3.658
		s0.155-0.856,0.7-1.167s1.167-1.012,2.179-0.389s2.88-0.545,3.58-1.401c0.7-0.856,2.49-2.023,3.58-0.545
		c1.09,1.479,0.934,3.502-0.389,3.891c-1.323,0.389-1.868,0.389-1.478-0.233c0.389-0.622,0.389-1.012-0.078-0.934
		s-0.545,0.234-0.545,0.234v-1.012c0,0-0.389-0.078-0.389,0.545c0,0.623-0.778,0.545-0.778,0.545s-0.467,0.622-0.934,0.778
		c-0.467,0.156-0.7,0.467-0.7,0.856s-0.467,1.167-0.467,0.389c0-0.778,0-1.557,0-1.557l-0.467,0.701c0,0-1.167,0.078-1.167-0.311
		s-0.233-0.622-0.622-0.778s-0.934-0.623-0.934-0.623s0.156,0.934,0.078,1.401c-0.078,0.467,0.156,1.479,2.101,4.28
		c0,0,0.856,1.245,0.856,1.945c0,0,0-1.712-0.545-2.49c-0.545-0.778-1.634-2.101-1.79-2.957s-0.233-1.089-0.233-1.089
		s0.856,0.7,1.245,1.634s1.479,1.868,1.635,2.568c0.155,0.7,0.155,1.79,0.155,1.79l0.156-1.712l1.712,1.089c0,0,1.556-0.078,2.646,0
		s1.868-0.078,1.868-0.623c0-0.545-0.467-1.012-0.467-1.712s0.7-0.312,0.7-0.312s0.078,1.323,0.622,1.79
		c0.545,0.467,0.856,0.778,0.156,0.856c-0.7,0.078-0.623,0.234-0.623,0.778s0.623-0.156,1.012-0.467s0.778-0.623,0.156-1.323
		c-0.622-0.701-0.701-1.167-0.701-1.635c0-0.467,0.778-0.156,0.778-0.156l0.545,1.245l0.078-0.934c0,0,0.778,0.156,0.856,1.012
		s0,2.413-0.934,2.724s-1.401,0.311-1.401,0.311s0.545,0.467,1.401,0.234c0.856-0.234,1.401-0.934,1.401-2.101
		s-0.311-2.724-1.323-3.035s-1.635-0.311-1.635-0.311l0.078-0.778l-0.7-0.233c0,0-0.156-0.312,0.234-0.856
		c0.389-0.545,0.622-3.269-1.167-4.28c-1.79-1.012-3.269-0.545-3.58,0c-0.311,0.545-0.7,1.479-2.023,1.79s-2.024,0.078-2.724,0.078
		c-0.701,0-2.024,0.7-2.568,0c-0.545-0.7-1.712-2.412-1.79-3.502c0,0,2.957,1.79,3.424,1.946s1.167,0.233,1.712-0.078
		s1.401-0.545,1.323-0.078s-0.856,0.545-1.245,0.545s-0.078,0.778,0.545,0.778s1.635-1.557,1.012-2.101
		c-0.622-0.545-1.089,0.234-2.023,0.311c-0.934,0.078-2.49-0.856-3.736-1.479c-1.245-0.622-1.868-0.856-2.334-2.179
		c-0.467-1.323-0.701-2.801-0.701-2.801s2.101,0.934,2.568,0.156c0.467-0.778,0.233-2.412-0.467-3.58
		c-0.7-1.167-3.113-7.393-2.023-14.008H2.406C2.406,459.925,1.94,468.874,2.641,471.598z M295.798,505.528
		c1.09-0.467,1.012-2.568,1.012-2.568s-0.234,1.09-1.167,1.634c-0.934,0.545-2.023-0.156-2.101,0s-0.7-0.778-0.233-1.479
		c0.467-0.7,1.245-1.245,1.478-0.7c0.234,0.545,0.545,0.856,0.545,0.856s0.389-0.544,0.389-1.167c0-0.622,0-2.335,0-2.335
		s-0.467,0-0.467,0.389s0,1.012-0.7,1.167c-0.7,0.156-0.934,0.701-1.635,0.156c-0.7-0.545-1.556-0.622-1.556-0.622l0.233-1.557
		c0,0,0.467-0.7,0.934-0.545c0.467,0.156,0.622,0.312,0.856-0.078c0.233-0.389,0.389-0.856,1.012-0.778
		c0.622,0.078,2.179,0.7,2.179,0.7s0.545-0.544,0.078-0.856c-0.467-0.312-1.089-0.312-1.712-0.312c-0.622,0-1.712-0.622-1.712-1.167
		c0-0.545,0.467-1.945,0.467-1.945s-0.934,0.7-0.934,1.167s0.389,1.945,0.389,1.945s-0.078,0.778-1.167,0.934
		s-2.568-0.311-2.179-1.634s1.167-0.623,1.167-0.623l0.156-0.545c0,0,0.156-0.467,0.623-0.467c0.467,0,0.389-0.622-0.078-0.622
		s-0.856,0.622-1.401,1.012c-0.544,0.389-1.089,0.778-0.856,1.868c0.233,1.089,0.934,1.556,0.934,1.556s-1.868,0.934-2.49,1.556
		c-0.622,0.622-7.004,3.113-8.249,3.346c-1.245,0.234-4.125,0.467-5.292,0.234c-1.167-0.234-7.315,0.156-7.315,0.156
		s-0.078-0.467,0.078-1.012c0.156-0.545,0.467-0.778,1.012-0.467c0.545,0.311,1.4,0.467,2.568,0.467s3.424-0.078,4.202,0.078
		c0.778,0.156,1.868,0.234,2.49-0.156c0.622-0.389,1.401-0.233,2.49-0.623c1.09-0.389,3.191-1.167,4.202-1.557
		c1.012-0.389,1.556-1.089,1.556-1.089s2.257,0.467,2.801-0.622c0.545-1.09,0.467-2.568-1.012-2.801
		c-1.478-0.234-2.335,0.467-2.335,0.856s0.078,1.868,0.078,1.868s-0.389,1.712-2.568,1.401c0,0,0-3.035-0.623-3.113
		s-1.245,0.078-3.346,1.09s-4.047,1.634-5.837,1.868c-1.79,0.233-4.592,0.778-7.626,0.7l0.078,3.813c0,0,3.269,1.012,13.696-0.233
		c0,0,1.945,2.179,4.747,2.023s4.047-1.634,4.669-2.023c0.623-0.389,0.778,0.233,1.945,0.467s2.568,0.156,2.568,0.156
		S294.709,505.995,295.798,505.528z M303.192,473.933c-0.701,1.167-0.934,2.802-0.467,3.58c0.467,0.778,2.568-0.156,2.568-0.156
		s-0.234,1.478-0.701,2.801c-0.467,1.323-1.089,1.557-2.335,2.179c-1.245,0.623-2.801,1.556-3.735,1.479
		c-0.934-0.078-1.401-0.856-2.023-0.311c-0.623,0.545,0.389,2.101,1.012,2.101c0.622,0,0.934-0.778,0.545-0.778
		c-0.389,0-1.167-0.078-1.245-0.545s0.778-0.234,1.323,0.078c0.545,0.311,1.245,0.234,1.712,0.078s3.424-1.946,3.424-1.946
		c-0.078,1.09-1.245,2.802-1.79,3.502s-1.868,0-2.568,0c-0.7,0-1.401,0.234-2.724-0.078c-1.323-0.311-1.712-1.245-2.023-1.79
		s-1.79-1.012-3.58,0c-1.79,1.011-1.556,3.735-1.167,4.28c0.389,0.544,0.233,0.856,0.233,0.856l-0.7,0.233l0.078,0.778
		c0,0-0.623,0-1.634,0.311c-1.012,0.311-1.323,1.867-1.323,3.035s0.545,1.868,1.401,2.101s1.401-0.234,1.401-0.234
		s-0.467,0-1.401-0.311s-1.012-1.868-0.934-2.724s0.856-1.012,0.856-1.012l0.078,0.934l0.545-1.245c0,0,0.778-0.311,0.778,0.156
		s-0.078,0.934-0.7,1.635c-0.623,0.7-0.234,1.011,0.156,1.323c0.389,0.311,1.011,1.012,1.011,0.467c0-0.545,0.078-0.7-0.622-0.778
		s-0.389-0.389,0.156-0.856c0.545-0.467,0.623-1.79,0.623-1.79s0.7-0.389,0.7,0.312c0,0.7-0.467,1.167-0.467,1.712
		s0.778,0.7,1.868,0.623c1.089-0.078,2.646,0,2.646,0l1.712-1.089l0.156,1.712c0,0,0-1.09,0.155-1.79
		c0.156-0.7,1.245-1.634,1.634-2.568s1.245-1.634,1.245-1.634s-0.078,0.233-0.233,1.089s-1.245,2.179-1.79,2.957
		s-0.545,2.49-0.545,2.49c0-0.7,0.856-1.945,0.856-1.945c1.946-2.802,2.179-3.813,2.101-4.28c-0.078-0.467,0.078-1.401,0.078-1.401
		s-0.545,0.467-0.934,0.623c-0.389,0.156-0.622,0.389-0.622,0.778s-1.167,0.311-1.167,0.311l-0.467-0.701c0,0,0,0.778,0,1.557
		c0,0.778-0.467,0-0.467-0.389s-0.233-0.7-0.7-0.856c-0.467-0.156-0.934-0.778-0.934-0.778s-0.778,0.078-0.778-0.545
		c0-0.623-0.389-0.545-0.389-0.545v1.012c0,0-0.078-0.156-0.545-0.234s-0.467,0.311-0.078,0.934s-0.156,0.623-1.479,0.233
		c-1.323-0.389-1.479-2.413-0.389-3.891c1.089-1.479,2.879-0.311,3.58,0.545c0.701,0.856,2.568,2.023,3.58,1.401
		c1.012-0.623,1.635,0.078,2.179,0.389c0.545,0.311,0.7,0.311,0.7,1.167s-1.167,2.724-1.478,3.658s-0.545,2.646-0.078,3.191
		s2.179-0.701,2.802-1.401c0.622-0.7,1.245,0.078,1.245,0.623c0,0.544-0.934-0.156-0.934-0.156s-0.856,0.856-1.245,1.479
		c-0.389,0.622,0.078,0.7,0.779,0.545c0.7-0.156,0.7,0.467,0.311,1.089c-0.389,0.622-1.323,2.101-1.634,2.646
		c-0.312,0.545-1.557,0.389-1.946,0.234c-0.389-0.156-0.311-1.868-0.389-2.879c-0.078-1.012,0.389-1.556,0.389-1.556
		s-0.623-0.311-0.778,0.311c-0.155,0.623,0.156,1.868,0.078,3.269s0.623,1.634,1.557,1.634c0.934,0,2.179-1.479,2.179-1.479
		c0,1.323-0.856,1.401-1.868,3.268c-1.012,1.868,3.191,2.257,3.813,2.257c0.623,0,0.078-0.623-0.544-0.623
		c-0.623,0-1.79-0.233-2.413-0.467c-0.623-0.233-0.311-1.556,0.234-1.868c0.544-0.311,1.089-1.401,1.245-2.335
		s0.623-0.311,0.623,0.623s0.389,1.867,0.389,1.867v-1.401l0.856,0.311v-0.778c0,0,0-0.234,0.7,0.467
		c0.7,0.7,0.389,1.712,0.078,2.257c-0.311,0.545-0.156,1.557-0.156,1.557s0.7-0.934,0.778-1.557
		c0.078-0.623,0.623-0.389,0.623,0.701s0.156,1.479,0.701,1.634c0.545,0.156,1.479-0.078,2.879-1.167
		c1.401-1.089,1.868-2.49,1.868-2.49c0.156-2.49-3.424-2.957-2.335-3.035c1.089-0.078,2.023-1.634,2.023-1.634s0.7-2.801,0.778-3.58
		c0.078-0.778-0.389-1.167-1.167-1.557c-0.778-0.389-0.701,0-0.701,0s1.09,0.623,1.323,1.323c0.234,0.701-0.934,3.969-1.323,4.436
		s-2.023,0.156-2.023,0.156s-0.234-0.934,0.311-1.245c0.544-0.311,0.544-1.167,0.544-1.167s-0.7,0.622-1.089,0.622
		c-0.389,0-0.467-0.078-0.155-0.7c0.311-0.623,0.934-1.167,0.934-1.167s-0.622,0.078-1.089,0.545
		c-0.467,0.467-0.856,1.245-0.856,1.245l-1.556,0.156l-0.078,0.389l1.868-0.156c0.078,0.545,0.622,0.7,0.622,0.7v0.855
		c0,0-0.778,0.311-1.167,0.234c-0.389-0.078-1.557-0.934-2.101-1.245s-1.323-1.089-1.323-1.089s1.167-0.856,0.778-1.634
		c-0.389-0.778,0-3.657,0.156-5.681c0.156-2.023,1.323-3.657,1.79-4.514s1.712-3.502,1.712-3.891s1.245-0.233,1.245-0.233
		c0.078,0.623,0.545,1.79,0.545,1.79s-1.556,1.79-2.179,2.802s-1.167,2.49-1.167,3.269c0,0.778,1.012,0.7,1.556,0.544
		s0.778,0.467,0.778,0.467v1.167c-0.856,0.156-1.79,0.7-1.79,0.7c-2.179,0.934-1.634,3.813-1.634,3.813h1.479v-0.622l-0.934,0.156
		c0,0-0.156-0.078-0.078-0.934s1.167-1.323,1.167-1.323l0.078,1.167h-0.622l0.545,0.467l0.467,0.7v-0.7h0.545v-0.467L306.622,493
		v-0.389c-0.078-0.856,0.156-1.089,0.856-1.167c0.701-0.078,0.778,1.012,0.778,1.012l-0.934,0.156l0.156,0.389l1.634-0.233
		l-0.622-1.634c0.934-0.467,3.268-0.934,3.268-0.934c0.622-1.79-3.035-2.49-3.035-2.49s0.078-1.012,0.389-1.79
		s0.778-0.467,0.778-0.467l0.467,2.334c0,0-0.311-3.268-0.311-3.813c0-0.545,0-1.479,0-2.101s0.623-0.856,0.856-3.502
		c0.234-2.646-0.778-4.436-1.323-4.591c-0.545-0.156-0.389-2.179-0.389-2.179c0.7-2.724,0.234-11.673,0.234-11.673h-4.203
		C306.304,466.54,303.892,472.765,303.192,473.933z M262.285,505.013v-3.149c-70.915,0-141.83,0-212.745,0v3.149
		C120.455,505.013,191.37,505.013,262.285,505.013z M16.026,1.176c-1.09,0.467-1.012,2.568-1.012,2.568s0.234-1.09,1.167-1.634
		c0.934-0.545,2.023,0.156,2.101,0c0.078-0.156,0.7,0.778,0.233,1.479c-0.467,0.7-1.245,1.245-1.478,0.7
		c-0.234-0.544-0.545-0.856-0.545-0.856S16.103,3.977,16.103,4.6c0,0.622,0,2.335,0,2.335s0.467,0,0.467-0.389s0-1.012,0.701-1.167
		c0.7-0.156,0.934-0.701,1.634-0.156c0.7,0.545,1.556,0.622,1.556,0.622l-0.233,1.557c0,0-0.467,0.7-0.934,0.545
		c-0.467-0.156-0.623-0.311-0.856,0.078s-0.389,0.856-1.011,0.778c-0.623-0.078-2.179-0.7-2.179-0.7s-0.545,0.544-0.078,0.856
		c0.467,0.311,1.09,0.311,1.712,0.311c0.623,0,1.712,0.623,1.712,1.167c0,0.545-0.467,1.946-0.467,1.946s0.934-0.7,0.934-1.167
		S18.672,9.27,18.672,9.27s0.078-0.778,1.167-0.934c1.09-0.156,2.568,0.311,2.179,1.634c-0.389,1.323-1.167,0.623-1.167,0.623
		l-0.155,0.545c0,0-0.156,0.467-0.623,0.467s-0.389,0.623,0.078,0.623s0.856-0.623,1.401-1.012s1.089-0.778,0.856-1.868
		c-0.234-1.089-0.934-1.556-0.934-1.556s1.868-0.934,2.49-1.556c0.623-0.623,7.004-3.113,8.249-3.346
		c1.245-0.234,4.125-0.467,5.292-0.234C38.672,2.89,44.82,2.5,44.82,2.5s0.078,0.467-0.078,1.012S44.275,4.29,43.73,3.979
		s-1.4-0.467-2.568-0.467c-1.167,0-3.424,0.078-4.202-0.078S35.092,3.2,34.47,3.59c-0.622,0.389-1.401,0.233-2.49,0.623
		c-1.089,0.389-3.191,1.167-4.202,1.556s-1.556,1.089-1.556,1.089S23.965,6.391,23.42,7.48c-0.545,1.09-0.467,2.568,1.012,2.802
		c1.478,0.234,2.335-0.467,2.335-0.856s-0.078-1.868-0.078-1.868s0.389-1.712,2.568-1.401c0,0,0,3.035,0.622,3.113
		s1.245-0.078,3.346-1.089c2.101-1.012,4.047-1.634,5.837-1.868c1.79-0.233,4.591-0.778,7.626-0.7L46.61,1.8
		c0,0-3.268-1.011-13.696,0.234c0,0-1.945-2.179-4.747-2.023c-2.802,0.156-4.047,1.634-4.669,2.023
		C22.875,2.423,22.72,1.8,21.552,1.567c-1.167-0.234-2.568-0.156-2.568-0.156S17.115,0.709,16.026,1.176z M8.633,32.771
		c0.7-1.167,0.934-2.801,0.467-3.58c-0.467-0.778-2.568,0.156-2.568,0.156s0.234-1.479,0.701-2.802
		c0.467-1.323,1.09-1.556,2.334-2.179c1.245-0.623,2.802-1.557,3.736-1.479s1.401,0.856,2.023,0.311
		c0.623-0.545-0.389-2.101-1.012-2.101c-0.622,0-0.934,0.778-0.545,0.778s1.167,0.078,1.245,0.544
		c0.078,0.467-0.778,0.234-1.323-0.078c-0.545-0.311-1.245-0.234-1.712-0.078c-0.467,0.156-3.424,1.946-3.424,1.946
		c0.078-1.09,1.245-2.802,1.79-3.502s1.868,0,2.568,0s1.4-0.234,2.724,0.078c1.323,0.311,1.712,1.245,2.023,1.79
		c0.311,0.545,1.79,1.012,3.58,0s1.556-3.735,1.167-4.28s-0.234-0.856-0.234-0.856l0.7-0.233l-0.078-0.778c0,0,0.623,0,1.635-0.311
		s1.323-1.867,1.323-3.035s-0.545-1.868-1.401-2.101s-1.401,0.234-1.401,0.234s0.467,0,1.401,0.311s1.012,1.868,0.934,2.724
		c-0.078,0.856-0.856,1.011-0.856,1.011l-0.078-0.934l-0.545,1.245c0,0-0.778,0.311-0.778-0.156s0.078-0.934,0.701-1.634
		c0.622-0.7,0.233-1.012-0.156-1.323s-1.012-1.012-1.012-0.467s-0.078,0.701,0.623,0.778c0.7,0.078,0.389,0.389-0.156,0.856
		s-0.622,1.79-0.622,1.79s-0.7,0.389-0.7-0.311s0.467-1.167,0.467-1.712s-0.778-0.7-1.868-0.623c-1.089,0.078-2.646,0-2.646,0
		l-1.712,1.09l-0.156-1.712c0,0,0,1.09-0.155,1.79c-0.156,0.701-1.245,1.634-1.635,2.568c-0.389,0.934-1.245,1.634-1.245,1.634
		s0.078-0.234,0.233-1.089c0.156-0.856,1.245-2.179,1.79-2.957s0.545-2.49,0.545-2.49c0,0.701-0.856,1.946-0.856,1.946
		c-1.946,2.802-2.179,3.813-2.101,4.28s-0.078,1.401-0.078,1.401s0.545-0.467,0.934-0.623s0.622-0.389,0.622-0.778
		s1.167-0.311,1.167-0.311l0.467,0.701c0,0,0-0.778,0-1.557c0-0.778,0.467,0,0.467,0.389s0.233,0.7,0.7,0.856
		c0.467,0.156,0.934,0.778,0.934,0.778s0.778-0.078,0.778,0.545c0,0.622,0.389,0.545,0.389,0.545v-1.012
		c0,0,0.078,0.156,0.545,0.234c0.467,0.078,0.467-0.311,0.078-0.934s0.156-0.623,1.478-0.233c1.323,0.389,1.479,2.412,0.389,3.891
		c-1.09,1.478-2.879,0.311-3.58-0.545c-0.7-0.856-2.568-2.023-3.58-1.401c-1.012,0.623-1.634-0.078-2.179-0.389
		c-0.545-0.312-0.7-0.312-0.7-1.167c0-0.856,1.167-2.724,1.478-3.658s0.545-2.646,0.078-3.191c-0.467-0.545-2.179,0.701-2.801,1.401
		c-0.623,0.701-1.245-0.078-1.245-0.622c0-0.545,0.934,0.156,0.934,0.156s0.856-0.856,1.245-1.479
		c0.389-0.623-0.078-0.7-0.778-0.545c-0.7,0.156-0.7-0.467-0.311-1.089c0.389-0.622,1.323-2.101,1.634-2.646
		c0.311-0.545,1.556-0.389,1.945-0.234c0.389,0.156,0.311,1.868,0.389,2.879c0.078,1.012-0.389,1.557-0.389,1.557
		S14,11.06,14.156,10.437C14.312,9.815,14,8.57,14.078,7.169c0.078-1.401-0.622-1.634-1.556-1.634s-2.179,1.479-2.179,1.479
		c0-1.323,0.856-1.401,1.868-3.268c1.012-1.868-3.191-2.257-3.813-2.257S8.32,2.112,8.943,2.112c0.622,0,1.79,0.233,2.412,0.467
		c0.623,0.233,0.311,1.556-0.233,1.868c-0.545,0.311-1.09,1.401-1.245,2.334C9.721,7.715,9.255,7.092,9.255,6.158
		S8.866,4.29,8.866,4.29v1.401L8.01,5.38v0.778c0,0,0,0.234-0.7-0.467c-0.7-0.7-0.389-1.712-0.078-2.257
		c0.311-0.545,0.156-1.557,0.156-1.557S6.687,2.811,6.61,3.434C6.532,4.056,5.988,3.823,5.988,2.733S5.832,1.254,5.287,1.099
		C4.742,0.943,3.809,1.177,2.408,2.266c-1.4,1.089-1.868,2.49-1.868,2.49c-0.156,2.49,3.424,2.957,2.334,3.035
		C1.785,7.869,0.851,9.425,0.851,9.425s-0.701,2.801-0.778,3.58c-0.078,0.778,0.389,1.167,1.167,1.556s0.7,0,0.7,0
		s-1.089-0.623-1.323-1.323C0.383,12.537,1.551,9.269,1.94,8.802s2.023-0.156,2.023-0.156S4.196,9.58,3.652,9.891
		c-0.545,0.311-0.545,1.167-0.545,1.167s0.701-0.623,1.089-0.623c0.389,0,0.467,0.078,0.156,0.701
		c-0.311,0.623-0.934,1.167-0.934,1.167s0.623-0.078,1.09-0.545s0.856-1.245,0.856-1.245l1.556-0.156l0.078-0.389L5.13,10.124
		c-0.078-0.545-0.623-0.7-0.623-0.7V8.568c0,0,0.778-0.311,1.167-0.234c0.389,0.078,1.557,0.934,2.102,1.245
		c0.545,0.311,1.323,1.089,1.323,1.089s-1.167,0.856-0.778,1.634s0,3.658-0.156,5.681s-1.323,3.658-1.79,4.514
		s-1.712,3.502-1.712,3.891s-1.245,0.234-1.245,0.234C3.34,26,2.873,24.832,2.873,24.832s1.557-1.79,2.179-2.801
		c0.622-1.012,1.167-2.49,1.167-3.269c0-0.778-1.012-0.7-1.556-0.544c-0.545,0.156-0.778-0.467-0.778-0.467v-1.167
		c0.856-0.156,1.79-0.7,1.79-0.7c2.179-0.934,1.635-3.813,1.635-3.813H5.831v0.622l0.934-0.156c0,0,0.155,0.078,0.077,0.934
		c-0.077,0.856-1.167,1.323-1.167,1.323l-0.077-1.167H6.22L5.675,13.16l-0.467-0.7v0.7H4.664v0.467l0.544,0.078v0.389
		c0.078,0.856-0.156,1.09-0.856,1.167c-0.7,0.078-0.778-1.011-0.778-1.011l0.934-0.156l-0.156-0.389l-1.634,0.233l0.623,1.635
		c-0.934,0.467-3.269,0.934-3.269,0.934c-0.623,1.79,3.035,2.49,3.035,2.49s-0.078,1.012-0.389,1.79S1.94,21.254,1.94,21.254
		l-0.467-2.335c0,0,0.311,3.269,0.311,3.813c0,0.545,0,1.479,0,2.101s-0.623,0.856-0.856,3.502
		c-0.234,2.646,0.778,4.436,1.323,4.591c0.545,0.156,0.389,2.179,0.389,2.179c-0.701,2.724-0.234,11.673-0.234,11.673h4.203
		C5.52,40.164,7.932,33.938,8.633,32.771z M305.837,2.732c0,1.089-0.545,1.323-0.623,0.701c-0.078-0.623-0.778-1.557-0.778-1.557
		s-0.156,1.012,0.156,1.557c0.311,0.544,0.622,1.556-0.078,2.257s-0.7,0.467-0.7,0.467V5.379l-0.856,0.311V4.289
		c0,0-0.389,0.934-0.389,1.868s-0.467,1.557-0.623,0.623c-0.156-0.934-0.7-2.023-1.245-2.334c-0.545-0.311-0.856-1.634-0.234-1.868
		c0.623-0.234,1.79-0.467,2.413-0.467s1.167-0.623,0.544-0.623c-0.622,0-4.825,0.389-3.813,2.257
		c1.012,1.867,1.868,1.945,1.868,3.268c0,0-1.245-1.479-2.179-1.479s-1.634,0.234-1.557,1.634c0.078,1.401-0.233,2.646-0.078,3.268
		c0.156,0.623,0.778,0.312,0.778,0.312s-0.467-0.545-0.389-1.557s0-2.724,0.389-2.879c0.389-0.156,1.634-0.311,1.946,0.234
		c0.311,0.545,1.245,2.023,1.634,2.646c0.389,0.622,0.389,1.245-0.311,1.089c-0.701-0.156-1.167-0.078-0.779,0.545
		c0.389,0.622,1.245,1.479,1.245,1.479s0.934-0.701,0.934-0.156s-0.622,1.323-1.245,0.622c-0.623-0.7-2.335-1.945-2.802-1.401
		c-0.467,0.545-0.233,2.257,0.078,3.191s1.478,2.802,1.478,3.658s-0.155,0.856-0.7,1.167c-0.544,0.311-1.167,1.012-2.179,0.389
		c-1.011-0.622-2.879,0.545-3.58,1.401c-0.7,0.856-2.49,2.023-3.58,0.545c-1.09-1.479-0.934-3.502,0.389-3.891
		s1.868-0.389,1.479,0.233s-0.389,1.011,0.078,0.934c0.467-0.078,0.545-0.234,0.545-0.234v1.012c0,0,0.389,0.078,0.389-0.545
		s0.778-0.545,0.778-0.545s0.467-0.622,0.934-0.778c0.467-0.156,0.7-0.467,0.7-0.856s0.467-1.167,0.467-0.389s0,1.557,0,1.557
		l0.467-0.701c0,0,1.167-0.078,1.167,0.311s0.234,0.622,0.622,0.778c0.389,0.156,0.934,0.623,0.934,0.623s-0.156-0.934-0.078-1.401
		s-0.156-1.479-2.101-4.28c0,0-0.856-1.245-0.856-1.946c0,0,0,1.712,0.545,2.49s1.634,2.101,1.79,2.957s0.233,1.089,0.233,1.089
		s-0.856-0.7-1.245-1.634s-1.478-1.868-1.634-2.568c-0.155-0.7-0.155-1.79-0.155-1.79l-0.156,1.712l-1.712-1.09
		c0,0-1.556,0.078-2.646,0s-1.868,0.078-1.868,0.623c0,0.544,0.467,1.012,0.467,1.712s-0.7,0.311-0.7,0.311s-0.078-1.323-0.623-1.79
		c-0.544-0.467-0.856-0.778-0.156-0.856c0.701-0.078,0.622-0.233,0.622-0.778s-0.622,0.156-1.011,0.467
		c-0.389,0.311-0.779,0.623-0.156,1.323c0.623,0.701,0.7,1.167,0.7,1.634s-0.778,0.156-0.778,0.156l-0.545-1.245l-0.078,0.934
		c0,0-0.778-0.156-0.856-1.011c-0.078-0.856,0-2.413,0.934-2.724s1.401-0.311,1.401-0.311s-0.545-0.467-1.401-0.234
		c-0.856,0.234-1.401,0.934-1.401,2.101s0.311,2.723,1.323,3.035c1.012,0.311,1.634,0.311,1.634,0.311l-0.078,0.778l0.7,0.233
		c0,0,0.156,0.311-0.233,0.856c-0.389,0.545-0.623,3.268,1.167,4.28c1.79,1.012,3.268,0.545,3.58,0
		c0.311-0.545,0.701-1.479,2.023-1.79c1.323-0.311,2.023-0.078,2.724-0.078c0.7,0,2.023-0.7,2.568,0
		c0.545,0.7,1.712,2.412,1.79,3.502c0,0-2.957-1.79-3.424-1.946s-1.167-0.233-1.712,0.078s-1.401,0.545-1.323,0.078
		s0.856-0.544,1.245-0.544s0.078-0.778-0.545-0.778c-0.623,0-1.634,1.557-1.012,2.101c0.622,0.545,1.089-0.233,2.023-0.311
		c0.934-0.078,2.49,0.856,3.735,1.479c1.245,0.622,1.868,0.856,2.335,2.179c0.467,1.323,0.701,2.802,0.701,2.802
		s-2.101-0.934-2.568-0.156c-0.467,0.778-0.233,2.412,0.467,3.58c0.7,1.167,3.112,7.393,2.023,14.008h4.203
		c0,0,0.466-8.949-0.234-11.673c0,0-0.156-2.023,0.389-2.179s1.556-1.945,1.323-4.591s-0.856-2.879-0.856-3.502s0-1.556,0-2.101
		s0.311-3.813,0.311-3.813l-0.467,2.335c0,0-0.467,0.311-0.778-0.467s-0.389-1.79-0.389-1.79s3.658-0.701,3.035-2.49
		c0,0-2.335-0.467-3.268-0.934l0.622-1.634l-1.634-0.233l-0.156,0.389l0.934,0.156c0,0-0.078,1.089-0.778,1.011
		s-0.934-0.311-0.856-1.167v-0.389l0.545-0.078v-0.467h-0.545v-0.7l-0.467,0.7l-0.545,0.467h0.622l-0.078,1.167
		c0,0-1.09-0.467-1.167-1.323c-0.078-0.856,0.078-0.934,0.078-0.934l0.934,0.156v-0.622h-1.479c0,0-0.545,2.879,1.634,3.813
		c0,0,0.934,0.545,1.79,0.7v1.167c0,0-0.234,0.623-0.778,0.467c-0.545-0.156-1.556-0.234-1.556,0.544s0.545,2.257,1.167,3.269
		c0.622,1.012,2.179,2.801,2.179,2.801s-0.467,1.167-0.545,1.79c0,0-1.245,0.156-1.245-0.234c0-0.389-1.245-3.035-1.712-3.891
		s-1.634-2.49-1.79-4.514c-0.156-2.023-0.545-4.902-0.156-5.681c0.389-0.778-0.778-1.634-0.778-1.634s0.778-0.778,1.323-1.089
		c0.545-0.312,1.712-1.167,2.101-1.245s1.167,0.234,1.167,0.234v0.856c0,0-0.545,0.156-0.622,0.7l-1.868-0.156l0.078,0.389
		l1.556,0.156c0,0,0.389,0.778,0.856,1.245c0.467,0.467,1.089,0.545,1.089,0.545s-0.622-0.545-0.934-1.167
		c-0.311-0.622-0.234-0.701,0.155-0.701s1.089,0.623,1.089,0.623s0-0.856-0.544-1.167c-0.545-0.311-0.311-1.245-0.311-1.245
		s1.634-0.311,2.023,0.156s1.557,3.736,1.323,4.436c-0.233,0.7-1.323,1.323-1.323,1.323s-0.078,0.389,0.701,0
		c0.778-0.389,1.245-0.778,1.167-1.556s-0.778-3.58-0.778-3.58s-0.934-1.556-2.023-1.634c-1.089-0.078,2.49-0.545,2.335-3.035
		c0,0-0.467-1.401-1.868-2.49c-1.4-1.09-2.334-1.323-2.879-1.167C305.993,1.254,305.837,1.643,305.837,2.732z M283.658,0.008
		c-2.801-0.156-4.747,2.023-4.747,2.023c-10.428-1.245-13.696-0.234-13.696-0.234l-0.078,3.813c3.035-0.078,5.837,0.467,7.626,0.7
		c1.79,0.234,3.735,0.856,5.837,1.868c2.101,1.012,2.724,1.167,3.346,1.089c0.623-0.078,0.623-3.113,0.623-3.113
		c2.179-0.311,2.568,1.401,2.568,1.401s-0.078,1.479-0.078,1.868s0.856,1.089,2.335,0.856s1.556-1.712,1.012-2.802
		c-0.545-1.089-2.801-0.622-2.801-0.622s-0.545-0.7-1.556-1.089c-1.012-0.389-3.113-1.167-4.202-1.556s-1.868-0.234-2.49-0.623
		c-0.622-0.389-1.712-0.311-2.49-0.156c-0.778,0.156-3.035,0.078-4.202,0.078s-2.023,0.156-2.568,0.467
		c-0.545,0.311-0.856,0.078-1.012-0.467s-0.078-1.012-0.078-1.012s6.148,0.389,7.315,0.156s4.047,0,5.292,0.234
		c1.245,0.233,7.626,2.724,8.249,3.346c0.622,0.622,2.49,1.556,2.49,1.556s-0.7,0.467-0.934,1.556
		c-0.234,1.089,0.311,1.479,0.856,1.868c0.545,0.389,0.934,1.012,1.401,1.012s0.545-0.623,0.078-0.623s-0.623-0.467-0.623-0.467
		l-0.156-0.545c0,0-0.778,0.7-1.167-0.623c-0.389-1.323,1.09-1.79,2.179-1.634c1.09,0.156,1.167,0.934,1.167,0.934
		s-0.389,1.479-0.389,1.946s0.934,1.167,0.934,1.167s-0.467-1.401-0.467-1.946c0-0.544,1.089-1.167,1.712-1.167
		c0.623,0,1.245,0,1.712-0.311S296.578,8.1,296.578,8.1s-1.556,0.622-2.179,0.7s-0.778-0.389-1.012-0.778
		c-0.234-0.389-0.389-0.233-0.856-0.078c-0.467,0.156-0.934-0.545-0.934-0.545l-0.233-1.557c0,0,0.856-0.078,1.556-0.622
		c0.701-0.545,0.934,0,1.635,0.156c0.7,0.156,0.7,0.778,0.7,1.167s0.467,0.389,0.467,0.389s0-1.712,0-2.335
		s-0.389-1.167-0.389-1.167s-0.311,0.311-0.545,0.856c-0.233,0.545-1.012,0-1.478-0.7c-0.467-0.7,0.156-1.634,0.233-1.479
		c0.078,0.156,1.167-0.545,2.101,0c0.934,0.545,1.167,1.634,1.167,1.634s0.078-2.101-1.012-2.568
		c-1.089-0.467-2.957,0.234-2.957,0.234s-1.401-0.078-2.568,0.156c-1.167,0.233-1.323,0.856-1.945,0.467
		C287.705,1.643,286.46,0.164,283.658,0.008z M262.285,4.839V1.69c-70.915,0-141.83,0-212.745,0v3.149
		C120.455,4.839,191.37,4.839,262.285,4.839z M5.604,456.729c0-135.585,0-271.17,0-406.754H2.605c0,135.584,0,271.169,0,406.754
		H5.604z M309.219,456.729c0-135.585,0-271.17,0-406.754h-2.999c0,135.584,0,271.169,0,406.754H309.219z"/>
</g>
</svg>
