<?xml version="1.0" encoding="utf-8"?>
<!-- Generator: Adobe Illustrator 17.0.0, SVG Export Plug-In . SVG Version: 6.00 Build 0)  -->
<!DOCTYPE svg PUBLIC "-//W3C//DTD SVG 1.1//EN" "http://www.w3.org/Graphics/SVG/1.1/DTD/svg11.dtd">
<svg version="1.1" id="图层_1" xmlns:ev="http://www.w3.org/2001/xml-events"
	 xmlns="http://www.w3.org/2000/svg" xmlns:xlink="http://www.w3.org/1999/xlink" x="0px" y="0px" width="370px" height="334px"
	 viewBox="0 0 370 334" enable-background="new 0 0 370 334" xml:space="preserve">
<path fill="#323D45" d="M317.741,128.366c6.952,3.873,52.083,31.492,30.947,85.148l-14.887-5.865c0,0-17.13,22.084-55.598,21.091
	l0,0l-38.116,96.764c-2.024,5.138-7.831,7.663-12.97,5.639L72.668,270.304c-5.138-2.025-7.663-7.831-5.639-12.97l16.859-42.799l0,0
	c0,0-26.753-10.762-32.904-41.98c0,0-43.133-24.111-25.827-73.586c0,0-24.539-35.159,17.027-81.426c0,0,8.571,35.273,44.295,53.991
	c0,0-3.675-41.814,36.396-70.571c0,0-2.625,28.56,25.517,49.819l12.461-31.634c2.025-5.139,7.831-7.664,12.97-5.64l154.449,60.839
	c5.139,2.025,7.663,7.831,5.639,12.97L317.741,128.366z M261.593,107.195c9.764,3.846,14.561,14.879,10.715,24.642
	c-3.846,9.763-14.878,14.56-24.642,10.714c-9.763-3.846-14.56-14.878-10.714-24.641C240.798,108.147,251.83,103.35,261.593,107.195z
	"/>
<path fill="#FFFFFF" d="M156.517,253.893l16.748,6.596c1.541,0.608,2.299,2.35,1.692,3.891l-6.597,16.748
	c-0.608,1.541-2.35,2.299-3.891,1.691l-16.748-6.597c-1.541-0.607-2.299-2.349-1.691-3.89l6.597-16.748
	C153.234,254.043,154.976,253.285,156.517,253.893z"/>
<path fill="#FFAA00" d="M340.793,195.357l-42.799-16.859l15.393-39.078C351.231,154.327,340.793,195.357,340.793,195.357z
	 M282.967,216.645l10.629-26.982l28.843,11.361C322.439,201.024,312.54,217.581,282.967,216.645z"/>
<path fill="#00C2F2" d="M177.529,28.01L314.602,81.9c1.446,0.569,2.663,1.469,3.597,2.578c2.022,2.443,2.691,5.882,1.446,9.042
	l-33.794,85.791l-33.665,85.298c-1.823,4.62-7.059,6.889-11.694,5.066L117.191,221.2C144.821,221.15,158,204,158,204l-5-8
	c-8.236,8.589-32.251,19.244-54.7,13.472c-0.042-0.191-0.096-0.379-0.126-0.572c-6.674-1.817-12.362-4.593-17.16-7.897
	c-8.974-6.977-16.743-18.103-21.836-34.943c0.025-0.355,0.061-0.689,0.124-0.977c0,0-41.888-19.172-24.108-64.31
	c0,0-19.663-31.944,3.64-61.454c2.326,4.054,21.259,35.973,45.601,44.44c17.964,6.248,31.504,10.111,42.922,11.105
	c5.234,0.479,10.023,0.361,14.58-0.409l0,0l24.189-61.408c1.23-3.122,4.012-5.165,7.113-5.607
	C174.649,27.284,176.117,27.455,177.529,28.01z M247.586,142.532c9.785,3.847,20.838-0.942,24.688-10.696
	c3.849-9.755-0.962-20.781-10.747-24.628c-9.784-3.846-20.837,0.943-24.687,10.697C232.99,127.659,237.801,138.686,247.586,142.532z
	 M143.669,61.947l-9.171,23.239c0,0-3.963,0.627-10.106,0.188c-7.111-0.547-17.032-2.535-27.115-8.512
	c0,0-6.585-27.374,18.149-54.703C116.154,25.112,122.195,47.107,143.669,61.947z"/>
</svg>
