<?xml version="1.0" encoding="utf-8"?>
<!-- Generator: Adobe Illustrator 17.0.0, SVG Export Plug-In . SVG Version: 6.00 Build 0)  -->
<!DOCTYPE svg PUBLIC "-//W3C//DTD SVG 1.1//EN" "http://www.w3.org/Graphics/SVG/1.1/DTD/svg11.dtd">
<svg version="1.1" id="Layer_1" xmlns="http://www.w3.org/2000/svg" xmlns:xlink="http://www.w3.org/1999/xlink" x="0px" y="0px"
	 width="171.957px" height="229.711px" viewBox="0 0 171.957 229.711" enable-background="new 0 0 171.957 229.711"
	 xml:space="preserve">
<path fill="#CCAD8A" d="M21.711,229.711L0.533,208.532H0V0h171.953v208.423l0.004,0.004l-0.004,0.004v0.1h-0.1l-21.176,21.179
	l-21.182-21.179h-0.629L107.69,229.71l-21.178-21.179h-0.637L64.699,229.71l-21.178-21.179h-0.637L21.711,229.711L21.711,229.711z"
	/>
<path fill="#FFFFFF" d="M7.268,21.256h9.666v2.188H7.268V21.256L7.268,21.256z M22.219,21.256v2.188h9.666v-2.188H22.219
	L22.219,21.256z M37.17,21.256v2.188h9.666v-2.188H37.17L37.17,21.256z M52.121,21.256v2.188h9.666v-2.188H52.121L52.121,21.256z
	 M67.072,21.256v2.188h9.666v-2.188H67.072L67.072,21.256z M82.023,21.256v2.188h9.666v-2.188H82.023L82.023,21.256z M96.975,21.256
	v2.188h9.666v-2.188H96.975L96.975,21.256z M111.926,21.256v2.188h9.666v-2.188H111.926L111.926,21.256z M126.877,21.256v2.188
	h9.666v-2.188H126.877L126.877,21.256z M141.828,21.256v2.188h9.666v-2.188H141.828L141.828,21.256z M156.779,21.256v2.188h9.666
	v-2.188H156.779L156.779,21.256z"/>
<path fill="#D1B38F" d="M0,170.797v-3.145h171.953v3.145H0L0,170.797z M0,163.435h171.953v-3.147H0V163.435L0,163.435z M0,155.795
	h171.953v-3.147H0V155.795L0,155.795z M0,148.43h171.953v-3.147H0V148.43L0,148.43z M0,141.083h171.953v-3.145H0V141.083L0,141.083z
	 M0,133.721h171.953v-3.147H0V133.721L0,133.721z M0,126.08h171.953v-3.147H0V126.08L0,126.08z M0,118.716h171.953v-3.145H0V118.716
	L0,118.716z M21.711,229.711l2.422-2.425h-4.846L21.711,229.711L21.711,229.711z M64.701,229.711l2.422-2.425h-4.846L64.701,229.711
	L64.701,229.711z M107.691,229.711l2.422-2.425h-4.846L107.691,229.711L107.691,229.711z M150.678,229.711l2.422-2.425h-4.85
	L150.678,229.711L150.678,229.711z M15.07,223.068h13.285l3.144-3.147H11.926L15.07,223.068L15.07,223.068z M58.061,223.068h13.281
	l3.148-3.147H54.912L58.061,223.068L58.061,223.068z M101.047,223.068h13.285l3.149-3.147H97.902L101.047,223.068L101.047,223.068z
	 M144.033,223.068h13.285l3.145-3.147h-19.574L144.033,223.068L144.033,223.068z M7.43,215.428h28.564l3.146-3.147H4.285
	L7.43,215.428L7.43,215.428z M50.42,215.428h28.561l3.15-3.147H47.272L50.42,215.428L50.42,215.428z M93.406,215.428h28.564
	l3.146-3.147H90.262L93.406,215.428L93.406,215.428z M136.393,215.428h28.564l3.147-3.147h-34.856L136.393,215.428L136.393,215.428z
	 M0,208.064h171.953v-3.145H0V208.064L0,208.064z M0,200.719h171.953v-3.147H0V200.719L0,200.719z M0,193.354h171.953v-3.151H0
	V193.354L0,193.354z M0,185.714h171.953v-3.147H0V185.714L0,185.714z M0,178.35h171.953v-3.145H0V178.35L0,178.35z M0,51.613
	h171.953v-3.147H0V51.613L0,51.613z M0,44.248h171.953v-3.145H0V44.248L0,44.248z M0,36.608h171.953v-3.145H0V36.608L0,36.608z
	 M0,29.246h171.953v-3.147H0V29.246L0,29.246z M0,21.899h171.953v-3.147H0V21.899L0,21.899z M0,14.534h171.953V11.39H0V14.534
	L0,14.534z M0,6.894h171.953V3.749H0V6.894L0,6.894z M0,111.247h171.953v-3.145H0V111.247L0,111.247z M0,103.882h171.953v-3.149H0
	V103.882L0,103.882z M0,96.244h171.953v-3.147H0V96.244L0,96.244z M0,88.88h171.953v-3.147H0V88.88L0,88.88z M0,81.533h171.953
	v-3.145H0V81.533L0,81.533z M0,74.168h171.953v-3.149H0V74.168L0,74.168z M0,66.53h171.953v-3.147H0V66.53L0,66.53z M0,59.165
	h171.953v-3.147H0V59.165L0,59.165z"/>
</svg>
