<?xml version="1.0" encoding="utf-8"?>
<!-- Generator: Adobe Illustrator 17.0.0, SVG Export Plug-In . SVG Version: 6.00 Build 0)  -->
<!DOCTYPE svg PUBLIC "-//W3C//DTD SVG 1.1//EN" "http://www.w3.org/Graphics/SVG/1.1/DTD/svg11.dtd">
<svg version="1.1" id="图层_1" xmlns="http://www.w3.org/2000/svg" xmlns:xlink="http://www.w3.org/1999/xlink" x="0px" y="0px"
	 width="215.667px" height="112.674px" viewBox="0 0 215.667 112.674" enable-background="new 0 0 215.667 112.674"
	 xml:space="preserve">
<path fill="#070707" d="M33.093,71.927c0,1.749,1.35,2.943,3.056,2.943c1.709,0,3.06-1.201,3.06-2.943
	c0.001-1.751-1.343-2.951-3.06-2.951C34.436,68.976,33.093,70.176,33.093,71.927z M38.282,71.927c0,1.185-0.925,2.099-2.133,2.099
	c-1.222,0-2.128-0.892-2.128-2.099c0-1.209,0.899-2.108,2.128-2.108C37.364,69.819,38.282,70.734,38.282,71.927z M43.042,58.655
	H29.224L51.155,0.179h14.708l-1.698,26.225l9.849-26.225h13.82L65.903,58.655H51.018l1.692-25.871L43.042,58.655z M67.697,58.655
	L89.629,0.179h13.823L81.521,58.655H67.697z M34.899,70.339v3.173h0.803v-1.348h0.135l0.727,1.348h0.921l-0.812-1.378
	c0.43-0.022,0.763-0.243,0.763-0.836c0-0.765-0.497-0.959-1.337-0.959H34.899z M36.593,71.22c0.001,0.328-0.156,0.4-0.436,0.4
	h-0.455v-0.735h0.383C36.321,70.885,36.593,70.912,36.593,71.22z M175.096,5.893c1.709,0,3.06-1.2,3.06-2.942
	c0-1.75-1.344-2.951-3.06-2.951c-1.713,0-3.056,1.201-3.056,2.951C172.04,4.702,173.39,5.893,175.096,5.893z M175.096,0.843
	c1.214,0,2.132,0.915,2.132,2.108c0,1.185-0.925,2.101-2.132,2.101c-1.221,0-2.129-0.894-2.129-2.101
	C172.967,1.743,173.866,0.843,175.096,0.843z M174.648,3.187h0.136l0.728,1.35h0.92l-0.813-1.379
	c0.43-0.023,0.763-0.243,0.763-0.836c0-0.764-0.498-0.957-1.336-0.957h-1.2v3.172h0.802V3.187z M174.648,1.908h0.384
	c0.236,0,0.509,0.027,0.509,0.336c0,0.328-0.158,0.4-0.438,0.4h-0.455V1.908z M214.139,35.176
	c-0.302,0.075-28.765,7.786-61.596,16.68l-0.371,1.033v-0.933c0.123-0.033,0.248-0.067,0.371-0.1l1.629-4.542h-16.123l5.296-14.176
	h13.293l4.088-10.899h-13.292l4.557-12.316h13.997l3.716-9.745h-27.696h-0.127h-14.353l-14.483,17.543l6.687-17.543h-14
	L83.978,58.655h13.824l9.287-24.453l0.634,24.453l19.886-0.043c0.241-0.065,0.483-0.131,0.724-0.196v0.195l-0.724,0.002
	c-37.68,10.21-73.402,19.891-73.402,19.891c-20.199,5.67-43.235-6.689-26.578-40.005C8.314,61.182-9.909,91.362,6.185,105.262
	c15.597,13.466,35.088,5.492,48.377,0.176c13.292-5.316,160.197-69.11,160.197-69.11C216.175,35.62,215.909,34.732,214.139,35.176z
	 M121.438,54.756l-0.885-30.478l20.895-22.946L121.438,54.756z"/>
</svg>
