<?xml version="1.0" encoding="utf-8"?>
<!DOCTYPE svg PUBLIC "-//W3C//DTD SVG 1.1//EN" "http://www.w3.org/Graphics/SVG/1.1/DTD/svg11.dtd">
<svg version="1.1" baseProfile="full"
 xmlns="http://www.w3.org/2000/svg"
 xmlns:xlink="http://www.w3.org/1999/xlink"
 xmlns:ev="http://www.w3.org/2001/xml-events" 
  height="182px" 
  width="466px" 
>
<path fill="rgb( 255, 82, 70 )"
 d="M446,29 C446,29 427,38 427,38 C427,38 443.667,42 445,42 C446.333,42 443,53 443,53 C443,53 405,49 405,49 C405,49 375,63 375,63 C375,63 376,53 376,53 C376,53 384,47 384,47 C384,47 377,45 377,45 C377,45 377,33 377,33 C377,33 407,38 407,38 C407,38 429,26 429,26 C429,26 379,31 379,31 C379,31 380,20 380,20 C380,20 459,14 459,14 C459,14 447,20 447,20 C447,20 446,29 446,29 ZM374,45 C374,45 367,109 367,109 C367,109 352,112 352,112 C352,112 361,46 361,46 C361,46 358,46 358,46 C358,46 362,32 362,32 C362,32 357,33 357,33 C357,33 348,116 348,116 C348,116 193,137 193,137 C193,137 203,75 203,75 C203,75 198,74 198,74 C198,74 182,179 182,179 C182,179 166,182 166,182 C166,182 181,77 181,77 C181,77 176,77 176,77 C176,77 167,141 167,141 C167,141 149,143 149,143 C149,143 159,81 159,81 C159,81 154,81 154,81 C154,81 154,71 154,71 C154,71 179,68 179,68 C179,68 194,54 194,54 C194,54 156,59 156,59 C156,59 157,50 157,50 C157,50 224,41 224,41 C224,41 243,22 243,22 C243,22 224,45 224,45 C224,45 224,51 224,51 C224,51 205,65 205,65 C205,65 223,63 223,63 C223,63 214,126 214,126 C214,126 226,125 226,125 C226,125 233,60 233,60 C233,60 269,55 269,55 C269,55 271,49 271,49 C271,49 233,54 233,54 C233,54 234,46 234,46 C234,46 273,40 273,40 C273,40 273,35 273,35 C273,35 297,31 297,31 C297,31 295,36 295,36 C295,36 334,31 334,31 C334,31 334,40 334,40 C334,40 294,45 294,45 C294,45 293,51 293,51 C293,51 333,45 333,45 C333,45 326,111 326,111 C326,111 333,111 333,111 C333,111 340,25 340,25 C340,25 376,20 376,20 C376,20 371,44 371,44 C371,44 374,45 374,45 ZM250.22,121 C250.22,121 304,113.196 304,113.196 C304,113.196 304.78,106 304.78,106 C304.78,106 250,113.804 250,113.804 C250,113.804 250.22,121 250.22,121 ZM251.22,104 C251.22,104 305,96.1959999999999 305,96.1959999999999 C305,96.1959999999999 305.78,89 305.78,89 C305.78,89 251,96.8040000000001 251,96.8040000000001 C251,96.8040000000001 251.22,104 251.22,104 ZM254,80.8040000000001 C254,80.8040000000001 254.22,88 254.22,88 C254.22,88 308,80.1959999999999 308,80.1959999999999 C308,80.1959999999999 308.78,73 308.78,73 C308.78,73 254,80.8040000000001 254,80.8040000000001 ZM114,80 C114,80 90,83 90,83 C90,83 84,69 84,69 C84,69 40,75 40,75 C40,75 30,90 30,90 C30,90 9,94 9,94 C9,94 25,68 25,68 C25,68 102,58 102,58 C102,58 155,0 155,0 C155,0 106,62 106,62 C106,62 114,80 114,80 ZM113,93 C113,93 72,99 72,99 C72,99 71,119 71,119 C71,119 119,112 119,112 C119,112 122,97 122,97 C122,97 128,69 128,69 C128,69 118,69 118,69 C118,69 118,61 118,61 C118,61 127,60 127,60 C127,60 126,54 126,54 C126,54 148,51 148,51 C148,51 148,56 148,56 C148,56 153,56 153,56 C153,56 153,64 153,64 C153,64 146,66 146,66 C146,66 142,104 142,104 C142,104 147,105 147,105 C147,105 147,113 147,113 C147,113 116,121 116,121 C116,121 70,127 70,127 C70,127 69,146 69,146 C69,146 107,142 107,142 C107,142 106,150 106,150 C106,150 0,164 0,164 C0,164 0,156 0,156 C0,156 40,151 40,151 C40,151 42,132 42,132 C42,132 3,137 3,137 C3,137 4,127 4,127 C4,127 44,122 44,122 C44,122 46,103 46,103 C46,103 7,107 7,107 C7,107 8,98 8,98 C8,98 114,85 114,85 C114,85 113,93 113,93 ZM375,80 C375,80 387,76 387,76 C387,76 388,89 388,89 C388,89 396,87 396,87 C396,87 398,73 398,73 C398,73 372,76 372,76 C372,76 373,68 373,68 C373,68 398,65 398,65 C398,65 400,57 400,57 C400,57 421,52 421,52 C421,52 422,61 422,61 C422,61 442,57 442,57 C442,57 441,66 441,66 C441,66 420,68 420,68 C420,68 419,85 419,85 C419,85 441,82 441,82 C441,82 440,92 440,92 C440,92 416,93 416,93 C416,93 412,131 412,131 C412,131 466,71 466,71 C466,71 410,141 410,141 C410,141 390,143 390,143 C390,143 395,98 395,98 C395,98 369,99 369,99 C369,99 375,80 375,80 Z "/>
</svg>
