<?xml version="1.0" encoding="utf-8"?>
<!-- Generator: Adobe Illustrator 17.0.0, SVG Export Plug-In . SVG Version: 6.00 Build 0)  -->
<!DOCTYPE svg PUBLIC "-//W3C//DTD SVG 1.1//EN" "http://www.w3.org/Graphics/SVG/1.1/DTD/svg11.dtd">
<svg version="1.1" xmlns="http://www.w3.org/2000/svg" xmlns:xlink="http://www.w3.org/1999/xlink" x="0px" y="0px"
	 width="156.591px" height="194.176px" viewBox="0 0 156.591 194.176" enable-background="new 0 0 156.591 194.176"
	 xml:space="preserve">
<g id="background">
</g>
<g id="objects">
	<path fill="#9EB121" d="M53.393,17.816c0,0-4.207,8.488-2.131,14.069c2.074,5.584,8.792,7.547,8.792,7.547s2.43-8.035,0.898-12.483
		C59.421,22.5,53.393,17.816,53.393,17.816"/>
	<path fill="#C6CC38" d="M55.372,25.723c0,0-2.339,4.718-1.186,7.824c1.153,3.104,4.888,4.195,4.888,4.195s1.352-4.469,0.501-6.941
		C58.724,28.328,55.372,25.723,55.372,25.723"/>
	<path fill="#9EB121" d="M33.375,37.195c0,0,5.577,7.658,11.486,8.403c5.908,0.745,10.759-4.301,10.759-4.301
		s-5.997-5.873-10.648-6.576C40.317,34.02,33.375,37.195,33.375,37.195"/>
	<path fill="#C6CC38" d="M41.301,39.101c0,0,3.101,4.257,6.386,4.673c3.286,0.414,5.983-2.391,5.983-2.391s-3.335-3.266-5.921-3.657
		C45.162,37.336,41.301,39.101,41.301,39.101"/>
	<path fill="#9EB121" d="M65.746,54.756c0,0-6.682,1.184-9.018,4.753c-2.336,3.569-0.612,8.276-0.612,8.276s5.664-2.014,7.579-4.789
		C65.607,60.224,65.746,54.756,65.746,54.756"/>
	<path fill="#C6CC38" d="M62.027,59.26c0,0-3.715,0.657-5.014,2.641c-1.298,1.985-0.34,4.601-0.34,4.601s3.15-1.118,4.212-2.66
		C61.95,62.299,62.027,59.26,62.027,59.26"/>
	<path fill="#9EB121" d="M43.187,50.847c0,0-1.788,6.544,0.438,10.183c2.227,3.639,7.22,4.094,7.22,4.094s0.601-5.981-1.087-8.898
		C48.07,53.31,43.187,50.847,43.187,50.847"/>
	<path fill="#C6CC38" d="M45.667,56.131c0,0-0.996,3.64,0.242,5.663c1.236,2.024,4.013,2.275,4.013,2.275s0.336-3.325-0.603-4.945
		C48.381,57.502,45.667,56.131,45.667,56.131"/>
	<path fill="#9EB121" d="M22.781,58.767c0,0,2.337,8.021,7.016,10.408c4.681,2.387,10.215-0.35,10.215-0.35
		s-3.218-6.666-6.869-8.641C29.494,58.209,22.781,58.767,22.781,58.767"/>
	<path fill="#C6CC38" d="M28.789,62.719c0,0,1.297,4.462,3.897,5.789c2.604,1.326,5.68-0.198,5.68-0.198s-1.789-3.706-3.818-4.801
		C32.518,62.41,28.789,62.719,28.789,62.719"/>
	<path fill="#9EB121" d="M18.611,78.675c0,0,7.82,4.661,13.325,3.089c5.507-1.573,7.887-7.866,7.887-7.866s-7.518-2.925-11.896-1.79
		C23.549,73.245,18.611,78.675,18.611,78.675"/>
	<path fill="#C6CC38" d="M26.338,77.365c0,0,4.348,2.595,7.408,1.721c3.063-0.876,4.383-4.376,4.383-4.376s-4.18-1.628-6.61-0.994
		C29.083,74.348,26.338,77.365,26.338,77.365"/>
	<path fill="#9EB121" d="M95.735,13.202c0,0-9.232-1.483-13.888,2.106c-4.656,3.588-4.541,10.496-4.541,10.496
		S85.592,25.743,89.339,23C93.082,20.252,95.735,13.202,95.735,13.202"/>
	<path fill="#C6CC38" d="M88.861,17.379c0,0-5.135-0.825-7.724,1.171c-2.59,1.997-2.525,5.835-2.525,5.835s4.607-0.031,6.689-1.556
		C87.384,21.299,88.861,17.379,88.861,17.379"/>
	<path fill="#9EB121" d="M71.609,0c0,0-5.587,7.497-4.562,13.286c1.027,5.788,7.203,8.885,7.203,8.885s3.78-7.373,3.082-11.963
		C76.636,5.616,71.609,0,71.609,0"/>
	<path fill="#C6CC38" d="M72.131,8.028c0,0-3.107,4.168-2.536,7.387c0.571,3.219,4.005,4.941,4.005,4.941s2.104-4.1,1.715-6.651
		C74.927,11.153,72.131,8.028,72.131,8.028"/>
	<path fill="#9EB121" d="M117.271,64.613c0,0-6.517-1.892-10.189,0.277c-3.674,2.168-4.21,7.154-4.21,7.154s5.972,0.696,8.916-0.946
		C114.729,69.456,117.271,64.613,117.271,64.613"/>
	<path fill="#C6CC38" d="M111.945,67.01c0,0-3.622-1.054-5.666,0.152c-2.042,1.207-2.338,3.976-2.338,3.976s3.32,0.39,4.955-0.524
		C110.532,69.701,111.945,67.01,111.945,67.01"/>
	<path fill="#9EB121" d="M121.12,81.771c0,0-3.355-5.896-7.503-6.9c-4.146-1.004-8.003,2.2-8.003,2.2s3.799,4.659,7.055,5.533
		C115.923,83.475,121.12,81.771,121.12,81.771"/>
	<path fill="#C6CC38" d="M115.631,79.781c0,0-1.863-3.28-4.17-3.837c-2.308-0.559-4.448,1.223-4.448,1.223s2.11,2.592,3.921,3.075
		C112.742,80.728,115.631,79.781,115.631,79.781"/>
	<path fill="#9EB121" d="M129.559,47.732c0,0-9.588-3.354-15.252-0.409c-5.668,2.946-6.867,10.355-6.867,10.355
		s8.87,1.523,13.402-0.694C125.37,54.77,129.559,47.732,129.559,47.732"/>
	<path fill="#C6CC38" d="M121.406,50.886c0,0-5.329-1.868-8.481-0.229c-3.151,1.638-3.816,5.756-3.816,5.756
		s4.932,0.849,7.449-0.384C119.078,54.794,121.406,50.886,121.406,50.886"/>
	<path fill="#9EB121" d="M109.895,31.517c0,0-8.164,1.772-10.869,6.273c-2.707,4.503-0.362,10.214-0.362,10.214
		s6.874-2.746,9.098-6.251C109.984,38.251,109.895,31.517,109.895,31.517"/>
	<path fill="#C6CC38" d="M105.535,37.234c0,0-4.541,0.983-6.046,3.487c-1.505,2.503-0.199,5.678-0.199,5.678
		s3.822-1.528,5.057-3.474C105.583,40.976,105.535,37.234,105.535,37.234"/>
	<path fill="#9EB121" d="M90.326,25.972c0,0-5.195,7.476-4.009,13.078c1.187,5.603,7.298,8.415,7.298,8.415
		s3.439-7.296,2.612-11.743C95.398,31.276,90.326,25.972,90.326,25.972"/>
	<path fill="#C6CC38" d="M91.096,33.77c0,0-2.892,4.155-2.233,7.271c0.661,3.115,4.061,4.677,4.061,4.677s1.915-4.057,1.452-6.528
		C93.913,36.719,91.096,33.77,91.096,33.77"/>
	<path fill="#432416" d="M124.56,109.751c-0.494-0.814-0.773-1.76-0.833-2.724l-17.725,5.167l6.309-16.465h-1.705l-7.181,16.496
		l-24.818,8.41l-1.078-36.582l7.462-6.9l17.955-0.247l0.834-1.667H87.06l16.934-15.659l-0.568-2.562L91.963,67.082l4.593-17.682
		l-1.391,0.556l-6.059,19.633l-11.293,9.913l-2.562-54.923h-2.561l-0.284,28.173L58.746,40.229l-2.56,0.284L71.837,55.88
		l-1.078,36.052L55.333,79.216l-1.424-12.239l-1.139-1.99v12.521l-10.528-6.83l-2.846-0.285L70.759,95.65l-0.206,16.934
		L39.396,97.998l-4.27-10.244l-2.275-0.569l3.984,9.959l-16.505-5.121l0.283,1.138l29.31,13.943l-16.219,1.139l1.991,1.707
		l17.642-0.853l16.949,9.343l-0.475,75.737l10.651-0.023l-1.137-68.9L124.56,109.751z"/>
	<path fill="#9EB121" d="M12.258,103.53c0,0,4.95,6.73,10.164,7.365c5.214,0.634,9.473-3.837,9.473-3.837s-5.311-5.155-9.419-5.756
		C18.371,100.7,12.258,103.53,12.258,103.53"/>
	<path fill="#C6CC38" d="M19.256,105.179c0,0,2.752,3.744,5.651,4.096c2.9,0.354,5.266-2.134,5.266-2.134s-2.954-2.867-5.234-3.199
		C22.653,103.607,19.256,105.179,19.256,105.179"/>
	<path fill="#9EB121" d="M15.18,123.659c0,0,8.946,1.693,13.576-1.674c4.63-3.369,4.705-10.097,4.705-10.097
		s-8.065-0.165-11.787,2.405C17.952,116.863,15.18,123.659,15.18,123.659"/>
	<path fill="#C6CC38" d="M21.984,119.775c0,0,4.976,0.944,7.55-0.929c2.575-1.873,2.613-5.614,2.613-5.614s-4.482-0.094-6.55,1.336
		C23.529,116,21.984,119.775,21.984,119.775"/>
	<path fill="#9EB121" d="M0,80.903c0,0,2.335,8.8,7.372,11.522c5.037,2.724,11.139-0.114,11.139-0.114s-3.334-7.347-7.259-9.594
		C7.325,80.471,0,80.903,0,80.903"/>
	<path fill="#C6CC38" d="M6.44,85.366c0,0,1.298,4.894,4.098,6.408c2.801,1.514,6.191-0.067,6.191-0.067s-1.852-4.085-4.032-5.332
		C10.514,85.127,6.44,85.366,6.44,85.366"/>
	<path fill="#9EB121" d="M100.791,81.257c0,0-1.81,6.539,0.404,10.184c2.213,3.648,7.203,4.122,7.203,4.122s0.625-5.981-1.054-8.904
		C105.666,83.737,100.791,81.257,100.791,81.257"/>
	<path fill="#C6CC38" d="M103.255,86.552c0,0-1.009,3.635,0.222,5.663c1.23,2.028,4.005,2.29,4.005,2.29s0.348-3.325-0.585-4.95
		C105.964,87.933,103.255,86.552,103.255,86.552"/>
	<path fill="#9EB121" d="M156.591,105.648c0,0-7.901-7.788-14.871-7.525c-6.97,0.262-11.616,7.018-11.616,7.018
		s8.05,5.647,13.559,5.574C149.168,110.643,156.591,105.648,156.591,105.648"/>
	<path fill="#C6CC38" d="M147.067,104.955c0,0-4.39-4.333-8.267-4.185c-3.88,0.145-6.457,3.903-6.457,3.903s4.474,3.139,7.533,3.099
		C142.944,107.728,147.067,104.955,147.067,104.955"/>
	<path fill="#9EB121" d="M133.735,86.7c0,0-8.178,3.362-10.161,8.554c-1.985,5.193,1.515,10.707,1.515,10.707
		s6.655-4.135,8.321-8.199C135.077,93.699,133.735,86.7,133.735,86.7"/>
	<path fill="#C6CC38" d="M130.252,93.465c0,0-4.548,1.867-5.65,4.754c-1.103,2.89,0.842,5.954,0.842,5.954s3.704-2.301,4.628-4.56
		C130.998,97.358,130.252,93.465,130.252,93.465"/>
	<path fill="#9EB121" d="M85.578,102.074c0,0,7.227,4.292,12.305,2.832c5.08-1.461,7.269-7.275,7.269-7.275S98.205,94.943,94.166,96
		C90.127,97.054,85.578,102.074,85.578,102.074"/>
	<path fill="#C6CC38" d="M92.706,100.853c0,0,4.02,2.389,6.843,1.576c2.825-0.812,4.038-4.045,4.038-4.045s-3.859-1.496-6.104-0.907
		C95.237,98.064,92.706,100.853,92.706,100.853"/>
	<path fill="#9EB121" d="M43.97,78.597c0,0-5.052,6.716-4.154,11.923c0.9,5.209,6.441,8.017,6.441,8.017s3.427-6.612,2.816-10.743
		C48.464,83.665,43.97,78.597,43.97,78.597"/>
	<path fill="#C6CC38" d="M44.408,85.815c0,0-2.813,3.735-2.312,6.631c0.5,2.895,3.582,4.454,3.582,4.454s1.907-3.675,1.566-5.969
		C46.904,88.635,44.408,85.815,44.408,85.815"/>
	<path fill="#9EB121" d="M53.076,125.967c0,0-1.522-8.266-5.963-11.13c-4.443-2.865-10.261-0.689-10.261-0.689
		s2.546,6.999,5.998,9.347C46.302,125.842,53.076,125.967,53.076,125.967"/>
	<path fill="#C6CC38" d="M47.467,121.402c0,0-0.844-4.597-3.315-6.19c-2.469-1.593-5.702-0.38-5.702-0.38s1.412,3.891,3.331,5.195
		C43.701,121.331,47.467,121.402,47.467,121.402"/>
	<path fill="#9EB121" d="M143.527,123.162c0,0-1.52-8.266-5.962-11.131c-4.443-2.865-10.261-0.688-10.261-0.688
		s2.546,6.999,5.998,9.347C136.755,123.037,143.527,123.162,143.527,123.162"/>
	<path fill="#C6CC38" d="M137.918,118.596c0,0-0.844-4.597-3.314-6.189c-2.47-1.593-5.704-0.38-5.704-0.38s1.414,3.891,3.332,5.194
		C134.154,118.525,137.918,118.596,137.918,118.596"/>
</g>
</svg>
