<?xml version="1.0" encoding="utf-8"?>
<!-- Generator: Adobe Illustrator 17.0.0, SVG Export Plug-In . SVG Version: 6.00 Build 0)  -->
<!DOCTYPE svg PUBLIC "-//W3C//DTD SVG 1.1//EN" "http://www.w3.org/Graphics/SVG/1.1/DTD/svg11.dtd">
<svg version="1.1" id="图层_1" xmlns="http://www.w3.org/2000/svg" xmlns:xlink="http://www.w3.org/1999/xlink" x="0px" y="0px"
	 width="64px" height="64px" viewBox="0 0 64 64" enable-background="new 0 0 64 64" xml:space="preserve">
<path fill="#77B3D4" d="M32,0c17.673,0,32,14.327,32,32S49.673,64,32,64S0,49.673,0,32S14.327,0,32,0z"/>
<path opacity="0.2" fill="#231F20" d="M32,41.5c3.315,0,6-2.685,6-6v-18c0-3.315-2.685-6-6-6s-6,2.685-6,6v18
	C26,38.815,28.685,41.5,32,41.5z M32,48.25c-7.168,0-13-5.832-13-13V31.5c0-0.828,0.672-1.5,1.5-1.5s1.5,0.672,1.5,1.5v3.75
	c0,5.514,4.486,10,10,10s10-4.486,10-10V31.5c0-0.828,0.672-1.5,1.5-1.5s1.5,0.672,1.5,1.5v3.75C45,42.418,39.168,48.25,32,48.25z
	 M37,56H27c-0.828,0-1.5-0.672-1.5-1.5S26.172,53,27,53h10c0.828,0,1.5,0.672,1.5,1.5S37.828,56,37,56z"/>
<path fill="#4F5D73" d="M32,39.5c3.315,0,6-2.685,6-6v-18c0-3.315-2.685-6-6-6s-6,2.685-6,6v18C26,36.815,28.685,39.5,32,39.5z"/>
<path fill="#FFFFFF" d="M32,46.25c-7.168,0-13-5.832-13-13V29.5c0-0.828,0.672-1.5,1.5-1.5s1.5,0.672,1.5,1.5v3.75
	c0,5.514,4.486,10,10,10s10-4.486,10-10V29.5c0-0.828,0.672-1.5,1.5-1.5s1.5,0.672,1.5,1.5v3.75C45,40.418,39.168,46.25,32,46.25z
	 M32,53c-0.828,0-1.5-0.672-1.5-1.5v-6c0-0.828,0.672-1.5,1.5-1.5s1.5,0.672,1.5,1.5v6C33.5,52.328,32.828,53,32,53z M37,54H27
	c-0.828,0-1.5-0.672-1.5-1.5S26.172,51,27,51h10c0.828,0,1.5,0.672,1.5,1.5S37.828,54,37,54z"/>
</svg>
