<?xml version="1.0" encoding="iso-8859-1"?>
<!-- Generator: Adobe Illustrator 17.0.0, SVG Export Plug-In . SVG Version: 6.00 Build 0)  -->
<!DOCTYPE svg PUBLIC "-//W3C//DTD SVG 1.1//EN" "http://www.w3.org/Graphics/SVG/1.1/DTD/svg11.dtd">
<svg version="1.1" xmlns="http://www.w3.org/2000/svg" xmlns:xlink="http://www.w3.org/1999/xlink" x="0px" y="0px" width="64px"
	 height="64px" viewBox="0 0 64 64" style="enable-background:new 0 0 64 64;" xml:space="preserve">
<g id="Layer_1">
	<g>
		<circle style="fill:#E0E0D1;" cx="31.833" cy="32" r="32"/>
	</g>
	<g style="opacity:0.2;">
		<g>
			<g>
				<path style="fill:#231F20;" d="M38.609,22v-3.656c-0.018,0.894-3.903,3.276-5.174,4.107C33.892,22.17,34.424,22,35,22H38.609z"
					/>
			</g>
		</g>
		<g>
			<path style="fill:#231F20;" d="M38.609,18.344C38.614,18.129,38.394,18,37.858,18H24h-1h-3v3v14v3h3h1h8V25
				c0-0.237,0.029-0.466,0.081-0.688c0.15-0.638,0.501-1.198,0.985-1.606C33.498,22.342,38.589,19.367,38.609,18.344z"/>
		</g>
	</g>
	<g>
		<g>
			<g>
				<path style="fill:#76C2AF;" d="M38.609,20v-3.656c-0.018,0.894-3.903,3.276-5.174,4.107C33.892,20.17,34.424,20,35,20H38.609z"
					/>
			</g>
		</g>
		<g>
			<path style="fill:#C75C5C;" d="M38.609,16.344C38.614,16.129,38.394,16,37.858,16H24h-1h-3v3v14v3h3h1h8V23
				c0-0.237,0.029-0.466,0.081-0.688c0.15-0.638,0.501-1.198,0.985-1.606C33.498,20.342,38.589,17.367,38.609,16.344z"/>
		</g>
	</g>
	<g style="opacity:0.2;">
		<path style="fill:#231F20;" d="M49,20H38.609v-1H34c-1.657,0-3,1.343-3,3v16v1c0,1.657,1.343,3,3,3h15c1.657,0,3-1.343,3-3V23
			C52,21.343,50.657,20,49,20z"/>
	</g>
	<g>
		<path style="fill:#C75C5C;" d="M49,20h-9h-5c-1.657,0-3,1.343-3,3v13v1c0,1.657,1.343,3,3,3h14c1.657,0,3-1.343,3-3V23
			C52,21.343,50.657,20,49,20z"/>
	</g>
	<g style="opacity:0.2;">
		<path style="fill:#231F20;" d="M20,52c0,1.105-0.895,2-2,2l0,0c-1.105,0-2-0.895-2-2V18c0-1.105,0.895-2,2-2l0,0
			c1.105,0,2,0.895,2,2V52z"/>
	</g>
	<g>
		<path style="fill:#E0995E;" d="M20,50c0,1.105-0.895,2-2,2l0,0c-1.105,0-2-0.895-2-2V16c0-1.105,0.895-2,2-2l0,0
			c1.105,0,2,0.895,2,2V50z"/>
	</g>
	<g style="opacity:0.2;">
		<circle style="fill:#231F20;" cx="18" cy="17" r="3"/>
	</g>
	<g>
		<circle style="fill:#E0995E;" cx="18" cy="15" r="3"/>
	</g>
</g>
<g id="Layer_2">
</g>
</svg>
