<?xml version="1.0" encoding="utf-8"?>
<!-- Generator: Adobe Illustrator 17.0.0, SVG Export Plug-In . SVG Version: 6.00 Build 0)  -->
<!DOCTYPE svg PUBLIC "-//W3C//DTD SVG 1.1//EN" "http://www.w3.org/Graphics/SVG/1.1/DTD/svg11.dtd">
<svg version="1.1" id="OBJECTS" xmlns="http://www.w3.org/2000/svg" xmlns:xlink="http://www.w3.org/1999/xlink" x="0px" y="0px"
	 width="223.299px" height="165.48px" viewBox="0 0 223.299 165.48" enable-background="new 0 0 223.299 165.48"
	 xml:space="preserve">
<g>
	<g>
		<path fill="#DDC4AF" d="M78.445,112.704c3.244,11.202,4.961,22.845,5.089,34.507c0.021,1.939-0.024,3.972-0.964,5.668
			c-1.398,2.524-4.64,4.078-4.913,6.951c-0.171,1.794,1.002,3.521,2.55,4.444c1.548,0.923,3.406,1.17,5.208,1.202
			c3.427,0.062,6.866-0.586,10.035-1.892c1.841-0.759,2.135-3.217,2.23-5.206c0.394-8.232-2.515-16.21-4.145-24.288
			c-1.478-7.329-1.908-14.869-1.274-22.32"/>
		<path fill="#CCCCCC" d="M96.876,148.92c2.101-0.431,4.077-1.658,4.852-3.623c0.924-2.345-0.714-5.554-3.234-5.536
			c1.582-1.056,0.999-3.569-0.182-5.059c-1.144-1.444-2.773-2.606-4.608-2.767s-3.828,0.896-4.358,2.66
			c-0.676-1.218-1.658-2.318-2.942-2.858c-1.284-0.541-2.893-0.427-3.925,0.509c-1.032,0.936-1.244,2.734-0.275,3.735
			c-1.78-0.55-3.628-1.107-5.492-0.601c-1.001,0.272-1.908,0.888-2.387,1.808c-1.235,2.369,0.94,4.835,3.224,5.862
			c-2.077,1.061-3.831,3.181-3.625,5.504c0.206,2.324,3.119,4.199,5.029,2.86c-1.02,2.414,1.19,5.202,3.743,5.795
			c3.219,0.748,5.253-1.518,5.522-5.418C91.888,153.523,95.948,157.09,96.876,148.92z"/>
	</g>
	<g>
		<path fill="#DDC4AF" d="M132.548,104.389c-0.531,3.481,0.559,7.061,2.386,10.07c2.454,4.042,6.185,7.197,10.292,9.539
			s8.602,3.921,13.117,5.326c-0.44,6.097-1.664,12.374-3.005,18.337c-2.111,0.508-4.09,1.558-5.695,3.021
			c-0.5,0.456-0.983,0.983-1.147,1.641c-0.516,2.068,2.18,3.384,4.3,3.603c1.996,0.207,4.014,0.205,6.009-0.006
			c0.718-0.076,1.472-0.194,2.037-0.644c0.562-0.447,0.847-1.148,1.108-1.816c3.213-8.213,6.427-16.425,9.64-24.638
			c0.335-0.855,0.675-1.74,0.649-2.658c-0.027-0.98-0.466-1.893-0.837-2.801c-2.744-6.716-1.969-14.427,0.365-21.297
			c0.457-1.345,0.978-2.712,0.938-4.131c-0.113-4.039-4.46-6.501-8.336-7.646c-6.271-1.852-13.144-2.406-19.28-0.145
			C138.955,92.404,133.535,97.925,132.548,104.389z"/>
		<path fill="#CCCCCC" d="M163.914,151.541c1.74-0.374,2.77-2.831,1.533-4.109c1.186,0.025,2.423,0.04,3.494-0.471
			c1.071-0.511,1.91-1.719,1.592-2.862c-0.434-1.56-2.456-1.903-4.074-1.95c1.02-1.621,1.276-3.891,0.075-5.384
			c-1.201-1.493-4.032-1.441-4.754,0.334c-0.634-1.857-2.112-3.619-4.066-3.799c-1.954-0.18-3.942,2.006-3.034,3.746
			c-1.212-0.478-2.656-0.316-3.731,0.42c-0.966,0.662-1.631,1.898-1.29,3.018c0.341,1.121,1.936,1.747,2.781,0.935
			c-1.132,0.134-2.05,1.043-2.527,2.078c-0.651,1.416-0.507,3.323,0.74,4.258c1.247,0.935,3.506,0.107,3.462-1.451
			c0.558,1.076-0.572,2.355-0.329,3.542c0.22,1.075,1.535,1.621,2.612,1.401c1.809-0.37,2.187-1.488,3.895-1.298
			C161.598,150.099,162.047,151.943,163.914,151.541z"/>
	</g>
	<g>
		<path fill="#EDDFD2" d="M194.413,46.831c-4.117,10.992-11.046,20.917-19.944,28.572c-0.47,0.404-1.17,0.796-1.888,1.207
			c-0.648-0.737-1.322-1.444-2.053-2.071c-2.656-2.28-5.975-3.624-9.273-4.798c-13.38-4.764-55.648-11.004-63.068-13.467
			c-6.474-2.149-13.432-3.086-20.243-2.732c-6.34,0.33-12.734,24.271-13.613,29.303c-1.811,10.364-1.923,23.685,4.872,32.418
			c4.027,5.174,10.14,6.848,16.58,6.88c1.726,8.241,2.659,16.649,2.752,25.068c0.021,1.939-0.024,3.972-0.964,5.668
			c-1.398,2.524-4.64,4.078-4.913,6.951c-0.171,1.794,1.002,3.521,2.55,4.444c1.548,0.923,3.406,1.17,5.208,1.202
			c3.427,0.062,6.866-0.586,10.035-1.892c1.841-0.759,2.135-3.218,2.23-5.206c0.394-8.232-2.515-16.21-4.145-24.288
			c-0.876-4.346-1.375-8.766-1.511-13.197c2.476-0.498,4.843-1.084,6.988-1.643c12.633-3.293,23.942-6.042,36.623-7.348
			c0.369,0.885,0.803,1.743,1.297,2.558c2.454,4.042,6.185,7.197,10.292,9.539s8.602,3.921,13.117,5.326
			c-0.44,6.097-1.664,12.374-3.005,18.337c-2.111,0.508-4.09,1.558-5.695,3.021c-0.5,0.456-0.983,0.983-1.147,1.641
			c-0.516,2.068,2.18,3.384,4.3,3.603c1.996,0.207,4.014,0.205,6.009-0.006c0.718-0.076,1.472-0.194,2.037-0.644
			c0.562-0.447,0.847-1.148,1.108-1.816c3.213-8.213,6.427-16.425,9.64-24.638c0.335-0.855,0.675-1.74,0.649-2.658
			c-0.027-0.98-0.466-1.893-0.837-2.801c-2.598-6.36-2.039-13.61,0.009-20.194c1.802-3.624,2.014-7.9,0.769-13.17
			c-0.493-2.088-1.202-4.221-2.117-6.273c1.443-0.618,2.695-1.875,3.7-3.143c1.388-1.752,2.622-3.619,3.826-5.501
			C190.059,66.534,195.115,56.956,194.413,46.831z"/>
		<path fill="#FFFFFF" d="M187.137,52.672c2.038,2.126,5.48,2.471,8.205,1.356c2.726-1.115,4.797-3.447,6.255-6.006
			c2.165,1.782,4.662,3.159,7.324,4.039c1.373,0.454,2.875,0.774,4.252,0.334c1.985-0.634,3.206-2.736,3.435-4.807
			s-0.34-4.138-0.904-6.144c3.594,0.484,7.28-2.482,7.575-6.096s-2.86-7.14-6.484-7.246c3.303-1.703,5.381-5.836,4.14-9.339
			s-6.144-5.322-9.056-3.013c-2.064-4.322-6.584-7.613-11.368-7.387s-9.245,4.58-8.836,9.352
			c-4.973-2.587-11.893-0.168-14.172,4.953c-2.279,5.121,0.555,11.881,5.806,13.844c-1.981,0.888-4.237,2.128-4.499,4.284
			c-0.243,1.995,1.513,3.79,3.453,4.314c1.345,0.364,2.887,0.25,4.239,0.168C185.68,47.743,185.07,50.516,187.137,52.672z"/>
	</g>
	<path fill="#FFFFFF" d="M162.139,134.345c-1.684,0.575-2.421,3.135-1.042,4.26c-1.181,0.114-2.411,0.244-3.415,0.876
		s-1.696,1.93-1.247,3.028c0.613,1.498,2.661,1.603,4.274,1.461c-0.824,1.73-0.813,4.013,0.554,5.356
		c1.367,1.342,4.173,0.96,4.683-0.887c0.846,1.771,2.52,3.348,4.482,3.298c1.962-0.05,3.68-2.453,2.576-4.075
		c1.259,0.334,2.675,0.003,3.656-0.853c0.882-0.77,1.398-2.075,0.929-3.148c-0.469-1.073-2.127-1.509-2.871-0.604
		c1.109-0.265,1.915-1.275,2.267-2.359c0.482-1.482,0.116-3.359-1.232-4.143c-1.347-0.783-3.494,0.303-3.269,1.845
		c-0.68-1.003,0.293-2.406-0.087-3.556c-0.344-1.042-1.714-1.431-2.757-1.087c-1.754,0.579-1.999,1.733-3.717,1.744
		C164.608,135.508,163.947,133.729,162.139,134.345z"/>
	<path fill="#FFFFFF" d="M84.02,139.842c-2.101,0.431-4.077,1.658-4.852,3.623c-0.924,2.345,0.714,5.554,3.234,5.536
		c-1.582,1.056-0.999,3.569,0.182,5.059c1.144,1.444,2.773,2.606,4.608,2.767c1.835,0.161,3.828-0.896,4.358-2.66
		c0.676,1.218,1.658,2.318,2.942,2.858c1.284,0.541,2.893,0.427,3.925-0.509c1.032-0.936,1.244-2.734,0.275-3.735
		c1.78,0.55,3.628,1.107,5.492,0.601c1.001-0.272,1.908-0.888,2.387-1.808c1.235-2.369-0.94-4.835-3.224-5.862
		c2.077-1.061,3.831-3.181,3.625-5.504c-0.206-2.324-3.119-4.199-5.029-2.86c1.02-2.414-1.19-5.202-3.743-5.795
		c-3.219-0.748-5.253,1.518-5.522,5.418C89.008,135.239,84.948,131.672,84.02,139.842z"/>
	<g>
		<path fill="#FFFFFF" d="M125.028,73.232c3.544,2.864,5.106,7.956,3.779,12.315c-1.327,4.359-5.461,7.717-9.999,8.121
			c2.006,1.125,2.688,3.862,1.991,6.054s-2.478,3.88-4.417,5.117c3.225,0.109,5.898,3.2,6,6.425s-2.034,6.276-4.898,7.761
			c-2.865,1.485-6.317,1.551-9.432,0.708c1.126,3.1-1.015,6.793-4.133,7.869c-3.118,1.076-6.735-0.172-9.004-2.566
			c-1.03,4.265-5.634,7.332-9.967,6.638c-4.332-0.694-7.748-5.046-7.394-9.419c-1.981,2.755-4.475,4.686-7.865,4.833
			s-6.849-3.439-5.437-6.524c-3.333,0.899-6.855,1.801-10.188,0.903s-6.252-4.309-5.32-7.632c0.678-2.418,3.025-3.915,5.191-5.186
			c-3.018,1.545-6.949-1.596-6.773-4.982c0.177-3.386,3.481-6.028,6.861-6.301c-3.497-2.616-6.346-6.48-6.589-10.84
			c-0.244-4.36,2.806-9,7.144-9.496c-1.315-2.915-0.956-6.518,0.908-9.116c1.864-2.598,5.162-4.092,8.344-3.78
			c0.256-3.571,1.05-7.951,3.375-10.673s7.155-3.549,9.351-0.722c1.761-3.489,3.842-6.906,6.814-9.443s6.972-4.103,10.818-3.411
			c3.846,0.692,7.287,4.022,7.368,7.929c2.189-0.941,4.485-1.901,6.861-1.731c2.377,0.17,4.828,1.866,4.989,4.243
			c0.117,1.725-0.95,3.318-1.109,5.04c2.957-1.397,6.407,0.781,8.42,3.358C123.715,62.555,125.41,68.38,125.028,73.232z"/>
		<g>
			<defs>
				<path id="SVGID_1_" d="M125.028,73.232c3.544,2.864,5.106,7.956,3.779,12.315c-1.327,4.359-5.461,7.717-9.999,8.121
					c2.006,1.125,2.688,3.862,1.991,6.054s-2.478,3.88-4.417,5.117c3.225,0.109,5.898,3.2,6,6.425s-2.034,6.276-4.898,7.761
					c-2.865,1.485-6.317,1.551-9.432,0.708c1.126,3.1-1.015,6.793-4.133,7.869c-3.118,1.076-6.735-0.172-9.004-2.566
					c-1.03,4.265-5.634,7.332-9.967,6.638c-4.332-0.694-7.748-5.046-7.394-9.419c-1.981,2.755-4.475,4.686-7.865,4.833
					s-6.849-3.439-5.437-6.524c-3.333,0.899-6.855,1.801-10.188,0.903s-6.252-4.309-5.32-7.632c0.678-2.418,3.025-3.915,5.191-5.186
					c-3.018,1.545-6.949-1.596-6.773-4.982c0.177-3.386,3.481-6.028,6.861-6.301c-3.497-2.616-6.346-6.48-6.589-10.84
					c-0.244-4.36,2.806-9,7.144-9.496c-1.315-2.915-0.956-6.518,0.908-9.116c1.864-2.598,5.162-4.092,8.344-3.78
					c0.256-3.571,1.05-7.951,3.375-10.673s7.155-3.549,9.351-0.722c1.761-3.489,3.842-6.906,6.814-9.443s6.972-4.103,10.818-3.411
					c3.846,0.692,7.287,4.022,7.368,7.929c2.189-0.941,4.485-1.901,6.861-1.731c2.377,0.17,4.828,1.866,4.989,4.243
					c0.117,1.725-0.95,3.318-1.109,5.04c2.957-1.397,6.407,0.781,8.42,3.358C123.715,62.555,125.41,68.38,125.028,73.232z"/>
			</defs>
			<clipPath id="SVGID_2_">
				<use xlink:href="#SVGID_1_"  overflow="visible"/>
			</clipPath>
			<path clip-path="url(#SVGID_2_)" fill="#CCCCCC" d="M68.109,9.796c-2.109-0.056-4.098,1.418-4.917,3.362
				c-0.493,1.17-0.654,2.548-1.563,3.435c-0.994,0.97-2.528,1.021-3.882,1.334c-2.406,0.556-4.633,2.268-5.336,4.635
				c-0.704,2.367,0.469,5.277,2.794,6.109c-4.217,1.794-8.309,4.598-10.104,8.814c-1.795,4.216-0.403,9.979,3.817,11.764
				c-4.746,0.274-9.47,3.757-10.02,8.479s4.403,9.549,8.891,7.983c-1.884,2.71-3.863,5.837-3.194,9.069
				c0.669,3.232,5.689,5.146,7.279,2.254c-0.13,3.16-0.249,6.398,0.724,9.407c0.973,3.009,3.28,5.792,6.381,6.411
				c3.101,0.619,6.73-1.69,6.729-4.852c0.756,3.104,2.926,6.118,6.054,6.771c3.128,0.653,6.793-2.121,6.162-5.254
				c3.571,2.332,8.664,2.007,11.908-0.761c3.245-2.768,4.369-7.746,2.629-11.639c6.118-1.501,9.824-9.182,7.192-14.905
				c-0.631-1.373-1.581-2.759-1.335-4.25c0.192-1.163,1.072-2.068,1.717-3.055c3.314-5.073-1.266-13.078-7.319-12.792
				c0.477-3.731,0.573-7.678-1.032-11.079c-1.605-3.401-5.348-6.039-9.031-5.28c1.479-4.061,2.681-8.782,0.527-12.529
				c-1.618-2.813-4.376-2.73-7.139-2.771c-1.284-0.019-2.193,1.628-3.538,1.526C70.859,11.857,70.024,9.847,68.109,9.796z"/>
		</g>
	</g>
	<g>
		<path fill="#EDDFD2" d="M46.161,40.717c-5.178-0.319-10.378-0.64-15.454-1.708c-5.796-1.219-11.343-3.393-16.81-5.673
			c-5.83-2.432-8.378-5.097-8.707-11.568C4.877,15.611,3.979,14.58,6.085,8.655c0.758-2.134,1.867-4.372,3.926-5.314
			c1.175-0.538,2.509-0.576,3.801-0.583c18.612-0.1,36.708,4.386,54.653,8.836c1.203,0.298,2.528,0.683,3.173,1.742
			c0.695,1.142,0.325,2.607-0.064,3.886c-2.553,8.384-5.485,17.331-12.463,22.635C56.162,42.098,47.052,40.772,46.161,40.717z"/>
		<path fill="#FFFFFF" d="M67.109,7.796C65,7.741,63.011,9.215,62.192,11.159c-0.493,1.17-0.654,2.548-1.563,3.435
			c-0.994,0.97-2.528,1.021-3.882,1.334c-2.406,0.556-4.633,2.268-5.336,4.635c-0.704,2.367,0.469,5.277,2.794,6.109
			c-4.217,1.794-8.309,4.598-10.104,8.814c-1.795,4.216-0.403,9.979,3.817,11.764c-4.746,0.274-9.47,3.757-10.02,8.479
			s4.403,9.549,8.891,7.983c-1.884,2.71-3.863,5.837-3.194,9.069c0.669,3.232,5.689,5.146,7.279,2.254
			c-0.13,3.16-0.249,6.398,0.724,9.407c0.973,3.009,3.28,5.792,6.381,6.411c3.101,0.619,6.73-1.69,6.729-4.852
			c0.756,3.104,2.926,6.118,6.054,6.771c3.128,0.653,6.793-2.121,6.162-5.254c3.571,2.332,8.664,2.007,11.908-0.761
			c3.245-2.768,4.369-7.746,2.629-11.639c6.118-1.501,9.824-9.182,7.192-14.905c-0.631-1.373-1.581-2.759-1.335-4.25
			c0.192-1.163,1.072-2.068,1.717-3.055c3.314-5.073-1.266-13.078-7.319-12.792c0.477-3.731,0.573-7.678-1.032-11.079
			c-1.605-3.401-5.348-6.039-9.031-5.28c1.479-4.061,2.681-8.782,0.527-12.529c-1.618-2.813-4.376-2.73-7.139-2.771
			c-1.284-0.019-2.193,1.628-3.538,1.526C69.859,9.857,69.024,7.847,67.109,7.796z"/>
		<path fill="#333333" d="M52.552,11.822c0.105-2.7-4.869,1.989-5.852,2.932c-0.552,0.53-0.152,1.414,0.611,1.34
			c1.377-0.134,4.612-1.73,5.029-3.165C52.474,12.47,52.541,12.105,52.552,11.822z"/>
		<g>
			<defs>
				<path id="SVGID_3_" d="M48.654,46.077c-0.565,0.691-1.601,0.695-2.492,0.641c-5.178-0.319-10.378-0.64-15.454-1.708
					c-5.796-1.219-11.343-3.393-16.81-5.673c-5.83-2.432-8.378-5.097-8.707-11.568C4.877,21.611,3.979,14.58,6.085,8.655
					c0.758-2.134,1.867-4.372,3.926-5.314c1.175-0.538,2.509-0.576,3.801-0.583c18.612-0.1,36.708,4.386,54.653,8.836
					c1.203,0.298,2.528,0.683,3.173,1.742c0.695,1.142,0.325,2.607-0.064,3.886c-2.553,8.384-5.485,17.331-12.463,22.635
					C56.162,42.098,51,43.209,48.654,46.077z"/>
			</defs>
			<clipPath id="SVGID_4_">
				<use xlink:href="#SVGID_3_"  overflow="visible"/>
			</clipPath>
			<path clip-path="url(#SVGID_4_)" fill="#333333" d="M0,5.908c0.046,1.323,0.092,2.646,0.138,3.969
				c0.026,0.759,0.248,1.742,1.004,1.818c0.329,0.033,0.641-0.139,0.927-0.305c2.264-1.313,4.529-2.626,6.793-3.939
				c1.393-0.808,2.825-1.649,3.79-2.938S14.002,1.36,13.14,0C8.451,0.512,3.927,2.444,0.315,5.477"/>
		</g>
	</g>
</g>
</svg>
