<?xml version="1.0" encoding="utf-8"?>
<!-- Generator: Adobe Illustrator 17.0.0, SVG Export Plug-In . SVG Version: 6.00 Build 0)  -->
<!DOCTYPE svg PUBLIC "-//W3C//DTD SVG 1.1//EN" "http://www.w3.org/Graphics/SVG/1.1/DTD/svg11.dtd">
<svg version="1.1" id="图层_1" xmlns:ev="http://www.w3.org/2001/xml-events"
	 xmlns="http://www.w3.org/2000/svg" xmlns:xlink="http://www.w3.org/1999/xlink" x="0px" y="0px" width="160px" height="160px"
	 viewBox="0 0 160 160" enable-background="new 0 0 160 160" xml:space="preserve">
<path fill="#B492EE" d="M80,0c44.183,0,80,35.817,80,80s-35.817,80-80,80S0,124.183,0,80S35.817,0,80,0z"/>
<path fill="#FEC24F" d="M71.025,116.354L42.878,88.125l44.579-44.71l28.147,28.229L71.025,116.354z"/>
<path fill="#EEEEEE" d="M115.745,71.502L87.598,43.273L93.853,37L122,65.229L115.745,71.502z M42.878,88.125l6.255-1.255l2.23,9.765
	l10.905,2.154l0.781,9.566l7.976,0.471v7.528L39.125,122L42.878,88.125z"/>
<path opacity="0.051" enable-background="new    " d="M62.894,108.199l-23.143,13.174L51.009,96.28l43.695-45.597l11.884,11.919
	L62.894,108.199z"/>
<path fill="#4E4545" d="M56.013,118.863L39,121.875l2.002-18.067L56.013,118.863z"/>
</svg>
