<?xml version="1.0" encoding="utf-8"?>
<!-- Generator: Adobe Illustrator 17.0.0, SVG Export Plug-In . SVG Version: 6.00 Build 0)  -->
<!DOCTYPE svg PUBLIC "-//W3C//DTD SVG 1.1//EN" "http://www.w3.org/Graphics/SVG/1.1/DTD/svg11.dtd">
<svg version="1.1" id="图层_1" xmlns="http://www.w3.org/2000/svg" xmlns:xlink="http://www.w3.org/1999/xlink" x="0px" y="0px"
	 width="293.529px" height="334.266px" viewBox="0 0 293.529 334.266" enable-background="new 0 0 293.529 334.266"
	 xml:space="preserve">
<path fill="#F7D0B3" d="M280.877,280.627c0,0-26.159-25.895-22.195,22.195c-0.528,1.057,0,51.525,33.293,17.703
	C292.239,320.262,298.052,306.522,280.877,280.627z"/>
<path fill="#BA0001" d="M292.504,315.241c-34.086,31.443-34.614-15.59-34.086-16.382c-3.963-44.919,22.724-20.61,22.724-20.61
	C298.581,302.558,292.504,315.241,292.504,315.241z M141.364,243.106c0,0-15.061-18.232-30.915,8.72
	c0,1.057-2.378,24.309,30.915,33.029c-0.528,1.057,22.724,9.512,19.817-8.72C161.181,276.135,149.026,249.712,141.364,243.106z"/>
<path fill="#0B6EA9" d="M260.267,302.823c-0.793,0-53.375-36.728-100.144-34.35l1.321,7.927c0,0-22.988-51.789-40.163-36.2
	c-0.793,0,12.155-31.972,20.874-22.724c-1.85-8.455-0.793-23.517,0.528-29.594c-2.378-30.915,57.074-22.988,57.074-22.988
	l10.569,3.699c0,0,17.175,57.074,23.252,56.81c-1.321,0,1.321,39.106,37.785,47.826C270.308,273.757,276.65,305.729,260.267,302.823
	z"/>
<path fill="#D00001" d="M57.602,328.189c-1.321,3.435-13.74,6.077-28.537,6.077c-15.061,0-27.216-2.642-28.537-6.077l0,0v-86.403
	h57.602L57.602,328.189L57.602,328.189z"/>
<path fill="#BA0001" d="M28.801,234.651c15.854,0,28.801,2.907,28.801,6.606s-12.947,6.606-28.801,6.606S0,244.956,0,241.257
	S12.947,234.651,28.801,234.651z"/>
<path fill="#FFEA00" d="M57.602,258.696c0,1.321,0,2.642,0,4.228c-19.289,6.077-39.106,6.606-57.602,0c0-1.321,0-2.642,0-4.228
	C19.817,264.509,39.106,265.566,57.602,258.696z M0,310.221c0,1.321,0,2.642,0,4.228c18.496,6.606,38.049,6.077,57.602,0
	c0-1.321,0-2.642,0-4.228C39.106,317.091,19.817,316.298,0,310.221z M38.313,230.952c6.87,0,12.419-5.549,12.419-12.683
	c0-6.87-5.549-12.683-12.419-12.683s-12.419,5.549-12.419,12.683S31.443,230.952,38.313,230.952z"/>
<path fill="#F8F4B5" d="M39.106,216.419c-10.041-2.114-9.248-2.114,3.171,0.793c-11.89,6.606-11.89,16.118-11.89,25.895
	c-0.793,0-1.585,0-2.378,0C28.273,233.33,28.273,223.818,39.106,216.419z"/>
<path fill="#FFEA00" d="M270.837,306.786c-0.528,0.264-6.87,2.907-7.398,3.171c-0.528,0.264-1.057,0.793-1.057,1.585
	c0,0.264,0.264,1.057,1.321,1.057c0.528,0,1.057-0.264,1.321-0.264c0.264-0.264,6.342-3.963,6.342-3.963l0,0
	c-0.264,0.264-4.228,5.02-4.756,5.285c-0.264,0.528-0.528,1.057-0.528,1.585c0,1.057,1.057,1.321,1.585,1.321
	c0.793,0,1.321-0.528,1.585-1.321c0.264-0.528,2.907-5.813,3.171-6.342h0.264c0,0.528-1.057,6.342-1.057,7.134
	c0,0.793,0.264,2.114,1.585,2.114s1.585-1.321,1.585-2.114c0-0.528-1.057-6.077-1.057-7.134h0.264
	c0.264,0.793,2.642,5.285,3.171,6.342c0.528,1.057,1.057,1.321,1.585,1.321c0.528,0,1.585-0.264,1.585-1.321
	c0-0.528-0.264-1.321-0.528-1.585c-0.528-0.793-4.228-4.492-4.756-5.285h0.264c0,0,6.077,3.963,6.342,3.963
	c0.264,0.264,0.793,0.264,1.057,0.264c1.057,0,1.585-0.793,1.585-1.057c0-0.793-0.528-1.321-1.057-1.585
	c-0.264-0.264-6.87-2.907-7.398-2.907v-0.264c0.264,0,6.606,0.793,7.398,0.793s2.378-0.264,2.378-1.585
	c0-1.585-1.585-1.585-2.378-1.585s-6.606,0.793-7.398,0.793l0,0c0.528-0.264,6.606-2.642,7.398-3.171
	c0.528-0.264,1.057-0.793,1.057-1.585c0-1.057-0.528-1.585-1.321-1.585c-0.264,0-0.528,0-0.793,0
	c-1.321,0.793-6.606,4.492-6.87,4.756h-0.264c0.264-0.264,4.228-4.756,4.756-5.285c0.264-0.264,0.793-1.057,0.793-1.585
	c0-1.057-0.793-1.321-1.585-1.321c-0.528,0-1.057,0.528-1.585,1.321c-0.528,0.793-2.907,6.077-2.907,6.077h-0.264
	c0,0,1.057-6.342,1.057-7.134c0-0.793-0.264-2.114-1.585-2.114s-1.585,1.321-1.585,2.114c0,0.528,0.793,6.342,1.057,7.134h-0.264
	c-0.528-1.057-2.907-5.813-3.171-6.077c-0.528-0.793-1.057-1.585-1.85-1.585c-0.528,0-1.321,0.528-1.321,1.585
	c0,0.528,0.264,1.057,0.528,1.585c0.264,0.264,4.492,5.02,4.756,5.549h-0.264c-0.264-0.264-5.549-3.963-6.87-4.756
	c-0.264-0.264-0.528-0.264-0.793-0.264c-0.793,0-1.321,0.528-1.321,1.321s0.528,1.321,1.057,1.585s6.87,2.907,7.398,3.171l0,0
	c-0.528,0-6.606-0.793-7.134-0.793c-0.793,0-2.378,0-2.378,1.585c0,1.321,1.585,1.585,2.378,1.585
	C264.231,307.579,269.516,306.786,270.837,306.786L270.837,306.786z M272.422,305.993c0-0.264,0.264-0.793,0.793-0.793
	s0.793,0.528,0.793,0.793c0,0.264-0.264,0.793-0.793,0.793S272.422,306.522,272.422,305.993z"/>
<path fill="#FFFFFF" d="M273.215,302.558c1.85,0,3.435,1.585,3.435,3.435c0,1.85-1.585,3.435-3.435,3.435
	c-1.85,0-3.435-1.585-3.435-3.435C269.78,304.144,271.365,302.558,273.215,302.558z"/>
<path fill="#FFEA00" d="M38.578,84.568l-2.907,3.171l71.342,66.322l2.907-3.171L38.578,84.568z"/>
<path fill="#BA0001" d="M41.748,87.474l-2.907,3.171l67.907,63.415l2.907-3.171L41.748,87.474z"/>
<path fill="#FFEA00" d="M210.856,170.971c0,0,20.61,50.732,21.931,53.375c-1.85-0.793-5.285,34.086-46.505,22.988
	c-1.85-0.793-11.098-17.703-11.098-17.703l-1.585,11.098c0,0-16.382-22.988-35.671-21.138c0.528-15.854,0-31.972,0-31.972
	s-36.728-17.175-45.184-33.822c4.756-6.87,13.212-20.346,23.781-7.927C123.66,148.247,210.856,170.971,210.856,170.971z
	 M255.776,159.081c0.528,0.528-7.134-13.212-17.703,2.114c-7.398,7.663-8.984,8.72-8.984,8.72l19.817,26.423
	C249.17,196.602,275.329,171.236,255.776,159.081z"/>
<path fill="#BA0001" d="M210.856,170.971c0,0,19.025,46.24,20.346,48.618c-1.85-0.793-0.528,32.5-41.748,21.403
	c-1.85-0.793-12.947-20.082-12.947-20.082l-6.342,12.683c0,0-12.947-15.59-32.236-14.004c0.528-15.854,0-31.972,0-31.972
	s-26.687-8.984-35.143-25.63c4.756-6.87,13.476-22.46,24.309-10.305C133.965,154.061,210.856,170.971,210.856,170.971z
	 M255.776,159.081c0.528,0.528-6.606-12.419-16.911,1.057l19.025,25.366C258.154,185.504,275.329,171.236,255.776,159.081z"/>
<path fill="#FFEA00" d="M184.697,238.086c-12.683-14.268-11.098-34.878-8.191-57.867c-2.378,0-5.02,0-7.663-0.528
	c-9.777-1.321-17.175-5.549-16.647-8.984c0.528-3.699,8.72-5.549,18.496-3.963c9.777,1.321,17.175,5.549,16.647,8.984
	c-0.264,2.378-3.699,3.963-8.72,4.228C178.092,187.089,174.128,224.346,184.697,238.086z M187.604,240.728
	c-1.057-0.793-1.85-1.85-2.642-2.642C185.49,239.143,186.547,239.936,187.604,240.728z"/>
<path fill="#F7D0B3" d="M272.951,147.983c-6.342,5.549-13.74,7.663-17.968,5.813c-6.87,6.606-14.797,11.89-24.045,15.59
	c9.248,1.321,16.382,8.984,16.382,18.496c0,10.305-8.455,18.76-18.76,18.76s-18.76-8.455-18.76-18.76
	c0-5.549,2.378-10.569,6.342-14.004c-27.48,5.813-59.98-0.264-87.989-18.76c-4.228-2.642-7.927-5.813-11.626-8.72
	c0.793,4.756-0.528,9.248-3.699,12.419c-6.342,6.077-17.968,3.963-26.159-4.228s-9.512-19.817-3.171-25.895
	c3.435-3.171,8.72-4.228,14.004-2.907C77.948,99.101,72.399,67.393,84.29,41.498c-0.528,0-1.057-0.264-1.585-0.528
	c-3.171-2.114-2.114-8.984,2.378-15.59c4.492-6.606,10.305-10.305,13.476-8.455c0.793,0.528,1.321,1.585,1.585,2.642
	c29.858-27.48,82.704-28.273,125.51,0.264c40.163,26.687,58.659,70.814,47.033,106.485c3.435-0.528,6.342,0,7.927,2.114
	C283.52,132.658,280.349,141.377,272.951,147.983z M140.571,247.863c0,0-14.797-16.647-30.651,8.191
	c0,1.057-2.378,22.46,30.651,30.387c-0.528,1.057,22.46,8.72,19.817-8.191C160.388,278.249,148.234,253.676,140.571,247.863z"/>
<path fill="#DF4539" d="M192.36,53.124c2.378,0,4.492,1.85,4.492,4.492c0,2.378-2.114,4.492-4.492,4.492s-4.492-1.85-4.492-4.492
	C187.868,54.974,189.982,53.124,192.36,53.124z"/>
<path fill="#030200" d="M179.149,6.62c0,4.756-12.947,8.72-28.801,8.72s-28.801-3.963-28.801-8.72s12.947-8.72,28.801-8.72
	S179.149,1.864,179.149,6.62z M267.402,67.657c-4.756-13.74-12.419-23.252-17.175-21.667c-4.756,1.85-4.756,14.268-0.264,28.008
	c4.756,13.74,12.419,23.252,17.175,21.667C271.894,93.816,272.158,81.133,267.402,67.657z M212.177,99.365
	c0,0,14.797,9.512,19.817,19.817C232.259,119.446,238.072,96.458,212.177,99.365z M121.81,44.141c0,0,18.496,7.398,26.423,17.968
	C148.498,62.108,149.29,34.892,121.81,44.141z"/>
<path fill="#E25C5B" d="M196.852,154.589c0,0,35.935-22.195-6.606-35.407c0,0.528-47.033-17.175-55.488-37.521
	c-0.528-0.528-27.744-30.387-33.293,15.59C100.936,96.722,118.111,163.573,196.852,154.589z"/>
<path fill="#E97B7C" d="M150.612,119.446c-14.004-8.72-29.065-11.098-33.557-5.02s3.171,18.232,17.175,26.952
	c14.004,8.72,29.065,11.098,33.557,5.02C172.279,140.321,164.616,128.166,150.612,119.446z"/>
<path fill="#E4AF8F" d="M176.77,90.381c-17.703,11.362-15.59-7.134-14.797-8.72C165.673,88.796,176.77,90.381,176.77,90.381z
	 M221.161,90.645c0.528,0,12.683,3.699,17.703,11.098C238.865,101.743,235.43,89.06,221.161,90.645z M141.364,39.913
	c0,0.528,8.984,0,13.212,11.098C154.575,50.746,156.16,36.478,141.364,39.913z M273.215,136.621c-1.321-1.321-4.492,0-6.87,2.642
	c-2.378,2.642-3.435,5.813-2.114,7.134c1.321,1.321,4.492,0,6.87-2.642C273.743,141.113,274.536,137.678,273.215,136.621z"/>
</svg>
