<?xml version="1.0" encoding="utf-8"?>
<!-- Generator: Adobe Illustrator 17.0.0, SVG Export Plug-In . SVG Version: 6.00 Build 0)  -->
<!DOCTYPE svg PUBLIC "-//W3C//DTD SVG 1.1//EN" "http://www.w3.org/Graphics/SVG/1.1/DTD/svg11.dtd">
<svg version="1.1" id="图层_1" xmlns="http://www.w3.org/2000/svg" xmlns:xlink="http://www.w3.org/1999/xlink" x="0px" y="0px"
	 width="30.906px" height="31.219px" viewBox="0 0 30.906 31.219" enable-background="new 0 0 30.906 31.219" xml:space="preserve">
<path fill="#FF952C" d="M27.86,5.757C19.317,4.599,9.294,9.122,1.947,16.449c-0.229,0.229-0.59,0.27-0.887,0.138
	c-0.587-0.262-1.404-0.792-0.901-1.58c0.674-1.057,3.96-4.434,7.162-7.146c0.572-0.484,0.687-1.305,0.267-1.922l-1.33-1.766
	c-1.53-2.093,2.967-5.527,4.973-3.635l3.137,3.32c0.18,0.19,0.435,0.286,0.697,0.258c1.977-0.209,10.455-1.101,12.033-1.183
	c1.183-0.061,1.457,1.267,1.508,2.174C28.631,5.558,28.316,5.819,27.86,5.757z M28.518,7.37c2.2,3.398,2.652,7.819,2.305,12.707
	c-0.123,1.732-0.648,3.425-1.538,4.925c-1.392,2.344-3.17,4.301-5.399,5.807c-0.136,0.091-0.301,0.144-0.466,0.15
	c-2.311,0.355-4.65,0.367-7.016,0.057c-2.376-0.311-4.578-1.385-6.341-2.984c-2.729-2.473-5.075-5.429-7.031-8.874
	c-0.547-0.964-0.143-1.814,0.533-2.695C7.752,11.008,23.926,4.042,28.518,7.37z"/>
</svg>
