<?xml version="1.0" encoding="iso-8859-1"?>
<!-- Generator: Adobe Illustrator 17.0.0, SVG Export Plug-In . SVG Version: 6.00 Build 0)  -->
<!DOCTYPE svg PUBLIC "-//W3C//DTD SVG 1.1//EN" "http://www.w3.org/Graphics/SVG/1.1/DTD/svg11.dtd">
<svg version="1.1" id="Layer_1" xmlns="http://www.w3.org/2000/svg" xmlns:xlink="http://www.w3.org/1999/xlink" x="0px" y="0px"
	 width="50.079px" height="139.089px" viewBox="0 0 50.079 139.089" style="enable-background:new 0 0 50.079 139.089;"
	 xml:space="preserve">
<g>
	<g>
		<path style="fill:#AB522E;" d="M23.874,138.872c0,0,16.957,2.236,23.479-7.641c0,0,3.27-3.303,2.647-10.432
			c-0.021-0.244-2.088-7.779-5.629-11.743l-3.542-5.59c0,0-2.506-3.895,1.12-9.131c0,0,2.795-6.336,2.795-9.131
			c0,0,0.102-4.01-3.261-3.261c0,0-2.27,0.838-3.635,5.311c0,0-2.439,5.759-8.944-0.746l-8.572-4.565c0,0-4.921,7.627-8.572-0.839
			c0,0-1.061-4.053-1.491-8.013c0,0-2.343-6.053-5.481,2.315c0,0-2.495,3.634,2.312,14.083c0,0,4.101,8.013,0,14.908
			c0,0-5.024,8.572-5.963,12.299c0,0-3.541,9.317,1.864,14.721C3.003,131.418,8.407,138.24,23.874,138.872z"/>
		<g>
			<rect x="18.703" y="112.526" style="fill:#BBB9C1;" width="13.417" height="6.708"/>
			<rect x="20.069" y="113.147" style="fill:#1A1A1D;" width="10.685" height="5.467"/>
			<circle style="fill:#BBB8C8;" cx="21.265" cy="114.389" r="0.373"/>
			<circle style="fill:#BBB8C8;" cx="21.265" cy="117.06" r="0.373"/>
			<circle style="fill:#BBB8C8;" cx="22.798" cy="117.06" r="0.373"/>
			<circle style="fill:#BBB8C8;" cx="24.403" cy="117.06" r="0.373"/>
			<circle style="fill:#BBB8C8;" cx="26.158" cy="117.06" r="0.373"/>
			<circle style="fill:#BBB8C8;" cx="27.798" cy="117.06" r="0.373"/>
			<circle style="fill:#BBB8C8;" cx="29.382" cy="117.06" r="0.373"/>
			<circle style="fill:#BBB8C8;" cx="22.798" cy="114.389" r="0.373"/>
			<circle style="fill:#BBB8C8;" cx="24.403" cy="114.389" r="0.373"/>
			<circle style="fill:#BBB8C8;" cx="26.158" cy="114.389" r="0.373"/>
			<circle style="fill:#BBB8C8;" cx="27.798" cy="114.389" r="0.373"/>
			<circle style="fill:#BBB8C8;" cx="29.382" cy="114.389" r="0.373"/>
		</g>
		<g>
			<circle style="fill:#FFEFE4;" cx="38.112" cy="115.853" r="1.284"/>
			<circle style="fill:#323C3F;" cx="38.112" cy="115.88" r="0.884"/>
			<circle style="fill:#CFD0CE;" cx="38.158" cy="115.834" r="0.838"/>
		</g>
		<g>
			<circle style="fill:#FFEFE4;" cx="40.28" cy="121.045" r="1.284"/>
			<circle style="fill:#323C3F;" cx="40.279" cy="121.072" r="0.884"/>
			<circle style="fill:#CFD0CE;" cx="40.325" cy="121.026" r="0.838"/>
		</g>
		<g>
			<circle style="fill:#FFEFE4;" cx="42.618" cy="125.996" r="1.284"/>
			<circle style="fill:#323C3F;" cx="42.618" cy="126.023" r="0.884"/>
			<circle style="fill:#CFD0CE;" cx="42.664" cy="125.977" r="0.838"/>
		</g>
		<g>
			<circle style="fill:#FFEFE4;" cx="43.305" cy="116.869" r="1.062"/>
			<circle style="fill:#323C3F;" cx="43.305" cy="116.891" r="0.73"/>
			<circle style="fill:#CFD0CE;" cx="43.343" cy="116.853" r="0.692"/>
		</g>
		<g>
			<ellipse style="fill:#968B88;" cx="25.041" cy="123.737" rx="7.703" ry="1.408"/>
			<rect x="29.886" y="122.826" style="fill:#C6C7C9;" width="0.828" height="1.822"/>
			<rect x="28.578" y="122.826" style="fill:#C6C7C9;" width="0.829" height="1.822"/>
			<rect x="27.129" y="122.826" style="fill:#C6C7C9;" width="0.828" height="1.821"/>
			<rect x="25.803" y="122.826" style="fill:#C6C7C9;" width="0.828" height="1.822"/>
			<rect x="24.478" y="122.826" style="fill:#C6C7C9;" width="0.828" height="1.822"/>
			<rect x="23.111" y="122.826" style="fill:#C6C7C9;" width="0.829" height="1.821"/>
			<rect x="21.641" y="122.826" style="fill:#C6C7C9;" width="0.829" height="1.821"/>
			<rect x="20.171" y="122.826" style="fill:#C6C7C9;" width="0.828" height="1.822"/>
			<g>
				<circle style="fill:#AFB7BA;" cx="31.718" cy="123.737" r="0.393"/>
				
					<rect x="31.331" y="123.663" transform="matrix(0.733 -0.6802 0.6802 0.733 -75.6966 54.6072)" style="fill:#86909E;" width="0.774" height="0.147"/>
			</g>
			<g>
				<circle style="fill:#AFB7BA;" cx="19.063" cy="123.737" r="0.393"/>
				
					<rect x="18.676" y="123.663" transform="matrix(0.7337 -0.6794 0.6794 0.7337 -78.9945 45.8976)" style="fill:#86909E;" width="0.773" height="0.146"/>
			</g>
		</g>
		<path style="fill:#191E25;" d="M31.339,13.936c-0.496,0-0.916,0.55-1.068,1.313h-0.853c-0.333-1.18-0.726-2.662-1.097-4.294h0.495
			c0.15,0.769,0.572,1.325,1.071,1.325c0.623,0,1.128-0.867,1.128-1.936c0-1.069-0.505-1.936-1.128-1.936
			c-0.496,0-0.917,0.55-1.067,1.312h-0.768c-0.32-1.521-0.607-3.134-0.805-4.729h0.431c0.149,0.77,0.572,1.325,1.07,1.325
			c0.624,0,1.129-0.867,1.129-1.936c0-1.069-0.505-1.937-1.129-1.937c-0.496,0-0.916,0.55-1.067,1.313h-0.568
			c-0.089-0.954-0.14-1.89-0.14-2.786c0,0,0.403-2.067-3.071-0.167c0,0-4.187-0.803-3.747,0.925c0,0,0.018,0.784-0.001,2.028h-0.71
			c-0.151-0.763-0.571-1.313-1.067-1.313c-0.624,0-1.128,0.867-1.128,1.937c0,1.069,0.505,1.936,1.128,1.936
			c0.499,0,0.921-0.556,1.07-1.325h0.678c-0.043,1.356-0.129,3.013-0.302,4.729H19.02c-0.151-0.763-0.572-1.312-1.068-1.312
			c-0.623,0-1.128,0.867-1.128,1.936c0,1.069,0.505,1.936,1.128,1.936c0.499,0,0.921-0.556,1.071-1.325h0.659
			c-0.188,1.504-0.448,3.008-0.808,4.356h-1.321c-0.151-0.763-0.572-1.313-1.068-1.313c-0.623,0-1.128,0.867-1.128,1.936
			c0,1.069,0.505,1.936,1.128,1.936c0.499,0,0.921-0.556,1.07-1.325h0.943c-0.15,0.435-0.313,0.844-0.492,1.219
			c0,0,3.283,3.283,3.283,5.303h6.313c0,0-0.25-3.23,2.652-5.051c0,0-0.19-0.57-0.478-1.534h0.492
			c0.149,0.769,0.571,1.325,1.07,1.325c0.624,0,1.128-0.867,1.128-1.936C32.468,14.803,31.963,13.936,31.339,13.936z"/>
		<g>
			<circle style="fill:#E8CDBA;" cx="21.387" cy="16.015" r="0.811"/>
			<circle style="fill:#3B464A;" cx="21.387" cy="16.032" r="0.559"/>
			<circle style="fill:#D3E4E6;" cx="21.416" cy="16.003" r="0.53"/>
		</g>
		<polygon style="fill:#383531;" points="28.862,95.819 27.558,23.068 21.222,23.068 20.104,95.819 		"/>
		<rect x="21.144" y="28.161" style="fill:#D3CDC5;" width="6.516" height="0.683"/>
		<polygon style="fill:#D3CDC5;" points="27.768,34.777 21.042,34.777 21.053,34.093 27.756,34.093 		"/>
		<rect x="20.963" y="39.964" style="fill:#D3CDC5;" width="6.898" height="0.683"/>
		<rect x="20.871" y="45.927" style="fill:#D3CDC5;" width="7.092" height="0.684"/>
		<polygon style="fill:#D3CDC5;" points="28.078,52.17 20.775,52.17 20.786,51.477 28.068,51.477 		"/>
		<rect x="20.715" y="56.084" style="fill:#D3CDC5;" width="7.435" height="0.683"/>
		<rect x="20.647" y="60.468" style="fill:#D3CDC5;" width="7.581" height="0.684"/>
		<polygon style="fill:#D3CDC5;" points="28.319,66.219 20.569,66.178 20.569,65.536 28.319,65.536 		"/>
		<polygon style="fill:#D3CDC5;" points="28.405,71.002 20.486,70.981 20.496,70.319 28.405,70.319 		"/>
		<polygon style="fill:#D3CDC5;" points="28.472,74.75 20.439,74.708 20.439,74.047 28.472,74.047 		"/>
		<polygon style="fill:#D3CDC5;" points="28.554,78.623 20.368,78.623 20.379,77.939 28.542,77.939 		"/>
		<rect x="20.318" y="81.915" style="fill:#D3CDC5;" width="8.29" height="0.684"/>
		<polygon style="fill:#D3CDC5;" points="28.662,85.332 20.277,85.29 20.277,84.586 28.662,84.648 		"/>
		<polygon style="fill:#D3CDC5;" points="28.723,88.044 20.235,88.023 20.235,87.34 28.711,87.34 		"/>
		<polygon style="fill:#D3CDC5;" points="28.774,90.839 20.191,90.793 20.191,90.156 28.76,90.156 		"/>
		<polygon style="fill:#D3CDC5;" points="28.819,93.407 20.141,93.443 20.172,92.723 28.819,92.723 		"/>
		<polygon style="fill:#D3CDC5;" points="28.851,95.188 20.104,95.214 20.124,94.505 28.826,94.505 		"/>
		<g>
			<rect x="18.331" y="95.198" style="fill:#BBB9C1;" width="13.417" height="6.709"/>
			<rect x="19.697" y="95.819" style="fill:#1A1A1D;" width="10.685" height="5.466"/>
			<circle style="fill:#BBB8C8;" cx="20.893" cy="97.062" r="0.373"/>
			<circle style="fill:#BBB8C8;" cx="20.893" cy="99.733" r="0.373"/>
			<circle style="fill:#BBB8C8;" cx="22.425" cy="99.733" r="0.373"/>
			<circle style="fill:#BBB8C8;" cx="24.03" cy="99.733" r="0.373"/>
			<circle style="fill:#BBB8C8;" cx="25.785" cy="99.733" r="0.373"/>
			<circle style="fill:#BBB8C8;" cx="27.425" cy="99.733" r="0.373"/>
			<circle style="fill:#BBB8C8;" cx="29.009" cy="99.733" r="0.373"/>
			<circle style="fill:#BBB8C8;" cx="22.425" cy="97.062" r="0.373"/>
			<circle style="fill:#BBB8C8;" cx="24.03" cy="97.062" r="0.373"/>
			<circle style="fill:#BBB8C8;" cx="25.785" cy="97.062" r="0.373"/>
			<circle style="fill:#BBB8C8;" cx="27.425" cy="97.062" r="0.373"/>
			<circle style="fill:#BBB8C8;" cx="29.009" cy="97.062" r="0.373"/>
		</g>
		<g>
			<rect x="21.538" y="23.408" style="fill:#E6E7E8;" width="0.124" height="108.121"/>
		</g>
		<g>
			<rect x="22.868" y="23.409" style="fill:#E6E7E8;" width="0.124" height="107.29"/>
		</g>
		<g>
			
				<rect x="-28.926" y="76.293" transform="matrix(0.0026 1 -1 0.0026 100.3428 52.1017)" style="fill:#E6E7E8;" width="105.955" height="0.124"/>
		</g>
		<g>
			
				<rect x="-28.775" y="77.271" transform="matrix(0.0075 1 -1 0.0075 102.2931 51.6013)" style="fill:#E6E7E8;" width="107.851" height="0.124"/>
		</g>
		<g>
			
				<rect x="-27.027" y="76.992" transform="matrix(0.0171 0.9999 -0.9999 0.0171 103.2129 49.1152)" style="fill:#E6E7E8;" width="107.305" height="0.124"/>
		</g>
		<g>
			
				<rect x="-25.137" y="76.505" transform="matrix(0.0257 0.9997 -0.9997 0.0257 103.8596 46.5686)" style="fill:#E6E7E8;" width="106.351" height="0.124"/>
		</g>
		<circle style="fill:#1A1A1D;" cx="21.144" cy="131.527" r="0.559"/>
		<circle style="fill:#1A1A1D;" cx="22.762" cy="130.408" r="0.559"/>
		<circle style="fill:#1A1A1D;" cx="24.122" cy="129.354" r="0.559"/>
		<circle style="fill:#1A1A1D;" cx="25.556" cy="131.258" r="0.559"/>
		<circle style="fill:#1A1A1D;" cx="27.543" cy="130.698" r="0.559"/>
		<circle style="fill:#1A1A1D;" cx="29.406" cy="129.58" r="0.559"/>
		<g>
			
				<rect x="18.118" y="19.988" transform="matrix(0.061 0.9981 -0.9981 0.061 40.5064 -2.9593)" style="fill:#E6E7E8;" width="7.416" height="0.124"/>
		</g>
		<g>
			
				<rect x="15.927" y="16.99" transform="matrix(0.0831 0.9965 -0.9965 0.0831 37.7598 -6.9359)" style="fill:#E6E7E8;" width="13.444" height="0.124"/>
		</g>
		<g>
			
				<rect x="13.666" y="14.03" transform="matrix(0.0724 0.9974 -0.9974 0.0724 35.7142 -10.2178)" style="fill:#E6E7E8;" width="19.368" height="0.124"/>
		</g>
		<g>
			<rect x="24.965" y="4.835" style="fill:#E6E7E8;" width="0.124" height="18.578"/>
		</g>
		<g>
			<rect x="25.712" y="10.566" style="fill:#E6E7E8;" width="0.124" height="12.844"/>
		</g>
		<g>
			
				<rect x="27.045" y="16.322" transform="matrix(0.992 0.1266 -0.1266 0.992 2.7351 -3.2721)" style="fill:#E6E7E8;" width="0.124" height="7.114"/>
		</g>
		<g>
			<circle style="fill:#E8CDBA;" cx="22.228" cy="10.113" r="0.811"/>
			<circle style="fill:#3B464A;" cx="22.228" cy="10.13" r="0.559"/>
			<circle style="fill:#D3E4E6;" cx="22.257" cy="10.101" r="0.53"/>
		</g>
		<g>
			<circle style="fill:#E8CDBA;" cx="22.649" cy="3.858" r="0.811"/>
			<circle style="fill:#3B464A;" cx="22.649" cy="3.875" r="0.559"/>
			<circle style="fill:#D3E4E6;" cx="22.678" cy="3.845" r="0.53"/>
		</g>
		<g>
			<circle style="fill:#E8CDBA;" cx="25.28" cy="4.322" r="0.812"/>
			<circle style="fill:#3B464A;" cx="25.28" cy="4.339" r="0.559"/>
			<circle style="fill:#D3E4E6;" cx="25.309" cy="4.31" r="0.53"/>
		</g>
		<g>
			<circle style="fill:#E8CDBA;" cx="26.091" cy="10.13" r="0.812"/>
			<circle style="fill:#3B464A;" cx="26.092" cy="10.148" r="0.559"/>
			<circle style="fill:#D3E4E6;" cx="26.121" cy="10.118" r="0.53"/>
		</g>
		<g>
			<circle style="fill:#E8CDBA;" cx="27.543" cy="16.032" r="0.812"/>
			<circle style="fill:#3B464A;" cx="27.543" cy="16.049" r="0.559"/>
			<circle style="fill:#D3E4E6;" cx="27.572" cy="16.02" r="0.53"/>
		</g>
		<rect x="21.222" y="23.068" style="fill:#D3CDC5;" width="6.354" height="0.683"/>
	</g>
</g>
</svg>
