<?xml version="1.0" encoding="utf-8"?>
<!-- Generator: Adobe Illustrator 16.0.0, SVG Export Plug-In . SVG Version: 6.00 Build 0)  -->
<!DOCTYPE svg PUBLIC "-//W3C//DTD SVG 1.1//EN" "http://www.w3.org/Graphics/SVG/1.1/DTD/svg11.dtd">
<svg version="1.1" id="Layer_1" xmlns="http://www.w3.org/2000/svg" xmlns:xlink="http://www.w3.org/1999/xlink" x="0px" y="0px"
	 width="75.936px" height="12.148px" viewBox="0 0 75.936 12.148" enable-background="new 0 0 75.936 12.148" xml:space="preserve">
<path fill="#E6A07E" d="M4.768,3.096v1.118H4.201v5.328c0,0.832-0.199,1.476-0.602,1.929c-0.4,0.45-0.963,0.678-1.688,0.678
	c-0.551,0-1.045-0.14-1.486-0.418l0.578-0.842c0.306,0.176,0.59,0.264,0.855,0.264c0.746,0,1.121-0.449,1.121-1.346V9.145H2.953
	C2.791,9.396,2.635,9.58,2.486,9.691C2.34,9.802,2.156,9.857,1.938,9.857c-1.008,0-1.513-1.146-1.513-3.441
	c0-1.231,0.119-2.104,0.359-2.623C1.025,3.277,1.4,3.018,1.912,3.018c0.363,0,0.721,0.192,1.068,0.58V3.096H4.768z M2.992,7.207V6.5
	c0-0.971-0.041-1.617-0.125-1.94S2.604,4.074,2.33,4.074c-0.266,0-0.438,0.178-0.516,0.533c-0.076,0.354-0.115,0.944-0.115,1.77
	c0,0.914,0.047,1.535,0.141,1.865c0.097,0.332,0.259,0.496,0.49,0.496C2.771,8.738,2.992,8.229,2.992,7.207z M5.836,8.738V4.215
	H5.348V3.096h1.698v5.643h0.379v1.119H5.348v-1.12H5.836z M6.402,0c0.219,0,0.404,0.076,0.555,0.228
	C7.105,0.375,7.182,0.561,7.182,0.78c0,0.215-0.076,0.397-0.226,0.551C6.807,1.483,6.621,1.558,6.402,1.558
	c-0.215,0-0.398-0.074-0.549-0.228C5.701,1.177,5.625,0.994,5.625,0.779c0-0.219,0.076-0.404,0.229-0.553
	C6.004,0.076,6.188,0,6.402,0z M9.963,9.936l-1.45-5.772H7.979V3.096h2.24v1.067H9.717l0.796,3.719h0.024l0.781-3.719h-0.514V3.096
	h2.227v1.067H12.51l-1.438,5.771L9.963,9.936L9.963,9.936z M16.029,7.818l1.068,0.393c-0.146,0.58-0.373,1.025-0.685,1.338
	c-0.309,0.314-0.662,0.472-1.061,0.472c-0.646,0-1.115-0.277-1.416-0.834c-0.302-0.556-0.451-1.438-0.451-2.648
	c0-1.213,0.149-2.115,0.451-2.709c0.301-0.592,0.768-0.887,1.401-0.887c0.523,0,0.951,0.242,1.285,0.729
	c0.332,0.486,0.498,1.191,0.498,2.113v1.029H14.76v0.291c0,0.606,0.048,1.057,0.142,1.352C14.998,8.752,15.156,8.9,15.379,8.9
	C15.752,8.9,15.969,8.539,16.029,7.818z M14.762,5.85h1.149V5.258c0-0.842-0.192-1.262-0.582-1.262
	c-0.219,0-0.369,0.125-0.449,0.373c-0.08,0.25-0.118,0.646-0.118,1.191V5.85z M18.01,9.857V7.529h1.121
	c0.021,0.9,0.211,1.352,0.568,1.352c0.273,0,0.408-0.196,0.408-0.592c0-0.342-0.07-0.594-0.211-0.762
	c-0.142-0.166-0.394-0.394-0.754-0.676c-0.429-0.332-0.734-0.658-0.916-0.974c-0.183-0.315-0.273-0.68-0.273-1.092
	c0-0.502,0.117-0.922,0.351-1.26c0.233-0.34,0.522-0.51,0.864-0.51c0.354,0,0.64,0.192,0.857,0.58h0.024v-0.5h1.119v2.213H20.05
	c0-0.492-0.036-0.824-0.11-0.994c-0.072-0.17-0.199-0.254-0.381-0.254c-0.265,0-0.396,0.184-0.396,0.553
	c0,0.275,0.06,0.5,0.174,0.674c0.115,0.174,0.34,0.381,0.677,0.621c0.479,0.342,0.817,0.678,1.014,1.006s0.293,0.744,0.293,1.246
	c0,0.514-0.123,0.939-0.367,1.273s-0.549,0.502-0.914,0.502c-0.342,0-0.637-0.193-0.881-0.58h-0.025v0.502L18.01,9.857L18.01,9.857z
	 M26.389,9.857V8.738h0.502V4.215h-0.527V3.096H28.1v0.598h0.024c0.279-0.449,0.627-0.676,1.043-0.676
	c0.412,0,0.738,0.227,0.979,0.676c0.303-0.449,0.68-0.676,1.129-0.676c0.852,0,1.277,0.61,1.277,1.834v3.887h0.502v1.119h-1.711
	V4.904c0-0.289-0.027-0.488-0.08-0.6c-0.056-0.111-0.158-0.166-0.312-0.166c-0.168,0-0.313,0.065-0.438,0.2
	c-0.125,0.138-0.188,0.224-0.188,0.263v4.137h0.502v1.119h-1.711V4.904c0-0.279-0.031-0.478-0.09-0.592
	c-0.062-0.117-0.166-0.174-0.316-0.174c-0.215,0-0.418,0.153-0.61,0.463v4.137h0.502v1.119H26.389z M36.35,7.818l1.067,0.393
	c-0.146,0.58-0.373,1.025-0.682,1.338c-0.312,0.314-0.664,0.472-1.062,0.472c-0.645,0-1.114-0.277-1.416-0.834
	c-0.301-0.556-0.448-1.438-0.448-2.648c0-1.213,0.147-2.115,0.448-2.709c0.302-0.592,0.769-0.887,1.402-0.887
	c0.523,0,0.951,0.242,1.285,0.729c0.332,0.486,0.498,1.191,0.498,2.113v1.029h-2.361v0.291c0,0.606,0.047,1.057,0.142,1.352
	S35.477,8.9,35.699,8.9C36.072,8.9,36.289,8.539,36.35,7.818z M35.082,5.85h1.152V5.258c0-0.842-0.195-1.262-0.584-1.262
	c-0.219,0-0.369,0.125-0.449,0.373c-0.08,0.25-0.119,0.646-0.119,1.191V5.85z M42.719,9.857V7.529h1.12
	c0.021,0.9,0.211,1.352,0.568,1.352c0.273,0,0.408-0.196,0.408-0.592c0-0.342-0.07-0.594-0.211-0.762
	c-0.142-0.166-0.394-0.394-0.754-0.676c-0.429-0.332-0.734-0.658-0.916-0.974c-0.185-0.315-0.273-0.68-0.273-1.092
	c0-0.502,0.117-0.922,0.351-1.26c0.233-0.34,0.522-0.51,0.864-0.51c0.354,0,0.64,0.192,0.857,0.58h0.024v-0.5h1.119v2.213H44.76
	c0-0.492-0.036-0.824-0.11-0.994c-0.072-0.17-0.199-0.254-0.381-0.254c-0.265,0-0.396,0.184-0.396,0.553
	c0,0.275,0.06,0.5,0.174,0.674c0.115,0.174,0.341,0.381,0.677,0.621c0.479,0.342,0.817,0.678,1.014,1.006s0.293,0.744,0.293,1.246
	c0,0.514-0.123,0.939-0.367,1.273s-0.549,0.502-0.914,0.502c-0.344,0-0.637-0.193-0.881-0.58H43.84v0.502L42.719,9.857L42.719,9.857
	z M48.42,4.215v3.972c0,0.444,0.183,0.668,0.541,0.668c0.134,0,0.297-0.037,0.488-0.115v1.055c-0.27,0.097-0.59,0.144-0.957,0.144
	c-0.447,0-0.771-0.14-0.977-0.416C47.312,9.246,47.21,8.8,47.21,8.187V4.215h-0.592V3.096h0.592V1.988
	c0.412-0.262,0.814-0.555,1.209-0.881v1.987h0.806v1.119L48.42,4.215L48.42,4.215z M49.99,9.857V8.738h0.605V4.215H49.99V3.096
	h1.814v1.317h0.024c0.221-0.561,0.438-0.936,0.65-1.119C52.691,3.112,53,3.018,53.4,3.018v1.28c-1.062,0-1.596,0.605-1.596,1.814
	v2.625h0.682v1.119H49.99z M56.393,7.818l1.067,0.393c-0.146,0.58-0.373,1.025-0.682,1.338c-0.309,0.314-0.662,0.472-1.062,0.472
	c-0.643,0-1.114-0.277-1.413-0.834c-0.302-0.556-0.451-1.438-0.451-2.648c0-1.213,0.149-2.115,0.451-2.709
	c0.299-0.592,0.768-0.887,1.401-0.887c0.523,0,0.951,0.242,1.283,0.729c0.332,0.486,0.498,1.191,0.498,2.113v1.029h-2.361v0.291
	c0,0.606,0.047,1.057,0.144,1.352C55.361,8.752,55.52,8.9,55.742,8.9C56.117,8.9,56.332,8.539,56.393,7.818z M55.125,5.85h1.152
	V5.258c0-0.842-0.193-1.262-0.582-1.262c-0.221,0-0.371,0.125-0.449,0.373c-0.08,0.25-0.121,0.646-0.121,1.191V5.85z M58.279,9.857
	V8.738h0.5V4.215h-0.527V3.096h1.738v0.541h0.031c0.278-0.412,0.621-0.619,1.022-0.619c0.355,0,0.638,0.147,0.84,0.44
	c0.203,0.293,0.308,0.705,0.308,1.232v4.047h0.502v1.119H60.98v-4.98c0-0.272-0.027-0.465-0.08-0.574
	c-0.053-0.108-0.152-0.163-0.299-0.163c-0.164,0-0.308,0.071-0.429,0.219c-0.123,0.145-0.184,0.233-0.184,0.27v4.111h0.502v1.119
	L58.279,9.857L58.279,9.857z M67.789,3.096v1.118h-0.565v5.328c0,0.832-0.201,1.476-0.603,1.929
	c-0.401,0.45-0.965,0.678-1.688,0.678c-0.55,0-1.045-0.14-1.486-0.418l0.58-0.842c0.303,0.176,0.59,0.264,0.854,0.264
	c0.746,0,1.119-0.449,1.119-1.346V9.145h-0.024c-0.164,0.252-0.318,0.436-0.468,0.547c-0.148,0.11-0.332,0.166-0.551,0.166
	c-1.008,0-1.512-1.146-1.512-3.441c0-1.231,0.121-2.104,0.361-2.623c0.237-0.516,0.614-0.774,1.125-0.774
	c0.364,0,0.721,0.192,1.067,0.58V3.096H67.789z M66.014,7.207V6.5c0-0.971-0.043-1.617-0.127-1.94
	c-0.084-0.322-0.263-0.484-0.537-0.484c-0.267,0-0.438,0.178-0.515,0.533c-0.078,0.354-0.116,0.944-0.116,1.77
	c0,0.914,0.047,1.535,0.143,1.865c0.094,0.332,0.258,0.496,0.488,0.496C65.791,8.738,66.014,8.229,66.014,7.207z M69.963,4.215
	v3.972c0,0.444,0.183,0.668,0.541,0.668c0.134,0,0.297-0.037,0.488-0.115v1.055c-0.27,0.097-0.59,0.144-0.957,0.144
	c-0.447,0-0.771-0.14-0.977-0.416c-0.203-0.275-0.306-0.722-0.306-1.334V4.215h-0.592V3.096h0.592V1.988
	c0.412-0.262,0.814-0.555,1.209-0.881v1.987h0.806v1.119L69.963,4.215L69.963,4.215z M71.521,9.857V8.738h0.502V1.281h-0.502V0.162
	h1.711v3.223c0.338-0.295,0.66-0.442,0.965-0.442c0.824,0,1.236,0.645,1.236,1.936v3.861h0.502v1.119h-1.713V4.756
	c0-0.463-0.134-0.694-0.398-0.694c-0.168,0-0.365,0.108-0.592,0.328v4.35h0.502v1.119L71.521,9.857L71.521,9.857z"/>
</svg>
