<?xml version="1.0" encoding="utf-8"?>
<!-- Generator: Adobe Illustrator 17.0.0, SVG Export Plug-In . SVG Version: 6.00 Build 0)  -->
<!DOCTYPE svg PUBLIC "-//W3C//DTD SVG 1.1//EN" "http://www.w3.org/Graphics/SVG/1.1/DTD/svg11.dtd">
<svg version="1.1" id="图层_1" xmlns:ev="http://www.w3.org/2001/xml-events"
	 xmlns="http://www.w3.org/2000/svg" xmlns:xlink="http://www.w3.org/1999/xlink" x="0px" y="0px" width="611px" height="343px"
	 viewBox="0 0 611 343" enable-background="new 0 0 611 343" xml:space="preserve">
<path fill="#424145" stroke="#84828B" stroke-width="2" d="M77,0h456.99c11.046,0,20,8.954,20,20v305H57V20C57,8.954,65.954,0,77,0z
	"/>
<path fill="#B4B7C3" d="M0,335h611c0,0-5.969,8-27,8c-95.481,0-459.67,0-557,0C5.142,343,0,335,0,335z"/>
<path fill="#C8CCDD" d="M0,323h611v12H0V323z"/>
<path fill="#2D2D38" d="M306,9c1.657,0,3,1.343,3,3s-1.343,3-3,3s-3-1.343-3-3S304.343,9,306,9z"/>
<path fill="#5BC8FF" d="M74,21h464v289H74V21z"/>
</svg>
