<?xml version="1.0" encoding="utf-8"?>
<!-- Generator: Adobe Illustrator 17.0.0, SVG Export Plug-In . SVG Version: 6.00 Build 0)  -->
<!DOCTYPE svg PUBLIC "-//W3C//DTD SVG 1.1//EN" "http://www.w3.org/Graphics/SVG/1.1/DTD/svg11.dtd">
<svg version="1.1" id="Layer_1" xmlns="http://www.w3.org/2000/svg" xmlns:xlink="http://www.w3.org/1999/xlink" x="0px" y="0px"
	 width="202.62px" height="198.403px" viewBox="0 0 202.62 198.403" enable-background="new 0 0 202.62 198.403"
	 xml:space="preserve">
<path fill="#CE283F" d="M144.147,184.863c-1.198-2.234-1.319-5.967,0.91-7.17c2.239-1.208,5.97,0.572,7.178,2.806
	c1.196,2.23,0.367,5.018-1.867,6.222C148.135,187.926,145.354,187.093,144.147,184.863z M134.204,167.269
	c-0.64-1.174-0.199-2.646,0.975-3.28c1.182-0.636,2.65-0.195,3.285,0.982c0.637,1.178,0.195,2.645-0.981,3.281
	C136.313,168.884,134.838,168.45,134.204,167.269z M131.313,177.591c-0.995-1.841-0.308-4.136,1.527-5.129
	c1.842-0.991,4.143-0.306,5.134,1.532c0.989,1.844,0.311,4.138-1.534,5.131C134.605,180.117,132.313,179.428,131.313,177.591z
	 M143.344,173.349c-0.989-1.844-0.307-4.137,1.539-5.133c1.836-0.988,4.127-0.302,5.123,1.539c0.995,1.838,0.311,4.132-1.527,5.125
	C146.637,175.875,144.335,175.19,143.344,173.349z M166.007,169.712c-1.706-1.851-2.736-5.434-0.886-7.141
	c1.856-1.716,5.885-0.909,7.596,0.946c1.703,1.848,1.591,4.738-0.265,6.449C170.602,171.68,167.716,171.564,166.007,169.712z
	 M152.073,155.133c-0.909-0.982-0.849-2.513,0.131-3.419c0.985-0.91,2.517-0.849,3.423,0.136c0.912,0.983,0.848,2.515-0.132,3.423
	C154.517,156.176,152.981,156.117,152.073,155.133z M151.832,165.85c-1.418-1.537-1.323-3.932,0.207-5.349
	c1.539-1.417,3.938-1.322,5.354,0.211c1.417,1.54,1.328,3.932-0.211,5.35C155.649,167.479,153.257,167.381,151.832,165.85z
	 M162.437,158.752c-1.416-1.538-1.327-3.931,0.216-5.352c1.53-1.413,3.924-1.316,5.346,0.218c1.419,1.534,1.324,3.927-0.21,5.347
	C166.254,160.384,163.853,160.29,162.437,158.752z M182.836,149.569c-2.125-1.32-4.062-4.496-2.743-6.621
	c1.323-2.135,5.394-2.412,7.523-1.09c2.125,1.317,2.781,4.116,1.458,6.246C187.756,150.236,184.963,150.888,182.836,149.569z
	 M165.577,139.214c-1.139-0.704-1.489-2.197-0.787-3.33c0.706-1.139,2.198-1.488,3.337-0.782c1.138,0.705,1.485,2.199,0.783,3.334
	C168.209,139.568,166.714,139.921,165.577,139.214z M168.205,149.606c-1.778-1.102-2.324-3.433-1.227-5.209
	c1.103-1.775,3.44-2.324,5.215-1.224c1.775,1.104,2.329,3.433,1.223,5.212C172.316,150.159,169.986,150.704,168.205,149.606z
	 M176.529,139.938c-1.775-1.104-2.326-3.434-1.22-5.216c1.1-1.771,3.431-2.315,5.211-1.217c1.775,1.099,2.325,3.431,1.224,5.206
	C180.644,140.491,178.307,141.042,176.529,139.938z M194.711,125.723c-2.404-0.636-5.171-3.105-4.537-5.509
	c0.636-2.413,4.422-3.838,6.832-3.208c2.398,0.639,3.841,3.098,3.205,5.507C199.578,124.922,197.116,126.356,194.711,125.723z
	 M175.227,120.844c-1.294-0.34-2.067-1.661-1.729-2.954c0.341-1.296,1.666-2.066,2.96-1.727c1.294,0.34,2.064,1.666,1.728,2.96
	C177.846,120.411,176.521,121.184,175.227,120.844z M180.787,130.009c-2.025-0.532-3.232-2.601-2.701-4.621
	c0.533-2.022,2.608-3.23,4.625-2.7c2.021,0.535,3.233,2.601,2.699,4.625C184.878,129.331,182.811,130.535,180.787,130.009z
	 M185.91,118.323c-2.021-0.534-3.23-2.6-2.697-4.627c0.532-2.015,2.602-3.221,4.627-2.69c2.021,0.531,3.227,2.599,2.696,4.619
	C190.005,117.647,187.932,118.859,185.91,118.323z M198.416,97.42c-2.467,0.148-5.853-1.34-6.001-3.806
	c-0.151-2.473,2.992-4.981,5.46-5.133c2.464-0.144,4.589,1.732,4.736,4.203C202.763,95.152,200.882,97.271,198.416,97.42z
	 M178.421,98.823c-1.337,0.08-2.485-0.934-2.565-2.265c-0.081-1.339,0.936-2.485,2.273-2.567c1.335-0.08,2.48,0.938,2.564,2.272
	C180.772,97.592,179.758,98.742,178.421,98.823z M186.566,105.789c-2.089,0.129-3.883-1.461-4.011-3.544
	c-0.122-2.088,1.466-3.884,3.552-4.01c2.087-0.124,3.883,1.459,4.009,3.55C190.243,103.868,188.654,105.658,186.566,105.789z
	 M187.782,93.09c-2.091,0.124-3.882-1.462-4.009-3.554c-0.125-2.083,1.463-3.874,3.551-4.003c2.086-0.129,3.878,1.46,4.006,3.546
	C191.46,91.166,189.868,92.966,187.782,93.09z M193.167,68.547c-2.298,0.87-5.963,0.449-6.834-1.844
	c-0.875-2.301,1.377-5.597,3.676-6.473c2.29-0.865,4.861,0.285,5.733,2.583C196.616,65.11,195.461,67.675,193.167,68.547z
	 M174.516,75.783c-1.251,0.476-2.648-0.151-3.123-1.398c-0.477-1.253,0.154-2.651,1.402-3.126c1.253-0.476,2.648,0.154,3.127,1.402
	C176.397,73.907,175.766,75.308,174.516,75.783z M184.366,80.005c-1.954,0.744-4.141-0.236-4.883-2.188
	c-0.741-1.956,0.243-4.145,2.194-4.886c1.956-0.741,4.142,0.237,4.883,2.194C187.304,77.076,186.321,79.259,184.366,80.005z
	 M181.742,67.521c-1.956,0.74-4.141-0.239-4.885-2.198c-0.739-1.952,0.244-4.135,2.198-4.879c1.954-0.743,4.137,0.238,4.881,2.192
	C184.681,64.589,183.698,66.78,181.742,67.521z M180.619,44.128c-1.943,1.47-5.576,2.087-7.048,0.142
	c-1.476-1.948-0.233-5.711,1.712-7.188c1.945-1.466,4.716-1.088,6.19,0.86C182.948,39.887,182.563,42.655,180.619,44.128z
	 M164.757,56.253c-1.066,0.807-2.585,0.6-3.392-0.465c-0.808-1.068-0.598-2.587,0.469-3.395c1.066-0.808,2.585-0.596,3.395,0.469
	C166.033,53.923,165.823,55.444,164.757,56.253z M175.399,57.534c-1.668,1.265-4.04,0.936-5.304-0.728
	c-1.26-1.668-0.932-4.043,0.733-5.303c1.669-1.261,4.041-0.94,5.304,0.731C177.393,53.898,177.063,56.269,175.399,57.534z
	 M169.37,46.291c-1.67,1.26-4.041,0.936-5.308-0.735c-1.257-1.665-0.929-4.036,0.738-5.301c1.666-1.262,4.038-0.936,5.302,0.729
	C171.362,42.651,171.037,45.029,169.37,46.291z M162.306,25.612c-1.459,1.933-4.779,3.505-6.714,2.047
	c-1.938-1.463-1.756-5.393-0.298-7.332c1.461-1.929,4.21-2.32,6.148-0.859C163.381,20.927,163.765,23.677,162.306,25.612z
	 M150.347,41.549c-0.804,1.068-2.322,1.285-3.389,0.481c-1.07-0.807-1.282-2.326-0.478-3.394c0.807-1.069,2.324-1.282,3.392-0.479
	C150.936,38.96,151.152,40.48,150.347,41.549z M160.934,39.872c-1.259,1.672-3.632,2.006-5.299,0.75
	c-1.669-1.26-2.004-3.635-0.746-5.303c1.259-1.671,3.629-2.009,5.3-0.746C161.857,35.828,162.189,38.2,160.934,39.872z
	 M152.061,30.707c-1.262,1.667-3.632,2.003-5.307,0.741c-1.665-1.255-1.996-3.627-0.739-5.298c1.258-1.671,3.627-2.004,5.297-0.748
	C152.982,26.66,153.318,29.037,152.061,30.707z M140,11.852c-0.872,2.244-3.641,4.645-5.884,3.772
	c-2.248-0.872-3.115-4.682-2.246-6.93c0.874-2.239,3.399-3.354,5.645-2.481C139.762,7.083,140.871,9.609,140,11.852z
	 M132.788,30.384c-0.483,1.248-1.888,1.867-3.132,1.382c-1.249-0.485-1.865-1.888-1.38-3.137c0.483-1.247,1.888-1.864,3.135-1.381
	C132.653,27.731,133.272,29.137,132.788,30.384z M142.522,25.893c-0.757,1.952-2.949,2.917-4.898,2.162
	c-1.949-0.759-2.914-2.953-2.159-4.9c0.759-1.949,2.948-2.919,4.899-2.159C142.312,21.75,143.275,23.942,142.522,25.893z
	 M131.489,19.483c-0.759,1.948-2.95,2.916-4.901,2.157c-1.945-0.756-2.909-2.949-2.154-4.9c0.757-1.948,2.948-2.913,4.897-2.156
	C131.279,15.34,132.248,17.535,131.489,19.483z M113.331,4.715c-0.214,2.38-2.21,5.441-4.591,5.229
	c-2.386-0.213-4.247-3.618-4.035-6.002c0.217-2.377,2.317-4.138,4.702-3.924C111.789,0.23,113.545,2.333,113.331,4.715z
	 M111.502,24.475c-0.119,1.333-1.294,2.316-2.625,2.198c-1.333-0.118-2.316-1.296-2.197-2.628c0.119-1.334,1.296-2.315,2.629-2.198
	C110.636,21.966,111.621,23.143,111.502,24.475z M119.605,17.459c-0.187,2.083-2.025,3.62-4.104,3.435
	c-2.084-0.188-3.621-2.028-3.434-4.108c0.188-2.082,2.02-3.623,4.107-3.434C118.252,13.538,119.789,15.376,119.605,17.459z
	 M107.229,14.362c-0.19,2.084-2.024,3.622-4.111,3.435c-2.078-0.188-3.613-2.025-3.429-4.109c0.186-2.082,2.021-3.618,4.104-3.433
	C105.874,10.44,107.415,12.281,107.229,14.362z M84.625,5.398c0.472,2.327-0.576,5.82-2.903,6.293
	c-2.331,0.473-5.055-2.252-5.528-4.581c-0.468-2.326,1.033-4.597,3.363-5.069C81.885,1.567,84.152,3.072,84.625,5.398z
	 M88.454,24.831c0.268,1.311-0.58,2.59-1.889,2.857c-1.314,0.266-2.592-0.583-2.857-1.894c-0.266-1.312,0.582-2.588,1.892-2.855
	C86.907,22.672,88.188,23.519,88.454,24.831z M94.216,15.794c0.417,2.049-0.907,4.046-2.952,4.464
	c-2.049,0.415-4.049-0.911-4.464-2.957c-0.416-2.049,0.904-4.048,2.956-4.463C91.801,12.422,93.798,13.745,94.216,15.794z
	 M81.471,16.36c0.414,2.05-0.908,4.047-2.959,4.464c-2.046,0.415-4.041-0.911-4.459-2.959c-0.417-2.047,0.903-4.046,2.953-4.461
	C79.055,12.986,81.057,14.309,81.471,16.36z M57.35,14.097c1.108,2.082,1.09,5.719-0.992,6.828c-2.085,1.111-5.438-0.727-6.55-2.81
	c-1.104-2.08-0.32-4.668,1.766-5.779C53.655,11.225,56.238,12.015,57.35,14.097z M64.364,30.335c1.337,0,2.421,1.084,2.421,2.421
	s-1.084,2.421-2.421,2.421s-2.421-1.084-2.421-2.421S63.027,30.335,64.364,30.335z M69.443,21.311
	c0.984,1.846,0.287,4.138-1.555,5.121c-1.846,0.984-4.14,0.284-5.123-1.56c-0.981-1.846-0.288-4.137,1.559-5.12
	C66.168,18.769,68.458,19.469,69.443,21.311z M57.391,25.491c0.981,1.846,0.285,4.139-1.563,5.124
	c-1.842,0.979-4.132,0.279-5.117-1.565c-0.984-1.843-0.287-4.134,1.558-5.12C54.112,22.946,56.406,23.644,57.391,25.491z
	 M35.353,29.332c1.633,1.682,2.612,5.177,0.93,6.808c-1.683,1.635-5.382,0.786-7.017-0.895c-1.628-1.681-1.593-4.367,0.09-6
	C31.037,27.61,33.722,27.652,35.353,29.332z M47.204,42.898c1.338,0,2.422,1.084,2.422,2.422s-1.084,2.422-2.422,2.422
	s-2.422-1.084-2.422-2.422S45.866,42.898,47.204,42.898z M48.911,32.915c1.457,1.5,1.422,3.896-0.077,5.352
	c-1.5,1.456-3.896,1.421-5.352-0.079s-1.427-3.894,0.078-5.351C45.059,31.381,47.452,31.419,48.911,32.915z M38.488,40.275
	c1.456,1.5,1.424,3.896-0.078,5.354c-1.497,1.454-3.894,1.417-5.353-0.082c-1.456-1.498-1.422-3.893,0.078-5.349
	C34.634,38.739,37.034,38.774,38.488,40.275z M19.107,49.846c2.013,1.166,3.89,4.262,2.727,6.273
	c-1.169,2.017-4.933,2.187-6.95,1.02c-2.011-1.167-2.699-3.743-1.532-5.758C14.516,49.365,17.094,48.68,19.107,49.846z
	 M34.796,59.615c1.337,0,2.421,1.084,2.421,2.421s-1.084,2.421-2.421,2.421s-2.421-1.084-2.421-2.421S33.459,59.615,34.796,59.615z
	 M31.173,49.126c2.09,0,3.784,1.694,3.784,3.784s-1.694,3.784-3.784,3.784S27.389,55,27.389,52.91S29.083,49.126,31.173,49.126z
	 M25.037,59.549c1.809,1.049,2.43,3.363,1.38,5.175c-1.049,1.806-3.361,2.421-5.172,1.375c-1.812-1.046-2.427-3.36-1.381-5.17
	C20.912,59.119,23.229,58.499,25.037,59.549z M7.819,73.716c2.24,0.567,4.88,3.032,4.313,5.272
	c-0.568,2.244-4.123,3.408-6.363,2.841c-2.239-0.568-3.598-2.842-3.029-5.084C3.306,74.502,5.581,73.15,7.819,73.716z
	 M26.194,78.768c1.337,0,2.421,1.084,2.421,2.421s-1.084,2.421-2.421,2.421s-2.421-1.084-2.421-2.421S24.857,78.768,26.194,78.768z
	 M20.213,69.619c2.089,0,3.783,1.694,3.783,3.783s-1.694,3.783-3.783,3.783s-3.783-1.694-3.783-3.783S18.124,69.619,20.213,69.619z
	 M15.2,81.35c2.09,0,3.785,1.695,3.785,3.785S17.29,88.92,15.2,88.92s-3.785-1.695-3.785-3.785S13.11,81.35,15.2,81.35z
	 M3.999,101.489c2.294-0.086,5.508,1.542,5.595,3.835c0.084,2.296-2.989,4.382-5.283,4.468c-2.291,0.083-4.221-1.703-4.308-3.997
	C-0.083,103.5,1.706,101.574,3.999,101.489z M23.697,101.122c1.337,0,2.421,1.084,2.421,2.421s-1.084,2.421-2.421,2.421
	s-2.421-1.084-2.421-2.421S22.36,101.122,23.697,101.122z M15.764,93.97c2.09,0,3.784,1.694,3.784,3.784s-1.694,3.784-3.784,3.784
	s-3.784-1.694-3.784-3.784S13.674,93.97,15.764,93.97z M14.255,106.639c2.09,0,3.785,1.695,3.785,3.785s-1.695,3.785-3.785,3.785
	s-3.785-1.695-3.785-3.785S12.165,106.639,14.255,106.639z M8.347,130.309c2.153-0.744,5.691-0.111,6.435,2.041
	c0.746,2.153-1.585,5.011-3.738,5.757c-2.153,0.743-4.504-0.398-5.248-2.553C5.048,133.4,6.192,131.053,8.347,130.309z
	 M26.975,124.313c1.264-0.439,2.645,0.232,3.082,1.495c0.438,1.267-0.234,2.644-1.498,3.083c-1.267,0.437-2.645-0.234-3.082-1.5
	C25.041,126.13,25.71,124.748,26.975,124.313z M18.493,119.588c2.09,0,3.784,1.694,3.784,3.784s-1.694,3.784-3.784,3.784
	s-3.784-1.694-3.784-3.784S16.403,119.588,18.493,119.588z M19.502,132.354c1.976-0.681,4.131,0.365,4.814,2.342
	c0.682,1.977-0.367,4.13-2.344,4.814c-1.974,0.683-4.129-0.363-4.812-2.34C16.476,135.196,17.525,133.038,19.502,132.354z
	 M20.421,155.674c1.817-1.349,5.375-1.796,6.722,0.021c1.349,1.819-0.025,5.211-1.844,6.559c-1.817,1.348-4.383,0.969-5.731-0.852
	C18.22,159.583,18.604,157.02,20.421,155.674z M37.829,143.946c1.337,0,2.421,1.084,2.421,2.421s-1.084,2.421-2.421,2.421
	s-2.421-1.084-2.421-2.421S36.492,143.946,37.829,143.946z M25.758,143.033c1.682-1.246,4.051-0.893,5.297,0.786
	c1.245,1.678,0.892,4.05-0.788,5.294c-1.678,1.245-4.049,0.895-5.293-0.785C23.729,146.648,24.082,144.279,25.758,143.033z
	 M33.928,153.595c2.09,0,3.784,1.694,3.784,3.784s-1.694,3.784-3.784,3.784s-3.784-1.694-3.784-3.784S31.838,153.595,33.928,153.595
	z M38.535,174.146c1.329-1.811,4.597-3.273,6.404-1.94c1.811,1.332,1.479,4.95,0.147,6.76c-1.331,1.807-3.877,2.197-5.686,0.865
	C37.59,178.5,37.203,175.956,38.535,174.146z M52.452,157.77c1.338,0,2.422,1.084,2.422,2.422s-1.084,2.422-2.422,2.422
	s-2.422-1.084-2.422-2.422S51.114,157.77,52.452,157.77z M42.985,159.014c2.09,0,3.784,1.694,3.784,3.784s-1.694,3.784-3.784,3.784
	s-3.784-1.694-3.784-3.784S40.895,159.014,42.985,159.014z M51.964,168.078c2.091,0,3.786,1.695,3.786,3.786
	s-1.695,3.786-3.786,3.786s-3.786-1.695-3.786-3.786S49.873,168.078,51.964,168.078z M60.762,187.524
	c0.758-2.098,3.479-4.407,5.575-3.647c2.099,0.761,2.776,4.302,2.017,6.399c-0.762,2.096-3.075,3.181-5.174,2.421
	C61.082,191.937,60.002,189.621,60.762,187.524z M67.926,169.437c0.455-1.258,1.846-1.909,3.102-1.453
	c1.262,0.457,1.908,1.846,1.452,3.104c-0.455,1.258-1.844,1.906-3.101,1.451C68.121,172.082,67.47,170.693,67.926,169.437z
	 M61.859,171.653c2.09,0,3.784,1.694,3.784,3.784s-1.694,3.784-3.784,3.784s-3.784-1.694-3.784-3.784S59.769,171.653,61.859,171.653
	z M73.033,177.81c2.091,0,3.786,1.695,3.786,3.786s-1.695,3.786-3.786,3.786s-3.786-1.695-3.786-3.786S70.942,177.81,73.033,177.81z
	 M87.516,194.107c0.158-2.211,2.148-5.16,4.357-5.001c2.21,0.158,3.796,3.365,3.639,5.573c-0.158,2.21-2.078,3.874-4.287,3.713
	C89.017,198.235,87.357,196.315,87.516,194.107z M91.943,172.546c1.338,0,2.422,1.084,2.422,2.422s-1.084,2.422-2.422,2.422
	s-2.422-1.084-2.422-2.422S90.605,172.546,91.943,172.546z M85.325,178.438c2.09,0,3.784,1.694,3.784,3.784
	s-1.694,3.784-3.784,3.784s-3.784-1.694-3.784-3.784S83.235,178.438,85.325,178.438z M97.754,181.317
	c2.091,0,3.786,1.695,3.786,3.786s-1.695,3.786-3.786,3.786s-3.786-1.695-3.786-3.786S95.663,181.317,97.754,181.317z
	 M116.297,193.158c-0.432-2.155,0.71-5.518,2.865-5.949c2.157-0.433,4.508,2.232,4.938,4.387c0.432,2.156-0.965,4.255-3.122,4.686
	C118.823,196.713,116.729,195.314,116.297,193.158z M113.159,174.036c-0.263-1.312,0.589-2.589,1.898-2.852
	c1.315-0.262,2.59,0.589,2.853,1.901c0.263,1.311-0.587,2.587-1.901,2.849C114.698,176.197,113.422,175.347,113.159,174.036z
	 M111.083,178.527c2.09,0,3.785,1.695,3.785,3.785s-1.695,3.785-3.785,3.785s-3.785-1.695-3.785-3.785
	S108.993,178.527,111.083,178.527z M123.832,178c2.09,0,3.785,1.695,3.785,3.785s-1.695,3.785-3.785,3.785s-3.785-1.695-3.785-3.785
	S121.742,178,123.832,178z M143.033,162.889c-1.168-1.663-1.609-4.621,0.051-5.787c1.661-1.169,4.792-0.099,5.965,1.559
	c1.159,1.662,0.761,3.953-0.898,5.121C146.488,164.953,144.2,164.547,143.033,162.889z M133.477,149.839
	c-0.613-0.876-0.398-2.086,0.478-2.705c0.869-0.611,2.084-0.399,2.699,0.476c0.614,0.876,0.401,2.085-0.475,2.702
	C135.3,150.928,134.092,150.715,133.477,149.839z M132.151,158.313c-0.966-1.371-0.635-3.259,0.733-4.222
	c1.371-0.961,3.261-0.628,4.225,0.738c0.952,1.37,0.628,3.259-0.739,4.22C135.002,160.009,133.11,159.68,132.151,158.313z
	 M141.32,153.809c-0.966-1.368-0.635-3.256,0.733-4.217c1.371-0.961,3.26-0.631,4.221,0.74c0.957,1.371,0.628,3.259-0.735,4.218
	C144.17,155.513,142.283,155.18,141.32,153.809z M158.934,148.683c-1.538-1.31-2.691-4.059-1.385-5.593
	c1.309-1.536,4.588-1.277,6.122,0.032c1.533,1.304,1.716,3.614,0.409,5.15C162.772,149.811,160.469,149.992,158.934,148.683z
	 M146.472,138.426c-0.813-0.696-0.909-1.919-0.216-2.738c0.691-0.809,1.92-0.908,2.734-0.214c0.813,0.695,0.908,1.919,0.218,2.734
	C148.509,139.024,147.286,139.12,146.472,138.426z M147.303,146.961c-1.276-1.086-1.426-2.997-0.342-4.27
	c1.087-1.274,3-1.425,4.273-0.339c1.266,1.086,1.424,2.995,0.339,4.268C150.489,147.894,148.576,148.045,147.303,146.961z
	 M155.059,140.309c-1.277-1.082-1.429-2.992-0.346-4.266c1.088-1.272,2.999-1.425,4.272-0.337c1.271,1.087,1.423,2.998,0.341,4.267
	C158.241,141.247,156.33,141.398,155.059,140.309z M170.851,131.247c-1.818-0.842-3.662-3.18-2.822-4.996
	c0.842-1.82,4.051-2.437,5.87-1.595c1.816,0.839,2.607,3.001,1.767,4.819C174.828,131.297,172.671,132.085,170.851,131.247z
	 M156.134,124.702c-0.972-0.45-1.394-1.604-0.945-2.578c0.446-0.966,1.603-1.393,2.573-0.941c0.973,0.449,1.393,1.601,0.947,2.572
	C158.257,124.729,157.104,125.151,156.134,124.702z M159.234,132.698c-1.522-0.701-2.184-2.5-1.48-4.02
	c0.703-1.521,2.507-2.182,4.023-1.479c1.514,0.706,2.179,2.5,1.478,4.02C162.553,132.737,160.752,133.399,159.234,132.698z
	 M164.909,124.204c-1.521-0.699-2.182-2.5-1.479-4.018c0.702-1.518,2.5-2.179,4.022-1.478c1.515,0.706,2.177,2.507,1.478,4.02
	C168.228,124.248,166.431,124.909,164.909,124.204z M177.765,110.683c-1.975-0.267-4.414-1.958-4.149-3.931
	c0.267-1.977,3.138-3.483,5.11-3.219c1.969,0.266,3.355,2.086,3.092,4.059C181.555,109.567,179.738,110.948,177.765,110.683z
	 M161.808,108.729c-1.061-0.145-1.804-1.121-1.663-2.188c0.143-1.052,1.124-1.801,2.184-1.656c1.061,0.143,1.802,1.119,1.662,2.179
	C163.845,108.13,162.867,108.871,161.808,108.729z M167.126,115.456c-1.66-0.222-2.819-1.747-2.599-3.403
	c0.225-1.66,1.752-2.823,3.41-2.6c1.654,0.229,2.818,1.75,2.596,3.404C170.31,114.516,168.783,115.679,167.126,115.456z
	 M170.048,105.667c-1.66-0.221-2.822-1.745-2.599-3.403c0.225-1.657,1.75-2.821,3.409-2.596c1.656,0.227,2.819,1.751,2.596,3.405
	C173.231,104.732,171.707,105.892,170.048,105.667z M177.976,87.853c-1.946,0.359-4.782-0.497-5.141-2.44
	c-0.359-1.947,1.894-4.247,3.839-4.606c1.942-0.36,3.811,0.93,4.173,2.875C181.208,85.628,179.92,87.491,177.976,87.853z
	 M162.229,90.915c-1.055,0.193-2.063-0.504-2.261-1.559c-0.192-1.045,0.506-2.062,1.557-2.255c1.053-0.194,2.064,0.503,2.26,1.554
	C163.978,89.711,163.28,90.722,162.229,90.915z M169.374,95.653c-1.645,0.306-3.225-0.783-3.526-2.426
	c-0.305-1.649,0.785-3.229,2.43-3.532c1.645-0.298,3.225,0.785,3.528,2.428C172.108,93.771,171.021,95.349,169.374,95.653z
	 M169.107,85.441c-1.648,0.307-3.227-0.781-3.527-2.423c-0.304-1.647,0.781-3.227,2.43-3.53c1.644-0.299,3.225,0.788,3.526,2.429
	C171.841,83.561,170.754,85.139,169.107,85.441z M171.068,65.453c-1.74,0.913-4.695,0.926-5.608-0.813
	c-0.913-1.741,0.563-4.577,2.301-5.491c1.738-0.912,3.89-0.239,4.806,1.501C173.48,62.391,172.808,64.539,171.068,65.453z
	 M156.944,72.988c-0.95,0.497-2.121,0.13-2.623-0.82c-0.493-0.942-0.128-2.117,0.82-2.615c0.948-0.497,2.119-0.129,2.619,0.817
	C158.258,71.32,157.891,72.493,156.944,72.988z M165.175,75.399c-1.484,0.78-3.313,0.207-4.092-1.274
	c-0.775-1.484-0.204-3.315,1.278-4.092c1.48-0.771,3.311-0.204,4.09,1.276C167.226,72.79,166.653,74.623,165.175,75.399z
	 M161.893,65.724c-1.481,0.781-3.312,0.208-4.088-1.271c-0.776-1.483-0.205-3.314,1.278-4.091c1.481-0.774,3.313-0.203,4.086,1.277
	C163.947,63.119,163.376,64.949,161.893,65.724z M158.863,47.834c-1.404,1.356-4.232,2.188-5.587,0.784
	c-1.357-1.404-0.73-4.518,0.676-5.873c1.401-1.354,3.643-1.313,5,0.091C160.31,44.241,160.268,46.476,158.863,47.834z
	 M147.418,58.98c-0.771,0.746-1.997,0.721-2.746-0.049c-0.738-0.766-0.718-1.997,0.053-2.74c0.77-0.744,1.996-0.721,2.74,0.047
	C148.212,57.013,148.187,58.239,147.418,58.98z M155.994,58.983c-1.203,1.165-3.121,1.13-4.283-0.074
	c-1.162-1.207-1.127-3.124,0.077-4.286c1.204-1.155,3.119-1.127,4.281,0.076C157.231,55.904,157.196,57.823,155.994,58.983z
	 M150.127,50.622c-1.202,1.164-3.118,1.128-4.279-0.074c-1.162-1.205-1.129-3.122,0.076-4.285c1.206-1.158,3.123-1.125,4.282,0.077
	C151.369,47.543,151.333,49.459,150.127,50.622z M142.414,34.765c-0.977,1.678-3.469,3.239-5.142,2.266
	c-1.679-0.974-1.908-4.118-0.934-5.796c0.972-1.674,3.125-2.242,4.802-1.269C142.82,30.938,143.386,33.086,142.414,34.765z
	 M134.429,48.566c-0.54,0.926-1.728,1.239-2.657,0.703c-0.919-0.536-1.237-1.726-0.696-2.651c0.538-0.926,1.724-1.238,2.648-0.703
	C134.653,46.455,134.966,47.643,134.429,48.566z M142.678,46.226c-0.842,1.449-2.694,1.939-4.141,1.098s-1.938-2.697-1.096-4.143
	c0.841-1.441,2.693-1.936,4.138-1.096C143.025,42.926,143.519,44.781,142.678,46.226z M134.749,39.784
	c-0.837,1.449-2.691,1.939-4.137,1.1c-1.446-0.842-1.939-2.695-1.096-4.142c0.841-1.446,2.695-1.936,4.141-1.097
	C135.103,36.483,135.593,38.337,134.749,39.784z M123.335,25.736c-0.48,1.867-2.455,4.036-4.319,3.556
	c-1.866-0.478-2.92-3.427-2.44-5.292s2.383-2.988,4.249-2.509C122.692,21.969,123.813,23.87,123.335,25.736z M119.365,41.146
	c-0.267,1.038-1.324,1.662-2.365,1.396c-1.029-0.266-1.657-1.325-1.391-2.362c0.268-1.035,1.324-1.66,2.357-1.395
	C119.009,39.054,119.633,40.112,119.365,41.146z M126.672,36.652c-0.416,1.625-2.067,2.598-3.688,2.183
	c-1.621-0.416-2.597-2.068-2.18-3.69c0.42-1.617,2.067-2.595,3.686-2.178C126.11,33.382,127.086,35.034,126.672,36.652z
	 M117.293,32.606c-0.413,1.621-2.064,2.597-3.684,2.18c-1.622-0.416-2.6-2.067-2.181-3.688c0.419-1.619,2.068-2.595,3.687-2.179
	C116.735,29.334,117.71,30.985,117.293,32.606z M101.344,22.606c0.056,1.914-1.244,4.535-3.155,4.591
	c-1.913,0.059-3.718-2.473-3.774-4.384c-0.057-1.911,1.45-3.509,3.364-3.565C99.692,19.187,101.284,20.693,101.344,22.606z
	 M101.763,38.482c0.031,1.07-0.811,1.963-1.883,1.996c-1.067,0.032-1.962-0.811-1.994-1.881c-0.03-1.07,0.812-1.963,1.88-1.996
	C100.84,36.571,101.73,37.414,101.763,38.482z M107.535,32.139c0.052,1.675-1.266,3.068-2.937,3.118
	c-1.674,0.05-3.07-1.268-3.119-2.94c-0.045-1.67,1.267-3.066,2.937-3.117C106.09,29.152,107.484,30.468,107.535,32.139z
	 M94.377,27.912c1.672,0,3.028,1.356,3.028,3.028c0,1.672-1.356,3.028-3.028,3.028s-3.028-1.356-3.028-3.028
	C91.349,29.268,92.705,27.912,94.377,27.912z M78.624,25.832c0.598,1.806,0.091,4.681-1.713,5.275
	c-1.805,0.598-4.229-1.312-4.824-3.116c-0.597-1.803,0.387-3.75,2.192-4.349C76.083,23.044,78.026,24.027,78.624,25.832z
	 M83.506,40.912c0.335,1.017-0.217,2.112-1.237,2.452c-1.013,0.333-2.111-0.22-2.444-1.237c-0.335-1.017,0.217-2.112,1.231-2.448
	C82.075,39.343,83.171,39.897,83.506,40.912z M87.229,33.185c0.527,1.591-0.336,3.303-1.925,3.828
	c-1.59,0.524-3.305-0.34-3.828-1.928c-0.519-1.588,0.339-3.301,1.927-3.825C84.992,30.736,86.703,31.599,87.229,33.185z
	 M74.275,32.763c1.672,0,3.027,1.355,3.027,3.027s-1.355,3.027-3.027,3.027s-3.027-1.355-3.027-3.027S72.603,32.763,74.275,32.763z
	 M57.836,35.273c1.077,1.549,1.403,4.445-0.145,5.521c-1.552,1.081-4.388-0.067-5.471-1.615c-1.072-1.55-0.693-3.681,0.858-4.76
	C54.628,33.339,56.756,33.724,57.836,35.273z M66.76,48.332c0.614,0.88,0.395,2.088-0.485,2.702
	c-0.876,0.608-2.085,0.393-2.698-0.486c-0.609-0.88-0.392-2.086,0.484-2.698C64.941,47.237,66.15,47.453,66.76,48.332z
	 M68.128,39.866c0.959,1.375,0.616,3.262-0.755,4.217c-1.375,0.956-3.265,0.616-4.22-0.758c-0.95-1.374-0.617-3.261,0.756-4.215
	C65.285,38.155,67.173,38.493,68.128,39.866z M56.453,43.028c1.672,0,3.027,1.355,3.027,3.027s-1.355,3.027-3.027,3.027
	s-3.027-1.355-3.027-3.027S54.781,43.028,56.453,43.028z M42.334,49.399c1.455,1.182,2.561,3.871,1.378,5.325
	c-1.181,1.457-4.201,1.127-5.661-0.052c-1.451-1.183-1.675-3.323-0.492-4.776C38.739,48.437,40.877,48.218,42.334,49.399z
	 M54.478,59.485c0.831,0.677,0.957,1.897,0.28,2.731c-0.672,0.827-1.894,0.955-2.725,0.28c-0.83-0.675-0.956-1.896-0.284-2.727
	C52.426,58.937,53.647,58.811,54.478,59.485z M53.443,50.97c1.302,1.056,1.499,2.964,0.443,4.263
	c-1.056,1.298-2.964,1.495-4.263,0.44c-1.294-1.056-1.496-2.963-0.441-4.26C50.238,50.115,52.146,49.919,53.443,50.97z
	 M43.943,57.127c1.672,0,3.027,1.355,3.027,3.027s-1.355,3.027-3.027,3.027s-3.027-1.355-3.027-3.027S42.271,57.127,43.943,57.127z
	 M30.84,66.927c1.711,0.737,3.491,3.024,2.752,4.732c-0.735,1.71-3.712,2.196-5.423,1.461c-1.708-0.739-2.5-2.722-1.76-4.433
	C27.146,66.976,29.129,66.191,30.84,66.927z M45.221,73.363c0.982,0.424,1.434,1.564,1.012,2.55
	c-0.424,0.981-1.564,1.435-2.548,1.011c-0.985-0.425-1.438-1.566-1.012-2.547C43.096,73.391,44.238,72.939,45.221,73.363z
	 M41.915,65.45c1.539,0.66,2.244,2.445,1.581,3.98c-0.662,1.536-2.446,2.244-3.98,1.581c-1.535-0.663-2.244-2.446-1.583-3.98
	C38.598,65.495,40.379,64.788,41.915,65.45z M35.263,73.837c1.672,0,3.028,1.356,3.028,3.028s-1.356,3.028-3.028,3.028
	s-3.028-1.356-3.028-3.028S33.591,73.837,35.263,73.837z M24.314,87.505c1.832,0.242,4.16,1.956,3.921,3.788
	c-0.24,1.835-2.957,3.092-4.791,2.854c-1.832-0.241-3.125-1.922-2.885-3.756C20.799,88.555,22.48,87.265,24.314,87.505z
	 M39.618,89.786c1.07,0,1.938,0.868,1.938,1.938s-0.868,1.938-1.938,1.938s-1.938-0.868-1.938-1.938S38.548,89.786,39.618,89.786z
	 M34.525,83.093c1.663,0.216,2.83,1.738,2.612,3.397c-0.218,1.659-1.739,2.827-3.399,2.611c-1.657-0.222-2.827-1.74-2.608-3.398
	C31.348,84.044,32.87,82.877,34.525,83.093z M31.247,92.864c1.672,0,3.028,1.356,3.028,3.028s-1.356,3.028-3.028,3.028
	c-1.672,0-3.028-1.356-3.028-3.028S29.575,92.864,31.247,92.864z M23.848,109.914c1.812-0.281,4.52,0.715,4.801,2.529
	c0.283,1.815-1.965,3.759-3.778,4.044c-1.813,0.281-3.514-0.96-3.799-2.776C20.788,111.896,22.03,110.199,23.848,109.914z
	 M39.395,107.791c1.06-0.165,2.049,0.56,2.215,1.621c0.164,1.055-0.56,2.047-1.618,2.211s-2.048-0.56-2.213-1.616
	C37.613,108.947,38.336,107.956,39.395,107.791z M32.381,102.854c1.655-0.26,3.204,0.874,3.461,2.527
	c0.257,1.652-0.875,3.201-2.53,3.46c-1.65,0.255-3.201-0.875-3.457-2.526C29.597,104.661,30.729,103.113,32.381,102.854z
	 M32.366,113.068c1.653-0.258,3.2,0.872,3.46,2.524c0.258,1.654-0.875,3.204-2.529,3.461c-1.651,0.257-3.201-0.875-3.457-2.527
	C29.58,114.873,30.714,113.324,32.366,113.068z M29.956,132.391c1.642-0.79,4.516-0.614,5.306,1.027
	c0.793,1.645-0.798,4.13-2.439,4.924c-1.64,0.789-3.615,0.1-4.407-1.542C27.622,135.158,28.313,133.185,29.956,132.391z
	 M44.208,125.899c0.964-0.468,2.12-0.063,2.588,0.904c0.463,0.963,0.059,2.121-0.905,2.588c-0.964,0.463-2.123,0.059-2.587-0.904
	C42.837,127.519,43.244,126.361,44.208,125.899z M36.063,123.207c1.507-0.727,3.317-0.094,4.044,1.414
	c0.727,1.507,0.094,3.318-1.415,4.046c-1.506,0.722-3.317,0.093-4.042-1.413C33.923,125.745,34.556,123.936,36.063,123.207z
	 M39.014,132.986c1.508-0.728,3.316-0.094,4.043,1.412c0.73,1.509,0.095,3.317-1.413,4.044c-1.507,0.726-3.318,0.092-4.044-1.415
	C36.875,135.523,37.506,133.711,39.014,132.986z M41.793,151.025c1.319-1.236,4.108-1.919,5.348-0.599
	c1.239,1.319,0.458,4.143-0.862,5.383c-1.319,1.237-3.395,1.172-4.634-0.148C40.403,154.341,40.471,152.265,41.793,151.025z
	 M54.773,140.085c1.07,0,1.938,0.868,1.938,1.938s-0.868,1.938-1.938,1.938s-1.938-0.868-1.938-1.938S53.703,140.085,54.773,140.085
	z M44.869,140.486c1.224-1.146,3.14-1.084,4.285,0.137c1.144,1.22,1.081,3.138-0.139,4.284c-1.222,1.141-3.137,1.082-4.28-0.139
	C43.59,143.548,43.652,141.631,44.869,140.486z M50.616,148.93c1.22-1.145,3.135-1.085,4.279,0.136
	c1.148,1.221,1.087,3.138-0.135,4.28c-1.22,1.146-3.138,1.085-4.281-0.136C49.335,151.992,49.395,150.073,50.616,148.93z
	 M58.003,164.05c0.892-1.561,3.356-3.021,4.914-2.132c1.563,0.891,1.632,3.797,0.743,5.359c-0.891,1.561-2.879,2.107-4.442,1.213
	C57.655,167.603,57.113,165.613,58.003,164.05z M67.779,149.735c1.07,0,1.938,0.868,1.938,1.938s-0.868,1.938-1.938,1.938
	s-1.938-0.868-1.938-1.938S66.709,149.735,67.779,149.735z M57.861,153.121c0.83-1.455,2.68-1.961,4.135-1.132
	c1.452,0.83,1.959,2.681,1.128,4.136c-0.829,1.45-2.68,1.957-4.13,1.128C57.539,156.422,57.035,154.574,57.861,153.121z
	 M68.471,157.969c1.673,0,3.029,1.356,3.029,3.029s-1.356,3.029-3.029,3.029s-3.029-1.356-3.029-3.029
	S66.798,157.969,68.471,157.969z M76.938,172.784c0.41-1.735,2.361-3.826,4.096-3.414c1.738,0.406,2.605,3.159,2.198,4.896
	c-0.408,1.735-2.15,2.815-3.887,2.405C77.607,176.263,76.532,174.522,76.938,172.784z M80.955,157.743
	c0.244-1.045,1.286-1.688,2.332-1.443c1.04,0.245,1.685,1.288,1.439,2.331c-0.244,1.041-1.286,1.687-2.329,1.443
	C81.354,159.83,80.709,158.784,80.955,157.743z M76.689,160.048c1.673,0,3.029,1.356,3.029,3.029s-1.356,3.029-3.029,3.029
	s-3.029-1.356-3.029-3.029S75.016,160.048,76.689,160.048z M86.144,163.904c1.672,0,3.028,1.356,3.028,3.028
	s-1.356,3.028-3.028,3.028s-3.028-1.356-3.028-3.028S84.472,163.904,86.144,163.904z M98.894,175.515
	c-0.08-1.77,1.23-4.302,2.998-4.382c1.771-0.084,3.331,2.319,3.413,4.089c0.079,1.769-1.289,3.271-3.06,3.352
	C100.475,178.656,98.976,177.285,98.894,175.515z M100.624,157.95c1.071,0,1.939,0.868,1.939,1.939s-0.868,1.939-1.939,1.939
	s-1.939-0.868-1.939-1.939S99.553,157.95,100.624,157.95z M96.043,163.245c1.673,0,3.03,1.357,3.03,3.03s-1.357,3.03-3.03,3.03
	s-3.03-1.357-3.03-3.03S94.37,163.245,96.043,163.245z M106.191,164.371c1.673,0,3.029,1.356,3.029,3.029s-1.356,3.029-3.029,3.029
	s-3.029-1.356-3.029-3.029S104.518,164.371,106.191,164.371z M121.669,172.09c-0.542-1.672,0.055-4.454,1.727-4.996
	c1.672-0.548,3.789,1.351,4.334,3.023c0.545,1.673-0.369,3.471-2.043,4.016C124.014,174.678,122.216,173.763,121.669,172.09z
	 M117.39,157.185c-0.335-1.018,0.223-2.111,1.243-2.443c1.018-0.332,2.11,0.226,2.441,1.243c0.332,1.018-0.224,2.111-1.242,2.443
	C118.813,158.761,117.721,158.205,117.39,157.185z M113.633,164.899c-0.52-1.593,0.352-3.304,1.943-3.821
	c1.591-0.518,3.301,0.354,3.817,1.943c0.518,1.591-0.352,3.302-1.941,3.818C115.86,167.357,114.152,166.486,113.633,164.899z
	 M123.716,163.283c-0.516-1.592,0.353-3.3,1.943-3.817c1.591-0.518,3.301,0.35,3.818,1.941c0.519,1.591-0.353,3.301-1.944,3.818
	C125.945,165.743,124.234,164.873,123.716,163.283z M139.78,146.2c-1.059-1.172-1.684-3.416-0.52-4.473
	c1.182-1.062,3.705-0.535,4.765,0.636c1.056,1.173,0.967,2.981-0.204,4.039C142.646,147.465,140.833,147.372,139.78,146.2z
	 M131.152,137.028c-0.558-0.617-0.513-1.57,0.111-2.133c0.609-0.559,1.572-0.51,2.129,0.11c0.554,0.62,0.508,1.572-0.105,2.13
	C132.667,137.696,131.714,137.644,131.152,137.028z M130.934,143.701c-0.87-0.966-0.796-2.456,0.17-3.331
	c0.959-0.873,2.458-0.796,3.328,0.169c0.877,0.968,0.803,2.454-0.176,3.333C133.295,144.744,131.807,144.666,130.934,143.701z
	 M137.591,139.351c-0.873-0.966-0.802-2.458,0.155-3.33c0.98-0.874,2.469-0.798,3.339,0.17c0.879,0.964,0.799,2.458-0.165,3.329
	C139.948,140.395,138.46,140.317,137.591,139.351z M150.664,133.607c-1.31-0.862-2.477-2.874-1.619-4.183
	c0.863-1.318,3.427-1.435,4.739-0.574c1.311,0.861,1.677,2.624,0.816,3.936C153.74,134.104,151.973,134.469,150.664,133.607z
	 M140.037,126.9c-0.698-0.454-0.891-1.39-0.429-2.095c0.45-0.69,1.391-0.888,2.088-0.431c0.691,0.46,0.891,1.395,0.434,2.09
	C141.672,127.163,140.737,127.356,140.037,126.9z M141.513,133.411c-1.086-0.716-1.39-2.178-0.677-3.266
	c0.708-1.088,2.177-1.393,3.263-0.678c1.095,0.713,1.394,2.169,0.673,3.269C144.058,133.82,142.603,134.124,141.513,133.411z
	 M146.855,127.519c-1.089-0.714-1.4-2.18-0.691-3.261c0.724-1.098,2.184-1.393,3.274-0.679c1.093,0.714,1.393,2.177,0.681,3.262
	C149.399,127.936,147.938,128.235,146.855,127.519z M158.522,119.111c-1.489-0.469-3.15-2.089-2.685-3.569
	c0.47-1.497,2.891-2.287,4.379-1.819c1.484,0.472,2.313,2.054,1.845,3.541C161.593,118.756,160.004,119.582,158.522,119.111z
	 M146.502,115.526c-0.794-0.248-1.235-1.093-0.983-1.896c0.245-0.789,1.1-1.235,1.893-0.983c0.789,0.253,1.234,1.099,0.987,1.892
	C148.146,115.334,147.299,115.774,146.502,115.526z M149.693,121.391c-1.24-0.393-1.931-1.717-1.541-2.959
	c0.386-1.239,1.717-1.931,2.957-1.541c1.244,0.391,1.931,1.71,1.535,2.963C152.254,121.093,150.936,121.781,149.693,121.391z
	 M153.23,114.268c-1.241-0.391-1.941-1.715-1.552-2.949c0.395-1.253,1.724-1.935,2.964-1.545c1.244,0.392,1.935,1.716,1.543,2.956
	C155.792,113.975,154.469,114.661,153.23,114.268z M161.712,102.207c-1.551-0.008-3.607-1.068-3.6-2.611
	c0.007-1.558,2.076-3.007,3.627-3.002c1.548,0.012,2.799,1.271,2.79,2.822C164.522,100.968,163.258,102.218,161.712,102.207z
	 M149.194,102.301c-0.832-0.003-1.503-0.682-1.5-1.522c0.003-0.827,0.685-1.502,1.518-1.498c0.831,0.008,1.505,0.685,1.501,1.518
	C150.708,101.632,150.03,102.303,149.194,102.301z M153.975,106.959c-1.3-0.008-2.35-1.068-2.346-2.369
	c0.004-1.3,1.069-2.354,2.372-2.347c1.305,0.005,2.35,1.063,2.343,2.376C156.336,105.918,155.278,106.968,153.975,106.959z
	 M155.252,99.112c-1.303-0.008-2.362-1.066-2.355-2.362c0.01-1.312,1.076-2.356,2.377-2.351c1.307,0.006,2.354,1.068,2.348,2.367
	C157.612,98.075,156.553,99.121,155.252,99.112z M159.636,84.58c-1.467,0.466-3.745,0.089-4.212-1.373
	c-0.469-1.473,1.049-3.473,2.517-3.941c1.466-0.466,3.035,0.343,3.502,1.811C161.913,82.545,161.102,84.116,159.636,84.58z
	 M147.772,88.494c-0.792,0.255-1.64-0.184-1.896-0.982c-0.254-0.788,0.188-1.642,0.982-1.895c0.793-0.251,1.643,0.186,1.897,0.978
	C149.008,87.39,148.569,88.238,147.772,88.494z M153.76,91.451c-1.24,0.394-2.564-0.292-2.965-1.531
	c-0.396-1.236,0.293-2.567,1.533-2.962c1.241-0.399,2.563,0.285,2.962,1.536C155.683,89.732,155.002,91.055,153.76,91.451z
	 M152.551,83.591c-1.24,0.395-2.575-0.284-2.969-1.52c-0.396-1.25,0.294-2.572,1.535-2.968c1.241-0.398,2.566,0.288,2.964,1.526
	C154.476,81.875,153.791,83.198,152.551,83.591z M152.206,68.223c-1.257,0.871-3.539,1.172-4.41-0.079
	c-0.877-1.26-0.009-3.597,1.247-4.471c1.257-0.87,2.983-0.561,3.855,0.695C153.773,65.626,153.462,67.354,152.206,68.223z
	 M142.023,75.412c-0.684,0.477-1.623,0.308-2.103-0.381c-0.476-0.678-0.306-1.623,0.38-2.098c0.683-0.471,1.624-0.306,2.099,0.378
	C142.877,73.993,142.706,74.933,142.023,75.412z M148.613,76.478c-1.069,0.741-2.539,0.477-3.282-0.59
	c-0.746-1.065-0.477-2.539,0.591-3.282c1.07-0.746,2.534-0.48,3.282,0.598C149.945,74.269,149.684,75.735,148.613,76.478z
	 M145.146,69.322c-1.069,0.743-2.546,0.485-3.282-0.58c-0.749-1.077-0.479-2.544,0.591-3.288c1.071-0.745,2.539-0.479,3.281,0.587
	C146.481,67.116,146.213,68.582,145.146,69.322z M141.054,56.031c-0.958,1.184-3.061,2.103-4.238,1.154
	c-1.188-0.958-1.002-3.425-0.048-4.608c0.958-1.18,2.688-1.368,3.869-0.413C141.824,53.119,142.007,54.854,141.054,56.031z
	 M133.285,65.75c-0.524,0.649-1.471,0.75-2.124,0.224c-0.645-0.519-0.748-1.473-0.225-2.121c0.525-0.645,1.475-0.749,2.123-0.227
	C133.707,64.15,133.809,65.099,133.285,65.75z M139.911,64.925c-0.819,1.011-2.302,1.17-3.316,0.354
	c-1.014-0.815-1.173-2.304-0.354-3.316c0.817-1.016,2.299-1.173,3.318-0.348C140.57,62.431,140.729,63.911,139.911,64.925z
	 M134.575,59.028c-0.818,1.015-2.307,1.18-3.313,0.365c-1.02-0.823-1.171-2.31-0.355-3.321c0.818-1.017,2.301-1.173,3.314-0.357
	C135.238,56.536,135.394,58.018,134.575,59.028z M127.326,47.103c-0.593,1.387-2.365,2.84-3.75,2.25
	c-1.395-0.594-1.872-3.003-1.282-4.392c0.595-1.387,2.198-2.035,3.589-1.442C127.272,44.109,127.918,45.718,127.326,47.103z
	 M122.486,58.536c-0.324,0.767-1.21,1.122-1.982,0.796c-0.763-0.324-1.12-1.213-0.794-1.979c0.328-0.763,1.213-1.124,1.979-0.797
	C122.455,56.881,122.811,57.767,122.486,58.536z M128.633,55.934c-0.509,1.196-1.894,1.753-3.091,1.244
	c-1.197-0.506-1.756-1.896-1.246-3.093c0.51-1.2,1.89-1.754,3.097-1.241C128.589,53.354,129.145,54.735,128.633,55.934z
	 M121.892,51.718c-0.51,1.197-1.896,1.763-3.089,1.254c-1.204-0.516-1.757-1.902-1.247-3.099c0.511-1.201,1.896-1.756,3.093-1.249
	C121.849,49.139,122.403,50.522,121.892,51.718z M111.255,42.128c-0.192,1.488-1.506,3.355-2.99,3.167
	c-1.494-0.194-2.587-2.369-2.396-3.859c0.191-1.484,1.554-2.536,3.039-2.344C110.397,39.282,111.448,40.646,111.255,42.128z
	 M109.67,54.418c-0.105,0.827-0.86,1.409-1.692,1.304c-0.822-0.106-1.409-0.863-1.302-1.69c0.108-0.824,0.863-1.411,1.688-1.303
	C109.192,52.833,109.773,53.59,109.67,54.418z M114.881,50.245c-0.166,1.291-1.35,2.203-2.639,2.04
	c-1.291-0.165-2.204-1.35-2.038-2.641c0.165-1.294,1.346-2.205,2.643-2.034C114.138,47.772,115.049,48.953,114.881,50.245z
	 M107.248,48.019c-0.165,1.29-1.348,2.21-2.632,2.043c-1.302-0.17-2.207-1.354-2.042-2.645c0.167-1.294,1.348-2.204,2.638-2.04
	C106.507,45.545,107.416,46.728,107.248,48.019z M93.983,41.792c0.227,1.471-0.524,3.625-1.992,3.853
	c-1.478,0.228-3.112-1.557-3.341-3.031c-0.225-1.472,0.782-2.848,2.257-3.075C92.381,39.311,93.758,40.322,93.983,41.792z
	 M95.831,54.018c0.127,0.826-0.435,1.593-1.265,1.722c-0.817,0.128-1.592-0.438-1.721-1.262c-0.123-0.823,0.439-1.595,1.265-1.723
	C94.933,52.629,95.702,53.194,95.831,54.018z M99.682,48.565c0.198,1.286-0.685,2.49-1.971,2.69
	c-1.287,0.201-2.491-0.685-2.69-1.972c-0.198-1.289,0.683-2.492,1.976-2.687C98.282,46.396,99.483,47.277,99.682,48.565z
	 M91.73,48.54c0.198,1.286-0.681,2.497-1.963,2.693c-1.296,0.197-2.494-0.688-2.693-1.974c-0.201-1.29,0.682-2.493,1.969-2.692
	C90.335,46.372,91.534,47.254,91.73,48.54z M76.768,46.431c0.632,1.338,0.519,3.608-0.814,4.242
	c-1.344,0.633-3.398-0.611-4.031-1.948c-0.63-1.337-0.061-2.936,1.277-3.567C74.538,44.522,76.137,45.094,76.768,46.431z
	 M81.981,57.615c0.358,0.754,0.038,1.652-0.719,2.011c-0.749,0.357-1.653,0.033-2.01-0.72c-0.354-0.753-0.035-1.653,0.718-2.009
	C80.725,56.54,81.623,56.861,81.981,57.615z M84.119,51.291c0.557,1.176,0.055,2.581-1.123,3.139
	c-1.177,0.559-2.584,0.055-3.14-1.123c-0.559-1.177-0.057-2.583,1.128-3.139C82.157,49.609,83.563,50.112,84.119,51.291z
	 M76.49,53.533c0.556,1.177,0.059,2.587-1.114,3.141c-1.184,0.558-2.587,0.052-3.143-1.125c-0.56-1.178-0.057-2.583,1.12-3.139
	C74.532,51.853,75.936,52.355,76.49,53.533z M62.061,55.599c0.979,1.094,1.51,3.299,0.42,4.281
	c-1.098,0.981-3.401,0.366-4.383-0.728c-0.979-1.095-0.889-2.776,0.206-3.758C59.398,54.411,61.082,54.505,62.061,55.599z
	 M70.204,64.837c0.557,0.62,0.506,1.573-0.116,2.132c-0.618,0.555-1.576,0.502-2.132-0.118c-0.553-0.619-0.504-1.574,0.117-2.131
	C68.693,64.165,69.647,64.216,70.204,64.837z M70.451,58.165c0.869,0.969,0.788,2.458-0.181,3.33c-0.97,0.87-2.46,0.786-3.331-0.183
	c-0.87-0.971-0.789-2.459,0.188-3.331C68.095,57.114,69.583,57.195,70.451,58.165z M63.779,62.487
	c0.868,0.97,0.792,2.464-0.178,3.329c-0.974,0.872-2.462,0.787-3.332-0.181c-0.87-0.973-0.788-2.46,0.181-3.331
	C61.423,61.435,62.91,61.516,63.779,62.487z M51.453,68.084c1.235,0.775,2.348,2.745,1.577,3.979
	c-0.779,1.24-3.145,1.277-4.384,0.501c-1.235-0.776-1.611-2.407-0.835-3.643C48.583,67.684,50.218,67.309,51.453,68.084z
	 M61.799,74.72c0.706,0.443,0.923,1.373,0.477,2.081c-0.44,0.705-1.374,0.918-2.081,0.477c-0.703-0.444-0.922-1.374-0.478-2.08
	C60.158,74.493,61.091,74.279,61.799,74.72z M60.188,68.241c1.102,0.691,1.437,2.145,0.747,3.25
	c-0.69,1.104-2.147,1.438-3.251,0.747c-1.105-0.69-1.438-2.144-0.742-3.253C57.631,67.883,59.085,67.549,60.188,68.241z
	 M54.974,74.242c1.102,0.691,1.443,2.147,0.752,3.247c-0.695,1.108-2.151,1.44-3.254,0.748c-1.104-0.692-1.438-2.146-0.749-3.249
	C52.417,73.881,53.871,73.549,54.974,74.242z M43.916,82.601c1.392,0.407,2.986,2.004,2.584,3.392
	c-0.413,1.396-2.667,2.055-4.059,1.647c-1.39-0.409-2.189-1.866-1.779-3.257C41.067,82.989,42.526,82.192,43.916,82.601z
	 M55.642,86.207c0.799,0.234,1.26,1.069,1.022,1.872c-0.23,0.797-1.071,1.258-1.871,1.024c-0.799-0.237-1.26-1.073-1.024-1.874
	C54.003,86.432,54.84,85.972,55.642,86.207z M52.335,80.405c1.249,0.367,1.965,1.675,1.601,2.926
	c-0.364,1.248-1.676,1.966-2.927,1.6c-1.25-0.366-1.966-1.674-1.599-2.929C49.775,80.755,51.084,80.04,52.335,80.405z
	 M48.942,87.597c1.249,0.365,1.969,1.675,1.605,2.922c-0.369,1.255-1.68,1.967-2.928,1.601c-1.253-0.365-1.969-1.674-1.604-2.924
	C46.386,87.943,47.693,87.229,48.942,87.597z M40.903,99.398c1.438,0.012,3.401,1.114,3.393,2.553
	c-0.014,1.44-1.995,2.673-3.435,2.662c-1.438-0.015-2.596-1.19-2.585-2.63C38.287,100.543,39.465,99.385,40.903,99.398z
	 M53.143,99.697c0.834,0.006,1.505,0.686,1.496,1.523c-0.004,0.831-0.688,1.501-1.521,1.496c-0.833-0.009-1.505-0.688-1.498-1.522
	C51.628,100.362,52.309,99.691,53.143,99.697z M48.38,95.02c1.3,0.011,2.346,1.075,2.336,2.377
	c-0.009,1.302-1.075,2.348-2.379,2.338c-1.303-0.01-2.348-1.073-2.335-2.38C46.011,96.055,47.073,95.008,48.38,95.02z
	 M47.077,102.863c1.303,0.011,2.351,1.073,2.343,2.373c-0.017,1.308-1.079,2.35-2.381,2.34c-1.304-0.011-2.35-1.073-2.34-2.376
	C44.711,103.894,45.776,102.85,47.077,102.863z M42.641,116.738c1.375-0.391,3.561,0.122,3.955,1.494
	c0.387,1.38-1.164,3.096-2.541,3.488c-1.376,0.388-2.807-0.411-3.197-1.787C40.466,118.558,41.268,117.125,42.641,116.738z
	 M54.455,113.624c0.803-0.228,1.637,0.237,1.864,1.039c0.229,0.8-0.239,1.635-1.041,1.865c-0.8,0.227-1.637-0.238-1.864-1.042
	C53.188,114.688,53.653,113.852,54.455,113.624z M48.569,110.474c1.252-0.357,2.555,0.372,2.911,1.623
	c0.358,1.253-0.371,2.557-1.625,2.913c-1.254,0.357-2.557-0.37-2.911-1.627C46.588,112.131,47.315,110.827,48.569,110.474z
	 M49.524,118.366c1.252-0.355,2.558,0.37,2.913,1.62c0.352,1.258-0.373,2.561-1.627,2.913c-1.254,0.361-2.557-0.369-2.912-1.622
	C47.543,120.021,48.272,118.719,49.524,118.366z M49.464,133.508c1.195-0.767,3.431-0.901,4.197,0.29
	c0.768,1.198-0.226,3.27-1.421,4.038c-1.195,0.764-2.785,0.418-3.552-0.778C47.922,135.865,48.271,134.275,49.464,133.508z
	 M59.865,127.145c0.703-0.449,1.636-0.246,2.086,0.457c0.449,0.699,0.244,1.635-0.457,2.084c-0.7,0.448-1.635,0.247-2.084-0.456
	C58.96,128.532,59.164,127.598,59.865,127.145z M53.319,125.835c1.095-0.703,2.552-0.386,3.258,0.711
	c0.704,1.097,0.385,2.554-0.713,3.26c-1.097,0.702-2.554,0.385-3.258-0.716C51.902,127.997,52.221,126.54,53.319,125.835z
	 M56.521,133.113c1.096-0.703,2.554-0.386,3.256,0.709c0.704,1.1,0.384,2.555-0.712,3.258c-1.097,0.703-2.553,0.388-3.257-0.709
	C55.105,135.272,55.424,133.815,56.521,133.113z M60.291,146.357c0.904-1.081,2.994-1.871,4.077-0.971
	c1.082,0.906,0.744,3.163-0.159,4.243c-0.906,1.082-2.515,1.226-3.595,0.319C59.53,149.046,59.39,147.436,60.291,146.357z
	 M68.323,137.212c0.534-0.641,1.484-0.725,2.125-0.189c0.638,0.532,0.723,1.485,0.189,2.127c-0.535,0.636-1.487,0.725-2.127,0.188
	C67.875,138.805,67.788,137.854,68.323,137.212z M61.685,137.921c0.834-0.999,2.32-1.132,3.319-0.297
	c1,0.836,1.132,2.323,0.298,3.323c-0.838,0.997-2.322,1.132-3.323,0.293C60.981,140.408,60.847,138.92,61.685,137.921z
	 M66.914,143.907c0.838-0.998,2.323-1.132,3.321-0.299c1.001,0.84,1.132,2.325,0.295,3.322c-0.836,1.001-2.319,1.135-3.321,0.299
	C66.211,146.391,66.079,144.904,66.914,143.907z M73.782,155.311c0.542-1.29,2.308-2.652,3.597-2.115
	c1.291,0.544,1.62,2.783,1.078,4.076c-0.543,1.289-2.026,1.896-3.317,1.355C73.848,158.088,73.243,156.601,73.782,155.311z
	 M78.78,144.241c0.323-0.768,1.204-1.131,1.975-0.808c0.767,0.322,1.131,1.207,0.808,1.978c-0.325,0.767-1.208,1.131-1.976,0.807
	C78.819,145.896,78.455,145.01,78.78,144.241z M72.645,146.875c0.503-1.2,1.884-1.766,3.085-1.261
	c1.204,0.502,1.767,1.883,1.264,3.086c-0.503,1.202-1.886,1.767-3.087,1.26C72.707,149.459,72.141,148.078,72.645,146.875z
	 M79.41,151.053c0.503-1.199,1.883-1.768,3.083-1.265c1.202,0.507,1.767,1.888,1.263,3.088c-0.505,1.202-1.885,1.768-3.087,1.264
	C79.468,153.636,78.904,152.253,79.41,151.053z M89.686,160.099c0.149-1.382,1.458-3.181,2.838-3.03
	c1.382,0.152,2.315,2.195,2.164,3.578c-0.153,1.381-1.396,2.377-2.776,2.225C90.531,162.723,89.533,161.48,89.686,160.099z
	 M91.362,148.094c0.089-0.828,0.834-1.427,1.665-1.336c0.825,0.09,1.425,0.837,1.334,1.665c-0.092,0.828-0.835,1.427-1.667,1.336
	C91.87,149.668,91.27,148.922,91.362,148.094z M86.228,152.362c0.142-1.294,1.304-2.226,2.6-2.086
	c1.297,0.141,2.229,1.305,2.087,2.602c-0.141,1.295-1.306,2.229-2.601,2.086C87.019,154.823,86.084,153.658,86.228,152.362z
	 M93.899,154.447c0.143-1.294,1.305-2.23,2.599-2.089c1.297,0.144,2.231,1.308,2.087,2.602c-0.141,1.297-1.306,2.23-2.6,2.09
	C94.688,156.905,93.757,155.742,93.899,154.447z M106.893,160.141c-0.231-1.357,0.537-3.44,1.896-3.673
	c1.36-0.23,2.799,1.475,3.029,2.837c0.229,1.361-0.685,2.649-2.048,2.88C108.412,162.418,107.123,161.502,106.893,160.141z
	 M105.254,148.157c-0.142-0.822,0.411-1.602,1.232-1.74c0.821-0.141,1.601,0.413,1.742,1.235c0.14,0.821-0.413,1.602-1.237,1.739
	C106.174,149.532,105.392,148.978,105.254,148.157z M103.809,150.916c1.302,0,2.358,1.056,2.358,2.358s-1.056,2.358-2.358,2.358
	s-2.358-1.056-2.358-2.358S102.507,150.916,103.809,150.916z M109.434,153.571c-0.219-1.283,0.644-2.502,1.929-2.72
	c1.283-0.218,2.504,0.645,2.717,1.93c0.222,1.286-0.642,2.502-1.929,2.722C110.867,155.718,109.648,154.855,109.434,153.571z
	 M124.156,155.343c-0.582-1.239-0.386-3.445,0.853-4.026c1.243-0.579,3.059,0.685,3.64,1.927c0.578,1.239,0.044,2.716-1.199,3.294
	C126.212,157.121,124.736,156.583,124.156,155.343z M119.428,144.234c-0.354-0.756-0.03-1.651,0.725-2.004
	c0.757-0.355,1.655-0.029,2.009,0.727c0.352,0.754,0.026,1.653-0.729,2.007C120.679,145.316,119.779,144.991,119.428,144.234z
	 M117.26,150.549c-0.554-1.178-0.044-2.581,1.136-3.134c1.182-0.553,2.582-0.044,3.137,1.138c0.551,1.18,0.042,2.583-1.14,3.134
	C119.213,152.24,117.81,151.733,117.26,150.549z M127.031,144.986c1.302,0,2.357,1.055,2.357,2.357s-1.055,2.357-2.357,2.357
	s-2.357-1.055-2.357-2.357S125.729,144.986,127.031,144.986z M128.792,132.42c-0.762-0.842-1.219-2.461-0.369-3.225
	c0.849-0.764,2.667-0.387,3.432,0.461c0.762,0.845,0.699,2.147-0.147,2.914C130.856,133.332,129.561,133.268,128.792,132.42z
	 M122.572,125.81c-0.397-0.448-0.368-1.138,0.079-1.543c0.444-0.399,1.136-0.364,1.533,0.083c0.405,0.443,0.371,1.132-0.067,1.534
	C123.665,126.286,122.975,126.251,122.572,125.81z M122.411,130.621c-0.623-0.699-0.567-1.776,0.123-2.401
	c0.696-0.634,1.773-0.574,2.408,0.118c0.626,0.696,0.577,1.773-0.128,2.405C124.118,131.372,123.042,131.317,122.411,130.621z
	 M127.215,127.484c-0.627-0.696-0.582-1.772,0.116-2.403c0.7-0.628,1.772-0.572,2.407,0.121c0.63,0.695,0.573,1.773-0.124,2.403
	C128.915,128.235,127.847,128.18,127.215,127.484z M136.641,123.34c-0.942-0.62-1.787-2.07-1.165-3.017
	c0.625-0.947,2.469-1.034,3.416-0.411c0.943,0.621,1.214,1.893,0.591,2.839C138.858,123.7,137.592,123.961,136.641,123.34z
	 M128.981,118.505c-0.5-0.33-0.645-1.009-0.313-1.512c0.325-0.499,1.003-0.636,1.503-0.307c0.502,0.329,0.648,1.004,0.322,1.5
	C130.162,118.692,129.479,118.835,128.981,118.505z M130.04,123.2c-0.782-0.517-0.999-1.574-0.487-2.355
	c0.514-0.788,1.573-1.006,2.358-0.493c0.783,0.515,1.007,1.569,0.485,2.36C131.881,123.495,130.825,123.716,130.04,123.2z
	 M133.896,118.951c-0.785-0.513-1.009-1.569-0.496-2.354c0.52-0.786,1.573-1.005,2.359-0.493c0.788,0.514,1.005,1.572,0.489,2.356
	C135.731,119.249,134.679,119.466,133.896,118.951z M142.305,112.888c-1.071-0.336-2.271-1.501-1.93-2.578
	c0.341-1.074,2.08-1.647,3.154-1.309c1.07,0.339,1.672,1.481,1.333,2.555C144.522,112.631,143.382,113.223,142.305,112.888z
	 M133.642,110.305c-0.572-0.183-0.893-0.795-0.713-1.371c0.178-0.569,0.794-0.886,1.364-0.705c0.572,0.181,0.896,0.79,0.719,1.357
	C134.828,110.164,134.212,110.485,133.642,110.305z M135.94,114.533c-0.895-0.283-1.391-1.242-1.111-2.132
	c0.281-0.9,1.239-1.394,2.135-1.115c0.895,0.282,1.395,1.235,1.109,2.136C137.792,114.316,136.836,114.816,135.94,114.533z
	 M138.494,109.396c-0.895-0.283-1.402-1.234-1.117-2.13c0.285-0.896,1.237-1.395,2.134-1.115c0.898,0.278,1.394,1.239,1.112,2.134
	C140.341,109.183,139.388,109.677,138.494,109.396z M144.605,100.7c-1.115-0.007-2.599-0.768-2.592-1.888
	c0.008-1.12,1.496-2.167,2.614-2.162c1.115,0.008,2.021,0.916,2.014,2.035C146.636,99.806,145.727,100.702,144.605,100.7z
	 M135.583,100.768c-0.598-0.005-1.089-0.497-1.085-1.101c0.004-0.596,0.496-1.079,1.096-1.076c0.6,0.003,1.088,0.489,1.087,1.084
	C136.677,100.281,136.182,100.771,135.583,100.768z M139.027,104.128c-0.936-0.008-1.693-0.775-1.69-1.71
	c0.004-0.94,0.772-1.699,1.711-1.695c0.938,0.003,1.696,0.768,1.691,1.713C140.733,103.375,139.968,104.132,139.027,104.128z
	 M139.949,98.466c-0.937-0.005-1.7-0.766-1.694-1.706c0.007-0.94,0.771-1.697,1.709-1.696c0.94,0.003,1.698,0.772,1.692,1.711
	C141.651,97.717,140.889,98.469,139.949,98.466z M143.109,87.986c-1.055,0.337-2.696,0.066-3.033-0.993
	c-0.336-1.062,0.755-2.503,1.814-2.837c1.055-0.336,2.189,0.243,2.526,1.304C144.754,86.519,144.171,87.645,143.109,87.986z
	 M134.562,90.809c-0.572,0.182-1.189-0.136-1.374-0.71c-0.183-0.567,0.141-1.181,0.711-1.362c0.57-0.182,1.188,0.13,1.367,0.698
	C135.449,90.01,135.13,90.628,134.562,90.809z M138.874,92.943c-0.893,0.283-1.85-0.216-2.137-1.105
	c-0.286-0.896,0.211-1.856,1.102-2.141c0.895-0.287,1.852,0.207,2.138,1.107C140.262,91.699,139.771,92.659,138.874,92.943z
	 M138.003,87.273c-0.895,0.285-1.855-0.205-2.14-1.1c-0.283-0.897,0.209-1.852,1.104-2.14c0.896-0.287,1.853,0.208,2.138,1.103
	C139.39,86.035,138.897,86.99,138.003,87.273z M137.754,76.19c-0.905,0.63-2.551,0.85-3.181-0.061
	c-0.629-0.909-0.005-2.591,0.902-3.219c0.905-0.629,2.148-0.409,2.781,0.498C138.885,74.317,138.659,75.558,137.754,76.19z
	 M130.413,81.374c-0.494,0.341-1.177,0.219-1.521-0.275c-0.342-0.491-0.215-1.17,0.277-1.512c0.492-0.342,1.174-0.225,1.512,0.265
	C131.026,80.349,130.903,81.033,130.413,81.374z M135.163,82.144c-0.773,0.534-1.832,0.34-2.366-0.427
	c-0.539-0.771-0.345-1.832,0.425-2.37c0.769-0.536,1.83-0.346,2.37,0.431C136.123,80.548,135.936,81.607,135.163,82.144z
	 M132.662,76.983c-0.771,0.533-1.831,0.351-2.367-0.423c-0.536-0.772-0.343-1.83,0.426-2.37c0.77-0.536,1.83-0.344,2.367,0.425
	C133.624,75.389,133.433,76.446,132.662,76.983z M129.711,67.4c-0.688,0.852-2.204,1.519-3.058,0.826
	c-0.852-0.688-0.72-2.467-0.029-3.32c0.689-0.85,1.938-0.987,2.79-0.297C130.267,65.301,130.398,66.545,129.711,67.4z
	 M124.112,74.407c-0.377,0.466-1.067,0.541-1.534,0.163c-0.466-0.375-0.536-1.063-0.16-1.528c0.379-0.467,1.064-0.546,1.527-0.17
	C124.415,73.25,124.49,73.942,124.112,74.407z M128.888,73.812c-0.591,0.729-1.662,0.842-2.391,0.255
	c-0.732-0.589-0.846-1.663-0.257-2.394c0.588-0.732,1.66-0.849,2.395-0.252C129.366,72.01,129.479,73.082,128.888,73.812z
	 M125.04,69.56c-0.591,0.728-1.659,0.85-2.392,0.259c-0.729-0.593-0.845-1.662-0.256-2.393c0.589-0.734,1.661-0.846,2.391-0.256
	C125.517,67.761,125.629,68.829,125.04,69.56z M119.813,60.961c-0.426,0.999-1.703,2.046-2.707,1.62
	c-1.002-0.43-1.347-2.166-0.92-3.166c0.428-1,1.583-1.468,2.587-1.041C119.774,58.803,120.239,59.957,119.813,60.961z
	 M116.326,69.204c-0.236,0.552-0.879,0.811-1.434,0.575c-0.549-0.234-0.806-0.875-0.571-1.427c0.238-0.553,0.875-0.815,1.424-0.58
	C116.302,68.01,116.56,68.654,116.326,69.204z M120.759,67.33c-0.371,0.861-1.37,1.263-2.232,0.896
	c-0.864-0.367-1.265-1.368-0.901-2.231c0.37-0.863,1.367-1.271,2.235-0.896C120.723,65.465,121.128,66.464,120.759,67.33z
	 M115.896,64.289c-0.368,0.862-1.364,1.27-2.23,0.902c-0.864-0.371-1.265-1.369-0.901-2.234c0.368-0.864,1.368-1.265,2.23-0.898
	C115.862,62.427,116.264,63.424,115.896,64.289z M108.223,57.374c-0.138,1.071-1.084,2.42-2.156,2.281
	c-1.075-0.139-1.866-1.708-1.727-2.782c0.138-1.071,1.118-1.83,2.191-1.692C107.605,55.322,108.361,56.299,108.223,57.374z
	 M107.081,66.233c-0.077,0.596-0.627,1.02-1.222,0.943c-0.595-0.075-1.013-0.623-0.938-1.219c0.078-0.593,0.621-1.02,1.214-0.943
	C106.733,65.091,107.157,65.641,107.081,66.233z M110.84,63.226c-0.123,0.931-0.976,1.59-1.905,1.47
	c-0.933-0.119-1.589-0.974-1.471-1.904c0.121-0.931,0.97-1.593,1.905-1.47C110.3,61.442,110.959,62.294,110.84,63.226z
	 M105.335,61.62c-0.122,0.93-0.971,1.592-1.901,1.472c-0.933-0.121-1.59-0.973-1.473-1.904c0.118-0.932,0.974-1.591,1.903-1.471
	C104.798,59.836,105.453,60.688,105.335,61.62z M95.77,57.131c0.163,1.061-0.377,2.613-1.439,2.775
	c-1.065,0.163-2.244-1.121-2.407-2.184c-0.164-1.061,0.564-2.054,1.625-2.22C94.613,55.342,95.605,56.068,95.77,57.131z
	 M97.102,65.946c0.091,0.594-0.318,1.152-0.912,1.244c-0.591,0.092-1.146-0.319-1.238-0.912c-0.09-0.594,0.313-1.152,0.905-1.243
	C96.452,64.944,97.013,65.354,97.102,65.946z M98.198,60.571c0.94,0,1.702,0.762,1.702,1.702s-0.762,1.702-1.702,1.702
	s-1.702-0.762-1.702-1.702S97.258,60.571,98.198,60.571z M94.145,61.996c0.143,0.927-0.49,1.798-1.419,1.943
	c-0.929,0.141-1.797-0.496-1.942-1.422c-0.144-0.929,0.493-1.798,1.422-1.941C93.136,60.434,94.001,61.068,94.145,61.996z
	 M83.354,60.476c0.455,0.964,0.376,2.602-0.59,3.058c-0.966,0.457-2.448-0.439-2.903-1.405c-0.456-0.965-0.045-2.116,0.919-2.573
	C81.744,59.1,82.895,59.512,83.354,60.476z M87.114,68.539c0.255,0.544,0.023,1.196-0.52,1.454c-0.542,0.256-1.189,0.02-1.448-0.522
	c-0.255-0.543-0.028-1.192,0.514-1.449C86.205,67.765,86.859,67.997,87.114,68.539z M88.657,63.979
	c0.399,0.849,0.033,1.863-0.812,2.264c-0.849,0.404-1.862,0.039-2.266-0.809c-0.403-0.849-0.043-1.864,0.812-2.264
	C87.24,62.767,88.253,63.129,88.657,63.979z M83.154,65.596c0.399,0.848,0.041,1.863-0.808,2.265
	c-0.851,0.401-1.861,0.038-2.268-0.809c-0.4-0.848-0.038-1.863,0.81-2.265C81.741,64.384,82.752,64.747,83.154,65.596z
	 M72.746,67.088c0.709,0.788,1.093,2.378,0.303,3.084c-0.79,0.708-2.452,0.266-3.159-0.524c-0.706-0.789-0.642-2.001,0.147-2.709
	C70.829,66.232,72.038,66.299,72.746,67.088z M78.62,73.748c0.4,0.448,0.361,1.139-0.085,1.541C78.09,75.687,77.399,75.649,77,75.2
	c-0.398-0.447-0.365-1.135,0.08-1.533C77.53,73.263,78.222,73.301,78.62,73.748z M78.799,68.937c0.624,0.7,0.565,1.776-0.13,2.401
	c-0.7,0.628-1.774,0.566-2.404-0.13c-0.625-0.699-0.569-1.776,0.134-2.403C77.096,68.18,78.174,68.237,78.799,68.937z
	 M73.984,72.055c0.627,0.698,0.574,1.773-0.125,2.401c-0.703,0.626-1.776,0.566-2.404-0.13c-0.629-0.701-0.569-1.776,0.132-2.401
	C72.286,71.296,73.359,71.355,73.984,72.055z M65.099,76.092c0.892,0.558,1.695,1.977,1.135,2.869
	c-0.56,0.894-2.266,0.92-3.158,0.361c-0.891-0.561-1.163-1.733-0.604-2.627C63.033,75.802,64.206,75.534,65.099,76.092z
	 M72.56,80.874c0.509,0.319,0.663,0.994,0.345,1.504c-0.317,0.507-0.991,0.661-1.5,0.342c-0.508-0.319-0.666-0.99-0.347-1.498
	C71.376,80.714,72.051,80.555,72.56,80.874z M71.399,76.203c0.793,0.5,1.035,1.55,0.538,2.344c-0.497,0.797-1.548,1.036-2.344,0.539
	c-0.797-0.497-1.04-1.546-0.538-2.345C69.553,75.946,70.602,75.704,71.399,76.203z M67.638,80.531
	c0.793,0.499,1.038,1.547,0.541,2.343c-0.501,0.796-1.55,1.036-2.345,0.539c-0.797-0.498-1.039-1.548-0.539-2.343
	C65.794,80.273,66.84,80.032,67.638,80.531z M59.664,86.561c1.004,0.293,2.154,1.443,1.858,2.446
	c-0.295,1.005-1.92,1.481-2.923,1.185c-1.002-0.294-1.577-1.342-1.285-2.347C57.611,86.839,58.66,86.267,59.664,86.561z
	 M68.12,89.157c0.575,0.17,0.905,0.777,0.737,1.354c-0.169,0.574-0.774,0.906-1.35,0.735c-0.576-0.169-0.91-0.771-0.741-1.347
	C66.937,89.323,67.544,88.989,68.12,89.157z M65.256,84.908c0.939,0,1.701,0.762,1.701,1.701s-0.762,1.701-1.701,1.701
	s-1.701-0.762-1.701-1.701S64.317,84.908,65.256,84.908z M63.286,90.161c0.901,0.265,1.421,1.208,1.157,2.109
	c-0.266,0.902-1.209,1.418-2.111,1.154c-0.9-0.263-1.418-1.207-1.152-2.107C61.443,90.413,62.387,89.899,63.286,90.161z
	 M57.489,98.673c1.039,0.007,2.454,0.801,2.444,1.842c-0.009,1.039-1.437,1.925-2.473,1.916c-1.038-0.008-1.875-0.856-1.866-1.894
	C55.605,99.497,56.452,98.665,57.489,98.673z M66.307,98.887c0.601,0,1.088,0.487,1.088,1.088s-0.487,1.088-1.088,1.088
	s-1.088-0.487-1.088-1.088S65.706,98.887,66.307,98.887z M62.866,95.515c0.939,0,1.701,0.762,1.701,1.701s-0.762,1.701-1.701,1.701
	s-1.701-0.762-1.701-1.701S61.927,95.515,62.866,95.515z M61.943,101.171c0.937,0.008,1.694,0.774,1.688,1.714
	c-0.01,0.938-0.777,1.691-1.715,1.687c-0.939-0.008-1.697-0.775-1.687-1.714C60.236,101.915,61.004,101.163,61.943,101.171z
	 M58.744,111.177c0.99-0.282,2.566,0.086,2.847,1.079c0.284,0.993-0.835,2.23-1.829,2.512c-0.992,0.281-2.023-0.295-2.305-1.287
	C57.177,112.489,57.752,111.459,58.744,111.177z M67.264,108.93c0.575-0.163,1.18,0.176,1.345,0.753
	c0.162,0.575-0.175,1.178-0.752,1.341c-0.578,0.163-1.18-0.171-1.344-0.748C66.351,109.7,66.686,109.093,67.264,108.93z
	 M63.018,106.658c0.903-0.256,1.845,0.269,2.102,1.173c0.256,0.903-0.27,1.843-1.172,2.1c-0.904,0.256-1.846-0.266-2.102-1.174
	C61.59,107.856,62.112,106.914,63.018,106.658z M63.706,112.351c0.903-0.256,1.844,0.266,2.102,1.172
	c0.257,0.903-0.269,1.843-1.172,2.1c-0.903,0.256-1.846-0.269-2.101-1.17C62.28,113.545,62.803,112.607,63.706,112.351z
	 M63.662,123.271c0.862-0.553,2.474-0.652,3.027,0.21c0.553,0.861-0.164,2.357-1.023,2.91c-0.863,0.552-2.011,0.301-2.562-0.561
	C62.551,124.967,62.803,123.824,63.662,123.271z M71.162,118.681c0.506-0.325,1.183-0.176,1.507,0.329
	c0.32,0.505,0.176,1.18-0.331,1.503c-0.506,0.323-1.177,0.179-1.503-0.325C70.513,119.68,70.658,119.004,71.162,118.681z
	 M67.36,117.467c0.939,0,1.701,0.762,1.701,1.701s-0.762,1.701-1.701,1.701s-1.701-0.762-1.701-1.701S66.421,117.467,67.36,117.467z
	 M68.75,122.985c0.791-0.508,1.843-0.277,2.351,0.513c0.508,0.79,0.278,1.842-0.512,2.349c-0.792,0.508-1.845,0.279-2.349-0.512
	C67.732,124.541,67.961,123.493,68.75,122.985z M71.474,132.535c0.65-0.779,2.158-1.351,2.938-0.696
	c0.78,0.653,0.538,2.278-0.116,3.058c-0.652,0.779-1.813,0.883-2.591,0.232C70.925,134.475,70.82,133.314,71.474,132.535z
	 M77.262,125.94c0.385-0.459,1.075-0.52,1.534-0.133c0.46,0.382,0.523,1.07,0.137,1.531c-0.385,0.459-1.071,0.523-1.533,0.137
	C76.94,127.089,76.876,126.401,77.262,125.94z M73.78,125.843c0.939,0,1.7,0.761,1.7,1.7c0,0.939-0.761,1.7-1.7,1.7
	s-1.7-0.761-1.7-1.7C72.08,126.604,72.841,125.843,73.78,125.843z M77.553,130.159c0.939,0,1.701,0.762,1.701,1.701
	s-0.762,1.701-1.701,1.701s-1.701-0.762-1.701-1.701S76.614,130.159,77.553,130.159z M81.201,138.993
	c0.39-0.932,1.662-1.913,2.593-1.523c0.932,0.392,1.168,2.007,0.775,2.937c-0.391,0.932-1.46,1.369-2.391,0.979
	C81.249,140.994,80.81,139.922,81.201,138.993z M85.806,130.341c0.601,0,1.089,0.488,1.089,1.089s-0.488,1.089-1.089,1.089
	s-1.089-0.488-1.089-1.089S85.205,130.341,85.806,130.341z M80.38,132.911c0.361-0.865,1.359-1.275,2.225-0.912
	c0.866,0.363,1.275,1.36,0.91,2.228c-0.363,0.864-1.358,1.274-2.227,0.909C80.424,134.773,80.016,133.776,80.38,132.911z
	 M85.257,135.921c0.364-0.865,1.358-1.273,2.227-0.91c0.866,0.363,1.272,1.359,0.91,2.227c-0.365,0.865-1.36,1.275-2.224,0.909
	C85.301,137.783,84.895,136.788,85.257,135.921z M92.67,142.446c0.108-0.997,1.052-2.295,2.047-2.185
	c0.997,0.109,1.671,1.583,1.559,2.578c-0.108,0.997-1.004,1.716-2,1.605C93.279,144.336,92.561,143.441,92.67,142.446z
	 M93.876,133.788c0.066-0.598,0.607-1.028,1.203-0.964c0.595,0.066,1.029,0.605,0.963,1.201c-0.066,0.597-0.602,1.029-1.2,0.964
	C94.244,134.921,93.811,134.384,93.876,133.788z M90.178,136.866c0.1-0.933,0.94-1.606,1.872-1.504
	c0.936,0.102,1.608,0.941,1.507,1.873c-0.101,0.934-0.939,1.611-1.876,1.507C90.747,138.64,90.072,137.8,90.178,136.866z
	 M97.398,136.853c0.939,0,1.701,0.762,1.701,1.701s-0.762,1.701-1.701,1.701s-1.701-0.762-1.701-1.701
	S96.459,136.853,97.398,136.853z M105.078,142.479c-0.168-0.982,0.389-2.485,1.367-2.648c0.98-0.167,2.019,1.063,2.184,2.043
	c0.165,0.982-0.492,1.911-1.475,2.078C106.175,144.118,105.243,143.456,105.078,142.479z M104.967,132.562
	c0.601,0,1.089,0.488,1.089,1.089s-0.488,1.089-1.089,1.089s-1.089-0.488-1.089-1.089S104.366,132.562,104.967,132.562z
	 M102.854,135.823c0.939,0,1.701,0.762,1.701,1.701s-0.762,1.701-1.701,1.701s-1.701-0.762-1.701-1.701
	S101.915,135.823,102.854,135.823z M108.585,135.752c0.939,0,1.701,0.762,1.701,1.701s-0.762,1.701-1.701,1.701
	s-1.701-0.762-1.701-1.701S107.646,135.752,108.585,135.752z M117.527,139.017c-0.42-0.896-0.278-2.485,0.616-2.901
	c0.894-0.42,2.203,0.491,2.621,1.386s0.032,1.959-0.861,2.377C119.011,140.297,117.945,139.911,117.527,139.017z M114.114,131.006
	c-0.251-0.545-0.017-1.193,0.526-1.447c0.544-0.254,1.195-0.02,1.447,0.524c0.255,0.545,0.021,1.192-0.526,1.446
	C115.02,131.785,114.371,131.549,114.114,131.006z M112.554,135.56c-0.398-0.849-0.033-1.863,0.821-2.262
	c0.851-0.396,1.86-0.028,2.258,0.819c0.397,0.854,0.033,1.865-0.819,2.263C113.963,136.779,112.951,136.413,112.554,135.56z
	 M119.6,131.548c0.939,0,1.7,0.761,1.7,1.7s-0.761,1.7-1.7,1.7s-1.7-0.761-1.7-1.7S118.661,131.548,119.6,131.548z M120.617,123.661
	c-0.535-0.589-0.853-1.719-0.257-2.254c0.587-0.529,1.86-0.268,2.393,0.324c0.531,0.59,0.49,1.5-0.105,2.036
	C122.055,124.3,121.148,124.25,120.617,123.661z M116.274,119.047c-0.279-0.315-0.254-0.797,0.056-1.078
	c0.308-0.281,0.793-0.255,1.072,0.056c0.283,0.312,0.256,0.795-0.056,1.076C117.034,119.381,116.56,119.357,116.274,119.047z
	 M116.168,122.403c-0.442-0.483-0.404-1.234,0.082-1.674c0.487-0.443,1.234-0.402,1.677,0.084c0.439,0.484,0.401,1.235-0.086,1.674
	C117.357,122.927,116.604,122.891,116.168,122.403z M119.517,120.213c-0.445-0.484-0.403-1.234,0.081-1.674
	c0.486-0.437,1.236-0.399,1.678,0.083c0.436,0.488,0.402,1.237-0.088,1.679C120.704,120.739,119.953,120.702,119.517,120.213z
	 M126.094,117.324c-0.659-0.43-1.248-1.445-0.812-2.107c0.433-0.659,1.722-0.721,2.382-0.285c0.658,0.436,0.846,1.32,0.409,1.982
	C127.638,117.576,126.753,117.757,126.094,117.324z M121.163,112.553c0.42,0,0.761,0.341,0.761,0.761s-0.341,0.761-0.761,0.761
	s-0.761-0.341-0.761-0.761S120.743,112.553,121.163,112.553z M122.141,115.047c0.655,0,1.186,0.531,1.186,1.186
	s-0.531,1.186-1.186,1.186s-1.186-0.531-1.186-1.186S121.486,115.047,122.141,115.047z M124.178,114.26
	c-0.55-0.358-0.703-1.092-0.346-1.642c0.36-0.546,1.098-0.702,1.648-0.342c0.547,0.359,0.699,1.096,0.337,1.646
	C125.46,114.469,124.726,114.618,124.178,114.26z M130.047,110.028c-0.746-0.234-1.584-1.047-1.347-1.8
	c0.235-0.747,1.451-1.147,2.202-0.911c0.746,0.238,1.165,1.032,0.927,1.784C131.592,109.854,130.796,110.264,130.047,110.028z
	 M124.001,108.228c-0.402-0.127-0.624-0.558-0.499-0.957c0.125-0.4,0.555-0.625,0.953-0.498c0.402,0.127,0.624,0.557,0.497,0.956
	C124.825,108.129,124.401,108.354,124.001,108.228z M125.964,108.859c0.655,0,1.186,0.531,1.186,1.186s-0.531,1.186-1.186,1.186
	s-1.186-0.531-1.186-1.186S125.309,108.859,125.964,108.859z M127.386,107.591c-0.627-0.196-0.972-0.86-0.777-1.485
	c0.196-0.623,0.863-0.975,1.49-0.776c0.624,0.194,0.973,0.861,0.774,1.49C128.676,107.442,128.012,107.786,127.386,107.591z
	 M131.651,101.522c-0.776-0.003-1.814-0.534-1.81-1.319c0.005-0.777,1.045-1.511,1.825-1.504c0.779,0.005,1.412,0.637,1.405,1.421
	C133.067,100.902,132.431,101.526,131.651,101.522z M125.356,101.573c-0.421-0.003-0.761-0.35-0.758-0.768
	c-0.001-0.417,0.345-0.757,0.764-0.756c0.42,0.002,0.759,0.348,0.756,0.768C126.116,101.234,125.777,101.573,125.356,101.573z
	 M127.763,103.914c-0.657-0.004-1.183-0.535-1.182-1.191c0.002-0.658,0.535-1.181,1.191-1.181c0.656,0.001,1.184,0.536,1.181,1.189
	C128.949,103.387,128.416,103.915,127.763,103.914z M128.404,99.963c-0.658-0.002-1.187-0.534-1.182-1.188
	c0.002-0.655,0.536-1.188,1.191-1.184c0.653,0.003,1.185,0.538,1.18,1.196C129.59,99.442,129.059,99.965,128.404,99.963z
	 M130.609,92.65c-0.739,0.237-1.884,0.048-2.121-0.695c-0.235-0.735,0.527-1.744,1.268-1.978c0.736-0.233,1.528,0.17,1.765,0.912
	C131.754,91.631,131.345,92.415,130.609,92.65z M124.641,94.623c-0.4,0.13-0.83-0.097-0.957-0.496
	c-0.13-0.399,0.094-0.829,0.494-0.954c0.398-0.127,0.828,0.096,0.955,0.496C125.259,94.068,125.043,94.494,124.641,94.623z
	 M127.652,96.108c-0.625,0.199-1.288-0.144-1.489-0.769c-0.203-0.625,0.143-1.29,0.767-1.489c0.624-0.201,1.292,0.144,1.49,0.767
	C128.62,95.241,128.274,95.909,127.652,96.108z M127.043,92.153c-0.626,0.202-1.291-0.143-1.492-0.766
	c-0.198-0.624,0.146-1.295,0.771-1.494c0.624-0.2,1.29,0.144,1.49,0.772C128.01,91.288,127.666,91.952,127.043,92.153z
	 M126.869,84.418c-0.631,0.439-1.781,0.591-2.222-0.044c-0.438-0.631-0.004-1.808,0.632-2.246c0.631-0.438,1.499-0.284,1.939,0.352
	C127.659,83.114,127.5,83.978,126.869,84.418z M121.745,88.037c-0.346,0.241-0.822,0.151-1.062-0.191
	c-0.239-0.344-0.152-0.819,0.193-1.058c0.342-0.239,0.818-0.152,1.059,0.193C122.174,87.324,122.091,87.797,121.745,88.037z
	 M125.061,88.571c-0.538,0.373-1.276,0.242-1.65-0.296c-0.377-0.539-0.242-1.275,0.297-1.652c0.538-0.375,1.276-0.241,1.65,0.296
	C125.73,87.458,125.598,88.197,125.061,88.571z M123.316,84.97c-0.541,0.376-1.279,0.243-1.654-0.294
	c-0.371-0.536-0.241-1.28,0.299-1.654c0.536-0.375,1.276-0.242,1.651,0.3C123.987,83.858,123.853,84.594,123.316,84.97z
	 M121.256,78.282c-0.479,0.596-1.539,1.062-2.135,0.577c-0.594-0.478-0.503-1.721-0.02-2.316c0.48-0.593,1.351-0.69,1.947-0.204
	C121.647,76.82,121.736,77.69,121.256,78.282z M117.351,83.174c-0.265,0.329-0.747,0.377-1.073,0.114
	c-0.328-0.263-0.378-0.744-0.113-1.069c0.264-0.327,0.744-0.376,1.071-0.112C117.559,82.371,117.613,82.847,117.351,83.174z
	 M119.758,80.826c0.655,0,1.186,0.531,1.186,1.186s-0.531,1.186-1.186,1.186s-1.186-0.531-1.186-1.186
	S119.103,80.826,119.758,80.826z M117.994,79.791c-0.411,0.51-1.154,0.591-1.666,0.179c-0.509-0.409-0.592-1.16-0.181-1.671
	c0.412-0.508,1.16-0.59,1.673-0.174C118.329,78.536,118.406,79.28,117.994,79.791z M114.347,73.788
	c-0.298,0.699-1.188,1.43-1.891,1.131c-0.696-0.298-0.937-1.51-0.64-2.208c0.299-0.699,1.104-1.026,1.806-0.725
	C114.321,72.284,114.645,73.09,114.347,73.788z M111.915,79.541c-0.166,0.388-0.616,0.566-1.002,0.402
	c-0.385-0.163-0.565-0.612-0.401-0.996c0.165-0.387,0.615-0.566,1.001-0.401C111.897,78.711,112.078,79.156,111.915,79.541z
	 M113.914,76.582c0.654,0,1.185,0.531,1.185,1.185s-0.531,1.185-1.185,1.185s-1.185-0.531-1.185-1.185S113.26,76.582,113.914,76.582
	z M111.611,76.11c-0.256,0.605-0.952,0.885-1.555,0.628c-0.601-0.256-0.885-0.955-0.628-1.559c0.257-0.603,0.953-0.883,1.561-0.624
	C111.59,74.811,111.868,75.508,111.611,76.11z M106.26,71.286c-0.098,0.748-0.758,1.69-1.508,1.592
	c-0.747-0.098-1.3-1.192-1.203-1.942c0.097-0.747,0.781-1.278,1.531-1.18C105.831,69.853,106.357,70.538,106.26,71.286z
	 M105.465,77.468c-0.054,0.418-0.438,0.711-0.855,0.66c-0.414-0.053-0.709-0.437-0.655-0.851c0.053-0.417,0.437-0.712,0.852-0.658
	C105.223,76.673,105.517,77.052,105.465,77.468z M106.908,74.032c0.655,0,1.186,0.531,1.186,1.186s-0.531,1.186-1.186,1.186
	s-1.186-0.531-1.186-1.186S106.253,74.032,106.908,74.032z M104.241,74.248c-0.08,0.651-0.676,1.109-1.326,1.027
	c-0.647-0.082-1.11-0.68-1.026-1.331c0.085-0.649,0.678-1.108,1.333-1.024C103.87,73.002,104.324,73.598,104.241,74.248z
	 M97.568,71.115c0.114,0.74-0.264,1.825-1.007,1.939c-0.737,0.113-1.563-0.784-1.678-1.526c-0.112-0.74,0.394-1.435,1.138-1.547
	C96.764,69.865,97.457,70.375,97.568,71.115z M97.748,76.624c0.42,0,0.76,0.34,0.76,0.76s-0.34,0.76-0.76,0.76s-0.76-0.34-0.76-0.76
	S97.328,76.624,97.748,76.624z M99.262,73.518c0.655,0,1.186,0.531,1.186,1.186s-0.531,1.186-1.186,1.186s-1.186-0.531-1.186-1.186
	S98.607,73.518,99.262,73.518z M96.433,74.511c0.102,0.649-0.341,1.254-0.989,1.354c-0.646,0.099-1.255-0.345-1.356-0.994
	c-0.1-0.646,0.345-1.253,0.995-1.352C95.729,73.419,96.331,73.864,96.433,74.511z M88.904,73.452
	c0.318,0.671,0.264,1.814-0.413,2.133c-0.672,0.317-1.709-0.308-2.025-0.98c-0.318-0.675-0.03-1.479,0.645-1.797
	C87.783,72.49,88.585,72.779,88.904,73.452z M91.529,79.078c0.181,0.379,0.013,0.835-0.361,1.015
	c-0.381,0.18-0.836,0.018-1.013-0.361c-0.18-0.379-0.019-0.835,0.36-1.014C90.895,78.539,91.35,78.698,91.529,79.078z M91.53,75.218
	c0.654,0,1.185,0.531,1.185,1.185s-0.531,1.185-1.185,1.185s-1.185-0.531-1.185-1.185S90.876,75.218,91.53,75.218z M88.764,77.026
	c0.282,0.591,0.029,1.297-0.564,1.58c-0.59,0.277-1.3,0.026-1.581-0.566c-0.279-0.592-0.027-1.3,0.569-1.582
	C87.777,76.179,88.482,76.432,88.764,77.026z M81.501,78.064c0.494,0.551,0.763,1.661,0.209,2.155
	c-0.55,0.491-1.709,0.183-2.204-0.368c-0.491-0.551-0.447-1.399,0.106-1.893C80.162,77.466,81.008,77.513,81.501,78.064z
	 M85.034,82.46c0.42,0,0.761,0.341,0.761,0.761s-0.341,0.761-0.761,0.761s-0.761-0.341-0.761-0.761S84.614,82.46,85.034,82.46z
	 M84.84,78.962c0.655,0,1.186,0.531,1.186,1.186s-0.531,1.186-1.186,1.186s-1.186-0.531-1.186-1.186S84.185,78.962,84.84,78.962z
	 M81.48,81.136c0.656,0,1.187,0.531,1.187,1.187s-0.531,1.187-1.187,1.187s-1.187-0.531-1.187-1.187S80.824,81.136,81.48,81.136z
	 M76.162,84.349c0.623,0.389,1.184,1.38,0.792,2.005c-0.389,0.621-1.581,0.64-2.206,0.249c-0.618-0.391-0.81-1.211-0.418-1.834
	C74.723,84.145,75.541,83.957,76.162,84.349z M81.368,87.685c0.358,0.223,0.463,0.695,0.241,1.05
	c-0.222,0.354-0.692,0.462-1.046,0.24c-0.355-0.222-0.465-0.693-0.24-1.047C80.545,87.573,81.013,87.463,81.368,87.685z
	 M79.929,84.245c0.655,0,1.186,0.531,1.186,1.186s-0.531,1.186-1.186,1.186s-1.186-0.531-1.186-1.186S79.274,84.245,79.929,84.245z
	 M77.935,87.446c0.557,0.348,0.726,1.079,0.376,1.634c-0.348,0.556-1.081,0.726-1.638,0.378c-0.555-0.347-0.724-1.08-0.372-1.637
	C76.647,87.266,77.379,87.099,77.935,87.446z M72.37,91.654c0.7,0.206,1.505,1.007,1.297,1.709c-0.202,0.699-1.34,1.032-2.039,0.827
	c-0.7-0.207-1.103-0.938-0.896-1.642C70.936,91.849,71.671,91.448,72.37,91.654z M78.058,93.436c0.42,0,0.76,0.34,0.76,0.76
	s-0.34,0.76-0.76,0.76s-0.76-0.34-0.76-0.76S77.638,93.436,78.058,93.436z M76.273,90.5c0.656,0,1.187,0.531,1.187,1.187
	s-0.531,1.187-1.187,1.187s-1.187-0.531-1.187-1.187S75.617,90.5,76.273,90.5z M74.564,94.119c0.656,0,1.187,0.531,1.187,1.187
	s-0.531,1.187-1.187,1.187s-1.187-0.531-1.187-1.187S73.908,94.119,74.564,94.119z M70.855,100.106
	c0.724,0.007,1.713,0.561,1.706,1.286c-0.008,0.723-1.005,1.345-1.729,1.337c-0.726-0.007-1.309-0.596-1.3-1.323
	C69.537,100.681,70.13,100.099,70.855,100.106z M77.006,100.255c0.42,0,0.761,0.341,0.761,0.761s-0.341,0.761-0.761,0.761
	s-0.761-0.341-0.761-0.761S76.586,100.255,77.006,100.255z M74.613,97.903c0.657,0.004,1.186,0.54,1.179,1.198
	c-0.005,0.654-0.541,1.179-1.195,1.175c-0.656-0.006-1.186-0.542-1.18-1.197C73.425,98.426,73.96,97.896,74.613,97.903z
	 M73.961,101.852c0.655,0.004,1.181,0.539,1.177,1.196c-0.005,0.652-0.541,1.182-1.197,1.178c-0.654-0.006-1.181-0.542-1.177-1.199
	C72.769,102.372,73.304,101.846,73.961,101.852z M71.728,108.834c0.693-0.198,1.794,0.061,1.989,0.752
	c0.196,0.692-0.586,1.558-1.279,1.753c-0.691,0.195-1.411-0.206-1.608-0.9C70.632,109.749,71.035,109.028,71.728,108.834z
	 M77.881,107.237c0.42,0,0.76,0.34,0.76,0.76s-0.34,0.76-0.76,0.76s-0.76-0.34-0.76-0.76S77.461,107.237,77.881,107.237z
	 M74.713,105.682c0.629-0.181,1.286,0.185,1.465,0.817c0.179,0.63-0.188,1.286-0.82,1.465c-0.628,0.179-1.287-0.187-1.465-0.817
	C73.715,106.518,74.082,105.858,74.713,105.682z M75.515,109.609c0.656,0,1.187,0.531,1.187,1.187s-0.531,1.187-1.187,1.187
	s-1.187-0.531-1.187-1.187S74.859,109.609,75.515,109.609z M75.162,117.274c0.601-0.386,1.729-0.455,2.111,0.149
	c0.386,0.599-0.113,1.644-0.716,2.028c-0.602,0.386-1.401,0.211-1.787-0.39C74.386,118.46,74.561,117.659,75.162,117.274z
	 M80.806,113.951c0.42,0,0.76,0.34,0.76,0.76s-0.34,0.76-0.76,0.76s-0.76-0.34-0.76-0.76S80.386,113.951,80.806,113.951z
	 M77.102,113.413c0.553-0.354,1.285-0.195,1.64,0.359c0.355,0.552,0.191,1.284-0.357,1.638c-0.553,0.354-1.288,0.195-1.643-0.356
	C76.391,114.502,76.549,113.767,77.102,113.413z M78.713,117.076c0.551-0.354,1.284-0.194,1.639,0.357
	c0.353,0.551,0.193,1.286-0.359,1.642c-0.551,0.352-1.285,0.192-1.638-0.361C78,118.162,78.159,117.431,78.713,117.076z
	 M80.611,123.742c0.455-0.544,1.508-0.942,2.052-0.486c0.544,0.453,0.375,1.591-0.08,2.134c-0.456,0.545-1.267,0.617-1.811,0.16
	C80.228,125.094,80.155,124.286,80.611,123.742z M85.236,118.866c0.42,0,0.761,0.341,0.761,0.761s-0.341,0.761-0.761,0.761
	s-0.761-0.341-0.761-0.761S84.816,118.866,85.236,118.866z M82.223,119.072c0.655,0,1.186,0.531,1.186,1.186
	s-0.531,1.186-1.186,1.186s-1.186-0.531-1.186-1.186S81.568,119.072,82.223,119.072z M83.945,122.509
	c0.42-0.503,1.168-0.569,1.672-0.148c0.501,0.418,0.569,1.168,0.149,1.673c-0.421,0.5-1.169,0.567-1.673,0.146
	C83.59,123.76,83.524,123.012,83.945,122.509z M87.401,128.248c0.272-0.649,1.161-1.335,1.81-1.063
	c0.648,0.272,0.814,1.399,0.542,2.05c-0.273,0.648-1.021,0.955-1.669,0.683C87.433,129.645,87.128,128.897,87.401,128.248z
	 M89.913,122.677c0.165-0.388,0.611-0.569,0.997-0.407c0.387,0.162,0.569,0.607,0.41,0.993c-0.166,0.388-0.612,0.57-0.999,0.407
	C89.937,123.508,89.752,123.063,89.913,122.677z M87.921,123.275c0.656,0,1.187,0.531,1.187,1.187s-0.531,1.187-1.187,1.187
	s-1.187-0.531-1.187-1.187S87.265,123.275,87.921,123.275z M90.232,126.106c0.253-0.605,0.948-0.89,1.554-0.635
	c0.602,0.252,0.889,0.947,0.636,1.553c-0.255,0.604-0.949,0.89-1.555,0.635C90.263,127.405,89.979,126.711,90.232,126.106z
	 M95.404,130.659c0.076-0.695,0.733-1.602,1.429-1.524c0.694,0.075,1.164,1.105,1.089,1.798c-0.078,0.696-0.703,1.199-1.398,1.121
	C95.83,131.978,95.325,131.352,95.404,130.659z M97.002,123.94c0.419,0,0.759,0.34,0.759,0.759s-0.34,0.759-0.759,0.759
	s-0.759-0.34-0.759-0.759S96.583,123.94,97.002,123.94z M93.664,126.763c0.071-0.651,0.656-1.12,1.309-1.052
	c0.651,0.073,1.119,0.661,1.049,1.312c-0.071,0.651-0.657,1.124-1.308,1.051C94.063,128.002,93.593,127.415,93.664,126.763z
	 M98.705,126.756c0.656,0,1.187,0.531,1.187,1.187c0,0.656-0.531,1.187-1.187,1.187s-1.187-0.531-1.187-1.187
	C97.518,127.287,98.049,126.756,98.705,126.756z M104.064,130.678c-0.118-0.684,0.269-1.732,0.954-1.846
	c0.682-0.117,1.406,0.742,1.524,1.426c0.114,0.686-0.347,1.335-1.031,1.45C104.827,131.826,104.176,131.365,104.064,130.678z
	 M103.985,123.759c0.42,0,0.761,0.341,0.761,0.761s-0.341,0.761-0.761,0.761s-0.761-0.341-0.761-0.761
	S103.565,123.759,103.985,123.759z M101.341,127.42c-0.108-0.646,0.322-1.259,0.972-1.369c0.646-0.109,1.258,0.326,1.366,0.972
	c0.111,0.646-0.322,1.261-0.971,1.372C102.063,128.501,101.449,128.069,101.341,127.42z M105.343,127.372
	c-0.113-0.645,0.322-1.258,0.97-1.367c0.644-0.11,1.26,0.323,1.369,0.973c0.11,0.645-0.324,1.258-0.972,1.365
	C106.063,128.456,105.451,128.019,105.343,127.372z M112.753,128.263c-0.294-0.624-0.195-1.734,0.428-2.026
	c0.625-0.291,1.54,0.346,1.831,0.969c0.292,0.625,0.021,1.369-0.604,1.66C113.786,129.159,113.042,128.887,112.753,128.263z
	 M110.369,122.674c-0.177-0.382-0.014-0.834,0.365-1.011c0.382-0.179,0.834-0.015,1.012,0.364c0.176,0.381,0.014,0.834-0.366,1.012
	C111.001,123.217,110.547,123.053,110.369,122.674z M110.355,124.162c0.656,0,1.187,0.531,1.187,1.187s-0.531,1.187-1.187,1.187
	s-1.187-0.531-1.187-1.187S109.699,124.162,110.355,124.162z M114.2,123.052c0.656,0,1.187,0.531,1.187,1.187
	s-0.531,1.187-1.187,1.187s-1.187-0.531-1.187-1.187S113.544,123.052,114.2,123.052z M100.479,90.432
	c-0.211,0.014-0.42,0.027-0.629,0.051l-0.531-4.855c0.305-0.036,0.611-0.056,0.919-0.074L100.479,90.432z M102.048,90.474
	c-0.207-0.02-0.419-0.037-0.629-0.044l0.2-4.881c0.309,0.011,0.616,0.035,0.923,0.065L102.048,90.474z M103.591,90.75
	c-0.203-0.051-0.406-0.101-0.61-0.138l0.931-4.796c0.302,0.059,0.603,0.127,0.9,0.202L103.591,90.75z M105.08,91.255
	c-0.192-0.082-0.386-0.159-0.586-0.229l1.64-4.602c0.289,0.102,0.578,0.215,0.858,0.335L105.08,91.255z M106.481,91.978
	c-0.18-0.111-0.364-0.214-0.549-0.315l2.305-4.307c0.271,0.147,0.538,0.297,0.8,0.459L106.481,91.978z M107.759,92.9
	c-0.161-0.138-0.326-0.265-0.494-0.393l2.916-3.918c0.245,0.185,0.488,0.374,0.723,0.572L107.759,92.9z M108.884,93.998
	c-0.139-0.157-0.282-0.312-0.432-0.459l3.466-3.442c0.221,0.218,0.427,0.443,0.632,0.672L108.884,93.998z M109.829,95.253
	c-0.112-0.177-0.23-0.35-0.354-0.519l3.94-2.886c0.184,0.246,0.356,0.502,0.524,0.759L109.829,95.253z M110.578,96.632
	c-0.088-0.19-0.18-0.379-0.273-0.563l4.331-2.263c0.142,0.271,0.274,0.55,0.401,0.83L110.578,96.632z M111.111,98.112
	c-0.057-0.202-0.118-0.404-0.186-0.601l4.619-1.587c0.1,0.29,0.189,0.583,0.273,0.879L111.111,98.112z M111.421,99.66
	c-0.026-0.209-0.059-0.417-0.096-0.626l4.802-0.887c0.06,0.301,0.103,0.604,0.141,0.909L111.421,99.66z M111.499,101.229
	c0.004-0.209,0.005-0.419-0.005-0.629l4.884-0.167c0.013,0.308,0.011,0.617,0.002,0.923L111.499,101.229z M111.339,102.791
	c0.036-0.206,0.068-0.414,0.09-0.621l4.855,0.566c-0.035,0.307-0.083,0.61-0.135,0.914L111.339,102.791z M110.948,104.314
	c0.065-0.2,0.129-0.401,0.185-0.604l4.71,1.289c-0.079,0.297-0.172,0.59-0.268,0.883L110.948,104.314z M110.332,105.763
	c0.099-0.186,0.187-0.378,0.274-0.568l4.465,1.976c-0.125,0.281-0.257,0.559-0.397,0.83L110.332,105.763z M109.509,107.103
	c0.124-0.169,0.239-0.345,0.354-0.521l4.124,2.619c-0.166,0.258-0.336,0.512-0.518,0.762L109.509,107.103z M108.493,108.308
	c0.146-0.15,0.289-0.303,0.428-0.462l3.692,3.199c-0.202,0.232-0.41,0.458-0.625,0.678L108.493,108.308z M107.313,109.349
	c0.169-0.128,0.333-0.257,0.49-0.395l3.174,3.713c-0.232,0.201-0.473,0.392-0.717,0.579L107.313,109.349z M105.995,110.197
	c0.183-0.1,0.365-0.205,0.541-0.315l2.583,4.146c-0.259,0.164-0.526,0.318-0.798,0.465L105.995,110.197z M104.562,110.838
	c0.195-0.071,0.392-0.147,0.585-0.229l1.928,4.489c-0.28,0.121-0.567,0.233-0.855,0.338L104.562,110.838z M103.042,111.262
	c0.207-0.042,0.413-0.088,0.615-0.143l1.239,4.726c-0.296,0.08-0.596,0.147-0.896,0.209L103.042,111.262z M101.479,111.456
	c0.21-0.011,0.421-0.025,0.627-0.05l0.531,4.857c-0.305,0.036-0.611,0.057-0.918,0.074L101.479,111.456z M99.909,111.415
	c0.208,0.02,0.419,0.038,0.629,0.044l-0.202,4.882c-0.31-0.012-0.615-0.036-0.921-0.064L99.909,111.415z M98.364,111.139
	c0.203,0.051,0.407,0.101,0.614,0.139l-0.934,4.795c-0.303-0.058-0.601-0.127-0.899-0.202L98.364,111.139z M96.874,110.634
	c0.194,0.082,0.389,0.159,0.587,0.229l-1.641,4.604c-0.287-0.103-0.574-0.215-0.855-0.337L96.874,110.634z M95.475,109.912
	c0.179,0.111,0.361,0.214,0.547,0.315l-2.305,4.307c-0.27-0.147-0.537-0.297-0.798-0.459L95.475,109.912z M94.199,108.992
	c0.161,0.136,0.324,0.264,0.496,0.39l-2.921,3.92c-0.245-0.185-0.487-0.374-0.723-0.573L94.199,108.992z M93.073,107.892
	c0.141,0.156,0.281,0.312,0.431,0.459l-3.467,3.442c-0.219-0.217-0.426-0.443-0.632-0.673L93.073,107.892z M92.127,106.636
	c0.111,0.177,0.229,0.353,0.354,0.52l-3.942,2.886c-0.182-0.248-0.352-0.503-0.519-0.761L92.127,106.636z M91.379,105.255
	c0.085,0.192,0.176,0.381,0.272,0.567l-4.327,2.262c-0.144-0.273-0.277-0.55-0.404-0.832L91.379,105.255z M90.846,103.778
	c0.057,0.2,0.119,0.402,0.185,0.601l-4.618,1.587c-0.102-0.29-0.191-0.583-0.272-0.88L90.846,103.778z M90.535,102.229
	c0.025,0.21,0.058,0.417,0.098,0.623l-4.806,0.89c-0.056-0.301-0.102-0.604-0.14-0.91L90.535,102.229z M90.459,100.659
	c-0.006,0.21-0.008,0.419,0.002,0.629l-4.882,0.167c-0.013-0.307-0.011-0.615-0.004-0.922L90.459,100.659z M90.618,99.097
	c-0.035,0.206-0.071,0.414-0.092,0.623l-4.853-0.568c0.033-0.307,0.082-0.609,0.135-0.914L90.618,99.097z M91.01,97.576
	c-0.069,0.2-0.132,0.4-0.186,0.601l-4.713-1.287c0.081-0.297,0.172-0.59,0.27-0.883L91.01,97.576z M91.624,96.129
	c-0.098,0.185-0.186,0.376-0.273,0.567l-4.466-1.977c0.123-0.281,0.255-0.559,0.396-0.831L91.624,96.129z M92.448,94.786
	c-0.124,0.17-0.239,0.345-0.353,0.521l-4.126-2.619c0.164-0.257,0.335-0.513,0.518-0.762L92.448,94.786z M93.461,93.58
	c-0.146,0.152-0.289,0.305-0.427,0.464l-3.69-3.2c0.2-0.233,0.409-0.458,0.625-0.678L93.461,93.58z M94.642,92.541
	c-0.168,0.129-0.332,0.257-0.49,0.395l-3.175-3.713c0.232-0.201,0.476-0.393,0.72-0.579L94.642,92.541z M95.962,91.692
	c-0.184,0.103-0.365,0.204-0.544,0.316l-2.581-4.148c0.262-0.163,0.528-0.317,0.799-0.464L95.962,91.692z M97.395,91.049
	c-0.197,0.072-0.391,0.148-0.582,0.233l-1.932-4.489c0.283-0.122,0.569-0.235,0.856-0.339L97.395,91.049z M98.912,90.626
	c-0.206,0.044-0.409,0.088-0.613,0.143l-1.24-4.726c0.296-0.078,0.595-0.146,0.896-0.207L98.912,90.626z M107.355,121.776
	c-0.276,0.082-0.552,0.163-0.836,0.236l-1.238-4.726c0.218-0.057,0.435-0.121,0.647-0.184L107.355,121.776z M109.4,121.04
	c-0.268,0.11-0.538,0.217-0.81,0.318l-1.703-4.58c0.21-0.078,0.421-0.161,0.628-0.247L109.4,121.04z M111.36,120.101
	c-0.258,0.137-0.513,0.272-0.773,0.4l-2.151-4.387c0.202-0.099,0.399-0.203,0.599-0.309L111.36,120.101z M113.218,118.97
	c-0.241,0.161-0.482,0.322-0.73,0.474l-2.58-4.147l0.564-0.367L113.218,118.97z M114.952,117.662
	c-0.225,0.184-0.448,0.368-0.679,0.542l-2.984-3.868l0.526-0.421L114.952,117.662z M116.546,116.186
	c-0.205,0.205-0.409,0.411-0.619,0.608l-3.356-3.551c0.166-0.153,0.324-0.313,0.481-0.472L116.546,116.186z M117.983,114.558
	c-0.179,0.228-0.366,0.449-0.556,0.668l-3.691-3.199c0.147-0.17,0.293-0.343,0.434-0.521L117.983,114.558z M119.254,112.799
	c-0.157,0.244-0.32,0.481-0.487,0.719l-3.989-2.819c0.128-0.186,0.257-0.369,0.378-0.56L119.254,112.799z M120.344,110.921
	c-0.133,0.259-0.271,0.512-0.414,0.765l-4.248-2.412l0.32-0.592L120.344,110.921z M121.241,108.945
	c-0.105,0.27-0.218,0.537-0.335,0.803l-4.469-1.977c0.092-0.207,0.179-0.414,0.262-0.623L121.241,108.945z M121.94,106.888
	c-0.081,0.278-0.163,0.556-0.256,0.832l-4.642-1.523l0.198-0.644L121.94,106.888z M122.428,104.771
	c-0.051,0.285-0.105,0.568-0.171,0.853l-4.77-1.051l0.132-0.661L122.428,104.771z M122.701,102.614
	c-0.021,0.288-0.047,0.578-0.082,0.867l-4.854-0.568c0.03-0.225,0.048-0.447,0.067-0.67L122.701,102.614z M122.758,100.441
	c0.007,0.29,0.01,0.58,0.003,0.87l-4.883-0.079c0.006-0.223,0-0.447-0.004-0.674L122.758,100.441z M122.598,98.276
	c0.034,0.288,0.068,0.576,0.09,0.864l-4.867,0.41c-0.017-0.226-0.043-0.449-0.068-0.672L122.598,98.276z M122.225,96.141
	c0.062,0.282,0.123,0.563,0.173,0.849l-4.802,0.888l-0.136-0.662L122.225,96.141z M121.643,94.05
	c0.091,0.275,0.178,0.551,0.259,0.829l-4.693,1.356c-0.062-0.216-0.132-0.431-0.199-0.645L121.643,94.05z M120.855,92.024
	c0.119,0.266,0.233,0.531,0.339,0.801l-4.534,1.818c-0.084-0.209-0.171-0.416-0.264-0.622L120.855,92.024z M119.868,90.087
	c0.146,0.253,0.284,0.506,0.418,0.764l-4.33,2.263c-0.102-0.201-0.212-0.398-0.323-0.592L119.868,90.087z M118.693,88.26
	c0.167,0.237,0.332,0.474,0.49,0.716l-4.081,2.685l-0.381-0.556L118.693,88.26z M117.34,86.559c0.188,0.22,0.38,0.439,0.563,0.665
	l-3.794,3.08l-0.435-0.516L117.34,86.559z M115.824,85.004c0.213,0.198,0.422,0.397,0.624,0.604l-3.468,3.444
	c-0.154-0.162-0.318-0.316-0.482-0.472L115.824,85.004z M114.163,83.606c0.232,0.173,0.458,0.356,0.683,0.54l-3.107,3.769
	c-0.177-0.142-0.352-0.284-0.533-0.419L114.163,83.606z M112.373,82.381c0.246,0.149,0.488,0.309,0.732,0.468l-2.721,4.058
	l-0.567-0.363L112.373,82.381z M110.468,81.337c0.263,0.126,0.519,0.258,0.775,0.395l-2.304,4.307l-0.601-0.305L110.468,81.337z
	 M108.47,80.488c0.271,0.1,0.542,0.205,0.812,0.315l-1.867,4.516c-0.208-0.086-0.418-0.168-0.627-0.246L108.47,80.488z
	 M106.396,79.841c0.28,0.076,0.559,0.15,0.836,0.237l-1.406,4.677l-0.647-0.182L106.396,79.841z M104.268,79.406
	c0.285,0.045,0.572,0.092,0.856,0.149l-0.931,4.795l-0.666-0.116L104.268,79.406z M102.104,79.186
	c0.29,0.018,0.58,0.035,0.868,0.062l-0.444,4.865c-0.224-0.021-0.448-0.034-0.673-0.047L102.104,79.186z M99.931,79.183
	c0.289-0.011,0.581-0.023,0.869-0.023l0.045,4.886c-0.225-0.002-0.449,0.009-0.675,0.018L99.931,79.183z M97.772,79.398
	c0.285-0.04,0.572-0.081,0.86-0.109l0.532,4.856c-0.225,0.021-0.446,0.055-0.671,0.084L97.772,79.398z M95.644,79.824
	c0.282-0.068,0.563-0.137,0.847-0.194l1.006,4.781l-0.659,0.15L95.644,79.824z M93.569,80.457c0.271-0.096,0.548-0.191,0.821-0.278
	l1.473,4.658c-0.214,0.067-0.427,0.14-0.639,0.216L93.569,80.457z M91.564,81.296c0.261-0.124,0.524-0.245,0.791-0.359l1.931,4.486
	c-0.208,0.089-0.412,0.183-0.616,0.28L91.564,81.296z M89.652,82.331c0.247-0.15,0.498-0.297,0.751-0.437l2.373,4.273
	c-0.198,0.108-0.393,0.223-0.585,0.337L89.652,82.331z M87.855,83.553c0.232-0.173,0.466-0.346,0.703-0.509l2.788,4.013L90.8,87.451
	L87.855,83.553z M86.188,84.948c0.214-0.194,0.429-0.391,0.65-0.577l3.175,3.713c-0.174,0.146-0.338,0.296-0.505,0.448
	L86.188,84.948z M84.671,86.501c0.191-0.219,0.388-0.43,0.588-0.639l3.529,3.38c-0.157,0.16-0.309,0.327-0.459,0.495L84.671,86.501z
	 M83.317,88.196c0.166-0.235,0.344-0.465,0.521-0.693l3.845,3.012c-0.137,0.178-0.274,0.354-0.407,0.539L83.317,88.196z
	 M82.134,90.016c0.145-0.25,0.297-0.496,0.451-0.743l4.124,2.62l-0.349,0.575L82.134,90.016z M81.141,91.945
	c0.119-0.264,0.243-0.523,0.373-0.783l4.363,2.198c-0.099,0.2-0.197,0.403-0.291,0.608L81.141,91.945z M80.34,93.966
	c0.094-0.274,0.191-0.548,0.297-0.818l4.559,1.753c-0.081,0.208-0.157,0.421-0.23,0.634L80.34,93.966z M79.745,96.056
	c0.067-0.282,0.135-0.565,0.214-0.845l4.714,1.291l-0.168,0.651L79.745,96.056z M79.362,98.196c0.04-0.289,0.077-0.576,0.128-0.862
	l4.818,0.811l-0.101,0.667L79.362,98.196z M79.197,100.361c0.012-0.289,0.021-0.578,0.041-0.867l4.874,0.322
	c-0.016,0.224-0.022,0.449-0.03,0.672L79.197,100.361z M79.25,102.534c-0.02-0.289-0.039-0.578-0.047-0.867l4.884-0.167
	c0.004,0.225,0.021,0.448,0.036,0.672L79.25,102.534z M79.519,104.688c-0.05-0.286-0.096-0.571-0.132-0.859l4.841-0.649l0.102,0.665
	L79.519,104.688z M79.995,106.804c-0.075-0.281-0.15-0.559-0.214-0.841l4.753-1.122l0.168,0.653L79.995,106.804z M80.681,108.863
	c-0.104-0.27-0.204-0.542-0.297-0.815l4.619-1.588c0.071,0.212,0.151,0.423,0.23,0.633L80.681,108.863z M81.568,110.846
	c-0.128-0.258-0.258-0.519-0.378-0.781l4.438-2.041c0.093,0.204,0.191,0.406,0.292,0.605L81.568,110.846z M82.651,112.732
	c-0.154-0.245-0.309-0.491-0.454-0.739l4.211-2.478l0.352,0.574L82.651,112.732z M83.919,114.499
	c-0.181-0.229-0.358-0.456-0.527-0.693l3.94-2.886l0.409,0.537L83.919,114.499z M85.354,116.128
	c-0.199-0.208-0.401-0.417-0.592-0.635l3.632-3.264c0.151,0.166,0.305,0.331,0.463,0.492L85.354,116.128z M86.944,117.606
	c-0.222-0.186-0.44-0.376-0.652-0.572l3.291-3.61c0.163,0.152,0.335,0.301,0.506,0.445L86.944,117.606z M88.673,118.919
	c-0.24-0.161-0.474-0.333-0.708-0.503l2.917-3.92c0.182,0.133,0.363,0.268,0.548,0.393L88.673,118.919z M90.523,120.056
	c-0.257-0.138-0.504-0.285-0.755-0.431l2.514-4.188l0.587,0.334L90.523,120.056z M92.477,121.004
	c-0.27-0.114-0.532-0.234-0.794-0.357l2.088-4.416c0.201,0.096,0.407,0.187,0.614,0.276L92.477,121.004z M94.515,121.752
	c-0.277-0.086-0.552-0.18-0.823-0.276l1.636-4.603c0.214,0.075,0.425,0.146,0.64,0.213L94.515,121.752z M96.618,122.293
	c-0.283-0.061-0.564-0.122-0.849-0.191l1.171-4.744l0.659,0.149L96.618,122.293z M98.767,122.62
	c-0.289-0.031-0.575-0.062-0.862-0.104l0.689-4.835c0.222,0.033,0.443,0.057,0.667,0.081L98.767,122.62z M100.938,122.733
	c-0.29-0.004-0.58-0.005-0.87-0.02l0.2-4.882c0.225,0.012,0.45,0.012,0.674,0.014L100.938,122.733z M103.107,122.626
	c-0.287,0.024-0.576,0.052-0.865,0.066l-0.29-4.877c0.224-0.01,0.449-0.032,0.672-0.052L103.107,122.626z M105.253,122.306
	l-0.854,0.151l-0.771-4.823l0.666-0.118L105.253,122.306z M101.809,108.032l-2.454-3.49l-4.067,1.285l1.795-3.87l-3.145-2.877
	l4.248-0.381l0.921-4.162l2.452,3.486l4.066-1.283l-1.796,3.867l3.147,2.88l-4.248,0.381L101.809,108.032z"/>
</svg>
