<?xml version="1.0" encoding="utf-8"?>
<!-- Generator: Adobe Illustrator 17.0.0, SVG Export Plug-In . SVG Version: 6.00 Build 0)  -->
<!DOCTYPE svg PUBLIC "-//W3C//DTD SVG 1.1//EN" "http://www.w3.org/Graphics/SVG/1.1/DTD/svg11.dtd">
<svg version="1.1" id="图层_1" xmlns="http://www.w3.org/2000/svg" xmlns:xlink="http://www.w3.org/1999/xlink" x="0px" y="0px"
	 width="31px" height="33px" viewBox="0 0 31 33" enable-background="new 0 0 31 33" xml:space="preserve">
<path fill="#337AC1" d="M26,28l-5,5v-5h-3V5l12.99,0.169L31,5v23H26z M28,8h-7v17.966L22,26v2l3.853-2.052L28,26V8z M11,18
	c-1.042,0.01-1.076-0.219-1.123,0.905c-0.03,0.715-0.251,1.421-0.386,2.131l-0.886,2.849c-0.718,1.873-1.53,3.693-2.855,5.251
	c-1.314,1.543-3.103,1.758-4.953,1.823c-0.288,0.01-0.687,0.056-0.79-0.322c-0.096-0.355,0.253-0.54,0.48-0.723
	C2.436,28.338,3.808,27.19,5,25c0.966-1.774,1.684-3.004,2-5c0.135-0.855-0.186-2.023-1-2c-1.512,0.043-4.487-0.015-6,0
	c-0.049-0.005,0.134-0.484,0.291-0.984c0.324-1.09,1.082-1.98,1.931-1.964C3.541,15.076,3.682,14.958,5,15
	c0.835,0.027,2.009-0.132,2-1c-0.02-1.96-0.055-4.041,0-6c0.016-0.562,0.394-0.793-0.138-0.837c-1.729-0.141-1.899-0.062-2.717,1.52
	c-0.668,1.289-2.046,2.02-3.441,2.366c-0.753,0.187-0.676,0.161-0.58-0.066c1.104-2.593,2.303-5.9,3.349-8.505
	c0.43-1.07,2.25-1.851,3.303-2.452c0,0,0.246-0.178,0.005,0.57c-0.259,0.806-0.603,2.271-0.89,3.066
	C5.59,4.493,5.74,4.923,6.589,4.916c2.522-0.021,5.183,0,7.706,0c0.595,0,1.101-0.1,1.474,0.53c1.213,2.046,0.938,1.7-0.242,1.719
	C14.518,7.181,13.008,7.034,12,7c-0.763-0.026-1.841,0.39-1.876,1.197C10.03,10.385,9.97,11.999,10,14c0.011,0.711,1.496,1.001,2,1
	c1.319-0.002,1.489,0.029,2.808,0.052C15.885,15.07,16.624,15.943,17,17c0.027,0.334,0.269,0.909,0,1
	C15.623,17.986,12.358,17.987,11,18z M15,26c0.393,0.583,0.444,1.623,0,3c-0.088,0.274-0.623,0.137-1.202-0.523
	c-1.399-1.596-2.682-3.288-4.035-4.922c-0.378-0.457-0.605-0.716-0.778-0.769L11,21C11.922,22.089,14.08,24.91,15,26z"/>
</svg>
