<?xml version="1.0" encoding="utf-8"?><!DOCTYPE svg PUBLIC "-//W3C//DTD SVG 1.1//EN" "http://www.w3.org/Graphics/SVG/1.1/DTD/svg11.dtd"><svg version="1.1" baseProfile="full" xmlns="http://www.w3.org/2000/svg" xmlns:xlink="http://www.w3.org/1999/xlink" xmlns:ev="http://www.w3.org/2001/xml-events"   height="65px"   width="74px" ><path fill="rgb( 107, 190, 62 )" d="M64,65 C64,65 10,65 10,65 C6.68600000000004,65 4,62.314 4,59 C4,59 4,21 4,21 C4,21 26,12 26,12 C26,12 48,28 48,28 C48,28 70,3 70,3 C70,3 70,59 70,59 C70,62.314 67.314,65 64,65 Z "/><path fill="rgb( 146, 215, 108 )" d="M4,21 C4,21 26,11 26,11 C26,11 26,65 26,65 C26,65 15.354,65 8.87300000000005,65 C3.73500000000001,65 4,59.493 4,59.493 C4,59.493 4,21 4,21 Z "/><path fill="rgb( 123, 193, 86 )" d="M26,12 C26,12 48,28 48,28 C48,28 48,65 48,65 C48,65 26,65 26,65 C26,65 26,12 26,12 Z "/><path fill="rgb( 100, 162, 66 )" d="M48,27 C48,27 70,3 70,3 C70,3 70,44.594 70,59.646 C70,64.002 65.067,65 65.067,65 C65.067,65 48,65 48,65 C48,65 48,27 48,27 Z "/><path fill="rgb( 255, 255, 255 )" d="M70,8 C67.7910000000001,8 66,6.209 66,4 C66,1.791 67.7910000000001,0 70,0 C72.2089999999999,0 74,1.791 74,4 C74,6.209 72.2089999999999,8 70,8 ZM48,30 C45.7910000000001,30 44,28.209 44,26 C44,23.791 45.7910000000001,22 48,22 C50.2089999999999,22 52,23.791 52,26 C52,28.209 50.2089999999999,30 48,30 ZM26,17 C23.7910000000001,17 22,15.209 22,13 C22,10.791 23.7910000000001,9 26,9 C28.2089999999999,9 30,10.791 30,13 C30,15.209 28.2089999999999,17 26,17 ZM4,24 C1.79100000000005,24 0,22.209 0,20 C0,17.791 1.79100000000005,16 4,16 C6.20899999999995,16 8,17.791 8,20 C8,22.209 6.20899999999995,24 4,24 Z "/></svg>