<?xml version="1.0" encoding="iso-8859-1"?>
<!-- Generator: Adobe Illustrator 17.0.0, SVG Export Plug-In . SVG Version: 6.00 Build 0)  -->
<!DOCTYPE svg PUBLIC "-//W3C//DTD SVG 1.1//EN" "http://www.w3.org/Graphics/SVG/1.1/DTD/svg11.dtd">
<svg version="1.1" xmlns="http://www.w3.org/2000/svg" xmlns:xlink="http://www.w3.org/1999/xlink" x="0px" y="0px" width="128px"
	 height="128px" viewBox="0 0 128 128" style="enable-background:new 0 0 128 128;" xml:space="preserve">
<g id="icons">
	<g>
		<circle style="fill:#E16B5A;" cx="64" cy="64" r="64"/>
		<g>
			<g>
				<path style="fill:#F5F5F5;" d="M48,16h44c1.1,0,2.073,0.9,2.073,2v82c0,1.1-0.974,2-2.073,2H30c-1.1,0-1.927-0.9-1.927-2V37
					L48,16z"/>
				<path style="fill:#E6E6E6;" d="M46,37c1.1,0,2.073-0.9,2.073-2V16L28,37H46z"/>
			</g>
			<circle style="fill:#2179A6;" cx="88" cy="96" r="13"/>
			<path style="fill:#F5F5F5;" d="M85,102c-0.256,0-0.512-0.098-0.707-0.293l-4-4c-0.391-0.391-0.391-1.023,0-1.414
				c0.391-0.391,1.023-0.391,1.414,0L85,99.586l9.293-9.293c0.391-0.391,1.023-0.391,1.414,0c0.391,0.391,0.391,1.023,0,1.414
				l-10,10C85.512,101.902,85.256,102,85,102z"/>
		</g>
	</g>
</g>
<g id="header">
</g>
</svg>
