<?xml version="1.0" encoding="utf-8"?>
<!-- Generator: Adobe Illustrator 17.0.0, SVG Export Plug-In . SVG Version: 6.00 Build 0)  -->
<!DOCTYPE svg PUBLIC "-//W3C//DTD SVG 1.1//EN" "http://www.w3.org/Graphics/SVG/1.1/DTD/svg11.dtd">
<svg version="1.1" id="Objects" xmlns="http://www.w3.org/2000/svg" xmlns:xlink="http://www.w3.org/1999/xlink" x="0px" y="0px"
	 width="143.391px" height="158.329px" viewBox="0 0 143.391 158.329" enable-background="new 0 0 143.391 158.329"
	 xml:space="preserve">
<path fill="#C986E6" d="M132.289,104.304c0,5.348-3.79,11.912-8.42,14.586l-43.752,25.26c-4.631,2.674-12.211,2.674-16.842,0
	l-43.753-25.26c-4.631-2.674-8.421-9.238-8.421-14.586v-50.52c0-5.348,3.79-11.911,8.421-14.585l43.753-25.261
	c4.631-2.674,12.211-2.674,16.842,0l43.752,25.261c4.63,2.674,8.42,9.237,8.42,14.585V104.304z M71.696,158.089
	c-4.181,0-8.152-0.964-11.184-2.714l-49.33-28.48C4.913,123.274,0,114.766,0,107.525V50.564c0-7.241,4.913-15.749,11.183-19.37
	l49.33-28.481C63.544,0.964,67.516,0,71.696,0c4.181,0,8.152,0.964,11.184,2.713l49.328,28.481
	c6.271,3.622,11.183,12.13,11.183,19.37v56.961c0,7.24-4.912,15.748-11.183,19.37l-49.328,28.48
	C79.849,157.125,75.877,158.089,71.696,158.089z M71.696,6.755c-2.971,0-5.815,0.659-7.807,1.809L14.56,37.044
	c-4.158,2.4-7.806,8.718-7.806,13.52v56.961c0,4.801,3.647,11.119,7.806,13.521l49.329,28.48c1.991,1.149,4.836,1.808,7.807,1.808
	c2.97,0,5.815-0.659,7.807-1.808l49.328-28.481c4.157-2.401,7.805-8.719,7.805-13.52V50.564c0-4.801-3.647-11.12-7.805-13.521
	L79.503,8.563C77.512,7.414,74.666,6.755,71.696,6.755z"/>
</svg>
