<?xml version="1.0" encoding="utf-8"?>
<!-- Generator: Adobe Illustrator 17.0.0, SVG Export Plug-In . SVG Version: 6.00 Build 0)  -->
<!DOCTYPE svg PUBLIC "-//W3C//DTD SVG 1.1//EN" "http://www.w3.org/Graphics/SVG/1.1/DTD/svg11.dtd">
<svg version="1.1" id="图层_1" xmlns:ev="http://www.w3.org/2001/xml-events"
	 xmlns="http://www.w3.org/2000/svg" xmlns:xlink="http://www.w3.org/1999/xlink" x="0px" y="0px" width="57px" height="232px"
	 viewBox="0 0 57 232" enable-background="new 0 0 57 232" xml:space="preserve">
<path fill="#EB7675" d="M4.115,0.975l49,0.05c1.657,0.001,2.999,1.346,2.997,3.003l-0.224,224c-0.002,1.656-1.347,2.998-3.003,2.997
	l-49-0.05c-1.657-0.001-2.999-1.346-2.997-3.003L1.112,3.973C1.114,2.316,2.458,0.974,4.115,0.975z"/>
<path fill="#A96767" stroke="#FFFFFF" stroke-width="2" d="M28.935,181.001c7.732,0.007,13.994,6.281,13.986,14.014
	c-0.008,7.732-6.282,13.993-14.014,13.985c-7.732-0.007-13.994-6.282-13.986-14.013C14.929,187.254,21.203,180.993,28.935,181.001z"
	/>
<path fill="#FFFFFF" d="M15.097,18.987l28,0.028c1.657,0.001,2.999,1.346,2.997,3.003l-0.137,136.999
	c-0.002,1.657-1.346,2.999-3.003,2.997l-28-0.028c-1.657-0.001-2.999-1.346-2.997-3.003l0.137-136.999
	C12.096,20.327,13.44,18.985,15.097,18.987z"/>
</svg>
