<?xml version="1.0" encoding="iso-8859-1"?>
<!-- Generator: Adobe Illustrator 17.0.0, SVG Export Plug-In . SVG Version: 6.00 Build 0)  -->
<!DOCTYPE svg PUBLIC "-//W3C//DTD SVG 1.1//EN" "http://www.w3.org/Graphics/SVG/1.1/DTD/svg11.dtd">
<svg version="1.1" id="Items" xmlns="http://www.w3.org/2000/svg" xmlns:xlink="http://www.w3.org/1999/xlink" x="0px" y="0px"
	 width="14.395px" height="38.002px" viewBox="0 0 14.395 38.002" style="enable-background:new 0 0 14.395 38.002;"
	 xml:space="preserve">
<g id="Paper_clip_9_">
	<path style="opacity:0.1;fill:#23417D;" d="M6.644,38.002c-2.713,0-5.121-2.208-5.121-4.921V7.047c0-3.273,3.263-5.936,6.536-5.936
		c3.273,0,6.336,2.663,6.336,5.936v17.168h-1.303V7.047c0-2.555-2.479-4.633-5.033-4.633c-2.555,0-5.233,2.078-5.233,4.633v26.034
		c0,1.995,1.823,3.618,3.818,3.618c1.995,0,3.818-1.623,3.818-3.618V9.486c0-1.386-1.128-2.514-2.515-2.514
		c-1.386,0-2.514,1.128-2.514,2.514V25.03H4.13V9.486c0-2.105,1.712-3.818,3.817-3.818c2.105,0,3.818,1.713,3.818,3.818v23.596
		C11.765,35.795,9.358,38.002,6.644,38.002z"/>
	<path style="fill:#FFB850;" d="M5.582,37.159c-2.713,0-5.121-2.208-5.121-4.921V6.204c0-3.273,3.263-5.936,6.536-5.936
		c3.273,0,6.336,2.663,6.336,5.936v17.168H12.03V6.204c0-2.555-2.478-4.633-5.033-4.633S1.764,3.649,1.764,6.204v26.034
		c0,1.995,1.823,3.618,3.818,3.618c1.995,0,3.818-1.623,3.818-3.618V8.643c0-1.386-1.128-2.514-2.515-2.514S4.371,7.256,4.371,8.643
		v15.544H3.067V8.643c0-2.105,1.713-3.818,3.818-3.818s3.817,1.712,3.817,3.818v23.596C10.702,34.952,8.295,37.159,5.582,37.159z"/>
</g>
</svg>
