<?xml version="1.0" encoding="utf-8"?>
<!-- Generator: Adobe Illustrator 17.0.0, SVG Export Plug-In . SVG Version: 6.00 Build 0)  -->
<!DOCTYPE svg PUBLIC "-//W3C//DTD SVG 1.1//EN" "http://www.w3.org/Graphics/SVG/1.1/DTD/svg11.dtd">
<svg version="1.1" id="图层_1" xmlns="http://www.w3.org/2000/svg" xmlns:xlink="http://www.w3.org/1999/xlink" x="0px" y="0px"
	 width="240.306px" height="373.809px" viewBox="0 0 240.306 373.809" enable-background="new 0 0 240.306 373.809"
	 xml:space="preserve">
<g id="画板的参考线">
</g>
<g id="图层_1_1_">
	<path fill="#E5AF28" d="M237.846,358.095c1.144,0.583,0.464,2.95-0.039,3.65c-1.733,2.72-3.673,1.537-3.503,2.388
		c0.091,0.453,0.666,0.878,1.723,0.589c0.801-0.219,2.756-2.418,3.617-1.677c0.85,0.734-0.097,1.864-1.332,2.432
		c-1.405,0.646-3.377,0.128-3.236,0.721c0.186,0.781,1.484,1.145,2.076,0.791c1.028-0.615,2.043-0.703,2.182-0.041
		c0.202,0.961-1.153,1.553-3.016,0.97c-0.228-0.072-0.338,0.002-0.344,0.148c0.362,0.377,0.717,0.774,1.066,1.188
		c0.615,0.266,1.453,0.268,2.384-0.468c0.76,0.935,0.943,3.354,0.542,4.632c-0.002,0.013-0.006,0.027-0.011,0.037
		c-0.015,0.006-0.023,0.006-0.036,0.011c-1.277,0.402-3.697,0.218-4.633-0.543c0.736-0.929,0.732-1.765,0.467-2.38
		c-0.415-0.349-0.81-0.705-1.188-1.067c-0.147,0.006-0.218,0.112-0.147,0.341c0.583,1.864-0.01,3.219-0.97,3.016
		c-0.663-0.139-0.574-1.154,0.041-2.182c0.354-0.591-0.01-1.889-0.791-2.076c-0.593-0.141-0.075,1.83-0.722,3.235
		c-0.568,1.235-1.698,2.183-2.432,1.332c-0.743-0.858,1.457-2.813,1.676-3.614c0.288-1.057-0.136-1.632-0.589-1.722
		c-0.851-0.17,0.331,1.77-2.388,3.503c-0.7,0.503-3.067,1.183-3.65,0.039c-0.193-0.379,0.227-1.355,1.95-1.231
		c0.855,0.062,2.693-0.504,1.99-2.178c-0.591-1.407,1.086-1.911,0.695-2.893c-0.321-0.809,0.599-1.174,1.535-0.756
		c0.015,0.006,0.029,0.013,0.044,0.019c-0.006-0.015-0.012-0.03-0.019-0.044c-0.419-0.936-0.054-1.856,0.755-1.535
		c0.983,0.391,1.487-1.286,2.894-0.695c1.673,0.703,2.239-1.135,2.178-1.99C236.49,358.322,237.467,357.902,237.846,358.095z
		 M229.299,351c-0.55-1.073-2.031-0.127-0.579,1.524c1.407,1.6,4.25,0.222,4.392-2.19c0.137-2.329-1.89-2.621-2.792-3.522
		c-0.741-0.741-0.987-1.668-0.546-2.428c0.644-1.111,2.242-1.968,1.672-2.215c-2.163-0.942-3.463,1.029-3.672,2.24
		c-0.126,0.726,0.098,2.169,0.513,2.958c-1.679,1.015-2.529,1.654-3.167,2.922c-0.742,1.472-0.794,3.066-0.043,4.649
		c-0.175,0.472-0.071,1.024,0.306,1.402c0.25,0.25,0.573,0.379,0.901,0.387c1.761,1.991,4.467,3.362,7.043,1.686
		c2.559-1.666,3.641-2.599,6.979-1.509c-0.649-1.58-1.494-2.655-3.644-2.944c-0.452-1.318-2.206-1.572-2.967-1.69
		c1.155,2.314-0.316,3.885-2.405,4.701c-1.211,0.473-2.787-0.561-3.661-1.369c0.061-0.403-0.061-0.829-0.37-1.138
		c-0.2-0.201-0.452-0.323-0.713-0.368c-0.412-0.964-0.42-2.054,0.066-3.141c0.483-1.074,1.52-1.783,2.585-2.079
		c0.546-0.152,1.927-0.109,2.019,1.124C231.308,351.235,229.955,352.277,229.299,351z M215.228,348.73l0.009,0.006l-0.976-4.447
		l-4.402-0.966c-0.054-0.012-0.05-0.012-0.041,0.033l0.969,4.407l4.447,0.976L215.228,348.73z M225.871,359.364
		c-0.004,0.004-0.008,0.008-0.012,0.012c-0.005,0.005-0.01,0.01-0.015,0.016c-0.004,0.005-0.008,0.009-0.013,0.013
		c-0.132,0.145-0.21,0.338-0.21,0.549c0.001,0.452,0.364,0.819,0.812,0.819c0.219,0,0.416-0.086,0.563-0.227
		c0.001-0.001,0.002-0.001,0.003-0.003c0.007-0.006,0.014-0.013,0.021-0.019c0.006-0.006,0.012-0.013,0.019-0.02
		c0.001-0.001,0.002-0.002,0.002-0.002c0.141-0.148,0.23-0.347,0.23-0.566c0-0.449-0.367-0.812-0.819-0.813
		c-0.211,0-0.406,0.08-0.552,0.213c-0.004,0.004-0.008,0.008-0.012,0.012C225.882,359.354,225.876,359.359,225.871,359.364z
		 M224.262,357.728c-0.005,0.005-0.011,0.01-0.016,0.015c-0.003,0.002-0.005,0.004-0.007,0.007c-0.005,0.005-0.01,0.011-0.015,0.016
		c-0.002,0.003-0.005,0.005-0.007,0.007c-0.112,0.121-0.178,0.285-0.178,0.463c0,0.373,0.302,0.676,0.675,0.676
		c0.193,0,0.363-0.079,0.487-0.207c0.128-0.124,0.209-0.296,0.209-0.489c0-0.373-0.303-0.675-0.675-0.675
		c-0.178,0-0.343,0.068-0.464,0.18C224.267,357.723,224.265,357.726,224.262,357.728z M221.182,344.79
		c0.962,1.216-0.937,1.923-0.206,2.905c0.508,0.681,1.695-0.667,1.946-1.658c0.559-2.208-1.897-3.914-3.87-3.299
		c-1.326,0.413-2.305,1.501-2.674,2.829c-0.431,1.556-0.194,2.443,0.185,4.422c-0.008,0.017-0.014,0.038-0.022,0.058
		c-0.019,0.008-0.038,0.012-0.056,0.02c-1.978-0.38-2.866-0.616-4.422-0.185c-1.328,0.369-2.416,1.347-2.829,2.673
		c-0.615,1.973,1.091,4.429,3.298,3.87c0.992-0.251,2.34-1.439,1.659-1.946c-0.982-0.731-1.689,1.167-2.906,0.205
		c-0.654-0.517-0.892-1.445-0.195-2.191c1.252-1.339,3.186-1.374,4.275-0.239c1.09,1.137,2.035,2.728,3.444,3.636
		c1.117,0.705,2.182,0.597,3.171-0.308c-0.008-0.042-0.017-0.082-0.025-0.122c0.04,0.008,0.08,0.017,0.122,0.025
		c0.906-0.99,1.013-2.055,0.309-3.172c-0.908-1.409-2.499-2.354-3.636-3.444c-1.135-1.09-1.101-3.023,0.239-4.275
		C219.736,343.897,220.665,344.135,221.182,344.79z M224.911,366.829c1.676-2.576,0.305-5.281-1.686-7.043
		c-0.008-0.328-0.137-0.651-0.387-0.9c-0.378-0.378-0.93-0.481-1.402-0.307c-1.583-0.751-3.177-0.699-4.65,0.043
		c-1.268,0.638-1.906,1.489-2.922,3.167c-0.79-0.415-2.232-0.639-2.958-0.512c-1.211,0.209-3.181,1.509-2.24,3.672
		c0.248,0.57,1.104-1.028,2.215-1.672c0.759-0.441,1.687-0.196,2.428,0.546c0.902,0.902,1.193,2.929,3.523,2.792
		c2.411-0.142,3.79-2.985,2.189-4.392c-1.651-1.451-2.597,0.029-1.524,0.579c1.277,0.655,0.235,2.009-0.997,1.917
		c-1.233-0.093-1.276-1.473-1.124-2.019c0.295-1.065,1.004-2.102,2.078-2.585c1.087-0.486,2.177-0.478,3.141-0.066
		c0.045,0.261,0.167,0.513,0.368,0.713c0.309,0.309,0.735,0.431,1.138,0.37c0.808,0.874,1.842,2.449,1.369,3.66
		c-0.816,2.089-2.387,3.56-4.701,2.405c0.117,0.761,0.372,2.515,1.69,2.967c0.289,2.151,1.364,2.996,2.944,3.645
		C222.313,370.469,223.245,369.388,224.911,366.829z M194.168,368.092c-2.966-0.578-4.957,0.032-6.397,1.569H52.601v0.07
		c-1.445-1.589-3.452-2.225-6.462-1.639c-4.208,0.819-7.584,2.934-9.91,5.433c1.644-0.809,4.415-2.242,6.218-2.045
		c1.696,0.185,1.569,1.721,2.672,1.689c0.723-0.021,1.14-0.822,0.876-1.424c-0.285-0.65-1.465-1.165-0.492-1.237
		c0.969-0.071,1.558,0.713,1.855,1.603c0.213,0.637,0.948,1.106,1.504,0.782c0.803-0.467,0.347-1.37-0.025-1.73
		c-0.27-0.261-0.023-0.846,0.798-0.568c0.604,0.205,0.766,1.107,0.949,1.82c0.181,0.712,0.534,1.354,1.663,1.25
		c0.88-0.08,1.638-0.965,1.496-2.001h132.823c-0.142,1.036,0.616,1.921,1.497,2.001c1.129,0.104,1.482-0.538,1.663-1.25
		c0.182-0.713,0.344-1.615,0.949-1.82c0.82-0.278,1.067,0.308,0.798,0.568c-0.372,0.36-0.828,1.263-0.025,1.73
		c0.557,0.323,1.292-0.145,1.504-0.782c0.296-0.89,0.885-1.674,1.855-1.603c0.973,0.072-0.208,0.587-0.492,1.237
		c-0.264,0.602,0.153,1.403,0.876,1.424c1.104,0.033,0.976-1.504,2.672-1.689c1.803-0.197,4.574,1.237,6.217,2.045
		C201.751,371.026,198.376,368.911,194.168,368.092z M227.782,361.268L227.782,361.268c-0.007,0.007-0.012,0.011-0.017,0.017
		l-0.002,0.002c-0.006,0.006-0.012,0.011-0.017,0.017l-0.001,0.002c-0.186,0.196-0.3,0.461-0.3,0.753
		c0,0.603,0.491,1.095,1.094,1.094c0.291,0.001,0.554-0.116,0.751-0.303h0.001c0.01-0.009,0.019-0.018,0.028-0.027
		c0.01-0.009,0.017-0.018,0.026-0.027c0-0.001,0-0.001,0-0.001c0.187-0.197,0.306-0.464,0.306-0.754
		c0-0.604-0.492-1.094-1.094-1.094c-0.291,0-0.558,0.116-0.755,0.302l-0.002,0.001C227.793,361.257,227.788,361.262,227.782,361.268
		z M14.897,358.216c0,0.193,0.081,0.365,0.209,0.489c0.124,0.128,0.294,0.207,0.487,0.207c0.373,0,0.675-0.302,0.675-0.676
		c0-0.178-0.067-0.342-0.178-0.463c-0.003-0.003-0.005-0.004-0.007-0.007c-0.005-0.005-0.01-0.011-0.015-0.016
		c-0.002-0.003-0.004-0.004-0.007-0.007c-0.005-0.005-0.011-0.01-0.016-0.015c-0.003-0.002-0.005-0.005-0.007-0.007
		c-0.122-0.111-0.286-0.18-0.465-0.18C15.199,357.541,14.897,357.843,14.897,358.216z M29.519,347.764l0.969-4.407
		c0.009-0.046,0.013-0.046-0.041-0.033l-4.402,0.966l-0.976,4.447l0.009-0.006l-0.006,0.01L29.519,347.764z M17.384,346.037
		c0.251,0.992,1.438,2.339,1.946,1.658c0.731-0.982-1.168-1.689-0.206-2.905c0.517-0.654,1.445-0.892,2.191-0.195
		c1.339,1.252,1.374,3.186,0.239,4.275c-1.137,1.09-2.728,2.035-3.636,3.444c-0.705,1.117-0.597,2.182,0.309,3.172
		c0.042-0.008,0.082-0.017,0.122-0.025c-0.008,0.04-0.017,0.08-0.025,0.122c0.989,0.905,2.054,1.013,3.171,0.308
		c1.409-0.907,2.354-2.499,3.444-3.636c1.09-1.135,3.023-1.101,4.275,0.239c0.698,0.746,0.459,1.674-0.195,2.191
		c-1.216,0.962-1.923-0.937-2.906-0.205c-0.681,0.507,0.667,1.695,1.659,1.946c2.207,0.559,3.913-1.898,3.299-3.87
		c-0.413-1.326-1.501-2.304-2.829-2.673c-1.556-0.431-2.443-0.195-4.422,0.185c-0.018-0.008-0.037-0.013-0.056-0.02
		c-0.008-0.02-0.014-0.04-0.022-0.058c0.379-1.979,0.616-2.866,0.185-4.422c-0.37-1.328-1.348-2.416-2.674-2.829
		C19.281,342.123,16.825,343.829,17.384,346.037z M6.98,358.414c2.576,1.676,5.281,0.305,7.043-1.686
		c0.328-0.008,0.651-0.137,0.901-0.387c0.378-0.378,0.481-0.93,0.306-1.402c0.752-1.583,0.7-3.177-0.043-4.649
		c-0.638-1.269-1.488-1.907-3.167-2.922c0.415-0.79,0.639-2.232,0.512-2.958c-0.209-1.211-1.509-3.181-3.672-2.24
		c-0.57,0.248,1.028,1.104,1.672,2.215c0.441,0.759,0.196,1.686-0.545,2.428c-0.902,0.902-2.93,1.193-2.792,3.522
		c0.142,2.411,2.985,3.79,4.392,2.19c1.452-1.651-0.029-2.597-0.579-1.524c-0.655,1.278-2.009,0.235-1.916-0.997
		c0.092-1.233,1.473-1.276,2.019-1.124c1.065,0.295,2.102,1.004,2.585,2.079c0.486,1.087,0.478,2.177,0.066,3.141
		c-0.261,0.045-0.512,0.167-0.713,0.368c-0.309,0.309-0.431,0.735-0.37,1.138c-0.874,0.808-2.45,1.841-3.661,1.369
		c-2.089-0.816-3.56-2.387-2.405-4.701c-0.761,0.117-2.515,0.372-2.967,1.69c-2.151,0.287-2.996,1.361-3.645,2.941
		C3.339,355.815,4.421,356.748,6.98,358.414z M5.082,350.954c-0.56-0.843-2.476-3.151-1.893-3.985
		c0.692-0.989,3.164-1.123,3.406-2.917c0.134-0.984-0.019-1.434-1.078-0.669c-0.565,0.408-1.077,0.702-1.508,0.409
		c-0.473-0.32-0.051-0.92,0.464-1.429c0.649-0.642,1.45-0.605,2.214-0.853c1.355-0.439,3.285-1.701,3.478-3.98
		c0.062-0.732-0.271-1.903-1.405-0.654c-0.597,0.657-1.6,1.337-2.275,0.974c-0.855-0.462,0.729-1.762,1.645-2.294
		c1.404-0.816,2.718-1.91,2.512-3.977c-0.089-0.891-0.525-1.075-1.523,0.017c-0.412,0.451-1.322,0.586-0.662-0.306
		c1.352-1.828,2.465-4.108,2.539-6.442c0.037-1.168-0.164-2.083-0.5-2.772V51.732c0.336-0.689,0.537-1.604,0.5-2.772
		c-0.074-2.334-1.187-4.614-2.539-6.442c-0.66-0.892,0.25-0.757,0.662-0.306c0.998,1.093,1.435,0.909,1.523,0.017
		c0.206-2.066-1.108-3.161-2.512-3.977c-0.916-0.532-2.501-1.833-1.645-2.294c0.675-0.364,1.678,0.316,2.275,0.973
		c1.134,1.25,1.466,0.078,1.405-0.654c-0.193-2.279-2.122-3.541-3.478-3.98c-0.764-0.248-1.565-0.211-2.214-0.854
		c-0.515-0.509-0.937-1.109-0.464-1.43c0.431-0.293,0.943,0.001,1.508,0.41c1.059,0.765,1.212,0.314,1.078-0.67
		c-0.242-1.794-2.714-1.928-3.406-2.917c-0.583-0.833,1.333-3.142,1.893-3.985c0.253-0.382,0.165-0.48-0.24-0.253
		c-2.175,1.221-4.452,4.215-4.286,6.709c0.299,4.462,2.773,8.551,5.501,12.09c1.564,2.031,2.745,3.878,3.004,5.67
		c0.405,2.795-1.029,1.977-2.229,3.617c-0.966,1.322,0.237,2.715,1.662,2.593v267.251c-1.425-0.121-2.628,1.272-1.662,2.594
		c0.577,0.789,1.207,1.01,1.662,1.337v0.761H9.05c0.097,0.342,0.112,0.816,0.01,1.518c-0.259,1.793-1.439,3.639-3.003,5.67
		c-2.728,3.54-5.202,7.628-5.501,12.091c-0.167,2.494,2.11,5.487,4.286,6.708C5.246,351.435,5.335,351.336,5.082,350.954z
		 M10.961,362.795c0,0,0,0.001,0,0.002c0.009,0.009,0.016,0.018,0.026,0.027c0.009,0.009,0.018,0.018,0.028,0.027h0.001
		c0.197,0.188,0.46,0.304,0.751,0.303c0.604,0.001,1.094-0.491,1.094-1.094c0-0.292-0.114-0.556-0.3-0.753
		c0-0.001-0.001-0.002-0.001-0.002c-0.005-0.006-0.011-0.011-0.017-0.017c0,0-0.001-0.002-0.002-0.002
		c-0.006-0.006-0.01-0.011-0.017-0.017h-0.001c-0.006-0.006-0.011-0.011-0.017-0.017l-0.002-0.001
		c-0.197-0.186-0.464-0.302-0.755-0.302c-0.603,0-1.095,0.491-1.094,1.094C10.655,362.332,10.775,362.598,10.961,362.795z
		 M19.848,370.163c1.318-0.452,1.572-2.206,1.69-2.967c-2.314,1.155-3.885-0.316-4.701-2.405c-0.473-1.211,0.561-2.787,1.369-3.66
		c0.403,0.06,0.829-0.061,1.138-0.37c0.2-0.2,0.323-0.452,0.368-0.713c0.964-0.412,2.055-0.42,3.141,0.066
		c1.074,0.483,1.783,1.52,2.079,2.585c0.151,0.546,0.109,1.927-1.125,2.019c-1.232,0.093-2.274-1.261-0.997-1.917
		c1.073-0.55,0.126-2.031-1.524-0.579c-1.601,1.407-0.222,4.25,2.189,4.392c2.329,0.137,2.621-1.89,3.523-2.792
		c0.741-0.741,1.668-0.987,2.428-0.546c1.109,0.645,1.965,2.242,2.213,1.672c0.941-2.163-1.029-3.463-2.24-3.672
		c-0.726-0.126-2.169,0.098-2.958,0.512c-1.015-1.679-1.654-2.529-2.922-3.167c-1.473-0.742-3.067-0.794-4.65-0.043
		c-0.472-0.175-1.024-0.071-1.402,0.307c-0.25,0.25-0.379,0.572-0.387,0.9c-1.991,1.761-3.362,4.467-1.686,7.043
		c1.667,2.56,2.6,3.641,1.51,6.98C18.484,373.159,19.558,372.314,19.848,370.163z M4.853,322.064V51.744
		c1.001-1.363,1.343-3.148,0.864-5.606c-0.819-4.208-2.934-7.584-5.433-9.91c0.809,1.644,2.241,4.415,2.045,6.218
		c-0.184,1.697-1.721,1.569-1.688,2.672c0.02,0.723,0.822,1.14,1.424,0.876c0.65-0.285,1.166-1.465,1.237-0.492
		c0.071,0.97-0.713,1.558-1.604,1.855c-0.637,0.213-1.106,0.948-0.782,1.504c0.467,0.803,1.37,0.347,1.73-0.025
		c0.261-0.27,0.846-0.023,0.569,0.798c-0.205,0.604-1.107,0.766-1.82,0.949c-0.712,0.181-1.354,0.534-1.25,1.663
		c0.098,1.076,1.396,1.981,2.706,1.261v266.796c-1.31-0.721-2.607,0.185-2.706,1.26c-0.104,1.129,0.537,1.482,1.25,1.663
		c0.495,0.126,1.075,0.247,1.456,0.508v1.336c-0.075-0.009-0.148-0.039-0.204-0.097c-0.36-0.372-1.263-0.829-1.73-0.025
		c-0.323,0.556,0.145,1.292,0.782,1.504c0.89,0.297,1.675,0.885,1.604,1.854c-0.072,0.973-0.587-0.207-1.237-0.492
		c-0.602-0.264-1.403,0.153-1.424,0.876c-0.033,1.104,1.504,0.975,1.688,2.672c0.196,1.802-1.236,4.574-2.045,6.217
		c2.499-2.326,4.614-5.702,5.433-9.91C6.195,325.212,5.853,323.427,4.853,322.064z M13.036,359.936c0,0.219,0.088,0.418,0.229,0.566
		c0,0,0.001,0.001,0.002,0.002c0.007,0.007,0.012,0.013,0.019,0.02c0.007,0.007,0.014,0.013,0.021,0.019
		c0.001,0.001,0.002,0.001,0.003,0.003c0.147,0.14,0.345,0.227,0.563,0.227c0.449,0,0.812-0.367,0.812-0.819
		c0-0.211-0.078-0.404-0.21-0.549c-0.004-0.004-0.009-0.009-0.013-0.013c-0.005-0.006-0.01-0.011-0.015-0.016
		c-0.004-0.004-0.008-0.008-0.012-0.012c-0.005-0.005-0.011-0.01-0.016-0.015c-0.004-0.004-0.008-0.008-0.012-0.012
		c-0.145-0.133-0.341-0.213-0.552-0.213C13.403,359.124,13.036,359.487,13.036,359.936z M4.556,370.544
		c0.415-0.349,0.81-0.705,1.187-1.067c0.147,0.005,0.218,0.112,0.147,0.341c-0.583,1.864,0.01,3.219,0.97,3.016
		c0.662-0.139,0.574-1.154-0.041-2.182c-0.354-0.591,0.01-1.889,0.791-2.076c0.593-0.141,0.075,1.83,0.722,3.235
		c0.568,1.235,1.698,2.183,2.432,1.332c0.742-0.861-1.458-2.816-1.677-3.617c-0.289-1.057,0.136-1.632,0.589-1.722
		c0.851-0.17-0.331,1.77,2.388,3.503c0.7,0.503,3.067,1.183,3.65,0.039c0.193-0.379-0.227-1.355-1.95-1.231
		c-0.855,0.062-2.693-0.504-1.99-2.178c0.591-1.407-1.086-1.911-0.695-2.893c0.321-0.809-0.599-1.174-1.535-0.756
		c-0.015,0.008-0.029,0.015-0.044,0.021c0.006-0.015,0.013-0.03,0.019-0.044c0.419-0.936,0.054-1.856-0.755-1.535
		c-0.982,0.391-1.487-1.286-2.894-0.695c-1.673,0.703-2.239-1.135-2.178-1.99c0.125-1.723-0.852-2.143-1.231-1.95
		c-1.144,0.583-0.464,2.95,0.039,3.65c1.733,2.72,3.673,1.537,3.503,2.388c-0.09,0.453-0.666,0.878-1.722,0.589
		c-0.801-0.219-2.756-2.418-3.616-1.677c-0.85,0.734,0.097,1.864,1.332,2.432c1.405,0.646,3.376,0.129,3.235,0.722
		c-0.186,0.781-1.484,1.144-2.076,0.791c-1.028-0.615-2.043-0.703-2.182-0.041c-0.202,0.961,1.153,1.553,3.017,0.97
		c0.228-0.071,0.337,0.002,0.344,0.148c-0.362,0.377-0.717,0.773-1.066,1.188c-0.616,0.266-1.454,0.268-2.384-0.468
		c-0.76,0.935-0.943,3.354-0.542,4.632c0.001,0.013,0.005,0.027,0.011,0.037c0.015,0.005,0.023,0.006,0.035,0.011
		c1.277,0.402,3.697,0.218,4.633-0.543C4.286,371.995,4.29,371.159,4.556,370.544z M48.961,362.813
		c-2.333,0.074-4.614,1.187-6.442,2.539c-0.892,0.66-0.757-0.25-0.306-0.662c1.093-0.998,0.909-1.435,0.017-1.524
		c-2.066-0.205-3.161,1.108-3.977,2.512c-0.532,0.916-1.833,2.501-2.294,1.645c-0.364-0.674,0.316-1.678,0.973-2.275
		c1.25-1.134,0.078-1.466-0.654-1.405c-2.279,0.193-3.54,2.122-3.98,3.477c-0.248,0.764-0.212,1.565-0.854,2.214
		c-0.509,0.515-1.109,0.936-1.43,0.464c-0.293-0.431,0.001-0.943,0.41-1.509c0.765-1.059,0.314-1.212-0.67-1.078
		c-1.794,0.243-1.928,2.714-2.917,3.406c-0.834,0.584-3.142-1.332-3.985-1.892c-0.382-0.254-0.48-0.165-0.253,0.24
		c1.221,2.176,4.215,4.453,6.708,4.286c4.462-0.299,8.551-2.773,12.091-5.501c2.031-1.564,3.878-2.744,5.67-3.004
		c2.795-0.405,1.977,1.029,3.617,2.229c1.094,0.8,2.239,0.112,2.532-0.957h133.867c0.293,1.069,1.438,1.757,2.532,0.957
		c1.64-1.2,0.822-2.633,3.617-2.229c1.792,0.259,3.639,1.44,5.67,3.004c3.54,2.728,7.629,5.202,12.091,5.501
		c2.494,0.167,5.487-2.11,6.708-4.286c0.227-0.405,0.129-0.493-0.253-0.24c-0.843,0.56-3.151,2.476-3.985,1.892
		c-0.988-0.692-1.123-3.164-2.917-3.406c-0.984-0.134-1.435,0.018-0.67,1.078c0.408,0.566,0.702,1.077,0.409,1.509
		c-0.32,0.472-0.92,0.051-1.43-0.464c-0.642-0.649-0.605-1.45-0.854-2.214c-0.439-1.355-1.701-3.285-3.98-3.477
		c-0.732-0.062-1.904,0.271-0.654,1.405c0.657,0.597,1.337,1.6,0.974,2.275c-0.462,0.856-1.762-0.729-2.294-1.645
		c-0.816-1.404-1.911-2.718-3.977-2.512c-0.891,0.089-1.075,0.525,0.017,1.524c0.451,0.412,0.586,1.322-0.306,0.662
		c-1.828-1.352-4.108-2.465-6.442-2.539c-1.847-0.059-3.082,0.466-3.745,1.205H52.706C52.043,363.278,50.808,362.754,48.961,362.813
		z M220.458,3.645c-1.318,0.452-1.572,2.206-1.69,2.967c2.314-1.155,3.885,0.316,4.701,2.405c0.473,1.211-0.561,2.787-1.369,3.661
		c-0.403-0.061-0.829,0.061-1.138,0.37c-0.2,0.201-0.323,0.452-0.368,0.713c-0.964,0.412-2.054,0.42-3.141-0.066
		c-1.074-0.483-1.783-1.52-2.078-2.585c-0.152-0.546-0.109-1.926,1.124-2.019c1.232-0.093,2.275,1.261,0.997,1.916
		c-1.073,0.55-0.127,2.031,1.524,0.579c1.601-1.407,0.222-4.249-2.189-4.392c-2.329-0.137-2.621,1.89-3.523,2.792
		c-0.741,0.741-1.668,0.987-2.428,0.546c-1.111-0.644-1.967-2.242-2.215-1.671c-0.942,2.163,1.029,3.463,2.24,3.672
		c0.726,0.126,2.169-0.098,2.958-0.512c1.015,1.679,1.654,2.529,2.922,3.167c1.473,0.742,3.067,0.794,4.65,0.043
		c0.472,0.175,1.024,0.072,1.402-0.306c0.25-0.25,0.379-0.573,0.387-0.901c1.991-1.761,3.362-4.466,1.686-7.043
		c-1.666-2.559-2.599-3.641-1.509-6.979C221.822,0.649,220.748,1.494,220.458,3.645z M229.345,11.014L229.345,11.014
		c-0.009-0.01-0.016-0.019-0.026-0.028c-0.009-0.009-0.018-0.018-0.028-0.027h-0.001c-0.197-0.188-0.46-0.303-0.751-0.303
		c-0.604,0-1.094,0.492-1.094,1.095c0,0.292,0.114,0.556,0.3,0.753c0,0.001,0.001,0.002,0.001,0.003
		c0.005,0.006,0.011,0.011,0.017,0.017c0.001,0,0.001,0.001,0.001,0.001c0.006,0.006,0.011,0.011,0.017,0.018h0.001
		c0.006,0.006,0.011,0.011,0.017,0.017c0,0.001,0.002,0.001,0.002,0.001c0.197,0.186,0.464,0.303,0.755,0.303
		c0.603,0,1.095-0.491,1.094-1.095C229.651,11.477,229.532,11.211,229.345,11.014z M227.27,13.872c0-0.219-0.088-0.418-0.229-0.566
		c-0.001-0.001-0.001-0.001-0.002-0.002c-0.007-0.007-0.013-0.014-0.019-0.02c-0.007-0.006-0.014-0.013-0.021-0.02
		c-0.001-0.001-0.001-0.001-0.001-0.001c-0.148-0.141-0.346-0.228-0.564-0.228c-0.449,0-0.812,0.367-0.812,0.819
		c0,0.211,0.079,0.404,0.21,0.549c0.005,0.004,0.009,0.009,0.013,0.013c0.005,0.006,0.01,0.011,0.015,0.016
		c0.005,0.004,0.008,0.008,0.012,0.012c0.005,0.005,0.011,0.01,0.016,0.015c0.004,0.004,0.008,0.008,0.012,0.012
		c0.145,0.133,0.341,0.213,0.552,0.213C226.903,14.684,227.27,14.321,227.27,13.872z M235.751,3.264
		c-0.415,0.35-0.81,0.706-1.188,1.068c-0.147-0.006-0.218-0.113-0.147-0.341c0.583-1.863-0.01-3.218-0.97-3.016
		c-0.663,0.139-0.574,1.154,0.041,2.182c0.354,0.592-0.01,1.889-0.791,2.076c-0.593,0.141-0.075-1.83-0.722-3.236
		c-0.568-1.235-1.698-2.183-2.432-1.332c-0.741,0.861,1.458,2.815,1.677,3.616c0.288,1.057-0.136,1.632-0.589,1.723
		c-0.851,0.17,0.331-1.77-2.388-3.503c-0.7-0.504-3.067-1.183-3.65-0.039c-0.193,0.379,0.227,1.356,1.95,1.231
		c0.855-0.061,2.693,0.505,1.99,2.178c-0.591,1.407,1.086,1.911,0.695,2.893c-0.321,0.809,0.599,1.174,1.535,0.755
		c0.015-0.006,0.029-0.013,0.044-0.019c-0.006,0.015-0.012,0.03-0.019,0.045c-0.419,0.936-0.054,1.856,0.755,1.535
		c0.983-0.391,1.487,1.286,2.894,0.695c1.673-0.703,2.239,1.135,2.178,1.99c-0.125,1.723,0.852,2.143,1.231,1.95
		c1.144-0.583,0.464-2.95-0.039-3.65c-1.733-2.72-3.673-1.537-3.503-2.388c0.091-0.453,0.666-0.878,1.723-0.589
		c0.801,0.219,2.756,2.418,3.617,1.677c0.85-0.734-0.097-1.864-1.332-2.432c-1.405-0.646-3.377-0.129-3.236-0.722
		c0.186-0.781,1.484-1.145,2.076-0.791c1.028,0.615,2.043,0.703,2.182,0.041c0.202-0.961-1.153-1.553-3.016-0.97
		c-0.228,0.071-0.338-0.002-0.344-0.148c0.362-0.377,0.717-0.774,1.066-1.188c0.615-0.266,1.453-0.268,2.384,0.468
		c0.76-0.935,0.943-3.354,0.542-4.632c-0.002-0.013-0.006-0.027-0.011-0.036c-0.015-0.006-0.023-0.007-0.036-0.011
		c-1.277-0.402-3.697-0.218-4.633,0.543C236.02,1.813,236.016,2.649,235.751,3.264z M235.512,51.821v270.167
		c-1.046,1.372-1.41,3.177-0.922,5.682c0.819,4.208,2.934,7.584,5.433,9.91c-0.809-1.644-2.242-4.415-2.045-6.217
		c0.184-1.697,1.721-1.568,1.688-2.672c-0.02-0.724-0.822-1.14-1.424-0.876c-0.65,0.285-1.166,1.465-1.237,0.492
		c-0.071-0.969,0.713-1.558,1.604-1.854c0.637-0.212,1.106-0.948,0.782-1.504c-0.467-0.803-1.37-0.347-1.73,0.025
		c-0.261,0.269-0.846,0.023-0.568-0.798c0.205-0.605,1.107-0.767,1.82-0.949c0.712-0.181,1.354-0.534,1.25-1.663
		c-0.097-1.06-1.357-1.949-2.647-1.287V53.532c1.29,0.662,2.55-0.228,2.647-1.288c0.104-1.129-0.537-1.482-1.25-1.663
		c-0.713-0.182-1.615-0.345-1.82-0.949c-0.278-0.821,0.308-1.067,0.568-0.798c0.36,0.373,1.263,0.828,1.73,0.025
		c0.323-0.557-0.145-1.292-0.782-1.504c-0.89-0.297-1.675-0.885-1.604-1.855c0.072-0.973,0.587,0.208,1.237,0.492
		c0.602,0.264,1.403-0.153,1.424-0.876c0.033-1.104-1.504-0.976-1.688-2.672c-0.197-1.802,1.236-4.574,2.045-6.218
		c-2.499,2.326-4.614,5.702-5.433,9.91C234.102,48.643,234.467,50.449,235.512,51.821z M224.239,16.058
		c0.002,0.002,0.004,0.004,0.007,0.007c0.005,0.005,0.011,0.01,0.016,0.015c0.003,0.002,0.005,0.005,0.007,0.007
		c0.122,0.112,0.286,0.18,0.464,0.18c0.373,0,0.675-0.302,0.675-0.675c0-0.193-0.081-0.365-0.209-0.488
		c-0.124-0.128-0.294-0.207-0.487-0.207c-0.373,0-0.675,0.302-0.675,0.676c0,0.178,0.067,0.342,0.178,0.463
		c0.003,0.003,0.005,0.005,0.007,0.007C224.229,16.047,224.234,16.053,224.239,16.058z M217.705,4.841
		c-1.221-2.175-4.215-4.452-6.708-4.286c-4.462,0.299-8.551,2.773-12.091,5.501c-2.031,1.564-3.878,2.745-5.67,3.004
		c-2.795,0.405-1.977-1.029-3.617-2.228c-1.423-1.041-2.929,0.434-2.537,1.992H53.225c0.392-1.558-1.114-3.033-2.537-1.992
		c-1.64,1.2-0.822,2.633-3.617,2.228c-1.792-0.259-3.639-1.44-5.67-3.004c-3.54-2.728-7.628-5.202-12.091-5.501
		c-2.494-0.167-5.487,2.111-6.708,4.286c-0.227,0.405-0.129,0.493,0.253,0.24c0.843-0.56,3.151-2.476,3.985-1.893
		c0.988,0.692,1.123,3.164,2.917,3.407c0.984,0.134,1.435-0.019,0.67-1.078c-0.408-0.565-0.703-1.077-0.41-1.508
		c0.32-0.473,0.92-0.051,1.43,0.464c0.642,0.648,0.605,1.45,0.854,2.213c0.439,1.355,1.701,3.285,3.98,3.478
		c0.732,0.062,1.903-0.271,0.654-1.405c-0.657-0.597-1.337-1.6-0.973-2.275c0.462-0.855,1.762,0.729,2.294,1.645
		c0.816,1.404,1.911,2.718,3.977,2.512c0.891-0.089,1.075-0.525-0.017-1.524c-0.451-0.412-0.586-1.322,0.306-0.661
		c1.828,1.352,4.109,2.465,6.442,2.539c0.695,0.022,1.294-0.045,1.818-0.169h138.749c0.524,0.124,1.123,0.191,1.818,0.169
		c2.334-0.074,4.614-1.187,6.442-2.539c0.892-0.66,0.757,0.25,0.306,0.661c-1.092,0.999-0.908,1.435-0.017,1.524
		c2.067,0.206,3.161-1.108,3.977-2.512c0.533-0.916,1.833-2.5,2.294-1.645c0.364,0.675-0.317,1.678-0.974,2.275
		c-1.25,1.134-0.078,1.466,0.654,1.405c2.279-0.193,3.54-2.122,3.98-3.478c0.248-0.764,0.211-1.565,0.854-2.213
		c0.509-0.515,1.109-0.937,1.43-0.464c0.293,0.431-0.002,0.943-0.409,1.508c-0.765,1.059-0.315,1.212,0.67,1.078
		c1.794-0.242,1.928-2.714,2.917-3.407c0.834-0.583,3.142,1.333,3.985,1.893C217.834,5.334,217.932,5.246,217.705,4.841z
		 M214.192,19.33c0.681-0.508-0.667-1.695-1.659-1.946c-2.207-0.559-3.913,1.897-3.298,3.87c0.413,1.326,1.501,2.305,2.829,2.674
		c1.556,0.431,2.444,0.195,4.422-0.185c0.018,0.008,0.037,0.012,0.056,0.02c0.008,0.02,0.014,0.04,0.022,0.058
		c-0.38,1.979-0.616,2.866-0.185,4.422c0.37,1.329,1.348,2.416,2.674,2.829c1.973,0.615,4.429-1.091,3.87-3.299
		c-0.251-0.991-1.438-2.339-1.946-1.658c-0.731,0.982,1.168,1.689,0.206,2.905c-0.517,0.654-1.445,0.892-2.191,0.195
		c-1.339-1.252-1.374-3.186-0.239-4.275c1.137-1.09,2.728-2.035,3.636-3.444c0.705-1.117,0.597-2.182-0.309-3.172
		c-0.042,0.008-0.082,0.017-0.122,0.025c0.008-0.04,0.017-0.08,0.025-0.122c-0.989-0.905-2.054-1.013-3.171-0.308
		c-1.409,0.908-2.354,2.499-3.444,3.636c-1.09,1.136-3.023,1.101-4.275-0.239c-0.698-0.745-0.459-1.674,0.195-2.191
		C212.503,18.162,213.21,20.061,214.192,19.33z M235.225,22.854c0.56,0.843,2.476,3.151,1.893,3.985
		c-0.692,0.988-3.164,1.123-3.406,2.917c-0.134,0.984,0.019,1.435,1.078,0.67c0.565-0.408,1.077-0.702,1.508-0.41
		c0.473,0.32,0.051,0.92-0.464,1.43c-0.649,0.642-1.45,0.605-2.214,0.854c-1.355,0.439-3.285,1.701-3.478,3.98
		c-0.062,0.732,0.271,1.904,1.405,0.654c0.597-0.657,1.6-1.337,2.275-0.973c0.855,0.462-0.729,1.762-1.645,2.294
		c-1.404,0.816-2.718,1.911-2.512,3.977c0.089,0.891,0.525,1.075,1.524-0.017c0.412-0.451,1.322-0.586,0.661,0.306
		c-1.352,1.828-2.465,4.108-2.539,6.442c-0.04,1.239,0.184,2.201,0.558,2.901v270.083c-0.374,0.7-0.597,1.662-0.558,2.901
		c0.074,2.334,1.186,4.614,2.539,6.442c0.66,0.892-0.25,0.757-0.661,0.306c-0.999-1.092-1.435-0.909-1.524-0.017
		c-0.206,2.067,1.108,3.161,2.512,3.977c0.916,0.533,2.501,1.833,1.645,2.294c-0.675,0.364-1.678-0.316-2.275-0.974
		c-1.134-1.25-1.466-0.078-1.405,0.654c0.193,2.279,2.122,3.54,3.478,3.98c0.764,0.248,1.565,0.212,2.214,0.853
		c0.515,0.51,0.937,1.109,0.464,1.429c-0.431,0.293-0.943-0.001-1.508-0.409c-1.059-0.765-1.212-0.315-1.078,0.669
		c0.243,1.794,2.714,1.928,3.406,2.917c0.583,0.834-1.333,3.142-1.893,3.985c-0.253,0.382-0.165,0.481,0.24,0.253
		c2.175-1.222,4.452-4.215,4.286-6.708c-0.299-4.462-2.773-8.551-5.501-12.091c-1.564-2.031-2.744-3.877-3.004-5.67
		c-0.404-2.795,1.029-1.977,2.229-3.617c0.953-1.304-0.204-2.679-1.604-2.6V53.287c1.399,0.079,2.557-1.296,1.604-2.6
		c-1.2-1.64-2.633-0.823-2.229-3.617c0.259-1.792,1.44-3.639,3.004-5.67c2.728-3.54,5.202-7.629,5.501-12.09
		c0.167-2.494-2.11-5.487-4.286-6.709C235.06,22.374,234.971,22.472,235.225,22.854z M209.859,30.485l4.402-0.967l0.976-4.447
		l-0.009,0.006l0.006-0.009l-4.447,0.976l-0.969,4.407C209.809,30.497,209.805,30.498,209.859,30.485z M233.326,15.394
		c-2.576-1.676-5.281-0.305-7.043,1.686c-0.328,0.008-0.651,0.137-0.901,0.387c-0.378,0.378-0.481,0.93-0.306,1.402
		c-0.752,1.583-0.7,3.177,0.043,4.65c0.638,1.268,1.488,1.906,3.167,2.922c-0.415,0.79-0.639,2.232-0.513,2.958
		c0.209,1.211,1.509,3.181,3.672,2.24c0.57-0.248-1.028-1.105-1.672-2.215c-0.441-0.759-0.196-1.687,0.546-2.428
		c0.902-0.902,2.929-1.193,2.792-3.522c-0.142-2.411-2.985-3.79-4.392-2.189c-1.452,1.651,0.029,2.597,0.579,1.524
		c0.655-1.277,2.009-0.235,1.917,0.997c-0.092,1.233-1.473,1.276-2.019,1.125c-1.065-0.295-2.102-1.004-2.585-2.079
		c-0.486-1.086-0.478-2.177-0.066-3.141c0.261-0.045,0.512-0.167,0.713-0.368c0.309-0.309,0.431-0.735,0.37-1.138
		c0.874-0.808,2.45-1.842,3.661-1.369c2.089,0.816,3.56,2.388,2.405,4.702c0.761-0.118,2.515-0.372,2.967-1.69
		c2.151-0.29,2.996-1.364,3.644-2.944C236.967,17.993,235.885,17.06,233.326,15.394z M3.692,13.763
		c-0.061-0.855,0.505-2.692,2.178-1.99c1.407,0.591,1.911-1.086,2.894-0.695c0.809,0.321,1.174-0.599,0.755-1.535
		C9.513,9.528,9.507,9.513,9.5,9.498c0.015,0.006,0.029,0.013,0.044,0.019c0.936,0.419,1.856,0.054,1.535-0.755
		c-0.391-0.982,1.286-1.487,0.695-2.893c-0.703-1.673,1.135-2.24,1.99-2.178c1.723,0.125,2.143-0.852,1.95-1.231
		c-0.583-1.144-2.95-0.464-3.65,0.039c-2.719,1.733-1.537,3.673-2.388,3.503C9.223,5.911,8.798,5.336,9.087,4.279
		c0.219-0.801,2.419-2.756,1.677-3.616C10.03-0.187,8.9,0.76,8.332,1.995C7.686,3.401,8.203,5.372,7.61,5.231
		C6.829,5.044,6.465,3.747,6.819,3.155C7.434,2.127,7.522,1.112,6.86,0.973C5.899,0.771,5.307,2.126,5.89,3.989
		c0.071,0.229,0,0.336-0.147,0.341C5.366,3.968,4.97,3.612,4.556,3.262c-0.265-0.615-0.269-1.451,0.466-2.38
		c-0.936-0.76-3.356-0.944-4.633-0.543C0.377,0.344,0.369,0.345,0.353,0.35C0.347,0.36,0.344,0.373,0.342,0.386
		c-0.401,1.278-0.218,3.697,0.542,4.632C1.815,4.281,2.653,4.284,3.268,4.55c0.349,0.414,0.704,0.811,1.066,1.188
		C4.327,5.884,4.218,5.957,3.99,5.886c-1.864-0.583-3.219,0.01-3.016,0.97C1.113,7.518,2.128,7.43,3.156,6.815
		c0.592-0.354,1.889,0.01,2.076,0.791c0.141,0.593-1.83,0.075-3.235,0.722c-1.235,0.568-2.183,1.698-1.332,2.432
		c0.861,0.741,2.815-1.458,3.616-1.677c1.057-0.289,1.632,0.136,1.723,0.589c0.169,0.851-1.771-0.332-3.503,2.388
		c-0.503,0.7-1.183,3.067-0.039,3.65C2.839,15.906,3.817,15.486,3.692,13.763z M27.773,17.384c-0.992,0.251-2.34,1.439-1.659,1.946
		c0.983,0.731,1.689-1.168,2.906-0.206c0.654,0.517,0.892,1.445,0.195,2.191c-1.252,1.339-3.185,1.375-4.275,0.239
		c-1.09-1.137-2.035-2.728-3.444-3.636c-1.117-0.705-2.182-0.597-3.171,0.308c0.008,0.042,0.017,0.082,0.025,0.122
		c-0.04-0.008-0.08-0.017-0.122-0.025c-0.906,0.99-1.013,2.055-0.309,3.172c0.908,1.409,2.499,2.354,3.636,3.444
		c1.135,1.09,1.101,3.023-0.239,4.275c-0.745,0.697-1.674,0.459-2.191-0.195c-0.962-1.216,0.937-1.923,0.206-2.905
		c-0.508-0.681-1.695,0.667-1.946,1.658c-0.559,2.208,1.897,3.914,3.87,3.299c1.326-0.413,2.305-1.501,2.674-2.829
		c0.431-1.556,0.194-2.443-0.185-4.422c0.008-0.017,0.014-0.038,0.022-0.058c0.019-0.008,0.038-0.012,0.056-0.02
		c1.978,0.38,2.866,0.616,4.422,0.185c1.328-0.369,2.416-1.348,2.829-2.674C31.686,19.281,29.98,16.824,27.773,17.384z
		 M26.045,29.519l4.402,0.967c0.054,0.013,0.05,0.012,0.041-0.034l-0.969-4.407l-4.447-0.976l0.006,0.009l-0.009-0.006
		L26.045,29.519z M12.524,12.541L12.524,12.541c0.007-0.007,0.012-0.012,0.017-0.017c0.001-0.001,0.001-0.001,0.002-0.002
		c0.006-0.006,0.012-0.01,0.017-0.017c0.001,0,0.001-0.002,0.001-0.003c0.186-0.196,0.3-0.461,0.3-0.753
		c0-0.603-0.491-1.095-1.094-1.095c-0.291,0-0.554,0.116-0.751,0.303h-0.001c-0.01,0.009-0.019,0.018-0.028,0.027
		c-0.01,0.009-0.017,0.018-0.026,0.027c0,0.001,0,0.001,0,0.001c-0.186,0.197-0.306,0.463-0.306,0.753
		c0,0.603,0.491,1.095,1.094,1.095c0.291,0,0.558-0.117,0.755-0.303c0.001,0,0.002-0.001,0.002-0.001
		C12.513,12.552,12.518,12.546,12.524,12.541z M11.007,22.808c0.55,1.073,2.031,0.127,0.579-1.524
		c-1.407-1.601-4.25-0.222-4.392,2.189c-0.138,2.329,1.89,2.621,2.792,3.522c0.741,0.741,0.986,1.668,0.545,2.428
		c-0.644,1.111-2.242,1.967-1.672,2.215c2.163,0.941,3.463-1.029,3.672-2.24c0.126-0.726-0.098-2.169-0.512-2.958
		c1.679-1.015,2.529-1.654,3.167-2.922c0.742-1.473,0.794-3.067,0.043-4.65c0.175-0.472,0.071-1.024-0.306-1.402
		c-0.25-0.25-0.573-0.379-0.901-0.387c-1.761-1.991-4.466-3.362-7.043-1.686C4.42,17.059,3.338,17.992,0,16.902
		c0.649,1.581,1.494,2.655,3.644,2.944c0.452,1.318,2.206,1.572,2.967,1.69c-1.155-2.314,0.316-3.885,2.405-4.702
		c1.211-0.472,2.787,0.562,3.661,1.369c-0.061,0.403,0.061,0.829,0.37,1.138c0.2,0.2,0.452,0.323,0.713,0.368
		c0.412,0.964,0.42,2.055-0.066,3.141c-0.483,1.074-1.52,1.783-2.585,2.079c-0.547,0.151-1.927,0.108-2.019-1.125
		C8.998,22.573,10.352,21.531,11.007,22.808z M53.461,2.947c0.823-1.343-0.114-2.702-1.216-2.803
		c-1.129-0.104-1.482,0.537-1.663,1.25c-0.175,0.686-0.336,1.539-0.885,1.787h-0.255v0.078c-0.662,0.128-0.854-0.375-0.607-0.613
		c0.373-0.36,0.828-1.263,0.025-1.73c-0.557-0.323-1.292,0.146-1.504,0.782c-0.297,0.89-0.885,1.675-1.855,1.604
		c-0.973-0.072,0.208-0.587,0.492-1.238c0.264-0.602-0.153-1.403-0.876-1.423c-1.103-0.033-0.976,1.504-2.672,1.688
		c-1.802,0.196-4.574-1.237-6.218-2.045c2.326,2.499,5.702,4.614,9.91,5.433c2.166,0.422,3.808,0.206,5.102-0.533h137.825
		c1.294,0.739,2.936,0.955,5.102,0.533c4.208-0.819,7.584-2.934,9.91-5.433c-1.644,0.808-4.415,2.241-6.217,2.045
		c-1.697-0.185-1.569-1.721-2.672-1.688c-0.723,0.02-1.14,0.822-0.876,1.423c0.285,0.65,1.465,1.166,0.492,1.238
		c-0.969,0.071-1.558-0.713-1.855-1.604c-0.213-0.637-0.948-1.106-1.504-0.782c-0.803,0.467-0.347,1.37,0.025,1.73
		c0.247,0.239,0.055,0.742-0.608,0.613V3.181h-0.254c-0.549-0.248-0.709-1.101-0.884-1.787c-0.181-0.712-0.534-1.354-1.663-1.25
		c-1.103,0.101-2.039,1.46-1.216,2.803c0.051,0.084,0.111,0.153,0.164,0.234H53.298C53.351,3.1,53.41,3.031,53.461,2.947z
		 M15.395,6.98c-1.676,2.576-0.305,5.281,1.686,7.043c0.008,0.328,0.137,0.651,0.387,0.901c0.378,0.377,0.93,0.481,1.402,0.306
		c1.583,0.752,3.177,0.7,4.65-0.043c1.268-0.638,1.907-1.488,2.922-3.167c0.79,0.415,2.232,0.638,2.958,0.512
		c1.211-0.209,3.181-1.509,2.24-3.672c-0.248-0.57-1.105,1.027-2.215,1.671c-0.759,0.441-1.687,0.196-2.428-0.546
		c-0.902-0.902-1.193-2.929-3.523-2.792c-2.411,0.142-3.79,2.985-2.189,4.392c1.651,1.452,2.597-0.029,1.524-0.579
		c-1.278-0.655-0.236-2.009,0.997-1.916s1.276,1.473,1.125,2.019c-0.295,1.065-1.004,2.102-2.079,2.585
		c-1.086,0.486-2.177,0.478-3.141,0.066c-0.045-0.261-0.167-0.512-0.368-0.713c-0.309-0.309-0.735-0.431-1.138-0.37
		c-0.808-0.874-1.842-2.45-1.369-3.661c0.816-2.089,2.387-3.56,4.701-2.405c-0.118-0.761-0.372-2.515-1.69-2.967
		C19.558,1.493,18.483,0.648,16.903,0C17.994,3.339,17.061,4.42,15.395,6.98z M14.435,14.445c0.004-0.004,0.008-0.008,0.012-0.012
		c0.005-0.005,0.01-0.01,0.015-0.016c0.004-0.004,0.009-0.009,0.013-0.013c0.132-0.145,0.21-0.338,0.21-0.549
		c0-0.452-0.364-0.819-0.812-0.819c-0.219,0-0.416,0.086-0.563,0.227c-0.001,0.001-0.001,0.001-0.003,0.002
		c-0.007,0.007-0.014,0.013-0.021,0.02c-0.006,0.006-0.012,0.013-0.019,0.02c-0.001,0.001-0.002,0.001-0.002,0.002
		c-0.141,0.148-0.229,0.347-0.229,0.566c0,0.449,0.367,0.812,0.819,0.812c0.211,0,0.406-0.081,0.552-0.213
		c0.004-0.004,0.008-0.008,0.012-0.012C14.424,14.455,14.43,14.449,14.435,14.445z M15.592,14.896c-0.193,0-0.363,0.08-0.487,0.207
		c-0.128,0.124-0.209,0.296-0.209,0.488c0,0.373,0.302,0.675,0.675,0.675c0.178,0,0.343-0.068,0.465-0.18
		c0.002-0.002,0.004-0.005,0.007-0.007c0.005-0.005,0.011-0.01,0.016-0.015c0.003-0.002,0.005-0.004,0.007-0.007
		c0.005-0.005,0.01-0.011,0.015-0.016c0.002-0.003,0.005-0.005,0.007-0.007c0.112-0.121,0.178-0.284,0.178-0.463
		C16.268,15.199,15.965,14.896,15.592,14.896z"/>
</g>
</svg>
