<?xml version="1.0" encoding="utf-8"?>
<!-- Generator: Adobe Illustrator 17.0.0, SVG Export Plug-In . SVG Version: 6.00 Build 0)  -->
<!DOCTYPE svg PUBLIC "-//W3C//DTD SVG 1.1//EN" "http://www.w3.org/Graphics/SVG/1.1/DTD/svg11.dtd">
<svg version="1.1" id="图层_1" xmlns="http://www.w3.org/2000/svg" xmlns:xlink="http://www.w3.org/1999/xlink" x="0px" y="0px"
	 width="126.997px" height="314.41px" viewBox="0 0 126.997 314.41" enable-background="new 0 0 126.997 314.41"
	 xml:space="preserve">
<path fill="#FF3E3E" d="M126.977,74.303l-0.035-0.312l-0.058-0.298l-0.056-0.272l-0.07-0.277l-0.078-0.237l-0.109-0.238l-0.108-0.22
	l-0.115-0.205l-0.125-0.202l-0.149-0.186l-0.163-0.16l-0.164-0.165l-0.171-0.153l-0.181-0.128l-0.184-0.128l-0.203-0.113
	l-0.221-0.104l-0.219-0.093l-0.222-0.094l-0.239-0.074l-0.239-0.072l-0.497-0.113l-0.516-0.092l-1.121,0.332l-1.015,0.31
	l-0.921,0.316l-0.862,0.312l-0.848,0.333l-0.864,0.345l-0.882,0.389l-0.958,0.425l-0.918,0.549l-0.922,0.561l-0.922,0.545
	l-0.917,0.556l-0.925,0.551l-0.941,0.552l-0.914,0.553l-0.923,0.552l-0.769,0.553l-0.757,0.556l-0.751,0.548l-0.757,0.556
	l-0.736,0.547l-0.736,0.551l-0.739,0.555l-0.729,0.551l-0.076,0.148l-0.092,0.147l-0.128,0.146l-0.17,0.17l-0.161,0.163
	l-0.205,0.146l-0.222,0.166l-0.218,0.167l-0.445,0.274l-0.399,0.239l-0.168,0.079l-0.166,0.067l-0.129,0.038l-0.088,0.019
	l-0.093-0.223l-0.078-0.24l-0.07-0.236l-0.06-0.273l-0.057-0.26l-0.034-0.297l-0.037-0.293l-0.018-0.293l-0.016-0.63l-0.019-0.641
	l0.019-0.646l0.016-0.648v-0.642V78.01v-0.573l-0.034-0.533l-0.022-0.256l-0.039-0.225L98.763,76.2l-0.053-0.203l-0.054-0.185
	l-0.091-0.167l-0.075-0.144l-0.112-0.129h-0.625h-0.604l-0.613,0.017H95.93l-0.585,0.018l-0.607,0.018l-0.591,0.016l-0.589,0.04
	l-0.66-0.146l-0.665-0.146l-0.665-0.154l-0.645-0.144l-0.656-0.147l-0.648-0.151l-0.64-0.145l-0.63-0.146l-0.402,0.316L87.6,74.927
	l-0.299,0.275l-0.255,0.3l-0.224,0.271l-0.165,0.278L86.586,76.2l-0.06,0.146l-0.053,0.147l-0.057,0.167l-0.036,0.145l-0.02,0.164
	l-0.021,0.19v0.162v0.383l0.04,0.408l0.054,0.442l0.092,0.494l0.111,0.555l0.146,0.592l0.149,0.197l0.131,0.22l0.144,0.239
	l0.127,0.237l0.265,0.556l0.237,0.59l0.219,0.643l0.206,0.688l0.195,0.696l0.188,0.717l0.146,0.754l0.147,0.759l0.147,0.753
	l0.112,0.752l0.111,0.739L89.4,89.45l0.068,0.701l0.058,0.659l-0.034,0.627L89.47,92.08l-0.016,0.641v0.644l-0.019,0.662v0.662v0.67
	v0.659l-0.254,0.74l-0.244,0.751l-0.238,0.753l-0.241,0.756l-0.218,0.771l-0.223,0.777l-0.223,0.768l-0.219,0.77h-0.166h-0.141
	l-0.205,0.355l-0.221,0.352l-0.24,0.362l-0.262,0.374l-0.551,0.715l-0.572,0.732l-0.603,0.762l-0.643,0.712l-0.664,0.735
	l-0.665,0.698l-0.418,0.241l-0.39,0.257l-0.388,0.295l-0.37,0.295l-0.401,0.389l-0.463,0.367l-0.493,0.369l-0.515,0.345
	l-0.556,0.352l-0.572,0.347l-0.59,0.334l-0.587,0.312l-0.606,0.294l-0.591,0.299l-0.586,0.273l-0.587,0.259l-1.109,0.455
	l-0.992,0.407l-0.296,0.166l-0.273,0.205l-0.275,0.2l-0.241,0.222v0.147v0.15h-0.147h-0.145l-0.373,0.385l-0.367,0.423l-0.365,0.423
	l-0.366,0.44l-0.297,0.608l-0.297,0.623l-0.292,0.668l-0.295,0.656l-0.13,0.059h-0.126l-0.095-0.016l-0.112-0.043l-0.218-0.146
	l-0.297-0.146H66.89l-0.479,0.017l-0.439,0.039l-0.42,0.037l-0.391,0.054l-0.364,0.078l-0.333,0.067l-0.296,0.113l-0.273,0.109
	l-0.263,0.112l-0.217,0.149l-0.2,0.141l-0.203,0.17l-0.169,0.164l-0.129,0.203l-0.129,0.203l-0.109,0.218l-0.111,0.245l-0.074,0.253
	l-0.068,0.257l-0.06,0.281l-0.035,0.291l-0.034,0.332l-0.042,0.312l-0.036,0.715v0.775v0.829v0.903l0.112,0.235l0.095,0.257
	l0.068,0.297l0.074,0.315l0.076,0.348l0.052,0.351l0.058,0.387l0.035,0.382l0.053,0.849l0.04,0.884l0.02,0.94v0.935l-0.038,0.958
	l-0.022,0.959l-0.033,0.923l-0.055,0.897l-0.041,0.849l-0.052,0.788l-0.017,0.703l-0.039,0.623l-0.149,1.122l-0.144,1.158
	l-0.171,1.161l-0.159,1.175l-0.153,1.198l-0.162,1.199l-0.145,1.233l-0.124,1.229l-0.153,1.234l-0.113,1.27l-0.107,1.265
	l-0.092,1.277l-0.09,1.284l-0.058,1.31l-0.036,1.304v1.326l0.053,0.828l0.059,0.717l0.036,0.329l0.073,0.312l0.034,0.132
	l0.037,0.148l0.073,0.128l0.059,0.133l0.072,0.126l0.093,0.129l0.093,0.127l0.129,0.109l0.108,0.111l0.148,0.11l0.146,0.112
	l0.18,0.093l0.19,0.107l0.201,0.113l0.222,0.092l0.236,0.09l0.555,0.185l0.642,0.204l0.333-0.019l0.35-0.019l0.369-0.018l0.35-0.038
	l0.735-0.11l0.753-0.129l0.773-0.165l0.771-0.203l0.793-0.22l0.792-0.237l0.793-0.261l0.792-0.275l0.789-0.275l0.771-0.28
	l1.546-0.568l1.47-0.534v0.094l0.021,0.107l0.019,0.151l0.056,0.148l-1.028,0.81l-1.032,0.805l-1.03,0.815l-1.011,0.809
	l-1.034,0.806l-1.007,0.81l-1.016,0.813l-0.997,0.812l-0.366,0.584l-0.367,0.592l-0.368,0.606l-0.35,0.588l-0.366,0.605
	l-0.351,0.611l-0.347,0.605l-0.333,0.627l-0.591,0.146l-0.572,0.168l-0.57,0.166l-0.531,0.2l-0.24,0.205l-0.259,0.22l-0.293,0.276
	l-0.313,0.312l-0.331,0.332l-0.329,0.368l-0.316,0.384l-0.329,0.407l-0.299,0.423l-0.287,0.441l-0.258,0.424l-0.224,0.44
	l-0.092,0.218l-0.09,0.225l-0.078,0.201l-0.073,0.221l-0.057,0.202l-0.032,0.203l-0.021,0.207v0.2l0.442,0.036l0.442,0.033
	l0.445,0.041l0.436,0.033l0.442,0.036l0.438,0.041l0.446,0.038l0.442,0.032l1.326-0.07l1.248-0.093l0.609-0.059l0.608-0.069
	l0.605-0.096l0.607-0.104l0.587-0.131l0.627-0.169l0.627-0.183l0.624-0.217l0.666-0.261l0.663-0.299l0.695-0.326l0.723-0.39
	l0.401-0.366l0.405-0.349l0.425-0.35l0.398-0.348l0.429-0.336l0.422-0.331l0.424-0.327l0.438-0.333l0.65-0.977l0.642-0.94
	l0.607-0.923l0.588-0.878l0.556-0.88l0.531-0.883l0.239-0.444l0.259-0.442l0.22-0.459l0.239-0.461l0.219,0.019l0.223,0.058
	l0.258,0.052l0.277,0.072l0.31,0.607l0.331,0.646l0.372,0.641l0.366,0.663v0.22v0.264l0.02,0.29l0.054,0.317l0.039,0.144
	l0.056,0.167l0.071,0.146l0.092,0.142l0.113,0.133l0.107,0.132l0.165,0.11l0.166,0.09l0.461-0.035l0.439-0.017h0.443l0.442,0.033
	l0.424,0.037l0.443,0.068l0.419,0.099l0.443,0.093l0.424,0.126l0.44,0.129l0.442,0.149l0.459,0.163l0.922,0.351l0.976,0.389
	l0.406,0.367l0.402,0.366l0.403,0.366l0.405,0.369l0.407,0.372l0.404,0.363l0.405,0.37l0.404,0.37l0.129,0.072l0.129,0.091
	l0.146,0.127l0.15,0.134l0.292,0.35l0.312,0.44l0.332,0.477l0.349,0.554l0.349,0.584l0.371,0.612l0.092,0.011l0.129,0.041
	l0.146,0.076l0.168,0.091l0.384,0.261l0.46,0.291l0.499,0.33l0.55,0.354l0.293,0.163l0.296,0.167l0.318,0.146l0.29,0.123h0.204
	h0.298h0.347l0.421-0.031l0.201-0.02l0.223-0.038l0.222-0.055l0.217-0.054l0.225-0.072l0.201-0.095l0.203-0.09l0.203-0.128
	l0.201-1.311l0.167-1.344l0.147-1.358l0.148-1.361l0.088-0.663l0.076-0.646l0.089-0.643l0.114-0.626l0.109-0.589l0.128-0.591
	l0.147-0.554l0.148-0.532l-0.533-0.495l-0.756-0.699l-0.866-0.831L102,167.003l-0.441-0.457l-0.422-0.424l-0.37-0.407l-0.328-0.386
	l-0.29-0.33l-0.208-0.297l-0.092-0.126l-0.053-0.112l-0.039-0.091v-0.075l0.406-0.387l0.477-0.459l0.516-0.479l0.492-0.515
	l0.225-0.256l0.222-0.262l0.2-0.256l0.17-0.257l0.146-0.24l0.092-0.258l0.035-0.111l0.036-0.132l0.021-0.106v-0.111l-0.203-1.912
	l-0.201-1.916l-0.167-1.914l-0.146-1.927l-0.147-1.899L101.822,149l-0.112-1.896l-0.092-1.9l-0.073-1.894l-0.055-1.856l-0.059-1.879
	l-0.032-1.837l-0.039-1.848l-0.02-1.799l-0.018-1.807v-1.781l0.148-1.438l0.127-1.451l0.051-0.739l0.061-0.718l0.072-0.7
	l0.092-0.696l0.096-0.68l0.126-0.665l0.076-0.329l0.075-0.331l0.09-0.318l0.088-0.31l0.112-0.295l0.111-0.311l0.127-0.275
	l0.149-0.299l0.148-0.273l0.148-0.256l0.182-0.274l0.182-0.263l0.257-0.184l0.37-0.352l0.444-0.417l0.517-0.477l0.254-0.224
	l0.276-0.225l0.259-0.194l0.255-0.191l0.259-0.162l0.241-0.109l0.106-0.04l0.112-0.036l0.093-0.017l0.092-0.019l0.018-0.131
	l0.019-0.148l0.018-0.107l0.06-0.132l0.109-0.202l0.148-0.199l0.345-0.426l0.371-0.516l-0.055-0.492l-0.037-0.484v-0.439V113.5
	l-0.331-0.553l-0.317-0.494l-0.31-0.461l-0.312-0.406l-0.312-0.37l-0.296-0.33l-0.293-0.311l-0.294-0.312v-0.146v-0.148
	l-0.183-0.096l-0.182-0.113l-0.189-0.105l-0.185-0.126l-0.167-0.148l-0.166-0.152l-0.166-0.143l-0.165-0.162l-0.293-0.34
	l-0.273-0.346l-0.277-0.351l-0.238-0.362l-0.224-0.374l-0.202-0.368l-0.164-0.345l-0.166-0.337l-0.237-0.584l-0.146-0.461
	l0.053-0.279l0.093-0.255l0.108-0.241l0.129-0.216l0.128-0.208l0.167-0.188l0.164-0.159l0.169-0.165l0.2-0.152l0.202-0.124
	l0.2-0.114l0.241-0.104l0.218-0.097l0.26-0.074l0.239-0.071l0.262-0.059l0.551-0.088l0.552-0.058l0.569-0.033l0.588-0.026
	l1.195,0.026l1.158,0.033l0.223-0.517l0.202-0.514l0.241-0.495l0.223-0.496l0.233-0.501l0.261-0.46l0.256-0.478l0.275-0.461
	l0.28-0.442l0.272-0.456l0.297-0.427l0.314-0.442l0.311-0.409l0.312-0.413l0.334-0.402l0.33-0.411l0.349-0.39l0.372-0.38
	l0.348-0.389l0.387-0.371l0.389-0.361l0.383-0.374l0.408-0.35l0.403-0.345l0.421-0.333l0.426-0.351l0.442-0.33l0.44-0.313
	l0.939-0.643l0.958-0.625l0.2-0.3l0.2-0.312l0.205-0.312l0.185-0.329l0.332-0.643l0.31-0.682l0.569-1.344l0.535-1.363l0.276-0.676
	l0.271-0.666l0.316-0.646l0.315-0.643l0.185-0.316l0.178-0.292l0.184-0.293l0.206-0.3l0.224-0.29l0.218-0.274l0.241-0.279
	l0.236-0.252l-0.057-0.152l-0.035-0.163l-0.019-0.152l0.019-0.162l0.035-0.169l0.045-0.167l0.053-0.159l0.07-0.166l0.184-0.318
	l0.205-0.29l0.197-0.255l0.188-0.205l0.073-0.44l0.072-0.408l0.04-0.406l0.016-0.364l0.021-0.368v-0.348L126.977,74.303z
	 M71.843,123.16v-0.256v-0.24v-0.226l0.457-0.436l0.481-0.444l0.517-0.44l0.512-0.442l0.244-0.222l0.258-0.219l0.293-0.226
	l0.31-0.197l0.317-0.203l0.346-0.201l0.366-0.205l0.375-0.182l0.383-0.188l0.409-0.183l0.399-0.165l0.445-0.164l0.864-0.334
	l0.902-0.311l0.9-0.275l0.917-0.275l0.925-0.243l0.898-0.237l0.868-0.225l0.828-0.195l0.788-0.188l0.741-0.165h0.402h0.421
	l0.463,0.017l0.44,0.019l0.459,0.054l0.459,0.075l0.225,0.052l0.221,0.081l0.202,0.071l0.205,0.073l0.2,0.105l0.185,0.094
	l0.185,0.131l0.164,0.124l0.149,0.171l0.146,0.164l0.126,0.184l0.113,0.186l0.092,0.221l0.091,0.237l0.055,0.258l0.039,0.28
	l0.036,0.293v0.328l-0.018,0.33l-0.058,0.369l-0.351,0.594l-0.313,0.586l-0.307,0.588l-0.298,0.588h-0.202h-0.189h-0.143h-0.147
	l-0.589-0.329l-0.569-0.332l-0.555-0.312l-0.516-0.28l-0.497-0.255l-0.438-0.185l-0.219-0.069l-0.205-0.06l-0.185-0.019
	l-0.166-0.014l-0.073,0.107l-0.076,0.112l-0.085,0.107l-0.117,0.112l-0.236,0.205l-0.292,0.195l-0.315,0.206l-0.349,0.202
	l-0.368,0.167l-0.388,0.183l-0.756,0.293l-0.718,0.255l-0.607,0.191l-0.438,0.108l-0.022,0.091l-0.052,0.094l-0.073,0.092
	l-0.13,0.09l-0.128,0.091l-0.188,0.094l-0.183,0.074l-0.217,0.092l-0.497,0.165l-0.538,0.147l-0.607,0.146l-0.625,0.15l-1.252,0.237
	l-1.157,0.205l-0.94,0.127l-0.571,0.074l-0.366-0.148l-0.35-0.143l-0.331-0.148l-0.312-0.147v-0.24v-0.15l-0.149-0.073l-0.145-0.073
	l-0.107-0.073l-0.096-0.076v-0.272L71.843,123.16L71.843,123.16z M89.084,128.052h0.145v0.246l0.021,0.254l0.04,0.296l0.052,0.277
	l-0.363,0.221l-0.373,0.199l-0.366,0.166l-0.367,0.167l-0.717,0.312l-0.682,0.274l-0.331,0.149l-0.332,0.148l-0.311,0.166
	l-0.298,0.146l-0.296,0.185l-0.275,0.185l-0.256,0.221l-0.239,0.221l-1.382,0.732l-1.359,0.74l-1.363,0.734l-1.342,0.736
	l-1.361,0.735l-1.344,0.735l-1.344,0.735l-1.327,0.739l-0.216,0.014h-0.203l-0.204,0.041l-0.166,0.052l-0.093-0.495l-0.091-0.498
	l-0.075-0.496l-0.055-0.516l-0.036-0.515l-0.039-0.513l-0.019-0.518v-0.495l0.019-0.477l0.022-0.48l0.033-0.442l0.058-0.422
	l0.052-0.403l0.057-0.371l0.092-0.329l0.075-0.296l0.438-0.038l0.461-0.058l0.223-0.035l0.241-0.019h0.219h0.241l0.24,0.039
	l0.256,0.072l0.236,0.094l0.277,0.146l0.262,0.185l0.273,0.238l0.272,0.292l0.3,0.354h0.146l0.166,0.016l0.166,0.02l0.201,0.055
	l0.018-0.166l0.057-0.165l0.073-0.181l0.092-0.186l0.107-0.165l0.151-0.202l0.166-0.185l0.185-0.188l0.2-0.18l0.224-0.205
	l0.219-0.185l0.257-0.182l0.517-0.37l0.531-0.366l0.552-0.353l0.553-0.328l0.537-0.293l0.493-0.275l0.884-0.444l0.587-0.293h0.61
	l0.588-0.021l0.587-0.018h0.609l0.329,0.018l0.317,0.038l0.347,0.056l0.368,0.055l0.366,0.093l0.41,0.092l0.424,0.128l0.436,0.147
	v0.164v0.236h0.147C89.084,128.049,89.084,128.052,89.084,128.052z M83.069,144.6l-0.188,0.129l-0.181,0.125l-0.167,0.152
	l-0.185,0.164l-0.163,0.185l-0.166,0.184l-0.149,0.203l-0.018,0.31l-0.054,0.314l-0.054,0.351l-0.04,0.388l-0.018,0.197l0.018,0.223
	v0.222l0.04,0.22l0.034,0.238l0.073,0.238l0.093,0.282l0.11,0.253l-0.518-0.073l-0.511-0.071l-0.519-0.053l-0.512-0.078
	l-0.519-0.056l-0.514-0.072l-0.517-0.033l-0.516-0.038l-0.529,0.222l-0.52,0.233l-0.476,0.238l-0.466,0.239l-0.417,0.223
	l-0.427,0.259l-0.405,0.241l-0.383,0.259l-0.37,0.255l-0.387,0.275l-0.35,0.275l-0.368,0.316l-0.369,0.312l-0.368,0.331
	l-0.367,0.348l-0.386,0.392l-0.169-0.208l-0.145-0.218l-0.131-0.222l-0.087-0.264l-0.074-0.235l-0.077-0.275l-0.038-0.258
	l-0.034-0.238l-0.037-0.482v-0.398v-0.297l0.021-0.146l-0.021-1.805v-1.414l0.021-0.315l0.016-0.277l0.018-0.273l0.04-0.239
	l0.053-0.244l0.058-0.196l0.071-0.205l0.093-0.164l0.092-0.167l0.129-0.148l0.129-0.127l0.166-0.126l0.169-0.112l0.2-0.093
	l0.217-0.076l0.24-0.072l0.259-0.072l0.298-0.037l0.326-0.04l0.331-0.035l0.792-0.038l0.921-0.021l0.59,0.224l0.587,0.242
	l0.592,0.237l0.587,0.278l0.019-0.19l0.054-0.195l0.109-0.205l0.134-0.202l0.161-0.209l0.205-0.214l0.219-0.209l0.258-0.198
	l0.277-0.202l0.294-0.222l0.331-0.2l0.331-0.203l0.717-0.388l0.757-0.385l0.773-0.369l0.79-0.329l0.75-0.318l0.74-0.273l0.683-0.239
	l0.604-0.2l0.516-0.152l0.405-0.105h0.372h0.383h0.365h0.373h0.385h0.385h0.392h0.399l0.133,0.105l0.108,0.111l0.094,0.147
	l0.091,0.15l0.072,0.183l0.076,0.184l0.053,0.203l0.055,0.238l0.038,0.238l0.019,0.261l0.02,0.273v0.298l-0.02,0.64l-0.058,0.701
	l-0.274,0.444l-0.239,0.458l-0.238,0.476l-0.223,0.5l-0.145,0.018l-0.153,0.036l-0.142,0.058l-0.147,0.072l-0.554-0.201
	l-0.534-0.184l-0.512-0.166l-0.501-0.133l-0.492-0.109l-0.481-0.071l-0.463-0.039l-0.44,0.021l-0.22,0.018l-0.202,0.02l-0.221,0.033
	l-0.206,0.06l-0.196,0.053l-0.19,0.075l-0.199,0.072l-0.185,0.109L83.069,144.6z M93.779,150.451v0.424v0.441l-0.037,0.459
	l-0.04,0.48l-0.033,0.478l-0.111,0.992l-0.146,1.013l-0.186,1.033l-0.184,1.028l-0.201,1.014l-0.2,0.976l-0.205,0.922l-0.203,0.861
	l-0.181,0.793l-0.169,0.682l-0.125,0.128l-0.096,0.11l-0.075,0.093l-0.034,0.126l-0.036,0.148l-0.021,0.202v0.295v0.384H91.35
	h-0.146h-0.148h-0.148l-0.369-0.07l-0.348-0.057l-0.348-0.056l-0.35-0.056l-0.336-0.035l-0.327-0.055l-0.329-0.037l-0.334-0.038
	l-0.738,0.02l-0.715,0.018l-0.684,0.019l-0.663,0.019H84.76l-0.571-0.019l-0.256-0.037l-0.258-0.02l-0.218-0.035l-0.205-0.057
	l0.313-0.791l0.353-0.753l0.347-0.758L84.652,160l0.387-0.719l0.385-0.714l0.422-0.684l0.424-0.699l0.847-1.339L88,154.518
	l0.869-1.292l0.86-1.304h0.149h0.151l0.29-0.441l0.298-0.441l0.291-0.424l0.296-0.441l0.292-0.425l0.297-0.42l0.293-0.427
	l0.29-0.401l0.224-0.146l0.242-0.095l0.24-0.091l0.293-0.076l0.109,0.262l0.09,0.29l0.075,0.312l0.054,0.335l0.04,0.365l0.037,0.39
	L93.779,150.451L93.779,150.451z M109.882,86.206l-0.187,0.405l-0.18,0.443l-0.185,0.424l-0.191,0.443l-0.179,0.424l-0.184,0.438
	l-0.187,0.441l-0.494,0.517l-0.538,0.511l-0.565,0.557l-0.61,0.512l-0.293,0.283l-0.313,0.239l-0.311,0.236l-0.314,0.239
	l-0.332,0.224l-0.312,0.178l-0.312,0.188l-0.313,0.165l-0.405,0.073l-0.402,0.074l-0.41,0.071l-0.383,0.073l-0.406,0.079
	l-0.384,0.071l-0.388,0.07l-0.367,0.077l-0.225-0.237l-0.185-0.237l-0.146-0.246l-0.125-0.241l-0.095-0.217L99.91,92.26
	l-0.044-0.235v-0.228l0.025-0.215l0.032-0.196l0.074-0.225l0.077-0.2l0.107-0.202l0.129-0.208l0.131-0.199l0.15-0.201l0.164-0.188
	l0.165-0.188l0.183-0.175l0.203-0.168l0.404-0.335l0.402-0.312l0.829-0.567l0.739-0.462l0.607-0.295l0.644-0.27l0.64-0.283
	l0.664-0.24v-0.143v-0.149l0.481-0.056l0.477-0.074l0.477-0.073l0.481-0.071l0.48-0.074l0.475-0.095l0.476-0.055l0.481-0.088
	L109.882,86.206z M53.348,117.823l0.516,0.075l0.517,0.055l0.534,0.016l0.551-0.016l0.567-0.038l0.574-0.056l0.569-0.074
	l0.587-0.107l0.591-0.115l0.591-0.123l0.604-0.168l0.587-0.166l0.609-0.183l0.59-0.205l0.602-0.202l0.593-0.22l0.589-0.237
	l0.571-0.24l0.573-0.239l0.547-0.259l1.088-0.516l1.05-0.529l0.953-0.541l0.887-0.526l1.12-0.81l1.107-0.812l1.12-0.826l1.125-0.832
	l1.102-0.844l1.122-0.848l1.087-0.862l1.09-0.884l1.064-0.884l1.066-0.919l1.014-0.938l1.013-0.982l0.475-0.477l0.501-0.496
	l0.477-0.492l0.456-0.515l0.462-0.519l0.441-0.534l0.444-0.528l0.425-0.542l0.311-0.659l0.294-0.666l0.236-0.643l0.224-0.645
	l0.183-0.637l0.165-0.646l0.134-0.625l0.109-0.628l0.093-0.625l0.053-0.631l0.054-0.604l0.019-0.606v-0.61l-0.019-0.601
	l-0.034-0.596l-0.052-0.606l-0.223-0.514l-0.224-0.514l-0.2-0.522l-0.223-0.51l-0.201-0.514l-0.205-0.521L85.79,85.03l-0.183-0.512
	l-0.442-0.664l-0.442-0.666l-0.439-0.661l-0.444-0.646l-0.459-0.66l-0.444-0.646l-0.442-0.643l-0.439-0.621l-0.737-0.63
	l-0.716-0.571l-0.682-0.498l-0.643-0.44l-0.312-0.205l-0.315-0.164l-0.312-0.162l-0.295-0.149l-0.291-0.132l-0.313-0.107
	l-0.297-0.112l-0.293-0.073l-0.074-0.088L76.7,75.886l-0.055-0.094l-0.059-0.065l-0.035-0.102l-0.017-0.068l-0.021-0.076V75.39
	l0.021-0.148l0.036-0.146l0.074-0.146l0.089-0.135l0.206-0.273l0.185-0.277l0.091-0.122l0.073-0.151l0.038-0.13l0.016-0.143
	l0.132-0.132l0.146-0.131l0.152-0.109l0.16-0.109l0.35-0.205l0.388-0.179l0.403-0.152l0.405-0.103l0.442-0.101l0.461-0.072
	l0.46-0.017h0.456l0.462,0.039l0.466,0.072l0.217,0.054l0.241,0.057l0.218,0.07l0.202,0.091l0.224,0.097l0.201,0.089l0.198,0.114
	l0.206,0.126l0.148-0.055l0.147-0.037h0.146h0.144l0.225-0.59l0.24-0.586l0.108-0.281l0.126-0.273l0.129-0.275l0.152-0.256
	l0.108-0.441l0.055-0.407l0.036-0.388v-0.363l-0.018-0.337l-0.073-0.326l-0.074-0.3l-0.11-0.29l-0.146-0.259l-0.151-0.257
	l-0.18-0.218l-0.185-0.226l-0.221-0.202l-0.219-0.182l-0.239-0.185l-0.255-0.164l-0.281-0.145l-0.275-0.135l-0.274-0.126
	L82.718,65.8l-0.588-0.204l-0.592-0.162l-1.139-0.277l-0.991-0.205l-0.224-0.197l-0.22-0.166l-0.224-0.168l-0.222-0.148
	l-0.202-0.752l-0.185-0.645l-0.161-0.55l-0.186-0.459l-0.094-0.203l-0.089-0.17l-0.115-0.163l-0.085-0.128l-0.114-0.129
	l-0.109-0.108l-0.114-0.097l-0.105-0.09l-0.132-0.053l-0.145-0.058l-0.148-0.056l-0.146-0.035l-0.336-0.035l-0.385-0.019h-0.9
	l-1.158,0.019l-0.648,0.381l-0.643,0.389l-0.626,0.369l-0.588,0.367l-0.586,0.387l-0.553,0.406l-0.281,0.22l-0.27,0.239l-0.258,0.24
	l-0.262,0.237l-0.292,0.148l-0.277,0.143l-0.275,0.168l-0.273,0.167l-0.535,0.37l-0.516,0.398l-0.519,0.425l-0.495,0.443
	L65.219,66.5l-0.48,0.475l-0.937,0.979l-0.94,0.974l-0.461,0.479l-0.464,0.462l-0.454,0.457l-0.443,0.427l-0.147,0.22l-0.148,0.223
	l-0.107,0.222l-0.094,0.219H60.4h-0.152l-1.198,1.198l-1.102,1.045l-0.517,0.479l-0.517,0.458l-0.529,0.445l-0.515,0.4l-0.537,0.408
	l-0.532,0.391l-0.571,0.365l-0.587,0.35l-0.627,0.354l-0.663,0.326l-0.701,0.335l-0.749,0.326l-0.04,0.076l-0.058,0.075
	l-0.072,0.074l-0.093,0.05l-0.18,0.135l-0.224,0.106l-0.223,0.094L49.795,79.2l-0.205,0.05l-0.165,0.065l-1.01,0.545l-1.07,0.576
	l-1.12,0.588l-1.178,0.588l-1.216,0.585L42.6,82.769l-1.268,0.571l-1.272,0.53l-0.643,0.259l-0.63,0.241l-0.638,0.235l-0.645,0.224
	l-0.63,0.218l-0.623,0.187l-0.628,0.205l-0.604,0.165l-0.608,0.141l-0.608,0.133l-0.585,0.133l-0.573,0.091l-0.571,0.071
	l-0.555,0.073l-0.528,0.022l-0.519,0.02l-0.459-0.115l-0.441-0.092l-0.442-0.093l-0.438-0.093l-0.446-0.068l-0.437-0.082
	l-0.444-0.068l-0.44-0.072l-0.146,0.015l-0.146,0.038l-0.153,0.075l-0.143,0.058l-0.055,0.16l-0.057,0.238l-0.074,0.314
	l-0.039,0.351v0.185l0.021,0.206l0.018,0.182l0.054,0.204l0.061,0.186l0.102,0.18l0.111,0.181l0.153,0.17l0.051,0.238l0.15,0.457
	l0.108,0.314l0.132,0.334l0.143,0.348l0.165,0.348l0.188,0.374l0.182,0.327l0.201,0.333l0.222,0.276l0.115,0.126l0.104,0.11
	l0.113,0.108l0.105,0.08l0.113,0.07l0.131,0.055l0.107,0.015l0.131,0.02v0.164v0.224l0.333,0.224l0.331,0.221l0.33,0.22l0.353,0.219
	l0.329,0.224l0.352,0.218l0.366,0.225l0.349,0.218l0.367,0.17l0.369,0.148l0.369,0.178l0.367,0.203l1.029,0.112l1.047,0.126
	l1.031,0.134l1.034,0.131l1.051,0.142l1.043,0.149l1.072,0.146l1.048,0.129l-0.095,0.188l-0.108,0.181l-0.111,0.19l-0.129,0.157
	l-0.272,0.351l-0.315,0.336l-0.314,0.315l-0.326,0.289l-0.353,0.291l-0.331,0.258v0.172v0.236h-0.146H39.03l-0.131,0.043
	l-0.067,0.051l-0.703,0.646l-0.7,0.621l-0.715,0.613l-0.701,0.603l-0.332,0.311l-0.33,0.291l-0.294,0.316l-0.298,0.331l-0.271,0.335
	l-0.259,0.326l-0.222,0.354l-0.205,0.369l-0.237,0.146l-0.333,0.237l-0.402,0.336l-0.479,0.405l-0.532,0.458l-0.556,0.495
	L30.677,107l-0.571,0.555l-0.591,0.549l-0.534,0.559l-0.515,0.514l-0.44,0.479l-0.365,0.441l-0.297,0.365l-0.09,0.168l-0.099,0.131
	l-0.033,0.111l-0.018,0.088h-0.107l-0.115,0.02l-0.108,0.035l-0.11,0.038l-0.11,0.071l-0.107,0.056l-0.115,0.09l-0.084,0.079
	l-0.226,0.219l-0.186,0.223l-0.202,0.275l-0.184,0.277l-0.165,0.294l-0.149,0.312l-0.145,0.311l-0.131,0.299l-0.111,0.312
	l-0.091,0.295l-0.054,0.273l-0.058,0.242l-0.273,0.236l-0.257,0.223l-0.22,0.257l-0.229,0.276l-0.293,0.075l-0.271,0.091
	l-0.279,0.091l-0.241,0.094l-0.497,0.205l-0.438,0.235l-0.42,0.256l-0.39,0.276l-0.369,0.295l-0.349,0.316l-0.351,0.31l-0.327,0.352
	l-0.335,0.346l-0.312,0.352l-0.684,0.754l-0.736,0.774v0.146v0.149h-0.146h-0.141l-1.109,1.067l-1.086,1.087l-1.09,1.081
	l-1.082,1.086l-1.087,1.108l-1.065,1.103l-1.066,1.105l-1.07,1.105l-0.367,0.51l-0.364,0.518l-0.374,0.514l-0.368,0.537
	l-0.365,0.515l-0.369,0.528l-0.366,0.554l-0.369,0.535L4.652,134.2l-0.844,0.481l-0.438,0.24l-0.464,0.273l-0.441,0.278
	l-0.425,0.274l-0.424,0.312l-0.367,0.33l-0.185,0.166l-0.163,0.183l-0.169,0.19l-0.146,0.181l-0.126,0.205l-0.113,0.2l-0.107,0.205
	l-0.077,0.202l-0.072,0.241l-0.056,0.214l-0.016,0.243L0,138.856l0.202,0.423l0.219,0.444l0.222,0.441l0.259,0.438l0.257,0.443
	l0.276,0.44l0.291,0.428l0.332,0.423l0.351,0.421l0.39,0.391l0.203,0.201l0.221,0.184l0.217,0.205l0.241,0.161l0.238,0.185
	l0.24,0.166l0.258,0.163l0.273,0.166l0.295,0.148l0.297,0.148l0.299,0.145l0.308,0.129l0.773,0.074l0.789,0.072l0.776,0.075
	l0.771,0.095l0.772,0.072l0.773,0.09l0.772,0.113l0.776,0.09h0.253l0.441-0.037l0.568-0.073l0.63-0.093l0.31-0.055l0.318-0.092
	l0.293-0.074l0.254-0.111l0.242-0.112l0.185-0.127l0.093-0.071l0.055-0.071l0.053-0.076l0.039-0.073h0.167h0.218l0.019-0.236
	l0.037-0.226l0.076-0.219l0.09-0.205l0.11-0.199l0.112-0.187l0.148-0.184l0.146-0.184l0.326-0.333l0.35-0.327l0.333-0.335
	l0.313-0.327h0.168h0.236l0.039-0.205l0.051-0.223l0.075-0.198l0.075-0.203l0.092-0.203l0.108-0.183l0.113-0.188l0.132-0.183
	l0.124-0.165l0.146-0.148l0.148-0.146l0.165-0.148l0.169-0.133l0.165-0.122l0.185-0.098l0.182-0.105l0.424-0.553l0.46-0.551
	l0.459-0.573l0.499-0.548l0.996-1.146l1.01-1.141l1.012-1.121l0.959-1.123l0.477-0.551l0.439-0.553l0.428-0.533l0.404-0.555
	l0.331-0.404l0.351-0.407l0.344-0.4l0.352-0.391l0.365-0.399l0.373-0.39l0.367-0.366l0.366-0.386h0.15h0.238v-0.222v-0.166
	l0.292-0.458l0.312-0.446l0.331-0.422l0.332-0.441l0.698-0.826l0.701-0.793l0.735-0.791l0.718-0.769l0.701-0.779l0.682-0.752h0.162
	h0.223v-0.241v-0.165l0.661-0.734l0.687-0.734l0.659-0.735l0.661-0.737l0.682-0.736l0.682-0.738l0.68-0.731l0.701-0.74l-0.061-0.148
	l-0.032-0.145V113.5v-0.094l-0.919,0.572l-0.904,0.569l-0.441,0.315l-0.44,0.311l-0.44,0.312l-0.424,0.333l-0.424,0.331
	l-0.403,0.345l-0.407,0.356l-0.403,0.365l-0.389,0.391l-0.366,0.383l-0.37,0.406l-0.351,0.423l-0.201,0.093l-0.184,0.132
	l-0.185,0.145l-0.186,0.161l-0.347,0.37l-0.351,0.404l-0.698,0.927l-0.698,0.92l-0.168,0.215l-0.187,0.203l-0.183,0.199
	l-0.185,0.185l-0.201,0.172l-0.184,0.146l-0.2,0.145l-0.208,0.112l-0.2,0.09l-0.219,0.076l-0.222,0.053l-0.225,0.021l-0.236-0.021
	l-0.238-0.033l-0.238-0.096l-0.26-0.109l0.021-0.253v-0.224l0.035-0.219l0.033-0.191l0.04-0.146l0.071-0.164l0.059-0.126
	l0.073-0.129l0.366-0.481l0.478-0.605l0.977-1.089l0.994-1.1l0.994-1.106l1.009-1.122l1.034-1.104L37,114.181l0.537-0.533
	l0.532-0.53l0.533-0.518l0.554-0.514l0.554-0.499l0.567-0.497l0.571-0.48l0.588-0.459l0.57-0.439l0.604-0.443l0.61-0.422
	l0.606-0.385l0.628-0.391l0.642-0.352l0.643-0.345l0.646-0.311l0.68-0.299l0.66-0.256l0.7-0.256l0.703-0.208l0.55-0.034l0.553-0.034
	h0.568l0.557-0.02h0.568l0.57-0.024h0.568h0.591v0.167v0.243l-0.905,0.607l-0.809,0.596l-0.365,0.288l-0.352,0.291l-0.309,0.276
	l-0.314,0.295l-0.277,0.276l-0.24,0.273l-0.237,0.296l-0.204,0.297l-0.166,0.278l-0.145,0.29L49.2,110.7l-0.089,0.312l-0.079,0.315
	l-0.036,0.312l-0.02,0.331l0.02,0.329l0.036,0.335l0.079,0.353l0.089,0.363l0.149,0.365l0.145,0.393l0.204,0.404l0.218,0.419
	l0.238,0.425l0.3,0.443l0.312,0.461l0.349,0.475l0.368,0.5l0.441,0.203l0.462,0.166l0.455,0.127L53.348,117.823z M64.074,93.203
	l0.039-0.236l0.035-0.246l0.058-0.236l0.068-0.225l0.079-0.235l0.091-0.203l0.111-0.217l0.109-0.199l0.132-0.188l0.144-0.206
	l0.148-0.18l0.167-0.183l0.165-0.191l0.168-0.159l0.182-0.17l0.384-0.306l0.408-0.297l0.402-0.3l0.425-0.253l0.862-0.48l0.83-0.438
	l0.422-0.02l0.556-0.078l0.312-0.016h0.309h0.315l0.311,0.032l0.132,0.041l0.148,0.04l0.125,0.052l0.131,0.07l0.112,0.081
	l0.109,0.067l0.093,0.109l0.091,0.112l0.052,0.146l0.057,0.15l0.043,0.166l0.031,0.185v0.205l-0.018,0.219l-0.014,0.239l-0.06,0.251
	l-0.294,0.387l-0.314,0.401l-0.35,0.411l-0.367,0.405l-0.39,0.388l-0.385,0.344l-0.386,0.338l-0.37,0.292l-0.661,0.219l-0.663,0.224
	l-0.659,0.221l-0.663,0.22l-0.295,0.019l-0.29,0.036l-0.317,0.056l-0.277,0.077l-0.31-0.077l-0.275-0.056l-0.312-0.036l-0.297-0.019
	v-0.147v-0.146l-0.219-0.147l-0.171-0.051L64.074,93.203L64.074,93.203z M23.608,125.366l-0.348,0.39l-0.185,0.204l-0.171,0.198
	l-0.144,0.205l-0.165,0.22l-0.186-0.22l-0.143-0.186l-0.056-0.09l-0.04-0.093l-0.038-0.093l-0.02-0.075l-0.02-0.09v-0.074
	l0.02-0.072l0.02-0.072l0.058-0.133l0.092-0.127l0.113-0.13l0.127-0.127l0.164-0.128l0.169-0.112l0.343-0.256l0.387-0.297
	l0.076,0.167l0.074,0.202l0.115,0.202l0.124,0.222L23.608,125.366z M81.732,20.152c1.01-2.685,2.023-4.029,3.033-4.029l1,5.041
	c-2.69,6.05-4.033,10.748-4.033,14.109c0.346,2.69,1.343,4.034,3.033,4.034h1v-3.032l1.011-5.034h1.006v2.011l-1.006,1.016
	l2.018,4.031l-3.028,1.009l1.011,4.029l-1.011,5.029l-4.033,2.021l-0.998,1.011c0,0.997,5.377,2.344,16.121,4.03h5.029
	c3.362,0,5.374-1.01,6.052-3.033v-0.997l-2.021-2.025h-9.06v-2.005c4.027,0,6.04-1.011,6.04-3.035v-0.995
	c0-1.342-1.675-2.023-5.039-2.023l5.039-5.039v-1.002c0-1.343-1.343-2.021-4.028-2.021h-1.011c0-2.682,2.354-6.038,7.061-10.069
	l-2.022-3.03c-4.028,0-6.04-1.345-6.04-4.029l7.048-5.032c-3.362-2.86-5.038-6.56-5.038-11.093h-2.012l-2.019,2.022
	c0,5.374-2.01,8.059-6.042,8.059c-0.505-4.709-1.515-7.051-3.028-7.051h-1l-1.01,1.001l1.01,6.05
	c-3.363,2.517-5.044,6.21-5.044,11.083h1.013L81.732,20.152z M88.793,29.222l2.013-2.008h2.019l-3.034,3.021h-0.998V29.222z
	 M61.58,9.07l1.01-1.01h1.013c8.06,0,12.09,2.352,12.09,7.062l-3.021,2.01C69.307,17.133,65.612,14.445,61.58,9.07z M57.55,26.205
	v-2.021l1.011-1.002v-1.011l1.01,1.011h2.01l7.061-1.011c2.009,2.515,3.021,4.872,3.021,7.05h1.01
	c0.333-2.681,1.342-4.026,3.021-4.026v4.026l-8.062,22.176l-3.02,3.021H62.59l-4.029-5.046v-2.005
	c4.029-7.225,6.051-12.93,6.051-17.133C59.903,30.234,57.55,28.891,57.55,26.205z M101.546,220.064h1.959l0.979,6.83v6.849
	c0,5.368-1.959,9.276-5.867,11.722h-0.979v-1.958C100.242,240.903,101.546,233.088,101.546,220.064z M67.354,217.132v0.978
	l-1.949,2.928v1.952l1.949,1.959l2.927-1.959h0.981v1.959c-1.626,0-4.558,2.604-8.799,7.817l5.866,6.833
	c2.775,0,5.38-6.188,7.818-18.561l-0.983-0.973v-2.933l5.868-7.815c-1.79,0-2.771-1.627-2.934-4.889l-6.837,0.977h-1.955
	l7.822-7.812v-1.96l-3.908-0.973l-9.775,1.952v0.981c0,1.303,1.622,1.947,4.884,1.947v0.979l-6.834,7.817v1.956l9.767-0.976h0.978
	c-0.164,1.467-6.682,5.041-19.543,10.748v2.925l13.678-5.857L67.354,217.132L67.354,217.132z M71.262,232.766l-0.981,0.977
	l-1.951-1.96v-0.977l2.933-2.932L71.262,232.766L71.262,232.766z M76.148,189.773l-6.841-1.961v-1.948l2.933-0.977l5.859,0.977
	v1.948L76.148,189.773z M94.71,202.477v13.674l11.723-7.815h0.979l1.951,1.956c0,1.306-3.576,3.578-10.746,6.84
	c-4.231,7.979-7.495,12.534-9.767,13.675h-0.979l-1.96-1.95c2.939-3.585,5.21-13.352,6.847-29.317
	c2.606-3.257,5.535-5.534,8.787-6.839l0.979,0.979v0.979C97.314,196.453,94.71,199.06,94.71,202.477z M103.995,289.98l-9.775,2.934
	V274.35l2.938-2.93l-0.979-5.865l0.979-2.928l-1.959-2.931c3.908-1.304,5.867-2.604,5.867-3.909v-2.929l-2.937-0.979l-13.675,3.907
	c0-2.929-1.305-4.887-3.907-5.865h-0.981c-1.138,0-2.438,1.958-3.908,5.865c-4.554,3.586-6.839,6.84-6.839,9.768v1.959
	c0,1.469,1.629,2.437,4.89,2.925l-5.866,5.87v2.931l0.977,0.978l7.819-1.959v1.959c-4.236,1.459-7.172,4.063-8.796,7.814
	c0.977,2.607,1.957,3.911,2.928,3.911h2.939c5.044,0,8.296-1.637,9.767-4.888c0-1.962-2.929-2.929-8.796-2.929
	c2.28-3.421,6.846-6.025,13.681-7.817l-0.978,14.651v2.93h-0.979c-15.955,2.114-27.025,5.056-33.216,8.796l1.949,1.95h4.888
	c14.818-5.212,23.94-7.818,27.358-7.818l0.978,14.665v0.969h-0.978l-0.979-0.969h-1.949v2.928h7.812l1.953-1.959v-15.634l9.775,0.98
	h0.979c3.251,0,5.21-0.98,5.857-2.931v-1.953C110.831,291.775,108.548,290.795,103.995,289.98z M80.547,266.534l-0.981,0.979h-1.95
	v-0.979l2.931-0.979V266.534z M90.31,267.514c-3.252,0-4.876,0.643-4.876,1.947h-3.908v-0.968c2.439,0,5.042-1.305,7.815-3.913h0.97
	v2.934H90.31z M88.36,260.674h-0.978l1.957-1.959h0.97L88.36,260.674z"/>
</svg>
