<?xml version="1.0" encoding="utf-8"?><!DOCTYPE svg PUBLIC "-//W3C//DTD SVG 1.1//EN" "http://www.w3.org/Graphics/SVG/1.1/DTD/svg11.dtd"><svg version="1.1" baseProfile="full" xmlns="http://www.w3.org/2000/svg" xmlns:xlink="http://www.w3.org/1999/xlink" xmlns:ev="http://www.w3.org/2001/xml-events"   height="66px"   width="68px" ><path fill="rgb( 241, 241, 241 )" d="M4,30 C4,30 64,30 64,30 C64,30 64,66 64,66 C64,66 4,66 4,66 C4,66 4,30 4,30 Z "/><path fill="rgb( 195, 195, 195 )" d="M0,20 C0,20 68,20 68,20 C68,20 68,30 68,30 C68,30 0,30 0,30 C0,30 0,20 0,20 Z "/><path fill="rgb( 211, 65, 65 )" d="M44,20 C44,20 39,20 39,20 C39,20 39,66 39,66 C39,66 29,66 29,66 C29,66 29,20 29,20 C29,20 24,20 24,20 C18.477,20 14,15.523 14,10 C14,4.477 18.477,0 24,0 C29.523,0 34,4.477 34,10 C34,4.477 38.477,0 44,0 C49.523,0 54,4.477 54,10 C54,15.523 49.523,20 44,20 ZM28,10 C28,7.791 26.2089999999999,6 24,6 C21.7910000000001,6 20,7.791 20,10 C20,12.209 21.7910000000001,14 24,14 C24,14 28,14 28,14 C28,14 28,10 28,10 ZM44,6 C41.7910000000001,6 40,7.791 40,10 C40,10 40,14 40,14 C40,14 44,14 44,14 C46.2089999999999,14 48,12.209 48,10 C48,7.791 46.2089999999999,6 44,6 Z "/></svg>