<?xml version="1.0" encoding="utf-8"?>
<!-- Generator: Adobe Illustrator 17.0.0, SVG Export Plug-In . SVG Version: 6.00 Build 0)  -->
<!DOCTYPE svg PUBLIC "-//W3C//DTD SVG 1.1//EN" "http://www.w3.org/Graphics/SVG/1.1/DTD/svg11.dtd">
<svg version="1.1" id="Objects" xmlns="http://www.w3.org/2000/svg" xmlns:xlink="http://www.w3.org/1999/xlink" x="0px" y="0px"
	 width="192.882px" height="163.458px" viewBox="0 0 192.882 163.458" enable-background="new 0 0 192.882 163.458"
	 xml:space="preserve">
<path fill="#00A99D" d="M110.575,139.495l-17.98,10.784l23.098,4.902L110.575,139.495z M180.365,108.848l12.922-44.372
	l-21.851-29.523L51.413,0L14.598,16.417L2.744,57.122l23.19,38.394l111.616,30.048L180.365,108.848z M81.633,125.873l-50.672-5.451
	l16.574-14.142L81.633,125.873z"/>
<path fill="#006666" d="M25.934,95.516l55.699,30.357l-13.756-19.066L25.934,95.516z M30.961,120.422l19.629,22.193l1.446-19.926
	L30.961,120.422z M137.55,125.564l-44.955,24.715l25.181-29.95L137.55,125.564z M104.144,152.73l-6.456,10.728l18.005-8.277
	L104.144,152.73z"/>
</svg>
