<?xml version="1.0" encoding="utf-8"?>
<!-- Generator: Adobe Illustrator 17.0.0, SVG Export Plug-In . SVG Version: 6.00 Build 0)  -->
<!DOCTYPE svg PUBLIC "-//W3C//DTD SVG 1.1//EN" "http://www.w3.org/Graphics/SVG/1.1/DTD/svg11.dtd">
<svg version="1.1" id="图层_1" xmlns="http://www.w3.org/2000/svg" xmlns:xlink="http://www.w3.org/1999/xlink" x="0px" y="0px"
	 width="160.497px" height="77.889px" viewBox="0 0 160.497 77.889" enable-background="new 0 0 160.497 77.889"
	 xml:space="preserve">
<path fill="#0050A2" d="M67.838,27.699C75.44,6.678,61.169,1.012,51.856,1.036L21.055,1.091c2.572,1.96,2.145,4.546,1.65,6.164
	L4.84,71.288C4.112,73.822,1.45,76.481,0,76.903l24.943-0.034c-1.383-0.283-3.342-2.45-2.645-5.434l6.494-23.164
	C28.791,48.272,58.793,52.742,67.838,27.699 M43.581,6.897c3.251,0.015,12.292,0.476,6.497,19.567
	c-6.104,20.041-19.652,15.929-19.652,15.929l9.937-35.474C40.364,6.918,43.473,6.904,43.581,6.897 M87.83,76.78l16.751-0.045
	c-5.362-1.907-13.302-7.546-16.448-11.578c2.522-3.137,5.694-7.048,6.27-14.989h-8.715c0,0,1.689,1.063,1.689,3.347
	c0.007,2.113-0.756,4.996-2.223,7.068c-2.554-4.206-5.283-9.018-6.238-16.072c3.398-1.898,8.197-3.955,12.009-7.68
	c3.598-3.548,4.432-6.876,4.499-9.049c-0.003-0.098,0-0.178,0-0.261c-0.003-2.297-0.798-4.429-2.273-6.053
	c-2.522-2.775-6.507-3.907-10.661-3.044c-3.361,0.725-6.223,2.713-7.636,4.196c-5.074,5.288-5.724,14.034-5.718,17.99
	c0.013,0.962,0.055,1.695,0.068,2.112c-0.283,0.138-0.795,0.359-0.795,0.359c-3.692,1.528-13.565,4.491-17.099,13.557
	c-0.447,1.142-1.073,3.632-1.07,6.526c-0.003,2.482,0.46,5.252,1.916,7.787c2.5,4.334,6.731,7.092,13.493,6.93
	c7.348-0.143,14.599-5.743,15.875-6.772C82.803,72.424,86.098,75.871,87.83,76.78 M87.762,26.154
	c-0.861,6.1-7.928,12.278-9.657,13.124c-0.317-3.447-0.186-8.843,2.39-13.276c1.708-2.922,3.945-4.228,5.773-3.517
	C87.724,23.03,87.897,24.543,87.762,26.154 M77.955,66.945c-0.981,0.684-4.857,2.887-8.527,3.292
	c-3.38,0.351-9.003-1.108-8.997-8.666c-0.006-6.45,6.294-11.189,9.699-12.84C71.535,55,74.644,62.048,77.955,66.945 M138.714,6.831
	c-11.853,3.202-19.088,19.78-21.68,28.802c-12.018,42.077,9.516,36.039,10.537,35.826l7.665-27.403
	c0.311-1.338,0.595-4.629-3.309-6.436l26.791-0.055c-3.332,1.391-5.226,3.551-6.037,6.87l-7.694,27.382
	c-1.362,0.755-19.97,11.529-36.859,2.233c-15.772-8.679-12.773-41.132-0.361-57.007c20.159-25.778,48.767-15.024,52.73-13.696
	l-2.835,10.101C156.904,12.838,148.682,4.173,138.714,6.831"/>
</svg>
