<?xml version="1.0" encoding="utf-8"?>
<!-- Generator: Adobe Illustrator 17.0.0, SVG Export Plug-In . SVG Version: 6.00 Build 0)  -->
<!DOCTYPE svg PUBLIC "-//W3C//DTD SVG 1.1//EN" "http://www.w3.org/Graphics/SVG/1.1/DTD/svg11.dtd">
<svg version="1.1" id="图层_1" xmlns="http://www.w3.org/2000/svg" xmlns:xlink="http://www.w3.org/1999/xlink" x="0px" y="0px"
	 width="242.696px" height="210.649px" viewBox="0 0 242.696 210.649" enable-background="new 0 0 242.696 210.649"
	 xml:space="preserve">
<g>
	<path fill="#111111" d="M47.636,7.887C79.621,2.19,87.07,12.266,81.375,21.906c-5.698,9.64-31.899,17.81-31.899,17.81
		s14.372-9.044,13.495-14.302c-0.877-5.26-15.632-3.729-25.852-11.394C31.862,10.076,31.423,0,33.177,0
		C34.929,0,34.694,10.187,47.636,7.887z M84.238,62.643c-1.049-4.317-3.584-5.701-6.572-7.884
		c-6.471-0.793-10.701-0.196-17.088-0.661c-9.437,9.727-30.583,25.346-49.309,30.023c-8.763,2.196-3.504-6.568-3.504-6.568
		s-11.319,10.924,0,14.457c7.009,2.192,17.546-1.605,24.551-4.393c0.658,0.438,1.316,0.877,1.972,1.313
		c-11.19,9.213-24.772,21.92-30.469,29.809c-13.495,18.686,12.73,30.053,17.627,17.62C33.262,106.36,48.072,83.033,84.238,62.643z
		 M64.724,90.261c-3.943,9.202-4.82,44.692,15.336,63.535c26.446,24.721,74.926,26.493,108.225,10.952
		c32.862-15.338,64.411-55.209,38.558-96.834c-19.913-32.063-68.352-29.358-93.582-12.103
		c-15.199,10.392-36.475,42.389-11.83,69.006c24.646,26.618,66.416,12.325,69.992-16.761c2.912-23.664-19.637-38.906-39.066-27
		c-13.582,8.328-10.078,29.358,6.135,30.672c13.894,1.129,15.189-16.487,18.146-10.57c2.957,5.914,2.426,25.249-21.69,27.603
		c-27.566,2.686-47.723-31.054-17.744-59.152c26.961-25.269,71.674-9.584,79.852,22.674c6.797,26.826-19.666,61.805-55.206,68.024
		c-27.896,4.88-62.567-0.556-72.952-22.676c-9.276-19.768-4.457-33.788-1.828-44.742C89.698,81.934,68.667,81.057,64.724,90.261z"/>
	<path fill="#FF2222" d="M124.314,194.434c-7.244,4.192-3.943,15.775,7.012,16.21c10.953,0.438,45.321-28.973,111.37-32.917
		C242.696,177.727,166.788,169.844,124.314,194.434z"/>
</g>
</svg>
