<?xml version="1.0" encoding="utf-8"?>
<!-- Generator: Adobe Illustrator 17.0.0, SVG Export Plug-In . SVG Version: 6.00 Build 0)  -->
<!DOCTYPE svg PUBLIC "-//W3C//DTD SVG 1.1//EN" "http://www.w3.org/Graphics/SVG/1.1/DTD/svg11.dtd">
<svg version="1.1" id="图层_1" xmlns="http://www.w3.org/2000/svg" xmlns:xlink="http://www.w3.org/1999/xlink" x="0px" y="0px"
	 width="204.052px" height="130.905px" viewBox="0 0 204.052 130.905" enable-background="new 0 0 204.052 130.905"
	 xml:space="preserve">
<path fill="#0F4C97" d="M54.142,59.892l14.911,25.429H28.556l-4.641-7.853L54.142,59.892L54.142,59.892z M60.036,47.387
	l29.925-17.62l32.531,55.412H82.007L60.036,47.387L60.036,47.387z M82.007,92.54v-7.362h7.638v7.362H82.007L82.007,92.54z
	 M25.805,128.585l-2.552,1.094l-2.722,0.664l-2.782,0.258l-1.814-0.071l-1.773-0.316l-1.671-0.362l-1.656-0.617l-2.968-1.687
	l-2.666-2.175l-1.137-1.254l-1.01-1.396l-0.919-1.456l-0.765-1.513l-0.577-1.641l-0.432-1.685l-0.289-1.744L0,112.868l0.071-1.83
	l0.289-1.774l0.432-1.714l0.577-1.599l0.765-1.57l0.919-1.44l1.01-1.427L5.2,100.29l1.27-1.185l1.396-0.993l1.44-0.88l1.528-0.762
	l1.656-0.577l1.671-0.461l1.773-0.257l1.814-0.088l2.752,0.23l2.722,0.721l2.508,1.094l2.391,1.44v-3.485h7.538V130.3h-7.538v-3.139
	L25.805,128.585L25.805,128.585z M66.361,128.585l-2.51,1.094l-2.707,0.664l-2.764,0.258l-1.831-0.071l-1.76-0.316l-1.684-0.362
	l-1.629-0.617l-2.981-1.687l-2.649-2.175l-1.14-1.254l-1.039-1.396l-0.907-1.456l-0.777-1.513l-0.561-1.641l-0.434-1.685
	l-0.286-1.744l-0.088-1.816l0.088-1.83l0.286-1.774l0.434-1.714l0.561-1.599l0.777-1.57l0.907-1.44l1.039-1.427l1.14-1.224
	l1.282-1.185l1.366-0.993l1.44-0.88l1.541-0.762l1.629-0.577l1.684-0.461l1.76-0.257l1.831-0.088l2.764,0.23l2.707,0.721l2.51,1.094
	l2.376,1.44V85.178h7.535V130.3h-7.535v-3.139L66.361,128.585L66.361,128.585z M82.007,130.143V95.089h7.638v35.054H82.007
	L82.007,130.143z M96.01,17.478L125.921,0l50.108,85.178h-40.455L96.01,17.478L96.01,17.478z M120.114,128.585l-2.522,1.094
	l-2.708,0.664l-2.796,0.258l-1.844-0.071l-1.756-0.316l-1.699-0.362l-1.672-0.617l-3.014-1.687l-2.634-2.175l-1.109-1.254
	l-1.01-1.396l-0.863-1.456l-0.764-1.513l-0.619-1.641l-0.39-1.685l-0.316-1.744l-0.088-1.816l0.088-1.83l0.316-1.774l0.39-1.714
	l0.619-1.599l0.764-1.57l0.863-1.44l1.01-1.427l1.109-1.224l1.297-1.185l1.337-0.993l1.485-0.88l1.529-0.762l1.672-0.577
	l1.699-0.461l1.756-0.257l1.844-0.088l2.796,0.23l2.708,0.721l2.522,1.094l2.378,1.44V85.178h7.636V130.3h-7.636v-3.139
	L120.114,128.585L120.114,128.585z M160.281,128.585l-2.552,1.094l-2.763,0.664l-2.84,0.258l-1.829-0.071l-1.745-0.316l-1.711-0.362
	l-1.612-0.617l-2.984-1.687l-2.622-2.175l-1.08-1.254l-1.024-1.396l-0.864-1.456l-0.75-1.513l-0.621-1.641l-0.415-1.685
	l-0.274-1.744l-0.075-1.816l0.075-1.83l0.274-1.774l0.415-1.714l0.621-1.599l0.75-1.57l0.864-1.44l1.024-1.427l1.08-1.224
	l1.27-1.185l1.352-0.993l1.456-0.88l1.529-0.762l1.612-0.577l1.711-0.461l1.745-0.257l1.829-0.088l2.84,0.23l2.763,0.721
	l2.552,1.094l2.392,1.44v-3.485h7.522V130.3h-7.522v-3.139L160.281,128.585L160.281,128.585z M114.151,122.982l1.957-0.56
	l1.787-0.968l1.541-1.253l1.254-1.556l0.953-1.755l0.603-1.961l0.246-2.06l-0.246-2.103l-0.603-1.945l-0.953-1.758l-1.254-1.528
	l-1.541-1.297l-1.787-0.922l-1.957-0.603l-2.064-0.26l-2.143,0.26l-0.997,0.231l-0.966,0.372l-1.741,0.922l-1.528,1.297
	l-1.268,1.528l-0.95,1.758l-0.347,0.949l-0.215,0.996l-0.173,1.022l-0.072,1.081l0.245,2.06l0.562,1.961l0.95,1.755l1.268,1.556
	l1.528,1.253l1.741,0.968l1.963,0.56l2.143,0.23L114.151,122.982L114.151,122.982z M195.594,91.329h-0.447v-4.381h1.67l0.591,0.087
	l0.402,0.231l0.274,0.373l0.072,0.534l-0.072,0.49l-0.216,0.361l-0.778,0.332l1.241,1.973h-0.463l-1.209-2.102h-1.066v-0.275h0.937
	l0.807-0.145l0.243-0.216l0.117-0.418l-0.073-0.446l-0.216-0.316l-0.749-0.145h-1.066L195.594,91.329L195.594,91.329z
	 M154.242,122.982l2.02-0.56l1.813-0.968l1.515-1.253l1.326-1.556l0.906-1.755l0.619-1.961l0.23-2.06l-0.23-2.103l-0.619-1.945
	l-0.906-1.758l-1.326-1.528l-1.515-1.297l-1.813-0.922l-2.02-0.603l-2.117-0.26l-1.05,0.057l-1.037,0.203l-0.953,0.231l-0.994,0.372
	l-1.759,0.922l-1.553,1.297l-1.284,1.528l-0.935,1.758l-0.593,1.945l-0.158,1.022l-0.073,1.081l0.231,2.06l0.593,1.961l0.935,1.755
	l1.284,1.556l1.553,1.253l1.759,0.968l1.946,0.56l2.086,0.23L154.242,122.982L154.242,122.982z M197.899,85.766l0.649,0.32
	l0.531,0.461l0.752,1.136l0.287,1.413l-0.287,1.381l-0.752,1.154l-1.179,0.748l-1.368,0.316l-1.427-0.316l-1.097-0.748l-0.808-1.154
	l-0.314-1.381l0.086-0.722l0.228-0.691l0.349-0.648l0.459-0.488l0.534-0.461l0.562-0.32l0.691-0.214l0.736-0.088v0.449l-0.65,0.041
	l-0.664,0.201l-0.573,0.274l-0.448,0.406l-0.432,0.431l-0.289,0.56l-0.216,0.621l-0.06,0.648l0.276,1.324l0.721,1.053l1.021,0.648
	l1.314,0.259l1.196-0.259l1.05-0.648l0.634-1.053l0.247-1.324l-0.247-1.27l-0.634-0.991l-0.445-0.406l-0.605-0.274l-1.196-0.242
	v-0.449L197.899,85.766L197.899,85.766z M19.825,122.982l1.945-0.56l1.743-0.968l1.528-1.253l1.327-1.556l0.936-1.755l0.575-1.961
	l0.244-2.06l-0.244-2.103l-0.575-1.945l-0.936-1.758l-1.327-1.528l-1.528-1.297l-1.743-0.922l-1.945-0.603l-2.076-0.26l-2.161,0.26
	l-0.98,0.231l-0.993,0.372l-1.784,0.922l-1.53,1.297l-1.312,1.528l-0.95,1.758l-0.59,1.945l-0.175,1.022l-0.07,1.081l0.244,2.06
	l0.59,1.961l0.95,1.755l1.312,1.556l1.53,1.253l1.784,0.968l1.973,0.56l2.161,0.23L19.825,122.982L19.825,122.982z M60.453,122.982
	l1.945-0.56l1.715-0.968l1.497-1.253l1.27-1.556l0.95-1.755l0.575-1.961l0.203-2.06l-0.203-2.103l-0.575-1.945l-0.95-1.758
	l-1.27-1.528l-1.497-1.297l-1.715-0.922l-1.945-0.603l-2.073-0.26l-2.164,0.26l-0.966,0.231l-0.994,0.372l-1.799,0.922l-1.528,1.297
	l-1.283,1.528l-0.979,1.758l-0.604,1.945l-0.129,1.022l-0.087,1.081l0.217,2.06l0.604,1.961l0.979,1.755l1.283,1.556l1.528,1.253
	l1.799,0.968l1.96,0.56l2.164,0.23L60.453,122.982L60.453,122.982z M194.758,104.295l-0.562-0.822l-0.762-0.721l-0.924-0.617
	l-1.021-0.505l-1.199-0.274l-1.279-0.101l-1.817,0.145l-1.023,0.201l-1.094,0.345l-0.894,0.46l-0.807,0.563l-0.532,0.719l-0.2,0.896
	l0.299,1.267l0.764,0.936l1.111,0.735l1.281,0.535l2.665,0.532l1.873,0.186l3.604,0.489l2.85,0.853l2.378,1.035l0.952,0.635
	l0.835,0.705l1.295,1.484l0.838,1.714l0.503,1.83l0.16,1.958l-0.334,2.825l-1.007,2.42l-1.529,2.063l-1.945,1.725l-2.303,1.111
	l-2.781,0.765l-2.897,0.39l-2.58,0.128l-2.506-0.201l-2.463-0.503l-2.319-0.852l-2.088-1.311l-1.845-1.64l-1.525-2.089l-1.08-2.478
	l-0.621-2.968h7.535l0.346,1.369l0.56,1.138l0.851,1.007l0.979,0.735l1.037,0.604l1.125,0.406l2.015,0.346l2.912-0.346l2.29-0.935
	l1.501-1.211l0.359-0.737l0.186-0.718l-0.186-1.155l-0.389-0.963l-0.659-0.722l-0.898-0.562l-1.092-0.461l-1.297-0.315l-3.024-0.491
	l-2.25-0.345l-2.65-0.505l-2.55-0.748l-2.032-1.125l-1.483-1.369l-1.34-1.613l-0.503-0.908l-0.376-0.966l-0.261-1.138l-0.084-1.181
	l0.084-1.195l0.129-1.097l0.318-1.051l0.345-1.009l0.533-0.979l0.621-0.908l1.569-1.6l1.988-1.324l1.182-0.546l1.254-0.449
	l1.412-0.389l1.484-0.228l1.617-0.203l1.756-0.014l2.851,0.13l2.58,0.619l1.225,0.418l1.139,0.549l1.081,0.606L198.966,98
	l1.685,1.64l1.267,1.961l0.819,2.161l0.406,2.449h-7.68L194.758,104.295L194.758,104.295z"/>
</svg>
