<?xml version="1.0" encoding="utf-8"?>
<!-- Generator: Adobe Illustrator 17.0.0, SVG Export Plug-In . SVG Version: 6.00 Build 0)  -->
<!DOCTYPE svg PUBLIC "-//W3C//DTD SVG 1.1//EN" "http://www.w3.org/Graphics/SVG/1.1/DTD/svg11.dtd">
<svg version="1.1" id="图层_1" xmlns="http://www.w3.org/2000/svg" xmlns:xlink="http://www.w3.org/1999/xlink" x="0px" y="0px"
	 width="212.002px" height="223.35px" viewBox="0 0 212.002 223.35" enable-background="new 0 0 212.002 223.35"
	 xml:space="preserve">
<path fill="#FF4545" d="M102.06,201.684c-5.049,1.092-9.871,1.464-14.06,3.29c-2.6,1.133-4.314,4.41-6.269,6.851
	c-0.806,1.005-0.985,2.521-1.817,3.489c-2.093,2.433-4.139,1.913-5.085-1.198c-0.393-1.287-0.579-2.636-1.052-4.857
	c-6.538,5.411-16.084,5.48-20.294,14.091c-0.368-0.161-0.736-0.32-1.105-0.48c0.743-3.241,1.485-6.482,2.298-10.029
	c-2.966-0.524-6.265-0.997-9.496-1.759c-0.775-0.183-1.282-1.371-1.986-2.017c-2.905-2.665-5.465-6.014-8.847-7.784
	c-5.52-2.89-10.572-0.624-15.376,5.708c-0.582,0.768-1.122,1.569-1.779,2.493c-3.087-9.554,4.293-15.443,16.776-13.293
	c-0.808-3.979-1.584-7.805-2.421-11.935c-3.089,2.675-6.6,4.745-10.194,1.612c-2.92-2.544-0.999-5.481,0.893-8.393
	c-4.147-1.379-8.118-3.071-6.806-8.479c0.909-3.74,3.979-5.217,9.706-4.786c-0.504-4.49-0.204-8.737,5.207-9.974
	c-7.383-10.865-17.798-11.06-29.115-8.295c-0.116-0.434-0.231-0.867-0.347-1.301c1.485-1.81,2.972-3.621,4.632-5.643
	c-1.589-0.762-3.232-1.549-5.523-2.646c2.295-1.119,4.173-2.035,5.988-2.92c-1.341-2.083-2.689-4.178-4.037-6.273
	c0.245-0.288,0.492-0.576,0.738-0.863c1.766,0.364,3.53,0.728,5.533,1.141c0-2.432,0-4.858,0-8.494
	c2.445,1.944,4.15,3.3,6.001,4.771c0.513-1.604,1.132-3.181,1.519-4.813c0.788-3.334,2.426-3.834,4.875-1.71
	c2.225-1.675,4.374-3.294,6.588-4.962c-3.057-2.006-4.969-4.88-3.453-8.741c1.119-2.847,3.498-4.699,6.739-4.438
	c6.534,0.525,6.216,6.178,7.544,10.726c1.617-0.686,3.135-1.329,4.942-2.095c-7.317-7.662-13.002-16.563-23.021-21.297
	c-6.062-2.864-8.284-9.231-10.086-15.365c0.274-0.251,0.55-0.502,0.824-0.753c0.581,1.231,1.162,2.462,1.743,3.692
	c0.328-0.257,0.656-0.514,0.985-0.771c-0.514-2.2-1.027-4.399-1.54-6.599c0.204-0.087,0.408-0.174,0.611-0.262
	c1.021,1.298,2.041,2.595,3.24,4.121c0.163-3.146,0.306-5.912,0.448-8.678c0.228-0.025,0.453-0.049,0.68-0.074
	c0.75,2.544,1.501,5.087,2.538,8.606c0.6-2.896,0.984-4.761,1.371-6.626c0.197-0.015,0.395-0.031,0.592-0.046
	c0.603,2.735,1.208,5.47,2.065,9.357c0.594-2.257,0.911-3.463,1.368-5.2c2.542,8.973,8.133,14.922,15.781,19.168
	c-3.175-7.135-6.104-14.271-12.055-19.757c-2.754-2.541-5.245-5.811-6.684-9.241c-2.834-6.757,0.35-11.481,7.059-12.375
	c-0.705-5.291-1.409-10.586-2.113-15.881c0.51-0.206,1.021-0.414,1.532-0.62c2.99,4.691,5.98,9.383,9.034,14.174
	c2.172-2.827,5.374-5.132,9.925-4.354c0.857,0.146,1.714,0.305,2.567,0.471c2.872,0.559,5.743,1.124,8.205,1.606
	c0.62,2.774,1.1,6.285,2.205,9.586c2.428,7.256,0.011,11.941-7.317,13.5c1.893,1.586,3.841,3.111,5.651,4.786
	c0.973,0.898,1.711,2.05,2.385,3.452c-5.812-3.899-13.775,1.281-18.888-5.168c-0.247,0.35-0.494,0.699-0.742,1.048
	c2.752,2.299,5.344,4.829,8.284,6.854c7.783,5.362,15.717,10.507,23.332,15.566c6.539-6.442,13.753-13.55,21.101-20.79
	c-9.634-0.48-17.486-4.649-24.136-12.21c1.562-0.757,2.796-1.355,4.203-2.038c-2.109-1.175-4.048-2-5.678-3.233
	c-1.713-1.297-2.229-3.139-0.208-4.656c6.961-5.229,7.413-7.029,3.412-14.784c-3.275-6.349-2.791-16.399,1.973-20.85
	c3.755-3.508,8.253-6.616,12.966-8.625c10.948-4.667,22-4.65,33.028,0.698c9.013,4.371,18.49,19.467,15.854,32.711
	c-1.223,6.144-3.629,11.667-6.965,16.874c-0.392,0.611-0.746,1.246-1.26,2.11c11.317,4.271,19.73,11.892,26.806,21.001
	c0.661-4.694,0.817-9.497,2.083-13.989c2.216-7.865,7.094-13.655,15.204-16.21c6.392-2.013,11.928,0.056,16.716,4.049
	c4.156,3.466,4.06,8.288,2.828,13.147c-0.09,0.353-0.078,0.732-0.108,1.042c2.097,1.309,4.15,2.59,6.479,4.043
	c2.081-2.193,4.794-3.732,8.045-1.251c3.001,2.29,2.937,5.264,1.352,8.588c3.096,1.051,5.588,2.572,5.329,6.284
	c-0.282,4.032-3.287,5.234-6.526,5.991c1.782,9.222,1.078,13.127-3.979,21.909c5.741,1.011,10.557,3.218,10.066,10.093
	c-0.337,4.723-3.068,6.13-11.892,6.841c3.836,20.7,1.54,30.353-7.211,45.373c3.316,0.176,6.545,0.347,10.556,0.56
	c-4.201,2.503-7.802,4.05-10.67,6.467c-8.854,7.462-6.752,17.153,2.146,23.437c1.797,1.27,3.045,3.319,4.484,4.941
	c-9.78,3.332-18.658,6.356-27.927,9.514c-3.584-4.945-7.676-10.666-14.553-13.366c-3.953-1.552-7.829-3.354-11.882-4.576
	c-1.926-0.581-4.342-0.559-6.248,0.066c-2.599,0.852-4.218,0.099-6.057-1.541c-0.969-0.864-2.573-1.645-3.772-1.497
	c-3.301,0.407-6.524,1.393-9.803,2.022c-4.897,0.941-7.461,3.544-7.824,8.133c-0.338,4.279-2.423,6.52-5.574,5.995
	c-2.715-0.453-4.668-4.07-4.037-7.51C101.478,204.301,101.726,203.254,102.06,201.684z M200.898,104.872
	c3.009-6.157,3.358-11.198,1.095-14.364c-1.43,2.758-3.385,4.908-6.741,4.23c-3.437-0.694-4.966-3.109-4.533-6.658
	c-3.374-0.21-6.427-0.739-7.352-4.275c-0.902-3.455,0.847-5.901,3.515-7.358c-0.876-2.055-1.641-3.852-2.49-5.847
	c-4.212,1.107-7.863,0.167-10.154-3.893c-1.795-3.183-0.718-6.334,1.381-8.696c1.848-2.078,4.663-2.174,7.462-0.617
	c-1.101,0.786-2.588,1.299-2.987,2.263c-0.58,1.4-1.053,3.582-0.358,4.613c1.249,1.852,3.211,1.35,4.771-0.302
	c2.051-2.17,2.23-6.317,0.286-8.581c-4.365-5.082-11.893-5.184-17.403-0.252c-6.789,6.077-10.939,21.784-0.751,30.899
	c6.132,5.485,12.311,10.917,18.613,16.502c1.173-4.072,4.08-6.021,8.316-5.653C198.042,97.272,199.727,100.589,200.898,104.872z
	 M56.521,172.149c0.36,1.596,0.621,2.921,0.961,4.226c0.986,3.786,3.125,6.726,7.095,7.383c1.575,0.261,3.648-0.582,4.977-1.599
	c0.587-0.45,0.157-2.683-0.298-3.929c-0.68-1.862-1.854-3.536-2.707-5.343c-4.478-9.491-8.34-19.087-4.254-29.722
	C51.217,143.688,43.36,149.8,36.42,157.94c0.216,0.916,0.641,2.712,1.066,4.509c5.199-1.543,7.708-0.964,9.212,2.085
	c1.741,3.53,0.114,7.03-4.778,10.248c2.103,2.135,4.683,4.295,2.708,7.652c-2.458,4.178-6.292,2.833-10.367,1.454
	c1.411,7.447,2.328,14.446,9.268,18.819c0.532-3.083,1.022-5.917,1.576-9.13c1.382,1.553,2.432,2.734,3.487,3.919
	c0.936-0.725,1.703-1.319,2.516-1.948c-1.723-0.978-3.003-1.705-4.763-2.705c1.868-1.361,3.118-2.271,4.059-2.957
	c-1.211-2.037-2.301-3.87-3.391-5.703c1.88-0.566,3.757-1.13,5.839-1.757C53.052,179.063,50.008,174.188,56.521,172.149z
	 M121.214,183.011c-1.105-0.319-1.688-0.619-2.278-0.637c-6.66-0.207-12.199-3.084-17.442-6.937
	c-2.181-1.604-4.663-2.962-7.21-3.867c-4.223-1.499-7.658,0.914-7.684,5.348c-0.012,2.042,0.533,4.21,1.334,6.106
	c1.66,3.933,3.659,7.722,5.564,11.664c5.492-1.153,11.328-2.747,17.271-3.516C115.912,190.507,118.553,187.376,121.214,183.011z
	 M176.482,128.608c3.14-3.695,6.604-7.775,10.281-12.105c-5.756-9.84-14.048-18.022-22.747-24.611
	c1.335,8.199,2.742,16.897,4.185,25.591c0.118,0.713,0.318,1.516,0.755,2.056C171.591,122.802,174.307,126.002,176.482,128.608z
	 M173.519,160.798c-3.615,1.895-6.434,1.184-8.588-2.037c-2.659-3.977,0.485-6.127,2.812-8.514c-0.931-0.974-1.748-1.83-2.513-2.632
	c-3.084,5.739-6.203,11.238-9.016,16.888c-1.757,3.527-0.934,6.786,2.082,9.441c3.459,3.047,8.239,4.065,11.659,2.322
	c-1.993-3.192-3.981-6.375-5.968-9.56c0.27-0.25,0.538-0.5,0.808-0.749c2.951,2.565,5.879,5.159,8.87,7.677
	c0.797,0.67,1.799,1.593,2.689,1.573c5.173-0.11,9.345-6.1,7.93-11.14C179.475,168.24,175.824,167.277,173.519,160.798z
	 M194.543,150.053c1.488-9.688,0.095-18.986-4.205-27.879c-1.082-2.238-2.634-1.807-4.296-0.638
	c-5.731,4.033-7.97,9.676-7.759,15.599c2.746,0,5.833-0.889,7.884,0.19c3.976,2.09,2.413,6.198,1.813,9.237
	C190.15,147.717,192.051,148.728,194.543,150.053z M21.053,124.004c0.619,4.769,4.307,9.375,9.013,10.263
	c1.945,0.367,4.677,0.469,5.996-0.605c2.421-1.97,2.58-11.537,0.903-14.46c-1.633-2.848-5.657-3.868-8.121-2.057
	c-2.211,1.627-2.085,4.088,0.341,7.146c0.118,0.148,0.049,0.442,0.134,1.501C26.445,125.171,23.802,124.599,21.053,124.004z
	 M83.18,199.71c-0.408-0.653-0.451-0.814-0.529-0.833c-9.424-2.271-18.061-0.887-25.698,5.424c-0.739,0.611-1.926,0.681-2.905,1.001
	c-0.199-1.1-0.515-2.195-0.551-3.3c-0.02-0.608,0.433-1.232,0.781-2.132c-1.77,0.19-3.186,0.344-4.574,0.493
	c0.361,6.722,2.706,9.003,8.883,8.815c1.726-0.052,3.584-0.208,5.135-0.884c4.529-1.975,8.908-4.292,13.399-6.359
	C79.007,201.068,81.027,200.49,83.18,199.71z M142.723,179.788c3.145,2.455,6.256,5.158,9.668,7.402
	c1.229,0.809,3.307,0.996,4.783,0.622c2.869-0.726,5.396-0.761,7.786,1.159c0.776,0.623,1.647,1.144,2.518,1.634
	c3.223,1.814,5.078,0.872,5.272-2.715c0.062-1.183-0.109-2.378-0.188-3.837c-7.007,1.125-12.76-1.004-18.076-4.622
	C148.93,175.65,147.456,175.731,142.723,179.788z M48.202,112.634c-0.476,1.71-0.928,3.332-1.527,5.486
	c-1.087-1.379-1.487-2.286-2.179-2.67c-1.014-0.562-2.623-1.362-3.271-0.949c-0.922,0.586-1.715,2.203-1.667,3.342
	c0.208,4.963,0.739,9.911,1.222,15.681c5.328-5.136,10.683-10.298,16.181-15.598C53.401,115.776,50.761,114.18,48.202,112.634z
	 M77.789,29.975c6.823-6.661,14.271-7.783,20.604-3.399c3.572,2.473,5.529,6.099,5.01,10.242c-0.467,3.718-2.182,7.28-3.276,10.694
	c5.005-0.823,6.194-7.255,5.606-12.601c-0.795-7.233-6.605-12.168-14.825-12.763C84.148,21.659,79.299,24.373,77.789,29.975z
	 M115.136,44.553c-1.6,0.58-3.944,0.722-4.787,1.921c-0.979,1.392-1.427,4.152-0.664,5.51c0.845,1.507,3.282,2.865,5.088,2.947
	c4.767,0.218,7.308-3.217,9.194-7.08c1.654-3.383,2.01-6.963-0.775-9.783c-1.286-1.303-3.682-2.186-5.508-2.083
	c-1.72,0.098-3.354,1.741-5.024,2.704c0.19,0.295,0.382,0.589,0.573,0.885c0.449-0.177,0.917-0.542,1.346-0.5
	c2.471,0.244,5.673-0.265,7.227,1.089c2.416,2.104,1.171,5.315-0.449,7.892c-0.528,0.84-0.997,1.994-1.784,2.34
	c-2.173,0.955-4.476,1.653-6.79,2.184c-0.302,0.069-1.569-1.733-1.357-2.164C112.356,48.511,113.666,46.791,115.136,44.553z
	 M168.356,122.735c-0.381,5.604-0.74,10.894-1.073,15.793c2.976,0.377,5.578,0.707,8.154,1.034
	C175.418,132.75,172.382,125.291,168.356,122.735z M194.124,106.028c-2.258,0.599-3.915,1.038-5.811,1.541
	c1.656,2.374,3.121,4.475,4.566,6.547c4.997-2.96,6.684-9.035,3.38-12.447c-1.157-1.195-3.444-1.546-5.267-1.706
	c-0.608-0.053-1.373,1.692-2.066,2.615c1.307,0.898,2.612,1.796,3.919,2.693C192.943,105.339,193.052,105.394,194.124,106.028z
	 M84.412,47.12c1.407,1.575,3.672,1.172,5.765-0.141c2.987-1.875,3.363-4.889,2.384-7.923c-0.841-2.605-2.967-4.186-5.778-3.788
	c-2.806,0.396-4.447,2.242-4.677,4.144c2.12,1.164,3.592,1.972,5.064,2.78C86.332,43.691,85.492,45.188,84.412,47.12z
	 M198.375,114.154c-0.611,0.504-3.415,2.335-3.225,2.734c1.309,2.736,2.779,5.849,5.138,7.474c1.642,1.131,5.285-2.484,5.326-4.644
	C205.668,116.811,202.827,114.127,198.375,114.154z M111.334,104.429c-5.341-8.025-15.514-12.823-24.372-11.949
	c-8.333,0.822-16.542,6.06-19.16,12.648C82.047,89.311,96.587,90.755,111.334,104.429z M91.363,160.227
	c0.093-0.14,0.186-0.28,0.278-0.42c-2.644-7.401-5.365-14.775-7.898-22.214c-1.494-4.388-3.974-5.164-7.049-2.85
	c1.761,1.753,3.846,3.401,5.346,5.473c1.044,1.443,1.116,3.55,1.918,5.218C86.349,150.403,88.885,155.301,91.363,160.227z
	 M116.568,129.893c0.167-0.448,0.335-0.896,0.502-1.345c-2.977-1.039-5.954-2.079-9.354-3.265c0,1.671,0.149,2.783-0.041,3.833
	c-0.198,1.089-0.854,2.09-1.084,3.178c-0.771,3.644,1.135,5.854,4.912,5.812C107.914,132.799,109.362,130.452,116.568,129.893z
	 M133.682,123.994c-9.279,2.185-9.279,2.185-10.029,6.172c5.04-2.856,8.146-0.942,9.807,4.339c0.404-0.209,0.809-0.417,1.213-0.626
	C134.354,130.709,134.038,127.539,133.682,123.994z M127.973,161.14c4.496-4.297,5.17-6.674,3.429-9.402
	c-1.389,1.282-2.652,3.377-4.268,3.697c-1.825,0.361-3.966-0.872-5.97-1.412c-0.144,0.206-0.286,0.412-0.43,0.618
	C123.149,156.809,125.561,158.976,127.973,161.14z M110.555,144.22c-0.406-0.182-0.812-0.364-1.219-0.545
	c-1.092,3.174-2.184,6.347-3.405,9.897c3.392-0.077,6.542,2.825,9.568-0.59C109.719,149.68,109.475,149.238,110.555,144.22z
	 M136.957,137.39c-0.423,0.38-0.846,0.761-1.27,1.141c4.285,3.613,2.282,6.88-0.521,10.104c0.258,0.221,0.517,0.441,0.777,0.663
	c2.746-1.692,5.494-3.384,8.473-5.218C141.806,141.739,139.381,139.564,136.957,137.39z M92.447,7.335
	c-0.331-0.224-0.661-0.447-0.991-0.671c-0.666,1.547-2.035,3.216-1.794,4.606c0.23,1.332,1.974,3.047,3.341,3.369
	c1.553,0.366,3.426-0.626,5.16-1.028c-0.087-0.31-0.175-0.62-0.262-0.93C93.333,12.54,92.359,11.585,92.447,7.335z M188.092,165.903
	c0.312,0.08,0.624,0.161,0.937,0.241c1.127-2.727,2.254-5.454,3.556-8.602c-2.52,0.593-4.259,1.003-5.877,1.385
	C187.195,161.385,187.644,163.644,188.092,165.903z M111.621,15.95c-5.091,3.015-7.12,2.624-10.31-1.79
	c-0.218,3.623,1.47,5.828,4.833,5.986C108.924,20.277,111.279,19.576,111.621,15.95z M41.631,51.088
	c2.016,0.649,4.195,0.727,5.204,1.852c1.015,1.131,0.865,3.307,1.265,5.208c2.943-2.32,1.984-4.731,0.034-6.715
	C46.158,49.425,43.746,48.625,41.631,51.088z M31.235,61.808c-0.042,0.29-0.086,0.58-0.128,0.869
	c1.005,0.239,2.522,1.007,2.92,0.621c1.264-1.225,2.537-2.769,2.963-4.41c0.273-1.051-0.939-2.489-1.486-3.754
	c-0.271,0.135-0.546,0.27-0.817,0.405c0.397,1.17,0.794,2.34,1.316,3.875c-1.594-0.378-2.672-0.633-4.107-0.974
	c0.768,1.227,1.277,2.04,1.868,2.984C32.773,61.575,32.005,61.692,31.235,61.808z M116.211,15.755
	c1.645,1.792,4.115,2.228,6.392,0.305c0.879-0.742,0.742-2.688,0.988-3.743C120.834,13.601,118.582,14.65,116.211,15.755z
	 M184.259,180.755c-0.473-0.391-0.945-0.782-1.419-1.172c-1.285,1.313-2.625,2.584-3.764,4.015
	c-0.102,0.128,1.097,1.292,1.692,1.975C181.933,183.967,183.096,182.361,184.259,180.755z M174.894,143.538
	c-2.509-2.441-4.057-2.348-5.444-0.447c-1.233,1.69-1.874,3.371,0.732,5.389C169.927,145.103,170.839,143.098,174.894,143.538z
	 M170.432,152.389c-0.568,0.066-1.136,0.132-1.703,0.198c0.106,1.579-0.327,3.521,0.439,4.657c1.341,1.99,3.14,1.301,4.89-0.816
	C170.569,156.934,170.142,154.957,170.432,152.389z M185.02,145.402c0.774-1.519,0.34-3.48-1.806-4.283
	c-1.018-0.381-2.604,0.755-3.973,1.218C181.527,143.549,183.108,144.387,185.02,145.402z M27.204,164.315
	c3.112-0.736,5.02-1.187,8.12-1.92c-1.972-0.93-3.499-2.278-4.488-1.959C29.561,160.848,28.717,162.594,27.204,164.315z
	 M41.439,171.093c0.283,0.095,0.568,0.19,0.853,0.285c0-1.517,0.475-3.302-0.172-4.458c-0.413-0.738-2.485-0.549-4.185-0.839
	C39.468,168.272,40.453,169.682,41.439,171.093z M193.707,86.673c-0.319,0.413-0.639,0.827-0.957,1.24
	c1.229,1.013,2.418,2.755,3.697,2.824c1.156,0.062,2.409-1.705,3.62-2.665c-0.234-0.288-0.467-0.576-0.7-0.864
	C197.348,89.685,195.473,89.265,193.707,86.673z M203.227,75.269c0.312-0.023,0.624-0.046,0.936-0.069
	c-0.386-1.439-0.454-3.116-1.287-4.215c-0.428-0.565-2.218-0.099-3.737-0.099C200.97,72.85,202.1,74.059,203.227,75.269z
	 M24.741,167.179c-1.199,1.775-2.589,2.958-2.679,4.232c-0.076,1.085,1.346,2.275,2.105,3.419c0.19-0.181,0.384-0.362,0.574-0.542
	C24.741,172.396,24.741,170.503,24.741,167.179z"/>
</svg>
