<?xml version="1.0" encoding="utf-8"?>
<!-- Generator: Adobe Illustrator 17.0.0, SVG Export Plug-In . SVG Version: 6.00 Build 0)  -->
<!DOCTYPE svg PUBLIC "-//W3C//DTD SVG 1.1//EN" "http://www.w3.org/Graphics/SVG/1.1/DTD/svg11.dtd">
<svg version="1.1" id="图层_1" xmlns="http://www.w3.org/2000/svg" xmlns:xlink="http://www.w3.org/1999/xlink" x="0px" y="0px"
	 width="77.436px" height="66.466px" viewBox="-137.518 78.983 77.436 66.466"
	 enable-background="new -137.518 78.983 77.436 66.466" xml:space="preserve">
<path fill="#F08300" d="M-109.176,127.297c0,0-1.623,1.39-4.29,1.043c0,0-5.853,0.175-6.26,0.175c-0.405,0-4.405,0.694-5.797,2.723
	c0,0-3.128,4.29-3.593,5.333c0,0-2.724,4.985-4.752,4.058l-1.971-1.158l-0.926,0.056c0,0-0.753,0.466-0.753,0.756
	c0,0.291,0.348,0.23,0.348,0.23l0.521-0.056h0.754c0,0,1.333,1.445,2.666,1.39l2.318-0.695c0,0,4.521-4.001,5.216-3.942
	c0,0,3.769-1.912,8.811-0.407c0,0,7.709,2.9,10.724,2.378c0.093,0,0.756,0.072,1.449-0.053c1.033-0.183,2.201-0.584,2.201-0.584
	l0.174,0.928c0,0,0.355,1.427,1.158,2.448c0.366,0.463,0.597,0.848,1.334,0.97c0.348,0.058,1.854,1.046,3.129,0.986
	c0.58,0.06,2.551-0.407,2.955-0.751c0,0,0.929,1.215,2.031,1.735c0,0,1.449,0.985,4.578,0.407c0,0,3.014-1.45,3.129-2.087
	c0,0,0.639-0.986,0.639-1.449l0.058-0.348c0,0,1.565,0.52,2.899,0.174c0,0,2.492-1.16,2.781-2.784c0,0,0.523-1.736,0.232-2.434
	c0,0,0.985-0.288,1.334-0.637c0,0,1.333,2.434,4.87,1.797c0,0,3.94-0.463,5.101-3.883c0,0,2.548,0.752,4.23-0.987
	c0,0,3.824-4.014,0.311-6.923c-0.667-0.553-1.421-1.018-2.92-1.248c0,0,0.463-4.173-4.521-3.479c0,0,0.348-1.506-0.289-2.664
	c0,0-0.928-2.437-4.754-2.844c0,0-1.564-0.463-3.594,0.466l-0.173,0.231l-0.406-0.871c0,0,2.667,0.118,4.29-1.795
	c0,0,1.39-1.969,1.043-3.477c0,0,2.087,0,3.651-0.813c0,0,2.899-1.506,3.536-3.882c0,0,0.754-2.493-1.332-4.29
	c0,0,1.448-1.274,1.274-3.014c0,0,0.752-2.783-3.246-4.406l-1.45-0.404c0,0,0.175-1.044,0.059-1.45c0,0,0.084-1.265-1.016-2.516
	c-1.584-1.802-5.003-3.513-9.417-0.845c0,0-0.621-1.105-1.778-1.829c-2.325-1.458-6.466-2.621-9.64,1.132l-2.029-0.174
	c0,0,0.813-5.1-5.448-5.1c0,0-2.55-7.014-9.448-1.043c0,0-1.058-0.912-2.52-1.191c-1.418-0.274-4.699,0.579-6.476,1.908
	c-0.749,0.56-1.502,2.073-1.768,2.9c-0.14,0.434,0.317-0.081-0.017,0.612c0,0-2.376,0.348-3.536,1.565
	c-0.231,0.059-3.42,3.479-3.187,5.449c0,0-0.812,2.956,3.187,4.984c0.464,0.115,3.768,0.579,5.217-0.059
	c0.133-0.059,0.239-0.105,0.333-0.145c-0.162,0.301-1.628,3.349,3.434,5.824l-0.638,1.219c0,0-2.318-1.74-4.926-1.104
	c0,0-0.98,0.348-1.829,1.075c-0.929,0.799-1.735,2.036-1.765,3.215c0,0-0.167,1.551,0.29,2.957c0,0-2.435,1.563-2.666,3.593
	c-0.233,2.029-0.233,4,0.463,5.044c0.695,1.043,2.318,2.55,3.999,3.012l2.03-0.056c0,0,0.346,3.246,2.086,4.231
	c0,0,1.332,1.565,4.927,1.392c0.29-0.06,1.796,0,3.42-2.028l0.348-0.463C-108.77,125.329-108.133,126.428-109.176,127.297z
	 M-77.878,116.981c0,0,1.856-1.449,3.363-0.986c0,0,2.318,0.116,4.173,2.26c0,0,1.16,1.623-0.174,4.116l0.464,0.115l0.81-0.811
	c0,0,2.435-0.521,3.652,0.927c0,0,0.985,1.16-0.464,2.377v0.29c0,0,0.811,0.06,1.042-0.231c0,0,1.393-0.176,2.783,0.927
	c0,0,1.158,1.157,1.274,1.624c0,0.231,0.349,4.403-3.535,5.332l-0.695,0.059l-0.811-0.406l-0.986,0.753c0,0-0.174,1.16-0.926,1.739
	c0,0-2.898,3.07-7.187,0.753l-0.464-0.753c0,0-0.464-0.523-0.927-0.523l-0.231,0.407c0,0-0.909,0.765-2.37,0.65
	c-1.714-0.131-4.016-1.346-3.892-4.477c0,0,0.06-0.637,0.407-0.581l0.116-0.462c0,0-2.783-1.564-1.682-5.101
	c0,0,0.812-2.608,4.348-3.188c0,0,3.883-0.637,3.825,2.723c0,0,0.58,3.246-2.783,3.246l-0.636-0.521l-0.116,0.465l0.463,0.637
	l1.622,0.114c0,0,1.761-0.638,2.211-2.43c0.019-0.077,0.036-0.154,0.05-0.233c0.347-1.974-0.812-3.826-1.971-4.405
	c0,0-1.739-0.811-4.173,0.059c0,0-1.566,0.289-3.362,2.839c0,0-1.506,3.073,0.87,5.681l0.175,0.521c0,0-2.089-1.16-2.899-1.16
	h-2.898l-2.436,1.16l-0.694-0.753c0,0,2.26-0.291,3.072-0.811c0,0,2.549-1.276,2.898-3.479c0,0,0.058-1.973,0.058-2.204
	c0-0.232-1.566-2.317-1.913-2.551c0,0-1.97-0.983-4.637-0.578c0,0-2.898,0.578-3.071,3.015c0,0,0.059,2.666,1.796,2.027
	c0.116-0.232-0.579-0.579-0.579-0.579s-1.158-2.088,0.695-3.188c0,0,1.218-1.509,4.521-0.116c0,0,1.855,0.928,1.855,2.548
	c0,0,0.174,4.35-1.97,4.293c0,0-2.203,1.388-4.115,0.751c0,0-1.856-0.058-2.26-0.638l-0.175-0.23l-0.927-0.696
	c0,0-1.623,1.564-4.753,0.115c0,0-4.289-1.396-0.638-5.679l2.377-1.333l0.174-0.638l0.174-0.984c0,0,0.058-0.928,0.812-1.74
	c0,0,2.202-2.841,5.622-1.681c0,0,1.798,0.869,2.26,1.332l0.463,0.291l0.291-0.291c0,0-0.812-0.812,0.753-2.318
	c0,0,1.507-1.854,4.29-1.68c0,0,3.767,2.779,5.738,2.434c0,0,1.913,0.753,0.406,2.898l0.116,0.405l0.462-0.175
	C-78.748,118.254-78.051,117.444-77.878,116.981z M-94.339,107.128c-0.232-2.957-2.26-4.057-2.26-4.057
	c0.522,0.347,2.899,0.404,2.899,0.404c1.854,2.608,6.492,0.869,6.492,0.869l-0.117,0.58c-1.682,3.882,1.45,7.187,1.45,7.187
	l-0.289,0.118c-3.651-0.118-5.218,3.361-5.218,3.361l-1.101-0.465l-0.057-0.349c0.753-0.232,1.158-2.432,1.158-2.432v-2.669
	C-91.961,107.823-94.339,107.128-94.339,107.128z M-92.715,88.927l0.464,0.347l0.58-0.23c0,0-0.407-1.334,1.391-1.913
	c0.231-0.174,1.97-0.697,1.97-0.697s2.087-0.694,3.709,0.176c0,0,2.376,1.042,2.782,2.318c0,0,0.349,1.16-0.116,2.145l0.058,0.464
	l0.927-0.811c0,0-0.231-2.03,2.492-2.726c0,0,4.058-0.521,5.739,1.448c0,0,2.84,2.667,0.521,4.232l-0.29,0.232l0.464,0.404
	l1.101-0.056c0,0,1.16-0.407,2.087,0.289c0,0,2.26,1.39,2.318,2.722c0,0,0.228,0.67,0.01,1.479c-0.236,0.888-0.968,1.932-2.27,2.173
	l0.059,0.405l0.868,0.231c0,0,2.088,1.394,1.044,4.234c0,0-1.912,4.173-5.739,2.896l-0.52-0.118l-0.522,0.177l-0.639,0.056
	c0,0,0.304,1.216,0.156,2.398c-0.149,1.196-0.757,2.356-1.662,2.414c0,0-0.58,1.739-4.869,0.463c0,0-5.159-1.102-6.202-5.68
	c0,0-0.405-3.359,0.463-4.289c0,0,1.506-0.695,2.666-1.739c0,0,2.377-1.332,4-0.173l1.275,0.926c0,0,1.508,2.262,0.406,3.132
	c0,0-0.58,1.969-2.494,1.218h-0.404l0.172,0.404l0.407,0.405h0.984c0,0,1.623-0.521,2.492-2.49c0,0,0.579-1.219-0.637-3.132
	c0,0-1.855-2.085-5.159-1.39c0,0,0.811-1.623,1.043-2.26c0,0,0.117-3.074-2.086-4.116c0,0-2.03-2.261-6.201-0.348
	c0,0-2.087,2.084-1.972,2.897c0,0,0.463,2.436,0.928,2.956l0.928-0.059l0.174-0.349c0,0-1.333-0.229-0.928-2.839
	c0,0,1.043-2.146,2.145-2.146c0,0,2.896-0.925,3.999,0.523l1.566,1.797c0,0,0.752,1.275,0.348,2.319c0,0-1.508,4.404-6.203,4.347
	l-1.797,0.058c0,0-1.854-0.58-2.435-1.217l-1.333-0.291l-1.333,0.116c0,0-3.883-1.622-2.086-5.273c0,0,0.522-0.813,1.45-1.103
	l0.926-0.811l-0.694-0.174c0,0-2.377-1.623-1.334-4.753l0.927-0.986C-96.599,89.564-94.28,88-92.715,88.927z M-97.932,102.492
	l-0.928-0.061l-1.737-0.288l1.449-1.393l0.463,0.695l0.463,0.115l-0.058,0.35L-97.932,102.492z M-117.291,96.695l-0.811-0.232
	c0,0-6.319,2.436-7.535-3.131c0,0-0.061-0.006-0.065-0.017c-0.103-0.278-1.011-3.609,4.76-6.938h1.042l0.581,0.52l0.463,0.06
	l-0.059-1.448c0,0-0.811-1.74,2.204-3.596c0,0,2.956-2.201,5.912-0.636c0,0,1.217,0.403,1.275,1.565l0.463-0.176
	c0,0,1.855-2.551,4.057-2.781c0,0,2.377-0.465,3.13,0.927c0,0,1.334,0.811,1.102,2.375l0.289,0.351c0,0,0-0.292,0.58-0.292
	c0,0,1.912-0.173,2.144-0.059c0,0,1.653,0.513,2.544,2.012c0.382,0.642,0.436,1.467,0.47,2.511c0,0-3.651,1.044-4.057,3.999
	c0,0,0.116,2.842,1.508,3.826l-0.87,0.639c0,0-1.681-2.436-2.725-2.493l0.058-0.521c0,0,0.637-0.116,0.927-0.116
	c0.29,0,0.87-0.463,0.87-0.463s0.348-0.465-0.347-0.406l-0.464,0.114l-1.274-0.114l-0.581,0.059l-0.231,1.158
	c0,0,0.175,0,0.231,0.522c0,0-0.463,2.027-2.434,2.201c0,0-2.435,1.218-5.274-0.986c0,0-3.36-2.173-1.255-5.299
	c0.258-0.383,0.826-0.723,1.255-1.134c0,0,2.146-1.275,3.072-0.581l0.984,0.581h0.58l-0.116-1.1l-2.666-0.349
	c0,0-2.956,0.637-4.232,2.955c0,0-1.217,3.768,2.029,6.028c0,0,3.882,2.028,6.549,0.291c0,0,1.681-0.755,2.203-1.913
	c0,0,1.063,0.053,1.917,2.043c0.037,0.089,0.074,0.181,0.111,0.273c0,0-0.521,1.798-0.404,2.784c0,0-2.551,4.753-7.361,2.144v-1.157
	l-0.637-0.061c0,0-1.219,2.724-6.898,1.913C-114.276,102.547-118.972,100.867-117.291,96.695z M-108.713,123.415h-0.289
	l-0.116,0.694c0,0-0.754,1.973-2.26,1.973c0,0-0.205,0.349-0.706,0.478c-1.215,0.309-3.603,0.438-4.916-0.708
	c0,0-2.841-1.973-1.797-4.581l-0.117-0.291c0,0-0.347,0.813-2.781,0.231c-0.116-0.461-6.143-0.926-2.84-8.981l1.333-1.162
	l0.231-0.23l0.29,0.406l0.406-0.232c0,0-2.029-2.318,0.116-5.215c0,0,1.681-3.016,5.737-1.625l0.522,0.638l0.754,0.64
	c0,0,0.174,0.229,1.739-1.914c0,0,2.841-0.463,3.769,0.405c0,0,1.971,1.681,2.318,1.913c0,0,1.275,0.406,1.855,0
	c0,0,1.45-0.87,2.086-1.739c0,0,1.565-1.682,4.464-1.274c0,0,2.55,0.752,2.782,1.506c0,0,1.275,1.97,0.869,2.551l0.464,1.565
	l0.87-0.116c0,0,1.912,0.521,1.854,1.739c0,0,0.985,2.551-1.39,4.347l-0.233,0.232H-94.8l-1.566-0.058c0,0-3.941,1.216-4.405,3.07
	l-2.028-0.291c0,0-3.884-2.2-1.16-6.258c0,0,2.028-2.146,3.42-1.508c0,0,1.738,0.407,1.97,1.915c0,0,0.172,0.308,0.055,0.675
	c-0.115,0.357-0.518,0.771-0.518,0.771l0.521,0.407l0.406-0.348v-0.291l0.346-0.173l0.175-0.521c0,0-0.29-1.914-1.564-2.667
	c0,0-1.274-0.869-3.072-0.521c0,0-2.493,1.274-3.013,2.492c0,0-1.045,1.218-0.407,3.537c0,0,0.986,2.261,1.625,2.721
	c0,0,0.254,0.777,0.086,1.785c-0.139,0.831-0.693,1.82-1.27,2.668c-0.626,0.922-1.323,1.675-2.643,1.866
	C-107.843,123.935-108.713,123.994-108.713,123.415z M-108.191,125.096l0.116-0.35c0,0,1.102,0.232,1.971-0.868
	c0,0,1.45-1.393,2.029-3.129c0,0,0.811-2.087,0.695-2.842c0,0,1.565,0.871,2.145,0.638l-0.059,1.218c0,0-2.434,1.563-2.607,2.318
	c0,0-2.087,3.651,0.058,5.157c0,0,2.725,2.318,6.26,1.043c0,0,1.043,0.522,1.043,0.813c0,0-3.072,0.463-4.057,2.319l0.174,0.753
	c0,0,1.912-1.856,2.375-1.912c0,0,4.348-1.276,5.564,0.692l0.522,0.583l0.812-0.234c0,0,1.044-1.041,2.087-1.157
	c1.043-0.117,4.057-0.405,5.216,1.447l0.117,0.291c0,0-0.291,1.854,1.159,3.188c0,0,2.085,1.622,4.231,1.334
	c0,0,0.869,1.447,0.23,1.853c0,0-1.158,2.493-2.839,2.493c0,0-1.797,0.87-2.955-0.814c0,0,0.174,1.044-0.29,1.684
	c0,0-0.986,2.838-4.58,3.07c0,0-1.97,0.929-4.578-1.853l0.174-0.35l-0.405-0.405c0,0-1.682,1.046-2.608,0.927
	c0,0-5.102,0.232-5.508-4.174c0,0,0.812-4.752,6.26-5.155c0,0,2.667-0.582,4.29,1.506c0,0,0.927,0.869,0.638,1.157
	c-0.232,0.174-0.638,1.681-1.044,1.913c0,0-1.739,1.508-3.304,0.64c0,0-0.753-0.176-0.928-1.045l-0.289-0.115l0.173,0.753
	c0,0,0.232,1.565,2.782,1.508c0.406-0.175,1.16,0.058,2.783-1.393c0,0,0.288-0.382,0.359-0.866c0.119-0.817,0.047-1.914,0.047-1.914
	s-1.09-3.941-6.986-2.387c-0.596,0.157-1.301,0.488-1.998,0.764c0,0-2.377,1.623-3.362,3.709l-1.738,0.464
	c0,0-3.537,0.639-5.623-0.349c0,0-5.159-1.448-5.739-1.853c0,0-5.68-1.162-6.897-0.639c0,0-5.68,1.39-6.433,3.07l-1.623,1.219
	l1.448-2.204c0,0,1.682-0.984,2.261-1.911c0,0,1.739-2.26,4.696-2.957c0,0,2.086-0.868,9.099,0.058c0,0,4.058,0.523,6.028-0.926
	c0,0,1.044-1.335,1.102-2.319c0,0,0.174-1.563-0.406-1.969c0,0-0.347-0.231,0.058,1.854c0,0-0.463,2.607-2.724,2.492
	c0,0-4.464,0.868-7.014-0.058c0,0-0.366,0.344-1.054,0.302c-2.05-0.121-6.499-0.456-8.974,2.017l-2.491,2.492
	c0,0,2.666-4.868,4.057-5.449c0,0,1.564-2.315,7.476-1.912l5.217-0.172C-111.553,129.154-107.494,128.978-108.191,125.096z"/>
</svg>
