<?xml version="1.0" encoding="utf-8"?>
<!-- Generator: Adobe Illustrator 17.0.0, SVG Export Plug-In . SVG Version: 6.00 Build 0)  -->
<!DOCTYPE svg PUBLIC "-//W3C//DTD SVG 1.1//EN" "http://www.w3.org/Graphics/SVG/1.1/DTD/svg11.dtd">
<svg version="1.1" id="图层_1" xmlns="http://www.w3.org/2000/svg" xmlns:xlink="http://www.w3.org/1999/xlink" x="0px" y="0px"
	 width="220.865px" height="133.446px" viewBox="0 0 220.865 133.446" enable-background="new 0 0 220.865 133.446"
	 xml:space="preserve">
<path fill="#E96C00" d="M151.866,24.202l28.417-5.644l5.289,0.82v113.304h-23.08V29.834h-10.626L151.866,24.202L151.866,24.202z
	 M97.669,18.558c0,0-19.543,59.421-17.74,67.524c0,0-4.463,37.729,31.972,45.82c0,0,33.731,2.375,33.731-39.419
	c0,0-1.73-24.921-18.648-28.11h-17.762l-0.881,5.637c0,0,13.311-3.228,15.989,10.422c0,0,8.848,27.323-4.436,42.59
	c0,0-20.421,6.42-22.225-25.711c0,0-7.069-21.714,20.425-78.754h-11.553L97.669,18.558L97.669,18.558z M0,18.558v8.873l33.75,0.791
	l-23.099,39.34l17.763-0.78c22.196,0,12.474,17.665,12.474,17.665L9.794,131.902l24.835,1.544
	c7.971-9.635,22.199-43.361,22.199-43.361c4.39-5.638,5.338-17.694,5.338-17.694c-5.338-10.416-15.087-12.016-15.087-12.016h-12.45
	l24.878-40.997L0,18.558z M218.462,10.867h2.403C220.863,4.862,215.999,0.005,209.997,0c-5.999,0.005-10.862,4.862-10.865,10.867
	c0.003,6,4.866,10.869,10.865,10.869c6.002,0,10.866-4.869,10.869-10.869H218.462h-2.403c-0.003,1.686-0.676,3.179-1.775,4.286
	c-1.107,1.098-2.601,1.771-4.288,1.771c-1.676,0-3.175-0.673-4.28-1.771c-1.1-1.107-1.773-2.6-1.773-4.286
	c0-1.679,0.673-3.184,1.773-4.28c1.105-1.097,2.603-1.776,4.28-1.776c1.687,0,3.181,0.679,4.288,1.776
	c1.099,1.096,1.772,2.6,1.775,4.28C216.059,10.867,218.462,10.867,218.462,10.867z"/>
</svg>
