<?xml version="1.0" encoding="utf-8"?>
<!-- Generator: Adobe Illustrator 17.0.0, SVG Export Plug-In . SVG Version: 6.00 Build 0)  -->
<!DOCTYPE svg PUBLIC "-//W3C//DTD SVG 1.1//EN" "http://www.w3.org/Graphics/SVG/1.1/DTD/svg11.dtd">
<svg version="1.1" id="图层_1" xmlns="http://www.w3.org/2000/svg" xmlns:xlink="http://www.w3.org/1999/xlink" x="0px" y="0px"
	 width="197.26px" height="129.003px" viewBox="0 0 197.26 129.003" enable-background="new 0 0 197.26 129.003"
	 xml:space="preserve">
<path fill="#DB1212" d="M193.352,61.054c-0.032-0.062-5.02-3.965-8.525-7.496c-1.118-1.102-2.27-2.312-3.476-3.606l0.345-1.559
	l6.588-28.029l-3.171-1.533c-19.852-9.553-43.101-15.178-62.748-15.3h-0.062c-8.023-2.507-16.286-3.527-22.685-3.527h-0.176
	c-0.189,0-0.387,0-0.569,0c-9.448-0.108-23.451,2.017-34.444,8.285c-2.114,1.105-4.223,2.325-6.254,3.646
	C41.634,22.601,29.09,36.19,19.959,46.108c-2.65,2.871-4.933,5.355-7.001,7.449c-3.531,3.531-8.532,7.435-8.566,7.496L0,64.49
	l4.371,3.43c0.055,0.051,5.056,3.979,8.555,7.517c1.098,1.104,2.235,2.267,3.449,3.579l-0.306,1.379l-1.444,6.225l-4.011,17.066
	l-0.658,1.992c0.047,0.027,0.109,0.044,0.17,0.074l-0.63,2.667l3.178,1.528c18.408,8.866,39.724,14.353,58.409,15.195l4.1,0.217
	c7.97,2.569,16.222,3.593,22.628,3.644h1.951c6.726-0.039,15.516-1.159,23.881-3.986l0.388-0.149
	c3.206-1.104,6.362-2.491,9.306-4.169c2.102-1.104,4.202-2.342,6.256-3.646c16.496-10.66,29.022-24.24,38.179-34.163
	c2.656-2.877,4.975-5.374,7.055-7.455c3.505-3.538,8.493-7.466,8.525-7.517l3.908-3.056v-0.749L193.352,61.054z M152.861,27.091
	c-0.006,0-0.052-0.018-0.052-0.018c-0.019-0.025-0.05-0.048-0.081-0.069c-0.03-0.021-0.063-0.042-0.091-0.059
	c0.02,0.014,0.055,0.035,0.091,0.059C152.773,27.034,152.815,27.065,152.861,27.091z M76.601,121.863c0.034,0,0.034,0,0.034-0.007
	c0.007,0.007,0.007,0.007,0.007,0.007H76.601z M182.162,72.599c-9.624,9.688-24,27.887-44.779,41.306
	c-1.971,1.255-3.985,2.447-6.073,3.535c-9.833,5.603-23.071,7.889-32.553,7.777c-6.411,0.081-14.478-0.963-22.081-3.354
	c0.135,0,0.25,0,0.385,0.013c0.151,0,0.299,0,0.44,0c20.015-0.437,38.133-5.821,51.471-14.246
	c-9.475,2.969-20.021,4.741-31.143,4.995c-16.789,0.372-36.002-3.704-53.123-10.34c0.224,0.184,0.46,0.343,0.651,0.512
	c-0.3-0.2-0.597-0.403-0.875-0.627c0.074,0.047,0.154,0.067,0.224,0.115C31.95,91.302,22.379,79.672,15.324,72.599
	c-3.755-3.822-9.034-7.922-9.034-7.922s5.279-4.084,9.034-7.917c9.644-9.671,24.02-27.876,44.82-41.307
	c1.945-1.268,3.979-2.45,6.059-3.551C76.024,6.3,89.248,4.005,98.757,4.125c6.378-0.072,14.417,0.985,22.006,3.341l-0.02,0.01
	c-0.23,0-0.508-0.01-0.738-0.01c-20.008,0.474-38.144,5.835-51.478,14.27c9.49-2.992,20.009-4.768,31.172-5.015
	c16.774-0.376,35.976,3.704,53.097,10.352c12.762,10.991,22.331,22.604,29.38,29.687c3.782,3.833,9.016,7.917,9.016,7.917
	S185.958,68.777,182.162,72.599z M161.667,53.259c0-13.253-10.349-20.54-27.538-20.54c-14.355,0-26.887,9.923-32.438,22.251
	c-0.013,0.085-0.013,0.155-0.026,0.233h-0.075c0.026-0.078,0.061-0.149,0.102-0.233c1.24-16.127-10.722-20.825-27.985-20.825H46.548
	l-1.097,4.945l6.411,0.572L41.167,84.65l-2.745,0.463l-1.085,5.046h31.746c16.566,0,25.289-9.201,29.524-20.807
	c0-0.078,0-0.153,0-0.237h0.048c0,0.085-0.034,0.159-0.048,0.237c0.082,13.942,7.564,22.024,27.749,21.813
	c1.552-0.03,3.212-0.088,4.758-0.335c2.555,6.256,4.602,8.927,13.066,8.927c3.309,0,6.616-0.831,9.332-2.349l1.472-6.449
	l-0.048-0.888c-1.525,0.647-3.11,1.355-4.866,1.355c-4.5,0-4.5-1.623-6.6-4.585C154.706,80.594,161.667,67.878,161.667,53.259z
	 M66.367,84.474c-2.752,0-4.143-0.166-5.552-0.396l10.471-44.265h4.502c3.395,0,6.614,1.118,7.265,7.926
	C83.5,52.704,79.997,84.474,66.367,84.474z M134.034,77.791c-2.71-1.834-6.065-2.698-9.332-2.907l-1.296,5.608
	c2.848,0.38,4.055,1.864,5.125,4.026c-0.929,0.64-1.938,0.952-3.036,0.952c-5.26,0-7.441-2.877-7.767-6.635
	c-0.543-6.082,5.157-40.425,16.279-40.425c5.244,0,7.44,2.887,7.753,6.636C142.147,49.301,139.463,67.31,134.034,77.791z"/>
</svg>
