<?xml version="1.0" encoding="iso-8859-1"?>
<!-- Generator: Adobe Illustrator 17.0.0, SVG Export Plug-In . SVG Version: 6.00 Build 0)  -->
<!DOCTYPE svg PUBLIC "-//W3C//DTD SVG 1.1//EN" "http://www.w3.org/Graphics/SVG/1.1/DTD/svg11.dtd">
<svg version="1.1" id="Objects" xmlns="http://www.w3.org/2000/svg" xmlns:xlink="http://www.w3.org/1999/xlink" x="0px" y="0px"
	 width="401.129px" height="266.625px" viewBox="0 0 401.129 266.625" style="enable-background:new 0 0 401.129 266.625;"
	 xml:space="preserve">
<g>
	<path style="fill:#1F1F1F;" d="M248.251,197.303h10.746c-6.83-7.357-11.012-17.207-11.012-28.037v-33.016
		c0-22.768,18.457-41.226,41.225-41.226c22.769,0,41.227,18.458,41.227,41.226v33.016c0,10.83-4.182,20.68-11.012,28.037h1.581
		c5.209,0,9.431,4.221,9.431,9.43c0,5.209-4.222,9.432-9.431,9.432h-25.048v14.496c10.44-0.203,19.957,0.709,23.548,6.4
		c1.315,2.084,2.31,5.635-0.417,10.721l-6.88-3.688c0.71-1.324,0.976-2.422,0.695-2.869c-0.124-0.195-1.407-1.924-8.49-2.555
		c-2.742-0.244-5.714-0.266-8.456-0.209v7.945h-11.22v-7.875c-3.345-0.123-7.339-0.184-10.936,0.139
		c-7.082,0.631-8.366,2.359-8.489,2.555c-0.281,0.447-0.016,1.545,0.694,2.869l-6.879,3.688c-2.726-5.086-1.732-8.637-0.417-10.721
		c3.873-6.139,14.64-6.717,26.026-6.334v-14.563h-36.487c-5.208,0-9.43-4.223-9.43-9.432
		C238.821,201.524,243.043,197.303,248.251,197.303z"/>
	<g>
		<g>
			<path style="fill:#FEDBBE;" d="M178.176,91.596c1.417,2.012,4.373,7.701,3.379,7.047c-4.025-2.655-5.624-3.619-6.735-4.057
				c-1.541-0.613-2.96,0.392-3.002,1.735c-0.029,0.938,0.727,2.186,2.269,3.178c3.34,2.143,4.042,4.07,4.042,4.07
				s-7.714-5.117-7.436-0.523c0.054,0.915,7.778,6.817,7.778,6.817c3.45,3.234,4.501,5.447,8.356,8.547
				c2.415-2.059,5.043-3.682,7.697-5.277c-0.146-0.816-0.273-1.35-0.273-1.35s-0.258-10.961,1.815-16.339
				c0,0-2.777-3.096-4.59,1.817c-1.089,2.954-1.1,4.274-0.936,4.863c-0.9-1.415-3.759-5.903-6.436-10.096
				C179.792,85.273,175.816,88.249,178.176,91.596z"/>
			<path style="fill-rule:evenodd;clip-rule:evenodd;fill:#2B2B2B;" d="M197.295,107.657c24.166,20.963,46.752,7.371,60.232-6.687
				c0.147,0.051,0.314,0.068,0.509,0.001c6.593-2.277,10.488,5.85,11.834,10.994c0.154,0.588,0.318,1.285,0.477,2.047
				c-42.639,49.58-89.021,3.455-89.021,3.455C184.861,102.51,197.295,107.657,197.295,107.657z"/>
			<circle style="fill-rule:evenodd;clip-rule:evenodd;fill:#BEBEC0;" cx="193.406" cy="110.939" r="1.786"/>
		</g>
		<g>
			<path style="fill:#FEDBBE;" d="M353.155,34.726c0.33,2.438,2.033,8.62,2.316,7.464c1.145-4.685,1.661-6.478,2.178-7.555
				c0.712-1.498,2.436-1.726,3.38-0.771c0.659,0.667,0.955,2.097,0.499,3.872c-0.99,3.842-0.194,5.733-0.194,5.733
				s2.174-8.998,5.095-5.441c0.584,0.707-1.063,10.288-1.063,10.288c-0.329,4.718,0.405,7.055-0.312,11.949
				c-3.171,0.134-6.201,0.732-9.232,1.368c-0.448-0.698-0.718-1.175-0.718-1.175s-7.267-8.209-12.444-10.741
				c0,0-0.07-4.159,4.6-1.79c2.808,1.425,3.714,2.385,3.994,2.928c-0.303-1.649-1.26-6.883-2.149-11.779
				C347.669,31.191,352.608,30.668,353.155,34.726z"/>
			<path style="fill-rule:evenodd;clip-rule:evenodd;fill:#2B2B2B;" d="M350.065,59.504c-3.454,31.804-33.397,37.527-52.84,36.394
				c-0.073,0.138-0.185,0.264-0.372,0.347c-6.382,2.815-5.498,9.852-0.308,16.481c0.376,0.478,7.469,1.703,4.296,1.129
				c64.979,7.338,67.314-54.814,67.314-54.814C356.076,48.01,350.065,59.504,350.065,59.504z"/>
			<circle style="fill-rule:evenodd;clip-rule:evenodd;fill:#BEBEC0;" cx="355.148" cy="59.264" r="1.786"/>
		</g>
		<g>
			
				<rect x="272.233" y="80.516" transform="matrix(-0.9992 -0.04 0.04 -0.9992 565.07 191.5566)" style="fill-rule:evenodd;clip-rule:evenodd;fill:#F4C9A8;" width="24.439" height="19.208"/>
			<g>
				<g>
					<path style="fill-rule:evenodd;clip-rule:evenodd;fill:#FEDBBE;" d="M258.777,25.654c0,0-14.957,36.954-18.22,44.207
						c-5.907,13.13,33.492,37.83,55.684,15.359c1.242-1.258,9.532-1.994,16.68-12.997c5.716-8.798,7.511-30.221-2.423-40.982
						C294.514,13.922,260.743,18.429,258.777,25.654z"/>
					<g>
						<circle style="fill:#685849;" cx="278.744" cy="62.635" r="3.595"/>
						<circle style="fill:#FFFFFF;" cx="277.982" cy="61.45" r="1.293"/>
					</g>
					<g>
						<circle style="fill:#685849;" cx="256.811" cy="56.057" r="3.595"/>
						<circle style="fill:#FFFFFF;" cx="256.05" cy="54.871" r="1.293"/>
					</g>
					<path style="fill:#F4C9A8;" d="M252.482,60.111c-1.233,0.062-2.873,0.974-3.593,1.974c-0.045,0.062,0.074,0.091,0.116,0.061
						c0.511-0.391,1.011-0.768,1.57-1.087c0.634-0.363,1.34-0.504,1.981-0.825C252.647,60.189,252.542,60.108,252.482,60.111z"/>
					<path style="fill:#F4C9A8;" d="M253.443,61.184c-0.526,0.035-1.033,0.269-1.521,0.454c-0.521,0.196-1.087,0.404-1.548,0.722
						c-0.084,0.06,0.052,0.102,0.104,0.089c0.556-0.149,1.092-0.395,1.629-0.597c0.474-0.178,1.017-0.273,1.445-0.541
						C253.663,61.242,253.504,61.181,253.443,61.184z"/>
					<path style="fill:#F4C9A8;" d="M256.834,61.182c-1.698,0.461-3.463,1.166-4.993,2.043c-0.082,0.048,0.046,0.1,0.095,0.083
						c1.705-0.584,3.381-1.301,5.071-1.93C257.228,61.296,256.978,61.143,256.834,61.182z"/>
					<path style="fill:#F4C9A8;" d="M277.2,68.153c-1.461,0.26-2.96,0.619-4.323,1.212c-0.106,0.046,0.014,0.118,0.084,0.096
						c1.433-0.424,2.853-0.85,4.303-1.208C277.363,68.23,277.268,68.141,277.2,68.153z"/>
					<path style="fill:#F4C9A8;" d="M278.556,68.911c-1.332,0.239-2.609,0.703-3.849,1.241c-0.049,0.023,0.006,0.06,0.042,0.047
						c1.27-0.473,2.54-0.88,3.855-1.213C278.676,68.967,278.606,68.901,278.556,68.911z"/>
					<path style="fill:#F4C9A8;" d="M281.574,69.443c-1.4,0.346-2.794,0.765-4.152,1.252c-0.1,0.036-0.007,0.122,0.065,0.105
						c1.43-0.322,2.855-0.711,4.244-1.177C281.938,69.555,281.703,69.411,281.574,69.443z"/>
					<g>
						<path style="fill:#685849;" d="M286.034,55.322l-0.95-0.434l0.023-0.178c0.331-2.661-1.13-5.065-3.396-5.592
							c-0.396-0.091-0.8-0.122-1.204-0.092c-1.388,0.101-2.695,0.896-3.588,2.182l-0.102,0.148l-0.171-0.055
							c-0.101-0.032-0.2-0.062-0.301-0.091l-0.529-0.16l0.18-0.273c1.05-1.598,2.707-2.628,4.439-2.754
							c0.503-0.037,1.008,0.002,1.501,0.117c2.803,0.65,4.624,3.664,4.146,6.862L286.034,55.322z"/>
						<path style="fill:#685849;" d="M256.441,45.327c0.861-1.782,2.303-2.985,3.851-3.219c0.366-0.055,0.738-0.055,1.102,0
							c2.457,0.373,4.101,3.124,3.827,6.398l-0.028,0.331l-0.894-0.367l0.013-0.174c0.166-2.671-1.152-4.904-3.066-5.194
							c-1.466-0.221-3.028,0.801-3.917,2.544l-0.092,0.174l-0.185-0.048c-0.09-0.023-0.179-0.042-0.267-0.061l-0.478-0.11
							L256.441,45.327z"/>
					</g>
					<path style="fill-rule:evenodd;clip-rule:evenodd;fill:#E5B798;" d="M253.036,66.864c5.074-3.739,8.138-7.72,10.271-13.643
						c0.07-0.195,0.374-0.232,0.541-0.228c0.633,0.02,1.357-0.928,1.743-1.364c0.036-0.04,0.16-0.021,0.137,0.046
						c-0.892,2.764-2.288,5.799-3.85,8.349c-1.214,1.98-2.938,3.622-4.667,5.141c-1.449,1.275-2.922,1.812-1.411,3.748
						c1.234,1.585,2.849,2.783,4.428,3.994c0.377,0.289-0.268,0.516-0.521,0.384c-2.738-1.419-4.823-3.521-6.699-5.942
						C252.901,67.212,252.875,66.982,253.036,66.864z"/>
					<path style="fill-rule:evenodd;clip-rule:evenodd;fill:#FFFFFF;" d="M253.982,75.62c4.855,2.672,9.735,3.639,14.859,4.244
						C264.78,73.963,258.535,73.772,253.982,75.62z"/>
					<path style="fill-rule:evenodd;clip-rule:evenodd;fill:#A27265;" d="M268.842,79.864c-5.124-0.604-10.004-1.571-14.859-4.244
						c-0.944,0.383-1.816,0.851-2.58,1.376c-1.768,1.217-3.309,4.156-3.309,4.156l24.179,7.764c-0.352-1.876-0.803-3.509-1.33-4.932
						C270.345,82.373,269.633,81.014,268.842,79.864z"/>
				</g>
				<path style="fill-rule:evenodd;clip-rule:evenodd;fill:#E5B798;" d="M303.31,74.33c0.952-0.763,2.224-1.525,3.486-1.402
					c0.016,0.001,0.058,0.02,0.033,0.041c-0.886,0.765-2.062,1.143-2.977,1.91c-0.194,0.163-0.37,0.348-0.544,0.532
					c0.051,0.07,0.091,0.153,0.12,0.243c0.102,0.307,0.228,0.75,0.1,1.056c-0.04,0.096-0.202,0.062-0.259,0.007
					c-0.196-0.192-0.212-0.405-0.241-0.667c-0.005-0.04-0.015-0.168-0.033-0.295c-0.169,0.202-0.336,0.408-0.486,0.624
					c-0.278,0.406-0.33,0.735-0.767,0.978c-0.149,0.083-0.401,0.055-0.482-0.111C300.81,76.335,302.706,74.815,303.31,74.33z"/>
			</g>
		</g>
		
			<polygon style="fill-rule:evenodd;clip-rule:evenodd;fill:#A27265;stroke:#A27265;stroke-width:0.8673;stroke-miterlimit:5;" points="
			401.129,33.687 401.129,33.687 400.3,33.687 400.3,33.687 400.3,33.687 400.3,33.687 401.129,33.687 401.129,33.687 		"/>
		<path style="fill-rule:evenodd;clip-rule:evenodd;fill:#2B2B2B;" d="M318.023,175.403c0.401-2.078,0.233-7.006,0.233-9.201
			v-51.551c0-18.573-15.057-18.885-33.629-18.885s-33.629,0.312-33.629,18.885v51.551c0,2.195,0.166,7.123,0.567,9.201H318.023z"/>
		<g>
			<path style="fill-rule:evenodd;clip-rule:evenodd;fill:#2B2B2B;" d="M230.099,185.52c4.147-14.379,41.659-11.338,41.659-11.338
				l46.266-0.268l-0.874,7.205c-2.546,13-6.244,16.846-15.957,18.711c-3.779,0.725-8.028,0.209-11.831,0.523
				c-16.958-0.402-36.721-0.328-39.816,2.041c-3.736,2.861-5.374,36.486-5.374,36.486h-14.072
				C230.099,238.881,225.951,199.897,230.099,185.52z"/>
			<path style="fill-rule:evenodd;clip-rule:evenodd;fill:#1F1F1F;" d="M229.433,238.881c0,0-17.418,0.617-19.907,11.092h37.3
				c0,0-0.307-6.115-3.32-11.092H229.433z"/>
		</g>
		<g>
			<path style="fill-rule:evenodd;clip-rule:evenodd;fill:#2B2B2B;" d="M314.603,174.149l-5.761,0.033
				c0,0-37.512-3.041-41.659,11.338c-4.147,14.377,0,53.361,0,53.361h14.072c0,0,1.638-33.625,5.374-36.486
				c1.302-0.996,7.734-2.947,13.48-3.267c4.873-2.834,7.03-5.221,10.273-9.873c1.718-2.465,3.134-4.947,4.221-7.666V174.149z"/>
			<path style="fill-rule:evenodd;clip-rule:evenodd;fill:#1F1F1F;" d="M267.184,238.881c0,0-17.418,0.617-19.907,11.092h37.3
				c0,0-0.307-6.115-3.32-11.092H267.184z"/>
		</g>
		<polygon style="fill-rule:evenodd;clip-rule:evenodd;fill:#EBEBEB;" points="297.039,96.071 294.73,174.063 265.34,173.913 
			270.941,96.155 		"/>
		<polygon style="fill-rule:evenodd;clip-rule:evenodd;fill:#009E8F;" points="277.982,98.12 271.092,160.62 277.736,171.37 
			285.528,161.957 285.434,99.025 281.812,95.771 		"/>
		<polygon style="fill-rule:evenodd;clip-rule:evenodd;fill:#FFFFFF;" points="297.048,95.766 270.938,95.766 272.271,106.096 
			281.812,97.142 294.381,105.852 		"/>
	</g>
	<g>
		<g>
			<g>
				<path style="fill:#EFEFEF;" d="M127.762,139.031c0,2.332,2.057,4.221,4.6,4.221h85.605c2.541,0,4.6-1.889,4.6-4.221V82.751
					c0-2.331-2.059-4.221-4.6-4.221h-85.605c-2.543,0-4.6,1.89-4.6,4.221V139.031z"/>
				<path style="fill:#C8C8C8;" d="M127.729,138.137c0,2.295,2.025,4.156,4.525,4.156h84.256c2.502,0,4.529-1.861,4.529-4.156
					v-55.39c0-2.293-2.027-4.155-4.529-4.155h-84.256c-2.5,0-4.525,1.861-4.525,4.155V138.137z"/>
			</g>
			<path style="fill:#EFEFEF;" d="M234.923,137.316v3.492c0,2.18-2.318,3.945-5.179,3.945h-96.408c-2.859,0-5.179-1.766-5.179-3.945
				v-3.492H234.923z"/>
			<path style="fill:#C8C8C8;" d="M234.8,141.654c-0.509,1.771-2.577,3.1-5.056,3.1h-96.408c-2.479,0-4.546-1.328-5.053-3.1H234.8z"
				/>
			<g>
				<path style="fill:#C8C8C8;" d="M183.306,137.531v1.896h-36.991v-1.896H183.306 M183.543,137.294h-37.465v2.369h37.465V137.294
					L183.543,137.294z"/>
			</g>
			<g>
				<circle style="fill:#C8C8C8;" cx="231.997" cy="139.461" r="0.791"/>
				<circle style="fill:#666666;" cx="231.997" cy="139.461" r="0.586"/>
			</g>
			<g>
				<circle style="fill:#C8C8C8;" cx="229.517" cy="139.461" r="0.791"/>
				<circle style="fill:#666666;" cx="229.517" cy="139.461" r="0.586"/>
			</g>
			<g>
				<circle style="fill:#C8C8C8;" cx="227.036" cy="139.461" r="0.791"/>
				<circle style="fill:#666666;" cx="227.036" cy="139.461" r="0.586"/>
			</g>
		</g>
		<polygon style="fill:#685849;" points="118.931,154.905 348.798,154.905 348.798,158.737 348.798,161.957 348.798,260.952 
			337.422,260.952 337.422,161.957 130.833,161.957 130.833,260.952 119.459,260.952 119.459,161.957 118.931,161.957 		"/>
		<rect x="111.653" y="144.649" style="fill:#84776B;" width="244.423" height="13.262"/>
		<g>
			<path style="fill:#648CB0;" d="M318.431,142.376c0.174,0,0.312,0.139,0.312,0.312c0,0.172-0.139,0.311-0.313,0.311l-1.245-0.002
				c-0.171,0-0.311-0.139-0.311-0.312c0.001-0.172,0.14-0.311,0.311-0.311L318.431,142.376z"/>
			<path style="fill:#243E5B;" d="M315.688,141.249c1.125,0.002,2.032,0.643,2.031,1.43c0,0.789-0.91,1.426-2.035,1.424
				l-36.142-0.047c-1.122-0.002-2.034-0.643-2.032-1.43c0-0.787,0.913-1.424,2.037-1.424L315.688,141.249z"/>
			<path style="fill:#E4A530;" d="M313.627,140.885c0.993,0.002,1.797,0.807,1.796,1.801c-0.001,0.994-0.808,1.797-1.801,1.795
				h-32.446c-0.995,0-1.798-0.85-1.798-1.844c0.002-0.992,0.809-1.754,1.803-1.752H313.627z"/>
			<path style="fill:#243E5B;" d="M281.595,140.842l2.216-1.035l9.756,0.014c0,0,0.553,0.277,0.897,0.693l-8.094-0.014
				c0,0-1.387,1.799-0.284,4.084l-4.564-0.006C281.521,144.579,280.417,142.641,281.595,140.842z"/>
		</g>
		<g>
			<path style="fill-rule:evenodd;clip-rule:evenodd;fill:#D85A67;" d="M289.27,144.762l4.353-1.938l-4.365-1.908l-35.561,0.119
				c-0.577,0.002-1.048,0.475-1.045,1.053l0.005,1.746c0.002,0.576,0.477,1.047,1.052,1.045L289.27,144.762z"/>
			<path style="fill-rule:evenodd;clip-rule:evenodd;fill:#A9272D;" d="M289.27,144.762l4.353-1.938l-4.535,0.014l-36.433,0.123
				l0.002,0.873c0.002,0.576,0.477,1.047,1.052,1.045L289.27,144.762z"/>
			<path style="fill-rule:evenodd;clip-rule:evenodd;fill:#243E5B;" d="M289.27,144.762l4.353-1.938l-4.365-1.908l-34.017,0.113
				c-0.227,1.354-0.213,2.627,0.011,3.844L289.27,144.762z"/>
			<path style="fill-rule:evenodd;clip-rule:evenodd;" d="M289.27,144.762l4.353-1.938l-4.535,0.014l-34.01,0.115
				c0,0.654,0.06,1.295,0.174,1.92L289.27,144.762z"/>
			<path style="fill-rule:evenodd;clip-rule:evenodd;fill:#DE5614;" d="M289.27,144.762l4.353-1.938l-4.365-1.908l-32.792,0.109
				c-0.241,1.361-0.226,2.635,0.014,3.844L289.27,144.762z"/>
			<path style="fill-rule:evenodd;clip-rule:evenodd;fill:#A9272D;" d="M289.27,144.87l4.353-2.045l-4.535,0.014l-32.795,0.111
				c0,0.658,0.062,1.297,0.186,1.92H289.27z"/>
			<path style="fill-rule:evenodd;clip-rule:evenodd;fill:#DFAE6F;" d="M289.27,144.762l4.353-1.938l-4.365-1.908
				c-0.112,0.613-0.17,1.256-0.17,1.922C289.092,143.506,289.155,144.151,289.27,144.762z"/>
			<path style="fill-rule:evenodd;clip-rule:evenodd;fill:#B68951;" d="M289.27,144.762l4.353-1.938l-4.535,0.014
				C289.092,143.506,289.155,144.151,289.27,144.762z"/>
			<path style="fill-rule:evenodd;clip-rule:evenodd;fill:#232323;" d="M292.186,143.465l1.436-0.641l-1.442-0.629
				c-0.037,0.201-0.056,0.414-0.056,0.635C292.127,143.049,292.147,143.264,292.186,143.465z"/>
		</g>
	</g>
	<g>
		<path style="fill:none;stroke:#FFFFFF;stroke-width:3;stroke-miterlimit:10;" d="M210.74,41.224
			c6.518,1.922,13.033,3.843,19.551,5.765"/>
		<path style="fill:none;stroke:#FFFFFF;stroke-width:3;stroke-miterlimit:10;" d="M224.239,21.61
			c3.718,6.104,7.439,12.21,11.157,18.315"/>
		<path style="fill:none;stroke:#FFFFFF;stroke-width:3;stroke-miterlimit:10;" d="M230.26,56.917
			c-5.678,2.531-11.355,5.062-17.034,7.592"/>
	</g>
	<g>
		<g>
			<g>
				<path style="fill:#FEDBBE;" d="M149.373,108.457c-1.369,1.262-4.469,5.002-3.629,4.676c3.406-1.322,4.742-1.779,5.637-1.926
					c1.238-0.207,2.129,0.764,1.943,1.766c-0.125,0.697-0.887,1.502-2.188,1.99c-2.814,1.051-3.645,2.367-3.645,2.367
					s6.531-2.557,5.59,0.801c-0.186,0.67-6.85,3.803-6.85,3.803c-3.07,1.844-4.203,3.314-7.553,4.992
					c-1.461-1.91-3.145-3.533-4.855-5.139c0.238-0.58,0.418-0.955,0.418-0.955s1.945-8.074,1.27-12.389c0,0,2.553-1.848,3.107,2.08
					c0.334,2.361,0.131,3.34-0.086,3.75c0.895-0.904,3.727-3.77,6.381-6.445C149.189,103.516,151.654,106.356,149.373,108.457z"/>
				<path style="fill-rule:evenodd;clip-rule:evenodd;fill:#2B2B2B;" d="M113.033,121.385c5.736,0.93,12.275-0.07,19.615-4.096
					c0,0,10.029-1.82,10.254,9.818c0,0-21.004,13.467-41.648,5.748C106.262,130.147,110.609,126.332,113.033,121.385z"/>
				<path style="fill-rule:evenodd;clip-rule:evenodd;fill:#2B2B2B;" d="M82.516,88.174c1.986,7.122,11.91,28.86,28.746,32.856
					c-2.535,4.82-7.02,8.469-12.082,10.969c-8.639-3.85-17.09-11.623-23.775-25.895c-3.143-6.71-4.906-12.591-4.83-16.808
					L82.516,88.174z"/>
				<circle style="fill-rule:evenodd;clip-rule:evenodd;fill:#BEBEC0;" cx="135.004" cy="120.342" r="1.352"/>
			</g>
			<g>
				<path style="fill:#F2C4A5;" d="M31.2,256.358l-0.686-8.391c0,0,5.667-2.516,21.634-18.742
					c15.968-16.229,20.484-49.133,20.484-49.133c-11.078-9.316-29.787-3.781-27.158,8.09c2.629,11.869-15.911,49.213-20.588,54.568
					c-1.833,2.098-3.634,4.76-5.146,7.221C22.847,253.467,26.858,255.366,31.2,256.358z"/>
				<path style="fill:#383838;" d="M19.74,249.971c-2.351,3.82-4.009,7.158-4.009,7.158l0.942,0.549c0,0,1.648-0.98,3.215-2.006
					c1.568-1.027,2.897,5.564,2.897,5.564l9.252,5.389L31.2,256.358C26.858,255.366,22.847,253.467,19.74,249.971z"/>
			</g>
			<g>
				<path style="fill:#FEDBBE;" d="M109.836,251.163l-7.462-3.902c0,0,0.898-6.137-4.292-28.301
					c-5.193-22.166-30.6-43.557-30.6-43.557c-13.793,4.391-19.105,23.166-7.666,27.281c11.441,4.115,33.112,39.734,35.142,46.549
					c0.794,2.666,2.083,5.611,3.356,8.207C102.931,256.68,106.678,254.301,109.836,251.163z"/>
				<path style="fill:#383838;" d="M98.314,257.44c1.974,4.025,3.909,7.211,3.909,7.211l0.97-0.506c0,0,0.05-1.914,0.021-3.785
					c-0.032-1.873,6.252,0.52,6.252,0.52l9.493-4.943l-9.124-4.774C106.678,254.301,102.931,256.68,98.314,257.44z"/>
			</g>
			<path style="fill-rule:evenodd;clip-rule:evenodd;fill:#E5B798;" d="M62.599,83.078c-4.401-1.571-5.394-6.35-6.388-11.593h11.324
				c0,0-0.473,7.37,0.615,11.205C66.6,84.498,64.178,83.71,62.599,83.078z"/>
			<path style="fill-rule:evenodd;clip-rule:evenodd;fill:#FEDBBE;" d="M52.936,71.485h3.275c0.798,4.496,2.793,9.662,7.193,11.234
				c1.578,0.632,3.391,0.793,4.746-0.029c0.35,1.229,0.856,0.947,1.594,1.438c0.889,0.593,2.17,1.187,3.536,1.729
				c0.183,8.631,2.438,17.263,2.077,25.894c-7.96-9.286-15.672-18.565-25.119-26.051C57.37,82.115,52.936,71.485,52.936,71.485z"/>
			<path style="fill-rule:evenodd;clip-rule:evenodd;fill:#383838;" d="M49.196,134.198c1.518-9.104-9.619-34.293-9.619-34.293
				s-3.073-12.324,9.619-13.753c0.396-0.045,0.717-0.288,1.043-0.452c9.447,7.486,17.159,16.765,25.119,26.051
				c0.361-8.631-1.895-17.263-2.077-25.894c3.294,1.307,9.235,2.317,9.235,2.317l7.799,20.795c0,0-6.682,13.596-5.439,22.193
				c0.785,5.44,18.232,60.547,16.301,62.014c-19.52,14.797-50.536,12.332-69.82-0.672C32.689,185.087,47.674,143.299,49.196,134.198
				z"/>
			<g>
				<path style="fill-rule:evenodd;clip-rule:evenodd;fill:#FEDBBE;" d="M80.149,16.875c0,0,9.581,34.962,11.44,43.14
					c1.857,8.178-15.019,16.837-15.019,16.837s-21.729,4.528-34.82-5.803c-6.912-5.453-13.429-9.964-16.799-16.83
					c-4.873-9.933-4.223-23.07,2.406-36.694C38.231-4.822,78.382,9.179,80.149,16.875z"/>
				<g>
					<circle style="fill:#685849;" cx="58.354" cy="48.956" r="3.914"/>
					<circle style="fill:#FFFFFF;" cx="59.234" cy="47.699" r="1.407"/>
				</g>
				<g>
					<circle style="fill:#685849;" cx="80.754" cy="45.503" r="3.914"/>
					<circle style="fill:#FFFFFF;" cx="81.634" cy="44.246" r="1.408"/>
				</g>
				<path style="fill:#F4C9A8;" d="M82.297,50.823c1.295,0.118,2.984,1.148,3.703,2.232c0.045,0.068-0.084,0.093-0.125,0.059
					c-0.523-0.433-1.035-0.85-1.611-1.211c-0.652-0.409-1.389-0.588-2.051-0.953C82.119,50.898,82.234,50.818,82.297,50.823z"/>
				<path style="fill:#F4C9A8;" d="M81.239,51.914c0.552,0.058,1.076,0.327,1.583,0.542c0.541,0.229,1.127,0.471,1.598,0.826
					c0.088,0.066-0.057,0.105-0.109,0.089c-0.582-0.18-1.135-0.461-1.693-0.697c-0.49-0.207-1.059-0.33-1.5-0.631
					C81.003,51.966,81.172,51.907,81.239,51.914z"/>
				<path style="fill:#F4C9A8;" d="M77.665,51.768c1.77,0.558,3.601,1.375,5.174,2.365c0.086,0.053-0.053,0.103-0.104,0.083
					c-1.77-0.688-3.505-1.514-5.259-2.248C77.247,51.872,77.516,51.721,77.665,51.768z"/>
				<path style="fill:#F4C9A8;" d="M54.334,55.447c1.527,0.336,3.092,0.777,4.504,1.46c0.109,0.053-0.02,0.123-0.092,0.099
					c-1.492-0.509-2.97-1.017-4.483-1.455C54.159,55.521,54.263,55.432,54.334,55.447z"/>
				<path style="fill:#F4C9A8;" d="M52.874,56.188c1.395,0.309,2.721,0.851,4.003,1.471c0.052,0.025-0.009,0.063-0.046,0.048
					c-1.317-0.553-2.639-1.036-4.011-1.441C52.745,56.243,52.821,56.176,52.874,56.188z"/>
				<path style="fill:#F4C9A8;" d="M49.67,56.622c1.462,0.423,2.913,0.924,4.324,1.495c0.102,0.042,0,0.127-0.074,0.108
					c-1.493-0.399-2.979-0.87-4.422-1.418C49.284,56.724,49.536,56.583,49.67,56.622z"/>
				<g>
					<path style="fill:#93665C;" d="M49.361,38.397l0.95-0.388l-0.016-0.176c-0.221-2.628,1.31-4.934,3.558-5.362
						c0.393-0.074,0.791-0.089,1.188-0.044c1.361,0.155,2.613,0.986,3.439,2.286l0.094,0.15l0.172-0.048
						c0.1-0.028,0.199-0.052,0.299-0.078l0.525-0.136l-0.165-0.274c-0.968-1.612-2.557-2.69-4.254-2.882
						c-0.493-0.056-0.991-0.037-1.482,0.056c-2.779,0.529-4.688,3.419-4.344,6.581L49.361,38.397z"/>
					<path style="fill:#93665C;" d="M79.979,31.938c-0.777-1.784-2.145-3.023-3.658-3.314c-0.356-0.069-0.723-0.084-1.082-0.044
						c-2.428,0.27-4.153,2.908-4.013,6.137l0.014,0.327l0.892-0.326l-0.003-0.171c-0.059-2.631,1.323-4.774,3.218-4.983
						c1.451-0.16,2.943,0.906,3.75,2.655l0.082,0.174l0.187-0.041c0.089-0.018,0.173-0.034,0.261-0.049l0.473-0.09L79.979,31.938z"
						/>
				</g>
				<path style="fill-rule:evenodd;clip-rule:evenodd;fill:#E5B798;" d="M71.452,55.991c2.174-0.237,3.703-0.768,4.65-2.877
					c0.508-1.128,0.021-1.19-0.871-1.484c-0.755-0.248-1.438-0.691-2.059-1.175c-2.129-1.661-3.129-5.053-2.305-7.606
					c0.023-0.07,0.172-0.052,0.183,0.019c0.235,1.711,0.255,3.316,0.97,4.932c0.926,2.092,2.836,3.295,5.03,3.689
					c0.114,0.02,0.354,0.123,0.325,0.282c-0.545,2.87-2.801,5.27-5.932,4.659C71.132,56.368,71.118,56.027,71.452,55.991z"/>
				<path style="fill-rule:evenodd;clip-rule:evenodd;fill:#F2C4A5;" d="M30.672,52.865c-0.091-0.081,0.076-0.148,0.135-0.146
					c3.147,0.072,5.103,3.907,4.879,6.662c-0.031,0.375-0.871,0.361-0.863-0.015c0.021-0.992-0.098-1.917-0.426-2.794
					c-0.058,0.096-0.137,0.187-0.209,0.264c-0.232,0.25-0.564,0.547-0.926,0.533c-0.055-0.003-0.199-0.046-0.152-0.133
					c0.062-0.116,0.189-0.178,0.299-0.243c0.146-0.086,0.28-0.191,0.406-0.304c0.107-0.096,0.206-0.2,0.312-0.294
					c0.045-0.039,0.102-0.077,0.154-0.117c-0.145-0.332-0.321-0.657-0.537-0.975C32.937,54.107,31.672,53.769,30.672,52.865z"/>
				<g>
					<g style="opacity:0.5;">
						<g>
							<defs>
								<polygon id="SVGID_5_" points="44.545,59.181 92.094,52.978 89.752,35.402 42.203,41.605 								"/>
							</defs>
							<clipPath id="SVGID_1_">
								<use xlink:href="#SVGID_5_"  style="overflow:visible;"/>
							</clipPath>
							<path style="opacity:0.8;clip-path:url(#SVGID_1_);fill:#CACACA;" d="M42.505,43.874l2.719,8.582l3.458,4.675l5.15,0.814
								l4.521-1.064l5.104-1.893l2.549-5.937l2.093-6.51l3.544-0.819l2.025,3.366l4.526,6.551l1.581,1.464l5.518,0.38l3.893-2.637
								l1.307-4.692l-0.236-6.952l-1.471-2.053l-3.873-0.754l-6.093,1.025c0,0-5.335,2.039-5.374,2.217
								c-0.039,0.178-1.296,1.154-1.296,1.154l-3.969,0.471l-3.766-0.825l-6.363-0.941l-10.499,2.553L42.505,43.874z"/>
						</g>
					</g>
					<path style="fill:#568970;" d="M87.445,35.407c-3.573,0.295-5.33,0.249-8.726,0.998c-3.395,0.75-4.061,1.062-4.544,1.511
						c-0.486,0.449-0.644,1.06-1.601,1.327c-0.86,0.237-2.62,0.624-2.97,0.699c-0.358,0.019-2.159,0.108-3.048,0.103
						c-0.994-0.005-1.307-0.554-1.893-0.86c-0.585-0.308-1.309-0.434-4.782-0.269c-3.472,0.165-11.195,1.342-14.722,1.993
						c-3.525,0.652-18.645,7.906-18.645,7.906l0.736,4.016c0,0,13.156-5.866,13.882-5.8c0.727,0.064,2.952,5.06,4.397,7.559
						c1.442,2.5,3.205,3.299,5.841,3.677c5.218,0.209,9.97-1.591,11.383-2.314c1.412-0.722,2.254-2.298,3.039-4.058
						c0.781-1.758,2.044-6.251,2.478-7.404c0.32-0.851,1.272-1.267,1.75-1.427c0.504,0.029,1.534,0.181,2.064,0.918
						c0.72,1,3.115,5.004,4.332,6.497c1.215,1.493,2.486,2.677,3.994,3.12c5.557,1.633,9.521-2.102,10.26-4.892
						c0.738-2.79,1.578-8.195,2.26-8.446c0.688-0.254,1.097-0.493,1.097-0.493l-0.342-4.068
						C93.685,35.699,91.018,35.113,87.445,35.407 M65.788,47.701c-0.632,3.28-1.369,5.769-3.261,6.976
						c-1.889,1.206-9.316,3.843-13.155,1.878c-0.76-0.393-3.045-2.083-3.921-5.855c-0.874-3.774-1.56-5.746,0.759-7.157
						c0,0,4.696-2.198,8.613-2.707c4.424-0.573,8.414-0.443,9.442,0.535C65.293,42.349,66.511,43.571,65.788,47.701 M89.728,44.932
						c0.144,3.87-1.517,6.222-2.249,6.678c-7.351,4.576-10.691-2.181-12.159-5.179c-1.781-3.796-0.924-5.295-0.188-6.508
						c0.736-1.213,5.527-2.654,9.975-2.989C90.348,36.538,89.584,41.061,89.728,44.932"/>
				</g>
				<g>
					<path style="fill:#FFFFFF;" d="M80.149,60.902c-1.823-0.856-4.485-1.244-8.619-0.635c-2.903,0.428-5.137,1.593-6.838,2.985
						C68.151,64.435,76.184,63.542,80.149,60.902z"/>
					<path style="fill:#A27265;" d="M80.149,60.902c-5.098,2.027-10.374,3.226-15.457,2.35c-3.671,3.002-4.854,7.06-4.854,7.06
						l24.586-4.64C83.536,64.068,82.609,62.057,80.149,60.902z"/>
				</g>
			</g>
			<g>
				<g>
					<path style="fill:#A0B100;" d="M113.918,126.124h30.023c0.484,0,0.955,0.037,1.422,0.094v17.07
						c-0.467,0.055-0.938,0.094-1.422,0.094h-30.023c-5.623,0-10.182-3.863-10.182-8.629
						C103.736,129.987,108.295,126.124,113.918,126.124z"/>
					<path style="fill:#FFFFFF;" d="M113.725,129.911h31.639v9.516h-31.639c-2.799,0-5.064-2.131-5.064-4.758
						C108.66,132.042,110.926,129.911,113.725,129.911z"/>
				</g>
				<g>
					<path style="fill:#E65E09;" d="M113.918,108.864h30.023c0.484,0,0.955,0.039,1.422,0.094v17.072
						c-0.467,0.055-0.938,0.094-1.422,0.094h-30.023c-5.623,0-10.182-3.863-10.182-8.631
						C103.736,112.727,108.295,108.864,113.918,108.864z"/>
					<path style="fill:#FFFFFF;" d="M113.725,112.653h31.639v9.516h-31.639c-2.799,0-5.064-2.131-5.064-4.758
						C108.66,114.782,110.926,112.653,113.725,112.653z"/>
				</g>
				<g>
					<path style="fill:#009E8F;" d="M133.789,91.605h-30.023c-0.482,0-0.955,0.039-1.42,0.093v17.071
						c0.465,0.057,0.938,0.094,1.42,0.094h30.023c5.625,0,10.182-3.863,10.182-8.629C143.971,95.469,139.414,91.605,133.789,91.605z
						"/>
					<path style="fill:#FFFFFF;" d="M133.984,95.394h-31.639v9.515h31.639c2.797,0,5.064-2.13,5.064-4.758
						C139.049,97.524,136.781,95.394,133.984,95.394z"/>
				</g>
			</g>
			<g>
				<g>
					<path style="fill:#A0B100;" d="M115.485,74.236h30.023c0.484,0,0.955,0.038,1.422,0.094V91.4
						c-0.467,0.056-0.938,0.094-1.422,0.094h-30.023c-5.623,0-10.182-3.863-10.182-8.629
						C105.304,78.1,109.862,74.236,115.485,74.236z"/>
					<path style="fill:#FFFFFF;" d="M115.292,78.023h31.639v9.516h-31.639c-2.799,0-5.064-2.13-5.064-4.758
						C110.228,80.154,112.493,78.023,115.292,78.023z"/>
				</g>
				<g>
					<path style="fill:#009E8F;" d="M184.56,127.405h30.023c0.484,0,0.955,0.039,1.422,0.094v17.07
						c-0.467,0.057-0.938,0.094-1.422,0.094H184.56c-5.623,0-10.182-3.863-10.182-8.629
						C174.378,131.268,178.936,127.405,184.56,127.405z"/>
					<path style="fill:#FFFFFF;" d="M184.366,131.192h31.639v9.516h-31.639c-2.799,0-5.064-2.129-5.064-4.758
						C179.302,133.323,181.567,131.192,184.366,131.192z"/>
				</g>
				<g>
					<path style="fill:#FAB600;" d="M187.021,110.151h30.023c0.484,0,0.955,0.037,1.422,0.094v17.07
						c-0.467,0.055-0.938,0.094-1.422,0.094h-30.023c-5.623,0-10.182-3.863-10.182-8.629
						C176.84,114.014,181.398,110.151,187.021,110.151z"/>
					<path style="fill:#FFFFFF;" d="M186.828,113.938h31.639v9.516h-31.639c-2.799,0-5.064-2.131-5.064-4.758
						C181.764,116.069,184.029,113.938,186.828,113.938z"/>
				</g>
			</g>
			<g>
				<path style="fill:#FEDBBE;" d="M115.35,123.424c-1.52,1.078-5.066,4.396-4.191,4.18c3.547-0.881,4.93-1.166,5.834-1.199
					c1.256-0.049,2.016,1.027,1.707,1.998c-0.215,0.676-1.07,1.377-2.422,1.697c-2.926,0.687-3.914,1.887-3.914,1.887
					s6.801-1.709,5.443,1.502c-0.27,0.641-7.275,2.908-7.275,2.908c-3.277,1.439-4.588,2.756-8.123,3.998
					c-1.207-2.08-2.674-3.902-4.168-5.711c0.312-0.545,0.535-0.895,0.535-0.895s2.949-7.764,2.826-12.129
					c0,0,2.762-1.51,2.818,2.455c0.033,2.385-0.293,3.33-0.559,3.709c1.002-0.783,4.174-3.268,7.145-5.588
					C115.789,118.499,117.879,121.627,115.35,123.424z"/>
				<path style="fill-rule:evenodd;clip-rule:evenodd;fill:#2B2B2B;" d="M48.098,88.765c0,0,3.066,1.037,3.711,6.662
					c1.031,9.005,12.998,47.576,45.833,34.648c0,0,10.178-0.541,8.934,11.035c0,0-47.576,22.605-64.306-29.359
					C37.475,96.861,38.305,86.396,48.098,88.765z"/>
				<circle style="fill-rule:evenodd;clip-rule:evenodd;fill:#BEBEC0;" cx="99.594" cy="133.4" r="1.352"/>
			</g>
		</g>
		<g>
			<path style="fill:none;stroke:#FFFFFF;stroke-width:3;stroke-miterlimit:10;" d="M124.068,27.207
				c-6.789,0.236-13.578,0.472-20.369,0.708"/>
			<path style="fill:none;stroke:#FFFFFF;stroke-width:3;stroke-miterlimit:10;" d="M115.887,4.847
				c-5.123,4.985-10.248,9.971-15.371,14.956"/>
			<path style="fill:none;stroke:#FFFFFF;stroke-width:3;stroke-miterlimit:10;" d="M101.254,37.538
				c4.869,3.866,9.736,7.732,14.605,11.599"/>
		</g>
		<path style="fill:#685849;" d="M80.754,9.5C79.25,6.5,49.708-7.136,27.75,4.847c-1.041,0.568-2.028,1.184-2.974,1.834
			C22.208,3.588,18.335,1.617,14,1.617c-7.732,0-14,6.268-14,14c0,6.619,4.599,12.151,10.771,13.611
			C7.684,47.972,18.806,69.15,41.75,71.049l-6.047-7.738c0,0-7.704,0.601-8.454-10.48l-0.736-4.016l5.391-2.523
			c0,0-3.405-26.489,16.333-28.183l16.453,1.694c0,0,9.607-7.554,15.457-2.928C80.149,16.875,82.259,12.5,80.754,9.5z"/>
	</g>
	<path style="fill-rule:evenodd;clip-rule:evenodd;fill:#685849;" d="M323.363,37.538C321.227,8.826,257.343,6.75,257.343,6.75
		l3.063,9.319l-6.815,0.181l5.148,9.974l13.12,9.001c0,0,18.929,1.781,21.994,2.77c0.741,3.915,2.776,14.328,5.6,17.865
		c3.969,4.969-5.259,17.169-5.259,17.169l2.347,1.38c1.441-2.626,3.285-5.243,6.183-6.276c2.96-1.055,5.916,1.064,6.55,3.907
		c1.092,4.888-5.812,10.216-10.206,8.089c-0.227-0.053-0.454-0.112-0.68-0.193c-3.302,2.719-6.495,4.89-6.495,4.89l8.699,6.058
		c0,0-0.143-7.472,7.146-11.418C312.862,76.689,329.469,55.46,323.363,37.538z"/>
</g>
</svg>
