<?xml version="1.0" encoding="utf-8"?><!DOCTYPE svg PUBLIC "-//W3C//DTD SVG 1.1//EN" "http://www.w3.org/Graphics/SVG/1.1/DTD/svg11.dtd"><svg version="1.1" baseProfile="full" xmlns="http://www.w3.org/2000/svg" xmlns:xlink="http://www.w3.org/1999/xlink" xmlns:ev="http://www.w3.org/2001/xml-events"   height="403px"   width="384px" ><path stroke="rgb( 14, 5, 10 )" stroke-width="0px" stroke-linecap="butt" stroke-linejoin="miter" fill="rgb( 92, 184, 103 )" d="M280.966,361.954 C306.506,377.575 344.508,379.293 344.508,379.293 C275.932,403 225.079,396.447 191.174,383.788 C85.5170000000001,383.34 0,297.613 0,191.904 C0,85.919 85.961,0 192,0 C298.039,0 384,85.919 384,191.904 C384,265.791 342.198,329.883 280.966,361.954 ZM192,92.857 C137.27,92.857 92.903,137.202 92.903,191.904 C92.903,225.159 109.356,254.514 134.509,272.478 C114.781,299.781 61.052,307.066 61.052,307.066 C182.916,336.618 243.346,281.721 257.934,265.701 C278.24,247.563 291.097,221.266 291.097,191.904 C291.097,137.202 246.73,92.857 192,92.857 Z "/></svg>