<?xml version="1.0" encoding="iso-8859-1"?>
<!-- Generator: Adobe Illustrator 17.0.0, SVG Export Plug-In . SVG Version: 6.00 Build 0)  -->
<!DOCTYPE svg PUBLIC "-//W3C//DTD SVG 1.1//EN" "http://www.w3.org/Graphics/SVG/1.1/DTD/svg11.dtd">
<svg version="1.1" id="object" xmlns="http://www.w3.org/2000/svg" xmlns:xlink="http://www.w3.org/1999/xlink" x="0px" y="0px"
	 width="198.199px" height="198.199px" viewBox="0 0 198.199 198.199" style="enable-background:new 0 0 198.199 198.199;"
	 xml:space="preserve">
<g>
	<g>
		<circle style="fill:#FFAF24;" cx="99.1" cy="99.099" r="99.1"/>
		<g>
			<defs>
				<circle id="SVGID_11_" cx="99.1" cy="99.099" r="99.1"/>
			</defs>
			<clipPath id="SVGID_2_">
				<use xlink:href="#SVGID_11_"  style="overflow:visible;"/>
			</clipPath>
			<g style="clip-path:url(#SVGID_2_);">
				<g>
					<path style="fill:#FFC78C;" d="M113.455,128.759c9.136-4.707,16.302-10.193,19.656-20.424c0.489,0.189,1,0.3,1.527,0.3
						c3.387,0,6.134-4.118,6.134-9.199c0-4.984-2.646-9.033-5.944-9.184c-2.501-18.126-17.664-32.069-36.008-32.069
						c-18.375,0-33.56,13.994-36.018,32.167c-0.298-0.067-0.602-0.113-0.914-0.113c-3.386,0-6.133,4.119-6.133,9.198
						c0,5.081,2.747,9.199,6.133,9.199c0.886,0,1.726-0.288,2.487-0.795c3.251,10.334,10.385,15.952,19.533,20.771v13.32
						c-23.051,2.287,14.773,25.796,14.773,25.796l21.672-19.359c0,0,11.936-3.436-6.898-6.327V128.759z"/>
					<g>
						<path style="fill:#FF5255;" d="M124.963,145.509c-11.798,0-7.277,9.641-24.945,9.641c-0.318,0-0.613-0.01-0.918-0.016
							c-0.304,0.006-0.6,0.016-0.918,0.016c-17.667,0-13.147-9.641-24.944-9.641c-16.963,0-34.629,54.424-22.715,54.424
							c5.875,0,26.642,0,47.659,0c0.307,0,0.612,0,0.918,0c0.306,0,0.612,0,0.918,0c21.018,0,41.784,0,47.659,0
							C159.592,199.933,141.925,145.509,124.963,145.509z"/>
						<path style="fill:#FEFBFD;" d="M116.168,143.229c-2.973,2.973-7.547,8.414-17.068,8.754
							c-9.521-0.341-14.095-5.781-17.068-8.754c-3.07-3.07-11.658,1.042-10.103,2.393c1.537,1.335,14.285,13.049,27.171,13.315
							c12.886-0.266,25.174-12.047,26.711-13.382C127.366,144.204,119.238,140.159,116.168,143.229z"/>
					</g>
					<path style="fill:#332114;" d="M65.541,107.102c0,0,1.115-31.497,15.888-32.891c12.266,3.624,22.021-4.739,24.529-6.689
						c2.508,5.296,12.451,14.259,24.437,14.817c5.894,10.727,5.018,9.825,2.322,23.37c20.905-32.612,2.508-50.172-3.345-55.19
						c-5.855-5.017-26.482-18.675-52.682-4.181C50.489,60.832,65.541,107.102,65.541,107.102z"/>
					<circle style="fill:#332114;" cx="101.843" cy="41.46" r="17.56"/>
					<g>
						<path style="opacity:0.4;fill:#FFFFFF;" d="M106.067,89.002h27.596c0,0,1.255,17.979-14.773,17.979
							C102.863,106.98,106.067,89.002,106.067,89.002z"/>
						<path style="fill:#231F20;" d="M118.891,107.817c-4.63,0-8.188-1.445-10.575-4.296c-4.634-5.533-3.136-14.295-3.07-14.665
							l0.122-0.69h29.076l0.054,0.778c0.026,0.367,0.567,9.04-4.566,14.546C127.253,106.361,123.538,107.817,118.891,107.817z
							 M106.799,89.838c-0.239,2.101-0.631,8.519,2.804,12.614c2.054,2.45,5.179,3.692,9.288,3.692c4.165,0,7.468-1.277,9.816-3.795
							c3.804-4.079,4.145-10.335,4.142-12.511H106.799z"/>
						<path style="opacity:0.4;fill:#FFFFFF;" d="M97.157,89.002H69.562c0,0-1.255,17.979,14.773,17.979
							C100.364,106.98,97.157,89.002,97.157,89.002z"/>
						<path style="fill:#231F20;" d="M73.297,103.49c-5.136-5.505-4.595-14.179-4.568-14.546l0.054-0.778h29.075l0.123,0.69
							c0.067,0.37,1.564,9.132-3.069,14.665c-2.388,2.851-5.945,4.296-10.575,4.296C79.688,107.817,75.975,106.361,73.297,103.49z
							 M70.377,89.838c-0.004,2.176,0.339,8.433,4.142,12.511c2.35,2.518,5.652,3.795,9.817,3.795c4.108,0,7.233-1.242,9.288-3.692
							c3.435-4.095,3.044-10.513,2.804-12.614H70.377z"/>
						<rect x="97.288" y="91.441" style="fill:#231F20;" width="8.521" height="3.066"/>
					</g>
					<polygon style="fill:#231F20;" points="138.757,94.292 133.912,95.048 133.912,92.148 140.128,90.892 					"/>
				</g>
				<polygon style="fill:#231F20;" points="62.233,92.203 69.628,94.079 69.628,90.938 61.779,88.687 				"/>
			</g>
		</g>
	</g>
</g>
</svg>
