<?xml version="1.0" encoding="utf-8"?>
<!-- Generator: Adobe Illustrator 17.0.0, SVG Export Plug-In . SVG Version: 6.00 Build 0)  -->
<!DOCTYPE svg PUBLIC "-//W3C//DTD SVG 1.1//EN" "http://www.w3.org/Graphics/SVG/1.1/DTD/svg11.dtd">
<svg version="1.1" id="图层_1" xmlns="http://www.w3.org/2000/svg" xmlns:xlink="http://www.w3.org/1999/xlink" x="0px" y="0px"
	 width="41px" height="19px" viewBox="0 0 41 19" enable-background="new 0 0 41 19" xml:space="preserve">
<path fill="#FF790B" d="M8.791,4.211c-0.312,0-0.565,0.173-0.576,0.393L8,14l0.215,4.549c0.011,0.217,0.264,0.389,0.576,0.389
	c0.31,0,0.563-0.172,0.575-0.391L10,14L9.366,4.604C9.354,4.384,9.101,4.211,8.791,4.211z M0.982,11.068
	c-0.209,0-0.377,0.066-0.393,0.153L0,14l0.589,2.94c0.016,0.089,0.184,0.153,0.393,0.153c0.205,0,0.374-0.064,0.392-0.153L2,14
	l-0.626-2.781C1.356,11.134,1.187,11.068,0.982,11.068z M4.841,6.67c-0.26,0-0.473,0.14-0.487,0.318L4,14l0.354,4.623
	c0.014,0.176,0.227,0.317,0.487,0.317c0.259,0,0.471-0.139,0.488-0.317L6,14L5.329,6.988C5.312,6.81,5.1,6.67,4.841,6.67z
	 M12.71,4.212c-0.36,0-0.648,0.202-0.657,0.461l-0.347,9.354l0.349,4.457c0.007,0.256,0.295,0.459,0.655,0.459
	c0.357,0,0.645-0.2,0.655-0.459L14,14l-0.635-9.327C13.355,4.414,13.067,4.212,12.71,4.212z M35.07,8.622
	C34.347,8.622,33.629,8.744,33,9c-0.42-4.619-5.134-9-10-9c-1.19,0-1.819,0.209-3,1c-0.354,0.237-0.997,0.7-1,1v16
	c0.004,0.314,0.685,0.97,1,1c0.013,0,13.133,0,15,0c3.014,0,6.012-2.041,6.012-5.249C41.012,10.094,37.986,8.622,35.07,8.622z
	 M16.566,2.741c-0.397,0-0.725,0.242-0.731,0.535l-0.277,10.74c0,0.006,0.277,4.411,0.277,4.411
	c0.006,0.292,0.334,0.532,0.731,0.532c0.398,0,0.726-0.237,0.732-0.532l0.308-4.408L17.298,3.276
	C17.292,2.981,16.964,2.741,16.566,2.741z"/>
</svg>
