<?xml version="1.0" encoding="utf-8"?><!DOCTYPE svg PUBLIC "-//W3C//DTD SVG 1.1//EN" "http://www.w3.org/Graphics/SVG/1.1/DTD/svg11.dtd"><svg version="1.1" baseProfile="full" xmlns="http://www.w3.org/2000/svg" xmlns:xlink="http://www.w3.org/1999/xlink" xmlns:ev="http://www.w3.org/2001/xml-events"   height="160px"   width="160px" ><path stroke="rgb( 14, 5, 10 )" stroke-width="0px" stroke-linecap="butt" stroke-linejoin="miter" fill="rgb( 234, 31, 100 )" d="M80,0 C124.183,0 160,35.817 160,80 C160,124.183 124.183,160 80,160 C35.817,160 0,124.183 0,80 C0,35.817 35.817,0 80,0 Z "/><path stroke="rgb( 14, 5, 10 )" stroke-width="0px" stroke-linecap="butt" stroke-linejoin="miter" fill="rgb( 255, 255, 255 )" d="M86,86 C86,86 86,117.5 86,117.5 C86,120.538 83.538,123 80.5,123 C80.5,123 79.5,123 79.5,123 C76.462,123 74,120.538 74,117.5 C74,117.5 74,86 74,86 C74,86 42.5,86 42.5,86 C39.462,86 37,83.538 37,80.5 C37,80.5 37,79.5 37,79.5 C37,76.462 39.462,74 42.5,74 C42.5,74 74,74 74,74 C74,74 74,42.5 74,42.5 C74,39.462 76.462,37 79.5,37 C79.5,37 80.5,37 80.5,37 C83.538,37 86,39.462 86,42.5 C86,42.5 86,74 86,74 C86,74 117.5,74 117.5,74 C120.538,74 123,76.462 123,79.5 C123,79.5 123,80.5 123,80.5 C123,83.538 120.538,86 117.5,86 C117.5,86 86,86 86,86 Z "/></svg>