<?xml version="1.0" encoding="utf-8"?>
<!-- Generator: Adobe Illustrator 17.0.0, SVG Export Plug-In . SVG Version: 6.00 Build 0)  -->
<!DOCTYPE svg PUBLIC "-//W3C//DTD SVG 1.1//EN" "http://www.w3.org/Graphics/SVG/1.1/DTD/svg11.dtd">
<svg version="1.1" id="图层_3" xmlns="http://www.w3.org/2000/svg" xmlns:xlink="http://www.w3.org/1999/xlink" x="0px" y="0px"
	 width="272.423px" height="179.352px" viewBox="0 0 272.423 179.352" enable-background="new 0 0 272.423 179.352"
	 xml:space="preserve">
<g id="Intuos_Pro">
	<g>
		<g>
			<path fill="#373A41" d="M272.423,168.556c0,5.938-4.858,10.796-10.796,10.796H10.796C4.858,179.352,0,174.494,0,168.556V10.796
				C0,4.858,4.858,0,10.796,0h250.831c5.938,0,10.796,4.858,10.796,10.796L272.423,168.556L272.423,168.556z"/>
		</g>
	</g>
	<rect x="48.42" y="20.235" fill="#202126" width="199.017" height="137.805"/>
	<g>
		<rect y="20.236" fill="#2D3036" width="48.42" height="0.771"/>
		<rect y="21.007" opacity="0.03" fill="#FFFFFF" enable-background="new    " width="48.42" height="0.193"/>
	</g>
	<g>
		<rect y="157.269" fill="#2D3036" width="48.42" height="0.771"/>
		<rect y="157.076" opacity="0.03" fill="#FFFFFF" enable-background="new    " width="48.42" height="0.193"/>
	</g>
	<g>
		<g>
			<g>
				<path fill="#2D3036" d="M20.032,37.878c-1.276,0-2.313-1.038-2.313-2.313v-4.568c0-1.276,1.038-2.313,2.313-2.313h8.613
					c1.276,0,2.313,1.038,2.313,2.313v4.568c0,1.276-1.038,2.313-2.313,2.313H20.032z"/>
				<path fill="#3A3D45" d="M30.188,35.565c0,0.848-0.694,1.542-1.542,1.542h-8.613c-0.848,0-1.542-0.694-1.542-1.542v-4.568
					c0-0.848,0.694-1.542,1.542-1.542h8.613c0.848,0,1.542,0.694,1.542,1.542V35.565z"/>
			</g>
			<g>
				<path fill="#2D3036" d="M20.032,68.617c-1.276,0-2.313-1.038-2.313-2.313v-4.568c0-1.276,1.038-2.313,2.313-2.313h8.613
					c1.276,0,2.313,1.038,2.313,2.313v4.568c0,1.276-1.038,2.313-2.313,2.313H20.032z"/>
				<path fill="#3A3D45" d="M30.188,66.304c0,0.848-0.694,1.542-1.542,1.542h-8.613c-0.848,0-1.542-0.694-1.542-1.542v-4.568
					c0-0.848,0.694-1.542,1.542-1.542h8.613c0.848,0,1.542,0.694,1.542,1.542V66.304z"/>
			</g>
			<g>
				<path fill="#2D3036" d="M20.032,48.125c-1.276,0-2.313-1.038-2.313-2.313v-4.568c0-1.276,1.038-2.313,2.313-2.313h8.613
					c1.276,0,2.313,1.038,2.313,2.313v4.568c0,1.276-1.038,2.313-2.313,2.313H20.032z"/>
				<path fill="#3A3D45" d="M30.188,45.811c0,0.848-0.694,1.542-1.542,1.542h-8.613c-0.848,0-1.542-0.694-1.542-1.542v-4.568
					c0-0.848,0.694-1.542,1.542-1.542h8.613c0.848,0,1.542,0.694,1.542,1.542V45.811z"/>
			</g>
			<g>
				<path fill="#2D3036" d="M20.032,58.371c-1.276,0-2.313-1.038-2.313-2.313V51.49c0-1.276,1.038-2.313,2.313-2.313h8.613
					c1.276,0,2.313,1.038,2.313,2.313v4.568c0,1.276-1.038,2.313-2.313,2.313C28.645,58.371,20.032,58.371,20.032,58.371z"/>
				<path fill="#3A3D45" d="M30.188,56.058c0,0.848-0.694,1.542-1.542,1.542h-8.613c-0.848,0-1.542-0.694-1.542-1.542V51.49
					c0-0.848,0.694-1.542,1.542-1.542h8.613c0.848,0,1.542,0.694,1.542,1.542V56.058z"/>
			</g>
			<circle opacity="0.1" enable-background="new    " cx="24.339" cy="54.159" r="0.814"/>
			<circle fill="#41444D" cx="24.339" cy="53.774" r="0.814"/>
			<path opacity="0.1" enable-background="new    " d="M25.806,43.272h-2.935c-0.45,0-0.814,0.364-0.814,0.814
				s0.364,0.814,0.814,0.814h2.935c0.45,0,0.814-0.365,0.814-0.814S26.256,43.272,25.806,43.272z"/>
			<path fill="#41444D" d="M25.806,42.887h-2.935c-0.45,0-0.814,0.364-0.814,0.814c0,0.449,0.364,0.814,0.814,0.814h2.935
				c0.45,0,0.814-0.364,0.814-0.814S26.256,42.887,25.806,42.887z"/>
			<path opacity="0.03" fill="#FFFFFF" enable-background="new    " d="M25.155,53.775c0,0.031,0,0.058-0.004,0.089
				c-0.046-0.408-0.394-0.725-0.81-0.725c-0.42,0-0.767,0.316-0.814,0.725c-0.004-0.031-0.004-0.058-0.004-0.089
				c0-0.451,0.366-0.813,0.817-0.813C24.789,52.962,25.155,53.324,25.155,53.775z"/>
			<path opacity="0.03" fill="#FFFFFF" enable-background="new    " d="M26.62,43.7c0,0.031,0,0.062-0.004,0.093
				c-0.046-0.405-0.39-0.725-0.81-0.725h-2.934c-0.42,0-0.764,0.32-0.81,0.725c-0.004-0.031-0.004-0.062-0.004-0.093
				c0-0.447,0.363-0.813,0.814-0.813h2.934C26.257,42.887,26.62,43.253,26.62,43.7z"/>
		</g>
		<g>
			<g>
				<path fill="#2D3036" d="M28.645,141.475c1.276,0,2.313,1.038,2.313,2.313v4.568c0,1.276-1.038,2.313-2.313,2.313h-8.613
					c-1.276,0-2.313-1.038-2.313-2.313v-4.568c0-1.276,1.038-2.313,2.313-2.313H28.645z"/>
				<path fill="#3A3D45" d="M18.49,143.788c0-0.848,0.694-1.542,1.542-1.542h8.613c0.848,0,1.542,0.694,1.542,1.542v4.568
					c0,0.848-0.694,1.542-1.542,1.542h-8.613c-0.848,0-1.542-0.694-1.542-1.542C18.49,148.356,18.49,143.788,18.49,143.788z"/>
			</g>
			<g>
				<path fill="#2D3036" d="M28.645,110.736c1.276,0,2.313,1.038,2.313,2.314v4.568c0,1.276-1.038,2.313-2.313,2.313h-8.613
					c-1.276,0-2.313-1.038-2.313-2.313v-4.568c0-1.276,1.038-2.314,2.313-2.314H28.645z"/>
				<path fill="#3A3D45" d="M18.49,113.049c0-0.848,0.694-1.542,1.542-1.542h8.613c0.848,0,1.542,0.694,1.542,1.542v4.568
					c0,0.848-0.694,1.542-1.542,1.542h-8.613c-0.848,0-1.542-0.694-1.542-1.542C18.49,117.617,18.49,113.049,18.49,113.049z"/>
			</g>
			<g>
				<path fill="#2D3036" d="M28.645,131.229c1.276,0,2.313,1.038,2.313,2.313v4.568c0,1.276-1.038,2.313-2.313,2.313h-8.613
					c-1.276,0-2.313-1.038-2.313-2.313v-4.568c0-1.276,1.038-2.313,2.313-2.313H28.645z"/>
				<path fill="#3A3D45" d="M18.49,133.542c0-0.848,0.694-1.542,1.542-1.542h8.613c0.848,0,1.542,0.694,1.542,1.542v4.568
					c0,0.848-0.694,1.542-1.542,1.542h-8.613c-0.848,0-1.542-0.694-1.542-1.542C18.49,138.11,18.49,133.542,18.49,133.542z"/>
			</g>
			<g>
				<path fill="#2D3036" d="M28.645,120.982c1.276,0,2.313,1.038,2.313,2.313v4.568c0,1.276-1.038,2.313-2.313,2.313h-8.613
					c-1.276,0-2.313-1.038-2.313-2.313v-4.568c0-1.276,1.038-2.313,2.313-2.313H28.645z"/>
				<path fill="#3A3D45" d="M18.49,123.295c0-0.848,0.694-1.542,1.542-1.542h8.613c0.848,0,1.542,0.694,1.542,1.542v4.568
					c0,0.848-0.694,1.542-1.542,1.542h-8.613c-0.848,0-1.542-0.694-1.542-1.542C18.49,127.863,18.49,123.295,18.49,123.295z"/>
			</g>
			<circle opacity="0.1" enable-background="new    " cx="24.338" cy="125.579" r="0.814"/>
			<circle fill="#41444D" cx="24.338" cy="125.194" r="0.814"/>
			<path opacity="0.1" enable-background="new    " d="M25.806,134.838h-2.935c-0.45,0-0.814,0.365-0.814,0.814
				s0.364,0.814,0.814,0.814h2.935c0.45,0,0.814-0.365,0.814-0.814C26.621,135.202,26.256,134.838,25.806,134.838z"/>
			<path fill="#41444D" d="M25.806,134.452h-2.935c-0.45,0-0.814,0.364-0.814,0.814s0.364,0.814,0.814,0.814h2.935
				c0.45,0,0.814-0.364,0.814-0.814C26.621,134.817,26.256,134.452,25.806,134.452z"/>
			<path opacity="0.03" fill="#FFFFFF" enable-background="new    " d="M25.154,125.195c0,0.031,0,0.058-0.004,0.089
				c-0.046-0.409-0.394-0.725-0.81-0.725c-0.42,0-0.767,0.316-0.814,0.725c-0.004-0.031-0.004-0.058-0.004-0.089
				c0-0.451,0.366-0.813,0.817-0.813C24.788,124.382,25.154,124.744,25.154,125.195z"/>
			<path opacity="0.03" fill="#FFFFFF" enable-background="new    " d="M26.62,135.266c0,0.031,0,0.062-0.004,0.093
				c-0.046-0.405-0.39-0.725-0.81-0.725h-2.934c-0.42,0-0.764,0.32-0.81,0.725c-0.004-0.031-0.004-0.062-0.004-0.093
				c0-0.447,0.363-0.813,0.814-0.813h2.934C26.258,134.452,26.62,134.818,26.62,135.266z"/>
		</g>
	</g>
	<g>
		<polygon fill="#E5E6EA" points="57.695,39.389 53.843,39.389 53.843,41.721 54.215,41.721 54.215,39.761 57.695,39.761 		"/>
		<polygon fill="#E5E6EA" points="57.695,140.167 53.843,140.167 53.843,137.836 54.215,137.836 54.215,139.796 57.695,139.796 		
			"/>
		<polygon fill="#E5E6EA" points="211.146,140.167 214.998,140.167 214.998,137.836 214.626,137.836 214.626,139.796 
			211.146,139.796 		"/>
		<polygon fill="#E5E6EA" points="211.146,39.389 214.998,39.389 214.998,41.721 214.626,41.721 214.626,39.761 211.146,39.761 		
			"/>
	</g>
	<g>
		<circle fill="#2D3036" cx="24.339" cy="89.677" r="14.566"/>
		<path opacity="0.1" enable-background="new    " d="M24.339,97.374c-4.244,0-7.697-3.453-7.697-7.697s3.453-7.697,7.697-7.697
			s7.697,3.453,7.697,7.697S28.583,97.374,24.339,97.374z"/>
		<circle fill="#373A41" cx="24.339" cy="89.677" r="6.926"/>
		<path opacity="0.03" fill="#FFFFFF" enable-background="new    " d="M31.268,89.676c0,0.065,0,0.131-0.004,0.193
			c-0.1-3.736-3.166-6.732-6.925-6.732s-6.82,2.996-6.921,6.732c-0.004-0.062-0.004-0.127-0.004-0.193
			c0-3.825,3.1-6.925,6.925-6.925S31.268,85.851,31.268,89.676z"/>
	</g>
</g>
</svg>
