<?xml version="1.0" encoding="utf-8"?><!DOCTYPE svg PUBLIC "-//W3C//DTD SVG 1.1//EN" "http://www.w3.org/Graphics/SVG/1.1/DTD/svg11.dtd"><svg version="1.1" baseProfile="full" xmlns="http://www.w3.org/2000/svg" xmlns:xlink="http://www.w3.org/1999/xlink" xmlns:ev="http://www.w3.org/2001/xml-events"   height="76px"   width="46px" ><path fill="rgb( 111, 130, 164 )" d="M6,0 C6,0 40,0 40,0 C43.314,0 46,2.68599999999998 46,6 C46,6 46,70 46,70 C46,73.314 43.314,76 40,76 C40,76 6,76 6,76 C2.68600000000004,76 0,73.314 0,70 C0,70 0,6 0,6 C0,2.68599999999998 2.68600000000004,0 6,0 Z "/><path fill="rgb( 165, 181, 211 )" d="M4,12 C4,12 42,12 42,12 C42,12 42,64 42,64 C42,64 4,64 4,64 C4,64 4,12 4,12 Z "/><path fill="rgb( 81, 96, 120 )" d="M27,7 C27,7 19,7 19,7 C18.448,7 18,6.55200000000002 18,6 C18,5.44799999999998 18.448,5 19,5 C19,5 27,5 27,5 C27.552,5 28,5.44799999999998 28,6 C28,6.55200000000002 27.552,7 27,7 ZM23,66 C24.657,66 26,67.343 26,69 C26,70.657 24.657,72 23,72 C21.343,72 20,70.657 20,69 C20,67.343 21.343,66 23,66 Z "/></svg>