<?xml version="1.0" encoding="utf-8"?>
<!-- Generator: Adobe Illustrator 17.0.0, SVG Export Plug-In . SVG Version: 6.00 Build 0)  -->
<!DOCTYPE svg PUBLIC "-//W3C//DTD SVG 1.1//EN" "http://www.w3.org/Graphics/SVG/1.1/DTD/svg11.dtd">
<svg version="1.1" id="图层_1" xmlns:ev="http://www.w3.org/2001/xml-events"
	 xmlns="http://www.w3.org/2000/svg" xmlns:xlink="http://www.w3.org/1999/xlink" x="0px" y="0px" width="314px" height="254px"
	 viewBox="0 0 314 254" enable-background="new 0 0 314 254" xml:space="preserve">
<path fill="#FFFFFF" d="M124,103c55.781,0,101,32.012,101,71.5S179.781,246,124,246S23,213.988,23,174.5S68.219,103,124,103z"/>
<path fill="#F81720" d="M210.268,5.866C221.841,3.411,210.268,5.866,210.268,5.866z M158.375,85.402
	c31.489-13.15,58.961-13.926,69.001,0.386c5.358,7.626,4.846,18.32-0.092,30.713c-2.284,5.709,0.702,6.594,5.058,7.898
	c17.742,5.487,37.49,18.758,37.49,42.144c0,38.705-55.955,87.457-140.075,87.457C65.59,254,0,222.981,0,171.96
	c0-26.673,16.941-57.518,46.117-86.627c38.957-38.85,84.388-56.546,101.473-39.493c7.54,7.509,8.27,20.522,3.423,36.053
	C148.488,89.717,158.375,85.385,158.375,85.402z M117.898,114.285c-51.198,5.05-90.023,36.32-86.697,69.846
	c3.326,33.535,47.526,56.622,98.728,51.582c51.21-5.053,90.018-36.326,86.698-69.871
	C213.307,132.322,169.106,109.235,117.898,114.285z"/>
<path fill="#FFAC2D" d="M305.33,110.91c-0.002,0.011-0.002,0.035-0.002,0.046c-2.017,6.201-8.697,9.596-14.911,7.589
	c-6.238-2.009-9.647-8.658-7.633-14.873l-0.003-0.005c6.179-19.08,2.26-40.846-12.167-56.804
	c-14.441-15.959-35.733-22.055-55.408-17.887c-6.4,1.361-12.694-2.715-14.058-9.091c-1.37-6.372,2.709-12.652,9.109-14.019h0.011
	C237.925,0,267.888,8.564,288.202,31.03C308.523,53.475,314,84.071,305.33,110.91z M223.297,66.763v-0.011
	c-5.495,1.193-10.912-2.326-12.09-7.802c-1.181-5.498,2.329-10.906,7.837-12.077c13.477-2.858,28.076,1.298,37.963,12.239
	c9.907,10.94,12.557,25.843,8.322,38.916c-1.729,5.352-7.476,8.265-12.835,6.555c-5.357-1.73-8.286-7.471-6.56-12.809h-0.01
	c2.075-6.396,0.775-13.685-4.063-19.035C237.028,67.4,229.884,65.374,223.297,66.763z"/>
<path fill="#010101" d="M96.819,221.308c-24.617-7.925-35.039-32.171-24.261-54.012c10.583-21.415,38.122-33.527,62.488-27.204
	c25.215,6.5,38.083,30.228,27.777,53.273C152.373,216.941,122.318,229.511,96.819,221.308z M110.721,175.405
	c-7.928-3.316-18.177,0.093-23.07,7.746c-4.953,7.686-2.629,16.84,5.244,20.415c7.987,3.638,18.592,0.185,23.546-7.697
	C121.304,187.909,118.743,178.815,110.721,175.405z M130.263,167.323c-3.043-1.204-6.847,0.253-8.631,3.239
	c-1.733,3.001-0.777,6.418,2.273,7.669c3.102,1.274,7.06-0.197,8.851-3.249C134.465,171.905,133.354,168.45,130.263,167.323z"/>
</svg>
