<?xml version="1.0" encoding="utf-8"?>
<!-- Generator: Adobe Illustrator 17.0.0, SVG Export Plug-In . SVG Version: 6.00 Build 0)  -->
<!DOCTYPE svg PUBLIC "-//W3C//DTD SVG 1.1//EN" "http://www.w3.org/Graphics/SVG/1.1/DTD/svg11.dtd">
<svg version="1.1" id="Layer_1" xmlns="http://www.w3.org/2000/svg" xmlns:xlink="http://www.w3.org/1999/xlink" x="0px" y="0px"
	 width="332.153px" height="332.153px" viewBox="0 0 332.153 332.153" enable-background="new 0 0 332.153 332.153"
	 xml:space="preserve">
<path fill="#08A1EF" d="M329.435,161.859c-2.307-1.573-5.874-2.584-9.877-2.584h-3.068c-2.051,1.182-5.281,1.943-8.911,1.943
	s-6.86-0.761-8.911-1.943c0,0-0.169-0.027-0.214,0c-0.391,0.226-0.899,1.576-0.899,1.576s-0.31-1.341-0.665-1.576
	c-0.668-0.445-2.511-0.403-3.203,0c-0.391,0.226-0.899,1.576-0.899,1.576s-0.541-1.167-0.664-1.576
	c-0.16-0.532-0.409-2.183-0.409-2.183h-8.267c-2.077-27.381-13.571-52.13-31.249-71.02l5.722-6.195c0,0-1.043-1.304-1.326-1.782
	c-0.217-0.368-0.707-1.558-0.707-1.558s1.337,0.543,1.768,0.409c0.765-0.235,2.047-1.561,2.173-2.353
	c0.068-0.42-0.707-1.558-0.707-1.558s1.337,0.543,1.768,0.409c0.05-0.015,0.145-0.157,0.145-0.157
	c0.523-2.309,2.156-5.198,4.619-7.865c2.463-2.667,5.213-4.523,7.474-5.228l2.081-2.254c2.716-2.941,4.394-6.247,4.803-9.008
	c0.305-2.036-0.082-3.777-1.255-4.86s-2.939-1.33-4.944-0.865c-2.721,0.627-5.883,2.562-8.599,5.503l-2.086,2.258
	c-0.526,2.307-2.156,5.193-4.617,7.858c-2.461,2.664-5.209,4.519-7.467,5.226c0,0-0.136,0.108-0.149,0.161
	c-0.098,0.442,0.548,1.73,0.548,1.73s-1.193-0.68-1.609-0.581c-0.778,0.19-1.998,1.573-2.173,2.353
	c-0.098,0.442,0.547,1.73,0.547,1.73s-1.222-0.392-1.608-0.581c-0.497-0.242-1.879-1.179-1.879-1.179l-5.764,6.241
	c-17.848-14.019-39.871-22.962-63.894-24.661v-8.826c0,0-1.651-0.25-2.183-0.409c-0.409-0.123-1.576-0.665-1.576-0.665
	s1.35-0.508,1.576-0.899c0.403-0.692,0.445-2.535,0-3.203c-0.235-0.355-1.576-0.665-1.576-0.665s1.35-0.508,1.576-0.899
	c0.027-0.045,0-0.214,0-0.214c-1.182-2.051-1.943-5.281-1.943-8.911s0.761-6.86,1.943-8.911v-3.068c0-4.003-1.011-7.57-2.584-9.877
	C169.137,1.016,167.672,0,166.075,0s-3.061,1.016-4.219,2.719c-1.573,2.307-2.583,5.873-2.583,9.877v3.074
	c1.179,2.051,1.94,5.278,1.94,8.905s-0.761,6.854-1.94,8.905c0,0-0.027,0.172,0,0.22c0.229,0.391,1.576,0.899,1.576,0.899
	s-1.338,0.31-1.576,0.665c-0.442,0.668-0.4,2.511,0,3.203c0.229,0.391,1.576,0.899,1.576,0.899s-1.164,0.541-1.576,0.665
	c-0.53,0.159-2.18,0.409-2.18,0.409v8.917c-27.13,2.198-51.646,13.641-70.393,31.177l-6.822-6.3c0,0-1.304,1.044-1.782,1.327
	c-0.368,0.217-1.558,0.707-1.558,0.707s0.543-1.337,0.409-1.768c-0.235-0.765-1.561-2.047-2.353-2.173
	c-0.42-0.068-1.558,0.707-1.558,0.707s0.543-1.337,0.409-1.768c-0.015-0.05-0.157-0.145-0.157-0.145
	c-2.309-0.523-5.198-2.156-7.865-4.618c-2.667-2.463-4.523-5.214-5.228-7.474l-2.254-2.082c-2.941-2.716-6.247-4.394-9.009-4.803
	c-2.036-0.305-3.777,0.082-4.86,1.255s-1.33,2.939-0.865,4.944c0.627,2.721,2.562,5.883,5.503,8.599l2.258,2.085
	c2.307,0.526,5.193,2.156,7.858,4.617c2.664,2.461,4.519,5.209,5.226,7.467c0,0,0.107,0.136,0.161,0.149
	c0.442,0.097,1.73-0.547,1.73-0.547s-0.68,1.193-0.581,1.608c0.19,0.778,1.574,1.998,2.353,2.173c0.442,0.098,1.73-0.547,1.73-0.547
	s-0.392,1.222-0.581,1.608c-0.242,0.497-1.179,1.879-1.179,1.879l6.863,6.339c-13.913,17.704-22.834,39.518-24.639,63.319h-9.47
	c0,0-0.25,1.651-0.409,2.183c-0.123,0.409-0.665,1.576-0.665,1.576s-0.508-1.35-0.899-1.576c-0.692-0.403-2.535-0.445-3.203,0
	c-0.355,0.235-0.665,1.576-0.665,1.576s-0.508-1.35-0.899-1.576c-0.045-0.027-0.213,0-0.213,0c-2.051,1.182-5.281,1.943-8.911,1.943
	s-6.86-0.761-8.911-1.943h-3.068c-4.003,0-7.57,1.011-9.876,2.584C1.016,163.017,0,164.481,0,166.078s1.016,3.062,2.719,4.219
	c2.307,1.573,5.874,2.583,9.876,2.583h3.074c2.051-1.179,5.278-1.94,8.905-1.94s6.854,0.761,8.905,1.94c0,0,0.172,0.027,0.219,0
	c0.391-0.229,0.899-1.576,0.899-1.576s0.31,1.338,0.665,1.576c0.668,0.442,2.511,0.4,3.203,0c0.391-0.229,0.899-1.576,0.899-1.576
	s0.541,1.164,0.665,1.576c0.159,0.53,0.409,2.18,0.409,2.18h9.47c2.054,27.068,13.311,51.563,30.647,70.368l-6.323,6.846
	c0,0,1.043,1.303,1.324,1.78c0.219,0.37,0.707,1.557,0.707,1.557s-1.335-0.54-1.768-0.408c-0.763,0.237-2.045,1.562-2.173,2.353
	c-0.066,0.422,0.707,1.557,0.707,1.557s-1.335-0.541-1.768-0.409c-0.053,0.017-0.149,0.161-0.149,0.161
	c-0.526,2.307-2.156,5.193-4.617,7.858s-5.209,4.519-7.467,5.226l-2.085,2.258c-2.716,2.94-4.394,6.246-4.803,9.008
	c-0.304,2.036,0.082,3.776,1.255,4.86c1.173,1.084,2.939,1.331,4.944,0.866c2.721-0.627,5.883-2.562,8.599-5.502l2.082-2.254
	c0.523-2.309,2.156-5.198,4.619-7.865c2.463-2.667,5.213-4.523,7.473-5.228c0,0,0.134-0.106,0.145-0.157
	c0.099-0.44-0.548-1.73-0.548-1.73s1.195,0.683,1.609,0.581c0.78-0.189,2-1.571,2.173-2.353c0.1-0.44-0.547-1.73-0.547-1.73
	s1.224,0.394,1.608,0.581c0.499,0.244,1.882,1.181,1.882,1.181l6.274-6.793c17.673,14.098,39.517,23.187,63.384,25.12v8.919
	c0,0,1.651,0.25,2.18,0.409c0.412,0.123,1.576,0.664,1.576,0.664s-1.347,0.508-1.576,0.899c-0.4,0.692-0.442,2.535,0,3.203
	c0.238,0.355,1.576,0.665,1.576,0.665s-1.347,0.508-1.576,0.899c-0.027,0.048,0,0.219,0,0.219c1.179,2.051,1.94,5.278,1.94,8.905
	s-0.761,6.854-1.94,8.905v3.074c0,4.003,1.01,7.57,2.583,9.877c1.158,1.702,2.622,2.719,4.219,2.719s3.062-1.017,4.22-2.719
	c1.573-2.307,2.584-5.874,2.584-9.877v-3.068c-1.182-2.051-1.943-5.281-1.943-8.911s0.761-6.86,1.943-8.911c0,0,0.027-0.169,0-0.214
	c-0.226-0.391-1.576-0.899-1.576-0.899s1.341-0.31,1.576-0.665c0.445-0.668,0.403-2.511,0-3.203
	c-0.226-0.391-1.576-0.899-1.576-0.899s1.167-0.541,1.576-0.664c0.532-0.159,2.183-0.409,2.183-0.409v-8.828
	c27.318-1.932,52.047-13.234,70.995-30.711l6.22,5.744c0,0,1.303-1.043,1.78-1.324c0.37-0.219,1.557-0.707,1.557-0.707
	s-0.54,1.335-0.408,1.768c0.237,0.763,1.562,2.045,2.353,2.173c0.422,0.066,1.557-0.707,1.557-0.707s-0.541,1.335-0.409,1.768
	c0.017,0.053,0.161,0.149,0.161,0.149c2.307,0.526,5.193,2.156,7.858,4.617c2.664,2.461,4.519,5.209,5.226,7.467l2.258,2.086
	c2.94,2.716,6.246,4.394,9.008,4.803c2.036,0.305,3.776-0.082,4.86-1.255c1.084-1.173,1.331-2.939,0.866-4.944
	c-0.627-2.721-2.562-5.883-5.503-8.599l-2.254-2.081c-2.309-0.523-5.198-2.156-7.865-4.618c-2.667-2.463-4.523-5.213-5.228-7.474
	c0,0-0.106-0.134-0.157-0.145c-0.44-0.1-1.73,0.548-1.73,0.548s0.683-1.196,0.581-1.609c-0.189-0.78-1.571-2-2.353-2.173
	c-0.44-0.1-1.73,0.548-1.73,0.548s0.394-1.224,0.581-1.608c0.244-0.499,1.181-1.882,1.181-1.882l-6.171-5.699
	c14.204-17.817,23.322-39.869,25.15-63.959h8.267c0,0,0.25-1.651,0.409-2.18c0.123-0.412,0.664-1.576,0.664-1.576
	s0.508,1.347,0.899,1.576c0.692,0.4,2.535,0.442,3.203,0c0.355-0.238,0.665-1.576,0.665-1.576s0.508,1.347,0.899,1.576
	c0.048,0.027,0.219,0,0.219,0c2.051-1.179,5.278-1.94,8.905-1.94c3.627,0,6.854,0.761,8.905,1.94h3.074
	c4.003,0,7.57-1.01,9.877-2.583c1.702-1.158,2.719-2.622,2.719-4.219C332.153,164.481,331.137,163.017,329.435,161.859z
	 M172.878,92.964c-0.222-0.13-0.972,0.337-0.972,0.337s0.848-2.126,0.972-2.872c0.033-0.202,0.066-0.62,0-0.812
	c-0.262-0.782-1.997-2.638-1.997-2.638l1.997,0.024V86.98h1.66l0.523-0.752v-5.274c15.772,1.535,30.287,7.353,42.371,16.276
	l-3.78,4.093l-0.126,0.907l1.218,1.124l-0.016,0.018l1.486,1.339c0,0-2.534,0.186-3.261,0.583c-0.175,0.096-0.436,0.424-0.547,0.592
	c-0.418,0.634-1.235,2.773-1.235,2.773s-0.232-0.876-0.487-0.908c-0.392-0.05-1.009,0.772-1.073,1.162
	c-0.248,1.496-0.502,4.142-2.765,6.592c-2.263,2.45-4.88,2.913-6.352,3.279c-0.363,0.09-0.856,0.76-1.014,1.098
	c-0.417,0.893-0.501,3.908-0.501,3.908s-1.04-1.631-1.611-1.621c-0.855,0.016-1.988,1.725-2.321,2.513
	c-0.268,0.634-0.151,2.75-0.151,2.75s-0.985-0.875-1.326-1.151c-0.426-0.344-1.75-1.319-1.75-1.319l-11.865,12.847
	c-1.563-0.752-3.198-1.377-4.892-1.865v-17.537c0,0-1.636-0.182-2.183-0.218c-0.437-0.028-1.752-0.054-1.752-0.054
	s1.519-1.472,1.752-2.119c0.29-0.806,0.618-2.832,0-3.424c-0.412-0.395-2.28,0.097-2.28,0.097s1.981-2.269,2.28-3.206
	c0.114-0.357,0.206-1.186,0-1.499c-0.831-1.266-2.442-3.383-2.442-6.719c0-3.335,1.611-5.453,2.442-6.719
	C173.095,94.216,173.219,93.165,172.878,92.964z M157.092,81.082v5.146l0.523,0.752h1.657v0.024l2-0.024c0,0-1.735,1.856-2,2.641
	c-0.063,0.189-0.033,0.607,0,0.806c0.123,0.749,0.974,2.875,0.974,2.875s-0.764-0.486-0.974-0.337c-0.322,0.23-0.217,1.252,0,1.582
	c0.833,1.268,2.442,3.384,2.442,6.719s-1.609,5.451-2.442,6.719c-0.205,0.312-0.114,1.139,0,1.495
	c0.3,0.938,2.283,3.211,2.283,3.211s-1.871-0.492-2.283-0.097c-0.617,0.592-0.29,2.616,0,3.421c0.233,0.648,1.755,2.123,1.755,2.123
	s-1.317,0.026-1.755,0.054c-0.547,0.036-2.18,0.218-2.18,0.218v17.716c-2.429,0.752-4.732,1.792-6.869,3.08l-13.068-12.07
	c0,0-1.244,1.078-1.642,1.456c-0.317,0.302-1.228,1.25-1.228,1.25s-0.051-2.115-0.368-2.725c-0.395-0.759-1.661-2.375-2.515-2.323
	c-0.569,0.035-1.476,1.741-1.476,1.741s-0.323-2.995-0.808-3.851c-0.185-0.326-0.732-0.956-1.101-1.017
	c-1.494-0.248-4.143-0.501-6.593-2.764c-2.45-2.263-2.913-4.883-3.279-6.353c-0.096-0.384-0.783-1.187-1.162-1.073
	c-0.246,0.074-0.412,0.942-0.412,0.942s-0.986-2.066-1.451-2.662c-0.126-0.161-0.41-0.469-0.597-0.551
	c-0.752-0.338-3.293-0.323-3.293-0.323l1.373-1.451l-0.018-0.016l1.126-1.219l-0.197-0.895l-3.53-3.26
	C122.828,90.66,139.118,83.087,157.092,81.082z M97.851,115.295l3.471,3.206l0.907,0.126l1.124-1.218l0.018,0.016l1.339-1.485
	c0,0,0.186,2.534,0.583,3.261c0.096,0.175,0.424,0.437,0.592,0.547c0.634,0.418,2.773,1.235,2.773,1.235s-0.876,0.232-0.908,0.487
	c-0.05,0.392,0.772,1.009,1.162,1.073c1.496,0.248,4.142,0.502,6.592,2.765c2.45,2.263,2.913,4.88,3.279,6.352
	c0.09,0.363,0.76,0.856,1.099,1.014c0.893,0.417,3.908,0.501,3.908,0.501s-1.631,1.04-1.621,1.611
	c0.016,0.855,1.725,1.988,2.513,2.321c0.634,0.268,2.75,0.151,2.75,0.151s-0.875,0.985-1.151,1.326
	c-0.345,0.426-1.319,1.75-1.319,1.75l13.155,12.15c-0.711,1.475-1.307,3.015-1.783,4.607h-17.927c0,0-0.182,1.636-0.218,2.183
	c-0.029,0.437-0.054,1.752-0.054,1.752s-1.472-1.519-2.119-1.752c-0.805-0.29-2.832-0.618-3.424,0
	c-0.395,0.412,0.097,2.28,0.097,2.28s-2.269-1.981-3.206-2.28c-0.357-0.114-1.186-0.206-1.499,0
	c-1.266,0.831-3.383,2.442-6.719,2.442c-3.335,0-5.453-1.611-6.719-2.442c-0.331-0.217-1.381-0.341-1.582,0
	c-0.131,0.221,0.337,0.971,0.337,0.971s-2.126-0.848-2.872-0.971c-0.202-0.033-0.619-0.066-0.812,0
	c-0.782,0.262-2.638,1.997-2.638,1.997l0.024-1.997H86.98v-1.66l-0.752-0.523h-4.612C83.239,141.541,89.03,127.231,97.851,115.295z
	 M111.473,215.17c0.053,0.252,0.944,0.413,0.944,0.413s-2.068,0.984-2.666,1.451c-0.159,0.123-0.465,0.41-0.547,0.592
	c-0.338,0.756-0.322,3.297-0.322,3.297l-1.453-1.375l-0.016,0.018l-1.217-1.125l-0.895,0.197l-3.225,3.492
	c-11.192-12.887-18.589-29.156-20.46-47.069h4.612l0.752-0.523v-1.657h0.024l-0.024-2c0,0,1.856,1.735,2.641,2
	c0.19,0.063,0.607,0.033,0.806,0c0.749-0.123,2.875-0.974,2.875-0.974s-0.486,0.764-0.337,0.974c0.23,0.322,1.252,0.217,1.582,0
	c1.267-0.833,3.383-2.442,6.719-2.442c3.335,0,5.451,1.609,6.719,2.442c0.312,0.205,1.139,0.114,1.495,0
	c0.938-0.3,3.211-2.283,3.211-2.283s-0.492,1.871-0.097,2.283c0.592,0.617,2.616,0.29,3.421,0c0.648-0.233,2.123-1.755,2.123-1.755
	s0.026,1.317,0.054,1.755c0.036,0.547,0.218,2.18,0.218,2.18h17.927c0.715,2.395,1.709,4.671,2.944,6.788l-12.145,13.15
	c0,0,1.077,1.243,1.454,1.639c0.303,0.318,1.252,1.231,1.252,1.231s-2.118,0.051-2.729,0.368c-0.759,0.395-2.373,1.66-2.321,2.513
	c0.035,0.57,1.743,1.478,1.743,1.478s-2.999,0.323-3.856,0.809c-0.325,0.184-0.953,0.73-1.015,1.098
	c-0.248,1.496-0.502,4.142-2.765,6.592s-4.88,2.913-6.352,3.279C112.162,214.102,111.392,214.782,111.473,215.17z M159.272,239.189
	c0.21,0.149,0.974-0.337,0.974-0.337s-0.851,2.126-0.974,2.875c-0.033,0.199-0.063,0.617,0,0.806c0.265,0.785,2,2.641,2,2.641
	l-2-0.024v0.024h-1.657l-0.523,0.752v5.144c-15.616-1.742-29.961-7.685-41.88-16.678l3.289-3.561l0.126-0.908l-1.219-1.126
	l0.016-0.018l-1.483-1.337c0,0,2.534-0.186,3.257-0.583c0.179-0.097,0.438-0.426,0.551-0.596c0.415-0.632,1.235-2.769,1.235-2.769
	s0.234,0.853,0.485,0.907c0.387,0.084,1.009-0.772,1.074-1.162c0.248-1.494,0.501-4.143,2.764-6.593s4.883-2.913,6.353-3.279
	c0.364-0.09,0.859-0.762,1.017-1.101c0.416-0.891,0.5-3.902,0.5-3.902s1.039,1.629,1.609,1.619c0.856-0.016,1.99-1.727,2.323-2.516
	c0.268-0.633,0.151-2.745,0.151-2.745s0.983,0.873,1.324,1.149c0.427,0.345,1.752,1.321,1.752,1.321l12.054-13.051
	c1.503,0.751,3.074,1.386,4.703,1.89v17.716c0,0,1.634,0.182,2.18,0.218c0.438,0.029,1.755,0.054,1.755,0.054
	s-1.522,1.475-1.755,2.122c-0.29,0.805-0.617,2.829,0,3.421c0.412,0.395,2.283-0.097,2.283-0.097s-1.984,2.272-2.283,3.21
	c-0.114,0.356-0.205,1.183,0,1.495c0.833,1.267,2.442,3.383,2.442,6.719c0,3.335-1.609,5.451-2.442,6.719
	C159.055,237.937,158.95,238.959,159.272,239.189z M175.062,251.198v-5.272l-0.523-0.752h-1.66v-0.024l-1.997,0.024
	c0,0,1.736-1.856,1.997-2.638c0.066-0.192,0.033-0.61,0-0.812c-0.123-0.746-0.972-2.872-0.972-2.872s0.75,0.468,0.972,0.337
	c0.341-0.201,0.217-1.252,0-1.582c-0.831-1.266-2.442-3.383-2.442-6.719c0-3.335,1.611-5.453,2.442-6.719
	c0.206-0.313,0.114-1.142,0-1.499c-0.299-0.937-2.28-3.206-2.28-3.206s1.868,0.492,2.28,0.097c0.618-0.592,0.29-2.619,0-3.425
	c-0.233-0.647-1.752-2.119-1.752-2.119s1.315-0.026,1.752-0.054c0.547-0.036,2.183-0.218,2.183-0.218v-17.537
	c2.512-0.723,4.893-1.751,7.104-3.042l12.833,11.853c0,0,1.243-1.076,1.64-1.454c0.318-0.303,1.231-1.252,1.231-1.252
	s0.051,2.118,0.368,2.729c0.395,0.759,1.66,2.373,2.513,2.321c0.57-0.035,1.478-1.743,1.478-1.743s0.323,2.999,0.809,3.856
	c0.184,0.325,0.73,0.953,1.098,1.014c1.496,0.248,4.142,0.502,6.592,2.765s2.913,4.88,3.279,6.352
	c0.096,0.384,0.775,1.154,1.163,1.073c0.252-0.053,0.413-0.945,0.413-0.945s0.985,2.068,1.451,2.666
	c0.123,0.159,0.41,0.465,0.592,0.547c0.756,0.338,3.297,0.322,3.297,0.322l-1.375,1.453l0.018,0.016l-1.125,1.218l0.197,0.894
	l4.119,3.804C209.722,241.986,193.224,249.431,175.062,251.198z M235.014,217.516l-4.183-3.864l-0.908-0.126l-1.126,1.219
	l-0.018-0.016l-1.337,1.483c0,0-0.186-2.534-0.583-3.257c-0.097-0.179-0.426-0.438-0.596-0.551
	c-0.632-0.415-2.769-1.235-2.769-1.235s0.853-0.234,0.907-0.485c0.084-0.387-0.772-1.009-1.162-1.073
	c-1.494-0.248-4.143-0.501-6.593-2.764s-2.913-4.883-3.279-6.353c-0.09-0.364-0.761-0.859-1.101-1.017
	c-0.891-0.416-3.902-0.5-3.902-0.5s1.629-1.039,1.618-1.609c-0.016-0.856-1.727-1.99-2.516-2.324
	c-0.633-0.268-2.745-0.151-2.745-0.151s0.873-0.983,1.149-1.324c0.345-0.426,1.321-1.752,1.321-1.752l-12.743-11.769
	c0.793-1.591,1.455-3.258,1.972-4.988h17.325c0,0,0.182-1.634,0.218-2.18c0.029-0.438,0.054-1.755,0.054-1.755
	s1.475,1.522,2.122,1.755c0.805,0.29,2.829,0.617,3.421,0c0.395-0.412-0.097-2.283-0.097-2.283s2.272,1.984,3.21,2.283
	c0.356,0.114,1.183,0.205,1.495,0c1.267-0.833,3.383-2.442,6.719-2.442c3.335,0,5.451,1.609,6.719,2.442
	c0.33,0.217,1.353,0.322,1.582,0c0.149-0.21-0.337-0.974-0.337-0.974s2.126,0.851,2.875,0.974c0.199,0.033,0.617,0.063,0.806,0
	c0.785-0.265,2.641-2,2.641-2l-0.024,2h0.024v1.657l0.752,0.523h5.815C250.087,190.899,244.112,205.45,235.014,217.516z
	 M245.926,157.092l-0.752,0.523v1.66h-0.024l0.024,1.997c0,0-1.856-1.736-2.638-1.997c-0.192-0.066-0.61-0.033-0.812,0
	c-0.746,0.123-2.872,0.971-2.872,0.971s0.468-0.75,0.337-0.971c-0.201-0.341-1.252-0.217-1.582,0
	c-1.266,0.831-3.383,2.442-6.719,2.442c-3.335,0-5.453-1.611-6.719-2.442c-0.313-0.206-1.142-0.114-1.499,0
	c-0.937,0.299-3.206,2.28-3.206,2.28s0.492-1.868,0.097-2.28c-0.592-0.618-2.619-0.29-3.425,0c-0.647,0.233-2.119,1.752-2.119,1.752
	s-0.026-1.315-0.054-1.752c-0.036-0.548-0.218-2.183-0.218-2.183H196.42c-0.76-2.546-1.834-4.956-3.178-7.185l11.778-12.752
	c0,0-1.078-1.244-1.456-1.642c-0.302-0.317-1.25-1.228-1.25-1.228s2.115-0.051,2.725-0.368c0.759-0.395,2.375-1.661,2.323-2.516
	c-0.035-0.569-1.741-1.476-1.741-1.476s2.995-0.323,3.851-0.808c0.326-0.185,0.956-0.732,1.017-1.101
	c0.248-1.494,0.501-4.143,2.764-6.593c2.263-2.45,4.883-2.913,6.353-3.279c0.384-0.096,1.188-0.784,1.074-1.162
	c-0.074-0.246-0.942-0.412-0.942-0.412s2.066-0.986,2.662-1.451c0.161-0.126,0.469-0.41,0.551-0.597
	c0.338-0.752,0.322-3.293,0.322-3.293l1.451,1.373l0.016-0.018l1.219,1.126l0.895-0.197l3.839-4.157
	c11.519,12.991,19.146,29.51,21.049,47.734h-5.816V157.092z"/>
<path fill="#FFFFFF" d="M279.52,166.076c0-15.235-2.983-30.013-8.866-43.922c-5.683-13.437-13.82-25.505-24.184-35.869
	C236.105,75.92,224.037,67.783,210.6,62.1c-13.909-5.883-28.687-8.866-43.922-8.866s-30.013,2.983-43.922,8.866
	c-13.437,5.683-25.505,13.82-35.869,24.184c-10.365,10.364-18.501,22.433-24.184,35.869c-5.883,13.909-8.866,28.686-8.866,43.922
	c0,15.235,2.983,30.013,8.866,43.922c5.683,13.437,13.82,25.505,24.184,35.869c10.364,10.365,22.433,18.501,35.869,24.185
	c13.909,5.883,28.686,8.866,43.922,8.866c15.235,0,30.013-2.983,43.922-8.866c13.436-5.683,25.505-13.82,35.869-24.185
	c10.364-10.364,18.501-22.432,24.184-35.869C276.537,196.088,279.52,181.311,279.52,166.076z M166.678,255.256
	c-49.174,0-89.18-40.006-89.18-89.181c0-49.174,40.006-89.18,89.18-89.18s89.181,40.006,89.181,89.18
	C255.859,215.25,215.852,255.256,166.678,255.256z M137.656,166.078c0-15.696,12.724-28.419,28.42-28.419s28.42,12.724,28.42,28.419
	c0,15.696-12.724,28.42-28.42,28.42C150.38,194.497,137.656,181.773,137.656,166.078z"/>
</svg>
