<?xml version="1.0" encoding="iso-8859-1"?>
<!-- Generator: Adobe Illustrator 15.0.0, SVG Export Plug-In . SVG Version: 6.00 Build 0)  -->
<!DOCTYPE svg PUBLIC "-//W3C//DTD SVG 1.1//EN" "http://www.w3.org/Graphics/SVG/1.1/DTD/svg11.dtd">
<svg version="1.1" id="Layer_1" xmlns="http://www.w3.org/2000/svg" xmlns:xlink="http://www.w3.org/1999/xlink" x="0px" y="0px"
	 width="128px" height="128px" viewBox="0 0 128 128" style="enable-background:new 0 0 128 128;" xml:space="preserve">
<g>
	<circle style="fill:#88C5CC;" cx="64" cy="64" r="64"/>
	<path style="fill:#F5F5F5;" d="M64,16.553c-16.568,0-30,13.432-30,30c0,10.256,5.149,11.646,13,11.215v12.785
		c0,4.4,3.6,8.447,8,8.447h18c4.4,0,8-4.047,8-8.447V57.768c7.852,0.432,13-0.959,13-11.215C94,29.984,80.568,16.553,64,16.553z"/>
	<g>
		<path style="fill:#E6E6E6;" d="M77,57.768v12.785c0,4.4-3.6,8.447-8,8.447h4c4.4,0,8-4.047,8-8.447V57.777
			C79.766,57.861,78.43,57.846,77,57.768z"/>
		<path style="fill:#E6E6E6;" d="M43,57.775v-0.008c-0.035,0.002-0.067,0.002-0.102,0.004C42.932,57.773,42.967,57.773,43,57.775z"
			/>
		<path style="fill:#E6E6E6;" d="M64,16.553c-0.673,0-1.338,0.03-2,0.074c15.635,1.029,28,14.03,28,29.926
			c0,8.34-3.404,10.815-8.898,11.219C88.895,58.184,94,56.764,94,46.553C94,29.984,80.568,16.553,64,16.553z"/>
	</g>
	<path style="fill:#CCCCCC;" d="M67,47.553c0,1.658-1.343,3-3,3s-3-1.342-3-3c0-1.656,1.343-7,3-7S67,45.896,67,47.553z"/>
	<path style="fill:#B3B3B3;" d="M62,47.553c0-1.484,1.081-5.926,2.5-6.828c-0.163-0.104-0.329-0.172-0.5-0.172c-1.657,0-3,5.344-3,7
		c0,1.658,1.343,3,3,3c0.171,0,0.337-0.021,0.5-0.051C63.082,50.264,62,49.039,62,47.553z"/>
	<path style="fill:#CCCCCC;" d="M57.17,37.314c2.195,3.182-0.309,5.07-3.49,7.266c-3.184,2.195-5.84,3.865-8.035,0.682
		c-2.192-3.182-1.395-7.541,1.789-9.736C50.618,33.331,54.975,34.131,57.17,37.314z"/>
	<path style="fill:#B3B3B3;" d="M47.645,45.262c-2.192-3.182-1.395-7.541,1.789-9.736c0.919-0.633,1.937-1.01,2.971-1.157
		c-1.685-0.242-3.458,0.116-4.971,1.157c-3.184,2.195-3.981,6.557-1.789,9.736c1.17,1.695,2.472,2.008,3.911,1.604
		C48.884,46.632,48.246,46.134,47.645,45.262z"/>
	<path style="fill:#CCCCCC;" d="M70.83,37.314c-2.195,3.182,0.309,5.07,3.49,7.266c3.184,2.195,5.84,3.865,8.035,0.682
		c2.191-3.182,1.395-7.541-1.789-9.736C77.382,33.331,73.025,34.131,70.83,37.314z"/>
	<path style="fill:#B3B3B3;" d="M76.32,44.58c-3.184-2.193-5.688-4.084-3.49-7.266c1.152-1.672,2.904-2.682,4.768-2.948
		c-2.55-0.368-5.205,0.684-6.768,2.948c-2.195,3.182,0.309,5.07,3.49,7.266c2.312,1.594,4.343,2.9,6.123,2.284
		C79.18,46.51,77.809,45.605,76.32,44.58z"/>
	<path style="fill:#F5F5F5;" d="M87.832,76.494c-0.359,0.035-0.693,0.123-1.008,0.236c0.23-0.24,0.447-0.51,0.626-0.824
		c0.879-1.551,0.647-3.342-0.513-4.002c-1.162-0.66-2.817,0.063-3.699,1.611c-0.651,1.148-0.69,2.43-0.194,3.283l-40.268,26.15
		c-0.579-0.803-1.766-1.287-3.081-1.158c-1.773,0.174-3.106,1.395-2.978,2.725c0.131,1.328,1.675,2.27,3.448,2.096
		c0.359-0.035,0.693-0.123,1.008-0.236c-0.23,0.242-0.447,0.512-0.626,0.824c-0.879,1.551-0.648,3.344,0.512,4.004
		c1.162,0.66,2.818-0.063,3.699-1.611c0.652-1.15,0.691-2.432,0.195-3.287l40.268-26.146c0.579,0.801,1.766,1.283,3.081,1.156
		c1.773-0.176,3.107-1.395,2.978-2.725C91.15,77.26,89.605,76.322,87.832,76.494z"/>
	<polygon style="fill:#E6E6E6;" points="62.868,89.902 66.54,92.288 70.212,89.902 66.54,87.52 	"/>
	<path style="fill:#F5F5F5;" d="M40.168,76.494c0.359,0.035,0.693,0.123,1.008,0.236c-0.23-0.24-0.447-0.51-0.626-0.824
		c-0.879-1.551-0.648-3.342,0.512-4.002c1.162-0.66,2.818,0.063,3.699,1.611c0.652,1.148,0.691,2.43,0.195,3.283l40.269,26.15
		c0.578-0.803,1.766-1.287,3.08-1.158c1.773,0.174,3.106,1.395,2.979,2.725c-0.131,1.328-1.676,2.27-3.448,2.096
		c-0.358-0.035-0.692-0.123-1.008-0.236c0.229,0.242,0.446,0.512,0.626,0.824c0.879,1.551,0.648,3.344-0.512,4.004
		c-1.162,0.66-2.818-0.063-3.699-1.611c-0.652-1.15-0.691-2.432-0.195-3.287L42.779,80.158c-0.579,0.801-1.766,1.283-3.081,1.156
		c-1.773-0.176-3.107-1.395-2.978-2.725C36.849,77.26,38.395,76.322,40.168,76.494z"/>
</g>
</svg>
