<?xml version="1.0" encoding="utf-8"?>
<!-- Generator: Adobe Illustrator 17.0.0, SVG Export Plug-In . SVG Version: 6.00 Build 0)  -->
<!DOCTYPE svg PUBLIC "-//W3C//DTD SVG 1.1//EN" "http://www.w3.org/Graphics/SVG/1.1/DTD/svg11.dtd">
<svg version="1.1" id="_x37C_" xmlns="http://www.w3.org/2000/svg" xmlns:xlink="http://www.w3.org/1999/xlink" x="0px" y="0px"
	 width="208.551px" height="314.647px" viewBox="0 0 208.551 314.647" enable-background="new 0 0 208.551 314.647"
	 xml:space="preserve">
<path fill="#FF3333" d="M169.468,118.551c0.581,4.158,0.201,8.211-1.537,12.074c-0.701,1.561-1.643,2.959-3.003,4.037
	c-2.362,1.877-5.252,1.748-7.438-0.336c-0.4-0.381-0.782-0.781-1.174-1.17c-0.27-0.541-0.395-1.121-0.467-1.717
	c-0.15-0.182-0.142-0.396-0.136-0.611c-0.283-1.051-0.415-2.127-0.519-3.207c-0.394-3.453-0.349-6.891,0.35-10.309
	c0.029-0.139,0.088-0.272,0.132-0.408l0,0c0.106,1.025,0.372,1.99,1.029,2.816c1.102,1.381,2.666,1.439,3.854,0.141
	c1.542-1.684,1.523-4.938-0.036-6.611c-1.05-1.127-2.249-1.19-3.454-0.188c-0.087,0.072-0.204,0.111-0.307,0.164
	c0.534-1.627,1.354-3.094,2.482-4.385c3.008-1.16,5.519-0.328,7.542,2.512C168.325,113.512,169.106,115.963,169.468,118.551z
	 M208.551,240.713c0,0.051,0,0.1,0,0.146c0,0.049,0,0.098,0,0.146c-3.875,2.156-7.635,4.488-11.049,7.338
	c-2.776,2.315-5.396,4.789-7.48,7.779c-2.18,3.127-3.704,6.557-4.801,10.201c-0.583,1.939-0.173,1.74-2.2,1.486
	c-3.325-0.412-6.656-0.537-9.987-0.043c-0.143,0.021-0.29,0.017-0.436,0.023c-0.354,2.453-1.1,4.805-1.892,7.139
	c-3.093,9.096-7.479,17.502-13.454,25.047c-3.127,3.949-6.619,7.535-10.905,10.256c-3.591,2.279-7.417,3.957-11.73,4.287
	c-0.05,0.002-0.095,0.082-0.144,0.127c-0.243,0-0.485,0-0.728,0c-0.679-0.232-1.358-0.238-2.037,0c-0.292,0-0.583,0-0.873,0
	c-0.624-0.35-1.337-0.275-2.005-0.422c-3.436-0.746-6.437-2.215-8.654-5.049c-1.653-2.111-2.16-4.613-2.434-7.184
	c-0.447-4.203,0.492-8.234,1.652-12.221c1.598-5.492,3.807-10.73,6.657-15.695c0.061-0.104,0.105-0.215,0.155-0.322
	c-2.774,0.018-5.51,0.361-8.215,0.977c-0.234,0.055-0.376,0.172-0.52,0.328c-1.288,3.186-3.447,5.693-6.087,7.826
	c-4.516,3.652-9.735,5.592-15.443,6.328c-5.852,0.756-11.604,0.238-17.039-2.063c-7.47-3.162-12.201-8.848-13.736-16.818
	c-1.003-5.201,0.368-9.99,4.091-13.947c-0.383-1.416-1.139-2.658-1.86-3.912c-2.874-4.996-6.613-9.301-10.751-13.279
	c-0.769-0.738-1.529-1.488-2.271-2.252c-0.327-0.336-0.302-0.359,0.052-0.469c0.095,0.186,0.279,0.232,0.452,0.299
	c0.107-0.051,0.211-0.102,0.315-0.152c7.855,1.285,14.559-1.73,21.025-5.625c0.702-0.424,1.372-0.902,2.058-1.354
	c2.217-1.844,2.406-4.215,1.748-6.793c-0.45-1.754-1.041-3.461-1.689-5.15c-1.921,0.332-3.817,0.203-5.673-0.375
	c-3.305-1.025-5.061-3.465-5.149-6.93c-0.048-1.84,0.416-3.543,1.09-5.217c1.805-4.488,4.515-8.328,8.199-11.471
	c-0.825-0.217-1.649-0.436-2.475-0.654c-2.438,1.184-4.928,2.234-7.523,3.039c-5.836,1.813-11.813,2.779-17.908,3.066
	c-5.334,0.252-10.459-0.643-15.347-2.822c-0.21-0.096-0.4-0.24-0.669-0.057c-1.96,1.354-4.21,1.936-6.512,2.305
	c-4.388,0.701-8.69,0.412-12.824-1.34c-5.392-2.283-8.778-6.441-10.912-11.752c-1.309-3.254-2.095-6.639-2.472-10.121
	c-0.017-0.154,0.057-0.354-0.162-0.436c0-0.291,0-0.582,0-0.873c0-0.293,0-0.582,0-0.875c0-1.164,0-2.326,0-3.492
	c0-0.436,0-0.873,0-1.309c0-0.1,0-0.195,0-0.291c0.365-1.074,0.349-2.213,0.562-3.314c0.931-4.834,2.61-9.363,5.397-13.443
	c0.285-0.418,0.185-0.787,0.123-1.168c-0.714-4.559-1.04-9.146-1.046-13.758c-0.011-9.025,1.192-17.893,4.043-26.459
	C14.18,94.625,21.615,80.51,31.844,67.973c7.33-8.986,16.088-16.438,25.619-23c3.575-2.461,7.273-4.725,11.041-6.873
	c-2.792-1.502-5.592-2.992-8.226-4.768c-1.225-0.824-2.424-1.688-3.626-2.545c-0.399-0.285-0.782-0.611-0.639-1.191
	c0.156-0.633,0.704-0.68,1.205-0.732c1.077-0.113,2.176,0.105,3.241-0.268c3.481-1.223,6.114-3.477,8.06-6.568
	c1.258-1.998,2.262-4.113,2.942-6.379c0.087-0.289,0.093-0.623,0.39-0.881c1.083,3.133,2.91,5.752,5.288,7.998
	c1.677,1.584,3.551,2.926,5.421,4.268c1.395,1,2.772,2.029,4.305,2.822c0.001,0,0.002,0,0.003,0c-0.001,0-0.002,0-0.003-0.002
	c2.898-0.707,5.849-1.121,8.807-1.455c4.073-0.461,8.162-0.684,12.262-0.574c5.17,0.139,10.292,0.676,15.315,1.967
	c2.854-4.379,5.046-9.074,6.693-14.029c1.702-5.115,2.439-10.385,2.493-15.762c0.098,0,0.193,0,0.291,0
	c1.984,3.773,4.792,6.547,9.124,7.418c2.472,0.496,4.863,0.127,7.191-0.781c0.381-0.148,0.77-0.316,1.17-0.373
	c0.913-0.133,1.502,0.438,1.432,1.358c-0.066,0.869-0.462,1.631-0.886,2.363c-2.578,4.449-5.507,8.67-8.486,12.859
	c-2.528,3.557-5.179,7.02-8.048,10.311v0.002c3.959,1.891,7.836,3.936,11.526,6.318c0.237,0.154,0.529,0.248,0.663,0.533
	c2.788,1.625,5.305,3.6,7.558,5.906c0.765,0.783,1.587,1.537,2.023,2.584l0.001,0.002c2.539,1.783,5.014,3.641,7.278,5.777
	c3.41,3.219,6.189,6.941,8.672,10.887c3.936,6.256,6.222,13.125,7.373,20.4c1.003,6.334,0.955,12.688,0.61,19.063
	c-0.275,5.105-0.639,10.201-1.071,15.295c-0.254,2.992-0.545,5.982-0.798,8.977c-0.206,2.43-0.135,4.84,0.613,7.191
	c0.08,0.248,0.124,0.518,0.318,0.717c-0.076,0.088-0.083,0.184-0.075,0.281c0.036,0.051,0.063,0.105,0.102,0.152
	c0.033-0.002,0.064-0.002,0.099,0c0.145,0.367-0.143,0.523-0.35,0.715c-3.678,3.377-7.21,6.896-10.559,10.602
	c-3.168,3.504-5.797,7.377-8.012,11.539c-0.43,0.258-0.646-0.197-0.969-0.291c-4.854-1.649-9.878-2.141-14.959-2.105
	c-5.221,0.035-10.384,0.719-15.523,1.588c-4.424,0.748-8.856,1.338-13.367,1.1c-15.271-0.807-25.666-11.107-28.925-22.785
	c-1.282-4.596-1.741-9.229-0.646-13.922c1.29-5.531,4.493-9.801,8.939-13.193c4.952-3.777,10.601-5.955,16.698-7.002
	c3.8-0.652,7.649-0.836,11.42,0.016c7.977,1.805,15.159,5.234,21.165,10.904c0.087,0.082,0.156,0.184,0.232,0.275
	c0.037,0.035,0.072,0.072,0.107,0.107c0.037,0.016,0.064,0.025,0.089,0.031c0.018-0.016,0.031-0.031,0.044-0.047
	c-0.036,0.008-0.079,0.014-0.132,0.016c0.289-1.279,0.548-2.563,0.873-3.832c1.553-6.063,3.5-11.975,6.934-17.277
	c2.836-4.377,6.455-7.914,11.353-9.924c2.97-1.219,6.009-1.627,9.081-0.215c2.439,1.123,3.972,3.098,5.206,5.373
	c0.23,0.424,0.417,0.869,0.624,1.307c0.053-0.1,0.105-0.199,0.157-0.299c0.041,0.053,0.066,0.107,0.086,0.164
	c0.024-0.053,0.043-0.109,0.057-0.17c0.042-0.289,0.037-0.58,0.002-0.869c-0.761-6.139-2.212-12.088-4.841-17.715
	c-0.113-0.242-0.207-0.494-0.454-0.641c-0.048-0.006-0.087-0.027-0.133-0.037c0.014,0.031,0.029,0.061,0.042,0.092
	c-0.381,0.414-0.615,0.01-0.827-0.189c-1.396-1.311-2.802-2.611-4.149-3.971c-2.722-2.744-6.037-4.25-9.829-4.703
	c-2.982-0.355-5.645,0.525-7.986,2.391c-0.299,0.24-0.58,0.5-0.944,0.814c-0.09-0.896,0.135-1.676,0.342-2.443
	c0.593-2.201,1.63-4.189,3.016-5.99c1.559-2.021,4.036-2.68,6.447-1.695c1.996,0.816,3.691,2.111,5.322,3.494
	c0.089,0.074,0.185,0.141,0.277,0.211l0.007,0.006l0.001-0.006c0.007-0.061,0.013-0.121,0.02-0.184
	c0.017,0.012,0.029,0.023,0.045,0.035c0.003-0.021,0.019-0.041,0.019-0.063c-0.053-0.279-0.248-0.473-0.423-0.668
	c-2.498-2.793-5.235-5.318-8.319-7.457c-0.316-0.221-0.647-0.275-1.032-0.226c-3.186,0.398-6.322,1.002-9.318,2.199
	c-3.566,1.424-6.873,3.27-9.568,6.068c-2.541,2.641-4.394,5.711-5.694,9.131c-0.563,1.477-0.979,2.996-1.392,4.516
	c-0.204,0.75-0.237,0.762-0.877,0.285c-0.117-0.086-0.23-0.174-0.349-0.26c-4.131-2.998-8.391-5.767-13.204-7.584
	c-4.381-1.652-8.927-2.498-13.59-2.467c-4.46,0.029-8.813,0.938-13.063,2.277c-5.876,1.852-11.299,4.621-16.357,8.117
	c-0.994,0.688-2.092,1.277-2.864,2.223c-1.212,1.482-2.301,3.063-3.326,4.684c-1.519,2.396-2.828,4.912-4.127,7.436
	c-1.767,3.43-3.311,6.959-4.746,10.537c-2.375,5.926-4.32,11.998-5.992,18.156c-0.359,1.324-0.947,2.621-0.844,4.037
	c0.131,1.762,0.229,3.529,0.474,5.279c0.806,5.746,2.284,11.295,4.774,16.568c2.119,4.486,4.787,8.605,8.154,12.238
	c4.461,4.811,9.529,8.877,15.243,12.143c6.936,3.965,14.328,6.621,22.188,8.004c0.873,0.154,0.897,0.166,0.381,0.893
	c-1.188,1.67-2.016,3.482-2.241,5.535c-0.153,1.398-0.154,2.807,0.007,4.205c0.065,0.568,0.026,1.174,0.397,1.674
	c0.1,0.068,0.193,0.146,0.299,0.201c4.253,2.195,7.919,5.15,11.216,8.596c0.643,0.67,1.173,1.465,2.006,1.943
	c0.188,0.26,0.474,0.215,0.732,0.215c2.448,0.008,4.896,0.002,7.345,0.006c0.579,0.002,1.008-0.223,1.382-0.666
	c0.562-0.668,1.165-1.309,1.847-1.852c5.095-4.059,10.866-5.906,17.365-5.016c3.045,0.418,6.003,1.229,8.204,3.643
	c0.262,0.289,0.592,0.377,0.988,0.328c1.84-0.232,3.617-0.68,5.325-1.412c0.396-0.17,0.684-0.426,0.926-0.777
	c1.399-2.025,3.153-3.67,5.308-4.873c2.273-1.27,4.732-1.895,7.316-1.852c0.897,0.016,1.647-0.148,2.411-0.551
	c2.144-1.131,4.029-2.609,5.752-4.287c2.776-2.703,5.027-5.824,7.1-9.086c2.475-3.896,4.446-8.004,5.52-12.514
	c0.916-3.844,0.659-7.545-1.267-11.068c-1.358-2.484-3.244-4.51-5.352-6.357c-1.325-1.166-2.772-2.16-4.241-3.127
	c1.797,0.771,3.349,1.928,4.86,3.139c2.389,1.916,4.382,4.158,5.773,6.916c1.832,3.631,1.829,7.408,0.934,11.254
	c-1.155,4.969-3.472,9.41-6.237,13.65c-1.913,2.93-4.025,5.693-6.512,8.16c2.718,2.363,5.154,4.98,7.173,7.975
	c4.667,6.924,6.83,14.545,6.352,22.889c-0.141,2.453-0.668,4.844-1.612,7.123c-1.545,3.729-4.377,6.137-7.995,7.727
	c-0.222,0.096-0.44,0.195-0.662,0.295c6.574,5.096,13.395,9.779,21.269,12.695C204.75,239.986,206.661,240.309,208.551,240.713z
	 M137.987,142.043c-0.682-5.354-2.453-10.297-5.514-14.754c-2.126-3.1-4.667-5.781-8.146-7.375
	c-2.835-1.299-5.798-1.822-8.802-0.641c-3.126,1.23-5.045,3.672-6.232,6.73c-1.488,3.83-1.617,7.791-1.033,11.805
	c0.928,6.377,3.481,11.967,8.135,16.502c2.327,2.268,5.007,3.965,8.173,4.822c0.108-0.027,0.217-0.057,0.323-0.084
	c2.622-0.285,5.219-0.744,7.823-1.158c0.148,0,0.299,0,0.45,0c2.05-1.354,3.323-3.27,4.077-5.576
	C138.344,148.951,138.431,145.521,137.987,142.043z M177.538,126.076c-0.038-0.213-0.097-0.426-0.11-0.641
	c-0.236-3.627-0.992-7.141-2.358-10.508c-1.271-3.137-2.969-5.992-5.72-8.086c-3.384-2.574-7.239-2.305-10.241,0.701
	c-1.921,1.922-3.051,4.293-3.815,6.846c-1.656,5.527-1.665,11.121-0.508,16.732c0.839,4.076,2.238,7.941,4.892,11.211
	c2.533,3.117,5.575,5.127,9.861,3.773c1.192-1.193,2.383-2.391,3.577-3.584c0.593-0.596,1.303-1.076,1.773-1.791
	c0.423-0.33,0.569-0.828,0.762-1.293c1.011-2.443,1.732-4.953,1.745-7.627C177.442,129.9,177.49,127.988,177.538,126.076z
	 M131.793,36.498c-0.357-0.033-0.577,0.014-0.831,0.238c-1.239,1.084-2.554,2.063-4.051,2.773c-0.256,0.121-0.421,0.279-0.126,0.535
	c1.015,0.033,2.028,0.063,3.04,0.106c4.769,0.199,9.406,1.101,13.939,2.572c3.675,1.19,7.149,2.822,10.5,4.729
	c0.176-0.23-0.079-0.295-0.175-0.391c-2.277-2.277-4.708-4.365-7.5-6c-1.819-1.064-3.684-2.102-5.676-2.738
	C137.956,37.379,134.899,36.781,131.793,36.498z M123.875,34.707c0.029,0.035,0.076,0.059,0.115,0.086
	c0.604,1.012,1.292,1.975,1.753,3.066c0.169,0.402,0.372,0.303,0.667,0.162c1.748-0.832,3.16-2.086,4.432-3.518
	c1.465-1.314,2.679-2.863,3.926-4.369c4.126-4.976,7.914-10.211,11.527-15.572c1.434-2.125,2.976-4.189,4.026-6.551
	c0.072-0.158,0.271-0.342,0.074-0.522c-0.149-0.135-0.319,0.006-0.472,0.066c-2.184,0.881-4.447,1.287-6.793,1.027
	c-3.262-0.361-6.013-1.717-8.129-4.283c-0.778-0.945-1.462-1.949-2.114-3.15c0,0.406-0.014,0.65,0.005,0.889
	c0.021,0.266,0.098,0.525,0.107,0.789c0.139,3.82-0.304,7.584-1.233,11.279c-1.616,6.426-4.356,12.354-8.031,17.857
	C122.793,33.375,122.795,33.377,123.875,34.707z M100.947,35.99c0.582,0.131,0.998,0.387,1.5,0.117
	c1.269-0.678,2.403-0.367,3.493,0.469c1.067,0.82,1.917,1.842,2.781,2.854c0.872,1.332,1.79,2.639,2.464,4.088
	c0.324,0.695,0.784,0.973,1.581,0.898c0.646-0.059,1.314-0.082,1.933-0.225c3.463-0.805,6.783-2.043,10.044-3.447
	c0.449-0.193,0.486-0.459,0.277-0.857c-0.349-0.664-0.624-1.371-1.023-2.002c-0.51-0.805-0.833-1.746-1.608-2.375
	c-0.519-0.951-1.242-1.717-2.097-2.371c-1.813-1.392-3.967-1.613-6.12-1.672c-3.289-0.09-6.446,0.564-9.404,2.043
	C103.439,34.176,102.168,34.943,100.947,35.99z M103.119,36.463c0.296,0.1,0.506,0.269,0.913,0.133
	C103.676,36.51,103.462,36.307,103.119,36.463z M75.656,39.799c5.042,2.094,10.241,3.668,15.591,4.742
	c0.316,0.266,0.704,0.082,1.051,0.168c1.93,0.479,3.911,0.549,5.877,0.676c2.101,0.135,4.199-0.059,6.273-0.422
	c1.569-0.275,3.123-0.619,4.604-1.238c0.267-0.111,0.431-0.184,0.242-0.504c-0.834-1.414-1.632-2.854-2.646-4.152
	c-0.228-0.291-0.456-0.643-0.916-0.643c-0.971-0.006-1.911-0.217-2.853-0.426c-0.096-0.008-0.195-0.004-0.289-0.023
	c-4.854-0.994-9.412-2.768-13.716-5.211c-3.4-1.932-6.538-4.232-9.581-6.678c-3.416-2.744-6.235-5.912-7.495-10.328
	c-0.082,0.191-0.143,0.297-0.17,0.408c-0.971,4.049-2.785,7.643-5.919,10.445c-1.819,1.629-3.877,2.885-6.358,3.307
	c-0.583,0.1-1.189-0.172-1.802,0.135c1.455,1.012,2.877,1.975,4.35,2.863C66.303,35.578,70.909,37.828,75.656,39.799z
	 M38.262,143.967c-0.018,1.891,0.096,3.777,0.203,5.662c0.144,2.557,0.36,5.107,0.546,7.662c1.728-0.135,3.45-0.348,5.189-0.189
	c1.273,0.117,1.274,0.109,1.229-1.09c-0.252-1.826-0.308-3.666-0.338-5.506c-0.129-8,0.656-15.922,2.19-23.764
	c2.472-12.627,6.056-24.914,11.364-36.662c2.952-6.531,6.403-12.756,10.955-18.34c6.504-7.977,14.165-14.646,22.679-20.379
	c2.249-1.516,4.59-2.879,6.866-4.346c-3.676-0.186-7.317-0.609-10.882-1.566c-0.373-0.102-0.713-0.053-1.04,0.156
	c-1.024,0.646-2.074,1.256-3.078,1.932c-5.88,3.949-11.105,8.646-15.855,13.891c-3.958,4.371-7.507,9.055-10.821,13.922
	c-4.552,6.684-8.529,13.682-11.645,21.158c-2.54,6.096-4.507,12.355-5.662,18.861c-0.558,3.143-0.866,6.316-1.186,9.488
	c-0.368,3.633-0.555,7.277-0.68,10.924C38.205,138.506,38.285,141.238,38.262,143.967z M53.836,172.484
	c-0.038-0.174-0.113-0.262-0.207-0.316c-0.296-0.166-0.587-0.348-0.9-0.471c-4.659-1.844-9.441-2.613-14.408-1.541
	c-1.347,0.291-2.684,0.658-3.849,1.443c-0.707,0.477-0.977,1.322-0.652,2.006c0.221-1.09,0.939-1.617,1.915-1.881
	c0.651-0.178,1.298-0.375,1.946-0.561c1.795-0.346,3.599-0.645,5.432-0.584c1.079,0.035,2.155,0.146,3.226,0.285
	c1.9,0.248,3.779,0.607,5.618,1.15C52.583,172.172,53.21,172.328,53.836,172.484z M78.162,217.133
	c-0.451-1.854-0.805-3.729-1.104-5.611c-0.945-5.961-1.142-11.885,1.01-17.672c-0.063-0.004-0.128-0.008-0.192-0.014
	c-0.318-0.008-0.548,0.148-0.74,0.385c-2.643,3.252-5.074,6.641-6.688,10.541c-0.828,2.006-1.612,4.029-1.319,6.277
	c0.23,1.764,0.811,3.318,2.39,4.346c1.406,0.914,2.981,1.344,4.608,1.592C76.795,217.08,77.469,217.289,78.162,217.133z
	 M180.737,228.031c-0.973-0.254-1.839,0.207-2.735,0.432c-0.388,0.096-0.791,0.236-1.03,0.615c-1.366,0.799-2.582,1.791-3.71,2.898
	c-0.656,0.82-1.158,1.723-1.46,2.734c-0.843,2.813,0.449,5.361,3.241,6.291c2.17,0.725,4.315,0.455,6.361-0.447
	c3.42-1.508,5.875-3.813,6.068-7.842c-0.997-0.67-2.003-1.324-2.988-2.01C183.227,229.826,181.985,228.924,180.737,228.031z
	 M154.799,201.529c-0.067,1.074-0.245,2.162,0.054,3.236c0.027,2.191,0.537,4.299,1.229,6.354c0.985,2.924,2.446,5.607,4.355,8.039
	c0.121,0.154,0.24,0.273-0.067,0.324c2.345,0.535,4.731,0.654,7.127,0.697c2.475-0.09,4.889-0.494,7.205-1.402
	c1.843-0.723,3.509-1.76,4.863-3.186c2.062-2.164,3.258-4.814,3.973-7.703c0.367-1.48,0.552-2.984,0.674-4.492
	c0.129-1.621,0.2-3.256,0.15-4.881c-0.058-1.9-0.272-3.795-0.418-5.693c-0.199-0.174-0.411-0.332-0.596-0.519
	c-1.955-1.994-4.045-3.82-6.503-5.18c-2.774-1.533-5.708-2.334-8.91-1.867c-5.016,0.729-8.628,3.461-11.015,7.842
	C155.498,195.709,154.979,198.59,154.799,201.529z M164.788,224.986c-0.018-0.406-0.406-0.445-0.644-0.609
	c-2.031-1.391-3.847-3.002-5.234-5.057c-1.014-1.254-1.705-2.709-2.549-4.066c-0.388,0.172-0.502,0.566-0.694,0.889
	c-1.452,2.422-2.986,4.789-4.686,7.049c-0.707,0.951-1.391,1.92-2.069,2.891c-2.243,3.205-4.847,6.092-7.797,8.664
	c-2.545,2.219-5.37,4.047-8.19,5.879c-2.64,1.957-5.471,3.602-8.367,5.145c-0.327,0.174-0.747,0.242-0.9,0.662
	c0.24,0.18,0.518,0.104,0.772,0.082c3.15-0.264,6.294-0.598,9.404-1.172c2.864-0.531,5.722-1.113,8.504-2
	c0.857-0.334,1.646-0.805,2.426-1.281c6.896-4.215,13.049-9.348,18.578-15.227C163.869,226.271,164.544,225.787,164.788,224.986z
	 M161.149,247.723c-1.499-0.883-3.148-1.201-5.073-1.193c-1.192-0.031-2.556,0.188-3.875,0.605
	c-3.108,0.984-5.808,2.566-7.436,5.527c-1.587,2.885-0.657,5.91,2.216,7.4c0.493,0.258,1.008,0.469,1.552,0.603
	c3.926,0.979,7.53,0.121,10.887-1.978c1.734-1.086,3.137-2.506,3.921-4.445C164.38,251.67,163.533,249.127,161.149,247.723z
	 M151.187,194.408c1.18,1.666,1.886,3.432,2.55,5.223c0.417-2.127,0.884-4.195,1.8-6.264
	C154.062,193.893,152.703,194.201,151.187,194.408z M120.936,199.24c-0.286,2.232-0.61,4.447-0.479,6.723
	c0.084,1.467,0.186,2.918,0.488,4.352c0.851,4.029,2.681,7.547,5.909,10.141c4.241,3.41,9.116,5.105,14.621,4.844
	c2.728-0.131,5.256-0.936,7.709-2.059c0.632-1.168,1.377-2.279,1.868-3.522c1.912-4.846,2.699-9.838,2.064-15.039
	c-0.363-2.983-1.085-5.844-2.558-8.477c-1.248-2.236-3.041-3.814-5.497-4.691c-3.585-1.281-7.219-1.49-10.908-0.697
	c-4.076,0.879-7.727,2.619-10.666,5.66C122.615,197.375,121.784,198.318,120.936,199.24z M113.955,197.982
	c1.118,1.473,2.237,2.945,3.356,4.418c1.105-1.479,2.212-2.957,3.318-4.438C118.403,197.971,116.179,197.977,113.955,197.982z
	 M105.869,255.057c0.385,1.563,1.423,2.668,2.735,3.527c1.66,1.086,3.516,1.604,5.477,1.715c3.015,0.168,5.834-0.42,8.201-2.43
	c2.496-2.117,2.616-5.324,0.323-7.654c-0.883-0.895-1.954-1.49-3.103-1.963c-1.283-0.234-2.586-0.104-3.88-0.213
	c-1.233-0.102-2.465-0.418-3.719-0.217c-1.629,0.383-3.122,1.053-4.351,2.203C106.096,251.391,105.372,253.043,105.869,255.057z
	 M71.164,243.77c0.507,1.1,1.279,2.037,1.904,3.064c1.07,1.758,1.87,3.646,2.754,5.496c0.873,0.609,1.76,1.195,2.73,1.648
	c1.951,0.908,3.99,1.395,6.136,1.1c4.007-0.551,6.028-3.811,4.885-7.77c-0.589-2.035-1.806-3.67-3.264-5.156
	c-0.107-0.311-0.33-0.539-0.576-0.734c-2.841-2.246-5.975-3.553-9.688-3.07c-2.459,0.32-4.578,2.281-4.966,4.652
	C71.035,243.27,70.987,243.529,71.164,243.77z M73.462,275.102c0.365-3.395,1.461-6.49,3.358-9.316
	c-1.008,0.084-2.017,0.174-3.025,0.254c-1.454,0.117-1.438,0.109-1.762-1.314c-0.626-2.75-1.379-5.463-2.59-8.027
	c-1.17,1.596-2.055,3.334-2.621,5.234c-1.061,3.553-1.064,7.07,0.206,10.596c1.044,2.893,2.622,5.441,4.639,7.732
	c0.858,0.975,1.812,1.859,2.993,2.668c-0.081-0.277-0.115-0.438-0.174-0.588C73.573,280.008,73.192,277.621,73.462,275.102z
	 M158.185,296.332c-12.587,4.74-28.989,1.127-36.453-10.293c-0.081,0.229-0.153,0.424-0.219,0.621
	c-0.896,2.662-1.564,5.381-2.051,8.145c-0.503,2.857-0.629,5.711-0.128,8.584c0.587,3.369,2.227,5.977,5.278,7.652
	c3.475,1.908,7.192,2.377,11.037,1.805c4.176-0.621,7.861-2.463,11.279-4.891c3.004-2.135,5.583-4.721,8-7.471
	C156.06,299.197,157.142,297.859,158.185,296.332z M206.95,240.885c-2.594-0.09-5.053-0.781-7.441-1.738
	c-0.526-0.211-0.935-0.201-1.413,0.105c-0.893,0.574-1.844,1.063-2.737,1.637c-5.172,3.314-9.523,7.424-12.464,12.902
	c-0.938,1.748-1.629,3.6-2.424,5.41c-0.52,0.398-1.124,0.254-1.685,0.207c-4.063-0.334-8.075-0.022-12.062,0.801
	c-6.65,1.371-12.078,4.719-16.3,10.029c-0.356,0.447-0.673,0.414-1.111,0.135c-1.905-1.207-3.887-2.271-5.959-3.172
	c-5.536-2.404-11.289-3.611-17.335-3.084c-3.97,0.346-7.765,1.393-11.37,3.102c-1.423,0.676-2.796,1.449-4.207,2.147
	c-0.385,0.188-0.65-0.072-0.913-0.27c-1.477-1.1-2.989-2.147-4.553-3.121c-4.533-2.83-9.358-4.982-14.549-6.273
	c-3.897-0.973-7.862-1.379-11.876-1.273c-0.688,0.018-1.297-0.027-1.683-0.688c-0.062-0.156-0.13-0.311-0.184-0.469
	c-0.754-2.221-1.521-4.434-2.618-6.514c-0.012-0.047-0.016-0.096-0.036-0.139c-2.333-4.699-5.449-8.863-8.81-12.859
	c-0.227-0.269-0.464-0.307-0.768-0.246c-2.865,0.561-5.722,0.598-8.566-0.139c2.696,2.014,5.215,4.213,7.439,6.752
	c2.302,2.625,4.327,5.43,5.943,8.525c1.95,4.023,3.401,8.18,3.367,12.727c-0.002,0.365,0.134,0.391,0.441,0.287
	c3.791-1.256,7.686-1.428,11.632-1.119c5.821,0.455,11.158,2.352,16.071,5.449c3.344,2.107,6.345,4.621,8.732,7.807
	c0.159,0.213,0.26,0.381,0.518,0.049c0.954-1.232,2.222-2.078,3.589-2.785c3.737-1.93,7.79-2.635,11.916-2.867
	c4.436-0.25,8.866-0.111,13.217,0.967c4.516,1.117,8.698,2.84,11.819,6.5c0.031-0.021,0.083-0.043,0.108-0.08
	c2.541-3.668,5.822-6.541,9.598-8.865c4.302-2.648,8.95-4.273,14.023-4.522c3.313-0.164,6.586,0.098,9.721,1.303
	c0.347,0.135,0.421,0.008,0.443-0.295c0.033-0.457,0.051-0.92,0.126-1.373c0.928-5.541,3.373-10.342,7.233-14.391
	c4.196-4.398,9.075-7.852,14.727-10.17C206.691,241.215,207.131,241.322,206.95,240.885z M128.348,134.752
	c0.431,3.25,0.159,6.434-1.294,9.426c-1.322,2.727-3.305,4.666-6.486,4.924c-2.356,0.189-4.343-0.771-6.092-2.26
	c-2.413-2.051-3.889-4.711-4.882-7.672c-0.068-0.205-0.13-0.414-0.196-0.619c-0.074-0.268-0.065-0.561-0.245-0.797
	c-0.55-3.443-0.467-6.854,0.584-10.201c0.533-1.697,1.273-3.293,2.474-4.639c0.342-0.266,0.683-0.527,1.024-0.793
	c3.599-2.184,7.293-0.879,9.862,1.588C126.238,126.723,127.786,130.518,128.348,134.752z M114.213,126.197
	c-1.795-0.795-3.798,0.133-4.326,2.014c-0.157,0.557-0.298,1.121-0.404,1.689c-0.419,2.225,1.615,4.725,3.83,4.723
	c0.867,0.006,1.603-0.322,2.22-0.918C117.71,131.617,116.969,127.418,114.213,126.197z M162.763,176.605
	c0.801-0.828,1.353-1.816,1.857-2.834c1.405,1.395,4.321,2.047,5.385,1.162c-2.005,0.037-3.892-0.154-5.068-2.051
	c0.64-2.156,0.817-4.32,0.148-6.508c1.098-3.443,2.802-6.615,4.547-9.77c-0.053-0.025-0.105-0.053-0.159-0.078
	c-0.142,0.191-0.282,0.385-0.424,0.576c-1.863,2.537-3.207,5.346-4.317,8.275c-2.202-3.109-4.968-3.17-7.391-0.164
	c-0.645,0.799-1.091,1.707-1.492,2.645c-1.55-2.809-4.097-4.389-6.915-5.643c2.787,1.67,5.259,3.633,6.525,6.764
	c-0.41,1.939-0.508,3.877,0.009,5.814c-1.59,2.811-3.765,5.143-6.075,7.375c0.763-0.309,1.354-0.834,1.952-1.348
	c1.765-1.508,3.184-3.313,4.464-5.234l-0.001-0.002h0.001C157.296,178.83,160.499,178.945,162.763,176.605z M94.456,79.26
	c0.89-0.188,1.804-0.258,2.827-0.398c-1.686-2.281-3.497-4.279-5.847-5.707c-2.709-1.646-5.378-1.506-7.923,0.406
	c-2.386,1.793-3.921,4.205-4.888,6.979c-2.289,6.568-2.652,13.309-1.6,20.143c0.203,1.326,0.491,2.664,1.345,3.818
	c0.289-0.326,0.332-0.686,0.373-1.041c0.178-1.516,0.404-3.024,0.729-4.516c0.983-4.523,2.432-8.869,5.076-12.729
	C86.981,82.668,90.169,80.164,94.456,79.26z"/>
</svg>
