<?xml version="1.0" encoding="iso-8859-1"?>
<!-- Generator: Adobe Illustrator 17.0.0, SVG Export Plug-In . SVG Version: 6.00 Build 0)  -->
<!DOCTYPE svg PUBLIC "-//W3C//DTD SVG 1.1//EN" "http://www.w3.org/Graphics/SVG/1.1/DTD/svg11.dtd">
<svg version="1.1" id="Layer_1" xmlns="http://www.w3.org/2000/svg" xmlns:xlink="http://www.w3.org/1999/xlink" x="0px" y="0px"
	 width="155.988px" height="93.439px" viewBox="0 0 155.988 93.439" style="enable-background:new 0 0 155.988 93.439;"
	 xml:space="preserve">
<path style="fill:#D6982B;" d="M79.336,15.044c0.256-0.688,0.659-1.503,1.283-2.342c0.625-0.834,1.472-1.696,2.575-2.409
	c1.098-0.714,2.445-1.286,3.96-1.531c0.756-0.126,1.55-0.16,2.357-0.11l0.304,0.022l0.305,0.035c0.204,0.018,0.406,0.058,0.61,0.093
	l0.152,0.027l0.188,0.047l0.276,0.068l0.277,0.069c0.049,0.014,0.088,0.02,0.145,0.04L91.93,9.11
	c0.215,0.079,0.432,0.158,0.649,0.237c0.207,0.088,0.399,0.188,0.599,0.284c0.098,0.052,0.2,0.095,0.295,0.152l0.283,0.176
	l0.284,0.177l0.142,0.09l0.134,0.102c0.738,0.516,1.379,1.18,1.929,1.912c0.553,0.733,0.99,1.568,1.281,2.454
	c0.295,0.883,0.471,1.818,0.469,2.758c0.002,0.118,0.011,0.234,0.002,0.353l-0.026,0.351c-0.023,0.232-0.025,0.47-0.075,0.697
	l-0.125,0.69l-0.004,0.021l-0.02,0.074l-0.01,0.038l-0.021,0.072l-0.042,0.146l-0.084,0.294c-0.011,0.045-0.036,0.109-0.058,0.17
	l-0.07,0.181L97.318,20.9c-0.045,0.126-0.106,0.221-0.161,0.331l-0.169,0.317c-0.053,0.108-0.122,0.205-0.188,0.306l-0.199,0.298
	c-0.062,0.101-0.139,0.192-0.214,0.285l-0.226,0.276c-1.237,1.446-3.02,2.324-4.795,2.494l-0.332,0.032
	c-0.111,0.003-0.222,0.002-0.331,0.003c-0.222,0-0.441,0.006-0.657-0.023l-0.325-0.032l-0.162-0.017L89.4,25.139l-0.314-0.065
	l-0.157-0.033l-0.078-0.018l-0.019-0.004c0.003,0.002-0.102-0.026-0.064-0.017l-0.033-0.012l-0.263-0.084l-0.131-0.043
	c-0.023-0.008-0.041-0.013-0.066-0.022l-0.082-0.032c-0.107-0.046-0.215-0.091-0.322-0.136c-0.108-0.045-0.213-0.092-0.302-0.146
	c-0.377-0.199-0.732-0.429-1.045-0.699c-0.63-0.532-1.127-1.174-1.466-1.858c-0.339-0.684-0.531-1.401-0.584-2.095
	c-0.05-0.696,0.02-1.362,0.191-1.959l0.007-0.028l0.003-0.015c0.015-0.06,0.006-0.022,0.012-0.04l0.018-0.049l0.035-0.098
	c0.023-0.065,0.047-0.131,0.07-0.194c0.053-0.138,0.129-0.293,0.193-0.433c0.07-0.139,0.149-0.257,0.223-0.382
	c0.075-0.123,0.168-0.233,0.249-0.344c0.35-0.433,0.748-0.766,1.148-1.006c0.199-0.126,0.404-0.217,0.596-0.304
	c0.201-0.071,0.387-0.146,0.575-0.183c0.74-0.184,1.335-0.121,1.716-0.05c0.194,0.025,0.335,0.083,0.431,0.108
	c0.096,0.027,0.145,0.044,0.145,0.044s-0.051-0.003-0.151-0.01c-0.099-0.003-0.245-0.02-0.435-0.008
	c-0.376,0.003-0.935,0.078-1.553,0.358c-0.617,0.269-1.282,0.793-1.729,1.563c-0.05,0.099-0.109,0.194-0.154,0.3
	c-0.042,0.104-0.094,0.21-0.128,0.315c-0.029,0.108-0.063,0.197-0.093,0.32c-0.015,0.066-0.028,0.134-0.042,0.201l-0.021,0.101
	l-0.011,0.051c0.002-0.008-0.009,0.037,0.005-0.014l-0.001,0.012l-0.002,0.023c-0.069,0.494-0.06,1.018,0.047,1.539
	c0.202,1.04,0.827,2.077,1.787,2.74c0.237,0.168,0.496,0.308,0.766,0.425c0.068,0.036,0.13,0.055,0.193,0.075l0.185,0.064
	l0.046,0.017c0.018,0.007,0.044,0.012,0.064,0.017l0.134,0.032l0.269,0.065l0.016,0.004c-0.005-0.001-0.016-0.004-0.013-0.004
	l0.015,0.001l0.059,0.008l0.117,0.015l0.234,0.03l0.117,0.018l0.119,0.003l0.237,0.009c0.158,0.015,0.317,0,0.476-0.011l0.238-0.016
	l0.237-0.038c0.631-0.106,1.254-0.316,1.823-0.639c0.566-0.325,1.08-0.755,1.5-1.264l0.151-0.197
	c0.051-0.065,0.104-0.129,0.145-0.201l0.131-0.211c0.043-0.069,0.092-0.138,0.125-0.215l0.11-0.222
	c0.033-0.073,0.082-0.151,0.103-0.218l0.08-0.206l0.042-0.102c0.015-0.034,0.03-0.064,0.043-0.12l0.146-0.53l0.088-0.516
	c0.039-0.172,0.033-0.347,0.05-0.521l0.019-0.26c0.008-0.087-0.004-0.174-0.004-0.261c0.011-0.697-0.116-1.394-0.33-2.053
	c-0.055-0.165-0.101-0.333-0.178-0.489c-0.071-0.158-0.131-0.322-0.208-0.477l-0.248-0.457c-0.084-0.152-0.191-0.289-0.284-0.434
	c-0.05-0.071-0.092-0.146-0.148-0.213l-0.165-0.199c-0.111-0.131-0.212-0.271-0.338-0.388c-0.121-0.122-0.241-0.244-0.361-0.365
	c-0.131-0.11-0.261-0.219-0.392-0.328l-0.097-0.083l-0.105-0.071l-0.21-0.144l-0.209-0.144c-0.07-0.047-0.147-0.082-0.22-0.124
	c-0.148-0.077-0.295-0.167-0.44-0.24c-0.142-0.062-0.283-0.123-0.424-0.189l-0.105-0.049c-0.031-0.016-0.088-0.027-0.13-0.044
	l-0.28-0.073l-0.271-0.085l-0.068-0.021l-0.034-0.012l-0.006-0.002l-0.102-0.024c-0.165-0.038-0.329-0.08-0.495-0.107L89.57,10.6
	l-0.248-0.036c-0.661-0.095-1.318-0.106-1.957-0.063c-1.28,0.093-2.476,0.455-3.502,0.961c-1.032,0.502-1.886,1.161-2.566,1.828
	c-0.344,0.332-0.628,0.681-0.891,1.005c-0.123,0.169-0.25,0.327-0.353,0.489c-0.053,0.08-0.106,0.159-0.157,0.234
	c-0.049,0.079-0.096,0.156-0.141,0.23c-0.361,0.602-0.598,1.11-0.742,1.463c-0.139,0.36-0.213,0.551-0.213,0.551
	s0.007-0.05,0.021-0.15c0.016-0.098,0.028-0.245,0.065-0.435C78.959,16.296,79.075,15.733,79.336,15.044z M70.875,5.402
	c0.018,0.06,0.039,0.119,0.059,0.179c0.04,0.119,0.078,0.239,0.133,0.349l0.076,0.168l0.039,0.083l0.046,0.08l0.092,0.156
	l0.047,0.077l0.023,0.04l0.004,0.01c-0.001-0.001,0.033,0.05,0.021,0.032l0.012,0.016l0.093,0.125l0.047,0.062
	c0.008,0.011,0.014,0.019,0.024,0.032l0.033,0.038l0.131,0.147c0.044,0.05,0.088,0.098,0.133,0.136
	c0.175,0.166,0.363,0.315,0.565,0.434c0.401,0.241,0.835,0.389,1.263,0.447c0.429,0.058,0.849,0.03,1.231-0.068
	c0.381-0.1,0.726-0.259,1.015-0.459l0.014-0.009l0.007-0.005c0.03-0.02,0.012-0.008,0.02-0.014l0.023-0.018l0.047-0.038
	c0.03-0.023,0.061-0.048,0.091-0.072c0.063-0.054,0.133-0.122,0.196-0.183c0.061-0.062,0.111-0.126,0.165-0.188
	c0.052-0.063,0.094-0.132,0.139-0.196c0.169-0.267,0.275-0.541,0.331-0.8c0.031-0.129,0.042-0.255,0.054-0.374
	c0.002-0.121,0.008-0.236-0.006-0.342c-0.036-0.432-0.179-0.739-0.287-0.931c-0.05-0.099-0.106-0.163-0.137-0.21
	c-0.032-0.047-0.049-0.07-0.049-0.07s0.011,0.027,0.032,0.079c0.02,0.053,0.056,0.127,0.084,0.231c0.067,0.203,0.128,0.516,0.09,0.9
	c-0.032,0.379-0.191,0.831-0.522,1.212c-0.045,0.044-0.085,0.093-0.133,0.137c-0.048,0.04-0.096,0.088-0.146,0.125
	c-0.052,0.036-0.094,0.07-0.154,0.109c-0.034,0.02-0.067,0.039-0.101,0.06l-0.051,0.029l-0.025,0.016
	c0.005-0.004-0.018,0.011,0.007-0.006l-0.006,0.003l-0.012,0.005c-0.252,0.128-0.535,0.219-0.834,0.256
	c-0.595,0.081-1.265-0.065-1.795-0.459c-0.133-0.097-0.255-0.21-0.367-0.333c-0.032-0.029-0.053-0.061-0.075-0.09l-0.069-0.088
	l-0.018-0.021c-0.007-0.008-0.014-0.021-0.021-0.032l-0.042-0.065l-0.083-0.132l-0.01-0.016c-0.015-0.024,0.014,0.022,0.01,0.014
	l-0.003-0.007l-0.015-0.03l-0.029-0.061l-0.06-0.119l-0.03-0.061L72.168,5.63L72.12,5.504c-0.038-0.081-0.058-0.17-0.081-0.257
	l-0.036-0.131l-0.022-0.135c-0.059-0.357-0.06-0.73,0.011-1.093c0.071-0.364,0.207-0.717,0.404-1.034l0.078-0.117
	c0.024-0.039,0.049-0.079,0.081-0.114l0.088-0.109c0.031-0.036,0.058-0.074,0.093-0.105l0.099-0.1
	c0.034-0.031,0.066-0.072,0.099-0.096l0.096-0.08l0.046-0.04c0.016-0.015,0.029-0.028,0.056-0.045l0.258-0.175l0.261-0.141
	c0.084-0.053,0.18-0.083,0.27-0.123l0.136-0.057c0.046-0.021,0.095-0.03,0.141-0.046c0.372-0.132,0.768-0.19,1.161-0.196
	c0.098,0,0.197-0.006,0.295,0.007c0.098,0.009,0.196,0.012,0.294,0.025c0.097,0.017,0.193,0.034,0.29,0.05
	c0.097,0.016,0.189,0.051,0.284,0.073c0.047,0.015,0.095,0.023,0.141,0.04l0.136,0.053c0.091,0.036,0.184,0.064,0.27,0.11
	c0.088,0.043,0.175,0.085,0.262,0.127c0.082,0.05,0.165,0.101,0.247,0.15l0.062,0.038l0.058,0.042l0.115,0.087l0.115,0.085
	c0.038,0.03,0.071,0.065,0.106,0.096c0.069,0.065,0.145,0.128,0.21,0.192c0.058,0.064,0.117,0.128,0.178,0.193l0.045,0.047
	c0.016,0.014,0.032,0.042,0.048,0.062l0.095,0.132l0.094,0.129l0.024,0.033l0.012,0.016l0.005,0.008
	c0.001,0.001-0.002-0.003-0.002-0.003l0.03,0.047c0.05,0.082,0.103,0.163,0.148,0.246l0.071,0.124l0.064,0.127
	c0.171,0.337,0.297,0.687,0.391,1.038c0.184,0.704,0.207,1.41,0.123,2.054c-0.082,0.645-0.279,1.223-0.513,1.709
	c-0.115,0.244-0.251,0.46-0.377,0.66c-0.068,0.096-0.129,0.193-0.198,0.278c-0.033,0.044-0.065,0.086-0.097,0.127
	c-0.033,0.041-0.065,0.08-0.097,0.118c-0.257,0.303-0.487,0.522-0.65,0.664c-0.167,0.14-0.256,0.215-0.256,0.215
	s0.025-0.013,0.076-0.039c0.05-0.027,0.127-0.06,0.222-0.115c0.192-0.108,0.472-0.273,0.794-0.538
	c0.322-0.263,0.686-0.628,1.022-1.115c0.334-0.487,0.642-1.097,0.824-1.819c0.183-0.718,0.244-1.546,0.1-2.402
	c-0.07-0.429-0.196-0.86-0.37-1.285l-0.066-0.158L79.91,2.881c-0.048-0.106-0.106-0.206-0.162-0.31l-0.042-0.077l-0.06-0.092
	l-0.087-0.136L79.471,2.13c-0.016-0.023-0.026-0.044-0.047-0.07l-0.06-0.076c-0.082-0.102-0.163-0.202-0.246-0.305
	c-0.084-0.095-0.173-0.18-0.261-0.269c-0.046-0.044-0.088-0.091-0.136-0.132l-0.146-0.12l-0.147-0.12l-0.074-0.059l-0.079-0.053
	c-0.411-0.302-0.883-0.525-1.377-0.687C76.404,0.076,75.877-0.006,75.349,0c-0.528,0.002-1.061,0.078-1.565,0.254
	c-0.063,0.019-0.128,0.035-0.189,0.062l-0.183,0.078c-0.121,0.054-0.247,0.099-0.36,0.168l-0.348,0.192L72.693,0.76l-0.037,0.024
	l-0.018,0.012l-0.036,0.025L72.531,0.87l-0.142,0.099c-0.022,0.013-0.052,0.038-0.08,0.062L72.224,1.1l-0.167,0.143
	C71.998,1.29,71.959,1.34,71.91,1.389l-0.14,0.149c-0.047,0.047-0.087,0.102-0.129,0.155l-0.124,0.161
	c-0.043,0.052-0.078,0.11-0.114,0.167l-0.107,0.171c-0.549,0.926-0.696,2.043-0.464,3.026L70.875,5.402z M154.503,78.04
	c-0.996-0.896-2.379-1.286-3.701-1.129c-0.8,0.097-1.571,0.4-2.197,0.886c-0.818,0.505-1.484,1.273-1.858,2.237
	c-0.485,1.256-0.38,2.596,0.186,3.706c-0.023-0.043-0.482-0.026-0.531-0.027c-0.685-0.043-1.33-0.308-1.951-0.585
	c-0.115-0.049-0.227-0.097-0.336-0.148c1.253-0.635,2.182-1.501,2.182-1.501s-1.412,0.114-3.986-0.41
	c-0.591-0.123-1.232-0.193-1.864-0.231c-0.059-0.037-0.117-0.081-0.174-0.121c-0.309-0.217-0.63-0.428-0.921-0.669
	c-0.207-0.17-0.457-0.327-0.482-0.555c0.629,0.057,1.255,0.025,1.839-0.085c2.254-0.416,4.336-2.505,4.336-2.505
	s-1.547,0.181-4.395-0.285c-1.685-0.274-3.69-0.174-5.051-0.048c-0.211-0.275-0.349-0.624-0.454-0.962
	c0.423,0.142,0.848,0.255,1.27,0.329c2.707,0.479,5.871-0.812,5.871-0.812s-1.096-0.265-2.998-1.132
	c-0.322-0.21-0.676-0.41-1.059-0.595c-0.227-0.11-0.462-0.208-0.701-0.302c-0.049-0.019-0.099-0.032-0.147-0.048
	c-1.252-0.66-2.741-1.198-4.061-1.602c-0.041-0.116-0.083-0.233-0.124-0.351c-0.12-0.353-0.231-0.706-0.345-1.061
	c0.172,0.081,0.357,0.161,0.527,0.23c0.492,0.283,0.999,0.52,1.511,0.699c2.594,0.906,5.929,0.143,5.929,0.143
	s-1.073-0.452-2.868-1.663c-0.161-0.142-0.346-0.297-0.552-0.45c-0.261-0.194-0.554-0.384-0.866-0.562
	c-0.054-0.041-0.108-0.08-0.164-0.124c-1.467-1.115-3.376-2.094-4.837-2.764c-0.034-0.13-0.069-0.261-0.104-0.394
	c-0.087-0.321-0.167-0.655-0.251-0.978c-0.078-0.32-0.158-0.643-0.24-0.958c0.1,0.082,0.199,0.167,0.301,0.244
	c0.149,0.114,0.311,0.216,0.467,0.319c0.311,0.204,0.643,0.381,0.971,0.54c0.334,0.153,0.669,0.288,1,0.386
	c2.595,0.909,5.925,0.144,5.925,0.144s-1.719-0.719-4.448-2.797c-1.662-1.266-3.52-2.188-5.018-2.849
	c-0.28-0.121-0.611-1.222-0.706-1.493c-0.207-0.575-0.561-1.302-0.879-1.824c-2.969-4.848-5.615-6.443-9.163-7.9
	c-2.005-0.819-3.711-0.846-5.704-0.741c-0.424-0.018-0.85-0.021-1.276,0.003c-1.369,0.076-2.734,0.332-3.979,0.813
	c-0.504,0.182-0.995,0.4-1.454,0.679c-0.243,0.146-0.471,0.315-0.692,0.493c-1.059,0.792-1.916,1.844-2.444,3.209
	c-0.038,0.098-0.08,0.19-0.11,0.291c-0.033,0.1-0.06,0.204-0.094,0.307c-0.005,0.015-0.007,0.03-0.012,0.046
	c-0.297-0.459-0.629-0.896-0.992-1.301c-0.596-0.666-1.272-1.254-2.008-1.756c-0.642-0.44-1.334-0.811-2.06-1.084
	c-0.664-0.254-1.362-0.428-2.072-0.494c-0.728-0.066-1.467-0.016-2.173,0.159c-0.821,0.199-1.594,0.56-2.287,1.032
	c-0.85,0.577-1.587,1.312-2.21,2.125c-0.737,0.958-1.326,2.028-1.783,3.147c-0.485,1.191-0.822,2.447-1,3.721
	c-0.054,0.384-0.092,0.773-0.115,1.16c-0.049,0.821-0.023,1.648,0.091,2.46c0.146,1.041,0.443,2.054,0.911,2.996
	c0.416,0.831,0.962,1.586,1.57,2.29c0.132,0.153,0.267,0.304,0.403,0.452c-0.093,0.013-0.185,0.025-0.278,0.045
	c-0.156,0.037-0.316,0.093-0.47,0.145l-0.059,0.02c-0.018,0.008-0.031,0.015-0.046,0.025l-0.084,0.038l-0.172,0.085l-0.088,0.039
	l-0.021,0.01c-0.072,0.021-0.022,0.01-0.047,0.019l-0.014,0.007l-0.054,0.027c-0.071,0.036-0.141,0.067-0.213,0.105
	c-0.28,0.146-0.544,0.328-0.771,0.545c-0.229,0.217-0.416,0.467-0.557,0.714c-0.138,0.256-0.239,0.507-0.299,0.75
	c-0.061,0.244-0.095,0.472-0.112,0.682c-0.013,0.206-0.005,0.398,0.003,0.562c0.013,0.165,0.033,0.306,0.055,0.423
	c0.022,0.115,0.045,0.204,0.06,0.265c0.017,0.062,0.027,0.096,0.027,0.096c0.008,0.033,0.041,0.062,0.08,0.068
	c0.052,0.007,0.103-0.031,0.111-0.091c0,0-0.001-0.007,0.002-0.021c0.002-0.014,0.005-0.036,0.01-0.065
	c0.01-0.058,0.025-0.143,0.048-0.248c0.027-0.104,0.059-0.232,0.102-0.375c0.043-0.142,0.105-0.294,0.176-0.455
	c0.074-0.161,0.161-0.324,0.268-0.483c0.109-0.157,0.229-0.304,0.377-0.435c0.06-0.06,0.128-0.111,0.198-0.159
	c0.348-0.174,0.716-0.279,1.113-0.266c0.619,0.018,1.215,0.246,1.796,0.44c0.359,0.12,0.804,0.323,1.189,0.211
	c-0.681,0.587-0.83,1.41-0.714,2.29c0.08,0.608,0.272,1.213,0.55,1.761c0.133,0.261,0.295,0.56,0.53,0.742
	c0.01,0.006,0.017,0.012,0.029,0.019c0.026,0.035,0.051,0.062,0.07,0.085c0.035,0.042,0.055,0.06,0.055,0.06
	c0.022,0.027,0.059,0.042,0.093,0.031c0.053-0.011,0.086-0.063,0.075-0.123c0,0-0.008-0.027-0.017-0.073
	c-0.009-0.042-0.024-0.103-0.038-0.178c0.051-0.474,0.107-0.948,0.228-1.409c0.125-0.463,0.319-0.926,0.667-1.27
	c0.341-0.343,0.8-0.528,1.268-0.62c0.589-0.106,1.194-0.093,1.788-0.046c0.684,0.053,1.362,0.146,2.046,0.222
	c0.683,0.081,1.369,0.146,2.057,0.164c0.666,0.016,1.333-0.011,1.994-0.094c0.667-0.082,1.33-0.207,1.987-0.365
	c0.702-0.168,1.401-0.362,2.094-0.573c0.753-0.235,1.499-0.489,2.231-0.777c0.78-0.307,1.542-0.659,2.267-1.076
	c0.757-0.439,1.468-0.958,2.104-1.56c0.667-0.638,1.245-1.363,1.723-2.152c0.501-0.836,0.892-1.737,1.177-2.667
	c0.29-0.949,0.479-1.931,0.562-2.92c0.083-0.927,0.072-1.863-0.045-2.789c-0.104-0.799-0.287-1.59-0.59-2.34
	c-0.249-0.619-0.583-1.205-1.018-1.716c-0.373-0.44-0.82-0.819-1.316-1.126c-0.469-0.29-0.972-0.515-1.484-0.713
	c-0.248-0.096-0.496-0.183-0.741-0.274c0.719,0.018,1.44,0.036,2.151,0.13c0.735,0.104,1.458,0.298,2.122,0.63
	c0.755,0.38,1.426,0.915,2.013,1.522c0.629,0.656,1.176,1.399,1.611,2.2c1.759,3.243,1.268,7.418-0.588,10.509
	c-0.707,1.169-1.592,2.161-2.595,3.081c-0.463,0.422-0.943,0.865-1.501,1.159c-0.405,0.21-0.82,0.266-1.257,0.221
	c-0.159-0.426-0.491-0.779-0.946-0.956c-0.852-0.329-1.809,0.093-2.137,0.943c-0.409,1.057,0.351,2.064,1.379,2.285
	c0.374,0.08,0.809,0.149,1.188,0.136c0.63-0.017,1.226-0.195,1.801-0.433c0.399-0.163,0.79-0.329,1.217-0.4
	c0.178-0.031,0.362-0.059,0.543-0.059c-0.06,0.155-0.207,0.301-0.333,0.402c-0.177,0.145-0.449,0.142-0.664,0.182
	c-0.297,0.058-0.593,0.116-0.886,0.188c-0.402,0.102-0.774,0.227-1.09,0.371c-0.158,0.08-0.303,0.149-0.431,0.238
	c-0.129,0.076-0.238,0.162-0.335,0.239c-0.099,0.07-0.179,0.165-0.245,0.229c-0.072,0.066-0.111,0.13-0.151,0.181
	c-0.078,0.104-0.117,0.16-0.117,0.16s0.07-0.015,0.193-0.045c0.123-0.037,0.3-0.062,0.513-0.09c0.217-0.021,0.478-0.03,0.768-0.015
	c0.292,0.017,0.615,0.051,0.982,0.104c0.366,0.054,0.769,0.116,1.228,0.161c0.118,0.012,0.235,0.02,0.36,0.027
	c0.059,0.005,0.125,0.005,0.184,0.01c0.063,0,0.129,0.001,0.193,0c0.132,0.004,0.268-0.004,0.403-0.01l0.05-0.006l0.027,0.001
	c0,0,0.013-0.001,0.021-0.001c0.001,0,0,0,0.001,0c-0.001,0.001,0.004,0.001,0.034-0.004l0.089-0.012
	c0.058-0.005,0.119-0.012,0.179-0.018l0.091-0.007c0.025-0.006,0.069-0.017,0.107-0.021c0.073-0.014,0.146-0.026,0.226-0.045
	c0.152-0.025,0.288-0.064,0.429-0.1c0.284-0.079,0.565-0.179,0.839-0.3c0.55-0.243,1.075-0.567,1.538-0.959
	c0.324-0.275,0.619-0.577,0.88-0.9c-0.213,0.332-0.454,0.649-0.683,0.97c-0.956,1.329-1.994,2.642-2.75,4.099
	c-0.136,0.258-0.501,0.849-0.324,1.16c0.144,0.248,0.58,0.063,0.78-0.005c0.266-0.094,0.668-0.353,0.963-0.309
	c0.295,0.041-0.003,0.507-0.076,0.64c-0.272,0.503-0.603,0.975-0.858,1.486c-0.114,0.23-0.402,0.764-0.114,0.981
	c0.249,0.187,0.711,0.015,0.967-0.074c0.296-0.109,0.59-0.244,0.853-0.423c0.075-0.053,0.145-0.108,0.219-0.167
	c-0.561,0.808-0.684,1.783-0.655,2.751c0.014,0.396,0.208,2.246,0.917,1.344c0.198-0.254,0.301-0.55,0.44-0.835
	c0.12-0.237,0.048,0.128,0.036,0.221c-0.039,0.475-0.064,0.948-0.036,1.423c0.028,0.422,0.08,0.904,0.319,1.266
	c0.3,0.458,0.817,0.329,1.025-0.132c0.261-0.57,0.208-1.312,0.265-1.921c0.02-0.16,0.033-0.318,0.054-0.476
	c0.01-0.078,0-0.212,0.042-0.28c0.02-0.042-0.003-0.054,0.024-0.016c0.031,0.046,0.017,0.186,0.021,0.241
	c0.037,0.353,0.155,1.306,0.724,1.046c0.312-0.141,0.508-0.518,0.635-0.813c0.172-0.396,0.26-0.828,0.263-1.259
	c0.011-0.558-0.179-1.044-0.284-1.581c-0.011-0.074-0.021-0.146-0.032-0.22c0.157,0.242,0.39,0.462,0.632,0.612
	c0.415,0.256,0.813,0.163,1.226-0.026c0.134-0.065,0.155-0.099,0.09-0.233c-0.126-0.256-0.305-0.487-0.438-0.744
	c-0.351-0.704-0.509-1.522-0.605-2.298c-0.03-0.234,0.061-0.15,0.177-0.036c0.213,0.206,0.464,0.389,0.773,0.41
	c0.268,0.019,0.527-0.096,0.781-0.163c-0.417-0.84-0.49-1.661-0.405-2.584c0.068-0.718,0.192-1.429,0.368-2.127
	c0.206,2.325,1.995,3.736,3.182,4.429c-0.384,0.969-0.392,2.483,0.222,4.598c0.897,3.094,4.237,5.571,4.237,5.571
	s-0.579-1.482-0.448-3.018c0.133-1.533,1.458-1.777,1.26-1.442c-0.197,0.336-0.147,1.452,1.926,4.193
	c2.072,2.746,8.489,5.951,7.316,4.768c-1.409-1.417-2.517-5.762-2.519-5.769c0.516,0.203,1.039,0.39,1.55,0.556
	c2.678,0.869,5.61,0.6,8.133-0.677c1.172-0.59,2.324-1.644,3.024-2.788c0.562-0.925,0.859-2.026,0.832-3.113
	C155.955,80.13,155.453,78.896,154.503,78.04z M103.873,43.473c1.286-0.688,2.542-1.494,3.721-2.354
	c1.146-0.835,2.246-1.745,3.302-2.691c1.365-1.211,2.668-2.5,3.851-3.887c1.286-1.513,2.822-3.267,3.703-5.057
	c3.838-7.832,0.001-12.36,0.001-12.36s-0.612,0.691-0.767,1.15c-0.157,0.465-0.672-3.451-7.371-4.527
	c-4.392-0.019,0.117,3.972,0.881,5.278c0.771,1.304,0.117-0.286-1.804,0.786c0,0,3.229,5.219,2.227,8.9
	c-0.998,3.686,1.304-2.686-2.993-4.068c1.225,1.383,2.765,4.068,0.539,8.212c-2.111,2.69-3.225,2.527-3.225,2.527
	s2.302-6.901-3.53-9.356c-2.149-1.075-0.456,3.072-1.337,5.221c-0.89,2.151-0.964-1.068-1.503-0.799
	c-0.538,0.259-0.232,2.254-0.538,4.101c-0.31,1.843-0.923-1.381-1.994-1.15c-1.077,0.226,1.229,1.457-0.464,3.91
	c-0.682,0.999-1.632,1.536-2.519,1.833c0.018-0.185,0.032-0.376,0.032-0.565c0-2.904-2.356-5.261-5.261-5.261
	c-2.909,0-5.266,2.356-5.266,5.261c0,3.488,2.664,6.185,5.947,6.844C94.298,46.375,99.55,45.79,103.873,43.473z M58.093,18.853
	l0.125,0.69l0.004,0.021l0.019,0.074l0.011,0.038l0.021,0.072l0.042,0.146l0.084,0.294c0.011,0.045,0.036,0.109,0.059,0.17
	l0.069,0.181l0.144,0.361c0.045,0.126,0.107,0.221,0.161,0.331l0.169,0.317c0.054,0.108,0.123,0.205,0.187,0.306l0.199,0.298
	c0.063,0.101,0.14,0.192,0.215,0.285l0.226,0.276c1.238,1.446,3.02,2.324,4.795,2.494l0.332,0.032
	c0.111,0.003,0.222,0.002,0.332,0.003c0.222,0,0.441,0.006,0.658-0.023l0.324-0.032l0.162-0.017l0.159-0.031l0.314-0.065
	l0.156-0.033l0.079-0.018l0.019-0.004c-0.003,0.002,0.102-0.026,0.064-0.017l0.034-0.012l0.262-0.084l0.131-0.043
	c0.022-0.008,0.041-0.013,0.066-0.022l0.082-0.032c0.107-0.046,0.216-0.091,0.322-0.136c0.107-0.045,0.213-0.092,0.302-0.146
	c0.377-0.199,0.732-0.429,1.044-0.699c0.631-0.532,1.128-1.174,1.467-1.858s0.531-1.401,0.584-2.095
	c0.05-0.696-0.02-1.362-0.192-1.959l-0.007-0.028l-0.003-0.015c-0.016-0.06-0.007-0.022-0.012-0.04l-0.018-0.049l-0.034-0.098
	c-0.024-0.065-0.047-0.131-0.07-0.194c-0.053-0.138-0.129-0.293-0.193-0.433c-0.07-0.139-0.15-0.257-0.223-0.382
	c-0.075-0.123-0.167-0.233-0.249-0.344c-0.349-0.433-0.748-0.766-1.149-1.006c-0.198-0.126-0.403-0.217-0.595-0.304
	c-0.201-0.071-0.388-0.146-0.575-0.183c-0.74-0.184-1.335-0.121-1.717-0.05c-0.193,0.025-0.334,0.083-0.431,0.108
	c-0.095,0.027-0.144,0.044-0.144,0.044s0.051-0.003,0.151-0.01c0.099-0.003,0.244-0.02,0.435-0.008
	c0.377,0.003,0.935,0.078,1.553,0.358c0.617,0.269,1.282,0.793,1.729,1.563c0.05,0.099,0.109,0.194,0.154,0.3
	c0.042,0.104,0.094,0.21,0.129,0.315c0.029,0.108,0.063,0.197,0.093,0.32c0.014,0.066,0.028,0.134,0.043,0.201l0.021,0.101
	l0.011,0.051c-0.003-0.008,0.009,0.037-0.006-0.014l0.002,0.012l0.002,0.023c0.069,0.494,0.06,1.018-0.047,1.539
	c-0.202,1.04-0.827,2.077-1.787,2.74c-0.236,0.168-0.496,0.308-0.766,0.425c-0.068,0.036-0.13,0.055-0.192,0.075l-0.186,0.064
	L67.2,23.021c-0.018,0.007-0.043,0.012-0.064,0.017l-0.133,0.032l-0.269,0.065l-0.011,0.003c0.002-0.001,0.012-0.003,0.009-0.003
	l-0.015,0.001l-0.058,0.008l-0.117,0.015l-0.234,0.03l-0.117,0.018l-0.119,0.003l-0.237,0.009c-0.158,0.015-0.317,0-0.475-0.011
	l-0.239-0.016l-0.237-0.038c-0.631-0.106-1.254-0.316-1.823-0.639c-0.566-0.325-1.08-0.755-1.5-1.264l-0.151-0.197
	c-0.051-0.065-0.104-0.129-0.144-0.201l-0.131-0.211c-0.043-0.069-0.092-0.138-0.125-0.215l-0.11-0.222
	c-0.034-0.073-0.082-0.151-0.102-0.218l-0.08-0.206l-0.043-0.102c-0.014-0.034-0.029-0.064-0.042-0.12l-0.146-0.53L60.4,18.513
	c-0.04-0.172-0.034-0.347-0.05-0.521l-0.02-0.26c-0.007-0.087,0.005-0.174,0.004-0.261c-0.011-0.697,0.117-1.394,0.331-2.053
	c0.055-0.165,0.1-0.333,0.179-0.489c0.071-0.158,0.13-0.322,0.207-0.477l0.249-0.457c0.084-0.152,0.191-0.289,0.284-0.434
	c0.05-0.071,0.093-0.146,0.148-0.213l0.166-0.199c0.111-0.131,0.212-0.271,0.338-0.388c0.12-0.122,0.24-0.244,0.36-0.365
	c0.131-0.11,0.261-0.219,0.392-0.328l0.097-0.083l0.105-0.071l0.209-0.144l0.209-0.144c0.07-0.047,0.147-0.082,0.22-0.124
	c0.147-0.077,0.295-0.167,0.439-0.24c0.142-0.062,0.283-0.123,0.423-0.189l0.106-0.049c0.032-0.016,0.088-0.027,0.13-0.044
	l0.273-0.084l0.271-0.085l0.068-0.021l0.034-0.012l0.007-0.003l0.1-0.023c0.166-0.038,0.33-0.08,0.496-0.107l0.247-0.048
	l0.249-0.036c0.66-0.095,1.318-0.106,1.957-0.063c1.28,0.093,2.476,0.455,3.502,0.961c1.032,0.502,1.886,1.161,2.566,1.828
	c0.345,0.332,0.629,0.681,0.891,1.005c0.122,0.169,0.249,0.327,0.352,0.489c0.054,0.08,0.107,0.159,0.158,0.234
	c0.048,0.079,0.096,0.156,0.141,0.23c0.361,0.602,0.598,1.11,0.741,1.463c0.135,0.363,0.209,0.554,0.209,0.554
	s-0.006-0.05-0.02-0.15c-0.015-0.098-0.027-0.245-0.064-0.435c-0.074-0.381-0.189-0.944-0.451-1.633
	c-0.257-0.688-0.659-1.503-1.284-2.342c-0.625-0.834-1.471-1.696-2.574-2.409c-1.097-0.714-2.446-1.286-3.96-1.531
	c-0.755-0.126-1.549-0.16-2.357-0.11l-0.304,0.022L65.87,8.708c-0.205,0.018-0.406,0.058-0.611,0.093l-0.152,0.027l-0.189,0.047
	l-0.276,0.068l-0.277,0.069c-0.048,0.014-0.088,0.02-0.145,0.04L64.06,9.11c-0.216,0.079-0.432,0.158-0.65,0.237
	c-0.206,0.088-0.398,0.188-0.598,0.284c-0.098,0.052-0.2,0.095-0.295,0.152l-0.284,0.176l-0.284,0.177l-0.142,0.09l-0.134,0.102
	c-0.738,0.516-1.379,1.18-1.928,1.912c-0.554,0.733-0.991,1.568-1.282,2.454c-0.295,0.883-0.47,1.818-0.468,2.758
	c-0.003,0.118-0.011,0.234-0.003,0.353l0.026,0.351C58.04,18.388,58.042,18.626,58.093,18.853z M68.966,69.819
	c-0.141-0.247-0.328-0.497-0.557-0.714c-0.227-0.217-0.49-0.399-0.771-0.545c-0.072-0.038-0.142-0.069-0.213-0.105l-0.054-0.027
	l-0.014-0.007c-0.025-0.009,0.025,0.003-0.047-0.019l-0.021-0.01l-0.088-0.039l-0.172-0.085l-0.084-0.038
	c-0.016-0.011-0.028-0.018-0.046-0.025l-0.059-0.02c-0.154-0.052-0.315-0.107-0.471-0.145c-0.093-0.02-0.185-0.032-0.277-0.045
	c0.136-0.148,0.271-0.299,0.402-0.452c0.609-0.704,1.155-1.459,1.572-2.29c0.467-0.942,0.765-1.955,0.911-2.996
	c0.115-0.812,0.141-1.639,0.091-2.46c-0.023-0.388-0.061-0.776-0.115-1.16c-0.179-1.273-0.515-2.529-1-3.721
	c-0.457-1.119-1.046-2.189-1.783-3.147c-0.623-0.813-1.361-1.548-2.21-2.125c-0.694-0.473-1.466-0.833-2.288-1.032
	c-0.706-0.175-1.445-0.226-2.172-0.159c-0.71,0.066-1.408,0.24-2.072,0.494c-0.726,0.273-1.417,0.644-2.061,1.084
	c-0.735,0.502-1.412,1.09-2.008,1.756c-0.363,0.405-0.694,0.842-0.991,1.301c-0.004-0.016-0.007-0.031-0.012-0.046
	c-0.034-0.102-0.062-0.207-0.094-0.307c-0.03-0.101-0.072-0.193-0.109-0.291c-0.527-1.365-1.385-2.417-2.444-3.209
	c-0.221-0.178-0.449-0.347-0.691-0.493c-0.458-0.278-0.949-0.497-1.454-0.679c-1.244-0.481-2.609-0.737-3.978-0.813
	c-0.427-0.024-0.853-0.021-1.277-0.003c-1.992-0.104-3.699-0.078-5.704,0.741c-3.547,1.457-6.194,3.053-9.163,7.9
	c-0.318,0.522-0.672,1.249-0.879,1.824c-0.095,0.271-0.425,1.372-0.705,1.493c-1.499,0.661-3.357,1.583-5.019,2.849
	c-2.729,2.078-4.448,2.797-4.448,2.797s3.33,0.766,5.925-0.144c0.331-0.098,0.666-0.232,1-0.386c0.329-0.159,0.66-0.336,0.971-0.54
	c0.156-0.104,0.317-0.205,0.467-0.319c0.102-0.077,0.202-0.162,0.301-0.244c-0.082,0.315-0.163,0.638-0.24,0.958
	c-0.084,0.322-0.164,0.656-0.251,0.978c-0.035,0.133-0.069,0.264-0.104,0.394c-1.461,0.67-3.371,1.648-4.837,2.764
	c-0.056,0.044-0.109,0.083-0.164,0.124c-0.312,0.178-0.605,0.367-0.866,0.562c-0.207,0.153-0.392,0.309-0.553,0.45
	c-1.795,1.211-2.868,1.663-2.868,1.663s3.335,0.764,5.929-0.143c0.511-0.18,1.019-0.416,1.511-0.699
	c0.168-0.069,0.354-0.149,0.527-0.23c-0.114,0.354-0.225,0.708-0.345,1.061c-0.04,0.117-0.083,0.234-0.124,0.351
	c-1.32,0.403-2.81,0.941-4.061,1.602c-0.048,0.016-0.098,0.029-0.147,0.048c-0.239,0.094-0.474,0.191-0.701,0.302
	c-0.382,0.185-0.736,0.385-1.058,0.595c-1.903,0.867-2.999,1.132-2.999,1.132s3.165,1.292,5.872,0.812
	c0.423-0.074,0.848-0.188,1.271-0.329c-0.105,0.338-0.243,0.687-0.454,0.962c-1.361-0.126-3.367-0.227-5.051,0.048
	c-2.848,0.466-4.394,0.285-4.394,0.285s2.082,2.089,4.336,2.505c0.584,0.11,1.209,0.142,1.839,0.085
	c-0.024,0.228-0.275,0.385-0.481,0.555c-0.292,0.241-0.612,0.452-0.921,0.669c-0.058,0.04-0.116,0.084-0.175,0.121
	c-0.632,0.038-1.273,0.108-1.864,0.231c-2.575,0.524-3.986,0.41-3.986,0.41s0.929,0.866,2.181,1.501
	c-0.11,0.052-0.221,0.1-0.336,0.148c-0.622,0.277-1.267,0.542-1.952,0.585c-0.049,0.001-0.508-0.016-0.531,0.027
	c0.565-1.11,0.67-2.45,0.185-3.706c-0.373-0.965-1.041-1.732-1.858-2.237c-0.626-0.485-1.397-0.789-2.197-0.886
	c-1.322-0.157-2.705,0.233-3.702,1.129c-0.951,0.851-1.453,2.085-1.484,3.35c-0.027,1.087,0.269,2.188,0.832,3.113
	c0.699,1.144,1.852,2.198,3.023,2.788c2.523,1.276,5.456,1.546,8.133,0.677c0.512-0.166,1.035-0.353,1.55-0.556
	c-0.002,0.007-1.11,4.352-2.519,5.769c-1.173,1.184,5.244-2.021,7.316-4.768c2.074-2.741,2.124-3.857,1.926-4.193
	c-0.199-0.335,1.127-0.091,1.26,1.442c0.13,1.535-0.449,3.018-0.449,3.018s3.34-2.478,4.237-5.571
	c0.614-2.114,0.605-3.629,0.222-4.598c1.188-0.692,2.977-2.104,3.182-4.429c0.176,0.698,0.3,1.409,0.369,2.127
	c0.084,0.923,0.012,1.744-0.405,2.584c0.254,0.067,0.513,0.182,0.781,0.163c0.309-0.021,0.56-0.204,0.773-0.41
	c0.116-0.114,0.208-0.198,0.177,0.036c-0.096,0.775-0.255,1.594-0.605,2.298c-0.134,0.257-0.314,0.488-0.438,0.744
	c-0.065,0.135-0.044,0.168,0.089,0.233c0.413,0.189,0.812,0.282,1.227,0.026c0.241-0.15,0.474-0.37,0.631-0.612
	c-0.011,0.073-0.022,0.145-0.032,0.22c-0.104,0.537-0.294,1.023-0.284,1.581c0.003,0.431,0.091,0.862,0.263,1.259
	c0.127,0.296,0.324,0.673,0.635,0.813c0.569,0.26,0.688-0.693,0.723-1.046c0.006-0.056-0.009-0.195,0.022-0.241
	c0.027-0.038,0.004-0.026,0.024,0.016c0.042,0.068,0.032,0.202,0.042,0.28c0.022,0.157,0.035,0.315,0.055,0.476
	c0.057,0.609,0.004,1.351,0.265,1.921c0.207,0.461,0.724,0.59,1.024,0.132c0.239-0.361,0.291-0.844,0.318-1.266
	c0.028-0.475,0.002-0.948-0.036-1.423c-0.012-0.093-0.083-0.458,0.036-0.221c0.14,0.285,0.242,0.581,0.44,0.835
	c0.708,0.902,0.904-0.948,0.917-1.344c0.029-0.968-0.095-1.943-0.655-2.751c0.074,0.059,0.144,0.114,0.219,0.167
	c0.263,0.179,0.557,0.313,0.853,0.423c0.256,0.089,0.717,0.261,0.967,0.074c0.288-0.218,0-0.751-0.114-0.981
	c-0.255-0.512-0.585-0.983-0.859-1.486c-0.072-0.133-0.37-0.599-0.075-0.64c0.295-0.044,0.697,0.215,0.963,0.309
	c0.199,0.068,0.636,0.253,0.779,0.005c0.176-0.312-0.188-0.902-0.325-1.16c-0.757-1.457-1.794-2.77-2.75-4.099
	c-0.229-0.32-0.471-0.638-0.684-0.97c0.261,0.323,0.557,0.625,0.88,0.9c0.463,0.392,0.988,0.716,1.538,0.959
	c0.274,0.121,0.556,0.221,0.84,0.3c0.141,0.035,0.276,0.074,0.429,0.1c0.08,0.019,0.153,0.031,0.226,0.045
	c0.038,0.004,0.081,0.015,0.107,0.021l0.09,0.007c0.06,0.006,0.121,0.013,0.179,0.018l0.09,0.012
	c0.029,0.005,0.034,0.005,0.034,0.004c0,0,0,0,0.001,0c0.009,0,0.021,0.001,0.021,0.001l0.027-0.001l0.05,0.006
	c0.136,0.006,0.272,0.014,0.403,0.01c0.064,0.001,0.13,0,0.194,0c0.059-0.005,0.124-0.005,0.184-0.01
	c0.125-0.008,0.242-0.016,0.359-0.027c0.46-0.045,0.862-0.107,1.229-0.161s0.689-0.088,0.983-0.104
	c0.291-0.016,0.551-0.007,0.768,0.015c0.212,0.027,0.389,0.053,0.512,0.09c0.123,0.03,0.193,0.045,0.193,0.045
	s-0.04-0.056-0.117-0.16c-0.041-0.051-0.081-0.114-0.151-0.181c-0.067-0.063-0.146-0.158-0.245-0.229
	c-0.097-0.077-0.206-0.163-0.334-0.239c-0.129-0.089-0.273-0.158-0.432-0.238c-0.316-0.145-0.688-0.27-1.09-0.371
	c-0.294-0.071-0.588-0.13-0.886-0.188c-0.216-0.04-0.487-0.037-0.664-0.182c-0.127-0.102-0.274-0.247-0.334-0.402
	c0.182-0.001,0.365,0.027,0.543,0.059c0.427,0.071,0.817,0.237,1.217,0.4c0.575,0.237,1.171,0.415,1.8,0.433
	c0.381,0.014,0.815-0.056,1.188-0.136c1.029-0.221,1.789-1.229,1.38-2.285c-0.329-0.851-1.285-1.272-2.138-0.943
	c-0.455,0.177-0.787,0.53-0.946,0.956c-0.437,0.045-0.851-0.011-1.256-0.221c-0.558-0.294-1.038-0.737-1.501-1.159
	c-1.002-0.92-1.888-1.912-2.595-3.081c-1.857-3.091-2.348-7.266-0.588-10.509c0.435-0.801,0.982-1.544,1.611-2.2
	c0.588-0.607,1.259-1.143,2.013-1.522c0.664-0.332,1.387-0.526,2.123-0.63c0.71-0.094,1.433-0.112,2.151-0.13
	c-0.245,0.092-0.493,0.179-0.741,0.274c-0.513,0.198-1.016,0.423-1.485,0.713c-0.495,0.307-0.942,0.686-1.316,1.126
	c-0.435,0.511-0.768,1.097-1.018,1.716c-0.303,0.75-0.488,1.541-0.59,2.34c-0.117,0.926-0.129,1.862-0.046,2.789
	c0.083,0.989,0.272,1.971,0.562,2.92c0.285,0.93,0.675,1.831,1.177,2.667c0.478,0.789,1.056,1.515,1.722,2.152
	c0.635,0.602,1.347,1.12,2.103,1.56c0.725,0.417,1.487,0.77,2.268,1.076c0.732,0.288,1.478,0.542,2.231,0.777
	c0.692,0.211,1.391,0.405,2.094,0.573c0.657,0.158,1.32,0.283,1.986,0.365c0.662,0.083,1.328,0.109,1.994,0.094
	c0.688-0.019,1.375-0.083,2.058-0.164c0.684-0.076,1.362-0.169,2.046-0.222c0.593-0.047,1.198-0.06,1.788,0.046
	c0.468,0.092,0.926,0.277,1.268,0.62c0.348,0.344,0.542,0.807,0.667,1.27c0.121,0.461,0.177,0.936,0.227,1.409
	c-0.014,0.075-0.029,0.136-0.038,0.178c-0.01,0.046-0.017,0.073-0.017,0.073c-0.01,0.06,0.022,0.112,0.075,0.123
	c0.034,0.011,0.071-0.004,0.093-0.031c0,0,0.021-0.018,0.056-0.06c0.019-0.022,0.044-0.05,0.07-0.085
	c0.013-0.007,0.02-0.013,0.03-0.019c0.235-0.183,0.397-0.481,0.53-0.742c0.278-0.548,0.471-1.152,0.55-1.761
	c0.116-0.88-0.032-1.703-0.713-2.29c0.385,0.112,0.83-0.091,1.189-0.211c0.581-0.194,1.177-0.423,1.796-0.44
	c0.397-0.014,0.765,0.092,1.113,0.266c0.07,0.048,0.138,0.1,0.198,0.159c0.147,0.131,0.267,0.277,0.376,0.435
	c0.107,0.159,0.194,0.322,0.268,0.483c0.072,0.161,0.134,0.313,0.176,0.455c0.044,0.143,0.075,0.271,0.103,0.375
	c0.023,0.105,0.039,0.19,0.048,0.248c0.004,0.028,0.008,0.051,0.01,0.065c0.002,0.015,0.002,0.021,0.002,0.021
	c0.008,0.059,0.059,0.098,0.111,0.091c0.04-0.007,0.071-0.035,0.08-0.068c0,0,0.011-0.033,0.027-0.096
	c0.016-0.061,0.038-0.149,0.061-0.265c0.021-0.117,0.041-0.258,0.054-0.423c0.009-0.163,0.017-0.355,0.004-0.562
	c-0.018-0.21-0.051-0.438-0.113-0.682C69.204,70.326,69.104,70.075,68.966,69.819z M67.162,33.316c-2.905,0-5.261,2.357-5.261,5.261
	c0,0.189,0.014,0.38,0.033,0.565c-0.887-0.297-1.837-0.834-2.52-1.833c-1.693-2.453,0.613-3.684-0.464-3.91
	c-1.071-0.231-1.684,2.993-1.994,1.15c-0.307-1.847,0-3.842-0.538-4.101c-0.538-0.269-0.612,2.95-1.503,0.799
	c-0.881-2.149,0.812-6.296-1.336-5.221c-5.832,2.455-3.53,9.356-3.53,9.356s-1.114,0.163-3.225-2.527
	c-2.227-4.144-0.686-6.829,0.538-8.212c-4.296,1.382-1.994,7.754-2.992,4.068c-1.002-3.681,2.227-8.9,2.227-8.9
	c-1.921-1.072-2.576,0.518-1.805-0.786c0.765-1.306,5.274-5.297,0.882-5.278c-6.699,1.076-7.214,4.992-7.371,4.527
	c-0.154-0.459-0.766-1.15-0.766-1.15s-3.837,4.528-0.001,12.36c0.881,1.79,2.417,3.544,3.702,5.057
	c1.183,1.387,2.486,2.676,3.851,3.887c1.058,0.946,2.157,1.856,3.303,2.691c1.179,0.86,2.436,1.666,3.721,2.354
	c4.324,2.317,9.575,2.902,14.368,1.948c3.284-0.659,5.947-3.356,5.947-6.844C72.428,35.672,70.071,33.316,67.162,33.316z
	 M81.867,25.766c-0.293,0.583-0.587,1.308-0.94,2.146c-0.391,0.828-0.641,1.812-0.97,2.876c-0.313,1.066-0.712,2.218-0.915,3.471
	c-0.25,1.247-0.524,2.561-0.767,3.93c-0.06,0.342-0.133,0.685-0.184,1.034c-0.022,0.185-0.044,0.372-0.065,0.558
	c-0.022-0.186-0.043-0.372-0.065-0.557c-0.051-0.348-0.124-0.692-0.184-1.034c-0.243-1.369-0.518-2.683-0.767-3.93
	c-0.203-1.253-0.603-2.405-0.915-3.471c-0.33-1.064-0.579-2.048-0.97-2.876c-0.352-0.838-0.647-1.564-0.94-2.146
	c-0.317-0.578-0.584-1.01-0.755-1.307c-0.204-0.278-0.312-0.427-0.312-0.427s0.076,0.169,0.218,0.484
	c0.112,0.328,0.261,0.814,0.472,1.405c0.183,0.607,0.337,1.376,0.568,2.226c0.257,0.842,0.358,1.853,0.572,2.918
	c0.181,1.074,0.437,2.219,0.55,3.47c0.146,1.242,0.29,2.551,0.479,3.896c0.042,0.337,0.097,0.675,0.13,1.02
	c0.023,0.346,0.047,0.694,0.069,1.044c0.044,0.702,0.092,1.41,0.156,2.124c0.118,1.426,0.237,2.876,0.358,4.325
	c0.108,1.45,0.133,2.91,0.203,4.344c0.046,1.38,0.146,2.737,0.218,4.055c0,0.04,0,0.082-0.001,0.122
	c-0.002,0.69-0.019,1.369-0.008,2.033c0.037,0.664,0.073,1.312,0.109,1.944c0.045,0.848,0.1,1.651,0.157,2.429
	c0.014,0.375,0.029,0.756,0.044,1.113c0.169,4.389,0.465,7.334,0.465,7.334s0.059-0.428,0.149-1.199c0.09,0.772,0.148,1.2,0.148,1.2
	s0.296-2.945,0.466-7.334c0.015-0.361,0.03-0.746,0.044-1.125c0.057-0.775,0.112-1.573,0.156-2.417
	c0.035-0.632,0.071-1.28,0.109-1.944c0.011-0.664-0.006-1.343-0.008-2.033c0-0.035,0-0.071-0.001-0.106
	c0.072-1.323,0.172-2.686,0.219-4.071c0.07-1.434,0.095-2.894,0.203-4.344c0.12-1.449,0.24-2.899,0.358-4.325
	c0.064-0.714,0.112-1.422,0.156-2.124c0.024-0.35,0.047-0.698,0.069-1.044c0.033-0.345,0.088-0.683,0.13-1.02
	c0.19-1.345,0.334-2.655,0.48-3.896c0.113-1.251,0.368-2.396,0.55-3.47c0.214-1.065,0.316-2.076,0.572-2.918
	c0.231-0.849,0.384-1.619,0.567-2.226c0.212-0.591,0.361-1.077,0.473-1.405c0.142-0.316,0.218-0.485,0.218-0.485
	s-0.11,0.15-0.313,0.426C82.451,24.756,82.184,25.188,81.867,25.766z"/>
</svg>
