<?xml version="1.0" encoding="utf-8"?>
<!-- Generator: Adobe Illustrator 17.0.0, SVG Export Plug-In . SVG Version: 6.00 Build 0)  -->
<!DOCTYPE svg PUBLIC "-//W3C//DTD SVG 1.1//EN" "http://www.w3.org/Graphics/SVG/1.1/DTD/svg11.dtd">
<svg version="1.1" id="图层_1" xmlns="http://www.w3.org/2000/svg" xmlns:xlink="http://www.w3.org/1999/xlink" x="0px" y="0px"
	 width="64px" height="64px" viewBox="0 0 64 64" enable-background="new 0 0 64 64" xml:space="preserve">
<path fill="#E0E0D1" d="M32,0c17.673,0,32,14.327,32,32S49.673,64,32,64S0,49.673,0,32S14.327,0,32,0z"/>
<path opacity="0.2" fill="#231F20" d="M39.5,37.154V22.846c2.741-0.916,4.5-2.322,4.5-3.9c0-2.761-5.373-4-12-4s-12,1.239-12,4
	c0,1.578,1.759,2.983,4.5,3.9v14.307c-2.741,0.916-4.5,2.322-4.5,3.9c0,2.477,4.327,4.528,10,4.925v7.075l2,4l2-4v-7.075
	c5.673-0.398,10-2.448,10-4.925C44,39.475,42.241,38.07,39.5,37.154z"/>
<path fill="#4F5D73" d="M30,51.053l2,4l2-4v-10h-4V51.053z"/>
<path fill="#C75C5C" d="M32,34.053c6.627,0,12,2.239,12,5s-5.373,5-12,5s-12-2.239-12-5S25.373,34.053,32,34.053z M44,16.947
	c0,2.761-5.373,5-12,5s-12-2.239-12-5s5.373-4,12-4S44,14.185,44,16.947z M25,20h14v20H25V20z"/>
</svg>
