<?xml version="1.0" encoding="utf-8"?>
<!-- Generator: Adobe Illustrator 17.0.0, SVG Export Plug-In . SVG Version: 6.00 Build 0)  -->
<!DOCTYPE svg PUBLIC "-//W3C//DTD SVG 1.1//EN" "http://www.w3.org/Graphics/SVG/1.1/DTD/svg11.dtd">
<svg version="1.1" id="图层_1" xmlns="http://www.w3.org/2000/svg" xmlns:xlink="http://www.w3.org/1999/xlink" x="0px" y="0px"
	 width="134.314px" height="56.571px" viewBox="0 0 134.314 56.571" enable-background="new 0 0 134.314 56.571"
	 xml:space="preserve">
<path fill="#F08300" d="M10.241,48.759h1.405l-2.659,7.812H7.492L6.15,51.882c-0.003,0-0.062-0.213-0.167-0.635
	c-0.105-0.422-0.16-0.653-0.16-0.693h-0.03l-1.686,6.018H2.605L0,48.759h1.495l1.845,6.184l0.286-1.052l1.512-5.132h1.476
	l1.145,4.094c0.318,1.129,0.494,1.769,0.525,1.922h0.033L10.241,48.759z M24.367,48.76L24.367,48.76L24.367,48.76L24.367,48.76z
	 M21.035,54.776h-0.03c-0.033-0.153-0.207-0.793-0.528-1.922l-1.143-4.094h-1.477l-1.51,5.132l-0.288,1.052l-1.845-6.184h-1.492
	l2.602,7.812h1.501l1.686-6.018h0.033c0,0.04,0.054,0.271,0.159,0.693c0.107,0.422,0.163,0.635,0.168,0.635l1.342,4.689h1.495
	l2.659-7.811H22.96L21.035,54.776z M33.755,54.776h-0.03c-0.033-0.153-0.209-0.793-0.528-1.922l-1.14-4.094h-1.479l-1.508,5.132
	l-0.29,1.052l-1.845-6.184h-1.493l2.604,7.812h1.501l1.684-6.018h0.033c0,0.04,0.052,0.271,0.16,0.693
	c0.108,0.422,0.161,0.635,0.168,0.635l1.343,4.689h1.491l2.661-7.811h-1.405L33.755,54.776z M37.087,48.76L37.087,48.76
	L37.087,48.76L37.087,48.76z M39.539,56.571h1.636V55.06h-1.636V56.571z M44.631,56.571h1.437V45.776h-1.437V56.571z M56.129,55.483
	c0.042,0.371,0.173,0.734,0.394,1.088h-1.511c-0.138-0.244-0.236-0.568-0.294-0.967c-0.963,0.767-2.006,1.149-3.123,1.149
	c-0.895,0-1.601-0.205-2.117-0.617c-0.516-0.413-0.774-0.957-0.774-1.634c0-0.648,0.248-1.182,0.746-1.601
	c0.498-0.422,1.363-0.699,2.592-0.836l1.342-0.184c0.5-0.076,0.913-0.166,1.237-0.275c0-0.396-0.012-0.678-0.038-0.842
	c-0.028-0.164-0.106-0.334-0.236-0.512c-0.131-0.177-0.34-0.318-0.629-0.426c-0.287-0.108-0.671-0.163-1.158-0.163
	c-0.618,0-1.104,0.105-1.465,0.317c-0.358,0.211-0.606,0.604-0.74,1.176l-1.405-0.168c0.156-0.801,0.552-1.401,1.191-1.803
	c0.638-0.404,1.517-0.605,2.636-0.605c1.017,0,1.765,0.14,2.241,0.417c0.476,0.278,0.769,0.611,0.877,1.005
	c0.111,0.393,0.165,0.897,0.165,1.516v1.783C56.06,54.387,56.081,55.113,56.129,55.483z M54.62,52.655
	c-0.751,0.229-1.668,0.412-2.754,0.548c-1.087,0.135-1.631,0.557-1.631,1.269c0,0.358,0.146,0.655,0.44,0.889
	c0.292,0.23,0.712,0.35,1.261,0.35c0.708,0,1.334-0.196,1.873-0.586c0.54-0.392,0.811-1.056,0.811-1.994V52.655z M64.215,52.382
	c-0.445-0.165-1.114-0.349-2.008-0.561c-0.794-0.191-1.325-0.353-1.594-0.485c-0.269-0.133-0.402-0.354-0.402-0.664
	c0-0.327,0.168-0.578,0.506-0.751c0.339-0.172,0.782-0.257,1.331-0.257c0.553,0,0.986,0.106,1.297,0.321
	c0.311,0.212,0.5,0.531,0.563,0.959l1.404-0.172c-0.111-0.728-0.448-1.275-1.01-1.64c-0.56-0.365-1.347-0.549-2.36-0.549
	c-0.952,0-1.712,0.212-2.278,0.634c-0.562,0.421-0.843,0.96-0.843,1.612c0,0.524,0.189,0.975,0.578,1.355
	c0.385,0.377,1.18,0.699,2.384,0.964c0.808,0.183,1.329,0.309,1.56,0.38c0.231,0.072,0.426,0.177,0.579,0.32
	c0.154,0.141,0.232,0.332,0.232,0.566c0,0.348-0.168,0.645-0.503,0.887c-0.335,0.244-0.817,0.365-1.445,0.365
	c-0.655,0-1.165-0.134-1.53-0.404s-0.585-0.678-0.658-1.225l-1.429,0.2c0.135,0.839,0.508,1.47,1.113,1.888
	c0.603,0.422,1.445,0.63,2.52,0.63c1.033,0,1.856-0.238,2.475-0.714c0.619-0.476,0.926-1.062,0.926-1.76
	c0-0.521-0.124-0.925-0.371-1.219C65.006,52.771,64.659,52.544,64.215,52.382z M73.835,48.892c-0.501-0.207-1.026-0.311-1.574-0.311
	c-1.022,0-1.875,0.357-2.556,1.068v-3.873h-1.438v10.793h1.438v-4.271c0-0.967,0.229-1.638,0.689-2.015
	c0.462-0.374,0.985-0.562,1.569-0.562c0.592,0,1.036,0.16,1.336,0.478c0.297,0.321,0.446,0.799,0.446,1.438v4.934h1.445h0.001
	v-4.949c0-0.76-0.1-1.354-0.302-1.782C74.686,49.414,74.335,49.097,73.835,48.892z M84.57,49.611
	c0.752,0.688,1.128,1.666,1.128,2.933c0,1.535-0.405,2.621-1.22,3.258c-0.816,0.635-1.734,0.952-2.755,0.952
	c-1.072,0-2.002-0.325-2.788-0.977c-0.789-0.654-1.182-1.69-1.182-3.108c0-1.374,0.382-2.399,1.142-3.073
	c0.762-0.677,1.704-1.015,2.828-1.015C82.867,48.581,83.816,48.926,84.57,49.611z M84.231,52.616c0-0.976-0.242-1.713-0.724-2.207
	c-0.481-0.498-1.078-0.745-1.784-0.745c-0.731,0-1.331,0.252-1.796,0.754c-0.471,0.505-0.704,1.255-0.704,2.25
	c0,0.991,0.236,1.739,0.714,2.243c0.476,0.502,1.072,0.754,1.786,0.754c0.818,0,1.442-0.279,1.867-0.84
	C84.016,54.265,84.231,53.529,84.231,52.616z M93.709,52.933c0,1.089-0.239,1.806-0.718,2.151c-0.48,0.346-0.991,0.519-1.534,0.519
	c-0.421,0-0.782-0.095-1.086-0.29c-0.304-0.192-0.492-0.439-0.565-0.739c-0.071-0.3-0.106-0.796-0.106-1.486v-4.33h-1.438v4.845
	c0,0.706,0.084,1.283,0.252,1.726c0.168,0.445,0.503,0.794,1.007,1.045c0.503,0.254,1.048,0.38,1.641,0.38
	c1.123,0,2.009-0.442,2.659-1.331h0.039v1.148h1.285h0.001v-7.814h-1.437V52.933z M98.643,56.571h1.637V55.06h-1.637V56.571z
	 M108.58,55.176c-0.354,0.326-0.839,0.49-1.455,0.49c-0.769,0-1.357-0.26-1.764-0.783c-0.407-0.525-0.611-1.268-0.611-2.227
	c0-0.945,0.208-1.678,0.624-2.205c0.416-0.523,1.025-0.786,1.829-0.786c0.501,0,0.913,0.132,1.235,0.396
	c0.322,0.267,0.555,0.662,0.7,1.187l1.387-0.198c-0.143-0.811-0.527-1.424-1.146-1.841c-0.619-0.418-1.365-0.627-2.241-0.627
	c-0.637,0-1.246,0.124-1.828,0.372c-0.58,0.249-1.063,0.677-1.448,1.289c-0.388,0.61-0.579,1.424-0.579,2.439
	c0,1.228,0.334,2.214,1.004,2.958c0.671,0.744,1.622,1.114,2.851,1.114c0.841,0,1.595-0.231,2.261-0.695
	c0.666-0.464,1.092-1.195,1.277-2.19l-1.428-0.161C109.158,54.361,108.937,54.85,108.58,55.176z M119.122,49.611
	c0.752,0.688,1.129,1.666,1.129,2.933c0,1.535-0.408,2.621-1.22,3.258c-0.816,0.635-1.734,0.952-2.755,0.952
	c-1.072,0-2.002-0.325-2.789-0.977c-0.787-0.654-1.182-1.69-1.182-3.108c0-1.374,0.382-2.399,1.143-3.073
	c0.759-0.677,1.703-1.015,2.827-1.015C117.419,48.581,118.368,48.926,119.122,49.611z M118.781,52.616
	c0-0.976-0.243-1.713-0.723-2.207c-0.483-0.498-1.078-0.745-1.784-0.745c-0.731,0-1.33,0.252-1.798,0.754
	c-0.468,0.505-0.704,1.255-0.704,2.25c0,0.991,0.24,1.739,0.716,2.243c0.477,0.502,1.071,0.754,1.787,0.754
	c0.819,0,1.44-0.279,1.868-0.84C118.568,54.265,118.781,53.529,118.781,52.616z M133.656,49.237
	c-0.441-0.437-1.098-0.656-1.976-0.656c-1.114,0-1.985,0.459-2.613,1.369c-0.181-0.456-0.474-0.798-0.875-1.026
	c-0.403-0.228-0.913-0.343-1.536-0.343c-1.115,0-1.958,0.421-2.533,1.267h-0.032v-1.09h-1.295v7.812h1.436v-4.059
	c0-1.074,0.201-1.808,0.598-2.201c0.397-0.393,0.902-0.589,1.521-0.589c0.473,0,0.838,0.126,1.097,0.376
	c0.259,0.25,0.388,0.713,0.388,1.391v5.082h1.438v-4.537c0-0.814,0.204-1.403,0.615-1.767c0.409-0.364,0.897-0.545,1.461-0.545
	c0.468,0,0.813,0.101,1.033,0.298c0.223,0.2,0.36,0.427,0.412,0.684c0.055,0.26,0.081,0.571,0.081,0.934v4.934h1.438h0.002v-5.368
	C134.316,50.329,134.094,49.675,133.656,49.237z M88.117,34.12c4.286,6.277,11.865,10.465,20.475,10.465
	c13.318,0,24.182-10.012,24.182-22.291S121.911,0,108.592,0c-8.61,0-16.189,4.189-20.475,10.467C83.831,4.189,76.251,0,67.641,0
	C59.03,0,51.45,4.19,47.164,10.467C42.878,4.19,35.298,0,26.687,0C13.37,0,2.507,10.015,2.507,22.294
	c0,12.279,10.863,22.291,24.18,22.291c8.611,0,16.191-4.188,20.477-10.465c4.286,6.277,11.867,10.465,20.477,10.465
	C76.251,44.585,83.831,40.397,88.117,34.12z"/>
<path fill="#FFFFFF" d="M26.265,23.797l-4.075,1.464v9.57c-0.112,0.93-0.43,1.658-0.951,2.186c-0.523,0.527-1.161,0.859-1.917,0.995
	c-0.755,0.134-2.049,0.202-3.882,0.202l-0.885-2.753l2.379,0.067c1.585,0.045,2.378-0.347,2.378-1.172v-7.94l-4.333,1.528
	l-2.049-2.226l6.382-2.228v-7.142h-5.311v-2.55h5.311v-6.68h2.878v6.681h3.558v2.55H22.19v6.155l4.075-1.429V23.797z M46.846,36.226
	H24.567v-2.637h10.162c2.963-5.326,4.649-11.038,5.055-17.138l3.061,0.63c-0.64,5.951-2.312,11.455-5.016,16.508h9.017V36.226z
	 M45.573,15.89H26.302v-2.635h7.634V7.374h2.951v5.881h8.686V15.89z M34.509,30.445l-3.025,1.224c0-5.418-1.298-9.981-3.891-13.688
	l2.562-1.258C32.825,20.442,34.275,25.015,34.509,30.445z M85.441,27.247H71.537v8.316c0,1.857-0.892,2.787-2.675,2.787h-5.219
	l-1.051-2.857c2.324,0.193,3.756,0.291,4.297,0.291c1.191,0,1.788-0.408,1.788-1.225v-7.312H54.165v-2.549h14.513v-5.287H57.3
	v-2.535h11.378V12.03c-1.895,0.228-5.809,0.414-11.747,0.561l-1.716-2.585c11.028,0.18,20.021-0.827,26.98-3.025l1.586,1.988
	c-3.318,1.236-7.401,2.154-12.244,2.754v5.152h10.807v2.535H71.537v5.287h13.904V27.247z M124.166,35.597
	c0,0.702-0.242,1.281-0.728,1.734c-0.485,0.453-1.084,0.681-1.797,0.681h-3.782l-1.087-2.618l4.001,0.135
	c0.161-0.023,0.338-0.124,0.535-0.305V11.368H98.145v26.711H95.25V8.835h28.916V35.597z M110.077,25.854l-2.25,1.667
	c-0.59-1.531-1.322-2.853-2.195-3.962c-1.058,2.517-2.63,4.919-4.719,7.209l-2.417-1.632c2.2-2.108,3.937-4.83,5.201-8.16
	c-1.241-1.736-2.901-3.475-4.979-5.222l2.305-1.46c0.281,0.189,1.532,1.455,3.744,3.79c0.664-1.757,1.143-3.661,1.439-5.714
	l2.673,0.782c-0.394,1.996-1.088,4.433-2.084,7.312C108.331,22.402,109.426,24.198,110.077,25.854z M120.663,29.084l-2.601,1.548
	c-0.466-1.667-1.499-3.826-3.099-6.479c-1.745,3.22-3.497,5.725-5.254,7.516l-2.528-1.6c2.275-1.993,4.261-4.749,5.958-8.262
	c-1.588-2.086-3.136-3.906-4.647-5.459l2.268-1.428c2.237,2.438,3.411,3.759,3.522,3.961c1.094-3.422,1.72-5.627,1.88-6.613
	l2.656,0.699c-0.823,3.342-1.696,6.152-2.618,8.432C118.093,23.87,119.581,26.432,120.663,29.084z"/>
</svg>
