<?xml version="1.0" encoding="utf-8"?>
<!-- Generator: Adobe Illustrator 17.0.0, SVG Export Plug-In . SVG Version: 6.00 Build 0)  -->
<!DOCTYPE svg PUBLIC "-//W3C//DTD SVG 1.1//EN" "http://www.w3.org/Graphics/SVG/1.1/DTD/svg11.dtd">
<svg version="1.1" id="图层_1" xmlns="http://www.w3.org/2000/svg" xmlns:xlink="http://www.w3.org/1999/xlink" x="0px" y="0px"
	 width="34px" height="31.969px" viewBox="0 0 34 31.969" enable-background="new 0 0 34 31.969" xml:space="preserve">
<path fill="#3AD324" d="M30.085,22.682c-0.35-0.019-0.725-0.07-1.125-0.157c2.599,4.89-5.316,7.36-7.342,3.412
	c-1.941-3.78-3.68-10.319-3.841-10.918l0,0l0,0l0,0l0,0l2.211-0.238c0.625-0.085,1.198-0.166,1.731-0.24
	c0.463-0.065,0.896-0.125,1.305-0.178c0.08-0.011,0.164-0.021,0.243-0.031c0.401-0.052,0.785-0.097,1.149-0.133
	c0.051-0.005,0.101-0.009,0.151-0.014c0.367-0.034,0.722-0.062,1.068-0.077c0.012-0.001,0.024-0.002,0.036-0.002
	c0.226-0.01,0.448-0.015,0.67-0.015c0.084,0,0.169,0.007,0.253,0.009c0.137,0.002,0.277,0.007,0.414,0.014
	c0.221,0.01,0.449,0.028,0.675,0.049c0.138,0.014,0.278,0.026,0.419,0.044c0.248,0.031,0.509,0.074,0.77,0.12
	c0.127,0.022,0.251,0.04,0.383,0.066c0.399,0.079,0.816,0.172,1.265,0.288C35.153,15.876,35.347,22.956,30.085,22.682z
	 M29.352,11.784c-1.984,1.31-5.148,1.159-8.975,2.006c-1.491,0.329-2.62,0.718-2.621,0.719l0,0l0,0l0,0c0,0-0.159-1.547-0.277-3.647
	c-0.118-2.102-0.195-4.76-0.029-6.977c0.001-0.005,0.003-0.01,0.003-0.015c0.023-0.294,0.077-0.574,0.157-0.837
	c0.028-0.092,0.075-0.173,0.109-0.261c0.066-0.169,0.128-0.34,0.215-0.495c0.054-0.095,0.123-0.178,0.184-0.268
	c0.089-0.132,0.175-0.266,0.278-0.386c0.075-0.086,0.162-0.16,0.243-0.24c0.108-0.106,0.213-0.214,0.331-0.308
	c0.092-0.073,0.191-0.134,0.288-0.2c0.122-0.082,0.242-0.167,0.371-0.238c0.105-0.057,0.213-0.103,0.321-0.153
	c0.132-0.061,0.263-0.122,0.399-0.171c0.112-0.04,0.226-0.07,0.341-0.103c0.137-0.038,0.273-0.076,0.412-0.103
	c0.117-0.022,0.232-0.035,0.349-0.049c0.139-0.016,0.275-0.031,0.413-0.035c0.045-0.001,0.092-0.011,0.137-0.011
	c0.081,0,0.158,0.014,0.237,0.019c0.11,0.006,0.219,0.012,0.326,0.026c0.127,0.017,0.248,0.044,0.37,0.073
	c0.103,0.024,0.206,0.046,0.305,0.079c0.119,0.039,0.23,0.09,0.341,0.141c0.093,0.043,0.188,0.082,0.275,0.133
	c0.107,0.063,0.203,0.139,0.301,0.215c0.079,0.061,0.161,0.116,0.233,0.185c0.092,0.088,0.169,0.193,0.249,0.295
	c0.061,0.078,0.128,0.149,0.181,0.235c0.073,0.118,0.127,0.255,0.184,0.389c0.04,0.092,0.088,0.174,0.119,0.273
	c0.051,0.161,0.076,0.344,0.104,0.525c0.015,0.094,0.042,0.176,0.05,0.275c0.023,0.29,0.02,0.602-0.018,0.94
	C30.307,0.738,34.078,8.661,29.352,11.784z M17.427,17.765c0.5,2.971,2.198,6,1.378,10.256c-0.666,3.457-6.134,5.533-8.784,2.464
	c-0.612-0.709-1.073-1.691-1.291-2.993c-3.993,0.807-6.392-2.206-5.369-6.087c1.405-5.333,11.02-6.208,11.386-6.232l2.394-0.144
	C17.141,15.029,17.11,15.886,17.427,17.765z M14.089,14.344c-0.211,0.001-0.393,0.019-0.594,0.026
	c-0.361,0.012-0.73,0.019-1.063,0.048c-0.232,0.02-0.442,0.052-0.662,0.078c-0.276,0.033-0.56,0.06-0.823,0.1
	c-0.26,0.039-0.507,0.083-0.759,0.126c-0.215,0.036-0.437,0.071-0.649,0.109c-0.139,0.024-0.278,0.047-0.416,0.071
	c-0.279,0.049-0.558,0.099-0.838,0.145c-0.244,0.039-0.497,0.067-0.745,0.1c-0.204,0.028-0.402,0.06-0.611,0.082
	c-0.296,0.03-0.613,0.041-0.926,0.056c-0.176,0.008-0.341,0.028-0.524,0.03c-0.507,0.008-1.041-0.007-1.616-0.055
	c-0.263-0.022-0.517-0.074-0.762-0.151c-0.083-0.026-0.157-0.07-0.238-0.102c-0.157-0.062-0.317-0.12-0.464-0.202
	c-0.089-0.049-0.168-0.116-0.253-0.172c-0.128-0.085-0.26-0.164-0.38-0.263c-0.082-0.068-0.153-0.151-0.231-0.225
	c-0.109-0.104-0.222-0.203-0.321-0.317c-0.071-0.083-0.13-0.177-0.196-0.265c-0.09-0.12-0.185-0.236-0.265-0.364
	c-0.058-0.093-0.101-0.193-0.153-0.29c-0.072-0.132-0.148-0.262-0.207-0.401c-0.042-0.099-0.07-0.203-0.106-0.305
	c-0.05-0.141-0.105-0.281-0.142-0.425c-0.026-0.104-0.036-0.208-0.055-0.312c-0.027-0.146-0.059-0.29-0.071-0.436
	c-0.008-0.105,0-0.207,0-0.311c-0.001-0.144-0.008-0.289,0.007-0.431c0.011-0.103,0.04-0.202,0.059-0.303
	c0.026-0.138,0.048-0.277,0.091-0.41c0.032-0.1,0.083-0.191,0.125-0.287c0.055-0.127,0.105-0.256,0.177-0.376
	C0.534,8.82,0.61,8.738,0.677,8.651c0.085-0.112,0.164-0.226,0.267-0.328c0.082-0.081,0.186-0.15,0.28-0.225
	C1.34,8.006,1.45,7.911,1.584,7.83c0.111-0.067,0.244-0.118,0.369-0.176C2.1,7.585,2.241,7.512,2.407,7.456
	C2.55,7.408,2.716,7.378,2.873,7.34c0.18-0.042,0.354-0.089,0.552-0.117c0.177-0.025,0.378-0.03,0.57-0.042
	C4.169,7.17,4.323,7.144,4.509,7.144c0.088,0,0.178,0.001,0.269,0.004L4.782,7.15L4.778,7.148c-2.209-5.19,7.62-8.454,10.096-3.367
	c1.464,3.006,1.964,9.016,2.264,10.734l-1.144-0.092C15.309,14.365,14.679,14.342,14.089,14.344z"/>
</svg>
