<?xml version="1.0" encoding="utf-8"?>
<!DOCTYPE svg PUBLIC "-//W3C//DTD SVG 1.1//EN" "http://www.w3.org/Graphics/SVG/1.1/DTD/svg11.dtd">
<svg version="1.1" baseProfile="full"
 xmlns="http://www.w3.org/2000/svg"
 xmlns:xlink="http://www.w3.org/1999/xlink"
 xmlns:ev="http://www.w3.org/2001/xml-events" 
  height="85px" 
  width="337px" 
>
<path fill="rgb( 255, 82, 70 )"
 d="M321,54 C321,54 300,57 300,57 C300,57 273,69 273,69 C273,69 275,52 275,52 C275,52 289,58 289,58 C289,58 302,49 302,49 C302,49 319,51 319,51 C319,51 337,43 337,43 C337,43 321,54 321,54 ZM285,28 C285,28 287,30 287,30 C287,30 295,29 295,29 C295,29 295,34 295,34 C295,34 285,36 285,36 C285,36 284,40 284,40 C284,40 292,40 292,40 C292,40 291.655,40.345 291.167,40.833 C289.994,42.006 288,44 288,44 C288,44 295,48 295,48 C295,48 290,53 290,53 C290,53 279,52 279,52 C279,52 270,46 270,46 C270,46 256,52 256,52 C256,52 210.333,76.667 208,77 C205.667,77.333 216.333,37.333 216,36 C215.667,34.667 221,27 221,27 C221,27 218,26 218,26 C218,26 217,13 217,13 C217,13 205,17 205,17 C205,17 203,30 203,30 C203,30 217,31 217,31 C217,31 189,74 189,74 C189,74 198,44 198,44 C198,44 182,45 182,45 C182,45 200,17 200,17 C200,17 186,19 186,19 C186,19 181,40 181,40 C181,40 176,49 176,49 C176,49 181,49 181,49 C181,49 180,56 180,56 C180,56 165,67 165,67 C165,67 102,78 102,78 C102,78 107,36 107,36 C107,36 140,29 140,29 C140,29 143,24 143,24 C143,24 110,28 110,28 C110,28 117,19 117,19 C117,19 94,22 94,22 C94,22 88,58 88,58 C88,58 98,57 98,57 C98,57 97,63 97,63 C97,63 76,69 76,69 C76,69 82,25 82,25 C82,25 86,13 86,13 C86,13 133,5 133,5 C133,5 126,19 126,19 C126,19 166,11 166,11 C166,11 154,26 154,26 C154,26 165,24 165,24 C165,24 162,53 162,53 C162,53 116,60 116,60 C116,60 115,69 115,69 C115,69 165,60 165,60 C165,60 172,10 172,10 C172,10 185,15 185,15 C185,15 203,12 203,12 C203,12 210,0 210,0 C210,0 206,12 206,12 C206,12 235,5 235,5 C235,5 224,61 224,61 C224,61 238,54 238,54 C238,54 234,54 234,54 C234,54 235.051,49.4160000000001 236.434,48.648 C239.099,47.167 243,49 243,49 C243,49 245,42 245,42 C245,42 236,45 236,45 C236,45 235,40 235,40 C235,40 247,38 247,38 C247,38 246.667,35 247,34 C247.333,33 235,35 235,35 C235,35 239,12 239,12 C239,12 251,15 251,15 C251,15 300,0 300,0 C300,0 296,25 296,25 C296,25 285,28 285,28 ZM150,47 C150,47 152,34 152,34 C152,34 141,36 141,36 C141,36 140,48 140,48 C140,48 150,47 150,47 ZM127,51 C127,51 129,39 129,39 C129,39 119,40 119,40 C119,40 117,51 117,51 C117,51 127,51 127,51 ZM259,46 C259,46 272,43 272,43 C272,43 271,38 271,38 C271,38 258,41 258,41 C258,41 259,46 259,46 ZM271,34 C271,34 271,31 271,31 C271,31 261,33 261,33 C261,33 260,36 260,36 C260,36 271,34 271,34 ZM252,28 C252,28 282,23 282,23 C282,23 282,19 282,19 C282,19 252,25 252,25 C252,25 252,28 252,28 ZM285,10 C285,10 254,17 254,17 C254,17 253,22 253,22 C253,22 286,14 286,14 C286,14 285,10 285,10 ZM52,37 C52,37 54,38 54,38 C54,38 60,30 60,30 C60,30 73,26 73,26 C73,26 51,53 51,53 C51,53 71,51 71,51 C71,51 71,59 71,59 C71,59 33,65 33,65 C33,65 47,46 47,46 C47,46 33,48 33,48 C33,48 50,18 50,18 C50,18 38,28 38,28 C38,28 17,32 17,32 C17,32 0,41.667 1,41 C2,40.333 16,27 16,27 C16,27 31,25 31,25 C31,25 56,8 56,8 C56,8 76.333,4.33299999999997 75,6 C73.667,7.66700000000003 52,37 52,37 ZM70,70 C70,70 31,85 31,85 C31,85 30.003,70.039 30.003,70.039 C31.296,70.1900000000001 71,63 71,63 C71,63 70,70 70,70 ZM247,71 C247,71 245.139,72.003 244.233,72.6 C244.033,71.5700000000001 241,69 241,69 C241,69 234.725,70.187 230.522,70.747 C228.832,70.972 227.478,71.096 227,71 C225.781,70.756 225.279,70.869 225.096,70.947 C225.096,70.947 252,56 252,56 C252,56 247,71 247,71 ZM244,73 C243.542,73.114 243.759,72.912 244.233,72.6 C244.272,72.798 244.216,72.946 244,73 ZM225,71 C225,71 225.028,70.976 225.096,70.947 C225.096,70.947 225,71 225,71 ZM270,51 C270,51 266,71 266,71 C266,71 254,78 254,78 C254,78 258,54 258,54 C258,54 270,51 270,51 Z "/>
</svg>
