<?xml version="1.0" encoding="iso-8859-1"?>
<!-- Generator: Adobe Illustrator 17.0.0, SVG Export Plug-In . SVG Version: 6.00 Build 0)  -->
<!DOCTYPE svg PUBLIC "-//W3C//DTD SVG 1.1//EN" "http://www.w3.org/Graphics/SVG/1.1/DTD/svg11.dtd">
<svg version="1.1" id="Capa_1" xmlns="http://www.w3.org/2000/svg" xmlns:xlink="http://www.w3.org/1999/xlink" x="0px" y="0px"
	 width="123.963px" height="124.364px" viewBox="0 0 123.963 124.364" style="enable-background:new 0 0 123.963 124.364;"
	 xml:space="preserve">
<g>
	<path style="fill:#96CC00;" d="M59.764,13.027c0,0,2.936-12.314,7.29-12.923c4.356-0.61,5.588,1.628,5.02,2.951
		c-0.567,1.323-6.439,9.363-6.533,10.686"/>
	<g>
		<g>
			<path style="fill:#FFF5E1;" d="M73.791,123.364c-4.655,0-8.624-1.202-11.81-3.573c-3.186,2.372-7.154,3.573-11.81,3.573l0,0
				c-9.356-0.001-19.846-5.062-25.372-10.062l-0.479-0.434C16.17,105.509,1,91.809,1,57.044c0-37.935,31.209-43.72,40.773-44.589
				c1.17-0.106,2.367-0.16,3.559-0.16c6.919,0,12.812,1.772,16.649,3.327c3.838-1.554,9.731-3.327,16.649-3.327
				c1.191,0,2.389,0.054,3.559,0.16c9.564,0.87,40.773,6.655,40.773,44.589c0,34.765-15.17,48.464-23.32,55.824l-0.48,0.434
				C93.637,118.302,83.146,123.364,73.791,123.364z"/>
			<path style="fill:#FC2222;" d="M78.631,13.295c1.129,0,2.288,0.049,3.468,0.156c12.296,1.118,39.864,8.57,39.864,43.593
				s-15.647,48.437-23.471,55.516c-5.323,4.816-15.471,9.804-24.701,9.804c-4.338,0-8.475-1.103-11.81-3.842
				c-3.336,2.74-7.471,3.842-11.81,3.842c-9.229,0-19.379-4.988-24.701-9.804C17.647,105.481,2,92.068,2,57.044
				s27.569-42.476,39.864-43.593c1.181-0.107,2.338-0.156,3.468-0.156c7.128,0,13.131,1.944,16.649,3.408
				C65.501,15.239,71.503,13.295,78.631,13.295 M78.631,11.295L78.631,11.295c-6.854,0-12.723,1.699-16.649,3.25
				c-3.926-1.55-9.793-3.25-16.649-3.25c-1.222,0-2.449,0.056-3.648,0.165c-5.538,0.503-16.223,2.404-25.569,9.479
				C5.422,29.032,0,41.18,0,57.044c0,35.209,15.385,49.102,23.649,56.566l0.479,0.433c5.494,4.971,15.987,10.321,26.043,10.321
				c4.592,0,8.557-1.124,11.81-3.345c3.253,2.221,7.218,3.345,11.81,3.345c10.056,0,20.549-5.35,26.043-10.321l0.479-0.433
				c8.265-7.464,23.649-21.357,23.649-56.566c0-15.864-5.422-28.012-16.114-36.106c-9.346-7.075-20.031-8.976-25.569-9.479
				C81.08,11.35,79.853,11.295,78.631,11.295L78.631,11.295z"/>
		</g>
		<path style="fill:none;stroke:#FD4A4A;stroke-miterlimit:10;" d="M25.471,112.56c7.824,7.079,26.078,14.531,36.511,5.961
			c10.433,8.569,28.687,1.118,36.511-5.961c7.823-7.08,23.471-20.493,23.471-55.516S94.395,14.569,82.099,13.451
			c-8.631-0.784-16.04,1.556-20.117,3.252c-4.076-1.695-11.486-4.036-20.117-3.252C29.569,14.569,2,22.021,2,57.044
			S17.647,105.481,25.471,112.56z"/>
	</g>
	<g>
		<path style="fill:#E6D69E;" d="M60.185,59.708c0,0,2.021-5.242,6.065-1.895c4.044,3.348,9.919,10.738,7.266,19.141
			c-2.653,8.402-5.497,13.96-10.424,12.824c-4.927-1.137-4.295-3.412-4.295-3.412l0.821-26.278"/>
		<ellipse style="fill:#9D6642;" cx="64.545" cy="69.752" rx="2.211" ry="6.317"/>
		<path style="fill:#E6D69E;" d="M59.354,59.708c0,0-2.023-5.242-6.065-1.895c-4.043,3.348-9.918,10.738-7.266,19.141
			c2.653,8.402,5.498,13.96,10.424,12.824c4.927-1.137,4.295-3.412,4.295-3.412l-0.82-26.278"/>
		<ellipse style="fill:#9D6642;" cx="54.994" cy="69.752" rx="2.211" ry="6.317"/>
	</g>
</g>
</svg>
