<?xml version="1.0" encoding="utf-8"?>
<!-- Generator: Adobe Illustrator 17.0.0, SVG Export Plug-In . SVG Version: 6.00 Build 0)  -->
<!DOCTYPE svg PUBLIC "-//W3C//DTD SVG 1.1//EN" "http://www.w3.org/Graphics/SVG/1.1/DTD/svg11.dtd">
<svg version="1.1" id="Layer_1" xmlns="http://www.w3.org/2000/svg" xmlns:xlink="http://www.w3.org/1999/xlink" x="0px" y="0px"
	 width="171.953px" height="229.711px" viewBox="0 0 171.953 229.711" enable-background="new 0 0 171.953 229.711"
	 xml:space="preserve">
<path fill="#B5ADC2" d="M0,132.258V0h171.953l-0.004,132.258c0,53.792-38.519,97.453-85.97,97.453h-0.004
	C38.517,229.711,0,186.05,0,132.258L0,132.258z"/>
<path fill="#BDB3CC" d="M118.498,222.49L0,90.908v-5.141l121.705,135.146C120.645,221.465,119.579,221.985,118.498,222.49
	L118.498,222.49z M125.843,218.61c0.998-0.595,1.987-1.21,2.963-1.847L0,73.739v5.14L125.843,218.61L125.843,218.61z
	 M132.866,213.936c0.923-0.676,1.833-1.38,2.73-2.103L0,61.266v5.141L132.866,213.936L132.866,213.936z M139.115,208.85
	c0.857-0.765,1.696-1.543,2.525-2.337L0,49.237v5.141L139.115,208.85L139.115,208.85z M144.869,203.24
	c0.784-0.842,1.558-1.701,2.314-2.568L0,37.239v5.141L144.869,203.24L144.869,203.24z M150.159,197.078
	c0.718-0.914,1.423-1.846,2.109-2.794L0,25.211v5.136L150.159,197.078L150.159,197.078z M155.132,190.135
	c0.654-1,1.289-2.008,1.904-3.033L0,12.738v5.14L155.132,190.135L155.132,190.135z M159.44,182.884
	c0.577-1.077,1.141-2.171,1.679-3.273L0,0.705v5.141L159.44,182.884L159.44,182.884z M16.071,188.985
	c5.836,9.226,13.056,17.241,21.314,23.668L16.071,188.985L16.071,188.985z M52.406,221.994c2.432,1.175,4.912,2.222,7.45,3.137
	L4.598,163.77c0.859,2.855,1.833,5.649,2.918,8.38L52.406,221.994L52.406,221.994z M68.34,227.66
	c1.856,0.436,3.728,0.808,5.623,1.111L1.094,147.854c0.301,2.141,0.669,4.256,1.094,6.354L68.34,227.66L68.34,227.66z
	 M80.851,229.545c1.579,0.103,3.17,0.162,4.777,0.166L0.022,134.659c0.038,1.815,0.122,3.623,0.249,5.413L80.851,229.545
	L80.851,229.545z M91.64,229.506c1.423-0.106,2.835-0.252,4.241-0.436L0,122.604v5.141L91.64,229.506L91.64,229.506z M101.611,228.1
	c1.282-0.266,2.555-0.564,3.82-0.897L0,110.128v5.145L101.611,228.1L101.611,228.1z M110.324,225.746
	c1.173-0.394,2.337-0.812,3.491-1.265L0,98.104v5.141L110.324,225.746L110.324,225.746z M171.949,87.178v-5.141L98.069,0H93.44
	L171.949,87.178L171.949,87.178z M171.949,75.153v-5.141L108.897,0h-4.63L171.949,75.153L171.949,75.153z M171.949,62.676v-5.144
	L120.135,0h-4.63L171.949,62.676L171.949,62.676z M171.949,50.652v-5.141L130.962,0h-4.627L171.949,50.652L171.949,50.652z
	 M171.949,38.649v-5.137L141.771,0h-4.626L171.949,38.649L171.949,38.649z M171.949,26.621V21.48L152.609,0h-4.63L171.949,26.621
	L171.949,26.621z M171.949,14.143v-5.14L163.841,0h-4.63L171.949,14.143L171.949,14.143z M171.949,2.115L171.953,0h-1.908
	L171.949,2.115L171.949,2.115z M163.272,174.94c0.502-1.162,0.985-2.338,1.449-3.529L10.347,0H5.721L163.272,174.94L163.272,174.94z
	 M166.488,166.484c0.421-1.266,0.814-2.539,1.186-3.824L21.181,0h-4.63L166.488,166.484L166.488,166.484z M169.156,156.973
	c0.316-1.381,0.609-2.77,0.876-4.171L32.417,0h-4.628L169.156,156.973L169.156,156.973z M170.973,146.961
	c0.203-1.513,0.376-3.038,0.517-4.572L43.251,0h-4.63L170.973,146.961L170.973,146.961z M171.883,135.975
	c0.045-1.234,0.066-2.47,0.066-3.717v-1.355L54.06,0h-4.634L171.883,135.975L171.883,135.975z M171.949,124.015v-5.141L64.887,0
	h-4.624L171.949,124.015L171.949,124.015z M171.949,111.542v-5.145L76.125,0h-4.629L171.949,111.542L171.949,111.542z
	 M171.949,99.51v-5.141L86.959,0h-4.63L171.949,99.51L171.949,99.51z"/>
<path fill="#FFFFFF" d="M5.8,16.643h9.665v2.188H5.8V16.643L5.8,16.643z M20.751,16.643v2.188h9.665v-2.188H20.751L20.751,16.643z
	 M35.703,16.643v2.188h9.666v-2.188H35.703L35.703,16.643z M50.654,16.643v2.188h9.666v-2.188H50.654L50.654,16.643z M65.605,16.643
	v2.188h9.665v-2.188H65.605L65.605,16.643z M80.556,16.643v2.188h9.665v-2.188H80.556L80.556,16.643z M95.507,16.643v2.188h9.666
	v-2.188H95.507L95.507,16.643z M110.458,16.643v2.188h9.665v-2.188H110.458L110.458,16.643z M125.41,16.643v2.188h9.668v-2.188
	H125.41L125.41,16.643z M140.363,16.643v2.188h9.666v-2.188H140.363L140.363,16.643z M155.312,16.643v2.188h9.665v-2.188H155.312
	L155.312,16.643z"/>
</svg>
