<?xml version="1.0" encoding="iso-8859-1"?>
<!-- Generator: Adobe Illustrator 17.0.0, SVG Export Plug-In . SVG Version: 6.00 Build 0)  -->
<!DOCTYPE svg PUBLIC "-//W3C//DTD SVG 1.1//EN" "http://www.w3.org/Graphics/SVG/1.1/DTD/svg11.dtd">
<svg version="1.1" id="Capa_1" xmlns="http://www.w3.org/2000/svg" xmlns:xlink="http://www.w3.org/1999/xlink" x="0px" y="0px"
	 width="124.692px" height="124.696px" viewBox="0 0 124.692 124.696" style="enable-background:new 0 0 124.692 124.696;"
	 xml:space="preserve">
<g>
	<circle style="fill:#306E00;" cx="62.346" cy="62.349" r="62.346"/>
	<circle style="fill:#2D6500;" cx="62.346" cy="62.349" r="60.36"/>
	<circle style="fill:#EFE8D0;" cx="62.346" cy="62.349" r="58.245"/>
	<circle style="fill:#FA3F00;" cx="62.346" cy="62.349" r="56.008"/>
	<g>
		<g>
			
				<ellipse transform="matrix(0.8747 -0.4847 0.4847 0.8747 -15.8728 32.7095)" style="fill:#712204;" cx="55.319" cy="47.05" rx="2.036" ry="2.713"/>
			
				<ellipse transform="matrix(0.8002 -0.5997 0.5997 0.8002 -16.9058 42.6601)" style="fill:#AD644C;" cx="55.581" cy="46.706" rx="0.661" ry="1.595"/>
		</g>
		<g>
			
				<ellipse transform="matrix(0.9741 -0.226 0.226 0.9741 -5.8428 12.7243)" style="fill:#712204;" cx="52.663" cy="31.886" rx="2.036" ry="2.714"/>
			
				<ellipse transform="matrix(0.9343 -0.3566 0.3566 0.9343 -7.7931 20.9808)" style="fill:#AD644C;" cx="53.009" cy="31.627" rx="0.661" ry="1.594"/>
		</g>
		<g>
			
				<ellipse transform="matrix(0.9863 0.165 -0.165 0.9863 5.9319 -10.3359)" style="fill:#712204;" cx="65.169" cy="30.531" rx="2.036" ry="2.714"/>
			<path style="fill:#AD644C;" d="M66.251,30.442c-0.026,0.882-0.343,1.586-0.71,1.577c-0.364-0.011-0.641-0.733-0.614-1.612
				c0.026-0.882,0.343-1.586,0.705-1.577C66.001,28.842,66.274,29.563,66.251,30.442z"/>
		</g>
		<g>
			<path style="fill:#712204;" d="M81.036,36.538c-0.894,1.202-2.346,1.639-3.25,0.969c-0.907-0.669-0.913-2.186-0.022-3.391
				c0.891-1.205,2.346-1.643,3.251-0.97C81.919,33.813,81.926,35.332,81.036,36.538z"/>
			<path style="fill:#AD644C;" d="M80.402,35.74c-0.423,0.771-1.026,1.254-1.348,1.08c-0.319-0.175-0.237-0.946,0.185-1.715
				c0.425-0.774,1.028-1.258,1.345-1.086C80.907,34.197,80.824,34.966,80.402,35.74z"/>
		</g>
		<g>
			
				<ellipse transform="matrix(0.457 -0.8895 0.8895 0.457 -26.8155 56.2757)" style="fill:#712204;" cx="32.682" cy="50.1" rx="2.036" ry="2.712"/>
			<path style="fill:#AD644C;" d="M32.925,49.043c0.831,0.291,1.407,0.805,1.285,1.152c-0.12,0.344-0.891,0.387-1.723,0.096
				c-0.828-0.292-1.406-0.808-1.287-1.149C31.322,48.794,32.094,48.752,32.925,49.043z"/>
		</g>
		<g>
			
				<ellipse transform="matrix(0.791 -0.6118 0.6118 0.791 -15.1615 33.0218)" style="fill:#712204;" cx="40.757" cy="38.705" rx="2.036" ry="2.711"/>
			<path style="fill:#AD644C;" d="M41.426,37.851c0.629,0.617,0.933,1.329,0.675,1.591c-0.254,0.259-0.972-0.027-1.601-0.644
				c-0.629-0.616-0.932-1.328-0.678-1.588C40.081,36.946,40.794,37.234,41.426,37.851z"/>
		</g>
		<g>
			
				<ellipse transform="matrix(-0.0307 -0.9995 0.9995 -0.0307 -34.6558 98.3559)" style="fill:#712204;" cx="30.363" cy="65.982" rx="2.037" ry="2.713"/>
			<path style="fill:#AD644C;" d="M30.065,64.938c0.867-0.146,1.622,0.025,1.684,0.388c0.06,0.357-0.595,0.771-1.462,0.917
				c-0.868,0.146-1.622-0.026-1.683-0.383C28.542,65.495,29.194,65.087,30.065,64.938z"/>
		</g>
		<g>
			
				<ellipse transform="matrix(-0.4264 -0.9045 0.9045 -0.4264 -21.8995 142.9482)" style="fill:#712204;" cx="34.376" cy="78.418" rx="2.036" ry="2.714"/>
			<path style="fill:#AD644C;" d="M33.689,77.581c0.736-0.48,1.498-0.625,1.698-0.314c0.198,0.304-0.239,0.943-0.976,1.422
				c-0.738,0.48-1.498,0.621-1.695,0.318C32.513,78.697,32.95,78.064,33.689,77.581z"/>
		</g>
		<g>
			
				<ellipse transform="matrix(-0.7514 -0.6599 0.6599 -0.7514 17.1083 182.8999)" style="fill:#712204;" cx="43.01" cy="88.227" rx="2.036" ry="2.713"/>
			<path style="fill:#AD644C;" d="M42.044,87.73c0.485-0.733,1.126-1.168,1.432-0.965c0.304,0.203,0.157,0.961-0.329,1.696
				c-0.484,0.733-1.126,1.165-1.428,0.966C41.411,89.225,41.56,88.471,42.044,87.73z"/>
		</g>
		<g>
			
				<ellipse transform="matrix(-0.9535 -0.3013 0.3013 -0.9535 79.1912 199.8721)" style="fill:#712204;" cx="55.01" cy="93.829" rx="2.037" ry="2.713"/>
			<path style="fill:#AD644C;" d="M53.928,93.766c0.147-0.868,0.559-1.522,0.922-1.462c0.357,0.062,0.53,0.816,0.381,1.685
				c-0.147,0.867-0.56,1.521-0.916,1.462C53.951,95.387,53.781,94.636,53.928,93.766z"/>
		</g>
		<g>
			<path style="fill:#712204;" d="M66.019,94.36c-0.153-1.489,0.628-2.79,1.747-2.906c1.118-0.116,2.15,0.998,2.304,2.488
				c0.153,1.493-0.629,2.795-1.747,2.911C67.205,96.969,66.176,95.853,66.019,94.36z"/>
			<path style="fill:#AD644C;" d="M67.025,94.525c-0.21-0.856-0.093-1.62,0.267-1.709c0.352-0.085,0.811,0.538,1.019,1.395
				c0.211,0.854,0.09,1.618-0.26,1.705C67.692,96.004,67.236,95.382,67.025,94.525z"/>
		</g>
		<g>
			
				<ellipse transform="matrix(-0.8789 0.477 -0.477 -0.8789 192.5527 130.1557)" style="fill:#712204;" cx="79.755" cy="89.519" rx="2.036" ry="2.713"/>
			<path style="fill:#AD644C;" d="M78.958,90.255c-0.522-0.709-0.708-1.46-0.41-1.679c0.292-0.214,0.956,0.186,1.476,0.896
				c0.524,0.707,0.708,1.458,0.417,1.674C80.143,91.363,79.484,90.965,78.958,90.255z"/>
		</g>
		<g>
			<path style="fill:#712204;" d="M87.509,82.325c-1.168-0.94-1.537-2.411-0.833-3.287c0.705-0.875,2.224-0.823,3.39,0.117
				c1.167,0.943,1.541,2.416,0.837,3.291C90.194,83.321,88.679,83.266,87.509,82.325z"/>
			<path style="fill:#AD644C;" d="M88.333,81.726c-0.754-0.452-1.214-1.074-1.023-1.392c0.189-0.308,0.953-0.196,1.707,0.26
				c0.754,0.451,1.214,1.075,1.027,1.386C89.855,82.295,89.093,82.18,88.333,81.726z"/>
		</g>
		<g>
			<path style="fill:#712204;" d="M94.027,67.075c-1.48-0.229-2.536-1.318-2.364-2.431c0.172-1.108,1.514-1.823,2.994-1.592
				c1.483,0.232,2.543,1.321,2.37,2.431C96.85,66.596,95.511,67.306,94.027,67.075z"/>
			<path style="fill:#AD644C;" d="M94.441,66.146c-0.88-0.016-1.589-0.324-1.582-0.694c0.009-0.361,0.728-0.646,1.608-0.629
				c0.877,0.015,1.588,0.325,1.582,0.688C96.044,65.876,95.326,66.158,94.441,66.146z"/>
		</g>
		<g>
			
				<ellipse transform="matrix(0.3596 0.9331 -0.9331 0.3596 103.9304 -54.0121)" style="fill:#712204;" cx="91.315" cy="48.711" rx="2.036" ry="2.713"/>
			<path style="fill:#AD644C;" d="M91.941,49.599c-0.77,0.425-1.538,0.513-1.716,0.19c-0.175-0.317,0.306-0.925,1.077-1.348
				c0.767-0.428,1.538-0.516,1.713-0.198C93.194,48.563,92.714,49.168,91.941,49.599z"/>
		</g>
		<g>
			
				<ellipse transform="matrix(0.9612 0.2757 -0.2757 0.9612 15.6024 -17.0891)" style="fill:#712204;" cx="68.579" cy="46.945" rx="2.036" ry="2.713"/>
			
				<ellipse transform="matrix(0.9899 0.1417 -0.1417 0.9899 7.3418 -9.3071)" style="fill:#AD644C;" cx="69.008" cy="46.887" rx="0.661" ry="1.594"/>
		</g>
		<g>
			
				<ellipse transform="matrix(0.4845 0.8748 -0.8748 0.4845 89.4277 -39.2634)" style="fill:#712204;" cx="78.029" cy="56.247" rx="2.036" ry="2.713"/>
			<path style="fill:#AD644C;" d="M78.771,57.039c-0.706,0.526-1.453,0.721-1.674,0.425c-0.22-0.291,0.174-0.955,0.879-1.484
				c0.706-0.527,1.456-0.719,1.671-0.428C79.868,55.846,79.475,56.512,78.771,57.039z"/>
		</g>
		<g>
			
				<ellipse transform="matrix(-0.2758 0.9612 -0.9612 -0.2758 166.4966 13.5779)" style="fill:#712204;" cx="78.134" cy="69.507" rx="2.037" ry="2.713"/>
			<path style="fill:#AD644C;" d="M78.099,70.592c-0.872-0.128-1.537-0.519-1.485-0.884c0.051-0.362,0.799-0.552,1.671-0.428
				c0.874,0.127,1.539,0.52,1.484,0.879C79.718,70.524,78.969,70.717,78.099,70.592z"/>
		</g>
		<g>
			<path style="fill:#712204;" d="M67.049,79.944c-0.722-1.309-0.518-2.814,0.466-3.36c0.984-0.548,2.372,0.075,3.097,1.387
				c0.728,1.31,0.521,2.814-0.463,3.362C69.162,81.877,67.776,81.254,67.049,79.944z"/>
			<path style="fill:#AD644C;" d="M68.04,79.7c-0.525-0.708-0.721-1.454-0.427-1.676c0.294-0.22,0.956,0.177,1.485,0.879
				c0.528,0.706,0.722,1.456,0.428,1.671C69.232,80.797,68.567,80.404,68.04,79.7z"/>
		</g>
		<g>
			<path style="fill:#712204;" d="M53.612,78.499c0.416-1.437,1.624-2.356,2.707-2.046c1.083,0.309,1.625,1.73,1.208,3.17
				c-0.411,1.44-1.621,2.359-2.704,2.051C53.74,81.36,53.202,79.94,53.612,78.499z"/>
			<path style="fill:#AD644C;" d="M54.485,79.027c0.131-0.872,0.52-1.537,0.885-1.486c0.362,0.052,0.55,0.801,0.428,1.671
				c-0.125,0.874-0.518,1.54-0.879,1.485C54.552,80.646,54.36,79.897,54.485,79.027z"/>
		</g>
		<g>
			<path style="fill:#712204;" d="M45.133,67.977c1.311-0.721,2.815-0.519,3.362,0.467c0.547,0.984-0.076,2.373-1.389,3.096
				c-1.307,0.729-2.813,0.522-3.36-0.461C43.202,70.091,43.825,68.705,45.133,67.977z"/>
			<path style="fill:#AD644C;" d="M45.377,68.968c0.71-0.524,1.454-0.719,1.677-0.425c0.221,0.292-0.178,0.954-0.879,1.484
				c-0.704,0.528-1.455,0.722-1.67,0.428C44.28,70.159,44.673,69.494,45.377,68.968z"/>
		</g>
		<g>
			<path style="fill:#712204;" d="M46.58,54.54c1.435,0.418,2.355,1.624,2.046,2.708c-0.309,1.082-1.732,1.623-3.17,1.207
				c-1.441-0.409-2.361-1.62-2.052-2.703C43.718,54.669,45.139,54.131,46.58,54.54z"/>
			<path style="fill:#AD644C;" d="M46.05,55.413c0.873,0.133,1.537,0.519,1.487,0.887c-0.049,0.362-0.8,0.549-1.672,0.428
				c-0.872-0.125-1.539-0.52-1.483-0.879C44.432,55.48,45.18,55.288,46.05,55.413z"/>
		</g>
	</g>
</g>
</svg>
