<?xml version="1.0" encoding="utf-8"?>
<!-- Generator: Adobe Illustrator 17.0.0, SVG Export Plug-In . SVG Version: 6.00 Build 0)  -->
<!DOCTYPE svg PUBLIC "-//W3C//DTD SVG 1.1//EN" "http://www.w3.org/Graphics/SVG/1.1/DTD/svg11.dtd">
<svg version="1.1" id="Livello_1" xmlns="http://www.w3.org/2000/svg" xmlns:xlink="http://www.w3.org/1999/xlink" x="0px" y="0px"
	 width="191.257px" height="181.464px" viewBox="0 0 191.257 181.464" enable-background="new 0 0 191.257 181.464"
	 xml:space="preserve">
<path fill="#DCDDDD" d="M72.088,176.995c-0.171-0.345-0.428-0.602-0.773-0.602c-0.343,0-0.688,0.26-0.688,0.602
	c0,0.514,0.599,0.688,1.29,0.945c0.602,0.257,1.201,0.688,1.201,1.547c0,1.03-0.773,1.801-1.804,1.801
	c-0.945,0-1.632-0.514-1.889-1.373l0.773-0.343c0.257,0.514,0.516,0.859,1.116,0.859c0.516,0,0.859-0.345,0.859-0.859
	c0-1.204-2.406-0.776-2.406-2.491c0-0.947,0.688-1.549,1.632-1.549c0.602,0,1.201,0.431,1.461,1.03L72.088,176.995L72.088,176.995z
	 M76.639,179.4l-1.632-3.695h-1.033l2.663,5.758l1.632-3.955l1.721,3.955l2.663-5.758h-1.03L79.99,179.4l-1.721-4.124L76.639,179.4
	L76.639,179.4z M84.975,181.118v-5.413h-0.859v5.413H84.975L84.975,181.118z M85.232,173.642c0-0.343-0.343-0.599-0.688-0.599
	c-0.343,0-0.688,0.259-0.688,0.599c0,0.345,0.345,0.688,0.688,0.688C84.889,174.33,85.232,173.987,85.232,173.642L85.232,173.642z
	 M89.358,176.995l0.773-0.431c-0.257-0.599-0.859-1.03-1.458-1.03c-0.862,0-1.632,0.599-1.632,1.549
	c0,1.715,2.491,1.287,2.491,2.491c0,0.514-0.431,0.859-0.859,0.859c-0.688,0-0.945-0.345-1.118-0.859l-0.859,0.343
	c0.343,0.859,1.03,1.373,1.892,1.373c1.03,0,1.889-0.771,1.889-1.801c0-0.859-0.599-1.29-1.29-1.547
	c-0.599-0.259-1.202-0.431-1.202-0.945c0-0.345,0.343-0.602,0.602-0.602C88.927,176.393,89.184,176.65,89.358,176.995
	L89.358,176.995z M94.426,176.995l0.773-0.431c-0.26-0.599-0.859-1.03-1.461-1.03c-0.859,0-1.632,0.599-1.632,1.549
	c0,1.715,2.491,1.287,2.491,2.491c0,0.514-0.428,0.859-0.859,0.859c-0.688,0-0.945-0.345-1.116-0.859l-0.862,0.34
	c0.26,0.859,1.033,1.373,1.892,1.373c1.033,0,1.892-0.771,1.892-1.801c0-0.859-0.602-1.29-1.29-1.547
	c-0.602-0.259-1.29-0.431-1.29-0.945c0-0.345,0.343-0.602,0.688-0.602C93.998,176.393,94.254,176.65,94.426,176.995L94.426,176.995z
	 M102.242,176.305v-0.599h-0.945v5.413h0.945v-2.836c0-0.773,0.086-1.892,1.204-1.892c0.859,0,0.945,0.947,0.945,1.632v3.093h0.947
	v-2.836c0-0.859,0.083-1.892,1.116-1.892c0.945,0,1.03,0.862,1.03,1.549v3.179h0.947v-3.265c0-1.204-0.345-2.323-1.804-2.323
	c-0.602,0-1.287,0.345-1.547,0.945c-0.343-0.599-0.947-0.945-1.549-0.945C103.018,175.534,102.502,175.876,102.242,176.305
	L102.242,176.305L102.242,176.305z M112.9,176.393c-1.118,0-1.806,0.947-1.806,1.977s0.602,2.063,1.806,2.063
	c1.202,0,1.804-0.945,1.804-2.063C114.703,177.254,114.016,176.393,112.9,176.393L112.9,176.393z M115.56,175.705v5.413h-0.942
	v-0.773l0,0c-0.516,0.599-1.118,0.942-1.892,0.942c-1.549,0-2.579-1.373-2.579-2.834c0-1.549,0.945-2.922,2.579-2.922
	c0.773,0,1.461,0.345,1.892,0.945l0,0v-0.773h0.942V175.705z M119.943,176.393c-1.028,0-1.718,0.947-1.718,1.977
	s0.602,2.063,1.718,2.063c1.207,0,1.892-0.945,1.892-2.063C121.832,177.254,121.15,176.393,119.943,176.393L119.943,176.393z
	 M121.749,181.118v-0.773l0,0c-0.431,0.599-1.118,0.942-1.892,0.942c-1.632,0-2.577-1.373-2.577-2.834
	c0-1.549,0.945-2.922,2.577-2.922c0.771,0,1.458,0.345,1.892,0.945l0,0v-4.897h0.945v9.537h-0.945V181.118z M125.356,177.854h3.265
	c-0.171-0.773-0.773-1.461-1.632-1.461C126.218,176.393,125.444,177.08,125.356,177.854L125.356,177.854z M129.565,178.627h-4.295
	c0.086,0.945,0.773,1.804,1.804,1.804c0.773,0,1.29-0.516,1.632-1.118l0.771,0.431c-0.514,0.942-1.373,1.544-2.491,1.544
	c-1.632,0-2.665-1.287-2.665-2.834c0-1.549,0.947-2.922,2.665-2.922C128.709,175.534,129.651,176.995,129.565,178.627
	L129.565,178.627z M130.769,135.752h59.888v-3.093h-10.741c-5.242,0-6.789-2.146-10.313-6.7l-55.76-71.226L151.82,18.3
	c5.841-5.67,16.066-15.207,27.492-15.207h6.443V0h-50.52v3.091h10.741c6.272,0,8.076,1.461,8.076,4.04
	c0,3.867-14.691,18.388-20.706,24.059L96.831,66.332V3.091h19.59V0H59.629v3.091h17.527v129.568H59.629v3.093h56.792v-3.093h-19.59
	V70.712l2.579-1.892l49.316,63.838h-17.958V135.752L130.769,135.752z M68.218,102.502h1.632V78.357h-1.632
	c0,12.716-9.708,25.348-22.424,25.348c-18.215,0-20.706-22.512-20.706-35.83s2.491-35.83,20.706-35.83
	c12.459,0,22.424,11.514,22.424,23.2h1.632V33.338h-1.632c0,2.491-1.03,4.552-3.867,4.552c-3.778,0-8.25-7.474-18.557-7.474
	c-17.27,0-32.22,16.497-32.22,37.462c0,20.88,14.95,37.462,32.22,37.462c10.396,0,15.895-7.905,18.817-7.905
	C67.103,97.433,68.218,100.438,68.218,102.502L68.218,102.502z M63.924,163.503l-2.406-5.411h-1.547l3.952,8.592l2.491-6.013
	l2.491,6.013l4.038-8.592h-1.547l-2.406,5.411l-2.577-6.01L63.924,163.503L63.924,163.503z M83.342,166.168v-8.076h-1.375v1.116
	h-0.086c-0.602-0.856-1.632-1.373-2.751-1.373c-2.406,0-3.867,1.977-3.867,4.297c0,2.232,1.458,4.209,3.867,4.209
	c1.116,0,2.06-0.431,2.751-1.29h0.086v1.118h1.375V166.168z M76.639,162.045c0-1.549,1.03-2.925,2.663-2.925
	c1.718,0,2.751,1.29,2.751,2.925c0,1.63-0.945,3.091-2.751,3.091C77.584,165.138,76.639,163.589,76.639,162.045L76.639,162.045z
	 M90.302,166.08v-7.129h1.804v-1.287h-1.804v-3.695h-1.375v3.695h-1.202v1.287h1.202v7.129H90.302L90.302,166.08z M101.988,160.498
	v-1.804c-0.688-0.514-1.635-0.859-2.491-0.859c-2.323,0-4.297,1.892-4.297,4.297c0,2.406,1.892,4.209,4.297,4.209
	c0.942,0,1.804-0.262,2.577-0.776v-1.892h-0.086c-0.602,0.947-1.461,1.461-2.577,1.461c-1.718,0-2.836-1.461-2.836-3.005
	c0-1.635,1.204-3.01,2.922-3.01C100.524,159.12,101.3,159.639,101.988,160.498L101.988,160.498L101.988,160.498z M108.26,153.107
	h-1.375v13.061h1.375v-3.867c0-1.458,0.086-3.182,1.977-3.182c1.63,0,1.718,1.207,1.718,2.491v4.557h1.375v-4.814
	c0-1.892-0.514-3.521-2.751-3.521c-1.03,0-1.718,0.431-2.32,1.204l0,0L108.26,153.107L108.26,153.107z M118.739,162.387h6.358
	c0.171-2.406-1.202-4.554-3.867-4.554c-2.491,0-3.864,1.977-3.864,4.383c0,2.32,1.547,4.124,3.95,4.124
	c1.632,0,2.922-0.776,3.693-2.232l-1.116-0.69c-0.599,0.945-1.287,1.718-2.491,1.718
	C119.86,165.138,118.739,163.934,118.739,162.387L118.739,162.387z M123.641,161.271h-4.814c0.171-1.202,1.29-2.149,2.491-2.149
	C122.52,159.123,123.467,160.07,123.641,161.271L123.641,161.271z M132.832,159.982l1.116-0.602
	c-0.343-0.859-1.202-1.547-2.146-1.547c-1.29,0-2.408,0.945-2.408,2.323c0,2.491,3.695,1.892,3.695,3.693
	c0,0.776-0.599,1.29-1.29,1.29c-0.947,0-1.375-0.599-1.721-1.29l-1.202,0.516c0.431,1.202,1.547,1.977,2.836,1.977
	c1.547,0,2.748-1.03,2.748-2.579c0-1.373-0.945-1.977-1.892-2.32c-0.945-0.431-1.804-0.688-1.804-1.458
	c0-0.516,0.516-0.862,0.947-0.862C132.23,159.12,132.659,159.551,132.832,159.982L132.832,159.982z"/>
<path fill="#0A0A0A" d="M171.496,51.981c-0.514,0-1.033-0.514-1.033-1.118c0-0.514,0.519-1.03,1.033-1.03
	c0.599,0,1.116,0.516,1.116,1.03C172.612,51.467,172.095,51.981,171.496,51.981L171.496,51.981z M189.451,72.601v-8.932
	c0-2.323-1.718-4.126-3.95-4.126c-2.323,0-4.04,1.635-4.04,4.126v8.932h-1.804v-14.26h1.804v1.373
	c0.947-1.202,2.406-1.804,4.04-1.804c3.179,0,5.756,2.663,5.756,5.758v8.932L189.451,72.601L189.451,72.601z M170.723,72.601v-14.26
	h1.632v14.26L170.723,72.601L170.723,72.601z M150.445,65.559c0,3.265,2.579,5.67,5.844,5.67c2.317,0,4.209-1.202,5.156-3.265
	l1.544,0.859c-1.202,2.406-3.693,4.212-6.7,4.212c-4.209,0-7.562-3.438-7.562-7.648c0-4.04,3.353-7.476,7.562-7.476
	c4.124,0,7.474,3.436,7.474,7.476c0,0.171,0,0.171,0,0.171L150.445,65.559L150.445,65.559z M140.306,72.601V49.833h1.635v22.769
	H140.306L140.306,72.601z M131.371,72.601l-8.076-11.512l-1.632,1.632v9.879h-1.721V49.833h1.721v10.398l9.537-10.398h2.317
	l-9.109,9.882l9.109,12.887H131.371L131.371,72.601z M102.502,72.601v-8.932c0-2.323-1.718-4.126-4.038-4.126
	c-2.149,0-3.952,1.635-3.952,4.126v8.932h-1.718v-14.26h1.718v1.373c0.859-1.202,2.491-1.804,3.952-1.804
	c3.265,0,5.67,2.663,5.67,5.758v8.932L102.502,72.601L102.502,72.601z M81.108,51.981c-0.602,0-1.118-0.514-1.118-1.118
	c0-0.514,0.516-1.03,1.118-1.03c0.514,0,1.03,0.516,1.03,1.03C82.138,51.467,81.624,51.981,81.108,51.981L81.108,51.981z
	 M80.249,72.601v-14.26h1.632v14.26L80.249,72.601L80.249,72.601z M66.158,73.549l-6.96-15.207h1.889l5.071,11.169l5.154-11.169
	h1.892L66.158,73.549L66.158,73.549z M50.092,72.601V49.833h1.804v22.769H50.092L50.092,72.601z M39.522,72.601v-2.574
	c-1.375,1.804-3.521,3.008-5.93,3.008c-4.124,0-7.474-3.438-7.474-7.648c0-4.04,3.35-7.476,7.474-7.476
	c2.406,0,4.554,1.29,5.93,3.008v-2.577h1.804v14.26L39.522,72.601L39.522,72.601z M11.514,73.035C5.156,73.035,0,67.705,0,61.347
	s5.156-11.683,11.514-11.683c2.922,0,5.499,1.116,7.391,2.748l-1.204,1.202c-1.632-1.373-3.867-2.06-6.187-2.06
	c-5.242,0-9.622,4.383-9.622,9.794c0,5.413,4.383,9.882,9.622,9.882c2.32,0,4.554-0.773,6.187-2.146l1.202,1.373
	C17.013,72.085,14.434,73.035,11.514,73.035L11.514,73.035z M33.595,59.541c-3.265,0-5.844,2.579-5.844,5.844
	c0,3.265,2.577,5.841,5.844,5.841c3.179,0,5.756-2.577,5.756-5.841C39.351,62.12,36.774,59.541,33.595,59.541L33.595,59.541z
	 M156.289,59.541c-2.663,0-4.811,1.804-5.67,4.209h11.255C161.098,61.347,158.866,59.541,156.289,59.541L156.289,59.541z"/>
</svg>
