<?xml version="1.0" encoding="utf-8"?>
<!-- Generator: Adobe Illustrator 17.0.0, SVG Export Plug-In . SVG Version: 6.00 Build 0)  -->
<!DOCTYPE svg PUBLIC "-//W3C//DTD SVG 1.1//EN" "http://www.w3.org/Graphics/SVG/1.1/DTD/svg11.dtd">
<svg version="1.1" id="图层_1" xmlns="http://www.w3.org/2000/svg" xmlns:xlink="http://www.w3.org/1999/xlink" x="0px" y="0px"
	 width="283.465px" height="283.464px" viewBox="0 0 283.465 283.464" enable-background="new 0 0 283.465 283.464"
	 xml:space="preserve">
<path fill="#FF5050" d="M266.619,196.312c0.566-0.854,0.28-2.287,1.42-2.717c1.149,0.43,2.285,1.285,3.43,0.857
	c0.135-1.714,3.277-4.288,0.135-5.283c-3.131-0.712-5.699-2.571-8.697-3.431c0.571-2.72,1.859-5.139,2.145-7.861
	c0.715-2.709,1.998-5.572,2.134-8.573c0.577-0.854,1.576-0.282,2.145,0c0.994,1.716-0.998,3.573-0.569,5.724
	c0.428,1.569,2.56,0.426,2.843,1.994c0.147,1.287-0.848,2.288-0.848,3.435c-1.289,0.999-2.564-1.001-3.707,0.143
	c-0.289,1.279-1.432,2.282-1.145,3.709c2.856,1.291,5.416,3.004,8.56,3.714c1.281,2.856-1.428,5.29-2.002,8.009
	c-0.859,2.848-2.846,5.282-3.274,8.136c-0.428,0.288-0.716,0.288-1.149,0c-1.279-0.71-0.137-1.852,0-2.714
	c0.576-1.144,2.571-3.142,0.434-3.999C267.762,197.31,266.9,197.025,266.619,196.312z M255.495,216.316
	c0.85-0.718,1.259-2.693,2.278-2.434c0.859,0.863,1.709,1.43,2.853,1.716c1-1.429,2.14-3.144,2.708-4.997
	c-2.568-2.148-5.842-3.719-8.844-5.576c-0.525-0.832,1.673-4.775,3.436-8.271c1.57-3.116,2.7-5.875,2.7-5.875
	c0.713-0.572,1.858,0,2.14,0.861c-0.281,1.426-2,2.712-1.285,4.291c0.719,0.994,3.285,0.566,2.713,2.423
	c-0.57,0.712-0.289,1.855-1.428,2.144c-1.427,0.428-2-1.574-3.283-0.856c-1.136,1.141-1.709,2.572-2.134,4
	c0.284,1.141,1.571,1.709,2.421,1.998l5.707,3.571c0.289,1.29-0.572,2.571-1.139,3.711c-2.857,4.144-5.418,8.437-8.277,12.579
	c-0.565,0.145-1.424-0.143-1.57-0.858c0.149-0.474,2.338-3.702,2.793-4.285c0.372-0.475,0.603-1.008,0.35-1.715
	C256.922,217.885,254.784,217.885,255.495,216.316z M240.942,239.459c-0.143-1.426-3.275-2.428-1.139-3.994
	c0.996-0.288,1.139-2.008,2.281-1.436c0.716,0.857,1.424,1.856,2.426,2c1.283-1.143,2.566-2.715,3.57-4.143l-0.578-1.143
	c-1.564-1.29-3.135-2.999-4.852-3.999l-2.702-2.429c0.106-0.319,1.856-1.856,2.702-3.003c2.859-3.711,5.143-7.712,8.138-11.433
	c0.712-0.279,1.002,0.578,1.566,0.721c0.007,0.25-1.131,1.881-1.711,3.143c-1,0.855-0.431,2.001,0.71,2.426
	c0.437,0.576,1.288,0.715,1.572,1.568c-1.285,0.715-1.426,2.576-2.996,2.72c-1.568,0.287-2.57-2.999-3.847-0.575
	c-0.497,0.857-3.154,2.756-2.146,4.148c2.429,2.283,5.424,3.998,7.562,6.567c0.141,1.434-1.856,1.718-1.999,2.858
	c-3.564,3.715-7.13,7.717-10.987,11.146c-0.708,0.147-0.992-0.571-1.278-0.996l0.286-1.006L240.942,239.459z M219.691,252.029
	c1.569-0.284,2.425-1.712,3.855-2.423c1.418,0.85,1.854,2.713,3.427,2.854c0.854-1.286,2.847-1.712,3.273-3.286
	c-1.57-3-3.564-5.424-5.704-8.143c-0.145-0.43-0.714-0.863-0.283-1.428c4.417-3.428,8.552-7.287,12.112-11.289
	c0.718,0.141,1.581,0.288,1.435,1.14c-0.717,1.718-2.422,3.001-3.566,4.429c-0.137,1.717,2.995,1.859,1.854,3.724
	c-0.854,0.71-1.423,1.564-2.568,1.714c-1.565-0.149-1.428-2.861-3.133-1.997c-0.859,0.993-2.284,1.848-2.857,2.993
	c1.141,3.002,4.425,5.433,5.851,8.282c-1.288,2.862-4.564,3.575-6.563,5.717l-0.714,0.288c-1.998,2.146-4.849,3.43-6.987,5.289
	c-0.715,0.426-1.43-0.144-1.572-0.859c0-1.422,1.713-1.143,2.425-2.283c0.573-0.572,1.998-1.287,1.142-2.435
	C220.409,253.607,219.835,252.891,219.691,252.029z M200.722,267.316c0-1.277-1.142-2.57,0-3.566l2.991-1.428
	c1.573,0.564,1.285,3.857,3.574,2.995c0.992-0.571,2.137-0.997,3.133-1.991c-1.142-3.434-3.418-6.436-4.856-9.719l0.148-0.574
	c2.425-2.285,5.704-3.283,8.274-5.286l5.418-3.856c0.569,0,1.004,0.713,1.143,1.283c0,1.145-1.711,1.574-2.567,2.285
	c-0.714,0.426-1.571,0.574-1.857,1.284c-0.145,1.29,1.426,2.289,1.426,3.431c-0.995,0.57-1.57,2.142-2.845,1.576
	c-1.002-0.717-0.718-2.434-1.858-2.718c-1.715,0.429-2.706,1.858-4.279,2.286l-0.287,0.717c1.572,3.143,3.714,6.283,5.136,9.57
	c-0.855,0.994-2.423,1.424-3.707,2.143c-4.281,2.141-8.419,4.572-12.979,5.999c-0.428-0.143-0.857-0.429-1.001-0.862l0.286-0.706
	C197.44,269.032,199.297,268.746,200.722,267.316z M177.762,275.893c1.421-0.57-0.145-1.855,0-2.86
	c0.275-1.577,2.276-1.14,3.412-1.577c1.002,0.724,0.569,2.008,1.286,2.869c1.716,0.28,3.286-0.722,4.708-1.292
	c-0.707-2.427-1.137-5.002-2.566-7.142c-0.145-1.145-1.289-2.859,0-3.855c4.849-1.434,9.698-3.143,14.12-5.725
	c0.574-0.42,1.568-1.279,2.139-0.275c0.71,2.716-2.705,2.857-3.99,4.14c0,0.999,0.426,1.714,0.857,2.431
	c1.137,1.715-1.428,1.862-2.428,2.424c-0.572,0.288-1.289,0.435-1.571-0.43c-0.995-0.705-0.138-2.564-1.565-2.848
	c-1.429,1.279-3.143,1.422-4.703,2.277c0.141,2.15,0.995,4.001,1.852,6.009c0,1.466,1.491,3.31,0.517,4.479l-1.024,0.457
	c-0.023-0.032-0.036-0.055-0.061-0.085c-3.716,1.862-7.987,2.57-11.991,3.864c-0.852,0.566-2.275,0.42-3.131,0.42
	c-0.429-0.42-0.574-0.993-0.574-1.568C174.332,276.607,176.043,276.322,177.762,275.893z M153.795,280.322
	c0.852-1.148-0.856-2.862,0.426-3.715l4.559-0.143c1,0.995,0,3.857,2.143,3.428c1.57,0,3.144,0,4.285-0.994
	c-0.43-3.727-1.291-7.443-1.569-10.868c4.99-1.282,10.27-1.991,14.974-3.855l0.419,0.719c-0.132,0.714,0.583,1.709-0.702,1.854
	c-1.002,0.717-2.428,0.433-3.561,0.717c-1.146,1.422,1.566,3.002-0.145,4.282c-1.002,0-2.434,1.003-2.857-0.292
	c-0.572-0.85,0-2.423-1.143-2.848c-1.428,0.139-2.703,0.996-3.994,0.996c-0.432,3.859,1.571,7.004,1.854,10.859
	c-2.429,1.431-13.552,2.294-16.262,2.574c-1.427-0.28-3.278,1.287-4.56-0.28c-0.145-0.439-0.579-1.149,0-1.581
	C149.369,279.893,151.937,281.461,153.795,280.322z M128.118,279.469c0.857-1.004-0.998-3.576,1.568-3.004
	c0.855,0.43,2.854-0.429,3.14,0.995c0.286,1.15-0.429,2.862,1.286,3.003c1.85-0.285,3.848,1.29,5.273-0.424l0.293-9.572
	c1.276-2.146,3.846-0.571,5.839-0.863c3.852,0,7.993-0.717,11.842-1.141c0.569,0.145,0.991,0.569,1.14,1.141
	c0.281,2.715-3.277,1.002-4.703,1.852c-0.72,0.149-1.994-0.283-2.148,0.863c0,1.145,0.863,2.435-0.273,3.148
	c-1.719,0-3.711,0.998-4.716-0.295c0.146-0.995,0.146-2.14-0.142-3.137c-1.143-0.431-2.852-0.431-4.135,0.283
	c-1.139,3.288-0.284,6.718-0.713,10.288c-1.002,1.001-2.423,0.431-3.709,0.431c-4.277-0.28-11.581-0.662-16.828-1.284
	c-0.57-0.577-0.29-1.575,0-2.284C123.411,278.754,125.977,279.893,128.118,279.469z M102.161,274.324
	c0.566-0.722,0.279-3.719,2.422-2.432c1.139,0,2.427,0.426,2.855,1.426c0.141,1.145-1.285,2.718,0.141,3.576
	c1.854,0,3.994,1.57,5.418,0c0.289-3.292,1.146-6.716,1.855-9.861l0.713-0.43c5.567,1.427,11.127,1.718,17.117,2.283
	c0.57-0.141,1.142,0.286,1.281,0.859c0,0.721-0.281,1.426-0.999,1.709l-4.985-0.418c-1.145,0.998-0.43,2.566-0.717,3.716
	c-1.715,0.137-3.279,0.137-4.996-0.29c-1.135-1.431,0.721-2.858-0.569-4.143c-1.28-0.574-2.563-0.574-3.989-0.717l-0.719,0.575
	c-0.707,3.14-1.85,6.286-1.709,9.29c-0.141,0.994-1.283,0.57-1.854,0.854c-1.564-0.283-9.559-2.576-10.658-2.862
	c-2.281-0.595-4.436-1.367-6.459-2.138c-0.426-0.569,0-1.146,0.145-1.72C98.309,273.182,100.022,275.322,102.161,274.324z
	 M79.194,265.317c1.142-0.718,0.568-2.857,2.14-2.567c0.997,0.576,2.853,0.855,2.999,2.145c-0.146,1.145-1.146,2.286-0.433,3.287
	c1.713,0.281,2.855,1.856,4.708,1.564l4.279-9.428c1.283-1.285,2.854,0.713,4.42,0.713c3.568,1.719,7.418,2.998,11.41,3.863
	c0.715,0.569,0.432,1.285,0.145,1.998l-0.428,0.141c-1.709-0.568-3.28-0.285-4.99-0.994c-1.142,0.709-0.287,2.707-1.574,3.564
	c-1.137-0.142-2.563,0-2.991-1.141c-0.143-1.43,0.853-2.854,0.142-4.143l-3.85-1.434l-0.858,0.719
	c-0.996,2.998-2.851,5.715-3.989,8.573c-2.141,1.14-3.852-1.142-5.85-1.294c-1.143-1.281-2.854-1.139-4.138-2.139l-7.417-3.852
	c-0.567-0.574,0-1.289,0.283-1.721c1.571-1.139,2.43,1.294,3.854,1.572C77.769,264.895,78.196,265.608,79.194,265.317z
	 M59.227,249.031c0.713,0.719,2.855,1.141,2.142,2.574c-0.571,0.568-1.429,1.139-1.146,2.145c2.003,1.141,3.283,3.568,5.709,3.428
	c1.993-2.718,3.704-5.433,5.42-8.286c1.851-0.438,3.566,1.28,5.131,2.282c3.71,1.717,7.276,4.145,10.986,6.004
	c0.567,0.434,0,0.855-0.142,1.285c-1.714,0.998-3.282-1.006-4.996-1.285c-1.853,0.141-1.565,2.283-2.85,2.997
	c-1.285-0.572-2.853-0.714-3.569-2l1.714-3.715c-1.281-0.852-3.275-1.142-4.276-2.854l-0.857,0.14
	c-1.567,2.425-3.138,5.005-4.848,7.571c-0.859,1.858-1.948,0.678-3.229,0.256l-1.479-0.973l-6.706-4.284
	c-1.567-1.712-3.565-3.422-5.56-4.565c-0.859-0.576,0-1.437,0.422-2.003c0.148-0.288,0.574-0.288,0.863-0.148l2.993,2.572
	c0.284,0.86,1.426,1.145,1.992,0.576C57.658,250.317,58.084,248.892,59.227,249.031z M41.253,231.596
	c0.856,1.006,1.854,1.582,1.995,2.861c-0.994,1.008-2.279,1.429-2.279,2.866c0.854,1.567,2.139,2.28,3.28,3.423l1.139-0.145
	c2.142-2.428,4.708-4.716,6.989-6.999c0.57-0.425,1.289-0.146,1.713,0.28c2.851,3.289,6.42,5.576,9.699,8.719
	c1.002,1.006,3.278,1.579,2.281,3.287c-0.282,0.57-1.14,0.285-1.565,0c-1.569-0.286-1.857-2.854-3.567-2.281
	c-0.998,0.705-1.287,2.426-2.57,2.426c-1.283-0.431-2.138-1.572-2.993-2.57c0-1.43,2.423-2.004,1.71-3.721
	c-1.277-0.851-2.422-2.994-4.279-2.57c-2.135,2.717-4.845,4.573-6.988,7.141h-0.994c-4.141-4.275-8.989-8.137-12.123-13.285
	c0.422-0.564,1.135-1.996,2.139-1.285c1.422,1.143,1.998,3.572,3.994,3.145C39.685,232.455,40.26,231.027,41.253,231.596z
	 M26.847,213.311c0.427,0.859,1.567,1.574,1.142,2.718c-0.854,0.575-2.281,1.138-2.566,2.282c0.852,1.572,1.712,3.291,3.139,4.435
	c3.278-1.575,6.418-4.002,9.411-6.142l0.716,0.143c2.993,3.999,6.561,7.997,9.984,11.709c0,0.718-0.712,1.287-1.285,1.721
	c-1.57-0.859-2.283-2.862-3.992-3.714c-0.999,0.708-1.714,2.276-3.135,1.993c-0.719-0.852-1.717-1.428-1.717-2.432l2.282-2.278
	c-0.43-1.718-1.993-3.146-3.138-4.144c-2.85,2.426-5.988,4.144-8.845,6.57h-0.429c-3.42-4.858-6.701-10.144-9.836-15.145
	c-0.147-0.568,0.282-0.855,0.713-1.283c0.851-0.143,1.421,0.566,1.565,1.283c1.002,0.999,1.287,3.143,2.997,2.855
	C24.707,213.311,25.993,211.883,26.847,213.311z M16.151,191.596c0,0.855,1.57,2.43-0.146,3c-0.851,0.141-1.853,0.424-2.42,1.144
	c0.567,2,1.569,3.71,2.42,5.427c3.57-0.856,6.853-2.712,10.27-4.141l0.431,0.142c2.283,4.718,4.994,9.288,7.845,13.86
	c0.144,0.719-0.716,1.141-1.146,1.285c-1.565-0.861-1.705-3.281-3.418-3.996c-1.282,0.283-2.141,1.712-3.564,1.428
	c-0.57-1.004-1.857-2.002-1.289-3.144c0.859-1.005,4.283-1.575,2.285-3.431c-0.996-0.855-0.854-2.713-2.285-2.86
	c-1.28,0.716-2.848,1.575-4.277,1.864c-1.711,1.137-3.709,2.709-5.988,2.281c-2.428-4.713-4.279-9.719-6.563-14.575
	c0-0.571-0.286-1.144,0-1.712c0.713-0.287,1.427-0.717,2.284-0.566c0.855,1.567,0.855,4.28,2.996,4.568
	C14.44,191.882,15.154,190.734,16.151,191.596z M8.591,168.309c1.14,1.283,0.71,2.855,1.285,4.144
	c-1.14,0.712-2.569,0.995-3.708,1.142c-0.858,1.574,0.85,2.709,0.713,4.283c0.137,0.432,0,1.006,0.426,1.283
	c3.705-0.566,7.561-1.564,11.124-2.426c1.144,0.148,1,1.574,1.283,2.289c1.285,3.858,2.282,8,4.28,11.711
	c0.285,1.287-1.137,0.721-1.709,1.287c-1.145-1.143-1-2.998-2.286-4.279c-1.139,0.28-2.142,1.139-3.278,0.994
	c-0.426-0.855-1.139-1.567-0.856-2.572c0.997-0.854,2.425-0.564,3.141-1.568c-0.574-1.714-0.427-4.289-2.284-5.141
	c-2.711,1.145-5.992,1.145-8.842,2.424c-0.432,0.141-1.286,0.283-1.711-0.141c-2.568-6.146-3.85-12.287-4.709-19.148
	c0-0.569,0.57-0.569,0.996-0.851c2.282,0.281,1.428,7.282,3.566,6.71C7.018,168.734,7.735,167.308,8.591,168.309z M5.594,146.307
	c-0.998,0.568-2.28,0-3.42,0.428c-0.43,1.855-0.145,3.572,0.145,5.429l0.711,0.427l9.982-0.855c1.284,0,1.14,1.425,1.284,2.143
	c0.571,5.713,1.568,11.431,2.712,16.714c-0.287,0.572-1.289,0.572-1.854,0.29c-0.286-0.717-0.286-1.859-0.571-2.718
	c-0.431-1.003-0.286-2.435-1.43-3.001c-1.426-0.571-3.564,2.572-3.705-0.423c0.141-1.005-0.711-2.011,0-3.151
	c0.854-0.854,2.567-0.281,3.422-1.42c0-2.006-0.713-3.723-0.713-5.574c-1.855-0.579-4.139,0.141-5.988,0.141
	c-1.572,0-3.139,0-4.709,0.568c-1.286-0.568-0.713-2.431-1.142-3.717c0-5.279-0.715-11.57,0-16.572
	c0.429-0.568,1.28-0.281,1.856-0.138l0.281,0.715v4.142c0,0.567,0.145,1.426,0.998,1.426c0.712-0.14,2.141-0.284,2.426,0.86
	C6.022,143.303,6.452,145.019,5.594,146.307z M8.164,116.443c-0.43,1.004,0.427,2.717-0.858,3.147
	c-1.285,0.574-3.853-1.289-3.853,1.281c-0.566,1.572-0.424,3.434-0.424,4.857c1.282,0.719,2.707,0.291,3.988,0.719l7.134,0.857
	l0.145,0.572c-1.144,5.859-0.712,11.285-0.57,17.285c-0.284,0.146-0.284,0.572-0.714,0.572c-0.997,0.146-1.285-0.859-1.426-1.572
	c-0.711-1.43,0.853-3.996-1.141-4.715c-1.144,0-3.139,0.568-3.139-1.141c-0.142-1.143-0.426-2.57,0.572-3.293h3.564
	c0.713-1.852,0.426-3.993,0.283-5.852c-3.562-0.43-7.415-0.574-10.838-1.285c-0.427-2.283,0.57-4.859,0.57-7.431
	c1.428-3.856,0.859-7.716,2.424-11.573c0.713-0.858,2.285-0.285,2.139,0.857l-0.996,4.857
	C5.453,116.299,8.018,114.588,8.164,116.443z M14.152,94.729c-0.142,1.287-0.567,3.006-1.853,3.43c-1.287,0-2.279-2.002-3.562-0.574
	c-0.719,1.287-1.002,2.711-1.002,4.147c3.141,1.713,6.99,1.998,10.27,3.714l0.143,0.429c-0.289,1.569-2.564,11.712-3.137,15.145
	c-0.428,0.425-1,0.284-1.426,0.147c-1-1.861,0.712-3.58,0.567-5.718c-0.999-1.289-3.423,0-4.132-1.72
	c0.142-0.998,0.142-2.139,0.855-2.854c1.281-0.145,2.709,0.565,3.85,0.285c0.714-1.43,1.426-3.146,0.714-4.715l-1.287-0.43
	c-2.992-0.57-5.702-1.715-8.558-2.571c-0.568-1.575,0.428-3.43,0.858-4.857c1.33-4.145,2.048-8.157,4.334-11.733
	c0.426,0.145,1.799,0.017,1.799,0.731c0.144,2.147-3.283,4.999-0.145,6.431C13.012,94.155,13.866,94.016,14.152,94.729z
	 M23.708,74.154c-0.995,0.568-0.851,3.002-2.281,2.289c-1.14,0.139-1.996-1.721-2.996-0.434c-0.856,1.146-2.136,2.574-1.991,4.148
	c2.991,2.283,6.127,3.28,9.268,5.141l0.145,0.428c-2.574,4.717-3.855,9.718-5.71,14.568c-0.567,0.721-1.281-0.139-1.853-0.28
	l-0.285-0.567c-0.283-1.863,3.281-4.291,0-5.292c-0.57-0.427-2-0.14-1.709-1.426c0.713-0.999,0.279-2.858,1.852-2.997L21,91.156
	c1.144-0.855,1.426-2.711,1.858-4.145l-0.861-0.994c-2.852-1.436-5.701-2.859-8.555-4.43l-0.144-0.574
	c2.285-5.143,5.502-11.246,8.353-15.624c1-0.426,1.627,0.475,2.202,1.194l-2.567,4.857C21.427,73.012,23.708,72.587,23.708,74.154z
	 M38.26,52.439c-1,0.715-1.572,2.286-3.135,2.286c-0.575-0.289-1.146-1.142-2.004-1.433c-1.422,1.144-2.705,2.578-3.848,4.146
	c-0.145,1.431,1.707,2.287,2.566,3.141l5.849,4.287c0.284,0.286,0.143,0.859-0.285,1.143c-0.715,0.574-0.854,1.287-1.282,2
	c-2.716,3.861-5.14,8.144-7.706,12.148h-1.426c-0.283-2.141,2.14-3.576,2-5.576c-0.857-0.711-2.714-0.572-2.855-1.995
	c0.714-1.003,1.141-2.858,2.428-2.858c0.855,0.855,1.998,1.28,3.139,1.141l3.139-4.429l-0.145-0.858
	c-2.854-1.715-5.851-3.862-8.561-6.001v-1c3.141-4.997,6.85-9.147,10.842-13.575c0.428-0.994,2.141-1.713,2.852-0.281
	c-0.142,2.141-2.852,2.994-3.706,5.139C36.26,51.153,37.545,51.576,38.26,52.439z M56.23,35.293
	c-0.997,0.716-1.852,2.43-3.282,2.285c-0.709-0.86-1.139-1.857-1.992-2.285c-1.428,1-3.568,1.857-4.567,3.431
	c1.997,3.14,5.138,5.288,7.278,8.571v0.574c-4.139,3.142-7.564,7.709-10.842,11.712c-1.051,1.167-2.19-0.116-2.15-0.439
	c0.184-1.544,2.133-2.86,2.721-4.276c-0.57-0.996-2.285-1.145-2.569-2.57c0.712-1.142,1.284-2.569,2.853-2.998
	c0.996,0.709,2.139,1.426,3.281,1.996c1.283-1.287,3.422-2.428,3.137-4.428c-2.424-2.432-4.56-4.714-6.701-7.428l0.137-0.714
	c3.281-3.29,6.993-6.007,10.559-9.142c1.572-1.006,2.712-2.576,4.566-3.005l0.57,1.003c-0.037,0.828-4.143,3.857-5.137,4.711
	L56.23,35.293z M75.343,18.858c-0.288,1.293,1.713,2.438,0.427,3.576c-1.141,0.146-1.854,1.426-3.139,0.854
	c-0.567-0.854-0.851-2.141-1.996-2.57c-1.281,0.859-2.711,1.287-3.851,2.289c0.283,1.424,1.575,2.285,1.999,3.571
	c1.281,1.853,1.852,4.284,3.424,6.001l-0.143,0.855c-4.141,2.717-8.559,5.715-12.125,9.003c-0.857,0.856-2.57,1.716-2.999,0
	c0-1.14,1.571-1.289,2.286-2.144c0.424-0.713,3.133-1.711,1.283-2.854c-0.43-0.859-1.711-1.289-1.283-2.437l2.855-2.139
	c1.423,0.284,1.564,2.856,3.422,2.716c1.139-1.432,3.85-1.718,3.422-3.72c-0.566-1.995-4.995-7.71-5.421-8.427v-0.571
	c5.134-3.714,10.554-6.576,16.12-9.143c0.71,0.431,0.853,1.289,1.281,1.856C79.625,17.716,76.912,17.146,75.343,18.858z
	 M97.028,9.006c-1.145,1.425,1.562,2.715,0.142,4.002c-0.86,0.283-1.575,0.854-2.571,0.711c-1.138-1.004-0.428-4.139-2.568-3.288
	c-1.279,1.14-3.137,0.289-4.135,1.713c0,0.864,3.289,7.951,3.627,9.163c0.18,0.641,0.145,1.295-0.347,1.98
	c-4.562,2.288-9.699,3.859-13.833,7.146c-0.86,0.143-0.998-0.568-1.431-1.145l0.286-0.858l3.852-2.427
	c-0.141-1.285-1.424-2.283-1.14-3.715c1.568-0.285,2.566-2.424,4.135-1.143c0.286,1.001,0.286,2.141,1.288,2.713l4.275-1.855
	l0.285-0.569c-1.143-3.427-2.566-6.718-3.85-9.998c5.133-2.718,10.84-4.146,16.399-5.859c0.718,0.28,0.571,0.997,0.427,1.424
	C100.306,7.859,98.736,8.576,97.028,9.006z M120.989,4.285c0.143,1.004,1.277,2.575-0.147,3.148l-3.563,0.282
	c-0.709-1.142-0.567-2.712-1.428-3.568l-4.564,0.856c-1.709,1.43,0,3.572,0.146,5.285c0.431,1.854,1.565,3.86,0.851,5.713
	c-5.129,1.714-9.979,2.856-14.83,5.002c-0.855-0.287-0.711-1.424-0.998-2.146c0.854-1.142,2.711-0.85,3.853-2.137
	c0.284-1.146-1.57-2.859,0.284-3.575c0.998,0,1.712-1.002,2.711-0.431c0.996,0.856,0.143,3.008,1.713,3.146l4.562-1.283l0.43-0.859
	c-0.574-3.288-1.856-6.143-2.568-9.434c0.564-1.281,2.139-0.576,3.279-1.139c4.562-1.43,9.699-1.717,14.402-2.715
	c1.002,0,2.43-0.432,2.569,0.859c0,1.713-2.569,0.709-3.562,1.422C122.987,3.287,121.271,2.713,120.989,4.285z M147.517,2.291
	c-1.288,0.713,0,2.428-0.859,3.286c-1.421-0.429-3.992,0.997-4.415-0.999c0.139-1.006,0.283-2.434-1-2.717l-4.564,0.283
	l-0.568,0.859c-0.148,3.285,0.996,6.714,0.424,9.859c-1.281,0.708-2.71,0-4.137,0.575c-4.279,0.565-8.844,0.423-12.98,1.569
	c-1.167,0.062-0.854-2-0.854-2c1.708-0.713,4.134-0.293,5.562-1.438c0-0.998-0.856-1.852-0.429-2.994
	c1.282-0.428,2.994-0.717,4.42-0.428c1.143,0.857-0.568,3,1.285,3.288l4.421-0.435l0.288-0.571c0-2.997-0.148-6.572-0.572-9.43
	l0.709-0.569c4.997-0.716,9.846,0.147,14.549-0.432c1.715,0.287,3.57,0.142,5.142,0.715c0.421,0.286,0.569,0.861,0.282,1.43
	l-0.568,0.427L147.517,2.291z M173.764,5.577c-1.146,0.856-0.43,2.711-1.998,3.142c-1-0.283-2.429,0.141-3.138-0.859
	c0.428-0.858,0.567-2.002,0.428-2.999c-1.569-1.288-3.564-0.713-5.418-1.288l-0.859,0.855c-0.573,3.288-0.714,6.721-1.571,9.859
	c-6.129-0.138-11.979-1.142-18.258-1.142c-0.568-0.431-0.284-1.145-0.14-1.709c1.712-1.148,3.994-0.288,5.848-0.717
	C149.8,9.579,147.942,7,150.369,7c1.143,0.148,2.57-0.282,3.142,0.858c0,1.289-0.571,2.86,0.566,3.711l4.566,0.15
	c1.002-0.861,0.576-2.572,1.002-3.861c0.85-2.002-0.426-5.429,2.137-6.568c5.852,1.14,11.982,1.713,17.543,3.858
	c0.289,0.277,0.574,0.852,0.432,1.285l-0.573,0.427L173.764,5.577z M196.014,15.861c-1.004,0.859-2.284-0.139-3.139-0.57
	c-0.141-1.142,1.289-2.283,0.428-3.43c-1.428-1.002-3.281-1.142-4.986-1.719c-1.717,2.436-2.718,5.289-3.572,8.295
	c-0.999,2.997-3.277,0.14-4.988,0.42c-3.713-1.711-7.85-2.137-11.556-2.996c-0.144-0.57-0.431-1.574,0.14-2
	c1.57-0.57,4.424,1.861,5.137-0.716c0-0.85,0.145-1.853,1.146-2.143c1.133,0.29,2.703,0.146,3.275,1.293
	c0,1.143-1.146,2.422-0.282,3.428l4.844,1.141c1.567-2.859,2.712-5.715,3.712-8.715l0.857-0.572c3.284,0.43,5.846,2.426,9.128,3.144
	l5.845,2.719c0.436,0.423,0.717,0.993,0.436,1.569C200.291,15.574,196.442,10.859,196.014,15.861z M214.989,26.719
	c-0.859-0.427-2.002-0.57-2.57-1.428c-0.146-1.432,1.568-2.285,1.142-3.715l-4.136-2.286c-2.002,0.144-2.282,2.577-3.141,3.997
	c-0.997,1.714-1.854,3.574-3.137,4.859c-1.713-0.14-2.856-1.428-4.424-1.998c-2.565-1.43-5.131-2.715-7.987-3.715
	c-0.714-0.43-0.422-1.287-0.286-1.854c1.715-1.146,4.137,2.707,5.278,0l0.857-1.859c0.996,0.137,2.421,0.286,2.995,1.281
	c0.142,1.433-2.283,3.285,0,4.148c1.281,0.428,3.566,2.285,4.133-0.43c1.432-2.145,2.289-4.863,4.424-6.857
	c5.278,1.994,9.555,5.57,14.262,8.428c0.436,0.432,0.717,1.001,0.289,1.428c-0.289,0.428-1,0.573-1.283,0.287
	c-1.714-0.857-2.998-3.572-4.851-2.287C215.979,25.291,215.979,26.436,214.989,26.719z M232.529,40.293
	c-0.568-0.434-1.142-1.002-0.568-1.711c0.568-0.573,1.426-1.004,1.709-1.864c-1.141-1.715-2.851-3.002-4.71-3.854l-0.851,0.284
	l-6.281,7.717l-0.85-0.145c-3.853-3.281-8.272-6.428-12.554-9.283c-0.145-0.861,0.143-1.572,0.72-1.998
	c1.562,0.426,2.983,2.284,4.559,2.284c0.853-0.433,0.712-1.858,1.714-2.142c1.277,0,2.275,0.994,2.99,1.994
	c-0.285,1.288-1.141,2.14-1.281,3.285c1.281,0.859,2.565,2.578,4.279,2.861c2.424-2.43,3.848-5.432,6.422-7.857
	c1.852,0,2.42,1.858,3.844,2.426c3.424,3.002,6.424,5.718,9.701,8.574c-0.145,0.856,1.429,1.571,0.57,2.428
	c-1.566,0.566-1.855-1.571-2.997-1.996c-1.139-0.432-1.569-2.148-2.983-1.717C234.959,40.293,233.669,42.151,232.529,40.293z
	 M250.503,59.295c-0.29-1.433-1.999-1.855-1.999-3.571c0.573-0.712,1.709-0.998,1.999-2.003c-0.435-1.568-2.142-2.848-3.427-3.857
	c-3.424,1.853-5.421,5.002-8.844,6.574c-3.273-3.998-7.127-7.141-10.551-10.572c-0.43-0.712-1.573-1.284-0.709-2.143
	c0.131-0.573,0.709-0.43,1.136-0.285l3.134,2.996c1.568-0.427,2.283-3.284,4.142-1.852c0.425,1.14,2.282,1.14,1.852,2.569
	c-0.714,1.289-2.852,1.858-1.714,3.43c1.714,0.573,1.567,3.004,3.568,2.857c2.421-1.999,4.848-4.571,7.559-6.286l0.854,0.428
	c4.288,4.43,8.137,9.002,11.131,14.142c0,0.574-0.146,0.864-0.574,1.147l-0.71-0.143c-1.144-1.572-2.003-3.144-3.425-4.43
	C252.782,58.581,251.5,60.443,250.503,59.295z M262.766,79.439c-0.281-1-1.57-1.57-1.285-2.715c1.142-0.715,2.568-1.143,3.285-2.143
	c-0.717-1.713-1.569-3.424-2.854-4.71l-9.27,5.431l-0.852-0.152c-2.713-4.854-5.853-9.424-9.419-13.713
	c-0.143-0.857,0.854-0.994,1.281-1.426c2.714,0.432,1.998,5.715,5.137,3.566c0.712-0.426,1.279-1.568,2.279-0.854
	c0.432,1.143,1.286,1.998,1.428,3.285c-0.706,1.004-2.283,1.004-2.566,2.284l2.852,3.854h0.86c2.284-1.709,4.991-2.276,6.984-4.428
	c1.14-0.854,2.14-0.279,2.708,0.861c2.432,4.287,5.139,8.712,6.99,13.289c0,0.57,0.148,1.287-0.707,1.429h-0.719
	c-0.859-1.576-1.57-3.429-2.994-4.716C264.766,78.727,263.905,79.871,262.766,79.439z M271.891,101.731
	c-0.422-0.999-0.57-2.432-0.422-3.433c0.861-0.565,2.277-0.429,2.71-1.564c-0.433-1.72-0.858-3.581-2.001-5.151
	c-1.567-0.287-2.711,1.287-4.275,1.146c-1.998,0.999-3.998,1.715-5.99,2.427l-0.857-0.857c-1.713-4.566-3.706-9.287-5.992-13.719
	c-0.141-0.57,0.433-0.996,0.998-1.282c1.713,0.712,1.858,2.86,2.996,4.002c1.427,0,2.569-1.576,3.85-1.003l1.287,3.002
	c-0.716,1.144-2.428,0.719-3.282,1.858c0.854,1.714,1.288,3.569,2.712,4.859c3.137-0.72,5.994-2.434,9.121-3.145
	c1.721,1.855,1.721,4.566,3.002,6.573c0.855,3.143,2.426,6.142,2.57,9.573c-0.431,0.14-0.713,0.568-1.285,0.428
	c-1.285-1.289-0.285-4.713-2.998-4.43C273.465,101.586,272.611,102.013,271.891,101.731z M276.463,120.304
	c1.141-0.714,2.995-0.431,3.707-1.571l-0.998-5.146l-0.856-0.424c-3.14,1.284-6.848,1.284-10.277,1.858
	c-1.14-1.146-1.42-3.43-1.705-5.289c-0.998-2.857-1.283-5.711-2.57-8.43c-0.141-0.713,0.574-1.006,1.141-1.145l0.861,0.139
	l1.707,4.293c1.426,0.711,2.852-2.146,4.131-0.144c-0.135,0.855,1.007,2.145-0.283,2.714c-0.848,0.713-2.848-0.139-2.988,1.43
	c0.856,1.283,0.141,3.426,1.852,4.004c3.137-0.434,6.133-1.432,9.274-2.004c1.565,0.427,1.134,2.287,1.708,3.426
	c0.426,3.717,0.426,7.005,1.426,10.434c-0.144,1.714,0.572,3.57,0.287,5.426c-0.287,0.285-0.859,0.432-1.145,0.146l-0.424-0.426
	c0-1.865-0.145-3.865-0.432-5.859c-1.28-1.291-2.707,0.713-3.992,0C276.602,122.59,276.317,121.443,276.463,120.304z
	 M277.744,148.873l0.428-4.285c1-0.141,2.851,0.287,3.281-0.997c-0.143-1.425-0.143-2.858-0.143-4.144
	c0.281-0.568-0.568-0.857-1.001-0.998l-9.271,0.572c-1.143-1.146-0.715-3.002-0.996-4.432c-0.426-4.285-0.426-8.996-1.282-13.287
	c0.428-0.432,1.136-0.856,1.712-0.717c0.848,1.004,0.566,2.432,0.996,3.432c0.281,0.713,0,2.144,1.142,2.144
	c0.995-0.142,2.851-1.001,3.136,0.719c-0.143,1.28,0.57,2.282,0,3.425c-1.281,0-2.852-0.146-3.568,0.856
	c0.433,1.716,0.433,3.284,1.287,4.858c3.137,0.86,6.275-0.715,9.414,0c1.279,1.426,0,3.428,0.424,5.14
	c0,5.294-0.283,10.575-0.855,15.716c-0.141,0.287-0.714,0.428-1.138,0.139c-1.57-1.85,0.568-4.709-0.719-6.996
	C279.879,149.16,278.03,150.307,277.744,148.873z M281.453,163.877c-1.005,6.43-2.43,12.568-4.422,18.43
	c-0.43,0.289-0.999,0.141-1.428,0c-0.259-0.32,0.096-1.366,0.365-2.439c0.316-1.289,0.608-2.649,0.918-3.271
	c0-0.573-0.854-1.005-1.283-1.143c-0.709-0.285-1.857,0.281-1.857-0.857l1-3.577c1.432-0.713,3.283,1.433,3.996-0.855
	c0.281-1.567,0.856-3.137,0.43-4.856c-1.143-1.142-3.14-0.146-4.426-0.998c-1.852-0.719-4.273-0.433-6.131-1.292
	c0.573-5.283,1.857-10.999,1.568-16.43c0.289-0.57-0.432-1.713,0.572-2c0.994,0,2.421,0.287,1.988,1.43
	c-0.566,1.287,0.15,2.572-0.281,4c0.147,0.573,0.714,0.858,1.143,0.996c0.859,0.292,1.717-0.423,2.427,0.292
	c0.284,0.857-0.387,4.572-1.138,4.571c-1.148,0.432-3.711-1.283-3.426,1.137c0.281,1.577-1.285,3.721,0.709,4.435
	c2.999,0.291,5.708,1.142,8.701,1.569L281.453,163.877z M267.594,128.904c0.143,0,0.289,0,0.432-0.14
	c-0.143-0.151-0.289-0.292-0.432-0.292V128.904z M279.879,142.447c0.146-0.856,0.569-1.857-0.28-2.57
	c-3.853-0.43-6.988,0.713-10.7,0.139c-0.426-3.572-0.859-11.572-0.859-11.572s-0.68-6.405-0.875-6.988
	c-0.207-0.598-0.485-1.219,0.309-1.728c1.576,0.146,3.138-1.562,4.418-0.137c0.853,1.429,0.152,3.713,1.43,4.715
	c3.999,0-0.143-3.719,1.426-5.572c1.432,0,3.14,0,3.996-1.285c-0.289-0.717-0.14-1.999-0.857-2.428l-10.986,2l-0.565-0.576
	c-1.283-5.429-2.57-10.998-4.422-16.429c0.994-1.144,2.854-0.999,4.279-1.856c1.428,1.142,0.993,2.857,2.141,4.284
	c0.566,0.437,1.285-0.143,1.992-0.287c0.286-1.71-0.994-2.708-0.994-4.421c0.137-0.435,2.848-1.146,3.28-1.859
	c-0.72-0.859-0.433-2.438-1.71-2.721l-8.135,3.146c-0.711,0.146-1.57,0.572-2.282,0.146c-1.713-5.857-4.988-11.147-7.417-16.72
	c0.857-1.143,2.572-1.143,3.856-1.998c1.711,0.711,1.425,3.859,3.417,3.424c2.284-1.281-0.569-3.424-0.857-4.852
	c0.857-1.15,2.572-1.291,3.424-2.43c-0.283-0.432-0.422-1.576-1.28-1.723c0,0-2.877,1.432-5.523,2.945
	c-1.962,1.121-3.772,2.434-4.312,2.492c-0.86-0.292-5.571-9.576-8.99-12.719c-0.858-1.43-2.142-2.717-2.285-4.424
	c1.29-0.862,2.285-1.862,3.708-2.434c1.287,1.285,2.283,2.721,2.854,4.141l0.851,0.144c0.577-0.574,1.857-0.856,1.574-1.851
	l-2.853-3.717c-1.286-1.861,1.856-2.432,2.141-3.863c-0.428-0.711-1.287-1.426-2.141-1.426c-1.705,1.855-3.564,3.428-5.562,4.857
	c-1.283,0.432-1.57,3-3.134,2c-4.139-4.858-8.993-8.861-13.41-13.142c0.282-1.86,2.431-2.717,3.706-3.856
	c1.139,0.998,1.998,2.715,3.566,2.855c0.569-0.293,1.143-1.003,1.143-1.716l-3.138-2.857l0.852-1.715
	c0.29-0.573,1.427-0.426,1.289-1.426c-1.142-0.576-1.996-2.861-3.712-1.578c-1.145,3.004-4.42,5.289-5.85,8.145
	c-1.283,0.717-2.281-1.284-3.277-1.858c-3.854-3.282-8.701-6.145-12.693-9.424c0-1.29,0.994-2.435,1.852-3.433
	c1.711-0.859,2.852,1.43,4.566,1.574c0.569-0.283,1.283-1.004,1.422-1.574c-0.994-1.144-2.423-1.572-3.562-2.428
	c-0.715-1.144,0.711-2.286,0.996-3.43c-0.57-0.711-1.281-1.717-2.423-1.287c-1.142,1.716-2.137,3.432-2.851,5.431
	c-1.283,1.142-1.568,3.005-3.143,3.718l-4.85-2.576c-3.426-1.427-6.705-3.568-10.267-4.574c-0.707-1.71,1.145-3.143,1.57-4.707
	c1.564,0,2.571,0.997,3.991,1.283c0.571-0.141,1.145-0.863,1.28-1.576c-0.998-0.998-2.559-1.57-3.845-2.283
	c-0.716-0.999,0.288-2,0.566-2.998c-0.713-0.72-1.854-1.002-2.564-0.863c-1.705,3.008-2.705,6.438-4.139,9.435l-0.714,0.288
	c-5.702-1.857-11.267-3.578-17.251-4.434l-1.008-0.857l0.859-4c1.714-1.14,4.707,1.855,5.137-1.283
	c-0.43-1.715-3.135-0.718-4.418-1.568c-1.436-0.861,0.567-2.72-0.435-4.003c-1.001,0-2.142-0.717-2.712,0
	c-1.281,3.429-0.849,6.423-1.708,9.854c-0.573,1.715-2.284,0.291-3.56,0.57c-4.141-0.57-8.559-0.994-12.846-1.285
	c-1.852-0.567-4.986,1.285-5.419-1.571c-0.144-1.145-0.428-2.856,0.714-3.565c1.855-0.289,3.704,0,5.559-0.289
	c0.146-0.432,0.146-1.285,0-1.857c-1.562-1-3.848-0.433-5.559-0.433c-1.142-0.141-0.57-1.575-0.714-2.423
	c-0.144-1.574-1.569-1.574-2.709-1.146c-0.425,2.145,0,4.716-0.14,6.856c-0.574,1.432,0.857,2.856-0.285,3.998
	c-6.564,1.004-13.557,1.287-19.97,2.434c-0.716-0.289-1.819-4.519-0.999-5l3.564-0.15c0.715-0.422,2.57-0.568,1.85-1.99
	c-1.277-2.579-3.848,0.279-5.984,0l-0.285-0.289c0.145-1.285-0.998-2.431-1.145-3.714c-0.855,0-1.712,0.28-2.57,0.571
	c0,3.142,1.145,5.422,1.715,8.139c-0.143,1.145,1.143,2.145,0.426,3.002c-5.988,1.568-11.695,3.144-17.538,5.291l-0.575-0.146
	l-1.423-3.996c0.569-1.574,2.707-1.006,3.704-2.151c0.146-0.712,0.146-1.278-0.281-1.708c-1.568-0.859-2.715,0.996-4.139,0.996
	c-1.428-0.712-1.001-2.711-1.71-3.713l-2.427,0.57c-0.855,0,0.295,2.449,0.431,2.715l2.851,6.576
	c0.433,0.566,0.855,1.422,0.284,1.998c-5.984,2.571-11.697,5.426-17.402,8.427c-0.995-0.999-1.848-2.427-2.42-3.857l4.556-2.568
	c0-0.722-0.564-1.572-1.136-2.146l-3.565,1.714c-2.426,0.858-1.712-2.429-3.423-2.857c-0.719,0-1.426,0.429-1.711,1.144
	c1.137,3.569,4.42,6.427,5.279,10.001c-0.285,0.57-0.859,1.148-1.427,1.148c-4.565,3.566-9.415,6.421-13.694,10.279
	c-2.141,1.001-1.854-2-3.282-2.711c-0.142-2.002,2.283-2.145,3.425-3.287l0.283-0.715c-0.283-0.715-0.854-1.287-1.713-1.426
	c-1.855,0.572-2.564,3.139-4.705,2.424c-0.855-0.859-1.283-1.999-1.994-2.573c-0.43,1.291-2.428,1.005-2.285,2.573l6.848,7.859
	l0.142,0.863c-4.704,4.139-8.702,8.994-12.55,13.706c-1.571,0.574-2.713-0.989-3.854-1.993c-0.999-1.717,1.711-2.719,2.427-4.148
	c0.425-0.713-0.429-1.142-1.002-1.709c-1.708-0.148-2.708,2.002-4.136,2.711c-1.135-0.143-1.852-1.002-2.707-1.568
	c-0.854,0.859-2.426,1.857-2.572,2.998c3.141,2.288,5.994,4.141,8.846,6.857l0.146,0.715c-4.14,5.143-7.701,10.719-10.557,16.431
	c-0.712,0.429-3.283-1.143-3.994-1.854c0-1.859,1.283-2.864,1.712-4.43c-0.146-0.426-0.57-0.861-1.001-1.006
	c-2.425-1.283-1.426,2.287-2.855,3.295c-1.135,1.139-2.278-0.724-3.563-0.724c-0.997,0.151-1.136,1.433-1.283,2.146
	c1.429,1.713,3.994,2.002,5.849,3.288c1.143,0.711,2.994,0.856,3.566,2.284c-1.854,4.57-4.138,8.861-5.561,13.575
	c-0.572,1.003-0.289,2.567-1.145,3.426c-1.427-0.427-2.994-0.281-4.133-1.138c-0.857-1.859,0.996-3.005,0.996-4.719
	c-0.147-0.712-1.143-0.57-1.565-0.857c-1.857,0.576-1.715,3.142-2.574,4.574c-1.566,0-2.853-0.857-4.277-1.146
	c-0.287,0.72-0.852,2.005,0,2.573c3.564,0.712,6.986,2.144,10.411,3l0.288,0.57c-1.57,5.859-2.994,11.572-3.992,17.572
	c-1.57,0.574-3.856,0.289-4.994-0.853l0.855-5c-0.142-0.857-1.281-0.291-1.711-0.716c-1.709,0.716-0.998,2.714-1.144,4.143
	c0,2.572-2.85,0.713-4.133,1.426c-0.143,1.147-0.711,2.291,0,3.287c1.996,0.289,3.849,0.289,5.707,0.576
	c1.564,0.713,4.278-0.576,4.989,1.283c-0.691,5.898-1.282,13.287-0.711,19.574c-0.571,1.709-2.569,0.711-3.852,1.284
	c-1.425-1.568-0.856-4.284-1-6.289c-1-0.284-1.997,0-2.853,0.144l0.147,4.861c0.284,2.996-4.425,0.143-3.995,2.996
	c-0.146,0.713,0.283,1.431,0.857,1.566c3.561-0.277,6.702-0.42,10.268-0.566c1.57,1.426,0.568,4.293,1.279,6.148
	c0.717,5.431,2.285,10.283,2.574,15.572c-1.285,0.709-2.428,0.857-3.996,1.141c-0.856-1.575-0.998-3.57-1.57-5.287
	c-0.428-1.426-1.852-0.141-2.711-0.141c0.144,1.857,1.143,3.569,1.285,5.57l-0.427,0.57c-1.283,0.146-2.423,0.572-3.565,1.148
	c-0.147,1.142,0.423,2.14,1.142,2.714c3.278-1.572,7.268-1.572,10.694-2.714L20,175.307c1.428,5.715,4.138,10.573,5.853,16.286
	c-0.145,1.428-1.999,0.855-2.713,1.858c-2.707,1.714-2.427-2.29-3.425-3.431h-1.136c-2.283,1.004,0,3.143,0.282,4.713
	c-0.856,1.003-2.421,0.723-3.278,1.718c0.422,1,0.282,2.282,1.426,2.712c3.424-1.139,6.557-2.854,9.839-4.43
	c0.999,0.145,0.854,1.146,1.429,1.718c2.424,5.288,5.559,10.001,8.412,15.292c-0.854,0.709-2.138,1.136-2.992,2.137
	c-2.283,0.287-2.424-2.572-3.994-3.711c-0.858-0.57-1.57,0.43-2.283,0.71c0.283,1.716,1.57,2.862,2.568,4.286
	c0.43,1.859-2.426,1.859-2.853,3.434c0.712,0.713,0.712,1.856,1.854,2.144c2.996-1.86,5.85-3.143,8.699-5.577
	c0.43-0.14,1-0.568,1.572-0.283c3.275,4.998,7.986,9.002,11.265,14.002l-2.564,2.855l-0.714,0.145
	c-1.001-0.569-1.711-1.288-2.283-2.433c-0.714-1.14-1.856-0.567-2.709,0.147c-0.291,1.716,1.995,2.57,2.709,4.001
	c0.711,1.574-2.139,2.427-1.998,4.004c0.854,0.567,1.709,1.422,2.709,1.284c1.285-3.291,4.422-5.146,6.849-7.719l0.569-0.145
	c2.422,1.574,3.849,3.715,6.135,5.721l8.988,7.284c0.283,1.57-1.287,2.857-2.145,4.142c-1.854,0.279-2.565-2.715-4.562-2.571
	c-3.995,2.431,1.85,2.996,1.996,5.291c-0.433,0.997-1.569,1.851-1.28,2.993c1.134,0.429,1.991,2.004,3.279,1.145l4.276-6.433
	c0.429-0.852,0.713-2.28,1.853-2.28c4.278,2.713,8.275,5.711,12.84,7.568c1.569,1.288,3.854,1.432,5.277,3.004
	c-0.572,1.143-0.572,2.57-1.568,3.711c-1.288,0.572-1.855-0.853-3.139-0.709c-0.999-0.29-1.857-1.859-2.852-0.859
	c-0.143,0.859-0.998,1.998,0,2.719c1.426,0.427,2.707,1.279,3.988,2.143c0,1.135-0.998,1.996-0.854,3.286
	c0.716,0.425,1.428,1.001,2.424,0.85c2-2.856,2.572-6.426,4.71-9.431c1.288-1.562,2.85,0.578,4.424,0.717
	c2.28,1.576,5.13,1.858,7.559,3.006c2.136,0.709,4.849,0.564,6.561,2.424c-0.431,1.293-0.714,2.859-1.712,3.861
	c-1.713-0.145-2.996-1.143-4.709-1.427c-0.994,0.425-0.71,1.706-0.994,2.565c1.137,1.709,3.707,0.859,5.129,1.858
	c1.004,1.283-0.996,2.72,0.145,3.862c0.859,0.426,1.855,0.712,2.854,0.14c0.213-1.142,0.684-3.476,1.023-5.708
	c0.338-2.233,0.751-4.193,1.115-4.869c4.854,0.719,10.129,1.863,14.982,2.287c0.041,0.006,3.867,0.777,5.127,0.289
	c2.285,0,1.004,2.715,1.289,3.85c-0.857,2.582-3.709,0.724-5.566,1.006c-0.85-0.143-1.425,0.427-1.279,1.142
	c0.282,2.862,3.705,1.15,5.557,1.72c1.143,1,0.573,2.572,0.715,3.714c0.713,0.284,2.141,0.714,2.854,0l0.428-7.289
	c0.428-1.142-0.569-2.86,0.715-3.858c4.705,0,10.839,0.433,16.258-0.708c1.291,0.425,2.996-0.716,4.287,0l0.561,3.856
	c-1.137,1.851-3.557,1.142-5.42,1.281l-0.996,0.714c0.146,0.856-0.425,1.721,0.289,2.29c0.424,0.424,1.279,0.145,1.707-0.15
	c1.432,0.295,2.99-0.709,4.42-0.139l0.854,3.721c1.003,0.282,2.145-0.289,3.145-0.573c0.427-2.002-1-3.718-0.714-5.862
	c0.283-1.998-1.996-4.137-0.286-5.996c2.714,0,4.991-1.148,7.704-1.293c2.852-1.279,5.987-1.279,8.842-2.569
	c1.283,1.001,1.145,2.857,1.432,4.433c-0.858,0.713-2.004,1.138-3.14,1.138c-1.146,0.151-1.146,1.143-1.146,2.148
	c1.292,2.431,3.429-0.141,5.273-0.141c1.007,0.71,0.862,1.997,1.431,2.994c0.713,0.286,1.57-0.282,2.288-0.571
	c0.569-0.857-0.435-1.576-0.573-2.282c-0.432-2.998-2.139-5.579-2.566-8.574c2.566-1.573,5.707-1.712,8.273-3.43
	c3.416-0.856,6.414-3,9.842-4.288c1.277,0.717,1.853,2.424,2.421,3.725c-0.997,1.422-2.705,1.422-3.993,2.563
	c-0.43,0.567-0.283,1.293-0.143,1.86c1.145,1.994,2.711-0.861,4.136-1.004c2.706-1.853,1.851,2.43,3.853,2.719
	c0.576-0.576,2.135-0.289,1.855-1.715c-1.279-3.284-3.707-6.145-4.996-9.432l0.43-0.713c5.278-2.999,10.555-6.002,15.121-10h0.714
	c0.852,1.428,2.137,2.57,2.419,4.142l-3.994,2.566c-0.422,0.293-0.848,0.864-0.422,1.291c0.854,2.001,2.422,0.428,3.422,0
	c1.139-0.427,1.711-1.857,2.999-2.005c1.569,0.429,1.569,2.716,2.993,3.147c0.574-0.576,1.141-1.143,1.424-2.001
	c-1.854-3.143-4.566-5.859-5.988-9.143c0.283-1.427,2.137-1.855,2.85-3.141c3.996-3.145,7.273-7.294,10.984-10.434
	c1,0.713,1.992,1.715,2.709,2.717c0.855,2.564-3.137,2.711-3.27,4.998c0.279,0.574,0.992,1.57,1.845,1.713l3.705-3.426
	c1.573-0.43,1.86,1.854,3.433,1.713c0.566-0.572,1.705-1.428,1.275-2.434l-4.708-4.137c-1.425-0.714-2.566-2-3.136-3.287
	c3.996-5.429,8.701-10.57,11.982-16.285c0.996-0.429,1.852,0.854,2.992,1.28c0.971,0.403,0.891,1.083,0.557,1.753
	c-0.158,0.32-1.107,1.561-1.654,2.595c-0.325,0.622-0.611,1.03-0.182,1.514c0.426,0.284,0.996,1.288,1.854,0.857
	c1.018-1.274,2.043-2.559,2.756-3.942c0.085-0.161,0.953,0.225,0.953,0.225c0.854,0.287,1.995,2.432,3.422,1.143
	c0.141-0.713,1-1.564,0.426-2.429c-2.848-2.142-6.135-3.424-8.984-5.571c-0.197-0.896,0.428-1.953,1.026-3.289
	c1.122-2.492,2.764-5.382,3.06-5.996c1.105-2.284,2.184-4.537,3.188-6.856c1.285-0.712,2.43,0.569,3.708,0.855
	c2.14,1.287-0.712,3-0.571,4.572c0,0.863,0.717,0.863,1.287,1.002c1.424-0.29,1.572-2.002,2.279-3.002c1.289-2,2.576,1.142,4.283,0
	c0.145-0.714,1.287-1.568,0.283-2.144c-2.848-1.428-5.988-2.429-8.984-3.568l-1-0.862c1.883-5.273,3.426-11.997,4.281-14.574
	l1.137-3.852c1.289-0.711,2.716,0.432,4,0.141c2.138,0.574-0.721,5.577,0,6.572c0.566,0.29,1.418,0.721,2.138,0.145
	c0-1.43,0.71-2.863,0.71-4.287c0.574-2.717,2.857,0.285,4.139-0.86c0.285-0.854,0.994-1.856,0.427-2.85
	c-3.991-0.145-7.13-1.291-10.701-2.287c-0.335-0.879,0.443-5.562,0.834-9.149c0.44-4.032,0.521-7.04,0.597-8.853
	c0.283-0.855-0.713-2.002,0.283-2.861c1.574-0.139,3.279-0.283,4.848,0.152c0.719,1.854-0.281,4.139,0.574,5.85
	c0.574,0.283,1.568,0.568,1.996-0.145c0-1.855-0.428-4.142,0.715-5.705C277.886,143.02,279.024,143.164,279.879,142.447z
	 M257.95,115.498c0.43,0.866-0.433,1.588-0.284,2.305c0.577,2.879-0.721,5.336-2.163,7.357c-0.428,0.719-0.141,1.727,0.146,2.59
	c0.431,0.863,1.586,0.723,2.448,0.435c1.152-1.44,2.588-1.874,4.318-1.44c1.15,0.859,1.438,2.308,0.863,3.599
	c-0.863,3.028-4.751,1.734-5.612,4.474c0.577,2.738-0.432,4.754-1.151,7.064c-1.73,1.153-2.16-2.018-4.035-1.728
	c-0.715-1.299,1.008-2.746,0.291-4.18c1.438-1.447-0.43-3.028-1.006-4.326c-1.441-1.304-3.168-1.879-4.896-1.16
	c-1.002,1.01-2.015,2.023-1.866,3.607c0.284,0.723,1.005,1.295,1.866,1.01c0.29-0.287,0.862-0.287,1.153,0.285
	c0.865,0.869,0.575,2.018,0,3.031c-0.722,1.296-2.302,1.15-3.452,1.008c-2.016-0.721-4.32-2.738-4.605-5.195
	c0-1.148-0.15-2.297,0.144-3.455c1.15-1.873,3.022-3.174,5.322-3.458c0.721-0.433,0.139-1.44,0.436-2.159
	c1.576-1.877,3.74-0.871,5.75-1.303C254.354,121.411,253.342,116.07,257.95,115.498z M230.031,121.549
	c-0.145,0.721-1.011,0.578-1.439,0.721c-1.153-0.143-2.3-0.721-2.593-1.873c-0.719-1.727-1.722,0.721-2.877,0.438
	c-1.01-0.438-2.449-0.865-2.732-2.164c-0.149-0.717,1.007-2.166-0.434-2.166c-0.146-0.14,0-0.434,0-0.572
	c0.285-0.579,0.717,0.433,1.007-0.289c-0.429-1.012-1.437-2.31-0.429-3.314c1.289-0.725,2.305,0.576,3.743,0.288
	c1.291,0.144,2.302-1.445,3.739-0.869l2.59,2.019C229.885,116.217,228.3,119.102,230.031,121.549z M223.842,184.26
	c-1.588,0.145-2.445-1.006-3.452-1.73c-0.292-1.726-1.296-3.167-2.738-4.031c-0.282-1.014-0.858-2.167-0.146-3.173
	c0.723-1.156,2.02-0.723,3.028-0.577c0.283-1.151,0.139-2.595,1.289-3.317c1.156-1.01,3.457-0.434,3.457,1.3
	c-0.43,1.872,0.288,4.031-0.862,5.768C223.842,180.518,227.293,183.975,223.842,184.26z M230.895,162.348
	c1.152-0.429,3.023-0.287,3.451,1.012c0.145,0.575,0.438,1.008,0.865,1.299c1.289-0.724,2.598-1.158,3.744-0.291
	c0.569,0.867,1.008,2.162,0.569,3.171c-0.283,1.442-2.155,1.302-3.161,2.017c-1.439-0.715-3.311-1.439-4.894-0.715
	c-1.439,1.582-3.595,1.441-5.472,1.727c-1.012-1.152-0.719-2.885-0.138-4.176c0.861-1.443,3.159,0,3.594-1.877
	C229.17,163.5,230.031,162.639,230.895,162.348z M241.545,164.514c1.289-0.287,3.166,0.286,4.023-1.443
	c1.73-0.289,3.317-0.148,4.178,1.443l0.433,3.458c0.864,0.723,1.436,2.021,1.296,3.314c-0.287,1.874-2.016,2.884-3.596,3.173
	c-0.58,1.441-1.443,3.316-3.168,3.461c-1.009-0.287-0.289-1.877-0.578-2.736c-0.287-2.023-1.148-4.474-2.875-5.914
	C241.545,167.83,241.832,166.1,241.545,164.514z M241.399,179.5c-0.574,0.722-1.15,2.029-2.299,1.734
	c-1.291-1.439-5.325-1.16-3.599-4.472c2.732-1.579-0.431-5.477,3.161-6.341c1.15-0.141,2.162,0.723,2.596,1.732
	C242.411,174.459,242.696,177.201,241.399,179.5z M233.053,195.505c-0.862,0.722-2.158,0.722-3.168,0.44
	c-1.002-1.016-1.154-2.314-1.154-3.609c0.289-0.86,0.289-2.02,1.3-2.596c2.589,0.29,5.612,0.721,7.778-0.723
	c1.433,1.013,4.454,1.158,3.879,3.893c-0.43,1.157-1.009,2.453-2.303,3.035c-2.885-0.582-1.441,3.742-4.314,3.167
	c-1.153-0.427-2.596-0.868-2.451-2.306C232.475,196.227,233.917,196.086,233.053,195.505z M217.94,187.289
	c-0.144-1.008,0-2.159,0.866-2.447c2.444-1.008,4.173,2.303,6.905,1.297c0.72,0.862,1.871,1.88,2.589,2.744
	c-1.148,1.293-1.007,3.311-1.436,5.041c-0.721,0.575-1.727,0.865-2.737,0.725c-1.288-0.436-0.569-3.322-2.304-2.023
	c-0.281,0.716-1.15,0.862-1.867,1.005c-1.149-0.289-1.728-1.148-2.16-2.016C216.642,189.889,220.241,188.735,217.94,187.289z
	 M226.864,173.885c0.43-2.307,2.881-1.875,4.461-2.599c0.723-1.441,3.021-1.293,3.459,0.146c-0.866,1.3,0.428,2.885-0.438,4.182
	c-2.155,1.002,0.438,6.201-3.307,4.904c-1.585-1.734-3.746,1.583-4.748-0.578C226.291,177.775,227.582,176.193,226.864,173.885z
	 M227.582,182.965c1.728-2.891,4.32,1.877,6.043-1.15c1.445-0.431,3.314-0.285,4.184,1c0.569,0.869,1,1.883,0.569,2.893
	c-0.282,1.727-2.015,1.871-3.167,2.453c-2.014,0.279-4.027,0.139-5.757-0.871C228.3,185.999,226.722,184.697,227.582,182.965z
	 M240.825,188.883c-0.717-0.295-1.152-0.864-1.012-1.594c1.297-1.15-0.288-3.029,1.012-4.18c1.586,1.441,2.16,3.46,2.878,5.189
	C242.834,188.883,241.688,189.453,240.825,188.883z M172.318,233.422c-1.872-0.146-3.743,0.723-5.618,0
	c-1.438-1.439-0.713-3.312,0-4.9c-1.006-0.719-1.586-2.018-1.868-3.025c0.148-1.147,0.862-2.018,1.583-2.598
	c1.155-0.866,2.592,0.292,3.6,0.292c0.146-1.013,0.57-2.454,1.869-2.454c1.301,0,2.735-0.146,3.6,1.153
	c0.718,1.444-0.722,2.887-0.864,4.327C174.911,228.955,173.471,231.267,172.318,233.422z M170.871,238.039
	c-1.435,0-3.019-0.145-3.881-1.445c1.293-1.009,4.893-2.59,5.467,0.145C172.748,237.752,171.598,238.189,170.871,238.039z
	 M157.773,229.099c-0.854-2.019-3.157,0.428-4.168-1.439c-0.288-0.725-1.003-1.738-0.433-2.596c1.15-0.865,2.158-1.447,3.6-1.586
	c2.016,0.432,4.604,0.87,5.036,3.311l0.286,3.031c0.576,0.43,1.582,0.43,2.016,1.154c-0.15,1.58,0.87,2.592,1.151,3.889
	c-1.151,0.58-2.591,0.433-3.886,0.865l-3.172,2.311c-1.432-0.576-1.573-2.311-1.722-3.753
	C156.482,232.555,159.358,231.117,157.773,229.099z M179.655,228.521c1.148,0,2.307,0.434,2.738,1.588
	c1.576,3.027-4.178,2.74-1.73,5.619c-0.146,0.725-0.573,1.59-1.148,1.881c-1.585-0.87-3.599-0.727-5.181-0.44
	c-0.723-2.161,0.139-4.614,1.29-6.484C176.776,229.526,178.215,228.664,179.655,228.521z M176.201,227.66
	c0.295-1.3,0.138-2.74,0.87-3.75c1.004,0,1.57,1.154,1.865,2.012C179.227,227.512,177.212,227.369,176.201,227.66z M173.184,241.934
	c0.143-1.879,2.152-2.742,3.592-3.318c1.439-0.291,2.303,1.295,2.739,2.312c-0.143,0.863,0,2.158,1.001,2.732
	c1.014,0.295,1.445,1.297,1.877,2.164c0,1.295-0.863,2.311-2.016,2.736c-1.736,0.719-3.307-0.426-4.606-1.441
	C174.334,245.533,172.891,244.094,173.184,241.934z M181.243,241.496c-0.727-2.023,0.287-3.172,1.15-4.757
	c-0.432-1.731,0.716-3.026,2.156-3.89c1.439,0,2.74,1.009,3.309,2.446c0.15,2.167,4.467,4.759,0.715,6.495
	c-2.15,0.283-2.15,3.453-4.604,2.882C183.255,243.374,181.961,242.652,181.243,241.496z M182.531,227.66
	c-1.728-0.148-1.583-2.021-2.302-3.172c-1.441-1.59-4.028-3.604-2.873-5.911c1.15-1.01,2.585-1.732,4.174-1.153
	c0.572,0.424,1.432,1.444,2.303,0.725c0.282-0.867,0.57-2.17,1.723-2.312c1.156,0.434,2.735-0.574,3.165,1.154
	c0.725,1.158-0.147,2.594,1.008,3.315c1.296-0.144,1.73,1.301,2.017,2.163c0.866,2.884-2.447,2.02-3.454,3.453
	c-1.29,1.014-2.735,1.881-3.741,3.033C183.682,229.099,183.397,227.803,182.531,227.66z M141.955,218.467
	c-42.469,0-76.898-34.486-76.898-77.029c0-42.542,34.43-77.031,76.898-77.031c42.47,0,76.898,34.489,76.898,77.031
	C218.854,183.98,184.425,218.467,141.955,218.467z M119.206,232.85c-0.722,1.009-1.864,1.437-3.167,1.437
	c-1.439,0.29-2.301-0.72-3.451-1.149c-0.578-1.588-0.578-3.462-2.018-4.615c0.864-2.305,3.023-4.322,2.446-6.915
	c1.294-1.444,5.324-2.304,6.478,0.426c0.577,0.866-0.43,1.735,0,2.456c1.293,0,2.158,1.008,2.447,2.016
	c0.431,1.008,0,2.309-0.289,3.171c-0.719,0.868-2.012,0.435-2.736,1.153C119.065,231.689,119.348,232.131,119.206,232.85z
	 M116.039,244.673c-2.445,0.571-4.029,3.311-6.763,2.737c-0.434-1.727,0.864-3.027,0.285-5.049c1.724-0.428,1.585-2.158,1.724-3.604
	c0-1.295-1.29-3.029,0.438-3.75c2.016,1.305,5.754-0.289,6.189,3.031c0.145,1.299-1.152,2.016-1.439,3.023
	C117.051,242.213,116.76,243.66,116.039,244.673z M88.551,227.512c1.438-1.727,3.741-0.432,5.038,0.578
	c0.284,1.585,1.872,2.738,1.581,4.32c-1.581,0.866-2.3,2.453-3.166,3.752c-2.158-0.434-5.468,1.301-6.619-1.586
	c0-1.154,0.43-2.309,1.583-2.887c0.431-0.423,1.294,0.441,1.438-0.423C88.262,230.109,87.399,228.521,88.551,227.512z
	 M95.316,227.66c1.437-0.291,2.157,0.861,3.308,1.152c0.433,0.714-0.141,1.438-0.434,2.162c-0.43,0.428-1.437,0.574-1.725-0.29
	C95.893,229.82,94.739,228.521,95.316,227.66z M98.19,222.032c-0.138-1.296,0.293-2.591,1.302-3.455
	c1.005-0.729,1.579,0.142,2.442,0.427c1.154-0.855,0.434-3.601,2.735-3.455c1.442-0.146,2.593,0.576,3.169,1.732
	c0.144,1.006,0,2.021,0.719,2.59c0.576-0.143,1.438-0.287,1.872,0.291c1.006,0.865,1.15,2.596,0.718,3.748
	c-0.718,1.299-1.298,2.594-2.733,3.316c-2.591-0.723-5.472-0.577-7.917,0.434C98.339,226.649,97.904,224.057,98.19,222.032z
	 M99.924,230.25c2.443-2.307,7.197-2.59,9.925-0.285c1.152,1.152,0.864,2.303,0.58,3.748c-0.718,1.443-2.446,1.73-3.89,1.443
	c-0.428-0.58-1.293-1.012-1.87-0.723c-0.718,0.862-1.581,1.151-2.59,1.151c-1.155-0.142-2.155-0.722-2.733-1.581
	C99.056,232.702,99.202,231.267,99.924,230.25z M64.225,182.53c-0.432,2.021-2.728-0.286-2.875,1.874
	c0.431,1.595-1.011,2.597-2.304,2.74c-0.29,0-0.577-0.428-0.577-0.723c0.865-1.58,0-3.607-0.718-5.188
	c0.579-1.871-0.286-3.602-0.572-5.334c0.572-0.863,1.726,0,2.583-0.43c1.443,0,2.449-1.586,3.891-1.154l1.006,1.877
	c0.284,1.008-0.434,1.582-0.865,2.156C64.369,179.65,64.943,181.089,64.225,182.53z M54.44,195.945
	c-1.437,0.141-3.023,0-3.311-1.591c0.145-0.573-0.288-0.724-0.573-0.866c-1.01,0-1.73,1.441-2.877,0.866
	c-0.29-1.013,0.719-1.872,0.141-2.879c0.866-1.587,3.169-1.3,4.605-2.314c1.731,0.869,3.886,0.438,5.327-0.573
	c0.718,0.147,0.718,1.152,0.862,1.588c0,0.861,0,2.16-1.008,2.45c-0.721-0.143-1.439,0.433-1.439,1.155
	C56.452,194.789,55.446,195.795,54.44,195.945z M44.797,158.6c0.43-1.155,1.586-2.02,2.881-2.303c1.146,0,2.156,1.006,2.443,2.015
	c0.434,0.72-0.426,2.453,1.152,2.163c0.721,0,1.729-0.719,2.018,0.29l-0.145,0.719c-1.873,2.595-5.613,3.751-5.9,7.357
	c-1.006,0.141-2.885,2.014-3.312,0c0.286-2.891-3.603-4.182-2.733-7.357c0.574-0.862,1.438-1.009,2.156-0.862
	c0.289,0.287,0.577,0.434,0.863,0.287C45.085,160.334,44.362,159.324,44.797,158.6z M62.787,172.154
	c-1.291,1.443-3.307,1.73-5.182,1.73c-1.007-1.875-2.591-3.752-4.746-4.33c-0.291-1.439-0.291-3.164-0.72-4.607
	c0.72-1.013,1.581-2.6,3.306-2.887c1.439-0.142,2.885,0.146,3.459,1.584c1.148,0,2.445-0.434,3.594,0
	c1.154,0.869,1.011,2.305,1.154,3.465c0,1.295-1.441,1.585-2.017,2.16C62.069,170.281,63.078,170.998,62.787,172.154z
	 M48.25,180.805l3.744-2.598c1.577,0.863,3.883-2.014,4.316,0.863c-0.864,2.019,0.142,4.184,0.869,5.913
	c0.14,1.298-0.58,2.161-1.588,2.739c-2.157,0-3.742-0.578-5.608,0.865l-0.578-0.148C49.696,185.707,47.1,183.541,48.25,180.805z
	 M50.988,167.972c0.141,1.298-1.292,0.723-1.87,1.009c-0.867-0.576,0.145-1.299,0.287-1.871l1.01-0.869
	C51.274,166.391,50.555,167.538,50.988,167.972z M42.494,170.998c0,0.723-0.291,1.584-0.865,1.873
	c-2.591-1.873-2.444-5.617-1.865-8.504C41.489,165.949,42.928,168.404,42.494,170.998z M41.202,178.499
	c1.726,0.864,2.875,2.59,5.039,2.885c1.006,1.431-1.014,3.6,1.147,4.755c0.431,0.721,0.146,1.727,0,2.449
	c-0.575,1.442-2.014,0.573-3.026,0.43c-2.445-0.999-4.459-3.311-4.748-5.908C39.471,181.384,40.188,179.795,41.202,178.499z
	 M45.227,179.222c-1.292-0.439-1.727-1.589-2.447-2.606c-0.43-1.289-0.141-2.73,0.721-3.744c2.304-1.439,4.75-2.878,7.628-2.305
	c1.587,1.012,3.745,1.154,4.317,3.318c0.289,1.01-0.572,1.873-1.438,2.309l-3.453,0.283
	C49.262,178.207,47.246,179.07,45.227,179.222z M62.356,109.586c0.432,0.58-0.145,1.298-0.72,1.585
	c-1.007,0.724-2.155,0.576-3.167,0.145c-1.004-0.576-2.159-1.011-2.017-2.451c1.153-0.719,2.304-1.877,2.594-3.172
	c-0.29-1.728,0.288-2.881,0.288-4.471c-0.146-0.861-1.004-2.158,0.286-2.594c2.016,0,4.173-0.722,5.613,1.293
	c1.296,1.158-1.581,2.891,0.72,3.467c1.152,0.289,1.152,1.438,1.586,2.162c-0.145,1.294-0.434,3.025-2.016,3.463
	C64.515,109.014,63.078,108.721,62.356,109.586z M41.916,111.747c-2.445-1.581-3.452-4.759-3.166-7.493
	c-0.139-1.873,1.438-3.031,2.162-4.332c1.004-0.283,2.016-1.293,3.022-0.569c0.718,1.152,1.292,2.302,2.448,2.884
	c0.863,1.729-0.432,3.314-1.156,4.608c0.865,1.444,0.436,3.181-0.43,4.326C43.935,111.895,42.928,112.039,41.916,111.747z
	 M43.5,117.653c-1.15,0.728-2.732,1.732-4.029,0.872c-0.571-0.435-0.571-1.295-1.291-1.156c-0.146,0.867-1.152,1.59-2.018,1.732
	c-1.293,0.284-2.596-0.432-3.02-1.586c-0.291-1.73-0.145-3.605-1.733-4.899c-0.428-1.3-0.57-2.886,0.434-4.04
	c1.154-1.731,3.164-3.025,5.037-3.025c0.576,1.156,0.576,2.596,1.152,3.893c0.866,2.014,2.734,3.889,4.895,4.18
	C43.647,114.777,45.085,116.364,43.5,117.653z M67.106,93.582c0.143,1.443-0.719,2.453-1.295,3.46c-1.296,0.865-2.302,0-3.6-0.142
	l-3.307,0.142c-0.574-1.007-1.586-2.017-2.595-2.884c1.587-3.459-3.019-8.357,1.728-10.094c2.302-0.717,1.873,4.328,4.318,1.736
	c0.865-0.438,1.584,0.283,2.449,0.863c0.719,1.299,1.725,3.174,0.429,4.617C65.377,92.574,67.249,92.141,67.106,93.582z
	 M48.539,102.666c0.723-0.578,1.729-0.723,2.589-0.866c1.587,1.151,3.887,1.732,5.757,0.866h0.294c-0.58,1.299,0.718,2.597,0,3.748
	c-2.306,0.721-3.458,4.757-6.051,2.451c-1.007-1.005-1.866-2.158-3.31-2.021C47.534,105.406,48.825,104.254,48.539,102.666z
	 M56.746,96.465l0.433,1.157c0.14,1.442-0.294,2.739-1.302,3.458c-0.719,0.289-1.722,0.434-2.443,0.289
	c-1.01-0.719-1.585-1.73-3.02-1.295c-1.01,0.431-2.308,1.58-3.458,0.715c-1.294-0.867-2.595-2.304-1.438-3.747
	c0.865-1.581,3.167-2.165,4.896-2.739C52.86,93.871,54.873,94.877,56.746,96.465z M54.299,93.15c-0.578,0-1.439-0.148-1.584-0.865
	c0-0.863,1.006-1.004,1.44-1.443c1.003-0.287,0.718,1.01,0.859,1.732C54.873,92.861,54.726,93.293,54.299,93.15z M54.299,88.68
	c-1.439,1.158-3.171,2.309-4.031,4.037c-1.729,0.434-3.599,0.728-5.041,2.018c-1.869-1.584-4.748-4.035-3.884-6.918
	c0.722-0.863,1.872-1.584,3.019-1.297c0.724-1.585,0.146-4.322,2.595-4.613c2.013,0.145,3.599,1.006,4.031,2.883
	c0.861,0.574,2.015-0.582,2.584,0.574C54.582,86.232,54.582,87.527,54.299,88.68z M42.35,97.768
	c-1.438-0.293-0.721-2.021-1.148-2.891l0.428-1.295c1.299,0.436,1.728,1.879,2.306,2.883C44.221,97.475,43.215,97.907,42.35,97.768z
	 M45.085,113.045c2.015-0.861,2.161-3.02,2.733-4.608c1.443,0,2.016,2.017,3.31,2.447c2.019,0.863,4.463-1.153,5.903,1.3
	c0.865,1.149,0.287,2.302-0.146,3.459c-1.15,1.006-3.164,1.727-3.883,3.316c-1.008,1.01-2.302,0.571-3.457,0.143l-0.428-0.143
	c-0.721-0.869,0-2.595-1.299-3.174c-0.572,0.579-1.578,0.146-2.156-0.287C45.374,114.777,44.362,113.91,45.085,113.045z M92.87,63.6
	c-1.153,0.141-2.449-0.437-2.737-1.728c-0.287-0.585,0-1.302,0.146-1.876c1.006-1.013,2.156,0.428,3.31-0.289
	c1.581-0.434,3.31-1.156,4.171-2.603c1.731,0.292,2.451,2.458,4.463,2.169c0.578,1.725,2.732,3.314,1.439,5.189
	c-0.721,1.147-1.729,2.456-3.312,2.308c-0.574,0.148-1.148-0.581-1.727,0c-0.72,1.007-0.863,2.307-2.303,2.591
	c-1.291,0.291-2.156-0.577-3.164-1.153c-0.434-1.007-1.152-2.304-0.434-3.454C93.01,64.463,93.157,63.887,92.87,63.6z M94.02,43.553
	c0.719-0.858,1.729-1.006,2.594-1.148c0.859-0.717,0.717-2.596,2.157-2.164c0.575,1.156,1.294,2.307,2.153,3.174l1.155,2.879
	c-1.298,0.873-1.298,2.307-2.015,3.463c-1.294,0.295-2.013,2.883-3.451,1.442c-1.01-0.865-1.443-2.022-1.298-3.316
	C94.309,46.727,93.01,45.142,94.02,43.553z M106.539,38.517c0.582-0.587,1.01,0.284,1.299,0.425
	c1.153,1.445,1.724,3.897,1.295,5.481c-1.15,2.744-3.454,0.43-5.182,1.15c-1.3-0.865-0.434-2.445-1.01-3.459
	c-1.15-0.286-2.16-1.01-2.3-2.16c-0.577-1.152-0.146-2.16,0.714-2.882c1.586-0.437,3.746-0.437,5.043,0.722
	C106.399,38.076,106.256,38.367,106.539,38.517z M109.711,54.227c0.571-1.439,0.718-2.596,0.718-4.326
	c1.726-1.006,4.027-0.285,4.896,1.586c1.727,1.588-0.291,4.618,2.018,6.056c0.715,2.304-1.158,3.608-2.742,4.33
	c-1.437-0.438-2.445,0.282-3.453,1.291c-1.151,0.437-2.446,0.577-3.456-0.29c-0.862-1.586,0.292-3.457,0-5.19
	C107.262,56.104,109.425,55.666,109.711,54.227z M110.713,45.572c0.866,0.148,1.59,1.011,2.16,1.738
	c0.144,0.287,0.144,0.861-0.285,0.715c-1.009-0.284-2.447,0.436-3.163-0.715C109.133,46.443,110.141,46.009,110.713,45.572z
	 M125.682,54.37c0.578,0.578,1.584,1.296,2.308,0.578c0.573-0.865,1.438-1.008,2.302-1.008c0.857,0,1.435,1.008,1.724,1.585
	c0.432,1.579-0.145,2.736-1.294,3.748c-1.871,1.004-4.461,1.004-6.191,0c-1.582-1.59-2.588-3.748-2.877-5.912
	c-1.438-0.436-3.312-0.147-4.311-1.299c-0.438-1.008-0.869-1.871-1.303-2.738c2.16-0.863,4.176-0.725,6.479-0.43
	c2.012-0.434,3.742-1.584,5.324-2.602l0.721,1.305c0.138,1.148-1.297,1.297-1.44,2.158C126.545,51.344,124.965,52.639,125.682,54.37
	z M102.514,57.542c-1.59,0-2.59-1.151-3.458-2.308c-0.433-0.864-0.285-2.309,0.29-3.172c0.719-1.302,3.021,0.725,2.733-1.302
	c-0.433-1.437,0.572-2.878,1.872-3.45c1.438-0.145,2.588,0.572,3.739,1.01c1.586,1.731,0.579,4.606-0.284,6.34
	C105.965,55.957,104.669,58.124,102.514,57.542z M106.112,59.562l-0.433,1.725c-0.724,0.289-0.864-0.717-1.294-1.148
	c-0.289-0.865,0.284-1.301,0.861-1.588C105.823,58.551,106.112,59.124,106.112,59.562z M174.761,37.357
	c1.01-0.723,2.31-0.571,3.313,0c0.566,0.572,1.152,1.159,1.44,1.879c1.288,0.284,1.433-2.312,3.016-1.443
	c1.438,0.863,2.308,2.447,1.302,3.895c-1.439,0.859-2.59,2.734-2.451,4.468c-1.866,0.571-4.025-0.288-5.465,1.155
	c-1.006,0.287-1.582-0.584-2.158-1.018c-0.432-0.857-0.867-1.871-0.574-2.879c0.428-1.01,2.01-0.287,2.01-1.727
	C174.473,40.527,173.758,38.801,174.761,37.357z M176.338,49.176c0.732-0.856,1.592-1.15,2.598-1.435
	c2.162,0.284,3.742,1.435,4.461,3.313c0.285,1.154,0.436,2.738-0.142,3.605c-1.294,1.873-3.455,2.444-5.617,2.591
	c-2.302,0-4.454-1.585-5.181-3.603c-0.574-1.01-1.148-2.594-0.289-3.598C173.184,48.461,174.761,49.324,176.338,49.176z
	 M188.29,55.379c-1.147,0.578-1.868-0.867-2.875-1.152c-0.288-0.722-0.434-1.873,0.43-2.31c0.866-0.286,2.163,0,2.308,1.297
	C188.008,53.793,188.573,54.66,188.29,55.379z M186.849,57.684c0.576,1.59,0,2.887-0.284,4.326
	c-0.576,0.727-1.437,0.863-2.306,1.014c-0.427,1.58,0.579,3.6-1.44,4.321c-1.289,0.284-3.019,0.144-3.164-1.44
	c-0.14-0.439-0.14-1.009-0.576-1.301c-0.863,0.576-2.008,1.157-3.023,0.723c-1.006-1.01-1.721-2.018-1.721-3.316
	c0.715-1.44,2.584-1.871,3.74-2.886c2.441-0.435,4.744-1.148,6.185-3.312C185.415,55.666,186.422,56.818,186.849,57.684z
	 M173.471,59.996c-0.145-0.872-1.014-2.02,0-2.6c0.721,0.728,2.445,0.434,2.153,1.877C175.049,59.707,174.334,60.424,173.471,59.996
	z M173.036,40.527c-1.01,1.3-2.018,2.744-1.727,4.469c-0.291,1.159,2.449,2.17,0.717,3.029c-1.58-0.143-3.31-1.153-5.035-0.428
	c-2.159-0.726-0.865-2.891-1.148-4.621c-0.433-1.149-0.295-2.303,0.283-3.456c1.012-0.864,2.305-1.3,3.457-1.3
	c0.72-0.863,2.443-1.873,3.453-0.863C172.604,38.367,172.748,39.521,173.036,40.527z M167.853,49.035
	c1.006-0.141,2.161,0,2.593,0.865c-0.574,2.309,0.572,4.326,1.58,6.204c-0.428,1.438-0.428,3.169,0,4.466
	c-1.154,1.584-3.31,2.303-5.035,2.166c-1.004-0.148-2.011-1.014-2.452-1.873c-0.282-1.156,1.009-1.88,0.871-2.739
	c-1.3-0.294-3.025-0.294-3.316-1.88c-0.432-1.148,0-2.596,0.869-3.457c0.576-1.443,2.298,0.574,2.73-1.156
	C165.261,50.191,166.7,49.324,167.853,49.035z M228.3,87.096c0.72-1.732,2.595-0.142,3.747-0.576
	c1.15-0.436,2.299-1.156,3.596-0.576c0.721,0.576,1.868,1.01,2.017,2.02c-0.721,1.732-0.433,2.453-0.573,4.322
	c-1.158,1.443-2.596,2.018-4.324,1.732c-1.867,0.859-4.314,2.309-6.331,1.008c-0.72-0.867-0.72-1.732-0.57-2.74
	c0.431-1.004,1.722-1.154,2.155-2.159C227.875,89.11,227.582,87.963,228.3,87.096z M241.832,103.819
	c-1.584,1.587-3.312-1.153-5.183-1.007c-0.86-0.576-1.007-1.732-1.007-2.738c0-1.01,0.857-1.445,1.443-2.167
	c-0.586-0.865-1.004-2.304-0.295-3.313c0.578-0.576,1.152-1.149,2.018-1.149c1.299,0,2.449,0.714,3.312,1.581
	C243.129,97.768,244.28,101.223,241.832,103.819z M242.553,108.721l1.442,2.883l0.427,2.739c-0.863,0-1.588-0.72-2.441-1.011
	c-0.871-1.149-1.59-2.879-0.723-4.318C241.258,108.289,242.121,108.146,242.553,108.721z M233.917,101.369l0.429,1.877l-2.588,2.16
	c-1.291-0.435-2.738,0.863-3.598-0.435c-0.432-1.294-0.145-2.306,0.14-3.749c-0.571-1.005-1.007-2.305-0.14-3.315
	c1.01-1.872,3.164-1.15,4.602-2.161c0.863-0.435,2.163,0.145,2.021,1.154C234.634,98.485,233.487,99.922,233.917,101.369z
	 M226.431,97.042c-0.72,1.443-0.288,2.88,0,4.327c-1.581,2.74,1.585,4.9,0.291,7.352c0.292,1.152-0.724,1.305-1.442,1.876
	c-1.576,0.287-3.168,0.287-4.463-0.866c-1.723-1.441,0.58-3.316-0.576-4.904c-1.146-0.717-1.006-2.302-0.863-3.457
	c0.433-2.16,3.174-1.008,3.744-3.031c0.146-0.716,0.721-1.581,1.582-1.873C225.28,96.465,226.291,96.18,226.431,97.042z
	 M228.591,109.154c0.14-0.718,0.429-1.73,1.439-2.166c1.153-0.144,2.301,0.289,3.456,0c0.431-1.295,1.584-2.449,3.014-2.59
	c1.309,0.286,3.172,0.573,3.607,2.162c0.141,1.729-1.152,3.17-2.164,4.61c-1.861,1.3-4.318,1.733-6.619,0.868
	C230.031,111.604,228.883,110.453,228.591,109.154z M231.325,116.217c1.15-2.594,4.318-1.586,6.335-2.885
	c0.719-0.287,1.149-1.149,2.013-1.149l1.873,2.447l2.301,1.301c0.287,1.722,1.155,4.18-0.576,5.762c-0.436,0.723-1.289,0-2.012,0.29
	c-0.579,1.3-0.867,3.318-2.738,3.177c-1.434-0.149-2.877-1.588-2.877-3.033c-1.152-0.866-2.445,1.297-3.452-0.434
	C230.895,120.396,231.039,117.953,231.325,116.217z M249.746,111.895c0.433-0.147,1.012-0.438,1.441-0.147
	c1.291,0.869,1.727,2.452,2.299,3.751c-0.287,2.155-1.432,4.032-2.154,6.195c-0.289,0.29-0.722,0.147-0.864-0.282
	c-0.145-3.175-0.722-6.78-4.032-8.079C246.006,111.027,248.596,113.045,249.746,111.895z M253.631,100.361
	c0.297,1.152-1.152,2.305-0.145,3.458c1.154,0.435,1.443,1.731,1.443,2.888c-0.145,1.153-1.002,2.447-2.16,2.736
	c-1.438,0.287-3.023,0.143-4.025,1.297c-1.303,0.144-2.449-0.144-3.6-0.715c-0.865-1.16-1.442-2.601-2.734-3.318
	c-1.012-1.301,0.859-2.309,1.585-3.318c2.3-1.008,5.323-1.589,6.327-4.471C251.475,98.197,253.342,98.918,253.631,100.361z
	 M245.43,97.907c0.865,0.144,2.012,0,2.729,0.866c0.29,1.588-1.723,1.731-2.59,2.449l-0.716-0.143
	C244.853,100.074,244.28,98.485,245.43,97.907z M250.468,88.25c-0.722,1.445,0.864,1.876,1.438,2.738
	c0.572,1.297,1.725,2.74,1.008,4.18c-0.574,1.012-1.727,1.874-2.735,2.307c-1.003,0.293-1.583-0.718-2.449-0.863l-3.161-0.576
	c-1.153-1.877-2.736-4.467-5.184-4.326c-0.723-0.287-0.723-0.867-0.865-1.583c0.143-1.016,1.005-2.026,1.871-2.31
	c1.441-0.863,3.024,0.434,4.32-0.43c0.574-0.867,1.584-1.154,2.446-1.303C248.596,86.232,250.468,86.375,250.468,88.25z
	 M227.014,66.336c2.44-2.885-0.871-6.92,1.434-9.945c1.154-0.146,0.572,1.293,1.154,1.733c1.438,2.446,4.744,4.464,3.451,7.341
	c0.145,1.306,1.581,1.158,2.448,1.736c2.01,0.287,3.018,2.303,3.599,3.895c-0.438,1.434,1.148,2.592,1.867,3.748
	c2.162,1.869,6.047,1.012,6.912,4.324c-1.152,0.578-2.449,0.435-3.6,0.858c-1.869,0.148-4.031,0.148-5.038-1.726
	c-0.142-0.285-0.142-0.72-0.579-0.859c-1.151-0.291-0.854,1.293-1.293,1.87c-1.148,1.153-2.735,1.731-4.316,1.44
	c-0.862,0-1.729-0.863-1.869-1.584c0-0.725-0.289-1.874,0.574-2.303c0.861-0.727,2.588-0.438,2.732-2.021
	c0.144-1.445-0.145-2.742-1.15-3.605c-2.156-2.015-4.749,0-6.762,0.863c-2.452,1.586-3.168,4.188-3.311,6.922
	c0.143,2.883,1.009,5.623,3.311,7.496c-0.718,1.443,0.144,3.896-1.729,4.322c-5.324-1.437-3.309-9.081-9.21-9.514
	c-1.587-0.576-3.309,0.148-4.749,0.578c-1.152,0.865-2.014,2.158-2.166,3.75c-0.137,1.73,1.441,3.023,2.883,3.454
	c0.723,0.151,1.874,0.295,2.161-0.431c-0.147-0.863,0.574-1.584,1.154-2.016c1.87-0.863,3.017,0.863,3.593,2.16
	c0.145,1.014,0.145,2.307-0.721,3.027c-2.736,1.15-2.155,4.613-3.159,6.777c-0.726,0.724-0.293,1.876-1.154,2.451
	c-2.022-1.728-0.431-5.769-2.741-7.93c-2.44-1.01-4.457-3.17-5.178-5.623l-0.288-2.881c-2.872-1.299-4.458-4.758-7.768-5.193
	c-0.575-0.576,0.135-1.01,0.433-1.438c1.578-0.865,3.588-1.727,5.607-0.865c1.296,1.01,2.737,2.738,4.754,2.018
	c1.14-1.008,0.577-4.324,3.159-4.183c1.444,0.146,2.162,1.304,3.023,2.456c1.585,0,3.313,0.859,4.752,0.574
	c-0.141-2.307,0.863-3.75,1.299-5.914c0.429-1.582-2.018-2.018-1.008-3.607C221.541,65.18,225.137,69.793,227.014,66.336z
	 M202.971,62.873c0.287-1.001,1.439-1.001,2.019-1.875c-0.864-1.582,0.144-3.315,1.294-4.754c0.721-0.14,1.729-0.432,1.729-1.296
	c-0.572-1.443-1.441-2.739-1.297-4.615c0.857-3.461-1.152-6.63-1.299-10.093c0.724-1.004,1.299,0.576,1.734,1.01
	c2.289,1.154,4.169,3.602,4.169,6.348c-0.429,2.158,0.288,4.319,2.162,5.764c1.001,0.287,2.013-0.147,2.158-1.152
	c-0.29-1.154,0.862-1.876,1.73-2.309c1.437-0.576,3.593-0.576,4.6,1.154c0.869,2.45-2.592,2.45-2.592,4.611
	c0.863,2.743,3.023,5.197,3.744,8.074c0.289,0.723,0.289,0.863,0.146,1.586c-1.014,0.578-2.018,0.139-2.878,0
	c-0.722-1.875-1.296-3.893-2.885-5.48c-1.718-1.156-4.316-1.156-6.046-0.139c-1.006,1.291-2.02,2.596-1.578,4.18
	c0.72,0.717,1.438-0.287,2.154-0.146c0.868,0.434,1.875,0.723,2.447,1.586c0.576,1.297,0,2.742-0.714,3.606
	c-0.865,1.152-2.449,1.296-3.741,0.861c-2.588,0-2.738-3.313-5.475-3.17C203.405,65.761,202.257,64.463,202.971,62.873z
	 M202.403,60.863c-0.875,1.146-2.016,2.736-1.299,4.463l-1.152,0.723c-2.157,0.722-4.891,0.141-7.055,0.574
	c-0.861,0.434-2.014,1.006-2.014,2.161c-0.148,1.585,2.158,0.293,2.303,1.876c0.569,0.86,0.146,1.869-0.289,2.883
	c-0.861,0.577-2.161,1.008-3.169,0.436c-1.438-0.865-2.303-2.31-2.879-3.751c-0.284-2.159,0.868-4.038,2.306-5.332
	c-3.166-1.296,0-4.325-0.717-6.771c1.586,2.739,4.459,5.475,8.203,5.039c0.432-0.14,1.153-0.14,1.299-0.86
	c-1.158-1.439-3.314-3.179-2.741-5.484c0.722-1.006,2.161-0.428,3.311-0.574l1.878,2.594
	C200.956,59.707,202.257,59.707,202.403,60.863z M197.641,54.512c-1.145,1.014-1.861-1.15-3.016,0
	c-0.29,1.014-0.87,2.021-2.015,2.307c-0.866,0.286-1.727,0.433-2.449,0c-0.864-1.006,0-2.735-0.717-3.893
	c-1.436-2.165,1.867-3.025,2.448-4.754c2.305,0.148,4.463-0.574,6.616-1.445l0.146,1.015
	C196.931,50.051,201.528,53.074,197.641,54.512z M191.6,33.761l1.154,1.58c0.861-0.146,1.443-1.302,2.307-1.443
	c1.58-0.137,3.306,0.576,4.029,2.162c0.428,1.153,0.428,2.161-0.148,3.318c-2.73,1.438,1.15,3.026-0.433,5.044
	c-1.296,1.445-3.448,2.45-5.468,1.871c-0.861-1.151,0.574-2.447-0.145-3.746c-0.572-1.873-1.152-4.03-2.735-5.334
	c-0.138-1.153,0-2.449-0.434-3.452C190.024,32.887,190.883,33.761,191.6,33.761z M190.883,41.25c1.01,2.883,0.141,6.2-2.311,8.365
	c-1.148,0.576-2.584,1.146-3.88,0.436c-1.296-1.016-1.731-2.885-1.731-4.615c0-1.883,2.306-1.883,3.027-3.463
	c0-1.156-0.722-2.452,0.576-3.172C188.438,37.357,190.307,39.521,190.883,41.25z M178.359,32.74
	c0.429-1.149,1.156-2.447,2.444-2.591c1.01,0.144,2.452-0.144,3.029,1.011c-0.293,1.872,2.013,0.572,2.732,1.443
	c1.152,0.723,1.588,2.45,1.588,3.603c-0.576,0.865-1.875,0.719-2.737,1.445c-1.446-1.017-3.454-2.022-5.326-1.017
	c-1.583-0.863-3.171-1.581-5.04-1.44c-0.576-0.285-0.288-1.156,0.145-1.587C175.916,32.167,177.212,33.326,178.359,32.74z
	 M142.665,20.785c1.442,0.426,3.021-0.578,4.457,0c2.737-1.302,6.05,0.136,7.2,3.019c1.008,0.29,1.008-0.719,1.725-0.865
	c2.305-0.865,4.898-1.3,7.341-0.723l4.895,2.459c2.588,0.572,5.188-0.435,7.917,0.139l0.295,0.434
	c-1.734,1.009-3.169,2.883-4.897,3.895c-1.152,1.006-3.455,0-4.174,1.587c0,1.727-1.155,3.03-2.593,3.457
	c-1.007,0.576-2.737,0.576-3.745,0c-0.428-1.012-2.01-1.873-1.008-3.318c0.867-0.864,3.461,0,3.461-2.162
	c0.42-1.154-0.869-2.02-1.588-2.737c-2.448-1.294-4.318,0.87-6.044,1.87c-1.437,2.453-2.013,5.629-0.577,8.079l2.014,3.022
	c2.159,1.012,4.318,2.309,6.615,2.886c1.302,1.444-0.42,2.88-0.135,4.466c-1.44,0.873-3.02,0-4.321-0.426
	c-2.013-1.016-4.318-3.173-6.762-1.588c-1.295,0.717-2.882,1.156-3.599,2.447c-1.152,2.168-0.861,4.904,0.429,6.922
	c1.009,1.152,2.877,1.3,4.323,0.863c0.141-1.15-1.153-2.021-0.29-3.168c0.576-1.011,1.873-0.721,2.735-0.721
	c0.718,0.432,1.433,1.008,1.863,1.868c1.154,2.604-1.863,3.753-0.859,6.198c-0.426,1.449-1.866,2.461-3.309,2.461
	c-1.434-0.152-2.301-1.443-3.029-2.6c-1.147,0.723-2.441,1.156-3.739,0.865c-1.291-1.007-1.003-2.312-1.436-3.891
	c-1.434,0.719-1.724,2.884-3.597,2.599c-2.019,0.565-3.453-0.873-5.18-1.02c-0.721-0.714,0.573-0.714,0.573-1.292
	c2.302-1.012,4.894-2.308,5.47-5.052c-0.576-1.726-2.158-3.741-0.288-5.325c1.007-1.45,2.877-1.014,4.178-1.59
	c1.439-1.441,3.159-3.172,5.327-3.318c1.145-0.719,0.134-1.871-0.155-2.598c-0.571-1.144-1.153-2.734-2.588-3.02
	c-0.718,0.285-1.722,0.58-2.584,0.285c-1.012-0.576-2.165-2.019-1.587-3.319c0.863-3.023,4.746-2.155,5.471-5.188
	c-1.012-4.18-6.193-1.873-8.061-5.332C142.522,21.211,142.665,21.066,142.665,20.785z M117.772,24.676
	c1.145-0.295,2.584-1.156,3.881-0.295c2.447,1.73,3.451,6.06,7.197,4.473c1.013-0.723,1.727-1.586,1.441-2.884
	c-0.582-0.867-1.591-2.45-1.01-3.462c0.428-0.718,1.296-0.718,2.016-0.868c2.3,0.15,4.32,1.88,5.469,3.897
	c1.295,0.861,3.45,0.143,5.038,0.861c1.294,0.723,3.597,0.58,4.027,2.17c-1.434,0.575-1.434,3.599-3.597,2.162
	c-2.881-1.445-6.617-1.01-9.068,1.002c-2.018,1.154-2.301,3.321-2.445,5.339c-0.144,1.87,1.586,2.449,2.732,3.315
	c1.297-0.146,2.451-1.009,3.167-2.166c0-1.008-1.003-2.449,0.435-2.73c1.439-0.149,2.732,0.281,3.6,1.296
	c0.572,1.007,1.289,2.3,0.715,3.454c-0.715,1.447-2.016,3.031-3.453,3.605c-1.006,0.434-2.586,0-2.735,1.296
	c0.436,1.014,0.576,2.456-0.143,3.319c-0.86,0.863-2.161,1.295-3.312,1.009c-0.86-0.87-2.444-2.159-1.863-3.603
	c-1.873-1.734,2.152-4.903-1.444-5.48c-0.863,0.287-1.873,0.863-2.449-0.146c-2.012-2.883,2.594-4.469,1.297-7.354
	c-0.863-0.863-1.871-0.283-2.879-0.72c-3.167-1.152-3.6-5.327-6.764-6.487C117.192,25.393,117.477,24.959,117.772,24.676z
	 M114.743,33.032c1.012-0.292,1.588,0.437,2.309,0.729c1.148,0.858,0.721,2.011,1.006,3.164c1.584,0.288,3.02,1.151,2.877,3.028
	c0.143,1.59-0.862,2.594-2.018,3.318c-0.432,0.861,1.01,1.58,0.29,2.596c-0.579,1.73-2.585,1.299-4.028,1.583
	c-1.299-1.157-2.449-2.599-4.031-3.604l-0.864-4.468C112.588,37.93,113.739,35.341,114.743,33.032z M98.19,30.441
	c0.725-1.012,1.734-1.447,3.024-1.447c0.434,0.291,1.438,0.435,1.588-0.426c0-1.59,1.868-1.728,2.878-2.599
	c1.87-0.433,3.164,0.718,3.746,2.304c-0.725,2.741,2.878,1.299,3.017,3.459c0.575,2.455-1.007,4.474-2.88,5.769
	c-1.437,0.149-2.44-1.583-3.739-2.012c-1.727-1.017-3.889-0.727-5.473-0.295C99.924,33.608,97.186,32.457,98.19,30.441z
	 M88.981,34.039c1.44-2.016,3.89,0,5.469-1.725c1.012-0.291,1.729,0.426,2.45,0.718c0.86,1.587,2.302,2.887,1.724,4.761
	c-2.159,0.724-3.02,3.311-5.18,4.18c-0.573,0.722-1.151,1.58-2.158,1.58c-1.584-0.139-2.012-1.58-3.023-2.449
	c-0.289-1.15-0.143-2.303,0.434-3.311C88.696,36.496,87.686,35.054,88.981,34.039z M86.68,51.344c0-1.152,2.158-1.443,1.582-2.744
	c-0.863-0.574-1.149-1.728-0.723-2.591c0.723-2.595,2.882-0.437,4.321-0.437l0.575,0.871c0.574,1.729,1.438,3.026,1.873,4.755
	c0.286,1.876,4.174,2.016,2.305,4.036c-1.01,1.87-2.74,3.175-4.896,3.027c-1.871-0.138-1.584-2.736-3.455-2.883
	C86.821,54.512,86.395,52.926,86.68,51.344z M55.877,56.967c1.874-1.154,4.607-0.288,6.191-2.018
	c1.44-1.008,2.156-3.894,4.318-2.739c1.008-1.154-0.434-3.314,1.008-4.611c1.152-1.015,2.59-2.025,3.165-3.465
	c1.872-2.59,5.469-0.719,7.339-3.316c1.585-1.58,2.449-4.469,5.04-4.757c0.144,0.727-1.009,1.153-1.009,2.017
	c0.143,2.023,1.009,5.195-1.004,6.631c0.139,2.604,1.581,5.484-1.009,7.21c-1.298,0.574-2.304,0.146-3.456-0.286
	c-1.009-0.576-0.575-1.58-0.72-2.596c0.72-0.574,1.729-1.438,0.866-2.452c-0.722-0.574-1.584-0.716-2.451-0.428
	c-1.005,1.586-3.736,1.87-3.162,4.468c0.143,3.317,2.877,5.334,5.467,6.773c3.022,1.293,6.908,0.287,9.5-1.439
	c0.719,0.576,2.445,0.861,2.158,2.019c-3.743,1.586-8.061,3.896-9.645,8.072c-1.004,3.312-0.143,6.922,2.59,9.082
	c1.299,0.289,3.026,0.725,4.178,0.144c1.294-0.725,1.152-2.162,1.152-3.174c-0.724-0.863-2.018-1.441-3.17-1.153
	c-0.718-1.155,1.299-1.725,1.725-2.595c1.301-0.146,2.449-0.725,3.457,0.141c0.574,1.299,1.727,2.313,1.439,3.754
	c1.292,0.434,1.727,1.872,2.015,3.027c0.144,1.152-0.862,1.732-1.728,1.875c-1.152,0-2.594,0-2.447,1.44
	c0.287,1.299-0.573,2.309-1.58,2.887c-1.156,1.435-4.607-1.45-3.457,1.728c0.435,5.046-5.756,3.749-7.34,7.784
	c-0.432,0.58-0.722-0.146-0.863-0.572c-1.435-5.053,6.769-7.357,3.025-12.688c-1.442-0.435-3.025,0.139-4.319-0.721
	c-0.577-0.719-1.005-1.732-0.577-2.602l1.582-1.725c-0.285-2.312-0.285-5.193,1.006-7.356c0.724-1.152,2.451-1.3,2.309-2.738
	c-2.447-1.301-5.186-0.143-7.051,1.586c-0.867,0.142-2.02-0.287-2.313-1.301c-0.568-1.586,2.313-2.449,1.154-4.184
	c-3.018-2.877-4.893,1.881-7.626,2.309c-2.731,0.435-4.317-2.447-7.196-1.874C54.299,58.409,55.305,57.542,55.877,56.967z
	 M42.639,71.521c0-1.437,1.438-2.443,2.588-2.876c0.725,0.287,1.586,0.859,1.586,1.725c-0.572,1.3,0.287,2.455,1.294,3.174
	c1.298,1.008,3.167,0,4.608-0.287c0.719-0.285,1.293-1.293,0.576-1.875c-0.723-0.861-1.586-1.153-1.586-2.304
	c-0.718-2.158,1.297-2.741,2.877-3.173c1.728,0.145,1.295,3.319,3.455,2.164c2.592-1.589,4.894-3.752,7.628-4.905
	c1.153,0.288,1.584,1.591,2.304,2.447c-1.725,1.446-4.176,1.878-5.9,3.613c-0.719,1.436-2.158,3.306-0.719,4.755
	c0.571,0.725,1.438,1.583,2.443,1.007c1.012-0.72,1.73-2.456,3.025-1.442c0.576,0.723,1.15,1.588,0.864,2.455
	c0,1.152-0.716,2.303-1.729,2.592c-2.301,1.156-5.039,1.013-7.049-0.574c-1.299-0.574-0.867-3.312-2.738-2.307
	c-2.875,2.158-7.197,2.734-10.504,1.004C44.077,75.562,42.203,73.834,42.639,71.521z M37.028,80.607
	c0.43-2.447,2.586-4.035,4.315-5.622c1.007,0.435,1.585,1.587,2.304,2.309c-1.008,1.44-2.158,2.88-3.168,4.327
	c-0.146,1.727-0.576,3.453-0.146,5.043l-0.719,2.741c-1.002,0.433-2.156,0.433-2.869-0.144l-0.582-0.869
	C36.017,86.084,35.44,82.771,37.028,80.607z M30.407,97.042c0.433-0.862,1.289-1.438,2.303-1.874
	c0.857-0.143,1.148,1.012,2.012,0.578c-0.143-1.588-0.286-3.314,1.582-4.037c1.154-0.287,3.025-0.578,3.6,0.576
	c0,2.162-0.289,4.326,0.576,6.2c-3.021,1.153-1.579,5.624-5.322,5.769c-1.299,0-2.447,2.016-3.885,0.865
	c-0.865-1.154-0.433-2.738,0-3.896c0.281-0.287,0.72-0.718,0.281-1.148C30.551,99.492,30.262,98.197,30.407,97.042z M19.61,137.986
	c-1.148-2.162,2.446-2.883,1.15-5.042c-0.715-1.009-1.58-2.602-0.715-3.893c1.149-1.302-0.436-2.6-0.436-4.041
	c0.436-2.306,2.016-4.03,3.741-5.625c0.864-3.454-1.581-6.196,0.435-9.22c0.862,0.431,1.721,1.438,2.591,2.018
	c2.304,1.44,1.583,4.033,2.013,6.342c1.443,1.15,4.173,1.299,4.32,3.744c0.143,1.154-0.578,2.455-1.728,3.178
	c-0.72,0.576-1.731,0.576-2.448,0c-1.438-1.013,1.152-2.885-1.293-2.885c-0.864,0-1.299,1.01-1.873,1.584
	c-0.289,1.439-0.289,3.318,0.862,4.326c2.015,2.162,5.466,2.453,8.064,1.295c2.155-1.872,4.456-4.32,4.17-7.352
	c0.286-0.867-0.573-2.592,0.864-2.592c1.15,0,2.875,0.145,2.875,1.725c-0.139,4.33-0.428,10.244,3.889,12.684
	c1.441,0.721,3.025,0.721,4.463,0.436c1.439-0.72,2.447-2.015,2.879-3.461c0-1.292-1.01-2.443-1.871-3.171
	c-0.862,0.436-0.723,2.02-2.018,2.166c-1.295-0.287-2.445-0.867-2.732-2.166c-0.43-1.15,0.144-2.303,0.575-3.312
	c1.009-1.301,3.026-0.578,4.317-0.578c0.434,0.578,0.863,1.014,1.586,0.864c1.008-2.595,4.027-2.884,6.471-3.171
	c1.152,1.732,0.148,3.894-0.428,5.479c-3.024,2.017,1.295,4.758-1.004,7.06c0.139,1.445-2.164,1.594-1.299,3.176
	c1.438,1.008,2.449,2.449,2.156,4.036c-2.156,2.882-0.857,6.489,0.574,9.081c0.291,1.008,0.723,2.447,0,3.312
	c-1.006-0.146-1.432-1.293-2.156-1.871c-1.296-0.866-3.166-1.441-3.45-3.176c-0.584-2.588,0.284-6.195-2.739-7.347
	c-0.861,0-1.721,0.722-1.871,1.587c-0.141,0.865-0.141,2.018-1.148,2.162c-1.584,0.721-2.305-1.297-3.312-2.023
	c-0.864-1.293,0.866-2.883-0.433-4.034c-3.451-1.296-3.885-4.903-5.614-7.347c-1.727,1.436-3.31,2.297-5.181,2.881
	c-1.439,1.008,0.437,2.307-0.575,3.604c-1.011,0.576-2.301,1.296-3.597,0.719c-1.726-0.576-1.583-4.186-4.318-3.601
	c-1.008,0-1.872,0.435-2.303,1.3c-0.289,1.725-0.289,2.59-1.009,4.029C20.476,141.014,20.334,138.996,19.61,137.986z
	 M26.661,167.109c-1.005-0.293-1.155-1.588-1.583-2.31c-0.431-1.878-0.142-4.612,1.583-6.058c0.719-0.569,0.719-1.871,0.435-2.877
	c-0.286-0.578-0.866-1.154-1.729-1.299c-1.008,0.287-2.303,1.299-3.455,0.432c-2.159-1.16,0.863-2.597,0.722-4.039
	c0.142-2.452,3.742-1.73,3.308-4.464c0.578-2.022,0-5.481,2.303-6.633c0.723,1.005,2.447,0.571,3.165,1.294
	c-1.147,2.314-1.577,5.193-0.428,7.643c1.437,1.59,2.876,2.734,5.035,2.734c1.155-0.286,2.595-0.574,3.168-1.723
	c0-0.727-0.285-1.59-1.005-1.73c-1.299,0.427-2.451-0.15-2.74-1.299c-0.142-1.301,0.149-2.309,1.157-3.029
	c1.294-1.149,3.017-0.863,4.604-0.282c2.445,2.448,3.019,6.479,1.726,9.649c-1.726,1.879-4.178,4.613-7.199,3.611
	c-0.859-0.288-1.294-1.732-2.297-0.865c-0.58,1.145-0.149,2.446-0.723,3.459C32.131,162.922,27.526,163.645,26.661,167.109z
	 M30.839,164.658c1.152-0.58,1.433-2.166,2.727-2.311c0.581,2.74,1.873,5.043,2.596,7.645c-1.293,0-2.73,2.017-3.891,0.288
	C32.131,168.262,29.832,166.816,30.839,164.658z M31.41,179.222c0.582-0.872,1.3-1.015,1.873-1.736
	c-0.431-1.292-1.587-3.026-0.284-4.325c1.58-2.016,3.883-0.289,5.752-1.439c1.152,0.861,1.582,2.449,2.162,3.75
	c-1.01,2.162-2.732,4.18-3.168,6.63c-0.863,1.153-2.447,0.577-3.31,1.874c-1.152,0.43-2.163-0.58-2.591-1.444
	C31.41,181.529,31.127,180.222,31.41,179.222z M38.464,196.372c-0.859,0.577-1.867,0.286-2.876,0.577
	c-1.294-0.577-2.306-1.293-3.026-2.595c-0.144-1.156-0.57-2.161,0.29-3.173c0.58-0.432,1.727-0.288,1.727-1.293
	c-0.721-0.871-1.58-2.166-1.012-3.319c1.012-1.151,2.45-1.728,3.745-2.165c1.438,0.293,1.152,2.018,2.159,2.597
	c1.441,2.16,3.744,3.893,6.333,4.181c0.865,0.723,0.437,2.16,0.147,3.031c-0.434,1.004-1.299,1.873-2.305,2.307
	c-1.73,0.287-2.588-0.725-3.314-2.02C39.038,194.067,39.185,195.795,38.464,196.372z M55.015,216.415
	c0.29,2.589,0.72,5.617,1.009,8.073c-0.433,0.432-0.865,0-1.298-0.289c-0.144-2.593-3.452-3.609-4.312-6.203
	c-0.58-1.151,1.002-2.877-0.58-3.311c-2.301,0.434-4.316-1.59-5.473-3.461l-1.004-2.885c-2.299-1.01-3.744-3.316-4.458-5.62
	c0.571-0.29,1.147-0.145,1.727,0.142c1.868-0.432,3.735-1.008,5.757-0.865c0.43-1.154,1.582-2.162,3.021-2.162
	c1.296,0.578,3.887,0.718,3.742,3.027c0.287,1.153-0.287,2.444-1.441,3.023c-1.584,0-3.309,0.293-4.027,1.883
	c0.287,1.289,1.007,2.154,2.018,2.879c2.444,1.006,5.319,0.578,7.189-1.299c2.161-2.735,2.449-6.197,1.584-9.373
	c-0.432-1.008-1.004-1.73-1.723-2.737c1.005-1.011,1.291-3.17,2.734-3.17c2.44,3.17,4.459,7.636,8.92,7.495
	c1.727-0.289,3.311-0.721,4.465-2.162c0.857-1.156,1.439-2.742,0.857-4.184c-0.43-0.862-0.712-2.307-1.871-2.734
	c-0.857,0-1.582,0.576-1.725,1.299c0,0.867-0.428,1.875-1.293,2.164c-0.727,0.141-1.151,0.141-1.867,0
	c-1.302-0.867-1.59-2.457-1.443-3.894c0.575-0.726,1.15-1.591,2.159-1.302l0.425-0.434c-1.141-2.738,0.727-5.475,0-8.216
	c0.149-0.571,0.867-0.437,1.154-0.286c1.586,0.863,2.59,2.59,3.17,4.035c-1.01,3.891,3.597,3.604,4.752,6.202
	c0.57,1.437,0.43,2.447,0.57,4.034l3.31,2.6l3.312,5.04c0,0.431-0.574,0.72-0.865,0.868c-3.163-0.148-4.604-3.752-7.77-2.891
	c-1.011,0.15-0.864,1.158-1.154,1.738c0.29,0.715,0.144,1.291,0,1.864c-0.864,1.161-2.44,0.723-3.593,0.436
	c-2.738,0.143-5.617-0.289-7.773-2.301l-0.434,0.284c-0.142,2.303,0.722,4.042,0,6.196c0.291,1.73,3.023,0.578,2.446,2.742
	c0.432,1.586-1.44,1.873-2.155,2.598c-1.728,0-3.316-0.725-4.174-2.309C57.465,213.669,56.024,215.119,55.015,216.415z
	 M77.614,225.785c-1.006,0.432-2.305,0.287-3.026,1.295c0.436,1.875,2.306,3.463,1.441,5.622c-0.431,2.306-2.591,4.329-1.583,6.921
	c-0.289,0.58-0.861,0.287-1.152,0c-3.024-2.014-0.719-5.479-1.871-8.221c-0.285-0.718-0.862-1.293-1.581-1.582
	c-2.735-1.299-3.454,2.734-6.048,1.582c-0.715-0.285-1.582-0.428-1.725-1.293c-0.288-1.445,1.584-0.583,1.725-1.73
	c2.017-3.891-3.454-5.77-4.173-9.375c0-1.008-1.007-2.159-0.14-3.168l3.451,1.009c0.436,2.305,1.727,4.762,4.174,5.624
	c1.869,1.148,3.889,0,5.614-0.579c0.864-0.72,1.294-1.872,1.726-2.886c0-1.008-0.289-1.866-1.152-2.589
	c-0.861,0.43-1.871,1.295-2.873,0.723c-0.579-0.433-1.158-0.867-1.158-1.734c0-1.583,1.298-2.739,2.885-3.022
	c1.438,0,3.016,0.137,3.739,1.439c2.159,1.729,0.722,4.467,1.585,6.77l1.723,1.879C78.761,223.617,78.475,224.776,77.614,225.785z
	 M79.194,218.287c2.879-1.582,6.478-2.017,9.787-1.872c1.009-0.437,2.305-0.866,2.88-2.165c-0.144-0.725,0.432-2.019-0.575-2.166
	c-1.296,0.434-2.012-0.715-2.59-1.438l0.143-1.729c1.873-0.726,4.605-1.013,6.191,0.572l1.435,2.018
	c0.579,1.445,0.435,3.178-0.427,4.471c-0.576,0.292-1.154,1.012-1.154,1.731l1.73,1.731c-0.293,2.165-0.293,4.615,0.286,6.775
	c-1.151,0-0.435-2.018-1.438-2.6c-2.591-2.447-6.48-4.033-10.076-2.881c-1.009,1.296,1.151,1.296,1.728,2.162l1.868,2.166
	c-0.285,1.152-1.726,1.585-2.444,2.596h-0.431c-1.295-1.588-2.736-3.893-5.041-3.893C79.63,222.324,79.194,220.162,79.194,218.287z
	 M92.147,248.849c-0.719,0.573-1.867,0.573-2.873,0.431c-1.154-0.431-0.723-2.014-1.875-2.447c-1.004,0.721-2.588,1.152-3.74,0.287
	c-0.866-0.864-1.44-2.162-0.866-3.164c0.433-1.014,2.45-1.156,1.584-2.604c-0.434-0.572-0.574-1.583-0.144-2.16
	c1.729-1.439,4.463-1.873,6.616-1.152l0.579,0.864c-0.43,1.876,0.289,3.749,1.442,5.19
	C91.861,245.684,92.723,247.266,92.147,248.849z M93.444,242.361c-1.008-1.582-0.434-3.746-0.143-5.622
	c1.008-1.296,2.303-3.89,4.459-3.317l1.441,2.453c0.723,0.864,0.574,2.02,0.145,3.028c-1.294,0.865-2.016,2.308-1.728,3.749
	c-0.288,0.573-0.719,1.441-1.44,1.441C94.883,244.529,94.164,243.226,93.444,242.361z M106.112,250.871
	c-2.449-0.288-2.016,2.591-3.889,3.166c-1.299,0.584-2.592-0.288-3.74-0.863c-0.723-1.008-0.293-2.737-1.73-3.316
	c-1.148-0.145-1.869-0.863-2.732-1.723c-0.146-0.582-0.287-1.594,0-2.311c1.296-0.719,2.594,0,3.884-0.141l1.152,0.857
	c2.157,0,4.606,0,6.477,1.302c0.866,0.142,2.017-0.866,2.593,0.142C108.27,249.279,107.121,250.293,106.112,250.871z
	 M106.973,245.824c-1.44,0.147-2.733-0.434-4.031-1.008c-1.15,0.428-2.73,0.867-3.74,0c-0.578-0.723,0.29-1.156,0.145-1.875
	c-0.432-2.309,2.301-3.031,2.301-5.332c1.154-0.44,2.593-0.291,3.455-1.447c0.721-0.143,0.721,0.721,1.438,0.721
	c1.299,0.436,3.172-0.144,3.31,1.875c0.434,1.582-0.857,2.453-1.579,3.604C108.125,243.66,108.27,245.105,106.973,245.824z
	 M138.352,252.744c-0.436,1.584-1.731,3.313-3.746,3.023c-0.721-0.576-1.582,0-2.299,0.148c-0.723,0.285-0.292,1.008-0.149,1.434
	c2.306,1.311,5.471,2.462,6.048,5.203c-2.301,1.297-5.613,1.578-7.914,0.422l-2.449-2.735c-0.576,0.29-0.432-0.147-1.006-0.287
	c-2.164,1.292-5.326,2.737-7.92,0.866c-1.145-1.007-2.012-2.886-3.883-2.596c-2.017,0.282-3.887,2.16-5.9,0.865
	c1.149-2.309,3.17-5.051,6.045-5.193c0.72-0.721-0.145-1.293,0-2.158c0.861-1.588,2.445-3.318,4.463-3.894
	c1.436,0,3.02,0.292,3.596,1.726c0.291,0.725,0.291,1.586-0.289,2.02c-1.295,1.156-3.883-0.576-3.883,2.02
	c-0.148,1.727,1.723,2.449,2.733,3.607c1.73,0.432,3.168-0.867,4.605-1.587c1.729-2.02,2.016-4.616,1.587-6.923
	c0.287-2.733-1.872-4.611-3.747-6.053c-1.87-0.719-3.738-1.725-5.758-1.156c-0.144-1.293,0.863-2.449,1.01-3.887
	c5.035-1.156,9.355,4.752,14.25,1.294c1.725-1.294,3.884-2.884,3.884-5.337c0.145-1.584-0.862-2.449-1.44-3.746
	c-1.438-1.008-3.164-1.877-5.039-1.299c-0.283,0.577-1.439,0.577-1.004,1.443c1.152,0.578,1.439,1.584,1.004,2.737
	c-0.428,1.156-1.721,1.731-2.872,1.584c-1.011,0-1.585-0.864-2.45-1.437c-0.861-1.583-0.723-3.175-0.432-5.047
	c1.297-2.307,4.174-3.168,6.62-4.035c1.299-0.577,2.591,0,3.742,0.432c0.863,0.865,1.298,1.873,2.304,2.161
	c0.721-1.008,1.869-1.726,3.021-2.012c2.448-0.292,4.604,1.147,6.908,0.716c0.291,1.296-1.003,2.447-2.015,3.172
	c-1.579,1.584-4.172,1.729-5.036,3.895c1.004,1.727,1.295,3.889,0.143,5.621c-3.021,0.863-3.885,4.609-7.051,5.334
	c-0.865,0.574-2.017-0.287-2.447,0.869c0.723,1.729,1.293,3.742,1.293,5.758c1.586,2.168,4.178-0.145,6.336,0.289
	c0.574,0.435,1.441,0,1.869,0.729C140.365,251.588,139.213,251.881,138.352,252.744z M163.539,260.239
	c-2.164-0.287-4.463-1.151-5.614-3.315c-0.723-1.008-2.018-0.576-2.595-1.443c-1.295-0.146-2.302,0.287-3.016,1.299
	c-0.295,1.582,1.866,2.74,2.008,4.465c-0.863,0.867-2.588,0.293-3.59,0.15c-3.025-0.723-3.466-4.754-6.336-6.061
	c-1.732,0-3.314-0.429-4.76-1.006c-0.283-0.866,0.871-1.154,1.303-1.727c1.442-0.575,3.457-0.865,4.892,0
	c2.596-0.575,6.189-1.014,6.91-4.328c0.575-1.441,0.287-3.457-0.722-4.76c-1.148-0.288-2.448-2.018-3.593-0.715
	c0.139,1.156,0.284,2.307-0.437,3.173c-0.868,0.424-1.727,0.14-2.59,0.14c-1.87-1.006-1.584-3.025-1.87-4.76
	c1.008-1.583,2.445-3.162,4.604-3.162c1.294,0,3.601,0.135,3.743-1.736c1.012-0.578,1.867-1.445,3.023-1.01
	c0.866,1.875,2.018,4.029,1.73,6.197c1.722,1.873,2.017,4.755,0.86,7.064c-0.288,0.289-0.86,1.008-0.433,1.443
	c0.575,0.723,1.442,0.582,2.019,0.863c2.443,2.737,3.308,6.338,6.333,8.647C165.261,260.383,164.256,260.239,163.539,260.239z
	 M167.137,250.871c-1.012-0.434-1.012-1.592-1.876-2.022c-1.302,0-2.877-0.431-3.025-1.872c-0.86-1.732,1.304-2.738,0.577-4.324
	c-0.719-0.719-1.15-1.725-0.861-2.884c0.719-0.865,1.156-1.874,2.305-2.159c1.869,0.143,3.168,1.438,4.896,1.863
	c1.008,0.15,2.156,0,2.873,0.582c-1.008,1.879-0.289,3.605,0.432,5.336c-0.14,1.441-1.724,1.441-2.155,2.594
	C169.295,248.994,169.006,251.736,167.137,250.871z M183.682,253.462c-0.573,1.729-2.734,1.011-3.741,1.729
	c0.288,1.303-0.862,2.311-1.726,2.741c-0.859,0-1.877,0-2.591-0.583c-1.151-1.002-0.142-4.748-2.733-3.021
	c-0.865,0.577-1.582-0.434-2.02-0.866c-0.711-0.571-0.569-1.436-0.711-2.019c0.285-1.73,1.576-3.025,3.166-3.891
	c2.298,1.869,5.314,3.746,8.342,2.305c0.293-0.436,0.725-0.289,1.01-0.145C183.397,250.871,184.115,252.026,183.682,253.462z
	 M192.467,247.119c0.287,0.578,0.287,1.586,0,2.16c-0.867,0.869-1.875,1.304-2.883,1.304c-0.864-0.581-1.432-0.146-1.867,0.571
	c-1.152,0.434-2.45,0.145-3.168-0.718c-0.58-1.015-1.01-2.302-0.58-3.46c1.446-1.005,3.456-1.293,4.184-3.021
	c2.009-0.15,4.458-4.908,5.463-0.869C194.625,245.105,190.883,245.244,192.467,247.119z M197.213,235.875
	c-0.717,0.864-2.152-0.432-2.588,0.864c0.721,1.585-1.01,2.308-2.015,2.884l-0.718-0.15c-2.309-2.733-2.02-7.49-6.338-8.355
	c1.294-2.738,4.318-4.468,7.199-5.332c1.443-0.289,2.444,0.575,3.025,1.584c0.576,0.867,0.141,1.586,0.432,2.451
	c0.861,1.008,2.73,0.864,2.73,2.59C198.942,233.566,198.795,235.443,197.213,235.875z M224.563,226.789
	c-2.012,0.146-3.166,2.449-5.037,2.737c-0.576,0.87-1.73,0.87-2.02,2.023c0.434,1.873,0.866,4.326-0.571,5.914
	c-2.011,3.17-5.904,3.316-9.069,3.316c-3.454,0.717-3.312,4.754-5.607,6.34h-0.292c0.721-0.578,0-1.295,0.292-1.875
	c0.429-1.584-0.579-3.17-0.292-4.754l1.293-2.881c-1.001-1.447-1.871-3.465-1.001-5.199c1.001-0.721,1.868-2.301,3.306-1.726
	c1.008,0.29,1.727,1.155,2.01,2.165c0.439,1.154-1.863,1.295-0.857,2.446c1.008,0.866,2.309,2.456,3.738,1.298
	c1.582-1.009,2.736-2.735,2.882-4.611c0-2.308-1.005-4.322-2.444-6.061c-2.447-2.154-5.901-2.154-8.926-1.287
	c-1.299,0.574-2.586,2.015-3.744,3.025c-0.861-0.58-1.58-1.738-2.01-2.74c0.72-4.035,5.898-4.758,7.48-8.505
	c1.583-1.878,0.147-4.184,0.434-6.493c-0.434-1.152-1.723-1.73-2.738-2.154c-1.583,0-3.166,0.425-3.881,2.01
	c-0.293,2.021,3.019,1.447,2.445,3.892c0,1.45-1.297,2.602-2.445,3.036c-1.586,0.433-2.594-0.727-3.457-1.586
	c-0.863-0.869-0.294-2.024-0.294-3.035c-1.001-0.715-2.297-1.152-2.581-2.594c-0.439-1.298,0.284-2.737,1.723-3.023
	c1.016-0.725,2.302,0.43,3.023-1.014c-0.141-1.149,0.861-2.012,1.721-2.451c0.58-0.572,1.587-0.141,2.02-1.006
	c-0.282-1.584,0.864-2.451,1.005-3.752c3.025-1.295,5.617-3.745,7.486-6.486c0.725-0.143,0.725,0.725,0.871,1.152
	c0.858,4.039-2.6,6.343-4.613,9.229c-0.141,1.441,0.579,2.742,1.729,3.459c1.433,0.58,3.3,0,4.026,1.732
	c1.01,1.875-0.855,2.883-1.289,4.178c0.146,2.456,0,4.907-1.588,6.641c-0.139,0.72-1.296,2.014,0,2.307
	c2.021-0.438,4.17,0,5.9-1.451c1.007,0.145,1.733,1.014,2.305,2.023c0.43,1.441-0.289,3.607,1.727,4.182
	c2.014,1.727,3.596-1.441,5.758-1.592c2.301-0.427,4.315,0.732,6.331,1.592C228.3,226.936,226.143,226.217,224.563,226.789z
	 M232.907,215.689c-0.287,1.301-1.436,1.878-2.588,2.02c-1.588,0-2.443-2.741-4.32-2.02c-2.017,3.029-4.601,6.343-8.493,6.92
	c0.29-1.439-2.011-2.738-0.284-3.741c2.734-1.301,4.461-4.183,5.18-6.927c-0.719-1.441-1.297-3.456-3.166-3.749
	c-0.719,0.293-2.158,0.148-2.158,1.298c0,0.87-0.143,1.734-0.863,2.309c-1.154,0.433-1.87-0.574-2.732-1.152
	c-1.302-1.156-0.146-2.879,0.14-4.322c1.152-1.019,2.446-2.455,4.318-2.168c0.866-1.006,0.722-3.023,2.594-2.883
	c2.588-0.722,2.445,2.741,4.316,2.883c2.164-2.453,5.756-1.006,8.49-0.864c0.577,0.288,1.443-0.572,1.585,0.434
	c-0.435,2.887-3.313,4.33-5.905,5.192c-0.72,0.287-1.582,1.295-0.859,2.014C229.454,212.953,233.775,212.084,232.907,215.689z
	 M243.27,207.187c-1.148,0.143-1.725,1.583-2.591,2.161c0.866,1.152,1.442,2.736,0.866,4.037c-0.721,1.152-1.297,2.019-2.59,2.164
	c-0.722,0.141-1.296-0.58-1.729-1.299c0.143-0.865,0.433-2.019-0.288-2.598c-1.149-1.292-2.448,0.146-3.599,0
	c-1.149-0.145-2.445-0.145-2.873-1.292l0.139-0.438c2.881-0.865,5.322-3.025,8.057-4.18c4.172-3.889,6.339-9.37,4.172-14.849
	c0.436-0.718,1.588-1.294,2.596-1.005l1.297,2.594c1.294,5.477-0.721,9.947-3.742,14.13L243.27,207.187z M254.066,184.697
	c-0.866,1.152-2.011,1.725-3.455,1.584c-0.864,0.863,0,2.307-1.292,3.025c-0.574,0.582-1.589,0.724-2.161,0.582
	c-2.305-1.006-1.872-3.89-3.312-5.629c-0.861-1.006-2.736-2.445-1.012-3.742c0.581-1.296,2.311-0.296,3.031-1.018
	c2.73-0.43,4.893-8.502,7.189-2.299c0,1.298,0.432,2.299-0.576,3.316C252.914,182.101,255.075,182.814,254.066,184.697z
	 M264.428,149.658c-0.863,1.734-3.454,2.893-2.445,5.053c1.582,3.021-0.146,6.627-1.299,9.224c0.146,3.027,1.152,5.77-0.287,8.507
	c-1.725,0.578-0.861-1.731-1.58-2.448c-2.016-0.864-3.314-2.884-3.314-5.046c-1.574-0.721-3.447-1.303-4.17-3.178
	c-0.432-1.005-0.145-2.16,0.283-3.314c0.863-0.426,1.727-1.3,2.883-0.863c1.004,0.581,1.004,2.018,2.303,2.018
	c1.295,0.146,1.441-1.298,1.726-2.165c0-2.018-0.431-3.743-1.87-5.043c-1.295-1.154-3.457-0.868-5.041-0.577
	c-1.725,0.577-3.595,1.73-4.602,3.603c-0.863,1.728-0.287,4.042,0.285,5.628c-0.716,0.429-1.869,0.715-2.73,0.864
	c-1.584-1.011-2.447-2.888-2.158-4.616c1.005-1.588-0.865-2.592-1.152-4.041c-0.291-2.732-0.867-6.767-4.319-7.922
	c-2.305-0.434-3.741,0-5.327,1.586c-0.717,1.004-0.572,2.595-0.287,3.746c1.438,0.861,2.883-2.02,4.465-0.283
	c1.297,0.858,1.722,2.303,1.438,3.596c-0.288,1.588-2.016,1.881-3.02,2.596c-1.732,0.723-3.168-0.138-4.322-1.293
	c-1.438,0.14-2.303,1.868-3.742,1.01c-1.156-0.432-1.439-1.73-1.439-2.881c0.146-1.156,1.439-2.169,0.434-3.32
	c-1.011-1.012-0.434-2.166-0.434-3.314c-0.141-1.586,2.448-1.586,1.295-3.172c-3.02-2.018-1.872-6.055-2.017-9.084l-1.431-5.474
	l0.428-0.439c1.725,2.457,5.182,2.312,5.904,5.336c1.147,2.309-0.152,6.055,3.164,6.773c2.012,0.145,1.578-2.736,3.596-2.736
	c1.584-0.285,2.453,1.441,3.166,2.447c0.433,3.036,5.037,1.879,5.324,5.484c1.297,1.438,0.146,3.74,1.297,5.182
	c0.721,0,0.865-0.862,1.297-1.289c1.152-1.012,2.879-1.304,3.452-3.029c0.289-2.018-2.449-4.758,0.864-5.48
	c2.588,0,3.887,2.596,4.75,4.617c1.151,0.577,2.303,1.438,3.595,1.145c1.586-1.867,1.586-4.611,3.89-6.049l0.428,0.143
	C263.42,143.896,265.288,146.634,264.428,149.658z"/>
</svg>
