<?xml version="1.0" encoding="utf-8"?>
<!-- Generator: Adobe Illustrator 17.0.0, SVG Export Plug-In . SVG Version: 6.00 Build 0)  -->
<!DOCTYPE svg PUBLIC "-//W3C//DTD SVG 1.1//EN" "http://www.w3.org/Graphics/SVG/1.1/DTD/svg11.dtd">
<svg version="1.1" id="图层_1" xmlns="http://www.w3.org/2000/svg" xmlns:xlink="http://www.w3.org/1999/xlink" x="0px" y="0px"
	 width="64px" height="64px" viewBox="0 0 64 64" enable-background="new 0 0 64 64" xml:space="preserve">
<path fill="#76C2AF" d="M32,0c17.673,0,32,14.327,32,32S49.673,64,32,64S0,49.673,0,32S14.327,0,32,0z"/>
<path opacity="0.2" fill="#231F20" d="M42.461,44c-0.671,0-1.326-0.338-1.705-0.951c-0.58-0.94-0.287-2.172,0.653-2.752
	l10.124-6.242c0.005-0.018,0.007-0.036,0.007-0.056s-0.002-0.038-0.007-0.056l-10.123-6.24c-0.94-0.58-1.232-1.812-0.653-2.752
	c0.58-0.94,1.812-1.232,2.752-0.653l10.63,6.554l0.165,0.165c0.797,0.797,1.236,1.856,1.236,2.983c0,1.126-0.439,2.186-1.236,2.983
	l-0.166,0.166l-10.63,6.554C43.182,43.904,42.819,44,42.461,44z M21.539,44c-0.358,0-0.721-0.096-1.048-0.298l-10.63-6.554
	l-0.166-0.166C8.898,36.186,8.459,35.126,8.459,34c0-1.127,0.439-2.187,1.236-2.983l0.165-0.165l10.63-6.554
	c0.941-0.58,2.172-0.287,2.752,0.653c0.58,0.94,0.287,2.172-0.653,2.752l-10.124,6.242c-0.005,0.018-0.007,0.036-0.007,0.056
	s0.002,0.038,0.007,0.056l10.124,6.242c0.94,0.58,1.232,1.812,0.653,2.752C22.865,43.663,22.209,44,21.539,44z M25.5,53
	c-0.237,0-0.479-0.042-0.714-0.132c-1.032-0.395-1.548-1.551-1.154-2.583l13-34c0.395-1.032,1.551-1.549,2.583-1.154
	c1.032,0.395,1.548,1.551,1.154,2.583l-13,34C27.063,52.511,26.305,53,25.5,53z"/>
<path fill="#FFFFFF" d="M42.461,42c-0.671,0-1.327-0.337-1.705-0.95c-0.58-0.94-0.287-2.173,0.653-2.752l10.123-6.241
	c0.01-0.037,0.01-0.076,0-0.113L41.41,25.702c-0.94-0.579-1.233-1.812-0.653-2.752s1.811-1.233,2.752-0.652l10.631,6.554
	l0.166,0.165c1.644,1.646,1.644,4.321,0,5.967l-0.166,0.165l-10.631,6.554C43.182,41.904,42.819,42,42.461,42z M21.539,42
	c-0.358,0-0.72-0.096-1.047-0.298L9.86,35.148l-0.166-0.165c-1.644-1.646-1.644-4.321,0-5.967l0.166-0.165l10.631-6.554
	c0.939-0.581,2.173-0.288,2.752,0.652c0.58,0.94,0.287,2.173-0.653,2.752l-10.123,6.241c-0.01,0.037-0.01,0.076,0,0.113
	l10.123,6.241c0.94,0.579,1.233,1.812,0.653,2.752C22.865,41.663,22.209,42,21.539,42z M25.5,51.001
	c-0.237,0-0.479-0.043-0.714-0.133c-1.032-0.395-1.548-1.551-1.154-2.582l13-34c0.395-1.031,1.551-1.55,2.583-1.154
	c1.032,0.395,1.548,1.551,1.154,2.582l-13,34C27.063,50.511,26.305,51.001,25.5,51.001z"/>
</svg>
