<?xml version="1.0" encoding="utf-8"?>
<!-- Generator: Adobe Illustrator 17.0.0, SVG Export Plug-In . SVG Version: 6.00 Build 0)  -->
<!DOCTYPE svg PUBLIC "-//W3C//DTD SVG 1.1//EN" "http://www.w3.org/Graphics/SVG/1.1/DTD/svg11.dtd">
<svg version="1.1" xmlns="http://www.w3.org/2000/svg" xmlns:xlink="http://www.w3.org/1999/xlink" x="0px" y="0px"
	 width="139.933px" height="165.027px" viewBox="0 0 139.933 165.027" enable-background="new 0 0 139.933 165.027"
	 xml:space="preserve">
<g id="background">
</g>
<g id="objects">
	<polygon fill="#9EB121" points="104.71,134.482 82.424,94.866 92.871,94.059 76.156,68.187 86.603,67.378 64.317,38.274 
		74.067,37.465 52.478,0.274 52.241,1.203 52.233,0 30.643,37.188 40.393,37.997 18.107,67.103 28.554,67.911 11.839,93.782 
		22.287,94.591 0,134.205 18.31,133.966 18.292,134.04 	"/>
	<rect x="48.362" y="125.095" fill="#432416" width="7.986" height="39.933"/>
	<polygon fill="#C6CC38" points="139.933,145.227 117.646,105.611 128.094,104.802 111.378,78.932 121.826,78.122 99.539,49.018 
		109.289,48.209 87.7,11.019 87.464,11.947 87.455,10.743 65.866,47.933 75.616,48.741 53.33,77.847 63.777,78.654 47.062,104.527 
		57.509,105.334 35.223,144.95 53.533,144.711 53.515,144.784 	"/>
	<rect x="83.585" y="135.463" fill="#432416" width="7.986" height="29.285"/>
</g>
</svg>
