<?xml version="1.0" encoding="utf-8"?>
<!-- Generator: Adobe Illustrator 17.0.0, SVG Export Plug-In . SVG Version: 6.00 Build 0)  -->
<!DOCTYPE svg PUBLIC "-//W3C//DTD SVG 1.1//EN" "http://www.w3.org/Graphics/SVG/1.1/DTD/svg11.dtd">
<svg version="1.1" id="Layer_3" xmlns="http://www.w3.org/2000/svg" xmlns:xlink="http://www.w3.org/1999/xlink" x="0px" y="0px"
	 width="238.645px" height="254.311px" viewBox="0 0 238.645 254.311" enable-background="new 0 0 238.645 254.311"
	 xml:space="preserve">
<path fill="#F5A725" d="M134.664,59.942c-2.975-4.699-8.701-5.964-13.207-2.919c-4.259,2.874-6.138,9.193-3.478,13.76
	c3.198,5.49,7.562,9.877,13.652,11.438c7.946,2.038,13.805-0.919,17.9-8.683c9.817-18.622-1.482-44.19-21.202-47.47
	c-5.633-0.935-11.436-0.723-17.159-1.037c-0.058,0.427-0.117,0.851-0.18,1.273c4.36,1.116,8.794,1.989,13.076,3.384
	c15.931,5.193,22.127,15.7,20.033,33.564c-1.157,9.824-6.629,14.544-16.148,13.658c1.752-1,3.453-1.671,4.817-2.814
	C136.758,70.758,137.522,64.455,134.664,59.942z M126.195,65.313c-0.128,0.866-1.63,1.494-3.411,2.946
	c-0.458-2.305-1.128-3.662-0.786-4.582c0.302-0.798,2.149-1.78,2.592-1.475C125.45,62.799,126.339,64.337,126.195,65.313z
	 M163.408,11.299c14.752,0.43,26.495,6.381,35.128,17.803c9.998,13.222,11.258,30.77,3.735,49.834
	c-0.031-0.121-0.05-0.248-0.081-0.365c-0.235-0.698-0.469-1.386-0.696-2.062c-0.307-0.676-0.571-1.312-0.921-1.963
	c-0.411-0.657-0.854-1.419-1.256-1.895l-0.586-0.648l-0.287-0.319l-0.019-0.021c-0.236-0.285-0.079-0.091-0.141-0.159l-0.05-0.043
	l-0.105-0.085l-0.203-0.164c-2.116-1.864-4.808-2.515-6.868-2.358c-2.099,0.118-3.712,0.785-4.951,1.374
	c-1.248,0.593-2.111,1.23-2.692,1.657c-0.574,0.439-0.848,0.708-0.848,0.708s0.36-0.134,1.036-0.345
	c0.665-0.218,1.68-0.461,2.936-0.674c1.253-0.198,2.799-0.278,4.369,0c1.584,0.301,3.032,1.163,4.085,2.537l0.077,0.095l0.014,0.021
	l0.225,0.367c0.15,0.245,0.306,0.494,0.459,0.745c0.269,0.482,0.296,0.83,0.483,1.228c0.137,0.488,0.275,0.985,0.415,1.489
	c0.094,0.536,0.183,1.076,0.277,1.627c0.284,2.233,0.201,4.691-0.263,7.074c-0.454,2.376-1.395,4.696-2.741,6.287l-0.501,0.584
	c-0.178,0.173-0.381,0.297-0.566,0.453c-0.345,0.358-0.786,0.504-1.174,0.745c-0.183,0.149-0.422,0.185-0.643,0.247
	c-0.223,0.066-0.442,0.135-0.662,0.216l-0.04,0.014c-0.026,0.005-0.03,0.007-0.026,0.005l-0.053,0.009L190,95.357l-0.556,0.093
	c-0.358,0.054-0.771,0.141-1.082,0.168c-1.175,0.13-2.51,0.258-3.811,0.212c-1.304-0.004-2.563-0.154-3.77-0.358
	c-1.149-0.274-2.326-0.566-3.161-1.039c-0.864-0.451-1.428-0.973-1.711-1.402c-0.277-0.418-0.289-1.03-0.148-1.879l0.188-0.656
	l0.042-0.167c-0.025,0.053,0.072-0.146-0.064,0.112l0.015-0.029l0.028-0.056l0.055-0.114l0.216-0.45l0.262-0.483
	c0.141-0.173,0.244-0.375,0.396-0.549c1.142-1.428,3.004-2.463,4.85-2.993c1.857-0.535,3.73-0.649,5.259-0.35
	c1.526,0.311,2.703,1.012,3.253,1.981c0.57,0.954,0.631,2.015,0.564,2.691c-0.059,0.693-0.127,1.078-0.127,1.078
	s0.047-0.084,0.14-0.244c0.08-0.165,0.256-0.393,0.388-0.735c0.273-0.653,0.733-1.767,0.364-3.298
	c-0.179-0.749-0.576-1.577-1.22-2.285c-0.628-0.722-1.487-1.298-2.439-1.764c-1.922-0.92-4.291-1.368-6.877-1.159
	c-2.558,0.229-5.466,1.06-7.996,3.306c-0.314,0.275-0.605,0.595-0.898,0.908c-0.289,0.355-0.649,0.834-0.854,1.143l-0.269,0.418
	l-0.068,0.106l-0.033,0.052l-0.016,0.025l-0.09,0.17l-0.139,0.298l-0.546,1.228c-0.204,0.388-0.287,0.907-0.403,1.388
	c-0.091,0.495-0.229,0.964-0.195,1.528c0.013,0.544-0.005,1.098,0.089,1.647c0.13,0.552,0.283,1.107,0.461,1.657
	c0.886,2.166,2.542,3.635,4.151,4.646c1.639,1.062,3.33,1.579,5.028,2.035c1.686,0.369,3.391,0.661,5.08,0.673
	c1.689,0.075,3.358-0.031,5.163-0.243c0.439-0.054,0.759-0.13,1.141-0.191l0.556-0.102l0.277-0.048l0.136-0.026l0.038-0.005
	c-0.017,0.004,0.256-0.054,0.161-0.036l0.094-0.028c0.978-0.328,2.01-0.539,2.908-1.057c0.911-0.499,1.831-0.998,2.545-1.71
	c0.373-0.336,0.766-0.663,1.103-1.018l0.91-1.13c1.196-1.515,1.927-3.178,2.519-4.806c0.262-0.818,0.459-1.637,0.676-2.447
	c0.123-0.722,0.227-1.44,0.32-2.151l0.889-1.001c3.778-4.245,6.901-9.541,9.554-16.191c7.53-18.875,5.115-38.151-6.467-51.565
	c-0.349-0.414-0.692-0.968-1.051-1.553c-0.199-0.325-0.398-0.65-0.605-0.963l-8.44-7.978l-0.409-0.293
	c-0.711-0.389-1.421-0.787-2.128-1.189c-1.572-0.882-3.188-1.793-4.858-2.586c-14.88-7.082-31.686-5.991-51.661,3.385
	c-2.32,1.096-4.685,2.433-7.223,4.102l-19.707,12.934l21.057-7.72C143.614,12.982,153.939,11.018,163.408,11.299z M190.414,95.289
	l-0.034,0.005c0.04-0.005,0.09-0.014,0.069-0.011L190.414,95.289z M72.253,185.19c0.935-18.497,3.422-36.555,12.804-50.991
	c3.199-4.929,7.119-8.964,10.75-13.452c-17.894-8.407-20.398-16.148-14.724-45.209c-7.063-0.934-14.558,1.644-20.265,7.039
	c-11.817,11.171-24.191,17.13-38.395,8.613c-2.684-1.61-5.688-2.316-8.598-3.082c-4.734-1.242-8.4,1.471-10.355,7.278
	c-4.711,13.973-4.789,28.171,0.776,41.694c4.147,10.067,11.56,12.426,18.333,5.81c4.374-4.273,8.173-9.755,11.981-15.033
	c4.623-6.407,9.899-9.129,17.204-7.317c-1.548,1.96-2.502,3.239-3.509,4.437c-10.587,12.616-21.277,25.061-31.708,37.917
	c-2.938,3.621-5.725,7.993-7.501,12.783c-3.383,9.14-0.601,17.638,3.59,24.757c3.832,6.512,9.058,6.705,14.834,4.296
	c6.495-2.707,9.228-9.781,12.135-16.938c3.298-8.122,6.519-16.298,9.771-24.449c0.507,0.359,1.014,0.718,1.523,1.075
	c-0.406,1.52-0.822,3.036-1.217,4.56c-0.468,1.812-0.992,3.607-1.361,5.457c-4.319,21.349-7.637,42.6-0.74,64.357
	c5.546,17.511,17.208,20.708,27.01,7.004c3.071-4.29,4.032-8.9,2.245-14.433C72.075,216.575,71.461,200.926,72.253,185.19z
	 M237.989,152.056c-0.753-5.374-2.209-11.096-4.827-16.685c-2.575-5.59-6.292-11.052-11.082-15.571
	c-2.38-2.264-4.937-4.394-7.722-6.154c-2.753-1.819-5.648-3.396-8.621-4.72c-5.957-2.651-12.159-4.367-18.267-5.408
	c-6.11-1.037-12.136-1.434-17.899-1.378c-11.541,0.079-22.042,1.798-30.816,3.891c-8.781,2.096-15.846,4.624-20.692,6.593
	c-2.429,0.972-4.288,1.872-5.559,2.458c-1.265,0.6-1.925,0.963-1.925,0.963s0.743-0.077,2.134-0.219
	c1.383-0.133,3.413-0.326,5.994-0.571c5.149-0.459,12.463-1.098,21.152-1.478c8.677-0.377,18.762-0.541,29.27,0.346
	c2.628,0.228,5.275,0.522,7.929,0.886c2.65,0.385,5.301,0.865,7.937,1.408c5.241,1.182,10.439,2.679,15.203,4.881
	c1.221,0.503,2.361,1.121,3.535,1.688c1.114,0.648,2.277,1.233,3.33,1.951c2.173,1.367,4.214,2.864,6.086,4.52l1.391,1.255
	l1.3,1.336c0.886,0.864,1.664,1.826,2.475,2.755c0.733,0.987,1.536,1.919,2.183,2.962l1.025,1.52l0.936,1.575
	c2.46,4.206,4.25,8.744,5.53,13.263c1.314,4.51,1.702,14.169,1.023,18.36c-3.643,22.48-13.845,27.941-23.275,33.788
	c-0.133-0.272-0.434-0.597-0.367-0.814c4.533-15.534-1.545-26.792-14.025-35.722c-1.08-0.776-1.61-3.633-1.12-5.108
	c3.861-11.752,2.606-17.773-8.292-23.844c-8.723-4.861-18.381-8.605-28.077-11.071c-39.335-10.014-77.294,27.366-68.168,67.044
	c5.54,24.109,20.567,39.41,44.8,45.568c17.006,4.319,34.039,6.596,51.249,1.683c20.871-5.962,35.75-19.587,45.778-38.297
	c1.695-3.159,3.18-6.314,4.453-9.463c-0.003-0.016-0.011-0.032-0.012-0.052c0.114-0.302,0.33-0.881,0.658-1.763
	c0.442-1.324,1.234-3.243,1.929-5.77c0.781-2.509,1.559-5.601,2.317-9.207c0.681-3.617,1.37-7.745,1.621-12.351
	C238.75,162.512,238.751,157.444,237.989,152.056z M185.33,206.889c-3.533,8.999-11.03,14.368-20.993,15.066
	c-20.518,1.443-37.966-5.656-51.558-20.827c-24.218-27.033-3.564-58.983,21.576-63.633c15.147-2.804,29.936-1.092,43.854,5.98
	c1.396,0.706,2.711,1.597,3.966,2.535c3.267,2.438,3.529,5.323,0.263,7.719c-4.856,3.56-9.463,7.192-16.591,4.653
	c-5.695-2.03-12.067-2.157-18.137-3.13c-0.131,0.411-0.259,0.822-0.386,1.236c3.798,2.581,7.594,5.164,12.484,8.488
	c-5.262,2.114-9.68,3.652-13.88,5.638c-4.727,2.234-9.556,4.452-13.807,7.434c-6.11,4.284-8.199,11.312-5.885,16.975
	c2.891,7.067,12.039,13.587,18.503,11.935c5.076-1.293,10.272-3.672,14.37-6.896c6.805-5.355,12.766-11.782,19.393-18.044
	C184.753,189.299,189.019,197.49,185.33,206.889z M102.897,100c6.254,3.013,14.571,5.02,20.229,3.87
	c-12.422-5.566-26.416-9.379-27.379-29.086c8.203,7.784,12.959,8.612,18.73,3.655c-5.467-0.025-10.183-1.623-14.029-5.739
	c-1.873-2.013-2.22-3.87,0.084-5.672c3.451-2.698,6.729-5.769,10.479-7.858c4.137-2.307,5.348-5.438,5.09-10.215
	c-0.338-6.308-0.068-12.652-0.057-19.002c-0.796,1.32-2.342,2.936-2.811,4.86c-1.194,4.917-2.149,9.936-2.718,14.977
	c-0.283,2.581-0.909,4.008-3.244,5.056c-5.449,2.443-10.195,6.111-13.516,11.474C86.506,78.048,90.92,94.22,102.897,100z
	 M36.37,64.25c0.342,0.622,0.679,1.245,1.019,1.867c3.917-1.355,8.048-2.296,11.672-4.202c2.69-1.413,4.822-3.98,7.025-6.211
	c3.357-3.399,7.078-3.82,10.837-1.154c3.439,2.443,6.739,3.697,10.556,1.111c4.143-2.805,6.324-6.9,5.376-11.693
	c-1.137-5.755-2.437-11.732-5.081-16.891c-7.16-13.96-23.103-18.89-36.115-11.865c-7.566,4.086-8.578,6.552-4.817,14.133
	C42.672,41.093,43.819,52.661,36.37,64.25z"/>
</svg>
