<?xml version="1.0" encoding="utf-8"?>
<!-- Generator: Adobe Illustrator 17.0.0, SVG Export Plug-In . SVG Version: 6.00 Build 0)  -->
<!DOCTYPE svg PUBLIC "-//W3C//DTD SVG 1.1//EN" "http://www.w3.org/Graphics/SVG/1.1/DTD/svg11.dtd">
<svg version="1.1" id="图层_1" xmlns:ev="http://www.w3.org/2001/xml-events"
	 xmlns="http://www.w3.org/2000/svg" xmlns:xlink="http://www.w3.org/1999/xlink" x="0px" y="0px" width="160px" height="160px"
	 viewBox="0 0 160 160" enable-background="new 0 0 160 160" xml:space="preserve">
<path fill="#FF5448" d="M80,0c44.183,0,80,35.817,80,80s-35.817,80-80,80S0,124.183,0,80S35.817,0,80,0z"/>
<path fill="#FFFFFF" d="M124.293,114c-4.581,0-84.986,0-88.146,0c-4.098,0-7.147-4.221-4.749-8.393
	c1.919-3.343,40.67-70.159,43.984-75.862c2.178-3.745,7.369-3.682,9.549,0c2.43,4.105,41.379,71.176,44.084,76.033
	C131,109.335,128.808,114,124.293,114z M74.458,99.633h12.324v-8.817H74.458V99.633z M88.575,54.735H72.327v11.443l2.559,21.011
	h11.13l2.559-21.011V54.735z"/>
</svg>
