<?xml version="1.0" encoding="utf-8"?>
<!-- Generator: Adobe Illustrator 17.0.0, SVG Export Plug-In . SVG Version: 6.00 Build 0)  -->
<!DOCTYPE svg PUBLIC "-//W3C//DTD SVG 1.1//EN" "http://www.w3.org/Graphics/SVG/1.1/DTD/svg11.dtd">
<svg version="1.1" xmlns="http://www.w3.org/2000/svg" xmlns:xlink="http://www.w3.org/1999/xlink" x="0px" y="0px"
	 width="161.123px" height="288.989px" viewBox="0 0 161.123 288.989" enable-background="new 0 0 161.123 288.989"
	 xml:space="preserve">
<g id="background">
	<g id="XMLID_41_" display="none">
		<g id="XMLID_504_" display="inline">
			<g id="XMLID_657_">
				<polygon id="XMLID_658_" fill="#FBB03B" points="28.988,-16.005 22.988,-16.005 22.988,0.319 2.988,0.315 2.988,-16.005 
					-3.012,-16.005 -3.012,-20.005 6.988,-20.005 6.988,-4.005 18.988,-4.005 18.988,-20.005 28.988,-20.005 				"/>
			</g>
			<g id="XMLID_655_">
				<polygon id="XMLID_656_" fill="#FBB03B" points="59.988,-16.005 53.988,-16.005 53.988,0.319 34.988,0.315 34.988,-16.005 
					28.988,-16.005 28.988,-20.005 37.988,-20.005 37.988,-4.005 49.988,-4.005 49.988,-20.005 59.988,-20.005 				"/>
			</g>
			<g id="XMLID_653_">
				<polygon id="XMLID_654_" fill="#FBB03B" points="91.988,-16.005 85.988,-16.005 85.988,0.319 65.988,0.315 65.988,-16.005 
					59.988,-16.005 59.988,-20.005 69.988,-20.005 69.988,-4.005 81.988,-4.005 81.988,-20.005 91.988,-20.005 				"/>
			</g>
			<g id="XMLID_651_">
				<polygon id="XMLID_652_" fill="#FBB03B" points="122.988,-16.005 116.988,-16.005 116.988,0.319 96.988,0.315 96.988,-16.005 
					91.988,-16.005 91.988,-20.005 100.988,-20.005 100.988,-4.005 112.988,-4.005 112.988,-20.005 122.988,-20.005 				"/>
			</g>
			<g id="XMLID_649_">
				<polygon id="XMLID_650_" fill="#FBB03B" points="153.988,-16.005 147.988,-16.005 147.988,0.319 128.988,0.315 128.988,-16.005 
					122.988,-16.005 122.988,-20.005 132.988,-20.005 132.988,-4.005 144.988,-4.005 144.988,-20.005 153.988,-20.005 				"/>
			</g>
			<g id="XMLID_647_">
				<polygon id="XMLID_648_" fill="#FBB03B" points="185.988,-16.005 179.988,-16.005 179.988,0.319 159.988,0.315 159.988,-16.005 
					153.988,-16.005 153.988,-20.005 163.988,-20.005 163.988,-4.005 175.988,-4.005 175.988,-20.005 185.988,-20.005 				"/>
			</g>
		</g>
	</g>
</g>
<g id="objects">
	<g>
		<g>
			<rect x="78.834" y="0" fill-rule="evenodd" clip-rule="evenodd" fill="#FBB03B" width="3.455" height="85.711"/>
			<rect x="62.19" y="225.457" fill="#FBB03B" width="0.685" height="41.264"/>
			<rect x="65.493" y="225.457" fill="#FBB03B" width="0.685" height="54.94"/>
			<rect x="68.796" y="225.457" fill="#FBB03B" width="0.685" height="49.732"/>
			<rect x="72.098" y="225.457" fill="#FBB03B" width="0.685" height="54.413"/>
			<rect x="75.401" y="225.457" fill="#FBB03B" width="0.685" height="54.94"/>
			<rect x="78.704" y="225.457" fill="#FBB03B" width="0.685" height="52.336"/>
			<rect x="82.007" y="225.457" fill="#FBB03B" width="0.685" height="63.532"/>
			<rect x="85.31" y="225.457" fill="#FBB03B" width="0.685" height="58.253"/>
			<rect x="88.613" y="225.457" fill="#FBB03B" width="0.685" height="51.418"/>
			<rect x="91.916" y="225.457" fill="#FBB03B" width="0.685" height="56.105"/>
			<rect x="95.219" y="225.457" fill="#FBB03B" width="0.685" height="50.767"/>
			<rect x="98.522" y="225.457" fill="#FBB03B" width="0.685" height="41.264"/>
			<g>
				<ellipse fill="#C1272D" cx="80.562" cy="157.738" rx="80.562" ry="66.593"/>
				<g>
					<g>
						<path fill="#FBB03B" d="M80.562,224.765c-40.899,0-74.173-30.068-74.173-67.026c0-36.959,33.274-67.027,74.173-67.027
							c40.898,0,74.173,30.068,74.173,67.027C154.735,194.697,121.461,224.765,80.562,224.765z M80.562,91.578
							c-40.421,0-73.307,29.68-73.307,66.161c0,36.481,32.885,66.16,73.307,66.16c40.421,0,73.306-29.679,73.306-66.16
							C153.868,121.257,120.983,91.578,80.562,91.578z"/>
					</g>
					<g>
						<path fill="#FBB03B" d="M80.562,224.765c-32.123,0-58.256-30.068-58.256-67.026c0-36.959,26.133-67.027,58.256-67.027
							c32.122,0,58.255,30.068,58.255,67.027C138.817,194.697,112.684,224.765,80.562,224.765z M80.562,91.578
							c-31.645,0-57.39,29.68-57.39,66.161c0,36.481,25.745,66.16,57.39,66.16c31.644,0,57.389-29.679,57.389-66.16
							C137.951,121.257,112.206,91.578,80.562,91.578z"/>
					</g>
					<g>
						<path fill="#FBB03B" d="M80.562,224.765c-21.017,0-38.116-30.068-38.116-67.026c0-36.959,17.098-67.027,38.116-67.027
							c21.016,0,38.114,30.068,38.114,67.027C118.676,194.697,101.578,224.765,80.562,224.765z M80.562,91.578
							c-20.539,0-37.249,29.68-37.249,66.161c0,36.481,16.709,66.16,37.249,66.16c20.539,0,37.248-29.679,37.248-66.16
							C117.81,121.257,101.101,91.578,80.562,91.578z"/>
					</g>
					<g>
						<path fill="#FBB03B" d="M80.562,224.765c-8.258,0-14.727-29.442-14.727-67.026c0-37.585,6.469-67.027,14.727-67.027
							s14.726,29.441,14.726,67.027C95.288,195.323,88.82,224.765,80.562,224.765z M80.562,91.578
							c-7.514,0-13.861,30.298-13.861,66.161c0,35.863,6.347,66.16,13.861,66.16c7.513,0,13.86-30.297,13.86-66.16
							C94.422,121.876,88.075,91.578,80.562,91.578z"/>
					</g>
				</g>
			</g>
			<path fill="#FBB03B" d="M99.896,93.084c0,0-6.189-1.369-19.334-1.369c-12.862,0-19.334,1.369-19.334,1.369v-7.373
				c0,0,5.902-1.369,19.334-1.369c12.46,0,19.334,1.369,19.334,1.369V93.084z"/>
			<path fill="#FBB03B" d="M99.896,222.53c0,0-6.189,1.369-19.334,1.369c-12.862,0-19.334-1.369-19.334-1.369v7.373
				c0,0,5.902,1.369,19.334,1.369c12.46,0,19.334-1.369,19.334-1.369V222.53z"/>
		</g>
	</g>
</g>
</svg>
