<?xml version="1.0" encoding="utf-8"?>
<!-- Generator: Adobe Illustrator 17.0.0, SVG Export Plug-In . SVG Version: 6.00 Build 0)  -->
<!DOCTYPE svg PUBLIC "-//W3C//DTD SVG 1.1//EN" "http://www.w3.org/Graphics/SVG/1.1/DTD/svg11.dtd">
<svg version="1.1" id="图层_1" xmlns="http://www.w3.org/2000/svg" xmlns:xlink="http://www.w3.org/1999/xlink" x="0px" y="0px"
	 width="34px" height="32px" viewBox="0 0 34 32" enable-background="new 0 0 34 32" xml:space="preserve">
<path fill="#35EF47" d="M30.352,22.028h0.001c-3.566,4.058-11.543,9-13.358,9.755c-1.814,0.756-1.545-0.481-1.472-0.905
	c0.043-0.254,0.241-1.439,0.241-1.439c0.058-0.429,0.117-1.095-0.054-1.518c-0.19-0.467-0.944-0.712-1.497-0.829
	C6.043,26.025-0.006,20.379-0.006,13.64c0-7.517,7.627-13.633,17.001-13.633S33.998,6.123,33.998,13.64
	C33.998,16.649,32.817,19.359,30.352,22.028z M10.34,16.35H7.853v-5.795c0-0.485-0.4-0.881-0.891-0.881
	c-0.492,0-0.892,0.396-0.892,0.881v6.676c0,0.487,0.4,0.882,0.892,0.882h3.378c0.493,0,0.891-0.395,0.891-0.882
	C11.231,16.746,10.833,16.35,10.34,16.35z M13.834,10.555c0-0.485-0.4-0.881-0.891-0.881s-0.891,0.396-0.891,0.881v6.676
	c0,0.487,0.4,0.882,0.891,0.882s0.891-0.395,0.891-0.882V10.555z M21.966,10.555c0-0.485-0.399-0.881-0.892-0.881
	c-0.49,0-0.891,0.396-0.891,0.881v4.132l-3.462-4.66c-0.168-0.221-0.435-0.353-0.713-0.353c-0.095,0-0.191,0.015-0.283,0.045
	c-0.364,0.121-0.609,0.457-0.609,0.836v6.676c0,0.487,0.401,0.882,0.891,0.882c0.493,0,0.892-0.395,0.892-0.882v-4.129l3.462,4.658
	c0.168,0.221,0.434,0.353,0.712,0.353c0.096,0,0.192-0.015,0.284-0.046c0.365-0.119,0.609-0.455,0.609-0.836V10.555z M27.432,14.774
	c0.492,0,0.892-0.395,0.892-0.88c0-0.486-0.4-0.881-0.892-0.881h-2.486v-1.576h2.486c0.492,0,0.892-0.396,0.892-0.882
	c0-0.485-0.4-0.881-0.892-0.881h-3.378c-0.492,0-0.891,0.396-0.891,0.881c0,0.001,0,0.002,0,0.004v3.333v0.002
	c0,0.001,0,0.001,0,0.002v3.335c0,0.487,0.4,0.882,0.891,0.882h3.378c0.492,0,0.892-0.395,0.892-0.882
	c0-0.485-0.4-0.881-0.892-0.881h-2.486v-1.576H27.432z"/>
</svg>
