<?xml version="1.0" encoding="utf-8"?>
<!-- Generator: Adobe Illustrator 17.0.0, SVG Export Plug-In . SVG Version: 6.00 Build 0)  -->
<!DOCTYPE svg PUBLIC "-//W3C//DTD SVG 1.1//EN" "http://www.w3.org/Graphics/SVG/1.1/DTD/svg11.dtd">
<svg version="1.1" id="图层_1" xmlns="http://www.w3.org/2000/svg" xmlns:xlink="http://www.w3.org/1999/xlink" x="0px" y="0px"
	 width="32px" height="28px" viewBox="0 0 32 28" enable-background="new 0 0 32 28" xml:space="preserve">
<path fill="#35CC29" d="M9.731,18.328c1.303,1.777,2.478,4.013,3.507,6.521h6.323c1.23-1.935,2.18-4.173,3.108-6.521l3.568,1.199
	c-0.933,1.98-2.068,3.817-3.135,5.322h8.853L32,28H0v-3l9.697-0.151c-0.837-1.62-1.894-3.452-3.248-5.322L9.731,18.328z M1,0h30v3H1
	V0z M4.132,5.882L28,6v12H4L4.132,5.882z M25,15l0.126-6.162L7,9v6H25z"/>
</svg>
