<?xml version="1.0" encoding="utf-8"?>
<!-- Generator: Adobe Illustrator 16.0.0, SVG Export Plug-In . SVG Version: 6.00 Build 0)  -->
<!DOCTYPE svg PUBLIC "-//W3C//DTD SVG 1.1//EN" "http://www.w3.org/Graphics/SVG/1.1/DTD/svg11.dtd">
<svg version="1.1" id="Layer_1" xmlns="http://www.w3.org/2000/svg" xmlns:xlink="http://www.w3.org/1999/xlink" x="0px" y="0px"
	 width="253.452px" height="175.232px" viewBox="0 0 253.452 175.232" enable-background="new 0 0 253.452 175.232"
	 xml:space="preserve">
<path fill="#57A02E" d="M36.069,51.22c26.9,14.298,10.858,26.936,10.858,26.936C26.316,77.307,36.069,51.22,36.069,51.22z"/>
<path fill="#B9BE00" d="M23.892,57.627c3.026,3.329,6.607,6.5,10.24,9.417c3.664,2.926,7.505,5.641,11.481,8.142
	c7.957,5,16.456,9.14,25.296,12.329c17.686,6.414,36.724,8.863,55.52,7.615c18.823-1.214,37.35-5.99,54.91-13.053
	c17.583-7.072,34.254-16.388,50.024-27.005c1.175-0.791,2.769-0.48,3.561,0.695c0.756,1.124,0.505,2.63-0.546,3.452l-0.145,0.113
	c-1.909,1.486-3.836,2.953-5.78,4.4c-1.962,1.422-3.952,2.804-5.954,4.175c-4.006,2.736-8.083,5.382-12.236,7.927
	c-8.355,4.994-17.027,9.545-26.042,13.41c-8.987,3.938-18.342,7.106-27.906,9.604c-9.574,2.464-19.412,4.031-29.337,4.745
	c-9.932,0.624-19.955,0.263-29.838-1.139c-9.857-1.526-19.606-3.95-28.867-7.627c-4.633-1.822-9.179-3.854-13.564-6.185
	c-4.379-2.34-8.629-4.906-12.713-7.699c-4.051-2.847-7.938-5.909-11.63-9.185c-1.845-1.64-3.646-3.329-5.381-5.092
	c-1.714-1.803-3.348-3.606-4.945-5.645l-0.067-0.084c-0.875-1.115-0.68-2.73,0.437-3.604C21.472,56.499,22.996,56.645,23.892,57.627
	z M222.548,61.415c0,0,16.456-6.128-1.807-24.906C220.742,36.509,205.898,55.3,222.548,61.415z M253.452,85.182
	c-16.718-34.86-33.586-15.181-33.586-15.181C219.861,96.179,253.452,85.182,253.452,85.182z"/>
<path fill="#57A02E" d="M186.846,84.416c0,0,16.979-12.147,23.349,18.335C210.195,102.751,181.806,104.89,186.846,84.416z"/>
<path fill="#92B018" d="M33.586,72.124c0,0-16.868-19.679-33.586,15.181C0,87.304,33.591,98.302,33.586,72.124z"/>
<path fill="#57A02E" d="M56.854,88.832c0,0-14.649-10.482-20.148,15.822C36.705,104.653,61.203,106.499,56.854,88.832z"/>
<path fill="#853A14" d="M159.216,160.113l1.591-20.695l-17.51-2.653l-2.123,7.43c0,18.04,7.959,16.98,7.959,16.98L159.216,160.113z"
	/>
<path fill="#853A14" d="M94.481,160.643l-1.592-20.695l17.511-2.653l2.123,7.429c0,18.041-7.96,16.98-7.96,16.98L94.481,160.643z"/>
<path fill="#903A17" d="M167.768,109.813c-7.398,30.677,15.031,29.875,37.541,26.573c19.107-2.806,39.44,8.005,23.009,27.805
	c-6.333,7.634-19.059,14.49-28.964,9.135c-10.271-5.552-5.09-9.462,3.101-12.707c5.54-2.191,18.724-2.009,14.456-10.569
	c-4.09-8.205-21.204-4.231-27.524-3.013c-27.748,5.352-37.429-8.572-35.817-35.841c2.704,0.933,6.022,1.146,9.014,1.213
	c3.176,0.068,6.152-2.517,4.535,0.003L167.768,109.813z"/>
<path fill="#9F5529" d="M183.685,103.246c-4.078,3.662-7.842,6.459-12.354,9.675c-1.436,21.517-20.835,38.563-44.566,38.563
	c-23.147,0-42.18-16.215-44.438-36.979c-4.826-1.969-8.652-5.872-12.878-9.667c-3.935-3.533-30.639-18.442-11.565-26.869
	c7.313-3.232,21.286,6.96,27.09,10.563c0.929,0.577,1.832,1.238,2.68,1.97c7.609-12.677,22.269-21.265,39.112-21.265
	c16.282,0,30.525,8.026,38.33,20.013c0.959-0.869,1.994-1.646,3.065-2.311c5.804-3.603,19.776-13.797,27.09-10.563
	C214.324,84.805,187.62,99.714,183.685,103.246z"/>
<path fill="#AD672E" d="M126.765,145.467c-19.965,0-36.498-13.591-38.457-31.611c-0.238-2.197-1.661-4.086-3.706-4.921
	c-3.149-1.286-6.007-3.897-9.317-6.923c-0.599-0.547-1.204-1.101-1.816-1.648c-0.869-0.782-2.081-1.64-3.76-2.83
	C59,89.934,57.186,86.792,57.104,85.568c0.143-0.208,0.832-1.045,3.21-2.095c0.061-0.028,0.292-0.112,0.824-0.112
	c4.772,0,13.739,5.815,18.047,8.609c0.982,0.638,1.865,1.208,2.614,1.674c0.67,0.416,1.318,0.893,1.922,1.415
	c1.101,0.949,2.499,1.461,3.931,1.461c0.317,0,0.635-0.025,0.953-0.076c1.753-0.281,3.292-1.323,4.207-2.844
	c6.79-11.316,19.801-18.346,33.953-18.346c13.594,0,26.349,6.622,33.289,17.281c0.961,1.477,2.521,2.458,4.271,2.683
	c0.256,0.033,0.514,0.05,0.77,0.05c1.485,0,2.93-0.55,4.043-1.562c0.677-0.614,1.416-1.169,2.197-1.655
	c0.749-0.466,1.631-1.036,2.614-1.675c4.31-2.793,13.274-8.607,18.046-8.607c0.531,0,0.765,0.084,0.824,0.111
	c2.379,1.05,3.069,1.887,3.211,2.096c-0.081,1.224-1.896,4.367-12.606,11.965c-1.678,1.19-2.89,2.047-3.757,2.828
	c-3.709,3.33-7.145,5.916-11.826,9.251c-1.47,1.048-2.391,2.699-2.51,4.498C164.097,130.996,147.156,145.467,126.765,145.467z"/>
<circle fill="#FFF3BF" cx="127.218" cy="135.062" r="2.542"/>
<path fill="#9F5529" d="M202.662,44.479c0.3,8.201-6.223,15.095-14.571,15.4c-1.341,0.048-2.643-0.092-3.894-0.37
	c-2.543,28.091-27.752,50.151-58.494,50.151c-30.614,0-55.743-21.877-58.465-49.802c-0.495,0.031-0.996,0.039-1.501,0.021
	c-8.347-0.306-14.871-7.199-14.571-15.4c0.299-8.2,7.309-14.6,15.653-14.294c2.045,0.074,3.979,0.548,5.731,1.337
	C81.932,12.897,102.2,0,125.703,0c23.938,0,44.519,13.382,53.662,32.566c2.213-1.408,4.82-2.279,7.644-2.382
	C195.354,29.878,202.362,36.278,202.662,44.479z"/>
<path fill="#AD672E" d="M125.703,103.643c-27.452,0-50.011-19.073-52.478-44.368c-0.301-3.099-2.909-5.434-5.982-5.434
	c-0.123,0-0.245,0.004-0.37,0.011c-0.198,0.013-0.395,0.019-0.596,0.019c-0.107,0-0.213-0.001-0.319-0.005
	c-2.454-0.09-4.72-1.106-6.38-2.861c-1.635-1.727-2.487-3.967-2.402-6.306c0.175-4.771,4.159-8.509,9.071-8.509
	c0.116,0,0.234,0.002,0.352,0.005c1.21,0.045,2.383,0.319,3.482,0.813c0.8,0.36,1.639,0.531,2.464,0.531
	c2.206,0,4.321-1.219,5.375-3.311c8.636-17.138,27.391-28.212,47.782-28.212c20.861,0,39.793,11.438,48.229,29.139
	c0.742,1.556,2.115,2.718,3.771,3.194c0.546,0.157,1.105,0.233,1.662,0.233c1.132,0,2.254-0.319,3.229-0.939
	c1.413-0.9,2.972-1.386,4.632-1.446c0.12-0.004,0.238-0.006,0.353-0.006c4.913,0,8.896,3.738,9.072,8.509
	c0.085,2.339-0.768,4.58-2.402,6.306c-1.662,1.755-3.926,2.771-6.378,2.861c-0.101,0.003-0.203,0.005-0.304,0.005
	c-0.666,0-1.359-0.08-2.067-0.237c-0.431-0.095-0.868-0.143-1.304-0.143c-1.265,0-2.51,0.399-3.549,1.16
	c-1.395,1.02-2.287,2.592-2.442,4.313C175.936,84.019,152.874,103.643,125.703,103.643z"/>
<path fill="#F9C385" d="M126.765,151.484c-9.625,0-18.531-2.363-25.824-6.373c-0.56-2.178-0.869-4.459-0.869-6.814
	c0-14.914,11.949-27.001,26.689-27.001c14.741,0,26.689,12.088,26.689,27.001c0,2.359-0.311,4.644-0.872,6.826
	C145.29,149.126,136.385,151.484,126.765,151.484z M179.872,76.025c-1.131-6.568-4.548-12.412-10.874-14.879
	c1.82-5.26,2.878-10.754,1.61-16.288c-5.797-25.335-36.403-23.577-42.819,0.282c-2.368-5.247-5.054-10.573-9.514-14.127
	c-20.164-16.061-45.633,4.985-34.161,28.171c-3.808,4.502-7.297,9.498-8.018,15.616c-0.439,3.74-0.179,7.161,0.645,10.292
	c10.515,14.803,28.513,24.567,48.962,24.567C150.085,109.66,170.993,95.782,179.872,76.025z M197.437,45.054
	c0.25,5.909-4.874,10.925-11.443,11.204c-6.569,0.278-1.132-3.356-1.382-9.265c-0.25-5.911-6.093-11.857,0.476-12.136
	C191.657,34.579,197.188,39.144,197.437,45.054z M67.352,34.032c6.57,0.242,0.995,4.364,0.78,10.277
	c-0.217,5.911,5.008,11.371-1.562,11.131c-6.57-0.24-11.725-5.227-11.509-11.138C55.278,38.391,60.779,33.793,67.352,34.032z"/>
<path fill="#6A3906" d="M137.249,80.707c-4.356,0.002-8.142-2.685-11.558-5.107l-0.374-0.264c-3.107,3.223-8.818,5.25-13.529,4.719
	c-3.577-0.393-6.317-2.143-7.926-5.062c-0.141-0.257-0.049-0.58,0.209-0.721c0.256-0.142,0.579-0.047,0.721,0.209
	c1.812,3.289,4.868,4.272,7.112,4.52c4.563,0.505,10.129-1.527,12.942-4.718c0.178-0.204,0.483-0.239,0.704-0.083l0.753,0.533
	c4.011,2.843,8.552,6.072,13.766,4.487c3.142-0.952,6.987-3.418,8.499-6.781c0.12-0.267,0.434-0.388,0.701-0.267
	c0.268,0.12,0.388,0.435,0.268,0.702c-1.648,3.666-5.788,6.339-9.16,7.362C139.302,80.562,138.259,80.707,137.249,80.707z
	 M101.292,47.226c-2.261,0-4.094,2.851-4.094,6.368c0,3.517,1.833,6.368,4.094,6.368c2.261,0,4.093-2.851,4.093-6.368
	C105.385,50.077,103.553,47.226,101.292,47.226z M155.267,53.594c0,3.517-1.833,6.368-4.093,6.368c-2.26,0-4.094-2.851-4.094-6.368
	c0-3.517,1.833-6.368,4.094-6.368C153.435,47.226,155.267,50.077,155.267,53.594z M133.395,61.1
	c0.062,2.343-3.096,4.326-7.051,4.429c-3.954,0.103-7.209-1.717-7.271-4.061c-0.059-2.342,3.098-4.325,7.054-4.428
	C130.08,56.938,133.335,58.756,133.395,61.1z"/>
<path fill="#9F5529" d="M72.691,134.104c1.706-3.642,6.301-4.083,8.74-0.451c-3.206-8.59,5.549-11.23,8.579-2.965
	c0.099,0.267,0.577,0.745-0.03-0.011c-0.215-7.158,5.548-10.037,9.899-5.409c4.928,5.244,4.478,14.536,6.389,21.087
	c2.008,6.887,4.987,13.562-2.24,18.516c-6.025,4.131-12.222,2.226-17.142-2.264C81.252,157.463,68.496,143.052,72.691,134.104z"/>
<path fill="#9F5529" d="M167.166,161.898c-4.92,4.491-11.116,6.396-17.142,2.264c-7.227-4.952-4.247-11.626-2.239-18.516
	c1.91-6.55,1.462-15.842,6.388-21.086c4.352-4.63,10.115-1.749,9.899,5.408c-0.605,0.755-0.127,0.277-0.028,0.01
	c3.028-8.265,11.785-5.625,8.579,2.964c2.439-3.632,7.032-3.188,8.74,0.455C185.556,142.344,172.8,156.757,167.166,161.898z"/>
<path fill="#AD672E" d="M97.084,161.138c-2.382,0-4.655-1.616-6.143-2.975c-6.605-6.031-12.844-14.927-13.092-19.706
	c1.045,0.758,2.305,1.166,3.584,1.166c0.921,0,1.851-0.211,2.717-0.655c1.266-0.651,2.217-1.688,2.766-2.9
	c0.987,0.667,2.139,1.03,3.365,1.03c2.309,0,4.415-1.322,5.419-3.401c0.354-0.737,0.737-1.903,0.561-3.304
	c1.514,2.416,2.122,6.291,2.711,10.055c0.396,2.528,0.805,5.144,1.52,7.59c0.2,0.692,0.413,1.383,0.622,2.071
	c2.188,7.148,1.886,8.172-0.488,9.797C99.418,160.736,98.261,161.138,97.084,161.138z M163.11,157.456
	c6.592-6.018,12.818-14.886,13.091-19.675c-1.041,0.769-2.3,1.179-3.583,1.179c-0.927,0-1.867-0.216-2.743-0.663
	c-1.27-0.653-2.217-1.699-2.757-2.925c-0.979,0.659-2.123,1.018-3.336,1.02h-0.01c-2.307,0-4.413-1.321-5.417-3.399
	c-0.357-0.736-0.739-1.903-0.564-3.306c-1.515,2.417-2.121,6.291-2.711,10.056c-0.396,2.528-0.805,5.142-1.519,7.587
	c-0.202,0.695-0.413,1.385-0.624,2.071c-2.188,7.151-1.885,8.172,0.49,9.799c1.207,0.828,2.365,1.232,3.54,1.232
	C159.35,160.432,161.624,158.812,163.11,157.456z"/>
</svg>
