<?xml version="1.0" encoding="utf-8"?>
<!-- Generator: Adobe Illustrator 17.0.0, SVG Export Plug-In . SVG Version: 6.00 Build 0)  -->
<!DOCTYPE svg PUBLIC "-//W3C//DTD SVG 1.1//EN" "http://www.w3.org/Graphics/SVG/1.1/DTD/svg11.dtd">
<svg version="1.1" id="图层_1" xmlns="http://www.w3.org/2000/svg" xmlns:xlink="http://www.w3.org/1999/xlink" x="0px" y="0px"
	 width="97.865px" height="244.146px" viewBox="0 0 97.865 244.146" enable-background="new 0 0 97.865 244.146"
	 xml:space="preserve">
<g>
	<path fill="#FA773F" d="M15.283,109.805c-3.649,8.212-13.99,24.79-14.751,26.615c-0.76,1.825-0.608,4.562-0.152,8.365
		c0.456,3.802,7.603,39.846,8.364,42.127c3.194-5.171,14.6-28.288,17.186-32.394C24.105,146.001,15.283,109.805,15.283,109.805z"/>
	<path fill="#FA773F" d="M82.581,109.805c3.65,8.212,13.992,24.79,14.752,26.615c0.762,1.825,0.607,4.562,0.152,8.365
		c-0.457,3.802-7.604,39.846-8.365,42.127c-3.193-5.171-14.6-28.288-17.185-32.394C73.761,146.001,82.581,109.805,82.581,109.805z"
		/>
	<path fill="#F6CF1A" d="M48.922,153.503C35.786,162.7,27.37,172.332,27.37,188.096c0,15.764,11.919,42.476,21.552,56.049
		c9.196-13.136,21.799-33.279,21.799-56.487C70.722,175.398,61.185,158.758,48.922,153.503z"/>
	<path fill="#FFF4CA" d="M48.922,164.859c-6.082,4.258-9.912,8.719-9.912,16.019c0,7.3,5.451,19.67,9.912,25.956
		c4.26-6.083,10.163-15.412,10.163-26.159C59.085,174.998,54.601,167.292,48.922,164.859z"/>
	<path fill="#FF5C12" d="M26.994,154.72c0.507,1.724,2.231,5.78,2.84,6.895c0.607,1.115,3.778,5.677,19.088,5.677
		c15.309,0,18.932-4.563,19.338-5.576c0.406-1.014,2.33-4.664,2.838-7.807C65.726,153.909,26.994,154.72,26.994,154.72z"/>
	<path fill="#3F515F" d="M48.922,0c-10.139,9.733-35.97,33.256-35.97,77.867c0,44.611,12.978,76.65,12.978,76.65
		c7.706,3.244,32.04,10.138,46.235-1.622c3.648-8.921,12.977-39.744,12.977-73.811C85.142,45.017,64.741,10.545,48.922,0z"/>
	<path fill="#FB6F34" d="M72.376,29.024C65.435,15.632,56.79,5.061,49.2,0c-5.445,5.228-15.417,14.436-23.481,28.75
		c6.656,4.627,14.741,7.345,23.481,7.345C57.772,36.095,65.749,33.487,72.376,29.024z"/>
	<path fill="#FF5C12" d="M65.776,63.571c0,9.24-7.613,16.729-16.854,16.729c-9.238,0-16.605-7.489-16.605-16.729
		c0-9.239,7.367-16.729,16.605-16.729C58.163,46.842,65.776,54.332,65.776,63.571z"/>
	<path fill="#FCFDF2" d="M62.431,63.571c0,7.392-6.115,13.384-13.508,13.384c-7.391,0-13.258-5.992-13.258-13.384
		c0-7.392,5.868-13.383,13.258-13.383C56.315,50.188,62.431,56.179,62.431,63.571z"/>
	<path fill="#FB6F34" d="M48.922,111.325c-3.041,9.125-10.949,37.108,0,75.738C58.96,148.129,54.399,119.538,48.922,111.325z"/>
</g>
<path opacity="0.1" d="M97.333,136.419c-0.748-1.796-10.777-17.884-14.572-26.22c1.422-9.632,2.381-20.206,2.381-31.116
	c0-17.664-5.486-35.436-12.973-49.926c0.068-0.045,0.139-0.088,0.207-0.134C65.435,15.632,56.79,5.061,49.2,0
	c-0.037,0.035-0.078,0.075-0.115,0.11C49.03,0.074,48.977,0.036,48.922,0c-0.082,0.08-0.17,0.164-0.256,0.246v243.53
	c0.086,0.121,0.172,0.249,0.256,0.369c9.196-13.136,21.799-33.279,21.799-56.487c0-6.956-3.072-15.32-7.969-22.216
	c3.971-1.388,5.273-3.143,5.508-3.726c0.406-1.014,2.33-4.664,2.838-7.807c-0.076,0-0.16,0-0.252,0.001
	c0.449-0.323,0.889-0.659,1.318-1.015c0.094-0.231,0.193-0.484,0.295-0.744c-0.209,0.927-0.387,1.727-0.525,2.367
	c2.586,4.106,13.992,27.223,17.185,32.394c0.762-2.281,7.908-38.325,8.365-42.127C97.94,140.982,98.095,138.245,97.333,136.419z"/>
</svg>
