<?xml version="1.0" encoding="iso-8859-1"?>
<!-- Generator: Adobe Illustrator 15.1.0, SVG Export Plug-In . SVG Version: 6.00 Build 0)  -->
<!DOCTYPE svg PUBLIC "-//W3C//DTD SVG 1.1//EN" "http://www.w3.org/Graphics/SVG/1.1/DTD/svg11.dtd">
<svg version="1.1" id="Layer_1" xmlns="http://www.w3.org/2000/svg" xmlns:xlink="http://www.w3.org/1999/xlink" x="0px" y="0px"
	 width="128px" height="128px" viewBox="0 0 128 128" style="enable-background:new 0 0 128 128;" xml:space="preserve">
<g>
	<g>
		<circle style="fill:#E16B5A;" cx="64" cy="64" r="64"/>
		<g>
			<g>
				<defs>
					<circle id="SVGID_1_" cx="64" cy="64" r="64"/>
				</defs>
				<clipPath id="SVGID_2_">
					<use xlink:href="#SVGID_1_"  style="overflow:visible;"/>
				</clipPath>
				<g style="clip-path:url(#SVGID_2_);">
					<g>
						<path style="fill:#242424;" d="M91.977,46.602C92.52,31.879,79.453,20,64,20c-9.167,0-29.998,6.704-28.165,34.316
							c1.833,27.611-9.168,33.611-15.001,33.445c1.916,3.25,6.381,6.319,8.916,7c-6.5,4.084-12.082,5.165-20.749,4.332
							c5.374,18.334,46,21.834,46,21.834l4.097,0.28c1.461,0.217,3.084,0.336,4.902,0.336c35.5,0,52.25-2.866,42.507-25.188
							C102.591,87.385,90.834,77.504,91.977,46.602z"/>
						<g>
							<path style="fill:#1A1A1A;" d="M106.507,96.355c-3.916-8.972-15.673-18.853-14.53-49.756C92.52,31.879,79.453,20,64,20
								c-0.579,0-1.205,0.027-1.868,0.084c14.502,1.033,26.362,12.479,25.845,26.518c-1.143,30.902,10.614,40.783,14.53,49.756
								c9.427,21.598-5.948,24.98-39.11,25.179c0.201,0.003,0.396,0.01,0.604,0.01C99.5,121.545,116.25,118.68,106.507,96.355z"/>
							<path style="fill:#1A1A1A;" d="M11.889,99.302c-0.927-0.043-1.885-0.11-2.888-0.206c0.024,0.082,0.056,0.163,0.08,0.245
								C10.052,99.361,10.984,99.35,11.889,99.302z"/>
						</g>
					</g>
					<path style="fill:#FFD7CC;" d="M96.539,105.16c-6.52-4.075-23.604-9.779-32.568-9.779c-8.964,0-26.005,5.704-32.523,9.779
						C24.928,109.234,25,118.199,25,127.979c0,9.78,0,17.021,0,17.021h39h39c0,0,0-7.242,0-17.021
						C103,118.2,103.059,109.234,96.539,105.16z"/>
					<path style="fill:#F2CCC2;" d="M96.539,105.16c-6.52-4.075-23.604-9.779-32.568-9.779c-0.477,0-0.979,0.02-1.5,0.051
						c9.256,0.555,24.896,5.87,31.068,9.729c6.52,4.075,6.461,13.039,6.461,22.817c0,9.779,0,17.021,0,17.021h3
						c0,0,0-7.242,0-17.021C103,118.2,103.059,109.234,96.539,105.16z"/>
					<path style="fill:#C23527;" d="M86.424,110.125c-6.316,8.751-21.934,0.143-22.385,16.875h-0.043
						c-0.452-16.732-16.086-8.124-22.402-16.875C36,112,35,122.003,35,124.584c0,2.58,0,16.416,0,20.416c10.846,0,23.885,0,28,0
						c0.438,0,0.777,0,1,0h0.035c0.486,0,1.523,0,2.965,0c5.402,0,16.525,0,26,0c0-4,0-17.836,0-20.416
						C93,122.003,92.018,112,86.424,110.125z"/>
					<path style="fill:#FFD7CC;" d="M53,80v22c0,2.209,4.925,4,11,4s11-1.791,11-4V80H53z"/>
					<path style="fill:#F2CCC2;" d="M72,80v22c0,2.023-4.137,3.691-9.5,3.959C62.992,105.982,63.49,106,64,106
						c6.075,0,11-1.791,11-4V80H72z"/>
					<path style="fill:#FFE1D9;" d="M44,43v24.979c0,5.195,10.098,20.984,20,20.984s20-15.789,20-20.984V43H44z"/>
					<path style="fill:#F2D6CE;" d="M81,43v24.979c0,4.934-9.104,19.407-18.5,20.857c0.5,0.076,1,0.127,1.5,0.127
						c9.902,0,20-15.789,20-20.984V43H81z"/>
					<path style="fill:#FFD464;" d="M84,37c-5.859-0.352-16.093-5.211-20-9.932c-3.907,4.721-14.141,9.58-20,9.932v6.764
						c5.384,0.32,11.744,0.483,20,0.483s14.616-0.163,20-0.483V37z"/>
					<polygon style="fill:#C23527;" points="64,31.573 65.354,35.734 69.729,35.734 66.188,38.307 67.54,42.468 64,39.896 
						60.46,42.468 61.813,38.307 58.271,35.734 62.646,35.734 					"/>
				</g>
			</g>
		</g>
	</g>
	<g>
		<g>
			<ellipse style="fill:#F5F5F5;" cx="55" cy="53" rx="4" ry="3"/>
			<circle style="fill:#242424;" cx="55" cy="53" r="2"/>
		</g>
		<g>
			<ellipse style="fill:#F5F5F5;" cx="73" cy="53" rx="4" ry="3"/>
			<circle style="fill:#242424;" cx="73" cy="53" r="2"/>
		</g>
	</g>
</g>
</svg>
