<?xml version="1.0" encoding="utf-8"?>
<!-- Generator: Adobe Illustrator 17.0.0, SVG Export Plug-In . SVG Version: 6.00 Build 0)  -->
<!DOCTYPE svg PUBLIC "-//W3C//DTD SVG 1.1//EN" "http://www.w3.org/Graphics/SVG/1.1/DTD/svg11.dtd">
<svg version="1.1" id="Layer_1" xmlns="http://www.w3.org/2000/svg" xmlns:xlink="http://www.w3.org/1999/xlink" x="0px" y="0px"
	 width="103.368px" height="138.861px" viewBox="0 0 103.368 138.861" enable-background="new 0 0 103.368 138.861"
	 xml:space="preserve">
<g>
	<path fill="#638887" d="M5.911,108.946c0.414,0,0.775-0.043,1.09-0.13c0.311-0.086,0.572-0.228,0.783-0.422
		c0.213-0.197,0.378-0.449,0.496-0.766c0.115-0.314,0.183-0.699,0.205-1.154l1.662,0.357l-0.123,2.473
		c-0.639,0.429-1.322,0.739-2.042,0.931c-0.723,0.191-1.507,0.288-2.347,0.288c-0.989,0-1.84-0.144-2.548-0.431
		c-0.712-0.288-1.296-0.68-1.751-1.179c-0.459-0.5-0.795-1.085-1.012-1.758C0.108,106.485,0,105.763,0,104.995
		c0-0.809,0.122-1.549,0.37-2.229c0.247-0.678,0.602-1.261,1.064-1.746c0.461-0.487,1.022-0.868,1.684-1.14
		c0.664-0.27,1.412-0.405,2.248-0.405c0.25,0,0.508,0.021,0.773,0.064c0.267,0.044,0.523,0.105,0.767,0.188
		c0.245,0.081,0.47,0.178,0.679,0.292c0.211,0.113,0.389,0.241,0.533,0.383l0.042-0.699h1.807v3.333l-1.671-0.009
		c-0.044-0.618-0.267-1.102-0.666-1.451c-0.404-0.35-0.984-0.525-1.743-0.525c-0.462,0-0.873,0.084-1.237,0.254
		c-0.364,0.166-0.673,0.416-0.922,0.744c-0.254,0.327-0.448,0.737-0.584,1.226c-0.137,0.492-0.203,1.059-0.203,1.696
		c0,0.63,0.066,1.19,0.203,1.685c0.136,0.491,0.33,0.908,0.586,1.246c0.256,0.342,0.567,0.601,0.934,0.777
		C5.03,108.857,5.444,108.946,5.911,108.946L5.911,108.946z M0.083,77.509c0.126,0,0.354,0,0.674,0.005s0.678,0.01,1.068,0.015
		c0.391,0.004,0.786,0.009,1.185,0.009s0.738,0,1.018,0c0.246,0,0.535,0,0.864,0c0.335,0,0.683-0.005,1.05-0.009
		c0.367-0.005,0.738-0.01,1.111-0.015c0.371-0.005,0.728-0.005,1.072-0.005l2.068,6.229c0.256,0.778,0.506,1.539,0.758,2.282
		c0.25,0.741,0.469,1.406,0.659,1.991c0.19,0.584,0.349,1.057,0.47,1.415c0.12,0.356,0.186,0.537,0.186,0.537
		c0.079-0.311,0.223-0.783,0.432-1.424c0.209-0.636,0.455-1.364,0.731-2.172c0.278-0.812,0.57-1.666,0.877-2.566
		c0.307-0.895,0.604-1.754,0.889-2.575c0.278-0.816,0.529-1.559,0.752-2.223c0.223-0.659,0.387-1.159,0.482-1.494
		c0.326,0,0.693,0,1.098,0.005c0.404,0.005,0.812,0.01,1.227,0.015c0.413,0.004,0.809,0.009,1.189,0.009c0.381,0,0.707,0,0.98,0
		c0.219,0,0.507,0,0.864,0c0.358,0,0.72-0.005,1.083-0.009c0.362-0.005,0.691-0.01,0.98-0.015c0.293-0.005,0.487-0.005,0.585-0.005
		v2.418h-0.696c-0.279,0-0.503,0.023-0.66,0.065c-0.158,0.037-0.279,0.097-0.354,0.176c-0.079,0.074-0.125,0.172-0.145,0.292
		c-0.018,0.117-0.027,0.251-0.027,0.409v5.41c0,1.568,0.005,3.345,0.014,5.341c0,0.246,0.014,0.45,0.042,0.612
		c0.028,0.163,0.084,0.292,0.167,0.386c0.089,0.097,0.215,0.161,0.377,0.199c0.162,0.037,0.381,0.056,0.655,0.056h0.664v2.417
		c-0.344,0-0.679-0.004-1.003-0.009c-0.33-0.005-0.665-0.005-1.019-0.005c-0.349,0-0.715-0.005-1.101-0.01
		c-0.387-0.004-0.8-0.004-1.245-0.004c-0.391,0-0.739,0-1.042,0.004c-0.301,0.005-0.59,0.01-0.859,0.01
		c-0.264,0-0.524,0-0.775,0.005c-0.246,0.005-0.506,0.009-0.781,0.009v-2.417h0.559c0.307,0,0.553-0.042,0.73-0.116
		c0.176-0.079,0.31-0.19,0.409-0.344c0.092-0.148,0.152-0.329,0.182-0.547c0.027-0.218,0.041-0.465,0.041-0.734v-11.46l-0.776,2.135
		L12.973,95.29h-2.505c-0.084-0.218-0.204-0.552-0.367-1.007c-0.166-0.45-0.352-0.979-0.566-1.582
		c-0.214-0.604-0.441-1.262-0.688-1.972c-0.246-0.71-0.492-1.43-0.748-2.163c-0.256-0.729-0.506-1.447-0.758-2.153
		c-0.246-0.705-0.478-1.364-0.691-1.962c-0.214-0.604-0.4-1.138-0.559-1.592c-0.162-0.459-0.277-0.798-0.362-1.012l-0.38-1.062
		c-0.047-0.125-0.094-0.255-0.145-0.386c-0.051-0.135-0.094-0.25-0.131-0.348c-0.041-0.12-0.083-0.231-0.121-0.339V91.66
		c0,0.27,0.015,0.488,0.047,0.646c0.033,0.157,0.094,0.279,0.178,0.362c0.088,0.079,0.208,0.135,0.371,0.162
		c0.157,0.028,0.367,0.042,0.632,0.042h0.655v2.417c-0.265,0-0.521-0.004-0.762-0.009c-0.246-0.005-0.502-0.005-0.762-0.005
		c-0.266,0-0.545-0.005-0.842-0.01c-0.293-0.004-0.617-0.004-0.971-0.004c-0.381,0-0.726,0-1.036,0.004
		c-0.307,0.005-0.6,0.01-0.869,0.01c-0.274,0-0.539,0-0.8,0.005C0.538,95.286,0.274,95.29,0,95.29v-2.417h0.665
		c0.329,0,0.575-0.038,0.747-0.102c0.172-0.07,0.298-0.168,0.368-0.293c0.074-0.13,0.115-0.283,0.129-0.464
		c0.015-0.181,0.028-0.39,0.037-0.627l0.01-10.222c0-0.219-0.014-0.403-0.047-0.558c-0.032-0.153-0.088-0.282-0.176-0.39
		c-0.084-0.102-0.209-0.176-0.372-0.223c-0.163-0.046-0.376-0.069-0.642-0.069H0.083V77.509L0.083,77.509z M42.737,77.509v4.946
		h-2.652v-0.557c0-0.436-0.047-0.77-0.135-1.007c-0.094-0.236-0.219-0.403-0.382-0.511c-0.163-0.1-0.362-0.162-0.6-0.181
		c-0.236-0.019-0.501-0.027-0.79-0.027H33.62v4.937h2.681c0.201,0,0.372-0.008,0.512-0.032c0.139-0.023,0.26-0.074,0.362-0.157
		c0.098-0.085,0.181-0.21,0.251-0.381c0.064-0.172,0.125-0.408,0.167-0.705h1.157v4.807h-1.166
		c-0.057-0.287-0.117-0.518-0.182-0.691c-0.061-0.172-0.145-0.302-0.242-0.39c-0.102-0.083-0.217-0.139-0.352-0.162
		c-0.141-0.023-0.307-0.032-0.508-0.032h-2.681v5.289h4.749c0.339,0,0.618-0.023,0.846-0.068c0.228-0.043,0.409-0.146,0.553-0.298
		c0.14-0.153,0.242-0.376,0.302-0.659c0.065-0.287,0.097-0.672,0.097-1.15v-0.436h2.626v5.247H27.181v-2.417h1.009
		c0.237,0,0.418-0.042,0.554-0.125c0.129-0.079,0.232-0.195,0.297-0.34c0.069-0.143,0.111-0.311,0.125-0.491
		c0.014-0.182,0.02-0.376,0.02-0.585v-9.787c0-0.198-0.006-0.398-0.015-0.598c-0.01-0.199-0.047-0.376-0.107-0.528
		c-0.065-0.154-0.162-0.278-0.293-0.376c-0.135-0.093-0.325-0.14-0.581-0.14h-0.953v-2.395L42.737,77.509L42.737,77.509z
		 M61.333,90.367c0.083,0.455,0.162,0.849,0.236,1.179c0.078,0.329,0.172,0.604,0.274,0.821c0.101,0.219,0.231,0.381,0.38,0.482
		c0.149,0.106,0.335,0.157,0.554,0.157c0.315,0,0.558-0.093,0.72-0.273c0.163-0.181,0.247-0.487,0.247-0.923l1.579-0.19
		c0,0.009,0,0.032,0,0.074c0,0.041-0.004,0.089-0.01,0.14c-0.004,0.046-0.004,0.092-0.004,0.135c0,0.041,0,0.063,0,0.073
		c-0.019,0.636-0.117,1.179-0.292,1.629c-0.177,0.454-0.433,0.83-0.759,1.123c-0.324,0.292-0.719,0.51-1.176,0.645
		c-0.459,0.135-0.981,0.204-1.561,0.204c-0.696,0-1.306-0.098-1.82-0.296c-0.521-0.2-0.963-0.502-1.334-0.901
		c-0.377-0.398-0.684-0.899-0.93-1.503c-0.242-0.599-0.441-1.309-0.594-2.125c-0.141-0.724-0.299-1.328-0.484-1.811
		c-0.186-0.477-0.395-0.877-0.623-1.197c-0.241-0.198-0.538-0.328-0.883-0.399c-0.344-0.069-0.771-0.102-1.277-0.102h-1.185
		l-0.015,4.586c0,0.208,0.019,0.375,0.06,0.51c0.042,0.13,0.112,0.227,0.214,0.297c0.099,0.07,0.233,0.111,0.405,0.134
		c0.176,0.024,0.395,0.038,0.668,0.038h0.6v2.417c-0.334,0-0.668,0-0.998,0c-0.336,0-0.67-0.004-1.018-0.009
		c-0.345-0.005-0.711-0.01-1.098-0.015c-0.385-0.004-0.799-0.004-1.244-0.004c-0.434,0-0.832,0-1.189,0.004
		c-0.358,0.005-0.697,0.01-1.014,0.01c-0.32,0-0.627,0-0.92,0.005c-0.298,0.005-0.6,0.009-0.906,0.009v-2.417h0.437
		c0.39,0,0.692-0.033,0.907-0.089c0.213-0.06,0.366-0.148,0.459-0.265c0.098-0.12,0.153-0.264,0.168-0.436
		c0.014-0.172,0.018-0.371,0.018-0.599V81.329c0-0.252-0.009-0.471-0.032-0.646c-0.024-0.177-0.088-0.32-0.19-0.437
		c-0.106-0.111-0.27-0.195-0.483-0.241c-0.218-0.051-0.525-0.079-0.915-0.079h-0.367v-2.418h8.698c0.664,0,1.319,0.023,1.966,0.07
		c0.65,0.041,1.268,0.13,1.854,0.265c0.585,0.129,1.129,0.311,1.631,0.533c0.507,0.227,0.938,0.524,1.31,0.886
		c0.367,0.361,0.655,0.804,0.864,1.317c0.209,0.516,0.312,1.124,0.312,1.82c0,0.491-0.084,0.955-0.246,1.396
		c-0.163,0.437-0.4,0.835-0.717,1.188c-0.311,0.354-0.691,0.658-1.143,0.91c-0.451,0.254-0.957,0.445-1.527,0.57
		c0.268,0.13,0.528,0.288,0.78,0.478c0.25,0.19,0.478,0.436,0.687,0.732c0.21,0.303,0.391,0.669,0.554,1.106
		C61.118,89.212,61.244,89.745,61.333,90.367L61.333,90.367z M52.378,85.338h2.11c0.608,0,1.134-0.043,1.584-0.131
		c0.45-0.083,0.817-0.232,1.11-0.44c0.289-0.209,0.507-0.479,0.65-0.816c0.144-0.334,0.219-0.757,0.219-1.263
		c0-0.533-0.088-0.975-0.26-1.327c-0.172-0.348-0.424-0.621-0.753-0.826c-0.33-0.204-0.743-0.343-1.241-0.422
		c-0.492-0.079-1.063-0.116-1.719-0.116h-1.701L52.378,85.338L52.378,85.338z M82.213,90.367c0.084,0.455,0.163,0.849,0.237,1.179
		c0.078,0.329,0.172,0.604,0.273,0.821c0.103,0.219,0.232,0.381,0.382,0.482c0.148,0.106,0.334,0.157,0.553,0.157
		c0.315,0,0.558-0.093,0.72-0.273c0.163-0.181,0.247-0.487,0.247-0.923l1.579-0.19c0,0.009,0,0.032,0,0.074
		c0,0.041-0.004,0.089-0.009,0.14c-0.005,0.046-0.005,0.092-0.005,0.135c0,0.041,0,0.063,0,0.073
		c-0.019,0.636-0.116,1.179-0.293,1.629c-0.176,0.454-0.432,0.83-0.757,1.123c-0.325,0.292-0.72,0.51-1.176,0.645
		c-0.46,0.135-0.981,0.204-1.562,0.204c-0.696,0-1.306-0.098-1.82-0.296c-0.521-0.2-0.963-0.502-1.334-0.901
		c-0.377-0.398-0.684-0.899-0.93-1.503c-0.242-0.599-0.441-1.309-0.596-2.125c-0.139-0.724-0.297-1.328-0.482-1.811
		c-0.186-0.477-0.395-0.877-0.623-1.197c-0.241-0.198-0.539-0.328-0.883-0.399c-0.344-0.069-0.771-0.102-1.277-0.102h-1.185
		l-0.015,4.586c0,0.208,0.02,0.375,0.061,0.51c0.042,0.13,0.111,0.227,0.214,0.297c0.098,0.07,0.232,0.111,0.405,0.134
		c0.176,0.024,0.395,0.038,0.668,0.038h0.6v2.417c-0.334,0-0.668,0-0.999,0c-0.335,0-0.669-0.004-1.018-0.009
		c-0.344-0.005-0.711-0.01-1.097-0.015c-0.386-0.004-0.799-0.004-1.244-0.004c-0.433,0-0.832,0-1.189,0.004
		c-0.359,0.005-0.697,0.01-1.014,0.01c-0.32,0-0.627,0-0.92,0.005c-0.297,0.005-0.6,0.009-0.906,0.009v-2.417h0.437
		c0.391,0,0.692-0.033,0.906-0.089c0.214-0.06,0.367-0.148,0.46-0.265c0.098-0.12,0.154-0.264,0.167-0.436
		c0.015-0.172,0.019-0.371,0.019-0.599V81.329c0-0.252-0.01-0.471-0.031-0.646c-0.024-0.177-0.089-0.32-0.191-0.437
		c-0.106-0.111-0.27-0.195-0.483-0.241c-0.218-0.051-0.524-0.079-0.915-0.079H66.82v-2.418h8.698c0.665,0,1.319,0.023,1.966,0.07
		c0.65,0.041,1.268,0.13,1.854,0.265c0.586,0.129,1.129,0.311,1.631,0.533c0.506,0.227,0.938,0.524,1.311,0.886
		c0.367,0.361,0.655,0.804,0.863,1.317c0.21,0.516,0.312,1.124,0.312,1.82c0,0.491-0.084,0.955-0.246,1.396
		c-0.162,0.437-0.4,0.835-0.716,1.188c-0.312,0.354-0.692,0.658-1.144,0.91c-0.451,0.254-0.957,0.445-1.527,0.57
		c0.269,0.13,0.529,0.288,0.779,0.478c0.251,0.19,0.479,0.436,0.688,0.732c0.209,0.303,0.391,0.669,0.553,1.106
		C81.999,89.212,82.124,89.745,82.213,90.367L82.213,90.367z M73.259,85.338h2.11c0.608,0,1.134-0.043,1.584-0.131
		c0.45-0.083,0.817-0.232,1.11-0.44c0.289-0.209,0.507-0.479,0.65-0.816c0.145-0.334,0.219-0.757,0.219-1.263
		c0-0.533-0.088-0.975-0.26-1.327c-0.173-0.348-0.424-0.621-0.753-0.826c-0.33-0.204-0.743-0.343-1.241-0.422
		c-0.492-0.079-1.063-0.116-1.719-0.116h-1.701L73.259,85.338L73.259,85.338z M85.85,77.509c0,0.408,0,0.813,0.005,1.217
		c0.005,0.403,0.009,0.803,0.009,1.201c0.354,0.01,0.637,0.028,0.842,0.056c0.209,0.027,0.391,0.093,0.539,0.195
		c0.148,0.106,0.293,0.25,0.422,0.44c0.131,0.194,0.307,0.454,0.525,0.789c0.125,0.208,0.303,0.486,0.525,0.84
		c0.219,0.348,0.465,0.733,0.734,1.154c0.265,0.423,0.548,0.863,0.841,1.323c0.297,0.464,0.576,0.905,0.846,1.327
		c0.269,0.422,0.511,0.808,0.733,1.155c0.224,0.349,0.404,0.623,0.539,0.821v3.62c0,0.106,0,0.231-0.004,0.37
		c-0.005,0.145-0.051,0.274-0.131,0.404c-0.082,0.125-0.213,0.232-0.395,0.32c-0.182,0.083-0.45,0.13-0.805,0.13h-0.654v2.417
		c0.172,0,0.433-0.004,0.775-0.009c0.344-0.005,0.716-0.005,1.111-0.005s0.785-0.005,1.171-0.01
		c0.386-0.004,0.716-0.004,0.985-0.004c0.455,0,0.873,0,1.254,0.004c0.381,0.005,0.743,0.01,1.088,0.015
		c0.344,0.005,0.678,0.009,0.998,0.009c0.326,0,0.65,0,0.99,0v-2.417h-0.669c-0.325,0-0.576-0.028-0.757-0.084
		c-0.178-0.056-0.307-0.135-0.4-0.236c-0.093-0.106-0.145-0.237-0.162-0.39c-0.02-0.153-0.028-0.334-0.028-0.543v-3.563
		c0.135-0.2,0.312-0.465,0.525-0.794c0.214-0.329,0.445-0.7,0.706-1.1c0.26-0.403,0.535-0.83,0.822-1.28
		c0.293-0.45,0.581-0.892,0.873-1.332c0.288-0.441,0.572-0.863,0.846-1.271c0.271-0.409,0.521-0.771,0.748-1.085
		c0.182-0.274,0.335-0.493,0.461-0.664c0.129-0.167,0.26-0.293,0.403-0.381c0.14-0.083,0.303-0.144,0.483-0.177
		c0.182-0.032,0.423-0.046,0.721-0.046v-2.418c-0.618,0.02-1.162,0.028-1.627,0.028c-0.469,0-0.919,0-1.355,0
		c-0.099,0-0.229,0-0.382,0c-0.153,0-0.325,0-0.516,0c-0.19,0-0.396-0.005-0.604-0.009c-0.214-0.005-0.423-0.005-0.622-0.005
		c-0.479,0-0.989-0.005-1.524-0.015v2.418c0.047,0,0.116,0.005,0.219,0.01c0.098,0.004,0.167,0.004,0.205,0.004
		c0.38,0.02,0.659,0.056,0.84,0.106c0.186,0.056,0.293,0.159,0.33,0.302c-0.019,0.126-0.074,0.279-0.162,0.45
		c-0.094,0.172-0.205,0.371-0.344,0.6l-2.677,4.444c-0.056-0.111-0.148-0.278-0.274-0.51c-0.125-0.231-0.274-0.493-0.441-0.78
		c-0.167-0.292-0.344-0.594-0.529-0.914c-0.186-0.315-0.363-0.622-0.535-0.909c-0.166-0.293-0.315-0.552-0.445-0.78
		c-0.135-0.231-0.228-0.404-0.279-0.511c-0.047-0.063-0.093-0.147-0.135-0.244c-0.046-0.104-0.098-0.201-0.144-0.303
		c-0.052-0.097-0.098-0.19-0.14-0.278c-0.037-0.083-0.074-0.153-0.101-0.209c0-0.181,0.098-0.306,0.287-0.375
		c0.191-0.065,0.507-0.103,0.953-0.103h0.423v-2.418c-0.608,0-1.157,0-1.649,0.005c-0.488,0.005-0.948,0.01-1.381,0.015
		c-0.432,0.004-0.84,0.009-1.23,0.013c-0.391,0.005-0.795,0.01-1.213,0.01c-0.162,0-0.371-0.005-0.627-0.01
		c-0.251-0.004-0.507-0.009-0.762-0.013c-0.252-0.005-0.479-0.01-0.68-0.015C86.046,77.509,85.916,77.509,85.85,77.509L85.85,77.509
		z M11.987,99.677c0.08,0,0.225,0,0.428,0.003c0.203,0.002,0.43,0.005,0.684,0.005c0.252,0,0.506,0,0.764,0.003
		c0.26,0.003,0.481,0.006,0.674,0.006c0.125,0,0.274,0,0.455,0c0.178,0,0.373-0.003,0.581-0.006s0.428-0.006,0.655-0.008
		c0.228-0.003,0.454-0.003,0.676-0.003v1.446H16.62c-0.211,0-0.375,0.019-0.486,0.057c-0.111,0.04-0.191,0.094-0.247,0.159
		c-0.054,0.069-0.087,0.15-0.095,0.247c-0.009,0.101-0.012,0.206-0.012,0.319v2.268h4.3v-2.415c0-0.126-0.011-0.228-0.036-0.309
		c-0.025-0.084-0.069-0.146-0.131-0.196c-0.063-0.049-0.146-0.081-0.256-0.101c-0.107-0.02-0.246-0.03-0.416-0.03h-0.283v-1.446
		c0.524,0.011,1.012,0.017,1.456,0.017s0.878,0,1.296,0c0.102,0,0.232,0,0.394,0c0.161,0,0.339-0.003,0.534-0.006
		s0.399-0.006,0.619-0.008c0.217-0.003,0.429-0.003,0.634-0.003v1.446H23.63c-0.211,0-0.375,0.017-0.494,0.047
		c-0.12,0.028-0.209,0.075-0.268,0.137c-0.057,0.062-0.092,0.139-0.105,0.227c-0.014,0.092-0.02,0.191-0.02,0.306v6.132
		c0,0.157,0.003,0.291,0.009,0.402c0.005,0.109,0.032,0.205,0.085,0.277c0.051,0.071,0.141,0.127,0.26,0.16
		c0.121,0.037,0.299,0.056,0.533,0.056h0.261v1.446c-0.194,0-0.384-0.003-0.567-0.005c-0.18-0.004-0.367-0.004-0.555-0.004
		c-0.192,0-0.393-0.002-0.606-0.004c-0.217-0.004-0.452-0.004-0.714-0.004c-0.489,0-0.932,0.004-1.331,0.008
		c-0.398,0.006-0.788,0.009-1.159,0.009v-1.446h0.283c0.197,0,0.35-0.011,0.461-0.033s0.195-0.063,0.254-0.127
		c0.055-0.061,0.091-0.145,0.106-0.251c0.014-0.108,0.018-0.241,0.018-0.401v-2.482h-4.3v2.635c0,0.164,0.012,0.288,0.037,0.378
		c0.025,0.092,0.069,0.155,0.136,0.196c0.063,0.039,0.15,0.064,0.259,0.073c0.108,0.007,0.244,0.013,0.408,0.013h0.283v1.446
		c-0.199,0-0.395-0.003-0.58-0.005c-0.19-0.004-0.381-0.004-0.578-0.004c-0.197,0-0.41-0.002-0.631-0.004
		c-0.223-0.004-0.471-0.004-0.742-0.004c-0.256,0-0.486,0-0.695,0.004c-0.208,0.002-0.408,0.004-0.598,0.004
		c-0.191,0-0.375,0-0.55,0.004c-0.179,0.002-0.358,0.005-0.542,0.005v-1.446h0.253c0.216,0,0.384-0.024,0.503-0.068
		c0.119-0.048,0.208-0.111,0.264-0.191c0.059-0.084,0.092-0.179,0.101-0.289c0.008-0.111,0.011-0.233,0.011-0.364v-6.17
		c0-0.108-0.006-0.205-0.019-0.288c-0.014-0.083-0.051-0.153-0.111-0.209c-0.059-0.053-0.146-0.094-0.264-0.121
		c-0.117-0.028-0.278-0.042-0.483-0.042H11.99v-1.448H11.987z M34.77,107.368c0.05,0.271,0.097,0.508,0.142,0.705
		c0.047,0.196,0.103,0.36,0.164,0.49c0.061,0.132,0.139,0.228,0.227,0.29c0.09,0.062,0.201,0.093,0.332,0.093
		c0.189,0,0.334-0.055,0.43-0.163c0.098-0.107,0.149-0.291,0.149-0.552l0.945-0.114c0,0.006,0,0.02,0,0.044
		c0,0.025-0.003,0.053-0.006,0.084c-0.004,0.027-0.004,0.055-0.004,0.08s0,0.039,0,0.045c-0.011,0.38-0.068,0.704-0.174,0.974
		c-0.105,0.272-0.259,0.497-0.453,0.672c-0.195,0.176-0.432,0.306-0.703,0.386c-0.275,0.081-0.587,0.122-0.934,0.122
		c-0.418,0-0.781-0.058-1.09-0.177c-0.313-0.12-0.576-0.3-0.798-0.539c-0.225-0.238-0.409-0.538-0.556-0.899
		c-0.144-0.357-0.265-0.782-0.355-1.271c-0.084-0.434-0.179-0.794-0.29-1.083c-0.11-0.286-0.235-0.524-0.372-0.717
		c-0.145-0.118-0.322-0.196-0.527-0.238c-0.207-0.041-0.463-0.061-0.766-0.061h-0.708l-0.009,2.742c0,0.124,0.012,0.226,0.036,0.306
		c0.024,0.077,0.067,0.135,0.128,0.178c0.059,0.041,0.139,0.066,0.242,0.08c0.105,0.013,0.236,0.021,0.4,0.021h0.357v1.446
		c-0.199,0-0.4,0-0.597,0c-0.2,0-0.4-0.003-0.608-0.005c-0.206-0.004-0.426-0.006-0.656-0.008c-0.23-0.004-0.479-0.004-0.745-0.004
		c-0.259,0-0.497,0-0.712,0.004c-0.213,0.002-0.416,0.004-0.605,0.004c-0.191,0-0.375,0-0.551,0.004
		c-0.178,0.002-0.357,0.005-0.541,0.005v-1.446h0.261c0.233,0,0.415-0.019,0.542-0.052c0.128-0.037,0.22-0.089,0.275-0.158
		c0.059-0.072,0.092-0.158,0.1-0.262c0.009-0.103,0.012-0.222,0.012-0.358v-6.075c0-0.149-0.006-0.279-0.02-0.386
		c-0.014-0.105-0.053-0.191-0.114-0.261c-0.063-0.067-0.161-0.116-0.289-0.145c-0.13-0.03-0.314-0.047-0.548-0.047h-0.219v-1.446
		h5.203c0.396,0,0.789,0.014,1.176,0.041c0.389,0.025,0.758,0.077,1.108,0.158c0.351,0.078,0.675,0.186,0.976,0.319
		c0.303,0.137,0.562,0.314,0.783,0.529c0.221,0.217,0.393,0.481,0.518,0.789s0.186,0.672,0.186,1.088
		c0,0.295-0.049,0.573-0.146,0.836c-0.098,0.261-0.239,0.5-0.428,0.71c-0.187,0.212-0.414,0.395-0.684,0.544
		c-0.27,0.153-0.573,0.268-0.916,0.342c0.162,0.077,0.317,0.172,0.468,0.287c0.15,0.112,0.286,0.26,0.411,0.437
		c0.125,0.181,0.234,0.399,0.331,0.661C34.642,106.677,34.716,106.996,34.77,107.368L34.77,107.368z M29.413,104.359h1.262
		c0.365,0,0.679-0.025,0.948-0.078c0.269-0.05,0.489-0.139,0.665-0.264c0.172-0.125,0.303-0.286,0.389-0.487s0.13-0.453,0.13-0.756
		c0-0.319-0.052-0.583-0.155-0.794c-0.104-0.209-0.253-0.372-0.45-0.494c-0.197-0.122-0.445-0.205-0.742-0.253
		c-0.294-0.047-0.637-0.068-1.028-0.068h-1.018L29.413,104.359L29.413,104.359z M38.093,99.677c0.245,0.005,0.467,0.008,0.668,0.011
		c0.203,0.003,0.389,0.006,0.564,0.006c0.172,0,0.338,0,0.499,0c0.159,0,0.317,0,0.476,0c0.325,0,0.615,0,0.867,0
		c0.254,0,0.486,0,0.7,0s0.419-0.003,0.62-0.006c0.197-0.003,0.406-0.006,0.623-0.011v1.446h-0.343
		c-0.196,0-0.351,0.019-0.461,0.055c-0.11,0.033-0.194,0.087-0.253,0.153c-0.055,0.069-0.092,0.149-0.105,0.244
		c-0.014,0.095-0.02,0.203-0.02,0.322v6.229c0,0.146,0.006,0.267,0.017,0.36c0.011,0.095,0.042,0.173,0.097,0.228
		c0.057,0.058,0.137,0.096,0.248,0.118c0.111,0.022,0.271,0.033,0.477,0.033h0.343v1.446c-0.201,0-0.398-0.003-0.587-0.005
		c-0.189-0.004-0.384-0.004-0.584-0.004c-0.197,0-0.408-0.002-0.634-0.004c-0.225-0.004-0.473-0.004-0.736-0.004
		c-0.5,0-0.942,0.004-1.322,0.008c-0.385,0.006-0.768,0.009-1.154,0.009v-1.446h0.325c0.212,0,0.376-0.019,0.489-0.058
		c0.114-0.039,0.197-0.094,0.253-0.172c0.054-0.076,0.087-0.169,0.095-0.284c0.008-0.112,0.012-0.247,0.012-0.399v-5.895
		c0-0.156-0.006-0.294-0.018-0.411c-0.012-0.116-0.041-0.214-0.098-0.292c-0.055-0.077-0.139-0.136-0.252-0.176
		c-0.114-0.038-0.273-0.057-0.481-0.057h-0.325L38.093,99.677L38.093,99.677z M52.835,102.646H51.27
		c-0.023-0.072-0.039-0.139-0.053-0.205c-0.015-0.064-0.028-0.131-0.044-0.193c-0.092-0.483-0.298-0.854-0.62-1.111
		c-0.319-0.258-0.806-0.386-1.456-0.386c-0.268,0-0.506,0.033-0.717,0.098c-0.215,0.065-0.396,0.158-0.543,0.277
		c-0.15,0.119-0.267,0.258-0.348,0.421c-0.08,0.165-0.122,0.345-0.122,0.544c0,0.312,0.095,0.564,0.286,0.768
		c0.189,0.198,0.448,0.38,0.773,0.537c0.325,0.161,0.703,0.317,1.131,0.464c0.431,0.15,0.884,0.327,1.362,0.532
		c0.313,0.131,0.611,0.284,0.892,0.461c0.277,0.176,0.525,0.384,0.736,0.617c0.212,0.235,0.379,0.51,0.5,0.821
		c0.123,0.313,0.184,0.668,0.184,1.071c0,0.427-0.083,0.832-0.252,1.213c-0.167,0.384-0.409,0.719-0.721,1.011
		c-0.313,0.288-0.695,0.519-1.144,0.686c-0.45,0.169-0.959,0.252-1.523,0.252c-0.271,0-0.542-0.022-0.809-0.069
		c-0.27-0.047-0.528-0.11-0.775-0.2c-0.248-0.086-0.479-0.191-0.691-0.316c-0.215-0.124-0.404-0.266-0.567-0.421v0.796h-1.782v-3.3
		h1.564c0.031,0.142,0.065,0.271,0.098,0.392c0.053,0.274,0.133,0.518,0.24,0.732c0.105,0.216,0.249,0.395,0.428,0.541
		c0.18,0.147,0.4,0.258,0.661,0.334c0.259,0.074,0.572,0.112,0.936,0.112c0.275,0,0.528-0.032,0.754-0.097
		c0.225-0.064,0.418-0.158,0.58-0.279c0.164-0.123,0.289-0.275,0.375-0.456c0.086-0.184,0.131-0.386,0.131-0.613
		c0-0.311-0.094-0.569-0.281-0.777c-0.188-0.209-0.434-0.392-0.742-0.549c-0.306-0.156-0.652-0.304-1.036-0.437
		c-0.387-0.13-0.778-0.28-1.176-0.441c-0.856-0.352-1.493-0.768-1.909-1.243c-0.414-0.479-0.623-1.055-0.623-1.731
		c0-0.431,0.081-0.828,0.239-1.196c0.161-0.369,0.396-0.688,0.7-0.96c0.309-0.271,0.682-0.483,1.121-0.64
		c0.441-0.152,0.941-0.229,1.508-0.229c0.487,0,0.971,0.058,1.446,0.178c0.475,0.119,0.919,0.344,1.339,0.676
		c0-0.077-0.002-0.151-0.006-0.229c-0.002-0.075-0.002-0.145-0.002-0.21v-0.221c0.033,0,0.105,0,0.217,0
		c0.111,0,0.238,0,0.389,0.004c0.15,0.002,0.309,0.005,0.473,0.005c0.167,0,0.314,0,0.445,0L52.835,102.646L52.835,102.646z
		 M54.886,99.677c0.525,0.005,1.027,0.008,1.506,0.008c0.2,0,0.408,0,0.623,0.003s0.422,0.006,0.627,0.006c0.204,0,0.396,0,0.573,0
		c0.181,0,0.333,0,0.464,0h3.08c0.233,0,0.479-0.003,0.736-0.006c0.259-0.003,0.515-0.003,0.773-0.003s0.512-0.003,0.762-0.005
		c0.25-0.003,0.486-0.003,0.708-0.003v3.594h-1.286v-1.099c0-0.189-0.012-0.342-0.033-0.458c-0.023-0.117-0.076-0.209-0.162-0.271
		c-0.089-0.067-0.217-0.108-0.387-0.13c-0.172-0.024-0.402-0.034-0.697-0.034h-1.018v6.962c0,0.057,0.006,0.124,0.02,0.199
		c0.014,0.071,0.047,0.139,0.098,0.202c0.053,0.061,0.131,0.114,0.236,0.159c0.108,0.044,0.25,0.065,0.428,0.065h0.456v1.446
		c-0.2,0-0.396,0-0.581,0c-0.189,0-0.381-0.003-0.578-0.005c-0.197-0.004-0.408-0.006-0.631-0.008
		c-0.223-0.004-0.473-0.004-0.75-0.004c-0.189,0-0.394,0-0.614,0.004c-0.22,0.002-0.444,0.004-0.677,0.004
		c-0.231,0-0.457,0-0.68,0.004c-0.223,0.002-0.432,0.005-0.625,0.005v-1.446h0.455c0.2,0,0.353-0.027,0.458-0.083
		c0.106-0.053,0.184-0.124,0.234-0.211c0.047-0.086,0.075-0.186,0.081-0.297s0.008-0.22,0.008-0.33v-6.667h-1.304
		c-0.223,0-0.4,0.008-0.536,0.028c-0.137,0.019-0.242,0.052-0.314,0.102c-0.072,0.048-0.122,0.114-0.147,0.195
		c-0.024,0.083-0.036,0.185-0.036,0.31c0,0.059,0,0.147,0,0.265c0,0.116,0,0.241,0,0.374c0,0.134,0,0.264,0.003,0.397
		s0.006,0.241,0.006,0.321h-1.278v-3.593H54.886z M66.319,99.677c0.075,0,0.211,0,0.402,0.003c0.193,0.002,0.406,0.005,0.641,0.008
		c0.232,0.003,0.469,0.006,0.708,0.006s0.442,0,0.608,0c0.148,0,0.32,0,0.518,0c0.199,0,0.408-0.003,0.628-0.006
		s0.442-0.006,0.665-0.008c0.223-0.003,0.436-0.003,0.641-0.003l1.238,3.725c0.152,0.467,0.303,0.922,0.452,1.365
		c0.149,0.445,0.28,0.842,0.396,1.191c0.113,0.35,0.208,0.633,0.28,0.847c0.071,0.213,0.11,0.321,0.11,0.321
		c0.049-0.186,0.134-0.468,0.259-0.852c0.125-0.38,0.272-0.816,0.437-1.298c0.166-0.486,0.342-0.998,0.525-1.536
		c0.184-0.536,0.361-1.049,0.531-1.54c0.167-0.488,0.316-0.933,0.45-1.33c0.134-0.394,0.23-0.694,0.288-0.894
		c0.195,0,0.414,0,0.656,0.003c0.242,0.002,0.486,0.005,0.734,0.008c0.247,0.003,0.483,0.006,0.711,0.006c0.229,0,0.423,0,0.587,0
		c0.13,0,0.303,0,0.517,0s0.431-0.003,0.648-0.006s0.414-0.006,0.586-0.008c0.175-0.003,0.291-0.003,0.35-0.003v1.446H80.47
		c-0.167,0-0.301,0.014-0.396,0.038c-0.095,0.022-0.167,0.059-0.211,0.105c-0.048,0.046-0.075,0.103-0.087,0.176
		c-0.01,0.069-0.016,0.149-0.016,0.244v3.236c0,0.938,0.003,2.002,0.008,3.194c0,0.147,0.008,0.27,0.025,0.365
		c0.017,0.099,0.051,0.177,0.1,0.232c0.053,0.058,0.129,0.096,0.225,0.118c0.098,0.022,0.229,0.033,0.393,0.033h0.397v1.446
		c-0.206,0-0.405-0.003-0.601-0.005c-0.197-0.004-0.397-0.004-0.608-0.004c-0.208,0-0.428-0.002-0.659-0.004
		c-0.23-0.004-0.478-0.004-0.744-0.004c-0.234,0-0.442,0-0.623,0.004c-0.18,0.002-0.353,0.004-0.514,0.004
		c-0.158,0-0.314,0-0.465,0.004c-0.146,0.002-0.303,0.005-0.467,0.005v-1.446h0.334c0.184,0,0.331-0.024,0.437-0.068
		c0.105-0.048,0.187-0.114,0.244-0.207c0.056-0.088,0.093-0.196,0.108-0.326c0.017-0.131,0.025-0.277,0.025-0.438v-6.856
		l-0.465,1.278l-2.881,8.064h-1.498c-0.051-0.13-0.123-0.33-0.221-0.602c-0.1-0.27-0.211-0.587-0.339-0.946
		c-0.128-0.362-0.265-0.756-0.411-1.181c-0.148-0.424-0.295-0.854-0.447-1.293c-0.153-0.436-0.303-0.866-0.453-1.287
		c-0.147-0.423-0.286-0.817-0.414-1.176c-0.128-0.36-0.239-0.679-0.334-0.951c-0.097-0.275-0.166-0.478-0.217-0.604l-0.228-0.637
		c-0.028-0.074-0.056-0.152-0.087-0.229c-0.03-0.081-0.055-0.149-0.077-0.208c-0.024-0.072-0.05-0.14-0.072-0.203v7.148
		c0,0.16,0.009,0.291,0.028,0.386c0.02,0.094,0.055,0.167,0.104,0.217c0.054,0.046,0.126,0.08,0.224,0.097
		c0.094,0.016,0.219,0.024,0.377,0.024h0.393v1.446c-0.158,0-0.312-0.003-0.457-0.005c-0.146-0.004-0.299-0.004-0.455-0.004
		c-0.158,0-0.324-0.002-0.504-0.004c-0.174-0.004-0.368-0.004-0.58-0.004c-0.229,0-0.434,0-0.619,0.004
		c-0.185,0.002-0.359,0.004-0.521,0.004c-0.163,0-0.322,0-0.477,0.004c-0.153,0.002-0.312,0.005-0.476,0.005v-1.446h0.397
		c0.197,0,0.345-0.021,0.447-0.061c0.104-0.041,0.178-0.1,0.219-0.176c0.045-0.077,0.07-0.169,0.079-0.277
		c0.009-0.107,0.017-0.232,0.022-0.375l0.005-6.114c0-0.13-0.008-0.24-0.027-0.332c-0.02-0.092-0.054-0.169-0.107-0.233
		c-0.05-0.061-0.125-0.105-0.222-0.133c-0.098-0.028-0.226-0.042-0.384-0.042h-0.381v-1.445H66.319z M89.474,99.677
		c0.473,1.28,0.903,2.444,1.296,3.498c0.167,0.448,0.333,0.896,0.497,1.337c0.162,0.441,0.312,0.846,0.451,1.219
		c0.139,0.371,0.255,0.688,0.355,0.952c0.097,0.264,0.161,0.438,0.193,0.523c0.137,0.375,0.242,0.67,0.317,0.887
		c0.078,0.217,0.161,0.383,0.256,0.496c0.097,0.113,0.217,0.188,0.364,0.222c0.146,0.037,0.358,0.056,0.633,0.062v1.44
		c-0.318,0-0.631-0.003-0.93-0.009c-0.303-0.004-0.65-0.008-1.049-0.008c-0.467,0-0.922,0-1.369,0.004
		c-0.447,0.002-0.934,0.008-1.454,0.013v-1.34c0.022,0,0.053,0,0.095,0c0.039,0,0.08,0,0.125,0s0.083,0,0.122-0.004
		c0.038-0.003,0.063-0.006,0.08-0.006c0.262-0.01,0.439-0.038,0.54-0.079c0.097-0.045,0.145-0.119,0.145-0.228
		c0-0.067-0.014-0.146-0.039-0.242c-0.028-0.094-0.065-0.202-0.105-0.328l-0.523-1.536H85.72c-0.014,0.059-0.053,0.174-0.115,0.344
		c-0.057,0.171-0.122,0.356-0.191,0.549c-0.066,0.197-0.127,0.378-0.18,0.547c-0.057,0.167-0.089,0.272-0.101,0.316
		c-0.025,0.075-0.048,0.146-0.062,0.205c-0.01,0.064-0.02,0.114-0.02,0.153c0,0.119,0.037,0.196,0.111,0.239
		c0.072,0.041,0.195,0.062,0.37,0.069c0.017,0,0.053,0,0.105,0.003c0.056,0.002,0.114,0.005,0.181,0.005c0.063,0,0.125,0,0.184,0
		c0.056,0,0.094,0,0.117,0v1.332c-0.332,0-0.665-0.003-1.001-0.009c-0.339-0.004-0.704-0.008-1.093-0.008c-0.191,0-0.369,0-0.533,0
		c-0.166,0-0.328,0-0.486,0.004c-0.156,0.002-0.317,0.004-0.479,0.008c-0.164,0.002-0.338,0.005-0.522,0.005v-1.446
		c0.194-0.021,0.353-0.041,0.476-0.058c0.123-0.018,0.225-0.048,0.307-0.094c0.082-0.046,0.151-0.115,0.213-0.204
		c0.059-0.088,0.122-0.217,0.187-0.377c0.044-0.103,0.11-0.271,0.203-0.505c0.091-0.233,0.2-0.505,0.321-0.821
		c0.123-0.314,0.256-0.658,0.404-1.028c0.146-0.371,0.297-0.75,0.447-1.135c0.152-0.386,0.303-0.764,0.447-1.139
		c0.147-0.374,0.283-0.718,0.408-1.037c0.125-0.316,0.234-0.595,0.325-0.827c0.092-0.235,0.161-0.408,0.203-0.519l0.376-1.446
		L89.474,99.677L89.474,99.677z M86.095,105.491h3.004l-1.456-4.276l-0.017-0.01L86.095,105.491L86.095,105.491z M102.97,102.646
		h-1.564c-0.021-0.072-0.038-0.139-0.053-0.205c-0.014-0.064-0.027-0.131-0.045-0.193c-0.091-0.483-0.297-0.854-0.619-1.111
		c-0.32-0.258-0.807-0.386-1.457-0.386c-0.266,0-0.505,0.033-0.717,0.098c-0.213,0.065-0.395,0.158-0.542,0.277
		c-0.149,0.119-0.267,0.258-0.347,0.421c-0.08,0.165-0.122,0.345-0.122,0.544c0,0.312,0.095,0.564,0.286,0.768
		c0.188,0.198,0.447,0.38,0.772,0.537c0.325,0.161,0.704,0.317,1.131,0.464c0.432,0.15,0.884,0.327,1.362,0.532
		c0.314,0.131,0.611,0.284,0.893,0.461c0.277,0.176,0.525,0.384,0.736,0.617c0.211,0.235,0.378,0.51,0.5,0.821
		c0.123,0.313,0.184,0.668,0.184,1.071c0,0.427-0.084,0.832-0.254,1.213c-0.166,0.384-0.408,0.719-0.719,1.011
		c-0.314,0.288-0.695,0.519-1.146,0.686c-0.45,0.169-0.959,0.252-1.523,0.252c-0.272,0-0.542-0.022-0.809-0.069
		c-0.27-0.047-0.528-0.11-0.775-0.2c-0.247-0.086-0.477-0.191-0.692-0.316c-0.213-0.124-0.402-0.266-0.566-0.421v0.796h-1.781v-3.3
		h1.564c0.031,0.142,0.063,0.271,0.098,0.392c0.053,0.274,0.133,0.518,0.238,0.732c0.105,0.216,0.25,0.395,0.428,0.541
		c0.182,0.147,0.4,0.258,0.662,0.334c0.258,0.074,0.572,0.112,0.937,0.112c0.275,0,0.528-0.032,0.753-0.097
		c0.225-0.064,0.42-0.158,0.582-0.279c0.163-0.123,0.288-0.275,0.375-0.456c0.086-0.184,0.13-0.386,0.13-0.613
		c0-0.311-0.095-0.569-0.28-0.777c-0.189-0.209-0.434-0.392-0.742-0.549c-0.307-0.156-0.653-0.304-1.037-0.437
		c-0.386-0.13-0.777-0.28-1.176-0.441c-0.855-0.352-1.492-0.768-1.909-1.243c-0.413-0.479-0.622-1.055-0.622-1.731
		c0-0.431,0.08-0.828,0.238-1.196c0.162-0.369,0.395-0.688,0.701-0.96c0.309-0.271,0.681-0.483,1.119-0.64
		c0.442-0.152,0.943-0.229,1.51-0.229c0.486,0,0.971,0.058,1.445,0.178c0.476,0.119,0.92,0.344,1.34,0.676
		c0-0.077-0.004-0.151-0.006-0.229c-0.002-0.075-0.002-0.145-0.002-0.21v-0.221c0.032,0,0.105,0,0.216,0s0.239,0,0.39,0.004
		c0.149,0.002,0.309,0.005,0.473,0.005c0.166,0,0.314,0,0.443,0L102.97,102.646L102.97,102.646z"/>
	<path fill="#55AFC2" d="M56.963,135.016l-1.157-0.668l0.986-0.568c0.241-0.141,0.323-0.449,0.184-0.691
		c-0.14-0.241-0.449-0.324-0.69-0.186l-1.489,0.86l-2.101-1.212l2.101-1.214l1.489,0.86c0.079,0.045,0.167,0.067,0.253,0.067
		c0.174,0,0.344-0.09,0.438-0.252c0.14-0.242,0.058-0.553-0.184-0.692l-0.986-0.567l1.157-0.667c0.241-0.141,0.325-0.45,0.185-0.691
		c-0.14-0.242-0.449-0.325-0.69-0.186l-1.155,0.668v-1.138c0-0.278-0.227-0.506-0.506-0.506s-0.506,0.227-0.506,0.506v1.722
		l-2.1,1.212v-2.427l1.488-0.86c0.242-0.139,0.325-0.449,0.186-0.691c-0.141-0.24-0.449-0.324-0.691-0.184l-0.982,0.568v-1.336
		c0-0.279-0.227-0.506-0.507-0.506c-0.279,0-0.505,0.227-0.505,0.506v1.336l-0.984-0.569c-0.242-0.14-0.551-0.056-0.691,0.185
		c-0.14,0.242-0.057,0.553,0.185,0.691l1.49,0.86v2.427l-2.102-1.213v-1.721c0-0.278-0.227-0.506-0.505-0.506
		c-0.28,0-0.506,0.227-0.506,0.506v1.137l-1.155-0.667c-0.242-0.14-0.551-0.057-0.691,0.186c-0.141,0.241-0.057,0.551,0.185,0.691
		l1.156,0.667l-0.983,0.567c-0.242,0.14-0.324,0.449-0.186,0.69c0.094,0.163,0.264,0.254,0.438,0.254
		c0.086,0,0.173-0.022,0.253-0.068l1.489-0.86l2.101,1.215l-2.101,1.212l-1.489-0.86c-0.242-0.139-0.552-0.056-0.691,0.186
		c-0.14,0.242-0.057,0.551,0.185,0.691l0.984,0.568l-1.156,0.668c-0.241,0.139-0.325,0.449-0.185,0.69
		c0.094,0.163,0.264,0.253,0.438,0.253c0.087,0,0.173-0.021,0.253-0.067l1.155-0.668v1.137c0,0.279,0.226,0.506,0.506,0.506
		c0.278,0,0.505-0.227,0.505-0.506v-1.721l2.102-1.214v2.427l-1.49,0.86c-0.242,0.14-0.325,0.449-0.185,0.69
		c0.094,0.163,0.265,0.254,0.439,0.254c0.086,0,0.172-0.021,0.252-0.068l0.984-0.567v1.335c0,0.278,0.226,0.505,0.505,0.505
		c0.28,0,0.507-0.227,0.507-0.505v-1.335l0.982,0.567c0.08,0.047,0.167,0.068,0.252,0.068c0.176,0,0.346-0.092,0.439-0.254
		c0.14-0.241,0.057-0.551-0.186-0.69l-1.488-0.86v-2.427l2.1,1.214v1.721c0,0.279,0.227,0.506,0.506,0.506s0.506-0.227,0.506-0.506
		v-1.137l1.155,0.668c0.08,0.046,0.166,0.067,0.253,0.067c0.174,0,0.344-0.091,0.437-0.253
		C57.288,135.465,57.204,135.154,56.963,135.016z"/>
	<path fill="#EF9A45" d="M11.063,116.654h81.24v1.291h-81.24L11.063,116.654L11.063,116.654z M11.063,70.089h81.24v1.29h-81.24
		C11.063,71.379,11.063,70.089,11.063,70.089z M52.677,0.787l4.263,18.175c0.077,0.323,0.28,0.569,0.586,0.702
		c0.305,0.133,0.624,0.115,0.913-0.049l10.131-5.774c0.405-0.231,0.896-0.165,1.226,0.164c0.33,0.33,0.396,0.821,0.165,1.226
		l-5.774,10.131c-0.165,0.289-0.183,0.607-0.05,0.913c0.133,0.304,0.379,0.509,0.703,0.585l18.174,4.263
		c0.467,0.109,0.787,0.513,0.787,0.993c0,0.479-0.32,0.883-0.787,0.993L64.84,37.372c-0.324,0.076-0.57,0.28-0.703,0.585
		s-0.115,0.625,0.05,0.913l5.774,10.131c0.23,0.405,0.165,0.897-0.164,1.225c-0.33,0.331-0.822,0.396-1.227,0.165l-10.131-5.774
		c-0.289-0.164-0.608-0.182-0.913-0.049c-0.305,0.133-0.509,0.379-0.586,0.702l-4.263,18.175c-0.109,0.467-0.513,0.786-0.992,0.787
		c-0.479,0-0.885-0.32-0.994-0.787L46.428,45.27c-0.075-0.323-0.28-0.569-0.585-0.702s-0.624-0.115-0.912,0.049l-10.132,5.774
		c-0.405,0.23-0.896,0.166-1.226-0.165c-0.33-0.328-0.396-0.82-0.165-1.225l5.774-10.131c0.164-0.288,0.182-0.608,0.049-0.912
		c-0.133-0.306-0.378-0.51-0.702-0.586l-18.174-4.263c-0.467-0.11-0.788-0.515-0.787-0.993c0.001-0.481,0.321-0.884,0.787-0.993
		l18.174-4.263c0.324-0.076,0.569-0.281,0.702-0.586s0.115-0.623-0.049-0.912l-5.774-10.131c-0.231-0.405-0.165-0.897,0.165-1.227
		c0.329-0.328,0.82-0.394,1.226-0.163l10.132,5.774c0.288,0.164,0.607,0.182,0.912,0.049s0.51-0.379,0.585-0.702L50.69,0.787
		C50.801,0.32,51.205,0,51.684,0C52.163,0.001,52.567,0.32,52.677,0.787z"/>
</g>
</svg>
