<?xml version="1.0" encoding="utf-8"?>
<!-- Generator: Adobe Illustrator 17.0.0, SVG Export Plug-In . SVG Version: 6.00 Build 0)  -->
<!DOCTYPE svg PUBLIC "-//W3C//DTD SVG 1.1//EN" "http://www.w3.org/Graphics/SVG/1.1/DTD/svg11.dtd">
<svg version="1.1" id="图层_1" xmlns="http://www.w3.org/2000/svg" xmlns:xlink="http://www.w3.org/1999/xlink" x="0px" y="0px"
	 width="38.25px" height="26.97px" viewBox="0 0 38.25 26.97" enable-background="new 0 0 38.25 26.97" xml:space="preserve">
<path fill="#682E23" d="M38.002,15.776c-0.564,1.668-1.787,2.659-3.531,2.927c-0.397,0.062-0.552,0.213-0.694,0.55
	c-0.776,1.85-1.583,3.688-2.364,5.536c-0.099,0.234-0.124,0.503-0.158,0.759c-0.029,0.216-0.017,0.438-0.029,0.657
	c-0.031,0.526-0.196,0.724-0.718,0.751c-0.551,0.028-1.106,0.028-1.657-0.001c-0.523-0.027-0.674-0.226-0.651-0.748
	c0.01-0.228,0.022-0.456,0.034-0.684c-0.012-0.001-0.023-0.002-0.034-0.003c0.138-1.291,0.275-2.581,0.416-3.871
	c0.148-1.351,0.293-2.703,0.451-4.052c0.15-1.288,0.228-2.593,0.496-3.857c0.33-1.558,1.237-2.768,2.722-3.441
	c1.585-0.717,3.524-0.281,4.729,1.017C38.213,12.607,38.561,14.123,38.002,15.776z M28.797,13.8
	c-0.183,1.284-0.325,2.574-0.486,3.862c-0.011,0.086-0.032,0.172-0.054,0.289c-2.774-1.89-5.837-2.739-9.133-2.729
	c-3.274,0.009-6.352,0.782-9.15,2.617c-0.073-0.563-0.132-1.109-0.215-1.651c-0.169-1.116-0.295-2.243-0.543-3.342
	c-0.198-0.872-0.678-1.63-1.363-2.238c-0.057-0.051-0.091-0.168-0.083-0.249c0.286-3.084,1.626-5.626,3.962-7.646
	c1.656-1.432,3.577-2.316,5.741-2.604c3.355-0.447,6.374,0.376,8.985,2.56c2.091,1.749,3.372,3.983,3.891,6.654
	c0.067,0.343,0.095,0.695,0.124,1.045c0.006,0.081-0.032,0.194-0.09,0.247C29.448,11.476,28.973,12.571,28.797,13.8z M9.013,15.801
	c0.146,1.184,0.262,2.372,0.393,3.558c0.151,1.369,0.315,2.737,0.453,4.107c0.091,0.917,0.157,1.836,0.212,2.755
	c0.031,0.513-0.082,0.669-0.593,0.701c-0.628,0.039-1.262,0.017-1.892-0.014c-0.314-0.016-0.466-0.202-0.512-0.509
	c-0.022-0.147-0.053-0.299-0.038-0.444c0.059-0.581-0.12-1.097-0.35-1.619c-0.781-1.773-1.538-3.557-2.3-5.338
	c-0.067-0.157-0.135-0.251-0.335-0.261c-1.872-0.094-3.622-1.671-3.938-3.535c-0.043-0.259-0.073-0.519-0.11-0.779
	c0-0.035,0-0.07,0-0.105c0.073-0.413,0.107-0.836,0.224-1.236c0.756-2.59,3.744-3.887,6.147-2.659
	c1.216,0.622,1.929,1.679,2.26,2.966C8.836,14.174,8.913,14.993,9.013,15.801z M16.665,16.077c3.151-0.469,6.2-0.105,9.075,1.315
	c0.79,0.39,1.514,0.915,2.271,1.373c0.134,0.081,0.162,0.183,0.145,0.329c-0.17,1.428-0.343,2.857-0.495,4.288
	c-0.027,0.247-0.12,0.293-0.342,0.292c-2.733-0.006-5.466-0.004-8.199-0.004c-2.707,0-5.414,0-8.121,0
	c-0.356,0-0.349-0.002-0.391-0.357c-0.168-1.429-0.337-2.857-0.516-4.285c-0.028-0.225,0.016-0.362,0.22-0.497
	C12.252,17.25,14.37,16.418,16.665,16.077z"/>
</svg>
