<?xml version="1.0" encoding="utf-8"?>
<!-- Generator: Adobe Illustrator 16.0.0, SVG Export Plug-In . SVG Version: 6.00 Build 0)  -->
<!DOCTYPE svg PUBLIC "-//W3C//DTD SVG 1.1//EN" "http://www.w3.org/Graphics/SVG/1.1/DTD/svg11.dtd">
<svg version="1.1" id="eqxiu_1_" xmlns="http://www.w3.org/2000/svg" xmlns:xlink="http://www.w3.org/1999/xlink" x="0px" y="0px"
	 width="24.529px" height="30.441px" viewBox="0 0 24.529 30.441" enable-background="new 0 0 24.529 30.441" xml:space="preserve">
<path id="eqxiu" fill="#ED1E79" d="M6.299,10.852C6.332,9.637,6.73,8.676,6.805,8.518c0.028,0.096,0.062,0.188,0.104,0.276
	c-0.02-0.276,0.095-0.483,0.155-0.742C7.082,8.17,7.118,8.275,7.146,8.391c0.041-0.285,0.168-0.576,0.256-0.839
	c0.039,0.104,0.07,0.207,0.125,0.3C7.625,7.56,7.725,7.309,7.93,7.061c0.047,0.084,0.075,0.185,0.085,0.285
	c0.142-0.373,0.558-0.66,0.673-1.05C8.717,6.394,8.745,6.508,8.78,6.608c0.036-0.269,0.233-0.59,0.363-0.829
	c0.057,0.126,0.11,0.263,0.139,0.4c0.02-0.358,0.303-0.646,0.497-0.939c0.012,0.104,0.019,0.223,0.038,0.32
	c0.184-0.225,0.307-0.479,0.47-0.724c0.014,0.125,0.043,0.25,0.061,0.37c0.131-0.155,0.438-0.803,0.573-0.952
	c0.004,0.145-0.01,0.291,0.005,0.431c0.05-0.252,0.411-0.539,0.609-0.717c-0.012,0.135-0.011,0.271-0.021,0.404
	c0.28-0.298,0.481-0.677,0.719-1.03c0.027,0.102,0.037,0.234,0.037,0.32c0.231-0.205,0.494-0.41,0.665-0.68
	c-0.063,0.091-0.097,0.196-0.114,0.305c0.293-0.065,0.66-0.434,0.863-0.671c-0.107,0.112-0.075,0.256,0.027,0.347
	c0.206-0.311,0.45-0.476,0.721-0.713c0.004,0.172,0.034,0.374,0.077,0.526c0.435-0.361,0.989-0.643,1.455-0.985
	c0.07,0.281,0.09,1.248-0.004,1.451c0.149-0.046,0.271-0.096,0.414-0.111c-0.061,0.158-0.21,0.396-0.355,0.555
	c0.129-0.04,0.328-0.037,0.464,0.009c-0.161,0.224-0.355,0.558-0.355,0.553c0.146-0.021-1.301,2.312-3.149,2.82
	c0.521-0.916,1.244-2.131,1.172-2.248c-0.26,0.092-0.912,1.276-1.49,2.274c-0.691,0.445-0.896,0.689-1.232,0.611
	c-0.23-0.594-0.482-1.27-0.584-1.188s0.182,0.771,0.421,1.358C10.783,8.151,10.455,8.479,9.696,9C9.389,8.416,9.092,7.884,9,7.943
	c-0.091,0.06,0.21,0.596,0.543,1.174C8.205,9.951,7.265,10.441,6.299,10.852z M17.329,7.106c0.198-0.171,1.333,2.329,1.444,1.98
	c0.465-1.448,1.033-4.362,1.43-4.637c0.192,0.18-0.95,3.898-1.013,4.602c0.784-0.479,2.091-1.68,2.205-1.343
	c0.072,0.218-2.146,1.453-2.382,2.044c0.291,0.431,0.714,1.441,1.004,1.361c0.631-0.176,0.999-0.238,1.289-0.305
	c-0.115,0.309-0.744,0.573-1.41,0.805c0.61,0.727,1.985,0.902,2.725,2.422c0.17-0.09,0.24-0.207,0.366-0.537
	c-0.159-0.01-0.368-0.035-0.526-0.05c0.242-0.411,0.504-0.74,0.688-1.204c-0.16,0.037-0.339,0.063-0.491,0.104
	c0.248-0.42,0.811-0.74,0.718-1.297c-0.133,0.047-0.284,0.086-0.413,0.028c0.186-0.383,0.413-0.684,0.541-1.115
	c-0.139,0.004-0.291,0.058-0.424,0.091c0.211-0.438,0.542-0.853,0.678-1.364c-0.229,0.15-0.452,0.478-0.747,0.419
	c0.188-0.273,0.463-0.609,0.589-0.934c-0.51,0.383,0.066-0.532,0.066-0.72c-0.184,0.03-0.375,0.066-0.531,0.117
	c0.095-0.148,0.516-0.631,0.347-0.878c-0.141,0.092-0.299,0.204-0.394,0.345c0.254-0.309,0.37-0.748,0.462-1.126
	c-0.188,0.215-0.372,0.485-0.653,0.557c0.208-0.232,0.331-0.74,0.413-1.052c-0.183,0.117-0.311,0.284-0.492,0.399
	c0.022-0.409,0.385-0.966,0.502-1.415c-0.2,0.186-0.44,0.422-0.642,0.563c0.105-0.411,0.328-0.844,0.484-1.245
	c-0.074,0.072-0.277,0.125-0.352,0.172c0.093-0.369,0.231-0.903,0.264-0.987c0.03-0.085-0.389,0.06-0.566,0.139
	c0.002,0.005,0.134-0.482,0.261-0.822c-0.188-0.011-0.44,0.055-0.591,0.149c0.132-0.25,0.237-0.603,0.261-0.823
	c-0.179,0.069-0.312,0.176-0.484,0.283C21.998,1.546,21.643,0.33,21.455,0c-0.47,0.594-1.074,1.141-1.498,1.746
	c-0.106-0.178-0.217-0.424-0.278-0.639c-0.261,0.393-0.514,0.686-0.665,1.148c-0.162-0.079-0.252-0.251-0.154-0.429
	c-0.177,0.371-0.513,0.961-0.861,1.146c-0.015-0.146-0.01-0.289,0.04-0.426c-0.123,0.398-0.383,0.749-0.606,1.086
	c-0.029-0.107-0.086-0.273-0.155-0.391c-0.179,0.528-0.302,1.075-0.556,1.55c-0.031-0.176-0.078-0.346-0.11-0.52
	c-0.188,0.292-0.548,0.781-0.522,1.112c-0.067-0.17-0.1-0.358-0.154-0.541c-0.12,0.236-0.285,1.16-0.398,1.402
	c-0.062-0.146-0.142-0.295-0.202-0.446c-0.123,0.362-0.188,0.729-0.345,1.075C14.928,6.762,16.314,7.981,17.329,7.106z
	 M10.894,24.096c0.306,0.039,0.857-0.688,1.091-0.865c0.231-0.177,1.098-0.131,1.523-0.457c0.428-0.325,0.848-0.861,1.289-1.045
	c0.442-0.186,1.672-1.554,1.805-2.022s0.692-0.499,0.911-0.816c0.218-0.319,0.29-0.345,0.275-0.765
	c-0.013-0.42,0.346-1.276,0.439-1.718c0.093-0.441-0.341-1.612-0.457-2.046c-0.115-0.435-0.409-1.1-0.756-1.111
	c-0.348-0.011-0.671,0.327-0.718,0.67c-0.046,0.343,0.433,2.495-0.629,4.687c-1.061,2.19-3.729,3.923-4.979,4.418
	C9.439,23.517,10.654,24.062,10.894,24.096z M12.283,24.385c0,0,5.068-0.921,5.336-1.095s0.707-1.125,0.964-1.996
	c0.256-0.87-0.159-2.703-0.451-3.646c-0.104,0.264-0.124,0.923-0.142,1.061c-0.02,0.138-0.156,0.642-0.443,0.706
	c-0.288,0.065-0.763,0.489-0.855,0.932c-0.094,0.438-1.189,1.338-1.479,1.402c-0.287,0.065-1.196,0.884-1.371,1.141
	c-0.174,0.255-1.002,0.457-1.25,0.493c-0.25,0.035-0.782,0.383-0.951,0.604L12.283,24.385z M16.06,16.221
	c0.074,0.204,0.163-1.477,0.079-1.628c-0.084-0.149-1.724-2.215-2.359-2.404c-0.636-0.19-1.66-0.606-1.771-0.309
	c-0.109,0.299-0.301,0.17-0.728-0.026c-0.427-0.197-1.644-0.465-1.79-0.414c-0.146,0.05-0.915-0.193-1.031-0.104
	c-0.114,0.09-0.27,0.452-0.34,0.723c-0.071,0.269-0.43,0.604-0.662,0.78c-0.232,0.179-0.812,0.865-1.006,1.259
	c-0.19,0.393-0.76,1.778-0.807,2.12c-0.045,0.343-0.192,1.438-0.131,1.759c0.061,0.321,0.252,0.975,0.252,0.975
	s-0.152-0.682,0.155-1.162c0.31-0.481,0.568-0.342,0.554-0.483c-0.017-0.142-0.172-1.041-0.07-1.298
	c1.945-4.895,6.129-2.067,6.833-1.348C13.949,14.822,15.83,15.598,16.06,16.221z M6.439,20.955c0.483,0.805,1.743,1.801,2.848,1.879
	c1.104,0.079,2.188-0.473,2.469-0.748c0.279-0.274,0.157-0.396-0.241-0.274c-0.398,0.119-2.027-0.193-3.108-0.976
	c-1.302-0.94-1.563-1.847-1.815-2.82C5.727,16.924,5.756,19.818,6.439,20.955z M11.048,19.31c0.44-0.43,0.432-1.126,0.462-1.366
	c0.032-0.238,0.387-0.019,0.718-0.67c0.332-0.652-0.199-1.629-0.199-1.629c0.168,0.301-0.368,1.448-0.666,2.104
	c-0.297,0.656-2.176,2.459-2.176,2.459C9.756,20.111,10.607,19.738,11.048,19.31z M13.262,15.01c0,0,0.657,1.242,0.715,1.42
	c0.246,0.765,0.995,2.71,0.997,2.953c0.605-0.893,1.213-2.553,1.079-2.85C15.918,16.236,13.8,15.151,13.262,15.01z M14.686,19.449
	c0.129-0.436-0.574-2.201-1.115-3.109c-0.539-0.907-2.454-2.21-3.367-2.157c0.847,0.183,2.031,1.213,2.674,2.135
	c0.644,0.922,0.65,3.52,1.117,3.876C14.216,20.361,14.559,19.885,14.686,19.449z M10.014,20.529
	c-0.972-0.025-1.783-0.728-1.783-0.728c-0.203,0.217,0.16,0.369,0.453,0.514c0.295,0.145,1.494,0.55,1.631,0.566
	c0.137,0.02,0.432-0.359,0.617-0.438c0.184-0.08,2.598-0.418,2.639-0.727c0.041-0.308-0.234-0.589-0.4-0.646
	C13.17,19.072,10.533,20.543,10.014,20.529z M12.98,15.285c0,0-0.115-0.955-1.183-1.308c-1.067-0.354-1.532-0.521-1.735-0.304
	c-0.203,0.218-0.189,0.114-0.497,0.073c-0.309-0.042-1.161,0.609-1.237,0.912c-0.076,0.305-0.08,0.861,0.337,1.125
	c0.417,0.266,1.115,0.255,1.382,0.082c0.269-0.174,0.693-0.5,1.08-0.518c0.386-0.019,0.758,0.065,0.758,0.065
	s-1.67-1.06-2.149-1.367C10.692,13.654,12.847,14.988,12.98,15.285z M8.656,17.666c0,0,0.176,0.51,0.022,0.873
	c-0.153,0.362-0.443,0.707-0.463,0.844C8.199,19.52,9.072,20.02,9.072,20.02l1.292-1.324C9.721,18.818,8.656,17.666,8.656,17.666z
	 M9.221,16.836c0.051-0.377-0.236-0.311-0.456-0.235s-0.517,0.21-0.309,0.48c0.207,0.272,0.961,1.052,0.694,0.79
	C9.028,17.75,9.17,17.211,9.221,16.836z M12.133,17.714c-0.274,0.241-0.487,0.526-0.451,0.774c0.035,0.25-0.66,1.141-1.059,1.391
	c-0.456,0.288-0.479,0.459-0.479,0.459s1.307-0.66,1.969-0.92s1.322-0.52,1.322-0.52s-0.168-1.59-0.403-1.656
	s-0.618-0.85-0.618-0.85C12.551,16.934,12.408,17.473,12.133,17.714z M11.199,21.559c0.283-0.031,0.91,0.227,1.129,0.15
	c0.219-0.074,0.826-0.445,1.244-0.704c0.417-0.256,0.449-0.496,0.399-0.643c-0.051-0.147-0.342-0.324-0.448-0.303
	c-0.105,0.02-2.4,0.514-2.488,0.641c-0.086,0.127-0.358,0.334-0.714,0.393c-0.356,0.057-2.073-0.905-2.073-0.905
	C8.978,21.505,10.916,21.591,11.199,21.559z M9.921,17.068c0,0,0.549-0.335,0.794-0.207c0.357,0.188,0.318,0.74,0.318,0.74
	s0.489-1.05,0.011-1.113C10.564,16.424,10.182,16.686,9.921,17.068z M9.994,16.521c0,0,1.641-1.068,1.465,0.51
	c0,0,0.477-1.255-0.021-1.396C10.732,15.436,10.09,16.325,9.994,16.521z M7.935,19.414c-0.311-0.285-0.583-0.844-0.477-1.387
	c0.107-0.543,0.863-1.767,0.866-2.043c0.003-0.278-0.409-1.102-0.243-1.565c0.168-0.465-0.115-0.434-0.361-0.152
	c-0.247,0.28-0.987,1.644-0.991,2.2c-0.006,0.558,0.063,2.377,1.074,3.418C8.049,20.126,7.935,19.414,7.935,19.414z M3.657,22.219
	c-0.198,0.184,0.565,3.314,0.972,3.404c0.406,0.089,2.668,0.88,2.997,1.028c0.327,0.148,0.503,0.659,0.84,0.74
	c0.34,0.078,3.698-0.307,4.685-0.383c0.986-0.075,4.206,0.32,4.821,0.402c0.614,0.083,1.604-0.061,1.635-0.547
	c0.021-0.31-0.194-1.176-0.347-1.787c-0.135-0.541-0.329-1.438-0.971-1.594c-0.641-0.154-5.872,1.198-6.623,1.341
	c-0.75,0.144-3.508-0.854-4.265-0.921s-2.475-1.55-2.776-1.625C4.625,22.279,3.856,22.036,3.657,22.219z M6.72,13.157
	c0.32-0.265-2.115,0.97-2.548,1.329c-0.432,0.358-1.06,0.624-1.212,0.986c-0.153,0.362-0.334,1.452-0.225,1.677
	c0.109,0.224,0.737,0.726,1.164,0.923c0.426,0.196,0.604,0.429,0.417,0.787c-0.188,0.356-0.279,1.563,0.197,1.907
	c0.476,0.343,2.017,1.837,2.435,2.103c0.416,0.265,2.231,1.274,2.539,1.316c0.309,0.041,0.678-0.119,0.56-0.273
	c-0.117-0.156-0.518-0.558-1.276-0.868s-3.007-1.728-3.505-3.986C4.769,16.795,6.171,13.605,6.72,13.157z M7.493,12.327
	c0.198-0.183,0.36-1.027,0.729-1.294c0.259-0.186,0.594-0.068,1.004-0.014c0.41,0.054,2.188,0.428,2.421,0.491
	c0.394,0.109,0.083-0.342,1.085-0.206c0.93,0.125,2.141,1.101,2.484,1.391c0.346,0.291,0.854,1.217,0.845,1.041
	c-0.011-0.176,0.025-0.512,0.259-0.688c0.233-0.178,0.716-0.408,1.133-0.145c0.418,0.265,1.18,2.721,1.207,3.037
	s-0.24,1.012-0.184,1.366c0.057,0.355,0.739,2.643,0.647,3.187c0.198,0.045,1.078-0.017,1.652-0.149
	c0.576-0.131,0.785-0.139,0.895-0.437c0.109-0.299,0.593-1.386,0.904-1.901c0.312-0.515,0.156-0.964,0.062-1.289
	c-0.096-0.326-0.828-1.813-1.197-2.178c-0.369-0.362-3.188-5.826-3.484-6.213c-0.297-0.389-0.643-0.923-0.832-0.809
	c-0.188,0.112-0.705,0.323-1.014,0.28c-0.308-0.041-1.237-0.896-1.965-0.925c-0.729-0.026-3.127,1.496-3.368,1.741
	c-0.241,0.247-2.434,1.52-2.664,1.941c-0.229,0.422-0.862,1.102-0.845,1.629C7.274,12.395,7.295,12.51,7.493,12.327z M7.779,10.443
	c0,0-2.752,1.824-3.404,2.016c-0.651,0.19-2.215,0.155-2.454,0.123c-0.238-0.031-0.367,0.404-0.497,0.595
	c-0.131,0.192,0.357,5.899,0.441,6.051c0.084,0.15,1.355,1.575,1.543,1.739s3.144,2.268,3.643,2.438
	c0.129,0.087,0.136-0.226-0.258-0.418c-0.392-0.191-2.203-2.002-2.621-2.268C3.755,20.455,3.963,19.682,4,19.408
	s0.466-0.877-0.102-1.059c-0.568-0.181-1.185-0.785-1.377-1.158c-0.193-0.375,0.175-1.823,0.387-2.109
	c0.213-0.283,3.51-2.279,3.827-2.307C7.052,12.747,7.166,11.127,7.779,10.443z M21.934,14.664c0.933,1.008,1.234,2.906,1.05,3.252
	c-0.188,0.349-0.911,2.292-1.319,2.562c-0.407,0.271-2.613,0.438-2.723,0.562c-0.11,0.124-0.562,1.411-0.66,1.815
	c-0.102,0.403,0.547,0.77,0.801,0.942c0.256,0.175,0.923,2.817,0.604,3.472c-0.32,0.651-3.866,0.085-4.191,0.088
	c-0.326,0.002-2.643-0.029-3.06-0.039s-0.785,0.312-0.434,0.452c0.354,0.14,1.568,0.769,1.873,0.577
	c0.306-0.192,0.691-0.65,1.572-0.302c0.883,0.353,4.702,0.261,6.123-0.293c1.421-0.553,1.852-3.42,1.751-3.711
	c-0.1-0.293-0.103-0.618,0.241-0.758c0.344-0.139,0.971,0.037,0.967-3.397c-0.004-3.438-2.904-7.199-3.504-7.111
	C20.693,12.826,21.001,13.656,21.934,14.664z M1.289,18.674c-0.492-0.182-0.786,5.347,0.043,6.601
	c0.454,0.686,0.646,0.1,0.814,0.215s-0.021,0.449-0.024,0.819c-0.003,0.372,3.354,4.769,6.7,4.056
	c3.346-0.711,5.217-1.156,5.213-1.482c-0.002-0.323-1.337-0.41-1.996-0.686c-0.66-0.274-1.269-0.588-1.69-0.552
	C9.926,27.68,8.59,27.594,8.168,27.63c-0.424,0.036-0.78-0.755-1.682-0.969S4.652,26.137,4.2,25.705
	c-0.453-0.434-0.972-3.148-0.882-3.463c0.088-0.312,0.26-0.924-0.003-1.021C2.343,20.857,1.688,18.82,1.289,18.674z"/>
</svg>
