<?xml version="1.0" encoding="utf-8"?>
<!-- Generator: Adobe Illustrator 17.0.0, SVG Export Plug-In . SVG Version: 6.00 Build 0)  -->
<!DOCTYPE svg PUBLIC "-//W3C//DTD SVG 1.1//EN" "http://www.w3.org/Graphics/SVG/1.1/DTD/svg11.dtd">
<svg version="1.1" id="图层_1" xmlns="http://www.w3.org/2000/svg" xmlns:xlink="http://www.w3.org/1999/xlink" x="0px" y="0px"
	 width="31.719px" height="37.25px" viewBox="0 0 31.719 37.25" enable-background="new 0 0 31.719 37.25" xml:space="preserve">
<path fill="#FFE000" d="M11.008,31.721c1.335-0.138,1.511-1.548,0.882-2.163c-0.518-0.508-3.374-2.625-4.12-3.458
	c-0.346-0.386-0.815-0.576-1.014-1.01c-0.456-0.999-0.777-2.425-0.197-3.449c0.105-0.185,0.172-0.102,0.092,0.284
	c-0.455,2.185,0.97,3.969,1.283,3.054c0.217-0.632,0.016-1.764,0.132-2.662c0.205-1.59,1.654-4.642,2.29-4.816
	c-0.981-1.816,1.151-3.237,1.125-4.831c-0.017-1.036,0.912,1.275,1.845,1.765c1.043,0.546,2.188-1.031,3.815-1.832
	c0.46-0.227,1.05-0.487,1.01-0.68c-0.191-0.932-2.136,1.149-3.873,1.219c-0.793,0.032-1.087-0.155-1.393-0.45
	c-0.926-0.894,0.094-0.148,1.47-0.397c0.612-0.11,0.818-0.212,1.467-0.474c0.649-0.262,1.391-0.65,2.126-0.849
	c0.511-0.139,0.468-0.523,0.269-0.638c-0.114-0.066-0.284-0.06-0.418,0.172c-0.315,0.545-1.797,0.859-2.26,1
	c-0.594,0.182-1.251,0.351-2.124,0.316c-1.326-0.054-1.017-0.661-1.965-1.204c-0.278-0.159-0.203-0.577,0.166-0.946
	c0.194-0.194,0.725-0.303,0.988-0.743c0.037-0.062,0.376-0.416,0.642-0.599c0.092-0.064,0.1-1.68-0.731-1.713
	c-0.706-0.029-0.906,0.518-0.877,1.062c0.03,0.544,0.318,0.993,0.511,0.99c0.37-0.003,0.023,0.405-0.18,0.471
	c-0.308,0.1-0.73-1.212-0.682-1.841c0.051-0.656,0.393-1.818,1.225-1.795c0.748,0.02,1.291,0.957,1.264,2.574
	c-0.005,0.274,1.214-0.131,1.62,0.298c0.291,0.307-0.996-2.864,1.87-3.083c0.756,0.145,1.481,0.396,1.783,2.129
	c-0.112,0.181,0.188,1.39-0.279,1.534c-0.569,0.175-0.92-0.026-0.591-0.567c0.225-0.543,0.005-1.925-1.146-1.842
	C15.882,6.63,16.034,8.67,16.35,8.71c0.316,0.041,1.111,0.604,1.666,0.712c1.821,0.354,0.483,1.396,0.719,2.658
	c0.267,1.426,1.208,1.049,2.053,4.824c0.176,0.23,0.876,0.447,1.558,3.347c0.614,2.609-0.255,4.506,1.22,4.35
	c0.333-0.035,0.818-0.128,1.029-0.867c0.552-1.932-0.276-4.234-1.113-5.788c-0.487-0.906-0.946-1.522-1.188-1.734
	c0.958,0.565,2.184,2.373,2.467,3.715c0.371,1.762,0.637,2.508,0.075,4.372c0.324,0.162,1.131,0.504,1.131,0.889
	c-0.841-0.69-3.415-0.813-3.481,0.838c-0.439,0.008-0.771,0.044-1.054,0.379c-1.035,1.226-0.074,3.689-0.178,5.009
	c-0.093,1.162-0.416,2.314-0.598,3.481c-0.616-0.023-0.555-0.474-0.358-1.105c0.175-0.558,0.456-1.256,0.474-1.926
	c0.017-0.606-0.05-0.984-0.202-1.078c-0.154-0.095-0.393,0.096-0.724,0.629c-0.707,1.136-2.238,1.636-3.668,1.815
	s-2.759,0.037-3.463-0.75c-0.24-0.269-0.639,0.073-0.687,0.145c-0.063,0.096,0.233,0.282,0.457,0.691
	c0.326,0.598,0.636,1.505-0.137,1.919C12.357,33.13,11.69,33.007,11.008,31.721L11.008,31.721z M10.497,31.665
	c0.513,0.805,2.318,4.196-0.847,4.636c-1.058,0.147-2.762-0.615-4.414-1.018c-1.483-0.363-2.99-0.577-3.833-0.814
	c-0.507-0.142-0.719-0.324-0.764-0.536c-0.117-0.563,0.617-1.352,0.654-2.019c0.037-0.666-0.244-1.012-0.473-1.556
	c-0.231-0.545-0.29-0.953-0.106-1.187c0.143-0.181,0.434-0.257,0.908-0.211c0.6,0.059,1.325-0.064,1.714-0.301
	c0.657-0.4,0.965-1.219,0.67-2.205c0,0.965-0.317,1.331-1.112,1.772c-0.749,0.417-1.905,0.08-2.437,0.54
	c-0.64,0.555,0.228,1.985,0.157,3.035c-0.054,0.807-0.898,1.716-0.521,2.525c0.378,0.814,2.142,0.903,3.981,1.287
	c2.615,0.546,4.14,1.497,5.348,1.542c1.762,0.065,2.032-1.741,4.799-1.766c0.807-0.042,1.596-0.067,2.385-0.077
	c0.894-0.011,1.786-0.004,2.702,0.018c1.842,0.044,1.209,1.004,2.403,1.617c1.008,0.517,2.821,0.313,3.254-0.1
	c0.587-0.559,2.162-1.903,3.369-2.51c1.505-0.757,5.038-2.06,2.473-3.649c-0.598-0.371-2.011-0.762-2.13-3.471
	c-0.535,0.475-0.473,2.999,1.02,3.5c1.668,0.559,2.71,1.496-0.391,2.555c-2.053,0.701-2.402,0.917-4.027,2.268
	c-1.644,1.366-4.085,0.823-3.659-2.054c0.222-1.5,0.35-2.739-0.024-4.042c-0.182-0.636-0.273-1.453-0.148-2.026
	c0.242-1.114,0.846-1.449,1.438-0.38c0.371,0.671,0.501,1.456,1.831,1.52c2.089,0.1,2.503-2.016,3.171-2.112
	c0.445-0.065,0.89-1.323,0.551-3.359c-0.363-2.18-1.648-5.621-3.295-7.367c-1.369-1.45-2.232-2.722-2.774-4.537
	c-0.456-1.526-0.711-3.01-0.617-4.429c0.122-1.839-0.899-4.398-2.525-5.602c-1.018-0.753-2.614-1.157-4.059-1.141
	c-0.81,0.009-1.572,0.127-2.158,0.444c-2.412,1.307-2.748,3.175-2.712,5.306c0.034,2.001,0.102,4.285,0.33,6.458
	c-0.27,0.998-1.674,2.89-2.573,4.041c-1.208,1.192-1.819,3.496-2.601,5.509c-0.417,1.073-1.12,1.557-1.179,2.937
	c-0.016,0.386-0.003,1.384,0.367,1.099C6.056,24.713,7.825,27.465,10.497,31.665L10.497,31.665z M17.834,2.813
	c-0.076,0.227-0.39,0.417-0.191,0.576c0.2,0.159,0.314-0.223,0.715-0.366c0.103-0.037,0.585,0.016,0.673-0.213
	c0.039-0.1-0.248-0.213-0.419-0.377c-0.171-0.162-0.339-0.308-0.499-0.297C17.698,2.162,17.902,2.611,17.834,2.813L17.834,2.813z
	 M13.661,8.551C13,8.502,12.954,8.979,13.173,8.971C13.396,8.964,13.259,8.594,13.661,8.551L13.661,8.551z M12.527,7.332
	c0.078-0.017,0.189,0.116,0.154,0.303c-0.048,0.258-0.027,0.42,0.153,0.421c0.029,0,0.061-0.005,0.073-0.073
	c0.086-0.515-0.182-0.894-0.292-0.922C12.362,6.997,12.393,7.361,12.527,7.332L12.527,7.332z M17.339,7.114
	c0.168,0.05,0.329,0.34,0.365,0.653c0.003,0.029,0.219-0.045,0.221-0.113c0.013-0.504-0.418-0.741-0.531-0.731
	C17.135,6.946,17.208,7.075,17.339,7.114L17.339,7.114z M14.872,8.613c0.602-0.278,0.812,0.153,0.604,0.222
	C15.264,8.906,15.263,8.512,14.872,8.613L14.872,8.613z"/>
</svg>
