<?xml version="1.0" encoding="utf-8"?>
<!-- Generator: Adobe Illustrator 17.0.0, SVG Export Plug-In . SVG Version: 6.00 Build 0)  -->
<!DOCTYPE svg PUBLIC "-//W3C//DTD SVG 1.1//EN" "http://www.w3.org/Graphics/SVG/1.1/DTD/svg11.dtd">
<svg version="1.1" id="Capa_1" xmlns="http://www.w3.org/2000/svg" xmlns:xlink="http://www.w3.org/1999/xlink" x="0px" y="0px"
	 width="353.12px" height="637.494px" viewBox="0 0 353.12 637.494" enable-background="new 0 0 353.12 637.494"
	 xml:space="preserve">
<path fill="#91634A" d="M176.536,421.926h21.922v215.568h-21.922V421.926z"/>
<path fill="#F4A771" d="M154.661,421.926h21.922v215.568h-21.922V421.926z"/>
<path fill="#7FA45F" d="M176.522,0c2.876,0.118,5.664,1.15,6.995,3.118l141.501,209.232c37.468,55.404,37.468,118.03,0,173.433
	l-2.077,3.071c-33.999,50.273-90.173,75.485-146.419,75.65L176.522,0L176.522,0z"/>
<path fill="#C2DB7A" d="M176.597,464.505c-56.246-0.164-112.42-25.376-146.419-75.65l-2.077-3.071
	c-37.468-55.404-37.468-118.03,0-173.433L169.602,3.118c1.331-1.968,4.12-3,6.995-3.118V464.505z"/>
</svg>
