<?xml version="1.0" encoding="utf-8"?>
<!-- Generator: Adobe Illustrator 17.0.0, SVG Export Plug-In . SVG Version: 6.00 Build 0)  -->
<!DOCTYPE svg PUBLIC "-//W3C//DTD SVG 1.1//EN" "http://www.w3.org/Graphics/SVG/1.1/DTD/svg11.dtd">
<svg version="1.1" id="图层_1" xmlns="http://www.w3.org/2000/svg" xmlns:xlink="http://www.w3.org/1999/xlink" x="0px" y="0px"
	 width="36.594px" height="36.625px" viewBox="0 0 36.594 36.625" enable-background="new 0 0 36.594 36.625" xml:space="preserve">
<path fill="#2DE25C" d="M4.01,29.763c-2.501-3.131-3.996-7.103-3.996-11.427c0-4.829,1.866-9.22,4.914-12.489
	c0,0,3.193,1.416,8.569,4.734C1.503,23.024,4.01,29.763,4.01,29.763z M18.307,7.053c-0.008-0.005-0.012-0.008-0.012-0.008
	c7.321-5.288,11.867-2.63,11.867-2.63c-3.191-2.742-7.336-4.4-11.867-4.4c-4.532,0-8.677,1.657-11.868,4.4
	c0,0,4.546-2.72,11.864,2.629 M5.09,30.964c3.323,3.495,8.009,5.672,13.205,5.672c5.205,0,9.901-2.187,13.224-5.693
	c0,0-1.933-7.993-13.286-16.391C8.058,22.079,5.09,30.964,5.09,30.964z M32.601,29.763c2.499-3.131,3.996-7.103,3.996-11.427
	c0-4.829-1.867-9.22-4.915-12.489c0,0-3.193,1.416-8.569,4.734C35.107,23.024,32.601,29.763,32.601,29.763z"/>
</svg>
