<?xml version="1.0" encoding="iso-8859-1"?>
<!-- Generator: Adobe Illustrator 17.0.0, SVG Export Plug-In . SVG Version: 6.00 Build 0)  -->
<!DOCTYPE svg PUBLIC "-//W3C//DTD SVG 1.1//EN" "http://www.w3.org/Graphics/SVG/1.1/DTD/svg11.dtd">
<svg version="1.1" id="Capa_1" xmlns="http://www.w3.org/2000/svg" xmlns:xlink="http://www.w3.org/1999/xlink" x="0px" y="0px"
	 width="98.226px" height="109.061px" viewBox="0 0 98.226 109.061" style="enable-background:new 0 0 98.226 109.061;"
	 xml:space="preserve">
<g>
	<g>
		<g>
			<g>
				<path style="fill:#6F6F6E;" d="M68.241,100.057v-8.623c5.088-4.739,8.352-11.388,8.672-18.809
					c-5.585,8.365-15.697,13.979-27.289,14.008v12.152c1.672,0,3.3-0.174,4.891-0.461v1.732c-2.627,2.047-4.324,5.23-4.324,8.817
					h22.371C72.562,105.287,70.865,102.104,68.241,100.057z"/>
			</g>
		</g>
		<g>
			<g>
				<path style="fill:#3C3C3B;" d="M49.624,44.081c-15.107,0-27.352,12.246-27.352,27.352c0,0.496,0.05,0.978,0.076,1.465
					c0.392,7.312,3.634,13.856,8.661,18.536v3.562c-1.926,4.313-6.247,7.332-11.266,7.332c-6.316,0-11.531-4.773-12.246-10.898
					c-0.056-0.473-0.091-0.952-0.091-1.439c0-1.414,0.238-2.802,0.707-4.127c0.622-1.753-0.296-3.675-2.047-4.298
					c-1.752-0.622-3.675,0.296-4.298,2.049c-0.726,2.046-1.094,4.19-1.094,6.376c0,0.429,0.036,0.847,0.063,1.271
					c0.66,9.922,8.92,17.8,19.006,17.8c2.479,0,4.839-0.491,7.013-1.354c-0.04,0.385-0.069,0.774-0.069,1.168h22.368
					c0-3.587-1.693-6.771-4.321-8.817v-1.732c0.209,0.038,0.423,0.055,0.634,0.089c0.517,0.098,1.067,0.171,1.637,0.23
					c0.062,0.005,0.121,0.015,0.184,0.021c0.767,0.071,1.567,0.12,2.435,0.12V86.633c5.73-0.015,11.097-1.396,15.738-3.801
					c4.743-2.455,8.728-5.978,11.551-10.207c0.02-0.398,0.064-0.789,0.064-1.192C76.977,56.327,64.733,44.081,49.624,44.081z"/>
			</g>
		</g>
	</g>
	<g>
		<g>
			<g>
				<g>
					<g>
						<circle style="fill:#AF5B2B;" cx="24.576" cy="14.565" r="14.568"/>
					</g>
				</g>
				<g>
					<g>
						<path style="fill:#4B190D;" d="M32.975,14.565c0,4.64-3.759,8.399-8.399,8.399c-4.638,0-8.396-3.76-8.396-8.399
							c0-4.636,3.759-8.397,8.396-8.397C29.216,6.168,32.975,9.93,32.975,14.565z"/>
					</g>
				</g>
			</g>
			<g>
				<g>
					<g>
						<circle style="fill:#6F6F6E;" cx="73.905" cy="14.565" r="14.568"/>
					</g>
				</g>
				<g>
					<g>
						<path style="fill:#07171B;" d="M82.302,14.565c0,4.64-3.757,8.399-8.398,8.399c-4.639,0-8.397-3.76-8.397-8.399
							c0-4.636,3.758-8.397,8.397-8.397C78.545,6.168,82.302,9.93,82.302,14.565z"/>
					</g>
				</g>
			</g>
		</g>
		<g>
			<g>
				<g>
					<circle style="fill:#6F6F6E;" cx="24.576" cy="14.565" r="14.568"/>
				</g>
			</g>
			<g>
				<g>
					<path style="fill:#07171B;" d="M32.975,14.565c0,4.64-3.759,8.399-8.399,8.399c-4.638,0-8.396-3.76-8.396-8.399
						c0-4.636,3.759-8.397,8.396-8.397C29.216,6.168,32.975,9.93,32.975,14.565z"/>
				</g>
			</g>
		</g>
	</g>
	<g>
		<g>
			<path style="fill:none;" d="M24.576,59.688c3.365,1.122,6.223,2.458,8.657,3.866c0.007-0.043,0.015-0.088,0.022-0.133
				C30.593,61.835,27.643,60.485,24.576,59.688z"/>
		</g>
	</g>
	<g>
		<g>
			<path style="fill:#E96332;" d="M49.608,11.931v0.002c0.013,0,0.022-0.002,0.034-0.002C49.63,11.931,49.621,11.931,49.608,11.931z
				"/>
		</g>
	</g>
	<g>
		<g>
			<path style="fill:#07171B;" d="M44.68,73.983l-0.004,0.001c0.006,0.009,0.013,0.018,0.017,0.026
				C44.69,74.002,44.682,73.991,44.68,73.983z"/>
		</g>
	</g>
	<g>
		<g>
			<path style="fill:#A84720;" d="M49.676,11.931c-0.01,0-0.023,0-0.035,0c0.012,0,0.025,0.002,0.035,0.002V11.931z"/>
		</g>
	</g>
	<g>
		<g>
			<path style="fill:#A84720;" d="M49.676,42.481V11.933c-0.01,0-0.023-0.002-0.035-0.002c-0.011,0-0.021,0.002-0.034,0.002v30.554
				C49.63,42.486,49.653,42.481,49.676,42.481z"/>
		</g>
	</g>
	<g>
		<g>
			<path style="fill:#A84720;" d="M49.608,72.679c0.013,0,0.022,0.002,0.034,0.002c0.012,0,0.025-0.002,0.035-0.002V54.018V42.481
				c-0.023,0-0.046,0.005-0.069,0.005v11.531V72.679z"/>
		</g>
	</g>
	<g>
		<g>
			<path style="fill:#A84720;" d="M49.608,72.679v0.004c0.013,0,0.022-0.001,0.034-0.002C49.63,72.681,49.621,72.679,49.608,72.679z
				"/>
		</g>
	</g>
	<g>
		<g>
			<g>
				<path style="fill:#3C3C3B;" d="M49.658,66.009l0.019-7.841c-0.007-0.004-0.013-0.006-0.019-0.008v-9.529V6.545
					c-27.31,0-36.063,17.746-35.98,37.065c0.04,9.248,2.501,25.034,2.501,25.034s0.776,3.062,15.513,8.322
					c5.557,1.982,11.32,3.602,17.932,3.602l0.031-13.276c0,0,0.001,0,0.002,0V66.009z M32.906,60.871
					c-0.001,0.006-0.002,0.01-0.003,0.012C32.903,60.881,32.904,60.876,32.906,60.871L32.906,60.871z"/>
			</g>
		</g>
		<g>
			<g>
				<g>
					<path style="fill:#6F6F6E;" d="M49.611,6.545v42.086v9.518c-0.016,0.006-0.031,0.012-0.047,0.02l0.053,22.399
						c5.625,0,11.146-1.314,16.244-3.025c0.572-0.179,1.126-0.389,1.687-0.589c14.745-5.255,15.537-8.322,15.537-8.322
						s2.43-16.08,2.504-25.023C85.754,24.291,76.919,6.545,49.611,6.545z"/>
				</g>
			</g>
			<g>
				<g>
					<path style="fill:#6F6F6E;" d="M67.548,76.966c0-0.004,0-0.008,0-0.013c-0.561,0.2-1.115,0.41-1.687,0.589
						C66.429,77.354,66.993,77.163,67.548,76.966z"/>
				</g>
			</g>
		</g>
	</g>
	<g>
		<g>
			<g>
				<path style="fill:#07171B;" d="M25.46,37.096c0,0,14.98-4.343,14.643,10.889C40.102,47.984,25.46,53.305,25.46,37.096z"/>
			</g>
		</g>
		<g>
			<g>
				<circle style="fill:#B1B1B1;" cx="32.955" cy="42.835" r="5.554"/>
			</g>
		</g>
		<g>
			<g>
				<circle style="fill:#FFFFFF;" cx="34.811" cy="40.538" r="1.915"/>
			</g>
		</g>
		<g>
			<g>
				<path style="fill:#07171B;" d="M73.906,37.096c0,0-14.981-4.343-14.645,10.889C59.261,47.984,73.906,53.305,73.906,37.096z"/>
			</g>
		</g>
		<g>
			<g>
				<circle style="fill:#B1B1B1;" cx="66.313" cy="42.835" r="5.554"/>
			</g>
		</g>
		<g>
			<g>
				<circle style="fill:#FFFFFF;" cx="68.495" cy="40.538" r="1.915"/>
			</g>
		</g>
	</g>
	<g>
		<g>
			<g>
				<path style="fill:#07171B;" d="M52.643,62.933c3.175-3.335,7.739-5.812,7.778-5.859c0,0-3.527-1.598-10.83-1.598
					c-7.447,0-10.973,1.648-10.883,1.618c0.085,0.121,4.551,2.17,7.594,5.734c0.638,0.747,1.541,1.104,2.436,1.259h1.676
					C51.236,63.935,52.028,63.579,52.643,62.933z"/>
			</g>
		</g>
		<g>
			<g>
				<path style="fill:#07171B;" d="M48.919,67.785c-1.371,2.365-3.105,3.705-5.152,3.985c-4.638,0.625-9.56-4.233-9.61-4.281
					c-0.263-0.267-0.689-0.267-0.952-0.001c-0.264,0.261-0.264,0.687-0.002,0.949c0.204,0.209,4.775,4.736,9.706,4.736
					c0.344,0,0.689-0.021,1.036-0.068c2.235-0.305,4.129-1.605,5.646-3.863c1.517,2.258,3.411,3.559,5.647,3.863
					c0.345,0.048,0.693,0.068,1.035,0.068c4.931,0,9.503-4.527,9.707-4.736c0.263-0.263,0.262-0.688-0.002-0.951
					c-0.264-0.26-0.69-0.262-0.953,0.003c-0.049,0.048-4.964,4.899-9.604,4.281c-2.055-0.284-3.78-1.612-5.156-3.985v-3.664
					c0.049-0.01,0.098-0.024,0.148-0.034h-1.676c0.059,0.011,0.121,0.03,0.181,0.038V67.785z"/>
			</g>
		</g>
	</g>
	<g>
		<g>
			<circle style="fill:none;" cx="5.053" cy="84.608" r="3.941"/>
		</g>
	</g>
	<g>
		<g>
			<g>
				<g>
					<g>
						<path style="fill:#07171B;" d="M0.674,68.156c-0.165,0-0.327-0.058-0.456-0.177c-0.273-0.252-0.292-0.678-0.041-0.952
							c13.3-14.509,33.945-6.386,34.151-6.303c0.345,0.14,0.512,0.531,0.371,0.878c-0.139,0.344-0.531,0.507-0.877,0.371
							c-0.196-0.08-19.99-7.848-32.653,5.964C1.036,68.084,0.855,68.156,0.674,68.156z"/>
					</g>
				</g>
			</g>
			<g>
				<g>
					<g>
						<path style="fill:#07171B;" d="M5.051,72.392c-0.168,0-0.336-0.063-0.466-0.191c-0.268-0.258-0.274-0.686-0.018-0.952
							c12.459-12.841,28.703-8.52,28.868-8.474c0.358,0.101,0.568,0.471,0.469,0.828c-0.099,0.357-0.464,0.568-0.829,0.471
							c-0.155-0.044-15.654-4.142-27.541,8.114C5.403,72.322,5.229,72.392,5.051,72.392z"/>
					</g>
				</g>
			</g>
			<g>
				<g>
					<g>
						<path style="fill:#07171B;" d="M10.649,77.104c-0.134,0-0.269-0.04-0.388-0.124c-0.304-0.213-0.375-0.633-0.164-0.936
							c8.63-12.263,23.079-11.068,23.219-11.056c0.371,0.035,0.644,0.361,0.61,0.731c-0.034,0.371-0.341,0.646-0.733,0.61
							c-0.134-0.011-13.822-1.124-21.993,10.488C11.067,77.003,10.859,77.104,10.649,77.104z"/>
					</g>
				</g>
			</g>
		</g>
		<g>
			<g>
				<g>
					<g>
						<path style="fill:#07171B;" d="M97.554,68.156c-0.183,0-0.363-0.072-0.497-0.219c-12.664-13.812-32.456-6.044-32.654-5.964
							c-0.344,0.136-0.736-0.027-0.877-0.371c-0.14-0.347,0.028-0.738,0.372-0.878c0.207-0.083,20.851-8.206,34.151,6.303
							c0.251,0.274,0.232,0.7-0.041,0.952C97.88,68.099,97.718,68.156,97.554,68.156z"/>
					</g>
				</g>
			</g>
			<g>
				<g>
					<g>
						<path style="fill:#07171B;" d="M93.175,72.392c-0.177,0-0.352-0.069-0.482-0.204c-11.908-12.274-27.387-8.16-27.541-8.114
							c-0.362,0.098-0.729-0.113-0.828-0.47c-0.1-0.358,0.109-0.729,0.468-0.829c0.162-0.046,16.407-4.367,28.867,8.474
							c0.257,0.267,0.25,0.694-0.016,0.952C93.512,72.328,93.343,72.392,93.175,72.392z"/>
					</g>
				</g>
			</g>
			<g>
				<g>
					<g>
						<path style="fill:#07171B;" d="M87.579,77.104c-0.212,0-0.42-0.101-0.55-0.286c-8.175-11.614-21.86-10.502-21.995-10.488
							c-0.386,0.026-0.699-0.24-0.733-0.61c-0.034-0.369,0.239-0.695,0.61-0.731c0.14-0.013,14.588-1.208,23.218,11.056
							c0.214,0.303,0.142,0.723-0.163,0.936C87.849,77.063,87.712,77.104,87.579,77.104z"/>
					</g>
				</g>
			</g>
		</g>
	</g>
</g>
</svg>
