<?xml version="1.0" encoding="iso-8859-1"?>
<!-- Generator: Adobe Illustrator 17.0.0, SVG Export Plug-In . SVG Version: 6.00 Build 0)  -->
<!DOCTYPE svg PUBLIC "-//W3C//DTD SVG 1.1//EN" "http://www.w3.org/Graphics/SVG/1.1/DTD/svg11.dtd">
<svg version="1.1" id="Items" xmlns="http://www.w3.org/2000/svg" xmlns:xlink="http://www.w3.org/1999/xlink" x="0px" y="0px"
	 width="13.935px" height="37.554px" viewBox="0 0 13.935 37.554" style="enable-background:new 0 0 13.935 37.554;"
	 xml:space="preserve">
<g id="Paper_clip_7_">
	<g>
		<path style="opacity:0.1;fill:#23417D;" d="M6.183,37.734c-2.713,0-5.121-2.208-5.121-4.921V6.779
			c0-3.273,3.263-5.936,6.536-5.936c3.273,0,6.336,2.663,6.336,5.936v17.168h-1.303V6.779c0-2.555-2.478-4.633-5.033-4.633
			c-2.555,0-5.233,2.078-5.233,4.633v26.034c0,1.995,1.823,3.618,3.818,3.618c1.995,0,3.818-1.623,3.818-3.618V9.218
			c0-1.386-1.128-2.514-2.514-2.514S4.972,7.831,4.972,9.218v15.544H3.669V9.218c0-2.105,1.713-3.818,3.818-3.818
			c2.105,0,3.818,1.713,3.818,3.818v23.596C11.304,35.527,8.897,37.734,6.183,37.734z"/>
		<path style="fill:#332D2E;" d="M5.121,36.891C2.408,36.891,0,34.684,0,31.97V5.936C0,2.663,3.263,0,6.536,0
			c3.273,0,6.336,2.663,6.336,5.936v17.168h-1.303V5.936c0-2.555-2.479-4.633-5.033-4.633c-2.555,0-5.233,2.078-5.233,4.633V31.97
			c0,1.995,1.823,3.618,3.818,3.618c1.995,0,3.818-1.623,3.818-3.618V8.375c0-1.386-1.128-2.514-2.514-2.514
			c-1.386,0-2.514,1.128-2.514,2.514v15.544H2.607V8.375c0-2.105,1.712-3.818,3.817-3.818c2.105,0,3.818,1.713,3.818,3.818V31.97
			C10.242,34.684,7.834,36.891,5.121,36.891z"/>
	</g>
</g>
</svg>
