<?xml version="1.0" encoding="utf-8"?>
<!-- Generator: Adobe Illustrator 17.0.0, SVG Export Plug-In . SVG Version: 6.00 Build 0)  -->
<!DOCTYPE svg PUBLIC "-//W3C//DTD SVG 1.1//EN" "http://www.w3.org/Graphics/SVG/1.1/DTD/svg11.dtd">
<svg version="1.1" id="图层_1" xmlns:ev="http://www.w3.org/2001/xml-events"
	 xmlns="http://www.w3.org/2000/svg" xmlns:xlink="http://www.w3.org/1999/xlink" x="0px" y="0px" width="84px" height="40px"
	 viewBox="0 0 84 40" enable-background="new 0 0 84 40" xml:space="preserve">
<path fill="#08A1EF" d="M83.797,37.062l-1.405,2.396C82.189,39.804,81.844,40,81.439,40h-2.811c-0.406,0-0.751-0.196-0.953-0.542
	l-1.405-2.396c-0.203-0.346-0.203-0.739,0-1.085l1.405-2.396c0.202-0.346,0.547-0.542,0.953-0.542h2.811
	c0.405,0,0.75,0.196,0.953,0.542l1.405,2.396C84,36.323,84,36.716,83.797,37.062z M24.027,23.481h-2.811
	c-0.405,0-0.751-0.197-0.953-0.542l-1.405-2.396c-0.203-0.346-0.203-0.74,0-1.086l1.405-2.396c0.202-0.345,0.548-0.542,0.953-0.542
	h2.811c0.405,0,0.751,0.197,0.953,0.542l1.405,2.396c0.203,0.346,0.203,0.74,0,1.086l-1.405,2.396
	C24.778,23.284,24.432,23.481,24.027,23.481z M74.3,36.885C73.147,38.872,71.182,40,68.877,40H52.88
	c-2.305,0-4.269-1.128-5.423-3.115l-3.788-6.524l4.03-6.838l4.417,7.581c0.758,1.3,2.048,2.039,3.562,2.039h10.506
	c1.514,0,2.804-0.739,3.561-2.039l5.25-9.01c0.759-1.302,0.759-2.782,0-4.084L69.745,9c-0.757-1.301-2.047-2.039-3.561-2.039H55.678
	c-1.514,0-2.804,0.738-3.562,2.039L35.991,36.885C34.837,38.872,32.873,40,30.568,40H14.571c-2.305,0-4.27-1.128-5.423-3.115
	L1.155,23.119C0,21.13,0,18.87,1.155,16.881L9.148,3.115C10.301,1.128,12.266,0,14.571,0h15.997c2.305,0,4.269,1.128,5.423,3.115
	l3.822,6.582l-4.029,6.766L31.436,9c-0.757-1.301-2.047-2.039-3.561-2.039H17.368c-1.514,0-2.804,0.738-3.561,2.039l-5.25,9.01
	c-0.758,1.302-0.758,2.782,0,4.084l5.25,9.01c0.757,1.3,2.047,2.039,3.561,2.039h10.507c1.514,0,2.804-0.739,3.561-2.039
	L47.457,3.115C48.611,1.128,50.575,0,52.88,0h15.997c2.305,0,4.27,1.128,5.423,3.115l7.993,13.766c1.155,1.989,1.155,4.249,0,6.238
	L74.3,36.885z"/>
</svg>
