<?xml version="1.0" encoding="utf-8"?><!DOCTYPE svg PUBLIC "-//W3C//DTD SVG 1.1//EN" "http://www.w3.org/Graphics/SVG/1.1/DTD/svg11.dtd"><svg version="1.1" baseProfile="full" xmlns="http://www.w3.org/2000/svg" xmlns:xlink="http://www.w3.org/1999/xlink" xmlns:ev="http://www.w3.org/2001/xml-events"   height="192px"   width="480px" ><path fill="rgb( 48, 216, 249 )" d="M0,0 C0,0 480,0 480,0 C480,0 480,192 480,192 C480,192 0,192 0,192 C0,192 0,0 0,0 Z "/><text font-family="Hiragino Sans GB" fill="rgb( 254, 254, 254 )" transform="matrix( 1, 0, 0, 1.0000000409782,231.633, 120.987499794597)" font-size="16px"> <tspan>&#30021;&#20139;&#26131;&#20225;&#31168;&#22686;&#20540;&#26381;&#21153;</tspan><tspan x="0" dy="1.375em">&#39069;&#22806;&#36192;&#36865;&#50;&#48;&#48;&#48;&#31168;&#28857;</tspan></text><path fill="rgb( 255, 255, 255 )" d="M232,89 C232,89 292,89 292,89 C292,89 292,91 292,91 C292,91 232,91 232,91 C232,91 232,89 232,89 Z "/><text font-family="Hiragino Sans GB" fill="rgb( 255, 255, 255 )" transform="matrix( 1, 0, 0, 1.0000000409782,232.1195, 67.784500380462)" font-size="24px">&#20840;&#24180;&#49;&#57;&#57;&#57;&#20803;</text><path fill="rgb( 228, 165, 97 )" d="M149.8,167.727 C149.8,167.727 145.433,167.727 145.433,167.727 C145.433,167.727 112.137,142.335 112.137,142.335 C112.137,142.335 112.137,167.727 112.137,167.727 C112.137,167.727 108.862,167.727 108.862,167.727 C108.862,167.727 108.862,142.17 108.862,142.17 C108.862,142.17 75.567,167.727 75.567,167.727 C75.567,167.727 70.654,167.727 70.654,167.727 C70.654,167.727 108.862,138.407 108.862,138.407 C108.862,138.407 108.862,21 108.862,21 C108.862,21 112.137,21 112.137,21 C112.137,21 112.137,138.486 112.137,138.486 C112.137,138.486 149.8,167.727 149.8,167.727 Z "/><path stroke="rgb( 14, 5, 10 )" stroke-width="0px" stroke-linecap="butt" stroke-linejoin="miter" fill="rgb( 255, 255, 255 )" d="M45,36 C45,36 176,36 176,36 C176,36 176,123 176,123 C176,123 45,123 45,123 C45,123 45,36 45,36 Z "/><path opacity="0.2" fill="rgb( 0, 0, 0 )" d="M45,171 C45,171 45,167.727 45,167.727 C45,167.727 176,167.727 176,167.727 C176,167.727 176,171 176,171 C176,171 45,171 45,171 ZM108.862,126.273 C108.862,126.273 108.862,123 108.862,123 C108.862,123 112.137,123 112.137,123 C112.137,123 112.137,126.273 112.137,126.273 C112.137,126.273 108.862,126.273 108.862,126.273 ZM45,39 C45,39 176,39 176,39 C176,39 176,40.091 176,40.091 C176,40.091 45,40.091 45,40.091 C45,40.091 45,39 45,39 Z "/><path stroke="rgb( 14, 5, 10 )" stroke-width="0px" stroke-linecap="butt" stroke-linejoin="miter" fill="rgb( 180, 146, 238 )" d="M45,36 C45,36 176,36 176,36 C176,36 176,40 176,40 C176,40 45,40 45,40 C45,40 45,36 45,36 Z "/><path fill="rgb( 243, 125, 112 )" d="M94.501,89.338 C94.501,89.338 101.916,93.626 101.916,93.626 C94.703,103.902 80.794,107.182 69.812,100.831 C66.68,99.019 64.113,96.607 62.157,93.823 C62.157,93.823 69.615,89.494 69.615,89.494 C70.816,91.025 72.317,92.358 74.101,93.389 C81.009,97.385 89.699,95.516 94.501,89.338 Z "/><path fill="rgb( 254, 194, 79 )" d="M103.902,90.301 C103.902,90.301 96.43,85.996 96.43,85.996 C97.154,84.189 97.555,82.22 97.555,80.157 C97.555,72.166 91.596,65.562 83.853,64.485 C83.853,64.485 83.853,55.909 83.853,55.909 C96.344,57.028 106.133,67.454 106.133,80.157 C106.133,83.779 105.331,87.213 103.902,90.301 Z "/><path fill="rgb( 77, 211, 159 )" d="M66.132,80.157 C66.132,82.22 66.534,84.189 67.257,85.996 C67.257,85.996 59.785,90.301 59.785,90.301 C58.356,87.213 57.554,83.779 57.554,80.157 C57.554,67.454 67.344,57.028 79.835,55.909 C79.835,55.909 79.835,64.485 79.835,64.485 C72.092,65.562 66.132,72.166 66.132,80.157 Z "/><path fill="rgb( 169, 181, 192 )" d="M126.329,87 C126.329,87 152.529,87 152.529,87 C152.529,87 152.529,91.364 152.529,91.364 C152.529,91.364 126.329,91.364 126.329,91.364 C126.329,91.364 126.329,87 126.329,87 Z "/><path fill="rgb( 243, 125, 112 )" d="M119.233,87 C119.233,87 123.6,87 123.6,87 C123.6,87 123.6,91.364 123.6,91.364 C123.6,91.364 119.233,91.364 119.233,91.364 C119.233,91.364 119.233,87 119.233,87 Z "/><path fill="rgb( 169, 181, 192 )" d="M126.329,76.091 C126.329,76.091 163.446,76.091 163.446,76.091 C163.446,76.091 163.446,80.455 163.446,80.455 C163.446,80.455 126.329,80.455 126.329,80.455 C126.329,80.455 126.329,76.091 126.329,76.091 Z "/><path fill="rgb( 254, 194, 79 )" d="M119.233,76.091 C119.233,76.091 123.6,76.091 123.6,76.091 C123.6,76.091 123.6,80.455 123.6,80.455 C123.6,80.455 119.233,80.455 119.233,80.455 C119.233,80.455 119.233,76.091 119.233,76.091 Z "/><path fill="rgb( 169, 181, 192 )" d="M126.329,65.182 C126.329,65.182 159.079,65.182 159.079,65.182 C159.079,65.182 159.079,69.545 159.079,69.545 C159.079,69.545 126.329,69.545 126.329,69.545 C126.329,69.545 126.329,65.182 126.329,65.182 Z "/><path fill="rgb( 77, 211, 159 )" d="M119.233,65.182 C119.233,65.182 123.6,65.182 123.6,65.182 C123.6,65.182 123.6,69.545 123.6,69.545 C123.6,69.545 119.233,69.545 119.233,69.545 C119.233,69.545 119.233,65.182 119.233,65.182 Z "/></svg>