<?xml version="1.0" encoding="utf-8"?><!DOCTYPE svg PUBLIC "-//W3C//DTD SVG 1.1//EN" "http://www.w3.org/Graphics/SVG/1.1/DTD/svg11.dtd"><svg version="1.1" baseProfile="full" xmlns="http://www.w3.org/2000/svg" xmlns:xlink="http://www.w3.org/1999/xlink" xmlns:ev="http://www.w3.org/2001/xml-events"   height="40px"   width="100px" viewBox = "0 0 640 234" ><defs><radialGradient id="PSgrad_0">  <stop offset="48%" stop-color="rgb(251,203,9)" stop-opacity="1" />  <stop offset="100%" stop-color="rgb(210,16,42)" stop-opacity="1" /></radialGradient></defs><path stroke="rgb( 13, 4, 8 )" stroke-width="0px" stroke-linecap="butt" stroke-linejoin="miter" fill="rgb( 253, 192, 1 )" d="M30,0 C30,0 610,0 610,0 C626.569,0 640,13.431 640,30 C640,30 640,204 640,204 C640,220.569 626.569,234 610,234 C610,234 30,234 30,234 C13.431,234 0,220.569 0,204 C0,204 0,30 0,30 C0,13.431 13.431,0 30,0 Z "/><path stroke="rgb( 13, 4, 8 )" stroke-width="0px" stroke-linecap="butt" stroke-linejoin="miter" fill="rgb( 210, 16, 42 )" d="M35,8 C35,8 605,8 605,8 C620.464,8 633,20.536 633,36 C633,36 633,198 633,198 C633,213.464 620.464,226 605,226 C605,226 35,226 35,226 C19.536,226 7,213.464 7,198 C7,198 7,36 7,36 C7,20.536 19.536,8 35,8 Z "/><path stroke="rgb( 13, 4, 8 )" stroke-width="0px" stroke-linecap="butt" stroke-linejoin="miter" fill="rgb( 255, 255, 255 )" d="M597,69 C597,69 597,80 597,80 C597,80 611,80 611,80 C611,80 611,108 611,108 C611,108 610.072,111 608,111 C608,111 584,111 584,111 C584,111 584,80 584,80 C584,80 590,80 590,80 C590,80 590,52 590,52 C590,52 597,52 597,52 C597,52 597,62 597,62 C597,62 612,62 612,62 C612,62 612,69 612,69 C612,69 597,69 597,69 ZM591,86 C591,86 591,104 591,104 C591,104 603,104 603,104 C604.178,104 604,102 604,102 C604,102 604,86 604,86 C604,86 591,86 591,86 ZM554,54 C554,54 564,54 564,54 C564,54 564,52 564,52 C564,52 572,52 572,52 C572,52 572,54 572,54 C572,54 582,54 582,54 C582,54 582,61 582,61 C582,61 554,61 554,61 C554,61 554,54 554,54 ZM560,137 C560,137 552,137 552,137 C552,137 552,148 552,148 C552,148 560,148 560,148 C560,148 560,153 560,153 C560,153 552,153 552,153 C552,153 552,170 552,170 C552,170 561,170 561,170 C561,170 561,175 561,175 C561,175 537,175 537,175 C534.075,174.859 534,171 534,171 C534,171 534,144 534,144 C534,144 539,144 539,144 C539,144 539,168 539,168 C539.209,169.369 540,170 540,170 C540,170 547,170 547,170 C547,170 547,137 547,137 C547,137 534,137 534,137 C534,137 534,132 534,132 C534,132 560,132 560,132 C560,132 560,137 560,137 ZM531,112 C531,112 519,112 519,112 C519,112 519,106 519,106 C519,106 525,106 525,106 C526.13,106 526,104 526,104 C526,104 526,60 526,60 C526,60 487,60 487,60 C487,60 487,111 487,111 C487,111 480,111 480,111 C480,111 480,52 480,52 C480,52 533,52 533,52 C533,52 533,109 533,109 C533,111.853 531,112 531,112 ZM482,153 C482,153 484,153 484,153 C484,153 484,171 484,171 C484,174.741 481,175 481,175 C481,175 471,175 471,175 C471,175 471,171 471,171 C471,171 478,171 478,171 C480.207,171 480,169 480,169 C480,169 480,158 480,158 C480,158 470,158 470,158 C468.419,158.048 468,157 468,157 C468,157 468,140 468,140 C468,140 472,140 472,140 C472,140 472,153 472,153 C472,153 478,153 478,153 C478,153 478,137 478,137 C478,137 468,137 468,137 C468,137 468,131 468,131 C468,131 482,131 482,131 C482,131 482,153 482,153 ZM456,112 C456,112 420,112 420,112 C420,112 420,91 420,91 C420,91 460,91 460,91 C460,91 460,107 460,107 C460,107 460.134,112 456,112 ZM452,97 C452,97 429,97 429,97 C429,97 429,104 429,104 C429,104 452,104 452,104 C452,104 452,97 452,97 ZM459,87 C459,87 421,87 421,87 C421,87 421,80 421,80 C421,80 459,80 459,80 C459,80 459,87 459,87 ZM421,69 C421,69 459,69 459,69 C459,69 459,76 459,76 C459,76 421,76 421,76 C421,76 421,69 421,69 ZM420,57 C420,57 436,57 436,57 C436,57 436,54 436,54 C436,54 445,54 445,54 C445,54 445,57 445,57 C445,57 460,57 460,57 C460,57 460,64 460,64 C460,64 420,64 420,64 C420,64 420,57 420,57 ZM427,131 C426.379,133.298 424,140 424,140 C424,140 424,174 424,174 C424,174 419,174 419,174 C419,174 419,145 419,145 C419,145 415,145 415,145 C415,145 415,140 415,140 C418.959,139.87 419,139 419,139 C419,139 422,131 422,131 C422,131 427,131 427,131 ZM415,112 C415,112 406,112 406,112 C406,112 406,73 406,73 C406,73 403,73 403,73 C403,73 403,66 403,66 C405.773,62.616 410,52 410,52 C410,52 419,52 419,52 C418.958,55.819 415,64 415,64 C415,64 415,112 415,112 ZM383,107 C383,107 382.533,111 379,111 C379,111 369,111 369,111 C369,111 369,103 369,103 C369,103 375,103 375,103 C375,103 375,60 375,60 C375,60 328,60 328,60 C328,60 328,52 328,52 C328,52 386,52 386,52 C386,52 386,60 386,60 C386,60 383,60 383,60 C383,60 383,107 383,107 ZM368,102 C368,102 367.553,108 365,108 C365,108 330,108 330,108 C330,108 330,64 330,64 C330,64 368,64 368,64 C368,64 368,102 368,102 ZM360,72 C360,72 340,72 340,72 C340,72 340,101 340,101 C340,101 360,101 360,101 C360,101 360,72 360,72 ZM372,131 C372,131 381,131 381,131 C381,131 381,133 381,133 C381,133 404,133 404,133 C404,133 404,158 404,158 C404,158 406,158 406,158 C406,158 406,163 406,163 C406,163 404,163 404,163 C404,163 404,172 404,172 C404,172 404.265,173.91 402,174 C402,174 388,174 388,174 C388,174 388,170 388,170 C388,170 396,170 396,170 C396,170 398,169.679 398,169 C398,169 398,163 398,163 C398,163 392,163 392,163 C392,163 377,174 377,174 C377,174 363,174 363,174 C363,174 363,170 363,170 C363,170 372,170 372,170 C372,170 381,163 381,163 C381,163 365,163 365,163 C365,163 365,138 365,138 C365,138 363,138 363,138 C363,138 363,133 363,133 C363,133 372,133 372,133 C372,133 372,131 372,131 ZM371,158 C371,158 398,158 398,158 C398,158 398,154 398,154 C398,154 371,154 371,154 C371,154 371,158 371,158 ZM371,150 C371,150 398,150 398,150 C398,150 398,146 398,146 C398,146 371,146 371,146 C371,146 371,150 371,150 ZM371,138 C371,138 371,142 371,142 C371,142 398,142 398,142 C398,142 398,138 398,138 C398,138 371,138 371,138 ZM431,138 C431,138 433,131 433,131 C433,131 439,131 439,131 C439,131 434,143 434,143 C434,143 433.522,145.046 432,145 C432,145 428,145 428,145 C428,145 428,140 428,140 C428,140 430.232,139.617 431,138 ZM450,143 C450,143 448,137 448,137 C447.657,135.598 447,135 447,135 C447,135 442,135 442,135 C442,135 442,131 442,131 C442,131 451,131 451,131 C451,131 453,138 453,138 C453.662,139.442 455,140 455,140 C455,140 457,140 457,140 C457,140 457,145 457,145 C457,145 453,145 453,145 C451.469,145 450,143 450,143 ZM456,170 C456,170 455.621,173.998 453,174 C450.379,174.002 441,174 441,174 C441,174 441,170 441,170 C441,170 449,170 449,170 C449,170 451.165,169.855 451,168 C451,168 451,153 451,153 C451,153 440,153 440,153 C440,153 436,172 436,172 C436,172 435.716,174 434,174 C432.284,174 428,174 428,174 C428,174 428,170 428,170 C428,170 430,170 430,170 C430,170 431.891,169.758 432,168 C432,168 434,153 434,153 C434,153 428,153 428,153 C428,153 428,148 428,148 C428,148 456,148 456,148 C456,148 456,170 456,170 ZM477,166 C477,166 468,166 468,166 C468,166 468,162 468,162 C468,162 477,162 477,162 C477,162 477,166 477,166 ZM490,136 C490,136 491,132 491,132 C491,132 504,132 504,132 C504,132 505,135 505,135 C506.431,137.388 510,138 510,138 C510,138 510,141 510,141 C510,141 504,141 504,141 C502.768,141 502,139 502,139 C502,139 500,136 500,136 C500,136 495,136 495,136 C495,136 494,139 494,139 C493.301,140.113 492,141 492,141 C492,141 486,141 486,141 C486,141 486,138 486,138 C488.812,138.14 490,136 490,136 ZM509,150 C509,150 487,150 487,150 C487,150 487,146 487,146 C487,146 509,146 509,146 C509,146 509,150 509,150 ZM491,162 C491,162 491.021,163.447 493,164 C493,164 493,167 493,167 C493,167 490,167 490,167 C490,167 488.384,165.539 488,163 C488,163 487,153 487,153 C487,153 491,153 491,153 C491,153 491,162 491,162 ZM495,153 C495,153 499,153 499,153 C499,153 500,163 500,163 C500,163 500.072,163.475 501,164 C501,164 501,167 501,167 C501,167 498,167 498,167 C498,167 496.504,165.945 496,164 C496,164 495,153 495,153 ZM509,175 C509,175 487,175 487,175 C487,175 487,170 487,170 C487,170 509,170 509,170 C509,170 509,175 509,175 ZM510,153 C510,153 509,164 509,164 C509,164 508.395,166.576 507,167 C507,167 504,167 504,167 C504,167 504,163 504,163 C504,163 505.52,163.124 506,161 C506,161 506,153 506,153 C506,153 510,153 510,153 ZM496,99 C496,99 494,105 494,105 C494,105 488,105 488,105 C488,105 494,86 494,86 C494,86 488,65 488,65 C488,65 494,65 494,65 C494,65 497,74 497,74 C497,74 500,65 500,65 C500,65 513,65 513,65 C513,65 515,74 515,74 C515,74 518,65 518,65 C518,65 524,65 524,65 C524,65 518,84 518,84 C518,84 523,101 523,101 C523,101 516,101 516,101 C516,101 515,98 515,98 C515,98 512,105 512,105 C512,105 499,105 499,105 C499,105 496,99 496,99 ZM505,104 C505,104 512,86 512,86 C512,86 507,67 507,67 C507,67 500,86 500,86 C500,86 505,104 505,104 ZM529,137 C529,137 519,137 519,137 C519,137 519,132 519,132 C519,132 529,132 529,132 C529,132 529,137 529,137 ZM528,169 C528,169 527.329,169.881 531,170 C531,170 531,175 531,175 C531,175 524,175 524,175 C524,175 522.267,173.969 522,171 C522,171 522,151 522,151 C522,151 519,151 519,151 C519,151 519,146 519,146 C519,146 528,146 528,146 C528,146 528,169 528,169 ZM567,95 C567,95 567,101 567,101 C567,101 561,101 561,101 C561,101 558.702,100.008 558,96 C558,96 554,64 554,64 C554,64 562,64 562,64 C562,64 565,93 565,93 C565,93 564.885,95 567,95 ZM555,104 C555,104 580,104 580,104 C580,104 580,111 580,111 C580,111 555,111 555,111 C555,111 555,104 555,104 ZM575,101 C575,101 570,101 570,101 C570,101 570,95 570,95 C570,95 570.902,94.841 571,94 C571,94 574,64 574,64 C574,64 581,64 581,64 C581,64 578,97 578,97 C578,97 577.085,101 575,101 Z "/><path stroke="rgb( 13, 4, 8 )" stroke-width="0px" stroke-linecap="butt" stroke-linejoin="miter" fill="rgb( 253, 192, 1 )" d="M189,8 C189,8 265,8 265,8 C321.415,94.896 312.757,164.668 271,226 C271,226 189,226 189,226 C189,226 189,8 189,8 Z "/><path stroke="rgb( 13, 4, 8 )" stroke-width="0px" stroke-linecap="butt" stroke-linejoin="miter" fill="rgb( 255, 255, 255 )" d="M35,8 C35,8 260,8 260,8 C275.095,39.805 285.167,66.401 281,125 C273.106,182.338 251.986,205.453 226,226 C226,226 35,226 35,226 C19.536,226 7,213.464 7,198 C7,198 7,36 7,36 C7,20.536 19.536,8 35,8 Z "/><path stroke="rgb( 13, 4, 8 )" stroke-width="0px" stroke-linecap="butt" stroke-linejoin="miter" fill="url(#PSgrad_0)" d="M187.076,179.241 C187.259,179.304 187.441,179.38 187.624,179.433 C175.421,197.28 154.882,209 131.594,209 C106.279,209 84.22,195.144 72.58,174.629 C72.576,174.641 72.57,174.653 72.567,174.665 C54.72,162.461 43,141.922 43,118.635 C43,92.684 57.555,70.15 78.924,58.759 C78.741,58.696 78.559,58.62 78.376,58.567 C90.579,40.72 111.118,29 134.406,29 C159.721,29 181.78,42.856 193.42,63.371 C193.424,63.359 193.43,63.347 193.433,63.335 C211.28,75.539 223,96.078 223,119.365 C223,145.316 208.445,167.85 187.076,179.241 ZM131.594,197.555 C144.196,197.555 155.814,193.407 165.194,186.43 C161.986,186.898 158.708,187.15 155.37,187.15 C118.019,187.15 87.74,156.802 87.74,119.365 C87.74,114.107 88.355,108.996 89.49,104.085 C80.655,114.005 75.281,127.061 75.281,141.375 C75.281,172.402 100.493,197.555 131.594,197.555 ZM166.805,118.635 C166.805,108.8 164.284,99.558 159.863,91.511 C159.874,91.939 159.87,92.379 159.883,92.805 C151.568,87.975 141.909,85.195 131.594,85.195 C122.576,85.195 114.059,87.322 106.502,91.082 C106.602,91.079 106.705,91.08 106.805,91.077 C101.975,99.392 99.195,109.05 99.195,119.365 C99.195,129.2 101.716,138.442 106.137,146.489 C106.126,146.061 106.13,145.621 106.117,145.195 C114.432,150.025 124.091,152.805 134.406,152.805 C143.424,152.805 151.941,150.678 159.498,146.918 C159.398,146.921 159.295,146.92 159.195,146.923 C164.025,138.608 166.805,128.95 166.805,118.635 ZM54.445,118.635 C54.445,130.556 58.159,141.597 64.467,150.698 C64.044,147.647 63.809,144.537 63.809,141.37 C63.809,104.019 94.158,73.74 131.594,73.74 C136.773,73.74 141.81,74.333 146.654,75.435 C136.9,67.253 124.339,62.321 110.625,62.321 C79.598,62.321 54.445,87.534 54.445,118.635 ZM134.406,40.445 C121.804,40.445 110.186,44.593 100.806,51.57 C104.014,51.102 107.292,50.85 110.63,50.85 C147.981,50.85 178.26,81.198 178.26,118.635 C178.26,123.893 177.645,129.004 176.51,133.915 C185.345,123.995 190.719,110.939 190.719,96.625 C190.719,65.598 165.507,40.445 134.406,40.445 ZM201.533,87.302 C201.956,90.353 202.191,93.463 202.191,96.63 C202.191,133.981 171.842,164.26 134.406,164.26 C129.227,164.26 124.19,163.667 119.346,162.565 C129.1,170.747 141.661,175.679 155.375,175.679 C186.402,175.679 211.555,150.466 211.555,119.365 C211.555,107.444 207.841,96.403 201.533,87.302 Z "/></svg>