<?xml version="1.0" encoding="utf-8"?><!DOCTYPE svg PUBLIC "-//W3C//DTD SVG 1.1//EN" "http://www.w3.org/Graphics/SVG/1.1/DTD/svg11.dtd"><svg version="1.1" baseProfile="full" xmlns="http://www.w3.org/2000/svg" xmlns:xlink="http://www.w3.org/1999/xlink" xmlns:ev="http://www.w3.org/2001/xml-events"   height="120px"   width="120px" viewBox = "0 0 1024 1024"><path stroke="rgb( 13, 4, 8 )" stroke-width="0px" stroke-linecap="butt" stroke-linejoin="miter" fill="rgb( 255, 255, 255 )" d="M0,0 C0,0 1024,0 1024,0 C1024,0 1024,1024 1024,1024 C1024,1024 0,1024 0,1024 C0,1024 0,0 0,0 Z "/><path stroke="rgb( 13, 4, 8 )" stroke-width="0px" stroke-linecap="butt" stroke-linejoin="miter" fill="rgb( 0, 0, 0 )" d="M945.539,970 C945.539,970 945.539,944.528 945.539,944.528 C945.539,944.528 971,944.528 971,944.528 C971,944.528 971,970 971,970 C971,970 945.539,970 945.539,970 ZM920.079,896.414 C920.079,896.414 896.032,896.414 896.032,896.414 C896.032,896.414 896.032,920.471 896.032,920.471 C896.032,920.471 871.986,920.471 871.986,920.471 C871.986,920.471 871.986,944.528 871.986,944.528 C871.986,944.528 896.032,944.528 896.032,944.528 C896.032,944.528 896.032,970 896.032,970 C896.032,970 797.018,970 797.018,970 C797.018,970 797.018,944.528 797.018,944.528 C797.018,944.528 846.525,944.528 846.525,944.528 C846.525,944.528 846.525,894.998 846.525,894.998 C846.525,894.998 871.986,894.998 871.986,894.998 C871.986,894.998 871.986,870.941 871.986,870.941 C871.986,870.941 921.493,870.941 921.493,870.941 C921.493,870.941 921.493,894.998 921.493,894.998 C921.493,894.998 945.539,894.998 945.539,894.998 C945.539,894.998 945.539,870.941 945.539,870.941 C945.539,870.941 921.493,870.941 921.493,870.941 C921.493,870.941 921.493,821.412 921.493,821.412 C921.493,821.412 896.032,821.412 896.032,821.412 C896.032,821.412 896.032,845.469 896.032,845.469 C896.032,845.469 871.986,845.469 871.986,845.469 C871.986,845.469 871.986,870.941 871.986,870.941 C871.986,870.941 772.972,870.941 772.972,870.941 C772.972,870.941 772.972,894.998 772.972,894.998 C772.972,894.998 797.018,894.998 797.018,894.998 C797.018,894.998 797.018,920.471 797.018,920.471 C797.018,920.471 772.972,920.471 772.972,920.471 C772.972,920.471 772.972,970 772.972,970 C772.972,970 722.051,970 722.051,970 C722.051,970 722.051,945.943 722.051,945.943 C722.051,945.943 698.005,945.943 698.005,945.943 C698.005,945.943 698.005,970 698.005,970 C698.005,970 672.544,970 672.544,970 C672.544,970 672.544,945.943 672.544,945.943 C672.544,945.943 624.451,945.943 624.451,945.943 C624.451,945.943 624.451,970 624.451,970 C624.451,970 598.991,970 598.991,970 C598.991,970 598.991,920.471 598.991,920.471 C598.991,920.471 574.945,920.471 574.945,920.471 C574.945,920.471 574.945,944.528 574.945,944.528 C574.945,944.528 549.484,944.528 549.484,944.528 C549.484,944.528 549.484,920.471 549.484,920.471 C549.484,920.471 526.852,920.471 526.852,920.471 C526.852,920.471 526.852,945.943 526.852,945.943 C526.852,945.943 425.009,945.943 425.009,945.943 C425.009,945.943 425.009,970 425.009,970 C425.009,970 301.949,970 301.949,970 C301.949,970 301.949,920.471 301.949,920.471 C301.949,920.471 325.995,920.471 325.995,920.471 C325.995,920.471 325.995,870.941 325.995,870.941 C325.995,870.941 301.949,870.941 301.949,870.941 C301.949,870.941 301.949,920.471 301.949,920.471 C301.949,920.471 252.442,920.471 252.442,920.471 C252.442,920.471 252.442,894.998 252.442,894.998 C252.442,894.998 276.488,894.998 276.488,894.998 C276.488,894.998 276.488,870.941 276.488,870.941 C276.488,870.941 300.535,870.941 300.535,870.941 C300.535,870.941 300.535,845.469 300.535,845.469 C300.535,845.469 351.456,845.469 351.456,845.469 C351.456,845.469 351.456,869.526 351.456,869.526 C351.456,869.526 400.963,869.526 400.963,869.526 C400.963,869.526 400.963,845.469 400.963,845.469 C400.963,845.469 425.009,845.469 425.009,845.469 C425.009,845.469 425.009,819.997 425.009,819.997 C425.009,819.997 449.055,819.997 449.055,819.997 C449.055,819.997 449.055,771.883 449.055,771.883 C449.055,771.883 426.424,771.883 426.424,771.883 C426.424,771.883 426.424,795.94 426.424,795.94 C426.424,795.94 400.963,795.94 400.963,795.94 C400.963,795.94 400.963,770.468 400.963,770.468 C400.963,770.468 425.009,770.468 425.009,770.468 C425.009,770.468 425.009,746.41 425.009,746.41 C425.009,746.41 376.917,746.41 376.917,746.41 C376.917,746.41 376.917,795.94 376.917,795.94 C376.917,795.94 351.456,795.94 351.456,795.94 C351.456,795.94 351.456,746.41 351.456,746.41 C351.456,746.41 327.41,746.41 327.41,746.41 C327.41,746.41 327.41,771.883 327.41,771.883 C327.41,771.883 277.903,771.883 277.903,771.883 C277.903,771.883 277.903,795.94 277.903,795.94 C277.903,795.94 303.364,795.94 303.364,795.94 C303.364,795.94 303.364,821.412 303.364,821.412 C303.364,821.412 277.903,821.412 277.903,821.412 C277.903,821.412 277.903,845.469 277.903,845.469 C277.903,845.469 252.442,845.469 252.442,845.469 C252.442,845.469 252.442,770.468 252.442,770.468 C252.442,770.468 276.488,770.468 276.488,770.468 C276.488,770.468 276.488,747.826 276.488,747.826 C276.488,747.826 252.442,747.826 252.442,747.826 C252.442,747.826 252.442,722.353 252.442,722.353 C252.442,722.353 277.903,722.353 277.903,722.353 C277.903,722.353 277.903,746.41 277.903,746.41 C277.903,746.41 301.949,746.41 301.949,746.41 C301.949,746.41 301.949,696.881 301.949,696.881 C301.949,696.881 276.488,696.881 276.488,696.881 C276.488,696.881 276.488,672.824 276.488,672.824 C276.488,672.824 252.442,672.824 252.442,672.824 C252.442,672.824 252.442,722.353 252.442,722.353 C252.442,722.353 178.889,722.353 178.889,722.353 C178.889,722.353 178.889,771.883 178.889,771.883 C178.889,771.883 153.428,771.883 153.428,771.883 C153.428,771.883 153.428,671.409 153.428,671.409 C153.428,671.409 177.475,671.409 177.475,671.409 C177.475,671.409 177.475,647.352 177.475,647.352 C177.475,647.352 153.428,647.352 153.428,647.352 C153.428,647.352 153.428,597.823 153.428,597.823 C153.428,597.823 178.889,597.823 178.889,597.823 C178.889,597.823 178.889,621.88 178.889,621.88 C178.889,621.88 202.935,621.88 202.935,621.88 C202.935,621.88 202.935,597.823 202.935,597.823 C202.935,597.823 226.982,597.823 226.982,597.823 C226.982,597.823 226.982,573.765 226.982,573.765 C226.982,573.765 202.935,573.765 202.935,573.765 C202.935,573.765 202.935,549.708 202.935,549.708 C202.935,549.708 178.889,549.708 178.889,549.708 C178.889,549.708 178.889,573.765 178.889,573.765 C178.889,573.765 153.428,573.765 153.428,573.765 C153.428,573.765 153.428,597.823 153.428,597.823 C153.428,597.823 127.968,597.823 127.968,597.823 C127.968,597.823 127.968,573.765 127.968,573.765 C127.968,573.765 103.921,573.765 103.921,573.765 C103.921,573.765 103.921,597.823 103.921,597.823 C103.921,597.823 78.461,597.823 78.461,597.823 C78.461,597.823 78.461,548.293 78.461,548.293 C78.461,548.293 103.921,548.293 103.921,548.293 C103.921,548.293 103.921,524.236 103.921,524.236 C103.921,524.236 54.415,524.236 54.415,524.236 C54.415,524.236 54.415,473.292 54.415,473.292 C54.415,473.292 78.461,473.292 78.461,473.292 C78.461,473.292 78.461,450.65 78.461,450.65 C78.461,450.65 54.415,450.65 54.415,450.65 C54.415,450.65 54.415,300.647 54.415,300.647 C54.415,300.647 103.921,300.647 103.921,300.647 C103.921,300.647 103.921,326.119 103.921,326.119 C103.921,326.119 79.875,326.119 79.875,326.119 C79.875,326.119 79.875,399.705 79.875,399.705 C79.875,399.705 129.382,399.705 129.382,399.705 C129.382,399.705 129.382,425.177 129.382,425.177 C129.382,425.177 103.921,425.177 103.921,425.177 C103.921,425.177 103.921,473.292 103.921,473.292 C103.921,473.292 153.428,473.292 153.428,473.292 C153.428,473.292 153.428,449.235 153.428,449.235 C153.428,449.235 177.475,449.235 177.475,449.235 C177.475,449.235 177.475,375.648 177.475,375.648 C177.475,375.648 153.428,375.648 153.428,375.648 C153.428,375.648 153.428,350.176 153.428,350.176 C153.428,350.176 226.982,350.176 226.982,350.176 C226.982,350.176 226.982,375.648 226.982,375.648 C226.982,375.648 202.935,375.648 202.935,375.648 C202.935,375.648 202.935,399.705 202.935,399.705 C202.935,399.705 226.982,399.705 226.982,399.705 C226.982,399.705 226.982,423.762 226.982,423.762 C226.982,423.762 252.442,423.762 252.442,423.762 C252.442,423.762 252.442,449.235 252.442,449.235 C252.442,449.235 226.982,449.235 226.982,449.235 C226.982,449.235 226.982,425.177 226.982,425.177 C226.982,425.177 202.935,425.177 202.935,425.177 C202.935,425.177 202.935,449.235 202.935,449.235 C202.935,449.235 226.982,449.235 226.982,449.235 C226.982,449.235 226.982,473.292 226.982,473.292 C226.982,473.292 252.442,473.292 252.442,473.292 C252.442,473.292 252.442,449.235 252.442,449.235 C252.442,449.235 277.903,449.235 277.903,449.235 C277.903,449.235 277.903,473.292 277.903,473.292 C277.903,473.292 301.949,473.292 301.949,473.292 C301.949,473.292 301.949,498.764 301.949,498.764 C301.949,498.764 277.903,498.764 277.903,498.764 C277.903,498.764 277.903,548.293 277.903,548.293 C277.903,548.293 301.949,548.293 301.949,548.293 C301.949,548.293 301.949,573.765 301.949,573.765 C301.949,573.765 277.903,573.765 277.903,573.765 C277.903,573.765 277.903,597.823 277.903,597.823 C277.903,597.823 325.995,597.823 325.995,597.823 C325.995,597.823 325.995,572.35 325.995,572.35 C325.995,572.35 350.042,572.35 350.042,572.35 C350.042,572.35 350.042,548.293 350.042,548.293 C350.042,548.293 374.088,548.293 374.088,548.293 C374.088,548.293 374.088,524.236 374.088,524.236 C374.088,524.236 350.042,524.236 350.042,524.236 C350.042,524.236 350.042,498.764 350.042,498.764 C350.042,498.764 374.088,498.764 374.088,498.764 C374.088,498.764 374.088,474.707 374.088,474.707 C374.088,474.707 325.995,474.707 325.995,474.707 C325.995,474.707 325.995,425.177 325.995,425.177 C325.995,425.177 276.488,425.177 276.488,425.177 C276.488,425.177 276.488,375.648 276.488,375.648 C276.488,375.648 251.028,375.648 251.028,375.648 C251.028,375.648 251.028,350.176 251.028,350.176 C251.028,350.176 276.488,350.176 276.488,350.176 C276.488,350.176 276.488,374.233 276.488,374.233 C276.488,374.233 301.949,374.233 301.949,374.233 C301.949,374.233 301.949,350.176 301.949,350.176 C301.949,350.176 375.502,350.176 375.502,350.176 C375.502,350.176 375.502,372.818 375.502,372.818 C375.502,372.818 449.055,372.818 449.055,372.818 C449.055,372.818 449.055,350.176 449.055,350.176 C449.055,350.176 425.009,350.176 425.009,350.176 C425.009,350.176 425.009,300.647 425.009,300.647 C425.009,300.647 375.502,300.647 375.502,300.647 C375.502,300.647 375.502,276.59 375.502,276.59 C375.502,276.59 351.456,276.59 351.456,276.59 C351.456,276.59 351.456,300.647 351.456,300.647 C351.456,300.647 375.502,300.647 375.502,300.647 C375.502,300.647 375.502,324.704 375.502,324.704 C375.502,324.704 400.963,324.704 400.963,324.704 C400.963,324.704 400.963,350.176 400.963,350.176 C400.963,350.176 375.502,350.176 375.502,350.176 C375.502,350.176 375.502,326.119 375.502,326.119 C375.502,326.119 325.995,326.119 325.995,326.119 C325.995,326.119 325.995,300.647 325.995,300.647 C325.995,300.647 301.949,300.647 301.949,300.647 C301.949,300.647 301.949,276.59 301.949,276.59 C301.949,276.59 252.442,276.59 252.442,276.59 C252.442,276.59 252.442,300.647 252.442,300.647 C252.442,300.647 226.982,300.647 226.982,300.647 C226.982,300.647 226.982,276.59 226.982,276.59 C226.982,276.59 202.935,276.59 202.935,276.59 C202.935,276.59 202.935,300.647 202.935,300.647 C202.935,300.647 226.982,300.647 226.982,300.647 C226.982,300.647 226.982,326.119 226.982,326.119 C226.982,326.119 177.475,326.119 177.475,326.119 C177.475,326.119 177.475,300.647 177.475,300.647 C177.475,300.647 153.428,300.647 153.428,300.647 C153.428,300.647 153.428,350.176 153.428,350.176 C153.428,350.176 127.968,350.176 127.968,350.176 C127.968,350.176 127.968,275.174 127.968,275.174 C127.968,275.174 177.475,275.174 177.475,275.174 C177.475,275.174 177.475,251.117 177.475,251.117 C177.475,251.117 276.488,251.117 276.488,251.117 C276.488,251.117 276.488,225.645 276.488,225.645 C276.488,225.645 301.949,225.645 301.949,225.645 C301.949,225.645 301.949,201.588 301.949,201.588 C301.949,201.588 325.995,201.588 325.995,201.588 C325.995,201.588 325.995,176.116 325.995,176.116 C325.995,176.116 350.042,176.116 350.042,176.116 C350.042,176.116 350.042,150.644 350.042,150.644 C350.042,150.644 325.995,150.644 325.995,150.644 C325.995,150.644 325.995,101.114 325.995,101.114 C325.995,101.114 300.535,101.114 300.535,101.114 C300.535,101.114 300.535,77.057 300.535,77.057 C300.535,77.057 351.456,77.057 351.456,77.057 C351.456,77.057 351.456,53 351.456,53 C351.456,53 375.502,53 375.502,53 C375.502,53 375.502,77.057 375.502,77.057 C375.502,77.057 400.963,77.057 400.963,77.057 C400.963,77.057 400.963,101.114 400.963,101.114 C400.963,101.114 425.009,101.114 425.009,101.114 C425.009,101.114 425.009,53 425.009,53 C425.009,53 524.023,53 524.023,53 C524.023,53 524.023,77.057 524.023,77.057 C524.023,77.057 474.516,77.057 474.516,77.057 C474.516,77.057 474.516,126.586 474.516,126.586 C474.516,126.586 450.47,126.586 450.47,126.586 C450.47,126.586 450.47,176.116 450.47,176.116 C450.47,176.116 425.009,176.116 425.009,176.116 C425.009,176.116 425.009,150.644 425.009,150.644 C425.009,150.644 400.963,150.644 400.963,150.644 C400.963,150.644 400.963,126.586 400.963,126.586 C400.963,126.586 375.502,126.586 375.502,126.586 C375.502,126.586 375.502,176.116 375.502,176.116 C375.502,176.116 400.963,176.116 400.963,176.116 C400.963,176.116 400.963,201.588 400.963,201.588 C400.963,201.588 375.502,201.588 375.502,201.588 C375.502,201.588 375.502,225.645 375.502,225.645 C375.502,225.645 350.042,225.645 350.042,225.645 C350.042,225.645 350.042,201.588 350.042,201.588 C350.042,201.588 327.41,201.588 327.41,201.588 C327.41,201.588 327.41,227.06 327.41,227.06 C327.41,227.06 301.949,227.06 301.949,227.06 C301.949,227.06 301.949,275.174 301.949,275.174 C301.949,275.174 351.456,275.174 351.456,275.174 C351.456,275.174 351.456,251.117 351.456,251.117 C351.456,251.117 376.917,251.117 376.917,251.117 C376.917,251.117 376.917,275.174 376.917,275.174 C376.917,275.174 400.963,275.174 400.963,275.174 C400.963,275.174 400.963,201.588 400.963,201.588 C400.963,201.588 426.424,201.588 426.424,201.588 C426.424,201.588 426.424,251.117 426.424,251.117 C426.424,251.117 450.47,251.117 450.47,251.117 C450.47,251.117 450.47,300.647 450.47,300.647 C450.47,300.647 474.516,300.647 474.516,300.647 C474.516,300.647 474.516,324.704 474.516,324.704 C474.516,324.704 549.484,324.704 549.484,324.704 C549.484,324.704 549.484,276.59 549.484,276.59 C549.484,276.59 499.977,276.59 499.977,276.59 C499.977,276.59 499.977,300.647 499.977,300.647 C499.977,300.647 474.516,300.647 474.516,300.647 C474.516,300.647 474.516,249.702 474.516,249.702 C474.516,249.702 499.977,249.702 499.977,249.702 C499.977,249.702 499.977,201.588 499.977,201.588 C499.977,201.588 474.516,201.588 474.516,201.588 C474.516,201.588 474.516,176.116 474.516,176.116 C474.516,176.116 524.023,176.116 524.023,176.116 C524.023,176.116 524.023,152.059 524.023,152.059 C524.023,152.059 549.484,152.059 549.484,152.059 C549.484,152.059 549.484,177.531 549.484,177.531 C549.484,177.531 525.438,177.531 525.438,177.531 C525.438,177.531 525.438,225.645 525.438,225.645 C525.438,225.645 549.484,225.645 549.484,225.645 C549.484,225.645 549.484,251.117 549.484,251.117 C549.484,251.117 573.53,251.117 573.53,251.117 C573.53,251.117 573.53,225.645 573.53,225.645 C573.53,225.645 549.484,225.645 549.484,225.645 C549.484,225.645 549.484,200.173 549.484,200.173 C549.484,200.173 574.945,200.173 574.945,200.173 C574.945,200.173 574.945,225.645 574.945,225.645 C574.945,225.645 598.991,225.645 598.991,225.645 C598.991,225.645 598.991,251.117 598.991,251.117 C598.991,251.117 574.945,251.117 574.945,251.117 C574.945,251.117 574.945,300.647 574.945,300.647 C574.945,300.647 623.037,300.647 623.037,300.647 C623.037,300.647 623.037,276.59 623.037,276.59 C623.037,276.59 598.991,276.59 598.991,276.59 C598.991,276.59 598.991,251.117 598.991,251.117 C598.991,251.117 624.451,251.117 624.451,251.117 C624.451,251.117 624.451,275.174 624.451,275.174 C624.451,275.174 648.498,275.174 648.498,275.174 C648.498,275.174 648.498,201.588 648.498,201.588 C648.498,201.588 673.958,201.588 673.958,201.588 C673.958,201.588 673.958,276.59 673.958,276.59 C673.958,276.59 648.498,276.59 648.498,276.59 C648.498,276.59 648.498,299.232 648.498,299.232 C648.498,299.232 673.958,299.232 673.958,299.232 C673.958,299.232 673.958,372.818 673.958,372.818 C673.958,372.818 699.419,372.818 699.419,372.818 C699.419,372.818 699.419,399.705 699.419,399.705 C699.419,399.705 649.912,399.705 649.912,399.705 C649.912,399.705 649.912,447.819 649.912,447.819 C649.912,447.819 673.958,447.819 673.958,447.819 C673.958,447.819 673.958,498.764 673.958,498.764 C673.958,498.764 723.465,498.764 723.465,498.764 C723.465,498.764 723.465,449.235 723.465,449.235 C723.465,449.235 747.512,449.235 747.512,449.235 C747.512,449.235 747.512,423.762 747.512,423.762 C747.512,423.762 723.465,423.762 723.465,423.762 C723.465,423.762 723.465,449.235 723.465,449.235 C723.465,449.235 698.005,449.235 698.005,449.235 C698.005,449.235 698.005,423.762 698.005,423.762 C698.005,423.762 722.051,423.762 722.051,423.762 C722.051,423.762 722.051,374.233 722.051,374.233 C722.051,374.233 747.512,374.233 747.512,374.233 C747.512,374.233 747.512,398.29 747.512,398.29 C747.512,398.29 772.972,398.29 772.972,398.29 C772.972,398.29 772.972,350.176 772.972,350.176 C772.972,350.176 822.479,350.176 822.479,350.176 C822.479,350.176 822.479,374.233 822.479,374.233 C822.479,374.233 847.94,374.233 847.94,374.233 C847.94,374.233 847.94,399.705 847.94,399.705 C847.94,399.705 896.032,399.705 896.032,399.705 C896.032,399.705 896.032,374.233 896.032,374.233 C896.032,374.233 920.079,374.233 920.079,374.233 C920.079,374.233 920.079,350.176 920.079,350.176 C920.079,350.176 945.539,350.176 945.539,350.176 C945.539,350.176 945.539,324.704 945.539,324.704 C945.539,324.704 896.032,324.704 896.032,324.704 C896.032,324.704 896.032,374.233 896.032,374.233 C896.032,374.233 870.572,374.233 870.572,374.233 C870.572,374.233 870.572,350.176 870.572,350.176 C870.572,350.176 846.525,350.176 846.525,350.176 C846.525,350.176 846.525,302.062 846.525,302.062 C846.525,302.062 822.479,302.062 822.479,302.062 C822.479,302.062 822.479,326.119 822.479,326.119 C822.479,326.119 771.558,326.119 771.558,326.119 C771.558,326.119 771.558,302.062 771.558,302.062 C771.558,302.062 747.512,302.062 747.512,302.062 C747.512,302.062 747.512,326.119 747.512,326.119 C747.512,326.119 723.465,326.119 723.465,326.119 C723.465,326.119 723.465,350.176 723.465,350.176 C723.465,350.176 698.005,350.176 698.005,350.176 C698.005,350.176 698.005,324.704 698.005,324.704 C698.005,324.704 722.051,324.704 722.051,324.704 C722.051,324.704 722.051,275.174 722.051,275.174 C722.051,275.174 771.558,275.174 771.558,275.174 C771.558,275.174 771.558,251.117 771.558,251.117 C771.558,251.117 722.051,251.117 722.051,251.117 C722.051,251.117 722.051,227.06 722.051,227.06 C722.051,227.06 696.59,227.06 696.59,227.06 C696.59,227.06 696.59,201.588 696.59,201.588 C696.59,201.588 722.051,201.588 722.051,201.588 C722.051,201.588 722.051,225.645 722.051,225.645 C722.051,225.645 747.512,225.645 747.512,225.645 C747.512,225.645 747.512,176.116 747.512,176.116 C747.512,176.116 772.972,176.116 772.972,176.116 C772.972,176.116 772.972,249.702 772.972,249.702 C772.972,249.702 772.972,251.117 772.972,251.117 C772.972,251.117 797.018,251.117 797.018,251.117 C797.018,251.117 797.018,275.174 797.018,275.174 C797.018,275.174 821.065,275.174 821.065,275.174 C821.065,275.174 821.065,251.117 821.065,251.117 C821.065,251.117 945.539,251.117 945.539,251.117 C945.539,251.117 945.539,275.174 945.539,275.174 C945.539,275.174 971,275.174 971,275.174 C971,275.174 971,425.177 971,425.177 C971,425.177 945.539,425.177 945.539,425.177 C945.539,425.177 945.539,375.648 945.539,375.648 C945.539,375.648 921.493,375.648 921.493,375.648 C921.493,375.648 921.493,425.177 921.493,425.177 C921.493,425.177 896.032,425.177 896.032,425.177 C896.032,425.177 896.032,449.235 896.032,449.235 C896.032,449.235 870.572,449.235 870.572,449.235 C870.572,449.235 870.572,425.177 870.572,425.177 C870.572,425.177 847.94,425.177 847.94,425.177 C847.94,425.177 847.94,449.235 847.94,449.235 C847.94,449.235 822.479,449.235 822.479,449.235 C822.479,449.235 822.479,473.292 822.479,473.292 C822.479,473.292 846.525,473.292 846.525,473.292 C846.525,473.292 846.525,522.821 846.525,522.821 C846.525,522.821 896.032,522.821 896.032,522.821 C896.032,522.821 896.032,473.292 896.032,473.292 C896.032,473.292 920.079,473.292 920.079,473.292 C920.079,473.292 920.079,449.235 920.079,449.235 C920.079,449.235 945.539,449.235 945.539,449.235 C945.539,449.235 945.539,473.292 945.539,473.292 C945.539,473.292 971,473.292 971,473.292 C971,473.292 971,548.293 971,548.293 C971,548.293 945.539,548.293 945.539,548.293 C945.539,548.293 945.539,572.35 945.539,572.35 C945.539,572.35 971,572.35 971,572.35 C971,572.35 971,647.352 971,647.352 C971,647.352 945.539,647.352 945.539,647.352 C945.539,647.352 945.539,623.295 945.539,623.295 C945.539,623.295 921.493,623.295 921.493,623.295 C921.493,623.295 921.493,597.823 921.493,597.823 C921.493,597.823 920.079,597.823 920.079,597.823 C920.079,597.823 871.986,597.823 871.986,597.823 C871.986,597.823 871.986,621.88 871.986,621.88 C871.986,621.88 896.032,621.88 896.032,621.88 C896.032,621.88 896.032,647.352 896.032,647.352 C896.032,647.352 871.986,647.352 871.986,647.352 C871.986,647.352 871.986,671.409 871.986,671.409 C871.986,671.409 920.079,671.409 920.079,671.409 C920.079,671.409 920.079,647.352 920.079,647.352 C920.079,647.352 945.539,647.352 945.539,647.352 C945.539,647.352 945.539,671.409 945.539,671.409 C945.539,671.409 971,671.409 971,671.409 C971,671.409 971,746.41 971,746.41 C971,746.41 921.493,746.41 921.493,746.41 C921.493,746.41 921.493,722.353 921.493,722.353 C921.493,722.353 897.447,722.353 897.447,722.353 C897.447,722.353 897.447,746.41 897.447,746.41 C897.447,746.41 871.986,746.41 871.986,746.41 C871.986,746.41 871.986,720.938 871.986,720.938 C871.986,720.938 896.032,720.938 896.032,720.938 C896.032,720.938 896.032,696.881 896.032,696.881 C896.032,696.881 870.572,696.881 870.572,696.881 C870.572,696.881 870.572,672.824 870.572,672.824 C870.572,672.824 846.525,672.824 846.525,672.824 C846.525,672.824 846.525,648.767 846.525,648.767 C846.525,648.767 822.479,648.767 822.479,648.767 C822.479,648.767 822.479,672.824 822.479,672.824 C822.479,672.824 846.525,672.824 846.525,672.824 C846.525,672.824 846.525,722.353 846.525,722.353 C846.525,722.353 822.479,722.353 822.479,722.353 C822.479,722.353 822.479,746.41 822.479,746.41 C822.479,746.41 871.986,746.41 871.986,746.41 C871.986,746.41 871.986,770.468 871.986,770.468 C871.986,770.468 896.032,770.468 896.032,770.468 C896.032,770.468 896.032,795.94 896.032,795.94 C896.032,795.94 920.079,795.94 920.079,795.94 C920.079,795.94 920.079,770.468 920.079,770.468 C920.079,770.468 971,770.468 971,770.468 C971,770.468 971,821.412 971,821.412 C971,821.412 946.954,821.412 946.954,821.412 C946.954,821.412 946.954,870.941 946.954,870.941 C946.954,870.941 971,870.941 971,870.941 C971,870.941 971,920.471 971,920.471 C971,920.471 920.079,920.471 920.079,920.471 C920.079,920.471 920.079,896.414 920.079,896.414 ZM327.41,920.471 C327.41,920.471 327.41,944.528 327.41,944.528 C327.41,944.528 351.456,944.528 351.456,944.528 C351.456,944.528 351.456,920.471 351.456,920.471 C351.456,920.471 327.41,920.471 327.41,920.471 ZM425.009,870.941 C425.009,870.941 400.963,870.941 400.963,870.941 C400.963,870.941 400.963,894.998 400.963,894.998 C400.963,894.998 351.456,894.998 351.456,894.998 C351.456,894.998 351.456,919.056 351.456,919.056 C351.456,919.056 376.917,919.056 376.917,919.056 C376.917,919.056 376.917,944.528 376.917,944.528 C376.917,944.528 400.963,944.528 400.963,944.528 C400.963,944.528 400.963,920.471 400.963,920.471 C400.963,920.471 425.009,920.471 425.009,920.471 C425.009,920.471 425.009,870.941 425.009,870.941 ZM103.921,474.707 C103.921,474.707 79.875,474.707 79.875,474.707 C79.875,474.707 79.875,498.764 79.875,498.764 C79.875,498.764 103.921,498.764 103.921,498.764 C103.921,498.764 103.921,474.707 103.921,474.707 ZM153.428,524.236 C153.428,524.236 129.382,524.236 129.382,524.236 C129.382,524.236 129.382,572.35 129.382,572.35 C129.382,572.35 153.428,572.35 153.428,572.35 C153.428,572.35 153.428,524.236 153.428,524.236 ZM202.935,696.881 C202.935,696.881 226.982,696.881 226.982,696.881 C226.982,696.881 226.982,672.824 226.982,672.824 C226.982,672.824 202.935,672.824 202.935,672.824 C202.935,672.824 202.935,696.881 202.935,696.881 ZM202.935,623.295 C202.935,623.295 202.935,647.352 202.935,647.352 C202.935,647.352 226.982,647.352 226.982,647.352 C226.982,647.352 226.982,623.295 226.982,623.295 C226.982,623.295 202.935,623.295 202.935,623.295 ZM226.982,474.707 C226.982,474.707 178.889,474.707 178.889,474.707 C178.889,474.707 178.889,498.764 178.889,498.764 C178.889,498.764 226.982,498.764 226.982,498.764 C226.982,498.764 226.982,474.707 226.982,474.707 ZM228.396,524.236 C228.396,524.236 202.935,524.236 202.935,524.236 C202.935,524.236 202.935,548.293 202.935,548.293 C202.935,548.293 228.396,548.293 228.396,548.293 C228.396,548.293 228.396,524.236 228.396,524.236 ZM228.396,549.708 C228.396,549.708 228.396,572.35 228.396,572.35 C228.396,572.35 252.442,572.35 252.442,572.35 C252.442,572.35 252.442,549.708 252.442,549.708 C252.442,549.708 228.396,549.708 228.396,549.708 ZM276.488,474.707 C276.488,474.707 252.442,474.707 252.442,474.707 C252.442,474.707 252.442,498.764 252.442,498.764 C252.442,498.764 276.488,498.764 276.488,498.764 C276.488,498.764 276.488,474.707 276.488,474.707 ZM276.488,597.823 C276.488,597.823 252.442,597.823 252.442,597.823 C252.442,597.823 252.442,647.352 252.442,647.352 C252.442,647.352 276.488,647.352 276.488,647.352 C276.488,647.352 276.488,597.823 276.488,597.823 ZM374.088,375.648 C374.088,375.648 325.995,375.648 325.995,375.648 C325.995,375.648 325.995,423.762 325.995,423.762 C325.995,423.762 350.042,423.762 350.042,423.762 C350.042,423.762 350.042,399.705 350.042,399.705 C350.042,399.705 374.088,399.705 374.088,399.705 C374.088,399.705 374.088,375.648 374.088,375.648 ZM327.41,720.938 C327.41,720.938 351.456,720.938 351.456,720.938 C351.456,720.938 351.456,672.824 351.456,672.824 C351.456,672.824 327.41,672.824 327.41,672.824 C327.41,672.824 327.41,720.938 327.41,720.938 ZM400.963,648.767 C400.963,648.767 374.088,648.767 374.088,648.767 C374.088,648.767 374.088,623.295 374.088,623.295 C374.088,623.295 301.949,623.295 301.949,623.295 C301.949,623.295 301.949,671.409 301.949,671.409 C301.949,671.409 325.995,671.409 325.995,671.409 C325.995,671.409 325.995,647.352 325.995,647.352 C325.995,647.352 351.456,647.352 351.456,647.352 C351.456,647.352 351.456,671.409 351.456,671.409 C351.456,671.409 400.963,671.409 400.963,671.409 C400.963,671.409 400.963,648.767 400.963,648.767 ZM449.055,648.767 C449.055,648.767 426.424,648.767 426.424,648.767 C426.424,648.767 426.424,671.409 426.424,671.409 C426.424,671.409 449.055,671.409 449.055,671.409 C449.055,671.409 449.055,648.767 449.055,648.767 ZM449.055,696.881 C449.055,696.881 425.009,696.881 425.009,696.881 C425.009,696.881 425.009,672.824 425.009,672.824 C425.009,672.824 400.963,672.824 400.963,672.824 C400.963,672.824 400.963,696.881 400.963,696.881 C400.963,696.881 376.917,696.881 376.917,696.881 C376.917,696.881 376.917,720.938 376.917,720.938 C376.917,720.938 449.055,720.938 449.055,720.938 C449.055,720.938 449.055,696.881 449.055,696.881 ZM797.018,276.59 C797.018,276.59 771.558,276.59 771.558,276.59 C771.558,276.59 771.558,299.232 771.558,299.232 C771.558,299.232 797.018,299.232 797.018,299.232 C797.018,299.232 797.018,276.59 797.018,276.59 ZM870.572,276.59 C870.572,276.59 846.525,276.59 846.525,276.59 C846.525,276.59 846.525,299.232 846.525,299.232 C846.525,299.232 870.572,299.232 870.572,299.232 C870.572,299.232 870.572,276.59 870.572,276.59 ZM945.539,276.59 C945.539,276.59 896.032,276.59 896.032,276.59 C896.032,276.59 896.032,299.232 896.032,299.232 C896.032,299.232 945.539,299.232 945.539,299.232 C945.539,299.232 945.539,276.59 945.539,276.59 ZM549.484,919.056 C549.484,919.056 573.53,919.056 573.53,919.056 C573.53,919.056 573.53,894.998 573.53,894.998 C573.53,894.998 549.484,894.998 549.484,894.998 C549.484,894.998 549.484,919.056 549.484,919.056 ZM450.47,920.471 C450.47,920.471 474.516,920.471 474.516,920.471 C474.516,920.471 474.516,894.998 474.516,894.998 C474.516,894.998 499.977,894.998 499.977,894.998 C499.977,894.998 499.977,920.471 499.977,920.471 C499.977,920.471 524.023,920.471 524.023,920.471 C524.023,920.471 524.023,869.526 524.023,869.526 C524.023,869.526 573.53,869.526 573.53,869.526 C573.53,869.526 573.53,845.469 573.53,845.469 C573.53,845.469 598.991,845.469 598.991,845.469 C598.991,845.469 598.991,894.998 598.991,894.998 C598.991,894.998 648.498,894.998 648.498,894.998 C648.498,894.998 648.498,920.471 648.498,920.471 C648.498,920.471 672.544,920.471 672.544,920.471 C672.544,920.471 672.544,894.998 672.544,894.998 C672.544,894.998 698.005,894.998 698.005,894.998 C698.005,894.998 698.005,920.471 698.005,920.471 C698.005,920.471 723.465,920.471 723.465,920.471 C723.465,920.471 723.465,944.528 723.465,944.528 C723.465,944.528 747.512,944.528 747.512,944.528 C747.512,944.528 747.512,896.414 747.512,896.414 C747.512,896.414 723.465,896.414 723.465,896.414 C723.465,896.414 723.465,870.941 723.465,870.941 C723.465,870.941 698.005,870.941 698.005,870.941 C698.005,870.941 698.005,821.412 698.005,821.412 C698.005,821.412 673.958,821.412 673.958,821.412 C673.958,821.412 673.958,870.941 673.958,870.941 C673.958,870.941 623.037,870.941 623.037,870.941 C623.037,870.941 623.037,795.94 623.037,795.94 C623.037,795.94 598.991,795.94 598.991,795.94 C598.991,795.94 598.991,771.883 598.991,771.883 C598.991,771.883 574.945,771.883 574.945,771.883 C574.945,771.883 574.945,795.94 574.945,795.94 C574.945,795.94 598.991,795.94 598.991,795.94 C598.991,795.94 598.991,821.412 598.991,821.412 C598.991,821.412 573.53,821.412 573.53,821.412 C573.53,821.412 573.53,795.94 573.53,795.94 C573.53,795.94 524.023,795.94 524.023,795.94 C524.023,795.94 524.023,846.884 524.023,846.884 C524.023,846.884 499.977,846.884 499.977,846.884 C499.977,846.884 499.977,870.941 499.977,870.941 C499.977,870.941 450.47,870.941 450.47,870.941 C450.47,870.941 450.47,920.471 450.47,920.471 ZM450.47,821.412 C450.47,821.412 450.47,845.469 450.47,845.469 C450.47,845.469 426.424,845.469 426.424,845.469 C426.424,845.469 426.424,869.526 426.424,869.526 C426.424,869.526 450.47,869.526 450.47,869.526 C450.47,869.526 450.47,845.469 450.47,845.469 C450.47,845.469 474.516,845.469 474.516,845.469 C474.516,845.469 474.516,821.412 474.516,821.412 C474.516,821.412 450.47,821.412 450.47,821.412 ZM499.977,795.94 C499.977,795.94 499.977,771.883 499.977,771.883 C499.977,771.883 474.516,771.883 474.516,771.883 C474.516,771.883 474.516,795.94 474.516,795.94 C474.516,795.94 499.977,795.94 499.977,795.94 ZM499.977,350.176 C499.977,350.176 474.516,350.176 474.516,350.176 C474.516,350.176 474.516,372.818 474.516,372.818 C474.516,372.818 499.977,372.818 499.977,372.818 C499.977,372.818 499.977,350.176 499.977,350.176 ZM648.498,300.647 C648.498,300.647 624.451,300.647 624.451,300.647 C624.451,300.647 624.451,350.176 624.451,350.176 C624.451,350.176 648.498,350.176 648.498,350.176 C648.498,350.176 648.498,300.647 648.498,300.647 ZM648.498,648.767 C648.498,648.767 624.451,648.767 624.451,648.767 C624.451,648.767 624.451,672.824 624.451,672.824 C624.451,672.824 573.53,672.824 573.53,672.824 C573.53,672.824 573.53,648.767 573.53,648.767 C573.53,648.767 549.484,648.767 549.484,648.767 C549.484,648.767 549.484,672.824 549.484,672.824 C549.484,672.824 525.438,672.824 525.438,672.824 C525.438,672.824 525.438,722.353 525.438,722.353 C525.438,722.353 499.977,722.353 499.977,722.353 C499.977,722.353 499.977,671.409 499.977,671.409 C499.977,671.409 524.023,671.409 524.023,671.409 C524.023,671.409 524.023,648.767 524.023,648.767 C524.023,648.767 474.516,648.767 474.516,648.767 C474.516,648.767 474.516,746.41 474.516,746.41 C474.516,746.41 499.977,746.41 499.977,746.41 C499.977,746.41 499.977,770.468 499.977,770.468 C499.977,770.468 548.069,770.468 548.069,770.468 C548.069,770.468 548.069,746.41 548.069,746.41 C548.069,746.41 573.53,746.41 573.53,746.41 C573.53,746.41 573.53,696.881 573.53,696.881 C573.53,696.881 624.451,696.881 624.451,696.881 C624.451,696.881 624.451,720.938 624.451,720.938 C624.451,720.938 648.498,720.938 648.498,720.938 C648.498,720.938 648.498,648.767 648.498,648.767 ZM672.544,498.764 C672.544,498.764 649.912,498.764 649.912,498.764 C649.912,498.764 649.912,522.821 649.912,522.821 C649.912,522.821 672.544,522.821 672.544,522.821 C672.544,522.821 672.544,498.764 672.544,498.764 ZM672.544,548.293 C672.544,548.293 649.912,548.293 649.912,548.293 C649.912,548.293 649.912,572.35 649.912,572.35 C649.912,572.35 672.544,572.35 672.544,572.35 C672.544,572.35 672.544,548.293 672.544,548.293 ZM649.912,623.295 C649.912,623.295 649.912,647.352 649.912,647.352 C649.912,647.352 698.005,647.352 698.005,647.352 C698.005,647.352 698.005,671.409 698.005,671.409 C698.005,671.409 747.512,671.409 747.512,671.409 C747.512,671.409 747.512,722.353 747.512,722.353 C747.512,722.353 723.465,722.353 723.465,722.353 C723.465,722.353 723.465,746.41 723.465,746.41 C723.465,746.41 698.005,746.41 698.005,746.41 C698.005,746.41 698.005,722.353 698.005,722.353 C698.005,722.353 673.958,722.353 673.958,722.353 C673.958,722.353 673.958,746.41 673.958,746.41 C673.958,746.41 623.037,746.41 623.037,746.41 C623.037,746.41 623.037,722.353 623.037,722.353 C623.037,722.353 598.991,722.353 598.991,722.353 C598.991,722.353 598.991,770.468 598.991,770.468 C598.991,770.468 624.451,770.468 624.451,770.468 C624.451,770.468 624.451,795.94 624.451,795.94 C624.451,795.94 648.498,795.94 648.498,795.94 C648.498,795.94 648.498,819.997 648.498,819.997 C648.498,819.997 673.958,819.997 673.958,819.997 C673.958,819.997 673.958,795.94 673.958,795.94 C673.958,795.94 648.498,795.94 648.498,795.94 C648.498,795.94 648.498,770.468 648.498,770.468 C648.498,770.468 699.419,770.468 699.419,770.468 C699.419,770.468 699.419,819.997 699.419,819.997 C699.419,819.997 723.465,819.997 723.465,819.997 C723.465,819.997 723.465,845.469 723.465,845.469 C723.465,845.469 747.512,845.469 747.512,845.469 C747.512,845.469 747.512,797.355 747.512,797.355 C747.512,797.355 723.465,797.355 723.465,797.355 C723.465,797.355 723.465,746.41 723.465,746.41 C723.465,746.41 797.018,746.41 797.018,746.41 C797.018,746.41 797.018,722.353 797.018,722.353 C797.018,722.353 821.065,722.353 821.065,722.353 C821.065,722.353 821.065,672.824 821.065,672.824 C821.065,672.824 797.018,672.824 797.018,672.824 C797.018,672.824 797.018,647.352 797.018,647.352 C797.018,647.352 821.065,647.352 821.065,647.352 C821.065,647.352 821.065,623.295 821.065,623.295 C821.065,623.295 797.018,623.295 797.018,623.295 C797.018,623.295 797.018,647.352 797.018,647.352 C797.018,647.352 698.005,647.352 698.005,647.352 C698.005,647.352 698.005,623.295 698.005,623.295 C698.005,623.295 649.912,623.295 649.912,623.295 ZM673.958,672.824 C673.958,672.824 673.958,696.881 673.958,696.881 C673.958,696.881 698.005,696.881 698.005,696.881 C698.005,696.881 698.005,720.938 698.005,720.938 C698.005,720.938 722.051,720.938 722.051,720.938 C722.051,720.938 722.051,696.881 722.051,696.881 C722.051,696.881 698.005,696.881 698.005,696.881 C698.005,696.881 698.005,672.824 698.005,672.824 C698.005,672.824 673.958,672.824 673.958,672.824 ZM797.018,522.821 C797.018,522.821 821.065,522.821 821.065,522.821 C821.065,522.821 821.065,498.764 821.065,498.764 C821.065,498.764 797.018,498.764 797.018,498.764 C797.018,498.764 797.018,522.821 797.018,522.821 ZM772.972,524.236 C772.972,524.236 772.972,546.878 772.972,546.878 C772.972,546.878 797.018,546.878 797.018,546.878 C797.018,546.878 797.018,524.236 797.018,524.236 C797.018,524.236 772.972,524.236 772.972,524.236 ZM747.512,549.708 C747.512,549.708 723.465,549.708 723.465,549.708 C723.465,549.708 723.465,524.236 723.465,524.236 C723.465,524.236 698.005,524.236 698.005,524.236 C698.005,524.236 698.005,621.88 698.005,621.88 C698.005,621.88 722.051,621.88 722.051,621.88 C722.051,621.88 722.051,572.35 722.051,572.35 C722.051,572.35 747.512,572.35 747.512,572.35 C747.512,572.35 747.512,549.708 747.512,549.708 ZM771.558,597.823 C771.558,597.823 771.558,573.765 771.558,573.765 C771.558,573.765 747.512,573.765 747.512,573.765 C747.512,573.765 747.512,621.88 747.512,621.88 C747.512,621.88 797.018,621.88 797.018,621.88 C797.018,621.88 797.018,597.823 797.018,597.823 C797.018,597.823 771.558,597.823 771.558,597.823 ZM772.972,473.292 C772.972,473.292 797.018,473.292 797.018,473.292 C797.018,473.292 797.018,449.235 797.018,449.235 C797.018,449.235 772.972,449.235 772.972,449.235 C772.972,449.235 772.972,473.292 772.972,473.292 ZM797.018,425.177 C797.018,425.177 797.018,447.819 797.018,447.819 C797.018,447.819 822.479,447.819 822.479,447.819 C822.479,447.819 822.479,425.177 822.479,425.177 C822.479,425.177 797.018,425.177 797.018,425.177 ZM846.525,423.762 C846.525,423.762 846.525,399.705 846.525,399.705 C846.525,399.705 822.479,399.705 822.479,399.705 C822.479,399.705 822.479,423.762 822.479,423.762 C822.479,423.762 846.525,423.762 846.525,423.762 ZM921.493,522.821 C921.493,522.821 945.539,522.821 945.539,522.821 C945.539,522.821 945.539,474.707 945.539,474.707 C945.539,474.707 921.493,474.707 921.493,474.707 C921.493,474.707 921.493,522.821 921.493,522.821 ZM896.032,572.35 C896.032,572.35 920.079,572.35 920.079,572.35 C920.079,572.35 920.079,524.236 920.079,524.236 C920.079,524.236 896.032,524.236 896.032,524.236 C896.032,524.236 896.032,572.35 896.032,572.35 ZM921.493,720.938 C921.493,720.938 945.539,720.938 945.539,720.938 C945.539,720.938 945.539,696.881 945.539,696.881 C945.539,696.881 921.493,696.881 921.493,696.881 C921.493,696.881 921.493,720.938 921.493,720.938 ZM846.525,647.352 C846.525,647.352 870.572,647.352 870.572,647.352 C870.572,647.352 870.572,623.295 870.572,623.295 C870.572,623.295 846.525,623.295 846.525,623.295 C846.525,623.295 846.525,647.352 846.525,647.352 ZM846.525,572.35 C846.525,572.35 846.525,597.823 846.525,597.823 C846.525,597.823 870.572,597.823 870.572,597.823 C870.572,597.823 870.572,548.293 870.572,548.293 C870.572,548.293 822.479,548.293 822.479,548.293 C822.479,548.293 822.479,572.35 822.479,572.35 C822.479,572.35 846.525,572.35 846.525,572.35 ZM945.539,795.94 C945.539,795.94 921.493,795.94 921.493,795.94 C921.493,795.94 921.493,819.997 921.493,819.997 C921.493,819.997 945.539,819.997 945.539,819.997 C945.539,819.997 945.539,795.94 945.539,795.94 ZM771.558,696.881 C771.558,696.881 797.018,696.881 797.018,696.881 C797.018,696.881 797.018,722.353 797.018,722.353 C797.018,722.353 771.558,722.353 771.558,722.353 C771.558,722.353 771.558,696.881 771.558,696.881 ZM327.41,548.293 C327.41,548.293 301.949,548.293 301.949,548.293 C301.949,548.293 301.949,498.764 301.949,498.764 C301.949,498.764 327.41,498.764 327.41,498.764 C327.41,498.764 327.41,548.293 327.41,548.293 ZM252.442,326.119 C252.442,326.119 252.442,300.647 252.442,300.647 C252.442,300.647 301.949,300.647 301.949,300.647 C301.949,300.647 301.949,326.119 301.949,326.119 C301.949,326.119 252.442,326.119 252.442,326.119 ZM376.917,819.997 C376.917,819.997 376.917,845.469 376.917,845.469 C376.917,845.469 351.456,845.469 351.456,845.469 C351.456,845.469 351.456,821.412 351.456,821.412 C351.456,821.412 325.995,821.412 325.995,821.412 C325.995,821.412 325.995,795.94 325.995,795.94 C325.995,795.94 351.456,795.94 351.456,795.94 C351.456,795.94 351.456,819.997 351.456,819.997 C351.456,819.997 376.917,819.997 376.917,819.997 ZM102.507,375.648 C102.507,375.648 102.507,350.176 102.507,350.176 C102.507,350.176 127.968,350.176 127.968,350.176 C127.968,350.176 127.968,375.648 127.968,375.648 C127.968,375.648 102.507,375.648 102.507,375.648 ZM102.507,249.702 C102.507,249.702 127.968,249.702 127.968,249.702 C127.968,249.702 127.968,275.174 127.968,275.174 C127.968,275.174 102.507,275.174 102.507,275.174 C102.507,275.174 102.507,249.702 102.507,249.702 ZM252.442,77.057 C252.442,77.057 276.488,77.057 276.488,77.057 C276.488,77.057 276.488,102.529 276.488,102.529 C276.488,102.529 300.535,102.529 300.535,102.529 C300.535,102.529 300.535,152.059 300.535,152.059 C300.535,152.059 276.488,152.059 276.488,152.059 C276.488,152.059 276.488,225.645 276.488,225.645 C276.488,225.645 252.442,225.645 252.442,225.645 C252.442,225.645 252.442,77.057 252.442,77.057 ZM498.562,101.114 C498.562,101.114 548.069,101.114 548.069,101.114 C548.069,101.114 548.069,126.586 548.069,126.586 C548.069,126.586 499.977,126.586 499.977,126.586 C499.977,126.586 499.977,152.059 499.977,152.059 C499.977,152.059 474.516,152.059 474.516,152.059 C474.516,152.059 474.516,126.586 474.516,126.586 C474.516,126.586 498.562,126.586 498.562,126.586 C498.562,126.586 498.562,101.114 498.562,101.114 ZM573.53,53 C573.53,53 573.53,75.642 573.53,75.642 C573.53,75.642 623.037,75.642 623.037,75.642 C623.037,75.642 623.037,53 623.037,53 C623.037,53 648.498,53 648.498,53 C648.498,53 648.498,77.057 648.498,77.057 C648.498,77.057 623.037,77.057 623.037,77.057 C623.037,77.057 623.037,101.114 623.037,101.114 C623.037,101.114 598.991,101.114 598.991,101.114 C598.991,101.114 598.991,126.586 598.991,126.586 C598.991,126.586 648.498,126.586 648.498,126.586 C648.498,126.586 648.498,152.059 648.498,152.059 C648.498,152.059 573.53,152.059 573.53,152.059 C573.53,152.059 573.53,101.114 573.53,101.114 C573.53,101.114 548.069,101.114 548.069,101.114 C548.069,101.114 548.069,53 548.069,53 C548.069,53 573.53,53 573.53,53 ZM672.544,101.114 C672.544,101.114 648.498,101.114 648.498,101.114 C648.498,101.114 648.498,77.057 648.498,77.057 C648.498,77.057 672.544,77.057 672.544,77.057 C672.544,77.057 672.544,101.114 672.544,101.114 ZM723.465,101.114 C723.465,101.114 723.465,152.059 723.465,152.059 C723.465,152.059 698.005,152.059 698.005,152.059 C698.005,152.059 698.005,126.586 698.005,126.586 C698.005,126.586 672.544,126.586 672.544,126.586 C672.544,126.586 672.544,101.114 672.544,101.114 C672.544,101.114 723.465,101.114 723.465,101.114 ZM672.544,176.116 C672.544,176.116 648.498,176.116 648.498,176.116 C648.498,176.116 648.498,152.059 648.498,152.059 C648.498,152.059 672.544,152.059 672.544,152.059 C672.544,152.059 672.544,176.116 672.544,176.116 ZM449.055,227.06 C449.055,227.06 449.055,201.588 449.055,201.588 C449.055,201.588 474.516,201.588 474.516,201.588 C474.516,201.588 474.516,227.06 474.516,227.06 C474.516,227.06 449.055,227.06 449.055,227.06 ZM624.451,200.173 C624.451,200.173 624.451,225.645 624.451,225.645 C624.451,225.645 598.991,225.645 598.991,225.645 C598.991,225.645 598.991,200.173 598.991,200.173 C598.991,200.173 624.451,200.173 624.451,200.173 ZM797.018,225.645 C797.018,225.645 797.018,53 797.018,53 C797.018,53 971,53 971,53 C971,53 971,225.645 971,225.645 C971,225.645 797.018,225.645 797.018,225.645 ZM945.539,78.472 C945.539,78.472 822.479,78.472 822.479,78.472 C822.479,78.472 822.479,200.173 822.479,200.173 C822.479,200.173 945.539,200.173 945.539,200.173 C945.539,200.173 945.539,78.472 945.539,78.472 ZM921.493,176.116 C921.493,176.116 847.94,176.116 847.94,176.116 C847.94,176.116 847.94,102.529 847.94,102.529 C847.94,102.529 921.493,102.529 921.493,102.529 C921.493,102.529 921.493,176.116 921.493,176.116 ZM747.512,77.057 C747.512,77.057 772.972,77.057 772.972,77.057 C772.972,77.057 772.972,152.059 772.972,152.059 C772.972,152.059 747.512,152.059 747.512,152.059 C747.512,152.059 747.512,77.057 747.512,77.057 ZM698.005,53 C698.005,53 722.051,53 722.051,53 C722.051,53 722.051,77.057 722.051,77.057 C722.051,77.057 698.005,77.057 698.005,77.057 C698.005,77.057 698.005,53 698.005,53 ZM53,225.645 C53,225.645 53,53 53,53 C53,53 226.982,53 226.982,53 C226.982,53 226.982,225.645 226.982,225.645 C226.982,225.645 53,225.645 53,225.645 ZM201.521,78.472 C201.521,78.472 78.461,78.472 78.461,78.472 C78.461,78.472 78.461,200.173 78.461,200.173 C78.461,200.173 201.521,200.173 201.521,200.173 C201.521,200.173 201.521,78.472 201.521,78.472 ZM177.475,176.116 C177.475,176.116 103.921,176.116 103.921,176.116 C103.921,176.116 103.921,102.529 103.921,102.529 C103.921,102.529 177.475,102.529 177.475,102.529 C177.475,102.529 177.475,176.116 177.475,176.116 ZM129.382,720.938 C129.382,720.938 129.382,771.883 129.382,771.883 C129.382,771.883 54.415,771.883 54.415,771.883 C54.415,771.883 54.415,746.41 54.415,746.41 C54.415,746.41 103.921,746.41 103.921,746.41 C103.921,746.41 103.921,722.353 103.921,722.353 C103.921,722.353 54.415,722.353 54.415,722.353 C54.415,722.353 54.415,696.881 54.415,696.881 C54.415,696.881 103.921,696.881 103.921,696.881 C103.921,696.881 103.921,672.824 103.921,672.824 C103.921,672.824 129.382,672.824 129.382,672.824 C129.382,672.824 129.382,698.296 129.382,698.296 C129.382,698.296 103.921,698.296 103.921,698.296 C103.921,698.296 103.921,720.938 103.921,720.938 C103.921,720.938 129.382,720.938 129.382,720.938 ZM78.461,647.352 C78.461,647.352 103.921,647.352 103.921,647.352 C103.921,647.352 103.921,672.824 103.921,672.824 C103.921,672.824 78.461,672.824 78.461,672.824 C78.461,672.824 78.461,647.352 78.461,647.352 ZM129.382,621.88 C129.382,621.88 129.382,647.352 129.382,647.352 C129.382,647.352 103.921,647.352 103.921,647.352 C103.921,647.352 103.921,621.88 103.921,621.88 C103.921,621.88 129.382,621.88 129.382,621.88 ZM202.935,746.41 C202.935,746.41 228.396,746.41 228.396,746.41 C228.396,746.41 228.396,771.883 228.396,771.883 C228.396,771.883 202.935,771.883 202.935,771.883 C202.935,771.883 202.935,746.41 202.935,746.41 ZM226.982,797.355 C226.982,797.355 226.982,970 226.982,970 C226.982,970 53,970 53,970 C53,970 53,797.355 53,797.355 C53,797.355 226.982,797.355 226.982,797.355 ZM78.461,944.528 C78.461,944.528 201.521,944.528 201.521,944.528 C201.521,944.528 201.521,822.827 201.521,822.827 C201.521,822.827 78.461,822.827 78.461,822.827 C78.461,822.827 78.461,944.528 78.461,944.528 ZM103.921,846.884 C103.921,846.884 177.475,846.884 177.475,846.884 C177.475,846.884 177.475,920.471 177.475,920.471 C177.475,920.471 103.921,920.471 103.921,920.471 C103.921,920.471 103.921,846.884 103.921,846.884 Z "/><path stroke="rgb( 13, 4, 8 )" stroke-width="0px" stroke-linecap="butt" stroke-linejoin="miter" fill="rgb( 255, 255, 255 )" d="M455.658,512 C455.658,512 460.5,503.392 460.5,503.392 C460.5,503.392 470.184,503.392 470.184,503.392 C470.184,503.392 475.026,511.779 475.026,511.779 C475.026,511.779 470.184,520.387 470.184,520.387 C470.184,520.387 460.5,520.387 460.5,520.387 C460.5,520.387 455.658,512 455.658,512 ZM530.487,561 C530.487,561 516.842,537.383 516.842,537.383 C516.842,537.383 526.526,520.608 526.526,520.608 C526.526,520.608 540.171,544.005 540.171,544.005 C540.171,544.005 577.145,544.005 577.145,544.005 C577.145,544.005 595.632,512 595.632,512 C595.632,512 577.145,479.995 577.145,479.995 C577.145,479.995 540.171,479.995 540.171,479.995 C540.171,479.995 493.513,561 493.513,561 C493.513,561 437.171,561 437.171,561 C437.171,561 409,512 409,512 C409,512 437.171,463 437.171,463 C437.171,463 493.513,463 493.513,463 C493.513,463 507.158,486.617 507.158,486.617 C507.158,486.617 497.474,503.392 497.474,503.392 C497.474,503.392 483.829,479.995 483.829,479.995 C483.829,479.995 446.855,479.995 446.855,479.995 C446.855,479.995 428.368,512 428.368,512 C428.368,512 446.855,544.005 446.855,544.005 C446.855,544.005 483.829,544.005 483.829,544.005 C483.829,544.005 530.487,463 530.487,463 C530.487,463 586.829,463 586.829,463 C586.829,463 615,512 615,512 C615,512 586.829,561 586.829,561 C586.829,561 530.487,561 530.487,561 ZM609.938,544.005 C609.938,544.005 615,552.392 615,552.392 C615,552.392 610.158,561 610.158,561 C610.158,561 600.254,561 600.254,561 C600.254,561 595.412,552.392 595.412,552.392 C595.412,552.392 600.254,544.005 600.254,544.005 C600.254,544.005 609.938,544.005 609.938,544.005 Z "/></svg>