<?xml version="1.0" encoding="utf-8"?><!DOCTYPE svg PUBLIC "-//W3C//DTD SVG 1.1//EN" "http://www.w3.org/Graphics/SVG/1.1/DTD/svg11.dtd"><svg version="1.1" baseProfile="full" xmlns="http://www.w3.org/2000/svg" xmlns:xlink="http://www.w3.org/1999/xlink" xmlns:ev="http://www.w3.org/2001/xml-events"   height="340px"   width="340px" ><path fill="rgb( 68, 203, 131 )" d="M170,0 C263.888,0 340,76.112 340,170 C340,263.888 263.888,340 170,340 C76.112,340 0,263.888 0,170 C0,76.112 76.112,0 170,0 Z "/><path stroke="rgb( 14, 5, 10 )" stroke-width="0px" stroke-linecap="butt" stroke-linejoin="miter" fill="rgb( 255, 255, 255 )" d="M87,58 C87,58 253,58 253,58 C254.657,58 256,59.343 256,61 C256,61 256,279 256,279 C256,280.657 254.657,282 253,282 C253,282 87,282 87,282 C85.343,282 84,280.657 84,279 C84,279 84,61 84,61 C84,59.343 85.343,58 87,58 Z "/><path stroke="rgb( 14, 5, 10 )" stroke-width="0px" stroke-linecap="butt" stroke-linejoin="miter" fill="rgb( 0, 194, 242 )" d="M129,139 C129,139 211,139 211,139 C212.657,139 214,140.343 214,142 C214,142 214,224 214,224 C214,225.657 212.657,227 211,227 C211,227 129,227 129,227 C127.343,227 126,225.657 126,224 C126,224 126,142 126,142 C126,140.343 127.343,139 129,139 Z "/><path stroke="rgb( 14, 5, 10 )" stroke-width="0px" stroke-linecap="butt" stroke-linejoin="miter" fill="rgb( 255, 255, 255 )" d="M145,208 C145,208 145,208 145,208 C145,198.875 149.89,190.896 157.191,186.53 C160.543,189.669 165.046,191.594 170,191.594 C174.954,191.594 179.457,189.669 182.809,186.53 C190.11,190.896 195,198.875 195,208 C195,208 195,208 195,208 C195,208 145,208 145,208 ZM184.063,172.063 C184.063,179.829 177.767,186.125 170,186.125 C162.233,186.125 155.937,179.829 155.937,172.063 C155.937,164.296 162.233,158 170,158 C177.767,158 184.063,164.296 184.063,172.063 Z "/><path stroke="rgb( 14, 5, 10 )" stroke-width="0px" stroke-linecap="butt" stroke-linejoin="miter" fill="rgb( 234, 31, 100 )" d="M87,58 C87,58 253,58 253,58 C254.657,58 256,59.343 256,61 C256,61 256,116 256,116 C256,116 84,116 84,116 C84,116 84,61 84,61 C84,59.343 85.343,58 87,58 Z "/></svg>