<?xml version="1.0" encoding="utf-8"?><!DOCTYPE svg PUBLIC "-//W3C//DTD SVG 1.1//EN" "http://www.w3.org/Graphics/SVG/1.1/DTD/svg11.dtd"><svg version="1.1" baseProfile="full" xmlns="http://www.w3.org/2000/svg" xmlns:xlink="http://www.w3.org/1999/xlink" xmlns:ev="http://www.w3.org/2001/xml-events"   height="251px"   width="404px" ><path fill="rgb( 244, 246, 246 )" d="M173.375,46.717 C173.375,46.717 97.8819999999999,46.717 97.8819999999999,46.717 C100.419,46.717 102.476,48.77 102.476,51.302 C102.476,51.302 102.476,52.449 102.476,52.449 C102.476,54.981 100.419,57.034 97.8819999999999,57.034 C97.8819999999999,57.034 30.12,57.034 30.12,57.034 C27.583,57.034 25.526,54.981 25.526,52.449 C25.526,52.449 25.526,51.302 25.526,51.302 C25.526,48.77 27.583,46.717 30.12,46.717 C30.12,46.717 80.963,46.717 80.963,46.717 C78.89,46.717 77.2089999999999,45.0359999999999 77.2089999999999,42.962 C77.2089999999999,42.962 77.2089999999999,40.153 77.2089999999999,40.153 C77.2089999999999,38.08 78.89,36.399 80.963,36.399 C80.963,36.399 173.375,36.399 173.375,36.399 C175.448,36.399 177.129,38.08 177.129,40.153 C177.129,40.153 177.129,42.962 177.129,42.962 C177.129,45.0359999999999 175.448,46.717 173.375,46.717 ZM113.961,26.081 C113.961,26.081 103.665,26.081 103.665,26.081 C104.793,26.788 105.549,28.034 105.549,29.4640000000001 C105.549,29.4640000000001 105.549,32.377 105.549,32.377 C105.549,34.586 103.759,36.377 101.55,36.377 C101.55,36.377 4,36.377 4,36.377 C1.79100000000005,36.377 0,34.586 0,32.377 C0,32.377 0,29.4640000000001 0,29.4640000000001 C0,27.255 1.79100000000005,25.4640000000001 4,25.4640000000001 C4,25.4640000000001 73.765,25.4640000000001 73.765,25.4640000000001 C72.3920000000001,24.671 71.466,23.193 71.466,21.495 C71.466,21.495 71.466,20.349 71.466,20.349 C71.466,17.816 73.523,15.763 76.0599999999999,15.763 C76.0599999999999,15.763 113.961,15.763 113.961,15.763 C116.498,15.763 118.555,17.816 118.555,20.349 C118.555,20.349 118.555,21.495 118.555,21.495 C118.555,24.028 116.498,26.081 113.961,26.081 ZM99.8440000000001,70.328 C99.8440000000001,70.328 110.042,70.328 110.042,70.328 C112.251,70.328 114.042,72.119 114.042,74.329 C114.042,74.329 114.042,77.242 114.042,77.242 C114.042,79.451 112.251,81.241 110.042,81.241 C110.042,81.241 99.8440000000001,81.241 99.8440000000001,81.241 C97.635,81.241 95.8440000000001,79.451 95.8440000000001,77.242 C95.8440000000001,77.242 95.8440000000001,74.329 95.8440000000001,74.329 C95.8440000000001,72.119 97.635,70.328 99.8440000000001,70.328 Z "/><path fill="rgb( 255, 255, 255 )" d="M39.617,36.399 C39.617,36.399 79.197,36.399 79.197,36.399 C81.271,36.399 82.951,38.08 82.951,40.153 C82.951,40.153 82.951,42.962 82.951,42.962 C82.951,45.0359999999999 81.271,46.717 79.197,46.717 C79.197,46.717 39.617,46.717 39.617,46.717 C37.544,46.717 35.8630000000001,45.0359999999999 35.8630000000001,42.962 C35.8630000000001,42.962 35.8630000000001,40.153 35.8630000000001,40.153 C35.8630000000001,38.08 37.544,36.399 39.617,36.399 Z "/><path fill="rgb( 244, 246, 246 )" d="M400,90.942 C400,90.942 328.42,90.942 328.42,90.942 C330.63,90.942 332.42,92.7329999999999 332.42,94.942 C332.42,94.942 332.42,97.855 332.42,97.855 C332.42,100.064 330.63,101.855 328.42,101.855 C328.42,101.855 286.679,101.855 286.679,101.855 C284.47,101.855 282.679,100.064 282.679,97.855 C282.679,97.855 282.679,94.942 282.679,94.942 C282.679,92.7329999999999 284.47,90.942 286.679,90.942 C286.679,90.942 309.73,90.942 309.73,90.942 C307.521,90.942 305.73,89.151 305.73,86.942 C305.73,86.942 305.73,84.029 305.73,84.029 C305.73,81.8200000000001 307.521,80.029 309.73,80.029 C309.73,80.029 400,80.029 400,80.029 C402.209,80.029 404,81.8200000000001 404,84.029 C404,84.029 404,86.942 404,86.942 C404,89.151 402.209,90.942 400,90.942 ZM378.162,69.116 C378.162,69.116 331.303,69.116 331.303,69.116 C333.609,69.3390000000001 335.417,71.236 335.417,73.569 C335.417,73.569 335.417,74.694 335.417,74.694 C335.417,77.178 333.376,79.191 330.859,79.191 C330.859,79.191 273.891,79.191 273.891,79.191 C271.374,79.191 269.333,77.178 269.333,74.694 C269.333,74.694 269.333,73.569 269.333,73.569 C269.333,71.085 271.374,69.072 273.891,69.072 C273.891,69.072 303.225,69.072 303.225,69.072 C301.225,68.851 299.664,67.175 299.664,65.116 C299.664,65.116 299.664,62.203 299.664,62.203 C299.664,59.994 301.454,58.203 303.664,58.203 C303.664,58.203 378.162,58.203 378.162,58.203 C380.371,58.203 382.162,59.994 382.162,62.203 C382.162,62.203 382.162,65.116 382.162,65.116 C382.162,67.325 380.371,69.116 378.162,69.116 ZM317.502,46.077 C317.502,46.077 307.303,46.077 307.303,46.077 C305.094,46.077 303.303,44.2859999999999 303.303,42.077 C303.303,42.077 303.303,39.164 303.303,39.164 C303.303,36.955 305.094,35.164 307.303,35.164 C307.303,35.164 317.502,35.164 317.502,35.164 C319.711,35.164 321.501,36.955 321.501,39.164 C321.501,39.164 321.501,42.077 321.501,42.077 C321.501,44.2859999999999 319.711,46.077 317.502,46.077 Z "/><path fill="rgb( 255, 255, 255 )" d="M273.006,79.191 C273.006,79.191 312.375,79.191 312.375,79.191 C314.403,79.191 316.047,80.836 316.047,82.864 C316.047,82.864 316.047,85.638 316.047,85.638 C316.047,87.6660000000001 314.403,89.311 312.375,89.311 C312.375,89.311 273.006,89.311 273.006,89.311 C270.978,89.311 269.333,87.6660000000001 269.333,85.638 C269.333,85.638 269.333,82.864 269.333,82.864 C269.333,80.836 270.978,79.191 273.006,79.191 Z "/><path fill="rgb( 240, 243, 244 )" d="M107.33,248.452 C107.33,248.452 122.711,222.323 122.711,222.323 C122.711,222.323 122.764,248.469 122.764,248.422 C122.764,248.422 107.33,248.452 107.33,248.452 Z "/><path fill="rgb( 229, 235, 237 )" d="M122.711,222.323 C122.711,222.323 138.2,248.391 138.2,248.391 C138.2,248.391 122.764,248.429 122.764,248.422 C122.764,248.374 122.711,222.323 122.711,222.323 Z "/><path fill="rgb( 255, 255, 255 )" d="M125.337,230.447 C125.337,230.447 120.192,230.462 120.192,230.462 C120.192,230.462 122.753,225.309 122.753,225.309 C122.753,225.309 125.337,230.447 125.337,230.447 Z "/><path fill="rgb( 240, 243, 244 )" d="M122.765,249.734 C122.765,249.734 182.367,167.333 182.367,167.333 C182.367,167.333 182.573,249.787 182.573,249.639 C182.573,249.638 122.765,249.734 122.765,249.734 Z "/><path fill="rgb( 229, 235, 237 )" d="M182.367,167.333 C182.367,167.333 242.384,249.543 242.384,249.543 C242.384,249.543 182.571,249.662 182.571,249.639 C182.571,249.49 182.367,167.333 182.367,167.333 Z "/><path fill="rgb( 255, 255, 255 )" d="M194.794,190.473 C194.794,190.473 170.355,190.524 170.355,190.524 C170.355,190.524 182.52,173.775 182.52,173.775 C182.52,173.775 194.794,190.473 194.794,190.473 Z "/><path fill="rgb( 240, 243, 244 )" d="M217.946,249.756 C217.946,249.756 248.708,202.119 248.708,202.119 C248.708,202.119 248.815,249.787 248.815,249.701 C248.815,249.701 217.946,249.756 217.946,249.756 Z "/><path fill="rgb( 229, 235, 237 )" d="M248.708,202.119 C248.708,202.119 279.685,249.646 279.685,249.646 C279.685,249.646 248.813,249.715 248.813,249.701 C248.813,249.615 248.708,202.119 248.708,202.119 Z "/><path fill="rgb( 255, 255, 255 )" d="M255.247,216.263 C255.247,216.263 242.384,216.291 242.384,216.291 C242.384,216.291 248.786,207.272 248.786,207.272 C248.786,207.272 255.247,216.263 255.247,216.263 Z "/><path fill="rgb( 240, 243, 244 )" d="M250.102,248.46 C250.102,248.46 291.118,187.947 291.118,187.947 C291.118,187.947 291.26,248.499 291.26,248.39 C291.26,248.389 250.102,248.46 250.102,248.46 Z "/><path fill="rgb( 229, 235, 237 )" d="M291.118,187.947 C291.118,187.947 332.42,248.32 332.42,248.32 C332.42,248.32 291.258,248.407 291.258,248.39 C291.258,248.28 291.118,187.947 291.118,187.947 Z "/><path fill="rgb( 255, 255, 255 )" d="M298.978,204.661 C298.978,204.661 283.544,204.695 283.544,204.695 C283.544,204.695 291.226,193.1 291.226,193.1 C291.226,193.1 298.978,204.661 298.978,204.661 Z "/><path fill="rgb( 240, 243, 244 )" d="M54.595,248.469 C54.595,248.469 84.075,202.119 84.075,202.119 C84.075,202.119 84.177,248.499 84.177,248.415 C84.177,248.415 54.595,248.469 54.595,248.469 Z "/><path fill="rgb( 229, 235, 237 )" d="M84.075,202.119 C84.075,202.119 113.761,248.362 113.761,248.362 C113.761,248.362 84.176,248.429 84.176,248.415 C84.176,248.332 84.075,202.119 84.075,202.119 Z "/><path fill="rgb( 255, 255, 255 )" d="M89.323,213.691 C89.323,213.691 79.033,213.714 79.033,213.714 C79.033,213.714 84.155,205.984 84.155,205.984 C84.155,205.984 89.323,213.691 89.323,213.691 Z "/><path fill="rgb( 82, 96, 105 )" d="M341.626,251 C341.626,251 268.62,251 268.62,251 C268.344,251 268.12,250.776 268.12,250.5 C268.12,250.5 268.12,249.075 268.12,249.075 C268.12,248.799 268.344,248.575 268.62,248.575 C268.62,248.575 341.626,248.575 341.626,248.575 C341.902,248.575 342.126,248.799 342.126,249.075 C342.126,249.075 342.126,250.5 342.126,250.5 C342.126,250.776 341.902,251 341.626,251 ZM251.635,251 C251.359,251 251.135,250.776 251.135,250.5 C251.135,250.5 251.135,249.075 251.135,249.075 C251.135,248.799 251.359,248.575 251.635,248.575 C251.635,248.575 263.98,248.575 263.98,248.575 C264.257,248.575 264.48,248.799 264.48,249.075 C264.48,249.075 264.48,250.5 264.48,250.5 C264.48,250.776 264.257,251 263.98,251 C263.98,251 251.635,251 251.635,251 ZM206.746,251 C206.47,251 206.246,250.776 206.246,250.5 C206.246,250.5 206.246,249.075 206.246,249.075 C206.246,248.799 206.47,248.575 206.746,248.575 C206.746,248.575 245.782,248.575 245.782,248.575 C246.058,248.575 246.282,248.799 246.282,249.075 C246.282,249.075 246.282,250.5 246.282,250.5 C246.282,250.776 246.058,251 245.782,251 C245.782,251 206.746,251 206.746,251 ZM138.806,251 C138.53,251 138.306,250.776 138.306,250.5 C138.306,250.5 138.306,249.075 138.306,249.075 C138.306,248.799 138.53,248.575 138.806,248.575 C138.806,248.575 199.68,248.575 199.68,248.575 C199.956,248.575 200.18,248.799 200.18,249.075 C200.18,249.075 200.18,250.5 200.18,250.5 C200.18,250.776 199.956,251 199.68,251 C199.68,251 138.806,251 138.806,251 ZM109.689,251 C109.413,251 109.189,250.776 109.189,250.5 C109.189,250.5 109.189,249.075 109.189,249.075 C109.189,248.799 109.413,248.575 109.689,248.575 C109.689,248.575 131.74,248.575 131.74,248.575 C132.016,248.575 132.24,248.799 132.24,249.075 C132.24,249.075 132.24,250.5 132.24,250.5 C132.24,250.776 132.016,251 131.74,251 C131.74,251 109.689,251 109.689,251 ZM97.557,251 C97.2809999999999,251 97.057,250.776 97.057,250.5 C97.057,250.5 97.057,249.075 97.057,249.075 C97.057,248.799 97.2809999999999,248.575 97.557,248.575 C97.557,248.575 105.05,248.575 105.05,248.575 C105.326,248.575 105.549,248.799 105.549,249.075 C105.549,249.075 105.549,250.5 105.549,250.5 C105.549,250.776 105.326,251 105.05,251 C105.05,251 97.557,251 97.557,251 ZM50.242,251 C49.966,251 49.742,250.776 49.742,250.5 C49.742,250.5 49.742,249.075 49.742,249.075 C49.742,248.799 49.966,248.575 50.242,248.575 C50.242,248.575 91.704,248.575 91.704,248.575 C91.98,248.575 92.204,248.799 92.204,249.075 C92.204,249.075 92.204,250.5 92.204,250.5 C92.204,250.776 91.98,251 91.704,251 C91.704,251 50.242,251 50.242,251 Z "/><path stroke="rgb( 82, 96, 105 )" stroke-width="2px" stroke-linecap="butt" stroke-linejoin="miter" fill="rgb( 154, 155, 157 )" d="M188.048,89.729 C188.048,89.729 201.393,89.729 201.393,89.729 C201.393,89.729 201.393,251 201.393,251 C201.393,251 188.048,251 188.048,251 C188.048,251 188.048,89.729 188.048,89.729 Z "/><path stroke="rgb( 82, 96, 105 )" stroke-width="2px" stroke-linecap="butt" stroke-linejoin="miter" fill="rgb( 247, 114, 103 )" d="M221.823,133.312 C221.823,133.312 166.574,133.382 166.574,133.382 C166.574,133.382 127.457,94.385 127.457,94.385 C127.457,94.385 127.387,39.165 127.387,39.165 C127.387,39.165 166.405,0.07000000000005 166.405,0.07000000000005 C166.405,0.07000000000005 221.655,0 221.655,0 C221.655,0 260.771,38.997 260.771,38.997 C260.771,38.997 260.841,94.216 260.841,94.216 C260.841,94.216 221.823,133.312 221.823,133.312 Z "/><path stroke="rgb( 255, 255, 255 )" stroke-width="3px" stroke-linecap="butt" stroke-linejoin="miter" fill="rgb( 245, 84, 72 )" d="M217.648,125.581 C217.648,125.581 169.359,125.612 169.359,125.612 C169.359,125.612 135.192,91.5069999999999 135.192,91.5069999999999 C135.192,91.5069999999999 135.161,43.244 135.161,43.244 C135.161,43.244 169.285,9.096 169.285,9.096 C169.285,9.096 217.573,9.06500000000005 217.573,9.06500000000005 C217.573,9.06500000000005 251.74,43.17 251.74,43.17 C251.74,43.17 251.771,91.432 251.771,91.432 C251.771,91.432 217.648,125.581 217.648,125.581 Z "/><text font-family="Microsoft YaHei" fill="rgb( 255, 255, 255 )" transform="matrix( 1.21321321321321, 0, 0, 1.21256038647343,780.456456456456, 747.562801932367)" font-size="13px">&#26242;&#26080;&#25968;&#25454;</text><path fill="rgb( 255, 255, 255 )" d="M193.508,31.527 C194.513,31.527 195.327,32.341 195.327,33.345 C195.327,34.35 194.513,35.164 193.508,35.164 C192.502,35.164 191.688,34.35 191.688,33.345 C191.688,32.341 192.502,31.527 193.508,31.527 Z "/><path fill="rgb( 255, 255, 255 )" d="M193.508,98.217 C194.513,98.217 195.327,99.032 195.327,100.036 C195.327,101.041 194.513,101.855 193.508,101.855 C192.502,101.855 191.688,101.041 191.688,100.036 C191.688,99.032 192.502,98.217 193.508,98.217 Z "/></svg>